# vtk DataFile Version 3.0
tp3485 cell-vector
ASCII
DATASET UNSTRUCTURED_GRID
POINTS 66 double
0 0 0
0.1 0 0
0.2 0 0
0.3 0 0
0.4 0 0
0.5 0 0
0.6 0 0
0.7 0 0
0.8 0 0
0.9 0 0
1 0 0
0 0.09 0
0.1 0.09 0
0.2 0.09 0
0.3 0.09 0
0.4 0.09 0
0.5 0.09 0
0.6 0.09 0
0.7 0.09 0
0.8 0.09 0
0.9 0.09 0
1 0.09 0
0 0.18 0
0.1 0.18 0
0.2 0.18 0
0.3 0.18 0
0.4 0.18 0
0.5 0.18 0
0.6 0.18 0
0.7 0.18 0
0.8 0.18 0
0.9 0.18 0
1 0.18 0
0 0.27 0
0.1 0.27 0
0.2 0.27 0
0.3 0.27 0
0.4 0.27 0
0.5 0.27 0
0.6 0.27 0
0.7 0.27 0
0.8 0.27 0
0.9 0.27 0
1 0.27 0
0 0.36 0
0.1 0.36 0
0.2 0.36 0
0.3 0.36 0
0.4 0.36 0
0.5 0.36 0
0.6 0.36 0
0.7 0.36 0
0.8 0.36 0
0.9 0.36 0
1 0.36 0
0 0.45 0
0.1 0.45 0
0.2 0.45 0
0.3 0.45 0
0.4 0.45 0
0.5 0.45 0
0.6 0.45 0
0.7 0.45 0
0.8 0.45 0
0.9 0.45 0
1 0.45 0
CELLS 100 400
3 0 1 12
3 0 12 11
3 1 2 13
3 1 13 12
3 2 3 14
3 2 14 13
3 3 4 15
3 3 15 14
3 4 5 16
3 4 16 15
3 5 6 17
3 5 17 16
3 6 7 18
3 6 18 17
3 7 8 19
3 7 19 18
3 8 9 20
3 8 20 19
3 9 10 21
3 9 21 20
3 11 12 23
3 11 23 22
3 12 13 24
3 12 24 23
3 13 14 25
3 13 25 24
3 14 15 26
3 14 26 25
3 15 16 27
3 15 27 26
3 16 17 28
3 16 28 27
3 17 18 29
3 17 29 28
3 18 19 30
3 18 30 29
3 19 20 31
3 19 31 30
3 20 21 32
3 20 32 31
3 22 23 34
3 22 34 33
3 23 24 35
3 23 35 34
3 24 25 36
3 24 36 35
3 25 26 37
3 25 37 36
3 26 27 38
3 26 38 37
3 27 28 39
3 27 39 38
3 28 29 40
3 28 40 39
3 29 30 41
3 29 41 40
3 30 31 42
3 30 42 41
3 31 32 43
3 31 43 42
3 33 34 45
3 33 45 44
3 34 35 46
3 34 46 45
3 35 36 47
3 35 47 46
3 36 37 48
3 36 48 47
3 37 38 49
3 37 49 48
3 38 39 50
3 38 50 49
3 39 40 51
3 39 51 50
3 40 41 52
3 40 52 51
3 41 42 53
3 41 53 52
3 42 43 54
3 42 54 53
3 44 45 56
3 44 56 55
3 45 46 57
3 45 57 56
3 46 47 58
3 46 58 57
3 47 48 59
3 47 59 58
3 48 49 60
3 48 60 59
3 49 50 61
3 49 61 60
3 50 51 62
3 50 62 61
3 51 52 63
3 51 63 62
3 52 53 64
3 52 64 63
3 53 54 65
3 53 65 64
CELL_TYPES 100
5
5
5
5
5
5
5
5
5
5
5
5
5
5
5
5
5
5
5
5
5
5
5
5
5
5
5
5
5
5
5
5
5
5
5
5
5
5
5
5
5
5
5
5
5
5
5
5
5
5
5
5
5
5
5
5
5
5
5
5
5
5
5
5
5
5
5
5
5
5
5
5
5
5
5
5
5
5
5
5
5
5
5
5
5
5
5
5
5
5
5
5
5
5
5
5
5
5
5
5
CELL_DATA 100
VECTORS Et double
-0.268091 0.231859 0
-0.782148 0.252577 0
-0.0625798 0.783833 0
-0.149803 0.670477 0
0.0186843 0.164564 0
-0.543996 0.831946 0
0.00664286 0.0431735 0
-0.0638316 0.136332 0
0.00315283 0.0103936 0
-0.0100918 0.0322028 0
0.00191397 -0.00053926 0
0.00117129 0.0046515 0
0.00122752 -0.00339492 0
0.00443995 -0.00413314 0
0.00076765 -0.00344985 0
0.00439307 -0.00569199 0
0.000467871 -0.00201567 0
0.00400396 -0.00486379 0
0.000327742 0.000364158 0
0.00390024 -0.00288833 0
-0.991266 -0.13188 0
-0.776178 -0.175322 0
-0.287189 -0.19967 0
-0.220151 -0.219087 0
-0.52202 0.0353132 0
-0.333432 -0.179494 0
-0.0544844 0.0024577 0
-0.0789045 0.03241 0
-0.00509387 0.000787103 0
-0.000259513 -0.00153839 0
0.00446058 -0.00120413 0
0.00773453 -0.00230117 0
0.00660905 -0.00307336 0
0.00854186 -0.00344901 0
0.00573603 -0.00306323 0
0.0079949 -0.00451514 0
0.00476867 -0.0018205 0
0.00706759 -0.00385421 0
0.00436016 0.000158213 0
0.00667375 -0.0021817 0
-0.339815 -0.307159 0
0.311722 -0.360782 0
-0.101781 -0.888224 0
0.0402905 -0.799114 0
-0.354452 -0.161972 0
0.300519 -0.928787 0
-0.081189 -0.0206793 0
0.0206847 -0.141597 0
0.00058782 -0.00611988 0
0.00956493 -0.0172356 0
0.00896967 -0.00267913 0
0.0117929 -0.00577366 0
0.0094658 -0.00293697 0
0.00954474 -0.00287688 0
0.00846764 -0.0028769 0
0.00850037 -0.00301074 0
0.0071572 -0.00187351 0
0.00751835 -0.00265521 0
0.00654445 -0.000216194 0
0.00711452 -0.00140346 0
0.790445 -0.0721641 0
0.96859 -0.049485 0
0.249562 -0.3648 0
0.263857 -0.286943 0
0.267977 -0.12288 0
0.503989 -0.406097 0
0.0123985 -0.0219007 0
0.0824111 -0.107158 0
0.00741398 -0.00472397 0
0.0150313 -0.0162763 0
0.0109353 -0.00295752 0
0.00864317 -0.00224632 0
0.00900831 -0.00250882 0
0.00682678 -0.00142044 0
0.00791073 -0.00239723 0
0.00580316 -0.00127471 0
0.00677229 -0.00173861 0
0.00511553 -0.00117228 0
0.00625453 -0.000617889 0
0.0048844 -0.000435549 0
0.832192 0.253333 0
0.293086 0.325651 0
0.270852 0.662398 0
0.14193 0.612071 0
0.500363 0.0940462 0
-0.0130489 0.683772 0
0.0777523 0.00315169 0
-0.000410755 0.0888198 0
0.0120326 -0.00211267 0
0.00145076 0.00639982 0
0.00652601 -0.00215216 0
0.00129416 0.000958449 0
0.00520345 -0.00219454 0
0.00103807 0.000265844 0
0.00436966 -0.00215872 0
0.000891498 -0.00018957 0
0.00369395 -0.001659 0
0.000843979 -0.000316054 0
0.00343144 -0.000892261 0
0.000840375 0.000160688 0
