# vtk DataFile Version 3.0
tp3485 cell-vector
ASCII
DATASET UNSTRUCTURED_GRID
POINTS 66 double
0 0 0
0.1 0 0
0.2 0 0
0.3 0 0
0.4 0 0
0.5 0 0
0.6 0 0
0.7 0 0
0.8 0 0
0.9 0 0
1 0 0
0 0.09 0
0.1 0.09 0
0.2 0.09 0
0.3 0.09 0
0.4 0.09 0
0.5 0.09 0
0.6 0.09 0
0.7 0.09 0
0.8 0.09 0
0.9 0.09 0
1 0.09 0
0 0.18 0
0.1 0.18 0
0.2 0.18 0
0.3 0.18 0
0.4 0.18 0
0.5 0.18 0
0.6 0.18 0
0.7 0.18 0
0.8 0.18 0
0.9 0.18 0
1 0.18 0
0 0.27 0
0.1 0.27 0
0.2 0.27 0
0.3 0.27 0
0.4 0.27 0
0.5 0.27 0
0.6 0.27 0
0.7 0.27 0
0.8 0.27 0
0.9 0.27 0
1 0.27 0
0 0.36 0
0.1 0.36 0
0.2 0.36 0
0.3 0.36 0
0.4 0.36 0
0.5 0.36 0
0.6 0.36 0
0.7 0.36 0
0.8 0.36 0
0.9 0.36 0
1 0.36 0
0 0.45 0
0.1 0.45 0
0.2 0.45 0
0.3 0.45 0
0.4 0.45 0
0.5 0.45 0
0.6 0.45 0
0.7 0.45 0
0.8 0.45 0
0.9 0.45 0
1 0.45 0
CELLS 100 400
3 0 1 12
3 0 12 11
3 1 2 13
3 1 13 12
3 2 3 14
3 2 14 13
3 3 4 15
3 3 15 14
3 4 5 16
3 4 16 15
3 5 6 17
3 5 17 16
3 6 7 18
3 6 18 17
3 7 8 19
3 7 19 18
3 8 9 20
3 8 20 19
3 9 10 21
3 9 21 20
3 11 12 23
3 11 23 22
3 12 13 24
3 12 24 23
3 13 14 25
3 13 25 24
3 14 15 26
3 14 26 25
3 15 16 27
3 15 27 26
3 16 17 28
3 16 28 27
3 17 18 29
3 17 29 28
3 18 19 30
3 18 30 29
3 19 20 31
3 19 31 30
3 20 21 32
3 20 32 31
3 22 23 34
3 22 34 33
3 23 24 35
3 23 35 34
3 24 25 36
3 24 36 35
3 25 26 37
3 25 37 36
3 26 27 38
3 26 38 37
3 27 28 39
3 27 39 38
3 28 29 40
3 28 40 39
3 29 30 41
3 29 41 40
3 30 31 42
3 30 42 41
3 31 32 43
3 31 43 42
3 33 34 45
3 33 45 44
3 34 35 46
3 34 46 45
3 35 36 47
3 35 47 46
3 36 37 48
3 36 48 47
3 37 38 49
3 37 49 48
3 38 39 50
3 38 50 49
3 39 40 51
3 39 51 50
3 40 41 52
3 40 52 51
3 41 42 53
3 41 53 52
3 42 43 54
3 42 54 53
3 44 45 56
3 44 56 55
3 45 46 57
3 45 57 56
3 46 47 58
3 46 58 57
3 47 48 59
3 47 59 58
3 48 49 60
3 48 60 59
3 49 50 61
3 49 61 60
3 50 51 62
3 50 62 61
3 51 52 63
3 51 63 62
3 52 53 64
3 52 64 63
3 53 54 65
3 53 65 64
CELL_TYPES 100
5
5
5
5
5
5
5
5
5
5
5
5
5
5
5
5
5
5
5
5
5
5
5
5
5
5
5
5
5
5
5
5
5
5
5
5
5
5
5
5
5
5
5
5
5
5
5
5
5
5
5
5
5
5
5
5
5
5
5
5
5
5
5
5
5
5
5
5
5
5
5
5
5
5
5
5
5
5
5
5
5
5
5
5
5
5
5
5
5
5
5
5
5
5
5
5
5
5
5
5
CELL_DATA 100
VECTORS Et double
0.0430582 -0.160103 0
0.0399734 -0.0544164 0
-0.00777775 -0.217712 0
-0.00271216 -0.219964 0
-0.0367602 -0.251641 0
-0.168532 -0.177571 0
-0.054365 -0.257167 0
-0.241084 -0.160452 0
-0.0700437 -0.249375 0
-0.308751 -0.129366 0
-0.0833886 -0.234071 0
-0.370819 -0.089453 0
-0.0942794 -0.214578 0
-0.424089 -0.0471476 0
-0.102695 -0.190806 0
-0.465308 -0.00591635 0
-0.10852 -0.163108 0
-0.494511 0.0342468 0
-0.11152 -0.123912 0
-0.503686 0.0726927 0
0.120873 -0.0973983 0
0.122833 -0.0320515 0
0.00469712 -0.144565 0
0.00754351 -0.142192 0
-0.221659 -0.161663 0
-0.295565 -0.123928 0
-0.323397 -0.160815 0
-0.434167 -0.106492 0
-0.417108 -0.153272 0
-0.561742 -0.082635 0
-0.501384 -0.142832 0
-0.677281 -0.0553185 0
-0.572897 -0.131655 0
-0.775945 -0.0284878 0
-0.628487 -0.119361 0
-0.85273 -0.00409306 0
-0.668132 -0.104903 0
-0.907303 0.0184596 0
-0.683557 -0.0846327 0
-0.928882 0.0401906 0
0.159958 0.0014478 0
0.163498 0.00335601 0
0.0175408 -0.0128173 0
0.018261 -0.00979064 0
-0.314569 -0.00721736 0
-0.305404 -0.0181339 0
-0.4651 0.000637936 0
-0.459091 -0.00786167 0
-0.602662 0.00656031 0
-0.598659 0.0005395 0
-0.726225 0.00844941 0
-0.724306 0.00592468 0
-0.83129 0.00570981 0
-0.831277 0.00672369 0
-0.913313 -0.000572957 0
-0.914862 0.0030792 0
-0.972228 -0.00758021 0
-0.974471 -0.00327771 0
-0.99723 -0.012814 0
-0.999957 -0.00922784 0
0.140689 0.098515 0
0.139575 0.0388829 0
0.0249429 0.126645 0
0.0218193 0.128001 0
-0.284433 0.15154 0
-0.200499 0.0996563 0
-0.428156 0.164548 0
-0.309564 0.0970063 0
-0.557545 0.168142 0
-0.407379 0.0876139 0
-0.67344 0.161557 0
-0.495075 0.0700716 0
-0.771938 0.145341 0
-0.569581 0.0446771 0
-0.849206 0.121361 0
-0.628034 0.0131863 0
-0.905264 0.0939916 0
-0.669896 -0.0214978 0
-0.930124 0.0642234 0
-0.68892 -0.0544655 0
0.0634675 0.154677 0
0.0538545 0.0598384 0
0.020273 0.217195 0
0.013543 0.215406 0
-0.149132 0.249431 0
-0.0276652 0.180675 0
-0.22995 0.263739 0
-0.045608 0.163287 0
-0.300988 0.265452 0
-0.0624835 0.140616 0
-0.364349 0.25405 0
-0.0778375 0.108224 0
-0.41815 0.230286 0
-0.0910452 0.0668551 0
-0.460717 0.19667 0
-0.101441 0.0187171 0
-0.492361 0.158911 0
-0.108511 -0.0324276 0
-0.507027 0.117012 0
-0.112097 -0.0802349 0
