# vtk DataFile Version 3.0
tp3485 cell-vector
ASCII
DATASET UNSTRUCTURED_GRID
POINTS 66 double
0 0 0
0.1 0 0
0.2 0 0
0.3 0 0
0.4 0 0
0.5 0 0
0.6 0 0
0.7 0 0
0.8 0 0
0.9 0 0
1 0 0
0 0.09 0
0.1 0.09 0
0.2 0.09 0
0.3 0.09 0
0.4 0.09 0
0.5 0.09 0
0.6 0.09 0
0.7 0.09 0
0.8 0.09 0
0.9 0.09 0
1 0.09 0
0 0.18 0
0.1 0.18 0
0.2 0.18 0
0.3 0.18 0
0.4 0.18 0
0.5 0.18 0
0.6 0.18 0
0.7 0.18 0
0.8 0.18 0
0.9 0.18 0
1 0.18 0
0 0.27 0
0.1 0.27 0
0.2 0.27 0
0.3 0.27 0
0.4 0.27 0
0.5 0.27 0
0.6 0.27 0
0.7 0.27 0
0.8 0.27 0
0.9 0.27 0
1 0.27 0
0 0.36 0
0.1 0.36 0
0.2 0.36 0
0.3 0.36 0
0.4 0.36 0
0.5 0.36 0
0.6 0.36 0
0.7 0.36 0
0.8 0.36 0
0.9 0.36 0
1 0.36 0
0 0.45 0
0.1 0.45 0
0.2 0.45 0
0.3 0.45 0
0.4 0.45 0
0.5 0.45 0
0.6 0.45 0
0.7 0.45 0
0.8 0.45 0
0.9 0.45 0
1 0.45 0
CELLS 100 400
3 0 1 12
3 0 12 11
3 1 2 13
3 1 13 12
3 2 3 14
3 2 14 13
3 3 4 15
3 3 15 14
3 4 5 16
3 4 16 15
3 5 6 17
3 5 17 16
3 6 7 18
3 6 18 17
3 7 8 19
3 7 19 18
3 8 9 20
3 8 20 19
3 9 10 21
3 9 21 20
3 11 12 23
3 11 23 22
3 12 13 24
3 12 24 23
3 13 14 25
3 13 25 24
3 14 15 26
3 14 26 25
3 15 16 27
3 15 27 26
3 16 17 28
3 16 28 27
3 17 18 29
3 17 29 28
3 18 19 30
3 18 30 29
3 19 20 31
3 19 31 30
3 20 21 32
3 20 32 31
3 22 23 34
3 22 34 33
3 23 24 35
3 23 35 34
3 24 25 36
3 24 36 35
3 25 26 37
3 25 37 36
3 26 27 38
3 26 38 37
3 27 28 39
3 27 39 38
3 28 29 40
3 28 40 39
3 29 30 41
3 29 41 40
3 30 31 42
3 30 42 41
3 31 32 43
3 31 43 42
3 33 34 45
3 33 45 44
3 34 35 46
3 34 46 45
3 35 36 47
3 35 47 46
3 36 37 48
3 36 48 47
3 37 38 49
3 37 49 48
3 38 39 50
3 38 50 49
3 39 40 51
3 39 51 50
3 40 41 52
3 40 52 51
3 41 42 53
3 41 53 52
3 42 43 54
3 42 54 53
3 44 45 56
3 44 56 55
3 45 46 57
3 45 57 56
3 46 47 58
3 46 58 57
3 47 48 59
3 47 59 58
3 48 49 60
3 48 60 59
3 49 50 61
3 49 61 60
3 50 51 62
3 50 62 61
3 51 52 63
3 51 63 62
3 52 53 64
3 52 64 63
3 53 54 65
3 53 65 64
CELL_TYPES 100
5
5
5
5
5
5
5
5
5
5
5
5
5
5
5
5
5
5
5
5
5
5
5
5
5
5
5
5
5
5
5
5
5
5
5
5
5
5
5
5
5
5
5
5
5
5
5
5
5
5
5
5
5
5
5
5
5
5
5
5
5
5
5
5
5
5
5
5
5
5
5
5
5
5
5
5
5
5
5
5
5
5
5
5
5
5
5
5
5
5
5
5
5
5
5
5
5
5
5
5
CELL_DATA 100
VECTORS Et double
0.0282448 0.456964 0
0.528145 -0.0335489 0
0.0261117 -0.32826 0
-0.563919 0.390962 0
-0.0101378 -0.359832 0
-0.0245831 -0.356159 0
-0.0432534 0.249004 0
0.384659 -0.31154 0
-0.0372881 -0.172342 0
-0.565529 0.335112 0
-0.0230787 -0.0219709 0
-0.00711479 -0.0981314 0
-0.00900783 0.0177348 0
-0.0283236 0.01643 0
-0.00354267 0.0180508 0
-0.0247205 0.0326944 0
-0.00146855 0.00937045 0
-0.0178498 0.0239636 0
-0.000784358 -0.000871509 0
-0.0139224 0.0119285 0
0.576342 0.0605332 0
0.675909 -0.0150462 0
-0.513727 -0.472696 0
-0.922398 0.021531 0
-0.0294827 -0.299466 0
0.147458 -0.497121 0
0.324554 0.102383 0
0.626854 -0.279199 0
-0.623626 -0.0762939 0
-0.867828 0.150338 0
-0.051685 -0.0153246 0
-0.0657315 -0.0331251 0
-0.0460091 0.00877302 0
-0.0583123 0.00848449 0
-0.0316686 0.00987047 0
-0.044453 0.0184858 0
-0.0206753 0.00513073 0
-0.0305484 0.0137888 0
-0.0153183 -0.000624624 0
-0.0230822 0.00683551 0
0.690052 -0.110463 0
0.572978 0.0101445 0
-0.900286 -0.0790033 0
-0.874341 -0.106696 0
0.155397 0.0988362 0
0.339097 -0.0921513 0
0.610804 0.0617723 0
0.598126 0.0836266 0
-0.889661 -0.022597 0
-0.964809 0.0592554 0
-0.0837337 -0.00930487 0
-0.0776951 -0.0179446 0
-0.0660869 -0.00393363 0
-0.0645684 -0.00658017 0
-0.0476095 -0.00171534 0
-0.0472837 -0.00256295 0
-0.0318762 -0.00067302 0
-0.031774 -0.00107059 0
-0.0237419 -0.000191177 0
-0.0237666 -0.000350826 0
0.54511 -0.0962671 0
0.38032 0.0330066 0
-0.889232 0.457457 0
-0.467281 -0.0494665 0
0.360541 0.393919 0
0.32813 0.457874 0
0.631269 -0.0877518 0
0.294213 0.345793 0
-0.946228 0.0501168 0
-0.738716 -0.139567 0
-0.0669195 -0.00326066 0
-0.0558451 0.0144423 0
-0.0603925 -0.0172169 0
-0.0457996 -0.0216151 0
-0.0457384 -0.0138065 0
-0.0323084 -0.0242286 0
-0.0312277 -0.00679986 0
-0.0210178 -0.0164508 0
-0.0235148 0.000275797 0
-0.0154899 -0.00786482 0
0.31536 -0.169107 0
0.0426367 0.0473741 0
-0.514885 0.588855 0
0.0359349 -0.090009 0
0.358509 0.157494 0
-0.0113604 0.603145 0
0.364705 -0.446026 0
-0.0389347 0.0921716 0
-0.687035 0.129291 0
-0.0326511 -0.528754 0
-0.0193409 0.00222627 0
-0.0284001 0.0649657 0
-0.0315688 -0.0280627 0
-0.0108673 -0.0309665 0
-0.0268696 -0.0229709 0
-0.00410442 -0.0406463 0
-0.0189338 -0.0113951 0
-0.00156477 -0.0277683 0
-0.0144992 0.000600752 0
-0.000697996 -0.0133576 0
