# vtk DataFile Version 3.0
tp3485 cell-vector
ASCII
DATASET UNSTRUCTURED_GRID
POINTS 66 double
0 0 0
0.1 0 0
0.2 0 0
0.3 0 0
0.4 0 0
0.5 0 0
0.6 0 0
0.7 0 0
0.8 0 0
0.9 0 0
1 0 0
0 0.09 0
0.1 0.09 0
0.2 0.09 0
0.3 0.09 0
0.4 0.09 0
0.5 0.09 0
0.6 0.09 0
0.7 0.09 0
0.8 0.09 0
0.9 0.09 0
1 0.09 0
0 0.18 0
0.1 0.18 0
0.2 0.18 0
0.3 0.18 0
0.4 0.18 0
0.5 0.18 0
0.6 0.18 0
0.7 0.18 0
0.8 0.18 0
0.9 0.18 0
1 0.18 0
0 0.27 0
0.1 0.27 0
0.2 0.27 0
0.3 0.27 0
0.4 0.27 0
0.5 0.27 0
0.6 0.27 0
0.7 0.27 0
0.8 0.27 0
0.9 0.27 0
1 0.27 0
0 0.36 0
0.1 0.36 0
0.2 0.36 0
0.3 0.36 0
0.4 0.36 0
0.5 0.36 0
0.6 0.36 0
0.7 0.36 0
0.8 0.36 0
0.9 0.36 0
1 0.36 0
0 0.45 0
0.1 0.45 0
0.2 0.45 0
0.3 0.45 0
0.4 0.45 0
0.5 0.45 0
0.6 0.45 0
0.7 0.45 0
0.8 0.45 0
0.9 0.45 0
1 0.45 0
CELLS 100 400
3 0 1 12
3 0 12 11
3 1 2 13
3 1 13 12
3 2 3 14
3 2 14 13
3 3 4 15
3 3 15 14
3 4 5 16
3 4 16 15
3 5 6 17
3 5 17 16
3 6 7 18
3 6 18 17
3 7 8 19
3 7 19 18
3 8 9 20
3 8 20 19
3 9 10 21
3 9 21 20
3 11 12 23
3 11 23 22
3 12 13 24
3 12 24 23
3 13 14 25
3 13 25 24
3 14 15 26
3 14 26 25
3 15 16 27
3 15 27 26
3 16 17 28
3 16 28 27
3 17 18 29
3 17 29 28
3 18 19 30
3 18 30 29
3 19 20 31
3 19 31 30
3 20 21 32
3 20 32 31
3 22 23 34
3 22 34 33
3 23 24 35
3 23 35 34
3 24 25 36
3 24 36 35
3 25 26 37
3 25 37 36
3 26 27 38
3 26 38 37
3 27 28 39
3 27 39 38
3 28 29 40
3 28 40 39
3 29 30 41
3 29 41 40
3 30 31 42
3 30 42 41
3 31 32 43
3 31 43 42
3 33 34 45
3 33 45 44
3 34 35 46
3 34 46 45
3 35 36 47
3 35 47 46
3 36 37 48
3 36 48 47
3 37 38 49
3 37 49 48
3 38 39 50
3 38 50 49
3 39 40 51
3 39 51 50
3 40 41 52
3 40 52 51
3 41 42 53
3 41 53 52
3 42 43 54
3 42 54 53
3 44 45 56
3 44 56 55
3 45 46 57
3 45 57 56
3 46 47 58
3 46 58 57
3 47 48 59
3 47 59 58
3 48 49 60
3 48 60 59
3 49 50 61
3 49 61 60
3 50 51 62
3 50 62 61
3 51 52 63
3 51 63 62
3 52 53 64
3 52 64 63
3 53 54 65
3 53 65 64
CELL_TYPES 100
5
5
5
5
5
5
5
5
5
5
5
5
5
5
5
5
5
5
5
5
5
5
5
5
5
5
5
5
5
5
5
5
5
5
5
5
5
5
5
5
5
5
5
5
5
5
5
5
5
5
5
5
5
5
5
5
5
5
5
5
5
5
5
5
5
5
5
5
5
5
5
5
5
5
5
5
5
5
5
5
5
5
5
5
5
5
5
5
5
5
5
5
5
5
5
5
5
5
5
5
CELL_DATA 100
VECTORS Et double
0.112244 -0.703299 0
-0.144653 -0.146571 0
-0.00290107 -0.925791 0
-0.0162615 -0.871092 0
-0.113016 -0.341431 0
0.125606 -0.827353 0
-0.123114 0.543905 0
0.169741 -0.0670698 0
-0.0249237 0.9746 0
0.0853102 0.752561 0
0.0967066 0.596611 0
-0.0480506 0.933598 0
0.0440824 0.171339 0
-0.0556998 0.410173 0
0.0114517 0.0427463 0
-0.0118817 0.101877 0
0.00302817 0.0102701 0
-0.0021389 0.0246991 0
0.00105668 0.00117409 0
-0.000250204 0.00535288 0
0.100748 -0.677804 0
-0.129249 -0.148078 0
0.02029 -0.91815 0
-0.00591486 -0.8477 0
-0.0743906 -0.364019 0
0.133764 -0.818996 0
-0.0906715 0.503881 0
0.174558 -0.0841959 0
-0.00817654 0.940942 0
0.0915884 0.721261 0
0.107638 0.588358 0
-0.0271191 0.907667 0
0.0579295 0.167692 0
-0.0452625 0.406842 0
0.017568 0.0413872 0
-0.00668974 0.100502 0
0.00555797 0.00965895 0
0.000197697 0.023995 0
0.00216442 0.00113033 0
0.00110112 0.00493606 0
0.117919 -0.708906 0
-0.13848 -0.148732 0
0.0306375 -0.961543 0
-0.00729223 -0.879021 0
-0.0703386 -0.394575 0
0.14147 -0.859184 0
-0.0941534 0.505815 0
0.183854 -0.106659 0
-0.0108962 0.969751 0
0.0937895 0.733974 0
0.124125 0.603378 0
-0.0342072 0.944434 0
0.0663907 0.174338 0
-0.046126 0.423404 0
0.0221154 0.0443476 0
-0.00615833 0.107674 0
0.00770412 0.0108614 0
0.000535907 0.027139 0
0.00346278 0.00113013 0
0.00127546 0.00618138 0
0.110181 -0.694521 0
-0.129862 -0.150124 0
0.0283151 -0.959706 0
-0.0204059 -0.865825 0
-0.0681341 -0.413498 0
0.116731 -0.854165 0
-0.0945119 0.480948 0
0.160828 -0.117006 0
-0.0180707 0.956559 0
0.0781855 0.720073 0
0.113435 0.608434 0
-0.0370909 0.937902 0
0.0654166 0.179187 0
-0.0484273 0.42958 0
0.0224687 0.0467123 0
-0.00845934 0.11276 0
0.007985 0.0118332 0
-0.000646349 0.0296539 0
0.0036268 0.00112186 0
0.000501079 0.00719846 0
0.121161 -0.717913 0
-0.13635 -0.1515 0
0.0158072 -0.996411 0
-0.0406962 -0.89192 0
-0.0963935 -0.446125 0
0.0913235 -0.891432 0
-0.125253 0.478722 0
0.148596 -0.145755 0
-0.0415887 0.999135 0
0.0821039 0.725044 0
0.109692 0.642269 0
-0.0533578 0.985277 0
0.063167 0.189463 0
-0.0699741 0.461966 0
0.0199133 0.0502304 0
-0.0175393 0.123156 0
0.00670755 0.0128699 0
-0.00449711 0.0334101 0
0.0028327 0.00110898 0
-0.00132318 0.00830581 0
