# vtk DataFile Version 3.0
tp3485 cell-vector
ASCII
DATASET UNSTRUCTURED_GRID
POINTS 66 double
0 0 0
0.1 0 0
0.2 0 0
0.3 0 0
0.4 0 0
0.5 0 0
0.6 0 0
0.7 0 0
0.8 0 0
0.9 0 0
1 0 0
0 0.09 0
0.1 0.09 0
0.2 0.09 0
0.3 0.09 0
0.4 0.09 0
0.5 0.09 0
0.6 0.09 0
0.7 0.09 0
0.8 0.09 0
0.9 0.09 0
1 0.09 0
0 0.18 0
0.1 0.18 0
0.2 0.18 0
0.3 0.18 0
0.4 0.18 0
0.5 0.18 0
0.6 0.18 0
0.7 0.18 0
0.8 0.18 0
0.9 0.18 0
1 0.18 0
0 0.27 0
0.1 0.27 0
0.2 0.27 0
0.3 0.27 0
0.4 0.27 0
0.5 0.27 0
0.6 0.27 0
0.7 0.27 0
0.8 0.27 0
0.9 0.27 0
1 0.27 0
0 0.36 0
0.1 0.36 0
0.2 0.36 0
0.3 0.36 0
0.4 0.36 0
0.5 0.36 0
0.6 0.36 0
0.7 0.36 0
0.8 0.36 0
0.9 0.36 0
1 0.36 0
0 0.45 0
0.1 0.45 0
0.2 0.45 0
0.3 0.45 0
0.4 0.45 0
0.5 0.45 0
0.6 0.45 0
0.7 0.45 0
0.8 0.45 0
0.9 0.45 0
1 0.45 0
CELLS 100 400
3 0 1 12
3 0 12 11
3 1 2 13
3 1 13 12
3 2 3 14
3 2 14 13
3 3 4 15
3 3 15 14
3 4 5 16
3 4 16 15
3 5 6 17
3 5 17 16
3 6 7 18
3 6 18 17
3 7 8 19
3 7 19 18
3 8 9 20
3 8 20 19
3 9 10 21
3 9 21 20
3 11 12 23
3 11 23 22
3 12 13 24
3 12 24 23
3 13 14 25
3 13 25 24
3 14 15 26
3 14 26 25
3 15 16 27
3 15 27 26
3 16 17 28
3 16 28 27
3 17 18 29
3 17 29 28
3 18 19 30
3 18 30 29
3 19 20 31
3 19 31 30
3 20 21 32
3 20 32 31
3 22 23 34
3 22 34 33
3 23 24 35
3 23 35 34
3 24 25 36
3 24 36 35
3 25 26 37
3 25 37 36
3 26 27 38
3 26 38 37
3 27 28 39
3 27 39 38
3 28 29 40
3 28 40 39
3 29 30 41
3 29 41 40
3 30 31 42
3 30 42 41
3 31 32 43
3 31 43 42
3 33 34 45
3 33 45 44
3 34 35 46
3 34 46 45
3 35 36 47
3 35 47 46
3 36 37 48
3 36 48 47
3 37 38 49
3 37 49 48
3 38 39 50
3 38 50 49
3 39 40 51
3 39 51 50
3 40 41 52
3 40 52 51
3 41 42 53
3 41 53 52
3 42 43 54
3 42 54 53
3 44 45 56
3 44 56 55
3 45 46 57
3 45 57 56
3 46 47 58
3 46 58 57
3 47 48 59
3 47 59 58
3 48 49 60
3 48 60 59
3 49 50 61
3 49 61 60
3 50 51 62
3 50 62 61
3 51 52 63
3 51 63 62
3 52 53 64
3 52 64 63
3 53 54 65
3 53 65 64
CELL_TYPES 100
5
5
5
5
5
5
5
5
5
5
5
5
5
5
5
5
5
5
5
5
5
5
5
5
5
5
5
5
5
5
5
5
5
5
5
5
5
5
5
5
5
5
5
5
5
5
5
5
5
5
5
5
5
5
5
5
5
5
5
5
5
5
5
5
5
5
5
5
5
5
5
5
5
5
5
5
5
5
5
5
5
5
5
5
5
5
5
5
5
5
5
5
5
5
5
5
5
5
5
5
CELL_DATA 100
VECTORS Et double
0.0703875 -0.148638 0
0.147249 -0.0779152 0
0.0377289 -0.354792 0
0.0573156 -0.28074 0
0.0157284 0.0224104 0
0.442633 -0.415582 0
0.0114746 0.417507 0
0.419153 -0.00889264 0
0.00796518 0.72134 0
0.318799 0.394789 0
0.0047172 0.881624 0
0.173136 0.706112 0
0.00168542 0.877874 0
0.00996909 0.873463 0
-0.000882321 0.71118 0
-0.150423 0.876178 0
-0.00269831 0.409274 0
-0.28268 0.714763 0
-0.0036536 -0.00405956 0
-0.389151 0.416242 0
0.264611 -0.0749029 0
0.316155 -0.0398435 0
0.133034 -0.206909 0
0.142878 -0.1575 0
0.471674 0.0319182 0
0.748214 -0.249549 0
0.440762 0.253614 0
0.679366 0.00860166 0
0.334337 0.409914 0
0.504359 0.235864 0
0.182823 0.483767 0
0.268762 0.397641 0
0.0139424 0.466323 0
0.0074729 0.477194 0
-0.151541 0.363449 0
-0.24463 0.465323 0
-0.287701 0.195739 0
-0.447132 0.367211 0
-0.396271 -0.00394058 0
-0.589375 0.202697 0
0.356033 0.0406002 0
0.36744 0.0161956 0
0.17648 0.0400662 0
0.175845 0.0420659 0
0.764436 0.0511904 0
0.790695 0.0302381 0
0.69309 0.0254114 0
0.686669 0.0417219 0
0.51501 -0.0109628 0
0.497581 0.0163761 0
0.275535 -0.0411559 0
0.259073 -0.0177716 0
0.00985669 -0.0605115 0
-0.00359553 -0.0444052 0
-0.246503 -0.0637451 0
-0.252885 -0.0596067 0
-0.452427 -0.0468482 0
-0.447207 -0.0589964 0
-0.596516 -0.00395138 0
-0.571909 -0.0394531 0
0.309919 0.153491 0
0.281049 0.0689264 0
0.153852 0.289492 0
0.143499 0.241849 0
0.790427 0.0408135 0
0.534933 0.314896 0
0.690196 -0.236659 0
0.434051 0.0458661 0
0.501845 -0.455819 0
0.305476 -0.236665 0
0.261907 -0.577399 0
0.154341 -0.457063 0
-0.00355665 -0.584425 0
-0.0111671 -0.577316 0
-0.256088 -0.476613 0
-0.165472 -0.581631 0
-0.45321 -0.274875 0
-0.283122 -0.470895 0
-0.579416 -0.00413244 0
-0.350521 -0.266979 0
0.143241 0.219741 0
0.0884111 0.0982345 0
0.0732977 0.442461 0
0.0547826 0.364804 0
0.520565 -0.0517405 0
0.0113331 0.492414 0
0.428688 -0.497914 0
0.00518216 -0.0369165 0
0.304127 -0.823543 0
0.00211512 -0.491757 0
0.153656 -0.988124 0
0.00112288 -0.820863 0
-0.0132825 -0.965904 0
0.00144949 -0.985542 0
-0.169937 -0.764576 0
0.00240858 -0.961568 0
-0.289786 -0.42448 0
0.00342338 -0.757952 0
-0.358404 -0.00437243 0
0.00408869 -0.416058 0
