# vtk DataFile Version 3.0
tp3485 cell-vector
ASCII
DATASET UNSTRUCTURED_GRID
POINTS 66 double
0 0 0
0.1 0 0
0.2 0 0
0.3 0 0
0.4 0 0
0.5 0 0
0.6 0 0
0.7 0 0
0.8 0 0
0.9 0 0
1 0 0
0 0.09 0
0.1 0.09 0
0.2 0.09 0
0.3 0.09 0
0.4 0.09 0
0.5 0.09 0
0.6 0.09 0
0.7 0.09 0
0.8 0.09 0
0.9 0.09 0
1 0.09 0
0 0.18 0
0.1 0.18 0
0.2 0.18 0
0.3 0.18 0
0.4 0.18 0
0.5 0.18 0
0.6 0.18 0
0.7 0.18 0
0.8 0.18 0
0.9 0.18 0
1 0.18 0
0 0.27 0
0.1 0.27 0
0.2 0.27 0
0.3 0.27 0
0.4 0.27 0
0.5 0.27 0
0.6 0.27 0
0.7 0.27 0
0.8 0.27 0
0.9 0.27 0
1 0.27 0
0 0.36 0
0.1 0.36 0
0.2 0.36 0
0.3 0.36 0
0.4 0.36 0
0.5 0.36 0
0.6 0.36 0
0.7 0.36 0
0.8 0.36 0
0.9 0.36 0
1 0.36 0
0 0.45 0
0.1 0.45 0
0.2 0.45 0
0.3 0.45 0
0.4 0.45 0
0.5 0.45 0
0.6 0.45 0
0.7 0.45 0
0.8 0.45 0
0.9 0.45 0
1 0.45 0
CELLS 100 400
3 0 1 12
3 0 12 11
3 1 2 13
3 1 13 12
3 2 3 14
3 2 14 13
3 3 4 15
3 3 15 14
3 4 5 16
3 4 16 15
3 5 6 17
3 5 17 16
3 6 7 18
3 6 18 17
3 7 8 19
3 7 19 18
3 8 9 20
3 8 20 19
3 9 10 21
3 9 21 20
3 11 12 23
3 11 23 22
3 12 13 24
3 12 24 23
3 13 14 25
3 13 25 24
3 14 15 26
3 14 26 25
3 15 16 27
3 15 27 26
3 16 17 28
3 16 28 27
3 17 18 29
3 17 29 28
3 18 19 30
3 18 30 29
3 19 20 31
3 19 31 30
3 20 21 32
3 20 32 31
3 22 23 34
3 22 34 33
3 23 24 35
3 23 35 34
3 24 25 36
3 24 36 35
3 25 26 37
3 25 37 36
3 26 27 38
3 26 38 37
3 27 28 39
3 27 39 38
3 28 29 40
3 28 40 39
3 29 30 41
3 29 41 40
3 30 31 42
3 30 42 41
3 31 32 43
3 31 43 42
3 33 34 45
3 33 45 44
3 34 35 46
3 34 46 45
3 35 36 47
3 35 47 46
3 36 37 48
3 36 48 47
3 37 38 49
3 37 49 48
3 38 39 50
3 38 50 49
3 39 40 51
3 39 51 50
3 40 41 52
3 40 52 51
3 41 42 53
3 41 53 52
3 42 43 54
3 42 54 53
3 44 45 56
3 44 56 55
3 45 46 57
3 45 57 56
3 46 47 58
3 46 58 57
3 47 48 59
3 47 59 58
3 48 49 60
3 48 60 59
3 49 50 61
3 49 61 60
3 50 51 62
3 50 62 61
3 51 52 63
3 51 63 62
3 52 53 64
3 52 64 63
3 53 54 65
3 53 65 64
CELL_TYPES 100
5
5
5
5
5
5
5
5
5
5
5
5
5
5
5
5
5
5
5
5
5
5
5
5
5
5
5
5
5
5
5
5
5
5
5
5
5
5
5
5
5
5
5
5
5
5
5
5
5
5
5
5
5
5
5
5
5
5
5
5
5
5
5
5
5
5
5
5
5
5
5
5
5
5
5
5
5
5
5
5
5
5
5
5
5
5
5
5
5
5
5
5
5
5
5
5
5
5
5
5
CELL_DATA 100
VECTORS Et double
-0.106631 0.570901 0
0.066645 0.129947 0
-0.0382755 0.932012 0
0.0135957 0.760615 0
0.047374 0.748873 0
-0.0655167 0.950743 0
0.100785 0.136147 0
-0.122651 0.596314 0
0.0918524 -0.54018 0
-0.119751 -0.0894216 0
0.0274353 -0.87589 0
-0.0505063 -0.700521 0
-0.0149561 -0.86726 0
-0.0101254 -0.897809 0
-0.0349134 -0.701188 0
0.00719016 -0.818702 0
-0.0496411 -0.415078 0
0.032282 -0.611828 0
-0.0568326 -0.0631473 0
0.0426831 -0.298394 0
-0.154073 0.57316 0
0.0322832 0.125401 0
-0.086408 0.935069 0
-0.0211741 0.755581 0
0.00535554 0.750614 0
-0.0977483 0.947536 0
0.0700211 0.131363 0
-0.149446 0.592519 0
0.0760085 -0.557141 0
-0.138057 -0.09908 0
0.0301211 -0.91177 0
-0.0595638 -0.720941 0
-0.0326525 -0.92564 0
-0.0468502 -0.934702 0
-0.0563064 -0.748549 0
-0.00354894 -0.877477 0
-0.0627079 -0.444639 0
0.0359947 -0.659611 0
-0.0693692 -0.0629757 0
0.0576127 -0.328352 0
-0.178611 0.573151 0
0.0259908 0.118446 0
-0.112204 0.931491 0
-0.0273506 0.742634 0
-0.018923 0.744803 0
-0.103363 0.932152 0
0.0501262 0.121713 0
-0.15481 0.576327 0
0.0630779 -0.574018 0
-0.14328 -0.117211 0
0.0238137 -0.935578 0
-0.063694 -0.743399 0
-0.0687953 -0.926181 0
-0.0592251 -0.960586 0
-0.06654 -0.738256 0
-0.00263641 -0.878861 0
-0.0585634 -0.435002 0
0.0405524 -0.649916 0
-0.054074 -0.0627866 0
0.0651855 -0.319174 0
-0.17244 0.577289 0
0.0537184 0.111984 0
-0.106715 0.933443 0
-0.000925214 0.733798 0
-0.0140509 0.743233 0
-0.080864 0.922208 0
0.0537678 0.113575 0
-0.138885 0.564218 0
0.0647043 -0.592063 0
-0.135999 -0.134081 0
0.0232013 -0.965963 0
-0.0665021 -0.767379 0
-0.0801271 -0.945705 0
-0.0576886 -0.993217 0
-0.0649393 -0.746848 0
0.0104598 -0.899391 0
-0.0535034 -0.436543 0
0.0531384 -0.659212 0
-0.0460847 -0.0625439 0
0.0757163 -0.321253 0
-0.134947 0.573938 0
0.0979056 0.108784 0
-0.0712443 0.929393 0
0.046498 0.723247 0
0.0166414 0.740977 0
-0.0372307 0.911681 0
0.0770158 0.112427 0
-0.104023 0.555916 0
0.0779974 -0.594354 0
-0.11394 -0.140925 0
0.0240834 -0.970244 0
-0.0598378 -0.774406 0
-0.0774223 -0.886416 0
0.00572886 -0.999984 0
-0.0511141 -0.685813 0
0.0274291 -0.841127 0
-0.0404487 -0.400426 0
0.0445831 -0.598709 0
-0.0352097 -0.0624208 0
0.0546585 -0.285427 0
