# vtk DataFile Version 3.0
tp3485 cell-vector
ASCII
DATASET UNSTRUCTURED_GRID
POINTS 66 double
0 0 0
0.1 0 0
0.2 0 0
0.3 0 0
0.4 0 0
0.5 0 0
0.6 0 0
0.7 0 0
0.8 0 0
0.9 0 0
1 0 0
0 0.09 0
0.1 0.09 0
0.2 0.09 0
0.3 0.09 0
0.4 0.09 0
0.5 0.09 0
0.6 0.09 0
0.7 0.09 0
0.8 0.09 0
0.9 0.09 0
1 0.09 0
0 0.18 0
0.1 0.18 0
0.2 0.18 0
0.3 0.18 0
0.4 0.18 0
0.5 0.18 0
0.6 0.18 0
0.7 0.18 0
0.8 0.18 0
0.9 0.18 0
1 0.18 0
0 0.27 0
0.1 0.27 0
0.2 0.27 0
0.3 0.27 0
0.4 0.27 0
0.5 0.27 0
0.6 0.27 0
0.7 0.27 0
0.8 0.27 0
0.9 0.27 0
1 0.27 0
0 0.36 0
0.1 0.36 0
0.2 0.36 0
0.3 0.36 0
0.4 0.36 0
0.5 0.36 0
0.6 0.36 0
0.7 0.36 0
0.8 0.36 0
0.9 0.36 0
1 0.36 0
0 0.45 0
0.1 0.45 0
0.2 0.45 0
0.3 0.45 0
0.4 0.45 0
0.5 0.45 0
0.6 0.45 0
0.7 0.45 0
0.8 0.45 0
0.9 0.45 0
1 0.45 0
CELLS 100 400
3 0 1 12
3 0 12 11
3 1 2 13
3 1 13 12
3 2 3 14
3 2 14 13
3 3 4 15
3 3 15 14
3 4 5 16
3 4 16 15
3 5 6 17
3 5 17 16
3 6 7 18
3 6 18 17
3 7 8 19
3 7 19 18
3 8 9 20
3 8 20 19
3 9 10 21
3 9 21 20
3 11 12 23
3 11 23 22
3 12 13 24
3 12 24 23
3 13 14 25
3 13 25 24
3 14 15 26
3 14 26 25
3 15 16 27
3 15 27 26
3 16 17 28
3 16 28 27
3 17 18 29
3 17 29 28
3 18 19 30
3 18 30 29
3 19 20 31
3 19 31 30
3 20 21 32
3 20 32 31
3 22 23 34
3 22 34 33
3 23 24 35
3 23 35 34
3 24 25 36
3 24 36 35
3 25 26 37
3 25 37 36
3 26 27 38
3 26 38 37
3 27 28 39
3 27 39 38
3 28 29 40
3 28 40 39
3 29 30 41
3 29 41 40
3 30 31 42
3 30 42 41
3 31 32 43
3 31 43 42
3 33 34 45
3 33 45 44
3 34 35 46
3 34 46 45
3 35 36 47
3 35 47 46
3 36 37 48
3 36 48 47
3 37 38 49
3 37 49 48
3 38 39 50
3 38 50 49
3 39 40 51
3 39 51 50
3 40 41 52
3 40 52 51
3 41 42 53
3 41 53 52
3 42 43 54
3 42 54 53
3 44 45 56
3 44 56 55
3 45 46 57
3 45 57 56
3 46 47 58
3 46 58 57
3 47 48 59
3 47 59 58
3 48 49 60
3 48 60 59
3 49 50 61
3 49 61 60
3 50 51 62
3 50 62 61
3 51 52 63
3 51 63 62
3 52 53 64
3 52 64 63
3 53 54 65
3 53 65 64
CELL_TYPES 100
5
5
5
5
5
5
5
5
5
5
5
5
5
5
5
5
5
5
5
5
5
5
5
5
5
5
5
5
5
5
5
5
5
5
5
5
5
5
5
5
5
5
5
5
5
5
5
5
5
5
5
5
5
5
5
5
5
5
5
5
5
5
5
5
5
5
5
5
5
5
5
5
5
5
5
5
5
5
5
5
5
5
5
5
5
5
5
5
5
5
5
5
5
5
5
5
5
5
5
5
CELL_DATA 100
VECTORS Et double
-0.120143 -0.0250226 0
-0.49177 0.127202 0
-0.11014 0.0792488 0
-0.461539 0.227892 0
-0.093894 0.125524 0
-0.44304 0.305382 0
-0.0756945 0.122743 0
-0.400157 0.314501 0
-0.0589492 0.0897732 0
-0.342632 0.273162 0
-0.0449467 0.0549482 0
-0.272089 0.20633 0
-0.0323428 0.0351291 0
-0.196364 0.143164 0
-0.0181339 -0.00297771 0
-0.147425 0.0957977 0
-0.00782778 0.00584794 0
-0.0461071 0.028427 0
-0.00386088 -0.00428987 0
-0.0334222 0.0194058 0
-0.691387 0.00202546 0
-0.909745 0.0750254 0
-0.645826 0.0776911 0
-0.864022 0.165705 0
-0.599826 0.104304 0
-0.818678 0.220027 0
-0.525416 0.0844861 0
-0.733206 0.217797 0
-0.439461 0.0388784 0
-0.623159 0.170363 0
-0.346812 -0.00103502 0
-0.491919 0.104189 0
-0.253288 -0.0139051 0
-0.352638 0.0512217 0
-0.184714 -0.0298553 0
-0.266351 0.0276102 0
-0.063082 -0.00636408 0
-0.0808691 -0.00368005 0
-0.0412647 -0.00385345 0
-0.0567677 0.00537982 0
-0.998594 0.0530081 0
-0.96996 -0.00125137 0
-0.941995 0.0982412 0
-0.929731 0.071883 0
-0.877412 0.094342 0
-0.882836 0.103949 0
-0.772033 0.0453164 0
-0.790717 0.084292 0
-0.64829 -0.0257606 0
-0.672696 0.0251009 0
-0.512331 -0.0818062 0
-0.529591 -0.0452302 0
-0.374798 -0.0946896 0
-0.377153 -0.0897852 0
-0.289885 -0.0635688 0
-0.281634 -0.0863503 0
-0.0944372 -0.02331 0
-0.0834956 -0.0475148 0
-0.063304 -0.00312376 0
-0.0585405 -0.0146246 0
-0.922149 0.0918346 0
-0.662715 -0.0722759 0
-0.875944 0.104141 0
-0.63562 -0.0339901 0
-0.819573 0.0732909 0
-0.607692 -0.0272437 0
-0.72164 -0.00081764 0
-0.54624 -0.0612117 0
-0.60794 -0.0912451 0
-0.465928 -0.128328 0
-0.481466 -0.162011 0
-0.367816 -0.196869 0
-0.354869 -0.173803 0
-0.257375 -0.231717 0
-0.286773 -0.0965285 0
-0.188108 -0.1999 0
-0.0923713 -0.0408999 0
-0.0532803 -0.0912874 0
-0.0633803 -0.0022933 0
-0.0376236 -0.0353447 0
-0.50466 0.124051 0
-0.100002 -0.111114 0
-0.475063 0.108372 0
-0.100722 -0.0912039 0
-0.445219 0.0585614 0
-0.100791 -0.108062 0
-0.389061 -0.0356648 0
-0.0971533 -0.15347 0
-0.327426 -0.143666 0
-0.0865203 -0.230387 0
-0.263086 -0.224149 0
-0.0676815 -0.303686 0
-0.197879 -0.240876 0
-0.0421152 -0.333322 0
-0.177639 -0.125488 0
-0.0133451 -0.289535 0
-0.0582747 -0.0560406 0
0.00190761 -0.127041 0
-0.0410953 -0.0017178 0
0.00147949 -0.0523848 0
