# vtk DataFile Version 3.0
tp3485 cell-vector
ASCII
DATASET UNSTRUCTURED_GRID
POINTS 66 double
0 0 0
0.1 0 0
0.2 0 0
0.3 0 0
0.4 0 0
0.5 0 0
0.6 0 0
0.7 0 0
0.8 0 0
0.9 0 0
1 0 0
0 0.09 0
0.1 0.09 0
0.2 0.09 0
0.3 0.09 0
0.4 0.09 0
0.5 0.09 0
0.6 0.09 0
0.7 0.09 0
0.8 0.09 0
0.9 0.09 0
1 0.09 0
0 0.18 0
0.1 0.18 0
0.2 0.18 0
0.3 0.18 0
0.4 0.18 0
0.5 0.18 0
0.6 0.18 0
0.7 0.18 0
0.8 0.18 0
0.9 0.18 0
1 0.18 0
0 0.27 0
0.1 0.27 0
0.2 0.27 0
0.3 0.27 0
0.4 0.27 0
0.5 0.27 0
0.6 0.27 0
0.7 0.27 0
0.8 0.27 0
0.9 0.27 0
1 0.27 0
0 0.36 0
0.1 0.36 0
0.2 0.36 0
0.3 0.36 0
0.4 0.36 0
0.5 0.36 0
0.6 0.36 0
0.7 0.36 0
0.8 0.36 0
0.9 0.36 0
1 0.36 0
0 0.45 0
0.1 0.45 0
0.2 0.45 0
0.3 0.45 0
0.4 0.45 0
0.5 0.45 0
0.6 0.45 0
0.7 0.45 0
0.8 0.45 0
0.9 0.45 0
1 0.45 0
CELLS 100 400
3 0 1 12
3 0 12 11
3 1 2 13
3 1 13 12
3 2 3 14
3 2 14 13
3 3 4 15
3 3 15 14
3 4 5 16
3 4 16 15
3 5 6 17
3 5 17 16
3 6 7 18
3 6 18 17
3 7 8 19
3 7 19 18
3 8 9 20
3 8 20 19
3 9 10 21
3 9 21 20
3 11 12 23
3 11 23 22
3 12 13 24
3 12 24 23
3 13 14 25
3 13 25 24
3 14 15 26
3 14 26 25
3 15 16 27
3 15 27 26
3 16 17 28
3 16 28 27
3 17 18 29
3 17 29 28
3 18 19 30
3 18 30 29
3 19 20 31
3 19 31 30
3 20 21 32
3 20 32 31
3 22 23 34
3 22 34 33
3 23 24 35
3 23 35 34
3 24 25 36
3 24 36 35
3 25 26 37
3 25 37 36
3 26 27 38
3 26 38 37
3 27 28 39
3 27 39 38
3 28 29 40
3 28 40 39
3 29 30 41
3 29 41 40
3 30 31 42
3 30 42 41
3 31 32 43
3 31 43 42
3 33 34 45
3 33 45 44
3 34 35 46
3 34 46 45
3 35 36 47
3 35 47 46
3 36 37 48
3 36 48 47
3 37 38 49
3 37 49 48
3 38 39 50
3 38 50 49
3 39 40 51
3 39 51 50
3 40 41 52
3 40 52 51
3 41 42 53
3 41 53 52
3 42 43 54
3 42 54 53
3 44 45 56
3 44 56 55
3 45 46 57
3 45 57 56
3 46 47 58
3 46 58 57
3 47 48 59
3 47 59 58
3 48 49 60
3 48 60 59
3 49 50 61
3 49 61 60
3 50 51 62
3 50 62 61
3 51 52 63
3 51 63 62
3 52 53 64
3 52 64 63
3 53 54 65
3 53 65 64
CELL_TYPES 100
5
5
5
5
5
5
5
5
5
5
5
5
5
5
5
5
5
5
5
5
5
5
5
5
5
5
5
5
5
5
5
5
5
5
5
5
5
5
5
5
5
5
5
5
5
5
5
5
5
5
5
5
5
5
5
5
5
5
5
5
5
5
5
5
5
5
5
5
5
5
5
5
5
5
5
5
5
5
5
5
5
5
5
5
5
5
5
5
5
5
5
5
5
5
5
5
5
5
5
5
CELL_DATA 100
VECTORS Et double
0.000685626 -0.0047951 0
-0.00120303 -0.000967391 0
-0.000336931 -0.00645024 0
-0.00140354 -0.00559819 0
-0.00135899 -0.0127186 0
-0.0100802 -0.00530713 0
-0.00169059 -0.04526 0
-0.0373365 -0.00937022 0
-0.00128296 -0.224024 0
-0.167374 -0.0421425 0
-5.53669e-05 -0.499735 0
-0.249907 -0.222391 0
0.000648536 -0.398263 0
0.0940379 -0.500491 0
0.000479118 0.119217 0
0.469937 -0.400427 0
0.000262405 0.455003 0
0.305456 0.117437 0
0.00121244 0.00134716 0
-0.403548 0.45357 0
0.00040091 -0.00347461 0
-0.000238277 -0.000974818 0
-0.00133753 0.00363788 0
0.00575503 -0.00425004 0
-0.00966952 0.0373577 0
0.0211299 0.00398349 0
-0.0379561 0.530723 0
0.410362 0.0349369 0
-0.167757 0.886091 0
0.154098 0.529431 0
-0.249754 0.964674 0
-0.179459 0.886111 0
0.0945947 0.661895 0
-0.179446 0.965241 0
0.471025 0.104569 0
-0.031833 0.66258 0
0.307254 -0.248974 0
-0.0104017 0.104766 0
-0.40065 0.00207915 0
-0.170812 -0.250472 0
0.00114182 -0.00852929 0
-0.00421427 -0.00100973 0
0.00452783 -0.012464 0
-0.000921069 -0.00841092 0
0.0178693 -0.0187591 0
0.002794 -0.00819689 0
0.409256 -0.631739 0
-0.151466 -0.0133269 0
0.152512 -0.84842 0
-0.0497618 -0.627445 0
-0.181504 -0.654994 0
-0.0120904 -0.845593 0
-0.180664 -0.603194 0
-0.134667 -0.654134 0
-0.0313029 -0.786287 0
-0.192361 -0.604521 0
-0.00845372 -0.673138 0
0.100228 -0.789566 0
-0.168252 0.00209825 0
0.447219 -0.677463 0
-0.00236198 -0.00950422 0
-0.00682942 -0.00174601 0
-0.0026539 -0.0142047 0
-0.00722533 -0.0104631 0
-0.0031252 -0.0170225 0
-0.0143188 -0.0105877 0
-0.154678 -0.239015 0
-0.363511 -0.010874 0
-0.0513543 0.053166 0
0.208885 -0.236761 0
-0.0122623 0.622189 0
0.501352 0.0526517 0
-0.133145 0.968597 0
0.181264 0.620912 0
-0.189858 0.896963 0
-0.252563 0.967581 0
0.102355 0.522578 0
-0.234634 0.896545 0
0.44811 -0.00120685 0
-0.0259559 0.523372 0
-0.00338119 -0.00612449 0
-0.00233881 -0.00259867 0
-0.0070972 -0.00353843 0
-0.000894765 -0.00920403 0
-0.0169237 0.0166768 0
0.000335159 -0.00339784 0
-0.366494 0.428698 0
0.00104411 0.0183626 0
0.207096 0.201316 0
0.000242536 0.429767 0
0.500648 -0.352062 0
0.000175237 0.202627 0
0.181228 -0.55054 0
0.000331334 -0.350496 0
-0.252296 -0.270532 0
-0.000154059 -0.550126 0
-0.233947 -0.0168582 0
-0.0013454 -0.272421 0
-0.0251937 0.00180135 0
-0.00184294 -0.0202949 0
