# vtk DataFile Version 3.0
tp3485 cell-vector
ASCII
DATASET UNSTRUCTURED_GRID
POINTS 66 double
0 0 0
0.1 0 0
0.2 0 0
0.3 0 0
0.4 0 0
0.5 0 0
0.6 0 0
0.7 0 0
0.8 0 0
0.9 0 0
1 0 0
0 0.09 0
0.1 0.09 0
0.2 0.09 0
0.3 0.09 0
0.4 0.09 0
0.5 0.09 0
0.6 0.09 0
0.7 0.09 0
0.8 0.09 0
0.9 0.09 0
1 0.09 0
0 0.18 0
0.1 0.18 0
0.2 0.18 0
0.3 0.18 0
0.4 0.18 0
0.5 0.18 0
0.6 0.18 0
0.7 0.18 0
0.8 0.18 0
0.9 0.18 0
1 0.18 0
0 0.27 0
0.1 0.27 0
0.2 0.27 0
0.3 0.27 0
0.4 0.27 0
0.5 0.27 0
0.6 0.27 0
0.7 0.27 0
0.8 0.27 0
0.9 0.27 0
1 0.27 0
0 0.36 0
0.1 0.36 0
0.2 0.36 0
0.3 0.36 0
0.4 0.36 0
0.5 0.36 0
0.6 0.36 0
0.7 0.36 0
0.8 0.36 0
0.9 0.36 0
1 0.36 0
0 0.45 0
0.1 0.45 0
0.2 0.45 0
0.3 0.45 0
0.4 0.45 0
0.5 0.45 0
0.6 0.45 0
0.7 0.45 0
0.8 0.45 0
0.9 0.45 0
1 0.45 0
CELLS 100 400
3 0 1 12
3 0 12 11
3 1 2 13
3 1 13 12
3 2 3 14
3 2 14 13
3 3 4 15
3 3 15 14
3 4 5 16
3 4 16 15
3 5 6 17
3 5 17 16
3 6 7 18
3 6 18 17
3 7 8 19
3 7 19 18
3 8 9 20
3 8 20 19
3 9 10 21
3 9 21 20
3 11 12 23
3 11 23 22
3 12 13 24
3 12 24 23
3 13 14 25
3 13 25 24
3 14 15 26
3 14 26 25
3 15 16 27
3 15 27 26
3 16 17 28
3 16 28 27
3 17 18 29
3 17 29 28
3 18 19 30
3 18 30 29
3 19 20 31
3 19 31 30
3 20 21 32
3 20 32 31
3 22 23 34
3 22 34 33
3 23 24 35
3 23 35 34
3 24 25 36
3 24 36 35
3 25 26 37
3 25 37 36
3 26 27 38
3 26 38 37
3 27 28 39
3 27 39 38
3 28 29 40
3 28 40 39
3 29 30 41
3 29 41 40
3 30 31 42
3 30 42 41
3 31 32 43
3 31 43 42
3 33 34 45
3 33 45 44
3 34 35 46
3 34 46 45
3 35 36 47
3 35 47 46
3 36 37 48
3 36 48 47
3 37 38 49
3 37 49 48
3 38 39 50
3 38 50 49
3 39 40 51
3 39 51 50
3 40 41 52
3 40 52 51
3 41 42 53
3 41 53 52
3 42 43 54
3 42 54 53
3 44 45 56
3 44 56 55
3 45 46 57
3 45 57 56
3 46 47 58
3 46 58 57
3 47 48 59
3 47 59 58
3 48 49 60
3 48 60 59
3 49 50 61
3 49 61 60
3 50 51 62
3 50 62 61
3 51 52 63
3 51 63 62
3 52 53 64
3 52 64 63
3 53 54 65
3 53 65 64
CELL_TYPES 100
5
5
5
5
5
5
5
5
5
5
5
5
5
5
5
5
5
5
5
5
5
5
5
5
5
5
5
5
5
5
5
5
5
5
5
5
5
5
5
5
5
5
5
5
5
5
5
5
5
5
5
5
5
5
5
5
5
5
5
5
5
5
5
5
5
5
5
5
5
5
5
5
5
5
5
5
5
5
5
5
5
5
5
5
5
5
5
5
5
5
5
5
5
5
5
5
5
5
5
5
CELL_DATA 100
VECTORS Et double
0.0425477 -0.285934 0
-0.0320329 -0.0778957 0
-0.0735813 0.00865637 0
0.0545341 -0.27433 0
-0.054688 0.425438 0
0.0774466 0.154136 0
-0.0415487 0.732985 0
0.0466734 0.537499 0
-0.0239705 0.932382 0
0.0296759 0.812645 0
-0.00349806 0.999994 0
0.00900644 0.970614 0
0.0173051 0.926821 0
-0.0136443 0.992159 0
0.035621 0.723687 0
-0.034301 0.874275 0
0.0489158 0.42227 0
-0.047446 0.633899 0
0.0553567 0.0615075 0
-0.056956 0.307863 0
0.0736023 -0.263689 0
-0.0151756 -0.0627851 0
-0.0693061 0.0469748 0
0.0632794 -0.241115 0
-0.0323325 0.413396 0
0.0674635 0.184976 0
-0.0404063 0.708496 0
0.0418863 0.521625 0
-0.02428 0.901764 0
0.025341 0.787064 0
-0.00491563 0.968729 0
0.00736392 0.939717 0
0.0141828 0.899925 0
-0.0128276 0.960867 0
0.0312724 0.705072 0
-0.0312859 0.847425 0
0.0466366 0.410867 0
-0.0433181 0.615337 0
0.0524427 0.0614982 0
-0.0496648 0.296495 0
0.064197 -0.244084 0
-0.0431304 -0.0497124 0
-0.0630823 0.088891 0
0.0679951 -0.202296 0
-0.0357177 0.429964 0
0.0499849 0.223308 0
-0.0431845 0.722488 0
0.0420649 0.534274 0
-0.0280032 0.919638 0
0.0267936 0.799814 0
-0.00639279 0.988204 0
0.00784597 0.957198 0
0.0150076 0.918352 0
-0.012873 0.980259 0
0.0342415 0.719874 0
-0.0316865 0.865895 0
0.0507107 0.419955 0
-0.0445514 0.630226 0
0.0596796 0.0614483 0
-0.0508304 0.305679 0
0.0241881 -0.250798 0
-0.0760869 -0.057148 0
-0.063713 0.0810359 0
0.0684512 -0.210423 0
-0.0502598 0.418143 0
0.0284701 0.217766 0
-0.0419552 0.705859 0
0.0385228 0.522744 0
-0.0261823 0.89977 0
0.0258702 0.78306 0
-0.00580401 0.968174 0
0.00840868 0.937234 0
0.0149462 0.900846 0
-0.0106667 0.960213 0
0.0337754 0.707252 0
-0.0278331 0.848424 0
0.0494042 0.413315 0
-0.0405649 0.617656 0
0.0584482 0.0614273 0
-0.0461794 0.299085 0
0.0102678 -0.273406 0
-0.0669586 -0.0743984 0
-0.0628278 0.0136379 0
0.0526898 -0.253663 0
-0.075685 0.423458 0
0.0561528 0.156434 0
-0.0462701 0.728638 0
0.0452079 0.531834 0
-0.0271993 0.928915 0
0.0296846 0.806551 0
-0.00525183 0.999074 0
0.0103046 0.96654 0
0.0171165 0.929706 0
-0.0105028 0.991203 0
0.0375704 0.729853 0
-0.0298628 0.877385 0
0.0533266 0.426788 0
-0.0450554 0.640365 0
0.0630397 0.0613771 0
-0.0539365 0.312657 0
