# vtk DataFile Version 3.0
tp3485 cell-vector
ASCII
DATASET UNSTRUCTURED_GRID
POINTS 66 double
0 0 0
0.1 0 0
0.2 0 0
0.3 0 0
0.4 0 0
0.5 0 0
0.6 0 0
0.7 0 0
0.8 0 0
0.9 0 0
1 0 0
0 0.09 0
0.1 0.09 0
0.2 0.09 0
0.3 0.09 0
0.4 0.09 0
0.5 0.09 0
0.6 0.09 0
0.7 0.09 0
0.8 0.09 0
0.9 0.09 0
1 0.09 0
0 0.18 0
0.1 0.18 0
0.2 0.18 0
0.3 0.18 0
0.4 0.18 0
0.5 0.18 0
0.6 0.18 0
0.7 0.18 0
0.8 0.18 0
0.9 0.18 0
1 0.18 0
0 0.27 0
0.1 0.27 0
0.2 0.27 0
0.3 0.27 0
0.4 0.27 0
0.5 0.27 0
0.6 0.27 0
0.7 0.27 0
0.8 0.27 0
0.9 0.27 0
1 0.27 0
0 0.36 0
0.1 0.36 0
0.2 0.36 0
0.3 0.36 0
0.4 0.36 0
0.5 0.36 0
0.6 0.36 0
0.7 0.36 0
0.8 0.36 0
0.9 0.36 0
1 0.36 0
0 0.45 0
0.1 0.45 0
0.2 0.45 0
0.3 0.45 0
0.4 0.45 0
0.5 0.45 0
0.6 0.45 0
0.7 0.45 0
0.8 0.45 0
0.9 0.45 0
1 0.45 0
CELLS 100 400
3 0 1 12
3 0 12 11
3 1 2 13
3 1 13 12
3 2 3 14
3 2 14 13
3 3 4 15
3 3 15 14
3 4 5 16
3 4 16 15
3 5 6 17
3 5 17 16
3 6 7 18
3 6 18 17
3 7 8 19
3 7 19 18
3 8 9 20
3 8 20 19
3 9 10 21
3 9 21 20
3 11 12 23
3 11 23 22
3 12 13 24
3 12 24 23
3 13 14 25
3 13 25 24
3 14 15 26
3 14 26 25
3 15 16 27
3 15 27 26
3 16 17 28
3 16 28 27
3 17 18 29
3 17 29 28
3 18 19 30
3 18 30 29
3 19 20 31
3 19 31 30
3 20 21 32
3 20 32 31
3 22 23 34
3 22 34 33
3 23 24 35
3 23 35 34
3 24 25 36
3 24 36 35
3 25 26 37
3 25 37 36
3 26 27 38
3 26 38 37
3 27 28 39
3 27 39 38
3 28 29 40
3 28 40 39
3 29 30 41
3 29 41 40
3 30 31 42
3 30 42 41
3 31 32 43
3 31 43 42
3 33 34 45
3 33 45 44
3 34 35 46
3 34 46 45
3 35 36 47
3 35 47 46
3 36 37 48
3 36 48 47
3 37 38 49
3 37 49 48
3 38 39 50
3 38 50 49
3 39 40 51
3 39 51 50
3 40 41 52
3 40 52 51
3 41 42 53
3 41 53 52
3 42 43 54
3 42 54 53
3 44 45 56
3 44 56 55
3 45 46 57
3 45 57 56
3 46 47 58
3 46 58 57
3 47 48 59
3 47 59 58
3 48 49 60
3 48 60 59
3 49 50 61
3 49 61 60
3 50 51 62
3 50 62 61
3 51 52 63
3 51 63 62
3 52 53 64
3 52 64 63
3 53 54 65
3 53 65 64
CELL_TYPES 100
5
5
5
5
5
5
5
5
5
5
5
5
5
5
5
5
5
5
5
5
5
5
5
5
5
5
5
5
5
5
5
5
5
5
5
5
5
5
5
5
5
5
5
5
5
5
5
5
5
5
5
5
5
5
5
5
5
5
5
5
5
5
5
5
5
5
5
5
5
5
5
5
5
5
5
5
5
5
5
5
5
5
5
5
5
5
5
5
5
5
5
5
5
5
5
5
5
5
5
5
CELL_DATA 100
VECTORS Et double
-0.140451 0.455523 0
-0.160727 0.160998 0
-0.0879063 0.824385 0
-0.194366 0.72829 0
-0.0167204 0.762595 0
-0.250076 0.962679 0
0.0388939 0.320904 0
-0.282093 0.750972 0
0.0538878 -0.263776 0
-0.2667 0.214998 0
0.0248805 -0.685347 0
-0.195891 -0.368026 0
-0.028256 -0.731352 0
-0.0917031 -0.702621 0
-0.073043 -0.403468 0
-0.00136828 -0.632111 0
-0.0321671 -0.11367 0
0.0241294 -0.267136 0
-0.0120846 -0.0134273 0
0.002602 -0.0605511 0
-0.427841 0.447922 0
-0.38749 0.133646 0
-0.37016 0.799948 0
-0.409147 0.674185 0
-0.287716 0.736274 0
-0.446266 0.8949 0
-0.202274 0.30152 0
-0.448737 0.685665 0
-0.145036 -0.275136 0
-0.400611 0.162181 0
-0.122728 -0.693473 0
-0.295985 -0.405837 0
-0.124586 -0.739144 0
-0.159195 -0.728623 0
-0.134397 -0.411624 0
-0.052076 -0.648017 0
-0.0570142 -0.115342 0
0.00748776 -0.276829 0
-0.0249366 -0.0132204 0
-0.00737281 -0.0631556 0
-0.596208 0.484015 0
-0.416841 0.0932284 0
-0.52925 0.825217 0
-0.442017 0.633794 0
-0.432842 0.744301 0
-0.480767 0.848501 0
-0.324091 0.284081 0
-0.481445 0.629326 0
-0.242022 -0.320707 0
-0.429056 0.0899317 0
-0.195571 -0.759678 0
-0.315798 -0.494398 0
-0.176246 -0.807507 0
-0.167563 -0.823686 0
-0.181979 -0.443451 0
-0.051587 -0.729017 0
-0.0735535 -0.126412 0
0.00833009 -0.308342 0
-0.0348822 -0.0133665 0
-0.00823296 -0.0737701 0
-0.553324 0.490249 0
-0.265102 0.0557924 0
-0.492792 0.810324 0
-0.289036 0.563848 0
-0.403494 0.719842 0
-0.333441 0.761697 0
-0.300614 0.256734 0
-0.347388 0.539793 0
-0.224165 -0.349099 0
-0.316793 0.00677245 0
-0.181228 -0.79471 0
-0.234558 -0.566778 0
-0.164875 -0.84732 0
-0.114772 -0.888274 0
-0.177704 -0.468232 0
-0.0192205 -0.781402 0
-0.073878 -0.136597 0
0.0198865 -0.332901 0
-0.0360714 -0.0135047 0
-0.00120588 -0.0833688 0
-0.343493 0.519117 0
0.031845 0.0353833 0
-0.283853 0.831359 0
-0.00405578 0.54592 0
-0.204451 0.732546 0
-0.0645744 0.73867 0
-0.120769 0.248378 0
-0.117195 0.512537 0
-0.0738203 -0.384801 0
-0.132024 -0.0362284 0
-0.0715868 -0.851145 0
-0.0975258 -0.630371 0
-0.0954736 -0.915737 0
-0.0264046 -0.964075 0
-0.143154 -0.506628 0
0.0509011 -0.858247 0
-0.063367 -0.1487 0
0.0516249 -0.369822 0
-0.0292712 -0.0135637 0
0.0159171 -0.0950223 0
