# vtk DataFile Version 3.0
tp3485 cell-vector
ASCII
DATASET UNSTRUCTURED_GRID
POINTS 66 double
0 0 0
0.1 0 0
0.2 0 0
0.3 0 0
0.4 0 0
0.5 0 0
0.6 0 0
0.7 0 0
0.8 0 0
0.9 0 0
1 0 0
0 0.09 0
0.1 0.09 0
0.2 0.09 0
0.3 0.09 0
0.4 0.09 0
0.5 0.09 0
0.6 0.09 0
0.7 0.09 0
0.8 0.09 0
0.9 0.09 0
1 0.09 0
0 0.18 0
0.1 0.18 0
0.2 0.18 0
0.3 0.18 0
0.4 0.18 0
0.5 0.18 0
0.6 0.18 0
0.7 0.18 0
0.8 0.18 0
0.9 0.18 0
1 0.18 0
0 0.27 0
0.1 0.27 0
0.2 0.27 0
0.3 0.27 0
0.4 0.27 0
0.5 0.27 0
0.6 0.27 0
0.7 0.27 0
0.8 0.27 0
0.9 0.27 0
1 0.27 0
0 0.36 0
0.1 0.36 0
0.2 0.36 0
0.3 0.36 0
0.4 0.36 0
0.5 0.36 0
0.6 0.36 0
0.7 0.36 0
0.8 0.36 0
0.9 0.36 0
1 0.36 0
0 0.45 0
0.1 0.45 0
0.2 0.45 0
0.3 0.45 0
0.4 0.45 0
0.5 0.45 0
0.6 0.45 0
0.7 0.45 0
0.8 0.45 0
0.9 0.45 0
1 0.45 0
CELLS 100 400
3 0 1 12
3 0 12 11
3 1 2 13
3 1 13 12
3 2 3 14
3 2 14 13
3 3 4 15
3 3 15 14
3 4 5 16
3 4 16 15
3 5 6 17
3 5 17 16
3 6 7 18
3 6 18 17
3 7 8 19
3 7 19 18
3 8 9 20
3 8 20 19
3 9 10 21
3 9 21 20
3 11 12 23
3 11 23 22
3 12 13 24
3 12 24 23
3 13 14 25
3 13 25 24
3 14 15 26
3 14 26 25
3 15 16 27
3 15 27 26
3 16 17 28
3 16 28 27
3 17 18 29
3 17 29 28
3 18 19 30
3 18 30 29
3 19 20 31
3 19 31 30
3 20 21 32
3 20 32 31
3 22 23 34
3 22 34 33
3 23 24 35
3 23 35 34
3 24 25 36
3 24 36 35
3 25 26 37
3 25 37 36
3 26 27 38
3 26 38 37
3 27 28 39
3 27 39 38
3 28 29 40
3 28 40 39
3 29 30 41
3 29 41 40
3 30 31 42
3 30 42 41
3 31 32 43
3 31 43 42
3 33 34 45
3 33 45 44
3 34 35 46
3 34 46 45
3 35 36 47
3 35 47 46
3 36 37 48
3 36 48 47
3 37 38 49
3 37 49 48
3 38 39 50
3 38 50 49
3 39 40 51
3 39 51 50
3 40 41 52
3 40 52 51
3 41 42 53
3 41 53 52
3 42 43 54
3 42 54 53
3 44 45 56
3 44 56 55
3 45 46 57
3 45 57 56
3 46 47 58
3 46 58 57
3 47 48 59
3 47 59 58
3 48 49 60
3 48 60 59
3 49 50 61
3 49 61 60
3 50 51 62
3 50 62 61
3 51 52 63
3 51 63 62
3 52 53 64
3 52 64 63
3 53 54 65
3 53 65 64
CELL_TYPES 100
5
5
5
5
5
5
5
5
5
5
5
5
5
5
5
5
5
5
5
5
5
5
5
5
5
5
5
5
5
5
5
5
5
5
5
5
5
5
5
5
5
5
5
5
5
5
5
5
5
5
5
5
5
5
5
5
5
5
5
5
5
5
5
5
5
5
5
5
5
5
5
5
5
5
5
5
5
5
5
5
5
5
5
5
5
5
5
5
5
5
5
5
5
5
5
5
5
5
5
5
CELL_DATA 100
VECTORS Et double
0.000279163 -0.0108783 0
-0.00842118 -0.000450542 0
-0.000240502 -0.020904 0
-0.0091795 -0.0112138 0
4.40357e-05 -0.362256 0
-0.307382 -0.0206301 0
4.42035e-06 -0.681711 0
-0.287468 -0.362299 0
-9.43992e-05 -0.908444 0
-0.204432 -0.681612 0
-0.000221143 -0.999259 0
-0.0826787 -0.908112 0
-0.000352371 -0.94003 0
0.051745 -0.99866 0
-0.000480104 -0.737192 0
0.18039 -0.939165 0
-0.000586455 -0.416915 0
0.285575 -0.736091 0
-0.00060917 -0.000676856 0
0.371659 -0.415624 0
-0.00749358 -0.00952004 0
-0.0140868 -0.000807033 0
-0.00914762 -0.0179164 0
-0.0154643 -0.0104939 0
-0.307277 -0.22913 0
-0.496994 -0.018069 0
-0.287425 -0.417092 0
-0.456356 -0.229295 0
-0.204615 -0.540556 0
-0.315951 -0.417046 0
-0.0831377 -0.581953 0
-0.12121 -0.540195 0
0.0510074 -0.535254 0
0.0915997 -0.581247 0
0.179395 -0.40798 0
0.291932 -0.53422 0
0.284395 -0.219613 0
0.451487 -0.406681 0
0.370377 -0.000785114 0
0.564628 -0.218137 0
-0.0123829 -0.0073188 0
-0.0155627 -0.00134977 0
-0.0146183 -0.0147288 0
-0.0180667 -0.00937799 0
-0.496527 -0.0340271 0
-0.512315 -0.0156924 0
-0.456133 -0.0370099 0
-0.457903 -0.034621 0
-0.316052 -0.0287534 0
-0.308409 -0.0372366 0
-0.121674 -0.017271 0
-0.111918 -0.0285525 0
0.090778 -0.00408016 0
0.101269 -0.016622 0
0.290797 0.00718233 0
0.298826 -0.00301241 0
0.450133 0.0112181 0
0.451097 0.00859278 0
0.563143 -0.000918232 0
0.549178 0.0128684 0
-0.0128456 -0.00407273 0
-0.0115962 -0.00189583 0
-0.0160966 -0.00875188 0
-0.01485 -0.00733145 0
-0.511324 0.175237 0
-0.342668 -0.0107216 0
-0.457379 0.361029 0
-0.288417 0.174105 0
-0.308328 0.493316 0
-0.188581 0.360498 0
-0.112295 0.54769 0
-0.0637104 0.493362 0
0.100453 0.516801 0
0.0713042 0.5483 0
0.297633 0.404307 0
0.194163 0.51792 0
0.449636 0.226544 0
0.286742 0.405842 0
0.547543 -0.00100362 0
0.339413 0.22835 0
-0.00798505 8.08405e-05 0
-0.00200247 -0.00222496 0
-0.0117795 0.00324943 0
-0.00179429 -0.00402936 0
-0.341112 0.376321 0
-0.00094309 0.000379315 0
-0.287509 0.692272 0
-0.000590139 0.374689 0
-0.188242 0.899724 0
-0.000280819 0.691399 0
-0.0639271 0.970708 0
1.09661e-05 0.899526 0
0.0705649 0.893824 0
0.000284949 0.971153 0
0.192976 0.682327 0
0.000529824 0.894856 0
0.285216 0.36945 0
0.00072339 0.683843 0
0.33768 -0.00102597 0
0.000837505 0.371287 0
