# vtk DataFile Version 3.0
tp3485 cell-vector
ASCII
DATASET UNSTRUCTURED_GRID
POINTS 66 double
0 0 0
0.1 0 0
0.2 0 0
0.3 0 0
0.4 0 0
0.5 0 0
0.6 0 0
0.7 0 0
0.8 0 0
0.9 0 0
1 0 0
0 0.09 0
0.1 0.09 0
0.2 0.09 0
0.3 0.09 0
0.4 0.09 0
0.5 0.09 0
0.6 0.09 0
0.7 0.09 0
0.8 0.09 0
0.9 0.09 0
1 0.09 0
0 0.18 0
0.1 0.18 0
0.2 0.18 0
0.3 0.18 0
0.4 0.18 0
0.5 0.18 0
0.6 0.18 0
0.7 0.18 0
0.8 0.18 0
0.9 0.18 0
1 0.18 0
0 0.27 0
0.1 0.27 0
0.2 0.27 0
0.3 0.27 0
0.4 0.27 0
0.5 0.27 0
0.6 0.27 0
0.7 0.27 0
0.8 0.27 0
0.9 0.27 0
1 0.27 0
0 0.36 0
0.1 0.36 0
0.2 0.36 0
0.3 0.36 0
0.4 0.36 0
0.5 0.36 0
0.6 0.36 0
0.7 0.36 0
0.8 0.36 0
0.9 0.36 0
1 0.36 0
0 0.45 0
0.1 0.45 0
0.2 0.45 0
0.3 0.45 0
0.4 0.45 0
0.5 0.45 0
0.6 0.45 0
0.7 0.45 0
0.8 0.45 0
0.9 0.45 0
1 0.45 0
CELLS 100 400
3 0 1 12
3 0 12 11
3 1 2 13
3 1 13 12
3 2 3 14
3 2 14 13
3 3 4 15
3 3 15 14
3 4 5 16
3 4 16 15
3 5 6 17
3 5 17 16
3 6 7 18
3 6 18 17
3 7 8 19
3 7 19 18
3 8 9 20
3 8 20 19
3 9 10 21
3 9 21 20
3 11 12 23
3 11 23 22
3 12 13 24
3 12 24 23
3 13 14 25
3 13 25 24
3 14 15 26
3 14 26 25
3 15 16 27
3 15 27 26
3 16 17 28
3 16 28 27
3 17 18 29
3 17 29 28
3 18 19 30
3 18 30 29
3 19 20 31
3 19 31 30
3 20 21 32
3 20 32 31
3 22 23 34
3 22 34 33
3 23 24 35
3 23 35 34
3 24 25 36
3 24 36 35
3 25 26 37
3 25 37 36
3 26 27 38
3 26 38 37
3 27 28 39
3 27 39 38
3 28 29 40
3 28 40 39
3 29 30 41
3 29 41 40
3 30 31 42
3 30 42 41
3 31 32 43
3 31 43 42
3 33 34 45
3 33 45 44
3 34 35 46
3 34 46 45
3 35 36 47
3 35 47 46
3 36 37 48
3 36 48 47
3 37 38 49
3 37 49 48
3 38 39 50
3 38 50 49
3 39 40 51
3 39 51 50
3 40 41 52
3 40 52 51
3 41 42 53
3 41 53 52
3 42 43 54
3 42 54 53
3 44 45 56
3 44 56 55
3 45 46 57
3 45 57 56
3 46 47 58
3 46 58 57
3 47 48 59
3 47 59 58
3 48 49 60
3 48 60 59
3 49 50 61
3 49 61 60
3 50 51 62
3 50 62 61
3 51 52 63
3 51 63 62
3 52 53 64
3 52 64 63
3 53 54 65
3 53 65 64
CELL_TYPES 100
5
5
5
5
5
5
5
5
5
5
5
5
5
5
5
5
5
5
5
5
5
5
5
5
5
5
5
5
5
5
5
5
5
5
5
5
5
5
5
5
5
5
5
5
5
5
5
5
5
5
5
5
5
5
5
5
5
5
5
5
5
5
5
5
5
5
5
5
5
5
5
5
5
5
5
5
5
5
5
5
5
5
5
5
5
5
5
5
5
5
5
5
5
5
5
5
5
5
5
5
CELL_DATA 100
VECTORS Et double
-0.107977 0.625475 0
0.0985145 0.138033 0
-0.0090749 0.889186 0
0.0206238 0.795777 0
0.0933181 0.455827 0
-0.0804349 0.825921 0
0.119121 -0.319065 0
-0.121782 0.21655 0
0.0500848 -0.808299 0
-0.0610223 -0.540309 0
0.000724645 -0.948696 0
-0.0609086 -0.871679 0
-0.0179788 -0.86533 0
0.0156739 -0.9361 0
-0.0339174 -0.672952 0
0.0291921 -0.813057 0
-0.0453199 -0.391291 0
0.0446558 -0.588443 0
-0.050807 -0.0564523 0
0.0550223 -0.285714 0
-0.132486 0.627731 0
0.0815455 0.135642 0
-0.0332277 0.89226 0
0.00211916 0.794922 0
0.0793302 0.452836 0
-0.0965545 0.8271 0
0.119981 -0.337915 0
-0.132108 0.211944 0
0.0689577 -0.853522 0
-0.0647458 -0.560189 0
-0.0537833 -0.886804 0
-0.0216395 -0.915695 0
-0.0144955 -0.829927 0
-0.00593093 -0.873277 0
-0.0338387 -0.63949 0
0.0271119 -0.777378 0
-0.0428319 -0.371012 0
0.0350856 -0.554863 0
-0.0455163 -0.056488 0
0.0418797 -0.265355 0
-0.143986 0.62325 0
0.0768858 0.131444 0
-0.0473721 0.88432 0
-0.00235121 0.783031 0
0.0665993 0.442742 0
-0.100725 0.813013 0
0.112103 -0.353564 0
-0.13735 0.197178 0
0.0654755 -0.875783 0
-0.0715301 -0.578144 0
-0.0161804 -0.95754 0
-0.0297472 -0.937136 0
-0.0366249 -0.863059 0
0.00425682 -0.94292 0
-0.0361214 -0.674661 0
0.0224918 -0.810143 0
-0.0524867 -0.389632 0
0.0401608 -0.589908 0
-0.0586979 -0.0564809 0
0.0454525 -0.283952 0
-0.1411 0.626367 0
0.0933699 0.127541 0
-0.0452737 0.885672 0
0.011264 0.778561 0
0.0677909 0.438761 0
-0.0933968 0.807944 0
0.110622 -0.367349 0
-0.139241 0.188056 0
0.0596269 -0.899441 0
-0.082166 -0.595023 0
-0.0251723 -0.912918 0
0.0225464 -0.960985 0
-0.0268938 -0.839784 0
-0.00583314 -0.897924 0
-0.0409023 -0.648704 0
0.0196867 -0.786578 0
-0.047488 -0.377332 0
0.0326294 -0.563804 0
-0.0551653 -0.05653 0
0.0376773 -0.271542 0
-0.119096 0.619193 0
0.113499 0.12611 0
-0.0270235 0.880597 0
0.0365206 0.768304 0
0.0792073 0.438275 0
-0.0732686 0.800298 0
0.112371 -0.363874 0
-0.12832 0.184501 0
0.0510844 -0.89407 0
-0.0834345 -0.594942 0
0.027172 -0.999631 0
-0.00571368 -0.957375 0
-0.0371199 -0.89475 0
0.0127247 -0.98486 0
-0.0438232 -0.68974 0
0.0293409 -0.841561 0
-0.0550665 -0.399318 0
0.0422575 -0.604861 0
-0.0629714 -0.0565084 0
0.0497641 -0.293572 0
