# vtk DataFile Version 3.0
tp3485 cell-vector
ASCII
DATASET UNSTRUCTURED_GRID
POINTS 66 double
0 0 0
0.1 0 0
0.2 0 0
0.3 0 0
0.4 0 0
0.5 0 0
0.6 0 0
0.7 0 0
0.8 0 0
0.9 0 0
1 0 0
0 0.09 0
0.1 0.09 0
0.2 0.09 0
0.3 0.09 0
0.4 0.09 0
0.5 0.09 0
0.6 0.09 0
0.7 0.09 0
0.8 0.09 0
0.9 0.09 0
1 0.09 0
0 0.18 0
0.1 0.18 0
0.2 0.18 0
0.3 0.18 0
0.4 0.18 0
0.5 0.18 0
0.6 0.18 0
0.7 0.18 0
0.8 0.18 0
0.9 0.18 0
1 0.18 0
0 0.27 0
0.1 0.27 0
0.2 0.27 0
0.3 0.27 0
0.4 0.27 0
0.5 0.27 0
0.6 0.27 0
0.7 0.27 0
0.8 0.27 0
0.9 0.27 0
1 0.27 0
0 0.36 0
0.1 0.36 0
0.2 0.36 0
0.3 0.36 0
0.4 0.36 0
0.5 0.36 0
0.6 0.36 0
0.7 0.36 0
0.8 0.36 0
0.9 0.36 0
1 0.36 0
0 0.45 0
0.1 0.45 0
0.2 0.45 0
0.3 0.45 0
0.4 0.45 0
0.5 0.45 0
0.6 0.45 0
0.7 0.45 0
0.8 0.45 0
0.9 0.45 0
1 0.45 0
CELLS 100 400
3 0 1 12
3 0 12 11
3 1 2 13
3 1 13 12
3 2 3 14
3 2 14 13
3 3 4 15
3 3 15 14
3 4 5 16
3 4 16 15
3 5 6 17
3 5 17 16
3 6 7 18
3 6 18 17
3 7 8 19
3 7 19 18
3 8 9 20
3 8 20 19
3 9 10 21
3 9 21 20
3 11 12 23
3 11 23 22
3 12 13 24
3 12 24 23
3 13 14 25
3 13 25 24
3 14 15 26
3 14 26 25
3 15 16 27
3 15 27 26
3 16 17 28
3 16 28 27
3 17 18 29
3 17 29 28
3 18 19 30
3 18 30 29
3 19 20 31
3 19 31 30
3 20 21 32
3 20 32 31
3 22 23 34
3 22 34 33
3 23 24 35
3 23 35 34
3 24 25 36
3 24 36 35
3 25 26 37
3 25 37 36
3 26 27 38
3 26 38 37
3 27 28 39
3 27 39 38
3 28 29 40
3 28 40 39
3 29 30 41
3 29 41 40
3 30 31 42
3 30 42 41
3 31 32 43
3 31 43 42
3 33 34 45
3 33 45 44
3 34 35 46
3 34 46 45
3 35 36 47
3 35 47 46
3 36 37 48
3 36 48 47
3 37 38 49
3 37 49 48
3 38 39 50
3 38 50 49
3 39 40 51
3 39 51 50
3 40 41 52
3 40 52 51
3 41 42 53
3 41 53 52
3 42 43 54
3 42 54 53
3 44 45 56
3 44 56 55
3 45 46 57
3 45 57 56
3 46 47 58
3 46 58 57
3 47 48 59
3 47 59 58
3 48 49 60
3 48 60 59
3 49 50 61
3 49 61 60
3 50 51 62
3 50 62 61
3 51 52 63
3 51 63 62
3 52 53 64
3 52 64 63
3 53 54 65
3 53 65 64
CELL_TYPES 100
5
5
5
5
5
5
5
5
5
5
5
5
5
5
5
5
5
5
5
5
5
5
5
5
5
5
5
5
5
5
5
5
5
5
5
5
5
5
5
5
5
5
5
5
5
5
5
5
5
5
5
5
5
5
5
5
5
5
5
5
5
5
5
5
5
5
5
5
5
5
5
5
5
5
5
5
5
5
5
5
5
5
5
5
5
5
5
5
5
5
5
5
5
5
5
5
5
5
5
5
CELL_DATA 100
VECTORS Et double
0.00163588 0.71095 0
0.647617 -0.0024948 0
0.0150507 0.0841705 0
-0.505214 0.694049 0
0.0144298 -0.543455 0
-0.493453 0.0521696 0
-0.00403572 -0.0412898 0
0.457073 -0.558803 0
-0.0153901 0.416108 0
0.357891 -0.0262775 0
-0.0145888 -0.152092 0
-0.578485 0.445729 0
-0.0133218 -0.0516416 0
0.0162099 -0.117569 0
-0.0060551 -0.0148123 0
-0.00705204 -0.0286361 0
-0.00306487 -0.00435491 0
-0.00993411 -0.00410612 0
-0.00202971 -0.00225524 0
-0.00949273 0.00141613 0
0.648462 0.306566 0
0.916883 0.00338159 0
-0.481236 -0.16992 0
-0.889335 0.301602 0
-0.466778 -0.398463 0
-0.628224 -0.193097 0
0.457153 0.0131482 0
0.850828 -0.418159 0
0.34021 0.221991 0
0.517927 0.0138914 0
-0.599062 -0.0745825 0
-0.893899 0.23689 0
-0.00942133 -0.0395793 0
-0.0143585 -0.0542496 0
-0.0189949 -0.0150849 0
-0.0200839 -0.024177 0
-0.0159543 -0.00564611 0
-0.0194757 -0.00723145 0
-0.0132942 -0.00185821 0
-0.017183 -0.00116539 0
0.90714 -0.0645218 0
0.821539 0.0115736 0
-0.88241 -0.112139 0
-0.943393 -0.0501426 0
-0.608675 0.0221354 0
-0.468072 -0.11865 0
0.863955 0.0952742 0
0.970478 -0.000900056 0
0.518911 0.00112894 0
0.46147 0.0767934 0
-0.90269 -0.0450873 0
-0.943945 -0.00235875 0
-0.0266779 -0.029 0
-0.022234 -0.0393684 0
-0.0268996 -0.0163867 0
-0.0236332 -0.0238273 0
-0.0233409 -0.00762303 0
-0.0209793 -0.012902 0
-0.0198248 -0.00116544 0
-0.0180941 -0.00518466 0
0.798872 -0.290918 0
0.491127 0.0187041 0
-0.959299 0.161791 0
-0.608572 -0.257974 0
-0.458433 0.477375 0
-0.179706 0.17279 0
0.998386 0.0568012 0
0.675895 0.4526 0
0.482409 -0.297319 0
0.224541 0.0209821 0
-0.941195 -0.0118429 0
-0.658569 -0.317524 0
-0.0216638 -0.0205579 0
-0.0153046 -0.0196395 0
-0.0246222 -0.0180348 0
-0.0166353 -0.0247287 0
-0.0222536 -0.00973749 0
-0.0141257 -0.0187234 0
-0.0193236 -0.000435241 0
-0.0118896 -0.00929979 0
0.457571 -0.422434 0
0.0202196 0.0224662 0
-0.643459 0.409945 0
0.023824 -0.377384 0
-0.178526 0.636697 0
0.00315932 0.432887 0
0.714115 -0.247601 0
-0.0198601 0.613058 0
0.259245 -0.644106 0
-0.0193731 -0.292191 0
-0.647423 0.0230254 0
-0.00755966 -0.67332 0
-0.00432304 -0.0152395 0
-0.00908118 0.00672078 0
-0.0130186 -0.0205339 0
-0.00328886 -0.025477 0
-0.0133282 -0.0118745 0
-0.00100906 -0.0238686 0
-0.011987 6.11992e-05 0
-0.000224791 -0.0126969 0
