# vtk DataFile Version 3.0
tp3485 cell-vector
ASCII
DATASET UNSTRUCTURED_GRID
POINTS 66 double
0 0 0
0.1 0 0
0.2 0 0
0.3 0 0
0.4 0 0
0.5 0 0
0.6 0 0
0.7 0 0
0.8 0 0
0.9 0 0
1 0 0
0 0.09 0
0.1 0.09 0
0.2 0.09 0
0.3 0.09 0
0.4 0.09 0
0.5 0.09 0
0.6 0.09 0
0.7 0.09 0
0.8 0.09 0
0.9 0.09 0
1 0.09 0
0 0.18 0
0.1 0.18 0
0.2 0.18 0
0.3 0.18 0
0.4 0.18 0
0.5 0.18 0
0.6 0.18 0
0.7 0.18 0
0.8 0.18 0
0.9 0.18 0
1 0.18 0
0 0.27 0
0.1 0.27 0
0.2 0.27 0
0.3 0.27 0
0.4 0.27 0
0.5 0.27 0
0.6 0.27 0
0.7 0.27 0
0.8 0.27 0
0.9 0.27 0
1 0.27 0
0 0.36 0
0.1 0.36 0
0.2 0.36 0
0.3 0.36 0
0.4 0.36 0
0.5 0.36 0
0.6 0.36 0
0.7 0.36 0
0.8 0.36 0
0.9 0.36 0
1 0.36 0
0 0.45 0
0.1 0.45 0
0.2 0.45 0
0.3 0.45 0
0.4 0.45 0
0.5 0.45 0
0.6 0.45 0
0.7 0.45 0
0.8 0.45 0
0.9 0.45 0
1 0.45 0
CELLS 100 400
3 0 1 12
3 0 12 11
3 1 2 13
3 1 13 12
3 2 3 14
3 2 14 13
3 3 4 15
3 3 15 14
3 4 5 16
3 4 16 15
3 5 6 17
3 5 17 16
3 6 7 18
3 6 18 17
3 7 8 19
3 7 19 18
3 8 9 20
3 8 20 19
3 9 10 21
3 9 21 20
3 11 12 23
3 11 23 22
3 12 13 24
3 12 24 23
3 13 14 25
3 13 25 24
3 14 15 26
3 14 26 25
3 15 16 27
3 15 27 26
3 16 17 28
3 16 28 27
3 17 18 29
3 17 29 28
3 18 19 30
3 18 30 29
3 19 20 31
3 19 31 30
3 20 21 32
3 20 32 31
3 22 23 34
3 22 34 33
3 23 24 35
3 23 35 34
3 24 25 36
3 24 36 35
3 25 26 37
3 25 37 36
3 26 27 38
3 26 38 37
3 27 28 39
3 27 39 38
3 28 29 40
3 28 40 39
3 29 30 41
3 29 41 40
3 30 31 42
3 30 42 41
3 31 32 43
3 31 43 42
3 33 34 45
3 33 45 44
3 34 35 46
3 34 46 45
3 35 36 47
3 35 47 46
3 36 37 48
3 36 48 47
3 37 38 49
3 37 49 48
3 38 39 50
3 38 50 49
3 39 40 51
3 39 51 50
3 40 41 52
3 40 52 51
3 41 42 53
3 41 53 52
3 42 43 54
3 42 54 53
3 44 45 56
3 44 56 55
3 45 46 57
3 45 57 56
3 46 47 58
3 46 58 57
3 47 48 59
3 47 59 58
3 48 49 60
3 48 60 59
3 49 50 61
3 49 61 60
3 50 51 62
3 50 62 61
3 51 52 63
3 51 63 62
3 52 53 64
3 52 64 63
3 53 54 65
3 53 65 64
CELL_TYPES 100
5
5
5
5
5
5
5
5
5
5
5
5
5
5
5
5
5
5
5
5
5
5
5
5
5
5
5
5
5
5
5
5
5
5
5
5
5
5
5
5
5
5
5
5
5
5
5
5
5
5
5
5
5
5
5
5
5
5
5
5
5
5
5
5
5
5
5
5
5
5
5
5
5
5
5
5
5
5
5
5
5
5
5
5
5
5
5
5
5
5
5
5
5
5
5
5
5
5
5
5
CELL_DATA 100
VECTORS Et double
-0.0443584 0.264314 0
0.0659336 0.0462401 0
-0.0366936 -0.186493 0
-0.594656 0.353148 0
-0.0319649 -0.525512 0
-0.469464 -0.11032 0
-0.0318879 -0.0592333 0
0.26145 -0.455295 0
-0.0276215 0.439541 0
0.308914 0.00555953 0
-0.0182447 0.172007 0
-0.340981 0.490281 0
-0.0128165 -0.238807 0
-0.441305 0.207665 0
-0.0126478 -0.0466161 0
0.107611 -0.209428 0
-0.00662 -0.0144071 0
-0.0121896 -0.0240686 0
-0.0043359 -0.00481766 0
-0.0156564 -0.00205429 0
-0.00611741 0.257215 0
0.147863 0.0261549 0
-0.655351 0.0366719 0
-0.949624 0.31339 0
-0.523016 -0.0795786 0
-0.709353 0.0839636 0
0.208408 0.156511 0
0.343851 -0.0368476 0
0.263646 0.236777 0
0.266907 0.196482 0
-0.371152 -0.0844077 0
-0.710431 0.268404 0
-0.463566 -0.271748 0
-0.667438 -0.0627528 0
0.0851842 -0.0335408 0
0.266997 -0.253868 0
-0.0245602 -0.012448 0
-0.0280853 -0.0187709 0
-0.0234119 -0.00362 0
-0.0292599 -0.00396972 0
0.118133 0.127179 0
0.231158 -0.00264125 0
-0.974522 0.159148 0
-0.952702 0.131827 0
-0.729482 0.192183 0
-0.699447 0.160149 0
0.324951 0.102012 0
0.249726 0.189188 0
0.251039 -0.122706 0
0.0545326 0.0990599 0
-0.720681 -0.26355 0
-0.842996 -0.124577 0
-0.675239 -0.180425 0
-0.596264 -0.265756 0
0.257433 -0.00606541 0
0.414355 -0.181229 0
-0.0341385 -0.00719121 0
-0.0392101 -0.00363156 0
-0.0336063 -0.00160183 0
-0.0330961 -0.00461248 0
0.252674 -0.141757 0
0.196092 -0.0288121 0
-0.934184 0.108029 0
-0.629316 -0.187695 0
-0.677538 0.263031 0
-0.455653 0.0631069 0
0.274708 -0.0484475 0
0.084756 0.2137 0
0.0761971 -0.339572 0
-0.103937 -0.0954581 0
-0.828076 -0.156321 0
-0.602956 -0.375983 0
-0.585733 0.0996091 0
-0.311327 -0.182811 0
0.420765 0.00407907 0
0.366474 0.0805236 0
-0.0382949 -0.00627743 0
-0.0358354 -0.00470422 0
-0.0335523 0.000335104 0
-0.0241662 -0.00869596 0
0.257875 -0.453539 0
-0.0381527 -0.0423919 0
-0.576073 0.0025135 0
-0.032912 -0.529943 0
-0.399012 0.257474 0
-0.0352621 -0.0711531 0
0.146275 -0.108558 0
-0.0384253 0.17842 0
-0.0510441 -0.234889 0
-0.0331286 -0.184429 0
-0.566638 0.260435 0
-0.0234066 -0.294453 0
-0.285049 0.479081 0
-0.0179579 0.217787 0
0.385606 -0.0215799 0
-0.0137157 0.448321 0
-0.0306472 -0.0128068 0
-0.00344856 -0.0363814 0
-0.0218824 0.00147469 0
-0.00172295 -0.0175356 0
