# vtk DataFile Version 3.0
tp3485 cell-vector
ASCII
DATASET UNSTRUCTURED_GRID
POINTS 66 double
0 0 0
0.1 0 0
0.2 0 0
0.3 0 0
0.4 0 0
0.5 0 0
0.6 0 0
0.7 0 0
0.8 0 0
0.9 0 0
1 0 0
0 0.09 0
0.1 0.09 0
0.2 0.09 0
0.3 0.09 0
0.4 0.09 0
0.5 0.09 0
0.6 0.09 0
0.7 0.09 0
0.8 0.09 0
0.9 0.09 0
1 0.09 0
0 0.18 0
0.1 0.18 0
0.2 0.18 0
0.3 0.18 0
0.4 0.18 0
0.5 0.18 0
0.6 0.18 0
0.7 0.18 0
0.8 0.18 0
0.9 0.18 0
1 0.18 0
0 0.27 0
0.1 0.27 0
0.2 0.27 0
0.3 0.27 0
0.4 0.27 0
0.5 0.27 0
0.6 0.27 0
0.7 0.27 0
0.8 0.27 0
0.9 0.27 0
1 0.27 0
0 0.36 0
0.1 0.36 0
0.2 0.36 0
0.3 0.36 0
0.4 0.36 0
0.5 0.36 0
0.6 0.36 0
0.7 0.36 0
0.8 0.36 0
0.9 0.36 0
1 0.36 0
0 0.45 0
0.1 0.45 0
0.2 0.45 0
0.3 0.45 0
0.4 0.45 0
0.5 0.45 0
0.6 0.45 0
0.7 0.45 0
0.8 0.45 0
0.9 0.45 0
1 0.45 0
CELLS 100 400
3 0 1 12
3 0 12 11
3 1 2 13
3 1 13 12
3 2 3 14
3 2 14 13
3 3 4 15
3 3 15 14
3 4 5 16
3 4 16 15
3 5 6 17
3 5 17 16
3 6 7 18
3 6 18 17
3 7 8 19
3 7 19 18
3 8 9 20
3 8 20 19
3 9 10 21
3 9 21 20
3 11 12 23
3 11 23 22
3 12 13 24
3 12 24 23
3 13 14 25
3 13 25 24
3 14 15 26
3 14 26 25
3 15 16 27
3 15 27 26
3 16 17 28
3 16 28 27
3 17 18 29
3 17 29 28
3 18 19 30
3 18 30 29
3 19 20 31
3 19 31 30
3 20 21 32
3 20 32 31
3 22 23 34
3 22 34 33
3 23 24 35
3 23 35 34
3 24 25 36
3 24 36 35
3 25 26 37
3 25 37 36
3 26 27 38
3 26 38 37
3 27 28 39
3 27 39 38
3 28 29 40
3 28 40 39
3 29 30 41
3 29 41 40
3 30 31 42
3 30 42 41
3 31 32 43
3 31 43 42
3 33 34 45
3 33 45 44
3 34 35 46
3 34 46 45
3 35 36 47
3 35 47 46
3 36 37 48
3 36 48 47
3 37 38 49
3 37 49 48
3 38 39 50
3 38 50 49
3 39 40 51
3 39 51 50
3 40 41 52
3 40 52 51
3 41 42 53
3 41 53 52
3 42 43 54
3 42 54 53
3 44 45 56
3 44 56 55
3 45 46 57
3 45 57 56
3 46 47 58
3 46 58 57
3 47 48 59
3 47 59 58
3 48 49 60
3 48 60 59
3 49 50 61
3 49 61 60
3 50 51 62
3 50 62 61
3 51 52 63
3 51 63 62
3 52 53 64
3 52 64 63
3 53 54 65
3 53 65 64
CELL_TYPES 100
5
5
5
5
5
5
5
5
5
5
5
5
5
5
5
5
5
5
5
5
5
5
5
5
5
5
5
5
5
5
5
5
5
5
5
5
5
5
5
5
5
5
5
5
5
5
5
5
5
5
5
5
5
5
5
5
5
5
5
5
5
5
5
5
5
5
5
5
5
5
5
5
5
5
5
5
5
5
5
5
5
5
5
5
5
5
5
5
5
5
5
5
5
5
5
5
5
5
5
5
CELL_DATA 100
VECTORS Et double
-0.001355 0.00107702 0
-0.00398383 0.00124619 0
-0.00030665 0.0113616 0
0.00511504 0.00378967 0
0.00053531 0.0283838 0
0.0170834 0.011147 0
-0.000259973 0.0994767 0
0.0639916 0.0277931 0
-0.000990901 0.0362713 0
-0.0610103 0.100812 0
0.00121105 -0.290809 0
-0.293431 0.0376442 0
0.000503495 0.126254 0
0.380742 -0.293915 0
-0.00118569 0.30499 0
0.159128 0.12562 0
0.000972725 -0.341136 0
-0.583521 0.307845 0
1.70659e-05 1.89621e-05 0
0.309115 -0.34281 0
-0.00539808 -0.00685924 0
-0.010062 -0.00100115 0
0.00156619 -0.0267544 0
-0.0193521 -0.00639096 0
0.0161779 -0.281399 0
-0.22192 -0.0212131 0
0.0651646 -0.193245 0
0.146573 -0.281114 0
-0.0604032 0.205337 0
0.30523 -0.196877 0
-0.295009 0.498007 0
-0.0332539 0.204651 0
0.380988 -0.487376 0
-0.5114 0.501084 0
0.16086 -0.480788 0
0.167808 -0.486274 0
-0.583875 0.811843 0
0.585667 -0.484571 0
0.307979 -0.00185501 0
-0.424942 0.810673 0
-0.00631941 0.00686148 0
0.00786032 -0.00286824 0
-0.0151586 0.0320543 0
0.0199287 0.000787602 0
-0.223566 0.722529 0
0.408923 0.0239963 0
0.145926 -0.0251633 0
-0.531585 0.723593 0
0.306872 -0.649434 0
-0.260609 -0.0212844 0
-0.033096 -0.00388539 0
0.551731 -0.650708 0
-0.511454 0.638075 0
0.0709287 -0.00628952 0
0.166847 0.0476157 0
-0.365709 0.637217 0
0.585384 -0.705677 0
-0.0990161 0.0507935 0
-0.422359 0.00284268 0
0.216705 -0.703908 0
0.0105151 -0.00847956 0
0.00257014 0.000214819 0
0.0197959 -0.0319445 0
-0.00710684 -0.00683889 0
0.411705 -0.804642 0
-0.289891 -0.0270678 0
-0.531362 0.366342 0
0.526585 -0.805672 0
-0.262164 0.619225 0
-0.0291555 0.362268 0
0.551841 -0.523115 0
-0.480233 0.620525 0
0.0711361 -0.282251 0
0.282466 -0.519745 0
-0.364551 0.292524 0
0.156513 -0.28288 0
-0.099318 0.221567 0
-0.157652 0.289166 0
0.214801 -0.00259407 0
0.0090973 0.221774 0
0.00175226 0.00191653 0
0.000950867 0.00105652 0
-0.00857635 0.0134094 0
0.000407712 0.00306347 0
-0.291301 0.337864 0
0.00033632 0.0136937 0
0.526071 -0.246998 0
-0.000557639 0.336999 0
-0.0278816 -0.209937 0
0.00118377 -0.243917 0
-0.47999 0.32214 0
3.30445e-05 -0.20953 0
0.280686 0.00447897 0
-0.00129593 0.318974 0
0.156756 -0.164965 0
0.000944864 0.0057873 0
-0.156329 0.0120461 0
0.00062006 -0.162954 0
0.00804848 0.00043199 0
-0.000648894 0.0112487 0
