# vtk DataFile Version 3.0
tp3485 cell-vector
ASCII
DATASET UNSTRUCTURED_GRID
POINTS 66 double
0 0 0
0.1 0 0
0.2 0 0
0.3 0 0
0.4 0 0
0.5 0 0
0.6 0 0
0.7 0 0
0.8 0 0
0.9 0 0
1 0 0
0 0.09 0
0.1 0.09 0
0.2 0.09 0
0.3 0.09 0
0.4 0.09 0
0.5 0.09 0
0.6 0.09 0
0.7 0.09 0
0.8 0.09 0
0.9 0.09 0
1 0.09 0
0 0.18 0
0.1 0.18 0
0.2 0.18 0
0.3 0.18 0
0.4 0.18 0
0.5 0.18 0
0.6 0.18 0
0.7 0.18 0
0.8 0.18 0
0.9 0.18 0
1 0.18 0
0 0.27 0
0.1 0.27 0
0.2 0.27 0
0.3 0.27 0
0.4 0.27 0
0.5 0.27 0
0.6 0.27 0
0.7 0.27 0
0.8 0.27 0
0.9 0.27 0
1 0.27 0
0 0.36 0
0.1 0.36 0
0.2 0.36 0
0.3 0.36 0
0.4 0.36 0
0.5 0.36 0
0.6 0.36 0
0.7 0.36 0
0.8 0.36 0
0.9 0.36 0
1 0.36 0
0 0.45 0
0.1 0.45 0
0.2 0.45 0
0.3 0.45 0
0.4 0.45 0
0.5 0.45 0
0.6 0.45 0
0.7 0.45 0
0.8 0.45 0
0.9 0.45 0
1 0.45 0
CELLS 100 400
3 0 1 12
3 0 12 11
3 1 2 13
3 1 13 12
3 2 3 14
3 2 14 13
3 3 4 15
3 3 15 14
3 4 5 16
3 4 16 15
3 5 6 17
3 5 17 16
3 6 7 18
3 6 18 17
3 7 8 19
3 7 19 18
3 8 9 20
3 8 20 19
3 9 10 21
3 9 21 20
3 11 12 23
3 11 23 22
3 12 13 24
3 12 24 23
3 13 14 25
3 13 25 24
3 14 15 26
3 14 26 25
3 15 16 27
3 15 27 26
3 16 17 28
3 16 28 27
3 17 18 29
3 17 29 28
3 18 19 30
3 18 30 29
3 19 20 31
3 19 31 30
3 20 21 32
3 20 32 31
3 22 23 34
3 22 34 33
3 23 24 35
3 23 35 34
3 24 25 36
3 24 36 35
3 25 26 37
3 25 37 36
3 26 27 38
3 26 38 37
3 27 28 39
3 27 39 38
3 28 29 40
3 28 40 39
3 29 30 41
3 29 41 40
3 30 31 42
3 30 42 41
3 31 32 43
3 31 43 42
3 33 34 45
3 33 45 44
3 34 35 46
3 34 46 45
3 35 36 47
3 35 47 46
3 36 37 48
3 36 48 47
3 37 38 49
3 37 49 48
3 38 39 50
3 38 50 49
3 39 40 51
3 39 51 50
3 40 41 52
3 40 52 51
3 41 42 53
3 41 53 52
3 42 43 54
3 42 54 53
3 44 45 56
3 44 56 55
3 45 46 57
3 45 57 56
3 46 47 58
3 46 58 57
3 47 48 59
3 47 59 58
3 48 49 60
3 48 60 59
3 49 50 61
3 49 61 60
3 50 51 62
3 50 62 61
3 51 52 63
3 51 63 62
3 52 53 64
3 52 64 63
3 53 54 65
3 53 65 64
CELL_TYPES 100
5
5
5
5
5
5
5
5
5
5
5
5
5
5
5
5
5
5
5
5
5
5
5
5
5
5
5
5
5
5
5
5
5
5
5
5
5
5
5
5
5
5
5
5
5
5
5
5
5
5
5
5
5
5
5
5
5
5
5
5
5
5
5
5
5
5
5
5
5
5
5
5
5
5
5
5
5
5
5
5
5
5
5
5
5
5
5
5
5
5
5
5
5
5
5
5
5
5
5
5
CELL_DATA 100
VECTORS Et double
-0.000304128 -0.00566343 0
-0.00626338 0.000310023 0
-0.000380661 -0.0128588 0
-0.00819619 -0.00496165 0
-0.000137197 -0.355596 0
-0.30949 -0.0122293 0
-6.98985e-05 -0.676425 0
-0.289233 -0.355327 0
-2.03438e-05 -0.904573 0
-0.205548 -0.676289 0
1.72304e-05 -0.99654 0
-0.0827688 -0.904543 0
4.50969e-05 -0.938127 0
0.052746 -0.996596 0
5.92709e-05 -0.735854 0
0.182334 -0.938246 0
6.14496e-05 -0.416052 0
0.288168 -0.736011 0
7.49187e-05 8.32431e-05 0
0.374904 -0.416215 0
-0.00676827 -0.0036942 0
-0.0106774 0.000199161 0
-0.00880816 -0.00807451 0
-0.0136808 -0.00320989 0
-0.309789 -0.217809 0
-0.499218 -0.00760856 0
-0.289392 -0.405388 0
-0.458565 -0.217581 0
-0.20562 -0.529228 0
-0.31726 -0.405268 0
-0.0827741 -0.571676 0
-0.121043 -0.52918 0
0.0527941 -0.526603 0
0.0933826 -0.571681 0
0.182417 -0.4015 0
0.295094 -0.526647 0
0.288275 -0.215768 0
0.455566 -0.40157 0
0.375023 3.60798e-05 0
0.569404 -0.215851 0
-0.0109357 -0.000715038 0
-0.0117101 2.88277e-05 0
-0.0139911 -0.00250147 0
-0.0158268 -0.000600218 0
-0.499376 -0.0182199 0
-0.513727 -0.00234598 0
-0.458659 -0.0192311 0
-0.459659 -0.0181581 0
-0.317305 -0.0104201 0
-0.309394 -0.0192147 0
-0.121055 9.82401e-05 0
-0.111564 -0.010433 0
0.0933911 0.0108543 0
0.103113 7.20682e-05 0
0.295114 0.0183665 0
0.301916 0.0108265 0
0.455598 0.0176398 0
0.454978 0.0183438 0
0.569435 -2.08221e-05 0
0.553551 0.0176298 0
-0.0116434 0.00330779 0
-0.00831168 -0.000145593 0
-0.0157179 0.00609865 0
-0.0126272 0.00300866 0
-0.513681 0.195827 0
-0.342546 0.0058615 0
-0.459639 0.385215 0
-0.288951 0.195676 0
-0.309372 0.518876 0
-0.188914 0.385115 0
-0.111546 0.572228 0
-0.0634224 0.518806 0
0.103122 0.537968 0
0.0723347 0.57219 0
0.301911 0.42006 0
0.19578 0.537964 0
0.454966 0.235386 0
0.288691 0.420091 0
0.553519 -5.66282e-05 0
0.341506 0.235442 0
-0.00795351 0.00782653 0
-0.000227498 -0.000252775 0
-0.0121021 0.0195983 0
-0.000310641 0.00722899 0
-0.342274 0.398675 0
-0.00018819 0.019002 0
-0.288778 0.718768 0
-0.000126357 0.398322 0
-0.188789 0.927993 0
-9.21218e-05 0.718529 0
-0.0633397 0.997992 0
-6.64965e-05 0.927823 0
0.0723739 0.917354 0
-4.18494e-05 0.997885 0
0.195778 0.69976 0
-1.55858e-05 0.917314 0
0.288652 0.379118 0
9.16593e-06 0.699782 0
0.341434 -6.50045e-05 0
2.506e-05 0.379186 0
