# vtk DataFile Version 3.0
tp3485 cell-vector
ASCII
DATASET UNSTRUCTURED_GRID
POINTS 66 double
0 0 0
0.1 0 0
0.2 0 0
0.3 0 0
0.4 0 0
0.5 0 0
0.6 0 0
0.7 0 0
0.8 0 0
0.9 0 0
1 0 0
0 0.09 0
0.1 0.09 0
0.2 0.09 0
0.3 0.09 0
0.4 0.09 0
0.5 0.09 0
0.6 0.09 0
0.7 0.09 0
0.8 0.09 0
0.9 0.09 0
1 0.09 0
0 0.18 0
0.1 0.18 0
0.2 0.18 0
0.3 0.18 0
0.4 0.18 0
0.5 0.18 0
0.6 0.18 0
0.7 0.18 0
0.8 0.18 0
0.9 0.18 0
1 0.18 0
0 0.27 0
0.1 0.27 0
0.2 0.27 0
0.3 0.27 0
0.4 0.27 0
0.5 0.27 0
0.6 0.27 0
0.7 0.27 0
0.8 0.27 0
0.9 0.27 0
1 0.27 0
0 0.36 0
0.1 0.36 0
0.2 0.36 0
0.3 0.36 0
0.4 0.36 0
0.5 0.36 0
0.6 0.36 0
0.7 0.36 0
0.8 0.36 0
0.9 0.36 0
1 0.36 0
0 0.45 0
0.1 0.45 0
0.2 0.45 0
0.3 0.45 0
0.4 0.45 0
0.5 0.45 0
0.6 0.45 0
0.7 0.45 0
0.8 0.45 0
0.9 0.45 0
1 0.45 0
CELLS 100 400
3 0 1 12
3 0 12 11
3 1 2 13
3 1 13 12
3 2 3 14
3 2 14 13
3 3 4 15
3 3 15 14
3 4 5 16
3 4 16 15
3 5 6 17
3 5 17 16
3 6 7 18
3 6 18 17
3 7 8 19
3 7 19 18
3 8 9 20
3 8 20 19
3 9 10 21
3 9 21 20
3 11 12 23
3 11 23 22
3 12 13 24
3 12 24 23
3 13 14 25
3 13 25 24
3 14 15 26
3 14 26 25
3 15 16 27
3 15 27 26
3 16 17 28
3 16 28 27
3 17 18 29
3 17 29 28
3 18 19 30
3 18 30 29
3 19 20 31
3 19 31 30
3 20 21 32
3 20 32 31
3 22 23 34
3 22 34 33
3 23 24 35
3 23 35 34
3 24 25 36
3 24 36 35
3 25 26 37
3 25 37 36
3 26 27 38
3 26 38 37
3 27 28 39
3 27 39 38
3 28 29 40
3 28 40 39
3 29 30 41
3 29 41 40
3 30 31 42
3 30 42 41
3 31 32 43
3 31 43 42
3 33 34 45
3 33 45 44
3 34 35 46
3 34 46 45
3 35 36 47
3 35 47 46
3 36 37 48
3 36 48 47
3 37 38 49
3 37 49 48
3 38 39 50
3 38 50 49
3 39 40 51
3 39 51 50
3 40 41 52
3 40 52 51
3 41 42 53
3 41 53 52
3 42 43 54
3 42 54 53
3 44 45 56
3 44 56 55
3 45 46 57
3 45 57 56
3 46 47 58
3 46 58 57
3 47 48 59
3 47 59 58
3 48 49 60
3 48 60 59
3 49 50 61
3 49 61 60
3 50 51 62
3 50 62 61
3 51 52 63
3 51 63 62
3 52 53 64
3 52 64 63
3 53 54 65
3 53 65 64
CELL_TYPES 100
5
5
5
5
5
5
5
5
5
5
5
5
5
5
5
5
5
5
5
5
5
5
5
5
5
5
5
5
5
5
5
5
5
5
5
5
5
5
5
5
5
5
5
5
5
5
5
5
5
5
5
5
5
5
5
5
5
5
5
5
5
5
5
5
5
5
5
5
5
5
5
5
5
5
5
5
5
5
5
5
5
5
5
5
5
5
5
5
5
5
5
5
5
5
5
5
5
5
5
5
CELL_DATA 100
VECTORS Et double
0.110644 -0.696259 0
-0.146305 -0.143911 0
-0.000274532 -0.928548 0
-0.01879 -0.863739 0
-0.108682 -0.370304 0
0.122331 -0.837994 0
-0.123172 0.507769 0
0.171275 -0.102899 0
-0.0317872 0.975299 0
0.0947086 0.722028 0
0.0886071 0.653334 0
-0.038336 0.951726 0
0.0483802 0.221742 0
-0.0578899 0.474229 0
0.0151358 0.0671269 0
-0.0151981 0.142818 0
0.00488832 0.0194146 0
-0.00372205 0.0423612 0
0.00210744 0.0023416 0
-0.00105236 0.0110886 0
0.0952123 -0.665375 0
-0.129499 -0.145627 0
0.0217722 -0.916041 0
-0.00960053 -0.835236 0
-0.068805 -0.39188 0
0.128605 -0.824958 0
-0.087245 0.462472 0
0.174094 -0.11913 0
-0.0107219 0.930921 0
0.100083 0.685565 0
0.100151 0.642145 0
-0.010873 0.915576 0
0.0616678 0.217804 0
-0.0461539 0.468478 0
0.0221514 0.065595 0
-0.00899038 0.141071 0
0.00817898 0.0186143 0
-0.000722405 0.0415221 0
0.00360876 0.00228449 0
0.000789393 0.0105203 0
0.114175 -0.701808 0
-0.141083 -0.146533 0
0.0313234 -0.965237 0
-0.0112695 -0.872394 0
-0.066336 -0.426232 0
0.137458 -0.871475 0
-0.092636 0.463746 0
0.184775 -0.145735 0
-0.0147884 0.963037 0
0.103802 0.697808 0
0.122038 0.655459 0
-0.0195626 0.95678 0
0.0709429 0.225068 0
-0.0463304 0.484832 0
0.0275678 0.069252 0
-0.00820763 0.149362 0
0.0109255 0.020175 0
-0.000301142 0.0455122 0
0.00536819 0.00226881 0
0.00100901 0.012178 0
0.104617 -0.682032 0
-0.128553 -0.148243 0
0.0292147 -0.9588 0
-0.0238559 -0.854407 0
-0.0625696 -0.444714 0
0.111299 -0.862328 0
-0.0915597 0.434623 0
0.159126 -0.155862 0
-0.0210768 0.940574 0
0.0835466 0.680024 0
0.108344 0.658758 0
-0.0210448 0.942126 0
0.0698256 0.230133 0
-0.0486709 0.490429 0
0.0279512 0.0719522 0
-0.0108753 0.155047 0
0.0112166 0.0213193 0
-0.00178446 0.0484788 0
0.00554714 0.00224548 0
9.52425e-06 0.0134144 0
0.119899 -0.710061 0
-0.134707 -0.149675 0
0.017585 -0.999845 0
-0.0426881 -0.885307 0
-0.0919312 -0.480607 0
0.0862218 -0.904181 0
-0.124816 0.43081 0
0.146349 -0.188173 0
-0.0497486 0.987854 0
0.0877359 0.683372 0
0.104689 0.693365 0
-0.0424746 0.994896 0
0.0671048 0.242706 0
-0.0702729 0.524462 0
0.0249262 0.0766669 0
-0.0214776 0.16781 0
0.00959195 0.0227634 0
-0.00673977 0.0534593 0
0.00450446 0.00222389 0
-0.0024749 0.0149525 0
