# vtk DataFile Version 3.0
tp3485 cell-vector
ASCII
DATASET UNSTRUCTURED_GRID
POINTS 66 double
0 0 0
0.1 0 0
0.2 0 0
0.3 0 0
0.4 0 0
0.5 0 0
0.6 0 0
0.7 0 0
0.8 0 0
0.9 0 0
1 0 0
0 0.09 0
0.1 0.09 0
0.2 0.09 0
0.3 0.09 0
0.4 0.09 0
0.5 0.09 0
0.6 0.09 0
0.7 0.09 0
0.8 0.09 0
0.9 0.09 0
1 0.09 0
0 0.18 0
0.1 0.18 0
0.2 0.18 0
0.3 0.18 0
0.4 0.18 0
0.5 0.18 0
0.6 0.18 0
0.7 0.18 0
0.8 0.18 0
0.9 0.18 0
1 0.18 0
0 0.27 0
0.1 0.27 0
0.2 0.27 0
0.3 0.27 0
0.4 0.27 0
0.5 0.27 0
0.6 0.27 0
0.7 0.27 0
0.8 0.27 0
0.9 0.27 0
1 0.27 0
0 0.36 0
0.1 0.36 0
0.2 0.36 0
0.3 0.36 0
0.4 0.36 0
0.5 0.36 0
0.6 0.36 0
0.7 0.36 0
0.8 0.36 0
0.9 0.36 0
1 0.36 0
0 0.45 0
0.1 0.45 0
0.2 0.45 0
0.3 0.45 0
0.4 0.45 0
0.5 0.45 0
0.6 0.45 0
0.7 0.45 0
0.8 0.45 0
0.9 0.45 0
1 0.45 0
CELLS 100 400
3 0 1 12
3 0 12 11
3 1 2 13
3 1 13 12
3 2 3 14
3 2 14 13
3 3 4 15
3 3 15 14
3 4 5 16
3 4 16 15
3 5 6 17
3 5 17 16
3 6 7 18
3 6 18 17
3 7 8 19
3 7 19 18
3 8 9 20
3 8 20 19
3 9 10 21
3 9 21 20
3 11 12 23
3 11 23 22
3 12 13 24
3 12 24 23
3 13 14 25
3 13 25 24
3 14 15 26
3 14 26 25
3 15 16 27
3 15 27 26
3 16 17 28
3 16 28 27
3 17 18 29
3 17 29 28
3 18 19 30
3 18 30 29
3 19 20 31
3 19 31 30
3 20 21 32
3 20 32 31
3 22 23 34
3 22 34 33
3 23 24 35
3 23 35 34
3 24 25 36
3 24 36 35
3 25 26 37
3 25 37 36
3 26 27 38
3 26 38 37
3 27 28 39
3 27 39 38
3 28 29 40
3 28 40 39
3 29 30 41
3 29 41 40
3 30 31 42
3 30 42 41
3 31 32 43
3 31 43 42
3 33 34 45
3 33 45 44
3 34 35 46
3 34 46 45
3 35 36 47
3 35 47 46
3 36 37 48
3 36 48 47
3 37 38 49
3 37 49 48
3 38 39 50
3 38 50 49
3 39 40 51
3 39 51 50
3 40 41 52
3 40 52 51
3 41 42 53
3 41 53 52
3 42 43 54
3 42 54 53
3 44 45 56
3 44 56 55
3 45 46 57
3 45 57 56
3 46 47 58
3 46 58 57
3 47 48 59
3 47 59 58
3 48 49 60
3 48 60 59
3 49 50 61
3 49 61 60
3 50 51 62
3 50 62 61
3 51 52 63
3 51 63 62
3 52 53 64
3 52 64 63
3 53 54 65
3 53 65 64
CELL_TYPES 100
5
5
5
5
5
5
5
5
5
5
5
5
5
5
5
5
5
5
5
5
5
5
5
5
5
5
5
5
5
5
5
5
5
5
5
5
5
5
5
5
5
5
5
5
5
5
5
5
5
5
5
5
5
5
5
5
5
5
5
5
5
5
5
5
5
5
5
5
5
5
5
5
5
5
5
5
5
5
5
5
5
5
5
5
5
5
5
5
5
5
5
5
5
5
5
5
5
5
5
5
CELL_DATA 100
VECTORS Et double
-0.00621932 0.0159802 0
-0.0107084 0.0070289 0
-0.00293489 0.0327263 0
-0.00505055 0.0273533 0
0.00149218 0.0371832 0
0.00407562 0.035979 0
0.000953186 0.416465 0
0.347197 0.034167 0
0.000571997 0.758292 0
0.311422 0.414472 0
0.000186646 0.965539 0
0.188412 0.757132 0
-0.000154097 0.985186 0
0.0177037 0.965252 0
-0.000395438 0.811137 0
-0.15817 0.98568 0
-0.000502869 0.471884 0
-0.307863 0.812207 0
-0.000622512 -0.00069168 0
-0.428407 0.473187 0
-0.0214334 0.0105899 0
-0.0236005 0.00405498 0
-0.0111187 0.0219259 0
-0.0119566 0.0180274 0
0.00528693 0.0242581 0
0.00688304 0.0240139 0
0.349312 0.253619 0
0.559889 0.0217778 0
0.312793 0.450155 0
0.49275 0.25171 0
0.189132 0.557248 0
0.287352 0.448978 0
0.0177938 0.55427 0
0.0158061 0.556736 0
-0.158597 0.44192 0
-0.259973 0.554328 0
-0.30868 0.243301 0
-0.488453 0.442422 0
-0.429397 -0.000355749 0
-0.650101 0.244047 0
-0.0282805 0.00211187 0
-0.0269141 -0.000275682 0
-0.0145953 0.00445517 0
-0.0133497 0.00297292 0
0.00775003 0.00507795 0
0.00943476 0.00440747 0
0.561346 0.0194122 0
0.57654 0.00365593 0
0.493841 0.0168581 0
0.493229 0.0183842 0
0.288007 0.0033298 0
0.276776 0.0162563 0
0.0160558 -0.0103791 0
0.00400327 0.00312192 0
-0.260039 -0.020887 0
-0.269672 -0.0102988 0
-0.488776 -0.0211727 0
-0.489504 -0.0206332 0
-0.650493 3.34809e-05 0
-0.631865 -0.020897 0
-0.0241188 -0.00666292 0
-0.0198836 -0.00426927 0
-0.0116719 -0.0145164 0
-0.00958692 -0.012373 0
0.00971108 -0.0174524 0
0.00918778 -0.0165452 0
0.576939 -0.229624 0
0.385555 -0.0172558 0
0.493691 -0.433793 0
0.309706 -0.22941 0
0.277057 -0.556711 0
0.166303 -0.433701 0
0.00411513 -0.568181 0
-0.00634042 -0.556611 0
-0.269668 -0.465615 0
-0.177425 -0.568109 0
-0.489584 -0.26827 0
-0.311898 -0.465635 0
-0.631868 0.000263052 0
-0.389882 -0.268394 0
-0.0110683 -0.012531 0
-0.00579108 -0.00643454 0
-0.00444695 -0.0288328 0
-0.00386583 -0.0223519 0
0.00852564 -0.0409036 0
-0.000285314 -0.031981 0
0.384639 -0.463705 0
0.000734182 -0.0389035 0
0.309205 -0.804052 0
0.000516282 -0.462187 0
0.165929 -0.986138 0
0.000410851 -0.803046 0
-0.00660442 -0.97715 0
0.000329348 -0.98541 0
-0.177558 -0.778895 0
0.000227834 -0.976707 0
-0.311872 -0.432168 0
9.54494e-05 -0.77877 0
-0.389654 0.00029942 0
-1.42608e-05 -0.432318 0
