# vtk DataFile Version 3.0
tp3485 cell-vector
ASCII
DATASET UNSTRUCTURED_GRID
POINTS 66 double
0 0 0
0.1 0 0
0.2 0 0
0.3 0 0
0.4 0 0
0.5 0 0
0.6 0 0
0.7 0 0
0.8 0 0
0.9 0 0
1 0 0
0 0.09 0
0.1 0.09 0
0.2 0.09 0
0.3 0.09 0
0.4 0.09 0
0.5 0.09 0
0.6 0.09 0
0.7 0.09 0
0.8 0.09 0
0.9 0.09 0
1 0.09 0
0 0.18 0
0.1 0.18 0
0.2 0.18 0
0.3 0.18 0
0.4 0.18 0
0.5 0.18 0
0.6 0.18 0
0.7 0.18 0
0.8 0.18 0
0.9 0.18 0
1 0.18 0
0 0.27 0
0.1 0.27 0
0.2 0.27 0
0.3 0.27 0
0.4 0.27 0
0.5 0.27 0
0.6 0.27 0
0.7 0.27 0
0.8 0.27 0
0.9 0.27 0
1 0.27 0
0 0.36 0
0.1 0.36 0
0.2 0.36 0
0.3 0.36 0
0.4 0.36 0
0.5 0.36 0
0.6 0.36 0
0.7 0.36 0
0.8 0.36 0
0.9 0.36 0
1 0.36 0
0 0.45 0
0.1 0.45 0
0.2 0.45 0
0.3 0.45 0
0.4 0.45 0
0.5 0.45 0
0.6 0.45 0
0.7 0.45 0
0.8 0.45 0
0.9 0.45 0
1 0.45 0
CELLS 100 400
3 0 1 12
3 0 12 11
3 1 2 13
3 1 13 12
3 2 3 14
3 2 14 13
3 3 4 15
3 3 15 14
3 4 5 16
3 4 16 15
3 5 6 17
3 5 17 16
3 6 7 18
3 6 18 17
3 7 8 19
3 7 19 18
3 8 9 20
3 8 20 19
3 9 10 21
3 9 21 20
3 11 12 23
3 11 23 22
3 12 13 24
3 12 24 23
3 13 14 25
3 13 25 24
3 14 15 26
3 14 26 25
3 15 16 27
3 15 27 26
3 16 17 28
3 16 28 27
3 17 18 29
3 17 29 28
3 18 19 30
3 18 30 29
3 19 20 31
3 19 31 30
3 20 21 32
3 20 32 31
3 22 23 34
3 22 34 33
3 23 24 35
3 23 35 34
3 24 25 36
3 24 36 35
3 25 26 37
3 25 37 36
3 26 27 38
3 26 38 37
3 27 28 39
3 27 39 38
3 28 29 40
3 28 40 39
3 29 30 41
3 29 41 40
3 30 31 42
3 30 42 41
3 31 32 43
3 31 43 42
3 33 34 45
3 33 45 44
3 34 35 46
3 34 46 45
3 35 36 47
3 35 47 46
3 36 37 48
3 36 48 47
3 37 38 49
3 37 49 48
3 38 39 50
3 38 50 49
3 39 40 51
3 39 51 50
3 40 41 52
3 40 52 51
3 41 42 53
3 41 53 52
3 42 43 54
3 42 54 53
3 44 45 56
3 44 56 55
3 45 46 57
3 45 57 56
3 46 47 58
3 46 58 57
3 47 48 59
3 47 59 58
3 48 49 60
3 48 60 59
3 49 50 61
3 49 61 60
3 50 51 62
3 50 62 61
3 51 52 63
3 51 63 62
3 52 53 64
3 52 64 63
3 53 54 65
3 53 65 64
CELL_TYPES 100
5
5
5
5
5
5
5
5
5
5
5
5
5
5
5
5
5
5
5
5
5
5
5
5
5
5
5
5
5
5
5
5
5
5
5
5
5
5
5
5
5
5
5
5
5
5
5
5
5
5
5
5
5
5
5
5
5
5
5
5
5
5
5
5
5
5
5
5
5
5
5
5
5
5
5
5
5
5
5
5
5
5
5
5
5
5
5
5
5
5
5
5
5
5
5
5
5
5
5
5
CELL_DATA 100
VECTORS Et double
0.00273186 0.0005303 0
0.0111733 -0.00290685 0
0.00231418 -0.00193476 0
0.00985042 -0.00512107 0
0.000801863 0.34352 0
0.316864 -0.00563757 0
0.000445197 0.669684 0
0.296434 0.341966 0
0.000199403 0.902879 0
0.211385 0.668819 0
3.07877e-05 0.998705 0
0.0867565 0.902517 0
-7.90767e-05 0.94248 0
-0.0507986 0.998709 0
-0.000122716 0.740401 0
-0.18247 0.94272 0
-0.000116141 0.418949 0
-0.290063 0.740761 0
-0.000161743 -0.000179715 0
-0.378063 0.419305 0
0.0156849 0.000845672 0
0.0212523 -0.00161716 0
0.0138713 -0.000885906 0
0.018611 -0.00278048 0
0.318487 0.211379 0
0.513111 -0.00346713 0
0.297347 0.402382 0
0.471054 0.210217 0
0.211878 0.529328 0
0.32716 0.401723 0
0.0869589 0.574097 0
0.1278 0.528977 0
-0.0507935 0.530173 0
-0.0900667 0.573933 0
-0.182566 0.404877 0
-0.29522 0.530112 0
-0.290222 0.217818 0
-0.458554 0.404865 0
-0.378242 2.76122e-05 0
-0.574267 0.217816 0
0.0230384 0.00143694 0
0.0240909 0.000317492 0
0.0203927 0.00312505 0
0.0223378 0.00124649 0
0.513821 0.019948 0
0.529496 0.00262751 0
0.471475 0.0214187 0
0.472912 0.0198446 0
0.3274 0.0128974 0
0.319683 0.0214358 0
0.127953 0.0025169 0
0.118554 0.0129475 0
-0.0899325 -0.00841125 0
-0.0997012 0.00251687 0
-0.295061 -0.0164475 0
-0.302028 -0.00851413 0
-0.458379 -0.0164899 0
-0.457957 -0.0166692 0
-0.574052 0.000283905 0
-0.558289 -0.0168323 0
0.0223758 0.000880472 0
0.0177639 0.0022083 0
0.0210746 0.00446102 0
0.0183068 0.00438923 0
0.528928 -0.186485 0
0.354006 0.0064458 0
0.472569 -0.378383 0
0.297981 -0.185318 0
0.319455 -0.514445 0
0.195777 -0.37762 0
0.11847 -0.569701 0
0.0680823 -0.513994 0
-0.0996153 -0.536759 0
-0.0700589 -0.569562 0
-0.301771 -0.419561 0
-0.195845 -0.536928 0
-0.457575 -0.235092 0
-0.290647 -0.42001 0
-0.557779 0.00045222 0
-0.344548 -0.235737 0
0.0130532 -0.0015661 0
0.00297346 0.00330385 0
0.0141828 -0.00261005 0
0.00270821 0.00446888 0
0.352138 -0.385717 0
0.00125367 0.00144447 0
0.296758 -0.710438 0
0.000849604 -0.383456 0
0.194962 -0.923691 0
0.000583044 -0.70893 0
0.0676349 -0.99675 0
0.000365882 -0.922717 0
-0.0701491 -0.917912 0
0.000163536 -0.996265 0
-0.195609 -0.700814 0
-3.22143e-05 -0.917901 0
-0.290142 -0.379656 0
-0.000202268 -0.701223 0
-0.343844 0.000499284 0
-0.000309029 -0.380363 0
