# vtk DataFile Version 3.0
tp3485 cell-vector
ASCII
DATASET UNSTRUCTURED_GRID
POINTS 66 double
0 0 0
0.1 0 0
0.2 0 0
0.3 0 0
0.4 0 0
0.5 0 0
0.6 0 0
0.7 0 0
0.8 0 0
0.9 0 0
1 0 0
0 0.09 0
0.1 0.09 0
0.2 0.09 0
0.3 0.09 0
0.4 0.09 0
0.5 0.09 0
0.6 0.09 0
0.7 0.09 0
0.8 0.09 0
0.9 0.09 0
1 0.09 0
0 0.18 0
0.1 0.18 0
0.2 0.18 0
0.3 0.18 0
0.4 0.18 0
0.5 0.18 0
0.6 0.18 0
0.7 0.18 0
0.8 0.18 0
0.9 0.18 0
1 0.18 0
0 0.27 0
0.1 0.27 0
0.2 0.27 0
0.3 0.27 0
0.4 0.27 0
0.5 0.27 0
0.6 0.27 0
0.7 0.27 0
0.8 0.27 0
0.9 0.27 0
1 0.27 0
0 0.36 0
0.1 0.36 0
0.2 0.36 0
0.3 0.36 0
0.4 0.36 0
0.5 0.36 0
0.6 0.36 0
0.7 0.36 0
0.8 0.36 0
0.9 0.36 0
1 0.36 0
0 0.45 0
0.1 0.45 0
0.2 0.45 0
0.3 0.45 0
0.4 0.45 0
0.5 0.45 0
0.6 0.45 0
0.7 0.45 0
0.8 0.45 0
0.9 0.45 0
1 0.45 0
CELLS 100 400
3 0 1 12
3 0 12 11
3 1 2 13
3 1 13 12
3 2 3 14
3 2 14 13
3 3 4 15
3 3 15 14
3 4 5 16
3 4 16 15
3 5 6 17
3 5 17 16
3 6 7 18
3 6 18 17
3 7 8 19
3 7 19 18
3 8 9 20
3 8 20 19
3 9 10 21
3 9 21 20
3 11 12 23
3 11 23 22
3 12 13 24
3 12 24 23
3 13 14 25
3 13 25 24
3 14 15 26
3 14 26 25
3 15 16 27
3 15 27 26
3 16 17 28
3 16 28 27
3 17 18 29
3 17 29 28
3 18 19 30
3 18 30 29
3 19 20 31
3 19 31 30
3 20 21 32
3 20 32 31
3 22 23 34
3 22 34 33
3 23 24 35
3 23 35 34
3 24 25 36
3 24 36 35
3 25 26 37
3 25 37 36
3 26 27 38
3 26 38 37
3 27 28 39
3 27 39 38
3 28 29 40
3 28 40 39
3 29 30 41
3 29 41 40
3 30 31 42
3 30 42 41
3 31 32 43
3 31 43 42
3 33 34 45
3 33 45 44
3 34 35 46
3 34 46 45
3 35 36 47
3 35 47 46
3 36 37 48
3 36 48 47
3 37 38 49
3 37 49 48
3 38 39 50
3 38 50 49
3 39 40 51
3 39 51 50
3 40 41 52
3 40 52 51
3 41 42 53
3 41 53 52
3 42 43 54
3 42 54 53
3 44 45 56
3 44 56 55
3 45 46 57
3 45 57 56
3 46 47 58
3 46 58 57
3 47 48 59
3 47 59 58
3 48 49 60
3 48 60 59
3 49 50 61
3 49 61 60
3 50 51 62
3 50 62 61
3 51 52 63
3 51 63 62
3 52 53 64
3 52 64 63
3 53 54 65
3 53 65 64
CELL_TYPES 100
5
5
5
5
5
5
5
5
5
5
5
5
5
5
5
5
5
5
5
5
5
5
5
5
5
5
5
5
5
5
5
5
5
5
5
5
5
5
5
5
5
5
5
5
5
5
5
5
5
5
5
5
5
5
5
5
5
5
5
5
5
5
5
5
5
5
5
5
5
5
5
5
5
5
5
5
5
5
5
5
5
5
5
5
5
5
5
5
5
5
5
5
5
5
5
5
5
5
5
5
CELL_DATA 100
VECTORS Et double
-0.0159834 0.537666 0
0.428072 0.0132557 0
-0.00520396 0.062011 0
-0.470668 0.564418 0
0.00702501 -0.5801 0
-0.567657 0.0670168 0
0.00734216 -0.231418 0
0.349705 -0.595785 0
0.00301153 0.380651 0
0.58115 -0.248977 0
0.00554033 -0.0328011 0
-0.343528 0.369257 0
-0.000122444 -0.0150486 0
0.0206718 -0.0386232 0
0.000348703 -0.00811685 0
0.00773733 -0.0154258 0
0.000215584 -0.00398657 0
0.00506311 -0.00881874 0
0.000105922 0.000117691 0
0.00435561 -0.0043563 0
0.409543 -0.0753494 0
0.327054 0.00448616 0
-0.478499 0.290519 0
-0.167785 -0.0612227 0
-0.558936 0.720943 0
-0.158799 0.287744 0
0.36479 0.599096 0
0.28963 0.701759 0
0.593944 0.13195 0
0.196706 0.584177 0
-0.332884 -0.0111163 0
-0.454625 0.127534 0
0.0221024 -0.00596628 0
0.0386521 -0.0186636 0
0.00889069 -0.00559234 0
0.0140971 -0.00924928 0
0.0055496 -0.00304167 0
0.0093288 -0.00668766 0
0.00452514 5.81773e-05 0
0.00764493 -0.00330893 0
0.317933 -0.948113 0
-0.551857 0.00633634 0
-0.181104 -0.470712 0
0.221597 -0.934313 0
-0.159105 -0.0775897 0
0.185446 -0.462978 0
0.305082 -0.620856 0
-0.16469 -0.0833773 0
0.2117 -0.863536 0
0.0225518 -0.635251 0
-0.44939 0.121406 0
0.458173 -0.877471 0
0.0468537 0.0125 0
-0.0236411 0.105682 0
0.0160738 -0.00197097 0
0.0107575 0.00596379 0
0.00965984 -0.00160972 0
0.0106977 -0.00276485 0
0.00759999 -9.1102e-05 0
0.00860673 -0.00147567 0
-0.548853 0.220533 0
-0.328185 -0.00749015 0
0.216142 0.686067 0
0.65886 0.203554 0
0.182732 0.631803 0
0.132403 0.684207 0
-0.15841 0.117379 0
-0.638778 0.642289 0
0.0266004 -0.17015 0
-0.252243 0.127845 0
0.452325 -0.0664519 0
0.517739 -0.158047 0
-0.0166589 -0.00712725 0
0.0136301 -0.0495875 0
0.0110689 -0.000833973 0
0.0104532 -0.00318545 0
0.0102206 8.18408e-05 0
0.00820715 0.000921428 0
0.0081495 -0.000333176 0
0.00617423 0.00104883 0
-0.317781 0.329716 0
-0.00579111 -0.00643457 0
0.670525 -0.464442 0
-0.0118207 0.312511 0
0.132722 -0.62503 0
-0.0020635 -0.472391 0
-0.648674 0.118766 0
0.00595062 -0.619003 0
-0.266862 0.445194 0
0.00561268 0.128798 0
0.500669 -0.0727586 0
0.00632199 0.459629 0
3.65303e-05 -0.0166576 0
0.0114689 -0.0501529 0
0.00605799 0.000468774 0
0.00393442 -0.00423641 0
0.0064622 0.00162595 0
0.00138469 0.00470045 0
0.00524644 -0.000551303 0
0.000621659 0.00334531 0
