# vtk DataFile Version 3.0
tp3485 cell-vector
ASCII
DATASET UNSTRUCTURED_GRID
POINTS 66 double
0 0 0
0.1 0 0
0.2 0 0
0.3 0 0
0.4 0 0
0.5 0 0
0.6 0 0
0.7 0 0
0.8 0 0
0.9 0 0
1 0 0
0 0.09 0
0.1 0.09 0
0.2 0.09 0
0.3 0.09 0
0.4 0.09 0
0.5 0.09 0
0.6 0.09 0
0.7 0.09 0
0.8 0.09 0
0.9 0.09 0
1 0.09 0
0 0.18 0
0.1 0.18 0
0.2 0.18 0
0.3 0.18 0
0.4 0.18 0
0.5 0.18 0
0.6 0.18 0
0.7 0.18 0
0.8 0.18 0
0.9 0.18 0
1 0.18 0
0 0.27 0
0.1 0.27 0
0.2 0.27 0
0.3 0.27 0
0.4 0.27 0
0.5 0.27 0
0.6 0.27 0
0.7 0.27 0
0.8 0.27 0
0.9 0.27 0
1 0.27 0
0 0.36 0
0.1 0.36 0
0.2 0.36 0
0.3 0.36 0
0.4 0.36 0
0.5 0.36 0
0.6 0.36 0
0.7 0.36 0
0.8 0.36 0
0.9 0.36 0
1 0.36 0
0 0.45 0
0.1 0.45 0
0.2 0.45 0
0.3 0.45 0
0.4 0.45 0
0.5 0.45 0
0.6 0.45 0
0.7 0.45 0
0.8 0.45 0
0.9 0.45 0
1 0.45 0
CELLS 100 400
3 0 1 12
3 0 12 11
3 1 2 13
3 1 13 12
3 2 3 14
3 2 14 13
3 3 4 15
3 3 15 14
3 4 5 16
3 4 16 15
3 5 6 17
3 5 17 16
3 6 7 18
3 6 18 17
3 7 8 19
3 7 19 18
3 8 9 20
3 8 20 19
3 9 10 21
3 9 21 20
3 11 12 23
3 11 23 22
3 12 13 24
3 12 24 23
3 13 14 25
3 13 25 24
3 14 15 26
3 14 26 25
3 15 16 27
3 15 27 26
3 16 17 28
3 16 28 27
3 17 18 29
3 17 29 28
3 18 19 30
3 18 30 29
3 19 20 31
3 19 31 30
3 20 21 32
3 20 32 31
3 22 23 34
3 22 34 33
3 23 24 35
3 23 35 34
3 24 25 36
3 24 36 35
3 25 26 37
3 25 37 36
3 26 27 38
3 26 38 37
3 27 28 39
3 27 39 38
3 28 29 40
3 28 40 39
3 29 30 41
3 29 41 40
3 30 31 42
3 30 42 41
3 31 32 43
3 31 43 42
3 33 34 45
3 33 45 44
3 34 35 46
3 34 46 45
3 35 36 47
3 35 47 46
3 36 37 48
3 36 48 47
3 37 38 49
3 37 49 48
3 38 39 50
3 38 50 49
3 39 40 51
3 39 51 50
3 40 41 52
3 40 52 51
3 41 42 53
3 41 53 52
3 42 43 54
3 42 54 53
3 44 45 56
3 44 56 55
3 45 46 57
3 45 57 56
3 46 47 58
3 46 58 57
3 47 48 59
3 47 59 58
3 48 49 60
3 48 60 59
3 49 50 61
3 49 61 60
3 50 51 62
3 50 62 61
3 51 52 63
3 51 63 62
3 52 53 64
3 52 64 63
3 53 54 65
3 53 65 64
CELL_TYPES 100
5
5
5
5
5
5
5
5
5
5
5
5
5
5
5
5
5
5
5
5
5
5
5
5
5
5
5
5
5
5
5
5
5
5
5
5
5
5
5
5
5
5
5
5
5
5
5
5
5
5
5
5
5
5
5
5
5
5
5
5
5
5
5
5
5
5
5
5
5
5
5
5
5
5
5
5
5
5
5
5
5
5
5
5
5
5
5
5
5
5
5
5
5
5
5
5
5
5
5
5
CELL_DATA 100
VECTORS Et double
-0.0212463 0.413249 0
0.285059 0.0246512 0
0.0183366 -0.224333 0
-0.537033 0.424988 0
0.00290848 0.299799 0
0.493644 -0.243469 0
0.0203891 0.0277726 0
-0.159457 0.273412 0
0.00661197 -0.00917881 0
0.0181035 -0.0047413 0
0.00228485 -0.0136065 0
0.013329 -0.0199323 0
0.000747204 -0.00983555 0
0.00913157 -0.0172333 0
0.000233424 -0.00557239 0
0.00563666 -0.0109912 0
6.71221e-05 -0.00244808 0
0.0033336 -0.00591733 0
1.7313e-05 1.92367e-05 0
0.00235515 -0.00254089 0
0.246877 0.107966 0
0.2983 0.0165274 0
-0.514118 -0.20776 0
-0.792432 0.120405 0
0.495342 0.224633 0
0.89943 -0.221291 0
-0.123166 0.037528 0
-0.246908 0.206848 0
0.0321035 -0.00323964 0
0.0286074 0.0133504 0
0.0180158 -0.00825306 0
0.0238609 -0.0109415 0
0.0106186 -0.00596486 0
0.0158292 -0.010622 0
0.00608575 -0.00337223 0
0.00936479 -0.00668556 0
0.00345411 -0.00146522 0
0.00543262 -0.00358051 0
0.00238132 1.08351e-05 0
0.00376548 -0.00151492 0
0.278705 -0.103317 0
0.176846 0.00230673 0
-0.785814 -0.00711746 0
-0.705714 -0.0960843 0
0.900655 0.0761883 0
0.982485 -0.0112248 0
-0.232447 -0.00190833 0
-0.304691 0.0772681 0
0.0356405 -0.000962784 0
0.0360478 -0.00196261 0
0.0258882 -0.000893465 0
0.0259148 -0.00122214 0
0.0163928 -0.000472538 0
0.0166393 -0.000914459 0
0.00951737 -0.000224841 0
0.00964162 -0.00044014 0
0.00546465 -9.92219e-05 0
0.00552164 -0.00019978 0
0.00376364 -3.41372e-06 0
0.00381042 -7.94489e-05 0
0.182864 -0.170338 0
0.0608618 -0.012893 0
-0.713984 0.221472 0
-0.36864 -0.174389 0
0.98618 -0.165678 0
0.644497 0.222331 0
-0.321715 -0.0399243 0
-0.256991 -0.147974 0
0.0305499 0.000839399 0
0.0321571 -0.0146071 0
0.0240845 0.0066573 0
0.0185115 0.0084787 0
0.0159928 0.00520245 0
0.0111993 0.00909053 0
0.00941698 0.00302462 0
0.00631332 0.00600432 0
0.00544197 0.00132344 0
0.00354368 0.00328309 0
0.00377362 -2.02562e-05 0
0.00243266 0.00141164 0
0.0883723 -0.180396 0
-0.019359 -0.02151 0
-0.383939 0.258156 0
0.00527078 -0.192213 0
0.653524 -0.48787 0
-0.00847807 0.260793 0
-0.299631 -0.0441793 0
0.0260395 -0.462623 0
0.0172946 0.00564587 0
0.0101331 -0.00526506 0
0.0135957 0.0125629 0
0.00355068 0.0172002 0
0.00957109 0.00932258 0
0.00118563 0.016459 0
0.00578203 0.00532027 0
0.000383379 0.010612 0
0.00337523 0.00233591 0
0.000119129 0.00573344 0
0.00236854 -3.34367e-05 0
4.22795e-05 0.00247089 0
