# vtk DataFile Version 3.0
tp3485 cell-vector
ASCII
DATASET UNSTRUCTURED_GRID
POINTS 66 double
0 0 0
0.1 0 0
0.2 0 0
0.3 0 0
0.4 0 0
0.5 0 0
0.6 0 0
0.7 0 0
0.8 0 0
0.9 0 0
1 0 0
0 0.09 0
0.1 0.09 0
0.2 0.09 0
0.3 0.09 0
0.4 0.09 0
0.5 0.09 0
0.6 0.09 0
0.7 0.09 0
0.8 0.09 0
0.9 0.09 0
1 0.09 0
0 0.18 0
0.1 0.18 0
0.2 0.18 0
0.3 0.18 0
0.4 0.18 0
0.5 0.18 0
0.6 0.18 0
0.7 0.18 0
0.8 0.18 0
0.9 0.18 0
1 0.18 0
0 0.27 0
0.1 0.27 0
0.2 0.27 0
0.3 0.27 0
0.4 0.27 0
0.5 0.27 0
0.6 0.27 0
0.7 0.27 0
0.8 0.27 0
0.9 0.27 0
1 0.27 0
0 0.36 0
0.1 0.36 0
0.2 0.36 0
0.3 0.36 0
0.4 0.36 0
0.5 0.36 0
0.6 0.36 0
0.7 0.36 0
0.8 0.36 0
0.9 0.36 0
1 0.36 0
0 0.45 0
0.1 0.45 0
0.2 0.45 0
0.3 0.45 0
0.4 0.45 0
0.5 0.45 0
0.6 0.45 0
0.7 0.45 0
0.8 0.45 0
0.9 0.45 0
1 0.45 0
CELLS 100 400
3 0 1 12
3 0 12 11
3 1 2 13
3 1 13 12
3 2 3 14
3 2 14 13
3 3 4 15
3 3 15 14
3 4 5 16
3 4 16 15
3 5 6 17
3 5 17 16
3 6 7 18
3 6 18 17
3 7 8 19
3 7 19 18
3 8 9 20
3 8 20 19
3 9 10 21
3 9 21 20
3 11 12 23
3 11 23 22
3 12 13 24
3 12 24 23
3 13 14 25
3 13 25 24
3 14 15 26
3 14 26 25
3 15 16 27
3 15 27 26
3 16 17 28
3 16 28 27
3 17 18 29
3 17 29 28
3 18 19 30
3 18 30 29
3 19 20 31
3 19 31 30
3 20 21 32
3 20 32 31
3 22 23 34
3 22 34 33
3 23 24 35
3 23 35 34
3 24 25 36
3 24 36 35
3 25 26 37
3 25 37 36
3 26 27 38
3 26 38 37
3 27 28 39
3 27 39 38
3 28 29 40
3 28 40 39
3 29 30 41
3 29 41 40
3 30 31 42
3 30 42 41
3 31 32 43
3 31 43 42
3 33 34 45
3 33 45 44
3 34 35 46
3 34 46 45
3 35 36 47
3 35 47 46
3 36 37 48
3 36 48 47
3 37 38 49
3 37 49 48
3 38 39 50
3 38 50 49
3 39 40 51
3 39 51 50
3 40 41 52
3 40 52 51
3 41 42 53
3 41 53 52
3 42 43 54
3 42 54 53
3 44 45 56
3 44 56 55
3 45 46 57
3 45 57 56
3 46 47 58
3 46 58 57
3 47 48 59
3 47 59 58
3 48 49 60
3 48 60 59
3 49 50 61
3 49 61 60
3 50 51 62
3 50 62 61
3 51 52 63
3 51 63 62
3 52 53 64
3 52 64 63
3 53 54 65
3 53 65 64
CELL_TYPES 100
5
5
5
5
5
5
5
5
5
5
5
5
5
5
5
5
5
5
5
5
5
5
5
5
5
5
5
5
5
5
5
5
5
5
5
5
5
5
5
5
5
5
5
5
5
5
5
5
5
5
5
5
5
5
5
5
5
5
5
5
5
5
5
5
5
5
5
5
5
5
5
5
5
5
5
5
5
5
5
5
5
5
5
5
5
5
5
5
5
5
5
5
5
5
5
5
5
5
5
5
CELL_DATA 100
VECTORS Et double
0.13545 -0.0889149 0
0.45421 -0.146297 0
0.114463 -0.266106 0
0.437472 -0.368619 0
0.08358 -0.295115 0
0.431476 -0.491043 0
0.054351 -0.192584 0
0.40027 -0.452265 0
0.0355801 -0.0291 0
0.344821 -0.293071 0
0.0293279 0.10055 0
0.265316 -0.098853 0
0.0300602 0.132546 0
0.17411 0.0369277 0
0.0278701 0.0914513 0
0.106811 0.0669259 0
0.0125848 0.0240126 0
0.0277017 0.0408418 0
0.00556994 0.00618882 0
0.0211033 0.00257389 0
0.68717 -0.108067 0
0.862794 -0.0953291 0
0.635836 -0.257419 0
0.829078 -0.300773 0
0.573581 -0.268107 0
0.794496 -0.401023 0
0.486967 -0.152168 0
0.71789 -0.352474 0
0.395888 0.0205858 0
0.607526 -0.191069 0
0.307003 0.154224 0
0.465993 -0.00119606 0
0.223737 0.180814 0
0.31131 0.122871 0
0.162148 0.119272 0
0.20243 0.130243 0
0.0576726 0.0349817 0
0.0554448 0.070561 0
0.0333407 0.00614145 0
0.038481 0.0139475 0
0.9875 -0.157618 0
0.921855 -0.0207229 0
0.923864 -0.276683 0
0.892745 -0.208899 0
0.841579 -0.255955 0
0.856811 -0.287405 0
0.72155 -0.107652 0
0.774026 -0.220992 0
0.590706 0.0942846 0
0.655256 -0.045236 0
0.457683 0.246875 0
0.501445 0.151853 0
0.331073 0.272732 0
0.332466 0.269568 0
0.249479 0.162961 0
0.211791 0.248338 0
0.0849747 0.0530779 0
0.05583 0.117988 0
0.050701 0.00620181 0
0.039395 0.0323392 0
0.912949 -0.191482 0
0.625377 0.0487119 0
0.859059 -0.275583 0
0.607981 -0.101473 0
0.785555 -0.227583 0
0.590652 -0.152933 0
0.673899 -0.0558371 0
0.538502 -0.0723115 0
0.553225 0.164169 0
0.458891 0.109207 0
0.429963 0.330623 0
0.352021 0.302554 0
0.313975 0.355918 0
0.227614 0.408837 0
0.247402 0.204569 0
0.136742 0.358773 0
0.0848384 0.0715069 0
0.0305194 0.163811 0
0.0516278 0.00621887 0
0.0235765 0.0510214 0
0.508713 -0.224322 0
0.0779994 0.086666 0
0.470215 -0.283079 0
0.0867316 -0.0470383 0
0.423166 -0.215792 0
0.10046 -0.0777735 0
0.353601 -0.0211898 0
0.109098 0.0143504 0
0.286854 0.220737 0
0.102976 0.208138 0
0.228212 0.401084 0
0.0783398 0.41027 0
0.176922 0.431316 0
0.0393023 0.515047 0
0.162686 0.243008 0
-0.00407923 0.452293 0
0.0592019 0.0876423 0
-0.0171416 0.204505 0
0.0358438 0.00621488 0
-0.00671882 0.0671869 0
