# vtk DataFile Version 3.0
tp3485 cell-vector
ASCII
DATASET UNSTRUCTURED_GRID
POINTS 66 double
0 0 0
0.1 0 0
0.2 0 0
0.3 0 0
0.4 0 0
0.5 0 0
0.6 0 0
0.7 0 0
0.8 0 0
0.9 0 0
1 0 0
0 0.09 0
0.1 0.09 0
0.2 0.09 0
0.3 0.09 0
0.4 0.09 0
0.5 0.09 0
0.6 0.09 0
0.7 0.09 0
0.8 0.09 0
0.9 0.09 0
1 0.09 0
0 0.18 0
0.1 0.18 0
0.2 0.18 0
0.3 0.18 0
0.4 0.18 0
0.5 0.18 0
0.6 0.18 0
0.7 0.18 0
0.8 0.18 0
0.9 0.18 0
1 0.18 0
0 0.27 0
0.1 0.27 0
0.2 0.27 0
0.3 0.27 0
0.4 0.27 0
0.5 0.27 0
0.6 0.27 0
0.7 0.27 0
0.8 0.27 0
0.9 0.27 0
1 0.27 0
0 0.36 0
0.1 0.36 0
0.2 0.36 0
0.3 0.36 0
0.4 0.36 0
0.5 0.36 0
0.6 0.36 0
0.7 0.36 0
0.8 0.36 0
0.9 0.36 0
1 0.36 0
0 0.45 0
0.1 0.45 0
0.2 0.45 0
0.3 0.45 0
0.4 0.45 0
0.5 0.45 0
0.6 0.45 0
0.7 0.45 0
0.8 0.45 0
0.9 0.45 0
1 0.45 0
CELLS 100 400
3 0 1 12
3 0 12 11
3 1 2 13
3 1 13 12
3 2 3 14
3 2 14 13
3 3 4 15
3 3 15 14
3 4 5 16
3 4 16 15
3 5 6 17
3 5 17 16
3 6 7 18
3 6 18 17
3 7 8 19
3 7 19 18
3 8 9 20
3 8 20 19
3 9 10 21
3 9 21 20
3 11 12 23
3 11 23 22
3 12 13 24
3 12 24 23
3 13 14 25
3 13 25 24
3 14 15 26
3 14 26 25
3 15 16 27
3 15 27 26
3 16 17 28
3 16 28 27
3 17 18 29
3 17 29 28
3 18 19 30
3 18 30 29
3 19 20 31
3 19 31 30
3 20 21 32
3 20 32 31
3 22 23 34
3 22 34 33
3 23 24 35
3 23 35 34
3 24 25 36
3 24 36 35
3 25 26 37
3 25 37 36
3 26 27 38
3 26 38 37
3 27 28 39
3 27 39 38
3 28 29 40
3 28 40 39
3 29 30 41
3 29 41 40
3 30 31 42
3 30 42 41
3 31 32 43
3 31 43 42
3 33 34 45
3 33 45 44
3 34 35 46
3 34 46 45
3 35 36 47
3 35 47 46
3 36 37 48
3 36 48 47
3 37 38 49
3 37 49 48
3 38 39 50
3 38 50 49
3 39 40 51
3 39 51 50
3 40 41 52
3 40 52 51
3 41 42 53
3 41 53 52
3 42 43 54
3 42 54 53
3 44 45 56
3 44 56 55
3 45 46 57
3 45 57 56
3 46 47 58
3 46 58 57
3 47 48 59
3 47 59 58
3 48 49 60
3 48 60 59
3 49 50 61
3 49 61 60
3 50 51 62
3 50 62 61
3 51 52 63
3 51 63 62
3 52 53 64
3 52 64 63
3 53 54 65
3 53 65 64
CELL_TYPES 100
5
5
5
5
5
5
5
5
5
5
5
5
5
5
5
5
5
5
5
5
5
5
5
5
5
5
5
5
5
5
5
5
5
5
5
5
5
5
5
5
5
5
5
5
5
5
5
5
5
5
5
5
5
5
5
5
5
5
5
5
5
5
5
5
5
5
5
5
5
5
5
5
5
5
5
5
5
5
5
5
5
5
5
5
5
5
5
5
5
5
5
5
5
5
5
5
5
5
5
5
CELL_DATA 100
VECTORS Et double
-0.104407 -0.128558 0
-0.51968 0.108424 0
-0.104922 -0.11588 0
-0.499012 0.0964337 0
-0.105047 -0.112126 0
-0.508288 0.10995 0
-0.104859 -0.107473 0
-0.507115 0.11378 0
-0.104366 -0.105531 0
-0.507562 0.11777 0
-0.103788 -0.107382 0
-0.508163 0.118518 0
-0.103385 -0.113028 0
-0.509227 0.115487 0
-0.103317 -0.121561 0
-0.510915 0.109187 0
-0.1037 -0.114574 0
-0.498194 0.100883 0
-0.104067 -0.11563 0
-0.50735 0.10874 0
-0.688419 -0.0772745 0
-0.935856 0.0592958 0
-0.668839 -0.0727716 0
-0.915748 0.0618241 0
-0.678552 -0.0680545 0
-0.926741 0.0673609 0
-0.677144 -0.0638845 0
-0.925767 0.072253 0
-0.676696 -0.0617353 0
-0.925676 0.0757824 0
-0.676136 -0.0633855 0
-0.926309 0.0767468 0
-0.676319 -0.0678869 0
-0.92712 0.073918 0
-0.677792 -0.0742284 0
-0.929499 0.0687964 0
-0.665747 -0.0772278 0
-0.915395 0.0627421 0
-0.675851 -0.0791311 0
-0.926509 0.060771 0
-0.999995 -0.00304454 0
-0.991195 -0.0123963 0
-0.981163 0.000927623 0
-0.978848 -0.0026836 0
-0.992782 0.0048374 0
-0.992248 0.00243044 0
-0.991605 0.00997851 0
-0.990046 0.00663309 0
-0.990635 0.0123759 0
-0.990111 0.0111531 0
-0.990111 0.0111531 0
-0.990635 0.0123759 0
-0.990046 0.00663309 0
-0.991605 0.00997851 0
-0.992248 0.00243044 0
-0.992782 0.0048374 0
-0.978848 -0.0026836 0
-0.981163 0.000927623 0
-0.991195 -0.0123963 0
-0.999995 -0.00304454 0
-0.926509 0.060771 0
-0.675851 -0.0791311 0
-0.915395 0.0627421 0
-0.665747 -0.0772278 0
-0.929499 0.0687964 0
-0.677792 -0.0742284 0
-0.92712 0.073918 0
-0.676319 -0.0678869 0
-0.926309 0.0767468 0
-0.676136 -0.0633855 0
-0.925676 0.0757824 0
-0.676696 -0.0617353 0
-0.925767 0.072253 0
-0.677144 -0.0638845 0
-0.926741 0.0673609 0
-0.678552 -0.0680545 0
-0.915748 0.0618241 0
-0.668839 -0.0727716 0
-0.935856 0.0592958 0
-0.688419 -0.0772745 0
-0.50735 0.10874 0
-0.104067 -0.11563 0
-0.498194 0.100883 0
-0.1037 -0.114574 0
-0.510915 0.109187 0
-0.103317 -0.121561 0
-0.509227 0.115487 0
-0.103385 -0.113028 0
-0.508163 0.118518 0
-0.103788 -0.107382 0
-0.507562 0.11777 0
-0.104366 -0.105531 0
-0.507115 0.11378 0
-0.104859 -0.107473 0
-0.508288 0.10995 0
-0.105047 -0.112126 0
-0.499012 0.0964337 0
-0.104922 -0.11588 0
-0.51968 0.108424 0
-0.104407 -0.128558 0
