# vtk DataFile Version 3.0
tp3485 cell-vector
ASCII
DATASET UNSTRUCTURED_GRID
POINTS 66 double
0 0 0
0.1 0 0
0.2 0 0
0.3 0 0
0.4 0 0
0.5 0 0
0.6 0 0
0.7 0 0
0.8 0 0
0.9 0 0
1 0 0
0 0.09 0
0.1 0.09 0
0.2 0.09 0
0.3 0.09 0
0.4 0.09 0
0.5 0.09 0
0.6 0.09 0
0.7 0.09 0
0.8 0.09 0
0.9 0.09 0
1 0.09 0
0 0.18 0
0.1 0.18 0
0.2 0.18 0
0.3 0.18 0
0.4 0.18 0
0.5 0.18 0
0.6 0.18 0
0.7 0.18 0
0.8 0.18 0
0.9 0.18 0
1 0.18 0
0 0.27 0
0.1 0.27 0
0.2 0.27 0
0.3 0.27 0
0.4 0.27 0
0.5 0.27 0
0.6 0.27 0
0.7 0.27 0
0.8 0.27 0
0.9 0.27 0
1 0.27 0
0 0.36 0
0.1 0.36 0
0.2 0.36 0
0.3 0.36 0
0.4 0.36 0
0.5 0.36 0
0.6 0.36 0
0.7 0.36 0
0.8 0.36 0
0.9 0.36 0
1 0.36 0
0 0.45 0
0.1 0.45 0
0.2 0.45 0
0.3 0.45 0
0.4 0.45 0
0.5 0.45 0
0.6 0.45 0
0.7 0.45 0
0.8 0.45 0
0.9 0.45 0
1 0.45 0
CELLS 100 400
3 0 1 12
3 0 12 11
3 1 2 13
3 1 13 12
3 2 3 14
3 2 14 13
3 3 4 15
3 3 15 14
3 4 5 16
3 4 16 15
3 5 6 17
3 5 17 16
3 6 7 18
3 6 18 17
3 7 8 19
3 7 19 18
3 8 9 20
3 8 20 19
3 9 10 21
3 9 21 20
3 11 12 23
3 11 23 22
3 12 13 24
3 12 24 23
3 13 14 25
3 13 25 24
3 14 15 26
3 14 26 25
3 15 16 27
3 15 27 26
3 16 17 28
3 16 28 27
3 17 18 29
3 17 29 28
3 18 19 30
3 18 30 29
3 19 20 31
3 19 31 30
3 20 21 32
3 20 32 31
3 22 23 34
3 22 34 33
3 23 24 35
3 23 35 34
3 24 25 36
3 24 36 35
3 25 26 37
3 25 37 36
3 26 27 38
3 26 38 37
3 27 28 39
3 27 39 38
3 28 29 40
3 28 40 39
3 29 30 41
3 29 41 40
3 30 31 42
3 30 42 41
3 31 32 43
3 31 43 42
3 33 34 45
3 33 45 44
3 34 35 46
3 34 46 45
3 35 36 47
3 35 47 46
3 36 37 48
3 36 48 47
3 37 38 49
3 37 49 48
3 38 39 50
3 38 50 49
3 39 40 51
3 39 51 50
3 40 41 52
3 40 52 51
3 41 42 53
3 41 53 52
3 42 43 54
3 42 54 53
3 44 45 56
3 44 56 55
3 45 46 57
3 45 57 56
3 46 47 58
3 46 58 57
3 47 48 59
3 47 59 58
3 48 49 60
3 48 60 59
3 49 50 61
3 49 61 60
3 50 51 62
3 50 62 61
3 51 52 63
3 51 63 62
3 52 53 64
3 52 64 63
3 53 54 65
3 53 65 64
CELL_TYPES 100
5
5
5
5
5
5
5
5
5
5
5
5
5
5
5
5
5
5
5
5
5
5
5
5
5
5
5
5
5
5
5
5
5
5
5
5
5
5
5
5
5
5
5
5
5
5
5
5
5
5
5
5
5
5
5
5
5
5
5
5
5
5
5
5
5
5
5
5
5
5
5
5
5
5
5
5
5
5
5
5
5
5
5
5
5
5
5
5
5
5
5
5
5
5
5
5
5
5
5
5
CELL_DATA 100
VECTORS Et double
-0.000577477 -0.0959292 0
-0.0899148 0.00134644 0
0.00150391 -0.109749 0
-0.00779275 -0.0965178 0
-0.00132485 0.296145 0
0.366041 -0.112466 0
0.000315645 -0.176718 0
-0.429564 0.299446 0
0.000556229 -0.0858484 0
0.0839098 -0.177457 0
0.000427793 0.115538 0
0.185773 -0.0881959 0
-0.00159847 0.13717 0
0.0148154 0.11611 0
0.00144219 -0.332946 0
-0.42415 0.140242 0
-0.000950214 0.22677 0
0.506422 -0.33629 0
-0.000126018 -0.00014002 0
-0.206515 0.228433 0
-0.0903915 0.407972 0
0.283157 -0.00313298 0
-0.00901121 0.00758755 0
-0.376582 0.410285 0
0.368115 -0.628186 0
-0.205776 0.01045 0
-0.429914 0.546644 0
0.633602 -0.631522 0
0.0830556 0.137305 0
-0.28475 0.544922 0
0.186482 -0.447918 0
-0.347503 0.14155 0
0.0161932 -0.0763494 0
0.35657 -0.449472 0
-0.426383 0.710379 0
0.28401 -0.0795292 0
0.506944 -0.625589 0
-0.700789 0.713369 0
-0.205953 0.00123221 0
0.357191 -0.623839 0
0.286269 -0.706657 0
-0.35425 0.00267835 0
-0.377935 0.483944 0
0.700063 -0.709593 0
-0.20642 0.395737 0
-0.284613 0.482249 0
0.633491 -0.698737 0
-0.35718 0.39799 0
-0.28219 0.00256203 0
0.349848 -0.696838 0
-0.349848 0.696838 0
0.28219 -0.00256203 0
0.35718 -0.39799 0
-0.633491 0.698737 0
0.284613 -0.482249 0
0.20642 -0.395737 0
-0.700063 0.709593 0
0.377935 -0.483944 0
0.35425 -0.00267835 0
-0.286269 0.706657 0
-0.357191 0.623839 0
0.205953 -0.00123221 0
0.700789 -0.713369 0
-0.506944 0.625589 0
-0.28401 0.0795292 0
0.426383 -0.710379 0
-0.35657 0.449472 0
-0.0161932 0.0763494 0
0.347503 -0.14155 0
-0.186482 0.447918 0
0.28475 -0.544922 0
-0.0830556 -0.137305 0
-0.633602 0.631522 0
0.429914 -0.546644 0
0.205776 -0.01045 0
-0.368115 0.628186 0
0.376582 -0.410285 0
0.00901121 -0.00758755 0
-0.283157 0.00313298 0
0.0903915 -0.407972 0
0.206515 -0.228433 0
0.000126018 0.00014002 0
-0.506422 0.33629 0
0.000950214 -0.22677 0
0.42415 -0.140242 0
-0.00144219 0.332946 0
-0.0148154 -0.11611 0
0.00159847 -0.13717 0
-0.185773 0.0881959 0
-0.000427793 -0.115538 0
-0.0839098 0.177457 0
-0.000556229 0.0858484 0
0.429564 -0.299446 0
-0.000315645 0.176718 0
-0.366041 0.112466 0
0.00132485 -0.296145 0
0.00779275 0.0965178 0
-0.00150391 0.109749 0
0.0899148 -0.00134644 0
0.000577477 0.0959292 0
