# vtk DataFile Version 3.0
tp3485 cell-vector
ASCII
DATASET UNSTRUCTURED_GRID
POINTS 66 double
0 0 0
0.1 0 0
0.2 0 0
0.3 0 0
0.4 0 0
0.5 0 0
0.6 0 0
0.7 0 0
0.8 0 0
0.9 0 0
1 0 0
0 0.09 0
0.1 0.09 0
0.2 0.09 0
0.3 0.09 0
0.4 0.09 0
0.5 0.09 0
0.6 0.09 0
0.7 0.09 0
0.8 0.09 0
0.9 0.09 0
1 0.09 0
0 0.18 0
0.1 0.18 0
0.2 0.18 0
0.3 0.18 0
0.4 0.18 0
0.5 0.18 0
0.6 0.18 0
0.7 0.18 0
0.8 0.18 0
0.9 0.18 0
1 0.18 0
0 0.27 0
0.1 0.27 0
0.2 0.27 0
0.3 0.27 0
0.4 0.27 0
0.5 0.27 0
0.6 0.27 0
0.7 0.27 0
0.8 0.27 0
0.9 0.27 0
1 0.27 0
0 0.36 0
0.1 0.36 0
0.2 0.36 0
0.3 0.36 0
0.4 0.36 0
0.5 0.36 0
0.6 0.36 0
0.7 0.36 0
0.8 0.36 0
0.9 0.36 0
1 0.36 0
0 0.45 0
0.1 0.45 0
0.2 0.45 0
0.3 0.45 0
0.4 0.45 0
0.5 0.45 0
0.6 0.45 0
0.7 0.45 0
0.8 0.45 0
0.9 0.45 0
1 0.45 0
CELLS 100 400
3 0 1 12
3 0 12 11
3 1 2 13
3 1 13 12
3 2 3 14
3 2 14 13
3 3 4 15
3 3 15 14
3 4 5 16
3 4 16 15
3 5 6 17
3 5 17 16
3 6 7 18
3 6 18 17
3 7 8 19
3 7 19 18
3 8 9 20
3 8 20 19
3 9 10 21
3 9 21 20
3 11 12 23
3 11 23 22
3 12 13 24
3 12 24 23
3 13 14 25
3 13 25 24
3 14 15 26
3 14 26 25
3 15 16 27
3 15 27 26
3 16 17 28
3 16 28 27
3 17 18 29
3 17 29 28
3 18 19 30
3 18 30 29
3 19 20 31
3 19 31 30
3 20 21 32
3 20 32 31
3 22 23 34
3 22 34 33
3 23 24 35
3 23 35 34
3 24 25 36
3 24 36 35
3 25 26 37
3 25 37 36
3 26 27 38
3 26 38 37
3 27 28 39
3 27 39 38
3 28 29 40
3 28 40 39
3 29 30 41
3 29 41 40
3 30 31 42
3 30 42 41
3 31 32 43
3 31 43 42
3 33 34 45
3 33 45 44
3 34 35 46
3 34 46 45
3 35 36 47
3 35 47 46
3 36 37 48
3 36 48 47
3 37 38 49
3 37 49 48
3 38 39 50
3 38 50 49
3 39 40 51
3 39 51 50
3 40 41 52
3 40 52 51
3 41 42 53
3 41 53 52
3 42 43 54
3 42 54 53
3 44 45 56
3 44 56 55
3 45 46 57
3 45 57 56
3 46 47 58
3 46 58 57
3 47 48 59
3 47 59 58
3 48 49 60
3 48 60 59
3 49 50 61
3 49 61 60
3 50 51 62
3 50 62 61
3 51 52 63
3 51 63 62
3 52 53 64
3 52 64 63
3 53 54 65
3 53 65 64
CELL_TYPES 100
5
5
5
5
5
5
5
5
5
5
5
5
5
5
5
5
5
5
5
5
5
5
5
5
5
5
5
5
5
5
5
5
5
5
5
5
5
5
5
5
5
5
5
5
5
5
5
5
5
5
5
5
5
5
5
5
5
5
5
5
5
5
5
5
5
5
5
5
5
5
5
5
5
5
5
5
5
5
5
5
5
5
5
5
5
5
5
5
5
5
5
5
5
5
5
5
5
5
5
5
CELL_DATA 100
VECTORS Et double
0.0569918 -0.367904 0
-0.0661223 -0.0838932 0
-0.0391008 -0.306552 0
0.0154082 -0.420896 0
-0.0784915 0.166318 0
0.072534 -0.175904 0
-0.0525495 0.579604 0
0.0754057 0.316287 0
-0.0351396 0.856198 0
0.0429348 0.684199 0
-0.0123159 0.990675 0
0.0207484 0.917747 0
0.0123862 0.959807 0
-0.00683841 0.999645 0
0.0349746 0.769343 0
-0.0331599 0.914977 0
0.0517445 0.455951 0
-0.0495539 0.678241 0
0.0599671 0.0666301 0
-0.0621217 0.333686 0
0.0667138 -0.364107 0
-0.0542581 -0.0829955 0
-0.03166 -0.302672 0
0.0252034 -0.417814 0
-0.0836121 0.175796 0
0.0762326 -0.174405 0
-0.0331488 0.552173 0
0.0646244 0.323882 0
-0.0336878 0.822107 0
0.0394925 0.655948 0
-0.0118357 0.951825 0
0.0171696 0.883467 0
0.00973831 0.924974 0
-0.00595111 0.960817 0
0.0297195 0.744875 0
-0.0292526 0.880233 0
0.049173 0.44037 0
-0.0442687 0.653863 0
0.0561257 0.0666146 0
-0.0520354 0.318161 0
0.0754427 -0.356668 0
-0.0476228 -0.0794059 0
-0.0223436 -0.292238 0
0.0303327 -0.405693 0
-0.0785299 0.185243 0
0.0798253 -0.162883 0
-0.0423927 0.570478 0
0.0660761 0.331871 0
-0.0366107 0.844116 0
0.0414847 0.673146 0
-0.015271 0.978587 0
0.0185396 0.905082 0
0.0106067 0.95055 0
-0.00610565 0.987506 0
0.033544 0.765608 0
-0.0299781 0.905892 0
0.0543683 0.453472 0
-0.0462126 0.67474 0
0.0661212 0.0665318 0
-0.0542014 0.331423 0
0.0754778 -0.354568 0
-0.0556752 -0.0757351 0
-0.0208136 -0.285848 0
0.0264193 -0.397504 0
-0.0750632 0.196494 0
0.0846619 -0.153834 0
-0.0398633 0.554558 0
0.045119 0.342733 0
-0.0341573 0.820587 0
0.0378061 0.656716 0
-0.01378 0.952094 0
0.0176264 0.881345 0
0.0104146 0.926352 0
-0.00423415 0.960985 0
0.0327093 0.747573 0
-0.0253888 0.881752 0
0.0523048 0.443604 0
-0.0410737 0.656789 0
0.0638479 0.0664987 0
-0.0477402 0.321627 0
0.0626336 -0.350343 0
-0.0675094 -0.0750104 0
-0.0276048 -0.28673 0
0.0129211 -0.391706 0
-0.0715693 0.188148 0
0.0790359 -0.153322 0
-0.0606607 0.582275 0
0.0550619 0.335642 0
-0.0376748 0.855818 0
0.0409086 0.684601 0
-0.0146408 0.991029 0
0.0200721 0.916569 0
0.012246 0.963522 0
-0.00416171 0.999991 0
0.037211 0.777404 0
-0.0277627 0.91906 0
0.0573429 0.461806 0
-0.046804 0.686784 0
0.0702144 0.0664183 0
-0.0581097 0.339985 0
