# vtk DataFile Version 3.0
tp3485 cell-vector
ASCII
DATASET UNSTRUCTURED_GRID
POINTS 66 double
0 0 0
0.1 0 0
0.2 0 0
0.3 0 0
0.4 0 0
0.5 0 0
0.6 0 0
0.7 0 0
0.8 0 0
0.9 0 0
1 0 0
0 0.09 0
0.1 0.09 0
0.2 0.09 0
0.3 0.09 0
0.4 0.09 0
0.5 0.09 0
0.6 0.09 0
0.7 0.09 0
0.8 0.09 0
0.9 0.09 0
1 0.09 0
0 0.18 0
0.1 0.18 0
0.2 0.18 0
0.3 0.18 0
0.4 0.18 0
0.5 0.18 0
0.6 0.18 0
0.7 0.18 0
0.8 0.18 0
0.9 0.18 0
1 0.18 0
0 0.27 0
0.1 0.27 0
0.2 0.27 0
0.3 0.27 0
0.4 0.27 0
0.5 0.27 0
0.6 0.27 0
0.7 0.27 0
0.8 0.27 0
0.9 0.27 0
1 0.27 0
0 0.36 0
0.1 0.36 0
0.2 0.36 0
0.3 0.36 0
0.4 0.36 0
0.5 0.36 0
0.6 0.36 0
0.7 0.36 0
0.8 0.36 0
0.9 0.36 0
1 0.36 0
0 0.45 0
0.1 0.45 0
0.2 0.45 0
0.3 0.45 0
0.4 0.45 0
0.5 0.45 0
0.6 0.45 0
0.7 0.45 0
0.8 0.45 0
0.9 0.45 0
1 0.45 0
CELLS 100 400
3 0 1 12
3 0 12 11
3 1 2 13
3 1 13 12
3 2 3 14
3 2 14 13
3 3 4 15
3 3 15 14
3 4 5 16
3 4 16 15
3 5 6 17
3 5 17 16
3 6 7 18
3 6 18 17
3 7 8 19
3 7 19 18
3 8 9 20
3 8 20 19
3 9 10 21
3 9 21 20
3 11 12 23
3 11 23 22
3 12 13 24
3 12 24 23
3 13 14 25
3 13 25 24
3 14 15 26
3 14 26 25
3 15 16 27
3 15 27 26
3 16 17 28
3 16 28 27
3 17 18 29
3 17 29 28
3 18 19 30
3 18 30 29
3 19 20 31
3 19 31 30
3 20 21 32
3 20 32 31
3 22 23 34
3 22 34 33
3 23 24 35
3 23 35 34
3 24 25 36
3 24 36 35
3 25 26 37
3 25 37 36
3 26 27 38
3 26 38 37
3 27 28 39
3 27 39 38
3 28 29 40
3 28 40 39
3 29 30 41
3 29 41 40
3 30 31 42
3 30 42 41
3 31 32 43
3 31 43 42
3 33 34 45
3 33 45 44
3 34 35 46
3 34 46 45
3 35 36 47
3 35 47 46
3 36 37 48
3 36 48 47
3 37 38 49
3 37 49 48
3 38 39 50
3 38 50 49
3 39 40 51
3 39 51 50
3 40 41 52
3 40 52 51
3 41 42 53
3 41 53 52
3 42 43 54
3 42 54 53
3 44 45 56
3 44 56 55
3 45 46 57
3 45 57 56
3 46 47 58
3 46 58 57
3 47 48 59
3 47 59 58
3 48 49 60
3 48 60 59
3 49 50 61
3 49 61 60
3 50 51 62
3 50 62 61
3 51 52 63
3 51 63 62
3 52 53 64
3 52 64 63
3 53 54 65
3 53 65 64
CELL_TYPES 100
5
5
5
5
5
5
5
5
5
5
5
5
5
5
5
5
5
5
5
5
5
5
5
5
5
5
5
5
5
5
5
5
5
5
5
5
5
5
5
5
5
5
5
5
5
5
5
5
5
5
5
5
5
5
5
5
5
5
5
5
5
5
5
5
5
5
5
5
5
5
5
5
5
5
5
5
5
5
5
5
5
5
5
5
5
5
5
5
5
5
5
5
5
5
5
5
5
5
5
5
CELL_DATA 100
VECTORS Et double
0.110321 -0.250352 0
0.213461 -0.121187 0
0.0652722 -0.584745 0
0.0985352 -0.461055 0
-0.00446045 -0.810841 0
-0.105853 -0.680204 0
-0.0753155 -0.879812 0
-0.313548 -0.752339 0
-0.120815 -0.806836 0
-0.454845 -0.68303 0
-0.0795339 -0.232172 0
0.0448545 -0.565675 0
-0.0371373 -0.0235505 0
-0.0559753 -0.0938422 0
-0.0175561 0.0234588 0
-0.071897 0.041022 0
-0.00897336 0.0168801 0
-0.0620361 0.0544169 0
-0.00588019 -0.00653354 0
-0.0539086 0.0335742 0
0.397041 -0.143511 0
0.455971 -0.0630992 0
0.224661 -0.362499 0
0.237575 -0.275566 0
-0.0841497 -0.534112 0
-0.159366 -0.431936 0
-0.410165 -0.614222 0
-0.573068 -0.511158 0
-0.640895 -0.595633 0
-0.866226 -0.499653 0
-0.107703 -0.17981 0
0.0121038 -0.438762 0
-0.127161 -0.0271521 0
-0.124407 -0.0882858 0
-0.105323 0.00800838 0
-0.136653 0.0154858 0
-0.0787633 0.00682541 0
-0.110861 0.0285971 0
-0.0641925 -0.00470289 0
-0.0924857 0.0179955 0
0.520815 0.0485072 0
0.532657 0.0221498 0
0.292511 0.047607 0
0.293242 0.049064 0
-0.135379 -0.00162614 0
-0.148856 0.029205 0
-0.595284 -0.0628847 0
-0.61232 -0.0276812 0
-0.933969 -0.0654667 0
-0.919877 -0.0789826 0
-0.0560309 -0.0444191 0
-0.0485365 -0.0580824 0
-0.156266 -0.0216652 0
-0.147398 -0.0349709 0
-0.151816 -0.0114152 0
-0.149574 -0.0162281 0
-0.118712 -0.00545583 0
-0.117855 -0.0082216 0
-0.0973936 -0.00141754 0
-0.0970285 -0.00336524 0
0.448551 0.239618 0
0.4159 0.102298 0
0.254429 0.463624 0
0.242553 0.37706 0
-0.129183 0.548506 0
-0.0797648 0.503035 0
-0.548087 0.52318 0
-0.412661 0.480263 0
-0.840885 0.489467 0
-0.599733 0.380639 0
-0.00413283 0.102034 0
-0.117529 0.344295 0
-0.128354 -0.0157786 0
-0.120655 0.0268177 0
-0.141495 -0.0323561 0
-0.106622 -0.0485402 0
-0.114483 -0.0189669 0
-0.0801641 -0.0469072 0
-0.095234 0.00211842 0
-0.0647814 -0.0260801 0
0.209031 0.336283 0
0.132295 0.146995 0
0.12278 0.691358 0
0.0891001 0.562839 0
-0.0698821 0.863745 0
0.0133718 0.773156 0
-0.284267 0.861134 0
-0.0636119 0.776291 0
-0.407284 0.722944 0
-0.112572 0.646404 0
0.0194071 0.172774 0
-0.0974007 0.488884 0
-0.0594324 -0.022518 0
-0.0444607 0.0452723 0
-0.07927 -0.0517846 0
-0.0199618 -0.0797227 0
-0.0675181 -0.0306567 0
-0.00919773 -0.0777845 0
-0.057509 0.00456105 0
-0.00500015 -0.0436653 0
