# vtk DataFile Version 3.0
tp3485 cell-vector
ASCII
DATASET UNSTRUCTURED_GRID
POINTS 66 double
0 0 0
0.1 0 0
0.2 0 0
0.3 0 0
0.4 0 0
0.5 0 0
0.6 0 0
0.7 0 0
0.8 0 0
0.9 0 0
1 0 0
0 0.09 0
0.1 0.09 0
0.2 0.09 0
0.3 0.09 0
0.4 0.09 0
0.5 0.09 0
0.6 0.09 0
0.7 0.09 0
0.8 0.09 0
0.9 0.09 0
1 0.09 0
0 0.18 0
0.1 0.18 0
0.2 0.18 0
0.3 0.18 0
0.4 0.18 0
0.5 0.18 0
0.6 0.18 0
0.7 0.18 0
0.8 0.18 0
0.9 0.18 0
1 0.18 0
0 0.27 0
0.1 0.27 0
0.2 0.27 0
0.3 0.27 0
0.4 0.27 0
0.5 0.27 0
0.6 0.27 0
0.7 0.27 0
0.8 0.27 0
0.9 0.27 0
1 0.27 0
0 0.36 0
0.1 0.36 0
0.2 0.36 0
0.3 0.36 0
0.4 0.36 0
0.5 0.36 0
0.6 0.36 0
0.7 0.36 0
0.8 0.36 0
0.9 0.36 0
1 0.36 0
0 0.45 0
0.1 0.45 0
0.2 0.45 0
0.3 0.45 0
0.4 0.45 0
0.5 0.45 0
0.6 0.45 0
0.7 0.45 0
0.8 0.45 0
0.9 0.45 0
1 0.45 0
CELLS 100 400
3 0 1 12
3 0 12 11
3 1 2 13
3 1 13 12
3 2 3 14
3 2 14 13
3 3 4 15
3 3 15 14
3 4 5 16
3 4 16 15
3 5 6 17
3 5 17 16
3 6 7 18
3 6 18 17
3 7 8 19
3 7 19 18
3 8 9 20
3 8 20 19
3 9 10 21
3 9 21 20
3 11 12 23
3 11 23 22
3 12 13 24
3 12 24 23
3 13 14 25
3 13 25 24
3 14 15 26
3 14 26 25
3 15 16 27
3 15 27 26
3 16 17 28
3 16 28 27
3 17 18 29
3 17 29 28
3 18 19 30
3 18 30 29
3 19 20 31
3 19 31 30
3 20 21 32
3 20 32 31
3 22 23 34
3 22 34 33
3 23 24 35
3 23 35 34
3 24 25 36
3 24 36 35
3 25 26 37
3 25 37 36
3 26 27 38
3 26 38 37
3 27 28 39
3 27 39 38
3 28 29 40
3 28 40 39
3 29 30 41
3 29 41 40
3 30 31 42
3 30 42 41
3 31 32 43
3 31 43 42
3 33 34 45
3 33 45 44
3 34 35 46
3 34 46 45
3 35 36 47
3 35 47 46
3 36 37 48
3 36 48 47
3 37 38 49
3 37 49 48
3 38 39 50
3 38 50 49
3 39 40 51
3 39 51 50
3 40 41 52
3 40 52 51
3 41 42 53
3 41 53 52
3 42 43 54
3 42 54 53
3 44 45 56
3 44 56 55
3 45 46 57
3 45 57 56
3 46 47 58
3 46 58 57
3 47 48 59
3 47 59 58
3 48 49 60
3 48 60 59
3 49 50 61
3 49 61 60
3 50 51 62
3 50 62 61
3 51 52 63
3 51 63 62
3 52 53 64
3 52 64 63
3 53 54 65
3 53 65 64
CELL_TYPES 100
5
5
5
5
5
5
5
5
5
5
5
5
5
5
5
5
5
5
5
5
5
5
5
5
5
5
5
5
5
5
5
5
5
5
5
5
5
5
5
5
5
5
5
5
5
5
5
5
5
5
5
5
5
5
5
5
5
5
5
5
5
5
5
5
5
5
5
5
5
5
5
5
5
5
5
5
5
5
5
5
5
5
5
5
5
5
5
5
5
5
5
5
5
5
5
5
5
5
5
5
CELL_DATA 100
VECTORS Et double
0.0193721 -0.079095 0
0.00928193 -0.0231796 0
0.00776288 -0.12107 0
0.0206589 -0.113696 0
-0.00581958 -0.0616108 0
0.044919 -0.127074 0
-0.0117914 0.0984439 0
0.0903849 -0.0416657 0
-0.00367339 0.352458 0
0.189334 0.122735 0
0.0211934 0.804106 0
0.456414 0.350308 0
0.0187151 0.227571 0
-0.416333 0.756155 0
0.00766164 0.0881041 0
-0.0749895 0.197614 0
0.00498752 0.0391237 0
-0.01628 0.0739436 0
0.00444974 0.00494415 0
-0.00797426 0.0286374 0
0.0475196 -0.0887483 0
0.0215431 -0.0202894 0
0.0381338 -0.145096 0
0.0290252 -0.118345 0
0.0340136 -0.120217 0
0.043425 -0.145803 0
0.0613421 -0.0472546 0
0.0692058 -0.0927517 0
0.163901 -0.0167817 0
0.122155 -0.00796539 0
0.454803 -0.197792 0
0.241708 0.0156224 0
-0.392524 0.0583927 0
-0.185379 -0.179743 0
-0.062918 0.0568561 0
-0.0564581 0.055135 0
-0.00703638 0.0325937 0
-0.0137779 0.0486566 0
0.000725734 0.004722 0
-0.00767358 0.0233736 0
0.0539233 -0.0913973 0
0.0154697 -0.0164912 0
0.0409888 -0.152707 0
0.0149901 -0.113952 0
0.0268457 -0.147953 0
0.0070383 -0.147222 0
0.0321576 -0.129013 0
-0.0201683 -0.114617 0
0.0806615 -0.225816 0
-0.0937497 -0.0817246 0
0.202475 -0.684569 0
-0.299886 -0.17743 0
-0.206187 -0.0821326 0
0.256326 -0.632721 0
-0.0547386 0.0359346 0
0.0369921 -0.067161 0
-0.00664721 0.0305837 0
-0.000888339 0.0316945 0
0.00065771 0.00466 0
-0.0065083 0.021946 0
0.041533 -0.0852662 0
0.000282671 -0.0134822 0
0.0218314 -0.132643 0
-0.000738423 -0.102282 0
-0.0125334 -0.102693 0
-0.013434 -0.124165 0
-0.0572576 -0.034367 0
-0.0594837 -0.0709954 0
-0.131595 -0.0206173 0
-0.184357 0.00317219 0
-0.330609 -0.166482 0
-0.498525 0.00303815 0
0.23201 0.029593 0
0.397333 -0.156327 0
0.0382721 0.0561003 0
0.0711477 0.0279461 0
0.00666986 0.0344574 0
0.00440645 0.0473178 0
0.00229615 0.00511891 0
-0.00544392 0.0242165 0
0.0220785 -0.0717687 0
-0.0109505 -0.0121672 0
0.00339128 -0.097624 0
-0.00339333 -0.0862745 0
-0.03226 -0.0241792 0
0.00778121 -0.089019 0
-0.0891994 0.146647 0
0.0136301 0.00266898 0
-0.201787 0.411764 0
0.0071528 0.169172 0
-0.480773 0.876845 0
-0.0138539 0.398861 0
0.416608 0.261579 0
-0.0320196 0.815846 0
0.084124 0.0973925 0
-0.0123473 0.227645 0
0.015226 0.0415142 0
-0.00692367 0.0803564 0
0.00460516 0.00578701 0
-0.00548547 0.0288808 0
