# vtk DataFile Version 3.0
tp3485 cell-vector
ASCII
DATASET UNSTRUCTURED_GRID
POINTS 66 double
0 0 0
0.1 0 0
0.2 0 0
0.3 0 0
0.4 0 0
0.5 0 0
0.6 0 0
0.7 0 0
0.8 0 0
0.9 0 0
1 0 0
0 0.09 0
0.1 0.09 0
0.2 0.09 0
0.3 0.09 0
0.4 0.09 0
0.5 0.09 0
0.6 0.09 0
0.7 0.09 0
0.8 0.09 0
0.9 0.09 0
1 0.09 0
0 0.18 0
0.1 0.18 0
0.2 0.18 0
0.3 0.18 0
0.4 0.18 0
0.5 0.18 0
0.6 0.18 0
0.7 0.18 0
0.8 0.18 0
0.9 0.18 0
1 0.18 0
0 0.27 0
0.1 0.27 0
0.2 0.27 0
0.3 0.27 0
0.4 0.27 0
0.5 0.27 0
0.6 0.27 0
0.7 0.27 0
0.8 0.27 0
0.9 0.27 0
1 0.27 0
0 0.36 0
0.1 0.36 0
0.2 0.36 0
0.3 0.36 0
0.4 0.36 0
0.5 0.36 0
0.6 0.36 0
0.7 0.36 0
0.8 0.36 0
0.9 0.36 0
1 0.36 0
0 0.45 0
0.1 0.45 0
0.2 0.45 0
0.3 0.45 0
0.4 0.45 0
0.5 0.45 0
0.6 0.45 0
0.7 0.45 0
0.8 0.45 0
0.9 0.45 0
1 0.45 0
CELLS 100 400
3 0 1 12
3 0 12 11
3 1 2 13
3 1 13 12
3 2 3 14
3 2 14 13
3 3 4 15
3 3 15 14
3 4 5 16
3 4 16 15
3 5 6 17
3 5 17 16
3 6 7 18
3 6 18 17
3 7 8 19
3 7 19 18
3 8 9 20
3 8 20 19
3 9 10 21
3 9 21 20
3 11 12 23
3 11 23 22
3 12 13 24
3 12 24 23
3 13 14 25
3 13 25 24
3 14 15 26
3 14 26 25
3 15 16 27
3 15 27 26
3 16 17 28
3 16 28 27
3 17 18 29
3 17 29 28
3 18 19 30
3 18 30 29
3 19 20 31
3 19 31 30
3 20 21 32
3 20 32 31
3 22 23 34
3 22 34 33
3 23 24 35
3 23 35 34
3 24 25 36
3 24 36 35
3 25 26 37
3 25 37 36
3 26 27 38
3 26 38 37
3 27 28 39
3 27 39 38
3 28 29 40
3 28 40 39
3 29 30 41
3 29 41 40
3 30 31 42
3 30 42 41
3 31 32 43
3 31 43 42
3 33 34 45
3 33 45 44
3 34 35 46
3 34 46 45
3 35 36 47
3 35 47 46
3 36 37 48
3 36 48 47
3 37 38 49
3 37 49 48
3 38 39 50
3 38 50 49
3 39 40 51
3 39 51 50
3 40 41 52
3 40 52 51
3 41 42 53
3 41 53 52
3 42 43 54
3 42 54 53
3 44 45 56
3 44 56 55
3 45 46 57
3 45 57 56
3 46 47 58
3 46 58 57
3 47 48 59
3 47 59 58
3 48 49 60
3 48 60 59
3 49 50 61
3 49 61 60
3 50 51 62
3 50 62 61
3 51 52 63
3 51 63 62
3 52 53 64
3 52 64 63
3 53 54 65
3 53 65 64
CELL_TYPES 100
5
5
5
5
5
5
5
5
5
5
5
5
5
5
5
5
5
5
5
5
5
5
5
5
5
5
5
5
5
5
5
5
5
5
5
5
5
5
5
5
5
5
5
5
5
5
5
5
5
5
5
5
5
5
5
5
5
5
5
5
5
5
5
5
5
5
5
5
5
5
5
5
5
5
5
5
5
5
5
5
5
5
5
5
5
5
5
5
5
5
5
5
5
5
5
5
5
5
5
5
CELL_DATA 100
VECTORS Et double
0.00192251 -0.149626 0
-0.1319 0.000601229 0
-0.0021597 0.211028 0
0.327324 -0.154613 0
0.00134285 -0.2178 0
-0.391968 0.217066 0
-0.00159835 0.154156 0
0.337135 -0.221641 0
-6.94674e-05 -0.0639919 0
-0.202281 0.158271 0
8.49442e-05 0.00613868 0
0.0638354 -0.0642577 0
0.000268984 0.00148128 0
-0.00286222 0.00565178 0
6.64693e-05 0.000489587 0
-0.000326869 0.00109145 0
2.547e-05 0.000187645 0
-8.90647e-05 0.000379469 0
1.4043e-05 1.56033e-05 0
-6.8965e-05 0.000141392 0
-0.133361 0.327152 0
0.165384 -0.00290386 0
0.331487 -0.551294 0
-0.462506 0.330434 0
-0.396553 0.595061 0
0.639958 -0.555571 0
0.338778 -0.466263 0
-0.623705 0.599578 0
-0.204121 0.243447 0
0.435961 -0.466601 0
0.0641718 -0.0122917 0
-0.164349 0.242402 0
-0.00275824 -0.000247734 0
0.0063964 -0.0115095 0
-0.000209733 0.000371385 0
0.000210717 -1.36733e-05 0
-3.43089e-05 0.000149205 0
-0.000113721 0.000297106 0
-3.92394e-05 1.50746e-05 0
-9.2876e-05 0.000107187 0
0.169839 -0.317077 0
-0.114584 0.000498019 0
-0.464954 0.609385 0
0.372827 -0.320533 0
0.641359 -0.755274 0
-0.590901 0.611402 0
-0.625967 0.669642 0
0.656342 -0.754463 0
0.435159 -0.398048 0
-0.52717 0.669274 0
-0.162341 0.0334397 0
0.223417 -0.394998 0
0.00664062 0.00375242 0
-0.0130058 0.0293129 0
0.00036327 0.0005407 0
-0.00100728 0.00242912 0
-5.34254e-05 0.000168368 0
-0.000171744 0.000372927 0
-6.20523e-05 1.68075e-05 0
-0.000119267 0.000116824 0
-0.115339 0.178074 0
0.0457476 -0.000625448 0
0.373226 -0.416872 0
-0.164249 0.178885 0
-0.590732 0.582389 0
0.308762 -0.415605 0
0.653563 -0.581826 0
-0.395026 0.580347 0
-0.52484 0.402654 0
0.3579 -0.577001 0
0.220086 -0.0404102 0
-0.17493 0.397989 0
-0.0115842 -0.0029378 0
0.0128807 -0.0345977 0
-0.000834344 0.000166601 0
0.000533121 -0.00163511 0
-0.000115157 0.00013277 0
-0.000129625 0.00019199 0
-8.50356e-05 1.83982e-05 0
-0.000111297 8.85288e-05 0
0.0462233 -0.0517135 0
-0.000135316 -0.000150351 0
-0.163581 0.130118 0
0.000357303 -0.0512196 0
0.305554 -0.208507 0
-0.000351549 0.128515 0
-0.392013 0.233885 0
0.00198316 -0.203041 0
0.354106 -0.1678 0
-0.00233836 0.228235 0
-0.171059 0.025193 0
0.000815618 -0.164281 0
0.0103774 0.0030116 0
-0.00228553 0.0202491 0
0.000448116 0.000520623 0
-0.000367184 0.00197551 0
-6.62494e-05 0.000117429 0
-8.60478e-05 0.000283998 0
-6.92506e-05 2.41647e-05 0
-2.91251e-05 3.61066e-05 0
