# vtk DataFile Version 3.0
tp3485 cell-vector
ASCII
DATASET UNSTRUCTURED_GRID
POINTS 66 double
0 0 0
0.1 0 0
0.2 0 0
0.3 0 0
0.4 0 0
0.5 0 0
0.6 0 0
0.7 0 0
0.8 0 0
0.9 0 0
1 0 0
0 0.09 0
0.1 0.09 0
0.2 0.09 0
0.3 0.09 0
0.4 0.09 0
0.5 0.09 0
0.6 0.09 0
0.7 0.09 0
0.8 0.09 0
0.9 0.09 0
1 0.09 0
0 0.18 0
0.1 0.18 0
0.2 0.18 0
0.3 0.18 0
0.4 0.18 0
0.5 0.18 0
0.6 0.18 0
0.7 0.18 0
0.8 0.18 0
0.9 0.18 0
1 0.18 0
0 0.27 0
0.1 0.27 0
0.2 0.27 0
0.3 0.27 0
0.4 0.27 0
0.5 0.27 0
0.6 0.27 0
0.7 0.27 0
0.8 0.27 0
0.9 0.27 0
1 0.27 0
0 0.36 0
0.1 0.36 0
0.2 0.36 0
0.3 0.36 0
0.4 0.36 0
0.5 0.36 0
0.6 0.36 0
0.7 0.36 0
0.8 0.36 0
0.9 0.36 0
1 0.36 0
0 0.45 0
0.1 0.45 0
0.2 0.45 0
0.3 0.45 0
0.4 0.45 0
0.5 0.45 0
0.6 0.45 0
0.7 0.45 0
0.8 0.45 0
0.9 0.45 0
1 0.45 0
CELLS 100 400
3 0 1 12
3 0 12 11
3 1 2 13
3 1 13 12
3 2 3 14
3 2 14 13
3 3 4 15
3 3 15 14
3 4 5 16
3 4 16 15
3 5 6 17
3 5 17 16
3 6 7 18
3 6 18 17
3 7 8 19
3 7 19 18
3 8 9 20
3 8 20 19
3 9 10 21
3 9 21 20
3 11 12 23
3 11 23 22
3 12 13 24
3 12 24 23
3 13 14 25
3 13 25 24
3 14 15 26
3 14 26 25
3 15 16 27
3 15 27 26
3 16 17 28
3 16 28 27
3 17 18 29
3 17 29 28
3 18 19 30
3 18 30 29
3 19 20 31
3 19 31 30
3 20 21 32
3 20 32 31
3 22 23 34
3 22 34 33
3 23 24 35
3 23 35 34
3 24 25 36
3 24 36 35
3 25 26 37
3 25 37 36
3 26 27 38
3 26 38 37
3 27 28 39
3 27 39 38
3 28 29 40
3 28 40 39
3 29 30 41
3 29 41 40
3 30 31 42
3 30 42 41
3 31 32 43
3 31 43 42
3 33 34 45
3 33 45 44
3 34 35 46
3 34 46 45
3 35 36 47
3 35 47 46
3 36 37 48
3 36 48 47
3 37 38 49
3 37 49 48
3 38 39 50
3 38 50 49
3 39 40 51
3 39 51 50
3 40 41 52
3 40 52 51
3 41 42 53
3 41 53 52
3 42 43 54
3 42 54 53
3 44 45 56
3 44 56 55
3 45 46 57
3 45 57 56
3 46 47 58
3 46 58 57
3 47 48 59
3 47 59 58
3 48 49 60
3 48 60 59
3 49 50 61
3 49 61 60
3 50 51 62
3 50 62 61
3 51 52 63
3 51 63 62
3 52 53 64
3 52 64 63
3 53 54 65
3 53 65 64
CELL_TYPES 100
5
5
5
5
5
5
5
5
5
5
5
5
5
5
5
5
5
5
5
5
5
5
5
5
5
5
5
5
5
5
5
5
5
5
5
5
5
5
5
5
5
5
5
5
5
5
5
5
5
5
5
5
5
5
5
5
5
5
5
5
5
5
5
5
5
5
5
5
5
5
5
5
5
5
5
5
5
5
5
5
5
5
5
5
5
5
5
5
5
5
5
5
5
5
5
5
5
5
5
5
CELL_DATA 100
VECTORS Et double
0.073016 -0.520949 0
-0.108776 -0.118915 0
-0.0853126 -0.279023 0
0.036902 -0.555843 0
-0.0984868 0.404379 0
0.0975574 -0.0535544 0
-0.0392805 0.765398 0
0.0596064 0.562844 0
-0.0213797 0.946551 0
0.0260354 0.839578 0
-0.00146041 0.998619 0
0.00632511 0.979326 0
0.018318 0.915325 0
-0.0159024 0.986971 0
0.0355073 0.709473 0
-0.0354486 0.861369 0
0.0478899 0.412316 0
-0.0472975 0.620656 0
0.0538659 0.059851 0
-0.0562813 0.300596 0
0.0756634 -0.513173 0
-0.0890915 -0.122047 0
-0.0851911 -0.273225 0
0.0523964 -0.557357 0
-0.116589 0.422891 0
0.103571 -0.0563976 0
-0.0226022 0.738936 0
0.0431897 0.576841 0
-0.0224568 0.914972 0
0.0232955 0.811017 0
-0.0031301 0.964911 0
0.00375764 0.947045 0
0.0143919 0.886698 0
-0.0148903 0.95301 0
0.0303044 0.689787 0
-0.0324847 0.832658 0
0.0450233 0.400208 0
-0.0432969 0.600943 0
0.0502524 0.0598622 0
-0.0489429 0.288468 0
0.0968909 -0.501767 0
-0.0665757 -0.117769 0
-0.0649784 -0.261457 0
0.0691628 -0.542726 0
-0.106034 0.426671 0
0.110507 -0.0461482 0
-0.0355525 0.758704 0
0.0502816 0.577345 0
-0.0239028 0.935217 0
0.0257359 0.828451 0
-0.00517568 0.987018 0
0.00490374 0.966253 0
0.0156107 0.906553 0
-0.0150742 0.974684 0
0.0333396 0.705443 0
-0.0330171 0.852355 0
0.0490455 0.409809 0
-0.0446895 0.616564 0
0.0575935 0.0598476 0
-0.0502918 0.298081 0
0.109114 -0.499283 0
-0.0728402 -0.109835 0
-0.0530373 -0.250126 0
0.0698216 -0.527749 0
-0.0980232 0.450971 0
0.123829 -0.0292472 0
-0.0262933 0.746076 0
0.0291829 0.600241 0
-0.0203111 0.915479 0
0.0248377 0.814535 0
-0.00350333 0.965815 0
0.00630085 0.945824 0
0.0156514 0.887914 0
-0.0121947 0.953125 0
0.0328839 0.691909 0
-0.0286359 0.833551 0
0.0476714 0.402656 0
-0.0402123 0.602958 0
0.0562484 0.0598643 0
-0.0451134 0.290888 0
0.0914578 -0.496094 0
-0.0965268 -0.107252 0
-0.0602527 -0.25504 0
0.0453821 -0.518387 0
-0.0889117 0.442861 0
0.118777 -0.0275147 0
-0.0469045 0.779596 0
0.0410201 0.596076 0
-0.0207488 0.950806 0
0.0257441 0.848448 0
-0.00179295 0.999998 0
0.00727095 0.980979 0
0.0186886 0.918425 0
-0.0123084 0.987192 0
0.0373249 0.715553 0
-0.030365 0.864035 0
0.0521611 0.416674 0
-0.0444521 0.626629 0
0.061425 0.0598409 0
-0.0526579 0.304949 0
