# vtk DataFile Version 3.0
tp3485 cell-vector
ASCII
DATASET UNSTRUCTURED_GRID
POINTS 66 double
0 0 0
0.1 0 0
0.2 0 0
0.3 0 0
0.4 0 0
0.5 0 0
0.6 0 0
0.7 0 0
0.8 0 0
0.9 0 0
1 0 0
0 0.09 0
0.1 0.09 0
0.2 0.09 0
0.3 0.09 0
0.4 0.09 0
0.5 0.09 0
0.6 0.09 0
0.7 0.09 0
0.8 0.09 0
0.9 0.09 0
1 0.09 0
0 0.18 0
0.1 0.18 0
0.2 0.18 0
0.3 0.18 0
0.4 0.18 0
0.5 0.18 0
0.6 0.18 0
0.7 0.18 0
0.8 0.18 0
0.9 0.18 0
1 0.18 0
0 0.27 0
0.1 0.27 0
0.2 0.27 0
0.3 0.27 0
0.4 0.27 0
0.5 0.27 0
0.6 0.27 0
0.7 0.27 0
0.8 0.27 0
0.9 0.27 0
1 0.27 0
0 0.36 0
0.1 0.36 0
0.2 0.36 0
0.3 0.36 0
0.4 0.36 0
0.5 0.36 0
0.6 0.36 0
0.7 0.36 0
0.8 0.36 0
0.9 0.36 0
1 0.36 0
0 0.45 0
0.1 0.45 0
0.2 0.45 0
0.3 0.45 0
0.4 0.45 0
0.5 0.45 0
0.6 0.45 0
0.7 0.45 0
0.8 0.45 0
0.9 0.45 0
1 0.45 0
CELLS 100 400
3 0 1 12
3 0 12 11
3 1 2 13
3 1 13 12
3 2 3 14
3 2 14 13
3 3 4 15
3 3 15 14
3 4 5 16
3 4 16 15
3 5 6 17
3 5 17 16
3 6 7 18
3 6 18 17
3 7 8 19
3 7 19 18
3 8 9 20
3 8 20 19
3 9 10 21
3 9 21 20
3 11 12 23
3 11 23 22
3 12 13 24
3 12 24 23
3 13 14 25
3 13 25 24
3 14 15 26
3 14 26 25
3 15 16 27
3 15 27 26
3 16 17 28
3 16 28 27
3 17 18 29
3 17 29 28
3 18 19 30
3 18 30 29
3 19 20 31
3 19 31 30
3 20 21 32
3 20 32 31
3 22 23 34
3 22 34 33
3 23 24 35
3 23 35 34
3 24 25 36
3 24 36 35
3 25 26 37
3 25 37 36
3 26 27 38
3 26 38 37
3 27 28 39
3 27 39 38
3 28 29 40
3 28 40 39
3 29 30 41
3 29 41 40
3 30 31 42
3 30 42 41
3 31 32 43
3 31 43 42
3 33 34 45
3 33 45 44
3 34 35 46
3 34 46 45
3 35 36 47
3 35 47 46
3 36 37 48
3 36 48 47
3 37 38 49
3 37 49 48
3 38 39 50
3 38 50 49
3 39 40 51
3 39 51 50
3 40 41 52
3 40 52 51
3 41 42 53
3 41 53 52
3 42 43 54
3 42 54 53
3 44 45 56
3 44 56 55
3 45 46 57
3 45 57 56
3 46 47 58
3 46 58 57
3 47 48 59
3 47 59 58
3 48 49 60
3 48 60 59
3 49 50 61
3 49 61 60
3 50 51 62
3 50 62 61
3 51 52 63
3 51 63 62
3 52 53 64
3 52 64 63
3 53 54 65
3 53 65 64
CELL_TYPES 100
5
5
5
5
5
5
5
5
5
5
5
5
5
5
5
5
5
5
5
5
5
5
5
5
5
5
5
5
5
5
5
5
5
5
5
5
5
5
5
5
5
5
5
5
5
5
5
5
5
5
5
5
5
5
5
5
5
5
5
5
5
5
5
5
5
5
5
5
5
5
5
5
5
5
5
5
5
5
5
5
5
5
5
5
5
5
5
5
5
5
5
5
5
5
5
5
5
5
5
5
CELL_DATA 100
VECTORS Et double
0.0162131 0.104678 0
0.160729 -0.0189405 0
0.00279008 0.238527 0
0.157514 0.0781878 0
-0.00641853 -0.246593 0
-0.453401 0.239175 0
-0.0132411 -0.640795 0
-0.412505 -0.225671 0
-0.02246 -0.0187872 0
0.46573 -0.606129 0
-0.0093347 -0.00309424 0
-0.0518576 0.0199749 0
-0.00411966 0.00820879 0
-0.0185839 0.0134902 0
-0.00159712 0.00791766 0
-0.0118023 0.0151342 0
-0.000617761 0.0040507 0
-0.00786487 0.0105544 0
-0.000301923 -0.000335471 0
-0.005831 0.00510479 0
0.184485 -0.371874 0
-0.14311 -0.000212719 0
0.175434 -0.287542 0
0.285703 -0.388978 0
-0.451481 0.358576 0
0.16082 -0.307428 0
-0.435847 0.644468 0
-0.188542 0.355117 0
0.422564 -0.202703 0
-0.406975 0.673806 0
-0.0774298 -0.0292218 0
-0.00152815 -0.15143 0
-0.0280465 0.000540707 0
-0.0285505 -0.00890782 0
-0.0152501 0.00330984 0
-0.021114 0.00659234 0
-0.00915113 0.00185338 0
-0.0134489 0.00542725 0
-0.00641807 -0.00028461 0
-0.00961143 0.00269967 0
-0.150834 0.0806914 0
-0.118229 0.0178339 0
0.2991 -0.278242 0
-0.0250999 0.0883507 0
0.174593 -0.196947 0
0.276128 -0.293193 0
-0.187328 0.0467785 0
0.0627204 -0.215541 0
-0.420517 0.00732627 0
-0.43665 0.0352026 0
-0.0263367 -0.0186408 0
-0.0491913 0.00381686 0
-0.0353889 -0.00852068 0
-0.0334214 -0.0134697 0
-0.0233801 -0.00358358 0
-0.0223238 -0.00607719 0
-0.0143282 -0.00133825 0
-0.0138206 -0.00253022 0
-0.0100414 -0.000198471 0
-0.00978903 -0.000836606 0
-0.148912 0.841643 0
0.562159 0.0176524 0
-0.0257209 0.358707 0
-0.495703 0.868492 0
0.294918 -0.286258 0
-0.265609 0.354122 0
0.0894583 -0.377541 0
0.0703382 -0.317874 0
-0.417691 0.0399877 0
0.0216163 -0.41519 0
-0.0430588 -0.0169286 0
-0.0572915 0.0155317 0
-0.033497 -0.0180709 0
-0.0246685 -0.024736 0
-0.0228056 -0.0105935 0
-0.0146091 -0.0192712 0
-0.0141667 -0.00463522 0
-0.00885527 -0.0106231 0
-0.0100246 -0.000102572 0
-0.00622899 -0.00447941 0
0.519411 -0.445486 0
0.0305374 0.0339304 0
-0.508677 0.212593 0
0.0177633 -0.395903 0
-0.236391 0.398755 0
-0.0162801 0.198329 0
0.115998 0.113888 0
-0.029894 0.339486 0
0.0506474 -0.0478478 0
-0.0187816 0.0627401 0
-0.0424985 -0.0357149 0
-0.00518112 -0.0661807 0
-0.0210004 -0.026799 0
-0.00223737 -0.043442 0
-0.0138391 -0.015835 0
-0.000675324 -0.0292683 0
-0.00879022 -0.0070349 0
-0.000139348 -0.0164326 0
-0.00631185 -3.51757e-05 0
3.29406e-06 -0.00709084 0
