# vtk DataFile Version 3.0
tp3485 cell-vector
ASCII
DATASET UNSTRUCTURED_GRID
POINTS 66 double
0 0 0
0.1 0 0
0.2 0 0
0.3 0 0
0.4 0 0
0.5 0 0
0.6 0 0
0.7 0 0
0.8 0 0
0.9 0 0
1 0 0
0 0.09 0
0.1 0.09 0
0.2 0.09 0
0.3 0.09 0
0.4 0.09 0
0.5 0.09 0
0.6 0.09 0
0.7 0.09 0
0.8 0.09 0
0.9 0.09 0
1 0.09 0
0 0.18 0
0.1 0.18 0
0.2 0.18 0
0.3 0.18 0
0.4 0.18 0
0.5 0.18 0
0.6 0.18 0
0.7 0.18 0
0.8 0.18 0
0.9 0.18 0
1 0.18 0
0 0.27 0
0.1 0.27 0
0.2 0.27 0
0.3 0.27 0
0.4 0.27 0
0.5 0.27 0
0.6 0.27 0
0.7 0.27 0
0.8 0.27 0
0.9 0.27 0
1 0.27 0
0 0.36 0
0.1 0.36 0
0.2 0.36 0
0.3 0.36 0
0.4 0.36 0
0.5 0.36 0
0.6 0.36 0
0.7 0.36 0
0.8 0.36 0
0.9 0.36 0
1 0.36 0
0 0.45 0
0.1 0.45 0
0.2 0.45 0
0.3 0.45 0
0.4 0.45 0
0.5 0.45 0
0.6 0.45 0
0.7 0.45 0
0.8 0.45 0
0.9 0.45 0
1 0.45 0
CELLS 100 400
3 0 1 12
3 0 12 11
3 1 2 13
3 1 13 12
3 2 3 14
3 2 14 13
3 3 4 15
3 3 15 14
3 4 5 16
3 4 16 15
3 5 6 17
3 5 17 16
3 6 7 18
3 6 18 17
3 7 8 19
3 7 19 18
3 8 9 20
3 8 20 19
3 9 10 21
3 9 21 20
3 11 12 23
3 11 23 22
3 12 13 24
3 12 24 23
3 13 14 25
3 13 25 24
3 14 15 26
3 14 26 25
3 15 16 27
3 15 27 26
3 16 17 28
3 16 28 27
3 17 18 29
3 17 29 28
3 18 19 30
3 18 30 29
3 19 20 31
3 19 31 30
3 20 21 32
3 20 32 31
3 22 23 34
3 22 34 33
3 23 24 35
3 23 35 34
3 24 25 36
3 24 36 35
3 25 26 37
3 25 37 36
3 26 27 38
3 26 38 37
3 27 28 39
3 27 39 38
3 28 29 40
3 28 40 39
3 29 30 41
3 29 41 40
3 30 31 42
3 30 42 41
3 31 32 43
3 31 43 42
3 33 34 45
3 33 45 44
3 34 35 46
3 34 46 45
3 35 36 47
3 35 47 46
3 36 37 48
3 36 48 47
3 37 38 49
3 37 49 48
3 38 39 50
3 38 50 49
3 39 40 51
3 39 51 50
3 40 41 52
3 40 52 51
3 41 42 53
3 41 53 52
3 42 43 54
3 42 54 53
3 44 45 56
3 44 56 55
3 45 46 57
3 45 57 56
3 46 47 58
3 46 58 57
3 47 48 59
3 47 59 58
3 48 49 60
3 48 60 59
3 49 50 61
3 49 61 60
3 50 51 62
3 50 62 61
3 51 52 63
3 51 63 62
3 52 53 64
3 52 64 63
3 53 54 65
3 53 65 64
CELL_TYPES 100
5
5
5
5
5
5
5
5
5
5
5
5
5
5
5
5
5
5
5
5
5
5
5
5
5
5
5
5
5
5
5
5
5
5
5
5
5
5
5
5
5
5
5
5
5
5
5
5
5
5
5
5
5
5
5
5
5
5
5
5
5
5
5
5
5
5
5
5
5
5
5
5
5
5
5
5
5
5
5
5
5
5
5
5
5
5
5
5
5
5
5
5
5
5
5
5
5
5
5
5
CELL_DATA 100
VECTORS Et double
-0.0129598 0.613766 0
0.508699 0.00987271 0
-0.00616855 0.8742 0
0.198971 0.63379 0
0.0050894 0.603648 0
-0.23092 0.876295 0
0.00963196 -0.0609892 0
-0.555174 0.587634 0
-0.00269168 -0.0108741 0
0.0419763 -0.0675937 0
-9.46272e-05 0.00132935 0
0.00777723 -0.00770285 0
0.000297606 0.00235442 0
0.00212854 0.0010426 0
0.000260668 0.00170004 0
0.000844443 0.00168239 0
0.000189861 0.000890542 0
0.000345456 0.00116951 0
0.000153875 0.000170972 0
0.000176964 0.000497937 0
0.495184 0.370501 0
0.829162 -0.00286466 0
0.191411 0.499866 0
0.301043 0.375461 0
-0.220197 0.350607 0
-0.344416 0.499213 0
-0.531952 0.0562371 0
-0.758638 0.333503 0
0.0405136 0.0109343 0
0.0273854 0.0343934 0
0.00858033 0.00583098 0
0.0108886 0.00640045 0
0.003029 0.00375355 0
0.00430456 0.00385149 0
0.00147952 0.00222263 0
0.00183918 0.0026661 0
0.00077381 0.00108095 0
0.000796603 0.00157451 0
0.00050507 0.000182915 0
0.00043229 0.000646298 0
0.8383 -0.00164657 0
0.872595 -0.0162313 0
0.300018 -0.00793159 0
0.304231 -0.0114358 0
-0.341636 0.033802 0
-0.318405 0.000520474 0
-0.741495 0.0852899 0
-0.689802 0.0355473 0
0.0386253 0.0308052 0
0.0194118 0.0672167 0
0.0147039 0.0126696 0
0.0115219 0.0215497 0
0.0059621 0.00642727 0
0.00545432 0.00920919 0
0.00269252 0.00331963 0
0.0022627 0.00487935 0
0.00129864 0.00148666 0
0.000921334 0.00251509 0
0.000795316 0.000203759 0
0.000473948 0.000988631 0
0.901947 -0.415992 0
0.584183 -0.0232689 0
0.301967 -0.548617 0
0.192287 -0.43207 0
-0.339182 -0.312585 0
-0.185895 -0.521231 0
-0.696703 0.0647775 0
-0.410045 -0.278312 0
0.03186 0.0401403 0
0.0175985 0.065942 0
0.0163725 0.0192363 0
0.00861292 0.0326823 0
0.00755113 0.00941929 0
0.00399658 0.0157146 0
0.00329508 0.00456028 0
0.00154956 0.00770307 0
0.00149881 0.00193041 0
0.000554762 0.00365589 0
0.000876858 0.00022364 0
0.000257482 0.00137973 0
0.622051 -0.782977 0
-0.0219008 -0.0243342 0
0.181493 -0.978719 0
0.00391027 -0.797438 0
-0.234128 -0.575096 0
0.0301711 -0.933506 0
-0.444481 0.064346 0
0.0283222 -0.512406 0
0.0244087 0.0489724 0
-0.00171919 0.0823817 0
0.0125297 0.025226 0
-0.0016817 0.0446358 0
0.00606304 0.0121636 0
-0.00107325 0.0222827 0
0.00264625 0.00565589 0
-0.000606172 0.0104927 0
0.00117797 0.00232297 0
-0.000345666 0.00472231 0
0.000689388 0.000235641 0
-0.000229009 0.00174618 0
