# vtk DataFile Version 3.0
tp3485 cell-vector
ASCII
DATASET UNSTRUCTURED_GRID
POINTS 66 double
0 0 0
0.1 0 0
0.2 0 0
0.3 0 0
0.4 0 0
0.5 0 0
0.6 0 0
0.7 0 0
0.8 0 0
0.9 0 0
1 0 0
0 0.09 0
0.1 0.09 0
0.2 0.09 0
0.3 0.09 0
0.4 0.09 0
0.5 0.09 0
0.6 0.09 0
0.7 0.09 0
0.8 0.09 0
0.9 0.09 0
1 0.09 0
0 0.18 0
0.1 0.18 0
0.2 0.18 0
0.3 0.18 0
0.4 0.18 0
0.5 0.18 0
0.6 0.18 0
0.7 0.18 0
0.8 0.18 0
0.9 0.18 0
1 0.18 0
0 0.27 0
0.1 0.27 0
0.2 0.27 0
0.3 0.27 0
0.4 0.27 0
0.5 0.27 0
0.6 0.27 0
0.7 0.27 0
0.8 0.27 0
0.9 0.27 0
1 0.27 0
0 0.36 0
0.1 0.36 0
0.2 0.36 0
0.3 0.36 0
0.4 0.36 0
0.5 0.36 0
0.6 0.36 0
0.7 0.36 0
0.8 0.36 0
0.9 0.36 0
1 0.36 0
0 0.45 0
0.1 0.45 0
0.2 0.45 0
0.3 0.45 0
0.4 0.45 0
0.5 0.45 0
0.6 0.45 0
0.7 0.45 0
0.8 0.45 0
0.9 0.45 0
1 0.45 0
CELLS 100 400
3 0 1 12
3 0 12 11
3 1 2 13
3 1 13 12
3 2 3 14
3 2 14 13
3 3 4 15
3 3 15 14
3 4 5 16
3 4 16 15
3 5 6 17
3 5 17 16
3 6 7 18
3 6 18 17
3 7 8 19
3 7 19 18
3 8 9 20
3 8 20 19
3 9 10 21
3 9 21 20
3 11 12 23
3 11 23 22
3 12 13 24
3 12 24 23
3 13 14 25
3 13 25 24
3 14 15 26
3 14 26 25
3 15 16 27
3 15 27 26
3 16 17 28
3 16 28 27
3 17 18 29
3 17 29 28
3 18 19 30
3 18 30 29
3 19 20 31
3 19 31 30
3 20 21 32
3 20 32 31
3 22 23 34
3 22 34 33
3 23 24 35
3 23 35 34
3 24 25 36
3 24 36 35
3 25 26 37
3 25 37 36
3 26 27 38
3 26 38 37
3 27 28 39
3 27 39 38
3 28 29 40
3 28 40 39
3 29 30 41
3 29 41 40
3 30 31 42
3 30 42 41
3 31 32 43
3 31 43 42
3 33 34 45
3 33 45 44
3 34 35 46
3 34 46 45
3 35 36 47
3 35 47 46
3 36 37 48
3 36 48 47
3 37 38 49
3 37 49 48
3 38 39 50
3 38 50 49
3 39 40 51
3 39 51 50
3 40 41 52
3 40 52 51
3 41 42 53
3 41 53 52
3 42 43 54
3 42 54 53
3 44 45 56
3 44 56 55
3 45 46 57
3 45 57 56
3 46 47 58
3 46 58 57
3 47 48 59
3 47 59 58
3 48 49 60
3 48 60 59
3 49 50 61
3 49 61 60
3 50 51 62
3 50 62 61
3 51 52 63
3 51 63 62
3 52 53 64
3 52 64 63
3 53 54 65
3 53 65 64
CELL_TYPES 100
5
5
5
5
5
5
5
5
5
5
5
5
5
5
5
5
5
5
5
5
5
5
5
5
5
5
5
5
5
5
5
5
5
5
5
5
5
5
5
5
5
5
5
5
5
5
5
5
5
5
5
5
5
5
5
5
5
5
5
5
5
5
5
5
5
5
5
5
5
5
5
5
5
5
5
5
5
5
5
5
5
5
5
5
5
5
5
5
5
5
5
5
5
5
5
5
5
5
5
5
CELL_DATA 100
VECTORS Et double
-0.00226863 0.356567 0
0.317433 -0.000589023 0
0.00174073 -0.394133 0
-0.678758 0.361499 0
-0.00120544 0.146605 0
0.487439 -0.39687 0
-0.00120211 0.154906 0
0.0032457 0.148286 0
0.00212398 -0.317316 0
-0.423284 0.15698 0
-0.0027465 0.331043 0
0.581019 -0.320156 0
0.00131688 -0.221261 0
-0.498872 0.335031 0
-0.000669421 0.0120357 0
0.209344 -0.22239 0
0.000121417 0.000983003 0
-0.0100234 0.0125847 0
-0.000106899 -0.000118777 0
-0.0013445 0.000992824 0
0.318605 -0.607609 0
-0.230446 0.00158035 0
-0.681461 0.731854 0
0.522695 -0.607506 0
0.487751 -0.271183 0
-0.412054 0.730295 0
0.00261555 -0.264775 0
0.00243271 -0.267829 0
-0.424168 0.488997 0
0.254204 -0.264705 0
0.582389 -0.484116 0
-0.287956 0.486609 0
-0.500634 0.354553 0
0.248599 -0.482054 0
0.208313 -0.0345237 0
-0.141097 0.354235 0
-0.010707 -0.00434994 0
0.0111734 -0.0316634 0
-0.00166346 -0.000209676 0
0.00048508 -0.00310109 0
-0.231565 0.194984 0
-0.056324 0.000304202 0
0.51893 -0.211033 0
0.152022 0.193961 0
-0.40778 -0.0948192 0
-0.308442 -0.205133 0
0.000520183 0.290167 0
0.35654 -0.101026 0
0.251969 -0.0747393 0
-0.0799037 0.290315 0
-0.283151 -0.180508 0
-0.382011 -0.0699614 0
0.244819 0.135056 0
0.536173 -0.186491 0
-0.138643 0.00941763 0
-0.252065 0.136491 0
0.00941844 0.00119721 0
0.00517293 0.00702082 0
0.000281841 6.86563e-05 0
-0.000103013 0.000832286 0
-0.0576769 0.194786 0
0.117384 -0.000462467 0
0.155824 -0.40058 0
-0.375576 0.194694 0
-0.313099 0.580624 0
0.569954 -0.403652 0
0.360197 -0.427532 0
-0.548195 0.582755 0
-0.0783236 -0.167496 0
0.159156 -0.428335 0
-0.38562 0.714315 0
0.410039 -0.170964 0
0.539929 -0.659029 0
-0.69666 0.716087 0
-0.251722 0.0498858 0
0.385456 -0.658647 0
0.00755333 0.00663394 0
-0.0237698 0.0461193 0
0.00038954 0.000279924 0
-0.00291157 0.0046128 0
0.118339 -0.134123 0
-0.000610611 -0.000678457 0
-0.373759 0.282506 0
0.000800651 -0.133833 0
0.569368 -0.359543 0
-0.00266244 0.27882 0
-0.546401 0.252663 0
0.0019184 -0.357228 0
0.159648 0.066842 0
-0.00202607 0.248927 0
0.409851 -0.389531 0
-0.000536084 0.0660504 0
-0.694755 0.388616 0
0.00212431 -0.386171 0
0.382807 -0.0418759 0
-0.00147917 0.385088 0
-0.02181 -0.00621945 0
0.00266705 -0.0372479 0
-0.0027801 -0.000238967 0
0.000535265 -0.00475641 0
