# vtk DataFile Version 3.0
tp3485 cell-vector
ASCII
DATASET UNSTRUCTURED_GRID
POINTS 66 double
0 0 0
0.1 0 0
0.2 0 0
0.3 0 0
0.4 0 0
0.5 0 0
0.6 0 0
0.7 0 0
0.8 0 0
0.9 0 0
1 0 0
0 0.09 0
0.1 0.09 0
0.2 0.09 0
0.3 0.09 0
0.4 0.09 0
0.5 0.09 0
0.6 0.09 0
0.7 0.09 0
0.8 0.09 0
0.9 0.09 0
1 0.09 0
0 0.18 0
0.1 0.18 0
0.2 0.18 0
0.3 0.18 0
0.4 0.18 0
0.5 0.18 0
0.6 0.18 0
0.7 0.18 0
0.8 0.18 0
0.9 0.18 0
1 0.18 0
0 0.27 0
0.1 0.27 0
0.2 0.27 0
0.3 0.27 0
0.4 0.27 0
0.5 0.27 0
0.6 0.27 0
0.7 0.27 0
0.8 0.27 0
0.9 0.27 0
1 0.27 0
0 0.36 0
0.1 0.36 0
0.2 0.36 0
0.3 0.36 0
0.4 0.36 0
0.5 0.36 0
0.6 0.36 0
0.7 0.36 0
0.8 0.36 0
0.9 0.36 0
1 0.36 0
0 0.45 0
0.1 0.45 0
0.2 0.45 0
0.3 0.45 0
0.4 0.45 0
0.5 0.45 0
0.6 0.45 0
0.7 0.45 0
0.8 0.45 0
0.9 0.45 0
1 0.45 0
CELLS 100 400
3 0 1 12
3 0 12 11
3 1 2 13
3 1 13 12
3 2 3 14
3 2 14 13
3 3 4 15
3 3 15 14
3 4 5 16
3 4 16 15
3 5 6 17
3 5 17 16
3 6 7 18
3 6 18 17
3 7 8 19
3 7 19 18
3 8 9 20
3 8 20 19
3 9 10 21
3 9 21 20
3 11 12 23
3 11 23 22
3 12 13 24
3 12 24 23
3 13 14 25
3 13 25 24
3 14 15 26
3 14 26 25
3 15 16 27
3 15 27 26
3 16 17 28
3 16 28 27
3 17 18 29
3 17 29 28
3 18 19 30
3 18 30 29
3 19 20 31
3 19 31 30
3 20 21 32
3 20 32 31
3 22 23 34
3 22 34 33
3 23 24 35
3 23 35 34
3 24 25 36
3 24 36 35
3 25 26 37
3 25 37 36
3 26 27 38
3 26 38 37
3 27 28 39
3 27 39 38
3 28 29 40
3 28 40 39
3 29 30 41
3 29 41 40
3 30 31 42
3 30 42 41
3 31 32 43
3 31 43 42
3 33 34 45
3 33 45 44
3 34 35 46
3 34 46 45
3 35 36 47
3 35 47 46
3 36 37 48
3 36 48 47
3 37 38 49
3 37 49 48
3 38 39 50
3 38 50 49
3 39 40 51
3 39 51 50
3 40 41 52
3 40 52 51
3 41 42 53
3 41 53 52
3 42 43 54
3 42 54 53
3 44 45 56
3 44 56 55
3 45 46 57
3 45 57 56
3 46 47 58
3 46 58 57
3 47 48 59
3 47 59 58
3 48 49 60
3 48 60 59
3 49 50 61
3 49 61 60
3 50 51 62
3 50 62 61
3 51 52 63
3 51 63 62
3 52 53 64
3 52 64 63
3 53 54 65
3 53 65 64
CELL_TYPES 100
5
5
5
5
5
5
5
5
5
5
5
5
5
5
5
5
5
5
5
5
5
5
5
5
5
5
5
5
5
5
5
5
5
5
5
5
5
5
5
5
5
5
5
5
5
5
5
5
5
5
5
5
5
5
5
5
5
5
5
5
5
5
5
5
5
5
5
5
5
5
5
5
5
5
5
5
5
5
5
5
5
5
5
5
5
5
5
5
5
5
5
5
5
5
5
5
5
5
5
5
CELL_DATA 100
VECTORS Et double
-0.0762071 0.586122 0
0.173234 0.112145 0
0.0454096 0.515156 0
-0.0375201 0.664276 0
0.111371 -0.257389 0
-0.211602 0.344958 0
0.0337668 -0.844658 0
-0.200318 -0.46409 0
-0.100735 -0.591974 0
-0.061269 -0.814965 0
-0.0508337 -0.166846 0
0.0245053 -0.393542 0
-0.014536 -0.0344014 0
-0.00505104 -0.0857276 0
-0.00413602 -0.0038903 0
-0.00780584 -0.0113293 0
-0.00119523 0.000907408 0
-0.00569045 0.00263967 0
-0.000437592 -0.000486213 0
-0.00440536 0.00283582 0
-0.0138346 0.603603 0
0.210446 0.129347 0
0.0135431 0.600653 0
-0.0283381 0.698358 0
0.0194181 -0.158308 0
-0.257545 0.418406 0
-0.0755877 -0.783274 0
-0.274303 -0.401049 0
-0.213007 -0.592776 0
-0.172864 -0.788837 0
-0.101133 -0.175783 0
-0.011023 -0.410194 0
-0.0409659 -0.0415611 0
-0.0234322 -0.0995005 0
-0.0179725 -0.0080549 0
-0.0172847 -0.0197432 0
-0.00858282 -0.00106594 0
-0.0107166 -0.00182704 0
-0.00538118 -0.000483861 0
-0.00749554 0.000797483 0
-0.00886199 0.713788 0
0.255184 0.153038 0
0.0175838 0.752008 0
-0.0193098 0.835595 0
0.00379069 -0.0603281 0
-0.273783 0.554183 0
-0.102745 -0.79736 0
-0.302176 -0.354807 0
-0.295312 -0.610385 0
-0.177047 -0.854978 0
-0.12824 -0.199483 0
-0.0149962 -0.449379 0
-0.0571799 -0.0572658 0
-0.0252145 -0.128765 0
-0.0269222 -0.0163981 0
-0.0180003 -0.0367138 0
-0.0135107 -0.00445432 0
-0.0109011 -0.0104223 0
-0.00847543 -0.000504693 0
-0.00757976 -0.00260349 0
-0.00571098 0.749766 0
0.225393 0.17807 0
0.0173128 0.864264 0
0.00851041 0.904412 0
0.021417 0.0432479 0
-0.222287 0.655185 0
-0.0760842 -0.749348 0
-0.228234 -0.301107 0
-0.264824 -0.619903 0
-0.120703 -0.857393 0
-0.123282 -0.22184 0
0.00562278 -0.479971 0
-0.0567491 -0.0724618 0
-0.0117906 -0.156164 0
-0.0271665 -0.0245403 0
-0.010402 -0.0531026 0
-0.0136316 -0.00788531 0
-0.00652909 -0.0187966 0
-0.00858473 -0.00051772 0
-0.0046374 -0.00604459 0
-0.0739733 0.817964 0
0.174364 0.193737 0
0.0316404 0.975398 0
0.0244592 0.999701 0
0.0959974 0.137413 0
-0.148524 0.76687 0
0.0414176 -0.774579 0
-0.161319 -0.23457 0
-0.182019 -0.661134 0
-0.00431756 -0.91488 0
-0.09595 -0.247142 0
0.0609098 -0.532359 0
-0.0415346 -0.0861395 0
0.0176811 -0.184247 0
-0.0191688 -0.0309305 0
0.00524893 -0.0676411 0
-0.00920858 -0.0104125 0
0.00160905 -0.025395 0
-0.00566352 -0.000516907 0
0.000573215 -0.00860043 0
