# vtk DataFile Version 3.0
tp3485 cell-vector
ASCII
DATASET UNSTRUCTURED_GRID
POINTS 66 double
0 0 0
0.1 0 0
0.2 0 0
0.3 0 0
0.4 0 0
0.5 0 0
0.6 0 0
0.7 0 0
0.8 0 0
0.9 0 0
1 0 0
0 0.09 0
0.1 0.09 0
0.2 0.09 0
0.3 0.09 0
0.4 0.09 0
0.5 0.09 0
0.6 0.09 0
0.7 0.09 0
0.8 0.09 0
0.9 0.09 0
1 0.09 0
0 0.18 0
0.1 0.18 0
0.2 0.18 0
0.3 0.18 0
0.4 0.18 0
0.5 0.18 0
0.6 0.18 0
0.7 0.18 0
0.8 0.18 0
0.9 0.18 0
1 0.18 0
0 0.27 0
0.1 0.27 0
0.2 0.27 0
0.3 0.27 0
0.4 0.27 0
0.5 0.27 0
0.6 0.27 0
0.7 0.27 0
0.8 0.27 0
0.9 0.27 0
1 0.27 0
0 0.36 0
0.1 0.36 0
0.2 0.36 0
0.3 0.36 0
0.4 0.36 0
0.5 0.36 0
0.6 0.36 0
0.7 0.36 0
0.8 0.36 0
0.9 0.36 0
1 0.36 0
0 0.45 0
0.1 0.45 0
0.2 0.45 0
0.3 0.45 0
0.4 0.45 0
0.5 0.45 0
0.6 0.45 0
0.7 0.45 0
0.8 0.45 0
0.9 0.45 0
1 0.45 0
CELLS 100 400
3 0 1 12
3 0 12 11
3 1 2 13
3 1 13 12
3 2 3 14
3 2 14 13
3 3 4 15
3 3 15 14
3 4 5 16
3 4 16 15
3 5 6 17
3 5 17 16
3 6 7 18
3 6 18 17
3 7 8 19
3 7 19 18
3 8 9 20
3 8 20 19
3 9 10 21
3 9 21 20
3 11 12 23
3 11 23 22
3 12 13 24
3 12 24 23
3 13 14 25
3 13 25 24
3 14 15 26
3 14 26 25
3 15 16 27
3 15 27 26
3 16 17 28
3 16 28 27
3 17 18 29
3 17 29 28
3 18 19 30
3 18 30 29
3 19 20 31
3 19 31 30
3 20 21 32
3 20 32 31
3 22 23 34
3 22 34 33
3 23 24 35
3 23 35 34
3 24 25 36
3 24 36 35
3 25 26 37
3 25 37 36
3 26 27 38
3 26 38 37
3 27 28 39
3 27 39 38
3 28 29 40
3 28 40 39
3 29 30 41
3 29 41 40
3 30 31 42
3 30 42 41
3 31 32 43
3 31 43 42
3 33 34 45
3 33 45 44
3 34 35 46
3 34 46 45
3 35 36 47
3 35 47 46
3 36 37 48
3 36 48 47
3 37 38 49
3 37 49 48
3 38 39 50
3 38 50 49
3 39 40 51
3 39 51 50
3 40 41 52
3 40 52 51
3 41 42 53
3 41 53 52
3 42 43 54
3 42 54 53
3 44 45 56
3 44 56 55
3 45 46 57
3 45 57 56
3 46 47 58
3 46 58 57
3 47 48 59
3 47 59 58
3 48 49 60
3 48 60 59
3 49 50 61
3 49 61 60
3 50 51 62
3 50 62 61
3 51 52 63
3 51 63 62
3 52 53 64
3 52 64 63
3 53 54 65
3 53 65 64
CELL_TYPES 100
5
5
5
5
5
5
5
5
5
5
5
5
5
5
5
5
5
5
5
5
5
5
5
5
5
5
5
5
5
5
5
5
5
5
5
5
5
5
5
5
5
5
5
5
5
5
5
5
5
5
5
5
5
5
5
5
5
5
5
5
5
5
5
5
5
5
5
5
5
5
5
5
5
5
5
5
5
5
5
5
5
5
5
5
5
5
5
5
5
5
5
5
5
5
5
5
5
5
5
5
CELL_DATA 100
VECTORS Et double
0.00338223 -0.00653866 0
0.00760509 -0.00373635 0
0.00184491 -0.015529 0
0.00366311 -0.012898 0
-0.000460791 -0.0197188 0
-0.00212407 -0.0179808 0
-0.00258649 -0.0175687 0
-0.00732487 -0.0171923 0
-0.000727651 -0.457354 0
-0.402023 -0.0134871 0
-0.000283301 -0.830132 0
-0.337972 -0.455892 0
-0.000110702 -0.996321 0
-0.150825 -0.829401 0
-0.000157907 -0.894447 0
0.0906864 -0.995879 0
-0.000332399 -0.546904 0
0.311467 -0.893994 0
-0.00039522 -0.000439134 0
0.490055 -0.546179 0
0.0132213 -0.00328017 0
0.0159253 -0.00189032 0
0.0073153 -0.00905456 0
0.00825292 -0.00721188 0
-0.00199379 -0.0126816 0
-0.00356641 -0.0108513 0
-0.010956 -0.0119147 0
-0.0142439 -0.011353 0
-0.403679 -0.279467 0
-0.64826 -0.00911875 0
-0.33877 -0.491859 0
-0.531667 -0.278298 0
-0.15137 -0.569733 0
-0.222564 -0.491221 0
0.0900822 -0.492761 0
0.158177 -0.56916 0
0.310723 -0.28377 0
0.49731 -0.492023 0
0.489134 -0.000668373 0
0.741999 -0.282759 0
0.0177876 0.00185646 0
0.018165 0.000807991 0
0.00981119 0.00156653 0
0.00940141 0.00200151 0
-0.00310582 -0.00114831 0
-0.00469064 0.0010236 0
-0.0155461 -0.00518298 0
-0.0186043 -0.00174023 0
-0.648836 -0.0262387 0
-0.667882 -0.00487378 0
-0.532008 -0.0238094 0
-0.529529 -0.0263908 0
-0.222941 -0.006149 0
-0.206892 -0.0239804 0
0.157546 0.0110471 0
0.172598 -0.00606539 0
0.496416 0.0186695 0
0.502097 0.0115573 0
0.740833 -0.000834077 0
0.721296 0.0196582 0
0.0153568 0.00706806 0
0.0136646 0.00331805 0
0.00827922 0.0128812 0
0.00706772 0.0113424 0
-0.00380293 0.0122314 0
-0.00416372 0.0135917 0
-0.0166447 0.00501911 0
-0.017117 0.00939271 0
-0.666824 0.243442 0
-0.447591 0.00211014 0
-0.528973 0.460424 0
-0.330752 0.241556 0
-0.206712 0.557098 0
-0.118087 0.459316 0
0.172323 0.498745 0
0.120155 0.556692 0
0.501417 0.301876 0
0.323374 0.49906 0
0.720223 -0.000810959 0
0.44595 0.302781 0
0.00705432 0.0102786 0
0.00422703 0.0046967 0
0.00371703 0.020595 0
0.00259765 0.0171916 0
-0.0028244 0.023567 0
-0.000195442 0.0221388 0
-0.0118344 0.0219891 0
-0.00290206 0.0190668 0
-0.44467 0.503744 0
-0.00193531 0.0160608 0
-0.328955 0.861473 0
-0.00133842 0.500162 0
-0.11709 0.986803 0
-0.000884524 0.85927 0
0.12041 0.850797 0
-0.000465115 0.985684 0
0.322981 0.492006 0
-6.47443e-05 0.850661 0
0.445039 -0.000668646 0
0.000235899 0.492626 0
