# vtk DataFile Version 3.0
tp3485 cell-vector
ASCII
DATASET UNSTRUCTURED_GRID
POINTS 66 double
0 0 0
0.1 0 0
0.2 0 0
0.3 0 0
0.4 0 0
0.5 0 0
0.6 0 0
0.7 0 0
0.8 0 0
0.9 0 0
1 0 0
0 0.09 0
0.1 0.09 0
0.2 0.09 0
0.3 0.09 0
0.4 0.09 0
0.5 0.09 0
0.6 0.09 0
0.7 0.09 0
0.8 0.09 0
0.9 0.09 0
1 0.09 0
0 0.18 0
0.1 0.18 0
0.2 0.18 0
0.3 0.18 0
0.4 0.18 0
0.5 0.18 0
0.6 0.18 0
0.7 0.18 0
0.8 0.18 0
0.9 0.18 0
1 0.18 0
0 0.27 0
0.1 0.27 0
0.2 0.27 0
0.3 0.27 0
0.4 0.27 0
0.5 0.27 0
0.6 0.27 0
0.7 0.27 0
0.8 0.27 0
0.9 0.27 0
1 0.27 0
0 0.36 0
0.1 0.36 0
0.2 0.36 0
0.3 0.36 0
0.4 0.36 0
0.5 0.36 0
0.6 0.36 0
0.7 0.36 0
0.8 0.36 0
0.9 0.36 0
1 0.36 0
0 0.45 0
0.1 0.45 0
0.2 0.45 0
0.3 0.45 0
0.4 0.45 0
0.5 0.45 0
0.6 0.45 0
0.7 0.45 0
0.8 0.45 0
0.9 0.45 0
1 0.45 0
CELLS 100 400
3 0 1 12
3 0 12 11
3 1 2 13
3 1 13 12
3 2 3 14
3 2 14 13
3 3 4 15
3 3 15 14
3 4 5 16
3 4 16 15
3 5 6 17
3 5 17 16
3 6 7 18
3 6 18 17
3 7 8 19
3 7 19 18
3 8 9 20
3 8 20 19
3 9 10 21
3 9 21 20
3 11 12 23
3 11 23 22
3 12 13 24
3 12 24 23
3 13 14 25
3 13 25 24
3 14 15 26
3 14 26 25
3 15 16 27
3 15 27 26
3 16 17 28
3 16 28 27
3 17 18 29
3 17 29 28
3 18 19 30
3 18 30 29
3 19 20 31
3 19 31 30
3 20 21 32
3 20 32 31
3 22 23 34
3 22 34 33
3 23 24 35
3 23 35 34
3 24 25 36
3 24 36 35
3 25 26 37
3 25 37 36
3 26 27 38
3 26 38 37
3 27 28 39
3 27 39 38
3 28 29 40
3 28 40 39
3 29 30 41
3 29 41 40
3 30 31 42
3 30 42 41
3 31 32 43
3 31 43 42
3 33 34 45
3 33 45 44
3 34 35 46
3 34 46 45
3 35 36 47
3 35 47 46
3 36 37 48
3 36 48 47
3 37 38 49
3 37 49 48
3 38 39 50
3 38 50 49
3 39 40 51
3 39 51 50
3 40 41 52
3 40 52 51
3 41 42 53
3 41 53 52
3 42 43 54
3 42 54 53
3 44 45 56
3 44 56 55
3 45 46 57
3 45 57 56
3 46 47 58
3 46 58 57
3 47 48 59
3 47 59 58
3 48 49 60
3 48 60 59
3 49 50 61
3 49 61 60
3 50 51 62
3 50 62 61
3 51 52 63
3 51 63 62
3 52 53 64
3 52 64 63
3 53 54 65
3 53 65 64
CELL_TYPES 100
5
5
5
5
5
5
5
5
5
5
5
5
5
5
5
5
5
5
5
5
5
5
5
5
5
5
5
5
5
5
5
5
5
5
5
5
5
5
5
5
5
5
5
5
5
5
5
5
5
5
5
5
5
5
5
5
5
5
5
5
5
5
5
5
5
5
5
5
5
5
5
5
5
5
5
5
5
5
5
5
5
5
5
5
5
5
5
5
5
5
5
5
5
5
5
5
5
5
5
5
CELL_DATA 100
VECTORS Et double
-0.0141764 -0.000720769 0
-0.0542143 0.0140071 0
-0.00620469 -0.0454936 0
-0.0755634 0.0198542 0
-0.0131019 -0.192816 0
-0.162602 -0.039931 0
-0.0046216 -0.0217981 0
0.121828 -0.172845 0
-0.000314335 -0.00619667 0
0.00901602 -0.016788 0
-0.000130318 -0.00406651 0
0.00118583 -0.00576055 0
-0.00011273 -0.00230185 0
0.000967178 -0.00377436 0
-8.06393e-05 -0.00123734 0
0.00049226 -0.00207004 0
-5.68605e-05 -0.000557356 0
0.000287114 -0.00107523 0
-4.6317e-05 -5.14634e-05 0
0.000207491 -0.000439556 0
-0.0632293 0.0714076 0
0.0146519 -0.0055683 0
-0.0622803 0.201245 0
0.0944617 0.0570433 0
-0.11188 0.613778 0
0.360733 0.162671 0
0.130619 0.0380421 0
-0.262217 0.524229 0
0.00965921 -0.00426645 0
-0.0122453 0.0217617 0
0.000959135 -0.00302861 0
0.00178674 -0.00448465 0
0.00069817 -0.00195515 0
0.00100286 -0.00265441 0
0.000306722 -0.00107428 0
0.0006476 -0.00167812 0
0.000161597 -0.000486855 0
0.000397564 -0.000895337 0
0.00011032 -5.33466e-05 0
0.000288482 -0.000362274 0
0.0201956 -0.0769789 0
-0.039301 -0.0051401 0
0.0872618 -0.300869 0
-0.130875 -0.0772196 0
0.306144 -0.951985 0
-0.421472 -0.252833 0
-0.253023 -0.0788905 0
0.323078 -0.807824 0
-0.0134946 -0.00822447 0
0.0159156 -0.0489871 0
0.000944458 -0.00343716 0
0.0010382 -0.00492103 0
0.000610846 -0.00175727 0
0.000859805 -0.00256651 0
0.000426517 -0.000934241 0
0.000577459 -0.0013765 0
0.000259467 -0.000423673 0
0.000383469 -0.000724816 0
0.000185443 -5.6864e-05 0
0.000286124 -0.000287583 0
-0.0215653 0.0857682 0
0.0795627 -0.00601502 0
-0.102656 0.230767 0
0.102513 0.0528548 0
-0.388227 0.770926 0
0.256255 0.160249 0
0.27695 0.0305238 0
-0.216866 0.648396 0
0.0108594 -0.00502019 0
-0.00349309 0.0140843 0
-6.94245e-05 -0.00322672 0
0.000595971 -0.00469002 0
0.000362259 -0.00163827 0
0.000657835 -0.00251231 0
0.000316832 -0.000801298 0
0.000422415 -0.00122274 0
0.000230402 -0.000355427 0
0.000263236 -0.000569407 0
0.000175926 -6.04559e-05 0
0.000196119 -0.000208981 0
0.0729024 -0.00745757 0
0.0180389 0.0200432 0
0.111739 -0.0719823 0
0.0114355 0.0186639 0
0.273771 -0.299143 0
0.0148744 -0.0473593 0
-0.167671 -0.016678 0
0.022664 -0.25461 0
-0.00103123 -0.0064005 0
0.00222643 -0.0129374 0
-8.61146e-05 -0.00305133 0
0.000708224 -0.00517015 0
0.00015659 -0.00150985 0
0.000302471 -0.00226595 0
0.000142124 -0.000739746 0
0.000158274 -0.00107606 0
9.99646e-05 -0.000323478 0
9.00296e-05 -0.000497201 0
8.05129e-05 -6.28183e-05 0
6.07712e-05 -0.000171225 0
