# vtk DataFile Version 3.0
tp3485 cell-vector
ASCII
DATASET UNSTRUCTURED_GRID
POINTS 66 double
0 0 0
0.1 0 0
0.2 0 0
0.3 0 0
0.4 0 0
0.5 0 0
0.6 0 0
0.7 0 0
0.8 0 0
0.9 0 0
1 0 0
0 0.09 0
0.1 0.09 0
0.2 0.09 0
0.3 0.09 0
0.4 0.09 0
0.5 0.09 0
0.6 0.09 0
0.7 0.09 0
0.8 0.09 0
0.9 0.09 0
1 0.09 0
0 0.18 0
0.1 0.18 0
0.2 0.18 0
0.3 0.18 0
0.4 0.18 0
0.5 0.18 0
0.6 0.18 0
0.7 0.18 0
0.8 0.18 0
0.9 0.18 0
1 0.18 0
0 0.27 0
0.1 0.27 0
0.2 0.27 0
0.3 0.27 0
0.4 0.27 0
0.5 0.27 0
0.6 0.27 0
0.7 0.27 0
0.8 0.27 0
0.9 0.27 0
1 0.27 0
0 0.36 0
0.1 0.36 0
0.2 0.36 0
0.3 0.36 0
0.4 0.36 0
0.5 0.36 0
0.6 0.36 0
0.7 0.36 0
0.8 0.36 0
0.9 0.36 0
1 0.36 0
0 0.45 0
0.1 0.45 0
0.2 0.45 0
0.3 0.45 0
0.4 0.45 0
0.5 0.45 0
0.6 0.45 0
0.7 0.45 0
0.8 0.45 0
0.9 0.45 0
1 0.45 0
CELLS 100 400
3 0 1 12
3 0 12 11
3 1 2 13
3 1 13 12
3 2 3 14
3 2 14 13
3 3 4 15
3 3 15 14
3 4 5 16
3 4 16 15
3 5 6 17
3 5 17 16
3 6 7 18
3 6 18 17
3 7 8 19
3 7 19 18
3 8 9 20
3 8 20 19
3 9 10 21
3 9 21 20
3 11 12 23
3 11 23 22
3 12 13 24
3 12 24 23
3 13 14 25
3 13 25 24
3 14 15 26
3 14 26 25
3 15 16 27
3 15 27 26
3 16 17 28
3 16 28 27
3 17 18 29
3 17 29 28
3 18 19 30
3 18 30 29
3 19 20 31
3 19 31 30
3 20 21 32
3 20 32 31
3 22 23 34
3 22 34 33
3 23 24 35
3 23 35 34
3 24 25 36
3 24 36 35
3 25 26 37
3 25 37 36
3 26 27 38
3 26 38 37
3 27 28 39
3 27 39 38
3 28 29 40
3 28 40 39
3 29 30 41
3 29 41 40
3 30 31 42
3 30 42 41
3 31 32 43
3 31 43 42
3 33 34 45
3 33 45 44
3 34 35 46
3 34 46 45
3 35 36 47
3 35 47 46
3 36 37 48
3 36 48 47
3 37 38 49
3 37 49 48
3 38 39 50
3 38 50 49
3 39 40 51
3 39 51 50
3 40 41 52
3 40 52 51
3 41 42 53
3 41 53 52
3 42 43 54
3 42 54 53
3 44 45 56
3 44 56 55
3 45 46 57
3 45 57 56
3 46 47 58
3 46 58 57
3 47 48 59
3 47 59 58
3 48 49 60
3 48 60 59
3 49 50 61
3 49 61 60
3 50 51 62
3 50 62 61
3 51 52 63
3 51 63 62
3 52 53 64
3 52 64 63
3 53 54 65
3 53 65 64
CELL_TYPES 100
5
5
5
5
5
5
5
5
5
5
5
5
5
5
5
5
5
5
5
5
5
5
5
5
5
5
5
5
5
5
5
5
5
5
5
5
5
5
5
5
5
5
5
5
5
5
5
5
5
5
5
5
5
5
5
5
5
5
5
5
5
5
5
5
5
5
5
5
5
5
5
5
5
5
5
5
5
5
5
5
5
5
5
5
5
5
5
5
5
5
5
5
5
5
5
5
5
5
5
5
CELL_DATA 100
VECTORS Et double
0.0199558 0.0484828 0
0.117487 -0.0188563 0
0.0201373 0.142765 0
0.174554 0.00993734 0
0.0298897 0.36507 0
0.313734 0.101644 0
0.0606798 0.833791 0
0.636486 0.296643 0
0.0368026 0.158341 0
-0.382751 0.715886 0
0.00931804 0.0290264 0
-0.0389851 0.105249 0
0.00251064 0.00971445 0
0.00262771 0.0155235 0
0.000928283 0.00565428 0
0.00275019 0.0057931 0
0.000536162 0.00305941 0
0.000794446 0.00399551 0
0.000441161 0.000490179 0
-1.85942e-06 0.00196814 0
0.137132 -0.0487652 0
0.093677 0.0012447 0
0.184354 -0.0894479 0
0.129297 -0.042747 0
0.317417 -0.147626 0
0.208386 -0.062549 0
0.649505 -0.392925 0
0.335871 -0.0990828 0
-0.341737 -0.0168543 0
-0.0881376 -0.337859 0
-0.027998 0.0113807 0
-0.0198476 -0.00480473 0
0.00587122 0.0105178 0
0.00341894 0.0125346 0
0.00422905 0.00709943 0
0.00232105 0.00989713 0
0.00179431 0.0035992 0
0.000295073 0.00616832 0
0.000859747 0.000461805 0
-0.000301258 0.0026646 0
0.0809111 -0.105875 0
-0.046271 0.0112495 0
0.0974475 -0.214631 0
-0.0724407 -0.0725998 0
0.147207 -0.390841 0
-0.143518 -0.151303 0
0.239923 -0.79201 0
-0.332112 -0.286708 0
-0.154897 -0.147192 0
0.209665 -0.655706 0
-0.0343845 -0.00263761 0
0.0240482 -0.0919536 0
0.000914322 0.0113613 0
-0.00137381 0.00932984 0
0.00251848 0.00800726 0
-0.00231187 0.0132047 0
0.00102687 0.00399008 0
-0.00155376 0.00760253 0
0.000506592 0.000446627 0
-0.00111796 0.00314749 0
-0.0615115 -0.053268 0
-0.114028 -0.000300416 0
-0.103032 -0.100118 0
-0.169592 -0.0437003 0
-0.198239 -0.173567 0
-0.31421 -0.0775227 0
-0.417244 -0.340107 0
-0.641878 -0.138614 0
0.133364 -0.049961 0
0.317628 -0.28949 0
0.00600496 0.00860853 0
0.032274 -0.0270089 0
-0.00449131 0.0114456 0
-0.00594772 0.0129166 0
-0.00220426 0.00732238 0
-0.00499841 0.0113628 0
-0.000805175 0.00366861 0
-0.00233908 0.00641657 0
-0.000274962 0.000487499 0
-0.00133201 0.002669 0
-0.10174 0.0521713 0
-0.0142563 -0.0158403 0
-0.158751 0.147929 0
-0.0154055 0.0217016 0
-0.29754 0.357455 0
-0.023305 0.106106 0
-0.602736 0.797941 0
-0.0441556 0.280931 0
0.33173 0.157956 0
-0.0562674 0.680849 0
0.0374492 0.0304798 0
-0.0147277 0.112326 0
-0.00340238 0.0105046 0
-0.00413479 0.0183773 0
-0.00349859 0.00598191 0
-0.00146168 0.00641573 0
-0.00123152 0.0031545 0
-0.000736698 0.00409037 0
-0.000364885 0.00055508 0
-0.000534796 0.00189317 0
