# vtk DataFile Version 3.0
tp3485 cell-vector
ASCII
DATASET UNSTRUCTURED_GRID
POINTS 66 double
0 0 0
0.1 0 0
0.2 0 0
0.3 0 0
0.4 0 0
0.5 0 0
0.6 0 0
0.7 0 0
0.8 0 0
0.9 0 0
1 0 0
0 0.09 0
0.1 0.09 0
0.2 0.09 0
0.3 0.09 0
0.4 0.09 0
0.5 0.09 0
0.6 0.09 0
0.7 0.09 0
0.8 0.09 0
0.9 0.09 0
1 0.09 0
0 0.18 0
0.1 0.18 0
0.2 0.18 0
0.3 0.18 0
0.4 0.18 0
0.5 0.18 0
0.6 0.18 0
0.7 0.18 0
0.8 0.18 0
0.9 0.18 0
1 0.18 0
0 0.27 0
0.1 0.27 0
0.2 0.27 0
0.3 0.27 0
0.4 0.27 0
0.5 0.27 0
0.6 0.27 0
0.7 0.27 0
0.8 0.27 0
0.9 0.27 0
1 0.27 0
0 0.36 0
0.1 0.36 0
0.2 0.36 0
0.3 0.36 0
0.4 0.36 0
0.5 0.36 0
0.6 0.36 0
0.7 0.36 0
0.8 0.36 0
0.9 0.36 0
1 0.36 0
0 0.45 0
0.1 0.45 0
0.2 0.45 0
0.3 0.45 0
0.4 0.45 0
0.5 0.45 0
0.6 0.45 0
0.7 0.45 0
0.8 0.45 0
0.9 0.45 0
1 0.45 0
CELLS 100 400
3 0 1 12
3 0 12 11
3 1 2 13
3 1 13 12
3 2 3 14
3 2 14 13
3 3 4 15
3 3 15 14
3 4 5 16
3 4 16 15
3 5 6 17
3 5 17 16
3 6 7 18
3 6 18 17
3 7 8 19
3 7 19 18
3 8 9 20
3 8 20 19
3 9 10 21
3 9 21 20
3 11 12 23
3 11 23 22
3 12 13 24
3 12 24 23
3 13 14 25
3 13 25 24
3 14 15 26
3 14 26 25
3 15 16 27
3 15 27 26
3 16 17 28
3 16 28 27
3 17 18 29
3 17 29 28
3 18 19 30
3 18 30 29
3 19 20 31
3 19 31 30
3 20 21 32
3 20 32 31
3 22 23 34
3 22 34 33
3 23 24 35
3 23 35 34
3 24 25 36
3 24 36 35
3 25 26 37
3 25 37 36
3 26 27 38
3 26 38 37
3 27 28 39
3 27 39 38
3 28 29 40
3 28 40 39
3 29 30 41
3 29 41 40
3 30 31 42
3 30 42 41
3 31 32 43
3 31 43 42
3 33 34 45
3 33 45 44
3 34 35 46
3 34 46 45
3 35 36 47
3 35 47 46
3 36 37 48
3 36 48 47
3 37 38 49
3 37 49 48
3 38 39 50
3 38 50 49
3 39 40 51
3 39 51 50
3 40 41 52
3 40 52 51
3 41 42 53
3 41 53 52
3 42 43 54
3 42 54 53
3 44 45 56
3 44 56 55
3 45 46 57
3 45 57 56
3 46 47 58
3 46 58 57
3 47 48 59
3 47 59 58
3 48 49 60
3 48 60 59
3 49 50 61
3 49 61 60
3 50 51 62
3 50 62 61
3 51 52 63
3 51 63 62
3 52 53 64
3 52 64 63
3 53 54 65
3 53 65 64
CELL_TYPES 100
5
5
5
5
5
5
5
5
5
5
5
5
5
5
5
5
5
5
5
5
5
5
5
5
5
5
5
5
5
5
5
5
5
5
5
5
5
5
5
5
5
5
5
5
5
5
5
5
5
5
5
5
5
5
5
5
5
5
5
5
5
5
5
5
5
5
5
5
5
5
5
5
5
5
5
5
5
5
5
5
5
5
5
5
5
5
5
5
5
5
5
5
5
5
5
5
5
5
5
5
CELL_DATA 100
VECTORS Et double
-0.105087 -0.116732 0
-0.511606 0.109096 0
-0.10549 -0.116626 0
-0.513221 0.109614 0
-0.105694 -0.111617 0
-0.510244 0.110516 0
-0.105508 -0.106445 0
-0.509815 0.115687 0
-0.105011 -0.103835 0
-0.510111 0.120192 0
-0.104429 -0.104878 0
-0.510569 0.1216 0
-0.104029 -0.108837 0
-0.510844 0.119373 0
-0.103989 -0.113557 0
-0.510719 0.114786 0
-0.104277 -0.119196 0
-0.512485 0.110245 0
-0.104731 -0.116368 0
-0.507018 0.105458 0
-0.681406 -0.0779227 0
-0.93056 0.0596713 0
-0.683975 -0.075459 0
-0.93417 0.0620193 0
-0.681549 -0.0696656 0
-0.930236 0.0654663 0
-0.680892 -0.0642889 0
-0.929954 0.0714844 0
-0.680283 -0.0616599 0
-0.930353 0.0762253 0
-0.67958 -0.0628572 0
-0.930868 0.0776674 0
-0.678972 -0.0672259 0
-0.931175 0.0752915 0
-0.678654 -0.0728143 0
-0.931217 0.0703082 0
-0.68097 -0.0782508 0
-0.934199 0.0649564 0
-0.676599 -0.0796335 0
-0.92832 0.0605594 0
-0.995125 -0.0108661 0
-0.993387 -0.0124329 0
-0.999975 -0.00713077 0
-0.997975 -0.0104484 0
-0.996668 -0.00122958 0
-0.994363 -0.00560428 0
-0.996197 0.00406384 0
-0.994499 0.000560097 0
-0.99571 0.00659123 0
-0.99507 0.00524066 0
-0.99507 0.00524066 0
-0.99571 0.00659123 0
-0.994499 0.000560097 0
-0.996197 0.00406384 0
-0.994363 -0.00560428 0
-0.996668 -0.00122958 0
-0.997975 -0.0104484 0
-0.999975 -0.00713077 0
-0.993387 -0.0124329 0
-0.995125 -0.0108661 0
-0.92832 0.0605594 0
-0.676599 -0.0796335 0
-0.934199 0.0649564 0
-0.68097 -0.0782508 0
-0.931217 0.0703082 0
-0.678654 -0.0728143 0
-0.931175 0.0752915 0
-0.678972 -0.0672259 0
-0.930868 0.0776674 0
-0.67958 -0.0628572 0
-0.930353 0.0762253 0
-0.680283 -0.0616599 0
-0.929954 0.0714844 0
-0.680892 -0.0642889 0
-0.930236 0.0654663 0
-0.681549 -0.0696656 0
-0.93417 0.0620193 0
-0.683975 -0.075459 0
-0.93056 0.0596713 0
-0.681406 -0.0779227 0
-0.507018 0.105458 0
-0.104731 -0.116368 0
-0.512485 0.110245 0
-0.104277 -0.119196 0
-0.510719 0.114786 0
-0.103989 -0.113557 0
-0.510844 0.119373 0
-0.104029 -0.108837 0
-0.510569 0.1216 0
-0.104429 -0.104878 0
-0.510111 0.120192 0
-0.105011 -0.103835 0
-0.509815 0.115687 0
-0.105508 -0.106445 0
-0.510244 0.110516 0
-0.105694 -0.111617 0
-0.513221 0.109614 0
-0.10549 -0.116626 0
-0.511606 0.109096 0
-0.105087 -0.116732 0
