# vtk DataFile Version 3.0
tp3485 cell-vector
ASCII
DATASET UNSTRUCTURED_GRID
POINTS 66 double
0 0 0
0.1 0 0
0.2 0 0
0.3 0 0
0.4 0 0
0.5 0 0
0.6 0 0
0.7 0 0
0.8 0 0
0.9 0 0
1 0 0
0 0.09 0
0.1 0.09 0
0.2 0.09 0
0.3 0.09 0
0.4 0.09 0
0.5 0.09 0
0.6 0.09 0
0.7 0.09 0
0.8 0.09 0
0.9 0.09 0
1 0.09 0
0 0.18 0
0.1 0.18 0
0.2 0.18 0
0.3 0.18 0
0.4 0.18 0
0.5 0.18 0
0.6 0.18 0
0.7 0.18 0
0.8 0.18 0
0.9 0.18 0
1 0.18 0
0 0.27 0
0.1 0.27 0
0.2 0.27 0
0.3 0.27 0
0.4 0.27 0
0.5 0.27 0
0.6 0.27 0
0.7 0.27 0
0.8 0.27 0
0.9 0.27 0
1 0.27 0
0 0.36 0
0.1 0.36 0
0.2 0.36 0
0.3 0.36 0
0.4 0.36 0
0.5 0.36 0
0.6 0.36 0
0.7 0.36 0
0.8 0.36 0
0.9 0.36 0
1 0.36 0
0 0.45 0
0.1 0.45 0
0.2 0.45 0
0.3 0.45 0
0.4 0.45 0
0.5 0.45 0
0.6 0.45 0
0.7 0.45 0
0.8 0.45 0
0.9 0.45 0
1 0.45 0
CELLS 100 400
3 0 1 12
3 0 12 11
3 1 2 13
3 1 13 12
3 2 3 14
3 2 14 13
3 3 4 15
3 3 15 14
3 4 5 16
3 4 16 15
3 5 6 17
3 5 17 16
3 6 7 18
3 6 18 17
3 7 8 19
3 7 19 18
3 8 9 20
3 8 20 19
3 9 10 21
3 9 21 20
3 11 12 23
3 11 23 22
3 12 13 24
3 12 24 23
3 13 14 25
3 13 25 24
3 14 15 26
3 14 26 25
3 15 16 27
3 15 27 26
3 16 17 28
3 16 28 27
3 17 18 29
3 17 29 28
3 18 19 30
3 18 30 29
3 19 20 31
3 19 31 30
3 20 21 32
3 20 32 31
3 22 23 34
3 22 34 33
3 23 24 35
3 23 35 34
3 24 25 36
3 24 36 35
3 25 26 37
3 25 37 36
3 26 27 38
3 26 38 37
3 27 28 39
3 27 39 38
3 28 29 40
3 28 40 39
3 29 30 41
3 29 41 40
3 30 31 42
3 30 42 41
3 31 32 43
3 31 43 42
3 33 34 45
3 33 45 44
3 34 35 46
3 34 46 45
3 35 36 47
3 35 47 46
3 36 37 48
3 36 48 47
3 37 38 49
3 37 49 48
3 38 39 50
3 38 50 49
3 39 40 51
3 39 51 50
3 40 41 52
3 40 52 51
3 41 42 53
3 41 53 52
3 42 43 54
3 42 54 53
3 44 45 56
3 44 56 55
3 45 46 57
3 45 57 56
3 46 47 58
3 46 58 57
3 47 48 59
3 47 59 58
3 48 49 60
3 48 60 59
3 49 50 61
3 49 61 60
3 50 51 62
3 50 62 61
3 51 52 63
3 51 63 62
3 52 53 64
3 52 64 63
3 53 54 65
3 53 65 64
CELL_TYPES 100
5
5
5
5
5
5
5
5
5
5
5
5
5
5
5
5
5
5
5
5
5
5
5
5
5
5
5
5
5
5
5
5
5
5
5
5
5
5
5
5
5
5
5
5
5
5
5
5
5
5
5
5
5
5
5
5
5
5
5
5
5
5
5
5
5
5
5
5
5
5
5
5
5
5
5
5
5
5
5
5
5
5
5
5
5
5
5
5
5
5
5
5
5
5
5
5
5
5
5
5
CELL_DATA 100
VECTORS Et double
0.229435 0.0568272 0
0.852879 -0.19048 0
0.161039 -0.433648 0
0.436471 -0.379426 0
-0.0219255 -0.923709 0
-0.2167 -0.672117 0
-0.0478186 -0.266121 0
0.360331 -0.83605 0
-0.0157411 -0.108754 0
0.0264455 -0.193054 0
-0.00665165 -0.0721116 0
-0.0105116 -0.083239 0
-0.00414432 -0.0543454 0
-0.00759907 -0.0599163 0
-0.00340973 -0.0381554 0
-0.00330707 -0.0458993 0
-0.00319423 -0.0211686 0
-0.000906355 -0.0308133 0
-0.00313853 -0.00348726 0
0.000186272 -0.0141441 0
0.982561 0.185941 0
0.776408 0.184306 0
0.622845 0.173368 0
0.451838 0.31073 0
-0.13976 0.107691 0
-0.125675 0.132803 0
0.299269 -0.101996 0
0.173698 0.0573584 0
0.00407458 -0.089456 0
0.0123043 -0.100484 0
-0.021314 -0.0725951 0
-0.0175428 -0.0826488 0
-0.0151519 -0.0562464 0
-0.0126406 -0.0656211 0
-0.0098593 -0.0391075 0
-0.00658106 -0.049424 0
-0.00716513 -0.021392 0
-0.00333462 -0.0323587 0
-0.0059978 -0.00339583 0
-0.00193671 -0.0146476 0
0.335596 0.199412 0
-0.367154 0.33738 0
0.26555 0.551665 0
-0.184148 0.71382 0
-0.0653326 0.830581 0
0.0766728 0.702643 0
0.23388 0.0691647 0
-0.235277 0.705641 0
0.0224751 -0.0741275 0
-0.0305751 0.00987818 0
-0.0193451 -0.0768416 0
-0.0105707 -0.0845493 0
-0.017401 -0.0605992 0
-0.00769577 -0.0752004 0
-0.0121347 -0.0419904 0
-0.00482319 -0.0556783 0
-0.00916155 -0.022746 0
-0.00277128 -0.0360328 0
-0.00786425 -0.00324251 0
-0.00178566 -0.0164102 0
-0.816706 0.0723025 0
-0.994469 0.0538475 0
-0.438564 0.218942 0
-0.577352 0.266907 0
0.0812008 0.320814 0
0.138142 0.288836 0
-0.143767 0.0012924 0
-0.339326 0.270473 0
-0.00927172 -0.077442 0
-0.0379669 -0.0331848 0
-0.00841683 -0.076765 0
-0.000895266 -0.0846011 0
-0.0107132 -0.0611473 0
-0.000860417 -0.0754614 0
-0.00954766 -0.0426948 0
-0.00126806 -0.0569175 0
-0.00816171 -0.0231334 0
-0.000693042 -0.0372365 0
-0.00742715 -0.00309709 0
-0.000313701 -0.017132 0
-0.875047 -0.0480286 0
-0.250129 -0.277921 0
-0.508456 -0.385306 0
-0.181997 -0.436786 0
0.127178 -0.790281 0
-0.0512041 -0.551234 0
-0.339708 -0.205976 0
0.0502387 -0.718412 0
-0.0372603 -0.098475 0
0.0114134 -0.169954 0
-0.00252549 -0.0784024 0
0.00313615 -0.090275 0
-0.00417298 -0.0628276 0
0.00200974 -0.074072 0
-0.00573324 -0.0444203 0
0.00220081 -0.0582405 0
-0.00582947 -0.0241879 0
0.00249779 -0.0390857 0
-0.00575294 -0.0030096 0
0.00267198 -0.0183491 0
