# vtk DataFile Version 3.0
tp3485 cell-vector
ASCII
DATASET UNSTRUCTURED_GRID
POINTS 66 double
0 0 0
0.1 0 0
0.2 0 0
0.3 0 0
0.4 0 0
0.5 0 0
0.6 0 0
0.7 0 0
0.8 0 0
0.9 0 0
1 0 0
0 0.09 0
0.1 0.09 0
0.2 0.09 0
0.3 0.09 0
0.4 0.09 0
0.5 0.09 0
0.6 0.09 0
0.7 0.09 0
0.8 0.09 0
0.9 0.09 0
1 0.09 0
0 0.18 0
0.1 0.18 0
0.2 0.18 0
0.3 0.18 0
0.4 0.18 0
0.5 0.18 0
0.6 0.18 0
0.7 0.18 0
0.8 0.18 0
0.9 0.18 0
1 0.18 0
0 0.27 0
0.1 0.27 0
0.2 0.27 0
0.3 0.27 0
0.4 0.27 0
0.5 0.27 0
0.6 0.27 0
0.7 0.27 0
0.8 0.27 0
0.9 0.27 0
1 0.27 0
0 0.36 0
0.1 0.36 0
0.2 0.36 0
0.3 0.36 0
0.4 0.36 0
0.5 0.36 0
0.6 0.36 0
0.7 0.36 0
0.8 0.36 0
0.9 0.36 0
1 0.36 0
0 0.45 0
0.1 0.45 0
0.2 0.45 0
0.3 0.45 0
0.4 0.45 0
0.5 0.45 0
0.6 0.45 0
0.7 0.45 0
0.8 0.45 0
0.9 0.45 0
1 0.45 0
CELLS 100 400
3 0 1 12
3 0 12 11
3 1 2 13
3 1 13 12
3 2 3 14
3 2 14 13
3 3 4 15
3 3 15 14
3 4 5 16
3 4 16 15
3 5 6 17
3 5 17 16
3 6 7 18
3 6 18 17
3 7 8 19
3 7 19 18
3 8 9 20
3 8 20 19
3 9 10 21
3 9 21 20
3 11 12 23
3 11 23 22
3 12 13 24
3 12 24 23
3 13 14 25
3 13 25 24
3 14 15 26
3 14 26 25
3 15 16 27
3 15 27 26
3 16 17 28
3 16 28 27
3 17 18 29
3 17 29 28
3 18 19 30
3 18 30 29
3 19 20 31
3 19 31 30
3 20 21 32
3 20 32 31
3 22 23 34
3 22 34 33
3 23 24 35
3 23 35 34
3 24 25 36
3 24 36 35
3 25 26 37
3 25 37 36
3 26 27 38
3 26 38 37
3 27 28 39
3 27 39 38
3 28 29 40
3 28 40 39
3 29 30 41
3 29 41 40
3 30 31 42
3 30 42 41
3 31 32 43
3 31 43 42
3 33 34 45
3 33 45 44
3 34 35 46
3 34 46 45
3 35 36 47
3 35 47 46
3 36 37 48
3 36 48 47
3 37 38 49
3 37 49 48
3 38 39 50
3 38 50 49
3 39 40 51
3 39 51 50
3 40 41 52
3 40 52 51
3 41 42 53
3 41 53 52
3 42 43 54
3 42 54 53
3 44 45 56
3 44 56 55
3 45 46 57
3 45 57 56
3 46 47 58
3 46 58 57
3 47 48 59
3 47 59 58
3 48 49 60
3 48 60 59
3 49 50 61
3 49 61 60
3 50 51 62
3 50 62 61
3 51 52 63
3 51 63 62
3 52 53 64
3 52 64 63
3 53 54 65
3 53 65 64
CELL_TYPES 100
5
5
5
5
5
5
5
5
5
5
5
5
5
5
5
5
5
5
5
5
5
5
5
5
5
5
5
5
5
5
5
5
5
5
5
5
5
5
5
5
5
5
5
5
5
5
5
5
5
5
5
5
5
5
5
5
5
5
5
5
5
5
5
5
5
5
5
5
5
5
5
5
5
5
5
5
5
5
5
5
5
5
5
5
5
5
5
5
5
5
5
5
5
5
5
5
5
5
5
5
CELL_DATA 100
VECTORS Et double
-0.117036 -0.0504767 0
-0.500478 0.122765 0
-0.11039 0.0274423 0
-0.480066 0.197551 0
-0.0983581 0.0999999 0
-0.434847 0.257344 0
-0.0821002 0.160917 0
-0.372621 0.300891 0
-0.0630771 0.212312 0
-0.292715 0.324759 0
-0.0425228 0.261636 0
-0.196858 0.334135 0
-0.0212085 0.319255 0
-0.0869182 0.338792 0
0.000535994 0.405317 0
0.0435053 0.350494 0
0.00616558 0.144068 0
-0.208692 0.397185 0
0.00394484 0.00438316 0
-0.10379 0.132844 0
-0.691545 -0.0321527 0
-0.924177 0.0683981 0
-0.662252 0.0228138 0
-0.887935 0.123254 0
-0.598772 0.0705235 0
-0.806232 0.166698 0
-0.510935 0.106242 0
-0.69223 0.19551 0
-0.400737 0.132865 0
-0.545747 0.207451 0
-0.272193 0.157969 0
-0.370817 0.207926 0
-0.128498 0.19124 0
-0.171156 0.206143 0
0.036313 0.244245 0
0.0604035 0.212346 0
-0.198137 0.0948066 0
-0.322833 0.241057 0
-0.097613 0.00249037 0
-0.171651 0.0889294 0
-1 0.000887908 0
-0.993749 -0.010953 0
-0.960383 0.0147011 0
-0.956361 0.00617323 0
-0.870363 0.0198007 0
-0.869942 0.0184207 0
-0.744876 0.0136081 0
-0.748515 0.0204316 0
-0.585814 -0.000323062 0
-0.591871 0.011515 0
-0.398738 -0.0143409 0
-0.404392 -0.00317927 0
-0.187757 -0.0201073 0
-0.189877 -0.0154838 0
0.0549385 -0.0157571 0
0.0556692 -0.0178466 0
-0.320178 -0.00121803 0
-0.312937 -0.0121593 0
-0.170934 -0.000888018 0
-0.175943 0.00156336 0
-0.927391 0.0389872 0
-0.682906 -0.0849425 0
-0.892733 0.0110967 0
-0.659406 -0.105906 0
-0.80983 -0.0272529 0
-0.601466 -0.125958 0
-0.694029 -0.0760881 0
-0.519367 -0.151971 0
-0.546439 -0.131411 0
-0.412642 -0.182768 0
-0.37203 -0.185855 0
-0.283998 -0.213675 0
-0.173871 -0.233289 0
-0.135876 -0.2379 0
0.0538749 -0.278735 0
0.0318264 -0.251387 0
-0.320106 -0.103973 0
-0.18381 -0.2689 0
-0.182038 -0.00454613 0
-0.112294 -0.0924662 0
-0.501739 0.0648852 0
-0.112874 -0.125416 0
-0.485353 0.0120961 0
-0.109332 -0.172949 0
-0.440128 -0.0526352 0
-0.102043 -0.212561 0
-0.377215 -0.127322 0
-0.0907063 -0.255764 0
-0.296833 -0.208206 0
-0.0750682 -0.299848 0
-0.201525 -0.289159 0
-0.0552475 -0.340946 0
-0.0921526 -0.367286 0
-0.032073 -0.374154 0
0.0341056 -0.450578 0
-0.00703094 -0.399349 0
-0.199117 -0.184862 0
0.00991134 -0.437275 0
-0.123965 -0.00708629 0
0.00714112 -0.167781 0
