# vtk DataFile Version 3.0
tp3485 cell-vector
ASCII
DATASET UNSTRUCTURED_GRID
POINTS 66 double
0 0 0
0.1 0 0
0.2 0 0
0.3 0 0
0.4 0 0
0.5 0 0
0.6 0 0
0.7 0 0
0.8 0 0
0.9 0 0
1 0 0
0 0.09 0
0.1 0.09 0
0.2 0.09 0
0.3 0.09 0
0.4 0.09 0
0.5 0.09 0
0.6 0.09 0
0.7 0.09 0
0.8 0.09 0
0.9 0.09 0
1 0.09 0
0 0.18 0
0.1 0.18 0
0.2 0.18 0
0.3 0.18 0
0.4 0.18 0
0.5 0.18 0
0.6 0.18 0
0.7 0.18 0
0.8 0.18 0
0.9 0.18 0
1 0.18 0
0 0.27 0
0.1 0.27 0
0.2 0.27 0
0.3 0.27 0
0.4 0.27 0
0.5 0.27 0
0.6 0.27 0
0.7 0.27 0
0.8 0.27 0
0.9 0.27 0
1 0.27 0
0 0.36 0
0.1 0.36 0
0.2 0.36 0
0.3 0.36 0
0.4 0.36 0
0.5 0.36 0
0.6 0.36 0
0.7 0.36 0
0.8 0.36 0
0.9 0.36 0
1 0.36 0
0 0.45 0
0.1 0.45 0
0.2 0.45 0
0.3 0.45 0
0.4 0.45 0
0.5 0.45 0
0.6 0.45 0
0.7 0.45 0
0.8 0.45 0
0.9 0.45 0
1 0.45 0
CELLS 100 400
3 0 1 12
3 0 12 11
3 1 2 13
3 1 13 12
3 2 3 14
3 2 14 13
3 3 4 15
3 3 15 14
3 4 5 16
3 4 16 15
3 5 6 17
3 5 17 16
3 6 7 18
3 6 18 17
3 7 8 19
3 7 19 18
3 8 9 20
3 8 20 19
3 9 10 21
3 9 21 20
3 11 12 23
3 11 23 22
3 12 13 24
3 12 24 23
3 13 14 25
3 13 25 24
3 14 15 26
3 14 26 25
3 15 16 27
3 15 27 26
3 16 17 28
3 16 28 27
3 17 18 29
3 17 29 28
3 18 19 30
3 18 30 29
3 19 20 31
3 19 31 30
3 20 21 32
3 20 32 31
3 22 23 34
3 22 34 33
3 23 24 35
3 23 35 34
3 24 25 36
3 24 36 35
3 25 26 37
3 25 37 36
3 26 27 38
3 26 38 37
3 27 28 39
3 27 39 38
3 28 29 40
3 28 40 39
3 29 30 41
3 29 41 40
3 30 31 42
3 30 42 41
3 31 32 43
3 31 43 42
3 33 34 45
3 33 45 44
3 34 35 46
3 34 46 45
3 35 36 47
3 35 47 46
3 36 37 48
3 36 48 47
3 37 38 49
3 37 49 48
3 38 39 50
3 38 50 49
3 39 40 51
3 39 51 50
3 40 41 52
3 40 52 51
3 41 42 53
3 41 53 52
3 42 43 54
3 42 54 53
3 44 45 56
3 44 56 55
3 45 46 57
3 45 57 56
3 46 47 58
3 46 58 57
3 47 48 59
3 47 59 58
3 48 49 60
3 48 60 59
3 49 50 61
3 49 61 60
3 50 51 62
3 50 62 61
3 51 52 63
3 51 63 62
3 52 53 64
3 52 64 63
3 53 54 65
3 53 65 64
CELL_TYPES 100
5
5
5
5
5
5
5
5
5
5
5
5
5
5
5
5
5
5
5
5
5
5
5
5
5
5
5
5
5
5
5
5
5
5
5
5
5
5
5
5
5
5
5
5
5
5
5
5
5
5
5
5
5
5
5
5
5
5
5
5
5
5
5
5
5
5
5
5
5
5
5
5
5
5
5
5
5
5
5
5
5
5
5
5
5
5
5
5
5
5
5
5
5
5
5
5
5
5
5
5
CELL_DATA 100
VECTORS Et double
-0.0229996 0.332758 0
0.174394 0.0439385 0
0.0398775 0.21105 0
-0.0119367 0.335622 0
0.0591085 -0.366991 0
-0.228811 0.0926688 0
-0.0111997 -0.747904 0
-0.258005 -0.459394 0
-0.102715 -0.53869 0
-0.176767 -0.652999 0
-0.0547759 -0.150208 0
-0.0181829 -0.338146 0
-0.0183625 -0.0237677 0
-0.029638 -0.0604941 0
-0.00615458 0.00357502 0
-0.0232127 0.00616252 0
-0.00213538 0.0045048 0
-0.0153179 0.0135965 0
-0.00095232 -0.00105813 0
-0.0112527 0.00810305 0
0.0935818 0.419228 0
0.293675 0.075525 0
0.0471931 0.325299 0
-0.0216209 0.454924 0
-0.0844611 -0.188657 0
-0.264666 0.190088 0
-0.218827 -0.620854 0
-0.400234 -0.338729 0
-0.33653 -0.534984 0
-0.421696 -0.586534 0
-0.144736 -0.169625 0
-0.0842573 -0.365476 0
-0.0721773 -0.0411383 0
-0.0670765 -0.0903234 0
-0.0374328 -0.00710196 0
-0.0442034 -0.0142881 0
-0.0201833 -0.000413148 0
-0.0270272 0.00206949 0
-0.0132798 -0.00102666 0
-0.0188266 0.00295979 0
0.151131 0.550438 0
0.351904 0.122251 0
0.021716 0.642701 0
0.0471227 0.64288 0
-0.074621 -0.0322018 0
-0.335426 0.490622 0
-0.282309 -0.614607 0
-0.433365 -0.265328 0
-0.522048 -0.51663 0
-0.437599 -0.676358 0
-0.189503 -0.203123 0
-0.100226 -0.40053 0
-0.103321 -0.0712928 0
-0.0722305 -0.140822 0
-0.0566375 -0.0249183 0
-0.0460632 -0.0490857 0
-0.0314452 -0.00807117 0
-0.027548 -0.0169751 0
-0.020761 -0.000999327 0
-0.0190599 -0.00497496 0
0.127799 0.649465 0
0.293421 0.169343 0
0.0645943 0.788047 0
0.0435745 0.80831 0
-0.0952802 0.192373 0
-0.230056 0.626958 0
-0.222392 -0.501821 0
-0.311323 -0.121568 0
-0.464941 -0.500146 0
-0.314382 -0.657181 0
-0.17798 -0.236339 0
-0.0611945 -0.436028 0
-0.10067 -0.10125 0
-0.0445747 -0.190516 0
-0.0564039 -0.0426801 0
-0.0288016 -0.0836331 0
-0.0314586 -0.0158695 0
-0.0170767 -0.03593 0
-0.0208983 -0.000956624 0
-0.01183 -0.0130386 0
-0.00204274 0.751556 0
0.177101 0.196779 0
0.0321943 0.999482 0
0.0432579 0.958571 0
0.0431059 0.347036 0
-0.124105 0.842142 0
-0.0261968 -0.506649 0
-0.166727 -0.00963948 0
-0.283942 -0.519643 0
-0.0522496 -0.720316 0
-0.117462 -0.271622 0
0.0278859 -0.487366 0
-0.0667345 -0.12677 0
0.011392 -0.235703 0
-0.0374518 -0.0563592 0
0.00466526 -0.112118 0
-0.0205887 -0.0216376 0
0.00193923 -0.0504261 0
-0.0135975 -0.000914327 0
0.000929322 -0.0190021 0
