# vtk DataFile Version 3.0
tp3485 cell-vector
ASCII
DATASET UNSTRUCTURED_GRID
POINTS 66 double
0 0 0
0.1 0 0
0.2 0 0
0.3 0 0
0.4 0 0
0.5 0 0
0.6 0 0
0.7 0 0
0.8 0 0
0.9 0 0
1 0 0
0 0.09 0
0.1 0.09 0
0.2 0.09 0
0.3 0.09 0
0.4 0.09 0
0.5 0.09 0
0.6 0.09 0
0.7 0.09 0
0.8 0.09 0
0.9 0.09 0
1 0.09 0
0 0.18 0
0.1 0.18 0
0.2 0.18 0
0.3 0.18 0
0.4 0.18 0
0.5 0.18 0
0.6 0.18 0
0.7 0.18 0
0.8 0.18 0
0.9 0.18 0
1 0.18 0
0 0.27 0
0.1 0.27 0
0.2 0.27 0
0.3 0.27 0
0.4 0.27 0
0.5 0.27 0
0.6 0.27 0
0.7 0.27 0
0.8 0.27 0
0.9 0.27 0
1 0.27 0
0 0.36 0
0.1 0.36 0
0.2 0.36 0
0.3 0.36 0
0.4 0.36 0
0.5 0.36 0
0.6 0.36 0
0.7 0.36 0
0.8 0.36 0
0.9 0.36 0
1 0.36 0
0 0.45 0
0.1 0.45 0
0.2 0.45 0
0.3 0.45 0
0.4 0.45 0
0.5 0.45 0
0.6 0.45 0
0.7 0.45 0
0.8 0.45 0
0.9 0.45 0
1 0.45 0
CELLS 100 400
3 0 1 12
3 0 12 11
3 1 2 13
3 1 13 12
3 2 3 14
3 2 14 13
3 3 4 15
3 3 15 14
3 4 5 16
3 4 16 15
3 5 6 17
3 5 17 16
3 6 7 18
3 6 18 17
3 7 8 19
3 7 19 18
3 8 9 20
3 8 20 19
3 9 10 21
3 9 21 20
3 11 12 23
3 11 23 22
3 12 13 24
3 12 24 23
3 13 14 25
3 13 25 24
3 14 15 26
3 14 26 25
3 15 16 27
3 15 27 26
3 16 17 28
3 16 28 27
3 17 18 29
3 17 29 28
3 18 19 30
3 18 30 29
3 19 20 31
3 19 31 30
3 20 21 32
3 20 32 31
3 22 23 34
3 22 34 33
3 23 24 35
3 23 35 34
3 24 25 36
3 24 36 35
3 25 26 37
3 25 37 36
3 26 27 38
3 26 38 37
3 27 28 39
3 27 39 38
3 28 29 40
3 28 40 39
3 29 30 41
3 29 41 40
3 30 31 42
3 30 42 41
3 31 32 43
3 31 43 42
3 33 34 45
3 33 45 44
3 34 35 46
3 34 46 45
3 35 36 47
3 35 47 46
3 36 37 48
3 36 48 47
3 37 38 49
3 37 49 48
3 38 39 50
3 38 50 49
3 39 40 51
3 39 51 50
3 40 41 52
3 40 52 51
3 41 42 53
3 41 53 52
3 42 43 54
3 42 54 53
3 44 45 56
3 44 56 55
3 45 46 57
3 45 57 56
3 46 47 58
3 46 58 57
3 47 48 59
3 47 59 58
3 48 49 60
3 48 60 59
3 49 50 61
3 49 61 60
3 50 51 62
3 50 62 61
3 51 52 63
3 51 63 62
3 52 53 64
3 52 64 63
3 53 54 65
3 53 65 64
CELL_TYPES 100
5
5
5
5
5
5
5
5
5
5
5
5
5
5
5
5
5
5
5
5
5
5
5
5
5
5
5
5
5
5
5
5
5
5
5
5
5
5
5
5
5
5
5
5
5
5
5
5
5
5
5
5
5
5
5
5
5
5
5
5
5
5
5
5
5
5
5
5
5
5
5
5
5
5
5
5
5
5
5
5
5
5
5
5
5
5
5
5
5
5
5
5
5
5
5
5
5
5
5
5
CELL_DATA 100
VECTORS Et double
-0.0955936 0.582615 0
0.098871 0.130164 0
0.0261572 0.665645 0
0.000573537 0.705983 0
0.116091 0.0478566 0
-0.0992438 0.526344 0
0.0799752 -0.586044 0
-0.085035 -0.197486 0
0.0279082 -0.893283 0
-0.0722295 -0.712958 0
0.00631143 -0.984361 0
-0.0143936 -0.939318 0
-0.0155836 -0.927492 0
0.00933398 -0.981933 0
-0.0349505 -0.729474 0
0.0347401 -0.877959 0
-0.0490617 -0.427952 0
0.0480819 -0.640521 0
-0.0559157 -0.0621285 0
0.059292 -0.312852 0
-0.113421 0.581202 0
0.0835117 0.128336 0
0.0106921 0.662688 0
-0.0150493 0.703301 0
0.115588 0.0349528 0
-0.109572 0.523945 0
0.0990399 -0.623141 0
-0.0896082 -0.209435 0
-0.0109033 -0.853423 0
-0.0461732 -0.747731 0
0.00522442 -0.945304 0
-0.0181309 -0.898046 0
-0.0148074 -0.888895 0
0.00908464 -0.942451 0
-0.0292141 -0.703298 0
0.0290986 -0.839223 0
-0.0460944 -0.411068 0
0.0426019 -0.614298 0
-0.0511693 -0.0621479 0
0.0487477 -0.295931 0
-0.124009 0.574032 0
0.0772734 0.124071 0
-0.00220418 0.65119 0
-0.0207541 0.689366 0
0.106268 0.0205169 0
-0.1151 0.508245 0
0.0935142 -0.639386 0
-0.0959906 -0.225117 0
0.0126719 -0.893296 0
-0.0474576 -0.762225 0
0.000638632 -0.976981 0
-0.0177558 -0.936243 0
-0.0153762 -0.920311 0
0.0078241 -0.973472 0
-0.034965 -0.726447 0
0.030479 -0.870406 0
-0.0516099 -0.425643 0
0.0447567 -0.637397 0
-0.0617188 -0.0621248 0
0.0513935 -0.310525 0
-0.122532 0.574848 0
0.0906428 0.120026 0
-0.00214369 0.648431 0
-0.0115767 0.682733 0
0.104044 0.0104641 0
-0.115704 0.500248 0
0.0872633 -0.658885 0
-0.107631 -0.23781 0
0.00992999 -0.86919 0
-0.0121461 -0.781265 0
0.000265264 -0.950607 0
-0.017187 -0.911417 0
-0.0169355 -0.894103 0
0.00546952 -0.946665 0
-0.0336913 -0.707328 0
0.0250578 -0.843988 0
-0.0494799 -0.414835 0
0.0392501 -0.618176 0
-0.0590797 -0.0621527 0
0.0441693 -0.299656 0
-0.103777 0.568414 0
0.107133 0.119037 0
0.0110144 0.646477 0
0.00880646 0.674195 0
0.106643 0.0152364 0
-0.103518 0.496407 0
0.0776495 -0.648649 0
-0.106852 -0.236126 0
0.0451092 -0.923346 0
-0.0321256 -0.773142 0
0.000564409 -1 0
-0.0124094 -0.965827 0
-0.0194699 -0.936687 0
0.00897747 -0.995994 0
-0.0391873 -0.739268 0
0.0291614 -0.886561 0
-0.0550046 -0.434205 0
0.0451419 -0.650161 0
-0.0663032 -0.062118 0
0.0545321 -0.319089 0
