# vtk DataFile Version 3.0
tp3485 cell-vector
ASCII
DATASET UNSTRUCTURED_GRID
POINTS 66 double
0 0 0
0.1 0 0
0.2 0 0
0.3 0 0
0.4 0 0
0.5 0 0
0.6 0 0
0.7 0 0
0.8 0 0
0.9 0 0
1 0 0
0 0.09 0
0.1 0.09 0
0.2 0.09 0
0.3 0.09 0
0.4 0.09 0
0.5 0.09 0
0.6 0.09 0
0.7 0.09 0
0.8 0.09 0
0.9 0.09 0
1 0.09 0
0 0.18 0
0.1 0.18 0
0.2 0.18 0
0.3 0.18 0
0.4 0.18 0
0.5 0.18 0
0.6 0.18 0
0.7 0.18 0
0.8 0.18 0
0.9 0.18 0
1 0.18 0
0 0.27 0
0.1 0.27 0
0.2 0.27 0
0.3 0.27 0
0.4 0.27 0
0.5 0.27 0
0.6 0.27 0
0.7 0.27 0
0.8 0.27 0
0.9 0.27 0
1 0.27 0
0 0.36 0
0.1 0.36 0
0.2 0.36 0
0.3 0.36 0
0.4 0.36 0
0.5 0.36 0
0.6 0.36 0
0.7 0.36 0
0.8 0.36 0
0.9 0.36 0
1 0.36 0
0 0.45 0
0.1 0.45 0
0.2 0.45 0
0.3 0.45 0
0.4 0.45 0
0.5 0.45 0
0.6 0.45 0
0.7 0.45 0
0.8 0.45 0
0.9 0.45 0
1 0.45 0
CELLS 100 400
3 0 1 12
3 0 12 11
3 1 2 13
3 1 13 12
3 2 3 14
3 2 14 13
3 3 4 15
3 3 15 14
3 4 5 16
3 4 16 15
3 5 6 17
3 5 17 16
3 6 7 18
3 6 18 17
3 7 8 19
3 7 19 18
3 8 9 20
3 8 20 19
3 9 10 21
3 9 21 20
3 11 12 23
3 11 23 22
3 12 13 24
3 12 24 23
3 13 14 25
3 13 25 24
3 14 15 26
3 14 26 25
3 15 16 27
3 15 27 26
3 16 17 28
3 16 28 27
3 17 18 29
3 17 29 28
3 18 19 30
3 18 30 29
3 19 20 31
3 19 31 30
3 20 21 32
3 20 32 31
3 22 23 34
3 22 34 33
3 23 24 35
3 23 35 34
3 24 25 36
3 24 36 35
3 25 26 37
3 25 37 36
3 26 27 38
3 26 38 37
3 27 28 39
3 27 39 38
3 28 29 40
3 28 40 39
3 29 30 41
3 29 41 40
3 30 31 42
3 30 42 41
3 31 32 43
3 31 43 42
3 33 34 45
3 33 45 44
3 34 35 46
3 34 46 45
3 35 36 47
3 35 47 46
3 36 37 48
3 36 48 47
3 37 38 49
3 37 49 48
3 38 39 50
3 38 50 49
3 39 40 51
3 39 51 50
3 40 41 52
3 40 52 51
3 41 42 53
3 41 53 52
3 42 43 54
3 42 54 53
3 44 45 56
3 44 56 55
3 45 46 57
3 45 57 56
3 46 47 58
3 46 58 57
3 47 48 59
3 47 59 58
3 48 49 60
3 48 60 59
3 49 50 61
3 49 61 60
3 50 51 62
3 50 62 61
3 51 52 63
3 51 63 62
3 52 53 64
3 52 64 63
3 53 54 65
3 53 65 64
CELL_TYPES 100
5
5
5
5
5
5
5
5
5
5
5
5
5
5
5
5
5
5
5
5
5
5
5
5
5
5
5
5
5
5
5
5
5
5
5
5
5
5
5
5
5
5
5
5
5
5
5
5
5
5
5
5
5
5
5
5
5
5
5
5
5
5
5
5
5
5
5
5
5
5
5
5
5
5
5
5
5
5
5
5
5
5
5
5
5
5
5
5
5
5
5
5
5
5
5
5
5
5
5
5
CELL_DATA 100
VECTORS Et double
-0.00828066 0.0311226 0
-0.00655879 0.0100043 0
-0.000453098 0.0514492 0
0.00265044 0.0439103 0
0.000574654 0.382999 0
0.300615 0.0511062 0
0.000509815 0.692225 0
0.281344 0.381557 0
0.000217448 0.910381 0
0.198286 0.691102 0
-0.000198324 0.994955 0
0.0760786 0.910061 0
-0.000635192 0.932361 0
-0.0586855 0.995665 0
-0.000963412 0.729162 0
-0.187233 0.934062 0
-0.0011375 0.410985 0
-0.29208 0.731612 0
-0.00134017 -0.00148908 0
-0.377799 0.41378 0
-0.0214074 0.0201334 0
-0.0192917 0.00564424 0
-0.000831414 0.0337352 0
0.00177079 0.0285948 0
0.302031 0.234865 0
0.485027 0.0331405 0
0.282587 0.414492 0
0.44711 0.233202 0
0.199111 0.531831 0
0.306881 0.413181 0
0.0762125 0.569619 0
0.111314 0.531079 0
-0.0593383 0.522171 0
-0.1022 0.569554 0
-0.188553 0.396839 0
-0.30266 0.52278 0
-0.293919 0.212532 0
-0.462064 0.398003 0
-0.379903 -0.000807397 0
-0.574747 0.214037 0
-0.0256425 0.00293775 0
-0.0231148 -0.000641427 0
0.00024798 0.00608823 0
0.00278099 0.00394949 0
0.48615 0.0192859 0
0.499847 0.00512615 0
0.44823 0.0186884 0
0.449507 0.0182453 0
0.307743 0.00882233 0
0.300215 0.0178952 0
0.111801 -0.00215306 0
0.102776 0.0083114 0
-0.102112 -0.0127268 0
-0.1112 -0.00241381 0
-0.30291 -0.0196554 0
-0.309014 -0.0128038 0
-0.462604 -0.0181211 0
-0.461274 -0.0196295 0
-0.575377 0.000140458 0
-0.558906 -0.0181164 0
-0.0190772 -0.0152342 0
-0.0180563 -0.00626178 0
0.00359663 -0.024385 0
0.00343843 -0.0213912 0
0.500291 -0.209201 0
0.334511 -0.0250424 0
0.450095 -0.393976 0
0.283824 -0.209127 0
0.300728 -0.523574 0
0.184325 -0.394056 0
0.103246 -0.573481 0
0.0588593 -0.523793 0
-0.110722 -0.53677 0
-0.0766877 -0.573941 0
-0.308487 -0.417718 0
-0.199793 -0.537535 0
-0.460715 -0.233144 0
-0.292494 -0.418821 0
-0.558188 0.000894562 0
-0.344957 -0.23451 0
-0.00587681 -0.0284052 0
-0.0082992 -0.00922133 0
0.00561838 -0.0516936 0
-0.00289939 -0.0388978 0
0.333809 -0.420024 0
0.000523973 -0.0512214 0
0.283373 -0.731745 0
0.000475906 -0.418564 0
0.184051 -0.933988 0
0.000371658 -0.730712 0
0.0588907 -0.998264 0
0.000197593 -0.933369 0
-0.0762421 -0.913876 0
-4.62427e-05 -0.998216 0
-0.1989 -0.694944 0
-0.00034474 -0.91453 0
-0.291179 -0.375163 0
-0.000640311 -0.696304 0
-0.343278 0.00124183 0
-0.00084141 -0.377066 0
