# vtk DataFile Version 3.0
tp3485 cell-vector
ASCII
DATASET UNSTRUCTURED_GRID
POINTS 66 double
0 0 0
0.1 0 0
0.2 0 0
0.3 0 0
0.4 0 0
0.5 0 0
0.6 0 0
0.7 0 0
0.8 0 0
0.9 0 0
1 0 0
0 0.09 0
0.1 0.09 0
0.2 0.09 0
0.3 0.09 0
0.4 0.09 0
0.5 0.09 0
0.6 0.09 0
0.7 0.09 0
0.8 0.09 0
0.9 0.09 0
1 0.09 0
0 0.18 0
0.1 0.18 0
0.2 0.18 0
0.3 0.18 0
0.4 0.18 0
0.5 0.18 0
0.6 0.18 0
0.7 0.18 0
0.8 0.18 0
0.9 0.18 0
1 0.18 0
0 0.27 0
0.1 0.27 0
0.2 0.27 0
0.3 0.27 0
0.4 0.27 0
0.5 0.27 0
0.6 0.27 0
0.7 0.27 0
0.8 0.27 0
0.9 0.27 0
1 0.27 0
0 0.36 0
0.1 0.36 0
0.2 0.36 0
0.3 0.36 0
0.4 0.36 0
0.5 0.36 0
0.6 0.36 0
0.7 0.36 0
0.8 0.36 0
0.9 0.36 0
1 0.36 0
0 0.45 0
0.1 0.45 0
0.2 0.45 0
0.3 0.45 0
0.4 0.45 0
0.5 0.45 0
0.6 0.45 0
0.7 0.45 0
0.8 0.45 0
0.9 0.45 0
1 0.45 0
CELLS 100 400
3 0 1 12
3 0 12 11
3 1 2 13
3 1 13 12
3 2 3 14
3 2 14 13
3 3 4 15
3 3 15 14
3 4 5 16
3 4 16 15
3 5 6 17
3 5 17 16
3 6 7 18
3 6 18 17
3 7 8 19
3 7 19 18
3 8 9 20
3 8 20 19
3 9 10 21
3 9 21 20
3 11 12 23
3 11 23 22
3 12 13 24
3 12 24 23
3 13 14 25
3 13 25 24
3 14 15 26
3 14 26 25
3 15 16 27
3 15 27 26
3 16 17 28
3 16 28 27
3 17 18 29
3 17 29 28
3 18 19 30
3 18 30 29
3 19 20 31
3 19 31 30
3 20 21 32
3 20 32 31
3 22 23 34
3 22 34 33
3 23 24 35
3 23 35 34
3 24 25 36
3 24 36 35
3 25 26 37
3 25 37 36
3 26 27 38
3 26 38 37
3 27 28 39
3 27 39 38
3 28 29 40
3 28 40 39
3 29 30 41
3 29 41 40
3 30 31 42
3 30 42 41
3 31 32 43
3 31 43 42
3 33 34 45
3 33 45 44
3 34 35 46
3 34 46 45
3 35 36 47
3 35 47 46
3 36 37 48
3 36 48 47
3 37 38 49
3 37 49 48
3 38 39 50
3 38 50 49
3 39 40 51
3 39 51 50
3 40 41 52
3 40 52 51
3 41 42 53
3 41 53 52
3 42 43 54
3 42 54 53
3 44 45 56
3 44 56 55
3 45 46 57
3 45 57 56
3 46 47 58
3 46 58 57
3 47 48 59
3 47 59 58
3 48 49 60
3 48 60 59
3 49 50 61
3 49 61 60
3 50 51 62
3 50 62 61
3 51 52 63
3 51 63 62
3 52 53 64
3 52 64 63
3 53 54 65
3 53 65 64
CELL_TYPES 100
5
5
5
5
5
5
5
5
5
5
5
5
5
5
5
5
5
5
5
5
5
5
5
5
5
5
5
5
5
5
5
5
5
5
5
5
5
5
5
5
5
5
5
5
5
5
5
5
5
5
5
5
5
5
5
5
5
5
5
5
5
5
5
5
5
5
5
5
5
5
5
5
5
5
5
5
5
5
5
5
5
5
5
5
5
5
5
5
5
5
5
5
5
5
5
5
5
5
5
5
CELL_DATA 100
VECTORS Et double
0.10382 0.104541 0
0.495687 -0.107756 0
0.104124 0.11242 0
0.513855 -0.118978 0
0.104368 0.108776 0
0.504997 -0.111839 0
0.104208 0.102028 0
0.502048 -0.115709 0
0.103726 0.096841 0
0.501516 -0.121829 0
0.103159 0.0949775 0
0.501751 -0.125845 0
0.102773 0.096535 0
0.502545 -0.126555 0
0.102733 0.101187 0
0.504546 -0.12439 0
0.102949 0.118525 0
0.516641 -0.119852 0
0.103477 0.114975 0
0.500212 -0.103365 0
0.663427 0.0763034 0
0.908975 -0.0589531 0
0.682405 0.0796214 0
0.93463 -0.0619172 0
0.674158 0.0736968 0
0.919512 -0.0595096 0
0.671017 0.0669702 0
0.915692 -0.0656809 0
0.669604 0.0626607 0
0.915032 -0.0717986 0
0.668704 0.0622383 0
0.915455 -0.0749485 0
0.668635 0.0654089 0
0.91672 -0.0742179 0
0.670439 0.071309 0
0.920245 -0.0704432 0
0.682969 0.081105 0
0.936935 -0.0647226 0
0.667753 0.0786552 0
0.912916 -0.0559527 0
0.972787 0.0174067 0
0.977164 0.0122462 0
0.999615 0.0160645 0
0.999857 0.0169304 0
0.985113 0.00996506 0
0.982612 0.0145367 0
0.981115 0.00457285 0
0.979275 0.00820845 0
0.979584 0.00200403 0
0.978875 0.00341868 0
0.978875 0.00341868 0
0.979584 0.00200403 0
0.979275 0.00820845 0
0.981115 0.00457285 0
0.982612 0.0145367 0
0.985113 0.00996506 0
0.999857 0.0169304 0
0.999615 0.0160645 0
0.977164 0.0122462 0
0.972787 0.0174067 0
0.912916 -0.0559527 0
0.667753 0.0786552 0
0.936935 -0.0647226 0
0.682969 0.081105 0
0.920245 -0.0704432 0
0.670439 0.071309 0
0.91672 -0.0742179 0
0.668635 0.0654089 0
0.915455 -0.0749485 0
0.668704 0.0622383 0
0.915032 -0.0717986 0
0.669604 0.0626607 0
0.915692 -0.0656809 0
0.671017 0.0669702 0
0.919512 -0.0595096 0
0.674158 0.0736968 0
0.93463 -0.0619172 0
0.682405 0.0796214 0
0.908975 -0.0589531 0
0.663427 0.0763034 0
0.500212 -0.103365 0
0.103477 0.114975 0
0.516641 -0.119852 0
0.102949 0.118525 0
0.504546 -0.12439 0
0.102733 0.101187 0
0.502545 -0.126555 0
0.102773 0.096535 0
0.501751 -0.125845 0
0.103159 0.0949775 0
0.501516 -0.121829 0
0.103726 0.096841 0
0.502048 -0.115709 0
0.104208 0.102028 0
0.504997 -0.111839 0
0.104368 0.108776 0
0.513855 -0.118978 0
0.104124 0.11242 0
0.495687 -0.107756 0
0.10382 0.104541 0
