# vtk DataFile Version 3.0
tp3485 cell-vector
ASCII
DATASET UNSTRUCTURED_GRID
POINTS 66 double
0 0 0
0.1 0 0
0.2 0 0
0.3 0 0
0.4 0 0
0.5 0 0
0.6 0 0
0.7 0 0
0.8 0 0
0.9 0 0
1 0 0
0 0.09 0
0.1 0.09 0
0.2 0.09 0
0.3 0.09 0
0.4 0.09 0
0.5 0.09 0
0.6 0.09 0
0.7 0.09 0
0.8 0.09 0
0.9 0.09 0
1 0.09 0
0 0.18 0
0.1 0.18 0
0.2 0.18 0
0.3 0.18 0
0.4 0.18 0
0.5 0.18 0
0.6 0.18 0
0.7 0.18 0
0.8 0.18 0
0.9 0.18 0
1 0.18 0
0 0.27 0
0.1 0.27 0
0.2 0.27 0
0.3 0.27 0
0.4 0.27 0
0.5 0.27 0
0.6 0.27 0
0.7 0.27 0
0.8 0.27 0
0.9 0.27 0
1 0.27 0
0 0.36 0
0.1 0.36 0
0.2 0.36 0
0.3 0.36 0
0.4 0.36 0
0.5 0.36 0
0.6 0.36 0
0.7 0.36 0
0.8 0.36 0
0.9 0.36 0
1 0.36 0
0 0.45 0
0.1 0.45 0
0.2 0.45 0
0.3 0.45 0
0.4 0.45 0
0.5 0.45 0
0.6 0.45 0
0.7 0.45 0
0.8 0.45 0
0.9 0.45 0
1 0.45 0
CELLS 100 400
3 0 1 12
3 0 12 11
3 1 2 13
3 1 13 12
3 2 3 14
3 2 14 13
3 3 4 15
3 3 15 14
3 4 5 16
3 4 16 15
3 5 6 17
3 5 17 16
3 6 7 18
3 6 18 17
3 7 8 19
3 7 19 18
3 8 9 20
3 8 20 19
3 9 10 21
3 9 21 20
3 11 12 23
3 11 23 22
3 12 13 24
3 12 24 23
3 13 14 25
3 13 25 24
3 14 15 26
3 14 26 25
3 15 16 27
3 15 27 26
3 16 17 28
3 16 28 27
3 17 18 29
3 17 29 28
3 18 19 30
3 18 30 29
3 19 20 31
3 19 31 30
3 20 21 32
3 20 32 31
3 22 23 34
3 22 34 33
3 23 24 35
3 23 35 34
3 24 25 36
3 24 36 35
3 25 26 37
3 25 37 36
3 26 27 38
3 26 38 37
3 27 28 39
3 27 39 38
3 28 29 40
3 28 40 39
3 29 30 41
3 29 41 40
3 30 31 42
3 30 42 41
3 31 32 43
3 31 43 42
3 33 34 45
3 33 45 44
3 34 35 46
3 34 46 45
3 35 36 47
3 35 47 46
3 36 37 48
3 36 48 47
3 37 38 49
3 37 49 48
3 38 39 50
3 38 50 49
3 39 40 51
3 39 51 50
3 40 41 52
3 40 52 51
3 41 42 53
3 41 53 52
3 42 43 54
3 42 54 53
3 44 45 56
3 44 56 55
3 45 46 57
3 45 57 56
3 46 47 58
3 46 58 57
3 47 48 59
3 47 59 58
3 48 49 60
3 48 60 59
3 49 50 61
3 49 61 60
3 50 51 62
3 50 62 61
3 51 52 63
3 51 63 62
3 52 53 64
3 52 64 63
3 53 54 65
3 53 65 64
CELL_TYPES 100
5
5
5
5
5
5
5
5
5
5
5
5
5
5
5
5
5
5
5
5
5
5
5
5
5
5
5
5
5
5
5
5
5
5
5
5
5
5
5
5
5
5
5
5
5
5
5
5
5
5
5
5
5
5
5
5
5
5
5
5
5
5
5
5
5
5
5
5
5
5
5
5
5
5
5
5
5
5
5
5
5
5
5
5
5
5
5
5
5
5
5
5
5
5
5
5
5
5
5
5
CELL_DATA 100
VECTORS Et double
-0.0103365 0.434285 0
0.365838 0.00241443 0
0.011977 -0.532743 0
-0.847063 0.440412 0
-0.022737 0.164822 0
0.56601 -0.530328 0
-0.00763677 -0.0282647 0
-0.222374 0.195966 0
-0.0047625 0.000195472 0
-0.00517681 -0.0122076 0
-0.00106796 0.00407121 0
-0.00631988 0.0071036 0
-0.000211942 0.00248503 0
-0.00343042 0.00554173 0
-3.97644e-05 0.00115415 0
-0.00156461 0.00276238 0
-6.07274e-06 0.000447281 0
-0.00069193 0.00120047 0
7.89283e-07 8.76982e-07 0
-0.000401703 0.000451498 0
0.366541 -0.268448 0
0.137136 -0.00517888 0
-0.835234 0.299008 0
-0.32392 -0.266488 0
0.550787 0.128106 0
0.435436 0.273153 0
-0.232599 -0.0203087 0
-0.383129 0.135382 0
-0.0136091 -0.000726765 0
-0.00366203 -0.0142023 0
-0.00806443 0.00103826 0
-0.00797389 0.00084321 0
-0.00375696 0.000712135 0
-0.00431442 0.00130639 0
-0.00162418 0.000417 0
-0.00198427 0.000791915 0
-0.000700314 0.000187171 0
-0.000940935 0.000444338 0
-0.000401008 -1.75868e-06 0
-0.000580248 0.000194997 0
0.148291 -0.459603 0
-0.256994 -0.00103511 0
-0.340007 0.466172 0
0.467359 -0.45522 0
0.474938 -0.531301 0
-0.362155 0.451757 0
-0.382972 0.0713518 0
0.193869 -0.560223 0
0.00101579 0.00584438 0
-0.0236756 0.0520975 0
-0.00697776 -0.00193586 0
-0.00436511 -0.00196923 0
-0.00416618 -0.00108473 0
-0.00206165 -0.00306369 0
-0.00198392 -0.000368785 0
-0.0012124 -0.00121022 0
-0.000949695 -0.000102752 0
-0.000727583 -0.000363151 0
-0.000585067 -4.71228e-06 0
-0.000515092 -9.15997e-05 0
-0.250474 0.198948 0
-0.0606263 -0.00289184 0
0.445794 0.24729 0
0.482257 0.193576 0
-0.324206 -0.313682 0
-0.833294 0.263328 0
0.196897 0.00577911 0
0.503575 -0.331711 0
-0.00873356 -0.00169729 0
-0.00702935 0.00276527 0
-0.00200792 -0.00331005 0
0.00111436 -0.00572749 0
-0.00176647 -0.00175993 0
0.000277433 -0.00394518 0
-0.00119977 -0.000781907 0
-0.000283796 -0.0018198 0
-0.000740193 -0.000295918 0
-0.0003321 -0.000768933 0
-0.000524413 -5.93191e-06 0
-0.000286958 -0.000282245 0
-0.0650789 0.102406 0
0.00667708 0.00741898 0
0.487149 -0.463264 0
-0.00778809 0.101592 0
-0.843936 0.536444 0
0.0180377 -0.449494 0
0.508025 -0.0498549 0
-0.00840847 0.535249 0
-0.00793092 -0.0114781 0
0.00832807 -0.0425477 0
0.000938299 -0.00296811 0
0.00155504 -0.00599973 0
0.000176578 -0.00152277 0
0.000271403 -0.00204803 0
-0.000324999 -0.000843828 0
5.20008e-05 -0.00134666 0
-0.00035158 -0.000372467 0
1.36067e-05 -0.000802546 0
-0.000298251 -6.0062e-06 0
5.96e-06 -0.000356647 0
