# vtk DataFile Version 3.0
tp3485 cell-vector
ASCII
DATASET UNSTRUCTURED_GRID
POINTS 66 double
0 0 0
0.1 0 0
0.2 0 0
0.3 0 0
0.4 0 0
0.5 0 0
0.6 0 0
0.7 0 0
0.8 0 0
0.9 0 0
1 0 0
0 0.09 0
0.1 0.09 0
0.2 0.09 0
0.3 0.09 0
0.4 0.09 0
0.5 0.09 0
0.6 0.09 0
0.7 0.09 0
0.8 0.09 0
0.9 0.09 0
1 0.09 0
0 0.18 0
0.1 0.18 0
0.2 0.18 0
0.3 0.18 0
0.4 0.18 0
0.5 0.18 0
0.6 0.18 0
0.7 0.18 0
0.8 0.18 0
0.9 0.18 0
1 0.18 0
0 0.27 0
0.1 0.27 0
0.2 0.27 0
0.3 0.27 0
0.4 0.27 0
0.5 0.27 0
0.6 0.27 0
0.7 0.27 0
0.8 0.27 0
0.9 0.27 0
1 0.27 0
0 0.36 0
0.1 0.36 0
0.2 0.36 0
0.3 0.36 0
0.4 0.36 0
0.5 0.36 0
0.6 0.36 0
0.7 0.36 0
0.8 0.36 0
0.9 0.36 0
1 0.36 0
0 0.45 0
0.1 0.45 0
0.2 0.45 0
0.3 0.45 0
0.4 0.45 0
0.5 0.45 0
0.6 0.45 0
0.7 0.45 0
0.8 0.45 0
0.9 0.45 0
1 0.45 0
CELLS 100 400
3 0 1 12
3 0 12 11
3 1 2 13
3 1 13 12
3 2 3 14
3 2 14 13
3 3 4 15
3 3 15 14
3 4 5 16
3 4 16 15
3 5 6 17
3 5 17 16
3 6 7 18
3 6 18 17
3 7 8 19
3 7 19 18
3 8 9 20
3 8 20 19
3 9 10 21
3 9 21 20
3 11 12 23
3 11 23 22
3 12 13 24
3 12 24 23
3 13 14 25
3 13 25 24
3 14 15 26
3 14 26 25
3 15 16 27
3 15 27 26
3 16 17 28
3 16 28 27
3 17 18 29
3 17 29 28
3 18 19 30
3 18 30 29
3 19 20 31
3 19 31 30
3 20 21 32
3 20 32 31
3 22 23 34
3 22 34 33
3 23 24 35
3 23 35 34
3 24 25 36
3 24 36 35
3 25 26 37
3 25 37 36
3 26 27 38
3 26 38 37
3 27 28 39
3 27 39 38
3 28 29 40
3 28 40 39
3 29 30 41
3 29 41 40
3 30 31 42
3 30 42 41
3 31 32 43
3 31 43 42
3 33 34 45
3 33 45 44
3 34 35 46
3 34 46 45
3 35 36 47
3 35 47 46
3 36 37 48
3 36 48 47
3 37 38 49
3 37 49 48
3 38 39 50
3 38 50 49
3 39 40 51
3 39 51 50
3 40 41 52
3 40 52 51
3 41 42 53
3 41 53 52
3 42 43 54
3 42 54 53
3 44 45 56
3 44 56 55
3 45 46 57
3 45 57 56
3 46 47 58
3 46 58 57
3 47 48 59
3 47 59 58
3 48 49 60
3 48 60 59
3 49 50 61
3 49 61 60
3 50 51 62
3 50 62 61
3 51 52 63
3 51 63 62
3 52 53 64
3 52 64 63
3 53 54 65
3 53 65 64
CELL_TYPES 100
5
5
5
5
5
5
5
5
5
5
5
5
5
5
5
5
5
5
5
5
5
5
5
5
5
5
5
5
5
5
5
5
5
5
5
5
5
5
5
5
5
5
5
5
5
5
5
5
5
5
5
5
5
5
5
5
5
5
5
5
5
5
5
5
5
5
5
5
5
5
5
5
5
5
5
5
5
5
5
5
5
5
5
5
5
5
5
5
5
5
5
5
5
5
5
5
5
5
5
5
CELL_DATA 100
VECTORS Et double
0.11043 -0.595459 0
-0.0842682 -0.128214 0
0.0238517 -0.985689 0
-0.0834895 -0.779039 0
-0.0153652 -0.952787 0
-0.00498311 -0.996793 0
-0.0138035 -0.875932 0
0.000260223 -0.921305 0
-0.012614 -0.771078 0
0.0314081 -0.847301 0
-0.0112033 -0.639838 0
0.0615418 -0.745088 0
-0.00947299 -0.491135 0
0.0852193 -0.617132 0
-0.00768944 -0.332555 0
0.102866 -0.472273 0
-0.00622103 -0.171903 0
0.112607 -0.317429 0
-0.00533491 -0.00592768 0
0.122606 -0.159501 0
0.108959 -0.342522 0
0.00603895 -0.0708425 0
-0.00880604 -0.583601 0
-0.0621658 -0.465608 0
-0.0291266 -0.556865 0
-0.00891535 -0.598226 0
-0.0225667 -0.514925 0
-0.0198327 -0.537176 0
0.010137 -0.450687 0
0.0341696 -0.495851 0
0.0423909 -0.370502 0
0.0833225 -0.432816 0
0.0689775 -0.280851 0
0.122792 -0.354815 0
0.0898971 -0.187652 0
0.152541 -0.268196 0
0.102584 -0.094774 0
0.170563 -0.178219 0
0.114341 -0.00369342 0
0.184596 -0.087834 0
0.084656 0.0128012 0
0.0846617 0.0146523 0
-0.0223784 -0.0117444 0
-0.0278476 -0.00088549 0
-0.0167113 -0.0146221 0
-0.00928755 -0.021703 0
-0.0293849 -0.0122855 0
-0.0280995 -0.0147519 0
0.0242053 -0.00468584 0
0.0266113 -0.0101209 0
0.0738976 0.00448804 0
0.076211 -0.00137982 0
0.115011 0.011559 0
0.116411 0.00758609 0
0.147114 0.0134524 0
0.146873 0.0131887 0
0.167467 0.00936232 0
0.165572 0.0130011 0
0.182879 0.00047882 0
0.179333 0.00717047 0
0.0169691 0.363812 0
0.118667 0.0951259 0
-0.0392922 0.569074 0
0.00724259 0.465924 0
0.00122458 0.530016 0
-0.0132333 0.567187 0
-0.0207522 0.491378 0
-0.0225778 0.510472 0
0.0313403 0.442069 0
0.012043 0.476553 0
0.0794929 0.380041 0
0.0433181 0.43062 0
0.11968 0.304448 0
0.0688793 0.37036 0
0.151224 0.214991 0
0.0882704 0.294901 0
0.171363 0.114451 0
0.100195 0.204568 0
0.185995 0.00512921 0
0.10851 0.102992 0
-0.0697458 0.610772 0
0.125716 0.139685 0
-0.0500564 0.995722 0
0.0578986 0.789326 0
0.0128049 0.932557 0
-0.0161699 0.999869 0
-0.00108907 0.856486 0
-0.0139412 0.899916 0
0.029133 0.761748 0
-0.0113093 0.830262 0
0.057309 0.646819 0
-0.0093238 0.740377 0
0.0814235 0.511613 0
-0.00819432 0.628552 0
0.100769 0.357097 0
-0.00784911 0.494632 0
0.113296 0.188189 0
-0.00796844 0.340116 0
0.122085 0.00844413 0
-0.00819474 0.170749 0
