# vtk DataFile Version 3.0
tp3485 cell-vector
ASCII
DATASET UNSTRUCTURED_GRID
POINTS 66 double
0 0 0
0.1 0 0
0.2 0 0
0.3 0 0
0.4 0 0
0.5 0 0
0.6 0 0
0.7 0 0
0.8 0 0
0.9 0 0
1 0 0
0 0.09 0
0.1 0.09 0
0.2 0.09 0
0.3 0.09 0
0.4 0.09 0
0.5 0.09 0
0.6 0.09 0
0.7 0.09 0
0.8 0.09 0
0.9 0.09 0
1 0.09 0
0 0.18 0
0.1 0.18 0
0.2 0.18 0
0.3 0.18 0
0.4 0.18 0
0.5 0.18 0
0.6 0.18 0
0.7 0.18 0
0.8 0.18 0
0.9 0.18 0
1 0.18 0
0 0.27 0
0.1 0.27 0
0.2 0.27 0
0.3 0.27 0
0.4 0.27 0
0.5 0.27 0
0.6 0.27 0
0.7 0.27 0
0.8 0.27 0
0.9 0.27 0
1 0.27 0
0 0.36 0
0.1 0.36 0
0.2 0.36 0
0.3 0.36 0
0.4 0.36 0
0.5 0.36 0
0.6 0.36 0
0.7 0.36 0
0.8 0.36 0
0.9 0.36 0
1 0.36 0
0 0.45 0
0.1 0.45 0
0.2 0.45 0
0.3 0.45 0
0.4 0.45 0
0.5 0.45 0
0.6 0.45 0
0.7 0.45 0
0.8 0.45 0
0.9 0.45 0
1 0.45 0
CELLS 100 400
3 0 1 12
3 0 12 11
3 1 2 13
3 1 13 12
3 2 3 14
3 2 14 13
3 3 4 15
3 3 15 14
3 4 5 16
3 4 16 15
3 5 6 17
3 5 17 16
3 6 7 18
3 6 18 17
3 7 8 19
3 7 19 18
3 8 9 20
3 8 20 19
3 9 10 21
3 9 21 20
3 11 12 23
3 11 23 22
3 12 13 24
3 12 24 23
3 13 14 25
3 13 25 24
3 14 15 26
3 14 26 25
3 15 16 27
3 15 27 26
3 16 17 28
3 16 28 27
3 17 18 29
3 17 29 28
3 18 19 30
3 18 30 29
3 19 20 31
3 19 31 30
3 20 21 32
3 20 32 31
3 22 23 34
3 22 34 33
3 23 24 35
3 23 35 34
3 24 25 36
3 24 36 35
3 25 26 37
3 25 37 36
3 26 27 38
3 26 38 37
3 27 28 39
3 27 39 38
3 28 29 40
3 28 40 39
3 29 30 41
3 29 41 40
3 30 31 42
3 30 42 41
3 31 32 43
3 31 43 42
3 33 34 45
3 33 45 44
3 34 35 46
3 34 46 45
3 35 36 47
3 35 47 46
3 36 37 48
3 36 48 47
3 37 38 49
3 37 49 48
3 38 39 50
3 38 50 49
3 39 40 51
3 39 51 50
3 40 41 52
3 40 52 51
3 41 42 53
3 41 53 52
3 42 43 54
3 42 54 53
3 44 45 56
3 44 56 55
3 45 46 57
3 45 57 56
3 46 47 58
3 46 58 57
3 47 48 59
3 47 59 58
3 48 49 60
3 48 60 59
3 49 50 61
3 49 61 60
3 50 51 62
3 50 62 61
3 51 52 63
3 51 63 62
3 52 53 64
3 52 64 63
3 53 54 65
3 53 65 64
CELL_TYPES 100
5
5
5
5
5
5
5
5
5
5
5
5
5
5
5
5
5
5
5
5
5
5
5
5
5
5
5
5
5
5
5
5
5
5
5
5
5
5
5
5
5
5
5
5
5
5
5
5
5
5
5
5
5
5
5
5
5
5
5
5
5
5
5
5
5
5
5
5
5
5
5
5
5
5
5
5
5
5
5
5
5
5
5
5
5
5
5
5
5
5
5
5
5
5
5
5
5
5
5
5
CELL_DATA 100
VECTORS Et double
-0.0066822 0.0293959 0
-0.00273136 0.00879069 0
0.00281503 0.0352089 0
0.00337094 0.0372698 0
0.00235205 0.367865 0
0.312244 0.0291176 0
0.00176647 0.682323 0
0.293213 0.362854 0
0.0008437 0.906216 0
0.207679 0.678848 0
-0.0001943 0.995799 0
0.0816946 0.904937 0
-0.00114435 0.936522 0
-0.0573518 0.996859 0
-0.00180688 0.734037 0
-0.190229 0.93959 0
-0.00214467 0.413739 0
-0.298777 0.738496 0
-0.00245929 -0.00273254 0
-0.386766 0.418832 0
-0.015353 0.0190444 0
-0.0116653 0.00485679 0
0.0050981 0.0231716 0
0.00610171 0.0243513 0
0.316889 0.225397 0
0.507007 0.0185776 0
0.296786 0.408098 0
0.468148 0.221233 0
0.2098 0.529045 0
0.323225 0.405194 0
0.0820852 0.570276 0
0.12105 0.527637 0
-0.058611 0.525168 0
-0.0999251 0.570351 0
-0.192725 0.400296 0
-0.307811 0.526457 0
-0.302116 0.214482 0
-0.473432 0.402425 0
-0.39051 -0.00144953 0
-0.58966 0.21706 0
-0.016983 0.00286602 0
-0.014095 -0.000697329 0
0.00702272 0.00468199 0
0.00941055 0.00352175 0
0.509635 0.0181948 0
0.524816 0.00280333 0
0.470294 0.0178663 0
0.472187 0.0168406 0
0.324555 0.00891877 0
0.317593 0.017124 0
0.121545 -0.000671711 0
0.113144 0.00871087 0
-0.100086 -0.0101571 0
-0.108726 -0.000613492 0
-0.308351 -0.0169227 0
-0.314334 -0.0101431 0
-0.474201 -0.0162591 0
-0.47301 -0.0171714 0
-0.590434 0.000459675 0
-0.574126 -0.0168778 0
-0.0107584 -0.0143669 0
-0.0113021 -0.00537634 0
0.00894662 -0.0160845 0
0.00976016 -0.0176384 0
0.524424 -0.202647 0
0.352605 -0.014063 0
0.471961 -0.39003 0
0.29955 -0.200401 0
0.317314 -0.521183 0
0.196306 -0.388241 0
0.113054 -0.571497 0
0.0661213 -0.520031 0
-0.108339 -0.534642 0
-0.074816 -0.571375 0
-0.313287 -0.415483 0
-0.203285 -0.535829 0
-0.471364 -0.231162 0
-0.300395 -0.418031 0
-0.571929 0.00211922 0
-0.355167 -0.234742 0
-0.001548 -0.0269183 0
-0.00695301 -0.00772557 0
0.00714748 -0.036958 0
5.97098e-05 -0.0323135 0
0.348863 -0.410022 0
0.00250484 -0.0310103 0
0.296479 -0.726625 0
0.00221589 -0.404512 0
0.19395 -0.932081 0
0.00177658 -0.722267 0
0.0648969 -0.997892 0
0.00111494 -0.929104 0
-0.0745379 -0.913707 0
0.000237152 -0.996786 0
-0.201375 -0.694195 0
-0.000768411 -0.914828 0
-0.297026 -0.373627 0
-0.00170687 -0.697501 0
-0.350781 0.00300679 0
-0.00232633 -0.378573 0
