# vtk DataFile Version 3.0
tp3485 cell-vector
ASCII
DATASET UNSTRUCTURED_GRID
POINTS 66 double
0 0 0
0.1 0 0
0.2 0 0
0.3 0 0
0.4 0 0
0.5 0 0
0.6 0 0
0.7 0 0
0.8 0 0
0.9 0 0
1 0 0
0 0.09 0
0.1 0.09 0
0.2 0.09 0
0.3 0.09 0
0.4 0.09 0
0.5 0.09 0
0.6 0.09 0
0.7 0.09 0
0.8 0.09 0
0.9 0.09 0
1 0.09 0
0 0.18 0
0.1 0.18 0
0.2 0.18 0
0.3 0.18 0
0.4 0.18 0
0.5 0.18 0
0.6 0.18 0
0.7 0.18 0
0.8 0.18 0
0.9 0.18 0
1 0.18 0
0 0.27 0
0.1 0.27 0
0.2 0.27 0
0.3 0.27 0
0.4 0.27 0
0.5 0.27 0
0.6 0.27 0
0.7 0.27 0
0.8 0.27 0
0.9 0.27 0
1 0.27 0
0 0.36 0
0.1 0.36 0
0.2 0.36 0
0.3 0.36 0
0.4 0.36 0
0.5 0.36 0
0.6 0.36 0
0.7 0.36 0
0.8 0.36 0
0.9 0.36 0
1 0.36 0
0 0.45 0
0.1 0.45 0
0.2 0.45 0
0.3 0.45 0
0.4 0.45 0
0.5 0.45 0
0.6 0.45 0
0.7 0.45 0
0.8 0.45 0
0.9 0.45 0
1 0.45 0
CELLS 100 400
3 0 1 12
3 0 12 11
3 1 2 13
3 1 13 12
3 2 3 14
3 2 14 13
3 3 4 15
3 3 15 14
3 4 5 16
3 4 16 15
3 5 6 17
3 5 17 16
3 6 7 18
3 6 18 17
3 7 8 19
3 7 19 18
3 8 9 20
3 8 20 19
3 9 10 21
3 9 21 20
3 11 12 23
3 11 23 22
3 12 13 24
3 12 24 23
3 13 14 25
3 13 25 24
3 14 15 26
3 14 26 25
3 15 16 27
3 15 27 26
3 16 17 28
3 16 28 27
3 17 18 29
3 17 29 28
3 18 19 30
3 18 30 29
3 19 20 31
3 19 31 30
3 20 21 32
3 20 32 31
3 22 23 34
3 22 34 33
3 23 24 35
3 23 35 34
3 24 25 36
3 24 36 35
3 25 26 37
3 25 37 36
3 26 27 38
3 26 38 37
3 27 28 39
3 27 39 38
3 28 29 40
3 28 40 39
3 29 30 41
3 29 41 40
3 30 31 42
3 30 42 41
3 31 32 43
3 31 43 42
3 33 34 45
3 33 45 44
3 34 35 46
3 34 46 45
3 35 36 47
3 35 47 46
3 36 37 48
3 36 48 47
3 37 38 49
3 37 49 48
3 38 39 50
3 38 50 49
3 39 40 51
3 39 51 50
3 40 41 52
3 40 52 51
3 41 42 53
3 41 53 52
3 42 43 54
3 42 54 53
3 44 45 56
3 44 56 55
3 45 46 57
3 45 57 56
3 46 47 58
3 46 58 57
3 47 48 59
3 47 59 58
3 48 49 60
3 48 60 59
3 49 50 61
3 49 61 60
3 50 51 62
3 50 62 61
3 51 52 63
3 51 63 62
3 52 53 64
3 52 64 63
3 53 54 65
3 53 65 64
CELL_TYPES 100
5
5
5
5
5
5
5
5
5
5
5
5
5
5
5
5
5
5
5
5
5
5
5
5
5
5
5
5
5
5
5
5
5
5
5
5
5
5
5
5
5
5
5
5
5
5
5
5
5
5
5
5
5
5
5
5
5
5
5
5
5
5
5
5
5
5
5
5
5
5
5
5
5
5
5
5
5
5
5
5
5
5
5
5
5
5
5
5
5
5
5
5
5
5
5
5
5
5
5
5
CELL_DATA 100
VECTORS Et double
0.15229 -0.262067 0
0.371259 -0.168077 0
0.0910649 -0.634905 0
0.218889 -0.553514 0
-0.00275474 -0.792343 0
0.00375024 -0.76936 0
-0.096801 -0.685843 0
-0.223816 -0.720777 0
-0.15791 -0.362894 0
-0.387389 -0.43083 0
-0.163963 0.0347907 0
-0.443155 -0.0123077 0
-0.112215 0.308799 0
-0.395698 0.358034 0
-0.0209286 0.213062 0
-0.341097 0.489517 0
-0.00029057 0.0933969 0
-0.126426 0.23477 0
0.000650367 0.00072263 0
-0.0800622 0.0924228 0
0.628076 -0.136155 0
0.777896 -0.0926731 0
0.394229 -0.363262 0
0.486595 -0.323367 0
0.0351325 -0.469395 0
0.0462373 -0.457992 0
-0.34959 -0.41731 0
-0.427859 -0.43629 0
-0.627965 -0.228881 0
-0.774875 -0.265782 0
-0.714345 0.0151609 0
-0.891781 -0.0114558 0
-0.601341 0.193029 0
-0.777136 0.22114 0
-0.407155 0.128815 0
-0.616772 0.312409 0
-0.125056 0.0574117 0
-0.202578 0.144851 0
-0.078408 0.000541074 0
-0.126903 0.0562004 0
0.87916 0.0222871 0
0.882841 0.0190203 0
0.563747 0.011027 0
0.568083 0.0122207 0
0.0706815 -0.00765515 0
0.0758139 -0.0065506 0
-0.467048 -0.0174699 0
-0.459245 -0.0238264 0
-0.86494 -0.0109426 0
-0.855979 -0.0246581 0
-0.999965 0.00839319 0
-0.991576 -0.00735558 0
-0.863153 0.0265941 0
-0.859273 0.018759 0
-0.647157 0.0181906 0
-0.659088 0.0360087 0
-0.200411 0.00763281 0
-0.205354 0.0171032 0
-0.125603 0.000209301 0
-0.128923 0.00533044 0
0.788255 0.173731 0
0.643299 0.124359 0
0.51604 0.379517 0
0.424498 0.346494 0
0.0819945 0.451484 0
0.0711517 0.448088 0
-0.399751 0.383756 0
-0.31504 0.395494 0
-0.764345 0.21151 0
-0.605315 0.224701 0
-0.897346 0.00226563 0
-0.708709 0.00344658 0
-0.792055 -0.144136 0
-0.60858 -0.185904 0
-0.638668 -0.094643 0
-0.445115 -0.249973 0
-0.200573 -0.0452173 0
-0.131358 -0.115333 0
-0.127751 7.96826e-05 0
-0.0830093 -0.0485928 0
0.387802 0.276063 0
0.164229 0.182476 0
0.261951 0.630383 0
0.117579 0.566233 0
0.0547987 0.767267 0
0.0318609 0.759704 0
-0.182668 0.66152 0
-0.0630579 0.694851 0
-0.370583 0.36856 0
-0.135553 0.414739 0
-0.450513 0.00760253 0
-0.162063 0.0317808 0
-0.413445 -0.260644 0
-0.133762 -0.30563 0
-0.380007 -0.179656 0
-0.0585496 -0.442847 0
-0.124718 -0.0859898 0
-0.00389319 -0.212911 0
-0.0820767 7.53946e-05 0
-0.000615932 -0.0896769 0
