# vtk DataFile Version 3.0
tp3485 cell-vector
ASCII
DATASET UNSTRUCTURED_GRID
POINTS 66 double
0 0 0
0.1 0 0
0.2 0 0
0.3 0 0
0.4 0 0
0.5 0 0
0.6 0 0
0.7 0 0
0.8 0 0
0.9 0 0
1 0 0
0 0.09 0
0.1 0.09 0
0.2 0.09 0
0.3 0.09 0
0.4 0.09 0
0.5 0.09 0
0.6 0.09 0
0.7 0.09 0
0.8 0.09 0
0.9 0.09 0
1 0.09 0
0 0.18 0
0.1 0.18 0
0.2 0.18 0
0.3 0.18 0
0.4 0.18 0
0.5 0.18 0
0.6 0.18 0
0.7 0.18 0
0.8 0.18 0
0.9 0.18 0
1 0.18 0
0 0.27 0
0.1 0.27 0
0.2 0.27 0
0.3 0.27 0
0.4 0.27 0
0.5 0.27 0
0.6 0.27 0
0.7 0.27 0
0.8 0.27 0
0.9 0.27 0
1 0.27 0
0 0.36 0
0.1 0.36 0
0.2 0.36 0
0.3 0.36 0
0.4 0.36 0
0.5 0.36 0
0.6 0.36 0
0.7 0.36 0
0.8 0.36 0
0.9 0.36 0
1 0.36 0
0 0.45 0
0.1 0.45 0
0.2 0.45 0
0.3 0.45 0
0.4 0.45 0
0.5 0.45 0
0.6 0.45 0
0.7 0.45 0
0.8 0.45 0
0.9 0.45 0
1 0.45 0
CELLS 100 400
3 0 1 12
3 0 12 11
3 1 2 13
3 1 13 12
3 2 3 14
3 2 14 13
3 3 4 15
3 3 15 14
3 4 5 16
3 4 16 15
3 5 6 17
3 5 17 16
3 6 7 18
3 6 18 17
3 7 8 19
3 7 19 18
3 8 9 20
3 8 20 19
3 9 10 21
3 9 21 20
3 11 12 23
3 11 23 22
3 12 13 24
3 12 24 23
3 13 14 25
3 13 25 24
3 14 15 26
3 14 26 25
3 15 16 27
3 15 27 26
3 16 17 28
3 16 28 27
3 17 18 29
3 17 29 28
3 18 19 30
3 18 30 29
3 19 20 31
3 19 31 30
3 20 21 32
3 20 32 31
3 22 23 34
3 22 34 33
3 23 24 35
3 23 35 34
3 24 25 36
3 24 36 35
3 25 26 37
3 25 37 36
3 26 27 38
3 26 38 37
3 27 28 39
3 27 39 38
3 28 29 40
3 28 40 39
3 29 30 41
3 29 41 40
3 30 31 42
3 30 42 41
3 31 32 43
3 31 43 42
3 33 34 45
3 33 45 44
3 34 35 46
3 34 46 45
3 35 36 47
3 35 47 46
3 36 37 48
3 36 48 47
3 37 38 49
3 37 49 48
3 38 39 50
3 38 50 49
3 39 40 51
3 39 51 50
3 40 41 52
3 40 52 51
3 41 42 53
3 41 53 52
3 42 43 54
3 42 54 53
3 44 45 56
3 44 56 55
3 45 46 57
3 45 57 56
3 46 47 58
3 46 58 57
3 47 48 59
3 47 59 58
3 48 49 60
3 48 60 59
3 49 50 61
3 49 61 60
3 50 51 62
3 50 62 61
3 51 52 63
3 51 63 62
3 52 53 64
3 52 64 63
3 53 54 65
3 53 65 64
CELL_TYPES 100
5
5
5
5
5
5
5
5
5
5
5
5
5
5
5
5
5
5
5
5
5
5
5
5
5
5
5
5
5
5
5
5
5
5
5
5
5
5
5
5
5
5
5
5
5
5
5
5
5
5
5
5
5
5
5
5
5
5
5
5
5
5
5
5
5
5
5
5
5
5
5
5
5
5
5
5
5
5
5
5
5
5
5
5
5
5
5
5
5
5
5
5
5
5
5
5
5
5
5
5
CELL_DATA 100
VECTORS Et double
-0.0904583 0.505849 0
0.0726003 0.112082 0
-0.0240324 0.789519 0
0.018767 0.660809 0
0.0546158 0.560944 0
-0.0574864 0.781204 0
0.0948697 -0.0248235 0
-0.105616 0.401804 0
0.0716542 -0.581108 0
-0.0904948 -0.22578 0
0.0325818 -0.889463 0
-0.0568955 -0.707282 0
0.000369228 -0.978077 0
-0.0234769 -0.938418 0
-0.0322688 -0.844051 0
0.0126934 -0.954176 0
-0.0579554 -0.519141 0
0.0430094 -0.751958 0
-0.070923 -0.0788033 0
0.0599851 -0.378903 0
-0.117139 0.50531 0
0.0518442 0.109405 0
-0.0531073 0.790148 0
-0.00236497 0.656205 0
0.0296567 0.56199 0
-0.0763749 0.778584 0
0.0789358 -0.0275923 0
-0.119693 0.399945 0
0.0680414 -0.593569 0
-0.0982742 -0.231182 0
0.0180619 -0.90387 0
-0.0705224 -0.721446 0
-0.011233 -0.990551 0
-0.0314385 -0.953923 0
-0.0411288 -0.853767 0
0.0078791 -0.967556 0
-0.0652967 -0.525122 0
0.0403035 -0.762417 0
-0.0789783 -0.0785607 0
0.0585783 -0.385491 0
-0.131987 0.505084 0
0.0480184 0.105113 0
-0.0690496 0.788232 0
-0.00606646 0.648123 0
0.0152365 0.558897 0
-0.0797276 0.769701 0
0.06869 -0.0340789 0
-0.12275 0.390895 0
0.0629802 -0.605264 0
-0.100604 -0.242239 0
0.00587282 -0.908482 0
-0.0722118 -0.735779 0
-0.0180758 -0.990952 0
-0.0316971 -0.960196 0
-0.0450517 -0.852375 0
0.00771254 -0.969221 0
-0.0672821 -0.523845 0
0.0399108 -0.762018 0
-0.0797741 -0.0781953 0
0.0583853 -0.385033 0
-0.128144 0.506546 0
0.0640975 0.10116 0
-0.0657372 0.788457 0
0.00992259 0.641724 0
0.0180312 0.557387 0
-0.0662652 0.762885 0
0.0707295 -0.0402096 0
-0.114451 0.383288 0
0.0640564 -0.618824 0
-0.0985901 -0.253117 0
0.00599236 -0.919865 0
-0.065909 -0.752055 0
-0.0169981 -0.999856 0
-0.0255216 -0.973291 0
-0.0441881 -0.858608 0
0.0131676 -0.979419 0
-0.0668464 -0.526982 0
0.044875 -0.76927 0
-0.0792483 -0.0777939 0
0.0635731 -0.389016 0
-0.106203 0.504123 0
0.0894168 0.099352 0
-0.0445009 0.786924 0
0.0388127 0.635311 0
0.0361637 0.557782 0
-0.0404253 0.757923 0
0.0831857 -0.0402964 0
-0.0965632 0.380364 0
0.0691689 -0.623625 0
-0.0922629 -0.256458 0
0.0139273 -0.914063 0
-0.0450988 -0.759019 0
-0.00962088 -0.991714 0
-0.0138556 -0.968809 0
-0.0378141 -0.851729 0
0.0200387 -0.972254 0
-0.0611594 -0.523047 0
0.0491569 -0.763132 0
-0.0734527 -0.0775136 0
0.0670542 -0.385651 0
