# vtk DataFile Version 3.0
tp3485 cell-vector
ASCII
DATASET UNSTRUCTURED_GRID
POINTS 441 double
0 0 0
0.05 0 0
0.1 0 0
0.15 0 0
0.2 0 0
0.25 0 0
0.3 0 0
0.35 0 0
0.4 0 0
0.45 0 0
0.5 0 0
0.55 0 0
0.6 0 0
0.65 0 0
0.7 0 0
0.75 0 0
0.8 0 0
0.85 0 0
0.9 0 0
0.95 0 0
1 0 0
0 0.05 0
0.05 0.05 0
0.1 0.05 0
0.15 0.05 0
0.2 0.05 0
0.25 0.05 0
0.3 0.05 0
0.35 0.05 0
0.4 0.05 0
0.45 0.05 0
0.5 0.05 0
0.55 0.05 0
0.6 0.05 0
0.65 0.05 0
0.7 0.05 0
0.75 0.05 0
0.8 0.05 0
0.85 0.05 0
0.9 0.05 0
0.95 0.05 0
1 0.05 0
0 0.1 0
0.05 0.1 0
0.1 0.1 0
0.15 0.1 0
0.2 0.1 0
0.25 0.1 0
0.3 0.1 0
0.35 0.1 0
0.4 0.1 0
0.45 0.1 0
0.5 0.1 0
0.55 0.1 0
0.6 0.1 0
0.65 0.1 0
0.7 0.1 0
0.75 0.1 0
0.8 0.1 0
0.85 0.1 0
0.9 0.1 0
0.95 0.1 0
1 0.1 0
0 0.15 0
0.05 0.15 0
0.1 0.15 0
0.15 0.15 0
0.2 0.15 0
0.25 0.15 0
0.3 0.15 0
0.35 0.15 0
0.4 0.15 0
0.45 0.15 0
0.5 0.15 0
0.55 0.15 0
0.6 0.15 0
0.65 0.15 0
0.7 0.15 0
0.75 0.15 0
0.8 0.15 0
0.85 0.15 0
0.9 0.15 0
0.95 0.15 0
1 0.15 0
0 0.2 0
0.05 0.2 0
0.1 0.2 0
0.15 0.2 0
0.2 0.2 0
0.25 0.2 0
0.3 0.2 0
0.35 0.2 0
0.4 0.2 0
0.45 0.2 0
0.5 0.2 0
0.55 0.2 0
0.6 0.2 0
0.65 0.2 0
0.7 0.2 0
0.75 0.2 0
0.8 0.2 0
0.85 0.2 0
0.9 0.2 0
0.95 0.2 0
1 0.2 0
0 0.25 0
0.05 0.25 0
0.1 0.25 0
0.15 0.25 0
0.2 0.25 0
0.25 0.25 0
0.3 0.25 0
0.35 0.25 0
0.4 0.25 0
0.45 0.25 0
0.5 0.25 0
0.55 0.25 0
0.6 0.25 0
0.65 0.25 0
0.7 0.25 0
0.75 0.25 0
0.8 0.25 0
0.85 0.25 0
0.9 0.25 0
0.95 0.25 0
1 0.25 0
0 0.3 0
0.05 0.3 0
0.1 0.3 0
0.15 0.3 0
0.2 0.3 0
0.25 0.3 0
0.3 0.3 0
0.35 0.3 0
0.4 0.3 0
0.45 0.3 0
0.5 0.3 0
0.55 0.3 0
0.6 0.3 0
0.65 0.3 0
0.7 0.3 0
0.75 0.3 0
0.8 0.3 0
0.85 0.3 0
0.9 0.3 0
0.95 0.3 0
1 0.3 0
0 0.35 0
0.05 0.35 0
0.1 0.35 0
0.15 0.35 0
0.2 0.35 0
0.25 0.35 0
0.3 0.35 0
0.35 0.35 0
0.4 0.35 0
0.45 0.35 0
0.5 0.35 0
0.55 0.35 0
0.6 0.35 0
0.65 0.35 0
0.7 0.35 0
0.75 0.35 0
0.8 0.35 0
0.85 0.35 0
0.9 0.35 0
0.95 0.35 0
1 0.35 0
0 0.4 0
0.05 0.4 0
0.1 0.4 0
0.15 0.4 0
0.2 0.4 0
0.25 0.4 0
0.3 0.4 0
0.35 0.4 0
0.4 0.4 0
0.45 0.4 0
0.5 0.4 0
0.55 0.4 0
0.6 0.4 0
0.65 0.4 0
0.7 0.4 0
0.75 0.4 0
0.8 0.4 0
0.85 0.4 0
0.9 0.4 0
0.95 0.4 0
1 0.4 0
0 0.45 0
0.05 0.45 0
0.1 0.45 0
0.15 0.45 0
0.2 0.45 0
0.25 0.45 0
0.3 0.45 0
0.35 0.45 0
0.4 0.45 0
0.45 0.45 0
0.5 0.45 0
0.55 0.45 0
0.6 0.45 0
0.65 0.45 0
0.7 0.45 0
0.75 0.45 0
0.8 0.45 0
0.85 0.45 0
0.9 0.45 0
0.95 0.45 0
1 0.45 0
0 0.5 0
0.05 0.5 0
0.1 0.5 0
0.15 0.5 0
0.2 0.5 0
0.25 0.5 0
0.3 0.5 0
0.35 0.5 0
0.4 0.5 0
0.45 0.5 0
0.5 0.5 0
0.55 0.5 0
0.6 0.5 0
0.65 0.5 0
0.7 0.5 0
0.75 0.5 0
0.8 0.5 0
0.85 0.5 0
0.9 0.5 0
0.95 0.5 0
1 0.5 0
0 0.55 0
0.05 0.55 0
0.1 0.55 0
0.15 0.55 0
0.2 0.55 0
0.25 0.55 0
0.3 0.55 0
0.35 0.55 0
0.4 0.55 0
0.45 0.55 0
0.5 0.55 0
0.55 0.55 0
0.6 0.55 0
0.65 0.55 0
0.7 0.55 0
0.75 0.55 0
0.8 0.55 0
0.85 0.55 0
0.9 0.55 0
0.95 0.55 0
1 0.55 0
0 0.6 0
0.05 0.6 0
0.1 0.6 0
0.15 0.6 0
0.2 0.6 0
0.25 0.6 0
0.3 0.6 0
0.35 0.6 0
0.4 0.6 0
0.45 0.6 0
0.5 0.6 0
0.55 0.6 0
0.6 0.6 0
0.65 0.6 0
0.7 0.6 0
0.75 0.6 0
0.8 0.6 0
0.85 0.6 0
0.9 0.6 0
0.95 0.6 0
1 0.6 0
0 0.65 0
0.05 0.65 0
0.1 0.65 0
0.15 0.65 0
0.2 0.65 0
0.25 0.65 0
0.3 0.65 0
0.35 0.65 0
0.4 0.65 0
0.45 0.65 0
0.5 0.65 0
0.55 0.65 0
0.6 0.65 0
0.65 0.65 0
0.7 0.65 0
0.75 0.65 0
0.8 0.65 0
0.85 0.65 0
0.9 0.65 0
0.95 0.65 0
1 0.65 0
0 0.7 0
0.05 0.7 0
0.1 0.7 0
0.15 0.7 0
0.2 0.7 0
0.25 0.7 0
0.3 0.7 0
0.35 0.7 0
0.4 0.7 0
0.45 0.7 0
0.5 0.7 0
0.55 0.7 0
0.6 0.7 0
0.65 0.7 0
0.7 0.7 0
0.75 0.7 0
0.8 0.7 0
0.85 0.7 0
0.9 0.7 0
0.95 0.7 0
1 0.7 0
0 0.75 0
0.05 0.75 0
0.1 0.75 0
0.15 0.75 0
0.2 0.75 0
0.25 0.75 0
0.3 0.75 0
0.35 0.75 0
0.4 0.75 0
0.45 0.75 0
0.5 0.75 0
0.55 0.75 0
0.6 0.75 0
0.65 0.75 0
0.7 0.75 0
0.75 0.75 0
0.8 0.75 0
0.85 0.75 0
0.9 0.75 0
0.95 0.75 0
1 0.75 0
0 0.8 0
0.05 0.8 0
0.1 0.8 0
0.15 0.8 0
0.2 0.8 0
0.25 0.8 0
0.3 0.8 0
0.35 0.8 0
0.4 0.8 0
0.45 0.8 0
0.5 0.8 0
0.55 0.8 0
0.6 0.8 0
0.65 0.8 0
0.7 0.8 0
0.75 0.8 0
0.8 0.8 0
0.85 0.8 0
0.9 0.8 0
0.95 0.8 0
1 0.8 0
0 0.85 0
0.05 0.85 0
0.1 0.85 0
0.15 0.85 0
0.2 0.85 0
0.25 0.85 0
0.3 0.85 0
0.35 0.85 0
0.4 0.85 0
0.45 0.85 0
0.5 0.85 0
0.55 0.85 0
0.6 0.85 0
0.65 0.85 0
0.7 0.85 0
0.75 0.85 0
0.8 0.85 0
0.85 0.85 0
0.9 0.85 0
0.95 0.85 0
1 0.85 0
0 0.9 0
0.05 0.9 0
0.1 0.9 0
0.15 0.9 0
0.2 0.9 0
0.25 0.9 0
0.3 0.9 0
0.35 0.9 0
0.4 0.9 0
0.45 0.9 0
0.5 0.9 0
0.55 0.9 0
0.6 0.9 0
0.65 0.9 0
0.7 0.9 0
0.75 0.9 0
0.8 0.9 0
0.85 0.9 0
0.9 0.9 0
0.95 0.9 0
1 0.9 0
0 0.95 0
0.05 0.95 0
0.1 0.95 0
0.15 0.95 0
0.2 0.95 0
0.25 0.95 0
0.3 0.95 0
0.35 0.95 0
0.4 0.95 0
0.45 0.95 0
0.5 0.95 0
0.55 0.95 0
0.6 0.95 0
0.65 0.95 0
0.7 0.95 0
0.75 0.95 0
0.8 0.95 0
0.85 0.95 0
0.9 0.95 0
0.95 0.95 0
1 0.95 0
0 1 0
0.05 1 0
0.1 1 0
0.15 1 0
0.2 1 0
0.25 1 0
0.3 1 0
0.35 1 0
0.4 1 0
0.45 1 0
0.5 1 0
0.55 1 0
0.6 1 0
0.65 1 0
0.7 1 0
0.75 1 0
0.8 1 0
0.85 1 0
0.9 1 0
0.95 1 0
1 1 0
CELLS 800 3200
3 0 1 22
3 0 22 21
3 1 2 23
3 1 23 22
3 2 3 24
3 2 24 23
3 3 4 25
3 3 25 24
3 4 5 26
3 4 26 25
3 5 6 27
3 5 27 26
3 6 7 28
3 6 28 27
3 7 8 29
3 7 29 28
3 8 9 30
3 8 30 29
3 9 10 31
3 9 31 30
3 10 11 32
3 10 32 31
3 11 12 33
3 11 33 32
3 12 13 34
3 12 34 33
3 13 14 35
3 13 35 34
3 14 15 36
3 14 36 35
3 15 16 37
3 15 37 36
3 16 17 38
3 16 38 37
3 17 18 39
3 17 39 38
3 18 19 40
3 18 40 39
3 19 20 41
3 19 41 40
3 21 22 43
3 21 43 42
3 22 23 44
3 22 44 43
3 23 24 45
3 23 45 44
3 24 25 46
3 24 46 45
3 25 26 47
3 25 47 46
3 26 27 48
3 26 48 47
3 27 28 49
3 27 49 48
3 28 29 50
3 28 50 49
3 29 30 51
3 29 51 50
3 30 31 52
3 30 52 51
3 31 32 53
3 31 53 52
3 32 33 54
3 32 54 53
3 33 34 55
3 33 55 54
3 34 35 56
3 34 56 55
3 35 36 57
3 35 57 56
3 36 37 58
3 36 58 57
3 37 38 59
3 37 59 58
3 38 39 60
3 38 60 59
3 39 40 61
3 39 61 60
3 40 41 62
3 40 62 61
3 42 43 64
3 42 64 63
3 43 44 65
3 43 65 64
3 44 45 66
3 44 66 65
3 45 46 67
3 45 67 66
3 46 47 68
3 46 68 67
3 47 48 69
3 47 69 68
3 48 49 70
3 48 70 69
3 49 50 71
3 49 71 70
3 50 51 72
3 50 72 71
3 51 52 73
3 51 73 72
3 52 53 74
3 52 74 73
3 53 54 75
3 53 75 74
3 54 55 76
3 54 76 75
3 55 56 77
3 55 77 76
3 56 57 78
3 56 78 77
3 57 58 79
3 57 79 78
3 58 59 80
3 58 80 79
3 59 60 81
3 59 81 80
3 60 61 82
3 60 82 81
3 61 62 83
3 61 83 82
3 63 64 85
3 63 85 84
3 64 65 86
3 64 86 85
3 65 66 87
3 65 87 86
3 66 67 88
3 66 88 87
3 67 68 89
3 67 89 88
3 68 69 90
3 68 90 89
3 69 70 91
3 69 91 90
3 70 71 92
3 70 92 91
3 71 72 93
3 71 93 92
3 72 73 94
3 72 94 93
3 73 74 95
3 73 95 94
3 74 75 96
3 74 96 95
3 75 76 97
3 75 97 96
3 76 77 98
3 76 98 97
3 77 78 99
3 77 99 98
3 78 79 100
3 78 100 99
3 79 80 101
3 79 101 100
3 80 81 102
3 80 102 101
3 81 82 103
3 81 103 102
3 82 83 104
3 82 104 103
3 84 85 106
3 84 106 105
3 85 86 107
3 85 107 106
3 86 87 108
3 86 108 107
3 87 88 109
3 87 109 108
3 88 89 110
3 88 110 109
3 89 90 111
3 89 111 110
3 90 91 112
3 90 112 111
3 91 92 113
3 91 113 112
3 92 93 114
3 92 114 113
3 93 94 115
3 93 115 114
3 94 95 116
3 94 116 115
3 95 96 117
3 95 117 116
3 96 97 118
3 96 118 117
3 97 98 119
3 97 119 118
3 98 99 120
3 98 120 119
3 99 100 121
3 99 121 120
3 100 101 122
3 100 122 121
3 101 102 123
3 101 123 122
3 102 103 124
3 102 124 123
3 103 104 125
3 103 125 124
3 105 106 127
3 105 127 126
3 106 107 128
3 106 128 127
3 107 108 129
3 107 129 128
3 108 109 130
3 108 130 129
3 109 110 131
3 109 131 130
3 110 111 132
3 110 132 131
3 111 112 133
3 111 133 132
3 112 113 134
3 112 134 133
3 113 114 135
3 113 135 134
3 114 115 136
3 114 136 135
3 115 116 137
3 115 137 136
3 116 117 138
3 116 138 137
3 117 118 139
3 117 139 138
3 118 119 140
3 118 140 139
3 119 120 141
3 119 141 140
3 120 121 142
3 120 142 141
3 121 122 143
3 121 143 142
3 122 123 144
3 122 144 143
3 123 124 145
3 123 145 144
3 124 125 146
3 124 146 145
3 126 127 148
3 126 148 147
3 127 128 149
3 127 149 148
3 128 129 150
3 128 150 149
3 129 130 151
3 129 151 150
3 130 131 152
3 130 152 151
3 131 132 153
3 131 153 152
3 132 133 154
3 132 154 153
3 133 134 155
3 133 155 154
3 134 135 156
3 134 156 155
3 135 136 157
3 135 157 156
3 136 137 158
3 136 158 157
3 137 138 159
3 137 159 158
3 138 139 160
3 138 160 159
3 139 140 161
3 139 161 160
3 140 141 162
3 140 162 161
3 141 142 163
3 141 163 162
3 142 143 164
3 142 164 163
3 143 144 165
3 143 165 164
3 144 145 166
3 144 166 165
3 145 146 167
3 145 167 166
3 147 148 169
3 147 169 168
3 148 149 170
3 148 170 169
3 149 150 171
3 149 171 170
3 150 151 172
3 150 172 171
3 151 152 173
3 151 173 172
3 152 153 174
3 152 174 173
3 153 154 175
3 153 175 174
3 154 155 176
3 154 176 175
3 155 156 177
3 155 177 176
3 156 157 178
3 156 178 177
3 157 158 179
3 157 179 178
3 158 159 180
3 158 180 179
3 159 160 181
3 159 181 180
3 160 161 182
3 160 182 181
3 161 162 183
3 161 183 182
3 162 163 184
3 162 184 183
3 163 164 185
3 163 185 184
3 164 165 186
3 164 186 185
3 165 166 187
3 165 187 186
3 166 167 188
3 166 188 187
3 168 169 190
3 168 190 189
3 169 170 191
3 169 191 190
3 170 171 192
3 170 192 191
3 171 172 193
3 171 193 192
3 172 173 194
3 172 194 193
3 173 174 195
3 173 195 194
3 174 175 196
3 174 196 195
3 175 176 197
3 175 197 196
3 176 177 198
3 176 198 197
3 177 178 199
3 177 199 198
3 178 179 200
3 178 200 199
3 179 180 201
3 179 201 200
3 180 181 202
3 180 202 201
3 181 182 203
3 181 203 202
3 182 183 204
3 182 204 203
3 183 184 205
3 183 205 204
3 184 185 206
3 184 206 205
3 185 186 207
3 185 207 206
3 186 187 208
3 186 208 207
3 187 188 209
3 187 209 208
3 189 190 211
3 189 211 210
3 190 191 212
3 190 212 211
3 191 192 213
3 191 213 212
3 192 193 214
3 192 214 213
3 193 194 215
3 193 215 214
3 194 195 216
3 194 216 215
3 195 196 217
3 195 217 216
3 196 197 218
3 196 218 217
3 197 198 219
3 197 219 218
3 198 199 220
3 198 220 219
3 199 200 221
3 199 221 220
3 200 201 222
3 200 222 221
3 201 202 223
3 201 223 222
3 202 203 224
3 202 224 223
3 203 204 225
3 203 225 224
3 204 205 226
3 204 226 225
3 205 206 227
3 205 227 226
3 206 207 228
3 206 228 227
3 207 208 229
3 207 229 228
3 208 209 230
3 208 230 229
3 210 211 232
3 210 232 231
3 211 212 233
3 211 233 232
3 212 213 234
3 212 234 233
3 213 214 235
3 213 235 234
3 214 215 236
3 214 236 235
3 215 216 237
3 215 237 236
3 216 217 238
3 216 238 237
3 217 218 239
3 217 239 238
3 218 219 240
3 218 240 239
3 219 220 241
3 219 241 240
3 220 221 242
3 220 242 241
3 221 222 243
3 221 243 242
3 222 223 244
3 222 244 243
3 223 224 245
3 223 245 244
3 224 225 246
3 224 246 245
3 225 226 247
3 225 247 246
3 226 227 248
3 226 248 247
3 227 228 249
3 227 249 248
3 228 229 250
3 228 250 249
3 229 230 251
3 229 251 250
3 231 232 253
3 231 253 252
3 232 233 254
3 232 254 253
3 233 234 255
3 233 255 254
3 234 235 256
3 234 256 255
3 235 236 257
3 235 257 256
3 236 237 258
3 236 258 257
3 237 238 259
3 237 259 258
3 238 239 260
3 238 260 259
3 239 240 261
3 239 261 260
3 240 241 262
3 240 262 261
3 241 242 263
3 241 263 262
3 242 243 264
3 242 264 263
3 243 244 265
3 243 265 264
3 244 245 266
3 244 266 265
3 245 246 267
3 245 267 266
3 246 247 268
3 246 268 267
3 247 248 269
3 247 269 268
3 248 249 270
3 248 270 269
3 249 250 271
3 249 271 270
3 250 251 272
3 250 272 271
3 252 253 274
3 252 274 273
3 253 254 275
3 253 275 274
3 254 255 276
3 254 276 275
3 255 256 277
3 255 277 276
3 256 257 278
3 256 278 277
3 257 258 279
3 257 279 278
3 258 259 280
3 258 280 279
3 259 260 281
3 259 281 280
3 260 261 282
3 260 282 281
3 261 262 283
3 261 283 282
3 262 263 284
3 262 284 283
3 263 264 285
3 263 285 284
3 264 265 286
3 264 286 285
3 265 266 287
3 265 287 286
3 266 267 288
3 266 288 287
3 267 268 289
3 267 289 288
3 268 269 290
3 268 290 289
3 269 270 291
3 269 291 290
3 270 271 292
3 270 292 291
3 271 272 293
3 271 293 292
3 273 274 295
3 273 295 294
3 274 275 296
3 274 296 295
3 275 276 297
3 275 297 296
3 276 277 298
3 276 298 297
3 277 278 299
3 277 299 298
3 278 279 300
3 278 300 299
3 279 280 301
3 279 301 300
3 280 281 302
3 280 302 301
3 281 282 303
3 281 303 302
3 282 283 304
3 282 304 303
3 283 284 305
3 283 305 304
3 284 285 306
3 284 306 305
3 285 286 307
3 285 307 306
3 286 287 308
3 286 308 307
3 287 288 309
3 287 309 308
3 288 289 310
3 288 310 309
3 289 290 311
3 289 311 310
3 290 291 312
3 290 312 311
3 291 292 313
3 291 313 312
3 292 293 314
3 292 314 313
3 294 295 316
3 294 316 315
3 295 296 317
3 295 317 316
3 296 297 318
3 296 318 317
3 297 298 319
3 297 319 318
3 298 299 320
3 298 320 319
3 299 300 321
3 299 321 320
3 300 301 322
3 300 322 321
3 301 302 323
3 301 323 322
3 302 303 324
3 302 324 323
3 303 304 325
3 303 325 324
3 304 305 326
3 304 326 325
3 305 306 327
3 305 327 326
3 306 307 328
3 306 328 327
3 307 308 329
3 307 329 328
3 308 309 330
3 308 330 329
3 309 310 331
3 309 331 330
3 310 311 332
3 310 332 331
3 311 312 333
3 311 333 332
3 312 313 334
3 312 334 333
3 313 314 335
3 313 335 334
3 315 316 337
3 315 337 336
3 316 317 338
3 316 338 337
3 317 318 339
3 317 339 338
3 318 319 340
3 318 340 339
3 319 320 341
3 319 341 340
3 320 321 342
3 320 342 341
3 321 322 343
3 321 343 342
3 322 323 344
3 322 344 343
3 323 324 345
3 323 345 344
3 324 325 346
3 324 346 345
3 325 326 347
3 325 347 346
3 326 327 348
3 326 348 347
3 327 328 349
3 327 349 348
3 328 329 350
3 328 350 349
3 329 330 351
3 329 351 350
3 330 331 352
3 330 352 351
3 331 332 353
3 331 353 352
3 332 333 354
3 332 354 353
3 333 334 355
3 333 355 354
3 334 335 356
3 334 356 355
3 336 337 358
3 336 358 357
3 337 338 359
3 337 359 358
3 338 339 360
3 338 360 359
3 339 340 361
3 339 361 360
3 340 341 362
3 340 362 361
3 341 342 363
3 341 363 362
3 342 343 364
3 342 364 363
3 343 344 365
3 343 365 364
3 344 345 366
3 344 366 365
3 345 346 367
3 345 367 366
3 346 347 368
3 346 368 367
3 347 348 369
3 347 369 368
3 348 349 370
3 348 370 369
3 349 350 371
3 349 371 370
3 350 351 372
3 350 372 371
3 351 352 373
3 351 373 372
3 352 353 374
3 352 374 373
3 353 354 375
3 353 375 374
3 354 355 376
3 354 376 375
3 355 356 377
3 355 377 376
3 357 358 379
3 357 379 378
3 358 359 380
3 358 380 379
3 359 360 381
3 359 381 380
3 360 361 382
3 360 382 381
3 361 362 383
3 361 383 382
3 362 363 384
3 362 384 383
3 363 364 385
3 363 385 384
3 364 365 386
3 364 386 385
3 365 366 387
3 365 387 386
3 366 367 388
3 366 388 387
3 367 368 389
3 367 389 388
3 368 369 390
3 368 390 389
3 369 370 391
3 369 391 390
3 370 371 392
3 370 392 391
3 371 372 393
3 371 393 392
3 372 373 394
3 372 394 393
3 373 374 395
3 373 395 394
3 374 375 396
3 374 396 395
3 375 376 397
3 375 397 396
3 376 377 398
3 376 398 397
3 378 379 400
3 378 400 399
3 379 380 401
3 379 401 400
3 380 381 402
3 380 402 401
3 381 382 403
3 381 403 402
3 382 383 404
3 382 404 403
3 383 384 405
3 383 405 404
3 384 385 406
3 384 406 405
3 385 386 407
3 385 407 406
3 386 387 408
3 386 408 407
3 387 388 409
3 387 409 408
3 388 389 410
3 388 410 409
3 389 390 411
3 389 411 410
3 390 391 412
3 390 412 411
3 391 392 413
3 391 413 412
3 392 393 414
3 392 414 413
3 393 394 415
3 393 415 414
3 394 395 416
3 394 416 415
3 395 396 417
3 395 417 416
3 396 397 418
3 396 418 417
3 397 398 419
3 397 419 418
3 399 400 421
3 399 421 420
3 400 401 422
3 400 422 421
3 401 402 423
3 401 423 422
3 402 403 424
3 402 424 423
3 403 404 425
3 403 425 424
3 404 405 426
3 404 426 425
3 405 406 427
3 405 427 426
3 406 407 428
3 406 428 427
3 407 408 429
3 407 429 428
3 408 409 430
3 408 430 429
3 409 410 431
3 409 431 430
3 410 411 432
3 410 432 431
3 411 412 433
3 411 433 432
3 412 413 434
3 412 434 433
3 413 414 435
3 413 435 434
3 414 415 436
3 414 436 435
3 415 416 437
3 415 437 436
3 416 417 438
3 416 438 437
3 417 418 439
3 417 439 438
3 418 419 440
3 418 440 439
CELL_TYPES 800
5
5
5
5
5
5
5
5
5
5
5
5
5
5
5
5
5
5
5
5
5
5
5
5
5
5
5
5
5
5
5
5
5
5
5
5
5
5
5
5
5
5
5
5
5
5
5
5
5
5
5
5
5
5
5
5
5
5
5
5
5
5
5
5
5
5
5
5
5
5
5
5
5
5
5
5
5
5
5
5
5
5
5
5
5
5
5
5
5
5
5
5
5
5
5
5
5
5
5
5
5
5
5
5
5
5
5
5
5
5
5
5
5
5
5
5
5
5
5
5
5
5
5
5
5
5
5
5
5
5
5
5
5
5
5
5
5
5
5
5
5
5
5
5
5
5
5
5
5
5
5
5
5
5
5
5
5
5
5
5
5
5
5
5
5
5
5
5
5
5
5
5
5
5
5
5
5
5
5
5
5
5
5
5
5
5
5
5
5
5
5
5
5
5
5
5
5
5
5
5
5
5
5
5
5
5
5
5
5
5
5
5
5
5
5
5
5
5
5
5
5
5
5
5
5
5
5
5
5
5
5
5
5
5
5
5
5
5
5
5
5
5
5
5
5
5
5
5
5
5
5
5
5
5
5
5
5
5
5
5
5
5
5
5
5
5
5
5
5
5
5
5
5
5
5
5
5
5
5
5
5
5
5
5
5
5
5
5
5
5
5
5
5
5
5
5
5
5
5
5
5
5
5
5
5
5
5
5
5
5
5
5
5
5
5
5
5
5
5
5
5
5
5
5
5
5
5
5
5
5
5
5
5
5
5
5
5
5
5
5
5
5
5
5
5
5
5
5
5
5
5
5
5
5
5
5
5
5
5
5
5
5
5
5
5
5
5
5
5
5
5
5
5
5
5
5
5
5
5
5
5
5
5
5
5
5
5
5
5
5
5
5
5
5
5
5
5
5
5
5
5
5
5
5
5
5
5
5
5
5
5
5
5
5
5
5
5
5
5
5
5
5
5
5
5
5
5
5
5
5
5
5
5
5
5
5
5
5
5
5
5
5
5
5
5
5
5
5
5
5
5
5
5
5
5
5
5
5
5
5
5
5
5
5
5
5
5
5
5
5
5
5
5
5
5
5
5
5
5
5
5
5
5
5
5
5
5
5
5
5
5
5
5
5
5
5
5
5
5
5
5
5
5
5
5
5
5
5
5
5
5
5
5
5
5
5
5
5
5
5
5
5
5
5
5
5
5
5
5
5
5
5
5
5
5
5
5
5
5
5
5
5
5
5
5
5
5
5
5
5
5
5
5
5
5
5
5
5
5
5
5
5
5
5
5
5
5
5
5
5
5
5
5
5
5
5
5
5
5
5
5
5
5
5
5
5
5
5
5
5
5
5
5
5
5
5
5
5
5
5
5
5
5
5
5
5
5
5
5
5
5
5
5
5
5
5
5
5
5
5
5
5
5
5
5
5
5
5
5
5
5
5
5
5
5
5
5
5
5
5
5
5
5
5
5
5
5
5
5
5
5
5
5
5
5
5
5
5
5
5
5
5
5
5
5
5
5
5
5
5
5
5
5
5
5
5
5
5
5
5
5
5
5
5
5
5
5
5
5
5
5
5
5
5
5
5
5
5
5
5
5
5
5
5
5
5
5
5
5
5
5
5
5
5
5
5
5
5
5
5
5
5
5
5
5
5
5
5
5
5
5
5
5
5
5
5
5
5
5
5
5
5
5
5
5
5
5
5
5
5
5
5
5
5
5
5
5
5
5
5
5
5
5
5
5
5
5
5
5
5
5
5
5
5
5
5
5
5
5
5
5
5
5
5
5
5
5
5
5
5
5
5
5
5
5
5
5
5
5
5
CELL_DATA 800
VECTORS Et double
-0.0922391 0.318798 0
-0.0520371 0.0931783 0
-0.0692228 0.6648 0
-0.0385349 0.487963 0
-0.0313155 0.870337 0
-0.0147503 0.778239 0
0.0135939 0.890862 0
0.012762 0.90347 0
0.056031 0.719584 0
0.0371414 0.835887 0
0.0868725 0.390071 0
0.0525939 0.587387 0
0.0992786 -0.029562 0
0.0556333 0.20828 0
0.0902178 -0.450064 0
0.0457828 -0.222126 0
0.0612377 -0.779631 0
0.0255567 -0.611497 0
0.0182748 -0.943883 0
-0.000250134 -0.873976 0
-0.0295074 -0.902898 0
-0.0257612 -0.949155 0
-0.0716461 -0.661292 0
-0.0453958 -0.81629 0
-0.0986764 -0.268654 0
-0.0550919 -0.50028 0
-0.104292 0.190258 0
-0.0531068 -0.0675978 0
-0.0868609 0.613792 0
-0.0402466 0.387433 0
-0.0499245 0.906232 0
-0.0195236 0.763279 0
-0.00150479 0.999999 0
0.00463549 0.974255 0
0.0476417 0.871927 0
0.0274281 0.970643 0
0.0864563 0.549603 0
0.0447581 0.751021 0
0.106134 0.106134 0
0.0542586 0.363646 0
-0.225818 0.264056 0
-0.19495 0.0762926 0
-0.176367 0.557926 0
-0.150787 0.40805 0
-0.0871241 0.736052 0
-0.0721127 0.655857 0
0.0218415 0.759275 0
0.0226979 0.766762 0
0.126594 0.619974 0
0.112025 0.715496 0
0.204159 0.344631 0
0.175824 0.510134 0
0.237368 -0.0105226 0
0.200009 0.191443 0
0.218587 -0.370379 0
0.179464 -0.174538 0
0.151448 -0.656464 0
0.119017 -0.509628 0
0.0501863 -0.804011 0
0.0322215 -0.739928 0
-0.0633459 -0.776881 0
-0.0617651 -0.812192 0
-0.164374 -0.576797 0
-0.142448 -0.70645 0
-0.230612 -0.244399 0
-0.192468 -0.441809 0
-0.247202 0.148618 0
-0.201293 -0.0736249 0
-0.210078 0.514912 0
-0.167354 0.317786 0
-0.126971 0.771172 0
-0.0982098 0.644725 0
-0.0157771 0.857561 0
-0.00875666 0.83211 0
0.0993859 0.752214 0
0.0820929 0.835239 0
0.19361 0.47708 0
0.155521 0.650937 0
0.247026 0.0932664 0
0.196813 0.319119 0
-0.327572 0.169217 0
-0.309368 0.0473422 0
-0.25731 0.365277 0
-0.240503 0.265443 0
-0.129922 0.489 0
-0.118392 0.432547 0
0.0264034 0.512719 0
0.0294198 0.512872 0
0.177351 0.428487 0
0.169919 0.487411 0
0.289808 0.250671 0
0.272001 0.358368 0
0.338971 0.0141663 0
0.313303 0.149731 0
0.313725 -0.231879 0
0.285025 -0.0965614 0
0.219127 -0.433953 0
0.193714 -0.328551 0
0.0754066 -0.545812 0
0.059665 -0.495002 0
-0.0863304 -0.539339 0
-0.087663 -0.556816 0
-0.230821 -0.411988 0
-0.216158 -0.496548 0
-0.326332 -0.188735 0
-0.298057 -0.323613 0
-0.351651 0.0823883 0
-0.315905 -0.0735396 0
-0.300821 0.340526 0
-0.266198 0.199008 0
-0.184536 0.525868 0
-0.159975 0.432193 0
-0.0278613 0.593896 0
-0.0202656 0.571321 0
0.13527 0.526481 0
0.122982 0.582097 0
0.269573 0.336873 0
0.239378 0.45944 0
0.346264 0.0670785 0
0.30454 0.229441 0
-0.379659 0.0475056 0
-0.376242 0.0105705 0
-0.298852 0.114522 0
-0.292966 0.0803178 0
-0.152719 0.164721 0
-0.145936 0.140362 0
0.0267997 0.18633 0
0.0321749 0.178167 0
0.200515 0.171793 0
0.202018 0.183849 0
0.330469 0.120284 0
0.326308 0.152742 0
0.388144 0.0391797 0
0.378001 0.0874646 0
0.360658 -0.0562886 0
0.346145 -0.00131726 0
0.253631 -0.14557 0
0.238136 -0.0960681 0
0.0900495 -0.207242 0
0.0779435 -0.175649 0
-0.0946328 -0.224424 0
-0.0992634 -0.220163 0
-0.260165 -0.189703 0
-0.254866 -0.216241 0
-0.370271 -0.108092 0
-0.355214 -0.161291 0
-0.40062 0.00312006 0
-0.378874 -0.0653147 0
-0.344232 0.117898 0
-0.321147 0.0505265 0
-0.21309 0.207684 0
-0.194932 0.158557 0
-0.0355759 0.248776 0
-0.0277737 0.231401 0
0.149732 0.228819 0
0.144184 0.249213 0
0.302545 0.150549 0
0.284025 0.205295 0
0.389696 0.0315966 0
0.361933 0.108419 0
-0.372218 -0.0835724 0
-0.384109 -0.0285431 0
-0.293341 -0.15797 0
-0.299179 -0.120405 0
-0.151227 -0.189725 0
-0.149884 -0.178216 0
0.0233592 -0.172734 0
0.0308938 -0.188824 0
0.192562 -0.113442 0
0.203515 -0.151519 0
0.319629 -0.0285979 0
0.330343 -0.0777341 0
0.376853 0.0596128 0
0.383976 0.0124502 0
0.351607 0.129585 0
0.353169 0.0959453 0
0.249138 0.165737 0
0.245162 0.152758 0
0.0915201 0.161935 0
0.08396 0.170868 0
-0.0870589 0.122145 0
-0.0950368 0.148626 0
-0.247688 0.0584016 0
-0.252821 0.0942325 0
-0.35521 -0.0130616 0
-0.35528 0.0227053 0
-0.385946 -0.0762473 0
-0.380558 -0.0485686 0
-0.332951 -0.119115 0
-0.323681 -0.104323 0
-0.207615 -0.135704 0
-0.197492 -0.134724 0
-0.0372319 -0.126365 0
-0.0297331 -0.136797 0
0.140965 -0.0964277 0
0.143064 -0.113894 0
0.287972 -0.0540181 0
0.283497 -0.0737416 0
0.371569 -0.00782689 0
0.361323 -0.0259064 0
-0.304914 -0.204919 0
-0.331003 -0.0640892 0
-0.240446 -0.412288 0
-0.25755 -0.30713 0
-0.124901 -0.522379 0
-0.129185 -0.476326 0
0.0169729 -0.51191 0
0.0260089 -0.534238 0
0.154695 -0.385644 0
0.174225 -0.469662 0
0.258603 -0.174578 0
0.283369 -0.299662 0
0.306242 0.0719237 0
0.330054 -0.0649169 0
0.287239 0.297961 0
0.304643 0.180289 0
0.205608 0.453955 0
0.213239 0.380878 0
0.0789656 0.507483 0
0.0762306 0.493455 0
-0.0652126 0.44973 0
-0.076256 0.49557 0
-0.195516 0.296354 0
-0.210989 0.389814 0
-0.283446 0.0829401 0
-0.298872 0.202127 0
-0.309679 -0.143578 0
-0.321229 -0.0249271 0
-0.268379 -0.335368 0
-0.27376 -0.242075 0
-0.168552 -0.453682 0
-0.167357 -0.404076 0
-0.0321289 -0.476338 0
-0.0256154 -0.478931 0
0.110826 -0.401407 0
0.120367 -0.453795 0
0.228739 -0.246676 0
0.238765 -0.336655 0
0.29549 -0.045335 0
0.303896 -0.15379 0
-0.187187 -0.298671 0
-0.224883 -0.0906246 0
-0.147556 -0.61079 0
-0.174315 -0.451996 0
-0.0773208 -0.783906 0
-0.0869379 -0.709597 0
0.00877901 -0.780835 0
0.0182663 -0.806706 0
0.0925893 -0.604337 0
0.118562 -0.723297 0
0.156368 -0.295846 0
0.192439 -0.480062 0
0.18656 0.0745265 0
0.224274 -0.133092 0
0.17672 0.424219 0
0.207677 0.239348 0
0.128958 0.676805 0
0.146796 0.554739 0
0.0535706 0.778681 0
0.0553182 0.744706 0
-0.0331075 0.710221 0
-0.0465854 0.769756 0
-0.112198 0.489128 0
-0.136702 0.627187 0
-0.16639 0.165585 0
-0.195619 0.350696 0
-0.183775 -0.189407 0
-0.210916 0.00209163 0
-0.160533 -0.499712 0
-0.179797 -0.34274 0
-0.101858 -0.700268 0
-0.109602 -0.610381 0
-0.0208675 -0.75044 0
-0.0161223 -0.745326 0
0.064282 -0.641857 0
0.0799112 -0.721147 0
0.134438 -0.399412 0
0.157373 -0.545272 0
0.173745 -0.0754371 0
0.199329 -0.256662 0
-0.0369411 -0.350855 0
-0.0824406 -0.104019 0
-0.0288209 -0.723688 0
-0.0626198 -0.533082 0
-0.0157954 -0.934917 0
-0.0299494 -0.842788 0
-9.81059e-05 -0.938832 0
0.00859263 -0.965027 0
0.0155235 -0.73619 0
0.0448779 -0.873949 0
0.0282578 -0.3735 0
0.07138 -0.591334 0
0.0357331 0.0679182 0
0.0827702 -0.181185 0
0.0364985 0.490441 0
0.0770205 0.265058 0
0.03038 0.801918 0
0.0557878 0.649159 0
0.0186124 0.935792 0
0.0240022 0.887852 0
0.003673 0.865165 0
-0.0112432 0.930842 0
-0.0111908 0.607894 0
-0.0422577 0.771201 0
-0.0226668 0.221874 0
-0.0624322 0.446049 0
-0.0281628 -0.208192 0
-0.0676646 0.0276874 0
-0.0264724 -0.589435 0
-0.0572204 -0.392642 0
-0.018133 -0.840752 0
-0.0338424 -0.724647 0
-0.00535258 -0.90979 0
-0.0030911 -0.898208 0
0.00850265 -0.783522 0
0.0279298 -0.877883 0
0.0197464 -0.49039 0
0.0521723 -0.669815 0
0.0253253 -0.0938009 0
0.0642106 -0.319815 0
0.122213 -0.35351 0
0.0735722 -0.102118 0
0.0970105 -0.733588 0
0.0596025 -0.537802 0
0.0497574 -0.951971 0
0.0323946 -0.855206 0
-0.00869526 -0.96115 0
-0.00197155 -0.984488 0
-0.0649774 -0.760211 0
-0.0357422 -0.897892 0
-0.106273 -0.394614 0
-0.0612373 -0.615603 0
-0.123226 0.0543382 0
-0.0725855 -0.200829 0
-0.112019 0.487834 0
-0.0670505 0.254617 0
-0.0751539 0.811478 0
-0.0456483 0.650881 0
-0.0208054 0.955898 0
-0.0129237 0.902106 0
0.0390727 0.891531 0
0.0240524 0.955036 0
0.0914269 0.634477 0
0.0572336 0.800184 0
0.12495 0.242343 0
0.0793488 0.473257 0
0.132479 -0.198784 0
0.0854725 0.0467743 0
0.112439 -0.593252 0
0.0740828 -0.386118 0
0.0690875 -0.856458 0
0.0473904 -0.731954 0
0.0115288 -0.932755 0
0.0108796 -0.916967 0
-0.048237 -0.806938 0
-0.0278375 -0.902564 0
-0.0978195 -0.507009 0
-0.0606149 -0.693102 0
-0.126972 -0.0978549 0
-0.0804895 -0.334481 0
0.264751 -0.305986 0
0.218049 -0.085111 0
0.209623 -0.638264 0
0.172601 -0.464964 0
0.10846 -0.831321 0
0.0897466 -0.744033 0
-0.0162445 -0.842957 0
-0.0123009 -0.860837 0
-0.136804 -0.671223 0
-0.111088 -0.79002 0
-0.226524 -0.354547 0
-0.184883 -0.547737 0
-0.265635 0.0370723 0
-0.217483 -0.187779 0
-0.245628 0.417744 0
-0.201779 0.210596 0
-0.171045 0.704675 0
-0.141275 0.560315 0
-0.0583747 0.836249 0
-0.049271 0.785651 0
0.067669 0.785227 0
0.0541106 0.838665 0
0.179616 0.564288 0
0.146349 0.709342 0
0.253227 0.222824 0
0.207433 0.427348 0
0.272701 -0.164161 0
0.224177 0.0551405 0
0.233989 -0.512497 0
0.193022 -0.325896 0
0.145561 -0.74705 0
0.120751 -0.633199 0
0.026483 -0.817731 0
0.0229851 -0.800777 0
-0.097708 -0.709975 0
-0.0791928 -0.793183 0
-0.200472 -0.447529 0
-0.163761 -0.612796 0
-0.2599 -0.0871223 0
-0.212512 -0.298976 0
0.370802 -0.389313 0
0.178883 -0.0648756 0
0.292981 -0.76609 0
0.140742 -0.510172 0
0.151409 -0.977021 0
0.0730338 -0.846473 0
-0.022721 -0.975858 0
-0.00986305 -0.999381 0
-0.191103 -0.76324 0
-0.0899905 -0.935403 0
-0.316796 -0.386251 0
-0.149917 -0.668932 0
-0.372375 0.0722398 0
-0.176623 -0.258761 0
-0.345925 0.512013 0
-0.164374 0.205135 0
-0.243564 0.837576 0
-0.115954 0.621554 0
-0.0879606 0.978994 0
-0.0420253 0.900309 0
0.0867451 0.906915 0
0.041237 0.981832 0
0.242477 0.638601 0
0.115697 0.849892 0
0.345523 0.233768 0
0.165207 0.534747 0
0.373796 -0.218718 0
0.179098 0.106162 0
0.321501 -0.620294 0
0.154458 -0.342034 0
0.200255 -0.88403 0
0.0967325 -0.712423 0
0.0364673 -0.953243 0
0.0185261 -0.925019 0
-0.134406 -0.813439 0
-0.0631084 -0.934334 0
-0.275496 -0.495088 0
-0.130292 -0.738884 0
-0.356451 -0.0665949 0
-0.168011 -0.381165 0
0.297556 -0.311863 0
0.142716 -0.0516127 0
0.234085 -0.612631 0
0.111894 -0.407986 0
0.120625 -0.780895 0
0.057688 -0.676522 0
-0.0184042 -0.779906 0
-0.00840409 -0.798559 0
-0.152742 -0.610081 0
-0.0721993 -0.747475 0
-0.253128 -0.308819 0
-0.119966 -0.534632 0
-0.297794 0.057861 0
-0.141455 -0.206784 0
-0.277228 0.409934 0
-0.132148 0.164339 0
-0.196202 0.670957 0
-0.0942327 0.497871 0
-0.0726483 0.784745 0
-0.036098 0.721549 0
0.0663423 0.727479 0
0.0295184 0.787432 0
0.190481 0.512675 0
0.0883235 0.682188 0
0.272883 0.187983 0
0.127581 0.429754 0
0.295868 -0.17537 0
0.138866 0.0858841 0
0.254727 -0.498163 0
0.119874 -0.274157 0
0.158653 -0.710348 0
0.0748924 -0.572006 0
0.0286934 -0.766115 0
0.0138674 -0.743147 0
-0.106814 -0.653653 0
-0.0497495 -0.750757 0
-0.218307 -0.397571 0
-0.101881 -0.593501 0
-0.281191 -0.0536442 0
-0.13083 -0.305704 0
0.237156 -0.250041 0
0.112177 -0.0411176 0
0.186132 -0.490623 0
0.087674 -0.32656 0
0.0954328 -0.62493 0
0.0447211 -0.541387 0
-0.0154571 -0.623641 0
-0.00755496 -0.63875 0
-0.122555 -0.487108 0
-0.058007 -0.59741 0
-0.202683 -0.245266 0
-0.0958815 -0.42647 0
-0.238582 0.0489965 0
-0.11316 -0.163358 0
-0.222674 0.331494 0
-0.106303 0.134446 0
-0.158695 0.540824 0
-0.0770011 0.402056 0
-0.0608155 0.631765 0
-0.031789 0.581392 0
0.0495025 0.585056 0
0.0194021 0.633832 0
0.148218 0.411468 0
0.0654192 0.548536 0
0.213952 0.149311 0
0.0963161 0.344664 0
0.232608 -0.144019 0
0.105505 0.0670675 0
0.200386 -0.404573 0
0.0911719 -0.223571 0
0.124553 -0.575728 0
0.0566471 -0.463968 0
0.021832 -0.62041 0
0.00967126 -0.601946 0
-0.0852332 -0.52906 0
-0.0392922 -0.60768 0
-0.173125 -0.321667 0
-0.0793287 -0.480086 0
-0.222388 -0.043503 0
-0.101456 -0.247027 0
0.187466 -0.201016 0
0.0863373 -0.0328584 0
0.146783 -0.393968 0
0.0671968 -0.262076 0
0.0746065 -0.501254 0
0.0336938 -0.434346 0
-0.013544 -0.499344 0
-0.00705785 -0.511973 0
-0.0986727 -0.388596 0
-0.0464211 -0.477922 0
-0.162451 -0.193193 0
-0.0760874 -0.339587 0
-0.191225 0.044182 0
-0.0898667 -0.127179 0
-0.178984 0.271715 0
-0.0850163 0.112914 0
-0.128649 0.439819 0
-0.0628169 0.328311 0
-0.0513892 0.511959 0
-0.0282711 0.4721 0
0.0358436 0.47259 0
0.0110054 0.513075 0
0.114038 0.330485 0
0.0464524 0.442497 0
0.166263 0.116756 0
0.0704295 0.275934 0
0.181335 -0.121972 0
0.0778682 0.049803 0
0.156212 -0.333725 0
0.0673571 -0.1866 0
0.0966214 -0.472463 0
0.0414282 -0.381834 0
0.0157848 -0.50805 0
0.0059875 -0.49347 0
-0.0684629 -0.432764 0
-0.030986 -0.49727 0
-0.137542 -0.262971 0
-0.0611927 -0.392415 0
-0.176162 -0.0356172 0
-0.0778458 -0.20169 0
0.146597 -0.162485 0
0.0643661 -0.0264266 0
0.114414 -0.318 0
0.0498011 -0.211472 0
0.0573695 -0.40391 0
0.0243457 -0.35025 0
-0.0122652 -0.401188 0
-0.00661377 -0.412178 0
-0.0795189 -0.310239 0
-0.0365624 -0.383498 0
-0.129967 -0.150832 0
-0.0592462 -0.270319 0
-0.152866 0.0422184 0
-0.0700072 -0.0973043 0
-0.143479 0.226688 0
-0.0667726 0.0977336 0
-0.104083 0.362189 0
-0.0504806 0.272117 0
-0.0434442 0.419005 0
-0.0248529 0.38765 0
0.0251227 0.384577 0
0.00443397 0.418968 0
0.086671 0.266239 0
0.030994 0.359074 0
0.127879 0.0896069 0
0.0491225 0.220853 0
0.139934 -0.107001 0
0.055028 0.0342595 0
0.12043 -0.280898 0
0.0476403 -0.160212 0
0.0738549 -0.394292 0
0.0288219 -0.320321 0
0.0105978 -0.422481 0
0.00293952 -0.411252 0
-0.0553313 -0.359216 0
-0.0241089 -0.413157 0
-0.109357 -0.218072 0
-0.0462025 -0.325471 0
-0.139526 -0.0295408 0
-0.0583588 -0.167055 0
0.112978 -0.132664 0
0.0455173 -0.0215088 0
0.0877935 -0.259182 0
0.0349286 -0.172381 0
0.0431919 -0.328421 0
0.0164764 -0.285185 0
-0.0112295 -0.324816 0
-0.00595769 -0.334801 0
-0.0637861 -0.248838 0
-0.0276957 -0.31 0
-0.103234 -0.116921 0
-0.0442564 -0.215941 0
-0.121203 0.0421095 0
-0.0523045 -0.0730781 0
-0.114004 0.193351 0
-0.0503489 0.0873104 0
-0.0834085 0.30347 0
-0.0390417 0.229969 0
-0.0362389 0.348012 0
-0.0210132 0.323394 0
0.0171388 0.316777 0
-0.000282256 0.34675 0
0.0650854 0.216075 0
0.0186282 0.294448 0
0.0972246 0.067392 0
0.0316753 0.1774 0
0.106692 -0.0972616 0
0.0361677 0.0206797 0
0.0916099 -0.24228 0
0.0313351 -0.141908 0
0.0554749 -0.336186 0
0.0184739 -0.275153 0
0.00637366 -0.358459 0
0.000641016 -0.350076 0
-0.0447937 -0.304006 0
-0.0180376 -0.350222 0
-0.0867025 -0.184297 0
-0.0332912 -0.275251 0
-0.110087 -0.0249219 0
-0.0416591 -0.141052 0
0.0852984 -0.110219 0
0.0290837 -0.0178658 0
0.0659221 -0.214882 0
0.0220464 -0.143017 0
0.0316569 -0.27147 0
0.0098683 -0.236221 0
-0.0101179 -0.267017 0
-0.00491107 -0.276447 0
-0.050433 -0.202063 0
-0.0192509 -0.254368 0
-0.0806699 -0.0905859 0
-0.0302503 -0.17446 0
-0.0944226 0.0430304 0
-0.0357551 -0.0540638 0
-0.0888766 0.169328 0
-0.0348008 0.0803921 0
-0.0654031 0.260237 0
-0.0277983 0.199179 0
-0.0292414 0.295255 0
-0.0164234 0.275798 0
0.0116575 0.265981 0
-0.0032364 0.292822 0
0.0483724 0.17802 0
0.00888287 0.245759 0
0.0729553 0.0498272 0
0.0173624 0.144108 0
0.0801549 -0.0912415 0
0.0204898 0.00935224 0
0.068546 -0.214835 0
0.01777 -0.129653 0
0.0408227 -0.294173 0
0.0100133 -0.242918 0
0.00319361 -0.31186 0
-0.000865227 -0.305815 0
-0.0359867 -0.263683 0
-0.0122873 -0.304429 0
-0.0680525 -0.159568 0
-0.0215984 -0.238611 0
-0.0859288 -0.0214899 0
-0.0266678 -0.122063 0
0.062419 -0.0941752 0
0.0143509 -0.0153188 0
0.0479288 -0.183186 0
0.0105952 -0.12207 0
0.0223743 -0.230661 0
0.00424047 -0.20122 0
-0.00872525 -0.225486 0
-0.00340956 -0.23465 0
-0.0386779 -0.168265 0
-0.010828 -0.214394 0
-0.0610679 -0.0712487 0
-0.0165779 -0.144457 0
-0.0711416 0.0443136 0
-0.0196035 -0.0399874 0
-0.06683 0.152817 0
-0.0194378 0.0760157 0
-0.0491856 0.229931 0
-0.0162832 0.17774 0
-0.0221405 0.257966 0
-0.0109506 0.242243 0
0.00836077 0.229827 0
-0.00466945 0.254533 0
0.0356623 0.150645 0
0.00118582 0.210928 0
0.0538472 0.0367627 0
0.00539528 0.119951 0
0.0590211 -0.08774 0
0.00715245 0.000575163 0
0.0501512 -0.196218 0
0.00622745 -0.121834 0
0.0292787 -0.265213 0
0.00300002 -0.220973 0
0.00106164 -0.279545 0
-0.00164349 -0.275294 0
-0.0282534 -0.23563 0
-0.00652574 -0.272689 0
-0.0522046 -0.142318 0
-0.0104586 -0.213154 0
-0.0655337 -0.019044 0
-0.0125245 -0.108857 0
0.0433075 -0.0838551 0
0.000569727 -0.0137397 0
0.0330021 -0.162767 0
-4.17379e-05 -0.108617 0
0.0149295 -0.204337 0
-0.000772134 -0.178686 0
-0.00697881 -0.198642 0
-0.00150618 -0.207696 0
-0.0279801 -0.146331 0
-0.00217992 -0.188556 0
-0.0435469 -0.0585518 0
-0.00277385 -0.124972 0
-0.0503463 0.0454445 0
-0.00329939 -0.0306926 0
-0.0469582 0.142517 0
-0.00377981 0.0734725 0
-0.034178 0.210725 0
-0.00422994 0.164216 0
-0.0148363 0.234191 0
-0.00464039 0.220877 0
0.00682378 0.206658 0
-0.00497063 0.230028 0
0.0260736 0.132972 0
-0.00515312 0.188514 0
0.0387298 0.0281355 0
-0.00510813 0.104252 0
0.0420634 -0.0858539 0
-0.00476578 -0.00538194 0
0.0353889 -0.184712 0
-0.00409008 -0.117242 0
0.0202079 -0.247099 0
-0.00309905 -0.207376 0
-0.000125766 -0.259246 0
-0.00187575 -0.256202 0
-0.0211445 -0.217973 0
-0.00056746 -0.252766 0
-0.0382504 -0.131433 0
0.000625709 -0.197155 0
-0.0477278 -0.0174433 0
0.00146406 -0.100555 0
0.0269925 -0.0788116 0
-0.0130454 -0.0130454 0
0.0203491 -0.152773 0
-0.0105542 -0.102049 0
0.00886181 -0.191455 0
-0.00561953 -0.167659 0
-0.00493165 -0.185503 0
0.00064794 -0.194503 0
-0.0180046 -0.135581 0
0.00682576 -0.175904 0
-0.0274938 -0.0523018 0
0.0114965 -0.115418 0
-0.0313213 0.0460618 0
0.0135649 -0.0261079 0
-0.028647 0.137568 0
0.0125046 0.0722851 0
-0.0200516 0.201438 0
0.00848159 0.157675 0
-0.00740981 0.222672 0
0.00232374 0.21051 0
0.00651909 0.195423 0
-0.0046541 0.218123 0
0.0186928 0.124394 0
-0.0109344 0.177616 0
0.0264492 0.0239337 0
-0.0151272 0.0966057 0
0.0280869 -0.0849723 0
-0.0162751 -0.00830986 0
0.0232354 -0.179186 0
-0.0140665 -0.115064 0
0.0129364 -0.238392 0
-0.00890891 -0.200848 0
-0.00058384 -0.249503 0
-0.00184846 -0.247031 0
-0.0144005 -0.209519 0
0.00565036 -0.243211 0
-0.0255331 -0.126233 0
0.0120154 -0.189512 0
-0.0316118 -0.0165993 0
0.0159024 -0.0966152 0
