# vtk DataFile Version 3.0
tp3485 cell-vector
ASCII
DATASET UNSTRUCTURED_GRID
POINTS 441 double
0 0 0
0.05 0 0
0.1 0 0
0.15 0 0
0.2 0 0
0.25 0 0
0.3 0 0
0.35 0 0
0.4 0 0
0.45 0 0
0.5 0 0
0.55 0 0
0.6 0 0
0.65 0 0
0.7 0 0
0.75 0 0
0.8 0 0
0.85 0 0
0.9 0 0
0.95 0 0
1 0 0
0 0.05 0
0.05 0.05 0
0.1 0.05 0
0.15 0.05 0
0.2 0.05 0
0.25 0.05 0
0.3 0.05 0
0.35 0.05 0
0.4 0.05 0
0.45 0.05 0
0.5 0.05 0
0.55 0.05 0
0.6 0.05 0
0.65 0.05 0
0.7 0.05 0
0.75 0.05 0
0.8 0.05 0
0.85 0.05 0
0.9 0.05 0
0.95 0.05 0
1 0.05 0
0 0.1 0
0.05 0.1 0
0.1 0.1 0
0.15 0.1 0
0.2 0.1 0
0.25 0.1 0
0.3 0.1 0
0.35 0.1 0
0.4 0.1 0
0.45 0.1 0
0.5 0.1 0
0.55 0.1 0
0.6 0.1 0
0.65 0.1 0
0.7 0.1 0
0.75 0.1 0
0.8 0.1 0
0.85 0.1 0
0.9 0.1 0
0.95 0.1 0
1 0.1 0
0 0.15 0
0.05 0.15 0
0.1 0.15 0
0.15 0.15 0
0.2 0.15 0
0.25 0.15 0
0.3 0.15 0
0.35 0.15 0
0.4 0.15 0
0.45 0.15 0
0.5 0.15 0
0.55 0.15 0
0.6 0.15 0
0.65 0.15 0
0.7 0.15 0
0.75 0.15 0
0.8 0.15 0
0.85 0.15 0
0.9 0.15 0
0.95 0.15 0
1 0.15 0
0 0.2 0
0.05 0.2 0
0.1 0.2 0
0.15 0.2 0
0.2 0.2 0
0.25 0.2 0
0.3 0.2 0
0.35 0.2 0
0.4 0.2 0
0.45 0.2 0
0.5 0.2 0
0.55 0.2 0
0.6 0.2 0
0.65 0.2 0
0.7 0.2 0
0.75 0.2 0
0.8 0.2 0
0.85 0.2 0
0.9 0.2 0
0.95 0.2 0
1 0.2 0
0 0.25 0
0.05 0.25 0
0.1 0.25 0
0.15 0.25 0
0.2 0.25 0
0.25 0.25 0
0.3 0.25 0
0.35 0.25 0
0.4 0.25 0
0.45 0.25 0
0.5 0.25 0
0.55 0.25 0
0.6 0.25 0
0.65 0.25 0
0.7 0.25 0
0.75 0.25 0
0.8 0.25 0
0.85 0.25 0
0.9 0.25 0
0.95 0.25 0
1 0.25 0
0 0.3 0
0.05 0.3 0
0.1 0.3 0
0.15 0.3 0
0.2 0.3 0
0.25 0.3 0
0.3 0.3 0
0.35 0.3 0
0.4 0.3 0
0.45 0.3 0
0.5 0.3 0
0.55 0.3 0
0.6 0.3 0
0.65 0.3 0
0.7 0.3 0
0.75 0.3 0
0.8 0.3 0
0.85 0.3 0
0.9 0.3 0
0.95 0.3 0
1 0.3 0
0 0.35 0
0.05 0.35 0
0.1 0.35 0
0.15 0.35 0
0.2 0.35 0
0.25 0.35 0
0.3 0.35 0
0.35 0.35 0
0.4 0.35 0
0.45 0.35 0
0.5 0.35 0
0.55 0.35 0
0.6 0.35 0
0.65 0.35 0
0.7 0.35 0
0.75 0.35 0
0.8 0.35 0
0.85 0.35 0
0.9 0.35 0
0.95 0.35 0
1 0.35 0
0 0.4 0
0.05 0.4 0
0.1 0.4 0
0.15 0.4 0
0.2 0.4 0
0.25 0.4 0
0.3 0.4 0
0.35 0.4 0
0.4 0.4 0
0.45 0.4 0
0.5 0.4 0
0.55 0.4 0
0.6 0.4 0
0.65 0.4 0
0.7 0.4 0
0.75 0.4 0
0.8 0.4 0
0.85 0.4 0
0.9 0.4 0
0.95 0.4 0
1 0.4 0
0 0.45 0
0.05 0.45 0
0.1 0.45 0
0.15 0.45 0
0.2 0.45 0
0.25 0.45 0
0.3 0.45 0
0.35 0.45 0
0.4 0.45 0
0.45 0.45 0
0.5 0.45 0
0.55 0.45 0
0.6 0.45 0
0.65 0.45 0
0.7 0.45 0
0.75 0.45 0
0.8 0.45 0
0.85 0.45 0
0.9 0.45 0
0.95 0.45 0
1 0.45 0
0 0.5 0
0.05 0.5 0
0.1 0.5 0
0.15 0.5 0
0.2 0.5 0
0.25 0.5 0
0.3 0.5 0
0.35 0.5 0
0.4 0.5 0
0.45 0.5 0
0.5 0.5 0
0.55 0.5 0
0.6 0.5 0
0.65 0.5 0
0.7 0.5 0
0.75 0.5 0
0.8 0.5 0
0.85 0.5 0
0.9 0.5 0
0.95 0.5 0
1 0.5 0
0 0.55 0
0.05 0.55 0
0.1 0.55 0
0.15 0.55 0
0.2 0.55 0
0.25 0.55 0
0.3 0.55 0
0.35 0.55 0
0.4 0.55 0
0.45 0.55 0
0.5 0.55 0
0.55 0.55 0
0.6 0.55 0
0.65 0.55 0
0.7 0.55 0
0.75 0.55 0
0.8 0.55 0
0.85 0.55 0
0.9 0.55 0
0.95 0.55 0
1 0.55 0
0 0.6 0
0.05 0.6 0
0.1 0.6 0
0.15 0.6 0
0.2 0.6 0
0.25 0.6 0
0.3 0.6 0
0.35 0.6 0
0.4 0.6 0
0.45 0.6 0
0.5 0.6 0
0.55 0.6 0
0.6 0.6 0
0.65 0.6 0
0.7 0.6 0
0.75 0.6 0
0.8 0.6 0
0.85 0.6 0
0.9 0.6 0
0.95 0.6 0
1 0.6 0
0 0.65 0
0.05 0.65 0
0.1 0.65 0
0.15 0.65 0
0.2 0.65 0
0.25 0.65 0
0.3 0.65 0
0.35 0.65 0
0.4 0.65 0
0.45 0.65 0
0.5 0.65 0
0.55 0.65 0
0.6 0.65 0
0.65 0.65 0
0.7 0.65 0
0.75 0.65 0
0.8 0.65 0
0.85 0.65 0
0.9 0.65 0
0.95 0.65 0
1 0.65 0
0 0.7 0
0.05 0.7 0
0.1 0.7 0
0.15 0.7 0
0.2 0.7 0
0.25 0.7 0
0.3 0.7 0
0.35 0.7 0
0.4 0.7 0
0.45 0.7 0
0.5 0.7 0
0.55 0.7 0
0.6 0.7 0
0.65 0.7 0
0.7 0.7 0
0.75 0.7 0
0.8 0.7 0
0.85 0.7 0
0.9 0.7 0
0.95 0.7 0
1 0.7 0
0 0.75 0
0.05 0.75 0
0.1 0.75 0
0.15 0.75 0
0.2 0.75 0
0.25 0.75 0
0.3 0.75 0
0.35 0.75 0
0.4 0.75 0
0.45 0.75 0
0.5 0.75 0
0.55 0.75 0
0.6 0.75 0
0.65 0.75 0
0.7 0.75 0
0.75 0.75 0
0.8 0.75 0
0.85 0.75 0
0.9 0.75 0
0.95 0.75 0
1 0.75 0
0 0.8 0
0.05 0.8 0
0.1 0.8 0
0.15 0.8 0
0.2 0.8 0
0.25 0.8 0
0.3 0.8 0
0.35 0.8 0
0.4 0.8 0
0.45 0.8 0
0.5 0.8 0
0.55 0.8 0
0.6 0.8 0
0.65 0.8 0
0.7 0.8 0
0.75 0.8 0
0.8 0.8 0
0.85 0.8 0
0.9 0.8 0
0.95 0.8 0
1 0.8 0
0 0.85 0
0.05 0.85 0
0.1 0.85 0
0.15 0.85 0
0.2 0.85 0
0.25 0.85 0
0.3 0.85 0
0.35 0.85 0
0.4 0.85 0
0.45 0.85 0
0.5 0.85 0
0.55 0.85 0
0.6 0.85 0
0.65 0.85 0
0.7 0.85 0
0.75 0.85 0
0.8 0.85 0
0.85 0.85 0
0.9 0.85 0
0.95 0.85 0
1 0.85 0
0 0.9 0
0.05 0.9 0
0.1 0.9 0
0.15 0.9 0
0.2 0.9 0
0.25 0.9 0
0.3 0.9 0
0.35 0.9 0
0.4 0.9 0
0.45 0.9 0
0.5 0.9 0
0.55 0.9 0
0.6 0.9 0
0.65 0.9 0
0.7 0.9 0
0.75 0.9 0
0.8 0.9 0
0.85 0.9 0
0.9 0.9 0
0.95 0.9 0
1 0.9 0
0 0.95 0
0.05 0.95 0
0.1 0.95 0
0.15 0.95 0
0.2 0.95 0
0.25 0.95 0
0.3 0.95 0
0.35 0.95 0
0.4 0.95 0
0.45 0.95 0
0.5 0.95 0
0.55 0.95 0
0.6 0.95 0
0.65 0.95 0
0.7 0.95 0
0.75 0.95 0
0.8 0.95 0
0.85 0.95 0
0.9 0.95 0
0.95 0.95 0
1 0.95 0
0 1 0
0.05 1 0
0.1 1 0
0.15 1 0
0.2 1 0
0.25 1 0
0.3 1 0
0.35 1 0
0.4 1 0
0.45 1 0
0.5 1 0
0.55 1 0
0.6 1 0
0.65 1 0
0.7 1 0
0.75 1 0
0.8 1 0
0.85 1 0
0.9 1 0
0.95 1 0
1 1 0
CELLS 800 3200
3 0 1 22
3 0 22 21
3 1 2 23
3 1 23 22
3 2 3 24
3 2 24 23
3 3 4 25
3 3 25 24
3 4 5 26
3 4 26 25
3 5 6 27
3 5 27 26
3 6 7 28
3 6 28 27
3 7 8 29
3 7 29 28
3 8 9 30
3 8 30 29
3 9 10 31
3 9 31 30
3 10 11 32
3 10 32 31
3 11 12 33
3 11 33 32
3 12 13 34
3 12 34 33
3 13 14 35
3 13 35 34
3 14 15 36
3 14 36 35
3 15 16 37
3 15 37 36
3 16 17 38
3 16 38 37
3 17 18 39
3 17 39 38
3 18 19 40
3 18 40 39
3 19 20 41
3 19 41 40
3 21 22 43
3 21 43 42
3 22 23 44
3 22 44 43
3 23 24 45
3 23 45 44
3 24 25 46
3 24 46 45
3 25 26 47
3 25 47 46
3 26 27 48
3 26 48 47
3 27 28 49
3 27 49 48
3 28 29 50
3 28 50 49
3 29 30 51
3 29 51 50
3 30 31 52
3 30 52 51
3 31 32 53
3 31 53 52
3 32 33 54
3 32 54 53
3 33 34 55
3 33 55 54
3 34 35 56
3 34 56 55
3 35 36 57
3 35 57 56
3 36 37 58
3 36 58 57
3 37 38 59
3 37 59 58
3 38 39 60
3 38 60 59
3 39 40 61
3 39 61 60
3 40 41 62
3 40 62 61
3 42 43 64
3 42 64 63
3 43 44 65
3 43 65 64
3 44 45 66
3 44 66 65
3 45 46 67
3 45 67 66
3 46 47 68
3 46 68 67
3 47 48 69
3 47 69 68
3 48 49 70
3 48 70 69
3 49 50 71
3 49 71 70
3 50 51 72
3 50 72 71
3 51 52 73
3 51 73 72
3 52 53 74
3 52 74 73
3 53 54 75
3 53 75 74
3 54 55 76
3 54 76 75
3 55 56 77
3 55 77 76
3 56 57 78
3 56 78 77
3 57 58 79
3 57 79 78
3 58 59 80
3 58 80 79
3 59 60 81
3 59 81 80
3 60 61 82
3 60 82 81
3 61 62 83
3 61 83 82
3 63 64 85
3 63 85 84
3 64 65 86
3 64 86 85
3 65 66 87
3 65 87 86
3 66 67 88
3 66 88 87
3 67 68 89
3 67 89 88
3 68 69 90
3 68 90 89
3 69 70 91
3 69 91 90
3 70 71 92
3 70 92 91
3 71 72 93
3 71 93 92
3 72 73 94
3 72 94 93
3 73 74 95
3 73 95 94
3 74 75 96
3 74 96 95
3 75 76 97
3 75 97 96
3 76 77 98
3 76 98 97
3 77 78 99
3 77 99 98
3 78 79 100
3 78 100 99
3 79 80 101
3 79 101 100
3 80 81 102
3 80 102 101
3 81 82 103
3 81 103 102
3 82 83 104
3 82 104 103
3 84 85 106
3 84 106 105
3 85 86 107
3 85 107 106
3 86 87 108
3 86 108 107
3 87 88 109
3 87 109 108
3 88 89 110
3 88 110 109
3 89 90 111
3 89 111 110
3 90 91 112
3 90 112 111
3 91 92 113
3 91 113 112
3 92 93 114
3 92 114 113
3 93 94 115
3 93 115 114
3 94 95 116
3 94 116 115
3 95 96 117
3 95 117 116
3 96 97 118
3 96 118 117
3 97 98 119
3 97 119 118
3 98 99 120
3 98 120 119
3 99 100 121
3 99 121 120
3 100 101 122
3 100 122 121
3 101 102 123
3 101 123 122
3 102 103 124
3 102 124 123
3 103 104 125
3 103 125 124
3 105 106 127
3 105 127 126
3 106 107 128
3 106 128 127
3 107 108 129
3 107 129 128
3 108 109 130
3 108 130 129
3 109 110 131
3 109 131 130
3 110 111 132
3 110 132 131
3 111 112 133
3 111 133 132
3 112 113 134
3 112 134 133
3 113 114 135
3 113 135 134
3 114 115 136
3 114 136 135
3 115 116 137
3 115 137 136
3 116 117 138
3 116 138 137
3 117 118 139
3 117 139 138
3 118 119 140
3 118 140 139
3 119 120 141
3 119 141 140
3 120 121 142
3 120 142 141
3 121 122 143
3 121 143 142
3 122 123 144
3 122 144 143
3 123 124 145
3 123 145 144
3 124 125 146
3 124 146 145
3 126 127 148
3 126 148 147
3 127 128 149
3 127 149 148
3 128 129 150
3 128 150 149
3 129 130 151
3 129 151 150
3 130 131 152
3 130 152 151
3 131 132 153
3 131 153 152
3 132 133 154
3 132 154 153
3 133 134 155
3 133 155 154
3 134 135 156
3 134 156 155
3 135 136 157
3 135 157 156
3 136 137 158
3 136 158 157
3 137 138 159
3 137 159 158
3 138 139 160
3 138 160 159
3 139 140 161
3 139 161 160
3 140 141 162
3 140 162 161
3 141 142 163
3 141 163 162
3 142 143 164
3 142 164 163
3 143 144 165
3 143 165 164
3 144 145 166
3 144 166 165
3 145 146 167
3 145 167 166
3 147 148 169
3 147 169 168
3 148 149 170
3 148 170 169
3 149 150 171
3 149 171 170
3 150 151 172
3 150 172 171
3 151 152 173
3 151 173 172
3 152 153 174
3 152 174 173
3 153 154 175
3 153 175 174
3 154 155 176
3 154 176 175
3 155 156 177
3 155 177 176
3 156 157 178
3 156 178 177
3 157 158 179
3 157 179 178
3 158 159 180
3 158 180 179
3 159 160 181
3 159 181 180
3 160 161 182
3 160 182 181
3 161 162 183
3 161 183 182
3 162 163 184
3 162 184 183
3 163 164 185
3 163 185 184
3 164 165 186
3 164 186 185
3 165 166 187
3 165 187 186
3 166 167 188
3 166 188 187
3 168 169 190
3 168 190 189
3 169 170 191
3 169 191 190
3 170 171 192
3 170 192 191
3 171 172 193
3 171 193 192
3 172 173 194
3 172 194 193
3 173 174 195
3 173 195 194
3 174 175 196
3 174 196 195
3 175 176 197
3 175 197 196
3 176 177 198
3 176 198 197
3 177 178 199
3 177 199 198
3 178 179 200
3 178 200 199
3 179 180 201
3 179 201 200
3 180 181 202
3 180 202 201
3 181 182 203
3 181 203 202
3 182 183 204
3 182 204 203
3 183 184 205
3 183 205 204
3 184 185 206
3 184 206 205
3 185 186 207
3 185 207 206
3 186 187 208
3 186 208 207
3 187 188 209
3 187 209 208
3 189 190 211
3 189 211 210
3 190 191 212
3 190 212 211
3 191 192 213
3 191 213 212
3 192 193 214
3 192 214 213
3 193 194 215
3 193 215 214
3 194 195 216
3 194 216 215
3 195 196 217
3 195 217 216
3 196 197 218
3 196 218 217
3 197 198 219
3 197 219 218
3 198 199 220
3 198 220 219
3 199 200 221
3 199 221 220
3 200 201 222
3 200 222 221
3 201 202 223
3 201 223 222
3 202 203 224
3 202 224 223
3 203 204 225
3 203 225 224
3 204 205 226
3 204 226 225
3 205 206 227
3 205 227 226
3 206 207 228
3 206 228 227
3 207 208 229
3 207 229 228
3 208 209 230
3 208 230 229
3 210 211 232
3 210 232 231
3 211 212 233
3 211 233 232
3 212 213 234
3 212 234 233
3 213 214 235
3 213 235 234
3 214 215 236
3 214 236 235
3 215 216 237
3 215 237 236
3 216 217 238
3 216 238 237
3 217 218 239
3 217 239 238
3 218 219 240
3 218 240 239
3 219 220 241
3 219 241 240
3 220 221 242
3 220 242 241
3 221 222 243
3 221 243 242
3 222 223 244
3 222 244 243
3 223 224 245
3 223 245 244
3 224 225 246
3 224 246 245
3 225 226 247
3 225 247 246
3 226 227 248
3 226 248 247
3 227 228 249
3 227 249 248
3 228 229 250
3 228 250 249
3 229 230 251
3 229 251 250
3 231 232 253
3 231 253 252
3 232 233 254
3 232 254 253
3 233 234 255
3 233 255 254
3 234 235 256
3 234 256 255
3 235 236 257
3 235 257 256
3 236 237 258
3 236 258 257
3 237 238 259
3 237 259 258
3 238 239 260
3 238 260 259
3 239 240 261
3 239 261 260
3 240 241 262
3 240 262 261
3 241 242 263
3 241 263 262
3 242 243 264
3 242 264 263
3 243 244 265
3 243 265 264
3 244 245 266
3 244 266 265
3 245 246 267
3 245 267 266
3 246 247 268
3 246 268 267
3 247 248 269
3 247 269 268
3 248 249 270
3 248 270 269
3 249 250 271
3 249 271 270
3 250 251 272
3 250 272 271
3 252 253 274
3 252 274 273
3 253 254 275
3 253 275 274
3 254 255 276
3 254 276 275
3 255 256 277
3 255 277 276
3 256 257 278
3 256 278 277
3 257 258 279
3 257 279 278
3 258 259 280
3 258 280 279
3 259 260 281
3 259 281 280
3 260 261 282
3 260 282 281
3 261 262 283
3 261 283 282
3 262 263 284
3 262 284 283
3 263 264 285
3 263 285 284
3 264 265 286
3 264 286 285
3 265 266 287
3 265 287 286
3 266 267 288
3 266 288 287
3 267 268 289
3 267 289 288
3 268 269 290
3 268 290 289
3 269 270 291
3 269 291 290
3 270 271 292
3 270 292 291
3 271 272 293
3 271 293 292
3 273 274 295
3 273 295 294
3 274 275 296
3 274 296 295
3 275 276 297
3 275 297 296
3 276 277 298
3 276 298 297
3 277 278 299
3 277 299 298
3 278 279 300
3 278 300 299
3 279 280 301
3 279 301 300
3 280 281 302
3 280 302 301
3 281 282 303
3 281 303 302
3 282 283 304
3 282 304 303
3 283 284 305
3 283 305 304
3 284 285 306
3 284 306 305
3 285 286 307
3 285 307 306
3 286 287 308
3 286 308 307
3 287 288 309
3 287 309 308
3 288 289 310
3 288 310 309
3 289 290 311
3 289 311 310
3 290 291 312
3 290 312 311
3 291 292 313
3 291 313 312
3 292 293 314
3 292 314 313
3 294 295 316
3 294 316 315
3 295 296 317
3 295 317 316
3 296 297 318
3 296 318 317
3 297 298 319
3 297 319 318
3 298 299 320
3 298 320 319
3 299 300 321
3 299 321 320
3 300 301 322
3 300 322 321
3 301 302 323
3 301 323 322
3 302 303 324
3 302 324 323
3 303 304 325
3 303 325 324
3 304 305 326
3 304 326 325
3 305 306 327
3 305 327 326
3 306 307 328
3 306 328 327
3 307 308 329
3 307 329 328
3 308 309 330
3 308 330 329
3 309 310 331
3 309 331 330
3 310 311 332
3 310 332 331
3 311 312 333
3 311 333 332
3 312 313 334
3 312 334 333
3 313 314 335
3 313 335 334
3 315 316 337
3 315 337 336
3 316 317 338
3 316 338 337
3 317 318 339
3 317 339 338
3 318 319 340
3 318 340 339
3 319 320 341
3 319 341 340
3 320 321 342
3 320 342 341
3 321 322 343
3 321 343 342
3 322 323 344
3 322 344 343
3 323 324 345
3 323 345 344
3 324 325 346
3 324 346 345
3 325 326 347
3 325 347 346
3 326 327 348
3 326 348 347
3 327 328 349
3 327 349 348
3 328 329 350
3 328 350 349
3 329 330 351
3 329 351 350
3 330 331 352
3 330 352 351
3 331 332 353
3 331 353 352
3 332 333 354
3 332 354 353
3 333 334 355
3 333 355 354
3 334 335 356
3 334 356 355
3 336 337 358
3 336 358 357
3 337 338 359
3 337 359 358
3 338 339 360
3 338 360 359
3 339 340 361
3 339 361 360
3 340 341 362
3 340 362 361
3 341 342 363
3 341 363 362
3 342 343 364
3 342 364 363
3 343 344 365
3 343 365 364
3 344 345 366
3 344 366 365
3 345 346 367
3 345 367 366
3 346 347 368
3 346 368 367
3 347 348 369
3 347 369 368
3 348 349 370
3 348 370 369
3 349 350 371
3 349 371 370
3 350 351 372
3 350 372 371
3 351 352 373
3 351 373 372
3 352 353 374
3 352 374 373
3 353 354 375
3 353 375 374
3 354 355 376
3 354 376 375
3 355 356 377
3 355 377 376
3 357 358 379
3 357 379 378
3 358 359 380
3 358 380 379
3 359 360 381
3 359 381 380
3 360 361 382
3 360 382 381
3 361 362 383
3 361 383 382
3 362 363 384
3 362 384 383
3 363 364 385
3 363 385 384
3 364 365 386
3 364 386 385
3 365 366 387
3 365 387 386
3 366 367 388
3 366 388 387
3 367 368 389
3 367 389 388
3 368 369 390
3 368 390 389
3 369 370 391
3 369 391 390
3 370 371 392
3 370 392 391
3 371 372 393
3 371 393 392
3 372 373 394
3 372 394 393
3 373 374 395
3 373 395 394
3 374 375 396
3 374 396 395
3 375 376 397
3 375 397 396
3 376 377 398
3 376 398 397
3 378 379 400
3 378 400 399
3 379 380 401
3 379 401 400
3 380 381 402
3 380 402 401
3 381 382 403
3 381 403 402
3 382 383 404
3 382 404 403
3 383 384 405
3 383 405 404
3 384 385 406
3 384 406 405
3 385 386 407
3 385 407 406
3 386 387 408
3 386 408 407
3 387 388 409
3 387 409 408
3 388 389 410
3 388 410 409
3 389 390 411
3 389 411 410
3 390 391 412
3 390 412 411
3 391 392 413
3 391 413 412
3 392 393 414
3 392 414 413
3 393 394 415
3 393 415 414
3 394 395 416
3 394 416 415
3 395 396 417
3 395 417 416
3 396 397 418
3 396 418 417
3 397 398 419
3 397 419 418
3 399 400 421
3 399 421 420
3 400 401 422
3 400 422 421
3 401 402 423
3 401 423 422
3 402 403 424
3 402 424 423
3 403 404 425
3 403 425 424
3 404 405 426
3 404 426 425
3 405 406 427
3 405 427 426
3 406 407 428
3 406 428 427
3 407 408 429
3 407 429 428
3 408 409 430
3 408 430 429
3 409 410 431
3 409 431 430
3 410 411 432
3 410 432 431
3 411 412 433
3 411 433 432
3 412 413 434
3 412 434 433
3 413 414 435
3 413 435 434
3 414 415 436
3 414 436 435
3 415 416 437
3 415 437 436
3 416 417 438
3 416 438 437
3 417 418 439
3 417 439 438
3 418 419 440
3 418 440 439
CELL_TYPES 800
5
5
5
5
5
5
5
5
5
5
5
5
5
5
5
5
5
5
5
5
5
5
5
5
5
5
5
5
5
5
5
5
5
5
5
5
5
5
5
5
5
5
5
5
5
5
5
5
5
5
5
5
5
5
5
5
5
5
5
5
5
5
5
5
5
5
5
5
5
5
5
5
5
5
5
5
5
5
5
5
5
5
5
5
5
5
5
5
5
5
5
5
5
5
5
5
5
5
5
5
5
5
5
5
5
5
5
5
5
5
5
5
5
5
5
5
5
5
5
5
5
5
5
5
5
5
5
5
5
5
5
5
5
5
5
5
5
5
5
5
5
5
5
5
5
5
5
5
5
5
5
5
5
5
5
5
5
5
5
5
5
5
5
5
5
5
5
5
5
5
5
5
5
5
5
5
5
5
5
5
5
5
5
5
5
5
5
5
5
5
5
5
5
5
5
5
5
5
5
5
5
5
5
5
5
5
5
5
5
5
5
5
5
5
5
5
5
5
5
5
5
5
5
5
5
5
5
5
5
5
5
5
5
5
5
5
5
5
5
5
5
5
5
5
5
5
5
5
5
5
5
5
5
5
5
5
5
5
5
5
5
5
5
5
5
5
5
5
5
5
5
5
5
5
5
5
5
5
5
5
5
5
5
5
5
5
5
5
5
5
5
5
5
5
5
5
5
5
5
5
5
5
5
5
5
5
5
5
5
5
5
5
5
5
5
5
5
5
5
5
5
5
5
5
5
5
5
5
5
5
5
5
5
5
5
5
5
5
5
5
5
5
5
5
5
5
5
5
5
5
5
5
5
5
5
5
5
5
5
5
5
5
5
5
5
5
5
5
5
5
5
5
5
5
5
5
5
5
5
5
5
5
5
5
5
5
5
5
5
5
5
5
5
5
5
5
5
5
5
5
5
5
5
5
5
5
5
5
5
5
5
5
5
5
5
5
5
5
5
5
5
5
5
5
5
5
5
5
5
5
5
5
5
5
5
5
5
5
5
5
5
5
5
5
5
5
5
5
5
5
5
5
5
5
5
5
5
5
5
5
5
5
5
5
5
5
5
5
5
5
5
5
5
5
5
5
5
5
5
5
5
5
5
5
5
5
5
5
5
5
5
5
5
5
5
5
5
5
5
5
5
5
5
5
5
5
5
5
5
5
5
5
5
5
5
5
5
5
5
5
5
5
5
5
5
5
5
5
5
5
5
5
5
5
5
5
5
5
5
5
5
5
5
5
5
5
5
5
5
5
5
5
5
5
5
5
5
5
5
5
5
5
5
5
5
5
5
5
5
5
5
5
5
5
5
5
5
5
5
5
5
5
5
5
5
5
5
5
5
5
5
5
5
5
5
5
5
5
5
5
5
5
5
5
5
5
5
5
5
5
5
5
5
5
5
5
5
5
5
5
5
5
5
5
5
5
5
5
5
5
5
5
5
5
5
5
5
5
5
5
5
5
5
5
5
5
5
5
5
5
5
5
5
5
5
5
5
5
5
5
5
5
5
5
5
5
5
5
5
5
5
5
5
5
5
5
5
5
5
5
5
5
5
5
5
5
5
5
5
5
5
5
5
5
5
5
5
5
5
5
5
5
5
5
5
5
5
5
5
5
5
5
5
5
5
5
5
5
5
5
5
5
5
5
5
5
5
5
5
5
5
5
5
5
5
5
5
5
5
5
5
5
5
5
5
5
5
5
5
5
5
5
5
5
5
5
5
5
5
5
5
5
5
5
5
5
5
5
5
5
5
5
5
5
5
5
5
5
5
5
5
5
5
5
5
5
5
5
5
5
5
5
5
5
5
5
5
5
5
5
CELL_DATA 800
VECTORS Et double
-0.0231041 0.0447075 0
-0.046417 0.0224582 0
-0.0225002 0.111219 0
-0.0456958 0.0898631 0
-0.0213674 0.175021 0
-0.043694 0.15485 0
-0.0197204 0.234643 0
-0.0405963 0.216093 0
-0.0175891 0.288621 0
-0.0365149 0.27216 0
-0.0150172 0.335598 0
-0.0315418 0.321658 0
-0.0120615 0.374379 0
-0.0257689 0.36332 0
-0.00879003 0.403986 0
-0.0192994 0.396073 0
-0.00527985 0.423686 0
-0.0122551 0.419079 0
-0.00161499 0.433003 0
-0.00478081 0.43176 0
0.00211609 0.431724 0
0.00295384 0.43381 0
0.00582257 0.419885 0
0.0107561 0.425191 0
0.00941324 0.397763 0
0.0184152 0.406118 0
0.0127983 0.365861 0
0.0257109 0.377048 0
0.0158907 0.324896 0
0.0324246 0.338658 0
0.0186083 0.275798 0
0.0383526 0.291834 0
0.0208751 0.219707 0
0.0433209 0.237663 0
0.0226235 0.157984 0
0.0472014 0.177431 0
0.0237965 0.09223 0
0.0499356 0.112624 0
0.0243492 0.0243492 0
0.0515828 0.0449491 0
-0.0883742 0.0352182 0
-0.10767 0.0175074 0
-0.0867545 0.0893639 0
-0.105543 0.0719311 0
-0.0828903 0.141528 0
-0.100829 0.124886 0
-0.0769886 0.190398 0
-0.0937078 0.175012 0
-0.0692107 0.234724 0
-0.0843561 0.221028 0
-0.0597231 0.273356 0
-0.0729573 0.261739 0
-0.048717 0.305299 0
-0.0597175 0.296073 0
-0.0364156 0.32974 0
-0.044878 0.32313 0
-0.0230783 0.346077 0
-0.0287256 0.342213 0
-0.0090004 0.353926 0
-0.0115986 0.352848 0
0.00548925 0.35312 0
0.00611191 0.354788 0
0.020034 0.343695 0
0.023967 0.348008 0
0.0342581 0.325879 0
0.041491 0.332689 0
0.0477783 0.300075 0
0.0581893 0.309205 0
0.0602177 0.266854 0
0.0735704 0.278099 0
0.0712217 0.226946 0
0.087172 0.240079 0
0.0804759 0.181243 0
0.0985881 0.196004 0
0.0877263 0.130799 0
0.107496 0.146884 0
0.0928066 0.0768224 0
0.113683 0.0938783 0
0.0956913 0.0206241 0
0.117067 0.03828 0
-0.137415 0.0196479 0
-0.148556 0.00927523 0
-0.134715 0.0515605 0
-0.145309 0.0410407 0
-0.128736 0.0825655 0
-0.138711 0.0723336 0
-0.119673 0.111775 0
-0.128919 0.102216 0
-0.107737 0.138363 0
-0.116121 0.129816 0
-0.0931627 0.161586 0
-0.100538 0.154337 0
-0.0762284 0.180813 0
-0.0824349 0.175082 0
-0.0572614 0.195547 0
-0.0621271 0.191479 0
-0.0366473 0.205434 0
-0.0399984 0.203098 0
-0.0148321 0.210266 0
-0.0165062 0.209662 0
0.00767968 0.20997 0
0.00781668 0.211043 0
0.0303334 0.204591 0
0.0323681 0.207252 0
0.0525378 0.194277 0
0.0564926 0.198417 0
0.0736838 0.179262 0
0.0795045 0.184768 0
0.0931689 0.159857 0
0.100719 0.166619 0
0.110424 0.136447 0
0.119486 0.144359 0
0.124943 0.109492 0
0.135228 0.118449 0
0.136312 0.0795316 0
0.14747 0.0894198 0
0.144237 0.04718 0
0.155869 0.0578755 0
0.148575 0.0131003 0
0.160229 0.0244855 0
-0.160518 0.000765283 0
-0.161052 -0.0006931 0
-0.157138 0.00475136 0
-0.157279 0.00283485 0
-0.150119 0.00902086 0
-0.150055 0.00689455 0
-0.139618 0.0132886 0
-0.139501 0.0111722 0
-0.125835 0.0173007 0
-0.125781 0.0153781 0
-0.109012 0.0208472 0
-0.109097 0.0192587 0
-0.0894412 0.0237749 0
-0.089698 0.0226092 0
-0.0674783 0.0259935 0
-0.0678964 0.0252855 0
-0.0435493 0.0274745 0
-0.0440811 0.0272089 0
-0.0181574 0.0282402 0
-0.0187281 0.0283625 0
0.00811798 0.0283454 0
0.00759599 0.0287791 0
0.0346292 0.0278562 0
0.0342401 0.0285213 0
0.0606767 0.0268281 0
0.0604853 0.0276601 0
0.0855321 0.0252901 0
0.0855712 0.0262541 0
0.108469 0.0232361 0
0.108731 0.0243349 0
0.128795 0.0206255 0
0.12923 0.0219002 0
0.145891 0.017392 0
0.146407 0.0189163 0
0.159241 0.0134563 0
0.159713 0.0153276 0
0.168464 0.00873785 0
0.168733 0.0110693 0
0.173328 0.00316193 0
0.173211 0.00607794 0
-0.152992 -0.0180261 0
-0.142591 -0.0105297 0
-0.149555 -0.0425142 0
-0.139028 -0.0356633 0
-0.142835 -0.0656266 0
-0.1326 -0.0593976 0
-0.13294 -0.086996 0
-0.123385 -0.0813733 0
-0.120017 -0.106262 0
-0.111485 -0.101249 0
-0.104253 -0.123069 0
-0.0970289 -0.118694 0
-0.0858826 -0.137066 0
-0.080184 -0.133387 0
-0.065201 -0.147913 0
-0.0611756 -0.145018 0
-0.0425781 -0.155294 0
-0.040303 -0.153292 0
-0.0184662 -0.158939 0
-0.0179546 -0.157947 0
0.00659637 -0.158652 0
0.00538508 -0.158775 0
0.0319922 -0.154336 0
0.0291392 -0.155647 0
0.0570393 -0.146019 0
0.0526527 -0.148543 0
0.0810159 -0.133873 0
0.0752181 -0.137568 0
0.103192 -0.118216 0
0.09611 -0.122971 0
0.122865 -0.0995112 0
0.114625 -0.105144 0
0.139399 -0.0783491 0
0.130124 -0.0846139 0
0.152261 -0.0554206 0
0.142068 -0.0620222 0
0.161044 -0.0314889 0
0.150049 -0.0380979 0
0.165489 -0.0073574 0
0.153805 -0.0136267 0
-0.116022 -0.0333451 0
-0.0965442 -0.0183919 0
-0.1132 -0.081641 0
-0.0939023 -0.0673825 0
-0.108106 -0.12776 0
-0.0895698 -0.114388 0
-0.100789 -0.170761 0
-0.0835686 -0.15846 0
-0.0913109 -0.209745 0
-0.0759133 -0.1987 0
-0.0797534 -0.243864 0
-0.0666192 -0.234264 0
-0.0662286 -0.272325 0
-0.055718 -0.264369 0
-0.0508958 -0.294412 0
-0.0432796 -0.288301 0
-0.0339784 -0.309507 0
-0.0294342 -0.305439 0
-0.015778 -0.31712 0
-0.0143916 -0.315269 0
0.00331894 -0.316923 0
0.00154713 -0.317424 0
0.022842 -0.308782 0
0.0179881 -0.311707 0
0.0422488 -0.292783 0
0.0344545 -0.298125 0
0.0609464 -0.269251 0
0.0504079 -0.276912 0
0.0783202 -0.238756 0
0.0652785 -0.248538 0
0.0937693 -0.202102 0
0.0785022 -0.213712 0
0.106742 -0.160303 0
0.0895586 -0.173361 0
0.116771 -0.114546 0
0.0980065 -0.128606 0
0.123499 -0.0661511 0
0.103511 -0.0807174 0
0.126693 -0.0165157 0
0.105862 -0.0310696 0
-0.0564478 -0.0424576 0
-0.0315876 -0.0228067 0
-0.0548103 -0.105557 0
-0.0304033 -0.0865164 0
-0.0523857 -0.166104 0
-0.0290732 -0.148036 0
-0.0491559 -0.222773 0
-0.0275599 -0.206019 0
-0.0450809 -0.274307 0
-0.0257798 -0.25919 0
-0.0401066 -0.319524 0
-0.0236139 -0.30636 0
-0.0341805 -0.35734 0
-0.020928 -0.346432 0
-0.0272729 -0.386785 0
-0.0175981 -0.37842 0
-0.0193979 -0.407035 0
-0.013537 -0.401476 0
-0.0106329 -0.417447 0
-0.00871837 -0.414912 0
-0.00113116 -0.417596 0
-0.00319336 -0.418242 0
0.00887391 -0.407307 0
0.00290159 -0.411211 0
0.0190743 -0.386688 0
0.00934821 -0.393828 0
0.0291029 -0.356145 0
0.0158606 -0.36639 0
0.0385571 -0.316388 0
0.0221088 -0.329493 0
0.0470281 -0.268417 0
0.0277485 -0.284028 0
0.0541328 -0.213496 0
0.0324532 -0.23116 0
0.0595426 -0.153107 0
0.0359444 -0.172294 0
0.0630076 -0.0888979 0
0.038016 -0.109024 0
0.0643705 -0.0226223 0
0.038548 -0.043079 0
0.0145204 -0.0437746 0
0.0399381 -0.0229455 0
0.0146277 -0.110002 0
0.0394185 -0.0895959 0
0.0138409 -0.173779 0
0.0374216 -0.154255 0
0.01224 -0.233659 0
0.0340339 -0.21544 0
0.00996839 -0.288273 0
0.0294312 -0.271756 0
0.00722147 -0.336337 0
0.0238627 -0.3219 0
0.00422706 -0.376674 0
0.0176267 -0.364671 0
0.00122128 -0.40823 0
0.0110426 -0.39899 0
-0.00157726 -0.430113 0
0.00442114 -0.423926 0
-0.00399099 -0.441622 0
-0.00196261 -0.438727 0
-0.00590171 -0.442286 0
-0.00789111 -0.44285 0
-0.00726114 -0.431899 0
-0.0132177 -0.436003 0
-0.00809237 -0.41055 0
-0.0178703 -0.418173 0
-0.00848218 -0.378636 0
-0.0218458 -0.389646 0
-0.0085653 -0.336873 0
-0.025195 -0.351023 0
-0.00850297 -0.286278 0
-0.0280026 -0.303211 0
-0.00845891 -0.228146 0
-0.030363 -0.247407 0
-0.00857627 -0.163998 0
-0.0323576 -0.185057 0
-0.00895892 -0.0955323 0
-0.0340355 -0.117806 0
-0.00966002 -0.0245513 0
-0.0354011 -0.0474374 0
0.0834119 -0.0371427 0
0.104359 -0.0187808 0
0.0819464 -0.0942972 0
0.10225 -0.076132 0
0.0780268 -0.14954 0
0.0972629 -0.132026 0
0.0717785 -0.201594 0
0.0895165 -0.185145 0
0.06343 -0.249252 0
0.0792588 -0.234253 0
0.053297 -0.291375 0
0.0668408 -0.278192 0
0.0417599 -0.326912 0
0.0526907 -0.315887 0
0.0292382 -0.354917 0
0.0372856 -0.346364 0
0.0161618 -0.374576 0
0.0211219 -0.368771 0
0.00294488 -0.385241 0
0.00468664 -0.38241 0
-0.0100367 -0.386459 0
-0.0115666 -0.386763 0
-0.0224615 -0.378008 0
-0.027236 -0.381531 0
-0.0340703 -0.359921 0
-0.0419814 -0.366654 0
-0.0446673 -0.332505 0
-0.0555269 -0.342343 0
-0.0541127 -0.296343 0
-0.0676557 -0.309081 0
-0.062311 -0.252292 0
-0.0781997 -0.267628 0
-0.0691952 -0.201449 0
-0.0870257 -0.218998 0
-0.0747122 -0.145123 0
-0.0940213 -0.164431 0
-0.0788092 -0.0847738 0
-0.0990814 -0.105346 0
-0.0814255 -0.0219484 0
-0.102095 -0.0432793 0
0.137043 -0.0238844 0
0.149247 -0.0110926 0
0.134293 -0.0614681 0
0.14606 -0.0487206 0
0.127941 -0.0979928 0
0.139024 -0.0855841 0
0.118136 -0.132623 0
0.128322 -0.120857 0
0.105159 -0.164552 0
0.114245 -0.153726 0
0.0894023 -0.193012 0
0.0971991 -0.183406 0
0.0713457 -0.217276 0
0.077679 -0.209156 0
0.0515315 -0.236674 0
0.0562488 -0.230286 0
0.0305372 -0.250612 0
0.0335136 -0.246173 0
0.00894833 -0.258595 0
0.0100931 -0.256287 0
-0.012665 -0.260256 0
-0.0134023 -0.260212 0
-0.0337681 -0.255377 0
-0.0363915 -0.257675 0
-0.0538752 -0.243914 0
-0.0583376 -0.248567 0
-0.0725569 -0.226016 0
-0.0787572 -0.232966 0
-0.0894421 -0.202025 0
-0.0972239 -0.211145 0
-0.104215 -0.172484 0
-0.113368 -0.183575 0
-0.116608 -0.13811 0
-0.126874 -0.150913 0
-0.126398 -0.0997766 0
-0.137473 -0.113984 0
-0.133396 -0.0584774 0
-0.144944 -0.0737417 0
-0.137442 -0.0152955 0
-0.149125 -0.0312359 0
0.166384 -0.0175019 0
0.163296 -0.00418456 0
0.162925 -0.0412682 0
0.159425 -0.0276912 0
0.155265 -0.0646893 0
0.151557 -0.0512374 0
0.143597 -0.0872443 0
0.139831 -0.0742537 0
0.12822 -0.108417 0
0.124537 -0.0962158 0
0.109547 -0.127687 0
0.106081 -0.116603 0
0.088086 -0.144527 0
0.0849676 -0.134889 0
0.0644202 -0.158417 0
0.0617735 -0.150545 0
0.039184 -0.168859 0
0.0371246 -0.163056 0
0.01304 -0.175398 0
0.0116708 -0.171936 0
-0.0133441 -0.177656 0
-0.0139366 -0.176758 0
-0.0393159 -0.175356 0
-0.0390648 -0.177179 0
-0.0642545 -0.168348 0
-0.0631159 -0.172973 0
-0.0875834 -0.156634 0
-0.0855379 -0.164052 0
-0.108779 -0.140376 0
-0.105833 -0.150483 0
-0.127377 -0.119903 0
-0.123559 -0.132501 0
-0.142972 -0.0956968 0
-0.138333 -0.110501 0
-0.155222 -0.0683709 0
-0.149828 -0.0850278 0
-0.163849 -0.0386324 0
-0.157765 -0.0567447 0
-0.168655 -0.00720182 0
-0.161893 -0.0263959 0
0.167871 0.00495913 0
0.17016 0.00153028 0
0.164002 0.00899441 0
0.165943 0.00602718 0
0.156087 0.0122505 0
0.157625 0.00988361 0
0.144253 0.0145697 0
0.145372 0.0128861 0
0.128776 0.0158558 0
0.12948 0.0148966 0
0.110048 0.0160801 0
0.110356 0.0158441 0
0.0885543 0.0152862 0
0.0885001 0.0157287 0
0.0648593 0.0135893 0
0.0644886 0.0146237 0
0.0395798 0.0111684 0
0.03895 0.012672 0
0.0133661 0.00825281 0
0.0125428 0.0100754 0
-0.0131199 0.00510214 0
-0.0140653 0.00707772 0
-0.0392238 0.00198473 0
-0.0402174 0.00394445 0
-0.0643149 -0.000845213 0
-0.0652837 0.000939587 0
-0.0878003 -0.00316805 0
-0.0886744 -0.0016962 0
-0.109135 -0.00481485 0
-0.10985 -0.00376442 0
-0.127829 -0.0056776 0
-0.128328 -0.00512239 0
-0.143451 -0.00571275 0
-0.143686 -0.00569042 0
-0.155633 -0.00493909 0
-0.155565 -0.00545234 0
-0.164064 -0.00343414 0
-0.163667 -0.00445078 0
-0.16847 -0.00134657 0
-0.167757 -0.00278201 0
0.163318 0.0274972 0
0.171052 0.00722616 0
0.159373 0.0593323 0
0.1667 0.0398508 0
0.151541 0.0892426 0
0.158257 0.0711043 0
0.139968 0.116411 0
0.145912 0.100098 0
0.124918 0.140128 0
0.12996 0.12605 0
0.106757 0.159812 0
0.110803 0.148296 0
0.085945 0.175022 0
0.0889281 0.166308 0
0.0630118 0.185466 0
0.064899 0.179702 0
0.0385426 0.191008 0
0.0393315 0.18825 0
0.0131575 0.191657 0
0.0128751 0.191875 0
-0.0125077 0.187559 0
-0.0138068 0.190641 0
-0.037819 0.178981 0
-0.0400558 0.184745 0
-0.0621607 0.166286 0
-0.0652346 0.174493 0
-0.0849485 0.149917 0
-0.0887415 0.160282 0
-0.105641 0.130376 0
-0.110021 0.142579 0
-0.123748 0.108203 0
-0.128574 0.121902 0
-0.138837 0.0839618 0
-0.143963 0.098801 0
-0.150539 0.0582269 0
-0.155818 0.0738465 0
-0.158545 0.0315661 0
-0.163842 0.0476147 0
-0.162612 0.00452013 0
-0.167819 0.0206742 0
0.152964 0.0492648 0
0.165957 0.0127047 0
0.149149 0.107958 0
0.161647 0.0725392 0
0.141721 0.163605 0
0.153396 0.130261 0
0.130834 0.21476 0
0.141395 0.184348 0
0.116736 0.260125 0
0.125934 0.233405 0
0.0997656 0.298583 0
0.107393 0.2762 0
0.0803412 0.329224 0
0.0862387 0.311692 0
0.0589493 0.351365 0
0.0630053 0.33906 0
0.0361271 0.364564 0
0.0382801 0.357714 0
0.0124464 0.368623 0
0.0126848 0.367311 0
-0.011503 0.363581 0
-0.0131423 0.367748 0
-0.03513 0.349706 0
-0.0385641 0.359156 0
-0.0578564 0.32747 0
-0.0629602 0.341886 0
-0.0791308 0.297534 0
-0.0857414 0.316489 0
-0.098439 0.26072 0
-0.106361 0.283691 0
-0.115314 0.217985 0
-0.124326 0.244372 0
-0.129343 0.170393 0
-0.139203 0.199534 0
-0.140176 0.119094 0
-0.150629 0.15028 0
-0.147527 0.0652892 0
-0.158317 0.0977875 0
-0.151187 0.0102047 0
-0.162069 0.0432759 0
0.137184 0.0694835 0
0.155048 0.0177758 0
0.133663 0.153169 0
0.150942 0.102936 0
0.12693 0.232757 0
0.143185 0.185285 0
0.11713 0.306225 0
0.131957 0.262714 0
0.104485 0.371727 0
0.117525 0.333262 0
0.0892963 0.427646 0
0.100239 0.395167 0
0.0719311 0.472635 0
0.0805292 0.446912 0
0.0528177 0.505647 0
0.0588861 0.487268 0
0.0324303 0.525959 0
0.0358518 0.515312 0
0.0112755 0.533178 0
0.0120013 0.530452 0
-0.0101224 0.527249 0
-0.0120732 0.53243 0
-0.0312352 0.508438 0
-0.0357776 0.52132 0
-0.0515443 0.477325 0
-0.0585316 0.497517 0
-0.0705525 0.43477 0
-0.0797814 0.461714 0
-0.0877945 0.381895 0
-0.0990117 0.41488 0
-0.102846 0.320042 0
-0.115756 0.358229 0
-0.115334 0.250743 0
-0.129604 0.293185 0
-0.124939 0.175681 0
-0.140213 0.221344 0
-0.131409 0.0966514 0
-0.147315 0.144442 0
-0.134565 0.0155188 0
-0.150723 0.0643086 0
0.116521 0.087444 0
0.138685 0.0222642 0
0.113435 0.193391 0
0.134939 0.129979 0
0.107655 0.29431 0
0.127963 0.234266 0
0.0993044 0.38766 0
0.117911 0.332491 0
0.0885699 0.471108 0
0.105017 0.422187 0
0.0757004 0.542591 0
0.0895887 0.501121 0
0.0610028 0.600371 0
0.0720039 0.567352 0
0.0448342 0.643077 0
0.0526972 0.619284 0
0.0275915 0.669731 0
0.0321482 0.655698 0
0.00969981 0.679771 0
0.0108673 0.67578 0
-0.00839891 0.673056 0
-0.0106184 0.679136 0
-0.026258 0.649855 0
-0.0317788 0.665789 0
-0.0434372 0.610838 0
-0.0520946 0.636172 0
-0.0595126 0.55705 0
-0.0710688 0.591106 0
-0.0740866 0.489874 0
-0.0882377 0.531778 0
-0.0867954 0.410996 0
-0.10318 0.459696 0
-0.0973172 0.322363 0
-0.115526 0.376658 0
-0.105379 0.226134 0
-0.124963 0.284701 0
-0.110765 0.12463 0
-0.131246 0.186055 0
-0.113324 0.0202856 0
-0.134205 0.0830932 0
0.0916733 0.102519 0
0.117414 0.026015 0
0.0891456 0.227229 0
0.114176 0.152728 0
0.0845446 0.34614 0
0.108245 0.275506 0
0.0779597 0.456269 0
0.0997386 0.39127 0
0.0695298 0.554869 0
0.0888439 0.497126 0
0.0594436 0.639499 0
0.0758156 0.590438 0
0.047936 0.708088 0
0.0609686 0.668905 0
0.0352821 0.75899 0
0.0446672 0.73062 0
0.0217889 0.791015 0
0.0273144 0.774113 0
0.00778693 0.803455 0
0.00933997 0.798384 0
-0.00637921 0.796095 0
-0.00881159 0.802921 0
-0.0203598 0.769209 0
-0.0266926 0.787705 0
-0.033809 0.723543 0
-0.0438636 0.753201 0
-0.0463926 0.660292 0
-0.059903 0.70034 0
-0.0577956 0.581064 0
-0.074417 0.630486 0
-0.0677289 0.487833 0
-0.0870467 0.5454 0
-0.0759349 0.38289 0
-0.0974752 0.44719 0
-0.0821937 0.268794 0
-0.105433 0.338263 0
-0.086329 0.148308 0
-0.110703 0.221263 0
-0.0882171 0.0243464 0
-0.113125 0.09902 0
0.0634784 0.114178 0
0.0919372 0.0288989 0
0.0616187 0.253506 0
0.089352 0.170388 0
0.0583872 0.386457 0
0.0847095 0.307573 0
0.0538274 0.509696 0
0.0780722 0.437026 0
0.0480217 0.620146 0
0.0695739 0.555508 0
0.0410906 0.715066 0
0.0594084 0.660066 0
0.0331891 0.792126 0
0.0478194 0.748113 0
0.0245015 0.849459 0
0.0350903 0.817496 0
0.0152356 0.88571 0
0.0215353 0.866547 0
0.00561654 0.900056 0
0.0074897 0.894121 0
-0.00411997 0.892225 0
-0.00669918 0.899612 0
-0.0137335 0.862492 0
-0.0206815 0.882969 0
-0.022985 0.811662 0
-0.0341133 0.844679 0
-0.0316425 0.741049 0
-0.0466646 0.785758 0
-0.0394863 0.65243 0
-0.0580267 0.70771 0
-0.0463127 0.548003 0
-0.0679177 0.612488 0
-0.0519382 0.430327 0
-0.0760872 0.502444 0
-0.0562023 0.302263 0
-0.0823188 0.380266 0
-0.0589708 0.166914 0
-0.0864294 0.248918 0
-0.0601408 0.0275657 0
-0.088266 0.111576 0
0.0328769 0.121993 0
0.0630757 0.0308166 0
0.0317877 0.271297 0
0.061313 0.182326 0
0.0300819 0.413866 0
0.0581785 0.329342 0
0.0277446 0.546109 0
0.053677 0.468175 0
0.0247961 0.664712 0
0.0478912 0.595331 0
0.0212855 0.766724 0
0.040953 0.707628 0
0.0172835 0.849632 0
0.0330295 0.80228 0
0.0128785 0.91142 0
0.0243161 0.876963 0
0.00817263 0.950615 0
0.0150287 0.929871 0
0.00327831 0.966316 0
0.00539785 0.959756 0
-0.00168532 0.95821 0
-0.00433809 0.965949 0
-0.00659552 0.926569 0
-0.013939 0.948372 0
-0.0113291 0.872241 0
-0.0231691 0.907532 0
-0.0157651 0.796617 0
-0.0318021 0.844497 0
-0.0197876 0.701591 0
-0.0396268 0.760867 0
-0.0232871 0.58951 0
-0.0464502 0.658727 0
-0.0261618 0.463111 0
-0.0521009 0.540588 0
-0.0283174 0.325456 0
-0.0564288 0.409331 0
-0.0296638 0.179859 0
-0.059299 0.268128 0
-0.0301106 0.029836 0
-0.0605664 0.120374 0
0.00086736 0.125631 0
0.0317021 0.0317021 0
0.000669282 0.279948 0
0.0310407 0.188063 0
0.000614921 0.427411 0
0.0296038 0.340025 0
0.000627766 0.56426 0
0.0274291 0.483633 0
0.000672695 0.68705 0
0.0245735 0.61523 0
0.000729721 0.792719 0
0.0211113 0.731507 0
0.000785662 0.87866 0
0.0171317 0.82957 0
0.000831294 0.942778 0
0.0127367 0.907009 0
0.000860308 0.983539 0
0.00803798 0.961944 0
0.000868893 1 0
0.00315373 0.993073 0
0.000855546 0.991824 0
-0.00179431 0.999694 0
0.000820963 0.959283 0
-0.00668409 0.981714 0
0.000767979 0.903243 0
-0.0113963 0.939645 0
0.00070156 0.825132 0
-0.015817 0.874584 0
0.000628912 0.726903 0
-0.0198406 0.788175 0
0.000559858 0.610974 0
-0.0233718 0.682568 0
0.000507907 0.480172 0
-0.0263278 0.560357 0
0.000493241 0.337646 0
-0.0286397 0.424511 0
0.000551446 0.186783 0
-0.0302542 0.278299 0
0.000761 0.0310814 0
-0.0311342 0.125192 0
