# vtk DataFile Version 3.0
tp3485 cell-vector
ASCII
DATASET UNSTRUCTURED_GRID
POINTS 441 double
0 0 0
0.05 0 0
0.1 0 0
0.15 0 0
0.2 0 0
0.25 0 0
0.3 0 0
0.35 0 0
0.4 0 0
0.45 0 0
0.5 0 0
0.55 0 0
0.6 0 0
0.65 0 0
0.7 0 0
0.75 0 0
0.8 0 0
0.85 0 0
0.9 0 0
0.95 0 0
1 0 0
0 0.05 0
0.05 0.05 0
0.1 0.05 0
0.15 0.05 0
0.2 0.05 0
0.25 0.05 0
0.3 0.05 0
0.35 0.05 0
0.4 0.05 0
0.45 0.05 0
0.5 0.05 0
0.55 0.05 0
0.6 0.05 0
0.65 0.05 0
0.7 0.05 0
0.75 0.05 0
0.8 0.05 0
0.85 0.05 0
0.9 0.05 0
0.95 0.05 0
1 0.05 0
0 0.1 0
0.05 0.1 0
0.1 0.1 0
0.15 0.1 0
0.2 0.1 0
0.25 0.1 0
0.3 0.1 0
0.35 0.1 0
0.4 0.1 0
0.45 0.1 0
0.5 0.1 0
0.55 0.1 0
0.6 0.1 0
0.65 0.1 0
0.7 0.1 0
0.75 0.1 0
0.8 0.1 0
0.85 0.1 0
0.9 0.1 0
0.95 0.1 0
1 0.1 0
0 0.15 0
0.05 0.15 0
0.1 0.15 0
0.15 0.15 0
0.2 0.15 0
0.25 0.15 0
0.3 0.15 0
0.35 0.15 0
0.4 0.15 0
0.45 0.15 0
0.5 0.15 0
0.55 0.15 0
0.6 0.15 0
0.65 0.15 0
0.7 0.15 0
0.75 0.15 0
0.8 0.15 0
0.85 0.15 0
0.9 0.15 0
0.95 0.15 0
1 0.15 0
0 0.2 0
0.05 0.2 0
0.1 0.2 0
0.15 0.2 0
0.2 0.2 0
0.25 0.2 0
0.3 0.2 0
0.35 0.2 0
0.4 0.2 0
0.45 0.2 0
0.5 0.2 0
0.55 0.2 0
0.6 0.2 0
0.65 0.2 0
0.7 0.2 0
0.75 0.2 0
0.8 0.2 0
0.85 0.2 0
0.9 0.2 0
0.95 0.2 0
1 0.2 0
0 0.25 0
0.05 0.25 0
0.1 0.25 0
0.15 0.25 0
0.2 0.25 0
0.25 0.25 0
0.3 0.25 0
0.35 0.25 0
0.4 0.25 0
0.45 0.25 0
0.5 0.25 0
0.55 0.25 0
0.6 0.25 0
0.65 0.25 0
0.7 0.25 0
0.75 0.25 0
0.8 0.25 0
0.85 0.25 0
0.9 0.25 0
0.95 0.25 0
1 0.25 0
0 0.3 0
0.05 0.3 0
0.1 0.3 0
0.15 0.3 0
0.2 0.3 0
0.25 0.3 0
0.3 0.3 0
0.35 0.3 0
0.4 0.3 0
0.45 0.3 0
0.5 0.3 0
0.55 0.3 0
0.6 0.3 0
0.65 0.3 0
0.7 0.3 0
0.75 0.3 0
0.8 0.3 0
0.85 0.3 0
0.9 0.3 0
0.95 0.3 0
1 0.3 0
0 0.35 0
0.05 0.35 0
0.1 0.35 0
0.15 0.35 0
0.2 0.35 0
0.25 0.35 0
0.3 0.35 0
0.35 0.35 0
0.4 0.35 0
0.45 0.35 0
0.5 0.35 0
0.55 0.35 0
0.6 0.35 0
0.65 0.35 0
0.7 0.35 0
0.75 0.35 0
0.8 0.35 0
0.85 0.35 0
0.9 0.35 0
0.95 0.35 0
1 0.35 0
0 0.4 0
0.05 0.4 0
0.1 0.4 0
0.15 0.4 0
0.2 0.4 0
0.25 0.4 0
0.3 0.4 0
0.35 0.4 0
0.4 0.4 0
0.45 0.4 0
0.5 0.4 0
0.55 0.4 0
0.6 0.4 0
0.65 0.4 0
0.7 0.4 0
0.75 0.4 0
0.8 0.4 0
0.85 0.4 0
0.9 0.4 0
0.95 0.4 0
1 0.4 0
0 0.45 0
0.05 0.45 0
0.1 0.45 0
0.15 0.45 0
0.2 0.45 0
0.25 0.45 0
0.3 0.45 0
0.35 0.45 0
0.4 0.45 0
0.45 0.45 0
0.5 0.45 0
0.55 0.45 0
0.6 0.45 0
0.65 0.45 0
0.7 0.45 0
0.75 0.45 0
0.8 0.45 0
0.85 0.45 0
0.9 0.45 0
0.95 0.45 0
1 0.45 0
0 0.5 0
0.05 0.5 0
0.1 0.5 0
0.15 0.5 0
0.2 0.5 0
0.25 0.5 0
0.3 0.5 0
0.35 0.5 0
0.4 0.5 0
0.45 0.5 0
0.5 0.5 0
0.55 0.5 0
0.6 0.5 0
0.65 0.5 0
0.7 0.5 0
0.75 0.5 0
0.8 0.5 0
0.85 0.5 0
0.9 0.5 0
0.95 0.5 0
1 0.5 0
0 0.55 0
0.05 0.55 0
0.1 0.55 0
0.15 0.55 0
0.2 0.55 0
0.25 0.55 0
0.3 0.55 0
0.35 0.55 0
0.4 0.55 0
0.45 0.55 0
0.5 0.55 0
0.55 0.55 0
0.6 0.55 0
0.65 0.55 0
0.7 0.55 0
0.75 0.55 0
0.8 0.55 0
0.85 0.55 0
0.9 0.55 0
0.95 0.55 0
1 0.55 0
0 0.6 0
0.05 0.6 0
0.1 0.6 0
0.15 0.6 0
0.2 0.6 0
0.25 0.6 0
0.3 0.6 0
0.35 0.6 0
0.4 0.6 0
0.45 0.6 0
0.5 0.6 0
0.55 0.6 0
0.6 0.6 0
0.65 0.6 0
0.7 0.6 0
0.75 0.6 0
0.8 0.6 0
0.85 0.6 0
0.9 0.6 0
0.95 0.6 0
1 0.6 0
0 0.65 0
0.05 0.65 0
0.1 0.65 0
0.15 0.65 0
0.2 0.65 0
0.25 0.65 0
0.3 0.65 0
0.35 0.65 0
0.4 0.65 0
0.45 0.65 0
0.5 0.65 0
0.55 0.65 0
0.6 0.65 0
0.65 0.65 0
0.7 0.65 0
0.75 0.65 0
0.8 0.65 0
0.85 0.65 0
0.9 0.65 0
0.95 0.65 0
1 0.65 0
0 0.7 0
0.05 0.7 0
0.1 0.7 0
0.15 0.7 0
0.2 0.7 0
0.25 0.7 0
0.3 0.7 0
0.35 0.7 0
0.4 0.7 0
0.45 0.7 0
0.5 0.7 0
0.55 0.7 0
0.6 0.7 0
0.65 0.7 0
0.7 0.7 0
0.75 0.7 0
0.8 0.7 0
0.85 0.7 0
0.9 0.7 0
0.95 0.7 0
1 0.7 0
0 0.75 0
0.05 0.75 0
0.1 0.75 0
0.15 0.75 0
0.2 0.75 0
0.25 0.75 0
0.3 0.75 0
0.35 0.75 0
0.4 0.75 0
0.45 0.75 0
0.5 0.75 0
0.55 0.75 0
0.6 0.75 0
0.65 0.75 0
0.7 0.75 0
0.75 0.75 0
0.8 0.75 0
0.85 0.75 0
0.9 0.75 0
0.95 0.75 0
1 0.75 0
0 0.8 0
0.05 0.8 0
0.1 0.8 0
0.15 0.8 0
0.2 0.8 0
0.25 0.8 0
0.3 0.8 0
0.35 0.8 0
0.4 0.8 0
0.45 0.8 0
0.5 0.8 0
0.55 0.8 0
0.6 0.8 0
0.65 0.8 0
0.7 0.8 0
0.75 0.8 0
0.8 0.8 0
0.85 0.8 0
0.9 0.8 0
0.95 0.8 0
1 0.8 0
0 0.85 0
0.05 0.85 0
0.1 0.85 0
0.15 0.85 0
0.2 0.85 0
0.25 0.85 0
0.3 0.85 0
0.35 0.85 0
0.4 0.85 0
0.45 0.85 0
0.5 0.85 0
0.55 0.85 0
0.6 0.85 0
0.65 0.85 0
0.7 0.85 0
0.75 0.85 0
0.8 0.85 0
0.85 0.85 0
0.9 0.85 0
0.95 0.85 0
1 0.85 0
0 0.9 0
0.05 0.9 0
0.1 0.9 0
0.15 0.9 0
0.2 0.9 0
0.25 0.9 0
0.3 0.9 0
0.35 0.9 0
0.4 0.9 0
0.45 0.9 0
0.5 0.9 0
0.55 0.9 0
0.6 0.9 0
0.65 0.9 0
0.7 0.9 0
0.75 0.9 0
0.8 0.9 0
0.85 0.9 0
0.9 0.9 0
0.95 0.9 0
1 0.9 0
0 0.95 0
0.05 0.95 0
0.1 0.95 0
0.15 0.95 0
0.2 0.95 0
0.25 0.95 0
0.3 0.95 0
0.35 0.95 0
0.4 0.95 0
0.45 0.95 0
0.5 0.95 0
0.55 0.95 0
0.6 0.95 0
0.65 0.95 0
0.7 0.95 0
0.75 0.95 0
0.8 0.95 0
0.85 0.95 0
0.9 0.95 0
0.95 0.95 0
1 0.95 0
0 1 0
0.05 1 0
0.1 1 0
0.15 1 0
0.2 1 0
0.25 1 0
0.3 1 0
0.35 1 0
0.4 1 0
0.45 1 0
0.5 1 0
0.55 1 0
0.6 1 0
0.65 1 0
0.7 1 0
0.75 1 0
0.8 1 0
0.85 1 0
0.9 1 0
0.95 1 0
1 1 0
CELLS 800 3200
3 0 1 22
3 0 22 21
3 1 2 23
3 1 23 22
3 2 3 24
3 2 24 23
3 3 4 25
3 3 25 24
3 4 5 26
3 4 26 25
3 5 6 27
3 5 27 26
3 6 7 28
3 6 28 27
3 7 8 29
3 7 29 28
3 8 9 30
3 8 30 29
3 9 10 31
3 9 31 30
3 10 11 32
3 10 32 31
3 11 12 33
3 11 33 32
3 12 13 34
3 12 34 33
3 13 14 35
3 13 35 34
3 14 15 36
3 14 36 35
3 15 16 37
3 15 37 36
3 16 17 38
3 16 38 37
3 17 18 39
3 17 39 38
3 18 19 40
3 18 40 39
3 19 20 41
3 19 41 40
3 21 22 43
3 21 43 42
3 22 23 44
3 22 44 43
3 23 24 45
3 23 45 44
3 24 25 46
3 24 46 45
3 25 26 47
3 25 47 46
3 26 27 48
3 26 48 47
3 27 28 49
3 27 49 48
3 28 29 50
3 28 50 49
3 29 30 51
3 29 51 50
3 30 31 52
3 30 52 51
3 31 32 53
3 31 53 52
3 32 33 54
3 32 54 53
3 33 34 55
3 33 55 54
3 34 35 56
3 34 56 55
3 35 36 57
3 35 57 56
3 36 37 58
3 36 58 57
3 37 38 59
3 37 59 58
3 38 39 60
3 38 60 59
3 39 40 61
3 39 61 60
3 40 41 62
3 40 62 61
3 42 43 64
3 42 64 63
3 43 44 65
3 43 65 64
3 44 45 66
3 44 66 65
3 45 46 67
3 45 67 66
3 46 47 68
3 46 68 67
3 47 48 69
3 47 69 68
3 48 49 70
3 48 70 69
3 49 50 71
3 49 71 70
3 50 51 72
3 50 72 71
3 51 52 73
3 51 73 72
3 52 53 74
3 52 74 73
3 53 54 75
3 53 75 74
3 54 55 76
3 54 76 75
3 55 56 77
3 55 77 76
3 56 57 78
3 56 78 77
3 57 58 79
3 57 79 78
3 58 59 80
3 58 80 79
3 59 60 81
3 59 81 80
3 60 61 82
3 60 82 81
3 61 62 83
3 61 83 82
3 63 64 85
3 63 85 84
3 64 65 86
3 64 86 85
3 65 66 87
3 65 87 86
3 66 67 88
3 66 88 87
3 67 68 89
3 67 89 88
3 68 69 90
3 68 90 89
3 69 70 91
3 69 91 90
3 70 71 92
3 70 92 91
3 71 72 93
3 71 93 92
3 72 73 94
3 72 94 93
3 73 74 95
3 73 95 94
3 74 75 96
3 74 96 95
3 75 76 97
3 75 97 96
3 76 77 98
3 76 98 97
3 77 78 99
3 77 99 98
3 78 79 100
3 78 100 99
3 79 80 101
3 79 101 100
3 80 81 102
3 80 102 101
3 81 82 103
3 81 103 102
3 82 83 104
3 82 104 103
3 84 85 106
3 84 106 105
3 85 86 107
3 85 107 106
3 86 87 108
3 86 108 107
3 87 88 109
3 87 109 108
3 88 89 110
3 88 110 109
3 89 90 111
3 89 111 110
3 90 91 112
3 90 112 111
3 91 92 113
3 91 113 112
3 92 93 114
3 92 114 113
3 93 94 115
3 93 115 114
3 94 95 116
3 94 116 115
3 95 96 117
3 95 117 116
3 96 97 118
3 96 118 117
3 97 98 119
3 97 119 118
3 98 99 120
3 98 120 119
3 99 100 121
3 99 121 120
3 100 101 122
3 100 122 121
3 101 102 123
3 101 123 122
3 102 103 124
3 102 124 123
3 103 104 125
3 103 125 124
3 105 106 127
3 105 127 126
3 106 107 128
3 106 128 127
3 107 108 129
3 107 129 128
3 108 109 130
3 108 130 129
3 109 110 131
3 109 131 130
3 110 111 132
3 110 132 131
3 111 112 133
3 111 133 132
3 112 113 134
3 112 134 133
3 113 114 135
3 113 135 134
3 114 115 136
3 114 136 135
3 115 116 137
3 115 137 136
3 116 117 138
3 116 138 137
3 117 118 139
3 117 139 138
3 118 119 140
3 118 140 139
3 119 120 141
3 119 141 140
3 120 121 142
3 120 142 141
3 121 122 143
3 121 143 142
3 122 123 144
3 122 144 143
3 123 124 145
3 123 145 144
3 124 125 146
3 124 146 145
3 126 127 148
3 126 148 147
3 127 128 149
3 127 149 148
3 128 129 150
3 128 150 149
3 129 130 151
3 129 151 150
3 130 131 152
3 130 152 151
3 131 132 153
3 131 153 152
3 132 133 154
3 132 154 153
3 133 134 155
3 133 155 154
3 134 135 156
3 134 156 155
3 135 136 157
3 135 157 156
3 136 137 158
3 136 158 157
3 137 138 159
3 137 159 158
3 138 139 160
3 138 160 159
3 139 140 161
3 139 161 160
3 140 141 162
3 140 162 161
3 141 142 163
3 141 163 162
3 142 143 164
3 142 164 163
3 143 144 165
3 143 165 164
3 144 145 166
3 144 166 165
3 145 146 167
3 145 167 166
3 147 148 169
3 147 169 168
3 148 149 170
3 148 170 169
3 149 150 171
3 149 171 170
3 150 151 172
3 150 172 171
3 151 152 173
3 151 173 172
3 152 153 174
3 152 174 173
3 153 154 175
3 153 175 174
3 154 155 176
3 154 176 175
3 155 156 177
3 155 177 176
3 156 157 178
3 156 178 177
3 157 158 179
3 157 179 178
3 158 159 180
3 158 180 179
3 159 160 181
3 159 181 180
3 160 161 182
3 160 182 181
3 161 162 183
3 161 183 182
3 162 163 184
3 162 184 183
3 163 164 185
3 163 185 184
3 164 165 186
3 164 186 185
3 165 166 187
3 165 187 186
3 166 167 188
3 166 188 187
3 168 169 190
3 168 190 189
3 169 170 191
3 169 191 190
3 170 171 192
3 170 192 191
3 171 172 193
3 171 193 192
3 172 173 194
3 172 194 193
3 173 174 195
3 173 195 194
3 174 175 196
3 174 196 195
3 175 176 197
3 175 197 196
3 176 177 198
3 176 198 197
3 177 178 199
3 177 199 198
3 178 179 200
3 178 200 199
3 179 180 201
3 179 201 200
3 180 181 202
3 180 202 201
3 181 182 203
3 181 203 202
3 182 183 204
3 182 204 203
3 183 184 205
3 183 205 204
3 184 185 206
3 184 206 205
3 185 186 207
3 185 207 206
3 186 187 208
3 186 208 207
3 187 188 209
3 187 209 208
3 189 190 211
3 189 211 210
3 190 191 212
3 190 212 211
3 191 192 213
3 191 213 212
3 192 193 214
3 192 214 213
3 193 194 215
3 193 215 214
3 194 195 216
3 194 216 215
3 195 196 217
3 195 217 216
3 196 197 218
3 196 218 217
3 197 198 219
3 197 219 218
3 198 199 220
3 198 220 219
3 199 200 221
3 199 221 220
3 200 201 222
3 200 222 221
3 201 202 223
3 201 223 222
3 202 203 224
3 202 224 223
3 203 204 225
3 203 225 224
3 204 205 226
3 204 226 225
3 205 206 227
3 205 227 226
3 206 207 228
3 206 228 227
3 207 208 229
3 207 229 228
3 208 209 230
3 208 230 229
3 210 211 232
3 210 232 231
3 211 212 233
3 211 233 232
3 212 213 234
3 212 234 233
3 213 214 235
3 213 235 234
3 214 215 236
3 214 236 235
3 215 216 237
3 215 237 236
3 216 217 238
3 216 238 237
3 217 218 239
3 217 239 238
3 218 219 240
3 218 240 239
3 219 220 241
3 219 241 240
3 220 221 242
3 220 242 241
3 221 222 243
3 221 243 242
3 222 223 244
3 222 244 243
3 223 224 245
3 223 245 244
3 224 225 246
3 224 246 245
3 225 226 247
3 225 247 246
3 226 227 248
3 226 248 247
3 227 228 249
3 227 249 248
3 228 229 250
3 228 250 249
3 229 230 251
3 229 251 250
3 231 232 253
3 231 253 252
3 232 233 254
3 232 254 253
3 233 234 255
3 233 255 254
3 234 235 256
3 234 256 255
3 235 236 257
3 235 257 256
3 236 237 258
3 236 258 257
3 237 238 259
3 237 259 258
3 238 239 260
3 238 260 259
3 239 240 261
3 239 261 260
3 240 241 262
3 240 262 261
3 241 242 263
3 241 263 262
3 242 243 264
3 242 264 263
3 243 244 265
3 243 265 264
3 244 245 266
3 244 266 265
3 245 246 267
3 245 267 266
3 246 247 268
3 246 268 267
3 247 248 269
3 247 269 268
3 248 249 270
3 248 270 269
3 249 250 271
3 249 271 270
3 250 251 272
3 250 272 271
3 252 253 274
3 252 274 273
3 253 254 275
3 253 275 274
3 254 255 276
3 254 276 275
3 255 256 277
3 255 277 276
3 256 257 278
3 256 278 277
3 257 258 279
3 257 279 278
3 258 259 280
3 258 280 279
3 259 260 281
3 259 281 280
3 260 261 282
3 260 282 281
3 261 262 283
3 261 283 282
3 262 263 284
3 262 284 283
3 263 264 285
3 263 285 284
3 264 265 286
3 264 286 285
3 265 266 287
3 265 287 286
3 266 267 288
3 266 288 287
3 267 268 289
3 267 289 288
3 268 269 290
3 268 290 289
3 269 270 291
3 269 291 290
3 270 271 292
3 270 292 291
3 271 272 293
3 271 293 292
3 273 274 295
3 273 295 294
3 274 275 296
3 274 296 295
3 275 276 297
3 275 297 296
3 276 277 298
3 276 298 297
3 277 278 299
3 277 299 298
3 278 279 300
3 278 300 299
3 279 280 301
3 279 301 300
3 280 281 302
3 280 302 301
3 281 282 303
3 281 303 302
3 282 283 304
3 282 304 303
3 283 284 305
3 283 305 304
3 284 285 306
3 284 306 305
3 285 286 307
3 285 307 306
3 286 287 308
3 286 308 307
3 287 288 309
3 287 309 308
3 288 289 310
3 288 310 309
3 289 290 311
3 289 311 310
3 290 291 312
3 290 312 311
3 291 292 313
3 291 313 312
3 292 293 314
3 292 314 313
3 294 295 316
3 294 316 315
3 295 296 317
3 295 317 316
3 296 297 318
3 296 318 317
3 297 298 319
3 297 319 318
3 298 299 320
3 298 320 319
3 299 300 321
3 299 321 320
3 300 301 322
3 300 322 321
3 301 302 323
3 301 323 322
3 302 303 324
3 302 324 323
3 303 304 325
3 303 325 324
3 304 305 326
3 304 326 325
3 305 306 327
3 305 327 326
3 306 307 328
3 306 328 327
3 307 308 329
3 307 329 328
3 308 309 330
3 308 330 329
3 309 310 331
3 309 331 330
3 310 311 332
3 310 332 331
3 311 312 333
3 311 333 332
3 312 313 334
3 312 334 333
3 313 314 335
3 313 335 334
3 315 316 337
3 315 337 336
3 316 317 338
3 316 338 337
3 317 318 339
3 317 339 338
3 318 319 340
3 318 340 339
3 319 320 341
3 319 341 340
3 320 321 342
3 320 342 341
3 321 322 343
3 321 343 342
3 322 323 344
3 322 344 343
3 323 324 345
3 323 345 344
3 324 325 346
3 324 346 345
3 325 326 347
3 325 347 346
3 326 327 348
3 326 348 347
3 327 328 349
3 327 349 348
3 328 329 350
3 328 350 349
3 329 330 351
3 329 351 350
3 330 331 352
3 330 352 351
3 331 332 353
3 331 353 352
3 332 333 354
3 332 354 353
3 333 334 355
3 333 355 354
3 334 335 356
3 334 356 355
3 336 337 358
3 336 358 357
3 337 338 359
3 337 359 358
3 338 339 360
3 338 360 359
3 339 340 361
3 339 361 360
3 340 341 362
3 340 362 361
3 341 342 363
3 341 363 362
3 342 343 364
3 342 364 363
3 343 344 365
3 343 365 364
3 344 345 366
3 344 366 365
3 345 346 367
3 345 367 366
3 346 347 368
3 346 368 367
3 347 348 369
3 347 369 368
3 348 349 370
3 348 370 369
3 349 350 371
3 349 371 370
3 350 351 372
3 350 372 371
3 351 352 373
3 351 373 372
3 352 353 374
3 352 374 373
3 353 354 375
3 353 375 374
3 354 355 376
3 354 376 375
3 355 356 377
3 355 377 376
3 357 358 379
3 357 379 378
3 358 359 380
3 358 380 379
3 359 360 381
3 359 381 380
3 360 361 382
3 360 382 381
3 361 362 383
3 361 383 382
3 362 363 384
3 362 384 383
3 363 364 385
3 363 385 384
3 364 365 386
3 364 386 385
3 365 366 387
3 365 387 386
3 366 367 388
3 366 388 387
3 367 368 389
3 367 389 388
3 368 369 390
3 368 390 389
3 369 370 391
3 369 391 390
3 370 371 392
3 370 392 391
3 371 372 393
3 371 393 392
3 372 373 394
3 372 394 393
3 373 374 395
3 373 395 394
3 374 375 396
3 374 396 395
3 375 376 397
3 375 397 396
3 376 377 398
3 376 398 397
3 378 379 400
3 378 400 399
3 379 380 401
3 379 401 400
3 380 381 402
3 380 402 401
3 381 382 403
3 381 403 402
3 382 383 404
3 382 404 403
3 383 384 405
3 383 405 404
3 384 385 406
3 384 406 405
3 385 386 407
3 385 407 406
3 386 387 408
3 386 408 407
3 387 388 409
3 387 409 408
3 388 389 410
3 388 410 409
3 389 390 411
3 389 411 410
3 390 391 412
3 390 412 411
3 391 392 413
3 391 413 412
3 392 393 414
3 392 414 413
3 393 394 415
3 393 415 414
3 394 395 416
3 394 416 415
3 395 396 417
3 395 417 416
3 396 397 418
3 396 418 417
3 397 398 419
3 397 419 418
3 399 400 421
3 399 421 420
3 400 401 422
3 400 422 421
3 401 402 423
3 401 423 422
3 402 403 424
3 402 424 423
3 403 404 425
3 403 425 424
3 404 405 426
3 404 426 425
3 405 406 427
3 405 427 426
3 406 407 428
3 406 428 427
3 407 408 429
3 407 429 428
3 408 409 430
3 408 430 429
3 409 410 431
3 409 431 430
3 410 411 432
3 410 432 431
3 411 412 433
3 411 433 432
3 412 413 434
3 412 434 433
3 413 414 435
3 413 435 434
3 414 415 436
3 414 436 435
3 415 416 437
3 415 437 436
3 416 417 438
3 416 438 437
3 417 418 439
3 417 439 438
3 418 419 440
3 418 440 439
CELL_TYPES 800
5
5
5
5
5
5
5
5
5
5
5
5
5
5
5
5
5
5
5
5
5
5
5
5
5
5
5
5
5
5
5
5
5
5
5
5
5
5
5
5
5
5
5
5
5
5
5
5
5
5
5
5
5
5
5
5
5
5
5
5
5
5
5
5
5
5
5
5
5
5
5
5
5
5
5
5
5
5
5
5
5
5
5
5
5
5
5
5
5
5
5
5
5
5
5
5
5
5
5
5
5
5
5
5
5
5
5
5
5
5
5
5
5
5
5
5
5
5
5
5
5
5
5
5
5
5
5
5
5
5
5
5
5
5
5
5
5
5
5
5
5
5
5
5
5
5
5
5
5
5
5
5
5
5
5
5
5
5
5
5
5
5
5
5
5
5
5
5
5
5
5
5
5
5
5
5
5
5
5
5
5
5
5
5
5
5
5
5
5
5
5
5
5
5
5
5
5
5
5
5
5
5
5
5
5
5
5
5
5
5
5
5
5
5
5
5
5
5
5
5
5
5
5
5
5
5
5
5
5
5
5
5
5
5
5
5
5
5
5
5
5
5
5
5
5
5
5
5
5
5
5
5
5
5
5
5
5
5
5
5
5
5
5
5
5
5
5
5
5
5
5
5
5
5
5
5
5
5
5
5
5
5
5
5
5
5
5
5
5
5
5
5
5
5
5
5
5
5
5
5
5
5
5
5
5
5
5
5
5
5
5
5
5
5
5
5
5
5
5
5
5
5
5
5
5
5
5
5
5
5
5
5
5
5
5
5
5
5
5
5
5
5
5
5
5
5
5
5
5
5
5
5
5
5
5
5
5
5
5
5
5
5
5
5
5
5
5
5
5
5
5
5
5
5
5
5
5
5
5
5
5
5
5
5
5
5
5
5
5
5
5
5
5
5
5
5
5
5
5
5
5
5
5
5
5
5
5
5
5
5
5
5
5
5
5
5
5
5
5
5
5
5
5
5
5
5
5
5
5
5
5
5
5
5
5
5
5
5
5
5
5
5
5
5
5
5
5
5
5
5
5
5
5
5
5
5
5
5
5
5
5
5
5
5
5
5
5
5
5
5
5
5
5
5
5
5
5
5
5
5
5
5
5
5
5
5
5
5
5
5
5
5
5
5
5
5
5
5
5
5
5
5
5
5
5
5
5
5
5
5
5
5
5
5
5
5
5
5
5
5
5
5
5
5
5
5
5
5
5
5
5
5
5
5
5
5
5
5
5
5
5
5
5
5
5
5
5
5
5
5
5
5
5
5
5
5
5
5
5
5
5
5
5
5
5
5
5
5
5
5
5
5
5
5
5
5
5
5
5
5
5
5
5
5
5
5
5
5
5
5
5
5
5
5
5
5
5
5
5
5
5
5
5
5
5
5
5
5
5
5
5
5
5
5
5
5
5
5
5
5
5
5
5
5
5
5
5
5
5
5
5
5
5
5
5
5
5
5
5
5
5
5
5
5
5
5
5
5
5
5
5
5
5
5
5
5
5
5
5
5
5
5
5
5
5
5
5
5
5
5
5
5
5
5
5
5
5
5
5
5
5
5
5
5
5
5
5
5
5
5
5
5
5
5
5
5
5
5
5
5
5
5
5
5
5
5
5
5
5
5
5
5
5
5
5
5
5
5
5
5
5
5
5
5
5
5
5
5
5
5
5
5
5
5
5
5
5
5
5
5
5
5
5
5
5
5
5
5
5
5
5
5
5
5
5
5
5
5
5
5
5
5
5
5
5
5
5
5
5
5
5
5
5
5
5
5
5
5
5
5
5
5
5
5
5
5
5
5
5
5
5
5
5
5
5
5
5
5
5
5
CELL_DATA 800
VECTORS Et double
-0.0392225 -0.0403945 0
-0.19687 0.0390152 0
-0.0381036 -0.0398219 0
-0.191306 0.0370526 0
-0.0360502 -0.0378946 0
-0.181271 0.0347787 0
-0.0331113 -0.0347622 0
-0.166887 0.032029 0
-0.0293577 -0.0305605 0
-0.148459 0.028766 0
-0.0248805 -0.0254347 0
-0.126415 0.0250082 0
-0.0197887 -0.0195457 0
-0.101285 0.020804 0
-0.0142068 -0.0130714 0
-0.0736817 0.0162199 0
-0.0082713 -0.00620378 0
-0.0442791 0.0113341 0
-0.00212792 0.000854687 0
-0.0137992 0.00623278 0
0.00407233 0.0078963 0
0.0170086 0.00100749 0
0.0101767 0.0147135 0
0.0473856 -0.00424735 0
0.0160346 0.0211042 0
0.0765827 -0.00943627 0
0.0215012 0.026877 0
0.103879 -0.0144648 0
0.0264409 0.0318552 0
0.128596 -0.0192418 0
0.0307311 0.0358793 0
0.15012 -0.0236823 0
0.0342649 0.0388061 0
0.167908 -0.0277117 0
0.0369538 0.0405027 0
0.181496 -0.0312722 0
0.0387302 0.0408242 0
0.190502 -0.0343342 0
0.0395484 0.0395484 0
0.194584 -0.0369221 0
-0.273284 -0.0380184 0
-0.421634 0.0364661 0
-0.265868 -0.0373496 0
-0.410401 0.0351133 0
-0.252152 -0.0355304 0
-0.3893 0.0331107 0
-0.232346 -0.0326284 0
-0.358765 0.0305289 0
-0.206886 -0.0287436 0
-0.319495 0.0274062 0
-0.17637 -0.0239995 0
-0.272424 0.023788 0
-0.141536 -0.0185404 0
-0.21869 0.0197332 0
-0.10323 -0.0125289 0
-0.159603 0.0153119 0
-0.062391 -0.00614236 0
-0.0966103 0.0106032 0
-0.0200202 0.000431318 0
-0.0312584 0.00569229 0
0.0228404 0.00699872 0
0.0348458 0.000668544 0
0.0651355 0.0133663 0
0.100075 -0.00437612 0
0.105822 0.0193459 0
0.16282 -0.00934899 0
0.143894 0.0247595 0
0.221531 -0.0141583 0
0.178409 0.029444 0
0.274756 -0.0187149 0
0.208506 0.0332545 0
0.321169 -0.0229348 0
0.233431 0.0360669 0
0.359609 -0.0267414 0
0.252541 0.0377812 0
0.389095 -0.0300687 0
0.265315 0.0383292 0
0.408851 -0.032863 0
0.271316 0.0377163 0
0.418304 -0.0350786 0
-0.491585 -0.0338318 0
-0.622659 0.0318789 0
-0.478674 -0.0331699 0
-0.606527 0.0308977 0
-0.45422 -0.0315769 0
-0.575652 0.0292141 0
-0.418738 -0.0290742 0
-0.530748 0.0269297 0
-0.373044 -0.0257255 0
-0.47288 0.0241164 0
-0.31823 -0.0216246 0
-0.403442 0.0208388 0
-0.255621 -0.0168893 0
-0.324122 0.0171643 0
-0.186744 -0.0116569 0
-0.236858 0.0131644 0
-0.113287 -0.00608 0
-0.143789 0.00891535 0
-0.0370512 -0.000321746 0
-0.047202 0.00449682 0
0.040088 0.00544883 0
0.0505283 -9.07434e-06 0
0.116231 0.0110622 0
0.146995 -0.00451886 0
0.189501 0.0163534 0
0.23982 -0.0089487 0
0.258088 0.0211672 0
0.326713 -0.0132154 0
0.320292 0.0253628 0
0.405523 -0.0172378 0
0.374569 0.0288181 0
0.474296 -0.0209373 0
0.419557 0.0314341 0
0.531316 -0.0242398 0
0.454116 0.0331418 0
0.575149 -0.0270756 0
0.477339 0.033913 0
0.604675 -0.0293772 0
0.488568 0.0337859 0
0.61912 -0.0310716 0
-0.682238 -0.0279365 0
-0.788894 0.0255102 0
-0.664697 -0.027417 0
-0.768823 0.0247736 0
-0.630986 -0.0261896 0
-0.729968 0.0234054 0
-0.581886 -0.024252 0
-0.673259 0.0214965 0
-0.518563 -0.0216378 0
-0.600063 0.0191246 0
-0.442543 -0.018409 0
-0.512159 0.0163603 0
-0.355675 -0.0146515 0
-0.411691 0.0132718 0
-0.26008 -0.0104703 0
-0.30112 0.00992743 0
-0.158103 -0.00598517 0
-0.18316 0.00639552 0
-0.0522462 -0.00132668 0
-0.0607089 0.00274507 0
0.0548859 0.00336878 0
0.0632199 -0.000954784 0
0.160655 0.00796363 0
0.185575 -0.00463488 0
0.262455 0.012324 0
0.303341 -0.00822633 0
0.357771 0.0163244 0
0.413613 -0.0116608 0
0.444246 0.0198524 0
0.513666 -0.0148707 0
0.519733 0.0228131 0
0.601023 -0.0177895 0
0.582351 0.0251333 0
0.673513 -0.0203519 0
0.630525 0.0267674 0
0.729328 -0.022493 0
0.663027 0.0277042 0
0.767063 -0.0241466 0
0.679004 0.0279757 0
0.785762 -0.0252409 0
-0.834771 -0.0205995 0
-0.911169 0.0177159 0
-0.81364 -0.0203389 0
-0.88831 0.0171456 0
-0.772625 -0.0196022 0
-0.843683 0.016082 0
-0.712706 -0.0183714 0
-0.778369 0.014599 0
-0.635329 -0.0166538 0
-0.693956 0.0127679 0
-0.542372 -0.0144797 0
-0.592504 0.0106551 0
-0.436105 -0.0119002 0
-0.476497 0.00832325 0
-0.319128 -0.00898355 0
-0.348781 0.00583081 0
-0.194312 -0.00581175 0
-0.212494 0.00323325 0
-0.0647231 -0.00247688 0
-0.0709867 0.000583378 0
0.0664501 0.000923014 0
0.0722577 -0.00206809 0
0.195978 0.00428807 0
0.213712 -0.004672 0
0.320668 0.00752084 0
0.349892 -0.0071802 0
0.437443 0.0105305 0
0.477439 -0.00954494 0
0.543418 0.0132368 0
0.593206 -0.0117184 0
0.635968 0.015574 0
0.694331 -0.0136519 0
0.712794 0.0174945 0
0.778311 -0.0152956 0
0.771977 0.0189718 0
0.843058 -0.0165977 0
0.81203 0.0200029 0
0.886957 -0.0175038 0
0.831935 0.0206089 0
0.908908 -0.0179566 0
-0.94078 -0.0121916 0
-0.982729 0.00893149 0
-0.917268 -0.0122719 0
-0.958375 0.00847892 0
-0.871277 -0.0121172 0
-0.91049 0.00771151 0
-0.80392 -0.0116946 0
-0.840235 0.00668688 0
-0.716833 -0.0109861 0
-0.749325 0.00546588 0
-0.612141 -0.00999069 0
-0.639986 0.00410596 0
-0.492407 -0.00872356 0
-0.514904 0.00265815 0
-0.360566 -0.00721443 0
-0.377151 0.00116635 0
-0.219859 -0.00550493 0
-0.230116 -0.00033214 0
-0.0737441 -0.00364567 0
-0.0774171 -0.00180563 0
0.0741832 -0.00169302 0
0.0771866 -0.00322682 0
0.22028 0.000294119 0
0.229888 -0.00457149 0
0.360947 0.00225778 0
0.376927 -0.00581718 0
0.492715 0.00414427 0
0.51468 -0.00694182 0
0.612332 0.00590749 0
0.63975 -0.00792233 0
0.716841 0.007512 0
0.749054 -0.00873331 0
0.803652 0.00893542 0
0.83989 -0.00934583 0
0.870608 0.0101695 0
0.910009 -0.00972667 0
0.916038 0.0112188 0
0.95767 -0.00983864 0
0.938801 0.0120954 0
0.981677 -0.00964311 0
-0.99442 -0.00315003 0
-0.999625 -0.000351985 0
-0.969856 -0.00361376 0
-0.975148 -0.000709571 0
-0.921479 -0.00408928 0
-0.926691 -0.0011857 0
-0.85046 -0.00452594 0
-0.85542 -0.00173543 0
-0.758532 -0.00487999 0
-0.76308 -0.00230644 0
-0.647946 -0.00511941 0
-0.651942 -0.00285202 0
-0.521416 -0.00522457 0
-0.524741 -0.00333598 0
-0.382051 -0.00518715 0
-0.38461 -0.00373333 0
-0.233279 -0.00500832 0
-0.234999 -0.00402923 0
-0.0787588 -0.00469675 0
-0.0795927 -0.00421719 0
0.0777052 -0.0042665 0
0.0777827 -0.00429727 0
0.232261 -0.00373468 0
0.233252 -0.00427397 0
0.3811 -0.00311913 0
0.382987 -0.00415429 0
0.520556 -0.00243598 0
0.523301 -0.00394556 0
0.64719 -0.00169716 0
0.650738 -0.00365334 0
0.757877 -0.000908063 0
0.762161 -0.0032793 0
0.849882 -6.56246e-05 0
0.854826 -0.00281919 0
0.920928 0.00084183 0
0.926446 -0.00226133 0
0.969246 0.00183048 0
0.975247 -0.00158674 0
0.993627 0.00290888 0
1 -0.000773393 0
-0.992741 0.00605546 0
-0.960924 -0.00961526 0
-0.968511 0.00520513 0
-0.937721 -0.00987057 0
-0.920459 0.00409484 0
-0.891405 -0.0100596 0
-0.849745 0.00280142 0
-0.823086 -0.0101365 0
-0.758099 0.00139551 0
-0.734447 -0.0100489 0
-0.647774 -6.22805e-05 0
-0.627682 -0.00975983 0
-0.521487 -0.00152058 0
-0.505427 -0.00925051 0
-0.382346 -0.00293588 0
-0.370701 -0.00851838 0
-0.233777 -0.00427134 0
-0.226823 -0.00757433 0
-0.0794371 -0.00549575 0
-0.0773412 -0.00644007 0
0.0768723 -0.00658247 0
0.0740642 -0.00514548 0
0.231303 -0.00750841 0
0.223665 -0.00372607 0
0.380052 -0.00825283 0
0.367778 -0.00222038 0
0.519456 -0.00879598 0
0.502857 -0.000667224 0
0.646082 -0.00911756 0
0.625581 0.000896966 0
0.756812 -0.00919471 0
0.732934 0.00244108 0
0.848918 -0.00899977 0
0.822282 0.00394238 0
0.920128 -0.00849828 0
0.891434 0.00538975 0
0.968676 -0.0076518 0
0.938688 0.00678635 0
0.993342 -0.00643975 0
0.962848 0.00814745 0
-0.935853 0.0149639 0
-0.868755 -0.0183394 0
-0.913334 0.0137503 0
-0.848208 -0.0184374 0
-0.868297 0.0120361 0
-0.806628 -0.0183561 0
-0.801822 0.00994026 0
-0.745043 -0.0179897 0
-0.715549 0.00755775 0
-0.66501 -0.0172683 0
-0.611613 0.00497157 0
-0.56853 -0.0161653 0
-0.492581 0.00225876 0
-0.457999 -0.0146834 0
-0.36139 -0.000507354 0
-0.336151 -0.0128458 0
-0.221275 -0.00325654 0
-0.205994 -0.0106918 0
-0.0756889 -0.0059218 0
-0.0707362 -0.00827268 0
0.0717837 -0.00843965 0
0.066289 -0.00564884 0
0.217511 -0.0107503 0
0.201708 -0.00288717 0
0.357906 -0.0127979 0
0.332187 -5.78334e-05 0
0.489513 -0.0145305 0
0.45452 0.00276872 0
0.609096 -0.0158993 0
0.565699 0.00552485 0
0.713717 -0.0168577 0
0.663001 0.0081491 0
0.800807 -0.0173576 0
0.744049 0.01059 0
0.868232 -0.0173419 0
0.806879 0.0128119 0
0.914335 -0.0167312 0
0.849983 0.0148037 0
0.93795 -0.0154313 0
0.872305 0.0165937 0
-0.826902 0.0231943 0
-0.728127 -0.0260338 0
-0.807435 0.0216076 0
-0.711695 -0.0258122 0
-0.767931 0.0193369 0
-0.677134 -0.0255487 0
-0.709373 0.0165415 0
-0.625646 -0.0248119 0
-0.633243 0.0133212 0
-0.558617 -0.0235134 0
-0.541449 0.00976776 0
-0.477747 -0.0216535 0
-0.436268 0.00597454 0
-0.385055 -0.0192656 0
-0.320305 0.00203756 0
-0.282837 -0.0164029 0
-0.196421 -0.00194582 0
-0.173619 -0.0131338 0
-0.0676704 -0.00587857 0
-0.0600945 -0.00953855 0
0.0627743 -0.00966574 0
0.0549387 -0.0057071 0
0.191701 -0.013216 0
0.168648 -0.00173572 0
0.315938 -0.0164434 0
0.278235 0.00227592 0
0.432428 -0.0192684 0
0.381007 0.00622789 0
0.538312 -0.0216194 0
0.474442 0.0100232 0
0.630992 -0.0234329 0
0.556253 0.0135709 0
0.708209 -0.0246522 0
0.624451 0.0167895 0
0.76809 -0.0252149 0
0.677409 0.0196122 0
0.809203 -0.0249995 0
0.713943 0.0220008 0
0.830548 -0.0235677 0
0.733506 0.0240018 0
-0.676121 0.023707 0
-0.578096 -0.0241728 0
-0.660967 0.0215011 0
-0.564605 -0.0259461 0
-0.62893 0.0189755 0
-0.537128 -0.0263419 0
-0.581151 0.0160543 0
-0.496307 -0.0258805 0
-0.518927 0.0127686 0
-0.443171 -0.0247101 0
-0.443841 0.00918576 0
-0.379053 -0.0228997 0
-0.357767 0.00538883 0
-0.305549 -0.0205076 0
-0.262839 0.00146832 0
-0.224481 -0.0175982 0
-0.161403 -0.00248188 0
-0.137851 -0.0142463 0
-0.0559612 -0.00636739 0
-0.0477963 -0.0105376 0
0.0508887 -0.0100958 0
0.0434625 -0.00656631 0
0.156515 -0.0135785 0
0.133679 -0.0024336 0
0.25832 -0.0167329 0
0.220633 0.00175557 0
0.3538 -0.0194843 0
0.302188 0.00589508 0
0.440612 -0.0217683 0
0.376344 0.00988031 0
0.516633 -0.0235342 0
0.441284 0.0136101 0
0.580018 -0.0247521 0
0.495429 0.0169874 0
0.629255 -0.0254322 0
0.537467 0.0199154 0
0.663254 -0.0256949 0
0.566391 0.0222815 0
0.681534 -0.0260674 0
0.581453 0.0238885 0
-0.533193 0.019177 0
-0.454657 -0.0193146 0
-0.520785 0.0173478 0
-0.443906 -0.0204733 0
-0.495467 0.0152649 0
-0.422235 -0.0208524 0
-0.457828 0.0128994 0
-0.390124 -0.0205472 0
-0.408823 0.0102676 0
-0.348354 -0.0196438 0
-0.349682 0.00741325 0
-0.297957 -0.0182055 0
-0.281878 0.00439563 0
-0.240182 -0.0162887 0
-0.207092 0.0012825 0
-0.176459 -0.0139516 0
-0.127172 -0.00185418 0
-0.10836 -0.0112583 0
-0.0440913 -0.00494115 0
-0.037567 -0.00828009 0
0.0401035 -0.00790621 0
0.0341766 -0.00509433 0
0.123339 -0.0106802 0
0.105104 -0.00178332 0
0.203568 -0.0131989 0
0.17347 0.00156758 0
0.278818 -0.0154052 0
0.237594 0.00487185 0
0.347243 -0.0172514 0
0.295902 0.00804343 0
0.40717 -0.0187031 0
0.346966 0.0109976 0
0.457141 -0.0197453 0
0.389534 0.0136507 0
0.495949 -0.0203937 0
0.422564 0.0159164 0
0.522665 -0.0207111 0
0.445233 0.0176968 0
0.5366 -0.020795 0
0.456928 0.0188679 0
-0.418735 0.0154694 0
-0.355659 -0.0154995 0
-0.408853 0.0140141 0
-0.347204 -0.0163204 0
-0.388912 0.0123278 0
-0.330219 -0.016611 0
-0.359349 0.0104175 0
-0.305088 -0.0163806 0
-0.320884 0.00830303 0
-0.272417 -0.0156686 0
-0.274469 0.00601823 0
-0.233006 -0.0145191 0
-0.221253 0.00360783 0
-0.187827 -0.0129782 0
-0.162556 0.00112345 0
-0.137995 -0.0110954 0
-0.0998248 -0.00137944 0
-0.0847408 -0.00892482 0
-0.034609 -0.00384387 0
-0.0293768 -0.00652557 0
0.0314847 -0.00621348 0
0.0267326 -0.0039615 0
0.0968287 -0.00843423 0
0.0822057 -0.00130005 0
0.159815 -0.0104562 0
0.135678 0.00138893 0
0.218897 -0.0122352 0
0.185833 0.00403454 0
0.272623 -0.0137354 0
0.231441 0.00656594 0
0.319678 -0.0149312 0
0.27138 0.00891308 0
0.35891 -0.0158109 0
0.304668 0.0110066 0
0.389358 -0.0163797 0
0.330483 0.0127768 0
0.410264 -0.0166572 0
0.348175 0.0141529 0
0.421061 -0.0166533 0
0.357274 0.0150663 0
-0.326777 0.0125187 0
-0.275831 -0.0125223 0
-0.319022 0.0113666 0
-0.269261 -0.0131297 0
-0.30343 0.0100095 0
-0.256075 -0.0133407 0
-0.280349 0.00846699 0
-0.236577 -0.01315 0
-0.250336 0.00676143 0
-0.211239 -0.0125757 0
-0.214127 0.00492191 0
-0.180678 -0.0116469 0
-0.172614 0.00298393 0
-0.145647 -0.0103993 0
-0.126823 0.000987847 0
-0.107008 -0.00887327 0
-0.077884 -0.00102299 0
-0.0657139 -0.00711365 0
-0.0270038 -0.00300397 0
-0.022783 -0.00516959 0
0.0245635 -0.00491083 0
0.0207273 -0.00309388 0
0.0755484 -0.00670114 0
0.0637457 -0.000942147 0
0.124696 -0.00833573 0
0.105213 0.00122811 0
0.170799 -0.00978013 0
0.14411 0.00335854 0
0.212723 -0.0110061 0
0.17948 0.0053909 0
0.249441 -0.0119931 0
0.210452 0.00726779 0
0.280048 -0.0127295 0
0.236262 0.00893321 0
0.303789 -0.0132124 0
0.256271 0.0103332 0
0.320066 -0.0134431 0
0.269974 0.0114179 0
0.328445 -0.0134159 0
0.277017 0.0121465 0
-0.252427 0.0102101 0
-0.210891 -0.0102224 0
-0.246426 0.00929156 0
-0.205868 -0.0106841 0
-0.234369 0.00819561 0
-0.195783 -0.0108351 0
-0.216534 0.00694375 0
-0.180874 -0.0106691 0
-0.193351 0.00555827 0
-0.1615 -0.0101955 0
-0.165385 0.00406462 0
-0.138137 -0.0094341 0
-0.133325 0.00249203 0
-0.111356 -0.00841221 0
-0.0979601 0.000872845 0
-0.0818178 -0.00716242 0
-0.0601631 -0.000758457 0
-0.0502492 -0.00572182 0
-0.0208653 -0.00236648 0
-0.0174282 -0.00413125 0
0.0189649 -0.00391609 0
0.0158368 -0.00243464 0
0.0583469 -0.00537361 0
0.0487267 -0.000678234 0
0.0963114 -0.00670789 0
0.0804318 0.00109025 0
0.131925 -0.00789146 0
0.110172 0.00282249 0
0.164311 -0.00890146 0
0.137215 0.00447047 0
0.192673 -0.00972048 0
0.160895 0.00598724 0
0.216313 -0.0103368 0
0.180627 0.0073279 0
0.234642 -0.0107436 0
0.195921 0.00845081 0
0.247201 -0.0109359 0
0.206393 0.00931979 0
0.25366 -0.0109065 0
0.211778 0.00990797 0
-0.191699 0.00843567 0
-0.157344 -0.00847559 0
-0.187144 0.00769227 0
-0.153603 -0.00883502 0
-0.177985 0.00679674 0
-0.146081 -0.00894318 0
-0.16444 0.00576906 0
-0.134959 -0.00879472 0
-0.146835 0.00462977 0
-0.120506 -0.0083952 0
-0.1256 0.00340115 0
-0.103076 -0.00775908 0
-0.101257 0.00210773 0
-0.083097 -0.00690769 0
-0.0744037 0.000776051 0
-0.0610602 -0.00586763 0
-0.0457027 -0.000565905 0
-0.0375082 -0.00466976 0
-0.0158609 -0.00188954 0
-0.0130211 -0.00334837 0
0.0143865 -0.00316653 0
0.011798 -0.00194044 0
0.0442949 -0.00436967 0
0.0363381 -0.00048487 0
0.0731279 -0.00547376 0
0.0599949 0.00097823 0
0.100176 -0.0064564 0
0.082186 0.0024084 0
0.124774 -0.00729863 0
0.102365 0.00376561 0
0.146315 -0.00798534 0
0.120034 0.00501117 0
0.164267 -0.00850527 0
0.134758 0.00610869 0
0.178186 -0.00885023 0
0.14617 0.0070254 0
0.18772 -0.00901362 0
0.153986 0.00773397 0
0.192627 -0.00898866 0
0.15801 0.00821493 0
-0.141326 0.00710578 0
-0.112303 -0.00718757 0
-0.137976 0.00648958 0
-0.109645 -0.00747622 0
-0.131229 0.00574251 0
-0.104283 -0.00755529 0
-0.121246 0.00488237 0
-0.0963478 -0.00741998 0
-0.108269 0.00392741 0
-0.0860346 -0.00707416 0
-0.092617 0.00289709 0
-0.073596 -0.0065292 0
-0.0746725 0.00181231 0
-0.0593375 -0.00580251 0
-0.0548774 0.000695347 0
-0.0436097 -0.00491642 0
-0.0337192 -0.000430557 0
-0.0267998 -0.00389712 0
-0.0117188 -0.00154176 0
-0.0093217 -0.00277397 0
0.0105819 -0.00261488 0
0.00839419 -0.00157868 0
0.0326337 -0.00362748 0
0.0259117 -0.000344675 0
0.0538937 -0.00455867 0
0.0427994 0.000893692 0
0.0738386 -0.00538975 0
0.0586414 0.00210185 0
0.0919772 -0.00610466 0
0.0730477 0.0032458 0
0.107862 -0.00669017 0
0.0856629 0.00429296 0
0.121102 -0.00713585 0
0.0961757 0.00521311 0
0.131367 -0.00743357 0
0.104326 0.00597953 0
0.138401 -0.0075765 0
0.109912 0.00657048 0
0.142027 -0.00755826 0
0.112796 0.00697082 0
-0.0985923 0.00615041 0
-0.0733413 -0.0062887 0
-0.096269 0.005621 0
-0.0716201 -0.00653237 0
-0.0915705 0.00497808 0
-0.068127 -0.00659376 0
-0.084612 0.00423717 0
-0.0629508 -0.00646825 0
-0.0755638 0.00341423 0
-0.0562197 -0.00615925 0
-0.0646475 0.00252623 0
-0.0480995 -0.00567663 0
-0.0521313 0.00159133 0
-0.0387899 -0.00503556 0
-0.038323 0.00062867 0
-0.02852 -0.0042555 0
-0.0235625 -0.000341869 0
-0.0175425 -0.00335952 0
-0.0082132 -0.00130016 0
-0.0061277 -0.00237348 0
0.00734684 -0.00222633 0
0.0054433 -0.00132543 0
0.0227345 -0.00310129 0
0.0168856 -0.000244902 0
0.0375709 -0.00390724 0
0.0279174 0.000837791 0
0.0514907 -0.00462816 0
0.0382671 0.00189222 0
0.0641511 -0.00525009 0
0.0476797 0.00288861 0
0.0752398 -0.00576141 0
0.0559232 0.00379859 0
0.0844831 -0.00615275 0
0.0627943 0.00459605 0
0.0916524 -0.00641671 0
0.068124 0.00525809 0
0.0965699 -0.0065471 0
0.0717816 0.00576619 0
0.0991137 -0.0065376 0
0.0736797 0.00610754 0
-0.0611948 0.00551638 0
-0.0383599 -0.00573042 0
-0.0597712 0.00503842 0
-0.0374767 -0.00595401 0
-0.0568671 0.00446151 0
-0.0356601 -0.00600771 0
-0.0525568 0.00379826 0
-0.0329607 -0.00588856 0
-0.0469473 0.00306236 0
-0.0294467 -0.00560112 0
-0.0401767 0.00226876 0
-0.0252051 -0.00515518 0
-0.0324115 0.00143357 0
-0.0203405 -0.00456489 0
-0.0238428 0.00057382 0
-0.0149725 -0.00384818 0
-0.0146813 -0.000292881 0
-0.00923328 -0.00302625 0
-0.00515281 -0.00114874 0
-0.00326416 -0.00212289 0
0.00450818 -0.00197622 0
0.00278789 -0.00116388 0
0.0140637 -0.00275848 0
0.00877385 -0.000176372 0
0.0232786 -0.00347977 0
0.0145463 0.000811798 0
0.0319258 -0.00412589 0
0.0199631 0.00177275 0
0.0397923 -0.00468443 0
0.0248909 0.00267928 0
0.0466842 -0.00514502 0
0.0292081 0.00350555 0
0.0524317 -0.00549944 0
0.0328086 0.00422782 0
0.056893 -0.0057416 0
0.0356042 0.00482519 0
0.0599592 -0.00586711 0
0.0375276 0.00528035 0
0.0615572 -0.00587125 0
0.0385371 0.00558061 0
-0.0271199 0.00516249 0
-0.00548261 -0.00548261 0
-0.0265129 0.00470536 0
-0.00536979 -0.00571687 0
-0.0252425 0.00416176 0
-0.00512471 -0.00577044 0
-0.0233456 0.00353991 0
-0.00475348 -0.00565259 0
-0.0208706 0.00285145 0
-0.0042653 -0.0053715 0
-0.017879 0.00210995 0
-0.00367222 -0.00493783 0
-0.0144444 0.0013303 0
-0.00298885 -0.00436565 0
-0.0106514 0.000528285 0
-0.00223201 -0.00367244 0
-0.00659327 -0.000279785 0
-0.00142035 -0.00287867 0
-0.00237002 -0.00107745 0
-0.000573827 -0.00200731 0
0.00191441 -0.00184851 0
0.000286697 -0.00108326 0
0.0061545 -0.00257739 0
0.00114004 -0.000132706 0
0.0102459 -0.00324959 0
0.00196518 0.000817522 0
0.0140877 -0.00385196 0
0.00274181 0.00174059 0
0.0175854 -0.00437307 0
0.0034508 0.00261035 0
0.0206528 -0.00480342 0
0.00407468 0.00340199 0
0.0232143 -0.00513576 0
0.00459811 0.00409269 0
0.0252074 -0.00536556 0
0.00500821 0.00466211 0
0.0265844 -0.00549227 0
0.00529492 0.00509263 0
0.0273171 -0.00552296 0
0.00545126 0.00536869 0
