# vtk DataFile Version 3.0
tp3485 cell-vector
ASCII
DATASET UNSTRUCTURED_GRID
POINTS 441 double
0 0 0
0.05 0 0
0.1 0 0
0.15 0 0
0.2 0 0
0.25 0 0
0.3 0 0
0.35 0 0
0.4 0 0
0.45 0 0
0.5 0 0
0.55 0 0
0.6 0 0
0.65 0 0
0.7 0 0
0.75 0 0
0.8 0 0
0.85 0 0
0.9 0 0
0.95 0 0
1 0 0
0 0.05 0
0.05 0.05 0
0.1 0.05 0
0.15 0.05 0
0.2 0.05 0
0.25 0.05 0
0.3 0.05 0
0.35 0.05 0
0.4 0.05 0
0.45 0.05 0
0.5 0.05 0
0.55 0.05 0
0.6 0.05 0
0.65 0.05 0
0.7 0.05 0
0.75 0.05 0
0.8 0.05 0
0.85 0.05 0
0.9 0.05 0
0.95 0.05 0
1 0.05 0
0 0.1 0
0.05 0.1 0
0.1 0.1 0
0.15 0.1 0
0.2 0.1 0
0.25 0.1 0
0.3 0.1 0
0.35 0.1 0
0.4 0.1 0
0.45 0.1 0
0.5 0.1 0
0.55 0.1 0
0.6 0.1 0
0.65 0.1 0
0.7 0.1 0
0.75 0.1 0
0.8 0.1 0
0.85 0.1 0
0.9 0.1 0
0.95 0.1 0
1 0.1 0
0 0.15 0
0.05 0.15 0
0.1 0.15 0
0.15 0.15 0
0.2 0.15 0
0.25 0.15 0
0.3 0.15 0
0.35 0.15 0
0.4 0.15 0
0.45 0.15 0
0.5 0.15 0
0.55 0.15 0
0.6 0.15 0
0.65 0.15 0
0.7 0.15 0
0.75 0.15 0
0.8 0.15 0
0.85 0.15 0
0.9 0.15 0
0.95 0.15 0
1 0.15 0
0 0.2 0
0.05 0.2 0
0.1 0.2 0
0.15 0.2 0
0.2 0.2 0
0.25 0.2 0
0.3 0.2 0
0.35 0.2 0
0.4 0.2 0
0.45 0.2 0
0.5 0.2 0
0.55 0.2 0
0.6 0.2 0
0.65 0.2 0
0.7 0.2 0
0.75 0.2 0
0.8 0.2 0
0.85 0.2 0
0.9 0.2 0
0.95 0.2 0
1 0.2 0
0 0.25 0
0.05 0.25 0
0.1 0.25 0
0.15 0.25 0
0.2 0.25 0
0.25 0.25 0
0.3 0.25 0
0.35 0.25 0
0.4 0.25 0
0.45 0.25 0
0.5 0.25 0
0.55 0.25 0
0.6 0.25 0
0.65 0.25 0
0.7 0.25 0
0.75 0.25 0
0.8 0.25 0
0.85 0.25 0
0.9 0.25 0
0.95 0.25 0
1 0.25 0
0 0.3 0
0.05 0.3 0
0.1 0.3 0
0.15 0.3 0
0.2 0.3 0
0.25 0.3 0
0.3 0.3 0
0.35 0.3 0
0.4 0.3 0
0.45 0.3 0
0.5 0.3 0
0.55 0.3 0
0.6 0.3 0
0.65 0.3 0
0.7 0.3 0
0.75 0.3 0
0.8 0.3 0
0.85 0.3 0
0.9 0.3 0
0.95 0.3 0
1 0.3 0
0 0.35 0
0.05 0.35 0
0.1 0.35 0
0.15 0.35 0
0.2 0.35 0
0.25 0.35 0
0.3 0.35 0
0.35 0.35 0
0.4 0.35 0
0.45 0.35 0
0.5 0.35 0
0.55 0.35 0
0.6 0.35 0
0.65 0.35 0
0.7 0.35 0
0.75 0.35 0
0.8 0.35 0
0.85 0.35 0
0.9 0.35 0
0.95 0.35 0
1 0.35 0
0 0.4 0
0.05 0.4 0
0.1 0.4 0
0.15 0.4 0
0.2 0.4 0
0.25 0.4 0
0.3 0.4 0
0.35 0.4 0
0.4 0.4 0
0.45 0.4 0
0.5 0.4 0
0.55 0.4 0
0.6 0.4 0
0.65 0.4 0
0.7 0.4 0
0.75 0.4 0
0.8 0.4 0
0.85 0.4 0
0.9 0.4 0
0.95 0.4 0
1 0.4 0
0 0.45 0
0.05 0.45 0
0.1 0.45 0
0.15 0.45 0
0.2 0.45 0
0.25 0.45 0
0.3 0.45 0
0.35 0.45 0
0.4 0.45 0
0.45 0.45 0
0.5 0.45 0
0.55 0.45 0
0.6 0.45 0
0.65 0.45 0
0.7 0.45 0
0.75 0.45 0
0.8 0.45 0
0.85 0.45 0
0.9 0.45 0
0.95 0.45 0
1 0.45 0
0 0.5 0
0.05 0.5 0
0.1 0.5 0
0.15 0.5 0
0.2 0.5 0
0.25 0.5 0
0.3 0.5 0
0.35 0.5 0
0.4 0.5 0
0.45 0.5 0
0.5 0.5 0
0.55 0.5 0
0.6 0.5 0
0.65 0.5 0
0.7 0.5 0
0.75 0.5 0
0.8 0.5 0
0.85 0.5 0
0.9 0.5 0
0.95 0.5 0
1 0.5 0
0 0.55 0
0.05 0.55 0
0.1 0.55 0
0.15 0.55 0
0.2 0.55 0
0.25 0.55 0
0.3 0.55 0
0.35 0.55 0
0.4 0.55 0
0.45 0.55 0
0.5 0.55 0
0.55 0.55 0
0.6 0.55 0
0.65 0.55 0
0.7 0.55 0
0.75 0.55 0
0.8 0.55 0
0.85 0.55 0
0.9 0.55 0
0.95 0.55 0
1 0.55 0
0 0.6 0
0.05 0.6 0
0.1 0.6 0
0.15 0.6 0
0.2 0.6 0
0.25 0.6 0
0.3 0.6 0
0.35 0.6 0
0.4 0.6 0
0.45 0.6 0
0.5 0.6 0
0.55 0.6 0
0.6 0.6 0
0.65 0.6 0
0.7 0.6 0
0.75 0.6 0
0.8 0.6 0
0.85 0.6 0
0.9 0.6 0
0.95 0.6 0
1 0.6 0
0 0.65 0
0.05 0.65 0
0.1 0.65 0
0.15 0.65 0
0.2 0.65 0
0.25 0.65 0
0.3 0.65 0
0.35 0.65 0
0.4 0.65 0
0.45 0.65 0
0.5 0.65 0
0.55 0.65 0
0.6 0.65 0
0.65 0.65 0
0.7 0.65 0
0.75 0.65 0
0.8 0.65 0
0.85 0.65 0
0.9 0.65 0
0.95 0.65 0
1 0.65 0
0 0.7 0
0.05 0.7 0
0.1 0.7 0
0.15 0.7 0
0.2 0.7 0
0.25 0.7 0
0.3 0.7 0
0.35 0.7 0
0.4 0.7 0
0.45 0.7 0
0.5 0.7 0
0.55 0.7 0
0.6 0.7 0
0.65 0.7 0
0.7 0.7 0
0.75 0.7 0
0.8 0.7 0
0.85 0.7 0
0.9 0.7 0
0.95 0.7 0
1 0.7 0
0 0.75 0
0.05 0.75 0
0.1 0.75 0
0.15 0.75 0
0.2 0.75 0
0.25 0.75 0
0.3 0.75 0
0.35 0.75 0
0.4 0.75 0
0.45 0.75 0
0.5 0.75 0
0.55 0.75 0
0.6 0.75 0
0.65 0.75 0
0.7 0.75 0
0.75 0.75 0
0.8 0.75 0
0.85 0.75 0
0.9 0.75 0
0.95 0.75 0
1 0.75 0
0 0.8 0
0.05 0.8 0
0.1 0.8 0
0.15 0.8 0
0.2 0.8 0
0.25 0.8 0
0.3 0.8 0
0.35 0.8 0
0.4 0.8 0
0.45 0.8 0
0.5 0.8 0
0.55 0.8 0
0.6 0.8 0
0.65 0.8 0
0.7 0.8 0
0.75 0.8 0
0.8 0.8 0
0.85 0.8 0
0.9 0.8 0
0.95 0.8 0
1 0.8 0
0 0.85 0
0.05 0.85 0
0.1 0.85 0
0.15 0.85 0
0.2 0.85 0
0.25 0.85 0
0.3 0.85 0
0.35 0.85 0
0.4 0.85 0
0.45 0.85 0
0.5 0.85 0
0.55 0.85 0
0.6 0.85 0
0.65 0.85 0
0.7 0.85 0
0.75 0.85 0
0.8 0.85 0
0.85 0.85 0
0.9 0.85 0
0.95 0.85 0
1 0.85 0
0 0.9 0
0.05 0.9 0
0.1 0.9 0
0.15 0.9 0
0.2 0.9 0
0.25 0.9 0
0.3 0.9 0
0.35 0.9 0
0.4 0.9 0
0.45 0.9 0
0.5 0.9 0
0.55 0.9 0
0.6 0.9 0
0.65 0.9 0
0.7 0.9 0
0.75 0.9 0
0.8 0.9 0
0.85 0.9 0
0.9 0.9 0
0.95 0.9 0
1 0.9 0
0 0.95 0
0.05 0.95 0
0.1 0.95 0
0.15 0.95 0
0.2 0.95 0
0.25 0.95 0
0.3 0.95 0
0.35 0.95 0
0.4 0.95 0
0.45 0.95 0
0.5 0.95 0
0.55 0.95 0
0.6 0.95 0
0.65 0.95 0
0.7 0.95 0
0.75 0.95 0
0.8 0.95 0
0.85 0.95 0
0.9 0.95 0
0.95 0.95 0
1 0.95 0
0 1 0
0.05 1 0
0.1 1 0
0.15 1 0
0.2 1 0
0.25 1 0
0.3 1 0
0.35 1 0
0.4 1 0
0.45 1 0
0.5 1 0
0.55 1 0
0.6 1 0
0.65 1 0
0.7 1 0
0.75 1 0
0.8 1 0
0.85 1 0
0.9 1 0
0.95 1 0
1 1 0
CELLS 800 3200
3 0 1 22
3 0 22 21
3 1 2 23
3 1 23 22
3 2 3 24
3 2 24 23
3 3 4 25
3 3 25 24
3 4 5 26
3 4 26 25
3 5 6 27
3 5 27 26
3 6 7 28
3 6 28 27
3 7 8 29
3 7 29 28
3 8 9 30
3 8 30 29
3 9 10 31
3 9 31 30
3 10 11 32
3 10 32 31
3 11 12 33
3 11 33 32
3 12 13 34
3 12 34 33
3 13 14 35
3 13 35 34
3 14 15 36
3 14 36 35
3 15 16 37
3 15 37 36
3 16 17 38
3 16 38 37
3 17 18 39
3 17 39 38
3 18 19 40
3 18 40 39
3 19 20 41
3 19 41 40
3 21 22 43
3 21 43 42
3 22 23 44
3 22 44 43
3 23 24 45
3 23 45 44
3 24 25 46
3 24 46 45
3 25 26 47
3 25 47 46
3 26 27 48
3 26 48 47
3 27 28 49
3 27 49 48
3 28 29 50
3 28 50 49
3 29 30 51
3 29 51 50
3 30 31 52
3 30 52 51
3 31 32 53
3 31 53 52
3 32 33 54
3 32 54 53
3 33 34 55
3 33 55 54
3 34 35 56
3 34 56 55
3 35 36 57
3 35 57 56
3 36 37 58
3 36 58 57
3 37 38 59
3 37 59 58
3 38 39 60
3 38 60 59
3 39 40 61
3 39 61 60
3 40 41 62
3 40 62 61
3 42 43 64
3 42 64 63
3 43 44 65
3 43 65 64
3 44 45 66
3 44 66 65
3 45 46 67
3 45 67 66
3 46 47 68
3 46 68 67
3 47 48 69
3 47 69 68
3 48 49 70
3 48 70 69
3 49 50 71
3 49 71 70
3 50 51 72
3 50 72 71
3 51 52 73
3 51 73 72
3 52 53 74
3 52 74 73
3 53 54 75
3 53 75 74
3 54 55 76
3 54 76 75
3 55 56 77
3 55 77 76
3 56 57 78
3 56 78 77
3 57 58 79
3 57 79 78
3 58 59 80
3 58 80 79
3 59 60 81
3 59 81 80
3 60 61 82
3 60 82 81
3 61 62 83
3 61 83 82
3 63 64 85
3 63 85 84
3 64 65 86
3 64 86 85
3 65 66 87
3 65 87 86
3 66 67 88
3 66 88 87
3 67 68 89
3 67 89 88
3 68 69 90
3 68 90 89
3 69 70 91
3 69 91 90
3 70 71 92
3 70 92 91
3 71 72 93
3 71 93 92
3 72 73 94
3 72 94 93
3 73 74 95
3 73 95 94
3 74 75 96
3 74 96 95
3 75 76 97
3 75 97 96
3 76 77 98
3 76 98 97
3 77 78 99
3 77 99 98
3 78 79 100
3 78 100 99
3 79 80 101
3 79 101 100
3 80 81 102
3 80 102 101
3 81 82 103
3 81 103 102
3 82 83 104
3 82 104 103
3 84 85 106
3 84 106 105
3 85 86 107
3 85 107 106
3 86 87 108
3 86 108 107
3 87 88 109
3 87 109 108
3 88 89 110
3 88 110 109
3 89 90 111
3 89 111 110
3 90 91 112
3 90 112 111
3 91 92 113
3 91 113 112
3 92 93 114
3 92 114 113
3 93 94 115
3 93 115 114
3 94 95 116
3 94 116 115
3 95 96 117
3 95 117 116
3 96 97 118
3 96 118 117
3 97 98 119
3 97 119 118
3 98 99 120
3 98 120 119
3 99 100 121
3 99 121 120
3 100 101 122
3 100 122 121
3 101 102 123
3 101 123 122
3 102 103 124
3 102 124 123
3 103 104 125
3 103 125 124
3 105 106 127
3 105 127 126
3 106 107 128
3 106 128 127
3 107 108 129
3 107 129 128
3 108 109 130
3 108 130 129
3 109 110 131
3 109 131 130
3 110 111 132
3 110 132 131
3 111 112 133
3 111 133 132
3 112 113 134
3 112 134 133
3 113 114 135
3 113 135 134
3 114 115 136
3 114 136 135
3 115 116 137
3 115 137 136
3 116 117 138
3 116 138 137
3 117 118 139
3 117 139 138
3 118 119 140
3 118 140 139
3 119 120 141
3 119 141 140
3 120 121 142
3 120 142 141
3 121 122 143
3 121 143 142
3 122 123 144
3 122 144 143
3 123 124 145
3 123 145 144
3 124 125 146
3 124 146 145
3 126 127 148
3 126 148 147
3 127 128 149
3 127 149 148
3 128 129 150
3 128 150 149
3 129 130 151
3 129 151 150
3 130 131 152
3 130 152 151
3 131 132 153
3 131 153 152
3 132 133 154
3 132 154 153
3 133 134 155
3 133 155 154
3 134 135 156
3 134 156 155
3 135 136 157
3 135 157 156
3 136 137 158
3 136 158 157
3 137 138 159
3 137 159 158
3 138 139 160
3 138 160 159
3 139 140 161
3 139 161 160
3 140 141 162
3 140 162 161
3 141 142 163
3 141 163 162
3 142 143 164
3 142 164 163
3 143 144 165
3 143 165 164
3 144 145 166
3 144 166 165
3 145 146 167
3 145 167 166
3 147 148 169
3 147 169 168
3 148 149 170
3 148 170 169
3 149 150 171
3 149 171 170
3 150 151 172
3 150 172 171
3 151 152 173
3 151 173 172
3 152 153 174
3 152 174 173
3 153 154 175
3 153 175 174
3 154 155 176
3 154 176 175
3 155 156 177
3 155 177 176
3 156 157 178
3 156 178 177
3 157 158 179
3 157 179 178
3 158 159 180
3 158 180 179
3 159 160 181
3 159 181 180
3 160 161 182
3 160 182 181
3 161 162 183
3 161 183 182
3 162 163 184
3 162 184 183
3 163 164 185
3 163 185 184
3 164 165 186
3 164 186 185
3 165 166 187
3 165 187 186
3 166 167 188
3 166 188 187
3 168 169 190
3 168 190 189
3 169 170 191
3 169 191 190
3 170 171 192
3 170 192 191
3 171 172 193
3 171 193 192
3 172 173 194
3 172 194 193
3 173 174 195
3 173 195 194
3 174 175 196
3 174 196 195
3 175 176 197
3 175 197 196
3 176 177 198
3 176 198 197
3 177 178 199
3 177 199 198
3 178 179 200
3 178 200 199
3 179 180 201
3 179 201 200
3 180 181 202
3 180 202 201
3 181 182 203
3 181 203 202
3 182 183 204
3 182 204 203
3 183 184 205
3 183 205 204
3 184 185 206
3 184 206 205
3 185 186 207
3 185 207 206
3 186 187 208
3 186 208 207
3 187 188 209
3 187 209 208
3 189 190 211
3 189 211 210
3 190 191 212
3 190 212 211
3 191 192 213
3 191 213 212
3 192 193 214
3 192 214 213
3 193 194 215
3 193 215 214
3 194 195 216
3 194 216 215
3 195 196 217
3 195 217 216
3 196 197 218
3 196 218 217
3 197 198 219
3 197 219 218
3 198 199 220
3 198 220 219
3 199 200 221
3 199 221 220
3 200 201 222
3 200 222 221
3 201 202 223
3 201 223 222
3 202 203 224
3 202 224 223
3 203 204 225
3 203 225 224
3 204 205 226
3 204 226 225
3 205 206 227
3 205 227 226
3 206 207 228
3 206 228 227
3 207 208 229
3 207 229 228
3 208 209 230
3 208 230 229
3 210 211 232
3 210 232 231
3 211 212 233
3 211 233 232
3 212 213 234
3 212 234 233
3 213 214 235
3 213 235 234
3 214 215 236
3 214 236 235
3 215 216 237
3 215 237 236
3 216 217 238
3 216 238 237
3 217 218 239
3 217 239 238
3 218 219 240
3 218 240 239
3 219 220 241
3 219 241 240
3 220 221 242
3 220 242 241
3 221 222 243
3 221 243 242
3 222 223 244
3 222 244 243
3 223 224 245
3 223 245 244
3 224 225 246
3 224 246 245
3 225 226 247
3 225 247 246
3 226 227 248
3 226 248 247
3 227 228 249
3 227 249 248
3 228 229 250
3 228 250 249
3 229 230 251
3 229 251 250
3 231 232 253
3 231 253 252
3 232 233 254
3 232 254 253
3 233 234 255
3 233 255 254
3 234 235 256
3 234 256 255
3 235 236 257
3 235 257 256
3 236 237 258
3 236 258 257
3 237 238 259
3 237 259 258
3 238 239 260
3 238 260 259
3 239 240 261
3 239 261 260
3 240 241 262
3 240 262 261
3 241 242 263
3 241 263 262
3 242 243 264
3 242 264 263
3 243 244 265
3 243 265 264
3 244 245 266
3 244 266 265
3 245 246 267
3 245 267 266
3 246 247 268
3 246 268 267
3 247 248 269
3 247 269 268
3 248 249 270
3 248 270 269
3 249 250 271
3 249 271 270
3 250 251 272
3 250 272 271
3 252 253 274
3 252 274 273
3 253 254 275
3 253 275 274
3 254 255 276
3 254 276 275
3 255 256 277
3 255 277 276
3 256 257 278
3 256 278 277
3 257 258 279
3 257 279 278
3 258 259 280
3 258 280 279
3 259 260 281
3 259 281 280
3 260 261 282
3 260 282 281
3 261 262 283
3 261 283 282
3 262 263 284
3 262 284 283
3 263 264 285
3 263 285 284
3 264 265 286
3 264 286 285
3 265 266 287
3 265 287 286
3 266 267 288
3 266 288 287
3 267 268 289
3 267 289 288
3 268 269 290
3 268 290 289
3 269 270 291
3 269 291 290
3 270 271 292
3 270 292 291
3 271 272 293
3 271 293 292
3 273 274 295
3 273 295 294
3 274 275 296
3 274 296 295
3 275 276 297
3 275 297 296
3 276 277 298
3 276 298 297
3 277 278 299
3 277 299 298
3 278 279 300
3 278 300 299
3 279 280 301
3 279 301 300
3 280 281 302
3 280 302 301
3 281 282 303
3 281 303 302
3 282 283 304
3 282 304 303
3 283 284 305
3 283 305 304
3 284 285 306
3 284 306 305
3 285 286 307
3 285 307 306
3 286 287 308
3 286 308 307
3 287 288 309
3 287 309 308
3 288 289 310
3 288 310 309
3 289 290 311
3 289 311 310
3 290 291 312
3 290 312 311
3 291 292 313
3 291 313 312
3 292 293 314
3 292 314 313
3 294 295 316
3 294 316 315
3 295 296 317
3 295 317 316
3 296 297 318
3 296 318 317
3 297 298 319
3 297 319 318
3 298 299 320
3 298 320 319
3 299 300 321
3 299 321 320
3 300 301 322
3 300 322 321
3 301 302 323
3 301 323 322
3 302 303 324
3 302 324 323
3 303 304 325
3 303 325 324
3 304 305 326
3 304 326 325
3 305 306 327
3 305 327 326
3 306 307 328
3 306 328 327
3 307 308 329
3 307 329 328
3 308 309 330
3 308 330 329
3 309 310 331
3 309 331 330
3 310 311 332
3 310 332 331
3 311 312 333
3 311 333 332
3 312 313 334
3 312 334 333
3 313 314 335
3 313 335 334
3 315 316 337
3 315 337 336
3 316 317 338
3 316 338 337
3 317 318 339
3 317 339 338
3 318 319 340
3 318 340 339
3 319 320 341
3 319 341 340
3 320 321 342
3 320 342 341
3 321 322 343
3 321 343 342
3 322 323 344
3 322 344 343
3 323 324 345
3 323 345 344
3 324 325 346
3 324 346 345
3 325 326 347
3 325 347 346
3 326 327 348
3 326 348 347
3 327 328 349
3 327 349 348
3 328 329 350
3 328 350 349
3 329 330 351
3 329 351 350
3 330 331 352
3 330 352 351
3 331 332 353
3 331 353 352
3 332 333 354
3 332 354 353
3 333 334 355
3 333 355 354
3 334 335 356
3 334 356 355
3 336 337 358
3 336 358 357
3 337 338 359
3 337 359 358
3 338 339 360
3 338 360 359
3 339 340 361
3 339 361 360
3 340 341 362
3 340 362 361
3 341 342 363
3 341 363 362
3 342 343 364
3 342 364 363
3 343 344 365
3 343 365 364
3 344 345 366
3 344 366 365
3 345 346 367
3 345 367 366
3 346 347 368
3 346 368 367
3 347 348 369
3 347 369 368
3 348 349 370
3 348 370 369
3 349 350 371
3 349 371 370
3 350 351 372
3 350 372 371
3 351 352 373
3 351 373 372
3 352 353 374
3 352 374 373
3 353 354 375
3 353 375 374
3 354 355 376
3 354 376 375
3 355 356 377
3 355 377 376
3 357 358 379
3 357 379 378
3 358 359 380
3 358 380 379
3 359 360 381
3 359 381 380
3 360 361 382
3 360 382 381
3 361 362 383
3 361 383 382
3 362 363 384
3 362 384 383
3 363 364 385
3 363 385 384
3 364 365 386
3 364 386 385
3 365 366 387
3 365 387 386
3 366 367 388
3 366 388 387
3 367 368 389
3 367 389 388
3 368 369 390
3 368 390 389
3 369 370 391
3 369 391 390
3 370 371 392
3 370 392 391
3 371 372 393
3 371 393 392
3 372 373 394
3 372 394 393
3 373 374 395
3 373 395 394
3 374 375 396
3 374 396 395
3 375 376 397
3 375 397 396
3 376 377 398
3 376 398 397
3 378 379 400
3 378 400 399
3 379 380 401
3 379 401 400
3 380 381 402
3 380 402 401
3 381 382 403
3 381 403 402
3 382 383 404
3 382 404 403
3 383 384 405
3 383 405 404
3 384 385 406
3 384 406 405
3 385 386 407
3 385 407 406
3 386 387 408
3 386 408 407
3 387 388 409
3 387 409 408
3 388 389 410
3 388 410 409
3 389 390 411
3 389 411 410
3 390 391 412
3 390 412 411
3 391 392 413
3 391 413 412
3 392 393 414
3 392 414 413
3 393 394 415
3 393 415 414
3 394 395 416
3 394 416 415
3 395 396 417
3 395 417 416
3 396 397 418
3 396 418 417
3 397 398 419
3 397 419 418
3 399 400 421
3 399 421 420
3 400 401 422
3 400 422 421
3 401 402 423
3 401 423 422
3 402 403 424
3 402 424 423
3 403 404 425
3 403 425 424
3 404 405 426
3 404 426 425
3 405 406 427
3 405 427 426
3 406 407 428
3 406 428 427
3 407 408 429
3 407 429 428
3 408 409 430
3 408 430 429
3 409 410 431
3 409 431 430
3 410 411 432
3 410 432 431
3 411 412 433
3 411 433 432
3 412 413 434
3 412 434 433
3 413 414 435
3 413 435 434
3 414 415 436
3 414 436 435
3 415 416 437
3 415 437 436
3 416 417 438
3 416 438 437
3 417 418 439
3 417 439 438
3 418 419 440
3 418 440 439
CELL_TYPES 800
5
5
5
5
5
5
5
5
5
5
5
5
5
5
5
5
5
5
5
5
5
5
5
5
5
5
5
5
5
5
5
5
5
5
5
5
5
5
5
5
5
5
5
5
5
5
5
5
5
5
5
5
5
5
5
5
5
5
5
5
5
5
5
5
5
5
5
5
5
5
5
5
5
5
5
5
5
5
5
5
5
5
5
5
5
5
5
5
5
5
5
5
5
5
5
5
5
5
5
5
5
5
5
5
5
5
5
5
5
5
5
5
5
5
5
5
5
5
5
5
5
5
5
5
5
5
5
5
5
5
5
5
5
5
5
5
5
5
5
5
5
5
5
5
5
5
5
5
5
5
5
5
5
5
5
5
5
5
5
5
5
5
5
5
5
5
5
5
5
5
5
5
5
5
5
5
5
5
5
5
5
5
5
5
5
5
5
5
5
5
5
5
5
5
5
5
5
5
5
5
5
5
5
5
5
5
5
5
5
5
5
5
5
5
5
5
5
5
5
5
5
5
5
5
5
5
5
5
5
5
5
5
5
5
5
5
5
5
5
5
5
5
5
5
5
5
5
5
5
5
5
5
5
5
5
5
5
5
5
5
5
5
5
5
5
5
5
5
5
5
5
5
5
5
5
5
5
5
5
5
5
5
5
5
5
5
5
5
5
5
5
5
5
5
5
5
5
5
5
5
5
5
5
5
5
5
5
5
5
5
5
5
5
5
5
5
5
5
5
5
5
5
5
5
5
5
5
5
5
5
5
5
5
5
5
5
5
5
5
5
5
5
5
5
5
5
5
5
5
5
5
5
5
5
5
5
5
5
5
5
5
5
5
5
5
5
5
5
5
5
5
5
5
5
5
5
5
5
5
5
5
5
5
5
5
5
5
5
5
5
5
5
5
5
5
5
5
5
5
5
5
5
5
5
5
5
5
5
5
5
5
5
5
5
5
5
5
5
5
5
5
5
5
5
5
5
5
5
5
5
5
5
5
5
5
5
5
5
5
5
5
5
5
5
5
5
5
5
5
5
5
5
5
5
5
5
5
5
5
5
5
5
5
5
5
5
5
5
5
5
5
5
5
5
5
5
5
5
5
5
5
5
5
5
5
5
5
5
5
5
5
5
5
5
5
5
5
5
5
5
5
5
5
5
5
5
5
5
5
5
5
5
5
5
5
5
5
5
5
5
5
5
5
5
5
5
5
5
5
5
5
5
5
5
5
5
5
5
5
5
5
5
5
5
5
5
5
5
5
5
5
5
5
5
5
5
5
5
5
5
5
5
5
5
5
5
5
5
5
5
5
5
5
5
5
5
5
5
5
5
5
5
5
5
5
5
5
5
5
5
5
5
5
5
5
5
5
5
5
5
5
5
5
5
5
5
5
5
5
5
5
5
5
5
5
5
5
5
5
5
5
5
5
5
5
5
5
5
5
5
5
5
5
5
5
5
5
5
5
5
5
5
5
5
5
5
5
5
5
5
5
5
5
5
5
5
5
5
5
5
5
5
5
5
5
5
5
5
5
5
5
5
5
5
5
5
5
5
5
5
5
5
5
5
5
5
5
5
5
5
5
5
5
5
5
5
5
5
5
5
5
5
5
5
5
5
5
5
5
5
5
5
5
5
5
5
5
5
5
5
5
5
5
5
5
5
5
5
5
5
5
5
5
5
5
5
5
5
5
5
5
5
5
5
5
5
5
5
5
5
5
5
5
5
5
5
5
5
5
5
5
5
5
5
5
5
5
5
5
5
5
5
5
5
5
5
5
5
5
5
5
5
5
5
5
5
5
5
5
5
5
5
5
5
5
5
5
5
5
5
CELL_DATA 800
VECTORS Et double
-0.0282978 0.087776 0
-0.024543 0.0278616 0
-0.0274134 0.20111 0
-0.0242838 0.14332 0
-0.0257904 0.308947 0
-0.0229467 0.254418 0
-0.0234797 0.408609 0
-0.0207863 0.358587 0
-0.0205558 0.497575 0
-0.0179758 0.453264 0
-0.0171121 0.573604 0
-0.014666 0.536088 0
-0.0132569 0.634831 0
-0.0110015 0.605018 0
-0.00910751 0.679814 0
-0.00712189 0.658404 0
-0.00478525 0.707579 0
-0.00316012 0.695045 0
-0.000410022 0.717627 0
0.000761618 0.714205 0
0.00390399 0.709927 0
0.00453533 0.715618 0
0.00805187 0.684895 0
0.00807023 0.699476 0
0.0119404 0.643357 0
0.0112948 0.666393 0
0.0154895 0.586507 0
0.0141577 0.617372 0
0.0186321 0.515859 0
0.0166286 0.553756 0
0.021314 0.433211 0
0.0186975 0.477184 0
0.0234922 0.340599 0
0.0203767 0.389552 0
0.0251336 0.24028 0
0.0217048 0.292975 0
0.0262131 0.134731 0
0.0227645 0.18977 0
0.0267123 0.0267123 0
0.0237401 0.0824574 0
-0.0779206 0.0760998 0
-0.0753466 0.0240049 0
-0.0762536 0.175871 0
-0.0736867 0.125098 0
-0.0721009 0.27102 0
-0.0695679 0.222911 0
-0.065806 0.35905 0
-0.0632976 0.314825 0
-0.0576764 0.437676 0
-0.0552065 0.39845 0
-0.0480357 0.504889 0
-0.0456473 0.471645 0
-0.0372296 0.559025 0
-0.0349898 0.532579 0
-0.0256188 0.598811 0
-0.0236108 0.579788 0
-0.0135652 0.623392 0
-0.0118809 0.612209 0
-0.00141894 0.63234 0
-0.000151215 0.629203 0
0.0104942 0.625643 0
0.0112588 0.630549 0
0.021883 0.603686 0
0.0220708 0.616433 0
0.0324977 0.567209 0
0.032054 0.587413 0
0.0421335 0.517272 0
0.0410293 0.544382 0
0.050632 0.455209 0
0.0488692 0.488527 0
0.0578799 0.382587 0
0.0554971 0.421288 0
0.0638073 0.301172 0
0.0608847 0.344314 0
0.0683901 0.212891 0
0.0650514 0.259435 0
0.0716636 0.119794 0
0.0680675 0.168625 0
0.0737773 0.0239767 0
0.0700597 0.0739716 0
-0.119075 0.055881 0
-0.11756 0.0173208 0
-0.116283 0.130421 0
-0.11448 0.0925548 0
-0.109857 0.20169 0
-0.107875 0.165635 0
-0.100184 0.267704 0
-0.0980877 0.234466 0
-0.0877079 0.326669 0
-0.0855588 0.297146 0
-0.07293 0.377035 0
-0.0707956 0.352001 0
-0.056392 0.417533 0
-0.05435 0.397621 0
-0.0386578 0.447211 0
-0.0367933 0.432896 0
-0.0202916 0.46545 0
-0.0186927 0.457041 0
-0.00183496 0.471965 0
-0.000588397 0.469603 0
0.0162123 0.466791 0
0.0170263 0.47046 0
0.0334082 0.450258 0
0.0337201 0.459791 0
0.0493792 0.422961 0
0.0491345 0.438057 0
0.0638256 0.385715 0
0.0629888 0.405958 0
0.0765221 0.339524 0
0.0750801 0.3644 0
0.0873149 0.285543 0
0.0852793 0.314451 0
0.0961168 0.225043 0
0.0935245 0.257319 0
0.102903 0.159388 0
0.0998117 0.194312 0
0.10771 0.0899935 0
0.104184 0.126819 0
0.110643 0.0182824 0
0.106715 0.0562781 0
-0.146499 0.0293902 0
-0.145949 0.00861161 0
-0.142687 0.0701163 0
-0.1417 0.0494402 0
-0.134539 0.109221 0
-0.133238 0.0893642 0
-0.122457 0.145482 0
-0.12094 0.127092 0
-0.106965 0.177813 0
-0.10532 0.161457 0
-0.0886797 0.2053 0
-0.0869899 0.191452 0
-0.0682795 0.227221 0
-0.0666253 0.216254 0
-0.046472 0.243067 0
-0.0449329 0.235246 0
-0.0239628 0.252543 0
-0.0226156 0.248025 0
-0.00142562 0.255565 0
-0.00034268 0.2544 0
0.0205237 0.252234 0
0.0212764 0.25438 0
0.0413471 0.242818 0
0.0417114 0.24815 0
0.060597 0.227715 0
0.0605246 0.236042 0
0.077923 0.207421 0
0.0773761 0.218502 0
0.0930701 0.182504 0
0.0920228 0.19606 0
0.105873 0.153571 0
0.104311 0.1693 0
0.116245 0.121253 0
0.114165 0.13884 0
0.124166 0.0861876 0
0.12157 0.105311 0
0.129669 0.0490052 0
0.126556 0.0693501 0
0.132818 0.0103182 0
0.129171 0.0315861 0
-0.15673 -0.00028455 0
-0.157023 -0.00107993 0
-0.152226 0.00207489 0
-0.152029 0.000833717 0
-0.14315 0.00457708 0
-0.142584 0.00312915 0
-0.129911 0.00690366 0
-0.129084 0.00545615 0
-0.113067 0.00880197 0
-0.112075 0.00751911 0
-0.0932943 0.0100996 0
-0.0922183 0.00909734 0
-0.0713374 0.0107124 0
-0.0702504 0.0100563 0
-0.047976 0.0106438 0
-0.0469417 0.0103514 0
-0.0239837 0.00997714 0
-0.0230576 0.0100232 0
-9.26191e-05 0.00885835 0
0.000676637 0.00918498 0
0.023036 0.00747283 0
0.023606 0.00800256 0
0.0448346 0.00601803 0
0.0451672 0.00666851 0
0.0648428 0.00467514 0
0.0649033 0.00537409 0
0.0827127 0.00358299 0
0.0824679 0.00428157 0
0.0982053 0.00281715 0
0.0976224 0.00350037 0
0.11118 0.00237624 0
0.110225 0.00306952 0
0.121577 0.00217633 0
0.120214 0.00294813 0
0.129403 0.00205338 0
0.127589 0.00301418 0
0.134699 0.00177327 0
0.132384 0.00307112 0
0.137525 0.00105053 0
0.13465 0.00286129 0
-0.14845 -0.0296598 0
-0.149426 -0.0105953 0
-0.143701 -0.0656747 0
-0.144216 -0.0475172 0
-0.134625 -0.0998637 0
-0.134794 -0.0828639 0
-0.12162 -0.131616 0
-0.121544 -0.116027 0
-0.105241 -0.160329 0
-0.105005 -0.146408 0
-0.0861585 -0.185412 0
-0.0858305 -0.173419 0
-0.0651166 -0.206299 0
-0.0647481 -0.196488 0
-0.042891 -0.222463 0
-0.0425184 -0.215074 0
-0.0202445 -0.233436 0
-0.019892 -0.228684 0
0.0021101 -0.238835 0
0.00242748 -0.236894 0
0.0235419 -0.23839 0
0.0238142 -0.239377 0
0.0435244 -0.23197 0
0.0437423 -0.235931 0
0.0616483 -0.219609 0
0.0617987 -0.226501 0
0.0776244 -0.201521 0
0.0776865 -0.211207 0
0.0912769 -0.178118 0
0.0912189 -0.190356 0
0.102528 -0.150001 0
0.102305 -0.164447 0
0.111379 -0.117958 0
0.110929 -0.134169 0
0.117879 -0.0829395 0
0.117128 -0.100387 0
0.122108 -0.0460268 0
0.120963 -0.0641118 0
0.124141 -0.00839393 0
0.122501 -0.0264712 0
-0.122617 -0.0552868 0
-0.124091 -0.0187995 0
-0.118113 -0.125152 0
-0.119231 -0.0898982 0
-0.109981 -0.191779 0
-0.110843 -0.158454 0
-0.0985832 -0.253714 0
-0.0992713 -0.222995 0
-0.0844236 -0.309579 0
-0.0850006 -0.282111 0
-0.0681152 -0.358092 0
-0.0686216 -0.334482 0
-0.0503359 -0.398101 0
-0.050791 -0.378898 0
-0.031785 -0.428607 0
-0.0321886 -0.414289 0
-0.0131407 -0.448799 0
-0.0134766 -0.439756 0
0.00497792 -0.458083 0
0.00473607 -0.454597 0
0.0220409 -0.456111 0
0.0219232 -0.458342 0
0.0376283 -0.442811 0
0.0376615 -0.450776 0
0.0514409 -0.418405 0
0.0516407 -0.431967 0
0.0632992 -0.38342 0
0.0636645 -0.40228 0
0.0731333 -0.338689 0
0.0736409 -0.362387 0
0.0809636 -0.28534 0
0.0815652 -0.313256 0
0.0868752 -0.224766 0
0.0874962 -0.256138 0
0.0909889 -0.158598 0
0.0915288 -0.192539 0
0.093432 -0.0886487 0
0.0937664 -0.124172 0
0.094313 -0.0168647 0
0.094298 -0.0529149 0
-0.0823355 -0.0741637 0
-0.0841096 -0.024717 0
-0.0785526 -0.169374 0
-0.0801395 -0.121313 0
-0.0722112 -0.260362 0
-0.0736889 -0.214735 0
-0.063607 -0.345016 0
-0.0650274 -0.302839 0
-0.0531577 -0.421351 0
-0.0545493 -0.383581 0
-0.0413697 -0.487552 0
-0.0427368 -0.45507 0
-0.0287987 -0.542013 0
-0.0301209 -0.515602 0
-0.0160077 -0.583376 0
-0.0172416 -0.563703 0
-0.0035277 -0.610568 0
-0.00461167 -0.598163 0
0.00817707 -0.622837 0
0.00731572 -0.618071 0
0.0187356 -0.619781 0
0.0181715 -0.622849 0
0.0278872 -0.601374 0
0.0276875 -0.612277 0
0.0354885 -0.567981 0
0.0357026 -0.586517 0
0.0415083 -0.520364 0
0.04216 -0.546119 0
0.0460139 -0.459669 0
0.0470949 -0.492023 0
0.0491478 -0.387408 0
0.0506144 -0.425545 0
0.0510988 -0.30542 0
0.0528711 -0.348346 0
0.0520699 -0.215823 0
0.0540339 -0.262396 0
0.0522464 -0.120958 0
0.0542559 -0.169914 0
0.0517706 -0.023327 0
0.0536464 -0.0733115 0
-0.0324734 -0.0840862 0
-0.0343412 -0.0276496 0
-0.0298203 -0.193178 0
-0.0317335 -0.138072 0
-0.0259203 -0.297602 0
-0.0279112 -0.245113 0
-0.0209759 -0.394839 0
-0.0230511 -0.346205 0
-0.0152886 -0.482539 0
-0.017436 -0.438914 0
-0.00922425 -0.558573 0
-0.0114081 -0.521008 0
-0.00317608 -0.621075 0
-0.00533411 -0.590497 0
0.00247248 -0.668482 0
0.000428057 -0.645673 0
0.00738164 -0.699579 0
0.00555869 -0.685154 0
0.011284 -0.713529 0
0.00980175 -0.707916 0
0.0140058 -0.70991 0
0.0129838 -0.713329 0
0.0154785 -0.688727 0
0.0150248 -0.701178 0
0.0157412 -0.650433 0
0.0159402 -0.671679 0
0.0149317 -0.595918 0
0.0158345 -0.62549 0
0.0132688 -0.526503 0
0.0148854 -0.563699 0
0.0110269 -0.443901 0
0.0133232 -0.487805 0
0.00850458 -0.350179 0
0.0114026 -0.399683 0
0.00598994 -0.247698 0
0.00937337 -0.301534 0
0.00372568 -0.139048 0
0.00744553 -0.195826 0
0.00187805 -0.0269864 0
0.00574476 -0.0852194 0
0.0209511 -0.0838909 0
0.0192242 -0.0272606 0
0.0221562 -0.193835 0
0.0200457 -0.138217 0
0.0232283 -0.299232 0
0.0208436 -0.246088 0
0.0240697 -0.397452 0
0.0214626 -0.348101 0
0.0245051 -0.486072 0
0.0217262 -0.441721 0
0.0243257 -0.562908 0
0.0214463 -0.52465 0
0.0233215 -0.626057 0
0.0204415 -0.594852 0
0.0213112 -0.673937 0
0.0185579 -0.650595 0
0.0181675 -0.705327 0
0.0156904 -0.690484 0
0.0138386 -0.719399 0
0.0117987 -0.713497 0
0.00836207 -0.715745 0
0.00691935 -0.719015 0
0.00187078 -0.694394 0
0.00117053 -0.706841 0
-0.00541006 -0.655818 0
-0.00525092 -0.677212 0
-0.0131751 -0.600927 0
-0.0120796 -0.630802 0
-0.0210591 -0.531052 0
-0.0189986 -0.568712 0
-0.0286636 -0.447909 0
-0.0256615 -0.492443 0
-0.0355889 -0.353552 0
-0.0317179 -0.403864 0
-0.0414678 -0.250315 0
-0.0368403 -0.305153 0
-0.046004 -0.140723 0
-0.0407488 -0.198741 0
-0.0490202 -0.0273852 0
-0.0432355 -0.0872193 0
0.0718852 -0.129514 0
0.0174681 -0.0248483 0
0.0713727 -0.281873 0
0.0177016 -0.179236 0
0.069536 -0.427641 0
0.018031 -0.329695 0
0.0662994 -0.563159 0
0.0182478 -0.472356 0
0.0615943 -0.68506 0
0.018182 -0.60365 0
0.0553658 -0.790323 0
0.0176769 -0.720324 0
0.047588 -0.87633 0
0.016591 -0.819497 0
0.0382818 -0.940927 0
0.0148097 -0.898711 0
0.0275303 -0.982472 0
0.012258 -0.955985 0
0.0154913 -0.99988 0
0.00891268 -0.989862 0
0.00240401 -0.992653 0
0.00481025 -0.99945 0
-0.0114114 -0.960903 0
4.98799e-05 -0.984446 0
-0.0255615 -0.905351 0
-0.00520871 -0.94515 0
-0.0395946 -0.827319 0
-0.0107531 -0.882468 0
-0.053022 -0.728697 0
-0.0163307 -0.797891 0
-0.0653447 -0.611897 0
-0.0216648 -0.693462 0
-0.0760822 -0.479782 0
-0.0264719 -0.571729 0
-0.0848021 -0.335587 0
-0.0304767 -0.435667 0
-0.0911486 -0.182794 0
-0.033417 -0.288594 0
-0.0948682 -0.0249685 0
-0.0350168 -0.134053 0
0.0658443 -0.120832 0
0.014655 -0.0230576 0
0.0648572 -0.262537 0
0.0146607 -0.166934 0
0.0627738 -0.398017 0
0.0147327 -0.306891 0
0.0594555 -0.523921 0
0.0147271 -0.439509 0
0.0548299 -0.637131 0
0.0145091 -0.561515 0
0.0488621 -0.734842 0
0.0139539 -0.669897 0
0.0415539 -0.814624 0
0.0129517 -0.761976 0
0.0329512 -0.874481 0
0.0114155 -0.835468 0
0.0231528 -0.912897 0
0.00929042 -0.888538 0
0.012318 -0.928876 0
0.00656218 -0.91984 0
0.000669519 -0.921972 0
0.00326236 -0.928559 0
-0.0115074 -0.892304 0
-0.000529257 -0.914427 0
-0.0238725 -0.840554 0
-0.00468663 -0.877739 0
-0.0360421 -0.76796 0
-0.00904324 -0.81935 0
-0.0476063 -0.67628 0
-0.0134014 -0.740655 0
-0.058148 -0.567755 0
-0.0175437 -0.643557 0
-0.0672641 -0.445045 0
-0.0212455 -0.530423 0
-0.074583 -0.31116 0
-0.0242856 -0.404019 0
-0.0797711 -0.169385 0
-0.0264526 -0.267436 0
-0.0825076 -0.0232263 0
-0.0275449 -0.124019 0
0.0596291 -0.113171 0
0.0114171 -0.0215215 0
0.0585084 -0.245676 0
0.0113389 -0.15616 0
0.0563513 -0.372288 0
0.0113013 -0.287045 0
0.0530755 -0.489899 0
0.0112127 -0.411001 0
0.0486344 -0.595611 0
0.0109744 -0.524993 0
0.0430147 -0.686808 0
0.0104908 -0.626216 0
0.0362381 -0.761226 0
0.00967688 -0.712172 0
0.0283656 -0.817005 0
0.00846529 -0.780732 0
0.0195033 -0.852738 0
0.00681389 -0.830185 0
0.00980595 -0.867508 0
0.00471163 -0.859284 0
-0.000521574 -0.860909 0
0.0021828 -0.867276 0
-0.0112264 -0.833062 0
-0.000711565 -0.853924 0
-0.0220138 -0.784617 0
-0.00387501 -0.819514 0
-0.0325572 -0.716735 0
-0.00718006 -0.764856 0
-0.0425112 -0.631065 0
-0.010475 -0.69126 0
-0.0515264 -0.529703 0
-0.0135925 -0.600511 0
-0.0592652 -0.415136 0
-0.0163592 -0.494823 0
-0.0654143 -0.290185 0
-0.0186049 -0.376786 0
-0.0696932 -0.157942 0
-0.0201712 -0.249299 0
-0.0718555 -0.0217072 0
-0.0209221 -0.115509 0
0.053483 -0.106564 0
0.00790289 -0.0202196 0
0.0523565 -0.231198 0
0.00781003 -0.146907 0
0.0502435 -0.350244 0
0.00775944 -0.270028 0
0.0471082 -0.460787 0
0.00769179 -0.386591 0
0.0429322 -0.560109 0
0.00753608 -0.493748 0
0.0377228 -0.645757 0
0.00721967 -0.588867 0
0.0315163 -0.715608 0
0.00667593 -0.669606 0
0.0243832 -0.767922 0
0.00585105 -0.733966 0
0.0164308 -0.801383 0
0.00470992 -0.780346 0
0.00780585 -0.815139 0
0.00324091 -0.807581 0
-0.00130533 -0.808816 0
0.00145904 -0.81497 0
-0.0106796 -0.78254 0
-0.000592776 -0.802301 0
-0.0200622 -0.736927 0
-0.00284476 -0.769852 0
-0.0291751 -0.673078 0
-0.00520337 -0.718391 0
-0.0377274 -0.592545 0
-0.0075564 -0.64916 0
-0.0454269 -0.497302 0
-0.00977949 -0.56384 0
-0.0519928 -0.38969 0
-0.0117436 -0.464517 0
-0.057167 -0.272365 0
-0.013323 -0.35363 0
-0.0607244 -0.148236 0
-0.0144041 -0.233909 0
-0.0624847 -0.0204008 0
-0.0148961 -0.108319 0
0.0475165 -0.100989 0
0.00419225 -0.0191354 0
0.0464398 -0.219008 0
0.0041236 -0.139122 0
0.0444416 -0.331705 0
0.00412413 -0.255714 0
0.0415136 -0.436322 0
0.00415327 -0.366071 0
0.0376592 -0.530289 0
0.0041586 -0.467495 0
0.032901 -0.61129 0
0.00408362 -0.557499 0
0.027286 -0.67732 0
0.00387446 -0.633867 0
0.020889 -0.726738 0
0.00348553 -0.694712 0
0.0138151 -0.758305 0
0.00288448 -0.738524 0
0.00620083 -0.771222 0
0.002056 -0.764205 0
-0.00178633 -0.765143 0
0.00100448 -0.7711 0
-0.00995065 -0.740194 0
-0.000244961 -0.759015 0
-0.0180729 -0.696967 0
-0.00164701 -0.728221 0
-0.025917 -0.636506 0
-0.00313835 -0.679454 0
-0.0332387 -0.560286 0
-0.00464127 -0.613891 0
-0.039795 -0.470178 0
-0.00606857 -0.533131 0
-0.0453542 -0.368399 0
-0.00732929 -0.439151 0
-0.0497064 -0.257464 0
-0.00833527 -0.334262 0
-0.0526737 -0.140123 0
-0.00900837 -0.221052 0
-0.0541222 -0.0192972 0
-0.00928897 -0.102323 0
0.0417789 -0.096415 0
0.000326342 -0.0182556 0
0.0407789 -0.209011 0
0.000306446 -0.132744 0
0.0389362 -0.316511 0
0.000402306 -0.243984 0
0.0362576 -0.416281 0
0.000583751 -0.349259 0
0.0327605 -0.505871 0
0.000809757 -0.445993 0
0.0284777 -0.583075 0
0.00103412 -0.531813 0
0.0234622 -0.645984 0
0.00121064 -0.604608 0
0.0177897 -0.693039 0
0.0012977 -0.662582 0
0.0115604 -0.723064 0
0.00126226 -0.704298 0
0.0048992 -0.735301 0
0.00108298 -0.728714 0
-0.00204498 -0.729429 0
0.000752408 -0.735213 0
-0.00910188 -0.705572 0
0.000278103 -0.723613 0
-0.016084 -0.6643 0
-0.000317546 -0.69418 0
-0.0227924 -0.606615 0
-0.000998638 -0.647621 0
-0.0290231 -0.533926 0
-0.00171821 -0.585064 0
-0.0345756 -0.448019 0
-0.00242163 -0.508038 0
-0.0392604 -0.35101 0
-0.0030508 -0.418431 0
-0.0429083 -0.245296 0
-0.00354893 -0.318449 0
-0.0453791 -0.133497 0
-0.00386599 -0.21056 0
-0.0465712 -0.0183873 0
-0.00396463 -0.0974324 0
0.0362865 -0.0928084 0
-0.00367838 -0.0175695 0
0.0353769 -0.201128 0
-0.00363233 -0.12772 0
0.0337124 -0.30453 0
-0.00340901 -0.234738 0
0.0313079 -0.40048 0
-0.00303364 -0.336005 0
0.0281881 -0.486622 0
-0.00254101 -0.429042 0
0.0243917 -0.560836 0
-0.00197164 -0.511565 0
0.019974 -0.621289 0
-0.00136805 -0.581546 0
0.0150088 -0.666484 0
-0.000771275 -0.637259 0
0.00958953 -0.695297 0
-0.000217778 -0.677326 0
0.00382864 -0.707002 0
0.000263143 -0.700749 0
-0.0021431 -0.701296 0
0.000651271 -0.706937 0
-0.00817922 -0.678302 0
0.000936609 -0.695723 0
-0.0141211 -0.638574 0
0.00111966 -0.667366 0
-0.0198024 -0.583076 0
0.00121087 -0.622549 0
-0.0250551 -0.51317 0
0.00122925 -0.562363 0
-0.0297152 -0.430572 0
0.00120028 -0.48828 0
-0.0336296 -0.33732 0
0.00115326 -0.402119 0
-0.0366633 -0.235716 0
0.00111821 -0.306002 0
-0.0387058 -0.128276 0
0.00112238 -0.202302 0
-0.0396791 -0.0176633 0
0.00118651 -0.0935828 0
0.0310362 -0.090142 0
-0.00782271 -0.017069 0
0.0302241 -0.195292 0
-0.00769679 -0.124004 0
0.0287502 -0.295656 0
-0.00732092 -0.227892 0
0.0266322 -0.388774 0
-0.00671924 -0.326188 0
0.0238985 -0.47236 0
-0.0059238 -0.416483 0
0.0205899 -0.544357 0
-0.00497261 -0.496562 0
0.0167613 -0.602989 0
-0.00390744 -0.564456 0
0.0124829 -0.646807 0
-0.00277132 -0.618493 0
0.00783972 -0.674721 0
-0.00160621 -0.657337 0
0.00293154 -0.686031 0
-0.000450889 -0.680024 0
-0.00212856 -0.680448 0
0.000660804 -0.685982 0
-0.00721639 -0.658093 0
0.00170119 -0.675053 0
-0.0121997 -0.619508 0
0.00264947 -0.647493 0
-0.016942 -0.565632 0
0.00349189 -0.603967 0
-0.0213067 -0.497786 0
0.00422134 -0.545537 0
-0.0251624 -0.41764 0
0.00483651 -0.473635 0
-0.0283875 -0.327169 0
0.00534064 -0.390027 0
-0.0308757 -0.22861 0
0.00574005 -0.296774 0
-0.032541 -0.1244 0
0.00604261 -0.196177 0
-0.0333229 -0.017119 0
0.00625636 -0.090724 0
0.0260126 -0.0883964 0
-0.0121212 -0.0167481 0
0.0253023 -0.191453 0
-0.0119004 -0.121566 0
0.0240251 -0.28981 0
-0.0113503 -0.223387 0
0.0221985 -0.381055 0
-0.0104961 -0.319719 0
0.0198516 -0.462948 0
-0.00936868 -0.408199 0
0.0170253 -0.533477 0
-0.00800529 -0.48666 0
0.0137727 -0.590903 0
-0.00644884 -0.553171 0
0.0101584 -0.633807 0
-0.00474615 -0.606097 0
0.00625899 -0.661123 0
-0.00294623 -0.64413 0
0.0021612 -0.672171 0
-0.0010985 -0.666327 0
-0.00203892 -0.666665 0
0.000748799 -0.67213 0
-0.00623824 -0.64473 0
0.00255 -0.661387 0
-0.010329 -0.606897 0
0.00426318 -0.63435 0
-0.0142019 -0.55409 0
0.00585098 -0.591675 0
-0.0177491 -0.487604 0
0.00728117 -0.534404 0
-0.0208684 -0.409075 0
0.00852696 -0.46394 0
-0.0234661 -0.320442 0
0.00956699 -0.382018 0
-0.0254611 -0.223895 0
0.0103854 -0.290656 0
-0.0267881 -0.121822 0
0.0109719 -0.19211 0
-0.0273998 -0.0167493 0
0.0113238 -0.0888183 0
0.0211906 -0.0875637 0
-0.0166031 -0.0166031 0
0.0205881 -0.189584 0
-0.016261 -0.120388 0
0.0195112 -0.28694 0
-0.0155167 -0.221186 0
0.0179755 -0.37725 0
-0.0143889 -0.316539 0
0.0160104 -0.458297 0
-0.0129059 -0.404113 0
0.013656 -0.528091 0
-0.0111049 -0.481764 0
0.0109625 -0.58491 0
-0.00903087 -0.547582 0
0.00798908 -0.627353 0
-0.00673565 -0.59995 0
0.00480307 -0.654366 0
-0.00427631 -0.637572 0
0.00147868 -0.665275 0
-0.00171386 -0.659518 0
-0.00190454 -0.659802 0
0.000888372 -0.665238 0
-0.00526343 -0.638069 0
0.00346626 -0.65458 0
-0.00851333 -0.600605 0
0.00595651 -0.627798 0
-0.0115702 -0.548323 0
0.00829819 -0.58554 0
-0.0143531 -0.482509 0
0.0104342 -0.528839 0
-0.0167865 -0.404781 0
0.0123125 -0.459087 0
-0.0188026 -0.317059 0
0.0138877 -0.377999 0
-0.0203435 -0.221511 0
0.0151216 -0.287575 0
-0.0213624 -0.120505 0
0.0159844 -0.190049 0
-0.0218234 -0.0165512 0
0.0164554 -0.0878365 0
