# vtk DataFile Version 3.0
tp3485 cell-vector
ASCII
DATASET UNSTRUCTURED_GRID
POINTS 441 double
0 0 0
0.05 0 0
0.1 0 0
0.15 0 0
0.2 0 0
0.25 0 0
0.3 0 0
0.35 0 0
0.4 0 0
0.45 0 0
0.5 0 0
0.55 0 0
0.6 0 0
0.65 0 0
0.7 0 0
0.75 0 0
0.8 0 0
0.85 0 0
0.9 0 0
0.95 0 0
1 0 0
0 0.05 0
0.05 0.05 0
0.1 0.05 0
0.15 0.05 0
0.2 0.05 0
0.25 0.05 0
0.3 0.05 0
0.35 0.05 0
0.4 0.05 0
0.45 0.05 0
0.5 0.05 0
0.55 0.05 0
0.6 0.05 0
0.65 0.05 0
0.7 0.05 0
0.75 0.05 0
0.8 0.05 0
0.85 0.05 0
0.9 0.05 0
0.95 0.05 0
1 0.05 0
0 0.1 0
0.05 0.1 0
0.1 0.1 0
0.15 0.1 0
0.2 0.1 0
0.25 0.1 0
0.3 0.1 0
0.35 0.1 0
0.4 0.1 0
0.45 0.1 0
0.5 0.1 0
0.55 0.1 0
0.6 0.1 0
0.65 0.1 0
0.7 0.1 0
0.75 0.1 0
0.8 0.1 0
0.85 0.1 0
0.9 0.1 0
0.95 0.1 0
1 0.1 0
0 0.15 0
0.05 0.15 0
0.1 0.15 0
0.15 0.15 0
0.2 0.15 0
0.25 0.15 0
0.3 0.15 0
0.35 0.15 0
0.4 0.15 0
0.45 0.15 0
0.5 0.15 0
0.55 0.15 0
0.6 0.15 0
0.65 0.15 0
0.7 0.15 0
0.75 0.15 0
0.8 0.15 0
0.85 0.15 0
0.9 0.15 0
0.95 0.15 0
1 0.15 0
0 0.2 0
0.05 0.2 0
0.1 0.2 0
0.15 0.2 0
0.2 0.2 0
0.25 0.2 0
0.3 0.2 0
0.35 0.2 0
0.4 0.2 0
0.45 0.2 0
0.5 0.2 0
0.55 0.2 0
0.6 0.2 0
0.65 0.2 0
0.7 0.2 0
0.75 0.2 0
0.8 0.2 0
0.85 0.2 0
0.9 0.2 0
0.95 0.2 0
1 0.2 0
0 0.25 0
0.05 0.25 0
0.1 0.25 0
0.15 0.25 0
0.2 0.25 0
0.25 0.25 0
0.3 0.25 0
0.35 0.25 0
0.4 0.25 0
0.45 0.25 0
0.5 0.25 0
0.55 0.25 0
0.6 0.25 0
0.65 0.25 0
0.7 0.25 0
0.75 0.25 0
0.8 0.25 0
0.85 0.25 0
0.9 0.25 0
0.95 0.25 0
1 0.25 0
0 0.3 0
0.05 0.3 0
0.1 0.3 0
0.15 0.3 0
0.2 0.3 0
0.25 0.3 0
0.3 0.3 0
0.35 0.3 0
0.4 0.3 0
0.45 0.3 0
0.5 0.3 0
0.55 0.3 0
0.6 0.3 0
0.65 0.3 0
0.7 0.3 0
0.75 0.3 0
0.8 0.3 0
0.85 0.3 0
0.9 0.3 0
0.95 0.3 0
1 0.3 0
0 0.35 0
0.05 0.35 0
0.1 0.35 0
0.15 0.35 0
0.2 0.35 0
0.25 0.35 0
0.3 0.35 0
0.35 0.35 0
0.4 0.35 0
0.45 0.35 0
0.5 0.35 0
0.55 0.35 0
0.6 0.35 0
0.65 0.35 0
0.7 0.35 0
0.75 0.35 0
0.8 0.35 0
0.85 0.35 0
0.9 0.35 0
0.95 0.35 0
1 0.35 0
0 0.4 0
0.05 0.4 0
0.1 0.4 0
0.15 0.4 0
0.2 0.4 0
0.25 0.4 0
0.3 0.4 0
0.35 0.4 0
0.4 0.4 0
0.45 0.4 0
0.5 0.4 0
0.55 0.4 0
0.6 0.4 0
0.65 0.4 0
0.7 0.4 0
0.75 0.4 0
0.8 0.4 0
0.85 0.4 0
0.9 0.4 0
0.95 0.4 0
1 0.4 0
0 0.45 0
0.05 0.45 0
0.1 0.45 0
0.15 0.45 0
0.2 0.45 0
0.25 0.45 0
0.3 0.45 0
0.35 0.45 0
0.4 0.45 0
0.45 0.45 0
0.5 0.45 0
0.55 0.45 0
0.6 0.45 0
0.65 0.45 0
0.7 0.45 0
0.75 0.45 0
0.8 0.45 0
0.85 0.45 0
0.9 0.45 0
0.95 0.45 0
1 0.45 0
0 0.5 0
0.05 0.5 0
0.1 0.5 0
0.15 0.5 0
0.2 0.5 0
0.25 0.5 0
0.3 0.5 0
0.35 0.5 0
0.4 0.5 0
0.45 0.5 0
0.5 0.5 0
0.55 0.5 0
0.6 0.5 0
0.65 0.5 0
0.7 0.5 0
0.75 0.5 0
0.8 0.5 0
0.85 0.5 0
0.9 0.5 0
0.95 0.5 0
1 0.5 0
0 0.55 0
0.05 0.55 0
0.1 0.55 0
0.15 0.55 0
0.2 0.55 0
0.25 0.55 0
0.3 0.55 0
0.35 0.55 0
0.4 0.55 0
0.45 0.55 0
0.5 0.55 0
0.55 0.55 0
0.6 0.55 0
0.65 0.55 0
0.7 0.55 0
0.75 0.55 0
0.8 0.55 0
0.85 0.55 0
0.9 0.55 0
0.95 0.55 0
1 0.55 0
0 0.6 0
0.05 0.6 0
0.1 0.6 0
0.15 0.6 0
0.2 0.6 0
0.25 0.6 0
0.3 0.6 0
0.35 0.6 0
0.4 0.6 0
0.45 0.6 0
0.5 0.6 0
0.55 0.6 0
0.6 0.6 0
0.65 0.6 0
0.7 0.6 0
0.75 0.6 0
0.8 0.6 0
0.85 0.6 0
0.9 0.6 0
0.95 0.6 0
1 0.6 0
0 0.65 0
0.05 0.65 0
0.1 0.65 0
0.15 0.65 0
0.2 0.65 0
0.25 0.65 0
0.3 0.65 0
0.35 0.65 0
0.4 0.65 0
0.45 0.65 0
0.5 0.65 0
0.55 0.65 0
0.6 0.65 0
0.65 0.65 0
0.7 0.65 0
0.75 0.65 0
0.8 0.65 0
0.85 0.65 0
0.9 0.65 0
0.95 0.65 0
1 0.65 0
0 0.7 0
0.05 0.7 0
0.1 0.7 0
0.15 0.7 0
0.2 0.7 0
0.25 0.7 0
0.3 0.7 0
0.35 0.7 0
0.4 0.7 0
0.45 0.7 0
0.5 0.7 0
0.55 0.7 0
0.6 0.7 0
0.65 0.7 0
0.7 0.7 0
0.75 0.7 0
0.8 0.7 0
0.85 0.7 0
0.9 0.7 0
0.95 0.7 0
1 0.7 0
0 0.75 0
0.05 0.75 0
0.1 0.75 0
0.15 0.75 0
0.2 0.75 0
0.25 0.75 0
0.3 0.75 0
0.35 0.75 0
0.4 0.75 0
0.45 0.75 0
0.5 0.75 0
0.55 0.75 0
0.6 0.75 0
0.65 0.75 0
0.7 0.75 0
0.75 0.75 0
0.8 0.75 0
0.85 0.75 0
0.9 0.75 0
0.95 0.75 0
1 0.75 0
0 0.8 0
0.05 0.8 0
0.1 0.8 0
0.15 0.8 0
0.2 0.8 0
0.25 0.8 0
0.3 0.8 0
0.35 0.8 0
0.4 0.8 0
0.45 0.8 0
0.5 0.8 0
0.55 0.8 0
0.6 0.8 0
0.65 0.8 0
0.7 0.8 0
0.75 0.8 0
0.8 0.8 0
0.85 0.8 0
0.9 0.8 0
0.95 0.8 0
1 0.8 0
0 0.85 0
0.05 0.85 0
0.1 0.85 0
0.15 0.85 0
0.2 0.85 0
0.25 0.85 0
0.3 0.85 0
0.35 0.85 0
0.4 0.85 0
0.45 0.85 0
0.5 0.85 0
0.55 0.85 0
0.6 0.85 0
0.65 0.85 0
0.7 0.85 0
0.75 0.85 0
0.8 0.85 0
0.85 0.85 0
0.9 0.85 0
0.95 0.85 0
1 0.85 0
0 0.9 0
0.05 0.9 0
0.1 0.9 0
0.15 0.9 0
0.2 0.9 0
0.25 0.9 0
0.3 0.9 0
0.35 0.9 0
0.4 0.9 0
0.45 0.9 0
0.5 0.9 0
0.55 0.9 0
0.6 0.9 0
0.65 0.9 0
0.7 0.9 0
0.75 0.9 0
0.8 0.9 0
0.85 0.9 0
0.9 0.9 0
0.95 0.9 0
1 0.9 0
0 0.95 0
0.05 0.95 0
0.1 0.95 0
0.15 0.95 0
0.2 0.95 0
0.25 0.95 0
0.3 0.95 0
0.35 0.95 0
0.4 0.95 0
0.45 0.95 0
0.5 0.95 0
0.55 0.95 0
0.6 0.95 0
0.65 0.95 0
0.7 0.95 0
0.75 0.95 0
0.8 0.95 0
0.85 0.95 0
0.9 0.95 0
0.95 0.95 0
1 0.95 0
0 1 0
0.05 1 0
0.1 1 0
0.15 1 0
0.2 1 0
0.25 1 0
0.3 1 0
0.35 1 0
0.4 1 0
0.45 1 0
0.5 1 0
0.55 1 0
0.6 1 0
0.65 1 0
0.7 1 0
0.75 1 0
0.8 1 0
0.85 1 0
0.9 1 0
0.95 1 0
1 1 0
CELLS 800 3200
3 0 1 22
3 0 22 21
3 1 2 23
3 1 23 22
3 2 3 24
3 2 24 23
3 3 4 25
3 3 25 24
3 4 5 26
3 4 26 25
3 5 6 27
3 5 27 26
3 6 7 28
3 6 28 27
3 7 8 29
3 7 29 28
3 8 9 30
3 8 30 29
3 9 10 31
3 9 31 30
3 10 11 32
3 10 32 31
3 11 12 33
3 11 33 32
3 12 13 34
3 12 34 33
3 13 14 35
3 13 35 34
3 14 15 36
3 14 36 35
3 15 16 37
3 15 37 36
3 16 17 38
3 16 38 37
3 17 18 39
3 17 39 38
3 18 19 40
3 18 40 39
3 19 20 41
3 19 41 40
3 21 22 43
3 21 43 42
3 22 23 44
3 22 44 43
3 23 24 45
3 23 45 44
3 24 25 46
3 24 46 45
3 25 26 47
3 25 47 46
3 26 27 48
3 26 48 47
3 27 28 49
3 27 49 48
3 28 29 50
3 28 50 49
3 29 30 51
3 29 51 50
3 30 31 52
3 30 52 51
3 31 32 53
3 31 53 52
3 32 33 54
3 32 54 53
3 33 34 55
3 33 55 54
3 34 35 56
3 34 56 55
3 35 36 57
3 35 57 56
3 36 37 58
3 36 58 57
3 37 38 59
3 37 59 58
3 38 39 60
3 38 60 59
3 39 40 61
3 39 61 60
3 40 41 62
3 40 62 61
3 42 43 64
3 42 64 63
3 43 44 65
3 43 65 64
3 44 45 66
3 44 66 65
3 45 46 67
3 45 67 66
3 46 47 68
3 46 68 67
3 47 48 69
3 47 69 68
3 48 49 70
3 48 70 69
3 49 50 71
3 49 71 70
3 50 51 72
3 50 72 71
3 51 52 73
3 51 73 72
3 52 53 74
3 52 74 73
3 53 54 75
3 53 75 74
3 54 55 76
3 54 76 75
3 55 56 77
3 55 77 76
3 56 57 78
3 56 78 77
3 57 58 79
3 57 79 78
3 58 59 80
3 58 80 79
3 59 60 81
3 59 81 80
3 60 61 82
3 60 82 81
3 61 62 83
3 61 83 82
3 63 64 85
3 63 85 84
3 64 65 86
3 64 86 85
3 65 66 87
3 65 87 86
3 66 67 88
3 66 88 87
3 67 68 89
3 67 89 88
3 68 69 90
3 68 90 89
3 69 70 91
3 69 91 90
3 70 71 92
3 70 92 91
3 71 72 93
3 71 93 92
3 72 73 94
3 72 94 93
3 73 74 95
3 73 95 94
3 74 75 96
3 74 96 95
3 75 76 97
3 75 97 96
3 76 77 98
3 76 98 97
3 77 78 99
3 77 99 98
3 78 79 100
3 78 100 99
3 79 80 101
3 79 101 100
3 80 81 102
3 80 102 101
3 81 82 103
3 81 103 102
3 82 83 104
3 82 104 103
3 84 85 106
3 84 106 105
3 85 86 107
3 85 107 106
3 86 87 108
3 86 108 107
3 87 88 109
3 87 109 108
3 88 89 110
3 88 110 109
3 89 90 111
3 89 111 110
3 90 91 112
3 90 112 111
3 91 92 113
3 91 113 112
3 92 93 114
3 92 114 113
3 93 94 115
3 93 115 114
3 94 95 116
3 94 116 115
3 95 96 117
3 95 117 116
3 96 97 118
3 96 118 117
3 97 98 119
3 97 119 118
3 98 99 120
3 98 120 119
3 99 100 121
3 99 121 120
3 100 101 122
3 100 122 121
3 101 102 123
3 101 123 122
3 102 103 124
3 102 124 123
3 103 104 125
3 103 125 124
3 105 106 127
3 105 127 126
3 106 107 128
3 106 128 127
3 107 108 129
3 107 129 128
3 108 109 130
3 108 130 129
3 109 110 131
3 109 131 130
3 110 111 132
3 110 132 131
3 111 112 133
3 111 133 132
3 112 113 134
3 112 134 133
3 113 114 135
3 113 135 134
3 114 115 136
3 114 136 135
3 115 116 137
3 115 137 136
3 116 117 138
3 116 138 137
3 117 118 139
3 117 139 138
3 118 119 140
3 118 140 139
3 119 120 141
3 119 141 140
3 120 121 142
3 120 142 141
3 121 122 143
3 121 143 142
3 122 123 144
3 122 144 143
3 123 124 145
3 123 145 144
3 124 125 146
3 124 146 145
3 126 127 148
3 126 148 147
3 127 128 149
3 127 149 148
3 128 129 150
3 128 150 149
3 129 130 151
3 129 151 150
3 130 131 152
3 130 152 151
3 131 132 153
3 131 153 152
3 132 133 154
3 132 154 153
3 133 134 155
3 133 155 154
3 134 135 156
3 134 156 155
3 135 136 157
3 135 157 156
3 136 137 158
3 136 158 157
3 137 138 159
3 137 159 158
3 138 139 160
3 138 160 159
3 139 140 161
3 139 161 160
3 140 141 162
3 140 162 161
3 141 142 163
3 141 163 162
3 142 143 164
3 142 164 163
3 143 144 165
3 143 165 164
3 144 145 166
3 144 166 165
3 145 146 167
3 145 167 166
3 147 148 169
3 147 169 168
3 148 149 170
3 148 170 169
3 149 150 171
3 149 171 170
3 150 151 172
3 150 172 171
3 151 152 173
3 151 173 172
3 152 153 174
3 152 174 173
3 153 154 175
3 153 175 174
3 154 155 176
3 154 176 175
3 155 156 177
3 155 177 176
3 156 157 178
3 156 178 177
3 157 158 179
3 157 179 178
3 158 159 180
3 158 180 179
3 159 160 181
3 159 181 180
3 160 161 182
3 160 182 181
3 161 162 183
3 161 183 182
3 162 163 184
3 162 184 183
3 163 164 185
3 163 185 184
3 164 165 186
3 164 186 185
3 165 166 187
3 165 187 186
3 166 167 188
3 166 188 187
3 168 169 190
3 168 190 189
3 169 170 191
3 169 191 190
3 170 171 192
3 170 192 191
3 171 172 193
3 171 193 192
3 172 173 194
3 172 194 193
3 173 174 195
3 173 195 194
3 174 175 196
3 174 196 195
3 175 176 197
3 175 197 196
3 176 177 198
3 176 198 197
3 177 178 199
3 177 199 198
3 178 179 200
3 178 200 199
3 179 180 201
3 179 201 200
3 180 181 202
3 180 202 201
3 181 182 203
3 181 203 202
3 182 183 204
3 182 204 203
3 183 184 205
3 183 205 204
3 184 185 206
3 184 206 205
3 185 186 207
3 185 207 206
3 186 187 208
3 186 208 207
3 187 188 209
3 187 209 208
3 189 190 211
3 189 211 210
3 190 191 212
3 190 212 211
3 191 192 213
3 191 213 212
3 192 193 214
3 192 214 213
3 193 194 215
3 193 215 214
3 194 195 216
3 194 216 215
3 195 196 217
3 195 217 216
3 196 197 218
3 196 218 217
3 197 198 219
3 197 219 218
3 198 199 220
3 198 220 219
3 199 200 221
3 199 221 220
3 200 201 222
3 200 222 221
3 201 202 223
3 201 223 222
3 202 203 224
3 202 224 223
3 203 204 225
3 203 225 224
3 204 205 226
3 204 226 225
3 205 206 227
3 205 227 226
3 206 207 228
3 206 228 227
3 207 208 229
3 207 229 228
3 208 209 230
3 208 230 229
3 210 211 232
3 210 232 231
3 211 212 233
3 211 233 232
3 212 213 234
3 212 234 233
3 213 214 235
3 213 235 234
3 214 215 236
3 214 236 235
3 215 216 237
3 215 237 236
3 216 217 238
3 216 238 237
3 217 218 239
3 217 239 238
3 218 219 240
3 218 240 239
3 219 220 241
3 219 241 240
3 220 221 242
3 220 242 241
3 221 222 243
3 221 243 242
3 222 223 244
3 222 244 243
3 223 224 245
3 223 245 244
3 224 225 246
3 224 246 245
3 225 226 247
3 225 247 246
3 226 227 248
3 226 248 247
3 227 228 249
3 227 249 248
3 228 229 250
3 228 250 249
3 229 230 251
3 229 251 250
3 231 232 253
3 231 253 252
3 232 233 254
3 232 254 253
3 233 234 255
3 233 255 254
3 234 235 256
3 234 256 255
3 235 236 257
3 235 257 256
3 236 237 258
3 236 258 257
3 237 238 259
3 237 259 258
3 238 239 260
3 238 260 259
3 239 240 261
3 239 261 260
3 240 241 262
3 240 262 261
3 241 242 263
3 241 263 262
3 242 243 264
3 242 264 263
3 243 244 265
3 243 265 264
3 244 245 266
3 244 266 265
3 245 246 267
3 245 267 266
3 246 247 268
3 246 268 267
3 247 248 269
3 247 269 268
3 248 249 270
3 248 270 269
3 249 250 271
3 249 271 270
3 250 251 272
3 250 272 271
3 252 253 274
3 252 274 273
3 253 254 275
3 253 275 274
3 254 255 276
3 254 276 275
3 255 256 277
3 255 277 276
3 256 257 278
3 256 278 277
3 257 258 279
3 257 279 278
3 258 259 280
3 258 280 279
3 259 260 281
3 259 281 280
3 260 261 282
3 260 282 281
3 261 262 283
3 261 283 282
3 262 263 284
3 262 284 283
3 263 264 285
3 263 285 284
3 264 265 286
3 264 286 285
3 265 266 287
3 265 287 286
3 266 267 288
3 266 288 287
3 267 268 289
3 267 289 288
3 268 269 290
3 268 290 289
3 269 270 291
3 269 291 290
3 270 271 292
3 270 292 291
3 271 272 293
3 271 293 292
3 273 274 295
3 273 295 294
3 274 275 296
3 274 296 295
3 275 276 297
3 275 297 296
3 276 277 298
3 276 298 297
3 277 278 299
3 277 299 298
3 278 279 300
3 278 300 299
3 279 280 301
3 279 301 300
3 280 281 302
3 280 302 301
3 281 282 303
3 281 303 302
3 282 283 304
3 282 304 303
3 283 284 305
3 283 305 304
3 284 285 306
3 284 306 305
3 285 286 307
3 285 307 306
3 286 287 308
3 286 308 307
3 287 288 309
3 287 309 308
3 288 289 310
3 288 310 309
3 289 290 311
3 289 311 310
3 290 291 312
3 290 312 311
3 291 292 313
3 291 313 312
3 292 293 314
3 292 314 313
3 294 295 316
3 294 316 315
3 295 296 317
3 295 317 316
3 296 297 318
3 296 318 317
3 297 298 319
3 297 319 318
3 298 299 320
3 298 320 319
3 299 300 321
3 299 321 320
3 300 301 322
3 300 322 321
3 301 302 323
3 301 323 322
3 302 303 324
3 302 324 323
3 303 304 325
3 303 325 324
3 304 305 326
3 304 326 325
3 305 306 327
3 305 327 326
3 306 307 328
3 306 328 327
3 307 308 329
3 307 329 328
3 308 309 330
3 308 330 329
3 309 310 331
3 309 331 330
3 310 311 332
3 310 332 331
3 311 312 333
3 311 333 332
3 312 313 334
3 312 334 333
3 313 314 335
3 313 335 334
3 315 316 337
3 315 337 336
3 316 317 338
3 316 338 337
3 317 318 339
3 317 339 338
3 318 319 340
3 318 340 339
3 319 320 341
3 319 341 340
3 320 321 342
3 320 342 341
3 321 322 343
3 321 343 342
3 322 323 344
3 322 344 343
3 323 324 345
3 323 345 344
3 324 325 346
3 324 346 345
3 325 326 347
3 325 347 346
3 326 327 348
3 326 348 347
3 327 328 349
3 327 349 348
3 328 329 350
3 328 350 349
3 329 330 351
3 329 351 350
3 330 331 352
3 330 352 351
3 331 332 353
3 331 353 352
3 332 333 354
3 332 354 353
3 333 334 355
3 333 355 354
3 334 335 356
3 334 356 355
3 336 337 358
3 336 358 357
3 337 338 359
3 337 359 358
3 338 339 360
3 338 360 359
3 339 340 361
3 339 361 360
3 340 341 362
3 340 362 361
3 341 342 363
3 341 363 362
3 342 343 364
3 342 364 363
3 343 344 365
3 343 365 364
3 344 345 366
3 344 366 365
3 345 346 367
3 345 367 366
3 346 347 368
3 346 368 367
3 347 348 369
3 347 369 368
3 348 349 370
3 348 370 369
3 349 350 371
3 349 371 370
3 350 351 372
3 350 372 371
3 351 352 373
3 351 373 372
3 352 353 374
3 352 374 373
3 353 354 375
3 353 375 374
3 354 355 376
3 354 376 375
3 355 356 377
3 355 377 376
3 357 358 379
3 357 379 378
3 358 359 380
3 358 380 379
3 359 360 381
3 359 381 380
3 360 361 382
3 360 382 381
3 361 362 383
3 361 383 382
3 362 363 384
3 362 384 383
3 363 364 385
3 363 385 384
3 364 365 386
3 364 386 385
3 365 366 387
3 365 387 386
3 366 367 388
3 366 388 387
3 367 368 389
3 367 389 388
3 368 369 390
3 368 390 389
3 369 370 391
3 369 391 390
3 370 371 392
3 370 392 391
3 371 372 393
3 371 393 392
3 372 373 394
3 372 394 393
3 373 374 395
3 373 395 394
3 374 375 396
3 374 396 395
3 375 376 397
3 375 397 396
3 376 377 398
3 376 398 397
3 378 379 400
3 378 400 399
3 379 380 401
3 379 401 400
3 380 381 402
3 380 402 401
3 381 382 403
3 381 403 402
3 382 383 404
3 382 404 403
3 383 384 405
3 383 405 404
3 384 385 406
3 384 406 405
3 385 386 407
3 385 407 406
3 386 387 408
3 386 408 407
3 387 388 409
3 387 409 408
3 388 389 410
3 388 410 409
3 389 390 411
3 389 411 410
3 390 391 412
3 390 412 411
3 391 392 413
3 391 413 412
3 392 393 414
3 392 414 413
3 393 394 415
3 393 415 414
3 394 395 416
3 394 416 415
3 395 396 417
3 395 417 416
3 396 397 418
3 396 418 417
3 397 398 419
3 397 419 418
3 399 400 421
3 399 421 420
3 400 401 422
3 400 422 421
3 401 402 423
3 401 423 422
3 402 403 424
3 402 424 423
3 403 404 425
3 403 425 424
3 404 405 426
3 404 426 425
3 405 406 427
3 405 427 426
3 406 407 428
3 406 428 427
3 407 408 429
3 407 429 428
3 408 409 430
3 408 430 429
3 409 410 431
3 409 431 430
3 410 411 432
3 410 432 431
3 411 412 433
3 411 433 432
3 412 413 434
3 412 434 433
3 413 414 435
3 413 435 434
3 414 415 436
3 414 436 435
3 415 416 437
3 415 437 436
3 416 417 438
3 416 438 437
3 417 418 439
3 417 439 438
3 418 419 440
3 418 440 439
CELL_TYPES 800
5
5
5
5
5
5
5
5
5
5
5
5
5
5
5
5
5
5
5
5
5
5
5
5
5
5
5
5
5
5
5
5
5
5
5
5
5
5
5
5
5
5
5
5
5
5
5
5
5
5
5
5
5
5
5
5
5
5
5
5
5
5
5
5
5
5
5
5
5
5
5
5
5
5
5
5
5
5
5
5
5
5
5
5
5
5
5
5
5
5
5
5
5
5
5
5
5
5
5
5
5
5
5
5
5
5
5
5
5
5
5
5
5
5
5
5
5
5
5
5
5
5
5
5
5
5
5
5
5
5
5
5
5
5
5
5
5
5
5
5
5
5
5
5
5
5
5
5
5
5
5
5
5
5
5
5
5
5
5
5
5
5
5
5
5
5
5
5
5
5
5
5
5
5
5
5
5
5
5
5
5
5
5
5
5
5
5
5
5
5
5
5
5
5
5
5
5
5
5
5
5
5
5
5
5
5
5
5
5
5
5
5
5
5
5
5
5
5
5
5
5
5
5
5
5
5
5
5
5
5
5
5
5
5
5
5
5
5
5
5
5
5
5
5
5
5
5
5
5
5
5
5
5
5
5
5
5
5
5
5
5
5
5
5
5
5
5
5
5
5
5
5
5
5
5
5
5
5
5
5
5
5
5
5
5
5
5
5
5
5
5
5
5
5
5
5
5
5
5
5
5
5
5
5
5
5
5
5
5
5
5
5
5
5
5
5
5
5
5
5
5
5
5
5
5
5
5
5
5
5
5
5
5
5
5
5
5
5
5
5
5
5
5
5
5
5
5
5
5
5
5
5
5
5
5
5
5
5
5
5
5
5
5
5
5
5
5
5
5
5
5
5
5
5
5
5
5
5
5
5
5
5
5
5
5
5
5
5
5
5
5
5
5
5
5
5
5
5
5
5
5
5
5
5
5
5
5
5
5
5
5
5
5
5
5
5
5
5
5
5
5
5
5
5
5
5
5
5
5
5
5
5
5
5
5
5
5
5
5
5
5
5
5
5
5
5
5
5
5
5
5
5
5
5
5
5
5
5
5
5
5
5
5
5
5
5
5
5
5
5
5
5
5
5
5
5
5
5
5
5
5
5
5
5
5
5
5
5
5
5
5
5
5
5
5
5
5
5
5
5
5
5
5
5
5
5
5
5
5
5
5
5
5
5
5
5
5
5
5
5
5
5
5
5
5
5
5
5
5
5
5
5
5
5
5
5
5
5
5
5
5
5
5
5
5
5
5
5
5
5
5
5
5
5
5
5
5
5
5
5
5
5
5
5
5
5
5
5
5
5
5
5
5
5
5
5
5
5
5
5
5
5
5
5
5
5
5
5
5
5
5
5
5
5
5
5
5
5
5
5
5
5
5
5
5
5
5
5
5
5
5
5
5
5
5
5
5
5
5
5
5
5
5
5
5
5
5
5
5
5
5
5
5
5
5
5
5
5
5
5
5
5
5
5
5
5
5
5
5
5
5
5
5
5
5
5
5
5
5
5
5
5
5
5
5
5
5
5
5
5
5
5
5
5
5
5
5
5
5
5
5
5
5
5
5
5
5
5
5
5
5
5
5
5
5
5
5
5
5
5
5
5
5
5
5
5
5
5
5
5
5
5
5
5
5
5
5
5
5
5
5
5
5
5
5
5
5
5
5
5
5
5
5
5
5
5
5
5
5
5
5
5
5
5
5
5
5
5
5
5
5
5
5
5
5
5
5
5
5
5
5
5
5
5
5
5
5
5
5
5
5
5
5
5
5
5
5
5
5
5
5
5
5
5
5
5
5
5
5
5
5
5
5
5
5
5
5
5
5
5
CELL_DATA 800
VECTORS Et double
0.0427287 -0.0644165 0
0.104886 -0.0419224 0
0.0377899 -0.166033 0
0.0937653 -0.145682 0
0.0290575 -0.251334 0
0.0731914 -0.235116 0
0.0173754 -0.311689 0
0.0452249 -0.301277 0
0.00389356 -0.340948 0
0.0125726 -0.337399 0
-0.0100487 -0.336133 0
-0.0216228 -0.339724 0
-0.0230615 -0.29776 0
-0.0540526 -0.307957 0
-0.0338469 -0.229751 0
-0.0815406 -0.245302 0
-0.0413319 -0.138971 0
-0.101341 -0.158099 0
-0.0447743 -0.0344664 0
-0.11141 -0.0551222 0
-0.0438331 0.0734905 0
-0.110619 0.0533755 0
-0.0385975 0.17443 0
-0.0988904 0.156724 0
-0.0295725 0.258679 0
-0.0772343 0.244898 0
-0.0176259 0.318239 0
-0.0476706 0.309455 0
-0.00390372 0.347469 0
-0.0130469 0.344287 0
0.0102782 0.34356 0
0.0232417 0.346124 0
0.0235564 0.306772 0
0.0575981 0.314784 0
0.0346452 0.240436 0
0.0866022 0.25317 0
0.0424567 0.150724 0
0.10738 0.167024 0
0.0462044 0.0462044 0
0.117931 0.0644747 0
0.182176 -0.0493516 0
0.231509 -0.0316579 0
0.163671 -0.130167 0
0.207993 -0.11392 0
0.128698 -0.198322 0
0.163743 -0.185344 0
0.0807058 -0.246788 0
0.103052 -0.238537 0
0.0243702 -0.270556 0
0.0317554 -0.26793 0
-0.034811 -0.267195 0
-0.0432783 -0.270409 0
-0.0910345 -0.237099 0
-0.114772 -0.24567 0
-0.138748 -0.183407 0
-0.175715 -0.196247 0
-0.173194 -0.111609 0
-0.220027 -0.127209 0
-0.190876 -0.028917 0
-0.243165 -0.0455691 0
-0.189919 0.0565181 0
-0.242594 0.0404962 0
-0.170261 0.136428 0
-0.218076 0.122511 0
-0.133682 0.203209 0
-0.171748 0.192548 0
-0.0836393 0.250589 0
-0.107947 0.243959 0
-0.0249432 0.274145 0
-0.0328189 0.27195 0
0.0367071 0.271646 0
0.0462869 0.273951 0
0.0952834 0.243229 0
0.121552 0.249789 0
0.145029 0.191395 0
0.185494 0.201676 0
0.181045 0.120838 0
0.231756 0.134019 0
0.199807 0.0380828 0
0.255776 0.0530682 0
0.2838 -0.0244253 0
0.30959 -0.0147913 0
0.255609 -0.0679129 0
0.278723 -0.0588347 0
0.201884 -0.104949 0
0.220317 -0.0976896 0
0.127831 -0.131495 0
0.13994 -0.127054 0
0.0406104 -0.144681 0
0.0452585 -0.143647 0
-0.0513106 -0.143138 0
-0.0546473 -0.145606 0
-0.138954 -0.127127 0
-0.150114 -0.132706 0
-0.213687 -0.0984628 0
-0.231794 -0.106365 0
-0.268056 -0.0602356 0
-0.29155 -0.0694356 0
-0.296531 -0.0164104 0
-0.323262 -0.0258229 0
-0.296068 0.0286428 0
-0.323468 0.0199979 0
-0.266437 0.0706059 0
-0.291758 0.0634895 0
-0.210284 0.105607 0
-0.230883 0.100513 0
-0.132899 0.130521 0
-0.146544 0.12769 0
-0.0417254 0.14317 0
-0.0468648 0.142649 0
0.054364 0.14244 0
0.0583885 0.144152 0
0.145939 0.128328 0
0.158792 0.132126 0
0.223962 0.101941 0
0.24433 0.107628 0
0.280706 0.0654403 0
0.306443 0.0727486 0
0.310564 0.0219161 0
0.33892 0.0304809 0
0.325973 0.00512546 0
0.322369 0.00516081 0
0.294114 0.00765881 0
0.290797 0.00806151 0
0.233116 0.00925107 0
0.230796 0.00952701 0
0.148798 0.0101687 0
0.147985 0.00993918 0
0.0492384 0.0105697 0
0.0501737 0.00966176 0
-0.055959 0.0104428 0
-0.0533349 0.00892739 0
-0.156565 0.00962122 0
-0.152585 0.00778579 0
-0.242696 0.00786686 0
-0.237892 0.00612898 0
-0.305768 0.00499943 0
-0.300769 0.00378415 0
-0.339355 0.00102603 0
-0.334771 0.00064227 0
-0.339848 -0.00377359 0
-0.336174 -0.00322251 0
-0.306853 -0.00884033 0
-0.304407 -0.00748621 0
-0.243279 -0.0134183 0
-0.242189 -0.0115893 0
-0.1551 -0.0167107 0
-0.15533 -0.0148355 0
-0.0508018 -0.0180693 0
-0.0522052 -0.016552 0
0.0594399 -0.0171672 0
0.057052 -0.0162689 0
0.164764 -0.0141049 0
0.161568 -0.0138655 0
0.254719 -0.00941949 0
0.250845 -0.00964143 0
0.320334 -0.00399212 0
0.315864 -0.004288 0
0.355047 0.00112246 0
0.350029 0.00123485 0
0.299427 0.0331427 0
0.266731 0.0240292 0
0.270727 0.0807944 0
0.241266 0.0728187 0
0.215513 0.120496 0
0.192601 0.113971 0
0.138943 0.148751 0
0.125167 0.143955 0
0.048258 0.162988 0
0.0451925 0.160191 0
-0.0478838 0.161769 0
-0.0398332 0.161229 0
-0.140198 0.144954 0
-0.121823 0.146868 0
-0.219652 0.113789 0
-0.19283 0.118214 0
-0.278337 0.0709024 0
-0.245802 0.0776657 0
-0.310258 0.0201645 0
-0.275284 0.028801 0
-0.311956 -0.033597 0
-0.27801 -0.0238607 0
-0.282903 -0.0850329 0
-0.25329 -0.0752224 0
-0.225613 -0.128823 0
-0.203163 -0.12009 0
-0.145443 -0.160278 0
-0.132277 -0.153728 0
-0.0501135 -0.175922 0
-0.0474721 -0.172417 0
0.0510387 -0.173942 0
0.0428658 -0.173941 0
0.147986 -0.154461 0
0.129658 -0.157916 0
0.231027 -0.119554 0
0.204075 -0.125896 0
0.291788 -0.0730141 0
0.258473 -0.0812379 0
0.324095 -0.0199061 0
0.287217 -0.0287193 0
0.209273 0.053832 0
0.153965 0.0378562 0
0.189909 0.136313 0
0.140129 0.121945 0
0.15234 0.205679 0
0.113343 0.193912 0
0.099941 0.255468 0
0.0758671 0.24714 0
0.0375257 0.280928 0
0.0309645 0.276692 0
-0.0290713 0.279444 0
-0.0173473 0.279728 0
-0.0935143 0.250821 0
-0.0646183 0.255763 0
-0.149551 0.19739 0
-0.106347 0.206763 0
-0.19161 0.123895 0
-0.138399 0.137053 0
-0.215367 0.0371585 0
-0.157422 0.053016 0
-0.218198 -0.0544938 0
-0.161227 -0.0374133 0
-0.199499 -0.142007 0
-0.149075 -0.125445 0
-0.160805 -0.216507 0
-0.121828 -0.202278 0
-0.105693 -0.270254 0
-0.0819428 -0.260005 0
-0.0394747 -0.297518 0
-0.0332744 -0.292489 0
0.0313141 -0.295265 0
0.0192863 -0.296088 0
0.0995636 -0.263549 0
0.0703162 -0.270127 0
0.158324 -0.205552 0
0.114446 -0.217048 0
0.201539 -0.127246 0
0.146959 -0.14219 0
0.22469 -0.0367413 0
0.164322 -0.0532277 0
0.0740531 0.0629647 0
0.00751775 0.0437224 0
0.0682259 0.162754 0
0.00835083 0.145216 0
0.0564476 0.247161 0
0.00934272 0.23274 0
0.0395588 0.308176 0
0.0100687 0.298056 0
0.0188807 0.339874 0
0.0100727 0.334952 0
-0.00386375 0.338961 0
0.00898034 0.33978 0
-0.0266689 0.305127 0
0.00660559 0.311803 0
-0.0474063 0.241163 0
0.00302155 0.253317 0
-0.0640201 0.152807 0
-0.00142343 0.169526 0
-0.0747403 0.0483101 0
-0.00615093 0.0681613 0
-0.0782922 -0.062281 0
-0.0104521 -0.0411633 0
-0.0740731 -0.168061 0
-0.0136224 -0.147813 0
-0.0622694 -0.258358 0
-0.0151044 -0.241156 0
-0.0438909 -0.323856 0
-0.0146076 -0.311648 0
-0.0207081 -0.357626 0
-0.0121808 -0.351866 0
0.00490882 -0.35593 0
-0.00821894 -0.357357 0
0.0302348 -0.318682 0
-0.0034013 -0.327197 0
0.0524933 -0.249508 0
0.00142702 -0.26416 0
0.0691788 -0.15538 0
0.00540801 -0.174479 0
0.0783528 -0.0458571 0
0.00782311 -0.0672014 0
-0.0780271 0.0587573 0
-0.141821 0.0403645 0
-0.0689954 0.15476 0
-0.126438 0.137816 0
-0.0523046 0.236436 0
-0.0976959 0.222429 0
-0.0298496 0.295976 0
-0.0586362 0.286148 0
-0.00412667 0.327543 0
-0.0134 0.322838 0
0.0220594 0.327818 0
0.0332576 0.328808 0
0.0459171 0.296347 0
0.0764982 0.30316 0
0.0649761 0.23568 0
0.111921 0.247932 0
0.0773426 0.151233 0
0.136016 0.167998 0
0.0818759 0.0508714 0
0.146496 0.0707067 0
0.0782708 -0.0557631 0
0.142494 -0.0347258 0
0.0670448 -0.15816 0
0.124588 -0.138048 0
0.0494378 -0.245985 0
0.0946913 -0.22896 0
0.0272476 -0.310165 0
0.0558087 -0.298161 0
0.00262301 -0.343887 0
0.0117087 -0.338354 0
-0.0221564 -0.343382 0
-0.0334552 -0.345077 0
-0.0448908 -0.308391 0
-0.0755321 -0.317253 0
-0.0636421 -0.242245 0
-0.110734 -0.257376 0
-0.0768758 -0.151532 0
-0.13594 -0.171308 0
-0.083562 -0.0453682 0
-0.148927 -0.0676638 0
-0.214928 0.0422536 0
-0.262323 0.0284532 0
-0.192907 0.114194 0
-0.235717 0.101384 0
-0.151131 0.1759 0
-0.185201 0.165239 0
-0.0938464 0.221489 0
-0.115839 0.21396 0
-0.0268823 0.246468 0
-0.0346519 0.242852 0
0.0429717 0.248155 0
0.0501641 0.248957 0
0.108677 0.225982 0
0.130093 0.231359 0
0.163662 0.181624 0
0.197163 0.191323 0
0.20248 0.118942 0
0.244748 0.132268 0
0.221335 0.0437058 0
0.268204 0.0595337 0
0.218438 -0.0368908 0
0.265309 -0.0200458 0
0.194146 -0.114896 0
0.236442 -0.0987471 0
0.150894 -0.182391 0
0.184507 -0.1687 0
0.092927 -0.232333 0
0.114612 -0.222695 0
0.0258619 -0.259331 0
0.033543 -0.254967 0
-0.0438715 -0.260287 0
-0.0509041 -0.261863 0
-0.109647 -0.234784 0
-0.130676 -0.242303 0
-0.165267 -0.18519 0
-0.19822 -0.197963 0
-0.205519 -0.116426 0
-0.24717 -0.133148 0
-0.226636 -0.0354162 0
-0.272876 -0.0543528 0
-0.307469 0.0171597 0
-0.327943 0.0104707 0
-0.277188 0.049754 0
-0.296153 0.0437447 0
-0.219086 0.0783529 0
-0.234509 0.0732702 0
-0.138902 0.10033 0
-0.149336 0.0966343 0
-0.0446223 0.113502 0
-0.0491446 0.111644 0
0.0543681 0.116376 0
0.0561104 0.116707 0
0.148236 0.108332 0
0.156 0.111041 0
0.22768 0.0897491 0
0.240651 0.094809 0
0.284848 0.0620511 0
0.301719 0.0691785 0
0.314103 0.0276494 0
0.333204 0.0362917 0
0.312568 -0.0102299 0
0.332029 -0.000868462 0
0.280391 -0.0478305 0
0.298325 -0.0387225 0
0.220713 -0.0812435 0
0.235402 -0.073433 0
0.139343 -0.106837 0
0.149407 -0.101309 0
0.0441766 -0.121684 0
0.048707 -0.11923 0
-0.0555787 -0.123937 0
-0.0569281 -0.125033 0
-0.150302 -0.113081 0
-0.157283 -0.117806 0
-0.230883 -0.0900453 0
-0.242687 -0.0980436 0
-0.289591 -0.0571655 0
-0.30497 -0.0676375 0
-0.320758 -0.018122 0
-0.338356 -0.0297255 0
-0.338921 -0.0118647 0
-0.345633 -0.00283056 0
-0.306734 -0.0206915 0
-0.31192 -0.0137751 0
-0.24384 -0.0260979 0
-0.247513 -0.0216624 0
-0.156619 -0.0275319 0
-0.15869 -0.0258683 0
-0.0536983 -0.0249581 0
-0.054195 -0.0260392 0
0.054787 -0.0188987 0
0.0556739 -0.0223446 0
0.158157 -0.0103499 0
0.160099 -0.0154865 0
0.246232 -0.000613469 0
0.248814 -0.00658615 0
0.310328 0.00892056 0
0.313114 0.00300452 0
0.344109 0.0169974 0
0.34671 0.0119263 0
0.344209 0.0226864 0
0.346338 0.019028 0
0.31056 0.0255023 0
0.312068 0.0235333 0
0.246402 0.0254393 0
0.247282 0.0251324 0
0.157958 0.022919 0
0.158336 0.0239838 0
0.0538329 0.0186678 0
0.0539242 0.0206338 0
-0.055839 0.0135558 0
-0.0557707 0.0158768 0
-0.160382 0.00843241 0
-0.160072 0.0105873 0
-0.249633 0.00399913 0
-0.248842 0.00556301 0
-0.314954 0.000768061 0
-0.313448 0.00141419 0
-0.350196 -0.000761119 0
-0.34754 -0.00145774 0
-0.333613 -0.0510374 0
-0.350111 -0.0126755 0
-0.30157 -0.105593 0
-0.316034 -0.0717111 0
-0.240045 -0.148672 0
-0.251234 -0.1226 0
-0.15496 -0.175995 0
-0.161988 -0.160193 0
-0.0546176 -0.184968 0
-0.0570179 -0.180815 0
0.051162 -0.174933 0
0.0533991 -0.182596 0
0.152016 -0.147191 0
0.15845 -0.165638 0
0.238056 -0.104823 0
0.247857 -0.13196 0
0.300842 -0.0523171 0
0.312892 -0.0852383 0
0.334206 0.00493999 0
0.347226 -0.0303764 0
0.334862 0.061237 0
0.347552 0.0270377 0
0.302725 0.111121 0
0.313896 0.0813195 0
0.240925 0.149923 0
0.249611 0.127256 0
0.155496 0.17417 0
0.161034 0.160595 0
0.0547879 0.181868 0
0.0568655 0.17841 0
-0.0513518 0.172627 0
-0.0526861 0.179326 0
-0.152541 0.147634 0
-0.156899 0.163576 0
-0.238876 0.109494 0
-0.245577 0.132929 0
-0.301888 0.061956 0
-0.310027 0.0904772 0
-0.335306 0.00951462 0
-0.343881 0.0403226 0
-0.31867 -0.0893849 0
-0.344686 -0.022302 0
-0.288108 -0.188497 0
-0.311315 -0.128499 0
-0.229728 -0.268249 0
-0.247954 -0.221265 0
-0.149121 -0.320759 0
-0.160739 -0.291333 0
-0.0541005 -0.340945 0
-0.058156 -0.331822 0
0.0460866 -0.327004 0
0.0497968 -0.338881 0
0.141673 -0.280556 0
0.152596 -0.312039 0
0.223334 -0.206435 0
0.240229 -0.254208 0
0.283099 -0.112165 0
0.304179 -0.171351 0
0.31514 -0.0071673 0
0.33826 -0.0718386 0
0.31634 0.0981994 0
0.339216 0.0344158 0
0.286605 0.193668 0
0.307043 0.136961 0
0.228867 0.270061 0
0.244975 0.225836 0
0.148806 0.320161 0
0.159166 0.292534 0
0.0542882 0.339363 0
0.0580831 0.330792 0
-0.0453978 0.326078 0
-0.048323 0.337155 0
-0.140453 0.28183 0
-0.149591 0.311258 0
-0.221521 0.211069 0
-0.235765 0.255816 0
-0.280592 0.120704 0
-0.298362 0.176321 0
-0.311764 0.019399 0
-0.331195 0.0804821 0
-0.294441 -0.125674 0
-0.329314 -0.0314291 0
-0.266368 -0.266984 0
-0.297626 -0.182373 0
-0.212841 -0.381445 0
-0.237496 -0.314793 0
-0.138989 -0.45779 0
-0.154742 -0.415585 0
-0.051941 -0.488593 0
-0.0573888 -0.474863 0
0.0398704 -0.47098 0
0.0451096 -0.486912 0
0.127537 -0.406879 0
0.142799 -0.450729 0
0.202546 -0.302797 0
0.226203 -0.370085 0
0.25762 -0.169133 0
0.287249 -0.253113 0
0.287428 -0.0191258 0
0.320061 -0.111472 0
0.289108 0.132478 0
0.321536 0.0408397 0
0.262556 0.270875 0
0.29164 0.188871 0
0.210431 0.382652 0
0.233409 0.318196 0
0.137899 0.457075 0
0.152648 0.416305 0
0.0521297 0.487097 0
0.0573616 0.473809 0
-0.0384074 0.470013 0
-0.0430347 0.485311 0
-0.12477 0.407672 0
-0.138632 0.449892 0
-0.198416 0.306272 0
-0.219995 0.371164 0
-0.25204 0.17572 0
-0.27909 0.256885 0
-0.280288 0.028654 0
-0.310069 0.118182 0
-0.261432 -0.15883 0
-0.30423 -0.0397893 0
-0.236704 -0.338802 0
-0.275135 -0.231744 0
-0.189594 -0.485062 0
-0.219942 -0.400495 0
-0.124611 -0.58326 0
-0.143978 -0.529435 0
-0.0480051 -0.623827 0
-0.0545848 -0.605937 0
0.0328366 -0.602913 0
0.0395849 -0.622591 0
0.110106 -0.522733 0
0.129415 -0.577909 0
0.176337 -0.391323 0
0.20622 -0.476452 0
0.22514 -0.221718 0
0.262593 -0.328342 0
0.251826 -0.0306451 0
0.293134 -0.148244 0
0.253871 0.163141 0
0.294975 0.046107 0
0.23116 0.340701 0
0.268062 0.235654 0
0.186006 0.48476 0
0.215153 0.401896 0
0.122921 0.581382 0
0.14155 0.528682 0
0.0481787 0.621302 0
0.0545735 0.603774 0
-0.0308031 0.6008 0
-0.0371519 0.620011 0
-0.106186 0.522028 0
-0.124543 0.575974 0
-0.17048 0.392778 0
-0.198946 0.476096 0
-0.217284 0.2257 0
-0.25299 0.330201 0
-0.241918 0.0370581 0
-0.281311 0.152537 0
-0.220396 -0.187899 0
-0.26998 -0.0471348 0
-0.199751 -0.401902 0
-0.244316 -0.275179 0
-0.160442 -0.576176 0
-0.195639 -0.475916 0
-0.106214 -0.693653 0
-0.128623 -0.629655 0
-0.0422556 -0.742883 0
-0.0497215 -0.721363 0
0.0252944 -0.719152 0
0.0334518 -0.742133 0
0.0899439 -0.624924 0
0.112867 -0.690053 0
0.145479 -0.469579 0
0.180866 -0.570372 0
0.186573 -0.268464 0
0.230909 -0.394962 0
0.209308 -0.0413704 0
0.258221 -0.181125 0
0.211562 0.18943 0
0.260251 0.0501217 0
0.193216 0.401367 0
0.236928 0.276118 0
0.156173 0.57378 0
0.190662 0.474787 0
0.104166 0.689925 0
0.126107 0.626783 0
0.0423988 0.73859 0
0.0497028 0.717371 0
-0.0229637 0.715163 0
-0.0309531 0.73784 0
-0.0854018 0.62206 0
-0.107851 0.686331 0
-0.138681 0.468469 0
-0.173354 0.567992 0
-0.177469 0.269439 0
-0.220945 0.394457 0
-0.19787 0.0444137 0
-0.245879 0.182706 0
-0.172354 -0.212051 0
-0.227424 -0.0532448 0
-0.156414 -0.454491 0
-0.205945 -0.311418 0
-0.126077 -0.652209 0
-0.165196 -0.538888 0
-0.0842025 -0.785864 0
-0.109053 -0.71339 0
-0.0347667 -0.842425 0
-0.0428976 -0.817872 0
0.0175171 -0.816447 0
0.026904 -0.842172 0
0.067653 -0.710595 0
0.093627 -0.78401 0
0.11085 -0.535362 0
0.150848 -0.649205 0
0.14299 -0.308022 0
0.193074 -0.45108 0
0.161034 -0.0509149 0
0.216282 -0.209136 0
0.163321 0.210752 0
0.218316 0.0528747 0
0.14973 0.451383 0
0.199089 0.309289 0
0.121699 0.647491 0
0.160599 0.535046 0
0.0820812 0.779988 0
0.106727 0.708135 0
0.0348687 0.836032 0
0.0428581 0.811733 0
-0.0151972 0.810262 0
-0.0246446 0.835834 0
-0.0630916 0.705304 0
-0.0890639 0.778199 0
-0.104 0.531496 0
-0.143983 0.644564 0
-0.133796 0.305882 0
-0.183912 0.448063 0
-0.149457 0.0505518 0
-0.204832 0.207946 0
-0.118583 -0.23059 0
-0.177713 -0.057932 0
-0.107848 -0.495059 0
-0.161084 -0.339394 0
-0.0874156 -0.710996 0
-0.129475 -0.587583 0
-0.0591624 -0.857282 0
-0.0858396 -0.778235 0
-0.0257302 -0.919643 0
-0.0343363 -0.892713 0
0.00972685 -0.892053 0
0.0200891 -0.919864 0
0.0438487 -0.777318 0
0.0721968 -0.85711 0
0.0733993 -0.586784 0
0.116971 -0.710698 0
0.0955837 -0.339205 0
0.150116 -0.495062 0
0.108324 -0.0588927 0
0.168472 -0.231401 0
0.110465 0.226678 0
0.170332 0.0544209 0
0.101887 0.489566 0
0.155604 0.334415 0
0.083523 0.704093 0
0.125819 0.581209 0
0.0572664 0.849351 0
0.0839812 0.770722 0
0.0257882 0.911225 0
0.0342743 0.884509 0
-0.0077236 0.88376 0
-0.0183483 0.911547 0
-0.0398756 0.769728 0
-0.0686456 0.849293 0
-0.0674009 0.580342 0
-0.111597 0.703922 0
-0.087481 0.334168 0
-0.142884 0.489708 0
-0.0980289 0.0553358 0
-0.159303 0.22764 0
-0.0605808 -0.242952 0
-0.122234 -0.0610494 0
-0.0554314 -0.522417 0
-0.111058 -0.358249 0
-0.045579 -0.750846 0
-0.0895788 -0.620557 0
-0.0318434 -0.90587 0
-0.0597408 -0.822302 0
-0.0154527 -0.972342 0
-0.0243788 -0.94373 0
0.00208669 -0.943816 0
0.0131064 -0.97298 0
0.0191436 -0.823177 0
0.0490975 -0.907252 0
0.0341256 -0.622335 0
0.0801212 -0.753062 0
0.0456376 -0.361045 0
0.103191 -0.525593 0
0.0526196 -0.0649519 0
0.116101 -0.247188 0
0.0544529 0.236926 0
0.117641 0.0548558 0
0.0510224 0.515048 0
0.107715 0.350963 0
0.0427296 0.742238 0
0.0873484 0.612184 0
0.0304553 0.896331 0
0.0585887 0.813019 0
0.0154744 0.962336 0
0.0243031 0.933904 0
-0.000666856 0.933873 0
-0.0121005 0.963108 0
-0.0163007 0.813789 0
-0.0470052 0.897862 0
-0.0297974 0.613866 0
-0.0769324 0.744617 0
-0.0397178 0.353665 0
-0.0988649 0.518397 0
-0.0449449 0.0586634 0
-0.110493 0.241338 0
3.82091e-06 -0.248676 0
-0.0624948 -0.0624948 0
-0.000727395 -0.535715 0
-0.057448 -0.367312 0
-0.00186477 -0.77059 0
-0.0468293 -0.636778 0
-0.00314044 -0.930232 0
-0.0316752 -0.844285 0
-0.00434426 -0.999012 0
-0.0134677 -0.969437 0
-0.00529965 -0.970246 0
0.00601253 -0.999982 0
-0.00586675 -0.846834 0
0.0248616 -0.932973 0
-0.00595103 -0.64095 0
0.0412399 -0.775044 0
-0.00551036 -0.372836 0
0.0535525 -0.541734 0
-0.00455751 -0.068804 0
0.0606049 -0.255949 0
-0.00315742 0.241354 0
0.0617196 0.0542931 0
-0.00141922 0.527283 0
0.0568008 0.358618 0
0.000515988 0.76104 0
0.0463433 0.627271 0
0.00249045 0.919811 0
0.0313821 0.83402 0
0.00434641 0.988135 0
0.0133911 0.958718 0
0.00594289 0.959398 0
-0.0058624 0.989254 0
0.00717149 0.836455 0
-0.0244899 0.922719 0
0.00797201 0.631337 0
-0.0406661 0.765677 0
0.0083531 0.364032 0
-0.0528065 0.533494 0
0.00843833 0.0604676 0
-0.0597206 0.248815 0
