# vtk DataFile Version 3.0
tp3485 cell-vector
ASCII
DATASET UNSTRUCTURED_GRID
POINTS 441 double
0 0 0
0.05 0 0
0.1 0 0
0.15 0 0
0.2 0 0
0.25 0 0
0.3 0 0
0.35 0 0
0.4 0 0
0.45 0 0
0.5 0 0
0.55 0 0
0.6 0 0
0.65 0 0
0.7 0 0
0.75 0 0
0.8 0 0
0.85 0 0
0.9 0 0
0.95 0 0
1 0 0
0 0.05 0
0.05 0.05 0
0.1 0.05 0
0.15 0.05 0
0.2 0.05 0
0.25 0.05 0
0.3 0.05 0
0.35 0.05 0
0.4 0.05 0
0.45 0.05 0
0.5 0.05 0
0.55 0.05 0
0.6 0.05 0
0.65 0.05 0
0.7 0.05 0
0.75 0.05 0
0.8 0.05 0
0.85 0.05 0
0.9 0.05 0
0.95 0.05 0
1 0.05 0
0 0.1 0
0.05 0.1 0
0.1 0.1 0
0.15 0.1 0
0.2 0.1 0
0.25 0.1 0
0.3 0.1 0
0.35 0.1 0
0.4 0.1 0
0.45 0.1 0
0.5 0.1 0
0.55 0.1 0
0.6 0.1 0
0.65 0.1 0
0.7 0.1 0
0.75 0.1 0
0.8 0.1 0
0.85 0.1 0
0.9 0.1 0
0.95 0.1 0
1 0.1 0
0 0.15 0
0.05 0.15 0
0.1 0.15 0
0.15 0.15 0
0.2 0.15 0
0.25 0.15 0
0.3 0.15 0
0.35 0.15 0
0.4 0.15 0
0.45 0.15 0
0.5 0.15 0
0.55 0.15 0
0.6 0.15 0
0.65 0.15 0
0.7 0.15 0
0.75 0.15 0
0.8 0.15 0
0.85 0.15 0
0.9 0.15 0
0.95 0.15 0
1 0.15 0
0 0.2 0
0.05 0.2 0
0.1 0.2 0
0.15 0.2 0
0.2 0.2 0
0.25 0.2 0
0.3 0.2 0
0.35 0.2 0
0.4 0.2 0
0.45 0.2 0
0.5 0.2 0
0.55 0.2 0
0.6 0.2 0
0.65 0.2 0
0.7 0.2 0
0.75 0.2 0
0.8 0.2 0
0.85 0.2 0
0.9 0.2 0
0.95 0.2 0
1 0.2 0
0 0.25 0
0.05 0.25 0
0.1 0.25 0
0.15 0.25 0
0.2 0.25 0
0.25 0.25 0
0.3 0.25 0
0.35 0.25 0
0.4 0.25 0
0.45 0.25 0
0.5 0.25 0
0.55 0.25 0
0.6 0.25 0
0.65 0.25 0
0.7 0.25 0
0.75 0.25 0
0.8 0.25 0
0.85 0.25 0
0.9 0.25 0
0.95 0.25 0
1 0.25 0
0 0.3 0
0.05 0.3 0
0.1 0.3 0
0.15 0.3 0
0.2 0.3 0
0.25 0.3 0
0.3 0.3 0
0.35 0.3 0
0.4 0.3 0
0.45 0.3 0
0.5 0.3 0
0.55 0.3 0
0.6 0.3 0
0.65 0.3 0
0.7 0.3 0
0.75 0.3 0
0.8 0.3 0
0.85 0.3 0
0.9 0.3 0
0.95 0.3 0
1 0.3 0
0 0.35 0
0.05 0.35 0
0.1 0.35 0
0.15 0.35 0
0.2 0.35 0
0.25 0.35 0
0.3 0.35 0
0.35 0.35 0
0.4 0.35 0
0.45 0.35 0
0.5 0.35 0
0.55 0.35 0
0.6 0.35 0
0.65 0.35 0
0.7 0.35 0
0.75 0.35 0
0.8 0.35 0
0.85 0.35 0
0.9 0.35 0
0.95 0.35 0
1 0.35 0
0 0.4 0
0.05 0.4 0
0.1 0.4 0
0.15 0.4 0
0.2 0.4 0
0.25 0.4 0
0.3 0.4 0
0.35 0.4 0
0.4 0.4 0
0.45 0.4 0
0.5 0.4 0
0.55 0.4 0
0.6 0.4 0
0.65 0.4 0
0.7 0.4 0
0.75 0.4 0
0.8 0.4 0
0.85 0.4 0
0.9 0.4 0
0.95 0.4 0
1 0.4 0
0 0.45 0
0.05 0.45 0
0.1 0.45 0
0.15 0.45 0
0.2 0.45 0
0.25 0.45 0
0.3 0.45 0
0.35 0.45 0
0.4 0.45 0
0.45 0.45 0
0.5 0.45 0
0.55 0.45 0
0.6 0.45 0
0.65 0.45 0
0.7 0.45 0
0.75 0.45 0
0.8 0.45 0
0.85 0.45 0
0.9 0.45 0
0.95 0.45 0
1 0.45 0
0 0.5 0
0.05 0.5 0
0.1 0.5 0
0.15 0.5 0
0.2 0.5 0
0.25 0.5 0
0.3 0.5 0
0.35 0.5 0
0.4 0.5 0
0.45 0.5 0
0.5 0.5 0
0.55 0.5 0
0.6 0.5 0
0.65 0.5 0
0.7 0.5 0
0.75 0.5 0
0.8 0.5 0
0.85 0.5 0
0.9 0.5 0
0.95 0.5 0
1 0.5 0
0 0.55 0
0.05 0.55 0
0.1 0.55 0
0.15 0.55 0
0.2 0.55 0
0.25 0.55 0
0.3 0.55 0
0.35 0.55 0
0.4 0.55 0
0.45 0.55 0
0.5 0.55 0
0.55 0.55 0
0.6 0.55 0
0.65 0.55 0
0.7 0.55 0
0.75 0.55 0
0.8 0.55 0
0.85 0.55 0
0.9 0.55 0
0.95 0.55 0
1 0.55 0
0 0.6 0
0.05 0.6 0
0.1 0.6 0
0.15 0.6 0
0.2 0.6 0
0.25 0.6 0
0.3 0.6 0
0.35 0.6 0
0.4 0.6 0
0.45 0.6 0
0.5 0.6 0
0.55 0.6 0
0.6 0.6 0
0.65 0.6 0
0.7 0.6 0
0.75 0.6 0
0.8 0.6 0
0.85 0.6 0
0.9 0.6 0
0.95 0.6 0
1 0.6 0
0 0.65 0
0.05 0.65 0
0.1 0.65 0
0.15 0.65 0
0.2 0.65 0
0.25 0.65 0
0.3 0.65 0
0.35 0.65 0
0.4 0.65 0
0.45 0.65 0
0.5 0.65 0
0.55 0.65 0
0.6 0.65 0
0.65 0.65 0
0.7 0.65 0
0.75 0.65 0
0.8 0.65 0
0.85 0.65 0
0.9 0.65 0
0.95 0.65 0
1 0.65 0
0 0.7 0
0.05 0.7 0
0.1 0.7 0
0.15 0.7 0
0.2 0.7 0
0.25 0.7 0
0.3 0.7 0
0.35 0.7 0
0.4 0.7 0
0.45 0.7 0
0.5 0.7 0
0.55 0.7 0
0.6 0.7 0
0.65 0.7 0
0.7 0.7 0
0.75 0.7 0
0.8 0.7 0
0.85 0.7 0
0.9 0.7 0
0.95 0.7 0
1 0.7 0
0 0.75 0
0.05 0.75 0
0.1 0.75 0
0.15 0.75 0
0.2 0.75 0
0.25 0.75 0
0.3 0.75 0
0.35 0.75 0
0.4 0.75 0
0.45 0.75 0
0.5 0.75 0
0.55 0.75 0
0.6 0.75 0
0.65 0.75 0
0.7 0.75 0
0.75 0.75 0
0.8 0.75 0
0.85 0.75 0
0.9 0.75 0
0.95 0.75 0
1 0.75 0
0 0.8 0
0.05 0.8 0
0.1 0.8 0
0.15 0.8 0
0.2 0.8 0
0.25 0.8 0
0.3 0.8 0
0.35 0.8 0
0.4 0.8 0
0.45 0.8 0
0.5 0.8 0
0.55 0.8 0
0.6 0.8 0
0.65 0.8 0
0.7 0.8 0
0.75 0.8 0
0.8 0.8 0
0.85 0.8 0
0.9 0.8 0
0.95 0.8 0
1 0.8 0
0 0.85 0
0.05 0.85 0
0.1 0.85 0
0.15 0.85 0
0.2 0.85 0
0.25 0.85 0
0.3 0.85 0
0.35 0.85 0
0.4 0.85 0
0.45 0.85 0
0.5 0.85 0
0.55 0.85 0
0.6 0.85 0
0.65 0.85 0
0.7 0.85 0
0.75 0.85 0
0.8 0.85 0
0.85 0.85 0
0.9 0.85 0
0.95 0.85 0
1 0.85 0
0 0.9 0
0.05 0.9 0
0.1 0.9 0
0.15 0.9 0
0.2 0.9 0
0.25 0.9 0
0.3 0.9 0
0.35 0.9 0
0.4 0.9 0
0.45 0.9 0
0.5 0.9 0
0.55 0.9 0
0.6 0.9 0
0.65 0.9 0
0.7 0.9 0
0.75 0.9 0
0.8 0.9 0
0.85 0.9 0
0.9 0.9 0
0.95 0.9 0
1 0.9 0
0 0.95 0
0.05 0.95 0
0.1 0.95 0
0.15 0.95 0
0.2 0.95 0
0.25 0.95 0
0.3 0.95 0
0.35 0.95 0
0.4 0.95 0
0.45 0.95 0
0.5 0.95 0
0.55 0.95 0
0.6 0.95 0
0.65 0.95 0
0.7 0.95 0
0.75 0.95 0
0.8 0.95 0
0.85 0.95 0
0.9 0.95 0
0.95 0.95 0
1 0.95 0
0 1 0
0.05 1 0
0.1 1 0
0.15 1 0
0.2 1 0
0.25 1 0
0.3 1 0
0.35 1 0
0.4 1 0
0.45 1 0
0.5 1 0
0.55 1 0
0.6 1 0
0.65 1 0
0.7 1 0
0.75 1 0
0.8 1 0
0.85 1 0
0.9 1 0
0.95 1 0
1 1 0
CELLS 800 3200
3 0 1 22
3 0 22 21
3 1 2 23
3 1 23 22
3 2 3 24
3 2 24 23
3 3 4 25
3 3 25 24
3 4 5 26
3 4 26 25
3 5 6 27
3 5 27 26
3 6 7 28
3 6 28 27
3 7 8 29
3 7 29 28
3 8 9 30
3 8 30 29
3 9 10 31
3 9 31 30
3 10 11 32
3 10 32 31
3 11 12 33
3 11 33 32
3 12 13 34
3 12 34 33
3 13 14 35
3 13 35 34
3 14 15 36
3 14 36 35
3 15 16 37
3 15 37 36
3 16 17 38
3 16 38 37
3 17 18 39
3 17 39 38
3 18 19 40
3 18 40 39
3 19 20 41
3 19 41 40
3 21 22 43
3 21 43 42
3 22 23 44
3 22 44 43
3 23 24 45
3 23 45 44
3 24 25 46
3 24 46 45
3 25 26 47
3 25 47 46
3 26 27 48
3 26 48 47
3 27 28 49
3 27 49 48
3 28 29 50
3 28 50 49
3 29 30 51
3 29 51 50
3 30 31 52
3 30 52 51
3 31 32 53
3 31 53 52
3 32 33 54
3 32 54 53
3 33 34 55
3 33 55 54
3 34 35 56
3 34 56 55
3 35 36 57
3 35 57 56
3 36 37 58
3 36 58 57
3 37 38 59
3 37 59 58
3 38 39 60
3 38 60 59
3 39 40 61
3 39 61 60
3 40 41 62
3 40 62 61
3 42 43 64
3 42 64 63
3 43 44 65
3 43 65 64
3 44 45 66
3 44 66 65
3 45 46 67
3 45 67 66
3 46 47 68
3 46 68 67
3 47 48 69
3 47 69 68
3 48 49 70
3 48 70 69
3 49 50 71
3 49 71 70
3 50 51 72
3 50 72 71
3 51 52 73
3 51 73 72
3 52 53 74
3 52 74 73
3 53 54 75
3 53 75 74
3 54 55 76
3 54 76 75
3 55 56 77
3 55 77 76
3 56 57 78
3 56 78 77
3 57 58 79
3 57 79 78
3 58 59 80
3 58 80 79
3 59 60 81
3 59 81 80
3 60 61 82
3 60 82 81
3 61 62 83
3 61 83 82
3 63 64 85
3 63 85 84
3 64 65 86
3 64 86 85
3 65 66 87
3 65 87 86
3 66 67 88
3 66 88 87
3 67 68 89
3 67 89 88
3 68 69 90
3 68 90 89
3 69 70 91
3 69 91 90
3 70 71 92
3 70 92 91
3 71 72 93
3 71 93 92
3 72 73 94
3 72 94 93
3 73 74 95
3 73 95 94
3 74 75 96
3 74 96 95
3 75 76 97
3 75 97 96
3 76 77 98
3 76 98 97
3 77 78 99
3 77 99 98
3 78 79 100
3 78 100 99
3 79 80 101
3 79 101 100
3 80 81 102
3 80 102 101
3 81 82 103
3 81 103 102
3 82 83 104
3 82 104 103
3 84 85 106
3 84 106 105
3 85 86 107
3 85 107 106
3 86 87 108
3 86 108 107
3 87 88 109
3 87 109 108
3 88 89 110
3 88 110 109
3 89 90 111
3 89 111 110
3 90 91 112
3 90 112 111
3 91 92 113
3 91 113 112
3 92 93 114
3 92 114 113
3 93 94 115
3 93 115 114
3 94 95 116
3 94 116 115
3 95 96 117
3 95 117 116
3 96 97 118
3 96 118 117
3 97 98 119
3 97 119 118
3 98 99 120
3 98 120 119
3 99 100 121
3 99 121 120
3 100 101 122
3 100 122 121
3 101 102 123
3 101 123 122
3 102 103 124
3 102 124 123
3 103 104 125
3 103 125 124
3 105 106 127
3 105 127 126
3 106 107 128
3 106 128 127
3 107 108 129
3 107 129 128
3 108 109 130
3 108 130 129
3 109 110 131
3 109 131 130
3 110 111 132
3 110 132 131
3 111 112 133
3 111 133 132
3 112 113 134
3 112 134 133
3 113 114 135
3 113 135 134
3 114 115 136
3 114 136 135
3 115 116 137
3 115 137 136
3 116 117 138
3 116 138 137
3 117 118 139
3 117 139 138
3 118 119 140
3 118 140 139
3 119 120 141
3 119 141 140
3 120 121 142
3 120 142 141
3 121 122 143
3 121 143 142
3 122 123 144
3 122 144 143
3 123 124 145
3 123 145 144
3 124 125 146
3 124 146 145
3 126 127 148
3 126 148 147
3 127 128 149
3 127 149 148
3 128 129 150
3 128 150 149
3 129 130 151
3 129 151 150
3 130 131 152
3 130 152 151
3 131 132 153
3 131 153 152
3 132 133 154
3 132 154 153
3 133 134 155
3 133 155 154
3 134 135 156
3 134 156 155
3 135 136 157
3 135 157 156
3 136 137 158
3 136 158 157
3 137 138 159
3 137 159 158
3 138 139 160
3 138 160 159
3 139 140 161
3 139 161 160
3 140 141 162
3 140 162 161
3 141 142 163
3 141 163 162
3 142 143 164
3 142 164 163
3 143 144 165
3 143 165 164
3 144 145 166
3 144 166 165
3 145 146 167
3 145 167 166
3 147 148 169
3 147 169 168
3 148 149 170
3 148 170 169
3 149 150 171
3 149 171 170
3 150 151 172
3 150 172 171
3 151 152 173
3 151 173 172
3 152 153 174
3 152 174 173
3 153 154 175
3 153 175 174
3 154 155 176
3 154 176 175
3 155 156 177
3 155 177 176
3 156 157 178
3 156 178 177
3 157 158 179
3 157 179 178
3 158 159 180
3 158 180 179
3 159 160 181
3 159 181 180
3 160 161 182
3 160 182 181
3 161 162 183
3 161 183 182
3 162 163 184
3 162 184 183
3 163 164 185
3 163 185 184
3 164 165 186
3 164 186 185
3 165 166 187
3 165 187 186
3 166 167 188
3 166 188 187
3 168 169 190
3 168 190 189
3 169 170 191
3 169 191 190
3 170 171 192
3 170 192 191
3 171 172 193
3 171 193 192
3 172 173 194
3 172 194 193
3 173 174 195
3 173 195 194
3 174 175 196
3 174 196 195
3 175 176 197
3 175 197 196
3 176 177 198
3 176 198 197
3 177 178 199
3 177 199 198
3 178 179 200
3 178 200 199
3 179 180 201
3 179 201 200
3 180 181 202
3 180 202 201
3 181 182 203
3 181 203 202
3 182 183 204
3 182 204 203
3 183 184 205
3 183 205 204
3 184 185 206
3 184 206 205
3 185 186 207
3 185 207 206
3 186 187 208
3 186 208 207
3 187 188 209
3 187 209 208
3 189 190 211
3 189 211 210
3 190 191 212
3 190 212 211
3 191 192 213
3 191 213 212
3 192 193 214
3 192 214 213
3 193 194 215
3 193 215 214
3 194 195 216
3 194 216 215
3 195 196 217
3 195 217 216
3 196 197 218
3 196 218 217
3 197 198 219
3 197 219 218
3 198 199 220
3 198 220 219
3 199 200 221
3 199 221 220
3 200 201 222
3 200 222 221
3 201 202 223
3 201 223 222
3 202 203 224
3 202 224 223
3 203 204 225
3 203 225 224
3 204 205 226
3 204 226 225
3 205 206 227
3 205 227 226
3 206 207 228
3 206 228 227
3 207 208 229
3 207 229 228
3 208 209 230
3 208 230 229
3 210 211 232
3 210 232 231
3 211 212 233
3 211 233 232
3 212 213 234
3 212 234 233
3 213 214 235
3 213 235 234
3 214 215 236
3 214 236 235
3 215 216 237
3 215 237 236
3 216 217 238
3 216 238 237
3 217 218 239
3 217 239 238
3 218 219 240
3 218 240 239
3 219 220 241
3 219 241 240
3 220 221 242
3 220 242 241
3 221 222 243
3 221 243 242
3 222 223 244
3 222 244 243
3 223 224 245
3 223 245 244
3 224 225 246
3 224 246 245
3 225 226 247
3 225 247 246
3 226 227 248
3 226 248 247
3 227 228 249
3 227 249 248
3 228 229 250
3 228 250 249
3 229 230 251
3 229 251 250
3 231 232 253
3 231 253 252
3 232 233 254
3 232 254 253
3 233 234 255
3 233 255 254
3 234 235 256
3 234 256 255
3 235 236 257
3 235 257 256
3 236 237 258
3 236 258 257
3 237 238 259
3 237 259 258
3 238 239 260
3 238 260 259
3 239 240 261
3 239 261 260
3 240 241 262
3 240 262 261
3 241 242 263
3 241 263 262
3 242 243 264
3 242 264 263
3 243 244 265
3 243 265 264
3 244 245 266
3 244 266 265
3 245 246 267
3 245 267 266
3 246 247 268
3 246 268 267
3 247 248 269
3 247 269 268
3 248 249 270
3 248 270 269
3 249 250 271
3 249 271 270
3 250 251 272
3 250 272 271
3 252 253 274
3 252 274 273
3 253 254 275
3 253 275 274
3 254 255 276
3 254 276 275
3 255 256 277
3 255 277 276
3 256 257 278
3 256 278 277
3 257 258 279
3 257 279 278
3 258 259 280
3 258 280 279
3 259 260 281
3 259 281 280
3 260 261 282
3 260 282 281
3 261 262 283
3 261 283 282
3 262 263 284
3 262 284 283
3 263 264 285
3 263 285 284
3 264 265 286
3 264 286 285
3 265 266 287
3 265 287 286
3 266 267 288
3 266 288 287
3 267 268 289
3 267 289 288
3 268 269 290
3 268 290 289
3 269 270 291
3 269 291 290
3 270 271 292
3 270 292 291
3 271 272 293
3 271 293 292
3 273 274 295
3 273 295 294
3 274 275 296
3 274 296 295
3 275 276 297
3 275 297 296
3 276 277 298
3 276 298 297
3 277 278 299
3 277 299 298
3 278 279 300
3 278 300 299
3 279 280 301
3 279 301 300
3 280 281 302
3 280 302 301
3 281 282 303
3 281 303 302
3 282 283 304
3 282 304 303
3 283 284 305
3 283 305 304
3 284 285 306
3 284 306 305
3 285 286 307
3 285 307 306
3 286 287 308
3 286 308 307
3 287 288 309
3 287 309 308
3 288 289 310
3 288 310 309
3 289 290 311
3 289 311 310
3 290 291 312
3 290 312 311
3 291 292 313
3 291 313 312
3 292 293 314
3 292 314 313
3 294 295 316
3 294 316 315
3 295 296 317
3 295 317 316
3 296 297 318
3 296 318 317
3 297 298 319
3 297 319 318
3 298 299 320
3 298 320 319
3 299 300 321
3 299 321 320
3 300 301 322
3 300 322 321
3 301 302 323
3 301 323 322
3 302 303 324
3 302 324 323
3 303 304 325
3 303 325 324
3 304 305 326
3 304 326 325
3 305 306 327
3 305 327 326
3 306 307 328
3 306 328 327
3 307 308 329
3 307 329 328
3 308 309 330
3 308 330 329
3 309 310 331
3 309 331 330
3 310 311 332
3 310 332 331
3 311 312 333
3 311 333 332
3 312 313 334
3 312 334 333
3 313 314 335
3 313 335 334
3 315 316 337
3 315 337 336
3 316 317 338
3 316 338 337
3 317 318 339
3 317 339 338
3 318 319 340
3 318 340 339
3 319 320 341
3 319 341 340
3 320 321 342
3 320 342 341
3 321 322 343
3 321 343 342
3 322 323 344
3 322 344 343
3 323 324 345
3 323 345 344
3 324 325 346
3 324 346 345
3 325 326 347
3 325 347 346
3 326 327 348
3 326 348 347
3 327 328 349
3 327 349 348
3 328 329 350
3 328 350 349
3 329 330 351
3 329 351 350
3 330 331 352
3 330 352 351
3 331 332 353
3 331 353 352
3 332 333 354
3 332 354 353
3 333 334 355
3 333 355 354
3 334 335 356
3 334 356 355
3 336 337 358
3 336 358 357
3 337 338 359
3 337 359 358
3 338 339 360
3 338 360 359
3 339 340 361
3 339 361 360
3 340 341 362
3 340 362 361
3 341 342 363
3 341 363 362
3 342 343 364
3 342 364 363
3 343 344 365
3 343 365 364
3 344 345 366
3 344 366 365
3 345 346 367
3 345 367 366
3 346 347 368
3 346 368 367
3 347 348 369
3 347 369 368
3 348 349 370
3 348 370 369
3 349 350 371
3 349 371 370
3 350 351 372
3 350 372 371
3 351 352 373
3 351 373 372
3 352 353 374
3 352 374 373
3 353 354 375
3 353 375 374
3 354 355 376
3 354 376 375
3 355 356 377
3 355 377 376
3 357 358 379
3 357 379 378
3 358 359 380
3 358 380 379
3 359 360 381
3 359 381 380
3 360 361 382
3 360 382 381
3 361 362 383
3 361 383 382
3 362 363 384
3 362 384 383
3 363 364 385
3 363 385 384
3 364 365 386
3 364 386 385
3 365 366 387
3 365 387 386
3 366 367 388
3 366 388 387
3 367 368 389
3 367 389 388
3 368 369 390
3 368 390 389
3 369 370 391
3 369 391 390
3 370 371 392
3 370 392 391
3 371 372 393
3 371 393 392
3 372 373 394
3 372 394 393
3 373 374 395
3 373 395 394
3 374 375 396
3 374 396 395
3 375 376 397
3 375 397 396
3 376 377 398
3 376 398 397
3 378 379 400
3 378 400 399
3 379 380 401
3 379 401 400
3 380 381 402
3 380 402 401
3 381 382 403
3 381 403 402
3 382 383 404
3 382 404 403
3 383 384 405
3 383 405 404
3 384 385 406
3 384 406 405
3 385 386 407
3 385 407 406
3 386 387 408
3 386 408 407
3 387 388 409
3 387 409 408
3 388 389 410
3 388 410 409
3 389 390 411
3 389 411 410
3 390 391 412
3 390 412 411
3 391 392 413
3 391 413 412
3 392 393 414
3 392 414 413
3 393 394 415
3 393 415 414
3 394 395 416
3 394 416 415
3 395 396 417
3 395 417 416
3 396 397 418
3 396 418 417
3 397 398 419
3 397 419 418
3 399 400 421
3 399 421 420
3 400 401 422
3 400 422 421
3 401 402 423
3 401 423 422
3 402 403 424
3 402 424 423
3 403 404 425
3 403 425 424
3 404 405 426
3 404 426 425
3 405 406 427
3 405 427 426
3 406 407 428
3 406 428 427
3 407 408 429
3 407 429 428
3 408 409 430
3 408 430 429
3 409 410 431
3 409 431 430
3 410 411 432
3 410 432 431
3 411 412 433
3 411 433 432
3 412 413 434
3 412 434 433
3 413 414 435
3 413 435 434
3 414 415 436
3 414 436 435
3 415 416 437
3 415 437 436
3 416 417 438
3 416 438 437
3 417 418 439
3 417 439 438
3 418 419 440
3 418 440 439
CELL_TYPES 800
5
5
5
5
5
5
5
5
5
5
5
5
5
5
5
5
5
5
5
5
5
5
5
5
5
5
5
5
5
5
5
5
5
5
5
5
5
5
5
5
5
5
5
5
5
5
5
5
5
5
5
5
5
5
5
5
5
5
5
5
5
5
5
5
5
5
5
5
5
5
5
5
5
5
5
5
5
5
5
5
5
5
5
5
5
5
5
5
5
5
5
5
5
5
5
5
5
5
5
5
5
5
5
5
5
5
5
5
5
5
5
5
5
5
5
5
5
5
5
5
5
5
5
5
5
5
5
5
5
5
5
5
5
5
5
5
5
5
5
5
5
5
5
5
5
5
5
5
5
5
5
5
5
5
5
5
5
5
5
5
5
5
5
5
5
5
5
5
5
5
5
5
5
5
5
5
5
5
5
5
5
5
5
5
5
5
5
5
5
5
5
5
5
5
5
5
5
5
5
5
5
5
5
5
5
5
5
5
5
5
5
5
5
5
5
5
5
5
5
5
5
5
5
5
5
5
5
5
5
5
5
5
5
5
5
5
5
5
5
5
5
5
5
5
5
5
5
5
5
5
5
5
5
5
5
5
5
5
5
5
5
5
5
5
5
5
5
5
5
5
5
5
5
5
5
5
5
5
5
5
5
5
5
5
5
5
5
5
5
5
5
5
5
5
5
5
5
5
5
5
5
5
5
5
5
5
5
5
5
5
5
5
5
5
5
5
5
5
5
5
5
5
5
5
5
5
5
5
5
5
5
5
5
5
5
5
5
5
5
5
5
5
5
5
5
5
5
5
5
5
5
5
5
5
5
5
5
5
5
5
5
5
5
5
5
5
5
5
5
5
5
5
5
5
5
5
5
5
5
5
5
5
5
5
5
5
5
5
5
5
5
5
5
5
5
5
5
5
5
5
5
5
5
5
5
5
5
5
5
5
5
5
5
5
5
5
5
5
5
5
5
5
5
5
5
5
5
5
5
5
5
5
5
5
5
5
5
5
5
5
5
5
5
5
5
5
5
5
5
5
5
5
5
5
5
5
5
5
5
5
5
5
5
5
5
5
5
5
5
5
5
5
5
5
5
5
5
5
5
5
5
5
5
5
5
5
5
5
5
5
5
5
5
5
5
5
5
5
5
5
5
5
5
5
5
5
5
5
5
5
5
5
5
5
5
5
5
5
5
5
5
5
5
5
5
5
5
5
5
5
5
5
5
5
5
5
5
5
5
5
5
5
5
5
5
5
5
5
5
5
5
5
5
5
5
5
5
5
5
5
5
5
5
5
5
5
5
5
5
5
5
5
5
5
5
5
5
5
5
5
5
5
5
5
5
5
5
5
5
5
5
5
5
5
5
5
5
5
5
5
5
5
5
5
5
5
5
5
5
5
5
5
5
5
5
5
5
5
5
5
5
5
5
5
5
5
5
5
5
5
5
5
5
5
5
5
5
5
5
5
5
5
5
5
5
5
5
5
5
5
5
5
5
5
5
5
5
5
5
5
5
5
5
5
5
5
5
5
5
5
5
5
5
5
5
5
5
5
5
5
5
5
5
5
5
5
5
5
5
5
5
5
5
5
5
5
5
5
5
5
5
5
5
5
5
5
5
5
5
5
5
5
5
5
5
5
5
5
5
5
5
5
5
5
5
5
5
5
5
5
5
5
5
5
5
5
5
5
5
5
5
5
5
5
5
5
5
5
5
5
5
5
5
5
5
5
5
5
5
5
5
5
5
5
5
5
5
5
5
5
5
5
5
5
5
5
5
5
5
5
5
5
5
5
5
5
5
5
5
5
5
5
5
5
5
5
5
5
5
5
CELL_DATA 800
VECTORS Et double
0.0796408 -0.372836 0
-0.0493652 -0.0820948 0
0.0603891 -0.748406 0
-0.0390906 -0.520507 0
0.0288766 -0.966987 0
-0.0203234 -0.848853 0
-0.00820422 -0.984571 0
0.00314769 -0.999995 0
-0.0430275 -0.799814 0
0.0262111 -0.944223 0
-0.0683093 -0.454159 0
0.0437123 -0.695638 0
-0.0788628 -0.0227218 0
0.0516518 -0.308974 0
-0.0726948 0.402044 0
0.0481024 0.132347 0
-0.0514084 0.730333 0
0.0336623 0.534297 0
-0.0198268 0.894277 0
0.0113489 0.812508 0
0.0150766 0.862365 0
-0.0140422 0.910332 0
0.0457081 0.645881 0
-0.0369753 0.810781 0
0.065507 0.296002 0
-0.0523827 0.539786 0
0.0703642 -0.10777 0
-0.0567782 0.160116 0
0.0594961 -0.475269 0
-0.0490348 -0.242688 0
0.0355865 -0.725551 0
-0.0306528 -0.579245 0
0.00416875 -0.804635 0
-0.00546142 -0.775987 0
-0.0276157 -0.697233 0
0.0211807 -0.791224 0
-0.0526065 -0.429933 0
0.0434995 -0.624131 0
-0.0652151 -0.0652151 0
0.0564519 -0.314712 0
0.110443 -0.361191 0
-0.014479 -0.0792776 0
0.0878539 -0.726402 0
-0.00941222 -0.504563 0
0.0478229 -0.938923 0
-0.000645276 -0.823841 0
-0.000927337 -0.95538 0
0.00982019 -0.970673 0
-0.0482245 -0.774277 0
0.0193162 -0.915641 0
-0.0844471 -0.436094 0
0.0251838 -0.67236 0
-0.102487 -0.0143551 0
0.0254549 -0.294322 0
-0.0991922 0.400374 0
0.0193785 0.136811 0
-0.0759588 0.720091 0
0.00767111 0.52893 0
-0.0383519 0.878298 0
-0.00756812 0.799367 0
0.00516242 0.844171 0
-0.0232643 0.892632 0
0.0450911 0.628911 0
-0.0360114 0.792155 0
0.0729831 0.282913 0
-0.0428151 0.523521 0
0.0832431 -0.115568 0
-0.0417721 0.148512 0
0.0742973 -0.477776 0
-0.0325348 -0.248688 0
0.0488624 -0.723994 0
-0.0164549 -0.580098 0
0.0132635 -0.801006 0
0.0036316 -0.773264 0
-0.0240433 -0.693646 0
0.0239359 -0.787076 0
-0.0544295 -0.427922 0
0.0404557 -0.620626 0
-0.0711383 -0.0649758 0
0.0497701 -0.31317 0
0.138274 -0.341187 0
0.0188899 -0.0741635 0
0.111791 -0.686097 0
0.0184754 -0.475949 0
0.0640048 -0.885736 0
0.0172572 -0.777253 0
0.00498236 -0.898579 0
0.0150322 -0.914494 0
-0.0531683 -0.723264 0
0.0115075 -0.859486 0
-0.0988088 -0.398701 0
0.00644265 -0.625316 0
-0.123161 0.00449849 0
-0.000180021 -0.263335 0
-0.122072 0.399411 0
-0.00802135 0.148082 0
-0.0967917 0.701656 0
-0.0163345 0.520581 0
-0.0535794 0.847624 0
-0.0240219 0.77496 0
-0.0022647 0.808113 0
-0.029798 0.858234 0
0.0459407 0.594435 0
-0.0324298 0.754944 0
0.0808875 0.255669 0
-0.0310064 0.49025 0
0.0956596 -0.132286 0
-0.0251775 0.124179 0
0.088004 -0.483472 0
-0.015305 -0.261698 0
0.0607132 -0.720753 0
-0.00248622 -0.582231 0
0.0208885 -0.792687 0
0.0115668 -0.76736 0
-0.0217439 -0.6847 0
0.0247792 -0.777403 0
-0.0570872 -0.422129 0
0.0350559 -0.611633 0
-0.0769893 -0.0644497 0
0.0406615 -0.308256 0
0.16026 -0.313593 0
0.0480604 -0.0670931 0
0.130294 -0.629684 0
0.0424018 -0.43603 0
0.0760389 -0.810732 0
0.0318173 -0.711777 0
0.00868448 -0.818121 0
0.0178903 -0.835105 0
-0.0580951 -0.650863 0
0.00259779 -0.779852 0
-0.111027 -0.34572 0
-0.0120279 -0.558523 0
-0.139988 0.0308566 0
-0.0242104 -0.219488 0
-0.140054 0.397219 0
-0.0326673 0.163598 0
-0.11242 0.67429 0
-0.0367437 0.507836 0
-0.06401 0.802726 0
-0.0364297 0.739109 0
-0.00586843 0.755757 0
-0.0322718 0.808153 0
0.0492933 0.544897 0
-0.0252058 0.701182 0
0.0898715 0.217309 0
-0.0163547 0.442771 0
0.10785 -0.154599 0
-0.0068321 0.09037 0
0.100458 -0.489062 0
0.00240999 -0.278331 0
0.0706441 -0.712853 0
0.0106658 -0.582432 0
0.0262893 -0.777279 0
0.0174892 -0.755512 0
-0.021663 -0.668777 0
0.0226481 -0.760122 0
-0.0617309 -0.411814 0
0.0260489 -0.595914 0
-0.0844954 -0.0634515 0
0.0276648 -0.299642 0
0.174488 -0.279776 0
0.0711261 -0.0585399 0
0.14188 -0.560299 0
0.0607728 -0.387028 0
0.082883 -0.718463 0
0.0419058 -0.631264 0
0.00958822 -0.719404 0
0.0178027 -0.737545 0
-0.0631413 -0.562658 0
-0.00745726 -0.682347 0
-0.120815 -0.282274 0
-0.029778 -0.477487 0
-0.152338 0.0606098 0
-0.0458028 -0.167556 0
-0.152277 0.391105 0
-0.0534936 0.179812 0
-0.121891 0.636926 0
-0.0524262 0.488705 0
-0.0687296 0.744184 0
-0.0437546 0.691513 0
-0.00488787 0.689166 0
-0.0298664 0.743702 0
0.0556787 0.483551 0
-0.0138144 0.633565 0
0.100198 0.171891 0
0.00134689 0.384811 0
0.119815 -0.178069 0
0.0131761 0.0514255 0
0.111431 -0.490144 0
0.0202831 -0.294069 0
0.0782484 -0.696305 0
0.0225045 -0.576416 0
0.0289308 -0.751514 0
0.0207947 -0.73402 0
-0.0244396 -0.64355 0
0.0168703 -0.732389 0
-0.0691257 -0.395696 0
0.0127042 -0.571667 0
-0.0946099 -0.0616961 0
0.00999615 -0.286623 0
0.180043 -0.241406 0
0.0871115 -0.0490492 0
0.145833 -0.481642 0
0.0727991 -0.331625 0
0.0840781 -0.61422 0
0.0470265 -0.540249 0
0.00749005 -0.608662 0
0.0146087 -0.627673 0
-0.0682798 -0.465074 0
-0.0184974 -0.573449 0
-0.127963 -0.214233 0
-0.0463901 -0.388538 0
-0.159886 0.0890774 0
-0.0643827 -0.113008 0
-0.158378 0.378029 0
-0.0698875 0.192693 0
-0.124881 0.588399 0
-0.0628463 0.460956 0
-0.0675196 0.672701 0
-0.0456289 0.631864 0
0.000754243 0.610715 0
-0.022434 0.666406 0
0.0650261 0.414083 0
0.00166829 0.555166 0
0.111671 0.123963 0
0.0218382 0.320571 0
0.131279 -0.197767 0
0.0344749 0.0121911 0
0.120625 -0.481864 0
0.0379152 -0.303913 0
0.0832582 -0.666725 0
0.0326817 -0.559472 0
0.0286029 -0.711792 0
0.0212372 -0.698833 0
-0.0302274 -0.606419 0
0.00731492 -0.691088 0
-0.0794031 -0.372294 0
-0.00501621 -0.536878 0
-0.107481 -0.0588518 0
-0.0123326 -0.268365 0
0.17704 -0.20023 0
0.0960311 -0.0391712 0
0.142329 -0.397548 0
0.0785757 -0.272608 0
0.0798577 -0.503443 0
0.0473902 -0.443423 0
0.00264699 -0.492256 0
0.00862948 -0.511504 0
-0.0732802 -0.364612 0
-0.0301345 -0.459757 0
-0.132322 -0.147476 0
-0.0614799 -0.298067 0
-0.16261 0.111647 0
-0.0796536 -0.0612933 0
-0.158502 0.355086 0
-0.0817196 0.198298 0
-0.121716 0.527704 0
-0.0680985 0.422499 0
-0.0608741 0.58914 0
-0.04239 0.560022 0
0.0104369 0.522882 0
-0.0105277 0.577931 0
0.0766554 0.340193 0
0.0205449 0.469128 0
0.123637 0.07798 0
0.0443838 0.254226 0
0.141706 -0.20896 0
0.0564128 -0.0226261 0
0.127699 -0.459645 0
0.0548546 -0.3031 0
0.0855798 -0.620044 0
0.041031 -0.527197 0
0.0254755 -0.654804 0
0.0189744 -0.646219 0
-0.0386212 -0.555001 0
-0.00555275 -0.633376 0
-0.0919875 -0.340235 0
-0.026408 -0.489718 0
-0.122444 -0.0545981 0
-0.0384824 -0.244102 0
0.166549 -0.157875 0
0.0988147 -0.0293966 0
0.132392 -0.311573 0
0.0790195 -0.212552 0
0.071127 -0.391136 0
0.0438667 -0.345108 0
-0.00423561 -0.375971 0
0.000632372 -0.394542 0
-0.0777114 -0.267094 0
-0.041775 -0.34724 0
-0.13379 -0.0871506 0
-0.0747038 -0.211759 0
-0.160768 0.124415 0
-0.0915874 -0.0171446 0
-0.153257 0.31998 0
-0.0893167 0.193349 0
-0.113308 0.454285 0
-0.0688634 0.371778 0
-0.0499252 0.494568 0
-0.0350229 0.476177 0
0.0229208 0.428069 0
0.00466217 0.480018 0
0.0893543 0.26521 0
0.0415606 0.378382 0
0.135051 0.0377438 0
0.0678296 0.189445 0
0.150344 -0.207792 0
0.0781023 -0.0490778 0
0.132297 -0.419911 0
0.0706206 -0.287807 0
0.0853041 -0.553203 0
0.0475696 -0.4762 0
0.020088 -0.578145 0
0.0145465 -0.573421 0
-0.048687 -0.487598 0
-0.0207161 -0.557225 0
-0.105651 -0.298545 0
-0.0500897 -0.428918 0
-0.138111 -0.0486848 0
-0.0668687 -0.213315 0
0.150403 -0.115699 0
0.097101 -0.0201025 0
0.117726 -0.226643 0
0.0756819 -0.153557 0
0.0593262 -0.281359 0
0.0378296 -0.24882 0
-0.0120995 -0.264406 0
-0.00828308 -0.281205 0
-0.0809906 -0.177011 0
-0.0526869 -0.240589 0
-0.132313 -0.0370484 0
-0.0857748 -0.133933 0
-0.154841 0.124735 0
-0.100389 0.0160372 0
-0.143612 0.271449 0
-0.0933804 0.175733 0
-0.101016 0.368266 0
-0.0662903 0.30812 0
-0.0362855 0.390309 0
-0.0250197 0.381016 0
0.0365114 0.328454 0
0.0214568 0.374446 0
0.10153 0.191759 0
0.0630426 0.285413 0
0.144601 0.00593734 0
0.0907162 0.128998 0
0.156315 -0.191834 0
0.0984936 -0.064488 0
0.134079 -0.360683 0
0.0847285 -0.255732 0
0.0826858 -0.464731 0
0.0524694 -0.4047 0
0.0132755 -0.480814 0
0.00879279 -0.4792 0
-0.0590839 -0.403589 0
-0.0367406 -0.461871 0
-0.118675 -0.24688 0
-0.074175 -0.354081 0
-0.152553 -0.0409816 0
-0.0953492 -0.175873 0
0.13089 -0.0746806 0
0.0929335 -0.0115192 0
0.100433 -0.144823 0
0.070464 -0.0970683 0
0.0462042 -0.17688 0
0.0309213 -0.156966 0
-0.0196949 -0.160549 0
-0.0168561 -0.174429 0
-0.0824694 -0.0970618 0
-0.062097 -0.142759 0
-0.127893 0.000846892 0
-0.0944821 -0.0670787 0
-0.145465 0.11161 0
-0.106443 0.0366085 0
-0.130762 0.209551 0
-0.0948647 0.144855 0
-0.0864645 0.270635 0
-0.0618225 0.231969 0
-0.0218306 0.27798 0
-0.014173 0.275825 0
0.0492832 0.225901 0
0.0379023 0.263004 0
0.111416 0.121557 0
0.083096 0.19211 0
0.150871 -0.0161824 0
0.111436 0.0744973 0
0.158713 -0.160461 0
0.116472 -0.0677936 0
0.132759 -0.281972 0
0.096716 -0.206477 0
0.078097 -0.35513 0
0.0560048 -0.312915 0
0.00604508 -0.363555 0
0.00272189 -0.364196 0
-0.0682577 -0.303678 0
-0.0519758 -0.348105 0
-0.129094 -0.185681 0
-0.0965355 -0.265875 0
-0.163567 -0.0315115 0
-0.121486 -0.132134 0
0.111294 -0.0681111 0
0.0616602 -0.0058179 0
0.0832984 -0.124681 0
0.0459057 -0.0790541 0
0.0337213 -0.145132 0
0.0185729 -0.129528 0
-0.0260929 -0.120859 0
-0.0142449 -0.141397 0
-0.0822953 -0.0543071 0
-0.0451069 -0.108285 0
-0.121633 0.0412819 0
-0.0669031 -0.0350251 0
-0.134443 0.144623 0
-0.0744535 0.0631561 0
-0.116871 0.231071 0
-0.0656842 0.163883 0
-0.0718207 0.278206 0
-0.0421257 0.242604 0
-0.00841835 0.271078 0
-0.00861807 0.278201 0
0.0599075 0.205938 0
0.0277133 0.257993 0
0.118313 0.0915842 0
0.0589945 0.180992 0
0.153772 -0.0520085 0
0.0783161 0.0586623 0
0.157947 -0.197548 0
0.081252 -0.0870452 0
0.12907 -0.31597 0
0.0668502 -0.228004 0
0.0724219 -0.382508 0
0.0378776 -0.33568 0
-0.000711345 -0.381983 0
0.000263805 -0.387129 0
-0.0753862 -0.312168 0
-0.0381393 -0.369944 0
-0.13615 -0.184485 0
-0.0692072 -0.28507 0
-0.170322 -0.0218071 0
-0.0862226 -0.14685 0
0.0708661 -0.0401281 0
0.039562 -0.00271802 0
0.0516757 -0.0713907 0
0.028745 -0.0451539 0
0.0181946 -0.0790958 0
0.0101114 -0.0725819 0
-0.0218721 -0.0580115 0
-0.0121271 -0.0749549 0
-0.0591127 -0.0102912 0
-0.032875 -0.0485168 0
-0.0845595 0.0547321 0
-0.0472905 0.00300706 0
-0.0917394 0.122464 0
-0.051876 0.0690004 0
-0.0781828 0.176268 0
-0.0452778 0.134199 0
-0.0460557 0.201272 0
-0.0286181 0.182102 0
-0.00176778 0.187928 0
-0.00528159 0.198792 0
0.0453648 0.134502 0
0.0197979 0.176318 0
0.0851174 0.0479128 0
0.0411994 0.11486 0
0.108583 -0.0572971 0
0.0541948 0.0231574 0
0.110141 -0.161702 0
0.0557892 -0.0829237 0
0.0887389 -0.244876 0
0.0453956 -0.183442 0
0.0481991 -0.289611 0
0.024993 -0.258406 0
-0.00352066 -0.285581 0
-0.00126677 -0.291944 0
-0.0559594 -0.231649 0
-0.0279235 -0.275717 0
-0.098325 -0.136337 0
-0.0493556 -0.210842 0
-0.121715 -0.0163556 0
-0.0609679 -0.107911 0
0.0434459 -0.0214338 0
0.0246436 -0.000732851 0
0.0304963 -0.0360922 0
0.0172793 -0.0226806 0
0.00808165 -0.0357343 0
0.00464076 -0.0350259 0
-0.0185193 -0.0173448 0
-0.0103658 -0.0315116 0
-0.0429164 0.0171828 0
-0.0242537 -0.0100888 0
-0.0590626 0.0612312 0
-0.03373 0.0263306 0
-0.0626477 0.104801 0
-0.036438 0.0703178 0
-0.0521197 0.136725 0
-0.0314984 0.111485 0
-0.0291009 0.14726 0
-0.0197291 0.138821 0
0.00189796 0.130491 0
-0.00349223 0.143295 0
0.0344111 0.085977 0
0.0138029 0.120125 0
0.0613995 0.0192564 0
0.0284317 0.0701978 0
0.0767836 -0.0589454 0
0.0371654 0.000295711 0
0.076792 -0.134674 0
0.0379825 -0.0779779 0
0.0608307 -0.193478 0
0.0305266 -0.150364 0
0.0316788 -0.223361 0
0.0162078 -0.202778 0
-0.00503856 -0.217313 0
-0.00207616 -0.224214 0
-0.0419916 -0.1749 0
-0.0205419 -0.209102 0
-0.0716602 -0.102552 0
-0.0353188 -0.158628 0
-0.0879002 -0.0124795 0
-0.0432781 -0.0806955 0
0.0251431 -0.00909041 0
0.0148004 0.000509484 0
0.0165216 -0.0129696 0
0.00982003 -0.00798192 0
0.00168574 -0.00761582 0
0.0012916 -0.0105639 0
-0.0157613 0.00853549 0
-0.00879091 -0.00350048 0
-0.0314959 0.033817 0
-0.0180497 0.014151 0
-0.0414605 0.0634989 0
-0.0242519 0.0400791 0
-0.0428079 0.090734 0
-0.0258133 0.0690587 0
-0.0345886 0.108081 0
-0.0221639 0.0940394 0
-0.0180222 0.109271 0
-0.0138934 0.107749 0
0.00371225 0.0908191 0
-0.00264102 0.104455 0
0.0261274 0.0531027 0
0.00924823 0.0814845 0
0.0443833 0.000639853 0
0.0192263 0.0401435 0
0.0543413 -0.0585274 0
0.0250967 -0.0142029 0
0.0534856 -0.114249 0
0.0254998 -0.0729366 0
0.0415117 -0.156209 0
0.0202212 -0.125745 0
0.0204474 -0.175991 0
0.0102568 -0.162622 0
-0.00572368 -0.168849 0
-0.00238474 -0.175904 0
-0.0318634 -0.134789 0
-0.0150987 -0.161903 0
-0.0527359 -0.0787337 0
-0.025236 -0.1218 0
-0.0641048 -0.0097122 0
-0.0306732 -0.0615827 0
0.0132013 -0.00104266 0
0.00854126 0.00126389 0
0.00754656 0.00197383 0
0.00519504 0.00148698 0
-0.00212735 0.0103355 0
-0.000528475 0.00512842 0
-0.0133807 0.0246611 0
-0.00727342 0.0142458 0
-0.0233076 0.043473 0
-0.0134294 0.0290689 0
-0.0292062 0.06335 0
-0.0174907 0.0477266 0
-0.029217 0.0795996 0
-0.0183966 0.0665141 0
-0.0227819 0.0873108 0
-0.0157766 0.0806578 0
-0.0108199 0.0825558 0
-0.0100464 0.085418 0
0.00442733 0.0634652 0
-0.00232938 0.0772815 0
0.0198497 0.0309219 0
0.00577767 0.0549699 0
0.032128 -0.0113081 0
0.0125474 0.020019 0
0.0384564 -0.0570673 0
0.0164977 -0.0232274 0
0.037171 -0.0988477 0
0.0167191 -0.0682404 0
0.0281451 -0.129184 0
0.0130819 -0.107442 0
0.0128623 -0.142119 0
0.00627609 -0.133637 0
-0.00585391 -0.134441 0
-0.00232473 -0.141449 0
-0.0244016 -0.106426 0
-0.0109501 -0.128461 0
-0.0391367 -0.0619219 0
-0.0178082 -0.095817 0
-0.0471329 -0.00773287 0
-0.0214713 -0.0481452 0
0.005683 0.00412479 0
0.00480474 0.00170433 0
0.0020467 0.01147 0
0.00257611 0.0074757 0
-0.00413067 0.0215738 0
-0.00123652 0.015006 0
-0.0112164 0.0344442 0
-0.00572561 0.0252443 0
-0.0172791 0.0487557 0
-0.00981558 0.0379647 0
-0.0205419 0.0619886 0
-0.012503 0.0516158 0
-0.0198106 0.0709134 0
-0.0130831 0.0635339 0
-0.0147787 0.0723242 0
-0.0113119 0.070488 0
-0.0061381 0.0638577 0
-0.00746925 0.0694414 0
0.00453385 0.0447085 0
-0.00230499 0.0583608 0
0.0150901 0.016064 0
0.00311776 0.0368792 0
0.0232667 -0.0188603 0
0.00765108 0.00664967 0
0.0271757 -0.0552234 0
0.0103121 -0.0287171 0
0.0257308 -0.0873404 0
0.0104997 -0.0641456 0
0.0189106 -0.109701 0
0.00813115 -0.093942 0
0.0078007 -0.118023 0
0.00366716 -0.112835 0
-0.00559994 -0.11013 0
-0.00198058 -0.117004 0
-0.0187711 -0.086462 0
-0.00764065 -0.104884 0
-0.0291814 -0.0501044 0
-0.0121316 -0.0775708 0
-0.0348104 -0.00632119 0
-0.0145167 -0.0387374 0
0.00122266 0.00737397 0
0.00282155 0.00194866 0
-0.00104628 0.0173694 0
0.00136269 0.0111731 0
-0.00486437 0.0284323 0
-0.00113922 0.0210711 0
-0.00915955 0.0401818 0
-0.00409678 0.031871 0
-0.0126726 0.0514099 0
-0.00681364 0.0430606 0
-0.0142595 0.0602077 0
-0.00863899 0.0533152 0
-0.0131746 0.0643242 0
-0.00911289 0.0606733 0
-0.00927017 0.0616854 0
-0.00807042 0.0629329 0
-0.00306412 0.0509582 0
-0.00568158 0.0581861 0
0.00434202 0.032026 0
-0.00241776 0.0453707 0
0.0114806 0.00625419 0
0.00104834 0.0247062 0
0.0168255 -0.0235373 0
0.00398789 -0.00210268 0
0.0191245 -0.0534128 0
0.00577455 -0.0319622 0
0.0176838 -0.0789273 0
0.00602215 -0.0607931 0
0.012541 -0.0958915 0
0.00467105 -0.0841805 0
0.00448682 -0.101149 0
0.00200396 -0.0981511 0
-0.00507202 -0.0932107 0
-0.00141277 -0.0999279 0
-0.0143843 -0.0726127 0
-0.00485018 -0.0885086 0
-0.0217039 -0.0419144 0
-0.00757423 -0.0649427 0
-0.0256448 -0.00532665 0
-0.00900562 -0.0322429 0
-0.00115416 0.00934651 0
0.00201451 0.00207539 0
-0.00249497 0.0209047 0
0.00110171 0.0133727 0
-0.00471853 0.032462 0
-0.000475185 0.0246581 0
-0.00714596 0.0433975 0
-0.00236675 0.0357066 0
-0.00898634 0.0525872 0
-0.00415605 0.0458308 0
-0.00953248 0.058522 0
-0.00544919 0.05386 0
-0.008343 0.0595834 0
-0.00596037 0.0582898 0
-0.00536833 0.0544245 0
-0.00557318 0.0575822 0
-0.000990105 0.0423688 0
-0.0043649 0.0505527 0
0.00403741 0.0237323 0
-0.00258884 0.036757 0
0.0087338 -2.03398e-05 0
-0.0006184 0.0167797 0
0.0120967 -0.0263408 0
0.00113468 -0.00765646 0
0.01332 -0.0518943 0
0.0023101 -0.0338082 0
0.0119792 -0.0730506 0
0.00267728 -0.0582555 0
0.00814139 -0.086483 0
0.00218479 -0.0774222 0
0.0023746 -0.0897667 0
0.000970348 -0.0881819 0
-0.00434794 -0.0818562 0
-0.000670991 -0.0884349 0
-0.0108315 -0.0633428 0
-0.00235348 -0.0775396 0
-0.0158943 -0.0364344 0
-0.00368749 -0.0565072 0
-0.0186038 -0.00464779 0
-0.00436736 -0.027912 0
-0.00216011 0.0104542 0
0.00192513 0.00213485 0
-0.00285956 0.0228686 0
0.00143137 0.0145845 0
-0.00398726 0.0346603 0
0.000557409 0.0266257 0
-0.00514732 0.045069 0
-0.000537993 0.0377677 0
-0.00588318 0.0530242 0
-0.00165956 0.0472223 0
-0.00579642 0.0572561 0
-0.00261511 0.0539128 0
-0.00465598 0.0565232 0
-0.00325211 0.0566081 0
-0.00247199 0.049909 0
-0.00348485 0.0541649 0
0.000484152 0.0371247 0
-0.00330701 0.045827 0
0.00371992 0.0187383 0
-0.00278778 0.0315139 0
0.00661522 -0.00373313 0
-0.00205276 0.012022 0
0.00855041 -0.0279105 0
-0.00125439 -0.0109225 0
0.00904153 -0.0508245 0
-0.000538344 -0.0347923 0
0.00785324 -0.0693364 0
-1.35495e-05 -0.0565673 0
0.00506405 -0.0806389 0
0.000267955 -0.0731772 0
0.00106808 -0.0827457 0
0.000317125 -0.0820049 0
-0.00348898 -0.0748758 0
0.000199122 -0.0813564 0
-0.00782818 -0.0576515 0
1.20979e-05 -0.0708047 0
-0.0111864 -0.0330666 0
-0.000141106 -0.0513353 0
-0.0129655 -0.00421822 0
-0.000181253 -0.025256 0
-0.00233864 0.0109365 0
0.00215631 0.00215631 0
-0.00256928 0.0237285 0
0.0020414 0.0151068 0
-0.00290392 0.0356174 0
0.00178301 0.0274811 0
-0.00316157 0.0457761 0
0.00137326 0.038657 0
-0.00313703 0.0531573 0
0.000809856 0.047797 0
-0.00266165 0.0566017 0
0.000105616 0.0538665 0
-0.00165717 0.0550418 0
-0.00070343 0.0557606 0
-0.000170328 0.0477612 0
-0.00155421 0.0525185 0
0.00162083 0.0346507 0
-0.00235903 0.043583 0
0.00343185 0.0163955 0
-0.00301484 0.0290425 0
0.00492396 -0.00546304 0
-0.00341834 0.00979173 0
0.00577285 -0.0286253 0
-0.00348428 -0.0124415 0
0.00573981 -0.0502928 0
-0.00316354 -0.0352312 0
0.0047296 -0.0675572 0
-0.00245695 -0.0557444 0
0.00282177 -0.0778548 0
-0.00142166 -0.0711482 0
0.000267601 -0.0794056 0
-0.000167968 -0.0790643 0
-0.00254821 -0.0715533 0
0.00115362 -0.0779897 0
-0.00517441 -0.0549364 0
0.00237332 -0.0675991 0
-0.00717568 -0.03145 0
0.00332758 -0.0488673 0
-0.00821406 -0.00399752 0
0.00388482 -0.0239787 0
