# vtk DataFile Version 3.0
tp3485 cell-vector
ASCII
DATASET UNSTRUCTURED_GRID
POINTS 441 double
0 0 0
0.05 0 0
0.1 0 0
0.15 0 0
0.2 0 0
0.25 0 0
0.3 0 0
0.35 0 0
0.4 0 0
0.45 0 0
0.5 0 0
0.55 0 0
0.6 0 0
0.65 0 0
0.7 0 0
0.75 0 0
0.8 0 0
0.85 0 0
0.9 0 0
0.95 0 0
1 0 0
0 0.05 0
0.05 0.05 0
0.1 0.05 0
0.15 0.05 0
0.2 0.05 0
0.25 0.05 0
0.3 0.05 0
0.35 0.05 0
0.4 0.05 0
0.45 0.05 0
0.5 0.05 0
0.55 0.05 0
0.6 0.05 0
0.65 0.05 0
0.7 0.05 0
0.75 0.05 0
0.8 0.05 0
0.85 0.05 0
0.9 0.05 0
0.95 0.05 0
1 0.05 0
0 0.1 0
0.05 0.1 0
0.1 0.1 0
0.15 0.1 0
0.2 0.1 0
0.25 0.1 0
0.3 0.1 0
0.35 0.1 0
0.4 0.1 0
0.45 0.1 0
0.5 0.1 0
0.55 0.1 0
0.6 0.1 0
0.65 0.1 0
0.7 0.1 0
0.75 0.1 0
0.8 0.1 0
0.85 0.1 0
0.9 0.1 0
0.95 0.1 0
1 0.1 0
0 0.15 0
0.05 0.15 0
0.1 0.15 0
0.15 0.15 0
0.2 0.15 0
0.25 0.15 0
0.3 0.15 0
0.35 0.15 0
0.4 0.15 0
0.45 0.15 0
0.5 0.15 0
0.55 0.15 0
0.6 0.15 0
0.65 0.15 0
0.7 0.15 0
0.75 0.15 0
0.8 0.15 0
0.85 0.15 0
0.9 0.15 0
0.95 0.15 0
1 0.15 0
0 0.2 0
0.05 0.2 0
0.1 0.2 0
0.15 0.2 0
0.2 0.2 0
0.25 0.2 0
0.3 0.2 0
0.35 0.2 0
0.4 0.2 0
0.45 0.2 0
0.5 0.2 0
0.55 0.2 0
0.6 0.2 0
0.65 0.2 0
0.7 0.2 0
0.75 0.2 0
0.8 0.2 0
0.85 0.2 0
0.9 0.2 0
0.95 0.2 0
1 0.2 0
0 0.25 0
0.05 0.25 0
0.1 0.25 0
0.15 0.25 0
0.2 0.25 0
0.25 0.25 0
0.3 0.25 0
0.35 0.25 0
0.4 0.25 0
0.45 0.25 0
0.5 0.25 0
0.55 0.25 0
0.6 0.25 0
0.65 0.25 0
0.7 0.25 0
0.75 0.25 0
0.8 0.25 0
0.85 0.25 0
0.9 0.25 0
0.95 0.25 0
1 0.25 0
0 0.3 0
0.05 0.3 0
0.1 0.3 0
0.15 0.3 0
0.2 0.3 0
0.25 0.3 0
0.3 0.3 0
0.35 0.3 0
0.4 0.3 0
0.45 0.3 0
0.5 0.3 0
0.55 0.3 0
0.6 0.3 0
0.65 0.3 0
0.7 0.3 0
0.75 0.3 0
0.8 0.3 0
0.85 0.3 0
0.9 0.3 0
0.95 0.3 0
1 0.3 0
0 0.35 0
0.05 0.35 0
0.1 0.35 0
0.15 0.35 0
0.2 0.35 0
0.25 0.35 0
0.3 0.35 0
0.35 0.35 0
0.4 0.35 0
0.45 0.35 0
0.5 0.35 0
0.55 0.35 0
0.6 0.35 0
0.65 0.35 0
0.7 0.35 0
0.75 0.35 0
0.8 0.35 0
0.85 0.35 0
0.9 0.35 0
0.95 0.35 0
1 0.35 0
0 0.4 0
0.05 0.4 0
0.1 0.4 0
0.15 0.4 0
0.2 0.4 0
0.25 0.4 0
0.3 0.4 0
0.35 0.4 0
0.4 0.4 0
0.45 0.4 0
0.5 0.4 0
0.55 0.4 0
0.6 0.4 0
0.65 0.4 0
0.7 0.4 0
0.75 0.4 0
0.8 0.4 0
0.85 0.4 0
0.9 0.4 0
0.95 0.4 0
1 0.4 0
0 0.45 0
0.05 0.45 0
0.1 0.45 0
0.15 0.45 0
0.2 0.45 0
0.25 0.45 0
0.3 0.45 0
0.35 0.45 0
0.4 0.45 0
0.45 0.45 0
0.5 0.45 0
0.55 0.45 0
0.6 0.45 0
0.65 0.45 0
0.7 0.45 0
0.75 0.45 0
0.8 0.45 0
0.85 0.45 0
0.9 0.45 0
0.95 0.45 0
1 0.45 0
0 0.5 0
0.05 0.5 0
0.1 0.5 0
0.15 0.5 0
0.2 0.5 0
0.25 0.5 0
0.3 0.5 0
0.35 0.5 0
0.4 0.5 0
0.45 0.5 0
0.5 0.5 0
0.55 0.5 0
0.6 0.5 0
0.65 0.5 0
0.7 0.5 0
0.75 0.5 0
0.8 0.5 0
0.85 0.5 0
0.9 0.5 0
0.95 0.5 0
1 0.5 0
0 0.55 0
0.05 0.55 0
0.1 0.55 0
0.15 0.55 0
0.2 0.55 0
0.25 0.55 0
0.3 0.55 0
0.35 0.55 0
0.4 0.55 0
0.45 0.55 0
0.5 0.55 0
0.55 0.55 0
0.6 0.55 0
0.65 0.55 0
0.7 0.55 0
0.75 0.55 0
0.8 0.55 0
0.85 0.55 0
0.9 0.55 0
0.95 0.55 0
1 0.55 0
0 0.6 0
0.05 0.6 0
0.1 0.6 0
0.15 0.6 0
0.2 0.6 0
0.25 0.6 0
0.3 0.6 0
0.35 0.6 0
0.4 0.6 0
0.45 0.6 0
0.5 0.6 0
0.55 0.6 0
0.6 0.6 0
0.65 0.6 0
0.7 0.6 0
0.75 0.6 0
0.8 0.6 0
0.85 0.6 0
0.9 0.6 0
0.95 0.6 0
1 0.6 0
0 0.65 0
0.05 0.65 0
0.1 0.65 0
0.15 0.65 0
0.2 0.65 0
0.25 0.65 0
0.3 0.65 0
0.35 0.65 0
0.4 0.65 0
0.45 0.65 0
0.5 0.65 0
0.55 0.65 0
0.6 0.65 0
0.65 0.65 0
0.7 0.65 0
0.75 0.65 0
0.8 0.65 0
0.85 0.65 0
0.9 0.65 0
0.95 0.65 0
1 0.65 0
0 0.7 0
0.05 0.7 0
0.1 0.7 0
0.15 0.7 0
0.2 0.7 0
0.25 0.7 0
0.3 0.7 0
0.35 0.7 0
0.4 0.7 0
0.45 0.7 0
0.5 0.7 0
0.55 0.7 0
0.6 0.7 0
0.65 0.7 0
0.7 0.7 0
0.75 0.7 0
0.8 0.7 0
0.85 0.7 0
0.9 0.7 0
0.95 0.7 0
1 0.7 0
0 0.75 0
0.05 0.75 0
0.1 0.75 0
0.15 0.75 0
0.2 0.75 0
0.25 0.75 0
0.3 0.75 0
0.35 0.75 0
0.4 0.75 0
0.45 0.75 0
0.5 0.75 0
0.55 0.75 0
0.6 0.75 0
0.65 0.75 0
0.7 0.75 0
0.75 0.75 0
0.8 0.75 0
0.85 0.75 0
0.9 0.75 0
0.95 0.75 0
1 0.75 0
0 0.8 0
0.05 0.8 0
0.1 0.8 0
0.15 0.8 0
0.2 0.8 0
0.25 0.8 0
0.3 0.8 0
0.35 0.8 0
0.4 0.8 0
0.45 0.8 0
0.5 0.8 0
0.55 0.8 0
0.6 0.8 0
0.65 0.8 0
0.7 0.8 0
0.75 0.8 0
0.8 0.8 0
0.85 0.8 0
0.9 0.8 0
0.95 0.8 0
1 0.8 0
0 0.85 0
0.05 0.85 0
0.1 0.85 0
0.15 0.85 0
0.2 0.85 0
0.25 0.85 0
0.3 0.85 0
0.35 0.85 0
0.4 0.85 0
0.45 0.85 0
0.5 0.85 0
0.55 0.85 0
0.6 0.85 0
0.65 0.85 0
0.7 0.85 0
0.75 0.85 0
0.8 0.85 0
0.85 0.85 0
0.9 0.85 0
0.95 0.85 0
1 0.85 0
0 0.9 0
0.05 0.9 0
0.1 0.9 0
0.15 0.9 0
0.2 0.9 0
0.25 0.9 0
0.3 0.9 0
0.35 0.9 0
0.4 0.9 0
0.45 0.9 0
0.5 0.9 0
0.55 0.9 0
0.6 0.9 0
0.65 0.9 0
0.7 0.9 0
0.75 0.9 0
0.8 0.9 0
0.85 0.9 0
0.9 0.9 0
0.95 0.9 0
1 0.9 0
0 0.95 0
0.05 0.95 0
0.1 0.95 0
0.15 0.95 0
0.2 0.95 0
0.25 0.95 0
0.3 0.95 0
0.35 0.95 0
0.4 0.95 0
0.45 0.95 0
0.5 0.95 0
0.55 0.95 0
0.6 0.95 0
0.65 0.95 0
0.7 0.95 0
0.75 0.95 0
0.8 0.95 0
0.85 0.95 0
0.9 0.95 0
0.95 0.95 0
1 0.95 0
0 1 0
0.05 1 0
0.1 1 0
0.15 1 0
0.2 1 0
0.25 1 0
0.3 1 0
0.35 1 0
0.4 1 0
0.45 1 0
0.5 1 0
0.55 1 0
0.6 1 0
0.65 1 0
0.7 1 0
0.75 1 0
0.8 1 0
0.85 1 0
0.9 1 0
0.95 1 0
1 1 0
CELLS 800 3200
3 0 1 22
3 0 22 21
3 1 2 23
3 1 23 22
3 2 3 24
3 2 24 23
3 3 4 25
3 3 25 24
3 4 5 26
3 4 26 25
3 5 6 27
3 5 27 26
3 6 7 28
3 6 28 27
3 7 8 29
3 7 29 28
3 8 9 30
3 8 30 29
3 9 10 31
3 9 31 30
3 10 11 32
3 10 32 31
3 11 12 33
3 11 33 32
3 12 13 34
3 12 34 33
3 13 14 35
3 13 35 34
3 14 15 36
3 14 36 35
3 15 16 37
3 15 37 36
3 16 17 38
3 16 38 37
3 17 18 39
3 17 39 38
3 18 19 40
3 18 40 39
3 19 20 41
3 19 41 40
3 21 22 43
3 21 43 42
3 22 23 44
3 22 44 43
3 23 24 45
3 23 45 44
3 24 25 46
3 24 46 45
3 25 26 47
3 25 47 46
3 26 27 48
3 26 48 47
3 27 28 49
3 27 49 48
3 28 29 50
3 28 50 49
3 29 30 51
3 29 51 50
3 30 31 52
3 30 52 51
3 31 32 53
3 31 53 52
3 32 33 54
3 32 54 53
3 33 34 55
3 33 55 54
3 34 35 56
3 34 56 55
3 35 36 57
3 35 57 56
3 36 37 58
3 36 58 57
3 37 38 59
3 37 59 58
3 38 39 60
3 38 60 59
3 39 40 61
3 39 61 60
3 40 41 62
3 40 62 61
3 42 43 64
3 42 64 63
3 43 44 65
3 43 65 64
3 44 45 66
3 44 66 65
3 45 46 67
3 45 67 66
3 46 47 68
3 46 68 67
3 47 48 69
3 47 69 68
3 48 49 70
3 48 70 69
3 49 50 71
3 49 71 70
3 50 51 72
3 50 72 71
3 51 52 73
3 51 73 72
3 52 53 74
3 52 74 73
3 53 54 75
3 53 75 74
3 54 55 76
3 54 76 75
3 55 56 77
3 55 77 76
3 56 57 78
3 56 78 77
3 57 58 79
3 57 79 78
3 58 59 80
3 58 80 79
3 59 60 81
3 59 81 80
3 60 61 82
3 60 82 81
3 61 62 83
3 61 83 82
3 63 64 85
3 63 85 84
3 64 65 86
3 64 86 85
3 65 66 87
3 65 87 86
3 66 67 88
3 66 88 87
3 67 68 89
3 67 89 88
3 68 69 90
3 68 90 89
3 69 70 91
3 69 91 90
3 70 71 92
3 70 92 91
3 71 72 93
3 71 93 92
3 72 73 94
3 72 94 93
3 73 74 95
3 73 95 94
3 74 75 96
3 74 96 95
3 75 76 97
3 75 97 96
3 76 77 98
3 76 98 97
3 77 78 99
3 77 99 98
3 78 79 100
3 78 100 99
3 79 80 101
3 79 101 100
3 80 81 102
3 80 102 101
3 81 82 103
3 81 103 102
3 82 83 104
3 82 104 103
3 84 85 106
3 84 106 105
3 85 86 107
3 85 107 106
3 86 87 108
3 86 108 107
3 87 88 109
3 87 109 108
3 88 89 110
3 88 110 109
3 89 90 111
3 89 111 110
3 90 91 112
3 90 112 111
3 91 92 113
3 91 113 112
3 92 93 114
3 92 114 113
3 93 94 115
3 93 115 114
3 94 95 116
3 94 116 115
3 95 96 117
3 95 117 116
3 96 97 118
3 96 118 117
3 97 98 119
3 97 119 118
3 98 99 120
3 98 120 119
3 99 100 121
3 99 121 120
3 100 101 122
3 100 122 121
3 101 102 123
3 101 123 122
3 102 103 124
3 102 124 123
3 103 104 125
3 103 125 124
3 105 106 127
3 105 127 126
3 106 107 128
3 106 128 127
3 107 108 129
3 107 129 128
3 108 109 130
3 108 130 129
3 109 110 131
3 109 131 130
3 110 111 132
3 110 132 131
3 111 112 133
3 111 133 132
3 112 113 134
3 112 134 133
3 113 114 135
3 113 135 134
3 114 115 136
3 114 136 135
3 115 116 137
3 115 137 136
3 116 117 138
3 116 138 137
3 117 118 139
3 117 139 138
3 118 119 140
3 118 140 139
3 119 120 141
3 119 141 140
3 120 121 142
3 120 142 141
3 121 122 143
3 121 143 142
3 122 123 144
3 122 144 143
3 123 124 145
3 123 145 144
3 124 125 146
3 124 146 145
3 126 127 148
3 126 148 147
3 127 128 149
3 127 149 148
3 128 129 150
3 128 150 149
3 129 130 151
3 129 151 150
3 130 131 152
3 130 152 151
3 131 132 153
3 131 153 152
3 132 133 154
3 132 154 153
3 133 134 155
3 133 155 154
3 134 135 156
3 134 156 155
3 135 136 157
3 135 157 156
3 136 137 158
3 136 158 157
3 137 138 159
3 137 159 158
3 138 139 160
3 138 160 159
3 139 140 161
3 139 161 160
3 140 141 162
3 140 162 161
3 141 142 163
3 141 163 162
3 142 143 164
3 142 164 163
3 143 144 165
3 143 165 164
3 144 145 166
3 144 166 165
3 145 146 167
3 145 167 166
3 147 148 169
3 147 169 168
3 148 149 170
3 148 170 169
3 149 150 171
3 149 171 170
3 150 151 172
3 150 172 171
3 151 152 173
3 151 173 172
3 152 153 174
3 152 174 173
3 153 154 175
3 153 175 174
3 154 155 176
3 154 176 175
3 155 156 177
3 155 177 176
3 156 157 178
3 156 178 177
3 157 158 179
3 157 179 178
3 158 159 180
3 158 180 179
3 159 160 181
3 159 181 180
3 160 161 182
3 160 182 181
3 161 162 183
3 161 183 182
3 162 163 184
3 162 184 183
3 163 164 185
3 163 185 184
3 164 165 186
3 164 186 185
3 165 166 187
3 165 187 186
3 166 167 188
3 166 188 187
3 168 169 190
3 168 190 189
3 169 170 191
3 169 191 190
3 170 171 192
3 170 192 191
3 171 172 193
3 171 193 192
3 172 173 194
3 172 194 193
3 173 174 195
3 173 195 194
3 174 175 196
3 174 196 195
3 175 176 197
3 175 197 196
3 176 177 198
3 176 198 197
3 177 178 199
3 177 199 198
3 178 179 200
3 178 200 199
3 179 180 201
3 179 201 200
3 180 181 202
3 180 202 201
3 181 182 203
3 181 203 202
3 182 183 204
3 182 204 203
3 183 184 205
3 183 205 204
3 184 185 206
3 184 206 205
3 185 186 207
3 185 207 206
3 186 187 208
3 186 208 207
3 187 188 209
3 187 209 208
3 189 190 211
3 189 211 210
3 190 191 212
3 190 212 211
3 191 192 213
3 191 213 212
3 192 193 214
3 192 214 213
3 193 194 215
3 193 215 214
3 194 195 216
3 194 216 215
3 195 196 217
3 195 217 216
3 196 197 218
3 196 218 217
3 197 198 219
3 197 219 218
3 198 199 220
3 198 220 219
3 199 200 221
3 199 221 220
3 200 201 222
3 200 222 221
3 201 202 223
3 201 223 222
3 202 203 224
3 202 224 223
3 203 204 225
3 203 225 224
3 204 205 226
3 204 226 225
3 205 206 227
3 205 227 226
3 206 207 228
3 206 228 227
3 207 208 229
3 207 229 228
3 208 209 230
3 208 230 229
3 210 211 232
3 210 232 231
3 211 212 233
3 211 233 232
3 212 213 234
3 212 234 233
3 213 214 235
3 213 235 234
3 214 215 236
3 214 236 235
3 215 216 237
3 215 237 236
3 216 217 238
3 216 238 237
3 217 218 239
3 217 239 238
3 218 219 240
3 218 240 239
3 219 220 241
3 219 241 240
3 220 221 242
3 220 242 241
3 221 222 243
3 221 243 242
3 222 223 244
3 222 244 243
3 223 224 245
3 223 245 244
3 224 225 246
3 224 246 245
3 225 226 247
3 225 247 246
3 226 227 248
3 226 248 247
3 227 228 249
3 227 249 248
3 228 229 250
3 228 250 249
3 229 230 251
3 229 251 250
3 231 232 253
3 231 253 252
3 232 233 254
3 232 254 253
3 233 234 255
3 233 255 254
3 234 235 256
3 234 256 255
3 235 236 257
3 235 257 256
3 236 237 258
3 236 258 257
3 237 238 259
3 237 259 258
3 238 239 260
3 238 260 259
3 239 240 261
3 239 261 260
3 240 241 262
3 240 262 261
3 241 242 263
3 241 263 262
3 242 243 264
3 242 264 263
3 243 244 265
3 243 265 264
3 244 245 266
3 244 266 265
3 245 246 267
3 245 267 266
3 246 247 268
3 246 268 267
3 247 248 269
3 247 269 268
3 248 249 270
3 248 270 269
3 249 250 271
3 249 271 270
3 250 251 272
3 250 272 271
3 252 253 274
3 252 274 273
3 253 254 275
3 253 275 274
3 254 255 276
3 254 276 275
3 255 256 277
3 255 277 276
3 256 257 278
3 256 278 277
3 257 258 279
3 257 279 278
3 258 259 280
3 258 280 279
3 259 260 281
3 259 281 280
3 260 261 282
3 260 282 281
3 261 262 283
3 261 283 282
3 262 263 284
3 262 284 283
3 263 264 285
3 263 285 284
3 264 265 286
3 264 286 285
3 265 266 287
3 265 287 286
3 266 267 288
3 266 288 287
3 267 268 289
3 267 289 288
3 268 269 290
3 268 290 289
3 269 270 291
3 269 291 290
3 270 271 292
3 270 292 291
3 271 272 293
3 271 293 292
3 273 274 295
3 273 295 294
3 274 275 296
3 274 296 295
3 275 276 297
3 275 297 296
3 276 277 298
3 276 298 297
3 277 278 299
3 277 299 298
3 278 279 300
3 278 300 299
3 279 280 301
3 279 301 300
3 280 281 302
3 280 302 301
3 281 282 303
3 281 303 302
3 282 283 304
3 282 304 303
3 283 284 305
3 283 305 304
3 284 285 306
3 284 306 305
3 285 286 307
3 285 307 306
3 286 287 308
3 286 308 307
3 287 288 309
3 287 309 308
3 288 289 310
3 288 310 309
3 289 290 311
3 289 311 310
3 290 291 312
3 290 312 311
3 291 292 313
3 291 313 312
3 292 293 314
3 292 314 313
3 294 295 316
3 294 316 315
3 295 296 317
3 295 317 316
3 296 297 318
3 296 318 317
3 297 298 319
3 297 319 318
3 298 299 320
3 298 320 319
3 299 300 321
3 299 321 320
3 300 301 322
3 300 322 321
3 301 302 323
3 301 323 322
3 302 303 324
3 302 324 323
3 303 304 325
3 303 325 324
3 304 305 326
3 304 326 325
3 305 306 327
3 305 327 326
3 306 307 328
3 306 328 327
3 307 308 329
3 307 329 328
3 308 309 330
3 308 330 329
3 309 310 331
3 309 331 330
3 310 311 332
3 310 332 331
3 311 312 333
3 311 333 332
3 312 313 334
3 312 334 333
3 313 314 335
3 313 335 334
3 315 316 337
3 315 337 336
3 316 317 338
3 316 338 337
3 317 318 339
3 317 339 338
3 318 319 340
3 318 340 339
3 319 320 341
3 319 341 340
3 320 321 342
3 320 342 341
3 321 322 343
3 321 343 342
3 322 323 344
3 322 344 343
3 323 324 345
3 323 345 344
3 324 325 346
3 324 346 345
3 325 326 347
3 325 347 346
3 326 327 348
3 326 348 347
3 327 328 349
3 327 349 348
3 328 329 350
3 328 350 349
3 329 330 351
3 329 351 350
3 330 331 352
3 330 352 351
3 331 332 353
3 331 353 352
3 332 333 354
3 332 354 353
3 333 334 355
3 333 355 354
3 334 335 356
3 334 356 355
3 336 337 358
3 336 358 357
3 337 338 359
3 337 359 358
3 338 339 360
3 338 360 359
3 339 340 361
3 339 361 360
3 340 341 362
3 340 362 361
3 341 342 363
3 341 363 362
3 342 343 364
3 342 364 363
3 343 344 365
3 343 365 364
3 344 345 366
3 344 366 365
3 345 346 367
3 345 367 366
3 346 347 368
3 346 368 367
3 347 348 369
3 347 369 368
3 348 349 370
3 348 370 369
3 349 350 371
3 349 371 370
3 350 351 372
3 350 372 371
3 351 352 373
3 351 373 372
3 352 353 374
3 352 374 373
3 353 354 375
3 353 375 374
3 354 355 376
3 354 376 375
3 355 356 377
3 355 377 376
3 357 358 379
3 357 379 378
3 358 359 380
3 358 380 379
3 359 360 381
3 359 381 380
3 360 361 382
3 360 382 381
3 361 362 383
3 361 383 382
3 362 363 384
3 362 384 383
3 363 364 385
3 363 385 384
3 364 365 386
3 364 386 385
3 365 366 387
3 365 387 386
3 366 367 388
3 366 388 387
3 367 368 389
3 367 389 388
3 368 369 390
3 368 390 389
3 369 370 391
3 369 391 390
3 370 371 392
3 370 392 391
3 371 372 393
3 371 393 392
3 372 373 394
3 372 394 393
3 373 374 395
3 373 395 394
3 374 375 396
3 374 396 395
3 375 376 397
3 375 397 396
3 376 377 398
3 376 398 397
3 378 379 400
3 378 400 399
3 379 380 401
3 379 401 400
3 380 381 402
3 380 402 401
3 381 382 403
3 381 403 402
3 382 383 404
3 382 404 403
3 383 384 405
3 383 405 404
3 384 385 406
3 384 406 405
3 385 386 407
3 385 407 406
3 386 387 408
3 386 408 407
3 387 388 409
3 387 409 408
3 388 389 410
3 388 410 409
3 389 390 411
3 389 411 410
3 390 391 412
3 390 412 411
3 391 392 413
3 391 413 412
3 392 393 414
3 392 414 413
3 393 394 415
3 393 415 414
3 394 395 416
3 394 416 415
3 395 396 417
3 395 417 416
3 396 397 418
3 396 418 417
3 397 398 419
3 397 419 418
3 399 400 421
3 399 421 420
3 400 401 422
3 400 422 421
3 401 402 423
3 401 423 422
3 402 403 424
3 402 424 423
3 403 404 425
3 403 425 424
3 404 405 426
3 404 426 425
3 405 406 427
3 405 427 426
3 406 407 428
3 406 428 427
3 407 408 429
3 407 429 428
3 408 409 430
3 408 430 429
3 409 410 431
3 409 431 430
3 410 411 432
3 410 432 431
3 411 412 433
3 411 433 432
3 412 413 434
3 412 434 433
3 413 414 435
3 413 435 434
3 414 415 436
3 414 436 435
3 415 416 437
3 415 437 436
3 416 417 438
3 416 438 437
3 417 418 439
3 417 439 438
3 418 419 440
3 418 440 439
CELL_TYPES 800
5
5
5
5
5
5
5
5
5
5
5
5
5
5
5
5
5
5
5
5
5
5
5
5
5
5
5
5
5
5
5
5
5
5
5
5
5
5
5
5
5
5
5
5
5
5
5
5
5
5
5
5
5
5
5
5
5
5
5
5
5
5
5
5
5
5
5
5
5
5
5
5
5
5
5
5
5
5
5
5
5
5
5
5
5
5
5
5
5
5
5
5
5
5
5
5
5
5
5
5
5
5
5
5
5
5
5
5
5
5
5
5
5
5
5
5
5
5
5
5
5
5
5
5
5
5
5
5
5
5
5
5
5
5
5
5
5
5
5
5
5
5
5
5
5
5
5
5
5
5
5
5
5
5
5
5
5
5
5
5
5
5
5
5
5
5
5
5
5
5
5
5
5
5
5
5
5
5
5
5
5
5
5
5
5
5
5
5
5
5
5
5
5
5
5
5
5
5
5
5
5
5
5
5
5
5
5
5
5
5
5
5
5
5
5
5
5
5
5
5
5
5
5
5
5
5
5
5
5
5
5
5
5
5
5
5
5
5
5
5
5
5
5
5
5
5
5
5
5
5
5
5
5
5
5
5
5
5
5
5
5
5
5
5
5
5
5
5
5
5
5
5
5
5
5
5
5
5
5
5
5
5
5
5
5
5
5
5
5
5
5
5
5
5
5
5
5
5
5
5
5
5
5
5
5
5
5
5
5
5
5
5
5
5
5
5
5
5
5
5
5
5
5
5
5
5
5
5
5
5
5
5
5
5
5
5
5
5
5
5
5
5
5
5
5
5
5
5
5
5
5
5
5
5
5
5
5
5
5
5
5
5
5
5
5
5
5
5
5
5
5
5
5
5
5
5
5
5
5
5
5
5
5
5
5
5
5
5
5
5
5
5
5
5
5
5
5
5
5
5
5
5
5
5
5
5
5
5
5
5
5
5
5
5
5
5
5
5
5
5
5
5
5
5
5
5
5
5
5
5
5
5
5
5
5
5
5
5
5
5
5
5
5
5
5
5
5
5
5
5
5
5
5
5
5
5
5
5
5
5
5
5
5
5
5
5
5
5
5
5
5
5
5
5
5
5
5
5
5
5
5
5
5
5
5
5
5
5
5
5
5
5
5
5
5
5
5
5
5
5
5
5
5
5
5
5
5
5
5
5
5
5
5
5
5
5
5
5
5
5
5
5
5
5
5
5
5
5
5
5
5
5
5
5
5
5
5
5
5
5
5
5
5
5
5
5
5
5
5
5
5
5
5
5
5
5
5
5
5
5
5
5
5
5
5
5
5
5
5
5
5
5
5
5
5
5
5
5
5
5
5
5
5
5
5
5
5
5
5
5
5
5
5
5
5
5
5
5
5
5
5
5
5
5
5
5
5
5
5
5
5
5
5
5
5
5
5
5
5
5
5
5
5
5
5
5
5
5
5
5
5
5
5
5
5
5
5
5
5
5
5
5
5
5
5
5
5
5
5
5
5
5
5
5
5
5
5
5
5
5
5
5
5
5
5
5
5
5
5
5
5
5
5
5
5
5
5
5
5
5
5
5
5
5
5
5
5
5
5
5
5
5
5
5
5
5
5
5
5
5
5
5
5
5
5
5
5
5
5
5
5
5
5
5
5
5
5
5
5
5
5
5
5
5
5
5
5
5
5
5
5
5
5
5
5
5
5
5
5
5
5
5
5
5
5
5
5
5
5
5
5
5
5
5
5
5
5
5
5
5
5
5
5
5
5
5
5
5
5
5
5
5
5
5
5
5
5
5
5
5
5
5
5
5
5
5
5
5
5
5
5
5
5
5
5
5
5
5
5
5
CELL_DATA 800
VECTORS Et double
0.0276765 -0.129443 0
-0.018659 -0.0277155 0
0.0268795 -0.283286 0
-0.0181144 -0.184266 0
0.0254196 -0.430039 0
-0.0172179 -0.336074 0
0.0233326 -0.566131 0
-0.0159459 -0.479489 0
0.0206701 -0.688235 0
-0.014311 -0.611024 0
0.0174975 -0.793361 0
-0.0123444 -0.727463 0
0.0138931 -0.87893 0
-0.0100896 -0.825956 0
0.00994551 -0.942842 0
-0.00759909 -0.904087 0
0.00575201 -0.983531 0
-0.00493248 -0.959941 0
0.00141583 -0.999999 0
-0.00215441 -0.992148 0
-0.00295623 -0.991845 0
0.000667205 -0.99992 0
-0.00725654 -0.959273 0
0.00346287 -0.983069 0
-0.0113792 -0.903091 0
0.00616328 -0.942015 0
-0.0152227 -0.824689 0
0.00870091 -0.877774 0
-0.0186924 -0.726003 0
0.0110115 -0.791933 0
-0.0217029 -0.609475 0
0.0130352 -0.686614 0
-0.0241801 -0.47799 0
0.0147174 -0.56442 0
-0.0260629 -0.334809 0
0.0160076 -0.428376 0
-0.027305 -0.1835 0
0.0168556 -0.281855 0
-0.027876 -0.027876 0
0.017196 -0.128509 0
0.0363585 -0.127053 0
-0.00901423 -0.0271891 0
0.035549 -0.278324 0
-0.00863965 -0.180987 0
0.0337679 -0.422677 0
-0.00815418 -0.330259 0
0.0311047 -0.556572 0
-0.00753755 -0.471332 0
0.0276438 -0.676725 0
-0.00678497 -0.600747 0
0.0234795 -0.780189 0
-0.00590278 -0.71533 0
0.0187193 -0.864424 0
-0.00490508 -0.812272 0
0.0134833 -0.927363 0
-0.00381155 -0.889193 0
0.00790235 -0.96746 0
-0.00264603 -0.944206 0
0.00211477 -0.983733 0
-0.0014354 -0.97596 0
-0.00373642 -0.975784 0
-0.000208622 -0.983679 0
-0.00950714 -0.943812 0
0.0010041 -0.967175 0
-0.0150558 -0.88861 0
0.00217203 -0.926858 0
-0.0202468 -0.81154 0
0.0032646 -0.863726 0
-0.024954 -0.714508 0
0.00425183 -0.779338 0
-0.0290646 -0.59991 0
0.00510456 -0.675779 0
-0.0324821 -0.470579 0
0.00579425 -0.555605 0
-0.0351315 -0.329713 0
0.00629186 -0.421786 0
-0.036966 -0.180795 0
0.00656548 -0.277633 0
-0.037985 -0.0274956 0
0.00657658 -0.126708 0
0.0446578 -0.122682 0
0.000898727 -0.02622 0
0.0437146 -0.26892 0
0.00104914 -0.174848 0
0.0415913 -0.40851 0
0.00107917 -0.319156 0
0.0383724 -0.538016 0
0.00100711 -0.455578 0
0.034157 -0.654252 0
0.000850455 -0.580753 0
0.0290612 -0.754363 0
0.000624679 -0.691606 0
0.023218 -0.835887 0
0.000343554 -0.785411 0
0.0167763 -0.896821 0
1.96509e-05 -0.859864 0
0.00989779 -0.935669 0
-0.000335317 -0.913134 0
0.00275359 -0.951475 0
-0.000710338 -0.943914 0
-0.00447952 -0.943854 0
-0.00109511 -0.951448 0
-0.0116234 -0.912995 0
-0.00148016 -0.935553 0
-0.0185031 -0.859662 0
-0.00185709 -0.896624 0
-0.0249509 -0.78517 0
-0.00221889 -0.835621 0
-0.0308112 -0.691358 0
-0.00256038 -0.75405 0
-0.0359445 -0.580541 0
-0.00287877 -0.653923 0
-0.0402321 -0.455451 0
-0.00317437 -0.53771 0
-0.0435803 -0.319175 0
-0.00345143 -0.408279 0
-0.0459264 -0.175067 0
-0.00371867 -0.26882 0
-0.0472444 -0.0266653 0
-0.00398844 -0.122768 0
0.0523511 -0.116357 0
0.010874 -0.0248237 0
0.0512416 -0.255196 0
0.0107774 -0.165906 0
0.0487742 -0.387752 0
0.010329 -0.302916 0
0.0450286 -0.510757 0
0.00955121 -0.432466 0
0.0401128 -0.621179 0
0.00847489 -0.551361 0
0.0341594 -0.716301 0
0.00713638 -0.656673 0
0.0273232 -0.793782 0
0.00557622 -0.745809 0
0.0197783 -0.851714 0
0.00383839 -0.816576 0
0.011714 -0.888673 0
0.00196946 -0.867232 0
0.00333134 -0.90375 0
1.78166e-05 -0.89653 0
-0.00516231 -0.896574 0
-0.00196736 -0.903752 0
-0.0135578 -0.867323 0
-0.00393721 -0.888719 0
-0.0216494 -0.816719 0
-0.00584434 -0.851803 0
-0.0292403 -0.746008 0
-0.00764417 -0.793914 0
-0.0361472 -0.656934 0
-0.00929618 -0.716479 0
-0.0422057 -0.55169 0
-0.0107652 -0.621406 0
-0.0472747 -0.432869 0
-0.0120227 -0.511036 0
-0.0512409 -0.303395 0
-0.0130475 -0.388088 0
-0.0540223 -0.166452 0
-0.0138259 -0.255589 0
-0.0555691 -0.025399 0
-0.0143503 -0.116797 0
0.0592684 -0.108162 0
0.0207222 -0.0230228 0
0.0579901 -0.237357 0
0.0203697 -0.154287 0
0.0551963 -0.360728 0
0.0194359 -0.281782 0
0.0509669 -0.47523 0
0.017952 -0.402358 0
0.0454178 -0.578039 0
0.0159635 -0.513039 0
0.0386955 -0.666621 0
0.0135275 -0.611095 0
0.030973 -0.738792 0
0.0107105 -0.694108 0
0.0224461 -0.792774 0
0.00758673 -0.760033 0
0.0133284 -0.827238 0
0.00423649 -0.807244 0
0.00384695 -0.841333 0
0.000744432 -0.83458 0
-0.00576375 -0.834713 0
-0.00280243 -0.841364 0
-0.015267 -0.807539 0
-0.00631677 -0.827432 0
-0.0244301 -0.76048 0
-0.00971308 -0.793123 0
-0.0330296 -0.694695 0
-0.0129099 -0.739284 0
-0.0408576 -0.6118 0
-0.015832 -0.667238 0
-0.0477269 -0.513837 0
-0.0184121 -0.578759 0
-0.053476 -0.403214 0
-0.0205935 -0.476023 0
-0.057973 -0.28265 0
-0.0223305 -0.361557 0
-0.0611188 -0.155108 0
-0.0235893 -0.238174 0
-0.0628474 -0.0237174 0
-0.0243474 -0.108907 0
0.0652697 -0.0982229 0
0.0302644 -0.0208465 0
0.0638331 -0.215681 0
0.0296549 -0.140171 0
0.060744 -0.327866 0
0.028241 -0.256087 0
0.0560867 -0.432005 0
0.0260656 -0.365734 0
0.0499847 -0.525528 0
0.0231901 -0.466402 0
0.0425964 -0.606126 0
0.0196922 -0.555606 0
0.0341102 -0.671811 0
0.015663 -0.631144 0
0.02474 -0.72096 0
0.0112056 -0.691151 0
0.0147199 -0.752362 0
0.00643256 -0.734146 0
0.0042987 -0.765241 0
0.00146296 -0.759068 0
-0.00626585 -0.759277 0
-0.00357999 -0.7653 0
-0.0167137 -0.734615 0
-0.00857212 -0.752688 0
-0.0267886 -0.691862 0
-0.0133913 -0.72154 0
-0.0362446 -0.632066 0
-0.0179207 -0.67262 0
-0.0448523 -0.556696 0
-0.0220513 -0.607131 0
-0.0524048 -0.467604 0
-0.0256854 -0.526681 0
-0.0587224 -0.366978 0
-0.0287388 -0.433247 0
-0.0636579 -0.257289 0
-0.031143 -0.329124 0
-0.0670987 -0.141229 0
-0.032847 -0.216869 0
-0.0689683 -0.0216483 0
-0.0338169 -0.0992382 0
0.0702386 -0.0866939 0
0.0393327 -0.0183301 0
0.0686601 -0.190513 0
0.0384688 -0.123781 0
0.0653161 -0.289692 0
0.0365889 -0.22624 0
0.0602971 -0.381779 0
0.03375 -0.32318 0
0.0537343 -0.464497 0
0.0300298 -0.412203 0
0.0457963 -0.5358 0
0.0255253 -0.491106 0
0.0366835 -0.593926 0
0.0203507 -0.557939 0
0.0266242 -0.637439 0
0.014636 -0.61105 0
0.0158688 -0.665263 0
0.00852361 -0.649125 0
0.00468392 -0.676709 0
0.00216497 -0.671223 0
-0.00665436 -0.671493 0
-0.00428281 -0.676796 0
-0.0178668 -0.649739 0
-0.010661 -0.665704 0
-0.0286782 -0.611981 0
-0.016813 -0.638216 0
-0.038824 -0.559142 0
-0.0225884 -0.595007 0
-0.048057 -0.49252 0
-0.0278468 -0.537136 0
-0.056154 -0.413749 0
-0.0324611 -0.466022 0
-0.0629207 -0.324758 0
-0.0363214 -0.38341 0
-0.0681973 -0.227731 0
-0.0393379 -0.291327 0
-0.071862 -0.125046 0
-0.0414446 -0.192029 0
-0.0738326 -0.0192256 0
-0.0426004 -0.0879514 0
0.0740814 -0.0737564 0
0.047773 -0.0155147 0
0.0723793 -0.162253 0
0.0466563 -0.105377 0
0.0688259 -0.246821 0
0.04433 -0.192719 0
0.0635193 -0.325364 0
0.0408677 -0.275383 0
0.0565981 -0.395934 0
0.0363614 -0.351317 0
0.0482379 -0.456782 0
0.0309249 -0.418639 0
0.0386481 -0.506403 0
0.024693 -0.475681 0
0.0280673 -0.543568 0
0.01782 -0.52103 0
0.0167578 -0.567356 0
0.0104754 -0.553562 0
0.00499897 -0.577178 0
0.00284044 -0.572472 0
-0.00691901 -0.572788 0
-0.00489687 -0.577289 0
-0.0187027 -0.55429 0
-0.012546 -0.567892 0
-0.0300626 -0.522136 0
-0.0199187 -0.544507 0
-0.0407199 -0.477112 0
-0.0268338 -0.507707 0
-0.050414 -0.420321 0
-0.0331214 -0.458392 0
-0.0589087 -0.353152 0
-0.0386275 -0.39777 0
-0.0659986 -0.277249 0
-0.0432176 -0.327326 0
-0.0715143 -0.194467 0
-0.0467816 -0.248784 0
-0.0753282 -0.10683 0
-0.0492391 -0.164064 0
-0.0773575 -0.0164889 0
-0.0505462 -0.0752369 0
0.0767292 -0.0596091 0
0.0554536 -0.0124461 0
0.0749186 -0.131351 0
0.054071 -0.0852469 0
0.0712024 -0.199944 0
0.0513207 -0.156058 0
0.0656884 -0.263674 0
0.0472869 -0.223112 0
0.0585192 -0.320953 0
0.0420695 -0.284732 0
0.0498742 -0.370359 0
0.0357942 -0.339383 0
0.0399673 -0.410665 0
0.0286133 -0.385707 0
0.0290432 -0.440874 0
0.0207022 -0.422555 0
0.0173714 -0.460234 0
0.0122547 -0.449011 0
0.00523953 -0.468266 0
0.00347822 -0.46442 0
-0.00705359 -0.464767 0
-0.00541134 -0.468397 0
-0.0192052 -0.44982 0
-0.0141951 -0.460841 0
-0.0309164 -0.423789 0
-0.0226566 -0.441934 0
-0.0418989 -0.387309 0
-0.0305869 -0.412137 0
-0.051883 -0.341271 0
-0.03779 -0.372179 0
-0.0606234 -0.286801 0
-0.0440868 -0.323036 0
-0.0679063 -0.225227 0
-0.0493202 -0.265909 0
-0.0735553 -0.158046 0
-0.053359 -0.202193 0
-0.0774385 -0.0868893 0
-0.0561043 -0.133439 0
-0.0794772 -0.0134831 0
-0.0575061 -0.0613128 0
0.0781447 -0.0444525 0
0.062286 -0.0091744 0
0.0762234 -0.0982965 0
0.0605639 -0.0636892 0
0.072389 -0.14982 0
0.0574189 -0.11684 0
0.0667527 -0.197713 0
0.0528827 -0.167215 0
0.0594537 -0.240777 0
0.0470467 -0.213531 0
0.0506691 -0.277937 0
0.040044 -0.254628 0
0.0406132 -0.308272 0
0.0320411 -0.289482 0
0.0295321 -0.331027 0
0.0232315 -0.317227 0
0.0176977 -0.345639 0
0.0138299 -0.337172 0
0.0054009 -0.351743 0
0.00406669 -0.348824 0
-0.0070557 -0.349186 0
-0.00581825 -0.35189 0
-0.0193654 -0.338027 0
-0.0155815 -0.346292 0
-0.0312249 -0.318536 0
-0.0249823 -0.332164 0
-0.0423417 -0.29119 0
-0.0337879 -0.30985 0
-0.0524413 -0.256656 0
-0.0417795 -0.279895 0
-0.0612734 -0.215775 0
-0.0487567 -0.243031 0
-0.0686186 -0.169543 0
-0.0545417 -0.200156 0
-0.0742936 -0.119076 0
-0.0589817 -0.152315 0
-0.0781594 -0.0655774 0
-0.061947 -0.100665 0
-0.0801387 -0.0102571 0
-0.0633187 -0.0464353 0
0.0787255 -0.0520196 0
0.0472515 -0.00664028 0
0.0766152 -0.110179 0
0.0457913 -0.0657899 0
0.0726878 -0.165711 0
0.04332 -0.12345 0
0.0669939 -0.217221 0
0.0398353 -0.178158 0
0.0596535 -0.263424 0
0.0353923 -0.228538 0
0.0508366 -0.303169 0
0.030084 -0.273333 0
0.0407546 -0.33547 0
0.0240316 -0.311428 0
0.029652 -0.359524 0
0.0173788 -0.341876 0
0.0178003 -0.374734 0
0.0102862 -0.36392 0
0.00549016 -0.380721 0
0.00292657 -0.377012 0
-0.00697585 -0.377333 0
-0.00451967 -0.380826 0
-0.0192908 -0.364649 0
-0.0118692 -0.375264 0
-0.0311509 -0.342976 0
-0.0189402 -0.360457 0
-0.0422631 -0.312845 0
-0.0255569 -0.336767 0
-0.0523517 -0.274988 0
-0.031553 -0.30477 0
-0.0611649 -0.230331 0
-0.0367756 -0.265249 0
-0.0684797 -0.179961 0
-0.0410866 -0.219167 0
-0.0741054 -0.125099 0
-0.0443633 -0.167648 0
-0.0778833 -0.0670686 0
-0.0464937 -0.111942 0
-0.0796734 -0.00725362 0
-0.04736 -0.0533934 0
0.0593852 -0.039452 0
0.0354747 -0.0050241 0
0.0576332 -0.0834401 0
0.0343178 -0.0498666 0
0.0545816 -0.125397 0
0.0324086 -0.0934754 0
0.0502408 -0.164293 0
0.0297557 -0.134808 0
0.0446863 -0.199168 0
0.0263993 -0.172849 0
0.0380385 -0.229157 0
0.0224064 -0.206659 0
0.0304515 -0.253518 0
0.0178656 -0.2354 0
0.0221068 -0.271647 0
0.0128827 -0.25836 0
0.0132067 -0.283092 0
0.0075767 -0.274968 0
0.00396853 -0.28757 0
0.00207606 -0.284813 0
-0.00538112 -0.284967 0
-0.00348473 -0.287649 0
-0.014612 -0.275343 0
-0.00896874 -0.283402 0
-0.023496 -0.258933 0
-0.01424 -0.272174 0
-0.0318127 -0.236136 0
-0.0191666 -0.254238 0
-0.039354 -0.20751 0
-0.0236234 -0.230032 0
-0.0459288 -0.173754 0
-0.0274948 -0.200147 0
-0.0513658 -0.135696 0
-0.0306756 -0.165316 0
-0.0555146 -0.0942667 0
-0.0330716 -0.126389 0
-0.058241 -0.050491 0
-0.0345984 -0.0843235 0
-0.0594115 -0.00547858 0
-0.0351792 -0.0401575 0
0.044662 -0.02996 0
0.0264889 -0.00381186 0
0.043283 -0.0633211 0
0.0255962 -0.0378567 0
0.0409334 -0.0951145 0
0.0241388 -0.0709294 0
0.0376315 -0.124571 0
0.022132 -0.102249 0
0.0334333 -0.150969 0
0.0196082 -0.131056 0
0.0284262 -0.17366 0
0.0166175 -0.156647 0
0.0227237 -0.192083 0
0.013225 -0.178392 0
0.0164601 -0.205782 0
0.00950865 -0.195752 0
0.00978598 -0.214419 0
0.00555632 -0.208299 0
0.00286353 -0.217777 0
0.00146321 -0.215722 0
-0.00413777 -0.215773 0
-0.0026709 -0.217836 0
-0.0110455 -0.208453 0
-0.00674422 -0.214586 0
-0.0176887 -0.195996 0
-0.0106555 -0.20605 0
-0.0239017 -0.178706 0
-0.0143062 -0.192437 0
-0.0295276 -0.157007 0
-0.0176028 -0.174079 0
-0.0344219 -0.131431 0
-0.0204586 -0.151426 0
-0.0384543 -0.102608 0
-0.0227947 -0.125035 0
-0.0415093 -0.0712527 0
-0.0245412 -0.0955558 0
-0.0434859 -0.0381497 0
-0.0256382 -0.0637183 0
-0.0442956 -0.00414833 0
-0.0260382 -0.0303204 0
0.0334687 -0.0228397 0
0.0196099 -0.00290643 0
0.032407 -0.0482533 0
0.0189317 -0.0288543 0
0.0306143 -0.072458 0
0.0178327 -0.0540479 0
0.028114 -0.0948714 0
0.0163293 -0.0778909 0
0.0249504 -0.114949 0
0.0144478 -0.09981 0
0.021189 -0.132198 0
0.0122257 -0.119272 0
0.0169139 -0.146195 0
0.00971122 -0.1358 0
0.0122248 -0.156596 0
0.00696146 -0.148988 0
0.00723333 -0.163142 0
0.00404095 -0.158511 0
0.00206037 -0.165673 0
0.00101968 -0.164134 0
-0.00316773 -0.164124 0
-0.00202888 -0.165717 0
-0.00832224 -0.158532 0
-0.00502966 -0.163219 0
-0.0132753 -0.149034 0
-0.00790786 -0.156701 0
-0.0179027 -0.135862 0
-0.0105907 -0.146323 0
-0.0220869 -0.119342 0
-0.0130088 -0.132339 0
-0.0257191 -0.0998792 0
-0.015098 -0.115093 0
-0.0287014 -0.0779567 0
-0.0168001 -0.0950098 0
-0.0309478 -0.0541207 0
-0.0180644 -0.0725877 0
-0.0323857 -0.0289721 0
-0.0188493 -0.0483854 0
-0.0329589 -0.00315443 0
-0.0191249 -0.0230126 0
0.0249444 -0.017542 0
0.0143005 -0.00223508 0
0.0241366 -0.0370508 0
0.0137923 -0.0221591 0
0.0227811 -0.0556236 0
0.0129766 -0.0414986 0
0.0209002 -0.0728141 0
0.0118678 -0.0597936 0
0.0185294 -0.0882058 0
0.0104862 -0.0766043 0
0.0157182 -0.101423 0
0.00885981 -0.0915235 0
0.0125292 -0.112143 0
0.00702359 -0.104187 0
0.009036 -0.120102 0
0.00501904 -0.114286 0
0.00532148 -0.125104 0
0.00289289 -0.121571 0
0.00147514 -0.127025 0
0.000695859 -0.125864 0
-0.00240924 -0.125819 0
-0.00151874 -0.127058 0
-0.00623601 -0.121514 0
-0.00369638 -0.125124 0
-0.00991002 -0.114216 0
-0.00578263 -0.120109 0
-0.0133388 -0.104105 0
-0.0077245 -0.112135 0
-0.0164348 -0.0914296 0
-0.00947153 -0.1014 0
-0.0191169 -0.0765049 0
-0.0109769 -0.0881686 0
-0.0213124 -0.0597017 0
-0.0121987 -0.0727683 0
-0.0229582 -0.0414405 0
-0.0131005 -0.0555821 0
-0.024003 -0.0221818 0
-0.0136537 -0.03704 0
-0.0244107 -0.00241609 0
-0.0138388 -0.0176097 0
0.0184192 -0.0136515 0
0.0101389 -0.00174383 0
0.0178108 -0.028826 0
0.00976519 -0.017243 0
0.0167968 -0.043268 0
0.00917538 -0.0322857 0
0.0153963 -0.0566299 0
0.00837995 -0.0465113 0
0.0136368 -0.0685884 0
0.00739374 -0.0595776 0
0.0115554 -0.0788527 0
0.00623657 -0.0711684 0
0.00919827 -0.0871726 0
0.0049332 -0.081002 0
0.00661972 -0.0933445 0
0.00351284 -0.0888386 0
0.00388057 -0.0972172 0
0.00200843 -0.0944866 0
0.00104662 -0.0986958 0
0.000455688 -0.0978076 0
-0.00181314 -0.0977438 0
-0.00110777 -0.0987203 0
-0.00462829 -0.0943851 0
-0.00264344 -0.0972024 0
-0.00732872 -0.0887027 0
-0.00411287 -0.0932913 0
-0.00984627 -0.0808371 0
-0.00547857 -0.0870838 0
-0.0121163 -0.0709835 0
-0.00670487 -0.0787334 0
-0.0140791 -0.0593868 0
-0.00775869 -0.0684472 0
-0.0156814 -0.0463363 0
-0.00861038 -0.0564808 0
-0.0168773 -0.032159 0
-0.00923458 -0.0431327 0
-0.0176309 -0.0172121 0
-0.00961131 -0.0287373 0
-0.0179178 -0.00187339 0
-0.00972752 -0.013657 0
0.0133737 -0.0108607 0
0.00679028 -0.00139314 0
0.0129212 -0.022925 0
0.00652496 -0.0137161 0
0.0121755 -0.0344039 0
0.00611931 -0.0256755 0
0.0111508 -0.0450203 0
0.00557922 -0.0369822 0
0.00986751 -0.0545174 0
0.00491396 -0.0473633 0
0.00835283 -0.062665 0
0.00413645 -0.0565679 0
0.00664024 -0.0692651 0
0.00326303 -0.0643729 0
0.004769 -0.0741568 0
0.00231307 -0.0705886 0
0.00278313 -0.0772209 0
0.00130844 -0.0750637 0
0.000730203 -0.0783828 0
0.000272893 -0.0776892 0
-0.00133986 -0.0776144 0
-0.00076853 -0.0784013 0
-0.00337609 -0.0749354 0
-0.00179019 -0.077183 0
-0.0053277 -0.0704125 0
-0.00276644 -0.0740649 0
-0.00714531 -0.0641583 0
-0.00367228 -0.0691248 0
-0.00878209 -0.0563284 0
-0.00448387 -0.0624853 0
-0.0101949 -0.0471182 0
-0.00517911 -0.0543117 0
-0.0113451 -0.0367581 0
-0.00573812 -0.0448079 0
-0.0122 -0.025508 0
-0.00614376 -0.0342115 0
-0.0127339 -0.0136502 0
-0.00638216 -0.0227882 0
-0.0129299 -0.00148234 0
-0.00644358 -0.0108246 0
0.00940202 -0.00894909 0
0.00398109 -0.00115478 0
0.00907298 -0.0188788 0
0.00380747 -0.0112987 0
0.00854125 -0.0283232 0
0.00355902 -0.0211419 0
0.00781583 -0.0370541 0
0.00323595 -0.0304444 0
0.00691055 -0.0448607 0
0.00284221 -0.0389815 0
0.00584421 -0.0515543 0
0.00238472 -0.0465472 0
0.00464025 -0.0569728 0
0.00187271 -0.0529586 0
0.00332615 -0.0609848 0
0.00131732 -0.0580608 0
0.00193275 -0.063493 0
0.00073121 -0.0617298 0
0.000493359 -0.0644366 0
0.000128154 -0.063877 0
-0.000957043 -0.0637934 0
-0.000477311 -0.0644505 0
-0.00238274 -0.0615803 0
-0.00107027 -0.0634371 0
-0.00374815 -0.0578527 0
-0.00163581 -0.0608628 0
-0.00501865 -0.052704 0
-0.00215934 -0.0567921 0
-0.00616144 -0.0462629 0
-0.00262696 -0.0513266 0
-0.00714624 -0.0386907 0
-0.00302569 -0.0446029 0
-0.00794601 -0.0301773 0
-0.00334374 -0.0367893 0
-0.00853768 -0.0209367 0
-0.00357057 -0.0280817 0
-0.00890278 -0.0112006 0
-0.00369677 -0.0186988 0
-0.00902846 -0.00121124 0
-0.00371356 -0.00887578 0
0.00618035 -0.00776788 0
0.00147608 -0.00100956 0
0.00595294 -0.0163678 0
0.00138953 -0.00980115 0
0.00559812 -0.0245418 0
0.00128569 -0.018326 0
0.00511877 -0.0320937 0
0.00115882 -0.026377 0
0.00452269 -0.0388424 0
0.00100854 -0.0337609 0
0.00382176 -0.0446253 0
0.000836726 -0.0403008 0
0.00303123 -0.049303 0
0.000646466 -0.0458394 0
0.00216907 -0.0527626 0
0.000441675 -0.0502431 0
0.00125549 -0.0549203 0
0.000226873 -0.0534057 0
0.00031233 -0.0557245 0
7.02275e-06 -0.055251 0
-0.000637513 -0.0551564 0
-0.00021262 -0.0557348 0
-0.00157064 -0.0532312 0
-0.000426643 -0.0548464 0
-0.00246376 -0.0499976 0
-0.000629616 -0.0526087 0
-0.00329421 -0.0455369 0
-0.000816212 -0.0490783 0
-0.00404052 -0.039961 0
-0.000981315 -0.0443435 0
-0.00468285 -0.0334102 0
-0.0011201 -0.0385234 0
-0.0052034 -0.0260494 0
-0.00122803 -0.0317639 0
-0.00558664 -0.0180647 0
-0.00130068 -0.0242353 0
-0.00581933 -0.00965769 0
-0.00133291 -0.0161276 0
-0.00589008 -0.00103812 0
-0.00131596 -0.00764561 0
0.0034403 -0.00723245 0
-0.000945832 -0.000945832 0
0.00330552 -0.0151989 0
-0.000926345 -0.00911345 0
0.00310644 -0.0227618 0
-0.000884098 -0.0170102 0
0.00283971 -0.0297444 0
-0.000820176 -0.024459 0
0.00250844 -0.0359805 0
-0.000736171 -0.0312859 0
0.00211896 -0.041321 0
-0.000634162 -0.0373286 0
0.00167972 -0.0456372 0
-0.000516663 -0.0424427 0
0.00120076 -0.0488251 0
-0.000386567 -0.0465052 0
0.000693363 -0.0508081 0
-0.000247077 -0.0494183 0
0.000169676 -0.0515387 0
-0.000101624 -0.0511121 0
-0.00035756 -0.0510002 0
4.62096e-05 -0.0515462 0
-0.00087536 -0.0492069 0
0.000192785 -0.0507113 0
-0.00137081 -0.0462046 0
0.000334491 -0.048629 0
-0.00183138 -0.0420689 0
0.000467839 -0.0453522 0
-0.0022452 -0.0369038 0
0.000589542 -0.0409631 0
-0.00260133 -0.0308396 0
0.000696603 -0.0355722 0
-0.00288986 -0.0240299 0
0.000786387 -0.0293152 0
-0.00310196 -0.016648 0
0.00085669 -0.0223504 0
-0.00322905 -0.00888505 0
0.000905797 -0.0148552 0
-0.00326013 -0.000948925 0
0.000932532 -0.00702305 0
