# vtk DataFile Version 3.0
tp3485 cell-vector
ASCII
DATASET UNSTRUCTURED_GRID
POINTS 441 double
0 0 0
0.05 0 0
0.1 0 0
0.15 0 0
0.2 0 0
0.25 0 0
0.3 0 0
0.35 0 0
0.4 0 0
0.45 0 0
0.5 0 0
0.55 0 0
0.6 0 0
0.65 0 0
0.7 0 0
0.75 0 0
0.8 0 0
0.85 0 0
0.9 0 0
0.95 0 0
1 0 0
0 0.05 0
0.05 0.05 0
0.1 0.05 0
0.15 0.05 0
0.2 0.05 0
0.25 0.05 0
0.3 0.05 0
0.35 0.05 0
0.4 0.05 0
0.45 0.05 0
0.5 0.05 0
0.55 0.05 0
0.6 0.05 0
0.65 0.05 0
0.7 0.05 0
0.75 0.05 0
0.8 0.05 0
0.85 0.05 0
0.9 0.05 0
0.95 0.05 0
1 0.05 0
0 0.1 0
0.05 0.1 0
0.1 0.1 0
0.15 0.1 0
0.2 0.1 0
0.25 0.1 0
0.3 0.1 0
0.35 0.1 0
0.4 0.1 0
0.45 0.1 0
0.5 0.1 0
0.55 0.1 0
0.6 0.1 0
0.65 0.1 0
0.7 0.1 0
0.75 0.1 0
0.8 0.1 0
0.85 0.1 0
0.9 0.1 0
0.95 0.1 0
1 0.1 0
0 0.15 0
0.05 0.15 0
0.1 0.15 0
0.15 0.15 0
0.2 0.15 0
0.25 0.15 0
0.3 0.15 0
0.35 0.15 0
0.4 0.15 0
0.45 0.15 0
0.5 0.15 0
0.55 0.15 0
0.6 0.15 0
0.65 0.15 0
0.7 0.15 0
0.75 0.15 0
0.8 0.15 0
0.85 0.15 0
0.9 0.15 0
0.95 0.15 0
1 0.15 0
0 0.2 0
0.05 0.2 0
0.1 0.2 0
0.15 0.2 0
0.2 0.2 0
0.25 0.2 0
0.3 0.2 0
0.35 0.2 0
0.4 0.2 0
0.45 0.2 0
0.5 0.2 0
0.55 0.2 0
0.6 0.2 0
0.65 0.2 0
0.7 0.2 0
0.75 0.2 0
0.8 0.2 0
0.85 0.2 0
0.9 0.2 0
0.95 0.2 0
1 0.2 0
0 0.25 0
0.05 0.25 0
0.1 0.25 0
0.15 0.25 0
0.2 0.25 0
0.25 0.25 0
0.3 0.25 0
0.35 0.25 0
0.4 0.25 0
0.45 0.25 0
0.5 0.25 0
0.55 0.25 0
0.6 0.25 0
0.65 0.25 0
0.7 0.25 0
0.75 0.25 0
0.8 0.25 0
0.85 0.25 0
0.9 0.25 0
0.95 0.25 0
1 0.25 0
0 0.3 0
0.05 0.3 0
0.1 0.3 0
0.15 0.3 0
0.2 0.3 0
0.25 0.3 0
0.3 0.3 0
0.35 0.3 0
0.4 0.3 0
0.45 0.3 0
0.5 0.3 0
0.55 0.3 0
0.6 0.3 0
0.65 0.3 0
0.7 0.3 0
0.75 0.3 0
0.8 0.3 0
0.85 0.3 0
0.9 0.3 0
0.95 0.3 0
1 0.3 0
0 0.35 0
0.05 0.35 0
0.1 0.35 0
0.15 0.35 0
0.2 0.35 0
0.25 0.35 0
0.3 0.35 0
0.35 0.35 0
0.4 0.35 0
0.45 0.35 0
0.5 0.35 0
0.55 0.35 0
0.6 0.35 0
0.65 0.35 0
0.7 0.35 0
0.75 0.35 0
0.8 0.35 0
0.85 0.35 0
0.9 0.35 0
0.95 0.35 0
1 0.35 0
0 0.4 0
0.05 0.4 0
0.1 0.4 0
0.15 0.4 0
0.2 0.4 0
0.25 0.4 0
0.3 0.4 0
0.35 0.4 0
0.4 0.4 0
0.45 0.4 0
0.5 0.4 0
0.55 0.4 0
0.6 0.4 0
0.65 0.4 0
0.7 0.4 0
0.75 0.4 0
0.8 0.4 0
0.85 0.4 0
0.9 0.4 0
0.95 0.4 0
1 0.4 0
0 0.45 0
0.05 0.45 0
0.1 0.45 0
0.15 0.45 0
0.2 0.45 0
0.25 0.45 0
0.3 0.45 0
0.35 0.45 0
0.4 0.45 0
0.45 0.45 0
0.5 0.45 0
0.55 0.45 0
0.6 0.45 0
0.65 0.45 0
0.7 0.45 0
0.75 0.45 0
0.8 0.45 0
0.85 0.45 0
0.9 0.45 0
0.95 0.45 0
1 0.45 0
0 0.5 0
0.05 0.5 0
0.1 0.5 0
0.15 0.5 0
0.2 0.5 0
0.25 0.5 0
0.3 0.5 0
0.35 0.5 0
0.4 0.5 0
0.45 0.5 0
0.5 0.5 0
0.55 0.5 0
0.6 0.5 0
0.65 0.5 0
0.7 0.5 0
0.75 0.5 0
0.8 0.5 0
0.85 0.5 0
0.9 0.5 0
0.95 0.5 0
1 0.5 0
0 0.55 0
0.05 0.55 0
0.1 0.55 0
0.15 0.55 0
0.2 0.55 0
0.25 0.55 0
0.3 0.55 0
0.35 0.55 0
0.4 0.55 0
0.45 0.55 0
0.5 0.55 0
0.55 0.55 0
0.6 0.55 0
0.65 0.55 0
0.7 0.55 0
0.75 0.55 0
0.8 0.55 0
0.85 0.55 0
0.9 0.55 0
0.95 0.55 0
1 0.55 0
0 0.6 0
0.05 0.6 0
0.1 0.6 0
0.15 0.6 0
0.2 0.6 0
0.25 0.6 0
0.3 0.6 0
0.35 0.6 0
0.4 0.6 0
0.45 0.6 0
0.5 0.6 0
0.55 0.6 0
0.6 0.6 0
0.65 0.6 0
0.7 0.6 0
0.75 0.6 0
0.8 0.6 0
0.85 0.6 0
0.9 0.6 0
0.95 0.6 0
1 0.6 0
0 0.65 0
0.05 0.65 0
0.1 0.65 0
0.15 0.65 0
0.2 0.65 0
0.25 0.65 0
0.3 0.65 0
0.35 0.65 0
0.4 0.65 0
0.45 0.65 0
0.5 0.65 0
0.55 0.65 0
0.6 0.65 0
0.65 0.65 0
0.7 0.65 0
0.75 0.65 0
0.8 0.65 0
0.85 0.65 0
0.9 0.65 0
0.95 0.65 0
1 0.65 0
0 0.7 0
0.05 0.7 0
0.1 0.7 0
0.15 0.7 0
0.2 0.7 0
0.25 0.7 0
0.3 0.7 0
0.35 0.7 0
0.4 0.7 0
0.45 0.7 0
0.5 0.7 0
0.55 0.7 0
0.6 0.7 0
0.65 0.7 0
0.7 0.7 0
0.75 0.7 0
0.8 0.7 0
0.85 0.7 0
0.9 0.7 0
0.95 0.7 0
1 0.7 0
0 0.75 0
0.05 0.75 0
0.1 0.75 0
0.15 0.75 0
0.2 0.75 0
0.25 0.75 0
0.3 0.75 0
0.35 0.75 0
0.4 0.75 0
0.45 0.75 0
0.5 0.75 0
0.55 0.75 0
0.6 0.75 0
0.65 0.75 0
0.7 0.75 0
0.75 0.75 0
0.8 0.75 0
0.85 0.75 0
0.9 0.75 0
0.95 0.75 0
1 0.75 0
0 0.8 0
0.05 0.8 0
0.1 0.8 0
0.15 0.8 0
0.2 0.8 0
0.25 0.8 0
0.3 0.8 0
0.35 0.8 0
0.4 0.8 0
0.45 0.8 0
0.5 0.8 0
0.55 0.8 0
0.6 0.8 0
0.65 0.8 0
0.7 0.8 0
0.75 0.8 0
0.8 0.8 0
0.85 0.8 0
0.9 0.8 0
0.95 0.8 0
1 0.8 0
0 0.85 0
0.05 0.85 0
0.1 0.85 0
0.15 0.85 0
0.2 0.85 0
0.25 0.85 0
0.3 0.85 0
0.35 0.85 0
0.4 0.85 0
0.45 0.85 0
0.5 0.85 0
0.55 0.85 0
0.6 0.85 0
0.65 0.85 0
0.7 0.85 0
0.75 0.85 0
0.8 0.85 0
0.85 0.85 0
0.9 0.85 0
0.95 0.85 0
1 0.85 0
0 0.9 0
0.05 0.9 0
0.1 0.9 0
0.15 0.9 0
0.2 0.9 0
0.25 0.9 0
0.3 0.9 0
0.35 0.9 0
0.4 0.9 0
0.45 0.9 0
0.5 0.9 0
0.55 0.9 0
0.6 0.9 0
0.65 0.9 0
0.7 0.9 0
0.75 0.9 0
0.8 0.9 0
0.85 0.9 0
0.9 0.9 0
0.95 0.9 0
1 0.9 0
0 0.95 0
0.05 0.95 0
0.1 0.95 0
0.15 0.95 0
0.2 0.95 0
0.25 0.95 0
0.3 0.95 0
0.35 0.95 0
0.4 0.95 0
0.45 0.95 0
0.5 0.95 0
0.55 0.95 0
0.6 0.95 0
0.65 0.95 0
0.7 0.95 0
0.75 0.95 0
0.8 0.95 0
0.85 0.95 0
0.9 0.95 0
0.95 0.95 0
1 0.95 0
0 1 0
0.05 1 0
0.1 1 0
0.15 1 0
0.2 1 0
0.25 1 0
0.3 1 0
0.35 1 0
0.4 1 0
0.45 1 0
0.5 1 0
0.55 1 0
0.6 1 0
0.65 1 0
0.7 1 0
0.75 1 0
0.8 1 0
0.85 1 0
0.9 1 0
0.95 1 0
1 1 0
CELLS 800 3200
3 0 1 22
3 0 22 21
3 1 2 23
3 1 23 22
3 2 3 24
3 2 24 23
3 3 4 25
3 3 25 24
3 4 5 26
3 4 26 25
3 5 6 27
3 5 27 26
3 6 7 28
3 6 28 27
3 7 8 29
3 7 29 28
3 8 9 30
3 8 30 29
3 9 10 31
3 9 31 30
3 10 11 32
3 10 32 31
3 11 12 33
3 11 33 32
3 12 13 34
3 12 34 33
3 13 14 35
3 13 35 34
3 14 15 36
3 14 36 35
3 15 16 37
3 15 37 36
3 16 17 38
3 16 38 37
3 17 18 39
3 17 39 38
3 18 19 40
3 18 40 39
3 19 20 41
3 19 41 40
3 21 22 43
3 21 43 42
3 22 23 44
3 22 44 43
3 23 24 45
3 23 45 44
3 24 25 46
3 24 46 45
3 25 26 47
3 25 47 46
3 26 27 48
3 26 48 47
3 27 28 49
3 27 49 48
3 28 29 50
3 28 50 49
3 29 30 51
3 29 51 50
3 30 31 52
3 30 52 51
3 31 32 53
3 31 53 52
3 32 33 54
3 32 54 53
3 33 34 55
3 33 55 54
3 34 35 56
3 34 56 55
3 35 36 57
3 35 57 56
3 36 37 58
3 36 58 57
3 37 38 59
3 37 59 58
3 38 39 60
3 38 60 59
3 39 40 61
3 39 61 60
3 40 41 62
3 40 62 61
3 42 43 64
3 42 64 63
3 43 44 65
3 43 65 64
3 44 45 66
3 44 66 65
3 45 46 67
3 45 67 66
3 46 47 68
3 46 68 67
3 47 48 69
3 47 69 68
3 48 49 70
3 48 70 69
3 49 50 71
3 49 71 70
3 50 51 72
3 50 72 71
3 51 52 73
3 51 73 72
3 52 53 74
3 52 74 73
3 53 54 75
3 53 75 74
3 54 55 76
3 54 76 75
3 55 56 77
3 55 77 76
3 56 57 78
3 56 78 77
3 57 58 79
3 57 79 78
3 58 59 80
3 58 80 79
3 59 60 81
3 59 81 80
3 60 61 82
3 60 82 81
3 61 62 83
3 61 83 82
3 63 64 85
3 63 85 84
3 64 65 86
3 64 86 85
3 65 66 87
3 65 87 86
3 66 67 88
3 66 88 87
3 67 68 89
3 67 89 88
3 68 69 90
3 68 90 89
3 69 70 91
3 69 91 90
3 70 71 92
3 70 92 91
3 71 72 93
3 71 93 92
3 72 73 94
3 72 94 93
3 73 74 95
3 73 95 94
3 74 75 96
3 74 96 95
3 75 76 97
3 75 97 96
3 76 77 98
3 76 98 97
3 77 78 99
3 77 99 98
3 78 79 100
3 78 100 99
3 79 80 101
3 79 101 100
3 80 81 102
3 80 102 101
3 81 82 103
3 81 103 102
3 82 83 104
3 82 104 103
3 84 85 106
3 84 106 105
3 85 86 107
3 85 107 106
3 86 87 108
3 86 108 107
3 87 88 109
3 87 109 108
3 88 89 110
3 88 110 109
3 89 90 111
3 89 111 110
3 90 91 112
3 90 112 111
3 91 92 113
3 91 113 112
3 92 93 114
3 92 114 113
3 93 94 115
3 93 115 114
3 94 95 116
3 94 116 115
3 95 96 117
3 95 117 116
3 96 97 118
3 96 118 117
3 97 98 119
3 97 119 118
3 98 99 120
3 98 120 119
3 99 100 121
3 99 121 120
3 100 101 122
3 100 122 121
3 101 102 123
3 101 123 122
3 102 103 124
3 102 124 123
3 103 104 125
3 103 125 124
3 105 106 127
3 105 127 126
3 106 107 128
3 106 128 127
3 107 108 129
3 107 129 128
3 108 109 130
3 108 130 129
3 109 110 131
3 109 131 130
3 110 111 132
3 110 132 131
3 111 112 133
3 111 133 132
3 112 113 134
3 112 134 133
3 113 114 135
3 113 135 134
3 114 115 136
3 114 136 135
3 115 116 137
3 115 137 136
3 116 117 138
3 116 138 137
3 117 118 139
3 117 139 138
3 118 119 140
3 118 140 139
3 119 120 141
3 119 141 140
3 120 121 142
3 120 142 141
3 121 122 143
3 121 143 142
3 122 123 144
3 122 144 143
3 123 124 145
3 123 145 144
3 124 125 146
3 124 146 145
3 126 127 148
3 126 148 147
3 127 128 149
3 127 149 148
3 128 129 150
3 128 150 149
3 129 130 151
3 129 151 150
3 130 131 152
3 130 152 151
3 131 132 153
3 131 153 152
3 132 133 154
3 132 154 153
3 133 134 155
3 133 155 154
3 134 135 156
3 134 156 155
3 135 136 157
3 135 157 156
3 136 137 158
3 136 158 157
3 137 138 159
3 137 159 158
3 138 139 160
3 138 160 159
3 139 140 161
3 139 161 160
3 140 141 162
3 140 162 161
3 141 142 163
3 141 163 162
3 142 143 164
3 142 164 163
3 143 144 165
3 143 165 164
3 144 145 166
3 144 166 165
3 145 146 167
3 145 167 166
3 147 148 169
3 147 169 168
3 148 149 170
3 148 170 169
3 149 150 171
3 149 171 170
3 150 151 172
3 150 172 171
3 151 152 173
3 151 173 172
3 152 153 174
3 152 174 173
3 153 154 175
3 153 175 174
3 154 155 176
3 154 176 175
3 155 156 177
3 155 177 176
3 156 157 178
3 156 178 177
3 157 158 179
3 157 179 178
3 158 159 180
3 158 180 179
3 159 160 181
3 159 181 180
3 160 161 182
3 160 182 181
3 161 162 183
3 161 183 182
3 162 163 184
3 162 184 183
3 163 164 185
3 163 185 184
3 164 165 186
3 164 186 185
3 165 166 187
3 165 187 186
3 166 167 188
3 166 188 187
3 168 169 190
3 168 190 189
3 169 170 191
3 169 191 190
3 170 171 192
3 170 192 191
3 171 172 193
3 171 193 192
3 172 173 194
3 172 194 193
3 173 174 195
3 173 195 194
3 174 175 196
3 174 196 195
3 175 176 197
3 175 197 196
3 176 177 198
3 176 198 197
3 177 178 199
3 177 199 198
3 178 179 200
3 178 200 199
3 179 180 201
3 179 201 200
3 180 181 202
3 180 202 201
3 181 182 203
3 181 203 202
3 182 183 204
3 182 204 203
3 183 184 205
3 183 205 204
3 184 185 206
3 184 206 205
3 185 186 207
3 185 207 206
3 186 187 208
3 186 208 207
3 187 188 209
3 187 209 208
3 189 190 211
3 189 211 210
3 190 191 212
3 190 212 211
3 191 192 213
3 191 213 212
3 192 193 214
3 192 214 213
3 193 194 215
3 193 215 214
3 194 195 216
3 194 216 215
3 195 196 217
3 195 217 216
3 196 197 218
3 196 218 217
3 197 198 219
3 197 219 218
3 198 199 220
3 198 220 219
3 199 200 221
3 199 221 220
3 200 201 222
3 200 222 221
3 201 202 223
3 201 223 222
3 202 203 224
3 202 224 223
3 203 204 225
3 203 225 224
3 204 205 226
3 204 226 225
3 205 206 227
3 205 227 226
3 206 207 228
3 206 228 227
3 207 208 229
3 207 229 228
3 208 209 230
3 208 230 229
3 210 211 232
3 210 232 231
3 211 212 233
3 211 233 232
3 212 213 234
3 212 234 233
3 213 214 235
3 213 235 234
3 214 215 236
3 214 236 235
3 215 216 237
3 215 237 236
3 216 217 238
3 216 238 237
3 217 218 239
3 217 239 238
3 218 219 240
3 218 240 239
3 219 220 241
3 219 241 240
3 220 221 242
3 220 242 241
3 221 222 243
3 221 243 242
3 222 223 244
3 222 244 243
3 223 224 245
3 223 245 244
3 224 225 246
3 224 246 245
3 225 226 247
3 225 247 246
3 226 227 248
3 226 248 247
3 227 228 249
3 227 249 248
3 228 229 250
3 228 250 249
3 229 230 251
3 229 251 250
3 231 232 253
3 231 253 252
3 232 233 254
3 232 254 253
3 233 234 255
3 233 255 254
3 234 235 256
3 234 256 255
3 235 236 257
3 235 257 256
3 236 237 258
3 236 258 257
3 237 238 259
3 237 259 258
3 238 239 260
3 238 260 259
3 239 240 261
3 239 261 260
3 240 241 262
3 240 262 261
3 241 242 263
3 241 263 262
3 242 243 264
3 242 264 263
3 243 244 265
3 243 265 264
3 244 245 266
3 244 266 265
3 245 246 267
3 245 267 266
3 246 247 268
3 246 268 267
3 247 248 269
3 247 269 268
3 248 249 270
3 248 270 269
3 249 250 271
3 249 271 270
3 250 251 272
3 250 272 271
3 252 253 274
3 252 274 273
3 253 254 275
3 253 275 274
3 254 255 276
3 254 276 275
3 255 256 277
3 255 277 276
3 256 257 278
3 256 278 277
3 257 258 279
3 257 279 278
3 258 259 280
3 258 280 279
3 259 260 281
3 259 281 280
3 260 261 282
3 260 282 281
3 261 262 283
3 261 283 282
3 262 263 284
3 262 284 283
3 263 264 285
3 263 285 284
3 264 265 286
3 264 286 285
3 265 266 287
3 265 287 286
3 266 267 288
3 266 288 287
3 267 268 289
3 267 289 288
3 268 269 290
3 268 290 289
3 269 270 291
3 269 291 290
3 270 271 292
3 270 292 291
3 271 272 293
3 271 293 292
3 273 274 295
3 273 295 294
3 274 275 296
3 274 296 295
3 275 276 297
3 275 297 296
3 276 277 298
3 276 298 297
3 277 278 299
3 277 299 298
3 278 279 300
3 278 300 299
3 279 280 301
3 279 301 300
3 280 281 302
3 280 302 301
3 281 282 303
3 281 303 302
3 282 283 304
3 282 304 303
3 283 284 305
3 283 305 304
3 284 285 306
3 284 306 305
3 285 286 307
3 285 307 306
3 286 287 308
3 286 308 307
3 287 288 309
3 287 309 308
3 288 289 310
3 288 310 309
3 289 290 311
3 289 311 310
3 290 291 312
3 290 312 311
3 291 292 313
3 291 313 312
3 292 293 314
3 292 314 313
3 294 295 316
3 294 316 315
3 295 296 317
3 295 317 316
3 296 297 318
3 296 318 317
3 297 298 319
3 297 319 318
3 298 299 320
3 298 320 319
3 299 300 321
3 299 321 320
3 300 301 322
3 300 322 321
3 301 302 323
3 301 323 322
3 302 303 324
3 302 324 323
3 303 304 325
3 303 325 324
3 304 305 326
3 304 326 325
3 305 306 327
3 305 327 326
3 306 307 328
3 306 328 327
3 307 308 329
3 307 329 328
3 308 309 330
3 308 330 329
3 309 310 331
3 309 331 330
3 310 311 332
3 310 332 331
3 311 312 333
3 311 333 332
3 312 313 334
3 312 334 333
3 313 314 335
3 313 335 334
3 315 316 337
3 315 337 336
3 316 317 338
3 316 338 337
3 317 318 339
3 317 339 338
3 318 319 340
3 318 340 339
3 319 320 341
3 319 341 340
3 320 321 342
3 320 342 341
3 321 322 343
3 321 343 342
3 322 323 344
3 322 344 343
3 323 324 345
3 323 345 344
3 324 325 346
3 324 346 345
3 325 326 347
3 325 347 346
3 326 327 348
3 326 348 347
3 327 328 349
3 327 349 348
3 328 329 350
3 328 350 349
3 329 330 351
3 329 351 350
3 330 331 352
3 330 352 351
3 331 332 353
3 331 353 352
3 332 333 354
3 332 354 353
3 333 334 355
3 333 355 354
3 334 335 356
3 334 356 355
3 336 337 358
3 336 358 357
3 337 338 359
3 337 359 358
3 338 339 360
3 338 360 359
3 339 340 361
3 339 361 360
3 340 341 362
3 340 362 361
3 341 342 363
3 341 363 362
3 342 343 364
3 342 364 363
3 343 344 365
3 343 365 364
3 344 345 366
3 344 366 365
3 345 346 367
3 345 367 366
3 346 347 368
3 346 368 367
3 347 348 369
3 347 369 368
3 348 349 370
3 348 370 369
3 349 350 371
3 349 371 370
3 350 351 372
3 350 372 371
3 351 352 373
3 351 373 372
3 352 353 374
3 352 374 373
3 353 354 375
3 353 375 374
3 354 355 376
3 354 376 375
3 355 356 377
3 355 377 376
3 357 358 379
3 357 379 378
3 358 359 380
3 358 380 379
3 359 360 381
3 359 381 380
3 360 361 382
3 360 382 381
3 361 362 383
3 361 383 382
3 362 363 384
3 362 384 383
3 363 364 385
3 363 385 384
3 364 365 386
3 364 386 385
3 365 366 387
3 365 387 386
3 366 367 388
3 366 388 387
3 367 368 389
3 367 389 388
3 368 369 390
3 368 390 389
3 369 370 391
3 369 391 390
3 370 371 392
3 370 392 391
3 371 372 393
3 371 393 392
3 372 373 394
3 372 394 393
3 373 374 395
3 373 395 394
3 374 375 396
3 374 396 395
3 375 376 397
3 375 397 396
3 376 377 398
3 376 398 397
3 378 379 400
3 378 400 399
3 379 380 401
3 379 401 400
3 380 381 402
3 380 402 401
3 381 382 403
3 381 403 402
3 382 383 404
3 382 404 403
3 383 384 405
3 383 405 404
3 384 385 406
3 384 406 405
3 385 386 407
3 385 407 406
3 386 387 408
3 386 408 407
3 387 388 409
3 387 409 408
3 388 389 410
3 388 410 409
3 389 390 411
3 389 411 410
3 390 391 412
3 390 412 411
3 391 392 413
3 391 413 412
3 392 393 414
3 392 414 413
3 393 394 415
3 393 415 414
3 394 395 416
3 394 416 415
3 395 396 417
3 395 417 416
3 396 397 418
3 396 418 417
3 397 398 419
3 397 419 418
3 399 400 421
3 399 421 420
3 400 401 422
3 400 422 421
3 401 402 423
3 401 423 422
3 402 403 424
3 402 424 423
3 403 404 425
3 403 425 424
3 404 405 426
3 404 426 425
3 405 406 427
3 405 427 426
3 406 407 428
3 406 428 427
3 407 408 429
3 407 429 428
3 408 409 430
3 408 430 429
3 409 410 431
3 409 431 430
3 410 411 432
3 410 432 431
3 411 412 433
3 411 433 432
3 412 413 434
3 412 434 433
3 413 414 435
3 413 435 434
3 414 415 436
3 414 436 435
3 415 416 437
3 415 437 436
3 416 417 438
3 416 438 437
3 417 418 439
3 417 439 438
3 418 419 440
3 418 440 439
CELL_TYPES 800
5
5
5
5
5
5
5
5
5
5
5
5
5
5
5
5
5
5
5
5
5
5
5
5
5
5
5
5
5
5
5
5
5
5
5
5
5
5
5
5
5
5
5
5
5
5
5
5
5
5
5
5
5
5
5
5
5
5
5
5
5
5
5
5
5
5
5
5
5
5
5
5
5
5
5
5
5
5
5
5
5
5
5
5
5
5
5
5
5
5
5
5
5
5
5
5
5
5
5
5
5
5
5
5
5
5
5
5
5
5
5
5
5
5
5
5
5
5
5
5
5
5
5
5
5
5
5
5
5
5
5
5
5
5
5
5
5
5
5
5
5
5
5
5
5
5
5
5
5
5
5
5
5
5
5
5
5
5
5
5
5
5
5
5
5
5
5
5
5
5
5
5
5
5
5
5
5
5
5
5
5
5
5
5
5
5
5
5
5
5
5
5
5
5
5
5
5
5
5
5
5
5
5
5
5
5
5
5
5
5
5
5
5
5
5
5
5
5
5
5
5
5
5
5
5
5
5
5
5
5
5
5
5
5
5
5
5
5
5
5
5
5
5
5
5
5
5
5
5
5
5
5
5
5
5
5
5
5
5
5
5
5
5
5
5
5
5
5
5
5
5
5
5
5
5
5
5
5
5
5
5
5
5
5
5
5
5
5
5
5
5
5
5
5
5
5
5
5
5
5
5
5
5
5
5
5
5
5
5
5
5
5
5
5
5
5
5
5
5
5
5
5
5
5
5
5
5
5
5
5
5
5
5
5
5
5
5
5
5
5
5
5
5
5
5
5
5
5
5
5
5
5
5
5
5
5
5
5
5
5
5
5
5
5
5
5
5
5
5
5
5
5
5
5
5
5
5
5
5
5
5
5
5
5
5
5
5
5
5
5
5
5
5
5
5
5
5
5
5
5
5
5
5
5
5
5
5
5
5
5
5
5
5
5
5
5
5
5
5
5
5
5
5
5
5
5
5
5
5
5
5
5
5
5
5
5
5
5
5
5
5
5
5
5
5
5
5
5
5
5
5
5
5
5
5
5
5
5
5
5
5
5
5
5
5
5
5
5
5
5
5
5
5
5
5
5
5
5
5
5
5
5
5
5
5
5
5
5
5
5
5
5
5
5
5
5
5
5
5
5
5
5
5
5
5
5
5
5
5
5
5
5
5
5
5
5
5
5
5
5
5
5
5
5
5
5
5
5
5
5
5
5
5
5
5
5
5
5
5
5
5
5
5
5
5
5
5
5
5
5
5
5
5
5
5
5
5
5
5
5
5
5
5
5
5
5
5
5
5
5
5
5
5
5
5
5
5
5
5
5
5
5
5
5
5
5
5
5
5
5
5
5
5
5
5
5
5
5
5
5
5
5
5
5
5
5
5
5
5
5
5
5
5
5
5
5
5
5
5
5
5
5
5
5
5
5
5
5
5
5
5
5
5
5
5
5
5
5
5
5
5
5
5
5
5
5
5
5
5
5
5
5
5
5
5
5
5
5
5
5
5
5
5
5
5
5
5
5
5
5
5
5
5
5
5
5
5
5
5
5
5
5
5
5
5
5
5
5
5
5
5
5
5
5
5
5
5
5
5
5
5
5
5
5
5
5
5
5
5
5
5
5
5
5
5
5
5
5
5
5
5
5
5
5
5
5
5
5
5
5
5
5
5
5
5
5
5
5
5
5
5
5
5
5
5
5
5
5
5
5
5
5
5
5
5
5
5
5
5
5
5
5
5
5
5
5
5
5
5
5
5
5
5
5
5
5
5
5
5
5
5
5
5
5
5
5
5
5
5
5
5
5
5
5
5
5
5
5
5
5
CELL_DATA 800
VECTORS Et double
-0.0687048 -0.057879 0
-0.325789 0.0652504 0
-0.0668541 -0.0425259 0
-0.315239 0.0749151 0
-0.0632318 -0.0238834 0
-0.297206 0.0855937 0
-0.0578354 -0.00325036 0
-0.271756 0.0960916 0
-0.0507652 0.0177979 0
-0.239478 0.105165 0
-0.0422308 0.0376259 0
-0.20128 0.111504 0
-0.03254 0.054845 0
-0.15827 0.113946 0
-0.0220697 0.0685854 0
-0.111678 0.111755 0
-0.0112227 0.0786415 0
-0.0627906 0.104821 0
-0.000381437 0.0854393 0
-0.0129002 0.0937204 0
0.0101314 0.0898359 0
0.0367342 0.0795927 0
0.0200755 0.0928079 0
0.0849186 0.0638723 0
0.0292935 0.0951221 0
0.130547 0.0479474 0
0.0376926 0.0970863 0
0.172615 0.0328424 0
0.0452122 0.0984495 0
0.210236 0.0190157 0
0.0517888 0.0984762 0
0.242635 0.00632786 0
0.0573295 0.0961617 0
0.269147 -0.00581942 0
0.0616999 0.0905054 0
0.289185 -0.018224 0
0.0647303 0.0807237 0
0.302188 -0.031599 0
0.0662329 0.0662329 0
0.307457 -0.0463824 0
-0.441586 -0.0420839 0
-0.615694 0.0407393 0
-0.428656 -0.0312415 0
-0.59811 0.0486734 0
-0.40524 -0.0179971 0
-0.565285 0.0566834 0
-0.371352 -0.00315043 0
-0.517841 0.0646286 0
-0.327705 0.0120579 0
-0.457024 0.071716 0
-0.275529 0.0262549 0
-0.38462 0.0768714 0
-0.21644 0.0382603 0
-0.302822 0.0790627 0
-0.152315 0.0473591 0
-0.214088 0.0776027 0
-0.0851529 0.0534459 0
-0.121004 0.0723634 0
-0.0169306 0.0569989 0
-0.0261474 0.063842 0
0.0505119 0.0588893 0
0.0680149 0.0530544 0
0.115552 0.0600859 0
0.159209 0.0412846 0
0.176813 0.0613416 0
0.245396 0.0297628 0
0.233154 0.0629585 0
0.324793 0.0193661 0
0.283612 0.0646976 0
0.395853 0.0104306 0
0.327341 0.0658598 0
0.457243 0.00272651 0
0.363543 0.0655085 0
0.507801 -0.00439845 0
0.391419 0.062769 0
0.546496 -0.0117558 0
0.410117 0.0571341 0
0.572388 -0.0200101 0
0.418619 0.0487864 0
0.584606 -0.0294025 0
-0.67277 -0.0145979 0
-0.710293 0.0032946 0
-0.65454 -0.0120318 0
-0.691768 0.00535791 0
-0.619481 -0.00801899 0
-0.654867 0.00797722 0
-0.568127 -0.00289265 0
-0.600507 0.0113188 0
-0.501742 0.00256442 0
-0.530253 0.0149544 0
-0.422268 0.00739088 0
-0.446285 0.0180977 0
-0.332203 0.0107486 0
-0.351268 0.0199021 0
-0.234422 0.0121785 0
-0.248193 0.0197534 0
-0.131974 0.0117382 0
-0.140187 0.0174836 0
-0.0278755 0.00998247 0
-0.0303448 0.0134475 0
0.0750651 0.00779239 0
0.078423 0.0084385 0
0.174363 0.00610693 0
0.183491 0.00346938 0
0.267908 0.00564015 0
0.282572 -0.000513259 0
0.353946 0.00667126 0
0.373718 -0.00289482 0
0.431009 0.00897214 0
0.455285 -0.00355595 0
0.497819 0.0118942 0
0.525876 -0.00288372 0
0.553201 0.0145886 0
0.584273 -0.0016275 0
0.596013 0.0162974 0
0.629389 -0.000642848 0
0.625126 0.0166388 0
0.660251 -0.000597409 0
0.639442 0.0158246 0
0.676026 -0.00171583 0
-0.690543 0.0165498 0
-0.580565 -0.0351916 0
-0.673408 0.00966528 0
-0.5671 -0.04058 0
-0.638244 0.00340845 0
-0.537837 -0.0444496 0
-0.585796 -0.00215404 0
-0.493587 -0.0464598 0
-0.517496 -0.00734919 0
-0.435746 -0.0467629 0
-0.43546 -0.0126981 0
-0.366263 -0.0458829 0
-0.342388 -0.0186646 0
-0.287532 -0.0444816 0
-0.241374 -0.0254321 0
-0.202234 -0.0431026 0
-0.13568 -0.0327802 0
-0.113152 -0.0419716 0
-0.0285072 -0.0400975 0
-0.0229837 -0.0409139 0
0.077207 -0.0465279 0
0.0658057 -0.0394129 0
0.178916 -0.0512027 0
0.151085 -0.0367896 0
0.274512 -0.0534833 0
0.231097 -0.0324419 0
0.362301 -0.0531379 0
0.304433 -0.0260675 0
0.440903 -0.0503938 0
0.369975 -0.0177957 0
0.50914 -0.0458481 0
0.426805 -0.00818411 0
0.565925 -0.0402619 0
0.474119 0.00192035 0
0.610191 -0.0343022 0
0.511168 0.0116165 0
0.640891 -0.0283096 0
0.537243 0.0202076 0
0.65707 -0.0221755 0
0.551714 0.027404 0
-0.490252 0.0418762 0
-0.26818 -0.0625369 0
-0.479841 0.027474 0
-0.264002 -0.0742178 0
-0.455822 0.0131271 0
-0.251473 -0.0835219 0
-0.418754 -0.000795844 0
-0.230976 -0.0899736 0
-0.369748 -0.0142564 0
-0.203293 -0.0935235 0
-0.31048 -0.0274102 0
-0.169586 -0.0944875 0
-0.243113 -0.0404113 0
-0.131323 -0.0933735 0
-0.170132 -0.0532294 0
-0.0901506 -0.0906682 0
-0.0941317 -0.0655434 0
-0.0477363 -0.0866601 0
-0.0176002 -0.0767488 0
-0.00561403 -0.0813559 0
0.0572671 -0.0860764 0
0.0349401 -0.0745144 0
0.128683 -0.092782 0
0.0729804 -0.0657837 0
0.195298 -0.0963452 0
0.1079 -0.0548911 0
0.256146 -0.0966086 0
0.139383 -0.0418192 0
0.31053 -0.0938101 0
0.167308 -0.0269051 0
0.357886 -0.0884949 0
0.191638 -0.0108257 0
0.397657 -0.0813326 0
0.212323 0.00553094 0
0.429224 -0.0728994 0
0.229226 0.0212697 0
0.451905 -0.0634974 0
0.242112 0.035703 0
0.465029 -0.0530847 0
0.250675 0.048504 0
-0.135882 0.0535974 0
0.127711 -0.0701171 0
-0.135514 0.0360811 0
0.121376 -0.0847283 0
-0.130164 0.0183635 0
0.113448 -0.0965976 0
-0.119914 0.000969784 0
0.104131 -0.105179 0
-0.105166 -0.01585 0
0.0935029 -0.110306 0
-0.0866696 -0.0320324 0
0.0815034 -0.112155 0
-0.0654783 -0.0475541 0
0.0679608 -0.111122 0
-0.0428318 -0.0622882 0
0.0526679 -0.107648 0
-0.0199926 -0.0759158 0
0.0354837 -0.102072 0
0.00192853 -0.0879274 0
0.0164377 -0.0945437 0
0.0221144 -0.0977126 0
-0.00419282 -0.0850436 0
0.0401203 -0.104708 0
-0.0258523 -0.0734771 0
0.05587 -0.108548 0
-0.047734 -0.0598177 0
0.0695756 -0.10917 0
-0.0688596 -0.0442386 0
0.0816031 -0.106828 0
-0.0881953 -0.0271834 0
0.0923204 -0.102009 0
-0.104776 -0.00934347 0
0.101969 -0.0952767 0
-0.117813 0.00845432 0
0.110591 -0.0870946 0
-0.126761 0.0254159 0
0.118029 -0.0776889 0
-0.131329 0.0409501 0
0.12399 -0.0670048 0
-0.131456 0.0547792 0
0.260206 0.0481378 0
0.481891 -0.0555849 0
0.250447 0.0329248 0
0.467129 -0.0687452 0
0.235577 0.0175736 0
0.441453 -0.0794591 0
0.216091 0.00259279 0
0.405617 -0.08721 0
0.192457 -0.0117368 0
0.360541 -0.0918074 0
0.165057 -0.0253049 0
0.307253 -0.0933648 0
0.134186 -0.0380656 0
0.246859 -0.0922049 0
0.100104 -0.0499275 0
0.180553 -0.0887267 0
0.0631371 -0.0606816 0
0.109664 -0.0832815 0
0.023787 -0.0699964 0
0.0356977 -0.0761002 0
-0.017183 -0.0774804 0
-0.0396399 -0.0672913 0
-0.0587177 -0.0827885 0
-0.114452 -0.0569064 0
-0.0995094 -0.0857316 0
-0.18671 -0.0450407 0
-0.138102 -0.0863465 0
-0.254357 -0.0319272 0
-0.173035 -0.0848963 0
-0.315425 -0.0179839 0
-0.203003 -0.0817958 0
-0.36817 -0.00378968 0
-0.22697 -0.0774845 0
-0.411162 0.0100072 0
-0.244244 -0.0722887 0
-0.443343 0.02282 0
-0.254467 -0.0663194 0
-0.464025 0.0342491 0
-0.257554 -0.0594421 0
-0.472846 0.0441588 0
0.572839 0.0272818 0
0.682682 -0.0235985 0
0.556054 0.0190328 0
0.664192 -0.0313844 0
0.525753 0.0109552 0
0.628955 -0.0376048 0
0.482915 0.00337874 0
0.578082 -0.0418875 0
0.428769 -0.00354459 0
0.513081 -0.0441134 0
0.364698 -0.00980495 0
0.435738 -0.0443935 0
0.292182 -0.0154619 0
0.348039 -0.0430039 0
0.212791 -0.0205623 0
0.252132 -0.0402898 0
0.128213 -0.0250828 0
0.150314 -0.0365699 0
0.0403077 -0.0289187 0
0.0450268 -0.0320755 0
-0.0488724 -0.0319223 0
-0.0611637 -0.0269402 0
-0.137091 -0.0339732 0
-0.165606 -0.0212406 0
-0.221996 -0.0350507 0
-0.265641 -0.0150647 0
-0.301234 -0.0352761 0
-0.358706 -0.00857621 0
-0.372594 -0.0349042 0
-0.442446 -0.00204598 0
-0.434148 -0.0342607 0
-0.514831 0.00416879 0
-0.484356 -0.0336459 0
-0.574222 0.00969221 0
-0.522113 -0.0332362 0
-0.619413 0.0142226 0
-0.546729 -0.0330166 0
-0.649599 0.0176162 0
-0.55785 -0.0327562 0
-0.664298 0.0199312 0
0.703605 -0.00238016 0
0.667211 0.0156688 0
0.685054 -0.00125429 0
0.650819 0.0154179 0
0.648846 0.000455583 0
0.617029 0.0155652 0
0.596206 0.00279093 0
0.567075 0.016205 0
0.528802 0.00568468 0
0.502651 0.0173153 0
0.448596 0.00896752 0
0.425766 0.0187568 0
0.35775 0.0124125 0
0.338643 0.0202961 0
0.25857 0.0157938 0
0.243662 0.0216639 0
0.153487 0.0189322 0
0.143309 0.0226225 0
0.0450511 0.0217108 0
0.0401435 0.0230118 0
-0.0640817 0.024056 0
-0.0632396 0.0227616 0
-0.171189 0.0258973 0
-0.164264 0.0218675 0
-0.27356 0.027124 0
-0.260441 0.0203461 0
-0.368602 0.0275645 0
-0.34946 0.0181918 0
-0.453966 0.0269981 0
-0.429277 0.0153551 0
-0.527654 0.0252037 0
-0.498189 0.0117562 0
-0.588099 0.0220252 0
-0.554882 0.00732893 0
-0.634184 0.0174303 0
-0.598437 0.00207784 0
-0.665196 0.0115309 0
-0.628292 -0.00387854 0
-0.680726 0.00457662 0
-0.644132 -0.0103037 0
0.611875 -0.0315495 0
0.441132 0.0497632 0
0.597324 -0.0215898 0
0.43207 0.0567046 0
0.566401 -0.0107453 0
0.41001 0.0630892 0
0.52033 0.00073928 0
0.376323 0.0684633 0
0.460786 0.0125935 0
0.332466 0.0726704 0
0.389739 0.0244827 0
0.280074 0.075566 0
0.309344 0.0360327 0
0.220916 0.0769799 0
0.221877 0.0468725 0
0.156833 0.0767457 0
0.129682 0.0566692 0
0.0896868 0.0747429 0
0.035144 0.0651457 0
0.0213213 0.0709285 0
-0.0593433 0.0720759 0
-0.0464738 0.0653461 0
-0.151423 0.0772664 0
-0.112003 0.0581125 0
-0.238841 0.0805361 0
-0.173712 0.0493887 0
-0.319528 0.0817087 0
-0.230243 0.0393514 0
-0.391684 0.080625 0
-0.280484 0.0281767 0
-0.453854 0.0771761 0
-0.323599 0.0160454 0
-0.50496 0.0713445 0
-0.359042 0.00316582 0
-0.544297 0.0632305 0
-0.386539 -0.0101967 0
-0.571483 0.0530108 0
-0.406074 -0.0237065 0
-0.586338 0.0406565 0
-0.418006 -0.0370096 0
0.331809 -0.0386643 0
0.110711 0.0614365 0
0.325693 -0.017576 0
0.109146 0.0810385 0
0.309081 0.00373514 0
0.103234 0.0975871 0
0.283224 0.0250475 0
0.0933526 0.111568 0
0.24941 0.0459396 0
0.0801999 0.122945 0
0.209062 0.0658995 0
0.0646132 0.13153 0
0.163685 0.0843876 0
0.0474751 0.137097 0
0.114811 0.100889 0
0.029646 0.139441 0
0.0639487 0.114955 0
0.0119145 0.138431 0
0.0125547 0.126219 0
-0.00503618 0.134037 0
-0.037994 0.134404 0
-0.0206529 0.126344 0
-0.0864277 0.139301 0
-0.0345305 0.115539 0
-0.131621 0.140762 0
-0.0464262 0.101886 0
-0.172636 0.13869 0
-0.0562696 0.0856995 0
-0.208761 0.133053 0
-0.0641622 0.0673267 0
-0.239537 0.123912 0
-0.0703602 0.0471505 0
-0.264748 0.111465 0
-0.0752366 0.0256059 0
-0.284402 0.0960977 0
-0.0792192 0.00321048 0
-0.298698 0.0784737 0
-0.0826978 -0.0193974 0
-0.308127 0.0598694 0
-0.0858508 -0.0413801 0
-0.0125925 -0.0398719 0
-0.236702 0.0611854 0
-0.0110669 -0.017059 0
-0.230056 0.0819276 0
-0.0109305 0.00589194 0
-0.21922 0.100201 0
-0.0119769 0.0285526 0
-0.204298 0.115718 0
-0.0137293 0.0504378 0
-0.18529 0.128249 0
-0.0156244 0.0710303 0
-0.162202 0.137561 0
-0.0171064 0.0898183 0
-0.135116 0.143447 0
-0.0176905 0.106332 0
-0.104251 0.145754 0
-0.0170051 0.120172 0
-0.0699886 0.144416 0
-0.0148166 0.131023 0
-0.0329033 0.139472 0
-0.0110416 0.138657 0
0.00624113 0.13107 0
-0.00575349 0.142923 0
0.0464975 0.119456 0
0.000815656 0.143738 0
0.0867552 0.104954 0
0.00827693 0.141081 0
0.125771 0.087943 0
0.0160965 0.134997 0
0.162216 0.0688413 0
0.0236235 0.12562 0
0.194733 0.0481019 0
0.0301392 0.11319 0
0.222014 0.0262182 0
0.0349309 0.0980773 0
0.242895 0.00373727 0
0.0373952 0.0807926 0
0.256464 -0.0187276 0
0.0372244 0.0619174 0
0.262186 -0.0404971 0
-0.354425 -0.0358596 0
-0.553594 0.0533857 0
-0.344906 -0.0143713 0
-0.539509 0.0729956 0
-0.328335 0.00715844 0
-0.513511 0.0904782 0
-0.304972 0.0282138 0
-0.476068 0.105377 0
-0.275041 0.0482946 0
-0.427779 0.117355 0
-0.238824 0.066919 0
-0.369412 0.126153 0
-0.196731 0.0836436 0
-0.301949 0.131579 0
-0.149355 0.0980863 0
-0.226613 0.133527 0
-0.0974889 0.109944 0
-0.144885 0.131988 0
-0.0421432 0.118997 0
-0.0585031 0.127061 0
0.0154663 0.125112 0
0.0305554 0.118948 0
0.0739372 0.128225 0
0.120112 0.107936 0
0.131712 0.128335 0
0.207835 0.0943844 0
0.18712 0.125493 0
0.291308 0.0786958 0
0.238432 0.119799 0
0.368107 0.0613009 0
0.283932 0.111412 0
0.435897 0.042648 0
0.321998 0.100553 0
0.492535 0.0232008 0
0.35121 0.0875145 0
0.536179 0.00343993 0
0.370462 0.0726434 0
0.565401 -0.0161388 0
0.379097 0.0562806 0
0.579279 -0.0350434 0
-0.651219 -0.0273092 0
-0.800794 0.0390129 0
-0.634816 -0.00983846 0
-0.781084 0.0551858 0
-0.604084 0.00752156 0
-0.743375 0.0696609 0
-0.559625 0.0242856 0
-0.688425 0.0819919 0
-0.502232 0.0400111 0
-0.617297 0.0918376 0
-0.432915 0.0543042 0
-0.531367 0.0989496 0
-0.352945 0.0668345 0
-0.432337 0.103171 0
-0.26387 0.0773479 0
-0.322239 0.104445 0
-0.167525 0.085675 0
-0.203431 0.102815 0
-0.0660191 0.0917295 0
-0.0785789 0.0984278 0
0.0382935 0.0954996 0
0.0493868 0.0915225 0
0.142858 0.0970318 0
0.177327 0.0824097 0
0.244979 0.0964142 0
0.301969 0.0714493 0
0.341896 0.0937619 0
0.419998 0.0590255 0
0.43087 0.0892083 0
0.528162 0.0455264 0
0.509285 0.0829023 0
0.623386 0.0313299 0
0.574755 0.0750098 0
0.702895 0.0167974 0
0.625241 0.0657134 0
0.764334 0.00227207 0
0.659165 0.0552022 0
0.805872 -0.011924 0
0.675505 0.0436487 0
0.826289 -0.0255 0
-0.866315 -0.0153161 0
-0.947858 0.0198592 0
-0.845113 -0.00397484 0
-0.925052 0.030692 0
-0.804235 0.00707757 0
-0.880508 0.0403991 0
-0.744539 0.0174653 0
-0.815173 0.048621 0
-0.667228 0.0268634 0
-0.730408 0.0550756 0
-0.57386 0.0350116 0
-0.627979 0.059566 0
-0.46635 0.0417283 0
-0.510046 0.0619878 0
-0.346968 0.0469179 0
-0.379154 0.0623353 0
-0.218327 0.0505711 0
-0.238212 0.0607017 0
-0.0833508 0.0527561 0
-0.0904553 0.0572714 0
0.0547706 0.0536008 0
0.0606085 0.0523031 0
0.192648 0.0532704 0
0.21127 0.0461066 0
0.326774 0.0519431 0
0.357707 0.0390146 0
0.453619 0.0497892 0
0.496093 0.031355 0
0.569737 0.0469556 0
0.622712 0.0234281 0
0.67189 0.0435583 0
0.734082 0.0154907 0
0.757161 0.0396809 0
0.827088 0.00774871 0
0.823081 0.0353773 0
0.899097 0.000357807 0
0.867737 0.0306744 0
0.948066 -0.00657247 0
0.889847 0.0255726 0
0.972614 -0.0129738 0
-0.973268 -0.00135585 0
-0.976791 -0.00169189 0
-0.949966 0.0025621 0
-0.953784 0.00258047 0
-0.904187 0.00602365 0
-0.90808 0.00640697 0
-0.836929 0.00880525 0
-0.840697 0.00955552 0
-0.749633 0.0107339 0
-0.753106 0.0118379 0
-0.644162 0.011709 0
-0.647205 0.0131309 0
-0.522793 0.0117162 0
-0.525305 0.0133925 0
-0.388194 0.0108325 0
-0.390108 0.0126703 0
-0.243398 0.00921922 0
-0.244676 0.0110995 0
-0.0917591 0.00710528 0
-0.0923891 0.00889085 0
0.0631056 0.0047617 0
0.0631132 0.00630896 0
0.217393 0.00247092 0
0.218011 0.00364348 0
0.367207 0.000495264 0
0.368396 0.00117729 0
0.50866 -0.000950965 0
0.510377 -0.000844275 0
0.637995 -0.00172217 0
0.640195 -0.00223864 0
0.751703 -0.00175253 0
0.754353 -0.00290229 0
0.846651 -0.00105658 0
0.849732 -0.00281641 0
0.920197 0.000279797 0
0.923711 -0.00204155 0
0.970289 0.0021159 0
0.974258 -0.000702707 0
0.995537 0.00427588 0
0.999999 0.00103223 0
-0.959073 0.0128588 0
-0.884265 -0.0229614 0
-0.936612 0.0090285 0
-0.863932 -0.025631 0
-0.891731 0.00462017 0
-0.822816 -0.0280216 0
-0.82545 -0.000429431 0
-0.761893 -0.0302223 0
-0.739247 -0.0061374 0
-0.682546 -0.0323203 0
-0.635032 -0.0124448 0
-0.586545 -0.0343631 0
-0.51512 -0.0192009 0
-0.476027 -0.0363325 0
-0.382213 -0.0261623 0
-0.353481 -0.0381333 0
-0.239356 -0.0330046 0
-0.221713 -0.0395967 0
-0.0898957 -0.0393473 0
-0.0838087 -0.0404956 0
0.0625824 -0.0447867 0
0.0569257 -0.0405712 0
0.214333 -0.0489345 0
0.197033 -0.0395655 0
0.361542 -0.0514561 0
0.332987 -0.0372577 0
0.500424 -0.0521048 0
0.461291 -0.033497 0
0.62734 -0.0507475 0
0.578581 -0.0282301 0
0.73891 -0.0473782 0
0.681734 -0.021517 0
0.832128 -0.0421165 0
0.767977 -0.013535 0
0.904468 -0.0351922 0
0.834991 -0.00456702 0
0.953976 -0.0269123 0
0.880994 0.00502411 0
0.979324 -0.0176184 0
0.904797 0.0148353 0
-0.825762 0.0255652 0
-0.682038 -0.0413081 0
-0.806933 0.0146618 0
-0.666843 -0.0504354 0
-0.768565 0.0031405 0
-0.635401 -0.0585697 0
-0.711589 -0.00893294 0
-0.588549 -0.0656741 0
-0.637328 -0.0214478 0
-0.527403 -0.0717597 0
-0.547476 -0.0342111 0
-0.453357 -0.076818 0
-0.444074 -0.0469318 0
-0.368081 -0.0807853 0
-0.329486 -0.0592246 0
-0.27351 -0.083531 0
-0.206372 -0.0706274 0
-0.171825 -0.0848627 0
-0.0776353 -0.0806322 0
-0.0654116 -0.0845458 0
0.0536241 -0.0887253 0
0.0431731 -0.0823333 0
0.184182 -0.094432 0
0.151262 -0.0780027 0
0.310767 -0.0973616 0
0.25614 -0.0713949 0
0.430147 -0.0972468 0
0.355117 -0.0624501 0
0.539223 -0.0939734 0
0.445611 -0.0512362 0
0.635128 -0.0875964 0
0.525229 -0.0379647 0
0.715322 -0.078339 0
0.591853 -0.0229936 0
0.777684 -0.066572 0
0.643724 -0.00681176 0
0.820583 -0.0527662 0
0.679517 0.00999436 0
0.842931 -0.0374109 0
0.698405 0.0267982 0
-0.590153 0.0351348 0
-0.395528 -0.0544568 0
-0.577221 0.0187489 0
-0.387137 -0.0688068 0
-0.550081 0.00182099 0
-0.369133 -0.0814592 0
-0.509487 -0.0155332 0
-0.342126 -0.0923455 0
-0.45644 -0.033131 0
-0.306797 -0.101468 0
-0.392187 -0.0506904 0
-0.26396 -0.108799 0
-0.318215 -0.0678224 0
-0.214584 -0.114255 0
-0.236238 -0.08404 0
-0.159789 -0.117682 0
-0.148176 -0.0987824 0
-0.100836 -0.118877 0
-0.0561185 -0.111451 0
-0.0391065 -0.117604 0
0.0377133 -0.121454 0
0.0239181 -0.113627 0
0.131015 -0.128256 0
0.0866899 -0.106755 0
0.221454 -0.131431 0
0.147632 -0.0968788 0
0.306735 -0.130699 0
0.205181 -0.0840112 0
0.384662 -0.125967 0
0.257835 -0.0683141 0
0.453209 -0.117341 0
0.3042 -0.0501175 0
0.510591 -0.105136 0
0.343047 -0.0299208 0
0.555325 -0.0898539 0
0.37336 -0.00837901 0
0.586303 -0.0721396 0
0.394404 0.0137289 0
0.60284 -0.0526588 0
0.405832 0.0355589 0
-0.281805 0.0401935 0
-0.0607818 -0.0607818 0
-0.276144 0.0206865 0
-0.0595853 -0.078658 0
-0.263434 0.000826578 0
-0.057004 -0.093946 0
-0.244178 -0.0193398 0
-0.053095 -0.106922 0
-0.218902 -0.0396199 0
-0.0479372 -0.117682 0
-0.188228 -0.059694 0
-0.0416316 -0.126217 0
-0.152884 -0.079125 0
-0.0343036 -0.132439 0
-0.113707 -0.0973748 0
-0.0261027 -0.136191 0
-0.0716225 -0.113832 0
-0.0172033 -0.137263 0
-0.0276382 -0.127853 0
-0.00780336 -0.135421 0
0.0171811 -0.138806 0
0.00187799 -0.130439 0
0.0617361 -0.146127 0
0.0116042 -0.122144 0
0.104919 -0.149371 0
0.0211272 -0.110456 0
0.145642 -0.148257 0
0.030194 -0.0954283 0
0.18287 -0.142704 0
0.0385557 -0.0772767 0
0.21565 -0.132853 0
0.0459762 -0.0563971 0
0.243148 -0.119076 0
0.0522421 -0.0333694 0
0.264679 -0.101975 0
0.0571711 -0.00894792 0
0.279765 -0.0823917 0
0.0606209 0.0159559 0
0.288224 -0.0614763 0
0.0624957 0.0402796 0
