# vtk DataFile Version 3.0
tp3485 cell-vector
ASCII
DATASET UNSTRUCTURED_GRID
POINTS 441 double
0 0 0
0.05 0 0
0.1 0 0
0.15 0 0
0.2 0 0
0.25 0 0
0.3 0 0
0.35 0 0
0.4 0 0
0.45 0 0
0.5 0 0
0.55 0 0
0.6 0 0
0.65 0 0
0.7 0 0
0.75 0 0
0.8 0 0
0.85 0 0
0.9 0 0
0.95 0 0
1 0 0
0 0.05 0
0.05 0.05 0
0.1 0.05 0
0.15 0.05 0
0.2 0.05 0
0.25 0.05 0
0.3 0.05 0
0.35 0.05 0
0.4 0.05 0
0.45 0.05 0
0.5 0.05 0
0.55 0.05 0
0.6 0.05 0
0.65 0.05 0
0.7 0.05 0
0.75 0.05 0
0.8 0.05 0
0.85 0.05 0
0.9 0.05 0
0.95 0.05 0
1 0.05 0
0 0.1 0
0.05 0.1 0
0.1 0.1 0
0.15 0.1 0
0.2 0.1 0
0.25 0.1 0
0.3 0.1 0
0.35 0.1 0
0.4 0.1 0
0.45 0.1 0
0.5 0.1 0
0.55 0.1 0
0.6 0.1 0
0.65 0.1 0
0.7 0.1 0
0.75 0.1 0
0.8 0.1 0
0.85 0.1 0
0.9 0.1 0
0.95 0.1 0
1 0.1 0
0 0.15 0
0.05 0.15 0
0.1 0.15 0
0.15 0.15 0
0.2 0.15 0
0.25 0.15 0
0.3 0.15 0
0.35 0.15 0
0.4 0.15 0
0.45 0.15 0
0.5 0.15 0
0.55 0.15 0
0.6 0.15 0
0.65 0.15 0
0.7 0.15 0
0.75 0.15 0
0.8 0.15 0
0.85 0.15 0
0.9 0.15 0
0.95 0.15 0
1 0.15 0
0 0.2 0
0.05 0.2 0
0.1 0.2 0
0.15 0.2 0
0.2 0.2 0
0.25 0.2 0
0.3 0.2 0
0.35 0.2 0
0.4 0.2 0
0.45 0.2 0
0.5 0.2 0
0.55 0.2 0
0.6 0.2 0
0.65 0.2 0
0.7 0.2 0
0.75 0.2 0
0.8 0.2 0
0.85 0.2 0
0.9 0.2 0
0.95 0.2 0
1 0.2 0
0 0.25 0
0.05 0.25 0
0.1 0.25 0
0.15 0.25 0
0.2 0.25 0
0.25 0.25 0
0.3 0.25 0
0.35 0.25 0
0.4 0.25 0
0.45 0.25 0
0.5 0.25 0
0.55 0.25 0
0.6 0.25 0
0.65 0.25 0
0.7 0.25 0
0.75 0.25 0
0.8 0.25 0
0.85 0.25 0
0.9 0.25 0
0.95 0.25 0
1 0.25 0
0 0.3 0
0.05 0.3 0
0.1 0.3 0
0.15 0.3 0
0.2 0.3 0
0.25 0.3 0
0.3 0.3 0
0.35 0.3 0
0.4 0.3 0
0.45 0.3 0
0.5 0.3 0
0.55 0.3 0
0.6 0.3 0
0.65 0.3 0
0.7 0.3 0
0.75 0.3 0
0.8 0.3 0
0.85 0.3 0
0.9 0.3 0
0.95 0.3 0
1 0.3 0
0 0.35 0
0.05 0.35 0
0.1 0.35 0
0.15 0.35 0
0.2 0.35 0
0.25 0.35 0
0.3 0.35 0
0.35 0.35 0
0.4 0.35 0
0.45 0.35 0
0.5 0.35 0
0.55 0.35 0
0.6 0.35 0
0.65 0.35 0
0.7 0.35 0
0.75 0.35 0
0.8 0.35 0
0.85 0.35 0
0.9 0.35 0
0.95 0.35 0
1 0.35 0
0 0.4 0
0.05 0.4 0
0.1 0.4 0
0.15 0.4 0
0.2 0.4 0
0.25 0.4 0
0.3 0.4 0
0.35 0.4 0
0.4 0.4 0
0.45 0.4 0
0.5 0.4 0
0.55 0.4 0
0.6 0.4 0
0.65 0.4 0
0.7 0.4 0
0.75 0.4 0
0.8 0.4 0
0.85 0.4 0
0.9 0.4 0
0.95 0.4 0
1 0.4 0
0 0.45 0
0.05 0.45 0
0.1 0.45 0
0.15 0.45 0
0.2 0.45 0
0.25 0.45 0
0.3 0.45 0
0.35 0.45 0
0.4 0.45 0
0.45 0.45 0
0.5 0.45 0
0.55 0.45 0
0.6 0.45 0
0.65 0.45 0
0.7 0.45 0
0.75 0.45 0
0.8 0.45 0
0.85 0.45 0
0.9 0.45 0
0.95 0.45 0
1 0.45 0
0 0.5 0
0.05 0.5 0
0.1 0.5 0
0.15 0.5 0
0.2 0.5 0
0.25 0.5 0
0.3 0.5 0
0.35 0.5 0
0.4 0.5 0
0.45 0.5 0
0.5 0.5 0
0.55 0.5 0
0.6 0.5 0
0.65 0.5 0
0.7 0.5 0
0.75 0.5 0
0.8 0.5 0
0.85 0.5 0
0.9 0.5 0
0.95 0.5 0
1 0.5 0
0 0.55 0
0.05 0.55 0
0.1 0.55 0
0.15 0.55 0
0.2 0.55 0
0.25 0.55 0
0.3 0.55 0
0.35 0.55 0
0.4 0.55 0
0.45 0.55 0
0.5 0.55 0
0.55 0.55 0
0.6 0.55 0
0.65 0.55 0
0.7 0.55 0
0.75 0.55 0
0.8 0.55 0
0.85 0.55 0
0.9 0.55 0
0.95 0.55 0
1 0.55 0
0 0.6 0
0.05 0.6 0
0.1 0.6 0
0.15 0.6 0
0.2 0.6 0
0.25 0.6 0
0.3 0.6 0
0.35 0.6 0
0.4 0.6 0
0.45 0.6 0
0.5 0.6 0
0.55 0.6 0
0.6 0.6 0
0.65 0.6 0
0.7 0.6 0
0.75 0.6 0
0.8 0.6 0
0.85 0.6 0
0.9 0.6 0
0.95 0.6 0
1 0.6 0
0 0.65 0
0.05 0.65 0
0.1 0.65 0
0.15 0.65 0
0.2 0.65 0
0.25 0.65 0
0.3 0.65 0
0.35 0.65 0
0.4 0.65 0
0.45 0.65 0
0.5 0.65 0
0.55 0.65 0
0.6 0.65 0
0.65 0.65 0
0.7 0.65 0
0.75 0.65 0
0.8 0.65 0
0.85 0.65 0
0.9 0.65 0
0.95 0.65 0
1 0.65 0
0 0.7 0
0.05 0.7 0
0.1 0.7 0
0.15 0.7 0
0.2 0.7 0
0.25 0.7 0
0.3 0.7 0
0.35 0.7 0
0.4 0.7 0
0.45 0.7 0
0.5 0.7 0
0.55 0.7 0
0.6 0.7 0
0.65 0.7 0
0.7 0.7 0
0.75 0.7 0
0.8 0.7 0
0.85 0.7 0
0.9 0.7 0
0.95 0.7 0
1 0.7 0
0 0.75 0
0.05 0.75 0
0.1 0.75 0
0.15 0.75 0
0.2 0.75 0
0.25 0.75 0
0.3 0.75 0
0.35 0.75 0
0.4 0.75 0
0.45 0.75 0
0.5 0.75 0
0.55 0.75 0
0.6 0.75 0
0.65 0.75 0
0.7 0.75 0
0.75 0.75 0
0.8 0.75 0
0.85 0.75 0
0.9 0.75 0
0.95 0.75 0
1 0.75 0
0 0.8 0
0.05 0.8 0
0.1 0.8 0
0.15 0.8 0
0.2 0.8 0
0.25 0.8 0
0.3 0.8 0
0.35 0.8 0
0.4 0.8 0
0.45 0.8 0
0.5 0.8 0
0.55 0.8 0
0.6 0.8 0
0.65 0.8 0
0.7 0.8 0
0.75 0.8 0
0.8 0.8 0
0.85 0.8 0
0.9 0.8 0
0.95 0.8 0
1 0.8 0
0 0.85 0
0.05 0.85 0
0.1 0.85 0
0.15 0.85 0
0.2 0.85 0
0.25 0.85 0
0.3 0.85 0
0.35 0.85 0
0.4 0.85 0
0.45 0.85 0
0.5 0.85 0
0.55 0.85 0
0.6 0.85 0
0.65 0.85 0
0.7 0.85 0
0.75 0.85 0
0.8 0.85 0
0.85 0.85 0
0.9 0.85 0
0.95 0.85 0
1 0.85 0
0 0.9 0
0.05 0.9 0
0.1 0.9 0
0.15 0.9 0
0.2 0.9 0
0.25 0.9 0
0.3 0.9 0
0.35 0.9 0
0.4 0.9 0
0.45 0.9 0
0.5 0.9 0
0.55 0.9 0
0.6 0.9 0
0.65 0.9 0
0.7 0.9 0
0.75 0.9 0
0.8 0.9 0
0.85 0.9 0
0.9 0.9 0
0.95 0.9 0
1 0.9 0
0 0.95 0
0.05 0.95 0
0.1 0.95 0
0.15 0.95 0
0.2 0.95 0
0.25 0.95 0
0.3 0.95 0
0.35 0.95 0
0.4 0.95 0
0.45 0.95 0
0.5 0.95 0
0.55 0.95 0
0.6 0.95 0
0.65 0.95 0
0.7 0.95 0
0.75 0.95 0
0.8 0.95 0
0.85 0.95 0
0.9 0.95 0
0.95 0.95 0
1 0.95 0
0 1 0
0.05 1 0
0.1 1 0
0.15 1 0
0.2 1 0
0.25 1 0
0.3 1 0
0.35 1 0
0.4 1 0
0.45 1 0
0.5 1 0
0.55 1 0
0.6 1 0
0.65 1 0
0.7 1 0
0.75 1 0
0.8 1 0
0.85 1 0
0.9 1 0
0.95 1 0
1 1 0
CELLS 800 3200
3 0 1 22
3 0 22 21
3 1 2 23
3 1 23 22
3 2 3 24
3 2 24 23
3 3 4 25
3 3 25 24
3 4 5 26
3 4 26 25
3 5 6 27
3 5 27 26
3 6 7 28
3 6 28 27
3 7 8 29
3 7 29 28
3 8 9 30
3 8 30 29
3 9 10 31
3 9 31 30
3 10 11 32
3 10 32 31
3 11 12 33
3 11 33 32
3 12 13 34
3 12 34 33
3 13 14 35
3 13 35 34
3 14 15 36
3 14 36 35
3 15 16 37
3 15 37 36
3 16 17 38
3 16 38 37
3 17 18 39
3 17 39 38
3 18 19 40
3 18 40 39
3 19 20 41
3 19 41 40
3 21 22 43
3 21 43 42
3 22 23 44
3 22 44 43
3 23 24 45
3 23 45 44
3 24 25 46
3 24 46 45
3 25 26 47
3 25 47 46
3 26 27 48
3 26 48 47
3 27 28 49
3 27 49 48
3 28 29 50
3 28 50 49
3 29 30 51
3 29 51 50
3 30 31 52
3 30 52 51
3 31 32 53
3 31 53 52
3 32 33 54
3 32 54 53
3 33 34 55
3 33 55 54
3 34 35 56
3 34 56 55
3 35 36 57
3 35 57 56
3 36 37 58
3 36 58 57
3 37 38 59
3 37 59 58
3 38 39 60
3 38 60 59
3 39 40 61
3 39 61 60
3 40 41 62
3 40 62 61
3 42 43 64
3 42 64 63
3 43 44 65
3 43 65 64
3 44 45 66
3 44 66 65
3 45 46 67
3 45 67 66
3 46 47 68
3 46 68 67
3 47 48 69
3 47 69 68
3 48 49 70
3 48 70 69
3 49 50 71
3 49 71 70
3 50 51 72
3 50 72 71
3 51 52 73
3 51 73 72
3 52 53 74
3 52 74 73
3 53 54 75
3 53 75 74
3 54 55 76
3 54 76 75
3 55 56 77
3 55 77 76
3 56 57 78
3 56 78 77
3 57 58 79
3 57 79 78
3 58 59 80
3 58 80 79
3 59 60 81
3 59 81 80
3 60 61 82
3 60 82 81
3 61 62 83
3 61 83 82
3 63 64 85
3 63 85 84
3 64 65 86
3 64 86 85
3 65 66 87
3 65 87 86
3 66 67 88
3 66 88 87
3 67 68 89
3 67 89 88
3 68 69 90
3 68 90 89
3 69 70 91
3 69 91 90
3 70 71 92
3 70 92 91
3 71 72 93
3 71 93 92
3 72 73 94
3 72 94 93
3 73 74 95
3 73 95 94
3 74 75 96
3 74 96 95
3 75 76 97
3 75 97 96
3 76 77 98
3 76 98 97
3 77 78 99
3 77 99 98
3 78 79 100
3 78 100 99
3 79 80 101
3 79 101 100
3 80 81 102
3 80 102 101
3 81 82 103
3 81 103 102
3 82 83 104
3 82 104 103
3 84 85 106
3 84 106 105
3 85 86 107
3 85 107 106
3 86 87 108
3 86 108 107
3 87 88 109
3 87 109 108
3 88 89 110
3 88 110 109
3 89 90 111
3 89 111 110
3 90 91 112
3 90 112 111
3 91 92 113
3 91 113 112
3 92 93 114
3 92 114 113
3 93 94 115
3 93 115 114
3 94 95 116
3 94 116 115
3 95 96 117
3 95 117 116
3 96 97 118
3 96 118 117
3 97 98 119
3 97 119 118
3 98 99 120
3 98 120 119
3 99 100 121
3 99 121 120
3 100 101 122
3 100 122 121
3 101 102 123
3 101 123 122
3 102 103 124
3 102 124 123
3 103 104 125
3 103 125 124
3 105 106 127
3 105 127 126
3 106 107 128
3 106 128 127
3 107 108 129
3 107 129 128
3 108 109 130
3 108 130 129
3 109 110 131
3 109 131 130
3 110 111 132
3 110 132 131
3 111 112 133
3 111 133 132
3 112 113 134
3 112 134 133
3 113 114 135
3 113 135 134
3 114 115 136
3 114 136 135
3 115 116 137
3 115 137 136
3 116 117 138
3 116 138 137
3 117 118 139
3 117 139 138
3 118 119 140
3 118 140 139
3 119 120 141
3 119 141 140
3 120 121 142
3 120 142 141
3 121 122 143
3 121 143 142
3 122 123 144
3 122 144 143
3 123 124 145
3 123 145 144
3 124 125 146
3 124 146 145
3 126 127 148
3 126 148 147
3 127 128 149
3 127 149 148
3 128 129 150
3 128 150 149
3 129 130 151
3 129 151 150
3 130 131 152
3 130 152 151
3 131 132 153
3 131 153 152
3 132 133 154
3 132 154 153
3 133 134 155
3 133 155 154
3 134 135 156
3 134 156 155
3 135 136 157
3 135 157 156
3 136 137 158
3 136 158 157
3 137 138 159
3 137 159 158
3 138 139 160
3 138 160 159
3 139 140 161
3 139 161 160
3 140 141 162
3 140 162 161
3 141 142 163
3 141 163 162
3 142 143 164
3 142 164 163
3 143 144 165
3 143 165 164
3 144 145 166
3 144 166 165
3 145 146 167
3 145 167 166
3 147 148 169
3 147 169 168
3 148 149 170
3 148 170 169
3 149 150 171
3 149 171 170
3 150 151 172
3 150 172 171
3 151 152 173
3 151 173 172
3 152 153 174
3 152 174 173
3 153 154 175
3 153 175 174
3 154 155 176
3 154 176 175
3 155 156 177
3 155 177 176
3 156 157 178
3 156 178 177
3 157 158 179
3 157 179 178
3 158 159 180
3 158 180 179
3 159 160 181
3 159 181 180
3 160 161 182
3 160 182 181
3 161 162 183
3 161 183 182
3 162 163 184
3 162 184 183
3 163 164 185
3 163 185 184
3 164 165 186
3 164 186 185
3 165 166 187
3 165 187 186
3 166 167 188
3 166 188 187
3 168 169 190
3 168 190 189
3 169 170 191
3 169 191 190
3 170 171 192
3 170 192 191
3 171 172 193
3 171 193 192
3 172 173 194
3 172 194 193
3 173 174 195
3 173 195 194
3 174 175 196
3 174 196 195
3 175 176 197
3 175 197 196
3 176 177 198
3 176 198 197
3 177 178 199
3 177 199 198
3 178 179 200
3 178 200 199
3 179 180 201
3 179 201 200
3 180 181 202
3 180 202 201
3 181 182 203
3 181 203 202
3 182 183 204
3 182 204 203
3 183 184 205
3 183 205 204
3 184 185 206
3 184 206 205
3 185 186 207
3 185 207 206
3 186 187 208
3 186 208 207
3 187 188 209
3 187 209 208
3 189 190 211
3 189 211 210
3 190 191 212
3 190 212 211
3 191 192 213
3 191 213 212
3 192 193 214
3 192 214 213
3 193 194 215
3 193 215 214
3 194 195 216
3 194 216 215
3 195 196 217
3 195 217 216
3 196 197 218
3 196 218 217
3 197 198 219
3 197 219 218
3 198 199 220
3 198 220 219
3 199 200 221
3 199 221 220
3 200 201 222
3 200 222 221
3 201 202 223
3 201 223 222
3 202 203 224
3 202 224 223
3 203 204 225
3 203 225 224
3 204 205 226
3 204 226 225
3 205 206 227
3 205 227 226
3 206 207 228
3 206 228 227
3 207 208 229
3 207 229 228
3 208 209 230
3 208 230 229
3 210 211 232
3 210 232 231
3 211 212 233
3 211 233 232
3 212 213 234
3 212 234 233
3 213 214 235
3 213 235 234
3 214 215 236
3 214 236 235
3 215 216 237
3 215 237 236
3 216 217 238
3 216 238 237
3 217 218 239
3 217 239 238
3 218 219 240
3 218 240 239
3 219 220 241
3 219 241 240
3 220 221 242
3 220 242 241
3 221 222 243
3 221 243 242
3 222 223 244
3 222 244 243
3 223 224 245
3 223 245 244
3 224 225 246
3 224 246 245
3 225 226 247
3 225 247 246
3 226 227 248
3 226 248 247
3 227 228 249
3 227 249 248
3 228 229 250
3 228 250 249
3 229 230 251
3 229 251 250
3 231 232 253
3 231 253 252
3 232 233 254
3 232 254 253
3 233 234 255
3 233 255 254
3 234 235 256
3 234 256 255
3 235 236 257
3 235 257 256
3 236 237 258
3 236 258 257
3 237 238 259
3 237 259 258
3 238 239 260
3 238 260 259
3 239 240 261
3 239 261 260
3 240 241 262
3 240 262 261
3 241 242 263
3 241 263 262
3 242 243 264
3 242 264 263
3 243 244 265
3 243 265 264
3 244 245 266
3 244 266 265
3 245 246 267
3 245 267 266
3 246 247 268
3 246 268 267
3 247 248 269
3 247 269 268
3 248 249 270
3 248 270 269
3 249 250 271
3 249 271 270
3 250 251 272
3 250 272 271
3 252 253 274
3 252 274 273
3 253 254 275
3 253 275 274
3 254 255 276
3 254 276 275
3 255 256 277
3 255 277 276
3 256 257 278
3 256 278 277
3 257 258 279
3 257 279 278
3 258 259 280
3 258 280 279
3 259 260 281
3 259 281 280
3 260 261 282
3 260 282 281
3 261 262 283
3 261 283 282
3 262 263 284
3 262 284 283
3 263 264 285
3 263 285 284
3 264 265 286
3 264 286 285
3 265 266 287
3 265 287 286
3 266 267 288
3 266 288 287
3 267 268 289
3 267 289 288
3 268 269 290
3 268 290 289
3 269 270 291
3 269 291 290
3 270 271 292
3 270 292 291
3 271 272 293
3 271 293 292
3 273 274 295
3 273 295 294
3 274 275 296
3 274 296 295
3 275 276 297
3 275 297 296
3 276 277 298
3 276 298 297
3 277 278 299
3 277 299 298
3 278 279 300
3 278 300 299
3 279 280 301
3 279 301 300
3 280 281 302
3 280 302 301
3 281 282 303
3 281 303 302
3 282 283 304
3 282 304 303
3 283 284 305
3 283 305 304
3 284 285 306
3 284 306 305
3 285 286 307
3 285 307 306
3 286 287 308
3 286 308 307
3 287 288 309
3 287 309 308
3 288 289 310
3 288 310 309
3 289 290 311
3 289 311 310
3 290 291 312
3 290 312 311
3 291 292 313
3 291 313 312
3 292 293 314
3 292 314 313
3 294 295 316
3 294 316 315
3 295 296 317
3 295 317 316
3 296 297 318
3 296 318 317
3 297 298 319
3 297 319 318
3 298 299 320
3 298 320 319
3 299 300 321
3 299 321 320
3 300 301 322
3 300 322 321
3 301 302 323
3 301 323 322
3 302 303 324
3 302 324 323
3 303 304 325
3 303 325 324
3 304 305 326
3 304 326 325
3 305 306 327
3 305 327 326
3 306 307 328
3 306 328 327
3 307 308 329
3 307 329 328
3 308 309 330
3 308 330 329
3 309 310 331
3 309 331 330
3 310 311 332
3 310 332 331
3 311 312 333
3 311 333 332
3 312 313 334
3 312 334 333
3 313 314 335
3 313 335 334
3 315 316 337
3 315 337 336
3 316 317 338
3 316 338 337
3 317 318 339
3 317 339 338
3 318 319 340
3 318 340 339
3 319 320 341
3 319 341 340
3 320 321 342
3 320 342 341
3 321 322 343
3 321 343 342
3 322 323 344
3 322 344 343
3 323 324 345
3 323 345 344
3 324 325 346
3 324 346 345
3 325 326 347
3 325 347 346
3 326 327 348
3 326 348 347
3 327 328 349
3 327 349 348
3 328 329 350
3 328 350 349
3 329 330 351
3 329 351 350
3 330 331 352
3 330 352 351
3 331 332 353
3 331 353 352
3 332 333 354
3 332 354 353
3 333 334 355
3 333 355 354
3 334 335 356
3 334 356 355
3 336 337 358
3 336 358 357
3 337 338 359
3 337 359 358
3 338 339 360
3 338 360 359
3 339 340 361
3 339 361 360
3 340 341 362
3 340 362 361
3 341 342 363
3 341 363 362
3 342 343 364
3 342 364 363
3 343 344 365
3 343 365 364
3 344 345 366
3 344 366 365
3 345 346 367
3 345 367 366
3 346 347 368
3 346 368 367
3 347 348 369
3 347 369 368
3 348 349 370
3 348 370 369
3 349 350 371
3 349 371 370
3 350 351 372
3 350 372 371
3 351 352 373
3 351 373 372
3 352 353 374
3 352 374 373
3 353 354 375
3 353 375 374
3 354 355 376
3 354 376 375
3 355 356 377
3 355 377 376
3 357 358 379
3 357 379 378
3 358 359 380
3 358 380 379
3 359 360 381
3 359 381 380
3 360 361 382
3 360 382 381
3 361 362 383
3 361 383 382
3 362 363 384
3 362 384 383
3 363 364 385
3 363 385 384
3 364 365 386
3 364 386 385
3 365 366 387
3 365 387 386
3 366 367 388
3 366 388 387
3 367 368 389
3 367 389 388
3 368 369 390
3 368 390 389
3 369 370 391
3 369 391 390
3 370 371 392
3 370 392 391
3 371 372 393
3 371 393 392
3 372 373 394
3 372 394 393
3 373 374 395
3 373 395 394
3 374 375 396
3 374 396 395
3 375 376 397
3 375 397 396
3 376 377 398
3 376 398 397
3 378 379 400
3 378 400 399
3 379 380 401
3 379 401 400
3 380 381 402
3 380 402 401
3 381 382 403
3 381 403 402
3 382 383 404
3 382 404 403
3 383 384 405
3 383 405 404
3 384 385 406
3 384 406 405
3 385 386 407
3 385 407 406
3 386 387 408
3 386 408 407
3 387 388 409
3 387 409 408
3 388 389 410
3 388 410 409
3 389 390 411
3 389 411 410
3 390 391 412
3 390 412 411
3 391 392 413
3 391 413 412
3 392 393 414
3 392 414 413
3 393 394 415
3 393 415 414
3 394 395 416
3 394 416 415
3 395 396 417
3 395 417 416
3 396 397 418
3 396 418 417
3 397 398 419
3 397 419 418
3 399 400 421
3 399 421 420
3 400 401 422
3 400 422 421
3 401 402 423
3 401 423 422
3 402 403 424
3 402 424 423
3 403 404 425
3 403 425 424
3 404 405 426
3 404 426 425
3 405 406 427
3 405 427 426
3 406 407 428
3 406 428 427
3 407 408 429
3 407 429 428
3 408 409 430
3 408 430 429
3 409 410 431
3 409 431 430
3 410 411 432
3 410 432 431
3 411 412 433
3 411 433 432
3 412 413 434
3 412 434 433
3 413 414 435
3 413 435 434
3 414 415 436
3 414 436 435
3 415 416 437
3 415 437 436
3 416 417 438
3 416 438 437
3 417 418 439
3 417 439 438
3 418 419 440
3 418 440 439
CELL_TYPES 800
5
5
5
5
5
5
5
5
5
5
5
5
5
5
5
5
5
5
5
5
5
5
5
5
5
5
5
5
5
5
5
5
5
5
5
5
5
5
5
5
5
5
5
5
5
5
5
5
5
5
5
5
5
5
5
5
5
5
5
5
5
5
5
5
5
5
5
5
5
5
5
5
5
5
5
5
5
5
5
5
5
5
5
5
5
5
5
5
5
5
5
5
5
5
5
5
5
5
5
5
5
5
5
5
5
5
5
5
5
5
5
5
5
5
5
5
5
5
5
5
5
5
5
5
5
5
5
5
5
5
5
5
5
5
5
5
5
5
5
5
5
5
5
5
5
5
5
5
5
5
5
5
5
5
5
5
5
5
5
5
5
5
5
5
5
5
5
5
5
5
5
5
5
5
5
5
5
5
5
5
5
5
5
5
5
5
5
5
5
5
5
5
5
5
5
5
5
5
5
5
5
5
5
5
5
5
5
5
5
5
5
5
5
5
5
5
5
5
5
5
5
5
5
5
5
5
5
5
5
5
5
5
5
5
5
5
5
5
5
5
5
5
5
5
5
5
5
5
5
5
5
5
5
5
5
5
5
5
5
5
5
5
5
5
5
5
5
5
5
5
5
5
5
5
5
5
5
5
5
5
5
5
5
5
5
5
5
5
5
5
5
5
5
5
5
5
5
5
5
5
5
5
5
5
5
5
5
5
5
5
5
5
5
5
5
5
5
5
5
5
5
5
5
5
5
5
5
5
5
5
5
5
5
5
5
5
5
5
5
5
5
5
5
5
5
5
5
5
5
5
5
5
5
5
5
5
5
5
5
5
5
5
5
5
5
5
5
5
5
5
5
5
5
5
5
5
5
5
5
5
5
5
5
5
5
5
5
5
5
5
5
5
5
5
5
5
5
5
5
5
5
5
5
5
5
5
5
5
5
5
5
5
5
5
5
5
5
5
5
5
5
5
5
5
5
5
5
5
5
5
5
5
5
5
5
5
5
5
5
5
5
5
5
5
5
5
5
5
5
5
5
5
5
5
5
5
5
5
5
5
5
5
5
5
5
5
5
5
5
5
5
5
5
5
5
5
5
5
5
5
5
5
5
5
5
5
5
5
5
5
5
5
5
5
5
5
5
5
5
5
5
5
5
5
5
5
5
5
5
5
5
5
5
5
5
5
5
5
5
5
5
5
5
5
5
5
5
5
5
5
5
5
5
5
5
5
5
5
5
5
5
5
5
5
5
5
5
5
5
5
5
5
5
5
5
5
5
5
5
5
5
5
5
5
5
5
5
5
5
5
5
5
5
5
5
5
5
5
5
5
5
5
5
5
5
5
5
5
5
5
5
5
5
5
5
5
5
5
5
5
5
5
5
5
5
5
5
5
5
5
5
5
5
5
5
5
5
5
5
5
5
5
5
5
5
5
5
5
5
5
5
5
5
5
5
5
5
5
5
5
5
5
5
5
5
5
5
5
5
5
5
5
5
5
5
5
5
5
5
5
5
5
5
5
5
5
5
5
5
5
5
5
5
5
5
5
5
5
5
5
5
5
5
5
5
5
5
5
5
5
5
5
5
5
5
5
5
5
5
5
5
5
5
5
5
5
5
5
5
5
5
5
5
5
5
5
5
5
5
5
5
5
5
5
5
5
5
5
5
5
5
5
5
5
5
5
5
5
5
5
5
5
5
5
5
5
5
5
5
5
5
5
5
5
5
5
5
5
5
5
5
5
5
5
5
5
5
5
5
5
5
5
5
5
5
5
5
5
5
5
5
5
5
5
5
5
5
5
5
5
5
5
5
5
5
5
5
5
5
5
CELL_DATA 800
VECTORS Et double
0.0652672 0.077045 0
0.334257 -0.0633386 0
0.0634543 0.0847173 0
0.324088 -0.050342 0
0.0600608 0.0890357 0
0.306617 -0.0380985 0
0.05515 0.0903107 0
0.28185 -0.0261322 0
0.0488371 0.088819 0
0.250236 -0.014291 0
0.041284 0.0848403 0
0.212502 -0.00255592 0
0.0326916 0.0786526 0
0.169576 0.00900804 0
0.0232908 0.0705195 0
0.122537 0.0202628 0
0.0133316 0.0606853 0
0.0725698 0.0310037 0
0.003073 0.0493826 0
0.0209301 0.0409761 0
-0.00722675 0.036851 0
-0.0310978 0.0499025 0
-0.0173176 0.0233622 0
-0.0822338 0.0575192 0
-0.0269633 0.00924314 0
-0.131234 0.063615 0
-0.0359443 -0.00510787 0
-0.176917 0.0680633 0
-0.0440591 -0.0192191 0
-0.218186 0.0708427 0
-0.0511249 -0.0325562 0
-0.254049 0.0720415 0
-0.0569769 -0.0445421 0
-0.283619 0.0718461 0
-0.0614697 -0.0545708 0
-0.306121 0.0705226 0
-0.0644782 -0.0619815 0
-0.320846 0.0684035 0
-0.0658988 -0.0658988 0
-0.327036 0.0659182 0
0.452099 0.0625783 0
0.666333 -0.0485761 0
0.439246 0.0684039 0
0.64803 -0.0396333 0
0.416217 0.07185 0
0.614212 -0.0302709 0
0.383114 0.0729705 0
0.565425 -0.0207858 0
0.340581 0.0719331 0
0.502731 -0.0112547 0
0.289625 0.06895 0
0.42764 -0.00172019 0
0.231528 0.0642393 0
0.34204 0.00774769 0
0.167779 0.0580009 0
0.248109 0.0170255 0
0.100015 0.0504088 0
0.148242 0.0259295 0
0.0299576 0.0416183 0
0.0449623 0.0342261 0
-0.0406404 0.031786 0
-0.0591496 0.041657 0
-0.110046 0.0210962 0
-0.161532 0.0479739 0
-0.176586 0.00978628 0
-0.259703 0.0529765 0
-0.238683 -0.00183664 0
-0.351315 0.0565444 0
-0.294876 -0.0133931 0
-0.434192 0.0586562 0
-0.343839 -0.0244452 0
-0.506368 0.0593922 0
-0.384389 -0.0345271 0
-0.566102 0.0589188 0
-0.41548 -0.0431895 0
-0.611891 0.0574571 0
-0.436177 -0.0500712 0
-0.642472 0.05524 0
-0.44553 -0.0550723 0
-0.656809 0.0524452 0
0.747854 0.036917 0
0.866119 -0.0242011 0
0.727874 0.0400184 0
0.843787 -0.0198938 0
0.69034 0.0419374 0
0.800683 -0.0150155 0
0.63587 0.0426318 0
0.737737 -0.00987113 0
0.565663 0.0421856 0
0.656449 -0.00457557 0
0.481432 0.0407314 0
0.558853 0.000831222 0
0.385317 0.0383999 0
0.447454 0.00631156 0
0.279799 0.0352901 0
0.325131 0.0117883 0
0.167593 0.0314595 0
0.195031 0.0171282 0
0.0515585 0.0269331 0
0.0604694 0.0221457 0
-0.0653965 0.021725 0
-0.0751808 0.0266252 0
-0.180398 0.015869 0
-0.208581 0.0303538 0
-0.290675 0.00944646 0
-0.336509 0.0331578 0
-0.393614 0.00260647 0
-0.455926 0.0349338 0
-0.486804 -0.0044301 0
-0.564032 0.0356669 0
-0.56806 -0.011385 0
-0.658299 0.0354314 0
-0.635444 -0.0179573 0
-0.736507 0.0343719 0
-0.687275 -0.0238774 0
-0.796763 0.0326645 0
-0.722129 -0.0289856 0
-0.837526 0.0304623 0
-0.738841 -0.0333416 0
-0.857651 0.0278206 0
0.895206 0.00458951 0
0.894806 0.00493755 0
0.872549 0.0046391 0
0.873035 0.00437637 0
0.828315 0.00471322 0
0.82933 0.00408777 0
0.763456 0.00479234 0
0.764743 0.00394313 0
0.679522 0.0049323 0
0.680906 0.00392638 0
0.578636 0.0052061 0
0.579996 0.00407934 0
0.463417 0.00565738 0
0.464672 0.00444489 0
0.336877 0.00627243 0
0.337976 0.00502585 0
0.202309 0.00697269 0
0.203223 0.00576492 0
0.063165 0.00762662 0
0.0638836 0.00654585 0
-0.0770531 0.00807616 0
-0.0765282 0.00721286 0
-0.214898 0.00817106 0
-0.214555 0.00760207 0
-0.347059 0.00780225 0
-0.346882 0.00757691 0
-0.470428 0.00692626 0
-0.470404 0.00705882 0
-0.582147 0.00557384 0
-0.582275 0.00604551 0
-0.679638 0.00383907 0
-0.679941 0.00461136 0
-0.760632 0.00184827 0
-0.761171 0.00288788 0
-0.82318 -0.000288376 0
-0.824076 0.00102551 0
-0.865686 -0.00253594 0
-0.867141 -0.000858939 0
-0.886945 -0.00498792 0
-0.889263 -0.00274128 0
0.865766 -0.028351 0
0.7472 0.0330562 0
0.845085 -0.0312474 0
0.730319 0.0279971 0
0.803054 -0.0330584 0
0.694649 0.0227221 0
0.740681 -0.0337238 0
0.641112 0.0173098 0
0.659554 -0.0331686 0
0.57114 0.0119023 0
0.56181 -0.0313479 0
0.486641 0.0066713 0
0.450065 -0.0282848 0
0.389937 0.00177307 0
0.327314 -0.0240928 0
0.283669 -0.0026886 0
0.196812 -0.0189784 0
0.170699 -0.00668124 0
0.0619538 -0.0132236 0
0.0539993 -0.0102429 0
-0.073842 -0.00715539 0
-0.0634538 -0.0134636 0
-0.207235 -0.00110512 0
-0.178766 -0.0164542 0
-0.335045 0.00462978 0
-0.2892 -0.019312 0
-0.454311 0.00981622 0
-0.392224 -0.0220888 0
-0.562331 0.0143002 0
-0.485543 -0.0247724 0
-0.656685 0.0180027 0
-0.567121 -0.0272837 0
-0.735255 0.0208958 0
-0.635189 -0.0294942 0
-0.796236 0.0229646 0
-0.688255 -0.0312596 0
-0.838165 0.0241632 0
-0.725122 -0.0324665 0
-0.859961 0.0243851 0
-0.744912 -0.0330789 0
0.665872 -0.0556441 0
0.452795 0.0545807 0
0.651276 -0.060996 0
0.44408 0.0460149 0
0.619737 -0.0644959 0
0.423369 0.0367264 0
0.572075 -0.0659823 0
0.39126 0.026978 0
0.509593 -0.0653299 0
0.348709 0.0170763 0
0.434041 -0.0624895 0
0.296998 0.0073335 0
0.347555 -0.0575198 0
0.237687 -0.00197548 0
0.252565 -0.0506026 0
0.172537 -0.0106462 0
0.151689 -0.0420395 0
0.103434 -0.0185611 0
0.0476296 -0.0322292 0
0.0322952 -0.0256869 0
-0.0569349 -0.0216314 0
-0.0390096 -0.0320555 0
-0.159431 -0.0107222 0
-0.108721 -0.0377331 0
-0.257455 4.99087e-05 0
-0.175235 -0.0427846 0
-0.34881 0.0102995 0
-0.237124 -0.0472421 0
-0.431528 0.0197258 0
-0.293141 -0.0510834 0
-0.503871 0.0281163 0
-0.34221 -0.054226 0
-0.564327 0.0353315 0
-0.383407 -0.0565396 0
-0.611613 0.0412753 0
-0.415957 -0.0578743 0
-0.644682 0.0458575 0
-0.439224 -0.058101 0
-0.662748 0.0489642 0
-0.452723 -0.0571542 0
0.33538 -0.0720779 0
0.069968 0.0652498 0
0.329686 -0.0790802 0
0.0710185 0.0546681 0
0.314728 -0.0838732 0
0.0691442 0.0429606 0
0.290966 -0.086191 0
0.0645193 0.030529 0
0.259163 -0.0858398 0
0.0574454 0.01782 0
0.220363 -0.08274 0
0.0483483 0.00526538 0
0.175837 -0.076952 0
0.0377533 -0.00676394 0
0.127021 -0.0686851 0
0.0262407 -0.0179874 0
0.0754278 -0.0582874 0
0.0143889 -0.0282266 0
0.0225681 -0.0462191 0
0.0027173 -0.0374002 0
-0.0301263 -0.0330128 0
-0.00836043 -0.0455029 0
-0.081357 -0.0192265 0
-0.0185663 -0.0525749 0
-0.129991 -0.00539602 0
-0.0277655 -0.0586659 0
-0.175069 0.0080038 0
-0.0359514 -0.0638025 0
-0.21579 0.0205867 0
-0.0432131 -0.0679644 0
-0.251488 0.0320656 0
-0.0496903 -0.0710743 0
-0.281599 0.042246 0
-0.0555283 -0.073004 0
-0.305637 0.0510045 0
-0.0608417 -0.0735951 0
-0.323186 0.0582506 0
-0.0656975 -0.0726931 0
-0.333901 0.0638792 0
-0.0701158 -0.070192 0
-0.0601939 -0.0745031 0
-0.32553 0.0629602 0
-0.0559887 -0.0821442 0
-0.315121 0.0521508 0
-0.0516375 -0.0876849 0
-0.298061 0.0399707 0
-0.0471193 -0.0907531 0
-0.274614 0.026926 0
-0.0423468 -0.0910812 0
-0.245192 0.0135709 0
-0.0371659 -0.0885445 0
-0.210293 0.000413268 0
-0.0313759 -0.0831783 0
-0.170492 -0.0121273 0
-0.0247711 -0.0751777 0
-0.126462 -0.0237395 0
-0.0171928 -0.0648836 0
-0.0789978 -0.034225 0
-0.00858045 -0.0527532 0
-0.0290451 -0.0434896 0
0.000989482 -0.0393197 0
0.0222916 -0.0515215 0
0.0112844 -0.0251458 0
0.0737547 -0.0583607 0
0.0219211 -0.0107771 0
0.123964 -0.0640637 0
0.0323954 0.0032985 0
0.171468 -0.0686709 0
0.042132 0.0166807 0
0.214816 -0.0721815 0
0.0505448 0.0290731 0
0.25263 -0.0745383 0
0.0570983 0.0402867 0
0.283693 -0.0756276 0
0.0613569 0.0502289 0
0.307002 -0.075289 0
0.063012 0.0588715 0
0.321799 -0.0733389 0
0.0618869 0.0661677 0
0.327542 -0.0696102 0
-0.442598 -0.0624142 0
-0.655489 0.0481839 0
-0.42952 -0.0696349 0
-0.638144 0.0390132 0
-0.406996 -0.0753028 0
-0.60581 0.0283093 0
-0.375432 -0.0789273 0
-0.559218 0.0167584 0
-0.335433 -0.0801811 0
-0.499455 0.00499939 0
-0.287744 -0.0789004 0
-0.427839 -0.00644785 0
-0.233235 -0.075082 0
-0.345895 -0.017183 0
-0.172919 -0.0688752 0
-0.255369 -0.0269237 0
-0.107974 -0.0605644 0
-0.158228 -0.0355016 0
-0.0397606 -0.0505416 0
-0.0566578 -0.0428504 0
0.0301725 -0.039269 0
0.046957 -0.0489841 0
0.100108 -0.0272368 0
0.150072 -0.0539687 0
0.168202 -0.0149218 0
0.250044 -0.0578895 0
0.232545 -0.00274987 0
0.344216 -0.06082 0
0.291253 0.00893253 0
0.430013 -0.0627966 0
0.34255 0.0198778 0
0.505048 -0.0638011 0
0.384869 0.0299492 0
0.567233 -0.0637535 0
0.416919 0.0391314 0
0.614868 -0.0625111 0
0.437727 0.047541 0
0.646704 -0.0598674 0
0.446613 0.0553615 0
0.66186 -0.0555531 0
-0.736258 -0.0379382 0
-0.854538 0.0238779 0
-0.717235 -0.0439084 0
-0.834593 0.0181628 0
-0.681268 -0.0491133 0
-0.793541 0.0104261 0
-0.629191 -0.0529743 0
-0.733158 0.00211111 0
-0.562226 -0.0551713 0
-0.6551 -0.00612171 0
-0.481857 -0.0555374 0
-0.56122 -0.0138506 0
-0.389813 -0.0540365 0
-0.453649 -0.0207807 0
-0.288075 -0.0507541 0
-0.334811 -0.0267228 0
-0.178876 -0.0458825 0
-0.207408 -0.0315861 0
-0.0646912 -0.0396987 0
-0.0744014 -0.0353673 0
0.0517864 -0.0325341 0
0.0610332 -0.0381326 0
0.167694 -0.0247422 0
0.195567 -0.0399932 0
0.28007 -0.016665 0
0.3258 -0.0410777 0
0.38594 -0.00860401 0
0.448356 -0.0415053 0
0.482431 -0.000798033 0
0.560002 -0.0413621 0
0.566883 0.00659253 0
0.65776 -0.0406851 0
0.636962 0.013498 0
0.739039 -0.039452 0
0.69077 0.019968 0
0.801758 -0.0375744 0
0.726906 0.0262943 0
0.844525 -0.0348749 0
0.744407 0.0335772 0
0.867047 -0.0309745 0
-0.890779 -0.0212642 0
-0.945276 0.0104347 0
-0.870184 -0.0285966 0
-0.922495 0.00136883 0
-0.827606 -0.0348605 0
-0.877196 -0.00664733 0
-0.764862 -0.0398864 0
-0.810525 -0.0141155 0
-0.683656 -0.0434307 0
-0.724149 -0.0208532 0
-0.585913 -0.0453207 0
-0.620135 -0.0265852 0
-0.473853 -0.0454968 0
-0.500914 -0.0310929 0
-0.350002 -0.04402 0
-0.36926 -0.0342573 0
-0.217187 -0.0410613 0
-0.228255 -0.0360685 0
-0.078498 -0.0368795 0
-0.0812413 -0.0366178 0
0.0627479 -0.0317889 0
0.0682331 -0.0360775 0
0.203078 -0.0261238 0
0.216493 -0.0346711 0
0.338947 -0.0202025 0
0.359824 -0.0326407 0
0.466837 -0.0142967 0
0.494576 -0.0302134 0
0.58338 -0.00860894 0
0.617274 -0.0275724 0
0.685474 -0.00326239 0
0.724732 -0.0248371 0
0.770415 0.00169289 0
0.814172 -0.0220541 0
0.836027 0.00624172 0
0.883318 -0.0192048 0
0.880839 0.0102622 0
0.930479 -0.0162441 0
0.9045 0.0129412 0
0.954505 -0.0132403 0
-0.962038 -0.0109357 0
-0.987793 0.00424593 0
-0.93896 -0.0149361 0
-0.963876 -0.000411386 0
-0.892995 -0.0182279 0
-0.916533 -0.00467807 0
-0.825284 -0.0206829 0
-0.84686 -0.00846298 0
-0.737506 -0.0221687 0
-0.756531 -0.0116416 0
-0.631751 -0.0226 0
-0.647699 -0.0140751 0
-0.510488 -0.0219676 0
-0.522944 -0.0156637 0
-0.376536 -0.020347 0
-0.385217 -0.0163761 0
-0.23303 -0.0178918 0
-0.237794 -0.0162587 0
-0.0833748 -0.014816 0
-0.0842116 -0.0154303 0
0.068818 -0.0113701 0
0.0718027 -0.014066 0
0.219805 -0.0078123 0
0.226411 -0.0123736 0
0.365802 -0.00438077 0
0.375759 -0.0105667 0
0.503092 -0.00126996 0
0.516084 -0.0088382 0
0.628132 0.00138596 0
0.643814 -0.00733756 0
0.737679 0.00351884 0
0.755683 -0.00615518 0
0.828893 0.00511823 0
0.848832 -0.00531754 0
0.89945 0.00620375 0
0.920887 -0.00479604 0
0.947612 0.0067755 0
0.970021 -0.00453493 0
0.972187 0.00680023 0
0.994943 -0.00450053 0
-0.992035 -0.000623254 0
-0.988356 -0.0021487 0
-0.968109 -0.00113379 0
-0.964507 -0.00269989 0
-0.920686 -0.00136031 0
-0.917179 -0.00302749 0
-0.850849 -0.00120724 0
-0.847475 -0.00300054 0
-0.760262 -0.000610709 0
-0.757054 -0.00254169 0
-0.651076 0.000449961 0
-0.648077 -0.00160512 0
-0.525872 0.00194064 0
-0.523144 -0.000187158 0
-0.387606 0.0037693 0
-0.385243 0.00166254 0
-0.239564 0.00579236 0
-0.237681 0.00383822 0
-0.0852945 0.00782897 0
-0.084026 0.00618467 0
0.0714565 0.00968079 0
0.071979 0.00851157 0
0.226833 0.0111544 0
0.226495 0.0106134 0
0.376961 0.0120832 0
0.375685 0.0122917 0
0.518053 0.0123462 0
0.51581 0.0133775 0
0.646517 0.0118804 0
0.643335 0.0137493 0
0.759064 0.0106855 0
0.75503 0.0133464 0
0.852809 0.00881872 0
0.848058 0.0121729 0
0.925357 0.00638265 0
0.920054 0.0102932 0
0.974859 0.00351312 0
0.969182 0.00781899 0
1 0.000401224 0
0.99416 0.00489761 0
-0.979851 0.00945654 0
-0.947094 -0.00847227 0
-0.956295 0.0123291 0
-0.924386 -0.00517041 0
-0.90949 0.0150972 0
-0.879119 -0.00166266 0
-0.840515 0.0177976 0
-0.812362 0.00210583 0
-0.751002 0.0204323 0
-0.725709 0.0061379 0
-0.643079 0.0229671 0
-0.621239 0.0103938 0
-0.519314 0.0253294 0
-0.50146 0.0147914 0
-0.382658 0.0274098 0
-0.369254 0.0192057 0
-0.236386 0.0290693 0
-0.227813 0.0234713 0
-0.0840291 0.0301519 0
-0.0805701 0.027392 0
0.0707008 0.0305015 0
0.0688774 0.0307543 0
0.223996 0.0299797 0
0.216852 0.0333456 0
0.372048 0.0284839 0
0.359685 0.0349735 0
0.511142 0.0259614 0
0.493814 0.0354848 0
0.637766 0.02242 0
0.615874 0.0347815 0
0.748705 0.0179316 0
0.72279 0.0328314 0
0.841133 0.0126302 0
0.811862 0.0296736 0
0.912693 0.00670591 0
0.880838 0.0254166 0
0.96155 0.000399251 0
0.927963 0.0202327 0
0.986422 -0.00599446 0
0.952028 0.0143525 0
-0.926164 0.0189623 0
-0.865838 -0.0144538 0
-0.904047 0.0249629 0
-0.845255 -0.00762753 0
-0.859893 0.030522 0
-0.803984 -0.000559644 0
-0.794737 0.0356075 0
-0.743015 0.00671251 0
-0.710127 0.0401606 0
-0.663814 0.0141075 0
-0.608081 0.0440965 0
-0.568292 0.0215018 0
-0.491042 0.0473068 0
-0.458755 0.0287336 0
-0.361818 0.0496636 0
-0.337851 0.0356066 0
-0.223523 0.0510284 0
-0.208511 0.0418977 0
-0.0795093 0.0512635 0
-0.0738852 0.0473679 0
0.0667054 0.0502466 0
0.0627318 0.0517763 0
0.211523 0.0478855 0
0.197978 0.0548972 0
0.351352 0.0441329 0
0.328505 0.0565377 0
0.482699 0.0389979 0
0.451067 0.0565545 0
0.602264 0.0325544 0
0.562601 0.0548677 0
0.707028 0.0249436 0
0.660311 0.0514713 0
0.794337 0.0163737 0
0.741742 0.0464378 0
0.861974 0.00711453 0
0.804846 0.0399186 0
0.908212 -0.0025084 0
0.848032 0.03214 0
0.931853 -0.0121218 0
0.870204 0.0233978 0
-0.833339 0.0275308 0
-0.748087 -0.0198382 0
-0.813621 0.0362867 0
-0.730499 -0.0099246 0
-0.774014 0.044322 0
-0.69497 0.000290221 0
-0.715458 0.051538 0
-0.642365 0.0106854 0
-0.639356 0.0578174 0
-0.573967 0.0210981 0
-0.547533 0.0630278 0
-0.491436 0.0313254 0
-0.442198 0.0670265 0
-0.396776 0.0411313 0
-0.325889 0.0696669 0
-0.292285 0.0502537 0
-0.201422 0.0708077 0
-0.180504 0.0584149 0
-0.0718213 0.0703238 0
-0.0641625 0.0653339 0
0.059742 0.068119 0
0.0538897 0.0707413 0
0.19003 0.0641386 0
0.170747 0.0743949 0
0.315816 0.0583818 0
0.28352 0.0760971 0
0.433967 0.0509106 0
0.389408 0.0757094 0
0.541523 0.0418565 0
0.485775 0.0731656 0
0.635781 0.0314222 0
0.570215 0.0684806 0
0.714366 0.0198806 0
0.640617 0.0617556 0
0.775292 0.00756998 0
0.695223 0.0531783 0
0.817016 -0.00511318 0
0.732671 0.0430204 0
0.838471 -0.0177253 0
0.75203 0.0316309 0
-0.705366 0.0348165 0
-0.598874 -0.0243964 0
-0.688886 0.0458522 0
-0.585007 -0.011945 0
-0.655504 0.0559564 0
-0.556696 0.000883413 0
-0.60603 0.0649693 0
-0.514658 0.0138998 0
-0.541661 0.0727191 0
-0.459937 0.0268676 0
-0.463954 0.079029 0
-0.393875 0.0395116 0
-0.374786 0.0837243 0
-0.318084 0.0515284 0
-0.276315 0.0866398 0
-0.234412 0.0625968 0
-0.17093 0.087629 0
-0.144898 0.0723902 0
-0.0611988 0.0865746 0
-0.0517326 0.0805888 0
0.0501922 0.0833993 0
0.0428 0.0868956 0
0.160501 0.0780776 0
0.136373 0.0910516 0
0.266998 0.0706452 0
0.226674 0.0928514 0
0.367036 0.0612068 0
0.311466 0.092158 0
0.458115 0.0499404 0
0.388642 0.0889138 0
0.537955 0.0370984 0
0.456282 0.0831491 0
0.604554 0.0230049 0
0.512706 0.0749863 0
0.656239 0.0080513 0
0.556518 0.0646402 0
0.691717 -0.00730948 0
0.586646 0.0524159 0
0.710098 -0.0225709 0
0.602366 0.0387038 0
-0.547713 0.0405094 0
-0.42457 -0.0279345 0
-0.535151 0.0532631 0
-0.414959 -0.0136031 0
-0.509386 0.0649557 0
-0.395009 0.00120431 0
-0.471069 0.0753699 0
-0.365271 0.0162433 0
-0.421145 0.0842829 0
-0.326508 0.0312093 0
-0.360833 0.0914776 0
-0.279682 0.0457619 0
-0.291598 0.0967505 0
-0.225943 0.0595394 0
-0.21512 0.0999188 0
-0.166607 0.0721706 0
-0.133258 0.10083 0
-0.103125 0.083287 0
-0.0480107 0.0993694 0
-0.0370498 0.0925365 0
0.0385341 0.0954736 0
0.0299953 0.0995977 0
0.124246 0.089137 0
0.0963602 0.104196 0
0.207005 0.0804219 0
0.160407 0.106117 0
0.284756 0.0694642 0
0.22055 0.105223 0
0.355562 0.0564759 0
0.275299 0.101461 0
0.417655 0.0417447 0
0.323297 0.09487 0
0.469484 0.0256296 0
0.363359 0.0855854 0
0.509762 0.0085552 0
0.394507 0.0738378 0
0.537498 -0.00899142 0
0.416003 0.0599497 0
0.552024 -0.0264557 0
0.42738 0.0443344 0
-0.367109 0.044338 0
-0.232641 -0.0303024 0
-0.358948 0.0581859 0
-0.22757 -0.0148585 0
-0.341839 0.0709408 0
-0.216727 0.00122056 0
-0.316259 0.0823204 0
-0.200481 0.0176192 0
-0.282864 0.0920535 0
-0.179268 0.0339606 0
-0.242477 0.0998883 0
-0.153625 0.0498461 0
-0.196087 0.105598 0
-0.124185 0.064867 0
-0.14482 0.108985 0
-0.091672 0.078614 0
-0.0899261 0.10989 0
-0.0568834 0.0906875 0
-0.0327444 0.108199 0
-0.0206725 0.100711 0
0.0253233 0.103856 0
0.0160709 0.108343 0
0.0828476 0.0968679 0
0.0524423 0.113298 0
0.138406 0.0873124 0
0.0875445 0.115354 0
0.19062 0.0753452 0
0.12051 0.114369 0
0.23819 0.0611993 0
0.150525 0.11029 0
0.279931 0.0451829 0
0.176847 0.103162 0
0.314806 0.0276721 0
0.198832 0.093125 0
0.34196 0.00910079 0
0.215952 0.0804127 0
0.360748 -0.010047 0
0.227822 0.0653464 0
0.370766 -0.0292172 0
0.234257 0.0483283 0
-0.17129 0.0460414 0
-0.0313997 -0.0313997 0
-0.167754 0.0603551 0
-0.0307487 -0.0157562 0
-0.159931 0.0736419 0
-0.0293346 0.000875019 0
-0.148109 0.0855355 0
-0.0271942 0.0179532 0
-0.132614 0.0957248 0
-0.0243826 0.0350144 0
-0.113833 0.103935 0
-0.0209717 0.0516149 0
-0.0922281 0.109924 0
-0.0170482 0.0673166 0
-0.0683233 0.113484 0
-0.0127112 0.0816875 0
-0.0427002 0.114452 0
-0.00806958 0.0943102 0
-0.0159839 0.112712 0
-0.00323922 0.104793 0
0.0111711 0.108209 0
0.00166012 0.112786 0
0.0380965 0.100954 0
0.00650772 0.117991 0
0.0641259 0.0910323 0
0.0111849 0.120183 0
0.0886127 0.0786067 0
0.0155777 0.119215 0
0.110947 0.063919 0
0.0195801 0.115035 0
0.130571 0.0472848 0
0.0230957 0.107685 0
0.147001 0.0290833 0
0.0260408 0.0973053 0
0.159839 0.00973755 0
0.0283454 0.0841261 0
0.168802 -0.0103222 0
0.0299552 0.0684522 0
0.173772 -0.0307394 0
0.0308327 0.0506278 0
