# vtk DataFile Version 3.0
tp3485 cell-vector
ASCII
DATASET UNSTRUCTURED_GRID
POINTS 441 double
0 0 0
0.05 0 0
0.1 0 0
0.15 0 0
0.2 0 0
0.25 0 0
0.3 0 0
0.35 0 0
0.4 0 0
0.45 0 0
0.5 0 0
0.55 0 0
0.6 0 0
0.65 0 0
0.7 0 0
0.75 0 0
0.8 0 0
0.85 0 0
0.9 0 0
0.95 0 0
1 0 0
0 0.05 0
0.05 0.05 0
0.1 0.05 0
0.15 0.05 0
0.2 0.05 0
0.25 0.05 0
0.3 0.05 0
0.35 0.05 0
0.4 0.05 0
0.45 0.05 0
0.5 0.05 0
0.55 0.05 0
0.6 0.05 0
0.65 0.05 0
0.7 0.05 0
0.75 0.05 0
0.8 0.05 0
0.85 0.05 0
0.9 0.05 0
0.95 0.05 0
1 0.05 0
0 0.1 0
0.05 0.1 0
0.1 0.1 0
0.15 0.1 0
0.2 0.1 0
0.25 0.1 0
0.3 0.1 0
0.35 0.1 0
0.4 0.1 0
0.45 0.1 0
0.5 0.1 0
0.55 0.1 0
0.6 0.1 0
0.65 0.1 0
0.7 0.1 0
0.75 0.1 0
0.8 0.1 0
0.85 0.1 0
0.9 0.1 0
0.95 0.1 0
1 0.1 0
0 0.15 0
0.05 0.15 0
0.1 0.15 0
0.15 0.15 0
0.2 0.15 0
0.25 0.15 0
0.3 0.15 0
0.35 0.15 0
0.4 0.15 0
0.45 0.15 0
0.5 0.15 0
0.55 0.15 0
0.6 0.15 0
0.65 0.15 0
0.7 0.15 0
0.75 0.15 0
0.8 0.15 0
0.85 0.15 0
0.9 0.15 0
0.95 0.15 0
1 0.15 0
0 0.2 0
0.05 0.2 0
0.1 0.2 0
0.15 0.2 0
0.2 0.2 0
0.25 0.2 0
0.3 0.2 0
0.35 0.2 0
0.4 0.2 0
0.45 0.2 0
0.5 0.2 0
0.55 0.2 0
0.6 0.2 0
0.65 0.2 0
0.7 0.2 0
0.75 0.2 0
0.8 0.2 0
0.85 0.2 0
0.9 0.2 0
0.95 0.2 0
1 0.2 0
0 0.25 0
0.05 0.25 0
0.1 0.25 0
0.15 0.25 0
0.2 0.25 0
0.25 0.25 0
0.3 0.25 0
0.35 0.25 0
0.4 0.25 0
0.45 0.25 0
0.5 0.25 0
0.55 0.25 0
0.6 0.25 0
0.65 0.25 0
0.7 0.25 0
0.75 0.25 0
0.8 0.25 0
0.85 0.25 0
0.9 0.25 0
0.95 0.25 0
1 0.25 0
0 0.3 0
0.05 0.3 0
0.1 0.3 0
0.15 0.3 0
0.2 0.3 0
0.25 0.3 0
0.3 0.3 0
0.35 0.3 0
0.4 0.3 0
0.45 0.3 0
0.5 0.3 0
0.55 0.3 0
0.6 0.3 0
0.65 0.3 0
0.7 0.3 0
0.75 0.3 0
0.8 0.3 0
0.85 0.3 0
0.9 0.3 0
0.95 0.3 0
1 0.3 0
0 0.35 0
0.05 0.35 0
0.1 0.35 0
0.15 0.35 0
0.2 0.35 0
0.25 0.35 0
0.3 0.35 0
0.35 0.35 0
0.4 0.35 0
0.45 0.35 0
0.5 0.35 0
0.55 0.35 0
0.6 0.35 0
0.65 0.35 0
0.7 0.35 0
0.75 0.35 0
0.8 0.35 0
0.85 0.35 0
0.9 0.35 0
0.95 0.35 0
1 0.35 0
0 0.4 0
0.05 0.4 0
0.1 0.4 0
0.15 0.4 0
0.2 0.4 0
0.25 0.4 0
0.3 0.4 0
0.35 0.4 0
0.4 0.4 0
0.45 0.4 0
0.5 0.4 0
0.55 0.4 0
0.6 0.4 0
0.65 0.4 0
0.7 0.4 0
0.75 0.4 0
0.8 0.4 0
0.85 0.4 0
0.9 0.4 0
0.95 0.4 0
1 0.4 0
0 0.45 0
0.05 0.45 0
0.1 0.45 0
0.15 0.45 0
0.2 0.45 0
0.25 0.45 0
0.3 0.45 0
0.35 0.45 0
0.4 0.45 0
0.45 0.45 0
0.5 0.45 0
0.55 0.45 0
0.6 0.45 0
0.65 0.45 0
0.7 0.45 0
0.75 0.45 0
0.8 0.45 0
0.85 0.45 0
0.9 0.45 0
0.95 0.45 0
1 0.45 0
0 0.5 0
0.05 0.5 0
0.1 0.5 0
0.15 0.5 0
0.2 0.5 0
0.25 0.5 0
0.3 0.5 0
0.35 0.5 0
0.4 0.5 0
0.45 0.5 0
0.5 0.5 0
0.55 0.5 0
0.6 0.5 0
0.65 0.5 0
0.7 0.5 0
0.75 0.5 0
0.8 0.5 0
0.85 0.5 0
0.9 0.5 0
0.95 0.5 0
1 0.5 0
0 0.55 0
0.05 0.55 0
0.1 0.55 0
0.15 0.55 0
0.2 0.55 0
0.25 0.55 0
0.3 0.55 0
0.35 0.55 0
0.4 0.55 0
0.45 0.55 0
0.5 0.55 0
0.55 0.55 0
0.6 0.55 0
0.65 0.55 0
0.7 0.55 0
0.75 0.55 0
0.8 0.55 0
0.85 0.55 0
0.9 0.55 0
0.95 0.55 0
1 0.55 0
0 0.6 0
0.05 0.6 0
0.1 0.6 0
0.15 0.6 0
0.2 0.6 0
0.25 0.6 0
0.3 0.6 0
0.35 0.6 0
0.4 0.6 0
0.45 0.6 0
0.5 0.6 0
0.55 0.6 0
0.6 0.6 0
0.65 0.6 0
0.7 0.6 0
0.75 0.6 0
0.8 0.6 0
0.85 0.6 0
0.9 0.6 0
0.95 0.6 0
1 0.6 0
0 0.65 0
0.05 0.65 0
0.1 0.65 0
0.15 0.65 0
0.2 0.65 0
0.25 0.65 0
0.3 0.65 0
0.35 0.65 0
0.4 0.65 0
0.45 0.65 0
0.5 0.65 0
0.55 0.65 0
0.6 0.65 0
0.65 0.65 0
0.7 0.65 0
0.75 0.65 0
0.8 0.65 0
0.85 0.65 0
0.9 0.65 0
0.95 0.65 0
1 0.65 0
0 0.7 0
0.05 0.7 0
0.1 0.7 0
0.15 0.7 0
0.2 0.7 0
0.25 0.7 0
0.3 0.7 0
0.35 0.7 0
0.4 0.7 0
0.45 0.7 0
0.5 0.7 0
0.55 0.7 0
0.6 0.7 0
0.65 0.7 0
0.7 0.7 0
0.75 0.7 0
0.8 0.7 0
0.85 0.7 0
0.9 0.7 0
0.95 0.7 0
1 0.7 0
0 0.75 0
0.05 0.75 0
0.1 0.75 0
0.15 0.75 0
0.2 0.75 0
0.25 0.75 0
0.3 0.75 0
0.35 0.75 0
0.4 0.75 0
0.45 0.75 0
0.5 0.75 0
0.55 0.75 0
0.6 0.75 0
0.65 0.75 0
0.7 0.75 0
0.75 0.75 0
0.8 0.75 0
0.85 0.75 0
0.9 0.75 0
0.95 0.75 0
1 0.75 0
0 0.8 0
0.05 0.8 0
0.1 0.8 0
0.15 0.8 0
0.2 0.8 0
0.25 0.8 0
0.3 0.8 0
0.35 0.8 0
0.4 0.8 0
0.45 0.8 0
0.5 0.8 0
0.55 0.8 0
0.6 0.8 0
0.65 0.8 0
0.7 0.8 0
0.75 0.8 0
0.8 0.8 0
0.85 0.8 0
0.9 0.8 0
0.95 0.8 0
1 0.8 0
0 0.85 0
0.05 0.85 0
0.1 0.85 0
0.15 0.85 0
0.2 0.85 0
0.25 0.85 0
0.3 0.85 0
0.35 0.85 0
0.4 0.85 0
0.45 0.85 0
0.5 0.85 0
0.55 0.85 0
0.6 0.85 0
0.65 0.85 0
0.7 0.85 0
0.75 0.85 0
0.8 0.85 0
0.85 0.85 0
0.9 0.85 0
0.95 0.85 0
1 0.85 0
0 0.9 0
0.05 0.9 0
0.1 0.9 0
0.15 0.9 0
0.2 0.9 0
0.25 0.9 0
0.3 0.9 0
0.35 0.9 0
0.4 0.9 0
0.45 0.9 0
0.5 0.9 0
0.55 0.9 0
0.6 0.9 0
0.65 0.9 0
0.7 0.9 0
0.75 0.9 0
0.8 0.9 0
0.85 0.9 0
0.9 0.9 0
0.95 0.9 0
1 0.9 0
0 0.95 0
0.05 0.95 0
0.1 0.95 0
0.15 0.95 0
0.2 0.95 0
0.25 0.95 0
0.3 0.95 0
0.35 0.95 0
0.4 0.95 0
0.45 0.95 0
0.5 0.95 0
0.55 0.95 0
0.6 0.95 0
0.65 0.95 0
0.7 0.95 0
0.75 0.95 0
0.8 0.95 0
0.85 0.95 0
0.9 0.95 0
0.95 0.95 0
1 0.95 0
0 1 0
0.05 1 0
0.1 1 0
0.15 1 0
0.2 1 0
0.25 1 0
0.3 1 0
0.35 1 0
0.4 1 0
0.45 1 0
0.5 1 0
0.55 1 0
0.6 1 0
0.65 1 0
0.7 1 0
0.75 1 0
0.8 1 0
0.85 1 0
0.9 1 0
0.95 1 0
1 1 0
CELLS 800 3200
3 0 1 22
3 0 22 21
3 1 2 23
3 1 23 22
3 2 3 24
3 2 24 23
3 3 4 25
3 3 25 24
3 4 5 26
3 4 26 25
3 5 6 27
3 5 27 26
3 6 7 28
3 6 28 27
3 7 8 29
3 7 29 28
3 8 9 30
3 8 30 29
3 9 10 31
3 9 31 30
3 10 11 32
3 10 32 31
3 11 12 33
3 11 33 32
3 12 13 34
3 12 34 33
3 13 14 35
3 13 35 34
3 14 15 36
3 14 36 35
3 15 16 37
3 15 37 36
3 16 17 38
3 16 38 37
3 17 18 39
3 17 39 38
3 18 19 40
3 18 40 39
3 19 20 41
3 19 41 40
3 21 22 43
3 21 43 42
3 22 23 44
3 22 44 43
3 23 24 45
3 23 45 44
3 24 25 46
3 24 46 45
3 25 26 47
3 25 47 46
3 26 27 48
3 26 48 47
3 27 28 49
3 27 49 48
3 28 29 50
3 28 50 49
3 29 30 51
3 29 51 50
3 30 31 52
3 30 52 51
3 31 32 53
3 31 53 52
3 32 33 54
3 32 54 53
3 33 34 55
3 33 55 54
3 34 35 56
3 34 56 55
3 35 36 57
3 35 57 56
3 36 37 58
3 36 58 57
3 37 38 59
3 37 59 58
3 38 39 60
3 38 60 59
3 39 40 61
3 39 61 60
3 40 41 62
3 40 62 61
3 42 43 64
3 42 64 63
3 43 44 65
3 43 65 64
3 44 45 66
3 44 66 65
3 45 46 67
3 45 67 66
3 46 47 68
3 46 68 67
3 47 48 69
3 47 69 68
3 48 49 70
3 48 70 69
3 49 50 71
3 49 71 70
3 50 51 72
3 50 72 71
3 51 52 73
3 51 73 72
3 52 53 74
3 52 74 73
3 53 54 75
3 53 75 74
3 54 55 76
3 54 76 75
3 55 56 77
3 55 77 76
3 56 57 78
3 56 78 77
3 57 58 79
3 57 79 78
3 58 59 80
3 58 80 79
3 59 60 81
3 59 81 80
3 60 61 82
3 60 82 81
3 61 62 83
3 61 83 82
3 63 64 85
3 63 85 84
3 64 65 86
3 64 86 85
3 65 66 87
3 65 87 86
3 66 67 88
3 66 88 87
3 67 68 89
3 67 89 88
3 68 69 90
3 68 90 89
3 69 70 91
3 69 91 90
3 70 71 92
3 70 92 91
3 71 72 93
3 71 93 92
3 72 73 94
3 72 94 93
3 73 74 95
3 73 95 94
3 74 75 96
3 74 96 95
3 75 76 97
3 75 97 96
3 76 77 98
3 76 98 97
3 77 78 99
3 77 99 98
3 78 79 100
3 78 100 99
3 79 80 101
3 79 101 100
3 80 81 102
3 80 102 101
3 81 82 103
3 81 103 102
3 82 83 104
3 82 104 103
3 84 85 106
3 84 106 105
3 85 86 107
3 85 107 106
3 86 87 108
3 86 108 107
3 87 88 109
3 87 109 108
3 88 89 110
3 88 110 109
3 89 90 111
3 89 111 110
3 90 91 112
3 90 112 111
3 91 92 113
3 91 113 112
3 92 93 114
3 92 114 113
3 93 94 115
3 93 115 114
3 94 95 116
3 94 116 115
3 95 96 117
3 95 117 116
3 96 97 118
3 96 118 117
3 97 98 119
3 97 119 118
3 98 99 120
3 98 120 119
3 99 100 121
3 99 121 120
3 100 101 122
3 100 122 121
3 101 102 123
3 101 123 122
3 102 103 124
3 102 124 123
3 103 104 125
3 103 125 124
3 105 106 127
3 105 127 126
3 106 107 128
3 106 128 127
3 107 108 129
3 107 129 128
3 108 109 130
3 108 130 129
3 109 110 131
3 109 131 130
3 110 111 132
3 110 132 131
3 111 112 133
3 111 133 132
3 112 113 134
3 112 134 133
3 113 114 135
3 113 135 134
3 114 115 136
3 114 136 135
3 115 116 137
3 115 137 136
3 116 117 138
3 116 138 137
3 117 118 139
3 117 139 138
3 118 119 140
3 118 140 139
3 119 120 141
3 119 141 140
3 120 121 142
3 120 142 141
3 121 122 143
3 121 143 142
3 122 123 144
3 122 144 143
3 123 124 145
3 123 145 144
3 124 125 146
3 124 146 145
3 126 127 148
3 126 148 147
3 127 128 149
3 127 149 148
3 128 129 150
3 128 150 149
3 129 130 151
3 129 151 150
3 130 131 152
3 130 152 151
3 131 132 153
3 131 153 152
3 132 133 154
3 132 154 153
3 133 134 155
3 133 155 154
3 134 135 156
3 134 156 155
3 135 136 157
3 135 157 156
3 136 137 158
3 136 158 157
3 137 138 159
3 137 159 158
3 138 139 160
3 138 160 159
3 139 140 161
3 139 161 160
3 140 141 162
3 140 162 161
3 141 142 163
3 141 163 162
3 142 143 164
3 142 164 163
3 143 144 165
3 143 165 164
3 144 145 166
3 144 166 165
3 145 146 167
3 145 167 166
3 147 148 169
3 147 169 168
3 148 149 170
3 148 170 169
3 149 150 171
3 149 171 170
3 150 151 172
3 150 172 171
3 151 152 173
3 151 173 172
3 152 153 174
3 152 174 173
3 153 154 175
3 153 175 174
3 154 155 176
3 154 176 175
3 155 156 177
3 155 177 176
3 156 157 178
3 156 178 177
3 157 158 179
3 157 179 178
3 158 159 180
3 158 180 179
3 159 160 181
3 159 181 180
3 160 161 182
3 160 182 181
3 161 162 183
3 161 183 182
3 162 163 184
3 162 184 183
3 163 164 185
3 163 185 184
3 164 165 186
3 164 186 185
3 165 166 187
3 165 187 186
3 166 167 188
3 166 188 187
3 168 169 190
3 168 190 189
3 169 170 191
3 169 191 190
3 170 171 192
3 170 192 191
3 171 172 193
3 171 193 192
3 172 173 194
3 172 194 193
3 173 174 195
3 173 195 194
3 174 175 196
3 174 196 195
3 175 176 197
3 175 197 196
3 176 177 198
3 176 198 197
3 177 178 199
3 177 199 198
3 178 179 200
3 178 200 199
3 179 180 201
3 179 201 200
3 180 181 202
3 180 202 201
3 181 182 203
3 181 203 202
3 182 183 204
3 182 204 203
3 183 184 205
3 183 205 204
3 184 185 206
3 184 206 205
3 185 186 207
3 185 207 206
3 186 187 208
3 186 208 207
3 187 188 209
3 187 209 208
3 189 190 211
3 189 211 210
3 190 191 212
3 190 212 211
3 191 192 213
3 191 213 212
3 192 193 214
3 192 214 213
3 193 194 215
3 193 215 214
3 194 195 216
3 194 216 215
3 195 196 217
3 195 217 216
3 196 197 218
3 196 218 217
3 197 198 219
3 197 219 218
3 198 199 220
3 198 220 219
3 199 200 221
3 199 221 220
3 200 201 222
3 200 222 221
3 201 202 223
3 201 223 222
3 202 203 224
3 202 224 223
3 203 204 225
3 203 225 224
3 204 205 226
3 204 226 225
3 205 206 227
3 205 227 226
3 206 207 228
3 206 228 227
3 207 208 229
3 207 229 228
3 208 209 230
3 208 230 229
3 210 211 232
3 210 232 231
3 211 212 233
3 211 233 232
3 212 213 234
3 212 234 233
3 213 214 235
3 213 235 234
3 214 215 236
3 214 236 235
3 215 216 237
3 215 237 236
3 216 217 238
3 216 238 237
3 217 218 239
3 217 239 238
3 218 219 240
3 218 240 239
3 219 220 241
3 219 241 240
3 220 221 242
3 220 242 241
3 221 222 243
3 221 243 242
3 222 223 244
3 222 244 243
3 223 224 245
3 223 245 244
3 224 225 246
3 224 246 245
3 225 226 247
3 225 247 246
3 226 227 248
3 226 248 247
3 227 228 249
3 227 249 248
3 228 229 250
3 228 250 249
3 229 230 251
3 229 251 250
3 231 232 253
3 231 253 252
3 232 233 254
3 232 254 253
3 233 234 255
3 233 255 254
3 234 235 256
3 234 256 255
3 235 236 257
3 235 257 256
3 236 237 258
3 236 258 257
3 237 238 259
3 237 259 258
3 238 239 260
3 238 260 259
3 239 240 261
3 239 261 260
3 240 241 262
3 240 262 261
3 241 242 263
3 241 263 262
3 242 243 264
3 242 264 263
3 243 244 265
3 243 265 264
3 244 245 266
3 244 266 265
3 245 246 267
3 245 267 266
3 246 247 268
3 246 268 267
3 247 248 269
3 247 269 268
3 248 249 270
3 248 270 269
3 249 250 271
3 249 271 270
3 250 251 272
3 250 272 271
3 252 253 274
3 252 274 273
3 253 254 275
3 253 275 274
3 254 255 276
3 254 276 275
3 255 256 277
3 255 277 276
3 256 257 278
3 256 278 277
3 257 258 279
3 257 279 278
3 258 259 280
3 258 280 279
3 259 260 281
3 259 281 280
3 260 261 282
3 260 282 281
3 261 262 283
3 261 283 282
3 262 263 284
3 262 284 283
3 263 264 285
3 263 285 284
3 264 265 286
3 264 286 285
3 265 266 287
3 265 287 286
3 266 267 288
3 266 288 287
3 267 268 289
3 267 289 288
3 268 269 290
3 268 290 289
3 269 270 291
3 269 291 290
3 270 271 292
3 270 292 291
3 271 272 293
3 271 293 292
3 273 274 295
3 273 295 294
3 274 275 296
3 274 296 295
3 275 276 297
3 275 297 296
3 276 277 298
3 276 298 297
3 277 278 299
3 277 299 298
3 278 279 300
3 278 300 299
3 279 280 301
3 279 301 300
3 280 281 302
3 280 302 301
3 281 282 303
3 281 303 302
3 282 283 304
3 282 304 303
3 283 284 305
3 283 305 304
3 284 285 306
3 284 306 305
3 285 286 307
3 285 307 306
3 286 287 308
3 286 308 307
3 287 288 309
3 287 309 308
3 288 289 310
3 288 310 309
3 289 290 311
3 289 311 310
3 290 291 312
3 290 312 311
3 291 292 313
3 291 313 312
3 292 293 314
3 292 314 313
3 294 295 316
3 294 316 315
3 295 296 317
3 295 317 316
3 296 297 318
3 296 318 317
3 297 298 319
3 297 319 318
3 298 299 320
3 298 320 319
3 299 300 321
3 299 321 320
3 300 301 322
3 300 322 321
3 301 302 323
3 301 323 322
3 302 303 324
3 302 324 323
3 303 304 325
3 303 325 324
3 304 305 326
3 304 326 325
3 305 306 327
3 305 327 326
3 306 307 328
3 306 328 327
3 307 308 329
3 307 329 328
3 308 309 330
3 308 330 329
3 309 310 331
3 309 331 330
3 310 311 332
3 310 332 331
3 311 312 333
3 311 333 332
3 312 313 334
3 312 334 333
3 313 314 335
3 313 335 334
3 315 316 337
3 315 337 336
3 316 317 338
3 316 338 337
3 317 318 339
3 317 339 338
3 318 319 340
3 318 340 339
3 319 320 341
3 319 341 340
3 320 321 342
3 320 342 341
3 321 322 343
3 321 343 342
3 322 323 344
3 322 344 343
3 323 324 345
3 323 345 344
3 324 325 346
3 324 346 345
3 325 326 347
3 325 347 346
3 326 327 348
3 326 348 347
3 327 328 349
3 327 349 348
3 328 329 350
3 328 350 349
3 329 330 351
3 329 351 350
3 330 331 352
3 330 352 351
3 331 332 353
3 331 353 352
3 332 333 354
3 332 354 353
3 333 334 355
3 333 355 354
3 334 335 356
3 334 356 355
3 336 337 358
3 336 358 357
3 337 338 359
3 337 359 358
3 338 339 360
3 338 360 359
3 339 340 361
3 339 361 360
3 340 341 362
3 340 362 361
3 341 342 363
3 341 363 362
3 342 343 364
3 342 364 363
3 343 344 365
3 343 365 364
3 344 345 366
3 344 366 365
3 345 346 367
3 345 367 366
3 346 347 368
3 346 368 367
3 347 348 369
3 347 369 368
3 348 349 370
3 348 370 369
3 349 350 371
3 349 371 370
3 350 351 372
3 350 372 371
3 351 352 373
3 351 373 372
3 352 353 374
3 352 374 373
3 353 354 375
3 353 375 374
3 354 355 376
3 354 376 375
3 355 356 377
3 355 377 376
3 357 358 379
3 357 379 378
3 358 359 380
3 358 380 379
3 359 360 381
3 359 381 380
3 360 361 382
3 360 382 381
3 361 362 383
3 361 383 382
3 362 363 384
3 362 384 383
3 363 364 385
3 363 385 384
3 364 365 386
3 364 386 385
3 365 366 387
3 365 387 386
3 366 367 388
3 366 388 387
3 367 368 389
3 367 389 388
3 368 369 390
3 368 390 389
3 369 370 391
3 369 391 390
3 370 371 392
3 370 392 391
3 371 372 393
3 371 393 392
3 372 373 394
3 372 394 393
3 373 374 395
3 373 395 394
3 374 375 396
3 374 396 395
3 375 376 397
3 375 397 396
3 376 377 398
3 376 398 397
3 378 379 400
3 378 400 399
3 379 380 401
3 379 401 400
3 380 381 402
3 380 402 401
3 381 382 403
3 381 403 402
3 382 383 404
3 382 404 403
3 383 384 405
3 383 405 404
3 384 385 406
3 384 406 405
3 385 386 407
3 385 407 406
3 386 387 408
3 386 408 407
3 387 388 409
3 387 409 408
3 388 389 410
3 388 410 409
3 389 390 411
3 389 411 410
3 390 391 412
3 390 412 411
3 391 392 413
3 391 413 412
3 392 393 414
3 392 414 413
3 393 394 415
3 393 415 414
3 394 395 416
3 394 416 415
3 395 396 417
3 395 417 416
3 396 397 418
3 396 418 417
3 397 398 419
3 397 419 418
3 399 400 421
3 399 421 420
3 400 401 422
3 400 422 421
3 401 402 423
3 401 423 422
3 402 403 424
3 402 424 423
3 403 404 425
3 403 425 424
3 404 405 426
3 404 426 425
3 405 406 427
3 405 427 426
3 406 407 428
3 406 428 427
3 407 408 429
3 407 429 428
3 408 409 430
3 408 430 429
3 409 410 431
3 409 431 430
3 410 411 432
3 410 432 431
3 411 412 433
3 411 433 432
3 412 413 434
3 412 434 433
3 413 414 435
3 413 435 434
3 414 415 436
3 414 436 435
3 415 416 437
3 415 437 436
3 416 417 438
3 416 438 437
3 417 418 439
3 417 439 438
3 418 419 440
3 418 440 439
CELL_TYPES 800
5
5
5
5
5
5
5
5
5
5
5
5
5
5
5
5
5
5
5
5
5
5
5
5
5
5
5
5
5
5
5
5
5
5
5
5
5
5
5
5
5
5
5
5
5
5
5
5
5
5
5
5
5
5
5
5
5
5
5
5
5
5
5
5
5
5
5
5
5
5
5
5
5
5
5
5
5
5
5
5
5
5
5
5
5
5
5
5
5
5
5
5
5
5
5
5
5
5
5
5
5
5
5
5
5
5
5
5
5
5
5
5
5
5
5
5
5
5
5
5
5
5
5
5
5
5
5
5
5
5
5
5
5
5
5
5
5
5
5
5
5
5
5
5
5
5
5
5
5
5
5
5
5
5
5
5
5
5
5
5
5
5
5
5
5
5
5
5
5
5
5
5
5
5
5
5
5
5
5
5
5
5
5
5
5
5
5
5
5
5
5
5
5
5
5
5
5
5
5
5
5
5
5
5
5
5
5
5
5
5
5
5
5
5
5
5
5
5
5
5
5
5
5
5
5
5
5
5
5
5
5
5
5
5
5
5
5
5
5
5
5
5
5
5
5
5
5
5
5
5
5
5
5
5
5
5
5
5
5
5
5
5
5
5
5
5
5
5
5
5
5
5
5
5
5
5
5
5
5
5
5
5
5
5
5
5
5
5
5
5
5
5
5
5
5
5
5
5
5
5
5
5
5
5
5
5
5
5
5
5
5
5
5
5
5
5
5
5
5
5
5
5
5
5
5
5
5
5
5
5
5
5
5
5
5
5
5
5
5
5
5
5
5
5
5
5
5
5
5
5
5
5
5
5
5
5
5
5
5
5
5
5
5
5
5
5
5
5
5
5
5
5
5
5
5
5
5
5
5
5
5
5
5
5
5
5
5
5
5
5
5
5
5
5
5
5
5
5
5
5
5
5
5
5
5
5
5
5
5
5
5
5
5
5
5
5
5
5
5
5
5
5
5
5
5
5
5
5
5
5
5
5
5
5
5
5
5
5
5
5
5
5
5
5
5
5
5
5
5
5
5
5
5
5
5
5
5
5
5
5
5
5
5
5
5
5
5
5
5
5
5
5
5
5
5
5
5
5
5
5
5
5
5
5
5
5
5
5
5
5
5
5
5
5
5
5
5
5
5
5
5
5
5
5
5
5
5
5
5
5
5
5
5
5
5
5
5
5
5
5
5
5
5
5
5
5
5
5
5
5
5
5
5
5
5
5
5
5
5
5
5
5
5
5
5
5
5
5
5
5
5
5
5
5
5
5
5
5
5
5
5
5
5
5
5
5
5
5
5
5
5
5
5
5
5
5
5
5
5
5
5
5
5
5
5
5
5
5
5
5
5
5
5
5
5
5
5
5
5
5
5
5
5
5
5
5
5
5
5
5
5
5
5
5
5
5
5
5
5
5
5
5
5
5
5
5
5
5
5
5
5
5
5
5
5
5
5
5
5
5
5
5
5
5
5
5
5
5
5
5
5
5
5
5
5
5
5
5
5
5
5
5
5
5
5
5
5
5
5
5
5
5
5
5
5
5
5
5
5
5
5
5
5
5
5
5
5
5
5
5
5
5
5
5
5
5
5
5
5
5
5
5
5
5
5
5
5
5
5
5
5
5
5
5
5
5
5
5
5
5
5
5
5
5
5
5
5
5
5
5
5
5
5
5
5
5
5
5
5
5
5
5
5
5
5
5
5
5
5
5
5
5
5
5
5
5
5
5
5
5
5
5
5
5
5
5
5
5
5
5
5
5
5
5
5
5
5
5
5
5
5
5
5
5
5
5
5
5
5
5
5
5
5
5
5
5
5
5
5
5
CELL_DATA 800
VECTORS Et double
-0.022657 0.0814815 0
-0.00662951 0.0213985 0
-0.0222124 0.18278 0
-0.00805835 0.125276 0
-0.0212824 0.279583 0
-0.00885356 0.225432 0
-0.0198115 0.3694 0
-0.00958127 0.320112 0
-0.0177723 0.449406 0
-0.0103829 0.406728 0
-0.0151791 0.516868 0
-0.0111664 0.482427 0
-0.0120939 0.569507 0
-0.0117007 0.544533 0
-0.00862232 0.605784 0
-0.0116945 0.590917 0
-0.00489969 0.625059 0
-0.0108741 0.62027 0
-0.00107137 0.627577 0
-0.00905409 0.632224 0
0.00272696 0.614317 0
-0.00618982 0.627304 0
0.00638407 0.586726 0
-0.00239825 0.606741 0
0.00981935 0.546431 0
0.00205536 0.572178 0
0.0129796 0.494991 0
0.00680313 0.52538 0
0.0158285 0.433758 0
0.0114423 0.467992 0
0.0183333 0.363882 0
0.0156105 0.401434 0
0.0204527 0.286444 0
0.0190555 0.326922 0
0.022131 0.202688 0
0.0216928 0.245624 0
0.0232989 0.114316 0
0.0236631 0.158904 0
0.0238804 0.0238804 0
0.0254514 0.0686032 0
-0.0442366 0.051579 0
-0.0343215 0.0127277 0
-0.045158 0.119411 0
-0.0348276 0.0804526 0
-0.0446599 0.185256 0
-0.0348316 0.147717 0
-0.0431964 0.246972 0
-0.0346417 0.212335 0
-0.0408385 0.302303 0
-0.0342771 0.272072 0
-0.0374961 0.349092 0
-0.033499 0.324628 0
-0.0330278 0.385549 0
-0.0318967 0.367875 0
-0.0273155 0.410493 0
-0.0290014 0.400132 0
-0.0203185 0.423484 0
-0.024411 0.420396 0
-0.0121087 0.424809 0
-0.0179019 0.428439 0
-0.00288375 0.415346 0
-0.00950649 0.424765 0
0.00704151 0.396313 0
0.000461501 0.410434 0
0.0172624 0.369008 0
0.0114399 0.386798 0
0.0273259 0.334583 0
0.022702 0.355231 0
0.0367789 0.293923 0
0.0334727 0.31692 0
0.0452174 0.247647 0
0.043054 0.272764 0
0.0523315 0.196232 0
0.0509338 0.223407 0
0.0579495 0.140188 0
0.0568618 0.169374 0
0.0620962 0.0802268 0
0.0608868 0.111257 0
0.0651273 0.0172624 0
0.0633509 0.0498741 0
-0.0512525 0.0063528 0
-0.0484632 -0.000319947 0
-0.0517846 0.0189803 0
-0.047396 0.010428 0
-0.0514679 0.0328508 0
-0.0463602 0.0233614 0
-0.0505101 0.0469466 0
-0.0454319 0.037428 0
-0.048851 0.0601572 0
-0.0444654 0.0515155 0
-0.0462253 0.0713884 0
-0.0430705 0.0644466 0
-0.0422651 0.0797435 0
-0.0406821 0.0751115 0
-0.0366111 0.0846949 0
-0.036686 0.0826563 0
-0.0290169 0.0861796 0
-0.030568 0.0866429 0
-0.0194286 0.0845852 0
-0.022052 0.0871213 0
-0.00802974 0.0806249 0
-0.0111943 0.0845847 0
0.00475903 0.0751367 0
0.00158871 0.0798185 0
0.0183226 0.0688632 0
0.0155658 0.073684 0
0.0319284 0.0622737 0
0.0298008 0.0668994 0
0.0448224 0.055476 0
0.0433017 0.059877 0
0.0563277 0.0482351 0
0.0551754 0.0526595 0
0.0659305 0.0400826 0
0.0647564 0.0449637 0
0.0733434 0.0304674 0
0.0716828 0.0363074 0
0.0785448 0.0188792 0
0.0759058 0.0261653 0
0.0817907 0.00486689 0
0.0776239 0.0140814 0
-0.0388665 -0.0400469 0
-0.0430135 -0.0133116 0
-0.0384177 -0.0862041 0
-0.0406307 -0.0622322 0
-0.0382395 -0.128351 0
-0.0389466 -0.107244 0
-0.0383128 -0.165981 0
-0.0379319 -0.14776 0
-0.0384001 -0.198777 0
-0.0373441 -0.18337 0
-0.0380505 -0.226551 0
-0.0367036 -0.213843 0
-0.0366826 -0.249149 0
-0.0353556 -0.239056 0
-0.0337093 -0.266339 0
-0.0325953 -0.258881 0
-0.0286702 -0.277752 0
-0.0278251 -0.27309 0
-0.0213442 -0.282899 0
-0.0207027 -0.281314 0
-0.0118175 -0.281266 0
-0.0112437 -0.283079 0
-0.000494152 -0.272464 0
0.00014861 -0.277922 0
0.0119544 -0.256383 0
0.0127344 -0.265548 0
0.0246884 -0.233307 0
0.0255582 -0.24598 0
0.0368267 -0.203958 0
0.037611 -0.219656 0
0.0475763 -0.169447 0
0.0479948 -0.187442 0
0.0563393 -0.131165 0
0.0560523 -0.150571 0
0.0627779 -0.0906469 0
0.0614319 -0.110511 0
0.0668271 -0.0494612 0
0.0640753 -0.0688264 0
0.0686448 -0.00915995 0
0.0641312 -0.0270793 0
-0.0100415 -0.0731121 0
-0.0198109 -0.0218412 0
-0.00870274 -0.162714 0
-0.0169245 -0.114123 0
-0.00882867 -0.246861 0
-0.0153261 -0.202084 0
-0.0103032 -0.323667 0
-0.0149932 -0.283668 0
-0.0127869 -0.391534 0
-0.015691 -0.357077 0
-0.0157129 -0.449152 0
-0.0169525 -0.420808 0
-0.0183594 -0.495457 0
-0.0181292 -0.473642 0
-0.0199733 -0.52958 0
-0.0185061 -0.514595 0
-0.0199153 -0.550815 0
-0.0174515 -0.542875 0
-0.0177896 -0.558636 0
-0.0145622 -0.557865 0
-0.0135282 -0.552751 0
-0.00976557 -0.55915 0
-0.00741098 -0.533195 0
-0.00335059 -0.546588 0
-1.62031e-05 -0.50041 0
0.00408122 -0.520396 0
0.00788632 -0.455296 0
0.0117341 -0.481229 0
0.0154747 -0.399192 0
0.0187748 -0.430202 0
0.0220157 -0.333807 0
0.0244883 -0.368856 0
0.026975 -0.261103 0
0.0283929 -0.299063 0
0.0300747 -0.183169 0
0.0302857 -0.222901 0
0.0312848 -0.10213 0
0.03021 -0.142524 0
0.0307514 -0.0201068 0
0.0283566 -0.0600835 0
0.0254566 -0.0826857 0
0.0122235 -0.0230132 0
0.0272023 -0.186627 0
0.0146514 -0.128706 0
0.0266132 -0.285391 0
0.0154959 -0.231045 0
0.0237798 -0.376314 0
0.0146929 -0.327157 0
0.0190231 -0.457067 0
0.0123676 -0.414443 0
0.0129023 -0.525699 0
0.00886558 -0.490655 0
0.00615809 -0.580649 0
0.00472123 -0.553932 0
-0.000401289 -0.620731 0
0.000564427 -0.60281 0
-0.00604102 -0.645125 0
-0.00300898 -0.636213 0
-0.0102328 -0.653383 0
-0.0055681 -0.65345 0
-0.0127472 -0.645447 0
-0.00694181 -0.654231 0
-0.0136816 -0.621678 0
-0.00725027 -0.638689 0
-0.0134181 -0.582873 0
-0.00686319 -0.607404 0
-0.0125218 -0.530247 0
-0.0062959 -0.561405 0
-0.0116058 -0.46537 0
-0.00607171 -0.502134 0
-0.0111962 -0.390068 0
-0.00658948 -0.431361 0
-0.0116324 -0.306311 0
-0.00803394 -0.351075 0
-0.0130247 -0.216109 0
-0.010355 -0.263358 0
-0.0152814 -0.12145 0
-0.0133226 -0.170288 0
-0.0181935 -0.0242854 0
-0.01664 -0.0738841 0
0.0545263 -0.066145 0
0.0405068 -0.0164179 0
0.0560924 -0.151041 0
0.0417553 -0.101646 0
0.055096 -0.232605 0
0.0415869 -0.185512 0
0.0515097 -0.308239 0
0.0398007 -0.265227 0
0.0455142 -0.375644 0
0.0363372 -0.338217 0
0.0375256 -0.432896 0
0.0313321 -0.402226 0
0.0281604 -0.478485 0
0.0251114 -0.455389 0
0.018144 -0.511329 0
0.0181295 -0.49627 0
0.00818761 -0.530771 0
0.0108678 -0.523879 0
-0.00113693 -0.536577 0
0.00372653 -0.537679 0
-0.00948767 -0.528914 0
-0.00305731 -0.537574 0
-0.0167868 -0.508338 0
-0.0094406 -0.523906 0
-0.0231895 -0.475747 0
-0.0155436 -0.497414 0
-0.0289965 -0.432313 0
-0.0215668 -0.459186 0
-0.0345363 -0.379393 0
-0.0276816 -0.410571 0
-0.0400483 -0.318415 0
-0.0339283 -0.353072 0
-0.0456027 -0.250779 0
-0.0401561 -0.288222 0
-0.0510781 -0.17778 0
-0.0460279 -0.217488 0
-0.056207 -0.100587 0
-0.0510948 -0.142199 0
-0.0606747 -0.0202748 0
-0.0549248 -0.0635378 0
0.0655594 -0.0291386 0
0.0535929 -0.0042687 0
0.0665171 -0.0680826 0
0.0534534 -0.0421206 0
0.0654779 -0.10647 0
0.0525697 -0.0809643 0
0.0622365 -0.14257 0
0.0505806 -0.118939 0
0.0567436 -0.174848 0
0.0472068 -0.154293 0
0.0491599 -0.202037 0
0.0423286 -0.185482 0
0.039852 -0.223194 0
0.0360091 -0.211246 0
0.0293323 -0.237721 0
0.0284641 -0.230661 0
0.0181609 -0.245367 0
0.0199938 -0.243169 0
0.00684048 -0.246211 0
0.0109008 -0.248576 0
-0.00426605 -0.240621 0
0.00142445 -0.247041 0
-0.0149722 -0.229202 0
-0.00828777 -0.239026 0
-0.0252487 -0.212716 0
-0.0181617 -0.225238 0
-0.0351559 -0.191991 0
-0.0281369 -0.206535 0
-0.0447494 -0.167813 0
-0.0380877 -0.183823 0
-0.0539883 -0.140825 0
-0.0477531 -0.157934 0
-0.0626778 -0.111447 0
-0.0567034 -0.129526 0
-0.0704663 -0.0798365 0
-0.0643633 -0.0990042 0
-0.076906 -0.0459093 0
-0.0700956 -0.0665027 0
-0.081567 -0.009404 0
-0.0733358 -0.0319128 0
0.0529079 0.0163099 0
0.0455725 0.00934576 0
0.0531582 0.0351752 0
0.0444278 0.0302633 0
0.0526825 0.0518008 0
0.0435886 0.0482472 0
0.0510727 0.0665312 0
0.0425323 0.06369 0
0.0480095 0.0796739 0
0.0407764 0.0770008 0
0.0433441 0.0914386 0
0.0379609 0.0885461 0
0.0371218 0.10189 0
0.033889 0.0985868 0
0.0295543 0.110925 0
0.028524 0.10723 0
0.0209528 0.118269 0
0.0219513 0.114404 0
0.0116475 0.12351 0
0.0143239 0.119856 0
0.001919 0.126139 0
0.0058131 0.123184 0
-0.00803637 0.125626 0
-0.00341595 0.123884 0
-0.0180986 0.121503 0
-0.0131968 0.121432 0
-0.0281766 0.113461 0
-0.0233248 0.115378 0
-0.0381397 0.101448 0
-0.0335055 0.105453 0
-0.047751 0.0857467 0
-0.0433125 0.0916708 0
-0.0566306 0.0670195 0
-0.052173 0.0744023 0
-0.0642653 0.04631 0
-0.0593974 0.0544122 0
-0.070073 0.0249918 0
-0.0642524 0.0328374 0
-0.0735205 0.00468877 0
-0.0660689 0.0111175 0
0.0193268 0.055687 0
0.0184272 0.0198433 0
0.0191447 0.125535 0
0.0171507 0.0919162 0
0.01988 0.191197 0
0.0172833 0.160166 0
0.0209288 0.251557 0
0.0181819 0.223424 0
0.0217306 0.305636 0
0.0192444 0.280662 0
0.021851 0.352552 0
0.0199531 0.330994 0
0.021022 0.391479 0
0.0199189 0.373624 0
0.0191403 0.421633 0
0.0188969 0.407821 0
0.0162302 0.442276 0
0.0167734 0.432891 0
0.0123893 0.452738 0
0.0135351 0.448187 0
0.00773784 0.452471 0
0.00923668 0.453134 0
0.00238819 0.441104 0
0.00398008 0.447273 0
-0.00355528 0.418521 0
-0.00208619 0.430339 0
-0.00996754 0.384937 0
-0.00874888 0.40233 0
-0.0166575 0.340969 0
-0.0157024 0.363601 0
-0.0233243 0.287677 0
-0.0225258 0.314924 0
-0.0295341 0.226574 0
-0.0286796 0.257533 0
-0.0347323 0.159591 0
-0.0335308 0.193111 0
-0.0382932 0.0889897 0
-0.0364011 0.12374 0
-0.0396044 0.0172728 0
-0.0366091 0.0517822 0
-0.0246187 0.124148 0
0.0272716 0.0245274 0
-0.0246396 0.26793 0
0.0255274 0.171326 0
-0.0222461 0.404299 0
0.0248225 0.31322 0
-0.0181793 0.530147 0
0.0247942 0.44662 0
-0.0131368 0.642791 0
0.0249584 0.568524 0
-0.00773484 0.739891 0
0.0248302 0.676354 0
-0.00246649 0.819418 0
0.0239935 0.767884 0
0.00231423 0.879635 0
0.0221403 0.841207 0
0.00638043 0.919106 0
0.0190838 0.894715 0
0.00960272 0.936724 0
0.0147549 0.927104 0
0.0119159 0.931769 0
0.00919107 0.93741 0
0.0132954 0.903974 0
0.00252707 0.925056 0
0.013752 0.853606 0
-0.00500796 0.88993 0
0.0133449 0.78154 0
-0.0130867 0.832465 0
0.0122076 0.689318 0
-0.0212791 0.753718 0
0.0105743 0.579165 0
-0.029056 0.655423 0
0.00879364 0.453963 0
-0.0358088 0.540003 0
0.00732291 0.317146 0
-0.0408932 0.410528 0
0.00670247 0.172516 0
-0.0436968 0.270591 0
0.00754231 0.0239195 0
-0.0437425 0.124102 0
-0.0229936 0.131077 0
0.0304944 0.0259255 0
-0.0234094 0.284576 0
0.0286443 0.182188 0
-0.0215725 0.43069 0
0.0276453 0.333721 0
-0.0179518 0.565847 0
0.0272266 0.476659 0
-0.0131429 0.6869 0
0.026991 0.60754 0
-0.00775208 0.791119 0
0.0264997 0.723339 0
-0.00232588 0.876186 0
0.0253421 0.821461 0
0.0026887 0.940188 0
0.023185 0.89973 0
0.00695933 0.981628 0
0.019802 0.956389 0
0.0102659 0.999444 0
0.0150886 0.990098 0
0.0124898 0.993044 0
0.00906572 0.999959 0
0.0136029 0.962347 0
0.00187892 0.985547 0
0.0136627 0.907838 0
-0.00620495 0.946958 0
0.0128146 0.830605 0
-0.0148032 0.884857 0
0.0112966 0.732371 0
-0.0234278 0.800523 0
0.00944127 0.615482 0
-0.0315061 0.695871 0
0.00766565 0.482866 0
-0.0384155 0.573436 0
0.00644345 0.337933 0
-0.0435356 0.436321 0
0.00625515 0.184431 0
-0.0463181 0.288082 0
0.00750464 0.0262692 0
-0.0463723 0.132567 0
-0.0202233 0.120734 0
0.0280832 0.0238177 0
-0.0207912 0.263568 0
0.0265367 0.168852 0
-0.0192642 0.39982 0
0.0257236 0.309868 0
-0.0160062 0.525998 0
0.0254245 0.443142 0
-0.0115291 0.638994 0
0.0253037 0.565278 0
-0.00640209 0.736125 0
0.0249689 0.67329 0
-0.00117834 0.815154 0
0.0240306 0.764632 0
0.00365699 0.874287 0
0.0221526 0.837213 0
0.00771959 0.912181 0
0.0190901 0.889392 0
0.0107422 0.927951 0
0.0147144 0.919985 0
0.0125796 0.921182 0
0.00902698 0.928269 0
0.0132071 0.891945 0
0.00216381 0.913989 0
0.0127163 0.840825 0
-0.00560732 0.877387 0
0.0113099 0.768929 0
-0.0138974 0.819212 0
0.00929252 0.677892 0
-0.0222151 0.740744 0
0.00705511 0.56986 0
-0.0299971 0.643786 0
0.00504842 0.44744 0
-0.0366496 0.530647 0
0.00374216 0.313622 0
-0.0416018 0.404082 0
0.00356789 0.171681 0
-0.0443685 0.267203 0
0.0048436 0.0250646 0
-0.0446145 0.123374 0
-0.0162275 0.0945854 0
0.0208813 0.0184917 0
-0.016685 0.207876 0
0.0199801 0.133197 0
-0.0153008 0.316125 0
0.0197283 0.245041 0
-0.0123725 0.416381 0
0.0199472 0.350885 0
-0.00834 0.506033 0
0.0203548 0.447863 0
-0.00371816 0.582858 0
0.0206075 0.533468 0
0.000968502 0.645045 0
0.0203482 0.605595 0
0.00524096 0.691204 0
0.0192541 0.662566 0
0.00870723 0.72035 0
0.0170759 0.70312 0
0.0110899 0.731904 0
0.0136685 0.726409 0
0.0122411 0.725675 0
0.00900999 0.731986 0
0.0121472 0.70186 0
0.00320958 0.719792 0
0.0109257 0.661037 0
-0.00349412 0.690155 0
0.00881482 0.604155 0
-0.0107455 0.643778 0
0.00615547 0.53253 0
-0.018095 0.581742 0
0.00336513 0.447813 0
-0.025032 0.505485 0
0.000901618 0.351959 0
-0.0310284 0.416776 0
-0.00078292 0.247169 0
-0.0355881 0.317677 0
-0.00129642 0.135831 0
-0.0382987 0.210476 0
-0.000366165 0.0204618 0
-0.0388781 0.0976295 0
-0.0110417 0.0562286 0
0.0103959 0.0106798 0
-0.011178 0.125169 0
0.0103526 0.0801293 0
-0.00983435 0.191143 0
0.0108828 0.14817 0
-0.00725083 0.252119 0
0.0118508 0.212615 0
-0.00379376 0.306344 0
0.0130313 0.271497 0
9.26113e-05 0.352385 0
0.0141357 0.32314 0
0.00394099 0.389146 0
0.0148499 0.366201 0
0.00731363 0.415862 0
0.0148767 0.399681 0
0.00984652 0.432081 0
0.0139742 0.42291 0
0.0112822 0.437629 0
0.0119869 0.435523 0
0.0114902 0.432582 0
0.00886713 0.437433 0
0.0104751 0.417237 0
0.0046851 0.428795 0
0.00837421 0.392084 0
-0.000371787 0.409979 0
0.00544432 0.357784 0
-0.00601115 0.381542 0
0.00203877 0.31515 0
-0.0118585 0.344213 0
-0.00142448 0.265122 0
-0.0174902 0.298865 0
-0.00450305 0.208747 0
-0.0224737 0.246497 0
-0.00677602 0.147151 0
-0.0264112 0.188212 0
-0.00789136 0.0815175 0
-0.0289801 0.125181 0
-0.00760942 0.0130748 0
-0.0299621 0.0586237 0
-0.00486176 0.0108983 0
-0.00145172 0.00145524 0
-0.00455355 0.026736 0
-0.000591046 0.0169064 0
-0.00322258 0.0419332 0
0.000750656 0.0324945 0
-0.00104606 0.0556205 0
0.00249523 0.0472192 0
0.0016925 0.0671361 0
0.00448439 0.0602492 0
0.00463548 0.0760508 0
0.00649309 0.0709707 0
0.00739562 0.0821657 0
0.00826008 0.0790062 0
0.00960336 0.0854902 0
0.00952467 0.0842078 0
0.0109497 0.0862022 0
0.0100622 0.0866288 0
0.0112201 0.0845991 0
0.00971358 0.0864816 0
0.0103165 0.0810452 0
0.00840628 0.0840869 0
0.00826691 0.0759213 0
0.00616534 0.0798212 0
0.00522348 0.0695809 0
0.00311364 0.0740681 0
0.00144768 0.0623166 0
-0.000538469 0.0671775 0
-0.00271433 0.0543357 0
-0.00451373 0.0594341 0
-0.00686573 0.0457462 0
-0.0084976 0.051037 0
-0.0105996 0.0365515 0
-0.0121741 0.0420869 0
-0.0135421 0.0266513 0
-0.0152634 0.0325822 0
-0.0153913 0.0158529 0
-0.017553 0.0224211 0
-0.0159452 0.00389559 0
-0.0189113 0.0114116 0
0.00194505 -0.0352446 0
-0.0126155 -0.00791602 0
0.00270995 -0.0740462 0
-0.0109924 -0.0478546 0
0.00397384 -0.111242 0
-0.00901653 -0.0862422 0
0.00563806 -0.146456 0
-0.00667946 -0.12282 0
0.00751515 -0.179174 0
-0.00405958 -0.157199 0
0.00934767 -0.20875 0
-0.00131131 -0.18885 0
0.0108444 -0.234428 0
0.00136384 -0.217117 0
0.011722 -0.255385 0
0.00375053 -0.241241 0
0.011745 -0.270787 0
0.00565078 -0.260407 0
0.0107565 -0.279855 0
0.00690999 -0.273808 0
0.00870072 -0.281941 0
0.00743564 -0.280708 0
0.00563134 -0.276591 0
0.0072077 -0.280514 0
0.00170963 -0.263605 0
0.00628012 -0.272846 0
-0.00281007 -0.243077 0
0.00477319 -0.25758 0
-0.00760502 -0.215418 0
0.00285704 -0.234892 0
-0.0123174 -0.181358 0
0.000727281 -0.205274 0
-0.0165933 -0.141935 0
-0.00142566 -0.16953 0
-0.0201225 -0.0984682 0
-0.00345007 -0.128762 0
-0.0226712 -0.0525169 0
-0.0052622 -0.0843369 0
-0.0240958 -0.00583894 0
-0.00685452 -0.0378492 0
0.00886523 -0.0759349 0
-0.0212066 -0.0161491 0
0.00997244 -0.163518 0
-0.0191683 -0.105335 0
0.0110288 -0.247657 0
-0.0169368 -0.191918 0
0.0120423 -0.326798 0
-0.0143774 -0.274464 0
0.0129337 -0.399328 0
-0.011485 -0.351431 0
0.0135522 -0.463602 0
-0.00834555 -0.42122 0
0.0137093 -0.517985 0
-0.00509961 -0.482212 0
0.0132166 -0.56091 0
-0.00191122 -0.532815 0
0.0119205 -0.590946 0
0.00105728 -0.571519 0
0.00972989 -0.606883 0
0.00366539 -0.596975 0
0.00663424 -0.607818 0
0.00580902 -0.608075 0
0.00271154 -0.593238 0
0.00742922 -0.604037 0
-0.00187452 -0.563079 0
0.00851449 -0.584483 0
-0.00688782 -0.51778 0
0.00909666 -0.549497 0
-0.0120424 -0.458295 0
0.00924013 -0.499665 0
-0.0170331 -0.386089 0
0.00902462 -0.436086 0
-0.0215717 -0.3031 0
0.00852121 -0.360356 0
-0.0254256 -0.211687 0
0.00776105 -0.274529 0
-0.0284499 -0.114575 0
0.00669616 -0.181055 0
-0.0305986 -0.0148141 0
0.00516031 -0.0827237 0
0.0153094 -0.105615 0
-0.0257047 -0.0221169 0
0.0164956 -0.229565 0
-0.0238679 -0.147677 0
0.0171179 -0.348913 0
-0.0219329 -0.270197 0
0.0173274 -0.461126 0
-0.0196421 -0.387226 0
0.0171525 -0.563709 0
-0.0169432 -0.496262 0
0.016541 -0.654237 0
-0.0138751 -0.594847 0
0.0154016 -0.7304 0
-0.0105234 -0.680611 0
0.0136388 -0.790056 0
-0.00699771 -0.751318 0
0.0111814 -0.831322 0
-0.00341591 -0.804924 0
0.0080036 -0.852658 0
0.00010664 -0.839667 0
0.0041381 -0.852967 0
0.00346576 -0.854155 0
-0.000318306 -0.831684 0
0.0065742 -0.84746 0
-0.00520811 -0.788848 0
0.00936463 -0.819204 0
-0.0103242 -0.725148 0
0.0117894 -0.769621 0
-0.0154285 -0.641936 0
0.0138172 -0.699598 0
-0.0202773 -0.541209 0
0.0154254 -0.61068 0
-0.024653 -0.425551 0
0.0165874 -0.505039 0
-0.0284021 -0.298042 0
0.017249 -0.385413 0
-0.0314797 -0.162172 0
0.0172796 -0.255004 0
-0.0339918 -0.0218155 0
0.0163382 -0.117388 0
0.0207406 -0.120084 0
-0.025005 -0.025005 0
0.0215172 -0.26323 0
-0.0245371 -0.168949 0
0.0213983 -0.401428 0
-0.0235274 -0.310447 0
0.0206704 -0.531464 0
-0.0219922 -0.445949 0
0.0194251 -0.65032 0
-0.019953 -0.572278 0
0.0176775 -0.755133 0
-0.0174389 -0.68647 0
0.0154152 -0.843217 0
-0.0144885 -0.78573 0
0.012625 -0.912119 0
-0.0111526 -0.867465 0
0.00931088 -0.959703 0
-0.00749534 -0.929339 0
0.00550611 -0.984246 0
-0.00359457 -0.96936 0
0.00127969 -0.984542 0
0.000458801 -0.985978 0
-0.00326179 -0.95999 0
0.00456275 -0.97818 0
-0.00797756 -0.910674 0
0.00860728 -0.945579 0
-0.0127008 -0.83741 0
0.0124785 -0.888483 0
-0.0172511 -0.741751 0
0.0160632 -0.807931 0
-0.0214515 -0.625966 0
0.0192538 -0.705695 0
-0.0251501 -0.492958 0
0.0219531 -0.584242 0
-0.0282514 -0.34614 0
0.0240787 -0.446651 0
-0.0307729 -0.189229 0
0.0255668 -0.296471 0
-0.0329827 -0.0258935 0
0.0263749 -0.137519 0
