# vtk DataFile Version 3.0
tp3485 cell-vector
ASCII
DATASET UNSTRUCTURED_GRID
POINTS 121 double
0 0 0
0.125 0 0
0.114193 0.0508421 0
0.0836413 0.0928931 0
0.0386271 0.118882 0
-0.0130661 0.124315 0
-0.0625 0.108253 0
-0.101127 0.0734732 0
-0.122268 0.025989 0
-0.122268 -0.025989 0
-0.101127 -0.0734732 0
-0.0625 -0.108253 0
-0.0130661 -0.124315 0
0.0386271 -0.118882 0
0.0836413 -0.0928931 0
0.114193 -0.0508421 0
0.25 0 0
0.228386 0.101684 0
0.167283 0.185786 0
0.0772542 0.237764 0
-0.0261321 0.24863 0
-0.125 0.216506 0
-0.202254 0.146946 0
-0.244537 0.0519779 0
-0.244537 -0.0519779 0
-0.202254 -0.146946 0
-0.125 -0.216506 0
-0.0261321 -0.24863 0
0.0772542 -0.237764 0
0.167283 -0.185786 0
0.228386 -0.101684 0
0.375 0 0
0.34258 0.152526 0
0.250924 0.278679 0
0.115881 0.356646 0
-0.0391982 0.372946 0
-0.1875 0.32476 0
-0.303381 0.220419 0
-0.366805 0.0779669 0
-0.366805 -0.0779669 0
-0.303381 -0.220419 0
-0.1875 -0.32476 0
-0.0391982 -0.372946 0
0.115881 -0.356646 0
0.250924 -0.278679 0
0.34258 -0.152526 0
0.5 0 0
0.456773 0.203368 0
0.334565 0.371572 0
0.154508 0.475528 0
-0.0522642 0.497261 0
-0.25 0.433013 0
-0.404508 0.293893 0
-0.489074 0.103956 0
-0.489074 -0.103956 0
-0.404508 -0.293893 0
-0.25 -0.433013 0
-0.0522642 -0.497261 0
0.154508 -0.475528 0
0.334565 -0.371572 0
0.456773 -0.203368 0
0.625 0 0
0.570966 0.25421 0
0.418207 0.464466 0
0.193136 0.59441 0
-0.0653303 0.621576 0
-0.3125 0.541266 0
-0.505636 0.367366 0
-0.611342 0.129945 0
-0.611342 -0.129945 0
-0.505636 -0.367366 0
-0.3125 -0.541266 0
-0.0653303 -0.621576 0
0.193136 -0.59441 0
0.418207 -0.464466 0
0.570966 -0.25421 0
0.75 0 0
0.685159 0.305052 0
0.501848 0.557359 0
0.231763 0.713292 0
-0.0783963 0.745891 0
-0.375 0.649519 0
-0.606763 0.440839 0
-0.733611 0.155934 0
-0.733611 -0.155934 0
-0.606763 -0.440839 0
-0.375 -0.649519 0
-0.0783963 -0.745891 0
0.231763 -0.713292 0
0.501848 -0.557359 0
0.685159 -0.305052 0
0.875 0 0
0.799352 0.355895 0
0.585489 0.650252 0
0.27039 0.832174 0
-0.0914624 0.870207 0
-0.4375 0.757772 0
-0.70789 0.514312 0
-0.855879 0.181923 0
-0.855879 -0.181923 0
-0.70789 -0.514312 0
-0.4375 -0.757772 0
-0.0914624 -0.870207 0
0.27039 -0.832174 0
0.585489 -0.650252 0
0.799352 -0.355895 0
1 0 0
0.913545 0.406737 0
0.669131 0.743145 0
0.309017 0.951057 0
-0.104528 0.994522 0
-0.5 0.866025 0
-0.809017 0.587785 0
-0.978148 0.207912 0
-0.978148 -0.207912 0
-0.809017 -0.587785 0
-0.5 -0.866025 0
-0.104528 -0.994522 0
0.309017 -0.951057 0
0.669131 -0.743145 0
0.913545 -0.406737 0
CELLS 225 900
3 0 1 2
3 0 2 3
3 0 3 4
3 0 4 5
3 0 5 6
3 0 6 7
3 0 7 8
3 0 8 9
3 0 9 10
3 0 10 11
3 0 11 12
3 0 12 13
3 0 13 14
3 0 14 15
3 0 15 1
3 1 16 17
3 1 17 2
3 2 17 18
3 2 18 3
3 3 18 19
3 3 19 4
3 4 19 20
3 4 20 5
3 5 20 21
3 5 21 6
3 6 21 22
3 6 22 7
3 7 22 23
3 7 23 8
3 8 23 24
3 8 24 9
3 9 24 25
3 9 25 10
3 10 25 26
3 10 26 11
3 11 26 27
3 11 27 12
3 12 27 28
3 12 28 13
3 13 28 29
3 13 29 14
3 14 29 30
3 14 30 15
3 15 30 16
3 15 16 1
3 16 31 32
3 16 32 17
3 17 32 33
3 17 33 18
3 18 33 34
3 18 34 19
3 19 34 35
3 19 35 20
3 20 35 36
3 20 36 21
3 21 36 37
3 21 37 22
3 22 37 38
3 22 38 23
3 23 38 39
3 23 39 24
3 24 39 40
3 24 40 25
3 25 40 41
3 25 41 26
3 26 41 42
3 26 42 27
3 27 42 43
3 27 43 28
3 28 43 44
3 28 44 29
3 29 44 45
3 29 45 30
3 30 45 31
3 30 31 16
3 31 46 47
3 31 47 32
3 32 47 48
3 32 48 33
3 33 48 49
3 33 49 34
3 34 49 50
3 34 50 35
3 35 50 51
3 35 51 36
3 36 51 52
3 36 52 37
3 37 52 53
3 37 53 38
3 38 53 54
3 38 54 39
3 39 54 55
3 39 55 40
3 40 55 56
3 40 56 41
3 41 56 57
3 41 57 42
3 42 57 58
3 42 58 43
3 43 58 59
3 43 59 44
3 44 59 60
3 44 60 45
3 45 60 46
3 45 46 31
3 46 61 62
3 46 62 47
3 47 62 63
3 47 63 48
3 48 63 64
3 48 64 49
3 49 64 65
3 49 65 50
3 50 65 66
3 50 66 51
3 51 66 67
3 51 67 52
3 52 67 68
3 52 68 53
3 53 68 69
3 53 69 54
3 54 69 70
3 54 70 55
3 55 70 71
3 55 71 56
3 56 71 72
3 56 72 57
3 57 72 73
3 57 73 58
3 58 73 74
3 58 74 59
3 59 74 75
3 59 75 60
3 60 75 61
3 60 61 46
3 61 76 77
3 61 77 62
3 62 77 78
3 62 78 63
3 63 78 79
3 63 79 64
3 64 79 80
3 64 80 65
3 65 80 81
3 65 81 66
3 66 81 82
3 66 82 67
3 67 82 83
3 67 83 68
3 68 83 84
3 68 84 69
3 69 84 85
3 69 85 70
3 70 85 86
3 70 86 71
3 71 86 87
3 71 87 72
3 72 87 88
3 72 88 73
3 73 88 89
3 73 89 74
3 74 89 90
3 74 90 75
3 75 90 76
3 75 76 61
3 76 91 92
3 76 92 77
3 77 92 93
3 77 93 78
3 78 93 94
3 78 94 79
3 79 94 95
3 79 95 80
3 80 95 96
3 80 96 81
3 81 96 97
3 81 97 82
3 82 97 98
3 82 98 83
3 83 98 99
3 83 99 84
3 84 99 100
3 84 100 85
3 85 100 101
3 85 101 86
3 86 101 102
3 86 102 87
3 87 102 103
3 87 103 88
3 88 103 104
3 88 104 89
3 89 104 105
3 89 105 90
3 90 105 91
3 90 91 76
3 91 106 107
3 91 107 92
3 92 107 108
3 92 108 93
3 93 108 109
3 93 109 94
3 94 109 110
3 94 110 95
3 95 110 111
3 95 111 96
3 96 111 112
3 96 112 97
3 97 112 113
3 97 113 98
3 98 113 114
3 98 114 99
3 99 114 115
3 99 115 100
3 100 115 116
3 100 116 101
3 101 116 117
3 101 117 102
3 102 117 118
3 102 118 103
3 103 118 119
3 103 119 104
3 104 119 120
3 104 120 105
3 105 120 106
3 105 106 91
CELL_TYPES 225
5
5
5
5
5
5
5
5
5
5
5
5
5
5
5
5
5
5
5
5
5
5
5
5
5
5
5
5
5
5
5
5
5
5
5
5
5
5
5
5
5
5
5
5
5
5
5
5
5
5
5
5
5
5
5
5
5
5
5
5
5
5
5
5
5
5
5
5
5
5
5
5
5
5
5
5
5
5
5
5
5
5
5
5
5
5
5
5
5
5
5
5
5
5
5
5
5
5
5
5
5
5
5
5
5
5
5
5
5
5
5
5
5
5
5
5
5
5
5
5
5
5
5
5
5
5
5
5
5
5
5
5
5
5
5
5
5
5
5
5
5
5
5
5
5
5
5
5
5
5
5
5
5
5
5
5
5
5
5
5
5
5
5
5
5
5
5
5
5
5
5
5
5
5
5
5
5
5
5
5
5
5
5
5
5
5
5
5
5
5
5
5
5
5
5
5
5
5
5
5
5
5
5
5
5
5
5
5
5
5
5
5
5
5
5
5
5
5
5
5
5
5
5
5
5
CELL_DATA 225
VECTORS Ht double
-0.0360702 -0.0465612 0
-0.0954776 0.0889519 0
-0.0867333 0.0841824 0
0.0598598 0.0371601 0
0.145051 0.0441544 0
0.0583582 -0.00795714 0
-0.0292958 -0.127162 0
-0.0295374 -0.117204 0
-0.0621115 0.03326 0
-0.110765 0.103541 0
-0.022288 0.0545183 0
0.124773 0.0382101 0
0.116271 0.0330221 0
0.0022517 -0.0704201 0
-0.0342868 -0.147695 0
-0.187499 -0.158693 0
-0.258644 -0.0935716 0
-0.363329 0.175919 0
-0.0802973 0.0818364 0
-0.241829 0.253517 0
0.0376216 0.280842 0
0.173582 0.234639 0
0.0651897 0.172934 0
0.389237 0.18619 0
0.176867 -0.101852 0
0.231181 -0.0830324 0
0.210357 -0.177207 0
0.0293142 -0.402611 0
-0.0307238 -0.110458 0
-0.0986375 -0.336188 0
-0.262027 -0.10784 0
-0.289995 0.0330072 0
-0.18236 -0.0300112 0
-0.355864 0.243994 0
-0.000227141 0.204097 0
-0.0436825 0.241725 0
0.0482867 0.270778 0
0.334015 0.226692 0
0.111021 0.0286213 0
0.340466 0.0826714 0
0.224405 -0.173002 0
0.116412 -0.267646 0
0.117171 -0.142923 0
-0.0333727 -0.430184 0
-0.17664 -0.102245 0
-0.411359 -0.286045 0
-0.549795 -0.227803 0
-0.667285 0.176029 0
-0.244498 0.188133 0
-0.35832 0.428747 0
0.0132572 0.605767 0
0.267231 0.530101 0
0.158621 0.401161 0
0.576008 0.345867 0
0.430016 -0.148819 0
0.453402 -0.213225 0
0.472181 -0.362235 0
0.181197 -0.6659 0
-0.0406795 -0.305808 0
-0.192146 -0.524688 0
-0.531238 -0.291402 0
-0.592696 -0.0336222 0
-0.426726 -0.0632112 0
-0.587534 0.325904 0
-0.0861271 0.446815 0
-0.0420424 0.49927 0
0.0776139 0.590038 0
0.486088 0.489871 0
0.285177 0.117675 0
0.550466 0.0959403 0
0.517981 -0.314365 0
0.325466 -0.496479 0
0.268106 -0.33795 0
0.0115262 -0.671771 0
-0.343889 -0.297996 0
-0.632494 -0.355625 0
-0.81038 -0.340857 0
-0.833739 0.0394012 0
-0.397392 0.200653 0
-0.321695 0.520658 0
0.0141363 0.843702 0
0.27465 0.806322 0
0.210916 0.640966 0
0.554557 0.41497 0
0.575493 -0.160142 0
0.624228 -0.369944 0
0.700381 -0.531382 0
0.382747 -0.74174 0
0.0249253 -0.444478 0
-0.290055 -0.538925 0
-0.737735 -0.409608 0
-0.83562 -0.165307 0
-0.660551 -0.137825 0
-0.636653 0.272776 0
-0.149059 0.578462 0
0.00826667 0.725569 0
0.11 0.872238 0
0.450992 0.702338 0
0.372467 0.243825 0
0.61175 0.0182671 0
0.723599 -0.434093 0
0.56097 -0.641015 0
0.449635 -0.503141 0
0.0820956 -0.687745 0
-0.426433 -0.41832 0
-0.773806 -0.309198 0
-0.934913 -0.354878 0
-0.758639 -0.223502 0
-0.437448 0.0487148 0
-0.0841476 0.465049 0
0.102623 0.849775 0
0.177122 0.954746 0
0.173239 0.798072 0
0.261907 0.334931 0
0.460032 -0.150733 0
0.654676 -0.515537 0
0.77479 -0.632219 0
0.572878 -0.54525 0
0.176536 -0.403198 0
-0.360671 -0.305399 0
-0.787239 -0.336013 0
-0.915395 -0.323981 0
-0.777771 -0.249007 0
-0.421012 0.0593523 0
-0.0994773 0.473766 0
0.11913 0.824734 0
0.160123 0.987097 0
0.185761 0.768752 0
0.260912 0.354483 0
0.444818 -0.159651 0
0.684615 -0.513762 0
0.738273 -0.630765 0
0.604532 -0.549066 0
0.159106 -0.394283 0
-0.360554 -0.323033 0
-0.764468 -0.134473 0
-0.857052 -0.226116 0
-0.456692 -0.52453 0
-0.298025 -0.230544 0
0.285601 0.247138 0
0.295131 0.583133 0
0.014911 0.901695 0
0.0481348 0.779167 0
-0.225692 0.135237 0
0.0671834 -0.157498 0
0.498691 -0.594812 0
0.624349 -0.629171 0
0.682602 -0.133242 0
0.34867 -0.142825 0
-0.356828 0.123769 0
-0.652573 -0.0359756 0
-0.788347 -0.437934 0
-0.698846 -0.347898 0
-0.00427248 -0.263074 0
0.102805 0.136931 0
0.265777 0.729285 0
0.232704 0.855287 0
-0.22591 0.657772 0
-0.050645 0.373369 0
0.0712269 -0.370907 0
0.357442 -0.547157 0
0.773436 -0.463761 0
0.650711 -0.431269 0
0.229965 0.127837 0
-0.169989 0.0205663 0
-0.558483 0.114729 0
-0.578886 0.022258 0
-0.0620634 -0.718553 0
0.0169323 -0.489758 0
0.604545 -0.0830329 0
0.536565 0.143041 0
-0.13026 0.632016 0
-0.108302 0.53077 0
-0.698644 -0.0696114 0
-0.447303 -0.22201 0
0.179883 -0.541025 0
0.270167 -0.512459 0
0.653317 0.305528 0
0.415677 0.259543 0
-0.230364 0.565067 0
-0.39216 0.393159 0
-0.482212 -0.428817 0
-0.405509 -0.359177 0
0.409607 -0.570238 0
0.415917 -0.276371 0
0.3786 0.426296 0
0.308719 0.490201 0
-0.591253 0.413025 0
-0.432609 0.230215 0
-0.374181 -0.482035 0
-0.144406 -0.5362 0
0.612472 -0.203199 0
0.513812 -0.171593 0
0.289037 0.639849 0
0.0313857 0.498381 0
-0.164131 0.32356 0
-0.184831 0.288737 0
0.232603 -0.664886 0
0.412333 -0.537775 0
0.648742 -0.411456 0
0.706238 -0.255825 0
-0.180037 0.202808 0
-0.212498 0.0865115 0
-0.892495 -0.137543 0
-0.804404 -0.358229 0
-0.198146 -0.303922 0
-0.157638 -0.304436 0
0.459507 0.533883 0
0.259561 0.625979 0
0.0319604 0.767556 0
-0.131568 0.739532 0
-0.0856187 -0.25732 0
0.0313279 -0.227285 0
0.565363 -0.704152 0
0.712438 -0.51752 0
0.362277 -0.0196385 0
0.342469 0.0156996 0
-0.69211 0.131003 0
-0.671894 -0.0882032 0
-0.680703 -0.356099 0
-0.57467 -0.483707 0
0.265655 0.0545122 0
0.18117 0.140773 0
0.327132 0.841695 0
0.0919664 0.875749 0
