# vtk DataFile Version 3.0
tp3485 cell-vector
ASCII
DATASET UNSTRUCTURED_GRID
POINTS 121 double
0 0 0
0.125 0 0
0.114193 0.0508421 0
0.0836413 0.0928931 0
0.0386271 0.118882 0
-0.0130661 0.124315 0
-0.0625 0.108253 0
-0.101127 0.0734732 0
-0.122268 0.025989 0
-0.122268 -0.025989 0
-0.101127 -0.0734732 0
-0.0625 -0.108253 0
-0.0130661 -0.124315 0
0.0386271 -0.118882 0
0.0836413 -0.0928931 0
0.114193 -0.0508421 0
0.25 0 0
0.228386 0.101684 0
0.167283 0.185786 0
0.0772542 0.237764 0
-0.0261321 0.24863 0
-0.125 0.216506 0
-0.202254 0.146946 0
-0.244537 0.0519779 0
-0.244537 -0.0519779 0
-0.202254 -0.146946 0
-0.125 -0.216506 0
-0.0261321 -0.24863 0
0.0772542 -0.237764 0
0.167283 -0.185786 0
0.228386 -0.101684 0
0.375 0 0
0.34258 0.152526 0
0.250924 0.278679 0
0.115881 0.356646 0
-0.0391982 0.372946 0
-0.1875 0.32476 0
-0.303381 0.220419 0
-0.366805 0.0779669 0
-0.366805 -0.0779669 0
-0.303381 -0.220419 0
-0.1875 -0.32476 0
-0.0391982 -0.372946 0
0.115881 -0.356646 0
0.250924 -0.278679 0
0.34258 -0.152526 0
0.5 0 0
0.456773 0.203368 0
0.334565 0.371572 0
0.154508 0.475528 0
-0.0522642 0.497261 0
-0.25 0.433013 0
-0.404508 0.293893 0
-0.489074 0.103956 0
-0.489074 -0.103956 0
-0.404508 -0.293893 0
-0.25 -0.433013 0
-0.0522642 -0.497261 0
0.154508 -0.475528 0
0.334565 -0.371572 0
0.456773 -0.203368 0
0.625 0 0
0.570966 0.25421 0
0.418207 0.464466 0
0.193136 0.59441 0
-0.0653303 0.621576 0
-0.3125 0.541266 0
-0.505636 0.367366 0
-0.611342 0.129945 0
-0.611342 -0.129945 0
-0.505636 -0.367366 0
-0.3125 -0.541266 0
-0.0653303 -0.621576 0
0.193136 -0.59441 0
0.418207 -0.464466 0
0.570966 -0.25421 0
0.75 0 0
0.685159 0.305052 0
0.501848 0.557359 0
0.231763 0.713292 0
-0.0783963 0.745891 0
-0.375 0.649519 0
-0.606763 0.440839 0
-0.733611 0.155934 0
-0.733611 -0.155934 0
-0.606763 -0.440839 0
-0.375 -0.649519 0
-0.0783963 -0.745891 0
0.231763 -0.713292 0
0.501848 -0.557359 0
0.685159 -0.305052 0
0.875 0 0
0.799352 0.355895 0
0.585489 0.650252 0
0.27039 0.832174 0
-0.0914624 0.870207 0
-0.4375 0.757772 0
-0.70789 0.514312 0
-0.855879 0.181923 0
-0.855879 -0.181923 0
-0.70789 -0.514312 0
-0.4375 -0.757772 0
-0.0914624 -0.870207 0
0.27039 -0.832174 0
0.585489 -0.650252 0
0.799352 -0.355895 0
1 0 0
0.913545 0.406737 0
0.669131 0.743145 0
0.309017 0.951057 0
-0.104528 0.994522 0
-0.5 0.866025 0
-0.809017 0.587785 0
-0.978148 0.207912 0
-0.978148 -0.207912 0
-0.809017 -0.587785 0
-0.5 -0.866025 0
-0.104528 -0.994522 0
0.309017 -0.951057 0
0.669131 -0.743145 0
0.913545 -0.406737 0
CELLS 225 900
3 0 1 2
3 0 2 3
3 0 3 4
3 0 4 5
3 0 5 6
3 0 6 7
3 0 7 8
3 0 8 9
3 0 9 10
3 0 10 11
3 0 11 12
3 0 12 13
3 0 13 14
3 0 14 15
3 0 15 1
3 1 16 17
3 1 17 2
3 2 17 18
3 2 18 3
3 3 18 19
3 3 19 4
3 4 19 20
3 4 20 5
3 5 20 21
3 5 21 6
3 6 21 22
3 6 22 7
3 7 22 23
3 7 23 8
3 8 23 24
3 8 24 9
3 9 24 25
3 9 25 10
3 10 25 26
3 10 26 11
3 11 26 27
3 11 27 12
3 12 27 28
3 12 28 13
3 13 28 29
3 13 29 14
3 14 29 30
3 14 30 15
3 15 30 16
3 15 16 1
3 16 31 32
3 16 32 17
3 17 32 33
3 17 33 18
3 18 33 34
3 18 34 19
3 19 34 35
3 19 35 20
3 20 35 36
3 20 36 21
3 21 36 37
3 21 37 22
3 22 37 38
3 22 38 23
3 23 38 39
3 23 39 24
3 24 39 40
3 24 40 25
3 25 40 41
3 25 41 26
3 26 41 42
3 26 42 27
3 27 42 43
3 27 43 28
3 28 43 44
3 28 44 29
3 29 44 45
3 29 45 30
3 30 45 31
3 30 31 16
3 31 46 47
3 31 47 32
3 32 47 48
3 32 48 33
3 33 48 49
3 33 49 34
3 34 49 50
3 34 50 35
3 35 50 51
3 35 51 36
3 36 51 52
3 36 52 37
3 37 52 53
3 37 53 38
3 38 53 54
3 38 54 39
3 39 54 55
3 39 55 40
3 40 55 56
3 40 56 41
3 41 56 57
3 41 57 42
3 42 57 58
3 42 58 43
3 43 58 59
3 43 59 44
3 44 59 60
3 44 60 45
3 45 60 46
3 45 46 31
3 46 61 62
3 46 62 47
3 47 62 63
3 47 63 48
3 48 63 64
3 48 64 49
3 49 64 65
3 49 65 50
3 50 65 66
3 50 66 51
3 51 66 67
3 51 67 52
3 52 67 68
3 52 68 53
3 53 68 69
3 53 69 54
3 54 69 70
3 54 70 55
3 55 70 71
3 55 71 56
3 56 71 72
3 56 72 57
3 57 72 73
3 57 73 58
3 58 73 74
3 58 74 59
3 59 74 75
3 59 75 60
3 60 75 61
3 60 61 46
3 61 76 77
3 61 77 62
3 62 77 78
3 62 78 63
3 63 78 79
3 63 79 64
3 64 79 80
3 64 80 65
3 65 80 81
3 65 81 66
3 66 81 82
3 66 82 67
3 67 82 83
3 67 83 68
3 68 83 84
3 68 84 69
3 69 84 85
3 69 85 70
3 70 85 86
3 70 86 71
3 71 86 87
3 71 87 72
3 72 87 88
3 72 88 73
3 73 88 89
3 73 89 74
3 74 89 90
3 74 90 75
3 75 90 76
3 75 76 61
3 76 91 92
3 76 92 77
3 77 92 93
3 77 93 78
3 78 93 94
3 78 94 79
3 79 94 95
3 79 95 80
3 80 95 96
3 80 96 81
3 81 96 97
3 81 97 82
3 82 97 98
3 82 98 83
3 83 98 99
3 83 99 84
3 84 99 100
3 84 100 85
3 85 100 101
3 85 101 86
3 86 101 102
3 86 102 87
3 87 102 103
3 87 103 88
3 88 103 104
3 88 104 89
3 89 104 105
3 89 105 90
3 90 105 91
3 90 91 76
3 91 106 107
3 91 107 92
3 92 107 108
3 92 108 93
3 93 108 109
3 93 109 94
3 94 109 110
3 94 110 95
3 95 110 111
3 95 111 96
3 96 111 112
3 96 112 97
3 97 112 113
3 97 113 98
3 98 113 114
3 98 114 99
3 99 114 115
3 99 115 100
3 100 115 116
3 100 116 101
3 101 116 117
3 101 117 102
3 102 117 118
3 102 118 103
3 103 118 119
3 103 119 104
3 104 119 120
3 104 120 105
3 105 120 106
3 105 106 91
CELL_TYPES 225
5
5
5
5
5
5
5
5
5
5
5
5
5
5
5
5
5
5
5
5
5
5
5
5
5
5
5
5
5
5
5
5
5
5
5
5
5
5
5
5
5
5
5
5
5
5
5
5
5
5
5
5
5
5
5
5
5
5
5
5
5
5
5
5
5
5
5
5
5
5
5
5
5
5
5
5
5
5
5
5
5
5
5
5
5
5
5
5
5
5
5
5
5
5
5
5
5
5
5
5
5
5
5
5
5
5
5
5
5
5
5
5
5
5
5
5
5
5
5
5
5
5
5
5
5
5
5
5
5
5
5
5
5
5
5
5
5
5
5
5
5
5
5
5
5
5
5
5
5
5
5
5
5
5
5
5
5
5
5
5
5
5
5
5
5
5
5
5
5
5
5
5
5
5
5
5
5
5
5
5
5
5
5
5
5
5
5
5
5
5
5
5
5
5
5
5
5
5
5
5
5
5
5
5
5
5
5
5
5
5
5
5
5
5
5
5
5
5
5
5
5
5
5
5
5
CELL_DATA 225
VECTORS Ht double
0.951132 -0.194854 0
0.896414 -0.167209 0
0.839258 -0.189374 0
0.817484 -0.246681 0
0.845502 -0.301208 0
0.904771 -0.316872 0
0.95607 -0.283308 0
0.965453 -0.222726 0
0.926711 -0.175216 0
0.86548 -0.172217 0
0.82228 -0.215713 0
0.825698 -0.276922 0
0.873472 -0.315339 0
0.933988 -0.305542 0
0.967201 -0.254014 0
0.750092 0.0304338 0
0.795746 -0.117735 0
0.550654 0.124092 0
0.727921 -0.0772612 0
0.347603 0.0385514 0
0.652459 -0.100582 0
0.275304 -0.169583 0
0.619296 -0.172266 0
0.381601 -0.362581 0
0.650377 -0.244877 0
0.596153 -0.412727 0
0.725135 -0.270366 0
0.776983 -0.286839 0
0.794099 -0.231865 0
0.804428 -0.0682208 0
0.811633 -0.154852 0
0.660327 0.0984589 0
0.766135 -0.09029 0
0.440038 0.102902 0
0.687711 -0.0809018 0
0.289334 -0.0578321 0
0.628259 -0.1329 0
0.307942 -0.277379 0
0.62712 -0.211875 0
0.483548 -0.410456 0
0.685047 -0.265567 0
0.699947 -0.369001 0
0.763709 -0.258444 0
0.813939 -0.180447 0
0.811051 -0.195222 0
0.44985 0.270799 0
0.48687 0.126724 0
0.111798 0.439207 0
0.279296 0.236315 0
-0.239555 0.300673 0
0.0589605 0.155389 0
-0.371705 -0.0531311 0
-0.0283329 -0.0625028 0
-0.197203 -0.388079 0
0.0751816 -0.273172 0
0.168476 -0.482522 0
0.301004 -0.337212 0
0.483348 -0.273965 0
0.4997 -0.212243 0
0.539051 0.0995834 0
0.539783 0.0190363 0
0.298722 0.390931 0
0.39473 0.20358 0
-0.0786018 0.407281 0
0.160528 0.219269 0
-0.343232 0.137816 0
-0.00784338 0.0557204 0
-0.320052 -0.239151 0
0.00103475 -0.178839 0
-0.0244009 -0.474164 0
0.181287 -0.329192 0
0.348077 -0.411708 0
0.413634 -0.295845 0
0.5509 -0.0931105 0
0.544322 -0.100864 0
0.162771 0.383907 0
0.1199 0.323085 0
-0.195119 0.593845 0
-0.207308 0.466403 0
-0.590608 0.468356 0
-0.532759 0.319138 0
-0.761986 0.090482 0
-0.641089 -0.021259 0
-0.595845 -0.289724 0
-0.460612 -0.329533 0
-0.202127 -0.420664 0
-0.110756 -0.401689 0
0.158629 -0.215691 0
0.176965 -0.189977 0
0.247698 0.189558 0
0.212155 0.165505 0
0.0061379 0.526912 0
-0.0284727 0.429519 0
-0.4062 0.573132 0
-0.385685 0.427359 0
-0.716457 0.297633 0
-0.623101 0.160452 0
-0.719323 -0.117278 0
-0.583613 -0.194577 0
-0.412902 -0.397037 0
-0.293352 -0.402793 0
3.53882e-05 -0.356518 0
0.0556046 -0.326411 0
0.246233 -0.0225326 0
0.23234 -0.0159759 0
-0.0193893 0.296956 0
-0.189906 0.347664 0
-0.228768 0.482821 0
-0.52678 0.443898 0
-0.506994 0.45159 0
-0.82371 0.257945 0
-0.669954 0.223931 0
-0.884204 -0.0871431 0
-0.609812 -0.0495065 0
-0.668232 -0.363008 0
-0.366366 -0.187778 0
-0.318711 -0.3871 0
-0.100713 -0.099383 0
-0.066932 -0.143475 0
0.0113535 0.157183 0
-0.0795074 0.20665 0
-0.104325 0.412141 0
-0.348115 0.431583 0
-0.3712 0.496775 0
-0.695008 0.382479 0
-0.612669 0.35508 0
-0.890632 0.0918303 0
-0.668944 0.0808204 0
-0.805537 -0.248029 0
-0.502784 -0.144515 0
-0.496032 -0.412201 0
-0.224145 -0.171813 0
-0.166929 -0.292046 0
-0.0174124 0.0169898 0
-0.036009 0.0329236 0
-0.0703624 0.0563354 0
-0.329692 0.179922 0
-0.0243324 0.146924 0
-0.532809 0.161722 0
-0.0608525 0.241746 0
-0.655195 -0.00140069 0
-0.155756 0.278055 0
-0.615864 -0.201502 0
-0.246241 0.231823 0
-0.440841 -0.306167 0
-0.272431 0.133644 0
-0.245947 -0.246135 0
-0.216994 0.048487 0
-0.16015 -0.061131 0
-0.116616 0.0327032 0
-0.240226 0.12642 0
-0.0377198 0.0967375 0
-0.433184 0.192409 0
-0.0325149 0.198216 0
-0.611338 0.0931679 0
-0.104445 0.269986 0
-0.656796 -0.105632 0
-0.205912 0.264555 0
-0.539476 -0.272436 0
-0.26977 0.185517 0
-0.337014 -0.296864 0
-0.253763 0.0851739 0
-0.183387 -0.162751 0
-0.168483 0.029927 0
-0.180255 0.041155 0
-0.0363074 -0.186129 0
-0.241327 -0.073086 0
0.214175 -0.229649 0
-0.219844 -0.195371 0
0.414121 -0.0726248 0
-0.114594 -0.261232 0
0.43122 0.181034 0
0.00477622 -0.227084 0
0.254156 0.363472 0
0.059274 -0.115526 0
9.9468e-05 0.353963 0
0.0128363 -0.000379709 0
-0.162831 0.158799 0
-0.103807 0.0421585 0
-0.126817 -0.0928723 0
-0.213469 -0.0160608 0
0.0843085 -0.23451 0
-0.243582 -0.136512 0
0.330836 -0.172387 0
-0.174218 -0.239487 0
0.449629 0.0523875 0
-0.0512796 -0.256844 0
0.362077 0.291071 0
0.0438813 -0.177097 0
0.126117 0.385718 0
0.0482927 -0.0530177 0
-0.102107 0.273697 0
-0.0409645 0.0332861 0
-0.171571 0.0291357 0
-0.164825 0.0247035 0
0.00230076 -0.259889 0
0.0248841 -0.232943 0
0.244258 -0.409589 0
0.238902 -0.353258 0
0.517408 -0.329949 0
0.47152 -0.274718 0
0.640998 -0.0736697 0
0.568805 -0.0492953 0
0.533242 0.18966 0
0.466379 0.173838 0
0.265448 0.285783 0
0.232023 0.247027 0
0.0148243 0.151093 0
0.0208182 0.121839 0
-0.0527807 -0.125282 0
-0.0274726 -0.118884 0
0.107369 -0.360454 0
0.119106 -0.315846 0
0.389297 -0.398799 0
0.363558 -0.33871 0
0.60644 -0.214944 0
0.54412 -0.172346 0
0.615106 0.0694471 0
0.541306 0.0731571 0
0.409561 0.266182 0
0.356979 0.23534 0
0.125821 0.245074 0
0.113116 0.206879 0
-0.0483509 0.0200901 0
-0.0289108 0.00660968 0
