# vtk DataFile Version 3.0
tp3485 cell-vector
ASCII
DATASET UNSTRUCTURED_GRID
POINTS 121 double
0 0 0
0.125 0 0
0.114193 0.0508421 0
0.0836413 0.0928931 0
0.0386271 0.118882 0
-0.0130661 0.124315 0
-0.0625 0.108253 0
-0.101127 0.0734732 0
-0.122268 0.025989 0
-0.122268 -0.025989 0
-0.101127 -0.0734732 0
-0.0625 -0.108253 0
-0.0130661 -0.124315 0
0.0386271 -0.118882 0
0.0836413 -0.0928931 0
0.114193 -0.0508421 0
0.25 0 0
0.228386 0.101684 0
0.167283 0.185786 0
0.0772542 0.237764 0
-0.0261321 0.24863 0
-0.125 0.216506 0
-0.202254 0.146946 0
-0.244537 0.0519779 0
-0.244537 -0.0519779 0
-0.202254 -0.146946 0
-0.125 -0.216506 0
-0.0261321 -0.24863 0
0.0772542 -0.237764 0
0.167283 -0.185786 0
0.228386 -0.101684 0
0.375 0 0
0.34258 0.152526 0
0.250924 0.278679 0
0.115881 0.356646 0
-0.0391982 0.372946 0
-0.1875 0.32476 0
-0.303381 0.220419 0
-0.366805 0.0779669 0
-0.366805 -0.0779669 0
-0.303381 -0.220419 0
-0.1875 -0.32476 0
-0.0391982 -0.372946 0
0.115881 -0.356646 0
0.250924 -0.278679 0
0.34258 -0.152526 0
0.5 0 0
0.456773 0.203368 0
0.334565 0.371572 0
0.154508 0.475528 0
-0.0522642 0.497261 0
-0.25 0.433013 0
-0.404508 0.293893 0
-0.489074 0.103956 0
-0.489074 -0.103956 0
-0.404508 -0.293893 0
-0.25 -0.433013 0
-0.0522642 -0.497261 0
0.154508 -0.475528 0
0.334565 -0.371572 0
0.456773 -0.203368 0
0.625 0 0
0.570966 0.25421 0
0.418207 0.464466 0
0.193136 0.59441 0
-0.0653303 0.621576 0
-0.3125 0.541266 0
-0.505636 0.367366 0
-0.611342 0.129945 0
-0.611342 -0.129945 0
-0.505636 -0.367366 0
-0.3125 -0.541266 0
-0.0653303 -0.621576 0
0.193136 -0.59441 0
0.418207 -0.464466 0
0.570966 -0.25421 0
0.75 0 0
0.685159 0.305052 0
0.501848 0.557359 0
0.231763 0.713292 0
-0.0783963 0.745891 0
-0.375 0.649519 0
-0.606763 0.440839 0
-0.733611 0.155934 0
-0.733611 -0.155934 0
-0.606763 -0.440839 0
-0.375 -0.649519 0
-0.0783963 -0.745891 0
0.231763 -0.713292 0
0.501848 -0.557359 0
0.685159 -0.305052 0
0.875 0 0
0.799352 0.355895 0
0.585489 0.650252 0
0.27039 0.832174 0
-0.0914624 0.870207 0
-0.4375 0.757772 0
-0.70789 0.514312 0
-0.855879 0.181923 0
-0.855879 -0.181923 0
-0.70789 -0.514312 0
-0.4375 -0.757772 0
-0.0914624 -0.870207 0
0.27039 -0.832174 0
0.585489 -0.650252 0
0.799352 -0.355895 0
1 0 0
0.913545 0.406737 0
0.669131 0.743145 0
0.309017 0.951057 0
-0.104528 0.994522 0
-0.5 0.866025 0
-0.809017 0.587785 0
-0.978148 0.207912 0
-0.978148 -0.207912 0
-0.809017 -0.587785 0
-0.5 -0.866025 0
-0.104528 -0.994522 0
0.309017 -0.951057 0
0.669131 -0.743145 0
0.913545 -0.406737 0
CELLS 225 900
3 0 1 2
3 0 2 3
3 0 3 4
3 0 4 5
3 0 5 6
3 0 6 7
3 0 7 8
3 0 8 9
3 0 9 10
3 0 10 11
3 0 11 12
3 0 12 13
3 0 13 14
3 0 14 15
3 0 15 1
3 1 16 17
3 1 17 2
3 2 17 18
3 2 18 3
3 3 18 19
3 3 19 4
3 4 19 20
3 4 20 5
3 5 20 21
3 5 21 6
3 6 21 22
3 6 22 7
3 7 22 23
3 7 23 8
3 8 23 24
3 8 24 9
3 9 24 25
3 9 25 10
3 10 25 26
3 10 26 11
3 11 26 27
3 11 27 12
3 12 27 28
3 12 28 13
3 13 28 29
3 13 29 14
3 14 29 30
3 14 30 15
3 15 30 16
3 15 16 1
3 16 31 32
3 16 32 17
3 17 32 33
3 17 33 18
3 18 33 34
3 18 34 19
3 19 34 35
3 19 35 20
3 20 35 36
3 20 36 21
3 21 36 37
3 21 37 22
3 22 37 38
3 22 38 23
3 23 38 39
3 23 39 24
3 24 39 40
3 24 40 25
3 25 40 41
3 25 41 26
3 26 41 42
3 26 42 27
3 27 42 43
3 27 43 28
3 28 43 44
3 28 44 29
3 29 44 45
3 29 45 30
3 30 45 31
3 30 31 16
3 31 46 47
3 31 47 32
3 32 47 48
3 32 48 33
3 33 48 49
3 33 49 34
3 34 49 50
3 34 50 35
3 35 50 51
3 35 51 36
3 36 51 52
3 36 52 37
3 37 52 53
3 37 53 38
3 38 53 54
3 38 54 39
3 39 54 55
3 39 55 40
3 40 55 56
3 40 56 41
3 41 56 57
3 41 57 42
3 42 57 58
3 42 58 43
3 43 58 59
3 43 59 44
3 44 59 60
3 44 60 45
3 45 60 46
3 45 46 31
3 46 61 62
3 46 62 47
3 47 62 63
3 47 63 48
3 48 63 64
3 48 64 49
3 49 64 65
3 49 65 50
3 50 65 66
3 50 66 51
3 51 66 67
3 51 67 52
3 52 67 68
3 52 68 53
3 53 68 69
3 53 69 54
3 54 69 70
3 54 70 55
3 55 70 71
3 55 71 56
3 56 71 72
3 56 72 57
3 57 72 73
3 57 73 58
3 58 73 74
3 58 74 59
3 59 74 75
3 59 75 60
3 60 75 61
3 60 61 46
3 61 76 77
3 61 77 62
3 62 77 78
3 62 78 63
3 63 78 79
3 63 79 64
3 64 79 80
3 64 80 65
3 65 80 81
3 65 81 66
3 66 81 82
3 66 82 67
3 67 82 83
3 67 83 68
3 68 83 84
3 68 84 69
3 69 84 85
3 69 85 70
3 70 85 86
3 70 86 71
3 71 86 87
3 71 87 72
3 72 87 88
3 72 88 73
3 73 88 89
3 73 89 74
3 74 89 90
3 74 90 75
3 75 90 76
3 75 76 61
3 76 91 92
3 76 92 77
3 77 92 93
3 77 93 78
3 78 93 94
3 78 94 79
3 79 94 95
3 79 95 80
3 80 95 96
3 80 96 81
3 81 96 97
3 81 97 82
3 82 97 98
3 82 98 83
3 83 98 99
3 83 99 84
3 84 99 100
3 84 100 85
3 85 100 101
3 85 101 86
3 86 101 102
3 86 102 87
3 87 102 103
3 87 103 88
3 88 103 104
3 88 104 89
3 89 104 105
3 89 105 90
3 90 105 91
3 90 91 76
3 91 106 107
3 91 107 92
3 92 107 108
3 92 108 93
3 93 108 109
3 93 109 94
3 94 109 110
3 94 110 95
3 95 110 111
3 95 111 96
3 96 111 112
3 96 112 97
3 97 112 113
3 97 113 98
3 98 113 114
3 98 114 99
3 99 114 115
3 99 115 100
3 100 115 116
3 100 116 101
3 101 116 117
3 101 117 102
3 102 117 118
3 102 118 103
3 103 118 119
3 103 119 104
3 104 119 120
3 104 120 105
3 105 120 106
3 105 106 91
CELL_TYPES 225
5
5
5
5
5
5
5
5
5
5
5
5
5
5
5
5
5
5
5
5
5
5
5
5
5
5
5
5
5
5
5
5
5
5
5
5
5
5
5
5
5
5
5
5
5
5
5
5
5
5
5
5
5
5
5
5
5
5
5
5
5
5
5
5
5
5
5
5
5
5
5
5
5
5
5
5
5
5
5
5
5
5
5
5
5
5
5
5
5
5
5
5
5
5
5
5
5
5
5
5
5
5
5
5
5
5
5
5
5
5
5
5
5
5
5
5
5
5
5
5
5
5
5
5
5
5
5
5
5
5
5
5
5
5
5
5
5
5
5
5
5
5
5
5
5
5
5
5
5
5
5
5
5
5
5
5
5
5
5
5
5
5
5
5
5
5
5
5
5
5
5
5
5
5
5
5
5
5
5
5
5
5
5
5
5
5
5
5
5
5
5
5
5
5
5
5
5
5
5
5
5
5
5
5
5
5
5
5
5
5
5
5
5
5
5
5
5
5
5
5
5
5
5
5
5
CELL_DATA 225
VECTORS Ht double
0.981557 -0.152797 0
0.964537 -0.142092 0
0.945193 -0.147578 0
0.936326 -0.165624 0
0.943804 -0.184288 0
0.962677 -0.19122 0
0.980458 -0.181833 0
0.985379 -0.162338 0
0.974185 -0.145636 0
0.954282 -0.142779 0
0.938842 -0.155658 0
0.938081 -0.17575 0
0.952504 -0.18976 0
0.972565 -0.188416 0
0.984991 -0.172608 0
0.913888 -0.085529 0
0.928916 -0.131745 0
0.844082 -0.0452282 0
0.907309 -0.115198 0
0.767422 -0.0701383 0
0.880554 -0.120182 0
0.734639 -0.143775 0
0.866356 -0.1434 0
0.767426 -0.217411 0
0.87411 -0.169488 0
0.844086 -0.242317 0
0.898685 -0.181181 0
0.913891 -0.202013 0
0.923819 -0.170743 0
0.930648 -0.123169 0
0.93288 -0.14508 0
0.883268 -0.0579597 0
0.919871 -0.121175 0
0.803104 -0.049536 0
0.893402 -0.114846 0
0.743205 -0.103473 0
0.870988 -0.130282 0
0.743206 -0.184078 0
0.867461 -0.157268 0
0.803109 -0.238011 0
0.885155 -0.177946 0
0.883272 -0.229584 0
0.912362 -0.178633 0
0.930649 -0.164372 0
0.931077 -0.158874 0
0.793603 0.0137575 0
0.819191 -0.0514136 0
0.64583 0.0988591 0
0.743876 0.00330735 0
0.483708 0.0459865 0
0.652815 -0.0160472 0
0.414519 -0.109872 0
0.606266 -0.0966695 0
0.484049 -0.26558 0
0.635033 -0.185209 0
0.646286 -0.318098 0
0.72008 -0.223075 0
0.793872 -0.232674 0
0.805127 -0.185211 0
0.829145 -0.0658355 0
0.833896 -0.0966722 0
0.728761 0.0720133 0
0.787349 -0.0160488 0
0.55915 0.0896528 0
0.696289 0.00330792 0
0.432549 -0.0245897 0
0.620972 -0.0514112 0
0.432736 -0.195115 0
0.61124 -0.143996 0
0.559586 -0.309081 0
0.673532 -0.213181 0
0.729158 -0.291071 0
0.766627 -0.213182 0
0.82924 -0.153003 0
0.828921 -0.143999 0
0.635252 0.125383 0
0.664005 0.053766 0
0.403157 0.262442 0
0.513857 0.157767 0
0.146 0.181673 0
0.336101 0.115775 0
0.0339516 -0.0634774 0
0.248365 -0.0444217 0
0.141159 -0.310783 0
0.308707 -0.216815 0
0.396678 -0.396592 0
0.477197 -0.287325 0
0.631423 -0.264122 0
0.642338 -0.209293 0
0.690053 -0.00103262 0
0.69485 -0.0343562 0
0.533771 0.218579 0
0.599984 0.121724 0
0.265994 0.249388 0
0.420516 0.155662 0
0.0639216 0.071006 0
0.275207 0.045001 0
0.061272 -0.198524 0
0.260214 -0.137031 0
0.259799 -0.380844 0
0.385458 -0.269977 0
0.528129 -0.355305 0
0.568061 -0.26586 0
0.688698 -0.138808 0
0.687186 -0.127406 0
0.458362 0.227009 0
0.476547 0.161777 0
0.157152 0.413615 0
0.246325 0.312061 0
-0.183073 0.314636 0
-0.0194059 0.241532 0
-0.337172 -0.00442974 0
-0.144801 -0.00313785 0
-0.203173 -0.332445 0
-0.0468825 -0.260041 0
0.130254 -0.452348 0
0.209554 -0.359175 0
0.442465 -0.284796 0
0.454814 -0.234938 0
0.526859 0.0593371 0
0.5266 0.0304558 0
0.327589 0.352324 0
0.377408 0.261386 0
-0.0234798 0.400284 0
0.105964 0.305038 0
-0.294032 0.171481 0
-0.108107 0.132524 0
-0.305033 -0.182679 0
-0.123145 -0.141996 0
-0.0492026 -0.427833 0
0.0708 -0.336861 0
0.304166 -0.401753 0
0.345388 -0.323122 0
0.521236 -0.121699 0
0.518913 -0.109871 0
0.283838 0.297593 0
0.273985 0.249504 0
-0.0513008 0.521446 0
-0.0237261 0.428618 0
-0.441907 0.422175 0
-0.356041 0.327226 0
-0.629502 0.0654734 0
-0.503055 0.0124237 0
-0.489946 -0.312617 0
-0.367482 -0.307473 0
-0.115589 -0.461898 0
-0.0390372 -0.420775 0
0.245843 -0.283585 0
0.264935 -0.252507 0
0.355175 0.104325 0
0.343285 0.0859823 0
0.140059 0.445138 0
0.144165 0.370701 0
-0.257154 0.513324 0
-0.200659 0.41324 0
-0.573614 0.263762 0
-0.463005 0.185449 0
-0.599907 -0.138403 0
-0.469266 -0.161933 0
-0.318633 -0.427043 0
-0.215301 -0.39903 0
0.0840776 -0.411154 0
0.130832 -0.368947 0
0.341735 -0.10125 0
0.340084 -0.0915891 0
0.130755 0.321424 0
0.0762354 0.297298 0
-0.189275 0.561515 0
-0.25984 0.476447 0
-0.58184 0.484339 0
-0.617852 0.346568 0
-0.787164 0.140966 0
-0.760889 -0.00639232 0
-0.669376 -0.241382 0
-0.5943 -0.348867 0
-0.306422 -0.409688 0
-0.228322 -0.454227 0
0.0615188 -0.25258 0
0.0948633 -0.252751 0
0.190964 0.12598 0
0.161391 0.122235 0
-0.00374378 0.475482 0
-0.0727626 0.42259 0
-0.39376 0.564648 0
-0.452649 0.449556 0
-0.720995 0.334474 0
-0.726883 0.18529 0
-0.768905 -0.0627263 0
-0.713992 -0.195334 0
-0.505786 -0.364109 0
-0.422508 -0.440442 0
-0.105754 -0.370238 0
-0.0453167 -0.387837 0
0.166474 -0.0770573 0
0.16798 -0.0723286 0
0.0134941 0.291471 0
-0.0957716 0.293141 0
-0.238455 0.520781 0
-0.429038 0.438411 0
-0.577452 0.486985 0
-0.759993 0.28795 0
-0.77917 0.212447 0
-0.869631 -0.0586759 0
-0.710124 -0.121161 0
-0.6854 -0.37209 0
-0.416005 -0.293077 0
-0.329213 -0.444895 0
-0.0914421 -0.189538 0
-0.0367726 -0.228913 0
0.0487882 0.12094 0
-0.00159824 0.132933 0
-0.0881096 0.432902 0
-0.246966 0.401195 0
-0.411545 0.539911 0
-0.610506 0.398353 0
-0.707488 0.371154 0
-0.851651 0.126289 0
-0.780102 0.0383049 0
-0.810824 -0.234963 0
-0.581335 -0.238377 0
-0.515044 -0.446348 0
-0.242719 -0.275801 0
-0.160038 -0.367984 0
0.0116702 -0.049202 0
0.0192709 -0.0517282 0
