# vtk DataFile Version 3.0
tp3485 cell-vector
ASCII
DATASET UNSTRUCTURED_GRID
POINTS 121 double
0 0 0
0.125 0 0
0.114193 0.0508421 0
0.0836413 0.0928931 0
0.0386271 0.118882 0
-0.0130661 0.124315 0
-0.0625 0.108253 0
-0.101127 0.0734732 0
-0.122268 0.025989 0
-0.122268 -0.025989 0
-0.101127 -0.0734732 0
-0.0625 -0.108253 0
-0.0130661 -0.124315 0
0.0386271 -0.118882 0
0.0836413 -0.0928931 0
0.114193 -0.0508421 0
0.25 0 0
0.228386 0.101684 0
0.167283 0.185786 0
0.0772542 0.237764 0
-0.0261321 0.24863 0
-0.125 0.216506 0
-0.202254 0.146946 0
-0.244537 0.0519779 0
-0.244537 -0.0519779 0
-0.202254 -0.146946 0
-0.125 -0.216506 0
-0.0261321 -0.24863 0
0.0772542 -0.237764 0
0.167283 -0.185786 0
0.228386 -0.101684 0
0.375 0 0
0.34258 0.152526 0
0.250924 0.278679 0
0.115881 0.356646 0
-0.0391982 0.372946 0
-0.1875 0.32476 0
-0.303381 0.220419 0
-0.366805 0.0779669 0
-0.366805 -0.0779669 0
-0.303381 -0.220419 0
-0.1875 -0.32476 0
-0.0391982 -0.372946 0
0.115881 -0.356646 0
0.250924 -0.278679 0
0.34258 -0.152526 0
0.5 0 0
0.456773 0.203368 0
0.334565 0.371572 0
0.154508 0.475528 0
-0.0522642 0.497261 0
-0.25 0.433013 0
-0.404508 0.293893 0
-0.489074 0.103956 0
-0.489074 -0.103956 0
-0.404508 -0.293893 0
-0.25 -0.433013 0
-0.0522642 -0.497261 0
0.154508 -0.475528 0
0.334565 -0.371572 0
0.456773 -0.203368 0
0.625 0 0
0.570966 0.25421 0
0.418207 0.464466 0
0.193136 0.59441 0
-0.0653303 0.621576 0
-0.3125 0.541266 0
-0.505636 0.367366 0
-0.611342 0.129945 0
-0.611342 -0.129945 0
-0.505636 -0.367366 0
-0.3125 -0.541266 0
-0.0653303 -0.621576 0
0.193136 -0.59441 0
0.418207 -0.464466 0
0.570966 -0.25421 0
0.75 0 0
0.685159 0.305052 0
0.501848 0.557359 0
0.231763 0.713292 0
-0.0783963 0.745891 0
-0.375 0.649519 0
-0.606763 0.440839 0
-0.733611 0.155934 0
-0.733611 -0.155934 0
-0.606763 -0.440839 0
-0.375 -0.649519 0
-0.0783963 -0.745891 0
0.231763 -0.713292 0
0.501848 -0.557359 0
0.685159 -0.305052 0
0.875 0 0
0.799352 0.355895 0
0.585489 0.650252 0
0.27039 0.832174 0
-0.0914624 0.870207 0
-0.4375 0.757772 0
-0.70789 0.514312 0
-0.855879 0.181923 0
-0.855879 -0.181923 0
-0.70789 -0.514312 0
-0.4375 -0.757772 0
-0.0914624 -0.870207 0
0.27039 -0.832174 0
0.585489 -0.650252 0
0.799352 -0.355895 0
1 0 0
0.913545 0.406737 0
0.669131 0.743145 0
0.309017 0.951057 0
-0.104528 0.994522 0
-0.5 0.866025 0
-0.809017 0.587785 0
-0.978148 0.207912 0
-0.978148 -0.207912 0
-0.809017 -0.587785 0
-0.5 -0.866025 0
-0.104528 -0.994522 0
0.309017 -0.951057 0
0.669131 -0.743145 0
0.913545 -0.406737 0
CELLS 225 900
3 0 1 2
3 0 2 3
3 0 3 4
3 0 4 5
3 0 5 6
3 0 6 7
3 0 7 8
3 0 8 9
3 0 9 10
3 0 10 11
3 0 11 12
3 0 12 13
3 0 13 14
3 0 14 15
3 0 15 1
3 1 16 17
3 1 17 2
3 2 17 18
3 2 18 3
3 3 18 19
3 3 19 4
3 4 19 20
3 4 20 5
3 5 20 21
3 5 21 6
3 6 21 22
3 6 22 7
3 7 22 23
3 7 23 8
3 8 23 24
3 8 24 9
3 9 24 25
3 9 25 10
3 10 25 26
3 10 26 11
3 11 26 27
3 11 27 12
3 12 27 28
3 12 28 13
3 13 28 29
3 13 29 14
3 14 29 30
3 14 30 15
3 15 30 16
3 15 16 1
3 16 31 32
3 16 32 17
3 17 32 33
3 17 33 18
3 18 33 34
3 18 34 19
3 19 34 35
3 19 35 20
3 20 35 36
3 20 36 21
3 21 36 37
3 21 37 22
3 22 37 38
3 22 38 23
3 23 38 39
3 23 39 24
3 24 39 40
3 24 40 25
3 25 40 41
3 25 41 26
3 26 41 42
3 26 42 27
3 27 42 43
3 27 43 28
3 28 43 44
3 28 44 29
3 29 44 45
3 29 45 30
3 30 45 31
3 30 31 16
3 31 46 47
3 31 47 32
3 32 47 48
3 32 48 33
3 33 48 49
3 33 49 34
3 34 49 50
3 34 50 35
3 35 50 51
3 35 51 36
3 36 51 52
3 36 52 37
3 37 52 53
3 37 53 38
3 38 53 54
3 38 54 39
3 39 54 55
3 39 55 40
3 40 55 56
3 40 56 41
3 41 56 57
3 41 57 42
3 42 57 58
3 42 58 43
3 43 58 59
3 43 59 44
3 44 59 60
3 44 60 45
3 45 60 46
3 45 46 31
3 46 61 62
3 46 62 47
3 47 62 63
3 47 63 48
3 48 63 64
3 48 64 49
3 49 64 65
3 49 65 50
3 50 65 66
3 50 66 51
3 51 66 67
3 51 67 52
3 52 67 68
3 52 68 53
3 53 68 69
3 53 69 54
3 54 69 70
3 54 70 55
3 55 70 71
3 55 71 56
3 56 71 72
3 56 72 57
3 57 72 73
3 57 73 58
3 58 73 74
3 58 74 59
3 59 74 75
3 59 75 60
3 60 75 61
3 60 61 46
3 61 76 77
3 61 77 62
3 62 77 78
3 62 78 63
3 63 78 79
3 63 79 64
3 64 79 80
3 64 80 65
3 65 80 81
3 65 81 66
3 66 81 82
3 66 82 67
3 67 82 83
3 67 83 68
3 68 83 84
3 68 84 69
3 69 84 85
3 69 85 70
3 70 85 86
3 70 86 71
3 71 86 87
3 71 87 72
3 72 87 88
3 72 88 73
3 73 88 89
3 73 89 74
3 74 89 90
3 74 90 75
3 75 90 76
3 75 76 61
3 76 91 92
3 76 92 77
3 77 92 93
3 77 93 78
3 78 93 94
3 78 94 79
3 79 94 95
3 79 95 80
3 80 95 96
3 80 96 81
3 81 96 97
3 81 97 82
3 82 97 98
3 82 98 83
3 83 98 99
3 83 99 84
3 84 99 100
3 84 100 85
3 85 100 101
3 85 101 86
3 86 101 102
3 86 102 87
3 87 102 103
3 87 103 88
3 88 103 104
3 88 104 89
3 89 104 105
3 89 105 90
3 90 105 91
3 90 91 76
3 91 106 107
3 91 107 92
3 92 107 108
3 92 108 93
3 93 108 109
3 93 109 94
3 94 109 110
3 94 110 95
3 95 110 111
3 95 111 96
3 96 111 112
3 96 112 97
3 97 112 113
3 97 113 98
3 98 113 114
3 98 114 99
3 99 114 115
3 99 115 100
3 100 115 116
3 100 116 101
3 101 116 117
3 101 117 102
3 102 117 118
3 102 118 103
3 103 118 119
3 103 119 104
3 104 119 120
3 104 120 105
3 105 120 106
3 105 106 91
CELL_TYPES 225
5
5
5
5
5
5
5
5
5
5
5
5
5
5
5
5
5
5
5
5
5
5
5
5
5
5
5
5
5
5
5
5
5
5
5
5
5
5
5
5
5
5
5
5
5
5
5
5
5
5
5
5
5
5
5
5
5
5
5
5
5
5
5
5
5
5
5
5
5
5
5
5
5
5
5
5
5
5
5
5
5
5
5
5
5
5
5
5
5
5
5
5
5
5
5
5
5
5
5
5
5
5
5
5
5
5
5
5
5
5
5
5
5
5
5
5
5
5
5
5
5
5
5
5
5
5
5
5
5
5
5
5
5
5
5
5
5
5
5
5
5
5
5
5
5
5
5
5
5
5
5
5
5
5
5
5
5
5
5
5
5
5
5
5
5
5
5
5
5
5
5
5
5
5
5
5
5
5
5
5
5
5
5
5
5
5
5
5
5
5
5
5
5
5
5
5
5
5
5
5
5
5
5
5
5
5
5
5
5
5
5
5
5
5
5
5
5
5
5
5
5
5
5
5
5
CELL_DATA 225
VECTORS Ht double
-0.0150281 0.0131426 0
-0.029969 0.0488492 0
0.0296999 -0.00440713 0
0.0503083 -0.0120989 0
-0.033785 -0.0210894 0
-0.0379949 -0.0223901 0
0.0122866 0.0467256 0
0.0104111 0.0332491 0
0.0273414 -0.0476316 0
0.00847063 -0.023213 0
-0.0572837 0.0152661 0
-0.0106802 0.0111929 0
0.0526667 0.0311256 0
0.00805265 -0.00997534 0
-0.0144962 -0.0587457 0
-0.117658 0.0350324 0
-0.0756312 -0.00383245 0
-0.148443 0.188876 0
0.0703708 0.114151 0
0.149173 0.0405463 0
0.0440258 0.0309848 0
0.214648 -0.0364957 0
0.0319697 -0.138338 0
-0.113782 -0.14927 0
-0.0243016 -0.0297486 0
-0.161711 -0.0969112 0
-0.122086 0.0765563 0
-0.0121504 0.216697 0
0.0239794 0.0337254 0
0.0569334 0.144669 0
0.136872 0.0310213 0
0.170595 -0.168439 0
-0.0144849 -0.0579498 0
0.0225107 -0.121449 0
-0.0706929 -0.110174 0
-0.253951 0.0072115 0
-0.0292398 0.0765927 0
-0.0562033 0.084753 0
-0.0224752 0.114114 0
0.193226 0.17249 0
0.0904804 -0.0494039 0
0.0783552 -0.0643166 0
0.0783611 -0.0579133 0
-0.0215421 -0.253393 0
-0.117148 -0.0297851 0
-0.342579 0.0312227 0
-0.247842 -0.0115494 0
-0.339182 0.369758 0
0.153333 0.362367 0
0.348652 0.191917 0
0.158784 0.109667 0
0.451473 -0.0616537 0
0.145691 -0.390865 0
-0.182138 -0.414131 0
-0.0858094 -0.129121 0
-0.348341 -0.199676 0
-0.382547 0.185227 0
-0.136337 0.480217 0
0.0502721 0.147321 0
0.151569 0.312357 0
0.39655 0.127937 0
0.445711 -0.292553 0
0.0109864 -0.194089 0
0.0207078 -0.303672 0
-0.18887 -0.344167 0
-0.545424 -0.0792364 0
-0.144782 0.203496 0
-0.142099 0.249318 0
-0.0844326 0.344097 0
0.354414 0.422816 0
0.293489 -0.0871091 0
0.248628 -0.172113 0
0.248752 -0.175819 0
0.0149456 -0.534571 0
-0.323575 -0.147391 0
-0.630007 -0.0302383 0
-0.502984 -0.0489726 0
-0.47917 0.465374 0
0.233238 0.642784 0
0.53017 0.440286 0
0.31028 0.263966 0
0.602652 -0.0844711 0
0.284802 -0.680232 0
-0.149836 -0.723714 0
-0.123687 -0.301515 0
-0.49895 -0.240378 0
-0.698097 0.311616 0
-0.362713 0.683943 0
0.0185149 0.293516 0
0.282655 0.431856 0
0.720116 0.252644 0
0.73371 -0.294611 0
0.089689 -0.319643 0
-0.0333786 -0.505145 0
-0.338409 -0.650782 0
-0.746465 -0.248808 0
-0.288261 0.300295 0
-0.231655 0.473804 0
-0.176598 0.654105 0
0.399113 0.650426 0
0.505393 -0.0966234 0
0.486195 -0.30304 0
0.499525 -0.330965 0
0.0976791 -0.715284 0
-0.533522 -0.290193 0
-0.865655 -0.143022 0
-0.747281 -0.1291 0
-0.425141 0.348934 0
0.303083 0.738007 0
0.583815 0.708517 0
0.408959 0.475004 0
0.492531 -0.102498 0
0.30793 -0.84455 0
0.033102 -0.930255 0
-0.0512723 -0.486644 0
-0.491161 -0.122589 0
-0.865256 0.433578 0
-0.630084 0.663039 0
-0.125223 0.354499 0
0.414264 0.37398 0
0.955239 0.295835 0
0.867025 -0.0820649 0
0.189955 -0.281872 0
-0.171841 -0.61615 0
-0.479578 -0.870152 0
-0.660712 -0.457127 0
-0.318975 0.254408 0
-0.25559 0.683472 0
-0.243198 0.917177 0
0.209321 0.688084 0
0.526934 -0.0876734 0
0.697474 -0.416603 0
0.736236 -0.461042 0
0.202653 -0.595717 0
-0.597553 -0.307475 0
-0.926439 -0.243965 0
-0.836612 -0.216807 0
-0.134844 -0.0136724 0
0.371433 0.480881 0
0.463197 0.8658 0
0.368636 0.643372 0
0.0652246 -0.0953823 0
0.09313 -0.75202 0
0.312908 -0.910886 0
0.149722 -0.568746 0
-0.25174 0.162709 0
-0.698131 0.52988 0
-0.824383 0.367297 0
-0.344457 0.227465 0
0.478038 0.0781571 0
0.946045 0.150101 0
0.739923 0.311292 0
0.231611 -0.00533283 0
-0.376631 -0.529917 0
-0.566168 -0.822162 0
-0.2369 -0.624934 0
-0.120722 0.0366088 0
-0.149685 0.773971 0
-0.205976 0.974152 0
-0.211501 0.459126 0
0.230155 -0.103315 0
0.754764 -0.476351 0
0.80902 -0.498604 0
0.298067 -0.123243 0
-0.427688 -0.0754748 0
-0.724144 -0.235429 0
-0.634906 -0.22668 0
0.244691 -0.492203 0
0.450316 -0.0821064 0
0.221004 0.768873 0
0.163395 0.600896 0
-0.506338 -0.0181267 0
-0.342448 -0.408364 0
0.518664 -0.632198 0
0.367898 -0.416395 0
0.172523 0.465048 0
-0.18 0.575979 0
-0.810274 -0.0659056 0
-0.47226 -0.0894758 0
0.379302 -0.357903 0
0.631065 -0.194394 0
0.390329 0.682351 0
0.112458 0.394294 0
-0.536301 -0.2059 0
-0.554678 -0.423764 0
0.330821 -0.661727 0
0.28767 -0.21931 0
0.086393 0.634572 0
-0.0173543 0.713183 0
-0.675663 0.0683949 0
-0.291511 -0.201763 0
0.548627 -0.444424 0
0.580128 -0.400995 0
0.360366 0.494577 0
-0.099772 0.378895 0
-0.242333 -0.0606396 0
-0.114414 -0.0793344 0
0.407902 -0.796021 0
0.538649 -0.61625 0
-0.0285002 0.338007 0
-0.137672 0.210003 0
-0.830314 0.167382 0
-0.77424 -0.0163433 0
0.443067 -0.166355 0
0.39466 0.0307469 0
0.581214 0.49914 0
0.433163 0.546877 0
-0.488655 -0.362698 0
-0.277455 -0.45514 0
0.0445094 -0.655096 0
0.130855 -0.577319 0
-0.00676683 0.727161 0
-0.226662 0.609869 0
-0.45349 0.266968 0
-0.421444 0.191857 0
0.654224 -0.493963 0
0.70169 -0.240444 0
0.334892 0.197082 0
0.270122 0.171072 0
-0.852047 -0.221773 0
-0.685249 -0.416209 0
0.0662428 -0.265941 0
0.0418644 -0.177453 0
0.370057 0.826747 0
0.126133 0.818069 0
