# vtk DataFile Version 3.0
tp3485 cell-vector
ASCII
DATASET UNSTRUCTURED_GRID
POINTS 121 double
0 0 0
0.125 0 0
0.114193 0.0508421 0
0.0836413 0.0928931 0
0.0386271 0.118882 0
-0.0130661 0.124315 0
-0.0625 0.108253 0
-0.101127 0.0734732 0
-0.122268 0.025989 0
-0.122268 -0.025989 0
-0.101127 -0.0734732 0
-0.0625 -0.108253 0
-0.0130661 -0.124315 0
0.0386271 -0.118882 0
0.0836413 -0.0928931 0
0.114193 -0.0508421 0
0.25 0 0
0.228386 0.101684 0
0.167283 0.185786 0
0.0772542 0.237764 0
-0.0261321 0.24863 0
-0.125 0.216506 0
-0.202254 0.146946 0
-0.244537 0.0519779 0
-0.244537 -0.0519779 0
-0.202254 -0.146946 0
-0.125 -0.216506 0
-0.0261321 -0.24863 0
0.0772542 -0.237764 0
0.167283 -0.185786 0
0.228386 -0.101684 0
0.375 0 0
0.34258 0.152526 0
0.250924 0.278679 0
0.115881 0.356646 0
-0.0391982 0.372946 0
-0.1875 0.32476 0
-0.303381 0.220419 0
-0.366805 0.0779669 0
-0.366805 -0.0779669 0
-0.303381 -0.220419 0
-0.1875 -0.32476 0
-0.0391982 -0.372946 0
0.115881 -0.356646 0
0.250924 -0.278679 0
0.34258 -0.152526 0
0.5 0 0
0.456773 0.203368 0
0.334565 0.371572 0
0.154508 0.475528 0
-0.0522642 0.497261 0
-0.25 0.433013 0
-0.404508 0.293893 0
-0.489074 0.103956 0
-0.489074 -0.103956 0
-0.404508 -0.293893 0
-0.25 -0.433013 0
-0.0522642 -0.497261 0
0.154508 -0.475528 0
0.334565 -0.371572 0
0.456773 -0.203368 0
0.625 0 0
0.570966 0.25421 0
0.418207 0.464466 0
0.193136 0.59441 0
-0.0653303 0.621576 0
-0.3125 0.541266 0
-0.505636 0.367366 0
-0.611342 0.129945 0
-0.611342 -0.129945 0
-0.505636 -0.367366 0
-0.3125 -0.541266 0
-0.0653303 -0.621576 0
0.193136 -0.59441 0
0.418207 -0.464466 0
0.570966 -0.25421 0
0.75 0 0
0.685159 0.305052 0
0.501848 0.557359 0
0.231763 0.713292 0
-0.0783963 0.745891 0
-0.375 0.649519 0
-0.606763 0.440839 0
-0.733611 0.155934 0
-0.733611 -0.155934 0
-0.606763 -0.440839 0
-0.375 -0.649519 0
-0.0783963 -0.745891 0
0.231763 -0.713292 0
0.501848 -0.557359 0
0.685159 -0.305052 0
0.875 0 0
0.799352 0.355895 0
0.585489 0.650252 0
0.27039 0.832174 0
-0.0914624 0.870207 0
-0.4375 0.757772 0
-0.70789 0.514312 0
-0.855879 0.181923 0
-0.855879 -0.181923 0
-0.70789 -0.514312 0
-0.4375 -0.757772 0
-0.0914624 -0.870207 0
0.27039 -0.832174 0
0.585489 -0.650252 0
0.799352 -0.355895 0
1 0 0
0.913545 0.406737 0
0.669131 0.743145 0
0.309017 0.951057 0
-0.104528 0.994522 0
-0.5 0.866025 0
-0.809017 0.587785 0
-0.978148 0.207912 0
-0.978148 -0.207912 0
-0.809017 -0.587785 0
-0.5 -0.866025 0
-0.104528 -0.994522 0
0.309017 -0.951057 0
0.669131 -0.743145 0
0.913545 -0.406737 0
CELLS 225 900
3 0 1 2
3 0 2 3
3 0 3 4
3 0 4 5
3 0 5 6
3 0 6 7
3 0 7 8
3 0 8 9
3 0 9 10
3 0 10 11
3 0 11 12
3 0 12 13
3 0 13 14
3 0 14 15
3 0 15 1
3 1 16 17
3 1 17 2
3 2 17 18
3 2 18 3
3 3 18 19
3 3 19 4
3 4 19 20
3 4 20 5
3 5 20 21
3 5 21 6
3 6 21 22
3 6 22 7
3 7 22 23
3 7 23 8
3 8 23 24
3 8 24 9
3 9 24 25
3 9 25 10
3 10 25 26
3 10 26 11
3 11 26 27
3 11 27 12
3 12 27 28
3 12 28 13
3 13 28 29
3 13 29 14
3 14 29 30
3 14 30 15
3 15 30 16
3 15 16 1
3 16 31 32
3 16 32 17
3 17 32 33
3 17 33 18
3 18 33 34
3 18 34 19
3 19 34 35
3 19 35 20
3 20 35 36
3 20 36 21
3 21 36 37
3 21 37 22
3 22 37 38
3 22 38 23
3 23 38 39
3 23 39 24
3 24 39 40
3 24 40 25
3 25 40 41
3 25 41 26
3 26 41 42
3 26 42 27
3 27 42 43
3 27 43 28
3 28 43 44
3 28 44 29
3 29 44 45
3 29 45 30
3 30 45 31
3 30 31 16
3 31 46 47
3 31 47 32
3 32 47 48
3 32 48 33
3 33 48 49
3 33 49 34
3 34 49 50
3 34 50 35
3 35 50 51
3 35 51 36
3 36 51 52
3 36 52 37
3 37 52 53
3 37 53 38
3 38 53 54
3 38 54 39
3 39 54 55
3 39 55 40
3 40 55 56
3 40 56 41
3 41 56 57
3 41 57 42
3 42 57 58
3 42 58 43
3 43 58 59
3 43 59 44
3 44 59 60
3 44 60 45
3 45 60 46
3 45 46 31
3 46 61 62
3 46 62 47
3 47 62 63
3 47 63 48
3 48 63 64
3 48 64 49
3 49 64 65
3 49 65 50
3 50 65 66
3 50 66 51
3 51 66 67
3 51 67 52
3 52 67 68
3 52 68 53
3 53 68 69
3 53 69 54
3 54 69 70
3 54 70 55
3 55 70 71
3 55 71 56
3 56 71 72
3 56 72 57
3 57 72 73
3 57 73 58
3 58 73 74
3 58 74 59
3 59 74 75
3 59 75 60
3 60 75 61
3 60 61 46
3 61 76 77
3 61 77 62
3 62 77 78
3 62 78 63
3 63 78 79
3 63 79 64
3 64 79 80
3 64 80 65
3 65 80 81
3 65 81 66
3 66 81 82
3 66 82 67
3 67 82 83
3 67 83 68
3 68 83 84
3 68 84 69
3 69 84 85
3 69 85 70
3 70 85 86
3 70 86 71
3 71 86 87
3 71 87 72
3 72 87 88
3 72 88 73
3 73 88 89
3 73 89 74
3 74 89 90
3 74 90 75
3 75 90 76
3 75 76 61
3 76 91 92
3 76 92 77
3 77 92 93
3 77 93 78
3 78 93 94
3 78 94 79
3 79 94 95
3 79 95 80
3 80 95 96
3 80 96 81
3 81 96 97
3 81 97 82
3 82 97 98
3 82 98 83
3 83 98 99
3 83 99 84
3 84 99 100
3 84 100 85
3 85 100 101
3 85 101 86
3 86 101 102
3 86 102 87
3 87 102 103
3 87 103 88
3 88 103 104
3 88 104 89
3 89 104 105
3 89 105 90
3 90 105 91
3 90 91 76
3 91 106 107
3 91 107 92
3 92 107 108
3 92 108 93
3 93 108 109
3 93 109 94
3 94 109 110
3 94 110 95
3 95 110 111
3 95 111 96
3 96 111 112
3 96 112 97
3 97 112 113
3 97 113 98
3 98 113 114
3 98 114 99
3 99 114 115
3 99 115 100
3 100 115 116
3 100 116 101
3 101 116 117
3 101 117 102
3 102 117 118
3 102 118 103
3 103 118 119
3 103 119 104
3 104 119 120
3 104 120 105
3 105 120 106
3 105 106 91
CELL_TYPES 225
5
5
5
5
5
5
5
5
5
5
5
5
5
5
5
5
5
5
5
5
5
5
5
5
5
5
5
5
5
5
5
5
5
5
5
5
5
5
5
5
5
5
5
5
5
5
5
5
5
5
5
5
5
5
5
5
5
5
5
5
5
5
5
5
5
5
5
5
5
5
5
5
5
5
5
5
5
5
5
5
5
5
5
5
5
5
5
5
5
5
5
5
5
5
5
5
5
5
5
5
5
5
5
5
5
5
5
5
5
5
5
5
5
5
5
5
5
5
5
5
5
5
5
5
5
5
5
5
5
5
5
5
5
5
5
5
5
5
5
5
5
5
5
5
5
5
5
5
5
5
5
5
5
5
5
5
5
5
5
5
5
5
5
5
5
5
5
5
5
5
5
5
5
5
5
5
5
5
5
5
5
5
5
5
5
5
5
5
5
5
5
5
5
5
5
5
5
5
5
5
5
5
5
5
5
5
5
5
5
5
5
5
5
5
5
5
5
5
5
5
5
5
5
5
5
CELL_DATA 225
VECTORS Ht double
-0.09596 -0.0174479 0
-0.194085 0.217378 0
-0.112981 0.156931 0
0.188173 0.0589813 0
0.283638 0.0595577 0
0.0630903 -0.0743798 0
-0.0912126 -0.276772 0
-0.0794154 -0.17631 0
-0.145166 0.133472 0
-0.193397 0.215859 0
0.0328697 0.0918277 0
0.285298 0.0593933 0
0.192397 0.0193792 0
-0.0430074 -0.192454 0
-0.0902406 -0.275417 0
-0.449547 -0.122489 0
-0.463059 -0.110677 0
-0.605267 0.374597 0
-0.0595067 0.23599 0
-0.226122 0.475388 0
0.134678 0.536459 0
0.436212 0.41071 0
0.156378 0.223055 0
0.64763 0.191486 0
0.34077 -0.293799 0
0.330853 -0.328075 0
0.327379 -0.345682 0
-0.0217767 -0.711475 0
-0.17462 -0.169529 0
-0.298637 -0.433521 0
-0.531926 -0.151595 0
-0.573792 0.172416 0
-0.27136 0.0238997 0
-0.489647 0.465121 0
0.0840521 0.442015 0
0.118695 0.450564 0
0.13568 0.456359 0
0.627044 0.336878 0
0.234126 -0.0664604 0
0.524759 -0.0418669 0
0.397248 -0.384864 0
0.13758 -0.583126 0
0.114982 -0.246955 0
-0.157983 -0.656607 0
-0.424822 -0.148216 0
-0.82451 -0.248733 0
-0.867782 -0.238691 0
-0.787752 0.181904 0
-0.231707 0.356618 0
-0.123633 0.683845 0
0.18281 0.947705 0
0.420583 0.818719 0
0.285045 0.514598 0
0.622578 0.202271 0
0.613537 -0.407795 0
0.627664 -0.58968 0
0.640604 -0.632176 0
0.236343 -0.773165 0
-0.192986 -0.378973 0
-0.530411 -0.448992 0
-0.912141 -0.315535 0
-0.919323 -0.0451235 0
-0.588178 -0.0104433 0
-0.486461 0.438033 0
0.0463924 0.735236 0
0.196846 0.838413 0
0.227179 0.870867 0
0.551409 0.591262 0
0.424694 0.0223556 0
0.654044 -0.234853 0
0.729331 -0.63217 0
0.49874 -0.773595 0
0.303133 -0.504155 0
-0.136117 -0.640304 0
-0.659929 -0.327441 0
-0.931946 -0.246875 0
-0.959853 -0.280503 0
-0.468235 -0.34564 0
-0.217236 0.0605791 0
0.26265 0.54491 0
0.295933 0.880598 0
0.0677643 0.952926 0
0.136101 0.692481 0
0.0279163 -0.00474444 0
0.359163 -0.383967 0
0.679773 -0.683652 0
0.722849 -0.691006 0
0.53345 -0.232683 0
0.0561552 -0.218422 0
-0.603231 -0.0449936 0
-0.910586 -0.184014 0
-0.85914 -0.417777 0
-0.667756 -0.228374 0
-0.00984933 0.0265484 0
0.152944 0.503028 0
0.252173 0.930527 0
0.237004 0.971509 0
-0.0652156 0.578323 0
0.161081 0.157843 0
0.340581 -0.499916 0
0.614654 -0.696584 0
0.791376 -0.535149 0
0.531656 -0.464107 0
-0.0180669 -0.021804 0
-0.512107 -0.119061 0
-0.61576 -0.0415339 0
-0.570375 -0.111231 0
0.0883725 -0.793723 0
0.14387 -0.460983 0
0.630577 0.0594673 0
0.496104 0.274194 0
-0.307907 0.657519 0
-0.227669 0.481061 0
-0.716876 -0.214566 0
-0.377663 -0.337772 0
0.343849 -0.512497 0
0.381517 -0.438344 0
0.643198 0.473394 0
0.327288 0.355087 0
-0.366789 0.516362 0
-0.485511 0.292542 0
-0.415474 -0.595415 0
-0.302776 -0.437698 0
0.544257 -0.51355 0
0.48135 -0.15818 0
0.27191 0.55403 0
0.188858 0.549575 0
-0.731571 0.320329 0
-0.471158 0.105896 0
-0.263788 -0.575829 0
-0.0105935 -0.566736 0
0.723382 -0.0621037 0
0.530446 -0.043363 0
0.172619 0.728116 0
-0.103687 0.495952 0
0.0532546 0.210932 0
0.092536 0.202383 0
0.303533 -0.633541 0
0.666909 -0.574874 0
0.451752 -0.462114 0
0.60953 -0.361118 0
-0.302691 0.0510021 0
-0.438546 -0.16161 0
-0.829419 -0.0737959 0
-0.883197 -0.412819 0
-0.209299 -0.059346 0
-0.221537 -0.0210529 0
0.396896 0.579638 0
0.164401 0.864997 0
0.174327 0.622285 0
0.00797257 0.708427 0
0.107176 -0.287639 0
0.359231 -0.298987 0
0.478619 -0.6814 0
0.79911 -0.558461 0
0.156045 -0.151586 0
0.129001 -0.18133 0
-0.700429 0.0539032 0
-0.83131 -0.290123 0
-0.626078 -0.160171 0
-0.617502 -0.347309 0
0.195515 0.236637 0
0.0793144 0.460597 0
0.350801 0.755196 0
0.0840863 0.97128 0
0.671631 0.160906 0
0.467738 0.30724 0
-0.0208796 0.161016 0
0.797445 0.0422954 0
-0.382097 -0.521125 0
0.354953 -0.328841 0
0.0488958 -0.482503 0
-0.219093 -0.717356 0
0.0172978 0.372523 0
-0.42526 -0.503839 0
-0.475165 0.501196 0
-0.499947 0.251453 0
-0.129004 -0.0985903 0
-0.435351 0.66946 0
0.642356 -0.0703427 0
0.107308 0.471819 0
0.393412 0.283596 0
0.730794 0.168938 0
-0.331263 -0.171281 0
0.648968 -0.116366 0
-0.196466 -0.662103 0
0.032209 -0.558693 0
0.149884 -0.0624257 0
-0.362094 -0.711755 0
-0.260259 0.591468 0
-0.462262 -0.142978 0
-0.442308 0.198906 0
-0.511702 0.548418 0
0.313966 -0.201242 0
-0.223708 0.620206 0
0.466612 -0.269855 0
0.146363 -0.120692 0
-0.248985 0.669563 0
-0.00873059 0.558042 0
-0.821656 0.149256 0
-0.332836 0.284867 0
0.162757 -0.385269 0
0.161019 -0.289746 0
0.849455 0.334128 0
0.598155 -0.0663823 0
0.000395537 0.539026 0
0.0313409 0.1871 0
-0.455366 -0.550409 0
-0.478913 -0.286582 0
0.281569 -0.786203 0
-0.0802839 -0.430678 0
0.252274 0.333587 0
0.170418 0.284319 0
-0.714091 0.568586 0
-0.241589 0.551209 0
-0.467008 -0.26917 0
-0.177704 -0.066408 0
0.704351 -0.119154 0
0.487644 -0.27146 0
0.540088 0.636947 0
0.41312 0.145811 0
-0.415031 0.0516823 0
-0.331437 0.00542635 0
-0.135364 -0.902714 0
-0.356566 -0.484826 0
