# vtk DataFile Version 3.0
tp3485 cell-vector
ASCII
DATASET UNSTRUCTURED_GRID
POINTS 121 double
0 0 0
0.125 0 0
0.114193 0.0508421 0
0.0836413 0.0928931 0
0.0386271 0.118882 0
-0.0130661 0.124315 0
-0.0625 0.108253 0
-0.101127 0.0734732 0
-0.122268 0.025989 0
-0.122268 -0.025989 0
-0.101127 -0.0734732 0
-0.0625 -0.108253 0
-0.0130661 -0.124315 0
0.0386271 -0.118882 0
0.0836413 -0.0928931 0
0.114193 -0.0508421 0
0.25 0 0
0.228386 0.101684 0
0.167283 0.185786 0
0.0772542 0.237764 0
-0.0261321 0.24863 0
-0.125 0.216506 0
-0.202254 0.146946 0
-0.244537 0.0519779 0
-0.244537 -0.0519779 0
-0.202254 -0.146946 0
-0.125 -0.216506 0
-0.0261321 -0.24863 0
0.0772542 -0.237764 0
0.167283 -0.185786 0
0.228386 -0.101684 0
0.375 0 0
0.34258 0.152526 0
0.250924 0.278679 0
0.115881 0.356646 0
-0.0391982 0.372946 0
-0.1875 0.32476 0
-0.303381 0.220419 0
-0.366805 0.0779669 0
-0.366805 -0.0779669 0
-0.303381 -0.220419 0
-0.1875 -0.32476 0
-0.0391982 -0.372946 0
0.115881 -0.356646 0
0.250924 -0.278679 0
0.34258 -0.152526 0
0.5 0 0
0.456773 0.203368 0
0.334565 0.371572 0
0.154508 0.475528 0
-0.0522642 0.497261 0
-0.25 0.433013 0
-0.404508 0.293893 0
-0.489074 0.103956 0
-0.489074 -0.103956 0
-0.404508 -0.293893 0
-0.25 -0.433013 0
-0.0522642 -0.497261 0
0.154508 -0.475528 0
0.334565 -0.371572 0
0.456773 -0.203368 0
0.625 0 0
0.570966 0.25421 0
0.418207 0.464466 0
0.193136 0.59441 0
-0.0653303 0.621576 0
-0.3125 0.541266 0
-0.505636 0.367366 0
-0.611342 0.129945 0
-0.611342 -0.129945 0
-0.505636 -0.367366 0
-0.3125 -0.541266 0
-0.0653303 -0.621576 0
0.193136 -0.59441 0
0.418207 -0.464466 0
0.570966 -0.25421 0
0.75 0 0
0.685159 0.305052 0
0.501848 0.557359 0
0.231763 0.713292 0
-0.0783963 0.745891 0
-0.375 0.649519 0
-0.606763 0.440839 0
-0.733611 0.155934 0
-0.733611 -0.155934 0
-0.606763 -0.440839 0
-0.375 -0.649519 0
-0.0783963 -0.745891 0
0.231763 -0.713292 0
0.501848 -0.557359 0
0.685159 -0.305052 0
0.875 0 0
0.799352 0.355895 0
0.585489 0.650252 0
0.27039 0.832174 0
-0.0914624 0.870207 0
-0.4375 0.757772 0
-0.70789 0.514312 0
-0.855879 0.181923 0
-0.855879 -0.181923 0
-0.70789 -0.514312 0
-0.4375 -0.757772 0
-0.0914624 -0.870207 0
0.27039 -0.832174 0
0.585489 -0.650252 0
0.799352 -0.355895 0
1 0 0
0.913545 0.406737 0
0.669131 0.743145 0
0.309017 0.951057 0
-0.104528 0.994522 0
-0.5 0.866025 0
-0.809017 0.587785 0
-0.978148 0.207912 0
-0.978148 -0.207912 0
-0.809017 -0.587785 0
-0.5 -0.866025 0
-0.104528 -0.994522 0
0.309017 -0.951057 0
0.669131 -0.743145 0
0.913545 -0.406737 0
CELLS 225 900
3 0 1 2
3 0 2 3
3 0 3 4
3 0 4 5
3 0 5 6
3 0 6 7
3 0 7 8
3 0 8 9
3 0 9 10
3 0 10 11
3 0 11 12
3 0 12 13
3 0 13 14
3 0 14 15
3 0 15 1
3 1 16 17
3 1 17 2
3 2 17 18
3 2 18 3
3 3 18 19
3 3 19 4
3 4 19 20
3 4 20 5
3 5 20 21
3 5 21 6
3 6 21 22
3 6 22 7
3 7 22 23
3 7 23 8
3 8 23 24
3 8 24 9
3 9 24 25
3 9 25 10
3 10 25 26
3 10 26 11
3 11 26 27
3 11 27 12
3 12 27 28
3 12 28 13
3 13 28 29
3 13 29 14
3 14 29 30
3 14 30 15
3 15 30 16
3 15 16 1
3 16 31 32
3 16 32 17
3 17 32 33
3 17 33 18
3 18 33 34
3 18 34 19
3 19 34 35
3 19 35 20
3 20 35 36
3 20 36 21
3 21 36 37
3 21 37 22
3 22 37 38
3 22 38 23
3 23 38 39
3 23 39 24
3 24 39 40
3 24 40 25
3 25 40 41
3 25 41 26
3 26 41 42
3 26 42 27
3 27 42 43
3 27 43 28
3 28 43 44
3 28 44 29
3 29 44 45
3 29 45 30
3 30 45 31
3 30 31 16
3 31 46 47
3 31 47 32
3 32 47 48
3 32 48 33
3 33 48 49
3 33 49 34
3 34 49 50
3 34 50 35
3 35 50 51
3 35 51 36
3 36 51 52
3 36 52 37
3 37 52 53
3 37 53 38
3 38 53 54
3 38 54 39
3 39 54 55
3 39 55 40
3 40 55 56
3 40 56 41
3 41 56 57
3 41 57 42
3 42 57 58
3 42 58 43
3 43 58 59
3 43 59 44
3 44 59 60
3 44 60 45
3 45 60 46
3 45 46 31
3 46 61 62
3 46 62 47
3 47 62 63
3 47 63 48
3 48 63 64
3 48 64 49
3 49 64 65
3 49 65 50
3 50 65 66
3 50 66 51
3 51 66 67
3 51 67 52
3 52 67 68
3 52 68 53
3 53 68 69
3 53 69 54
3 54 69 70
3 54 70 55
3 55 70 71
3 55 71 56
3 56 71 72
3 56 72 57
3 57 72 73
3 57 73 58
3 58 73 74
3 58 74 59
3 59 74 75
3 59 75 60
3 60 75 61
3 60 61 46
3 61 76 77
3 61 77 62
3 62 77 78
3 62 78 63
3 63 78 79
3 63 79 64
3 64 79 80
3 64 80 65
3 65 80 81
3 65 81 66
3 66 81 82
3 66 82 67
3 67 82 83
3 67 83 68
3 68 83 84
3 68 84 69
3 69 84 85
3 69 85 70
3 70 85 86
3 70 86 71
3 71 86 87
3 71 87 72
3 72 87 88
3 72 88 73
3 73 88 89
3 73 89 74
3 74 89 90
3 74 90 75
3 75 90 76
3 75 76 61
3 76 91 92
3 76 92 77
3 77 92 93
3 77 93 78
3 78 93 94
3 78 94 79
3 79 94 95
3 79 95 80
3 80 95 96
3 80 96 81
3 81 96 97
3 81 97 82
3 82 97 98
3 82 98 83
3 83 98 99
3 83 99 84
3 84 99 100
3 84 100 85
3 85 100 101
3 85 101 86
3 86 101 102
3 86 102 87
3 87 102 103
3 87 103 88
3 88 103 104
3 88 104 89
3 89 104 105
3 89 105 90
3 90 105 91
3 90 91 76
3 91 106 107
3 91 107 92
3 92 107 108
3 92 108 93
3 93 108 109
3 93 109 94
3 94 109 110
3 94 110 95
3 95 110 111
3 95 111 96
3 96 111 112
3 96 112 97
3 97 112 113
3 97 113 98
3 98 113 114
3 98 114 99
3 99 114 115
3 99 115 100
3 100 115 116
3 100 116 101
3 101 116 117
3 101 117 102
3 102 117 118
3 102 118 103
3 103 118 119
3 103 119 104
3 104 119 120
3 104 120 105
3 105 120 106
3 105 106 91
CELL_TYPES 225
5
5
5
5
5
5
5
5
5
5
5
5
5
5
5
5
5
5
5
5
5
5
5
5
5
5
5
5
5
5
5
5
5
5
5
5
5
5
5
5
5
5
5
5
5
5
5
5
5
5
5
5
5
5
5
5
5
5
5
5
5
5
5
5
5
5
5
5
5
5
5
5
5
5
5
5
5
5
5
5
5
5
5
5
5
5
5
5
5
5
5
5
5
5
5
5
5
5
5
5
5
5
5
5
5
5
5
5
5
5
5
5
5
5
5
5
5
5
5
5
5
5
5
5
5
5
5
5
5
5
5
5
5
5
5
5
5
5
5
5
5
5
5
5
5
5
5
5
5
5
5
5
5
5
5
5
5
5
5
5
5
5
5
5
5
5
5
5
5
5
5
5
5
5
5
5
5
5
5
5
5
5
5
5
5
5
5
5
5
5
5
5
5
5
5
5
5
5
5
5
5
5
5
5
5
5
5
5
5
5
5
5
5
5
5
5
5
5
5
5
5
5
5
5
5
CELL_DATA 225
VECTORS Ht double
-0.317002 0.439377 0
-0.339395 0.546664 0
-0.173855 0.42517 0
0.189373 0.311594 0
0.494208 0.328728 0
0.530111 0.321669 0
0.386606 0.0945802 0
0.305501 -0.283121 0
0.339199 -0.530433 0
0.288597 -0.501441 0
0.00461623 -0.353099 0
-0.367911 -0.308113 0
-0.547574 -0.344109 0
-0.46493 -0.239172 0
-0.327545 0.0917073 0
-0.733795 0.438258 0
-0.463807 0.298167 0
-0.456827 0.629746 0
-0.0542212 0.604518 0
-0.0845896 0.773307 0
0.136588 0.854711 0
0.249327 0.817479 0
0.187278 0.755077 0
0.491128 0.680552 0
0.361733 0.35165 0
0.67067 0.367061 0
0.68665 -0.0176069 0
0.797257 -0.00654255 0
0.868337 -0.151888 0
0.802272 -0.318053 0
0.671728 -0.211539 0
0.615619 -0.540247 0
0.242469 -0.436652 0
0.273515 -0.708777 0
-0.0725663 -0.759497 0
-0.0932198 -0.813643 0
-0.162047 -0.856045 0
-0.380827 -0.774467 0
-0.24801 -0.572643 0
-0.586305 -0.540417 0
-0.519241 -0.141859 0
-0.743353 -0.178602 0
-0.817194 0.111415 0
-0.820873 0.174345 0
-0.817698 0.172191 0
-0.758518 0.0347991 0
-0.602505 0.201775 0
-0.164867 0.229077 0
-0.0677141 0.519297 0
0.207157 0.730724 0
0.187654 0.91075 0
0.13607 0.975353 0
0.164902 0.918436 0
0.0398682 0.623598 0
0.252934 0.46374 0
0.343085 0.0303307 0
0.628995 -0.0324712 0
0.839679 -0.223068 0
0.96204 -0.195593 0
0.940952 -0.0909166 0
0.837609 -0.161174 0
0.472234 -0.0737142 0
0.322675 -0.325176 0
-0.0797246 -0.471503 0
-0.108756 -0.736528 0
-0.211587 -0.921451 0
-0.189618 -0.981858 0
-0.0541623 -0.866958 0
-0.17195 -0.729941 0
-0.137507 -0.315582 0
-0.415682 -0.18809 0
-0.604367 0.159693 0
-0.833211 0.159995 0
-0.968313 0.179618 0
-0.967373 0.176839 0
-0.465866 -0.48585 0
-0.414038 -0.230423 0
0.29498 -0.401441 0
0.190686 -0.0523926 0
0.529811 0.341079 0
0.367451 0.501614 0
-0.0336375 0.754781 0
0.00966465 0.706616 0
-0.553008 0.282505 0
-0.24591 0.260428 0
-0.24644 -0.435683 0
0.076254 -0.295465 0
0.515839 -0.44486 0
0.612135 -0.311231 0
0.713916 0.211582 0
0.647185 0.0937345 0
0.0818799 0.561598 0
0.0993142 0.220221 0
-0.526053 0.0590379 0
-0.361846 -0.220379 0
-0.312707 -0.650794 0
-0.22522 -0.687549 0
0.367808 -0.61442 0
0.17725 -0.546797 0
0.509717 0.116891 0
0.154084 0.0554181 0
-0.14318 0.558149 0
-0.36674 0.38578 0
-0.733058 0.147427 0
-0.720269 0.120427 0
-0.1068 -0.691053 0
0.0477219 -0.610265 0
0.476159 -0.793865 0
0.575346 -0.607291 0
0.57216 -0.169594 0
0.54851 -0.0563969 0
-0.116753 0.281443 0
-0.135001 0.208408 0
-0.804817 -0.0311868 0
-0.687424 -0.188578 0
-0.679687 -0.577763 0
-0.492561 -0.643853 0
-0.00112057 -0.457355 0
0.0681109 -0.418223 0
0.273015 0.33195 0
0.162029 0.322637 0
-0.18604 0.8613 0
-0.333903 0.711869 0
-0.632264 0.52672 0
-0.664354 0.352257 0
-0.295131 -0.138273 0
-0.251508 -0.15916 0
0.528945 -0.212274 0
0.485467 -0.0734786 0
0.856938 0.340245 0
0.683522 0.467823 0
0.350774 0.631375 0
0.201558 0.632392 0
-0.235379 0.0983316 0
-0.207512 0.0618599 0
0.0813685 -0.35605 0
0.514399 -0.548359 0
0.127188 -0.596619 0
0.767627 -0.605833 0
0.161205 -0.482398 0
0.516529 -0.338183 0
-0.0688185 -0.197318 0
-0.148296 -0.297369 0
-0.443089 -0.0757039 0
-0.616381 -0.60184 0
-0.601085 -0.150562 0
-0.54773 -0.762112 0
-0.412684 -0.131318 0
-0.289616 -0.369099 0
-0.142738 0.162262 0
-0.353023 0.308104 0
-0.0842772 0.515233 0
-0.679803 0.646722 0
-0.167391 0.581531 0
-0.717941 0.476813 0
-0.0819001 0.337716 0
-0.201781 0.264595 0
0.260215 0.103575 0
0.444023 0.428134 0
0.567525 0.103154 0
0.641454 0.738015 0
0.540539 0.172345 0
0.403558 0.634975 0
0.263942 0.0141521 0
0.26698 0.0254392 0
0.0630865 0.261234 0
0.587735 -0.0359034 0
-0.452205 0.0910788 0
0.470354 0.00393957 0
-0.450503 -0.356477 0
0.15294 -0.151909 0
0.0135381 -0.405923 0
-0.0421349 -0.454647 0
0.274035 0.0844218 0
-0.0192664 -0.590779 0
-0.0216463 0.513928 0
-0.0116562 -0.397221 0
-0.426833 0.35639 0
-0.224178 -0.0823461 0
-0.319412 -0.124423 0
-0.516642 0.0517573 0
0.22768 -0.247251 0
-0.57099 0.00375492 0
0.534201 0.142277 0
-0.315951 0.0430966 0
0.239559 0.460962 0
-0.0248708 0.302526 0
-0.209753 0.201761 0
0.0483627 0.562279 0
-0.183993 -0.353978 0
-0.00547104 0.5298 0
0.258024 -0.51204 0
0.0904248 0.232556 0
0.454222 -0.111962 0
0.381344 -0.0169047 0
0.00587905 0.526426 0
0.0420988 0.431047 0
-0.512823 0.654248 0
-0.296914 0.563283 0
-0.595802 0.164102 0
-0.377442 0.20732 0
0.0116175 -0.180357 0
0.042981 -0.108247 0
0.632996 0.118787 0
0.518095 0.0328264 0
0.567414 0.601826 0
0.506332 0.362632 0
0.0308324 0.494732 0
0.0993568 0.311962 0
-0.164028 -0.202747 0
-0.117652 -0.183451 0
0.256851 -0.691108 0
0.12137 -0.5709 0
0.649287 -0.447553 0
0.401528 -0.421712 0
0.351945 0.0778224 0
0.214966 -0.00519841 0
-0.37914 0.103671 0
-0.31643 0.0944418 0
-0.697616 -0.393249 0
-0.585965 -0.21305 0
-0.308089 -0.648111 0
-0.318494 -0.40746 0
0.150676 -0.178491 0
0.0661692 -0.0934934 0
