# vtk DataFile Version 3.0
tp3485 cell-vector
ASCII
DATASET UNSTRUCTURED_GRID
POINTS 121 double
0 0 0
0.125 0 0
0.114193 0.0508421 0
0.0836413 0.0928931 0
0.0386271 0.118882 0
-0.0130661 0.124315 0
-0.0625 0.108253 0
-0.101127 0.0734732 0
-0.122268 0.025989 0
-0.122268 -0.025989 0
-0.101127 -0.0734732 0
-0.0625 -0.108253 0
-0.0130661 -0.124315 0
0.0386271 -0.118882 0
0.0836413 -0.0928931 0
0.114193 -0.0508421 0
0.25 0 0
0.228386 0.101684 0
0.167283 0.185786 0
0.0772542 0.237764 0
-0.0261321 0.24863 0
-0.125 0.216506 0
-0.202254 0.146946 0
-0.244537 0.0519779 0
-0.244537 -0.0519779 0
-0.202254 -0.146946 0
-0.125 -0.216506 0
-0.0261321 -0.24863 0
0.0772542 -0.237764 0
0.167283 -0.185786 0
0.228386 -0.101684 0
0.375 0 0
0.34258 0.152526 0
0.250924 0.278679 0
0.115881 0.356646 0
-0.0391982 0.372946 0
-0.1875 0.32476 0
-0.303381 0.220419 0
-0.366805 0.0779669 0
-0.366805 -0.0779669 0
-0.303381 -0.220419 0
-0.1875 -0.32476 0
-0.0391982 -0.372946 0
0.115881 -0.356646 0
0.250924 -0.278679 0
0.34258 -0.152526 0
0.5 0 0
0.456773 0.203368 0
0.334565 0.371572 0
0.154508 0.475528 0
-0.0522642 0.497261 0
-0.25 0.433013 0
-0.404508 0.293893 0
-0.489074 0.103956 0
-0.489074 -0.103956 0
-0.404508 -0.293893 0
-0.25 -0.433013 0
-0.0522642 -0.497261 0
0.154508 -0.475528 0
0.334565 -0.371572 0
0.456773 -0.203368 0
0.625 0 0
0.570966 0.25421 0
0.418207 0.464466 0
0.193136 0.59441 0
-0.0653303 0.621576 0
-0.3125 0.541266 0
-0.505636 0.367366 0
-0.611342 0.129945 0
-0.611342 -0.129945 0
-0.505636 -0.367366 0
-0.3125 -0.541266 0
-0.0653303 -0.621576 0
0.193136 -0.59441 0
0.418207 -0.464466 0
0.570966 -0.25421 0
0.75 0 0
0.685159 0.305052 0
0.501848 0.557359 0
0.231763 0.713292 0
-0.0783963 0.745891 0
-0.375 0.649519 0
-0.606763 0.440839 0
-0.733611 0.155934 0
-0.733611 -0.155934 0
-0.606763 -0.440839 0
-0.375 -0.649519 0
-0.0783963 -0.745891 0
0.231763 -0.713292 0
0.501848 -0.557359 0
0.685159 -0.305052 0
0.875 0 0
0.799352 0.355895 0
0.585489 0.650252 0
0.27039 0.832174 0
-0.0914624 0.870207 0
-0.4375 0.757772 0
-0.70789 0.514312 0
-0.855879 0.181923 0
-0.855879 -0.181923 0
-0.70789 -0.514312 0
-0.4375 -0.757772 0
-0.0914624 -0.870207 0
0.27039 -0.832174 0
0.585489 -0.650252 0
0.799352 -0.355895 0
1 0 0
0.913545 0.406737 0
0.669131 0.743145 0
0.309017 0.951057 0
-0.104528 0.994522 0
-0.5 0.866025 0
-0.809017 0.587785 0
-0.978148 0.207912 0
-0.978148 -0.207912 0
-0.809017 -0.587785 0
-0.5 -0.866025 0
-0.104528 -0.994522 0
0.309017 -0.951057 0
0.669131 -0.743145 0
0.913545 -0.406737 0
CELLS 225 900
3 0 1 2
3 0 2 3
3 0 3 4
3 0 4 5
3 0 5 6
3 0 6 7
3 0 7 8
3 0 8 9
3 0 9 10
3 0 10 11
3 0 11 12
3 0 12 13
3 0 13 14
3 0 14 15
3 0 15 1
3 1 16 17
3 1 17 2
3 2 17 18
3 2 18 3
3 3 18 19
3 3 19 4
3 4 19 20
3 4 20 5
3 5 20 21
3 5 21 6
3 6 21 22
3 6 22 7
3 7 22 23
3 7 23 8
3 8 23 24
3 8 24 9
3 9 24 25
3 9 25 10
3 10 25 26
3 10 26 11
3 11 26 27
3 11 27 12
3 12 27 28
3 12 28 13
3 13 28 29
3 13 29 14
3 14 29 30
3 14 30 15
3 15 30 16
3 15 16 1
3 16 31 32
3 16 32 17
3 17 32 33
3 17 33 18
3 18 33 34
3 18 34 19
3 19 34 35
3 19 35 20
3 20 35 36
3 20 36 21
3 21 36 37
3 21 37 22
3 22 37 38
3 22 38 23
3 23 38 39
3 23 39 24
3 24 39 40
3 24 40 25
3 25 40 41
3 25 41 26
3 26 41 42
3 26 42 27
3 27 42 43
3 27 43 28
3 28 43 44
3 28 44 29
3 29 44 45
3 29 45 30
3 30 45 31
3 30 31 16
3 31 46 47
3 31 47 32
3 32 47 48
3 32 48 33
3 33 48 49
3 33 49 34
3 34 49 50
3 34 50 35
3 35 50 51
3 35 51 36
3 36 51 52
3 36 52 37
3 37 52 53
3 37 53 38
3 38 53 54
3 38 54 39
3 39 54 55
3 39 55 40
3 40 55 56
3 40 56 41
3 41 56 57
3 41 57 42
3 42 57 58
3 42 58 43
3 43 58 59
3 43 59 44
3 44 59 60
3 44 60 45
3 45 60 46
3 45 46 31
3 46 61 62
3 46 62 47
3 47 62 63
3 47 63 48
3 48 63 64
3 48 64 49
3 49 64 65
3 49 65 50
3 50 65 66
3 50 66 51
3 51 66 67
3 51 67 52
3 52 67 68
3 52 68 53
3 53 68 69
3 53 69 54
3 54 69 70
3 54 70 55
3 55 70 71
3 55 71 56
3 56 71 72
3 56 72 57
3 57 72 73
3 57 73 58
3 58 73 74
3 58 74 59
3 59 74 75
3 59 75 60
3 60 75 61
3 60 61 46
3 61 76 77
3 61 77 62
3 62 77 78
3 62 78 63
3 63 78 79
3 63 79 64
3 64 79 80
3 64 80 65
3 65 80 81
3 65 81 66
3 66 81 82
3 66 82 67
3 67 82 83
3 67 83 68
3 68 83 84
3 68 84 69
3 69 84 85
3 69 85 70
3 70 85 86
3 70 86 71
3 71 86 87
3 71 87 72
3 72 87 88
3 72 88 73
3 73 88 89
3 73 89 74
3 74 89 90
3 74 90 75
3 75 90 76
3 75 76 61
3 76 91 92
3 76 92 77
3 77 92 93
3 77 93 78
3 78 93 94
3 78 94 79
3 79 94 95
3 79 95 80
3 80 95 96
3 80 96 81
3 81 96 97
3 81 97 82
3 82 97 98
3 82 98 83
3 83 98 99
3 83 99 84
3 84 99 100
3 84 100 85
3 85 100 101
3 85 101 86
3 86 101 102
3 86 102 87
3 87 102 103
3 87 103 88
3 88 103 104
3 88 104 89
3 89 104 105
3 89 105 90
3 90 105 91
3 90 91 76
3 91 106 107
3 91 107 92
3 92 107 108
3 92 108 93
3 93 108 109
3 93 109 94
3 94 109 110
3 94 110 95
3 95 110 111
3 95 111 96
3 96 111 112
3 96 112 97
3 97 112 113
3 97 113 98
3 98 113 114
3 98 114 99
3 99 114 115
3 99 115 100
3 100 115 116
3 100 116 101
3 101 116 117
3 101 117 102
3 102 117 118
3 102 118 103
3 103 118 119
3 103 119 104
3 104 119 120
3 104 120 105
3 105 120 106
3 105 106 91
CELL_TYPES 225
5
5
5
5
5
5
5
5
5
5
5
5
5
5
5
5
5
5
5
5
5
5
5
5
5
5
5
5
5
5
5
5
5
5
5
5
5
5
5
5
5
5
5
5
5
5
5
5
5
5
5
5
5
5
5
5
5
5
5
5
5
5
5
5
5
5
5
5
5
5
5
5
5
5
5
5
5
5
5
5
5
5
5
5
5
5
5
5
5
5
5
5
5
5
5
5
5
5
5
5
5
5
5
5
5
5
5
5
5
5
5
5
5
5
5
5
5
5
5
5
5
5
5
5
5
5
5
5
5
5
5
5
5
5
5
5
5
5
5
5
5
5
5
5
5
5
5
5
5
5
5
5
5
5
5
5
5
5
5
5
5
5
5
5
5
5
5
5
5
5
5
5
5
5
5
5
5
5
5
5
5
5
5
5
5
5
5
5
5
5
5
5
5
5
5
5
5
5
5
5
5
5
5
5
5
5
5
5
5
5
5
5
5
5
5
5
5
5
5
5
5
5
5
5
5
CELL_DATA 225
VECTORS Et double
-0.0266211 0.0504088 0
-0.0303925 0.0601401 0
0.0229965 0.0123685 0
0.0749041 -0.00489146 0
0.0373245 -0.00929846 0
-0.0303447 -0.0482589 0
-0.0368866 -0.0563907 0
-0.0222097 0.0137313 0
-0.0332159 0.0673146 0
-0.0106096 0.0369732 0
0.0569658 -0.00214984 0
0.0672791 -0.00374937 0
-0.000786792 -0.0260998 0
-0.0416882 -0.0624231 0
-0.026715 -0.0276748 0
-0.143918 0.141196 0
-0.0434779 0.0436953 0
-0.100148 0.182867 0
0.0613785 0.123582 0
0.0987167 0.0905463 0
0.0651531 0.0882763 0
0.235883 0.028 0
0.065364 -0.0620866 0
0.127376 -0.0588436 0
0.074518 -0.12611 0
-0.0503199 -0.195235 0
-0.0161023 -0.0595007 0
-0.108294 -0.178164 0
-0.137714 -0.00863569 0
-0.127774 0.040218 0
-0.109026 0.0122861 0
-0.14219 0.190281 0
0.0210865 0.0876502 0
-0.0127281 0.139733 0
0.0719553 0.127589 0
0.194238 0.0540392 0
0.0595802 0.0158053 0
0.208442 -0.00470309 0
0.0763359 -0.114946 0
0.0290571 -0.130764 0
0.043873 -0.100562 0
-0.093693 -0.218281 0
-0.0864506 -0.0255636 0
-0.114648 -0.0808894 0
-0.146473 -0.00147959 0
-0.330273 0.239832 0
-0.124811 0.131848 0
-0.185701 0.334084 0
0.103521 0.315087 0
0.210397 0.226906 0
0.16074 0.20845 0
0.434283 0.0954572 0
0.20324 -0.129667 0
0.249042 -0.145121 0
0.194698 -0.281054 0
-0.0425638 -0.405941 0
-0.0517783 -0.174014 0
-0.196475 -0.327864 0
-0.324634 -0.0678917 0
-0.301705 0.0687564 0
-0.260893 0.0349793 0
-0.29981 0.328372 0
0.0106751 0.240845 0
0.00115745 0.288237 0
0.146051 0.309141 0
0.372837 0.166109 0
0.176589 0.0421654 0
0.382176 -0.00622039 0
0.221113 -0.247195 0
0.0913076 -0.295662 0
0.100154 -0.24343 0
-0.134473 -0.423829 0
-0.213915 -0.111178 0
-0.2502 -0.143116 0
-0.340749 -0.0280868 0
-0.540523 0.31016 0
-0.234792 0.226069 0
-0.252975 0.471171 0
0.144851 0.530858 0
0.330903 0.396581 0
0.273446 0.35935 0
0.606558 0.179814 0
0.361636 -0.191231 0
0.370563 -0.257275 0
0.33633 -0.460724 0
0.00165474 -0.623186 0
-0.0783861 -0.31637 0
-0.281558 -0.454668 0
-0.532162 -0.139985 0
-0.5089 0.0882797 0
-0.447929 0.0571362 0
-0.459002 0.435388 0
-0.0152075 0.408802 0
0.0375252 0.449554 0
0.230834 0.521632 0
0.538868 0.313026 0
0.313178 0.0903008 0
0.534533 -0.0165029 0
0.387311 -0.390874 0
0.177998 -0.484861 0
0.174483 -0.416486 0
-0.147556 -0.615202 0
-0.346429 -0.217571 0
-0.408088 -0.192279 0
-0.567164 -0.0609079 0
-0.729328 0.320041 0
-0.35514 0.285031 0
-0.269437 0.552371 0
0.189586 0.70587 0
0.434874 0.571987 0
0.379055 0.519391 0
0.692527 0.262885 0
0.481159 -0.224674 0
0.459001 -0.383398 0
0.460486 -0.635132 0
0.0875006 -0.791637 0
-0.0692742 -0.450076 0
-0.343649 -0.509525 0
-0.706094 -0.188749 0
-0.712793 0.0906188 0
-0.639333 0.068576 0
-0.573928 0.468304 0
-0.0460058 0.529033 0
0.102532 0.589205 0
0.319798 0.716359 0
0.641828 0.471596 0
0.424414 0.165045 0
0.613086 -0.0428464 0
0.516509 -0.517121 0
0.277918 -0.662606 0
0.260278 -0.587967 0
-0.118599 -0.731188 0
-0.435153 -0.304359 0
-0.561533 -0.205807 0
-0.780284 -0.0812267 0
-0.856758 0.249723 0
-0.463359 0.275843 0
-0.213346 0.544843 0
0.242492 0.782837 0
0.501447 0.723588 0
0.455163 0.662716 0
0.648878 0.328567 0
0.509897 -0.215438 0
0.485961 -0.508199 0
0.529975 -0.775156 0
0.212113 -0.866836 0
-0.00720757 -0.539202 0
-0.365175 -0.457185 0
-0.799202 -0.181414 0
-0.877369 0.0724719 0
-0.801511 0.0628251 0
-0.608987 0.397662 0
-0.0683735 0.549303 0
0.197133 0.674954 0
0.406318 0.84655 0
0.644646 0.617113 0
0.470567 0.263359 0
0.578521 -0.0876583 0
0.55671 -0.601423 0
0.375922 -0.796059 0
0.346347 -0.725541 0
-0.0398917 -0.726229 0
-0.441523 -0.333864 0
-0.683094 -0.166755 0
-0.936293 -0.0713938 0
-0.894963 0.09841 0
-0.534295 0.182656 0
-0.0818729 0.432258 0
0.306823 0.724965 0
0.517094 0.822711 0
0.484245 0.761283 0
0.461156 0.366096 0
0.415487 -0.16156 0
0.433731 -0.612154 0
0.516917 -0.856035 0
0.362256 -0.824265 0
0.108963 -0.55404 0
-0.33341 -0.287033 0
-0.78125 -0.0967665 0
-0.971036 0.0364614 0
-0.901413 0.0387274 0
-0.547627 0.216325 0
-0.0678284 0.440602 0
0.313275 0.681699 0
0.48289 0.875681 0
0.532707 0.725855 0
0.425332 0.371385 0
0.415283 -0.145225 0
0.474427 -0.628199 0
0.453941 -0.859172 0
0.417168 -0.80001 0
0.0864704 -0.582421 0
-0.347658 -0.279042 0
-0.747007 -0.0695452 0
-0.999807 -0.0196457 0
-0.833237 -0.112639 0
-0.543342 0.0126565 0
0.104332 0.220274 0
0.382184 0.526392 0
0.477371 0.84518 0
0.456432 0.788587 0
0.15095 0.372264 0
0.194924 -0.0762685 0
0.300315 -0.672165 0
0.409848 -0.860924 0
0.514167 -0.665284 0
0.26071 -0.476876 0
-0.24293 -0.0197827 0
-0.646961 0.0677854 0
-0.970633 -0.00917453 0
-0.911152 0.000987812 0
-0.397865 -0.0554058 0
-0.0314113 0.206943 0
0.431955 0.596163 0
0.540658 0.785401 0
0.31907 0.777924 0
0.282632 0.46422 0
0.138597 -0.200492 0
0.264776 -0.594177 0
0.493262 -0.836006 0
0.454721 -0.789575 0
0.246915 -0.316858 0
-0.163512 -0.130675 0
-0.73227 0.0760019 0
-0.950507 0.0755231 0
