# vtk DataFile Version 3.0
tp3485 cell-vector
ASCII
DATASET UNSTRUCTURED_GRID
POINTS 121 double
0 0 0
0.125 0 0
0.114193 0.0508421 0
0.0836413 0.0928931 0
0.0386271 0.118882 0
-0.0130661 0.124315 0
-0.0625 0.108253 0
-0.101127 0.0734732 0
-0.122268 0.025989 0
-0.122268 -0.025989 0
-0.101127 -0.0734732 0
-0.0625 -0.108253 0
-0.0130661 -0.124315 0
0.0386271 -0.118882 0
0.0836413 -0.0928931 0
0.114193 -0.0508421 0
0.25 0 0
0.228386 0.101684 0
0.167283 0.185786 0
0.0772542 0.237764 0
-0.0261321 0.24863 0
-0.125 0.216506 0
-0.202254 0.146946 0
-0.244537 0.0519779 0
-0.244537 -0.0519779 0
-0.202254 -0.146946 0
-0.125 -0.216506 0
-0.0261321 -0.24863 0
0.0772542 -0.237764 0
0.167283 -0.185786 0
0.228386 -0.101684 0
0.375 0 0
0.34258 0.152526 0
0.250924 0.278679 0
0.115881 0.356646 0
-0.0391982 0.372946 0
-0.1875 0.32476 0
-0.303381 0.220419 0
-0.366805 0.0779669 0
-0.366805 -0.0779669 0
-0.303381 -0.220419 0
-0.1875 -0.32476 0
-0.0391982 -0.372946 0
0.115881 -0.356646 0
0.250924 -0.278679 0
0.34258 -0.152526 0
0.5 0 0
0.456773 0.203368 0
0.334565 0.371572 0
0.154508 0.475528 0
-0.0522642 0.497261 0
-0.25 0.433013 0
-0.404508 0.293893 0
-0.489074 0.103956 0
-0.489074 -0.103956 0
-0.404508 -0.293893 0
-0.25 -0.433013 0
-0.0522642 -0.497261 0
0.154508 -0.475528 0
0.334565 -0.371572 0
0.456773 -0.203368 0
0.625 0 0
0.570966 0.25421 0
0.418207 0.464466 0
0.193136 0.59441 0
-0.0653303 0.621576 0
-0.3125 0.541266 0
-0.505636 0.367366 0
-0.611342 0.129945 0
-0.611342 -0.129945 0
-0.505636 -0.367366 0
-0.3125 -0.541266 0
-0.0653303 -0.621576 0
0.193136 -0.59441 0
0.418207 -0.464466 0
0.570966 -0.25421 0
0.75 0 0
0.685159 0.305052 0
0.501848 0.557359 0
0.231763 0.713292 0
-0.0783963 0.745891 0
-0.375 0.649519 0
-0.606763 0.440839 0
-0.733611 0.155934 0
-0.733611 -0.155934 0
-0.606763 -0.440839 0
-0.375 -0.649519 0
-0.0783963 -0.745891 0
0.231763 -0.713292 0
0.501848 -0.557359 0
0.685159 -0.305052 0
0.875 0 0
0.799352 0.355895 0
0.585489 0.650252 0
0.27039 0.832174 0
-0.0914624 0.870207 0
-0.4375 0.757772 0
-0.70789 0.514312 0
-0.855879 0.181923 0
-0.855879 -0.181923 0
-0.70789 -0.514312 0
-0.4375 -0.757772 0
-0.0914624 -0.870207 0
0.27039 -0.832174 0
0.585489 -0.650252 0
0.799352 -0.355895 0
1 0 0
0.913545 0.406737 0
0.669131 0.743145 0
0.309017 0.951057 0
-0.104528 0.994522 0
-0.5 0.866025 0
-0.809017 0.587785 0
-0.978148 0.207912 0
-0.978148 -0.207912 0
-0.809017 -0.587785 0
-0.5 -0.866025 0
-0.104528 -0.994522 0
0.309017 -0.951057 0
0.669131 -0.743145 0
0.913545 -0.406737 0
CELLS 225 900
3 0 1 2
3 0 2 3
3 0 3 4
3 0 4 5
3 0 5 6
3 0 6 7
3 0 7 8
3 0 8 9
3 0 9 10
3 0 10 11
3 0 11 12
3 0 12 13
3 0 13 14
3 0 14 15
3 0 15 1
3 1 16 17
3 1 17 2
3 2 17 18
3 2 18 3
3 3 18 19
3 3 19 4
3 4 19 20
3 4 20 5
3 5 20 21
3 5 21 6
3 6 21 22
3 6 22 7
3 7 22 23
3 7 23 8
3 8 23 24
3 8 24 9
3 9 24 25
3 9 25 10
3 10 25 26
3 10 26 11
3 11 26 27
3 11 27 12
3 12 27 28
3 12 28 13
3 13 28 29
3 13 29 14
3 14 29 30
3 14 30 15
3 15 30 16
3 15 16 1
3 16 31 32
3 16 32 17
3 17 32 33
3 17 33 18
3 18 33 34
3 18 34 19
3 19 34 35
3 19 35 20
3 20 35 36
3 20 36 21
3 21 36 37
3 21 37 22
3 22 37 38
3 22 38 23
3 23 38 39
3 23 39 24
3 24 39 40
3 24 40 25
3 25 40 41
3 25 41 26
3 26 41 42
3 26 42 27
3 27 42 43
3 27 43 28
3 28 43 44
3 28 44 29
3 29 44 45
3 29 45 30
3 30 45 31
3 30 31 16
3 31 46 47
3 31 47 32
3 32 47 48
3 32 48 33
3 33 48 49
3 33 49 34
3 34 49 50
3 34 50 35
3 35 50 51
3 35 51 36
3 36 51 52
3 36 52 37
3 37 52 53
3 37 53 38
3 38 53 54
3 38 54 39
3 39 54 55
3 39 55 40
3 40 55 56
3 40 56 41
3 41 56 57
3 41 57 42
3 42 57 58
3 42 58 43
3 43 58 59
3 43 59 44
3 44 59 60
3 44 60 45
3 45 60 46
3 45 46 31
3 46 61 62
3 46 62 47
3 47 62 63
3 47 63 48
3 48 63 64
3 48 64 49
3 49 64 65
3 49 65 50
3 50 65 66
3 50 66 51
3 51 66 67
3 51 67 52
3 52 67 68
3 52 68 53
3 53 68 69
3 53 69 54
3 54 69 70
3 54 70 55
3 55 70 71
3 55 71 56
3 56 71 72
3 56 72 57
3 57 72 73
3 57 73 58
3 58 73 74
3 58 74 59
3 59 74 75
3 59 75 60
3 60 75 61
3 60 61 46
3 61 76 77
3 61 77 62
3 62 77 78
3 62 78 63
3 63 78 79
3 63 79 64
3 64 79 80
3 64 80 65
3 65 80 81
3 65 81 66
3 66 81 82
3 66 82 67
3 67 82 83
3 67 83 68
3 68 83 84
3 68 84 69
3 69 84 85
3 69 85 70
3 70 85 86
3 70 86 71
3 71 86 87
3 71 87 72
3 72 87 88
3 72 88 73
3 73 88 89
3 73 89 74
3 74 89 90
3 74 90 75
3 75 90 76
3 75 76 61
3 76 91 92
3 76 92 77
3 77 92 93
3 77 93 78
3 78 93 94
3 78 94 79
3 79 94 95
3 79 95 80
3 80 95 96
3 80 96 81
3 81 96 97
3 81 97 82
3 82 97 98
3 82 98 83
3 83 98 99
3 83 99 84
3 84 99 100
3 84 100 85
3 85 100 101
3 85 101 86
3 86 101 102
3 86 102 87
3 87 102 103
3 87 103 88
3 88 103 104
3 88 104 89
3 89 104 105
3 89 105 90
3 90 105 91
3 90 91 76
3 91 106 107
3 91 107 92
3 92 107 108
3 92 108 93
3 93 108 109
3 93 109 94
3 94 109 110
3 94 110 95
3 95 110 111
3 95 111 96
3 96 111 112
3 96 112 97
3 97 112 113
3 97 113 98
3 98 113 114
3 98 114 99
3 99 114 115
3 99 115 100
3 100 115 116
3 100 116 101
3 101 116 117
3 101 117 102
3 102 117 118
3 102 118 103
3 103 118 119
3 103 119 104
3 104 119 120
3 104 120 105
3 105 120 106
3 105 106 91
CELL_TYPES 225
5
5
5
5
5
5
5
5
5
5
5
5
5
5
5
5
5
5
5
5
5
5
5
5
5
5
5
5
5
5
5
5
5
5
5
5
5
5
5
5
5
5
5
5
5
5
5
5
5
5
5
5
5
5
5
5
5
5
5
5
5
5
5
5
5
5
5
5
5
5
5
5
5
5
5
5
5
5
5
5
5
5
5
5
5
5
5
5
5
5
5
5
5
5
5
5
5
5
5
5
5
5
5
5
5
5
5
5
5
5
5
5
5
5
5
5
5
5
5
5
5
5
5
5
5
5
5
5
5
5
5
5
5
5
5
5
5
5
5
5
5
5
5
5
5
5
5
5
5
5
5
5
5
5
5
5
5
5
5
5
5
5
5
5
5
5
5
5
5
5
5
5
5
5
5
5
5
5
5
5
5
5
5
5
5
5
5
5
5
5
5
5
5
5
5
5
5
5
5
5
5
5
5
5
5
5
5
5
5
5
5
5
5
5
5
5
5
5
5
5
5
5
5
5
5
CELL_DATA 225
VECTORS Et double
0.000282138 -0.00722682 0
-0.00712123 0.00950248 0
0.00481121 -0.00115847 0
0.0069603 -0.00196488 0
-0.011238 -0.00383626 0
0.00258851 0.00421775 0
0.00401956 0.00601246 0
0.000175778 -0.0118734 0
-0.00321142 0.00376518 0
-0.00447607 0.00568078 0
0.0113466 -0.00350191 0
-0.00457328 -0.00189074 0
-0.00678593 -0.00250154 0
0.00683681 0.00970912 0
0.000384981 -0.00493372 0
0.00327006 -0.0429466 0
-0.0278643 -0.0128573 0
-0.0527007 0.0470778 0
0.0132319 0.0230649 0
0.0331891 0.00473432 0
0.00638344 0.00285767 0
0.0418551 -0.0101612 0
0.00361747 -0.0304737 0
-0.061059 -0.0355735 0
-0.0178472 0.0197117 0
0.00575339 0.0330277 0
-0.000745209 0.00695408 0
0.0225978 0.0366666 0
0.0301 -0.00597646 0
0.0149641 -0.0690634 0
-0.0242621 -0.0108824 0
-0.0296333 0.0156779 0
-0.00684401 0.00144019 0
-0.0278889 0.0328224 0
0.0149854 0.02678 0
0.0703074 -0.00711007 0
0.0028524 -0.0264374 0
-0.0240678 -0.0233382 0
-0.00348462 -0.00606399 0
-0.0398341 -0.0163812 0
-0.0208386 0.0225274 0
0.0284882 0.0646691 0
0.0260249 -0.00545683 0
0.0147586 -0.0301017 0
0.00469039 -0.00518795 0
0.0119471 -0.126666 0
-0.106478 -0.0630802 0
-0.175418 0.117295 0
0.0352697 0.101875 0
0.105835 0.0400728 0
0.0335858 0.0139241 0
0.124158 -0.0277796 0
0.0270893 -0.120759 0
-0.165761 -0.130587 0
-0.0859902 0.0650247 0
-0.0054066 0.113039 0
-0.00286406 0.0362447 0
0.064787 0.109497 0
0.12322 -0.0115532 0
0.0729724 -0.198002 0
-0.0884146 -0.0616878 0
-0.109177 0.0297889 0
-0.0353558 0.00847636 0
-0.0841178 0.0954526 0
0.0490648 0.113619 0
0.21086 0.008215 0
0.0313469 -0.10315 0
-0.0620684 -0.094628 0
-0.018987 -0.0310061 0
-0.116775 -0.0505043 0
-0.0928962 0.0817736 0
0.0573465 0.203079 0
0.107788 -0.00206234 0
0.0708164 -0.0882722 0
0.0236212 -0.0276392 0
0.0225391 -0.253763 0
-0.254723 -0.169392 0
-0.377973 0.197916 0
0.0596923 0.253107 0
0.222131 0.125981 0
0.0929764 0.0471372 0
0.248308 -0.056981 0
0.0823874 -0.2946 0
-0.305029 -0.298314 0
-0.222273 0.134985 0
-0.0511729 0.250189 0
-0.0160989 0.102992 0
0.130923 0.218546 0
0.305641 -0.0126814 0
0.189454 -0.382284 0
-0.197064 -0.169681 0
-0.253757 0.0286444 0
-0.102926 0.0165153 0
-0.167392 0.19205 0
0.106509 0.286763 0
0.422118 0.0620497 0
0.10048 -0.239854 0
-0.105658 -0.232486 0
-0.0475129 -0.092785 0
-0.234378 -0.0998529 0
-0.239815 0.189911 0
0.0714289 0.420633 0
0.259165 0.0214436 0
0.188457 -0.172329 0
0.0735615 -0.0738596 0
0.0209854 -0.387757 0
-0.462372 -0.317008 0
-0.611933 0.242886 0
0.0801418 0.439679 0
0.355617 0.270873 0
0.179425 0.121466 0
0.375264 -0.0998652 0
0.158612 -0.537703 0
-0.420096 -0.506927 0
-0.393395 0.212088 0
-0.147724 0.421917 0
-0.0600754 0.208178 0
0.21094 0.326037 0
0.5604 -0.0153108 0
0.352299 -0.556184 0
-0.323273 -0.308602 0
-0.446916 -0.0101143 0
-0.216554 0.00719556 0
-0.244895 0.301367 0
0.187734 0.528241 0
0.637829 0.163186 0
0.193601 -0.402814 0
-0.128485 -0.428168 0
-0.0737622 -0.203731 0
-0.362294 -0.139782 0
-0.444374 0.341781 0
0.0419005 0.657038 0
0.442925 0.059649 0
0.367507 -0.254508 0
0.170966 -0.133108 0
-0.0126177 -0.466225 0
-0.688549 -0.453059 0
-0.789326 0.196885 0
0.0962294 0.57598 0
0.463135 0.462527 0
0.270403 0.249522 0
0.439507 -0.156072 0
0.218111 -0.794851 0
-0.431164 -0.689853 0
-0.518053 0.269507 0
-0.296772 0.583396 0
-0.153751 0.334275 0
0.284248 0.369768 0
0.823349 -0.0381866 0
0.522852 -0.623237 0
-0.416404 -0.409416 0
-0.646551 -0.101968 0
-0.365426 -0.0429288 0
-0.263832 0.384601 0
0.290746 0.771251 0
0.754304 0.304671 0
0.260702 -0.52254 0
-0.102818 -0.646416 0
-0.0720952 -0.360807 0
-0.447306 -0.132071 0
-0.643658 0.514846 0
-0.0566662 0.811534 0
0.577526 0.0864682 0
0.583006 -0.297539 0
0.320869 -0.180062 0
-0.0910476 -0.42142 0
-0.866405 -0.499342 0
-0.817105 0.0211911 0
0.114333 0.560073 0
0.502828 0.662634 0
0.332009 0.419833 0
0.372659 -0.216817 0
0.207168 -0.978305 0
-0.272653 -0.770565 0
-0.497331 0.28181 0
-0.47482 0.682983 0
-0.296689 0.445495 0
0.321363 0.287419 0
0.994442 -0.105284 0
0.648596 -0.497426 0
-0.4217 -0.385906 0
-0.796283 -0.240527 0
-0.515372 -0.144502 0
-0.174045 0.394452 0
0.407431 0.913236 0
0.673508 0.463138 0
0.236705 -0.520312 0
-0.0173103 -0.831637 0
-0.0218288 -0.534802 0
-0.428929 -0.0436345 0
-0.742636 0.669695 0
-0.232345 0.783661 0
0.567992 0.0643349 0
0.785585 -0.273453 0
0.501881 -0.186023 0
-0.201446 -0.2122 0
-0.918511 -0.382623 0
-0.644668 -0.275869 0
0.146193 0.327781 0
0.453825 0.805923 0
0.330026 0.579707 0
0.139564 -0.25716 0
0.0800607 -0.991793 0
0.0631541 -0.698364 0
-0.266562 0.240328 0
-0.626238 0.680657 0
-0.44935 0.493013 0
0.287702 0.0532666 0
0.967991 -0.230339 0
0.683699 -0.155743 0
-0.310937 -0.17925 0
-0.840862 -0.385253 0
-0.60774 -0.275008 0
0.0382451 0.290081 0
0.518191 0.849436 0
0.359395 0.602109 0
0.074392 -0.35111 0
0.106557 -0.918757 0
0.0737466 -0.662977 0
-0.264065 0.126013 0
-0.647732 0.755319 0
-0.461581 0.527867 0
0.356914 -0.0377481 0
0.906718 -0.18257 0
0.653318 -0.134734 0
