# vtk DataFile Version 3.0
tp3485 cell-vector
ASCII
DATASET UNSTRUCTURED_GRID
POINTS 121 double
0 0 0
0.125 0 0
0.114193 0.0508421 0
0.0836413 0.0928931 0
0.0386271 0.118882 0
-0.0130661 0.124315 0
-0.0625 0.108253 0
-0.101127 0.0734732 0
-0.122268 0.025989 0
-0.122268 -0.025989 0
-0.101127 -0.0734732 0
-0.0625 -0.108253 0
-0.0130661 -0.124315 0
0.0386271 -0.118882 0
0.0836413 -0.0928931 0
0.114193 -0.0508421 0
0.25 0 0
0.228386 0.101684 0
0.167283 0.185786 0
0.0772542 0.237764 0
-0.0261321 0.24863 0
-0.125 0.216506 0
-0.202254 0.146946 0
-0.244537 0.0519779 0
-0.244537 -0.0519779 0
-0.202254 -0.146946 0
-0.125 -0.216506 0
-0.0261321 -0.24863 0
0.0772542 -0.237764 0
0.167283 -0.185786 0
0.228386 -0.101684 0
0.375 0 0
0.34258 0.152526 0
0.250924 0.278679 0
0.115881 0.356646 0
-0.0391982 0.372946 0
-0.1875 0.32476 0
-0.303381 0.220419 0
-0.366805 0.0779669 0
-0.366805 -0.0779669 0
-0.303381 -0.220419 0
-0.1875 -0.32476 0
-0.0391982 -0.372946 0
0.115881 -0.356646 0
0.250924 -0.278679 0
0.34258 -0.152526 0
0.5 0 0
0.456773 0.203368 0
0.334565 0.371572 0
0.154508 0.475528 0
-0.0522642 0.497261 0
-0.25 0.433013 0
-0.404508 0.293893 0
-0.489074 0.103956 0
-0.489074 -0.103956 0
-0.404508 -0.293893 0
-0.25 -0.433013 0
-0.0522642 -0.497261 0
0.154508 -0.475528 0
0.334565 -0.371572 0
0.456773 -0.203368 0
0.625 0 0
0.570966 0.25421 0
0.418207 0.464466 0
0.193136 0.59441 0
-0.0653303 0.621576 0
-0.3125 0.541266 0
-0.505636 0.367366 0
-0.611342 0.129945 0
-0.611342 -0.129945 0
-0.505636 -0.367366 0
-0.3125 -0.541266 0
-0.0653303 -0.621576 0
0.193136 -0.59441 0
0.418207 -0.464466 0
0.570966 -0.25421 0
0.75 0 0
0.685159 0.305052 0
0.501848 0.557359 0
0.231763 0.713292 0
-0.0783963 0.745891 0
-0.375 0.649519 0
-0.606763 0.440839 0
-0.733611 0.155934 0
-0.733611 -0.155934 0
-0.606763 -0.440839 0
-0.375 -0.649519 0
-0.0783963 -0.745891 0
0.231763 -0.713292 0
0.501848 -0.557359 0
0.685159 -0.305052 0
0.875 0 0
0.799352 0.355895 0
0.585489 0.650252 0
0.27039 0.832174 0
-0.0914624 0.870207 0
-0.4375 0.757772 0
-0.70789 0.514312 0
-0.855879 0.181923 0
-0.855879 -0.181923 0
-0.70789 -0.514312 0
-0.4375 -0.757772 0
-0.0914624 -0.870207 0
0.27039 -0.832174 0
0.585489 -0.650252 0
0.799352 -0.355895 0
1 0 0
0.913545 0.406737 0
0.669131 0.743145 0
0.309017 0.951057 0
-0.104528 0.994522 0
-0.5 0.866025 0
-0.809017 0.587785 0
-0.978148 0.207912 0
-0.978148 -0.207912 0
-0.809017 -0.587785 0
-0.5 -0.866025 0
-0.104528 -0.994522 0
0.309017 -0.951057 0
0.669131 -0.743145 0
0.913545 -0.406737 0
CELLS 225 900
3 0 1 2
3 0 2 3
3 0 3 4
3 0 4 5
3 0 5 6
3 0 6 7
3 0 7 8
3 0 8 9
3 0 9 10
3 0 10 11
3 0 11 12
3 0 12 13
3 0 13 14
3 0 14 15
3 0 15 1
3 1 16 17
3 1 17 2
3 2 17 18
3 2 18 3
3 3 18 19
3 3 19 4
3 4 19 20
3 4 20 5
3 5 20 21
3 5 21 6
3 6 21 22
3 6 22 7
3 7 22 23
3 7 23 8
3 8 23 24
3 8 24 9
3 9 24 25
3 9 25 10
3 10 25 26
3 10 26 11
3 11 26 27
3 11 27 12
3 12 27 28
3 12 28 13
3 13 28 29
3 13 29 14
3 14 29 30
3 14 30 15
3 15 30 16
3 15 16 1
3 16 31 32
3 16 32 17
3 17 32 33
3 17 33 18
3 18 33 34
3 18 34 19
3 19 34 35
3 19 35 20
3 20 35 36
3 20 36 21
3 21 36 37
3 21 37 22
3 22 37 38
3 22 38 23
3 23 38 39
3 23 39 24
3 24 39 40
3 24 40 25
3 25 40 41
3 25 41 26
3 26 41 42
3 26 42 27
3 27 42 43
3 27 43 28
3 28 43 44
3 28 44 29
3 29 44 45
3 29 45 30
3 30 45 31
3 30 31 16
3 31 46 47
3 31 47 32
3 32 47 48
3 32 48 33
3 33 48 49
3 33 49 34
3 34 49 50
3 34 50 35
3 35 50 51
3 35 51 36
3 36 51 52
3 36 52 37
3 37 52 53
3 37 53 38
3 38 53 54
3 38 54 39
3 39 54 55
3 39 55 40
3 40 55 56
3 40 56 41
3 41 56 57
3 41 57 42
3 42 57 58
3 42 58 43
3 43 58 59
3 43 59 44
3 44 59 60
3 44 60 45
3 45 60 46
3 45 46 31
3 46 61 62
3 46 62 47
3 47 62 63
3 47 63 48
3 48 63 64
3 48 64 49
3 49 64 65
3 49 65 50
3 50 65 66
3 50 66 51
3 51 66 67
3 51 67 52
3 52 67 68
3 52 68 53
3 53 68 69
3 53 69 54
3 54 69 70
3 54 70 55
3 55 70 71
3 55 71 56
3 56 71 72
3 56 72 57
3 57 72 73
3 57 73 58
3 58 73 74
3 58 74 59
3 59 74 75
3 59 75 60
3 60 75 61
3 60 61 46
3 61 76 77
3 61 77 62
3 62 77 78
3 62 78 63
3 63 78 79
3 63 79 64
3 64 79 80
3 64 80 65
3 65 80 81
3 65 81 66
3 66 81 82
3 66 82 67
3 67 82 83
3 67 83 68
3 68 83 84
3 68 84 69
3 69 84 85
3 69 85 70
3 70 85 86
3 70 86 71
3 71 86 87
3 71 87 72
3 72 87 88
3 72 88 73
3 73 88 89
3 73 89 74
3 74 89 90
3 74 90 75
3 75 90 76
3 75 76 61
3 76 91 92
3 76 92 77
3 77 92 93
3 77 93 78
3 78 93 94
3 78 94 79
3 79 94 95
3 79 95 80
3 80 95 96
3 80 96 81
3 81 96 97
3 81 97 82
3 82 97 98
3 82 98 83
3 83 98 99
3 83 99 84
3 84 99 100
3 84 100 85
3 85 100 101
3 85 101 86
3 86 101 102
3 86 102 87
3 87 102 103
3 87 103 88
3 88 103 104
3 88 104 89
3 89 104 105
3 89 105 90
3 90 105 91
3 90 91 76
3 91 106 107
3 91 107 92
3 92 107 108
3 92 108 93
3 93 108 109
3 93 109 94
3 94 109 110
3 94 110 95
3 95 110 111
3 95 111 96
3 96 111 112
3 96 112 97
3 97 112 113
3 97 113 98
3 98 113 114
3 98 114 99
3 99 114 115
3 99 115 100
3 100 115 116
3 100 116 101
3 101 116 117
3 101 117 102
3 102 117 118
3 102 118 103
3 103 118 119
3 103 119 104
3 104 119 120
3 104 120 105
3 105 120 106
3 105 106 91
CELL_TYPES 225
5
5
5
5
5
5
5
5
5
5
5
5
5
5
5
5
5
5
5
5
5
5
5
5
5
5
5
5
5
5
5
5
5
5
5
5
5
5
5
5
5
5
5
5
5
5
5
5
5
5
5
5
5
5
5
5
5
5
5
5
5
5
5
5
5
5
5
5
5
5
5
5
5
5
5
5
5
5
5
5
5
5
5
5
5
5
5
5
5
5
5
5
5
5
5
5
5
5
5
5
5
5
5
5
5
5
5
5
5
5
5
5
5
5
5
5
5
5
5
5
5
5
5
5
5
5
5
5
5
5
5
5
5
5
5
5
5
5
5
5
5
5
5
5
5
5
5
5
5
5
5
5
5
5
5
5
5
5
5
5
5
5
5
5
5
5
5
5
5
5
5
5
5
5
5
5
5
5
5
5
5
5
5
5
5
5
5
5
5
5
5
5
5
5
5
5
5
5
5
5
5
5
5
5
5
5
5
5
5
5
5
5
5
5
5
5
5
5
5
5
5
5
5
5
5
CELL_DATA 225
VECTORS Ht double
-0.180346 -0.940631 0
-0.191053 -0.957654 0
-0.185566 -0.977001 0
-0.167518 -0.985869 0
-0.148851 -0.97839 0
-0.141917 -0.959514 0
-0.151306 -0.941731 0
-0.170804 -0.936809 0
-0.187509 -0.948005 0
-0.190366 -0.967911 0
-0.177485 -0.983353 0
-0.157389 -0.984114 0
-0.143378 -0.969689 0
-0.144722 -0.949624 0
-0.160532 -0.937197 0
-0.202046 -0.753675 0
-0.163751 -0.870271 0
-0.242353 -0.823492 0
-0.180301 -0.891881 0
-0.21744 -0.900162 0
-0.175316 -0.918639 0
-0.143792 -0.93295 0
-0.152094 -0.93284 0
-0.0701455 -0.900159 0
-0.126003 -0.925085 0
-0.0452353 -0.823487 0
-0.114308 -0.900506 0
-0.0855453 -0.753672 0
-0.124748 -0.875368 0
-0.164401 -0.736913 0
-0.150414 -0.866307 0
-0.22962 -0.7843 0
-0.174323 -0.879317 0
-0.238045 -0.864475 0
-0.180652 -0.90579 0
-0.1841 -0.924383 0
-0.165214 -0.928208 0
-0.103484 -0.924382 0
-0.138224 -0.931735 0
-0.0495418 -0.86447 0
-0.117543 -0.914038 0
-0.0579704 -0.784296 0
-0.116856 -0.886828 0
-0.123192 -0.736912 0
-0.136618 -0.86811 0
-0.233078 -0.454756 0
-0.165877 -0.621062 0
-0.318192 -0.60255 0
-0.220606 -0.696388 0
-0.265312 -0.764696 0
-0.201249 -0.787462 0
-0.10943 -0.833895 0
-0.120615 -0.834018 0
0.0462998 -0.764356 0
-0.0320625 -0.805247 0
0.0988257 -0.602095 0
0.00580931 -0.720188 0
0.0133889 -0.454486 0
-0.0320605 -0.635128 0
-0.153474 -0.419209 0
-0.120612 -0.606355 0
-0.291343 -0.519607 0
-0.201247 -0.652908 0
-0.308985 -0.689243 0
-0.220607 -0.743982 0
-0.194726 -0.815862 0
-0.16588 -0.81931 0
-0.0241748 -0.815676 0
-0.0732809 -0.829043 0
0.0898075 -0.688807 0
-0.0040867 -0.766742 0
0.0717948 -0.51921 0
-0.00408559 -0.673633 0
-0.0662932 -0.419114 0
-0.0732783 -0.61133 0
-0.25889 -0.0953299 0
-0.179498 -0.280309 0
-0.395969 -0.327459 0
-0.283513 -0.430479 0
-0.315188 -0.584653 0
-0.241516 -0.608261 0
-0.0700019 -0.696718 0
-0.0812956 -0.69601 0
0.17734 -0.589495 0
0.0911226 -0.635659 0
0.263162 -0.333938 0
0.161643 -0.467144 0
0.130672 -0.0991595 0
0.0836002 -0.301979 0
-0.132456 -0.0405208 0
-0.0913625 -0.249459 0
-0.3521 -0.196826 0
-0.247465 -0.344339 0
-0.382913 -0.464641 0
-0.281409 -0.523833 0
-0.204505 -0.666744 0
-0.170731 -0.669163 0
0.0650644 -0.669394 0
0.0113275 -0.684159 0
0.247411 -0.470838 0
0.144292 -0.558896 0
0.221869 -0.202468 0
0.140175 -0.376267 0
0.00534006 -0.0418754 0
0.00170057 -0.257124 0
-0.262953 0.262012 0
-0.205056 0.0912307 0
-0.449587 -0.0392428 0
-0.355362 -0.139025 0
-0.350594 -0.379518 0
-0.284823 -0.404795 0
-0.0314809 -0.533639 0
-0.0401172 -0.530209 0
0.296582 -0.39962 0
0.216823 -0.432275 0
0.416503 -0.0661451 0
0.315972 -0.175801 0
0.248926 0.246112 0
0.191717 0.0694951 0
-0.095257 0.330519 0
-0.0737158 0.141291 0
-0.388287 0.13122 0
-0.30468 -0.00792284 0
-0.436254 -0.219901 0
-0.348338 -0.279407 0
-0.207417 -0.490493 0
-0.175799 -0.493509 0
0.146794 -0.501496 0
0.0987613 -0.508549 0
0.391984 -0.245628 0
0.293655 -0.314576 0
0.365901 0.107793 0
0.279914 -0.0399475 0
0.0858052 0.324894 0
0.0666311 0.133603 0
-0.231323 0.554163 0
-0.240087 0.426085 0
-0.455208 0.218974 0
-0.419227 0.128331 0
-0.355923 -0.171689 0
-0.317821 -0.204033 0
0.000831332 -0.359311 0
-0.00297209 -0.351068 0
0.378977 -0.219735 0
0.316971 -0.215476 0
0.52828 0.154677 0
0.43029 0.113017 0
0.349941 0.516161 0
0.261997 0.417035 0
-0.0380259 0.62551 0
-0.0765414 0.495396 0
-0.378888 0.410363 0
-0.361302 0.296247 0
-0.447084 0.0130908 0
-0.403847 -0.0486284 0
-0.197486 -0.303415 0
-0.176023 -0.311012 0
0.204738 -0.329712 0
0.17141 -0.317275 0
0.49342 -0.0483966 0
0.408542 -0.0632725 0
0.477529 0.354373 0
0.378454 0.282912 0
0.167579 0.612068 0
0.101056 0.492195 0
-0.157307 0.728636 0
-0.278431 0.662312 0
-0.397434 0.408559 0
-0.457606 0.326187 0
-0.320246 0.0159368 0
-0.327709 -0.031877 0
0.0231775 -0.189417 0
0.0253032 -0.174936 0
0.405581 -0.0716121 0
0.367828 -0.00832194 0
0.573912 0.291396 0
0.473203 0.35771 0
0.41678 0.65939 0
0.271698 0.680942 0
0.0381657 0.788854 0
-0.103343 0.74748 0
-0.311388 0.594118 0
-0.403742 0.513292 0
-0.400567 0.204045 0
-0.430712 0.13335 0
-0.170359 -0.123239 0
-0.166407 -0.140924 0
0.226899 -0.171156 0
0.214273 -0.128032 0
0.528326 0.0920018 0
0.459417 0.163495 0
0.534456 0.492092 0
0.406803 0.540742 0
0.241232 0.764361 0
0.0912492 0.75407 0
-0.045112 0.753603 0
-0.310163 0.755429 0
-0.274456 0.501618 0
-0.455454 0.422114 0
-0.240655 0.162571 0
-0.304971 0.0911104 0
0.0339236 -0.0391763 0
0.0417053 -0.0185434 0
0.36758 0.0298796 0
0.355166 0.165715 0
0.539521 0.324042 0
0.427981 0.521954 0
0.435967 0.648652 0
0.211967 0.814437 0
0.125443 0.788903 0
-0.149932 0.849616 0
-0.186564 0.651985 0
-0.418233 0.604213 0
-0.293588 0.328502 0
-0.415391 0.240619 0
-0.124807 0.0325158 0
-0.143287 -0.000560645 0
0.208091 -0.0401087 0
0.218018 0.0402716 0
0.484813 0.158687 0
0.429434 0.336095 0
0.522243 0.497352 0
0.351059 0.691153 0
0.295611 0.751779 0
0.0347565 0.870488 0
