# vtk DataFile Version 3.0
tp3485 cell-vector
ASCII
DATASET UNSTRUCTURED_GRID
POINTS 121 double
0 0 0
0.125 0 0
0.114193 0.0508421 0
0.0836413 0.0928931 0
0.0386271 0.118882 0
-0.0130661 0.124315 0
-0.0625 0.108253 0
-0.101127 0.0734732 0
-0.122268 0.025989 0
-0.122268 -0.025989 0
-0.101127 -0.0734732 0
-0.0625 -0.108253 0
-0.0130661 -0.124315 0
0.0386271 -0.118882 0
0.0836413 -0.0928931 0
0.114193 -0.0508421 0
0.25 0 0
0.228386 0.101684 0
0.167283 0.185786 0
0.0772542 0.237764 0
-0.0261321 0.24863 0
-0.125 0.216506 0
-0.202254 0.146946 0
-0.244537 0.0519779 0
-0.244537 -0.0519779 0
-0.202254 -0.146946 0
-0.125 -0.216506 0
-0.0261321 -0.24863 0
0.0772542 -0.237764 0
0.167283 -0.185786 0
0.228386 -0.101684 0
0.375 0 0
0.34258 0.152526 0
0.250924 0.278679 0
0.115881 0.356646 0
-0.0391982 0.372946 0
-0.1875 0.32476 0
-0.303381 0.220419 0
-0.366805 0.0779669 0
-0.366805 -0.0779669 0
-0.303381 -0.220419 0
-0.1875 -0.32476 0
-0.0391982 -0.372946 0
0.115881 -0.356646 0
0.250924 -0.278679 0
0.34258 -0.152526 0
0.5 0 0
0.456773 0.203368 0
0.334565 0.371572 0
0.154508 0.475528 0
-0.0522642 0.497261 0
-0.25 0.433013 0
-0.404508 0.293893 0
-0.489074 0.103956 0
-0.489074 -0.103956 0
-0.404508 -0.293893 0
-0.25 -0.433013 0
-0.0522642 -0.497261 0
0.154508 -0.475528 0
0.334565 -0.371572 0
0.456773 -0.203368 0
0.625 0 0
0.570966 0.25421 0
0.418207 0.464466 0
0.193136 0.59441 0
-0.0653303 0.621576 0
-0.3125 0.541266 0
-0.505636 0.367366 0
-0.611342 0.129945 0
-0.611342 -0.129945 0
-0.505636 -0.367366 0
-0.3125 -0.541266 0
-0.0653303 -0.621576 0
0.193136 -0.59441 0
0.418207 -0.464466 0
0.570966 -0.25421 0
0.75 0 0
0.685159 0.305052 0
0.501848 0.557359 0
0.231763 0.713292 0
-0.0783963 0.745891 0
-0.375 0.649519 0
-0.606763 0.440839 0
-0.733611 0.155934 0
-0.733611 -0.155934 0
-0.606763 -0.440839 0
-0.375 -0.649519 0
-0.0783963 -0.745891 0
0.231763 -0.713292 0
0.501848 -0.557359 0
0.685159 -0.305052 0
0.875 0 0
0.799352 0.355895 0
0.585489 0.650252 0
0.27039 0.832174 0
-0.0914624 0.870207 0
-0.4375 0.757772 0
-0.70789 0.514312 0
-0.855879 0.181923 0
-0.855879 -0.181923 0
-0.70789 -0.514312 0
-0.4375 -0.757772 0
-0.0914624 -0.870207 0
0.27039 -0.832174 0
0.585489 -0.650252 0
0.799352 -0.355895 0
1 0 0
0.913545 0.406737 0
0.669131 0.743145 0
0.309017 0.951057 0
-0.104528 0.994522 0
-0.5 0.866025 0
-0.809017 0.587785 0
-0.978148 0.207912 0
-0.978148 -0.207912 0
-0.809017 -0.587785 0
-0.5 -0.866025 0
-0.104528 -0.994522 0
0.309017 -0.951057 0
0.669131 -0.743145 0
0.913545 -0.406737 0
CELLS 225 900
3 0 1 2
3 0 2 3
3 0 3 4
3 0 4 5
3 0 5 6
3 0 6 7
3 0 7 8
3 0 8 9
3 0 9 10
3 0 10 11
3 0 11 12
3 0 12 13
3 0 13 14
3 0 14 15
3 0 15 1
3 1 16 17
3 1 17 2
3 2 17 18
3 2 18 3
3 3 18 19
3 3 19 4
3 4 19 20
3 4 20 5
3 5 20 21
3 5 21 6
3 6 21 22
3 6 22 7
3 7 22 23
3 7 23 8
3 8 23 24
3 8 24 9
3 9 24 25
3 9 25 10
3 10 25 26
3 10 26 11
3 11 26 27
3 11 27 12
3 12 27 28
3 12 28 13
3 13 28 29
3 13 29 14
3 14 29 30
3 14 30 15
3 15 30 16
3 15 16 1
3 16 31 32
3 16 32 17
3 17 32 33
3 17 33 18
3 18 33 34
3 18 34 19
3 19 34 35
3 19 35 20
3 20 35 36
3 20 36 21
3 21 36 37
3 21 37 22
3 22 37 38
3 22 38 23
3 23 38 39
3 23 39 24
3 24 39 40
3 24 40 25
3 25 40 41
3 25 41 26
3 26 41 42
3 26 42 27
3 27 42 43
3 27 43 28
3 28 43 44
3 28 44 29
3 29 44 45
3 29 45 30
3 30 45 31
3 30 31 16
3 31 46 47
3 31 47 32
3 32 47 48
3 32 48 33
3 33 48 49
3 33 49 34
3 34 49 50
3 34 50 35
3 35 50 51
3 35 51 36
3 36 51 52
3 36 52 37
3 37 52 53
3 37 53 38
3 38 53 54
3 38 54 39
3 39 54 55
3 39 55 40
3 40 55 56
3 40 56 41
3 41 56 57
3 41 57 42
3 42 57 58
3 42 58 43
3 43 58 59
3 43 59 44
3 44 59 60
3 44 60 45
3 45 60 46
3 45 46 31
3 46 61 62
3 46 62 47
3 47 62 63
3 47 63 48
3 48 63 64
3 48 64 49
3 49 64 65
3 49 65 50
3 50 65 66
3 50 66 51
3 51 66 67
3 51 67 52
3 52 67 68
3 52 68 53
3 53 68 69
3 53 69 54
3 54 69 70
3 54 70 55
3 55 70 71
3 55 71 56
3 56 71 72
3 56 72 57
3 57 72 73
3 57 73 58
3 58 73 74
3 58 74 59
3 59 74 75
3 59 75 60
3 60 75 61
3 60 61 46
3 61 76 77
3 61 77 62
3 62 77 78
3 62 78 63
3 63 78 79
3 63 79 64
3 64 79 80
3 64 80 65
3 65 80 81
3 65 81 66
3 66 81 82
3 66 82 67
3 67 82 83
3 67 83 68
3 68 83 84
3 68 84 69
3 69 84 85
3 69 85 70
3 70 85 86
3 70 86 71
3 71 86 87
3 71 87 72
3 72 87 88
3 72 88 73
3 73 88 89
3 73 89 74
3 74 89 90
3 74 90 75
3 75 90 76
3 75 76 61
3 76 91 92
3 76 92 77
3 77 92 93
3 77 93 78
3 78 93 94
3 78 94 79
3 79 94 95
3 79 95 80
3 80 95 96
3 80 96 81
3 81 96 97
3 81 97 82
3 82 97 98
3 82 98 83
3 83 98 99
3 83 99 84
3 84 99 100
3 84 100 85
3 85 100 101
3 85 101 86
3 86 101 102
3 86 102 87
3 87 102 103
3 87 103 88
3 88 103 104
3 88 104 89
3 89 104 105
3 89 105 90
3 90 105 91
3 90 91 76
3 91 106 107
3 91 107 92
3 92 107 108
3 92 108 93
3 93 108 109
3 93 109 94
3 94 109 110
3 94 110 95
3 95 110 111
3 95 111 96
3 96 111 112
3 96 112 97
3 97 112 113
3 97 113 98
3 98 113 114
3 98 114 99
3 99 114 115
3 99 115 100
3 100 115 116
3 100 116 101
3 101 116 117
3 101 117 102
3 102 117 118
3 102 118 103
3 103 118 119
3 103 119 104
3 104 119 120
3 104 120 105
3 105 120 106
3 105 106 91
CELL_TYPES 225
5
5
5
5
5
5
5
5
5
5
5
5
5
5
5
5
5
5
5
5
5
5
5
5
5
5
5
5
5
5
5
5
5
5
5
5
5
5
5
5
5
5
5
5
5
5
5
5
5
5
5
5
5
5
5
5
5
5
5
5
5
5
5
5
5
5
5
5
5
5
5
5
5
5
5
5
5
5
5
5
5
5
5
5
5
5
5
5
5
5
5
5
5
5
5
5
5
5
5
5
5
5
5
5
5
5
5
5
5
5
5
5
5
5
5
5
5
5
5
5
5
5
5
5
5
5
5
5
5
5
5
5
5
5
5
5
5
5
5
5
5
5
5
5
5
5
5
5
5
5
5
5
5
5
5
5
5
5
5
5
5
5
5
5
5
5
5
5
5
5
5
5
5
5
5
5
5
5
5
5
5
5
5
5
5
5
5
5
5
5
5
5
5
5
5
5
5
5
5
5
5
5
5
5
5
5
5
5
5
5
5
5
5
5
5
5
5
5
5
5
5
5
5
5
5
CELL_DATA 225
VECTORS Et double
-0.00675344 0.0237382 0
0.000602884 0.00767714 0
0.0226975 -0.0123826 0
-8.59163e-05 -0.00515017 0
-0.0248112 -0.00759103 0
0.000323206 0.00706946 0
0.0115001 0.02214 0
0.00472364 -0.0101768 0
0.00699073 -0.0218189 0
-0.013914 0.00687187 0
-0.0176506 0.00927525 0
0.0185767 0.00547136 0
0.0156208 0.00428608 0
-0.0109831 -0.0196131 0
-0.00683733 -0.00979682 0
-0.0560849 0.101087 0
0.0196183 0.0275912 0
0.0134675 0.0447134 0
0.0386623 0.035455 0
0.113881 -0.0356462 0
0.00300803 -0.0431001 0
-0.000563339 -0.042803 0
-0.00376131 -0.0444801 0
-0.106223 -0.0525554 0
-0.0371063 0.035419 0
-0.0156139 0.0481289 0
-0.02044 0.0289489 0
0.0390955 0.106242 0
0.0575156 8.46614e-05 0
0.0477818 -0.0442158 0
0.024213 -0.00908757 0
0.0399077 -0.0957616 0
-0.0438195 -0.0431224 0
-0.0805954 0.00897283 0
-0.018253 4.86971e-05 0
-0.0817129 0.0395592 0
0.000764974 0.0629615 0
0.0795665 0.0532831 0
0.0174574 0.00144238 0
0.0734097 0.0173124 0
0.0430662 -0.0444579 0
-0.0261913 -0.104331 0
-0.0226146 -0.00910979 0
-0.0401244 -0.0439857 0
-0.0583112 0.00140642 0
-0.174806 0.229175 0
0.0441111 0.112001 0
0.0508329 0.125756 0
0.118605 0.12069 0
0.288263 -0.0517818 0
0.0413278 -0.140859 0
-1.53226e-05 -0.136545 0
-0.00954278 -0.145511 0
-0.242975 -0.153493 0
-0.142883 0.0921422 0
-0.0681104 0.141353 0
-0.0666269 0.0990091 0
0.0735414 0.262068 0
0.185226 0.0312839 0
0.158859 -0.100272 0
0.0854453 -0.0384613 0
0.10668 -0.224367 0
-0.120281 -0.158503 0
-0.220266 -0.0171814 0
-0.0762624 0.00273626 0
-0.197514 0.0928633 0
-0.0225093 0.201407 0
0.180237 0.174246 0
0.0744877 0.0182918 0
0.181568 0.0360402 0
0.152066 -0.127867 0
-0.0227238 -0.272857 0
-0.0761633 -0.0561046 0
-0.113571 -0.105003 0
-0.187 -0.0102558 0
-0.351099 0.368792 0
0.0631288 0.246193 0
0.117366 0.245513 0
0.243374 0.261499 0
0.507458 -0.0427216 0
0.116471 -0.282285 0
0.00336984 -0.286491 0
-0.0147638 -0.311831 0
-0.396308 -0.2941 0
-0.311408 0.163141 0
-0.164479 0.279062 0
-0.148511 0.21495 0
0.101765 0.451995 0
0.376251 0.0938355 0
0.33644 -0.159474 0
0.195233 -0.0833782 0
0.18999 -0.376221 0
-0.226403 -0.343074 0
-0.41191 -0.0876176 0
-0.178531 -0.0045231 0
-0.335497 0.16231 0
-0.0697483 0.413856 0
0.288385 0.362266 0
0.164611 0.0625925 0
0.320838 0.0470082 0
0.32811 -0.251042 0
0.0189714 -0.492973 0
-0.147641 -0.144167 0
-0.22529 -0.177347 0
-0.390171 -0.0357661 0
-0.544214 0.459043 0
0.0628288 0.380497 0
0.21272 0.381412 0
0.397799 0.434944 0
0.697092 0.00633832 0
0.201734 -0.418185 0
0.0085133 -0.473782 0
-0.01704 -0.523944 0
-0.503647 -0.432521 0
-0.487056 0.231416 0
-0.298375 0.436125 0
-0.265267 0.360469 0
0.109649 0.605774 0
0.579192 0.160818 0
0.554324 -0.195105 0
0.348438 -0.124031 0
0.254352 -0.4967 0
-0.345136 -0.543972 0
-0.606719 -0.208159 0
-0.305663 -0.0427097 0
-0.441142 0.234682 0
-0.118564 0.654622 0
0.355488 0.582856 0
0.251096 0.14079 0
0.451253 0.0292567 0
0.529831 -0.398157 0
0.111585 -0.698144 0
-0.198433 -0.249819 0
-0.36088 -0.231077 0
-0.633759 -0.0627378 0
-0.698753 0.438547 0
0.0349009 0.445446 0
0.330485 0.497804 0
0.555198 0.597126 0
0.772673 0.102656 0
0.252419 -0.485248 0
0.00996464 -0.664001 0
-0.0172172 -0.740937 0
-0.499095 -0.516933 0
-0.589225 0.280081 0
-0.448754 0.578062 0
-0.402755 0.50519 0
0.0846613 0.644553 0
0.722286 0.188233 0
0.768497 -0.183608 0
0.522987 -0.136099 0
0.259964 -0.524486 0
-0.454874 -0.681193 0
-0.744918 -0.370184 0
-0.422137 -0.128813 0
-0.45293 0.291798 0
-0.132187 0.85434 0
0.334661 0.784068 0
0.284629 0.247977 0
0.522673 -0.0368594 0
0.690075 -0.544992 0
0.255789 -0.81075 0
-0.184305 -0.332043 0
-0.494919 -0.230669 0
-0.859793 -0.0690682 0
-0.763129 0.271094 0
-0.0165277 0.379721 0
0.455126 0.553416 0
0.681118 0.692499 0
0.672231 0.241325 0
0.222049 -0.431972 0
-0.00113516 -0.811782 0
-0.0202686 -0.905923 0
-0.339281 -0.50591 0
-0.542759 0.298771 0
-0.580733 0.669501 0
-0.530607 0.610335 0
0.0188975 0.512171 0
0.738441 0.131986 0
0.926064 -0.115838 0
0.678806 -0.102073 0
0.18126 -0.413374 0
-0.534348 -0.67531 0
-0.775509 -0.547154 0
-0.485436 -0.261742 0
-0.3269 0.312338 0
-0.0738506 0.940234 0
0.201293 0.910579 0
0.224361 0.3626 0
0.489835 -0.157083 0
0.736129 -0.662586 0
0.435094 -0.770537 0
-0.0775915 -0.345411 0
-0.593114 -0.148747 0
-0.999515 -0.0311287 0
-0.708195 -0.0314012 0
-0.070019 0.160151 0
0.558783 0.511902 0
0.73911 0.66892 0
0.387349 0.402024 0
0.0815889 -0.245727 0
-0.0332738 -0.867503 0
-0.0339333 -0.956869 0
-0.0278347 -0.388355 0
-0.312088 0.289422 0
-0.650122 0.681736 0
-0.604173 0.63675 0
-0.0878482 0.205626 0
0.59344 -0.03197 0
0.975907 -0.0048369 0
0.761412 -0.021436 0
0.024799 -0.154366 0
-0.568087 -0.48027 0
-0.674466 -0.694631 0
-0.457757 -0.411468 0
-0.0615635 0.274875 0
0.0756506 0.861041 0
-0.0297754 0.918763 0
0.0592866 0.444629 0
0.329276 -0.311113 0
0.615743 -0.722326 0
0.613358 -0.561227 0
0.111736 -0.255978 0
-0.616393 0.0185058 0
-0.991911 0.065131 0
