# vtk DataFile Version 3.0
tp3485 cell-vector
ASCII
DATASET UNSTRUCTURED_GRID
POINTS 121 double
0 0 0
0.125 0 0
0.114193 0.0508421 0
0.0836413 0.0928931 0
0.0386271 0.118882 0
-0.0130661 0.124315 0
-0.0625 0.108253 0
-0.101127 0.0734732 0
-0.122268 0.025989 0
-0.122268 -0.025989 0
-0.101127 -0.0734732 0
-0.0625 -0.108253 0
-0.0130661 -0.124315 0
0.0386271 -0.118882 0
0.0836413 -0.0928931 0
0.114193 -0.0508421 0
0.25 0 0
0.228386 0.101684 0
0.167283 0.185786 0
0.0772542 0.237764 0
-0.0261321 0.24863 0
-0.125 0.216506 0
-0.202254 0.146946 0
-0.244537 0.0519779 0
-0.244537 -0.0519779 0
-0.202254 -0.146946 0
-0.125 -0.216506 0
-0.0261321 -0.24863 0
0.0772542 -0.237764 0
0.167283 -0.185786 0
0.228386 -0.101684 0
0.375 0 0
0.34258 0.152526 0
0.250924 0.278679 0
0.115881 0.356646 0
-0.0391982 0.372946 0
-0.1875 0.32476 0
-0.303381 0.220419 0
-0.366805 0.0779669 0
-0.366805 -0.0779669 0
-0.303381 -0.220419 0
-0.1875 -0.32476 0
-0.0391982 -0.372946 0
0.115881 -0.356646 0
0.250924 -0.278679 0
0.34258 -0.152526 0
0.5 0 0
0.456773 0.203368 0
0.334565 0.371572 0
0.154508 0.475528 0
-0.0522642 0.497261 0
-0.25 0.433013 0
-0.404508 0.293893 0
-0.489074 0.103956 0
-0.489074 -0.103956 0
-0.404508 -0.293893 0
-0.25 -0.433013 0
-0.0522642 -0.497261 0
0.154508 -0.475528 0
0.334565 -0.371572 0
0.456773 -0.203368 0
0.625 0 0
0.570966 0.25421 0
0.418207 0.464466 0
0.193136 0.59441 0
-0.0653303 0.621576 0
-0.3125 0.541266 0
-0.505636 0.367366 0
-0.611342 0.129945 0
-0.611342 -0.129945 0
-0.505636 -0.367366 0
-0.3125 -0.541266 0
-0.0653303 -0.621576 0
0.193136 -0.59441 0
0.418207 -0.464466 0
0.570966 -0.25421 0
0.75 0 0
0.685159 0.305052 0
0.501848 0.557359 0
0.231763 0.713292 0
-0.0783963 0.745891 0
-0.375 0.649519 0
-0.606763 0.440839 0
-0.733611 0.155934 0
-0.733611 -0.155934 0
-0.606763 -0.440839 0
-0.375 -0.649519 0
-0.0783963 -0.745891 0
0.231763 -0.713292 0
0.501848 -0.557359 0
0.685159 -0.305052 0
0.875 0 0
0.799352 0.355895 0
0.585489 0.650252 0
0.27039 0.832174 0
-0.0914624 0.870207 0
-0.4375 0.757772 0
-0.70789 0.514312 0
-0.855879 0.181923 0
-0.855879 -0.181923 0
-0.70789 -0.514312 0
-0.4375 -0.757772 0
-0.0914624 -0.870207 0
0.27039 -0.832174 0
0.585489 -0.650252 0
0.799352 -0.355895 0
1 0 0
0.913545 0.406737 0
0.669131 0.743145 0
0.309017 0.951057 0
-0.104528 0.994522 0
-0.5 0.866025 0
-0.809017 0.587785 0
-0.978148 0.207912 0
-0.978148 -0.207912 0
-0.809017 -0.587785 0
-0.5 -0.866025 0
-0.104528 -0.994522 0
0.309017 -0.951057 0
0.669131 -0.743145 0
0.913545 -0.406737 0
CELLS 225 900
3 0 1 2
3 0 2 3
3 0 3 4
3 0 4 5
3 0 5 6
3 0 6 7
3 0 7 8
3 0 8 9
3 0 9 10
3 0 10 11
3 0 11 12
3 0 12 13
3 0 13 14
3 0 14 15
3 0 15 1
3 1 16 17
3 1 17 2
3 2 17 18
3 2 18 3
3 3 18 19
3 3 19 4
3 4 19 20
3 4 20 5
3 5 20 21
3 5 21 6
3 6 21 22
3 6 22 7
3 7 22 23
3 7 23 8
3 8 23 24
3 8 24 9
3 9 24 25
3 9 25 10
3 10 25 26
3 10 26 11
3 11 26 27
3 11 27 12
3 12 27 28
3 12 28 13
3 13 28 29
3 13 29 14
3 14 29 30
3 14 30 15
3 15 30 16
3 15 16 1
3 16 31 32
3 16 32 17
3 17 32 33
3 17 33 18
3 18 33 34
3 18 34 19
3 19 34 35
3 19 35 20
3 20 35 36
3 20 36 21
3 21 36 37
3 21 37 22
3 22 37 38
3 22 38 23
3 23 38 39
3 23 39 24
3 24 39 40
3 24 40 25
3 25 40 41
3 25 41 26
3 26 41 42
3 26 42 27
3 27 42 43
3 27 43 28
3 28 43 44
3 28 44 29
3 29 44 45
3 29 45 30
3 30 45 31
3 30 31 16
3 31 46 47
3 31 47 32
3 32 47 48
3 32 48 33
3 33 48 49
3 33 49 34
3 34 49 50
3 34 50 35
3 35 50 51
3 35 51 36
3 36 51 52
3 36 52 37
3 37 52 53
3 37 53 38
3 38 53 54
3 38 54 39
3 39 54 55
3 39 55 40
3 40 55 56
3 40 56 41
3 41 56 57
3 41 57 42
3 42 57 58
3 42 58 43
3 43 58 59
3 43 59 44
3 44 59 60
3 44 60 45
3 45 60 46
3 45 46 31
3 46 61 62
3 46 62 47
3 47 62 63
3 47 63 48
3 48 63 64
3 48 64 49
3 49 64 65
3 49 65 50
3 50 65 66
3 50 66 51
3 51 66 67
3 51 67 52
3 52 67 68
3 52 68 53
3 53 68 69
3 53 69 54
3 54 69 70
3 54 70 55
3 55 70 71
3 55 71 56
3 56 71 72
3 56 72 57
3 57 72 73
3 57 73 58
3 58 73 74
3 58 74 59
3 59 74 75
3 59 75 60
3 60 75 61
3 60 61 46
3 61 76 77
3 61 77 62
3 62 77 78
3 62 78 63
3 63 78 79
3 63 79 64
3 64 79 80
3 64 80 65
3 65 80 81
3 65 81 66
3 66 81 82
3 66 82 67
3 67 82 83
3 67 83 68
3 68 83 84
3 68 84 69
3 69 84 85
3 69 85 70
3 70 85 86
3 70 86 71
3 71 86 87
3 71 87 72
3 72 87 88
3 72 88 73
3 73 88 89
3 73 89 74
3 74 89 90
3 74 90 75
3 75 90 76
3 75 76 61
3 76 91 92
3 76 92 77
3 77 92 93
3 77 93 78
3 78 93 94
3 78 94 79
3 79 94 95
3 79 95 80
3 80 95 96
3 80 96 81
3 81 96 97
3 81 97 82
3 82 97 98
3 82 98 83
3 83 98 99
3 83 99 84
3 84 99 100
3 84 100 85
3 85 100 101
3 85 101 86
3 86 101 102
3 86 102 87
3 87 102 103
3 87 103 88
3 88 103 104
3 88 104 89
3 89 104 105
3 89 105 90
3 90 105 91
3 90 91 76
3 91 106 107
3 91 107 92
3 92 107 108
3 92 108 93
3 93 108 109
3 93 109 94
3 94 109 110
3 94 110 95
3 95 110 111
3 95 111 96
3 96 111 112
3 96 112 97
3 97 112 113
3 97 113 98
3 98 113 114
3 98 114 99
3 99 114 115
3 99 115 100
3 100 115 116
3 100 116 101
3 101 116 117
3 101 117 102
3 102 117 118
3 102 118 103
3 103 118 119
3 103 119 104
3 104 119 120
3 104 120 105
3 105 120 106
3 105 106 91
CELL_TYPES 225
5
5
5
5
5
5
5
5
5
5
5
5
5
5
5
5
5
5
5
5
5
5
5
5
5
5
5
5
5
5
5
5
5
5
5
5
5
5
5
5
5
5
5
5
5
5
5
5
5
5
5
5
5
5
5
5
5
5
5
5
5
5
5
5
5
5
5
5
5
5
5
5
5
5
5
5
5
5
5
5
5
5
5
5
5
5
5
5
5
5
5
5
5
5
5
5
5
5
5
5
5
5
5
5
5
5
5
5
5
5
5
5
5
5
5
5
5
5
5
5
5
5
5
5
5
5
5
5
5
5
5
5
5
5
5
5
5
5
5
5
5
5
5
5
5
5
5
5
5
5
5
5
5
5
5
5
5
5
5
5
5
5
5
5
5
5
5
5
5
5
5
5
5
5
5
5
5
5
5
5
5
5
5
5
5
5
5
5
5
5
5
5
5
5
5
5
5
5
5
5
5
5
5
5
5
5
5
5
5
5
5
5
5
5
5
5
5
5
5
5
5
5
5
5
5
CELL_DATA 225
VECTORS Et double
-0.507257 -0.80467 0
-0.515051 -0.840018 0
-0.493998 -0.869463 0
-0.458029 -0.87352 0
-0.430946 -0.849504 0
-0.430671 -0.813308 0
-0.457386 -0.788884 0
-0.493413 -0.792394 0
-0.514911 -0.821516 0
-0.507654 -0.856978 0
-0.476445 -0.875314 0
-0.441935 -0.86439 0
-0.426962 -0.831435 0
-0.441433 -0.798257 0
-0.475773 -0.78681 0
-0.500607 -0.539132 0
-0.448216 -0.700143 0
-0.525888 -0.67601 0
-0.462455 -0.746053 0
-0.441084 -0.786385 0
-0.437864 -0.787355 0
-0.302314 -0.79722 0
-0.390716 -0.796716 0
-0.201407 -0.701343 0
-0.352212 -0.767943 0
-0.205137 -0.562201 0
-0.34783 -0.720075 0
-0.311036 -0.471869 0
-0.38047 -0.684789 0
-0.449026 -0.490123 0
-0.428534 -0.685435 0
-0.527794 -0.604884 0
-0.460215 -0.721585 0
-0.495216 -0.74021 0
-0.454549 -0.769317 0
-0.37285 -0.806551 0
-0.415285 -0.797046 0
-0.241671 -0.760006 0
-0.368406 -0.786422 0
-0.188484 -0.631376 0
-0.344933 -0.744475 0
-0.248486 -0.50578 0
-0.3604 -0.698963 0
-0.381971 -0.466331 0
-0.404571 -0.680004 0
-0.46928 -0.147881 0
-0.39253 -0.352219 0
-0.520771 -0.415552 0
-0.433446 -0.502614 0
-0.356308 -0.632924 0
-0.349059 -0.633655 0
-0.0847207 -0.656154 0
-0.195211 -0.658627 0
0.11427 -0.469869 0
-0.0737089 -0.561004 0
0.108984 -0.197342 0
-0.0649558 -0.405389 0
-0.0970802 -0.0189138 0
-0.174744 -0.294756 0
-0.367562 -0.0526575 0
-0.330422 -0.302318 0
-0.523473 -0.276244 0
-0.428972 -0.423068 0
-0.461642 -0.541717 0
-0.405179 -0.577103 0
-0.222983 -0.673403 0
-0.274789 -0.662492 0
0.0345725 -0.58416 0
-0.124085 -0.622728 0
0.140591 -0.333044 0
-0.0527938 -0.484127 0
0.024915 -0.0862278 0
-0.108092 -0.338404 0
-0.235907 -0.00703929 0
-0.253386 -0.281992 0
-0.391192 0.249639 0
-0.339337 0.0686311 0
-0.473464 -0.122028 0
-0.401902 -0.203015 0
-0.252313 -0.431862 0
-0.241894 -0.431276 0
0.125918 -0.474833 0
0.0348037 -0.465103 0
0.410937 -0.222507 0
0.245089 -0.282111 0
0.414138 0.158143 0
0.249808 -0.00339381 0
0.133401 0.415226 0
0.0458381 0.186612 0
-0.245498 0.37862 0
-0.231846 0.162171 0
-0.471828 0.0725493 0
-0.39949 -0.0605425 0
-0.395817 -0.300448 0
-0.346157 -0.33415 0
-0.0677646 -0.493545 0
-0.10714 -0.477596 0
0.295244 -0.378962 0
0.159394 -0.395956 0
0.452993 -0.0325223 0
0.27707 -0.143254 0
0.301092 0.316521 0
0.168016 0.113286 0
-0.0599387 0.437192 0
-0.0956013 0.203903 0
-0.252827 0.529914 0
-0.296996 0.42931 0
-0.364026 0.132544 0
-0.35841 0.0710978 0
-0.14313 -0.215986 0
-0.1333 -0.214232 0
0.263687 -0.28504 0
0.229369 -0.237866 0
0.587217 -0.0289222 0
0.489605 0.0158358 0
0.613369 0.382884 0
0.4752 0.378988 0
0.324837 0.677871 0
0.195686 0.61128 0
-0.0874474 0.660834 0
-0.163971 0.558994 0
-0.350658 0.343047 0
-0.365773 0.256731 0
-0.290619 -0.0651971 0
-0.276179 -0.0954913 0
0.0529393 -0.293748 0
0.0455227 -0.264593 0
0.452672 -0.191365 0
0.38645 -0.138672 0
0.644059 0.174202 0
0.520998 0.198943 0
0.500454 0.561042 0
0.360131 0.52484 0
0.116884 0.713169 0
0.0103009 0.623361 0
-0.0627572 0.604604 0
-0.264021 0.612938 0
-0.191896 0.286753 0
-0.292556 0.24572 0
-0.0420981 -0.0218992 0
-0.0387527 -0.0212028 0
0.28751 -0.117106 0
0.329437 -0.0111962 0
0.578814 0.0641341 0
0.568367 0.269118 0
0.639046 0.401889 0
0.519929 0.634244 0
0.428349 0.672652 0
0.216176 0.842565 0
0.0861485 0.697249 0
-0.141887 0.756226 0
-0.161107 0.459403 0
-0.317316 0.432362 0
-0.1498 0.116507 0
-0.194022 0.0852846 0
0.112587 -0.104533 0
0.146406 -0.0553301 0
0.452424 -0.0574454 0
0.478693 0.103568 0
0.644826 0.22661 0
0.582953 0.456829 0
0.562473 0.559663 0
0.390193 0.770687 0
0.259863 0.721319 0
0.0279684 0.83745 0
0.140562 0.452306 0
-0.227555 0.559784 0
0.0150123 0.307125 0
-0.198222 0.278835 0
0.0388939 0.116678 0
0.0301918 0.112643 0
0.196403 0.00699179 0
0.306535 0.171183 0
0.383311 0.0506497 0
0.447941 0.415717 0
0.475932 0.218762 0
0.360836 0.684428 0
0.412976 0.400081 0
0.102861 0.799499 0
0.236103 0.474623 0
-0.155273 0.684783 0
0.0623575 0.393059 0
-0.242747 0.416192 0
0.00671277 0.209363 0
-0.101678 0.171464 0
0.105991 0.0450951 0
0.174585 0.112544 0
0.294497 0.00895655 0
0.403227 0.278422 0
0.447488 0.124862 0
0.432947 0.55933 0
0.463724 0.316112 0
0.244078 0.769381 0
0.332462 0.45615 0
-0.0383979 0.769575 0
0.293153 0.132436 0
-0.167334 0.293696 0
0.201214 0.199655 0
-0.0785964 0.176995 0
0.0897405 0.176309 0
0.0675062 0.164852 0
0.0324997 0.0778472 0
0.174292 0.265303 0
0.0673697 -0.030575 0
0.171096 0.411874 0
0.171276 -0.0772102 0
0.0600338 0.507575 0
0.275459 -0.0311979 0
-0.0854007 0.489076 0
0.310978 0.0770136 0
-0.168968 0.368619 0
0.254327 0.175817 0
-0.135368 0.225914 0
0.142996 0.199829 0
-0.00683562 0.155396 0
0.0506557 0.133162 0
0.131575 0.203729 0
0.0384118 0.0199301 0
0.188271 0.338928 0
0.114366 -0.0649356 0
0.125736 0.471528 0
0.228258 -0.0652765 0
-0.0146495 0.513782 0
0.304719 0.019133 0
-0.139986 0.437729 0
