# vtk DataFile Version 3.0
tp3485 cell-vector
ASCII
DATASET UNSTRUCTURED_GRID
POINTS 121 double
0 0 0
0.125 0 0
0.114193 0.0508421 0
0.0836413 0.0928931 0
0.0386271 0.118882 0
-0.0130661 0.124315 0
-0.0625 0.108253 0
-0.101127 0.0734732 0
-0.122268 0.025989 0
-0.122268 -0.025989 0
-0.101127 -0.0734732 0
-0.0625 -0.108253 0
-0.0130661 -0.124315 0
0.0386271 -0.118882 0
0.0836413 -0.0928931 0
0.114193 -0.0508421 0
0.25 0 0
0.228386 0.101684 0
0.167283 0.185786 0
0.0772542 0.237764 0
-0.0261321 0.24863 0
-0.125 0.216506 0
-0.202254 0.146946 0
-0.244537 0.0519779 0
-0.244537 -0.0519779 0
-0.202254 -0.146946 0
-0.125 -0.216506 0
-0.0261321 -0.24863 0
0.0772542 -0.237764 0
0.167283 -0.185786 0
0.228386 -0.101684 0
0.375 0 0
0.34258 0.152526 0
0.250924 0.278679 0
0.115881 0.356646 0
-0.0391982 0.372946 0
-0.1875 0.32476 0
-0.303381 0.220419 0
-0.366805 0.0779669 0
-0.366805 -0.0779669 0
-0.303381 -0.220419 0
-0.1875 -0.32476 0
-0.0391982 -0.372946 0
0.115881 -0.356646 0
0.250924 -0.278679 0
0.34258 -0.152526 0
0.5 0 0
0.456773 0.203368 0
0.334565 0.371572 0
0.154508 0.475528 0
-0.0522642 0.497261 0
-0.25 0.433013 0
-0.404508 0.293893 0
-0.489074 0.103956 0
-0.489074 -0.103956 0
-0.404508 -0.293893 0
-0.25 -0.433013 0
-0.0522642 -0.497261 0
0.154508 -0.475528 0
0.334565 -0.371572 0
0.456773 -0.203368 0
0.625 0 0
0.570966 0.25421 0
0.418207 0.464466 0
0.193136 0.59441 0
-0.0653303 0.621576 0
-0.3125 0.541266 0
-0.505636 0.367366 0
-0.611342 0.129945 0
-0.611342 -0.129945 0
-0.505636 -0.367366 0
-0.3125 -0.541266 0
-0.0653303 -0.621576 0
0.193136 -0.59441 0
0.418207 -0.464466 0
0.570966 -0.25421 0
0.75 0 0
0.685159 0.305052 0
0.501848 0.557359 0
0.231763 0.713292 0
-0.0783963 0.745891 0
-0.375 0.649519 0
-0.606763 0.440839 0
-0.733611 0.155934 0
-0.733611 -0.155934 0
-0.606763 -0.440839 0
-0.375 -0.649519 0
-0.0783963 -0.745891 0
0.231763 -0.713292 0
0.501848 -0.557359 0
0.685159 -0.305052 0
0.875 0 0
0.799352 0.355895 0
0.585489 0.650252 0
0.27039 0.832174 0
-0.0914624 0.870207 0
-0.4375 0.757772 0
-0.70789 0.514312 0
-0.855879 0.181923 0
-0.855879 -0.181923 0
-0.70789 -0.514312 0
-0.4375 -0.757772 0
-0.0914624 -0.870207 0
0.27039 -0.832174 0
0.585489 -0.650252 0
0.799352 -0.355895 0
1 0 0
0.913545 0.406737 0
0.669131 0.743145 0
0.309017 0.951057 0
-0.104528 0.994522 0
-0.5 0.866025 0
-0.809017 0.587785 0
-0.978148 0.207912 0
-0.978148 -0.207912 0
-0.809017 -0.587785 0
-0.5 -0.866025 0
-0.104528 -0.994522 0
0.309017 -0.951057 0
0.669131 -0.743145 0
0.913545 -0.406737 0
CELLS 225 900
3 0 1 2
3 0 2 3
3 0 3 4
3 0 4 5
3 0 5 6
3 0 6 7
3 0 7 8
3 0 8 9
3 0 9 10
3 0 10 11
3 0 11 12
3 0 12 13
3 0 13 14
3 0 14 15
3 0 15 1
3 1 16 17
3 1 17 2
3 2 17 18
3 2 18 3
3 3 18 19
3 3 19 4
3 4 19 20
3 4 20 5
3 5 20 21
3 5 21 6
3 6 21 22
3 6 22 7
3 7 22 23
3 7 23 8
3 8 23 24
3 8 24 9
3 9 24 25
3 9 25 10
3 10 25 26
3 10 26 11
3 11 26 27
3 11 27 12
3 12 27 28
3 12 28 13
3 13 28 29
3 13 29 14
3 14 29 30
3 14 30 15
3 15 30 16
3 15 16 1
3 16 31 32
3 16 32 17
3 17 32 33
3 17 33 18
3 18 33 34
3 18 34 19
3 19 34 35
3 19 35 20
3 20 35 36
3 20 36 21
3 21 36 37
3 21 37 22
3 22 37 38
3 22 38 23
3 23 38 39
3 23 39 24
3 24 39 40
3 24 40 25
3 25 40 41
3 25 41 26
3 26 41 42
3 26 42 27
3 27 42 43
3 27 43 28
3 28 43 44
3 28 44 29
3 29 44 45
3 29 45 30
3 30 45 31
3 30 31 16
3 31 46 47
3 31 47 32
3 32 47 48
3 32 48 33
3 33 48 49
3 33 49 34
3 34 49 50
3 34 50 35
3 35 50 51
3 35 51 36
3 36 51 52
3 36 52 37
3 37 52 53
3 37 53 38
3 38 53 54
3 38 54 39
3 39 54 55
3 39 55 40
3 40 55 56
3 40 56 41
3 41 56 57
3 41 57 42
3 42 57 58
3 42 58 43
3 43 58 59
3 43 59 44
3 44 59 60
3 44 60 45
3 45 60 46
3 45 46 31
3 46 61 62
3 46 62 47
3 47 62 63
3 47 63 48
3 48 63 64
3 48 64 49
3 49 64 65
3 49 65 50
3 50 65 66
3 50 66 51
3 51 66 67
3 51 67 52
3 52 67 68
3 52 68 53
3 53 68 69
3 53 69 54
3 54 69 70
3 54 70 55
3 55 70 71
3 55 71 56
3 56 71 72
3 56 72 57
3 57 72 73
3 57 73 58
3 58 73 74
3 58 74 59
3 59 74 75
3 59 75 60
3 60 75 61
3 60 61 46
3 61 76 77
3 61 77 62
3 62 77 78
3 62 78 63
3 63 78 79
3 63 79 64
3 64 79 80
3 64 80 65
3 65 80 81
3 65 81 66
3 66 81 82
3 66 82 67
3 67 82 83
3 67 83 68
3 68 83 84
3 68 84 69
3 69 84 85
3 69 85 70
3 70 85 86
3 70 86 71
3 71 86 87
3 71 87 72
3 72 87 88
3 72 88 73
3 73 88 89
3 73 89 74
3 74 89 90
3 74 90 75
3 75 90 76
3 75 76 61
3 76 91 92
3 76 92 77
3 77 92 93
3 77 93 78
3 78 93 94
3 78 94 79
3 79 94 95
3 79 95 80
3 80 95 96
3 80 96 81
3 81 96 97
3 81 97 82
3 82 97 98
3 82 98 83
3 83 98 99
3 83 99 84
3 84 99 100
3 84 100 85
3 85 100 101
3 85 101 86
3 86 101 102
3 86 102 87
3 87 102 103
3 87 103 88
3 88 103 104
3 88 104 89
3 89 104 105
3 89 105 90
3 90 105 91
3 90 91 76
3 91 106 107
3 91 107 92
3 92 107 108
3 92 108 93
3 93 108 109
3 93 109 94
3 94 109 110
3 94 110 95
3 95 110 111
3 95 111 96
3 96 111 112
3 96 112 97
3 97 112 113
3 97 113 98
3 98 113 114
3 98 114 99
3 99 114 115
3 99 115 100
3 100 115 116
3 100 116 101
3 101 116 117
3 101 117 102
3 102 117 118
3 102 118 103
3 103 118 119
3 103 119 104
3 104 119 120
3 104 120 105
3 105 120 106
3 105 106 91
CELL_TYPES 225
5
5
5
5
5
5
5
5
5
5
5
5
5
5
5
5
5
5
5
5
5
5
5
5
5
5
5
5
5
5
5
5
5
5
5
5
5
5
5
5
5
5
5
5
5
5
5
5
5
5
5
5
5
5
5
5
5
5
5
5
5
5
5
5
5
5
5
5
5
5
5
5
5
5
5
5
5
5
5
5
5
5
5
5
5
5
5
5
5
5
5
5
5
5
5
5
5
5
5
5
5
5
5
5
5
5
5
5
5
5
5
5
5
5
5
5
5
5
5
5
5
5
5
5
5
5
5
5
5
5
5
5
5
5
5
5
5
5
5
5
5
5
5
5
5
5
5
5
5
5
5
5
5
5
5
5
5
5
5
5
5
5
5
5
5
5
5
5
5
5
5
5
5
5
5
5
5
5
5
5
5
5
5
5
5
5
5
5
5
5
5
5
5
5
5
5
5
5
5
5
5
5
5
5
5
5
5
5
5
5
5
5
5
5
5
5
5
5
5
5
5
5
5
5
5
CELL_DATA 225
VECTORS Et double
-0.00298146 -0.0092933 0
-0.0158363 0.0198349 0
-0.000200226 0.00599253 0
0.0258846 -0.00263091 0
-0.000579932 -0.00555953 0
-0.0196373 -0.0163645 0
-0.00138458 0.00894615 0
0.00200386 0.0239525 0
0.00922875 -0.00970211 0
0.0138718 -0.0164483 0
-0.0174332 0.00159549 0
-0.0180404 0.00187495 0
0.0164556 0.0130637 0
0.0114328 0.00825788 0
-0.00278402 -0.0235195 0
-0.0247439 -0.0461539 0
-0.0520364 -0.0196409 0
-0.0913749 0.0745613 0
0.010792 0.037066 0
0.00604891 0.042801 0
0.0213138 0.0438163 0
0.119036 0.00932489 0
0.0199793 -0.0430025 0
0.00581897 -0.0450373 0
0.0108279 -0.0386442 0
-0.0776616 -0.0865938 0
-0.0506798 0.0203864 0
-0.029894 0.0489531 0
-0.0245511 0.0182272 0
-0.00251417 0.108849 0
0.0553002 0.0226277 0
0.066118 -0.031115 0
0.021336 -0.00297514 0
0.0672998 -0.0706455 0
-0.0245151 -0.057483 0
-0.0862247 -0.0205457 0
-0.0166934 -0.00080217 0
-0.0828118 0.00851326 0
-0.0231944 0.0582546 0
0.0589667 0.0832409 0
0.0199571 0.00378898 0
0.0575549 0.0349331 0
0.0553224 -0.0241637 0
0.0143821 -0.111085 0
-0.0231585 -0.0174556 0
-0.0796911 -0.118723 0
-0.162818 -0.0740707 0
-0.248765 0.152124 0
0.00717395 0.133504 0
0.0255406 0.130763 0
0.0638833 0.144453 0
0.285748 0.0559327 0
0.0944951 -0.127683 0
0.0302688 -0.141457 0
0.0356996 -0.127782 0
-0.167445 -0.225336 0
-0.1758 0.0365819 0
-0.112559 0.129433 0
-0.082163 0.0669351 0
-0.0229118 0.260067 0
0.166202 0.10037 0
0.197993 -0.0506803 0
0.0815131 -0.0170306 0
0.166476 -0.164148 0
-0.0536374 -0.194352 0
-0.215898 -0.0960319 0
-0.0734812 -0.00750159 0
-0.200313 0.0228197 0
-0.0951451 0.177588 0
0.113295 0.237376 0
0.0768653 0.0338008 0
0.149541 0.0786237 0
0.183832 -0.0611142 0
0.0787213 -0.270761 0
-0.0666195 -0.0836989 0
-0.171185 -0.216118 0
-0.33688 -0.166421 0
-0.460648 0.220807 0
-0.0171057 0.279235 0
0.06069 0.268825 0
0.128753 0.309833 0
0.483593 0.138078 0
0.220714 -0.244253 0
0.0785495 -0.292472 0
0.0811771 -0.27512 0
-0.260846 -0.402594 0
-0.368099 0.0450559 0
-0.254324 0.236397 0
-0.18464 0.14646 0
-0.0559726 0.439712 0
0.327506 0.231131 0
0.393932 -0.0483984 0
0.189495 -0.0327766 0
0.284873 -0.276882 0
-0.0863576 -0.407895 0
-0.377509 -0.231707 0
-0.169345 -0.0336461 0
-0.343985 0.0499206 0
-0.215859 0.357936 0
0.150351 0.455301 0
0.159971 0.0983567 0
0.27727 0.122488 0
0.388248 -0.111479 0
0.195212 -0.463358 0
-0.117576 -0.196418 0
-0.293963 -0.311366 0
-0.549471 -0.276617 0
-0.66477 0.239 0
-0.0560477 0.420601 0
0.112592 0.437683 0
0.20857 0.517868 0
0.638143 0.240934 0
0.354273 -0.356425 0
0.148536 -0.476816 0
0.147323 -0.463572 0
-0.316864 -0.557016 0
-0.569484 0.0512261 0
-0.440581 0.341992 0
-0.329962 0.239348 0
-0.0886967 0.580341 0
0.502497 0.371278 0
0.615242 -0.00471501 0
0.33426 -0.0285812 0
0.372725 -0.373823 0
-0.126591 -0.644825 0
-0.518152 -0.414359 0
-0.275557 -0.0953642 0
-0.463482 0.0963425 0
-0.349975 0.567192 0
0.135492 0.683333 0
0.228582 0.190025 0
0.413954 0.137942 0
0.628187 -0.175171 0
0.349824 -0.619473 0
-0.146604 -0.316982 0
-0.433391 -0.367921 0
-0.757287 -0.367978 0
-0.785873 0.169256 0
-0.0916937 0.485836 0
0.181057 0.602758 0
0.292086 0.72401 0
0.668308 0.340251 0
0.428182 -0.420056 0
0.228082 -0.659685 0
0.225107 -0.657705 0
-0.293983 -0.617728 0
-0.697589 0.0693409 0
-0.639238 0.41489 0
-0.500272 0.318877 0
-0.104986 0.60693 0
0.640966 0.45365 0
0.807716 0.0904442 0
0.48788 0.0172629 0
0.374717 -0.41405 0
-0.183471 -0.824664 0
-0.580026 -0.613555 0
-0.348709 -0.201019 0
-0.49983 0.165083 0
-0.440574 0.756196 0
0.0416492 0.852565 0
0.232388 0.286691 0
0.521673 0.0946169 0
0.83676 -0.253097 0
0.514125 -0.663857 0
-0.123773 -0.387345 0
-0.56376 -0.350442 0
-0.90644 -0.397156 0
-0.763439 -0.00491138 0
-0.0988147 0.414509 0
0.262186 0.719301 0
0.3655 0.868604 0
0.518281 0.410964 0
0.378214 -0.400894 0
0.29507 -0.798706 0
0.29461 -0.808424 0
-0.16566 -0.532697 0
-0.676004 0.116527 0
-0.804652 0.430981 0
-0.658895 0.35723 0
-0.0947012 0.465664 0
0.695145 0.412199 0
0.916381 0.228709 0
0.60865 0.112789 0
0.253857 -0.362813 0
-0.265471 -0.865703 0
-0.522547 -0.786335 0
-0.346359 -0.339878 0
-0.406552 0.248726 0
-0.42846 0.870914 0
-0.135914 0.901556 0
0.135064 0.35492 0
0.559494 -0.0249286 0
0.938295 -0.343616 0
0.651958 -0.545068 0
-0.0350351 -0.35202 0
-0.647708 -0.238208 0
-0.944415 -0.328755 0
-0.578513 -0.264473 0
-0.0520923 0.188636 0
0.344376 0.740435 0
0.413613 0.890221 0
0.187749 0.436193 0
0.171744 -0.292697 0
0.321051 -0.850639 0
0.327113 -0.861752 0
0.0648795 -0.296236 0
-0.468184 0.204987 0
-0.884553 0.38166 0
-0.752442 0.334193 0
-0.0621719 0.15233 0
0.637732 0.210921 0
0.900337 0.378165 0
0.647975 0.241045 0
0.015011 -0.204506 0
-0.373237 -0.716194 0
-0.341668 -0.884341 0
-0.244065 -0.474312 0
-0.171965 0.323632 0
-0.276211 0.867935 0
-0.368212 0.798463 0
-0.0626181 0.356478 0
0.493789 -0.20994 0
0.872094 -0.438254 0
0.727599 -0.262534 0
0.102994 -0.182452 0
