# vtk DataFile Version 3.0
tp3485 cell-vector
ASCII
DATASET UNSTRUCTURED_GRID
POINTS 121 double
0 0 0
0.125 0 0
0.114193 0.0508421 0
0.0836413 0.0928931 0
0.0386271 0.118882 0
-0.0130661 0.124315 0
-0.0625 0.108253 0
-0.101127 0.0734732 0
-0.122268 0.025989 0
-0.122268 -0.025989 0
-0.101127 -0.0734732 0
-0.0625 -0.108253 0
-0.0130661 -0.124315 0
0.0386271 -0.118882 0
0.0836413 -0.0928931 0
0.114193 -0.0508421 0
0.25 0 0
0.228386 0.101684 0
0.167283 0.185786 0
0.0772542 0.237764 0
-0.0261321 0.24863 0
-0.125 0.216506 0
-0.202254 0.146946 0
-0.244537 0.0519779 0
-0.244537 -0.0519779 0
-0.202254 -0.146946 0
-0.125 -0.216506 0
-0.0261321 -0.24863 0
0.0772542 -0.237764 0
0.167283 -0.185786 0
0.228386 -0.101684 0
0.375 0 0
0.34258 0.152526 0
0.250924 0.278679 0
0.115881 0.356646 0
-0.0391982 0.372946 0
-0.1875 0.32476 0
-0.303381 0.220419 0
-0.366805 0.0779669 0
-0.366805 -0.0779669 0
-0.303381 -0.220419 0
-0.1875 -0.32476 0
-0.0391982 -0.372946 0
0.115881 -0.356646 0
0.250924 -0.278679 0
0.34258 -0.152526 0
0.5 0 0
0.456773 0.203368 0
0.334565 0.371572 0
0.154508 0.475528 0
-0.0522642 0.497261 0
-0.25 0.433013 0
-0.404508 0.293893 0
-0.489074 0.103956 0
-0.489074 -0.103956 0
-0.404508 -0.293893 0
-0.25 -0.433013 0
-0.0522642 -0.497261 0
0.154508 -0.475528 0
0.334565 -0.371572 0
0.456773 -0.203368 0
0.625 0 0
0.570966 0.25421 0
0.418207 0.464466 0
0.193136 0.59441 0
-0.0653303 0.621576 0
-0.3125 0.541266 0
-0.505636 0.367366 0
-0.611342 0.129945 0
-0.611342 -0.129945 0
-0.505636 -0.367366 0
-0.3125 -0.541266 0
-0.0653303 -0.621576 0
0.193136 -0.59441 0
0.418207 -0.464466 0
0.570966 -0.25421 0
0.75 0 0
0.685159 0.305052 0
0.501848 0.557359 0
0.231763 0.713292 0
-0.0783963 0.745891 0
-0.375 0.649519 0
-0.606763 0.440839 0
-0.733611 0.155934 0
-0.733611 -0.155934 0
-0.606763 -0.440839 0
-0.375 -0.649519 0
-0.0783963 -0.745891 0
0.231763 -0.713292 0
0.501848 -0.557359 0
0.685159 -0.305052 0
0.875 0 0
0.799352 0.355895 0
0.585489 0.650252 0
0.27039 0.832174 0
-0.0914624 0.870207 0
-0.4375 0.757772 0
-0.70789 0.514312 0
-0.855879 0.181923 0
-0.855879 -0.181923 0
-0.70789 -0.514312 0
-0.4375 -0.757772 0
-0.0914624 -0.870207 0
0.27039 -0.832174 0
0.585489 -0.650252 0
0.799352 -0.355895 0
1 0 0
0.913545 0.406737 0
0.669131 0.743145 0
0.309017 0.951057 0
-0.104528 0.994522 0
-0.5 0.866025 0
-0.809017 0.587785 0
-0.978148 0.207912 0
-0.978148 -0.207912 0
-0.809017 -0.587785 0
-0.5 -0.866025 0
-0.104528 -0.994522 0
0.309017 -0.951057 0
0.669131 -0.743145 0
0.913545 -0.406737 0
CELLS 225 900
3 0 1 2
3 0 2 3
3 0 3 4
3 0 4 5
3 0 5 6
3 0 6 7
3 0 7 8
3 0 8 9
3 0 9 10
3 0 10 11
3 0 11 12
3 0 12 13
3 0 13 14
3 0 14 15
3 0 15 1
3 1 16 17
3 1 17 2
3 2 17 18
3 2 18 3
3 3 18 19
3 3 19 4
3 4 19 20
3 4 20 5
3 5 20 21
3 5 21 6
3 6 21 22
3 6 22 7
3 7 22 23
3 7 23 8
3 8 23 24
3 8 24 9
3 9 24 25
3 9 25 10
3 10 25 26
3 10 26 11
3 11 26 27
3 11 27 12
3 12 27 28
3 12 28 13
3 13 28 29
3 13 29 14
3 14 29 30
3 14 30 15
3 15 30 16
3 15 16 1
3 16 31 32
3 16 32 17
3 17 32 33
3 17 33 18
3 18 33 34
3 18 34 19
3 19 34 35
3 19 35 20
3 20 35 36
3 20 36 21
3 21 36 37
3 21 37 22
3 22 37 38
3 22 38 23
3 23 38 39
3 23 39 24
3 24 39 40
3 24 40 25
3 25 40 41
3 25 41 26
3 26 41 42
3 26 42 27
3 27 42 43
3 27 43 28
3 28 43 44
3 28 44 29
3 29 44 45
3 29 45 30
3 30 45 31
3 30 31 16
3 31 46 47
3 31 47 32
3 32 47 48
3 32 48 33
3 33 48 49
3 33 49 34
3 34 49 50
3 34 50 35
3 35 50 51
3 35 51 36
3 36 51 52
3 36 52 37
3 37 52 53
3 37 53 38
3 38 53 54
3 38 54 39
3 39 54 55
3 39 55 40
3 40 55 56
3 40 56 41
3 41 56 57
3 41 57 42
3 42 57 58
3 42 58 43
3 43 58 59
3 43 59 44
3 44 59 60
3 44 60 45
3 45 60 46
3 45 46 31
3 46 61 62
3 46 62 47
3 47 62 63
3 47 63 48
3 48 63 64
3 48 64 49
3 49 64 65
3 49 65 50
3 50 65 66
3 50 66 51
3 51 66 67
3 51 67 52
3 52 67 68
3 52 68 53
3 53 68 69
3 53 69 54
3 54 69 70
3 54 70 55
3 55 70 71
3 55 71 56
3 56 71 72
3 56 72 57
3 57 72 73
3 57 73 58
3 58 73 74
3 58 74 59
3 59 74 75
3 59 75 60
3 60 75 61
3 60 61 46
3 61 76 77
3 61 77 62
3 62 77 78
3 62 78 63
3 63 78 79
3 63 79 64
3 64 79 80
3 64 80 65
3 65 80 81
3 65 81 66
3 66 81 82
3 66 82 67
3 67 82 83
3 67 83 68
3 68 83 84
3 68 84 69
3 69 84 85
3 69 85 70
3 70 85 86
3 70 86 71
3 71 86 87
3 71 87 72
3 72 87 88
3 72 88 73
3 73 88 89
3 73 89 74
3 74 89 90
3 74 90 75
3 75 90 76
3 75 76 61
3 76 91 92
3 76 92 77
3 77 92 93
3 77 93 78
3 78 93 94
3 78 94 79
3 79 94 95
3 79 95 80
3 80 95 96
3 80 96 81
3 81 96 97
3 81 97 82
3 82 97 98
3 82 98 83
3 83 98 99
3 83 99 84
3 84 99 100
3 84 100 85
3 85 100 101
3 85 101 86
3 86 101 102
3 86 102 87
3 87 102 103
3 87 103 88
3 88 103 104
3 88 104 89
3 89 104 105
3 89 105 90
3 90 105 91
3 90 91 76
3 91 106 107
3 91 107 92
3 92 107 108
3 92 108 93
3 93 108 109
3 93 109 94
3 94 109 110
3 94 110 95
3 95 110 111
3 95 111 96
3 96 111 112
3 96 112 97
3 97 112 113
3 97 113 98
3 98 113 114
3 98 114 99
3 99 114 115
3 99 115 100
3 100 115 116
3 100 116 101
3 101 116 117
3 101 117 102
3 102 117 118
3 102 118 103
3 103 118 119
3 103 119 104
3 104 119 120
3 104 120 105
3 105 120 106
3 105 106 91
CELL_TYPES 225
5
5
5
5
5
5
5
5
5
5
5
5
5
5
5
5
5
5
5
5
5
5
5
5
5
5
5
5
5
5
5
5
5
5
5
5
5
5
5
5
5
5
5
5
5
5
5
5
5
5
5
5
5
5
5
5
5
5
5
5
5
5
5
5
5
5
5
5
5
5
5
5
5
5
5
5
5
5
5
5
5
5
5
5
5
5
5
5
5
5
5
5
5
5
5
5
5
5
5
5
5
5
5
5
5
5
5
5
5
5
5
5
5
5
5
5
5
5
5
5
5
5
5
5
5
5
5
5
5
5
5
5
5
5
5
5
5
5
5
5
5
5
5
5
5
5
5
5
5
5
5
5
5
5
5
5
5
5
5
5
5
5
5
5
5
5
5
5
5
5
5
5
5
5
5
5
5
5
5
5
5
5
5
5
5
5
5
5
5
5
5
5
5
5
5
5
5
5
5
5
5
5
5
5
5
5
5
5
5
5
5
5
5
5
5
5
5
5
5
5
5
5
5
5
5
CELL_DATA 225
VECTORS Ht double
0.00692862 -0.0193977 0
0.0016091 -0.00851169 0
-0.0239834 0.014952 0
0.0205894 0.000595294 0
0.00859234 -0.00109992 0
-0.0216314 -0.0181892 0
0.0057963 0.0197656 0
0.00370126 0.00783191 0
0.0106145 -0.0261935 0
-0.017007 0.0116205 0
-0.00630484 0.0059403 0
0.0281915 0.00200072 0
-0.0163072 -0.0125837 0
-0.00759786 -0.0041606 0
0.00680887 0.02743 0
0.0711237 -0.0932333 0
-0.00899375 -0.0189659 0
0.00342853 -0.0564459 0
-0.0425601 -0.0406788 0
-0.142968 0.0597015 0
0.0142586 0.073847 0
0.110649 0.0388319 0
0.0152584 -0.0144144 0
0.0547427 -0.014182 0
0.0255361 -0.0530475 0
-0.100959 -0.117521 0
-0.0658265 0.0363807 0
-0.00273908 0.117233 0
0.018424 0.0100573 0
0.0304043 0.0476809 0
0.0583422 0.00789367 0
0.0805716 -0.132334 0
-0.0549416 -0.0513625 0
-0.112341 0.0336219 0
-0.00387177 0.0206301 0
-0.0359518 0.0436504 0
0.0105214 0.057926 0
0.150755 0.0357347 0
0.0318707 -0.0681245 0
-0.0666917 -0.0964533 0
-0.0208169 0.00269278 0
-0.0526238 -0.0207035 0
-0.0518396 0.0279066 0
0.0126 0.154419 0
0.0746388 0.00925926 0
0.254479 -0.207465 0
-0.00387236 -0.0843635 0
-0.0042084 -0.172425 0
-0.153579 -0.167485 0
-0.390743 0.108936 0
0.0120765 0.274799 0
0.27595 0.177913 0
0.0790378 -0.0297526 0
0.162685 -0.0572846 0
0.111829 -0.197818 0
-0.224351 -0.337956 0
-0.257618 0.0964031 0
-0.0839326 0.317422 0
0.0527204 0.0659754 0
0.104753 0.137021 0
0.222693 0.0452262 0
0.252087 -0.317804 0
-0.171293 -0.215219 0
-0.327823 0.0182642 0
-0.0464548 0.0705276 0
-0.097944 0.141968 0
0.0258034 0.22577 0
0.380149 0.141542 0
0.151753 -0.229416 0
-0.118673 -0.306134 0
-0.0814311 -0.0223869 0
-0.165286 -0.0492797 0
-0.206746 0.0943072 0
-0.0171418 0.405282 0
0.265081 0.0734321 0
0.538218 -0.269519 0
0.0544908 -0.168267 0
-0.0432338 -0.336613 0
-0.340785 -0.395719 0
-0.657847 0.105466 0
-0.0111389 0.572215 0
0.422646 0.428589 0
0.17687 -0.000173682 0
0.306778 -0.145137 0
0.271042 -0.44639 0
-0.30359 -0.593058 0
-0.547651 0.16623 0
-0.277008 0.534402 0
0.0548211 0.16816 0
0.232833 0.246913 0
0.508299 0.119834 0
0.470218 -0.471996 0
-0.327328 -0.469479 0
-0.593847 -0.0983107 0
-0.142989 0.104102 0
-0.162879 0.297738 0
0.0431035 0.520452 0
0.5942 0.301349 0
0.345351 -0.456384 0
-0.0900097 -0.595161 0
-0.143193 -0.103821 0
-0.333498 -0.0629014 0
-0.481659 0.201822 0
-0.102982 0.65824 0
0.540767 0.187418 0
0.811767 -0.166947 0
0.190802 -0.168333 0
-0.145183 -0.466155 0
-0.556294 -0.638351 0
-0.724215 -0.00664697 0
-0.00420811 0.780271 0
0.409626 0.720447 0
0.219055 0.129445 0
0.398475 -0.282127 0
0.435203 -0.726328 0
-0.217473 -0.690824 0
-0.743382 0.237115 0
-0.558605 0.612208 0
-0.0554181 0.248335 0
0.391454 0.291791 0
0.825264 0.189455 0
0.589809 -0.420306 0
-0.455227 -0.633726 0
-0.754863 -0.342082 0
-0.253305 0.0240339 0
-0.156543 0.462463 0
0.0748379 0.843418 0
0.581996 0.431061 0
0.462036 -0.628779 0
0.0920739 -0.823626 0
-0.101133 -0.233481 0
-0.488203 -0.00597266 0
-0.779012 0.331805 0
-0.230116 0.686716 0
0.740781 0.245119 0
0.928596 0.121058 0
0.360588 0.00184142 0
-0.317881 -0.438778 0
-0.701308 -0.712858 0
-0.419457 -0.240947 0
0.11082 0.667275 0
0.171819 0.920556 0
0.109676 0.343508 0
0.319072 -0.437913 0
0.461252 -0.887269 0
0.0995352 -0.473384 0
-0.600371 0.311595 0
-0.822406 0.447877 0
-0.292804 0.210458 0
0.515078 0.168133 0
0.986378 0.164495 0
0.480973 -0.05162 0
-0.48187 -0.474698 0
-0.680094 -0.643753 0
-0.290639 -0.213438 0
-0.000736004 0.541825 0
0.148363 0.988933 0
0.197722 0.441481 0
0.302559 -0.604975 0
0.402085 -0.845738 0
0.113179 -0.34237 0
-0.515533 0.166733 0
-0.894684 0.446699 0
-0.358774 0.32447 0
0.668861 0.100803 0
0.78204 0.428029 0
0.406261 0.281268 0
-0.479864 -0.159283 0
-0.652549 -0.428041 0
0.168392 -0.526886 0
0.359213 0.166335 0
-0.165416 0.876033 0
-0.14196 0.473294 0
0.003201 -0.505598 0
0.205443 -0.752883 0
0.553135 -0.00266661 0
-0.0471909 0.393032 0
-0.884273 0.113389 0
-0.493997 0.0112442 0
0.481842 -0.153194 0
0.779519 -0.0372657 0
0.173464 0.525238 0
-0.388379 0.0765725 0
-0.381094 -0.805955 0
-0.163347 -0.466345 0
0.294594 0.410919 0
0.276326 0.729851 0
-0.445928 0.327282 0
-0.19284 -0.345708 0
0.648744 -0.611496 0
0.393043 -0.299461 0
-0.299773 0.407156 0
-0.60874 0.488338 0
-0.449063 -0.322967 0
0.269197 -0.290232 0
0.333704 0.426879 0
0.0749857 0.395923 0
-0.396202 0.333521 0
-0.335661 0.233105 0
0.591545 -0.677166 0
0.645506 -0.397076 0
-0.302866 0.449285 0
-0.353373 0.193663 0
-0.439631 -0.273747 0
-0.32542 -0.247199 0
0.826821 0.353337 0
0.577114 0.49121 0
-0.520886 -0.149206 0
-0.293382 -0.276233 0
0.124495 -0.502706 0
0.13454 -0.385882 0
-0.080542 0.89554 0
-0.28883 0.70066 0
-0.0190591 -0.541499 0
0.172053 -0.364384 0
0.516573 -0.0369428 0
0.40857 0.00871076 0
-0.876598 0.200137 0
-0.755621 -0.0581781 0
0.509107 -0.185459 0
0.399717 0.0510312 0
0.194765 0.479874 0
0.117971 0.391265 0
-0.461226 -0.771849 0
-0.178169 -0.736616 0
