# vtk DataFile Version 3.0
tp3485 cell-vector
ASCII
DATASET UNSTRUCTURED_GRID
POINTS 121 double
0 0 0
0.125 0 0
0.114193 0.0508421 0
0.0836413 0.0928931 0
0.0386271 0.118882 0
-0.0130661 0.124315 0
-0.0625 0.108253 0
-0.101127 0.0734732 0
-0.122268 0.025989 0
-0.122268 -0.025989 0
-0.101127 -0.0734732 0
-0.0625 -0.108253 0
-0.0130661 -0.124315 0
0.0386271 -0.118882 0
0.0836413 -0.0928931 0
0.114193 -0.0508421 0
0.25 0 0
0.228386 0.101684 0
0.167283 0.185786 0
0.0772542 0.237764 0
-0.0261321 0.24863 0
-0.125 0.216506 0
-0.202254 0.146946 0
-0.244537 0.0519779 0
-0.244537 -0.0519779 0
-0.202254 -0.146946 0
-0.125 -0.216506 0
-0.0261321 -0.24863 0
0.0772542 -0.237764 0
0.167283 -0.185786 0
0.228386 -0.101684 0
0.375 0 0
0.34258 0.152526 0
0.250924 0.278679 0
0.115881 0.356646 0
-0.0391982 0.372946 0
-0.1875 0.32476 0
-0.303381 0.220419 0
-0.366805 0.0779669 0
-0.366805 -0.0779669 0
-0.303381 -0.220419 0
-0.1875 -0.32476 0
-0.0391982 -0.372946 0
0.115881 -0.356646 0
0.250924 -0.278679 0
0.34258 -0.152526 0
0.5 0 0
0.456773 0.203368 0
0.334565 0.371572 0
0.154508 0.475528 0
-0.0522642 0.497261 0
-0.25 0.433013 0
-0.404508 0.293893 0
-0.489074 0.103956 0
-0.489074 -0.103956 0
-0.404508 -0.293893 0
-0.25 -0.433013 0
-0.0522642 -0.497261 0
0.154508 -0.475528 0
0.334565 -0.371572 0
0.456773 -0.203368 0
0.625 0 0
0.570966 0.25421 0
0.418207 0.464466 0
0.193136 0.59441 0
-0.0653303 0.621576 0
-0.3125 0.541266 0
-0.505636 0.367366 0
-0.611342 0.129945 0
-0.611342 -0.129945 0
-0.505636 -0.367366 0
-0.3125 -0.541266 0
-0.0653303 -0.621576 0
0.193136 -0.59441 0
0.418207 -0.464466 0
0.570966 -0.25421 0
0.75 0 0
0.685159 0.305052 0
0.501848 0.557359 0
0.231763 0.713292 0
-0.0783963 0.745891 0
-0.375 0.649519 0
-0.606763 0.440839 0
-0.733611 0.155934 0
-0.733611 -0.155934 0
-0.606763 -0.440839 0
-0.375 -0.649519 0
-0.0783963 -0.745891 0
0.231763 -0.713292 0
0.501848 -0.557359 0
0.685159 -0.305052 0
0.875 0 0
0.799352 0.355895 0
0.585489 0.650252 0
0.27039 0.832174 0
-0.0914624 0.870207 0
-0.4375 0.757772 0
-0.70789 0.514312 0
-0.855879 0.181923 0
-0.855879 -0.181923 0
-0.70789 -0.514312 0
-0.4375 -0.757772 0
-0.0914624 -0.870207 0
0.27039 -0.832174 0
0.585489 -0.650252 0
0.799352 -0.355895 0
1 0 0
0.913545 0.406737 0
0.669131 0.743145 0
0.309017 0.951057 0
-0.104528 0.994522 0
-0.5 0.866025 0
-0.809017 0.587785 0
-0.978148 0.207912 0
-0.978148 -0.207912 0
-0.809017 -0.587785 0
-0.5 -0.866025 0
-0.104528 -0.994522 0
0.309017 -0.951057 0
0.669131 -0.743145 0
0.913545 -0.406737 0
CELLS 225 900
3 0 1 2
3 0 2 3
3 0 3 4
3 0 4 5
3 0 5 6
3 0 6 7
3 0 7 8
3 0 8 9
3 0 9 10
3 0 10 11
3 0 11 12
3 0 12 13
3 0 13 14
3 0 14 15
3 0 15 1
3 1 16 17
3 1 17 2
3 2 17 18
3 2 18 3
3 3 18 19
3 3 19 4
3 4 19 20
3 4 20 5
3 5 20 21
3 5 21 6
3 6 21 22
3 6 22 7
3 7 22 23
3 7 23 8
3 8 23 24
3 8 24 9
3 9 24 25
3 9 25 10
3 10 25 26
3 10 26 11
3 11 26 27
3 11 27 12
3 12 27 28
3 12 28 13
3 13 28 29
3 13 29 14
3 14 29 30
3 14 30 15
3 15 30 16
3 15 16 1
3 16 31 32
3 16 32 17
3 17 32 33
3 17 33 18
3 18 33 34
3 18 34 19
3 19 34 35
3 19 35 20
3 20 35 36
3 20 36 21
3 21 36 37
3 21 37 22
3 22 37 38
3 22 38 23
3 23 38 39
3 23 39 24
3 24 39 40
3 24 40 25
3 25 40 41
3 25 41 26
3 26 41 42
3 26 42 27
3 27 42 43
3 27 43 28
3 28 43 44
3 28 44 29
3 29 44 45
3 29 45 30
3 30 45 31
3 30 31 16
3 31 46 47
3 31 47 32
3 32 47 48
3 32 48 33
3 33 48 49
3 33 49 34
3 34 49 50
3 34 50 35
3 35 50 51
3 35 51 36
3 36 51 52
3 36 52 37
3 37 52 53
3 37 53 38
3 38 53 54
3 38 54 39
3 39 54 55
3 39 55 40
3 40 55 56
3 40 56 41
3 41 56 57
3 41 57 42
3 42 57 58
3 42 58 43
3 43 58 59
3 43 59 44
3 44 59 60
3 44 60 45
3 45 60 46
3 45 46 31
3 46 61 62
3 46 62 47
3 47 62 63
3 47 63 48
3 48 63 64
3 48 64 49
3 49 64 65
3 49 65 50
3 50 65 66
3 50 66 51
3 51 66 67
3 51 67 52
3 52 67 68
3 52 68 53
3 53 68 69
3 53 69 54
3 54 69 70
3 54 70 55
3 55 70 71
3 55 71 56
3 56 71 72
3 56 72 57
3 57 72 73
3 57 73 58
3 58 73 74
3 58 74 59
3 59 74 75
3 59 75 60
3 60 75 61
3 60 61 46
3 61 76 77
3 61 77 62
3 62 77 78
3 62 78 63
3 63 78 79
3 63 79 64
3 64 79 80
3 64 80 65
3 65 80 81
3 65 81 66
3 66 81 82
3 66 82 67
3 67 82 83
3 67 83 68
3 68 83 84
3 68 84 69
3 69 84 85
3 69 85 70
3 70 85 86
3 70 86 71
3 71 86 87
3 71 87 72
3 72 87 88
3 72 88 73
3 73 88 89
3 73 89 74
3 74 89 90
3 74 90 75
3 75 90 76
3 75 76 61
3 76 91 92
3 76 92 77
3 77 92 93
3 77 93 78
3 78 93 94
3 78 94 79
3 79 94 95
3 79 95 80
3 80 95 96
3 80 96 81
3 81 96 97
3 81 97 82
3 82 97 98
3 82 98 83
3 83 98 99
3 83 99 84
3 84 99 100
3 84 100 85
3 85 100 101
3 85 101 86
3 86 101 102
3 86 102 87
3 87 102 103
3 87 103 88
3 88 103 104
3 88 104 89
3 89 104 105
3 89 105 90
3 90 105 91
3 90 91 76
3 91 106 107
3 91 107 92
3 92 107 108
3 92 108 93
3 93 108 109
3 93 109 94
3 94 109 110
3 94 110 95
3 95 110 111
3 95 111 96
3 96 111 112
3 96 112 97
3 97 112 113
3 97 113 98
3 98 113 114
3 98 114 99
3 99 114 115
3 99 115 100
3 100 115 116
3 100 116 101
3 101 116 117
3 101 117 102
3 102 117 118
3 102 118 103
3 103 118 119
3 103 119 104
3 104 119 120
3 104 120 105
3 105 120 106
3 105 106 91
CELL_TYPES 225
5
5
5
5
5
5
5
5
5
5
5
5
5
5
5
5
5
5
5
5
5
5
5
5
5
5
5
5
5
5
5
5
5
5
5
5
5
5
5
5
5
5
5
5
5
5
5
5
5
5
5
5
5
5
5
5
5
5
5
5
5
5
5
5
5
5
5
5
5
5
5
5
5
5
5
5
5
5
5
5
5
5
5
5
5
5
5
5
5
5
5
5
5
5
5
5
5
5
5
5
5
5
5
5
5
5
5
5
5
5
5
5
5
5
5
5
5
5
5
5
5
5
5
5
5
5
5
5
5
5
5
5
5
5
5
5
5
5
5
5
5
5
5
5
5
5
5
5
5
5
5
5
5
5
5
5
5
5
5
5
5
5
5
5
5
5
5
5
5
5
5
5
5
5
5
5
5
5
5
5
5
5
5
5
5
5
5
5
5
5
5
5
5
5
5
5
5
5
5
5
5
5
5
5
5
5
5
5
5
5
5
5
5
5
5
5
5
5
5
5
5
5
5
5
5
CELL_DATA 225
VECTORS Et double
-0.0129795 0.273069 0
0.0360435 0.165695 0
0.165489 0.0491184 0
0.274602 0.0124723 0
0.254697 0.00887052 0
0.132079 -0.062933 0
0.0318971 -0.200259 0
0.0128544 -0.28351 0
-0.000129033 -0.229317 0
-0.0946264 -0.100272 0
-0.231436 -0.0205567 0
-0.282955 -0.0136911 0
-0.198893 0.0149896 0
-0.0721592 0.129502 0
-0.0144846 0.256823 0
-0.0329187 0.497173 0
0.168815 0.304182 0
0.148225 0.364957 0
0.259024 0.325205 0
0.37406 0.218655 0
0.25275 0.209585 0
0.510327 0.11657 0
0.263275 -0.0162903 0
0.472653 -0.00399354 0
0.317366 -0.204679 0
0.325174 -0.204856 0
0.31114 -0.262236 0
0.189819 -0.422027 0
0.158662 -0.250132 0
0.0919617 -0.517209 0
-0.0729464 -0.275191 0
-0.0466851 -0.440935 0
-0.231439 -0.326682 0
-0.262961 -0.286743 0
-0.260825 -0.287018 0
-0.461847 -0.163959 0
-0.250555 -0.102284 0
-0.512526 -0.064556 0
-0.289413 0.124453 0
-0.404266 0.095027 0
-0.329926 0.249258 0
-0.250993 0.320204 0
-0.252889 0.256949 0
-0.140022 0.491692 0
-0.0430369 0.25488 0
-0.0393463 0.656562 0
0.226395 0.527429 0
0.25472 0.527685 0
0.380387 0.523399 0
0.53843 0.373691 0
0.420619 0.325778 0
0.676562 0.207555 0
0.471338 -0.00567049 0
0.63159 -0.0281645 0
0.539978 -0.280942 0
0.489023 -0.332311 0
0.493478 -0.396027 0
0.335199 -0.590603 0
0.248777 -0.428852 0
0.157103 -0.680649 0
-0.0869287 -0.490617 0
-0.100637 -0.600533 0
-0.324387 -0.545045 0
-0.407096 -0.450274 0
-0.406337 -0.450035 0
-0.631551 -0.295457 0
-0.4398 -0.1656 0
-0.673506 -0.101156 0
-0.510092 0.161251 0
-0.565319 0.176761 0
-0.540173 0.35713 0
-0.411862 0.476585 0
-0.393637 0.41376 0
-0.253311 0.660309 0
-0.0796184 0.454044 0
-0.0271589 0.731328 0
0.270004 0.671352 0
0.35615 0.642675 0
0.483174 0.670818 0
0.64725 0.510399 0
0.543814 0.433244 0
0.752773 0.281601 0
0.604233 0.0177435 0
0.713237 -0.0684997 0
0.687134 -0.343441 0
0.614829 -0.443364 0
0.635882 -0.506763 0
0.464845 -0.691579 0
0.338237 -0.554259 0
0.203858 -0.752713 0
-0.0868758 -0.626969 0
-0.16604 -0.691965 0
-0.403159 -0.694284 0
-0.522126 -0.584182 0
-0.522772 -0.584168 0
-0.723478 -0.411996 0
-0.567335 -0.234564 0
-0.745001 -0.118585 0
-0.650243 0.183799 0
-0.668333 0.262832 0
-0.689702 0.449331 0
-0.549766 0.590534 0
-0.516097 0.534156 0
-0.351039 0.743515 0
-0.126294 0.584004 0
0.00527123 0.710224 0
0.299266 0.718482 0
0.450019 0.700991 0
0.564727 0.75557 0
0.692886 0.62281 0
0.612831 0.527967 0
0.727904 0.335091 0
0.645462 0.0538002 0
0.706719 -0.125773 0
0.742126 -0.391589 0
0.694426 -0.534242 0
0.728528 -0.59046 0
0.573424 -0.71619 0
0.424483 -0.614805 0
0.229202 -0.722043 0
-0.07267 -0.666889 0
-0.242693 -0.704895 0
-0.466766 -0.758937 0
-0.602967 -0.68107 0
-0.604515 -0.681678 0
-0.727891 -0.508835 0
-0.61968 -0.307741 0
-0.715593 -0.114471 0
-0.692174 0.191838 0
-0.703633 0.351946 0
-0.764696 0.5242 0
-0.658049 0.65566 0
-0.614503 0.610649 0
-0.429026 0.730799 0
-0.182419 0.629592 0
0.0552718 0.592978 0
0.315503 0.661834 0
0.531805 0.698201 0
0.62282 0.771041 0
0.673804 0.705212 0
0.622469 0.604341 0
0.602925 0.366535 0
0.5883 0.0988946 0
0.610812 -0.196317 0
0.698003 -0.42584 0
0.722569 -0.600853 0
0.764988 -0.644044 0
0.655836 -0.663832 0
0.502297 -0.604761 0
0.233124 -0.589515 0
-0.047223 -0.603495 0
-0.32627 -0.637016 0
-0.514765 -0.73213 0
-0.64623 -0.73517 0
-0.647706 -0.736361 0
-0.644968 -0.581834 0
-0.590678 -0.380371 0
-0.585735 -0.0902297 0
-0.628921 0.187516 0
-0.667803 0.439489 0
-0.758393 0.580393 0
-0.730773 0.669465 0
-0.682921 0.638665 0
-0.484369 0.622887 0
-0.243771 0.584317 0
0.115861 0.390977 0
0.321547 0.506944 0
0.595286 0.635189 0
0.655793 0.717259 0
0.595054 0.752868 0
0.572905 0.655687 0
0.391403 0.37692 0
0.437725 0.146174 0
0.434671 -0.272122 0
0.559503 -0.447523 0
0.69774 -0.639164 0
0.743356 -0.665679 0
0.707863 -0.542562 0
0.564187 -0.52555 0
0.218863 -0.36885 0
-0.0162774 -0.442416 0
-0.408508 -0.494811 0
-0.547159 -0.617351 0
-0.650649 -0.743134 0
-0.650786 -0.74445 0
-0.485327 -0.628015 0
-0.483069 -0.444665 0
-0.368388 -0.0511808 0
-0.466315 0.175187 0
-0.564478 0.517799 0
-0.672671 0.616883 0
-0.763493 0.633798 0
-0.715949 0.617345 0
-0.515897 0.432287 0
-0.302788 0.452155 0
0.176461 0.126567 0
0.321323 0.27196 0
0.633129 0.518367 0
0.662667 0.601291 0
0.467864 0.762534 0
0.469956 0.675052 0
0.118506 0.369552 0
0.210542 0.1863 0
0.197338 -0.34162 0
0.343193 -0.458578 0
0.622543 -0.645583 0
0.666756 -0.654955 0
0.726583 -0.368465 0
0.601225 -0.385989 0
0.192532 -0.085638 0
0.0122632 -0.201882 0
-0.478005 -0.293304 0
-0.564262 -0.428659 0
-0.61721 -0.704547 0
-0.614752 -0.705229 0
-0.269199 -0.645826 0
-0.308693 -0.490651 0
-0.0881625 -0.00598331 0
-0.223063 0.160861 0
-0.40434 0.576893 0
-0.518338 0.632958 0
-0.7538 0.554718 0
-0.70943 0.54982 0
-0.52424 0.182336 0
-0.349386 0.247701 0
