# vtk DataFile Version 3.0
tp3485 cell-vector
ASCII
DATASET UNSTRUCTURED_GRID
POINTS 121 double
0 0 0
0.125 0 0
0.114193 0.0508421 0
0.0836413 0.0928931 0
0.0386271 0.118882 0
-0.0130661 0.124315 0
-0.0625 0.108253 0
-0.101127 0.0734732 0
-0.122268 0.025989 0
-0.122268 -0.025989 0
-0.101127 -0.0734732 0
-0.0625 -0.108253 0
-0.0130661 -0.124315 0
0.0386271 -0.118882 0
0.0836413 -0.0928931 0
0.114193 -0.0508421 0
0.25 0 0
0.228386 0.101684 0
0.167283 0.185786 0
0.0772542 0.237764 0
-0.0261321 0.24863 0
-0.125 0.216506 0
-0.202254 0.146946 0
-0.244537 0.0519779 0
-0.244537 -0.0519779 0
-0.202254 -0.146946 0
-0.125 -0.216506 0
-0.0261321 -0.24863 0
0.0772542 -0.237764 0
0.167283 -0.185786 0
0.228386 -0.101684 0
0.375 0 0
0.34258 0.152526 0
0.250924 0.278679 0
0.115881 0.356646 0
-0.0391982 0.372946 0
-0.1875 0.32476 0
-0.303381 0.220419 0
-0.366805 0.0779669 0
-0.366805 -0.0779669 0
-0.303381 -0.220419 0
-0.1875 -0.32476 0
-0.0391982 -0.372946 0
0.115881 -0.356646 0
0.250924 -0.278679 0
0.34258 -0.152526 0
0.5 0 0
0.456773 0.203368 0
0.334565 0.371572 0
0.154508 0.475528 0
-0.0522642 0.497261 0
-0.25 0.433013 0
-0.404508 0.293893 0
-0.489074 0.103956 0
-0.489074 -0.103956 0
-0.404508 -0.293893 0
-0.25 -0.433013 0
-0.0522642 -0.497261 0
0.154508 -0.475528 0
0.334565 -0.371572 0
0.456773 -0.203368 0
0.625 0 0
0.570966 0.25421 0
0.418207 0.464466 0
0.193136 0.59441 0
-0.0653303 0.621576 0
-0.3125 0.541266 0
-0.505636 0.367366 0
-0.611342 0.129945 0
-0.611342 -0.129945 0
-0.505636 -0.367366 0
-0.3125 -0.541266 0
-0.0653303 -0.621576 0
0.193136 -0.59441 0
0.418207 -0.464466 0
0.570966 -0.25421 0
0.75 0 0
0.685159 0.305052 0
0.501848 0.557359 0
0.231763 0.713292 0
-0.0783963 0.745891 0
-0.375 0.649519 0
-0.606763 0.440839 0
-0.733611 0.155934 0
-0.733611 -0.155934 0
-0.606763 -0.440839 0
-0.375 -0.649519 0
-0.0783963 -0.745891 0
0.231763 -0.713292 0
0.501848 -0.557359 0
0.685159 -0.305052 0
0.875 0 0
0.799352 0.355895 0
0.585489 0.650252 0
0.27039 0.832174 0
-0.0914624 0.870207 0
-0.4375 0.757772 0
-0.70789 0.514312 0
-0.855879 0.181923 0
-0.855879 -0.181923 0
-0.70789 -0.514312 0
-0.4375 -0.757772 0
-0.0914624 -0.870207 0
0.27039 -0.832174 0
0.585489 -0.650252 0
0.799352 -0.355895 0
1 0 0
0.913545 0.406737 0
0.669131 0.743145 0
0.309017 0.951057 0
-0.104528 0.994522 0
-0.5 0.866025 0
-0.809017 0.587785 0
-0.978148 0.207912 0
-0.978148 -0.207912 0
-0.809017 -0.587785 0
-0.5 -0.866025 0
-0.104528 -0.994522 0
0.309017 -0.951057 0
0.669131 -0.743145 0
0.913545 -0.406737 0
CELLS 225 900
3 0 1 2
3 0 2 3
3 0 3 4
3 0 4 5
3 0 5 6
3 0 6 7
3 0 7 8
3 0 8 9
3 0 9 10
3 0 10 11
3 0 11 12
3 0 12 13
3 0 13 14
3 0 14 15
3 0 15 1
3 1 16 17
3 1 17 2
3 2 17 18
3 2 18 3
3 3 18 19
3 3 19 4
3 4 19 20
3 4 20 5
3 5 20 21
3 5 21 6
3 6 21 22
3 6 22 7
3 7 22 23
3 7 23 8
3 8 23 24
3 8 24 9
3 9 24 25
3 9 25 10
3 10 25 26
3 10 26 11
3 11 26 27
3 11 27 12
3 12 27 28
3 12 28 13
3 13 28 29
3 13 29 14
3 14 29 30
3 14 30 15
3 15 30 16
3 15 16 1
3 16 31 32
3 16 32 17
3 17 32 33
3 17 33 18
3 18 33 34
3 18 34 19
3 19 34 35
3 19 35 20
3 20 35 36
3 20 36 21
3 21 36 37
3 21 37 22
3 22 37 38
3 22 38 23
3 23 38 39
3 23 39 24
3 24 39 40
3 24 40 25
3 25 40 41
3 25 41 26
3 26 41 42
3 26 42 27
3 27 42 43
3 27 43 28
3 28 43 44
3 28 44 29
3 29 44 45
3 29 45 30
3 30 45 31
3 30 31 16
3 31 46 47
3 31 47 32
3 32 47 48
3 32 48 33
3 33 48 49
3 33 49 34
3 34 49 50
3 34 50 35
3 35 50 51
3 35 51 36
3 36 51 52
3 36 52 37
3 37 52 53
3 37 53 38
3 38 53 54
3 38 54 39
3 39 54 55
3 39 55 40
3 40 55 56
3 40 56 41
3 41 56 57
3 41 57 42
3 42 57 58
3 42 58 43
3 43 58 59
3 43 59 44
3 44 59 60
3 44 60 45
3 45 60 46
3 45 46 31
3 46 61 62
3 46 62 47
3 47 62 63
3 47 63 48
3 48 63 64
3 48 64 49
3 49 64 65
3 49 65 50
3 50 65 66
3 50 66 51
3 51 66 67
3 51 67 52
3 52 67 68
3 52 68 53
3 53 68 69
3 53 69 54
3 54 69 70
3 54 70 55
3 55 70 71
3 55 71 56
3 56 71 72
3 56 72 57
3 57 72 73
3 57 73 58
3 58 73 74
3 58 74 59
3 59 74 75
3 59 75 60
3 60 75 61
3 60 61 46
3 61 76 77
3 61 77 62
3 62 77 78
3 62 78 63
3 63 78 79
3 63 79 64
3 64 79 80
3 64 80 65
3 65 80 81
3 65 81 66
3 66 81 82
3 66 82 67
3 67 82 83
3 67 83 68
3 68 83 84
3 68 84 69
3 69 84 85
3 69 85 70
3 70 85 86
3 70 86 71
3 71 86 87
3 71 87 72
3 72 87 88
3 72 88 73
3 73 88 89
3 73 89 74
3 74 89 90
3 74 90 75
3 75 90 76
3 75 76 61
3 76 91 92
3 76 92 77
3 77 92 93
3 77 93 78
3 78 93 94
3 78 94 79
3 79 94 95
3 79 95 80
3 80 95 96
3 80 96 81
3 81 96 97
3 81 97 82
3 82 97 98
3 82 98 83
3 83 98 99
3 83 99 84
3 84 99 100
3 84 100 85
3 85 100 101
3 85 101 86
3 86 101 102
3 86 102 87
3 87 102 103
3 87 103 88
3 88 103 104
3 88 104 89
3 89 104 105
3 89 105 90
3 90 105 91
3 90 91 76
3 91 106 107
3 91 107 92
3 92 107 108
3 92 108 93
3 93 108 109
3 93 109 94
3 94 109 110
3 94 110 95
3 95 110 111
3 95 111 96
3 96 111 112
3 96 112 97
3 97 112 113
3 97 113 98
3 98 113 114
3 98 114 99
3 99 114 115
3 99 115 100
3 100 115 116
3 100 116 101
3 101 116 117
3 101 117 102
3 102 117 118
3 102 118 103
3 103 118 119
3 103 119 104
3 104 119 120
3 104 120 105
3 105 120 106
3 105 106 91
CELL_TYPES 225
5
5
5
5
5
5
5
5
5
5
5
5
5
5
5
5
5
5
5
5
5
5
5
5
5
5
5
5
5
5
5
5
5
5
5
5
5
5
5
5
5
5
5
5
5
5
5
5
5
5
5
5
5
5
5
5
5
5
5
5
5
5
5
5
5
5
5
5
5
5
5
5
5
5
5
5
5
5
5
5
5
5
5
5
5
5
5
5
5
5
5
5
5
5
5
5
5
5
5
5
5
5
5
5
5
5
5
5
5
5
5
5
5
5
5
5
5
5
5
5
5
5
5
5
5
5
5
5
5
5
5
5
5
5
5
5
5
5
5
5
5
5
5
5
5
5
5
5
5
5
5
5
5
5
5
5
5
5
5
5
5
5
5
5
5
5
5
5
5
5
5
5
5
5
5
5
5
5
5
5
5
5
5
5
5
5
5
5
5
5
5
5
5
5
5
5
5
5
5
5
5
5
5
5
5
5
5
5
5
5
5
5
5
5
5
5
5
5
5
5
5
5
5
5
5
CELL_DATA 225
VECTORS Et double
0.858207 -0.436005 0
0.822831 -0.428204 0
0.793363 -0.449274 0
0.789302 -0.485272 0
0.813337 -0.512376 0
0.849562 -0.512651 0
0.874006 -0.485915 0
0.870493 -0.44986 0
0.841348 -0.428345 0
0.805857 -0.435607 0
0.787507 -0.466842 0
0.798439 -0.501379 0
0.831421 -0.516364 0
0.864626 -0.501881 0
0.876081 -0.467514 0
0.733374 -0.21863 0
0.778652 -0.359624 0
0.596388 -0.193329 0
0.732705 -0.345374 0
0.485924 -0.2782 0
0.691371 -0.369984 0
0.475081 -0.417081 0
0.682002 -0.417169 0
0.571033 -0.518068 0
0.710798 -0.455705 0
0.710286 -0.514335 0
0.758704 -0.46009 0
0.800691 -0.408352 0
0.794018 -0.427424 0
0.782422 -0.270252 0
0.793372 -0.379322 0
0.66757 -0.191421 0
0.757193 -0.347616 0
0.532136 -0.224025 0
0.709423 -0.353286 0
0.465742 -0.346488 0
0.681672 -0.392581 0
0.512324 -0.477772 0
0.692305 -0.439497 0
0.641057 -0.531001 0
0.734285 -0.462989 0
0.766752 -0.470951 0
0.779833 -0.44751 0
0.806233 -0.33736 0
0.798807 -0.403304 0
0.531626 0.0804914 0
0.594987 -0.0957292 0
0.263742 0.132024 0
0.444472 -0.0547805 0
0.0461964 -0.032571 0
0.313327 -0.139235 0
0.0229479 -0.304374 0
0.288336 -0.293205 0
0.209381 -0.503523 0
0.386036 -0.414804 0
0.482125 -0.498233 0
0.541775 -0.423564 0
0.660695 -0.292005 0
0.652495 -0.313689 0
0.626925 -0.0213076 0
0.644928 -0.157887 0
0.403161 0.134728 0
0.524081 -0.0592584 0
0.137476 0.0728467 0
0.369924 -0.0830698 0
0.00568541 -0.166002 0
0.284467 -0.213564 0
0.0949991 -0.423762 0
0.324262 -0.364388 0
0.346315 -0.529865 0
0.462974 -0.435736 0
0.593328 -0.414097 0
0.608812 -0.380394 0
0.672579 -0.153067 0
0.66527 -0.234984 0
0.307059 0.3616 0
0.34381 0.20839 0
-0.0649038 0.443938 0
0.0719485 0.271004 0
-0.374984 0.222611 0
-0.156494 0.110869 0
-0.41799 -0.15592 0
-0.190348 -0.166049 0
-0.165463 -0.441167 0
-0.00721117 -0.376501 0
0.21549 -0.44437 0
0.271728 -0.381224 0
0.472778 -0.16341 0
0.461885 -0.177092 0
0.436143 0.215791 0
0.437425 0.100813 0
0.129828 0.442301 0
0.214534 0.26859 0
-0.243466 0.366229 0
-0.0592918 0.215215 0
-0.436717 0.0379159 0
-0.202851 -0.023992 0
-0.322042 -0.325382 0
-0.121146 -0.290738 0
0.0246729 -0.483256 0
0.131757 -0.408508 0
0.373994 -0.331234 0
0.388501 -0.299367 0
0.494761 0.0300838 0
0.47919 -0.0355399 0
0.117308 0.528902 0
0.0668925 0.446502 0
-0.280379 0.64019 0
-0.291604 0.507965 0
-0.629186 0.419118 0
-0.577161 0.282676 0
-0.698295 0.0119775 0
-0.600814 -0.0802815 0
-0.441974 -0.311811 0
-0.34691 -0.340725 0
-0.0298397 -0.337983 0
0.0165313 -0.326308 0
0.265382 -0.0492212 0
0.249008 -0.0465723 0
0.248331 0.363391 0
0.19668 0.313371 0
-0.0697079 0.626811 0
-0.105824 0.515334 0
-0.478277 0.566725 0
-0.458326 0.425669 0
-0.707011 0.222892 0
-0.627562 0.103711 0
-0.604546 -0.177158 0
-0.501541 -0.237488 0
-0.238688 -0.368698 0
-0.163657 -0.372143 0
0.14846 -0.224978 0
0.162499 -0.211148 0
0.300708 0.158897 0
0.261098 0.138961 0
0.0033003 0.522423 0
-0.181775 0.532654 0
-0.314803 0.651665 0
-0.549285 0.561211 0
-0.623701 0.501748 0
-0.81642 0.307206 0
-0.718984 0.171877 0
-0.806406 -0.0612766 0
-0.5376 -0.119658 0
-0.525869 -0.300397 0
-0.199577 -0.179938 0
-0.160452 -0.251921 0
0.0714019 0.0309267 0
0.0480351 0.0520744 0
0.0960188 0.373399 0
-0.0383724 0.410423 0
-0.142016 0.620852 0
-0.362495 0.585991 0
-0.485185 0.609536 0
-0.709848 0.462599 0
-0.706401 0.346939 0
-0.850575 0.1219 0
-0.659276 0.00683242 0
-0.691551 -0.210652 0
-0.374995 -0.185723 0
-0.338008 -0.314995 0
-0.041677 -0.103305 0
-0.0239002 -0.122081 0
0.120108 0.199547 0
0.042916 0.240432 0
-0.0251558 0.341366 0
-0.344994 0.433144 0
-0.170453 0.467016 0
-0.626166 0.403787 0
-0.361051 0.443115 0
-0.792491 0.175191 0
-0.470824 0.28548 0
-0.733904 -0.101372 0
-0.427132 0.0984244 0
-0.489176 -0.242891 0
-0.258886 0.00572954 0
-0.220251 -0.155716 0
-0.077422 0.0687355 0
-0.105089 0.102465 0
-0.00282139 0.245749 0
-0.219896 0.360804 0
-0.0844503 0.419633 0
-0.4887 0.448348 0
-0.268292 0.475322 0
-0.733623 0.307166 0
-0.432691 0.375964 0
-0.79259 0.0306833 0
-0.468858 0.187309 0
-0.62658 -0.198141 0
-0.35286 0.0341961 0
-0.345449 -0.227884 0
-0.161458 0.0179468 0
-0.135231 -0.038865 0
-0.021309 0.149314 0
-0.135037 0.243836 0
0.00684969 0.0502766 0
-0.376603 0.183663 0
0.0741225 0.142289 0
-0.493397 0.0948545 0
0.0507581 0.253851 0
-0.505549 -0.0513643 0
-0.0477824 0.311137 0
-0.405019 -0.158235 0
-0.156291 0.27624 0
-0.25833 -0.155037 0
-0.202963 0.172251 0
-0.162554 -0.043886 0
-0.156914 0.0679847 0
-0.181068 0.101664 0
-0.0486166 0.0324379 0
-0.301621 0.185298 0
0.050265 0.0891333 0
-0.444438 0.151671 0
0.0742969 0.200553 0
-0.515013 0.0230366 0
0.00757616 0.292967 0
-0.466642 -0.115484 0
-0.105746 0.305221 0
-0.331335 -0.172225 0
-0.190679 0.229206 0
-0.198629 -0.10964 0
-0.19102 0.115224 0
-0.156342 0.0308568 0
-0.106543 0.0387016 0
-0.232456 0.156293 0
