# vtk DataFile Version 3.0
tp3485 cell-vector
ASCII
DATASET UNSTRUCTURED_GRID
POINTS 121 double
0 0 0
0.125 0 0
0.114193 0.0508421 0
0.0836413 0.0928931 0
0.0386271 0.118882 0
-0.0130661 0.124315 0
-0.0625 0.108253 0
-0.101127 0.0734732 0
-0.122268 0.025989 0
-0.122268 -0.025989 0
-0.101127 -0.0734732 0
-0.0625 -0.108253 0
-0.0130661 -0.124315 0
0.0386271 -0.118882 0
0.0836413 -0.0928931 0
0.114193 -0.0508421 0
0.25 0 0
0.228386 0.101684 0
0.167283 0.185786 0
0.0772542 0.237764 0
-0.0261321 0.24863 0
-0.125 0.216506 0
-0.202254 0.146946 0
-0.244537 0.0519779 0
-0.244537 -0.0519779 0
-0.202254 -0.146946 0
-0.125 -0.216506 0
-0.0261321 -0.24863 0
0.0772542 -0.237764 0
0.167283 -0.185786 0
0.228386 -0.101684 0
0.375 0 0
0.34258 0.152526 0
0.250924 0.278679 0
0.115881 0.356646 0
-0.0391982 0.372946 0
-0.1875 0.32476 0
-0.303381 0.220419 0
-0.366805 0.0779669 0
-0.366805 -0.0779669 0
-0.303381 -0.220419 0
-0.1875 -0.32476 0
-0.0391982 -0.372946 0
0.115881 -0.356646 0
0.250924 -0.278679 0
0.34258 -0.152526 0
0.5 0 0
0.456773 0.203368 0
0.334565 0.371572 0
0.154508 0.475528 0
-0.0522642 0.497261 0
-0.25 0.433013 0
-0.404508 0.293893 0
-0.489074 0.103956 0
-0.489074 -0.103956 0
-0.404508 -0.293893 0
-0.25 -0.433013 0
-0.0522642 -0.497261 0
0.154508 -0.475528 0
0.334565 -0.371572 0
0.456773 -0.203368 0
0.625 0 0
0.570966 0.25421 0
0.418207 0.464466 0
0.193136 0.59441 0
-0.0653303 0.621576 0
-0.3125 0.541266 0
-0.505636 0.367366 0
-0.611342 0.129945 0
-0.611342 -0.129945 0
-0.505636 -0.367366 0
-0.3125 -0.541266 0
-0.0653303 -0.621576 0
0.193136 -0.59441 0
0.418207 -0.464466 0
0.570966 -0.25421 0
0.75 0 0
0.685159 0.305052 0
0.501848 0.557359 0
0.231763 0.713292 0
-0.0783963 0.745891 0
-0.375 0.649519 0
-0.606763 0.440839 0
-0.733611 0.155934 0
-0.733611 -0.155934 0
-0.606763 -0.440839 0
-0.375 -0.649519 0
-0.0783963 -0.745891 0
0.231763 -0.713292 0
0.501848 -0.557359 0
0.685159 -0.305052 0
0.875 0 0
0.799352 0.355895 0
0.585489 0.650252 0
0.27039 0.832174 0
-0.0914624 0.870207 0
-0.4375 0.757772 0
-0.70789 0.514312 0
-0.855879 0.181923 0
-0.855879 -0.181923 0
-0.70789 -0.514312 0
-0.4375 -0.757772 0
-0.0914624 -0.870207 0
0.27039 -0.832174 0
0.585489 -0.650252 0
0.799352 -0.355895 0
1 0 0
0.913545 0.406737 0
0.669131 0.743145 0
0.309017 0.951057 0
-0.104528 0.994522 0
-0.5 0.866025 0
-0.809017 0.587785 0
-0.978148 0.207912 0
-0.978148 -0.207912 0
-0.809017 -0.587785 0
-0.5 -0.866025 0
-0.104528 -0.994522 0
0.309017 -0.951057 0
0.669131 -0.743145 0
0.913545 -0.406737 0
CELLS 225 900
3 0 1 2
3 0 2 3
3 0 3 4
3 0 4 5
3 0 5 6
3 0 6 7
3 0 7 8
3 0 8 9
3 0 9 10
3 0 10 11
3 0 11 12
3 0 12 13
3 0 13 14
3 0 14 15
3 0 15 1
3 1 16 17
3 1 17 2
3 2 17 18
3 2 18 3
3 3 18 19
3 3 19 4
3 4 19 20
3 4 20 5
3 5 20 21
3 5 21 6
3 6 21 22
3 6 22 7
3 7 22 23
3 7 23 8
3 8 23 24
3 8 24 9
3 9 24 25
3 9 25 10
3 10 25 26
3 10 26 11
3 11 26 27
3 11 27 12
3 12 27 28
3 12 28 13
3 13 28 29
3 13 29 14
3 14 29 30
3 14 30 15
3 15 30 16
3 15 16 1
3 16 31 32
3 16 32 17
3 17 32 33
3 17 33 18
3 18 33 34
3 18 34 19
3 19 34 35
3 19 35 20
3 20 35 36
3 20 36 21
3 21 36 37
3 21 37 22
3 22 37 38
3 22 38 23
3 23 38 39
3 23 39 24
3 24 39 40
3 24 40 25
3 25 40 41
3 25 41 26
3 26 41 42
3 26 42 27
3 27 42 43
3 27 43 28
3 28 43 44
3 28 44 29
3 29 44 45
3 29 45 30
3 30 45 31
3 30 31 16
3 31 46 47
3 31 47 32
3 32 47 48
3 32 48 33
3 33 48 49
3 33 49 34
3 34 49 50
3 34 50 35
3 35 50 51
3 35 51 36
3 36 51 52
3 36 52 37
3 37 52 53
3 37 53 38
3 38 53 54
3 38 54 39
3 39 54 55
3 39 55 40
3 40 55 56
3 40 56 41
3 41 56 57
3 41 57 42
3 42 57 58
3 42 58 43
3 43 58 59
3 43 59 44
3 44 59 60
3 44 60 45
3 45 60 46
3 45 46 31
3 46 61 62
3 46 62 47
3 47 62 63
3 47 63 48
3 48 63 64
3 48 64 49
3 49 64 65
3 49 65 50
3 50 65 66
3 50 66 51
3 51 66 67
3 51 67 52
3 52 67 68
3 52 68 53
3 53 68 69
3 53 69 54
3 54 69 70
3 54 70 55
3 55 70 71
3 55 71 56
3 56 71 72
3 56 72 57
3 57 72 73
3 57 73 58
3 58 73 74
3 58 74 59
3 59 74 75
3 59 75 60
3 60 75 61
3 60 61 46
3 61 76 77
3 61 77 62
3 62 77 78
3 62 78 63
3 63 78 79
3 63 79 64
3 64 79 80
3 64 80 65
3 65 80 81
3 65 81 66
3 66 81 82
3 66 82 67
3 67 82 83
3 67 83 68
3 68 83 84
3 68 84 69
3 69 84 85
3 69 85 70
3 70 85 86
3 70 86 71
3 71 86 87
3 71 87 72
3 72 87 88
3 72 88 73
3 73 88 89
3 73 89 74
3 74 89 90
3 74 90 75
3 75 90 76
3 75 76 61
3 76 91 92
3 76 92 77
3 77 92 93
3 77 93 78
3 78 93 94
3 78 94 79
3 79 94 95
3 79 95 80
3 80 95 96
3 80 96 81
3 81 96 97
3 81 97 82
3 82 97 98
3 82 98 83
3 83 98 99
3 83 99 84
3 84 99 100
3 84 100 85
3 85 100 101
3 85 101 86
3 86 101 102
3 86 102 87
3 87 102 103
3 87 103 88
3 88 103 104
3 88 104 89
3 89 104 105
3 89 105 90
3 90 105 91
3 90 91 76
3 91 106 107
3 91 107 92
3 92 107 108
3 92 108 93
3 93 108 109
3 93 109 94
3 94 109 110
3 94 110 95
3 95 110 111
3 95 111 96
3 96 111 112
3 96 112 97
3 97 112 113
3 97 113 98
3 98 113 114
3 98 114 99
3 99 114 115
3 99 115 100
3 100 115 116
3 100 116 101
3 101 116 117
3 101 117 102
3 102 117 118
3 102 118 103
3 103 118 119
3 103 119 104
3 104 119 120
3 104 120 105
3 105 120 106
3 105 106 91
CELL_TYPES 225
5
5
5
5
5
5
5
5
5
5
5
5
5
5
5
5
5
5
5
5
5
5
5
5
5
5
5
5
5
5
5
5
5
5
5
5
5
5
5
5
5
5
5
5
5
5
5
5
5
5
5
5
5
5
5
5
5
5
5
5
5
5
5
5
5
5
5
5
5
5
5
5
5
5
5
5
5
5
5
5
5
5
5
5
5
5
5
5
5
5
5
5
5
5
5
5
5
5
5
5
5
5
5
5
5
5
5
5
5
5
5
5
5
5
5
5
5
5
5
5
5
5
5
5
5
5
5
5
5
5
5
5
5
5
5
5
5
5
5
5
5
5
5
5
5
5
5
5
5
5
5
5
5
5
5
5
5
5
5
5
5
5
5
5
5
5
5
5
5
5
5
5
5
5
5
5
5
5
5
5
5
5
5
5
5
5
5
5
5
5
5
5
5
5
5
5
5
5
5
5
5
5
5
5
5
5
5
5
5
5
5
5
5
5
5
5
5
5
5
5
5
5
5
5
5
CELL_DATA 225
VECTORS Et double
0.0819283 -0.114614 0
0.107355 -0.183387 0
-0.0332835 -0.0607464 0
-0.211639 0.000264658 0
-0.142431 0.0123299 0
0.0582948 0.128259 0
0.10514 0.184666 0
0.0692496 0.00154881 0
0.10559 -0.183417 0
0.0605374 -0.129514 0
-0.140223 -0.0136448 0
-0.212495 -0.00127929 0
-0.0359661 0.0591975 0
0.106049 0.183153 0
0.0818934 0.117184 0
0.400882 -0.241491 0
0.195505 -0.0649759 0
0.319602 -0.452284 0
-0.126424 -0.318023 0
-0.153563 -0.311344 0
-0.170541 -0.313148 0
-0.558406 -0.149262 0
-0.169312 0.0870766 0
-0.406376 0.0978057 0
-0.236084 0.342876 0
0.0086962 0.46792 0
-0.0414819 0.201801 0
0.231888 0.502926 0
0.338629 0.0495249 0
0.346414 0.0226825 0
0.356465 0.00888148 0
0.408467 -0.408962 0
0.00924569 -0.190167 0
0.118486 -0.400835 0
-0.178898 -0.375893 0
-0.409578 -0.226429 0
-0.154024 -0.136825 0
-0.551491 -0.0506419 0
-0.212204 0.268499 0
-0.19285 0.288662 0
-0.185924 0.304267 0
0.149938 0.558224 0
0.160067 0.103091 0
0.28789 0.303029 0
0.414981 0.0330164 0
0.775944 -0.226623 0
0.464598 -0.135778 0
0.434864 -0.569949 0
-0.151421 -0.644761 0
-0.298824 -0.637478 0
-0.335194 -0.656508 0
-0.723005 -0.376835 0
-0.402051 0.0890313 0
-0.587268 0.254117 0
-0.512971 0.637588 0
-0.19171 0.785299 0
-0.114712 0.470243 0
0.276159 0.661578 0
0.63409 0.191246 0
0.701484 0.0599492 0
0.73615 0.0379676 0
0.687851 -0.437723 0
0.123922 -0.392702 0
0.0735626 -0.635647 0
-0.295682 -0.76304 0
-0.584233 -0.558675 0
-0.349886 -0.334465 0
-0.711022 -0.0916285 0
-0.482669 0.453515 0
-0.40266 0.577528 0
-0.400956 0.618541 0
0.0351538 0.814558 0
0.278129 0.303671 0
0.513706 0.381531 0
0.808653 0.125452 0
0.968753 -0.00875402 0
0.679281 -0.0649137 0
0.278685 -0.364512 0
-0.181436 -0.6796 0
-0.405752 -0.849816 0
-0.434371 -0.890681 0
-0.472826 -0.545002 0
-0.404987 -0.022497 0
-0.489993 0.443603 0
-0.594256 0.804276 0
-0.476795 0.843342 0
-0.283424 0.620732 0
0.176334 0.423605 0
0.679269 0.182672 0
0.938838 0.0735167 0
0.988538 0.0691642 0
0.708399 -0.136979 0
0.221977 -0.339481 0
-0.139175 -0.646148 0
-0.399396 -0.916779 0
-0.491958 -0.834588 0
-0.395857 -0.555818 0
-0.45502 -0.0590926 0
-0.497833 0.496928 0
-0.533086 0.776299 0
-0.554167 0.821517 0
-0.235572 0.681981 0
0.183011 0.361978 0
0.629168 0.202545 0
0.993651 0.112502 0
0.852177 0.30771 0
0.666456 0.161604 0
-0.108382 0.131341 0
-0.285702 -0.277781 0
-0.435753 -0.792278 0
-0.417331 -0.832062 0
0.123261 -0.564201 0
-0.0417243 -0.176501 0
-0.0857812 0.566401 0
-0.318283 0.756754 0
-0.692573 0.584151 0
-0.473181 0.496366 0
-0.059554 -0.159532 0
0.383417 -0.108535 0
0.90401 0.018766 0
0.929252 0.0546118 0
0.426982 0.388848 0
0.173717 0.0521163 0
-0.447627 -0.357489 0
-0.496227 -0.654018 0
-0.159603 -0.891862 0
-0.193275 -0.657969 0
0.167936 0.0281908 0
-0.0977146 0.386316 0
-0.468257 0.773512 0
-0.511921 0.77745 0
-0.550243 0.175354 0
-0.131992 0.124385 0
0.533408 -0.208912 0
0.81451 -0.102736 0
0.463222 0.490829 0
0.328104 0.384918 0
-0.438838 0.645677 0
-0.475548 0.346796 0
-0.355276 -0.418433 0
-0.289167 -0.425129 0
0.678066 -0.431478 0
0.519527 -0.191369 0
0.418071 0.470844 0
0.21899 0.521909 0
-0.656681 0.155748 0
-0.4974 0.0916874 0
-0.339754 -0.702883 0
-0.0625603 -0.585235 0
0.540011 -0.0984618 0
0.512756 -0.0378616 0
0.0346384 0.802962 0
-0.0940329 0.545608 0
-0.616799 0.126638 0
-0.561482 -0.0713035 0
0.193459 -0.646576 0
0.169296 -0.476605 0
0.778592 0.0572062 0
0.538109 0.238439 0
-0.184735 0.516895 0
-0.223589 0.46299 0
-0.712704 -0.371483 0
-0.425494 -0.354239 0
0.198728 -0.597483 0
0.342492 -0.450606 0
-0.0237278 0.34712 0
-0.244119 0.381 0
-0.362459 0.792875 0
-0.657179 0.704398 0
-0.130119 0.14191 0
-0.101629 0.158982 0
0.722615 -0.213764 0
0.865864 0.081259 0
0.654251 0.0626983 0
0.654592 0.232682 0
-0.288751 -0.194109 0
-0.207896 -0.401913 0
-0.50542 -0.710336 0
-0.281438 -0.921333 0
-0.0578382 -0.183641 0
-0.0868683 -0.167504 0
-0.176183 0.732685 0
-0.503304 0.709231 0
-0.381424 0.535249 0
-0.528805 0.450552 0
0.312478 -0.153011 0
0.452015 0.0209133 0
0.867879 -0.0825387 0
0.938616 0.216934 0
0.187957 0.0417311 0
0.188497 0.00852207 0
-0.546432 -0.518921 0
-0.36256 -0.79049 0
-0.272827 -0.597947 0
-0.125787 -0.683234 0
-0.384528 -0.0630744 0
-0.703082 0.0826367 0
0.176066 0.349575 0
-0.6333 0.396744 0
0.221958 0.569595 0
0.07457 0.532002 0
0.124109 0.0126356 0
0.626968 0.524275 0
0.341668 -0.507748 0
0.567654 0.0422165 0
0.246888 -0.301474 0
0.279976 -0.650205 0
-0.390774 -0.0223098 0
-0.0269405 -0.746826 0
-0.604263 -0.092576 0
-0.498013 -0.201422 0
-0.0729971 0.101164 0
-0.767519 0.280832 0
0.268889 0.549768 0
-0.320388 0.470495 0
0.13764 0.364548 0
0.423106 0.567569 0
0.214708 -0.327265 0
0.66024 0.350082 0
0.382305 -0.477019 0
0.423443 -0.330581 0
-0.0511116 -0.113799 0
0.140552 -0.805107 0
-0.610557 -0.0420192 0
-0.247267 -0.512711 0
