# vtk DataFile Version 3.0
tp3485 cell-vector
ASCII
DATASET UNSTRUCTURED_GRID
POINTS 121 double
0 0 0
0.125 0 0
0.114193 0.0508421 0
0.0836413 0.0928931 0
0.0386271 0.118882 0
-0.0130661 0.124315 0
-0.0625 0.108253 0
-0.101127 0.0734732 0
-0.122268 0.025989 0
-0.122268 -0.025989 0
-0.101127 -0.0734732 0
-0.0625 -0.108253 0
-0.0130661 -0.124315 0
0.0386271 -0.118882 0
0.0836413 -0.0928931 0
0.114193 -0.0508421 0
0.25 0 0
0.228386 0.101684 0
0.167283 0.185786 0
0.0772542 0.237764 0
-0.0261321 0.24863 0
-0.125 0.216506 0
-0.202254 0.146946 0
-0.244537 0.0519779 0
-0.244537 -0.0519779 0
-0.202254 -0.146946 0
-0.125 -0.216506 0
-0.0261321 -0.24863 0
0.0772542 -0.237764 0
0.167283 -0.185786 0
0.228386 -0.101684 0
0.375 0 0
0.34258 0.152526 0
0.250924 0.278679 0
0.115881 0.356646 0
-0.0391982 0.372946 0
-0.1875 0.32476 0
-0.303381 0.220419 0
-0.366805 0.0779669 0
-0.366805 -0.0779669 0
-0.303381 -0.220419 0
-0.1875 -0.32476 0
-0.0391982 -0.372946 0
0.115881 -0.356646 0
0.250924 -0.278679 0
0.34258 -0.152526 0
0.5 0 0
0.456773 0.203368 0
0.334565 0.371572 0
0.154508 0.475528 0
-0.0522642 0.497261 0
-0.25 0.433013 0
-0.404508 0.293893 0
-0.489074 0.103956 0
-0.489074 -0.103956 0
-0.404508 -0.293893 0
-0.25 -0.433013 0
-0.0522642 -0.497261 0
0.154508 -0.475528 0
0.334565 -0.371572 0
0.456773 -0.203368 0
0.625 0 0
0.570966 0.25421 0
0.418207 0.464466 0
0.193136 0.59441 0
-0.0653303 0.621576 0
-0.3125 0.541266 0
-0.505636 0.367366 0
-0.611342 0.129945 0
-0.611342 -0.129945 0
-0.505636 -0.367366 0
-0.3125 -0.541266 0
-0.0653303 -0.621576 0
0.193136 -0.59441 0
0.418207 -0.464466 0
0.570966 -0.25421 0
0.75 0 0
0.685159 0.305052 0
0.501848 0.557359 0
0.231763 0.713292 0
-0.0783963 0.745891 0
-0.375 0.649519 0
-0.606763 0.440839 0
-0.733611 0.155934 0
-0.733611 -0.155934 0
-0.606763 -0.440839 0
-0.375 -0.649519 0
-0.0783963 -0.745891 0
0.231763 -0.713292 0
0.501848 -0.557359 0
0.685159 -0.305052 0
0.875 0 0
0.799352 0.355895 0
0.585489 0.650252 0
0.27039 0.832174 0
-0.0914624 0.870207 0
-0.4375 0.757772 0
-0.70789 0.514312 0
-0.855879 0.181923 0
-0.855879 -0.181923 0
-0.70789 -0.514312 0
-0.4375 -0.757772 0
-0.0914624 -0.870207 0
0.27039 -0.832174 0
0.585489 -0.650252 0
0.799352 -0.355895 0
1 0 0
0.913545 0.406737 0
0.669131 0.743145 0
0.309017 0.951057 0
-0.104528 0.994522 0
-0.5 0.866025 0
-0.809017 0.587785 0
-0.978148 0.207912 0
-0.978148 -0.207912 0
-0.809017 -0.587785 0
-0.5 -0.866025 0
-0.104528 -0.994522 0
0.309017 -0.951057 0
0.669131 -0.743145 0
0.913545 -0.406737 0
CELLS 225 900
3 0 1 2
3 0 2 3
3 0 3 4
3 0 4 5
3 0 5 6
3 0 6 7
3 0 7 8
3 0 8 9
3 0 9 10
3 0 10 11
3 0 11 12
3 0 12 13
3 0 13 14
3 0 14 15
3 0 15 1
3 1 16 17
3 1 17 2
3 2 17 18
3 2 18 3
3 3 18 19
3 3 19 4
3 4 19 20
3 4 20 5
3 5 20 21
3 5 21 6
3 6 21 22
3 6 22 7
3 7 22 23
3 7 23 8
3 8 23 24
3 8 24 9
3 9 24 25
3 9 25 10
3 10 25 26
3 10 26 11
3 11 26 27
3 11 27 12
3 12 27 28
3 12 28 13
3 13 28 29
3 13 29 14
3 14 29 30
3 14 30 15
3 15 30 16
3 15 16 1
3 16 31 32
3 16 32 17
3 17 32 33
3 17 33 18
3 18 33 34
3 18 34 19
3 19 34 35
3 19 35 20
3 20 35 36
3 20 36 21
3 21 36 37
3 21 37 22
3 22 37 38
3 22 38 23
3 23 38 39
3 23 39 24
3 24 39 40
3 24 40 25
3 25 40 41
3 25 41 26
3 26 41 42
3 26 42 27
3 27 42 43
3 27 43 28
3 28 43 44
3 28 44 29
3 29 44 45
3 29 45 30
3 30 45 31
3 30 31 16
3 31 46 47
3 31 47 32
3 32 47 48
3 32 48 33
3 33 48 49
3 33 49 34
3 34 49 50
3 34 50 35
3 35 50 51
3 35 51 36
3 36 51 52
3 36 52 37
3 37 52 53
3 37 53 38
3 38 53 54
3 38 54 39
3 39 54 55
3 39 55 40
3 40 55 56
3 40 56 41
3 41 56 57
3 41 57 42
3 42 57 58
3 42 58 43
3 43 58 59
3 43 59 44
3 44 59 60
3 44 60 45
3 45 60 46
3 45 46 31
3 46 61 62
3 46 62 47
3 47 62 63
3 47 63 48
3 48 63 64
3 48 64 49
3 49 64 65
3 49 65 50
3 50 65 66
3 50 66 51
3 51 66 67
3 51 67 52
3 52 67 68
3 52 68 53
3 53 68 69
3 53 69 54
3 54 69 70
3 54 70 55
3 55 70 71
3 55 71 56
3 56 71 72
3 56 72 57
3 57 72 73
3 57 73 58
3 58 73 74
3 58 74 59
3 59 74 75
3 59 75 60
3 60 75 61
3 60 61 46
3 61 76 77
3 61 77 62
3 62 77 78
3 62 78 63
3 63 78 79
3 63 79 64
3 64 79 80
3 64 80 65
3 65 80 81
3 65 81 66
3 66 81 82
3 66 82 67
3 67 82 83
3 67 83 68
3 68 83 84
3 68 84 69
3 69 84 85
3 69 85 70
3 70 85 86
3 70 86 71
3 71 86 87
3 71 87 72
3 72 87 88
3 72 88 73
3 73 88 89
3 73 89 74
3 74 89 90
3 74 90 75
3 75 90 76
3 75 76 61
3 76 91 92
3 76 92 77
3 77 92 93
3 77 93 78
3 78 93 94
3 78 94 79
3 79 94 95
3 79 95 80
3 80 95 96
3 80 96 81
3 81 96 97
3 81 97 82
3 82 97 98
3 82 98 83
3 83 98 99
3 83 99 84
3 84 99 100
3 84 100 85
3 85 100 101
3 85 101 86
3 86 101 102
3 86 102 87
3 87 102 103
3 87 103 88
3 88 103 104
3 88 104 89
3 89 104 105
3 89 105 90
3 90 105 91
3 90 91 76
3 91 106 107
3 91 107 92
3 92 107 108
3 92 108 93
3 93 108 109
3 93 109 94
3 94 109 110
3 94 110 95
3 95 110 111
3 95 111 96
3 96 111 112
3 96 112 97
3 97 112 113
3 97 113 98
3 98 113 114
3 98 114 99
3 99 114 115
3 99 115 100
3 100 115 116
3 100 116 101
3 101 116 117
3 101 117 102
3 102 117 118
3 102 118 103
3 103 118 119
3 103 119 104
3 104 119 120
3 104 120 105
3 105 120 106
3 105 106 91
CELL_TYPES 225
5
5
5
5
5
5
5
5
5
5
5
5
5
5
5
5
5
5
5
5
5
5
5
5
5
5
5
5
5
5
5
5
5
5
5
5
5
5
5
5
5
5
5
5
5
5
5
5
5
5
5
5
5
5
5
5
5
5
5
5
5
5
5
5
5
5
5
5
5
5
5
5
5
5
5
5
5
5
5
5
5
5
5
5
5
5
5
5
5
5
5
5
5
5
5
5
5
5
5
5
5
5
5
5
5
5
5
5
5
5
5
5
5
5
5
5
5
5
5
5
5
5
5
5
5
5
5
5
5
5
5
5
5
5
5
5
5
5
5
5
5
5
5
5
5
5
5
5
5
5
5
5
5
5
5
5
5
5
5
5
5
5
5
5
5
5
5
5
5
5
5
5
5
5
5
5
5
5
5
5
5
5
5
5
5
5
5
5
5
5
5
5
5
5
5
5
5
5
5
5
5
5
5
5
5
5
5
5
5
5
5
5
5
5
5
5
5
5
5
5
5
5
5
5
5
CELL_DATA 225
VECTORS Ht double
-0.0342625 0.161192 0
-0.0968633 0.133321 0
-0.142715 0.0823968 0
-0.163891 0.0172256 0
-0.156728 -0.050924 0
-0.122466 -0.110268 0
-0.0670276 -0.150546 0
6.17462e-14 -0.164794 0
0.0670276 -0.150546 0
0.122466 -0.110268 0
0.156728 -0.050924 0
0.163891 0.0172256 0
0.142715 0.0823968 0
0.0968633 0.133321 0
0.0342625 0.161192 0
-0.0654682 0.394731 0
-0.103285 0.312461 0
-0.22036 0.333977 0
-0.221444 0.243437 0
-0.337149 0.215474 0
-0.301314 0.132322 0
-0.395642 0.0597147 0
-0.329084 -0.00167374 0
-0.385726 -0.10637 0
-0.299953 -0.13538 0
-0.309113 -0.254063 0
-0.218957 -0.245677 0
-0.179052 -0.357826 0
-0.100101 -0.313495 0
-0.0180316 -0.399717 0
0.0360633 -0.327107 0
0.146107 -0.372494 0
0.165992 -0.284159 0
0.284982 -0.280863 0
0.267219 -0.192077 0
0.374581 -0.140668 0
0.322241 -0.0667833 0
0.399412 0.023849 0
0.321545 0.0700577 0
0.355181 0.184243 0
0.265251 0.194785 0
0.249536 0.312779 0
0.163093 0.285832 0
0.100743 0.387233 0
0.0327341 0.327457 0
-0.0893122 0.600641 0
-0.169641 0.527408 0
-0.325893 0.512386 0
-0.369491 0.412812 0
-0.506125 0.335535 0
-0.505452 0.226837 0
-0.598842 0.100667 0
-0.554016 0.00163997 0
-0.588015 -0.151607 0
-0.506786 -0.223841 0
-0.475514 -0.377667 0
-0.371928 -0.410617 0
-0.280793 -0.538425 0
-0.17276 -0.526394 0
-0.0375197 -0.606084 0
0.0562795 -0.551153 0
0.212241 -0.568946 0
0.275588 -0.480612 0
0.425303 -0.433432 0
0.447245 -0.326969 0
0.564826 -0.222974 0
0.541569 -0.116791 0
0.606686 0.0260389 0
0.542251 0.113582 0
0.543644 0.270549 0
0.449173 0.324316 0
0.386601 0.468279 0
0.278429 0.478972 0
0.162712 0.585039 0
0.0595415 0.55081 0
-0.102216 0.765667 0
-0.231103 0.707545 0
-0.404804 0.657897 0
-0.498907 0.552377 0
-0.637397 0.43637 0
-0.680446 0.301697 0
-0.759779 0.139391 0
-0.74433 -0.00114822 0
-0.750789 -0.18169 0
-0.679512 -0.303795 0
-0.61198 -0.471355 0
-0.497201 -0.553913 0
-0.367354 -0.679519 0
-0.228919 -0.708255 0
-0.0592092 -0.770188 0
0.0789456 -0.740132 0
0.259173 -0.727684 0
0.373159 -0.644035 0
0.532742 -0.559357 0
0.602851 -0.436577 0
0.714195 -0.294312 0
0.728303 -0.153632 0
0.772157 0.0216217 0
0.727826 0.155878 0
0.696607 0.333817 0
0.601501 0.438435 0
0.500606 0.588293 0
0.371171 0.645183 0
0.218046 0.741047 0
0.0766617 0.740373 0
-0.101714 0.879309 0
-0.285137 0.840487 0
-0.450568 0.761918 0
-0.602343 0.651848 0
-0.721514 0.512784 0
-0.815398 0.350498 0
-0.867704 0.174986 0
-0.887463 -0.0114566 0
-0.86386 -0.19307 0
-0.806078 -0.37143 0
-0.710647 -0.527742 0
-0.585315 -0.66718 0
-0.434556 -0.771162 0
-0.263345 -0.847568 0
-0.0833272 -0.881242 0
0.104159 -0.881404 0
0.28231 -0.838947 0
0.453653 -0.762837 0
0.599133 -0.65159 0
0.724707 -0.512369 0
0.812361 -0.351568 0
0.870452 -0.173308 0
0.885124 0.00924408 0
0.865688 0.19572 0
0.804841 0.368457 0
0.711239 0.530906 0
0.585394 0.663961 0
0.43381 0.774294 0
0.264727 0.84466 0
0.0813713 0.883799 0
-0.0867554 0.934541 0
-0.329218 0.917183 0
-0.459367 0.818459 0
-0.673807 0.703983 0
-0.75255 0.560858 0
-0.901889 0.369058 0
-0.91561 0.20628 0
-0.974026 -0.0296799 0
-0.920353 -0.183966 0
-0.877745 -0.423286 0
-0.765958 -0.542403 0
-0.629694 -0.743702 0
-0.479123 -0.807053 0
-0.272763 -0.935526 0
-0.109442 -0.932156 0
0.131331 -0.965588 0
0.279161 -0.896081 0
0.512717 -0.828692 0
0.619496 -0.705066 0
0.805449 -0.548507 0
0.852714 -0.392138 0
0.958912 -0.17348 0
0.938489 -0.011406 0
0.946571 0.231543 0
0.861992 0.371298 0
0.770558 0.59653 0
0.636448 0.689801 0
0.46131 0.858372 0
0.300857 0.889032 0
0.0722961 0.971793 0
-0.0578791 0.92833 0
-0.360914 0.932599 0
-0.430461 0.82453 0
-0.709034 0.705175 0
-0.728612 0.578162 0
-0.934555 0.355819 0
-0.90078 0.231824 0
-0.998483 -0.0550609 0
-0.917195 -0.154599 0
-0.889764 -0.45642 0
-0.775018 -0.51429 0
-0.627197 -0.77886 0
-0.498834 -0.785055 0
-0.256182 -0.966629 0
-0.136396 -0.920078 0
0.159129 -0.987258 0
0.249625 -0.89601 0
0.546926 -0.837181 0
0.592484 -0.717014 0
0.840154 -0.542348 0
0.832897 -0.41404 0
0.988112 -0.153739 0
0.929295 -0.0394749 0
0.965216 0.261454 0
0.865009 0.341916 0
0.775426 0.631439 0
0.651155 0.664187 0
0.451557 0.892242 0
0.324711 0.871613 0
0.0496106 0.998769 0
-0.0172577 0.861908 0
-0.378011 0.886152 0
-0.366335 0.780373 0
-0.70576 0.655789 0
-0.652071 0.563904 0
-0.911478 0.312035 0
-0.825057 0.249931 0
-0.959592 -0.0856735 0
-0.855383 -0.107257 0
-0.841784 -0.468568 0
-0.737806 -0.4459 0
-0.578425 -0.770443 0
-0.492655 -0.707442 0
-0.21505 -0.939101 0
-0.16232 -0.846662 0
0.185509 -0.94538 0
0.196081 -0.839486 0
0.553991 -0.788194 0
0.520579 -0.687155 0
0.826684 -0.494723 0
0.755064 -0.416009 0
0.956435 -0.115709 0
0.858991 -0.0729308 0
0.92081 0.283312 0
0.814391 0.282757 0
0.725969 0.633345 0
0.628975 0.589554 0
0.405601 0.873868 0
0.334804 0.794412 0
0.0151005 0.963291 0
