# vtk DataFile Version 3.0
tp3485 scalar+vector
ASCII
DATASET UNSTRUCTURED_GRID
POINTS 187 double
1 0 0
0.932472 0.361242 0
0.739009 0.673696 0
0.445738 0.895163 0
0.0922684 0.995734 0
-0.273663 0.961826 0
-0.602635 0.798017 0
-0.850217 0.526432 0
-0.982973 0.18375 0
-0.982973 -0.18375 0
-0.850217 -0.526432 0
-0.602635 -0.798017 0
-0.273663 -0.961826 0
0.0922684 -0.995734 0
0.445738 -0.895163 0
0.739009 -0.673696 0
0.932472 -0.361242 0
1.3 0 0
1.21221 0.469614 0
0.960712 0.875804 0
0.57946 1.16371 0
0.119949 1.29445 0
-0.355762 1.25037 0
-0.783425 1.03742 0
-1.10528 0.684362 0
-1.27787 0.238874 0
-1.27787 -0.238874 0
-1.10528 -0.684362 0
-0.783425 -1.03742 0
-0.355762 -1.25037 0
0.119949 -1.29445 0
0.57946 -1.16371 0
0.960712 -0.875804 0
1.21221 -0.469614 0
1.6 0 0
1.49196 0.577987 0
1.18241 1.07791 0
0.713181 1.43226 0
0.147629 1.59317 0
-0.437861 1.53892 0
-0.964215 1.27683 0
-1.36035 0.842291 0
-1.57276 0.293999 0
-1.57276 -0.293999 0
-1.36035 -0.842291 0
-0.964215 -1.27683 0
-0.437861 -1.53892 0
0.147629 -1.59317 0
0.713181 -1.43226 0
1.18241 -1.07791 0
1.49196 -0.577987 0
1.9 0 0
1.7717 0.686359 0
1.40412 1.28002 0
0.846903 1.70081 0
0.17531 1.89189 0
-0.51996 1.82747 0
-1.14501 1.51623 0
-1.61541 1.00022 0
-1.86765 0.349124 0
-1.86765 -0.349124 0
-1.61541 -1.00022 0
-1.14501 -1.51623 0
-0.51996 -1.82747 0
0.17531 -1.89189 0
0.846903 -1.70081 0
1.40412 -1.28002 0
1.7717 -0.686359 0
2.2 0 0
2.05144 0.794732 0
1.62582 1.48213 0
0.980624 1.96936 0
0.20299 2.19062 0
-0.602059 2.11602 0
-1.3258 1.75564 0
-1.87048 1.15815 0
-2.16254 0.404249 0
-2.16254 -0.404249 0
-1.87048 -1.15815 0
-1.3258 -1.75564 0
-0.602059 -2.11602 0
0.20299 -2.19062 0
0.980624 -1.96936 0
1.62582 -1.48213 0
2.05144 -0.794732 0
2.5 0 0
2.33118 0.903104 0
1.84752 1.68424 0
1.11435 2.23791 0
0.230671 2.48934 0
-0.684157 2.40456 0
-1.50659 1.99504 0
-2.12554 1.31608 0
-2.45743 0.459374 0
-2.45743 -0.459374 0
-2.12554 -1.31608 0
-1.50659 -1.99504 0
-0.684157 -2.40456 0
0.230671 -2.48934 0
1.11435 -2.23791 0
1.84752 -1.68424 0
2.33118 -0.903104 0
2.8 0 0
2.61092 1.01148 0
2.06922 1.88635 0
1.24807 2.50646 0
0.258351 2.78806 0
-0.766256 2.69311 0
-1.68738 2.23445 0
-2.38061 1.47401 0
-2.75232 0.514499 0
-2.75232 -0.514499 0
-2.38061 -1.47401 0
-1.68738 -2.23445 0
-0.766256 -2.69311 0
0.258351 -2.78806 0
1.24807 -2.50646 0
2.06922 -1.88635 0
2.61092 -1.01148 0
3.1 0 0
2.89066 1.11985 0
2.29093 2.08846 0
1.38179 2.77501 0
0.286032 3.08678 0
-0.848355 2.98166 0
-1.86817 2.47385 0
-2.63567 1.63194 0
-3.04722 0.569624 0
-3.04722 -0.569624 0
-2.63567 -1.63194 0
-1.86817 -2.47385 0
-0.848355 -2.98166 0
0.286032 -3.08678 0
1.38179 -2.77501 0
2.29093 -2.08846 0
2.89066 -1.11985 0
3.4 0 0
3.17041 1.22822 0
2.51263 2.29057 0
1.51551 3.04356 0
0.313712 3.3855 0
-0.930454 3.27021 0
-2.04896 2.71326 0
-2.89074 1.78987 0
-3.34211 0.624748 0
-3.34211 -0.624748 0
-2.89074 -1.78987 0
-2.04896 -2.71326 0
-0.930454 -3.27021 0
0.313712 -3.3855 0
1.51551 -3.04356 0
2.51263 -2.29057 0
3.17041 -1.22822 0
3.7 0 0
3.45015 1.33659 0
2.73433 2.49267 0
1.64923 3.3121 0
0.341393 3.68422 0
-1.01255 3.55875 0
-2.22975 2.95266 0
-3.1458 1.9478 0
-3.637 0.679873 0
-3.637 -0.679873 0
-3.1458 -1.9478 0
-2.22975 -2.95266 0
-1.01255 -3.55875 0
0.341393 -3.68422 0
1.64923 -3.3121 0
2.73433 -2.49267 0
3.45015 -1.33659 0
4 0 0
3.72989 1.44497 0
2.95604 2.69478 0
1.78295 3.58065 0
0.369073 3.98294 0
-1.09465 3.8473 0
-2.41054 3.19207 0
-3.40087 2.10573 0
-3.93189 0.734998 0
-3.93189 -0.734998 0
-3.40087 -2.10573 0
-2.41054 -3.19207 0
-1.09465 -3.8473 0
0.369073 -3.98294 0
1.78295 -3.58065 0
2.95604 -2.69478 0
3.72989 -1.44497 0
CELLS 340 1360
3 0 17 18
3 0 18 1
3 1 18 19
3 1 19 2
3 2 19 20
3 2 20 3
3 3 20 21
3 3 21 4
3 4 21 22
3 4 22 5
3 5 22 23
3 5 23 6
3 6 23 24
3 6 24 7
3 7 24 25
3 7 25 8
3 8 25 26
3 8 26 9
3 9 26 27
3 9 27 10
3 10 27 28
3 10 28 11
3 11 28 29
3 11 29 12
3 12 29 30
3 12 30 13
3 13 30 31
3 13 31 14
3 14 31 32
3 14 32 15
3 15 32 33
3 15 33 16
3 16 33 17
3 16 17 0
3 17 34 35
3 17 35 18
3 18 35 36
3 18 36 19
3 19 36 37
3 19 37 20
3 20 37 38
3 20 38 21
3 21 38 39
3 21 39 22
3 22 39 40
3 22 40 23
3 23 40 41
3 23 41 24
3 24 41 42
3 24 42 25
3 25 42 43
3 25 43 26
3 26 43 44
3 26 44 27
3 27 44 45
3 27 45 28
3 28 45 46
3 28 46 29
3 29 46 47
3 29 47 30
3 30 47 48
3 30 48 31
3 31 48 49
3 31 49 32
3 32 49 50
3 32 50 33
3 33 50 34
3 33 34 17
3 34 51 52
3 34 52 35
3 35 52 53
3 35 53 36
3 36 53 54
3 36 54 37
3 37 54 55
3 37 55 38
3 38 55 56
3 38 56 39
3 39 56 57
3 39 57 40
3 40 57 58
3 40 58 41
3 41 58 59
3 41 59 42
3 42 59 60
3 42 60 43
3 43 60 61
3 43 61 44
3 44 61 62
3 44 62 45
3 45 62 63
3 45 63 46
3 46 63 64
3 46 64 47
3 47 64 65
3 47 65 48
3 48 65 66
3 48 66 49
3 49 66 67
3 49 67 50
3 50 67 51
3 50 51 34
3 51 68 69
3 51 69 52
3 52 69 70
3 52 70 53
3 53 70 71
3 53 71 54
3 54 71 72
3 54 72 55
3 55 72 73
3 55 73 56
3 56 73 74
3 56 74 57
3 57 74 75
3 57 75 58
3 58 75 76
3 58 76 59
3 59 76 77
3 59 77 60
3 60 77 78
3 60 78 61
3 61 78 79
3 61 79 62
3 62 79 80
3 62 80 63
3 63 80 81
3 63 81 64
3 64 81 82
3 64 82 65
3 65 82 83
3 65 83 66
3 66 83 84
3 66 84 67
3 67 84 68
3 67 68 51
3 68 85 86
3 68 86 69
3 69 86 87
3 69 87 70
3 70 87 88
3 70 88 71
3 71 88 89
3 71 89 72
3 72 89 90
3 72 90 73
3 73 90 91
3 73 91 74
3 74 91 92
3 74 92 75
3 75 92 93
3 75 93 76
3 76 93 94
3 76 94 77
3 77 94 95
3 77 95 78
3 78 95 96
3 78 96 79
3 79 96 97
3 79 97 80
3 80 97 98
3 80 98 81
3 81 98 99
3 81 99 82
3 82 99 100
3 82 100 83
3 83 100 101
3 83 101 84
3 84 101 85
3 84 85 68
3 85 102 103
3 85 103 86
3 86 103 104
3 86 104 87
3 87 104 105
3 87 105 88
3 88 105 106
3 88 106 89
3 89 106 107
3 89 107 90
3 90 107 108
3 90 108 91
3 91 108 109
3 91 109 92
3 92 109 110
3 92 110 93
3 93 110 111
3 93 111 94
3 94 111 112
3 94 112 95
3 95 112 113
3 95 113 96
3 96 113 114
3 96 114 97
3 97 114 115
3 97 115 98
3 98 115 116
3 98 116 99
3 99 116 117
3 99 117 100
3 100 117 118
3 100 118 101
3 101 118 102
3 101 102 85
3 102 119 120
3 102 120 103
3 103 120 121
3 103 121 104
3 104 121 122
3 104 122 105
3 105 122 123
3 105 123 106
3 106 123 124
3 106 124 107
3 107 124 125
3 107 125 108
3 108 125 126
3 108 126 109
3 109 126 127
3 109 127 110
3 110 127 128
3 110 128 111
3 111 128 129
3 111 129 112
3 112 129 130
3 112 130 113
3 113 130 131
3 113 131 114
3 114 131 132
3 114 132 115
3 115 132 133
3 115 133 116
3 116 133 134
3 116 134 117
3 117 134 135
3 117 135 118
3 118 135 119
3 118 119 102
3 119 136 137
3 119 137 120
3 120 137 138
3 120 138 121
3 121 138 139
3 121 139 122
3 122 139 140
3 122 140 123
3 123 140 141
3 123 141 124
3 124 141 142
3 124 142 125
3 125 142 143
3 125 143 126
3 126 143 144
3 126 144 127
3 127 144 145
3 127 145 128
3 128 145 146
3 128 146 129
3 129 146 147
3 129 147 130
3 130 147 148
3 130 148 131
3 131 148 149
3 131 149 132
3 132 149 150
3 132 150 133
3 133 150 151
3 133 151 134
3 134 151 152
3 134 152 135
3 135 152 136
3 135 136 119
3 136 153 154
3 136 154 137
3 137 154 155
3 137 155 138
3 138 155 156
3 138 156 139
3 139 156 157
3 139 157 140
3 140 157 158
3 140 158 141
3 141 158 159
3 141 159 142
3 142 159 160
3 142 160 143
3 143 160 161
3 143 161 144
3 144 161 162
3 144 162 145
3 145 162 163
3 145 163 146
3 146 163 164
3 146 164 147
3 147 164 165
3 147 165 148
3 148 165 166
3 148 166 149
3 149 166 167
3 149 167 150
3 150 167 168
3 150 168 151
3 151 168 169
3 151 169 152
3 152 169 153
3 152 153 136
3 153 170 171
3 153 171 154
3 154 171 172
3 154 172 155
3 155 172 173
3 155 173 156
3 156 173 174
3 156 174 157
3 157 174 175
3 157 175 158
3 158 175 176
3 158 176 159
3 159 176 177
3 159 177 160
3 160 177 178
3 160 178 161
3 161 178 179
3 161 179 162
3 162 179 180
3 162 180 163
3 163 180 181
3 163 181 164
3 164 181 182
3 164 182 165
3 165 182 183
3 165 183 166
3 166 183 184
3 166 184 167
3 167 184 185
3 167 185 168
3 168 185 186
3 168 186 169
3 169 186 170
3 169 170 153
CELL_TYPES 340
5
5
5
5
5
5
5
5
5
5
5
5
5
5
5
5
5
5
5
5
5
5
5
5
5
5
5
5
5
5
5
5
5
5
5
5
5
5
5
5
5
5
5
5
5
5
5
5
5
5
5
5
5
5
5
5
5
5
5
5
5
5
5
5
5
5
5
5
5
5
5
5
5
5
5
5
5
5
5
5
5
5
5
5
5
5
5
5
5
5
5
5
5
5
5
5
5
5
5
5
5
5
5
5
5
5
5
5
5
5
5
5
5
5
5
5
5
5
5
5
5
5
5
5
5
5
5
5
5
5
5
5
5
5
5
5
5
5
5
5
5
5
5
5
5
5
5
5
5
5
5
5
5
5
5
5
5
5
5
5
5
5
5
5
5
5
5
5
5
5
5
5
5
5
5
5
5
5
5
5
5
5
5
5
5
5
5
5
5
5
5
5
5
5
5
5
5
5
5
5
5
5
5
5
5
5
5
5
5
5
5
5
5
5
5
5
5
5
5
5
5
5
5
5
5
5
5
5
5
5
5
5
5
5
5
5
5
5
5
5
5
5
5
5
5
5
5
5
5
5
5
5
5
5
5
5
5
5
5
5
5
5
5
5
5
5
5
5
5
5
5
5
5
5
5
5
5
5
5
5
5
5
5
5
5
5
5
5
5
5
5
5
5
5
5
5
5
5
5
5
5
5
5
5
5
5
5
5
5
5
5
5
5
5
5
5
5
5
5
5
5
5
5
5
5
5
5
5
5
5
5
5
5
5
5
5
5
5
5
5
POINT_DATA 187
SCALARS psi double 1
LOOKUP_TABLE default
0.193726
0.263809
0.196188
0.0261608
-0.157522
-0.258981
-0.225257
-0.0739523
0.115954
0.245334
0.246654
0.119225
-0.070437
-0.223333
-0.259653
-0.160439
0.0225216
0.224395
0.306384
0.228446
0.0312628
-0.182239
-0.300615
-0.262076
-0.0867373
0.133876
0.284609
0.286781
0.139258
-0.0809547
-0.258911
-0.30172
-0.187037
0.0252764
0.280039
0.383375
0.286597
0.0402198
-0.227151
-0.375953
-0.328514
-0.109597
0.166528
0.355728
0.359245
0.175242
-0.100234
-0.32339
-0.377742
-0.234919
0.030527
0.348219
0.477986
0.358253
0.0515183
-0.282108
-0.468479
-0.410313
-0.13797
0.206391
0.443019
0.448399
0.219723
-0.123644
-0.402472
-0.471216
-0.293994
0.0366877
0.421646
0.580325
0.436084
0.0642155
-0.341172
-0.568475
-0.499043
-0.16912
0.249081
0.537266
0.545008
0.268265
-0.148507
-0.487761
-0.572413
-0.358275
0.0428757
0.49481
0.682849
0.514453
0.077522
-0.399875
-0.668544
-0.588245
-0.200893
0.291322
0.631472
0.642005
0.317423
-0.172848
-0.572895
-0.673901
-0.423143
0.0484888
0.563051
0.779113
0.588492
0.0906891
-0.454452
-0.762378
-0.672356
-0.231376
0.330378
0.71968
0.733322
0.364183
-0.195053
-0.652475
-0.769317
-0.484589
0.0530859
0.622314
0.863441
0.653867
0.102986
-0.501652
-0.844436
-0.74644
-0.258815
0.363906
0.796675
0.813594
0.405831
-0.213768
-0.721784
-0.853042
-0.539027
0.0563506
0.669135
0.930915
0.706774
0.113709
-0.53871
-0.909932
-0.806186
-0.281625
0.389939
0.857961
0.878144
0.439951
-0.227889
-0.776774
-0.920197
-0.583294
0.0580787
0.700697
0.977469
0.74402
0.122206
-0.563398
-0.954918
-0.847988
-0.298423
0.406913
0.899848
0.923078
0.464478
-0.236571
-0.814135
-0.966734
-0.614716
0.0581734
0.714903
1
0.763115
0.127897
-0.57408
-0.976398
-0.869054
-0.308079
0.413708
0.919546
0.945398
0.477769
-0.239247
-0.83138
-0.989548
-0.631189
0.0566393
VECTORS Et double
-0.53465 0.179551 0
-0.0142184 0.309106 0
0.33144 0.645924 0
0.330672 0.848328 0
0.193014 0.645095 0
0.248729 0.142437 0
0.55871 -0.277654 0
0.830411 -0.357188 0
0.735246 -0.220118 0
0.276532 -0.206284 0
-0.200387 -0.469319 0
-0.368928 -0.787664 0
-0.256 -0.800715 0
-0.183308 -0.409602 0
-0.384194 0.101812 0
-0.72434 0.361382 0
-0.83873 0.29491 0
-0.57908 0.305795 0
-0.142656 0.373458 0
0.237951 0.602675 0
0.363186 0.777778 0
0.315446 0.660167 0
0.337862 0.25881 0
0.539095 -0.163297 0
0.75485 -0.356103 0
0.722065 -0.330262 0
0.373745 -0.31502 0
-0.0728124 -0.476999 0
-0.3341 -0.715269 0
-0.346105 -0.762614 0
-0.3048 -0.482165 0
-0.420636 -0.0305156 0
-0.663014 0.295023 0
-0.780997 0.358538 0
-0.585147 0.404561 0
-0.194072 0.512847 0
0.163688 0.698428 0
0.341614 0.801725 0
0.392319 0.66092 0
0.475481 0.297729 0
0.651681 -0.0885264 0
0.794614 -0.314416 0
0.72178 -0.382683 0
0.400041 -0.445015 0
-0.00227031 -0.603188 0
-0.276512 -0.773168 0
-0.372968 -0.765933 0
-0.421615 -0.49709 0
-0.556046 -0.0929058 0
-0.740055 0.226465 0
-0.792533 0.36025 0
-0.614799 0.451717 0
-0.223095 0.581178 0
0.140886 0.762235 0
0.343603 0.846545 0
0.430967 0.691962 0
0.540898 0.326684 0
0.718731 -0.0626707 0
0.844381 -0.30845 0
0.755053 -0.412168 0
0.428881 -0.505823 0
0.0254917 -0.672223 0
-0.263671 -0.827981 0
-0.393029 -0.802307 0
-0.47626 -0.526076 0
-0.625562 -0.121634 0
-0.799668 0.20799 0
-0.832809 0.371021 0
-0.645965 0.463115 0
-0.235628 0.602002 0
0.143206 0.796816 0
0.351628 0.888498 0
0.44121 0.726947 0
0.558668 0.34396 0
0.749998 -0.062127 0
0.88569 -0.315746 0
0.793141 -0.421634 0
0.450985 -0.520971 0
0.029519 -0.699962 0
-0.26985 -0.867758 0
-0.401971 -0.842641 0
-0.48928 -0.55288 0
-0.64976 -0.129697 0
-0.837148 0.212538 0
-0.874443 0.379539 0
-0.670149 0.44512 0
-0.233934 0.584196 0
0.160795 0.802772 0
0.359442 0.918115 0
0.427181 0.755687 0
0.538166 0.348927 0
0.74882 -0.0780158 0
0.911046 -0.328132 0
0.824867 -0.412629 0
0.46282 -0.499551 0
0.017014 -0.69215 0
-0.285571 -0.887471 0
-0.398609 -0.875552 0
-0.468737 -0.571284 0
-0.636277 -0.122036 0
-0.850237 0.230056 0
-0.906638 0.381949 0
-0.683604 0.401551 0
-0.219332 0.532688 0
0.189013 0.780841 0
0.36455 0.931184 0
0.391614 0.773623 0
0.484602 0.341557 0
0.717298 -0.106066 0
0.917199 -0.342088 0
0.845196 -0.386613 0
0.462998 -0.446674 0
-0.00846967 -0.6521 0
-0.306585 -0.885077 0
-0.383034 -0.895901 0
-0.419265 -0.578626 0
-0.589393 -0.101196 0
-0.838255 0.255908 0
-0.924535 0.376989 0
-0.684687 0.335794 0
-0.193052 0.451636 0
0.225008 0.73249 0
0.365948 0.925958 0
0.337157 0.778649 0
0.402311 0.322329 0
0.657781 -0.14353 0
0.903035 -0.35585 0
0.851767 -0.345361 0
0.451224 -0.366598 0
-0.0445151 -0.582937 0
-0.330543 -0.860247 0
-0.356078 -0.9013 0
-0.344798 -0.573883 0
-0.512852 -0.0690704 0
-0.801754 0.287377 0
-0.925953 0.364543 0
-0.672907 0.251487 0
-0.156534 0.345486 0
0.26651 0.660059 0
0.36332 0.902135 0
0.266787 0.76998 0
0.295848 0.292185 0
0.57331 -0.188103 0
0.868784 -0.368381 0
0.843649 -0.291072 0
0.427919 -0.263775 0
-0.0889602 -0.48832 0
-0.355821 -0.813861 0
-0.319095 -0.890848 0
-0.249477 -0.556982 0
-0.410793 -0.0275219 0
-0.742335 0.322424 0
-0.910205 0.345107 0
-0.648523 0.152712 0
-0.111512 0.219286 0
0.311378 0.566736 0
0.356692 0.860403 0
0.183905 0.747665 0
0.170316 0.252484 0
0.467717 -0.237516 0
0.815659 -0.378952 0
0.82082 -0.22635 0
0.394039 -0.143161 0
-0.139579 -0.372629 0
-0.38106 -0.74775 0
-0.27383 -0.864603 0
-0.137913 -0.528497 0
-0.288015 0.0214127 0
-0.662505 0.359209 0
-0.877589 0.319551 0
-0.705029 0.165377 0
-0.188141 0.113379 0
0.312604 0.408568 0
0.428111 0.77296 0
0.221561 0.781344 0
0.0925423 0.335512 0
0.311059 -0.214868 0
0.70107 -0.440344 0
0.826701 -0.28334 0
0.475895 -0.0959982 0
-0.0946861 -0.22577 0
-0.426318 -0.611378 0
-0.343254 -0.839592 0
-0.12163 -0.601384 0
-0.158502 -0.0420591 0
-0.511256 0.383776 0
-0.820726 0.393817 0
