# vtk DataFile Version 3.0
tp3485 scalar+vector
ASCII
DATASET UNSTRUCTURED_GRID
POINTS 187 double
1 0 0
0.932472 0.361242 0
0.739009 0.673696 0
0.445738 0.895163 0
0.0922684 0.995734 0
-0.273663 0.961826 0
-0.602635 0.798017 0
-0.850217 0.526432 0
-0.982973 0.18375 0
-0.982973 -0.18375 0
-0.850217 -0.526432 0
-0.602635 -0.798017 0
-0.273663 -0.961826 0
0.0922684 -0.995734 0
0.445738 -0.895163 0
0.739009 -0.673696 0
0.932472 -0.361242 0
1.3 0 0
1.21221 0.469614 0
0.960712 0.875804 0
0.57946 1.16371 0
0.119949 1.29445 0
-0.355762 1.25037 0
-0.783425 1.03742 0
-1.10528 0.684362 0
-1.27787 0.238874 0
-1.27787 -0.238874 0
-1.10528 -0.684362 0
-0.783425 -1.03742 0
-0.355762 -1.25037 0
0.119949 -1.29445 0
0.57946 -1.16371 0
0.960712 -0.875804 0
1.21221 -0.469614 0
1.6 0 0
1.49196 0.577987 0
1.18241 1.07791 0
0.713181 1.43226 0
0.147629 1.59317 0
-0.437861 1.53892 0
-0.964215 1.27683 0
-1.36035 0.842291 0
-1.57276 0.293999 0
-1.57276 -0.293999 0
-1.36035 -0.842291 0
-0.964215 -1.27683 0
-0.437861 -1.53892 0
0.147629 -1.59317 0
0.713181 -1.43226 0
1.18241 -1.07791 0
1.49196 -0.577987 0
1.9 0 0
1.7717 0.686359 0
1.40412 1.28002 0
0.846903 1.70081 0
0.17531 1.89189 0
-0.51996 1.82747 0
-1.14501 1.51623 0
-1.61541 1.00022 0
-1.86765 0.349124 0
-1.86765 -0.349124 0
-1.61541 -1.00022 0
-1.14501 -1.51623 0
-0.51996 -1.82747 0
0.17531 -1.89189 0
0.846903 -1.70081 0
1.40412 -1.28002 0
1.7717 -0.686359 0
2.2 0 0
2.05144 0.794732 0
1.62582 1.48213 0
0.980624 1.96936 0
0.20299 2.19062 0
-0.602059 2.11602 0
-1.3258 1.75564 0
-1.87048 1.15815 0
-2.16254 0.404249 0
-2.16254 -0.404249 0
-1.87048 -1.15815 0
-1.3258 -1.75564 0
-0.602059 -2.11602 0
0.20299 -2.19062 0
0.980624 -1.96936 0
1.62582 -1.48213 0
2.05144 -0.794732 0
2.5 0 0
2.33118 0.903104 0
1.84752 1.68424 0
1.11435 2.23791 0
0.230671 2.48934 0
-0.684157 2.40456 0
-1.50659 1.99504 0
-2.12554 1.31608 0
-2.45743 0.459374 0
-2.45743 -0.459374 0
-2.12554 -1.31608 0
-1.50659 -1.99504 0
-0.684157 -2.40456 0
0.230671 -2.48934 0
1.11435 -2.23791 0
1.84752 -1.68424 0
2.33118 -0.903104 0
2.8 0 0
2.61092 1.01148 0
2.06922 1.88635 0
1.24807 2.50646 0
0.258351 2.78806 0
-0.766256 2.69311 0
-1.68738 2.23445 0
-2.38061 1.47401 0
-2.75232 0.514499 0
-2.75232 -0.514499 0
-2.38061 -1.47401 0
-1.68738 -2.23445 0
-0.766256 -2.69311 0
0.258351 -2.78806 0
1.24807 -2.50646 0
2.06922 -1.88635 0
2.61092 -1.01148 0
3.1 0 0
2.89066 1.11985 0
2.29093 2.08846 0
1.38179 2.77501 0
0.286032 3.08678 0
-0.848355 2.98166 0
-1.86817 2.47385 0
-2.63567 1.63194 0
-3.04722 0.569624 0
-3.04722 -0.569624 0
-2.63567 -1.63194 0
-1.86817 -2.47385 0
-0.848355 -2.98166 0
0.286032 -3.08678 0
1.38179 -2.77501 0
2.29093 -2.08846 0
2.89066 -1.11985 0
3.4 0 0
3.17041 1.22822 0
2.51263 2.29057 0
1.51551 3.04356 0
0.313712 3.3855 0
-0.930454 3.27021 0
-2.04896 2.71326 0
-2.89074 1.78987 0
-3.34211 0.624748 0
-3.34211 -0.624748 0
-2.89074 -1.78987 0
-2.04896 -2.71326 0
-0.930454 -3.27021 0
0.313712 -3.3855 0
1.51551 -3.04356 0
2.51263 -2.29057 0
3.17041 -1.22822 0
3.7 0 0
3.45015 1.33659 0
2.73433 2.49267 0
1.64923 3.3121 0
0.341393 3.68422 0
-1.01255 3.55875 0
-2.22975 2.95266 0
-3.1458 1.9478 0
-3.637 0.679873 0
-3.637 -0.679873 0
-3.1458 -1.9478 0
-2.22975 -2.95266 0
-1.01255 -3.55875 0
0.341393 -3.68422 0
1.64923 -3.3121 0
2.73433 -2.49267 0
3.45015 -1.33659 0
4 0 0
3.72989 1.44497 0
2.95604 2.69478 0
1.78295 3.58065 0
0.369073 3.98294 0
-1.09465 3.8473 0
-2.41054 3.19207 0
-3.40087 2.10573 0
-3.93189 0.734998 0
-3.93189 -0.734998 0
-3.40087 -2.10573 0
-2.41054 -3.19207 0
-1.09465 -3.8473 0
0.369073 -3.98294 0
1.78295 -3.58065 0
2.95604 -2.69478 0
3.72989 -1.44497 0
CELLS 340 1360
3 0 17 18
3 0 18 1
3 1 18 19
3 1 19 2
3 2 19 20
3 2 20 3
3 3 20 21
3 3 21 4
3 4 21 22
3 4 22 5
3 5 22 23
3 5 23 6
3 6 23 24
3 6 24 7
3 7 24 25
3 7 25 8
3 8 25 26
3 8 26 9
3 9 26 27
3 9 27 10
3 10 27 28
3 10 28 11
3 11 28 29
3 11 29 12
3 12 29 30
3 12 30 13
3 13 30 31
3 13 31 14
3 14 31 32
3 14 32 15
3 15 32 33
3 15 33 16
3 16 33 17
3 16 17 0
3 17 34 35
3 17 35 18
3 18 35 36
3 18 36 19
3 19 36 37
3 19 37 20
3 20 37 38
3 20 38 21
3 21 38 39
3 21 39 22
3 22 39 40
3 22 40 23
3 23 40 41
3 23 41 24
3 24 41 42
3 24 42 25
3 25 42 43
3 25 43 26
3 26 43 44
3 26 44 27
3 27 44 45
3 27 45 28
3 28 45 46
3 28 46 29
3 29 46 47
3 29 47 30
3 30 47 48
3 30 48 31
3 31 48 49
3 31 49 32
3 32 49 50
3 32 50 33
3 33 50 34
3 33 34 17
3 34 51 52
3 34 52 35
3 35 52 53
3 35 53 36
3 36 53 54
3 36 54 37
3 37 54 55
3 37 55 38
3 38 55 56
3 38 56 39
3 39 56 57
3 39 57 40
3 40 57 58
3 40 58 41
3 41 58 59
3 41 59 42
3 42 59 60
3 42 60 43
3 43 60 61
3 43 61 44
3 44 61 62
3 44 62 45
3 45 62 63
3 45 63 46
3 46 63 64
3 46 64 47
3 47 64 65
3 47 65 48
3 48 65 66
3 48 66 49
3 49 66 67
3 49 67 50
3 50 67 51
3 50 51 34
3 51 68 69
3 51 69 52
3 52 69 70
3 52 70 53
3 53 70 71
3 53 71 54
3 54 71 72
3 54 72 55
3 55 72 73
3 55 73 56
3 56 73 74
3 56 74 57
3 57 74 75
3 57 75 58
3 58 75 76
3 58 76 59
3 59 76 77
3 59 77 60
3 60 77 78
3 60 78 61
3 61 78 79
3 61 79 62
3 62 79 80
3 62 80 63
3 63 80 81
3 63 81 64
3 64 81 82
3 64 82 65
3 65 82 83
3 65 83 66
3 66 83 84
3 66 84 67
3 67 84 68
3 67 68 51
3 68 85 86
3 68 86 69
3 69 86 87
3 69 87 70
3 70 87 88
3 70 88 71
3 71 88 89
3 71 89 72
3 72 89 90
3 72 90 73
3 73 90 91
3 73 91 74
3 74 91 92
3 74 92 75
3 75 92 93
3 75 93 76
3 76 93 94
3 76 94 77
3 77 94 95
3 77 95 78
3 78 95 96
3 78 96 79
3 79 96 97
3 79 97 80
3 80 97 98
3 80 98 81
3 81 98 99
3 81 99 82
3 82 99 100
3 82 100 83
3 83 100 101
3 83 101 84
3 84 101 85
3 84 85 68
3 85 102 103
3 85 103 86
3 86 103 104
3 86 104 87
3 87 104 105
3 87 105 88
3 88 105 106
3 88 106 89
3 89 106 107
3 89 107 90
3 90 107 108
3 90 108 91
3 91 108 109
3 91 109 92
3 92 109 110
3 92 110 93
3 93 110 111
3 93 111 94
3 94 111 112
3 94 112 95
3 95 112 113
3 95 113 96
3 96 113 114
3 96 114 97
3 97 114 115
3 97 115 98
3 98 115 116
3 98 116 99
3 99 116 117
3 99 117 100
3 100 117 118
3 100 118 101
3 101 118 102
3 101 102 85
3 102 119 120
3 102 120 103
3 103 120 121
3 103 121 104
3 104 121 122
3 104 122 105
3 105 122 123
3 105 123 106
3 106 123 124
3 106 124 107
3 107 124 125
3 107 125 108
3 108 125 126
3 108 126 109
3 109 126 127
3 109 127 110
3 110 127 128
3 110 128 111
3 111 128 129
3 111 129 112
3 112 129 130
3 112 130 113
3 113 130 131
3 113 131 114
3 114 131 132
3 114 132 115
3 115 132 133
3 115 133 116
3 116 133 134
3 116 134 117
3 117 134 135
3 117 135 118
3 118 135 119
3 118 119 102
3 119 136 137
3 119 137 120
3 120 137 138
3 120 138 121
3 121 138 139
3 121 139 122
3 122 139 140
3 122 140 123
3 123 140 141
3 123 141 124
3 124 141 142
3 124 142 125
3 125 142 143
3 125 143 126
3 126 143 144
3 126 144 127
3 127 144 145
3 127 145 128
3 128 145 146
3 128 146 129
3 129 146 147
3 129 147 130
3 130 147 148
3 130 148 131
3 131 148 149
3 131 149 132
3 132 149 150
3 132 150 133
3 133 150 151
3 133 151 134
3 134 151 152
3 134 152 135
3 135 152 136
3 135 136 119
3 136 153 154
3 136 154 137
3 137 154 155
3 137 155 138
3 138 155 156
3 138 156 139
3 139 156 157
3 139 157 140
3 140 157 158
3 140 158 141
3 141 158 159
3 141 159 142
3 142 159 160
3 142 160 143
3 143 160 161
3 143 161 144
3 144 161 162
3 144 162 145
3 145 162 163
3 145 163 146
3 146 163 164
3 146 164 147
3 147 164 165
3 147 165 148
3 148 165 166
3 148 166 149
3 149 166 167
3 149 167 150
3 150 167 168
3 150 168 151
3 151 168 169
3 151 169 152
3 152 169 153
3 152 153 136
3 153 170 171
3 153 171 154
3 154 171 172
3 154 172 155
3 155 172 173
3 155 173 156
3 156 173 174
3 156 174 157
3 157 174 175
3 157 175 158
3 158 175 176
3 158 176 159
3 159 176 177
3 159 177 160
3 160 177 178
3 160 178 161
3 161 178 179
3 161 179 162
3 162 179 180
3 162 180 163
3 163 180 181
3 163 181 164
3 164 181 182
3 164 182 165
3 165 182 183
3 165 183 166
3 166 183 184
3 166 184 167
3 167 184 185
3 167 185 168
3 168 185 186
3 168 186 169
3 169 186 170
3 169 170 153
CELL_TYPES 340
5
5
5
5
5
5
5
5
5
5
5
5
5
5
5
5
5
5
5
5
5
5
5
5
5
5
5
5
5
5
5
5
5
5
5
5
5
5
5
5
5
5
5
5
5
5
5
5
5
5
5
5
5
5
5
5
5
5
5
5
5
5
5
5
5
5
5
5
5
5
5
5
5
5
5
5
5
5
5
5
5
5
5
5
5
5
5
5
5
5
5
5
5
5
5
5
5
5
5
5
5
5
5
5
5
5
5
5
5
5
5
5
5
5
5
5
5
5
5
5
5
5
5
5
5
5
5
5
5
5
5
5
5
5
5
5
5
5
5
5
5
5
5
5
5
5
5
5
5
5
5
5
5
5
5
5
5
5
5
5
5
5
5
5
5
5
5
5
5
5
5
5
5
5
5
5
5
5
5
5
5
5
5
5
5
5
5
5
5
5
5
5
5
5
5
5
5
5
5
5
5
5
5
5
5
5
5
5
5
5
5
5
5
5
5
5
5
5
5
5
5
5
5
5
5
5
5
5
5
5
5
5
5
5
5
5
5
5
5
5
5
5
5
5
5
5
5
5
5
5
5
5
5
5
5
5
5
5
5
5
5
5
5
5
5
5
5
5
5
5
5
5
5
5
5
5
5
5
5
5
5
5
5
5
5
5
5
5
5
5
5
5
5
5
5
5
5
5
5
5
5
5
5
5
5
5
5
5
5
5
5
5
5
5
5
5
5
5
5
5
5
5
5
5
5
5
5
5
5
5
5
5
5
5
5
5
5
5
5
5
POINT_DATA 187
SCALARS psi double 1
LOOKUP_TABLE default
0.0907304
0.0778136
-0.0213614
-0.0968567
-0.0649841
0.0389249
0.0996848
0.0499418
-0.0551629
-0.0991182
-0.0331987
0.0695223
0.0951762
0.0153251
-0.0815143
-0.0879931
0.00307045
0.121858
0.105535
-0.0277761
-0.130297
-0.0883807
0.0515078
0.134299
0.0682164
-0.0734854
-0.133727
-0.045729
0.0929605
0.128601
0.0216844
-0.10927
-0.119096
0.00309862
0.184051
0.160957
-0.0405618
-0.197117
-0.135164
0.076622
0.20347
0.104767
-0.110073
-0.202894
-0.0708028
0.139775
0.195409
0.0344274
-0.164718
-0.18127
0.0031203
0.268672
0.237254
-0.0571659
-0.288216
-0.199772
0.110124
0.297945
0.155487
-0.159332
-0.297528
-0.105907
0.203114
0.286979
0.0527207
-0.239979
-0.266657
0.00226107
0.369356
0.329341
-0.0757559
-0.396875
-0.278049
0.149001
0.41088
0.217289
-0.217172
-0.410893
-0.149129
0.277947
0.396913
0.0758914
-0.329258
-0.369417
-6.89419e-05
0.479099
0.431349
-0.0945621
-0.515649
-0.365127
0.190147
0.534638
0.286471
-0.279256
-0.535421
-0.198059
0.358856
0.517971
0.102903
-0.426235
-0.482882
-0.00424268
0.589898
0.536258
-0.111836
-0.635958
-0.455105
0.230242
0.66036
0.358454
-0.340807
-0.662276
-0.249596
0.439766
0.641638
0.132239
-0.52375
-0.59915
-0.0103779
0.693097
0.636178
-0.125959
-0.748467
-0.541282
0.265927
0.77835
0.427953
-0.396839
-0.781726
-0.300052
0.514237
0.758482
0.161932
-0.614124
-0.709409
-0.0182978
0.780015
0.722884
-0.135581
-0.843751
-0.616604
0.294063
0.878754
0.489326
-0.442532
-0.883832
-0.345384
0.575931
0.858813
0.189681
-0.689717
-0.804547
-0.0275186
0.842651
0.788477
-0.139742
-0.913054
-0.674224
0.311999
0.952364
0.537011
-0.473631
-0.959242
-0.381511
0.619134
0.933455
0.213019
-0.743553
-0.875879
-0.0372731
0.874376
0.826058
-0.137965
-0.94905
-0.708091
0.317803
0.991406
0.566012
-0.48682
-1
-0.404657
0.639258
0.97454
0.229522
-0.769926
-0.915894
-0.0465717
VECTORS Et double
-0.0877986 0.161302 0
0.239249 0.238691 0
0.295567 0.215411 0
0.160326 -0.0633251 0
0.080363 -0.359323 0
0.0213759 -0.33403 0
-0.176124 -0.0593849 0
-0.368115 0.126366 0
-0.256551 0.149038 0
0.0959118 0.195884 0
0.306647 0.256418 0
0.233418 0.102531 0
0.10715 -0.23568 0
0.0615455 -0.394434 0
-0.059777 -0.20608 0
-0.294536 0.0594667 0
-0.358652 0.147148 0
-0.156544 0.241097 0
0.193902 0.276129 0
0.350375 0.219274 0
0.263376 -0.0395811 0
0.120479 -0.346177 0
-0.00966921 -0.397155 0
-0.202391 -0.158598 0
-0.377585 0.102999 0
-0.304325 0.217579 0
0.0253814 0.261124 0
0.308488 0.26947 0
0.32682 0.113277 0
0.188765 -0.207555 0
0.0585471 -0.415636 0
-0.0968077 -0.300439 0
-0.307 -0.0132086 0
-0.381811 0.1774 0
-0.191766 0.354557 0
0.210441 0.400897 0
0.426411 0.268198 0
0.38266 -0.0777724 0
0.208705 -0.426891 0
-0.0242174 -0.487976 0
-0.304814 -0.23857 0
-0.487406 0.0804544 0
-0.366542 0.291573 0
0.0158033 0.393244 0
0.353807 0.363447 0
0.430316 0.114807 0
0.304126 -0.272934 0
0.100046 -0.503689 0
-0.163253 -0.389674 0
-0.423486 -0.0716708 0
-0.47083 0.201998 0
-0.24324 0.439662 0
0.243392 0.506251 0
0.515249 0.338172 0
0.4806 -0.0910516 0
0.275885 -0.51795 0
-0.0203718 -0.598205 0
-0.377112 -0.306928 0
-0.602595 0.0792167 0
-0.454521 0.352673 0
0.00728387 0.49422 0
0.420387 0.45876 0
0.52929 0.146597 0
0.391172 -0.329925 0
0.139033 -0.613204 0
-0.198299 -0.484682 0
-0.524614 -0.107267 0
-0.58154 0.233662 0
-0.298933 0.496578 0
0.281032 0.589414 0
0.599259 0.414884 0
0.553942 -0.0870443 0
0.325159 -0.604289 0
-0.00310768 -0.706479 0
-0.422472 -0.360765 0
-0.708667 0.0882405 0
-0.54835 0.39636 0
-0.000316241 0.56511 0
0.490012 0.546169 0
0.612394 0.194412 0
0.45229 -0.374918 0
0.175126 -0.722245 0
-0.208658 -0.571627 0
-0.60536 -0.126612 0
-0.693351 0.26281 0
-0.35237 0.520718 0
0.318612 0.643461 0
0.668846 0.490075 0
0.596213 -0.0673885 0
0.353198 -0.676783 0
0.0255499 -0.800716 0
-0.437862 -0.395189 0
-0.79504 0.105004 0
-0.637367 0.418288 0
-0.00625109 0.600472 0
0.554247 0.617419 0
0.671055 0.252192 0
0.482976 -0.403924 0
0.205551 -0.818695 0
-0.194525 -0.641243 0
-0.658655 -0.129151 0
-0.79418 0.285462 0
-0.398826 0.508122 0
0.353574 0.662037 0
0.717772 0.557382 0
0.601887 -0.0329639 0
0.356016 -0.729041 0
0.0637203 -0.872512 0
-0.420299 -0.405858 0
-0.853581 0.129133 0
-0.713968 0.415546 0
-0.00952674 0.595132 0
0.608006 0.665556 0
0.699064 0.315674 0
0.478518 -0.413925 0
0.227134 -0.894227 0
-0.155701 -0.686686 0
-0.678583 -0.113146 0
-0.875206 0.299777 0
-0.434551 0.457201 0
0.384232 0.641006 0
0.742126 0.61147 0
0.567888 0.0147301 0
0.330836 -0.756723 0
0.10896 -0.915974 0
-0.368737 -0.389997 0
-0.878538 0.160564 0
-0.772256 0.387178 0
-0.00922593 0.546365 0
0.647924 0.685347 0
0.692798 0.380817 0
0.436163 -0.403309 0
0.237025 -0.942963 0
-0.0933327 -0.703325 0
-0.661521 -0.0775391 0
-0.92979 0.305149 0
-0.456674 0.369367 0
0.409321 0.579181 0
0.740067 0.647971 0
0.49423 0.0731959 0
0.276889 -0.757429 0
0.158164 -0.927517 0
-0.284725 -0.346881 0
-0.866726 0.198842 0
-0.807802 0.33434 0
-0.00470093 0.454749 0
0.671862 0.673641 0
0.651402 0.443451 0
0.356004 -0.37205 0
0.233112 -0.961191 0
-0.0104175 -0.688835 0
-0.60665 -0.0226861 0
-0.953355 0.30185 0
-0.463265 0.249132 0
0.427814 0.47862 0
0.711693 0.663627 0
0.384187 0.13893 0
0.19576 -0.730679 0
0.207717 -0.90585 0
-0.172535 -0.278024 0
-0.817662 0.242815 0
-0.817698 0.260227 0
0.00430557 0.324403 0
0.678709 0.629625 0
0.576799 0.499326 0
0.241281 -0.321712 0
0.21431 -0.947323 0
0.0881806 -0.643274 0
-0.516123 0.0493591 0
-0.943474 0.290798 0
-0.622763 0.213112 0
0.307909 0.30925 0
0.760168 0.618292 0
0.413589 0.3228 0
0.0946229 -0.567517 0
0.173243 -0.958477 0
0.000418704 -0.385316 0
-0.649315 0.27144 0
-0.88707 0.301007 0
-0.171619 0.201394 0
0.65082 0.487314 0
0.646584 0.58147 0
0.197575 -0.106997 0
0.112599 -0.89063 0
0.162325 -0.758133 0
-0.30414 0.00438224 0
-0.884946 0.356608 0
