# vtk DataFile Version 3.0
tp3485 scalar+vector
ASCII
DATASET UNSTRUCTURED_GRID
POINTS 187 double
1 0 0
0.932472 0.361242 0
0.739009 0.673696 0
0.445738 0.895163 0
0.0922684 0.995734 0
-0.273663 0.961826 0
-0.602635 0.798017 0
-0.850217 0.526432 0
-0.982973 0.18375 0
-0.982973 -0.18375 0
-0.850217 -0.526432 0
-0.602635 -0.798017 0
-0.273663 -0.961826 0
0.0922684 -0.995734 0
0.445738 -0.895163 0
0.739009 -0.673696 0
0.932472 -0.361242 0
1.3 0 0
1.21221 0.469614 0
0.960712 0.875804 0
0.57946 1.16371 0
0.119949 1.29445 0
-0.355762 1.25037 0
-0.783425 1.03742 0
-1.10528 0.684362 0
-1.27787 0.238874 0
-1.27787 -0.238874 0
-1.10528 -0.684362 0
-0.783425 -1.03742 0
-0.355762 -1.25037 0
0.119949 -1.29445 0
0.57946 -1.16371 0
0.960712 -0.875804 0
1.21221 -0.469614 0
1.6 0 0
1.49196 0.577987 0
1.18241 1.07791 0
0.713181 1.43226 0
0.147629 1.59317 0
-0.437861 1.53892 0
-0.964215 1.27683 0
-1.36035 0.842291 0
-1.57276 0.293999 0
-1.57276 -0.293999 0
-1.36035 -0.842291 0
-0.964215 -1.27683 0
-0.437861 -1.53892 0
0.147629 -1.59317 0
0.713181 -1.43226 0
1.18241 -1.07791 0
1.49196 -0.577987 0
1.9 0 0
1.7717 0.686359 0
1.40412 1.28002 0
0.846903 1.70081 0
0.17531 1.89189 0
-0.51996 1.82747 0
-1.14501 1.51623 0
-1.61541 1.00022 0
-1.86765 0.349124 0
-1.86765 -0.349124 0
-1.61541 -1.00022 0
-1.14501 -1.51623 0
-0.51996 -1.82747 0
0.17531 -1.89189 0
0.846903 -1.70081 0
1.40412 -1.28002 0
1.7717 -0.686359 0
2.2 0 0
2.05144 0.794732 0
1.62582 1.48213 0
0.980624 1.96936 0
0.20299 2.19062 0
-0.602059 2.11602 0
-1.3258 1.75564 0
-1.87048 1.15815 0
-2.16254 0.404249 0
-2.16254 -0.404249 0
-1.87048 -1.15815 0
-1.3258 -1.75564 0
-0.602059 -2.11602 0
0.20299 -2.19062 0
0.980624 -1.96936 0
1.62582 -1.48213 0
2.05144 -0.794732 0
2.5 0 0
2.33118 0.903104 0
1.84752 1.68424 0
1.11435 2.23791 0
0.230671 2.48934 0
-0.684157 2.40456 0
-1.50659 1.99504 0
-2.12554 1.31608 0
-2.45743 0.459374 0
-2.45743 -0.459374 0
-2.12554 -1.31608 0
-1.50659 -1.99504 0
-0.684157 -2.40456 0
0.230671 -2.48934 0
1.11435 -2.23791 0
1.84752 -1.68424 0
2.33118 -0.903104 0
2.8 0 0
2.61092 1.01148 0
2.06922 1.88635 0
1.24807 2.50646 0
0.258351 2.78806 0
-0.766256 2.69311 0
-1.68738 2.23445 0
-2.38061 1.47401 0
-2.75232 0.514499 0
-2.75232 -0.514499 0
-2.38061 -1.47401 0
-1.68738 -2.23445 0
-0.766256 -2.69311 0
0.258351 -2.78806 0
1.24807 -2.50646 0
2.06922 -1.88635 0
2.61092 -1.01148 0
3.1 0 0
2.89066 1.11985 0
2.29093 2.08846 0
1.38179 2.77501 0
0.286032 3.08678 0
-0.848355 2.98166 0
-1.86817 2.47385 0
-2.63567 1.63194 0
-3.04722 0.569624 0
-3.04722 -0.569624 0
-2.63567 -1.63194 0
-1.86817 -2.47385 0
-0.848355 -2.98166 0
0.286032 -3.08678 0
1.38179 -2.77501 0
2.29093 -2.08846 0
2.89066 -1.11985 0
3.4 0 0
3.17041 1.22822 0
2.51263 2.29057 0
1.51551 3.04356 0
0.313712 3.3855 0
-0.930454 3.27021 0
-2.04896 2.71326 0
-2.89074 1.78987 0
-3.34211 0.624748 0
-3.34211 -0.624748 0
-2.89074 -1.78987 0
-2.04896 -2.71326 0
-0.930454 -3.27021 0
0.313712 -3.3855 0
1.51551 -3.04356 0
2.51263 -2.29057 0
3.17041 -1.22822 0
3.7 0 0
3.45015 1.33659 0
2.73433 2.49267 0
1.64923 3.3121 0
0.341393 3.68422 0
-1.01255 3.55875 0
-2.22975 2.95266 0
-3.1458 1.9478 0
-3.637 0.679873 0
-3.637 -0.679873 0
-3.1458 -1.9478 0
-2.22975 -2.95266 0
-1.01255 -3.55875 0
0.341393 -3.68422 0
1.64923 -3.3121 0
2.73433 -2.49267 0
3.45015 -1.33659 0
4 0 0
3.72989 1.44497 0
2.95604 2.69478 0
1.78295 3.58065 0
0.369073 3.98294 0
-1.09465 3.8473 0
-2.41054 3.19207 0
-3.40087 2.10573 0
-3.93189 0.734998 0
-3.93189 -0.734998 0
-3.40087 -2.10573 0
-2.41054 -3.19207 0
-1.09465 -3.8473 0
0.369073 -3.98294 0
1.78295 -3.58065 0
2.95604 -2.69478 0
3.72989 -1.44497 0
CELLS 340 1360
3 0 17 18
3 0 18 1
3 1 18 19
3 1 19 2
3 2 19 20
3 2 20 3
3 3 20 21
3 3 21 4
3 4 21 22
3 4 22 5
3 5 22 23
3 5 23 6
3 6 23 24
3 6 24 7
3 7 24 25
3 7 25 8
3 8 25 26
3 8 26 9
3 9 26 27
3 9 27 10
3 10 27 28
3 10 28 11
3 11 28 29
3 11 29 12
3 12 29 30
3 12 30 13
3 13 30 31
3 13 31 14
3 14 31 32
3 14 32 15
3 15 32 33
3 15 33 16
3 16 33 17
3 16 17 0
3 17 34 35
3 17 35 18
3 18 35 36
3 18 36 19
3 19 36 37
3 19 37 20
3 20 37 38
3 20 38 21
3 21 38 39
3 21 39 22
3 22 39 40
3 22 40 23
3 23 40 41
3 23 41 24
3 24 41 42
3 24 42 25
3 25 42 43
3 25 43 26
3 26 43 44
3 26 44 27
3 27 44 45
3 27 45 28
3 28 45 46
3 28 46 29
3 29 46 47
3 29 47 30
3 30 47 48
3 30 48 31
3 31 48 49
3 31 49 32
3 32 49 50
3 32 50 33
3 33 50 34
3 33 34 17
3 34 51 52
3 34 52 35
3 35 52 53
3 35 53 36
3 36 53 54
3 36 54 37
3 37 54 55
3 37 55 38
3 38 55 56
3 38 56 39
3 39 56 57
3 39 57 40
3 40 57 58
3 40 58 41
3 41 58 59
3 41 59 42
3 42 59 60
3 42 60 43
3 43 60 61
3 43 61 44
3 44 61 62
3 44 62 45
3 45 62 63
3 45 63 46
3 46 63 64
3 46 64 47
3 47 64 65
3 47 65 48
3 48 65 66
3 48 66 49
3 49 66 67
3 49 67 50
3 50 67 51
3 50 51 34
3 51 68 69
3 51 69 52
3 52 69 70
3 52 70 53
3 53 70 71
3 53 71 54
3 54 71 72
3 54 72 55
3 55 72 73
3 55 73 56
3 56 73 74
3 56 74 57
3 57 74 75
3 57 75 58
3 58 75 76
3 58 76 59
3 59 76 77
3 59 77 60
3 60 77 78
3 60 78 61
3 61 78 79
3 61 79 62
3 62 79 80
3 62 80 63
3 63 80 81
3 63 81 64
3 64 81 82
3 64 82 65
3 65 82 83
3 65 83 66
3 66 83 84
3 66 84 67
3 67 84 68
3 67 68 51
3 68 85 86
3 68 86 69
3 69 86 87
3 69 87 70
3 70 87 88
3 70 88 71
3 71 88 89
3 71 89 72
3 72 89 90
3 72 90 73
3 73 90 91
3 73 91 74
3 74 91 92
3 74 92 75
3 75 92 93
3 75 93 76
3 76 93 94
3 76 94 77
3 77 94 95
3 77 95 78
3 78 95 96
3 78 96 79
3 79 96 97
3 79 97 80
3 80 97 98
3 80 98 81
3 81 98 99
3 81 99 82
3 82 99 100
3 82 100 83
3 83 100 101
3 83 101 84
3 84 101 85
3 84 85 68
3 85 102 103
3 85 103 86
3 86 103 104
3 86 104 87
3 87 104 105
3 87 105 88
3 88 105 106
3 88 106 89
3 89 106 107
3 89 107 90
3 90 107 108
3 90 108 91
3 91 108 109
3 91 109 92
3 92 109 110
3 92 110 93
3 93 110 111
3 93 111 94
3 94 111 112
3 94 112 95
3 95 112 113
3 95 113 96
3 96 113 114
3 96 114 97
3 97 114 115
3 97 115 98
3 98 115 116
3 98 116 99
3 99 116 117
3 99 117 100
3 100 117 118
3 100 118 101
3 101 118 102
3 101 102 85
3 102 119 120
3 102 120 103
3 103 120 121
3 103 121 104
3 104 121 122
3 104 122 105
3 105 122 123
3 105 123 106
3 106 123 124
3 106 124 107
3 107 124 125
3 107 125 108
3 108 125 126
3 108 126 109
3 109 126 127
3 109 127 110
3 110 127 128
3 110 128 111
3 111 128 129
3 111 129 112
3 112 129 130
3 112 130 113
3 113 130 131
3 113 131 114
3 114 131 132
3 114 132 115
3 115 132 133
3 115 133 116
3 116 133 134
3 116 134 117
3 117 134 135
3 117 135 118
3 118 135 119
3 118 119 102
3 119 136 137
3 119 137 120
3 120 137 138
3 120 138 121
3 121 138 139
3 121 139 122
3 122 139 140
3 122 140 123
3 123 140 141
3 123 141 124
3 124 141 142
3 124 142 125
3 125 142 143
3 125 143 126
3 126 143 144
3 126 144 127
3 127 144 145
3 127 145 128
3 128 145 146
3 128 146 129
3 129 146 147
3 129 147 130
3 130 147 148
3 130 148 131
3 131 148 149
3 131 149 132
3 132 149 150
3 132 150 133
3 133 150 151
3 133 151 134
3 134 151 152
3 134 152 135
3 135 152 136
3 135 136 119
3 136 153 154
3 136 154 137
3 137 154 155
3 137 155 138
3 138 155 156
3 138 156 139
3 139 156 157
3 139 157 140
3 140 157 158
3 140 158 141
3 141 158 159
3 141 159 142
3 142 159 160
3 142 160 143
3 143 160 161
3 143 161 144
3 144 161 162
3 144 162 145
3 145 162 163
3 145 163 146
3 146 163 164
3 146 164 147
3 147 164 165
3 147 165 148
3 148 165 166
3 148 166 149
3 149 166 167
3 149 167 150
3 150 167 168
3 150 168 151
3 151 168 169
3 151 169 152
3 152 169 153
3 152 153 136
3 153 170 171
3 153 171 154
3 154 171 172
3 154 172 155
3 155 172 173
3 155 173 156
3 156 173 174
3 156 174 157
3 157 174 175
3 157 175 158
3 158 175 176
3 158 176 159
3 159 176 177
3 159 177 160
3 160 177 178
3 160 178 161
3 161 178 179
3 161 179 162
3 162 179 180
3 162 180 163
3 163 180 181
3 163 181 164
3 164 181 182
3 164 182 165
3 165 182 183
3 165 183 166
3 166 183 184
3 166 184 167
3 167 184 185
3 167 185 168
3 168 185 186
3 168 186 169
3 169 186 170
3 169 170 153
CELL_TYPES 340
5
5
5
5
5
5
5
5
5
5
5
5
5
5
5
5
5
5
5
5
5
5
5
5
5
5
5
5
5
5
5
5
5
5
5
5
5
5
5
5
5
5
5
5
5
5
5
5
5
5
5
5
5
5
5
5
5
5
5
5
5
5
5
5
5
5
5
5
5
5
5
5
5
5
5
5
5
5
5
5
5
5
5
5
5
5
5
5
5
5
5
5
5
5
5
5
5
5
5
5
5
5
5
5
5
5
5
5
5
5
5
5
5
5
5
5
5
5
5
5
5
5
5
5
5
5
5
5
5
5
5
5
5
5
5
5
5
5
5
5
5
5
5
5
5
5
5
5
5
5
5
5
5
5
5
5
5
5
5
5
5
5
5
5
5
5
5
5
5
5
5
5
5
5
5
5
5
5
5
5
5
5
5
5
5
5
5
5
5
5
5
5
5
5
5
5
5
5
5
5
5
5
5
5
5
5
5
5
5
5
5
5
5
5
5
5
5
5
5
5
5
5
5
5
5
5
5
5
5
5
5
5
5
5
5
5
5
5
5
5
5
5
5
5
5
5
5
5
5
5
5
5
5
5
5
5
5
5
5
5
5
5
5
5
5
5
5
5
5
5
5
5
5
5
5
5
5
5
5
5
5
5
5
5
5
5
5
5
5
5
5
5
5
5
5
5
5
5
5
5
5
5
5
5
5
5
5
5
5
5
5
5
5
5
5
5
5
5
5
5
5
5
5
5
5
5
5
5
5
5
5
5
5
5
5
5
5
5
5
5
POINT_DATA 187
SCALARS psi double 1
LOOKUP_TABLE default
0.0417496
-0.0626116
-0.0975664
-0.0243666
0.0758442
0.0919799
0.00615374
-0.086494
-0.0832611
0.0122686
0.0941983
0.071707
-0.0302732
-0.0986949
-0.0577109
0.0472469
0.0998304
0.0572186
-0.0835821
-0.13173
-0.0338522
0.101552
0.124383
0.009333
-0.116063
-0.1128
0.015504
0.126622
0.0973764
-0.039813
-0.132869
-0.0786364
0.0627663
0.134591
0.0881638
-0.125463
-0.200011
-0.0528422
0.152904
0.189152
0.0157211
-0.175137
-0.171852
0.0219353
0.191407
0.148699
-0.0588447
-0.201158
-0.120483
0.0937503
0.204059
0.131261
-0.182005
-0.293515
-0.0796563
0.222503
0.278012
0.0253387
-0.255423
-0.253043
0.0298417
0.279646
0.219456
-0.0840059
-0.294345
-0.178396
0.135309
0.299021
0.184
-0.248628
-0.405646
-0.112996
0.304913
0.384819
0.0381441
-0.350814
-0.350887
0.0380068
0.384769
0.305006
-0.112863
-0.405621
-0.248738
0.183877
0.41266
0.24331
-0.320433
-0.528969
-0.15113
0.39424
0.502586
0.053804
-0.454621
-0.459088
0.0453546
0.49952
0.399956
-0.142969
-0.52741
-0.327205
0.235714
0.537338
0.305337
-0.391971
-0.65477
-0.191741
0.483837
0.623071
0.071616
-0.559227
-0.570154
0.0509481
0.615573
0.497821
-0.171777
-0.650956
-0.408535
0.286757
0.664172
0.365573
-0.457504
-0.773428
-0.231989
0.566615
0.737113
0.0905038
-0.656431
-0.675697
0.0540631
0.723893
0.59127
-0.196789
-0.766703
-0.486709
0.332813
0.783404
0.419156
-0.511429
-0.875083
-0.268687
0.635555
0.835269
0.109069
-0.738037
-0.767012
0.0542643
0.815387
0.672634
-0.215749
-0.86497
-0.555351
0.369887
0.885097
0.461243
-0.54874
-0.950433
-0.298548
0.684284
0.908571
0.125686
-0.796525
-0.83577
0.0514557
0.881641
0.734507
-0.226845
-0.936734
-0.608231
0.39451
0.959928
0.487429
-0.565468
-0.991531
-0.318458
0.707633
0.949296
0.138643
-0.8257
-0.874735
0.0458939
0.915648
0.770385
-0.228868
-0.974415
-0.639801
0.404048
1
VECTORS Et double
0.390067 0.07192 0
0.276253 -0.0137688 0
-0.00573389 -0.238418 0
-0.141416 -0.375973 0
-0.152862 -0.178024 0
-0.218523 0.175904 0
-0.245269 0.310396 0
-0.0238491 0.196262 0
0.307339 0.0913195 0
0.375921 0.0459144 0
0.132104 -0.11531 0
-0.0999276 -0.3405 0
-0.148723 -0.319013 0
-0.176442 0.0058704 0
-0.253572 0.284007 0
-0.167903 0.268958 0
0.152537 0.130455 0
0.392174 0.0895217 0
0.357652 -0.0505807 0
0.0840875 -0.257232 0
-0.145645 -0.390321 0
-0.230811 -0.237921 0
-0.270572 0.114463 0
-0.251497 0.339338 0
-0.041275 0.298786 0
0.283937 0.153741 0
0.418314 0.0262411 0
0.233026 -0.148376 0
-0.0499665 -0.349507 0
-0.20115 -0.353966 0
-0.251757 -0.0670709 0
-0.277493 0.260268 0
-0.173625 0.346165 0
0.124602 0.226451 0
0.477467 0.156457 0
0.448552 -0.0925154 0
0.155217 -0.369745 0
-0.145711 -0.491193 0
-0.326745 -0.286566 0
-0.402564 0.11772 0
-0.324143 0.400119 0
-0.0215005 0.412432 0
0.358411 0.258604 0
0.508401 0.0400874 0
0.319064 -0.235522 0
-0.0076283 -0.465166 0
-0.251001 -0.430038 0
-0.377906 -0.0894118 0
-0.389573 0.290874 0
-0.198476 0.437009 0
0.178136 0.346854 0
0.580149 0.210639 0
0.553139 -0.107967 0
0.207752 -0.458127 0
-0.161277 -0.606784 0
-0.400827 -0.357746 0
-0.507593 0.130603 0
-0.408807 0.479516 0
-0.0311517 0.512405 0
0.43425 0.336964 0
0.620693 0.0622701 0
0.402011 -0.28992 0
0.0108017 -0.575718 0
-0.298026 -0.531682 0
-0.472361 -0.119767 0
-0.492041 0.342018 0
-0.250774 0.532592 0
0.214061 0.440705 0
0.680858 0.253827 0
0.653071 -0.10336 0
0.244011 -0.521879 0
-0.181353 -0.718832 0
-0.451177 -0.434667 0
-0.585326 0.146775 0
-0.493245 0.558692 0
-0.0585009 0.591447 0
0.501801 0.392236 0
0.732509 0.0899833 0
0.473352 -0.31723 0
0.0149379 -0.671255 0
-0.33494 -0.637648 0
-0.536342 -0.151926 0
-0.57898 0.39786 0
-0.315409 0.617884 0
0.234733 0.508093 0
0.768604 0.283001 0
0.737362 -0.0799817 0
0.261361 -0.555973 0
-0.202492 -0.81565 0
-0.473361 -0.508451 0
-0.62961 0.164087 0
-0.568946 0.628294 0
-0.0994542 0.641968 0
0.554322 0.420607 0
0.831333 0.120736 0
0.525898 -0.316191 0
0.00596967 -0.742773 0
-0.357496 -0.736155 0
-0.564922 -0.182183 0
-0.642689 0.451498 0
-0.384906 0.683569 0
0.239026 0.543597 0
0.83579 0.294539 0
0.798206 -0.0387787 0
0.256792 -0.555918 0
-0.223514 -0.888515 0
-0.463957 -0.572754 0
-0.634638 0.181672 0
-0.629059 0.682478 0
-0.151312 0.658043 0
0.586965 0.417725 0
0.908549 0.151909 0
0.553982 -0.285272 0
-0.0167038 -0.783084 0
-0.363286 -0.818736 0
-0.553543 -0.207629 0
-0.67639 0.498938 0
-0.453751 0.723292 0
0.22587 0.542092 0
0.877113 0.285596 0
0.830203 0.0183265 0
0.228437 -0.519374 0
-0.244028 -0.931025 0
-0.421746 -0.622602 0
-0.596975 0.199063 0
-0.668128 0.717464 0
-0.211173 0.636319 0
0.596643 0.380854 0
0.95807 0.180758 0
0.553866 -0.224614 0
-0.0534958 -0.78738 0
-0.351536 -0.878904 0
-0.500104 -0.2259 0
-0.675302 0.537508 0
-0.517068 0.733205 0
0.195224 0.500706 0
0.889339 0.254742 0
0.830295 0.088108 0
0.17622 -0.446772 0
-0.263872 -0.93912 0
-0.348134 -0.654197 0
-0.516397 0.215856 0
-0.682238 0.73113 0
-0.275538 0.57644 0
0.582055 0.309757 0
0.976065 0.204572 0
0.524039 -0.136654 0
-0.103872 -0.753588 0
-0.322994 -0.911946 0
-0.405743 -0.23521 0
-0.637217 0.565347 0
-0.570379 0.711921 0
0.148371 0.419614 0
0.871267 0.202289 0
0.797781 0.166102 0
0.102094 -0.341469 0
-0.282831 -0.91119 0
-0.247167 -0.664965 0
-0.39617 0.231552 0
-0.669221 0.722832 0
-0.34032 0.481139 0
0.543684 0.207035 0
0.960919 0.220897 0
0.465344 -0.0261988 0
-0.166043 -0.682532 0
-0.27977 -0.914985 0
-0.275017 -0.234443 0
-0.562785 0.581208 0
-0.609705 0.66044 0
0.0879397 0.302288 0
0.757201 0.091955 0
0.889876 0.183688 0
0.182951 -0.138809 0
-0.337092 -0.791724 0
-0.253968 -0.787371 0
-0.241821 0.0758772 0
-0.568219 0.738171 0
-0.480241 0.537476 0
0.34492 0.129428 0
0.962041 0.145004 0
0.585322 0.102334 0
-0.159659 -0.481719 0
-0.341205 -0.921813 0
-0.193319 -0.412607 0
-0.396694 0.505849 0
-0.627773 0.727909 0
-0.122319 0.296351 0
