# vtk DataFile Version 3.0
tp3485 scalar+vector
ASCII
DATASET UNSTRUCTURED_GRID
POINTS 187 double
1 0 0
0.932472 0.361242 0
0.739009 0.673696 0
0.445738 0.895163 0
0.0922684 0.995734 0
-0.273663 0.961826 0
-0.602635 0.798017 0
-0.850217 0.526432 0
-0.982973 0.18375 0
-0.982973 -0.18375 0
-0.850217 -0.526432 0
-0.602635 -0.798017 0
-0.273663 -0.961826 0
0.0922684 -0.995734 0
0.445738 -0.895163 0
0.739009 -0.673696 0
0.932472 -0.361242 0
1.3 0 0
1.21221 0.469614 0
0.960712 0.875804 0
0.57946 1.16371 0
0.119949 1.29445 0
-0.355762 1.25037 0
-0.783425 1.03742 0
-1.10528 0.684362 0
-1.27787 0.238874 0
-1.27787 -0.238874 0
-1.10528 -0.684362 0
-0.783425 -1.03742 0
-0.355762 -1.25037 0
0.119949 -1.29445 0
0.57946 -1.16371 0
0.960712 -0.875804 0
1.21221 -0.469614 0
1.6 0 0
1.49196 0.577987 0
1.18241 1.07791 0
0.713181 1.43226 0
0.147629 1.59317 0
-0.437861 1.53892 0
-0.964215 1.27683 0
-1.36035 0.842291 0
-1.57276 0.293999 0
-1.57276 -0.293999 0
-1.36035 -0.842291 0
-0.964215 -1.27683 0
-0.437861 -1.53892 0
0.147629 -1.59317 0
0.713181 -1.43226 0
1.18241 -1.07791 0
1.49196 -0.577987 0
1.9 0 0
1.7717 0.686359 0
1.40412 1.28002 0
0.846903 1.70081 0
0.17531 1.89189 0
-0.51996 1.82747 0
-1.14501 1.51623 0
-1.61541 1.00022 0
-1.86765 0.349124 0
-1.86765 -0.349124 0
-1.61541 -1.00022 0
-1.14501 -1.51623 0
-0.51996 -1.82747 0
0.17531 -1.89189 0
0.846903 -1.70081 0
1.40412 -1.28002 0
1.7717 -0.686359 0
2.2 0 0
2.05144 0.794732 0
1.62582 1.48213 0
0.980624 1.96936 0
0.20299 2.19062 0
-0.602059 2.11602 0
-1.3258 1.75564 0
-1.87048 1.15815 0
-2.16254 0.404249 0
-2.16254 -0.404249 0
-1.87048 -1.15815 0
-1.3258 -1.75564 0
-0.602059 -2.11602 0
0.20299 -2.19062 0
0.980624 -1.96936 0
1.62582 -1.48213 0
2.05144 -0.794732 0
2.5 0 0
2.33118 0.903104 0
1.84752 1.68424 0
1.11435 2.23791 0
0.230671 2.48934 0
-0.684157 2.40456 0
-1.50659 1.99504 0
-2.12554 1.31608 0
-2.45743 0.459374 0
-2.45743 -0.459374 0
-2.12554 -1.31608 0
-1.50659 -1.99504 0
-0.684157 -2.40456 0
0.230671 -2.48934 0
1.11435 -2.23791 0
1.84752 -1.68424 0
2.33118 -0.903104 0
2.8 0 0
2.61092 1.01148 0
2.06922 1.88635 0
1.24807 2.50646 0
0.258351 2.78806 0
-0.766256 2.69311 0
-1.68738 2.23445 0
-2.38061 1.47401 0
-2.75232 0.514499 0
-2.75232 -0.514499 0
-2.38061 -1.47401 0
-1.68738 -2.23445 0
-0.766256 -2.69311 0
0.258351 -2.78806 0
1.24807 -2.50646 0
2.06922 -1.88635 0
2.61092 -1.01148 0
3.1 0 0
2.89066 1.11985 0
2.29093 2.08846 0
1.38179 2.77501 0
0.286032 3.08678 0
-0.848355 2.98166 0
-1.86817 2.47385 0
-2.63567 1.63194 0
-3.04722 0.569624 0
-3.04722 -0.569624 0
-2.63567 -1.63194 0
-1.86817 -2.47385 0
-0.848355 -2.98166 0
0.286032 -3.08678 0
1.38179 -2.77501 0
2.29093 -2.08846 0
2.89066 -1.11985 0
3.4 0 0
3.17041 1.22822 0
2.51263 2.29057 0
1.51551 3.04356 0
0.313712 3.3855 0
-0.930454 3.27021 0
-2.04896 2.71326 0
-2.89074 1.78987 0
-3.34211 0.624748 0
-3.34211 -0.624748 0
-2.89074 -1.78987 0
-2.04896 -2.71326 0
-0.930454 -3.27021 0
0.313712 -3.3855 0
1.51551 -3.04356 0
2.51263 -2.29057 0
3.17041 -1.22822 0
3.7 0 0
3.45015 1.33659 0
2.73433 2.49267 0
1.64923 3.3121 0
0.341393 3.68422 0
-1.01255 3.55875 0
-2.22975 2.95266 0
-3.1458 1.9478 0
-3.637 0.679873 0
-3.637 -0.679873 0
-3.1458 -1.9478 0
-2.22975 -2.95266 0
-1.01255 -3.55875 0
0.341393 -3.68422 0
1.64923 -3.3121 0
2.73433 -2.49267 0
3.45015 -1.33659 0
4 0 0
3.72989 1.44497 0
2.95604 2.69478 0
1.78295 3.58065 0
0.369073 3.98294 0
-1.09465 3.8473 0
-2.41054 3.19207 0
-3.40087 2.10573 0
-3.93189 0.734998 0
-3.93189 -0.734998 0
-3.40087 -2.10573 0
-2.41054 -3.19207 0
-1.09465 -3.8473 0
0.369073 -3.98294 0
1.78295 -3.58065 0
2.95604 -2.69478 0
3.72989 -1.44497 0
CELLS 340 1360
3 0 17 18
3 0 18 1
3 1 18 19
3 1 19 2
3 2 19 20
3 2 20 3
3 3 20 21
3 3 21 4
3 4 21 22
3 4 22 5
3 5 22 23
3 5 23 6
3 6 23 24
3 6 24 7
3 7 24 25
3 7 25 8
3 8 25 26
3 8 26 9
3 9 26 27
3 9 27 10
3 10 27 28
3 10 28 11
3 11 28 29
3 11 29 12
3 12 29 30
3 12 30 13
3 13 30 31
3 13 31 14
3 14 31 32
3 14 32 15
3 15 32 33
3 15 33 16
3 16 33 17
3 16 17 0
3 17 34 35
3 17 35 18
3 18 35 36
3 18 36 19
3 19 36 37
3 19 37 20
3 20 37 38
3 20 38 21
3 21 38 39
3 21 39 22
3 22 39 40
3 22 40 23
3 23 40 41
3 23 41 24
3 24 41 42
3 24 42 25
3 25 42 43
3 25 43 26
3 26 43 44
3 26 44 27
3 27 44 45
3 27 45 28
3 28 45 46
3 28 46 29
3 29 46 47
3 29 47 30
3 30 47 48
3 30 48 31
3 31 48 49
3 31 49 32
3 32 49 50
3 32 50 33
3 33 50 34
3 33 34 17
3 34 51 52
3 34 52 35
3 35 52 53
3 35 53 36
3 36 53 54
3 36 54 37
3 37 54 55
3 37 55 38
3 38 55 56
3 38 56 39
3 39 56 57
3 39 57 40
3 40 57 58
3 40 58 41
3 41 58 59
3 41 59 42
3 42 59 60
3 42 60 43
3 43 60 61
3 43 61 44
3 44 61 62
3 44 62 45
3 45 62 63
3 45 63 46
3 46 63 64
3 46 64 47
3 47 64 65
3 47 65 48
3 48 65 66
3 48 66 49
3 49 66 67
3 49 67 50
3 50 67 51
3 50 51 34
3 51 68 69
3 51 69 52
3 52 69 70
3 52 70 53
3 53 70 71
3 53 71 54
3 54 71 72
3 54 72 55
3 55 72 73
3 55 73 56
3 56 73 74
3 56 74 57
3 57 74 75
3 57 75 58
3 58 75 76
3 58 76 59
3 59 76 77
3 59 77 60
3 60 77 78
3 60 78 61
3 61 78 79
3 61 79 62
3 62 79 80
3 62 80 63
3 63 80 81
3 63 81 64
3 64 81 82
3 64 82 65
3 65 82 83
3 65 83 66
3 66 83 84
3 66 84 67
3 67 84 68
3 67 68 51
3 68 85 86
3 68 86 69
3 69 86 87
3 69 87 70
3 70 87 88
3 70 88 71
3 71 88 89
3 71 89 72
3 72 89 90
3 72 90 73
3 73 90 91
3 73 91 74
3 74 91 92
3 74 92 75
3 75 92 93
3 75 93 76
3 76 93 94
3 76 94 77
3 77 94 95
3 77 95 78
3 78 95 96
3 78 96 79
3 79 96 97
3 79 97 80
3 80 97 98
3 80 98 81
3 81 98 99
3 81 99 82
3 82 99 100
3 82 100 83
3 83 100 101
3 83 101 84
3 84 101 85
3 84 85 68
3 85 102 103
3 85 103 86
3 86 103 104
3 86 104 87
3 87 104 105
3 87 105 88
3 88 105 106
3 88 106 89
3 89 106 107
3 89 107 90
3 90 107 108
3 90 108 91
3 91 108 109
3 91 109 92
3 92 109 110
3 92 110 93
3 93 110 111
3 93 111 94
3 94 111 112
3 94 112 95
3 95 112 113
3 95 113 96
3 96 113 114
3 96 114 97
3 97 114 115
3 97 115 98
3 98 115 116
3 98 116 99
3 99 116 117
3 99 117 100
3 100 117 118
3 100 118 101
3 101 118 102
3 101 102 85
3 102 119 120
3 102 120 103
3 103 120 121
3 103 121 104
3 104 121 122
3 104 122 105
3 105 122 123
3 105 123 106
3 106 123 124
3 106 124 107
3 107 124 125
3 107 125 108
3 108 125 126
3 108 126 109
3 109 126 127
3 109 127 110
3 110 127 128
3 110 128 111
3 111 128 129
3 111 129 112
3 112 129 130
3 112 130 113
3 113 130 131
3 113 131 114
3 114 131 132
3 114 132 115
3 115 132 133
3 115 133 116
3 116 133 134
3 116 134 117
3 117 134 135
3 117 135 118
3 118 135 119
3 118 119 102
3 119 136 137
3 119 137 120
3 120 137 138
3 120 138 121
3 121 138 139
3 121 139 122
3 122 139 140
3 122 140 123
3 123 140 141
3 123 141 124
3 124 141 142
3 124 142 125
3 125 142 143
3 125 143 126
3 126 143 144
3 126 144 127
3 127 144 145
3 127 145 128
3 128 145 146
3 128 146 129
3 129 146 147
3 129 147 130
3 130 147 148
3 130 148 131
3 131 148 149
3 131 149 132
3 132 149 150
3 132 150 133
3 133 150 151
3 133 151 134
3 134 151 152
3 134 152 135
3 135 152 136
3 135 136 119
3 136 153 154
3 136 154 137
3 137 154 155
3 137 155 138
3 138 155 156
3 138 156 139
3 139 156 157
3 139 157 140
3 140 157 158
3 140 158 141
3 141 158 159
3 141 159 142
3 142 159 160
3 142 160 143
3 143 160 161
3 143 161 144
3 144 161 162
3 144 162 145
3 145 162 163
3 145 163 146
3 146 163 164
3 146 164 147
3 147 164 165
3 147 165 148
3 148 165 166
3 148 166 149
3 149 166 167
3 149 167 150
3 150 167 168
3 150 168 151
3 151 168 169
3 151 169 152
3 152 169 153
3 152 153 136
3 153 170 171
3 153 171 154
3 154 171 172
3 154 172 155
3 155 172 173
3 155 173 156
3 156 173 174
3 156 174 157
3 157 174 175
3 157 175 158
3 158 175 176
3 158 176 159
3 159 176 177
3 159 177 160
3 160 177 178
3 160 178 161
3 161 178 179
3 161 179 162
3 162 179 180
3 162 180 163
3 163 180 181
3 163 181 164
3 164 181 182
3 164 182 165
3 165 182 183
3 165 183 166
3 166 183 184
3 166 184 167
3 167 184 185
3 167 185 168
3 168 185 186
3 168 186 169
3 169 186 170
3 169 170 153
CELL_TYPES 340
5
5
5
5
5
5
5
5
5
5
5
5
5
5
5
5
5
5
5
5
5
5
5
5
5
5
5
5
5
5
5
5
5
5
5
5
5
5
5
5
5
5
5
5
5
5
5
5
5
5
5
5
5
5
5
5
5
5
5
5
5
5
5
5
5
5
5
5
5
5
5
5
5
5
5
5
5
5
5
5
5
5
5
5
5
5
5
5
5
5
5
5
5
5
5
5
5
5
5
5
5
5
5
5
5
5
5
5
5
5
5
5
5
5
5
5
5
5
5
5
5
5
5
5
5
5
5
5
5
5
5
5
5
5
5
5
5
5
5
5
5
5
5
5
5
5
5
5
5
5
5
5
5
5
5
5
5
5
5
5
5
5
5
5
5
5
5
5
5
5
5
5
5
5
5
5
5
5
5
5
5
5
5
5
5
5
5
5
5
5
5
5
5
5
5
5
5
5
5
5
5
5
5
5
5
5
5
5
5
5
5
5
5
5
5
5
5
5
5
5
5
5
5
5
5
5
5
5
5
5
5
5
5
5
5
5
5
5
5
5
5
5
5
5
5
5
5
5
5
5
5
5
5
5
5
5
5
5
5
5
5
5
5
5
5
5
5
5
5
5
5
5
5
5
5
5
5
5
5
5
5
5
5
5
5
5
5
5
5
5
5
5
5
5
5
5
5
5
5
5
5
5
5
5
5
5
5
5
5
5
5
5
5
5
5
5
5
5
5
5
5
5
5
5
5
5
5
5
5
5
5
5
5
5
5
5
5
5
5
5
POINT_DATA 187
SCALARS psi double 1
LOOKUP_TABLE default
-0.282031
-0.477693
-0.60884
-0.65776
-0.617845
-0.494487
-0.304346
-0.0731015
0.168016
0.386442
0.552677
0.64427
0.64885
0.5658
0.406336
0.191993
-0.0482793
-0.293216
-0.496903
-0.633481
-0.684503
-0.64308
-0.514805
-0.317003
-0.0763876
0.174544
0.401903
0.574982
0.670407
0.675289
0.588971
0.423108
0.200102
-0.0499284
-0.312036
-0.529079
-0.674668
-0.729139
-0.685136
-0.548601
-0.337975
-0.0817031
0.185603
0.427842
0.612299
0.714062
0.719386
0.627554
0.450966
0.213474
-0.0528498
-0.333281
-0.565406
-0.721169
-0.779535
-0.73262
-0.58676
-0.361656
-0.0877076
0.198086
0.457127
0.65443
0.763349
0.769174
0.671117
0.482422
0.228574
-0.0561451
-0.354396
-0.601549
-0.76746
-0.829721
-0.779924
-0.624793
-0.385281
-0.0937347
0.210471
0.486252
0.696361
0.812423
0.818763
0.714525
0.513785
0.243657
-0.0593793
-0.373928
-0.635044
-0.810394
-0.876296
-0.823849
-0.660137
-0.407269
-0.0993982
0.221897
0.513224
0.735238
0.857953
0.864797
0.754845
0.542948
0.257722
-0.0623105
-0.390967
-0.664339
-0.847989
-0.917113
-0.862376
-0.69117
-0.426618
-0.104449
0.231827
0.536793
0.769262
0.897838
0.905156
0.790228
0.568575
0.270133
-0.0647923
-0.404907
-0.688398
-0.878917
-0.950733
-0.894148
-0.716803
-0.442649
-0.108714
0.239904
0.556122
0.797232
0.930672
0.938419
0.819428
0.589768
0.280457
-0.0667315
-0.415336
-0.70651
-0.902265
-0.976165
-0.918228
-0.736279
-0.454892
-0.112069
0.245889
0.570639
0.818321
0.955484
0.963604
0.841583
0.605903
0.288391
-0.0680689
-0.421975
-0.718191
-0.917412
-0.992731
-0.933976
-0.749083
-0.463021
-0.114427
0.249622
0.579958
0.831967
0.971615
0.980041
0.856106
0.61655
0.293725
-0.0687687
-0.424653
-0.72314
-0.923963
-1
-0.940981
-0.754878
-0.466824
-0.115723
0.251007
0.583837
0.837817
0.978645
0.987301
0.862617
0.621432
0.296319
-0.0688136
VECTORS Et double
0.875614 0.0232208 0
0.620725 0.187136 0
0.321931 0.136553 0
0.135197 -0.102124 0
0.157995 -0.404311 0
0.378424 -0.612271 0
0.681426 -0.617452 0
0.908837 -0.417151 0
0.941954 -0.115921 0
0.76349 0.129002 0
0.466601 0.189772 0
0.206256 0.034668 0
0.118352 -0.255348 0
0.248772 -0.528893 0
0.529441 -0.643182 0
0.813853 -0.538557 0
0.95355 -0.269631 0
0.785708 -0.0971821 0
0.617033 0.0662701 0
0.382263 0.0734269 0
0.203945 -0.0794474 0
0.175157 -0.312555 0
0.310926 -0.504218 0
0.540383 -0.554392 0
0.743756 -0.436886 0
0.814887 -0.213038 0
0.716648 0.000309465 0
0.500317 0.0917915 0
0.278815 0.0136565 0
0.167763 -0.193311 0
0.225127 -0.421076 0
0.420965 -0.550752 0
0.653052 -0.514648 0
0.800244 -0.33161 0
0.67929 -0.118523 0
0.555262 -0.000327597 0
0.383977 0.00346298 0
0.254841 -0.10913 0
0.235263 -0.279335 0
0.33546 -0.418308 0
0.503133 -0.453508 0
0.650758 -0.366561 0
0.701279 -0.202851 0
0.628324 -0.047833 0
0.469974 0.0175771 0
0.308885 -0.0407638 0
0.229144 -0.192403 0
0.272372 -0.358187 0
0.416007 -0.45158 0
0.585072 -0.423832 0
0.69132 -0.289428 0
0.611346 -0.121781 0
0.509458 -0.0260345 0
0.369658 -0.023919 0
0.264919 -0.116538 0
0.249914 -0.255547 0
0.332474 -0.368384 0
0.469505 -0.396152 0
0.589479 -0.324356 0
0.629771 -0.190471 0
0.569351 -0.0643844 0
0.439756 -0.0119102 0
0.308632 -0.0604392 0
0.244424 -0.18464 0
0.280647 -0.319682 0
0.398394 -0.395076 0
0.536202 -0.371467 0
0.622139 -0.261179 0
0.561722 -0.115367 0
0.470608 -0.0306746 0
0.346218 -0.0294692 0
0.25348 -0.11238 0
0.240803 -0.236128 0
0.314803 -0.33612 0
0.436853 -0.360162 0
0.543247 -0.295704 0
0.578447 -0.176392 0
0.524081 -0.0645047 0
0.408526 -0.0184456 0
0.2921 -0.0622565 0
0.235575 -0.173069 0
0.268457 -0.293041 0
0.373581 -0.359549 0
0.496075 -0.337877 0
0.571999 -0.239338 0
0.521679 -0.103116 0
0.434909 -0.0230642 0
0.316854 -0.0223617 0
0.229138 -0.101375 0
0.217546 -0.218861 0
0.288129 -0.313494 0
0.404044 -0.335877 0
0.504785 -0.274326 0
0.537768 -0.160971 0
0.485776 -0.0549801 0
0.375947 -0.0116788 0
0.265611 -0.0536699 0
0.212361 -0.159035 0
0.243992 -0.272775 0
0.343994 -0.335519 0
0.460167 -0.314518 0
0.531872 -0.220732 0
0.486954 -0.0870596 0
0.400596 -0.00773144 0
0.283335 -0.00728583 0
0.196377 -0.0859553 0
0.185114 -0.202676 0
0.255424 -0.296521 0
0.370607 -0.318506 0
0.47054 -0.257155 0
0.503059 -0.144491 0
0.45119 -0.039324 0
0.342007 0.00345138 0
0.232503 -0.038493 0
0.179836 -0.143263 0
0.211497 -0.25617 0
0.310961 -0.31828 0
0.426308 -0.297171 0
0.49733 -0.203862 0
0.455297 -0.0684229 0
0.366833 0.0127007 0
0.246805 0.0130541 0
0.157865 -0.0675472 0
0.146438 -0.187031 0
0.218489 -0.283028 0
0.336409 -0.305431 0
0.438645 -0.242545 0
0.471832 -0.127195 0
0.418647 -0.0195927 0
0.306852 0.024096 0
0.194801 -0.0189337 0
0.140984 -0.126221 0
0.173491 -0.241764 0
0.275355 -0.305251 0
0.393405 -0.283543 0
0.46602 -0.187972 0
0.425458 -0.0480363 0
0.333243 0.0365432 0
0.208115 0.0369235 0
0.115388 -0.0470937 0
0.103464 -0.171653 0
0.178567 -0.271737 0
0.301495 -0.295103 0
0.408081 -0.229555 0
0.44269 -0.109307 0
0.387256 0.00287237 0
0.270715 0.0484286 0
0.153899 0.00358177 0
0.0977837 -0.108259 0
0.131661 -0.228715 0
0.237847 -0.29491 0
0.360914 -0.272291 0
0.436625 -0.172666 0
0.396727 -0.0265203 0
0.299705 0.0626012 0
0.167965 0.0630998 0
0.0702714 -0.0252847 0
0.0576194 -0.156417 0
0.136613 -0.261849 0
0.266019 -0.286546 0
0.378289 -0.217618 0
0.414821 -0.0910428 0
0.356546 0.0271087 0
0.233882 0.0751638 0
0.110857 0.0280386 0
0.051689 -0.0896684 0
0.0872619 -0.216516 0
0.199007 -0.286293 0
0.328596 -0.262576 0
0.408386 -0.157745 0
0.388706 -0.0606924 0
0.30873 0.0489979 0
0.175729 0.0761804 0
0.0591274 0.00666642 0
0.0197891 -0.123259 0
0.0782479 -0.245777 0
0.203989 -0.296936 0
0.331379 -0.250031 0
0.393921 -0.129546 0
0.35897 0.00162782 0
0.24477 0.0750203 0
0.110931 0.0523217 0
0.0273146 -0.0546195 0
0.0375672 -0.189982 0
0.136337 -0.283109 0
0.272068 -0.28539 0
0.373911 -0.195634 0
