# vtk DataFile Version 3.0
tp3485 scalar+vector
ASCII
DATASET UNSTRUCTURED_GRID
POINTS 187 double
1 0 0
0.932472 0.361242 0
0.739009 0.673696 0
0.445738 0.895163 0
0.0922684 0.995734 0
-0.273663 0.961826 0
-0.602635 0.798017 0
-0.850217 0.526432 0
-0.982973 0.18375 0
-0.982973 -0.18375 0
-0.850217 -0.526432 0
-0.602635 -0.798017 0
-0.273663 -0.961826 0
0.0922684 -0.995734 0
0.445738 -0.895163 0
0.739009 -0.673696 0
0.932472 -0.361242 0
1.3 0 0
1.21221 0.469614 0
0.960712 0.875804 0
0.57946 1.16371 0
0.119949 1.29445 0
-0.355762 1.25037 0
-0.783425 1.03742 0
-1.10528 0.684362 0
-1.27787 0.238874 0
-1.27787 -0.238874 0
-1.10528 -0.684362 0
-0.783425 -1.03742 0
-0.355762 -1.25037 0
0.119949 -1.29445 0
0.57946 -1.16371 0
0.960712 -0.875804 0
1.21221 -0.469614 0
1.6 0 0
1.49196 0.577987 0
1.18241 1.07791 0
0.713181 1.43226 0
0.147629 1.59317 0
-0.437861 1.53892 0
-0.964215 1.27683 0
-1.36035 0.842291 0
-1.57276 0.293999 0
-1.57276 -0.293999 0
-1.36035 -0.842291 0
-0.964215 -1.27683 0
-0.437861 -1.53892 0
0.147629 -1.59317 0
0.713181 -1.43226 0
1.18241 -1.07791 0
1.49196 -0.577987 0
1.9 0 0
1.7717 0.686359 0
1.40412 1.28002 0
0.846903 1.70081 0
0.17531 1.89189 0
-0.51996 1.82747 0
-1.14501 1.51623 0
-1.61541 1.00022 0
-1.86765 0.349124 0
-1.86765 -0.349124 0
-1.61541 -1.00022 0
-1.14501 -1.51623 0
-0.51996 -1.82747 0
0.17531 -1.89189 0
0.846903 -1.70081 0
1.40412 -1.28002 0
1.7717 -0.686359 0
2.2 0 0
2.05144 0.794732 0
1.62582 1.48213 0
0.980624 1.96936 0
0.20299 2.19062 0
-0.602059 2.11602 0
-1.3258 1.75564 0
-1.87048 1.15815 0
-2.16254 0.404249 0
-2.16254 -0.404249 0
-1.87048 -1.15815 0
-1.3258 -1.75564 0
-0.602059 -2.11602 0
0.20299 -2.19062 0
0.980624 -1.96936 0
1.62582 -1.48213 0
2.05144 -0.794732 0
2.5 0 0
2.33118 0.903104 0
1.84752 1.68424 0
1.11435 2.23791 0
0.230671 2.48934 0
-0.684157 2.40456 0
-1.50659 1.99504 0
-2.12554 1.31608 0
-2.45743 0.459374 0
-2.45743 -0.459374 0
-2.12554 -1.31608 0
-1.50659 -1.99504 0
-0.684157 -2.40456 0
0.230671 -2.48934 0
1.11435 -2.23791 0
1.84752 -1.68424 0
2.33118 -0.903104 0
2.8 0 0
2.61092 1.01148 0
2.06922 1.88635 0
1.24807 2.50646 0
0.258351 2.78806 0
-0.766256 2.69311 0
-1.68738 2.23445 0
-2.38061 1.47401 0
-2.75232 0.514499 0
-2.75232 -0.514499 0
-2.38061 -1.47401 0
-1.68738 -2.23445 0
-0.766256 -2.69311 0
0.258351 -2.78806 0
1.24807 -2.50646 0
2.06922 -1.88635 0
2.61092 -1.01148 0
3.1 0 0
2.89066 1.11985 0
2.29093 2.08846 0
1.38179 2.77501 0
0.286032 3.08678 0
-0.848355 2.98166 0
-1.86817 2.47385 0
-2.63567 1.63194 0
-3.04722 0.569624 0
-3.04722 -0.569624 0
-2.63567 -1.63194 0
-1.86817 -2.47385 0
-0.848355 -2.98166 0
0.286032 -3.08678 0
1.38179 -2.77501 0
2.29093 -2.08846 0
2.89066 -1.11985 0
3.4 0 0
3.17041 1.22822 0
2.51263 2.29057 0
1.51551 3.04356 0
0.313712 3.3855 0
-0.930454 3.27021 0
-2.04896 2.71326 0
-2.89074 1.78987 0
-3.34211 0.624748 0
-3.34211 -0.624748 0
-2.89074 -1.78987 0
-2.04896 -2.71326 0
-0.930454 -3.27021 0
0.313712 -3.3855 0
1.51551 -3.04356 0
2.51263 -2.29057 0
3.17041 -1.22822 0
3.7 0 0
3.45015 1.33659 0
2.73433 2.49267 0
1.64923 3.3121 0
0.341393 3.68422 0
-1.01255 3.55875 0
-2.22975 2.95266 0
-3.1458 1.9478 0
-3.637 0.679873 0
-3.637 -0.679873 0
-3.1458 -1.9478 0
-2.22975 -2.95266 0
-1.01255 -3.55875 0
0.341393 -3.68422 0
1.64923 -3.3121 0
2.73433 -2.49267 0
3.45015 -1.33659 0
4 0 0
3.72989 1.44497 0
2.95604 2.69478 0
1.78295 3.58065 0
0.369073 3.98294 0
-1.09465 3.8473 0
-2.41054 3.19207 0
-3.40087 2.10573 0
-3.93189 0.734998 0
-3.93189 -0.734998 0
-3.40087 -2.10573 0
-2.41054 -3.19207 0
-1.09465 -3.8473 0
0.369073 -3.98294 0
1.78295 -3.58065 0
2.95604 -2.69478 0
3.72989 -1.44497 0
CELLS 340 1360
3 0 17 18
3 0 18 1
3 1 18 19
3 1 19 2
3 2 19 20
3 2 20 3
3 3 20 21
3 3 21 4
3 4 21 22
3 4 22 5
3 5 22 23
3 5 23 6
3 6 23 24
3 6 24 7
3 7 24 25
3 7 25 8
3 8 25 26
3 8 26 9
3 9 26 27
3 9 27 10
3 10 27 28
3 10 28 11
3 11 28 29
3 11 29 12
3 12 29 30
3 12 30 13
3 13 30 31
3 13 31 14
3 14 31 32
3 14 32 15
3 15 32 33
3 15 33 16
3 16 33 17
3 16 17 0
3 17 34 35
3 17 35 18
3 18 35 36
3 18 36 19
3 19 36 37
3 19 37 20
3 20 37 38
3 20 38 21
3 21 38 39
3 21 39 22
3 22 39 40
3 22 40 23
3 23 40 41
3 23 41 24
3 24 41 42
3 24 42 25
3 25 42 43
3 25 43 26
3 26 43 44
3 26 44 27
3 27 44 45
3 27 45 28
3 28 45 46
3 28 46 29
3 29 46 47
3 29 47 30
3 30 47 48
3 30 48 31
3 31 48 49
3 31 49 32
3 32 49 50
3 32 50 33
3 33 50 34
3 33 34 17
3 34 51 52
3 34 52 35
3 35 52 53
3 35 53 36
3 36 53 54
3 36 54 37
3 37 54 55
3 37 55 38
3 38 55 56
3 38 56 39
3 39 56 57
3 39 57 40
3 40 57 58
3 40 58 41
3 41 58 59
3 41 59 42
3 42 59 60
3 42 60 43
3 43 60 61
3 43 61 44
3 44 61 62
3 44 62 45
3 45 62 63
3 45 63 46
3 46 63 64
3 46 64 47
3 47 64 65
3 47 65 48
3 48 65 66
3 48 66 49
3 49 66 67
3 49 67 50
3 50 67 51
3 50 51 34
3 51 68 69
3 51 69 52
3 52 69 70
3 52 70 53
3 53 70 71
3 53 71 54
3 54 71 72
3 54 72 55
3 55 72 73
3 55 73 56
3 56 73 74
3 56 74 57
3 57 74 75
3 57 75 58
3 58 75 76
3 58 76 59
3 59 76 77
3 59 77 60
3 60 77 78
3 60 78 61
3 61 78 79
3 61 79 62
3 62 79 80
3 62 80 63
3 63 80 81
3 63 81 64
3 64 81 82
3 64 82 65
3 65 82 83
3 65 83 66
3 66 83 84
3 66 84 67
3 67 84 68
3 67 68 51
3 68 85 86
3 68 86 69
3 69 86 87
3 69 87 70
3 70 87 88
3 70 88 71
3 71 88 89
3 71 89 72
3 72 89 90
3 72 90 73
3 73 90 91
3 73 91 74
3 74 91 92
3 74 92 75
3 75 92 93
3 75 93 76
3 76 93 94
3 76 94 77
3 77 94 95
3 77 95 78
3 78 95 96
3 78 96 79
3 79 96 97
3 79 97 80
3 80 97 98
3 80 98 81
3 81 98 99
3 81 99 82
3 82 99 100
3 82 100 83
3 83 100 101
3 83 101 84
3 84 101 85
3 84 85 68
3 85 102 103
3 85 103 86
3 86 103 104
3 86 104 87
3 87 104 105
3 87 105 88
3 88 105 106
3 88 106 89
3 89 106 107
3 89 107 90
3 90 107 108
3 90 108 91
3 91 108 109
3 91 109 92
3 92 109 110
3 92 110 93
3 93 110 111
3 93 111 94
3 94 111 112
3 94 112 95
3 95 112 113
3 95 113 96
3 96 113 114
3 96 114 97
3 97 114 115
3 97 115 98
3 98 115 116
3 98 116 99
3 99 116 117
3 99 117 100
3 100 117 118
3 100 118 101
3 101 118 102
3 101 102 85
3 102 119 120
3 102 120 103
3 103 120 121
3 103 121 104
3 104 121 122
3 104 122 105
3 105 122 123
3 105 123 106
3 106 123 124
3 106 124 107
3 107 124 125
3 107 125 108
3 108 125 126
3 108 126 109
3 109 126 127
3 109 127 110
3 110 127 128
3 110 128 111
3 111 128 129
3 111 129 112
3 112 129 130
3 112 130 113
3 113 130 131
3 113 131 114
3 114 131 132
3 114 132 115
3 115 132 133
3 115 133 116
3 116 133 134
3 116 134 117
3 117 134 135
3 117 135 118
3 118 135 119
3 118 119 102
3 119 136 137
3 119 137 120
3 120 137 138
3 120 138 121
3 121 138 139
3 121 139 122
3 122 139 140
3 122 140 123
3 123 140 141
3 123 141 124
3 124 141 142
3 124 142 125
3 125 142 143
3 125 143 126
3 126 143 144
3 126 144 127
3 127 144 145
3 127 145 128
3 128 145 146
3 128 146 129
3 129 146 147
3 129 147 130
3 130 147 148
3 130 148 131
3 131 148 149
3 131 149 132
3 132 149 150
3 132 150 133
3 133 150 151
3 133 151 134
3 134 151 152
3 134 152 135
3 135 152 136
3 135 136 119
3 136 153 154
3 136 154 137
3 137 154 155
3 137 155 138
3 138 155 156
3 138 156 139
3 139 156 157
3 139 157 140
3 140 157 158
3 140 158 141
3 141 158 159
3 141 159 142
3 142 159 160
3 142 160 143
3 143 160 161
3 143 161 144
3 144 161 162
3 144 162 145
3 145 162 163
3 145 163 146
3 146 163 164
3 146 164 147
3 147 164 165
3 147 165 148
3 148 165 166
3 148 166 149
3 149 166 167
3 149 167 150
3 150 167 168
3 150 168 151
3 151 168 169
3 151 169 152
3 152 169 153
3 152 153 136
3 153 170 171
3 153 171 154
3 154 171 172
3 154 172 155
3 155 172 173
3 155 173 156
3 156 173 174
3 156 174 157
3 157 174 175
3 157 175 158
3 158 175 176
3 158 176 159
3 159 176 177
3 159 177 160
3 160 177 178
3 160 178 161
3 161 178 179
3 161 179 162
3 162 179 180
3 162 180 163
3 163 180 181
3 163 181 164
3 164 181 182
3 164 182 165
3 165 182 183
3 165 183 166
3 166 183 184
3 166 184 167
3 167 184 185
3 167 185 168
3 168 185 186
3 168 186 169
3 169 186 170
3 169 170 153
CELL_TYPES 340
5
5
5
5
5
5
5
5
5
5
5
5
5
5
5
5
5
5
5
5
5
5
5
5
5
5
5
5
5
5
5
5
5
5
5
5
5
5
5
5
5
5
5
5
5
5
5
5
5
5
5
5
5
5
5
5
5
5
5
5
5
5
5
5
5
5
5
5
5
5
5
5
5
5
5
5
5
5
5
5
5
5
5
5
5
5
5
5
5
5
5
5
5
5
5
5
5
5
5
5
5
5
5
5
5
5
5
5
5
5
5
5
5
5
5
5
5
5
5
5
5
5
5
5
5
5
5
5
5
5
5
5
5
5
5
5
5
5
5
5
5
5
5
5
5
5
5
5
5
5
5
5
5
5
5
5
5
5
5
5
5
5
5
5
5
5
5
5
5
5
5
5
5
5
5
5
5
5
5
5
5
5
5
5
5
5
5
5
5
5
5
5
5
5
5
5
5
5
5
5
5
5
5
5
5
5
5
5
5
5
5
5
5
5
5
5
5
5
5
5
5
5
5
5
5
5
5
5
5
5
5
5
5
5
5
5
5
5
5
5
5
5
5
5
5
5
5
5
5
5
5
5
5
5
5
5
5
5
5
5
5
5
5
5
5
5
5
5
5
5
5
5
5
5
5
5
5
5
5
5
5
5
5
5
5
5
5
5
5
5
5
5
5
5
5
5
5
5
5
5
5
5
5
5
5
5
5
5
5
5
5
5
5
5
5
5
5
5
5
5
5
5
5
5
5
5
5
5
5
5
5
5
5
5
5
5
5
5
5
5
POINT_DATA 187
SCALARS psi double 1
LOOKUP_TABLE default
0.17925
0.00182919
-0.176546
-0.262768
-0.211829
-0.0503195
0.137456
0.253482
0.237195
0.0970963
-0.093685
-0.235564
-0.254483
-0.140567
0.0467234
0.209625
0.263106
0.208833
0.00300891
-0.204385
-0.305094
-0.246549
-0.05931
0.158888
0.294149
0.27587
0.113591
-0.10798
-0.273187
-0.295796
-0.164004
0.0533946
0.242923
0.305649
0.262128
0.00487186
-0.254927
-0.381659
-0.309171
-0.0753019
0.197874
0.367763
0.345686
0.143168
-0.134082
-0.341343
-0.370429
-0.206158
0.0657241
0.303299
0.382558
0.327837
0.00745426
-0.316819
-0.475719
-0.386302
-0.0952419
0.245533
0.458143
0.431611
0.179786
-0.165884
-0.424966
-0.462223
-0.258208
0.0805872
0.377317
0.477095
0.399266
0.010726
-0.383413
-0.577417
-0.47002
-0.117281
0.296677
0.555775
0.524768
0.219841
-0.199838
-0.515206
-0.561645
-0.314916
0.096194
0.457092
0.579397
0.471261
0.0145929
-0.449692
-0.679246
-0.554246
-0.139939
0.347414
0.653422
0.618356
0.260519
-0.233304
-0.605347
-0.661409
-0.372228
0.11125
0.536657
0.681939
0.539359
0.0189004
-0.511424
-0.774795
-0.633736
-0.161878
0.394477
0.744922
0.706531
0.299344
-0.264096
-0.689682
-0.755267
-0.426616
0.124721
0.610956
0.778282
0.59958
0.0234402
-0.564935
-0.858425
-0.703832
-0.181851
0.435052
0.824866
0.784115
0.334069
-0.290355
-0.763218
-0.837696
-0.474911
0.135769
0.67558
0.86275
0.648423
0.0279614
-0.607095
-0.925259
-0.760454
-0.198706
0.466763
0.88859
0.846589
0.362683
-0.310537
-0.821662
-0.903894
-0.51431
0.143735
0.726753
0.930419
0.682937
0.0321843
-0.635368
-0.971269
-0.800186
-0.211419
0.487704
0.932255
0.890185
0.383454
-0.323433
-0.861493
-0.94987
-0.542432
0.148147
0.761395
0.977209
0.700814
0.0358162
-0.647877
-0.993391
-0.820372
-0.219133
0.496489
0.952952
0.911992
0.394988
-0.328193
-0.880063
-0.972556
-0.557392
0.14872
0.777203
1
VECTORS Et double
0.731028 0.238009 0
0.818993 0.376455 0
0.547857 0.287731 0
0.24981 -0.140889 0
0.208486 -0.64252 0
0.350865 -0.838391 0
0.344265 -0.633773 0
-0.0112584 -0.30646 0
-0.533276 -0.191943 0
-0.830624 -0.315204 0
-0.711696 -0.376793 0
-0.378203 -0.106763 0
-0.192133 0.408847 0
-0.275523 0.794586 0
-0.386549 0.775296 0
-0.20777 0.460548 0
0.275729 0.211264 0
0.636695 0.257425 0
0.807318 0.2963 0
0.657356 0.220229 0
0.39139 -0.108356 0
0.259847 -0.545974 0
0.287392 -0.797332 0
0.26195 -0.717024 0
-0.00568779 -0.452729 0
-0.442756 -0.27358 0
-0.764939 -0.275046 0
-0.764504 -0.287027 0
-0.520397 -0.0851715 0
-0.300136 0.331923 0
-0.263673 0.710742 0
-0.297459 0.795678 0
-0.161111 0.590183 0
0.218714 0.339759 0
0.646905 0.36935 0
0.812263 0.31571 0
0.721667 0.16003 0
0.521588 -0.174662 0
0.386608 -0.566682 0
0.332263 -0.796903 0
0.215935 -0.762571 0
-0.0776587 -0.570617 0
-0.475684 -0.409821 0
-0.763812 -0.344789 0
-0.793163 -0.259679 0
-0.622317 -0.0120013 0
-0.440066 0.377447 0
-0.356218 0.713362 0
-0.292326 0.810504 0
-0.0917953 0.673768 0
0.275812 0.477552 0
0.67584 0.427643 0
0.846682 0.341245 0
0.773358 0.151027 0
0.589403 -0.20153 0
0.450151 -0.595673 0
0.367101 -0.828764 0
0.21447 -0.809265 0
-0.101957 -0.635678 0
-0.50481 -0.476968 0
-0.793976 -0.388432 0
-0.835147 -0.26669 0
-0.683546 0.00849469 0
-0.509093 0.406469 0
-0.40779 0.742608 0
-0.308455 0.848332 0
-0.0764063 0.730422 0
0.304177 0.54676 0
0.703788 0.450635 0
0.882109 0.364973 0
0.80435 0.166824 0
0.613487 -0.204612 0
0.472728 -0.619616 0
0.391126 -0.863656 0
0.233396 -0.842041 0
-0.099634 -0.661146 0
-0.524078 -0.499357 0
-0.827453 -0.41232 0
-0.869374 -0.28796 0
-0.710716 0.00111173 0
-0.531632 0.420565 0
-0.431275 0.773762 0
-0.331302 0.883496 0
-0.0883265 0.759486 0
0.312805 0.569857 0
0.723073 0.444834 0
0.907738 0.383278 0
0.811738 0.197032 0
0.600934 -0.189829 0
0.462425 -0.633246 0
0.40344 -0.890409 0
0.263082 -0.855324 0
-0.078751 -0.652127 0
-0.530999 -0.485961 0
-0.853501 -0.418286 0
-0.887949 -0.315328 0
-0.706473 -0.0245663 0
-0.516785 0.420179 0
-0.431041 0.797275 0
-0.354767 0.90631 0
-0.117178 0.760866 0
0.305014 0.555303 0
0.730409 0.413568 0
0.918994 0.394272 0
0.794896 0.236357 0
0.555814 -0.160331 0
0.423429 -0.634397 0
0.403528 -0.904218 0
0.298619 -0.847188 0
-0.0434865 -0.611794 0
-0.524712 -0.441498 0
-0.867464 -0.407215 0
-0.887796 -0.344618 0
-0.672846 -0.063628 0
-0.46943 0.405841 0
-0.409287 0.809011 0
-0.375706 0.912793 0
-0.157668 0.735292 0
0.282707 0.507754 0
0.724523 0.359536 0
0.914071 0.396953 0
0.754629 0.281319 0
0.481755 -0.118528 0
0.35909 -0.622425 0
0.391354 -0.903069 0
0.336842 -0.817607 0
0.00316884 -0.543265 0
-0.505319 -0.369752 0
-0.867355 -0.380053 0
-0.868144 -0.373212 0
-0.612276 -0.11269 0
-0.393543 0.378454 0
-0.367892 0.807235 0
-0.392237 0.901562 0
-0.206243 0.684411 0
0.247577 0.431131 0
0.705267 0.285665 0
0.892662 0.390899 0
0.69282 0.329108 0
0.382795 -0.0667689 0
0.27294 -0.597602 0
0.367371 -0.886438 0
0.375295 -0.767796 0
0.0584994 -0.450217 0
-0.473602 -0.274686 0
-0.852604 -0.338139 0
-0.829586 -0.39919 0
-0.527929 -0.16882 0
-0.293322 0.339352 0
-0.309036 0.79151 0
-0.403134 0.872693 0
-0.259935 0.610776 0
0.201497 0.329654 0
0.673233 0.195387 0
0.855414 0.376136 0
0.612219 0.377171 0
0.26363 -0.00755793 0
0.169036 -0.560841 0
0.332495 -0.854726 0
0.41185 -0.699878 0
0.119754 -0.337034 0
-0.430869 -0.16081 0
-0.823527 -0.283288 0
-0.773661 -0.421014 0
-0.423735 -0.229161 0
-0.173535 0.290271 0
-0.235391 0.762221 0
-0.407586 0.827218 0
-0.315948 0.517755 0
0.146619 0.208151 0
0.572575 0.0762438 0
0.856356 0.272945 0
0.662734 0.391317 0
0.255482 0.114533 0
0.0648187 -0.44141 0
0.213369 -0.830506 0
0.392214 -0.748152 0
0.222819 -0.351693 0
-0.299008 -0.077082 0
-0.77254 -0.15609 0
-0.812343 -0.369196 0
-0.456702 -0.306748 0
-0.114048 0.153504 0
-0.10829 0.685036 0
-0.327304 0.849698 0
-0.363234 0.563015 0
0.0131008 0.174584 0
