# vtk DataFile Version 3.0
tp3485 scalar+vector
ASCII
DATASET UNSTRUCTURED_GRID
POINTS 187 double
1 0 0
0.932472 0.361242 0
0.739009 0.673696 0
0.445738 0.895163 0
0.0922684 0.995734 0
-0.273663 0.961826 0
-0.602635 0.798017 0
-0.850217 0.526432 0
-0.982973 0.18375 0
-0.982973 -0.18375 0
-0.850217 -0.526432 0
-0.602635 -0.798017 0
-0.273663 -0.961826 0
0.0922684 -0.995734 0
0.445738 -0.895163 0
0.739009 -0.673696 0
0.932472 -0.361242 0
1.3 0 0
1.21221 0.469614 0
0.960712 0.875804 0
0.57946 1.16371 0
0.119949 1.29445 0
-0.355762 1.25037 0
-0.783425 1.03742 0
-1.10528 0.684362 0
-1.27787 0.238874 0
-1.27787 -0.238874 0
-1.10528 -0.684362 0
-0.783425 -1.03742 0
-0.355762 -1.25037 0
0.119949 -1.29445 0
0.57946 -1.16371 0
0.960712 -0.875804 0
1.21221 -0.469614 0
1.6 0 0
1.49196 0.577987 0
1.18241 1.07791 0
0.713181 1.43226 0
0.147629 1.59317 0
-0.437861 1.53892 0
-0.964215 1.27683 0
-1.36035 0.842291 0
-1.57276 0.293999 0
-1.57276 -0.293999 0
-1.36035 -0.842291 0
-0.964215 -1.27683 0
-0.437861 -1.53892 0
0.147629 -1.59317 0
0.713181 -1.43226 0
1.18241 -1.07791 0
1.49196 -0.577987 0
1.9 0 0
1.7717 0.686359 0
1.40412 1.28002 0
0.846903 1.70081 0
0.17531 1.89189 0
-0.51996 1.82747 0
-1.14501 1.51623 0
-1.61541 1.00022 0
-1.86765 0.349124 0
-1.86765 -0.349124 0
-1.61541 -1.00022 0
-1.14501 -1.51623 0
-0.51996 -1.82747 0
0.17531 -1.89189 0
0.846903 -1.70081 0
1.40412 -1.28002 0
1.7717 -0.686359 0
2.2 0 0
2.05144 0.794732 0
1.62582 1.48213 0
0.980624 1.96936 0
0.20299 2.19062 0
-0.602059 2.11602 0
-1.3258 1.75564 0
-1.87048 1.15815 0
-2.16254 0.404249 0
-2.16254 -0.404249 0
-1.87048 -1.15815 0
-1.3258 -1.75564 0
-0.602059 -2.11602 0
0.20299 -2.19062 0
0.980624 -1.96936 0
1.62582 -1.48213 0
2.05144 -0.794732 0
2.5 0 0
2.33118 0.903104 0
1.84752 1.68424 0
1.11435 2.23791 0
0.230671 2.48934 0
-0.684157 2.40456 0
-1.50659 1.99504 0
-2.12554 1.31608 0
-2.45743 0.459374 0
-2.45743 -0.459374 0
-2.12554 -1.31608 0
-1.50659 -1.99504 0
-0.684157 -2.40456 0
0.230671 -2.48934 0
1.11435 -2.23791 0
1.84752 -1.68424 0
2.33118 -0.903104 0
2.8 0 0
2.61092 1.01148 0
2.06922 1.88635 0
1.24807 2.50646 0
0.258351 2.78806 0
-0.766256 2.69311 0
-1.68738 2.23445 0
-2.38061 1.47401 0
-2.75232 0.514499 0
-2.75232 -0.514499 0
-2.38061 -1.47401 0
-1.68738 -2.23445 0
-0.766256 -2.69311 0
0.258351 -2.78806 0
1.24807 -2.50646 0
2.06922 -1.88635 0
2.61092 -1.01148 0
3.1 0 0
2.89066 1.11985 0
2.29093 2.08846 0
1.38179 2.77501 0
0.286032 3.08678 0
-0.848355 2.98166 0
-1.86817 2.47385 0
-2.63567 1.63194 0
-3.04722 0.569624 0
-3.04722 -0.569624 0
-2.63567 -1.63194 0
-1.86817 -2.47385 0
-0.848355 -2.98166 0
0.286032 -3.08678 0
1.38179 -2.77501 0
2.29093 -2.08846 0
2.89066 -1.11985 0
3.4 0 0
3.17041 1.22822 0
2.51263 2.29057 0
1.51551 3.04356 0
0.313712 3.3855 0
-0.930454 3.27021 0
-2.04896 2.71326 0
-2.89074 1.78987 0
-3.34211 0.624748 0
-3.34211 -0.624748 0
-2.89074 -1.78987 0
-2.04896 -2.71326 0
-0.930454 -3.27021 0
0.313712 -3.3855 0
1.51551 -3.04356 0
2.51263 -2.29057 0
3.17041 -1.22822 0
3.7 0 0
3.45015 1.33659 0
2.73433 2.49267 0
1.64923 3.3121 0
0.341393 3.68422 0
-1.01255 3.55875 0
-2.22975 2.95266 0
-3.1458 1.9478 0
-3.637 0.679873 0
-3.637 -0.679873 0
-3.1458 -1.9478 0
-2.22975 -2.95266 0
-1.01255 -3.55875 0
0.341393 -3.68422 0
1.64923 -3.3121 0
2.73433 -2.49267 0
3.45015 -1.33659 0
4 0 0
3.72989 1.44497 0
2.95604 2.69478 0
1.78295 3.58065 0
0.369073 3.98294 0
-1.09465 3.8473 0
-2.41054 3.19207 0
-3.40087 2.10573 0
-3.93189 0.734998 0
-3.93189 -0.734998 0
-3.40087 -2.10573 0
-2.41054 -3.19207 0
-1.09465 -3.8473 0
0.369073 -3.98294 0
1.78295 -3.58065 0
2.95604 -2.69478 0
3.72989 -1.44497 0
CELLS 340 1360
3 0 17 18
3 0 18 1
3 1 18 19
3 1 19 2
3 2 19 20
3 2 20 3
3 3 20 21
3 3 21 4
3 4 21 22
3 4 22 5
3 5 22 23
3 5 23 6
3 6 23 24
3 6 24 7
3 7 24 25
3 7 25 8
3 8 25 26
3 8 26 9
3 9 26 27
3 9 27 10
3 10 27 28
3 10 28 11
3 11 28 29
3 11 29 12
3 12 29 30
3 12 30 13
3 13 30 31
3 13 31 14
3 14 31 32
3 14 32 15
3 15 32 33
3 15 33 16
3 16 33 17
3 16 17 0
3 17 34 35
3 17 35 18
3 18 35 36
3 18 36 19
3 19 36 37
3 19 37 20
3 20 37 38
3 20 38 21
3 21 38 39
3 21 39 22
3 22 39 40
3 22 40 23
3 23 40 41
3 23 41 24
3 24 41 42
3 24 42 25
3 25 42 43
3 25 43 26
3 26 43 44
3 26 44 27
3 27 44 45
3 27 45 28
3 28 45 46
3 28 46 29
3 29 46 47
3 29 47 30
3 30 47 48
3 30 48 31
3 31 48 49
3 31 49 32
3 32 49 50
3 32 50 33
3 33 50 34
3 33 34 17
3 34 51 52
3 34 52 35
3 35 52 53
3 35 53 36
3 36 53 54
3 36 54 37
3 37 54 55
3 37 55 38
3 38 55 56
3 38 56 39
3 39 56 57
3 39 57 40
3 40 57 58
3 40 58 41
3 41 58 59
3 41 59 42
3 42 59 60
3 42 60 43
3 43 60 61
3 43 61 44
3 44 61 62
3 44 62 45
3 45 62 63
3 45 63 46
3 46 63 64
3 46 64 47
3 47 64 65
3 47 65 48
3 48 65 66
3 48 66 49
3 49 66 67
3 49 67 50
3 50 67 51
3 50 51 34
3 51 68 69
3 51 69 52
3 52 69 70
3 52 70 53
3 53 70 71
3 53 71 54
3 54 71 72
3 54 72 55
3 55 72 73
3 55 73 56
3 56 73 74
3 56 74 57
3 57 74 75
3 57 75 58
3 58 75 76
3 58 76 59
3 59 76 77
3 59 77 60
3 60 77 78
3 60 78 61
3 61 78 79
3 61 79 62
3 62 79 80
3 62 80 63
3 63 80 81
3 63 81 64
3 64 81 82
3 64 82 65
3 65 82 83
3 65 83 66
3 66 83 84
3 66 84 67
3 67 84 68
3 67 68 51
3 68 85 86
3 68 86 69
3 69 86 87
3 69 87 70
3 70 87 88
3 70 88 71
3 71 88 89
3 71 89 72
3 72 89 90
3 72 90 73
3 73 90 91
3 73 91 74
3 74 91 92
3 74 92 75
3 75 92 93
3 75 93 76
3 76 93 94
3 76 94 77
3 77 94 95
3 77 95 78
3 78 95 96
3 78 96 79
3 79 96 97
3 79 97 80
3 80 97 98
3 80 98 81
3 81 98 99
3 81 99 82
3 82 99 100
3 82 100 83
3 83 100 101
3 83 101 84
3 84 101 85
3 84 85 68
3 85 102 103
3 85 103 86
3 86 103 104
3 86 104 87
3 87 104 105
3 87 105 88
3 88 105 106
3 88 106 89
3 89 106 107
3 89 107 90
3 90 107 108
3 90 108 91
3 91 108 109
3 91 109 92
3 92 109 110
3 92 110 93
3 93 110 111
3 93 111 94
3 94 111 112
3 94 112 95
3 95 112 113
3 95 113 96
3 96 113 114
3 96 114 97
3 97 114 115
3 97 115 98
3 98 115 116
3 98 116 99
3 99 116 117
3 99 117 100
3 100 117 118
3 100 118 101
3 101 118 102
3 101 102 85
3 102 119 120
3 102 120 103
3 103 120 121
3 103 121 104
3 104 121 122
3 104 122 105
3 105 122 123
3 105 123 106
3 106 123 124
3 106 124 107
3 107 124 125
3 107 125 108
3 108 125 126
3 108 126 109
3 109 126 127
3 109 127 110
3 110 127 128
3 110 128 111
3 111 128 129
3 111 129 112
3 112 129 130
3 112 130 113
3 113 130 131
3 113 131 114
3 114 131 132
3 114 132 115
3 115 132 133
3 115 133 116
3 116 133 134
3 116 134 117
3 117 134 135
3 117 135 118
3 118 135 119
3 118 119 102
3 119 136 137
3 119 137 120
3 120 137 138
3 120 138 121
3 121 138 139
3 121 139 122
3 122 139 140
3 122 140 123
3 123 140 141
3 123 141 124
3 124 141 142
3 124 142 125
3 125 142 143
3 125 143 126
3 126 143 144
3 126 144 127
3 127 144 145
3 127 145 128
3 128 145 146
3 128 146 129
3 129 146 147
3 129 147 130
3 130 147 148
3 130 148 131
3 131 148 149
3 131 149 132
3 132 149 150
3 132 150 133
3 133 150 151
3 133 151 134
3 134 151 152
3 134 152 135
3 135 152 136
3 135 136 119
3 136 153 154
3 136 154 137
3 137 154 155
3 137 155 138
3 138 155 156
3 138 156 139
3 139 156 157
3 139 157 140
3 140 157 158
3 140 158 141
3 141 158 159
3 141 159 142
3 142 159 160
3 142 160 143
3 143 160 161
3 143 161 144
3 144 161 162
3 144 162 145
3 145 162 163
3 145 163 146
3 146 163 164
3 146 164 147
3 147 164 165
3 147 165 148
3 148 165 166
3 148 166 149
3 149 166 167
3 149 167 150
3 150 167 168
3 150 168 151
3 151 168 169
3 151 169 152
3 152 169 153
3 152 153 136
3 153 170 171
3 153 171 154
3 154 171 172
3 154 172 155
3 155 172 173
3 155 173 156
3 156 173 174
3 156 174 157
3 157 174 175
3 157 175 158
3 158 175 176
3 158 176 159
3 159 176 177
3 159 177 160
3 160 177 178
3 160 178 161
3 161 178 179
3 161 179 162
3 162 179 180
3 162 180 163
3 163 180 181
3 163 181 164
3 164 181 182
3 164 182 165
3 165 182 183
3 165 183 166
3 166 183 184
3 166 184 167
3 167 184 185
3 167 185 168
3 168 185 186
3 168 186 169
3 169 186 170
3 169 170 153
CELL_TYPES 340
5
5
5
5
5
5
5
5
5
5
5
5
5
5
5
5
5
5
5
5
5
5
5
5
5
5
5
5
5
5
5
5
5
5
5
5
5
5
5
5
5
5
5
5
5
5
5
5
5
5
5
5
5
5
5
5
5
5
5
5
5
5
5
5
5
5
5
5
5
5
5
5
5
5
5
5
5
5
5
5
5
5
5
5
5
5
5
5
5
5
5
5
5
5
5
5
5
5
5
5
5
5
5
5
5
5
5
5
5
5
5
5
5
5
5
5
5
5
5
5
5
5
5
5
5
5
5
5
5
5
5
5
5
5
5
5
5
5
5
5
5
5
5
5
5
5
5
5
5
5
5
5
5
5
5
5
5
5
5
5
5
5
5
5
5
5
5
5
5
5
5
5
5
5
5
5
5
5
5
5
5
5
5
5
5
5
5
5
5
5
5
5
5
5
5
5
5
5
5
5
5
5
5
5
5
5
5
5
5
5
5
5
5
5
5
5
5
5
5
5
5
5
5
5
5
5
5
5
5
5
5
5
5
5
5
5
5
5
5
5
5
5
5
5
5
5
5
5
5
5
5
5
5
5
5
5
5
5
5
5
5
5
5
5
5
5
5
5
5
5
5
5
5
5
5
5
5
5
5
5
5
5
5
5
5
5
5
5
5
5
5
5
5
5
5
5
5
5
5
5
5
5
5
5
5
5
5
5
5
5
5
5
5
5
5
5
5
5
5
5
5
5
5
5
5
5
5
5
5
5
5
5
5
5
5
5
5
5
5
5
POINT_DATA 187
SCALARS psi double 1
LOOKUP_TABLE default
-0.0411485
-0.00928859
0.0394344
0.0165657
-0.0363774
-0.0232787
0.0320816
0.0291989
-0.0266934
-0.0341248
0.0203961
0.0378886
-0.0134043
-0.0403622
0.00595594
0.0414613
0.00169519
-0.064634
-0.015557
0.0617631
0.0269545
-0.056789
-0.0374342
0.049881
0.0466391
-0.0412744
-0.0542557
0.0312622
0.0600248
-0.0201855
-0.0637497
0.00842131
0.0653038
0.00362964
-0.116681
-0.0298376
0.111175
0.0503535
-0.101883
-0.0691546
0.0891213
0.0856008
-0.0733248
-0.0991319
0.0550314
0.109287
-0.0348639
-0.115721
0.0135091
0.118214
0.00830566
-0.195799
-0.053026
0.186014
0.0873525
-0.169894
-0.118704
0.147989
0.146014
-0.121044
-0.168351
0.0899774
0.184955
-0.0558464
-0.195261
0.0198137
0.198917
0.0168938
-0.300087
-0.085824
0.28425
0.138279
-0.258732
-0.186024
0.224404
0.227435
-0.182434
-0.261101
0.134251
0.285875
-0.0814969
-0.300914
0.0259672
0.305706
0.0304468
-0.424508
-0.127888
0.400908
0.201871
-0.363656
-0.268979
0.314019
0.326927
-0.253689
-0.373742
0.18472
0.407829
-0.109461
-0.428029
0.0304737
0.433652
0.049551
-0.560434
-0.177446
0.527689
0.274824
-0.476974
-0.362843
0.410016
0.438506
-0.329095
-0.499237
0.236968
0.542966
-0.136771
-0.568205
0.0319159
0.574095
0.0740256
-0.69615
-0.231181
0.653488
0.351774
-0.588573
-0.460387
0.503615
0.553323
-0.401506
-0.627415
0.285725
0.680142
-0.160214
-0.709707
0.0292468
0.715105
0.102716
-0.817972
-0.284375
0.765494
0.425637
-0.686948
-0.552404
0.58501
0.66036
-0.463149
-0.745828
0.325516
0.805897
-0.176799
-0.838523
0.0220604
0.842594
0.133429
-0.911778
-0.331294
0.850642
0.488269
-0.760539
-0.628617
0.644536
0.747557
-0.506584
-0.84104
0.351381
0.905883
-0.184213
-0.939877
0.0107708
0.941865
0.163038
-0.964733
-0.365795
0.897231
0.531367
-0.799174
-0.678844
0.673902
0.803204
-0.525682
-0.900211
0.35956
0.966563
-0.181193
-1
-0.00334356
0.999383
0.187766
VECTORS Et double
-0.0384488 -0.0981509 0
-0.169863 -0.075911 0
-0.0618787 0.0740513 0
0.0588053 0.179152 0
0.0937932 0.0217106 0
0.0919288 -0.162024 0
-0.0280681 -0.100985 0
-0.175189 0.038557 0
-0.0800063 0.088494 0
0.135775 0.0994243 0
0.135479 0.0146616 0
-0.0110223 -0.153393 0
-0.081914 -0.129237 0
-0.100674 0.0930851 0
-0.0500598 0.159999 0
0.11783 0.0232279 0
0.163512 -0.0726635 0
0.00144336 -0.152328 0
-0.194664 -0.094924 0
-0.130858 0.0822884 0
0.0519056 0.206731 0
0.147293 0.0663802 0
0.121835 -0.166503 0
-0.0320667 -0.168816 0
-0.196474 0.00978061 0
-0.124493 0.134945 0
0.121367 0.140057 0
0.194461 0.0163359 0
0.0370376 -0.169494 0
-0.115031 -0.169777 0
-0.150035 0.0634228 0
-0.0594141 0.203874 0
0.12979 0.0853288 0
0.197902 -0.0873027 0
0.00725877 -0.251691 0
-0.270788 -0.157931 0
-0.210996 0.135885 0
0.0483522 0.308458 0
0.23523 0.0980281 0
0.206017 -0.227979 0
-0.0571483 -0.256413 0
-0.298577 -0.0182463 0
-0.180673 0.204949 0
0.163607 0.237857 0
0.283888 0.0220953 0
0.0867134 -0.263273 0
-0.162439 -0.247105 0
-0.252927 0.0827931 0
-0.0954715 0.289433 0
0.20697 0.152651 0
0.290983 -0.109511 0
0.0256505 -0.348682 0
-0.368485 -0.233576 0
-0.301698 0.175642 0
0.0513311 0.430973 0
0.32139 0.151034 0
0.297646 -0.305661 0
-0.0641656 -0.360889 0
-0.412869 -0.041014 0
-0.264021 0.275348 0
0.213696 0.338238 0
0.394838 0.046833 0
0.134766 -0.359547 0
-0.21308 -0.353496 0
-0.35492 0.0998848 0
-0.148413 0.398316 0
0.27749 0.223939 0
0.410843 -0.137341 0
0.0536119 -0.435127 0
-0.473685 -0.316017 0
-0.393206 0.199489 0
0.0561985 0.560774 0
0.397265 0.217719 0
0.390106 -0.388331 0
-0.0538915 -0.469349 0
-0.527894 -0.0601884 0
-0.363197 0.337612 0
0.264567 0.434003 0
0.512447 0.0875041 0
0.179215 -0.449751 0
-0.258932 -0.475344 0
-0.448305 0.112578 0
-0.213531 0.515212 0
0.336056 0.293246 0
0.543176 -0.164028 0
0.089007 -0.49854 0
-0.575838 -0.396854 0
-0.474274 0.201787 0
0.0631278 0.684324 0
0.451679 0.292358 0
0.472608 -0.467833 0
-0.0243239 -0.569347 0
-0.63067 -0.072253 0
-0.469297 0.382664 0
0.311131 0.512838 0
0.623965 0.142359 0
0.213447 -0.522508 0
-0.293649 -0.601249 0
-0.5202 0.119304 0
-0.285516 0.628009 0
0.373812 0.351321 0
0.67499 -0.18638 0
0.128994 -0.52677 0
-0.665515 -0.466434 0
-0.533635 0.177759 0
0.0739114 0.788068 0
0.4743 0.368677 0
0.533335 -0.537125 0
0.0254435 -0.648862 0
-0.708365 -0.0723227 0
-0.573009 0.402707 0
0.349319 0.561768 0
0.717422 0.208382 0
0.22987 -0.566803 0
-0.312455 -0.71953 0
-0.557529 0.119368 0
-0.357731 0.725613 0
0.382509 0.388404 0
0.793137 -0.202899 0
0.169922 -0.510544 0
-0.734549 -0.515106 0
-0.561585 0.125217 0
0.0908312 0.859641 0
0.457699 0.439778 0
0.561453 -0.590289 0
0.0939959 -0.697496 0
-0.749923 -0.0557759 0
-0.664689 0.392542 0
0.376079 0.569676 0
0.782403 0.280804 0
0.221775 -0.573882 0
-0.312608 -0.818585 0
-0.549739 0.112998 0
-0.422586 0.798341 0
0.356452 0.396055 0
0.885069 -0.213374 0
0.207622 -0.445218 0
-0.776596 -0.534519 0
-0.551377 0.0453989 0
0.115903 0.88926 0
0.398721 0.498656 0
0.548805 -0.622868 0
0.177242 -0.707723 0
-0.747518 -0.0193892 0
-0.73511 0.350439 0
0.389505 0.529226 0
0.811087 0.353295 0
0.184707 -0.538648 0
-0.293696 -0.887889 0
-0.490734 0.101267 0
-0.472317 0.838732 0
0.293694 0.368607 0
0.940062 -0.218626 0
0.237853 -0.331827 0
-0.787629 -0.518833 0
-0.500271 -0.0568012 0
0.150231 0.870921 0
0.299231 0.538886 0
0.49128 -0.632152 0
0.268588 -0.67586 0
-0.697667 0.0377985 0
-0.776384 0.278516 0
0.388883 0.438252 0
0.799092 0.418557 0
0.117462 -0.460568 0
-0.257641 -0.919084 0
-0.380154 0.0859036 0
-0.499926 0.842224 0
0.19664 0.304224 0
0.950408 -0.220155 0
0.518905 -0.259458 0
-0.70856 -0.401082 0
-0.65346 -0.274092 0
0.159253 0.683031 0
0.280129 0.770939 0
0.339277 -0.46072 0
0.401454 -0.815114 0
-0.437696 -0.00159177 0
-0.921027 0.302467 0
0.14374 0.286699 0
0.89004 0.455883 0
0.209687 -0.170932 0
-0.303145 -0.951952 0
-0.258821 -0.198961 0
-0.448573 0.856239 0
-0.0770354 0.438835 0
0.865834 -0.260189 0
