# vtk DataFile Version 3.0
tp3485 scalar+vector
ASCII
DATASET UNSTRUCTURED_GRID
POINTS 187 double
1 0 0
0.932472 0.361242 0
0.739009 0.673696 0
0.445738 0.895163 0
0.0922684 0.995734 0
-0.273663 0.961826 0
-0.602635 0.798017 0
-0.850217 0.526432 0
-0.982973 0.18375 0
-0.982973 -0.18375 0
-0.850217 -0.526432 0
-0.602635 -0.798017 0
-0.273663 -0.961826 0
0.0922684 -0.995734 0
0.445738 -0.895163 0
0.739009 -0.673696 0
0.932472 -0.361242 0
1.3 0 0
1.21221 0.469614 0
0.960712 0.875804 0
0.57946 1.16371 0
0.119949 1.29445 0
-0.355762 1.25037 0
-0.783425 1.03742 0
-1.10528 0.684362 0
-1.27787 0.238874 0
-1.27787 -0.238874 0
-1.10528 -0.684362 0
-0.783425 -1.03742 0
-0.355762 -1.25037 0
0.119949 -1.29445 0
0.57946 -1.16371 0
0.960712 -0.875804 0
1.21221 -0.469614 0
1.6 0 0
1.49196 0.577987 0
1.18241 1.07791 0
0.713181 1.43226 0
0.147629 1.59317 0
-0.437861 1.53892 0
-0.964215 1.27683 0
-1.36035 0.842291 0
-1.57276 0.293999 0
-1.57276 -0.293999 0
-1.36035 -0.842291 0
-0.964215 -1.27683 0
-0.437861 -1.53892 0
0.147629 -1.59317 0
0.713181 -1.43226 0
1.18241 -1.07791 0
1.49196 -0.577987 0
1.9 0 0
1.7717 0.686359 0
1.40412 1.28002 0
0.846903 1.70081 0
0.17531 1.89189 0
-0.51996 1.82747 0
-1.14501 1.51623 0
-1.61541 1.00022 0
-1.86765 0.349124 0
-1.86765 -0.349124 0
-1.61541 -1.00022 0
-1.14501 -1.51623 0
-0.51996 -1.82747 0
0.17531 -1.89189 0
0.846903 -1.70081 0
1.40412 -1.28002 0
1.7717 -0.686359 0
2.2 0 0
2.05144 0.794732 0
1.62582 1.48213 0
0.980624 1.96936 0
0.20299 2.19062 0
-0.602059 2.11602 0
-1.3258 1.75564 0
-1.87048 1.15815 0
-2.16254 0.404249 0
-2.16254 -0.404249 0
-1.87048 -1.15815 0
-1.3258 -1.75564 0
-0.602059 -2.11602 0
0.20299 -2.19062 0
0.980624 -1.96936 0
1.62582 -1.48213 0
2.05144 -0.794732 0
2.5 0 0
2.33118 0.903104 0
1.84752 1.68424 0
1.11435 2.23791 0
0.230671 2.48934 0
-0.684157 2.40456 0
-1.50659 1.99504 0
-2.12554 1.31608 0
-2.45743 0.459374 0
-2.45743 -0.459374 0
-2.12554 -1.31608 0
-1.50659 -1.99504 0
-0.684157 -2.40456 0
0.230671 -2.48934 0
1.11435 -2.23791 0
1.84752 -1.68424 0
2.33118 -0.903104 0
2.8 0 0
2.61092 1.01148 0
2.06922 1.88635 0
1.24807 2.50646 0
0.258351 2.78806 0
-0.766256 2.69311 0
-1.68738 2.23445 0
-2.38061 1.47401 0
-2.75232 0.514499 0
-2.75232 -0.514499 0
-2.38061 -1.47401 0
-1.68738 -2.23445 0
-0.766256 -2.69311 0
0.258351 -2.78806 0
1.24807 -2.50646 0
2.06922 -1.88635 0
2.61092 -1.01148 0
3.1 0 0
2.89066 1.11985 0
2.29093 2.08846 0
1.38179 2.77501 0
0.286032 3.08678 0
-0.848355 2.98166 0
-1.86817 2.47385 0
-2.63567 1.63194 0
-3.04722 0.569624 0
-3.04722 -0.569624 0
-2.63567 -1.63194 0
-1.86817 -2.47385 0
-0.848355 -2.98166 0
0.286032 -3.08678 0
1.38179 -2.77501 0
2.29093 -2.08846 0
2.89066 -1.11985 0
3.4 0 0
3.17041 1.22822 0
2.51263 2.29057 0
1.51551 3.04356 0
0.313712 3.3855 0
-0.930454 3.27021 0
-2.04896 2.71326 0
-2.89074 1.78987 0
-3.34211 0.624748 0
-3.34211 -0.624748 0
-2.89074 -1.78987 0
-2.04896 -2.71326 0
-0.930454 -3.27021 0
0.313712 -3.3855 0
1.51551 -3.04356 0
2.51263 -2.29057 0
3.17041 -1.22822 0
3.7 0 0
3.45015 1.33659 0
2.73433 2.49267 0
1.64923 3.3121 0
0.341393 3.68422 0
-1.01255 3.55875 0
-2.22975 2.95266 0
-3.1458 1.9478 0
-3.637 0.679873 0
-3.637 -0.679873 0
-3.1458 -1.9478 0
-2.22975 -2.95266 0
-1.01255 -3.55875 0
0.341393 -3.68422 0
1.64923 -3.3121 0
2.73433 -2.49267 0
3.45015 -1.33659 0
4 0 0
3.72989 1.44497 0
2.95604 2.69478 0
1.78295 3.58065 0
0.369073 3.98294 0
-1.09465 3.8473 0
-2.41054 3.19207 0
-3.40087 2.10573 0
-3.93189 0.734998 0
-3.93189 -0.734998 0
-3.40087 -2.10573 0
-2.41054 -3.19207 0
-1.09465 -3.8473 0
0.369073 -3.98294 0
1.78295 -3.58065 0
2.95604 -2.69478 0
3.72989 -1.44497 0
CELLS 340 1360
3 0 17 18
3 0 18 1
3 1 18 19
3 1 19 2
3 2 19 20
3 2 20 3
3 3 20 21
3 3 21 4
3 4 21 22
3 4 22 5
3 5 22 23
3 5 23 6
3 6 23 24
3 6 24 7
3 7 24 25
3 7 25 8
3 8 25 26
3 8 26 9
3 9 26 27
3 9 27 10
3 10 27 28
3 10 28 11
3 11 28 29
3 11 29 12
3 12 29 30
3 12 30 13
3 13 30 31
3 13 31 14
3 14 31 32
3 14 32 15
3 15 32 33
3 15 33 16
3 16 33 17
3 16 17 0
3 17 34 35
3 17 35 18
3 18 35 36
3 18 36 19
3 19 36 37
3 19 37 20
3 20 37 38
3 20 38 21
3 21 38 39
3 21 39 22
3 22 39 40
3 22 40 23
3 23 40 41
3 23 41 24
3 24 41 42
3 24 42 25
3 25 42 43
3 25 43 26
3 26 43 44
3 26 44 27
3 27 44 45
3 27 45 28
3 28 45 46
3 28 46 29
3 29 46 47
3 29 47 30
3 30 47 48
3 30 48 31
3 31 48 49
3 31 49 32
3 32 49 50
3 32 50 33
3 33 50 34
3 33 34 17
3 34 51 52
3 34 52 35
3 35 52 53
3 35 53 36
3 36 53 54
3 36 54 37
3 37 54 55
3 37 55 38
3 38 55 56
3 38 56 39
3 39 56 57
3 39 57 40
3 40 57 58
3 40 58 41
3 41 58 59
3 41 59 42
3 42 59 60
3 42 60 43
3 43 60 61
3 43 61 44
3 44 61 62
3 44 62 45
3 45 62 63
3 45 63 46
3 46 63 64
3 46 64 47
3 47 64 65
3 47 65 48
3 48 65 66
3 48 66 49
3 49 66 67
3 49 67 50
3 50 67 51
3 50 51 34
3 51 68 69
3 51 69 52
3 52 69 70
3 52 70 53
3 53 70 71
3 53 71 54
3 54 71 72
3 54 72 55
3 55 72 73
3 55 73 56
3 56 73 74
3 56 74 57
3 57 74 75
3 57 75 58
3 58 75 76
3 58 76 59
3 59 76 77
3 59 77 60
3 60 77 78
3 60 78 61
3 61 78 79
3 61 79 62
3 62 79 80
3 62 80 63
3 63 80 81
3 63 81 64
3 64 81 82
3 64 82 65
3 65 82 83
3 65 83 66
3 66 83 84
3 66 84 67
3 67 84 68
3 67 68 51
3 68 85 86
3 68 86 69
3 69 86 87
3 69 87 70
3 70 87 88
3 70 88 71
3 71 88 89
3 71 89 72
3 72 89 90
3 72 90 73
3 73 90 91
3 73 91 74
3 74 91 92
3 74 92 75
3 75 92 93
3 75 93 76
3 76 93 94
3 76 94 77
3 77 94 95
3 77 95 78
3 78 95 96
3 78 96 79
3 79 96 97
3 79 97 80
3 80 97 98
3 80 98 81
3 81 98 99
3 81 99 82
3 82 99 100
3 82 100 83
3 83 100 101
3 83 101 84
3 84 101 85
3 84 85 68
3 85 102 103
3 85 103 86
3 86 103 104
3 86 104 87
3 87 104 105
3 87 105 88
3 88 105 106
3 88 106 89
3 89 106 107
3 89 107 90
3 90 107 108
3 90 108 91
3 91 108 109
3 91 109 92
3 92 109 110
3 92 110 93
3 93 110 111
3 93 111 94
3 94 111 112
3 94 112 95
3 95 112 113
3 95 113 96
3 96 113 114
3 96 114 97
3 97 114 115
3 97 115 98
3 98 115 116
3 98 116 99
3 99 116 117
3 99 117 100
3 100 117 118
3 100 118 101
3 101 118 102
3 101 102 85
3 102 119 120
3 102 120 103
3 103 120 121
3 103 121 104
3 104 121 122
3 104 122 105
3 105 122 123
3 105 123 106
3 106 123 124
3 106 124 107
3 107 124 125
3 107 125 108
3 108 125 126
3 108 126 109
3 109 126 127
3 109 127 110
3 110 127 128
3 110 128 111
3 111 128 129
3 111 129 112
3 112 129 130
3 112 130 113
3 113 130 131
3 113 131 114
3 114 131 132
3 114 132 115
3 115 132 133
3 115 133 116
3 116 133 134
3 116 134 117
3 117 134 135
3 117 135 118
3 118 135 119
3 118 119 102
3 119 136 137
3 119 137 120
3 120 137 138
3 120 138 121
3 121 138 139
3 121 139 122
3 122 139 140
3 122 140 123
3 123 140 141
3 123 141 124
3 124 141 142
3 124 142 125
3 125 142 143
3 125 143 126
3 126 143 144
3 126 144 127
3 127 144 145
3 127 145 128
3 128 145 146
3 128 146 129
3 129 146 147
3 129 147 130
3 130 147 148
3 130 148 131
3 131 148 149
3 131 149 132
3 132 149 150
3 132 150 133
3 133 150 151
3 133 151 134
3 134 151 152
3 134 152 135
3 135 152 136
3 135 136 119
3 136 153 154
3 136 154 137
3 137 154 155
3 137 155 138
3 138 155 156
3 138 156 139
3 139 156 157
3 139 157 140
3 140 157 158
3 140 158 141
3 141 158 159
3 141 159 142
3 142 159 160
3 142 160 143
3 143 160 161
3 143 161 144
3 144 161 162
3 144 162 145
3 145 162 163
3 145 163 146
3 146 163 164
3 146 164 147
3 147 164 165
3 147 165 148
3 148 165 166
3 148 166 149
3 149 166 167
3 149 167 150
3 150 167 168
3 150 168 151
3 151 168 169
3 151 169 152
3 152 169 153
3 152 153 136
3 153 170 171
3 153 171 154
3 154 171 172
3 154 172 155
3 155 172 173
3 155 173 156
3 156 173 174
3 156 174 157
3 157 174 175
3 157 175 158
3 158 175 176
3 158 176 159
3 159 176 177
3 159 177 160
3 160 177 178
3 160 178 161
3 161 178 179
3 161 179 162
3 162 179 180
3 162 180 163
3 163 180 181
3 163 181 164
3 164 181 182
3 164 182 165
3 165 182 183
3 165 183 166
3 166 183 184
3 166 184 167
3 167 184 185
3 167 185 168
3 168 185 186
3 168 186 169
3 169 186 170
3 169 170 153
CELL_TYPES 340
5
5
5
5
5
5
5
5
5
5
5
5
5
5
5
5
5
5
5
5
5
5
5
5
5
5
5
5
5
5
5
5
5
5
5
5
5
5
5
5
5
5
5
5
5
5
5
5
5
5
5
5
5
5
5
5
5
5
5
5
5
5
5
5
5
5
5
5
5
5
5
5
5
5
5
5
5
5
5
5
5
5
5
5
5
5
5
5
5
5
5
5
5
5
5
5
5
5
5
5
5
5
5
5
5
5
5
5
5
5
5
5
5
5
5
5
5
5
5
5
5
5
5
5
5
5
5
5
5
5
5
5
5
5
5
5
5
5
5
5
5
5
5
5
5
5
5
5
5
5
5
5
5
5
5
5
5
5
5
5
5
5
5
5
5
5
5
5
5
5
5
5
5
5
5
5
5
5
5
5
5
5
5
5
5
5
5
5
5
5
5
5
5
5
5
5
5
5
5
5
5
5
5
5
5
5
5
5
5
5
5
5
5
5
5
5
5
5
5
5
5
5
5
5
5
5
5
5
5
5
5
5
5
5
5
5
5
5
5
5
5
5
5
5
5
5
5
5
5
5
5
5
5
5
5
5
5
5
5
5
5
5
5
5
5
5
5
5
5
5
5
5
5
5
5
5
5
5
5
5
5
5
5
5
5
5
5
5
5
5
5
5
5
5
5
5
5
5
5
5
5
5
5
5
5
5
5
5
5
5
5
5
5
5
5
5
5
5
5
5
5
5
5
5
5
5
5
5
5
5
5
5
5
5
5
5
5
5
5
5
POINT_DATA 187
SCALARS psi double 1
LOOKUP_TABLE default
0.356452
0.671324
0.89553
0.998789
0.967157
0.804905
0.533946
0.190874
-0.177976
-0.522789
-0.796997
-0.963566
-1
-0.901378
-0.681021
-0.368688
-0.00656092
0.345255
0.654556
0.875454
0.978118
0.948682
0.791121
0.526715
0.191172
-0.170189
-0.508565
-0.778256
-0.94284
-0.980088
-0.88497
-0.670331
-0.365161
-0.0106737
0.308692
0.589188
0.79011
0.884324
0.859106
0.71786
0.479663
0.176685
-0.150155
-0.456716
-0.701595
-0.85172
-0.886815
-0.802141
-0.609133
-0.333859
-0.0134948
0.248871
0.47827
0.643077
0.721032
0.701609
0.587429
0.393913
0.147197
-0.119398
-0.369868
-0.570385
-0.693869
-0.723642
-0.655683
-0.49917
-0.275242
-0.0141405
0.172094
0.333033
0.448994
0.504316
0.491527
0.412355
0.277492
0.105152
-0.0813894
-0.256939
-0.397787
-0.484912
-0.506547
-0.45977
-0.350898
-0.194636
-0.0120871
0.0869683
0.169494
0.229129
0.257819
0.251689
0.211567
0.142871
0.0548804
-0.0405224
-0.130453
-0.202764
-0.247692
-0.259167
-0.23564
-0.180289
-0.100589
-0.00730335
0.00292337
0.00573858
0.00777876
0.00876838
0.00857378
0.00722124
0.00489343
0.00190474
-0.00134119
-0.00440599
-0.00687574
-0.00841688
-0.00882127
-0.00803431
-0.00616226
-0.00345797
-0.000286657
-0.0710954
-0.140586
-0.19109
-0.215786
-0.211339
-0.17835
-0.121273
-0.0478179
0.0320955
0.107674
0.168711
0.206962
0.217262
0.19822
0.152407
0.0860101
0.00799739
-0.127743
-0.254494
-0.346874
-0.392407
-0.384943
-0.32549
-0.222078
-0.0886732
0.0567074
0.194429
0.305893
0.376043
0.395407
0.361369
0.278526
0.158067
0.0162598
-0.162112
-0.325424
-0.444786
-0.504077
-0.495289
-0.419611
-0.287261
-0.116115
0.0707127
0.24799
0.391776
0.482649
0.508339
0.465374
0.359558
0.205182
0.0230945
-0.172207
-0.34837
-0.477484
-0.542112
-0.533524
-0.45288
-0.311073
-0.127254
0.0737522
0.264797
0.42008
0.518629
0.547134
0.501745
0.388593
0.22296
0.027214
VECTORS Et double
-0.90251 -0.154843 0
-0.595643 -0.38338 0
-0.214901 -0.345536 0
0.0409758 -0.0610642 0
0.0384235 0.321545 0
-0.221225 0.602578 0
-0.602438 0.635339 0
-0.906229 0.402729 0
-0.974025 0.0261648 0
-0.770437 -0.297793 0
-0.401734 -0.400044 0
-0.0603739 -0.227216 0
0.0754607 0.130479 0
-0.0651337 0.48633 0
-0.408769 0.654589 0
-0.776075 0.547428 0
-0.975323 0.220783 0
-0.757749 -0.099533 0
-0.503874 -0.362971 0
-0.13878 -0.38662 0
0.146959 -0.158134 0
0.204194 0.20322 0
0.00304741 0.508822 0
-0.351484 0.599154 0
-0.674343 0.427063 0
-0.797001 0.0823784 0
-0.655434 -0.254981 0
-0.323537 -0.40892 0
0.0254453 -0.299084 0
0.209351 0.0171932 0
0.132184 0.374821 0
-0.165776 0.587125 0
-0.528998 0.543285 0
-0.767888 0.266185 0
-0.550054 -0.188411 0
-0.288064 -0.464826 0
0.0917686 -0.492597 0
0.391178 -0.257229 0
0.453877 0.118421 0
0.247139 0.43827 0
-0.121124 0.535362 0
-0.458683 0.359018 0
-0.589341 0.00128479 0
-0.444894 -0.351106 0
-0.100743 -0.514213 0
0.263472 -0.402898 0
0.457638 -0.0752644 0
0.380403 0.297668 0
0.0720824 0.521236 0
-0.306386 0.47874 0
-0.557448 0.192363 0
-0.37056 -0.258911 0
-0.103551 -0.547791 0
0.288388 -0.581394 0
0.600672 -0.342179 0
0.670294 0.0449876 0
0.460914 0.378011 0
0.0818228 0.48306 0
-0.2691 0.3053 0
-0.408678 -0.0624805 0
-0.264056 -0.428308 0
0.0892774 -0.601226 0
0.466888 -0.490974 0
0.67167 -0.155103 0
0.59673 0.23107 0
0.281187 0.465968 0
-0.110253 0.42698 0
-0.373264 0.134456 0
-0.215805 -0.300449 0
0.0442161 -0.589972 0
0.431424 -0.628757 0
0.743704 -0.396559 0
0.81805 -0.0145814 0
0.615657 0.317791 0
0.242168 0.427065 0
-0.10746 0.256201 0
-0.250729 -0.105611 0
-0.112855 -0.469514 0
0.234195 -0.645555 0
0.609267 -0.541846 0
0.816579 -0.212519 0
0.747919 0.170522 0
0.439126 0.407336 0
0.0513839 0.374311 0
-0.212912 0.0886859 0
-0.0872338 -0.30823 0
0.14996 -0.580869 0
0.508925 -0.622556 0
0.802287 -0.411529 0
0.876916 -0.0579422 0
0.693858 0.253639 0
0.348665 0.360575 0
0.0215226 0.207047 0
-0.116808 -0.126806 0
0.00588079 -0.466719 0
0.325547 -0.635264 0
0.67533 -0.544462 0
0.87265 -0.241711 0
0.81451 0.114958 0
0.531257 0.339371 0
0.170744 0.314388 0
-0.0788465 0.0530496 0
0.0130728 -0.282457 0
0.211307 -0.518953 0
0.517131 -0.560176 0
0.770909 -0.384608 0
0.840174 -0.0838927 0
0.688771 0.185002 0
0.395729 0.281718 0
0.114012 0.155771 0
-0.00933026 -0.127096 0
0.0900856 -0.419233 0
0.360366 -0.568148 0
0.660429 -0.496112 0
0.833648 -0.240724 0
0.789605 0.0647058 0
0.55129 0.26075 0
0.243099 0.245076 0
0.0259022 0.025866 0
0.0840697 -0.227675 0
0.229724 -0.41037 0
0.460444 -0.447257 0
0.655798 -0.319081 0
0.713816 -0.0927483 0
0.604212 0.113599 0
0.384198 0.192253 0
0.168618 0.102156 0
0.0699995 -0.109662 0
0.139821 -0.332636 0
0.341636 -0.450378 0
0.570101 -0.401428 0
0.705962 -0.211337 0
0.6783 0.0206698 0
0.501556 0.17349 0
0.267987 0.167354 0
0.0995107 0.00546413 0
0.126403 -0.151858 0
0.210512 -0.267468 0
0.350555 -0.296242 0
0.473432 -0.223159 0
0.515005 -0.0863684 0
0.453572 0.0427283 0
0.3212 0.0967448 0
0.186986 0.0474854 0
0.120986 -0.0793373 0
0.157652 -0.217524 0
0.277844 -0.294944 0
0.418824 -0.271185 0
0.507004 -0.158649 0
0.496354 -0.0160781 0
0.392435 0.0821088 0
0.249489 0.0846596 0
0.142133 -0.00975717 0
0.142541 -0.065184 0
0.162174 -0.106853 0
0.204754 -0.12442 0
0.248057 -0.108716 0
0.269478 -0.0679381 0
0.257837 -0.0233712 0
0.219209 0.00172137 0
0.173758 -0.0057584 0
0.145208 -0.0419062 0
0.148463 -0.0878534 0
0.181822 -0.119617 0
0.227873 -0.120616 0
0.262579 -0.0903294 0
0.267823 -0.0445666 0
0.240868 -0.0072145 0
0.195784 0.00222962 0
0.156105 -0.0211639 0
0.146081 -0.0386038 0
0.141982 -0.0372849 0
0.138064 -0.0390719 0
0.136373 -0.0430318 0
0.137791 -0.0470979 0
0.141578 -0.0491475 0
0.145757 -0.0481109 0
0.148147 -0.0445291 0
0.147501 -0.0402718 0
0.144155 -0.0375612 0
0.139856 -0.0378122 0
0.136848 -0.0408938 0
0.136702 -0.0451974 0
0.139492 -0.0484766 0
0.143764 -0.0490198 0
0.147287 -0.0465434 0
0.148222 -0.0423401 0
