# vtk DataFile Version 3.0
tp3485 scalar+vector
ASCII
DATASET UNSTRUCTURED_GRID
POINTS 187 double
1 0 0
0.932472 0.361242 0
0.739009 0.673696 0
0.445738 0.895163 0
0.0922684 0.995734 0
-0.273663 0.961826 0
-0.602635 0.798017 0
-0.850217 0.526432 0
-0.982973 0.18375 0
-0.982973 -0.18375 0
-0.850217 -0.526432 0
-0.602635 -0.798017 0
-0.273663 -0.961826 0
0.0922684 -0.995734 0
0.445738 -0.895163 0
0.739009 -0.673696 0
0.932472 -0.361242 0
1.3 0 0
1.21221 0.469614 0
0.960712 0.875804 0
0.57946 1.16371 0
0.119949 1.29445 0
-0.355762 1.25037 0
-0.783425 1.03742 0
-1.10528 0.684362 0
-1.27787 0.238874 0
-1.27787 -0.238874 0
-1.10528 -0.684362 0
-0.783425 -1.03742 0
-0.355762 -1.25037 0
0.119949 -1.29445 0
0.57946 -1.16371 0
0.960712 -0.875804 0
1.21221 -0.469614 0
1.6 0 0
1.49196 0.577987 0
1.18241 1.07791 0
0.713181 1.43226 0
0.147629 1.59317 0
-0.437861 1.53892 0
-0.964215 1.27683 0
-1.36035 0.842291 0
-1.57276 0.293999 0
-1.57276 -0.293999 0
-1.36035 -0.842291 0
-0.964215 -1.27683 0
-0.437861 -1.53892 0
0.147629 -1.59317 0
0.713181 -1.43226 0
1.18241 -1.07791 0
1.49196 -0.577987 0
1.9 0 0
1.7717 0.686359 0
1.40412 1.28002 0
0.846903 1.70081 0
0.17531 1.89189 0
-0.51996 1.82747 0
-1.14501 1.51623 0
-1.61541 1.00022 0
-1.86765 0.349124 0
-1.86765 -0.349124 0
-1.61541 -1.00022 0
-1.14501 -1.51623 0
-0.51996 -1.82747 0
0.17531 -1.89189 0
0.846903 -1.70081 0
1.40412 -1.28002 0
1.7717 -0.686359 0
2.2 0 0
2.05144 0.794732 0
1.62582 1.48213 0
0.980624 1.96936 0
0.20299 2.19062 0
-0.602059 2.11602 0
-1.3258 1.75564 0
-1.87048 1.15815 0
-2.16254 0.404249 0
-2.16254 -0.404249 0
-1.87048 -1.15815 0
-1.3258 -1.75564 0
-0.602059 -2.11602 0
0.20299 -2.19062 0
0.980624 -1.96936 0
1.62582 -1.48213 0
2.05144 -0.794732 0
2.5 0 0
2.33118 0.903104 0
1.84752 1.68424 0
1.11435 2.23791 0
0.230671 2.48934 0
-0.684157 2.40456 0
-1.50659 1.99504 0
-2.12554 1.31608 0
-2.45743 0.459374 0
-2.45743 -0.459374 0
-2.12554 -1.31608 0
-1.50659 -1.99504 0
-0.684157 -2.40456 0
0.230671 -2.48934 0
1.11435 -2.23791 0
1.84752 -1.68424 0
2.33118 -0.903104 0
2.8 0 0
2.61092 1.01148 0
2.06922 1.88635 0
1.24807 2.50646 0
0.258351 2.78806 0
-0.766256 2.69311 0
-1.68738 2.23445 0
-2.38061 1.47401 0
-2.75232 0.514499 0
-2.75232 -0.514499 0
-2.38061 -1.47401 0
-1.68738 -2.23445 0
-0.766256 -2.69311 0
0.258351 -2.78806 0
1.24807 -2.50646 0
2.06922 -1.88635 0
2.61092 -1.01148 0
3.1 0 0
2.89066 1.11985 0
2.29093 2.08846 0
1.38179 2.77501 0
0.286032 3.08678 0
-0.848355 2.98166 0
-1.86817 2.47385 0
-2.63567 1.63194 0
-3.04722 0.569624 0
-3.04722 -0.569624 0
-2.63567 -1.63194 0
-1.86817 -2.47385 0
-0.848355 -2.98166 0
0.286032 -3.08678 0
1.38179 -2.77501 0
2.29093 -2.08846 0
2.89066 -1.11985 0
3.4 0 0
3.17041 1.22822 0
2.51263 2.29057 0
1.51551 3.04356 0
0.313712 3.3855 0
-0.930454 3.27021 0
-2.04896 2.71326 0
-2.89074 1.78987 0
-3.34211 0.624748 0
-3.34211 -0.624748 0
-2.89074 -1.78987 0
-2.04896 -2.71326 0
-0.930454 -3.27021 0
0.313712 -3.3855 0
1.51551 -3.04356 0
2.51263 -2.29057 0
3.17041 -1.22822 0
3.7 0 0
3.45015 1.33659 0
2.73433 2.49267 0
1.64923 3.3121 0
0.341393 3.68422 0
-1.01255 3.55875 0
-2.22975 2.95266 0
-3.1458 1.9478 0
-3.637 0.679873 0
-3.637 -0.679873 0
-3.1458 -1.9478 0
-2.22975 -2.95266 0
-1.01255 -3.55875 0
0.341393 -3.68422 0
1.64923 -3.3121 0
2.73433 -2.49267 0
3.45015 -1.33659 0
4 0 0
3.72989 1.44497 0
2.95604 2.69478 0
1.78295 3.58065 0
0.369073 3.98294 0
-1.09465 3.8473 0
-2.41054 3.19207 0
-3.40087 2.10573 0
-3.93189 0.734998 0
-3.93189 -0.734998 0
-3.40087 -2.10573 0
-2.41054 -3.19207 0
-1.09465 -3.8473 0
0.369073 -3.98294 0
1.78295 -3.58065 0
2.95604 -2.69478 0
3.72989 -1.44497 0
CELLS 340 1360
3 0 17 18
3 0 18 1
3 1 18 19
3 1 19 2
3 2 19 20
3 2 20 3
3 3 20 21
3 3 21 4
3 4 21 22
3 4 22 5
3 5 22 23
3 5 23 6
3 6 23 24
3 6 24 7
3 7 24 25
3 7 25 8
3 8 25 26
3 8 26 9
3 9 26 27
3 9 27 10
3 10 27 28
3 10 28 11
3 11 28 29
3 11 29 12
3 12 29 30
3 12 30 13
3 13 30 31
3 13 31 14
3 14 31 32
3 14 32 15
3 15 32 33
3 15 33 16
3 16 33 17
3 16 17 0
3 17 34 35
3 17 35 18
3 18 35 36
3 18 36 19
3 19 36 37
3 19 37 20
3 20 37 38
3 20 38 21
3 21 38 39
3 21 39 22
3 22 39 40
3 22 40 23
3 23 40 41
3 23 41 24
3 24 41 42
3 24 42 25
3 25 42 43
3 25 43 26
3 26 43 44
3 26 44 27
3 27 44 45
3 27 45 28
3 28 45 46
3 28 46 29
3 29 46 47
3 29 47 30
3 30 47 48
3 30 48 31
3 31 48 49
3 31 49 32
3 32 49 50
3 32 50 33
3 33 50 34
3 33 34 17
3 34 51 52
3 34 52 35
3 35 52 53
3 35 53 36
3 36 53 54
3 36 54 37
3 37 54 55
3 37 55 38
3 38 55 56
3 38 56 39
3 39 56 57
3 39 57 40
3 40 57 58
3 40 58 41
3 41 58 59
3 41 59 42
3 42 59 60
3 42 60 43
3 43 60 61
3 43 61 44
3 44 61 62
3 44 62 45
3 45 62 63
3 45 63 46
3 46 63 64
3 46 64 47
3 47 64 65
3 47 65 48
3 48 65 66
3 48 66 49
3 49 66 67
3 49 67 50
3 50 67 51
3 50 51 34
3 51 68 69
3 51 69 52
3 52 69 70
3 52 70 53
3 53 70 71
3 53 71 54
3 54 71 72
3 54 72 55
3 55 72 73
3 55 73 56
3 56 73 74
3 56 74 57
3 57 74 75
3 57 75 58
3 58 75 76
3 58 76 59
3 59 76 77
3 59 77 60
3 60 77 78
3 60 78 61
3 61 78 79
3 61 79 62
3 62 79 80
3 62 80 63
3 63 80 81
3 63 81 64
3 64 81 82
3 64 82 65
3 65 82 83
3 65 83 66
3 66 83 84
3 66 84 67
3 67 84 68
3 67 68 51
3 68 85 86
3 68 86 69
3 69 86 87
3 69 87 70
3 70 87 88
3 70 88 71
3 71 88 89
3 71 89 72
3 72 89 90
3 72 90 73
3 73 90 91
3 73 91 74
3 74 91 92
3 74 92 75
3 75 92 93
3 75 93 76
3 76 93 94
3 76 94 77
3 77 94 95
3 77 95 78
3 78 95 96
3 78 96 79
3 79 96 97
3 79 97 80
3 80 97 98
3 80 98 81
3 81 98 99
3 81 99 82
3 82 99 100
3 82 100 83
3 83 100 101
3 83 101 84
3 84 101 85
3 84 85 68
3 85 102 103
3 85 103 86
3 86 103 104
3 86 104 87
3 87 104 105
3 87 105 88
3 88 105 106
3 88 106 89
3 89 106 107
3 89 107 90
3 90 107 108
3 90 108 91
3 91 108 109
3 91 109 92
3 92 109 110
3 92 110 93
3 93 110 111
3 93 111 94
3 94 111 112
3 94 112 95
3 95 112 113
3 95 113 96
3 96 113 114
3 96 114 97
3 97 114 115
3 97 115 98
3 98 115 116
3 98 116 99
3 99 116 117
3 99 117 100
3 100 117 118
3 100 118 101
3 101 118 102
3 101 102 85
3 102 119 120
3 102 120 103
3 103 120 121
3 103 121 104
3 104 121 122
3 104 122 105
3 105 122 123
3 105 123 106
3 106 123 124
3 106 124 107
3 107 124 125
3 107 125 108
3 108 125 126
3 108 126 109
3 109 126 127
3 109 127 110
3 110 127 128
3 110 128 111
3 111 128 129
3 111 129 112
3 112 129 130
3 112 130 113
3 113 130 131
3 113 131 114
3 114 131 132
3 114 132 115
3 115 132 133
3 115 133 116
3 116 133 134
3 116 134 117
3 117 134 135
3 117 135 118
3 118 135 119
3 118 119 102
3 119 136 137
3 119 137 120
3 120 137 138
3 120 138 121
3 121 138 139
3 121 139 122
3 122 139 140
3 122 140 123
3 123 140 141
3 123 141 124
3 124 141 142
3 124 142 125
3 125 142 143
3 125 143 126
3 126 143 144
3 126 144 127
3 127 144 145
3 127 145 128
3 128 145 146
3 128 146 129
3 129 146 147
3 129 147 130
3 130 147 148
3 130 148 131
3 131 148 149
3 131 149 132
3 132 149 150
3 132 150 133
3 133 150 151
3 133 151 134
3 134 151 152
3 134 152 135
3 135 152 136
3 135 136 119
3 136 153 154
3 136 154 137
3 137 154 155
3 137 155 138
3 138 155 156
3 138 156 139
3 139 156 157
3 139 157 140
3 140 157 158
3 140 158 141
3 141 158 159
3 141 159 142
3 142 159 160
3 142 160 143
3 143 160 161
3 143 161 144
3 144 161 162
3 144 162 145
3 145 162 163
3 145 163 146
3 146 163 164
3 146 164 147
3 147 164 165
3 147 165 148
3 148 165 166
3 148 166 149
3 149 166 167
3 149 167 150
3 150 167 168
3 150 168 151
3 151 168 169
3 151 169 152
3 152 169 153
3 152 153 136
3 153 170 171
3 153 171 154
3 154 171 172
3 154 172 155
3 155 172 173
3 155 173 156
3 156 173 174
3 156 174 157
3 157 174 175
3 157 175 158
3 158 175 176
3 158 176 159
3 159 176 177
3 159 177 160
3 160 177 178
3 160 178 161
3 161 178 179
3 161 179 162
3 162 179 180
3 162 180 163
3 163 180 181
3 163 181 164
3 164 181 182
3 164 182 165
3 165 182 183
3 165 183 166
3 166 183 184
3 166 184 167
3 167 184 185
3 167 185 168
3 168 185 186
3 168 186 169
3 169 186 170
3 169 170 153
CELL_TYPES 340
5
5
5
5
5
5
5
5
5
5
5
5
5
5
5
5
5
5
5
5
5
5
5
5
5
5
5
5
5
5
5
5
5
5
5
5
5
5
5
5
5
5
5
5
5
5
5
5
5
5
5
5
5
5
5
5
5
5
5
5
5
5
5
5
5
5
5
5
5
5
5
5
5
5
5
5
5
5
5
5
5
5
5
5
5
5
5
5
5
5
5
5
5
5
5
5
5
5
5
5
5
5
5
5
5
5
5
5
5
5
5
5
5
5
5
5
5
5
5
5
5
5
5
5
5
5
5
5
5
5
5
5
5
5
5
5
5
5
5
5
5
5
5
5
5
5
5
5
5
5
5
5
5
5
5
5
5
5
5
5
5
5
5
5
5
5
5
5
5
5
5
5
5
5
5
5
5
5
5
5
5
5
5
5
5
5
5
5
5
5
5
5
5
5
5
5
5
5
5
5
5
5
5
5
5
5
5
5
5
5
5
5
5
5
5
5
5
5
5
5
5
5
5
5
5
5
5
5
5
5
5
5
5
5
5
5
5
5
5
5
5
5
5
5
5
5
5
5
5
5
5
5
5
5
5
5
5
5
5
5
5
5
5
5
5
5
5
5
5
5
5
5
5
5
5
5
5
5
5
5
5
5
5
5
5
5
5
5
5
5
5
5
5
5
5
5
5
5
5
5
5
5
5
5
5
5
5
5
5
5
5
5
5
5
5
5
5
5
5
5
5
5
5
5
5
5
5
5
5
5
5
5
5
5
5
5
5
5
5
5
POINT_DATA 187
SCALARS psi double 1
LOOKUP_TABLE default
-0.595604
-0.45329
-0.249755
-0.0124904
0.226462
0.434829
0.58447
0.655175
0.637395
0.533531
0.357612
0.133394
-0.108839
-0.336372
-0.518477
-0.630559
-0.65748
-0.619961
-0.471953
-0.260205
-0.0133141
0.235374
0.452274
0.608092
0.681784
0.663397
0.555414
0.37242
0.139128
-0.112953
-0.34978
-0.539367
-0.65611
-0.684241
-0.660539
-0.502977
-0.277486
-0.0145188
0.250409
0.481518
0.647595
0.726211
0.706748
0.591835
0.396991
0.148531
-0.119988
-0.372303
-0.574336
-0.698802
-0.728891
-0.706353
-0.538007
-0.297
-0.0158821
0.267381
0.514533
0.692195
0.776371
0.755695
0.632957
0.424736
0.159151
-0.127928
-0.397729
-0.613815
-0.747002
-0.779302
-0.751999
-0.572927
-0.316478
-0.0172875
0.284238
0.547376
0.736587
0.826319
0.804451
0.673938
0.452406
0.169774
-0.135787
-0.42301
-0.653102
-0.794989
-0.829509
-0.794391
-0.605386
-0.33462
-0.0186623
0.299816
0.577803
0.777754
0.872665
0.849718
0.712012
0.478144
0.179701
-0.143012
-0.44641
-0.689519
-0.839504
-0.876109
-0.831582
-0.633897
-0.350601
-0.0199549
0.313387
0.604404
0.813793
0.913274
0.889413
0.745432
0.500776
0.188488
-0.149257
-0.466844
-0.721381
-0.878491
-0.916957
-0.862262
-0.65746
-0.363863
-0.0211252
0.324466
0.626236
0.84343
0.946714
0.922138
0.773023
0.519507
0.195829
-0.154298
-0.483585
-0.747562
-0.910576
-0.950612
-0.885528
-0.675379
-0.374017
-0.0221408
0.332725
0.642655
0.86579
0.971996
0.946928
0.793973
0.533787
0.20151
-0.157982
-0.496138
-0.767287
-0.93481
-0.976082
-0.90076
-0.687179
-0.380791
-0.0229748
0.337944
0.653222
0.880279
0.988449
0.963124
0.807723
0.543235
0.20538
-0.160213
-0.504168
-0.780032
-0.950549
-0.992689
-0.907562
-0.692552
-0.38401
-0.0236046
0.339988
0.657664
0.886519
0.995644
0.970302
0.813915
0.547605
0.207337
-0.160932
-0.507467
-0.785466
-0.957383
-1
VECTORS Et double
-0.470986 -0.197686 0
-0.634964 -0.452672 0
-0.584362 -0.751579 0
-0.345594 -0.938384 0
-0.0432928 -0.915578 0
0.164746 -0.695065 0
0.16993 -0.391949 0
-0.0304473 -0.164451 0
-0.331792 -0.131321 0
-0.576808 -0.309853 0
-0.6376 -0.606855 0
-0.482438 -0.867298 0
-0.192312 -0.955236 0
0.0813371 -0.824766 0
0.195669 -0.543991 0
0.0910046 -0.259471 0
-0.178023 -0.119721 0
-0.369271 -0.195188 0
-0.532785 -0.363927 0
-0.539945 -0.598786 0
-0.387012 -0.777172 0
-0.153816 -0.805971 0
0.0379195 -0.67015 0
0.0881122 -0.440606 0
-0.0294377 -0.237156 0
-0.253371 -0.165998 0
-0.466799 -0.264275 0
-0.558316 -0.480687 0
-0.480151 -0.702273 0
-0.273106 -0.813367 0
-0.0452537 -0.755981 0
0.0844705 -0.560069 0
0.0483529 -0.327894 0
-0.134754 -0.180647 0
-0.320602 -0.250259 0
-0.438842 -0.374334 0
-0.442634 -0.545684 0
-0.329999 -0.674869 0
-0.159729 -0.694455 0
-0.0207031 -0.594219 0
0.0145099 -0.426483 0
-0.0724704 -0.278801 0
-0.236242 -0.228262 0
-0.391319 -0.301245 0
-0.456754 -0.459655 0
-0.398391 -0.620804 0
-0.246694 -0.700576 0
-0.0808474 -0.657331 0
0.0125811 -0.513642 0
-0.015177 -0.344512 0
-0.149633 -0.238225 0
-0.289148 -0.262408 0
-0.38493 -0.364335 0
-0.387047 -0.504188 0
-0.294392 -0.608966 0
-0.155331 -0.623978 0
-0.0424506 -0.541386 0
-0.0146724 -0.404303 0
-0.0864962 -0.284284 0
-0.220431 -0.243976 0
-0.346566 -0.304419 0
-0.39906 -0.434064 0
-0.350513 -0.565237 0
-0.226265 -0.62947 0
-0.0911713 -0.593233 0
-0.0157489 -0.475441 0
-0.0393666 -0.337581 0
-0.149696 -0.251611 0
-0.265966 -0.252088 0
-0.35069 -0.343236 0
-0.351896 -0.467674 0
-0.268955 -0.560447 0
-0.145159 -0.573129 0
-0.0451293 -0.499101 0
-0.0210785 -0.377004 0
-0.0855611 -0.27057 0
-0.204918 -0.235356 0
-0.316848 -0.289743 0
-0.362924 -0.405342 0
-0.319097 -0.521812 0
-0.208242 -0.578358 0
-0.0882251 -0.545464 0
-0.0216919 -0.4403 0
-0.0433719 -0.31776 0
-0.141948 -0.241807 0
-0.247137 -0.228357 0
-0.327219 -0.31516 0
-0.327922 -0.433259 0
-0.248878 -0.521009 0
-0.131348 -0.532606 0
-0.0366793 -0.461996 0
-0.0142878 -0.346037 0
-0.0758614 -0.245257 0
-0.18926 -0.212262 0
-0.295291 -0.264274 0
-0.338609 -0.374144 0
-0.296602 -0.484522 0
-0.191197 -0.537792 0
-0.0774139 -0.506149 0
-0.0146453 -0.406109 0
-0.0356551 -0.289892 0
-0.129477 -0.21816 0
-0.230733 -0.195901 0
-0.310091 -0.282291 0
-0.310537 -0.399598 0
-0.231838 -0.486588 0
-0.115073 -0.497856 0
-0.0211917 -0.427519 0
0.00080149 -0.312292 0
-0.0605733 -0.212321 0
-0.17328 -0.17979 0
-0.278487 -0.231679 0
-0.321278 -0.340903 0
-0.279318 -0.450449 0
-0.174508 -0.503136 0
-0.0615581 -0.471462 0
0.000574737 -0.371961 0
-0.020542 -0.25657 0
-0.113886 -0.185521 0
-0.215733 -0.157488 0
-0.296887 -0.245986 0
-0.29724 -0.366059 0
-0.216609 -0.455033 0
-0.0970797 -0.466464 0
-0.00104574 -0.394386 0
0.0213653 -0.276421 0
-0.0415449 -0.174147 0
-0.156938 -0.140947 0
-0.264581 -0.194152 0
-0.308287 -0.305989 0
-0.265241 -0.418083 0
-0.157913 -0.471921 0
-0.0423258 -0.439401 0
0.0211854 -0.337498 0
-0.000530557 -0.219404 0
-0.0961384 -0.146761 0
-0.201567 -0.114962 0
-0.286178 -0.207212 0
-0.286559 -0.332387 0
-0.20251 -0.42515 0
-0.077903 -0.437078 0
0.0222187 -0.361947 0
0.0455937 -0.238972 0
-0.0199793 -0.132345 0
-0.140272 -0.0977235 0
-0.252495 -0.153179 0
-0.298068 -0.269764 0
-0.253204 -0.386624 0
-0.141321 -0.442761 0
-0.0208199 -0.408871 0
0.0454002 -0.302644 0
0.0227732 -0.17953 0
-0.0768898 -0.103791 0
-0.187911 -0.0696826 0
-0.277067 -0.166741 0
-0.277565 -0.298531 0
-0.189147 -0.396262 0
-0.0579652 -0.408918 0
0.0475065 -0.329895 0
0.0722132 -0.20044 0
0.00325861 -0.0881271 0
-0.123364 -0.0515812 0
-0.241561 -0.109879 0
-0.289634 -0.232589 0
-0.242491 -0.355661 0
-0.124739 -0.414851 0
0.00215668 -0.379265 0
0.0719595 -0.267477 0
0.0482334 -0.137839 0
-0.056637 -0.0580192 0
-0.157504 -0.0255964 0
-0.267236 -0.105603 0
-0.294429 -0.238654 0
-0.224888 -0.3553 0
-0.0949135 -0.394653 0
0.0276511 -0.336172 0
0.078829 -0.210383 0
0.0319063 -0.0829453 0
-0.0886242 -0.0203794 0
-0.219848 -0.0553434 0
-0.293268 -0.169587 0
-0.270561 -0.303477 0
-0.163579 -0.387125 0
-0.0281652 -0.376868 0
0.0649971 -0.278061 0
0.0672788 -0.142279 0
-0.0225111 -0.0403968 0
