# vtk DataFile Version 3.0
tp3485 scalar+vector
ASCII
DATASET UNSTRUCTURED_GRID
POINTS 187 double
1 0 0
0.932472 0.361242 0
0.739009 0.673696 0
0.445738 0.895163 0
0.0922684 0.995734 0
-0.273663 0.961826 0
-0.602635 0.798017 0
-0.850217 0.526432 0
-0.982973 0.18375 0
-0.982973 -0.18375 0
-0.850217 -0.526432 0
-0.602635 -0.798017 0
-0.273663 -0.961826 0
0.0922684 -0.995734 0
0.445738 -0.895163 0
0.739009 -0.673696 0
0.932472 -0.361242 0
1.3 0 0
1.21221 0.469614 0
0.960712 0.875804 0
0.57946 1.16371 0
0.119949 1.29445 0
-0.355762 1.25037 0
-0.783425 1.03742 0
-1.10528 0.684362 0
-1.27787 0.238874 0
-1.27787 -0.238874 0
-1.10528 -0.684362 0
-0.783425 -1.03742 0
-0.355762 -1.25037 0
0.119949 -1.29445 0
0.57946 -1.16371 0
0.960712 -0.875804 0
1.21221 -0.469614 0
1.6 0 0
1.49196 0.577987 0
1.18241 1.07791 0
0.713181 1.43226 0
0.147629 1.59317 0
-0.437861 1.53892 0
-0.964215 1.27683 0
-1.36035 0.842291 0
-1.57276 0.293999 0
-1.57276 -0.293999 0
-1.36035 -0.842291 0
-0.964215 -1.27683 0
-0.437861 -1.53892 0
0.147629 -1.59317 0
0.713181 -1.43226 0
1.18241 -1.07791 0
1.49196 -0.577987 0
1.9 0 0
1.7717 0.686359 0
1.40412 1.28002 0
0.846903 1.70081 0
0.17531 1.89189 0
-0.51996 1.82747 0
-1.14501 1.51623 0
-1.61541 1.00022 0
-1.86765 0.349124 0
-1.86765 -0.349124 0
-1.61541 -1.00022 0
-1.14501 -1.51623 0
-0.51996 -1.82747 0
0.17531 -1.89189 0
0.846903 -1.70081 0
1.40412 -1.28002 0
1.7717 -0.686359 0
2.2 0 0
2.05144 0.794732 0
1.62582 1.48213 0
0.980624 1.96936 0
0.20299 2.19062 0
-0.602059 2.11602 0
-1.3258 1.75564 0
-1.87048 1.15815 0
-2.16254 0.404249 0
-2.16254 -0.404249 0
-1.87048 -1.15815 0
-1.3258 -1.75564 0
-0.602059 -2.11602 0
0.20299 -2.19062 0
0.980624 -1.96936 0
1.62582 -1.48213 0
2.05144 -0.794732 0
2.5 0 0
2.33118 0.903104 0
1.84752 1.68424 0
1.11435 2.23791 0
0.230671 2.48934 0
-0.684157 2.40456 0
-1.50659 1.99504 0
-2.12554 1.31608 0
-2.45743 0.459374 0
-2.45743 -0.459374 0
-2.12554 -1.31608 0
-1.50659 -1.99504 0
-0.684157 -2.40456 0
0.230671 -2.48934 0
1.11435 -2.23791 0
1.84752 -1.68424 0
2.33118 -0.903104 0
2.8 0 0
2.61092 1.01148 0
2.06922 1.88635 0
1.24807 2.50646 0
0.258351 2.78806 0
-0.766256 2.69311 0
-1.68738 2.23445 0
-2.38061 1.47401 0
-2.75232 0.514499 0
-2.75232 -0.514499 0
-2.38061 -1.47401 0
-1.68738 -2.23445 0
-0.766256 -2.69311 0
0.258351 -2.78806 0
1.24807 -2.50646 0
2.06922 -1.88635 0
2.61092 -1.01148 0
3.1 0 0
2.89066 1.11985 0
2.29093 2.08846 0
1.38179 2.77501 0
0.286032 3.08678 0
-0.848355 2.98166 0
-1.86817 2.47385 0
-2.63567 1.63194 0
-3.04722 0.569624 0
-3.04722 -0.569624 0
-2.63567 -1.63194 0
-1.86817 -2.47385 0
-0.848355 -2.98166 0
0.286032 -3.08678 0
1.38179 -2.77501 0
2.29093 -2.08846 0
2.89066 -1.11985 0
3.4 0 0
3.17041 1.22822 0
2.51263 2.29057 0
1.51551 3.04356 0
0.313712 3.3855 0
-0.930454 3.27021 0
-2.04896 2.71326 0
-2.89074 1.78987 0
-3.34211 0.624748 0
-3.34211 -0.624748 0
-2.89074 -1.78987 0
-2.04896 -2.71326 0
-0.930454 -3.27021 0
0.313712 -3.3855 0
1.51551 -3.04356 0
2.51263 -2.29057 0
3.17041 -1.22822 0
3.7 0 0
3.45015 1.33659 0
2.73433 2.49267 0
1.64923 3.3121 0
0.341393 3.68422 0
-1.01255 3.55875 0
-2.22975 2.95266 0
-3.1458 1.9478 0
-3.637 0.679873 0
-3.637 -0.679873 0
-3.1458 -1.9478 0
-2.22975 -2.95266 0
-1.01255 -3.55875 0
0.341393 -3.68422 0
1.64923 -3.3121 0
2.73433 -2.49267 0
3.45015 -1.33659 0
4 0 0
3.72989 1.44497 0
2.95604 2.69478 0
1.78295 3.58065 0
0.369073 3.98294 0
-1.09465 3.8473 0
-2.41054 3.19207 0
-3.40087 2.10573 0
-3.93189 0.734998 0
-3.93189 -0.734998 0
-3.40087 -2.10573 0
-2.41054 -3.19207 0
-1.09465 -3.8473 0
0.369073 -3.98294 0
1.78295 -3.58065 0
2.95604 -2.69478 0
3.72989 -1.44497 0
CELLS 340 1360
3 0 17 18
3 0 18 1
3 1 18 19
3 1 19 2
3 2 19 20
3 2 20 3
3 3 20 21
3 3 21 4
3 4 21 22
3 4 22 5
3 5 22 23
3 5 23 6
3 6 23 24
3 6 24 7
3 7 24 25
3 7 25 8
3 8 25 26
3 8 26 9
3 9 26 27
3 9 27 10
3 10 27 28
3 10 28 11
3 11 28 29
3 11 29 12
3 12 29 30
3 12 30 13
3 13 30 31
3 13 31 14
3 14 31 32
3 14 32 15
3 15 32 33
3 15 33 16
3 16 33 17
3 16 17 0
3 17 34 35
3 17 35 18
3 18 35 36
3 18 36 19
3 19 36 37
3 19 37 20
3 20 37 38
3 20 38 21
3 21 38 39
3 21 39 22
3 22 39 40
3 22 40 23
3 23 40 41
3 23 41 24
3 24 41 42
3 24 42 25
3 25 42 43
3 25 43 26
3 26 43 44
3 26 44 27
3 27 44 45
3 27 45 28
3 28 45 46
3 28 46 29
3 29 46 47
3 29 47 30
3 30 47 48
3 30 48 31
3 31 48 49
3 31 49 32
3 32 49 50
3 32 50 33
3 33 50 34
3 33 34 17
3 34 51 52
3 34 52 35
3 35 52 53
3 35 53 36
3 36 53 54
3 36 54 37
3 37 54 55
3 37 55 38
3 38 55 56
3 38 56 39
3 39 56 57
3 39 57 40
3 40 57 58
3 40 58 41
3 41 58 59
3 41 59 42
3 42 59 60
3 42 60 43
3 43 60 61
3 43 61 44
3 44 61 62
3 44 62 45
3 45 62 63
3 45 63 46
3 46 63 64
3 46 64 47
3 47 64 65
3 47 65 48
3 48 65 66
3 48 66 49
3 49 66 67
3 49 67 50
3 50 67 51
3 50 51 34
3 51 68 69
3 51 69 52
3 52 69 70
3 52 70 53
3 53 70 71
3 53 71 54
3 54 71 72
3 54 72 55
3 55 72 73
3 55 73 56
3 56 73 74
3 56 74 57
3 57 74 75
3 57 75 58
3 58 75 76
3 58 76 59
3 59 76 77
3 59 77 60
3 60 77 78
3 60 78 61
3 61 78 79
3 61 79 62
3 62 79 80
3 62 80 63
3 63 80 81
3 63 81 64
3 64 81 82
3 64 82 65
3 65 82 83
3 65 83 66
3 66 83 84
3 66 84 67
3 67 84 68
3 67 68 51
3 68 85 86
3 68 86 69
3 69 86 87
3 69 87 70
3 70 87 88
3 70 88 71
3 71 88 89
3 71 89 72
3 72 89 90
3 72 90 73
3 73 90 91
3 73 91 74
3 74 91 92
3 74 92 75
3 75 92 93
3 75 93 76
3 76 93 94
3 76 94 77
3 77 94 95
3 77 95 78
3 78 95 96
3 78 96 79
3 79 96 97
3 79 97 80
3 80 97 98
3 80 98 81
3 81 98 99
3 81 99 82
3 82 99 100
3 82 100 83
3 83 100 101
3 83 101 84
3 84 101 85
3 84 85 68
3 85 102 103
3 85 103 86
3 86 103 104
3 86 104 87
3 87 104 105
3 87 105 88
3 88 105 106
3 88 106 89
3 89 106 107
3 89 107 90
3 90 107 108
3 90 108 91
3 91 108 109
3 91 109 92
3 92 109 110
3 92 110 93
3 93 110 111
3 93 111 94
3 94 111 112
3 94 112 95
3 95 112 113
3 95 113 96
3 96 113 114
3 96 114 97
3 97 114 115
3 97 115 98
3 98 115 116
3 98 116 99
3 99 116 117
3 99 117 100
3 100 117 118
3 100 118 101
3 101 118 102
3 101 102 85
3 102 119 120
3 102 120 103
3 103 120 121
3 103 121 104
3 104 121 122
3 104 122 105
3 105 122 123
3 105 123 106
3 106 123 124
3 106 124 107
3 107 124 125
3 107 125 108
3 108 125 126
3 108 126 109
3 109 126 127
3 109 127 110
3 110 127 128
3 110 128 111
3 111 128 129
3 111 129 112
3 112 129 130
3 112 130 113
3 113 130 131
3 113 131 114
3 114 131 132
3 114 132 115
3 115 132 133
3 115 133 116
3 116 133 134
3 116 134 117
3 117 134 135
3 117 135 118
3 118 135 119
3 118 119 102
3 119 136 137
3 119 137 120
3 120 137 138
3 120 138 121
3 121 138 139
3 121 139 122
3 122 139 140
3 122 140 123
3 123 140 141
3 123 141 124
3 124 141 142
3 124 142 125
3 125 142 143
3 125 143 126
3 126 143 144
3 126 144 127
3 127 144 145
3 127 145 128
3 128 145 146
3 128 146 129
3 129 146 147
3 129 147 130
3 130 147 148
3 130 148 131
3 131 148 149
3 131 149 132
3 132 149 150
3 132 150 133
3 133 150 151
3 133 151 134
3 134 151 152
3 134 152 135
3 135 152 136
3 135 136 119
3 136 153 154
3 136 154 137
3 137 154 155
3 137 155 138
3 138 155 156
3 138 156 139
3 139 156 157
3 139 157 140
3 140 157 158
3 140 158 141
3 141 158 159
3 141 159 142
3 142 159 160
3 142 160 143
3 143 160 161
3 143 161 144
3 144 161 162
3 144 162 145
3 145 162 163
3 145 163 146
3 146 163 164
3 146 164 147
3 147 164 165
3 147 165 148
3 148 165 166
3 148 166 149
3 149 166 167
3 149 167 150
3 150 167 168
3 150 168 151
3 151 168 169
3 151 169 152
3 152 169 153
3 152 153 136
3 153 170 171
3 153 171 154
3 154 171 172
3 154 172 155
3 155 172 173
3 155 173 156
3 156 173 174
3 156 174 157
3 157 174 175
3 157 175 158
3 158 175 176
3 158 176 159
3 159 176 177
3 159 177 160
3 160 177 178
3 160 178 161
3 161 178 179
3 161 179 162
3 162 179 180
3 162 180 163
3 163 180 181
3 163 181 164
3 164 181 182
3 164 182 165
3 165 182 183
3 165 183 166
3 166 183 184
3 166 184 167
3 167 184 185
3 167 185 168
3 168 185 186
3 168 186 169
3 169 186 170
3 169 170 153
CELL_TYPES 340
5
5
5
5
5
5
5
5
5
5
5
5
5
5
5
5
5
5
5
5
5
5
5
5
5
5
5
5
5
5
5
5
5
5
5
5
5
5
5
5
5
5
5
5
5
5
5
5
5
5
5
5
5
5
5
5
5
5
5
5
5
5
5
5
5
5
5
5
5
5
5
5
5
5
5
5
5
5
5
5
5
5
5
5
5
5
5
5
5
5
5
5
5
5
5
5
5
5
5
5
5
5
5
5
5
5
5
5
5
5
5
5
5
5
5
5
5
5
5
5
5
5
5
5
5
5
5
5
5
5
5
5
5
5
5
5
5
5
5
5
5
5
5
5
5
5
5
5
5
5
5
5
5
5
5
5
5
5
5
5
5
5
5
5
5
5
5
5
5
5
5
5
5
5
5
5
5
5
5
5
5
5
5
5
5
5
5
5
5
5
5
5
5
5
5
5
5
5
5
5
5
5
5
5
5
5
5
5
5
5
5
5
5
5
5
5
5
5
5
5
5
5
5
5
5
5
5
5
5
5
5
5
5
5
5
5
5
5
5
5
5
5
5
5
5
5
5
5
5
5
5
5
5
5
5
5
5
5
5
5
5
5
5
5
5
5
5
5
5
5
5
5
5
5
5
5
5
5
5
5
5
5
5
5
5
5
5
5
5
5
5
5
5
5
5
5
5
5
5
5
5
5
5
5
5
5
5
5
5
5
5
5
5
5
5
5
5
5
5
5
5
5
5
5
5
5
5
5
5
5
5
5
5
5
5
5
5
5
5
5
POINT_DATA 187
SCALARS psi double 1
LOOKUP_TABLE default
0.934834
0.743413
0.45159
0.0987774
-0.267376
-0.597418
-0.846776
-0.981772
-0.984174
-0.853658
-0.607851
-0.27995
0.0857594
0.439887
0.734605
0.930111
1
0.917381
0.731169
0.446208
0.100984
-0.257878
-0.581912
-0.827356
-0.961061
-0.964969
-0.838553
-0.598886
-0.278335
0.0798058
0.427169
0.71684
0.909698
0.979696
0.831126
0.663898
0.407007
0.0951475
-0.229562
-0.523269
-0.746304
-0.868548
-0.873489
-0.760461
-0.544728
-0.255426
0.0683716
0.382936
0.645782
0.821412
0.886106
0.679057
0.543628
0.33478
0.0807179
-0.184246
-0.424326
-0.607099
-0.707879
-0.713057
-0.621932
-0.446812
-0.211348
0.0526606
0.309557
0.524645
0.668878
0.722775
0.475937
0.381858
0.236207
0.058655
-0.126819
-0.295165
-0.423647
-0.494914
-0.499339
-0.436327
-0.314385
-0.149985
0.0346721
0.214646
0.365631
0.467236
0.505738
0.243812
0.196046
0.121804
0.0311107
-0.063784
-0.150064
-0.216078
-0.252908
-0.255583
-0.223739
-0.161678
-0.0777816
0.0166196
0.108776
0.186242
0.238555
0.258649
0.00830907
0.0066958
0.00417823
0.00109636
-0.00213357
-0.00507536
-0.00733169
-0.00859783
-0.00870279
-0.00763239
-0.0055312
-0.00268298
0.000527587
0.0036669
0.00631098
0.00810272
0.00880015
-0.204904
-0.165478
-0.103704
-0.0279246
0.0516267
0.124205
0.18001
0.211502
0.214431
0.188399
0.136923
0.0669545
-0.0120563
-0.0894389
-0.154742
-0.199147
-0.216656
-0.373382
-0.302191
-0.190188
-0.0524983
0.0922813
0.224598
0.326581
0.384458
0.390411
0.343638
0.250454
0.123445
-0.0202361
-0.161184
-0.280363
-0.361678
-0.394146
-0.480623
-0.38982
-0.24637
-0.069647
0.116483
0.286881
0.418534
0.493662
0.502118
0.44276
0.323605
0.160746
-0.0238235
-0.205175
-0.358817
-0.463998
-0.506514
-0.517948
-0.420992
-0.267178
-0.0772806
0.123054
0.306769
0.449054
0.530691
0.540656
0.477602
0.350045
0.175213
-0.0232832
-0.218634
-0.384458
-0.498358
-0.544952
VECTORS Et double
0.408697 0.00571978 0
0.637212 0.312558 0
0.599372 0.693264 0
0.314927 0.949116 0
-0.0676459 0.946564 0
-0.348652 0.68694 0
-0.38141 0.305763 0
-0.148822 0.00200076 0
0.227707 -0.0657883 0
0.551634 0.13778 0
0.653875 0.506448 0
0.481063 0.847776 0
0.123402 0.983597 0
-0.232415 0.843016 0
-0.400658 0.499413 0
-0.293507 0.132143 0
0.0331066 -0.0670865 0
0.292329 -0.176123 0
0.555743 0.0777288 0
0.579389 0.442788 0
0.350925 0.7285 0
-0.0103949 0.785729 0
-0.315968 0.584602 0
-0.406291 0.230104 0
-0.234217 -0.092724 0
0.110435 -0.215371 0
0.447762 -0.0738172 0
0.601686 0.258048 0
0.491861 0.606998 0
0.175614 0.790886 0
-0.18198 0.713726 0
-0.394263 0.415795 0
-0.350428 0.0526066 0
-0.0733544 -0.186261 0
0.211429 -0.425404 0
0.487817 -0.163439 0
0.515586 0.216358 0
0.28024 0.515738 0
-0.0953745 0.578431 0
-0.415193 0.371713 0
-0.512276 0.00348551 0
-0.335948 -0.334042 0
0.0217503 -0.464687 0
0.374108 -0.320255 0
0.5372 0.0238639 0
0.425895 0.388045 0
0.0982923 0.582192 0
-0.274605 0.504964 0
-0.498151 0.196673 0
-0.45566 -0.181759 0
-0.16931 -0.432797 0
0.141423 -0.642073 0
0.430276 -0.37509 0
0.463875 0.0168118 0
0.224683 0.329066 0
-0.162447 0.398682 0
-0.495439 0.189322 0
-0.600478 -0.189733 0
-0.422735 -0.540622 0
-0.0549887 -0.680188 0
0.310804 -0.535579 0
0.483705 -0.182279 0
0.373464 0.195295 0
0.0376249 0.400058 0
-0.348511 0.325125 0
-0.583387 0.00961169 0
-0.544403 -0.381791 0
-0.251906 -0.644777 0
0.0812117 -0.791486 0
0.370707 -0.53149 0
0.409488 -0.144318 0
0.177313 0.167932 0
-0.204629 0.242271 0
-0.536969 0.0398967 0
-0.646233 -0.333556 0
-0.475386 -0.683152 0
-0.113608 -0.826407 0
0.25026 -0.688546 0
0.426285 -0.341529 0
0.322585 0.0335073 0
-0.00670987 0.2408 0
-0.389714 0.172147 0
-0.626506 -0.136617 0
-0.593485 -0.524322 0
-0.307886 -0.788594 0
0.0313965 -0.853643 0
0.30401 -0.616471 0
0.345692 -0.257541 0
0.134686 0.0357935 0
-0.218868 0.110416 0
-0.53042 -0.072625 0
-0.637345 -0.417785 0
-0.483832 -0.744897 0
-0.15001 -0.883214 0
0.189871 -0.760537 0
0.358399 -0.440902 0
0.267606 -0.0911515 0
-0.0351162 0.10615 0
-0.391752 0.048015 0
-0.616143 -0.235211 0
-0.591162 -0.595689 0
-0.329849 -0.845256 0
-0.00724982 -0.821696 0
0.229224 -0.623481 0
0.270443 -0.317686 0
0.094892 -0.0639321 0
-0.205795 0.00532637 0
-0.474664 -0.146062 0
-0.571371 -0.439076 0
-0.445436 -0.720767 0
-0.162595 -0.844097 0
0.129513 -0.744691 0
0.278415 -0.474436 0
0.206385 -0.174401 0
-0.0489781 -0.00119882 0
-0.354379 -0.0452378 0
-0.550404 -0.28353 0
-0.534732 -0.591692 0
-0.315543 -0.808868 0
-0.0343905 -0.701246 0
0.148287 -0.555606 0
0.18517 -0.324908 0
0.0570064 -0.129572 0
-0.169305 -0.0715601 0
-0.375633 -0.181154 0
-0.454279 -0.401147 0
-0.36419 -0.616707 0
-0.152392 -0.715315 0
0.0705606 -0.645501 0
0.188291 -0.443704 0
0.139345 -0.215261 0
-0.050727 -0.0794136 0
-0.282712 -0.107072 0
-0.435518 -0.283799 0
-0.429382 -0.517347 0
-0.267508 -0.685807 0
-0.0503543 -0.508888 0
0.065245 -0.424787 0
0.0940158 -0.284758 0
0.0209403 -0.161892 0
-0.115837 -0.120323 0
-0.244922 -0.18175 0
-0.298933 -0.314109 0
-0.249679 -0.448311 0
-0.122868 -0.514304 0
0.0153059 -0.477642 0
0.0927184 -0.357462 0
0.0689619 -0.216495 0
-0.0435633 -0.128323 0
-0.186121 -0.138972 0
-0.284299 -0.242882 0
-0.286849 -0.385814 0
-0.192441 -0.49316 0
-0.0561703 -0.269708 0
-0.0145053 -0.250077 0
0.00306051 -0.207501 0
-0.012642 -0.164202 0
-0.0534164 -0.142783 0
-0.0979792 -0.154423 0
-0.123069 -0.193047 0
-0.11559 -0.238494 0
-0.0794459 -0.267041 0
-0.033503 -0.263787 0
-0.00174289 -0.230431 0
-0.0007438 -0.184384 0
-0.0310272 -0.149681 0
-0.0767858 -0.144438 0
-0.114134 -0.17139 0
-0.123578 -0.21647 0
-0.100186 -0.256146 0
-0.0478616 -0.138564 0
-0.0491803 -0.142663 0
-0.0473935 -0.146581 0
-0.0434339 -0.148272 0
-0.0393683 -0.146854 0
-0.0373189 -0.143068 0
-0.0383554 -0.138889 0
-0.0419368 -0.136499 0
-0.0461937 -0.137145 0
-0.048904 -0.140491 0
-0.0486531 -0.144789 0
-0.0455718 -0.147796 0
-0.0412686 -0.147943 0
-0.0379897 -0.145153 0
-0.0374465 -0.140881 0
-0.0399227 -0.137359 0
-0.0441257 -0.136424 0
