# vtk DataFile Version 3.0
tp3485 scalar+vector
ASCII
DATASET UNSTRUCTURED_GRID
POINTS 187 double
1 0 0
0.932472 0.361242 0
0.739009 0.673696 0
0.445738 0.895163 0
0.0922684 0.995734 0
-0.273663 0.961826 0
-0.602635 0.798017 0
-0.850217 0.526432 0
-0.982973 0.18375 0
-0.982973 -0.18375 0
-0.850217 -0.526432 0
-0.602635 -0.798017 0
-0.273663 -0.961826 0
0.0922684 -0.995734 0
0.445738 -0.895163 0
0.739009 -0.673696 0
0.932472 -0.361242 0
1.3 0 0
1.21221 0.469614 0
0.960712 0.875804 0
0.57946 1.16371 0
0.119949 1.29445 0
-0.355762 1.25037 0
-0.783425 1.03742 0
-1.10528 0.684362 0
-1.27787 0.238874 0
-1.27787 -0.238874 0
-1.10528 -0.684362 0
-0.783425 -1.03742 0
-0.355762 -1.25037 0
0.119949 -1.29445 0
0.57946 -1.16371 0
0.960712 -0.875804 0
1.21221 -0.469614 0
1.6 0 0
1.49196 0.577987 0
1.18241 1.07791 0
0.713181 1.43226 0
0.147629 1.59317 0
-0.437861 1.53892 0
-0.964215 1.27683 0
-1.36035 0.842291 0
-1.57276 0.293999 0
-1.57276 -0.293999 0
-1.36035 -0.842291 0
-0.964215 -1.27683 0
-0.437861 -1.53892 0
0.147629 -1.59317 0
0.713181 -1.43226 0
1.18241 -1.07791 0
1.49196 -0.577987 0
1.9 0 0
1.7717 0.686359 0
1.40412 1.28002 0
0.846903 1.70081 0
0.17531 1.89189 0
-0.51996 1.82747 0
-1.14501 1.51623 0
-1.61541 1.00022 0
-1.86765 0.349124 0
-1.86765 -0.349124 0
-1.61541 -1.00022 0
-1.14501 -1.51623 0
-0.51996 -1.82747 0
0.17531 -1.89189 0
0.846903 -1.70081 0
1.40412 -1.28002 0
1.7717 -0.686359 0
2.2 0 0
2.05144 0.794732 0
1.62582 1.48213 0
0.980624 1.96936 0
0.20299 2.19062 0
-0.602059 2.11602 0
-1.3258 1.75564 0
-1.87048 1.15815 0
-2.16254 0.404249 0
-2.16254 -0.404249 0
-1.87048 -1.15815 0
-1.3258 -1.75564 0
-0.602059 -2.11602 0
0.20299 -2.19062 0
0.980624 -1.96936 0
1.62582 -1.48213 0
2.05144 -0.794732 0
2.5 0 0
2.33118 0.903104 0
1.84752 1.68424 0
1.11435 2.23791 0
0.230671 2.48934 0
-0.684157 2.40456 0
-1.50659 1.99504 0
-2.12554 1.31608 0
-2.45743 0.459374 0
-2.45743 -0.459374 0
-2.12554 -1.31608 0
-1.50659 -1.99504 0
-0.684157 -2.40456 0
0.230671 -2.48934 0
1.11435 -2.23791 0
1.84752 -1.68424 0
2.33118 -0.903104 0
2.8 0 0
2.61092 1.01148 0
2.06922 1.88635 0
1.24807 2.50646 0
0.258351 2.78806 0
-0.766256 2.69311 0
-1.68738 2.23445 0
-2.38061 1.47401 0
-2.75232 0.514499 0
-2.75232 -0.514499 0
-2.38061 -1.47401 0
-1.68738 -2.23445 0
-0.766256 -2.69311 0
0.258351 -2.78806 0
1.24807 -2.50646 0
2.06922 -1.88635 0
2.61092 -1.01148 0
3.1 0 0
2.89066 1.11985 0
2.29093 2.08846 0
1.38179 2.77501 0
0.286032 3.08678 0
-0.848355 2.98166 0
-1.86817 2.47385 0
-2.63567 1.63194 0
-3.04722 0.569624 0
-3.04722 -0.569624 0
-2.63567 -1.63194 0
-1.86817 -2.47385 0
-0.848355 -2.98166 0
0.286032 -3.08678 0
1.38179 -2.77501 0
2.29093 -2.08846 0
2.89066 -1.11985 0
3.4 0 0
3.17041 1.22822 0
2.51263 2.29057 0
1.51551 3.04356 0
0.313712 3.3855 0
-0.930454 3.27021 0
-2.04896 2.71326 0
-2.89074 1.78987 0
-3.34211 0.624748 0
-3.34211 -0.624748 0
-2.89074 -1.78987 0
-2.04896 -2.71326 0
-0.930454 -3.27021 0
0.313712 -3.3855 0
1.51551 -3.04356 0
2.51263 -2.29057 0
3.17041 -1.22822 0
3.7 0 0
3.45015 1.33659 0
2.73433 2.49267 0
1.64923 3.3121 0
0.341393 3.68422 0
-1.01255 3.55875 0
-2.22975 2.95266 0
-3.1458 1.9478 0
-3.637 0.679873 0
-3.637 -0.679873 0
-3.1458 -1.9478 0
-2.22975 -2.95266 0
-1.01255 -3.55875 0
0.341393 -3.68422 0
1.64923 -3.3121 0
2.73433 -2.49267 0
3.45015 -1.33659 0
4 0 0
3.72989 1.44497 0
2.95604 2.69478 0
1.78295 3.58065 0
0.369073 3.98294 0
-1.09465 3.8473 0
-2.41054 3.19207 0
-3.40087 2.10573 0
-3.93189 0.734998 0
-3.93189 -0.734998 0
-3.40087 -2.10573 0
-2.41054 -3.19207 0
-1.09465 -3.8473 0
0.369073 -3.98294 0
1.78295 -3.58065 0
2.95604 -2.69478 0
3.72989 -1.44497 0
CELLS 340 1360
3 0 17 18
3 0 18 1
3 1 18 19
3 1 19 2
3 2 19 20
3 2 20 3
3 3 20 21
3 3 21 4
3 4 21 22
3 4 22 5
3 5 22 23
3 5 23 6
3 6 23 24
3 6 24 7
3 7 24 25
3 7 25 8
3 8 25 26
3 8 26 9
3 9 26 27
3 9 27 10
3 10 27 28
3 10 28 11
3 11 28 29
3 11 29 12
3 12 29 30
3 12 30 13
3 13 30 31
3 13 31 14
3 14 31 32
3 14 32 15
3 15 32 33
3 15 33 16
3 16 33 17
3 16 17 0
3 17 34 35
3 17 35 18
3 18 35 36
3 18 36 19
3 19 36 37
3 19 37 20
3 20 37 38
3 20 38 21
3 21 38 39
3 21 39 22
3 22 39 40
3 22 40 23
3 23 40 41
3 23 41 24
3 24 41 42
3 24 42 25
3 25 42 43
3 25 43 26
3 26 43 44
3 26 44 27
3 27 44 45
3 27 45 28
3 28 45 46
3 28 46 29
3 29 46 47
3 29 47 30
3 30 47 48
3 30 48 31
3 31 48 49
3 31 49 32
3 32 49 50
3 32 50 33
3 33 50 34
3 33 34 17
3 34 51 52
3 34 52 35
3 35 52 53
3 35 53 36
3 36 53 54
3 36 54 37
3 37 54 55
3 37 55 38
3 38 55 56
3 38 56 39
3 39 56 57
3 39 57 40
3 40 57 58
3 40 58 41
3 41 58 59
3 41 59 42
3 42 59 60
3 42 60 43
3 43 60 61
3 43 61 44
3 44 61 62
3 44 62 45
3 45 62 63
3 45 63 46
3 46 63 64
3 46 64 47
3 47 64 65
3 47 65 48
3 48 65 66
3 48 66 49
3 49 66 67
3 49 67 50
3 50 67 51
3 50 51 34
3 51 68 69
3 51 69 52
3 52 69 70
3 52 70 53
3 53 70 71
3 53 71 54
3 54 71 72
3 54 72 55
3 55 72 73
3 55 73 56
3 56 73 74
3 56 74 57
3 57 74 75
3 57 75 58
3 58 75 76
3 58 76 59
3 59 76 77
3 59 77 60
3 60 77 78
3 60 78 61
3 61 78 79
3 61 79 62
3 62 79 80
3 62 80 63
3 63 80 81
3 63 81 64
3 64 81 82
3 64 82 65
3 65 82 83
3 65 83 66
3 66 83 84
3 66 84 67
3 67 84 68
3 67 68 51
3 68 85 86
3 68 86 69
3 69 86 87
3 69 87 70
3 70 87 88
3 70 88 71
3 71 88 89
3 71 89 72
3 72 89 90
3 72 90 73
3 73 90 91
3 73 91 74
3 74 91 92
3 74 92 75
3 75 92 93
3 75 93 76
3 76 93 94
3 76 94 77
3 77 94 95
3 77 95 78
3 78 95 96
3 78 96 79
3 79 96 97
3 79 97 80
3 80 97 98
3 80 98 81
3 81 98 99
3 81 99 82
3 82 99 100
3 82 100 83
3 83 100 101
3 83 101 84
3 84 101 85
3 84 85 68
3 85 102 103
3 85 103 86
3 86 103 104
3 86 104 87
3 87 104 105
3 87 105 88
3 88 105 106
3 88 106 89
3 89 106 107
3 89 107 90
3 90 107 108
3 90 108 91
3 91 108 109
3 91 109 92
3 92 109 110
3 92 110 93
3 93 110 111
3 93 111 94
3 94 111 112
3 94 112 95
3 95 112 113
3 95 113 96
3 96 113 114
3 96 114 97
3 97 114 115
3 97 115 98
3 98 115 116
3 98 116 99
3 99 116 117
3 99 117 100
3 100 117 118
3 100 118 101
3 101 118 102
3 101 102 85
3 102 119 120
3 102 120 103
3 103 120 121
3 103 121 104
3 104 121 122
3 104 122 105
3 105 122 123
3 105 123 106
3 106 123 124
3 106 124 107
3 107 124 125
3 107 125 108
3 108 125 126
3 108 126 109
3 109 126 127
3 109 127 110
3 110 127 128
3 110 128 111
3 111 128 129
3 111 129 112
3 112 129 130
3 112 130 113
3 113 130 131
3 113 131 114
3 114 131 132
3 114 132 115
3 115 132 133
3 115 133 116
3 116 133 134
3 116 134 117
3 117 134 135
3 117 135 118
3 118 135 119
3 118 119 102
3 119 136 137
3 119 137 120
3 120 137 138
3 120 138 121
3 121 138 139
3 121 139 122
3 122 139 140
3 122 140 123
3 123 140 141
3 123 141 124
3 124 141 142
3 124 142 125
3 125 142 143
3 125 143 126
3 126 143 144
3 126 144 127
3 127 144 145
3 127 145 128
3 128 145 146
3 128 146 129
3 129 146 147
3 129 147 130
3 130 147 148
3 130 148 131
3 131 148 149
3 131 149 132
3 132 149 150
3 132 150 133
3 133 150 151
3 133 151 134
3 134 151 152
3 134 152 135
3 135 152 136
3 135 136 119
3 136 153 154
3 136 154 137
3 137 154 155
3 137 155 138
3 138 155 156
3 138 156 139
3 139 156 157
3 139 157 140
3 140 157 158
3 140 158 141
3 141 158 159
3 141 159 142
3 142 159 160
3 142 160 143
3 143 160 161
3 143 161 144
3 144 161 162
3 144 162 145
3 145 162 163
3 145 163 146
3 146 163 164
3 146 164 147
3 147 164 165
3 147 165 148
3 148 165 166
3 148 166 149
3 149 166 167
3 149 167 150
3 150 167 168
3 150 168 151
3 151 168 169
3 151 169 152
3 152 169 153
3 152 153 136
3 153 170 171
3 153 171 154
3 154 171 172
3 154 172 155
3 155 172 173
3 155 173 156
3 156 173 174
3 156 174 157
3 157 174 175
3 157 175 158
3 158 175 176
3 158 176 159
3 159 176 177
3 159 177 160
3 160 177 178
3 160 178 161
3 161 178 179
3 161 179 162
3 162 179 180
3 162 180 163
3 163 180 181
3 163 181 164
3 164 181 182
3 164 182 165
3 165 182 183
3 165 183 166
3 166 183 184
3 166 184 167
3 167 184 185
3 167 185 168
3 168 185 186
3 168 186 169
3 169 186 170
3 169 170 153
CELL_TYPES 340
5
5
5
5
5
5
5
5
5
5
5
5
5
5
5
5
5
5
5
5
5
5
5
5
5
5
5
5
5
5
5
5
5
5
5
5
5
5
5
5
5
5
5
5
5
5
5
5
5
5
5
5
5
5
5
5
5
5
5
5
5
5
5
5
5
5
5
5
5
5
5
5
5
5
5
5
5
5
5
5
5
5
5
5
5
5
5
5
5
5
5
5
5
5
5
5
5
5
5
5
5
5
5
5
5
5
5
5
5
5
5
5
5
5
5
5
5
5
5
5
5
5
5
5
5
5
5
5
5
5
5
5
5
5
5
5
5
5
5
5
5
5
5
5
5
5
5
5
5
5
5
5
5
5
5
5
5
5
5
5
5
5
5
5
5
5
5
5
5
5
5
5
5
5
5
5
5
5
5
5
5
5
5
5
5
5
5
5
5
5
5
5
5
5
5
5
5
5
5
5
5
5
5
5
5
5
5
5
5
5
5
5
5
5
5
5
5
5
5
5
5
5
5
5
5
5
5
5
5
5
5
5
5
5
5
5
5
5
5
5
5
5
5
5
5
5
5
5
5
5
5
5
5
5
5
5
5
5
5
5
5
5
5
5
5
5
5
5
5
5
5
5
5
5
5
5
5
5
5
5
5
5
5
5
5
5
5
5
5
5
5
5
5
5
5
5
5
5
5
5
5
5
5
5
5
5
5
5
5
5
5
5
5
5
5
5
5
5
5
5
5
5
5
5
5
5
5
5
5
5
5
5
5
5
5
5
5
5
5
5
POINT_DATA 187
SCALARS psi double 1
LOOKUP_TABLE default
0
0
0
0
0
0
0
0
0
0
0
0
0
0
0
0
0
-0.213487
0.0121395
0.231429
0.329917
0.256194
0.0487423
-0.184152
-0.320923
-0.290177
-0.107964
0.130604
0.300999
0.314278
0.16351
-0.072608
-0.270826
-0.327677
-0.395966
0.0164995
0.420353
0.604789
0.473536
0.0951063
-0.332968
-0.587238
-0.534981
-0.203473
0.234244
0.54969
0.578208
0.304911
-0.127543
-0.493423
-0.601744
-0.542981
0.0145554
0.564494
0.819777
0.647151
0.136723
-0.445071
-0.794546
-0.729283
-0.283346
0.310491
0.742258
0.78658
0.42032
-0.165339
-0.664694
-0.817091
-0.64094
0.00785942
0.652556
0.956631
0.761361
0.168674
-0.512057
-0.925504
-0.855854
-0.339464
0.354121
0.86286
0.921202
0.498693
-0.184125
-0.770833
-0.95518
-0.677488
-0.00133892
0.675509
0.999753
0.802144
0.18583
-0.527484
-0.96546
-0.899484
-0.363993
0.361496
0.89829
0.966193
0.529761
-0.183198
-0.80053
-1
-0.646209
-0.0102885
0.631002
0.942921
0.762652
0.184292
-0.490265
-0.908912
-0.853124
-0.35202
0.332832
0.843952
0.914544
0.50776
-0.164065
-0.750251
-0.94482
-0.548856
-0.0162376
0.524857
0.791986
0.645712
0.162388
-0.405699
-0.762019
-0.720578
-0.303008
0.272726
0.706103
0.770906
0.43331
-0.130466
-0.626141
-0.794982
-0.395819
-0.0170108
0.370676
0.564877
0.464222
0.121251
-0.28501
-0.542502
-0.516817
-0.221363
0.189639
0.501652
0.551812
0.313936
-0.0878091
-0.44372
-0.568016
-0.205089
-0.0115069
0.188081
0.289494
0.239797
0.0649293
-0.14383
-0.277513
-0.266339
-0.116141
0.0946808
0.25608
0.283811
0.163397
-0.0423073
-0.225928
-0.291618
0
0
0
0
0
0
0
0
0
0
0
0
0
0
0
0
0
VECTORS Et double
0.465222 -0.172605 0
-0.155608 -0.295795 0
-0.516616 -0.676611 0
-0.435028 -0.884917 0
-0.20113 -0.60381 0
-0.229488 0.007473 0
-0.57842 0.469493 0
-0.873228 0.487311 0
-0.719926 0.248101 0
-0.151054 0.185715 0
0.391836 0.476965 0
0.522115 0.831088 0
0.307609 0.807723 0
0.166741 0.311523 0
0.380309 -0.285778 0
0.763378 -0.533358 0
0.863287 -0.372516 0
0.605809 -0.388972 0
0.166431 -0.441591 0
-0.244595 -0.640422 0
-0.415661 -0.799015 0
-0.396948 -0.685081 0
-0.412414 -0.285617 0
-0.584085 0.159866 0
-0.777989 0.397388 0
-0.745061 0.407653 0
-0.401847 0.394481 0
0.0607892 0.529809 0
0.363633 0.741842 0
0.417083 0.784079 0
0.387239 0.51011 0
0.481341 0.0493662 0
0.694518 -0.312822 0
0.801756 -0.421076 0
0.516736 -0.538639 0
0.264019 -0.632594 0
-0.0431214 -0.680946 0
-0.317147 -0.671886 0
-0.505244 -0.563056 0
-0.613977 -0.335581 0
-0.672964 -0.0338319 0
-0.681768 0.255693 0
-0.601606 0.466763 0
-0.402262 0.592432 0
-0.111667 0.662077 0
0.188997 0.68605 0
0.422742 0.632379 0
0.567505 0.46294 0
0.648589 0.188898 0
0.685525 -0.117806 0
0.655643 -0.372893 0
0.400198 -0.59189 0
0.315933 -0.703427 0
0.116493 -0.632987 0
-0.208856 -0.503195 0
-0.53171 -0.415719 0
-0.695501 -0.34427 0
-0.661864 -0.180388 0
-0.533826 0.120978 0
-0.432721 0.460916 0
-0.366469 0.674432 0
-0.234863 0.684745 0
0.0358941 0.566801 0
0.381718 0.45253 0
0.639798 0.384436 0
0.699292 0.27985 0
0.60053 0.0439291 0
0.475953 -0.296742 0
0.242337 -0.57807 0
0.329449 -0.692768 0
0.255402 -0.514943 0
-0.0832442 -0.283322 0
-0.499115 -0.226439 0
-0.69634 -0.31311 0
-0.576227 -0.299731 0
-0.330469 -0.0202395 0
-0.22074 0.405366 0
-0.290076 0.678415 0
-0.325784 0.629263 0
-0.113562 0.387382 0
0.301345 0.227709 0
0.638639 0.264953 0
0.669425 0.33485 0
0.450363 0.192864 0
0.248597 -0.192181 0
0.0526855 -0.514705 0
0.30849 -0.622651 0
0.371921 -0.348558 0
0.0512342 -0.0294924 0
-0.423317 -0.00626625 0
-0.637805 -0.247375 0
-0.438338 -0.391656 0
-0.09032 -0.161323 0
0.0217325 0.314183 0
-0.179732 0.624681 0
-0.385636 0.518154 0
-0.254473 0.167665 0
0.193829 -0.027909 0
0.583051 0.112556 0
0.581428 0.356473 0
0.25595 0.325753 0
-0.0106997 -0.0695287 0
-0.148236 -0.416987 0
0.258239 -0.511409 0
0.457586 -0.158927 0
0.180129 0.229242 0
-0.31937 0.221293 0
-0.53699 -0.156294 0
-0.271535 -0.450496 0
0.157843 -0.288587 0
0.268792 0.202395 0
-0.0486772 0.529387 0
-0.412026 0.372961 0
-0.374372 -0.0643988 0
0.0741738 -0.286682 0
0.488572 -0.055701 0
0.455143 0.345981 0
0.0439721 0.431861 0
-0.273246 0.0563614 0
-0.335286 -0.299752 0
0.18629 -0.376457 0
0.503583 0.0280269 0
0.287792 0.460203 0
-0.202346 0.427942 0
-0.410006 -0.0522215 0
-0.0993545 -0.470817 0
0.382264 -0.387121 0
0.48977 0.0854377 0
0.0860903 0.407806 0
-0.403471 0.214913 0
-0.459699 -0.278597 0
-0.0418582 -0.516415 0
0.370067 -0.218495 0
0.309717 0.30629 0
-0.157362 0.499654 0
-0.506191 0.169603 0
-0.483607 -0.177262 0
0.102385 -0.234223 0
0.504134 0.188659 0
0.360615 0.633297 0
-0.0865877 0.586302 0
-0.272224 0.0508606 0
0.0566406 -0.450199 0
0.553874 -0.444417 0
0.655484 -0.0222327 0
0.206546 0.274622 0
-0.361349 0.063599 0
-0.4996 -0.447376 0
-0.139804 -0.686887 0
0.241878 -0.354126 0
0.162998 0.242885 0
-0.322359 0.520525 0
-0.679025 0.255973 0
-0.572798 -0.0623166 0
0.0174389 -0.0992534 0
0.458348 0.304463 0
0.389387 0.725937 0
0.015456 0.674608 0
-0.137586 0.139202 0
0.179112 -0.390565 0
0.650843 -0.452829 0
0.743286 -0.108631 0
0.296357 0.143315 0
-0.290555 -0.0647196 0
-0.488351 -0.549897 0
-0.208327 -0.77504 0
0.117125 -0.444021 0
0.0303093 0.163692 0
-0.431317 0.491014 0
-0.768729 0.305042 0
-0.752328 0.036906 0
-0.231444 -0.0920299 0
0.310998 0.229156 0
0.415308 0.705808 0
0.120088 0.815628 0
-0.101392 0.386835 0
0.11446 -0.204655 0
0.602558 -0.438512 0
0.842121 -0.208512 0
0.53123 0.0803763 0
-0.0735768 -0.0188305 0
-0.429784 -0.482523 0
-0.293016 -0.831005 0
0.0323942 -0.655615 0
0.0513905 -0.0747555 0
-0.354884 0.387091 0
-0.784121 0.364636 0
