# vtk DataFile Version 3.0
tp3485 scalar+vector
ASCII
DATASET UNSTRUCTURED_GRID
POINTS 187 double
1 0 0
0.932472 0.361242 0
0.739009 0.673696 0
0.445738 0.895163 0
0.0922684 0.995734 0
-0.273663 0.961826 0
-0.602635 0.798017 0
-0.850217 0.526432 0
-0.982973 0.18375 0
-0.982973 -0.18375 0
-0.850217 -0.526432 0
-0.602635 -0.798017 0
-0.273663 -0.961826 0
0.0922684 -0.995734 0
0.445738 -0.895163 0
0.739009 -0.673696 0
0.932472 -0.361242 0
1.3 0 0
1.21221 0.469614 0
0.960712 0.875804 0
0.57946 1.16371 0
0.119949 1.29445 0
-0.355762 1.25037 0
-0.783425 1.03742 0
-1.10528 0.684362 0
-1.27787 0.238874 0
-1.27787 -0.238874 0
-1.10528 -0.684362 0
-0.783425 -1.03742 0
-0.355762 -1.25037 0
0.119949 -1.29445 0
0.57946 -1.16371 0
0.960712 -0.875804 0
1.21221 -0.469614 0
1.6 0 0
1.49196 0.577987 0
1.18241 1.07791 0
0.713181 1.43226 0
0.147629 1.59317 0
-0.437861 1.53892 0
-0.964215 1.27683 0
-1.36035 0.842291 0
-1.57276 0.293999 0
-1.57276 -0.293999 0
-1.36035 -0.842291 0
-0.964215 -1.27683 0
-0.437861 -1.53892 0
0.147629 -1.59317 0
0.713181 -1.43226 0
1.18241 -1.07791 0
1.49196 -0.577987 0
1.9 0 0
1.7717 0.686359 0
1.40412 1.28002 0
0.846903 1.70081 0
0.17531 1.89189 0
-0.51996 1.82747 0
-1.14501 1.51623 0
-1.61541 1.00022 0
-1.86765 0.349124 0
-1.86765 -0.349124 0
-1.61541 -1.00022 0
-1.14501 -1.51623 0
-0.51996 -1.82747 0
0.17531 -1.89189 0
0.846903 -1.70081 0
1.40412 -1.28002 0
1.7717 -0.686359 0
2.2 0 0
2.05144 0.794732 0
1.62582 1.48213 0
0.980624 1.96936 0
0.20299 2.19062 0
-0.602059 2.11602 0
-1.3258 1.75564 0
-1.87048 1.15815 0
-2.16254 0.404249 0
-2.16254 -0.404249 0
-1.87048 -1.15815 0
-1.3258 -1.75564 0
-0.602059 -2.11602 0
0.20299 -2.19062 0
0.980624 -1.96936 0
1.62582 -1.48213 0
2.05144 -0.794732 0
2.5 0 0
2.33118 0.903104 0
1.84752 1.68424 0
1.11435 2.23791 0
0.230671 2.48934 0
-0.684157 2.40456 0
-1.50659 1.99504 0
-2.12554 1.31608 0
-2.45743 0.459374 0
-2.45743 -0.459374 0
-2.12554 -1.31608 0
-1.50659 -1.99504 0
-0.684157 -2.40456 0
0.230671 -2.48934 0
1.11435 -2.23791 0
1.84752 -1.68424 0
2.33118 -0.903104 0
2.8 0 0
2.61092 1.01148 0
2.06922 1.88635 0
1.24807 2.50646 0
0.258351 2.78806 0
-0.766256 2.69311 0
-1.68738 2.23445 0
-2.38061 1.47401 0
-2.75232 0.514499 0
-2.75232 -0.514499 0
-2.38061 -1.47401 0
-1.68738 -2.23445 0
-0.766256 -2.69311 0
0.258351 -2.78806 0
1.24807 -2.50646 0
2.06922 -1.88635 0
2.61092 -1.01148 0
3.1 0 0
2.89066 1.11985 0
2.29093 2.08846 0
1.38179 2.77501 0
0.286032 3.08678 0
-0.848355 2.98166 0
-1.86817 2.47385 0
-2.63567 1.63194 0
-3.04722 0.569624 0
-3.04722 -0.569624 0
-2.63567 -1.63194 0
-1.86817 -2.47385 0
-0.848355 -2.98166 0
0.286032 -3.08678 0
1.38179 -2.77501 0
2.29093 -2.08846 0
2.89066 -1.11985 0
3.4 0 0
3.17041 1.22822 0
2.51263 2.29057 0
1.51551 3.04356 0
0.313712 3.3855 0
-0.930454 3.27021 0
-2.04896 2.71326 0
-2.89074 1.78987 0
-3.34211 0.624748 0
-3.34211 -0.624748 0
-2.89074 -1.78987 0
-2.04896 -2.71326 0
-0.930454 -3.27021 0
0.313712 -3.3855 0
1.51551 -3.04356 0
2.51263 -2.29057 0
3.17041 -1.22822 0
3.7 0 0
3.45015 1.33659 0
2.73433 2.49267 0
1.64923 3.3121 0
0.341393 3.68422 0
-1.01255 3.55875 0
-2.22975 2.95266 0
-3.1458 1.9478 0
-3.637 0.679873 0
-3.637 -0.679873 0
-3.1458 -1.9478 0
-2.22975 -2.95266 0
-1.01255 -3.55875 0
0.341393 -3.68422 0
1.64923 -3.3121 0
2.73433 -2.49267 0
3.45015 -1.33659 0
4 0 0
3.72989 1.44497 0
2.95604 2.69478 0
1.78295 3.58065 0
0.369073 3.98294 0
-1.09465 3.8473 0
-2.41054 3.19207 0
-3.40087 2.10573 0
-3.93189 0.734998 0
-3.93189 -0.734998 0
-3.40087 -2.10573 0
-2.41054 -3.19207 0
-1.09465 -3.8473 0
0.369073 -3.98294 0
1.78295 -3.58065 0
2.95604 -2.69478 0
3.72989 -1.44497 0
CELLS 340 1360
3 0 17 18
3 0 18 1
3 1 18 19
3 1 19 2
3 2 19 20
3 2 20 3
3 3 20 21
3 3 21 4
3 4 21 22
3 4 22 5
3 5 22 23
3 5 23 6
3 6 23 24
3 6 24 7
3 7 24 25
3 7 25 8
3 8 25 26
3 8 26 9
3 9 26 27
3 9 27 10
3 10 27 28
3 10 28 11
3 11 28 29
3 11 29 12
3 12 29 30
3 12 30 13
3 13 30 31
3 13 31 14
3 14 31 32
3 14 32 15
3 15 32 33
3 15 33 16
3 16 33 17
3 16 17 0
3 17 34 35
3 17 35 18
3 18 35 36
3 18 36 19
3 19 36 37
3 19 37 20
3 20 37 38
3 20 38 21
3 21 38 39
3 21 39 22
3 22 39 40
3 22 40 23
3 23 40 41
3 23 41 24
3 24 41 42
3 24 42 25
3 25 42 43
3 25 43 26
3 26 43 44
3 26 44 27
3 27 44 45
3 27 45 28
3 28 45 46
3 28 46 29
3 29 46 47
3 29 47 30
3 30 47 48
3 30 48 31
3 31 48 49
3 31 49 32
3 32 49 50
3 32 50 33
3 33 50 34
3 33 34 17
3 34 51 52
3 34 52 35
3 35 52 53
3 35 53 36
3 36 53 54
3 36 54 37
3 37 54 55
3 37 55 38
3 38 55 56
3 38 56 39
3 39 56 57
3 39 57 40
3 40 57 58
3 40 58 41
3 41 58 59
3 41 59 42
3 42 59 60
3 42 60 43
3 43 60 61
3 43 61 44
3 44 61 62
3 44 62 45
3 45 62 63
3 45 63 46
3 46 63 64
3 46 64 47
3 47 64 65
3 47 65 48
3 48 65 66
3 48 66 49
3 49 66 67
3 49 67 50
3 50 67 51
3 50 51 34
3 51 68 69
3 51 69 52
3 52 69 70
3 52 70 53
3 53 70 71
3 53 71 54
3 54 71 72
3 54 72 55
3 55 72 73
3 55 73 56
3 56 73 74
3 56 74 57
3 57 74 75
3 57 75 58
3 58 75 76
3 58 76 59
3 59 76 77
3 59 77 60
3 60 77 78
3 60 78 61
3 61 78 79
3 61 79 62
3 62 79 80
3 62 80 63
3 63 80 81
3 63 81 64
3 64 81 82
3 64 82 65
3 65 82 83
3 65 83 66
3 66 83 84
3 66 84 67
3 67 84 68
3 67 68 51
3 68 85 86
3 68 86 69
3 69 86 87
3 69 87 70
3 70 87 88
3 70 88 71
3 71 88 89
3 71 89 72
3 72 89 90
3 72 90 73
3 73 90 91
3 73 91 74
3 74 91 92
3 74 92 75
3 75 92 93
3 75 93 76
3 76 93 94
3 76 94 77
3 77 94 95
3 77 95 78
3 78 95 96
3 78 96 79
3 79 96 97
3 79 97 80
3 80 97 98
3 80 98 81
3 81 98 99
3 81 99 82
3 82 99 100
3 82 100 83
3 83 100 101
3 83 101 84
3 84 101 85
3 84 85 68
3 85 102 103
3 85 103 86
3 86 103 104
3 86 104 87
3 87 104 105
3 87 105 88
3 88 105 106
3 88 106 89
3 89 106 107
3 89 107 90
3 90 107 108
3 90 108 91
3 91 108 109
3 91 109 92
3 92 109 110
3 92 110 93
3 93 110 111
3 93 111 94
3 94 111 112
3 94 112 95
3 95 112 113
3 95 113 96
3 96 113 114
3 96 114 97
3 97 114 115
3 97 115 98
3 98 115 116
3 98 116 99
3 99 116 117
3 99 117 100
3 100 117 118
3 100 118 101
3 101 118 102
3 101 102 85
3 102 119 120
3 102 120 103
3 103 120 121
3 103 121 104
3 104 121 122
3 104 122 105
3 105 122 123
3 105 123 106
3 106 123 124
3 106 124 107
3 107 124 125
3 107 125 108
3 108 125 126
3 108 126 109
3 109 126 127
3 109 127 110
3 110 127 128
3 110 128 111
3 111 128 129
3 111 129 112
3 112 129 130
3 112 130 113
3 113 130 131
3 113 131 114
3 114 131 132
3 114 132 115
3 115 132 133
3 115 133 116
3 116 133 134
3 116 134 117
3 117 134 135
3 117 135 118
3 118 135 119
3 118 119 102
3 119 136 137
3 119 137 120
3 120 137 138
3 120 138 121
3 121 138 139
3 121 139 122
3 122 139 140
3 122 140 123
3 123 140 141
3 123 141 124
3 124 141 142
3 124 142 125
3 125 142 143
3 125 143 126
3 126 143 144
3 126 144 127
3 127 144 145
3 127 145 128
3 128 145 146
3 128 146 129
3 129 146 147
3 129 147 130
3 130 147 148
3 130 148 131
3 131 148 149
3 131 149 132
3 132 149 150
3 132 150 133
3 133 150 151
3 133 151 134
3 134 151 152
3 134 152 135
3 135 152 136
3 135 136 119
3 136 153 154
3 136 154 137
3 137 154 155
3 137 155 138
3 138 155 156
3 138 156 139
3 139 156 157
3 139 157 140
3 140 157 158
3 140 158 141
3 141 158 159
3 141 159 142
3 142 159 160
3 142 160 143
3 143 160 161
3 143 161 144
3 144 161 162
3 144 162 145
3 145 162 163
3 145 163 146
3 146 163 164
3 146 164 147
3 147 164 165
3 147 165 148
3 148 165 166
3 148 166 149
3 149 166 167
3 149 167 150
3 150 167 168
3 150 168 151
3 151 168 169
3 151 169 152
3 152 169 153
3 152 153 136
3 153 170 171
3 153 171 154
3 154 171 172
3 154 172 155
3 155 172 173
3 155 173 156
3 156 173 174
3 156 174 157
3 157 174 175
3 157 175 158
3 158 175 176
3 158 176 159
3 159 176 177
3 159 177 160
3 160 177 178
3 160 178 161
3 161 178 179
3 161 179 162
3 162 179 180
3 162 180 163
3 163 180 181
3 163 181 164
3 164 181 182
3 164 182 165
3 165 182 183
3 165 183 166
3 166 183 184
3 166 184 167
3 167 184 185
3 167 185 168
3 168 185 186
3 168 186 169
3 169 186 170
3 169 170 153
CELL_TYPES 340
5
5
5
5
5
5
5
5
5
5
5
5
5
5
5
5
5
5
5
5
5
5
5
5
5
5
5
5
5
5
5
5
5
5
5
5
5
5
5
5
5
5
5
5
5
5
5
5
5
5
5
5
5
5
5
5
5
5
5
5
5
5
5
5
5
5
5
5
5
5
5
5
5
5
5
5
5
5
5
5
5
5
5
5
5
5
5
5
5
5
5
5
5
5
5
5
5
5
5
5
5
5
5
5
5
5
5
5
5
5
5
5
5
5
5
5
5
5
5
5
5
5
5
5
5
5
5
5
5
5
5
5
5
5
5
5
5
5
5
5
5
5
5
5
5
5
5
5
5
5
5
5
5
5
5
5
5
5
5
5
5
5
5
5
5
5
5
5
5
5
5
5
5
5
5
5
5
5
5
5
5
5
5
5
5
5
5
5
5
5
5
5
5
5
5
5
5
5
5
5
5
5
5
5
5
5
5
5
5
5
5
5
5
5
5
5
5
5
5
5
5
5
5
5
5
5
5
5
5
5
5
5
5
5
5
5
5
5
5
5
5
5
5
5
5
5
5
5
5
5
5
5
5
5
5
5
5
5
5
5
5
5
5
5
5
5
5
5
5
5
5
5
5
5
5
5
5
5
5
5
5
5
5
5
5
5
5
5
5
5
5
5
5
5
5
5
5
5
5
5
5
5
5
5
5
5
5
5
5
5
5
5
5
5
5
5
5
5
5
5
5
5
5
5
5
5
5
5
5
5
5
5
5
5
5
5
5
5
5
5
POINT_DATA 187
SCALARS psi double 1
LOOKUP_TABLE default
0
0
0
0
0
0
0
0
0
0
0
0
0
0
0
0
0
-0.427587
-0.427587
-0.427587
-0.427587
-0.427587
-0.427587
-0.427587
-0.427587
-0.427587
-0.427587
-0.427587
-0.427587
-0.427587
-0.427587
-0.427587
-0.427587
-0.427587
-0.730711
-0.730711
-0.730711
-0.730711
-0.730711
-0.730711
-0.730711
-0.730711
-0.730711
-0.730711
-0.730711
-0.730711
-0.730711
-0.730711
-0.730711
-0.730711
-0.730711
-0.919139
-0.919139
-0.919139
-0.919139
-0.919139
-0.919139
-0.919139
-0.919139
-0.919139
-0.919139
-0.919139
-0.919139
-0.919139
-0.919139
-0.919139
-0.919139
-0.919139
-1
-1
-1
-1
-1
-1
-1
-1
-1
-1
-1
-1
-1
-1
-1
-1
-1
-0.982632
-0.982632
-0.982632
-0.982632
-0.982632
-0.982632
-0.982632
-0.982632
-0.982632
-0.982632
-0.982632
-0.982632
-0.982632
-0.982632
-0.982632
-0.982632
-0.982632
-0.880185
-0.880185
-0.880185
-0.880185
-0.880185
-0.880185
-0.880185
-0.880185
-0.880185
-0.880185
-0.880185
-0.880185
-0.880185
-0.880185
-0.880185
-0.880185
-0.880185
-0.709709
-0.709709
-0.709709
-0.709709
-0.709709
-0.709709
-0.709709
-0.709709
-0.709709
-0.709709
-0.709709
-0.709709
-0.709709
-0.709709
-0.709709
-0.709709
-0.709709
-0.491404
-0.491404
-0.491404
-0.491404
-0.491404
-0.491404
-0.491404
-0.491404
-0.491404
-0.491404
-0.491404
-0.491404
-0.491404
-0.491404
-0.491404
-0.491404
-0.491404
-0.247354
-0.247354
-0.247354
-0.247354
-0.247354
-0.247354
-0.247354
-0.247354
-0.247354
-0.247354
-0.247354
-0.247354
-0.247354
-0.247354
-0.247354
-0.247354
-0.247354
0
0
0
0
0
0
0
0
0
0
0
0
0
0
0
0
0
VECTORS Et double
0.9973 0.0734412 0
0.903424 0.428748 0
0.687536 0.72615 0
0.378793 0.925481 0
0.0188913 0.999822 0
-0.343562 0.93913 0
-0.659615 0.751604 0
-0.886583 0.46257 0
-0.993813 0.111063 0
-0.966824 -0.255444 0
-0.809259 -0.587452 0
-0.5424 -0.84012 0
-0.202286 -0.979326 0
0.165147 -0.986269 0
0.510277 -0.86001 0
0.78649 -0.617603 0
0.956484 -0.291784 0
0.840986 0.00320914 0
0.783037 0.306792 0
0.619334 0.56894 0
0.371987 0.75425 0
0.074401 0.837695 0
-0.233233 0.808004 0
-0.509368 0.669187 0
-0.71671 0.439994 0
-0.827256 0.151376 0
-0.826077 -0.157685 0
-0.713331 -0.445451 0
-0.504246 -0.673055 0
-0.22706 -0.80976 0
0.0807919 -0.837103 0
0.377732 -0.751389 0
0.623658 -0.564197 0
0.785355 -0.300807 0
0.564885 -0.00163722 0
0.527331 0.202533 0
0.418558 0.379351 0
0.253256 0.504934 0
0.0537512 0.562324 0
-0.153013 0.543769 0
-0.339113 0.451775 0
-0.479413 0.298766 0
-0.554966 0.105407 0
-0.555567 -0.102188 0
-0.481137 -0.295982 0
-0.341726 -0.449801 0
-0.156163 -0.542873 0
0.0504908 -0.562626 0
0.250325 -0.506394 0
0.416352 -0.38177 0
0.526148 -0.205587 0
0.307441 -0.00472675 0
0.288387 0.106653 0
0.230386 0.203628 0
0.141269 0.273103 0
0.0330736 0.305693 0
-0.0795888 0.296998 0
-0.181502 0.248192 0
-0.258903 0.165865 0
-0.301337 0.0611384 0
-0.303075 -0.0518458 0
-0.26388 -0.157828 0
-0.189046 -0.242495 0
-0.0886815 -0.294411 0
0.0236605 -0.306565 0
0.132807 -0.277317 0
0.224017 -0.210615 0
0.284972 -0.115468 0
0.0688389 -0.00650878 0
0.0665416 0.0187982 0
0.0552575 0.0415664 0
0.0365105 0.0587208 0
0.0128327 0.0679447 0
-0.0125783 0.0679922 0
-0.0362906 0.058857 0
-0.0551016 0.0417729 0
-0.0664708 0.0190471 0
-0.0688628 -0.00625116 0
-0.0619544 -0.0307051 0
-0.0466788 -0.0510122 0
-0.025099 -0.0644298 0
-0.00012936 -0.0691458 0
0.0248577 -0.0645233 0
0.0464876 -0.0511865 0
0.0618391 -0.0309367 0
-0.143696 -0.00722724 0
-0.131382 -0.0586483 0
-0.101324 -0.102149 0
-0.0575814 -0.131853 0
-0.00606222 -0.14375 0
0.0462757 -0.136233 0
0.0923639 -0.110317 0
0.125978 -0.0695017 0
0.142578 -0.0193 0
0.139922 0.0335083 0
0.118369 0.0817911 0
0.080829 0.119028 0
0.032373 0.140189 0
-0.020455 0.142417 0
-0.0705206 0.12541 0
-0.111062 0.0914667 0
-0.136604 0.0451699 0
-0.321115 -0.00706826 0
-0.296877 -0.122591 0
-0.232545 -0.221557 0
-0.136806 -0.290601 0
-0.0225906 -0.320397 0
0.0946757 -0.306922 0
0.199155 -0.251996 0
0.276738 -0.163036 0
0.316946 -0.0520568 0
0.314348 0.0659526 0
0.269296 0.175055 0
0.187874 0.260515 0
0.0810788 0.310791 0
-0.0366668 0.319093 0
-0.14946 0.2843 0
-0.242069 0.21111 0
-0.301984 0.109409 0
-0.455193 -0.0062096 0
-0.422212 -0.170225 0
-0.332208 -0.311251 0
-0.197338 -0.41024 0
-0.0358168 -0.453824 0
0.130542 -0.436117 0
0.279271 -0.35951 0
0.390282 -0.234349 0
0.448584 -0.0775377 0
0.446302 0.0897454 0
0.383744 0.244908 0
0.26936 0.366994 0
0.118597 0.439516 0
-0.048183 0.452678 0
-0.208456 0.404704 0
-0.340575 0.302073 0
-0.426698 0.158644 0
-0.540079 -0.00483528 0
-0.501862 -0.199608 0
-0.395865 -0.367422 0
-0.236405 -0.485614 0
-0.0450175 -0.538221 0
0.15245 -0.518138 0
0.329329 -0.428078 0
0.46173 -0.280204 0
0.531771 -0.0944862 0
0.529994 0.103992 0
0.456639 0.288426 0
0.321611 0.433906 0
0.143149 0.520785 0
-0.0546468 0.537329 0
-0.245062 0.481303 0
-0.40238 0.360275 0
-0.505355 0.19059 0
-0.573177 -0.00313543 0
-0.533339 -0.209979 0
-0.421471 -0.388464 0
-0.25268 -0.514485 0
-0.049764 -0.571021 0
0.159873 -0.550438 0
0.347918 -0.455516 0
0.488976 -0.299073 0
0.563994 -0.102239 0
0.562841 0.108403 0
0.485674 0.304405 0
0.342914 0.459295 0
0.153842 0.552154 0
-0.0560082 0.570443 0
-0.258294 0.511689 0
-0.425695 0.38383 0
-0.535604 0.204132 0
-0.576927 0.0341052 0
-0.550288 -0.176608 0
-0.449331 -0.363469 0
-0.287688 -0.501242 0
-0.0871918 -0.571319 0
0.12508 -0.564236 0
0.320459 -0.480951 0
0.472559 -0.33271 0
0.560837 -0.139535 0
0.57337 0.0724855 0
0.508467 0.274716 0
0.374893 0.439845 0
0.190687 0.54557 0
-0.0192723 0.577613 0
-0.226629 0.531646 0
-0.403377 0.413877 0
-0.525648 0.240212 0
