# vtk DataFile Version 3.0
tp3485 scalar+vector
ASCII
DATASET UNSTRUCTURED_GRID
POINTS 187 double
1 0 0
0.932472 0.361242 0
0.739009 0.673696 0
0.445738 0.895163 0
0.0922684 0.995734 0
-0.273663 0.961826 0
-0.602635 0.798017 0
-0.850217 0.526432 0
-0.982973 0.18375 0
-0.982973 -0.18375 0
-0.850217 -0.526432 0
-0.602635 -0.798017 0
-0.273663 -0.961826 0
0.0922684 -0.995734 0
0.445738 -0.895163 0
0.739009 -0.673696 0
0.932472 -0.361242 0
1.3 0 0
1.21221 0.469614 0
0.960712 0.875804 0
0.57946 1.16371 0
0.119949 1.29445 0
-0.355762 1.25037 0
-0.783425 1.03742 0
-1.10528 0.684362 0
-1.27787 0.238874 0
-1.27787 -0.238874 0
-1.10528 -0.684362 0
-0.783425 -1.03742 0
-0.355762 -1.25037 0
0.119949 -1.29445 0
0.57946 -1.16371 0
0.960712 -0.875804 0
1.21221 -0.469614 0
1.6 0 0
1.49196 0.577987 0
1.18241 1.07791 0
0.713181 1.43226 0
0.147629 1.59317 0
-0.437861 1.53892 0
-0.964215 1.27683 0
-1.36035 0.842291 0
-1.57276 0.293999 0
-1.57276 -0.293999 0
-1.36035 -0.842291 0
-0.964215 -1.27683 0
-0.437861 -1.53892 0
0.147629 -1.59317 0
0.713181 -1.43226 0
1.18241 -1.07791 0
1.49196 -0.577987 0
1.9 0 0
1.7717 0.686359 0
1.40412 1.28002 0
0.846903 1.70081 0
0.17531 1.89189 0
-0.51996 1.82747 0
-1.14501 1.51623 0
-1.61541 1.00022 0
-1.86765 0.349124 0
-1.86765 -0.349124 0
-1.61541 -1.00022 0
-1.14501 -1.51623 0
-0.51996 -1.82747 0
0.17531 -1.89189 0
0.846903 -1.70081 0
1.40412 -1.28002 0
1.7717 -0.686359 0
2.2 0 0
2.05144 0.794732 0
1.62582 1.48213 0
0.980624 1.96936 0
0.20299 2.19062 0
-0.602059 2.11602 0
-1.3258 1.75564 0
-1.87048 1.15815 0
-2.16254 0.404249 0
-2.16254 -0.404249 0
-1.87048 -1.15815 0
-1.3258 -1.75564 0
-0.602059 -2.11602 0
0.20299 -2.19062 0
0.980624 -1.96936 0
1.62582 -1.48213 0
2.05144 -0.794732 0
2.5 0 0
2.33118 0.903104 0
1.84752 1.68424 0
1.11435 2.23791 0
0.230671 2.48934 0
-0.684157 2.40456 0
-1.50659 1.99504 0
-2.12554 1.31608 0
-2.45743 0.459374 0
-2.45743 -0.459374 0
-2.12554 -1.31608 0
-1.50659 -1.99504 0
-0.684157 -2.40456 0
0.230671 -2.48934 0
1.11435 -2.23791 0
1.84752 -1.68424 0
2.33118 -0.903104 0
2.8 0 0
2.61092 1.01148 0
2.06922 1.88635 0
1.24807 2.50646 0
0.258351 2.78806 0
-0.766256 2.69311 0
-1.68738 2.23445 0
-2.38061 1.47401 0
-2.75232 0.514499 0
-2.75232 -0.514499 0
-2.38061 -1.47401 0
-1.68738 -2.23445 0
-0.766256 -2.69311 0
0.258351 -2.78806 0
1.24807 -2.50646 0
2.06922 -1.88635 0
2.61092 -1.01148 0
3.1 0 0
2.89066 1.11985 0
2.29093 2.08846 0
1.38179 2.77501 0
0.286032 3.08678 0
-0.848355 2.98166 0
-1.86817 2.47385 0
-2.63567 1.63194 0
-3.04722 0.569624 0
-3.04722 -0.569624 0
-2.63567 -1.63194 0
-1.86817 -2.47385 0
-0.848355 -2.98166 0
0.286032 -3.08678 0
1.38179 -2.77501 0
2.29093 -2.08846 0
2.89066 -1.11985 0
3.4 0 0
3.17041 1.22822 0
2.51263 2.29057 0
1.51551 3.04356 0
0.313712 3.3855 0
-0.930454 3.27021 0
-2.04896 2.71326 0
-2.89074 1.78987 0
-3.34211 0.624748 0
-3.34211 -0.624748 0
-2.89074 -1.78987 0
-2.04896 -2.71326 0
-0.930454 -3.27021 0
0.313712 -3.3855 0
1.51551 -3.04356 0
2.51263 -2.29057 0
3.17041 -1.22822 0
3.7 0 0
3.45015 1.33659 0
2.73433 2.49267 0
1.64923 3.3121 0
0.341393 3.68422 0
-1.01255 3.55875 0
-2.22975 2.95266 0
-3.1458 1.9478 0
-3.637 0.679873 0
-3.637 -0.679873 0
-3.1458 -1.9478 0
-2.22975 -2.95266 0
-1.01255 -3.55875 0
0.341393 -3.68422 0
1.64923 -3.3121 0
2.73433 -2.49267 0
3.45015 -1.33659 0
4 0 0
3.72989 1.44497 0
2.95604 2.69478 0
1.78295 3.58065 0
0.369073 3.98294 0
-1.09465 3.8473 0
-2.41054 3.19207 0
-3.40087 2.10573 0
-3.93189 0.734998 0
-3.93189 -0.734998 0
-3.40087 -2.10573 0
-2.41054 -3.19207 0
-1.09465 -3.8473 0
0.369073 -3.98294 0
1.78295 -3.58065 0
2.95604 -2.69478 0
3.72989 -1.44497 0
CELLS 340 1360
3 0 17 18
3 0 18 1
3 1 18 19
3 1 19 2
3 2 19 20
3 2 20 3
3 3 20 21
3 3 21 4
3 4 21 22
3 4 22 5
3 5 22 23
3 5 23 6
3 6 23 24
3 6 24 7
3 7 24 25
3 7 25 8
3 8 25 26
3 8 26 9
3 9 26 27
3 9 27 10
3 10 27 28
3 10 28 11
3 11 28 29
3 11 29 12
3 12 29 30
3 12 30 13
3 13 30 31
3 13 31 14
3 14 31 32
3 14 32 15
3 15 32 33
3 15 33 16
3 16 33 17
3 16 17 0
3 17 34 35
3 17 35 18
3 18 35 36
3 18 36 19
3 19 36 37
3 19 37 20
3 20 37 38
3 20 38 21
3 21 38 39
3 21 39 22
3 22 39 40
3 22 40 23
3 23 40 41
3 23 41 24
3 24 41 42
3 24 42 25
3 25 42 43
3 25 43 26
3 26 43 44
3 26 44 27
3 27 44 45
3 27 45 28
3 28 45 46
3 28 46 29
3 29 46 47
3 29 47 30
3 30 47 48
3 30 48 31
3 31 48 49
3 31 49 32
3 32 49 50
3 32 50 33
3 33 50 34
3 33 34 17
3 34 51 52
3 34 52 35
3 35 52 53
3 35 53 36
3 36 53 54
3 36 54 37
3 37 54 55
3 37 55 38
3 38 55 56
3 38 56 39
3 39 56 57
3 39 57 40
3 40 57 58
3 40 58 41
3 41 58 59
3 41 59 42
3 42 59 60
3 42 60 43
3 43 60 61
3 43 61 44
3 44 61 62
3 44 62 45
3 45 62 63
3 45 63 46
3 46 63 64
3 46 64 47
3 47 64 65
3 47 65 48
3 48 65 66
3 48 66 49
3 49 66 67
3 49 67 50
3 50 67 51
3 50 51 34
3 51 68 69
3 51 69 52
3 52 69 70
3 52 70 53
3 53 70 71
3 53 71 54
3 54 71 72
3 54 72 55
3 55 72 73
3 55 73 56
3 56 73 74
3 56 74 57
3 57 74 75
3 57 75 58
3 58 75 76
3 58 76 59
3 59 76 77
3 59 77 60
3 60 77 78
3 60 78 61
3 61 78 79
3 61 79 62
3 62 79 80
3 62 80 63
3 63 80 81
3 63 81 64
3 64 81 82
3 64 82 65
3 65 82 83
3 65 83 66
3 66 83 84
3 66 84 67
3 67 84 68
3 67 68 51
3 68 85 86
3 68 86 69
3 69 86 87
3 69 87 70
3 70 87 88
3 70 88 71
3 71 88 89
3 71 89 72
3 72 89 90
3 72 90 73
3 73 90 91
3 73 91 74
3 74 91 92
3 74 92 75
3 75 92 93
3 75 93 76
3 76 93 94
3 76 94 77
3 77 94 95
3 77 95 78
3 78 95 96
3 78 96 79
3 79 96 97
3 79 97 80
3 80 97 98
3 80 98 81
3 81 98 99
3 81 99 82
3 82 99 100
3 82 100 83
3 83 100 101
3 83 101 84
3 84 101 85
3 84 85 68
3 85 102 103
3 85 103 86
3 86 103 104
3 86 104 87
3 87 104 105
3 87 105 88
3 88 105 106
3 88 106 89
3 89 106 107
3 89 107 90
3 90 107 108
3 90 108 91
3 91 108 109
3 91 109 92
3 92 109 110
3 92 110 93
3 93 110 111
3 93 111 94
3 94 111 112
3 94 112 95
3 95 112 113
3 95 113 96
3 96 113 114
3 96 114 97
3 97 114 115
3 97 115 98
3 98 115 116
3 98 116 99
3 99 116 117
3 99 117 100
3 100 117 118
3 100 118 101
3 101 118 102
3 101 102 85
3 102 119 120
3 102 120 103
3 103 120 121
3 103 121 104
3 104 121 122
3 104 122 105
3 105 122 123
3 105 123 106
3 106 123 124
3 106 124 107
3 107 124 125
3 107 125 108
3 108 125 126
3 108 126 109
3 109 126 127
3 109 127 110
3 110 127 128
3 110 128 111
3 111 128 129
3 111 129 112
3 112 129 130
3 112 130 113
3 113 130 131
3 113 131 114
3 114 131 132
3 114 132 115
3 115 132 133
3 115 133 116
3 116 133 134
3 116 134 117
3 117 134 135
3 117 135 118
3 118 135 119
3 118 119 102
3 119 136 137
3 119 137 120
3 120 137 138
3 120 138 121
3 121 138 139
3 121 139 122
3 122 139 140
3 122 140 123
3 123 140 141
3 123 141 124
3 124 141 142
3 124 142 125
3 125 142 143
3 125 143 126
3 126 143 144
3 126 144 127
3 127 144 145
3 127 145 128
3 128 145 146
3 128 146 129
3 129 146 147
3 129 147 130
3 130 147 148
3 130 148 131
3 131 148 149
3 131 149 132
3 132 149 150
3 132 150 133
3 133 150 151
3 133 151 134
3 134 151 152
3 134 152 135
3 135 152 136
3 135 136 119
3 136 153 154
3 136 154 137
3 137 154 155
3 137 155 138
3 138 155 156
3 138 156 139
3 139 156 157
3 139 157 140
3 140 157 158
3 140 158 141
3 141 158 159
3 141 159 142
3 142 159 160
3 142 160 143
3 143 160 161
3 143 161 144
3 144 161 162
3 144 162 145
3 145 162 163
3 145 163 146
3 146 163 164
3 146 164 147
3 147 164 165
3 147 165 148
3 148 165 166
3 148 166 149
3 149 166 167
3 149 167 150
3 150 167 168
3 150 168 151
3 151 168 169
3 151 169 152
3 152 169 153
3 152 153 136
3 153 170 171
3 153 171 154
3 154 171 172
3 154 172 155
3 155 172 173
3 155 173 156
3 156 173 174
3 156 174 157
3 157 174 175
3 157 175 158
3 158 175 176
3 158 176 159
3 159 176 177
3 159 177 160
3 160 177 178
3 160 178 161
3 161 178 179
3 161 179 162
3 162 179 180
3 162 180 163
3 163 180 181
3 163 181 164
3 164 181 182
3 164 182 165
3 165 182 183
3 165 183 166
3 166 183 184
3 166 184 167
3 167 184 185
3 167 185 168
3 168 185 186
3 168 186 169
3 169 186 170
3 169 170 153
CELL_TYPES 340
5
5
5
5
5
5
5
5
5
5
5
5
5
5
5
5
5
5
5
5
5
5
5
5
5
5
5
5
5
5
5
5
5
5
5
5
5
5
5
5
5
5
5
5
5
5
5
5
5
5
5
5
5
5
5
5
5
5
5
5
5
5
5
5
5
5
5
5
5
5
5
5
5
5
5
5
5
5
5
5
5
5
5
5
5
5
5
5
5
5
5
5
5
5
5
5
5
5
5
5
5
5
5
5
5
5
5
5
5
5
5
5
5
5
5
5
5
5
5
5
5
5
5
5
5
5
5
5
5
5
5
5
5
5
5
5
5
5
5
5
5
5
5
5
5
5
5
5
5
5
5
5
5
5
5
5
5
5
5
5
5
5
5
5
5
5
5
5
5
5
5
5
5
5
5
5
5
5
5
5
5
5
5
5
5
5
5
5
5
5
5
5
5
5
5
5
5
5
5
5
5
5
5
5
5
5
5
5
5
5
5
5
5
5
5
5
5
5
5
5
5
5
5
5
5
5
5
5
5
5
5
5
5
5
5
5
5
5
5
5
5
5
5
5
5
5
5
5
5
5
5
5
5
5
5
5
5
5
5
5
5
5
5
5
5
5
5
5
5
5
5
5
5
5
5
5
5
5
5
5
5
5
5
5
5
5
5
5
5
5
5
5
5
5
5
5
5
5
5
5
5
5
5
5
5
5
5
5
5
5
5
5
5
5
5
5
5
5
5
5
5
5
5
5
5
5
5
5
5
5
5
5
5
5
5
5
5
5
5
5
POINT_DATA 187
SCALARS psi double 1
LOOKUP_TABLE default
0
0
0
0
0
0
0
0
0
0
0
0
0
0
0
0
0
0.214815
0.20468
-0.0323481
-0.233518
-0.175827
0.0767715
0.244267
0.140987
-0.118581
-0.246699
-0.101346
0.156352
0.24073
0.0582533
-0.188798
-0.226562
-0.013177
0.420147
0.410256
-0.0544134
-0.458764
-0.354564
0.142678
0.481759
0.286798
-0.226085
-0.488347
-0.209266
0.301792
0.478306
0.124607
-0.367222
-0.451977
-0.0357046
0.609118
0.60952
-0.0657455
-0.66813
-0.529877
0.195757
0.70439
0.43219
-0.319103
-0.716663
-0.319786
0.431582
0.70453
0.196491
-0.529363
-0.668406
-0.0665051
0.754835
0.774054
-0.0647839
-0.831807
-0.676753
0.228498
0.880454
0.556406
-0.384431
-0.899117
-0.417111
0.527272
0.887162
0.263612
-0.652158
-0.844996
-0.101136
0.829114
0.871321
-0.0523514
-0.917991
-0.766016
0.235105
0.975607
0.634626
-0.409853
-1
-0.481624
0.570644
0.990339
0.312221
-0.712002
-0.946954
-0.132185
0.812724
0.875337
-0.0323814
-0.904204
-0.773695
0.214473
0.964893
0.645707
-0.38926
-0.992723
-0.495729
0.550792
0.986748
0.328871
-0.693567
-0.947169
-0.150812
0.701456
0.774347
-0.0111432
-0.784281
-0.688025
0.170923
0.840399
0.578273
-0.324882
-0.867898
-0.448829
0.467777
0.865842
0.3041
-0.594743
-0.8343
-0.149016
0.508276
0.575155
0.00446169
-0.571177
-0.513653
0.113268
0.614629
0.434659
-0.22714
-0.637149
-0.340864
0.333277
0.637973
0.235461
-0.428065
-0.617071
-0.122039
0.261566
0.303443
0.00894575
-0.295468
-0.272348
0.0526755
0.319307
0.23198
-0.112503
-0.332273
-0.183711
0.168499
0.333924
0.129186
-0.218758
-0.324204
-0.0702624
0
0
0
0
0
0
0
0
0
0
0
0
0
0
0
0
0
VECTORS Et double
-0.698288 -0.0418628 0
-0.477637 0.0200997 0
0.0843165 0.364261 0
0.319303 0.636884 0
0.243419 0.306259 0
0.296819 -0.3528 0
0.38679 -0.588005 0
0.0538587 -0.303478 0
-0.539475 -0.0609676 0
-0.673073 -0.0364242 0
-0.190177 0.161463 0
0.262781 0.553341 0
0.289567 0.553404 0
0.241079 -0.0326745 0
0.369759 -0.553575 0
0.285473 -0.479365 0
-0.254515 -0.14656 0
-0.596601 -0.176786 0
-0.671053 0.110522 0
-0.271629 0.408343 0
0.213071 0.62238 0
0.452526 0.467214 0
0.487547 -0.0693746 0
0.407968 -0.5508 0
0.109474 -0.603676 0
-0.387153 -0.334367 0
-0.701749 -0.0302601 0
-0.512755 0.256779 0
-0.010722 0.543455 0
0.367995 0.603988 0
0.485446 0.226195 0
0.465649 -0.349906 0
0.293405 -0.635115 0
-0.131417 -0.488591 0
-0.576894 -0.341399 0
-0.727867 0.223797 0
-0.4808 0.592584 0
0.0981586 0.662739 0
0.622706 0.468518 0
0.740705 0.034105 0
0.460201 -0.498867 0
0.0187984 -0.790708 0
-0.405912 -0.592612 0
-0.693171 -0.0516684 0
-0.658845 0.445229 0
-0.213613 0.663104 0
0.395724 0.597265 0
0.741206 0.277801 0
0.636617 -0.238355 0
0.24536 -0.697769 0
-0.202373 -0.753764 0
-0.49626 -0.453476 0
-0.713798 0.292519 0
-0.626331 0.682745 0
-0.0159528 0.630556 0
0.706502 0.436431 0
0.883343 0.135077 0
0.462714 -0.401737 0
-0.0477796 -0.879871 0
-0.368964 -0.761645 0
-0.618888 -0.0695371 0
-0.732523 0.554321 0
-0.376926 0.693224 0
0.37821 0.538726 0
0.88648 0.311263 0
0.720109 -0.108695 0
0.188194 -0.685697 0
-0.228132 -0.914207 0
-0.333619 -0.516472 0
-0.596209 0.337632 0
-0.705743 0.695099 0
-0.142452 0.502694 0
0.709531 0.333775 0
0.926265 0.23043 0
0.396288 -0.234827 0
-0.12423 -0.861896 0
-0.276768 -0.84992 0
-0.445213 -0.0750072 0
-0.713993 0.608829 0
-0.511109 0.631541 0
0.309559 0.391473 0
0.93444 0.30273 0
0.714255 0.0547275 0
0.0895079 -0.577737 0
-0.230512 -0.97307 0
-0.103416 -0.526102 0
-0.378306 0.365591 0
-0.710219 0.640543 0
-0.2708 0.288439 0
0.638391 0.157669 0
0.874348 0.305931 0
0.262749 -0.0107131 0
-0.21818 -0.739421 0
-0.144637 -0.854021 0
-0.182113 -0.063082 0
-0.599534 0.617485 0
-0.605148 0.489535 0
0.198363 0.159635 0
0.890493 0.242497 0
0.623107 0.236747 0
-0.0529804 -0.381662 0
-0.222118 -0.929071 0
0.158607 -0.481992 0
-0.0895358 0.377769 0
-0.638013 0.53454 0
-0.381839 0.0200313 0
0.507749 -0.0715185 0
0.74079 0.346503 0
0.0808013 0.237387 0
-0.323292 -0.53178 0
0.00272213 -0.776036 0
0.132834 -0.0334337 0
-0.403635 0.586649 0
-0.645146 0.2929 0
0.0628923 -0.125893 0
0.766917 0.133778 0
0.463148 0.408849 0
-0.223294 -0.126514 0
-0.211707 -0.791241 0
0.406161 -0.390779 0
0.22238 0.373049 0
-0.4987 0.396883 0
-0.455389 -0.256184 0
0.339869 -0.316941 0
0.548538 0.342101 0
-0.11887 0.466285 0
-0.423878 -0.273032 0
0.137546 -0.627977 0
0.445882 0.00961003 0
-0.157157 0.522996 0
-0.622102 0.0766537 0
-0.0733443 -0.417243 0
0.584779 -0.00800463 0
0.261799 0.539426 0
-0.393638 0.144674 0
-0.203876 -0.581516 0
0.59334 -0.265999 0
0.50168 0.349229 0
-0.313116 0.248711 0
-0.475853 -0.49015 0
0.161232 -0.533549 0
0.3273 0.291202 0
-0.300303 0.633148 0
-0.499229 -0.0060886 0
0.235439 -0.431421 0
0.699482 0.0580175 0
0.0981417 0.433699 0
-0.535922 -0.121984 0
-0.186563 -0.660615 0
0.371529 -0.158039 0
0.0525567 0.602159 0
-0.531263 0.383981 0
-0.198451 -0.332301 0
0.684793 -0.12612 0
0.696239 0.304403 0
-0.110296 0.109121 0
-0.43628 -0.63882 0
-0.00192073 -0.67787 0
0.108748 0.201896 0
-0.429878 0.705099 0
-0.528766 0.225229 0
0.280622 -0.214523 0
0.844858 0.101824 0
0.317615 0.326201 0
-0.396783 -0.270978 0
-0.257531 -0.808079 0
0.156822 -0.287106 0
-0.13126 0.582513 0
-0.606019 0.548483 0
-0.190964 -0.0812734 0
0.488471 -0.058731 0
0.910814 0.288364 0
0.263723 0.247349 0
-0.339259 -0.53617 0
-0.137607 -0.915423 0
0.0699122 -0.180493 0
-0.398781 0.641685 0
-0.711408 0.491282 0
-0.0225859 -0.0262632 0
0.846394 0.0871056 0
0.674535 0.379605 0
-0.128332 -0.101801 0
-0.316645 -0.860915 0
0.0402844 -0.655943 0
-0.101265 0.317249 0
-0.658022 0.688719 0
-0.480228 0.19438 0
