# vtk DataFile Version 3.0
tp3485 scalar+vector
ASCII
DATASET UNSTRUCTURED_GRID
POINTS 187 double
1 0 0
0.932472 0.361242 0
0.739009 0.673696 0
0.445738 0.895163 0
0.0922684 0.995734 0
-0.273663 0.961826 0
-0.602635 0.798017 0
-0.850217 0.526432 0
-0.982973 0.18375 0
-0.982973 -0.18375 0
-0.850217 -0.526432 0
-0.602635 -0.798017 0
-0.273663 -0.961826 0
0.0922684 -0.995734 0
0.445738 -0.895163 0
0.739009 -0.673696 0
0.932472 -0.361242 0
1.3 0 0
1.21221 0.469614 0
0.960712 0.875804 0
0.57946 1.16371 0
0.119949 1.29445 0
-0.355762 1.25037 0
-0.783425 1.03742 0
-1.10528 0.684362 0
-1.27787 0.238874 0
-1.27787 -0.238874 0
-1.10528 -0.684362 0
-0.783425 -1.03742 0
-0.355762 -1.25037 0
0.119949 -1.29445 0
0.57946 -1.16371 0
0.960712 -0.875804 0
1.21221 -0.469614 0
1.6 0 0
1.49196 0.577987 0
1.18241 1.07791 0
0.713181 1.43226 0
0.147629 1.59317 0
-0.437861 1.53892 0
-0.964215 1.27683 0
-1.36035 0.842291 0
-1.57276 0.293999 0
-1.57276 -0.293999 0
-1.36035 -0.842291 0
-0.964215 -1.27683 0
-0.437861 -1.53892 0
0.147629 -1.59317 0
0.713181 -1.43226 0
1.18241 -1.07791 0
1.49196 -0.577987 0
1.9 0 0
1.7717 0.686359 0
1.40412 1.28002 0
0.846903 1.70081 0
0.17531 1.89189 0
-0.51996 1.82747 0
-1.14501 1.51623 0
-1.61541 1.00022 0
-1.86765 0.349124 0
-1.86765 -0.349124 0
-1.61541 -1.00022 0
-1.14501 -1.51623 0
-0.51996 -1.82747 0
0.17531 -1.89189 0
0.846903 -1.70081 0
1.40412 -1.28002 0
1.7717 -0.686359 0
2.2 0 0
2.05144 0.794732 0
1.62582 1.48213 0
0.980624 1.96936 0
0.20299 2.19062 0
-0.602059 2.11602 0
-1.3258 1.75564 0
-1.87048 1.15815 0
-2.16254 0.404249 0
-2.16254 -0.404249 0
-1.87048 -1.15815 0
-1.3258 -1.75564 0
-0.602059 -2.11602 0
0.20299 -2.19062 0
0.980624 -1.96936 0
1.62582 -1.48213 0
2.05144 -0.794732 0
2.5 0 0
2.33118 0.903104 0
1.84752 1.68424 0
1.11435 2.23791 0
0.230671 2.48934 0
-0.684157 2.40456 0
-1.50659 1.99504 0
-2.12554 1.31608 0
-2.45743 0.459374 0
-2.45743 -0.459374 0
-2.12554 -1.31608 0
-1.50659 -1.99504 0
-0.684157 -2.40456 0
0.230671 -2.48934 0
1.11435 -2.23791 0
1.84752 -1.68424 0
2.33118 -0.903104 0
2.8 0 0
2.61092 1.01148 0
2.06922 1.88635 0
1.24807 2.50646 0
0.258351 2.78806 0
-0.766256 2.69311 0
-1.68738 2.23445 0
-2.38061 1.47401 0
-2.75232 0.514499 0
-2.75232 -0.514499 0
-2.38061 -1.47401 0
-1.68738 -2.23445 0
-0.766256 -2.69311 0
0.258351 -2.78806 0
1.24807 -2.50646 0
2.06922 -1.88635 0
2.61092 -1.01148 0
3.1 0 0
2.89066 1.11985 0
2.29093 2.08846 0
1.38179 2.77501 0
0.286032 3.08678 0
-0.848355 2.98166 0
-1.86817 2.47385 0
-2.63567 1.63194 0
-3.04722 0.569624 0
-3.04722 -0.569624 0
-2.63567 -1.63194 0
-1.86817 -2.47385 0
-0.848355 -2.98166 0
0.286032 -3.08678 0
1.38179 -2.77501 0
2.29093 -2.08846 0
2.89066 -1.11985 0
3.4 0 0
3.17041 1.22822 0
2.51263 2.29057 0
1.51551 3.04356 0
0.313712 3.3855 0
-0.930454 3.27021 0
-2.04896 2.71326 0
-2.89074 1.78987 0
-3.34211 0.624748 0
-3.34211 -0.624748 0
-2.89074 -1.78987 0
-2.04896 -2.71326 0
-0.930454 -3.27021 0
0.313712 -3.3855 0
1.51551 -3.04356 0
2.51263 -2.29057 0
3.17041 -1.22822 0
3.7 0 0
3.45015 1.33659 0
2.73433 2.49267 0
1.64923 3.3121 0
0.341393 3.68422 0
-1.01255 3.55875 0
-2.22975 2.95266 0
-3.1458 1.9478 0
-3.637 0.679873 0
-3.637 -0.679873 0
-3.1458 -1.9478 0
-2.22975 -2.95266 0
-1.01255 -3.55875 0
0.341393 -3.68422 0
1.64923 -3.3121 0
2.73433 -2.49267 0
3.45015 -1.33659 0
4 0 0
3.72989 1.44497 0
2.95604 2.69478 0
1.78295 3.58065 0
0.369073 3.98294 0
-1.09465 3.8473 0
-2.41054 3.19207 0
-3.40087 2.10573 0
-3.93189 0.734998 0
-3.93189 -0.734998 0
-3.40087 -2.10573 0
-2.41054 -3.19207 0
-1.09465 -3.8473 0
0.369073 -3.98294 0
1.78295 -3.58065 0
2.95604 -2.69478 0
3.72989 -1.44497 0
CELLS 340 1360
3 0 17 18
3 0 18 1
3 1 18 19
3 1 19 2
3 2 19 20
3 2 20 3
3 3 20 21
3 3 21 4
3 4 21 22
3 4 22 5
3 5 22 23
3 5 23 6
3 6 23 24
3 6 24 7
3 7 24 25
3 7 25 8
3 8 25 26
3 8 26 9
3 9 26 27
3 9 27 10
3 10 27 28
3 10 28 11
3 11 28 29
3 11 29 12
3 12 29 30
3 12 30 13
3 13 30 31
3 13 31 14
3 14 31 32
3 14 32 15
3 15 32 33
3 15 33 16
3 16 33 17
3 16 17 0
3 17 34 35
3 17 35 18
3 18 35 36
3 18 36 19
3 19 36 37
3 19 37 20
3 20 37 38
3 20 38 21
3 21 38 39
3 21 39 22
3 22 39 40
3 22 40 23
3 23 40 41
3 23 41 24
3 24 41 42
3 24 42 25
3 25 42 43
3 25 43 26
3 26 43 44
3 26 44 27
3 27 44 45
3 27 45 28
3 28 45 46
3 28 46 29
3 29 46 47
3 29 47 30
3 30 47 48
3 30 48 31
3 31 48 49
3 31 49 32
3 32 49 50
3 32 50 33
3 33 50 34
3 33 34 17
3 34 51 52
3 34 52 35
3 35 52 53
3 35 53 36
3 36 53 54
3 36 54 37
3 37 54 55
3 37 55 38
3 38 55 56
3 38 56 39
3 39 56 57
3 39 57 40
3 40 57 58
3 40 58 41
3 41 58 59
3 41 59 42
3 42 59 60
3 42 60 43
3 43 60 61
3 43 61 44
3 44 61 62
3 44 62 45
3 45 62 63
3 45 63 46
3 46 63 64
3 46 64 47
3 47 64 65
3 47 65 48
3 48 65 66
3 48 66 49
3 49 66 67
3 49 67 50
3 50 67 51
3 50 51 34
3 51 68 69
3 51 69 52
3 52 69 70
3 52 70 53
3 53 70 71
3 53 71 54
3 54 71 72
3 54 72 55
3 55 72 73
3 55 73 56
3 56 73 74
3 56 74 57
3 57 74 75
3 57 75 58
3 58 75 76
3 58 76 59
3 59 76 77
3 59 77 60
3 60 77 78
3 60 78 61
3 61 78 79
3 61 79 62
3 62 79 80
3 62 80 63
3 63 80 81
3 63 81 64
3 64 81 82
3 64 82 65
3 65 82 83
3 65 83 66
3 66 83 84
3 66 84 67
3 67 84 68
3 67 68 51
3 68 85 86
3 68 86 69
3 69 86 87
3 69 87 70
3 70 87 88
3 70 88 71
3 71 88 89
3 71 89 72
3 72 89 90
3 72 90 73
3 73 90 91
3 73 91 74
3 74 91 92
3 74 92 75
3 75 92 93
3 75 93 76
3 76 93 94
3 76 94 77
3 77 94 95
3 77 95 78
3 78 95 96
3 78 96 79
3 79 96 97
3 79 97 80
3 80 97 98
3 80 98 81
3 81 98 99
3 81 99 82
3 82 99 100
3 82 100 83
3 83 100 101
3 83 101 84
3 84 101 85
3 84 85 68
3 85 102 103
3 85 103 86
3 86 103 104
3 86 104 87
3 87 104 105
3 87 105 88
3 88 105 106
3 88 106 89
3 89 106 107
3 89 107 90
3 90 107 108
3 90 108 91
3 91 108 109
3 91 109 92
3 92 109 110
3 92 110 93
3 93 110 111
3 93 111 94
3 94 111 112
3 94 112 95
3 95 112 113
3 95 113 96
3 96 113 114
3 96 114 97
3 97 114 115
3 97 115 98
3 98 115 116
3 98 116 99
3 99 116 117
3 99 117 100
3 100 117 118
3 100 118 101
3 101 118 102
3 101 102 85
3 102 119 120
3 102 120 103
3 103 120 121
3 103 121 104
3 104 121 122
3 104 122 105
3 105 122 123
3 105 123 106
3 106 123 124
3 106 124 107
3 107 124 125
3 107 125 108
3 108 125 126
3 108 126 109
3 109 126 127
3 109 127 110
3 110 127 128
3 110 128 111
3 111 128 129
3 111 129 112
3 112 129 130
3 112 130 113
3 113 130 131
3 113 131 114
3 114 131 132
3 114 132 115
3 115 132 133
3 115 133 116
3 116 133 134
3 116 134 117
3 117 134 135
3 117 135 118
3 118 135 119
3 118 119 102
3 119 136 137
3 119 137 120
3 120 137 138
3 120 138 121
3 121 138 139
3 121 139 122
3 122 139 140
3 122 140 123
3 123 140 141
3 123 141 124
3 124 141 142
3 124 142 125
3 125 142 143
3 125 143 126
3 126 143 144
3 126 144 127
3 127 144 145
3 127 145 128
3 128 145 146
3 128 146 129
3 129 146 147
3 129 147 130
3 130 147 148
3 130 148 131
3 131 148 149
3 131 149 132
3 132 149 150
3 132 150 133
3 133 150 151
3 133 151 134
3 134 151 152
3 134 152 135
3 135 152 136
3 135 136 119
3 136 153 154
3 136 154 137
3 137 154 155
3 137 155 138
3 138 155 156
3 138 156 139
3 139 156 157
3 139 157 140
3 140 157 158
3 140 158 141
3 141 158 159
3 141 159 142
3 142 159 160
3 142 160 143
3 143 160 161
3 143 161 144
3 144 161 162
3 144 162 145
3 145 162 163
3 145 163 146
3 146 163 164
3 146 164 147
3 147 164 165
3 147 165 148
3 148 165 166
3 148 166 149
3 149 166 167
3 149 167 150
3 150 167 168
3 150 168 151
3 151 168 169
3 151 169 152
3 152 169 153
3 152 153 136
3 153 170 171
3 153 171 154
3 154 171 172
3 154 172 155
3 155 172 173
3 155 173 156
3 156 173 174
3 156 174 157
3 157 174 175
3 157 175 158
3 158 175 176
3 158 176 159
3 159 176 177
3 159 177 160
3 160 177 178
3 160 178 161
3 161 178 179
3 161 179 162
3 162 179 180
3 162 180 163
3 163 180 181
3 163 181 164
3 164 181 182
3 164 182 165
3 165 182 183
3 165 183 166
3 166 183 184
3 166 184 167
3 167 184 185
3 167 185 168
3 168 185 186
3 168 186 169
3 169 186 170
3 169 170 153
CELL_TYPES 340
5
5
5
5
5
5
5
5
5
5
5
5
5
5
5
5
5
5
5
5
5
5
5
5
5
5
5
5
5
5
5
5
5
5
5
5
5
5
5
5
5
5
5
5
5
5
5
5
5
5
5
5
5
5
5
5
5
5
5
5
5
5
5
5
5
5
5
5
5
5
5
5
5
5
5
5
5
5
5
5
5
5
5
5
5
5
5
5
5
5
5
5
5
5
5
5
5
5
5
5
5
5
5
5
5
5
5
5
5
5
5
5
5
5
5
5
5
5
5
5
5
5
5
5
5
5
5
5
5
5
5
5
5
5
5
5
5
5
5
5
5
5
5
5
5
5
5
5
5
5
5
5
5
5
5
5
5
5
5
5
5
5
5
5
5
5
5
5
5
5
5
5
5
5
5
5
5
5
5
5
5
5
5
5
5
5
5
5
5
5
5
5
5
5
5
5
5
5
5
5
5
5
5
5
5
5
5
5
5
5
5
5
5
5
5
5
5
5
5
5
5
5
5
5
5
5
5
5
5
5
5
5
5
5
5
5
5
5
5
5
5
5
5
5
5
5
5
5
5
5
5
5
5
5
5
5
5
5
5
5
5
5
5
5
5
5
5
5
5
5
5
5
5
5
5
5
5
5
5
5
5
5
5
5
5
5
5
5
5
5
5
5
5
5
5
5
5
5
5
5
5
5
5
5
5
5
5
5
5
5
5
5
5
5
5
5
5
5
5
5
5
5
5
5
5
5
5
5
5
5
5
5
5
5
5
5
5
5
5
5
POINT_DATA 187
SCALARS psi double 1
LOOKUP_TABLE default
0
0
0
0
0
0
0
0
0
0
0
0
0
0
0
0
0
-0.121755
0.138133
0.244897
0.0801869
-0.173413
-0.23478
-0.0358885
0.202786
0.216668
-0.00963209
-0.225255
-0.191177
0.0548246
0.240052
0.159176
-0.0981502
-0.246675
-0.249236
0.265219
0.485673
0.167746
-0.336131
-0.467399
-0.0805448
0.395595
0.433209
-0.00939977
-0.441588
-0.384266
0.0990242
0.472544
0.322238
-0.185277
-0.487407
-0.377813
0.377164
0.714046
0.259391
-0.482805
-0.6898
-0.132136
0.572004
0.642064
0.000381679
-0.641724
-0.572464
0.131386
0.689591
0.483369
-0.258679
-0.713975
-0.489121
0.458064
0.897475
0.342014
-0.592577
-0.870283
-0.183259
0.706911
0.813454
0.0182644
-0.797172
-0.728925
0.147353
0.860286
0.619572
-0.307952
-0.894104
-0.560834
0.492628
1
0.398849
-0.644436
-0.973348
-0.223282
0.774298
0.91355
0.0401107
-0.877792
-0.822642
0.144426
0.951394
0.70372
-0.324044
-0.992598
-0.573488
0.472307
0.994539
0.414301
-0.625199
-0.971652
-0.241006
0.756801
0.915676
0.059503
-0.862631
-0.828518
0.124026
0.939084
0.713146
-0.303332
-0.983559
-0.516044
0.398253
0.871077
0.378292
-0.533839
-0.854197
-0.227658
0.651245
0.808228
0.0692709
-0.746474
-0.734735
0.0914749
0.816283
0.636222
-0.249106
-0.858294
-0.389644
0.281569
0.640656
0.289561
-0.382519
-0.630567
-0.179618
0.470443
0.599006
0.0635574
-0.542346
-0.547046
0.0546671
0.595781
0.476458
-0.17103
-0.628927
-0.208854
0.141183
0.334716
0.157208
-0.194568
-0.330661
-0.100208
0.241328
0.315346
0.0397963
-0.279869
-0.289293
0.021971
0.30888
0.253388
-0.0829902
-0.327372
0
0
0
0
0
0
0
0
0
0
0
0
0
0
0
0
0
VECTORS Et double
0.141913 -0.234841 0
-0.473285 -0.33585 0
-0.548361 -0.353658 0
-0.218448 0.0964655 0
-0.0456704 0.640625 0
-0.0178476 0.593708 0
0.259304 0.0451285 0
0.614189 -0.305711 0
0.447787 -0.264381 0
-0.202472 -0.263422 0
-0.592509 -0.390472 0
-0.39463 -0.184326 0
-0.0938771 0.407421 0
-0.0417879 0.710527 0
0.0802995 0.339344 0
0.46703 -0.188985 0
0.618364 -0.311573 0
0.357818 -0.474583 0
-0.216265 -0.480576 0
-0.609167 -0.359477 0
-0.554562 0.00584582 0
-0.254875 0.50232 0
0.0401259 0.704773 0
0.333157 0.399273 0
0.593514 -0.10867 0
0.551153 -0.418714 0
0.0811805 -0.490115 0
-0.464073 -0.443154 0
-0.633242 -0.210325 0
-0.414264 0.261372 0
-0.102263 0.665908 0
0.182772 0.606553 0
0.480794 0.139856 0
0.628196 -0.300288 0
0.381132 -0.697767 0
-0.100865 -0.700791 0
-0.609908 -0.356145 0
-0.78989 0.0933741 0
-0.475894 0.497332 0
0.090882 0.723306 0
0.529356 0.58361 0
0.672222 0.0598586 0
0.541503 -0.521677 0
0.161688 -0.756382 0
-0.373635 -0.555978 0
-0.760609 -0.132452 0
-0.688062 0.30754 0
-0.198146 0.64437 0
0.343446 0.708109 0
0.638001 0.356533 0
0.638779 -0.252839 0
0.378892 -0.819644 0
0.0215141 -0.819375 0
-0.550441 -0.323733 0
-0.921223 0.144656 0
-0.623693 0.433652 0
0.120132 0.673353 0
0.636081 0.698137 0
0.668789 0.206642 0
0.489665 -0.557302 0
0.231493 -0.908852 0
-0.252199 -0.598993 0
-0.800113 -0.0634523 0
-0.861844 0.302152 0
-0.265192 0.55955 0
0.439824 0.737066 0
0.701198 0.519493 0
0.587118 -0.18335 0
0.319104 -0.850593 0
0.157982 -0.841857 0
-0.406425 -0.235323 0
-0.945974 0.189205 0
-0.705482 0.300354 0
0.143373 0.519959 0
0.67544 0.731718 0
0.570177 0.344934 0
0.356692 -0.525432 0
0.276734 -0.960947 0
-0.0780755 -0.561697 0
-0.735909 0.0316445 0
-0.942649 0.257013 0
-0.301209 0.382472 0
0.496215 0.666064 0
0.678261 0.633757 0
0.441745 -0.0812714 0
0.195301 -0.796508 0
0.293341 -0.772821 0
-0.188207 -0.0909085 0
-0.864604 0.237319 0
-0.717309 0.112818 0
0.166216 0.269882 0
0.657362 0.677749 0
0.387172 0.463669 0
0.143328 -0.433602 0
0.28503 -0.917779 0
0.134463 -0.447261 0
-0.573132 0.157727 0
-0.927913 0.186488 0
-0.301599 0.125754 0
0.520162 0.494725 0
0.580683 0.689018 0
0.209708 0.0437308 0
0.0198225 -0.67053 0
0.40484 -0.627005 0
0.0720719 0.0913325 0
-0.691092 0.289756 0
-0.659533 -0.0977408 0
0.189152 -0.0421913 0
0.592378 0.542397 0
0.149549 0.5454 0
-0.123686 -0.29838 0
0.250189 -0.791674 0
0.353313 -0.273698 0
-0.336396 0.302764 0
-0.822631 0.107588 0
-0.265911 -0.1726 0
0.514951 0.245582 0
0.429211 0.676677 0
-0.0762284 0.172321 0
-0.180185 -0.49409 0
0.470674 -0.429482 0
0.329862 0.281084 0
-0.453485 0.340186 0
-0.540931 -0.2932 0
0.20907 -0.363821 0
0.493185 0.345993 0
-0.101059 0.574458 0
-0.40038 -0.142959 0
0.174905 -0.604223 0
0.539551 -0.0705685 0
-0.0650767 0.443787 0
-0.643288 0.0366107 0
-0.199471 -0.460851 0
0.482656 -0.0410074 0
0.251365 0.596301 0
-0.367392 0.281782 0
-0.368556 -0.29417 0
0.476232 -0.211817 0
0.538279 0.442975 0
-0.189836 0.377281 0
-0.378668 -0.437508 0
0.220579 -0.636559 0
0.373451 0.120308 0
-0.320159 0.542094 0
-0.635649 0.00702611 0
0.0711435 -0.383785 0
0.657217 0.126921 0
0.194326 0.552847 0
-0.416682 -0.0144101 0
-0.112896 -0.685642 0
0.425179 -0.31495 0
0.0763848 0.457867 0
-0.610345 0.351523 0
-0.507779 -0.0990543 0
0.418093 -0.00661239 0
0.658202 0.544436 0
0.0583896 0.387763 0
-0.195969 -0.504629 0
0.217689 -0.808493 0
0.246183 -0.097029 0
-0.469659 0.44945 0
-0.782456 0.128222 0
-0.0418559 -0.161133 0
0.681722 0.284954 0
0.397311 0.603694 0
-0.175963 -0.0400707 0
-0.0202804 -0.803779 0
0.345032 -0.526536 0
-0.0701327 0.281079 0
-0.758525 0.367737 0
-0.822995 0.0379806 0
0.0791031 -0.00765524 0
0.70201 0.545491 0
0.344281 0.631895 0
-0.0685985 -0.239913 0
0.191515 -0.920442 0
0.344686 -0.479955 0
-0.320535 0.263219 0
-0.92929 0.23806 0
-0.434955 -0.0799509 0
0.511313 0.243596 0
0.614168 0.71927 0
0.0651564 0.271209 0
-0.00248368 -0.698876 0
0.357562 -0.826081 0
0.0942688 -0.0534051 0
-0.725207 0.355557 0
