# vtk DataFile Version 3.0
tp3485 scalar+vector
ASCII
DATASET UNSTRUCTURED_GRID
POINTS 187 double
1 0 0
0.932472 0.361242 0
0.739009 0.673696 0
0.445738 0.895163 0
0.0922684 0.995734 0
-0.273663 0.961826 0
-0.602635 0.798017 0
-0.850217 0.526432 0
-0.982973 0.18375 0
-0.982973 -0.18375 0
-0.850217 -0.526432 0
-0.602635 -0.798017 0
-0.273663 -0.961826 0
0.0922684 -0.995734 0
0.445738 -0.895163 0
0.739009 -0.673696 0
0.932472 -0.361242 0
1.3 0 0
1.21221 0.469614 0
0.960712 0.875804 0
0.57946 1.16371 0
0.119949 1.29445 0
-0.355762 1.25037 0
-0.783425 1.03742 0
-1.10528 0.684362 0
-1.27787 0.238874 0
-1.27787 -0.238874 0
-1.10528 -0.684362 0
-0.783425 -1.03742 0
-0.355762 -1.25037 0
0.119949 -1.29445 0
0.57946 -1.16371 0
0.960712 -0.875804 0
1.21221 -0.469614 0
1.6 0 0
1.49196 0.577987 0
1.18241 1.07791 0
0.713181 1.43226 0
0.147629 1.59317 0
-0.437861 1.53892 0
-0.964215 1.27683 0
-1.36035 0.842291 0
-1.57276 0.293999 0
-1.57276 -0.293999 0
-1.36035 -0.842291 0
-0.964215 -1.27683 0
-0.437861 -1.53892 0
0.147629 -1.59317 0
0.713181 -1.43226 0
1.18241 -1.07791 0
1.49196 -0.577987 0
1.9 0 0
1.7717 0.686359 0
1.40412 1.28002 0
0.846903 1.70081 0
0.17531 1.89189 0
-0.51996 1.82747 0
-1.14501 1.51623 0
-1.61541 1.00022 0
-1.86765 0.349124 0
-1.86765 -0.349124 0
-1.61541 -1.00022 0
-1.14501 -1.51623 0
-0.51996 -1.82747 0
0.17531 -1.89189 0
0.846903 -1.70081 0
1.40412 -1.28002 0
1.7717 -0.686359 0
2.2 0 0
2.05144 0.794732 0
1.62582 1.48213 0
0.980624 1.96936 0
0.20299 2.19062 0
-0.602059 2.11602 0
-1.3258 1.75564 0
-1.87048 1.15815 0
-2.16254 0.404249 0
-2.16254 -0.404249 0
-1.87048 -1.15815 0
-1.3258 -1.75564 0
-0.602059 -2.11602 0
0.20299 -2.19062 0
0.980624 -1.96936 0
1.62582 -1.48213 0
2.05144 -0.794732 0
2.5 0 0
2.33118 0.903104 0
1.84752 1.68424 0
1.11435 2.23791 0
0.230671 2.48934 0
-0.684157 2.40456 0
-1.50659 1.99504 0
-2.12554 1.31608 0
-2.45743 0.459374 0
-2.45743 -0.459374 0
-2.12554 -1.31608 0
-1.50659 -1.99504 0
-0.684157 -2.40456 0
0.230671 -2.48934 0
1.11435 -2.23791 0
1.84752 -1.68424 0
2.33118 -0.903104 0
2.8 0 0
2.61092 1.01148 0
2.06922 1.88635 0
1.24807 2.50646 0
0.258351 2.78806 0
-0.766256 2.69311 0
-1.68738 2.23445 0
-2.38061 1.47401 0
-2.75232 0.514499 0
-2.75232 -0.514499 0
-2.38061 -1.47401 0
-1.68738 -2.23445 0
-0.766256 -2.69311 0
0.258351 -2.78806 0
1.24807 -2.50646 0
2.06922 -1.88635 0
2.61092 -1.01148 0
3.1 0 0
2.89066 1.11985 0
2.29093 2.08846 0
1.38179 2.77501 0
0.286032 3.08678 0
-0.848355 2.98166 0
-1.86817 2.47385 0
-2.63567 1.63194 0
-3.04722 0.569624 0
-3.04722 -0.569624 0
-2.63567 -1.63194 0
-1.86817 -2.47385 0
-0.848355 -2.98166 0
0.286032 -3.08678 0
1.38179 -2.77501 0
2.29093 -2.08846 0
2.89066 -1.11985 0
3.4 0 0
3.17041 1.22822 0
2.51263 2.29057 0
1.51551 3.04356 0
0.313712 3.3855 0
-0.930454 3.27021 0
-2.04896 2.71326 0
-2.89074 1.78987 0
-3.34211 0.624748 0
-3.34211 -0.624748 0
-2.89074 -1.78987 0
-2.04896 -2.71326 0
-0.930454 -3.27021 0
0.313712 -3.3855 0
1.51551 -3.04356 0
2.51263 -2.29057 0
3.17041 -1.22822 0
3.7 0 0
3.45015 1.33659 0
2.73433 2.49267 0
1.64923 3.3121 0
0.341393 3.68422 0
-1.01255 3.55875 0
-2.22975 2.95266 0
-3.1458 1.9478 0
-3.637 0.679873 0
-3.637 -0.679873 0
-3.1458 -1.9478 0
-2.22975 -2.95266 0
-1.01255 -3.55875 0
0.341393 -3.68422 0
1.64923 -3.3121 0
2.73433 -2.49267 0
3.45015 -1.33659 0
4 0 0
3.72989 1.44497 0
2.95604 2.69478 0
1.78295 3.58065 0
0.369073 3.98294 0
-1.09465 3.8473 0
-2.41054 3.19207 0
-3.40087 2.10573 0
-3.93189 0.734998 0
-3.93189 -0.734998 0
-3.40087 -2.10573 0
-2.41054 -3.19207 0
-1.09465 -3.8473 0
0.369073 -3.98294 0
1.78295 -3.58065 0
2.95604 -2.69478 0
3.72989 -1.44497 0
CELLS 340 1360
3 0 17 18
3 0 18 1
3 1 18 19
3 1 19 2
3 2 19 20
3 2 20 3
3 3 20 21
3 3 21 4
3 4 21 22
3 4 22 5
3 5 22 23
3 5 23 6
3 6 23 24
3 6 24 7
3 7 24 25
3 7 25 8
3 8 25 26
3 8 26 9
3 9 26 27
3 9 27 10
3 10 27 28
3 10 28 11
3 11 28 29
3 11 29 12
3 12 29 30
3 12 30 13
3 13 30 31
3 13 31 14
3 14 31 32
3 14 32 15
3 15 32 33
3 15 33 16
3 16 33 17
3 16 17 0
3 17 34 35
3 17 35 18
3 18 35 36
3 18 36 19
3 19 36 37
3 19 37 20
3 20 37 38
3 20 38 21
3 21 38 39
3 21 39 22
3 22 39 40
3 22 40 23
3 23 40 41
3 23 41 24
3 24 41 42
3 24 42 25
3 25 42 43
3 25 43 26
3 26 43 44
3 26 44 27
3 27 44 45
3 27 45 28
3 28 45 46
3 28 46 29
3 29 46 47
3 29 47 30
3 30 47 48
3 30 48 31
3 31 48 49
3 31 49 32
3 32 49 50
3 32 50 33
3 33 50 34
3 33 34 17
3 34 51 52
3 34 52 35
3 35 52 53
3 35 53 36
3 36 53 54
3 36 54 37
3 37 54 55
3 37 55 38
3 38 55 56
3 38 56 39
3 39 56 57
3 39 57 40
3 40 57 58
3 40 58 41
3 41 58 59
3 41 59 42
3 42 59 60
3 42 60 43
3 43 60 61
3 43 61 44
3 44 61 62
3 44 62 45
3 45 62 63
3 45 63 46
3 46 63 64
3 46 64 47
3 47 64 65
3 47 65 48
3 48 65 66
3 48 66 49
3 49 66 67
3 49 67 50
3 50 67 51
3 50 51 34
3 51 68 69
3 51 69 52
3 52 69 70
3 52 70 53
3 53 70 71
3 53 71 54
3 54 71 72
3 54 72 55
3 55 72 73
3 55 73 56
3 56 73 74
3 56 74 57
3 57 74 75
3 57 75 58
3 58 75 76
3 58 76 59
3 59 76 77
3 59 77 60
3 60 77 78
3 60 78 61
3 61 78 79
3 61 79 62
3 62 79 80
3 62 80 63
3 63 80 81
3 63 81 64
3 64 81 82
3 64 82 65
3 65 82 83
3 65 83 66
3 66 83 84
3 66 84 67
3 67 84 68
3 67 68 51
3 68 85 86
3 68 86 69
3 69 86 87
3 69 87 70
3 70 87 88
3 70 88 71
3 71 88 89
3 71 89 72
3 72 89 90
3 72 90 73
3 73 90 91
3 73 91 74
3 74 91 92
3 74 92 75
3 75 92 93
3 75 93 76
3 76 93 94
3 76 94 77
3 77 94 95
3 77 95 78
3 78 95 96
3 78 96 79
3 79 96 97
3 79 97 80
3 80 97 98
3 80 98 81
3 81 98 99
3 81 99 82
3 82 99 100
3 82 100 83
3 83 100 101
3 83 101 84
3 84 101 85
3 84 85 68
3 85 102 103
3 85 103 86
3 86 103 104
3 86 104 87
3 87 104 105
3 87 105 88
3 88 105 106
3 88 106 89
3 89 106 107
3 89 107 90
3 90 107 108
3 90 108 91
3 91 108 109
3 91 109 92
3 92 109 110
3 92 110 93
3 93 110 111
3 93 111 94
3 94 111 112
3 94 112 95
3 95 112 113
3 95 113 96
3 96 113 114
3 96 114 97
3 97 114 115
3 97 115 98
3 98 115 116
3 98 116 99
3 99 116 117
3 99 117 100
3 100 117 118
3 100 118 101
3 101 118 102
3 101 102 85
3 102 119 120
3 102 120 103
3 103 120 121
3 103 121 104
3 104 121 122
3 104 122 105
3 105 122 123
3 105 123 106
3 106 123 124
3 106 124 107
3 107 124 125
3 107 125 108
3 108 125 126
3 108 126 109
3 109 126 127
3 109 127 110
3 110 127 128
3 110 128 111
3 111 128 129
3 111 129 112
3 112 129 130
3 112 130 113
3 113 130 131
3 113 131 114
3 114 131 132
3 114 132 115
3 115 132 133
3 115 133 116
3 116 133 134
3 116 134 117
3 117 134 135
3 117 135 118
3 118 135 119
3 118 119 102
3 119 136 137
3 119 137 120
3 120 137 138
3 120 138 121
3 121 138 139
3 121 139 122
3 122 139 140
3 122 140 123
3 123 140 141
3 123 141 124
3 124 141 142
3 124 142 125
3 125 142 143
3 125 143 126
3 126 143 144
3 126 144 127
3 127 144 145
3 127 145 128
3 128 145 146
3 128 146 129
3 129 146 147
3 129 147 130
3 130 147 148
3 130 148 131
3 131 148 149
3 131 149 132
3 132 149 150
3 132 150 133
3 133 150 151
3 133 151 134
3 134 151 152
3 134 152 135
3 135 152 136
3 135 136 119
3 136 153 154
3 136 154 137
3 137 154 155
3 137 155 138
3 138 155 156
3 138 156 139
3 139 156 157
3 139 157 140
3 140 157 158
3 140 158 141
3 141 158 159
3 141 159 142
3 142 159 160
3 142 160 143
3 143 160 161
3 143 161 144
3 144 161 162
3 144 162 145
3 145 162 163
3 145 163 146
3 146 163 164
3 146 164 147
3 147 164 165
3 147 165 148
3 148 165 166
3 148 166 149
3 149 166 167
3 149 167 150
3 150 167 168
3 150 168 151
3 151 168 169
3 151 169 152
3 152 169 153
3 152 153 136
3 153 170 171
3 153 171 154
3 154 171 172
3 154 172 155
3 155 172 173
3 155 173 156
3 156 173 174
3 156 174 157
3 157 174 175
3 157 175 158
3 158 175 176
3 158 176 159
3 159 176 177
3 159 177 160
3 160 177 178
3 160 178 161
3 161 178 179
3 161 179 162
3 162 179 180
3 162 180 163
3 163 180 181
3 163 181 164
3 164 181 182
3 164 182 165
3 165 182 183
3 165 183 166
3 166 183 184
3 166 184 167
3 167 184 185
3 167 185 168
3 168 185 186
3 168 186 169
3 169 186 170
3 169 170 153
CELL_TYPES 340
5
5
5
5
5
5
5
5
5
5
5
5
5
5
5
5
5
5
5
5
5
5
5
5
5
5
5
5
5
5
5
5
5
5
5
5
5
5
5
5
5
5
5
5
5
5
5
5
5
5
5
5
5
5
5
5
5
5
5
5
5
5
5
5
5
5
5
5
5
5
5
5
5
5
5
5
5
5
5
5
5
5
5
5
5
5
5
5
5
5
5
5
5
5
5
5
5
5
5
5
5
5
5
5
5
5
5
5
5
5
5
5
5
5
5
5
5
5
5
5
5
5
5
5
5
5
5
5
5
5
5
5
5
5
5
5
5
5
5
5
5
5
5
5
5
5
5
5
5
5
5
5
5
5
5
5
5
5
5
5
5
5
5
5
5
5
5
5
5
5
5
5
5
5
5
5
5
5
5
5
5
5
5
5
5
5
5
5
5
5
5
5
5
5
5
5
5
5
5
5
5
5
5
5
5
5
5
5
5
5
5
5
5
5
5
5
5
5
5
5
5
5
5
5
5
5
5
5
5
5
5
5
5
5
5
5
5
5
5
5
5
5
5
5
5
5
5
5
5
5
5
5
5
5
5
5
5
5
5
5
5
5
5
5
5
5
5
5
5
5
5
5
5
5
5
5
5
5
5
5
5
5
5
5
5
5
5
5
5
5
5
5
5
5
5
5
5
5
5
5
5
5
5
5
5
5
5
5
5
5
5
5
5
5
5
5
5
5
5
5
5
5
5
5
5
5
5
5
5
5
5
5
5
5
5
5
5
5
5
5
POINT_DATA 187
SCALARS psi double 1
LOOKUP_TABLE default
0
0
0
0
0
0
0
0
0
0
0
0
0
0
0
0
0
0.374633
0.295047
0.175613
0.0324622
-0.115073
-0.247067
-0.345694
-0.397632
-0.395868
-0.34064
-0.239406
-0.10584
0.042021
0.184207
0.301514
0.378101
0.403623
0.653127
0.515309
0.307895
0.0588978
-0.198054
-0.428257
-0.600621
-0.691869
-0.689676
-0.594338
-0.418731
-0.186573
0.0707831
0.31858
0.52335
0.657439
0.702738
0.839282
0.663374
0.397873
0.0786376
-0.251219
-0.547146
-0.769179
-0.887329
-0.885641
-0.764342
-0.539815
-0.242382
0.0877852
0.406097
0.669563
0.842601
0.901841
0.93186
0.737868
0.444222
0.0905813
-0.275293
-0.603987
-0.851109
-0.983284
-0.982662
-0.849325
-0.601283
-0.272033
0.0939554
0.447255
0.74015
0.933084
1
0.932503
0.739694
0.446984
0.093907
-0.271853
-0.600897
-0.848787
-0.982044
-0.98267
-0.850581
-0.603617
-0.27513
0.090514
0.443934
0.737398
0.931272
0.999373
0.848421
0.674192
0.408909
0.0884008
-0.244046
-0.543534
-0.769614
-0.891753
-0.893457
-0.774494
-0.550931
-0.252962
0.0791708
0.400611
0.667947
0.845073
0.908067
0.692877
0.551563
0.335758
0.074606
-0.196622
-0.441294
-0.626368
-0.726847
-0.729161
-0.632998
-0.451345
-0.208736
0.0620645
0.324483
0.543078
0.688327
0.740614
0.48444
0.386316
0.236018
0.0538445
-0.135601
-0.306733
-0.436439
-0.507201
-0.509464
-0.44292
-0.316557
-0.147442
0.0415864
0.224998
0.378023
0.479993
0.517138
0.245449
0.196076
0.120222
0.0281312
-0.0677587
-0.154497
-0.220371
-0.256481
-0.257953
-0.224586
-0.160888
-0.0754614
0.020157
0.113053
0.190681
0.242556
0.261673
0
0
0
0
0
0
0
0
0
0
0
0
0
0
0
0
0
VECTORS Et double
-0.880392 -0.00766414 0
-0.619959 -0.199515 0
-0.298247 -0.165841 0
-0.0831849 0.0757804 0
-0.0870313 0.399227 0
-0.307778 0.635665 0
-0.6302 0.661679 0
-0.885998 0.46369 0
-0.94165 0.145044 0
-0.768107 -0.127931 0
-0.455955 -0.212747 0
-0.168132 -0.0651312 0
-0.0548768 0.237863 0
-0.175306 0.538078 0
-0.466558 0.678808 0
-0.776604 0.586593 0
-0.943606 0.309568 0
-0.80359 0.0955202 0
-0.657707 -0.0746559 0
-0.435251 -0.102137 0
-0.252341 0.0274224 0
-0.204452 0.246394 0
-0.316581 0.440478 0
-0.5302 0.508367 0
-0.733802 0.414624 0
-0.821112 0.208181 0
-0.746554 -0.003203 0
-0.549048 -0.109188 0
-0.331687 -0.0544531 0
-0.20793 0.132432 0
-0.242376 0.353916 0
-0.417045 0.494389 0
-0.640763 0.480525 0
-0.796752 0.319563 0
-0.575894 0.128222 0
-0.514023 0.0467585 0
-0.413418 0.0282381 0
-0.326593 0.0823283 0
-0.298869 0.180795 0
-0.344718 0.27224 0
-0.440206 0.308931 0
-0.535492 0.271716 0
-0.580837 0.18002 0
-0.552573 0.0817075 0
-0.465452 0.0280951 0
-0.36495 0.047168 0
-0.303528 0.12897 0
-0.313247 0.230803 0
-0.389033 0.299511 0
-0.491328 0.29923 0
-0.566735 0.230107 0
-0.349204 0.1352 0
-0.353355 0.123937 0
-0.348836 0.112818 0
-0.338005 0.107645 0
-0.326515 0.111119 0
-0.320365 0.121427 0
-0.322765 0.133188 0
-0.332461 0.140262 0
-0.344393 0.138959 0
-0.352332 0.129956 0
-0.352135 0.117955 0
-0.343904 0.109219 0
-0.331935 0.108308 0
-0.322477 0.115698 0
-0.320466 0.127531 0
-0.326952 0.137631 0
-0.338549 0.140726 0
-0.12184 0.126946 0
-0.181024 0.175645 0
-0.25757 0.171763 0
-0.311523 0.117325 0
-0.314719 0.0407468 0
-0.265492 -0.0179987 0
-0.189535 -0.0282476 0
-0.126498 0.0153498 0
-0.109285 0.0900365 0
-0.14688 0.156827 0
-0.21966 0.180859 0
-0.289634 0.149587 0
-0.320279 0.0793346 0
-0.295596 0.00677289 0
-0.228471 -0.0302225 0
-0.153942 -0.0123407 0
-0.110911 0.0510843 0
0.0954703 0.109347 0
-0.00871659 0.208927 0
-0.152798 0.212327 0
-0.261566 0.117772 0
-0.278245 -0.0253806 0
-0.19413 -0.142409 0
-0.0531268 -0.172226 0
0.0711634 -0.0992674 0
0.113863 0.0383832 0
0.0526842 0.168875 0
-0.0804395 0.224094 0
-0.216019 0.175216 0
-0.283286 0.0477549 0
-0.247126 -0.0917567 0
-0.126415 -0.170496 0
0.0158374 -0.147364 0
0.105379 -0.0344331 0
0.288246 0.0864234 0
0.150147 0.226441 0
-0.0462383 0.236879 0
-0.198401 0.112289 0
-0.226915 -0.082296 0
-0.116895 -0.245305 0
0.0742283 -0.291651 0
0.246694 -0.197142 0
0.310477 -0.0111099 0
0.232284 0.16934 0
0.0529301 0.250016 0
-0.133965 0.188806 0
-0.230845 0.0176614 0
-0.187141 -0.174084 0
-0.0256653 -0.286342 0
0.169294 -0.260516 0
0.295973 -0.110088 0
0.442363 0.0612473 0
0.282875 0.229269 0
0.0518155 0.245992 0
-0.130205 0.102687 0
-0.168176 -0.125844 0
-0.0422771 -0.32031 0
0.181775 -0.379205 0
0.387029 -0.271787 0
0.466345 -0.0541245 0
0.378323 0.160165 0
0.168908 0.259227 0
-0.052589 0.191352 0
-0.170551 -0.00802939 0
-0.123403 -0.234844 0
0.0642442 -0.370699 0
0.294442 -0.34468 0
0.447031 -0.170369 0
0.546504 0.0362676 0
0.379135 0.21819 0
0.132887 0.239877 0
-0.0637027 0.0900082 0
-0.108018 -0.153188 0
0.0230729 -0.362767 0
0.261143 -0.429333 0
0.481924 -0.318139 0
0.570172 -0.0872263 0
0.479823 0.142872 0
0.258038 0.25205 0
0.0205844 0.183317 0
-0.108591 -0.027448 0
-0.0620611 -0.27023 0
0.135886 -0.418302 0
0.381926 -0.394371 0
0.54763 -0.210931 0
0.593707 0.0134091 0
0.432089 0.194326 0
0.190769 0.219143 0
-0.00428756 0.0749071 0
-0.0512653 -0.163093 0
0.0743577 -0.370627 0
0.307008 -0.439364 0
0.525247 -0.333425 0
0.615158 -0.10811 0
0.529808 0.118973 0
0.313749 0.229289 0
0.0797597 0.165256 0
-0.0500214 -0.0397023 0
-0.00785114 -0.278601 0
0.184258 -0.42674 0
0.426029 -0.406793 0
0.591262 -0.229171 0
0.630426 -0.0361562 0
0.508962 0.166892 0
0.282407 0.235116 0
0.0690178 0.132905 0
-0.0198195 -0.0863888 0
0.0622663 -0.308298 0
0.272428 -0.416991 0
0.500965 -0.35573 0
0.628585 -0.156494 0
0.588672 0.0767206 0
0.402061 0.222179 0
0.166159 0.203955 0
0.00410254 0.0315615 0
0.000482342 -0.205016 0
0.157188 -0.382287 0
0.392422 -0.407721 0
0.583397 -0.26804 0
