# vtk DataFile Version 3.0
tp3485 scalar+vector
ASCII
DATASET UNSTRUCTURED_GRID
POINTS 187 double
1 0 0
0.932472 0.361242 0
0.739009 0.673696 0
0.445738 0.895163 0
0.0922684 0.995734 0
-0.273663 0.961826 0
-0.602635 0.798017 0
-0.850217 0.526432 0
-0.982973 0.18375 0
-0.982973 -0.18375 0
-0.850217 -0.526432 0
-0.602635 -0.798017 0
-0.273663 -0.961826 0
0.0922684 -0.995734 0
0.445738 -0.895163 0
0.739009 -0.673696 0
0.932472 -0.361242 0
1.3 0 0
1.21221 0.469614 0
0.960712 0.875804 0
0.57946 1.16371 0
0.119949 1.29445 0
-0.355762 1.25037 0
-0.783425 1.03742 0
-1.10528 0.684362 0
-1.27787 0.238874 0
-1.27787 -0.238874 0
-1.10528 -0.684362 0
-0.783425 -1.03742 0
-0.355762 -1.25037 0
0.119949 -1.29445 0
0.57946 -1.16371 0
0.960712 -0.875804 0
1.21221 -0.469614 0
1.6 0 0
1.49196 0.577987 0
1.18241 1.07791 0
0.713181 1.43226 0
0.147629 1.59317 0
-0.437861 1.53892 0
-0.964215 1.27683 0
-1.36035 0.842291 0
-1.57276 0.293999 0
-1.57276 -0.293999 0
-1.36035 -0.842291 0
-0.964215 -1.27683 0
-0.437861 -1.53892 0
0.147629 -1.59317 0
0.713181 -1.43226 0
1.18241 -1.07791 0
1.49196 -0.577987 0
1.9 0 0
1.7717 0.686359 0
1.40412 1.28002 0
0.846903 1.70081 0
0.17531 1.89189 0
-0.51996 1.82747 0
-1.14501 1.51623 0
-1.61541 1.00022 0
-1.86765 0.349124 0
-1.86765 -0.349124 0
-1.61541 -1.00022 0
-1.14501 -1.51623 0
-0.51996 -1.82747 0
0.17531 -1.89189 0
0.846903 -1.70081 0
1.40412 -1.28002 0
1.7717 -0.686359 0
2.2 0 0
2.05144 0.794732 0
1.62582 1.48213 0
0.980624 1.96936 0
0.20299 2.19062 0
-0.602059 2.11602 0
-1.3258 1.75564 0
-1.87048 1.15815 0
-2.16254 0.404249 0
-2.16254 -0.404249 0
-1.87048 -1.15815 0
-1.3258 -1.75564 0
-0.602059 -2.11602 0
0.20299 -2.19062 0
0.980624 -1.96936 0
1.62582 -1.48213 0
2.05144 -0.794732 0
2.5 0 0
2.33118 0.903104 0
1.84752 1.68424 0
1.11435 2.23791 0
0.230671 2.48934 0
-0.684157 2.40456 0
-1.50659 1.99504 0
-2.12554 1.31608 0
-2.45743 0.459374 0
-2.45743 -0.459374 0
-2.12554 -1.31608 0
-1.50659 -1.99504 0
-0.684157 -2.40456 0
0.230671 -2.48934 0
1.11435 -2.23791 0
1.84752 -1.68424 0
2.33118 -0.903104 0
2.8 0 0
2.61092 1.01148 0
2.06922 1.88635 0
1.24807 2.50646 0
0.258351 2.78806 0
-0.766256 2.69311 0
-1.68738 2.23445 0
-2.38061 1.47401 0
-2.75232 0.514499 0
-2.75232 -0.514499 0
-2.38061 -1.47401 0
-1.68738 -2.23445 0
-0.766256 -2.69311 0
0.258351 -2.78806 0
1.24807 -2.50646 0
2.06922 -1.88635 0
2.61092 -1.01148 0
3.1 0 0
2.89066 1.11985 0
2.29093 2.08846 0
1.38179 2.77501 0
0.286032 3.08678 0
-0.848355 2.98166 0
-1.86817 2.47385 0
-2.63567 1.63194 0
-3.04722 0.569624 0
-3.04722 -0.569624 0
-2.63567 -1.63194 0
-1.86817 -2.47385 0
-0.848355 -2.98166 0
0.286032 -3.08678 0
1.38179 -2.77501 0
2.29093 -2.08846 0
2.89066 -1.11985 0
3.4 0 0
3.17041 1.22822 0
2.51263 2.29057 0
1.51551 3.04356 0
0.313712 3.3855 0
-0.930454 3.27021 0
-2.04896 2.71326 0
-2.89074 1.78987 0
-3.34211 0.624748 0
-3.34211 -0.624748 0
-2.89074 -1.78987 0
-2.04896 -2.71326 0
-0.930454 -3.27021 0
0.313712 -3.3855 0
1.51551 -3.04356 0
2.51263 -2.29057 0
3.17041 -1.22822 0
3.7 0 0
3.45015 1.33659 0
2.73433 2.49267 0
1.64923 3.3121 0
0.341393 3.68422 0
-1.01255 3.55875 0
-2.22975 2.95266 0
-3.1458 1.9478 0
-3.637 0.679873 0
-3.637 -0.679873 0
-3.1458 -1.9478 0
-2.22975 -2.95266 0
-1.01255 -3.55875 0
0.341393 -3.68422 0
1.64923 -3.3121 0
2.73433 -2.49267 0
3.45015 -1.33659 0
4 0 0
3.72989 1.44497 0
2.95604 2.69478 0
1.78295 3.58065 0
0.369073 3.98294 0
-1.09465 3.8473 0
-2.41054 3.19207 0
-3.40087 2.10573 0
-3.93189 0.734998 0
-3.93189 -0.734998 0
-3.40087 -2.10573 0
-2.41054 -3.19207 0
-1.09465 -3.8473 0
0.369073 -3.98294 0
1.78295 -3.58065 0
2.95604 -2.69478 0
3.72989 -1.44497 0
CELLS 340 1360
3 0 17 18
3 0 18 1
3 1 18 19
3 1 19 2
3 2 19 20
3 2 20 3
3 3 20 21
3 3 21 4
3 4 21 22
3 4 22 5
3 5 22 23
3 5 23 6
3 6 23 24
3 6 24 7
3 7 24 25
3 7 25 8
3 8 25 26
3 8 26 9
3 9 26 27
3 9 27 10
3 10 27 28
3 10 28 11
3 11 28 29
3 11 29 12
3 12 29 30
3 12 30 13
3 13 30 31
3 13 31 14
3 14 31 32
3 14 32 15
3 15 32 33
3 15 33 16
3 16 33 17
3 16 17 0
3 17 34 35
3 17 35 18
3 18 35 36
3 18 36 19
3 19 36 37
3 19 37 20
3 20 37 38
3 20 38 21
3 21 38 39
3 21 39 22
3 22 39 40
3 22 40 23
3 23 40 41
3 23 41 24
3 24 41 42
3 24 42 25
3 25 42 43
3 25 43 26
3 26 43 44
3 26 44 27
3 27 44 45
3 27 45 28
3 28 45 46
3 28 46 29
3 29 46 47
3 29 47 30
3 30 47 48
3 30 48 31
3 31 48 49
3 31 49 32
3 32 49 50
3 32 50 33
3 33 50 34
3 33 34 17
3 34 51 52
3 34 52 35
3 35 52 53
3 35 53 36
3 36 53 54
3 36 54 37
3 37 54 55
3 37 55 38
3 38 55 56
3 38 56 39
3 39 56 57
3 39 57 40
3 40 57 58
3 40 58 41
3 41 58 59
3 41 59 42
3 42 59 60
3 42 60 43
3 43 60 61
3 43 61 44
3 44 61 62
3 44 62 45
3 45 62 63
3 45 63 46
3 46 63 64
3 46 64 47
3 47 64 65
3 47 65 48
3 48 65 66
3 48 66 49
3 49 66 67
3 49 67 50
3 50 67 51
3 50 51 34
3 51 68 69
3 51 69 52
3 52 69 70
3 52 70 53
3 53 70 71
3 53 71 54
3 54 71 72
3 54 72 55
3 55 72 73
3 55 73 56
3 56 73 74
3 56 74 57
3 57 74 75
3 57 75 58
3 58 75 76
3 58 76 59
3 59 76 77
3 59 77 60
3 60 77 78
3 60 78 61
3 61 78 79
3 61 79 62
3 62 79 80
3 62 80 63
3 63 80 81
3 63 81 64
3 64 81 82
3 64 82 65
3 65 82 83
3 65 83 66
3 66 83 84
3 66 84 67
3 67 84 68
3 67 68 51
3 68 85 86
3 68 86 69
3 69 86 87
3 69 87 70
3 70 87 88
3 70 88 71
3 71 88 89
3 71 89 72
3 72 89 90
3 72 90 73
3 73 90 91
3 73 91 74
3 74 91 92
3 74 92 75
3 75 92 93
3 75 93 76
3 76 93 94
3 76 94 77
3 77 94 95
3 77 95 78
3 78 95 96
3 78 96 79
3 79 96 97
3 79 97 80
3 80 97 98
3 80 98 81
3 81 98 99
3 81 99 82
3 82 99 100
3 82 100 83
3 83 100 101
3 83 101 84
3 84 101 85
3 84 85 68
3 85 102 103
3 85 103 86
3 86 103 104
3 86 104 87
3 87 104 105
3 87 105 88
3 88 105 106
3 88 106 89
3 89 106 107
3 89 107 90
3 90 107 108
3 90 108 91
3 91 108 109
3 91 109 92
3 92 109 110
3 92 110 93
3 93 110 111
3 93 111 94
3 94 111 112
3 94 112 95
3 95 112 113
3 95 113 96
3 96 113 114
3 96 114 97
3 97 114 115
3 97 115 98
3 98 115 116
3 98 116 99
3 99 116 117
3 99 117 100
3 100 117 118
3 100 118 101
3 101 118 102
3 101 102 85
3 102 119 120
3 102 120 103
3 103 120 121
3 103 121 104
3 104 121 122
3 104 122 105
3 105 122 123
3 105 123 106
3 106 123 124
3 106 124 107
3 107 124 125
3 107 125 108
3 108 125 126
3 108 126 109
3 109 126 127
3 109 127 110
3 110 127 128
3 110 128 111
3 111 128 129
3 111 129 112
3 112 129 130
3 112 130 113
3 113 130 131
3 113 131 114
3 114 131 132
3 114 132 115
3 115 132 133
3 115 133 116
3 116 133 134
3 116 134 117
3 117 134 135
3 117 135 118
3 118 135 119
3 118 119 102
3 119 136 137
3 119 137 120
3 120 137 138
3 120 138 121
3 121 138 139
3 121 139 122
3 122 139 140
3 122 140 123
3 123 140 141
3 123 141 124
3 124 141 142
3 124 142 125
3 125 142 143
3 125 143 126
3 126 143 144
3 126 144 127
3 127 144 145
3 127 145 128
3 128 145 146
3 128 146 129
3 129 146 147
3 129 147 130
3 130 147 148
3 130 148 131
3 131 148 149
3 131 149 132
3 132 149 150
3 132 150 133
3 133 150 151
3 133 151 134
3 134 151 152
3 134 152 135
3 135 152 136
3 135 136 119
3 136 153 154
3 136 154 137
3 137 154 155
3 137 155 138
3 138 155 156
3 138 156 139
3 139 156 157
3 139 157 140
3 140 157 158
3 140 158 141
3 141 158 159
3 141 159 142
3 142 159 160
3 142 160 143
3 143 160 161
3 143 161 144
3 144 161 162
3 144 162 145
3 145 162 163
3 145 163 146
3 146 163 164
3 146 164 147
3 147 164 165
3 147 165 148
3 148 165 166
3 148 166 149
3 149 166 167
3 149 167 150
3 150 167 168
3 150 168 151
3 151 168 169
3 151 169 152
3 152 169 153
3 152 153 136
3 153 170 171
3 153 171 154
3 154 171 172
3 154 172 155
3 155 172 173
3 155 173 156
3 156 173 174
3 156 174 157
3 157 174 175
3 157 175 158
3 158 175 176
3 158 176 159
3 159 176 177
3 159 177 160
3 160 177 178
3 160 178 161
3 161 178 179
3 161 179 162
3 162 179 180
3 162 180 163
3 163 180 181
3 163 181 164
3 164 181 182
3 164 182 165
3 165 182 183
3 165 183 166
3 166 183 184
3 166 184 167
3 167 184 185
3 167 185 168
3 168 185 186
3 168 186 169
3 169 186 170
3 169 170 153
CELL_TYPES 340
5
5
5
5
5
5
5
5
5
5
5
5
5
5
5
5
5
5
5
5
5
5
5
5
5
5
5
5
5
5
5
5
5
5
5
5
5
5
5
5
5
5
5
5
5
5
5
5
5
5
5
5
5
5
5
5
5
5
5
5
5
5
5
5
5
5
5
5
5
5
5
5
5
5
5
5
5
5
5
5
5
5
5
5
5
5
5
5
5
5
5
5
5
5
5
5
5
5
5
5
5
5
5
5
5
5
5
5
5
5
5
5
5
5
5
5
5
5
5
5
5
5
5
5
5
5
5
5
5
5
5
5
5
5
5
5
5
5
5
5
5
5
5
5
5
5
5
5
5
5
5
5
5
5
5
5
5
5
5
5
5
5
5
5
5
5
5
5
5
5
5
5
5
5
5
5
5
5
5
5
5
5
5
5
5
5
5
5
5
5
5
5
5
5
5
5
5
5
5
5
5
5
5
5
5
5
5
5
5
5
5
5
5
5
5
5
5
5
5
5
5
5
5
5
5
5
5
5
5
5
5
5
5
5
5
5
5
5
5
5
5
5
5
5
5
5
5
5
5
5
5
5
5
5
5
5
5
5
5
5
5
5
5
5
5
5
5
5
5
5
5
5
5
5
5
5
5
5
5
5
5
5
5
5
5
5
5
5
5
5
5
5
5
5
5
5
5
5
5
5
5
5
5
5
5
5
5
5
5
5
5
5
5
5
5
5
5
5
5
5
5
5
5
5
5
5
5
5
5
5
5
5
5
5
5
5
5
5
5
5
POINT_DATA 187
SCALARS psi double 1
LOOKUP_TABLE default
0
0
0
0
0
0
0
0
0
0
0
0
0
0
0
0
0
0.169602
0.0419245
-0.161865
-0.0717946
0.148617
0.0992199
-0.130307
-0.123266
0.10756
0.143115
-0.0811499
-0.15809
0.0519764
0.167682
-0.021033
-0.171563
-0.0106267
0.363589
0.102427
-0.344687
-0.166034
0.314048
0.223987
-0.272714
-0.274313
0.222093
0.315297
-0.163909
-0.345545
0.100143
0.364025
-0.0329674
-0.370108
-0.0353312
0.577899
0.183004
-0.544128
-0.283416
0.491827
0.374176
-0.422778
-0.452194
0.339332
0.514813
-0.24433
-0.559901
0.141007
0.585922
-0.0328831
-0.59199
-0.0763608
0.777307
0.273743
-0.726792
-0.407863
0.651526
0.528093
-0.554073
-0.63034
0.437753
0.711122
-0.306524
-0.767687
0.164858
0.798109
-0.0175777
-0.801353
-0.130301
0.915181
0.355359
-0.849604
-0.512143
0.755095
0.651485
-0.634872
-0.768643
0.493029
0.859625
-0.334397
-0.921333
0.164377
0.951667
0.0112403
-0.949593
-0.186475
0.949453
0.40366
-0.874963
-0.565123
0.770677
0.707341
-0.640146
-0.825472
0.487816
0.915492
-0.318875
-0.974336
0.139074
1
0.0454629
-0.99161
-0.228451
0.856649
0.396496
-0.783481
-0.541077
0.683632
0.667233
-0.560503
-0.770666
0.418287
0.847855
-0.261827
-0.896172
0.0964499
0.913971
0.0722112
-0.900645
-0.238413
0.641085
0.321503
-0.581756
-0.428858
0.502616
0.521609
-0.40636
-0.596598
0.296266
0.65127
-0.176083
-0.683763
0.0499032
0.692972
0.0779757
-0.678583
-0.203199
0.336593
0.182176
-0.302975
-0.238086
0.259039
0.285888
-0.206282
-0.323954
0.146501
0.350989
-0.0817304
-0.366072
0.0141768
0.368688
0.0538596
-0.358749
-0.120062
0
0
0
0
0
0
0
0
0
0
0
0
0
0
0
0
0
VECTORS Et double
-0.416358 0.0854709 0
-0.00982853 0.199958 0
0.350253 0.251087 0
0.185506 -0.0745945 0
-0.0527898 -0.421989 0
-0.168297 -0.145981 0
-0.264508 0.311079 0
-0.0402264 0.257159 0
0.380982 -0.0101229 0
0.269207 -0.139287 0
-0.232759 -0.255207 0
-0.315823 -0.13786 0
-0.0450756 0.300633 0
0.112723 0.363375 0
0.23102 -0.121761 0
0.209371 -0.35003 0
-0.193394 -0.111929 0
-0.452542 0.038685 0
-0.250338 0.332937 0
0.295223 0.316889 0
0.438977 -0.0031824 0
0.0710636 -0.404359 0
-0.287368 -0.358228 0
-0.3505 0.170151 0
-0.100624 0.464246 0
0.32539 0.183565 0
0.430877 -0.222013 0
-0.0278562 -0.36435 0
-0.448496 -0.190763 0
-0.289333 0.225301 0
0.138121 0.462607 0
0.358533 0.117234 0
0.263463 -0.390848 0
-0.114588 -0.377871 0
-0.530096 -0.0322002 0
-0.389994 0.543977 0
0.266682 0.448527 0
0.670673 -0.0443089 0
0.223451 -0.474044 0
-0.455433 -0.485761 0
-0.53048 0.085837 0
-0.0876903 0.645212 0
0.391757 0.399127 0
0.540285 -0.322946 0
0.0938766 -0.578438 0
-0.562129 -0.218605 0
-0.541222 0.289137 0
0.155739 0.553929 0
0.584631 0.256644 0
0.341579 -0.431144 0
-0.171629 -0.634945 0
-0.551515 -0.111411 0
-0.512037 0.693185 0
0.198199 0.539033 0
0.843568 -0.0613462 0
0.36592 -0.486198 0
-0.569356 -0.582242 0
-0.657127 -0.0253582 0
-0.0828799 0.765686 0
0.403235 0.587674 0
0.607299 -0.382008 0
0.227886 -0.731204 0
-0.618199 -0.237458 0
-0.751566 0.304769 0
0.147238 0.594304 0
0.746454 0.39318 0
0.393806 -0.420972 0
-0.190925 -0.839633 0
-0.469795 -0.193121 0
-0.577559 0.775024 0
0.0660288 0.554078 0
0.923377 -0.0839061 0
0.488968 -0.406836 0
-0.627651 -0.597478 0
-0.703609 -0.173412 0
-0.0481925 0.787643 0
0.342347 0.734493 0
0.576193 -0.400398 0
0.367667 -0.803923 0
-0.578701 -0.206107 0
-0.899149 0.272367 0
0.115934 0.529111 0
0.83265 0.503247 0
0.380514 -0.327019 0
-0.189023 -0.963762 0
-0.277421 -0.260483 0
-0.555913 0.780872 0
-0.118183 0.476707 0
0.88478 -0.128404 0
0.569302 -0.235784 0
-0.626684 -0.503802 0
-0.653819 -0.337758 0
0.0337254 0.692804 0
0.215251 0.811544 0
0.424756 -0.380713 0
0.48613 -0.781948 0
-0.434606 -0.106953 0
-0.953705 0.202987 0
0.0714829 0.343184 0
0.830971 0.556316 0
0.284279 -0.150651 0
-0.180347 -0.977917 0
-0.00257735 -0.295731 0
-0.435533 0.712494 0
-0.319769 0.313853 0
0.72592 -0.200433 0
0.586028 -0.00261136 0
-0.570477 -0.302311 0
-0.512852 -0.482925 0
0.161866 0.490451 0
0.0488164 0.797576 0
0.166026 -0.330999 0
0.551882 -0.668193 0
-0.206179 0.0545701 0
-0.89712 0.117645 0
0.0269167 0.0590136 0
0.742935 0.529394 0
0.112416 0.0788763 0
-0.178299 -0.870672 0
0.298466 -0.286714 0
-0.230469 0.583608 0
-0.49229 0.0958693 0
0.472391 -0.292345 0
0.529169 0.24199 0
-0.471128 -0.0252857 0
-0.307416 -0.571089 0
0.316304 0.21732 0
-0.117616 0.687626 0
-0.153422 -0.263211 0
0.541316 -0.484444 0
0.0614974 0.250599 0
-0.732528 0.0405479 0
-0.00537247 -0.268481 0
0.585635 0.416979 0
-0.103927 0.312821 0
-0.190609 -0.65579 0
0.556248 -0.231229 0
0.0202511 0.416695 0
-0.591143 -0.130808 0
0.172759 -0.383501 0
0.404028 0.440445 0
-0.345871 0.269747 0
-0.0793523 -0.574324 0
0.46196 -0.0704502 0
-0.244089 0.496563 0
-0.463958 -0.189982 0
0.447745 -0.266142 0
0.309667 0.437017 0
-0.486033 -0.0091196 0
-0.0174565 -0.56555 0
0.387736 0.235697 0
-0.3171 0.496112 0
-0.215389 -0.371168 0
0.707259 -0.138499 0
0.260993 0.2378 0
-0.586918 -0.315807 0
-0.112613 -0.445034 0
0.231269 0.544702 0
-0.213111 0.513898 0
0.125125 -0.484122 0
0.557505 -0.311168 0
-0.301943 0.257095 0
-0.690729 -0.121522 0
0.285586 -0.053534 0
0.481297 0.564973 0
-0.201959 -0.0235335 0
-0.00824667 -0.759281 0
0.182592 0.0222472 0
-0.475493 0.582671 0
-0.240612 -0.0708862 0
0.573979 -0.0735545 0
0.707956 0.241256 0
-0.36799 -0.243621 0
-0.407734 -0.72169 0
0.0857697 0.276586 0
-0.188559 0.861335 0
0.0330851 -0.126537 0
0.733753 -0.529071 0
0.0518321 0.0290965 0
-0.891704 -0.0948758 0
-0.165818 -0.13219 0
0.575339 0.637051 0
0.090019 0.357375 0
-0.00433557 -0.790893 0
0.226214 -0.461131 0
-0.459951 0.523128 0
-0.591855 0.247737 0
