# vtk DataFile Version 3.0
tp3485 scalar+vector
ASCII
DATASET UNSTRUCTURED_GRID
POINTS 187 double
1 0 0
0.932472 0.361242 0
0.739009 0.673696 0
0.445738 0.895163 0
0.0922684 0.995734 0
-0.273663 0.961826 0
-0.602635 0.798017 0
-0.850217 0.526432 0
-0.982973 0.18375 0
-0.982973 -0.18375 0
-0.850217 -0.526432 0
-0.602635 -0.798017 0
-0.273663 -0.961826 0
0.0922684 -0.995734 0
0.445738 -0.895163 0
0.739009 -0.673696 0
0.932472 -0.361242 0
1.3 0 0
1.21221 0.469614 0
0.960712 0.875804 0
0.57946 1.16371 0
0.119949 1.29445 0
-0.355762 1.25037 0
-0.783425 1.03742 0
-1.10528 0.684362 0
-1.27787 0.238874 0
-1.27787 -0.238874 0
-1.10528 -0.684362 0
-0.783425 -1.03742 0
-0.355762 -1.25037 0
0.119949 -1.29445 0
0.57946 -1.16371 0
0.960712 -0.875804 0
1.21221 -0.469614 0
1.6 0 0
1.49196 0.577987 0
1.18241 1.07791 0
0.713181 1.43226 0
0.147629 1.59317 0
-0.437861 1.53892 0
-0.964215 1.27683 0
-1.36035 0.842291 0
-1.57276 0.293999 0
-1.57276 -0.293999 0
-1.36035 -0.842291 0
-0.964215 -1.27683 0
-0.437861 -1.53892 0
0.147629 -1.59317 0
0.713181 -1.43226 0
1.18241 -1.07791 0
1.49196 -0.577987 0
1.9 0 0
1.7717 0.686359 0
1.40412 1.28002 0
0.846903 1.70081 0
0.17531 1.89189 0
-0.51996 1.82747 0
-1.14501 1.51623 0
-1.61541 1.00022 0
-1.86765 0.349124 0
-1.86765 -0.349124 0
-1.61541 -1.00022 0
-1.14501 -1.51623 0
-0.51996 -1.82747 0
0.17531 -1.89189 0
0.846903 -1.70081 0
1.40412 -1.28002 0
1.7717 -0.686359 0
2.2 0 0
2.05144 0.794732 0
1.62582 1.48213 0
0.980624 1.96936 0
0.20299 2.19062 0
-0.602059 2.11602 0
-1.3258 1.75564 0
-1.87048 1.15815 0
-2.16254 0.404249 0
-2.16254 -0.404249 0
-1.87048 -1.15815 0
-1.3258 -1.75564 0
-0.602059 -2.11602 0
0.20299 -2.19062 0
0.980624 -1.96936 0
1.62582 -1.48213 0
2.05144 -0.794732 0
2.5 0 0
2.33118 0.903104 0
1.84752 1.68424 0
1.11435 2.23791 0
0.230671 2.48934 0
-0.684157 2.40456 0
-1.50659 1.99504 0
-2.12554 1.31608 0
-2.45743 0.459374 0
-2.45743 -0.459374 0
-2.12554 -1.31608 0
-1.50659 -1.99504 0
-0.684157 -2.40456 0
0.230671 -2.48934 0
1.11435 -2.23791 0
1.84752 -1.68424 0
2.33118 -0.903104 0
2.8 0 0
2.61092 1.01148 0
2.06922 1.88635 0
1.24807 2.50646 0
0.258351 2.78806 0
-0.766256 2.69311 0
-1.68738 2.23445 0
-2.38061 1.47401 0
-2.75232 0.514499 0
-2.75232 -0.514499 0
-2.38061 -1.47401 0
-1.68738 -2.23445 0
-0.766256 -2.69311 0
0.258351 -2.78806 0
1.24807 -2.50646 0
2.06922 -1.88635 0
2.61092 -1.01148 0
3.1 0 0
2.89066 1.11985 0
2.29093 2.08846 0
1.38179 2.77501 0
0.286032 3.08678 0
-0.848355 2.98166 0
-1.86817 2.47385 0
-2.63567 1.63194 0
-3.04722 0.569624 0
-3.04722 -0.569624 0
-2.63567 -1.63194 0
-1.86817 -2.47385 0
-0.848355 -2.98166 0
0.286032 -3.08678 0
1.38179 -2.77501 0
2.29093 -2.08846 0
2.89066 -1.11985 0
3.4 0 0
3.17041 1.22822 0
2.51263 2.29057 0
1.51551 3.04356 0
0.313712 3.3855 0
-0.930454 3.27021 0
-2.04896 2.71326 0
-2.89074 1.78987 0
-3.34211 0.624748 0
-3.34211 -0.624748 0
-2.89074 -1.78987 0
-2.04896 -2.71326 0
-0.930454 -3.27021 0
0.313712 -3.3855 0
1.51551 -3.04356 0
2.51263 -2.29057 0
3.17041 -1.22822 0
3.7 0 0
3.45015 1.33659 0
2.73433 2.49267 0
1.64923 3.3121 0
0.341393 3.68422 0
-1.01255 3.55875 0
-2.22975 2.95266 0
-3.1458 1.9478 0
-3.637 0.679873 0
-3.637 -0.679873 0
-3.1458 -1.9478 0
-2.22975 -2.95266 0
-1.01255 -3.55875 0
0.341393 -3.68422 0
1.64923 -3.3121 0
2.73433 -2.49267 0
3.45015 -1.33659 0
4 0 0
3.72989 1.44497 0
2.95604 2.69478 0
1.78295 3.58065 0
0.369073 3.98294 0
-1.09465 3.8473 0
-2.41054 3.19207 0
-3.40087 2.10573 0
-3.93189 0.734998 0
-3.93189 -0.734998 0
-3.40087 -2.10573 0
-2.41054 -3.19207 0
-1.09465 -3.8473 0
0.369073 -3.98294 0
1.78295 -3.58065 0
2.95604 -2.69478 0
3.72989 -1.44497 0
CELLS 340 1360
3 0 17 18
3 0 18 1
3 1 18 19
3 1 19 2
3 2 19 20
3 2 20 3
3 3 20 21
3 3 21 4
3 4 21 22
3 4 22 5
3 5 22 23
3 5 23 6
3 6 23 24
3 6 24 7
3 7 24 25
3 7 25 8
3 8 25 26
3 8 26 9
3 9 26 27
3 9 27 10
3 10 27 28
3 10 28 11
3 11 28 29
3 11 29 12
3 12 29 30
3 12 30 13
3 13 30 31
3 13 31 14
3 14 31 32
3 14 32 15
3 15 32 33
3 15 33 16
3 16 33 17
3 16 17 0
3 17 34 35
3 17 35 18
3 18 35 36
3 18 36 19
3 19 36 37
3 19 37 20
3 20 37 38
3 20 38 21
3 21 38 39
3 21 39 22
3 22 39 40
3 22 40 23
3 23 40 41
3 23 41 24
3 24 41 42
3 24 42 25
3 25 42 43
3 25 43 26
3 26 43 44
3 26 44 27
3 27 44 45
3 27 45 28
3 28 45 46
3 28 46 29
3 29 46 47
3 29 47 30
3 30 47 48
3 30 48 31
3 31 48 49
3 31 49 32
3 32 49 50
3 32 50 33
3 33 50 34
3 33 34 17
3 34 51 52
3 34 52 35
3 35 52 53
3 35 53 36
3 36 53 54
3 36 54 37
3 37 54 55
3 37 55 38
3 38 55 56
3 38 56 39
3 39 56 57
3 39 57 40
3 40 57 58
3 40 58 41
3 41 58 59
3 41 59 42
3 42 59 60
3 42 60 43
3 43 60 61
3 43 61 44
3 44 61 62
3 44 62 45
3 45 62 63
3 45 63 46
3 46 63 64
3 46 64 47
3 47 64 65
3 47 65 48
3 48 65 66
3 48 66 49
3 49 66 67
3 49 67 50
3 50 67 51
3 50 51 34
3 51 68 69
3 51 69 52
3 52 69 70
3 52 70 53
3 53 70 71
3 53 71 54
3 54 71 72
3 54 72 55
3 55 72 73
3 55 73 56
3 56 73 74
3 56 74 57
3 57 74 75
3 57 75 58
3 58 75 76
3 58 76 59
3 59 76 77
3 59 77 60
3 60 77 78
3 60 78 61
3 61 78 79
3 61 79 62
3 62 79 80
3 62 80 63
3 63 80 81
3 63 81 64
3 64 81 82
3 64 82 65
3 65 82 83
3 65 83 66
3 66 83 84
3 66 84 67
3 67 84 68
3 67 68 51
3 68 85 86
3 68 86 69
3 69 86 87
3 69 87 70
3 70 87 88
3 70 88 71
3 71 88 89
3 71 89 72
3 72 89 90
3 72 90 73
3 73 90 91
3 73 91 74
3 74 91 92
3 74 92 75
3 75 92 93
3 75 93 76
3 76 93 94
3 76 94 77
3 77 94 95
3 77 95 78
3 78 95 96
3 78 96 79
3 79 96 97
3 79 97 80
3 80 97 98
3 80 98 81
3 81 98 99
3 81 99 82
3 82 99 100
3 82 100 83
3 83 100 101
3 83 101 84
3 84 101 85
3 84 85 68
3 85 102 103
3 85 103 86
3 86 103 104
3 86 104 87
3 87 104 105
3 87 105 88
3 88 105 106
3 88 106 89
3 89 106 107
3 89 107 90
3 90 107 108
3 90 108 91
3 91 108 109
3 91 109 92
3 92 109 110
3 92 110 93
3 93 110 111
3 93 111 94
3 94 111 112
3 94 112 95
3 95 112 113
3 95 113 96
3 96 113 114
3 96 114 97
3 97 114 115
3 97 115 98
3 98 115 116
3 98 116 99
3 99 116 117
3 99 117 100
3 100 117 118
3 100 118 101
3 101 118 102
3 101 102 85
3 102 119 120
3 102 120 103
3 103 120 121
3 103 121 104
3 104 121 122
3 104 122 105
3 105 122 123
3 105 123 106
3 106 123 124
3 106 124 107
3 107 124 125
3 107 125 108
3 108 125 126
3 108 126 109
3 109 126 127
3 109 127 110
3 110 127 128
3 110 128 111
3 111 128 129
3 111 129 112
3 112 129 130
3 112 130 113
3 113 130 131
3 113 131 114
3 114 131 132
3 114 132 115
3 115 132 133
3 115 133 116
3 116 133 134
3 116 134 117
3 117 134 135
3 117 135 118
3 118 135 119
3 118 119 102
3 119 136 137
3 119 137 120
3 120 137 138
3 120 138 121
3 121 138 139
3 121 139 122
3 122 139 140
3 122 140 123
3 123 140 141
3 123 141 124
3 124 141 142
3 124 142 125
3 125 142 143
3 125 143 126
3 126 143 144
3 126 144 127
3 127 144 145
3 127 145 128
3 128 145 146
3 128 146 129
3 129 146 147
3 129 147 130
3 130 147 148
3 130 148 131
3 131 148 149
3 131 149 132
3 132 149 150
3 132 150 133
3 133 150 151
3 133 151 134
3 134 151 152
3 134 152 135
3 135 152 136
3 135 136 119
3 136 153 154
3 136 154 137
3 137 154 155
3 137 155 138
3 138 155 156
3 138 156 139
3 139 156 157
3 139 157 140
3 140 157 158
3 140 158 141
3 141 158 159
3 141 159 142
3 142 159 160
3 142 160 143
3 143 160 161
3 143 161 144
3 144 161 162
3 144 162 145
3 145 162 163
3 145 163 146
3 146 163 164
3 146 164 147
3 147 164 165
3 147 165 148
3 148 165 166
3 148 166 149
3 149 166 167
3 149 167 150
3 150 167 168
3 150 168 151
3 151 168 169
3 151 169 152
3 152 169 153
3 152 153 136
3 153 170 171
3 153 171 154
3 154 171 172
3 154 172 155
3 155 172 173
3 155 173 156
3 156 173 174
3 156 174 157
3 157 174 175
3 157 175 158
3 158 175 176
3 158 176 159
3 159 176 177
3 159 177 160
3 160 177 178
3 160 178 161
3 161 178 179
3 161 179 162
3 162 179 180
3 162 180 163
3 163 180 181
3 163 181 164
3 164 181 182
3 164 182 165
3 165 182 183
3 165 183 166
3 166 183 184
3 166 184 167
3 167 184 185
3 167 185 168
3 168 185 186
3 168 186 169
3 169 186 170
3 169 170 153
CELL_TYPES 340
5
5
5
5
5
5
5
5
5
5
5
5
5
5
5
5
5
5
5
5
5
5
5
5
5
5
5
5
5
5
5
5
5
5
5
5
5
5
5
5
5
5
5
5
5
5
5
5
5
5
5
5
5
5
5
5
5
5
5
5
5
5
5
5
5
5
5
5
5
5
5
5
5
5
5
5
5
5
5
5
5
5
5
5
5
5
5
5
5
5
5
5
5
5
5
5
5
5
5
5
5
5
5
5
5
5
5
5
5
5
5
5
5
5
5
5
5
5
5
5
5
5
5
5
5
5
5
5
5
5
5
5
5
5
5
5
5
5
5
5
5
5
5
5
5
5
5
5
5
5
5
5
5
5
5
5
5
5
5
5
5
5
5
5
5
5
5
5
5
5
5
5
5
5
5
5
5
5
5
5
5
5
5
5
5
5
5
5
5
5
5
5
5
5
5
5
5
5
5
5
5
5
5
5
5
5
5
5
5
5
5
5
5
5
5
5
5
5
5
5
5
5
5
5
5
5
5
5
5
5
5
5
5
5
5
5
5
5
5
5
5
5
5
5
5
5
5
5
5
5
5
5
5
5
5
5
5
5
5
5
5
5
5
5
5
5
5
5
5
5
5
5
5
5
5
5
5
5
5
5
5
5
5
5
5
5
5
5
5
5
5
5
5
5
5
5
5
5
5
5
5
5
5
5
5
5
5
5
5
5
5
5
5
5
5
5
5
5
5
5
5
5
5
5
5
5
5
5
5
5
5
5
5
5
5
5
5
5
5
5
POINT_DATA 187
SCALARS psi double 1
LOOKUP_TABLE default
0
0
0
0
0
0
0
0
0
0
0
0
0
0
0
0
0
0.251159
0.328838
0.23487
0.0183037
-0.207816
-0.32546
-0.273219
-0.078363
0.157397
0.310999
0.302265
0.135754
-0.101618
-0.285948
-0.321017
-0.188522
0.042379
0.456944
0.603341
0.434805
0.0393082
-0.376707
-0.596087
-0.504321
-0.149308
0.283641
0.568535
0.556663
0.254224
-0.180916
-0.521621
-0.590049
-0.350482
0.0720304
0.61467
0.818535
0.595139
0.0610916
-0.504845
-0.807261
-0.688302
-0.210061
0.377828
0.768497
0.758025
0.351877
-0.237944
-0.703563
-0.801934
-0.48171
0.0899582
0.711783
0.956023
0.701237
0.0804172
-0.582379
-0.941184
-0.808707
-0.2541
0.433143
0.894293
0.888638
0.41913
-0.269156
-0.816948
-0.938307
-0.569887
0.0960042
0.738111
1
0.739907
0.093596
-0.601571
-0.982728
-0.850919
-0.274945
0.444545
0.931991
0.932954
0.446932
-0.272381
-0.849515
-0.983218
-0.603699
0.0909407
0.690712
0.943987
0.704517
0.0973023
-0.560703
-0.926031
-0.807988
-0.268189
0.411599
0.87654
0.883943
0.429943
-0.248479
-0.7972
-0.929796
-0.577056
0.0768979
0.57557
0.793582
0.597358
0.0893238
-0.465336
-0.777098
-0.683229
-0.232727
0.339255
0.734152
0.745834
0.368205
-0.201621
-0.666204
-0.783041
-0.491144
0.0571212
0.407248
0.566517
0.430074
0.0691396
-0.327884
-0.553758
-0.49058
-0.171328
0.237354
0.522142
0.534381
0.267683
-0.138741
-0.472744
-0.559984
-0.354921
0.0354036
0.20703
0.290592
0.22247
0.0382228
-0.165976
-0.283539
-0.253099
-0.0905461
0.11927
0.266829
0.275109
0.139786
-0.0685025
-0.241034
-0.28775
-0.184266
0.0154021
0
0
0
0
0
0
0
0
0
0
0
0
0
0
0
0
0
VECTORS Et double
-0.886896 -0.137036 0
-0.909819 -0.336001 0
-0.51142 -0.250084 0
-0.125318 0.243523 0
-0.0932728 0.798071 0
-0.297986 0.95457 0
-0.313766 0.629554 0
0.0947356 0.195446 0
0.682216 0.0660852 0
0.966614 0.24707 0
0.74064 0.348167 0
0.286977 0.0415 0
0.0605759 -0.545845 0
0.190805 -0.943951 0
0.354465 -0.836513 0
0.158218 -0.394591 0
-0.396769 -0.0799645 0
-0.672928 -0.274573 0
-0.867041 -0.271653 0
-0.737603 -0.181066 0
-0.462157 0.141507 0
-0.289392 0.578999 0
-0.271112 0.850249 0
-0.223684 0.794146 0
0.0408685 0.529376 0
0.473997 0.315226 0
0.811398 0.268779 0
0.836849 0.251372 0
0.600586 0.0479899 0
0.35302 -0.362741 0
0.268704 -0.751526 0
0.266324 -0.862053 0
0.122445 -0.671535 0
-0.250275 -0.402497 0
-0.542182 -0.427539 0
-0.716518 -0.226122 0
-0.754135 -0.0129866 0
-0.655248 0.229273 0
-0.47692 0.483791 0
-0.276908 0.684131 0
-0.0685336 0.758802 0
0.165939 0.69017 0
0.42205 0.525207 0
0.643589 0.327354 0
0.75415 0.122323 0
0.718987 -0.104257 0
0.571664 -0.358271 0
0.377588 -0.59588 0
0.174718 -0.740009 0
-0.044578 -0.74062 0
-0.293663 -0.615366 0
-0.38 -0.495201 0
-0.526269 -0.167456 0
-0.688692 0.110185 0
-0.73189 0.262448 0
-0.565644 0.353478 0
-0.250623 0.484277 0
0.0521756 0.653471 0
0.234474 0.739437 0
0.330036 0.62622 0
0.445384 0.334861 0
0.613025 0.0141832 0
0.733757 -0.200664 0
0.674934 -0.308262 0
0.41735 -0.410524 0
0.0879271 -0.569849 0
-0.159557 -0.716211 0
-0.286386 -0.710394 0
-0.181834 -0.502877 0
-0.28483 -0.0900209 0
-0.548902 0.217987 0
-0.723044 0.265777 0
-0.585911 0.188945 0
-0.195002 0.238276 0
0.16431 0.479373 0
0.275141 0.703689 0
0.205012 0.65178 0
0.205291 0.302356 0
0.409095 -0.0934666 0
0.665707 -0.272139 0
0.697493 -0.226163 0
0.406743 -0.186664 0
-0.00757736 -0.342855 0
-0.253727 -0.612647 0
-0.247964 -0.721349 0
0.0354241 -0.463984 0
-0.0105458 0.0011479 0
-0.35391 0.314974 0
-0.647367 0.251397 0
-0.552695 0.00649378 0
-0.117422 -0.0358027 0
0.270105 0.255512 0
0.298494 0.601929 0
0.0625321 0.618164 0
-0.0589414 0.239422 0
0.161176 -0.200452 0
0.534016 -0.327437 0
0.656658 -0.126601 0
0.357372 0.0583347 0
-0.109178 -0.0776216 0
-0.333828 -0.449142 0
-0.191889 -0.666334 0
0.246537 -0.390043 0
0.265633 0.0959339 0
-0.130086 0.396199 0
-0.5225 0.226738 0
-0.478124 -0.171637 0
-0.028429 -0.307388 0
0.362646 0.0101266 0
0.308319 0.453897 0
-0.078593 0.538386 0
-0.317836 0.1569 0
-0.101028 -0.298382 0
0.360661 -0.367001 0
0.566659 -0.02467 0
0.280368 0.296792 0
-0.207443 0.195212 0
-0.397376 -0.24993 0
-0.129409 -0.561133 0
0.425017 -0.292992 0
0.509179 0.182252 0
0.0929689 0.453235 0
-0.367367 0.196574 0
-0.374626 -0.322802 0
0.0599555 -0.542687 0
0.431765 -0.224988 0
0.305276 0.281107 0
-0.200007 0.425808 0
-0.53922 0.0666612 0
-0.344079 -0.37596 0
0.169918 -0.387857 0
0.442262 0.0658171 0
0.187521 0.499 0
-0.290478 0.441259 0
-0.438343 -0.0420423 0
-0.0697422 -0.422385 0
0.54821 -0.185184 0
0.688636 0.248459 0
0.286539 0.477633 0
-0.20163 0.163723 0
-0.25528 -0.428025 0
0.136009 -0.711363 0
0.467556 -0.419495 0
0.288615 0.105561 0
-0.28673 0.294603 0
-0.694642 -0.0195154 0
-0.536574 -0.422326 0
-0.0138245 -0.386144 0
0.299131 0.134022 0
0.090782 0.6391 0
-0.346884 0.628718 0
-0.450294 0.147837 0
-0.0196194 -0.267605 0
0.600998 -0.0786002 0
0.780809 0.285349 0
0.42667 0.463358 0
-0.0441424 0.12951 0
-0.133137 -0.474948 0
0.189967 -0.791633 0
0.462903 -0.548925 0
0.257354 -0.052337 0
-0.329266 0.159081 0
-0.764181 -0.0912563 0
-0.653976 -0.42952 0
-0.168729 -0.358876 0
0.152996 0.173304 0
0.00124848 0.699423 0
-0.368027 0.733472 0
-0.42856 0.29666 0
0.0170727 -0.114061 0
0.456903 -0.0438893 0
0.809575 0.252105 0
0.613936 0.504325 0
0.148423 0.291145 0
-0.0648331 -0.305802 0
0.160377 -0.771226 0
0.474703 -0.707614 0
0.393959 -0.25989 0
-0.145806 0.0552878 0
-0.696698 -0.0749983 0
-0.775153 -0.417974 0
-0.380819 -0.465142 0
0.0147575 -0.0132864 0
-0.00450208 0.589868 0
-0.341005 0.810435 0
-0.501967 0.501996 0
-0.16185 0.0546596 0
