# vtk DataFile Version 3.0
tp3485 scalar+vector
ASCII
DATASET UNSTRUCTURED_GRID
POINTS 187 double
1 0 0
0.932472 0.361242 0
0.739009 0.673696 0
0.445738 0.895163 0
0.0922684 0.995734 0
-0.273663 0.961826 0
-0.602635 0.798017 0
-0.850217 0.526432 0
-0.982973 0.18375 0
-0.982973 -0.18375 0
-0.850217 -0.526432 0
-0.602635 -0.798017 0
-0.273663 -0.961826 0
0.0922684 -0.995734 0
0.445738 -0.895163 0
0.739009 -0.673696 0
0.932472 -0.361242 0
1.3 0 0
1.21221 0.469614 0
0.960712 0.875804 0
0.57946 1.16371 0
0.119949 1.29445 0
-0.355762 1.25037 0
-0.783425 1.03742 0
-1.10528 0.684362 0
-1.27787 0.238874 0
-1.27787 -0.238874 0
-1.10528 -0.684362 0
-0.783425 -1.03742 0
-0.355762 -1.25037 0
0.119949 -1.29445 0
0.57946 -1.16371 0
0.960712 -0.875804 0
1.21221 -0.469614 0
1.6 0 0
1.49196 0.577987 0
1.18241 1.07791 0
0.713181 1.43226 0
0.147629 1.59317 0
-0.437861 1.53892 0
-0.964215 1.27683 0
-1.36035 0.842291 0
-1.57276 0.293999 0
-1.57276 -0.293999 0
-1.36035 -0.842291 0
-0.964215 -1.27683 0
-0.437861 -1.53892 0
0.147629 -1.59317 0
0.713181 -1.43226 0
1.18241 -1.07791 0
1.49196 -0.577987 0
1.9 0 0
1.7717 0.686359 0
1.40412 1.28002 0
0.846903 1.70081 0
0.17531 1.89189 0
-0.51996 1.82747 0
-1.14501 1.51623 0
-1.61541 1.00022 0
-1.86765 0.349124 0
-1.86765 -0.349124 0
-1.61541 -1.00022 0
-1.14501 -1.51623 0
-0.51996 -1.82747 0
0.17531 -1.89189 0
0.846903 -1.70081 0
1.40412 -1.28002 0
1.7717 -0.686359 0
2.2 0 0
2.05144 0.794732 0
1.62582 1.48213 0
0.980624 1.96936 0
0.20299 2.19062 0
-0.602059 2.11602 0
-1.3258 1.75564 0
-1.87048 1.15815 0
-2.16254 0.404249 0
-2.16254 -0.404249 0
-1.87048 -1.15815 0
-1.3258 -1.75564 0
-0.602059 -2.11602 0
0.20299 -2.19062 0
0.980624 -1.96936 0
1.62582 -1.48213 0
2.05144 -0.794732 0
2.5 0 0
2.33118 0.903104 0
1.84752 1.68424 0
1.11435 2.23791 0
0.230671 2.48934 0
-0.684157 2.40456 0
-1.50659 1.99504 0
-2.12554 1.31608 0
-2.45743 0.459374 0
-2.45743 -0.459374 0
-2.12554 -1.31608 0
-1.50659 -1.99504 0
-0.684157 -2.40456 0
0.230671 -2.48934 0
1.11435 -2.23791 0
1.84752 -1.68424 0
2.33118 -0.903104 0
2.8 0 0
2.61092 1.01148 0
2.06922 1.88635 0
1.24807 2.50646 0
0.258351 2.78806 0
-0.766256 2.69311 0
-1.68738 2.23445 0
-2.38061 1.47401 0
-2.75232 0.514499 0
-2.75232 -0.514499 0
-2.38061 -1.47401 0
-1.68738 -2.23445 0
-0.766256 -2.69311 0
0.258351 -2.78806 0
1.24807 -2.50646 0
2.06922 -1.88635 0
2.61092 -1.01148 0
3.1 0 0
2.89066 1.11985 0
2.29093 2.08846 0
1.38179 2.77501 0
0.286032 3.08678 0
-0.848355 2.98166 0
-1.86817 2.47385 0
-2.63567 1.63194 0
-3.04722 0.569624 0
-3.04722 -0.569624 0
-2.63567 -1.63194 0
-1.86817 -2.47385 0
-0.848355 -2.98166 0
0.286032 -3.08678 0
1.38179 -2.77501 0
2.29093 -2.08846 0
2.89066 -1.11985 0
3.4 0 0
3.17041 1.22822 0
2.51263 2.29057 0
1.51551 3.04356 0
0.313712 3.3855 0
-0.930454 3.27021 0
-2.04896 2.71326 0
-2.89074 1.78987 0
-3.34211 0.624748 0
-3.34211 -0.624748 0
-2.89074 -1.78987 0
-2.04896 -2.71326 0
-0.930454 -3.27021 0
0.313712 -3.3855 0
1.51551 -3.04356 0
2.51263 -2.29057 0
3.17041 -1.22822 0
3.7 0 0
3.45015 1.33659 0
2.73433 2.49267 0
1.64923 3.3121 0
0.341393 3.68422 0
-1.01255 3.55875 0
-2.22975 2.95266 0
-3.1458 1.9478 0
-3.637 0.679873 0
-3.637 -0.679873 0
-3.1458 -1.9478 0
-2.22975 -2.95266 0
-1.01255 -3.55875 0
0.341393 -3.68422 0
1.64923 -3.3121 0
2.73433 -2.49267 0
3.45015 -1.33659 0
4 0 0
3.72989 1.44497 0
2.95604 2.69478 0
1.78295 3.58065 0
0.369073 3.98294 0
-1.09465 3.8473 0
-2.41054 3.19207 0
-3.40087 2.10573 0
-3.93189 0.734998 0
-3.93189 -0.734998 0
-3.40087 -2.10573 0
-2.41054 -3.19207 0
-1.09465 -3.8473 0
0.369073 -3.98294 0
1.78295 -3.58065 0
2.95604 -2.69478 0
3.72989 -1.44497 0
CELLS 340 1360
3 0 17 18
3 0 18 1
3 1 18 19
3 1 19 2
3 2 19 20
3 2 20 3
3 3 20 21
3 3 21 4
3 4 21 22
3 4 22 5
3 5 22 23
3 5 23 6
3 6 23 24
3 6 24 7
3 7 24 25
3 7 25 8
3 8 25 26
3 8 26 9
3 9 26 27
3 9 27 10
3 10 27 28
3 10 28 11
3 11 28 29
3 11 29 12
3 12 29 30
3 12 30 13
3 13 30 31
3 13 31 14
3 14 31 32
3 14 32 15
3 15 32 33
3 15 33 16
3 16 33 17
3 16 17 0
3 17 34 35
3 17 35 18
3 18 35 36
3 18 36 19
3 19 36 37
3 19 37 20
3 20 37 38
3 20 38 21
3 21 38 39
3 21 39 22
3 22 39 40
3 22 40 23
3 23 40 41
3 23 41 24
3 24 41 42
3 24 42 25
3 25 42 43
3 25 43 26
3 26 43 44
3 26 44 27
3 27 44 45
3 27 45 28
3 28 45 46
3 28 46 29
3 29 46 47
3 29 47 30
3 30 47 48
3 30 48 31
3 31 48 49
3 31 49 32
3 32 49 50
3 32 50 33
3 33 50 34
3 33 34 17
3 34 51 52
3 34 52 35
3 35 52 53
3 35 53 36
3 36 53 54
3 36 54 37
3 37 54 55
3 37 55 38
3 38 55 56
3 38 56 39
3 39 56 57
3 39 57 40
3 40 57 58
3 40 58 41
3 41 58 59
3 41 59 42
3 42 59 60
3 42 60 43
3 43 60 61
3 43 61 44
3 44 61 62
3 44 62 45
3 45 62 63
3 45 63 46
3 46 63 64
3 46 64 47
3 47 64 65
3 47 65 48
3 48 65 66
3 48 66 49
3 49 66 67
3 49 67 50
3 50 67 51
3 50 51 34
3 51 68 69
3 51 69 52
3 52 69 70
3 52 70 53
3 53 70 71
3 53 71 54
3 54 71 72
3 54 72 55
3 55 72 73
3 55 73 56
3 56 73 74
3 56 74 57
3 57 74 75
3 57 75 58
3 58 75 76
3 58 76 59
3 59 76 77
3 59 77 60
3 60 77 78
3 60 78 61
3 61 78 79
3 61 79 62
3 62 79 80
3 62 80 63
3 63 80 81
3 63 81 64
3 64 81 82
3 64 82 65
3 65 82 83
3 65 83 66
3 66 83 84
3 66 84 67
3 67 84 68
3 67 68 51
3 68 85 86
3 68 86 69
3 69 86 87
3 69 87 70
3 70 87 88
3 70 88 71
3 71 88 89
3 71 89 72
3 72 89 90
3 72 90 73
3 73 90 91
3 73 91 74
3 74 91 92
3 74 92 75
3 75 92 93
3 75 93 76
3 76 93 94
3 76 94 77
3 77 94 95
3 77 95 78
3 78 95 96
3 78 96 79
3 79 96 97
3 79 97 80
3 80 97 98
3 80 98 81
3 81 98 99
3 81 99 82
3 82 99 100
3 82 100 83
3 83 100 101
3 83 101 84
3 84 101 85
3 84 85 68
3 85 102 103
3 85 103 86
3 86 103 104
3 86 104 87
3 87 104 105
3 87 105 88
3 88 105 106
3 88 106 89
3 89 106 107
3 89 107 90
3 90 107 108
3 90 108 91
3 91 108 109
3 91 109 92
3 92 109 110
3 92 110 93
3 93 110 111
3 93 111 94
3 94 111 112
3 94 112 95
3 95 112 113
3 95 113 96
3 96 113 114
3 96 114 97
3 97 114 115
3 97 115 98
3 98 115 116
3 98 116 99
3 99 116 117
3 99 117 100
3 100 117 118
3 100 118 101
3 101 118 102
3 101 102 85
3 102 119 120
3 102 120 103
3 103 120 121
3 103 121 104
3 104 121 122
3 104 122 105
3 105 122 123
3 105 123 106
3 106 123 124
3 106 124 107
3 107 124 125
3 107 125 108
3 108 125 126
3 108 126 109
3 109 126 127
3 109 127 110
3 110 127 128
3 110 128 111
3 111 128 129
3 111 129 112
3 112 129 130
3 112 130 113
3 113 130 131
3 113 131 114
3 114 131 132
3 114 132 115
3 115 132 133
3 115 133 116
3 116 133 134
3 116 134 117
3 117 134 135
3 117 135 118
3 118 135 119
3 118 119 102
3 119 136 137
3 119 137 120
3 120 137 138
3 120 138 121
3 121 138 139
3 121 139 122
3 122 139 140
3 122 140 123
3 123 140 141
3 123 141 124
3 124 141 142
3 124 142 125
3 125 142 143
3 125 143 126
3 126 143 144
3 126 144 127
3 127 144 145
3 127 145 128
3 128 145 146
3 128 146 129
3 129 146 147
3 129 147 130
3 130 147 148
3 130 148 131
3 131 148 149
3 131 149 132
3 132 149 150
3 132 150 133
3 133 150 151
3 133 151 134
3 134 151 152
3 134 152 135
3 135 152 136
3 135 136 119
3 136 153 154
3 136 154 137
3 137 154 155
3 137 155 138
3 138 155 156
3 138 156 139
3 139 156 157
3 139 157 140
3 140 157 158
3 140 158 141
3 141 158 159
3 141 159 142
3 142 159 160
3 142 160 143
3 143 160 161
3 143 161 144
3 144 161 162
3 144 162 145
3 145 162 163
3 145 163 146
3 146 163 164
3 146 164 147
3 147 164 165
3 147 165 148
3 148 165 166
3 148 166 149
3 149 166 167
3 149 167 150
3 150 167 168
3 150 168 151
3 151 168 169
3 151 169 152
3 152 169 153
3 152 153 136
3 153 170 171
3 153 171 154
3 154 171 172
3 154 172 155
3 155 172 173
3 155 173 156
3 156 173 174
3 156 174 157
3 157 174 175
3 157 175 158
3 158 175 176
3 158 176 159
3 159 176 177
3 159 177 160
3 160 177 178
3 160 178 161
3 161 178 179
3 161 179 162
3 162 179 180
3 162 180 163
3 163 180 181
3 163 181 164
3 164 181 182
3 164 182 165
3 165 182 183
3 165 183 166
3 166 183 184
3 166 184 167
3 167 184 185
3 167 185 168
3 168 185 186
3 168 186 169
3 169 186 170
3 169 170 153
CELL_TYPES 340
5
5
5
5
5
5
5
5
5
5
5
5
5
5
5
5
5
5
5
5
5
5
5
5
5
5
5
5
5
5
5
5
5
5
5
5
5
5
5
5
5
5
5
5
5
5
5
5
5
5
5
5
5
5
5
5
5
5
5
5
5
5
5
5
5
5
5
5
5
5
5
5
5
5
5
5
5
5
5
5
5
5
5
5
5
5
5
5
5
5
5
5
5
5
5
5
5
5
5
5
5
5
5
5
5
5
5
5
5
5
5
5
5
5
5
5
5
5
5
5
5
5
5
5
5
5
5
5
5
5
5
5
5
5
5
5
5
5
5
5
5
5
5
5
5
5
5
5
5
5
5
5
5
5
5
5
5
5
5
5
5
5
5
5
5
5
5
5
5
5
5
5
5
5
5
5
5
5
5
5
5
5
5
5
5
5
5
5
5
5
5
5
5
5
5
5
5
5
5
5
5
5
5
5
5
5
5
5
5
5
5
5
5
5
5
5
5
5
5
5
5
5
5
5
5
5
5
5
5
5
5
5
5
5
5
5
5
5
5
5
5
5
5
5
5
5
5
5
5
5
5
5
5
5
5
5
5
5
5
5
5
5
5
5
5
5
5
5
5
5
5
5
5
5
5
5
5
5
5
5
5
5
5
5
5
5
5
5
5
5
5
5
5
5
5
5
5
5
5
5
5
5
5
5
5
5
5
5
5
5
5
5
5
5
5
5
5
5
5
5
5
5
5
5
5
5
5
5
5
5
5
5
5
5
5
5
5
5
5
5
POINT_DATA 187
SCALARS psi double 1
LOOKUP_TABLE default
0
0
0
0
0
0
0
0
0
0
0
0
0
0
0
0
0
-0.0263863
0.166432
0.0570991
-0.155895
-0.0858675
0.140049
0.111712
-0.119434
-0.133752
0.0947523
0.151237
-0.0668435
-0.163572
0.0366585
0.170337
-0.00522504
-0.171301
-0.069169
0.35563
0.134796
-0.330755
-0.195832
0.294617
0.2502
-0.248446
-0.296047
0.193814
0.331813
-0.132582
-0.356279
0.0668358
0.368613
0.00118686
-0.368394
-0.130229
0.563377
0.234193
-0.52016
-0.330181
0.459229
0.414926
-0.38266
-0.485541
0.29306
0.539621
-0.19348
-0.575325
0.0873114
0.591437
0.0218304
-0.587409
-0.202873
0.755218
0.342239
-0.692062
-0.469949
0.605339
0.581657
-0.498002
-0.673556
0.373706
0.742519
-0.236684
-0.786196
0.0916021
0.8031
0.0565993
-0.792655
-0.272058
0.88611
0.435578
-0.805729
-0.584265
0.697911
0.713055
-0.566326
-0.817563
0.415456
0.89423
-0.250438
-0.940445
0.076891
0.954634
0.0992741
-0.936314
-0.317387
0.91605
0.486432
-0.826286
-0.638912
0.708383
0.769635
-0.566357
-0.874149
0.405045
0.948894
-0.229939
-0.991326
0.0470027
1
0.137534
-0.97462
-0.318792
0.823519
0.470762
-0.736647
-0.6067
0.624688
0.721978
-0.491457
-0.81267
0.341489
0.875687
-0.179893
-0.908884
0.0121704
0.91113
0.155966
-0.882348
-0.263456
0.613996
0.376761
-0.54447
-0.477236
0.456402
0.561459
-0.352793
-0.626562
0.237169
0.670328
-0.113469
-0.691268
-0.0140954
0.688666
0.14118
-0.662614
-0.151755
0.321131
0.211016
-0.282191
-0.26309
0.233641
0.306206
-0.177135
-0.338893
0.114596
0.360041
-0.0481556
-0.368927
-0.019925
0.36525
0.0873271
-0.349135
0
0
0
0
0
0
0
0
0
0
0
0
0
0
0
0
0
VECTORS Et double
-0.101814 -0.18271 0
-0.419568 -0.0894455 0
-0.114084 0.160255 0
0.219491 0.368733 0
0.205461 0.0365094 0
0.119129 -0.400388 0
-0.0800513 -0.226355 0
-0.356463 0.171348 0
-0.166096 0.22693 0
0.335156 0.141497 0
0.323868 -0.00911471 0
-0.0960205 -0.310339 0
-0.241317 -0.271255 0
-0.161556 0.231269 0
-0.0476251 0.39206 0
0.240866 0.0022191 0
0.340624 -0.241213 0
0.0716392 -0.398607 0
-0.414199 -0.158637 0
-0.38218 0.191402 0
0.120701 0.403737 0
0.405237 0.193545 0
0.239626 -0.319362 0
-0.10656 -0.455018 0
-0.380243 -0.0108244 0
-0.292503 0.380841 0
0.19799 0.310202 0
0.486124 -0.01781 0
0.147502 -0.333285 0
-0.323649 -0.361855 0
-0.365108 0.0630876 0
-0.0716321 0.471972 0
0.268531 0.275789 0
0.398725 -0.235176 0
0.118624 -0.65321 0
-0.448133 -0.272592 0
-0.586669 0.326031 0
0.024845 0.520347 0
0.622788 0.245492 0
0.422996 -0.317519 0
-0.200905 -0.627429 0
-0.519254 -0.171679 0
-0.352132 0.534868 0
0.171825 0.545255 0
0.613786 -0.0527633 0
0.34949 -0.486869 0
-0.396545 -0.434993 0
-0.625516 0.0230646 0
-0.109176 0.550885 0
0.422291 0.491878 0
0.491687 -0.220766 0
0.176737 -0.844356 0
-0.428166 -0.368268 0
-0.748577 0.413007 0
-0.0880255 0.581773 0
0.777516 0.293338 0
0.571227 -0.268326 0
-0.26079 -0.748682 0
-0.597878 -0.332752 0
-0.392356 0.631861 0
0.108028 0.731267 0
0.685477 -0.0695882 0
0.535411 -0.57947 0
-0.422695 -0.474397 0
-0.82717 -0.0422806 0
-0.146741 0.572935 0
0.519358 0.677313 0
0.538644 -0.173375 0
0.215938 -0.952225 0
-0.316039 -0.422667 0
-0.827296 0.464428 0
-0.224511 0.550036 0
0.848963 0.29381 0
0.662972 -0.148078 0
-0.3055 -0.770357 0
-0.590917 -0.490135 0
-0.362227 0.651383 0
0.000737845 0.848252 0
0.650103 -0.0913343 0
0.688874 -0.599742 0
-0.383445 -0.427754 0
-0.950594 -0.120044 0
-0.160378 0.490414 0
0.561335 0.802821 0
0.491984 -0.0788087 0
0.211377 -0.956087 0
-0.113664 -0.416506 0
-0.792114 0.484906 0
-0.365228 0.415013 0
0.821546 0.222361 0
0.676044 0.032383 0
-0.343154 -0.66716 0
-0.49236 -0.617056 0
-0.239457 0.585217 0
-0.132066 0.872449 0
0.490334 -0.129836 0
0.778393 -0.54543 0
-0.279529 -0.276351 0
-0.972371 -0.18751 0
-0.134424 0.295457 0
0.54944 0.835533 0
0.337235 0.0526166 0
0.148984 -0.851755 0
0.145082 -0.343544 0
-0.636058 0.479641 0
-0.480085 0.196274 0
0.697489 0.0758207 0
0.601983 0.237926 0
-0.376645 -0.444857 0
-0.319737 -0.68304 0
-0.0308399 0.443649 0
-0.258754 0.794463 0
0.224189 -0.187625 0
0.777532 -0.430134 0
-0.129612 -0.0345619 0
-0.884382 -0.220535 0
-0.0649787 0.0159572 0
0.492748 0.757196 0
0.0930835 0.195126 0
0.0317245 -0.65603 0
0.404458 -0.214075 0
-0.381541 0.453564 0
-0.539009 -0.0616653 0
0.498887 -0.124688 0
0.450947 0.4205 0
-0.403118 -0.141534 0
-0.109896 -0.665782 0
0.22803 0.254283 0
-0.345033 0.625012 0
-0.098243 -0.256992 0
0.676277 -0.280214 0
0.0345185 0.252969 0
-0.699477 -0.202693 0
0.0380642 -0.291709 0
0.406362 0.573368 0
-0.19295 0.315683 0
-0.11847 -0.403883 0
0.602295 -0.0532951 0
-0.0773505 0.409266 0
-0.521599 -0.30111 0
0.263202 -0.336925 0
0.25036 0.533491 0
-0.413976 0.180163 0
0.0911465 -0.559516 0
0.48029 0.0555489 0
-0.365359 0.393658 0
-0.406627 -0.321237 0
0.486653 -0.12716 0
0.176303 0.5219 0
-0.449762 -0.132325 0
0.152741 -0.557215 0
0.30666 0.315091 0
-0.456506 0.383548 0
-0.264871 -0.140694 0
0.687674 0.104742 0
0.212306 0.346282 0
-0.424184 -0.466949 0
0.0345291 -0.507563 0
0.0386713 0.545813 0
-0.397191 0.44833 0
0.2409 -0.378744 0
0.662267 -0.112848 0
-0.311703 0.142332 0
-0.628571 -0.359058 0
0.242014 0.00112107 0
0.264194 0.705138 0
-0.17964 -0.0249234 0
0.250557 -0.715354 0
0.206767 0.0330494 0
-0.633718 0.379324 0
-0.696594 0.0240694 0
0.498079 0.116875 0
0.608921 0.50482 0
-0.218219 -0.294467 0
-0.127824 -0.848511 0
-0.0025467 0.210098 0
-0.491619 0.749154 0
0.00888809 -0.05741 0
0.873369 -0.231716 0
0.120487 0.0547868 0
-0.784453 -0.399685 0
-0.160472 -0.242729 0
0.299019 0.771389 0
-0.0449037 0.440159 0
0.261635 -0.698764 0
0.421319 -0.397829 0
-0.565086 0.29976 0
