# vtk DataFile Version 3.0
tp3485 scalar+vector
ASCII
DATASET UNSTRUCTURED_GRID
POINTS 187 double
1 0 0
0.932472 0.361242 0
0.739009 0.673696 0
0.445738 0.895163 0
0.0922684 0.995734 0
-0.273663 0.961826 0
-0.602635 0.798017 0
-0.850217 0.526432 0
-0.982973 0.18375 0
-0.982973 -0.18375 0
-0.850217 -0.526432 0
-0.602635 -0.798017 0
-0.273663 -0.961826 0
0.0922684 -0.995734 0
0.445738 -0.895163 0
0.739009 -0.673696 0
0.932472 -0.361242 0
1.3 0 0
1.21221 0.469614 0
0.960712 0.875804 0
0.57946 1.16371 0
0.119949 1.29445 0
-0.355762 1.25037 0
-0.783425 1.03742 0
-1.10528 0.684362 0
-1.27787 0.238874 0
-1.27787 -0.238874 0
-1.10528 -0.684362 0
-0.783425 -1.03742 0
-0.355762 -1.25037 0
0.119949 -1.29445 0
0.57946 -1.16371 0
0.960712 -0.875804 0
1.21221 -0.469614 0
1.6 0 0
1.49196 0.577987 0
1.18241 1.07791 0
0.713181 1.43226 0
0.147629 1.59317 0
-0.437861 1.53892 0
-0.964215 1.27683 0
-1.36035 0.842291 0
-1.57276 0.293999 0
-1.57276 -0.293999 0
-1.36035 -0.842291 0
-0.964215 -1.27683 0
-0.437861 -1.53892 0
0.147629 -1.59317 0
0.713181 -1.43226 0
1.18241 -1.07791 0
1.49196 -0.577987 0
1.9 0 0
1.7717 0.686359 0
1.40412 1.28002 0
0.846903 1.70081 0
0.17531 1.89189 0
-0.51996 1.82747 0
-1.14501 1.51623 0
-1.61541 1.00022 0
-1.86765 0.349124 0
-1.86765 -0.349124 0
-1.61541 -1.00022 0
-1.14501 -1.51623 0
-0.51996 -1.82747 0
0.17531 -1.89189 0
0.846903 -1.70081 0
1.40412 -1.28002 0
1.7717 -0.686359 0
2.2 0 0
2.05144 0.794732 0
1.62582 1.48213 0
0.980624 1.96936 0
0.20299 2.19062 0
-0.602059 2.11602 0
-1.3258 1.75564 0
-1.87048 1.15815 0
-2.16254 0.404249 0
-2.16254 -0.404249 0
-1.87048 -1.15815 0
-1.3258 -1.75564 0
-0.602059 -2.11602 0
0.20299 -2.19062 0
0.980624 -1.96936 0
1.62582 -1.48213 0
2.05144 -0.794732 0
2.5 0 0
2.33118 0.903104 0
1.84752 1.68424 0
1.11435 2.23791 0
0.230671 2.48934 0
-0.684157 2.40456 0
-1.50659 1.99504 0
-2.12554 1.31608 0
-2.45743 0.459374 0
-2.45743 -0.459374 0
-2.12554 -1.31608 0
-1.50659 -1.99504 0
-0.684157 -2.40456 0
0.230671 -2.48934 0
1.11435 -2.23791 0
1.84752 -1.68424 0
2.33118 -0.903104 0
2.8 0 0
2.61092 1.01148 0
2.06922 1.88635 0
1.24807 2.50646 0
0.258351 2.78806 0
-0.766256 2.69311 0
-1.68738 2.23445 0
-2.38061 1.47401 0
-2.75232 0.514499 0
-2.75232 -0.514499 0
-2.38061 -1.47401 0
-1.68738 -2.23445 0
-0.766256 -2.69311 0
0.258351 -2.78806 0
1.24807 -2.50646 0
2.06922 -1.88635 0
2.61092 -1.01148 0
3.1 0 0
2.89066 1.11985 0
2.29093 2.08846 0
1.38179 2.77501 0
0.286032 3.08678 0
-0.848355 2.98166 0
-1.86817 2.47385 0
-2.63567 1.63194 0
-3.04722 0.569624 0
-3.04722 -0.569624 0
-2.63567 -1.63194 0
-1.86817 -2.47385 0
-0.848355 -2.98166 0
0.286032 -3.08678 0
1.38179 -2.77501 0
2.29093 -2.08846 0
2.89066 -1.11985 0
3.4 0 0
3.17041 1.22822 0
2.51263 2.29057 0
1.51551 3.04356 0
0.313712 3.3855 0
-0.930454 3.27021 0
-2.04896 2.71326 0
-2.89074 1.78987 0
-3.34211 0.624748 0
-3.34211 -0.624748 0
-2.89074 -1.78987 0
-2.04896 -2.71326 0
-0.930454 -3.27021 0
0.313712 -3.3855 0
1.51551 -3.04356 0
2.51263 -2.29057 0
3.17041 -1.22822 0
3.7 0 0
3.45015 1.33659 0
2.73433 2.49267 0
1.64923 3.3121 0
0.341393 3.68422 0
-1.01255 3.55875 0
-2.22975 2.95266 0
-3.1458 1.9478 0
-3.637 0.679873 0
-3.637 -0.679873 0
-3.1458 -1.9478 0
-2.22975 -2.95266 0
-1.01255 -3.55875 0
0.341393 -3.68422 0
1.64923 -3.3121 0
2.73433 -2.49267 0
3.45015 -1.33659 0
4 0 0
3.72989 1.44497 0
2.95604 2.69478 0
1.78295 3.58065 0
0.369073 3.98294 0
-1.09465 3.8473 0
-2.41054 3.19207 0
-3.40087 2.10573 0
-3.93189 0.734998 0
-3.93189 -0.734998 0
-3.40087 -2.10573 0
-2.41054 -3.19207 0
-1.09465 -3.8473 0
0.369073 -3.98294 0
1.78295 -3.58065 0
2.95604 -2.69478 0
3.72989 -1.44497 0
CELLS 340 1360
3 0 17 18
3 0 18 1
3 1 18 19
3 1 19 2
3 2 19 20
3 2 20 3
3 3 20 21
3 3 21 4
3 4 21 22
3 4 22 5
3 5 22 23
3 5 23 6
3 6 23 24
3 6 24 7
3 7 24 25
3 7 25 8
3 8 25 26
3 8 26 9
3 9 26 27
3 9 27 10
3 10 27 28
3 10 28 11
3 11 28 29
3 11 29 12
3 12 29 30
3 12 30 13
3 13 30 31
3 13 31 14
3 14 31 32
3 14 32 15
3 15 32 33
3 15 33 16
3 16 33 17
3 16 17 0
3 17 34 35
3 17 35 18
3 18 35 36
3 18 36 19
3 19 36 37
3 19 37 20
3 20 37 38
3 20 38 21
3 21 38 39
3 21 39 22
3 22 39 40
3 22 40 23
3 23 40 41
3 23 41 24
3 24 41 42
3 24 42 25
3 25 42 43
3 25 43 26
3 26 43 44
3 26 44 27
3 27 44 45
3 27 45 28
3 28 45 46
3 28 46 29
3 29 46 47
3 29 47 30
3 30 47 48
3 30 48 31
3 31 48 49
3 31 49 32
3 32 49 50
3 32 50 33
3 33 50 34
3 33 34 17
3 34 51 52
3 34 52 35
3 35 52 53
3 35 53 36
3 36 53 54
3 36 54 37
3 37 54 55
3 37 55 38
3 38 55 56
3 38 56 39
3 39 56 57
3 39 57 40
3 40 57 58
3 40 58 41
3 41 58 59
3 41 59 42
3 42 59 60
3 42 60 43
3 43 60 61
3 43 61 44
3 44 61 62
3 44 62 45
3 45 62 63
3 45 63 46
3 46 63 64
3 46 64 47
3 47 64 65
3 47 65 48
3 48 65 66
3 48 66 49
3 49 66 67
3 49 67 50
3 50 67 51
3 50 51 34
3 51 68 69
3 51 69 52
3 52 69 70
3 52 70 53
3 53 70 71
3 53 71 54
3 54 71 72
3 54 72 55
3 55 72 73
3 55 73 56
3 56 73 74
3 56 74 57
3 57 74 75
3 57 75 58
3 58 75 76
3 58 76 59
3 59 76 77
3 59 77 60
3 60 77 78
3 60 78 61
3 61 78 79
3 61 79 62
3 62 79 80
3 62 80 63
3 63 80 81
3 63 81 64
3 64 81 82
3 64 82 65
3 65 82 83
3 65 83 66
3 66 83 84
3 66 84 67
3 67 84 68
3 67 68 51
3 68 85 86
3 68 86 69
3 69 86 87
3 69 87 70
3 70 87 88
3 70 88 71
3 71 88 89
3 71 89 72
3 72 89 90
3 72 90 73
3 73 90 91
3 73 91 74
3 74 91 92
3 74 92 75
3 75 92 93
3 75 93 76
3 76 93 94
3 76 94 77
3 77 94 95
3 77 95 78
3 78 95 96
3 78 96 79
3 79 96 97
3 79 97 80
3 80 97 98
3 80 98 81
3 81 98 99
3 81 99 82
3 82 99 100
3 82 100 83
3 83 100 101
3 83 101 84
3 84 101 85
3 84 85 68
3 85 102 103
3 85 103 86
3 86 103 104
3 86 104 87
3 87 104 105
3 87 105 88
3 88 105 106
3 88 106 89
3 89 106 107
3 89 107 90
3 90 107 108
3 90 108 91
3 91 108 109
3 91 109 92
3 92 109 110
3 92 110 93
3 93 110 111
3 93 111 94
3 94 111 112
3 94 112 95
3 95 112 113
3 95 113 96
3 96 113 114
3 96 114 97
3 97 114 115
3 97 115 98
3 98 115 116
3 98 116 99
3 99 116 117
3 99 117 100
3 100 117 118
3 100 118 101
3 101 118 102
3 101 102 85
3 102 119 120
3 102 120 103
3 103 120 121
3 103 121 104
3 104 121 122
3 104 122 105
3 105 122 123
3 105 123 106
3 106 123 124
3 106 124 107
3 107 124 125
3 107 125 108
3 108 125 126
3 108 126 109
3 109 126 127
3 109 127 110
3 110 127 128
3 110 128 111
3 111 128 129
3 111 129 112
3 112 129 130
3 112 130 113
3 113 130 131
3 113 131 114
3 114 131 132
3 114 132 115
3 115 132 133
3 115 133 116
3 116 133 134
3 116 134 117
3 117 134 135
3 117 135 118
3 118 135 119
3 118 119 102
3 119 136 137
3 119 137 120
3 120 137 138
3 120 138 121
3 121 138 139
3 121 139 122
3 122 139 140
3 122 140 123
3 123 140 141
3 123 141 124
3 124 141 142
3 124 142 125
3 125 142 143
3 125 143 126
3 126 143 144
3 126 144 127
3 127 144 145
3 127 145 128
3 128 145 146
3 128 146 129
3 129 146 147
3 129 147 130
3 130 147 148
3 130 148 131
3 131 148 149
3 131 149 132
3 132 149 150
3 132 150 133
3 133 150 151
3 133 151 134
3 134 151 152
3 134 152 135
3 135 152 136
3 135 136 119
3 136 153 154
3 136 154 137
3 137 154 155
3 137 155 138
3 138 155 156
3 138 156 139
3 139 156 157
3 139 157 140
3 140 157 158
3 140 158 141
3 141 158 159
3 141 159 142
3 142 159 160
3 142 160 143
3 143 160 161
3 143 161 144
3 144 161 162
3 144 162 145
3 145 162 163
3 145 163 146
3 146 163 164
3 146 164 147
3 147 164 165
3 147 165 148
3 148 165 166
3 148 166 149
3 149 166 167
3 149 167 150
3 150 167 168
3 150 168 151
3 151 168 169
3 151 169 152
3 152 169 153
3 152 153 136
3 153 170 171
3 153 171 154
3 154 171 172
3 154 172 155
3 155 172 173
3 155 173 156
3 156 173 174
3 156 174 157
3 157 174 175
3 157 175 158
3 158 175 176
3 158 176 159
3 159 176 177
3 159 177 160
3 160 177 178
3 160 178 161
3 161 178 179
3 161 179 162
3 162 179 180
3 162 180 163
3 163 180 181
3 163 181 164
3 164 181 182
3 164 182 165
3 165 182 183
3 165 183 166
3 166 183 184
3 166 184 167
3 167 184 185
3 167 185 168
3 168 185 186
3 168 186 169
3 169 186 170
3 169 170 153
CELL_TYPES 340
5
5
5
5
5
5
5
5
5
5
5
5
5
5
5
5
5
5
5
5
5
5
5
5
5
5
5
5
5
5
5
5
5
5
5
5
5
5
5
5
5
5
5
5
5
5
5
5
5
5
5
5
5
5
5
5
5
5
5
5
5
5
5
5
5
5
5
5
5
5
5
5
5
5
5
5
5
5
5
5
5
5
5
5
5
5
5
5
5
5
5
5
5
5
5
5
5
5
5
5
5
5
5
5
5
5
5
5
5
5
5
5
5
5
5
5
5
5
5
5
5
5
5
5
5
5
5
5
5
5
5
5
5
5
5
5
5
5
5
5
5
5
5
5
5
5
5
5
5
5
5
5
5
5
5
5
5
5
5
5
5
5
5
5
5
5
5
5
5
5
5
5
5
5
5
5
5
5
5
5
5
5
5
5
5
5
5
5
5
5
5
5
5
5
5
5
5
5
5
5
5
5
5
5
5
5
5
5
5
5
5
5
5
5
5
5
5
5
5
5
5
5
5
5
5
5
5
5
5
5
5
5
5
5
5
5
5
5
5
5
5
5
5
5
5
5
5
5
5
5
5
5
5
5
5
5
5
5
5
5
5
5
5
5
5
5
5
5
5
5
5
5
5
5
5
5
5
5
5
5
5
5
5
5
5
5
5
5
5
5
5
5
5
5
5
5
5
5
5
5
5
5
5
5
5
5
5
5
5
5
5
5
5
5
5
5
5
5
5
5
5
5
5
5
5
5
5
5
5
5
5
5
5
5
5
5
5
5
5
5
POINT_DATA 187
SCALARS psi double 1
LOOKUP_TABLE default
0
0
0
0
0
0
0
0
0
0
0
0
0
0
0
0
0
-0.150901
-0.276603
-0.364947
-0.404004
-0.388497
-0.320522
-0.209259
-0.0697338
0.0792091
0.217454
0.326331
0.391135
0.403114
0.360651
0.269479
0.141913
-0.00481971
-0.260494
-0.479814
-0.634332
-0.70318
-0.67706
-0.559499
-0.366375
-0.12377
0.135551
0.376565
0.566722
0.68034
0.702074
0.62899
0.470956
0.249318
-0.00599271
-0.331428
-0.613482
-0.812682
-0.902125
-0.869731
-0.719875
-0.472796
-0.161863
0.17093
0.480639
0.725434
0.872255
0.901274
0.80857
0.606665
0.322826
-0.00461237
-0.364319
-0.677733
-0.899615
-1
-0.965329
-0.800285
-0.527158
-0.182835
0.18618
0.530051
0.802335
0.96626
0.999686
0.898099
0.675218
0.361146
-0.00170124
-0.36091
-0.674787
-0.897531
-0.999058
-0.965657
-0.801839
-0.529728
-0.186074
0.18271
0.526819
0.799777
0.964721
0.999374
0.899056
0.677316
0.3641
0.0017108
-0.325045
-0.610846
-0.814148
-0.907495
-0.878279
-0.730448
-0.483965
-0.17212
0.162971
0.476051
0.724838
0.875732
0.908353
0.818297
0.617724
0.333725
0.00465387
-0.262748
-0.496334
-0.662888
-0.739915
-0.717012
-0.597273
-0.396868
-0.142865
0.130433
0.386116
0.589651
0.713551
0.741082
0.668525
0.505681
0.274541
0.00632359
-0.181819
-0.345263
-0.462078
-0.516486
-0.50114
-0.418112
-0.278616
-0.101491
0.0893405
0.268106
0.410663
0.497757
0.517627
0.467588
0.354399
0.193346
0.00618071
-0.0911679
-0.174044
-0.233414
-0.26126
-0.253822
-0.212104
-0.14174
-0.0522329
0.0443283
0.134903
0.207258
0.251622
0.262002
0.236998
0.179986
0.0986663
0.00402073
0
0
0
0
0
0
0
0
0
0
0
0
0
0
0
0
0
VECTORS Et double
0.472381 0.12464 0
0.664085 0.384875 0
0.630437 0.70634 0
0.389 0.921238 0
0.0658012 0.917394 0
-0.170456 0.696816 0
-0.19645 0.374641 0
0.00138778 0.119039 0
0.31979 0.0634292 0
0.592556 0.236839 0
0.677307 0.548752 0
0.529804 0.836355 0
0.227042 0.949524 0
-0.0729442 0.829187 0
-0.213566 0.538158 0
-0.121421 0.228349 0
0.155391 0.0614742 0
0.301681 0.218265 0
0.471727 0.364037 0
0.499187 0.586322 0
0.369727 0.769093 0
0.150923 0.816945 0
-0.043013 0.704902 0
-0.11085 0.491447 0
-0.0171785 0.288 0
0.189107 0.200757 0
0.400329 0.275257 0
0.506233 0.472613 0
0.45154 0.689808 0
0.264798 0.81347 0
0.0434827 0.77905 0
-0.0968824 0.604515 0
-0.0830297 0.380968 0
0.07781 0.225098 0
0.206307 0.303509 0
0.287709 0.365332 0
0.306215 0.46586 0
0.252166 0.552618 0
0.153775 0.580321 0
0.0623992 0.534508 0
0.0257361 0.439092 0
0.0629229 0.34388 0
0.154549 0.298569 0
0.252786 0.326812 0
0.306358 0.413866 0
0.287299 0.514291 0
0.20556 0.575666 0
0.103805 0.565955 0
0.0351495 0.490227 0
0.0354303 0.38801 0
0.104501 0.31266 0
0.113135 0.324036 0
0.124389 0.319888 0
0.1355 0.324404 0
0.140668 0.335227 0
0.137197 0.346707 0
0.126897 0.352853 0
0.115145 0.350455 0
0.108076 0.340766 0
0.109379 0.328843 0
0.118374 0.32091 0
0.130366 0.321107 0
0.139096 0.329332 0
0.140006 0.341292 0
0.132621 0.350743 0
0.120797 0.352752 0
0.110705 0.346272 0
0.107613 0.334683 0
0.0228563 0.306497 0
-0.0258061 0.247359 0
-0.0219265 0.170871 0
0.03247 0.116959 0
0.108989 0.113765 0
0.16769 0.162955 0
0.177931 0.238853 0
0.134367 0.301842 0
0.0597374 0.319043 0
-0.00700235 0.281476 0
-0.0310153 0.208752 0
0.000232846 0.138831 0
0.0704311 0.10821 0
0.142937 0.132874 0
0.179904 0.199947 0
0.162036 0.27442 0
0.0986598 0.317418 0
-0.0599646 0.265558 0
-0.159468 0.161451 0
-0.162865 0.0174794 0
-0.0683832 -0.0912053 0
0.0746603 -0.107872 0
0.191599 -0.0238212 0
0.221393 0.117074 0
0.148491 0.241269 0
0.0109452 0.283937 0
-0.119447 0.222804 0
-0.174623 0.0897825 0
-0.125783 -0.0456938 0
0.00158078 -0.112908 0
0.140986 -0.0767765 0
0.219665 0.0438418 0
0.19655 0.185986 0
0.0837059 0.275459 0
-0.129933 0.211119 0
-0.269844 0.0731257 0
-0.280274 -0.12311 0
-0.155779 -0.275156 0
0.0386571 -0.303648 0
0.201542 -0.193713 0
0.247852 -0.00273516 0
0.153415 0.169598 0
-0.0324746 0.233332 0
-0.212786 0.155199 0
-0.2934 -0.0240171 0
-0.232238 -0.210769 0
-0.0612239 -0.307575 0
0.130375 -0.263904 0
0.242547 -0.102552 0
0.216741 0.0922582 0
0.0664274 0.21884 0
-0.182279 0.150724 0
-0.350172 -0.00864233 0
-0.366882 -0.239525 0
-0.223687 -0.421406 0
0.00466898 -0.459348 0
0.198987 -0.333545 0
0.257837 -0.109665 0
0.1505 0.0954321 0
-0.0669952 0.174688 0
-0.281121 0.0867333 0
-0.380107 -0.122522 0
-0.312284 -0.343849 0
-0.113055 -0.461721 0
0.113586 -0.414609 0
0.249337 -0.227105 0
0.223338 0.00291609 0
0.0491603 0.155389 0
-0.213675 0.0903931 0
-0.395459 -0.0768478 0
-0.417129 -0.322907 0
-0.267374 -0.519347 0
-0.0243641 -0.563628 0
0.185055 -0.432637 0
0.251569 -0.194749 0
0.14046 0.0258625 0
-0.0902755 0.114043 0
-0.320198 0.0237633 0
-0.429292 -0.197852 0
-0.360612 -0.435124 0
-0.150008 -0.5642 0
0.0925886 -0.517706 0
0.240547 -0.31991 0
0.216635 -0.0740585 0
0.0333343 0.0915187 0
-0.222688 0.0348832 0
-0.403466 -0.126611 0
-0.428265 -0.367746 0
-0.284139 -0.562654 0
-0.0463209 -0.609596 0
0.161054 -0.484069 0
0.229738 -0.251596 0
0.123881 -0.0335244 0
-0.101263 0.0563172 0
-0.328172 -0.0289674 0
-0.438404 -0.244861 0
-0.374419 -0.478671 0
-0.169618 -0.608353 0
0.0690988 -0.566215 0
0.217124 -0.374252 0
0.197192 -0.132666 0
0.0197062 0.0324397 0
-0.146531 0.0151532 0
-0.349423 -0.106218 0
-0.417596 -0.3326 0
-0.315463 -0.545826 0
-0.0963366 -0.634595 0
0.125403 -0.552572 0
0.234012 -0.342571 0
0.172799 -0.114209 0
-0.0262851 0.0133132 0
-0.259321 -0.0265687 0
-0.404669 -0.213037 0
-0.386459 -0.448759 0
-0.214197 -0.610691 0
0.0221997 -0.614309 0
0.199336 -0.457723 0
0.22475 -0.222669 0
0.0851758 -0.0318403 0
