# vtk DataFile Version 3.0
tp3485 scalar+vector
ASCII
DATASET UNSTRUCTURED_GRID
POINTS 121 double
0 0 0
0.125 0 0
0.114193 0.0508421 0
0.0836413 0.0928931 0
0.0386271 0.118882 0
-0.0130661 0.124315 0
-0.0625 0.108253 0
-0.101127 0.0734732 0
-0.122268 0.025989 0
-0.122268 -0.025989 0
-0.101127 -0.0734732 0
-0.0625 -0.108253 0
-0.0130661 -0.124315 0
0.0386271 -0.118882 0
0.0836413 -0.0928931 0
0.114193 -0.0508421 0
0.25 0 0
0.228386 0.101684 0
0.167283 0.185786 0
0.0772542 0.237764 0
-0.0261321 0.24863 0
-0.125 0.216506 0
-0.202254 0.146946 0
-0.244537 0.0519779 0
-0.244537 -0.0519779 0
-0.202254 -0.146946 0
-0.125 -0.216506 0
-0.0261321 -0.24863 0
0.0772542 -0.237764 0
0.167283 -0.185786 0
0.228386 -0.101684 0
0.375 0 0
0.34258 0.152526 0
0.250924 0.278679 0
0.115881 0.356646 0
-0.0391982 0.372946 0
-0.1875 0.32476 0
-0.303381 0.220419 0
-0.366805 0.0779669 0
-0.366805 -0.0779669 0
-0.303381 -0.220419 0
-0.1875 -0.32476 0
-0.0391982 -0.372946 0
0.115881 -0.356646 0
0.250924 -0.278679 0
0.34258 -0.152526 0
0.5 0 0
0.456773 0.203368 0
0.334565 0.371572 0
0.154508 0.475528 0
-0.0522642 0.497261 0
-0.25 0.433013 0
-0.404508 0.293893 0
-0.489074 0.103956 0
-0.489074 -0.103956 0
-0.404508 -0.293893 0
-0.25 -0.433013 0
-0.0522642 -0.497261 0
0.154508 -0.475528 0
0.334565 -0.371572 0
0.456773 -0.203368 0
0.625 0 0
0.570966 0.25421 0
0.418207 0.464466 0
0.193136 0.59441 0
-0.0653303 0.621576 0
-0.3125 0.541266 0
-0.505636 0.367366 0
-0.611342 0.129945 0
-0.611342 -0.129945 0
-0.505636 -0.367366 0
-0.3125 -0.541266 0
-0.0653303 -0.621576 0
0.193136 -0.59441 0
0.418207 -0.464466 0
0.570966 -0.25421 0
0.75 0 0
0.685159 0.305052 0
0.501848 0.557359 0
0.231763 0.713292 0
-0.0783963 0.745891 0
-0.375 0.649519 0
-0.606763 0.440839 0
-0.733611 0.155934 0
-0.733611 -0.155934 0
-0.606763 -0.440839 0
-0.375 -0.649519 0
-0.0783963 -0.745891 0
0.231763 -0.713292 0
0.501848 -0.557359 0
0.685159 -0.305052 0
0.875 0 0
0.799352 0.355895 0
0.585489 0.650252 0
0.27039 0.832174 0
-0.0914624 0.870207 0
-0.4375 0.757772 0
-0.70789 0.514312 0
-0.855879 0.181923 0
-0.855879 -0.181923 0
-0.70789 -0.514312 0
-0.4375 -0.757772 0
-0.0914624 -0.870207 0
0.27039 -0.832174 0
0.585489 -0.650252 0
0.799352 -0.355895 0
1 0 0
0.913545 0.406737 0
0.669131 0.743145 0
0.309017 0.951057 0
-0.104528 0.994522 0
-0.5 0.866025 0
-0.809017 0.587785 0
-0.978148 0.207912 0
-0.978148 -0.207912 0
-0.809017 -0.587785 0
-0.5 -0.866025 0
-0.104528 -0.994522 0
0.309017 -0.951057 0
0.669131 -0.743145 0
0.913545 -0.406737 0
CELLS 225 900
3 0 1 2
3 0 2 3
3 0 3 4
3 0 4 5
3 0 5 6
3 0 6 7
3 0 7 8
3 0 8 9
3 0 9 10
3 0 10 11
3 0 11 12
3 0 12 13
3 0 13 14
3 0 14 15
3 0 15 1
3 1 16 17
3 1 17 2
3 2 17 18
3 2 18 3
3 3 18 19
3 3 19 4
3 4 19 20
3 4 20 5
3 5 20 21
3 5 21 6
3 6 21 22
3 6 22 7
3 7 22 23
3 7 23 8
3 8 23 24
3 8 24 9
3 9 24 25
3 9 25 10
3 10 25 26
3 10 26 11
3 11 26 27
3 11 27 12
3 12 27 28
3 12 28 13
3 13 28 29
3 13 29 14
3 14 29 30
3 14 30 15
3 15 30 16
3 15 16 1
3 16 31 32
3 16 32 17
3 17 32 33
3 17 33 18
3 18 33 34
3 18 34 19
3 19 34 35
3 19 35 20
3 20 35 36
3 20 36 21
3 21 36 37
3 21 37 22
3 22 37 38
3 22 38 23
3 23 38 39
3 23 39 24
3 24 39 40
3 24 40 25
3 25 40 41
3 25 41 26
3 26 41 42
3 26 42 27
3 27 42 43
3 27 43 28
3 28 43 44
3 28 44 29
3 29 44 45
3 29 45 30
3 30 45 31
3 30 31 16
3 31 46 47
3 31 47 32
3 32 47 48
3 32 48 33
3 33 48 49
3 33 49 34
3 34 49 50
3 34 50 35
3 35 50 51
3 35 51 36
3 36 51 52
3 36 52 37
3 37 52 53
3 37 53 38
3 38 53 54
3 38 54 39
3 39 54 55
3 39 55 40
3 40 55 56
3 40 56 41
3 41 56 57
3 41 57 42
3 42 57 58
3 42 58 43
3 43 58 59
3 43 59 44
3 44 59 60
3 44 60 45
3 45 60 46
3 45 46 31
3 46 61 62
3 46 62 47
3 47 62 63
3 47 63 48
3 48 63 64
3 48 64 49
3 49 64 65
3 49 65 50
3 50 65 66
3 50 66 51
3 51 66 67
3 51 67 52
3 52 67 68
3 52 68 53
3 53 68 69
3 53 69 54
3 54 69 70
3 54 70 55
3 55 70 71
3 55 71 56
3 56 71 72
3 56 72 57
3 57 72 73
3 57 73 58
3 58 73 74
3 58 74 59
3 59 74 75
3 59 75 60
3 60 75 61
3 60 61 46
3 61 76 77
3 61 77 62
3 62 77 78
3 62 78 63
3 63 78 79
3 63 79 64
3 64 79 80
3 64 80 65
3 65 80 81
3 65 81 66
3 66 81 82
3 66 82 67
3 67 82 83
3 67 83 68
3 68 83 84
3 68 84 69
3 69 84 85
3 69 85 70
3 70 85 86
3 70 86 71
3 71 86 87
3 71 87 72
3 72 87 88
3 72 88 73
3 73 88 89
3 73 89 74
3 74 89 90
3 74 90 75
3 75 90 76
3 75 76 61
3 76 91 92
3 76 92 77
3 77 92 93
3 77 93 78
3 78 93 94
3 78 94 79
3 79 94 95
3 79 95 80
3 80 95 96
3 80 96 81
3 81 96 97
3 81 97 82
3 82 97 98
3 82 98 83
3 83 98 99
3 83 99 84
3 84 99 100
3 84 100 85
3 85 100 101
3 85 101 86
3 86 101 102
3 86 102 87
3 87 102 103
3 87 103 88
3 88 103 104
3 88 104 89
3 89 104 105
3 89 105 90
3 90 105 91
3 90 91 76
3 91 106 107
3 91 107 92
3 92 107 108
3 92 108 93
3 93 108 109
3 93 109 94
3 94 109 110
3 94 110 95
3 95 110 111
3 95 111 96
3 96 111 112
3 96 112 97
3 97 112 113
3 97 113 98
3 98 113 114
3 98 114 99
3 99 114 115
3 99 115 100
3 100 115 116
3 100 116 101
3 101 116 117
3 101 117 102
3 102 117 118
3 102 118 103
3 103 118 119
3 103 119 104
3 104 119 120
3 104 120 105
3 105 120 106
3 105 106 91
CELL_TYPES 225
5
5
5
5
5
5
5
5
5
5
5
5
5
5
5
5
5
5
5
5
5
5
5
5
5
5
5
5
5
5
5
5
5
5
5
5
5
5
5
5
5
5
5
5
5
5
5
5
5
5
5
5
5
5
5
5
5
5
5
5
5
5
5
5
5
5
5
5
5
5
5
5
5
5
5
5
5
5
5
5
5
5
5
5
5
5
5
5
5
5
5
5
5
5
5
5
5
5
5
5
5
5
5
5
5
5
5
5
5
5
5
5
5
5
5
5
5
5
5
5
5
5
5
5
5
5
5
5
5
5
5
5
5
5
5
5
5
5
5
5
5
5
5
5
5
5
5
5
5
5
5
5
5
5
5
5
5
5
5
5
5
5
5
5
5
5
5
5
5
5
5
5
5
5
5
5
5
5
5
5
5
5
5
5
5
5
5
5
5
5
5
5
5
5
5
5
5
5
5
5
5
5
5
5
5
5
5
5
5
5
5
5
5
5
5
5
5
5
5
5
5
5
5
5
5
POINT_DATA 121
SCALARS psi double 1
LOOKUP_TABLE default
-4.19091e-15
-0.472853
-0.314763
-0.102248
0.127947
0.336019
0.48599
0.551929
0.522434
0.402606
0.213164
-0.0131366
-0.237165
-0.420186
-0.530553
-0.549182
-0.79672
-0.536883
-0.184214
0.200308
0.550194
0.804947
0.920517
0.876921
0.681698
0.368603
-0.00822661
-0.383634
-0.692708
-0.882006
-0.918797
-0.873234
-0.595478
-0.214759
0.203095
0.585831
0.867272
0.998754
0.957542
0.750762
0.414169
0.0059623
-0.403275
-0.742783
-0.953857
-1
-0.687829
-0.474495
-0.179116
0.147234
0.448125
0.671532
0.778824
0.751451
0.594145
0.334106
0.0162974
-0.30433
-0.572335
-0.741379
-0.782231
-0.316118
-0.220536
-0.0868207
0.0619063
0.199929
0.303382
0.354378
0.344099
0.274321
0.157111
0.0127355
-0.133842
-0.257278
-0.336228
-0.35704
0.10482
0.0739305
0.0302577
-0.018647
-0.0643274
-0.0988851
-0.116345
-0.113687
-0.091372
-0.0532579
-0.00593504
0.0424141
0.0834294
0.110019
0.117585
0.427618
0.304834
0.129341
-0.0685163
-0.254526
-0.396526
-0.469963
-0.462139
-0.374407
-0.221937
-0.0310917
0.16513
0.332799
0.442924
0.476463
0.548532
0.395113
0.173376
-0.0783398
-0.31651
-0.499953
-0.596949
-0.590727
-0.482364
-0.290595
-0.0485797
0.201835
0.417351
0.560703
0.607105
VECTORS Et double
-0.520404 -0.85392 0
-0.49417 -0.69151 0
-0.514594 -0.753082 0
-0.482503 -0.809461 0
-0.419133 -0.823337 0
-0.366418 -0.785529 0
-0.359242 -0.721055 0
-0.402353 -0.672581 0
-0.467223 -0.672183 0
-0.510926 -0.720125 0
-0.50454 -0.784682 0
-0.452293 -0.823134 0
-0.388757 -0.810035 0
-0.355978 -0.754055 0
-0.375645 -0.692236 0
-0.434746 -0.665488 0
-0.408497 -0.353405 0
-0.479436 -0.503551 0
-0.415323 -0.656737 0
-0.258585 -0.711593 0
-0.11294 -0.631819 0
-0.0747676 -0.470205 0
-0.169328 -0.333697 0
-0.334047 -0.312627 0
-0.459924 -0.420939 0
-0.46366 -0.586958 0
-0.342784 -0.700823 0
-0.177284 -0.687185 0
-0.0766775 -0.555069 0
-0.10754 -0.391901 0
-0.249449 -0.305656 0
-0.288926 0.0886508 0
-0.430212 -0.155485 0
-0.343322 -0.423839 0
-0.0857554 -0.538831 0
0.172046 -0.424367 0
0.259486 -0.156192 0
0.118701 0.088233 0
-0.157145 0.147162 0
-0.385515 -0.0184014 0
-0.415287 -0.298896 0
-0.22676 -0.508709 0
0.0553105 -0.508998 0
0.244267 -0.299572 0
0.21507 -0.0190169 0
-0.0129595 0.147014 0
-0.161299 0.482414 0
-0.361449 0.181821 0
-0.271991 -0.168055 0
0.0478764 -0.335688 0
0.386485 -0.210148 0
0.519764 0.12549 0
0.359518 0.449121 0
0.0117877 0.546586 0
-0.29332 0.353389 0
-0.353904 -0.00262405 0
-0.129873 -0.285866 0
0.230523 -0.308905 0
0.488796 -0.0564939 0
0.474036 0.304336 0
0.196011 0.53481 0
-0.049837 0.693422 0
-0.267963 0.403265 0
-0.198289 0.0470129 0
0.113079 -0.139588 0
0.460096 -0.0330579 0
0.613128 0.296109 0
0.470908 0.63009 0
0.127548 0.747877 0
-0.189737 0.571525 0
-0.270988 0.217734 0
-0.062437 -0.0793794 0
0.297909 -0.123204 0
0.571596 0.115262 0
0.577513 0.478215 0
0.311746 0.725475 0
0.0280609 0.656038 0
-0.152484 0.446832 0
-0.117822 0.172674 0
0.109111 0.0149855 0
0.378144 0.0781155 0
0.511247 0.320288 0
0.420342 0.581248 0
0.165583 0.688309 0
-0.0844459 0.570623 0
-0.16429 0.306069 0
-0.0211143 0.0697116 0
0.250337 0.0179582 0
0.470433 0.185056 0
0.493529 0.46043 0
0.30434 0.661854 0
0.0654146 0.396785 0
-0.0288801 0.3155 0
-0.0315689 0.191035 0
0.0591275 0.105753 0
0.183192 0.116089 0
0.258526 0.215203 0
0.235278 0.337507 0
0.128833 0.402069 0
0.0096284 0.366164 0
-0.0434525 0.253553 0
0.00471572 0.138755 0
0.122258 0.0977358 0
0.231393 0.15764 0
0.2599 0.278826 0
0.188917 0.381101 0
0.0647992 0.219869 0
0.0296057 0.199523 0
0.0211762 0.159756 0
0.0450889 0.126882 0
0.0855198 0.122655 0
0.115714 0.149873 0
0.115691 0.190525 0
0.0854663 0.217708 0
0.0450402 0.213436 0
0.0211645 0.180536 0
0.0296388 0.140777 0
0.0648552 0.120472 0
0.10351 0.133055 0
0.120023 0.170201 0
0.103468 0.207329 0
