# vtk DataFile Version 3.0
tp3485 scalar+vector
ASCII
DATASET UNSTRUCTURED_GRID
POINTS 121 double
0 0 0
0.125 0 0
0.114193 0.0508421 0
0.0836413 0.0928931 0
0.0386271 0.118882 0
-0.0130661 0.124315 0
-0.0625 0.108253 0
-0.101127 0.0734732 0
-0.122268 0.025989 0
-0.122268 -0.025989 0
-0.101127 -0.0734732 0
-0.0625 -0.108253 0
-0.0130661 -0.124315 0
0.0386271 -0.118882 0
0.0836413 -0.0928931 0
0.114193 -0.0508421 0
0.25 0 0
0.228386 0.101684 0
0.167283 0.185786 0
0.0772542 0.237764 0
-0.0261321 0.24863 0
-0.125 0.216506 0
-0.202254 0.146946 0
-0.244537 0.0519779 0
-0.244537 -0.0519779 0
-0.202254 -0.146946 0
-0.125 -0.216506 0
-0.0261321 -0.24863 0
0.0772542 -0.237764 0
0.167283 -0.185786 0
0.228386 -0.101684 0
0.375 0 0
0.34258 0.152526 0
0.250924 0.278679 0
0.115881 0.356646 0
-0.0391982 0.372946 0
-0.1875 0.32476 0
-0.303381 0.220419 0
-0.366805 0.0779669 0
-0.366805 -0.0779669 0
-0.303381 -0.220419 0
-0.1875 -0.32476 0
-0.0391982 -0.372946 0
0.115881 -0.356646 0
0.250924 -0.278679 0
0.34258 -0.152526 0
0.5 0 0
0.456773 0.203368 0
0.334565 0.371572 0
0.154508 0.475528 0
-0.0522642 0.497261 0
-0.25 0.433013 0
-0.404508 0.293893 0
-0.489074 0.103956 0
-0.489074 -0.103956 0
-0.404508 -0.293893 0
-0.25 -0.433013 0
-0.0522642 -0.497261 0
0.154508 -0.475528 0
0.334565 -0.371572 0
0.456773 -0.203368 0
0.625 0 0
0.570966 0.25421 0
0.418207 0.464466 0
0.193136 0.59441 0
-0.0653303 0.621576 0
-0.3125 0.541266 0
-0.505636 0.367366 0
-0.611342 0.129945 0
-0.611342 -0.129945 0
-0.505636 -0.367366 0
-0.3125 -0.541266 0
-0.0653303 -0.621576 0
0.193136 -0.59441 0
0.418207 -0.464466 0
0.570966 -0.25421 0
0.75 0 0
0.685159 0.305052 0
0.501848 0.557359 0
0.231763 0.713292 0
-0.0783963 0.745891 0
-0.375 0.649519 0
-0.606763 0.440839 0
-0.733611 0.155934 0
-0.733611 -0.155934 0
-0.606763 -0.440839 0
-0.375 -0.649519 0
-0.0783963 -0.745891 0
0.231763 -0.713292 0
0.501848 -0.557359 0
0.685159 -0.305052 0
0.875 0 0
0.799352 0.355895 0
0.585489 0.650252 0
0.27039 0.832174 0
-0.0914624 0.870207 0
-0.4375 0.757772 0
-0.70789 0.514312 0
-0.855879 0.181923 0
-0.855879 -0.181923 0
-0.70789 -0.514312 0
-0.4375 -0.757772 0
-0.0914624 -0.870207 0
0.27039 -0.832174 0
0.585489 -0.650252 0
0.799352 -0.355895 0
1 0 0
0.913545 0.406737 0
0.669131 0.743145 0
0.309017 0.951057 0
-0.104528 0.994522 0
-0.5 0.866025 0
-0.809017 0.587785 0
-0.978148 0.207912 0
-0.978148 -0.207912 0
-0.809017 -0.587785 0
-0.5 -0.866025 0
-0.104528 -0.994522 0
0.309017 -0.951057 0
0.669131 -0.743145 0
0.913545 -0.406737 0
CELLS 225 900
3 0 1 2
3 0 2 3
3 0 3 4
3 0 4 5
3 0 5 6
3 0 6 7
3 0 7 8
3 0 8 9
3 0 9 10
3 0 10 11
3 0 11 12
3 0 12 13
3 0 13 14
3 0 14 15
3 0 15 1
3 1 16 17
3 1 17 2
3 2 17 18
3 2 18 3
3 3 18 19
3 3 19 4
3 4 19 20
3 4 20 5
3 5 20 21
3 5 21 6
3 6 21 22
3 6 22 7
3 7 22 23
3 7 23 8
3 8 23 24
3 8 24 9
3 9 24 25
3 9 25 10
3 10 25 26
3 10 26 11
3 11 26 27
3 11 27 12
3 12 27 28
3 12 28 13
3 13 28 29
3 13 29 14
3 14 29 30
3 14 30 15
3 15 30 16
3 15 16 1
3 16 31 32
3 16 32 17
3 17 32 33
3 17 33 18
3 18 33 34
3 18 34 19
3 19 34 35
3 19 35 20
3 20 35 36
3 20 36 21
3 21 36 37
3 21 37 22
3 22 37 38
3 22 38 23
3 23 38 39
3 23 39 24
3 24 39 40
3 24 40 25
3 25 40 41
3 25 41 26
3 26 41 42
3 26 42 27
3 27 42 43
3 27 43 28
3 28 43 44
3 28 44 29
3 29 44 45
3 29 45 30
3 30 45 31
3 30 31 16
3 31 46 47
3 31 47 32
3 32 47 48
3 32 48 33
3 33 48 49
3 33 49 34
3 34 49 50
3 34 50 35
3 35 50 51
3 35 51 36
3 36 51 52
3 36 52 37
3 37 52 53
3 37 53 38
3 38 53 54
3 38 54 39
3 39 54 55
3 39 55 40
3 40 55 56
3 40 56 41
3 41 56 57
3 41 57 42
3 42 57 58
3 42 58 43
3 43 58 59
3 43 59 44
3 44 59 60
3 44 60 45
3 45 60 46
3 45 46 31
3 46 61 62
3 46 62 47
3 47 62 63
3 47 63 48
3 48 63 64
3 48 64 49
3 49 64 65
3 49 65 50
3 50 65 66
3 50 66 51
3 51 66 67
3 51 67 52
3 52 67 68
3 52 68 53
3 53 68 69
3 53 69 54
3 54 69 70
3 54 70 55
3 55 70 71
3 55 71 56
3 56 71 72
3 56 72 57
3 57 72 73
3 57 73 58
3 58 73 74
3 58 74 59
3 59 74 75
3 59 75 60
3 60 75 61
3 60 61 46
3 61 76 77
3 61 77 62
3 62 77 78
3 62 78 63
3 63 78 79
3 63 79 64
3 64 79 80
3 64 80 65
3 65 80 81
3 65 81 66
3 66 81 82
3 66 82 67
3 67 82 83
3 67 83 68
3 68 83 84
3 68 84 69
3 69 84 85
3 69 85 70
3 70 85 86
3 70 86 71
3 71 86 87
3 71 87 72
3 72 87 88
3 72 88 73
3 73 88 89
3 73 89 74
3 74 89 90
3 74 90 75
3 75 90 76
3 75 76 61
3 76 91 92
3 76 92 77
3 77 92 93
3 77 93 78
3 78 93 94
3 78 94 79
3 79 94 95
3 79 95 80
3 80 95 96
3 80 96 81
3 81 96 97
3 81 97 82
3 82 97 98
3 82 98 83
3 83 98 99
3 83 99 84
3 84 99 100
3 84 100 85
3 85 100 101
3 85 101 86
3 86 101 102
3 86 102 87
3 87 102 103
3 87 103 88
3 88 103 104
3 88 104 89
3 89 104 105
3 89 105 90
3 90 105 91
3 90 91 76
3 91 106 107
3 91 107 92
3 92 107 108
3 92 108 93
3 93 108 109
3 93 109 94
3 94 109 110
3 94 110 95
3 95 110 111
3 95 111 96
3 96 111 112
3 96 112 97
3 97 112 113
3 97 113 98
3 98 113 114
3 98 114 99
3 99 114 115
3 99 115 100
3 100 115 116
3 100 116 101
3 101 116 117
3 101 117 102
3 102 117 118
3 102 118 103
3 103 118 119
3 103 119 104
3 104 119 120
3 104 120 105
3 105 120 106
3 105 106 91
CELL_TYPES 225
5
5
5
5
5
5
5
5
5
5
5
5
5
5
5
5
5
5
5
5
5
5
5
5
5
5
5
5
5
5
5
5
5
5
5
5
5
5
5
5
5
5
5
5
5
5
5
5
5
5
5
5
5
5
5
5
5
5
5
5
5
5
5
5
5
5
5
5
5
5
5
5
5
5
5
5
5
5
5
5
5
5
5
5
5
5
5
5
5
5
5
5
5
5
5
5
5
5
5
5
5
5
5
5
5
5
5
5
5
5
5
5
5
5
5
5
5
5
5
5
5
5
5
5
5
5
5
5
5
5
5
5
5
5
5
5
5
5
5
5
5
5
5
5
5
5
5
5
5
5
5
5
5
5
5
5
5
5
5
5
5
5
5
5
5
5
5
5
5
5
5
5
5
5
5
5
5
5
5
5
5
5
5
5
5
5
5
5
5
5
5
5
5
5
5
5
5
5
5
5
5
5
5
5
5
5
5
5
5
5
5
5
5
5
5
5
5
5
5
5
5
5
5
5
5
POINT_DATA 121
SCALARS psi double 1
LOOKUP_TABLE default
-1.45738e-14
0.00171538
0.00195306
-0.00212368
-0.00150909
0.00243917
0.000999162
-0.00264805
-0.000445569
0.0027412
-0.000127498
-0.00271455
0.000694992
0.00256925
-0.00123211
-0.00231167
0.0151419
0.018921
-0.0190975
-0.0149285
0.0222184
0.0102836
-0.0243683
-0.00518925
0.0254531
-0.000131903
-0.0254255
0.00544729
0.0242867
-0.0105246
-0.0220865
0.0534063
0.0733711
-0.068745
-0.0589995
0.0810792
0.0420493
-0.0898699
-0.0232614
0.0947329
0.00345679
-0.0954556
0.0164989
0.0920064
-0.0357334
-0.084536
0.121332
0.183738
-0.159744
-0.150343
0.191174
0.110377
-0.214249
-0.0655864
0.22796
0.0179297
-0.231708
0.0305105
0.22533
-0.0776173
-0.209104
0.210122
0.35198
-0.283706
-0.29267
0.34489
0.220568
-0.391002
-0.138826
0.420024
0.0510173
-0.43069
0.0390214
0.422532
-0.127355
-0.395908
0.298853
0.556337
-0.415159
-0.469545
0.51332
0.362232
-0.589048
-0.239088
0.639031
0.105494
-0.661085
0.0327106
0.654246
-0.169485
-0.618814
0.361608
0.752577
-0.51894
-0.644089
0.653591
0.507452
-0.759677
-0.348636
0.832562
0.174583
-0.86906
0.00710003
0.867576
-0.188473
-0.828174
0.37719
0.88439
-0.562078
-0.766884
0.7224
0.615861
-0.85115
-0.437922
0.942701
0.240844
-0.993051
-0.0332401
1
-0.175817
-0.963244
VECTORS Et double
1.10007e-14 -3.09867e-14 0
-0.0189141 0.0311735 0
0.0437364 0.0431359 0
0.0311374 -0.0187604 0
-0.00475112 -0.0604307 0
-0.0390078 0.00135878 0
-0.0341643 0.0470242 0
0.0376344 0.0220034 0
0.0524896 -0.0134787 0
-0.0200013 -0.04458 0
-0.0451098 -0.0197736 0
-0.0128121 0.0523059 0
0.0223842 0.0378542 0
0.0463876 -0.0346111 0
0.00135091 -0.0392983 0
-0.06036 -0.00392292 0
-0.0759349 0.086237 0
0.0921873 0.123617 0
0.107802 -0.0327208 0
0.00680942 -0.154142 0
-0.110857 -0.0293586 0
-0.100431 0.113114 0
0.0811591 0.0889646 0
0.143326 -0.0249453 0
-0.0176864 -0.127265 0
-0.121885 -0.0640111 0
-0.0649067 0.12089 0
0.0566633 0.115842 0
0.132298 -0.0595977 0
0.0178376 -0.119489 0
-0.146381 -0.0371341 0
-0.192662 0.159636 0
0.155544 0.266611 0
0.240513 -0.027786 0
0.0457547 -0.309134 0
-0.216608 -0.104995 0
-0.227907 0.211319 0
0.128408 0.210247 0
0.302894 -0.0231048 0
0.0105101 -0.257451 0
-0.243744 -0.161359 0
-0.165525 0.216 0
0.0931631 0.26193 0
0.275757 -0.079469 0
0.0728912 -0.25277 0
-0.278989 -0.109676 0
-0.363406 0.221435 0
0.216866 0.44497 0
0.404143 0.0184722 0
0.109952 -0.496799 0
-0.319939 -0.227166 0
-0.400979 0.321303 0
0.149165 0.362497 0
0.509417 0.00107751 0
0.072379 -0.396931 0
-0.387641 -0.309639 0
-0.295704 0.303908 0
0.111592 0.462365 0
0.441716 -0.0813955 0
0.177653 -0.414326 0
-0.425214 -0.209771 0
-0.558831 0.240048 0
0.262637 0.605446 0
0.553644 0.116707 0
0.178383 -0.669666 0
-0.374741 -0.376803 0
-0.577491 0.419358 0
0.116681 0.499631 0
0.71826 0.0432119 0
0.159722 -0.490357 0
-0.520697 -0.482617 0
-0.412874 0.345863 0
0.0980208 0.678941 0
0.572304 -0.062603 0
0.324339 -0.563851 0
-0.539357 -0.303308 0
-0.734682 0.197028 0
0.286889 0.686452 0
0.641597 0.258642 0
0.217625 -0.776479 0
-0.344691 -0.520076 0
-0.701048 0.486473 0
0.0194057 0.570857 0
0.875448 0.0847921 0
0.251259 -0.487033 0
-0.612175 -0.635671 0
-0.467198 0.312624 0
0.053039 0.860302 0
0.607964 -0.0308034 0
0.485109 -0.660883 0
-0.578542 -0.346226 0
-0.844706 0.0961933 0
0.291878 0.640343 0
0.635409 0.416259 0
0.194606 -0.778909 0
-0.219229 -0.618522 0
-0.719784 0.51334 0
-0.131843 0.539956 0
0.934208 0.0995003 0
0.319528 -0.361762 0
-0.64295 -0.71891 0
-0.420985 0.196581 0
-0.00692054 0.957103 0
0.510487 -0.000887579 0
0.618327 -0.678521 0
-0.518028 -0.301763 0
-0.997792 0.0664126 0
0.0359785 0.400284 0
0.744173 0.617559 0
0.183782 -0.4758 0
-0.11457 -0.891013 0
-0.530445 0.361707 0
-0.453427 0.657371 0
0.766231 0.0651777 0
0.651129 -0.180506 0
-0.603976 -0.633926 0
-0.508387 -0.190675 0
0.0139199 0.952665 0
0.276826 0.322265 0
0.673187 -0.732888 0
-0.136629 -0.338632 0
