# vtk DataFile Version 3.0
tp3485 scalar+vector
ASCII
DATASET UNSTRUCTURED_GRID
POINTS 121 double
0 0 0
0.125 0 0
0.114193 0.0508421 0
0.0836413 0.0928931 0
0.0386271 0.118882 0
-0.0130661 0.124315 0
-0.0625 0.108253 0
-0.101127 0.0734732 0
-0.122268 0.025989 0
-0.122268 -0.025989 0
-0.101127 -0.0734732 0
-0.0625 -0.108253 0
-0.0130661 -0.124315 0
0.0386271 -0.118882 0
0.0836413 -0.0928931 0
0.114193 -0.0508421 0
0.25 0 0
0.228386 0.101684 0
0.167283 0.185786 0
0.0772542 0.237764 0
-0.0261321 0.24863 0
-0.125 0.216506 0
-0.202254 0.146946 0
-0.244537 0.0519779 0
-0.244537 -0.0519779 0
-0.202254 -0.146946 0
-0.125 -0.216506 0
-0.0261321 -0.24863 0
0.0772542 -0.237764 0
0.167283 -0.185786 0
0.228386 -0.101684 0
0.375 0 0
0.34258 0.152526 0
0.250924 0.278679 0
0.115881 0.356646 0
-0.0391982 0.372946 0
-0.1875 0.32476 0
-0.303381 0.220419 0
-0.366805 0.0779669 0
-0.366805 -0.0779669 0
-0.303381 -0.220419 0
-0.1875 -0.32476 0
-0.0391982 -0.372946 0
0.115881 -0.356646 0
0.250924 -0.278679 0
0.34258 -0.152526 0
0.5 0 0
0.456773 0.203368 0
0.334565 0.371572 0
0.154508 0.475528 0
-0.0522642 0.497261 0
-0.25 0.433013 0
-0.404508 0.293893 0
-0.489074 0.103956 0
-0.489074 -0.103956 0
-0.404508 -0.293893 0
-0.25 -0.433013 0
-0.0522642 -0.497261 0
0.154508 -0.475528 0
0.334565 -0.371572 0
0.456773 -0.203368 0
0.625 0 0
0.570966 0.25421 0
0.418207 0.464466 0
0.193136 0.59441 0
-0.0653303 0.621576 0
-0.3125 0.541266 0
-0.505636 0.367366 0
-0.611342 0.129945 0
-0.611342 -0.129945 0
-0.505636 -0.367366 0
-0.3125 -0.541266 0
-0.0653303 -0.621576 0
0.193136 -0.59441 0
0.418207 -0.464466 0
0.570966 -0.25421 0
0.75 0 0
0.685159 0.305052 0
0.501848 0.557359 0
0.231763 0.713292 0
-0.0783963 0.745891 0
-0.375 0.649519 0
-0.606763 0.440839 0
-0.733611 0.155934 0
-0.733611 -0.155934 0
-0.606763 -0.440839 0
-0.375 -0.649519 0
-0.0783963 -0.745891 0
0.231763 -0.713292 0
0.501848 -0.557359 0
0.685159 -0.305052 0
0.875 0 0
0.799352 0.355895 0
0.585489 0.650252 0
0.27039 0.832174 0
-0.0914624 0.870207 0
-0.4375 0.757772 0
-0.70789 0.514312 0
-0.855879 0.181923 0
-0.855879 -0.181923 0
-0.70789 -0.514312 0
-0.4375 -0.757772 0
-0.0914624 -0.870207 0
0.27039 -0.832174 0
0.585489 -0.650252 0
0.799352 -0.355895 0
1 0 0
0.913545 0.406737 0
0.669131 0.743145 0
0.309017 0.951057 0
-0.104528 0.994522 0
-0.5 0.866025 0
-0.809017 0.587785 0
-0.978148 0.207912 0
-0.978148 -0.207912 0
-0.809017 -0.587785 0
-0.5 -0.866025 0
-0.104528 -0.994522 0
0.309017 -0.951057 0
0.669131 -0.743145 0
0.913545 -0.406737 0
CELLS 225 900
3 0 1 2
3 0 2 3
3 0 3 4
3 0 4 5
3 0 5 6
3 0 6 7
3 0 7 8
3 0 8 9
3 0 9 10
3 0 10 11
3 0 11 12
3 0 12 13
3 0 13 14
3 0 14 15
3 0 15 1
3 1 16 17
3 1 17 2
3 2 17 18
3 2 18 3
3 3 18 19
3 3 19 4
3 4 19 20
3 4 20 5
3 5 20 21
3 5 21 6
3 6 21 22
3 6 22 7
3 7 22 23
3 7 23 8
3 8 23 24
3 8 24 9
3 9 24 25
3 9 25 10
3 10 25 26
3 10 26 11
3 11 26 27
3 11 27 12
3 12 27 28
3 12 28 13
3 13 28 29
3 13 29 14
3 14 29 30
3 14 30 15
3 15 30 16
3 15 16 1
3 16 31 32
3 16 32 17
3 17 32 33
3 17 33 18
3 18 33 34
3 18 34 19
3 19 34 35
3 19 35 20
3 20 35 36
3 20 36 21
3 21 36 37
3 21 37 22
3 22 37 38
3 22 38 23
3 23 38 39
3 23 39 24
3 24 39 40
3 24 40 25
3 25 40 41
3 25 41 26
3 26 41 42
3 26 42 27
3 27 42 43
3 27 43 28
3 28 43 44
3 28 44 29
3 29 44 45
3 29 45 30
3 30 45 31
3 30 31 16
3 31 46 47
3 31 47 32
3 32 47 48
3 32 48 33
3 33 48 49
3 33 49 34
3 34 49 50
3 34 50 35
3 35 50 51
3 35 51 36
3 36 51 52
3 36 52 37
3 37 52 53
3 37 53 38
3 38 53 54
3 38 54 39
3 39 54 55
3 39 55 40
3 40 55 56
3 40 56 41
3 41 56 57
3 41 57 42
3 42 57 58
3 42 58 43
3 43 58 59
3 43 59 44
3 44 59 60
3 44 60 45
3 45 60 46
3 45 46 31
3 46 61 62
3 46 62 47
3 47 62 63
3 47 63 48
3 48 63 64
3 48 64 49
3 49 64 65
3 49 65 50
3 50 65 66
3 50 66 51
3 51 66 67
3 51 67 52
3 52 67 68
3 52 68 53
3 53 68 69
3 53 69 54
3 54 69 70
3 54 70 55
3 55 70 71
3 55 71 56
3 56 71 72
3 56 72 57
3 57 72 73
3 57 73 58
3 58 73 74
3 58 74 59
3 59 74 75
3 59 75 60
3 60 75 61
3 60 61 46
3 61 76 77
3 61 77 62
3 62 77 78
3 62 78 63
3 63 78 79
3 63 79 64
3 64 79 80
3 64 80 65
3 65 80 81
3 65 81 66
3 66 81 82
3 66 82 67
3 67 82 83
3 67 83 68
3 68 83 84
3 68 84 69
3 69 84 85
3 69 85 70
3 70 85 86
3 70 86 71
3 71 86 87
3 71 87 72
3 72 87 88
3 72 88 73
3 73 88 89
3 73 89 74
3 74 89 90
3 74 90 75
3 75 90 76
3 75 76 61
3 76 91 92
3 76 92 77
3 77 92 93
3 77 93 78
3 78 93 94
3 78 94 79
3 79 94 95
3 79 95 80
3 80 95 96
3 80 96 81
3 81 96 97
3 81 97 82
3 82 97 98
3 82 98 83
3 83 98 99
3 83 99 84
3 84 99 100
3 84 100 85
3 85 100 101
3 85 101 86
3 86 101 102
3 86 102 87
3 87 102 103
3 87 103 88
3 88 103 104
3 88 104 89
3 89 104 105
3 89 105 90
3 90 105 91
3 90 91 76
3 91 106 107
3 91 107 92
3 92 107 108
3 92 108 93
3 93 108 109
3 93 109 94
3 94 109 110
3 94 110 95
3 95 110 111
3 95 111 96
3 96 111 112
3 96 112 97
3 97 112 113
3 97 113 98
3 98 113 114
3 98 114 99
3 99 114 115
3 99 115 100
3 100 115 116
3 100 116 101
3 101 116 117
3 101 117 102
3 102 117 118
3 102 118 103
3 103 118 119
3 103 119 104
3 104 119 120
3 104 120 105
3 105 120 106
3 105 106 91
CELL_TYPES 225
5
5
5
5
5
5
5
5
5
5
5
5
5
5
5
5
5
5
5
5
5
5
5
5
5
5
5
5
5
5
5
5
5
5
5
5
5
5
5
5
5
5
5
5
5
5
5
5
5
5
5
5
5
5
5
5
5
5
5
5
5
5
5
5
5
5
5
5
5
5
5
5
5
5
5
5
5
5
5
5
5
5
5
5
5
5
5
5
5
5
5
5
5
5
5
5
5
5
5
5
5
5
5
5
5
5
5
5
5
5
5
5
5
5
5
5
5
5
5
5
5
5
5
5
5
5
5
5
5
5
5
5
5
5
5
5
5
5
5
5
5
5
5
5
5
5
5
5
5
5
5
5
5
5
5
5
5
5
5
5
5
5
5
5
5
5
5
5
5
5
5
5
5
5
5
5
5
5
5
5
5
5
5
5
5
5
5
5
5
5
5
5
5
5
5
5
5
5
5
5
5
5
5
5
5
5
5
5
5
5
5
5
5
5
5
5
5
5
5
5
5
5
5
5
5
POINT_DATA 121
SCALARS psi double 1
LOOKUP_TABLE default
-6.11104e-14
-0.0284761
-0.0373536
-0.0215127
0.00856395
0.0329735
0.0355633
0.0146194
-0.0159987
-0.0360298
-0.0322186
-0.0070871
0.0227342
0.0375114
0.0274659
-0.000754923
-0.10585
-0.140098
-0.0816382
0.0308449
0.122917
0.13365
0.0559416
-0.0587854
-0.134612
-0.12136
-0.0278001
0.0841566
0.140424
0.103767
-0.00155644
-0.219041
-0.292541
-0.172455
0.0617511
0.255094
0.279632
0.119126
-0.12021
-0.279998
-0.254501
-0.0605904
0.173415
0.292665
0.218247
-0.000593339
-0.35149
-0.473719
-0.282469
0.0957013
0.410543
0.453712
0.196643
-0.190553
-0.451652
-0.413876
-0.102222
0.277077
0.473022
0.355951
0.00333294
-0.484556
-0.659062
-0.397442
0.127181
0.567644
0.632474
0.278772
-0.259405
-0.625923
-0.578244
-0.147918
0.38029
0.656846
0.498741
0.0106001
-0.599665
-0.823184
-0.501971
0.151416
0.704605
0.79153
0.354668
-0.316891
-0.778751
-0.725281
-0.191865
0.468516
0.818862
0.627335
0.0206759
-0.680516
-0.942896
-0.581325
0.164931
0.802046
0.908416
0.413652
-0.354841
-0.888522
-0.834234
-0.2279
0.529244
0.936166
0.723591
0.032188
-0.714998
-1
-0.623263
0.165911
0.845295
0.965315
0.446549
-0.367717
-0.938649
-0.888442
-0.250317
0.553451
0.99098
0.772739
0.0431462
VECTORS Et double
1.99241e-14 3.2271e-15 0
0.200266 -0.255153 0
0.0391605 -0.317271 0
-0.103046 -0.344664 0
-0.200355 -0.294269 0
-0.271954 -0.161616 0
-0.32913 0.0001815 0
-0.340613 0.131313 0
-0.267531 0.219606 0
-0.12111 0.288119 0
0.0373188 0.33819 0
0.156694 0.330985 0
0.237759 0.235914 0
0.303384 0.079919 0
0.34363 -0.0717033 0
0.315527 -0.179551 0
0.335022 -0.391322 0
0.103561 -0.50074 0
-0.11581 -0.54294 0
-0.28747 -0.468716 0
-0.42231 -0.280149 0
-0.519778 -0.0451067 0
-0.53652 0.163222 0
-0.430495 0.323963 0
-0.222348 0.451234 0
0.0113599 0.53378 0
0.207453 0.522064 0
0.358528 0.385567 0
0.477608 0.163037 0
0.541791 -0.0651389 0
0.499408 -0.248753 0
0.466141 -0.483888 0
0.152591 -0.635565 0
-0.139005 -0.716586 0
-0.354311 -0.639855 0
-0.524395 -0.392331 0
-0.665978 -0.073637 0
-0.714787 0.199692 0
-0.591665 0.399253 0
-0.313983 0.563628 0
0.00194643 0.690703 0
0.255369 0.701681 0
0.442255 0.533235 0
0.60101 0.233348 0
0.7081 -0.0730385 0
0.67671 -0.306639 0
0.57099 -0.513549 0
0.177033 -0.694205 0
-0.169405 -0.833043 0
-0.388019 -0.777705 0
-0.556775 -0.478692 0
-0.738442 -0.0795547 0
-0.842671 0.234863 0
-0.723065 0.430454 0
-0.379902 0.601751 0
0.0117149 0.778202 0
0.292124 0.83745 0
0.471777 0.653419 0
0.647986 0.278189 0
0.810683 -0.095006 0
0.815972 -0.342572 0
0.640623 -0.475566 0
0.172194 -0.666916 0
-0.208541 -0.879478 0
-0.387073 -0.870441 0
-0.513461 -0.531398 0
-0.726349 -0.0590645 0
-0.90719 0.269575 0
-0.813703 0.415074 0
-0.413374 0.558333 0
0.0436467 0.784549 0
0.317838 0.916517 0
0.443527 0.736104 0
0.609993 0.291884 0
0.837131 -0.133277 0
0.904737 -0.355894 0
0.670708 -0.374449 0
0.137351 -0.55553 0
-0.256754 -0.852285 0
-0.354727 -0.912078 0
-0.398784 -0.547062 0
-0.630208 -0.0119699 0
-0.903661 0.304741 0
-0.857863 0.357029 0
-0.411995 0.437179 0
0.0976922 0.708838 0
0.334166 0.933417 0
0.361862 0.776149 0
0.489989 0.272947 0
0.78513 -0.187855 0
0.937096 -0.349072 0
0.660578 -0.222521 0
0.0757452 -0.372245 0
-0.312155 -0.755872 0
-0.297508 -0.901222 0
-0.226019 -0.525986 0
-0.460684 0.0580489 0
-0.83446 0.340127 0
-0.853921 0.265126 0
-0.377159 0.251862 0
0.170218 0.559805 0
0.342928 0.888805 0
0.237575 0.772202 0
0.301172 0.223811 0
0.661267 -0.2557 0
0.912423 -0.326242 0
0.726858 -0.206445 0
0.149826 -0.202982 0
-0.346122 -0.568627 0
-0.364739 -0.859104 0
-0.16926 -0.611139 0
-0.268657 0.00661972 0
-0.67296 0.396574 0
-0.853913 0.313752 0
-0.469734 0.153527 0
0.146697 0.356651 0
0.41362 0.762228 0
0.257664 0.80935 0
0.164145 0.312323 0
0.459728 -0.26186 0
0.826849 -0.40087 0
