# vtk DataFile Version 3.0
tp3485 scalar+vector
ASCII
DATASET UNSTRUCTURED_GRID
POINTS 121 double
0 0 0
0.125 0 0
0.114193 0.0508421 0
0.0836413 0.0928931 0
0.0386271 0.118882 0
-0.0130661 0.124315 0
-0.0625 0.108253 0
-0.101127 0.0734732 0
-0.122268 0.025989 0
-0.122268 -0.025989 0
-0.101127 -0.0734732 0
-0.0625 -0.108253 0
-0.0130661 -0.124315 0
0.0386271 -0.118882 0
0.0836413 -0.0928931 0
0.114193 -0.0508421 0
0.25 0 0
0.228386 0.101684 0
0.167283 0.185786 0
0.0772542 0.237764 0
-0.0261321 0.24863 0
-0.125 0.216506 0
-0.202254 0.146946 0
-0.244537 0.0519779 0
-0.244537 -0.0519779 0
-0.202254 -0.146946 0
-0.125 -0.216506 0
-0.0261321 -0.24863 0
0.0772542 -0.237764 0
0.167283 -0.185786 0
0.228386 -0.101684 0
0.375 0 0
0.34258 0.152526 0
0.250924 0.278679 0
0.115881 0.356646 0
-0.0391982 0.372946 0
-0.1875 0.32476 0
-0.303381 0.220419 0
-0.366805 0.0779669 0
-0.366805 -0.0779669 0
-0.303381 -0.220419 0
-0.1875 -0.32476 0
-0.0391982 -0.372946 0
0.115881 -0.356646 0
0.250924 -0.278679 0
0.34258 -0.152526 0
0.5 0 0
0.456773 0.203368 0
0.334565 0.371572 0
0.154508 0.475528 0
-0.0522642 0.497261 0
-0.25 0.433013 0
-0.404508 0.293893 0
-0.489074 0.103956 0
-0.489074 -0.103956 0
-0.404508 -0.293893 0
-0.25 -0.433013 0
-0.0522642 -0.497261 0
0.154508 -0.475528 0
0.334565 -0.371572 0
0.456773 -0.203368 0
0.625 0 0
0.570966 0.25421 0
0.418207 0.464466 0
0.193136 0.59441 0
-0.0653303 0.621576 0
-0.3125 0.541266 0
-0.505636 0.367366 0
-0.611342 0.129945 0
-0.611342 -0.129945 0
-0.505636 -0.367366 0
-0.3125 -0.541266 0
-0.0653303 -0.621576 0
0.193136 -0.59441 0
0.418207 -0.464466 0
0.570966 -0.25421 0
0.75 0 0
0.685159 0.305052 0
0.501848 0.557359 0
0.231763 0.713292 0
-0.0783963 0.745891 0
-0.375 0.649519 0
-0.606763 0.440839 0
-0.733611 0.155934 0
-0.733611 -0.155934 0
-0.606763 -0.440839 0
-0.375 -0.649519 0
-0.0783963 -0.745891 0
0.231763 -0.713292 0
0.501848 -0.557359 0
0.685159 -0.305052 0
0.875 0 0
0.799352 0.355895 0
0.585489 0.650252 0
0.27039 0.832174 0
-0.0914624 0.870207 0
-0.4375 0.757772 0
-0.70789 0.514312 0
-0.855879 0.181923 0
-0.855879 -0.181923 0
-0.70789 -0.514312 0
-0.4375 -0.757772 0
-0.0914624 -0.870207 0
0.27039 -0.832174 0
0.585489 -0.650252 0
0.799352 -0.355895 0
1 0 0
0.913545 0.406737 0
0.669131 0.743145 0
0.309017 0.951057 0
-0.104528 0.994522 0
-0.5 0.866025 0
-0.809017 0.587785 0
-0.978148 0.207912 0
-0.978148 -0.207912 0
-0.809017 -0.587785 0
-0.5 -0.866025 0
-0.104528 -0.994522 0
0.309017 -0.951057 0
0.669131 -0.743145 0
0.913545 -0.406737 0
CELLS 225 900
3 0 1 2
3 0 2 3
3 0 3 4
3 0 4 5
3 0 5 6
3 0 6 7
3 0 7 8
3 0 8 9
3 0 9 10
3 0 10 11
3 0 11 12
3 0 12 13
3 0 13 14
3 0 14 15
3 0 15 1
3 1 16 17
3 1 17 2
3 2 17 18
3 2 18 3
3 3 18 19
3 3 19 4
3 4 19 20
3 4 20 5
3 5 20 21
3 5 21 6
3 6 21 22
3 6 22 7
3 7 22 23
3 7 23 8
3 8 23 24
3 8 24 9
3 9 24 25
3 9 25 10
3 10 25 26
3 10 26 11
3 11 26 27
3 11 27 12
3 12 27 28
3 12 28 13
3 13 28 29
3 13 29 14
3 14 29 30
3 14 30 15
3 15 30 16
3 15 16 1
3 16 31 32
3 16 32 17
3 17 32 33
3 17 33 18
3 18 33 34
3 18 34 19
3 19 34 35
3 19 35 20
3 20 35 36
3 20 36 21
3 21 36 37
3 21 37 22
3 22 37 38
3 22 38 23
3 23 38 39
3 23 39 24
3 24 39 40
3 24 40 25
3 25 40 41
3 25 41 26
3 26 41 42
3 26 42 27
3 27 42 43
3 27 43 28
3 28 43 44
3 28 44 29
3 29 44 45
3 29 45 30
3 30 45 31
3 30 31 16
3 31 46 47
3 31 47 32
3 32 47 48
3 32 48 33
3 33 48 49
3 33 49 34
3 34 49 50
3 34 50 35
3 35 50 51
3 35 51 36
3 36 51 52
3 36 52 37
3 37 52 53
3 37 53 38
3 38 53 54
3 38 54 39
3 39 54 55
3 39 55 40
3 40 55 56
3 40 56 41
3 41 56 57
3 41 57 42
3 42 57 58
3 42 58 43
3 43 58 59
3 43 59 44
3 44 59 60
3 44 60 45
3 45 60 46
3 45 46 31
3 46 61 62
3 46 62 47
3 47 62 63
3 47 63 48
3 48 63 64
3 48 64 49
3 49 64 65
3 49 65 50
3 50 65 66
3 50 66 51
3 51 66 67
3 51 67 52
3 52 67 68
3 52 68 53
3 53 68 69
3 53 69 54
3 54 69 70
3 54 70 55
3 55 70 71
3 55 71 56
3 56 71 72
3 56 72 57
3 57 72 73
3 57 73 58
3 58 73 74
3 58 74 59
3 59 74 75
3 59 75 60
3 60 75 61
3 60 61 46
3 61 76 77
3 61 77 62
3 62 77 78
3 62 78 63
3 63 78 79
3 63 79 64
3 64 79 80
3 64 80 65
3 65 80 81
3 65 81 66
3 66 81 82
3 66 82 67
3 67 82 83
3 67 83 68
3 68 83 84
3 68 84 69
3 69 84 85
3 69 85 70
3 70 85 86
3 70 86 71
3 71 86 87
3 71 87 72
3 72 87 88
3 72 88 73
3 73 88 89
3 73 89 74
3 74 89 90
3 74 90 75
3 75 90 76
3 75 76 61
3 76 91 92
3 76 92 77
3 77 92 93
3 77 93 78
3 78 93 94
3 78 94 79
3 79 94 95
3 79 95 80
3 80 95 96
3 80 96 81
3 81 96 97
3 81 97 82
3 82 97 98
3 82 98 83
3 83 98 99
3 83 99 84
3 84 99 100
3 84 100 85
3 85 100 101
3 85 101 86
3 86 101 102
3 86 102 87
3 87 102 103
3 87 103 88
3 88 103 104
3 88 104 89
3 89 104 105
3 89 105 90
3 90 105 91
3 90 91 76
3 91 106 107
3 91 107 92
3 92 107 108
3 92 108 93
3 93 108 109
3 93 109 94
3 94 109 110
3 94 110 95
3 95 110 111
3 95 111 96
3 96 111 112
3 96 112 97
3 97 112 113
3 97 113 98
3 98 113 114
3 98 114 99
3 99 114 115
3 99 115 100
3 100 115 116
3 100 116 101
3 101 116 117
3 101 117 102
3 102 117 118
3 102 118 103
3 103 118 119
3 103 119 104
3 104 119 120
3 104 120 105
3 105 120 106
3 105 106 91
CELL_TYPES 225
5
5
5
5
5
5
5
5
5
5
5
5
5
5
5
5
5
5
5
5
5
5
5
5
5
5
5
5
5
5
5
5
5
5
5
5
5
5
5
5
5
5
5
5
5
5
5
5
5
5
5
5
5
5
5
5
5
5
5
5
5
5
5
5
5
5
5
5
5
5
5
5
5
5
5
5
5
5
5
5
5
5
5
5
5
5
5
5
5
5
5
5
5
5
5
5
5
5
5
5
5
5
5
5
5
5
5
5
5
5
5
5
5
5
5
5
5
5
5
5
5
5
5
5
5
5
5
5
5
5
5
5
5
5
5
5
5
5
5
5
5
5
5
5
5
5
5
5
5
5
5
5
5
5
5
5
5
5
5
5
5
5
5
5
5
5
5
5
5
5
5
5
5
5
5
5
5
5
5
5
5
5
5
5
5
5
5
5
5
5
5
5
5
5
5
5
5
5
5
5
5
5
5
5
5
5
5
5
5
5
5
5
5
5
5
5
5
5
5
5
5
5
5
5
5
POINT_DATA 121
SCALARS psi double 1
LOOKUP_TABLE default
-2.02678e-13
-0.00185478
0.00768118
0.00660202
-0.00360091
-0.0088275
-0.00185478
0.00768118
0.00660202
-0.00360091
-0.0088275
-0.00185478
0.00768118
0.00660202
-0.00360091
-0.0088275
-0.0130226
0.0480752
0.0427347
-0.0216637
-0.0561236
-0.0130226
0.0480752
0.0427347
-0.0216637
-0.0561236
-0.0130226
0.0480752
0.0427347
-0.0216637
-0.0561236
-0.0410329
0.136268
0.125251
-0.0588588
-0.161628
-0.0410329
0.136268
0.125251
-0.0588588
-0.161628
-0.0410329
0.136268
0.125251
-0.0588588
-0.161628
-0.0897484
0.270117
0.25669
-0.111474
-0.325585
-0.0897484
0.270117
0.25669
-0.111474
-0.325585
-0.0897484
0.270117
0.25669
-0.111474
-0.325585
-0.157286
0.431665
0.424069
-0.169575
-0.528873
-0.157286
0.431665
0.424069
-0.169575
-0.528873
-0.157286
0.431665
0.424069
-0.169575
-0.528873
-0.235189
0.59161
0.600825
-0.22028
-0.736965
-0.235189
0.59161
0.600825
-0.22028
-0.736965
-0.235189
0.59161
0.600825
-0.22028
-0.736965
-0.30935
0.716324
0.752062
-0.251524
-0.907513
-0.30935
0.716324
0.752062
-0.251524
-0.907513
-0.30935
0.716324
0.752062
-0.251524
-0.907513
-0.362654
0.775868
0.842166
-0.25538
-1
-0.362654
0.775868
0.842166
-0.25538
-1
-0.362654
0.775868
0.842166
-0.25538
-1
VECTORS Et double
4.48867e-14 4.66384e-14 0
-0.130292 -0.00351472 0
-0.0617986 0.0776805 0
0.0301514 0.127501 0
0.0840519 0.0735137 0
0.103553 -0.0450871 0
0.0681896 -0.111078 0
-0.036374 -0.0923594 0
-0.125495 -0.0376387 0
-0.105691 0.0360342 0
-0.0127298 0.112223 0
0.0621019 0.114593 0
0.0981726 0.0146789 0
0.0953435 -0.0898625 0
0.0216388 -0.109548 0
-0.090823 -0.0671358 0
-0.274476 -0.0303521 0
-0.169068 0.1582 0
0.0258799 0.271105 0
0.177157 0.179358 0
0.23909 -0.0548384 0
0.163524 -0.222527 0
-0.0524714 -0.225518 0
-0.247724 -0.11314 0
-0.243907 0.0637434 0
-0.0720535 0.234477 0
0.110952 0.252879 0
0.22154 0.0673172 0
0.221844 -0.157965 0
0.0667499 -0.243101 0
-0.167036 -0.179639 0
-0.466159 -0.0834653 0
-0.317279 0.237429 0
0.0110737 0.456569 0
0.280227 0.337477 0
0.40527 -0.0527509 0
0.305363 -0.361973 0
-0.0469799 -0.393487 0
-0.400937 -0.218694 0
-0.432377 0.073945 0
-0.156951 0.377349 0
0.160797 0.445438 0
0.364259 0.156058 0
0.389864 -0.237875 0
0.15215 -0.411422 0
-0.248319 -0.324599 0
-0.663565 -0.149678 0
-0.471867 0.28012 0
-0.00405378 0.632819 0
0.362545 0.519501 0
0.547092 -0.0359793 0
0.461408 -0.499825 0
-0.00665756 -0.548709 0
-0.54601 -0.31992 0
-0.631173 0.0542232 0
-0.242387 0.491785 0
0.202157 0.649503 0
0.478524 0.268589 0
0.550064 -0.312899 0
0.268628 -0.573724 0
-0.304705 -0.455806 0
-0.828142 -0.210042 0
-0.597202 0.261544 0
-0.00488396 0.75352 0
0.401796 0.693012 0
0.61589 -0.00829538 0
0.595972 -0.612171 0
0.0720975 -0.647964 0
-0.650125 -0.380989 0
-0.801064 0.00145953 0
-0.300761 0.537524 0
0.232169 0.822212 0
0.525104 0.38642 0
0.655009 -0.37253 0
0.399268 -0.694471 0
-0.315129 -0.529228 0
-0.928972 -0.243936 0
-0.66415 0.172317 0
0.0220269 0.783924 0
0.387835 0.826399 0
0.579065 0.0231629 0
0.675741 -0.682545 0
0.182844 -0.661329 0
-0.689912 -0.372886 0
-0.9096 -0.0773246 0
-0.309592 0.489903 0
0.253231 0.926481 0
0.481305 0.489012 0
0.667885 -0.411038 0
0.521765 -0.749075 0
-0.269473 -0.513066 0
-0.947154 -0.234519 0
-0.655599 0.0208477 0
0.0840949 0.707764 0
0.323738 0.894 0
0.427753 0.0500531 0
0.676676 -0.703 0
0.309745 -0.578189 0
-0.654989 -0.281054 0
-0.936096 -0.166634 0
-0.257224 0.345419 0
0.270477 0.937519 0
0.345854 0.557341 0
0.570894 -0.42671 0
0.612357 -0.727365 0
-0.170529 -0.395472 0
-0.843645 -0.130158 0
-0.798734 -0.102096 0
0.04248 0.455616 0
0.368038 0.929811 0
0.284226 0.281054 0
0.534542 -0.665539 0
0.487785 -0.640676 0
-0.415815 -0.191019 0
-0.989259 -0.146175 0
-0.385513 0.10562 0
0.309102 0.795697 0
0.310949 0.742772 0
0.373335 -0.264597 0
0.621221 -0.783636 0
0.101287 -0.386674 0
