# vtk DataFile Version 3.0
tp3485 scalar+vector
ASCII
DATASET UNSTRUCTURED_GRID
POINTS 121 double
0 0 0
0.125 0 0
0.114193 0.0508421 0
0.0836413 0.0928931 0
0.0386271 0.118882 0
-0.0130661 0.124315 0
-0.0625 0.108253 0
-0.101127 0.0734732 0
-0.122268 0.025989 0
-0.122268 -0.025989 0
-0.101127 -0.0734732 0
-0.0625 -0.108253 0
-0.0130661 -0.124315 0
0.0386271 -0.118882 0
0.0836413 -0.0928931 0
0.114193 -0.0508421 0
0.25 0 0
0.228386 0.101684 0
0.167283 0.185786 0
0.0772542 0.237764 0
-0.0261321 0.24863 0
-0.125 0.216506 0
-0.202254 0.146946 0
-0.244537 0.0519779 0
-0.244537 -0.0519779 0
-0.202254 -0.146946 0
-0.125 -0.216506 0
-0.0261321 -0.24863 0
0.0772542 -0.237764 0
0.167283 -0.185786 0
0.228386 -0.101684 0
0.375 0 0
0.34258 0.152526 0
0.250924 0.278679 0
0.115881 0.356646 0
-0.0391982 0.372946 0
-0.1875 0.32476 0
-0.303381 0.220419 0
-0.366805 0.0779669 0
-0.366805 -0.0779669 0
-0.303381 -0.220419 0
-0.1875 -0.32476 0
-0.0391982 -0.372946 0
0.115881 -0.356646 0
0.250924 -0.278679 0
0.34258 -0.152526 0
0.5 0 0
0.456773 0.203368 0
0.334565 0.371572 0
0.154508 0.475528 0
-0.0522642 0.497261 0
-0.25 0.433013 0
-0.404508 0.293893 0
-0.489074 0.103956 0
-0.489074 -0.103956 0
-0.404508 -0.293893 0
-0.25 -0.433013 0
-0.0522642 -0.497261 0
0.154508 -0.475528 0
0.334565 -0.371572 0
0.456773 -0.203368 0
0.625 0 0
0.570966 0.25421 0
0.418207 0.464466 0
0.193136 0.59441 0
-0.0653303 0.621576 0
-0.3125 0.541266 0
-0.505636 0.367366 0
-0.611342 0.129945 0
-0.611342 -0.129945 0
-0.505636 -0.367366 0
-0.3125 -0.541266 0
-0.0653303 -0.621576 0
0.193136 -0.59441 0
0.418207 -0.464466 0
0.570966 -0.25421 0
0.75 0 0
0.685159 0.305052 0
0.501848 0.557359 0
0.231763 0.713292 0
-0.0783963 0.745891 0
-0.375 0.649519 0
-0.606763 0.440839 0
-0.733611 0.155934 0
-0.733611 -0.155934 0
-0.606763 -0.440839 0
-0.375 -0.649519 0
-0.0783963 -0.745891 0
0.231763 -0.713292 0
0.501848 -0.557359 0
0.685159 -0.305052 0
0.875 0 0
0.799352 0.355895 0
0.585489 0.650252 0
0.27039 0.832174 0
-0.0914624 0.870207 0
-0.4375 0.757772 0
-0.70789 0.514312 0
-0.855879 0.181923 0
-0.855879 -0.181923 0
-0.70789 -0.514312 0
-0.4375 -0.757772 0
-0.0914624 -0.870207 0
0.27039 -0.832174 0
0.585489 -0.650252 0
0.799352 -0.355895 0
1 0 0
0.913545 0.406737 0
0.669131 0.743145 0
0.309017 0.951057 0
-0.104528 0.994522 0
-0.5 0.866025 0
-0.809017 0.587785 0
-0.978148 0.207912 0
-0.978148 -0.207912 0
-0.809017 -0.587785 0
-0.5 -0.866025 0
-0.104528 -0.994522 0
0.309017 -0.951057 0
0.669131 -0.743145 0
0.913545 -0.406737 0
CELLS 225 900
3 0 1 2
3 0 2 3
3 0 3 4
3 0 4 5
3 0 5 6
3 0 6 7
3 0 7 8
3 0 8 9
3 0 9 10
3 0 10 11
3 0 11 12
3 0 12 13
3 0 13 14
3 0 14 15
3 0 15 1
3 1 16 17
3 1 17 2
3 2 17 18
3 2 18 3
3 3 18 19
3 3 19 4
3 4 19 20
3 4 20 5
3 5 20 21
3 5 21 6
3 6 21 22
3 6 22 7
3 7 22 23
3 7 23 8
3 8 23 24
3 8 24 9
3 9 24 25
3 9 25 10
3 10 25 26
3 10 26 11
3 11 26 27
3 11 27 12
3 12 27 28
3 12 28 13
3 13 28 29
3 13 29 14
3 14 29 30
3 14 30 15
3 15 30 16
3 15 16 1
3 16 31 32
3 16 32 17
3 17 32 33
3 17 33 18
3 18 33 34
3 18 34 19
3 19 34 35
3 19 35 20
3 20 35 36
3 20 36 21
3 21 36 37
3 21 37 22
3 22 37 38
3 22 38 23
3 23 38 39
3 23 39 24
3 24 39 40
3 24 40 25
3 25 40 41
3 25 41 26
3 26 41 42
3 26 42 27
3 27 42 43
3 27 43 28
3 28 43 44
3 28 44 29
3 29 44 45
3 29 45 30
3 30 45 31
3 30 31 16
3 31 46 47
3 31 47 32
3 32 47 48
3 32 48 33
3 33 48 49
3 33 49 34
3 34 49 50
3 34 50 35
3 35 50 51
3 35 51 36
3 36 51 52
3 36 52 37
3 37 52 53
3 37 53 38
3 38 53 54
3 38 54 39
3 39 54 55
3 39 55 40
3 40 55 56
3 40 56 41
3 41 56 57
3 41 57 42
3 42 57 58
3 42 58 43
3 43 58 59
3 43 59 44
3 44 59 60
3 44 60 45
3 45 60 46
3 45 46 31
3 46 61 62
3 46 62 47
3 47 62 63
3 47 63 48
3 48 63 64
3 48 64 49
3 49 64 65
3 49 65 50
3 50 65 66
3 50 66 51
3 51 66 67
3 51 67 52
3 52 67 68
3 52 68 53
3 53 68 69
3 53 69 54
3 54 69 70
3 54 70 55
3 55 70 71
3 55 71 56
3 56 71 72
3 56 72 57
3 57 72 73
3 57 73 58
3 58 73 74
3 58 74 59
3 59 74 75
3 59 75 60
3 60 75 61
3 60 61 46
3 61 76 77
3 61 77 62
3 62 77 78
3 62 78 63
3 63 78 79
3 63 79 64
3 64 79 80
3 64 80 65
3 65 80 81
3 65 81 66
3 66 81 82
3 66 82 67
3 67 82 83
3 67 83 68
3 68 83 84
3 68 84 69
3 69 84 85
3 69 85 70
3 70 85 86
3 70 86 71
3 71 86 87
3 71 87 72
3 72 87 88
3 72 88 73
3 73 88 89
3 73 89 74
3 74 89 90
3 74 90 75
3 75 90 76
3 75 76 61
3 76 91 92
3 76 92 77
3 77 92 93
3 77 93 78
3 78 93 94
3 78 94 79
3 79 94 95
3 79 95 80
3 80 95 96
3 80 96 81
3 81 96 97
3 81 97 82
3 82 97 98
3 82 98 83
3 83 98 99
3 83 99 84
3 84 99 100
3 84 100 85
3 85 100 101
3 85 101 86
3 86 101 102
3 86 102 87
3 87 102 103
3 87 103 88
3 88 103 104
3 88 104 89
3 89 104 105
3 89 105 90
3 90 105 91
3 90 91 76
3 91 106 107
3 91 107 92
3 92 107 108
3 92 108 93
3 93 108 109
3 93 109 94
3 94 109 110
3 94 110 95
3 95 110 111
3 95 111 96
3 96 111 112
3 96 112 97
3 97 112 113
3 97 113 98
3 98 113 114
3 98 114 99
3 99 114 115
3 99 115 100
3 100 115 116
3 100 116 101
3 101 116 117
3 101 117 102
3 102 117 118
3 102 118 103
3 103 118 119
3 103 119 104
3 104 119 120
3 104 120 105
3 105 120 106
3 105 106 91
CELL_TYPES 225
5
5
5
5
5
5
5
5
5
5
5
5
5
5
5
5
5
5
5
5
5
5
5
5
5
5
5
5
5
5
5
5
5
5
5
5
5
5
5
5
5
5
5
5
5
5
5
5
5
5
5
5
5
5
5
5
5
5
5
5
5
5
5
5
5
5
5
5
5
5
5
5
5
5
5
5
5
5
5
5
5
5
5
5
5
5
5
5
5
5
5
5
5
5
5
5
5
5
5
5
5
5
5
5
5
5
5
5
5
5
5
5
5
5
5
5
5
5
5
5
5
5
5
5
5
5
5
5
5
5
5
5
5
5
5
5
5
5
5
5
5
5
5
5
5
5
5
5
5
5
5
5
5
5
5
5
5
5
5
5
5
5
5
5
5
5
5
5
5
5
5
5
5
5
5
5
5
5
5
5
5
5
5
5
5
5
5
5
5
5
5
5
5
5
5
5
5
5
5
5
5
5
5
5
5
5
5
5
5
5
5
5
5
5
5
5
5
5
5
5
5
5
5
5
5
POINT_DATA 121
SCALARS psi double 1
LOOKUP_TABLE default
1.359e-14
-0.286771
-0.453371
-0.541578
-0.536142
-0.438003
-0.264128
-0.0445835
0.18267
0.378338
0.508588
0.550899
0.497954
0.358908
0.157804
-0.0705858
-0.467205
-0.749294
-0.901823
-0.898419
-0.73967
-0.453025
-0.0880485
0.292153
0.621838
0.844002
0.920231
0.837343
0.609671
0.276581
-0.104332
-0.494862
-0.805529
-0.976914
-0.979381
-0.812505
-0.505138
-0.110429
0.303374
0.664721
0.911132
1
0.915959
0.67354
0.31466
-0.0986276
-0.376462
-0.622321
-0.760576
-0.76732
-0.641387
-0.404553
-0.0977676
0.225922
0.510548
0.706896
0.781015
0.720089
0.534653
0.256771
-0.0655089
-0.16699
-0.280505
-0.345518
-0.350788
-0.295404
-0.188941
-0.0498091
0.0979354
0.228746
0.320004
0.355931
0.330314
0.247583
0.122042
-0.0246007
0.053404
0.0912141
0.113252
0.115708
0.0981572
0.0636339
0.0181076
-0.0305496
-0.0739245
-0.104517
-0.117038
-0.109322
-0.0827028
-0.0417838
0.00635994
0.209959
0.36489
0.456728
0.469594
0.401263
0.26355
0.0802662
-0.116896
-0.293846
-0.419987
-0.473508
-0.445156
-0.339832
-0.175748
0.018724
0.259334
0.458938
0.579187
0.59929
0.515769
0.343068
0.111047
-0.140175
-0.367159
-0.530659
-0.602402
-0.569985
-0.439012
-0.23213
0.0148893
VECTORS Et double
0.85392 -0.520404 0
0.798956 -0.3763 0
0.737384 -0.355875 0
0.681005 -0.387966 0
0.667129 -0.451336 0
0.704937 -0.504051 0
0.769411 -0.511228 0
0.817885 -0.468116 0
0.818282 -0.403246 0
0.77034 -0.359544 0
0.705784 -0.365929 0
0.667332 -0.418176 0
0.680431 -0.481712 0
0.736411 -0.514492 0
0.798229 -0.494824 0
0.824978 -0.435723 0
0.662884 -0.142202 0
0.512737 -0.0712628 0
0.359552 -0.135375 0
0.304696 -0.292114 0
0.384469 -0.437759 0
0.546084 -0.475931 0
0.682592 -0.38137 0
0.703662 -0.216651 0
0.59535 -0.0907752 0
0.429331 -0.0870388 0
0.315466 -0.207915 0
0.329104 -0.373415 0
0.46122 -0.474021 0
0.624388 -0.443159 0
0.710633 -0.30125 0
0.472817 0.118126 0
0.228682 0.259411 0
-0.0396725 0.172522 0
-0.154665 -0.0850447 0
-0.0402006 -0.342846 0
0.227975 -0.430286 0
0.472399 -0.289501 0
0.531328 -0.0136547 0
0.365765 0.214715 0
0.0852701 0.244487 0
-0.124542 0.0559597 0
-0.124831 -0.226111 0
0.0845942 -0.415067 0
0.36515 -0.38587 0
0.53118 -0.157841 0
0.267722 0.313694 0
-0.0328704 0.513844 0
-0.382747 0.424386 0
-0.550379 0.104518 0
-0.42484 -0.23409 0
-0.0892022 -0.367369 0
0.234429 -0.207123 0
0.331895 0.140607 0
0.138698 0.445715 0
-0.217316 0.506299 0
-0.500558 0.282268 0
-0.523596 -0.078128 0
-0.271186 -0.336401 0
0.0896441 -0.321641 0
0.320118 -0.0436166 0
0.086654 0.38374 0
-0.203503 0.601866 0
-0.559755 0.532192 0
-0.746356 0.220824 0
-0.639826 -0.126193 0
-0.310658 -0.279225 0
0.0233226 -0.137005 0
0.141109 0.206355 0
-0.0352423 0.52364 0
-0.389034 0.604891 0
-0.686147 0.39634 0
-0.729971 0.0359938 0
-0.491506 -0.237693 0
-0.128553 -0.24361 0
0.118708 0.0221567 0
-0.0413203 0.317402 0
-0.250527 0.497947 0
-0.524685 0.463284 0
-0.682373 0.236352 0
-0.619243 -0.0326813 0
-0.377071 -0.165785 0
-0.11611 -0.0748789 0
-0.00905014 0.17988 0
-0.126736 0.429908 0
-0.39129 0.509753 0
-0.627647 0.366577 0
-0.679401 0.0951258 0
-0.512303 -0.124971 0
-0.236929 -0.148066 0
-0.0355049 0.0411224 0
-0.10371 0.15369 0
-0.184996 0.247984 0
-0.309461 0.250673 0
-0.394742 0.159977 0
-0.384406 0.0359123 0
-0.285292 -0.0394217 0
-0.162988 -0.016174 0
-0.0984268 0.0902715 0
-0.134331 0.209476 0
-0.246942 0.262557 0
-0.361741 0.214388 0
-0.40276 0.096846 0
-0.342856 -0.0122884 0
-0.221669 -0.0407962 0
-0.119394 0.0301873 0
-0.120478 0.0753023 0
-0.140823 0.110496 0
-0.180591 0.118925 0
-0.213465 0.0950126 0
-0.217691 0.0545816 0
-0.190473 0.0243872 0
-0.149822 0.0244101 0
-0.122638 0.0546352 0
-0.12691 0.0950613 0
-0.159811 0.118937 0
-0.199569 0.110463 0
-0.219875 0.0752463 0
-0.207291 0.0365918 0
-0.170145 0.0200783 0
-0.133018 0.0366336 0
