# vtk DataFile Version 3.0
tp3485 scalar+vector
ASCII
DATASET UNSTRUCTURED_GRID
POINTS 121 double
0 0 0
0.125 0 0
0.114193 0.0508421 0
0.0836413 0.0928931 0
0.0386271 0.118882 0
-0.0130661 0.124315 0
-0.0625 0.108253 0
-0.101127 0.0734732 0
-0.122268 0.025989 0
-0.122268 -0.025989 0
-0.101127 -0.0734732 0
-0.0625 -0.108253 0
-0.0130661 -0.124315 0
0.0386271 -0.118882 0
0.0836413 -0.0928931 0
0.114193 -0.0508421 0
0.25 0 0
0.228386 0.101684 0
0.167283 0.185786 0
0.0772542 0.237764 0
-0.0261321 0.24863 0
-0.125 0.216506 0
-0.202254 0.146946 0
-0.244537 0.0519779 0
-0.244537 -0.0519779 0
-0.202254 -0.146946 0
-0.125 -0.216506 0
-0.0261321 -0.24863 0
0.0772542 -0.237764 0
0.167283 -0.185786 0
0.228386 -0.101684 0
0.375 0 0
0.34258 0.152526 0
0.250924 0.278679 0
0.115881 0.356646 0
-0.0391982 0.372946 0
-0.1875 0.32476 0
-0.303381 0.220419 0
-0.366805 0.0779669 0
-0.366805 -0.0779669 0
-0.303381 -0.220419 0
-0.1875 -0.32476 0
-0.0391982 -0.372946 0
0.115881 -0.356646 0
0.250924 -0.278679 0
0.34258 -0.152526 0
0.5 0 0
0.456773 0.203368 0
0.334565 0.371572 0
0.154508 0.475528 0
-0.0522642 0.497261 0
-0.25 0.433013 0
-0.404508 0.293893 0
-0.489074 0.103956 0
-0.489074 -0.103956 0
-0.404508 -0.293893 0
-0.25 -0.433013 0
-0.0522642 -0.497261 0
0.154508 -0.475528 0
0.334565 -0.371572 0
0.456773 -0.203368 0
0.625 0 0
0.570966 0.25421 0
0.418207 0.464466 0
0.193136 0.59441 0
-0.0653303 0.621576 0
-0.3125 0.541266 0
-0.505636 0.367366 0
-0.611342 0.129945 0
-0.611342 -0.129945 0
-0.505636 -0.367366 0
-0.3125 -0.541266 0
-0.0653303 -0.621576 0
0.193136 -0.59441 0
0.418207 -0.464466 0
0.570966 -0.25421 0
0.75 0 0
0.685159 0.305052 0
0.501848 0.557359 0
0.231763 0.713292 0
-0.0783963 0.745891 0
-0.375 0.649519 0
-0.606763 0.440839 0
-0.733611 0.155934 0
-0.733611 -0.155934 0
-0.606763 -0.440839 0
-0.375 -0.649519 0
-0.0783963 -0.745891 0
0.231763 -0.713292 0
0.501848 -0.557359 0
0.685159 -0.305052 0
0.875 0 0
0.799352 0.355895 0
0.585489 0.650252 0
0.27039 0.832174 0
-0.0914624 0.870207 0
-0.4375 0.757772 0
-0.70789 0.514312 0
-0.855879 0.181923 0
-0.855879 -0.181923 0
-0.70789 -0.514312 0
-0.4375 -0.757772 0
-0.0914624 -0.870207 0
0.27039 -0.832174 0
0.585489 -0.650252 0
0.799352 -0.355895 0
1 0 0
0.913545 0.406737 0
0.669131 0.743145 0
0.309017 0.951057 0
-0.104528 0.994522 0
-0.5 0.866025 0
-0.809017 0.587785 0
-0.978148 0.207912 0
-0.978148 -0.207912 0
-0.809017 -0.587785 0
-0.5 -0.866025 0
-0.104528 -0.994522 0
0.309017 -0.951057 0
0.669131 -0.743145 0
0.913545 -0.406737 0
CELLS 225 900
3 0 1 2
3 0 2 3
3 0 3 4
3 0 4 5
3 0 5 6
3 0 6 7
3 0 7 8
3 0 8 9
3 0 9 10
3 0 10 11
3 0 11 12
3 0 12 13
3 0 13 14
3 0 14 15
3 0 15 1
3 1 16 17
3 1 17 2
3 2 17 18
3 2 18 3
3 3 18 19
3 3 19 4
3 4 19 20
3 4 20 5
3 5 20 21
3 5 21 6
3 6 21 22
3 6 22 7
3 7 22 23
3 7 23 8
3 8 23 24
3 8 24 9
3 9 24 25
3 9 25 10
3 10 25 26
3 10 26 11
3 11 26 27
3 11 27 12
3 12 27 28
3 12 28 13
3 13 28 29
3 13 29 14
3 14 29 30
3 14 30 15
3 15 30 16
3 15 16 1
3 16 31 32
3 16 32 17
3 17 32 33
3 17 33 18
3 18 33 34
3 18 34 19
3 19 34 35
3 19 35 20
3 20 35 36
3 20 36 21
3 21 36 37
3 21 37 22
3 22 37 38
3 22 38 23
3 23 38 39
3 23 39 24
3 24 39 40
3 24 40 25
3 25 40 41
3 25 41 26
3 26 41 42
3 26 42 27
3 27 42 43
3 27 43 28
3 28 43 44
3 28 44 29
3 29 44 45
3 29 45 30
3 30 45 31
3 30 31 16
3 31 46 47
3 31 47 32
3 32 47 48
3 32 48 33
3 33 48 49
3 33 49 34
3 34 49 50
3 34 50 35
3 35 50 51
3 35 51 36
3 36 51 52
3 36 52 37
3 37 52 53
3 37 53 38
3 38 53 54
3 38 54 39
3 39 54 55
3 39 55 40
3 40 55 56
3 40 56 41
3 41 56 57
3 41 57 42
3 42 57 58
3 42 58 43
3 43 58 59
3 43 59 44
3 44 59 60
3 44 60 45
3 45 60 46
3 45 46 31
3 46 61 62
3 46 62 47
3 47 62 63
3 47 63 48
3 48 63 64
3 48 64 49
3 49 64 65
3 49 65 50
3 50 65 66
3 50 66 51
3 51 66 67
3 51 67 52
3 52 67 68
3 52 68 53
3 53 68 69
3 53 69 54
3 54 69 70
3 54 70 55
3 55 70 71
3 55 71 56
3 56 71 72
3 56 72 57
3 57 72 73
3 57 73 58
3 58 73 74
3 58 74 59
3 59 74 75
3 59 75 60
3 60 75 61
3 60 61 46
3 61 76 77
3 61 77 62
3 62 77 78
3 62 78 63
3 63 78 79
3 63 79 64
3 64 79 80
3 64 80 65
3 65 80 81
3 65 81 66
3 66 81 82
3 66 82 67
3 67 82 83
3 67 83 68
3 68 83 84
3 68 84 69
3 69 84 85
3 69 85 70
3 70 85 86
3 70 86 71
3 71 86 87
3 71 87 72
3 72 87 88
3 72 88 73
3 73 88 89
3 73 89 74
3 74 89 90
3 74 90 75
3 75 90 76
3 75 76 61
3 76 91 92
3 76 92 77
3 77 92 93
3 77 93 78
3 78 93 94
3 78 94 79
3 79 94 95
3 79 95 80
3 80 95 96
3 80 96 81
3 81 96 97
3 81 97 82
3 82 97 98
3 82 98 83
3 83 98 99
3 83 99 84
3 84 99 100
3 84 100 85
3 85 100 101
3 85 101 86
3 86 101 102
3 86 102 87
3 87 102 103
3 87 103 88
3 88 103 104
3 88 104 89
3 89 104 105
3 89 105 90
3 90 105 91
3 90 91 76
3 91 106 107
3 91 107 92
3 92 107 108
3 92 108 93
3 93 108 109
3 93 109 94
3 94 109 110
3 94 110 95
3 95 110 111
3 95 111 96
3 96 111 112
3 96 112 97
3 97 112 113
3 97 113 98
3 98 113 114
3 98 114 99
3 99 114 115
3 99 115 100
3 100 115 116
3 100 116 101
3 101 116 117
3 101 117 102
3 102 117 118
3 102 118 103
3 103 118 119
3 103 119 104
3 104 119 120
3 104 120 105
3 105 120 106
3 105 106 91
CELL_TYPES 225
5
5
5
5
5
5
5
5
5
5
5
5
5
5
5
5
5
5
5
5
5
5
5
5
5
5
5
5
5
5
5
5
5
5
5
5
5
5
5
5
5
5
5
5
5
5
5
5
5
5
5
5
5
5
5
5
5
5
5
5
5
5
5
5
5
5
5
5
5
5
5
5
5
5
5
5
5
5
5
5
5
5
5
5
5
5
5
5
5
5
5
5
5
5
5
5
5
5
5
5
5
5
5
5
5
5
5
5
5
5
5
5
5
5
5
5
5
5
5
5
5
5
5
5
5
5
5
5
5
5
5
5
5
5
5
5
5
5
5
5
5
5
5
5
5
5
5
5
5
5
5
5
5
5
5
5
5
5
5
5
5
5
5
5
5
5
5
5
5
5
5
5
5
5
5
5
5
5
5
5
5
5
5
5
5
5
5
5
5
5
5
5
5
5
5
5
5
5
5
5
5
5
5
5
5
5
5
5
5
5
5
5
5
5
5
5
5
5
5
5
5
5
5
5
5
POINT_DATA 121
SCALARS psi double 1
LOOKUP_TABLE default
1.39978e-13
-0.173102
-0.123037
-0.0516973
0.0285809
0.103917
0.161285
0.190766
0.187261
0.151377
0.0893188
0.0118164
-0.0677292
-0.135564
-0.179958
-0.193236
-0.339683
-0.241744
-0.102005
0.0553714
0.203174
0.315846
0.373905
0.367312
0.297208
0.175714
0.0238378
-0.132161
-0.265307
-0.35258
-0.378888
-0.49355
-0.35169
-0.14902
0.0794178
0.294123
0.457972
0.542633
0.533468
0.432062
0.255948
0.0355784
-0.190943
-0.384449
-0.51148
-0.550071
-0.628931
-0.448722
-0.190925
0.099885
0.373424
0.582394
0.690664
0.679511
0.550864
0.326969
0.0465369
-0.241941
-0.488586
-0.650749
-0.700392
-0.740809
-0.529205
-0.226098
0.116104
0.438231
0.684583
0.812565
0.800047
0.649193
0.386089
0.0562254
-0.28336
-0.573949
-0.765298
-0.824319
-0.825141
-0.590186
-0.253182
0.127599
0.486317
0.760947
0.904002
0.890746
0.723473
0.431104
0.064194
-0.313816
-0.637564
-0.851072
-0.917422
-0.879033
-0.629515
-0.271149
0.134102
0.516165
0.808979
0.961913
0.948523
0.771125
0.460393
0.0700542
-0.332397
-0.677374
-0.905227
-0.976558
-0.900855
-0.645944
-0.279344
0.135558
0.52702
0.827356
0.984634
0.971661
0.790678
0.47298
0.0734994
-0.33869
-0.692317
-0.926236
-1
VECTORS Et double
-0.446159 -0.894954 0
-0.443504 -0.874368 0
-0.446465 -0.881529 0
-0.443125 -0.888522 0
-0.435693 -0.890718 0
-0.429088 -0.886665 0
-0.427681 -0.879045 0
-0.432402 -0.872899 0
-0.440128 -0.872296 0
-0.445746 -0.877634 0
-0.445538 -0.88538 0
-0.439642 -0.89041 0
-0.43196 -0.889393 0
-0.427575 -0.883004 0
-0.429388 -0.87547 0
-0.436201 -0.871777 0
-0.434099 -0.826789 0
-0.444631 -0.846359 0
-0.437134 -0.867281 0
-0.416571 -0.875709 0
-0.396547 -0.866067 0
-0.390315 -0.844735 0
-0.401997 -0.825829 0
-0.423864 -0.821861 0
-0.441445 -0.835455 0
-0.443106 -0.857617 0
-0.427748 -0.87368 0
-0.405534 -0.873016 0
-0.391164 -0.856063 0
-0.394147 -0.83404 0
-0.412509 -0.821521 0
-0.418939 -0.748799 0
-0.442706 -0.787278 0
-0.430013 -0.830689 0
-0.38926 -0.850303 0
-0.347414 -0.833142 0
-0.332167 -0.790562 0
-0.353608 -0.750739 0
-0.397549 -0.740026 0
-0.434912 -0.765513 0
-0.440973 -0.810333 0
-0.411721 -0.844827 0
-0.366513 -0.84617 0
-0.335265 -0.813472 0
-0.338655 -0.768372 0
-0.37444 -0.740713 0
-0.398538 -0.643361 0
-0.440613 -0.706314 0
-0.421983 -0.779705 0
-0.354977 -0.814968 0
-0.283935 -0.788769 0
-0.255869 -0.718444 0
-0.28935 -0.65053 0
-0.362224 -0.629968 0
-0.426266 -0.670365 0
-0.439098 -0.744989 0
-0.392228 -0.804458 0
-0.316671 -0.809419 0
-0.262428 -0.756589 0
-0.265392 -0.680929 0
-0.323602 -0.632504 0
-0.373445 -0.5148 0
-0.437983 -0.606523 0
-0.413004 -0.715858 0
-0.315038 -0.770455 0
-0.208913 -0.734184 0
-0.164855 -0.631048 0
-0.21202 -0.529295 0
-0.319197 -0.49626 0
-0.415462 -0.553803 0
-0.437113 -0.663845 0
-0.369823 -0.753568 0
-0.258121 -0.763598 0
-0.175923 -0.687298 0
-0.177624 -0.575159 0
-0.262098 -0.501387 0
-0.344315 -0.368444 0
-0.434329 -0.491737 0
-0.402936 -0.64113 0
-0.27091 -0.717763 0
-0.125617 -0.670926 0
-0.0632037 -0.531613 0
-0.124971 -0.392012 0
-0.270046 -0.344503 0
-0.402425 -0.420524 0
-0.43451 -0.56977 0
-0.345067 -0.693478 0
-0.193286 -0.709786 0
-0.0796043 -0.607903 0
-0.0792509 -0.455248 0
-0.192459 -0.352839 0
-0.3119 -0.210359 0
-0.429092 -0.366375 0
-0.391566 -0.557861 0
-0.224155 -0.658102 0
-0.0376412 -0.600767 0
0.0445523 -0.423795 0
-0.0319653 -0.244296 0
-0.216559 -0.181051 0
-0.387077 -0.275912 0
-0.43068 -0.466106 0
-0.318514 -0.625774 0
-0.124805 -0.649257 0
0.0222638 -0.521016 0
0.0253704 -0.325913 0
-0.117541 -0.193055 0
-0.252751 -0.0934502 0
-0.420354 -0.228026 0
-0.432494 -0.442628 0
-0.281136 -0.595246 0
-0.0664403 -0.584887 0
0.0695207 -0.418406 0
0.0367764 -0.205969 0
-0.143005 -0.0881548 0
-0.350855 -0.142925 0
-0.449232 -0.334037 0
-0.373035 -0.535023 0
-0.172687 -0.612884 0
0.0192336 -0.516096 0
0.075726 -0.308707 0
-0.0405932 -0.127955 0
