# vtk DataFile Version 3.0
tp3485 scalar+vector
ASCII
DATASET UNSTRUCTURED_GRID
POINTS 121 double
0 0 0
0.125 0 0
0.114193 0.0508421 0
0.0836413 0.0928931 0
0.0386271 0.118882 0
-0.0130661 0.124315 0
-0.0625 0.108253 0
-0.101127 0.0734732 0
-0.122268 0.025989 0
-0.122268 -0.025989 0
-0.101127 -0.0734732 0
-0.0625 -0.108253 0
-0.0130661 -0.124315 0
0.0386271 -0.118882 0
0.0836413 -0.0928931 0
0.114193 -0.0508421 0
0.25 0 0
0.228386 0.101684 0
0.167283 0.185786 0
0.0772542 0.237764 0
-0.0261321 0.24863 0
-0.125 0.216506 0
-0.202254 0.146946 0
-0.244537 0.0519779 0
-0.244537 -0.0519779 0
-0.202254 -0.146946 0
-0.125 -0.216506 0
-0.0261321 -0.24863 0
0.0772542 -0.237764 0
0.167283 -0.185786 0
0.228386 -0.101684 0
0.375 0 0
0.34258 0.152526 0
0.250924 0.278679 0
0.115881 0.356646 0
-0.0391982 0.372946 0
-0.1875 0.32476 0
-0.303381 0.220419 0
-0.366805 0.0779669 0
-0.366805 -0.0779669 0
-0.303381 -0.220419 0
-0.1875 -0.32476 0
-0.0391982 -0.372946 0
0.115881 -0.356646 0
0.250924 -0.278679 0
0.34258 -0.152526 0
0.5 0 0
0.456773 0.203368 0
0.334565 0.371572 0
0.154508 0.475528 0
-0.0522642 0.497261 0
-0.25 0.433013 0
-0.404508 0.293893 0
-0.489074 0.103956 0
-0.489074 -0.103956 0
-0.404508 -0.293893 0
-0.25 -0.433013 0
-0.0522642 -0.497261 0
0.154508 -0.475528 0
0.334565 -0.371572 0
0.456773 -0.203368 0
0.625 0 0
0.570966 0.25421 0
0.418207 0.464466 0
0.193136 0.59441 0
-0.0653303 0.621576 0
-0.3125 0.541266 0
-0.505636 0.367366 0
-0.611342 0.129945 0
-0.611342 -0.129945 0
-0.505636 -0.367366 0
-0.3125 -0.541266 0
-0.0653303 -0.621576 0
0.193136 -0.59441 0
0.418207 -0.464466 0
0.570966 -0.25421 0
0.75 0 0
0.685159 0.305052 0
0.501848 0.557359 0
0.231763 0.713292 0
-0.0783963 0.745891 0
-0.375 0.649519 0
-0.606763 0.440839 0
-0.733611 0.155934 0
-0.733611 -0.155934 0
-0.606763 -0.440839 0
-0.375 -0.649519 0
-0.0783963 -0.745891 0
0.231763 -0.713292 0
0.501848 -0.557359 0
0.685159 -0.305052 0
0.875 0 0
0.799352 0.355895 0
0.585489 0.650252 0
0.27039 0.832174 0
-0.0914624 0.870207 0
-0.4375 0.757772 0
-0.70789 0.514312 0
-0.855879 0.181923 0
-0.855879 -0.181923 0
-0.70789 -0.514312 0
-0.4375 -0.757772 0
-0.0914624 -0.870207 0
0.27039 -0.832174 0
0.585489 -0.650252 0
0.799352 -0.355895 0
1 0 0
0.913545 0.406737 0
0.669131 0.743145 0
0.309017 0.951057 0
-0.104528 0.994522 0
-0.5 0.866025 0
-0.809017 0.587785 0
-0.978148 0.207912 0
-0.978148 -0.207912 0
-0.809017 -0.587785 0
-0.5 -0.866025 0
-0.104528 -0.994522 0
0.309017 -0.951057 0
0.669131 -0.743145 0
0.913545 -0.406737 0
CELLS 225 900
3 0 1 2
3 0 2 3
3 0 3 4
3 0 4 5
3 0 5 6
3 0 6 7
3 0 7 8
3 0 8 9
3 0 9 10
3 0 10 11
3 0 11 12
3 0 12 13
3 0 13 14
3 0 14 15
3 0 15 1
3 1 16 17
3 1 17 2
3 2 17 18
3 2 18 3
3 3 18 19
3 3 19 4
3 4 19 20
3 4 20 5
3 5 20 21
3 5 21 6
3 6 21 22
3 6 22 7
3 7 22 23
3 7 23 8
3 8 23 24
3 8 24 9
3 9 24 25
3 9 25 10
3 10 25 26
3 10 26 11
3 11 26 27
3 11 27 12
3 12 27 28
3 12 28 13
3 13 28 29
3 13 29 14
3 14 29 30
3 14 30 15
3 15 30 16
3 15 16 1
3 16 31 32
3 16 32 17
3 17 32 33
3 17 33 18
3 18 33 34
3 18 34 19
3 19 34 35
3 19 35 20
3 20 35 36
3 20 36 21
3 21 36 37
3 21 37 22
3 22 37 38
3 22 38 23
3 23 38 39
3 23 39 24
3 24 39 40
3 24 40 25
3 25 40 41
3 25 41 26
3 26 41 42
3 26 42 27
3 27 42 43
3 27 43 28
3 28 43 44
3 28 44 29
3 29 44 45
3 29 45 30
3 30 45 31
3 30 31 16
3 31 46 47
3 31 47 32
3 32 47 48
3 32 48 33
3 33 48 49
3 33 49 34
3 34 49 50
3 34 50 35
3 35 50 51
3 35 51 36
3 36 51 52
3 36 52 37
3 37 52 53
3 37 53 38
3 38 53 54
3 38 54 39
3 39 54 55
3 39 55 40
3 40 55 56
3 40 56 41
3 41 56 57
3 41 57 42
3 42 57 58
3 42 58 43
3 43 58 59
3 43 59 44
3 44 59 60
3 44 60 45
3 45 60 46
3 45 46 31
3 46 61 62
3 46 62 47
3 47 62 63
3 47 63 48
3 48 63 64
3 48 64 49
3 49 64 65
3 49 65 50
3 50 65 66
3 50 66 51
3 51 66 67
3 51 67 52
3 52 67 68
3 52 68 53
3 53 68 69
3 53 69 54
3 54 69 70
3 54 70 55
3 55 70 71
3 55 71 56
3 56 71 72
3 56 72 57
3 57 72 73
3 57 73 58
3 58 73 74
3 58 74 59
3 59 74 75
3 59 75 60
3 60 75 61
3 60 61 46
3 61 76 77
3 61 77 62
3 62 77 78
3 62 78 63
3 63 78 79
3 63 79 64
3 64 79 80
3 64 80 65
3 65 80 81
3 65 81 66
3 66 81 82
3 66 82 67
3 67 82 83
3 67 83 68
3 68 83 84
3 68 84 69
3 69 84 85
3 69 85 70
3 70 85 86
3 70 86 71
3 71 86 87
3 71 87 72
3 72 87 88
3 72 88 73
3 73 88 89
3 73 89 74
3 74 89 90
3 74 90 75
3 75 90 76
3 75 76 61
3 76 91 92
3 76 92 77
3 77 92 93
3 77 93 78
3 78 93 94
3 78 94 79
3 79 94 95
3 79 95 80
3 80 95 96
3 80 96 81
3 81 96 97
3 81 97 82
3 82 97 98
3 82 98 83
3 83 98 99
3 83 99 84
3 84 99 100
3 84 100 85
3 85 100 101
3 85 101 86
3 86 101 102
3 86 102 87
3 87 102 103
3 87 103 88
3 88 103 104
3 88 104 89
3 89 104 105
3 89 105 90
3 90 105 91
3 90 91 76
3 91 106 107
3 91 107 92
3 92 107 108
3 92 108 93
3 93 108 109
3 93 109 94
3 94 109 110
3 94 110 95
3 95 110 111
3 95 111 96
3 96 111 112
3 96 112 97
3 97 112 113
3 97 113 98
3 98 113 114
3 98 114 99
3 99 114 115
3 99 115 100
3 100 115 116
3 100 116 101
3 101 116 117
3 101 117 102
3 102 117 118
3 102 118 103
3 103 118 119
3 103 119 104
3 104 119 120
3 104 120 105
3 105 120 106
3 105 106 91
CELL_TYPES 225
5
5
5
5
5
5
5
5
5
5
5
5
5
5
5
5
5
5
5
5
5
5
5
5
5
5
5
5
5
5
5
5
5
5
5
5
5
5
5
5
5
5
5
5
5
5
5
5
5
5
5
5
5
5
5
5
5
5
5
5
5
5
5
5
5
5
5
5
5
5
5
5
5
5
5
5
5
5
5
5
5
5
5
5
5
5
5
5
5
5
5
5
5
5
5
5
5
5
5
5
5
5
5
5
5
5
5
5
5
5
5
5
5
5
5
5
5
5
5
5
5
5
5
5
5
5
5
5
5
5
5
5
5
5
5
5
5
5
5
5
5
5
5
5
5
5
5
5
5
5
5
5
5
5
5
5
5
5
5
5
5
5
5
5
5
5
5
5
5
5
5
5
5
5
5
5
5
5
5
5
5
5
5
5
5
5
5
5
5
5
5
5
5
5
5
5
5
5
5
5
5
5
5
5
5
5
5
5
5
5
5
5
5
5
5
5
5
5
5
5
5
5
5
5
5
POINT_DATA 121
SCALARS psi double 1
LOOKUP_TABLE default
4.87576e-14
0.360566
0.256345
0.1078
-0.0593846
-0.216301
-0.335817
-0.397268
-0.390027
-0.315347
-0.18614
-0.0247486
0.140922
0.282227
0.374731
0.402441
0.660999
0.472551
0.202394
-0.102758
-0.390143
-0.610068
-0.724507
-0.713672
-0.579437
-0.345012
-0.0509308
0.251956
0.511278
0.682195
0.735154
0.852551
0.612835
0.267154
-0.12472
-0.495029
-0.779743
-0.929632
-0.91878
-0.749062
-0.449825
-0.0728084
0.316797
0.651625
0.873782
0.944853
0.905491
0.654414
0.290183
-0.124224
-0.51715
-0.820657
-0.982265
-0.97403
-0.797377
-0.48285
-0.0848333
0.327851
0.683848
0.9216
1
0.815362
0.592427
0.267055
-0.104493
-0.457973
-0.732265
-0.879942
-0.87547
-0.71962
-0.439342
-0.083097
0.287516
0.608414
0.824113
0.897315
0.60363
0.440902
0.201937
-0.0719439
-0.333385
-0.537181
-0.648094
-0.646945
-0.533934
-0.3286
-0.0664487
0.207192
0.445008
0.605877
0.661985
0.313229
0.229981
0.106967
-0.0345425
-0.170079
-0.276208
-0.334577
-0.335096
-0.277673
-0.172238
-0.0370212
0.104597
0.228129
0.312215
0.342317
0
0
0
0
0
0
0
0
0
0
0
0
0
0
0
VECTORS Et double
-0.895109 0.445848 0
-0.80386 0.434329 0
-0.835365 0.447592 0
-0.866302 0.433055 0
-0.8762 0.400336 0
-0.858508 0.371088 0
-0.824934 0.364664 0
-0.797695 0.385316 0
-0.794817 0.419378 0
-0.818203 0.444309 0
-0.852379 0.443611 0
-0.874728 0.417747 0
-0.870463 0.383832 0
-0.842404 0.364308 0
-0.80912 0.372095 0
-0.792636 0.402041 0
-0.603943 0.394099 0
-0.685297 0.43949 0
-0.773466 0.409404 0
-0.810104 0.323751 0
-0.770967 0.23921 0
-0.681953 0.211725 0
-0.601966 0.259485 0
-0.583937 0.350884 0
-0.639796 0.425441 0
-0.732579 0.433817 0
-0.800888 0.370471 0
-0.79952 0.277321 0
-0.729381 0.216007 0
-0.636884 0.227104 0
-0.583238 0.303268 0
-0.307498 0.333329 0
-0.45408 0.429138 0
-0.623362 0.384315 0
-0.703325 0.228522 0
-0.641053 0.0648519 0
-0.477755 0.00161231 0
-0.32149 0.0806512 0
-0.275667 0.249665 0
-0.370607 0.396812 0
-0.543485 0.424718 0
-0.679901 0.314917 0
-0.689583 0.140069 0
-0.566125 0.015877 0
-0.391222 0.0245243 0
-0.280616 0.160288 0
0.0322074 0.259463 0
-0.179891 0.412799 0
-0.435764 0.35778 0
-0.566089 0.130815 0
-0.484626 -0.117904 0
-0.245282 -0.223792 0
-0.00643986 -0.116776 0
0.0738489 0.132325 0
-0.0575457 0.358672 0
-0.313675 0.412483 0
-0.525048 0.258148 0
-0.551791 -0.00220231 0
-0.376207 -0.196285 0
-0.114487 -0.195668 0
0.0601786 -0.000758757 0
0.353367 0.180635 0
0.0911055 0.385062 0
-0.236301 0.326952 0
-0.412194 0.0447591 0
-0.320179 -0.274779 0
-0.0211456 -0.420212 0
0.287024 -0.2953 0
0.400402 0.0172969 0
0.243962 0.310722 0
-0.0787733 0.390803 0
-0.354238 0.204549 0
-0.400146 -0.124789 0
-0.186119 -0.379276 0
0.146215 -0.390508 0
0.376935 -0.151051 0
0.598381 0.104947 0
0.314016 0.341239 0
-0.0518606 0.288026 0
-0.257134 -0.019481 0
-0.165968 -0.377791 0
0.161311 -0.549797 0
0.508129 -0.421676 0
0.644983 -0.0782107 0
0.481312 0.253315 0
0.125422 0.353517 0
-0.187179 0.156088 0
-0.249632 -0.208325 0
-0.0206087 -0.498577 0
0.348337 -0.522596 0
0.613059 -0.264488 0
0.725072 0.0394147 0
0.453745 0.279096 0
0.0940741 0.237839 0
-0.115933 -0.0570556 0
-0.0373056 -0.410444 0
0.277925 -0.588475 0
0.621159 -0.47334 0
0.765264 -0.141227 0
0.614882 0.188091 0
0.269525 0.296693 0
-0.0422702 0.112711 0
-0.114177 -0.242106 0
0.101389 -0.532962 0
0.461778 -0.567386 0
0.728508 -0.322599 0
0.802711 -0.0479232 0
0.599491 0.233938 0
0.254046 0.271518 0
-0.00502869 0.0399479 0
-0.00629368 -0.307533 0
0.251088 -0.540982 0
0.596797 -0.505919 0
0.802065 -0.225545 0
0.731057 0.114605 0
0.430762 0.289441 0
0.0998979 0.183267 0
-0.0425908 -0.133658 0
0.0975866 -0.451612 0
0.427669 -0.560192 0
0.729229 -0.387547 0
