# vtk DataFile Version 3.0
tp3485 scalar+vector
ASCII
DATASET UNSTRUCTURED_GRID
POINTS 121 double
0 0 0
0.125 0 0
0.114193 0.0508421 0
0.0836413 0.0928931 0
0.0386271 0.118882 0
-0.0130661 0.124315 0
-0.0625 0.108253 0
-0.101127 0.0734732 0
-0.122268 0.025989 0
-0.122268 -0.025989 0
-0.101127 -0.0734732 0
-0.0625 -0.108253 0
-0.0130661 -0.124315 0
0.0386271 -0.118882 0
0.0836413 -0.0928931 0
0.114193 -0.0508421 0
0.25 0 0
0.228386 0.101684 0
0.167283 0.185786 0
0.0772542 0.237764 0
-0.0261321 0.24863 0
-0.125 0.216506 0
-0.202254 0.146946 0
-0.244537 0.0519779 0
-0.244537 -0.0519779 0
-0.202254 -0.146946 0
-0.125 -0.216506 0
-0.0261321 -0.24863 0
0.0772542 -0.237764 0
0.167283 -0.185786 0
0.228386 -0.101684 0
0.375 0 0
0.34258 0.152526 0
0.250924 0.278679 0
0.115881 0.356646 0
-0.0391982 0.372946 0
-0.1875 0.32476 0
-0.303381 0.220419 0
-0.366805 0.0779669 0
-0.366805 -0.0779669 0
-0.303381 -0.220419 0
-0.1875 -0.32476 0
-0.0391982 -0.372946 0
0.115881 -0.356646 0
0.250924 -0.278679 0
0.34258 -0.152526 0
0.5 0 0
0.456773 0.203368 0
0.334565 0.371572 0
0.154508 0.475528 0
-0.0522642 0.497261 0
-0.25 0.433013 0
-0.404508 0.293893 0
-0.489074 0.103956 0
-0.489074 -0.103956 0
-0.404508 -0.293893 0
-0.25 -0.433013 0
-0.0522642 -0.497261 0
0.154508 -0.475528 0
0.334565 -0.371572 0
0.456773 -0.203368 0
0.625 0 0
0.570966 0.25421 0
0.418207 0.464466 0
0.193136 0.59441 0
-0.0653303 0.621576 0
-0.3125 0.541266 0
-0.505636 0.367366 0
-0.611342 0.129945 0
-0.611342 -0.129945 0
-0.505636 -0.367366 0
-0.3125 -0.541266 0
-0.0653303 -0.621576 0
0.193136 -0.59441 0
0.418207 -0.464466 0
0.570966 -0.25421 0
0.75 0 0
0.685159 0.305052 0
0.501848 0.557359 0
0.231763 0.713292 0
-0.0783963 0.745891 0
-0.375 0.649519 0
-0.606763 0.440839 0
-0.733611 0.155934 0
-0.733611 -0.155934 0
-0.606763 -0.440839 0
-0.375 -0.649519 0
-0.0783963 -0.745891 0
0.231763 -0.713292 0
0.501848 -0.557359 0
0.685159 -0.305052 0
0.875 0 0
0.799352 0.355895 0
0.585489 0.650252 0
0.27039 0.832174 0
-0.0914624 0.870207 0
-0.4375 0.757772 0
-0.70789 0.514312 0
-0.855879 0.181923 0
-0.855879 -0.181923 0
-0.70789 -0.514312 0
-0.4375 -0.757772 0
-0.0914624 -0.870207 0
0.27039 -0.832174 0
0.585489 -0.650252 0
0.799352 -0.355895 0
1 0 0
0.913545 0.406737 0
0.669131 0.743145 0
0.309017 0.951057 0
-0.104528 0.994522 0
-0.5 0.866025 0
-0.809017 0.587785 0
-0.978148 0.207912 0
-0.978148 -0.207912 0
-0.809017 -0.587785 0
-0.5 -0.866025 0
-0.104528 -0.994522 0
0.309017 -0.951057 0
0.669131 -0.743145 0
0.913545 -0.406737 0
CELLS 225 900
3 0 1 2
3 0 2 3
3 0 3 4
3 0 4 5
3 0 5 6
3 0 6 7
3 0 7 8
3 0 8 9
3 0 9 10
3 0 10 11
3 0 11 12
3 0 12 13
3 0 13 14
3 0 14 15
3 0 15 1
3 1 16 17
3 1 17 2
3 2 17 18
3 2 18 3
3 3 18 19
3 3 19 4
3 4 19 20
3 4 20 5
3 5 20 21
3 5 21 6
3 6 21 22
3 6 22 7
3 7 22 23
3 7 23 8
3 8 23 24
3 8 24 9
3 9 24 25
3 9 25 10
3 10 25 26
3 10 26 11
3 11 26 27
3 11 27 12
3 12 27 28
3 12 28 13
3 13 28 29
3 13 29 14
3 14 29 30
3 14 30 15
3 15 30 16
3 15 16 1
3 16 31 32
3 16 32 17
3 17 32 33
3 17 33 18
3 18 33 34
3 18 34 19
3 19 34 35
3 19 35 20
3 20 35 36
3 20 36 21
3 21 36 37
3 21 37 22
3 22 37 38
3 22 38 23
3 23 38 39
3 23 39 24
3 24 39 40
3 24 40 25
3 25 40 41
3 25 41 26
3 26 41 42
3 26 42 27
3 27 42 43
3 27 43 28
3 28 43 44
3 28 44 29
3 29 44 45
3 29 45 30
3 30 45 31
3 30 31 16
3 31 46 47
3 31 47 32
3 32 47 48
3 32 48 33
3 33 48 49
3 33 49 34
3 34 49 50
3 34 50 35
3 35 50 51
3 35 51 36
3 36 51 52
3 36 52 37
3 37 52 53
3 37 53 38
3 38 53 54
3 38 54 39
3 39 54 55
3 39 55 40
3 40 55 56
3 40 56 41
3 41 56 57
3 41 57 42
3 42 57 58
3 42 58 43
3 43 58 59
3 43 59 44
3 44 59 60
3 44 60 45
3 45 60 46
3 45 46 31
3 46 61 62
3 46 62 47
3 47 62 63
3 47 63 48
3 48 63 64
3 48 64 49
3 49 64 65
3 49 65 50
3 50 65 66
3 50 66 51
3 51 66 67
3 51 67 52
3 52 67 68
3 52 68 53
3 53 68 69
3 53 69 54
3 54 69 70
3 54 70 55
3 55 70 71
3 55 71 56
3 56 71 72
3 56 72 57
3 57 72 73
3 57 73 58
3 58 73 74
3 58 74 59
3 59 74 75
3 59 75 60
3 60 75 61
3 60 61 46
3 61 76 77
3 61 77 62
3 62 77 78
3 62 78 63
3 63 78 79
3 63 79 64
3 64 79 80
3 64 80 65
3 65 80 81
3 65 81 66
3 66 81 82
3 66 82 67
3 67 82 83
3 67 83 68
3 68 83 84
3 68 84 69
3 69 84 85
3 69 85 70
3 70 85 86
3 70 86 71
3 71 86 87
3 71 87 72
3 72 87 88
3 72 88 73
3 73 88 89
3 73 89 74
3 74 89 90
3 74 90 75
3 75 90 76
3 75 76 61
3 76 91 92
3 76 92 77
3 77 92 93
3 77 93 78
3 78 93 94
3 78 94 79
3 79 94 95
3 79 95 80
3 80 95 96
3 80 96 81
3 81 96 97
3 81 97 82
3 82 97 98
3 82 98 83
3 83 98 99
3 83 99 84
3 84 99 100
3 84 100 85
3 85 100 101
3 85 101 86
3 86 101 102
3 86 102 87
3 87 102 103
3 87 103 88
3 88 103 104
3 88 104 89
3 89 104 105
3 89 105 90
3 90 105 91
3 90 91 76
3 91 106 107
3 91 107 92
3 92 107 108
3 92 108 93
3 93 108 109
3 93 109 94
3 94 109 110
3 94 110 95
3 95 110 111
3 95 111 96
3 96 111 112
3 96 112 97
3 97 112 113
3 97 113 98
3 98 113 114
3 98 114 99
3 99 114 115
3 99 115 100
3 100 115 116
3 100 116 101
3 101 116 117
3 101 117 102
3 102 117 118
3 102 118 103
3 103 118 119
3 103 119 104
3 104 119 120
3 104 120 105
3 105 120 106
3 105 106 91
CELL_TYPES 225
5
5
5
5
5
5
5
5
5
5
5
5
5
5
5
5
5
5
5
5
5
5
5
5
5
5
5
5
5
5
5
5
5
5
5
5
5
5
5
5
5
5
5
5
5
5
5
5
5
5
5
5
5
5
5
5
5
5
5
5
5
5
5
5
5
5
5
5
5
5
5
5
5
5
5
5
5
5
5
5
5
5
5
5
5
5
5
5
5
5
5
5
5
5
5
5
5
5
5
5
5
5
5
5
5
5
5
5
5
5
5
5
5
5
5
5
5
5
5
5
5
5
5
5
5
5
5
5
5
5
5
5
5
5
5
5
5
5
5
5
5
5
5
5
5
5
5
5
5
5
5
5
5
5
5
5
5
5
5
5
5
5
5
5
5
5
5
5
5
5
5
5
5
5
5
5
5
5
5
5
5
5
5
5
5
5
5
5
5
5
5
5
5
5
5
5
5
5
5
5
5
5
5
5
5
5
5
5
5
5
5
5
5
5
5
5
5
5
5
5
5
5
5
5
5
POINT_DATA 121
SCALARS psi double 1
LOOKUP_TABLE default
-7.03606e-15
-0.184869
-0.441001
-0.620881
-0.693404
-0.646032
-0.486954
-0.243678
0.0417319
0.319926
0.542803
0.671823
0.68468
0.579149
0.373478
0.103229
-0.242787
-0.61738
-0.885221
-1
-0.94187
-0.720882
-0.375247
0.035272
0.439692
0.768085
0.963669
0.992626
0.849949
0.560308
0.173785
-0.172183
-0.470967
-0.688317
-0.786651
-0.748965
-0.581777
-0.313994
0.00808133
0.328759
0.592592
0.75396
0.784961
0.680236
0.457891
0.156373
-0.0425794
-0.126722
-0.188952
-0.218512
-0.210288
-0.165704
-0.0924681
-0.00324368
0.0865416
0.161363
0.208283
0.21919
0.192196
0.13197
0.048925
0.05956
0.195762
0.298116
0.348922
0.339397
0.271187
0.156086
0.0139963
-0.130513
-0.252456
-0.330746
-0.351848
-0.312112
-0.218409
-0.0869409
0.0869866
0.322153
0.501617
0.594347
0.584308
0.473237
0.28034
0.0389688
-0.20914
-0.421087
-0.560224
-0.602493
-0.540586
-0.385206
-0.163221
0.0513918
0.220594
0.351654
0.42191
0.419214
0.344031
0.209363
0.0384937
-0.139031
-0.292517
-0.395423
-0.429957
-0.390148
-0.282879
-0.126697
0
0
0
0
0
0
0
0
0
0
0
0
0
0
0
VECTORS Et double
0.266346 0.963877 0
0.111354 0.862615 0
0.0489562 0.772986 0
0.0738119 0.666641 0
0.169473 0.613955 0
0.272636 0.64979 0
0.315035 0.750434 0
0.268612 0.849287 0
0.164088 0.880933 0
0.0706292 0.824432 0
0.050082 0.717172 0
0.116043 0.630131 0
0.224863 0.620908 0
0.304532 0.695606 0
0.30233 0.804794 0
0.219713 0.876219 0
-0.0685815 0.615923 0
-0.240498 0.429727 0
-0.217162 0.177378 0
-0.014016 0.0258661 0
0.234511 0.0754518 0
0.363959 0.293323 0
0.288667 0.535305 0
0.0584582 0.64127 0
-0.174329 0.541096 0
-0.25565 0.301073 0
-0.131692 0.0800322 0
0.115517 0.0242459 0
0.32239 0.17063 0
0.35203 0.422316 0
0.184824 0.612754 0
-0.176968 0.312901 0
-0.450523 0.0731672 0
-0.45541 -0.290537 0
-0.188395 -0.537535 0
0.173828 -0.504378 0
0.391562 -0.213008 0
0.320724 0.143765 0
0.00818992 0.32985 0
-0.339224 0.222107 0
-0.491621 -0.108166 0
-0.348153 -0.442414 0
-0.00375979 -0.559453 0
0.313661 -0.381833 0
0.39406 -0.0270925 0
0.184234 0.270023 0
-0.160837 0.0530953 0
-0.443114 -0.149585 0
-0.481373 -0.494978 0
-0.250297 -0.754523 0
0.0972023 -0.756469 0
0.331171 -0.499529 0
0.296784 -0.153729 0
0.0167946 0.0521003 0
-0.323516 -0.018245 0
-0.498951 -0.318215 0
-0.393419 -0.649308 0
-0.0767544 -0.792427 0
0.241494 -0.652865 0
0.350728 -0.322975 0
0.178664 -0.0210578 0
-0.0568546 -0.0955436 0
-0.226392 -0.182794 0
-0.274995 -0.367167 0
-0.170501 -0.526655 0
0.0179423 -0.55572 0
0.165634 -0.435127 0
0.174842 -0.244678 0
0.0394719 -0.1104 0
-0.150896 -0.121151 0
-0.270288 -0.269815 0
-0.239698 -0.458016 0
-0.0793681 -0.561215 0
0.104605 -0.51112 0
0.190479 -0.340881 0
0.121428 -0.163152 0
0.0485459 -0.12109 0
0.0611346 -0.0773419 0
0.037047 -0.0387135 0
-0.0077773 -0.0307667 0
-0.0436763 -0.0587601 0
-0.0468942 -0.10417 0
-0.0153016 -0.136946 0
0.0301954 -0.135399 0
0.0594897 -0.100554 0
0.0531962 -0.0554677 0
0.0154794 -0.0299762 0
-0.0287019 -0.0409481 0
-0.0501113 -0.0811228 0
-0.0345813 -0.123915 0
0.00761123 -0.141008 0
0.086211 -0.0633914 0
0.249079 0.0563729 0
0.269056 0.257545 0
0.132924 0.407002 0
-0.0692347 0.405842 0
-0.203643 0.254832 0
-0.181358 0.0539027 0
-0.0171264 -0.0639845 0
0.180373 -0.0208186 0
0.280448 0.154836 0
0.216874 0.346741 0
0.0317212 0.427907 0
-0.152488 0.344622 0
-0.213855 0.151999 0
-0.111771 -0.0224951 0
-0.0152027 -0.0132473 0
0.22451 0.0686568 0
0.324043 0.301603 0
0.217531 0.531441 0
-0.0245433 0.606079 0
-0.241989 0.476126 0
-0.290914 0.227576 0
-0.138944 0.0249053 0
0.113358 0.00222847 0
0.299034 0.174552 0
0.295213 0.427842 0
0.104426 0.594487 0
-0.147077 0.564212 0
-0.292867 0.357051 0
-0.236469 0.11009 0
