# vtk DataFile Version 3.0
tp3485 scalar+vector
ASCII
DATASET UNSTRUCTURED_GRID
POINTS 121 double
0 0 0
0.125 0 0
0.114193 0.0508421 0
0.0836413 0.0928931 0
0.0386271 0.118882 0
-0.0130661 0.124315 0
-0.0625 0.108253 0
-0.101127 0.0734732 0
-0.122268 0.025989 0
-0.122268 -0.025989 0
-0.101127 -0.0734732 0
-0.0625 -0.108253 0
-0.0130661 -0.124315 0
0.0386271 -0.118882 0
0.0836413 -0.0928931 0
0.114193 -0.0508421 0
0.25 0 0
0.228386 0.101684 0
0.167283 0.185786 0
0.0772542 0.237764 0
-0.0261321 0.24863 0
-0.125 0.216506 0
-0.202254 0.146946 0
-0.244537 0.0519779 0
-0.244537 -0.0519779 0
-0.202254 -0.146946 0
-0.125 -0.216506 0
-0.0261321 -0.24863 0
0.0772542 -0.237764 0
0.167283 -0.185786 0
0.228386 -0.101684 0
0.375 0 0
0.34258 0.152526 0
0.250924 0.278679 0
0.115881 0.356646 0
-0.0391982 0.372946 0
-0.1875 0.32476 0
-0.303381 0.220419 0
-0.366805 0.0779669 0
-0.366805 -0.0779669 0
-0.303381 -0.220419 0
-0.1875 -0.32476 0
-0.0391982 -0.372946 0
0.115881 -0.356646 0
0.250924 -0.278679 0
0.34258 -0.152526 0
0.5 0 0
0.456773 0.203368 0
0.334565 0.371572 0
0.154508 0.475528 0
-0.0522642 0.497261 0
-0.25 0.433013 0
-0.404508 0.293893 0
-0.489074 0.103956 0
-0.489074 -0.103956 0
-0.404508 -0.293893 0
-0.25 -0.433013 0
-0.0522642 -0.497261 0
0.154508 -0.475528 0
0.334565 -0.371572 0
0.456773 -0.203368 0
0.625 0 0
0.570966 0.25421 0
0.418207 0.464466 0
0.193136 0.59441 0
-0.0653303 0.621576 0
-0.3125 0.541266 0
-0.505636 0.367366 0
-0.611342 0.129945 0
-0.611342 -0.129945 0
-0.505636 -0.367366 0
-0.3125 -0.541266 0
-0.0653303 -0.621576 0
0.193136 -0.59441 0
0.418207 -0.464466 0
0.570966 -0.25421 0
0.75 0 0
0.685159 0.305052 0
0.501848 0.557359 0
0.231763 0.713292 0
-0.0783963 0.745891 0
-0.375 0.649519 0
-0.606763 0.440839 0
-0.733611 0.155934 0
-0.733611 -0.155934 0
-0.606763 -0.440839 0
-0.375 -0.649519 0
-0.0783963 -0.745891 0
0.231763 -0.713292 0
0.501848 -0.557359 0
0.685159 -0.305052 0
0.875 0 0
0.799352 0.355895 0
0.585489 0.650252 0
0.27039 0.832174 0
-0.0914624 0.870207 0
-0.4375 0.757772 0
-0.70789 0.514312 0
-0.855879 0.181923 0
-0.855879 -0.181923 0
-0.70789 -0.514312 0
-0.4375 -0.757772 0
-0.0914624 -0.870207 0
0.27039 -0.832174 0
0.585489 -0.650252 0
0.799352 -0.355895 0
1 0 0
0.913545 0.406737 0
0.669131 0.743145 0
0.309017 0.951057 0
-0.104528 0.994522 0
-0.5 0.866025 0
-0.809017 0.587785 0
-0.978148 0.207912 0
-0.978148 -0.207912 0
-0.809017 -0.587785 0
-0.5 -0.866025 0
-0.104528 -0.994522 0
0.309017 -0.951057 0
0.669131 -0.743145 0
0.913545 -0.406737 0
CELLS 225 900
3 0 1 2
3 0 2 3
3 0 3 4
3 0 4 5
3 0 5 6
3 0 6 7
3 0 7 8
3 0 8 9
3 0 9 10
3 0 10 11
3 0 11 12
3 0 12 13
3 0 13 14
3 0 14 15
3 0 15 1
3 1 16 17
3 1 17 2
3 2 17 18
3 2 18 3
3 3 18 19
3 3 19 4
3 4 19 20
3 4 20 5
3 5 20 21
3 5 21 6
3 6 21 22
3 6 22 7
3 7 22 23
3 7 23 8
3 8 23 24
3 8 24 9
3 9 24 25
3 9 25 10
3 10 25 26
3 10 26 11
3 11 26 27
3 11 27 12
3 12 27 28
3 12 28 13
3 13 28 29
3 13 29 14
3 14 29 30
3 14 30 15
3 15 30 16
3 15 16 1
3 16 31 32
3 16 32 17
3 17 32 33
3 17 33 18
3 18 33 34
3 18 34 19
3 19 34 35
3 19 35 20
3 20 35 36
3 20 36 21
3 21 36 37
3 21 37 22
3 22 37 38
3 22 38 23
3 23 38 39
3 23 39 24
3 24 39 40
3 24 40 25
3 25 40 41
3 25 41 26
3 26 41 42
3 26 42 27
3 27 42 43
3 27 43 28
3 28 43 44
3 28 44 29
3 29 44 45
3 29 45 30
3 30 45 31
3 30 31 16
3 31 46 47
3 31 47 32
3 32 47 48
3 32 48 33
3 33 48 49
3 33 49 34
3 34 49 50
3 34 50 35
3 35 50 51
3 35 51 36
3 36 51 52
3 36 52 37
3 37 52 53
3 37 53 38
3 38 53 54
3 38 54 39
3 39 54 55
3 39 55 40
3 40 55 56
3 40 56 41
3 41 56 57
3 41 57 42
3 42 57 58
3 42 58 43
3 43 58 59
3 43 59 44
3 44 59 60
3 44 60 45
3 45 60 46
3 45 46 31
3 46 61 62
3 46 62 47
3 47 62 63
3 47 63 48
3 48 63 64
3 48 64 49
3 49 64 65
3 49 65 50
3 50 65 66
3 50 66 51
3 51 66 67
3 51 67 52
3 52 67 68
3 52 68 53
3 53 68 69
3 53 69 54
3 54 69 70
3 54 70 55
3 55 70 71
3 55 71 56
3 56 71 72
3 56 72 57
3 57 72 73
3 57 73 58
3 58 73 74
3 58 74 59
3 59 74 75
3 59 75 60
3 60 75 61
3 60 61 46
3 61 76 77
3 61 77 62
3 62 77 78
3 62 78 63
3 63 78 79
3 63 79 64
3 64 79 80
3 64 80 65
3 65 80 81
3 65 81 66
3 66 81 82
3 66 82 67
3 67 82 83
3 67 83 68
3 68 83 84
3 68 84 69
3 69 84 85
3 69 85 70
3 70 85 86
3 70 86 71
3 71 86 87
3 71 87 72
3 72 87 88
3 72 88 73
3 73 88 89
3 73 89 74
3 74 89 90
3 74 90 75
3 75 90 76
3 75 76 61
3 76 91 92
3 76 92 77
3 77 92 93
3 77 93 78
3 78 93 94
3 78 94 79
3 79 94 95
3 79 95 80
3 80 95 96
3 80 96 81
3 81 96 97
3 81 97 82
3 82 97 98
3 82 98 83
3 83 98 99
3 83 99 84
3 84 99 100
3 84 100 85
3 85 100 101
3 85 101 86
3 86 101 102
3 86 102 87
3 87 102 103
3 87 103 88
3 88 103 104
3 88 104 89
3 89 104 105
3 89 105 90
3 90 105 91
3 90 91 76
3 91 106 107
3 91 107 92
3 92 107 108
3 92 108 93
3 93 108 109
3 93 109 94
3 94 109 110
3 94 110 95
3 95 110 111
3 95 111 96
3 96 111 112
3 96 112 97
3 97 112 113
3 97 113 98
3 98 113 114
3 98 114 99
3 99 114 115
3 99 115 100
3 100 115 116
3 100 116 101
3 101 116 117
3 101 117 102
3 102 117 118
3 102 118 103
3 103 118 119
3 103 119 104
3 104 119 120
3 104 120 105
3 105 120 106
3 105 106 91
CELL_TYPES 225
5
5
5
5
5
5
5
5
5
5
5
5
5
5
5
5
5
5
5
5
5
5
5
5
5
5
5
5
5
5
5
5
5
5
5
5
5
5
5
5
5
5
5
5
5
5
5
5
5
5
5
5
5
5
5
5
5
5
5
5
5
5
5
5
5
5
5
5
5
5
5
5
5
5
5
5
5
5
5
5
5
5
5
5
5
5
5
5
5
5
5
5
5
5
5
5
5
5
5
5
5
5
5
5
5
5
5
5
5
5
5
5
5
5
5
5
5
5
5
5
5
5
5
5
5
5
5
5
5
5
5
5
5
5
5
5
5
5
5
5
5
5
5
5
5
5
5
5
5
5
5
5
5
5
5
5
5
5
5
5
5
5
5
5
5
5
5
5
5
5
5
5
5
5
5
5
5
5
5
5
5
5
5
5
5
5
5
5
5
5
5
5
5
5
5
5
5
5
5
5
5
5
5
5
5
5
5
5
5
5
5
5
5
5
5
5
5
5
5
5
5
5
5
5
5
POINT_DATA 121
SCALARS psi double 1
LOOKUP_TABLE default
-2.67419e-15
0.667818
0.535024
0.30972
0.0308623
-0.253332
-0.493722
-0.648744
-0.691592
-0.614857
-0.431808
-0.174096
0.11372
0.381872
0.583995
0.68514
0.970827
0.788322
0.469508
0.0695127
-0.342502
-0.695296
-0.927866
-1
-0.899225
-0.642966
-0.275532
0.139544
0.530492
0.829712
0.985468
0.769801
0.633341
0.387371
0.0744204
-0.251398
-0.533747
-0.723807
-0.788714
-0.717245
-0.521758
-0.236054
0.0904657
0.401343
0.642825
0.773156
0.215534
0.179612
0.112634
0.0261809
-0.0647994
-0.144575
-0.199353
-0.21966
-0.201987
-0.149388
-0.0709582
0.0197407
0.107026
0.175806
0.214187
-0.346901
-0.292729
-0.18794
-0.0506554
0.0953883
0.224938
0.315595
0.351682
0.32696
0.245704
0.121963
-0.0228661
-0.163741
-0.276304
-0.341092
-0.595597
-0.508787
-0.334004
-0.101469
0.148611
0.372995
0.532885
0.600634
0.564528
0.43081
0.222601
-0.0240978
-0.26663
-0.463059
-0.579422
-0.426157
-0.368448
-0.247032
-0.082901
0.0955639
0.257505
0.374921
0.42751
0.406178
0.314615
0.168652
-0.0064729
-0.180478
-0.323277
-0.410179
0
0
0
0
0
0
0
0
0
0
0
0
0
0
0
VECTORS Et double
-0.963877 0.266346 0
-0.632839 0.250268 0
-0.722468 0.312665 0
-0.828812 0.287809 0
-0.881499 0.192148 0
-0.845664 0.0889848 0
-0.745019 0.046586 0
-0.646167 0.0930088 0
-0.614521 0.197533 0
-0.671022 0.290992 0
-0.778282 0.311539 0
-0.865322 0.245578 0
-0.874545 0.136758 0
-0.799848 0.0570891 0
-0.690659 0.0592915 0
-0.619235 0.141908 0
-0.0435955 0.177705 0
-0.229792 0.349622 0
-0.48214 0.326286 0
-0.633653 0.12314 0
-0.584067 -0.125387 0
-0.366196 -0.254835 0
-0.124214 -0.179543 0
-0.0182487 0.0506656 0
-0.118423 0.283452 0
-0.358446 0.364773 0
-0.579487 0.240815 0
-0.635273 -0.00639368 0
-0.488889 -0.213266 0
-0.237203 -0.242906 0
-0.046765 -0.0757004 0
0.541248 0.0879283 0
0.301514 0.361484 0
-0.0621904 0.366371 0
-0.309188 0.0993558 0
-0.276031 -0.262867 0
0.0153395 -0.480601 0
0.372112 -0.409763 0
0.558197 -0.0972293 0
0.450454 0.250185 0
0.120181 0.402581 0
-0.214067 0.259114 0
-0.331106 -0.0852796 0
-0.153486 -0.402701 0
0.201255 -0.483099 0
0.49837 -0.273273 0
0.78359 0.0121137 0
0.58091 0.294391 0
0.235517 0.33265 0
-0.0240279 0.101574 0
-0.0259743 -0.245926 0
0.230966 -0.479895 0
0.576765 -0.445507 0
0.782595 -0.165518 0
0.71225 0.174793 0
0.412279 0.350228 0
0.0811862 0.244696 0
-0.0619327 -0.0719689 0
0.0776299 -0.390217 0
0.40752 -0.499452 0
0.709437 -0.327388 0
0.563581 -0.0304241 0
0.476331 0.139113 0
0.291958 0.187716 0
0.132469 0.083222 0
0.103405 -0.105221 0
0.223998 -0.252913 0
0.414447 -0.262121 0
0.548724 -0.126751 0
0.537974 0.0636174 0
0.38931 0.183009 0
0.201108 0.152419 0
0.0979098 -0.0079106 0
0.148005 -0.191883 0
0.318244 -0.277757 0
0.495972 -0.208706 0
0.0490672 -0.0371251 0
0.0928152 -0.0497139 0
0.131444 -0.0256262 0
0.139391 0.0191981 0
0.111397 0.055097 0
0.0659877 0.0583149 0
0.0332115 0.0267224 0
0.0347577 -0.0187746 0
0.0696033 -0.048069 0
0.114689 -0.0417754 0
0.140181 -0.00405867 0
0.129209 0.0401226 0
0.0890344 0.061532 0
0.046242 0.0460021 0
0.0291493 0.00380953 0
-0.42218 -0.0199163 0
-0.302415 -0.182784 0
-0.101243 -0.202762 0
0.0482136 -0.066629 0
0.0470534 0.135529 0
-0.103956 0.269938 0
-0.304886 0.247653 0
-0.422773 0.0834211 0
-0.379607 -0.114078 0
-0.203952 -0.214153 0
-0.0120469 -0.150579 0
0.0691185 0.0345735 0
-0.0141665 0.218783 0
-0.206789 0.28015 0
-0.381283 0.178066 0
-0.607061 0.0405505 0
-0.525157 -0.199162 0
-0.292211 -0.298695 0
-0.0623723 -0.192183 0
0.0122656 0.0498911 0
-0.117688 0.267337 0
-0.366237 0.316262 0
-0.568908 0.164291 0
-0.591585 -0.0880106 0
-0.419262 -0.273686 0
-0.165972 -0.269866 0
0.000673834 -0.0790782 0
-0.0296014 0.172425 0
-0.236763 0.318215 0
-0.483724 0.261816 0
