# vtk DataFile Version 3.0
tp3485 scalar+vector
ASCII
DATASET UNSTRUCTURED_GRID
POINTS 121 double
0 0 0
0.125 0 0
0.114193 0.0508421 0
0.0836413 0.0928931 0
0.0386271 0.118882 0
-0.0130661 0.124315 0
-0.0625 0.108253 0
-0.101127 0.0734732 0
-0.122268 0.025989 0
-0.122268 -0.025989 0
-0.101127 -0.0734732 0
-0.0625 -0.108253 0
-0.0130661 -0.124315 0
0.0386271 -0.118882 0
0.0836413 -0.0928931 0
0.114193 -0.0508421 0
0.25 0 0
0.228386 0.101684 0
0.167283 0.185786 0
0.0772542 0.237764 0
-0.0261321 0.24863 0
-0.125 0.216506 0
-0.202254 0.146946 0
-0.244537 0.0519779 0
-0.244537 -0.0519779 0
-0.202254 -0.146946 0
-0.125 -0.216506 0
-0.0261321 -0.24863 0
0.0772542 -0.237764 0
0.167283 -0.185786 0
0.228386 -0.101684 0
0.375 0 0
0.34258 0.152526 0
0.250924 0.278679 0
0.115881 0.356646 0
-0.0391982 0.372946 0
-0.1875 0.32476 0
-0.303381 0.220419 0
-0.366805 0.0779669 0
-0.366805 -0.0779669 0
-0.303381 -0.220419 0
-0.1875 -0.32476 0
-0.0391982 -0.372946 0
0.115881 -0.356646 0
0.250924 -0.278679 0
0.34258 -0.152526 0
0.5 0 0
0.456773 0.203368 0
0.334565 0.371572 0
0.154508 0.475528 0
-0.0522642 0.497261 0
-0.25 0.433013 0
-0.404508 0.293893 0
-0.489074 0.103956 0
-0.489074 -0.103956 0
-0.404508 -0.293893 0
-0.25 -0.433013 0
-0.0522642 -0.497261 0
0.154508 -0.475528 0
0.334565 -0.371572 0
0.456773 -0.203368 0
0.625 0 0
0.570966 0.25421 0
0.418207 0.464466 0
0.193136 0.59441 0
-0.0653303 0.621576 0
-0.3125 0.541266 0
-0.505636 0.367366 0
-0.611342 0.129945 0
-0.611342 -0.129945 0
-0.505636 -0.367366 0
-0.3125 -0.541266 0
-0.0653303 -0.621576 0
0.193136 -0.59441 0
0.418207 -0.464466 0
0.570966 -0.25421 0
0.75 0 0
0.685159 0.305052 0
0.501848 0.557359 0
0.231763 0.713292 0
-0.0783963 0.745891 0
-0.375 0.649519 0
-0.606763 0.440839 0
-0.733611 0.155934 0
-0.733611 -0.155934 0
-0.606763 -0.440839 0
-0.375 -0.649519 0
-0.0783963 -0.745891 0
0.231763 -0.713292 0
0.501848 -0.557359 0
0.685159 -0.305052 0
0.875 0 0
0.799352 0.355895 0
0.585489 0.650252 0
0.27039 0.832174 0
-0.0914624 0.870207 0
-0.4375 0.757772 0
-0.70789 0.514312 0
-0.855879 0.181923 0
-0.855879 -0.181923 0
-0.70789 -0.514312 0
-0.4375 -0.757772 0
-0.0914624 -0.870207 0
0.27039 -0.832174 0
0.585489 -0.650252 0
0.799352 -0.355895 0
1 0 0
0.913545 0.406737 0
0.669131 0.743145 0
0.309017 0.951057 0
-0.104528 0.994522 0
-0.5 0.866025 0
-0.809017 0.587785 0
-0.978148 0.207912 0
-0.978148 -0.207912 0
-0.809017 -0.587785 0
-0.5 -0.866025 0
-0.104528 -0.994522 0
0.309017 -0.951057 0
0.669131 -0.743145 0
0.913545 -0.406737 0
CELLS 225 900
3 0 1 2
3 0 2 3
3 0 3 4
3 0 4 5
3 0 5 6
3 0 6 7
3 0 7 8
3 0 8 9
3 0 9 10
3 0 10 11
3 0 11 12
3 0 12 13
3 0 13 14
3 0 14 15
3 0 15 1
3 1 16 17
3 1 17 2
3 2 17 18
3 2 18 3
3 3 18 19
3 3 19 4
3 4 19 20
3 4 20 5
3 5 20 21
3 5 21 6
3 6 21 22
3 6 22 7
3 7 22 23
3 7 23 8
3 8 23 24
3 8 24 9
3 9 24 25
3 9 25 10
3 10 25 26
3 10 26 11
3 11 26 27
3 11 27 12
3 12 27 28
3 12 28 13
3 13 28 29
3 13 29 14
3 14 29 30
3 14 30 15
3 15 30 16
3 15 16 1
3 16 31 32
3 16 32 17
3 17 32 33
3 17 33 18
3 18 33 34
3 18 34 19
3 19 34 35
3 19 35 20
3 20 35 36
3 20 36 21
3 21 36 37
3 21 37 22
3 22 37 38
3 22 38 23
3 23 38 39
3 23 39 24
3 24 39 40
3 24 40 25
3 25 40 41
3 25 41 26
3 26 41 42
3 26 42 27
3 27 42 43
3 27 43 28
3 28 43 44
3 28 44 29
3 29 44 45
3 29 45 30
3 30 45 31
3 30 31 16
3 31 46 47
3 31 47 32
3 32 47 48
3 32 48 33
3 33 48 49
3 33 49 34
3 34 49 50
3 34 50 35
3 35 50 51
3 35 51 36
3 36 51 52
3 36 52 37
3 37 52 53
3 37 53 38
3 38 53 54
3 38 54 39
3 39 54 55
3 39 55 40
3 40 55 56
3 40 56 41
3 41 56 57
3 41 57 42
3 42 57 58
3 42 58 43
3 43 58 59
3 43 59 44
3 44 59 60
3 44 60 45
3 45 60 46
3 45 46 31
3 46 61 62
3 46 62 47
3 47 62 63
3 47 63 48
3 48 63 64
3 48 64 49
3 49 64 65
3 49 65 50
3 50 65 66
3 50 66 51
3 51 66 67
3 51 67 52
3 52 67 68
3 52 68 53
3 53 68 69
3 53 69 54
3 54 69 70
3 54 70 55
3 55 70 71
3 55 71 56
3 56 71 72
3 56 72 57
3 57 72 73
3 57 73 58
3 58 73 74
3 58 74 59
3 59 74 75
3 59 75 60
3 60 75 61
3 60 61 46
3 61 76 77
3 61 77 62
3 62 77 78
3 62 78 63
3 63 78 79
3 63 79 64
3 64 79 80
3 64 80 65
3 65 80 81
3 65 81 66
3 66 81 82
3 66 82 67
3 67 82 83
3 67 83 68
3 68 83 84
3 68 84 69
3 69 84 85
3 69 85 70
3 70 85 86
3 70 86 71
3 71 86 87
3 71 87 72
3 72 87 88
3 72 88 73
3 73 88 89
3 73 89 74
3 74 89 90
3 74 90 75
3 75 90 76
3 75 76 61
3 76 91 92
3 76 92 77
3 77 92 93
3 77 93 78
3 78 93 94
3 78 94 79
3 79 94 95
3 79 95 80
3 80 95 96
3 80 96 81
3 81 96 97
3 81 97 82
3 82 97 98
3 82 98 83
3 83 98 99
3 83 99 84
3 84 99 100
3 84 100 85
3 85 100 101
3 85 101 86
3 86 101 102
3 86 102 87
3 87 102 103
3 87 103 88
3 88 103 104
3 88 104 89
3 89 104 105
3 89 105 90
3 90 105 91
3 90 91 76
3 91 106 107
3 91 107 92
3 92 107 108
3 92 108 93
3 93 108 109
3 93 109 94
3 94 109 110
3 94 110 95
3 95 110 111
3 95 111 96
3 96 111 112
3 96 112 97
3 97 112 113
3 97 113 98
3 98 113 114
3 98 114 99
3 99 114 115
3 99 115 100
3 100 115 116
3 100 116 101
3 101 116 117
3 101 117 102
3 102 117 118
3 102 118 103
3 103 118 119
3 103 119 104
3 104 119 120
3 104 120 105
3 105 120 106
3 105 106 91
CELL_TYPES 225
5
5
5
5
5
5
5
5
5
5
5
5
5
5
5
5
5
5
5
5
5
5
5
5
5
5
5
5
5
5
5
5
5
5
5
5
5
5
5
5
5
5
5
5
5
5
5
5
5
5
5
5
5
5
5
5
5
5
5
5
5
5
5
5
5
5
5
5
5
5
5
5
5
5
5
5
5
5
5
5
5
5
5
5
5
5
5
5
5
5
5
5
5
5
5
5
5
5
5
5
5
5
5
5
5
5
5
5
5
5
5
5
5
5
5
5
5
5
5
5
5
5
5
5
5
5
5
5
5
5
5
5
5
5
5
5
5
5
5
5
5
5
5
5
5
5
5
5
5
5
5
5
5
5
5
5
5
5
5
5
5
5
5
5
5
5
5
5
5
5
5
5
5
5
5
5
5
5
5
5
5
5
5
5
5
5
5
5
5
5
5
5
5
5
5
5
5
5
5
5
5
5
5
5
5
5
5
5
5
5
5
5
5
5
5
5
5
5
5
5
5
5
5
5
5
POINT_DATA 121
SCALARS psi double 1
LOOKUP_TABLE default
-9.55267e-15
-0.18021
-0.311787
-0.389453
-0.399779
-0.34098
-0.223222
-0.0668673
0.10105
0.251494
0.358453
0.403432
0.378654
0.288403
0.148285
-0.017473
-0.323922
-0.565689
-0.709644
-0.730894
-0.625767
-0.412438
-0.127796
0.178944
0.454743
0.651912
0.73636
0.693485
0.5307
0.276152
-0.0261456
-0.409544
-0.722087
-0.909774
-0.940153
-0.807971
-0.536084
-0.171502
0.222733
0.578456
0.834159
0.945628
0.893589
0.687041
0.361697
-0.0261879
-0.426281
-0.758983
-0.960449
-0.995846
-0.859051
-0.573719
-0.189186
0.22806
0.605872
0.878923
1
0.948168
0.73239
0.389974
-0.0198713
-0.376079
-0.676337
-0.859651
-0.894322
-0.774358
-0.5205
-0.176642
0.197758
0.537964
0.785151
0.896579
0.85298
0.661893
0.356358
-0.0107936
-0.272707
-0.495488
-0.632595
-0.660321
-0.573871
-0.388193
-0.135394
0.140817
0.392679
0.576643
0.6609
0.630882
0.491778
0.267642
-0.00277218
-0.138567
-0.254424
-0.32629
-0.341737
-0.298094
-0.202909
-0.0726382
0.070192
0.200885
0.296844
0.341475
0.327063
0.256098
0.140851
0.00125045
0
0
0
0
0
0
0
0
0
0
0
0
0
0
0
VECTORS Et double
0.445848 0.895109 0
0.376831 0.865155 0
0.363568 0.83365 0
0.378105 0.802713 0
0.410824 0.792815 0
0.440072 0.810507 0
0.446496 0.844081 0
0.425844 0.87132 0
0.391782 0.874199 0
0.366851 0.850812 0
0.367549 0.816637 0
0.393413 0.794287 0
0.427328 0.798553 0
0.446852 0.826611 0
0.439065 0.859895 0
0.409119 0.876379 0
0.256765 0.787247 0
0.211374 0.705892 0
0.24146 0.617723 0
0.327113 0.581085 0
0.411654 0.620222 0
0.439138 0.709236 0
0.391379 0.789223 0
0.29998 0.807252 0
0.225423 0.751393 0
0.217046 0.65861 0
0.280392 0.590301 0
0.373543 0.591669 0
0.434856 0.661808 0
0.423759 0.754305 0
0.347595 0.807951 0
0.0999099 0.669271 0
0.00410062 0.522689 0
0.0489231 0.353407 0
0.204717 0.273444 0
0.368387 0.335716 0
0.431626 0.499015 0
0.352587 0.655279 0
0.183573 0.701103 0
0.0364268 0.606163 0
0.00852083 0.433284 0
0.118322 0.296868 0
0.29317 0.287186 0
0.417361 0.410644 0
0.408714 0.585547 0
0.27295 0.696153 0
-0.063583 0.524289 0
-0.216919 0.31219 0
-0.1619 0.0563178 0
0.0650646 -0.0740076 0
0.313784 0.00745549 0
0.419671 0.2468 0
0.312656 0.485642 0
0.0635551 0.56593 0
-0.162792 0.434536 0
-0.216603 0.178407 0
-0.0622685 -0.0329663 0
0.198082 -0.0597095 0
0.392165 0.115874 0
0.391548 0.377594 0
0.196639 0.55226 0
-0.203987 0.368045 0
-0.408414 0.105783 0
-0.350304 -0.221623 0
-0.0681104 -0.397516 0
0.251428 -0.305501 0
0.39686 -0.00646782 0
0.271949 0.301702 0
-0.0406482 0.41508 0
-0.334073 0.25864 0
-0.414155 -0.0640955 0
-0.227901 -0.33956 0
0.101438 -0.385469 0
0.355925 -0.171441 0
0.367156 0.160892 0
0.1277 0.391613 0
-0.297455 0.216705 0
-0.533747 -0.0676595 0
-0.480534 -0.433536 0
-0.173027 -0.63881 0
0.185283 -0.547643 0
0.357289 -0.220365 0
0.229168 0.126453 0
-0.114297 0.263307 0
-0.445823 0.0996357 0
-0.546025 -0.256253 0
-0.348597 -0.568855 0
0.0158171 -0.631307 0
0.306069 -0.402284 0
0.330088 -0.0333391 0
0.07198 0.231383 0
-0.330315 0.0845876 0
-0.569996 -0.186739 0
-0.528739 -0.546411 0
-0.233844 -0.756418 0
0.119544 -0.67779 0
0.297575 -0.36256 0
0.18244 -0.0193262 0
-0.149673 0.12478 0
-0.478992 -0.025603 0
-0.587593 -0.37096 0
-0.403611 -0.682755 0
-0.0487939 -0.754661 0
0.242062 -0.539096 0
0.276486 -0.178707 0
0.0316987 0.088023 0
-0.222503 0.0335797 0
-0.504364 -0.169641 0
-0.541944 -0.515085 0
-0.310374 -0.77416 0
0.0371067 -0.775425 0
0.270557 -0.518043 0
0.235493 -0.172334 0
-0.0448811 0.0329331 0
-0.385031 -0.0380748 0
-0.559867 -0.338369 0
-0.453693 -0.669234 0
-0.136768 -0.811722 0
0.181186 -0.671545 0
0.289766 -0.341462 0
0.117121 -0.0399029 0
