# vtk DataFile Version 3.0
tp3485 scalar+vector
ASCII
DATASET UNSTRUCTURED_GRID
POINTS 121 double
0 0 0
0.125 0 0
0.114193 0.0508421 0
0.0836413 0.0928931 0
0.0386271 0.118882 0
-0.0130661 0.124315 0
-0.0625 0.108253 0
-0.101127 0.0734732 0
-0.122268 0.025989 0
-0.122268 -0.025989 0
-0.101127 -0.0734732 0
-0.0625 -0.108253 0
-0.0130661 -0.124315 0
0.0386271 -0.118882 0
0.0836413 -0.0928931 0
0.114193 -0.0508421 0
0.25 0 0
0.228386 0.101684 0
0.167283 0.185786 0
0.0772542 0.237764 0
-0.0261321 0.24863 0
-0.125 0.216506 0
-0.202254 0.146946 0
-0.244537 0.0519779 0
-0.244537 -0.0519779 0
-0.202254 -0.146946 0
-0.125 -0.216506 0
-0.0261321 -0.24863 0
0.0772542 -0.237764 0
0.167283 -0.185786 0
0.228386 -0.101684 0
0.375 0 0
0.34258 0.152526 0
0.250924 0.278679 0
0.115881 0.356646 0
-0.0391982 0.372946 0
-0.1875 0.32476 0
-0.303381 0.220419 0
-0.366805 0.0779669 0
-0.366805 -0.0779669 0
-0.303381 -0.220419 0
-0.1875 -0.32476 0
-0.0391982 -0.372946 0
0.115881 -0.356646 0
0.250924 -0.278679 0
0.34258 -0.152526 0
0.5 0 0
0.456773 0.203368 0
0.334565 0.371572 0
0.154508 0.475528 0
-0.0522642 0.497261 0
-0.25 0.433013 0
-0.404508 0.293893 0
-0.489074 0.103956 0
-0.489074 -0.103956 0
-0.404508 -0.293893 0
-0.25 -0.433013 0
-0.0522642 -0.497261 0
0.154508 -0.475528 0
0.334565 -0.371572 0
0.456773 -0.203368 0
0.625 0 0
0.570966 0.25421 0
0.418207 0.464466 0
0.193136 0.59441 0
-0.0653303 0.621576 0
-0.3125 0.541266 0
-0.505636 0.367366 0
-0.611342 0.129945 0
-0.611342 -0.129945 0
-0.505636 -0.367366 0
-0.3125 -0.541266 0
-0.0653303 -0.621576 0
0.193136 -0.59441 0
0.418207 -0.464466 0
0.570966 -0.25421 0
0.75 0 0
0.685159 0.305052 0
0.501848 0.557359 0
0.231763 0.713292 0
-0.0783963 0.745891 0
-0.375 0.649519 0
-0.606763 0.440839 0
-0.733611 0.155934 0
-0.733611 -0.155934 0
-0.606763 -0.440839 0
-0.375 -0.649519 0
-0.0783963 -0.745891 0
0.231763 -0.713292 0
0.501848 -0.557359 0
0.685159 -0.305052 0
0.875 0 0
0.799352 0.355895 0
0.585489 0.650252 0
0.27039 0.832174 0
-0.0914624 0.870207 0
-0.4375 0.757772 0
-0.70789 0.514312 0
-0.855879 0.181923 0
-0.855879 -0.181923 0
-0.70789 -0.514312 0
-0.4375 -0.757772 0
-0.0914624 -0.870207 0
0.27039 -0.832174 0
0.585489 -0.650252 0
0.799352 -0.355895 0
1 0 0
0.913545 0.406737 0
0.669131 0.743145 0
0.309017 0.951057 0
-0.104528 0.994522 0
-0.5 0.866025 0
-0.809017 0.587785 0
-0.978148 0.207912 0
-0.978148 -0.207912 0
-0.809017 -0.587785 0
-0.5 -0.866025 0
-0.104528 -0.994522 0
0.309017 -0.951057 0
0.669131 -0.743145 0
0.913545 -0.406737 0
CELLS 225 900
3 0 1 2
3 0 2 3
3 0 3 4
3 0 4 5
3 0 5 6
3 0 6 7
3 0 7 8
3 0 8 9
3 0 9 10
3 0 10 11
3 0 11 12
3 0 12 13
3 0 13 14
3 0 14 15
3 0 15 1
3 1 16 17
3 1 17 2
3 2 17 18
3 2 18 3
3 3 18 19
3 3 19 4
3 4 19 20
3 4 20 5
3 5 20 21
3 5 21 6
3 6 21 22
3 6 22 7
3 7 22 23
3 7 23 8
3 8 23 24
3 8 24 9
3 9 24 25
3 9 25 10
3 10 25 26
3 10 26 11
3 11 26 27
3 11 27 12
3 12 27 28
3 12 28 13
3 13 28 29
3 13 29 14
3 14 29 30
3 14 30 15
3 15 30 16
3 15 16 1
3 16 31 32
3 16 32 17
3 17 32 33
3 17 33 18
3 18 33 34
3 18 34 19
3 19 34 35
3 19 35 20
3 20 35 36
3 20 36 21
3 21 36 37
3 21 37 22
3 22 37 38
3 22 38 23
3 23 38 39
3 23 39 24
3 24 39 40
3 24 40 25
3 25 40 41
3 25 41 26
3 26 41 42
3 26 42 27
3 27 42 43
3 27 43 28
3 28 43 44
3 28 44 29
3 29 44 45
3 29 45 30
3 30 45 31
3 30 31 16
3 31 46 47
3 31 47 32
3 32 47 48
3 32 48 33
3 33 48 49
3 33 49 34
3 34 49 50
3 34 50 35
3 35 50 51
3 35 51 36
3 36 51 52
3 36 52 37
3 37 52 53
3 37 53 38
3 38 53 54
3 38 54 39
3 39 54 55
3 39 55 40
3 40 55 56
3 40 56 41
3 41 56 57
3 41 57 42
3 42 57 58
3 42 58 43
3 43 58 59
3 43 59 44
3 44 59 60
3 44 60 45
3 45 60 46
3 45 46 31
3 46 61 62
3 46 62 47
3 47 62 63
3 47 63 48
3 48 63 64
3 48 64 49
3 49 64 65
3 49 65 50
3 50 65 66
3 50 66 51
3 51 66 67
3 51 67 52
3 52 67 68
3 52 68 53
3 53 68 69
3 53 69 54
3 54 69 70
3 54 70 55
3 55 70 71
3 55 71 56
3 56 71 72
3 56 72 57
3 57 72 73
3 57 73 58
3 58 73 74
3 58 74 59
3 59 74 75
3 59 75 60
3 60 75 61
3 60 61 46
3 61 76 77
3 61 77 62
3 62 77 78
3 62 78 63
3 63 78 79
3 63 79 64
3 64 79 80
3 64 80 65
3 65 80 81
3 65 81 66
3 66 81 82
3 66 82 67
3 67 82 83
3 67 83 68
3 68 83 84
3 68 84 69
3 69 84 85
3 69 85 70
3 70 85 86
3 70 86 71
3 71 86 87
3 71 87 72
3 72 87 88
3 72 88 73
3 73 88 89
3 73 89 74
3 74 89 90
3 74 90 75
3 75 90 76
3 75 76 61
3 76 91 92
3 76 92 77
3 77 92 93
3 77 93 78
3 78 93 94
3 78 94 79
3 79 94 95
3 79 95 80
3 80 95 96
3 80 96 81
3 81 96 97
3 81 97 82
3 82 97 98
3 82 98 83
3 83 98 99
3 83 99 84
3 84 99 100
3 84 100 85
3 85 100 101
3 85 101 86
3 86 101 102
3 86 102 87
3 87 102 103
3 87 103 88
3 88 103 104
3 88 104 89
3 89 104 105
3 89 105 90
3 90 105 91
3 90 91 76
3 91 106 107
3 91 107 92
3 92 107 108
3 92 108 93
3 93 108 109
3 93 109 94
3 94 109 110
3 94 110 95
3 95 110 111
3 95 111 96
3 96 111 112
3 96 112 97
3 97 112 113
3 97 113 98
3 98 113 114
3 98 114 99
3 99 114 115
3 99 115 100
3 100 115 116
3 100 116 101
3 101 116 117
3 101 117 102
3 102 117 118
3 102 118 103
3 103 118 119
3 103 119 104
3 104 119 120
3 104 120 105
3 105 120 106
3 105 106 91
CELL_TYPES 225
5
5
5
5
5
5
5
5
5
5
5
5
5
5
5
5
5
5
5
5
5
5
5
5
5
5
5
5
5
5
5
5
5
5
5
5
5
5
5
5
5
5
5
5
5
5
5
5
5
5
5
5
5
5
5
5
5
5
5
5
5
5
5
5
5
5
5
5
5
5
5
5
5
5
5
5
5
5
5
5
5
5
5
5
5
5
5
5
5
5
5
5
5
5
5
5
5
5
5
5
5
5
5
5
5
5
5
5
5
5
5
5
5
5
5
5
5
5
5
5
5
5
5
5
5
5
5
5
5
5
5
5
5
5
5
5
5
5
5
5
5
5
5
5
5
5
5
5
5
5
5
5
5
5
5
5
5
5
5
5
5
5
5
5
5
5
5
5
5
5
5
5
5
5
5
5
5
5
5
5
5
5
5
5
5
5
5
5
5
5
5
5
5
5
5
5
5
5
5
5
5
5
5
5
5
5
5
5
5
5
5
5
5
5
5
5
5
5
5
5
5
5
5
5
5
POINT_DATA 121
SCALARS psi double 1
LOOKUP_TABLE default
4.03823e-14
-0.058107
0.0320612
0.101013
0.103121
0.0369895
-0.0536193
-0.108746
-0.0919114
-0.0142553
0.072834
0.111726
0.0766849
-0.00910183
-0.0888656
-0.109824
-0.210603
0.101319
0.346194
0.361979
0.138228
-0.176993
-0.375091
-0.324977
-0.059813
0.244932
0.387595
0.273772
-0.0212165
-0.302166
-0.38316
-0.402861
0.167613
0.627171
0.671705
0.271746
-0.308038
-0.683981
-0.607308
-0.128755
0.434999
0.710898
0.516368
-0.0198628
-0.54295
-0.706746
-0.559472
0.199133
0.825964
0.906223
0.386799
-0.388585
-0.906827
-0.824986
-0.19722
0.561054
0.948057
0.707694
-0.000977451
-0.709002
-0.947853
-0.610368
0.183169
0.855495
0.961707
0.431521
-0.38422
-0.945707
-0.881383
-0.233814
0.568479
0.994588
0.762539
0.0258883
-0.727894
-1
-0.518062
0.1285
0.690028
0.794939
0.373807
-0.294687
-0.768175
-0.733332
-0.213215
0.447995
0.812749
0.639676
0.0433039
-0.581724
-0.821802
-0.294471
0.058694
0.373018
0.440502
0.216488
-0.150784
-0.418277
-0.40898
-0.129045
0.236284
0.445255
0.359583
0.0359612
-0.311457
-0.452773
0
0
0
0
0
0
0
0
0
0
0
0
0
0
0
VECTORS Et double
1.60421e-14 -8.98223e-15 0
0.229456 -0.550939 0
0.0675146 -0.576798 0
-0.16646 -0.470291 0
-0.421339 -0.329787 0
-0.573715 -0.194139 0
-0.558877 -0.0158448 0
-0.435021 0.232679 0
-0.296305 0.473602 0
-0.156043 0.585315 0
0.0408511 0.533942 0
0.298694 0.399324 0
0.517274 0.263149 0
0.586053 0.114105 0
0.503811 -0.10199 0
0.364105 -0.362328 0
0.380533 -0.748651 0
0.176204 -0.805267 0
-0.157239 -0.670423 0
-0.543643 -0.497339 0
-0.786934 -0.338492 0
-0.783655 -0.105381 0
-0.625693 0.255908 0
-0.45819 0.625169 0
-0.291611 0.808651 0
-0.0254973 0.752079 0
0.355527 0.581201 0
0.69426 0.419784 0
0.814301 0.238004 0
0.713394 -0.0626107 0
0.538246 -0.452631 0
0.411664 -0.843196 0
0.308203 -0.908117 0
-0.0309697 -0.684187 0
-0.546536 -0.47471 0
-0.897509 -0.397027 0
-0.868224 -0.250124 0
-0.619809 0.154258 0
-0.446644 0.663798 0
-0.377999 0.925806 0
-0.173901 0.813857 0
0.285335 0.561756 0
0.764241 0.426753 0
0.928582 0.34979 0
0.750614 0.0795905 0
0.512952 -0.418248 0
0.28487 -0.795089 0
0.408399 -0.84622 0
0.178426 -0.491939 0
-0.416227 -0.241573 0
-0.862343 -0.325323 0
-0.778202 -0.396158 0
-0.400506 -0.0493889 0
-0.236444 0.565014 0
-0.365328 0.892745 0
-0.354476 0.690225 0
0.0988183 0.325024 0
0.694023 0.252727 0
0.886339 0.395826 0
0.59157 0.281507 0
0.271081 -0.257375 0
0.0293806 -0.626456 0
0.434335 -0.651887 0
0.400629 -0.163208 0
-0.196442 0.131962 0
-0.701352 -0.134113 0
-0.554934 -0.488037 0
-0.043163 -0.287772 0
0.112512 0.363643 0
-0.24536 0.730452 0
-0.502613 0.432532 0
-0.142902 -0.0512151 0
0.510919 -0.056304 0
0.712837 0.349734 0
0.297407 0.473571 0
-0.111253 -0.0229038 0
-0.272027 -0.388973 0
0.368455 -0.389236 0
0.555286 0.187121 0
0.041215 0.517655 0
-0.463883 0.117433 0
-0.273933 -0.485939 0
0.327275 -0.477044 0
0.481952 0.123655 0
-0.0515937 0.489504 0
-0.560118 0.129464 0
-0.356954 -0.435806 0
0.271821 -0.397477 0
0.463656 0.218898 0
-0.0295692 0.583954 0
-0.501581 0.206791 0
-0.512753 -0.144806 0
0.226301 -0.129453 0
0.582618 0.442859 0
0.223603 0.777 0
-0.210308 0.342343 0
-0.0156539 -0.382023 0
0.583939 -0.548351 0
0.738956 -0.0852876 0
0.151608 0.230926 0
-0.498187 -0.127237 0
-0.46964 -0.693915 0
0.0423435 -0.648626 0
0.203399 0.0433936 0
-0.285309 0.566313 0
-0.760916 0.356863 0
-0.80929 0.032025 0
-0.121141 -0.0930632 0
0.467873 0.400275 0
0.366026 0.896331 0
-0.0560067 0.679522 0
-0.0171645 -0.0715004 0
0.560394 -0.509825 0
0.920974 -0.25766 0
0.512348 0.110984 0
-0.241765 -0.0974423 0
-0.502883 -0.705738 0
-0.1413 -0.89167 0
0.124635 -0.321089 0
-0.240943 0.376939 0
-0.821757 0.451911 0
