# vtk DataFile Version 3.0
tp3485 scalar+vector
ASCII
DATASET UNSTRUCTURED_GRID
POINTS 121 double
0 0 0
0.125 0 0
0.114193 0.0508421 0
0.0836413 0.0928931 0
0.0386271 0.118882 0
-0.0130661 0.124315 0
-0.0625 0.108253 0
-0.101127 0.0734732 0
-0.122268 0.025989 0
-0.122268 -0.025989 0
-0.101127 -0.0734732 0
-0.0625 -0.108253 0
-0.0130661 -0.124315 0
0.0386271 -0.118882 0
0.0836413 -0.0928931 0
0.114193 -0.0508421 0
0.25 0 0
0.228386 0.101684 0
0.167283 0.185786 0
0.0772542 0.237764 0
-0.0261321 0.24863 0
-0.125 0.216506 0
-0.202254 0.146946 0
-0.244537 0.0519779 0
-0.244537 -0.0519779 0
-0.202254 -0.146946 0
-0.125 -0.216506 0
-0.0261321 -0.24863 0
0.0772542 -0.237764 0
0.167283 -0.185786 0
0.228386 -0.101684 0
0.375 0 0
0.34258 0.152526 0
0.250924 0.278679 0
0.115881 0.356646 0
-0.0391982 0.372946 0
-0.1875 0.32476 0
-0.303381 0.220419 0
-0.366805 0.0779669 0
-0.366805 -0.0779669 0
-0.303381 -0.220419 0
-0.1875 -0.32476 0
-0.0391982 -0.372946 0
0.115881 -0.356646 0
0.250924 -0.278679 0
0.34258 -0.152526 0
0.5 0 0
0.456773 0.203368 0
0.334565 0.371572 0
0.154508 0.475528 0
-0.0522642 0.497261 0
-0.25 0.433013 0
-0.404508 0.293893 0
-0.489074 0.103956 0
-0.489074 -0.103956 0
-0.404508 -0.293893 0
-0.25 -0.433013 0
-0.0522642 -0.497261 0
0.154508 -0.475528 0
0.334565 -0.371572 0
0.456773 -0.203368 0
0.625 0 0
0.570966 0.25421 0
0.418207 0.464466 0
0.193136 0.59441 0
-0.0653303 0.621576 0
-0.3125 0.541266 0
-0.505636 0.367366 0
-0.611342 0.129945 0
-0.611342 -0.129945 0
-0.505636 -0.367366 0
-0.3125 -0.541266 0
-0.0653303 -0.621576 0
0.193136 -0.59441 0
0.418207 -0.464466 0
0.570966 -0.25421 0
0.75 0 0
0.685159 0.305052 0
0.501848 0.557359 0
0.231763 0.713292 0
-0.0783963 0.745891 0
-0.375 0.649519 0
-0.606763 0.440839 0
-0.733611 0.155934 0
-0.733611 -0.155934 0
-0.606763 -0.440839 0
-0.375 -0.649519 0
-0.0783963 -0.745891 0
0.231763 -0.713292 0
0.501848 -0.557359 0
0.685159 -0.305052 0
0.875 0 0
0.799352 0.355895 0
0.585489 0.650252 0
0.27039 0.832174 0
-0.0914624 0.870207 0
-0.4375 0.757772 0
-0.70789 0.514312 0
-0.855879 0.181923 0
-0.855879 -0.181923 0
-0.70789 -0.514312 0
-0.4375 -0.757772 0
-0.0914624 -0.870207 0
0.27039 -0.832174 0
0.585489 -0.650252 0
0.799352 -0.355895 0
1 0 0
0.913545 0.406737 0
0.669131 0.743145 0
0.309017 0.951057 0
-0.104528 0.994522 0
-0.5 0.866025 0
-0.809017 0.587785 0
-0.978148 0.207912 0
-0.978148 -0.207912 0
-0.809017 -0.587785 0
-0.5 -0.866025 0
-0.104528 -0.994522 0
0.309017 -0.951057 0
0.669131 -0.743145 0
0.913545 -0.406737 0
CELLS 225 900
3 0 1 2
3 0 2 3
3 0 3 4
3 0 4 5
3 0 5 6
3 0 6 7
3 0 7 8
3 0 8 9
3 0 9 10
3 0 10 11
3 0 11 12
3 0 12 13
3 0 13 14
3 0 14 15
3 0 15 1
3 1 16 17
3 1 17 2
3 2 17 18
3 2 18 3
3 3 18 19
3 3 19 4
3 4 19 20
3 4 20 5
3 5 20 21
3 5 21 6
3 6 21 22
3 6 22 7
3 7 22 23
3 7 23 8
3 8 23 24
3 8 24 9
3 9 24 25
3 9 25 10
3 10 25 26
3 10 26 11
3 11 26 27
3 11 27 12
3 12 27 28
3 12 28 13
3 13 28 29
3 13 29 14
3 14 29 30
3 14 30 15
3 15 30 16
3 15 16 1
3 16 31 32
3 16 32 17
3 17 32 33
3 17 33 18
3 18 33 34
3 18 34 19
3 19 34 35
3 19 35 20
3 20 35 36
3 20 36 21
3 21 36 37
3 21 37 22
3 22 37 38
3 22 38 23
3 23 38 39
3 23 39 24
3 24 39 40
3 24 40 25
3 25 40 41
3 25 41 26
3 26 41 42
3 26 42 27
3 27 42 43
3 27 43 28
3 28 43 44
3 28 44 29
3 29 44 45
3 29 45 30
3 30 45 31
3 30 31 16
3 31 46 47
3 31 47 32
3 32 47 48
3 32 48 33
3 33 48 49
3 33 49 34
3 34 49 50
3 34 50 35
3 35 50 51
3 35 51 36
3 36 51 52
3 36 52 37
3 37 52 53
3 37 53 38
3 38 53 54
3 38 54 39
3 39 54 55
3 39 55 40
3 40 55 56
3 40 56 41
3 41 56 57
3 41 57 42
3 42 57 58
3 42 58 43
3 43 58 59
3 43 59 44
3 44 59 60
3 44 60 45
3 45 60 46
3 45 46 31
3 46 61 62
3 46 62 47
3 47 62 63
3 47 63 48
3 48 63 64
3 48 64 49
3 49 64 65
3 49 65 50
3 50 65 66
3 50 66 51
3 51 66 67
3 51 67 52
3 52 67 68
3 52 68 53
3 53 68 69
3 53 69 54
3 54 69 70
3 54 70 55
3 55 70 71
3 55 71 56
3 56 71 72
3 56 72 57
3 57 72 73
3 57 73 58
3 58 73 74
3 58 74 59
3 59 74 75
3 59 75 60
3 60 75 61
3 60 61 46
3 61 76 77
3 61 77 62
3 62 77 78
3 62 78 63
3 63 78 79
3 63 79 64
3 64 79 80
3 64 80 65
3 65 80 81
3 65 81 66
3 66 81 82
3 66 82 67
3 67 82 83
3 67 83 68
3 68 83 84
3 68 84 69
3 69 84 85
3 69 85 70
3 70 85 86
3 70 86 71
3 71 86 87
3 71 87 72
3 72 87 88
3 72 88 73
3 73 88 89
3 73 89 74
3 74 89 90
3 74 90 75
3 75 90 76
3 75 76 61
3 76 91 92
3 76 92 77
3 77 92 93
3 77 93 78
3 78 93 94
3 78 94 79
3 79 94 95
3 79 95 80
3 80 95 96
3 80 96 81
3 81 96 97
3 81 97 82
3 82 97 98
3 82 98 83
3 83 98 99
3 83 99 84
3 84 99 100
3 84 100 85
3 85 100 101
3 85 101 86
3 86 101 102
3 86 102 87
3 87 102 103
3 87 103 88
3 88 103 104
3 88 104 89
3 89 104 105
3 89 105 90
3 90 105 91
3 90 91 76
3 91 106 107
3 91 107 92
3 92 107 108
3 92 108 93
3 93 108 109
3 93 109 94
3 94 109 110
3 94 110 95
3 95 110 111
3 95 111 96
3 96 111 112
3 96 112 97
3 97 112 113
3 97 113 98
3 98 113 114
3 98 114 99
3 99 114 115
3 99 115 100
3 100 115 116
3 100 116 101
3 101 116 117
3 101 117 102
3 102 117 118
3 102 118 103
3 103 118 119
3 103 119 104
3 104 119 120
3 104 120 105
3 105 120 106
3 105 106 91
CELL_TYPES 225
5
5
5
5
5
5
5
5
5
5
5
5
5
5
5
5
5
5
5
5
5
5
5
5
5
5
5
5
5
5
5
5
5
5
5
5
5
5
5
5
5
5
5
5
5
5
5
5
5
5
5
5
5
5
5
5
5
5
5
5
5
5
5
5
5
5
5
5
5
5
5
5
5
5
5
5
5
5
5
5
5
5
5
5
5
5
5
5
5
5
5
5
5
5
5
5
5
5
5
5
5
5
5
5
5
5
5
5
5
5
5
5
5
5
5
5
5
5
5
5
5
5
5
5
5
5
5
5
5
5
5
5
5
5
5
5
5
5
5
5
5
5
5
5
5
5
5
5
5
5
5
5
5
5
5
5
5
5
5
5
5
5
5
5
5
5
5
5
5
5
5
5
5
5
5
5
5
5
5
5
5
5
5
5
5
5
5
5
5
5
5
5
5
5
5
5
5
5
5
5
5
5
5
5
5
5
5
5
5
5
5
5
5
5
5
5
5
5
5
5
5
5
5
5
5
POINT_DATA 121
SCALARS psi double 1
LOOKUP_TABLE default
-1.0548e-14
0.00193937
-0.0313737
-0.0213294
0.0181914
0.0325723
0.00193937
-0.0313737
-0.0213294
0.0181914
0.0325723
0.00193937
-0.0313737
-0.0213294
0.0181914
0.0325723
0.022625
-0.179451
-0.133532
0.0969241
0.193434
0.022625
-0.179451
-0.133532
0.0969241
0.193434
0.022625
-0.179451
-0.133532
0.0969241
0.193434
0.0852076
-0.439656
-0.35693
0.219061
0.492318
0.0852076
-0.439656
-0.35693
0.219061
0.492318
0.0852076
-0.439656
-0.35693
0.219061
0.492318
0.18681
-0.702911
-0.621233
0.318968
0.818366
0.18681
-0.702911
-0.621233
0.318968
0.818366
0.18681
-0.702911
-0.621233
0.318968
0.818366
0.282935
-0.825137
-0.792897
0.335099
1
0.282935
-0.825137
-0.792897
0.335099
1
0.282935
-0.825137
-0.792897
0.335099
1
0.305454
-0.716468
-0.748256
0.254021
0.905249
0.305454
-0.716468
-0.748256
0.254021
0.905249
0.305454
-0.716468
-0.748256
0.254021
0.905249
0.206502
-0.399026
-0.453114
0.118987
0.526651
0.206502
-0.399026
-0.453114
0.118987
0.526651
0.206502
-0.399026
-0.453114
0.118987
0.526651
0
0
0
0
0
0
0
0
0
0
0
0
0
0
0
VECTORS Et double
-1.2089e-13 1.71742e-14 0
0.0169398 0.288381 0
0.191098 0.10748 0
0.28385 -0.096832 0
0.136607 -0.19725 0
-0.13518 -0.223176 0
-0.258215 -0.12952 0
-0.188629 0.111756 0
-0.058066 0.294237 0
0.10252 0.21693 0
0.260866 -0.00548139 0
0.241275 -0.158861 0
-0.00246872 -0.219236 0
-0.225784 -0.197405 0
-0.239127 -0.0196805 0
-0.125686 0.228657 0
-0.036002 0.569183 0
0.3234 0.296595 0
0.555111 -0.105349 0
0.343915 -0.358732 0
-0.165379 -0.458124 0
-0.474926 -0.31577 0
-0.418559 0.131775 0
-0.18632 0.533415 0
0.138714 0.477205 0
0.479436 0.0858393 0
0.510928 -0.253413 0
0.0951586 -0.42837 0
-0.368791 -0.428065 0
-0.482629 -0.118473 0
-0.314057 0.372284 0
-0.144408 0.845976 0
0.333441 0.489705 0
0.790472 -0.098444 0
0.611855 -0.432347 0
-0.14795 -0.611861 0
-0.660433 -0.548049 0
-0.590818 0.0439156 0
-0.309981 0.73379 0
0.068496 0.746056 0
0.603862 0.177802 0
0.804841 -0.297927 0
0.257377 -0.533621 0
-0.480491 -0.635346 0
-0.680351 -0.313708 0
-0.455912 0.434059 0
-0.229818 0.973234 0
0.144419 0.570034 0
0.815278 -0.122287 0
0.81803 -0.352853 0
-0.0858434 -0.517631 0
-0.727936 -0.685645 0
-0.565874 -0.159946 0
-0.301735 0.767194 0
-0.103435 0.884861 0
0.491203 0.184473 0
0.957754 -0.287589 0
0.421454 -0.410088 0
-0.513542 -0.644908 0
-0.714594 -0.532008 0
-0.40536 0.333158 0
-0.205055 0.881469 0
-0.186778 0.477706 0
0.566729 -0.21467 0
0.853923 -0.159585 0
-0.0165033 -0.152965 0
-0.660847 -0.618318 0
-0.320317 -0.400607 0
-0.097455 0.598136 0
-0.288756 0.819312 0
0.140723 0.0621903 0
0.865902 -0.263151 0
0.507095 -0.0770991 0
-0.469274 -0.383467 0
-0.565166 -0.659726 0
-0.12422 0.0907749 0
-0.0416079 0.599704 0
-0.502971 0.242927 0
0.128463 -0.359638 0
0.680018 0.0404706 0
0.0205449 0.338969 0
-0.498555 -0.335885 0
0.0411043 -0.557049 0
0.247224 0.291071 0
-0.375058 0.568678 0
-0.303828 -0.151692 0
0.540163 -0.263818 0
0.461866 0.314122 0
-0.375687 0.0685664 0
-0.304961 -0.609148 0
0.283283 -0.187277 0
0.196037 0.234793 0
-0.638683 -0.032528 0
-0.309114 -0.481707 0
0.349753 0.146723 0
0.00944862 0.722801 0
-0.301355 0.0523765 0
0.347512 -0.536852 0
0.571727 -0.0268476 0
-0.301942 0.229534 0
-0.630689 -0.353218 0
0.105318 -0.287169 0
0.291172 0.56938 0
-0.262613 0.508554 0
-0.0478108 -0.376256 0
0.62124 -0.369583 0
0.661631 -0.00584048 0
-0.397024 -0.0724714 0
-0.653001 -0.6285 0
0.00110899 -0.175463 0
0.0146099 0.807035 0
-0.325758 0.57591 0
0.261274 -0.307597 0
0.870798 -0.251266 0
0.151401 0.0886918 0
-0.706218 -0.390865 0
-0.335874 -0.570069 0
0.13575 0.380069 0
-0.217796 0.879766 0
-0.15251 0.086771 0
0.691608 -0.41617 0
