# vtk DataFile Version 3.0
tp3485 scalar+vector
ASCII
DATASET UNSTRUCTURED_GRID
POINTS 121 double
0 0 0
0.125 0 0
0.114193 0.0508421 0
0.0836413 0.0928931 0
0.0386271 0.118882 0
-0.0130661 0.124315 0
-0.0625 0.108253 0
-0.101127 0.0734732 0
-0.122268 0.025989 0
-0.122268 -0.025989 0
-0.101127 -0.0734732 0
-0.0625 -0.108253 0
-0.0130661 -0.124315 0
0.0386271 -0.118882 0
0.0836413 -0.0928931 0
0.114193 -0.0508421 0
0.25 0 0
0.228386 0.101684 0
0.167283 0.185786 0
0.0772542 0.237764 0
-0.0261321 0.24863 0
-0.125 0.216506 0
-0.202254 0.146946 0
-0.244537 0.0519779 0
-0.244537 -0.0519779 0
-0.202254 -0.146946 0
-0.125 -0.216506 0
-0.0261321 -0.24863 0
0.0772542 -0.237764 0
0.167283 -0.185786 0
0.228386 -0.101684 0
0.375 0 0
0.34258 0.152526 0
0.250924 0.278679 0
0.115881 0.356646 0
-0.0391982 0.372946 0
-0.1875 0.32476 0
-0.303381 0.220419 0
-0.366805 0.0779669 0
-0.366805 -0.0779669 0
-0.303381 -0.220419 0
-0.1875 -0.32476 0
-0.0391982 -0.372946 0
0.115881 -0.356646 0
0.250924 -0.278679 0
0.34258 -0.152526 0
0.5 0 0
0.456773 0.203368 0
0.334565 0.371572 0
0.154508 0.475528 0
-0.0522642 0.497261 0
-0.25 0.433013 0
-0.404508 0.293893 0
-0.489074 0.103956 0
-0.489074 -0.103956 0
-0.404508 -0.293893 0
-0.25 -0.433013 0
-0.0522642 -0.497261 0
0.154508 -0.475528 0
0.334565 -0.371572 0
0.456773 -0.203368 0
0.625 0 0
0.570966 0.25421 0
0.418207 0.464466 0
0.193136 0.59441 0
-0.0653303 0.621576 0
-0.3125 0.541266 0
-0.505636 0.367366 0
-0.611342 0.129945 0
-0.611342 -0.129945 0
-0.505636 -0.367366 0
-0.3125 -0.541266 0
-0.0653303 -0.621576 0
0.193136 -0.59441 0
0.418207 -0.464466 0
0.570966 -0.25421 0
0.75 0 0
0.685159 0.305052 0
0.501848 0.557359 0
0.231763 0.713292 0
-0.0783963 0.745891 0
-0.375 0.649519 0
-0.606763 0.440839 0
-0.733611 0.155934 0
-0.733611 -0.155934 0
-0.606763 -0.440839 0
-0.375 -0.649519 0
-0.0783963 -0.745891 0
0.231763 -0.713292 0
0.501848 -0.557359 0
0.685159 -0.305052 0
0.875 0 0
0.799352 0.355895 0
0.585489 0.650252 0
0.27039 0.832174 0
-0.0914624 0.870207 0
-0.4375 0.757772 0
-0.70789 0.514312 0
-0.855879 0.181923 0
-0.855879 -0.181923 0
-0.70789 -0.514312 0
-0.4375 -0.757772 0
-0.0914624 -0.870207 0
0.27039 -0.832174 0
0.585489 -0.650252 0
0.799352 -0.355895 0
1 0 0
0.913545 0.406737 0
0.669131 0.743145 0
0.309017 0.951057 0
-0.104528 0.994522 0
-0.5 0.866025 0
-0.809017 0.587785 0
-0.978148 0.207912 0
-0.978148 -0.207912 0
-0.809017 -0.587785 0
-0.5 -0.866025 0
-0.104528 -0.994522 0
0.309017 -0.951057 0
0.669131 -0.743145 0
0.913545 -0.406737 0
CELLS 225 900
3 0 1 2
3 0 2 3
3 0 3 4
3 0 4 5
3 0 5 6
3 0 6 7
3 0 7 8
3 0 8 9
3 0 9 10
3 0 10 11
3 0 11 12
3 0 12 13
3 0 13 14
3 0 14 15
3 0 15 1
3 1 16 17
3 1 17 2
3 2 17 18
3 2 18 3
3 3 18 19
3 3 19 4
3 4 19 20
3 4 20 5
3 5 20 21
3 5 21 6
3 6 21 22
3 6 22 7
3 7 22 23
3 7 23 8
3 8 23 24
3 8 24 9
3 9 24 25
3 9 25 10
3 10 25 26
3 10 26 11
3 11 26 27
3 11 27 12
3 12 27 28
3 12 28 13
3 13 28 29
3 13 29 14
3 14 29 30
3 14 30 15
3 15 30 16
3 15 16 1
3 16 31 32
3 16 32 17
3 17 32 33
3 17 33 18
3 18 33 34
3 18 34 19
3 19 34 35
3 19 35 20
3 20 35 36
3 20 36 21
3 21 36 37
3 21 37 22
3 22 37 38
3 22 38 23
3 23 38 39
3 23 39 24
3 24 39 40
3 24 40 25
3 25 40 41
3 25 41 26
3 26 41 42
3 26 42 27
3 27 42 43
3 27 43 28
3 28 43 44
3 28 44 29
3 29 44 45
3 29 45 30
3 30 45 31
3 30 31 16
3 31 46 47
3 31 47 32
3 32 47 48
3 32 48 33
3 33 48 49
3 33 49 34
3 34 49 50
3 34 50 35
3 35 50 51
3 35 51 36
3 36 51 52
3 36 52 37
3 37 52 53
3 37 53 38
3 38 53 54
3 38 54 39
3 39 54 55
3 39 55 40
3 40 55 56
3 40 56 41
3 41 56 57
3 41 57 42
3 42 57 58
3 42 58 43
3 43 58 59
3 43 59 44
3 44 59 60
3 44 60 45
3 45 60 46
3 45 46 31
3 46 61 62
3 46 62 47
3 47 62 63
3 47 63 48
3 48 63 64
3 48 64 49
3 49 64 65
3 49 65 50
3 50 65 66
3 50 66 51
3 51 66 67
3 51 67 52
3 52 67 68
3 52 68 53
3 53 68 69
3 53 69 54
3 54 69 70
3 54 70 55
3 55 70 71
3 55 71 56
3 56 71 72
3 56 72 57
3 57 72 73
3 57 73 58
3 58 73 74
3 58 74 59
3 59 74 75
3 59 75 60
3 60 75 61
3 60 61 46
3 61 76 77
3 61 77 62
3 62 77 78
3 62 78 63
3 63 78 79
3 63 79 64
3 64 79 80
3 64 80 65
3 65 80 81
3 65 81 66
3 66 81 82
3 66 82 67
3 67 82 83
3 67 83 68
3 68 83 84
3 68 84 69
3 69 84 85
3 69 85 70
3 70 85 86
3 70 86 71
3 71 86 87
3 71 87 72
3 72 87 88
3 72 88 73
3 73 88 89
3 73 89 74
3 74 89 90
3 74 90 75
3 75 90 76
3 75 76 61
3 76 91 92
3 76 92 77
3 77 92 93
3 77 93 78
3 78 93 94
3 78 94 79
3 79 94 95
3 79 95 80
3 80 95 96
3 80 96 81
3 81 96 97
3 81 97 82
3 82 97 98
3 82 98 83
3 83 98 99
3 83 99 84
3 84 99 100
3 84 100 85
3 85 100 101
3 85 101 86
3 86 101 102
3 86 102 87
3 87 102 103
3 87 103 88
3 88 103 104
3 88 104 89
3 89 104 105
3 89 105 90
3 90 105 91
3 90 91 76
3 91 106 107
3 91 107 92
3 92 107 108
3 92 108 93
3 93 108 109
3 93 109 94
3 94 109 110
3 94 110 95
3 95 110 111
3 95 111 96
3 96 111 112
3 96 112 97
3 97 112 113
3 97 113 98
3 98 113 114
3 98 114 99
3 99 114 115
3 99 115 100
3 100 115 116
3 100 116 101
3 101 116 117
3 101 117 102
3 102 117 118
3 102 118 103
3 103 118 119
3 103 119 104
3 104 119 120
3 104 120 105
3 105 120 106
3 105 106 91
CELL_TYPES 225
5
5
5
5
5
5
5
5
5
5
5
5
5
5
5
5
5
5
5
5
5
5
5
5
5
5
5
5
5
5
5
5
5
5
5
5
5
5
5
5
5
5
5
5
5
5
5
5
5
5
5
5
5
5
5
5
5
5
5
5
5
5
5
5
5
5
5
5
5
5
5
5
5
5
5
5
5
5
5
5
5
5
5
5
5
5
5
5
5
5
5
5
5
5
5
5
5
5
5
5
5
5
5
5
5
5
5
5
5
5
5
5
5
5
5
5
5
5
5
5
5
5
5
5
5
5
5
5
5
5
5
5
5
5
5
5
5
5
5
5
5
5
5
5
5
5
5
5
5
5
5
5
5
5
5
5
5
5
5
5
5
5
5
5
5
5
5
5
5
5
5
5
5
5
5
5
5
5
5
5
5
5
5
5
5
5
5
5
5
5
5
5
5
5
5
5
5
5
5
5
5
5
5
5
5
5
5
5
5
5
5
5
5
5
5
5
5
5
5
5
5
5
5
5
5
POINT_DATA 121
SCALARS psi double 1
LOOKUP_TABLE default
-2.48924e-14
0.095197
0.106761
0.0476772
-0.0429565
-0.105164
-0.0977808
-0.0256919
0.0633983
0.110535
0.0845269
0.00258375
-0.0810692
-0.111075
-0.0675788
0.0206374
0.325059
0.37358
0.174889
-0.139533
-0.361621
-0.34441
-0.0992894
0.211535
0.382378
0.300187
0.0193506
-0.274291
-0.386423
-0.242845
0.0614339
0.586648
0.691096
0.338219
-0.238471
-0.657355
-0.641242
-0.200794
0.372527
0.699332
0.563362
0.054594
-0.490301
-0.710745
-0.460862
0.0939922
0.769566
0.929553
0.474419
-0.294656
-0.868746
-0.867953
-0.292802
0.476108
0.929959
0.76842
0.0983878
-0.636751
-0.950527
-0.635302
0.100327
0.793843
0.983515
0.522358
-0.284464
-0.903045
-0.924046
-0.33357
0.477642
0.97278
0.824191
0.130203
-0.649945
-1
-0.688316
0.0788535
0.637602
0.810564
0.447145
-0.212167
-0.73108
-0.766209
-0.294307
0.372349
0.792607
0.688367
0.128607
-0.516257
-0.819494
-0.58044
0.0427134
0.343167
0.447849
0.256173
-0.105023
-0.396721
-0.425893
-0.173235
0.194059
0.432937
0.385324
0.0827269
-0.274614
-0.450232
-0.327914
0.0113972
0
0
0
0
0
0
0
0
0
0
0
0
0
0
0
VECTORS Et double
6.4098e-15 1.24021e-14 0
-0.439544 -0.25008 0
-0.523109 0.0323488 0
-0.548874 0.248791 0
-0.432387 0.372499 0
-0.179223 0.461466 0
0.0958482 0.538693 0
0.286819 0.535164 0
0.395545 0.378708 0
0.483225 0.107055 0
0.549265 -0.153442 0
0.511249 -0.319357 0
0.317306 -0.417662 0
0.0358472 -0.504142 0
-0.204462 -0.553167 0
-0.347505 -0.476877 0
-0.56708 -0.412493 0
-0.719284 -0.0130312 0
-0.799369 0.289982 0
-0.66351 0.462661 0
-0.312637 0.604481 0
0.0765493 0.752345 0
0.342482 0.789313 0
0.496946 0.591101 0
0.643209 0.210488 0
0.778542 -0.157381 0
0.763514 -0.387473 0
0.50645 -0.531376 0
0.109566 -0.6821 0
-0.228539 -0.795077 0
-0.426839 -0.721439 0
-0.489093 -0.526107 0
-0.690431 -0.00644996 0
-0.904291 0.3318 0
-0.828963 0.430829 0
-0.396303 0.525496 0
0.10431 0.754495 0
0.372537 0.92208 0
0.444445 0.747707 0
0.572334 0.262198 0
0.815257 -0.198515 0
0.916643 -0.399708 0
0.645183 -0.462742 0
0.130262 -0.628287 0
-0.274354 -0.867045 0
-0.417535 -0.885751 0
-0.217728 -0.548184 0
-0.417865 0.0595784 0
-0.804988 0.373996 0
-0.86384 0.289732 0
-0.397229 0.23198 0
0.181425 0.51548 0
0.379411 0.868934 0
0.252554 0.789098 0
0.27111 0.238805 0
0.618885 -0.27617 0
0.903009 -0.362029 0
0.681695 -0.226205 0
0.0832719 -0.334311 0
-0.340469 -0.718628 0
-0.329243 -0.902076 0
0.150766 -0.475282 0
0.0120949 0.167152 0
-0.530283 0.416922 0
-0.759118 0.100235 0
-0.317967 -0.175558 0
0.289263 0.109358 0
0.376413 0.644916 0
-0.00313804 0.7052 0
-0.160294 0.14918 0
0.248994 -0.374408 0
0.726328 -0.302904 0
0.60801 0.0905253 0
-0.017055 0.10454 0
-0.417318 -0.39389 0
-0.206696 -0.765986 0
0.485109 -0.3301 0
0.453521 0.276733 0
-0.166087 0.445558 0
-0.54339 -0.0678847 0
-0.185129 -0.553481 0
0.388089 -0.328193 0
0.365665 0.317937 0
-0.229589 0.518933 0
-0.571557 0.0249757 0
-0.173091 -0.457192 0
0.438251 -0.245125 0
0.445276 0.373421 0
-0.134293 0.53724 0
-0.477054 0.00293894 0
-0.0957214 -0.515761 0
0.669397 -0.152697 0
0.755254 0.342279 0
0.175647 0.434272 0
-0.272645 -0.16376 0
-0.0389915 -0.769728 0
0.432047 -0.650073 0
0.336123 -0.0155586 0
-0.352794 0.277848 0
-0.819024 -0.0917241 0
-0.508834 -0.481688 0
0.119981 -0.195834 0
0.235793 0.526338 0
-0.224041 0.813703 0
-0.48345 0.345436 0
-0.0244627 -0.218813 0
0.529129 -0.0769778 0
0.903813 0.319955 0
0.519548 0.541416 0
-0.0265203 0.0589604 0
-0.00981053 -0.69073 0
0.425546 -0.869545 0
0.486819 -0.36196 0
-0.138755 0.0880629 0
-0.812305 -0.0874428 0
-0.787208 -0.504869 0
-0.209046 -0.383556 0
0.10476 0.340124 0
-0.202219 0.884846 0
-0.546202 0.666268 0
-0.237549 0.0754467 0
