# vtk DataFile Version 3.0
tp3485 scalar+vector
ASCII
DATASET UNSTRUCTURED_GRID
POINTS 121 double
0 0 0
0.125 0 0
0.114193 0.0508421 0
0.0836413 0.0928931 0
0.0386271 0.118882 0
-0.0130661 0.124315 0
-0.0625 0.108253 0
-0.101127 0.0734732 0
-0.122268 0.025989 0
-0.122268 -0.025989 0
-0.101127 -0.0734732 0
-0.0625 -0.108253 0
-0.0130661 -0.124315 0
0.0386271 -0.118882 0
0.0836413 -0.0928931 0
0.114193 -0.0508421 0
0.25 0 0
0.228386 0.101684 0
0.167283 0.185786 0
0.0772542 0.237764 0
-0.0261321 0.24863 0
-0.125 0.216506 0
-0.202254 0.146946 0
-0.244537 0.0519779 0
-0.244537 -0.0519779 0
-0.202254 -0.146946 0
-0.125 -0.216506 0
-0.0261321 -0.24863 0
0.0772542 -0.237764 0
0.167283 -0.185786 0
0.228386 -0.101684 0
0.375 0 0
0.34258 0.152526 0
0.250924 0.278679 0
0.115881 0.356646 0
-0.0391982 0.372946 0
-0.1875 0.32476 0
-0.303381 0.220419 0
-0.366805 0.0779669 0
-0.366805 -0.0779669 0
-0.303381 -0.220419 0
-0.1875 -0.32476 0
-0.0391982 -0.372946 0
0.115881 -0.356646 0
0.250924 -0.278679 0
0.34258 -0.152526 0
0.5 0 0
0.456773 0.203368 0
0.334565 0.371572 0
0.154508 0.475528 0
-0.0522642 0.497261 0
-0.25 0.433013 0
-0.404508 0.293893 0
-0.489074 0.103956 0
-0.489074 -0.103956 0
-0.404508 -0.293893 0
-0.25 -0.433013 0
-0.0522642 -0.497261 0
0.154508 -0.475528 0
0.334565 -0.371572 0
0.456773 -0.203368 0
0.625 0 0
0.570966 0.25421 0
0.418207 0.464466 0
0.193136 0.59441 0
-0.0653303 0.621576 0
-0.3125 0.541266 0
-0.505636 0.367366 0
-0.611342 0.129945 0
-0.611342 -0.129945 0
-0.505636 -0.367366 0
-0.3125 -0.541266 0
-0.0653303 -0.621576 0
0.193136 -0.59441 0
0.418207 -0.464466 0
0.570966 -0.25421 0
0.75 0 0
0.685159 0.305052 0
0.501848 0.557359 0
0.231763 0.713292 0
-0.0783963 0.745891 0
-0.375 0.649519 0
-0.606763 0.440839 0
-0.733611 0.155934 0
-0.733611 -0.155934 0
-0.606763 -0.440839 0
-0.375 -0.649519 0
-0.0783963 -0.745891 0
0.231763 -0.713292 0
0.501848 -0.557359 0
0.685159 -0.305052 0
0.875 0 0
0.799352 0.355895 0
0.585489 0.650252 0
0.27039 0.832174 0
-0.0914624 0.870207 0
-0.4375 0.757772 0
-0.70789 0.514312 0
-0.855879 0.181923 0
-0.855879 -0.181923 0
-0.70789 -0.514312 0
-0.4375 -0.757772 0
-0.0914624 -0.870207 0
0.27039 -0.832174 0
0.585489 -0.650252 0
0.799352 -0.355895 0
1 0 0
0.913545 0.406737 0
0.669131 0.743145 0
0.309017 0.951057 0
-0.104528 0.994522 0
-0.5 0.866025 0
-0.809017 0.587785 0
-0.978148 0.207912 0
-0.978148 -0.207912 0
-0.809017 -0.587785 0
-0.5 -0.866025 0
-0.104528 -0.994522 0
0.309017 -0.951057 0
0.669131 -0.743145 0
0.913545 -0.406737 0
CELLS 225 900
3 0 1 2
3 0 2 3
3 0 3 4
3 0 4 5
3 0 5 6
3 0 6 7
3 0 7 8
3 0 8 9
3 0 9 10
3 0 10 11
3 0 11 12
3 0 12 13
3 0 13 14
3 0 14 15
3 0 15 1
3 1 16 17
3 1 17 2
3 2 17 18
3 2 18 3
3 3 18 19
3 3 19 4
3 4 19 20
3 4 20 5
3 5 20 21
3 5 21 6
3 6 21 22
3 6 22 7
3 7 22 23
3 7 23 8
3 8 23 24
3 8 24 9
3 9 24 25
3 9 25 10
3 10 25 26
3 10 26 11
3 11 26 27
3 11 27 12
3 12 27 28
3 12 28 13
3 13 28 29
3 13 29 14
3 14 29 30
3 14 30 15
3 15 30 16
3 15 16 1
3 16 31 32
3 16 32 17
3 17 32 33
3 17 33 18
3 18 33 34
3 18 34 19
3 19 34 35
3 19 35 20
3 20 35 36
3 20 36 21
3 21 36 37
3 21 37 22
3 22 37 38
3 22 38 23
3 23 38 39
3 23 39 24
3 24 39 40
3 24 40 25
3 25 40 41
3 25 41 26
3 26 41 42
3 26 42 27
3 27 42 43
3 27 43 28
3 28 43 44
3 28 44 29
3 29 44 45
3 29 45 30
3 30 45 31
3 30 31 16
3 31 46 47
3 31 47 32
3 32 47 48
3 32 48 33
3 33 48 49
3 33 49 34
3 34 49 50
3 34 50 35
3 35 50 51
3 35 51 36
3 36 51 52
3 36 52 37
3 37 52 53
3 37 53 38
3 38 53 54
3 38 54 39
3 39 54 55
3 39 55 40
3 40 55 56
3 40 56 41
3 41 56 57
3 41 57 42
3 42 57 58
3 42 58 43
3 43 58 59
3 43 59 44
3 44 59 60
3 44 60 45
3 45 60 46
3 45 46 31
3 46 61 62
3 46 62 47
3 47 62 63
3 47 63 48
3 48 63 64
3 48 64 49
3 49 64 65
3 49 65 50
3 50 65 66
3 50 66 51
3 51 66 67
3 51 67 52
3 52 67 68
3 52 68 53
3 53 68 69
3 53 69 54
3 54 69 70
3 54 70 55
3 55 70 71
3 55 71 56
3 56 71 72
3 56 72 57
3 57 72 73
3 57 73 58
3 58 73 74
3 58 74 59
3 59 74 75
3 59 75 60
3 60 75 61
3 60 61 46
3 61 76 77
3 61 77 62
3 62 77 78
3 62 78 63
3 63 78 79
3 63 79 64
3 64 79 80
3 64 80 65
3 65 80 81
3 65 81 66
3 66 81 82
3 66 82 67
3 67 82 83
3 67 83 68
3 68 83 84
3 68 84 69
3 69 84 85
3 69 85 70
3 70 85 86
3 70 86 71
3 71 86 87
3 71 87 72
3 72 87 88
3 72 88 73
3 73 88 89
3 73 89 74
3 74 89 90
3 74 90 75
3 75 90 76
3 75 76 61
3 76 91 92
3 76 92 77
3 77 92 93
3 77 93 78
3 78 93 94
3 78 94 79
3 79 94 95
3 79 95 80
3 80 95 96
3 80 96 81
3 81 96 97
3 81 97 82
3 82 97 98
3 82 98 83
3 83 98 99
3 83 99 84
3 84 99 100
3 84 100 85
3 85 100 101
3 85 101 86
3 86 101 102
3 86 102 87
3 87 102 103
3 87 103 88
3 88 103 104
3 88 104 89
3 89 104 105
3 89 105 90
3 90 105 91
3 90 91 76
3 91 106 107
3 91 107 92
3 92 107 108
3 92 108 93
3 93 108 109
3 93 109 94
3 94 109 110
3 94 110 95
3 95 110 111
3 95 111 96
3 96 111 112
3 96 112 97
3 97 112 113
3 97 113 98
3 98 113 114
3 98 114 99
3 99 114 115
3 99 115 100
3 100 115 116
3 100 116 101
3 101 116 117
3 101 117 102
3 102 117 118
3 102 118 103
3 103 118 119
3 103 119 104
3 104 119 120
3 104 120 105
3 105 120 106
3 105 106 91
CELL_TYPES 225
5
5
5
5
5
5
5
5
5
5
5
5
5
5
5
5
5
5
5
5
5
5
5
5
5
5
5
5
5
5
5
5
5
5
5
5
5
5
5
5
5
5
5
5
5
5
5
5
5
5
5
5
5
5
5
5
5
5
5
5
5
5
5
5
5
5
5
5
5
5
5
5
5
5
5
5
5
5
5
5
5
5
5
5
5
5
5
5
5
5
5
5
5
5
5
5
5
5
5
5
5
5
5
5
5
5
5
5
5
5
5
5
5
5
5
5
5
5
5
5
5
5
5
5
5
5
5
5
5
5
5
5
5
5
5
5
5
5
5
5
5
5
5
5
5
5
5
5
5
5
5
5
5
5
5
5
5
5
5
5
5
5
5
5
5
5
5
5
5
5
5
5
5
5
5
5
5
5
5
5
5
5
5
5
5
5
5
5
5
5
5
5
5
5
5
5
5
5
5
5
5
5
5
5
5
5
5
5
5
5
5
5
5
5
5
5
5
5
5
5
5
5
5
5
5
POINT_DATA 121
SCALARS psi double 1
LOOKUP_TABLE default
-3.16133e-13
0.073502
0.141677
0.185354
0.196982
0.17455
0.121937
0.0482397
-0.0337987
-0.109993
-0.167169
-0.195439
-0.189916
-0.151556
-0.0869893
-0.00738183
0.140458
0.274924
0.361853
0.386214
0.343796
0.241932
0.098236
-0.0624461
-0.212331
-0.325501
-0.38239
-0.37316
-0.299407
-0.173884
-0.0182947
0.203004
0.397351
0.522992
0.558203
0.496895
0.34967
0.141984
-0.0902527
-0.306884
-0.470452
-0.552674
-0.539335
-0.432739
-0.251319
-0.0264434
0.257683
0.504518
0.664117
0.708884
0.631078
0.444154
0.180431
-0.11449
-0.389615
-0.597371
-0.701837
-0.684949
-0.549627
-0.319269
-0.0337071
0.302386
0.592334
0.779862
0.832545
0.741274
0.521829
0.212156
-0.134202
-0.457354
-0.701426
-0.824215
-0.80449
-0.645661
-0.375191
-0.0398477
0.336146
0.658383
0.866779
0.925301
0.823831
0.579912
0.235722
-0.149227
-0.508373
-0.779617
-0.916058
-0.894104
-0.717552
-0.416928
-0.0442134
0.357281
0.699332
0.920462
0.982436
0.874537
0.615424
0.249898
-0.158838
-0.540109
-0.82799
-0.972705
-0.949229
-0.761624
-0.442327
-0.0465473
0.362302
0.710767
0.936334
1
0.890757
0.627494
0.255732
-0.160249
-0.548521
-0.841949
-0.989796
-0.966499
-0.776085
-0.451479
-0.0488079
VECTORS Et double
-0.929428 0.369004 0
-0.916802 0.339874 0
-0.902841 0.330104 0
-0.886239 0.333941 0
-0.877982 0.348846 0
-0.883533 0.364956 0
-0.89922 0.37161 0
-0.914662 0.364405 0
-0.919639 0.348109 0
-0.91086 0.333505 0
-0.894132 0.330258 0
-0.880526 0.340516 0
-0.879045 0.357491 0
-0.890669 0.36995 0
-0.907707 0.369649 0
-0.918882 0.356786 0
-0.872194 0.292852 0
-0.835322 0.257145 0
-0.784115 0.260654 0
-0.752458 0.301057 0
-0.7613 0.351617 0
-0.80479 0.378877 0
-0.854149 0.364798 0
-0.876714 0.318697 0
-0.857553 0.27108 0
-0.809346 0.253458 0
-0.763993 0.277491 0
-0.751505 0.327276 0
-0.780148 0.369869 0
-0.830966 0.377084 0
-0.870331 0.344146 0
-0.811057 0.234763 0
-0.746718 0.171319 0
-0.656518 0.176679 0
-0.600147 0.247297 0
-0.614906 0.336442 0
-0.69103 0.385124 0
-0.778143 0.361127 0
-0.818601 0.280332 0
-0.78563 0.196203 0
-0.701049 0.164413 0
-0.620827 0.205997 0
-0.598052 0.293439 0
-0.647794 0.368873 0
-0.737137 0.382384 0
-0.806959 0.325029 0
-0.754008 0.185924 0
-0.668599 0.101653 0
-0.548823 0.108737 0
-0.473942 0.202485 0
-0.493506 0.320865 0
-0.59457 0.385536 0
-0.710255 0.353705 0
-0.764009 0.246435 0
-0.72026 0.134711 0
-0.607959 0.0924646 0
-0.501419 0.147653 0
-0.471143 0.263755 0
-0.537165 0.363941 0
-0.655796 0.381916 0
-0.748532 0.305783 0
-0.712465 0.149311 0
-0.610683 0.0486285 0
-0.467757 0.056898 0
-0.378264 0.168649 0
-0.40143 0.309929 0
-0.521922 0.387248 0
-0.660006 0.349443 0
-0.724306 0.221528 0
-0.672274 0.0881525 0
-0.538342 0.0375728 0
-0.411133 0.103263 0
-0.374832 0.24175 0
-0.453458 0.361393 0
-0.594982 0.383022 0
-0.70575 0.292319 0
-0.680873 0.119259 0
-0.564992 0.00461226 0
-0.402256 0.014016 0
-0.300352 0.141237 0
-0.326713 0.302102 0
-0.463894 0.390152 0
-0.621121 0.347122 0
-0.694346 0.201487 0
-0.635118 0.0496209 0
-0.482629 -0.00798195 0
-0.337782 0.0667996 0
-0.296437 0.224473 0
-0.385947 0.360706 0
-0.54708 0.385344 0
-0.67321 0.282086 0
-0.655861 0.0947589 0
-0.528953 -0.0299566 0
-0.351359 -0.019103 0
-0.2406 0.120144 0
-0.269959 0.295625 0
-0.420013 0.391232 0
-0.591474 0.343689 0
-0.67087 0.184462 0
-0.605663 0.018915 0
-0.439009 -0.0434058 0
-0.281182 0.0387557 0
-0.236629 0.211006 0
-0.334827 0.359376 0
-0.510797 0.385679 0
-0.648094 0.272515 0
-0.636362 0.0712352 0
-0.497897 -0.0636372 0
-0.304993 -0.0509803 0
-0.185349 0.100828 0
-0.218099 0.29135 0
-0.381587 0.394476 0
-0.56763 0.341996 0
-0.653107 0.168617 0
-0.581456 -0.0109168 0
-0.40008 -0.0777996 0
-0.229048 0.0121985 0
-0.181473 0.199581 0
-0.288884 0.360272 0
-0.480179 0.388004 0
-0.628793 0.264388 0
