# vtk DataFile Version 3.0
tp3485 scalar+vector
ASCII
DATASET UNSTRUCTURED_GRID
POINTS 121 double
0 0 0
0.125 0 0
0.114193 0.0508421 0
0.0836413 0.0928931 0
0.0386271 0.118882 0
-0.0130661 0.124315 0
-0.0625 0.108253 0
-0.101127 0.0734732 0
-0.122268 0.025989 0
-0.122268 -0.025989 0
-0.101127 -0.0734732 0
-0.0625 -0.108253 0
-0.0130661 -0.124315 0
0.0386271 -0.118882 0
0.0836413 -0.0928931 0
0.114193 -0.0508421 0
0.25 0 0
0.228386 0.101684 0
0.167283 0.185786 0
0.0772542 0.237764 0
-0.0261321 0.24863 0
-0.125 0.216506 0
-0.202254 0.146946 0
-0.244537 0.0519779 0
-0.244537 -0.0519779 0
-0.202254 -0.146946 0
-0.125 -0.216506 0
-0.0261321 -0.24863 0
0.0772542 -0.237764 0
0.167283 -0.185786 0
0.228386 -0.101684 0
0.375 0 0
0.34258 0.152526 0
0.250924 0.278679 0
0.115881 0.356646 0
-0.0391982 0.372946 0
-0.1875 0.32476 0
-0.303381 0.220419 0
-0.366805 0.0779669 0
-0.366805 -0.0779669 0
-0.303381 -0.220419 0
-0.1875 -0.32476 0
-0.0391982 -0.372946 0
0.115881 -0.356646 0
0.250924 -0.278679 0
0.34258 -0.152526 0
0.5 0 0
0.456773 0.203368 0
0.334565 0.371572 0
0.154508 0.475528 0
-0.0522642 0.497261 0
-0.25 0.433013 0
-0.404508 0.293893 0
-0.489074 0.103956 0
-0.489074 -0.103956 0
-0.404508 -0.293893 0
-0.25 -0.433013 0
-0.0522642 -0.497261 0
0.154508 -0.475528 0
0.334565 -0.371572 0
0.456773 -0.203368 0
0.625 0 0
0.570966 0.25421 0
0.418207 0.464466 0
0.193136 0.59441 0
-0.0653303 0.621576 0
-0.3125 0.541266 0
-0.505636 0.367366 0
-0.611342 0.129945 0
-0.611342 -0.129945 0
-0.505636 -0.367366 0
-0.3125 -0.541266 0
-0.0653303 -0.621576 0
0.193136 -0.59441 0
0.418207 -0.464466 0
0.570966 -0.25421 0
0.75 0 0
0.685159 0.305052 0
0.501848 0.557359 0
0.231763 0.713292 0
-0.0783963 0.745891 0
-0.375 0.649519 0
-0.606763 0.440839 0
-0.733611 0.155934 0
-0.733611 -0.155934 0
-0.606763 -0.440839 0
-0.375 -0.649519 0
-0.0783963 -0.745891 0
0.231763 -0.713292 0
0.501848 -0.557359 0
0.685159 -0.305052 0
0.875 0 0
0.799352 0.355895 0
0.585489 0.650252 0
0.27039 0.832174 0
-0.0914624 0.870207 0
-0.4375 0.757772 0
-0.70789 0.514312 0
-0.855879 0.181923 0
-0.855879 -0.181923 0
-0.70789 -0.514312 0
-0.4375 -0.757772 0
-0.0914624 -0.870207 0
0.27039 -0.832174 0
0.585489 -0.650252 0
0.799352 -0.355895 0
1 0 0
0.913545 0.406737 0
0.669131 0.743145 0
0.309017 0.951057 0
-0.104528 0.994522 0
-0.5 0.866025 0
-0.809017 0.587785 0
-0.978148 0.207912 0
-0.978148 -0.207912 0
-0.809017 -0.587785 0
-0.5 -0.866025 0
-0.104528 -0.994522 0
0.309017 -0.951057 0
0.669131 -0.743145 0
0.913545 -0.406737 0
CELLS 225 900
3 0 1 2
3 0 2 3
3 0 3 4
3 0 4 5
3 0 5 6
3 0 6 7
3 0 7 8
3 0 8 9
3 0 9 10
3 0 10 11
3 0 11 12
3 0 12 13
3 0 13 14
3 0 14 15
3 0 15 1
3 1 16 17
3 1 17 2
3 2 17 18
3 2 18 3
3 3 18 19
3 3 19 4
3 4 19 20
3 4 20 5
3 5 20 21
3 5 21 6
3 6 21 22
3 6 22 7
3 7 22 23
3 7 23 8
3 8 23 24
3 8 24 9
3 9 24 25
3 9 25 10
3 10 25 26
3 10 26 11
3 11 26 27
3 11 27 12
3 12 27 28
3 12 28 13
3 13 28 29
3 13 29 14
3 14 29 30
3 14 30 15
3 15 30 16
3 15 16 1
3 16 31 32
3 16 32 17
3 17 32 33
3 17 33 18
3 18 33 34
3 18 34 19
3 19 34 35
3 19 35 20
3 20 35 36
3 20 36 21
3 21 36 37
3 21 37 22
3 22 37 38
3 22 38 23
3 23 38 39
3 23 39 24
3 24 39 40
3 24 40 25
3 25 40 41
3 25 41 26
3 26 41 42
3 26 42 27
3 27 42 43
3 27 43 28
3 28 43 44
3 28 44 29
3 29 44 45
3 29 45 30
3 30 45 31
3 30 31 16
3 31 46 47
3 31 47 32
3 32 47 48
3 32 48 33
3 33 48 49
3 33 49 34
3 34 49 50
3 34 50 35
3 35 50 51
3 35 51 36
3 36 51 52
3 36 52 37
3 37 52 53
3 37 53 38
3 38 53 54
3 38 54 39
3 39 54 55
3 39 55 40
3 40 55 56
3 40 56 41
3 41 56 57
3 41 57 42
3 42 57 58
3 42 58 43
3 43 58 59
3 43 59 44
3 44 59 60
3 44 60 45
3 45 60 46
3 45 46 31
3 46 61 62
3 46 62 47
3 47 62 63
3 47 63 48
3 48 63 64
3 48 64 49
3 49 64 65
3 49 65 50
3 50 65 66
3 50 66 51
3 51 66 67
3 51 67 52
3 52 67 68
3 52 68 53
3 53 68 69
3 53 69 54
3 54 69 70
3 54 70 55
3 55 70 71
3 55 71 56
3 56 71 72
3 56 72 57
3 57 72 73
3 57 73 58
3 58 73 74
3 58 74 59
3 59 74 75
3 59 75 60
3 60 75 61
3 60 61 46
3 61 76 77
3 61 77 62
3 62 77 78
3 62 78 63
3 63 78 79
3 63 79 64
3 64 79 80
3 64 80 65
3 65 80 81
3 65 81 66
3 66 81 82
3 66 82 67
3 67 82 83
3 67 83 68
3 68 83 84
3 68 84 69
3 69 84 85
3 69 85 70
3 70 85 86
3 70 86 71
3 71 86 87
3 71 87 72
3 72 87 88
3 72 88 73
3 73 88 89
3 73 89 74
3 74 89 90
3 74 90 75
3 75 90 76
3 75 76 61
3 76 91 92
3 76 92 77
3 77 92 93
3 77 93 78
3 78 93 94
3 78 94 79
3 79 94 95
3 79 95 80
3 80 95 96
3 80 96 81
3 81 96 97
3 81 97 82
3 82 97 98
3 82 98 83
3 83 98 99
3 83 99 84
3 84 99 100
3 84 100 85
3 85 100 101
3 85 101 86
3 86 101 102
3 86 102 87
3 87 102 103
3 87 103 88
3 88 103 104
3 88 104 89
3 89 104 105
3 89 105 90
3 90 105 91
3 90 91 76
3 91 106 107
3 91 107 92
3 92 107 108
3 92 108 93
3 93 108 109
3 93 109 94
3 94 109 110
3 94 110 95
3 95 110 111
3 95 111 96
3 96 111 112
3 96 112 97
3 97 112 113
3 97 113 98
3 98 113 114
3 98 114 99
3 99 114 115
3 99 115 100
3 100 115 116
3 100 116 101
3 101 116 117
3 101 117 102
3 102 117 118
3 102 118 103
3 103 118 119
3 103 119 104
3 104 119 120
3 104 120 105
3 105 120 106
3 105 106 91
CELL_TYPES 225
5
5
5
5
5
5
5
5
5
5
5
5
5
5
5
5
5
5
5
5
5
5
5
5
5
5
5
5
5
5
5
5
5
5
5
5
5
5
5
5
5
5
5
5
5
5
5
5
5
5
5
5
5
5
5
5
5
5
5
5
5
5
5
5
5
5
5
5
5
5
5
5
5
5
5
5
5
5
5
5
5
5
5
5
5
5
5
5
5
5
5
5
5
5
5
5
5
5
5
5
5
5
5
5
5
5
5
5
5
5
5
5
5
5
5
5
5
5
5
5
5
5
5
5
5
5
5
5
5
5
5
5
5
5
5
5
5
5
5
5
5
5
5
5
5
5
5
5
5
5
5
5
5
5
5
5
5
5
5
5
5
5
5
5
5
5
5
5
5
5
5
5
5
5
5
5
5
5
5
5
5
5
5
5
5
5
5
5
5
5
5
5
5
5
5
5
5
5
5
5
5
5
5
5
5
5
5
5
5
5
5
5
5
5
5
5
5
5
5
5
5
5
5
5
5
POINT_DATA 121
SCALARS psi double 1
LOOKUP_TABLE default
-1.74824e-13
-0.000657762
-0.000668411
0.000797498
0.000501688
-0.00090238
-0.00031304
0.000967823
0.00011071
-0.000990967
9.64591e-05
0.000970802
-0.000299412
-0.000908208
0.000489279
0.000805921
-0.00914585
-0.0104753
0.0113358
0.00810546
-0.0130303
-0.00538139
0.0141553
0.00242213
-0.0146617
0.000642995
0.0145272
-0.00368001
-0.0137579
0.0065562
0.0123873
-0.0409553
-0.0507964
0.0515746
0.0400143
-0.0599399
-0.0274835
0.0656855
0.0137515
-0.0685603
0.000581531
0.0684387
-0.0148891
-0.0653261
0.028546
0.0593583
-0.10868
-0.139531
0.13785
0.110712
-0.160995
-0.0770554
0.177104
0.0400306
-0.185473
-0.00125627
0.185735
-0.0375729
-0.17788
0.07476
0.162251
-0.214453
-0.281112
0.273221
0.223993
-0.320048
-0.157085
0.352888
0.0833111
-0.370305
-0.0058963
0.371537
-0.0717762
-0.356532
0.146312
0.325945
-0.350227
-0.464416
0.447317
0.370902
-0.524856
-0.261177
0.579457
0.140037
-0.608733
-0.0127776
0.611404
-0.115041
-0.587354
0.237831
0.537634
-0.485195
-0.648931
0.620858
0.519137
-0.729387
-0.366653
0.806039
0.198145
-0.847462
-0.0209773
0.851848
-0.157107
-0.819003
0.328326
0.750365
-0.563467
-0.765941
0.723592
0.614669
-0.852093
-0.436533
0.943353
0.239318
-0.993385
-0.0316445
1
-0.177412
-0.962911
0.378716
0.883738
VECTORS Et double
-3.43022e-12 1.01245e-13 0
0.0204864 -0.0160818 0
-0.00759736 -0.0254518 0
-0.0263724 0.00104335 0
-0.00870536 0.0247197 0
0.0221865 0.0149196 0
0.0212268 -0.0148073 0
-0.00907128 -0.0254479 0
-0.0256389 -0.000235059 0
-0.00796501 0.0259942 0
0.0207126 0.0149235 0
0.0219603 -0.0160857 0
-0.00833094 -0.0241734 0
-0.0271128 -0.000231152 0
-0.00723143 0.0247158 0
0.0214529 0.016198 0
0.139994 -0.0818955 0
-0.0608774 -0.144858 0
-0.155226 -0.0163955 0
-0.0386641 0.1585 0
0.112544 0.0993428 0
0.130613 -0.105867 0
-0.0354271 -0.140997 0
-0.171294 0.00371462 0
-0.0480456 0.134529 0
0.137994 0.103204 0
0.114544 -0.0857564 0
-0.0448086 -0.164968 0
-0.145844 0.0075755 0
-0.0641143 0.154639 0
0.128612 0.0792327 0
0.336233 -0.153457 0
-0.163045 -0.298104 0
-0.333234 -0.0763901 0
-0.0552892 0.363561 0
0.207681 0.234023 0
0.28741 -0.264536 0
-0.0424368 -0.284846 0
-0.405019 0.0214312 0
-0.104112 0.252483 0
0.32829 0.247281 0
0.215625 -0.166715 0
-0.09126 -0.395925 0
-0.284411 0.0346884 0
-0.175898 0.350304 0
0.279467 0.136202 0
0.523195 -0.202403 0
-0.26872 -0.420956 0
-0.484974 -0.15013 0
-0.0531668 0.551283 0
0.269973 0.360098 0
0.424317 -0.421098 0
-0.0298855 -0.397239 0
-0.624931 0.0448473 0
-0.152044 0.332588 0
0.508807 0.383815 0
0.284361 -0.22612 0
-0.128763 -0.615934 0
-0.386097 0.0685643 0
-0.292001 0.527565 0
0.409929 0.165121 0
0.655528 -0.262613 0
-0.328573 -0.539069 0
-0.61688 -0.180538 0
-0.0782859 0.691818 0
0.352384 0.453765 0
0.537789 -0.521364 0
-0.0456186 -0.511658 0
-0.782094 0.0508022 0
-0.196025 0.433067 0
0.635339 0.481177 0
0.372574 -0.290024 0
-0.163357 -0.770408 0
-0.499141 0.078213 0
-0.361241 0.664408 0
0.5176 0.222425 0
0.736071 -0.357763 0
-0.331427 -0.684261 0
-0.753283 -0.148753 0
-0.155523 0.796619 0
0.49094 0.520419 0
0.646558 -0.558603 0
-0.112736 -0.661362 0
-0.882461 0.0291859 0
-0.245035 0.59578 0
0.709628 0.543319 0
0.517381 -0.380664 0
-0.202249 -0.862202 0
-0.663773 0.0520862 0
-0.374211 0.773718 0
0.620115 0.342479 0
0.780309 -0.475761 0
-0.294191 -0.849253 0
-0.891711 -0.0743284 0
-0.270287 0.876908 0
0.667623 0.567918 0
0.753312 -0.551134 0
-0.21542 -0.834952 0
-0.943494 -0.0132617 0
-0.297281 0.801535 0
0.746396 0.582225 0
0.701535 -0.490074 0
-0.242412 -0.910323 0
-0.864721 0.00104497 0
-0.34906 0.862601 0
0.719405 0.506853 0
0.806931 -0.552172 0
-0.266031 -0.960193 0
-0.981126 -0.0241926 0
-0.350231 0.928242 0
0.784342 0.597803 0
0.825194 -0.541703 0
-0.28424 -0.949588 0
-0.981202 -0.0452461 0
-0.331949 0.938707 0
0.766134 0.608391 0
0.825141 -0.562761 0
-0.26596 -0.939138 0
-0.999399 -0.034663 0
-0.332026 0.917633 0
0.784423 0.618862 0
