# vtk DataFile Version 3.0
tp3485 scalar+vector
ASCII
DATASET UNSTRUCTURED_GRID
POINTS 121 double
0 0 0
0.125 0 0
0.114193 0.0508421 0
0.0836413 0.0928931 0
0.0386271 0.118882 0
-0.0130661 0.124315 0
-0.0625 0.108253 0
-0.101127 0.0734732 0
-0.122268 0.025989 0
-0.122268 -0.025989 0
-0.101127 -0.0734732 0
-0.0625 -0.108253 0
-0.0130661 -0.124315 0
0.0386271 -0.118882 0
0.0836413 -0.0928931 0
0.114193 -0.0508421 0
0.25 0 0
0.228386 0.101684 0
0.167283 0.185786 0
0.0772542 0.237764 0
-0.0261321 0.24863 0
-0.125 0.216506 0
-0.202254 0.146946 0
-0.244537 0.0519779 0
-0.244537 -0.0519779 0
-0.202254 -0.146946 0
-0.125 -0.216506 0
-0.0261321 -0.24863 0
0.0772542 -0.237764 0
0.167283 -0.185786 0
0.228386 -0.101684 0
0.375 0 0
0.34258 0.152526 0
0.250924 0.278679 0
0.115881 0.356646 0
-0.0391982 0.372946 0
-0.1875 0.32476 0
-0.303381 0.220419 0
-0.366805 0.0779669 0
-0.366805 -0.0779669 0
-0.303381 -0.220419 0
-0.1875 -0.32476 0
-0.0391982 -0.372946 0
0.115881 -0.356646 0
0.250924 -0.278679 0
0.34258 -0.152526 0
0.5 0 0
0.456773 0.203368 0
0.334565 0.371572 0
0.154508 0.475528 0
-0.0522642 0.497261 0
-0.25 0.433013 0
-0.404508 0.293893 0
-0.489074 0.103956 0
-0.489074 -0.103956 0
-0.404508 -0.293893 0
-0.25 -0.433013 0
-0.0522642 -0.497261 0
0.154508 -0.475528 0
0.334565 -0.371572 0
0.456773 -0.203368 0
0.625 0 0
0.570966 0.25421 0
0.418207 0.464466 0
0.193136 0.59441 0
-0.0653303 0.621576 0
-0.3125 0.541266 0
-0.505636 0.367366 0
-0.611342 0.129945 0
-0.611342 -0.129945 0
-0.505636 -0.367366 0
-0.3125 -0.541266 0
-0.0653303 -0.621576 0
0.193136 -0.59441 0
0.418207 -0.464466 0
0.570966 -0.25421 0
0.75 0 0
0.685159 0.305052 0
0.501848 0.557359 0
0.231763 0.713292 0
-0.0783963 0.745891 0
-0.375 0.649519 0
-0.606763 0.440839 0
-0.733611 0.155934 0
-0.733611 -0.155934 0
-0.606763 -0.440839 0
-0.375 -0.649519 0
-0.0783963 -0.745891 0
0.231763 -0.713292 0
0.501848 -0.557359 0
0.685159 -0.305052 0
0.875 0 0
0.799352 0.355895 0
0.585489 0.650252 0
0.27039 0.832174 0
-0.0914624 0.870207 0
-0.4375 0.757772 0
-0.70789 0.514312 0
-0.855879 0.181923 0
-0.855879 -0.181923 0
-0.70789 -0.514312 0
-0.4375 -0.757772 0
-0.0914624 -0.870207 0
0.27039 -0.832174 0
0.585489 -0.650252 0
0.799352 -0.355895 0
1 0 0
0.913545 0.406737 0
0.669131 0.743145 0
0.309017 0.951057 0
-0.104528 0.994522 0
-0.5 0.866025 0
-0.809017 0.587785 0
-0.978148 0.207912 0
-0.978148 -0.207912 0
-0.809017 -0.587785 0
-0.5 -0.866025 0
-0.104528 -0.994522 0
0.309017 -0.951057 0
0.669131 -0.743145 0
0.913545 -0.406737 0
CELLS 225 900
3 0 1 2
3 0 2 3
3 0 3 4
3 0 4 5
3 0 5 6
3 0 6 7
3 0 7 8
3 0 8 9
3 0 9 10
3 0 10 11
3 0 11 12
3 0 12 13
3 0 13 14
3 0 14 15
3 0 15 1
3 1 16 17
3 1 17 2
3 2 17 18
3 2 18 3
3 3 18 19
3 3 19 4
3 4 19 20
3 4 20 5
3 5 20 21
3 5 21 6
3 6 21 22
3 6 22 7
3 7 22 23
3 7 23 8
3 8 23 24
3 8 24 9
3 9 24 25
3 9 25 10
3 10 25 26
3 10 26 11
3 11 26 27
3 11 27 12
3 12 27 28
3 12 28 13
3 13 28 29
3 13 29 14
3 14 29 30
3 14 30 15
3 15 30 16
3 15 16 1
3 16 31 32
3 16 32 17
3 17 32 33
3 17 33 18
3 18 33 34
3 18 34 19
3 19 34 35
3 19 35 20
3 20 35 36
3 20 36 21
3 21 36 37
3 21 37 22
3 22 37 38
3 22 38 23
3 23 38 39
3 23 39 24
3 24 39 40
3 24 40 25
3 25 40 41
3 25 41 26
3 26 41 42
3 26 42 27
3 27 42 43
3 27 43 28
3 28 43 44
3 28 44 29
3 29 44 45
3 29 45 30
3 30 45 31
3 30 31 16
3 31 46 47
3 31 47 32
3 32 47 48
3 32 48 33
3 33 48 49
3 33 49 34
3 34 49 50
3 34 50 35
3 35 50 51
3 35 51 36
3 36 51 52
3 36 52 37
3 37 52 53
3 37 53 38
3 38 53 54
3 38 54 39
3 39 54 55
3 39 55 40
3 40 55 56
3 40 56 41
3 41 56 57
3 41 57 42
3 42 57 58
3 42 58 43
3 43 58 59
3 43 59 44
3 44 59 60
3 44 60 45
3 45 60 46
3 45 46 31
3 46 61 62
3 46 62 47
3 47 62 63
3 47 63 48
3 48 63 64
3 48 64 49
3 49 64 65
3 49 65 50
3 50 65 66
3 50 66 51
3 51 66 67
3 51 67 52
3 52 67 68
3 52 68 53
3 53 68 69
3 53 69 54
3 54 69 70
3 54 70 55
3 55 70 71
3 55 71 56
3 56 71 72
3 56 72 57
3 57 72 73
3 57 73 58
3 58 73 74
3 58 74 59
3 59 74 75
3 59 75 60
3 60 75 61
3 60 61 46
3 61 76 77
3 61 77 62
3 62 77 78
3 62 78 63
3 63 78 79
3 63 79 64
3 64 79 80
3 64 80 65
3 65 80 81
3 65 81 66
3 66 81 82
3 66 82 67
3 67 82 83
3 67 83 68
3 68 83 84
3 68 84 69
3 69 84 85
3 69 85 70
3 70 85 86
3 70 86 71
3 71 86 87
3 71 87 72
3 72 87 88
3 72 88 73
3 73 88 89
3 73 89 74
3 74 89 90
3 74 90 75
3 75 90 76
3 75 76 61
3 76 91 92
3 76 92 77
3 77 92 93
3 77 93 78
3 78 93 94
3 78 94 79
3 79 94 95
3 79 95 80
3 80 95 96
3 80 96 81
3 81 96 97
3 81 97 82
3 82 97 98
3 82 98 83
3 83 98 99
3 83 99 84
3 84 99 100
3 84 100 85
3 85 100 101
3 85 101 86
3 86 101 102
3 86 102 87
3 87 102 103
3 87 103 88
3 88 103 104
3 88 104 89
3 89 104 105
3 89 105 90
3 90 105 91
3 90 91 76
3 91 106 107
3 91 107 92
3 92 107 108
3 92 108 93
3 93 108 109
3 93 109 94
3 94 109 110
3 94 110 95
3 95 110 111
3 95 111 96
3 96 111 112
3 96 112 97
3 97 112 113
3 97 113 98
3 98 113 114
3 98 114 99
3 99 114 115
3 99 115 100
3 100 115 116
3 100 116 101
3 101 116 117
3 101 117 102
3 102 117 118
3 102 118 103
3 103 118 119
3 103 119 104
3 104 119 120
3 104 120 105
3 105 120 106
3 105 106 91
CELL_TYPES 225
5
5
5
5
5
5
5
5
5
5
5
5
5
5
5
5
5
5
5
5
5
5
5
5
5
5
5
5
5
5
5
5
5
5
5
5
5
5
5
5
5
5
5
5
5
5
5
5
5
5
5
5
5
5
5
5
5
5
5
5
5
5
5
5
5
5
5
5
5
5
5
5
5
5
5
5
5
5
5
5
5
5
5
5
5
5
5
5
5
5
5
5
5
5
5
5
5
5
5
5
5
5
5
5
5
5
5
5
5
5
5
5
5
5
5
5
5
5
5
5
5
5
5
5
5
5
5
5
5
5
5
5
5
5
5
5
5
5
5
5
5
5
5
5
5
5
5
5
5
5
5
5
5
5
5
5
5
5
5
5
5
5
5
5
5
5
5
5
5
5
5
5
5
5
5
5
5
5
5
5
5
5
5
5
5
5
5
5
5
5
5
5
5
5
5
5
5
5
5
5
5
5
5
5
5
5
5
5
5
5
5
5
5
5
5
5
5
5
5
5
5
5
5
5
5
POINT_DATA 121
SCALARS psi double 1
LOOKUP_TABLE default
-1.69173e-13
0.254465
0.433867
0.538249
0.549564
0.465853
0.301593
0.0851839
-0.145954
-0.351855
-0.496917
-0.556058
-0.519051
-0.392296
-0.197709
0.0310638
0.421219
0.724561
0.90262
0.924608
0.786722
0.512806
0.15022
-0.23834
-0.585689
-0.831767
-0.934025
-0.874781
-0.66428
-0.338919
0.0450443
0.453635
0.777548
0.967016
0.989279
0.840486
0.546365
0.157773
-0.258099
-0.629344
-0.89177
-1
-0.935321
-0.708917
-0.359935
0.0512835
0.350016
0.598568
0.743622
0.760098
0.645145
0.418641
0.11975
-0.199846
-0.484888
-0.686088
-0.768657
-0.718318
-0.543776
-0.27521
0.0409428
0.156071
0.266529
0.330903
0.33806
0.286763
0.185883
0.0528616
-0.0892999
-0.216021
-0.305389
-0.341954
-0.319391
-0.241603
-0.122039
0.0186262
-0.0577475
-0.0990553
-0.123235
-0.126107
-0.107174
-0.069709
-0.020191
0.0328182
0.0801529
0.113628
0.127457
0.119246
0.0904172
0.0459542
-0.00645468
-0.217687
-0.372452
-0.462816
-0.473156
-0.401683
-0.260755
-0.0747399
0.124198
0.301661
0.426964
0.478441
0.447192
0.338618
0.171495
-0.0252815
-0.263827
-0.452136
-0.562268
-0.575178
-0.488635
-0.317602
-0.091653
0.150144
0.365979
0.518533
0.581428
0.543789
0.412124
0.209199
-0.0298987
VECTORS Et double
-0.890553 0.454879 0
-0.795816 0.266539 0
-0.70047 0.191193 0
-0.580677 0.211633 0
-0.51571 0.314333 0
-0.54856 0.431333 0
-0.657489 0.485209 0
-0.770414 0.440309 0
-0.812608 0.326346 0
-0.756151 0.218733 0
-0.638401 0.188682 0
-0.537279 0.256079 0
-0.519701 0.376324 0
-0.597299 0.469847 0
-0.718723 0.47476 0
-0.803623 0.387812 0
-0.520276 -0.0492041 0
-0.301163 -0.228365 0
-0.0214064 -0.185414 0
0.133869 0.0512252 0
0.0619114 0.32496 0
-0.189662 0.454649 0
-0.454376 0.354473 0
-0.557058 0.0907209 0
-0.42976 -0.162071 0
-0.15672 -0.236621 0
0.0813808 -0.083597 0
0.126982 0.19574 0
-0.0500923 0.416541 0
-0.332666 0.432694 0
-0.533748 0.23351 0
-0.258492 -0.264773 0
0.0181432 -0.489785 0
0.370465 -0.434767 0
0.565328 -0.136127 0
0.473784 0.208514 0
0.156411 0.371093 0
-0.176773 0.244026 0
-0.305287 -0.0886029 0
-0.144088 -0.406679 0
0.200151 -0.49972 0
0.499636 -0.306157 0
0.556184 0.0459227 0
0.332376 0.323533 0
-0.0236854 0.34297 0
-0.276381 0.0913696 0
-0.0840327 -0.344748 0
0.18591 -0.563357 0
0.528995 -0.509029 0
0.71819 -0.217715 0
0.628297 0.117812 0
0.318802 0.27552 0
-0.00549014 0.151048 0
-0.129983 -0.173237 0
0.0277052 -0.482742 0
0.363226 -0.572656 0
0.654553 -0.383479 0
0.708903 -0.0403975 0
0.490311 0.229559 0
0.143427 0.247749 0
-0.102201 0.00213645 0
0.0108888 -0.341249 0
0.244533 -0.530202 0
0.541291 -0.483005 0
0.704787 -0.23089 0
0.626829 0.0593096 0
0.359004 0.195556 0
0.0785441 0.0876911 0
-0.0289611 -0.192908 0
0.107629 -0.460557 0
0.397929 -0.538144 0
0.649834 -0.374324 0
0.69665 -0.0775048 0
0.507396 0.155897 0
0.207311 0.171431 0
-0.00503014 -0.041183 0
0.0637831 -0.290169 0
0.243093 -0.43515 0
0.470817 -0.398908 0
0.596262 -0.205426 0
0.536415 0.0172628 0
0.330879 0.121795 0
0.115667 0.0389988 0
0.0331909 -0.176337 0
0.13803 -0.381717 0
0.360807 -0.441232 0
0.554102 -0.315499 0
0.590006 -0.087721 0
0.444757 0.091373 0
0.214473 0.103269 0
0.0515431 -0.0599038 0
0.0939732 -0.21634 0
0.211334 -0.311411 0
0.360518 -0.28781 0
0.442804 -0.161153 0
0.403738 -0.0152529 0
0.269172 0.0533409 0
0.128156 -0.000762049 0
0.0740039 -0.14176 0
0.14255 -0.276349 0
0.288436 -0.315466 0
0.415123 -0.233229 0
0.438777 -0.0840516 0
0.343746 0.0333454 0
0.192914 0.0412769 0
0.0860948 -0.0655061 0
0.110791 -0.141505 0
0.170322 -0.19008 0
0.24625 -0.178346 0
0.288339 -0.114064 0
0.26873 -0.0397784 0
0.2004 -0.0046411 0
0.128571 -0.0319064 0
0.100769 -0.103531 0
0.135392 -0.17212 0
0.209526 -0.192281 0
0.27413 -0.150676 0
0.286429 -0.0748396 0
0.238301 -0.0149443 0
0.161587 -0.0106393 0
0.107057 -0.0647638 0
