# vtk DataFile Version 3.0
tp3485 scalar+vector
ASCII
DATASET UNSTRUCTURED_GRID
POINTS 121 double
0 0 0
0.125 0 0
0.114193 0.0508421 0
0.0836413 0.0928931 0
0.0386271 0.118882 0
-0.0130661 0.124315 0
-0.0625 0.108253 0
-0.101127 0.0734732 0
-0.122268 0.025989 0
-0.122268 -0.025989 0
-0.101127 -0.0734732 0
-0.0625 -0.108253 0
-0.0130661 -0.124315 0
0.0386271 -0.118882 0
0.0836413 -0.0928931 0
0.114193 -0.0508421 0
0.25 0 0
0.228386 0.101684 0
0.167283 0.185786 0
0.0772542 0.237764 0
-0.0261321 0.24863 0
-0.125 0.216506 0
-0.202254 0.146946 0
-0.244537 0.0519779 0
-0.244537 -0.0519779 0
-0.202254 -0.146946 0
-0.125 -0.216506 0
-0.0261321 -0.24863 0
0.0772542 -0.237764 0
0.167283 -0.185786 0
0.228386 -0.101684 0
0.375 0 0
0.34258 0.152526 0
0.250924 0.278679 0
0.115881 0.356646 0
-0.0391982 0.372946 0
-0.1875 0.32476 0
-0.303381 0.220419 0
-0.366805 0.0779669 0
-0.366805 -0.0779669 0
-0.303381 -0.220419 0
-0.1875 -0.32476 0
-0.0391982 -0.372946 0
0.115881 -0.356646 0
0.250924 -0.278679 0
0.34258 -0.152526 0
0.5 0 0
0.456773 0.203368 0
0.334565 0.371572 0
0.154508 0.475528 0
-0.0522642 0.497261 0
-0.25 0.433013 0
-0.404508 0.293893 0
-0.489074 0.103956 0
-0.489074 -0.103956 0
-0.404508 -0.293893 0
-0.25 -0.433013 0
-0.0522642 -0.497261 0
0.154508 -0.475528 0
0.334565 -0.371572 0
0.456773 -0.203368 0
0.625 0 0
0.570966 0.25421 0
0.418207 0.464466 0
0.193136 0.59441 0
-0.0653303 0.621576 0
-0.3125 0.541266 0
-0.505636 0.367366 0
-0.611342 0.129945 0
-0.611342 -0.129945 0
-0.505636 -0.367366 0
-0.3125 -0.541266 0
-0.0653303 -0.621576 0
0.193136 -0.59441 0
0.418207 -0.464466 0
0.570966 -0.25421 0
0.75 0 0
0.685159 0.305052 0
0.501848 0.557359 0
0.231763 0.713292 0
-0.0783963 0.745891 0
-0.375 0.649519 0
-0.606763 0.440839 0
-0.733611 0.155934 0
-0.733611 -0.155934 0
-0.606763 -0.440839 0
-0.375 -0.649519 0
-0.0783963 -0.745891 0
0.231763 -0.713292 0
0.501848 -0.557359 0
0.685159 -0.305052 0
0.875 0 0
0.799352 0.355895 0
0.585489 0.650252 0
0.27039 0.832174 0
-0.0914624 0.870207 0
-0.4375 0.757772 0
-0.70789 0.514312 0
-0.855879 0.181923 0
-0.855879 -0.181923 0
-0.70789 -0.514312 0
-0.4375 -0.757772 0
-0.0914624 -0.870207 0
0.27039 -0.832174 0
0.585489 -0.650252 0
0.799352 -0.355895 0
1 0 0
0.913545 0.406737 0
0.669131 0.743145 0
0.309017 0.951057 0
-0.104528 0.994522 0
-0.5 0.866025 0
-0.809017 0.587785 0
-0.978148 0.207912 0
-0.978148 -0.207912 0
-0.809017 -0.587785 0
-0.5 -0.866025 0
-0.104528 -0.994522 0
0.309017 -0.951057 0
0.669131 -0.743145 0
0.913545 -0.406737 0
CELLS 225 900
3 0 1 2
3 0 2 3
3 0 3 4
3 0 4 5
3 0 5 6
3 0 6 7
3 0 7 8
3 0 8 9
3 0 9 10
3 0 10 11
3 0 11 12
3 0 12 13
3 0 13 14
3 0 14 15
3 0 15 1
3 1 16 17
3 1 17 2
3 2 17 18
3 2 18 3
3 3 18 19
3 3 19 4
3 4 19 20
3 4 20 5
3 5 20 21
3 5 21 6
3 6 21 22
3 6 22 7
3 7 22 23
3 7 23 8
3 8 23 24
3 8 24 9
3 9 24 25
3 9 25 10
3 10 25 26
3 10 26 11
3 11 26 27
3 11 27 12
3 12 27 28
3 12 28 13
3 13 28 29
3 13 29 14
3 14 29 30
3 14 30 15
3 15 30 16
3 15 16 1
3 16 31 32
3 16 32 17
3 17 32 33
3 17 33 18
3 18 33 34
3 18 34 19
3 19 34 35
3 19 35 20
3 20 35 36
3 20 36 21
3 21 36 37
3 21 37 22
3 22 37 38
3 22 38 23
3 23 38 39
3 23 39 24
3 24 39 40
3 24 40 25
3 25 40 41
3 25 41 26
3 26 41 42
3 26 42 27
3 27 42 43
3 27 43 28
3 28 43 44
3 28 44 29
3 29 44 45
3 29 45 30
3 30 45 31
3 30 31 16
3 31 46 47
3 31 47 32
3 32 47 48
3 32 48 33
3 33 48 49
3 33 49 34
3 34 49 50
3 34 50 35
3 35 50 51
3 35 51 36
3 36 51 52
3 36 52 37
3 37 52 53
3 37 53 38
3 38 53 54
3 38 54 39
3 39 54 55
3 39 55 40
3 40 55 56
3 40 56 41
3 41 56 57
3 41 57 42
3 42 57 58
3 42 58 43
3 43 58 59
3 43 59 44
3 44 59 60
3 44 60 45
3 45 60 46
3 45 46 31
3 46 61 62
3 46 62 47
3 47 62 63
3 47 63 48
3 48 63 64
3 48 64 49
3 49 64 65
3 49 65 50
3 50 65 66
3 50 66 51
3 51 66 67
3 51 67 52
3 52 67 68
3 52 68 53
3 53 68 69
3 53 69 54
3 54 69 70
3 54 70 55
3 55 70 71
3 55 71 56
3 56 71 72
3 56 72 57
3 57 72 73
3 57 73 58
3 58 73 74
3 58 74 59
3 59 74 75
3 59 75 60
3 60 75 61
3 60 61 46
3 61 76 77
3 61 77 62
3 62 77 78
3 62 78 63
3 63 78 79
3 63 79 64
3 64 79 80
3 64 80 65
3 65 80 81
3 65 81 66
3 66 81 82
3 66 82 67
3 67 82 83
3 67 83 68
3 68 83 84
3 68 84 69
3 69 84 85
3 69 85 70
3 70 85 86
3 70 86 71
3 71 86 87
3 71 87 72
3 72 87 88
3 72 88 73
3 73 88 89
3 73 89 74
3 74 89 90
3 74 90 75
3 75 90 76
3 75 76 61
3 76 91 92
3 76 92 77
3 77 92 93
3 77 93 78
3 78 93 94
3 78 94 79
3 79 94 95
3 79 95 80
3 80 95 96
3 80 96 81
3 81 96 97
3 81 97 82
3 82 97 98
3 82 98 83
3 83 98 99
3 83 99 84
3 84 99 100
3 84 100 85
3 85 100 101
3 85 101 86
3 86 101 102
3 86 102 87
3 87 102 103
3 87 103 88
3 88 103 104
3 88 104 89
3 89 104 105
3 89 105 90
3 90 105 91
3 90 91 76
3 91 106 107
3 91 107 92
3 92 107 108
3 92 108 93
3 93 108 109
3 93 109 94
3 94 109 110
3 94 110 95
3 95 110 111
3 95 111 96
3 96 111 112
3 96 112 97
3 97 112 113
3 97 113 98
3 98 113 114
3 98 114 99
3 99 114 115
3 99 115 100
3 100 115 116
3 100 116 101
3 101 116 117
3 101 117 102
3 102 117 118
3 102 118 103
3 103 118 119
3 103 119 104
3 104 119 120
3 104 120 105
3 105 120 106
3 105 106 91
CELL_TYPES 225
5
5
5
5
5
5
5
5
5
5
5
5
5
5
5
5
5
5
5
5
5
5
5
5
5
5
5
5
5
5
5
5
5
5
5
5
5
5
5
5
5
5
5
5
5
5
5
5
5
5
5
5
5
5
5
5
5
5
5
5
5
5
5
5
5
5
5
5
5
5
5
5
5
5
5
5
5
5
5
5
5
5
5
5
5
5
5
5
5
5
5
5
5
5
5
5
5
5
5
5
5
5
5
5
5
5
5
5
5
5
5
5
5
5
5
5
5
5
5
5
5
5
5
5
5
5
5
5
5
5
5
5
5
5
5
5
5
5
5
5
5
5
5
5
5
5
5
5
5
5
5
5
5
5
5
5
5
5
5
5
5
5
5
5
5
5
5
5
5
5
5
5
5
5
5
5
5
5
5
5
5
5
5
5
5
5
5
5
5
5
5
5
5
5
5
5
5
5
5
5
5
5
5
5
5
5
5
5
5
5
5
5
5
5
5
5
5
5
5
5
5
5
5
5
5
POINT_DATA 121
SCALARS psi double 1
LOOKUP_TABLE default
7.42339e-13
-0.00530756
0.00158305
0.00628594
0.00230188
-0.0048633
-0.00530756
0.00158305
0.00628594
0.00230188
-0.0048633
-0.00530756
0.00158305
0.00628594
0.00230188
-0.0048633
-0.0406037
0.0103956
0.0470286
0.0186697
-0.0354901
-0.0406037
0.0103956
0.0470286
0.0186697
-0.0354901
-0.0406037
0.0103956
0.0470286
0.0186697
-0.0354901
-0.127094
0.030643
0.146032
0.0596097
-0.109191
-0.127094
0.030643
0.146032
0.0596097
-0.109191
-0.127094
0.030643
0.146032
0.0596097
-0.109191
-0.266022
0.06232
0.304537
0.125895
-0.22673
-0.266022
0.06232
0.304537
0.125895
-0.22673
-0.266022
0.06232
0.304537
0.125895
-0.22673
-0.442295
0.101356
0.504937
0.210712
-0.37471
-0.442295
0.101356
0.504937
0.210712
-0.37471
-0.442295
0.101356
0.504937
0.210712
-0.37471
-0.631915
0.143033
0.720314
0.302146
-0.533578
-0.631915
0.143033
0.720314
0.302146
-0.533578
-0.631915
0.143033
0.720314
0.302146
-0.533578
-0.794366
0.178357
0.904596
0.380714
-0.669302
-0.794366
0.178357
0.904596
0.380714
-0.669302
-0.794366
0.178357
0.904596
0.380714
-0.669302
-0.881274
0.192103
1
0.425931
-0.73676
-0.881274
0.192103
1
0.425931
-0.73676
-0.881274
0.192103
1
0.425931
-0.73676
VECTORS Et double
9.43781e-14 6.11302e-14 0
-0.0494631 -0.0885609 0
-0.0958424 -0.0192772 0
-0.0819833 0.0610406 0
-0.0118268 0.0979787 0
0.0689125 0.0724273 0
0.101428 0.00144414 0
0.0646158 -0.0733634 0
-0.011871 -0.10152 0
-0.0789386 -0.0592317 0
-0.0971802 0.0234663 0
-0.0519645 0.0871168 0
0.0312267 0.0926406 0
0.0938543 0.0404793 0
0.0907654 -0.038747 0
0.0282677 -0.0958936 0
-0.172667 -0.251954 0
-0.33349 -0.0854694 0
-0.238506 0.164818 0
-0.0164599 0.338124 0
0.187785 0.253727 0
0.304532 -0.023557 0
0.240764 -0.246076 0
-0.0234838 -0.288961 0
-0.284594 -0.183317 0
-0.313627 0.0357634 0
-0.131865 0.275511 0
0.0927265 0.331546 0
0.26199 0.124143 0
0.301054 -0.154807 0
0.125841 -0.28949 0
-0.299181 -0.366361 0
-0.575756 -0.167205 0
-0.35511 0.228342 0
0.00310268 0.579408 0
0.263408 0.439022 0
0.466868 -0.0759175 0
0.432682 -0.415017 0
-0.0201948 -0.421705 0
-0.503333 -0.287017 0
-0.511909 0.00860676 0
-0.167688 0.442279 0
0.143074 0.582222 0
0.375305 0.193363 0
0.50023 -0.292391 0
0.248501 -0.447629 0
-0.393814 -0.410009 0
-0.75446 -0.238262 0
-0.407259 0.242833 0
0.0367871 0.75483 0
0.283993 0.575592 0
0.551984 -0.136048 0
0.583571 -0.534251 0
-0.0066698 -0.474113 0
-0.672095 -0.345556 0
-0.640474 -0.041851 0
-0.158171 0.546057 0
0.170889 0.772512 0
0.413929 0.23128 0
0.635308 -0.409273 0
0.356481 -0.533741 0
-0.448834 -0.44572 0
-0.860227 -0.277893 0
-0.446737 0.258652 0
0.0518419 0.858957 0
0.304489 0.656918 0
0.610422 -0.165842 0
0.670777 -0.606033 0
-0.000631738 -0.516211 0
-0.769799 -0.384582 0
-0.721154 -0.0647644 0
-0.161588 0.611561 0
0.189451 0.883925 0
0.447368 0.257559 0
0.717959 -0.474376 0
0.416663 -0.592154 0
-0.476269 -0.507017 0
-0.917483 -0.289959 0
-0.503223 0.298852 0
0.0391891 0.918076 0
0.350156 0.702198 0
0.677223 -0.158954 0
0.709855 -0.649586 0
-0.00720157 -0.585231 0
-0.814673 -0.4251 0
-0.7832 -0.0478551 0
-0.200954 0.66597 0
0.20763 0.939544 0
0.510426 0.28638 0
0.775482 -0.492976 0
0.433042 -0.654342 0
-0.487706 -0.589155 0
-0.946265 -0.286591 0
-0.573707 0.356974 0
0.00654398 0.952315 0
0.413479 0.726813 0
0.754074 -0.127787 0
0.721329 -0.676198 0
-0.0222927 -0.675338 0
-0.828002 -0.47049 0
-0.836176 -0.00532458 0
-0.266369 0.716949 0
0.224939 0.96279 0
0.596008 0.318363 0
0.821457 -0.481822 0
0.422695 -0.72149 0
-0.492252 -0.62881 0
-0.957802 -0.287428 0
-0.606438 0.383516 0
-0.0115134 0.968199 0
0.440914 0.737804 0
0.790681 -0.111897 0
0.727819 -0.685763 0
-0.0289138 -0.716952 0
-0.832733 -0.494071 0
-0.859395 0.012942 0
-0.298448 0.740702 0
0.22998 0.973194 0
0.635357 0.333449 0
0.844229 -0.474124 0
0.418497 -0.750746 0
