# vtk DataFile Version 3.0
tp3485 scalar+vector
ASCII
DATASET UNSTRUCTURED_GRID
POINTS 121 double
0 0 0
0.125 0 0
0.114193 0.0508421 0
0.0836413 0.0928931 0
0.0386271 0.118882 0
-0.0130661 0.124315 0
-0.0625 0.108253 0
-0.101127 0.0734732 0
-0.122268 0.025989 0
-0.122268 -0.025989 0
-0.101127 -0.0734732 0
-0.0625 -0.108253 0
-0.0130661 -0.124315 0
0.0386271 -0.118882 0
0.0836413 -0.0928931 0
0.114193 -0.0508421 0
0.25 0 0
0.228386 0.101684 0
0.167283 0.185786 0
0.0772542 0.237764 0
-0.0261321 0.24863 0
-0.125 0.216506 0
-0.202254 0.146946 0
-0.244537 0.0519779 0
-0.244537 -0.0519779 0
-0.202254 -0.146946 0
-0.125 -0.216506 0
-0.0261321 -0.24863 0
0.0772542 -0.237764 0
0.167283 -0.185786 0
0.228386 -0.101684 0
0.375 0 0
0.34258 0.152526 0
0.250924 0.278679 0
0.115881 0.356646 0
-0.0391982 0.372946 0
-0.1875 0.32476 0
-0.303381 0.220419 0
-0.366805 0.0779669 0
-0.366805 -0.0779669 0
-0.303381 -0.220419 0
-0.1875 -0.32476 0
-0.0391982 -0.372946 0
0.115881 -0.356646 0
0.250924 -0.278679 0
0.34258 -0.152526 0
0.5 0 0
0.456773 0.203368 0
0.334565 0.371572 0
0.154508 0.475528 0
-0.0522642 0.497261 0
-0.25 0.433013 0
-0.404508 0.293893 0
-0.489074 0.103956 0
-0.489074 -0.103956 0
-0.404508 -0.293893 0
-0.25 -0.433013 0
-0.0522642 -0.497261 0
0.154508 -0.475528 0
0.334565 -0.371572 0
0.456773 -0.203368 0
0.625 0 0
0.570966 0.25421 0
0.418207 0.464466 0
0.193136 0.59441 0
-0.0653303 0.621576 0
-0.3125 0.541266 0
-0.505636 0.367366 0
-0.611342 0.129945 0
-0.611342 -0.129945 0
-0.505636 -0.367366 0
-0.3125 -0.541266 0
-0.0653303 -0.621576 0
0.193136 -0.59441 0
0.418207 -0.464466 0
0.570966 -0.25421 0
0.75 0 0
0.685159 0.305052 0
0.501848 0.557359 0
0.231763 0.713292 0
-0.0783963 0.745891 0
-0.375 0.649519 0
-0.606763 0.440839 0
-0.733611 0.155934 0
-0.733611 -0.155934 0
-0.606763 -0.440839 0
-0.375 -0.649519 0
-0.0783963 -0.745891 0
0.231763 -0.713292 0
0.501848 -0.557359 0
0.685159 -0.305052 0
0.875 0 0
0.799352 0.355895 0
0.585489 0.650252 0
0.27039 0.832174 0
-0.0914624 0.870207 0
-0.4375 0.757772 0
-0.70789 0.514312 0
-0.855879 0.181923 0
-0.855879 -0.181923 0
-0.70789 -0.514312 0
-0.4375 -0.757772 0
-0.0914624 -0.870207 0
0.27039 -0.832174 0
0.585489 -0.650252 0
0.799352 -0.355895 0
1 0 0
0.913545 0.406737 0
0.669131 0.743145 0
0.309017 0.951057 0
-0.104528 0.994522 0
-0.5 0.866025 0
-0.809017 0.587785 0
-0.978148 0.207912 0
-0.978148 -0.207912 0
-0.809017 -0.587785 0
-0.5 -0.866025 0
-0.104528 -0.994522 0
0.309017 -0.951057 0
0.669131 -0.743145 0
0.913545 -0.406737 0
CELLS 225 900
3 0 1 2
3 0 2 3
3 0 3 4
3 0 4 5
3 0 5 6
3 0 6 7
3 0 7 8
3 0 8 9
3 0 9 10
3 0 10 11
3 0 11 12
3 0 12 13
3 0 13 14
3 0 14 15
3 0 15 1
3 1 16 17
3 1 17 2
3 2 17 18
3 2 18 3
3 3 18 19
3 3 19 4
3 4 19 20
3 4 20 5
3 5 20 21
3 5 21 6
3 6 21 22
3 6 22 7
3 7 22 23
3 7 23 8
3 8 23 24
3 8 24 9
3 9 24 25
3 9 25 10
3 10 25 26
3 10 26 11
3 11 26 27
3 11 27 12
3 12 27 28
3 12 28 13
3 13 28 29
3 13 29 14
3 14 29 30
3 14 30 15
3 15 30 16
3 15 16 1
3 16 31 32
3 16 32 17
3 17 32 33
3 17 33 18
3 18 33 34
3 18 34 19
3 19 34 35
3 19 35 20
3 20 35 36
3 20 36 21
3 21 36 37
3 21 37 22
3 22 37 38
3 22 38 23
3 23 38 39
3 23 39 24
3 24 39 40
3 24 40 25
3 25 40 41
3 25 41 26
3 26 41 42
3 26 42 27
3 27 42 43
3 27 43 28
3 28 43 44
3 28 44 29
3 29 44 45
3 29 45 30
3 30 45 31
3 30 31 16
3 31 46 47
3 31 47 32
3 32 47 48
3 32 48 33
3 33 48 49
3 33 49 34
3 34 49 50
3 34 50 35
3 35 50 51
3 35 51 36
3 36 51 52
3 36 52 37
3 37 52 53
3 37 53 38
3 38 53 54
3 38 54 39
3 39 54 55
3 39 55 40
3 40 55 56
3 40 56 41
3 41 56 57
3 41 57 42
3 42 57 58
3 42 58 43
3 43 58 59
3 43 59 44
3 44 59 60
3 44 60 45
3 45 60 46
3 45 46 31
3 46 61 62
3 46 62 47
3 47 62 63
3 47 63 48
3 48 63 64
3 48 64 49
3 49 64 65
3 49 65 50
3 50 65 66
3 50 66 51
3 51 66 67
3 51 67 52
3 52 67 68
3 52 68 53
3 53 68 69
3 53 69 54
3 54 69 70
3 54 70 55
3 55 70 71
3 55 71 56
3 56 71 72
3 56 72 57
3 57 72 73
3 57 73 58
3 58 73 74
3 58 74 59
3 59 74 75
3 59 75 60
3 60 75 61
3 60 61 46
3 61 76 77
3 61 77 62
3 62 77 78
3 62 78 63
3 63 78 79
3 63 79 64
3 64 79 80
3 64 80 65
3 65 80 81
3 65 81 66
3 66 81 82
3 66 82 67
3 67 82 83
3 67 83 68
3 68 83 84
3 68 84 69
3 69 84 85
3 69 85 70
3 70 85 86
3 70 86 71
3 71 86 87
3 71 87 72
3 72 87 88
3 72 88 73
3 73 88 89
3 73 89 74
3 74 89 90
3 74 90 75
3 75 90 76
3 75 76 61
3 76 91 92
3 76 92 77
3 77 92 93
3 77 93 78
3 78 93 94
3 78 94 79
3 79 94 95
3 79 95 80
3 80 95 96
3 80 96 81
3 81 96 97
3 81 97 82
3 82 97 98
3 82 98 83
3 83 98 99
3 83 99 84
3 84 99 100
3 84 100 85
3 85 100 101
3 85 101 86
3 86 101 102
3 86 102 87
3 87 102 103
3 87 103 88
3 88 103 104
3 88 104 89
3 89 104 105
3 89 105 90
3 90 105 91
3 90 91 76
3 91 106 107
3 91 107 92
3 92 107 108
3 92 108 93
3 93 108 109
3 93 109 94
3 94 109 110
3 94 110 95
3 95 110 111
3 95 111 96
3 96 111 112
3 96 112 97
3 97 112 113
3 97 113 98
3 98 113 114
3 98 114 99
3 99 114 115
3 99 115 100
3 100 115 116
3 100 116 101
3 101 116 117
3 101 117 102
3 102 117 118
3 102 118 103
3 103 118 119
3 103 119 104
3 104 119 120
3 104 120 105
3 105 120 106
3 105 106 91
CELL_TYPES 225
5
5
5
5
5
5
5
5
5
5
5
5
5
5
5
5
5
5
5
5
5
5
5
5
5
5
5
5
5
5
5
5
5
5
5
5
5
5
5
5
5
5
5
5
5
5
5
5
5
5
5
5
5
5
5
5
5
5
5
5
5
5
5
5
5
5
5
5
5
5
5
5
5
5
5
5
5
5
5
5
5
5
5
5
5
5
5
5
5
5
5
5
5
5
5
5
5
5
5
5
5
5
5
5
5
5
5
5
5
5
5
5
5
5
5
5
5
5
5
5
5
5
5
5
5
5
5
5
5
5
5
5
5
5
5
5
5
5
5
5
5
5
5
5
5
5
5
5
5
5
5
5
5
5
5
5
5
5
5
5
5
5
5
5
5
5
5
5
5
5
5
5
5
5
5
5
5
5
5
5
5
5
5
5
5
5
5
5
5
5
5
5
5
5
5
5
5
5
5
5
5
5
5
5
5
5
5
5
5
5
5
5
5
5
5
5
5
5
5
5
5
5
5
5
5
POINT_DATA 121
SCALARS psi double 1
LOOKUP_TABLE default
2.89741e-13
0.00342659
0.00616258
0.000382096
-0.00592643
-0.00404483
0.00342659
0.00616258
0.000382096
-0.00592643
-0.00404483
0.00342659
0.00616258
0.000382096
-0.00592643
-0.00404483
0.0243907
0.0465814
0.00439812
-0.0438632
-0.031507
0.0243907
0.0465814
0.00439812
-0.0438632
-0.031507
0.0243907
0.0465814
0.00439812
-0.0438632
-0.031507
0.0743296
0.145181
0.0153974
-0.135665
-0.099243
0.0743296
0.145181
0.0153974
-0.135665
-0.099243
0.0743296
0.145181
0.0153974
-0.135665
-0.099243
0.153646
0.303283
0.0337933
-0.282398
-0.208325
0.153646
0.303283
0.0337933
-0.282398
-0.208325
0.153646
0.303283
0.0337933
-0.282398
-0.208325
0.253055
0.503506
0.0581287
-0.46758
-0.347109
0.253055
0.503506
0.0581287
-0.46758
-0.347109
0.253055
0.503506
0.0581287
-0.46758
-0.347109
0.359655
0.718784
0.0845774
-0.666512
-0.496504
0.359655
0.718784
0.0845774
-0.666512
-0.496504
0.359655
0.718784
0.0845774
-0.666512
-0.496504
0.450577
0.903091
0.107564
-0.836613
-0.624619
0.450577
0.903091
0.107564
-0.836613
-0.624619
0.450577
0.903091
0.107564
-0.836613
-0.624619
0.493741
1
0.124292
-0.923183
-0.694851
0.493741
1
0.124292
-0.923183
-0.694851
0.493741
1
0.124292
-0.923183
-0.694851
VECTORS Et double
-9.01268e-13 -5.29595e-13 0
-0.0835399 0.0508242 0
-0.0213261 0.0991334 0
0.0567082 0.0786842 0
0.100179 0.00819563 0
0.0750294 -0.0649826 0
-0.0022451 -0.0977598 0
-0.075189 -0.0680357 0
-0.0964966 0.00976861 0
-0.0571869 0.0826594 0
0.0187618 0.0974687 0
0.085785 0.0469356 0
0.0965151 -0.0310977 0
0.0397885 -0.0884528 0
-0.0429917 -0.090855 0
-0.0937913 -0.0324861 0
-0.298305 0.141215 0
-0.049839 0.285712 0
0.204587 0.275978 0
0.29181 0.053105 0
0.219603 -0.233366 0
0.026857 -0.328947 0
-0.222515 -0.186018 0
-0.341297 0.0391885 0
-0.191895 0.226162 0
0.0922988 0.306865 0
0.271448 0.187732 0
0.272354 -0.0996943 0
0.13671 -0.315167 0
-0.0999147 -0.279267 0
-0.311902 -0.0734994 0
-0.522994 0.202971 0
-0.0559098 0.422022 0
0.363135 0.477066 0
0.436138 0.119798 0
0.327674 -0.411808 0
0.0857186 -0.554412 0
-0.337526 -0.25943 0
-0.594719 0.0759514 0
-0.321817 0.317807 0
0.1928 0.489678 0
0.437276 0.351441 0
0.393436 -0.162592 0
0.231584 -0.553017 0
-0.114321 -0.437605 0
-0.520474 -0.0778698 0
-0.692877 0.225141 0
-0.0418574 0.480842 0
0.486432 0.625222 0
0.502817 0.18464 0
0.376622 -0.5492 0
0.151461 -0.712619 0
-0.395493 -0.276671 0
-0.784674 0.108651 0
-0.411311 0.343133 0
0.28731 0.600764 0
0.541416 0.487479 0
0.43735 -0.204172 0
0.298242 -0.733873 0
-0.0915063 -0.527772 0
-0.663932 -0.0515639 0
-0.792714 0.243754 0
-0.0386725 0.525427 0
0.557659 0.712934 0
0.551985 0.219867 0
0.413049 -0.628574 0
0.18526 -0.808387 0
-0.435697 -0.296204 0
-0.896248 0.12648 0
-0.466403 0.3681 0
0.337837 0.671998 0
0.607454 0.564634 0
0.474369 -0.229222 0
0.338589 -0.839414 0
-0.0855826 -0.587967 0
-0.750885 -0.0434241 0
-0.843536 0.276297 0
-0.0569833 0.591568 0
0.588883 0.761665 0
0.618771 0.224583 0
0.464893 -0.664936 0
0.182487 -0.86867 0
-0.483821 -0.345135 0
-0.954064 0.129155 0
-0.503879 0.423581 0
0.343404 0.735077 0
0.661047 0.592373 0
0.540806 -0.246434 0
0.365181 -0.890821 0
-0.114892 -0.648163 0
-0.808296 -0.070142 0
-0.865845 0.318182 0
-0.0901998 0.675749 0
0.595019 0.789396 0
0.700053 0.210137 0
0.530919 -0.675774 0
0.15737 -0.908935 0
-0.540121 -0.415999 0
-0.98115 0.120604 0
-0.53201 0.501195 0
0.319779 0.797675 0
0.708476 0.590751 0
0.630321 -0.259758 0
0.386129 -0.910002 0
-0.168042 -0.711338 0
-0.850701 -0.121903 0
-0.875719 0.335054 0
-0.106419 0.715185 0
0.59511 0.803644 0
0.736674 0.203864 0
0.563699 -0.679709 0
0.147689 -0.925905 0
-0.56617 -0.449736 0
-0.993524 0.113556 0
-0.544876 0.536048 0
0.306798 0.828021 0
0.728035 0.59088 0
0.672575 -0.265444 0
0.398419 -0.917192 0
-0.191788 -0.739887 0
-0.870496 -0.148324 0
