# vtk DataFile Version 3.0
tp3485 scalar+vector
ASCII
DATASET UNSTRUCTURED_GRID
POINTS 121 double
0 0 0
0.125 0 0
0.114193 0.0508421 0
0.0836413 0.0928931 0
0.0386271 0.118882 0
-0.0130661 0.124315 0
-0.0625 0.108253 0
-0.101127 0.0734732 0
-0.122268 0.025989 0
-0.122268 -0.025989 0
-0.101127 -0.0734732 0
-0.0625 -0.108253 0
-0.0130661 -0.124315 0
0.0386271 -0.118882 0
0.0836413 -0.0928931 0
0.114193 -0.0508421 0
0.25 0 0
0.228386 0.101684 0
0.167283 0.185786 0
0.0772542 0.237764 0
-0.0261321 0.24863 0
-0.125 0.216506 0
-0.202254 0.146946 0
-0.244537 0.0519779 0
-0.244537 -0.0519779 0
-0.202254 -0.146946 0
-0.125 -0.216506 0
-0.0261321 -0.24863 0
0.0772542 -0.237764 0
0.167283 -0.185786 0
0.228386 -0.101684 0
0.375 0 0
0.34258 0.152526 0
0.250924 0.278679 0
0.115881 0.356646 0
-0.0391982 0.372946 0
-0.1875 0.32476 0
-0.303381 0.220419 0
-0.366805 0.0779669 0
-0.366805 -0.0779669 0
-0.303381 -0.220419 0
-0.1875 -0.32476 0
-0.0391982 -0.372946 0
0.115881 -0.356646 0
0.250924 -0.278679 0
0.34258 -0.152526 0
0.5 0 0
0.456773 0.203368 0
0.334565 0.371572 0
0.154508 0.475528 0
-0.0522642 0.497261 0
-0.25 0.433013 0
-0.404508 0.293893 0
-0.489074 0.103956 0
-0.489074 -0.103956 0
-0.404508 -0.293893 0
-0.25 -0.433013 0
-0.0522642 -0.497261 0
0.154508 -0.475528 0
0.334565 -0.371572 0
0.456773 -0.203368 0
0.625 0 0
0.570966 0.25421 0
0.418207 0.464466 0
0.193136 0.59441 0
-0.0653303 0.621576 0
-0.3125 0.541266 0
-0.505636 0.367366 0
-0.611342 0.129945 0
-0.611342 -0.129945 0
-0.505636 -0.367366 0
-0.3125 -0.541266 0
-0.0653303 -0.621576 0
0.193136 -0.59441 0
0.418207 -0.464466 0
0.570966 -0.25421 0
0.75 0 0
0.685159 0.305052 0
0.501848 0.557359 0
0.231763 0.713292 0
-0.0783963 0.745891 0
-0.375 0.649519 0
-0.606763 0.440839 0
-0.733611 0.155934 0
-0.733611 -0.155934 0
-0.606763 -0.440839 0
-0.375 -0.649519 0
-0.0783963 -0.745891 0
0.231763 -0.713292 0
0.501848 -0.557359 0
0.685159 -0.305052 0
0.875 0 0
0.799352 0.355895 0
0.585489 0.650252 0
0.27039 0.832174 0
-0.0914624 0.870207 0
-0.4375 0.757772 0
-0.70789 0.514312 0
-0.855879 0.181923 0
-0.855879 -0.181923 0
-0.70789 -0.514312 0
-0.4375 -0.757772 0
-0.0914624 -0.870207 0
0.27039 -0.832174 0
0.585489 -0.650252 0
0.799352 -0.355895 0
1 0 0
0.913545 0.406737 0
0.669131 0.743145 0
0.309017 0.951057 0
-0.104528 0.994522 0
-0.5 0.866025 0
-0.809017 0.587785 0
-0.978148 0.207912 0
-0.978148 -0.207912 0
-0.809017 -0.587785 0
-0.5 -0.866025 0
-0.104528 -0.994522 0
0.309017 -0.951057 0
0.669131 -0.743145 0
0.913545 -0.406737 0
CELLS 225 900
3 0 1 2
3 0 2 3
3 0 3 4
3 0 4 5
3 0 5 6
3 0 6 7
3 0 7 8
3 0 8 9
3 0 9 10
3 0 10 11
3 0 11 12
3 0 12 13
3 0 13 14
3 0 14 15
3 0 15 1
3 1 16 17
3 1 17 2
3 2 17 18
3 2 18 3
3 3 18 19
3 3 19 4
3 4 19 20
3 4 20 5
3 5 20 21
3 5 21 6
3 6 21 22
3 6 22 7
3 7 22 23
3 7 23 8
3 8 23 24
3 8 24 9
3 9 24 25
3 9 25 10
3 10 25 26
3 10 26 11
3 11 26 27
3 11 27 12
3 12 27 28
3 12 28 13
3 13 28 29
3 13 29 14
3 14 29 30
3 14 30 15
3 15 30 16
3 15 16 1
3 16 31 32
3 16 32 17
3 17 32 33
3 17 33 18
3 18 33 34
3 18 34 19
3 19 34 35
3 19 35 20
3 20 35 36
3 20 36 21
3 21 36 37
3 21 37 22
3 22 37 38
3 22 38 23
3 23 38 39
3 23 39 24
3 24 39 40
3 24 40 25
3 25 40 41
3 25 41 26
3 26 41 42
3 26 42 27
3 27 42 43
3 27 43 28
3 28 43 44
3 28 44 29
3 29 44 45
3 29 45 30
3 30 45 31
3 30 31 16
3 31 46 47
3 31 47 32
3 32 47 48
3 32 48 33
3 33 48 49
3 33 49 34
3 34 49 50
3 34 50 35
3 35 50 51
3 35 51 36
3 36 51 52
3 36 52 37
3 37 52 53
3 37 53 38
3 38 53 54
3 38 54 39
3 39 54 55
3 39 55 40
3 40 55 56
3 40 56 41
3 41 56 57
3 41 57 42
3 42 57 58
3 42 58 43
3 43 58 59
3 43 59 44
3 44 59 60
3 44 60 45
3 45 60 46
3 45 46 31
3 46 61 62
3 46 62 47
3 47 62 63
3 47 63 48
3 48 63 64
3 48 64 49
3 49 64 65
3 49 65 50
3 50 65 66
3 50 66 51
3 51 66 67
3 51 67 52
3 52 67 68
3 52 68 53
3 53 68 69
3 53 69 54
3 54 69 70
3 54 70 55
3 55 70 71
3 55 71 56
3 56 71 72
3 56 72 57
3 57 72 73
3 57 73 58
3 58 73 74
3 58 74 59
3 59 74 75
3 59 75 60
3 60 75 61
3 60 61 46
3 61 76 77
3 61 77 62
3 62 77 78
3 62 78 63
3 63 78 79
3 63 79 64
3 64 79 80
3 64 80 65
3 65 80 81
3 65 81 66
3 66 81 82
3 66 82 67
3 67 82 83
3 67 83 68
3 68 83 84
3 68 84 69
3 69 84 85
3 69 85 70
3 70 85 86
3 70 86 71
3 71 86 87
3 71 87 72
3 72 87 88
3 72 88 73
3 73 88 89
3 73 89 74
3 74 89 90
3 74 90 75
3 75 90 76
3 75 76 61
3 76 91 92
3 76 92 77
3 77 92 93
3 77 93 78
3 78 93 94
3 78 94 79
3 79 94 95
3 79 95 80
3 80 95 96
3 80 96 81
3 81 96 97
3 81 97 82
3 82 97 98
3 82 98 83
3 83 98 99
3 83 99 84
3 84 99 100
3 84 100 85
3 85 100 101
3 85 101 86
3 86 101 102
3 86 102 87
3 87 102 103
3 87 103 88
3 88 103 104
3 88 104 89
3 89 104 105
3 89 105 90
3 90 105 91
3 90 91 76
3 91 106 107
3 91 107 92
3 92 107 108
3 92 108 93
3 93 108 109
3 93 109 94
3 94 109 110
3 94 110 95
3 95 110 111
3 95 111 96
3 96 111 112
3 96 112 97
3 97 112 113
3 97 113 98
3 98 113 114
3 98 114 99
3 99 114 115
3 99 115 100
3 100 115 116
3 100 116 101
3 101 116 117
3 101 117 102
3 102 117 118
3 102 118 103
3 103 118 119
3 103 119 104
3 104 119 120
3 104 120 105
3 105 120 106
3 105 106 91
CELL_TYPES 225
5
5
5
5
5
5
5
5
5
5
5
5
5
5
5
5
5
5
5
5
5
5
5
5
5
5
5
5
5
5
5
5
5
5
5
5
5
5
5
5
5
5
5
5
5
5
5
5
5
5
5
5
5
5
5
5
5
5
5
5
5
5
5
5
5
5
5
5
5
5
5
5
5
5
5
5
5
5
5
5
5
5
5
5
5
5
5
5
5
5
5
5
5
5
5
5
5
5
5
5
5
5
5
5
5
5
5
5
5
5
5
5
5
5
5
5
5
5
5
5
5
5
5
5
5
5
5
5
5
5
5
5
5
5
5
5
5
5
5
5
5
5
5
5
5
5
5
5
5
5
5
5
5
5
5
5
5
5
5
5
5
5
5
5
5
5
5
5
5
5
5
5
5
5
5
5
5
5
5
5
5
5
5
5
5
5
5
5
5
5
5
5
5
5
5
5
5
5
5
5
5
5
5
5
5
5
5
5
5
5
5
5
5
5
5
5
5
5
5
5
5
5
5
5
5
POINT_DATA 121
SCALARS psi double 1
LOOKUP_TABLE default
2.46061e-13
0.183168
0.137448
0.0679612
-0.0132762
-0.092218
-0.155215
-0.191373
-0.194441
-0.163889
-0.104999
-0.0279534
0.0539255
0.12648
0.177165
0.197217
0.360316
0.272057
0.136758
-0.0221889
-0.177299
-0.301752
-0.37403
-0.381634
-0.323251
-0.208974
-0.0585641
0.101972
0.244876
0.345439
0.386273
0.520772
0.393211
0.19766
-0.0320683
-0.256251
-0.436126
-0.540591
-0.551583
-0.467201
-0.302035
-0.0846454
0.14738
0.353923
0.499269
0.558287
0.661388
0.499438
0.251131
-0.0405986
-0.325309
-0.55377
-0.686479
-0.70049
-0.59338
-0.383669
-0.107618
0.187041
0.449359
0.633978
0.708977
0.776845
0.586738
0.295179
-0.0474189
-0.381818
-0.650197
-0.806152
-0.822715
-0.697023
-0.45081
-0.126648
0.219413
0.527536
0.744442
0.832628
0.863372
0.652059
0.327998
-0.0527762
-0.424425
-0.722687
-0.89599
-0.914368
-0.774643
-0.500976
-0.140685
0.243931
0.58637
0.827419
0.925401
0.91656
0.692055
0.347887
-0.0564331
-0.450996
-0.767577
-0.951437
-0.970785
-0.822276
-0.531587
-0.148983
0.259382
0.622898
0.878709
0.982583
0.93339
0.705388
0.355419
-0.0560063
-0.457747
-0.780339
-0.968004
-0.988291
-0.837695
-0.542253
-0.153051
0.262615
0.632873
0.893701
1
VECTORS Et double
0.369004 0.929428 0
0.36146 0.880897 0
0.37123 0.894858 0
0.367392 0.91146 0
0.352487 0.919717 0
0.336377 0.914165 0
0.329723 0.898478 0
0.336928 0.883037 0
0.353225 0.878059 0
0.367828 0.886839 0
0.371076 0.903566 0
0.360817 0.917172 0
0.343842 0.918653 0
0.331383 0.907029 0
0.331685 0.889992 0
0.344547 0.878816 0
0.339961 0.755124 0
0.375668 0.791996 0
0.372159 0.843203 0
0.331757 0.87486 0
0.281197 0.866018 0
0.253936 0.822528 0
0.268015 0.773169 0
0.314116 0.750604 0
0.361733 0.769765 0
0.379356 0.817972 0
0.355323 0.863325 0
0.305537 0.875812 0
0.262945 0.84717 0
0.25573 0.796352 0
0.288667 0.756987 0
0.315826 0.604219 0
0.37927 0.668558 0
0.37391 0.758758 0
0.303292 0.815129 0
0.214147 0.80037 0
0.165466 0.724246 0
0.189462 0.637132 0
0.270258 0.596675 0
0.354386 0.629646 0
0.386177 0.714228 0
0.344592 0.794449 0
0.257151 0.817224 0
0.181716 0.767482 0
0.168206 0.678139 0
0.225561 0.608317 0
0.293485 0.479324 0
0.377755 0.564733 0
0.370673 0.684508 0
0.276923 0.75939 0
0.158544 0.739825 0
0.0938721 0.638761 0
0.125703 0.523077 0
0.232973 0.469323 0
0.344698 0.513072 0
0.386943 0.625373 0
0.331756 0.731912 0
0.215654 0.762188 0
0.115467 0.696166 0
0.0974932 0.577535 0
0.173626 0.484799 0
0.277237 0.384548 0
0.377918 0.48633 0
0.369648 0.629258 0
0.257899 0.718749 0
0.116619 0.695583 0
0.0393009 0.575091 0
0.0771044 0.437007 0
0.20502 0.372707 0
0.338395 0.424739 0
0.388973 0.558673 0
0.323285 0.68588 0
0.184797 0.722181 0
0.0651541 0.643555 0
0.0435271 0.502031 0
0.134229 0.391263 0
0.264879 0.307495 0
0.379528 0.423372 0
0.370124 0.586109 0
0.242898 0.688015 0
0.0820356 0.661655 0
-0.00601323 0.52447 0
0.0370153 0.367247 0
0.182653 0.294021 0
0.334518 0.35325 0
0.392119 0.50574 0
0.317341 0.650583 0
0.159665 0.691931 0
0.0234322 0.602422 0
-0.0012074 0.441289 0
0.102052 0.315157 0
0.255068 0.248847 0
0.379785 0.375745 0
0.368928 0.553339 0
0.229685 0.664107 0
0.0541991 0.63475 0
-0.0414102 0.484693 0
0.0061434 0.313242 0
0.165361 0.233838 0
0.330915 0.299043 0
0.393229 0.465696 0
0.311079 0.623525 0
0.138822 0.668078 0
-0.00955096 0.569883 0
-0.035855 0.393919 0
0.0773192 0.256617 0
0.247388 0.194963 0
0.382247 0.333437 0
0.369602 0.526328 0
0.217781 0.645984 0
0.0272742 0.613228 0
-0.0758512 0.449726 0
-0.023362 0.263683 0
0.150002 0.17822 0
0.329544 0.249868 0
0.396428 0.431224 0
0.306406 0.602292 0
0.119046 0.649851 0
-0.0416668 0.542457 0
-0.0693844 0.351129 0
0.0542393 0.202536 0
