# vtk DataFile Version 3.0
tp3485 scalar+vector
ASCII
DATASET UNSTRUCTURED_GRID
POINTS 121 double
0 0 0
0.125 0 0
0.114193 0.0508421 0
0.0836413 0.0928931 0
0.0386271 0.118882 0
-0.0130661 0.124315 0
-0.0625 0.108253 0
-0.101127 0.0734732 0
-0.122268 0.025989 0
-0.122268 -0.025989 0
-0.101127 -0.0734732 0
-0.0625 -0.108253 0
-0.0130661 -0.124315 0
0.0386271 -0.118882 0
0.0836413 -0.0928931 0
0.114193 -0.0508421 0
0.25 0 0
0.228386 0.101684 0
0.167283 0.185786 0
0.0772542 0.237764 0
-0.0261321 0.24863 0
-0.125 0.216506 0
-0.202254 0.146946 0
-0.244537 0.0519779 0
-0.244537 -0.0519779 0
-0.202254 -0.146946 0
-0.125 -0.216506 0
-0.0261321 -0.24863 0
0.0772542 -0.237764 0
0.167283 -0.185786 0
0.228386 -0.101684 0
0.375 0 0
0.34258 0.152526 0
0.250924 0.278679 0
0.115881 0.356646 0
-0.0391982 0.372946 0
-0.1875 0.32476 0
-0.303381 0.220419 0
-0.366805 0.0779669 0
-0.366805 -0.0779669 0
-0.303381 -0.220419 0
-0.1875 -0.32476 0
-0.0391982 -0.372946 0
0.115881 -0.356646 0
0.250924 -0.278679 0
0.34258 -0.152526 0
0.5 0 0
0.456773 0.203368 0
0.334565 0.371572 0
0.154508 0.475528 0
-0.0522642 0.497261 0
-0.25 0.433013 0
-0.404508 0.293893 0
-0.489074 0.103956 0
-0.489074 -0.103956 0
-0.404508 -0.293893 0
-0.25 -0.433013 0
-0.0522642 -0.497261 0
0.154508 -0.475528 0
0.334565 -0.371572 0
0.456773 -0.203368 0
0.625 0 0
0.570966 0.25421 0
0.418207 0.464466 0
0.193136 0.59441 0
-0.0653303 0.621576 0
-0.3125 0.541266 0
-0.505636 0.367366 0
-0.611342 0.129945 0
-0.611342 -0.129945 0
-0.505636 -0.367366 0
-0.3125 -0.541266 0
-0.0653303 -0.621576 0
0.193136 -0.59441 0
0.418207 -0.464466 0
0.570966 -0.25421 0
0.75 0 0
0.685159 0.305052 0
0.501848 0.557359 0
0.231763 0.713292 0
-0.0783963 0.745891 0
-0.375 0.649519 0
-0.606763 0.440839 0
-0.733611 0.155934 0
-0.733611 -0.155934 0
-0.606763 -0.440839 0
-0.375 -0.649519 0
-0.0783963 -0.745891 0
0.231763 -0.713292 0
0.501848 -0.557359 0
0.685159 -0.305052 0
0.875 0 0
0.799352 0.355895 0
0.585489 0.650252 0
0.27039 0.832174 0
-0.0914624 0.870207 0
-0.4375 0.757772 0
-0.70789 0.514312 0
-0.855879 0.181923 0
-0.855879 -0.181923 0
-0.70789 -0.514312 0
-0.4375 -0.757772 0
-0.0914624 -0.870207 0
0.27039 -0.832174 0
0.585489 -0.650252 0
0.799352 -0.355895 0
1 0 0
0.913545 0.406737 0
0.669131 0.743145 0
0.309017 0.951057 0
-0.104528 0.994522 0
-0.5 0.866025 0
-0.809017 0.587785 0
-0.978148 0.207912 0
-0.978148 -0.207912 0
-0.809017 -0.587785 0
-0.5 -0.866025 0
-0.104528 -0.994522 0
0.309017 -0.951057 0
0.669131 -0.743145 0
0.913545 -0.406737 0
CELLS 225 900
3 0 1 2
3 0 2 3
3 0 3 4
3 0 4 5
3 0 5 6
3 0 6 7
3 0 7 8
3 0 8 9
3 0 9 10
3 0 10 11
3 0 11 12
3 0 12 13
3 0 13 14
3 0 14 15
3 0 15 1
3 1 16 17
3 1 17 2
3 2 17 18
3 2 18 3
3 3 18 19
3 3 19 4
3 4 19 20
3 4 20 5
3 5 20 21
3 5 21 6
3 6 21 22
3 6 22 7
3 7 22 23
3 7 23 8
3 8 23 24
3 8 24 9
3 9 24 25
3 9 25 10
3 10 25 26
3 10 26 11
3 11 26 27
3 11 27 12
3 12 27 28
3 12 28 13
3 13 28 29
3 13 29 14
3 14 29 30
3 14 30 15
3 15 30 16
3 15 16 1
3 16 31 32
3 16 32 17
3 17 32 33
3 17 33 18
3 18 33 34
3 18 34 19
3 19 34 35
3 19 35 20
3 20 35 36
3 20 36 21
3 21 36 37
3 21 37 22
3 22 37 38
3 22 38 23
3 23 38 39
3 23 39 24
3 24 39 40
3 24 40 25
3 25 40 41
3 25 41 26
3 26 41 42
3 26 42 27
3 27 42 43
3 27 43 28
3 28 43 44
3 28 44 29
3 29 44 45
3 29 45 30
3 30 45 31
3 30 31 16
3 31 46 47
3 31 47 32
3 32 47 48
3 32 48 33
3 33 48 49
3 33 49 34
3 34 49 50
3 34 50 35
3 35 50 51
3 35 51 36
3 36 51 52
3 36 52 37
3 37 52 53
3 37 53 38
3 38 53 54
3 38 54 39
3 39 54 55
3 39 55 40
3 40 55 56
3 40 56 41
3 41 56 57
3 41 57 42
3 42 57 58
3 42 58 43
3 43 58 59
3 43 59 44
3 44 59 60
3 44 60 45
3 45 60 46
3 45 46 31
3 46 61 62
3 46 62 47
3 47 62 63
3 47 63 48
3 48 63 64
3 48 64 49
3 49 64 65
3 49 65 50
3 50 65 66
3 50 66 51
3 51 66 67
3 51 67 52
3 52 67 68
3 52 68 53
3 53 68 69
3 53 69 54
3 54 69 70
3 54 70 55
3 55 70 71
3 55 71 56
3 56 71 72
3 56 72 57
3 57 72 73
3 57 73 58
3 58 73 74
3 58 74 59
3 59 74 75
3 59 75 60
3 60 75 61
3 60 61 46
3 61 76 77
3 61 77 62
3 62 77 78
3 62 78 63
3 63 78 79
3 63 79 64
3 64 79 80
3 64 80 65
3 65 80 81
3 65 81 66
3 66 81 82
3 66 82 67
3 67 82 83
3 67 83 68
3 68 83 84
3 68 84 69
3 69 84 85
3 69 85 70
3 70 85 86
3 70 86 71
3 71 86 87
3 71 87 72
3 72 87 88
3 72 88 73
3 73 88 89
3 73 89 74
3 74 89 90
3 74 90 75
3 75 90 76
3 75 76 61
3 76 91 92
3 76 92 77
3 77 92 93
3 77 93 78
3 78 93 94
3 78 94 79
3 79 94 95
3 79 95 80
3 80 95 96
3 80 96 81
3 81 96 97
3 81 97 82
3 82 97 98
3 82 98 83
3 83 98 99
3 83 99 84
3 84 99 100
3 84 100 85
3 85 100 101
3 85 101 86
3 86 101 102
3 86 102 87
3 87 102 103
3 87 103 88
3 88 103 104
3 88 104 89
3 89 104 105
3 89 105 90
3 90 105 91
3 90 91 76
3 91 106 107
3 91 107 92
3 92 107 108
3 92 108 93
3 93 108 109
3 93 109 94
3 94 109 110
3 94 110 95
3 95 110 111
3 95 111 96
3 96 111 112
3 96 112 97
3 97 112 113
3 97 113 98
3 98 113 114
3 98 114 99
3 99 114 115
3 99 115 100
3 100 115 116
3 100 116 101
3 101 116 117
3 101 117 102
3 102 117 118
3 102 118 103
3 103 118 119
3 103 119 104
3 104 119 120
3 104 120 105
3 105 120 106
3 105 106 91
CELL_TYPES 225
5
5
5
5
5
5
5
5
5
5
5
5
5
5
5
5
5
5
5
5
5
5
5
5
5
5
5
5
5
5
5
5
5
5
5
5
5
5
5
5
5
5
5
5
5
5
5
5
5
5
5
5
5
5
5
5
5
5
5
5
5
5
5
5
5
5
5
5
5
5
5
5
5
5
5
5
5
5
5
5
5
5
5
5
5
5
5
5
5
5
5
5
5
5
5
5
5
5
5
5
5
5
5
5
5
5
5
5
5
5
5
5
5
5
5
5
5
5
5
5
5
5
5
5
5
5
5
5
5
5
5
5
5
5
5
5
5
5
5
5
5
5
5
5
5
5
5
5
5
5
5
5
5
5
5
5
5
5
5
5
5
5
5
5
5
5
5
5
5
5
5
5
5
5
5
5
5
5
5
5
5
5
5
5
5
5
5
5
5
5
5
5
5
5
5
5
5
5
5
5
5
5
5
5
5
5
5
5
5
5
5
5
5
5
5
5
5
5
5
5
5
5
5
5
5
POINT_DATA 121
SCALARS psi double 1
LOOKUP_TABLE default
4.33554e-13
0.0361371
0.0215668
-0.00727514
-0.0313028
-0.0346162
-0.0150227
0.0145119
0.0344434
0.0315824
0.00782207
-0.0211144
-0.0360787
-0.0271683
-0.000279577
0.0267941
0.139428
0.0853594
-0.025195
-0.119077
-0.134161
-0.0604656
0.0532422
0.131718
0.12303
0.0329291
-0.0789626
-0.138602
-0.106523
-0.00395345
0.101232
0.293616
0.180323
-0.0522965
-0.25031
-0.282683
-0.127994
0.111393
0.277068
0.259396
0.0700715
-0.165622
-0.291717
-0.224771
-0.00908604
0.212612
0.476331
0.292955
-0.0842806
-0.405744
-0.458711
-0.208131
0.180177
0.449255
0.421044
0.114211
-0.268199
-0.473132
-0.364975
-0.0152996
0.3445
0.662103
0.407837
-0.11631
-0.56349
-0.637787
-0.290036
0.249644
0.624124
0.585597
0.159558
-0.372067
-0.657481
-0.507814
-0.022107
0.478229
0.8286
0.510693
-0.145159
-0.704954
-0.798253
-0.363318
0.312039
0.780908
0.733019
0.200064
-0.465282
-0.822732
-0.635749
-0.0280659
0.59819
0.949507
0.585194
-0.166365
-0.807833
-0.914727
-0.416311
0.357595
0.894866
0.839969
0.229233
-0.533196
-0.942788
-0.728501
-0.0321363
0.685494
1
0.618708
-0.172007
-0.848898
-0.964041
-0.44124
0.373546
0.941142
0.885948
0.244488
-0.55876
-0.992254
-0.769136
-0.0370503
0.719553
VECTORS Et double
-1.79637e-13 2.54876e-13 0
0.0290388 0.368071 0
0.172558 0.324449 0
0.288458 0.222718 0
0.357077 0.083966 0
0.36334 -0.0663757 0
0.303803 -0.204919 0
0.190512 -0.310761 0
0.0464966 -0.364877 0
-0.102962 -0.354414 0
-0.235232 -0.279741 0
-0.329803 -0.156377 0
-0.368573 -0.00870438 0
-0.341395 0.138465 0
-0.252591 0.263181 0
-0.120726 0.34532 0
0.0497141 0.56636 0
0.345394 0.536027 0
0.518118 0.427417 0
0.568012 0.189216 0
0.56238 -0.130525 0
0.519133 -0.402187 0
0.380286 -0.539715 0
0.11245 -0.569514 0
-0.208072 -0.556525 0
-0.449929 -0.496132 0
-0.554362 -0.324442 0
-0.56878 -0.0320616 0
-0.548083 0.28027 0
-0.465861 0.488454 0
-0.260399 0.563356 0
0.0619808 0.616764 0
0.465499 0.624163 0
0.646229 0.557702 0
0.63885 0.270002 0
0.61611 -0.175585 0
0.621983 -0.534727 0
0.508732 -0.655549 0
0.165219 -0.628958 0
-0.283232 -0.618422 0
-0.587609 -0.612155 0
-0.655239 -0.443958 0
-0.621148 -0.0531345 0
-0.621954 0.380939 0
-0.591588 0.624337 0
-0.363831 0.648581 0
0.0680037 0.579934 0
0.543108 0.634657 0
0.703999 0.632944 0
0.624391 0.328738 0
0.58372 -0.204925 0
0.651679 -0.616785 0
0.589574 -0.696003 0
0.205219 -0.601573 0
-0.333391 -0.596177 0
-0.667454 -0.660312 0
-0.676547 -0.523903 0
-0.586044 -0.0709124 0
-0.614513 0.447642 0
-0.6555 0.695744 0
-0.436244 0.65093 0
0.0700634 0.537345 0
0.58015 0.62263 0
0.722804 0.665372 0
0.596006 0.359137 0
0.543986 -0.218883 0
0.652284 -0.654723 0
0.627179 -0.703189 0
0.226506 -0.564953 0
-0.357802 -0.562957 0
-0.702411 -0.67331 0
-0.671188 -0.562908 0
-0.544529 -0.081006 0
-0.590837 0.480015 0
-0.679456 0.724113 0
-0.472756 0.633315 0
0.0701026 0.511388 0
0.591324 0.610521 0
0.723736 0.673986 0
0.575983 0.369982 0
0.519384 -0.222985 0
0.645894 -0.665506 0
0.638651 -0.698821 0
0.234413 -0.541405 0
-0.36538 -0.541312 0
-0.711249 -0.672604 0
-0.661219 -0.575708 0
-0.518938 -0.0851357 0
-0.573485 0.490057 0
-0.683899 0.729577 0
-0.485313 0.617964 0
0.0691979 0.503179 0
0.587544 0.605337 0
0.716439 0.67176 0
0.566954 0.36956 0
0.5118 -0.221497 0
0.641544 -0.660828 0
0.636962 -0.690829 0
0.234395 -0.532448 0
-0.36322 -0.53447 0
-0.705658 -0.669038 0
-0.652688 -0.57449 0
-0.51026 -0.0855425 0
-0.56746 0.487124 0
-0.681046 0.723098 0
-0.484507 0.609082 0
0.0680406 0.472954 0
0.586144 0.587283 0
0.702887 0.670022 0
0.538845 0.373172 0
0.483246 -0.221156 0
0.627927 -0.657457 0
0.637855 -0.673131 0
0.237462 -0.502468 0
-0.363241 -0.50865 0
-0.699502 -0.659814 0
-0.630996 -0.577154 0
-0.479552 -0.0877004 0
-0.54523 0.486828 0
-0.675858 0.713467 0
-0.488025 0.583808 0
