# vtk DataFile Version 3.0
tp3485 scalar+vector
ASCII
DATASET UNSTRUCTURED_GRID
POINTS 121 double
0 0 0
0.125 0 0
0.114193 0.0508421 0
0.0836413 0.0928931 0
0.0386271 0.118882 0
-0.0130661 0.124315 0
-0.0625 0.108253 0
-0.101127 0.0734732 0
-0.122268 0.025989 0
-0.122268 -0.025989 0
-0.101127 -0.0734732 0
-0.0625 -0.108253 0
-0.0130661 -0.124315 0
0.0386271 -0.118882 0
0.0836413 -0.0928931 0
0.114193 -0.0508421 0
0.25 0 0
0.228386 0.101684 0
0.167283 0.185786 0
0.0772542 0.237764 0
-0.0261321 0.24863 0
-0.125 0.216506 0
-0.202254 0.146946 0
-0.244537 0.0519779 0
-0.244537 -0.0519779 0
-0.202254 -0.146946 0
-0.125 -0.216506 0
-0.0261321 -0.24863 0
0.0772542 -0.237764 0
0.167283 -0.185786 0
0.228386 -0.101684 0
0.375 0 0
0.34258 0.152526 0
0.250924 0.278679 0
0.115881 0.356646 0
-0.0391982 0.372946 0
-0.1875 0.32476 0
-0.303381 0.220419 0
-0.366805 0.0779669 0
-0.366805 -0.0779669 0
-0.303381 -0.220419 0
-0.1875 -0.32476 0
-0.0391982 -0.372946 0
0.115881 -0.356646 0
0.250924 -0.278679 0
0.34258 -0.152526 0
0.5 0 0
0.456773 0.203368 0
0.334565 0.371572 0
0.154508 0.475528 0
-0.0522642 0.497261 0
-0.25 0.433013 0
-0.404508 0.293893 0
-0.489074 0.103956 0
-0.489074 -0.103956 0
-0.404508 -0.293893 0
-0.25 -0.433013 0
-0.0522642 -0.497261 0
0.154508 -0.475528 0
0.334565 -0.371572 0
0.456773 -0.203368 0
0.625 0 0
0.570966 0.25421 0
0.418207 0.464466 0
0.193136 0.59441 0
-0.0653303 0.621576 0
-0.3125 0.541266 0
-0.505636 0.367366 0
-0.611342 0.129945 0
-0.611342 -0.129945 0
-0.505636 -0.367366 0
-0.3125 -0.541266 0
-0.0653303 -0.621576 0
0.193136 -0.59441 0
0.418207 -0.464466 0
0.570966 -0.25421 0
0.75 0 0
0.685159 0.305052 0
0.501848 0.557359 0
0.231763 0.713292 0
-0.0783963 0.745891 0
-0.375 0.649519 0
-0.606763 0.440839 0
-0.733611 0.155934 0
-0.733611 -0.155934 0
-0.606763 -0.440839 0
-0.375 -0.649519 0
-0.0783963 -0.745891 0
0.231763 -0.713292 0
0.501848 -0.557359 0
0.685159 -0.305052 0
0.875 0 0
0.799352 0.355895 0
0.585489 0.650252 0
0.27039 0.832174 0
-0.0914624 0.870207 0
-0.4375 0.757772 0
-0.70789 0.514312 0
-0.855879 0.181923 0
-0.855879 -0.181923 0
-0.70789 -0.514312 0
-0.4375 -0.757772 0
-0.0914624 -0.870207 0
0.27039 -0.832174 0
0.585489 -0.650252 0
0.799352 -0.355895 0
1 0 0
0.913545 0.406737 0
0.669131 0.743145 0
0.309017 0.951057 0
-0.104528 0.994522 0
-0.5 0.866025 0
-0.809017 0.587785 0
-0.978148 0.207912 0
-0.978148 -0.207912 0
-0.809017 -0.587785 0
-0.5 -0.866025 0
-0.104528 -0.994522 0
0.309017 -0.951057 0
0.669131 -0.743145 0
0.913545 -0.406737 0
CELLS 225 900
3 0 1 2
3 0 2 3
3 0 3 4
3 0 4 5
3 0 5 6
3 0 6 7
3 0 7 8
3 0 8 9
3 0 9 10
3 0 10 11
3 0 11 12
3 0 12 13
3 0 13 14
3 0 14 15
3 0 15 1
3 1 16 17
3 1 17 2
3 2 17 18
3 2 18 3
3 3 18 19
3 3 19 4
3 4 19 20
3 4 20 5
3 5 20 21
3 5 21 6
3 6 21 22
3 6 22 7
3 7 22 23
3 7 23 8
3 8 23 24
3 8 24 9
3 9 24 25
3 9 25 10
3 10 25 26
3 10 26 11
3 11 26 27
3 11 27 12
3 12 27 28
3 12 28 13
3 13 28 29
3 13 29 14
3 14 29 30
3 14 30 15
3 15 30 16
3 15 16 1
3 16 31 32
3 16 32 17
3 17 32 33
3 17 33 18
3 18 33 34
3 18 34 19
3 19 34 35
3 19 35 20
3 20 35 36
3 20 36 21
3 21 36 37
3 21 37 22
3 22 37 38
3 22 38 23
3 23 38 39
3 23 39 24
3 24 39 40
3 24 40 25
3 25 40 41
3 25 41 26
3 26 41 42
3 26 42 27
3 27 42 43
3 27 43 28
3 28 43 44
3 28 44 29
3 29 44 45
3 29 45 30
3 30 45 31
3 30 31 16
3 31 46 47
3 31 47 32
3 32 47 48
3 32 48 33
3 33 48 49
3 33 49 34
3 34 49 50
3 34 50 35
3 35 50 51
3 35 51 36
3 36 51 52
3 36 52 37
3 37 52 53
3 37 53 38
3 38 53 54
3 38 54 39
3 39 54 55
3 39 55 40
3 40 55 56
3 40 56 41
3 41 56 57
3 41 57 42
3 42 57 58
3 42 58 43
3 43 58 59
3 43 59 44
3 44 59 60
3 44 60 45
3 45 60 46
3 45 46 31
3 46 61 62
3 46 62 47
3 47 62 63
3 47 63 48
3 48 63 64
3 48 64 49
3 49 64 65
3 49 65 50
3 50 65 66
3 50 66 51
3 51 66 67
3 51 67 52
3 52 67 68
3 52 68 53
3 53 68 69
3 53 69 54
3 54 69 70
3 54 70 55
3 55 70 71
3 55 71 56
3 56 71 72
3 56 72 57
3 57 72 73
3 57 73 58
3 58 73 74
3 58 74 59
3 59 74 75
3 59 75 60
3 60 75 61
3 60 61 46
3 61 76 77
3 61 77 62
3 62 77 78
3 62 78 63
3 63 78 79
3 63 79 64
3 64 79 80
3 64 80 65
3 65 80 81
3 65 81 66
3 66 81 82
3 66 82 67
3 67 82 83
3 67 83 68
3 68 83 84
3 68 84 69
3 69 84 85
3 69 85 70
3 70 85 86
3 70 86 71
3 71 86 87
3 71 87 72
3 72 87 88
3 72 88 73
3 73 88 89
3 73 89 74
3 74 89 90
3 74 90 75
3 75 90 76
3 75 76 61
3 76 91 92
3 76 92 77
3 77 92 93
3 77 93 78
3 78 93 94
3 78 94 79
3 79 94 95
3 79 95 80
3 80 95 96
3 80 96 81
3 81 96 97
3 81 97 82
3 82 97 98
3 82 98 83
3 83 98 99
3 83 99 84
3 84 99 100
3 84 100 85
3 85 100 101
3 85 101 86
3 86 101 102
3 86 102 87
3 87 102 103
3 87 103 88
3 88 103 104
3 88 104 89
3 89 104 105
3 89 105 90
3 90 105 91
3 90 91 76
3 91 106 107
3 91 107 92
3 92 107 108
3 92 108 93
3 93 108 109
3 93 109 94
3 94 109 110
3 94 110 95
3 95 110 111
3 95 111 96
3 96 111 112
3 96 112 97
3 97 112 113
3 97 113 98
3 98 113 114
3 98 114 99
3 99 114 115
3 99 115 100
3 100 115 116
3 100 116 101
3 101 116 117
3 101 117 102
3 102 117 118
3 102 118 103
3 103 118 119
3 103 119 104
3 104 119 120
3 104 120 105
3 105 120 106
3 105 106 91
CELL_TYPES 225
5
5
5
5
5
5
5
5
5
5
5
5
5
5
5
5
5
5
5
5
5
5
5
5
5
5
5
5
5
5
5
5
5
5
5
5
5
5
5
5
5
5
5
5
5
5
5
5
5
5
5
5
5
5
5
5
5
5
5
5
5
5
5
5
5
5
5
5
5
5
5
5
5
5
5
5
5
5
5
5
5
5
5
5
5
5
5
5
5
5
5
5
5
5
5
5
5
5
5
5
5
5
5
5
5
5
5
5
5
5
5
5
5
5
5
5
5
5
5
5
5
5
5
5
5
5
5
5
5
5
5
5
5
5
5
5
5
5
5
5
5
5
5
5
5
5
5
5
5
5
5
5
5
5
5
5
5
5
5
5
5
5
5
5
5
5
5
5
5
5
5
5
5
5
5
5
5
5
5
5
5
5
5
5
5
5
5
5
5
5
5
5
5
5
5
5
5
5
5
5
5
5
5
5
5
5
5
5
5
5
5
5
5
5
5
5
5
5
5
5
5
5
5
5
5
POINT_DATA 121
SCALARS psi double 1
LOOKUP_TABLE default
8.31422e-14
-0.342096
-0.55006
-0.662915
-0.661145
-0.545057
-0.334724
-0.0665143
0.213196
0.456044
0.620037
0.67682
0.616575
0.449718
0.205101
-0.0749796
-0.499971
-0.808997
-0.978141
-0.978155
-0.809037
-0.500029
-0.104562
0.308985
0.669106
0.913532
1
0.913559
0.669156
0.309049
-0.104495
-0.39981
-0.643667
-0.776228
-0.774572
-0.638986
-0.392913
-0.078902
0.248752
0.533394
0.725808
0.792723
0.722568
0.527476
0.241178
-0.0868222
-0.11859
-0.189702
-0.228012
-0.226897
-0.18655
-0.113946
-0.0216399
0.074408
0.15759
0.213523
0.232536
0.211342
0.153605
0.0693074
-0.0269735
0.168851
0.272359
0.328773
0.328339
0.271133
0.167045
0.0340739
-0.104789
-0.225533
-0.307281
-0.335896
-0.306432
-0.223984
-0.102806
0.0361475
0.325411
0.523392
0.630873
0.629271
0.518862
0.318737
0.0634994
-0.202718
-0.433883
-0.590026
-0.644148
-0.586891
-0.428156
-0.195388
0.0711642
0.29216
0.469582
0.565808
0.564202
0.46504
0.285468
0.0565364
-0.182171
-0.389379
-0.529261
-0.577628
-0.526118
-0.383637
-0.174823
0.0642207
0
0
0
0
0
0
0
0
0
0
0
0
0
0
0
VECTORS Et double
0.503827 0.863804 0
0.187051 0.72046 0
0.0788846 0.568767 0
0.119237 0.386881 0
0.281406 0.295164 0
0.458077 0.354307 0
0.532341 0.525175 0
0.455054 0.694696 0
0.27736 0.750692 0
0.116846 0.656109 0
0.0797304 0.473535 0
0.190574 0.323787 0
0.376027 0.305959 0
0.513368 0.431848 0
0.511714 0.618149 0
0.372158 0.741579 0
-0.228159 0.351169 0
-0.434619 0.0668854 0
-0.361504 -0.276767 0
-0.0571965 -0.45238 0
0.27693 -0.343743 0
0.419773 -0.0227469 0
0.276806 0.298194 0
-0.0573635 0.4067 0
-0.361602 0.230969 0
-0.434584 -0.112711 0
-0.228014 -0.396914 0
0.121413 -0.433572 0
0.382467 -0.198426 0
0.382398 0.152918 0
0.121253 0.387962 0
-0.359467 0.0829475 0
-0.552271 -0.184525 0
-0.482512 -0.506781 0
-0.196351 -0.670571 0
0.116848 -0.567509 0
0.249828 -0.265794 0
0.114592 0.0349153 0
-0.199369 0.13563 0
-0.484296 -0.0302979 0
-0.55164 -0.353067 0
-0.356839 -0.619089 0
-0.0287984 -0.652326 0
0.215404 -0.430784 0
0.214169 -0.101067 0
-0.0316845 0.11864 0
-0.283082 -0.0419944 0
-0.404146 -0.211062 0
-0.359512 -0.41416 0
-0.178716 -0.516889 0
0.0186033 -0.45127 0
0.101871 -0.260725 0
0.015986 -0.0713462 0
-0.182218 -0.00845188 0
-0.361582 -0.113662 0
-0.403414 -0.317355 0
-0.280032 -0.484739 0
-0.0730823 -0.50505 0
0.0804879 -0.364847 0
0.0790554 -0.156908 0
-0.0764318 -0.0188342 0
-0.137839 -0.0812292 0
-0.179598 -0.140062 0
-0.163818 -0.210462 0
-0.100942 -0.245841 0
-0.032578 -0.222789 0
-0.00396441 -0.15656 0
-0.0340362 -0.0909798 0
-0.102894 -0.0694457 0
-0.164971 -0.106208 0
-0.17919 -0.176939 0
-0.13614 -0.234834 0
-0.0643101 -0.241581 0
-0.0112324 -0.192716 0
-0.0120306 -0.120574 0
-0.0661763 -0.0728946 0
0.0195078 -0.0845339 0
0.0523577 -0.0391991 0
0.0406478 0.0155472 0
-0.00787047 0.043478 0
-0.0610938 0.0261102 0
-0.0838004 -0.025063 0
-0.0609646 -0.0761789 0
-0.00769802 -0.0934115 0
0.0407507 -0.065358 0
0.0523213 -0.0105825 0
0.0193564 0.0346693 0
-0.0363282 0.0404505 0
-0.0778856 0.00293668 0
-0.0778146 -0.0530478 0
-0.0361627 -0.0904562 0
0.169813 -0.0730716 0
0.269741 0.0660793 0
0.233199 0.233451 0
0.0843647 0.318286 0
-0.0782691 0.264449 0
-0.147084 0.107563 0
-0.0765408 -0.0485535 0
0.0866786 -0.100592 0
0.234566 -0.0141163 0
0.269259 0.153648 0
0.167797 0.291687 0
-0.00267412 0.308652 0
-0.12935 0.193319 0
-0.128404 0.0220074 0
-0.000461902 -0.0919193 0
0.309176 -0.0565985 0
0.469658 0.167273 0
0.410676 0.436338 0
0.171252 0.572537 0
-0.0901697 0.485749 0
-0.200596 0.233399 0
-0.0869613 -0.0175143 0
0.175545 -0.100962 0
0.41321 0.0382817 0
0.468754 0.308068 0
0.30544 0.529886 0
0.0313174 0.556926 0
-0.172203 0.371312 0
-0.170444 0.0958656 0
0.0354232 -0.0871366 0
