# vtk DataFile Version 3.0
tp3485 scalar+vector
ASCII
DATASET UNSTRUCTURED_GRID
POINTS 121 double
0 0 0
0.125 0 0
0.114193 0.0508421 0
0.0836413 0.0928931 0
0.0386271 0.118882 0
-0.0130661 0.124315 0
-0.0625 0.108253 0
-0.101127 0.0734732 0
-0.122268 0.025989 0
-0.122268 -0.025989 0
-0.101127 -0.0734732 0
-0.0625 -0.108253 0
-0.0130661 -0.124315 0
0.0386271 -0.118882 0
0.0836413 -0.0928931 0
0.114193 -0.0508421 0
0.25 0 0
0.228386 0.101684 0
0.167283 0.185786 0
0.0772542 0.237764 0
-0.0261321 0.24863 0
-0.125 0.216506 0
-0.202254 0.146946 0
-0.244537 0.0519779 0
-0.244537 -0.0519779 0
-0.202254 -0.146946 0
-0.125 -0.216506 0
-0.0261321 -0.24863 0
0.0772542 -0.237764 0
0.167283 -0.185786 0
0.228386 -0.101684 0
0.375 0 0
0.34258 0.152526 0
0.250924 0.278679 0
0.115881 0.356646 0
-0.0391982 0.372946 0
-0.1875 0.32476 0
-0.303381 0.220419 0
-0.366805 0.0779669 0
-0.366805 -0.0779669 0
-0.303381 -0.220419 0
-0.1875 -0.32476 0
-0.0391982 -0.372946 0
0.115881 -0.356646 0
0.250924 -0.278679 0
0.34258 -0.152526 0
0.5 0 0
0.456773 0.203368 0
0.334565 0.371572 0
0.154508 0.475528 0
-0.0522642 0.497261 0
-0.25 0.433013 0
-0.404508 0.293893 0
-0.489074 0.103956 0
-0.489074 -0.103956 0
-0.404508 -0.293893 0
-0.25 -0.433013 0
-0.0522642 -0.497261 0
0.154508 -0.475528 0
0.334565 -0.371572 0
0.456773 -0.203368 0
0.625 0 0
0.570966 0.25421 0
0.418207 0.464466 0
0.193136 0.59441 0
-0.0653303 0.621576 0
-0.3125 0.541266 0
-0.505636 0.367366 0
-0.611342 0.129945 0
-0.611342 -0.129945 0
-0.505636 -0.367366 0
-0.3125 -0.541266 0
-0.0653303 -0.621576 0
0.193136 -0.59441 0
0.418207 -0.464466 0
0.570966 -0.25421 0
0.75 0 0
0.685159 0.305052 0
0.501848 0.557359 0
0.231763 0.713292 0
-0.0783963 0.745891 0
-0.375 0.649519 0
-0.606763 0.440839 0
-0.733611 0.155934 0
-0.733611 -0.155934 0
-0.606763 -0.440839 0
-0.375 -0.649519 0
-0.0783963 -0.745891 0
0.231763 -0.713292 0
0.501848 -0.557359 0
0.685159 -0.305052 0
0.875 0 0
0.799352 0.355895 0
0.585489 0.650252 0
0.27039 0.832174 0
-0.0914624 0.870207 0
-0.4375 0.757772 0
-0.70789 0.514312 0
-0.855879 0.181923 0
-0.855879 -0.181923 0
-0.70789 -0.514312 0
-0.4375 -0.757772 0
-0.0914624 -0.870207 0
0.27039 -0.832174 0
0.585489 -0.650252 0
0.799352 -0.355895 0
1 0 0
0.913545 0.406737 0
0.669131 0.743145 0
0.309017 0.951057 0
-0.104528 0.994522 0
-0.5 0.866025 0
-0.809017 0.587785 0
-0.978148 0.207912 0
-0.978148 -0.207912 0
-0.809017 -0.587785 0
-0.5 -0.866025 0
-0.104528 -0.994522 0
0.309017 -0.951057 0
0.669131 -0.743145 0
0.913545 -0.406737 0
CELLS 225 900
3 0 1 2
3 0 2 3
3 0 3 4
3 0 4 5
3 0 5 6
3 0 6 7
3 0 7 8
3 0 8 9
3 0 9 10
3 0 10 11
3 0 11 12
3 0 12 13
3 0 13 14
3 0 14 15
3 0 15 1
3 1 16 17
3 1 17 2
3 2 17 18
3 2 18 3
3 3 18 19
3 3 19 4
3 4 19 20
3 4 20 5
3 5 20 21
3 5 21 6
3 6 21 22
3 6 22 7
3 7 22 23
3 7 23 8
3 8 23 24
3 8 24 9
3 9 24 25
3 9 25 10
3 10 25 26
3 10 26 11
3 11 26 27
3 11 27 12
3 12 27 28
3 12 28 13
3 13 28 29
3 13 29 14
3 14 29 30
3 14 30 15
3 15 30 16
3 15 16 1
3 16 31 32
3 16 32 17
3 17 32 33
3 17 33 18
3 18 33 34
3 18 34 19
3 19 34 35
3 19 35 20
3 20 35 36
3 20 36 21
3 21 36 37
3 21 37 22
3 22 37 38
3 22 38 23
3 23 38 39
3 23 39 24
3 24 39 40
3 24 40 25
3 25 40 41
3 25 41 26
3 26 41 42
3 26 42 27
3 27 42 43
3 27 43 28
3 28 43 44
3 28 44 29
3 29 44 45
3 29 45 30
3 30 45 31
3 30 31 16
3 31 46 47
3 31 47 32
3 32 47 48
3 32 48 33
3 33 48 49
3 33 49 34
3 34 49 50
3 34 50 35
3 35 50 51
3 35 51 36
3 36 51 52
3 36 52 37
3 37 52 53
3 37 53 38
3 38 53 54
3 38 54 39
3 39 54 55
3 39 55 40
3 40 55 56
3 40 56 41
3 41 56 57
3 41 57 42
3 42 57 58
3 42 58 43
3 43 58 59
3 43 59 44
3 44 59 60
3 44 60 45
3 45 60 46
3 45 46 31
3 46 61 62
3 46 62 47
3 47 62 63
3 47 63 48
3 48 63 64
3 48 64 49
3 49 64 65
3 49 65 50
3 50 65 66
3 50 66 51
3 51 66 67
3 51 67 52
3 52 67 68
3 52 68 53
3 53 68 69
3 53 69 54
3 54 69 70
3 54 70 55
3 55 70 71
3 55 71 56
3 56 71 72
3 56 72 57
3 57 72 73
3 57 73 58
3 58 73 74
3 58 74 59
3 59 74 75
3 59 75 60
3 60 75 61
3 60 61 46
3 61 76 77
3 61 77 62
3 62 77 78
3 62 78 63
3 63 78 79
3 63 79 64
3 64 79 80
3 64 80 65
3 65 80 81
3 65 81 66
3 66 81 82
3 66 82 67
3 67 82 83
3 67 83 68
3 68 83 84
3 68 84 69
3 69 84 85
3 69 85 70
3 70 85 86
3 70 86 71
3 71 86 87
3 71 87 72
3 72 87 88
3 72 88 73
3 73 88 89
3 73 89 74
3 74 89 90
3 74 90 75
3 75 90 76
3 75 76 61
3 76 91 92
3 76 92 77
3 77 92 93
3 77 93 78
3 78 93 94
3 78 94 79
3 79 94 95
3 79 95 80
3 80 95 96
3 80 96 81
3 81 96 97
3 81 97 82
3 82 97 98
3 82 98 83
3 83 98 99
3 83 99 84
3 84 99 100
3 84 100 85
3 85 100 101
3 85 101 86
3 86 101 102
3 86 102 87
3 87 102 103
3 87 103 88
3 88 103 104
3 88 104 89
3 89 104 105
3 89 105 90
3 90 105 91
3 90 91 76
3 91 106 107
3 91 107 92
3 92 107 108
3 92 108 93
3 93 108 109
3 93 109 94
3 94 109 110
3 94 110 95
3 95 110 111
3 95 111 96
3 96 111 112
3 96 112 97
3 97 112 113
3 97 113 98
3 98 113 114
3 98 114 99
3 99 114 115
3 99 115 100
3 100 115 116
3 100 116 101
3 101 116 117
3 101 117 102
3 102 117 118
3 102 118 103
3 103 118 119
3 103 119 104
3 104 119 120
3 104 120 105
3 105 120 106
3 105 106 91
CELL_TYPES 225
5
5
5
5
5
5
5
5
5
5
5
5
5
5
5
5
5
5
5
5
5
5
5
5
5
5
5
5
5
5
5
5
5
5
5
5
5
5
5
5
5
5
5
5
5
5
5
5
5
5
5
5
5
5
5
5
5
5
5
5
5
5
5
5
5
5
5
5
5
5
5
5
5
5
5
5
5
5
5
5
5
5
5
5
5
5
5
5
5
5
5
5
5
5
5
5
5
5
5
5
5
5
5
5
5
5
5
5
5
5
5
5
5
5
5
5
5
5
5
5
5
5
5
5
5
5
5
5
5
5
5
5
5
5
5
5
5
5
5
5
5
5
5
5
5
5
5
5
5
5
5
5
5
5
5
5
5
5
5
5
5
5
5
5
5
5
5
5
5
5
5
5
5
5
5
5
5
5
5
5
5
5
5
5
5
5
5
5
5
5
5
5
5
5
5
5
5
5
5
5
5
5
5
5
5
5
5
5
5
5
5
5
5
5
5
5
5
5
5
5
5
5
5
5
5
POINT_DATA 121
SCALARS psi double 1
LOOKUP_TABLE default
2.15912e-13
-0.387888
-0.305292
-0.169909
-0.00514663
0.160505
0.298405
0.384707
0.40449
0.354333
0.242909
0.0894831
-0.0794148
-0.234581
-0.349186
-0.403414
-0.712821
-0.563829
-0.317345
-0.01599
0.28813
0.54243
0.702939
0.741903
0.652585
0.45043
0.170391
-0.13911
-0.424558
-0.636595
-0.73856
-0.9091
-0.718488
-0.403644
-0.0190055
0.368919
0.693054
0.897354
0.946493
0.831975
0.573601
0.216046
-0.178865
-0.542849
-0.812969
-0.94252
-0.960324
-0.758629
-0.42576
-0.0192737
0.390546
0.732836
0.948413
1
0.878678
0.605425
0.227488
-0.189783
-0.57424
-0.859405
-0.995971
-0.86483
-0.683236
-0.383505
-0.0174626
0.3516
0.659867
0.854037
0.900537
0.791325
0.545287
0.204963
-0.170801
-0.517032
-0.773863
-0.896886
-0.662152
-0.52315
-0.293692
-0.0134509
0.269116
0.505149
0.653838
0.689473
0.605891
0.417545
0.157002
-0.130688
-0.395781
-0.59244
-0.686661
-0.405743
-0.320563
-0.179954
-0.00823009
0.164917
0.309549
0.400657
0.422487
0.371266
0.25585
0.0961943
-0.0800938
-0.242533
-0.363036
-0.420767
0
0
0
0
0
0
0
0
0
0
0
0
0
0
0
VECTORS Et double
0.955786 -0.294064 0
0.745604 -0.275462 0
0.79091 -0.324403 0
0.857596 -0.323481 0
0.901533 -0.273307 0
0.893646 -0.207083 0
0.839154 -0.168631 0
0.774117 -0.183397 0
0.741572 -0.24161 0
0.763055 -0.304747 0
0.824351 -0.331029 0
0.884897 -0.303064 0
0.904628 -0.239357 0
0.870486 -0.182066 0
0.805066 -0.169102 0
0.751658 -0.209045 0
0.300987 -0.219693 0
0.41873 -0.356343 0
0.599066 -0.360279 0
0.722659 -0.228897 0
0.707724 -0.0491373 0
0.564142 0.0600457 0
0.386929 0.0264017 0
0.293352 -0.127806 0
0.345336 -0.300532 0
0.50848 -0.377476 0
0.674826 -0.307723 0
0.734296 -0.13743 0
0.647537 0.0207138 0
0.47196 0.0620578 0
0.323752 -0.0407567 0
-0.121528 -0.159193 0
0.057903 -0.367082 0
0.332458 -0.372845 0
0.520453 -0.172667 0
0.497485 0.100986 0
0.278753 0.267027 0
0.00899931 0.215581 0
-0.133268 -0.0193094 0
-0.0539064 -0.282207 0
0.194568 -0.399143 0
0.44773 -0.292736 0
0.538052 -0.0333993 0
0.405765 0.207253 0
0.138408 0.269973 0
-0.0870978 0.113255 0
-0.402275 -0.10963 0
-0.189883 -0.354934 0
0.134531 -0.361238 0
0.356291 -0.124369 0
0.328649 0.198927 0
0.0698972 0.394713 0
-0.248738 0.33343 0
-0.416404 0.0556296 0
-0.322149 -0.254855 0
-0.0283463 -0.392564 0
0.270585 -0.266371 0
0.376829 0.0402171 0
0.220081 0.32432 0
-0.0959339 0.397935 0
-0.362095 0.212348 0
-0.559904 -0.0769646 0
-0.333545 -0.338319 0
0.0121419 -0.344982 0
0.248404 -0.0925446 0
0.218896 0.251946 0
-0.0568545 0.460525 0
-0.396374 0.395172 0
-0.574987 0.0991282 0
-0.474501 -0.231699 0
-0.16141 -0.37839 0
0.157102 -0.243873 0
0.270262 0.0828364 0
0.103189 0.385542 0
-0.233561 0.463933 0
-0.517142 0.266132 0
-0.647241 -0.054269 0
-0.417394 -0.319685 0
-0.066353 -0.326472 0
0.173582 -0.0701404 0
0.143639 0.279686 0
-0.136369 0.491513 0
-0.48115 0.425169 0
-0.662547 0.124551 0
-0.560525 -0.211405 0
-0.242595 -0.360386 0
0.0808571 -0.223806 0
0.19579 0.107955 0
0.0261481 0.415358 0
-0.315808 0.494982 0
-0.603795 0.294138 0
-0.725178 -0.0375004 0
-0.489029 -0.310226 0
-0.128342 -0.317223 0
0.118205 -0.0538615 0
0.0874621 0.305582 0
-0.200228 0.523251 0
-0.554487 0.455101 0
-0.740894 0.146238 0
-0.636089 -0.198961 0
-0.30943 -0.352058 0
0.0229215 -0.211746 0
0.141035 0.129128 0
-0.0332495 0.444992 0
-0.384599 0.526826 0
-0.680517 0.320479 0
-0.816247 -0.0250193 0
-0.566203 -0.313802 0
-0.184285 -0.32122 0
0.0767804 -0.0423578 0
0.0442334 0.338244 0
-0.260383 0.56872 0
-0.635502 0.496577 0
-0.832884 0.169533 0
-0.721916 -0.195985 0
-0.376026 -0.358094 0
-0.0241153 -0.209535 0
0.100957 0.151402 0
-0.0835813 0.485861 0
-0.455605 0.57251 0
-0.76895 0.354032 0
