# vtk DataFile Version 3.0
tp3485 scalar+vector
ASCII
DATASET UNSTRUCTURED_GRID
POINTS 121 double
0 0 0
0.125 0 0
0.114193 0.0508421 0
0.0836413 0.0928931 0
0.0386271 0.118882 0
-0.0130661 0.124315 0
-0.0625 0.108253 0
-0.101127 0.0734732 0
-0.122268 0.025989 0
-0.122268 -0.025989 0
-0.101127 -0.0734732 0
-0.0625 -0.108253 0
-0.0130661 -0.124315 0
0.0386271 -0.118882 0
0.0836413 -0.0928931 0
0.114193 -0.0508421 0
0.25 0 0
0.228386 0.101684 0
0.167283 0.185786 0
0.0772542 0.237764 0
-0.0261321 0.24863 0
-0.125 0.216506 0
-0.202254 0.146946 0
-0.244537 0.0519779 0
-0.244537 -0.0519779 0
-0.202254 -0.146946 0
-0.125 -0.216506 0
-0.0261321 -0.24863 0
0.0772542 -0.237764 0
0.167283 -0.185786 0
0.228386 -0.101684 0
0.375 0 0
0.34258 0.152526 0
0.250924 0.278679 0
0.115881 0.356646 0
-0.0391982 0.372946 0
-0.1875 0.32476 0
-0.303381 0.220419 0
-0.366805 0.0779669 0
-0.366805 -0.0779669 0
-0.303381 -0.220419 0
-0.1875 -0.32476 0
-0.0391982 -0.372946 0
0.115881 -0.356646 0
0.250924 -0.278679 0
0.34258 -0.152526 0
0.5 0 0
0.456773 0.203368 0
0.334565 0.371572 0
0.154508 0.475528 0
-0.0522642 0.497261 0
-0.25 0.433013 0
-0.404508 0.293893 0
-0.489074 0.103956 0
-0.489074 -0.103956 0
-0.404508 -0.293893 0
-0.25 -0.433013 0
-0.0522642 -0.497261 0
0.154508 -0.475528 0
0.334565 -0.371572 0
0.456773 -0.203368 0
0.625 0 0
0.570966 0.25421 0
0.418207 0.464466 0
0.193136 0.59441 0
-0.0653303 0.621576 0
-0.3125 0.541266 0
-0.505636 0.367366 0
-0.611342 0.129945 0
-0.611342 -0.129945 0
-0.505636 -0.367366 0
-0.3125 -0.541266 0
-0.0653303 -0.621576 0
0.193136 -0.59441 0
0.418207 -0.464466 0
0.570966 -0.25421 0
0.75 0 0
0.685159 0.305052 0
0.501848 0.557359 0
0.231763 0.713292 0
-0.0783963 0.745891 0
-0.375 0.649519 0
-0.606763 0.440839 0
-0.733611 0.155934 0
-0.733611 -0.155934 0
-0.606763 -0.440839 0
-0.375 -0.649519 0
-0.0783963 -0.745891 0
0.231763 -0.713292 0
0.501848 -0.557359 0
0.685159 -0.305052 0
0.875 0 0
0.799352 0.355895 0
0.585489 0.650252 0
0.27039 0.832174 0
-0.0914624 0.870207 0
-0.4375 0.757772 0
-0.70789 0.514312 0
-0.855879 0.181923 0
-0.855879 -0.181923 0
-0.70789 -0.514312 0
-0.4375 -0.757772 0
-0.0914624 -0.870207 0
0.27039 -0.832174 0
0.585489 -0.650252 0
0.799352 -0.355895 0
1 0 0
0.913545 0.406737 0
0.669131 0.743145 0
0.309017 0.951057 0
-0.104528 0.994522 0
-0.5 0.866025 0
-0.809017 0.587785 0
-0.978148 0.207912 0
-0.978148 -0.207912 0
-0.809017 -0.587785 0
-0.5 -0.866025 0
-0.104528 -0.994522 0
0.309017 -0.951057 0
0.669131 -0.743145 0
0.913545 -0.406737 0
CELLS 225 900
3 0 1 2
3 0 2 3
3 0 3 4
3 0 4 5
3 0 5 6
3 0 6 7
3 0 7 8
3 0 8 9
3 0 9 10
3 0 10 11
3 0 11 12
3 0 12 13
3 0 13 14
3 0 14 15
3 0 15 1
3 1 16 17
3 1 17 2
3 2 17 18
3 2 18 3
3 3 18 19
3 3 19 4
3 4 19 20
3 4 20 5
3 5 20 21
3 5 21 6
3 6 21 22
3 6 22 7
3 7 22 23
3 7 23 8
3 8 23 24
3 8 24 9
3 9 24 25
3 9 25 10
3 10 25 26
3 10 26 11
3 11 26 27
3 11 27 12
3 12 27 28
3 12 28 13
3 13 28 29
3 13 29 14
3 14 29 30
3 14 30 15
3 15 30 16
3 15 16 1
3 16 31 32
3 16 32 17
3 17 32 33
3 17 33 18
3 18 33 34
3 18 34 19
3 19 34 35
3 19 35 20
3 20 35 36
3 20 36 21
3 21 36 37
3 21 37 22
3 22 37 38
3 22 38 23
3 23 38 39
3 23 39 24
3 24 39 40
3 24 40 25
3 25 40 41
3 25 41 26
3 26 41 42
3 26 42 27
3 27 42 43
3 27 43 28
3 28 43 44
3 28 44 29
3 29 44 45
3 29 45 30
3 30 45 31
3 30 31 16
3 31 46 47
3 31 47 32
3 32 47 48
3 32 48 33
3 33 48 49
3 33 49 34
3 34 49 50
3 34 50 35
3 35 50 51
3 35 51 36
3 36 51 52
3 36 52 37
3 37 52 53
3 37 53 38
3 38 53 54
3 38 54 39
3 39 54 55
3 39 55 40
3 40 55 56
3 40 56 41
3 41 56 57
3 41 57 42
3 42 57 58
3 42 58 43
3 43 58 59
3 43 59 44
3 44 59 60
3 44 60 45
3 45 60 46
3 45 46 31
3 46 61 62
3 46 62 47
3 47 62 63
3 47 63 48
3 48 63 64
3 48 64 49
3 49 64 65
3 49 65 50
3 50 65 66
3 50 66 51
3 51 66 67
3 51 67 52
3 52 67 68
3 52 68 53
3 53 68 69
3 53 69 54
3 54 69 70
3 54 70 55
3 55 70 71
3 55 71 56
3 56 71 72
3 56 72 57
3 57 72 73
3 57 73 58
3 58 73 74
3 58 74 59
3 59 74 75
3 59 75 60
3 60 75 61
3 60 61 46
3 61 76 77
3 61 77 62
3 62 77 78
3 62 78 63
3 63 78 79
3 63 79 64
3 64 79 80
3 64 80 65
3 65 80 81
3 65 81 66
3 66 81 82
3 66 82 67
3 67 82 83
3 67 83 68
3 68 83 84
3 68 84 69
3 69 84 85
3 69 85 70
3 70 85 86
3 70 86 71
3 71 86 87
3 71 87 72
3 72 87 88
3 72 88 73
3 73 88 89
3 73 89 74
3 74 89 90
3 74 90 75
3 75 90 76
3 75 76 61
3 76 91 92
3 76 92 77
3 77 92 93
3 77 93 78
3 78 93 94
3 78 94 79
3 79 94 95
3 79 95 80
3 80 95 96
3 80 96 81
3 81 96 97
3 81 97 82
3 82 97 98
3 82 98 83
3 83 98 99
3 83 99 84
3 84 99 100
3 84 100 85
3 85 100 101
3 85 101 86
3 86 101 102
3 86 102 87
3 87 102 103
3 87 103 88
3 88 103 104
3 88 104 89
3 89 104 105
3 89 105 90
3 90 105 91
3 90 91 76
3 91 106 107
3 91 107 92
3 92 107 108
3 92 108 93
3 93 108 109
3 93 109 94
3 94 109 110
3 94 110 95
3 95 110 111
3 95 111 96
3 96 111 112
3 96 112 97
3 97 112 113
3 97 113 98
3 98 113 114
3 98 114 99
3 99 114 115
3 99 115 100
3 100 115 116
3 100 116 101
3 101 116 117
3 101 117 102
3 102 117 118
3 102 118 103
3 103 118 119
3 103 119 104
3 104 119 120
3 104 120 105
3 105 120 106
3 105 106 91
CELL_TYPES 225
5
5
5
5
5
5
5
5
5
5
5
5
5
5
5
5
5
5
5
5
5
5
5
5
5
5
5
5
5
5
5
5
5
5
5
5
5
5
5
5
5
5
5
5
5
5
5
5
5
5
5
5
5
5
5
5
5
5
5
5
5
5
5
5
5
5
5
5
5
5
5
5
5
5
5
5
5
5
5
5
5
5
5
5
5
5
5
5
5
5
5
5
5
5
5
5
5
5
5
5
5
5
5
5
5
5
5
5
5
5
5
5
5
5
5
5
5
5
5
5
5
5
5
5
5
5
5
5
5
5
5
5
5
5
5
5
5
5
5
5
5
5
5
5
5
5
5
5
5
5
5
5
5
5
5
5
5
5
5
5
5
5
5
5
5
5
5
5
5
5
5
5
5
5
5
5
5
5
5
5
5
5
5
5
5
5
5
5
5
5
5
5
5
5
5
5
5
5
5
5
5
5
5
5
5
5
5
5
5
5
5
5
5
5
5
5
5
5
5
5
5
5
5
5
5
POINT_DATA 121
SCALARS psi double 1
LOOKUP_TABLE default
1
0.86476
0.86476
0.86476
0.86476
0.86476
0.86476
0.86476
0.86476
0.86476
0.86476
0.86476
0.86476
0.86476
0.86476
0.86476
0.558924
0.558924
0.558924
0.558924
0.558924
0.558924
0.558924
0.558924
0.558924
0.558924
0.558924
0.558924
0.558924
0.558924
0.558924
0.174877
0.174877
0.174877
0.174877
0.174877
0.174877
0.174877
0.174877
0.174877
0.174877
0.174877
0.174877
0.174877
0.174877
0.174877
-0.169731
-0.169731
-0.169731
-0.169731
-0.169731
-0.169731
-0.169731
-0.169731
-0.169731
-0.169731
-0.169731
-0.169731
-0.169731
-0.169731
-0.169731
-0.374034
-0.374034
-0.374034
-0.374034
-0.374034
-0.374034
-0.374034
-0.374034
-0.374034
-0.374034
-0.374034
-0.374034
-0.374034
-0.374034
-0.374034
-0.409855
-0.409855
-0.409855
-0.409855
-0.409855
-0.409855
-0.409855
-0.409855
-0.409855
-0.409855
-0.409855
-0.409855
-0.409855
-0.409855
-0.409855
-0.301989
-0.301989
-0.301989
-0.301989
-0.301989
-0.301989
-0.301989
-0.301989
-0.301989
-0.301989
-0.301989
-0.301989
-0.301989
-0.301989
-0.301989
0
0
0
0
0
0
0
0
0
0
0
0
0
0
0
VECTORS Et double
-2.31674e-13 1.1307e-13 0
0.873791 -2.31176e-13 0
0.798247 0.355403 0
0.58468 0.649353 0
0.270016 0.831024 0
-0.091336 0.869004 0
-0.436895 0.756725 0
-0.706911 0.513601 0
-0.854696 0.181671 0
-0.854696 -0.181671 0
-0.706911 -0.513601 0
-0.436895 -0.756725 0
-0.091336 -0.869004 0
0.270016 -0.831024 0
0.58468 -0.649353 0
0.798247 -0.355403 0
1 -4.21883e-13 0
0.913545 0.406737 0
0.669131 0.743145 0
0.309017 0.951056 0
-0.104528 0.994522 0
-0.5 0.866025 0
-0.809017 0.587785 0
-0.978147 0.207912 0
-0.978147 -0.207912 0
-0.809017 -0.587785 0
-0.5 -0.866025 0
-0.104528 -0.994522 0
0.309017 -0.951057 0
0.669131 -0.743145 0
0.913545 -0.406737 0
0.685727 -4.07861e-13 0
0.626442 0.27891 0
0.458841 0.509594 0
0.211901 0.652165 0
-0.0716779 0.68197 0
-0.342863 0.593856 0
-0.554764 0.40306 0
-0.670742 0.142571 0
-0.670742 -0.142571 0
-0.554764 -0.40306 0
-0.342863 -0.593857 0
-0.0716779 -0.68197 0
0.211901 -0.652165 0
0.458841 -0.509594 0
0.626442 -0.27891 0
0.305373 -3.20242e-13 0
0.278972 0.124206 0
0.204334 0.226936 0
0.0943653 0.290427 0
-0.0319202 0.3037 0
-0.152686 0.26446 0
-0.247052 0.179494 0
-0.2987 0.0634906 0
-0.2987 -0.0634905 0
-0.247052 -0.179494 0
-0.152686 -0.264461 0
-0.0319202 -0.3037 0
0.0943654 -0.290427 0
0.204334 -0.226936 0
0.278972 -0.124206 0
-0.00877215 -2.26323e-13 0
-0.00801393 -0.00356774 0
-0.00587006 -0.00651868 0
-0.00271075 -0.00834286 0
0.000917098 -0.00872411 0
0.00438627 -0.00759651 0
0.00709732 -0.00515647 0
0.00858037 -0.0018237 0
0.00858042 0.00182371 0
0.00709724 0.00515585 0
0.00438617 0.00759716 0
0.000916999 0.00872409 0
-0.00271068 0.00834272 0
-0.0058703 0.00651908 0
-0.00801373 0.00356769 0
-0.258838 -1.55098e-13 0
-0.23646 -0.10528 0
-0.173195 -0.192354 0
-0.0799862 -0.24617 0
0.0270559 -0.25742 0
0.129419 -0.22416 0
0.209405 -0.152142 0
0.253182 -0.0538148 0
0.253182 0.0538155 0
0.209404 0.152141 0
0.129418 0.22416 0
0.0270561 0.25742 0
-0.0799853 0.246169 0
-0.173195 0.192354 0
-0.236459 0.105279 0
-0.465165 -1.08197e-13 0
-0.424948 -0.1892 0
-0.311256 -0.345685 0
-0.143743 -0.442398 0
0.0486225 -0.462617 0
0.232582 -0.402846 0
0.376325 -0.273416 0
0.455001 -0.096714 0
0.455 0.0967139 0
0.376327 0.273417 0
0.232582 0.402846 0
0.0486228 0.462617 0
-0.143743 0.442398 0
-0.311254 0.345684 0
-0.424949 0.189199 0
-0.646422 -7.4597e-14 0
-0.590535 -0.262923 0
-0.432544 -0.480389 0
-0.199755 -0.614784 0
0.0675695 -0.64288 0
0.323205 -0.559807 0
0.522965 -0.379957 0
0.632296 -0.134399 0
0.632296 0.134399 0
0.522958 0.379951 0
0.323214 0.559823 0
0.0675695 0.64288 0
-0.199755 0.614783 0
-0.432533 0.480377 0
-0.590535 0.262923 0
