# vtk DataFile Version 3.0
tp3485 scalar+vector
ASCII
DATASET UNSTRUCTURED_GRID
POINTS 121 double
0 0 0
0.125 0 0
0.114193 0.0508421 0
0.0836413 0.0928931 0
0.0386271 0.118882 0
-0.0130661 0.124315 0
-0.0625 0.108253 0
-0.101127 0.0734732 0
-0.122268 0.025989 0
-0.122268 -0.025989 0
-0.101127 -0.0734732 0
-0.0625 -0.108253 0
-0.0130661 -0.124315 0
0.0386271 -0.118882 0
0.0836413 -0.0928931 0
0.114193 -0.0508421 0
0.25 0 0
0.228386 0.101684 0
0.167283 0.185786 0
0.0772542 0.237764 0
-0.0261321 0.24863 0
-0.125 0.216506 0
-0.202254 0.146946 0
-0.244537 0.0519779 0
-0.244537 -0.0519779 0
-0.202254 -0.146946 0
-0.125 -0.216506 0
-0.0261321 -0.24863 0
0.0772542 -0.237764 0
0.167283 -0.185786 0
0.228386 -0.101684 0
0.375 0 0
0.34258 0.152526 0
0.250924 0.278679 0
0.115881 0.356646 0
-0.0391982 0.372946 0
-0.1875 0.32476 0
-0.303381 0.220419 0
-0.366805 0.0779669 0
-0.366805 -0.0779669 0
-0.303381 -0.220419 0
-0.1875 -0.32476 0
-0.0391982 -0.372946 0
0.115881 -0.356646 0
0.250924 -0.278679 0
0.34258 -0.152526 0
0.5 0 0
0.456773 0.203368 0
0.334565 0.371572 0
0.154508 0.475528 0
-0.0522642 0.497261 0
-0.25 0.433013 0
-0.404508 0.293893 0
-0.489074 0.103956 0
-0.489074 -0.103956 0
-0.404508 -0.293893 0
-0.25 -0.433013 0
-0.0522642 -0.497261 0
0.154508 -0.475528 0
0.334565 -0.371572 0
0.456773 -0.203368 0
0.625 0 0
0.570966 0.25421 0
0.418207 0.464466 0
0.193136 0.59441 0
-0.0653303 0.621576 0
-0.3125 0.541266 0
-0.505636 0.367366 0
-0.611342 0.129945 0
-0.611342 -0.129945 0
-0.505636 -0.367366 0
-0.3125 -0.541266 0
-0.0653303 -0.621576 0
0.193136 -0.59441 0
0.418207 -0.464466 0
0.570966 -0.25421 0
0.75 0 0
0.685159 0.305052 0
0.501848 0.557359 0
0.231763 0.713292 0
-0.0783963 0.745891 0
-0.375 0.649519 0
-0.606763 0.440839 0
-0.733611 0.155934 0
-0.733611 -0.155934 0
-0.606763 -0.440839 0
-0.375 -0.649519 0
-0.0783963 -0.745891 0
0.231763 -0.713292 0
0.501848 -0.557359 0
0.685159 -0.305052 0
0.875 0 0
0.799352 0.355895 0
0.585489 0.650252 0
0.27039 0.832174 0
-0.0914624 0.870207 0
-0.4375 0.757772 0
-0.70789 0.514312 0
-0.855879 0.181923 0
-0.855879 -0.181923 0
-0.70789 -0.514312 0
-0.4375 -0.757772 0
-0.0914624 -0.870207 0
0.27039 -0.832174 0
0.585489 -0.650252 0
0.799352 -0.355895 0
1 0 0
0.913545 0.406737 0
0.669131 0.743145 0
0.309017 0.951057 0
-0.104528 0.994522 0
-0.5 0.866025 0
-0.809017 0.587785 0
-0.978148 0.207912 0
-0.978148 -0.207912 0
-0.809017 -0.587785 0
-0.5 -0.866025 0
-0.104528 -0.994522 0
0.309017 -0.951057 0
0.669131 -0.743145 0
0.913545 -0.406737 0
CELLS 225 900
3 0 1 2
3 0 2 3
3 0 3 4
3 0 4 5
3 0 5 6
3 0 6 7
3 0 7 8
3 0 8 9
3 0 9 10
3 0 10 11
3 0 11 12
3 0 12 13
3 0 13 14
3 0 14 15
3 0 15 1
3 1 16 17
3 1 17 2
3 2 17 18
3 2 18 3
3 3 18 19
3 3 19 4
3 4 19 20
3 4 20 5
3 5 20 21
3 5 21 6
3 6 21 22
3 6 22 7
3 7 22 23
3 7 23 8
3 8 23 24
3 8 24 9
3 9 24 25
3 9 25 10
3 10 25 26
3 10 26 11
3 11 26 27
3 11 27 12
3 12 27 28
3 12 28 13
3 13 28 29
3 13 29 14
3 14 29 30
3 14 30 15
3 15 30 16
3 15 16 1
3 16 31 32
3 16 32 17
3 17 32 33
3 17 33 18
3 18 33 34
3 18 34 19
3 19 34 35
3 19 35 20
3 20 35 36
3 20 36 21
3 21 36 37
3 21 37 22
3 22 37 38
3 22 38 23
3 23 38 39
3 23 39 24
3 24 39 40
3 24 40 25
3 25 40 41
3 25 41 26
3 26 41 42
3 26 42 27
3 27 42 43
3 27 43 28
3 28 43 44
3 28 44 29
3 29 44 45
3 29 45 30
3 30 45 31
3 30 31 16
3 31 46 47
3 31 47 32
3 32 47 48
3 32 48 33
3 33 48 49
3 33 49 34
3 34 49 50
3 34 50 35
3 35 50 51
3 35 51 36
3 36 51 52
3 36 52 37
3 37 52 53
3 37 53 38
3 38 53 54
3 38 54 39
3 39 54 55
3 39 55 40
3 40 55 56
3 40 56 41
3 41 56 57
3 41 57 42
3 42 57 58
3 42 58 43
3 43 58 59
3 43 59 44
3 44 59 60
3 44 60 45
3 45 60 46
3 45 46 31
3 46 61 62
3 46 62 47
3 47 62 63
3 47 63 48
3 48 63 64
3 48 64 49
3 49 64 65
3 49 65 50
3 50 65 66
3 50 66 51
3 51 66 67
3 51 67 52
3 52 67 68
3 52 68 53
3 53 68 69
3 53 69 54
3 54 69 70
3 54 70 55
3 55 70 71
3 55 71 56
3 56 71 72
3 56 72 57
3 57 72 73
3 57 73 58
3 58 73 74
3 58 74 59
3 59 74 75
3 59 75 60
3 60 75 61
3 60 61 46
3 61 76 77
3 61 77 62
3 62 77 78
3 62 78 63
3 63 78 79
3 63 79 64
3 64 79 80
3 64 80 65
3 65 80 81
3 65 81 66
3 66 81 82
3 66 82 67
3 67 82 83
3 67 83 68
3 68 83 84
3 68 84 69
3 69 84 85
3 69 85 70
3 70 85 86
3 70 86 71
3 71 86 87
3 71 87 72
3 72 87 88
3 72 88 73
3 73 88 89
3 73 89 74
3 74 89 90
3 74 90 75
3 75 90 76
3 75 76 61
3 76 91 92
3 76 92 77
3 77 92 93
3 77 93 78
3 78 93 94
3 78 94 79
3 79 94 95
3 79 95 80
3 80 95 96
3 80 96 81
3 81 96 97
3 81 97 82
3 82 97 98
3 82 98 83
3 83 98 99
3 83 99 84
3 84 99 100
3 84 100 85
3 85 100 101
3 85 101 86
3 86 101 102
3 86 102 87
3 87 102 103
3 87 103 88
3 88 103 104
3 88 104 89
3 89 104 105
3 89 105 90
3 90 105 91
3 90 91 76
3 91 106 107
3 91 107 92
3 92 107 108
3 92 108 93
3 93 108 109
3 93 109 94
3 94 109 110
3 94 110 95
3 95 110 111
3 95 111 96
3 96 111 112
3 96 112 97
3 97 112 113
3 97 113 98
3 98 113 114
3 98 114 99
3 99 114 115
3 99 115 100
3 100 115 116
3 100 116 101
3 101 116 117
3 101 117 102
3 102 117 118
3 102 118 103
3 103 118 119
3 103 119 104
3 104 119 120
3 104 120 105
3 105 120 106
3 105 106 91
CELL_TYPES 225
5
5
5
5
5
5
5
5
5
5
5
5
5
5
5
5
5
5
5
5
5
5
5
5
5
5
5
5
5
5
5
5
5
5
5
5
5
5
5
5
5
5
5
5
5
5
5
5
5
5
5
5
5
5
5
5
5
5
5
5
5
5
5
5
5
5
5
5
5
5
5
5
5
5
5
5
5
5
5
5
5
5
5
5
5
5
5
5
5
5
5
5
5
5
5
5
5
5
5
5
5
5
5
5
5
5
5
5
5
5
5
5
5
5
5
5
5
5
5
5
5
5
5
5
5
5
5
5
5
5
5
5
5
5
5
5
5
5
5
5
5
5
5
5
5
5
5
5
5
5
5
5
5
5
5
5
5
5
5
5
5
5
5
5
5
5
5
5
5
5
5
5
5
5
5
5
5
5
5
5
5
5
5
5
5
5
5
5
5
5
5
5
5
5
5
5
5
5
5
5
5
5
5
5
5
5
5
5
5
5
5
5
5
5
5
5
5
5
5
5
5
5
5
5
5
POINT_DATA 121
SCALARS psi double 1
LOOKUP_TABLE default
3.96233e-14
0.120202
0.267031
0.367687
0.404767
0.37186
0.274654
0.129958
-0.0372091
-0.197942
-0.324449
-0.394856
-0.396989
-0.330478
-0.206825
-0.0474104
0.214051
0.48447
0.671119
0.741726
0.684081
0.508153
0.244361
-0.0616842
-0.357063
-0.590703
-0.722204
-0.72883
-0.609435
-0.384663
-0.0933787
0.274445
0.619199
0.856888
0.946413
0.872295
0.647349
0.31047
-0.0800913
-0.456804
-0.754532
-0.921794
-0.929669
-0.776797
-0.489609
-0.117763
0.29075
0.654857
0.905733
1
0.921358
0.683404
0.327284
-0.0854269
-0.483366
-0.797728
-0.974154
-0.982141
-0.820306
-0.516634
-0.12363
0.261728
0.589637
0.815593
0.900526
0.829749
0.615502
0.294828
-0.0768239
-0.435192
-0.718312
-0.877229
-0.884465
-0.738769
-0.465333
-0.111437
0.200305
0.451375
0.624397
0.689456
0.635301
0.471297
0.225802
-0.058737
-0.33312
-0.549903
-0.671603
-0.677176
-0.56566
-0.356336
-0.0853985
0.122753
0.276598
0.382617
0.422478
0.389289
0.288788
0.138353
-0.0360044
-0.204136
-0.336971
-0.411541
-0.414951
-0.346613
-0.218342
-0.0523176
0
0
0
0
0
0
0
0
0
0
0
0
0
0
0
VECTORS Et double
-0.294064 -0.955786 0
-0.222642 -0.900833 0
-0.173702 -0.855526 0
-0.174623 -0.78884 0
-0.224797 -0.744903 0
-0.291022 -0.752791 0
-0.329473 -0.807282 0
-0.314707 -0.87232 0
-0.256494 -0.904864 0
-0.193357 -0.883381 0
-0.167075 -0.822085 0
-0.195041 -0.761539 0
-0.258748 -0.741809 0
-0.316039 -0.77595 0
-0.329002 -0.84137 0
-0.28906 -0.894779 0
-0.091887 -0.72565 0
0.0447623 -0.607907 0
0.0486984 -0.427571 0
-0.0826838 -0.303977 0
-0.262443 -0.318913 0
-0.371626 -0.462495 0
-0.337982 -0.639708 0
-0.183775 -0.733285 0
-0.0110488 -0.681301 0
0.0658961 -0.518157 0
-0.00385733 -0.351811 0
-0.174151 -0.292341 0
-0.332294 -0.3791 0
-0.373638 -0.554677 0
-0.270824 -0.702885 0
0.0359253 -0.524831 0
0.243815 -0.3454 0
0.249577 -0.0708453 0
0.0493997 0.11715 0
-0.224253 0.0941816 0
-0.390294 -0.124551 0
-0.338848 -0.394303 0
-0.103958 -0.536571 0
0.15894 -0.45721 0
0.275875 -0.208736 0
0.169468 0.0444267 0
-0.0898681 0.134749 0
-0.33052 0.00246208 0
-0.39324 -0.264895 0
-0.236523 -0.490401 0
0.122104 -0.36108 0
0.367409 -0.148689 0
0.373711 0.175726 0
0.136844 0.397486 0
-0.186453 0.369844 0
-0.382238 0.111092 0
-0.320954 -0.207543 0
-0.0431551 -0.375209 0
0.267329 -0.280955 0
0.405039 0.0128483 0
0.278846 0.31178 0
-0.0277427 0.418024 0
-0.311845 0.261276 0
-0.385461 -0.0547388 0
-0.199874 -0.3209 0
0.17009 -0.253466 0
0.431445 -0.0271081 0
0.438109 0.318579 0
0.18567 0.554841 0
-0.15882 0.525334 0
-0.3674 0.249583 0
-0.302046 -0.0899354 0
-0.0060028 -0.26855 0
0.324824 -0.168063 0
0.471517 0.145028 0
0.336999 0.46354 0
0.0102894 0.576699 0
-0.292416 0.409626 0
-0.370808 0.0728783 0
-0.173007 -0.210705 0
0.196561 -0.178739 0
0.461977 0.0511089 0
0.468763 0.402148 0
0.212434 0.642085 0
-0.137394 0.612141 0
-0.349222 0.332133 0
-0.282876 -0.0126468 0
0.0177403 -0.194045 0
0.353697 -0.0920235 0
0.502678 0.225906 0
0.366097 0.549359 0
0.0343373 0.664291 0
-0.273066 0.494649 0
-0.35269 0.152692 0
-0.151846 -0.135295 0
0.22017 -0.123521 0
0.492894 0.112627 0
0.499892 0.473314 0
0.236531 0.719861 0
-0.122912 0.689119 0
-0.34058 0.401429 0
-0.272432 0.0471669 0
0.0364334 -0.139237 0
0.38163 -0.0344318 0
0.534728 0.292227 0
0.394414 0.62458 0
0.053542 0.742692 0
-0.262321 0.568407 0
-0.344156 0.217055 0
-0.137811 -0.0788605 0
0.247804 -0.0824139 0
0.536587 0.167629 0
0.544007 0.549553 0
0.265143 0.810614 0
-0.115459 0.778066 0
-0.345939 0.473437 0
-0.273792 0.0983302 0
0.0532518 -0.099051 0
0.41877 0.0119164 0
0.580876 0.357796 0
0.432322 0.709724 0
0.0713826 0.834789 0
-0.263076 0.650251 0
-0.349729 0.278215 0
-0.131248 -0.035118 0
