# vtk DataFile Version 3.0
tp3485 scalar+vector
ASCII
DATASET UNSTRUCTURED_GRID
POINTS 121 double
0 0 0
0.125 0 0
0.114193 0.0508421 0
0.0836413 0.0928931 0
0.0386271 0.118882 0
-0.0130661 0.124315 0
-0.0625 0.108253 0
-0.101127 0.0734732 0
-0.122268 0.025989 0
-0.122268 -0.025989 0
-0.101127 -0.0734732 0
-0.0625 -0.108253 0
-0.0130661 -0.124315 0
0.0386271 -0.118882 0
0.0836413 -0.0928931 0
0.114193 -0.0508421 0
0.25 0 0
0.228386 0.101684 0
0.167283 0.185786 0
0.0772542 0.237764 0
-0.0261321 0.24863 0
-0.125 0.216506 0
-0.202254 0.146946 0
-0.244537 0.0519779 0
-0.244537 -0.0519779 0
-0.202254 -0.146946 0
-0.125 -0.216506 0
-0.0261321 -0.24863 0
0.0772542 -0.237764 0
0.167283 -0.185786 0
0.228386 -0.101684 0
0.375 0 0
0.34258 0.152526 0
0.250924 0.278679 0
0.115881 0.356646 0
-0.0391982 0.372946 0
-0.1875 0.32476 0
-0.303381 0.220419 0
-0.366805 0.0779669 0
-0.366805 -0.0779669 0
-0.303381 -0.220419 0
-0.1875 -0.32476 0
-0.0391982 -0.372946 0
0.115881 -0.356646 0
0.250924 -0.278679 0
0.34258 -0.152526 0
0.5 0 0
0.456773 0.203368 0
0.334565 0.371572 0
0.154508 0.475528 0
-0.0522642 0.497261 0
-0.25 0.433013 0
-0.404508 0.293893 0
-0.489074 0.103956 0
-0.489074 -0.103956 0
-0.404508 -0.293893 0
-0.25 -0.433013 0
-0.0522642 -0.497261 0
0.154508 -0.475528 0
0.334565 -0.371572 0
0.456773 -0.203368 0
0.625 0 0
0.570966 0.25421 0
0.418207 0.464466 0
0.193136 0.59441 0
-0.0653303 0.621576 0
-0.3125 0.541266 0
-0.505636 0.367366 0
-0.611342 0.129945 0
-0.611342 -0.129945 0
-0.505636 -0.367366 0
-0.3125 -0.541266 0
-0.0653303 -0.621576 0
0.193136 -0.59441 0
0.418207 -0.464466 0
0.570966 -0.25421 0
0.75 0 0
0.685159 0.305052 0
0.501848 0.557359 0
0.231763 0.713292 0
-0.0783963 0.745891 0
-0.375 0.649519 0
-0.606763 0.440839 0
-0.733611 0.155934 0
-0.733611 -0.155934 0
-0.606763 -0.440839 0
-0.375 -0.649519 0
-0.0783963 -0.745891 0
0.231763 -0.713292 0
0.501848 -0.557359 0
0.685159 -0.305052 0
0.875 0 0
0.799352 0.355895 0
0.585489 0.650252 0
0.27039 0.832174 0
-0.0914624 0.870207 0
-0.4375 0.757772 0
-0.70789 0.514312 0
-0.855879 0.181923 0
-0.855879 -0.181923 0
-0.70789 -0.514312 0
-0.4375 -0.757772 0
-0.0914624 -0.870207 0
0.27039 -0.832174 0
0.585489 -0.650252 0
0.799352 -0.355895 0
1 0 0
0.913545 0.406737 0
0.669131 0.743145 0
0.309017 0.951057 0
-0.104528 0.994522 0
-0.5 0.866025 0
-0.809017 0.587785 0
-0.978148 0.207912 0
-0.978148 -0.207912 0
-0.809017 -0.587785 0
-0.5 -0.866025 0
-0.104528 -0.994522 0
0.309017 -0.951057 0
0.669131 -0.743145 0
0.913545 -0.406737 0
CELLS 225 900
3 0 1 2
3 0 2 3
3 0 3 4
3 0 4 5
3 0 5 6
3 0 6 7
3 0 7 8
3 0 8 9
3 0 9 10
3 0 10 11
3 0 11 12
3 0 12 13
3 0 13 14
3 0 14 15
3 0 15 1
3 1 16 17
3 1 17 2
3 2 17 18
3 2 18 3
3 3 18 19
3 3 19 4
3 4 19 20
3 4 20 5
3 5 20 21
3 5 21 6
3 6 21 22
3 6 22 7
3 7 22 23
3 7 23 8
3 8 23 24
3 8 24 9
3 9 24 25
3 9 25 10
3 10 25 26
3 10 26 11
3 11 26 27
3 11 27 12
3 12 27 28
3 12 28 13
3 13 28 29
3 13 29 14
3 14 29 30
3 14 30 15
3 15 30 16
3 15 16 1
3 16 31 32
3 16 32 17
3 17 32 33
3 17 33 18
3 18 33 34
3 18 34 19
3 19 34 35
3 19 35 20
3 20 35 36
3 20 36 21
3 21 36 37
3 21 37 22
3 22 37 38
3 22 38 23
3 23 38 39
3 23 39 24
3 24 39 40
3 24 40 25
3 25 40 41
3 25 41 26
3 26 41 42
3 26 42 27
3 27 42 43
3 27 43 28
3 28 43 44
3 28 44 29
3 29 44 45
3 29 45 30
3 30 45 31
3 30 31 16
3 31 46 47
3 31 47 32
3 32 47 48
3 32 48 33
3 33 48 49
3 33 49 34
3 34 49 50
3 34 50 35
3 35 50 51
3 35 51 36
3 36 51 52
3 36 52 37
3 37 52 53
3 37 53 38
3 38 53 54
3 38 54 39
3 39 54 55
3 39 55 40
3 40 55 56
3 40 56 41
3 41 56 57
3 41 57 42
3 42 57 58
3 42 58 43
3 43 58 59
3 43 59 44
3 44 59 60
3 44 60 45
3 45 60 46
3 45 46 31
3 46 61 62
3 46 62 47
3 47 62 63
3 47 63 48
3 48 63 64
3 48 64 49
3 49 64 65
3 49 65 50
3 50 65 66
3 50 66 51
3 51 66 67
3 51 67 52
3 52 67 68
3 52 68 53
3 53 68 69
3 53 69 54
3 54 69 70
3 54 70 55
3 55 70 71
3 55 71 56
3 56 71 72
3 56 72 57
3 57 72 73
3 57 73 58
3 58 73 74
3 58 74 59
3 59 74 75
3 59 75 60
3 60 75 61
3 60 61 46
3 61 76 77
3 61 77 62
3 62 77 78
3 62 78 63
3 63 78 79
3 63 79 64
3 64 79 80
3 64 80 65
3 65 80 81
3 65 81 66
3 66 81 82
3 66 82 67
3 67 82 83
3 67 83 68
3 68 83 84
3 68 84 69
3 69 84 85
3 69 85 70
3 70 85 86
3 70 86 71
3 71 86 87
3 71 87 72
3 72 87 88
3 72 88 73
3 73 88 89
3 73 89 74
3 74 89 90
3 74 90 75
3 75 90 76
3 75 76 61
3 76 91 92
3 76 92 77
3 77 92 93
3 77 93 78
3 78 93 94
3 78 94 79
3 79 94 95
3 79 95 80
3 80 95 96
3 80 96 81
3 81 96 97
3 81 97 82
3 82 97 98
3 82 98 83
3 83 98 99
3 83 99 84
3 84 99 100
3 84 100 85
3 85 100 101
3 85 101 86
3 86 101 102
3 86 102 87
3 87 102 103
3 87 103 88
3 88 103 104
3 88 104 89
3 89 104 105
3 89 105 90
3 90 105 91
3 90 91 76
3 91 106 107
3 91 107 92
3 92 107 108
3 92 108 93
3 93 108 109
3 93 109 94
3 94 109 110
3 94 110 95
3 95 110 111
3 95 111 96
3 96 111 112
3 96 112 97
3 97 112 113
3 97 113 98
3 98 113 114
3 98 114 99
3 99 114 115
3 99 115 100
3 100 115 116
3 100 116 101
3 101 116 117
3 101 117 102
3 102 117 118
3 102 118 103
3 103 118 119
3 103 119 104
3 104 119 120
3 104 120 105
3 105 120 106
3 105 106 91
CELL_TYPES 225
5
5
5
5
5
5
5
5
5
5
5
5
5
5
5
5
5
5
5
5
5
5
5
5
5
5
5
5
5
5
5
5
5
5
5
5
5
5
5
5
5
5
5
5
5
5
5
5
5
5
5
5
5
5
5
5
5
5
5
5
5
5
5
5
5
5
5
5
5
5
5
5
5
5
5
5
5
5
5
5
5
5
5
5
5
5
5
5
5
5
5
5
5
5
5
5
5
5
5
5
5
5
5
5
5
5
5
5
5
5
5
5
5
5
5
5
5
5
5
5
5
5
5
5
5
5
5
5
5
5
5
5
5
5
5
5
5
5
5
5
5
5
5
5
5
5
5
5
5
5
5
5
5
5
5
5
5
5
5
5
5
5
5
5
5
5
5
5
5
5
5
5
5
5
5
5
5
5
5
5
5
5
5
5
5
5
5
5
5
5
5
5
5
5
5
5
5
5
5
5
5
5
5
5
5
5
5
5
5
5
5
5
5
5
5
5
5
5
5
5
5
5
5
5
5
POINT_DATA 121
SCALARS psi double 1
LOOKUP_TABLE default
-9.57313e-15
0.00353089
-0.0216958
-0.0169396
0.0112266
0.023878
0.00353089
-0.0216958
-0.0169396
0.0112266
0.023878
0.00353089
-0.0216958
-0.0169396
0.0112266
0.023878
0.0290042
-0.151399
-0.122574
0.0756442
0.169325
0.0290042
-0.151399
-0.122574
0.0756442
0.169325
0.0290042
-0.151399
-0.122574
0.0756442
0.169325
0.0784858
-0.409346
-0.331475
0.204483
0.457853
0.0784858
-0.409346
-0.331475
0.204483
0.457853
0.0784858
-0.409346
-0.331475
0.204483
0.457853
0.134183
-0.707522
-0.571455
0.354343
0.790452
0.134183
-0.707522
-0.571455
0.354343
0.790452
0.134183
-0.707522
-0.571455
0.354343
0.790452
0.170909
-0.894372
-0.723662
0.447125
1
0.170909
-0.894372
-0.723662
0.447125
1
0.170909
-0.894372
-0.723662
0.447125
1
0.168393
-0.874082
-0.708606
0.436139
0.978155
0.168393
-0.874082
-0.708606
0.436139
0.978155
0.168393
-0.874082
-0.708606
0.436139
0.978155
0.119501
-0.615843
-0.500113
0.306756
0.689698
0.119501
-0.615843
-0.500113
0.306756
0.689698
0.119501
-0.615843
-0.500113
0.306756
0.689698
0
0
0
0
0
0
0
0
0
0
0
0
0
0
0
VECTORS Et double
-5.52145e-13 2.83587e-12 0
-0.0348924 0.206795 0
0.126684 0.162748 0
0.207641 0.0112907 0
0.150573 -0.144473 0
-0.00921715 -0.205582 0
-0.161643 -0.133615 0
-0.204286 0.0283379 0
-0.113599 0.174177 0
0.0498309 0.202637 0
0.182648 0.0948085 0
0.196536 -0.0731797 0
0.0776016 -0.191086 0
-0.0940425 -0.185468 0
-0.200404 -0.0581636 0
-0.17343 0.110773 0
-0.0648495 0.590386 0
0.196626 0.392665 0
0.494443 -0.0757256 0
0.458438 -0.327329 0
-0.0460041 -0.386343 0
-0.478864 -0.351354 0
-0.438371 -0.0260494 0
-0.181641 0.466063 0
0.0542563 0.560683 0
0.357585 0.153331 0
0.543714 -0.239031 0
0.241745 -0.366616 0
-0.312802 -0.390338 0
-0.512694 -0.233354 0
-0.31158 0.233012 0
-0.0438181 0.765647 0
0.063191 0.423947 0
0.527414 -0.224508 0
0.626986 -0.324814 0
-0.0841024 -0.2675 0
-0.64116 -0.420771 0
-0.398744 -0.157249 0
-0.0692769 0.569008 0
-0.0321958 0.705393 0
0.273713 0.0609153 0
0.684979 -0.344876 0
0.335553 -0.266698 0
-0.458137 -0.3445 0
-0.59479 -0.380579 0
-0.189611 0.206585 0
0.000761466 0.751892 0
-0.154031 0.320331 0
0.390765 -0.361541 0
0.652629 -0.205773 0
-0.109947 -0.000601098 0
-0.651538 -0.375287 0
-0.200399 -0.293561 0
0.117721 0.519183 0
-0.14811 0.66808 0
0.0554941 -0.0949165 0
0.650777 -0.376606 0
0.35443 -0.0267705 0
-0.508486 -0.157642 0
-0.504519 -0.462307 0
0.0544531 0.095518 0
0.0435156 0.651602 0
-0.33967 0.186137 0
0.216548 -0.448637 0
0.60065 -0.0709922 0
-0.121327 0.250178 0
-0.586061 -0.288115 0
0.00863659 -0.387232 0
0.280257 0.411855 0
-0.238844 0.555675 0
-0.155998 -0.230161 0
0.542546 -0.363487 0
0.331034 0.201094 0
-0.496805 0.0367823 0
-0.361806 -0.484683 0
0.277323 -0.0200161 0
0.0806482 0.519306 0
-0.488604 0.0515971 0
0.0431187 -0.501108 0
0.515598 0.0564897 0
-0.124341 0.464767 0
-0.490056 -0.189809 0
0.199617 -0.448944 0
0.412413 0.287896 0
-0.30672 0.418275 0
-0.34033 -0.340065 0
0.409408 -0.329496 0
0.288988 0.397344 0
-0.455531 0.213213 0
-0.208877 -0.474764 0
0.464669 -0.124701 0
0.121293 0.388036 0
-0.651967 -0.089005 0
-0.138525 -0.563926 0
0.433656 0.190846 0
-0.129518 0.697048 0
-0.396695 -0.0889743 0
0.403062 -0.520117 0
0.557638 0.161997 0
-0.382106 0.280134 0
-0.538903 -0.460691 0
0.275403 -0.299062 0
0.248905 0.609124 0
-0.419112 0.401929 0
-0.051552 -0.47098 0
0.668421 -0.236355 0
0.172603 0.274164 0
-0.868259 -0.244266 0
-0.340572 -0.6679 0
0.375062 0.345984 0
-0.143669 0.989626 0
-0.323728 0.0123965 0
0.64567 -0.629801 0
0.748698 0.0390057 0
-0.487161 0.151821 0
-0.785195 -0.619225 0
0.151133 -0.286563 0
0.222589 0.874069 0
-0.408129 0.628888 0
0.112098 -0.497796 0
0.928875 -0.370392 0
