# vtk DataFile Version 3.0
tp3485 scalar+vector
ASCII
DATASET UNSTRUCTURED_GRID
POINTS 121 double
0 0 0
0.125 0 0
0.114193 0.0508421 0
0.0836413 0.0928931 0
0.0386271 0.118882 0
-0.0130661 0.124315 0
-0.0625 0.108253 0
-0.101127 0.0734732 0
-0.122268 0.025989 0
-0.122268 -0.025989 0
-0.101127 -0.0734732 0
-0.0625 -0.108253 0
-0.0130661 -0.124315 0
0.0386271 -0.118882 0
0.0836413 -0.0928931 0
0.114193 -0.0508421 0
0.25 0 0
0.228386 0.101684 0
0.167283 0.185786 0
0.0772542 0.237764 0
-0.0261321 0.24863 0
-0.125 0.216506 0
-0.202254 0.146946 0
-0.244537 0.0519779 0
-0.244537 -0.0519779 0
-0.202254 -0.146946 0
-0.125 -0.216506 0
-0.0261321 -0.24863 0
0.0772542 -0.237764 0
0.167283 -0.185786 0
0.228386 -0.101684 0
0.375 0 0
0.34258 0.152526 0
0.250924 0.278679 0
0.115881 0.356646 0
-0.0391982 0.372946 0
-0.1875 0.32476 0
-0.303381 0.220419 0
-0.366805 0.0779669 0
-0.366805 -0.0779669 0
-0.303381 -0.220419 0
-0.1875 -0.32476 0
-0.0391982 -0.372946 0
0.115881 -0.356646 0
0.250924 -0.278679 0
0.34258 -0.152526 0
0.5 0 0
0.456773 0.203368 0
0.334565 0.371572 0
0.154508 0.475528 0
-0.0522642 0.497261 0
-0.25 0.433013 0
-0.404508 0.293893 0
-0.489074 0.103956 0
-0.489074 -0.103956 0
-0.404508 -0.293893 0
-0.25 -0.433013 0
-0.0522642 -0.497261 0
0.154508 -0.475528 0
0.334565 -0.371572 0
0.456773 -0.203368 0
0.625 0 0
0.570966 0.25421 0
0.418207 0.464466 0
0.193136 0.59441 0
-0.0653303 0.621576 0
-0.3125 0.541266 0
-0.505636 0.367366 0
-0.611342 0.129945 0
-0.611342 -0.129945 0
-0.505636 -0.367366 0
-0.3125 -0.541266 0
-0.0653303 -0.621576 0
0.193136 -0.59441 0
0.418207 -0.464466 0
0.570966 -0.25421 0
0.75 0 0
0.685159 0.305052 0
0.501848 0.557359 0
0.231763 0.713292 0
-0.0783963 0.745891 0
-0.375 0.649519 0
-0.606763 0.440839 0
-0.733611 0.155934 0
-0.733611 -0.155934 0
-0.606763 -0.440839 0
-0.375 -0.649519 0
-0.0783963 -0.745891 0
0.231763 -0.713292 0
0.501848 -0.557359 0
0.685159 -0.305052 0
0.875 0 0
0.799352 0.355895 0
0.585489 0.650252 0
0.27039 0.832174 0
-0.0914624 0.870207 0
-0.4375 0.757772 0
-0.70789 0.514312 0
-0.855879 0.181923 0
-0.855879 -0.181923 0
-0.70789 -0.514312 0
-0.4375 -0.757772 0
-0.0914624 -0.870207 0
0.27039 -0.832174 0
0.585489 -0.650252 0
0.799352 -0.355895 0
1 0 0
0.913545 0.406737 0
0.669131 0.743145 0
0.309017 0.951057 0
-0.104528 0.994522 0
-0.5 0.866025 0
-0.809017 0.587785 0
-0.978148 0.207912 0
-0.978148 -0.207912 0
-0.809017 -0.587785 0
-0.5 -0.866025 0
-0.104528 -0.994522 0
0.309017 -0.951057 0
0.669131 -0.743145 0
0.913545 -0.406737 0
CELLS 225 900
3 0 1 2
3 0 2 3
3 0 3 4
3 0 4 5
3 0 5 6
3 0 6 7
3 0 7 8
3 0 8 9
3 0 9 10
3 0 10 11
3 0 11 12
3 0 12 13
3 0 13 14
3 0 14 15
3 0 15 1
3 1 16 17
3 1 17 2
3 2 17 18
3 2 18 3
3 3 18 19
3 3 19 4
3 4 19 20
3 4 20 5
3 5 20 21
3 5 21 6
3 6 21 22
3 6 22 7
3 7 22 23
3 7 23 8
3 8 23 24
3 8 24 9
3 9 24 25
3 9 25 10
3 10 25 26
3 10 26 11
3 11 26 27
3 11 27 12
3 12 27 28
3 12 28 13
3 13 28 29
3 13 29 14
3 14 29 30
3 14 30 15
3 15 30 16
3 15 16 1
3 16 31 32
3 16 32 17
3 17 32 33
3 17 33 18
3 18 33 34
3 18 34 19
3 19 34 35
3 19 35 20
3 20 35 36
3 20 36 21
3 21 36 37
3 21 37 22
3 22 37 38
3 22 38 23
3 23 38 39
3 23 39 24
3 24 39 40
3 24 40 25
3 25 40 41
3 25 41 26
3 26 41 42
3 26 42 27
3 27 42 43
3 27 43 28
3 28 43 44
3 28 44 29
3 29 44 45
3 29 45 30
3 30 45 31
3 30 31 16
3 31 46 47
3 31 47 32
3 32 47 48
3 32 48 33
3 33 48 49
3 33 49 34
3 34 49 50
3 34 50 35
3 35 50 51
3 35 51 36
3 36 51 52
3 36 52 37
3 37 52 53
3 37 53 38
3 38 53 54
3 38 54 39
3 39 54 55
3 39 55 40
3 40 55 56
3 40 56 41
3 41 56 57
3 41 57 42
3 42 57 58
3 42 58 43
3 43 58 59
3 43 59 44
3 44 59 60
3 44 60 45
3 45 60 46
3 45 46 31
3 46 61 62
3 46 62 47
3 47 62 63
3 47 63 48
3 48 63 64
3 48 64 49
3 49 64 65
3 49 65 50
3 50 65 66
3 50 66 51
3 51 66 67
3 51 67 52
3 52 67 68
3 52 68 53
3 53 68 69
3 53 69 54
3 54 69 70
3 54 70 55
3 55 70 71
3 55 71 56
3 56 71 72
3 56 72 57
3 57 72 73
3 57 73 58
3 58 73 74
3 58 74 59
3 59 74 75
3 59 75 60
3 60 75 61
3 60 61 46
3 61 76 77
3 61 77 62
3 62 77 78
3 62 78 63
3 63 78 79
3 63 79 64
3 64 79 80
3 64 80 65
3 65 80 81
3 65 81 66
3 66 81 82
3 66 82 67
3 67 82 83
3 67 83 68
3 68 83 84
3 68 84 69
3 69 84 85
3 69 85 70
3 70 85 86
3 70 86 71
3 71 86 87
3 71 87 72
3 72 87 88
3 72 88 73
3 73 88 89
3 73 89 74
3 74 89 90
3 74 90 75
3 75 90 76
3 75 76 61
3 76 91 92
3 76 92 77
3 77 92 93
3 77 93 78
3 78 93 94
3 78 94 79
3 79 94 95
3 79 95 80
3 80 95 96
3 80 96 81
3 81 96 97
3 81 97 82
3 82 97 98
3 82 98 83
3 83 98 99
3 83 99 84
3 84 99 100
3 84 100 85
3 85 100 101
3 85 101 86
3 86 101 102
3 86 102 87
3 87 102 103
3 87 103 88
3 88 103 104
3 88 104 89
3 89 104 105
3 89 105 90
3 90 105 91
3 90 91 76
3 91 106 107
3 91 107 92
3 92 107 108
3 92 108 93
3 93 108 109
3 93 109 94
3 94 109 110
3 94 110 95
3 95 110 111
3 95 111 96
3 96 111 112
3 96 112 97
3 97 112 113
3 97 113 98
3 98 113 114
3 98 114 99
3 99 114 115
3 99 115 100
3 100 115 116
3 100 116 101
3 101 116 117
3 101 117 102
3 102 117 118
3 102 118 103
3 103 118 119
3 103 119 104
3 104 119 120
3 104 120 105
3 105 120 106
3 105 106 91
CELL_TYPES 225
5
5
5
5
5
5
5
5
5
5
5
5
5
5
5
5
5
5
5
5
5
5
5
5
5
5
5
5
5
5
5
5
5
5
5
5
5
5
5
5
5
5
5
5
5
5
5
5
5
5
5
5
5
5
5
5
5
5
5
5
5
5
5
5
5
5
5
5
5
5
5
5
5
5
5
5
5
5
5
5
5
5
5
5
5
5
5
5
5
5
5
5
5
5
5
5
5
5
5
5
5
5
5
5
5
5
5
5
5
5
5
5
5
5
5
5
5
5
5
5
5
5
5
5
5
5
5
5
5
5
5
5
5
5
5
5
5
5
5
5
5
5
5
5
5
5
5
5
5
5
5
5
5
5
5
5
5
5
5
5
5
5
5
5
5
5
5
5
5
5
5
5
5
5
5
5
5
5
5
5
5
5
5
5
5
5
5
5
5
5
5
5
5
5
5
5
5
5
5
5
5
5
5
5
5
5
5
5
5
5
5
5
5
5
5
5
5
5
5
5
5
5
5
5
5
POINT_DATA 121
SCALARS psi double 1
LOOKUP_TABLE default
-6.11693e-13
0.0286268
0.0938896
0.0970221
0.0359512
-0.0489099
-0.101405
-0.0867971
-0.0147517
0.0670555
0.104489
0.0727787
-0.00709253
-0.0822704
-0.103007
-0.0555795
0.0971424
0.336138
0.352699
0.135864
-0.170877
-0.364542
-0.316976
-0.0596544
0.237142
0.377013
0.267399
-0.0191628
-0.293044
-0.373007
-0.206136
0.180675
0.621151
0.650587
0.249505
-0.316684
-0.673312
-0.584382
-0.108745
0.438854
0.696045
0.492637
-0.0367685
-0.541843
-0.688359
-0.379361
0.245129
0.837759
0.876011
0.334573
-0.428265
-0.907704
-0.786479
-0.144811
0.592684
0.937977
0.662575
-0.0512796
-0.7312
-0.927257
-0.509712
0.261075
0.893042
0.934049
0.356959
-0.456345
-0.967667
-0.838647
-0.154661
0.63167
1
0.706592
-0.0543957
-0.779387
-0.988628
-0.543655
0.225581
0.77263
0.8084
0.30922
-0.394583
-0.837275
-0.72591
-0.134182
0.546339
0.865326
0.611694
-0.0467207
-0.674218
-0.855559
-0.470744
0.148491
0.509104
0.532823
0.203953
-0.259882
-0.551742
-0.478493
-0.0886071
0.359914
0.570266
0.403251
-0.030611
-0.444216
-0.563866
-0.310384
0
0
0
0
0
0
0
0
0
0
0
0
0
0
0
VECTORS Et double
-1.24956e-13 2.40302e-13 0
-0.132088 -0.533608 0
-0.315504 -0.413481 0
-0.468821 -0.222027 0
-0.548473 -0.0154929 0
-0.513405 0.179482 0
-0.369878 0.357933 0
-0.170114 0.4977 0
0.0346101 0.551243 0
0.225952 0.48616 0
0.398108 0.322778 0
0.521114 0.118094 0
0.546297 -0.0838022 0
0.452566 -0.271377 0
0.273184 -0.435338 0
0.06645 -0.538264 0
-0.129071 -0.818261 0
-0.246141 -0.530107 0
-0.534096 -0.138625 0
-0.806755 0.0774317 0
-0.774095 0.145201 0
-0.428047 0.303887 0
-0.0628503 0.616632 0
0.0997684 0.834421 0
0.168083 0.708538 0
0.373158 0.325243 0
0.693249 0.00173356 0
0.838609 -0.115472 0
0.625519 -0.201045 0
0.227218 -0.45125 0
-0.0445475 -0.758328 0
-0.0451383 -0.793804 0
0.0131616 -0.401526 0
-0.325059 0.0809772 0
-0.748681 0.180956 0
-0.736122 0.0010893 0
-0.265107 0.0359414 0
0.149698 0.445953 0
0.144374 0.799654 0
-0.0275199 0.646564 0
0.112071 0.133121 0
0.563458 -0.188433 0
0.815369 -0.0960301 0
0.53205 0.0337741 0
0.0151279 -0.210784 0
-0.197683 -0.667452 0
0.0480615 -0.65416 0
0.274561 -0.213287 0
-0.066532 0.290695 0
-0.58179 0.257856 0
-0.591084 -0.146505 0
-0.0619735 -0.241035 0
0.342072 0.208877 0
0.166852 0.648902 0
-0.222887 0.490169 0
-0.16872 -0.0802549 0
0.350821 -0.352305 0
0.673921 -0.0606707 0
0.360377 0.267682 0
-0.20115 0.0631935 0
-0.322529 -0.479158 0
0.115372 -0.510681 0
0.45704 -0.0584652 0
0.133874 0.433272 0
-0.421437 0.302047 0
-0.447238 -0.249528 0
0.0955088 -0.437424 0
0.46869 0.0165372 0
0.175022 0.497053 0
-0.357904 0.343577 0
-0.372308 -0.23743 0
0.168882 -0.456851 0
0.527818 -0.0310523 0
0.209683 0.429527 0
-0.353707 0.267791 0
-0.399295 -0.308372 0
0.16323 -0.383627 0
0.582846 0.0626773 0
0.284136 0.529272 0
-0.284141 0.326653 0
-0.321982 -0.320618 0
0.213753 -0.574651 0
0.551304 -0.132384 0
0.175983 0.363906 0
-0.450205 0.219573 0
-0.517242 -0.350894 0
0.0230599 -0.522893 0
0.398148 -0.00753697 0
0.0868493 0.540253 0
-0.459904 0.416927 0
-0.445832 -0.166656 0
0.208679 -0.276393 0
0.705304 0.172187 0
0.423523 0.624284 0
-0.166009 0.354399 0
-0.215323 -0.389554 0
0.323249 -0.70723 0
0.634732 -0.268 0
0.180013 0.250856 0
-0.540354 0.1123 0
-0.655775 -0.458462 0
-0.10715 -0.591033 0
0.288806 0.0132085 0
-0.0216295 0.648457 0
-0.562842 0.557542 0
-0.495224 -0.0425663 0
0.260539 -0.190129 0
0.851859 0.281686 0
0.572502 0.741672 0
-0.064462 0.396815 0
-0.126713 -0.471677 0
0.439845 -0.863228 0
0.74189 -0.406168 0
0.19226 0.158008 0
-0.649221 0.0182729 0
-0.814872 -0.579641 0
-0.232741 -0.681983 0
0.201176 0.0329946 0
-0.123084 0.779132 0
-0.684657 0.713948 0
-0.564305 0.0703101 0
