# vtk DataFile Version 3.0
tp3485 scalar+vector
ASCII
DATASET UNSTRUCTURED_GRID
POINTS 121 double
0 0 0
0.125 0 0
0.114193 0.0508421 0
0.0836413 0.0928931 0
0.0386271 0.118882 0
-0.0130661 0.124315 0
-0.0625 0.108253 0
-0.101127 0.0734732 0
-0.122268 0.025989 0
-0.122268 -0.025989 0
-0.101127 -0.0734732 0
-0.0625 -0.108253 0
-0.0130661 -0.124315 0
0.0386271 -0.118882 0
0.0836413 -0.0928931 0
0.114193 -0.0508421 0
0.25 0 0
0.228386 0.101684 0
0.167283 0.185786 0
0.0772542 0.237764 0
-0.0261321 0.24863 0
-0.125 0.216506 0
-0.202254 0.146946 0
-0.244537 0.0519779 0
-0.244537 -0.0519779 0
-0.202254 -0.146946 0
-0.125 -0.216506 0
-0.0261321 -0.24863 0
0.0772542 -0.237764 0
0.167283 -0.185786 0
0.228386 -0.101684 0
0.375 0 0
0.34258 0.152526 0
0.250924 0.278679 0
0.115881 0.356646 0
-0.0391982 0.372946 0
-0.1875 0.32476 0
-0.303381 0.220419 0
-0.366805 0.0779669 0
-0.366805 -0.0779669 0
-0.303381 -0.220419 0
-0.1875 -0.32476 0
-0.0391982 -0.372946 0
0.115881 -0.356646 0
0.250924 -0.278679 0
0.34258 -0.152526 0
0.5 0 0
0.456773 0.203368 0
0.334565 0.371572 0
0.154508 0.475528 0
-0.0522642 0.497261 0
-0.25 0.433013 0
-0.404508 0.293893 0
-0.489074 0.103956 0
-0.489074 -0.103956 0
-0.404508 -0.293893 0
-0.25 -0.433013 0
-0.0522642 -0.497261 0
0.154508 -0.475528 0
0.334565 -0.371572 0
0.456773 -0.203368 0
0.625 0 0
0.570966 0.25421 0
0.418207 0.464466 0
0.193136 0.59441 0
-0.0653303 0.621576 0
-0.3125 0.541266 0
-0.505636 0.367366 0
-0.611342 0.129945 0
-0.611342 -0.129945 0
-0.505636 -0.367366 0
-0.3125 -0.541266 0
-0.0653303 -0.621576 0
0.193136 -0.59441 0
0.418207 -0.464466 0
0.570966 -0.25421 0
0.75 0 0
0.685159 0.305052 0
0.501848 0.557359 0
0.231763 0.713292 0
-0.0783963 0.745891 0
-0.375 0.649519 0
-0.606763 0.440839 0
-0.733611 0.155934 0
-0.733611 -0.155934 0
-0.606763 -0.440839 0
-0.375 -0.649519 0
-0.0783963 -0.745891 0
0.231763 -0.713292 0
0.501848 -0.557359 0
0.685159 -0.305052 0
0.875 0 0
0.799352 0.355895 0
0.585489 0.650252 0
0.27039 0.832174 0
-0.0914624 0.870207 0
-0.4375 0.757772 0
-0.70789 0.514312 0
-0.855879 0.181923 0
-0.855879 -0.181923 0
-0.70789 -0.514312 0
-0.4375 -0.757772 0
-0.0914624 -0.870207 0
0.27039 -0.832174 0
0.585489 -0.650252 0
0.799352 -0.355895 0
1 0 0
0.913545 0.406737 0
0.669131 0.743145 0
0.309017 0.951057 0
-0.104528 0.994522 0
-0.5 0.866025 0
-0.809017 0.587785 0
-0.978148 0.207912 0
-0.978148 -0.207912 0
-0.809017 -0.587785 0
-0.5 -0.866025 0
-0.104528 -0.994522 0
0.309017 -0.951057 0
0.669131 -0.743145 0
0.913545 -0.406737 0
CELLS 225 900
3 0 1 2
3 0 2 3
3 0 3 4
3 0 4 5
3 0 5 6
3 0 6 7
3 0 7 8
3 0 8 9
3 0 9 10
3 0 10 11
3 0 11 12
3 0 12 13
3 0 13 14
3 0 14 15
3 0 15 1
3 1 16 17
3 1 17 2
3 2 17 18
3 2 18 3
3 3 18 19
3 3 19 4
3 4 19 20
3 4 20 5
3 5 20 21
3 5 21 6
3 6 21 22
3 6 22 7
3 7 22 23
3 7 23 8
3 8 23 24
3 8 24 9
3 9 24 25
3 9 25 10
3 10 25 26
3 10 26 11
3 11 26 27
3 11 27 12
3 12 27 28
3 12 28 13
3 13 28 29
3 13 29 14
3 14 29 30
3 14 30 15
3 15 30 16
3 15 16 1
3 16 31 32
3 16 32 17
3 17 32 33
3 17 33 18
3 18 33 34
3 18 34 19
3 19 34 35
3 19 35 20
3 20 35 36
3 20 36 21
3 21 36 37
3 21 37 22
3 22 37 38
3 22 38 23
3 23 38 39
3 23 39 24
3 24 39 40
3 24 40 25
3 25 40 41
3 25 41 26
3 26 41 42
3 26 42 27
3 27 42 43
3 27 43 28
3 28 43 44
3 28 44 29
3 29 44 45
3 29 45 30
3 30 45 31
3 30 31 16
3 31 46 47
3 31 47 32
3 32 47 48
3 32 48 33
3 33 48 49
3 33 49 34
3 34 49 50
3 34 50 35
3 35 50 51
3 35 51 36
3 36 51 52
3 36 52 37
3 37 52 53
3 37 53 38
3 38 53 54
3 38 54 39
3 39 54 55
3 39 55 40
3 40 55 56
3 40 56 41
3 41 56 57
3 41 57 42
3 42 57 58
3 42 58 43
3 43 58 59
3 43 59 44
3 44 59 60
3 44 60 45
3 45 60 46
3 45 46 31
3 46 61 62
3 46 62 47
3 47 62 63
3 47 63 48
3 48 63 64
3 48 64 49
3 49 64 65
3 49 65 50
3 50 65 66
3 50 66 51
3 51 66 67
3 51 67 52
3 52 67 68
3 52 68 53
3 53 68 69
3 53 69 54
3 54 69 70
3 54 70 55
3 55 70 71
3 55 71 56
3 56 71 72
3 56 72 57
3 57 72 73
3 57 73 58
3 58 73 74
3 58 74 59
3 59 74 75
3 59 75 60
3 60 75 61
3 60 61 46
3 61 76 77
3 61 77 62
3 62 77 78
3 62 78 63
3 63 78 79
3 63 79 64
3 64 79 80
3 64 80 65
3 65 80 81
3 65 81 66
3 66 81 82
3 66 82 67
3 67 82 83
3 67 83 68
3 68 83 84
3 68 84 69
3 69 84 85
3 69 85 70
3 70 85 86
3 70 86 71
3 71 86 87
3 71 87 72
3 72 87 88
3 72 88 73
3 73 88 89
3 73 89 74
3 74 89 90
3 74 90 75
3 75 90 76
3 75 76 61
3 76 91 92
3 76 92 77
3 77 92 93
3 77 93 78
3 78 93 94
3 78 94 79
3 79 94 95
3 79 95 80
3 80 95 96
3 80 96 81
3 81 96 97
3 81 97 82
3 82 97 98
3 82 98 83
3 83 98 99
3 83 99 84
3 84 99 100
3 84 100 85
3 85 100 101
3 85 101 86
3 86 101 102
3 86 102 87
3 87 102 103
3 87 103 88
3 88 103 104
3 88 104 89
3 89 104 105
3 89 105 90
3 90 105 91
3 90 91 76
3 91 106 107
3 91 107 92
3 92 107 108
3 92 108 93
3 93 108 109
3 93 109 94
3 94 109 110
3 94 110 95
3 95 110 111
3 95 111 96
3 96 111 112
3 96 112 97
3 97 112 113
3 97 113 98
3 98 113 114
3 98 114 99
3 99 114 115
3 99 115 100
3 100 115 116
3 100 116 101
3 101 116 117
3 101 117 102
3 102 117 118
3 102 118 103
3 103 118 119
3 103 119 104
3 104 119 120
3 104 120 105
3 105 120 106
3 105 106 91
CELL_TYPES 225
5
5
5
5
5
5
5
5
5
5
5
5
5
5
5
5
5
5
5
5
5
5
5
5
5
5
5
5
5
5
5
5
5
5
5
5
5
5
5
5
5
5
5
5
5
5
5
5
5
5
5
5
5
5
5
5
5
5
5
5
5
5
5
5
5
5
5
5
5
5
5
5
5
5
5
5
5
5
5
5
5
5
5
5
5
5
5
5
5
5
5
5
5
5
5
5
5
5
5
5
5
5
5
5
5
5
5
5
5
5
5
5
5
5
5
5
5
5
5
5
5
5
5
5
5
5
5
5
5
5
5
5
5
5
5
5
5
5
5
5
5
5
5
5
5
5
5
5
5
5
5
5
5
5
5
5
5
5
5
5
5
5
5
5
5
5
5
5
5
5
5
5
5
5
5
5
5
5
5
5
5
5
5
5
5
5
5
5
5
5
5
5
5
5
5
5
5
5
5
5
5
5
5
5
5
5
5
5
5
5
5
5
5
5
5
5
5
5
5
5
5
5
5
5
5
POINT_DATA 121
SCALARS psi double 1
LOOKUP_TABLE default
-1
-0.972301
-0.972301
-0.972301
-0.972301
-0.972301
-0.972301
-0.972301
-0.972301
-0.972301
-0.972301
-0.972301
-0.972301
-0.972301
-0.972301
-0.972301
-0.905782
-0.905782
-0.905782
-0.905782
-0.905782
-0.905782
-0.905782
-0.905782
-0.905782
-0.905782
-0.905782
-0.905782
-0.905782
-0.905782
-0.905782
-0.799918
-0.799918
-0.799918
-0.799918
-0.799918
-0.799918
-0.799918
-0.799918
-0.799918
-0.799918
-0.799918
-0.799918
-0.799918
-0.799918
-0.799918
-0.663027
-0.663027
-0.663027
-0.663027
-0.663027
-0.663027
-0.663027
-0.663027
-0.663027
-0.663027
-0.663027
-0.663027
-0.663027
-0.663027
-0.663027
-0.50409
-0.50409
-0.50409
-0.50409
-0.50409
-0.50409
-0.50409
-0.50409
-0.50409
-0.50409
-0.50409
-0.50409
-0.50409
-0.50409
-0.50409
-0.341648
-0.341648
-0.341648
-0.341648
-0.341648
-0.341648
-0.341648
-0.341648
-0.341648
-0.341648
-0.341648
-0.341648
-0.341648
-0.341648
-0.341648
-0.193902
-0.193902
-0.193902
-0.193902
-0.193902
-0.193902
-0.193902
-0.193902
-0.193902
-0.193902
-0.193902
-0.193902
-0.193902
-0.193902
-0.193902
0
0
0
0
0
0
0
0
0
0
0
0
0
0
0
VECTORS Et double
1.33317e-13 4.95213e-14 0
-0.438799 1.72323e-14 0
-0.400863 -0.178476 0
-0.293614 -0.326091 0
-0.135596 -0.417323 0
0.045867 -0.436395 0
0.2194 -0.380011 0
0.354996 -0.25792 0
0.42921 -0.0912315 0
0.42921 0.0912315 0
0.354996 0.25792 0
0.2194 0.380011 0
0.045867 0.436395 0
-0.135596 0.417323 0
-0.293614 0.326091 0
-0.400863 0.178476 0
-0.739549 -7.0817e-14 0
-0.675612 -0.300802 0
-0.494855 -0.549592 0
-0.228533 -0.703353 0
0.077304 -0.735498 0
0.369775 -0.640468 0
0.598308 -0.434696 0
0.723388 -0.153761 0
0.723388 0.153761 0
0.598308 0.434696 0
0.369775 0.640468 0
0.0773039 0.735498 0
-0.228533 0.703353 0
-0.494855 0.549592 0
-0.675612 0.300802 0
-0.916065 -1.05102e-13 0
-0.836867 -0.372597 0
-0.612967 -0.68077 0
-0.28308 -0.87123 0
0.0957547 -0.911047 0
0.458032 -0.793335 0
0.741113 -0.53845 0
0.896047 -0.190461 0
0.896047 0.19046 0
0.741112 0.538449 0
0.458033 0.793336 0
0.0957548 0.911047 0
-0.283079 0.87123 0
-0.612967 0.680769 0
-0.836867 0.372597 0
-0.994704 -7.47231e-14 0
-0.908707 -0.404582 0
-0.665586 -0.73921 0
-0.307381 -0.94602 0
0.103975 -0.989255 0
0.497352 -0.861439 0
0.804732 -0.584674 0
0.972968 -0.206811 0
0.972968 0.206811 0
0.804733 0.584672 0
0.497352 0.861439 0
0.103975 0.989255 0
-0.307381 0.94602 0
-0.665588 0.739209 0
-0.908707 0.404582 0
-0.999997 -2.69573e-14 0
-0.913543 -0.406735 0
-0.66913 -0.743142 0
-0.309016 -0.951054 0
0.104529 -0.994519 0
0.499999 -0.866021 0
0.809017 -0.587785 0
0.978144 -0.207911 0
0.978144 0.207911 0
0.809017 0.587784 0
0.499999 0.866024 0
0.104528 0.994519 0
-0.309016 0.951053 0
-0.669131 0.743144 0
-0.913542 0.406734 0
-0.963374 -4.35129e-16 0
-0.880086 -0.391841 0
-0.644621 -0.715926 0
-0.297701 -0.916224 0
0.1007 -0.958097 0
0.481688 -0.834305 0
0.779388 -0.566259 0
0.942322 -0.200296 0
0.942322 0.200297 0
0.779386 0.566256 0
0.481685 0.834306 0
0.1007 0.958097 0
-0.297699 0.916223 0
-0.644621 0.715925 0
-0.880084 0.391839 0
-0.952665 2.34141e-15 0
-0.870299 -0.387483 0
-0.637456 -0.707967 0
-0.294388 -0.906036 0
0.0995799 -0.947446 0
0.476332 -0.825033 0
0.770719 -0.55996 0
0.931847 -0.198071 0
0.931846 0.198071 0
0.770722 0.559962 0
0.476331 0.825034 0
0.0995803 0.947446 0
-0.294389 0.906038 0
-0.637454 0.707966 0
-0.870302 0.387482 0
-0.979433 -7.87377e-16 0
-0.894756 -0.398371 0
-0.655374 -0.727866 0
-0.302662 -0.931497 0
0.102379 -0.974068 0
0.489708 -0.848199 0
0.792377 -0.575696 0
0.95803 -0.203636 0
0.95803 0.203636 0
0.792366 0.575688 0
0.489721 0.848222 0
0.102379 0.974068 0
-0.302661 0.931496 0
-0.655357 0.727848 0
-0.894756 0.398371 0
