# vtk DataFile Version 3.0
tp3485 scalar+vector
ASCII
DATASET UNSTRUCTURED_GRID
POINTS 121 double
0 0 0
0.125 0 0
0.114193 0.0508421 0
0.0836413 0.0928931 0
0.0386271 0.118882 0
-0.0130661 0.124315 0
-0.0625 0.108253 0
-0.101127 0.0734732 0
-0.122268 0.025989 0
-0.122268 -0.025989 0
-0.101127 -0.0734732 0
-0.0625 -0.108253 0
-0.0130661 -0.124315 0
0.0386271 -0.118882 0
0.0836413 -0.0928931 0
0.114193 -0.0508421 0
0.25 0 0
0.228386 0.101684 0
0.167283 0.185786 0
0.0772542 0.237764 0
-0.0261321 0.24863 0
-0.125 0.216506 0
-0.202254 0.146946 0
-0.244537 0.0519779 0
-0.244537 -0.0519779 0
-0.202254 -0.146946 0
-0.125 -0.216506 0
-0.0261321 -0.24863 0
0.0772542 -0.237764 0
0.167283 -0.185786 0
0.228386 -0.101684 0
0.375 0 0
0.34258 0.152526 0
0.250924 0.278679 0
0.115881 0.356646 0
-0.0391982 0.372946 0
-0.1875 0.32476 0
-0.303381 0.220419 0
-0.366805 0.0779669 0
-0.366805 -0.0779669 0
-0.303381 -0.220419 0
-0.1875 -0.32476 0
-0.0391982 -0.372946 0
0.115881 -0.356646 0
0.250924 -0.278679 0
0.34258 -0.152526 0
0.5 0 0
0.456773 0.203368 0
0.334565 0.371572 0
0.154508 0.475528 0
-0.0522642 0.497261 0
-0.25 0.433013 0
-0.404508 0.293893 0
-0.489074 0.103956 0
-0.489074 -0.103956 0
-0.404508 -0.293893 0
-0.25 -0.433013 0
-0.0522642 -0.497261 0
0.154508 -0.475528 0
0.334565 -0.371572 0
0.456773 -0.203368 0
0.625 0 0
0.570966 0.25421 0
0.418207 0.464466 0
0.193136 0.59441 0
-0.0653303 0.621576 0
-0.3125 0.541266 0
-0.505636 0.367366 0
-0.611342 0.129945 0
-0.611342 -0.129945 0
-0.505636 -0.367366 0
-0.3125 -0.541266 0
-0.0653303 -0.621576 0
0.193136 -0.59441 0
0.418207 -0.464466 0
0.570966 -0.25421 0
0.75 0 0
0.685159 0.305052 0
0.501848 0.557359 0
0.231763 0.713292 0
-0.0783963 0.745891 0
-0.375 0.649519 0
-0.606763 0.440839 0
-0.733611 0.155934 0
-0.733611 -0.155934 0
-0.606763 -0.440839 0
-0.375 -0.649519 0
-0.0783963 -0.745891 0
0.231763 -0.713292 0
0.501848 -0.557359 0
0.685159 -0.305052 0
0.875 0 0
0.799352 0.355895 0
0.585489 0.650252 0
0.27039 0.832174 0
-0.0914624 0.870207 0
-0.4375 0.757772 0
-0.70789 0.514312 0
-0.855879 0.181923 0
-0.855879 -0.181923 0
-0.70789 -0.514312 0
-0.4375 -0.757772 0
-0.0914624 -0.870207 0
0.27039 -0.832174 0
0.585489 -0.650252 0
0.799352 -0.355895 0
1 0 0
0.913545 0.406737 0
0.669131 0.743145 0
0.309017 0.951057 0
-0.104528 0.994522 0
-0.5 0.866025 0
-0.809017 0.587785 0
-0.978148 0.207912 0
-0.978148 -0.207912 0
-0.809017 -0.587785 0
-0.5 -0.866025 0
-0.104528 -0.994522 0
0.309017 -0.951057 0
0.669131 -0.743145 0
0.913545 -0.406737 0
CELLS 225 900
3 0 1 2
3 0 2 3
3 0 3 4
3 0 4 5
3 0 5 6
3 0 6 7
3 0 7 8
3 0 8 9
3 0 9 10
3 0 10 11
3 0 11 12
3 0 12 13
3 0 13 14
3 0 14 15
3 0 15 1
3 1 16 17
3 1 17 2
3 2 17 18
3 2 18 3
3 3 18 19
3 3 19 4
3 4 19 20
3 4 20 5
3 5 20 21
3 5 21 6
3 6 21 22
3 6 22 7
3 7 22 23
3 7 23 8
3 8 23 24
3 8 24 9
3 9 24 25
3 9 25 10
3 10 25 26
3 10 26 11
3 11 26 27
3 11 27 12
3 12 27 28
3 12 28 13
3 13 28 29
3 13 29 14
3 14 29 30
3 14 30 15
3 15 30 16
3 15 16 1
3 16 31 32
3 16 32 17
3 17 32 33
3 17 33 18
3 18 33 34
3 18 34 19
3 19 34 35
3 19 35 20
3 20 35 36
3 20 36 21
3 21 36 37
3 21 37 22
3 22 37 38
3 22 38 23
3 23 38 39
3 23 39 24
3 24 39 40
3 24 40 25
3 25 40 41
3 25 41 26
3 26 41 42
3 26 42 27
3 27 42 43
3 27 43 28
3 28 43 44
3 28 44 29
3 29 44 45
3 29 45 30
3 30 45 31
3 30 31 16
3 31 46 47
3 31 47 32
3 32 47 48
3 32 48 33
3 33 48 49
3 33 49 34
3 34 49 50
3 34 50 35
3 35 50 51
3 35 51 36
3 36 51 52
3 36 52 37
3 37 52 53
3 37 53 38
3 38 53 54
3 38 54 39
3 39 54 55
3 39 55 40
3 40 55 56
3 40 56 41
3 41 56 57
3 41 57 42
3 42 57 58
3 42 58 43
3 43 58 59
3 43 59 44
3 44 59 60
3 44 60 45
3 45 60 46
3 45 46 31
3 46 61 62
3 46 62 47
3 47 62 63
3 47 63 48
3 48 63 64
3 48 64 49
3 49 64 65
3 49 65 50
3 50 65 66
3 50 66 51
3 51 66 67
3 51 67 52
3 52 67 68
3 52 68 53
3 53 68 69
3 53 69 54
3 54 69 70
3 54 70 55
3 55 70 71
3 55 71 56
3 56 71 72
3 56 72 57
3 57 72 73
3 57 73 58
3 58 73 74
3 58 74 59
3 59 74 75
3 59 75 60
3 60 75 61
3 60 61 46
3 61 76 77
3 61 77 62
3 62 77 78
3 62 78 63
3 63 78 79
3 63 79 64
3 64 79 80
3 64 80 65
3 65 80 81
3 65 81 66
3 66 81 82
3 66 82 67
3 67 82 83
3 67 83 68
3 68 83 84
3 68 84 69
3 69 84 85
3 69 85 70
3 70 85 86
3 70 86 71
3 71 86 87
3 71 87 72
3 72 87 88
3 72 88 73
3 73 88 89
3 73 89 74
3 74 89 90
3 74 90 75
3 75 90 76
3 75 76 61
3 76 91 92
3 76 92 77
3 77 92 93
3 77 93 78
3 78 93 94
3 78 94 79
3 79 94 95
3 79 95 80
3 80 95 96
3 80 96 81
3 81 96 97
3 81 97 82
3 82 97 98
3 82 98 83
3 83 98 99
3 83 99 84
3 84 99 100
3 84 100 85
3 85 100 101
3 85 101 86
3 86 101 102
3 86 102 87
3 87 102 103
3 87 103 88
3 88 103 104
3 88 104 89
3 89 104 105
3 89 105 90
3 90 105 91
3 90 91 76
3 91 106 107
3 91 107 92
3 92 107 108
3 92 108 93
3 93 108 109
3 93 109 94
3 94 109 110
3 94 110 95
3 95 110 111
3 95 111 96
3 96 111 112
3 96 112 97
3 97 112 113
3 97 113 98
3 98 113 114
3 98 114 99
3 99 114 115
3 99 115 100
3 100 115 116
3 100 116 101
3 101 116 117
3 101 117 102
3 102 117 118
3 102 118 103
3 103 118 119
3 103 119 104
3 104 119 120
3 104 120 105
3 105 120 106
3 105 106 91
CELL_TYPES 225
5
5
5
5
5
5
5
5
5
5
5
5
5
5
5
5
5
5
5
5
5
5
5
5
5
5
5
5
5
5
5
5
5
5
5
5
5
5
5
5
5
5
5
5
5
5
5
5
5
5
5
5
5
5
5
5
5
5
5
5
5
5
5
5
5
5
5
5
5
5
5
5
5
5
5
5
5
5
5
5
5
5
5
5
5
5
5
5
5
5
5
5
5
5
5
5
5
5
5
5
5
5
5
5
5
5
5
5
5
5
5
5
5
5
5
5
5
5
5
5
5
5
5
5
5
5
5
5
5
5
5
5
5
5
5
5
5
5
5
5
5
5
5
5
5
5
5
5
5
5
5
5
5
5
5
5
5
5
5
5
5
5
5
5
5
5
5
5
5
5
5
5
5
5
5
5
5
5
5
5
5
5
5
5
5
5
5
5
5
5
5
5
5
5
5
5
5
5
5
5
5
5
5
5
5
5
5
5
5
5
5
5
5
5
5
5
5
5
5
5
5
5
5
5
5
POINT_DATA 121
SCALARS psi double 1
LOOKUP_TABLE default
5.18698e-13
0.100586
0.0460271
-0.0389901
-0.098206
-0.0924352
-0.0254964
0.0583143
0.103536
0.0802442
0.00385149
-0.0750899
-0.104341
-0.0645461
0.0179618
0.0885837
0.364928
0.171978
-0.134776
-0.352344
-0.336752
-0.0983184
0.205176
0.372898
0.293858
0.0203616
-0.266609
-0.377154
-0.238122
0.0584851
0.31639
0.673301
0.316231
-0.250102
-0.650932
-0.621016
-0.180149
0.379929
0.688594
0.541589
0.0361939
-0.493152
-0.69616
-0.438492
0.109343
0.584822
0.90679
0.424556
-0.338623
-0.877722
-0.835999
-0.241063
0.513394
0.928118
0.72867
0.0470332
-0.665727
-0.93795
-0.589495
0.149052
0.788965
0.966836
0.452882
-0.360761
-0.935675
-0.891416
-0.257273
0.547118
0.989459
0.777037
0.0504194
-0.709563
-1
-0.628698
0.158638
0.840997
0.836737
0.392212
-0.311855
-0.809556
-0.771542
-0.222969
0.473151
0.856169
0.672626
0.0439807
-0.613768
-0.865363
-0.544314
0.13693
0.727561
0.551481
0.258639
-0.205354
-0.533456
-0.50855
-0.147116
0.31167
0.564212
0.443393
0.0291639
-0.404364
-0.570309
-0.358858
0.0900631
0.479386
0
0
0
0
0
0
0
0
0
0
0
0
0
0
0
VECTORS Et double
2.14109e-13 6.99736e-14 0
-0.495286 0.144872 0
-0.413813 0.356004 0
-0.26062 0.481121 0
-0.039051 0.515649 0
0.203511 0.480903 0
0.396372 0.382693 0
0.497487 0.210594 0
0.51275 -0.0223767 0
0.462668 -0.258877 0
0.346826 -0.430729 0
0.156502 -0.508415 0
-0.0840912 -0.50591 0
-0.309976 -0.440387 0
-0.458951 -0.306115 0
-0.514328 -0.099027 0
-0.476563 0.219854 0
-0.510875 0.599297 0
-0.46852 0.661643 0
-0.145734 0.532521 0
0.337167 0.477168 0
0.645732 0.518869 0
0.636012 0.415983 0
0.504653 0.0276957 0
0.485455 -0.442444 0
0.517233 -0.670235 0
0.343539 -0.602574 0
-0.0961866 -0.485594 0
-0.530948 -0.498123 0
-0.674484 -0.501586 0
-0.56648 -0.252475 0
-0.162961 0.213975 0
-0.367172 0.639074 0
-0.528695 0.559376 0
-0.230231 0.24133 0
0.35663 0.188324 0
0.666892 0.433972 0
0.480418 0.50252 0
0.190075 0.0898811 0
0.235438 -0.479924 0
0.488679 -0.65998 0
0.442489 -0.394701 0
-0.0616368 -0.163238 0
-0.575904 -0.297845 0
-0.622022 -0.522578 0
-0.311998 -0.350186 0
0.17753 0.176567 0
-0.169922 0.585885 0
-0.514224 0.373712 0
-0.282994 -0.0887731 0
0.32415 -0.130488 0
0.590708 0.286617 0
0.252297 0.518366 0
-0.155971 0.140298 0
-0.0506504 -0.447723 0
0.390407 -0.552907 0
0.479425 -0.126232 0
-0.0172866 0.186472 0
-0.537241 -0.0532519 0
-0.477681 -0.469462 0
-0.0085472 -0.399079 0
0.426012 0.137821 0
-0.00981304 0.512058 0
-0.473358 0.211873 0
-0.306936 -0.333971 0
0.28073 -0.36537 0
0.499278 0.157688 0
0.0651987 0.500408 0
-0.409569 0.170719 0
-0.265401 -0.397512 0
0.292829 -0.440312 0
0.47985 0.0843044 0
0.017603 0.44127 0
-0.477104 0.136054 0
-0.341197 -0.401713 0
0.221878 -0.413318 0
0.6039 0.103478 0
0.114187 0.438744 0
-0.426403 0.0805196 0
-0.315493 -0.512094 0
0.238193 -0.534792 0
0.412849 0.0529489 0
-0.0808979 0.470291 0
-0.591792 0.188686 0
-0.422585 -0.346009 0
0.207912 -0.339507 0
0.464614 0.243668 0
0.0439653 0.623465 0
-0.415422 0.277833 0
-0.225204 -0.336305 0
0.392173 -0.410924 0
0.773477 0.0745154 0
0.227287 0.380641 0
-0.391498 -0.0355914 0
-0.328471 -0.680218 0
0.204193 -0.695649 0
0.342584 -0.0400704 0
-0.212957 0.451221 0
-0.764977 0.207953 0
-0.570603 -0.305826 0
0.135276 -0.25514 0
0.458796 0.390388 0
0.0682891 0.797196 0
-0.367322 0.409621 0
-0.125303 -0.283331 0
0.551227 -0.415709 0
0.966897 0.0512364 0
0.342722 0.344803 0
-0.37759 -0.144735 0
-0.355931 -0.867886 0
0.182357 -0.877336 0
0.293689 -0.128099 0
-0.345221 0.454786 0
-0.961322 0.235553 0
-0.734521 -0.28305 0
0.0743703 -0.189073 0
0.474989 0.544583 0
0.093999 0.995572 0
-0.340116 0.550938 0
-0.0387426 -0.247594 0
0.724415 -0.439687 0
