# vtk DataFile Version 3.0
tp3485 cell-vector
ASCII
DATASET UNSTRUCTURED_GRID
POINTS 66 double
0 0 0
0.1 0 0
0.2 0 0
0.3 0 0
0.4 0 0
0.5 0 0
0.6 0 0
0.7 0 0
0.8 0 0
0.9 0 0
1 0 0
0 0.09 0
0.1 0.09 0
0.2 0.09 0
0.3 0.09 0
0.4 0.09 0
0.5 0.09 0
0.6 0.09 0
0.7 0.09 0
0.8 0.09 0
0.9 0.09 0
1 0.09 0
0 0.18 0
0.1 0.18 0
0.2 0.18 0
0.3 0.18 0
0.4 0.18 0
0.5 0.18 0
0.6 0.18 0
0.7 0.18 0
0.8 0.18 0
0.9 0.18 0
1 0.18 0
0 0.27 0
0.1 0.27 0
0.2 0.27 0
0.3 0.27 0
0.4 0.27 0
0.5 0.27 0
0.6 0.27 0
0.7 0.27 0
0.8 0.27 0
0.9 0.27 0
1 0.27 0
0 0.36 0
0.1 0.36 0
0.2 0.36 0
0.3 0.36 0
0.4 0.36 0
0.5 0.36 0
0.6 0.36 0
0.7 0.36 0
0.8 0.36 0
0.9 0.36 0
1 0.36 0
0 0.45 0
0.1 0.45 0
0.2 0.45 0
0.3 0.45 0
0.4 0.45 0
0.5 0.45 0
0.6 0.45 0
0.7 0.45 0
0.8 0.45 0
0.9 0.45 0
1 0.45 0
CELLS 100 400
3 0 1 12
3 0 12 11
3 1 2 13
3 1 13 12
3 2 3 14
3 2 14 13
3 3 4 15
3 3 15 14
3 4 5 16
3 4 16 15
3 5 6 17
3 5 17 16
3 6 7 18
3 6 18 17
3 7 8 19
3 7 19 18
3 8 9 20
3 8 20 19
3 9 10 21
3 9 21 20
3 11 12 23
3 11 23 22
3 12 13 24
3 12 24 23
3 13 14 25
3 13 25 24
3 14 15 26
3 14 26 25
3 15 16 27
3 15 27 26
3 16 17 28
3 16 28 27
3 17 18 29
3 17 29 28
3 18 19 30
3 18 30 29
3 19 20 31
3 19 31 30
3 20 21 32
3 20 32 31
3 22 23 34
3 22 34 33
3 23 24 35
3 23 35 34
3 24 25 36
3 24 36 35
3 25 26 37
3 25 37 36
3 26 27 38
3 26 38 37
3 27 28 39
3 27 39 38
3 28 29 40
3 28 40 39
3 29 30 41
3 29 41 40
3 30 31 42
3 30 42 41
3 31 32 43
3 31 43 42
3 33 34 45
3 33 45 44
3 34 35 46
3 34 46 45
3 35 36 47
3 35 47 46
3 36 37 48
3 36 48 47
3 37 38 49
3 37 49 48
3 38 39 50
3 38 50 49
3 39 40 51
3 39 51 50
3 40 41 52
3 40 52 51
3 41 42 53
3 41 53 52
3 42 43 54
3 42 54 53
3 44 45 56
3 44 56 55
3 45 46 57
3 45 57 56
3 46 47 58
3 46 58 57
3 47 48 59
3 47 59 58
3 48 49 60
3 48 60 59
3 49 50 61
3 49 61 60
3 50 51 62
3 50 62 61
3 51 52 63
3 51 63 62
3 52 53 64
3 52 64 63
3 53 54 65
3 53 65 64
CELL_TYPES 100
5
5
5
5
5
5
5
5
5
5
5
5
5
5
5
5
5
5
5
5
5
5
5
5
5
5
5
5
5
5
5
5
5
5
5
5
5
5
5
5
5
5
5
5
5
5
5
5
5
5
5
5
5
5
5
5
5
5
5
5
5
5
5
5
5
5
5
5
5
5
5
5
5
5
5
5
5
5
5
5
5
5
5
5
5
5
5
5
5
5
5
5
5
5
5
5
5
5
5
5
CELL_DATA 100
VECTORS Et double
-0.00600213 0.308494 0
0.254286 0.00630814 0
-0.00513869 0.576284 0
0.213942 0.321157 0
-0.00391701 0.797354 0
0.176681 0.587165 0
-0.00230407 0.946499 0
0.118746 0.805572 0
-0.000389273 0.998714 0
0.0401002 0.951176 0
0.00157652 0.954386 0
-0.0374084 0.9993 0
0.00338603 0.826478 0
-0.103492 0.950814 0
0.00493583 0.621918 0
-0.164215 0.819032 0
0.00603611 0.347085 0
-0.220917 0.611198 0
0.00642114 0.0071346 0
-0.275813 0.33412 0
0.241572 -0.295128 0
-0.0436453 0.00698128 0
0.202215 -0.545943 0
-0.0475998 -0.281359 0
0.166891 -0.732381 0
-0.0208165 -0.534215 0
0.111844 -0.852672 0
-0.010288 -0.723724 0
0.0368962 -0.898511 0
-0.0105531 -0.848051 0
-0.0365904 -0.859364 0
0.000848442 -0.898484 0
-0.0987429 -0.734307 0
0.0241645 -0.86392 0
-0.155875 -0.541068 0
0.035698 -0.743054 0
-0.209658 -0.296326 0
0.0342223 -0.55334 0
-0.262742 0.00826505 0
0.0387046 -0.311006 0
-0.0522827 0.0636106 0
-0.00216919 0.00265656 0
-0.0545503 0.139254 0
0.00575795 0.0683504 0
-0.0260171 0.182127 0
0.00710647 0.142631 0
-0.0129918 0.208499 0
0.00812203 0.1841 0
-0.0101933 0.226921 0
0.00768909 0.208411 0
0.00418873 0.224017 0
0.00690781 0.224497 0
0.0300234 0.188439 0
0.00645841 0.21968 0
0.0436709 0.133859 0
0.00528671 0.18275 0
0.0437945 0.0736169 0
0.00207866 0.127103 0
0.0488167 0.00383084 0
-0.000903302 0.0662879 0
-0.00679381 0.0137095 0
-0.000883928 0.00233052 0
0.00165579 0.0229288 0
0.00144092 0.0184624 0
0.00363308 0.0308348 0
0.00273545 0.0274708 0
0.00570609 0.0361053 0
0.00365065 0.0348398 0
0.00682577 0.0383545 0
0.00413374 0.0390741 0
0.00771387 0.0369786 0
0.00437421 0.0399171 0
0.00873556 0.0315082 0
0.00446413 0.0370156 0
0.00883419 0.0225729 0
0.00414703 0.0300344 0
0.00668822 0.0122498 0
0.00318311 0.0196914 0
0.00421223 0.0023021 0
0.00270348 0.0082983 0
-0.00492435 0.0140034 0
0.00191191 0.00212434 0
-0.00247674 0.0271881 0
0.00185763 0.0182262 0
-0.000843656 0.0377737 0
0.00170924 0.0311692 0
0.000744128 0.0450218 0
0.0014185 0.0412186 0
0.00224777 0.0481857 0
0.000977804 0.047586 0
0.00370795 0.0467164 0
0.000434503 0.0495928 0
0.00506167 0.0404863 0
-0.000147884 0.0468301 0
0.0059516 0.0300866 0
-0.00071277 0.0393032 0
0.00600492 0.0168977 0
-0.0011924 0.0277418 0
0.00613139 0.00179107 0
-0.0014942 0.0137152 0
