# vtk DataFile Version 3.0
tp3485 cell-vector
ASCII
DATASET UNSTRUCTURED_GRID
POINTS 66 double
0 0 0
0.1 0 0
0.2 0 0
0.3 0 0
0.4 0 0
0.5 0 0
0.6 0 0
0.7 0 0
0.8 0 0
0.9 0 0
1 0 0
0 0.09 0
0.1 0.09 0
0.2 0.09 0
0.3 0.09 0
0.4 0.09 0
0.5 0.09 0
0.6 0.09 0
0.7 0.09 0
0.8 0.09 0
0.9 0.09 0
1 0.09 0
0 0.18 0
0.1 0.18 0
0.2 0.18 0
0.3 0.18 0
0.4 0.18 0
0.5 0.18 0
0.6 0.18 0
0.7 0.18 0
0.8 0.18 0
0.9 0.18 0
1 0.18 0
0 0.27 0
0.1 0.27 0
0.2 0.27 0
0.3 0.27 0
0.4 0.27 0
0.5 0.27 0
0.6 0.27 0
0.7 0.27 0
0.8 0.27 0
0.9 0.27 0
1 0.27 0
0 0.36 0
0.1 0.36 0
0.2 0.36 0
0.3 0.36 0
0.4 0.36 0
0.5 0.36 0
0.6 0.36 0
0.7 0.36 0
0.8 0.36 0
0.9 0.36 0
1 0.36 0
0 0.45 0
0.1 0.45 0
0.2 0.45 0
0.3 0.45 0
0.4 0.45 0
0.5 0.45 0
0.6 0.45 0
0.7 0.45 0
0.8 0.45 0
0.9 0.45 0
1 0.45 0
CELLS 100 400
3 0 1 12
3 0 12 11
3 1 2 13
3 1 13 12
3 2 3 14
3 2 14 13
3 3 4 15
3 3 15 14
3 4 5 16
3 4 16 15
3 5 6 17
3 5 17 16
3 6 7 18
3 6 18 17
3 7 8 19
3 7 19 18
3 8 9 20
3 8 20 19
3 9 10 21
3 9 21 20
3 11 12 23
3 11 23 22
3 12 13 24
3 12 24 23
3 13 14 25
3 13 25 24
3 14 15 26
3 14 26 25
3 15 16 27
3 15 27 26
3 16 17 28
3 16 28 27
3 17 18 29
3 17 29 28
3 18 19 30
3 18 30 29
3 19 20 31
3 19 31 30
3 20 21 32
3 20 32 31
3 22 23 34
3 22 34 33
3 23 24 35
3 23 35 34
3 24 25 36
3 24 36 35
3 25 26 37
3 25 37 36
3 26 27 38
3 26 38 37
3 27 28 39
3 27 39 38
3 28 29 40
3 28 40 39
3 29 30 41
3 29 41 40
3 30 31 42
3 30 42 41
3 31 32 43
3 31 43 42
3 33 34 45
3 33 45 44
3 34 35 46
3 34 46 45
3 35 36 47
3 35 47 46
3 36 37 48
3 36 48 47
3 37 38 49
3 37 49 48
3 38 39 50
3 38 50 49
3 39 40 51
3 39 51 50
3 40 41 52
3 40 52 51
3 41 42 53
3 41 53 52
3 42 43 54
3 42 54 53
3 44 45 56
3 44 56 55
3 45 46 57
3 45 57 56
3 46 47 58
3 46 58 57
3 47 48 59
3 47 59 58
3 48 49 60
3 48 60 59
3 49 50 61
3 49 61 60
3 50 51 62
3 50 62 61
3 51 52 63
3 51 63 62
3 52 53 64
3 52 64 63
3 53 54 65
3 53 65 64
CELL_TYPES 100
5
5
5
5
5
5
5
5
5
5
5
5
5
5
5
5
5
5
5
5
5
5
5
5
5
5
5
5
5
5
5
5
5
5
5
5
5
5
5
5
5
5
5
5
5
5
5
5
5
5
5
5
5
5
5
5
5
5
5
5
5
5
5
5
5
5
5
5
5
5
5
5
5
5
5
5
5
5
5
5
5
5
5
5
5
5
5
5
5
5
5
5
5
5
5
5
5
5
5
5
CELL_DATA 100
VECTORS Et double
0.0352868 -0.0839105 0
0.0660596 -0.0394475 0
0.0312641 -0.199887 0
0.058709 -0.159381 0
0.0241891 -0.29657 0
0.0458007 -0.264165 0
0.014749 -0.364312 0
0.0285952 -0.343378 0
0.00386521 -0.396395 0
0.00867377 -0.389072 0
-0.00739764 -0.389656 0
-0.0120795 -0.396682 0
-0.0179374 -0.344711 0
-0.0316167 -0.36544 0
-0.0267215 -0.26587 0
-0.0479809 -0.29836 0
-0.0328875 -0.160726 0
-0.0595325 -0.201921 0
-0.0358268 -0.0398075 0
-0.0654398 -0.085448 0
0.135034 -0.0780925 0
0.164063 -0.0365776 0
0.121027 -0.187055 0
0.146689 -0.148936 0
0.0953789 -0.277875 0
0.115714 -0.247479 0
0.0605845 -0.341482 0
0.0737682 -0.32197 0
0.019942 -0.371683 0
0.0246488 -0.364929 0
-0.0226371 -0.365513 0
-0.0268643 -0.372185 0
-0.0629691 -0.32354 0
-0.0756911 -0.343017 0
-0.0970618 -0.249767 0
-0.116943 -0.280246 0
-0.12154 -0.151363 0
-0.146599 -0.189905 0
-0.134292 -0.0377658 0
-0.161905 -0.0807873 0
0.226237 -0.135549 0
0.191055 -0.0319764 0
0.202735 -0.279347 0
0.180932 -0.197278 0
0.16014 -0.394366 0
0.144542 -0.331542 0
0.102217 -0.470604 0
0.0931745 -0.43189 0
0.0343309 -0.500758 0
0.0325679 -0.489771 0
-0.0368993 -0.481936 0
-0.0312701 -0.499688 0
-0.104464 -0.416079 0
-0.0920904 -0.460729 0
-0.161645 -0.309901 0
-0.14399 -0.376806 0
-0.202872 -0.175247 0
-0.183002 -0.256395 0
-0.224311 -0.033402 0
-0.211587 -0.112705 0
0.247162 -0.272266 0
0.0842489 -0.0304441 0
0.231486 -0.556235 0
0.0779068 -0.330637 0
0.184566 -0.785917 0
0.0620237 -0.606023 0
0.118738 -0.938497 0
0.0395384 -0.822256 0
0.0411652 -0.999152 0
0.0129583 -0.95783 0
-0.0404829 -0.962028 0
-0.0150105 -0.999586 0
-0.118213 -0.830846 0
-0.0416338 -0.94352 0
-0.184467 -0.618583 0
-0.064397 -0.795209 0
-0.233876 -0.345159 0
-0.0812875 -0.569309 0
-0.267885 -0.0307883 0
-0.0917837 -0.287085 0
0.138122 -0.272164 0
-0.0267839 -0.0297599 0
0.126596 -0.550443 0
-0.024632 -0.328949 0
0.100785 -0.775687 0
-0.0200818 -0.598849 0
0.0645865 -0.925311 0
-0.0135738 -0.810997 0
0.0218438 -0.984444 0
-0.00574076 -0.944078 0
-0.0231564 -0.947171 0
0.0026527 -0.984834 0
-0.0660118 -0.817014 0
0.0107851 -0.929149 0
-0.102617 -0.606495 0
0.0178589 -0.78235 0
-0.129596 -0.335788 0
0.023178 -0.558591 0
-0.145425 -0.0297603 0
0.0262149 -0.279359 0
