# vtk DataFile Version 3.0
tp3485 cell-vector
ASCII
DATASET UNSTRUCTURED_GRID
POINTS 66 double
0 0 0
0.1 0 0
0.2 0 0
0.3 0 0
0.4 0 0
0.5 0 0
0.6 0 0
0.7 0 0
0.8 0 0
0.9 0 0
1 0 0
0 0.09 0
0.1 0.09 0
0.2 0.09 0
0.3 0.09 0
0.4 0.09 0
0.5 0.09 0
0.6 0.09 0
0.7 0.09 0
0.8 0.09 0
0.9 0.09 0
1 0.09 0
0 0.18 0
0.1 0.18 0
0.2 0.18 0
0.3 0.18 0
0.4 0.18 0
0.5 0.18 0
0.6 0.18 0
0.7 0.18 0
0.8 0.18 0
0.9 0.18 0
1 0.18 0
0 0.27 0
0.1 0.27 0
0.2 0.27 0
0.3 0.27 0
0.4 0.27 0
0.5 0.27 0
0.6 0.27 0
0.7 0.27 0
0.8 0.27 0
0.9 0.27 0
1 0.27 0
0 0.36 0
0.1 0.36 0
0.2 0.36 0
0.3 0.36 0
0.4 0.36 0
0.5 0.36 0
0.6 0.36 0
0.7 0.36 0
0.8 0.36 0
0.9 0.36 0
1 0.36 0
0 0.45 0
0.1 0.45 0
0.2 0.45 0
0.3 0.45 0
0.4 0.45 0
0.5 0.45 0
0.6 0.45 0
0.7 0.45 0
0.8 0.45 0
0.9 0.45 0
1 0.45 0
CELLS 100 400
3 0 1 12
3 0 12 11
3 1 2 13
3 1 13 12
3 2 3 14
3 2 14 13
3 3 4 15
3 3 15 14
3 4 5 16
3 4 16 15
3 5 6 17
3 5 17 16
3 6 7 18
3 6 18 17
3 7 8 19
3 7 19 18
3 8 9 20
3 8 20 19
3 9 10 21
3 9 21 20
3 11 12 23
3 11 23 22
3 12 13 24
3 12 24 23
3 13 14 25
3 13 25 24
3 14 15 26
3 14 26 25
3 15 16 27
3 15 27 26
3 16 17 28
3 16 28 27
3 17 18 29
3 17 29 28
3 18 19 30
3 18 30 29
3 19 20 31
3 19 31 30
3 20 21 32
3 20 32 31
3 22 23 34
3 22 34 33
3 23 24 35
3 23 35 34
3 24 25 36
3 24 36 35
3 25 26 37
3 25 37 36
3 26 27 38
3 26 38 37
3 27 28 39
3 27 39 38
3 28 29 40
3 28 40 39
3 29 30 41
3 29 41 40
3 30 31 42
3 30 42 41
3 31 32 43
3 31 43 42
3 33 34 45
3 33 45 44
3 34 35 46
3 34 46 45
3 35 36 47
3 35 47 46
3 36 37 48
3 36 48 47
3 37 38 49
3 37 49 48
3 38 39 50
3 38 50 49
3 39 40 51
3 39 51 50
3 40 41 52
3 40 52 51
3 41 42 53
3 41 53 52
3 42 43 54
3 42 54 53
3 44 45 56
3 44 56 55
3 45 46 57
3 45 57 56
3 46 47 58
3 46 58 57
3 47 48 59
3 47 59 58
3 48 49 60
3 48 60 59
3 49 50 61
3 49 61 60
3 50 51 62
3 50 62 61
3 51 52 63
3 51 63 62
3 52 53 64
3 52 64 63
3 53 54 65
3 53 65 64
CELL_TYPES 100
5
5
5
5
5
5
5
5
5
5
5
5
5
5
5
5
5
5
5
5
5
5
5
5
5
5
5
5
5
5
5
5
5
5
5
5
5
5
5
5
5
5
5
5
5
5
5
5
5
5
5
5
5
5
5
5
5
5
5
5
5
5
5
5
5
5
5
5
5
5
5
5
5
5
5
5
5
5
5
5
5
5
5
5
5
5
5
5
5
5
5
5
5
5
5
5
5
5
5
5
CELL_DATA 100
VECTORS Et double
-0.013705 -0.0495903 0
-0.0993377 0.0151646 0
-0.0123094 -0.0688448 0
-0.0810375 -0.0202599 0
-0.0096757 -0.0783044 0
-0.0611583 -0.04351 0
-0.00604291 -0.0797897 0
-0.0375189 -0.0595422 0
-0.00178849 -0.0747046 0
-0.0114109 -0.0695378 0
0.00263941 -0.0641991 0
0.015271 -0.0740095 0
0.00677743 -0.0500826 0
0.0396488 -0.0731038 0
0.0101924 -0.03431 0
0.0593803 -0.0676257 0
0.0125322 -0.0166199 0
0.074566 -0.0586283 0
0.0135973 0.0151081 0
0.0945124 -0.0451171 0
-0.12522 -0.0212349 0
-0.179533 0.0127599 0
-0.104884 -0.0107807 0
-0.140672 0.00447389 0
-0.0805315 0.00152893 0
-0.107705 0.0117335 0
-0.0503978 0.0127837 0
-0.0674635 0.018422 0
-0.0164608 0.0216204 0
-0.0217887 0.0222745 0
0.0185532 0.0269712 0
0.025357 0.0227301 0
0.0508918 0.0276308 0
0.0684852 0.0196096 0
0.0773749 0.0223917 0
0.102831 0.0125996 0
0.097394 0.011234 0
0.127447 0.00131159 0
0.119709 0.0134236 0
0.167193 -0.0135252 0
-0.198816 0.29194 0
0.0400726 0.00892121 0
-0.157858 0.585342 0
0.077972 0.308467 0
-0.120698 0.810922 0
0.0620955 0.597912 0
-0.0748278 0.9525 0
0.0428129 0.817934 0
-0.0227364 0.999741 0
0.0215248 0.95318 0
0.0309341 0.949641 0
-0.00103402 0.993998 0
0.0800231 0.808966 0
-0.0233807 0.93804 0
0.119138 0.594028 0
-0.0433669 0.792674 0
0.146771 0.324897 0
-0.060031 0.574735 0
0.187046 0.00967074 0
-0.0612781 0.304891 0
0.0241429 0.0177072 0
0.0167943 0.00854698 0
0.063509 0.00778179 0
0.0247468 0.0345635 0
0.0510332 0.00617457 0
0.0238632 0.022827 0
0.036355 0.00667268 0
0.0179693 0.0177488 0
0.0203313 0.00724207 0
0.0108451 0.0135649 0
0.00314273 0.00726043 0
0.00297085 0.0087672 0
-0.0142831 0.00683095 0
-0.00512449 0.00330931 0
-0.0303386 0.00671409 0
-0.0123232 -0.00210732 0
-0.0445564 0.00886788 0
-0.0181219 -0.00613967 0
-0.0453771 0.00803423 0
-0.0183547 -0.00629832 0
0.0017382 0.0308177 0
0.00737012 0.00818902 0
0.010731 0.0576374 0
0.00691977 0.0466883 0
0.0122121 0.0773011 0
0.00588829 0.0716751 0
0.00988451 0.0908076 0
0.00428094 0.0881676 0
0.00714327 0.0961606 0
0.00224419 0.0974106 0
0.00399623 0.0925448 0
-4.52224e-06 0.0978554 0
0.000460222 0.0804798 0
-0.00222068 0.089217 0
-0.00286173 0.0612004 0
-0.004156 0.0725711 0
-0.00592379 0.037143 0
-0.00558815 0.0496766 0
-0.00487619 0.00731797 0
-0.00636828 0.0233697 0
