# vtk DataFile Version 3.0
tp3485 cell-vector
ASCII
DATASET UNSTRUCTURED_GRID
POINTS 66 double
0 0 0
0.1 0 0
0.2 0 0
0.3 0 0
0.4 0 0
0.5 0 0
0.6 0 0
0.7 0 0
0.8 0 0
0.9 0 0
1 0 0
0 0.09 0
0.1 0.09 0
0.2 0.09 0
0.3 0.09 0
0.4 0.09 0
0.5 0.09 0
0.6 0.09 0
0.7 0.09 0
0.8 0.09 0
0.9 0.09 0
1 0.09 0
0 0.18 0
0.1 0.18 0
0.2 0.18 0
0.3 0.18 0
0.4 0.18 0
0.5 0.18 0
0.6 0.18 0
0.7 0.18 0
0.8 0.18 0
0.9 0.18 0
1 0.18 0
0 0.27 0
0.1 0.27 0
0.2 0.27 0
0.3 0.27 0
0.4 0.27 0
0.5 0.27 0
0.6 0.27 0
0.7 0.27 0
0.8 0.27 0
0.9 0.27 0
1 0.27 0
0 0.36 0
0.1 0.36 0
0.2 0.36 0
0.3 0.36 0
0.4 0.36 0
0.5 0.36 0
0.6 0.36 0
0.7 0.36 0
0.8 0.36 0
0.9 0.36 0
1 0.36 0
0 0.45 0
0.1 0.45 0
0.2 0.45 0
0.3 0.45 0
0.4 0.45 0
0.5 0.45 0
0.6 0.45 0
0.7 0.45 0
0.8 0.45 0
0.9 0.45 0
1 0.45 0
CELLS 100 400
3 0 1 12
3 0 12 11
3 1 2 13
3 1 13 12
3 2 3 14
3 2 14 13
3 3 4 15
3 3 15 14
3 4 5 16
3 4 16 15
3 5 6 17
3 5 17 16
3 6 7 18
3 6 18 17
3 7 8 19
3 7 19 18
3 8 9 20
3 8 20 19
3 9 10 21
3 9 21 20
3 11 12 23
3 11 23 22
3 12 13 24
3 12 24 23
3 13 14 25
3 13 25 24
3 14 15 26
3 14 26 25
3 15 16 27
3 15 27 26
3 16 17 28
3 16 28 27
3 17 18 29
3 17 29 28
3 18 19 30
3 18 30 29
3 19 20 31
3 19 31 30
3 20 21 32
3 20 32 31
3 22 23 34
3 22 34 33
3 23 24 35
3 23 35 34
3 24 25 36
3 24 36 35
3 25 26 37
3 25 37 36
3 26 27 38
3 26 38 37
3 27 28 39
3 27 39 38
3 28 29 40
3 28 40 39
3 29 30 41
3 29 41 40
3 30 31 42
3 30 42 41
3 31 32 43
3 31 43 42
3 33 34 45
3 33 45 44
3 34 35 46
3 34 46 45
3 35 36 47
3 35 47 46
3 36 37 48
3 36 48 47
3 37 38 49
3 37 49 48
3 38 39 50
3 38 50 49
3 39 40 51
3 39 51 50
3 40 41 52
3 40 52 51
3 41 42 53
3 41 53 52
3 42 43 54
3 42 54 53
3 44 45 56
3 44 56 55
3 45 46 57
3 45 57 56
3 46 47 58
3 46 58 57
3 47 48 59
3 47 59 58
3 48 49 60
3 48 60 59
3 49 50 61
3 49 61 60
3 50 51 62
3 50 62 61
3 51 52 63
3 51 63 62
3 52 53 64
3 52 64 63
3 53 54 65
3 53 65 64
CELL_TYPES 100
5
5
5
5
5
5
5
5
5
5
5
5
5
5
5
5
5
5
5
5
5
5
5
5
5
5
5
5
5
5
5
5
5
5
5
5
5
5
5
5
5
5
5
5
5
5
5
5
5
5
5
5
5
5
5
5
5
5
5
5
5
5
5
5
5
5
5
5
5
5
5
5
5
5
5
5
5
5
5
5
5
5
5
5
5
5
5
5
5
5
5
5
5
5
5
5
5
5
5
5
CELL_DATA 100
VECTORS Et double
-0.0008789 0.100717 0
0.0886732 0.000118896 0
0.00191382 -0.220113 0
-0.285826 0.101709 0
-0.00270083 0.332493 0
0.494355 -0.222516 0
0.00337578 -0.401756 0
-0.657496 0.335895 0
-0.00335882 0.424909 0
0.74194 -0.40622 0
0.00327816 -0.395424 0
-0.736178 0.429239 0
-0.0024383 0.317398 0
0.641361 -0.399855 0
0.00165164 -0.204278 0
-0.469541 0.320606 0
-0.000762717 0.0848581 0
0.260876 -0.206406 0
4.16774e-05 4.63082e-05 0
-0.0769426 0.0856682 0
0.0888799 -0.135247 0
-0.0328637 0.000186329 0
-0.286599 0.321 0
0.121993 -0.134715 0
0.495742 -0.500009 0
-0.239312 0.319914 0
-0.659233 0.622292 0
0.345381 -0.498374 0
0.744229 -0.667925 0
-0.410038 0.620122 0
-0.738185 0.632132 0
0.425127 -0.665912 0
0.643458 -0.520854 0
-0.387529 0.629996 0
-0.470869 0.345145 0
0.30368 -0.519418 0
0.261735 -0.153982 0
-0.183832 0.343938 0
-0.0769864 -8.61212e-05 0
0.0602507 -0.15365 0
-0.0325955 0.0341792 0
-0.000661656 -0.000409249 0
0.118794 -0.0894643 0
0.00369297 0.0347226 0
-0.232499 0.153266 0
-0.00825377 -0.0885223 0
0.335495 -0.200802 0
0.0113574 0.149446 0
-0.398089 0.22388 0
-0.0116616 -0.194311 0
0.412851 -0.219691 0
0.0114043 0.215432 0
-0.376094 0.187847 0
-0.00898571 -0.210504 0
0.294844 -0.135103 0
0.0061982 0.178841 0
-0.177993 0.0644317 0
-0.00169212 -0.127708 0
0.0580536 -0.00144895 0
0.00258727 0.0594298 0
-0.00040436 0.000679734 0
5.53142e-05 2.28101e-05 0
0.00272451 -0.00162583 0
0.000297348 0.000912855 0
-0.00637665 0.00380169 0
-0.000799035 -0.00181023 0
0.00920976 -0.00431834 0
0.00122558 0.00371784 0
-0.00958615 0.0044311 0
-0.00107373 -0.00403373 0
0.00972205 -0.00443211 0
0.00128453 0.00396223 0
-0.00779 0.00294274 0
-0.000803289 -0.00389779 0
0.0057442 -0.00230172 0
0.000940465 0.00234396 0
-0.00193418 0.000318704 0
8.71979e-05 -0.00168649 0
0.00265153 -0.000627071 0
0.00108763 0.000258931 0
-1.16635e-05 0.000174578 0
3.30027e-05 3.66697e-05 0
0.000203192 8.46689e-05 0
2.68165e-05 0.000255984 0
-0.000559714 0.000544247 0
-3.72249e-05 3.817e-05 0
0.000938405 -0.000365506 0
3.47165e-05 0.000549716 0
-0.000754436 0.000331932 0
-3.54297e-05 -0.00035457 0
0.00100173 -0.000714809 0
2.03658e-05 0.000281532 0
-0.000555313 -0.000137979 0
-1.18913e-05 -0.000656591 0
0.000744 -0.000866311 0
2.16484e-05 -0.000185903 0
-1.27614e-05 -0.000400299 0
8.58577e-05 -0.000672762 0
0.000640462 -0.000272265 0
0.000149971 -0.000166175 0
