# vtk DataFile Version 3.0
tp3485 cell-vector
ASCII
DATASET UNSTRUCTURED_GRID
POINTS 66 double
0 0 0
0.1 0 0
0.2 0 0
0.3 0 0
0.4 0 0
0.5 0 0
0.6 0 0
0.7 0 0
0.8 0 0
0.9 0 0
1 0 0
0 0.09 0
0.1 0.09 0
0.2 0.09 0
0.3 0.09 0
0.4 0.09 0
0.5 0.09 0
0.6 0.09 0
0.7 0.09 0
0.8 0.09 0
0.9 0.09 0
1 0.09 0
0 0.18 0
0.1 0.18 0
0.2 0.18 0
0.3 0.18 0
0.4 0.18 0
0.5 0.18 0
0.6 0.18 0
0.7 0.18 0
0.8 0.18 0
0.9 0.18 0
1 0.18 0
0 0.27 0
0.1 0.27 0
0.2 0.27 0
0.3 0.27 0
0.4 0.27 0
0.5 0.27 0
0.6 0.27 0
0.7 0.27 0
0.8 0.27 0
0.9 0.27 0
1 0.27 0
0 0.36 0
0.1 0.36 0
0.2 0.36 0
0.3 0.36 0
0.4 0.36 0
0.5 0.36 0
0.6 0.36 0
0.7 0.36 0
0.8 0.36 0
0.9 0.36 0
1 0.36 0
0 0.45 0
0.1 0.45 0
0.2 0.45 0
0.3 0.45 0
0.4 0.45 0
0.5 0.45 0
0.6 0.45 0
0.7 0.45 0
0.8 0.45 0
0.9 0.45 0
1 0.45 0
CELLS 100 400
3 0 1 12
3 0 12 11
3 1 2 13
3 1 13 12
3 2 3 14
3 2 14 13
3 3 4 15
3 3 15 14
3 4 5 16
3 4 16 15
3 5 6 17
3 5 17 16
3 6 7 18
3 6 18 17
3 7 8 19
3 7 19 18
3 8 9 20
3 8 20 19
3 9 10 21
3 9 21 20
3 11 12 23
3 11 23 22
3 12 13 24
3 12 24 23
3 13 14 25
3 13 25 24
3 14 15 26
3 14 26 25
3 15 16 27
3 15 27 26
3 16 17 28
3 16 28 27
3 17 18 29
3 17 29 28
3 18 19 30
3 18 30 29
3 19 20 31
3 19 31 30
3 20 21 32
3 20 32 31
3 22 23 34
3 22 34 33
3 23 24 35
3 23 35 34
3 24 25 36
3 24 36 35
3 25 26 37
3 25 37 36
3 26 27 38
3 26 38 37
3 27 28 39
3 27 39 38
3 28 29 40
3 28 40 39
3 29 30 41
3 29 41 40
3 30 31 42
3 30 42 41
3 31 32 43
3 31 43 42
3 33 34 45
3 33 45 44
3 34 35 46
3 34 46 45
3 35 36 47
3 35 47 46
3 36 37 48
3 36 48 47
3 37 38 49
3 37 49 48
3 38 39 50
3 38 50 49
3 39 40 51
3 39 51 50
3 40 41 52
3 40 52 51
3 41 42 53
3 41 53 52
3 42 43 54
3 42 54 53
3 44 45 56
3 44 56 55
3 45 46 57
3 45 57 56
3 46 47 58
3 46 58 57
3 47 48 59
3 47 59 58
3 48 49 60
3 48 60 59
3 49 50 61
3 49 61 60
3 50 51 62
3 50 62 61
3 51 52 63
3 51 63 62
3 52 53 64
3 52 64 63
3 53 54 65
3 53 65 64
CELL_TYPES 100
5
5
5
5
5
5
5
5
5
5
5
5
5
5
5
5
5
5
5
5
5
5
5
5
5
5
5
5
5
5
5
5
5
5
5
5
5
5
5
5
5
5
5
5
5
5
5
5
5
5
5
5
5
5
5
5
5
5
5
5
5
5
5
5
5
5
5
5
5
5
5
5
5
5
5
5
5
5
5
5
5
5
5
5
5
5
5
5
5
5
5
5
5
5
5
5
5
5
5
5
CELL_DATA 100
VECTORS Et double
0.00175899 -0.561232 0
-0.503212 0.000900943 0
0.000842527 0.0232299 0
0.533687 -0.565535 0
-0.00144894 0.521056 0
0.44842 0.0209426 0
-0.00151859 0.0170092 0
-0.462666 0.525187 0
0.000416457 -0.519688 0
-0.488129 0.0211499 0
0.000547447 -0.059263 0
0.418075 -0.521362 0
-0.00123004 0.523483 0
0.525344 -0.0614186 0
-0.0011197 0.115241 0
-0.374078 0.526623 0
0.00144579 -0.541248 0
-0.592163 0.118204 0
0.000829233 0.00092137 0
0.493574 -0.544253 0
-0.503274 0.807595 0
0.226874 -0.00142421 0
0.535067 -0.125209 0
-0.301424 0.805087 0
0.448819 -0.782475 0
-0.14588 -0.1235 0
-0.464671 0.0488041 0
0.279247 -0.779523 0
-0.49038 0.785854 0
0.172873 0.0486847 0
0.418007 0.0288689 0
-0.262531 0.784819 0
0.525946 -0.769828 0
-0.19581 0.0306997 0
-0.375027 -0.0826298 0
0.240216 -0.767232 0
-0.593106 0.805125 0
0.207097 -0.0833332 0
0.494236 -0.000663403 0
-0.227345 0.802441 0
0.223566 -0.21855 0
0.014869 0.00411739 0
-0.293062 0.078679 0
-0.0193129 -0.215661 0
-0.142966 0.197653 0
-0.017107 0.0665037 0
0.270071 -0.0677483 0
0.0219756 0.196641 0
0.167589 -0.205698 0
0.020769 -0.0539296 0
-0.255327 0.0505416 0
-0.0200969 -0.201951 0
-0.191085 0.213737 0
-0.0231177 0.0382597 0
0.232592 -0.0216859 0
0.016677 0.209705 0
0.200949 -0.198615 0
0.0194795 -0.00936532 0
-0.219094 0.00715614 0
-0.0292528 -0.19421 0
0.0108932 -0.00804614 0
0.00234847 0.000573927 0
-0.0154561 0.000516013 0
-0.0043922 -0.00872483 0
-0.0126973 0.00701102 0
-0.00317068 -0.00239655 0
0.01684 -0.00200111 0
0.00449367 0.00790232 0
0.01468 -0.00747937 0
0.00391767 0.00198235 0
-0.0164874 0.0035121 0
-0.00444278 -0.00709598 0
-0.0173865 0.0116755 0
-0.00512479 0.000256073 0
0.0133053 0.00185824 0
0.00241941 0.0113175 0
0.0139036 -0.0063403 0
0.00262234 0.00470448 0
-0.0236055 0.00386309 0
-0.00818338 -0.00756053 0
0.00198172 -0.00258792 0
-6.58709e-05 -7.31899e-05 0
-0.00300061 -0.00122803 0
-0.000372095 -0.00316779 0
-0.00245059 0.000320994 0
-0.000193626 -0.00201054 0
0.00266355 -0.00022403 0
0.000471565 0.000883894 0
0.00233727 -3.87088e-05 0
0.000486367 0.00112003 0
-0.00334903 0.00293223 0
-0.000182033 0.000116442 0
-0.00380048 0.00519326 0
-0.000355522 0.00203637 0
0.00153802 0.00385696 0
9.60639e-05 0.00502418 0
0.00213022 0.00136417 0
-4.19182e-05 0.00413859 0
-0.0050437 0.00163955 0
-0.00101244 -7.5133e-05 0
