# vtk DataFile Version 3.0
tp3485 cell-vector
ASCII
DATASET UNSTRUCTURED_GRID
POINTS 441 double
0 0 0
0.05 0 0
0.1 0 0
0.15 0 0
0.2 0 0
0.25 0 0
0.3 0 0
0.35 0 0
0.4 0 0
0.45 0 0
0.5 0 0
0.55 0 0
0.6 0 0
0.65 0 0
0.7 0 0
0.75 0 0
0.8 0 0
0.85 0 0
0.9 0 0
0.95 0 0
1 0 0
0 0.05 0
0.05 0.05 0
0.1 0.05 0
0.15 0.05 0
0.2 0.05 0
0.25 0.05 0
0.3 0.05 0
0.35 0.05 0
0.4 0.05 0
0.45 0.05 0
0.5 0.05 0
0.55 0.05 0
0.6 0.05 0
0.65 0.05 0
0.7 0.05 0
0.75 0.05 0
0.8 0.05 0
0.85 0.05 0
0.9 0.05 0
0.95 0.05 0
1 0.05 0
0 0.1 0
0.05 0.1 0
0.1 0.1 0
0.15 0.1 0
0.2 0.1 0
0.25 0.1 0
0.3 0.1 0
0.35 0.1 0
0.4 0.1 0
0.45 0.1 0
0.5 0.1 0
0.55 0.1 0
0.6 0.1 0
0.65 0.1 0
0.7 0.1 0
0.75 0.1 0
0.8 0.1 0
0.85 0.1 0
0.9 0.1 0
0.95 0.1 0
1 0.1 0
0 0.15 0
0.05 0.15 0
0.1 0.15 0
0.15 0.15 0
0.2 0.15 0
0.25 0.15 0
0.3 0.15 0
0.35 0.15 0
0.4 0.15 0
0.45 0.15 0
0.5 0.15 0
0.55 0.15 0
0.6 0.15 0
0.65 0.15 0
0.7 0.15 0
0.75 0.15 0
0.8 0.15 0
0.85 0.15 0
0.9 0.15 0
0.95 0.15 0
1 0.15 0
0 0.2 0
0.05 0.2 0
0.1 0.2 0
0.15 0.2 0
0.2 0.2 0
0.25 0.2 0
0.3 0.2 0
0.35 0.2 0
0.4 0.2 0
0.45 0.2 0
0.5 0.2 0
0.55 0.2 0
0.6 0.2 0
0.65 0.2 0
0.7 0.2 0
0.75 0.2 0
0.8 0.2 0
0.85 0.2 0
0.9 0.2 0
0.95 0.2 0
1 0.2 0
0 0.25 0
0.05 0.25 0
0.1 0.25 0
0.15 0.25 0
0.2 0.25 0
0.25 0.25 0
0.3 0.25 0
0.35 0.25 0
0.4 0.25 0
0.45 0.25 0
0.5 0.25 0
0.55 0.25 0
0.6 0.25 0
0.65 0.25 0
0.7 0.25 0
0.75 0.25 0
0.8 0.25 0
0.85 0.25 0
0.9 0.25 0
0.95 0.25 0
1 0.25 0
0 0.3 0
0.05 0.3 0
0.1 0.3 0
0.15 0.3 0
0.2 0.3 0
0.25 0.3 0
0.3 0.3 0
0.35 0.3 0
0.4 0.3 0
0.45 0.3 0
0.5 0.3 0
0.55 0.3 0
0.6 0.3 0
0.65 0.3 0
0.7 0.3 0
0.75 0.3 0
0.8 0.3 0
0.85 0.3 0
0.9 0.3 0
0.95 0.3 0
1 0.3 0
0 0.35 0
0.05 0.35 0
0.1 0.35 0
0.15 0.35 0
0.2 0.35 0
0.25 0.35 0
0.3 0.35 0
0.35 0.35 0
0.4 0.35 0
0.45 0.35 0
0.5 0.35 0
0.55 0.35 0
0.6 0.35 0
0.65 0.35 0
0.7 0.35 0
0.75 0.35 0
0.8 0.35 0
0.85 0.35 0
0.9 0.35 0
0.95 0.35 0
1 0.35 0
0 0.4 0
0.05 0.4 0
0.1 0.4 0
0.15 0.4 0
0.2 0.4 0
0.25 0.4 0
0.3 0.4 0
0.35 0.4 0
0.4 0.4 0
0.45 0.4 0
0.5 0.4 0
0.55 0.4 0
0.6 0.4 0
0.65 0.4 0
0.7 0.4 0
0.75 0.4 0
0.8 0.4 0
0.85 0.4 0
0.9 0.4 0
0.95 0.4 0
1 0.4 0
0 0.45 0
0.05 0.45 0
0.1 0.45 0
0.15 0.45 0
0.2 0.45 0
0.25 0.45 0
0.3 0.45 0
0.35 0.45 0
0.4 0.45 0
0.45 0.45 0
0.5 0.45 0
0.55 0.45 0
0.6 0.45 0
0.65 0.45 0
0.7 0.45 0
0.75 0.45 0
0.8 0.45 0
0.85 0.45 0
0.9 0.45 0
0.95 0.45 0
1 0.45 0
0 0.5 0
0.05 0.5 0
0.1 0.5 0
0.15 0.5 0
0.2 0.5 0
0.25 0.5 0
0.3 0.5 0
0.35 0.5 0
0.4 0.5 0
0.45 0.5 0
0.5 0.5 0
0.55 0.5 0
0.6 0.5 0
0.65 0.5 0
0.7 0.5 0
0.75 0.5 0
0.8 0.5 0
0.85 0.5 0
0.9 0.5 0
0.95 0.5 0
1 0.5 0
0 0.55 0
0.05 0.55 0
0.1 0.55 0
0.15 0.55 0
0.2 0.55 0
0.25 0.55 0
0.3 0.55 0
0.35 0.55 0
0.4 0.55 0
0.45 0.55 0
0.5 0.55 0
0.55 0.55 0
0.6 0.55 0
0.65 0.55 0
0.7 0.55 0
0.75 0.55 0
0.8 0.55 0
0.85 0.55 0
0.9 0.55 0
0.95 0.55 0
1 0.55 0
0 0.6 0
0.05 0.6 0
0.1 0.6 0
0.15 0.6 0
0.2 0.6 0
0.25 0.6 0
0.3 0.6 0
0.35 0.6 0
0.4 0.6 0
0.45 0.6 0
0.5 0.6 0
0.55 0.6 0
0.6 0.6 0
0.65 0.6 0
0.7 0.6 0
0.75 0.6 0
0.8 0.6 0
0.85 0.6 0
0.9 0.6 0
0.95 0.6 0
1 0.6 0
0 0.65 0
0.05 0.65 0
0.1 0.65 0
0.15 0.65 0
0.2 0.65 0
0.25 0.65 0
0.3 0.65 0
0.35 0.65 0
0.4 0.65 0
0.45 0.65 0
0.5 0.65 0
0.55 0.65 0
0.6 0.65 0
0.65 0.65 0
0.7 0.65 0
0.75 0.65 0
0.8 0.65 0
0.85 0.65 0
0.9 0.65 0
0.95 0.65 0
1 0.65 0
0 0.7 0
0.05 0.7 0
0.1 0.7 0
0.15 0.7 0
0.2 0.7 0
0.25 0.7 0
0.3 0.7 0
0.35 0.7 0
0.4 0.7 0
0.45 0.7 0
0.5 0.7 0
0.55 0.7 0
0.6 0.7 0
0.65 0.7 0
0.7 0.7 0
0.75 0.7 0
0.8 0.7 0
0.85 0.7 0
0.9 0.7 0
0.95 0.7 0
1 0.7 0
0 0.75 0
0.05 0.75 0
0.1 0.75 0
0.15 0.75 0
0.2 0.75 0
0.25 0.75 0
0.3 0.75 0
0.35 0.75 0
0.4 0.75 0
0.45 0.75 0
0.5 0.75 0
0.55 0.75 0
0.6 0.75 0
0.65 0.75 0
0.7 0.75 0
0.75 0.75 0
0.8 0.75 0
0.85 0.75 0
0.9 0.75 0
0.95 0.75 0
1 0.75 0
0 0.8 0
0.05 0.8 0
0.1 0.8 0
0.15 0.8 0
0.2 0.8 0
0.25 0.8 0
0.3 0.8 0
0.35 0.8 0
0.4 0.8 0
0.45 0.8 0
0.5 0.8 0
0.55 0.8 0
0.6 0.8 0
0.65 0.8 0
0.7 0.8 0
0.75 0.8 0
0.8 0.8 0
0.85 0.8 0
0.9 0.8 0
0.95 0.8 0
1 0.8 0
0 0.85 0
0.05 0.85 0
0.1 0.85 0
0.15 0.85 0
0.2 0.85 0
0.25 0.85 0
0.3 0.85 0
0.35 0.85 0
0.4 0.85 0
0.45 0.85 0
0.5 0.85 0
0.55 0.85 0
0.6 0.85 0
0.65 0.85 0
0.7 0.85 0
0.75 0.85 0
0.8 0.85 0
0.85 0.85 0
0.9 0.85 0
0.95 0.85 0
1 0.85 0
0 0.9 0
0.05 0.9 0
0.1 0.9 0
0.15 0.9 0
0.2 0.9 0
0.25 0.9 0
0.3 0.9 0
0.35 0.9 0
0.4 0.9 0
0.45 0.9 0
0.5 0.9 0
0.55 0.9 0
0.6 0.9 0
0.65 0.9 0
0.7 0.9 0
0.75 0.9 0
0.8 0.9 0
0.85 0.9 0
0.9 0.9 0
0.95 0.9 0
1 0.9 0
0 0.95 0
0.05 0.95 0
0.1 0.95 0
0.15 0.95 0
0.2 0.95 0
0.25 0.95 0
0.3 0.95 0
0.35 0.95 0
0.4 0.95 0
0.45 0.95 0
0.5 0.95 0
0.55 0.95 0
0.6 0.95 0
0.65 0.95 0
0.7 0.95 0
0.75 0.95 0
0.8 0.95 0
0.85 0.95 0
0.9 0.95 0
0.95 0.95 0
1 0.95 0
0 1 0
0.05 1 0
0.1 1 0
0.15 1 0
0.2 1 0
0.25 1 0
0.3 1 0
0.35 1 0
0.4 1 0
0.45 1 0
0.5 1 0
0.55 1 0
0.6 1 0
0.65 1 0
0.7 1 0
0.75 1 0
0.8 1 0
0.85 1 0
0.9 1 0
0.95 1 0
1 1 0
CELLS 800 3200
3 0 1 22
3 0 22 21
3 1 2 23
3 1 23 22
3 2 3 24
3 2 24 23
3 3 4 25
3 3 25 24
3 4 5 26
3 4 26 25
3 5 6 27
3 5 27 26
3 6 7 28
3 6 28 27
3 7 8 29
3 7 29 28
3 8 9 30
3 8 30 29
3 9 10 31
3 9 31 30
3 10 11 32
3 10 32 31
3 11 12 33
3 11 33 32
3 12 13 34
3 12 34 33
3 13 14 35
3 13 35 34
3 14 15 36
3 14 36 35
3 15 16 37
3 15 37 36
3 16 17 38
3 16 38 37
3 17 18 39
3 17 39 38
3 18 19 40
3 18 40 39
3 19 20 41
3 19 41 40
3 21 22 43
3 21 43 42
3 22 23 44
3 22 44 43
3 23 24 45
3 23 45 44
3 24 25 46
3 24 46 45
3 25 26 47
3 25 47 46
3 26 27 48
3 26 48 47
3 27 28 49
3 27 49 48
3 28 29 50
3 28 50 49
3 29 30 51
3 29 51 50
3 30 31 52
3 30 52 51
3 31 32 53
3 31 53 52
3 32 33 54
3 32 54 53
3 33 34 55
3 33 55 54
3 34 35 56
3 34 56 55
3 35 36 57
3 35 57 56
3 36 37 58
3 36 58 57
3 37 38 59
3 37 59 58
3 38 39 60
3 38 60 59
3 39 40 61
3 39 61 60
3 40 41 62
3 40 62 61
3 42 43 64
3 42 64 63
3 43 44 65
3 43 65 64
3 44 45 66
3 44 66 65
3 45 46 67
3 45 67 66
3 46 47 68
3 46 68 67
3 47 48 69
3 47 69 68
3 48 49 70
3 48 70 69
3 49 50 71
3 49 71 70
3 50 51 72
3 50 72 71
3 51 52 73
3 51 73 72
3 52 53 74
3 52 74 73
3 53 54 75
3 53 75 74
3 54 55 76
3 54 76 75
3 55 56 77
3 55 77 76
3 56 57 78
3 56 78 77
3 57 58 79
3 57 79 78
3 58 59 80
3 58 80 79
3 59 60 81
3 59 81 80
3 60 61 82
3 60 82 81
3 61 62 83
3 61 83 82
3 63 64 85
3 63 85 84
3 64 65 86
3 64 86 85
3 65 66 87
3 65 87 86
3 66 67 88
3 66 88 87
3 67 68 89
3 67 89 88
3 68 69 90
3 68 90 89
3 69 70 91
3 69 91 90
3 70 71 92
3 70 92 91
3 71 72 93
3 71 93 92
3 72 73 94
3 72 94 93
3 73 74 95
3 73 95 94
3 74 75 96
3 74 96 95
3 75 76 97
3 75 97 96
3 76 77 98
3 76 98 97
3 77 78 99
3 77 99 98
3 78 79 100
3 78 100 99
3 79 80 101
3 79 101 100
3 80 81 102
3 80 102 101
3 81 82 103
3 81 103 102
3 82 83 104
3 82 104 103
3 84 85 106
3 84 106 105
3 85 86 107
3 85 107 106
3 86 87 108
3 86 108 107
3 87 88 109
3 87 109 108
3 88 89 110
3 88 110 109
3 89 90 111
3 89 111 110
3 90 91 112
3 90 112 111
3 91 92 113
3 91 113 112
3 92 93 114
3 92 114 113
3 93 94 115
3 93 115 114
3 94 95 116
3 94 116 115
3 95 96 117
3 95 117 116
3 96 97 118
3 96 118 117
3 97 98 119
3 97 119 118
3 98 99 120
3 98 120 119
3 99 100 121
3 99 121 120
3 100 101 122
3 100 122 121
3 101 102 123
3 101 123 122
3 102 103 124
3 102 124 123
3 103 104 125
3 103 125 124
3 105 106 127
3 105 127 126
3 106 107 128
3 106 128 127
3 107 108 129
3 107 129 128
3 108 109 130
3 108 130 129
3 109 110 131
3 109 131 130
3 110 111 132
3 110 132 131
3 111 112 133
3 111 133 132
3 112 113 134
3 112 134 133
3 113 114 135
3 113 135 134
3 114 115 136
3 114 136 135
3 115 116 137
3 115 137 136
3 116 117 138
3 116 138 137
3 117 118 139
3 117 139 138
3 118 119 140
3 118 140 139
3 119 120 141
3 119 141 140
3 120 121 142
3 120 142 141
3 121 122 143
3 121 143 142
3 122 123 144
3 122 144 143
3 123 124 145
3 123 145 144
3 124 125 146
3 124 146 145
3 126 127 148
3 126 148 147
3 127 128 149
3 127 149 148
3 128 129 150
3 128 150 149
3 129 130 151
3 129 151 150
3 130 131 152
3 130 152 151
3 131 132 153
3 131 153 152
3 132 133 154
3 132 154 153
3 133 134 155
3 133 155 154
3 134 135 156
3 134 156 155
3 135 136 157
3 135 157 156
3 136 137 158
3 136 158 157
3 137 138 159
3 137 159 158
3 138 139 160
3 138 160 159
3 139 140 161
3 139 161 160
3 140 141 162
3 140 162 161
3 141 142 163
3 141 163 162
3 142 143 164
3 142 164 163
3 143 144 165
3 143 165 164
3 144 145 166
3 144 166 165
3 145 146 167
3 145 167 166
3 147 148 169
3 147 169 168
3 148 149 170
3 148 170 169
3 149 150 171
3 149 171 170
3 150 151 172
3 150 172 171
3 151 152 173
3 151 173 172
3 152 153 174
3 152 174 173
3 153 154 175
3 153 175 174
3 154 155 176
3 154 176 175
3 155 156 177
3 155 177 176
3 156 157 178
3 156 178 177
3 157 158 179
3 157 179 178
3 158 159 180
3 158 180 179
3 159 160 181
3 159 181 180
3 160 161 182
3 160 182 181
3 161 162 183
3 161 183 182
3 162 163 184
3 162 184 183
3 163 164 185
3 163 185 184
3 164 165 186
3 164 186 185
3 165 166 187
3 165 187 186
3 166 167 188
3 166 188 187
3 168 169 190
3 168 190 189
3 169 170 191
3 169 191 190
3 170 171 192
3 170 192 191
3 171 172 193
3 171 193 192
3 172 173 194
3 172 194 193
3 173 174 195
3 173 195 194
3 174 175 196
3 174 196 195
3 175 176 197
3 175 197 196
3 176 177 198
3 176 198 197
3 177 178 199
3 177 199 198
3 178 179 200
3 178 200 199
3 179 180 201
3 179 201 200
3 180 181 202
3 180 202 201
3 181 182 203
3 181 203 202
3 182 183 204
3 182 204 203
3 183 184 205
3 183 205 204
3 184 185 206
3 184 206 205
3 185 186 207
3 185 207 206
3 186 187 208
3 186 208 207
3 187 188 209
3 187 209 208
3 189 190 211
3 189 211 210
3 190 191 212
3 190 212 211
3 191 192 213
3 191 213 212
3 192 193 214
3 192 214 213
3 193 194 215
3 193 215 214
3 194 195 216
3 194 216 215
3 195 196 217
3 195 217 216
3 196 197 218
3 196 218 217
3 197 198 219
3 197 219 218
3 198 199 220
3 198 220 219
3 199 200 221
3 199 221 220
3 200 201 222
3 200 222 221
3 201 202 223
3 201 223 222
3 202 203 224
3 202 224 223
3 203 204 225
3 203 225 224
3 204 205 226
3 204 226 225
3 205 206 227
3 205 227 226
3 206 207 228
3 206 228 227
3 207 208 229
3 207 229 228
3 208 209 230
3 208 230 229
3 210 211 232
3 210 232 231
3 211 212 233
3 211 233 232
3 212 213 234
3 212 234 233
3 213 214 235
3 213 235 234
3 214 215 236
3 214 236 235
3 215 216 237
3 215 237 236
3 216 217 238
3 216 238 237
3 217 218 239
3 217 239 238
3 218 219 240
3 218 240 239
3 219 220 241
3 219 241 240
3 220 221 242
3 220 242 241
3 221 222 243
3 221 243 242
3 222 223 244
3 222 244 243
3 223 224 245
3 223 245 244
3 224 225 246
3 224 246 245
3 225 226 247
3 225 247 246
3 226 227 248
3 226 248 247
3 227 228 249
3 227 249 248
3 228 229 250
3 228 250 249
3 229 230 251
3 229 251 250
3 231 232 253
3 231 253 252
3 232 233 254
3 232 254 253
3 233 234 255
3 233 255 254
3 234 235 256
3 234 256 255
3 235 236 257
3 235 257 256
3 236 237 258
3 236 258 257
3 237 238 259
3 237 259 258
3 238 239 260
3 238 260 259
3 239 240 261
3 239 261 260
3 240 241 262
3 240 262 261
3 241 242 263
3 241 263 262
3 242 243 264
3 242 264 263
3 243 244 265
3 243 265 264
3 244 245 266
3 244 266 265
3 245 246 267
3 245 267 266
3 246 247 268
3 246 268 267
3 247 248 269
3 247 269 268
3 248 249 270
3 248 270 269
3 249 250 271
3 249 271 270
3 250 251 272
3 250 272 271
3 252 253 274
3 252 274 273
3 253 254 275
3 253 275 274
3 254 255 276
3 254 276 275
3 255 256 277
3 255 277 276
3 256 257 278
3 256 278 277
3 257 258 279
3 257 279 278
3 258 259 280
3 258 280 279
3 259 260 281
3 259 281 280
3 260 261 282
3 260 282 281
3 261 262 283
3 261 283 282
3 262 263 284
3 262 284 283
3 263 264 285
3 263 285 284
3 264 265 286
3 264 286 285
3 265 266 287
3 265 287 286
3 266 267 288
3 266 288 287
3 267 268 289
3 267 289 288
3 268 269 290
3 268 290 289
3 269 270 291
3 269 291 290
3 270 271 292
3 270 292 291
3 271 272 293
3 271 293 292
3 273 274 295
3 273 295 294
3 274 275 296
3 274 296 295
3 275 276 297
3 275 297 296
3 276 277 298
3 276 298 297
3 277 278 299
3 277 299 298
3 278 279 300
3 278 300 299
3 279 280 301
3 279 301 300
3 280 281 302
3 280 302 301
3 281 282 303
3 281 303 302
3 282 283 304
3 282 304 303
3 283 284 305
3 283 305 304
3 284 285 306
3 284 306 305
3 285 286 307
3 285 307 306
3 286 287 308
3 286 308 307
3 287 288 309
3 287 309 308
3 288 289 310
3 288 310 309
3 289 290 311
3 289 311 310
3 290 291 312
3 290 312 311
3 291 292 313
3 291 313 312
3 292 293 314
3 292 314 313
3 294 295 316
3 294 316 315
3 295 296 317
3 295 317 316
3 296 297 318
3 296 318 317
3 297 298 319
3 297 319 318
3 298 299 320
3 298 320 319
3 299 300 321
3 299 321 320
3 300 301 322
3 300 322 321
3 301 302 323
3 301 323 322
3 302 303 324
3 302 324 323
3 303 304 325
3 303 325 324
3 304 305 326
3 304 326 325
3 305 306 327
3 305 327 326
3 306 307 328
3 306 328 327
3 307 308 329
3 307 329 328
3 308 309 330
3 308 330 329
3 309 310 331
3 309 331 330
3 310 311 332
3 310 332 331
3 311 312 333
3 311 333 332
3 312 313 334
3 312 334 333
3 313 314 335
3 313 335 334
3 315 316 337
3 315 337 336
3 316 317 338
3 316 338 337
3 317 318 339
3 317 339 338
3 318 319 340
3 318 340 339
3 319 320 341
3 319 341 340
3 320 321 342
3 320 342 341
3 321 322 343
3 321 343 342
3 322 323 344
3 322 344 343
3 323 324 345
3 323 345 344
3 324 325 346
3 324 346 345
3 325 326 347
3 325 347 346
3 326 327 348
3 326 348 347
3 327 328 349
3 327 349 348
3 328 329 350
3 328 350 349
3 329 330 351
3 329 351 350
3 330 331 352
3 330 352 351
3 331 332 353
3 331 353 352
3 332 333 354
3 332 354 353
3 333 334 355
3 333 355 354
3 334 335 356
3 334 356 355
3 336 337 358
3 336 358 357
3 337 338 359
3 337 359 358
3 338 339 360
3 338 360 359
3 339 340 361
3 339 361 360
3 340 341 362
3 340 362 361
3 341 342 363
3 341 363 362
3 342 343 364
3 342 364 363
3 343 344 365
3 343 365 364
3 344 345 366
3 344 366 365
3 345 346 367
3 345 367 366
3 346 347 368
3 346 368 367
3 347 348 369
3 347 369 368
3 348 349 370
3 348 370 369
3 349 350 371
3 349 371 370
3 350 351 372
3 350 372 371
3 351 352 373
3 351 373 372
3 352 353 374
3 352 374 373
3 353 354 375
3 353 375 374
3 354 355 376
3 354 376 375
3 355 356 377
3 355 377 376
3 357 358 379
3 357 379 378
3 358 359 380
3 358 380 379
3 359 360 381
3 359 381 380
3 360 361 382
3 360 382 381
3 361 362 383
3 361 383 382
3 362 363 384
3 362 384 383
3 363 364 385
3 363 385 384
3 364 365 386
3 364 386 385
3 365 366 387
3 365 387 386
3 366 367 388
3 366 388 387
3 367 368 389
3 367 389 388
3 368 369 390
3 368 390 389
3 369 370 391
3 369 391 390
3 370 371 392
3 370 392 391
3 371 372 393
3 371 393 392
3 372 373 394
3 372 394 393
3 373 374 395
3 373 395 394
3 374 375 396
3 374 396 395
3 375 376 397
3 375 397 396
3 376 377 398
3 376 398 397
3 378 379 400
3 378 400 399
3 379 380 401
3 379 401 400
3 380 381 402
3 380 402 401
3 381 382 403
3 381 403 402
3 382 383 404
3 382 404 403
3 383 384 405
3 383 405 404
3 384 385 406
3 384 406 405
3 385 386 407
3 385 407 406
3 386 387 408
3 386 408 407
3 387 388 409
3 387 409 408
3 388 389 410
3 388 410 409
3 389 390 411
3 389 411 410
3 390 391 412
3 390 412 411
3 391 392 413
3 391 413 412
3 392 393 414
3 392 414 413
3 393 394 415
3 393 415 414
3 394 395 416
3 394 416 415
3 395 396 417
3 395 417 416
3 396 397 418
3 396 418 417
3 397 398 419
3 397 419 418
3 399 400 421
3 399 421 420
3 400 401 422
3 400 422 421
3 401 402 423
3 401 423 422
3 402 403 424
3 402 424 423
3 403 404 425
3 403 425 424
3 404 405 426
3 404 426 425
3 405 406 427
3 405 427 426
3 406 407 428
3 406 428 427
3 407 408 429
3 407 429 428
3 408 409 430
3 408 430 429
3 409 410 431
3 409 431 430
3 410 411 432
3 410 432 431
3 411 412 433
3 411 433 432
3 412 413 434
3 412 434 433
3 413 414 435
3 413 435 434
3 414 415 436
3 414 436 435
3 415 416 437
3 415 437 436
3 416 417 438
3 416 438 437
3 417 418 439
3 417 439 438
3 418 419 440
3 418 440 439
CELL_TYPES 800
5
5
5
5
5
5
5
5
5
5
5
5
5
5
5
5
5
5
5
5
5
5
5
5
5
5
5
5
5
5
5
5
5
5
5
5
5
5
5
5
5
5
5
5
5
5
5
5
5
5
5
5
5
5
5
5
5
5
5
5
5
5
5
5
5
5
5
5
5
5
5
5
5
5
5
5
5
5
5
5
5
5
5
5
5
5
5
5
5
5
5
5
5
5
5
5
5
5
5
5
5
5
5
5
5
5
5
5
5
5
5
5
5
5
5
5
5
5
5
5
5
5
5
5
5
5
5
5
5
5
5
5
5
5
5
5
5
5
5
5
5
5
5
5
5
5
5
5
5
5
5
5
5
5
5
5
5
5
5
5
5
5
5
5
5
5
5
5
5
5
5
5
5
5
5
5
5
5
5
5
5
5
5
5
5
5
5
5
5
5
5
5
5
5
5
5
5
5
5
5
5
5
5
5
5
5
5
5
5
5
5
5
5
5
5
5
5
5
5
5
5
5
5
5
5
5
5
5
5
5
5
5
5
5
5
5
5
5
5
5
5
5
5
5
5
5
5
5
5
5
5
5
5
5
5
5
5
5
5
5
5
5
5
5
5
5
5
5
5
5
5
5
5
5
5
5
5
5
5
5
5
5
5
5
5
5
5
5
5
5
5
5
5
5
5
5
5
5
5
5
5
5
5
5
5
5
5
5
5
5
5
5
5
5
5
5
5
5
5
5
5
5
5
5
5
5
5
5
5
5
5
5
5
5
5
5
5
5
5
5
5
5
5
5
5
5
5
5
5
5
5
5
5
5
5
5
5
5
5
5
5
5
5
5
5
5
5
5
5
5
5
5
5
5
5
5
5
5
5
5
5
5
5
5
5
5
5
5
5
5
5
5
5
5
5
5
5
5
5
5
5
5
5
5
5
5
5
5
5
5
5
5
5
5
5
5
5
5
5
5
5
5
5
5
5
5
5
5
5
5
5
5
5
5
5
5
5
5
5
5
5
5
5
5
5
5
5
5
5
5
5
5
5
5
5
5
5
5
5
5
5
5
5
5
5
5
5
5
5
5
5
5
5
5
5
5
5
5
5
5
5
5
5
5
5
5
5
5
5
5
5
5
5
5
5
5
5
5
5
5
5
5
5
5
5
5
5
5
5
5
5
5
5
5
5
5
5
5
5
5
5
5
5
5
5
5
5
5
5
5
5
5
5
5
5
5
5
5
5
5
5
5
5
5
5
5
5
5
5
5
5
5
5
5
5
5
5
5
5
5
5
5
5
5
5
5
5
5
5
5
5
5
5
5
5
5
5
5
5
5
5
5
5
5
5
5
5
5
5
5
5
5
5
5
5
5
5
5
5
5
5
5
5
5
5
5
5
5
5
5
5
5
5
5
5
5
5
5
5
5
5
5
5
5
5
5
5
5
5
5
5
5
5
5
5
5
5
5
5
5
5
5
5
5
5
5
5
5
5
5
5
5
5
5
5
5
5
5
5
5
5
5
5
5
5
5
5
5
5
5
5
5
5
5
5
5
5
5
5
5
5
5
5
5
5
5
5
5
5
5
5
5
5
5
5
5
5
5
5
5
5
5
5
5
5
5
5
5
5
5
5
5
5
5
5
5
5
5
5
5
5
5
5
5
5
5
5
5
5
5
5
5
5
5
5
5
5
5
5
5
5
5
5
5
5
5
5
5
5
5
5
5
5
5
5
5
5
5
5
5
5
5
5
5
5
5
5
5
5
5
5
5
5
5
5
5
5
5
5
5
5
5
5
5
5
5
5
5
5
5
5
5
5
5
5
5
5
5
5
5
CELL_DATA 800
VECTORS Et double
0.0675015 0.0600963 0
0.32335 -0.0641252 0
0.065706 0.0451437 0
0.309948 -0.0703985 0
0.0621587 0.0284992 0
0.293823 -0.0807841 0
0.056882 0.0100534 0
0.269076 -0.089459 0
0.0499685 -0.00879669 0
0.237515 -0.0966014 0
0.041616 -0.0265044 0
0.200086 -0.101062 0
0.0321197 -0.0417678 0
0.157842 -0.101746 0
0.0218427 -0.0537971 0
0.111953 -0.0979762 0
0.0111756 -0.0624551 0
0.0636534 -0.0896985 0
0.000492126 -0.0682264 0
0.0141968 -0.0775348 0
-0.00988934 -0.0720177 0
-0.0351776 -0.0626686 0
-0.0197276 -0.0748514 0
-0.0832754 -0.0465798 0
-0.0288607 -0.0775376 0
-0.12897 -0.0307063 0
-0.0371893 -0.0804237 0
-0.171226 -0.0161267 0
-0.0446461 -0.0832889 0
-0.20911 -0.0033526 0
-0.0511636 -0.0854131 0
-0.241811 0.00771388 0
-0.0566472 -0.0857794 0
-0.268622 0.0176492 0
-0.0609633 -0.0833232 0
-0.288906 0.0272618 0
-0.0639637 -0.0752642 0
-0.30025 0.0373492 0
-0.0654458 -0.0654458 0
-0.308323 0.0503424 0
0.437139 0.0431436 0
0.610045 -0.0400488 0
0.421425 0.0326117 0
0.588113 -0.0460567 0
0.400026 0.0206382 0
0.55843 -0.0538284 0
0.367034 0.00710574 0
0.512208 -0.0606258 0
0.324363 -0.00677784 0
0.452777 -0.0665847 0
0.273263 -0.0196942 0
0.381893 -0.0706493 0
0.215271 -0.0305163 0
0.301633 -0.0718244 0
0.152181 -0.0385786 0
0.214333 -0.0694553 0
0.0859169 -0.0438139 0
0.122473 -0.0634418 0
0.0183993 -0.0467281 0
0.0285538 -0.0543014 0
-0.0485602 -0.0482151 0
-0.065001 -0.0430667 0
-0.113337 -0.0492678 0
-0.155918 -0.0310415 0
-0.174529 -0.0506694 0
-0.242123 -0.0194855 0
-0.230945 -0.052758 0
-0.321765 -0.00931727 0
-0.281568 -0.0553296 0
-0.393219 -0.000921771 0
-0.325503 -0.0577091 0
-0.455071 0.00588465 0
-0.361911 -0.0589549 0
-0.50608 0.0117251 0
-0.389941 -0.0581334 0
-0.54511 0.0174149 0
-0.406929 -0.0538814 0
-0.568662 0.0236954 0
-0.41818 -0.0482147 0
-0.584837 0.0316577 0
0.666138 0.0144463 0
0.703134 -0.00325265 0
0.643577 0.0118169 0
0.680055 -0.00516565 0
0.611717 0.00812905 0
0.646766 -0.00785 0
0.561686 0.0033033 0
0.593779 -0.0108974 0
0.496832 -0.00184379 0
0.525192 -0.0142873 0
0.419051 -0.00636283 0
0.443083 -0.0171993 0
0.330713 -0.00942982 0
0.349964 -0.0187886 0
0.234552 -0.0105961 0
0.248664 -0.0184427 0
0.133494 -0.00992141 0
0.142173 -0.0159913 0
0.0304649 -0.00795577 0
0.0334797 -0.0117801 0
-0.0717717 -0.00557514 0
-0.0745582 -0.00659187 0
-0.17073 -0.00372072 0
-0.179316 -0.00143519 0
-0.264255 -0.00312153 0
-0.278458 0.00273415 0
-0.350515 -0.00408444 0
-0.369946 0.00527549 0
-0.427947 -0.00641447 0
-0.452028 0.00602983 0
-0.495187 -0.00948697 0
-0.523189 0.00534168 0
-0.550979 -0.0124511 0
-0.582104 0.0039325 0
-0.594079 -0.014504 0
-0.627542 0.00265987 0
-0.620822 -0.0152537 0
-0.656062 0.00224946 0
-0.639054 -0.0156481 0
-0.676499 0.00293379 0
0.683724 -0.01794 0
0.573966 0.034578 0
0.661994 -0.0114491 0
0.557187 0.0382255 0
0.630418 -0.00607722 0
0.530892 0.0417707 0
0.579319 -0.0014303 0
0.487801 0.0429712 0
0.512673 0.00288706 0
0.431469 0.0424507 0
0.432489 0.00741377 0
0.363701 0.0407887 0
0.34131 0.0126318 0
0.286733 0.0386657 0
0.24206 0.0187512 0
0.203082 0.0366453 0
0.137854 0.0255883 0
0.115384 0.034983 0
0.0317828 0.0325753 0
0.0262315 0.0335437 0
-0.0732687 0.0388978 0
-0.0619637 0.0318544 0
-0.174749 0.0437159 0
-0.147068 0.0292732 0
-0.270494 0.0463992 0
-0.227266 0.0252187 0
-0.358706 0.0467001 0
-0.301053 0.0193862 0
-0.437886 0.0448113 0
-0.367189 0.0118791 0
-0.506736 0.0412882 0
-0.424631 0.00321333 0
-0.564058 0.0368585 0
-0.472457 -0.00580793 0
-0.608644 0.0321591 0
-0.509774 -0.0143156 0
-0.636993 0.026698 0
-0.534238 -0.0216363 0
-0.657813 0.0219018 0
-0.552535 -0.0283049 0
0.485198 -0.0441363 0
0.263941 0.0614655 0
0.471382 -0.0304005 0
0.258731 0.0700009 0
0.450231 -0.0178839 0
0.247655 0.0787619 0
0.414177 -0.00578389 0
0.227824 0.0835461 0
0.366514 0.00592701 0
0.20112 0.0854856 0
0.308782 0.0174312 0
0.168559 0.0849396 0
0.242989 0.0289167 0
0.131483 0.0824335 0
0.171456 0.0404028 0
0.0914038 0.0784804 0
0.0966349 0.0516332 0
0.049869 0.0734132 0
0.0209087 0.0620784 0
0.00832725 0.0672994 0
-0.0535771 0.0710418 0
-0.0319858 0.0599673 0
-0.125025 0.0778372 0
-0.0701146 0.0511314 0
-0.192018 0.0819748 0
-0.105396 0.0405682 0
-0.253484 0.0832944 0
-0.137423 0.0282822 0
-0.308597 0.0819985 0
-0.165964 0.0146004 0
-0.356664 0.0785722 0
-0.190873 0.000160126 0
-0.397014 0.0736086 0
-0.212003 -0.01421 0
-0.428884 0.0675951 0
-0.229097 -0.0276877 0
-0.44996 0.0594128 0
-0.241618 -0.0396726 0
-0.466914 0.0524519 0
-0.251813 -0.0512385 0
0.133899 -0.0560709 0
-0.128597 0.0689241 0
0.132382 -0.0392912 0
-0.120656 0.0799257 0
0.128334 -0.0237465 0
-0.113172 0.0912043 0
0.118523 -0.00846778 0
-0.103811 0.09782 0
0.104486 0.00632835 0
-0.0929479 0.101104 0
0.0868409 0.0205916 0
-0.0806287 0.101241 0
0.0665261 0.034328 0
-0.0667484 0.0986213 0
0.0446564 0.0474638 0
-0.051175 0.0937039 0
0.0223826 0.0597556 0
-0.0338369 0.0868678 0
0.000736125 0.0707846 0
-0.0148122 0.078332 0
-0.0194999 0.0800329 0
0.00560428 0.0681595 0
-0.0378631 0.0870153 0
0.0268743 0.0563413 0
-0.0542133 0.091417 0
0.0482399 0.0429229 0
-0.0686644 0.0931864 0
0.0687936 0.0281216 0
-0.0814686 0.0925467 0
0.0875795 0.0123883 0
-0.0928834 0.0899167 0
0.103705 -0.00361679 0
-0.10306 0.0857592 0
0.116431 -0.0191314 0
-0.111922 0.0804022 0
0.125279 -0.033456 0
-0.119007 0.0725141 0
0.128853 -0.046136 0
-0.126626 0.0662283 0
0.130144 -0.058423 0
-0.258828 -0.0502016 0
-0.479611 0.0546373 0
-0.247577 -0.0354692 0
-0.460849 0.064704 0
-0.233315 -0.0218776 0
-0.43735 0.0750696 0
-0.21403 -0.00856496 0
-0.402052 0.0812572 0
-0.190455 0.00416504 0
-0.357503 0.0844431 0
-0.163058 0.0161883 0
-0.304757 0.0846922 0
-0.132182 0.027467 0
-0.244911 0.082294 0
-0.0981514 0.0379479 0
-0.179165 0.0776402 0
-0.0613504 0.0474893 0
-0.108855 0.071109 0
-0.0223223 0.0558482 0
-0.0354921 0.0629898 0
0.0181583 0.0627301 0
0.0392266 0.0534741 0
0.0590595 0.0678779 0
0.113427 0.0427054 0
0.0991272 0.0711659 0
0.185116 0.030864 0
0.136979 0.0726567 0
0.252275 0.0182437 0
0.171234 0.0725961 0
0.312975 0.00528824 0
0.200654 0.0713392 0
0.365486 -0.00743808 0
0.224249 0.0692193 0
0.408367 -0.0193415 0
0.241387 0.0663665 0
0.44051 -0.0299321 0
0.250608 0.0617201 0
0.459158 -0.0390064 0
0.254823 0.0587885 0
0.471673 -0.0475718 0
-0.568979 -0.0282338 0
-0.678294 0.0231755 0
-0.548276 -0.0198873 0
-0.654299 0.0294019 0
-0.520291 -0.0124245 0
-0.622298 0.0358108 0
-0.478189 -0.0055106 0
-0.572505 0.0396157 0
-0.424806 0.000762742 0
-0.508612 0.04135 0
-0.36153 0.00632703 0
-0.43249 0.0411686 0
-0.289817 0.011222 0
-0.346032 0.0392713 0
-0.211226 0.0155058 0
-0.251325 0.0359716 0
-0.12745 0.0191991 0
-0.150621 0.0315914 0
-0.0403446 0.0222691 0
-0.0463222 0.0264015 0
0.048048 0.0246555 0
0.059033 0.0206056 0
0.135517 0.0263251 0
0.162818 0.0143676 0
0.219745 0.0273264 0
0.262391 0.007863 0
0.298419 0.0278201 0
0.355192 0.00132696 0
0.369361 0.0280621 0
0.438857 -0.0049279 0
0.430656 0.0283382 0
0.511315 -0.0105382 0
0.480744 0.0288378 0
0.570825 -0.0151618 0
0.518459 0.0295404 0
0.616012 -0.0185979 0
0.541045 0.0302572 0
0.644028 -0.0208974 0
0.555828 0.0324539 0
0.663872 -0.0222658 0
-0.698776 0.00228641 0
-0.662872 -0.015462 0
-0.674765 0.00188409 0
-0.640233 -0.0153073 0
-0.641876 0.00109042 0
-0.609662 -0.0146944 0
-0.590417 -0.000672591 0
-0.561327 -0.0143691 0
-0.524236 -0.00309765 0
-0.498322 -0.0148623 0
-0.445363 -0.00605709 0
-0.422982 -0.0157982 0
-0.355856 -0.00936693 0
-0.337412 -0.0169962 0
-0.257952 -0.0128228 0
-0.243892 -0.018235 0
-0.154034 -0.0162334 0
-0.144826 -0.0192994 0
-0.0466151 -0.0194379 0
-0.0427104 -0.0200157 0
0.0616774 -0.0222968 0
0.0599029 -0.0202657 0
0.168142 -0.0246658 0
0.160456 -0.0199743 0
0.270082 -0.0263694 0
0.256456 -0.0190798 0
0.364906 -0.0271919 0
0.345563 -0.0175066 0
0.450247 -0.0268982 0
0.425679 -0.0151572 0
0.524067 -0.0252826 0
0.495017 -0.0119322 0
0.584685 -0.0222727 0
0.552071 -0.00777543 0
0.630805 -0.0179563 0
0.595688 -0.00276648 0
0.65967 -0.0121065 0
0.623706 0.00286315 0
0.680322 -0.00441898 0
0.645441 0.00923428 0
-0.608316 0.0314829 0
-0.439655 -0.0490418 0
-0.587537 0.022346 0
-0.42413 -0.0554382 0
-0.55984 0.0128178 0
-0.404772 -0.0610089 0
-0.515367 0.00257004 0
-0.372632 -0.0651192 0
-0.457207 -0.00803793 0
-0.32995 -0.0681831 0
-0.387644 -0.0187871 0
-0.278885 -0.0699564 0
-0.308714 -0.0293944 0
-0.221058 -0.0703881 0
-0.222593 -0.0395475 0
-0.158188 -0.0693994 0
-0.131547 -0.048936 0
-0.092036 -0.066922 0
-0.0379052 -0.0572729 0
-0.0243744 -0.0629269 0
0.0559752 -0.0642989 0
0.0430466 -0.0574386 0
0.147749 -0.0697752 0
0.108538 -0.0505313 0
0.235152 -0.0734761 0
0.17052 -0.0423133 0
0.316079 -0.0751925 0
0.227578 -0.0329104 0
0.388676 -0.0747534 0
0.278513 -0.0224627 0
0.451397 -0.0720561 0
0.322382 -0.0111365 0
0.502968 -0.0670341 0
0.358491 0.000856045 0
0.542442 -0.0599833 0
0.38607 0.0133004 0
0.567819 -0.0505443 0
0.404193 0.025675 0
0.588539 -0.0400926 0
0.420809 0.0382127 0
-0.331867 0.0469191 0
-0.104995 -0.0606037 0
-0.319351 0.0285743 0
-0.103426 -0.0711126 0
-0.30539 0.0114422 0
-0.0986889 -0.0849065 0
-0.280968 -0.00570678 0
-0.090031 -0.0948071 0
-0.248184 -0.0229742 0
-0.0781237 -0.102173 0
-0.208978 -0.0398836 0
-0.0638539 -0.107324 0
-0.164713 -0.0560338 0
-0.0480675 -0.110068 0
-0.116806 -0.0710059 0
-0.0314842 -0.110334 0
-0.066675 -0.0843961 0
-0.0147722 -0.108074 0
-0.0157151 -0.0958376 0
0.00147123 -0.103294 0
0.0347254 -0.105009 0
0.0167404 -0.0960654 0
0.0833741 -0.11163 0
0.0306383 -0.0865232 0
0.129073 -0.115463 0
0.0428914 -0.07485 0
0.170823 -0.116318 0
0.053359 -0.0612643 0
0.207825 -0.114084 0
0.0620368 -0.0460188 0
0.239507 -0.108754 0
0.0690564 -0.0294144 0
0.265509 -0.100348 0
0.074753 -0.0118179 0
0.285344 -0.089022 0
0.07912 0.0064287 0
0.29828 -0.073081 0
0.0837167 0.0249221 0
0.312346 -0.0591303 0
0.0885284 0.0452029 0
0.0165742 0.044884 0
0.243003 -0.0602895 0
0.0150433 0.0236685 0
0.232069 -0.0751276 0
0.0137761 0.00450515 0
0.222386 -0.091842 0
0.0137258 -0.0144394 0
0.206505 -0.103659 0
0.0144073 -0.0329304 0
0.186426 -0.112622 0
0.0152009 -0.0505901 0
0.162186 -0.118735 0
0.0155824 -0.066995 0
0.133937 -0.121923 0
0.0151989 -0.0817532 0
0.102022 -0.122113 0
0.0137891 -0.0945166 0
0.0669431 -0.11931 0
0.0111939 -0.104991 0
0.0293577 -0.113591 0
0.00736675 -0.112938 0
-0.00992436 -0.105116 0
0.00237974 -0.118172 0
-0.0499518 -0.0941093 0
-0.00357347 -0.120557 0
-0.0896514 -0.0808527 0
-0.0101798 -0.120009 0
-0.127858 -0.0656661 0
-0.0170142 -0.116502 0
-0.163349 -0.0488996 0
-0.0235523 -0.110088 0
-0.194893 -0.0309302 0
-0.0291139 -0.100947 0
-0.221246 -0.012168 0
-0.0334225 -0.0891837 0
-0.241476 0.00689955 0
-0.0347199 -0.0735443 0
-0.252047 0.025938 0
-0.0328832 -0.0610579 0
-0.260775 0.0460189 0
0.358968 0.0402344 0
0.560025 -0.0525739 0
0.345192 0.020354 0
0.538104 -0.0669609 0
0.329831 0.00237345 0
0.515359 -0.08288 0
0.305626 -0.0151882 0
0.477212 -0.094313 0
0.274791 -0.0320612 0
0.428022 -0.102931 0
0.237629 -0.0478906 0
0.368671 -0.108696 0
0.194617 -0.0623118 0
0.300237 -0.11154 0
0.146461 -0.07501 0
0.224062 -0.111427 0
0.0940674 -0.0857339 0
0.141732 -0.108409 0
0.0385183 -0.0942964 0
0.0550646 -0.102627 0
-0.0189344 -0.10057 0
-0.0339244 -0.094304 0
-0.0768932 -0.104476 0
-0.123056 -0.0837279 0
-0.133846 -0.105978 0
-0.210038 -0.0712329 0
-0.188205 -0.105073 0
-0.292532 -0.0571794 0
-0.238354 -0.101789 0
-0.368221 -0.0419388 0
-0.282703 -0.0962039 0
-0.434893 -0.0258844 0
-0.3197 -0.088509 0
-0.490528 -0.00939547 0
-0.348155 -0.0788529 0
-0.533408 0.00707914 0
-0.364356 -0.065585 0
-0.557668 0.0231975 0
-0.375956 -0.0554249 0
-0.57901 0.0404448 0
0.65614 0.0309998 0
0.807489 -0.0384038 0
0.631929 0.014755 0
0.776842 -0.0501969 0
0.604503 0.000194689 0
0.74409 -0.063478 0
0.559436 -0.0138557 0
0.688591 -0.0730732 0
0.501281 -0.0270882 0
0.616699 -0.0803042 0
0.431154 -0.0391845 0
0.529946 -0.0850568 0
0.350419 -0.049875 0
0.430134 -0.0872449 0
0.260735 -0.0589624 0
0.319399 -0.0868666 0
0.164035 -0.0663267 0
0.200195 -0.0840175 0
0.0624981 -0.0719192 0
0.0752544 -0.0788872 0
-0.0414893 -0.0757486 0
-0.0524592 -0.0717441 0
-0.14538 -0.0778639 0
-0.17981 -0.0629126 0
-0.246527 -0.0783359 0
-0.303566 -0.0527482 0
-0.342253 -0.0772436 0
-0.420487 -0.0416124 0
-0.429929 -0.0746647 0
-0.527421 -0.029852 0
-0.507065 -0.0706788 0
-0.621413 -0.0177862 0
-0.571403 -0.0653784 0
-0.699818 -0.0057036 0
-0.621026 -0.058883 0
-0.760409 0.00612558 0
-0.649934 -0.0498153 0
-0.795456 0.0174523 0
-0.673691 -0.0429223 0
-0.826408 0.0295322 0
0.871962 0.0171117 0
0.954216 -0.0195369 0
0.839837 0.00642414 0
0.918917 -0.0281372 0
0.803951 -0.00302434 0
0.880348 -0.0372011 0
0.743766 -0.0118732 0
0.814532 -0.0438514 0
0.665783 -0.0198102 0
0.729132 -0.0488177 0
0.571709 -0.0266071 0
0.626044 -0.0519199 0
0.463558 -0.0321197 0
0.507516 -0.0530823 0
0.3437 -0.0362963 0
0.376184 -0.0523348 0
0.214836 -0.0391744 0
0.235033 -0.0498113 0
0.0799526 -0.040866 0
0.0873564 -0.0457386 0
-0.0577328 -0.0415351 0
-0.0633124 -0.040415 0
-0.194841 -0.0413709 0
-0.21327 -0.0341815 0
-0.32791 -0.0405596 0
-0.358735 -0.0273902 0
-0.453489 -0.0392619 0
-0.495949 -0.0203732 0
-0.568238 -0.0375962 0
-0.621287 -0.0134178 0
-0.669038 -0.0356319 0
-0.731377 -0.00674944 0
-0.753107 -0.0333913 0
-0.823223 -0.000525906 0
-0.818102 -0.0308431 0
-0.894292 0.0051576 0
-0.856224 -0.0272598 0
-0.936011 0.0102855 0
-0.888827 -0.0250796 0
-0.972776 0.0155265 0
0.979186 0.00100768 0
0.982261 0.00168231 0
0.943383 -0.00303566 0
0.946836 -0.002813 0
0.903589 -0.00637096 0
0.907348 -0.00674943 0
0.835865 -0.00898357 0
0.839527 -0.00976548 0
0.747965 -0.0106529 0
0.751416 -0.0118722 0
0.641879 -0.0112659 0
0.645009 -0.0129069 0
0.519973 -0.0108168 0
0.522687 -0.0128144 0
0.385002 -0.00941051 0
0.38722 -0.0116515 0
0.240076 -0.00725095 0
0.241732 -0.0095814 0
0.0886025 -0.0046174 0
0.0896465 -0.00685627 0
-0.0657783 -0.00183236 0
-0.0653789 -0.00378951 0
-0.219274 0.000775515 0
-0.219533 -0.000720371 0
-0.368029 0.00290834 0
-0.368943 0.00202394 0
-0.50823 0.00433144 0
-0.509775 0.00416432 0
-0.636211 0.00489714 0
-0.638353 0.00549928 0
-0.748576 0.00455785 0
-0.751268 0.00592431 0
-0.842313 0.00336957 0
-0.845505 0.00543981 0
-0.914873 0.00149023 0
-0.918497 0.00414567 0
-0.957689 -0.00100556 0
-0.961854 0.00224567 0
-0.995126 -0.0040849 0
-1 -0.000171243 0
0.964771 -0.0154755 0
0.888247 0.0226205 0
0.929866 -0.0126051 0
0.857295 0.0224691 0
0.891179 -0.00961354 0
0.821843 0.0239403 0
0.824424 -0.00580139 0
0.760521 0.0247704 0
0.737666 -0.00106472 0
0.680752 0.0256967 0
0.632909 0.00459819 0
0.584387 0.026841 0
0.512541 0.0110561 0
0.473601 0.0282443 0
0.379333 0.0180516 0
0.350927 0.0298272 0
0.236394 0.0252208 0
0.219213 0.0314041 0
0.087114 0.0321263 0
0.0815737 0.0327064 0
-0.0649041 0.0382975 0
-0.0586735 0.0334168 0
-0.215924 0.0432773 0
-0.19808 0.0332096 0
-0.362166 0.0466678 0
-0.333149 0.0317944 0
-0.499908 0.0481704 0
-0.460433 0.0289565 0
-0.625587 0.0476167 0
-0.576627 0.0245902 0
-0.735917 0.0449855 0
-0.67868 0.0187196 0
-0.827992 0.0404086 0
-0.763894 0.0115068 0
-0.899341 0.034167 0
-0.829954 0.00324356 0
-0.941655 0.0256783 0
-0.869677 -0.00565161 0
-0.979395 0.0174812 0
-0.904564 -0.0156723 0
0.830611 -0.0301162 0
0.684115 0.0406824 0
0.80112 -0.0210122 0
0.661468 0.044751 0
0.768367 -0.0123687 0
0.634445 0.0511451 0
0.710907 -0.00284283 0
0.587252 0.0554537 0
0.636125 0.00758953 0
0.525802 0.0591109 0
0.545795 0.0188165 0
0.451537 0.0622264 0
0.442002 0.0305835 0
0.366135 0.0648136 0
0.327161 0.0424986 0
0.271551 0.0667719 0
0.203973 0.0540606 0
0.169986 0.0678975 0
0.0753774 0.0646971 0
0.0638435 0.0679116 0
-0.0555137 0.0738129 0
-0.0443149 0.0664988 0
-0.185483 0.0808442 0
-0.15183 0.0633517 0
-0.311286 0.0853109 0
-0.256008 0.0582189 0
-0.429737 0.0868639 0
-0.354194 0.0509484 0
-0.537796 0.0853208 0
-0.443845 0.041524 0
-0.632667 0.0806877 0
-0.522615 0.0300871 0
-0.711884 0.073164 0
-0.588435 0.0169453 0
-0.773325 0.0631564 0
-0.639475 0.00256079 0
-0.809963 0.0494739 0
-0.670715 -0.0124443 0
-0.843403 0.0369652 0
-0.698009 -0.0291046 0
0.593626 -0.0399201 0
0.396649 0.0536251 0
0.573187 -0.0262623 0
0.383505 0.0624384 0
0.550394 -0.013423 0
0.368334 0.0724368 0
0.509334 0.000371006 0
0.341133 0.0793476 0
0.455829 0.0150609 0
0.305659 0.0850709 0
0.391178 0.0304271 0
0.262745 0.0896854 0
0.316885 0.0461101 0
0.213354 0.0931622 0
0.234688 0.0616178 0
0.15861 0.0953726 0
0.146536 0.0763498 0
0.0997814 0.0960987 0
0.0545389 0.0896395 0
0.0382578 0.0950582 0
-0.0390704 0.100807 0
-0.0244791 0.0919431 0
-0.131992 0.109215 0
-0.086887 0.0864672 0
-0.221911 0.114332 0
-0.147402 0.0784155 0
-0.306563 0.115777 0
-0.204478 0.0676903 0
-0.383789 0.113363 0
-0.256635 0.0543486 0
-0.451609 0.107121 0
-0.302501 0.0386243 0
-0.508281 0.0973078 0
-0.340872 0.0209384 0
-0.552253 0.0843816 0
-0.370636 0.00188491 0
-0.578717 0.067215 0
-0.389082 -0.0178049 0
-0.603682 0.0519681 0
-0.405327 -0.0390461 0
0.284671 -0.0467975 0
0.0598405 0.0598405 0
0.274198 -0.0298934 0
0.0586652 0.07022 0
0.264232 -0.0151422 0
0.0561319 0.0829929 0
0.244622 0.000655047 0
0.0523055 0.0909961 0
0.21901 0.0173965 0
0.0472486 0.097574 0
0.188035 0.0348076 0
0.0410605 0.102792 0
0.152432 0.052476 0
0.0338627 0.1066 0
0.113045 0.0698558 0
0.0258007 0.108859 0
0.0708189 0.0862924 0
0.0170448 0.109341 0
0.026774 0.101065 0
0.00778906 0.107762 0
-0.0180178 0.113441 0
-0.00175082 0.103813 0
-0.0624569 0.12274 0
-0.0113416 0.0972119 0
-0.105443 0.128393 0
-0.0207379 0.0877574 0
-0.145902 0.129995 0
-0.0296896 0.0753726 0
-0.182816 0.12735 0
-0.0379497 0.0601458 0
-0.215252 0.120492 0
-0.0452841 0.0423533 0
-0.242396 0.109702 0
-0.0514804 0.0224658 0
-0.263468 0.0953867 0
-0.056359 0.00114383 0
-0.276003 0.0761929 0
-0.0597788 -0.0208998 0
-0.289316 0.0606386 0
-0.0616264 -0.0447858 0
