# vtk DataFile Version 3.0
tp3485 cell-vector
ASCII
DATASET UNSTRUCTURED_GRID
POINTS 441 double
0 0 0
0.05 0 0
0.1 0 0
0.15 0 0
0.2 0 0
0.25 0 0
0.3 0 0
0.35 0 0
0.4 0 0
0.45 0 0
0.5 0 0
0.55 0 0
0.6 0 0
0.65 0 0
0.7 0 0
0.75 0 0
0.8 0 0
0.85 0 0
0.9 0 0
0.95 0 0
1 0 0
0 0.05 0
0.05 0.05 0
0.1 0.05 0
0.15 0.05 0
0.2 0.05 0
0.25 0.05 0
0.3 0.05 0
0.35 0.05 0
0.4 0.05 0
0.45 0.05 0
0.5 0.05 0
0.55 0.05 0
0.6 0.05 0
0.65 0.05 0
0.7 0.05 0
0.75 0.05 0
0.8 0.05 0
0.85 0.05 0
0.9 0.05 0
0.95 0.05 0
1 0.05 0
0 0.1 0
0.05 0.1 0
0.1 0.1 0
0.15 0.1 0
0.2 0.1 0
0.25 0.1 0
0.3 0.1 0
0.35 0.1 0
0.4 0.1 0
0.45 0.1 0
0.5 0.1 0
0.55 0.1 0
0.6 0.1 0
0.65 0.1 0
0.7 0.1 0
0.75 0.1 0
0.8 0.1 0
0.85 0.1 0
0.9 0.1 0
0.95 0.1 0
1 0.1 0
0 0.15 0
0.05 0.15 0
0.1 0.15 0
0.15 0.15 0
0.2 0.15 0
0.25 0.15 0
0.3 0.15 0
0.35 0.15 0
0.4 0.15 0
0.45 0.15 0
0.5 0.15 0
0.55 0.15 0
0.6 0.15 0
0.65 0.15 0
0.7 0.15 0
0.75 0.15 0
0.8 0.15 0
0.85 0.15 0
0.9 0.15 0
0.95 0.15 0
1 0.15 0
0 0.2 0
0.05 0.2 0
0.1 0.2 0
0.15 0.2 0
0.2 0.2 0
0.25 0.2 0
0.3 0.2 0
0.35 0.2 0
0.4 0.2 0
0.45 0.2 0
0.5 0.2 0
0.55 0.2 0
0.6 0.2 0
0.65 0.2 0
0.7 0.2 0
0.75 0.2 0
0.8 0.2 0
0.85 0.2 0
0.9 0.2 0
0.95 0.2 0
1 0.2 0
0 0.25 0
0.05 0.25 0
0.1 0.25 0
0.15 0.25 0
0.2 0.25 0
0.25 0.25 0
0.3 0.25 0
0.35 0.25 0
0.4 0.25 0
0.45 0.25 0
0.5 0.25 0
0.55 0.25 0
0.6 0.25 0
0.65 0.25 0
0.7 0.25 0
0.75 0.25 0
0.8 0.25 0
0.85 0.25 0
0.9 0.25 0
0.95 0.25 0
1 0.25 0
0 0.3 0
0.05 0.3 0
0.1 0.3 0
0.15 0.3 0
0.2 0.3 0
0.25 0.3 0
0.3 0.3 0
0.35 0.3 0
0.4 0.3 0
0.45 0.3 0
0.5 0.3 0
0.55 0.3 0
0.6 0.3 0
0.65 0.3 0
0.7 0.3 0
0.75 0.3 0
0.8 0.3 0
0.85 0.3 0
0.9 0.3 0
0.95 0.3 0
1 0.3 0
0 0.35 0
0.05 0.35 0
0.1 0.35 0
0.15 0.35 0
0.2 0.35 0
0.25 0.35 0
0.3 0.35 0
0.35 0.35 0
0.4 0.35 0
0.45 0.35 0
0.5 0.35 0
0.55 0.35 0
0.6 0.35 0
0.65 0.35 0
0.7 0.35 0
0.75 0.35 0
0.8 0.35 0
0.85 0.35 0
0.9 0.35 0
0.95 0.35 0
1 0.35 0
0 0.4 0
0.05 0.4 0
0.1 0.4 0
0.15 0.4 0
0.2 0.4 0
0.25 0.4 0
0.3 0.4 0
0.35 0.4 0
0.4 0.4 0
0.45 0.4 0
0.5 0.4 0
0.55 0.4 0
0.6 0.4 0
0.65 0.4 0
0.7 0.4 0
0.75 0.4 0
0.8 0.4 0
0.85 0.4 0
0.9 0.4 0
0.95 0.4 0
1 0.4 0
0 0.45 0
0.05 0.45 0
0.1 0.45 0
0.15 0.45 0
0.2 0.45 0
0.25 0.45 0
0.3 0.45 0
0.35 0.45 0
0.4 0.45 0
0.45 0.45 0
0.5 0.45 0
0.55 0.45 0
0.6 0.45 0
0.65 0.45 0
0.7 0.45 0
0.75 0.45 0
0.8 0.45 0
0.85 0.45 0
0.9 0.45 0
0.95 0.45 0
1 0.45 0
0 0.5 0
0.05 0.5 0
0.1 0.5 0
0.15 0.5 0
0.2 0.5 0
0.25 0.5 0
0.3 0.5 0
0.35 0.5 0
0.4 0.5 0
0.45 0.5 0
0.5 0.5 0
0.55 0.5 0
0.6 0.5 0
0.65 0.5 0
0.7 0.5 0
0.75 0.5 0
0.8 0.5 0
0.85 0.5 0
0.9 0.5 0
0.95 0.5 0
1 0.5 0
0 0.55 0
0.05 0.55 0
0.1 0.55 0
0.15 0.55 0
0.2 0.55 0
0.25 0.55 0
0.3 0.55 0
0.35 0.55 0
0.4 0.55 0
0.45 0.55 0
0.5 0.55 0
0.55 0.55 0
0.6 0.55 0
0.65 0.55 0
0.7 0.55 0
0.75 0.55 0
0.8 0.55 0
0.85 0.55 0
0.9 0.55 0
0.95 0.55 0
1 0.55 0
0 0.6 0
0.05 0.6 0
0.1 0.6 0
0.15 0.6 0
0.2 0.6 0
0.25 0.6 0
0.3 0.6 0
0.35 0.6 0
0.4 0.6 0
0.45 0.6 0
0.5 0.6 0
0.55 0.6 0
0.6 0.6 0
0.65 0.6 0
0.7 0.6 0
0.75 0.6 0
0.8 0.6 0
0.85 0.6 0
0.9 0.6 0
0.95 0.6 0
1 0.6 0
0 0.65 0
0.05 0.65 0
0.1 0.65 0
0.15 0.65 0
0.2 0.65 0
0.25 0.65 0
0.3 0.65 0
0.35 0.65 0
0.4 0.65 0
0.45 0.65 0
0.5 0.65 0
0.55 0.65 0
0.6 0.65 0
0.65 0.65 0
0.7 0.65 0
0.75 0.65 0
0.8 0.65 0
0.85 0.65 0
0.9 0.65 0
0.95 0.65 0
1 0.65 0
0 0.7 0
0.05 0.7 0
0.1 0.7 0
0.15 0.7 0
0.2 0.7 0
0.25 0.7 0
0.3 0.7 0
0.35 0.7 0
0.4 0.7 0
0.45 0.7 0
0.5 0.7 0
0.55 0.7 0
0.6 0.7 0
0.65 0.7 0
0.7 0.7 0
0.75 0.7 0
0.8 0.7 0
0.85 0.7 0
0.9 0.7 0
0.95 0.7 0
1 0.7 0
0 0.75 0
0.05 0.75 0
0.1 0.75 0
0.15 0.75 0
0.2 0.75 0
0.25 0.75 0
0.3 0.75 0
0.35 0.75 0
0.4 0.75 0
0.45 0.75 0
0.5 0.75 0
0.55 0.75 0
0.6 0.75 0
0.65 0.75 0
0.7 0.75 0
0.75 0.75 0
0.8 0.75 0
0.85 0.75 0
0.9 0.75 0
0.95 0.75 0
1 0.75 0
0 0.8 0
0.05 0.8 0
0.1 0.8 0
0.15 0.8 0
0.2 0.8 0
0.25 0.8 0
0.3 0.8 0
0.35 0.8 0
0.4 0.8 0
0.45 0.8 0
0.5 0.8 0
0.55 0.8 0
0.6 0.8 0
0.65 0.8 0
0.7 0.8 0
0.75 0.8 0
0.8 0.8 0
0.85 0.8 0
0.9 0.8 0
0.95 0.8 0
1 0.8 0
0 0.85 0
0.05 0.85 0
0.1 0.85 0
0.15 0.85 0
0.2 0.85 0
0.25 0.85 0
0.3 0.85 0
0.35 0.85 0
0.4 0.85 0
0.45 0.85 0
0.5 0.85 0
0.55 0.85 0
0.6 0.85 0
0.65 0.85 0
0.7 0.85 0
0.75 0.85 0
0.8 0.85 0
0.85 0.85 0
0.9 0.85 0
0.95 0.85 0
1 0.85 0
0 0.9 0
0.05 0.9 0
0.1 0.9 0
0.15 0.9 0
0.2 0.9 0
0.25 0.9 0
0.3 0.9 0
0.35 0.9 0
0.4 0.9 0
0.45 0.9 0
0.5 0.9 0
0.55 0.9 0
0.6 0.9 0
0.65 0.9 0
0.7 0.9 0
0.75 0.9 0
0.8 0.9 0
0.85 0.9 0
0.9 0.9 0
0.95 0.9 0
1 0.9 0
0 0.95 0
0.05 0.95 0
0.1 0.95 0
0.15 0.95 0
0.2 0.95 0
0.25 0.95 0
0.3 0.95 0
0.35 0.95 0
0.4 0.95 0
0.45 0.95 0
0.5 0.95 0
0.55 0.95 0
0.6 0.95 0
0.65 0.95 0
0.7 0.95 0
0.75 0.95 0
0.8 0.95 0
0.85 0.95 0
0.9 0.95 0
0.95 0.95 0
1 0.95 0
0 1 0
0.05 1 0
0.1 1 0
0.15 1 0
0.2 1 0
0.25 1 0
0.3 1 0
0.35 1 0
0.4 1 0
0.45 1 0
0.5 1 0
0.55 1 0
0.6 1 0
0.65 1 0
0.7 1 0
0.75 1 0
0.8 1 0
0.85 1 0
0.9 1 0
0.95 1 0
1 1 0
CELLS 800 3200
3 0 1 22
3 0 22 21
3 1 2 23
3 1 23 22
3 2 3 24
3 2 24 23
3 3 4 25
3 3 25 24
3 4 5 26
3 4 26 25
3 5 6 27
3 5 27 26
3 6 7 28
3 6 28 27
3 7 8 29
3 7 29 28
3 8 9 30
3 8 30 29
3 9 10 31
3 9 31 30
3 10 11 32
3 10 32 31
3 11 12 33
3 11 33 32
3 12 13 34
3 12 34 33
3 13 14 35
3 13 35 34
3 14 15 36
3 14 36 35
3 15 16 37
3 15 37 36
3 16 17 38
3 16 38 37
3 17 18 39
3 17 39 38
3 18 19 40
3 18 40 39
3 19 20 41
3 19 41 40
3 21 22 43
3 21 43 42
3 22 23 44
3 22 44 43
3 23 24 45
3 23 45 44
3 24 25 46
3 24 46 45
3 25 26 47
3 25 47 46
3 26 27 48
3 26 48 47
3 27 28 49
3 27 49 48
3 28 29 50
3 28 50 49
3 29 30 51
3 29 51 50
3 30 31 52
3 30 52 51
3 31 32 53
3 31 53 52
3 32 33 54
3 32 54 53
3 33 34 55
3 33 55 54
3 34 35 56
3 34 56 55
3 35 36 57
3 35 57 56
3 36 37 58
3 36 58 57
3 37 38 59
3 37 59 58
3 38 39 60
3 38 60 59
3 39 40 61
3 39 61 60
3 40 41 62
3 40 62 61
3 42 43 64
3 42 64 63
3 43 44 65
3 43 65 64
3 44 45 66
3 44 66 65
3 45 46 67
3 45 67 66
3 46 47 68
3 46 68 67
3 47 48 69
3 47 69 68
3 48 49 70
3 48 70 69
3 49 50 71
3 49 71 70
3 50 51 72
3 50 72 71
3 51 52 73
3 51 73 72
3 52 53 74
3 52 74 73
3 53 54 75
3 53 75 74
3 54 55 76
3 54 76 75
3 55 56 77
3 55 77 76
3 56 57 78
3 56 78 77
3 57 58 79
3 57 79 78
3 58 59 80
3 58 80 79
3 59 60 81
3 59 81 80
3 60 61 82
3 60 82 81
3 61 62 83
3 61 83 82
3 63 64 85
3 63 85 84
3 64 65 86
3 64 86 85
3 65 66 87
3 65 87 86
3 66 67 88
3 66 88 87
3 67 68 89
3 67 89 88
3 68 69 90
3 68 90 89
3 69 70 91
3 69 91 90
3 70 71 92
3 70 92 91
3 71 72 93
3 71 93 92
3 72 73 94
3 72 94 93
3 73 74 95
3 73 95 94
3 74 75 96
3 74 96 95
3 75 76 97
3 75 97 96
3 76 77 98
3 76 98 97
3 77 78 99
3 77 99 98
3 78 79 100
3 78 100 99
3 79 80 101
3 79 101 100
3 80 81 102
3 80 102 101
3 81 82 103
3 81 103 102
3 82 83 104
3 82 104 103
3 84 85 106
3 84 106 105
3 85 86 107
3 85 107 106
3 86 87 108
3 86 108 107
3 87 88 109
3 87 109 108
3 88 89 110
3 88 110 109
3 89 90 111
3 89 111 110
3 90 91 112
3 90 112 111
3 91 92 113
3 91 113 112
3 92 93 114
3 92 114 113
3 93 94 115
3 93 115 114
3 94 95 116
3 94 116 115
3 95 96 117
3 95 117 116
3 96 97 118
3 96 118 117
3 97 98 119
3 97 119 118
3 98 99 120
3 98 120 119
3 99 100 121
3 99 121 120
3 100 101 122
3 100 122 121
3 101 102 123
3 101 123 122
3 102 103 124
3 102 124 123
3 103 104 125
3 103 125 124
3 105 106 127
3 105 127 126
3 106 107 128
3 106 128 127
3 107 108 129
3 107 129 128
3 108 109 130
3 108 130 129
3 109 110 131
3 109 131 130
3 110 111 132
3 110 132 131
3 111 112 133
3 111 133 132
3 112 113 134
3 112 134 133
3 113 114 135
3 113 135 134
3 114 115 136
3 114 136 135
3 115 116 137
3 115 137 136
3 116 117 138
3 116 138 137
3 117 118 139
3 117 139 138
3 118 119 140
3 118 140 139
3 119 120 141
3 119 141 140
3 120 121 142
3 120 142 141
3 121 122 143
3 121 143 142
3 122 123 144
3 122 144 143
3 123 124 145
3 123 145 144
3 124 125 146
3 124 146 145
3 126 127 148
3 126 148 147
3 127 128 149
3 127 149 148
3 128 129 150
3 128 150 149
3 129 130 151
3 129 151 150
3 130 131 152
3 130 152 151
3 131 132 153
3 131 153 152
3 132 133 154
3 132 154 153
3 133 134 155
3 133 155 154
3 134 135 156
3 134 156 155
3 135 136 157
3 135 157 156
3 136 137 158
3 136 158 157
3 137 138 159
3 137 159 158
3 138 139 160
3 138 160 159
3 139 140 161
3 139 161 160
3 140 141 162
3 140 162 161
3 141 142 163
3 141 163 162
3 142 143 164
3 142 164 163
3 143 144 165
3 143 165 164
3 144 145 166
3 144 166 165
3 145 146 167
3 145 167 166
3 147 148 169
3 147 169 168
3 148 149 170
3 148 170 169
3 149 150 171
3 149 171 170
3 150 151 172
3 150 172 171
3 151 152 173
3 151 173 172
3 152 153 174
3 152 174 173
3 153 154 175
3 153 175 174
3 154 155 176
3 154 176 175
3 155 156 177
3 155 177 176
3 156 157 178
3 156 178 177
3 157 158 179
3 157 179 178
3 158 159 180
3 158 180 179
3 159 160 181
3 159 181 180
3 160 161 182
3 160 182 181
3 161 162 183
3 161 183 182
3 162 163 184
3 162 184 183
3 163 164 185
3 163 185 184
3 164 165 186
3 164 186 185
3 165 166 187
3 165 187 186
3 166 167 188
3 166 188 187
3 168 169 190
3 168 190 189
3 169 170 191
3 169 191 190
3 170 171 192
3 170 192 191
3 171 172 193
3 171 193 192
3 172 173 194
3 172 194 193
3 173 174 195
3 173 195 194
3 174 175 196
3 174 196 195
3 175 176 197
3 175 197 196
3 176 177 198
3 176 198 197
3 177 178 199
3 177 199 198
3 178 179 200
3 178 200 199
3 179 180 201
3 179 201 200
3 180 181 202
3 180 202 201
3 181 182 203
3 181 203 202
3 182 183 204
3 182 204 203
3 183 184 205
3 183 205 204
3 184 185 206
3 184 206 205
3 185 186 207
3 185 207 206
3 186 187 208
3 186 208 207
3 187 188 209
3 187 209 208
3 189 190 211
3 189 211 210
3 190 191 212
3 190 212 211
3 191 192 213
3 191 213 212
3 192 193 214
3 192 214 213
3 193 194 215
3 193 215 214
3 194 195 216
3 194 216 215
3 195 196 217
3 195 217 216
3 196 197 218
3 196 218 217
3 197 198 219
3 197 219 218
3 198 199 220
3 198 220 219
3 199 200 221
3 199 221 220
3 200 201 222
3 200 222 221
3 201 202 223
3 201 223 222
3 202 203 224
3 202 224 223
3 203 204 225
3 203 225 224
3 204 205 226
3 204 226 225
3 205 206 227
3 205 227 226
3 206 207 228
3 206 228 227
3 207 208 229
3 207 229 228
3 208 209 230
3 208 230 229
3 210 211 232
3 210 232 231
3 211 212 233
3 211 233 232
3 212 213 234
3 212 234 233
3 213 214 235
3 213 235 234
3 214 215 236
3 214 236 235
3 215 216 237
3 215 237 236
3 216 217 238
3 216 238 237
3 217 218 239
3 217 239 238
3 218 219 240
3 218 240 239
3 219 220 241
3 219 241 240
3 220 221 242
3 220 242 241
3 221 222 243
3 221 243 242
3 222 223 244
3 222 244 243
3 223 224 245
3 223 245 244
3 224 225 246
3 224 246 245
3 225 226 247
3 225 247 246
3 226 227 248
3 226 248 247
3 227 228 249
3 227 249 248
3 228 229 250
3 228 250 249
3 229 230 251
3 229 251 250
3 231 232 253
3 231 253 252
3 232 233 254
3 232 254 253
3 233 234 255
3 233 255 254
3 234 235 256
3 234 256 255
3 235 236 257
3 235 257 256
3 236 237 258
3 236 258 257
3 237 238 259
3 237 259 258
3 238 239 260
3 238 260 259
3 239 240 261
3 239 261 260
3 240 241 262
3 240 262 261
3 241 242 263
3 241 263 262
3 242 243 264
3 242 264 263
3 243 244 265
3 243 265 264
3 244 245 266
3 244 266 265
3 245 246 267
3 245 267 266
3 246 247 268
3 246 268 267
3 247 248 269
3 247 269 268
3 248 249 270
3 248 270 269
3 249 250 271
3 249 271 270
3 250 251 272
3 250 272 271
3 252 253 274
3 252 274 273
3 253 254 275
3 253 275 274
3 254 255 276
3 254 276 275
3 255 256 277
3 255 277 276
3 256 257 278
3 256 278 277
3 257 258 279
3 257 279 278
3 258 259 280
3 258 280 279
3 259 260 281
3 259 281 280
3 260 261 282
3 260 282 281
3 261 262 283
3 261 283 282
3 262 263 284
3 262 284 283
3 263 264 285
3 263 285 284
3 264 265 286
3 264 286 285
3 265 266 287
3 265 287 286
3 266 267 288
3 266 288 287
3 267 268 289
3 267 289 288
3 268 269 290
3 268 290 289
3 269 270 291
3 269 291 290
3 270 271 292
3 270 292 291
3 271 272 293
3 271 293 292
3 273 274 295
3 273 295 294
3 274 275 296
3 274 296 295
3 275 276 297
3 275 297 296
3 276 277 298
3 276 298 297
3 277 278 299
3 277 299 298
3 278 279 300
3 278 300 299
3 279 280 301
3 279 301 300
3 280 281 302
3 280 302 301
3 281 282 303
3 281 303 302
3 282 283 304
3 282 304 303
3 283 284 305
3 283 305 304
3 284 285 306
3 284 306 305
3 285 286 307
3 285 307 306
3 286 287 308
3 286 308 307
3 287 288 309
3 287 309 308
3 288 289 310
3 288 310 309
3 289 290 311
3 289 311 310
3 290 291 312
3 290 312 311
3 291 292 313
3 291 313 312
3 292 293 314
3 292 314 313
3 294 295 316
3 294 316 315
3 295 296 317
3 295 317 316
3 296 297 318
3 296 318 317
3 297 298 319
3 297 319 318
3 298 299 320
3 298 320 319
3 299 300 321
3 299 321 320
3 300 301 322
3 300 322 321
3 301 302 323
3 301 323 322
3 302 303 324
3 302 324 323
3 303 304 325
3 303 325 324
3 304 305 326
3 304 326 325
3 305 306 327
3 305 327 326
3 306 307 328
3 306 328 327
3 307 308 329
3 307 329 328
3 308 309 330
3 308 330 329
3 309 310 331
3 309 331 330
3 310 311 332
3 310 332 331
3 311 312 333
3 311 333 332
3 312 313 334
3 312 334 333
3 313 314 335
3 313 335 334
3 315 316 337
3 315 337 336
3 316 317 338
3 316 338 337
3 317 318 339
3 317 339 338
3 318 319 340
3 318 340 339
3 319 320 341
3 319 341 340
3 320 321 342
3 320 342 341
3 321 322 343
3 321 343 342
3 322 323 344
3 322 344 343
3 323 324 345
3 323 345 344
3 324 325 346
3 324 346 345
3 325 326 347
3 325 347 346
3 326 327 348
3 326 348 347
3 327 328 349
3 327 349 348
3 328 329 350
3 328 350 349
3 329 330 351
3 329 351 350
3 330 331 352
3 330 352 351
3 331 332 353
3 331 353 352
3 332 333 354
3 332 354 353
3 333 334 355
3 333 355 354
3 334 335 356
3 334 356 355
3 336 337 358
3 336 358 357
3 337 338 359
3 337 359 358
3 338 339 360
3 338 360 359
3 339 340 361
3 339 361 360
3 340 341 362
3 340 362 361
3 341 342 363
3 341 363 362
3 342 343 364
3 342 364 363
3 343 344 365
3 343 365 364
3 344 345 366
3 344 366 365
3 345 346 367
3 345 367 366
3 346 347 368
3 346 368 367
3 347 348 369
3 347 369 368
3 348 349 370
3 348 370 369
3 349 350 371
3 349 371 370
3 350 351 372
3 350 372 371
3 351 352 373
3 351 373 372
3 352 353 374
3 352 374 373
3 353 354 375
3 353 375 374
3 354 355 376
3 354 376 375
3 355 356 377
3 355 377 376
3 357 358 379
3 357 379 378
3 358 359 380
3 358 380 379
3 359 360 381
3 359 381 380
3 360 361 382
3 360 382 381
3 361 362 383
3 361 383 382
3 362 363 384
3 362 384 383
3 363 364 385
3 363 385 384
3 364 365 386
3 364 386 385
3 365 366 387
3 365 387 386
3 366 367 388
3 366 388 387
3 367 368 389
3 367 389 388
3 368 369 390
3 368 390 389
3 369 370 391
3 369 391 390
3 370 371 392
3 370 392 391
3 371 372 393
3 371 393 392
3 372 373 394
3 372 394 393
3 373 374 395
3 373 395 394
3 374 375 396
3 374 396 395
3 375 376 397
3 375 397 396
3 376 377 398
3 376 398 397
3 378 379 400
3 378 400 399
3 379 380 401
3 379 401 400
3 380 381 402
3 380 402 401
3 381 382 403
3 381 403 402
3 382 383 404
3 382 404 403
3 383 384 405
3 383 405 404
3 384 385 406
3 384 406 405
3 385 386 407
3 385 407 406
3 386 387 408
3 386 408 407
3 387 388 409
3 387 409 408
3 388 389 410
3 388 410 409
3 389 390 411
3 389 411 410
3 390 391 412
3 390 412 411
3 391 392 413
3 391 413 412
3 392 393 414
3 392 414 413
3 393 394 415
3 393 415 414
3 394 395 416
3 394 416 415
3 395 396 417
3 395 417 416
3 396 397 418
3 396 418 417
3 397 398 419
3 397 419 418
3 399 400 421
3 399 421 420
3 400 401 422
3 400 422 421
3 401 402 423
3 401 423 422
3 402 403 424
3 402 424 423
3 403 404 425
3 403 425 424
3 404 405 426
3 404 426 425
3 405 406 427
3 405 427 426
3 406 407 428
3 406 428 427
3 407 408 429
3 407 429 428
3 408 409 430
3 408 430 429
3 409 410 431
3 409 431 430
3 410 411 432
3 410 432 431
3 411 412 433
3 411 433 432
3 412 413 434
3 412 434 433
3 413 414 435
3 413 435 434
3 414 415 436
3 414 436 435
3 415 416 437
3 415 437 436
3 416 417 438
3 416 438 437
3 417 418 439
3 417 439 438
3 418 419 440
3 418 440 439
CELL_TYPES 800
5
5
5
5
5
5
5
5
5
5
5
5
5
5
5
5
5
5
5
5
5
5
5
5
5
5
5
5
5
5
5
5
5
5
5
5
5
5
5
5
5
5
5
5
5
5
5
5
5
5
5
5
5
5
5
5
5
5
5
5
5
5
5
5
5
5
5
5
5
5
5
5
5
5
5
5
5
5
5
5
5
5
5
5
5
5
5
5
5
5
5
5
5
5
5
5
5
5
5
5
5
5
5
5
5
5
5
5
5
5
5
5
5
5
5
5
5
5
5
5
5
5
5
5
5
5
5
5
5
5
5
5
5
5
5
5
5
5
5
5
5
5
5
5
5
5
5
5
5
5
5
5
5
5
5
5
5
5
5
5
5
5
5
5
5
5
5
5
5
5
5
5
5
5
5
5
5
5
5
5
5
5
5
5
5
5
5
5
5
5
5
5
5
5
5
5
5
5
5
5
5
5
5
5
5
5
5
5
5
5
5
5
5
5
5
5
5
5
5
5
5
5
5
5
5
5
5
5
5
5
5
5
5
5
5
5
5
5
5
5
5
5
5
5
5
5
5
5
5
5
5
5
5
5
5
5
5
5
5
5
5
5
5
5
5
5
5
5
5
5
5
5
5
5
5
5
5
5
5
5
5
5
5
5
5
5
5
5
5
5
5
5
5
5
5
5
5
5
5
5
5
5
5
5
5
5
5
5
5
5
5
5
5
5
5
5
5
5
5
5
5
5
5
5
5
5
5
5
5
5
5
5
5
5
5
5
5
5
5
5
5
5
5
5
5
5
5
5
5
5
5
5
5
5
5
5
5
5
5
5
5
5
5
5
5
5
5
5
5
5
5
5
5
5
5
5
5
5
5
5
5
5
5
5
5
5
5
5
5
5
5
5
5
5
5
5
5
5
5
5
5
5
5
5
5
5
5
5
5
5
5
5
5
5
5
5
5
5
5
5
5
5
5
5
5
5
5
5
5
5
5
5
5
5
5
5
5
5
5
5
5
5
5
5
5
5
5
5
5
5
5
5
5
5
5
5
5
5
5
5
5
5
5
5
5
5
5
5
5
5
5
5
5
5
5
5
5
5
5
5
5
5
5
5
5
5
5
5
5
5
5
5
5
5
5
5
5
5
5
5
5
5
5
5
5
5
5
5
5
5
5
5
5
5
5
5
5
5
5
5
5
5
5
5
5
5
5
5
5
5
5
5
5
5
5
5
5
5
5
5
5
5
5
5
5
5
5
5
5
5
5
5
5
5
5
5
5
5
5
5
5
5
5
5
5
5
5
5
5
5
5
5
5
5
5
5
5
5
5
5
5
5
5
5
5
5
5
5
5
5
5
5
5
5
5
5
5
5
5
5
5
5
5
5
5
5
5
5
5
5
5
5
5
5
5
5
5
5
5
5
5
5
5
5
5
5
5
5
5
5
5
5
5
5
5
5
5
5
5
5
5
5
5
5
5
5
5
5
5
5
5
5
5
5
5
5
5
5
5
5
5
5
5
5
5
5
5
5
5
5
5
5
5
5
5
5
5
5
5
5
5
5
5
5
5
5
5
5
5
5
5
5
5
5
5
5
5
5
5
5
5
5
5
5
5
5
5
5
5
5
5
5
5
5
5
5
5
5
5
5
5
5
5
5
5
5
5
5
5
5
5
5
5
5
5
5
5
5
5
5
5
5
5
5
5
5
5
5
5
5
5
5
5
5
5
5
5
5
5
5
5
5
5
5
5
5
5
5
5
5
5
5
5
5
5
5
5
5
5
5
5
5
5
5
5
5
5
5
5
5
5
5
5
5
5
5
5
5
5
5
CELL_DATA 800
VECTORS Et double
-0.0897387 0.307596 0
-0.052977 0.0905476 0
-0.0674519 0.644221 0
-0.0376701 0.472161 0
-0.0306715 0.8463 0
-0.012894 0.754762 0
0.0129685 0.869487 0
0.0146301 0.878883 0
0.0542741 0.706216 0
0.0384165 0.816433 0
0.0843721 0.388276 0
0.0529814 0.57799 0
0.0965915 -0.0187563 0
0.0550763 0.211627 0
0.0879506 -0.42844 0
0.0444254 -0.206156 0
0.0599158 -0.7515 0
0.0236587 -0.585859 0
0.0182269 -0.915264 0
-0.00237931 -0.843924 0
-0.0282252 -0.880281 0
-0.0278037 -0.92121 0
-0.069268 -0.650223 0
-0.0470477 -0.796884 0
-0.0956818 -0.272456 0
-0.0560843 -0.494345 0
-0.101305 0.171327 0
-0.0532403 -0.077408 0
-0.0845157 0.582713 0
-0.0394495 0.362881 0
-0.0487256 0.868631 0
-0.0179259 0.728167 0
-0.00171452 0.96287 0
0.00663913 0.935079 0
0.0460671 0.842152 0
0.029377 0.934747 0
0.0838397 0.533134 0
0.0468038 0.725048 0
0.102951 0.102951 0
0.0526084 0.35277 0
-0.221875 0.252082 0
-0.196256 0.0740559 0
-0.171791 0.534371 0
-0.15033 0.392024 0
-0.083514 0.706377 0
-0.0703604 0.629679 0
0.0231287 0.730219 0
0.0247405 0.736462 0
0.125077 0.59813 0
0.11371 0.687941 0
0.200156 0.335129 0
0.176882 0.49159 0
0.231793 -0.00511591 0
0.200387 0.186319 0
0.212707 -0.350712 0
0.179198 -0.164643 0
0.146558 -0.626397 0
0.11814 -0.486367 0
0.0473142 -0.769915 0
0.030744 -0.707993 0
-0.063641 -0.746336 0
-0.0637913 -0.778421 0
-0.162089 -0.556945 0
-0.144842 -0.678421 0
-0.226265 -0.240303 0
-0.194859 -0.426179 0
-0.241706 0.135216 0
-0.203146 -0.0745872 0
-0.204558 0.486115 0
-0.168105 0.299559 0
-0.122574 0.732578 0
-0.0974822 0.612375 0
-0.0135108 0.81709 0
-0.00657876 0.79201 0
0.098993 0.718285 0
0.0852832 0.795646 0
0.191159 0.456425 0
0.159195 0.620107 0
0.239623 0.0904898 0
0.197428 0.303141 0
-0.32495 0.163072 0
-0.308096 0.04579 0
-0.253841 0.351474 0
-0.239278 0.256351 0
-0.126649 0.47014 0
-0.116988 0.416799 0
0.0281481 0.492347 0
0.0299786 0.493447 0
0.176985 0.410726 0
0.169573 0.467964 0
0.287503 0.239349 0
0.271178 0.342825 0
0.335402 0.01196 0
0.312575 0.141454 0
0.309795 -0.22413 0
0.284803 -0.0955469 0
0.215687 -0.41757 0
0.194048 -0.318103 0
0.0730654 -0.524135 0
0.0602364 -0.477043 0
-0.0872849 -0.517088 0
-0.0873709 -0.535053 0
-0.23039 -0.394241 0
-0.216588 -0.475752 0
-0.324719 -0.179742 0
-0.299327 -0.308574 0
-0.349167 0.0802661 0
-0.317687 -0.0679355 0
-0.297836 0.327485 0
-0.267799 0.193552 0
-0.181491 0.504738 0
-0.160602 0.416607 0
-0.0252994 0.569566 0
-0.0193968 0.549005 0
0.136815 0.504732 0
0.125356 0.558208 0
0.269897 0.323238 0
0.243152 0.439678 0
0.342564 0.0651694 0
0.306083 0.218878 0
-0.375975 0.045935 0
-0.372041 0.00995572 0
-0.295749 0.109017 0
-0.291321 0.0773913 0
-0.150275 0.15528 0
-0.14583 0.1339 0
0.0273536 0.173842 0
0.03015 0.168307 0
0.199121 0.158155 0
0.198725 0.171557 0
0.327764 0.108046 0
0.323156 0.139886 0
0.385081 0.0309617 0
0.376339 0.0764623 0
0.35813 -0.0584749 0
0.34674 -0.00807169 0
0.252174 -0.140913 0
0.240888 -0.0968429 0
0.0897371 -0.19646 0
0.0819243 -0.169915 0
-0.0941146 -0.209702 0
-0.0954594 -0.208858 0
-0.259296 -0.174237 0
-0.252596 -0.20166 0
-0.369447 -0.0953088 0
-0.355272 -0.146588 0
-0.399976 0.0104465 0
-0.381177 -0.0537326 0
-0.343622 0.118407 0
-0.324746 0.0565045 0
-0.212226 0.201852 0
-0.19834 0.157899 0
-0.0342782 0.238863 0
-0.0295288 0.224866 0
0.151377 0.218314 0
0.14499 0.239225 0
0.304593 0.143332 0
0.287928 0.195347 0
0.388982 0.0308403 0
0.365562 0.102193 0
-0.367533 -0.0804042 0
-0.377299 -0.0280874 0
-0.291285 -0.154112 0
-0.297389 -0.116736 0
-0.150744 -0.187583 0
-0.151441 -0.17413 0
0.0216213 -0.174259 0
0.0259806 -0.186861 0
0.1894 -0.119394 0
0.197132 -0.153603 0
0.316387 -0.0383064 0
0.324931 -0.0844762 0
0.374844 0.0480825 0
0.381639 0.00195206 0
0.351615 0.1189 0
0.354956 0.0838682 0
0.251143 0.158555 0
0.250713 0.141955 0
0.0947226 0.160173 0
0.0916235 0.164077 0
-0.0839185 0.126459 0
-0.0876501 0.14772 0
-0.245843 0.0680218 0
-0.248036 0.0997128 0
-0.355391 -8.57437e-05 0
-0.354571 0.0335857 0
-0.388083 -0.062485 0
-0.384036 -0.0344665 0
-0.336177 -0.107038 0
-0.330034 -0.0897563 0
-0.21057 -0.127025 0
-0.204403 -0.122282 0
-0.0385772 -0.12162 0
-0.0346387 -0.128228 0
0.142052 -0.0949011 0
0.142146 -0.109694 0
0.292 -0.0540638 0
0.287811 -0.0731041 0
0.375282 -0.00737217 0
0.367891 -0.0270937 0
-0.299709 -0.197205 0
-0.322254 -0.062578 0
-0.239844 -0.398897 0
-0.255691 -0.297041 0
-0.126846 -0.507714 0
-0.132163 -0.461495 0
0.0125869 -0.500582 0
0.0187059 -0.519464 0
0.149626 -0.381163 0
0.165351 -0.459585 0
0.254952 -0.1785 0
0.276211 -0.297477 0
0.305652 0.0603132 0
0.327298 -0.0716039 0
0.290298 0.281382 0
0.307505 0.166134 0
0.21161 0.436382 0
0.221075 0.362609 0
0.0861089 0.493129 0
0.0867435 0.475479 0
-0.0592433 0.442022 0
-0.066287 0.482233 0
-0.192776 0.297165 0
-0.204671 0.38436 0
-0.285009 0.0922511 0
-0.29819 0.20598 0
-0.315224 -0.127538 0
-0.326373 -0.0123888 0
-0.276213 -0.315587 0
-0.283024 -0.223255 0
-0.176097 -0.433597 0
-0.177634 -0.382491 0
-0.0367236 -0.459049 0
-0.0333506 -0.458351 0
0.111102 -0.389044 0
0.118113 -0.437404 0
0.234915 -0.240103 0
0.243842 -0.326414 0
0.30435 -0.0438012 0
0.313948 -0.150203 0
-0.182004 -0.287598 0
-0.21549 -0.0882202 0
-0.148397 -0.589483 0
-0.172353 -0.436918 0
-0.0814394 -0.758035 0
-0.0905571 -0.685779 0
0.00216718 -0.75708 0
0.00981361 -0.780436 0
0.0860618 -0.588584 0
0.108545 -0.701331 0
0.152632 -0.291825 0
0.184607 -0.467842 0
0.187466 0.066004 0
0.221554 -0.133492 0
0.182599 0.405326 0
0.211264 0.22657 0
0.138441 0.65208 0
0.155788 0.532758 0
0.0639527 0.753895 0
0.066995 0.718783 0
-0.025049 0.691018 0
-0.0359122 0.745947 0
-0.109184 0.479774 0
-0.130518 0.61094 0
-0.169729 0.168105 0
-0.196077 0.345658 0
-0.192846 -0.175545 0
-0.218098 0.00939345 0
-0.172855 -0.477331 0
-0.191606 -0.3246 0
-0.113737 -0.673767 0
-0.122343 -0.585073 0
-0.0284519 -0.724831 0
-0.0256109 -0.717811 0
0.0638933 -0.621737 0
0.0771605 -0.696619 0
0.142728 -0.387995 0
0.16359 -0.528103 0
0.187824 -0.0731212 0
0.213231 -0.249509 0
-0.032655 -0.33606 0
-0.0720372 -0.101031 0
-0.0307542 -0.693443 0
-0.0585946 -0.513163 0
-0.0211786 -0.896046 0
-0.0320082 -0.809284 0
-0.00778553 -0.900275 0
0.000688056 -0.925518 0
0.00859314 -0.706547 0
0.0344324 -0.837488 0
0.025083 -0.359108 0
0.0623269 -0.565997 0
0.0381325 0.0642835 0
0.0782679 -0.172283 0
0.0444742 0.470061 0
0.0785525 0.256028 0
0.0420254 0.769725 0
0.0627653 0.624707 0
0.0306115 0.899157 0
0.0339836 0.853809 0
0.0122708 0.8322 0
-0.00175482 0.894966 0
-0.00902444 0.585663 0
-0.0366784 0.741408 0
-0.0282265 0.21491 0
-0.0629699 0.428695 0
-0.040468 -0.198748 0
-0.0745507 0.0262591 0
-0.042388 -0.565942 0
-0.06855 -0.378155 0
-0.0331576 -0.808465 0
-0.0461234 -0.697618 0
-0.0148762 -0.875753 0
-0.0123537 -0.864573 0
0.00794814 -0.755168 0
0.0249916 -0.844919 0
0.0299386 -0.473757 0
0.0580164 -0.644711 0
0.0442471 -0.0911247 0
0.0791801 -0.307954 0
0.12665 -0.334736 0
0.0874789 -0.0989548 0
0.0964781 -0.69532 0
0.0683398 -0.513495 0
0.0455774 -0.902198 0
0.0339808 -0.813405 0
-0.0158205 -0.910552 0
-0.00824793 -0.933978 0
-0.0719688 -0.719391 0
-0.0468277 -0.849479 0
-0.110036 -0.371926 0
-0.0731974 -0.579335 0
-0.121842 0.0545698 0
-0.0818057 -0.18398 0
-0.105344 0.466187 0
-0.0711824 0.249061 0
-0.0649105 0.773193 0
-0.0441761 0.624778 0
-0.0101166 0.909621 0
-0.00719091 0.861635 0
0.046613 0.847339 0
0.0313847 0.909244 0
0.0928832 0.601663 0
0.0631208 0.758953 0
0.119041 0.227443 0
0.0813918 0.445163 0
0.120124 -0.193305 0
0.0827229 0.0372963 0
0.0966715 -0.569397 0
0.0673695 -0.375668 0
0.0542732 -0.820157 0
0.0390174 -0.704587 0
0.00209915 -0.892606 0
0.00372132 -0.879278 0
-0.0489918 -0.772564 0
-0.0313287 -0.863366 0
-0.0879158 -0.486673 0
-0.0578031 -0.661775 0
-0.106847 -0.0952559 0
-0.0686669 -0.318638 0
0.272547 -0.303361 0
0.219644 -0.0821724 0
0.213677 -0.629727 0
0.172778 -0.457035 0
0.107825 -0.818128 0
0.0883055 -0.732113 0
-0.0217914 -0.827038 0
-0.0150464 -0.846942 0
-0.144444 -0.655113 0
-0.113062 -0.776193 0
-0.233167 -0.34104 0
-0.184639 -0.535963 0
-0.268903 0.0456757 0
-0.214382 -0.179818 0
-0.244501 0.420127 0
-0.196346 0.213701 0
-0.166128 0.700725 0
-0.135148 0.558433 0
-0.0516771 0.826998 0
-0.0447682 0.77952 0
0.0733933 0.772571 0
0.0546956 0.829662 0
0.181789 0.550549 0
0.141538 0.699161 0
0.250339 0.210271 0
0.197184 0.417642 0
0.264898 -0.173737 0
0.210133 0.0472265 0
0.223158 -0.518081 0
0.178272 -0.33124 0
0.134809 -0.748498 0
0.109102 -0.635815 0
0.0190986 -0.81563 0
0.0178744 -0.801063 0
-0.0993139 -0.705742 0
-0.0761206 -0.791869 0
-0.1941 -0.443306 0
-0.151777 -0.611017 0
-0.243534 -0.0849207 0
-0.190681 -0.298303 0
0.367938 -0.394459 0
0.166595 -0.063497 0
0.289745 -0.771285 0
0.132734 -0.512724 0
0.148332 -0.977918 0
0.0717425 -0.850073 0
-0.0250075 -0.969291 0
-0.00454364 -0.99999 0
-0.190693 -0.749264 0
-0.0795234 -0.929854 0
-0.312844 -0.366947 0
-0.136176 -0.657001 0
-0.365114 0.0934519 0
-0.162254 -0.242027 0
-0.3368 0.531109 0
-0.152579 0.223836 0
-0.234959 0.850738 0
-0.109869 0.638718 0
-0.0826209 0.983376 0
-0.0439696 0.912453 0
0.0864958 0.901219 0
0.0304328 0.986203 0
0.235493 0.623346 0
0.0970941 0.845051 0
0.332351 0.211199 0
0.141763 0.520898 0
0.356766 -0.245065 0
0.155212 0.0851621 0
0.30433 -0.646288 0
0.13512 -0.367012 0
0.187195 -0.905733 0
0.0864407 -0.737506 0
0.0311525 -0.967574 0
0.0202046 -0.946381 0
-0.130389 -0.818273 0
-0.0489528 -0.948863 0
-0.261722 -0.492489 0
-0.10769 -0.744339 0
-0.332393 -0.0661047 0
-0.144273 -0.379433 0
0.282741 -0.297138 0
0.13932 -0.050534 0
0.224194 -0.58588 0
0.110374 -0.391265 0
0.11849 -0.74735 0
0.0603956 -0.648542 0
-0.0127348 -0.745894 0
-0.00211724 -0.764808 0
-0.140846 -0.581826 0
-0.0638847 -0.714305 0
-0.237232 -0.29151 0
-0.111342 -0.508058 0
-0.281039 0.0611979 0
-0.134335 -0.191607 0
-0.263329 0.399095 0
-0.128359 0.165561 0
-0.1887 0.648562 0
-0.095289 0.485361 0
-0.0740706 0.755619 0
-0.0428154 0.698219 0
0.0551753 0.697577 0
0.0173426 0.758213 0
0.170833 0.487783 0
0.0720527 0.652945 0
0.248035 0.172498 0
0.109639 0.406035 0
0.270575 -0.179342 0
0.12237 0.0717632 0
0.234277 -0.491184 0
0.108051 -0.27689 0
0.147733 -0.695446 0
0.0704062 -0.56416 0
0.0302841 -0.748049 0
0.0181714 -0.727885 0
-0.0922732 -0.637837 0
-0.036904 -0.73285 0
-0.194966 -0.388479 0
-0.0839035 -0.578277 0
-0.256542 -0.0531654 0
-0.112979 -0.297482 0
0.231734 -0.240715 0
0.113363 -0.040232 0
0.183091 -0.473053 0
0.0898689 -0.315593 0
0.0974729 -0.602989 0
0.0495419 -0.522809 0
-0.00883949 -0.60194 0
-0.000981823 -0.616666 0
-0.112998 -0.469804 0
-0.0509146 -0.576463 0
-0.192193 -0.235513 0
-0.0897077 -0.410645 0
-0.229384 0.0495487 0
-0.109336 -0.155482 0
-0.217031 0.323017 0
-0.106077 0.133125 0
-0.158478 0.52525 0
-0.0811962 0.392085 0
-0.0670412 0.612347 0
-0.0405655 0.564976 0
0.0370221 0.565652 0
0.00670281 0.614337 0
0.131004 0.395704 0
0.050292 0.529756 0
0.194704 0.139822 0
0.0809343 0.330022 0
0.214766 -0.146121 0
0.0923898 0.0589069 0
0.187471 -0.399884 0
0.0827311 -0.224444 0
0.119434 -0.566381 0
0.0546792 -0.458405 0
0.0260482 -0.609571 0
0.0149402 -0.592237 0
-0.0719599 -0.520244 0
-0.0273944 -0.597032 0
-0.154323 -0.317262 0
-0.0633926 -0.471942 0
-0.203528 -0.042961 0
-0.0844079 -0.243605 0
0.186988 -0.195895 0
0.0887411 -0.0321279 0
0.147729 -0.383539 0
0.0709735 -0.255605 0
0.0788958 -0.48794 0
0.0395747 -0.423092 0
-0.00665555 -0.486119 0
-4.67554e-05 -0.498562 0
-0.0904862 -0.378199 0
-0.0393715 -0.465361 0
-0.154646 -0.187703 0
-0.0703863 -0.330472 0
-0.185584 0.0436864 0
-0.0868997 -0.123313 0
-0.177136 0.265364 0
-0.0859017 0.110799 0
-0.131734 0.428914 0
-0.0681552 0.320677 0
-0.059757 0.498687 0
-0.0379529 0.460494 0
0.0228253 0.459547 0
-0.00211525 0.499792 0
0.0979945 0.320117 0
0.0315352 0.430087 0
0.149615 0.110841 0
0.0558834 0.266663 0
0.166905 -0.12269 0
0.0660402 0.0451825 0
0.146696 -0.329669 0
0.0603486 -0.186117 0
0.0940324 -0.465112 0
0.0406699 -0.376926 0
0.0209926 -0.499603 0
0.0119047 -0.485782 0
-0.0560805 -0.425604 0
-0.0191543 -0.489053 0
-0.120696 -0.258906 0
-0.0457677 -0.385988 0
-0.158004 -0.0350327 0
-0.0609511 -0.198689 0
0.147637 -0.158199 0
0.0678657 -0.0258297 0
0.117171 -0.309729 0
0.0545293 -0.206087 0
0.0628283 -0.393747 0
0.0306666 -0.341316 0
-0.00496506 -0.391623 0
0.000316404 -0.401959 0
-0.0715235 -0.303608 0
-0.030039 -0.374512 0
-0.122867 -0.148817 0
-0.0543752 -0.264783 0
-0.148349 0.0389405 0
-0.0679904 -0.0966619 0
-0.142993 0.218594 0
-0.0685076 0.093103 0
-0.108508 0.350814 0
-0.0563389 0.262979 0
-0.0528423 0.40662 0
-0.0345348 0.375755 0
0.0116282 0.373705 0
-0.00806746 0.406684 0
0.0708361 0.259104 0
0.017284 0.348881 0
0.112095 0.0876564 0
0.0361964 0.214814 0
0.126831 -0.103419 0
0.0449367 0.0335712 0
0.112384 -0.272612 0
0.0421263 -0.155474 0
0.0725108 -0.383136 0
0.0289784 -0.311231 0
0.0164929 -0.410903 0
0.00896939 -0.399808 0
-0.0429652 -0.349722 0
-0.0129844 -0.401861 0
-0.0929597 -0.212555 0
-0.0319919 -0.316766 0
-0.121443 -0.0289218 0
-0.0428229 -0.162666 0
0.115362 -0.129631 0
0.0494314 -0.0210167 0
0.0916918 -0.253483 0
0.0398452 -0.168447 0
0.0491811 -0.321783 0
0.02258 -0.27895 0
-0.00403732 -0.319238 0
0.00040153 -0.328135 0
-0.0564534 -0.246144 0
-0.021994 -0.304923 0
-0.0971817 -0.118308 0
-0.0402726 -0.214174 0
-0.117894 0.0363824 0
-0.0510181 -0.0756091 0
-0.114622 0.184056 0
-0.052438 0.0804811 0
-0.0885696 0.292278 0
-0.0447023 0.219865 0
-0.0457925 0.33716 0
-0.0298565 0.311875 0
0.004174 0.308592 0
-0.011333 0.336132 0
0.0504262 0.212473 0
0.0068206 0.287016 0
0.0830718 0.0694417 0
0.0208262 0.174914 0
0.0953604 -0.0895936 0
0.0279773 0.0239763 0
0.0851046 -0.230164 0
0.0271884 -0.133123 0
0.0550954 -0.321718 0
0.0191789 -0.262283 0
0.012433 -0.344252 0
0.00626079 -0.335375 0
-0.0330803 -0.292652 0
-0.00822195 -0.336354 0
-0.0714606 -0.177773 0
-0.0209693 -0.264746 0
-0.0932951 -0.0242698 0
-0.0282571 -0.13572 0
0.0882892 -0.108366 0
0.0326688 -0.0174524 0
0.0701554 -0.211475 0
0.0264609 -0.140413 0
0.0374958 -0.267919 0
0.0151734 -0.232371 0
-0.00352562 -0.264916 0
0.000439849 -0.272882 0
-0.0440434 -0.202794 0
-0.0146249 -0.252697 0
-0.0756979 -0.0949118 0
-0.027188 -0.17597 0
-0.0920768 0.0352147 0
-0.034997 -0.0593344 0
-0.0900854 0.159048 0
-0.0368195 0.0716958 0
-0.0705762 0.24928 0
-0.032665 0.188305 0
-0.0381183 0.285823 0
-0.0237421 0.264695 0
3.80306e-05 0.260237 0
-0.0121612 0.283758 0
0.0355643 0.177612 0
-0.000456692 0.24085 0
0.0608722 0.0555041 0
0.00896747 0.144851 0
0.0707473 -0.0798452 0
0.0143445 0.0162734 0
0.0634489 -0.199189 0
0.0148978 -0.117168 0
0.0410413 -0.276614 0
0.0109672 -0.226561 0
0.00889606 -0.295172 0
0.00388831 -0.288072 0
-0.025527 -0.250572 0
-0.00434373 -0.288132 0
-0.0546421 -0.152103 0
-0.0118164 -0.226403 0
-0.0712074 -0.0208084 0
-0.0161314 -0.115847 0
0.0652229 -0.0932596 0
0.0169875 -0.0149613 0
0.0517662 -0.181619 0
0.0139053 -0.12051 0
0.0274594 -0.229564 0
0.00827504 -0.199273 0
-0.00317154 -0.226161 0
0.000554856 -0.233543 0
-0.0334677 -0.171742 0
-0.00750679 -0.215438 0
-0.0571794 -0.0779417 0
-0.0144836 -0.148595 0
-0.0695204 0.0348102 0
-0.0192264 -0.0474644 0
-0.0681712 0.141741 0
-0.0210596 0.0658116 0
-0.0537493 0.219167 0
-0.0198928 0.166245 0
-0.0296407 0.249699 0
-0.0162096 0.231486 0
-0.001235 0.226091 0
-0.0109388 0.246751 0
0.025266 0.152878 0
-0.00523864 0.208102 0
0.0442015 0.0454549 0
-0.000242964 0.123372 0
0.0516713 -0.0732243 0
0.00317325 0.0105164 0
0.0463599 -0.177598 0
0.00456113 -0.106247 0
0.029788 -0.245031 0
0.0039634 -0.201674 0
0.0059444 -0.260738 0
0.00186894 -0.254968 0
-0.0196174 -0.221025 0
-0.000943174 -0.254317 0
-0.0412847 -0.134053 0
-0.00377147 -0.199497 0
-0.0536238 -0.018338 0
-0.00548096 -0.101888 0
0.0452616 -0.0829404 0
0.00247082 -0.0134184 0
0.0358074 -0.161476 0
0.00208275 -0.107126 0
0.018772 -0.203943 0
0.00165416 -0.177056 0
-0.00283748 -0.200428 0
0.000613229 -0.207292 0
-0.0241545 -0.15127 0
-0.000705949 -0.190668 0
-0.0407503 -0.0669202 0
-0.00217338 -0.130487 0
-0.0492567 0.0342565 0
-0.00370427 -0.03973 0
-0.0480603 0.129995 0
-0.00518559 0.0617137 0
-0.0376303 0.199011 0
-0.0064842 0.151404 0
-0.0203962 0.225686 0
-0.0074581 0.209281 0
-0.000201718 0.203539 0
-0.0079732 0.222095 0
0.0185429 0.136709 0
-0.00792462 0.186364 0
0.031823 0.0391234 0
-0.00725889 0.109206 0
0.0368865 -0.0684654 0
-0.00599274 0.00685948 0
0.0328269 -0.162949 0
-0.00422328 -0.0987958 0
0.0207593 -0.223858 0
-0.00212469 -0.184959 0
0.00355278 -0.237815 0
5.95405e-05 -0.232848 0
-0.0148308 -0.20146 0
0.0020401 -0.231801 0
-0.0303866 -0.122125 0
0.003455 -0.181622 0
-0.0392706 -0.0167207 0
0.0040929 -0.0925748 0
0.0282661 -0.0788396 0
-0.0127322 -0.0127322 0
0.0220064 -0.153198 0
-0.0103078 -0.101524 0
0.0111094 -0.193518 0
-0.00551025 -0.167759 0
-0.00265282 -0.190045 0
0.00059239 -0.196555 0
-0.0160755 -0.143007 0
0.00662069 -0.180751 0
-0.0262665 -0.0623992 0
0.0111985 -0.12338 0
-0.031106 0.0342286 0
0.0132595 -0.036822 0
-0.0296304 0.125591 0
0.0122868 0.0599411 0
-0.0222399 0.191329 0
0.00843308 0.145469 0
-0.0106049 0.216502 0
0.00249303 0.200576 0
0.0027039 0.194907 0
-0.00426479 0.212572 0
0.0147798 0.130511 0
-0.0103721 0.178103 0
0.0230142 0.036666 0
-0.0144805 0.103963 0
0.0256622 -0.0667298 0
-0.0156572 0.00568728 0
0.0222178 -0.157507 0
-0.0135924 -0.0957627 0
0.0135171 -0.216018 0
-0.00867222 -0.178521 0
0.00153983 -0.229398 0
-0.00190175 -0.224555 0
-0.0110371 -0.194368 0
0.00530697 -0.22359 0
-0.0215023 -0.117905 0
0.0114356 -0.175361 0
-0.0275417 -0.0158648 0
0.0151835 -0.0896382 0
