# vtk DataFile Version 3.0
tp3485 cell-vector
ASCII
DATASET UNSTRUCTURED_GRID
POINTS 441 double
0 0 0
0.05 0 0
0.1 0 0
0.15 0 0
0.2 0 0
0.25 0 0
0.3 0 0
0.35 0 0
0.4 0 0
0.45 0 0
0.5 0 0
0.55 0 0
0.6 0 0
0.65 0 0
0.7 0 0
0.75 0 0
0.8 0 0
0.85 0 0
0.9 0 0
0.95 0 0
1 0 0
0 0.05 0
0.05 0.05 0
0.1 0.05 0
0.15 0.05 0
0.2 0.05 0
0.25 0.05 0
0.3 0.05 0
0.35 0.05 0
0.4 0.05 0
0.45 0.05 0
0.5 0.05 0
0.55 0.05 0
0.6 0.05 0
0.65 0.05 0
0.7 0.05 0
0.75 0.05 0
0.8 0.05 0
0.85 0.05 0
0.9 0.05 0
0.95 0.05 0
1 0.05 0
0 0.1 0
0.05 0.1 0
0.1 0.1 0
0.15 0.1 0
0.2 0.1 0
0.25 0.1 0
0.3 0.1 0
0.35 0.1 0
0.4 0.1 0
0.45 0.1 0
0.5 0.1 0
0.55 0.1 0
0.6 0.1 0
0.65 0.1 0
0.7 0.1 0
0.75 0.1 0
0.8 0.1 0
0.85 0.1 0
0.9 0.1 0
0.95 0.1 0
1 0.1 0
0 0.15 0
0.05 0.15 0
0.1 0.15 0
0.15 0.15 0
0.2 0.15 0
0.25 0.15 0
0.3 0.15 0
0.35 0.15 0
0.4 0.15 0
0.45 0.15 0
0.5 0.15 0
0.55 0.15 0
0.6 0.15 0
0.65 0.15 0
0.7 0.15 0
0.75 0.15 0
0.8 0.15 0
0.85 0.15 0
0.9 0.15 0
0.95 0.15 0
1 0.15 0
0 0.2 0
0.05 0.2 0
0.1 0.2 0
0.15 0.2 0
0.2 0.2 0
0.25 0.2 0
0.3 0.2 0
0.35 0.2 0
0.4 0.2 0
0.45 0.2 0
0.5 0.2 0
0.55 0.2 0
0.6 0.2 0
0.65 0.2 0
0.7 0.2 0
0.75 0.2 0
0.8 0.2 0
0.85 0.2 0
0.9 0.2 0
0.95 0.2 0
1 0.2 0
0 0.25 0
0.05 0.25 0
0.1 0.25 0
0.15 0.25 0
0.2 0.25 0
0.25 0.25 0
0.3 0.25 0
0.35 0.25 0
0.4 0.25 0
0.45 0.25 0
0.5 0.25 0
0.55 0.25 0
0.6 0.25 0
0.65 0.25 0
0.7 0.25 0
0.75 0.25 0
0.8 0.25 0
0.85 0.25 0
0.9 0.25 0
0.95 0.25 0
1 0.25 0
0 0.3 0
0.05 0.3 0
0.1 0.3 0
0.15 0.3 0
0.2 0.3 0
0.25 0.3 0
0.3 0.3 0
0.35 0.3 0
0.4 0.3 0
0.45 0.3 0
0.5 0.3 0
0.55 0.3 0
0.6 0.3 0
0.65 0.3 0
0.7 0.3 0
0.75 0.3 0
0.8 0.3 0
0.85 0.3 0
0.9 0.3 0
0.95 0.3 0
1 0.3 0
0 0.35 0
0.05 0.35 0
0.1 0.35 0
0.15 0.35 0
0.2 0.35 0
0.25 0.35 0
0.3 0.35 0
0.35 0.35 0
0.4 0.35 0
0.45 0.35 0
0.5 0.35 0
0.55 0.35 0
0.6 0.35 0
0.65 0.35 0
0.7 0.35 0
0.75 0.35 0
0.8 0.35 0
0.85 0.35 0
0.9 0.35 0
0.95 0.35 0
1 0.35 0
0 0.4 0
0.05 0.4 0
0.1 0.4 0
0.15 0.4 0
0.2 0.4 0
0.25 0.4 0
0.3 0.4 0
0.35 0.4 0
0.4 0.4 0
0.45 0.4 0
0.5 0.4 0
0.55 0.4 0
0.6 0.4 0
0.65 0.4 0
0.7 0.4 0
0.75 0.4 0
0.8 0.4 0
0.85 0.4 0
0.9 0.4 0
0.95 0.4 0
1 0.4 0
0 0.45 0
0.05 0.45 0
0.1 0.45 0
0.15 0.45 0
0.2 0.45 0
0.25 0.45 0
0.3 0.45 0
0.35 0.45 0
0.4 0.45 0
0.45 0.45 0
0.5 0.45 0
0.55 0.45 0
0.6 0.45 0
0.65 0.45 0
0.7 0.45 0
0.75 0.45 0
0.8 0.45 0
0.85 0.45 0
0.9 0.45 0
0.95 0.45 0
1 0.45 0
0 0.5 0
0.05 0.5 0
0.1 0.5 0
0.15 0.5 0
0.2 0.5 0
0.25 0.5 0
0.3 0.5 0
0.35 0.5 0
0.4 0.5 0
0.45 0.5 0
0.5 0.5 0
0.55 0.5 0
0.6 0.5 0
0.65 0.5 0
0.7 0.5 0
0.75 0.5 0
0.8 0.5 0
0.85 0.5 0
0.9 0.5 0
0.95 0.5 0
1 0.5 0
0 0.55 0
0.05 0.55 0
0.1 0.55 0
0.15 0.55 0
0.2 0.55 0
0.25 0.55 0
0.3 0.55 0
0.35 0.55 0
0.4 0.55 0
0.45 0.55 0
0.5 0.55 0
0.55 0.55 0
0.6 0.55 0
0.65 0.55 0
0.7 0.55 0
0.75 0.55 0
0.8 0.55 0
0.85 0.55 0
0.9 0.55 0
0.95 0.55 0
1 0.55 0
0 0.6 0
0.05 0.6 0
0.1 0.6 0
0.15 0.6 0
0.2 0.6 0
0.25 0.6 0
0.3 0.6 0
0.35 0.6 0
0.4 0.6 0
0.45 0.6 0
0.5 0.6 0
0.55 0.6 0
0.6 0.6 0
0.65 0.6 0
0.7 0.6 0
0.75 0.6 0
0.8 0.6 0
0.85 0.6 0
0.9 0.6 0
0.95 0.6 0
1 0.6 0
0 0.65 0
0.05 0.65 0
0.1 0.65 0
0.15 0.65 0
0.2 0.65 0
0.25 0.65 0
0.3 0.65 0
0.35 0.65 0
0.4 0.65 0
0.45 0.65 0
0.5 0.65 0
0.55 0.65 0
0.6 0.65 0
0.65 0.65 0
0.7 0.65 0
0.75 0.65 0
0.8 0.65 0
0.85 0.65 0
0.9 0.65 0
0.95 0.65 0
1 0.65 0
0 0.7 0
0.05 0.7 0
0.1 0.7 0
0.15 0.7 0
0.2 0.7 0
0.25 0.7 0
0.3 0.7 0
0.35 0.7 0
0.4 0.7 0
0.45 0.7 0
0.5 0.7 0
0.55 0.7 0
0.6 0.7 0
0.65 0.7 0
0.7 0.7 0
0.75 0.7 0
0.8 0.7 0
0.85 0.7 0
0.9 0.7 0
0.95 0.7 0
1 0.7 0
0 0.75 0
0.05 0.75 0
0.1 0.75 0
0.15 0.75 0
0.2 0.75 0
0.25 0.75 0
0.3 0.75 0
0.35 0.75 0
0.4 0.75 0
0.45 0.75 0
0.5 0.75 0
0.55 0.75 0
0.6 0.75 0
0.65 0.75 0
0.7 0.75 0
0.75 0.75 0
0.8 0.75 0
0.85 0.75 0
0.9 0.75 0
0.95 0.75 0
1 0.75 0
0 0.8 0
0.05 0.8 0
0.1 0.8 0
0.15 0.8 0
0.2 0.8 0
0.25 0.8 0
0.3 0.8 0
0.35 0.8 0
0.4 0.8 0
0.45 0.8 0
0.5 0.8 0
0.55 0.8 0
0.6 0.8 0
0.65 0.8 0
0.7 0.8 0
0.75 0.8 0
0.8 0.8 0
0.85 0.8 0
0.9 0.8 0
0.95 0.8 0
1 0.8 0
0 0.85 0
0.05 0.85 0
0.1 0.85 0
0.15 0.85 0
0.2 0.85 0
0.25 0.85 0
0.3 0.85 0
0.35 0.85 0
0.4 0.85 0
0.45 0.85 0
0.5 0.85 0
0.55 0.85 0
0.6 0.85 0
0.65 0.85 0
0.7 0.85 0
0.75 0.85 0
0.8 0.85 0
0.85 0.85 0
0.9 0.85 0
0.95 0.85 0
1 0.85 0
0 0.9 0
0.05 0.9 0
0.1 0.9 0
0.15 0.9 0
0.2 0.9 0
0.25 0.9 0
0.3 0.9 0
0.35 0.9 0
0.4 0.9 0
0.45 0.9 0
0.5 0.9 0
0.55 0.9 0
0.6 0.9 0
0.65 0.9 0
0.7 0.9 0
0.75 0.9 0
0.8 0.9 0
0.85 0.9 0
0.9 0.9 0
0.95 0.9 0
1 0.9 0
0 0.95 0
0.05 0.95 0
0.1 0.95 0
0.15 0.95 0
0.2 0.95 0
0.25 0.95 0
0.3 0.95 0
0.35 0.95 0
0.4 0.95 0
0.45 0.95 0
0.5 0.95 0
0.55 0.95 0
0.6 0.95 0
0.65 0.95 0
0.7 0.95 0
0.75 0.95 0
0.8 0.95 0
0.85 0.95 0
0.9 0.95 0
0.95 0.95 0
1 0.95 0
0 1 0
0.05 1 0
0.1 1 0
0.15 1 0
0.2 1 0
0.25 1 0
0.3 1 0
0.35 1 0
0.4 1 0
0.45 1 0
0.5 1 0
0.55 1 0
0.6 1 0
0.65 1 0
0.7 1 0
0.75 1 0
0.8 1 0
0.85 1 0
0.9 1 0
0.95 1 0
1 1 0
CELLS 800 3200
3 0 1 22
3 0 22 21
3 1 2 23
3 1 23 22
3 2 3 24
3 2 24 23
3 3 4 25
3 3 25 24
3 4 5 26
3 4 26 25
3 5 6 27
3 5 27 26
3 6 7 28
3 6 28 27
3 7 8 29
3 7 29 28
3 8 9 30
3 8 30 29
3 9 10 31
3 9 31 30
3 10 11 32
3 10 32 31
3 11 12 33
3 11 33 32
3 12 13 34
3 12 34 33
3 13 14 35
3 13 35 34
3 14 15 36
3 14 36 35
3 15 16 37
3 15 37 36
3 16 17 38
3 16 38 37
3 17 18 39
3 17 39 38
3 18 19 40
3 18 40 39
3 19 20 41
3 19 41 40
3 21 22 43
3 21 43 42
3 22 23 44
3 22 44 43
3 23 24 45
3 23 45 44
3 24 25 46
3 24 46 45
3 25 26 47
3 25 47 46
3 26 27 48
3 26 48 47
3 27 28 49
3 27 49 48
3 28 29 50
3 28 50 49
3 29 30 51
3 29 51 50
3 30 31 52
3 30 52 51
3 31 32 53
3 31 53 52
3 32 33 54
3 32 54 53
3 33 34 55
3 33 55 54
3 34 35 56
3 34 56 55
3 35 36 57
3 35 57 56
3 36 37 58
3 36 58 57
3 37 38 59
3 37 59 58
3 38 39 60
3 38 60 59
3 39 40 61
3 39 61 60
3 40 41 62
3 40 62 61
3 42 43 64
3 42 64 63
3 43 44 65
3 43 65 64
3 44 45 66
3 44 66 65
3 45 46 67
3 45 67 66
3 46 47 68
3 46 68 67
3 47 48 69
3 47 69 68
3 48 49 70
3 48 70 69
3 49 50 71
3 49 71 70
3 50 51 72
3 50 72 71
3 51 52 73
3 51 73 72
3 52 53 74
3 52 74 73
3 53 54 75
3 53 75 74
3 54 55 76
3 54 76 75
3 55 56 77
3 55 77 76
3 56 57 78
3 56 78 77
3 57 58 79
3 57 79 78
3 58 59 80
3 58 80 79
3 59 60 81
3 59 81 80
3 60 61 82
3 60 82 81
3 61 62 83
3 61 83 82
3 63 64 85
3 63 85 84
3 64 65 86
3 64 86 85
3 65 66 87
3 65 87 86
3 66 67 88
3 66 88 87
3 67 68 89
3 67 89 88
3 68 69 90
3 68 90 89
3 69 70 91
3 69 91 90
3 70 71 92
3 70 92 91
3 71 72 93
3 71 93 92
3 72 73 94
3 72 94 93
3 73 74 95
3 73 95 94
3 74 75 96
3 74 96 95
3 75 76 97
3 75 97 96
3 76 77 98
3 76 98 97
3 77 78 99
3 77 99 98
3 78 79 100
3 78 100 99
3 79 80 101
3 79 101 100
3 80 81 102
3 80 102 101
3 81 82 103
3 81 103 102
3 82 83 104
3 82 104 103
3 84 85 106
3 84 106 105
3 85 86 107
3 85 107 106
3 86 87 108
3 86 108 107
3 87 88 109
3 87 109 108
3 88 89 110
3 88 110 109
3 89 90 111
3 89 111 110
3 90 91 112
3 90 112 111
3 91 92 113
3 91 113 112
3 92 93 114
3 92 114 113
3 93 94 115
3 93 115 114
3 94 95 116
3 94 116 115
3 95 96 117
3 95 117 116
3 96 97 118
3 96 118 117
3 97 98 119
3 97 119 118
3 98 99 120
3 98 120 119
3 99 100 121
3 99 121 120
3 100 101 122
3 100 122 121
3 101 102 123
3 101 123 122
3 102 103 124
3 102 124 123
3 103 104 125
3 103 125 124
3 105 106 127
3 105 127 126
3 106 107 128
3 106 128 127
3 107 108 129
3 107 129 128
3 108 109 130
3 108 130 129
3 109 110 131
3 109 131 130
3 110 111 132
3 110 132 131
3 111 112 133
3 111 133 132
3 112 113 134
3 112 134 133
3 113 114 135
3 113 135 134
3 114 115 136
3 114 136 135
3 115 116 137
3 115 137 136
3 116 117 138
3 116 138 137
3 117 118 139
3 117 139 138
3 118 119 140
3 118 140 139
3 119 120 141
3 119 141 140
3 120 121 142
3 120 142 141
3 121 122 143
3 121 143 142
3 122 123 144
3 122 144 143
3 123 124 145
3 123 145 144
3 124 125 146
3 124 146 145
3 126 127 148
3 126 148 147
3 127 128 149
3 127 149 148
3 128 129 150
3 128 150 149
3 129 130 151
3 129 151 150
3 130 131 152
3 130 152 151
3 131 132 153
3 131 153 152
3 132 133 154
3 132 154 153
3 133 134 155
3 133 155 154
3 134 135 156
3 134 156 155
3 135 136 157
3 135 157 156
3 136 137 158
3 136 158 157
3 137 138 159
3 137 159 158
3 138 139 160
3 138 160 159
3 139 140 161
3 139 161 160
3 140 141 162
3 140 162 161
3 141 142 163
3 141 163 162
3 142 143 164
3 142 164 163
3 143 144 165
3 143 165 164
3 144 145 166
3 144 166 165
3 145 146 167
3 145 167 166
3 147 148 169
3 147 169 168
3 148 149 170
3 148 170 169
3 149 150 171
3 149 171 170
3 150 151 172
3 150 172 171
3 151 152 173
3 151 173 172
3 152 153 174
3 152 174 173
3 153 154 175
3 153 175 174
3 154 155 176
3 154 176 175
3 155 156 177
3 155 177 176
3 156 157 178
3 156 178 177
3 157 158 179
3 157 179 178
3 158 159 180
3 158 180 179
3 159 160 181
3 159 181 180
3 160 161 182
3 160 182 181
3 161 162 183
3 161 183 182
3 162 163 184
3 162 184 183
3 163 164 185
3 163 185 184
3 164 165 186
3 164 186 185
3 165 166 187
3 165 187 186
3 166 167 188
3 166 188 187
3 168 169 190
3 168 190 189
3 169 170 191
3 169 191 190
3 170 171 192
3 170 192 191
3 171 172 193
3 171 193 192
3 172 173 194
3 172 194 193
3 173 174 195
3 173 195 194
3 174 175 196
3 174 196 195
3 175 176 197
3 175 197 196
3 176 177 198
3 176 198 197
3 177 178 199
3 177 199 198
3 178 179 200
3 178 200 199
3 179 180 201
3 179 201 200
3 180 181 202
3 180 202 201
3 181 182 203
3 181 203 202
3 182 183 204
3 182 204 203
3 183 184 205
3 183 205 204
3 184 185 206
3 184 206 205
3 185 186 207
3 185 207 206
3 186 187 208
3 186 208 207
3 187 188 209
3 187 209 208
3 189 190 211
3 189 211 210
3 190 191 212
3 190 212 211
3 191 192 213
3 191 213 212
3 192 193 214
3 192 214 213
3 193 194 215
3 193 215 214
3 194 195 216
3 194 216 215
3 195 196 217
3 195 217 216
3 196 197 218
3 196 218 217
3 197 198 219
3 197 219 218
3 198 199 220
3 198 220 219
3 199 200 221
3 199 221 220
3 200 201 222
3 200 222 221
3 201 202 223
3 201 223 222
3 202 203 224
3 202 224 223
3 203 204 225
3 203 225 224
3 204 205 226
3 204 226 225
3 205 206 227
3 205 227 226
3 206 207 228
3 206 228 227
3 207 208 229
3 207 229 228
3 208 209 230
3 208 230 229
3 210 211 232
3 210 232 231
3 211 212 233
3 211 233 232
3 212 213 234
3 212 234 233
3 213 214 235
3 213 235 234
3 214 215 236
3 214 236 235
3 215 216 237
3 215 237 236
3 216 217 238
3 216 238 237
3 217 218 239
3 217 239 238
3 218 219 240
3 218 240 239
3 219 220 241
3 219 241 240
3 220 221 242
3 220 242 241
3 221 222 243
3 221 243 242
3 222 223 244
3 222 244 243
3 223 224 245
3 223 245 244
3 224 225 246
3 224 246 245
3 225 226 247
3 225 247 246
3 226 227 248
3 226 248 247
3 227 228 249
3 227 249 248
3 228 229 250
3 228 250 249
3 229 230 251
3 229 251 250
3 231 232 253
3 231 253 252
3 232 233 254
3 232 254 253
3 233 234 255
3 233 255 254
3 234 235 256
3 234 256 255
3 235 236 257
3 235 257 256
3 236 237 258
3 236 258 257
3 237 238 259
3 237 259 258
3 238 239 260
3 238 260 259
3 239 240 261
3 239 261 260
3 240 241 262
3 240 262 261
3 241 242 263
3 241 263 262
3 242 243 264
3 242 264 263
3 243 244 265
3 243 265 264
3 244 245 266
3 244 266 265
3 245 246 267
3 245 267 266
3 246 247 268
3 246 268 267
3 247 248 269
3 247 269 268
3 248 249 270
3 248 270 269
3 249 250 271
3 249 271 270
3 250 251 272
3 250 272 271
3 252 253 274
3 252 274 273
3 253 254 275
3 253 275 274
3 254 255 276
3 254 276 275
3 255 256 277
3 255 277 276
3 256 257 278
3 256 278 277
3 257 258 279
3 257 279 278
3 258 259 280
3 258 280 279
3 259 260 281
3 259 281 280
3 260 261 282
3 260 282 281
3 261 262 283
3 261 283 282
3 262 263 284
3 262 284 283
3 263 264 285
3 263 285 284
3 264 265 286
3 264 286 285
3 265 266 287
3 265 287 286
3 266 267 288
3 266 288 287
3 267 268 289
3 267 289 288
3 268 269 290
3 268 290 289
3 269 270 291
3 269 291 290
3 270 271 292
3 270 292 291
3 271 272 293
3 271 293 292
3 273 274 295
3 273 295 294
3 274 275 296
3 274 296 295
3 275 276 297
3 275 297 296
3 276 277 298
3 276 298 297
3 277 278 299
3 277 299 298
3 278 279 300
3 278 300 299
3 279 280 301
3 279 301 300
3 280 281 302
3 280 302 301
3 281 282 303
3 281 303 302
3 282 283 304
3 282 304 303
3 283 284 305
3 283 305 304
3 284 285 306
3 284 306 305
3 285 286 307
3 285 307 306
3 286 287 308
3 286 308 307
3 287 288 309
3 287 309 308
3 288 289 310
3 288 310 309
3 289 290 311
3 289 311 310
3 290 291 312
3 290 312 311
3 291 292 313
3 291 313 312
3 292 293 314
3 292 314 313
3 294 295 316
3 294 316 315
3 295 296 317
3 295 317 316
3 296 297 318
3 296 318 317
3 297 298 319
3 297 319 318
3 298 299 320
3 298 320 319
3 299 300 321
3 299 321 320
3 300 301 322
3 300 322 321
3 301 302 323
3 301 323 322
3 302 303 324
3 302 324 323
3 303 304 325
3 303 325 324
3 304 305 326
3 304 326 325
3 305 306 327
3 305 327 326
3 306 307 328
3 306 328 327
3 307 308 329
3 307 329 328
3 308 309 330
3 308 330 329
3 309 310 331
3 309 331 330
3 310 311 332
3 310 332 331
3 311 312 333
3 311 333 332
3 312 313 334
3 312 334 333
3 313 314 335
3 313 335 334
3 315 316 337
3 315 337 336
3 316 317 338
3 316 338 337
3 317 318 339
3 317 339 338
3 318 319 340
3 318 340 339
3 319 320 341
3 319 341 340
3 320 321 342
3 320 342 341
3 321 322 343
3 321 343 342
3 322 323 344
3 322 344 343
3 323 324 345
3 323 345 344
3 324 325 346
3 324 346 345
3 325 326 347
3 325 347 346
3 326 327 348
3 326 348 347
3 327 328 349
3 327 349 348
3 328 329 350
3 328 350 349
3 329 330 351
3 329 351 350
3 330 331 352
3 330 352 351
3 331 332 353
3 331 353 352
3 332 333 354
3 332 354 353
3 333 334 355
3 333 355 354
3 334 335 356
3 334 356 355
3 336 337 358
3 336 358 357
3 337 338 359
3 337 359 358
3 338 339 360
3 338 360 359
3 339 340 361
3 339 361 360
3 340 341 362
3 340 362 361
3 341 342 363
3 341 363 362
3 342 343 364
3 342 364 363
3 343 344 365
3 343 365 364
3 344 345 366
3 344 366 365
3 345 346 367
3 345 367 366
3 346 347 368
3 346 368 367
3 347 348 369
3 347 369 368
3 348 349 370
3 348 370 369
3 349 350 371
3 349 371 370
3 350 351 372
3 350 372 371
3 351 352 373
3 351 373 372
3 352 353 374
3 352 374 373
3 353 354 375
3 353 375 374
3 354 355 376
3 354 376 375
3 355 356 377
3 355 377 376
3 357 358 379
3 357 379 378
3 358 359 380
3 358 380 379
3 359 360 381
3 359 381 380
3 360 361 382
3 360 382 381
3 361 362 383
3 361 383 382
3 362 363 384
3 362 384 383
3 363 364 385
3 363 385 384
3 364 365 386
3 364 386 385
3 365 366 387
3 365 387 386
3 366 367 388
3 366 388 387
3 367 368 389
3 367 389 388
3 368 369 390
3 368 390 389
3 369 370 391
3 369 391 390
3 370 371 392
3 370 392 391
3 371 372 393
3 371 393 392
3 372 373 394
3 372 394 393
3 373 374 395
3 373 395 394
3 374 375 396
3 374 396 395
3 375 376 397
3 375 397 396
3 376 377 398
3 376 398 397
3 378 379 400
3 378 400 399
3 379 380 401
3 379 401 400
3 380 381 402
3 380 402 401
3 381 382 403
3 381 403 402
3 382 383 404
3 382 404 403
3 383 384 405
3 383 405 404
3 384 385 406
3 384 406 405
3 385 386 407
3 385 407 406
3 386 387 408
3 386 408 407
3 387 388 409
3 387 409 408
3 388 389 410
3 388 410 409
3 389 390 411
3 389 411 410
3 390 391 412
3 390 412 411
3 391 392 413
3 391 413 412
3 392 393 414
3 392 414 413
3 393 394 415
3 393 415 414
3 394 395 416
3 394 416 415
3 395 396 417
3 395 417 416
3 396 397 418
3 396 418 417
3 397 398 419
3 397 419 418
3 399 400 421
3 399 421 420
3 400 401 422
3 400 422 421
3 401 402 423
3 401 423 422
3 402 403 424
3 402 424 423
3 403 404 425
3 403 425 424
3 404 405 426
3 404 426 425
3 405 406 427
3 405 427 426
3 406 407 428
3 406 428 427
3 407 408 429
3 407 429 428
3 408 409 430
3 408 430 429
3 409 410 431
3 409 431 430
3 410 411 432
3 410 432 431
3 411 412 433
3 411 433 432
3 412 413 434
3 412 434 433
3 413 414 435
3 413 435 434
3 414 415 436
3 414 436 435
3 415 416 437
3 415 437 436
3 416 417 438
3 416 438 437
3 417 418 439
3 417 439 438
3 418 419 440
3 418 440 439
CELL_TYPES 800
5
5
5
5
5
5
5
5
5
5
5
5
5
5
5
5
5
5
5
5
5
5
5
5
5
5
5
5
5
5
5
5
5
5
5
5
5
5
5
5
5
5
5
5
5
5
5
5
5
5
5
5
5
5
5
5
5
5
5
5
5
5
5
5
5
5
5
5
5
5
5
5
5
5
5
5
5
5
5
5
5
5
5
5
5
5
5
5
5
5
5
5
5
5
5
5
5
5
5
5
5
5
5
5
5
5
5
5
5
5
5
5
5
5
5
5
5
5
5
5
5
5
5
5
5
5
5
5
5
5
5
5
5
5
5
5
5
5
5
5
5
5
5
5
5
5
5
5
5
5
5
5
5
5
5
5
5
5
5
5
5
5
5
5
5
5
5
5
5
5
5
5
5
5
5
5
5
5
5
5
5
5
5
5
5
5
5
5
5
5
5
5
5
5
5
5
5
5
5
5
5
5
5
5
5
5
5
5
5
5
5
5
5
5
5
5
5
5
5
5
5
5
5
5
5
5
5
5
5
5
5
5
5
5
5
5
5
5
5
5
5
5
5
5
5
5
5
5
5
5
5
5
5
5
5
5
5
5
5
5
5
5
5
5
5
5
5
5
5
5
5
5
5
5
5
5
5
5
5
5
5
5
5
5
5
5
5
5
5
5
5
5
5
5
5
5
5
5
5
5
5
5
5
5
5
5
5
5
5
5
5
5
5
5
5
5
5
5
5
5
5
5
5
5
5
5
5
5
5
5
5
5
5
5
5
5
5
5
5
5
5
5
5
5
5
5
5
5
5
5
5
5
5
5
5
5
5
5
5
5
5
5
5
5
5
5
5
5
5
5
5
5
5
5
5
5
5
5
5
5
5
5
5
5
5
5
5
5
5
5
5
5
5
5
5
5
5
5
5
5
5
5
5
5
5
5
5
5
5
5
5
5
5
5
5
5
5
5
5
5
5
5
5
5
5
5
5
5
5
5
5
5
5
5
5
5
5
5
5
5
5
5
5
5
5
5
5
5
5
5
5
5
5
5
5
5
5
5
5
5
5
5
5
5
5
5
5
5
5
5
5
5
5
5
5
5
5
5
5
5
5
5
5
5
5
5
5
5
5
5
5
5
5
5
5
5
5
5
5
5
5
5
5
5
5
5
5
5
5
5
5
5
5
5
5
5
5
5
5
5
5
5
5
5
5
5
5
5
5
5
5
5
5
5
5
5
5
5
5
5
5
5
5
5
5
5
5
5
5
5
5
5
5
5
5
5
5
5
5
5
5
5
5
5
5
5
5
5
5
5
5
5
5
5
5
5
5
5
5
5
5
5
5
5
5
5
5
5
5
5
5
5
5
5
5
5
5
5
5
5
5
5
5
5
5
5
5
5
5
5
5
5
5
5
5
5
5
5
5
5
5
5
5
5
5
5
5
5
5
5
5
5
5
5
5
5
5
5
5
5
5
5
5
5
5
5
5
5
5
5
5
5
5
5
5
5
5
5
5
5
5
5
5
5
5
5
5
5
5
5
5
5
5
5
5
5
5
5
5
5
5
5
5
5
5
5
5
5
5
5
5
5
5
5
5
5
5
5
5
5
5
5
5
5
5
5
5
5
5
5
5
5
5
5
5
5
5
5
5
5
5
5
5
5
5
5
5
5
5
5
5
5
5
5
5
5
5
5
5
5
5
5
5
5
5
5
5
5
5
5
5
5
5
5
5
5
5
5
5
5
5
5
5
5
5
5
5
5
5
5
5
5
5
5
5
5
5
5
5
5
5
5
5
5
5
5
5
5
5
5
5
5
5
5
5
5
5
5
5
5
CELL_DATA 800
VECTORS Et double
0.0645643 0.0766743 0
0.33116 -0.0626783 0
0.0627975 0.0804954 0
0.316942 -0.0493707 0
0.0594623 0.0835006 0
0.302252 -0.0410645 0
0.0546468 0.0839548 0
0.27839 -0.0305515 0
0.0484627 0.0819018 0
0.247614 -0.0197394 0
0.041063 0.0775174 0
0.21075 -0.00883367 0
0.0326386 0.0709697 0
0.168674 0.0020135 0
0.0234066 0.0624272 0
0.122418 0.0125766 0
0.0136015 0.0520711 0
0.0731259 0.0225844 0
0.0034663 0.04012 0
0.0220209 0.0317506 0
-0.00675467 0.0268595 0
-0.0296247 0.0398143 0
-0.0168209 0.0126671 0
-0.0805262 0.0465828 0
-0.0264994 -0.0019778 0
-0.12942 0.0519656 0
-0.0355663 -0.0165036 0
-0.175095 0.0559902 0
-0.0438088 -0.0302805 0
-0.216426 0.0587955 0
-0.0510258 -0.0426765 0
-0.252401 0.0606003 0
-0.0570308 -0.0531155 0
-0.282129 0.0616507 0
-0.061653 -0.0610955 0
-0.304817 0.0621655 0
-0.0647666 -0.0632311 0
-0.316898 0.0623455 0
-0.0662428 -0.0662428 0
-0.327786 0.0652964 0
0.447753 0.0617176 0
0.659527 -0.0480707 0
0.430908 0.064311 0
0.63434 -0.039416 0
0.410749 0.0662486 0
0.605269 -0.033356 0
0.378718 0.0661244 0
0.558081 -0.0254934 0
0.33725 0.064076 0
0.497069 -0.017384 0
0.28744 0.0602583 0
0.423782 -0.00908979 0
0.230501 0.0548178 0
0.339996 -0.000725232 0
0.167852 0.0478786 0
0.247775 0.00753337 0
0.101057 0.0395595 0
0.149408 0.0154513 0
0.031777 0.0300016 0
0.0473431 0.0227687 0
-0.0382758 0.0194003 0
-0.0558839 0.0292412 0
-0.107384 0.00803377 0
-0.157715 0.0346833 0
-0.173865 -0.0037219 0
-0.255639 0.0390036 0
-0.236106 -0.015398 0
-0.347247 0.0422233 0
-0.292597 -0.0264608 0
-0.430294 0.0444717 0
-0.341961 -0.0363611 0
-0.502751 0.0459589 0
-0.38297 -0.04459 0
-0.562828 0.0469279 0
-0.414516 -0.0507184 0
-0.608935 0.0476006 0
-0.432797 -0.0531125 0
-0.63562 0.0481645 0
-0.446958 -0.0554115 0
-0.65682 0.0500189 0
0.740164 0.0366028 0
0.857214 -0.0239405 0
0.713325 0.0380173 0
0.826287 -0.01957 0
0.680606 0.0394315 0
0.789245 -0.0164013 0
0.627851 0.0396607 0
0.728199 -0.0118237 0
0.559496 0.0388556 0
0.649099 -0.00709652 0
0.477279 0.0371199 0
0.553907 -0.00219442 0
0.383223 0.0345217 0
0.444957 0.00282338 0
0.279668 0.0310839 0
0.32495 0.00782908 0
0.169206 0.0268002 0
0.196881 0.0126316 0
0.0545883 0.0216656 0
0.0639452 0.0170045 0
-0.0613441 0.0157149 0
-0.07055 0.0207269 0
-0.175742 0.00905723 0
-0.203275 0.023628 0
-0.285812 0.00189917 0
-0.330964 0.0256247 0
-0.388882 -0.00545282 0
-0.450488 0.0267438 0
-0.482452 -0.012612 0
-0.558932 0.0271212 0
-0.564249 -0.0191503 0
-0.653653 0.0269784 0
-0.63225 -0.0246544 0
-0.732325 0.0265819 0
-0.684646 -0.0288001 0
-0.792908 0.0261842 0
-0.715817 -0.0307355 0
-0.828995 0.0259707 0
-0.739483 -0.0336432 0
-0.858017 0.0266374 0
0.885933 0.00446576 0
0.88536 0.00490931 0
0.854669 0.00451182 0
0.854949 0.00434724 0
0.816513 0.004693 0
0.817393 0.00408298 0
0.753592 0.00485327 0
0.754705 0.00405442 0
0.671922 0.00512986 0
0.673216 0.00411269 0
0.57355 0.00558223 0
0.574948 0.00436697 0
0.460918 0.00619666 0
0.462341 0.00484603 0
0.336854 0.00687889 0
0.33822 0.00549797 0
0.204477 0.00747165 0
0.205705 0.00619455 0
0.0671006 0.00779001 0
0.068121 0.00675608 0
-0.0718615 0.00766637 0
-0.0710992 0.00699214 0
-0.20899 0.00699436 0
-0.208509 0.00674808 0
-0.34094 0.00576122 0
-0.340734 0.00594638 0
-0.464516 0.00406053 0
-0.464554 0.00461295 0
-0.576736 0.00208169 0
-0.576968 0.00288155 0
-0.674886 7.75108e-05 0
-0.67526 0.00097426 0
-0.756563 -0.00168188 0
-0.757041 -0.000837854 0
-0.81964 -0.00299626 0
-0.820234 -0.00228852 0
-0.857636 -0.00405263 0
-0.858716 -0.00319188 0
-0.887863 -0.0052347 0
-0.889885 -0.00378482 0
0.856533 -0.0285495 0
0.73858 0.0327433 0
0.827157 -0.0299921 0
0.714737 0.0273329 0
0.79123 -0.0311812 0
0.684184 0.023594 0
0.730702 -0.0312323 0
0.632294 0.0188926 0
0.651887 -0.029992 0
0.564509 0.0142005 0
0.55677 -0.0274324 0
0.482527 0.00974236 0
0.447759 -0.0236405 0
0.388433 0.00564686 0
0.327625 -0.0188239 0
0.28463 0.00194633 0
0.199425 -0.0132915 0
0.173768 -0.00142158 0
0.0663931 -0.00741217 0
0.0586585 -0.00459086 0
-0.0681509 -0.00156229 0
-0.0578092 -0.00772579 0
-0.200894 0.00392739 0
-0.172749 -0.0109719 0
-0.328609 0.0088148 0
-0.28335 -0.0144102 0
-0.448226 0.0129703 0
-0.386944 -0.0180258 0
-0.556887 0.0163761 0
-0.481057 -0.0216974 0
-0.651999 0.019102 0
-0.563456 -0.0252116 0
-0.731267 0.0212607 0
-0.632184 -0.0283001 0
-0.792672 0.0229552 0
-0.685517 -0.0306961 0
-0.830127 0.0230632 0
-0.718795 -0.0321847 0
-0.86102 0.0242024 0
-0.745774 -0.0338279 0
0.658014 -0.0561638 0
0.445966 0.054031 0
0.636361 -0.0590808 0
0.433442 0.0445435 0
0.60983 -0.0616519 0
0.415967 0.0378214 0
0.563667 -0.0621144 0
0.385094 0.0291676 0
0.50322 -0.060292 0
0.344315 0.0204927 0
0.430045 -0.0561692 0
0.294689 0.0121251 0
0.346057 -0.0498814 0
0.237553 0.00428568 0
0.253457 -0.041723 0
0.174437 -0.00291608 0
0.154655 -0.0321257 0
0.107015 -0.00948564 0
0.0521859 -0.0216126 0
0.0370463 -0.0155224 0
-0.0513709 -0.0107386 0
-0.033684 -0.0211771 0
-0.153464 -2.86653e-05 0
-0.103418 -0.0265994 0
-0.251633 0.010075 0
-0.170468 -0.0318882 0
-0.343555 0.0192473 0
-0.233258 -0.0370542 0
-0.427086 0.027291 0
-0.290345 -0.0420021 0
-0.500294 0.0341202 0
-0.340445 -0.0465389 0
-0.561473 0.0397191 0
-0.382444 -0.0504059 0
-0.609087 0.0440952 0
-0.415319 -0.0533357 0
-0.638617 0.0454523 0
-0.436742 -0.0551069 0
-0.663904 0.0488576 0
-0.453985 -0.057362 0
0.329746 -0.073328 0
0.0651379 0.0645458 0
0.320117 -0.0774423 0
0.0668391 0.0521275 0
0.308229 -0.0812705 0
0.0657557 0.043478 0
0.285471 -0.0823608 0
0.0619053 0.0322392 0
0.255186 -0.0805346 0
0.0560159 0.0210421 0
0.218217 -0.0757565 0
0.048355 0.0102631 0
0.175642 -0.068171 0
0.0392713 0.000199468 0
0.128682 -0.0581144 0
0.0291384 -0.00897919 0
0.0786505 -0.0460905 0
0.0183418 -0.017241 0
0.0269019 -0.0327198 0
0.00725619 -0.0246706 0
-0.0252236 -0.0186745 0
-0.00377916 -0.0314239 0
-0.0764412 -0.00461135 0
-0.0144788 -0.0376723 0
-0.125552 0.00888866 0
-0.0246196 -0.0435498 0
-0.171463 0.0213642 0
-0.0340397 -0.0491097 0
-0.213192 0.0324958 0
-0.0426294 -0.0542998 0
-0.249875 0.0420965 0
-0.0503282 -0.0589597 0
-0.28076 0.0500572 0
-0.0571301 -0.0628493 0
-0.305112 0.0561962 0
-0.0630486 -0.0657192 0
-0.320808 0.0585523 0
-0.0682443 -0.0674768 0
-0.335284 0.0638598 0
-0.0718549 -0.0698743 0
-0.0635719 -0.0766453 0
-0.328784 0.0622014 0
-0.0588644 -0.0812961 0
-0.312217 0.048569 0
-0.0539313 -0.085631 0
-0.296777 0.0395738 0
-0.0489282 -0.0873669 0
-0.273293 0.0280024 0
-0.0433007 -0.0859805 0
-0.24332 0.0163132 0
-0.0370181 -0.0814574 0
-0.207769 0.00523031 0
-0.0300243 -0.0739166 0
-0.167262 -0.00497286 0
-0.0222932 -0.0636891 0
-0.122641 -0.0141016 0
-0.0138402 -0.0512884 0
-0.0748634 -0.0221197 0
-0.00474092 -0.0373568 0
-0.024996 -0.0291223 0
0.00485197 -0.0225995 0
0.0258003 -0.0352885 0
0.0147025 -0.00771632 0
0.0762842 -0.040825 0
0.0244983 0.00665978 0
0.125165 -0.0459116 0
0.0338701 0.0200125 0
0.171142 -0.0506557 0
0.0424198 0.0319724 0
0.212952 -0.0550614 0
0.0497432 0.0423135 0
0.249397 -0.0590172 0
0.0554421 0.0508315 0
0.27927 -0.0623187 0
0.059175 0.057241 0
0.301456 -0.0648048 0
0.0605449 0.0603699 0
0.314156 -0.06648 0
0.0602201 0.0662399 0
0.324805 -0.0682907 0
-0.444346 -0.0653011 0
-0.657938 0.0474652 0
-0.425273 -0.069873 0
-0.628573 0.0347405 0
-0.404604 -0.0738951 0
-0.599546 0.0268931 0
-0.373316 -0.0763203 0
-0.554269 0.0172671 0
-0.333132 -0.0760468 0
-0.494705 0.00705164 0
-0.285165 -0.0729072 0
-0.423237 -0.00249128 0
-0.2303 -0.0669676 0
-0.341402 -0.0109965 0
-0.169685 -0.0585152 0
-0.251079 -0.0182868 0
-0.104637 -0.0480103 0
-0.154358 -0.0243617 0
-0.0366241 -0.0360347 0
-0.0535098 -0.0293513 0
0.0327504 -0.0232318 0
0.0490477 -0.0334689 0
0.101777 -0.010247 0
0.150793 -0.0369595 0
0.168682 0.00232904 0
0.249166 -0.0400501 0
0.231686 0.0140063 0
0.341642 -0.0429073 0
0.289065 0.024429 0
0.425809 -0.0456052 0
0.339197 0.0333942 0
0.499432 -0.0481075 0
0.380504 0.0407057 0
0.560256 -0.0502629 0
0.411566 0.0460624 0
0.606182 -0.0519651 0
0.430363 0.0483889 0
0.633985 -0.0532802 0
0.444142 0.055522 0
0.659422 -0.0550685 0
-0.737324 -0.0429853 0
-0.858698 0.023234 0
-0.706479 -0.0486183 0
-0.821299 0.0119563 0
-0.674047 -0.0562032 0
-0.786933 0.00477408 0
-0.623577 -0.0623512 0
-0.728578 -0.00567596 0
-0.557159 -0.0660267 0
-0.650882 -0.0158973 0
-0.477301 -0.0669855 0
-0.55731 -0.0247667 0
-0.385707 -0.0652832 0
-0.450058 -0.0319521 0
-0.284459 -0.0611352 0
-0.331619 -0.0373916 0
-0.175885 -0.0548933 0
-0.204762 -0.0411553 0
-0.0625283 -0.0470126 0
-0.0724973 -0.0434213 0
0.0528888 -0.0380104 0
0.06198 -0.0444455 0
0.16752 -0.0284184 0
0.195359 -0.0445243 0
0.278468 -0.0187366 0
0.324294 -0.043953 0
0.382867 -0.0093983 0
0.445501 -0.0429882 0
0.477981 -0.000744041 0
0.555859 -0.0418215 0
0.56127 0.00700977 0
0.652501 -0.0405632 0
0.630211 0.0140523 0
0.732905 -0.0392191 0
0.682482 0.0194226 0
0.793256 -0.0374218 0
0.714681 0.0215146 0
0.829227 -0.0359832 0
0.742399 0.0338104 0
0.871008 -0.0362539 0
-0.893659 -0.0223623 0
-0.947391 0.00982137 0
-0.855917 -0.029146 0
-0.90553 -0.000883436 0
-0.820214 -0.0364682 0
-0.869159 -0.00809238 0
-0.759746 -0.0413229 0
-0.80396 -0.0164225 0
-0.67921 -0.0441608 0
-0.718264 -0.0227315 0
-0.582105 -0.044502 0
-0.614656 -0.027456 0
-0.470676 -0.0424626 0
-0.496004 -0.030108 0
-0.34749 -0.0383267 0
-0.365105 -0.0307776 0
-0.21541 -0.0325161 0
-0.225054 -0.0297059 0
-0.0775619 -0.0255549 0
-0.0792059 -0.0272551 0
0.062726 -0.0180218 0
0.0688982 -0.0238744 0
0.201993 -0.0104941 0
0.215614 -0.0200533 0
0.336733 -0.003495 0
0.357284 -0.0162681 0
0.463499 0.00254259 0
0.490331 -0.0129338 0
0.579007 0.00729833 0
0.611365 -0.0103723 0
0.680239 0.0105835 0
0.717283 -0.00879524 0
0.764534 0.012631 0
0.805651 -0.00829052 0
0.827969 0.013845 0
0.872549 -0.00853552 0
0.8661 0.0120422 0
0.910766 -0.00904737 0
0.908815 0.0130718 0
0.95784 -0.0118492 0
-0.963003 -0.0112243 0
-0.987472 0.00372744 0
-0.921007 -0.0169425 0
-0.94569 -0.00170943 0
-0.884166 -0.0216157 0
-0.90746 -0.00754533 0
-0.818147 -0.0246349 0
-0.839073 -0.0125141 0
-0.731316 -0.0259649 0
-0.749454 -0.0160247 0
-0.626256 -0.0256917 0
-0.641296 -0.0180415 0
-0.50584 -0.0238284 0
-0.517385 -0.0186606 0
-0.372882 -0.0205604 0
-0.380704 -0.0178988 0
-0.230511 -0.0161995 0
-0.234525 -0.015935 0
-0.0821245 -0.011145 0
-0.0823762 -0.013064 0
0.0686751 -0.00583844 0
0.0720343 -0.00965551 0
0.218173 -0.000718764 0
0.224907 -0.00611054 0
0.362632 0.00382045 0
0.372445 -0.00281738 0
0.498389 0.00747037 0
0.51095 -0.000111136 0
0.621964 0.0100388 0
0.636931 0.00176252 0
0.730172 0.0114767 0
0.747218 0.00267599 0
0.8205 0.0118375 0
0.839278 0.00264297 0
0.88895 0.0125518 0
0.910362 0.00177924 0
0.928243 0.0112473 0
0.949283 0.00157062 0
0.975798 0.00692563 0
0.994721 -0.00029229 0
-0.990723 -0.00264844 0
-0.987686 -0.00260433 0
-0.94902 -0.00508641 0
-0.945592 -0.00562253 0
-0.910872 -0.00756065 0
-0.90811 -0.00777135 0
-0.842521 -0.00855036 0
-0.839143 -0.00982355 0
-0.752879 -0.00840845 0
-0.749402 -0.0103041 0
-0.644617 -0.00723125 0
-0.641234 -0.00959563 0
-0.520497 -0.0050655 0
-0.517283 -0.00783143 0
-0.383488 -0.00207044 0
-0.380554 -0.0050942 0
-0.236851 0.00148905 0
-0.234357 -0.00157573 0
-0.0841154 0.00527749 0
-0.0822424 0.00243295 0
0.0709996 0.00892853 0
0.0720727 0.00657818 0
0.224674 0.0120844 0
0.22479 0.0104843 0
0.373082 0.0144336 0
0.372127 0.0137932 0
0.512489 0.0157457 0
0.510412 0.0162008 0
0.639362 0.0158938 0
0.636183 0.0174913 0
0.75049 0.0148591 0
0.746296 0.0175573 0
0.843296 0.0125491 0
0.838057 0.0164023 0
0.914984 0.00959196 0
0.909332 0.013961 0
0.954337 0.00624171 0
0.948499 0.0108815 0
1 0.000499322 0
0.991904 0.00744272 0
-0.978304 0.00757257 0
-0.946195 -0.00887905 0
-0.936567 0.00699789 0
-0.90653 -0.00785811 0
-0.89974 0.00732258 0
-0.870446 -0.0077112 0
-0.831675 0.00842198 0
-0.80406 -0.00624282 0
-0.743046 0.0100751 0
-0.718039 -0.00363541 0
-0.636149 0.0122348 0
-0.614388 -0.000163347 0
-0.513575 0.0148143 0
-0.495605 0.00406001 0
-0.378278 0.017649 0
-0.364582 0.00887813 0
-0.233515 0.0205014 0
-0.224506 0.0140551 0
-0.082793 0.0230863 0
-0.0787931 0.0192837 0
0.0702094 0.0251027 0
0.0689878 0.0242135 0
0.221724 0.0262667 0
0.2152 0.028485 0
0.36799 0.026343 0
0.356227 0.0317634 0
0.505348 0.0251711 0
0.488566 0.0337712 0
0.630344 0.0226841 0
0.608919 0.0343143 0
0.739834 0.0189122 0
0.714286 0.0333006 0
0.831116 0.0139587 0
0.802073 0.0307425 0
0.902049 0.00792183 0
0.870146 0.0267337 0
0.941009 0.00193575 0
0.907942 0.0213619 0
0.984329 -0.00592428 0
0.94873 0.0157636 0
-0.92448 0.0170756 0
-0.864928 -0.0148202 0
-0.885456 0.0192509 0
-0.829066 -0.0102386 0
-0.850599 0.0221886 0
-0.796068 -0.00692324 0
-0.785963 0.0252266 0
-0.735308 -0.00214779 0
-0.702162 0.028341 0
-0.656628 0.00335296 0
-0.601126 0.0314557 0
-0.561848 0.00948164 0
-0.485267 0.0344483 0
-0.453237 0.0160686 0
-0.35739 0.0371455 0
-0.333441 0.0228889 0
-0.22059 0.0393306 0
-0.20538 0.0296606 0
-0.0781945 0.0407612 0
-0.0721856 0.0360557 0
0.0663138 0.0411945 0
0.0628776 0.041722 0
0.209377 0.0404136 0
0.196485 0.0463111 0
0.347449 0.0382537 0
0.325336 0.0495079 0
0.477089 0.0346231 0
0.446235 0.0510582 0
0.595051 0.0295165 0
0.556177 0.0507912 0
0.698375 0.0230196 0
0.652423 0.0486339 0
0.784501 0.0152977 0
0.732598 0.0446158 0
0.851317 0.00658384 0
0.79474 0.0388586 0
0.888282 -0.00187307 0
0.829395 0.0315583 0
0.928672 -0.0120723 0
0.866623 0.0239458 0
-0.83172 0.0257049 0
-0.747284 -0.0201714 0
-0.796767 0.0301404 0
-0.716673 -0.0124081 0
-0.765531 0.035285 0
-0.688242 -0.00644986 0
-0.707314 0.0401028 0
-0.635716 0.00116435 0
-0.631889 0.0445608 0
-0.5677 0.00931357 0
-0.540975 0.048562 0
-0.485775 0.0178722 0
-0.436729 0.0519632 0
-0.391902 0.026625 0
-0.321674 0.0545871 0
-0.288368 0.0352966 0
-0.198603 0.0562321 0
-0.1777 0.0435668 0
-0.070515 0.0566888 0
-0.0626059 0.0510852 0
0.0594548 0.0557599 0
0.0540906 0.0574918 0
0.188106 0.0532833 0
0.169517 0.0624416 0
0.312253 0.0491528 0
0.280824 0.0656309 0
0.428808 0.0433366 0
0.385255 0.0668218 0
0.534858 0.0358877 0
0.480215 0.0658623 0
0.627745 0.0269489 0
0.563342 0.0626994 0
0.705162 0.016744 0
0.632586 0.0573849 0
0.765198 0.00556812 0
0.686241 0.050069 0
0.798442 -0.00495502 0
0.716343 0.0409864 0
0.834975 -0.0176885 0
0.748553 0.0317235 0
-0.703917 0.0331817 0
-0.598131 -0.0247038 0
-0.674451 0.0394191 0
-0.574183 -0.0141837 0
-0.648257 0.0464052 0
-0.551523 -0.00609542 0
-0.598976 0.0527353 0
-0.509451 0.00390174 0
-0.535128 0.0583507 0
-0.454954 0.0143071 0
-0.458174 0.0631196 0
-0.389328 0.0249529 0
-0.369939 0.0668824 0
-0.314138 0.0355684 0
-0.272556 0.06946 0
-0.231214 0.0458361 0
-0.16839 0.0706637 0
-0.142582 0.0554049 0
-0.0599805 0.0703096 0
-0.0504103 0.0639048 0
0.0500163 0.068237 0
0.0430383 0.0709667 0
0.158892 0.0643275 0
0.135464 0.0762459 0
0.263954 0.0585237 0
0.224585 0.0794459 0
0.362589 0.0508441 0
0.308198 0.080341 0
0.452335 0.041393 0
0.384227 0.0787947 0
0.530944 0.0303646 0
0.450781 0.0747725 0
0.596461 0.0180333 0
0.506222 0.0683482 0
0.64726 0.00473809 0
0.549171 0.0596969 0
0.675438 -0.00757207 0
0.573486 0.0490779 0
0.706691 -0.0225402 0
0.599372 0.0383856 0
-0.546371 0.0390332 0
-0.42383 -0.0282252 0
-0.523764 0.0466541 0
-0.407594 -0.0156446 0
-0.503732 0.0551067 0
-0.391623 -0.0059129 0
-0.465485 0.0626547 0
-0.361772 0.0059774 0
-0.415909 0.0691967 0
-0.323089 0.0181863 0
-0.356166 0.0745823 0
-0.27652 0.0304913 0
-0.287663 0.0786398 0
-0.223172 0.0425867 0
-0.212053 0.0811907 0
-0.16434 0.0541227 0
-0.131169 0.0820567 0
-0.101459 0.0647256 0
-0.0469839 0.0810737 0
-0.0360703 0.0740101 0
0.0384403 0.0781082 0
0.030221 0.0815996 0
0.123001 0.0730756 0
0.0957834 0.0871483 0
0.204605 0.0659558 0
0.159 0.0903642 0
0.281226 0.0568071 0
0.218307 0.0910305 0
0.350949 0.0457744 0
0.272236 0.0890228 0
0.412028 0.0330922 0
0.319448 0.0843216 0
0.462944 0.0190757 0
0.358781 0.0770177 0
0.502417 0.00405936 0
0.389201 0.067307 0
0.524381 -0.00966006 0
0.40678 0.0554295 0
0.549094 -0.026426 0
0.425263 0.0436129 0
-0.365805 0.0417083 0
-0.233134 -0.0305814 0
-0.351056 0.0503566 0
-0.223835 -0.0180197 0
-0.338005 0.0596167 0
-0.215478 -0.00708477 0
-0.312406 0.0678136 0
-0.199072 0.00590181 0
-0.279204 0.0748112 0
-0.177814 0.0191605 0
-0.239197 0.0804638 0
-0.152229 0.032425 0
-0.193318 0.0846081 0
-0.122919 0.045382 0
-0.142664 0.0870726 0
-0.0905939 0.057676 0
-0.0884615 0.0876901 0
-0.0560461 0.0689243 0
-0.0320297 0.0863115 0
-0.0201229 0.078735 0
0.0252497 0.0828225 0
0.0162927 0.0867276 0
0.0819667 0.07716 0
0.0523044 0.0925557 0
0.136717 0.069327 0
0.0870251 0.095929 0
0.18814 0.0594054 0
0.119598 0.0966338 0
0.23495 0.0475632 0
0.149218 0.0945505 0
0.27597 0.0340538 0
0.175149 0.0896649 0
0.310181 0.0192137 0
0.19676 0.0820707 0
0.336661 0.00345344 0
0.213458 0.0719704 0
0.35157 -0.0112441 0
0.223166 0.0596716 0
0.368712 -0.029186 0
0.233555 0.0470732 0
-0.171242 0.0449424 0
-0.031663 -0.031663 0
-0.163519 0.0537896 0
-0.0309911 -0.0173594 0
-0.158254 0.0643143 0
-0.0295475 -0.00614578 0
-0.146359 0.0735685 0
-0.027369 0.00824623 0
-0.130925 0.0814249 0
-0.0245079 0.0227616 0
-0.112317 0.08775 0
-0.021042 0.0371374 0
-0.0909546 0.0923752 0
-0.017063 0.0510664 0
-0.0673412 0.0951226 0
-0.0126749 0.0641806 0
-0.0420438 0.0958212 0
-0.00799053 0.0760827 0
-0.0156757 0.0943224 0
-0.00312886 0.0863681 0
0.0111186 0.0905166 0
0.00178849 0.0946471 0
0.0376795 0.0843501 0
0.00664034 0.100568 0
0.0633482 0.0758398 0
0.0113089 0.10384 0
0.0874838 0.0650852 0
0.0156826 0.104253 0
0.109479 0.0522765 0
0.0196583 0.101695 0
0.128775 0.0376993 0
0.0231435 0.0961646 0
0.144892 0.0217159 0
0.0260583 0.0877803 0
0.157361 0.00482434 0
0.0283372 0.0767638 0
0.164194 -0.0107441 0
0.0299292 0.0635008 0
0.173137 -0.0307064 0
0.0307926 0.0501392 0
