# vtk DataFile Version 3.0
tp3485 cell-vector
ASCII
DATASET UNSTRUCTURED_GRID
POINTS 441 double
0 0 0
0.05 0 0
0.1 0 0
0.15 0 0
0.2 0 0
0.25 0 0
0.3 0 0
0.35 0 0
0.4 0 0
0.45 0 0
0.5 0 0
0.55 0 0
0.6 0 0
0.65 0 0
0.7 0 0
0.75 0 0
0.8 0 0
0.85 0 0
0.9 0 0
0.95 0 0
1 0 0
0 0.05 0
0.05 0.05 0
0.1 0.05 0
0.15 0.05 0
0.2 0.05 0
0.25 0.05 0
0.3 0.05 0
0.35 0.05 0
0.4 0.05 0
0.45 0.05 0
0.5 0.05 0
0.55 0.05 0
0.6 0.05 0
0.65 0.05 0
0.7 0.05 0
0.75 0.05 0
0.8 0.05 0
0.85 0.05 0
0.9 0.05 0
0.95 0.05 0
1 0.05 0
0 0.1 0
0.05 0.1 0
0.1 0.1 0
0.15 0.1 0
0.2 0.1 0
0.25 0.1 0
0.3 0.1 0
0.35 0.1 0
0.4 0.1 0
0.45 0.1 0
0.5 0.1 0
0.55 0.1 0
0.6 0.1 0
0.65 0.1 0
0.7 0.1 0
0.75 0.1 0
0.8 0.1 0
0.85 0.1 0
0.9 0.1 0
0.95 0.1 0
1 0.1 0
0 0.15 0
0.05 0.15 0
0.1 0.15 0
0.15 0.15 0
0.2 0.15 0
0.25 0.15 0
0.3 0.15 0
0.35 0.15 0
0.4 0.15 0
0.45 0.15 0
0.5 0.15 0
0.55 0.15 0
0.6 0.15 0
0.65 0.15 0
0.7 0.15 0
0.75 0.15 0
0.8 0.15 0
0.85 0.15 0
0.9 0.15 0
0.95 0.15 0
1 0.15 0
0 0.2 0
0.05 0.2 0
0.1 0.2 0
0.15 0.2 0
0.2 0.2 0
0.25 0.2 0
0.3 0.2 0
0.35 0.2 0
0.4 0.2 0
0.45 0.2 0
0.5 0.2 0
0.55 0.2 0
0.6 0.2 0
0.65 0.2 0
0.7 0.2 0
0.75 0.2 0
0.8 0.2 0
0.85 0.2 0
0.9 0.2 0
0.95 0.2 0
1 0.2 0
0 0.25 0
0.05 0.25 0
0.1 0.25 0
0.15 0.25 0
0.2 0.25 0
0.25 0.25 0
0.3 0.25 0
0.35 0.25 0
0.4 0.25 0
0.45 0.25 0
0.5 0.25 0
0.55 0.25 0
0.6 0.25 0
0.65 0.25 0
0.7 0.25 0
0.75 0.25 0
0.8 0.25 0
0.85 0.25 0
0.9 0.25 0
0.95 0.25 0
1 0.25 0
0 0.3 0
0.05 0.3 0
0.1 0.3 0
0.15 0.3 0
0.2 0.3 0
0.25 0.3 0
0.3 0.3 0
0.35 0.3 0
0.4 0.3 0
0.45 0.3 0
0.5 0.3 0
0.55 0.3 0
0.6 0.3 0
0.65 0.3 0
0.7 0.3 0
0.75 0.3 0
0.8 0.3 0
0.85 0.3 0
0.9 0.3 0
0.95 0.3 0
1 0.3 0
0 0.35 0
0.05 0.35 0
0.1 0.35 0
0.15 0.35 0
0.2 0.35 0
0.25 0.35 0
0.3 0.35 0
0.35 0.35 0
0.4 0.35 0
0.45 0.35 0
0.5 0.35 0
0.55 0.35 0
0.6 0.35 0
0.65 0.35 0
0.7 0.35 0
0.75 0.35 0
0.8 0.35 0
0.85 0.35 0
0.9 0.35 0
0.95 0.35 0
1 0.35 0
0 0.4 0
0.05 0.4 0
0.1 0.4 0
0.15 0.4 0
0.2 0.4 0
0.25 0.4 0
0.3 0.4 0
0.35 0.4 0
0.4 0.4 0
0.45 0.4 0
0.5 0.4 0
0.55 0.4 0
0.6 0.4 0
0.65 0.4 0
0.7 0.4 0
0.75 0.4 0
0.8 0.4 0
0.85 0.4 0
0.9 0.4 0
0.95 0.4 0
1 0.4 0
0 0.45 0
0.05 0.45 0
0.1 0.45 0
0.15 0.45 0
0.2 0.45 0
0.25 0.45 0
0.3 0.45 0
0.35 0.45 0
0.4 0.45 0
0.45 0.45 0
0.5 0.45 0
0.55 0.45 0
0.6 0.45 0
0.65 0.45 0
0.7 0.45 0
0.75 0.45 0
0.8 0.45 0
0.85 0.45 0
0.9 0.45 0
0.95 0.45 0
1 0.45 0
0 0.5 0
0.05 0.5 0
0.1 0.5 0
0.15 0.5 0
0.2 0.5 0
0.25 0.5 0
0.3 0.5 0
0.35 0.5 0
0.4 0.5 0
0.45 0.5 0
0.5 0.5 0
0.55 0.5 0
0.6 0.5 0
0.65 0.5 0
0.7 0.5 0
0.75 0.5 0
0.8 0.5 0
0.85 0.5 0
0.9 0.5 0
0.95 0.5 0
1 0.5 0
0 0.55 0
0.05 0.55 0
0.1 0.55 0
0.15 0.55 0
0.2 0.55 0
0.25 0.55 0
0.3 0.55 0
0.35 0.55 0
0.4 0.55 0
0.45 0.55 0
0.5 0.55 0
0.55 0.55 0
0.6 0.55 0
0.65 0.55 0
0.7 0.55 0
0.75 0.55 0
0.8 0.55 0
0.85 0.55 0
0.9 0.55 0
0.95 0.55 0
1 0.55 0
0 0.6 0
0.05 0.6 0
0.1 0.6 0
0.15 0.6 0
0.2 0.6 0
0.25 0.6 0
0.3 0.6 0
0.35 0.6 0
0.4 0.6 0
0.45 0.6 0
0.5 0.6 0
0.55 0.6 0
0.6 0.6 0
0.65 0.6 0
0.7 0.6 0
0.75 0.6 0
0.8 0.6 0
0.85 0.6 0
0.9 0.6 0
0.95 0.6 0
1 0.6 0
0 0.65 0
0.05 0.65 0
0.1 0.65 0
0.15 0.65 0
0.2 0.65 0
0.25 0.65 0
0.3 0.65 0
0.35 0.65 0
0.4 0.65 0
0.45 0.65 0
0.5 0.65 0
0.55 0.65 0
0.6 0.65 0
0.65 0.65 0
0.7 0.65 0
0.75 0.65 0
0.8 0.65 0
0.85 0.65 0
0.9 0.65 0
0.95 0.65 0
1 0.65 0
0 0.7 0
0.05 0.7 0
0.1 0.7 0
0.15 0.7 0
0.2 0.7 0
0.25 0.7 0
0.3 0.7 0
0.35 0.7 0
0.4 0.7 0
0.45 0.7 0
0.5 0.7 0
0.55 0.7 0
0.6 0.7 0
0.65 0.7 0
0.7 0.7 0
0.75 0.7 0
0.8 0.7 0
0.85 0.7 0
0.9 0.7 0
0.95 0.7 0
1 0.7 0
0 0.75 0
0.05 0.75 0
0.1 0.75 0
0.15 0.75 0
0.2 0.75 0
0.25 0.75 0
0.3 0.75 0
0.35 0.75 0
0.4 0.75 0
0.45 0.75 0
0.5 0.75 0
0.55 0.75 0
0.6 0.75 0
0.65 0.75 0
0.7 0.75 0
0.75 0.75 0
0.8 0.75 0
0.85 0.75 0
0.9 0.75 0
0.95 0.75 0
1 0.75 0
0 0.8 0
0.05 0.8 0
0.1 0.8 0
0.15 0.8 0
0.2 0.8 0
0.25 0.8 0
0.3 0.8 0
0.35 0.8 0
0.4 0.8 0
0.45 0.8 0
0.5 0.8 0
0.55 0.8 0
0.6 0.8 0
0.65 0.8 0
0.7 0.8 0
0.75 0.8 0
0.8 0.8 0
0.85 0.8 0
0.9 0.8 0
0.95 0.8 0
1 0.8 0
0 0.85 0
0.05 0.85 0
0.1 0.85 0
0.15 0.85 0
0.2 0.85 0
0.25 0.85 0
0.3 0.85 0
0.35 0.85 0
0.4 0.85 0
0.45 0.85 0
0.5 0.85 0
0.55 0.85 0
0.6 0.85 0
0.65 0.85 0
0.7 0.85 0
0.75 0.85 0
0.8 0.85 0
0.85 0.85 0
0.9 0.85 0
0.95 0.85 0
1 0.85 0
0 0.9 0
0.05 0.9 0
0.1 0.9 0
0.15 0.9 0
0.2 0.9 0
0.25 0.9 0
0.3 0.9 0
0.35 0.9 0
0.4 0.9 0
0.45 0.9 0
0.5 0.9 0
0.55 0.9 0
0.6 0.9 0
0.65 0.9 0
0.7 0.9 0
0.75 0.9 0
0.8 0.9 0
0.85 0.9 0
0.9 0.9 0
0.95 0.9 0
1 0.9 0
0 0.95 0
0.05 0.95 0
0.1 0.95 0
0.15 0.95 0
0.2 0.95 0
0.25 0.95 0
0.3 0.95 0
0.35 0.95 0
0.4 0.95 0
0.45 0.95 0
0.5 0.95 0
0.55 0.95 0
0.6 0.95 0
0.65 0.95 0
0.7 0.95 0
0.75 0.95 0
0.8 0.95 0
0.85 0.95 0
0.9 0.95 0
0.95 0.95 0
1 0.95 0
0 1 0
0.05 1 0
0.1 1 0
0.15 1 0
0.2 1 0
0.25 1 0
0.3 1 0
0.35 1 0
0.4 1 0
0.45 1 0
0.5 1 0
0.55 1 0
0.6 1 0
0.65 1 0
0.7 1 0
0.75 1 0
0.8 1 0
0.85 1 0
0.9 1 0
0.95 1 0
1 1 0
CELLS 800 3200
3 0 1 22
3 0 22 21
3 1 2 23
3 1 23 22
3 2 3 24
3 2 24 23
3 3 4 25
3 3 25 24
3 4 5 26
3 4 26 25
3 5 6 27
3 5 27 26
3 6 7 28
3 6 28 27
3 7 8 29
3 7 29 28
3 8 9 30
3 8 30 29
3 9 10 31
3 9 31 30
3 10 11 32
3 10 32 31
3 11 12 33
3 11 33 32
3 12 13 34
3 12 34 33
3 13 14 35
3 13 35 34
3 14 15 36
3 14 36 35
3 15 16 37
3 15 37 36
3 16 17 38
3 16 38 37
3 17 18 39
3 17 39 38
3 18 19 40
3 18 40 39
3 19 20 41
3 19 41 40
3 21 22 43
3 21 43 42
3 22 23 44
3 22 44 43
3 23 24 45
3 23 45 44
3 24 25 46
3 24 46 45
3 25 26 47
3 25 47 46
3 26 27 48
3 26 48 47
3 27 28 49
3 27 49 48
3 28 29 50
3 28 50 49
3 29 30 51
3 29 51 50
3 30 31 52
3 30 52 51
3 31 32 53
3 31 53 52
3 32 33 54
3 32 54 53
3 33 34 55
3 33 55 54
3 34 35 56
3 34 56 55
3 35 36 57
3 35 57 56
3 36 37 58
3 36 58 57
3 37 38 59
3 37 59 58
3 38 39 60
3 38 60 59
3 39 40 61
3 39 61 60
3 40 41 62
3 40 62 61
3 42 43 64
3 42 64 63
3 43 44 65
3 43 65 64
3 44 45 66
3 44 66 65
3 45 46 67
3 45 67 66
3 46 47 68
3 46 68 67
3 47 48 69
3 47 69 68
3 48 49 70
3 48 70 69
3 49 50 71
3 49 71 70
3 50 51 72
3 50 72 71
3 51 52 73
3 51 73 72
3 52 53 74
3 52 74 73
3 53 54 75
3 53 75 74
3 54 55 76
3 54 76 75
3 55 56 77
3 55 77 76
3 56 57 78
3 56 78 77
3 57 58 79
3 57 79 78
3 58 59 80
3 58 80 79
3 59 60 81
3 59 81 80
3 60 61 82
3 60 82 81
3 61 62 83
3 61 83 82
3 63 64 85
3 63 85 84
3 64 65 86
3 64 86 85
3 65 66 87
3 65 87 86
3 66 67 88
3 66 88 87
3 67 68 89
3 67 89 88
3 68 69 90
3 68 90 89
3 69 70 91
3 69 91 90
3 70 71 92
3 70 92 91
3 71 72 93
3 71 93 92
3 72 73 94
3 72 94 93
3 73 74 95
3 73 95 94
3 74 75 96
3 74 96 95
3 75 76 97
3 75 97 96
3 76 77 98
3 76 98 97
3 77 78 99
3 77 99 98
3 78 79 100
3 78 100 99
3 79 80 101
3 79 101 100
3 80 81 102
3 80 102 101
3 81 82 103
3 81 103 102
3 82 83 104
3 82 104 103
3 84 85 106
3 84 106 105
3 85 86 107
3 85 107 106
3 86 87 108
3 86 108 107
3 87 88 109
3 87 109 108
3 88 89 110
3 88 110 109
3 89 90 111
3 89 111 110
3 90 91 112
3 90 112 111
3 91 92 113
3 91 113 112
3 92 93 114
3 92 114 113
3 93 94 115
3 93 115 114
3 94 95 116
3 94 116 115
3 95 96 117
3 95 117 116
3 96 97 118
3 96 118 117
3 97 98 119
3 97 119 118
3 98 99 120
3 98 120 119
3 99 100 121
3 99 121 120
3 100 101 122
3 100 122 121
3 101 102 123
3 101 123 122
3 102 103 124
3 102 124 123
3 103 104 125
3 103 125 124
3 105 106 127
3 105 127 126
3 106 107 128
3 106 128 127
3 107 108 129
3 107 129 128
3 108 109 130
3 108 130 129
3 109 110 131
3 109 131 130
3 110 111 132
3 110 132 131
3 111 112 133
3 111 133 132
3 112 113 134
3 112 134 133
3 113 114 135
3 113 135 134
3 114 115 136
3 114 136 135
3 115 116 137
3 115 137 136
3 116 117 138
3 116 138 137
3 117 118 139
3 117 139 138
3 118 119 140
3 118 140 139
3 119 120 141
3 119 141 140
3 120 121 142
3 120 142 141
3 121 122 143
3 121 143 142
3 122 123 144
3 122 144 143
3 123 124 145
3 123 145 144
3 124 125 146
3 124 146 145
3 126 127 148
3 126 148 147
3 127 128 149
3 127 149 148
3 128 129 150
3 128 150 149
3 129 130 151
3 129 151 150
3 130 131 152
3 130 152 151
3 131 132 153
3 131 153 152
3 132 133 154
3 132 154 153
3 133 134 155
3 133 155 154
3 134 135 156
3 134 156 155
3 135 136 157
3 135 157 156
3 136 137 158
3 136 158 157
3 137 138 159
3 137 159 158
3 138 139 160
3 138 160 159
3 139 140 161
3 139 161 160
3 140 141 162
3 140 162 161
3 141 142 163
3 141 163 162
3 142 143 164
3 142 164 163
3 143 144 165
3 143 165 164
3 144 145 166
3 144 166 165
3 145 146 167
3 145 167 166
3 147 148 169
3 147 169 168
3 148 149 170
3 148 170 169
3 149 150 171
3 149 171 170
3 150 151 172
3 150 172 171
3 151 152 173
3 151 173 172
3 152 153 174
3 152 174 173
3 153 154 175
3 153 175 174
3 154 155 176
3 154 176 175
3 155 156 177
3 155 177 176
3 156 157 178
3 156 178 177
3 157 158 179
3 157 179 178
3 158 159 180
3 158 180 179
3 159 160 181
3 159 181 180
3 160 161 182
3 160 182 181
3 161 162 183
3 161 183 182
3 162 163 184
3 162 184 183
3 163 164 185
3 163 185 184
3 164 165 186
3 164 186 185
3 165 166 187
3 165 187 186
3 166 167 188
3 166 188 187
3 168 169 190
3 168 190 189
3 169 170 191
3 169 191 190
3 170 171 192
3 170 192 191
3 171 172 193
3 171 193 192
3 172 173 194
3 172 194 193
3 173 174 195
3 173 195 194
3 174 175 196
3 174 196 195
3 175 176 197
3 175 197 196
3 176 177 198
3 176 198 197
3 177 178 199
3 177 199 198
3 178 179 200
3 178 200 199
3 179 180 201
3 179 201 200
3 180 181 202
3 180 202 201
3 181 182 203
3 181 203 202
3 182 183 204
3 182 204 203
3 183 184 205
3 183 205 204
3 184 185 206
3 184 206 205
3 185 186 207
3 185 207 206
3 186 187 208
3 186 208 207
3 187 188 209
3 187 209 208
3 189 190 211
3 189 211 210
3 190 191 212
3 190 212 211
3 191 192 213
3 191 213 212
3 192 193 214
3 192 214 213
3 193 194 215
3 193 215 214
3 194 195 216
3 194 216 215
3 195 196 217
3 195 217 216
3 196 197 218
3 196 218 217
3 197 198 219
3 197 219 218
3 198 199 220
3 198 220 219
3 199 200 221
3 199 221 220
3 200 201 222
3 200 222 221
3 201 202 223
3 201 223 222
3 202 203 224
3 202 224 223
3 203 204 225
3 203 225 224
3 204 205 226
3 204 226 225
3 205 206 227
3 205 227 226
3 206 207 228
3 206 228 227
3 207 208 229
3 207 229 228
3 208 209 230
3 208 230 229
3 210 211 232
3 210 232 231
3 211 212 233
3 211 233 232
3 212 213 234
3 212 234 233
3 213 214 235
3 213 235 234
3 214 215 236
3 214 236 235
3 215 216 237
3 215 237 236
3 216 217 238
3 216 238 237
3 217 218 239
3 217 239 238
3 218 219 240
3 218 240 239
3 219 220 241
3 219 241 240
3 220 221 242
3 220 242 241
3 221 222 243
3 221 243 242
3 222 223 244
3 222 244 243
3 223 224 245
3 223 245 244
3 224 225 246
3 224 246 245
3 225 226 247
3 225 247 246
3 226 227 248
3 226 248 247
3 227 228 249
3 227 249 248
3 228 229 250
3 228 250 249
3 229 230 251
3 229 251 250
3 231 232 253
3 231 253 252
3 232 233 254
3 232 254 253
3 233 234 255
3 233 255 254
3 234 235 256
3 234 256 255
3 235 236 257
3 235 257 256
3 236 237 258
3 236 258 257
3 237 238 259
3 237 259 258
3 238 239 260
3 238 260 259
3 239 240 261
3 239 261 260
3 240 241 262
3 240 262 261
3 241 242 263
3 241 263 262
3 242 243 264
3 242 264 263
3 243 244 265
3 243 265 264
3 244 245 266
3 244 266 265
3 245 246 267
3 245 267 266
3 246 247 268
3 246 268 267
3 247 248 269
3 247 269 268
3 248 249 270
3 248 270 269
3 249 250 271
3 249 271 270
3 250 251 272
3 250 272 271
3 252 253 274
3 252 274 273
3 253 254 275
3 253 275 274
3 254 255 276
3 254 276 275
3 255 256 277
3 255 277 276
3 256 257 278
3 256 278 277
3 257 258 279
3 257 279 278
3 258 259 280
3 258 280 279
3 259 260 281
3 259 281 280
3 260 261 282
3 260 282 281
3 261 262 283
3 261 283 282
3 262 263 284
3 262 284 283
3 263 264 285
3 263 285 284
3 264 265 286
3 264 286 285
3 265 266 287
3 265 287 286
3 266 267 288
3 266 288 287
3 267 268 289
3 267 289 288
3 268 269 290
3 268 290 289
3 269 270 291
3 269 291 290
3 270 271 292
3 270 292 291
3 271 272 293
3 271 293 292
3 273 274 295
3 273 295 294
3 274 275 296
3 274 296 295
3 275 276 297
3 275 297 296
3 276 277 298
3 276 298 297
3 277 278 299
3 277 299 298
3 278 279 300
3 278 300 299
3 279 280 301
3 279 301 300
3 280 281 302
3 280 302 301
3 281 282 303
3 281 303 302
3 282 283 304
3 282 304 303
3 283 284 305
3 283 305 304
3 284 285 306
3 284 306 305
3 285 286 307
3 285 307 306
3 286 287 308
3 286 308 307
3 287 288 309
3 287 309 308
3 288 289 310
3 288 310 309
3 289 290 311
3 289 311 310
3 290 291 312
3 290 312 311
3 291 292 313
3 291 313 312
3 292 293 314
3 292 314 313
3 294 295 316
3 294 316 315
3 295 296 317
3 295 317 316
3 296 297 318
3 296 318 317
3 297 298 319
3 297 319 318
3 298 299 320
3 298 320 319
3 299 300 321
3 299 321 320
3 300 301 322
3 300 322 321
3 301 302 323
3 301 323 322
3 302 303 324
3 302 324 323
3 303 304 325
3 303 325 324
3 304 305 326
3 304 326 325
3 305 306 327
3 305 327 326
3 306 307 328
3 306 328 327
3 307 308 329
3 307 329 328
3 308 309 330
3 308 330 329
3 309 310 331
3 309 331 330
3 310 311 332
3 310 332 331
3 311 312 333
3 311 333 332
3 312 313 334
3 312 334 333
3 313 314 335
3 313 335 334
3 315 316 337
3 315 337 336
3 316 317 338
3 316 338 337
3 317 318 339
3 317 339 338
3 318 319 340
3 318 340 339
3 319 320 341
3 319 341 340
3 320 321 342
3 320 342 341
3 321 322 343
3 321 343 342
3 322 323 344
3 322 344 343
3 323 324 345
3 323 345 344
3 324 325 346
3 324 346 345
3 325 326 347
3 325 347 346
3 326 327 348
3 326 348 347
3 327 328 349
3 327 349 348
3 328 329 350
3 328 350 349
3 329 330 351
3 329 351 350
3 330 331 352
3 330 352 351
3 331 332 353
3 331 353 352
3 332 333 354
3 332 354 353
3 333 334 355
3 333 355 354
3 334 335 356
3 334 356 355
3 336 337 358
3 336 358 357
3 337 338 359
3 337 359 358
3 338 339 360
3 338 360 359
3 339 340 361
3 339 361 360
3 340 341 362
3 340 362 361
3 341 342 363
3 341 363 362
3 342 343 364
3 342 364 363
3 343 344 365
3 343 365 364
3 344 345 366
3 344 366 365
3 345 346 367
3 345 367 366
3 346 347 368
3 346 368 367
3 347 348 369
3 347 369 368
3 348 349 370
3 348 370 369
3 349 350 371
3 349 371 370
3 350 351 372
3 350 372 371
3 351 352 373
3 351 373 372
3 352 353 374
3 352 374 373
3 353 354 375
3 353 375 374
3 354 355 376
3 354 376 375
3 355 356 377
3 355 377 376
3 357 358 379
3 357 379 378
3 358 359 380
3 358 380 379
3 359 360 381
3 359 381 380
3 360 361 382
3 360 382 381
3 361 362 383
3 361 383 382
3 362 363 384
3 362 384 383
3 363 364 385
3 363 385 384
3 364 365 386
3 364 386 385
3 365 366 387
3 365 387 386
3 366 367 388
3 366 388 387
3 367 368 389
3 367 389 388
3 368 369 390
3 368 390 389
3 369 370 391
3 369 391 390
3 370 371 392
3 370 392 391
3 371 372 393
3 371 393 392
3 372 373 394
3 372 394 393
3 373 374 395
3 373 395 394
3 374 375 396
3 374 396 395
3 375 376 397
3 375 397 396
3 376 377 398
3 376 398 397
3 378 379 400
3 378 400 399
3 379 380 401
3 379 401 400
3 380 381 402
3 380 402 401
3 381 382 403
3 381 403 402
3 382 383 404
3 382 404 403
3 383 384 405
3 383 405 404
3 384 385 406
3 384 406 405
3 385 386 407
3 385 407 406
3 386 387 408
3 386 408 407
3 387 388 409
3 387 409 408
3 388 389 410
3 388 410 409
3 389 390 411
3 389 411 410
3 390 391 412
3 390 412 411
3 391 392 413
3 391 413 412
3 392 393 414
3 392 414 413
3 393 394 415
3 393 415 414
3 394 395 416
3 394 416 415
3 395 396 417
3 395 417 416
3 396 397 418
3 396 418 417
3 397 398 419
3 397 419 418
3 399 400 421
3 399 421 420
3 400 401 422
3 400 422 421
3 401 402 423
3 401 423 422
3 402 403 424
3 402 424 423
3 403 404 425
3 403 425 424
3 404 405 426
3 404 426 425
3 405 406 427
3 405 427 426
3 406 407 428
3 406 428 427
3 407 408 429
3 407 429 428
3 408 409 430
3 408 430 429
3 409 410 431
3 409 431 430
3 410 411 432
3 410 432 431
3 411 412 433
3 411 433 432
3 412 413 434
3 412 434 433
3 413 414 435
3 413 435 434
3 414 415 436
3 414 436 435
3 415 416 437
3 415 437 436
3 416 417 438
3 416 438 437
3 417 418 439
3 417 439 438
3 418 419 440
3 418 440 439
CELL_TYPES 800
5
5
5
5
5
5
5
5
5
5
5
5
5
5
5
5
5
5
5
5
5
5
5
5
5
5
5
5
5
5
5
5
5
5
5
5
5
5
5
5
5
5
5
5
5
5
5
5
5
5
5
5
5
5
5
5
5
5
5
5
5
5
5
5
5
5
5
5
5
5
5
5
5
5
5
5
5
5
5
5
5
5
5
5
5
5
5
5
5
5
5
5
5
5
5
5
5
5
5
5
5
5
5
5
5
5
5
5
5
5
5
5
5
5
5
5
5
5
5
5
5
5
5
5
5
5
5
5
5
5
5
5
5
5
5
5
5
5
5
5
5
5
5
5
5
5
5
5
5
5
5
5
5
5
5
5
5
5
5
5
5
5
5
5
5
5
5
5
5
5
5
5
5
5
5
5
5
5
5
5
5
5
5
5
5
5
5
5
5
5
5
5
5
5
5
5
5
5
5
5
5
5
5
5
5
5
5
5
5
5
5
5
5
5
5
5
5
5
5
5
5
5
5
5
5
5
5
5
5
5
5
5
5
5
5
5
5
5
5
5
5
5
5
5
5
5
5
5
5
5
5
5
5
5
5
5
5
5
5
5
5
5
5
5
5
5
5
5
5
5
5
5
5
5
5
5
5
5
5
5
5
5
5
5
5
5
5
5
5
5
5
5
5
5
5
5
5
5
5
5
5
5
5
5
5
5
5
5
5
5
5
5
5
5
5
5
5
5
5
5
5
5
5
5
5
5
5
5
5
5
5
5
5
5
5
5
5
5
5
5
5
5
5
5
5
5
5
5
5
5
5
5
5
5
5
5
5
5
5
5
5
5
5
5
5
5
5
5
5
5
5
5
5
5
5
5
5
5
5
5
5
5
5
5
5
5
5
5
5
5
5
5
5
5
5
5
5
5
5
5
5
5
5
5
5
5
5
5
5
5
5
5
5
5
5
5
5
5
5
5
5
5
5
5
5
5
5
5
5
5
5
5
5
5
5
5
5
5
5
5
5
5
5
5
5
5
5
5
5
5
5
5
5
5
5
5
5
5
5
5
5
5
5
5
5
5
5
5
5
5
5
5
5
5
5
5
5
5
5
5
5
5
5
5
5
5
5
5
5
5
5
5
5
5
5
5
5
5
5
5
5
5
5
5
5
5
5
5
5
5
5
5
5
5
5
5
5
5
5
5
5
5
5
5
5
5
5
5
5
5
5
5
5
5
5
5
5
5
5
5
5
5
5
5
5
5
5
5
5
5
5
5
5
5
5
5
5
5
5
5
5
5
5
5
5
5
5
5
5
5
5
5
5
5
5
5
5
5
5
5
5
5
5
5
5
5
5
5
5
5
5
5
5
5
5
5
5
5
5
5
5
5
5
5
5
5
5
5
5
5
5
5
5
5
5
5
5
5
5
5
5
5
5
5
5
5
5
5
5
5
5
5
5
5
5
5
5
5
5
5
5
5
5
5
5
5
5
5
5
5
5
5
5
5
5
5
5
5
5
5
5
5
5
5
5
5
5
5
5
5
5
5
5
5
5
5
5
5
5
5
5
5
5
5
5
5
5
5
5
5
5
5
5
5
5
5
5
5
5
5
5
5
5
5
5
5
5
5
5
5
5
5
5
5
5
5
5
5
5
5
5
5
5
5
5
5
5
5
5
5
5
5
5
5
5
5
5
5
5
5
5
5
5
5
5
5
5
5
5
5
5
5
5
5
5
5
5
5
5
5
5
5
5
5
5
5
5
5
5
5
5
5
5
5
5
5
5
5
5
5
5
5
5
5
5
5
5
5
5
5
5
5
5
5
5
5
5
5
5
5
CELL_DATA 800
VECTORS Et double
0.0224224 -0.04387 0
0.0445448 -0.021785 0
0.0218112 -0.109715 0
0.0429684 -0.0876769 0
0.0206636 -0.173123 0
0.0406373 -0.15198 0
0.0190009 -0.232545 0
0.0372655 -0.212798 0
0.0168579 -0.286421 0
0.0330225 -0.268637 0
0.0142877 -0.333346 0
0.0279825 -0.318016 0
0.0113561 -0.372094 0
0.022273 -0.359644 0
0.00813981 -0.401664 0
0.0160287 -0.392432 0
0.00472257 -0.421307 0
0.00940061 -0.415533 0
0.00119241 -0.430541 0
0.00255008 -0.428368 0
-0.00236174 -0.429157 0
-0.0043562 -0.430629 0
-0.00585278 -0.417209 0
-0.0111501 -0.42228 0
-0.00919741 -0.395006 0
-0.0176659 -0.403546 0
-0.0123176 -0.363089 0
-0.0237441 -0.374894 0
-0.0151413 -0.322214 0
-0.029234 -0.337017 0
-0.0176033 -0.27333 0
-0.0339949 -0.290807 0
-0.0196451 -0.21756 0
-0.0379011 -0.237338 0
-0.0212177 -0.156208 0
-0.0408734 -0.177843 0
-0.0222702 -0.0908945 0
-0.0429752 -0.113725 0
-0.0227426 -0.0227426 0
-0.0434604 -0.0466958 0
0.0852837 -0.0341871 0
0.104092 -0.0170206 0
0.0828054 -0.0869163 0
0.100939 -0.069869 0
0.0785843 -0.137686 0
0.09578 -0.121378 0
0.0723668 -0.185285 0
0.0881274 -0.170067 0
0.0643919 -0.228454 0
0.0783666 -0.214763 0
0.0548229 -0.266054 0
0.0666925 -0.254277 0
0.0439035 -0.297102 0
0.0533899 -0.287563 0
0.0319054 -0.320795 0
0.0387874 -0.313752 0
0.0191311 -0.336536 0
0.0232465 -0.33217 0
0.00590153 -0.343948 0
0.00715143 -0.342361 0
-0.00745478 -0.342873 0
-0.00910227 -0.34409 0
-0.0206108 -0.333366 0
-0.0251177 -0.337342 0
-0.033249 -0.315683 0
-0.0405062 -0.322309 0
-0.0450672 -0.290261 0
-0.054895 -0.299376 0
-0.0557834 -0.257707 0
-0.0679353 -0.269102 0
-0.0651375 -0.218781 0
-0.0793073 -0.2322 0
-0.0728962 -0.174388 0
-0.0887329 -0.189531 0
-0.078886 -0.125591 0
-0.0960227 -0.142088 0
-0.0830723 -0.0732548 0
-0.100775 -0.0910172 0
-0.0846372 -0.0192483 0
-0.103049 -0.0372542 0
0.13309 -0.0201456 0
0.143123 -0.00910033 0
0.129356 -0.0519595 0
0.139162 -0.0410992 0
0.12289 -0.0827321 0
0.132138 -0.072265 0
0.113237 -0.111572 0
0.121778 -0.101861 0
0.100831 -0.13773 0
0.108429 -0.129022 0
0.0859328 -0.1605 0
0.0924092 -0.153044 0
0.0689127 -0.179269 0
0.0741174 -0.173277 0
0.0502009 -0.193547 0
0.0540125 -0.189181 0
0.030271 -0.202981 0
0.0325981 -0.200347 0
0.00962392 -0.207359 0
0.0104075 -0.20651 0
-0.0112277 -0.206612 0
-0.0120121 -0.207545 0
-0.0317735 -0.2008 0
-0.0341129 -0.203468 0
-0.0515181 -0.1901 0
-0.0553606 -0.19442 0
-0.0699905 -0.174791 0
-0.0752445 -0.180649 0
-0.0867517 -0.15524 0
-0.0932881 -0.162499 0
-0.101401 -0.131896 0
-0.109057 -0.140398 0
-0.113585 -0.10528 0
-0.122166 -0.114847 0
-0.123048 -0.0759545 0
-0.132306 -0.0864154 0
-0.129324 -0.0446785 0
-0.139114 -0.055713 0
-0.132431 -0.0122134 0
-0.142551 -0.0235353 0
0.155018 -0.00180623 0
0.155018 0.000493876 0
0.150909 -0.00635164 0
0.151082 -0.0041766 0
0.143416 -0.0108789 0
0.1436 -0.00876176 0
0.132276 -0.0152003 0
0.132471 -0.0132333 0
0.117858 -0.0191398 0
0.118061 -0.0174062 0
0.100509 -0.0225409 0
0.100717 -0.0211124 0
0.0806714 -0.0252777 0
0.0808819 -0.0242096 0
0.0588527 -0.0272668 0
0.059062 -0.0265909 0
0.0356107 -0.0284716 0
0.0358108 -0.0281939 0
0.0115331 -0.0289002 0
0.0117121 -0.0290029 0
-0.0127807 -0.0285962 0
-0.0126372 -0.0290435 0
-0.0367365 -0.0276258 0
-0.0366431 -0.028372 0
-0.059759 -0.0260624 0
-0.0597279 -0.0270608 0
-0.0813034 -0.0239745 0
-0.0813425 -0.0251846 0
-0.100864 -0.0214172 0
-0.100976 -0.0228083 0
-0.11798 -0.0184305 0
-0.118165 -0.0199817 0
-0.132243 -0.0150441 0
-0.132498 -0.0167402 0
-0.143317 -0.01128 0
-0.143636 -0.0131116 0
-0.150818 -0.00719069 0
-0.15122 -0.00911952 0
-0.154693 -0.00291334 0
-0.155278 -0.00481819 0
0.147631 0.0169304 0
0.137705 0.00998098 0
0.144012 0.040466 0
0.134547 0.0335545 0
0.136983 0.0629183 0
0.128021 0.0563688 0
0.126435 0.0838373 0
0.11822 0.0777481 0
0.112719 0.102777 0
0.105453 0.0972654 0
0.096175 0.119325 0
0.0900365 0.114502 0
0.0772368 0.133108 0
0.0723766 0.129079 0
0.0564013 0.14379 0
0.052936 0.140657 0
0.0342105 0.151079 0
0.0322182 0.14894 0
0.0112325 0.154742 0
0.0107503 0.153685 0
-0.0119579 0.154617 0
-0.0109327 0.154713 0
-0.0347948 0.150631 0
-0.0323028 0.151923 0
-0.0567346 0.142817 0
-0.052851 0.145311 0
-0.0772662 0.131322 0
-0.0720967 0.134982 0
-0.0959181 0.116413 0
-0.0895958 0.121156 0
-0.112264 0.0984716 0
-0.104947 0.104172 0
-0.125923 0.0779779 0
-0.117795 0.0844743 0
-0.136583 0.0554916 0
-0.127851 0.0625983 0
-0.143898 0.0315986 0
-0.134818 0.0391446 0
-0.147913 0.00694234 0
-0.138746 0.0147295 0
0.112436 0.0326286 0
0.0945705 0.0176027 0
0.109999 0.0799295 0
0.0927577 0.0651356 0
0.104765 0.125218 0
0.088389 0.11117 0
0.0967888 0.167512 0
0.0817403 0.154461 0
0.0863415 0.205838 0
0.0729922 0.194072 0
0.073692 0.239303 0
0.0623713 0.229088 0
0.0591906 0.267104 0
0.0501758 0.258686 0
0.0432359 0.288548 0
0.0367439 0.282144 0
0.0262589 0.303066 0
0.0224393 0.298863 0
0.00870531 0.310232 0
0.00763675 0.308378 0
-0.00898051 0.309782 0
-0.00729023 0.310376 0
-0.0263686 0.301637 0
-0.0219801 0.30472 0
-0.0430531 0.285917 0
-0.036091 0.29146 0
-0.0586589 0.262951 0
-0.0493062 0.270849 0
-0.0728443 0.233279 0
-0.0613367 0.243349 0
-0.0853036 0.197638 0
-0.0719234 0.209626 0
-0.0957667 0.156944 0
-0.0808398 0.17053 0
-0.104011 0.112258 0
-0.0879037 0.127075 0
-0.109793 0.064693 0
-0.0929592 0.080398 0
-0.113202 0.0155315 0
-0.0960392 0.0316685 0
0.0561329 0.0425297 0
0.0339325 0.0219476 0
0.0553115 0.104996 0
0.0337122 0.0848659 0
0.0528276 0.164861 0
0.0322591 0.145757 0
0.0489037 0.220828 0
0.0299842 0.203077 0
0.0436598 0.271579 0
0.0268583 0.255587 0
0.0372462 0.315897 0
0.0229731 0.302046 0
0.0298704 0.352706 0
0.0184767 0.341333 0
0.0217661 0.381082 0
0.0135279 0.372481 0
0.0131788 0.400274 0
0.00828767 0.394692 0
0.00435313 0.409731 0
0.00291175 0.407356 0
-0.00447876 0.409122 0
-0.00245621 0.410073 0
-0.0131049 0.398362 0
-0.00768989 0.402677 0
-0.021338 0.377625 0
-0.0126822 0.385251 0
-0.0290157 0.347355 0
-0.0173447 0.358141 0
-0.0359986 0.308261 0
-0.0216035 0.321958 0
-0.0421661 0.261312 0
-0.0253934 0.277573 0
-0.0474139 0.207711 0
-0.0286532 0.226096 0
-0.0516608 0.148844 0
-0.0313544 0.168855 0
-0.0548263 0.0861539 0
-0.0335424 0.107334 0
-0.0570059 0.0212654 0
-0.0352708 0.0430492 0
-0.0105249 0.044301 0
-0.0331666 0.0222165 0
-0.00966899 0.11003 0
-0.0319115 0.0886016 0
-0.00899593 0.173045 0
-0.0302425 0.15274 0
-0.00815803 0.232005 0
-0.0277241 0.213136 0
-0.00725522 0.285513 0
-0.0246449 0.268512 0
-0.00628524 0.332269 0
-0.02108 0.317553 0
-0.00520742 0.371127 0
-0.0170414 0.359058 0
-0.00398682 0.401108 0
-0.01257 0.391997 0
-0.00260207 0.421418 0
-0.00773376 0.415527 0
-0.00105064 0.431473 0
-0.00262272 0.428999 0
0.000646081 0.430927 0
0.00265001 0.431994 0
0.00244098 0.419689 0
0.00794916 0.424333 0
0.00426335 0.397942 0
0.0131214 0.406104 0
0.00602486 0.366151 0
0.0180026 0.377668 0
0.00762871 0.325058 0
0.022429 0.339666 0
0.00898235 0.27568 0
0.0262577 0.293005 0
0.0100074 0.219289 0
0.0293761 0.238851 0
0.0106164 0.157369 0
0.0316621 0.178606 0
0.0106768 0.0914332 0
0.0328244 0.113855 0
0.0100658 0.023083 0
0.0326825 0.0461884 0
-0.0753915 0.0376695 0
-0.0944645 0.018367 0
-0.0731735 0.0943559 0
-0.092044 0.0757166 0
-0.0695309 0.148749 0
-0.0875867 0.131087 0
-0.0640932 0.199696 0
-0.0807347 0.183273 0
-0.0572157 0.245972 0
-0.0720331 0.231178 0
-0.0490583 0.286458 0
-0.0616793 0.273646 0
-0.0397356 0.320164 0
-0.0498397 0.309644 0
-0.0294069 0.346236 0
-0.0367442 0.338281 0
-0.0182733 0.363977 0
-0.0226731 0.358818 0
-0.00657157 0.372871 0
-0.00794346 0.370685 0
0.00542798 0.372604 0
0.00709588 0.373504 0
0.0174249 0.363085 0
0.0220698 0.367109 0
0.0290971 0.344461 0
0.0365868 0.351562 0
0.0401125 0.317121 0
0.0502519 0.327162 0
0.0501455 0.281699 0
0.0626839 0.29445 0
0.0589033 0.239063 0
0.0735477 0.254201 0
0.0661404 0.190318 0
0.0825811 0.207415 0
0.0716241 0.136788 0
0.0895603 0.155307 0
0.0749798 0.0797517 0
0.0938983 0.0992918 0
0.0759623 0.0206408 0
0.0953817 0.040711 0
-0.126626 0.0286249 0
-0.13405 0.0111268 0
-0.123529 0.0701922 0
-0.1311 0.0533681 0
-0.117615 0.110066 0
-0.124941 0.0941315 0
-0.108585 0.147456 0
-0.115319 0.13262 0
-0.0970295 0.181445 0
-0.103025 0.168084 0
-0.0832093 0.211223 0
-0.0882969 0.199643 0
-0.0673678 0.236061 0
-0.0714094 0.22654 0
-0.0498241 0.25532 0
-0.0527235 0.24811 0
-0.0309594 0.268469 0
-0.0326606 0.263786 0
-0.0112019 0.275113 0
-0.011686 0.273121 0
0.00897957 0.274999 0
0.00969777 0.275806 0
0.0290839 0.268044 0
0.0309604 0.271686 0
0.0485905 0.254338 0
0.0515573 0.260776 0
0.0669752 0.234155 0
0.0709456 0.243267 0
0.0837324 0.20795 0
0.0886041 0.219533 0
0.0984105 0.176351 0
0.104067 0.190125 0
0.110644 0.140147 0
0.116958 0.155759 0
0.120123 0.100318 0
0.127022 0.117297 0
0.126195 0.0578279 0
0.133487 0.0757737 0
0.128594 0.0143638 0
0.136708 0.0322056 0
-0.151576 0.0211864 0
-0.145914 0.00456247 0
-0.148304 0.0490862 0
-0.142068 0.0320903 0
-0.141395 0.0758422 0
-0.135537 0.0596828 0
-0.130628 0.100777 0
-0.125327 0.0858778 0
-0.116822 0.123515 0
-0.111985 0.110013 0
-0.100241 0.143572 0
-0.0959142 0.131726 0
-0.0812007 0.160438 0
-0.0774972 0.150554 0
-0.0601076 0.173648 0
-0.0571482 0.16601 0
-0.0374364 0.182798 0
-0.0353373 0.177656 0
-0.0137119 0.187568 0
-0.0125799 0.185125 0
0.0104985 0.18773 0
0.0105742 0.188133 0
0.0345957 0.18317 0
0.0335527 0.186494 0
0.0579631 0.173902 0
0.0557755 0.180139 0
0.0799858 0.160077 0
0.0766716 0.16913 0
0.100071 0.141989 0
0.0956974 0.153664 0
0.117687 0.120062 0
0.112359 0.134081 0
0.132398 0.0948295 0
0.126247 0.11085 0
0.143897 0.0667804 0
0.136939 0.0845395 0
0.15138 0.0368452 0
0.144013 0.0556721 0
0.155156 0.00685672 0
0.148613 0.025208 0
-0.15129 -0.00331513 0
-0.153249 -0.00108544 0
-0.147396 -0.00533389 0
-0.148979 -0.00353772 0
-0.140697 -0.00690189 0
-0.142 -0.00546427 0
-0.1302 -0.00808898 0
-0.131322 -0.00692464 0
-0.116458 -0.00884606 0
-0.117363 -0.00799602 0
-0.0998775 -0.00911722 0
-0.100511 -0.00863664 0
-0.080847 -0.00889645 0
-0.081185 -0.00879923 0
-0.0597902 -0.00822457 0
-0.05984 -0.00848622 0
-0.0371897 -0.00717689 0
-0.0369792 -0.00774583 0
-0.0135764 -0.00585479 0
-0.013149 -0.00665923 0
0.010481 -0.00437601 0
0.0110717 -0.0053316 0
0.0343885 -0.00286323 0
0.0350854 -0.00388202 0
0.0575414 -0.00143236 0
0.0582904 -0.0024319 0
0.0793425 -0.000181547 0
0.0800984 -0.00109326 0
0.0992212 0.000816787 0
0.0999515 4.18773e-05 0
0.116657 0.00151691 0
0.11734 0.000908957 0
0.131214 0.00189008 0
0.131827 0.00147107 0
0.142451 0.00198193 0
0.143029 0.00170874 0
0.149922 0.00168523 0
0.150325 0.00167735 0
0.154751 0.00118635 0
0.155114 0.00128046 0
-0.147344 -0.0254213 0
-0.154522 -0.00671146 0
-0.14329 -0.0548575 0
-0.150153 -0.0367914 0
-0.136682 -0.0826744 0
-0.143041 -0.0657304 0
-0.126516 -0.108184 0
-0.132235 -0.09277 0
-0.113194 -0.130789 0
-0.118175 -0.117246 0
-0.0970803 -0.149931 0
-0.101204 -0.138591 0
-0.0785723 -0.165149 0
-0.0817369 -0.156285 0
-0.058099 -0.176098 0
-0.06024 -0.169904 0
-0.0361378 -0.18256 0
-0.037227 -0.179151 0
-0.0132095 -0.184441 0
-0.0132528 -0.18385 0
0.0101312 -0.181769 0
0.0110983 -0.183956 0
0.0333086 -0.174686 0
0.0352256 -0.17954 0
0.0557403 -0.163436 0
0.0585277 -0.170787 0
0.076854 -0.148351 0
0.0804185 -0.157978 0
0.0961046 -0.129843 0
0.100343 -0.141484 0
0.112992 -0.108388 0
0.117796 -0.121744 0
0.127087 -0.0845256 0
0.132331 -0.0992606 0
0.138008 -0.0587968 0
0.143602 -0.074592 0
0.145135 -0.0318692 0
0.150888 -0.0482938 0
0.149866 -0.00451718 0
0.155498 -0.0210423 0
-0.137511 -0.047088 0
-0.15006 -0.0121194 0
-0.133623 -0.103342 0
-0.145895 -0.0692389 0
-0.127414 -0.156777 0
-0.138897 -0.124604 0
-0.117906 -0.206115 0
-0.128376 -0.176615 0
-0.105501 -0.250153 0
-0.114724 -0.224034 0
-0.0904986 -0.28781 0
-0.098253 -0.265709 0
-0.0732587 -0.318173 0
-0.0793606 -0.300622 0
-0.0541879 -0.340523 0
-0.0585004 -0.327932 0
-0.0337364 -0.354356 0
-0.0361752 -0.347001 0
-0.0123932 -0.359389 0
-0.0129264 -0.357406 0
0.00932383 -0.355563 0
0.0106779 -0.358953 0
0.0308791 -0.343039 0
0.0340557 -0.35167 0
0.0517334 -0.322186 0
0.056626 -0.335801 0
0.0713579 -0.293569 0
0.077824 -0.311797 0
0.0892504 -0.257928 0
0.0971159 -0.280295 0
0.104949 -0.216162 0
0.114014 -0.242106 0
0.118048 -0.1693 0
0.128092 -0.198183 0
0.128229 -0.118482 0
0.13901 -0.149605 0
0.134794 -0.0649437 0
0.146045 -0.0975483 0
0.139066 -0.010055 0
0.150438 -0.0432767 0
-0.122503 -0.0675938 0
-0.140415 -0.0171221 0
-0.119072 -0.149007 0
-0.136567 -0.0997855 0
-0.113482 -0.22651 0
-0.129948 -0.179945 0
-0.105002 -0.298242 0
-0.1201 -0.255424 0
-0.0939734 -0.362428 0
-0.107332 -0.324412 0
-0.0806368 -0.417489 0
-0.0919336 -0.385207 0
-0.0653077 -0.462085 0
-0.0742725 -0.436318 0
-0.0483483 -0.495144 0
-0.0547736 -0.476507 0
-0.0301616 -0.515895 0
-0.0339084 -0.504815 0
-0.0111844 -0.523876 0
-0.0121845 -0.520588 0
0.00812159 -0.51895 0
0.00986617 -0.523492 0
0.0272806 -0.501295 0
0.0317 -0.513513 0
0.0458143 -0.471401 0
0.0527755 -0.490955 0
0.0632547 -0.430048 0
0.0725669 -0.456425 0
0.0791573 -0.378287 0
0.0905778 -0.410817 0
0.0931138 -0.317413 0
0.106355 -0.355281 0
0.104765 -0.248925 0
0.119502 -0.291201 0
0.113826 -0.174498 0
0.129701 -0.22015 0
0.119615 -0.0959561 0
0.136231 -0.143863 0
0.123404 -0.0152403 0
0.140327 -0.0642054 0
-0.103236 -0.0858166 0
-0.125901 -0.0215478 0
-0.100351 -0.189657 0
-0.12249 -0.126965 0
-0.0955995 -0.288597 0
-0.116476 -0.229228 0
-0.0884728 -0.380261 0
-0.107652 -0.325607 0
-0.0792096 -0.462383 0
-0.0962187 -0.413794 0
-0.0680082 -0.53294 0
-0.0824315 -0.491609 0
-0.0551293 -0.590207 0
-0.0666183 -0.557142 0
-0.040876 -0.6328 0
-0.0491592 -0.608795 0
-0.0255874 -0.659705 0
-0.0304776 -0.645325 0
-0.00963149 -0.670308 0
-0.0110293 -0.665872 0
0.0066032 -0.664396 0
0.00870898 -0.669977 0
0.0227165 -0.64217 0
0.0282506 -0.657591 0
0.0383065 -0.604224 0
0.0471116 -0.629072 0
0.0529804 -0.551532 0
0.0648224 -0.585167 0
0.0663647 -0.485424 0
0.0809402 -0.526997 0
0.0781162 -0.407542 0
0.0950605 -0.456019 0
0.0879328 -0.319807 0
0.106829 -0.373995 0
0.0955751 -0.22437 0
0.115962 -0.282943 0
0.100381 -0.123558 0
0.121766 -0.18509 0
0.103629 -0.0198979 0
0.125426 -0.0828206 0
-0.0803562 -0.10118 0
-0.107051 -0.0252444 0
-0.0781055 -0.223975 0
-0.104178 -0.149893 0
-0.0743571 -0.341015 0
-0.0989509 -0.27084 0
-0.0688433 -0.449504 0
-0.0914537 -0.384869 0
-0.0616801 -0.546774 0
-0.0817648 -0.489261 0
-0.0530136 -0.630422 0
-0.0700725 -0.581452 0
-0.0430417 -0.698396 0
-0.0566567 -0.65917 0
-0.0319972 -0.749043 0
-0.0418418 -0.72051 0
-0.0201424 -0.781149 0
-0.0259888 -0.763988 0
-0.0077627 -0.793967 0
-0.00948564 -0.788569 0
0.0048402 -0.787226 0
0.00726252 -0.793691 0
0.0173556 -0.761141 0
0.0238428 -0.779275 0
0.0294714 -0.716397 0
0.0398449 -0.745723 0
0.0408821 -0.654135 0
0.0548713 -0.693904 0
0.0512972 -0.575912 0
0.0685474 -0.625128 0
0.060449 -0.483672 0
0.0805302 -0.541113 0
0.0681013 -0.379687 0
0.090519 -0.44394 0
0.074069 -0.266512 0
0.0982732 -0.335998 0
0.0777313 -0.146896 0
0.10315 -0.219937 0
0.0803291 -0.0238699 0
0.106242 -0.0985756 0
-0.0546826 -0.1132 0
-0.0845906 -0.0280839 0
-0.0531291 -0.2508 0
-0.082269 -0.167825 0
-0.0504894 -0.38201 0
-0.0780061 -0.303369 0
-0.0467816 -0.503672 0
-0.0720898 -0.431218 0
-0.0419864 -0.612803 0
-0.0644885 -0.548299 0
-0.0361674 -0.706703 0
-0.0552983 -0.651749 0
-0.0294563 -0.783061 0
-0.0447403 -0.739011 0
-0.0220089 -0.840016 0
-0.0330765 -0.80794 0
-0.0140019 -0.876195 0
-0.020594 -0.856861 0
-0.00562807 -0.890748 0
-0.00759923 -0.884603 0
0.00290864 -0.88336 0
0.00558794 -0.890524 0
0.0113976 -0.854257 0
0.0186424 -0.874522 0
0.0196268 -0.804196 0
0.0312417 -0.837035 0
0.0273883 -0.734444 0
0.0430737 -0.779024 0
0.0344835 -0.646744 0
0.0538447 -0.701952 0
0.0407281 -0.543266 0
0.0632849 -0.607736 0
0.0459592 -0.42656 0
0.0711583 -0.498706 0
0.0500498 -0.29946 0
0.077306 -0.377543 0
0.0524443 -0.165139 0
0.0810323 -0.247188 0
0.0542969 -0.0270222 0
0.0833839 -0.110894 0
-0.0271716 -0.119314 0
-0.057203 -0.0299736 0
-0.0262822 -0.265788 0
-0.0562172 -0.178008 0
-0.0248424 -0.40526 0
-0.0528774 -0.322285 0
-0.0230692 -0.534676 0
-0.0489203 -0.458155 0
-0.0208217 -0.650823 0
-0.043836 -0.58266 0
-0.0180604 -0.750803 0
-0.037632 -0.692714 0
-0.0148447 -0.832158 0
-0.0304906 -0.785571 0
-0.0112526 -0.892905 0
-0.0225956 -0.858952 0
-0.00736965 -0.931579 0
-0.0141435 -0.911074 0
-0.00328887 -0.947264 0
-0.00534288 -0.940684 0
0.000890536 -0.939616 0
0.00358934 -0.947094 0
0.00506529 -0.908864 0
0.0124329 -0.930187 0
0.00913051 -0.855806 0
0.0209697 -0.890421 0
0.0129825 -0.78178 0
0.0289893 -0.828813 0
0.0165214 -0.68863 0
0.0362948 -0.746908 0
0.0196523 -0.578651 0
0.0427128 -0.646745 0
0.0222912 -0.454559 0
0.0480662 -0.530786 0
0.0244042 -0.319425 0
0.052238 -0.401891 0
0.0253921 -0.176278 0
0.05489 -0.263247 0
0.0263737 -0.0292479 0
0.0561915 -0.117965 0
0.00331926 -0.126425 0
-0.0308523 -0.0308523 0
0.0028081 -0.280116 0
-0.030223 -0.187197 0
0.00318019 -0.427511 0
-0.0288346 -0.338617 0
0.00277659 -0.564258 0
-0.0267315 -0.482288 0
0.00222547 -0.686902 0
-0.02397 -0.613957 0
0.00166047 -0.792467 0
-0.0206186 -0.7303 0
0.00106922 -0.878375 0
-0.0167611 -0.828497 0
0.000461067 -0.942535 0
-0.012494 -0.906155 0
-0.000148453 -0.9834 0
-0.00792365 -0.96139 0
-0.000743057 -1 0
-0.00316354 -0.992874 0
-0.00130739 -0.991968 0
0.00166859 -0.999872 0
-0.00182781 -0.959543 0
0.00645366 -0.982254 0
-0.00229275 -0.903562 0
0.0110742 -0.940492 0
-0.00269287 -0.825436 0
0.0154173 -0.875655 0
-0.00302026 -0.727114 0
0.0193773 -0.789367 0
-0.00326329 -0.611037 0
0.0228579 -0.683777 0
-0.00343851 -0.480054 0
0.0257754 -0.561501 0
-0.00353104 -0.337383 0
0.0280589 -0.425537 0
-0.00377341 -0.186287 0
0.0296548 -0.279223 0
-0.00392711 -0.0304668 0
0.0305241 -0.125909 0
