# vtk DataFile Version 3.0
tp3485 cell-vector
ASCII
DATASET UNSTRUCTURED_GRID
POINTS 441 double
0 0 0
0.05 0 0
0.1 0 0
0.15 0 0
0.2 0 0
0.25 0 0
0.3 0 0
0.35 0 0
0.4 0 0
0.45 0 0
0.5 0 0
0.55 0 0
0.6 0 0
0.65 0 0
0.7 0 0
0.75 0 0
0.8 0 0
0.85 0 0
0.9 0 0
0.95 0 0
1 0 0
0 0.05 0
0.05 0.05 0
0.1 0.05 0
0.15 0.05 0
0.2 0.05 0
0.25 0.05 0
0.3 0.05 0
0.35 0.05 0
0.4 0.05 0
0.45 0.05 0
0.5 0.05 0
0.55 0.05 0
0.6 0.05 0
0.65 0.05 0
0.7 0.05 0
0.75 0.05 0
0.8 0.05 0
0.85 0.05 0
0.9 0.05 0
0.95 0.05 0
1 0.05 0
0 0.1 0
0.05 0.1 0
0.1 0.1 0
0.15 0.1 0
0.2 0.1 0
0.25 0.1 0
0.3 0.1 0
0.35 0.1 0
0.4 0.1 0
0.45 0.1 0
0.5 0.1 0
0.55 0.1 0
0.6 0.1 0
0.65 0.1 0
0.7 0.1 0
0.75 0.1 0
0.8 0.1 0
0.85 0.1 0
0.9 0.1 0
0.95 0.1 0
1 0.1 0
0 0.15 0
0.05 0.15 0
0.1 0.15 0
0.15 0.15 0
0.2 0.15 0
0.25 0.15 0
0.3 0.15 0
0.35 0.15 0
0.4 0.15 0
0.45 0.15 0
0.5 0.15 0
0.55 0.15 0
0.6 0.15 0
0.65 0.15 0
0.7 0.15 0
0.75 0.15 0
0.8 0.15 0
0.85 0.15 0
0.9 0.15 0
0.95 0.15 0
1 0.15 0
0 0.2 0
0.05 0.2 0
0.1 0.2 0
0.15 0.2 0
0.2 0.2 0
0.25 0.2 0
0.3 0.2 0
0.35 0.2 0
0.4 0.2 0
0.45 0.2 0
0.5 0.2 0
0.55 0.2 0
0.6 0.2 0
0.65 0.2 0
0.7 0.2 0
0.75 0.2 0
0.8 0.2 0
0.85 0.2 0
0.9 0.2 0
0.95 0.2 0
1 0.2 0
0 0.25 0
0.05 0.25 0
0.1 0.25 0
0.15 0.25 0
0.2 0.25 0
0.25 0.25 0
0.3 0.25 0
0.35 0.25 0
0.4 0.25 0
0.45 0.25 0
0.5 0.25 0
0.55 0.25 0
0.6 0.25 0
0.65 0.25 0
0.7 0.25 0
0.75 0.25 0
0.8 0.25 0
0.85 0.25 0
0.9 0.25 0
0.95 0.25 0
1 0.25 0
0 0.3 0
0.05 0.3 0
0.1 0.3 0
0.15 0.3 0
0.2 0.3 0
0.25 0.3 0
0.3 0.3 0
0.35 0.3 0
0.4 0.3 0
0.45 0.3 0
0.5 0.3 0
0.55 0.3 0
0.6 0.3 0
0.65 0.3 0
0.7 0.3 0
0.75 0.3 0
0.8 0.3 0
0.85 0.3 0
0.9 0.3 0
0.95 0.3 0
1 0.3 0
0 0.35 0
0.05 0.35 0
0.1 0.35 0
0.15 0.35 0
0.2 0.35 0
0.25 0.35 0
0.3 0.35 0
0.35 0.35 0
0.4 0.35 0
0.45 0.35 0
0.5 0.35 0
0.55 0.35 0
0.6 0.35 0
0.65 0.35 0
0.7 0.35 0
0.75 0.35 0
0.8 0.35 0
0.85 0.35 0
0.9 0.35 0
0.95 0.35 0
1 0.35 0
0 0.4 0
0.05 0.4 0
0.1 0.4 0
0.15 0.4 0
0.2 0.4 0
0.25 0.4 0
0.3 0.4 0
0.35 0.4 0
0.4 0.4 0
0.45 0.4 0
0.5 0.4 0
0.55 0.4 0
0.6 0.4 0
0.65 0.4 0
0.7 0.4 0
0.75 0.4 0
0.8 0.4 0
0.85 0.4 0
0.9 0.4 0
0.95 0.4 0
1 0.4 0
0 0.45 0
0.05 0.45 0
0.1 0.45 0
0.15 0.45 0
0.2 0.45 0
0.25 0.45 0
0.3 0.45 0
0.35 0.45 0
0.4 0.45 0
0.45 0.45 0
0.5 0.45 0
0.55 0.45 0
0.6 0.45 0
0.65 0.45 0
0.7 0.45 0
0.75 0.45 0
0.8 0.45 0
0.85 0.45 0
0.9 0.45 0
0.95 0.45 0
1 0.45 0
0 0.5 0
0.05 0.5 0
0.1 0.5 0
0.15 0.5 0
0.2 0.5 0
0.25 0.5 0
0.3 0.5 0
0.35 0.5 0
0.4 0.5 0
0.45 0.5 0
0.5 0.5 0
0.55 0.5 0
0.6 0.5 0
0.65 0.5 0
0.7 0.5 0
0.75 0.5 0
0.8 0.5 0
0.85 0.5 0
0.9 0.5 0
0.95 0.5 0
1 0.5 0
0 0.55 0
0.05 0.55 0
0.1 0.55 0
0.15 0.55 0
0.2 0.55 0
0.25 0.55 0
0.3 0.55 0
0.35 0.55 0
0.4 0.55 0
0.45 0.55 0
0.5 0.55 0
0.55 0.55 0
0.6 0.55 0
0.65 0.55 0
0.7 0.55 0
0.75 0.55 0
0.8 0.55 0
0.85 0.55 0
0.9 0.55 0
0.95 0.55 0
1 0.55 0
0 0.6 0
0.05 0.6 0
0.1 0.6 0
0.15 0.6 0
0.2 0.6 0
0.25 0.6 0
0.3 0.6 0
0.35 0.6 0
0.4 0.6 0
0.45 0.6 0
0.5 0.6 0
0.55 0.6 0
0.6 0.6 0
0.65 0.6 0
0.7 0.6 0
0.75 0.6 0
0.8 0.6 0
0.85 0.6 0
0.9 0.6 0
0.95 0.6 0
1 0.6 0
0 0.65 0
0.05 0.65 0
0.1 0.65 0
0.15 0.65 0
0.2 0.65 0
0.25 0.65 0
0.3 0.65 0
0.35 0.65 0
0.4 0.65 0
0.45 0.65 0
0.5 0.65 0
0.55 0.65 0
0.6 0.65 0
0.65 0.65 0
0.7 0.65 0
0.75 0.65 0
0.8 0.65 0
0.85 0.65 0
0.9 0.65 0
0.95 0.65 0
1 0.65 0
0 0.7 0
0.05 0.7 0
0.1 0.7 0
0.15 0.7 0
0.2 0.7 0
0.25 0.7 0
0.3 0.7 0
0.35 0.7 0
0.4 0.7 0
0.45 0.7 0
0.5 0.7 0
0.55 0.7 0
0.6 0.7 0
0.65 0.7 0
0.7 0.7 0
0.75 0.7 0
0.8 0.7 0
0.85 0.7 0
0.9 0.7 0
0.95 0.7 0
1 0.7 0
0 0.75 0
0.05 0.75 0
0.1 0.75 0
0.15 0.75 0
0.2 0.75 0
0.25 0.75 0
0.3 0.75 0
0.35 0.75 0
0.4 0.75 0
0.45 0.75 0
0.5 0.75 0
0.55 0.75 0
0.6 0.75 0
0.65 0.75 0
0.7 0.75 0
0.75 0.75 0
0.8 0.75 0
0.85 0.75 0
0.9 0.75 0
0.95 0.75 0
1 0.75 0
0 0.8 0
0.05 0.8 0
0.1 0.8 0
0.15 0.8 0
0.2 0.8 0
0.25 0.8 0
0.3 0.8 0
0.35 0.8 0
0.4 0.8 0
0.45 0.8 0
0.5 0.8 0
0.55 0.8 0
0.6 0.8 0
0.65 0.8 0
0.7 0.8 0
0.75 0.8 0
0.8 0.8 0
0.85 0.8 0
0.9 0.8 0
0.95 0.8 0
1 0.8 0
0 0.85 0
0.05 0.85 0
0.1 0.85 0
0.15 0.85 0
0.2 0.85 0
0.25 0.85 0
0.3 0.85 0
0.35 0.85 0
0.4 0.85 0
0.45 0.85 0
0.5 0.85 0
0.55 0.85 0
0.6 0.85 0
0.65 0.85 0
0.7 0.85 0
0.75 0.85 0
0.8 0.85 0
0.85 0.85 0
0.9 0.85 0
0.95 0.85 0
1 0.85 0
0 0.9 0
0.05 0.9 0
0.1 0.9 0
0.15 0.9 0
0.2 0.9 0
0.25 0.9 0
0.3 0.9 0
0.35 0.9 0
0.4 0.9 0
0.45 0.9 0
0.5 0.9 0
0.55 0.9 0
0.6 0.9 0
0.65 0.9 0
0.7 0.9 0
0.75 0.9 0
0.8 0.9 0
0.85 0.9 0
0.9 0.9 0
0.95 0.9 0
1 0.9 0
0 0.95 0
0.05 0.95 0
0.1 0.95 0
0.15 0.95 0
0.2 0.95 0
0.25 0.95 0
0.3 0.95 0
0.35 0.95 0
0.4 0.95 0
0.45 0.95 0
0.5 0.95 0
0.55 0.95 0
0.6 0.95 0
0.65 0.95 0
0.7 0.95 0
0.75 0.95 0
0.8 0.95 0
0.85 0.95 0
0.9 0.95 0
0.95 0.95 0
1 0.95 0
0 1 0
0.05 1 0
0.1 1 0
0.15 1 0
0.2 1 0
0.25 1 0
0.3 1 0
0.35 1 0
0.4 1 0
0.45 1 0
0.5 1 0
0.55 1 0
0.6 1 0
0.65 1 0
0.7 1 0
0.75 1 0
0.8 1 0
0.85 1 0
0.9 1 0
0.95 1 0
1 1 0
CELLS 800 3200
3 0 1 22
3 0 22 21
3 1 2 23
3 1 23 22
3 2 3 24
3 2 24 23
3 3 4 25
3 3 25 24
3 4 5 26
3 4 26 25
3 5 6 27
3 5 27 26
3 6 7 28
3 6 28 27
3 7 8 29
3 7 29 28
3 8 9 30
3 8 30 29
3 9 10 31
3 9 31 30
3 10 11 32
3 10 32 31
3 11 12 33
3 11 33 32
3 12 13 34
3 12 34 33
3 13 14 35
3 13 35 34
3 14 15 36
3 14 36 35
3 15 16 37
3 15 37 36
3 16 17 38
3 16 38 37
3 17 18 39
3 17 39 38
3 18 19 40
3 18 40 39
3 19 20 41
3 19 41 40
3 21 22 43
3 21 43 42
3 22 23 44
3 22 44 43
3 23 24 45
3 23 45 44
3 24 25 46
3 24 46 45
3 25 26 47
3 25 47 46
3 26 27 48
3 26 48 47
3 27 28 49
3 27 49 48
3 28 29 50
3 28 50 49
3 29 30 51
3 29 51 50
3 30 31 52
3 30 52 51
3 31 32 53
3 31 53 52
3 32 33 54
3 32 54 53
3 33 34 55
3 33 55 54
3 34 35 56
3 34 56 55
3 35 36 57
3 35 57 56
3 36 37 58
3 36 58 57
3 37 38 59
3 37 59 58
3 38 39 60
3 38 60 59
3 39 40 61
3 39 61 60
3 40 41 62
3 40 62 61
3 42 43 64
3 42 64 63
3 43 44 65
3 43 65 64
3 44 45 66
3 44 66 65
3 45 46 67
3 45 67 66
3 46 47 68
3 46 68 67
3 47 48 69
3 47 69 68
3 48 49 70
3 48 70 69
3 49 50 71
3 49 71 70
3 50 51 72
3 50 72 71
3 51 52 73
3 51 73 72
3 52 53 74
3 52 74 73
3 53 54 75
3 53 75 74
3 54 55 76
3 54 76 75
3 55 56 77
3 55 77 76
3 56 57 78
3 56 78 77
3 57 58 79
3 57 79 78
3 58 59 80
3 58 80 79
3 59 60 81
3 59 81 80
3 60 61 82
3 60 82 81
3 61 62 83
3 61 83 82
3 63 64 85
3 63 85 84
3 64 65 86
3 64 86 85
3 65 66 87
3 65 87 86
3 66 67 88
3 66 88 87
3 67 68 89
3 67 89 88
3 68 69 90
3 68 90 89
3 69 70 91
3 69 91 90
3 70 71 92
3 70 92 91
3 71 72 93
3 71 93 92
3 72 73 94
3 72 94 93
3 73 74 95
3 73 95 94
3 74 75 96
3 74 96 95
3 75 76 97
3 75 97 96
3 76 77 98
3 76 98 97
3 77 78 99
3 77 99 98
3 78 79 100
3 78 100 99
3 79 80 101
3 79 101 100
3 80 81 102
3 80 102 101
3 81 82 103
3 81 103 102
3 82 83 104
3 82 104 103
3 84 85 106
3 84 106 105
3 85 86 107
3 85 107 106
3 86 87 108
3 86 108 107
3 87 88 109
3 87 109 108
3 88 89 110
3 88 110 109
3 89 90 111
3 89 111 110
3 90 91 112
3 90 112 111
3 91 92 113
3 91 113 112
3 92 93 114
3 92 114 113
3 93 94 115
3 93 115 114
3 94 95 116
3 94 116 115
3 95 96 117
3 95 117 116
3 96 97 118
3 96 118 117
3 97 98 119
3 97 119 118
3 98 99 120
3 98 120 119
3 99 100 121
3 99 121 120
3 100 101 122
3 100 122 121
3 101 102 123
3 101 123 122
3 102 103 124
3 102 124 123
3 103 104 125
3 103 125 124
3 105 106 127
3 105 127 126
3 106 107 128
3 106 128 127
3 107 108 129
3 107 129 128
3 108 109 130
3 108 130 129
3 109 110 131
3 109 131 130
3 110 111 132
3 110 132 131
3 111 112 133
3 111 133 132
3 112 113 134
3 112 134 133
3 113 114 135
3 113 135 134
3 114 115 136
3 114 136 135
3 115 116 137
3 115 137 136
3 116 117 138
3 116 138 137
3 117 118 139
3 117 139 138
3 118 119 140
3 118 140 139
3 119 120 141
3 119 141 140
3 120 121 142
3 120 142 141
3 121 122 143
3 121 143 142
3 122 123 144
3 122 144 143
3 123 124 145
3 123 145 144
3 124 125 146
3 124 146 145
3 126 127 148
3 126 148 147
3 127 128 149
3 127 149 148
3 128 129 150
3 128 150 149
3 129 130 151
3 129 151 150
3 130 131 152
3 130 152 151
3 131 132 153
3 131 153 152
3 132 133 154
3 132 154 153
3 133 134 155
3 133 155 154
3 134 135 156
3 134 156 155
3 135 136 157
3 135 157 156
3 136 137 158
3 136 158 157
3 137 138 159
3 137 159 158
3 138 139 160
3 138 160 159
3 139 140 161
3 139 161 160
3 140 141 162
3 140 162 161
3 141 142 163
3 141 163 162
3 142 143 164
3 142 164 163
3 143 144 165
3 143 165 164
3 144 145 166
3 144 166 165
3 145 146 167
3 145 167 166
3 147 148 169
3 147 169 168
3 148 149 170
3 148 170 169
3 149 150 171
3 149 171 170
3 150 151 172
3 150 172 171
3 151 152 173
3 151 173 172
3 152 153 174
3 152 174 173
3 153 154 175
3 153 175 174
3 154 155 176
3 154 176 175
3 155 156 177
3 155 177 176
3 156 157 178
3 156 178 177
3 157 158 179
3 157 179 178
3 158 159 180
3 158 180 179
3 159 160 181
3 159 181 180
3 160 161 182
3 160 182 181
3 161 162 183
3 161 183 182
3 162 163 184
3 162 184 183
3 163 164 185
3 163 185 184
3 164 165 186
3 164 186 185
3 165 166 187
3 165 187 186
3 166 167 188
3 166 188 187
3 168 169 190
3 168 190 189
3 169 170 191
3 169 191 190
3 170 171 192
3 170 192 191
3 171 172 193
3 171 193 192
3 172 173 194
3 172 194 193
3 173 174 195
3 173 195 194
3 174 175 196
3 174 196 195
3 175 176 197
3 175 197 196
3 176 177 198
3 176 198 197
3 177 178 199
3 177 199 198
3 178 179 200
3 178 200 199
3 179 180 201
3 179 201 200
3 180 181 202
3 180 202 201
3 181 182 203
3 181 203 202
3 182 183 204
3 182 204 203
3 183 184 205
3 183 205 204
3 184 185 206
3 184 206 205
3 185 186 207
3 185 207 206
3 186 187 208
3 186 208 207
3 187 188 209
3 187 209 208
3 189 190 211
3 189 211 210
3 190 191 212
3 190 212 211
3 191 192 213
3 191 213 212
3 192 193 214
3 192 214 213
3 193 194 215
3 193 215 214
3 194 195 216
3 194 216 215
3 195 196 217
3 195 217 216
3 196 197 218
3 196 218 217
3 197 198 219
3 197 219 218
3 198 199 220
3 198 220 219
3 199 200 221
3 199 221 220
3 200 201 222
3 200 222 221
3 201 202 223
3 201 223 222
3 202 203 224
3 202 224 223
3 203 204 225
3 203 225 224
3 204 205 226
3 204 226 225
3 205 206 227
3 205 227 226
3 206 207 228
3 206 228 227
3 207 208 229
3 207 229 228
3 208 209 230
3 208 230 229
3 210 211 232
3 210 232 231
3 211 212 233
3 211 233 232
3 212 213 234
3 212 234 233
3 213 214 235
3 213 235 234
3 214 215 236
3 214 236 235
3 215 216 237
3 215 237 236
3 216 217 238
3 216 238 237
3 217 218 239
3 217 239 238
3 218 219 240
3 218 240 239
3 219 220 241
3 219 241 240
3 220 221 242
3 220 242 241
3 221 222 243
3 221 243 242
3 222 223 244
3 222 244 243
3 223 224 245
3 223 245 244
3 224 225 246
3 224 246 245
3 225 226 247
3 225 247 246
3 226 227 248
3 226 248 247
3 227 228 249
3 227 249 248
3 228 229 250
3 228 250 249
3 229 230 251
3 229 251 250
3 231 232 253
3 231 253 252
3 232 233 254
3 232 254 253
3 233 234 255
3 233 255 254
3 234 235 256
3 234 256 255
3 235 236 257
3 235 257 256
3 236 237 258
3 236 258 257
3 237 238 259
3 237 259 258
3 238 239 260
3 238 260 259
3 239 240 261
3 239 261 260
3 240 241 262
3 240 262 261
3 241 242 263
3 241 263 262
3 242 243 264
3 242 264 263
3 243 244 265
3 243 265 264
3 244 245 266
3 244 266 265
3 245 246 267
3 245 267 266
3 246 247 268
3 246 268 267
3 247 248 269
3 247 269 268
3 248 249 270
3 248 270 269
3 249 250 271
3 249 271 270
3 250 251 272
3 250 272 271
3 252 253 274
3 252 274 273
3 253 254 275
3 253 275 274
3 254 255 276
3 254 276 275
3 255 256 277
3 255 277 276
3 256 257 278
3 256 278 277
3 257 258 279
3 257 279 278
3 258 259 280
3 258 280 279
3 259 260 281
3 259 281 280
3 260 261 282
3 260 282 281
3 261 262 283
3 261 283 282
3 262 263 284
3 262 284 283
3 263 264 285
3 263 285 284
3 264 265 286
3 264 286 285
3 265 266 287
3 265 287 286
3 266 267 288
3 266 288 287
3 267 268 289
3 267 289 288
3 268 269 290
3 268 290 289
3 269 270 291
3 269 291 290
3 270 271 292
3 270 292 291
3 271 272 293
3 271 293 292
3 273 274 295
3 273 295 294
3 274 275 296
3 274 296 295
3 275 276 297
3 275 297 296
3 276 277 298
3 276 298 297
3 277 278 299
3 277 299 298
3 278 279 300
3 278 300 299
3 279 280 301
3 279 301 300
3 280 281 302
3 280 302 301
3 281 282 303
3 281 303 302
3 282 283 304
3 282 304 303
3 283 284 305
3 283 305 304
3 284 285 306
3 284 306 305
3 285 286 307
3 285 307 306
3 286 287 308
3 286 308 307
3 287 288 309
3 287 309 308
3 288 289 310
3 288 310 309
3 289 290 311
3 289 311 310
3 290 291 312
3 290 312 311
3 291 292 313
3 291 313 312
3 292 293 314
3 292 314 313
3 294 295 316
3 294 316 315
3 295 296 317
3 295 317 316
3 296 297 318
3 296 318 317
3 297 298 319
3 297 319 318
3 298 299 320
3 298 320 319
3 299 300 321
3 299 321 320
3 300 301 322
3 300 322 321
3 301 302 323
3 301 323 322
3 302 303 324
3 302 324 323
3 303 304 325
3 303 325 324
3 304 305 326
3 304 326 325
3 305 306 327
3 305 327 326
3 306 307 328
3 306 328 327
3 307 308 329
3 307 329 328
3 308 309 330
3 308 330 329
3 309 310 331
3 309 331 330
3 310 311 332
3 310 332 331
3 311 312 333
3 311 333 332
3 312 313 334
3 312 334 333
3 313 314 335
3 313 335 334
3 315 316 337
3 315 337 336
3 316 317 338
3 316 338 337
3 317 318 339
3 317 339 338
3 318 319 340
3 318 340 339
3 319 320 341
3 319 341 340
3 320 321 342
3 320 342 341
3 321 322 343
3 321 343 342
3 322 323 344
3 322 344 343
3 323 324 345
3 323 345 344
3 324 325 346
3 324 346 345
3 325 326 347
3 325 347 346
3 326 327 348
3 326 348 347
3 327 328 349
3 327 349 348
3 328 329 350
3 328 350 349
3 329 330 351
3 329 351 350
3 330 331 352
3 330 352 351
3 331 332 353
3 331 353 352
3 332 333 354
3 332 354 353
3 333 334 355
3 333 355 354
3 334 335 356
3 334 356 355
3 336 337 358
3 336 358 357
3 337 338 359
3 337 359 358
3 338 339 360
3 338 360 359
3 339 340 361
3 339 361 360
3 340 341 362
3 340 362 361
3 341 342 363
3 341 363 362
3 342 343 364
3 342 364 363
3 343 344 365
3 343 365 364
3 344 345 366
3 344 366 365
3 345 346 367
3 345 367 366
3 346 347 368
3 346 368 367
3 347 348 369
3 347 369 368
3 348 349 370
3 348 370 369
3 349 350 371
3 349 371 370
3 350 351 372
3 350 372 371
3 351 352 373
3 351 373 372
3 352 353 374
3 352 374 373
3 353 354 375
3 353 375 374
3 354 355 376
3 354 376 375
3 355 356 377
3 355 377 376
3 357 358 379
3 357 379 378
3 358 359 380
3 358 380 379
3 359 360 381
3 359 381 380
3 360 361 382
3 360 382 381
3 361 362 383
3 361 383 382
3 362 363 384
3 362 384 383
3 363 364 385
3 363 385 384
3 364 365 386
3 364 386 385
3 365 366 387
3 365 387 386
3 366 367 388
3 366 388 387
3 367 368 389
3 367 389 388
3 368 369 390
3 368 390 389
3 369 370 391
3 369 391 390
3 370 371 392
3 370 392 391
3 371 372 393
3 371 393 392
3 372 373 394
3 372 394 393
3 373 374 395
3 373 395 394
3 374 375 396
3 374 396 395
3 375 376 397
3 375 397 396
3 376 377 398
3 376 398 397
3 378 379 400
3 378 400 399
3 379 380 401
3 379 401 400
3 380 381 402
3 380 402 401
3 381 382 403
3 381 403 402
3 382 383 404
3 382 404 403
3 383 384 405
3 383 405 404
3 384 385 406
3 384 406 405
3 385 386 407
3 385 407 406
3 386 387 408
3 386 408 407
3 387 388 409
3 387 409 408
3 388 389 410
3 388 410 409
3 389 390 411
3 389 411 410
3 390 391 412
3 390 412 411
3 391 392 413
3 391 413 412
3 392 393 414
3 392 414 413
3 393 394 415
3 393 415 414
3 394 395 416
3 394 416 415
3 395 396 417
3 395 417 416
3 396 397 418
3 396 418 417
3 397 398 419
3 397 419 418
3 399 400 421
3 399 421 420
3 400 401 422
3 400 422 421
3 401 402 423
3 401 423 422
3 402 403 424
3 402 424 423
3 403 404 425
3 403 425 424
3 404 405 426
3 404 426 425
3 405 406 427
3 405 427 426
3 406 407 428
3 406 428 427
3 407 408 429
3 407 429 428
3 408 409 430
3 408 430 429
3 409 410 431
3 409 431 430
3 410 411 432
3 410 432 431
3 411 412 433
3 411 433 432
3 412 413 434
3 412 434 433
3 413 414 435
3 413 435 434
3 414 415 436
3 414 436 435
3 415 416 437
3 415 437 436
3 416 417 438
3 416 438 437
3 417 418 439
3 417 439 438
3 418 419 440
3 418 440 439
CELL_TYPES 800
5
5
5
5
5
5
5
5
5
5
5
5
5
5
5
5
5
5
5
5
5
5
5
5
5
5
5
5
5
5
5
5
5
5
5
5
5
5
5
5
5
5
5
5
5
5
5
5
5
5
5
5
5
5
5
5
5
5
5
5
5
5
5
5
5
5
5
5
5
5
5
5
5
5
5
5
5
5
5
5
5
5
5
5
5
5
5
5
5
5
5
5
5
5
5
5
5
5
5
5
5
5
5
5
5
5
5
5
5
5
5
5
5
5
5
5
5
5
5
5
5
5
5
5
5
5
5
5
5
5
5
5
5
5
5
5
5
5
5
5
5
5
5
5
5
5
5
5
5
5
5
5
5
5
5
5
5
5
5
5
5
5
5
5
5
5
5
5
5
5
5
5
5
5
5
5
5
5
5
5
5
5
5
5
5
5
5
5
5
5
5
5
5
5
5
5
5
5
5
5
5
5
5
5
5
5
5
5
5
5
5
5
5
5
5
5
5
5
5
5
5
5
5
5
5
5
5
5
5
5
5
5
5
5
5
5
5
5
5
5
5
5
5
5
5
5
5
5
5
5
5
5
5
5
5
5
5
5
5
5
5
5
5
5
5
5
5
5
5
5
5
5
5
5
5
5
5
5
5
5
5
5
5
5
5
5
5
5
5
5
5
5
5
5
5
5
5
5
5
5
5
5
5
5
5
5
5
5
5
5
5
5
5
5
5
5
5
5
5
5
5
5
5
5
5
5
5
5
5
5
5
5
5
5
5
5
5
5
5
5
5
5
5
5
5
5
5
5
5
5
5
5
5
5
5
5
5
5
5
5
5
5
5
5
5
5
5
5
5
5
5
5
5
5
5
5
5
5
5
5
5
5
5
5
5
5
5
5
5
5
5
5
5
5
5
5
5
5
5
5
5
5
5
5
5
5
5
5
5
5
5
5
5
5
5
5
5
5
5
5
5
5
5
5
5
5
5
5
5
5
5
5
5
5
5
5
5
5
5
5
5
5
5
5
5
5
5
5
5
5
5
5
5
5
5
5
5
5
5
5
5
5
5
5
5
5
5
5
5
5
5
5
5
5
5
5
5
5
5
5
5
5
5
5
5
5
5
5
5
5
5
5
5
5
5
5
5
5
5
5
5
5
5
5
5
5
5
5
5
5
5
5
5
5
5
5
5
5
5
5
5
5
5
5
5
5
5
5
5
5
5
5
5
5
5
5
5
5
5
5
5
5
5
5
5
5
5
5
5
5
5
5
5
5
5
5
5
5
5
5
5
5
5
5
5
5
5
5
5
5
5
5
5
5
5
5
5
5
5
5
5
5
5
5
5
5
5
5
5
5
5
5
5
5
5
5
5
5
5
5
5
5
5
5
5
5
5
5
5
5
5
5
5
5
5
5
5
5
5
5
5
5
5
5
5
5
5
5
5
5
5
5
5
5
5
5
5
5
5
5
5
5
5
5
5
5
5
5
5
5
5
5
5
5
5
5
5
5
5
5
5
5
5
5
5
5
5
5
5
5
5
5
5
5
5
5
5
5
5
5
5
5
5
5
5
5
5
5
5
5
5
5
5
5
5
5
5
5
5
5
5
5
5
5
5
5
5
5
5
5
5
5
5
5
5
5
5
5
5
5
5
5
5
5
5
5
5
5
5
5
5
5
5
5
5
5
5
5
5
5
5
5
5
5
5
5
5
5
5
5
5
5
5
5
5
5
5
5
5
5
5
5
5
5
5
5
5
5
5
5
5
5
5
5
5
5
5
5
5
5
5
5
5
5
5
5
5
5
5
5
5
5
5
5
5
5
5
5
5
5
CELL_DATA 800
VECTORS Et double
0.0273519 -0.129935 0
-0.020457 -0.0273869 0
0.0265647 -0.283684 0
-0.0196141 -0.184114 0
0.0251219 -0.430268 0
-0.0185684 -0.335852 0
0.0230595 -0.566246 0
-0.0172423 -0.479137 0
0.0204278 -0.688277 0
-0.0155037 -0.610612 0
0.0172919 -0.793366 0
-0.0134013 -0.727043 0
0.0137289 -0.878919 0
-0.0109676 -0.825576 0
0.00982674 -0.94283 0
-0.00826945 -0.903777 0
0.00568142 -0.983523 0
-0.00537395 -0.959721 0
0.00139503 -0.999999 0
-0.00235236 -0.992031 0
-0.00292687 -0.991851 0
0.000721083 -0.99991 0
-0.00717786 -0.959281 0
0.00377089 -0.983166 0
-0.0112533 -0.903089 0
0.00672233 -0.942211 0
-0.0150528 -0.824659 0
0.00950363 -0.878052 0
-0.018483 -0.725917 0
0.0120488 -0.792269 0
-0.0214593 -0.609282 0
0.0143044 -0.68697 0
-0.0239087 -0.477573 0
0.0162523 -0.564733 0
-0.0257715 -0.334116 0
0.0177094 -0.428516 0
-0.0270001 -0.183262 0
0.017908 -0.281757 0
-0.0275602 -0.0275602 0
0.0188381 -0.12889 0
0.0339105 -0.124141 0
-0.00951536 -0.0268672 0
0.0334183 -0.272554 0
-0.00917176 -0.17744 0
0.0318189 -0.414041 0
-0.00844306 -0.323877 0
0.0292552 -0.545345 0
-0.00791868 -0.462123 0
0.0259571 -0.66321 0
-0.00719579 -0.588999 0
0.0219994 -0.764729 0
-0.00631591 -0.701358 0
0.017499 -0.847414 0
-0.00529846 -0.796429 0
0.0125598 -0.909231 0
-0.00416516 -0.871884 0
0.00730264 -0.948659 0
-0.00294318 -0.925867 0
0.00185721 -0.964728 0
-0.00166216 -0.957048 0
-0.0036423 -0.957043 0
-0.0003533 -0.964661 0
-0.00906028 -0.925792 0
0.000951438 -0.94852 0
-0.014263 -0.871745 0
0.00222032 -0.90902 0
-0.0191214 -0.796234 0
0.00342291 -0.847136 0
-0.0235135 -0.701118 0
0.0045316 -0.764391 0
-0.027322 -0.588744 0
0.00552434 -0.662822 0
-0.030416 -0.461917 0
0.00637935 -0.544936 0
-0.0328548 -0.323734 0
0.00700345 -0.413673 0
-0.0353059 -0.177347 0
0.00688526 -0.272242 0
-0.0357137 -0.0271804 0
0.00695238 -0.123873 0
0.0435198 -0.121394 0
0.000106308 -0.0259065 0
0.0425647 -0.266127 0
0.000174252 -0.17294 0
0.0407148 -0.404378 0
0.000366154 -0.315767 0
0.0374478 -0.532655 0
0.00021619 -0.450886 0
0.0332601 -0.647814 0
4.42105e-05 -0.574884 0
0.0282309 -0.747019 0
-0.000156216 -0.684722 0
0.0224864 -0.827828 0
-0.00037761 -0.777695 0
0.0161715 -0.888252 0
-0.000611812 -0.851514 0
0.00944225 -0.926803 0
-0.000851647 -0.904363 0
0.002465 -0.942534 0
-0.00109045 -0.934941 0
-0.00458815 -0.935057 0
-0.00132193 -0.942496 0
-0.0115432 -0.904556 0
-0.00154016 -0.926842 0
-0.0182287 -0.851784 0
-0.0017397 -0.888364 0
-0.024479 -0.778041 0
-0.00191555 -0.828012 0
-0.0301384 -0.685145 0
-0.00206341 -0.747272 0
-0.0350623 -0.575395 0
-0.00218094 -0.648135 0
-0.0391268 -0.451506 0
-0.00226623 -0.533053 0
-0.0423038 -0.316508 0
-0.00235496 -0.404872 0
-0.0450087 -0.173619 0
-0.00285054 -0.26673 0
-0.0462512 -0.0263571 0
-0.0029228 -0.121922 0
0.0509428 -0.115196 0
0.00972369 -0.0245236 0
0.0497686 -0.252596 0
0.00956454 -0.164151 0
0.0474926 -0.383817 0
0.0092551 -0.299744 0
0.0437122 -0.505592 0
0.00841313 -0.427993 0
0.0388365 -0.614921 0
0.00734281 -0.545708 0
0.0329751 -0.709111 0
0.0060606 -0.649987 0
0.026275 -0.78584 0
0.00459966 -0.73826 0
0.0189038 -0.843219 0
0.00299803 -0.808354 0
0.0110446 -0.879835 0
0.00129647 -0.858541 0
0.00289161 -0.894787 0
-0.000462339 -0.887587 0
-0.00535392 -0.887707 0
-0.0022347 -0.894776 0
-0.0134888 -0.85877 0
-0.00397693 -0.879932 0
-0.0213125 -0.808689 0
-0.00564645 -0.843419 0
-0.0286326 -0.738698 0
-0.0072029 -0.78614 0
-0.0352686 -0.650524 0
-0.0086094 -0.709504 0
-0.0410587 -0.546342 0
-0.00983412 -0.615402 0
-0.045861 -0.428725 0
-0.0108496 -0.506156 0
-0.049595 -0.30054 0
-0.0116356 -0.384461 0
-0.052574 -0.164887 0
-0.0125455 -0.253288 0
-0.0539058 -0.0251035 0
-0.0127952 -0.115808 0
0.0575324 -0.107102 0
0.0191971 -0.0227409 0
0.0562089 -0.234946 0
0.0188283 -0.152667 0
0.0535816 -0.357048 0
0.0180281 -0.278832 0
0.0493286 -0.470361 0
0.0165115 -0.398172 0
0.0438378 -0.572098 0
0.0145607 -0.50771 0
0.0372348 -0.659752 0
0.012217 -0.60475 0
0.0296838 -0.731163 0
0.00953992 -0.686901 0
0.0213728 -0.784571 0
0.00659703 -0.752138 0
0.0125079 -0.81866 0
0.00346178 -0.798856 0
0.00330824 -0.832592 0
0.00021199 -0.825902 0
-0.00599933 -0.826024 0
-0.00307201 -0.83261 0
-0.0151855 -0.799116 0
-0.00630947 -0.818817 0
-0.0240245 -0.752533 0
-0.00942132 -0.78486 0
-0.0322994 -0.687422 0
-0.0123323 -0.731578 0
-0.0398079 -0.605389 0
-0.0149731 -0.660283 0
-0.046368 -0.508455 0
-0.0172815 -0.572732 0
-0.0518208 -0.399005 0
-0.0191998 -0.471084 0
-0.056037 -0.279722 0
-0.0206755 -0.357838 0
-0.0592856 -0.1535 0
-0.0220135 -0.235771 0
-0.0607234 -0.0234376 0
-0.0224536 -0.107845 0
0.0631981 -0.0972761 0
0.0283563 -0.0205871 0
0.0617613 -0.213483 0
0.0278089 -0.138707 0
0.0588314 -0.32447 0
0.0265441 -0.253391 0
0.0541787 -0.427474 0
0.0243771 -0.36187 0
0.0481631 -0.51996 0
0.0215767 -0.461444 0
0.0409256 -0.59965 0
0.0182098 -0.549664 0
0.0326466 -0.664576 0
0.0143613 -0.624353 0
0.0235317 -0.71314 0
0.0101267 -0.68367 0
0.0138063 -0.744144 0
0.00561042 -0.726153 0
0.0037106 -0.756826 0
0.00092429 -0.750756 0
-0.0065065 -0.750872 0
-0.00381606 -0.756873 0
-0.0165935 -0.72643 0
-0.00849403 -0.744352 0
-0.0263027 -0.684101 0
-0.0129952 -0.713502 0
-0.0353965 -0.624927 0
-0.0172105 -0.665083 0
-0.0436532 -0.550367 0
-0.0210393 -0.600287 0
-0.0508726 -0.462259 0
-0.0243918 -0.52071 0
-0.056876 -0.362776 0
-0.027186 -0.428315 0
-0.0615106 -0.254364 0
-0.0293421 -0.325379 0
-0.0650036 -0.139639 0
-0.0310975 -0.214434 0
-0.0665407 -0.0213873 0
-0.0316953 -0.0981569 0
0.0678316 -0.0860395 0
0.036875 -0.0180973 0
0.0663297 -0.188793 0
0.0362785 -0.12266 0
0.0631576 -0.286934 0
0.0345816 -0.224071 0
0.0581806 -0.378037 0
0.0317896 -0.32 0
0.0517369 -0.45985 0
0.0281859 -0.408074 0
0.043983 -0.530346 0
0.0238649 -0.486119 0
0.0351122 -0.587784 0
0.0189252 -0.552199 0
0.0253435 -0.63075 0
0.0134859 -0.604684 0
0.014918 -0.658186 0
0.00768117 -0.642279 0
0.00409285 -0.669415 0
0.00165468 -0.66406 0
-0.00686509 -0.664161 0
-0.00444478 -0.669489 0
-0.0176861 -0.642553 0
-0.010467 -0.658433 0
-0.0281045 -0.605122 0
-0.0162641 -0.631164 0
-0.0378655 -0.552788 0
-0.0216949 -0.588351 0
-0.0467321 -0.48684 0
-0.0266287 -0.53105 0
-0.0544905 -0.408904 0
-0.030954 -0.460668 0
-0.0609503 -0.320921 0
-0.034583 -0.378942 0
-0.0659418 -0.225088 0
-0.0374252 -0.287907 0
-0.069633 -0.123675 0
-0.039581 -0.189833 0
-0.0712185 -0.0189863 0
-0.040184 -0.0870445 0
0.0711809 -0.072965 0
0.0450502 -0.0153129 0
0.0697584 -0.15992 0
0.0447686 -0.104178 0
0.0664071 -0.242927 0
0.042695 -0.189993 0
0.0611766 -0.320027 0
0.039239 -0.271117 0
0.0544102 -0.389278 0
0.0348297 -0.345639 0
0.0462804 -0.448949 0
0.0295654 -0.411682 0
0.0369798 -0.497564 0
0.0235484 -0.467594 0
0.0267347 -0.533928 0
0.0169167 -0.511991 0
0.0157981 -0.557145 0
0.00983495 -0.54378 0
0.00443969 -0.566643 0
0.00247894 -0.562181 0
-0.00706023 -0.562188 0
-0.00496934 -0.566739 0
-0.0184184 -0.54389 0
-0.0123262 -0.557343 0
-0.0293558 -0.512197 0
-0.0194103 -0.534222 0
-0.0396044 -0.467888 0
-0.0260473 -0.497946 0
-0.0489151 -0.412048 0
-0.0320748 -0.449404 0
-0.0570687 -0.346058 0
-0.0373644 -0.389786 0
-0.0638834 -0.27159 0
-0.0418481 -0.320567 0
-0.0691907 -0.190565 0
-0.045456 -0.243497 0
-0.0730309 -0.10485 0
-0.0480542 -0.160561 0
-0.074496 -0.0162748 0
-0.0486172 -0.0736709 0
0.0736288 -0.0576838 0
0.0537718 -0.0122805 0
0.0726621 -0.12671 0
0.0538572 -0.0829826 0
0.0692133 -0.192608 0
0.0513722 -0.151086 0
0.0637296 -0.253886 0
0.0471644 -0.215462 0
0.0566898 -0.308927 0
0.0419169 -0.274655 0
0.0482569 -0.35636 0
0.0356568 -0.327101 0
0.0386114 -0.395018 0
0.0284956 -0.371492 0
0.0279807 -0.423949 0
0.020598 -0.406735 0
0.0166279 -0.442442 0
0.0121613 -0.431964 0
0.00483416 -0.450041 0
0.00339574 -0.446559 0
-0.00710927 -0.446558 0
-0.00548199 -0.450158 0
-0.018908 -0.432079 0
-0.0142528 -0.442674 0
-0.0302714 -0.406959 0
-0.0227003 -0.42429 0
-0.0409195 -0.371814 0
-0.0306151 -0.395458 0
-0.0505914 -0.327506 0
-0.0378003 -0.356886 0
-0.0590688 -0.275118 0
-0.044098 -0.309518 0
-0.0662055 -0.21598 0
-0.0494607 -0.254515 0
-0.0718673 -0.151707 0
-0.0539192 -0.193269 0
-0.0758708 -0.0837169 0
-0.0570007 -0.127446 0
-0.0771564 -0.0132966 0
-0.0574483 -0.0585002 0
0.0761583 -0.0457287 0
0.0586425 -0.00905347 0
0.0757049 -0.10112 0
0.0579655 -0.0647002 0
0.0721438 -0.154167 0
0.0551209 -0.119397 0
0.0663523 -0.203394 0
0.0506451 -0.171305 0
0.0590489 -0.247568 0
0.0450718 -0.218976 0
0.0503117 -0.285647 0
0.0383614 -0.261208 0
0.0403133 -0.3167 0
0.0306809 -0.297012 0
0.0292887 -0.339959 0
0.022217 -0.325511 0
0.017512 -0.354849 0
0.0131802 -0.346 0
0.0052757 -0.361002 0
0.00379433 -0.357973 0
-0.00711793 -0.358267 0
-0.00570908 -0.361134 0
-0.0193632 -0.346709 0
-0.0150958 -0.355403 0
-0.0311583 -0.326614 0
-0.0241346 -0.340923 0
-0.0422111 -0.298477 0
-0.0326024 -0.318049 0
-0.0522477 -0.262993 0
-0.0402883 -0.287346 0
-0.0610394 -0.221019 0
-0.0470052 -0.24957 0
-0.0684769 -0.173509 0
-0.052628 -0.205639 0
-0.0745412 -0.121602 0
-0.0572303 -0.156553 0
-0.0787247 -0.0667768 0
-0.0605868 -0.103486 0
-0.079745 -0.0100978 0
-0.060962 -0.0479365 0
0.0749847 -0.0551803 0
0.040451 -0.00667892 0
0.0739129 -0.11695 0
0.0395783 -0.0690011 0
0.0702878 -0.175424 0
0.0380668 -0.130265 0
0.0646616 -0.228959 0
0.035562 -0.187913 0
0.0575935 -0.276836 0
0.0317327 -0.240314 0
0.0490813 -0.317929 0
0.0270478 -0.286779 0
0.0393364 -0.351212 0
0.0216898 -0.326217 0
0.0285964 -0.375853 0
0.0157865 -0.357643 0
0.017128 -0.391241 0
0.00947731 -0.38027 0
0.00521479 -0.396997 0
0.00291575 -0.393537 0
-0.00684955 -0.392978 0
-0.00373686 -0.397116 0
-0.0187677 -0.379282 0
-0.0103169 -0.390919 0
-0.0302459 -0.356248 0
-0.0166628 -0.375097 0
-0.0410012 -0.324446 0
-0.0226201 -0.350042 0
-0.050766 -0.284668 0
-0.0280453 -0.316372 0
-0.059302 -0.237898 0
-0.0328037 -0.274927 0
-0.0664388 -0.185235 0
-0.0367568 -0.226733 0
-0.072211 -0.127543 0
-0.0396391 -0.172922 0
-0.0763693 -0.0666775 0
-0.0421371 -0.11439 0
-0.0771713 -0.00725155 0
-0.0452417 -0.0530082 0
0.0526339 -0.0357462 0
0.0324712 -0.00503974 0
0.0514536 -0.0766351 0
0.0312775 -0.0461829 0
0.0493547 -0.11576 0
0.0300466 -0.0866882 0
0.0459893 -0.152227 0
0.0279649 -0.125187 0
0.0410441 -0.184884 0
0.0250043 -0.160798 0
0.0350159 -0.212972 0
0.0213157 -0.192391 0
0.0281201 -0.235814 0
0.0170846 -0.219231 0
0.0205221 -0.25285 0
0.0124229 -0.240671 0
0.0124028 -0.26366 0
0.00744188 -0.256188 0
0.00396052 -0.267979 0
0.00226265 -0.265398 0
-0.00459727 -0.265699 0
-0.00298767 -0.268075 0
-0.01306 -0.256878 0
-0.00818014 -0.264153 0
-0.0212197 -0.241731 0
-0.0131875 -0.253727 0
-0.0288772 -0.220633 0
-0.0178881 -0.237056 0
-0.035847 -0.194102 0
-0.0221687 -0.214549 0
-0.0419564 -0.162787 0
-0.0259175 -0.186761 0
-0.0470333 -0.127461 0
-0.029029 -0.154371 0
-0.0507843 -0.0891118 0
-0.0313699 -0.11818 0
-0.0538731 -0.0484356 0
-0.0332759 -0.0791947 0
-0.0572833 -0.00546603 0
-0.035044 -0.0381285 0
0.0416743 -0.0288225 0
0.0246476 -0.00381619 0
0.0402513 -0.0608323 0
0.0239163 -0.0367211 0
0.0385778 -0.0915759 0
0.0228258 -0.0684379 0
0.0358463 -0.120218 0
0.0211496 -0.0987048 0
0.0320439 -0.145938 0
0.0188849 -0.126697 0
0.0273415 -0.168042 0
0.0161067 -0.15161 0
0.0219498 -0.185999 0
0.0129064 -0.172768 0
0.0160087 -0.199373 0
0.00937466 -0.189663 0
0.0096612 -0.207836 0
0.0055995 -0.201887 0
0.00306194 -0.211183 0
0.00167417 -0.209139 0
-0.00362702 -0.209329 0
-0.00230479 -0.211243 0
-0.0102413 -0.202321 0
-0.00623965 -0.208146 0
-0.0166186 -0.190331 0
-0.010034 -0.199926 0
-0.0226035 -0.173653 0
-0.0135949 -0.186783 0
-0.0280511 -0.152695 0
-0.0168357 -0.169041 0
-0.0328206 -0.127977 0
-0.019675 -0.147134 0
-0.0367815 -0.100117 0
-0.0220364 -0.121604 0
-0.0397793 -0.0698797 0
-0.0238749 -0.0930907 0
-0.0421331 -0.0378496 0
-0.0252969 -0.0623749 0
-0.0441321 -0.00413092 0
-0.0260942 -0.0300521 0
0.0316262 -0.0226093 0
0.0179881 -0.00290442 0
0.0307216 -0.0476302 0
0.0176191 -0.0286147 0
0.0292937 -0.0715076 0
0.0168164 -0.0534137 0
0.0271231 -0.0937098 0
0.0155253 -0.0769285 0
0.0242187 -0.113623 0
0.0138566 -0.0986365 0
0.0206709 -0.130736 0
0.0118226 -0.117935 0
0.0165896 -0.144625 0
0.00947889 -0.13433 0
0.0120873 -0.15495 0
0.0068877 -0.147412 0
0.00727564 -0.161459 0
0.00411578 -0.156863 0
0.0022735 -0.163992 0
0.00123226 -0.162451 0
-0.00279613 -0.162487 0
-0.00169162 -0.16404 0
-0.00780865 -0.15698 0
-0.00458391 -0.16159 0
-0.0126411 -0.147608 0
-0.00737361 -0.155162 0
-0.017175 -0.1346 0
-0.00999231 -0.144913 0
-0.0212996 -0.118275 0
-0.0123754 -0.131096 0
-0.0249117 -0.0990367 0
-0.0144646 -0.11405 0
-0.0279158 -0.0773665 0
-0.0162095 -0.0941949 0
-0.030251 -0.0537908 0
-0.0175643 -0.0720284 0
-0.0320111 -0.0288657 0
-0.0186292 -0.0480891 0
-0.0329818 -0.00313528 0
-0.0191642 -0.0229418 0
0.0233111 -0.0171103 0
0.0130766 -0.00222867 0
0.02281 -0.0362202 0
0.0128297 -0.0217104 0
0.02175 -0.054446 0
0.0122567 -0.0406502 0
0.0200816 -0.0713418 0
0.0113085 -0.0585982 0
0.0179247 -0.086495 0
0.0100869 -0.0751152 0
0.0153035 -0.0995222 0
0.00860628 -0.0897976 0
0.0122878 -0.110099 0
0.00690128 -0.102274 0
0.00895627 -0.117964 0
0.00501591 -0.112233 0
0.00539393 -0.122924 0
0.00299794 -0.119428 0
0.00168928 -0.124857 0
0.000897881 -0.123683 0
-0.00206623 -0.123715 0
-0.00123222 -0.124892 0
-0.00578017 -0.119526 0
-0.00333984 -0.123027 0
-0.00936132 -0.112394 0
-0.00537317 -0.118133 0
-0.0127217 -0.102493 0
-0.00728226 -0.11033 0
-0.0157786 -0.0900681 0
-0.00902025 -0.0998101 0
-0.0184567 -0.0754244 0
-0.0105448 -0.0868324 0
-0.0206915 -0.0589229 0
-0.011819 -0.0717169 0
-0.0224247 -0.0409663 0
-0.0128049 -0.0548357 0
-0.0237471 -0.0219556 0
-0.0135738 -0.036601 0
-0.0244144 -0.00239654 0
-0.0139757 -0.0174203 0
0.0171777 -0.0132979 0
0.00922223 -0.00173504 0
0.0168288 -0.0281506 0
0.00906269 -0.0168686 0
0.0160577 -0.0423196 0
0.00866679 -0.0315891 0
0.0148185 -0.0554461 0
0.00799675 -0.0455423 0
0.0132206 -0.0672128 0
0.00713138 -0.0583744 0
0.0112873 -0.0773289 0
0.00608341 -0.0697755 0
0.00906445 -0.0855425 0
0.0048783 -0.0794636 0
0.00660868 -0.0916502 0
0.00354583 -0.0871974 0
0.00398176 -0.0955011 0
0.00211934 -0.0927851 0
0.00124917 -0.0970002 0
0.000634363 -0.0960886 0
-0.00152148 -0.0961107 0
-0.000872294 -0.0970266 0
-0.00426191 -0.0928541 0
-0.00236344 -0.0955758 0
-0.00690471 -0.0873107 0
-0.00380238 -0.0917717 0
-0.00938491 -0.0796166 0
-0.00515377 -0.0857079 0
-0.0116416 -0.0699612 0
-0.00638445 -0.0775336 0
-0.0136195 -0.0585822 0
-0.00746464 -0.0674499 0
-0.0152708 -0.0457585 0
-0.00836703 -0.055705 0
-0.0165479 -0.031806 0
-0.00906428 -0.0425869 0
-0.0175149 -0.0170483 0
-0.00961402 -0.0284189 0
-0.0180187 -0.00185447 0
-0.00990143 -0.0135293 0
0.0124364 -0.0105679 0
0.00611385 -0.00138316 0
0.0121968 -0.0223582 0
0.00602905 -0.0134009 0
0.0116454 -0.0336043 0
0.00577683 -0.0250861 0
0.0107471 -0.0440226 0
0.00533048 -0.0361607 0
0.00958656 -0.0533607 0
0.00475227 -0.0463453 0
0.00818365 -0.0613879 0
0.00405288 -0.0553932 0
0.00657253 -0.0679053 0
0.00324939 -0.0630807 0
0.00479294 -0.0727514 0
0.00236137 -0.0692172 0
0.00288917 -0.0758064 0
0.00141059 -0.0736507 0
0.000908505 -0.0769948 0
0.000420605 -0.0762715 0
-0.00110006 -0.0762871 0
-0.000584098 -0.0770147 0
-0.00308698 -0.0737006 0
-0.00157873 -0.0758618 0
-0.00500334 -0.0692988 0
-0.00253879 -0.072841 0
-0.00680205 -0.0631899 0
-0.00344072 -0.0680267 0
-0.00843892 -0.0555242 0
-0.00426241 -0.061537 0
-0.00987414 -0.0464899 0
-0.00498379 -0.0535317 0
-0.0110717 -0.0363107 0
-0.00558815 -0.0442074 0
-0.0119969 -0.0252332 0
-0.00605019 -0.0337949 0
-0.0127018 -0.0135198 0
-0.00642686 -0.0225466 0
-0.0130689 -0.0014644 0
-0.00662623 -0.0107287 0
0.00870369 -0.00868712 0
0.0035121 -0.00114443 0
0.00855419 -0.0184177 0
0.00344181 -0.0110139 0
0.00817632 -0.0276402 0
0.00336994 -0.0206577 0
0.00754592 -0.036203 0
0.00309012 -0.029739 0
0.00672971 -0.0438789 0
0.00275191 -0.0381098 0
0.00574418 -0.0504762 0
0.002346 -0.0455472 0
0.00461344 -0.0558321 0
0.00187992 -0.0518654 0
0.00336506 -0.0598139 0
0.00136506 -0.0569083 0
0.00202968 -0.0623232 0
0.00081376 -0.0605512 0
0.000640323 -0.0632981 0
0.000239554 -0.0627039 0
-0.000768709 -0.0627141 0
-0.00034339 -0.0633131 0
-0.00216267 -0.0605856 0
-0.000920698 -0.0623636 0
-0.00350723 -0.0569647 0
-0.00147816 -0.0598786 0
-0.00476936 -0.0519404 0
-0.00200209 -0.0559191 0
-0.00591808 -0.0456362 0
-0.00247968 -0.0505823 0
-0.00692527 -0.0382071 0
-0.00289927 -0.0439995 0
-0.00776717 -0.029834 0
-0.00325007 -0.0363324 0
-0.00841273 -0.0207418 0
-0.00353356 -0.0277679 0
-0.00891428 -0.0111099 0
-0.00374831 -0.0185355 0
-0.00917771 -0.00119429 0
-0.00387113 -0.00881778 0
0.00568892 -0.00740165 0
0.00131734 -0.000998841 0
0.00556392 -0.0156676 0
0.00128662 -0.00941115 0
0.00538594 -0.0236 0
0.00126727 -0.0176018 0
0.00495134 -0.0309185 0
0.00117999 -0.0254123 0
0.00441294 -0.0374838 0
0.00104159 -0.0325649 0
0.00376635 -0.0431271 0
0.000885745 -0.038924 0
0.00302503 -0.0477091 0
0.000707143 -0.0443259 0
0.00220715 -0.0511169 0
0.000509866 -0.0486374 0
0.0013325 -0.0532664 0
0.000298664 -0.0517523 0
0.000422586 -0.0541044 0
7.86435e-05 -0.0535936 0
-0.000500174 -0.05361 0
-0.000144783 -0.0541156 0
-0.00141304 -0.0517952 0
-0.00036611 -0.0533055 0
-0.00229354 -0.0487045 0
-0.000579892 -0.0511828 0
-0.00312004 -0.0444139 0
-0.000780879 -0.0477997 0
-0.00387227 -0.0390285 0
-0.000964179 -0.0432392 0
-0.00453183 -0.0326803 0
-0.00112488 -0.0376133 0
-0.00508203 -0.0255253 0
-0.00125913 -0.0310598 0
-0.00551944 -0.0177347 0
-0.00136908 -0.0237398 0
-0.00583895 -0.00949727 0
-0.0014601 -0.0158281 0
-0.00601579 -0.00102204 0
-0.0015226 -0.00751698 0
0.00325856 -0.00700235 0
-0.000933805 -0.000933805 0
0.00317833 -0.0147779 0
-0.000913418 -0.00885814 0
0.00306412 -0.0222367 0
-0.000871815 -0.0165643 0
0.00283889 -0.029161 0
-0.000808958 -0.0239103 0
0.00252175 -0.0353585 0
-0.000726142 -0.030681 0
0.00215101 -0.0406857 0
-0.000625538 -0.0366876 0
0.0017267 -0.0450116 0
-0.000509685 -0.0417915 0
0.00125896 -0.0482295 0
-0.000381451 -0.0458671 0
0.000759229 -0.0502601 0
-0.000244001 -0.048814 0
0.000239707 -0.0510532 0
-0.000100723 -0.0505596 0
-0.000286818 -0.0505891 0
4.48564e-05 -0.0510608 0
-0.000807379 -0.048879 0
0.000189152 -0.0503048 0
-0.00130916 -0.0459649 0
0.000328613 -0.0483103 0
-0.00177984 -0.0419181 0
0.000459808 -0.045126 0
-0.00220787 -0.0368381 0
0.000579509 -0.0408302 0
-0.00258234 -0.03085 0
0.000684777 -0.0355282 0
-0.00289416 -0.0241009 0
0.00077303 -0.0293506 0
-0.00314104 -0.0167515 0
0.00084217 -0.0224493 0
-0.00332559 -0.00896798 0
0.000890457 -0.0149886 0
-0.00343597 -0.000933676 0
0.000916859 -0.00713704 0
