# vtk DataFile Version 3.0
tp3485 cell-vector
ASCII
DATASET UNSTRUCTURED_GRID
POINTS 441 double
0 0 0
0.05 0 0
0.1 0 0
0.15 0 0
0.2 0 0
0.25 0 0
0.3 0 0
0.35 0 0
0.4 0 0
0.45 0 0
0.5 0 0
0.55 0 0
0.6 0 0
0.65 0 0
0.7 0 0
0.75 0 0
0.8 0 0
0.85 0 0
0.9 0 0
0.95 0 0
1 0 0
0 0.05 0
0.05 0.05 0
0.1 0.05 0
0.15 0.05 0
0.2 0.05 0
0.25 0.05 0
0.3 0.05 0
0.35 0.05 0
0.4 0.05 0
0.45 0.05 0
0.5 0.05 0
0.55 0.05 0
0.6 0.05 0
0.65 0.05 0
0.7 0.05 0
0.75 0.05 0
0.8 0.05 0
0.85 0.05 0
0.9 0.05 0
0.95 0.05 0
1 0.05 0
0 0.1 0
0.05 0.1 0
0.1 0.1 0
0.15 0.1 0
0.2 0.1 0
0.25 0.1 0
0.3 0.1 0
0.35 0.1 0
0.4 0.1 0
0.45 0.1 0
0.5 0.1 0
0.55 0.1 0
0.6 0.1 0
0.65 0.1 0
0.7 0.1 0
0.75 0.1 0
0.8 0.1 0
0.85 0.1 0
0.9 0.1 0
0.95 0.1 0
1 0.1 0
0 0.15 0
0.05 0.15 0
0.1 0.15 0
0.15 0.15 0
0.2 0.15 0
0.25 0.15 0
0.3 0.15 0
0.35 0.15 0
0.4 0.15 0
0.45 0.15 0
0.5 0.15 0
0.55 0.15 0
0.6 0.15 0
0.65 0.15 0
0.7 0.15 0
0.75 0.15 0
0.8 0.15 0
0.85 0.15 0
0.9 0.15 0
0.95 0.15 0
1 0.15 0
0 0.2 0
0.05 0.2 0
0.1 0.2 0
0.15 0.2 0
0.2 0.2 0
0.25 0.2 0
0.3 0.2 0
0.35 0.2 0
0.4 0.2 0
0.45 0.2 0
0.5 0.2 0
0.55 0.2 0
0.6 0.2 0
0.65 0.2 0
0.7 0.2 0
0.75 0.2 0
0.8 0.2 0
0.85 0.2 0
0.9 0.2 0
0.95 0.2 0
1 0.2 0
0 0.25 0
0.05 0.25 0
0.1 0.25 0
0.15 0.25 0
0.2 0.25 0
0.25 0.25 0
0.3 0.25 0
0.35 0.25 0
0.4 0.25 0
0.45 0.25 0
0.5 0.25 0
0.55 0.25 0
0.6 0.25 0
0.65 0.25 0
0.7 0.25 0
0.75 0.25 0
0.8 0.25 0
0.85 0.25 0
0.9 0.25 0
0.95 0.25 0
1 0.25 0
0 0.3 0
0.05 0.3 0
0.1 0.3 0
0.15 0.3 0
0.2 0.3 0
0.25 0.3 0
0.3 0.3 0
0.35 0.3 0
0.4 0.3 0
0.45 0.3 0
0.5 0.3 0
0.55 0.3 0
0.6 0.3 0
0.65 0.3 0
0.7 0.3 0
0.75 0.3 0
0.8 0.3 0
0.85 0.3 0
0.9 0.3 0
0.95 0.3 0
1 0.3 0
0 0.35 0
0.05 0.35 0
0.1 0.35 0
0.15 0.35 0
0.2 0.35 0
0.25 0.35 0
0.3 0.35 0
0.35 0.35 0
0.4 0.35 0
0.45 0.35 0
0.5 0.35 0
0.55 0.35 0
0.6 0.35 0
0.65 0.35 0
0.7 0.35 0
0.75 0.35 0
0.8 0.35 0
0.85 0.35 0
0.9 0.35 0
0.95 0.35 0
1 0.35 0
0 0.4 0
0.05 0.4 0
0.1 0.4 0
0.15 0.4 0
0.2 0.4 0
0.25 0.4 0
0.3 0.4 0
0.35 0.4 0
0.4 0.4 0
0.45 0.4 0
0.5 0.4 0
0.55 0.4 0
0.6 0.4 0
0.65 0.4 0
0.7 0.4 0
0.75 0.4 0
0.8 0.4 0
0.85 0.4 0
0.9 0.4 0
0.95 0.4 0
1 0.4 0
0 0.45 0
0.05 0.45 0
0.1 0.45 0
0.15 0.45 0
0.2 0.45 0
0.25 0.45 0
0.3 0.45 0
0.35 0.45 0
0.4 0.45 0
0.45 0.45 0
0.5 0.45 0
0.55 0.45 0
0.6 0.45 0
0.65 0.45 0
0.7 0.45 0
0.75 0.45 0
0.8 0.45 0
0.85 0.45 0
0.9 0.45 0
0.95 0.45 0
1 0.45 0
0 0.5 0
0.05 0.5 0
0.1 0.5 0
0.15 0.5 0
0.2 0.5 0
0.25 0.5 0
0.3 0.5 0
0.35 0.5 0
0.4 0.5 0
0.45 0.5 0
0.5 0.5 0
0.55 0.5 0
0.6 0.5 0
0.65 0.5 0
0.7 0.5 0
0.75 0.5 0
0.8 0.5 0
0.85 0.5 0
0.9 0.5 0
0.95 0.5 0
1 0.5 0
0 0.55 0
0.05 0.55 0
0.1 0.55 0
0.15 0.55 0
0.2 0.55 0
0.25 0.55 0
0.3 0.55 0
0.35 0.55 0
0.4 0.55 0
0.45 0.55 0
0.5 0.55 0
0.55 0.55 0
0.6 0.55 0
0.65 0.55 0
0.7 0.55 0
0.75 0.55 0
0.8 0.55 0
0.85 0.55 0
0.9 0.55 0
0.95 0.55 0
1 0.55 0
0 0.6 0
0.05 0.6 0
0.1 0.6 0
0.15 0.6 0
0.2 0.6 0
0.25 0.6 0
0.3 0.6 0
0.35 0.6 0
0.4 0.6 0
0.45 0.6 0
0.5 0.6 0
0.55 0.6 0
0.6 0.6 0
0.65 0.6 0
0.7 0.6 0
0.75 0.6 0
0.8 0.6 0
0.85 0.6 0
0.9 0.6 0
0.95 0.6 0
1 0.6 0
0 0.65 0
0.05 0.65 0
0.1 0.65 0
0.15 0.65 0
0.2 0.65 0
0.25 0.65 0
0.3 0.65 0
0.35 0.65 0
0.4 0.65 0
0.45 0.65 0
0.5 0.65 0
0.55 0.65 0
0.6 0.65 0
0.65 0.65 0
0.7 0.65 0
0.75 0.65 0
0.8 0.65 0
0.85 0.65 0
0.9 0.65 0
0.95 0.65 0
1 0.65 0
0 0.7 0
0.05 0.7 0
0.1 0.7 0
0.15 0.7 0
0.2 0.7 0
0.25 0.7 0
0.3 0.7 0
0.35 0.7 0
0.4 0.7 0
0.45 0.7 0
0.5 0.7 0
0.55 0.7 0
0.6 0.7 0
0.65 0.7 0
0.7 0.7 0
0.75 0.7 0
0.8 0.7 0
0.85 0.7 0
0.9 0.7 0
0.95 0.7 0
1 0.7 0
0 0.75 0
0.05 0.75 0
0.1 0.75 0
0.15 0.75 0
0.2 0.75 0
0.25 0.75 0
0.3 0.75 0
0.35 0.75 0
0.4 0.75 0
0.45 0.75 0
0.5 0.75 0
0.55 0.75 0
0.6 0.75 0
0.65 0.75 0
0.7 0.75 0
0.75 0.75 0
0.8 0.75 0
0.85 0.75 0
0.9 0.75 0
0.95 0.75 0
1 0.75 0
0 0.8 0
0.05 0.8 0
0.1 0.8 0
0.15 0.8 0
0.2 0.8 0
0.25 0.8 0
0.3 0.8 0
0.35 0.8 0
0.4 0.8 0
0.45 0.8 0
0.5 0.8 0
0.55 0.8 0
0.6 0.8 0
0.65 0.8 0
0.7 0.8 0
0.75 0.8 0
0.8 0.8 0
0.85 0.8 0
0.9 0.8 0
0.95 0.8 0
1 0.8 0
0 0.85 0
0.05 0.85 0
0.1 0.85 0
0.15 0.85 0
0.2 0.85 0
0.25 0.85 0
0.3 0.85 0
0.35 0.85 0
0.4 0.85 0
0.45 0.85 0
0.5 0.85 0
0.55 0.85 0
0.6 0.85 0
0.65 0.85 0
0.7 0.85 0
0.75 0.85 0
0.8 0.85 0
0.85 0.85 0
0.9 0.85 0
0.95 0.85 0
1 0.85 0
0 0.9 0
0.05 0.9 0
0.1 0.9 0
0.15 0.9 0
0.2 0.9 0
0.25 0.9 0
0.3 0.9 0
0.35 0.9 0
0.4 0.9 0
0.45 0.9 0
0.5 0.9 0
0.55 0.9 0
0.6 0.9 0
0.65 0.9 0
0.7 0.9 0
0.75 0.9 0
0.8 0.9 0
0.85 0.9 0
0.9 0.9 0
0.95 0.9 0
1 0.9 0
0 0.95 0
0.05 0.95 0
0.1 0.95 0
0.15 0.95 0
0.2 0.95 0
0.25 0.95 0
0.3 0.95 0
0.35 0.95 0
0.4 0.95 0
0.45 0.95 0
0.5 0.95 0
0.55 0.95 0
0.6 0.95 0
0.65 0.95 0
0.7 0.95 0
0.75 0.95 0
0.8 0.95 0
0.85 0.95 0
0.9 0.95 0
0.95 0.95 0
1 0.95 0
0 1 0
0.05 1 0
0.1 1 0
0.15 1 0
0.2 1 0
0.25 1 0
0.3 1 0
0.35 1 0
0.4 1 0
0.45 1 0
0.5 1 0
0.55 1 0
0.6 1 0
0.65 1 0
0.7 1 0
0.75 1 0
0.8 1 0
0.85 1 0
0.9 1 0
0.95 1 0
1 1 0
CELLS 800 3200
3 0 1 22
3 0 22 21
3 1 2 23
3 1 23 22
3 2 3 24
3 2 24 23
3 3 4 25
3 3 25 24
3 4 5 26
3 4 26 25
3 5 6 27
3 5 27 26
3 6 7 28
3 6 28 27
3 7 8 29
3 7 29 28
3 8 9 30
3 8 30 29
3 9 10 31
3 9 31 30
3 10 11 32
3 10 32 31
3 11 12 33
3 11 33 32
3 12 13 34
3 12 34 33
3 13 14 35
3 13 35 34
3 14 15 36
3 14 36 35
3 15 16 37
3 15 37 36
3 16 17 38
3 16 38 37
3 17 18 39
3 17 39 38
3 18 19 40
3 18 40 39
3 19 20 41
3 19 41 40
3 21 22 43
3 21 43 42
3 22 23 44
3 22 44 43
3 23 24 45
3 23 45 44
3 24 25 46
3 24 46 45
3 25 26 47
3 25 47 46
3 26 27 48
3 26 48 47
3 27 28 49
3 27 49 48
3 28 29 50
3 28 50 49
3 29 30 51
3 29 51 50
3 30 31 52
3 30 52 51
3 31 32 53
3 31 53 52
3 32 33 54
3 32 54 53
3 33 34 55
3 33 55 54
3 34 35 56
3 34 56 55
3 35 36 57
3 35 57 56
3 36 37 58
3 36 58 57
3 37 38 59
3 37 59 58
3 38 39 60
3 38 60 59
3 39 40 61
3 39 61 60
3 40 41 62
3 40 62 61
3 42 43 64
3 42 64 63
3 43 44 65
3 43 65 64
3 44 45 66
3 44 66 65
3 45 46 67
3 45 67 66
3 46 47 68
3 46 68 67
3 47 48 69
3 47 69 68
3 48 49 70
3 48 70 69
3 49 50 71
3 49 71 70
3 50 51 72
3 50 72 71
3 51 52 73
3 51 73 72
3 52 53 74
3 52 74 73
3 53 54 75
3 53 75 74
3 54 55 76
3 54 76 75
3 55 56 77
3 55 77 76
3 56 57 78
3 56 78 77
3 57 58 79
3 57 79 78
3 58 59 80
3 58 80 79
3 59 60 81
3 59 81 80
3 60 61 82
3 60 82 81
3 61 62 83
3 61 83 82
3 63 64 85
3 63 85 84
3 64 65 86
3 64 86 85
3 65 66 87
3 65 87 86
3 66 67 88
3 66 88 87
3 67 68 89
3 67 89 88
3 68 69 90
3 68 90 89
3 69 70 91
3 69 91 90
3 70 71 92
3 70 92 91
3 71 72 93
3 71 93 92
3 72 73 94
3 72 94 93
3 73 74 95
3 73 95 94
3 74 75 96
3 74 96 95
3 75 76 97
3 75 97 96
3 76 77 98
3 76 98 97
3 77 78 99
3 77 99 98
3 78 79 100
3 78 100 99
3 79 80 101
3 79 101 100
3 80 81 102
3 80 102 101
3 81 82 103
3 81 103 102
3 82 83 104
3 82 104 103
3 84 85 106
3 84 106 105
3 85 86 107
3 85 107 106
3 86 87 108
3 86 108 107
3 87 88 109
3 87 109 108
3 88 89 110
3 88 110 109
3 89 90 111
3 89 111 110
3 90 91 112
3 90 112 111
3 91 92 113
3 91 113 112
3 92 93 114
3 92 114 113
3 93 94 115
3 93 115 114
3 94 95 116
3 94 116 115
3 95 96 117
3 95 117 116
3 96 97 118
3 96 118 117
3 97 98 119
3 97 119 118
3 98 99 120
3 98 120 119
3 99 100 121
3 99 121 120
3 100 101 122
3 100 122 121
3 101 102 123
3 101 123 122
3 102 103 124
3 102 124 123
3 103 104 125
3 103 125 124
3 105 106 127
3 105 127 126
3 106 107 128
3 106 128 127
3 107 108 129
3 107 129 128
3 108 109 130
3 108 130 129
3 109 110 131
3 109 131 130
3 110 111 132
3 110 132 131
3 111 112 133
3 111 133 132
3 112 113 134
3 112 134 133
3 113 114 135
3 113 135 134
3 114 115 136
3 114 136 135
3 115 116 137
3 115 137 136
3 116 117 138
3 116 138 137
3 117 118 139
3 117 139 138
3 118 119 140
3 118 140 139
3 119 120 141
3 119 141 140
3 120 121 142
3 120 142 141
3 121 122 143
3 121 143 142
3 122 123 144
3 122 144 143
3 123 124 145
3 123 145 144
3 124 125 146
3 124 146 145
3 126 127 148
3 126 148 147
3 127 128 149
3 127 149 148
3 128 129 150
3 128 150 149
3 129 130 151
3 129 151 150
3 130 131 152
3 130 152 151
3 131 132 153
3 131 153 152
3 132 133 154
3 132 154 153
3 133 134 155
3 133 155 154
3 134 135 156
3 134 156 155
3 135 136 157
3 135 157 156
3 136 137 158
3 136 158 157
3 137 138 159
3 137 159 158
3 138 139 160
3 138 160 159
3 139 140 161
3 139 161 160
3 140 141 162
3 140 162 161
3 141 142 163
3 141 163 162
3 142 143 164
3 142 164 163
3 143 144 165
3 143 165 164
3 144 145 166
3 144 166 165
3 145 146 167
3 145 167 166
3 147 148 169
3 147 169 168
3 148 149 170
3 148 170 169
3 149 150 171
3 149 171 170
3 150 151 172
3 150 172 171
3 151 152 173
3 151 173 172
3 152 153 174
3 152 174 173
3 153 154 175
3 153 175 174
3 154 155 176
3 154 176 175
3 155 156 177
3 155 177 176
3 156 157 178
3 156 178 177
3 157 158 179
3 157 179 178
3 158 159 180
3 158 180 179
3 159 160 181
3 159 181 180
3 160 161 182
3 160 182 181
3 161 162 183
3 161 183 182
3 162 163 184
3 162 184 183
3 163 164 185
3 163 185 184
3 164 165 186
3 164 186 185
3 165 166 187
3 165 187 186
3 166 167 188
3 166 188 187
3 168 169 190
3 168 190 189
3 169 170 191
3 169 191 190
3 170 171 192
3 170 192 191
3 171 172 193
3 171 193 192
3 172 173 194
3 172 194 193
3 173 174 195
3 173 195 194
3 174 175 196
3 174 196 195
3 175 176 197
3 175 197 196
3 176 177 198
3 176 198 197
3 177 178 199
3 177 199 198
3 178 179 200
3 178 200 199
3 179 180 201
3 179 201 200
3 180 181 202
3 180 202 201
3 181 182 203
3 181 203 202
3 182 183 204
3 182 204 203
3 183 184 205
3 183 205 204
3 184 185 206
3 184 206 205
3 185 186 207
3 185 207 206
3 186 187 208
3 186 208 207
3 187 188 209
3 187 209 208
3 189 190 211
3 189 211 210
3 190 191 212
3 190 212 211
3 191 192 213
3 191 213 212
3 192 193 214
3 192 214 213
3 193 194 215
3 193 215 214
3 194 195 216
3 194 216 215
3 195 196 217
3 195 217 216
3 196 197 218
3 196 218 217
3 197 198 219
3 197 219 218
3 198 199 220
3 198 220 219
3 199 200 221
3 199 221 220
3 200 201 222
3 200 222 221
3 201 202 223
3 201 223 222
3 202 203 224
3 202 224 223
3 203 204 225
3 203 225 224
3 204 205 226
3 204 226 225
3 205 206 227
3 205 227 226
3 206 207 228
3 206 228 227
3 207 208 229
3 207 229 228
3 208 209 230
3 208 230 229
3 210 211 232
3 210 232 231
3 211 212 233
3 211 233 232
3 212 213 234
3 212 234 233
3 213 214 235
3 213 235 234
3 214 215 236
3 214 236 235
3 215 216 237
3 215 237 236
3 216 217 238
3 216 238 237
3 217 218 239
3 217 239 238
3 218 219 240
3 218 240 239
3 219 220 241
3 219 241 240
3 220 221 242
3 220 242 241
3 221 222 243
3 221 243 242
3 222 223 244
3 222 244 243
3 223 224 245
3 223 245 244
3 224 225 246
3 224 246 245
3 225 226 247
3 225 247 246
3 226 227 248
3 226 248 247
3 227 228 249
3 227 249 248
3 228 229 250
3 228 250 249
3 229 230 251
3 229 251 250
3 231 232 253
3 231 253 252
3 232 233 254
3 232 254 253
3 233 234 255
3 233 255 254
3 234 235 256
3 234 256 255
3 235 236 257
3 235 257 256
3 236 237 258
3 236 258 257
3 237 238 259
3 237 259 258
3 238 239 260
3 238 260 259
3 239 240 261
3 239 261 260
3 240 241 262
3 240 262 261
3 241 242 263
3 241 263 262
3 242 243 264
3 242 264 263
3 243 244 265
3 243 265 264
3 244 245 266
3 244 266 265
3 245 246 267
3 245 267 266
3 246 247 268
3 246 268 267
3 247 248 269
3 247 269 268
3 248 249 270
3 248 270 269
3 249 250 271
3 249 271 270
3 250 251 272
3 250 272 271
3 252 253 274
3 252 274 273
3 253 254 275
3 253 275 274
3 254 255 276
3 254 276 275
3 255 256 277
3 255 277 276
3 256 257 278
3 256 278 277
3 257 258 279
3 257 279 278
3 258 259 280
3 258 280 279
3 259 260 281
3 259 281 280
3 260 261 282
3 260 282 281
3 261 262 283
3 261 283 282
3 262 263 284
3 262 284 283
3 263 264 285
3 263 285 284
3 264 265 286
3 264 286 285
3 265 266 287
3 265 287 286
3 266 267 288
3 266 288 287
3 267 268 289
3 267 289 288
3 268 269 290
3 268 290 289
3 269 270 291
3 269 291 290
3 270 271 292
3 270 292 291
3 271 272 293
3 271 293 292
3 273 274 295
3 273 295 294
3 274 275 296
3 274 296 295
3 275 276 297
3 275 297 296
3 276 277 298
3 276 298 297
3 277 278 299
3 277 299 298
3 278 279 300
3 278 300 299
3 279 280 301
3 279 301 300
3 280 281 302
3 280 302 301
3 281 282 303
3 281 303 302
3 282 283 304
3 282 304 303
3 283 284 305
3 283 305 304
3 284 285 306
3 284 306 305
3 285 286 307
3 285 307 306
3 286 287 308
3 286 308 307
3 287 288 309
3 287 309 308
3 288 289 310
3 288 310 309
3 289 290 311
3 289 311 310
3 290 291 312
3 290 312 311
3 291 292 313
3 291 313 312
3 292 293 314
3 292 314 313
3 294 295 316
3 294 316 315
3 295 296 317
3 295 317 316
3 296 297 318
3 296 318 317
3 297 298 319
3 297 319 318
3 298 299 320
3 298 320 319
3 299 300 321
3 299 321 320
3 300 301 322
3 300 322 321
3 301 302 323
3 301 323 322
3 302 303 324
3 302 324 323
3 303 304 325
3 303 325 324
3 304 305 326
3 304 326 325
3 305 306 327
3 305 327 326
3 306 307 328
3 306 328 327
3 307 308 329
3 307 329 328
3 308 309 330
3 308 330 329
3 309 310 331
3 309 331 330
3 310 311 332
3 310 332 331
3 311 312 333
3 311 333 332
3 312 313 334
3 312 334 333
3 313 314 335
3 313 335 334
3 315 316 337
3 315 337 336
3 316 317 338
3 316 338 337
3 317 318 339
3 317 339 338
3 318 319 340
3 318 340 339
3 319 320 341
3 319 341 340
3 320 321 342
3 320 342 341
3 321 322 343
3 321 343 342
3 322 323 344
3 322 344 343
3 323 324 345
3 323 345 344
3 324 325 346
3 324 346 345
3 325 326 347
3 325 347 346
3 326 327 348
3 326 348 347
3 327 328 349
3 327 349 348
3 328 329 350
3 328 350 349
3 329 330 351
3 329 351 350
3 330 331 352
3 330 352 351
3 331 332 353
3 331 353 352
3 332 333 354
3 332 354 353
3 333 334 355
3 333 355 354
3 334 335 356
3 334 356 355
3 336 337 358
3 336 358 357
3 337 338 359
3 337 359 358
3 338 339 360
3 338 360 359
3 339 340 361
3 339 361 360
3 340 341 362
3 340 362 361
3 341 342 363
3 341 363 362
3 342 343 364
3 342 364 363
3 343 344 365
3 343 365 364
3 344 345 366
3 344 366 365
3 345 346 367
3 345 367 366
3 346 347 368
3 346 368 367
3 347 348 369
3 347 369 368
3 348 349 370
3 348 370 369
3 349 350 371
3 349 371 370
3 350 351 372
3 350 372 371
3 351 352 373
3 351 373 372
3 352 353 374
3 352 374 373
3 353 354 375
3 353 375 374
3 354 355 376
3 354 376 375
3 355 356 377
3 355 377 376
3 357 358 379
3 357 379 378
3 358 359 380
3 358 380 379
3 359 360 381
3 359 381 380
3 360 361 382
3 360 382 381
3 361 362 383
3 361 383 382
3 362 363 384
3 362 384 383
3 363 364 385
3 363 385 384
3 364 365 386
3 364 386 385
3 365 366 387
3 365 387 386
3 366 367 388
3 366 388 387
3 367 368 389
3 367 389 388
3 368 369 390
3 368 390 389
3 369 370 391
3 369 391 390
3 370 371 392
3 370 392 391
3 371 372 393
3 371 393 392
3 372 373 394
3 372 394 393
3 373 374 395
3 373 395 394
3 374 375 396
3 374 396 395
3 375 376 397
3 375 397 396
3 376 377 398
3 376 398 397
3 378 379 400
3 378 400 399
3 379 380 401
3 379 401 400
3 380 381 402
3 380 402 401
3 381 382 403
3 381 403 402
3 382 383 404
3 382 404 403
3 383 384 405
3 383 405 404
3 384 385 406
3 384 406 405
3 385 386 407
3 385 407 406
3 386 387 408
3 386 408 407
3 387 388 409
3 387 409 408
3 388 389 410
3 388 410 409
3 389 390 411
3 389 411 410
3 390 391 412
3 390 412 411
3 391 392 413
3 391 413 412
3 392 393 414
3 392 414 413
3 393 394 415
3 393 415 414
3 394 395 416
3 394 416 415
3 395 396 417
3 395 417 416
3 396 397 418
3 396 418 417
3 397 398 419
3 397 419 418
3 399 400 421
3 399 421 420
3 400 401 422
3 400 422 421
3 401 402 423
3 401 423 422
3 402 403 424
3 402 424 423
3 403 404 425
3 403 425 424
3 404 405 426
3 404 426 425
3 405 406 427
3 405 427 426
3 406 407 428
3 406 428 427
3 407 408 429
3 407 429 428
3 408 409 430
3 408 430 429
3 409 410 431
3 409 431 430
3 410 411 432
3 410 432 431
3 411 412 433
3 411 433 432
3 412 413 434
3 412 434 433
3 413 414 435
3 413 435 434
3 414 415 436
3 414 436 435
3 415 416 437
3 415 437 436
3 416 417 438
3 416 438 437
3 417 418 439
3 417 439 438
3 418 419 440
3 418 440 439
CELL_TYPES 800
5
5
5
5
5
5
5
5
5
5
5
5
5
5
5
5
5
5
5
5
5
5
5
5
5
5
5
5
5
5
5
5
5
5
5
5
5
5
5
5
5
5
5
5
5
5
5
5
5
5
5
5
5
5
5
5
5
5
5
5
5
5
5
5
5
5
5
5
5
5
5
5
5
5
5
5
5
5
5
5
5
5
5
5
5
5
5
5
5
5
5
5
5
5
5
5
5
5
5
5
5
5
5
5
5
5
5
5
5
5
5
5
5
5
5
5
5
5
5
5
5
5
5
5
5
5
5
5
5
5
5
5
5
5
5
5
5
5
5
5
5
5
5
5
5
5
5
5
5
5
5
5
5
5
5
5
5
5
5
5
5
5
5
5
5
5
5
5
5
5
5
5
5
5
5
5
5
5
5
5
5
5
5
5
5
5
5
5
5
5
5
5
5
5
5
5
5
5
5
5
5
5
5
5
5
5
5
5
5
5
5
5
5
5
5
5
5
5
5
5
5
5
5
5
5
5
5
5
5
5
5
5
5
5
5
5
5
5
5
5
5
5
5
5
5
5
5
5
5
5
5
5
5
5
5
5
5
5
5
5
5
5
5
5
5
5
5
5
5
5
5
5
5
5
5
5
5
5
5
5
5
5
5
5
5
5
5
5
5
5
5
5
5
5
5
5
5
5
5
5
5
5
5
5
5
5
5
5
5
5
5
5
5
5
5
5
5
5
5
5
5
5
5
5
5
5
5
5
5
5
5
5
5
5
5
5
5
5
5
5
5
5
5
5
5
5
5
5
5
5
5
5
5
5
5
5
5
5
5
5
5
5
5
5
5
5
5
5
5
5
5
5
5
5
5
5
5
5
5
5
5
5
5
5
5
5
5
5
5
5
5
5
5
5
5
5
5
5
5
5
5
5
5
5
5
5
5
5
5
5
5
5
5
5
5
5
5
5
5
5
5
5
5
5
5
5
5
5
5
5
5
5
5
5
5
5
5
5
5
5
5
5
5
5
5
5
5
5
5
5
5
5
5
5
5
5
5
5
5
5
5
5
5
5
5
5
5
5
5
5
5
5
5
5
5
5
5
5
5
5
5
5
5
5
5
5
5
5
5
5
5
5
5
5
5
5
5
5
5
5
5
5
5
5
5
5
5
5
5
5
5
5
5
5
5
5
5
5
5
5
5
5
5
5
5
5
5
5
5
5
5
5
5
5
5
5
5
5
5
5
5
5
5
5
5
5
5
5
5
5
5
5
5
5
5
5
5
5
5
5
5
5
5
5
5
5
5
5
5
5
5
5
5
5
5
5
5
5
5
5
5
5
5
5
5
5
5
5
5
5
5
5
5
5
5
5
5
5
5
5
5
5
5
5
5
5
5
5
5
5
5
5
5
5
5
5
5
5
5
5
5
5
5
5
5
5
5
5
5
5
5
5
5
5
5
5
5
5
5
5
5
5
5
5
5
5
5
5
5
5
5
5
5
5
5
5
5
5
5
5
5
5
5
5
5
5
5
5
5
5
5
5
5
5
5
5
5
5
5
5
5
5
5
5
5
5
5
5
5
5
5
5
5
5
5
5
5
5
5
5
5
5
5
5
5
5
5
5
5
5
5
5
5
5
5
5
5
5
5
5
5
5
5
5
5
5
5
5
5
5
5
5
5
5
5
5
5
5
5
5
5
5
5
5
5
5
5
5
5
5
5
5
5
5
5
5
5
5
5
5
5
5
5
5
5
5
5
5
5
5
5
5
5
5
5
5
5
5
5
5
5
5
5
5
5
5
5
5
5
5
5
5
5
5
5
5
5
5
5
5
CELL_DATA 800
VECTORS Et double
0.078962 -0.375093 0
-0.0543125 -0.0814283 0
0.059709 -0.751021 0
-0.0428229 -0.521418 0
0.0282036 -0.968313 0
-0.02241 -0.850113 0
-0.00883242 -0.982966 0
0.00284472 -0.999996 0
-0.0435429 -0.793972 0
0.0276475 -0.941419 0
-0.0686214 -0.443565 0
0.046521 -0.688879 0
-0.0788765 -0.00793751 0
0.0552316 -0.297933 0
-0.0723341 0.419309 0
0.0517226 0.146928 0
-0.0506406 0.74743 0
0.0366267 0.550582 0
-0.0186809 0.908081 0
0.013141 0.827824 0
0.0165024 0.869891 0
-0.0136584 0.921658 0
0.0472527 0.644929 0
-0.0379177 0.815371 0
0.0669667 0.285692 0
-0.0542834 0.535793 0
0.0715237 -0.126696 0
-0.0590776 0.147077 0
0.0601658 -0.500454 0
-0.051113 -0.263615 0
0.0356377 -0.753348 0
-0.0319672 -0.605363 0
0.00355998 -0.830684 0
-0.00565144 -0.80345 0
-0.0288262 -0.717417 0
0.0219981 -0.815656 0
-0.0542618 -0.441964 0
0.044119 -0.641599 0
-0.0670893 -0.0670893 0
0.057604 -0.323287 0
0.104291 -0.359073 0
-0.0199811 -0.0788126 0
0.0828997 -0.722032 0
-0.0141765 -0.501422 0
0.0444862 -0.932125 0
-0.00374251 -0.818388 0
-0.00245268 -0.946343 0
0.00827657 -0.962744 0
-0.047859 -0.763346 0
0.0194447 -0.905504 0
-0.0823821 -0.423886 0
0.0268404 -0.660507 0
-0.0991288 -0.00181932 0
0.0282866 -0.281558 0
-0.0951026 0.411998 0
0.0228991 0.149345 0
-0.0717415 0.729392 0
0.0113541 0.539851 0
-0.0345468 0.883885 0
-0.00419838 0.807211 0
0.00816023 0.844911 0
-0.0205603 0.896082 0
0.0470754 0.624164 0
-0.0341615 0.790286 0
0.073939 0.27272 0
-0.0418392 0.516013 0
0.0833117 -0.130397 0
-0.0415511 0.135794 0
0.0737151 -0.495695 0
-0.0328643 -0.26541 0
0.0478945 -0.742896 0
-0.017108 -0.598951 0
0.0121561 -0.818537 0
0.00283459 -0.791943 0
-0.0253298 -0.707473 0
0.0229808 -0.803202 0
-0.0568316 -0.435998 0
0.0385357 -0.632028 0
-0.0735106 -0.0666995 0
0.047312 -0.318131 0
0.132035 -0.342072 0
0.0111893 -0.074011 0
0.106233 -0.68723 0
0.0117078 -0.476373 0
0.060002 -0.886329 0
0.0125552 -0.777799 0
0.00245089 -0.897597 0
0.0125348 -0.914345 0
-0.0540084 -0.719803 0
0.0114293 -0.857649 0
-0.0979377 -0.392298 0
0.00863552 -0.621008 0
-0.120736 0.0136477 0
0.00383238 -0.256267 0
-0.118398 0.410376 0
-0.00285065 0.157521 0
-0.0922758 0.712868 0
-0.0107554 0.531296 0
-0.0486832 0.857135 0
-0.0187482 0.785293 0
0.00254659 0.813972 0
-0.0254018 0.86626 0
0.0502415 0.595095 0
-0.0292726 0.758852 0
0.0843254 0.250356 0
-0.0292158 0.488744 0
0.097979 -0.143347 0
-0.02467 0.116806 0
0.089058 -0.499011 0
-0.0158459 -0.274374 0
0.0604669 -0.738624 0
-0.00377173 -0.598648 0
0.019404 -0.810215 0
0.00982287 -0.785184 0
-0.0244257 -0.69911 0
0.022721 -0.79392 0
-0.0615463 -0.430845 0
0.0322226 -0.624187 0
-0.0824342 -0.0658372 0
0.0374959 -0.314536 0
0.152512 -0.315555 0
0.0389542 -0.0673425 0
0.123368 -0.633097 0
0.0345343 -0.438283 0
0.0709624 -0.814587 0
0.0263209 -0.715266 0
0.00557884 -0.821134 0
0.0150277 -0.838733 0
-0.0589508 -0.651835 0
0.00260218 -0.782331 0
-0.10964 -0.34384 0
-0.00933892 -0.558742 0
-0.136621 0.0357823 0
-0.0193734 -0.216794 0
-0.135174 0.404671 0
-0.0264653 0.1692 0
-0.106624 0.683095 0
-0.0300661 0.515637 0
-0.0579431 0.81127 0
-0.030128 0.747799 0
-0.000145264 0.762306 0
-0.027035 0.816068 0
0.0541542 0.54796 0
-0.0214783 0.706644 0
0.0934914 0.215972 0
-0.0143046 0.44445 0
0.110011 -0.160454 0
-0.00637302 0.0875861 0
0.101097 -0.498685 0
0.0015537 -0.285428 0
0.0698323 -0.724734 0
0.00886835 -0.592848 0
0.0241931 -0.789409 0
0.0151269 -0.767566 0
-0.0248791 -0.678972 0
0.0200049 -0.771745 0
-0.0663645 -0.41807 0
0.0228429 -0.604988 0
-0.0898234 -0.0643878 0
0.0244109 -0.304344 0
0.166155 -0.282651 0
0.0617912 -0.0592141 0
0.134613 -0.565892 0
0.0528982 -0.391012 0
0.0776475 -0.725626 0
0.0365064 -0.637659 0
0.00657394 -0.72665 0
0.015159 -0.745054 0
-0.0636803 -0.568512 0
-0.00716146 -0.689429 0
-0.118949 -0.285567 0
-0.0267763 -0.482715 0
-0.148424 0.0605117 0
-0.0406798 -0.169897 0
-0.146888 0.394176 0
-0.0470724 0.180795 0
-0.115726 0.642499 0
-0.0456246 0.492771 0
-0.0625078 0.751093 0
-0.0374383 0.697804 0
0.000741513 0.696002 0
-0.0247251 0.75093 0
0.0602097 0.488951 0
-0.0102802 0.640282 0
0.103309 0.174828 0
0.00312798 0.389713 0
0.121379 -0.178081 0
0.01332 0.0536206 0
0.111495 -0.492955 0
0.0191005 -0.294886 0
0.0769901 -0.701168 0
0.0204108 -0.579906 0
0.0266056 -0.757244 0
0.0182183 -0.739289 0
-0.0275671 -0.648751 0
0.0141679 -0.738171 0
-0.0732483 -0.399023 0
0.00969323 -0.57657 0
-0.0990347 -0.0621111 0
0.0072696 -0.289389 0
0.1723 -0.245005 0
0.0787896 -0.0501003 0
0.13932 -0.489054 0
0.0660502 -0.337082 0
0.0795846 -0.624239 0
0.0426157 -0.549135 0
0.00517028 -0.6197 0
0.0127222 -0.63858 0
-0.0682671 -0.475476 0
-0.0177826 -0.584688 0
-0.125773 -0.222541 0
-0.0433585 -0.398461 0
-0.155937 0.0838981 0
-0.059613 -0.120267 0
-0.153277 0.376448 0
-0.0641454 0.188943 0
-0.119321 0.59029 0
-0.0569527 0.460954 0
-0.0621733 0.677418 0
-0.0403307 0.635252 0
0.00532038 0.617255 0
-0.0183001 0.672345 0
0.0684176 0.421302 0
0.00431056 0.56253 0
0.113694 0.130795 0
0.0229191 0.328171 0
0.131932 -0.192131 0
0.0341522 0.0189938 0
0.120066 -0.477866 0
0.0365098 -0.298624 0
0.0817504 -0.664418 0
0.0305952 -0.556015 0
0.0264565 -0.710897 0
0.0188757 -0.697137 0
-0.0327147 -0.606435 0
0.0050297 -0.690778 0
-0.0824035 -0.37259 0
-0.00734646 -0.5374 0
-0.110333 -0.0587404 0
-0.0139821 -0.26908 0
0.170989 -0.204332 0
0.0897312 -0.0404875 0
0.137579 -0.406201 0
0.073943 -0.279125 0
0.0769045 -0.515457 0
0.0447458 -0.454059 0
0.00150741 -0.506063 0
0.00794581 -0.524834 0
-0.072595 -0.378506 0
-0.028926 -0.474076 0
-0.130052 -0.159833 0
-0.0587026 -0.31164 0
-0.15919 0.102152 0
-0.0758312 -0.0725778 0
-0.154485 0.349331 0
-0.077475 0.190457 0
-0.117676 0.526051 0
-0.0640444 0.418748 0
-0.0573207 0.591444 0
-0.0390353 0.560469 0
0.0131292 0.528574 0
-0.0082101 0.58219 0
0.0782867 0.348407 0
0.0216888 0.476434 0
0.124188 0.0876979 0
0.0444119 0.263582 0
0.141314 -0.198763 0
0.0555379 -0.0122982 0
0.12661 -0.449889 0
0.0533839 -0.292818 0
0.0840904 -0.611484 0
0.0392928 -0.517823 0
0.0238831 -0.648019 0
0.0172507 -0.638415 0
-0.0400577 -0.550389 0
-0.00703185 -0.627615 0
-0.0934521 -0.337875 0
-0.0277001 -0.486298 0
-0.123249 -0.054019 0
-0.0385309 -0.243008 0
0.162946 -0.161731 0
0.0955832 -0.0308203 0
0.130166 -0.319718 0
0.0776997 -0.21909 0
0.0703107 -0.402702 0
0.0438105 -0.355498 0
-0.00386344 -0.389915 0
0.0013492 -0.407671 0
-0.0763153 -0.282158 0
-0.0404942 -0.36191 0
-0.13168 -0.101968 0
-0.0731163 -0.226656 0
-0.158354 0.111194 0
-0.0899703 -0.0309533 0
-0.150965 0.309577 0
-0.0879017 0.181837 0
-0.111505 0.447695 0
-0.067796 0.363573 0
-0.0488604 0.49247 0
-0.0343562 0.472022 0
0.0231508 0.430748 0
0.00495236 0.48033 0
0.0888082 0.272511 0
0.0415476 0.383208 0
0.133919 0.0490548 0
0.0676045 0.198437 0
0.148902 -0.19351 0
0.0777478 -0.0366662 0
0.130851 -0.404045 0
0.0701939 -0.273081 0
0.084128 -0.537379 0
0.0470759 -0.460546 0
0.0193708 -0.564126 0
0.013905 -0.558411 0
-0.0488295 -0.47712 0
-0.0215845 -0.544517 0
-0.105399 -0.292784 0
-0.0510862 -0.420114 0
-0.136538 -0.0477553 0
-0.0663295 -0.20943 0
0.149962 -0.11829 0
0.0981398 -0.0214542 0
0.118918 -0.232384 0
0.0787785 -0.158754 0
0.0612258 -0.290147 0
0.0408119 -0.25677 0
-0.0101755 -0.276164 0
-0.00652442 -0.291583 0
-0.0793631 -0.191252 0
-0.0523285 -0.253166 0
-0.131254 -0.0529172 0
-0.086815 -0.148153 0
-0.154548 0.108479 0
-0.102559 0.00101219 0
-0.144154 0.256381 0
-0.0961753 0.161043 0
-0.102317 0.356149 0
-0.0690758 0.295169 0
-0.0381461 0.382859 0
-0.0271833 0.371346 0
0.0343722 0.327053 0
0.0203605 0.369525 0
0.0994191 0.197173 0
0.0631908 0.286375 0
0.142797 0.018096 0
0.0919815 0.136384 0
0.15503 -0.173943 0
0.100482 -0.0509312 0
0.133432 -0.338962 0
0.0868783 -0.237139 0
0.0826747 -0.441778 0
0.0541565 -0.383027 0
0.0137509 -0.459677 0
0.00934799 -0.457027 0
-0.0583246 -0.387452 0
-0.0378659 -0.442157 0
-0.117698 -0.238017 0
-0.0764689 -0.339858 0
-0.14989 -0.0398492 0
-0.0959549 -0.169207 0
0.134431 -0.0800189 0
0.0945227 -0.0126369 0
0.105776 -0.15563 0
0.074525 -0.104572 0
0.0509664 -0.191521 0
0.0352952 -0.169609 0
-0.0167736 -0.177007 0
-0.0133216 -0.190428 0
-0.0816753 -0.113033 0
-0.0596103 -0.159987 0
-0.129261 -0.0126418 0
-0.0935029 -0.0831564 0
-0.148689 0.102049 0
-0.107212 0.023689 0
-0.135233 0.204651 0
-0.0973588 0.136491 0
-0.0913864 0.270394 0
-0.0657492 0.228792 0
-0.026385 0.28176 0
-0.0190205 0.277678 0
0.0457722 0.232631 0
0.0327779 0.269057 0
0.10936 0.129985 0
0.0783639 0.201076 0
0.150357 -0.00724535 0
0.107684 0.0849014 0
0.159524 -0.151958 0
0.114124 -0.057345 0
0.134452 -0.274498 0
0.0959761 -0.19709 0
0.0800984 -0.348912 0
0.0568405 -0.305289 0
0.00765983 -0.358443 0
0.00484259 -0.358592 0
-0.0676876 -0.299651 0
-0.0494988 -0.344325 0
-0.12925 -0.182983 0
-0.0940141 -0.263742 0
-0.161843 -0.0303155 0
-0.116748 -0.131652 0
0.115081 -0.076299 0
0.0605024 -0.00689949 0
0.0893103 -0.140917 0
0.0478301 -0.0892942 0
0.0396135 -0.166247 0
0.0227168 -0.147453 0
-0.0216196 -0.142988 0
-0.00883557 -0.16365 0
-0.0795295 -0.0742995 0
-0.0396271 -0.13088 0
-0.121045 0.0259309 0
-0.0624691 -0.0547898 0
-0.136216 0.13541 0
-0.0720991 0.0486674 0
-0.120868 0.228327 0
-0.0661504 0.156038 0
-0.0775895 0.281174 0
-0.045676 0.241556 0
-0.0152623 0.278206 0
-0.0149494 0.282993 0
0.0528259 0.215294 0
0.0194451 0.266875 0
0.111847 0.101311 0
0.0500367 0.191864 0
0.148669 -0.043319 0
0.0700967 0.069538 0
0.154749 -0.190634 0
0.0751144 -0.0776523 0
0.128055 -0.310875 0
0.0637997 -0.22086 0
0.073576 -0.378728 0
0.0383917 -0.330811 0
0.00228691 -0.378713 0
0.00419706 -0.383979 0
-0.0715573 -0.3082 0
-0.0315704 -0.367626 0
-0.13196 -0.180001 0
-0.0620487 -0.282288 0
-0.163792 -0.0211194 0
-0.0808429 -0.143679 0
0.071683 -0.0428954 0
0.0402588 -0.00359509 0
0.0553496 -0.0790725 0
0.0307753 -0.0496144 0
0.0236652 -0.0915696 0
0.0134192 -0.0816797 0
-0.0156985 -0.0743757 0
-0.0081371 -0.0884119 0
-0.0534977 -0.029109 0
-0.0290905 -0.0653351 0
-0.080606 0.0352066 0
-0.0445389 -0.0157024 0
-0.0904005 0.104181 0
-0.0508159 0.0501151 0
-0.0800642 0.16119 0
-0.0463045 0.117001 0
-0.051251 0.191147 0
-0.0317685 0.168426 0
-0.00979217 0.18405 0
-0.0102054 0.190228 0
0.0355273 0.137514 0
0.0137902 0.173998 0
0.0748587 0.057684 0
0.035018 0.119274 0
0.0994362 -0.0417073 0
0.0488047 0.034047 0
0.10351 -0.141963 0
0.0520304 -0.0665917 0
0.085645 -0.223205 0
0.0438248 -0.163388 0
0.0490959 -0.268504 0
0.0257847 -0.236858 0
0.00116394 -0.267488 0
0.00165204 -0.271368 0
-0.0483554 -0.218588 0
-0.0234538 -0.258499 0
-0.0899331 -0.129454 0
-0.0447705 -0.198915 0
-0.115013 -0.0156791 0
-0.0578533 -0.102317 0
0.0457523 -0.0244671 0
0.0260924 -0.00145438 0
0.0339692 -0.0431577 0
0.0194197 -0.0271089 0
0.012514 -0.0466569 0
0.007416 -0.0432695 0
-0.0138374 -0.0313819 0
-0.0073211 -0.0432744 0
-0.0389374 0.00127994 0
-0.021527 -0.0245467 0
-0.0566231 0.045027 0
-0.0318927 0.0104636 0
-0.062362 0.089983 0
-0.0359375 0.0545952 0
-0.0542919 0.124914 0
-0.0325729 0.0975381 0
-0.0336423 0.139818 0
-0.0223502 0.12818 0
-0.00451636 0.128338 0
-0.00735421 0.1372 0
0.0269633 0.0894588 0
0.00923706 0.11936 0
0.0539672 0.0280769 0
0.0238382 0.0749736 0
0.0704468 -0.0457073 0
0.0332368 0.0101924 0
0.0724718 -0.118465 0
0.0353003 -0.0639815 0
0.0591256 -0.1761 0
0.0294526 -0.133783 0
0.0327638 -0.206752 0
0.0168197 -0.185443 0
-0.00143765 -0.20331 0
1.07937e-05 -0.208054 0
-0.036523 -0.165045 0
-0.0174475 -0.195906 0
-0.0658525 -0.0975855 0
-0.0321126 -0.14986 0
-0.0834633 -0.0118118 0
-0.0405732 -0.0769888 0
0.0279302 -0.0122657 0
0.0162449 -9.85213e-05 0
0.0198691 -0.019769 0
0.011825 -0.012334 0
0.00541544 -0.0176229 0
0.0036905 -0.0183647 0
-0.0121097 -0.00387688 0
-0.00625784 -0.014234 0
-0.0285691 0.0201613 0
-0.0157963 0.00135861 0
-0.0398474 0.049962 0
-0.0227234 0.0264271 0
-0.0429312 0.0787148 0
-0.0253767 0.0559092 0
-0.0366224 0.0988561 0
-0.0230239 0.0827543 0
-0.0218411 0.103847 0
-0.0160386 0.0995338 0
-0.00146702 0.0898116 0
-0.00583139 0.100218 0
0.0202551 0.0566568 0
0.00544723 0.0817263 0
0.0386224 0.00840808 0
0.0153703 0.0448866 0
0.0494981 -0.0473505 0
0.0217624 -0.00542321 0
0.0502297 -0.100836 0
0.0231786 -0.0610261 0
0.0402589 -0.141965 0
0.0192284 -0.11195 0
0.0212908 -0.16239 0
0.0106733 -0.148386 0
-0.00302037 -0.157276 0
-0.000723419 -0.162701 0
-0.0278295 -0.126378 0
-0.0125692 -0.151079 0
-0.0483586 -0.0741708 0
-0.0225376 -0.114417 0
-0.060121 -0.00907274 0
-0.0281586 -0.0582228 0
0.0157847 -0.00381982 0
0.00992681 0.000739729 0
0.010582 -0.00402872 0
0.00697302 -0.00230436 0
0.0010925 0.00148927 0
0.0014728 -0.00173982 0
-0.0103173 0.0136728 0
-0.00523001 0.00476779 0
-0.0208682 0.0313224 0
-0.0116466 0.0177457 0
-0.027857 0.0512084 0
-0.0163002 0.0355741 0
-0.0293109 0.0687078 0
-0.0180755 0.0547083 0
-0.0244753 0.0788415 0
-0.0164791 0.0704122 0
-0.0140228 0.0774752 0
-0.0117596 0.0778475 0
5.63252e-05 0.0624109 0
-0.00486291 0.0732688 0
0.0148604 0.034113 0
0.00276584 0.0550505 0
0.0271937 -0.00411263 0
0.00949359 0.024301 0
0.0342623 -0.0465556 0
0.0138544 -0.0150944 0
0.0342965 -0.0860846 0
0.0148717 -0.0570407 0
0.0269636 -0.115492 0
0.0122776 -0.0943135 0
0.0134766 -0.128923 0
0.00657912 -0.119943 0
-0.00362609 -0.123103 0
-0.00104175 -0.12862 0
-0.0209918 -0.0980783 0
-0.00897585 -0.117824 0
-0.0353307 -0.057285 0
-0.0156681 -0.0884377 0
-0.0434007 -0.00712714 0
-0.0194458 -0.0446467 0
0.00805883 0.00157277 0
0.00601736 0.00124299 0
0.0047213 0.00598411 0
0.00404664 0.00403244 0
-0.0014139 0.0135285 0
0.00034906 0.00875944 0
-0.00870984 0.0244889 0
-0.00414436 0.0166442 0
-0.0153344 0.0377764 0
-0.00845703 0.0277176 0
-0.019512 0.0510392 0
-0.0116065 0.0406413 0
-0.0199637 0.0611147 0
-0.0128492 0.0528927 0
-0.0162298 0.0647432 0
-0.0118512 0.0612786 0
-0.00880725 0.0593825 0
-0.00876821 0.0626812 0
0.000926358 0.043934 0
-0.00421824 0.0548635 0
0.0109901 0.0192068 0
0.000848442 0.0371479 0
0.0192188 -0.0120062 0
0.0053536 0.0107988 0
0.0237342 -0.0452792 0
0.00832535 -0.0209951 0
0.0233655 -0.0752823 0
0.00911145 -0.0535626 0
0.0179263 -0.0967532 0
0.00752465 -0.0815443 0
0.00828534 -0.105517 0
0.0038882 -0.0998876 0
-0.00378713 -0.0993476 0
-0.00102866 -0.104845 0
-0.0159687 -0.0784823 0
-0.00617246 -0.0947639 0
-0.0259958 -0.0456526 0
-0.0105397 -0.0705076 0
-0.0316312 -0.00574798 0
-0.0130138 -0.0353638 0
0.00331421 0.00497155 0
0.00375817 0.00153372 0
0.00121932 0.0122499 0
0.0024624 0.00797129 0
-0.00264572 0.0209681 0
1.21621e-05 0.0152708 0
-0.00717144 0.0309917 0
-0.00296059 0.0239132 0
-0.0111781 0.0413222 0
-0.00584097 0.0336162 0
-0.0135185 0.050197 0
-0.00799468 0.0432441 0
-0.0133812 0.0554219 0
-0.00893525 0.050957 0
-0.0105007 0.0548716 0
-0.00843514 0.0545834 0
-0.00524536 0.0470485 0
-0.00657791 0.0521385 0
0.00143653 0.0315671 0
-0.00374263 0.0423728 0
0.00820427 0.00944414 0
-0.000523337 0.0252193 0
0.0136066 -0.0168903 0
0.00239916 0.00202496 0
0.0163972 -0.0438857 0
0.00440505 -0.0245069 0
0.0158157 -0.0674286 0
0.00507085 -0.0506727 0
0.0117703 -0.0835633 0
0.00426242 -0.0723695 0
0.00488317 -0.0892381 0
0.00216532 -0.0858307 0
-0.00361671 -0.0829243 0
-0.000754033 -0.0883515 0
-0.0121307 -0.0649778 0
-0.00384659 -0.0788557 0
-0.0191205 -0.0376428 0
-0.00651238 -0.0581809 0
-0.0230461 -0.00478179 0
-0.0080358 -0.0289982 0
0.000580002 0.00704664 0
0.00259615 0.00169302 0
-0.000675167 0.0160396 0
0.00177945 0.010339 0
-0.00299638 0.025406 0
0.000223533 0.0191701 0
-0.00564752 0.0347525 0
-0.00166644 0.0282024 0
-0.00790137 0.0431459 0
-0.00354209 0.0369612 0
-0.00904514 0.0492063 0
-0.00502443 0.0444472 0
-0.00858601 0.0513617 0
-0.00581231 0.0492624 0
-0.00638611 0.0482121 0
-0.00575081 0.0498904 0
-0.00271654 0.0389235 0
-0.00486377 0.0450697 0
0.00178077 0.023558 0
-0.00334728 0.0341766 0
0.0062176 0.00325326 0
-0.00152626 0.0175257 0
0.00964471 -0.0198081 0
0.00021664 -0.00349688 0
0.0112582 -0.0426524 0
0.00152409 -0.0265138 0
0.0105819 -0.0619597 0
0.00214106 -0.0484569 0
0.00758531 -0.0746237 0
0.00196885 -0.0660425 0
0.0027098 -0.0783191 0
0.00108439 -0.0763386 0
-0.00320447 -0.0719652 0
-0.000278879 -0.0773144 0
-0.00907565 -0.0559953 0
-0.00178918 -0.0682607 0
-0.0138844 -0.0323167 0
-0.00313617 -0.0500001 0
-0.0165855 -0.0041253 0
-0.00392748 -0.0247815 0
-0.000836816 0.00809071 0
0.00196752 0.00177322 0
-0.00151375 0.0179581 0
0.00156932 0.0115302 0
-0.00276173 0.0275829 0
0.000710783 0.0211305 0
-0.00411724 0.0364351 0
-0.000329799 0.0302727 0
-0.00517562 0.0436312 0
-0.00142132 0.0383845 0
-0.00553244 0.0480256 0
-0.00238982 0.0445578 0
-0.00491765 0.0484202 0
-0.00307895 0.0476637 0
-0.00327852 0.0438442 0
-0.00339074 0.0465787 0
-0.00081009 0.0338505 0
-0.00330049 0.0404689 0
0.00207135 0.0187532 0
-0.00285745 0.0290748 0
0.00480711 -0.000257881 0
-0.00217079 0.0129231 0
0.00681157 -0.0211698 0
-0.00138402 -0.00659602 0
0.00759948 -0.041375 0
-0.000643763 -0.0273218 0
0.0068975 -0.0580471 0
-6.94455e-05 -0.0465871 0
0.00471494 -0.0686002 0
0.00026943 -0.0616164 0
0.00135686 -0.0711475 0
0.000364257 -0.0699894 0
-0.00262423 -0.0648726 0
0.000261027 -0.0700817 0
-0.00653472 -0.0502306 0
4.29153e-05 -0.0614001 0
-0.00971821 -0.0289092 0
-0.000212201 -0.0447331 0
-0.0115121 -0.00371168 0
-0.000417022 -0.0220592 0
-0.00158738 0.00878176 0
0.00180423 0.00180423 0
-0.00179393 0.0191775 0
0.00171882 0.0122823 0
-0.00224977 0.0290925 0
0.00152273 0.0223639 0
-0.00264311 0.0378553 0
0.00120334 0.0317292 0
-0.00281686 0.0445847 0
0.000750708 0.0396823 0
-0.00260023 0.0482373 0
0.000167808 0.0453366 0
-0.00188824 0.0477794 0
-0.0005206 0.0476816 0
-0.000691756 0.0424339 0
-0.00126326 0.0457669 0
0.000851734 0.0319343 0
-0.00198375 0.0389519 0
0.00249617 0.0167219 0
-0.00258865 0.0271473 0
0.00393171 -0.00196962 0
-0.00298141 0.0109885 0
0.00484765 -0.0221779 0
-0.00307982 -0.00811299 0
0.00500019 -0.041432 0
-0.00283337 -0.028069 0
0.0042704 -0.0570993 0
-0.00223699 -0.0463651 0
0.00269906 -0.0668049 0
-0.00133777 -0.0604269 0
0.000490448 -0.0688457 0
-0.000232686 -0.0680409 0
-0.00202055 -0.0625179 0
0.000942878 -0.0677517 0
-0.00442802 -0.0482908 0
0.00203446 -0.0591559 0
-0.00634892 -0.027769 0
0.0028922 -0.0430305 0
-0.00745723 -0.00349944 0
0.00339493 -0.021246 0
