# vtk DataFile Version 3.0
tp3485 cell-vector
ASCII
DATASET UNSTRUCTURED_GRID
POINTS 441 double
0 0 0
0.05 0 0
0.1 0 0
0.15 0 0
0.2 0 0
0.25 0 0
0.3 0 0
0.35 0 0
0.4 0 0
0.45 0 0
0.5 0 0
0.55 0 0
0.6 0 0
0.65 0 0
0.7 0 0
0.75 0 0
0.8 0 0
0.85 0 0
0.9 0 0
0.95 0 0
1 0 0
0 0.05 0
0.05 0.05 0
0.1 0.05 0
0.15 0.05 0
0.2 0.05 0
0.25 0.05 0
0.3 0.05 0
0.35 0.05 0
0.4 0.05 0
0.45 0.05 0
0.5 0.05 0
0.55 0.05 0
0.6 0.05 0
0.65 0.05 0
0.7 0.05 0
0.75 0.05 0
0.8 0.05 0
0.85 0.05 0
0.9 0.05 0
0.95 0.05 0
1 0.05 0
0 0.1 0
0.05 0.1 0
0.1 0.1 0
0.15 0.1 0
0.2 0.1 0
0.25 0.1 0
0.3 0.1 0
0.35 0.1 0
0.4 0.1 0
0.45 0.1 0
0.5 0.1 0
0.55 0.1 0
0.6 0.1 0
0.65 0.1 0
0.7 0.1 0
0.75 0.1 0
0.8 0.1 0
0.85 0.1 0
0.9 0.1 0
0.95 0.1 0
1 0.1 0
0 0.15 0
0.05 0.15 0
0.1 0.15 0
0.15 0.15 0
0.2 0.15 0
0.25 0.15 0
0.3 0.15 0
0.35 0.15 0
0.4 0.15 0
0.45 0.15 0
0.5 0.15 0
0.55 0.15 0
0.6 0.15 0
0.65 0.15 0
0.7 0.15 0
0.75 0.15 0
0.8 0.15 0
0.85 0.15 0
0.9 0.15 0
0.95 0.15 0
1 0.15 0
0 0.2 0
0.05 0.2 0
0.1 0.2 0
0.15 0.2 0
0.2 0.2 0
0.25 0.2 0
0.3 0.2 0
0.35 0.2 0
0.4 0.2 0
0.45 0.2 0
0.5 0.2 0
0.55 0.2 0
0.6 0.2 0
0.65 0.2 0
0.7 0.2 0
0.75 0.2 0
0.8 0.2 0
0.85 0.2 0
0.9 0.2 0
0.95 0.2 0
1 0.2 0
0 0.25 0
0.05 0.25 0
0.1 0.25 0
0.15 0.25 0
0.2 0.25 0
0.25 0.25 0
0.3 0.25 0
0.35 0.25 0
0.4 0.25 0
0.45 0.25 0
0.5 0.25 0
0.55 0.25 0
0.6 0.25 0
0.65 0.25 0
0.7 0.25 0
0.75 0.25 0
0.8 0.25 0
0.85 0.25 0
0.9 0.25 0
0.95 0.25 0
1 0.25 0
0 0.3 0
0.05 0.3 0
0.1 0.3 0
0.15 0.3 0
0.2 0.3 0
0.25 0.3 0
0.3 0.3 0
0.35 0.3 0
0.4 0.3 0
0.45 0.3 0
0.5 0.3 0
0.55 0.3 0
0.6 0.3 0
0.65 0.3 0
0.7 0.3 0
0.75 0.3 0
0.8 0.3 0
0.85 0.3 0
0.9 0.3 0
0.95 0.3 0
1 0.3 0
0 0.35 0
0.05 0.35 0
0.1 0.35 0
0.15 0.35 0
0.2 0.35 0
0.25 0.35 0
0.3 0.35 0
0.35 0.35 0
0.4 0.35 0
0.45 0.35 0
0.5 0.35 0
0.55 0.35 0
0.6 0.35 0
0.65 0.35 0
0.7 0.35 0
0.75 0.35 0
0.8 0.35 0
0.85 0.35 0
0.9 0.35 0
0.95 0.35 0
1 0.35 0
0 0.4 0
0.05 0.4 0
0.1 0.4 0
0.15 0.4 0
0.2 0.4 0
0.25 0.4 0
0.3 0.4 0
0.35 0.4 0
0.4 0.4 0
0.45 0.4 0
0.5 0.4 0
0.55 0.4 0
0.6 0.4 0
0.65 0.4 0
0.7 0.4 0
0.75 0.4 0
0.8 0.4 0
0.85 0.4 0
0.9 0.4 0
0.95 0.4 0
1 0.4 0
0 0.45 0
0.05 0.45 0
0.1 0.45 0
0.15 0.45 0
0.2 0.45 0
0.25 0.45 0
0.3 0.45 0
0.35 0.45 0
0.4 0.45 0
0.45 0.45 0
0.5 0.45 0
0.55 0.45 0
0.6 0.45 0
0.65 0.45 0
0.7 0.45 0
0.75 0.45 0
0.8 0.45 0
0.85 0.45 0
0.9 0.45 0
0.95 0.45 0
1 0.45 0
0 0.5 0
0.05 0.5 0
0.1 0.5 0
0.15 0.5 0
0.2 0.5 0
0.25 0.5 0
0.3 0.5 0
0.35 0.5 0
0.4 0.5 0
0.45 0.5 0
0.5 0.5 0
0.55 0.5 0
0.6 0.5 0
0.65 0.5 0
0.7 0.5 0
0.75 0.5 0
0.8 0.5 0
0.85 0.5 0
0.9 0.5 0
0.95 0.5 0
1 0.5 0
0 0.55 0
0.05 0.55 0
0.1 0.55 0
0.15 0.55 0
0.2 0.55 0
0.25 0.55 0
0.3 0.55 0
0.35 0.55 0
0.4 0.55 0
0.45 0.55 0
0.5 0.55 0
0.55 0.55 0
0.6 0.55 0
0.65 0.55 0
0.7 0.55 0
0.75 0.55 0
0.8 0.55 0
0.85 0.55 0
0.9 0.55 0
0.95 0.55 0
1 0.55 0
0 0.6 0
0.05 0.6 0
0.1 0.6 0
0.15 0.6 0
0.2 0.6 0
0.25 0.6 0
0.3 0.6 0
0.35 0.6 0
0.4 0.6 0
0.45 0.6 0
0.5 0.6 0
0.55 0.6 0
0.6 0.6 0
0.65 0.6 0
0.7 0.6 0
0.75 0.6 0
0.8 0.6 0
0.85 0.6 0
0.9 0.6 0
0.95 0.6 0
1 0.6 0
0 0.65 0
0.05 0.65 0
0.1 0.65 0
0.15 0.65 0
0.2 0.65 0
0.25 0.65 0
0.3 0.65 0
0.35 0.65 0
0.4 0.65 0
0.45 0.65 0
0.5 0.65 0
0.55 0.65 0
0.6 0.65 0
0.65 0.65 0
0.7 0.65 0
0.75 0.65 0
0.8 0.65 0
0.85 0.65 0
0.9 0.65 0
0.95 0.65 0
1 0.65 0
0 0.7 0
0.05 0.7 0
0.1 0.7 0
0.15 0.7 0
0.2 0.7 0
0.25 0.7 0
0.3 0.7 0
0.35 0.7 0
0.4 0.7 0
0.45 0.7 0
0.5 0.7 0
0.55 0.7 0
0.6 0.7 0
0.65 0.7 0
0.7 0.7 0
0.75 0.7 0
0.8 0.7 0
0.85 0.7 0
0.9 0.7 0
0.95 0.7 0
1 0.7 0
0 0.75 0
0.05 0.75 0
0.1 0.75 0
0.15 0.75 0
0.2 0.75 0
0.25 0.75 0
0.3 0.75 0
0.35 0.75 0
0.4 0.75 0
0.45 0.75 0
0.5 0.75 0
0.55 0.75 0
0.6 0.75 0
0.65 0.75 0
0.7 0.75 0
0.75 0.75 0
0.8 0.75 0
0.85 0.75 0
0.9 0.75 0
0.95 0.75 0
1 0.75 0
0 0.8 0
0.05 0.8 0
0.1 0.8 0
0.15 0.8 0
0.2 0.8 0
0.25 0.8 0
0.3 0.8 0
0.35 0.8 0
0.4 0.8 0
0.45 0.8 0
0.5 0.8 0
0.55 0.8 0
0.6 0.8 0
0.65 0.8 0
0.7 0.8 0
0.75 0.8 0
0.8 0.8 0
0.85 0.8 0
0.9 0.8 0
0.95 0.8 0
1 0.8 0
0 0.85 0
0.05 0.85 0
0.1 0.85 0
0.15 0.85 0
0.2 0.85 0
0.25 0.85 0
0.3 0.85 0
0.35 0.85 0
0.4 0.85 0
0.45 0.85 0
0.5 0.85 0
0.55 0.85 0
0.6 0.85 0
0.65 0.85 0
0.7 0.85 0
0.75 0.85 0
0.8 0.85 0
0.85 0.85 0
0.9 0.85 0
0.95 0.85 0
1 0.85 0
0 0.9 0
0.05 0.9 0
0.1 0.9 0
0.15 0.9 0
0.2 0.9 0
0.25 0.9 0
0.3 0.9 0
0.35 0.9 0
0.4 0.9 0
0.45 0.9 0
0.5 0.9 0
0.55 0.9 0
0.6 0.9 0
0.65 0.9 0
0.7 0.9 0
0.75 0.9 0
0.8 0.9 0
0.85 0.9 0
0.9 0.9 0
0.95 0.9 0
1 0.9 0
0 0.95 0
0.05 0.95 0
0.1 0.95 0
0.15 0.95 0
0.2 0.95 0
0.25 0.95 0
0.3 0.95 0
0.35 0.95 0
0.4 0.95 0
0.45 0.95 0
0.5 0.95 0
0.55 0.95 0
0.6 0.95 0
0.65 0.95 0
0.7 0.95 0
0.75 0.95 0
0.8 0.95 0
0.85 0.95 0
0.9 0.95 0
0.95 0.95 0
1 0.95 0
0 1 0
0.05 1 0
0.1 1 0
0.15 1 0
0.2 1 0
0.25 1 0
0.3 1 0
0.35 1 0
0.4 1 0
0.45 1 0
0.5 1 0
0.55 1 0
0.6 1 0
0.65 1 0
0.7 1 0
0.75 1 0
0.8 1 0
0.85 1 0
0.9 1 0
0.95 1 0
1 1 0
CELLS 800 3200
3 0 1 22
3 0 22 21
3 1 2 23
3 1 23 22
3 2 3 24
3 2 24 23
3 3 4 25
3 3 25 24
3 4 5 26
3 4 26 25
3 5 6 27
3 5 27 26
3 6 7 28
3 6 28 27
3 7 8 29
3 7 29 28
3 8 9 30
3 8 30 29
3 9 10 31
3 9 31 30
3 10 11 32
3 10 32 31
3 11 12 33
3 11 33 32
3 12 13 34
3 12 34 33
3 13 14 35
3 13 35 34
3 14 15 36
3 14 36 35
3 15 16 37
3 15 37 36
3 16 17 38
3 16 38 37
3 17 18 39
3 17 39 38
3 18 19 40
3 18 40 39
3 19 20 41
3 19 41 40
3 21 22 43
3 21 43 42
3 22 23 44
3 22 44 43
3 23 24 45
3 23 45 44
3 24 25 46
3 24 46 45
3 25 26 47
3 25 47 46
3 26 27 48
3 26 48 47
3 27 28 49
3 27 49 48
3 28 29 50
3 28 50 49
3 29 30 51
3 29 51 50
3 30 31 52
3 30 52 51
3 31 32 53
3 31 53 52
3 32 33 54
3 32 54 53
3 33 34 55
3 33 55 54
3 34 35 56
3 34 56 55
3 35 36 57
3 35 57 56
3 36 37 58
3 36 58 57
3 37 38 59
3 37 59 58
3 38 39 60
3 38 60 59
3 39 40 61
3 39 61 60
3 40 41 62
3 40 62 61
3 42 43 64
3 42 64 63
3 43 44 65
3 43 65 64
3 44 45 66
3 44 66 65
3 45 46 67
3 45 67 66
3 46 47 68
3 46 68 67
3 47 48 69
3 47 69 68
3 48 49 70
3 48 70 69
3 49 50 71
3 49 71 70
3 50 51 72
3 50 72 71
3 51 52 73
3 51 73 72
3 52 53 74
3 52 74 73
3 53 54 75
3 53 75 74
3 54 55 76
3 54 76 75
3 55 56 77
3 55 77 76
3 56 57 78
3 56 78 77
3 57 58 79
3 57 79 78
3 58 59 80
3 58 80 79
3 59 60 81
3 59 81 80
3 60 61 82
3 60 82 81
3 61 62 83
3 61 83 82
3 63 64 85
3 63 85 84
3 64 65 86
3 64 86 85
3 65 66 87
3 65 87 86
3 66 67 88
3 66 88 87
3 67 68 89
3 67 89 88
3 68 69 90
3 68 90 89
3 69 70 91
3 69 91 90
3 70 71 92
3 70 92 91
3 71 72 93
3 71 93 92
3 72 73 94
3 72 94 93
3 73 74 95
3 73 95 94
3 74 75 96
3 74 96 95
3 75 76 97
3 75 97 96
3 76 77 98
3 76 98 97
3 77 78 99
3 77 99 98
3 78 79 100
3 78 100 99
3 79 80 101
3 79 101 100
3 80 81 102
3 80 102 101
3 81 82 103
3 81 103 102
3 82 83 104
3 82 104 103
3 84 85 106
3 84 106 105
3 85 86 107
3 85 107 106
3 86 87 108
3 86 108 107
3 87 88 109
3 87 109 108
3 88 89 110
3 88 110 109
3 89 90 111
3 89 111 110
3 90 91 112
3 90 112 111
3 91 92 113
3 91 113 112
3 92 93 114
3 92 114 113
3 93 94 115
3 93 115 114
3 94 95 116
3 94 116 115
3 95 96 117
3 95 117 116
3 96 97 118
3 96 118 117
3 97 98 119
3 97 119 118
3 98 99 120
3 98 120 119
3 99 100 121
3 99 121 120
3 100 101 122
3 100 122 121
3 101 102 123
3 101 123 122
3 102 103 124
3 102 124 123
3 103 104 125
3 103 125 124
3 105 106 127
3 105 127 126
3 106 107 128
3 106 128 127
3 107 108 129
3 107 129 128
3 108 109 130
3 108 130 129
3 109 110 131
3 109 131 130
3 110 111 132
3 110 132 131
3 111 112 133
3 111 133 132
3 112 113 134
3 112 134 133
3 113 114 135
3 113 135 134
3 114 115 136
3 114 136 135
3 115 116 137
3 115 137 136
3 116 117 138
3 116 138 137
3 117 118 139
3 117 139 138
3 118 119 140
3 118 140 139
3 119 120 141
3 119 141 140
3 120 121 142
3 120 142 141
3 121 122 143
3 121 143 142
3 122 123 144
3 122 144 143
3 123 124 145
3 123 145 144
3 124 125 146
3 124 146 145
3 126 127 148
3 126 148 147
3 127 128 149
3 127 149 148
3 128 129 150
3 128 150 149
3 129 130 151
3 129 151 150
3 130 131 152
3 130 152 151
3 131 132 153
3 131 153 152
3 132 133 154
3 132 154 153
3 133 134 155
3 133 155 154
3 134 135 156
3 134 156 155
3 135 136 157
3 135 157 156
3 136 137 158
3 136 158 157
3 137 138 159
3 137 159 158
3 138 139 160
3 138 160 159
3 139 140 161
3 139 161 160
3 140 141 162
3 140 162 161
3 141 142 163
3 141 163 162
3 142 143 164
3 142 164 163
3 143 144 165
3 143 165 164
3 144 145 166
3 144 166 165
3 145 146 167
3 145 167 166
3 147 148 169
3 147 169 168
3 148 149 170
3 148 170 169
3 149 150 171
3 149 171 170
3 150 151 172
3 150 172 171
3 151 152 173
3 151 173 172
3 152 153 174
3 152 174 173
3 153 154 175
3 153 175 174
3 154 155 176
3 154 176 175
3 155 156 177
3 155 177 176
3 156 157 178
3 156 178 177
3 157 158 179
3 157 179 178
3 158 159 180
3 158 180 179
3 159 160 181
3 159 181 180
3 160 161 182
3 160 182 181
3 161 162 183
3 161 183 182
3 162 163 184
3 162 184 183
3 163 164 185
3 163 185 184
3 164 165 186
3 164 186 185
3 165 166 187
3 165 187 186
3 166 167 188
3 166 188 187
3 168 169 190
3 168 190 189
3 169 170 191
3 169 191 190
3 170 171 192
3 170 192 191
3 171 172 193
3 171 193 192
3 172 173 194
3 172 194 193
3 173 174 195
3 173 195 194
3 174 175 196
3 174 196 195
3 175 176 197
3 175 197 196
3 176 177 198
3 176 198 197
3 177 178 199
3 177 199 198
3 178 179 200
3 178 200 199
3 179 180 201
3 179 201 200
3 180 181 202
3 180 202 201
3 181 182 203
3 181 203 202
3 182 183 204
3 182 204 203
3 183 184 205
3 183 205 204
3 184 185 206
3 184 206 205
3 185 186 207
3 185 207 206
3 186 187 208
3 186 208 207
3 187 188 209
3 187 209 208
3 189 190 211
3 189 211 210
3 190 191 212
3 190 212 211
3 191 192 213
3 191 213 212
3 192 193 214
3 192 214 213
3 193 194 215
3 193 215 214
3 194 195 216
3 194 216 215
3 195 196 217
3 195 217 216
3 196 197 218
3 196 218 217
3 197 198 219
3 197 219 218
3 198 199 220
3 198 220 219
3 199 200 221
3 199 221 220
3 200 201 222
3 200 222 221
3 201 202 223
3 201 223 222
3 202 203 224
3 202 224 223
3 203 204 225
3 203 225 224
3 204 205 226
3 204 226 225
3 205 206 227
3 205 227 226
3 206 207 228
3 206 228 227
3 207 208 229
3 207 229 228
3 208 209 230
3 208 230 229
3 210 211 232
3 210 232 231
3 211 212 233
3 211 233 232
3 212 213 234
3 212 234 233
3 213 214 235
3 213 235 234
3 214 215 236
3 214 236 235
3 215 216 237
3 215 237 236
3 216 217 238
3 216 238 237
3 217 218 239
3 217 239 238
3 218 219 240
3 218 240 239
3 219 220 241
3 219 241 240
3 220 221 242
3 220 242 241
3 221 222 243
3 221 243 242
3 222 223 244
3 222 244 243
3 223 224 245
3 223 245 244
3 224 225 246
3 224 246 245
3 225 226 247
3 225 247 246
3 226 227 248
3 226 248 247
3 227 228 249
3 227 249 248
3 228 229 250
3 228 250 249
3 229 230 251
3 229 251 250
3 231 232 253
3 231 253 252
3 232 233 254
3 232 254 253
3 233 234 255
3 233 255 254
3 234 235 256
3 234 256 255
3 235 236 257
3 235 257 256
3 236 237 258
3 236 258 257
3 237 238 259
3 237 259 258
3 238 239 260
3 238 260 259
3 239 240 261
3 239 261 260
3 240 241 262
3 240 262 261
3 241 242 263
3 241 263 262
3 242 243 264
3 242 264 263
3 243 244 265
3 243 265 264
3 244 245 266
3 244 266 265
3 245 246 267
3 245 267 266
3 246 247 268
3 246 268 267
3 247 248 269
3 247 269 268
3 248 249 270
3 248 270 269
3 249 250 271
3 249 271 270
3 250 251 272
3 250 272 271
3 252 253 274
3 252 274 273
3 253 254 275
3 253 275 274
3 254 255 276
3 254 276 275
3 255 256 277
3 255 277 276
3 256 257 278
3 256 278 277
3 257 258 279
3 257 279 278
3 258 259 280
3 258 280 279
3 259 260 281
3 259 281 280
3 260 261 282
3 260 282 281
3 261 262 283
3 261 283 282
3 262 263 284
3 262 284 283
3 263 264 285
3 263 285 284
3 264 265 286
3 264 286 285
3 265 266 287
3 265 287 286
3 266 267 288
3 266 288 287
3 267 268 289
3 267 289 288
3 268 269 290
3 268 290 289
3 269 270 291
3 269 291 290
3 270 271 292
3 270 292 291
3 271 272 293
3 271 293 292
3 273 274 295
3 273 295 294
3 274 275 296
3 274 296 295
3 275 276 297
3 275 297 296
3 276 277 298
3 276 298 297
3 277 278 299
3 277 299 298
3 278 279 300
3 278 300 299
3 279 280 301
3 279 301 300
3 280 281 302
3 280 302 301
3 281 282 303
3 281 303 302
3 282 283 304
3 282 304 303
3 283 284 305
3 283 305 304
3 284 285 306
3 284 306 305
3 285 286 307
3 285 307 306
3 286 287 308
3 286 308 307
3 287 288 309
3 287 309 308
3 288 289 310
3 288 310 309
3 289 290 311
3 289 311 310
3 290 291 312
3 290 312 311
3 291 292 313
3 291 313 312
3 292 293 314
3 292 314 313
3 294 295 316
3 294 316 315
3 295 296 317
3 295 317 316
3 296 297 318
3 296 318 317
3 297 298 319
3 297 319 318
3 298 299 320
3 298 320 319
3 299 300 321
3 299 321 320
3 300 301 322
3 300 322 321
3 301 302 323
3 301 323 322
3 302 303 324
3 302 324 323
3 303 304 325
3 303 325 324
3 304 305 326
3 304 326 325
3 305 306 327
3 305 327 326
3 306 307 328
3 306 328 327
3 307 308 329
3 307 329 328
3 308 309 330
3 308 330 329
3 309 310 331
3 309 331 330
3 310 311 332
3 310 332 331
3 311 312 333
3 311 333 332
3 312 313 334
3 312 334 333
3 313 314 335
3 313 335 334
3 315 316 337
3 315 337 336
3 316 317 338
3 316 338 337
3 317 318 339
3 317 339 338
3 318 319 340
3 318 340 339
3 319 320 341
3 319 341 340
3 320 321 342
3 320 342 341
3 321 322 343
3 321 343 342
3 322 323 344
3 322 344 343
3 323 324 345
3 323 345 344
3 324 325 346
3 324 346 345
3 325 326 347
3 325 347 346
3 326 327 348
3 326 348 347
3 327 328 349
3 327 349 348
3 328 329 350
3 328 350 349
3 329 330 351
3 329 351 350
3 330 331 352
3 330 352 351
3 331 332 353
3 331 353 352
3 332 333 354
3 332 354 353
3 333 334 355
3 333 355 354
3 334 335 356
3 334 356 355
3 336 337 358
3 336 358 357
3 337 338 359
3 337 359 358
3 338 339 360
3 338 360 359
3 339 340 361
3 339 361 360
3 340 341 362
3 340 362 361
3 341 342 363
3 341 363 362
3 342 343 364
3 342 364 363
3 343 344 365
3 343 365 364
3 344 345 366
3 344 366 365
3 345 346 367
3 345 367 366
3 346 347 368
3 346 368 367
3 347 348 369
3 347 369 368
3 348 349 370
3 348 370 369
3 349 350 371
3 349 371 370
3 350 351 372
3 350 372 371
3 351 352 373
3 351 373 372
3 352 353 374
3 352 374 373
3 353 354 375
3 353 375 374
3 354 355 376
3 354 376 375
3 355 356 377
3 355 377 376
3 357 358 379
3 357 379 378
3 358 359 380
3 358 380 379
3 359 360 381
3 359 381 380
3 360 361 382
3 360 382 381
3 361 362 383
3 361 383 382
3 362 363 384
3 362 384 383
3 363 364 385
3 363 385 384
3 364 365 386
3 364 386 385
3 365 366 387
3 365 387 386
3 366 367 388
3 366 388 387
3 367 368 389
3 367 389 388
3 368 369 390
3 368 390 389
3 369 370 391
3 369 391 390
3 370 371 392
3 370 392 391
3 371 372 393
3 371 393 392
3 372 373 394
3 372 394 393
3 373 374 395
3 373 395 394
3 374 375 396
3 374 396 395
3 375 376 397
3 375 397 396
3 376 377 398
3 376 398 397
3 378 379 400
3 378 400 399
3 379 380 401
3 379 401 400
3 380 381 402
3 380 402 401
3 381 382 403
3 381 403 402
3 382 383 404
3 382 404 403
3 383 384 405
3 383 405 404
3 384 385 406
3 384 406 405
3 385 386 407
3 385 407 406
3 386 387 408
3 386 408 407
3 387 388 409
3 387 409 408
3 388 389 410
3 388 410 409
3 389 390 411
3 389 411 410
3 390 391 412
3 390 412 411
3 391 392 413
3 391 413 412
3 392 393 414
3 392 414 413
3 393 394 415
3 393 415 414
3 394 395 416
3 394 416 415
3 395 396 417
3 395 417 416
3 396 397 418
3 396 418 417
3 397 398 419
3 397 419 418
3 399 400 421
3 399 421 420
3 400 401 422
3 400 422 421
3 401 402 423
3 401 423 422
3 402 403 424
3 402 424 423
3 403 404 425
3 403 425 424
3 404 405 426
3 404 426 425
3 405 406 427
3 405 427 426
3 406 407 428
3 406 428 427
3 407 408 429
3 407 429 428
3 408 409 430
3 408 430 429
3 409 410 431
3 409 431 430
3 410 411 432
3 410 432 431
3 411 412 433
3 411 433 432
3 412 413 434
3 412 434 433
3 413 414 435
3 413 435 434
3 414 415 436
3 414 436 435
3 415 416 437
3 415 437 436
3 416 417 438
3 416 438 437
3 417 418 439
3 417 439 438
3 418 419 440
3 418 440 439
CELL_TYPES 800
5
5
5
5
5
5
5
5
5
5
5
5
5
5
5
5
5
5
5
5
5
5
5
5
5
5
5
5
5
5
5
5
5
5
5
5
5
5
5
5
5
5
5
5
5
5
5
5
5
5
5
5
5
5
5
5
5
5
5
5
5
5
5
5
5
5
5
5
5
5
5
5
5
5
5
5
5
5
5
5
5
5
5
5
5
5
5
5
5
5
5
5
5
5
5
5
5
5
5
5
5
5
5
5
5
5
5
5
5
5
5
5
5
5
5
5
5
5
5
5
5
5
5
5
5
5
5
5
5
5
5
5
5
5
5
5
5
5
5
5
5
5
5
5
5
5
5
5
5
5
5
5
5
5
5
5
5
5
5
5
5
5
5
5
5
5
5
5
5
5
5
5
5
5
5
5
5
5
5
5
5
5
5
5
5
5
5
5
5
5
5
5
5
5
5
5
5
5
5
5
5
5
5
5
5
5
5
5
5
5
5
5
5
5
5
5
5
5
5
5
5
5
5
5
5
5
5
5
5
5
5
5
5
5
5
5
5
5
5
5
5
5
5
5
5
5
5
5
5
5
5
5
5
5
5
5
5
5
5
5
5
5
5
5
5
5
5
5
5
5
5
5
5
5
5
5
5
5
5
5
5
5
5
5
5
5
5
5
5
5
5
5
5
5
5
5
5
5
5
5
5
5
5
5
5
5
5
5
5
5
5
5
5
5
5
5
5
5
5
5
5
5
5
5
5
5
5
5
5
5
5
5
5
5
5
5
5
5
5
5
5
5
5
5
5
5
5
5
5
5
5
5
5
5
5
5
5
5
5
5
5
5
5
5
5
5
5
5
5
5
5
5
5
5
5
5
5
5
5
5
5
5
5
5
5
5
5
5
5
5
5
5
5
5
5
5
5
5
5
5
5
5
5
5
5
5
5
5
5
5
5
5
5
5
5
5
5
5
5
5
5
5
5
5
5
5
5
5
5
5
5
5
5
5
5
5
5
5
5
5
5
5
5
5
5
5
5
5
5
5
5
5
5
5
5
5
5
5
5
5
5
5
5
5
5
5
5
5
5
5
5
5
5
5
5
5
5
5
5
5
5
5
5
5
5
5
5
5
5
5
5
5
5
5
5
5
5
5
5
5
5
5
5
5
5
5
5
5
5
5
5
5
5
5
5
5
5
5
5
5
5
5
5
5
5
5
5
5
5
5
5
5
5
5
5
5
5
5
5
5
5
5
5
5
5
5
5
5
5
5
5
5
5
5
5
5
5
5
5
5
5
5
5
5
5
5
5
5
5
5
5
5
5
5
5
5
5
5
5
5
5
5
5
5
5
5
5
5
5
5
5
5
5
5
5
5
5
5
5
5
5
5
5
5
5
5
5
5
5
5
5
5
5
5
5
5
5
5
5
5
5
5
5
5
5
5
5
5
5
5
5
5
5
5
5
5
5
5
5
5
5
5
5
5
5
5
5
5
5
5
5
5
5
5
5
5
5
5
5
5
5
5
5
5
5
5
5
5
5
5
5
5
5
5
5
5
5
5
5
5
5
5
5
5
5
5
5
5
5
5
5
5
5
5
5
5
5
5
5
5
5
5
5
5
5
5
5
5
5
5
5
5
5
5
5
5
5
5
5
5
5
5
5
5
5
5
5
5
5
5
5
5
5
5
5
5
5
5
5
5
5
5
5
5
5
5
5
5
5
5
5
5
5
5
5
5
5
5
5
5
5
5
5
5
5
5
5
5
5
5
5
5
5
5
5
5
5
5
5
5
5
5
5
5
5
5
5
5
5
5
5
5
5
5
5
5
5
5
5
5
CELL_DATA 800
VECTORS Et double
-0.0262336 0.0828874 0
-0.0211693 0.0257948 0
-0.0254725 0.189977 0
-0.0206468 0.1344 0
-0.0240663 0.292332 0
-0.0194783 0.239563 0
-0.0220508 0.38731 0
-0.017859 0.338733 0
-0.0194773 0.47243 0
-0.015868 0.429352 0
-0.0164165 0.545529 0
-0.0135024 0.509053 0
-0.0129513 0.604781 0
-0.0108163 0.57582 0
-0.00917464 0.648761 0
-0.00785474 0.627999 0
-0.00518643 0.676471 0
-0.00467592 0.664355 0
-0.00108982 0.68735 0
-0.00134793 0.684088 0
0.00301193 0.681277 0
0.00205297 0.686844 0
0.00701831 0.658548 0
0.00544391 0.672703 0
0.010834 0.619855 0
0.00873736 0.642158 0
0.0143708 0.566249 0
0.0118435 0.596084 0
0.017549 0.499101 0
0.0146721 0.535703 0
0.0202983 0.420054 0
0.0171331 0.462535 0
0.0225589 0.33098 0
0.0191394 0.378357 0
0.0242834 0.23399 0
0.0206723 0.285153 0
0.0254247 0.131857 0
0.0221549 0.185129 0
0.0259302 0.0259302 0
0.0219469 0.081138 0
-0.0705869 0.0705308 0
-0.0680408 0.022181 0
-0.0688705 0.163149 0
-0.0663122 0.1159 0
-0.0652766 0.251626 0
-0.0629175 0.206838 0
-0.0600603 0.333719 0
-0.0579434 0.292522 0
-0.0534053 0.40727 0
-0.0516514 0.370778 0
-0.0454333 0.470396 0
-0.0441153 0.439554 0
-0.0363515 0.521533 0
-0.0354975 0.4971 0
-0.0263776 0.559458 0
-0.025989 0.542004 0
-0.0157568 0.583319 0
-0.0158057 0.57321 0
-0.00475086 0.592648 0
-0.0051853 0.590046 0
0.00636908 0.587356 0
0.00561805 0.592224 0
0.0173301 0.567717 0
0.0163396 0.579834 0
0.027864 0.534344 0
0.0267105 0.553322 0
0.0377134 0.488154 0
0.0364645 0.513463 0
0.0466362 0.43034 0
0.0453449 0.461321 0
0.0544081 0.362331 0
0.0531114 0.398219 0
0.0608266 0.28577 0
0.0595571 0.325701 0
0.0657781 0.202504 0
0.0645842 0.245509 0
0.0695898 0.114112 0
0.068082 0.159572 0
0.070561 0.02332 0
0.0693782 0.0695387 0
-0.108424 0.0531635 0
-0.105306 0.0159219 0
-0.105752 0.123255 0
-0.102798 0.0869867 0
-0.100385 0.190401 0
-0.0974735 0.155857 0
-0.0924768 0.252595 0
-0.0899454 0.220934 0
-0.0823695 0.308245 0
-0.080268 0.280266 0
-0.0702431 0.355921 0
-0.0686387 0.332349 0
-0.0563878 0.394436 0
-0.055318 0.375852 0
-0.0411391 0.422877 0
-0.0406095 0.409708 0
-0.0248684 0.440625 0
-0.0248549 0.433131 0
-0.00797358 0.447359 0
-0.00842681 0.44564 0
0.00913092 0.44305 0
0.00827874 0.44705 0
0.0260252 0.427945 0
0.0248521 0.437467 0
0.0422939 0.402541 0
0.0408797 0.417264 0
0.0575361 0.367559 0
0.0559546 0.387057 0
0.071374 0.323917 0
0.0696881 0.347673 0
0.0834606 0.272697 0
0.0817203 0.300121 0
0.0934974 0.215116 0
0.0917301 0.245566 0
0.10131 0.152462 0
0.0994816 0.185295 0
0.106716 0.0863019 0
0.104958 0.120655 0
0.109008 0.0179144 0
0.107098 0.0532509 0
-0.131852 0.0286158 0
-0.129417 0.00777807 0
-0.12876 0.0671018 0
-0.12654 0.0468907 0
-0.122158 0.103939 0
-0.12005 0.0847488 0
-0.112703 0.138014 0
-0.110875 0.120475 0
-0.100506 0.168385 0
-0.0990365 0.152996 0
-0.0858394 0.194247 0
-0.0847765 0.181417 0
-0.0690533 0.214948 0
-0.0684198 0.204995 0
-0.0505523 0.230015 0
-0.0503433 0.223152 0
-0.0307849 0.239152 0
-0.0309706 0.23549 0
-0.0102333 0.242245 0
-0.0107629 0.241792 0
0.0105997 0.239347 0
0.00979154 0.242023 0
0.0312025 0.230663 0
0.0301884 0.23631 0
0.0510678 0.216527 0
0.0499197 0.224923 0
0.0697044 0.197377 0
0.0684871 0.208255 0
0.0866493 0.173738 0
0.0854146 0.186795 0
0.101479 0.146198 0
0.100263 0.161111 0
0.113817 0.115397 0
0.112643 0.131825 0
0.123383 0.0820051 0
0.122244 0.0996089 0
0.130122 0.0467307 0
0.129007 0.0651553 0
0.132953 0.0103423 0
0.131883 0.0291881 0
-0.138991 0.00069302 0
-0.137547 -0.00127364 0
-0.135959 0.00311313 0
-0.134673 0.00127281 0
-0.12903 0.00544599 0
-0.127835 0.00372974 0
-0.119154 0.00745627 0
-0.11817 0.00603765 0
-0.106377 0.00900026 0
-0.105654 0.00797182 0
-0.0909786 0.00998574 0
-0.0905453 0.00940137 0
-0.0733264 0.010377 0
-0.0731878 0.0102506 0
-0.0538439 0.0101961 0
-0.0539844 0.0105019 0
-0.0330027 0.00951853 0
-0.0333875 0.0101945 0
-0.0113099 0.00846291 0
-0.0118887 0.00941877 0
0.0107039 0.00717544 0
0.00999188 0.00830323 0
0.0324986 0.00581126 0
0.0317173 0.00699836 0
0.0535368 0.00451501 0
0.0527473 0.00565731 0
0.0732977 0.00340317 0
0.0725512 0.00441685 0
0.091289 0.00255019 0
0.0906225 0.00338083 0
0.107061 0.0019806 0
0.106494 0.00260808 0
0.120213 0.00166974 0
0.119749 0.00210657 0
0.130432 0.00155245 0
0.130065 0.00183635 0
0.13765 0.00150727 0
0.13734 0.00172013 0
0.140819 0.00150307 0
0.140638 0.00162547 0
-0.129048 -0.0272527 0
-0.128776 -0.0101498 0
-0.126463 -0.0610732 0
-0.126235 -0.0443934 0
-0.120069 -0.0934035 0
-0.119881 -0.0775227 0
-0.111 -0.12361 0
-0.110939 -0.1088 0
-0.0992264 -0.151031 0
-0.0993122 -0.137608 0
-0.0849987 -0.175036 0
-0.0852332 -0.16331 0
-0.0686547 -0.195044 0
-0.069026 -0.185305 0
-0.0505862 -0.210534 0
-0.0510692 -0.203046 0
-0.0312302 -0.22106 0
-0.031787 -0.216057 0
-0.0110571 -0.226272 0
-0.0116401 -0.223941 0
0.00944016 -0.225933 0
0.00888416 -0.226407 0
0.0297588 -0.219941 0
0.0292825 -0.223283 0
0.0493977 -0.208342 0
0.0490477 -0.214536 0
0.0678698 -0.191347 0
0.0676814 -0.200289 0
0.0847139 -0.16933 0
0.0847062 -0.180826 0
0.0995063 -0.142835 0
0.0996786 -0.156597 0
0.111873 -0.112558 0
0.112203 -0.128213 0
0.121524 -0.0793204 0
0.12198 -0.0964299 0
0.128382 -0.0440511 0
0.128915 -0.0621178 0
0.131536 -0.00754074 0
0.132303 -0.0262408 0
-0.103269 -0.0521595 0
-0.104495 -0.0177875 0
-0.101422 -0.118224 0
-0.102419 -0.0849234 0
-0.0963353 -0.181396 0
-0.0973018 -0.14973 0
-0.0892036 -0.240287 0
-0.0902116 -0.210906 0
-0.0798951 -0.293502 0
-0.0809198 -0.267104 0
-0.0685957 -0.339751 0
-0.069596 -0.316987 0
-0.055574 -0.377903 0
-0.0565189 -0.359335 0
-0.0411433 -0.406995 0
-0.0419995 -0.3931 0
-0.0256524 -0.426257 0
-0.0263803 -0.417417 0
-0.00947758 -0.435136 0
-0.0100333 -0.431623 0
0.0069868 -0.433319 0
0.00664675 -0.435282 0
0.0233372 -0.420754 0
0.0232515 -0.428208 0
0.0391706 -0.397661 0
0.0393686 -0.410479 0
0.0540936 -0.364542 0
0.0545917 -0.382451 0
0.0677318 -0.322173 0
0.0685303 -0.344755 0
0.0797382 -0.271601 0
0.0808119 -0.298292 0
0.0898038 -0.214136 0
0.0910846 -0.244222 0
0.0977004 -0.1513 0
0.0990956 -0.183954 0
0.103388 -0.084718 0
0.104852 -0.11909 0
0.106208 -0.0157028 0
0.108114 -0.0513096 0
-0.065075 -0.0698106 0
-0.0666985 -0.0232771 0
-0.064013 -0.159038 0
-0.0650175 -0.114239 0
-0.0608274 -0.244328 0
-0.061735 -0.201797 0
-0.0565363 -0.323796 0
-0.0574857 -0.284392 0
-0.0508489 -0.395502 0
-0.0517868 -0.360205 0
-0.0438559 -0.457683 0
-0.0447308 -0.427376 0
-0.0357406 -0.50881 0
-0.0365251 -0.484245 0
-0.0267035 -0.547611 0
-0.0273759 -0.529403 0
-0.0169626 -0.573088 0
-0.0174963 -0.561714 0
-0.00675323 -0.584547 0
-0.00711854 -0.58033 0
0.00367685 -0.58163 0
0.00350875 -0.584724 0
0.0140729 -0.564326 0
0.0141265 -0.574705 0
0.0241793 -0.532988 0
0.0244716 -0.550441 0
0.0337452 -0.48833 0
0.0342844 -0.512462 0
0.0425297 -0.431414 0
0.0433131 -0.461652 0
0.0502989 -0.363649 0
0.051298 -0.399238 0
0.0568238 -0.286781 0
0.0579527 -0.326773 0
0.0619549 -0.202876 0
0.0630544 -0.246131 0
0.0657766 -0.114027 0
0.0668469 -0.159478 0
0.0681106 -0.0220049 0
0.0696159 -0.0689827 0
-0.0181161 -0.0773317 0
-0.0182105 -0.025966 0
-0.0176432 -0.177931 0
-0.017471 -0.12808 0
-0.0167197 -0.274168 0
-0.0165382 -0.226802 0
-0.0159127 -0.363808 0
-0.0158158 -0.319978 0
-0.0146601 -0.444608 0
-0.0145781 -0.405449 0
-0.0129533 -0.514612 0
-0.0128967 -0.48107 0
-0.0108777 -0.572112 0
-0.0108582 -0.545002 0
-0.00849876 -0.615683 0
-0.00852035 -0.595678 0
-0.00587185 -0.64422 0
-0.00593056 -0.631832 0
-0.00305743 -0.65697 0
-0.00314411 -0.652535 0
-0.000121718 -0.653557 0
-0.000224648 -0.65722 0
0.00286531 -0.634004 0
0.00275826 -0.64571 0
0.00583185 -0.598733 0
0.00573134 -0.618228 0
0.00870631 -0.548571 0
0.00862044 -0.575396 0
0.0114166 -0.484723 0
0.011352 -0.518232 0
0.0138684 -0.408753 0
0.0138311 -0.448126 0
0.015922 -0.322569 0
0.0158859 -0.366801 0
0.0174776 -0.22848 0
0.0172894 -0.27631 0
0.0188721 -0.128854 0
0.0185319 -0.179074 0
0.0204662 -0.0256822 0
0.0205073 -0.077544 0
0.0336728 -0.0845065 0
0.0261394 -0.0255279 0
0.0331518 -0.194033 0
0.0247733 -0.135449 0
0.03158 -0.299032 0
0.0233881 -0.243113 0
0.0286364 -0.396542 0
0.0212432 -0.345055 0
0.0251289 -0.484308 0
0.0186052 -0.438394 0
0.0210955 -0.560267 0
0.0155198 -0.520968 0
0.0165824 -0.622571 0
0.0120725 -0.590836 0
0.011685 -0.669672 0
0.00835354 -0.646292 0
0.00652642 -0.700382 0
0.00445849 -0.68595 0
0.0012367 -0.713905 0
0.000486246 -0.708799 0
-0.00405212 -0.709863 0
-0.00346341 -0.714233 0
-0.00920775 -0.688307 0
-0.00729179 -0.702072 0
-0.0141004 -0.649726 0
-0.0109038 -0.672567 0
-0.0186054 -0.595042 0
-0.0142107 -0.626407 0
-0.022607 -0.525587 0
-0.0171308 -0.564705 0
-0.0260259 -0.443055 0
-0.0195938 -0.488974 0
-0.0288806 -0.349392 0
-0.0215558 -0.40107 0
-0.031271 -0.246805 0
-0.0231187 -0.303075 0
-0.0326023 -0.138181 0
-0.0241611 -0.197307 0
-0.0318993 -0.0262681 0
-0.0233985 -0.0867367 0
0.0757822 -0.133057 0
0.014074 -0.0236169 0
0.0732397 -0.287477 0
0.0126609 -0.180315 0
0.0694762 -0.434242 0
0.0125473 -0.333021 0
0.06383 -0.569541 0
0.0121557 -0.476952 0
0.0566553 -0.690751 0
0.0108154 -0.608373 0
0.0481021 -0.795098 0
0.00902645 -0.724755 0
0.0383839 -0.880021 0
0.00702739 -0.823439 0
0.027739 -0.943404 0
0.00488944 -0.901999 0
0.0164279 -0.983654 0
0.00265993 -0.958468 0
0.00472774 -0.999739 0
0.000392587 -0.991419 0
-0.00707382 -0.991216 0
-0.00185604 -0.999998 0
-0.018685 -0.958248 0
-0.00403044 -0.983946 0
-0.0298173 -0.901608 0
-0.00607848 -0.943612 0
-0.0401926 -0.822663 0
-0.0079546 -0.87995 0
-0.0495499 -0.723352 0
-0.0096194 -0.794508 0
-0.0576542 -0.606116 0
-0.0110154 -0.689389 0
-0.0643165 -0.473762 0
-0.0120371 -0.567179 0
-0.0695185 -0.329154 0
-0.0124783 -0.430816 0
-0.0730479 -0.17698 0
-0.0137545 -0.283267 0
-0.0735543 -0.0244561 0
-0.0169059 -0.129297 0
0.0600989 -0.111593 0
0.0148651 -0.0219755 0
0.0575777 -0.2429 0
0.0135132 -0.155531 0
0.0552584 -0.368379 0
0.0132833 -0.285235 0
0.051615 -0.485105 0
0.0126091 -0.408074 0
0.0460579 -0.589921 0
0.0112778 -0.52119 0
0.0391884 -0.680256 0
0.00948538 -0.62151 0
0.0313652 -0.753919 0
0.00743871 -0.706574 0
0.0227982 -0.809098 0
0.00522739 -0.774314 0
0.0136889 -0.844419 0
0.00290669 -0.823061 0
0.00425732 -0.858985 0
0.000533741 -0.851596 0
-0.00526547 -0.852409 0
-0.00183227 -0.859189 0
-0.014645 -0.824819 0
-0.00413319 -0.84562 0
-0.0236503 -0.776867 0
-0.00631407 -0.811193 0
-0.0320616 -0.709711 0
-0.00832547 -0.756729 0
-0.0396748 -0.624991 0
-0.0101232 -0.683548 0
-0.0462814 -0.524793 0
-0.011647 -0.593445 0
-0.0516431 -0.411617 0
-0.0128102 -0.48864 0
-0.0554429 -0.288449 0
-0.0135573 -0.371751 0
-0.0590077 -0.158037 0
-0.0147978 -0.24586 0
-0.0633216 -0.0226797 0
-0.0169451 -0.113783 0
0.0577578 -0.107873 0
0.0119062 -0.0205519 0
0.0553664 -0.233668 0
0.0110799 -0.148924 0
0.0530761 -0.353932 0
0.0108192 -0.273217 0
0.0493675 -0.465825 0
0.0100706 -0.391011 0
0.044101 -0.566372 0
0.00895999 -0.499525 0
0.0375674 -0.653011 0
0.00753862 -0.595867 0
0.0300871 -0.723614 0
0.00590439 -0.677575 0
0.0218802 -0.77645 0
0.00412419 -0.742639 0
0.0131466 -0.810212 0
0.0022498 -0.789464 0
0.00409892 -0.824051 0
0.000331239 -0.816886 0
-0.00504052 -0.817604 0
-0.00158251 -0.824212 0
-0.014047 -0.791007 0
-0.00344418 -0.811238 0
-0.0226993 -0.744893 0
-0.00520925 -0.778262 0
-0.0307867 -0.68038 0
-0.0068369 -0.726075 0
-0.0381124 -0.599045 0
-0.00829099 -0.655947 0
-0.0444769 -0.502903 0
-0.00953499 -0.569595 0
-0.0496707 -0.394379 0
-0.0105262 -0.469161 0
-0.0535357 -0.276278 0
-0.0112755 -0.35718 0
-0.0569017 -0.151206 0
-0.0122546 -0.236542 0
-0.0601305 -0.0211384 0
-0.013077 -0.109919 0
0.0520978 -0.103162 0
0.0072514 -0.0193379 0
0.0502945 -0.223041 0
0.00702387 -0.141746 0
0.0480992 -0.337503 0
0.00694702 -0.260209 0
0.0445031 -0.443837 0
0.00638532 -0.372345 0
0.0397005 -0.539332 0
0.00565491 -0.4755 0
0.0338316 -0.621591 0
0.00474631 -0.567038 0
0.0271015 -0.688583 0
0.00369631 -0.644657 0
0.0197002 -0.73866 0
0.00254593 -0.70644 0
0.0118156 -0.770581 0
0.00133295 -0.750864 0
0.00364405 -0.783547 0
9.22795e-05 -0.776826 0
-0.00461242 -0.777223 0
-0.00114322 -0.783673 0
-0.0127505 -0.751748 0
-0.00234269 -0.771219 0
-0.0205703 -0.707731 0
-0.00347766 -0.739755 0
-0.0278804 -0.646246 0
-0.00452253 -0.69004 0
-0.0345026 -0.568799 0
-0.00545483 -0.623287 0
-0.0402708 -0.477301 0
-0.00625686 -0.541134 0
-0.045028 -0.374041 0
-0.00691862 -0.445613 0
-0.0486901 -0.261583 0
-0.00744204 -0.339111 0
-0.0516551 -0.142629 0
-0.00820548 -0.224277 0
-0.0534883 -0.0198225 0
-0.00861455 -0.103869 0
0.0451531 -0.0971403 0
0.00322217 -0.0183228 0
0.0440022 -0.210428 0
0.00321086 -0.133653 0
0.0420977 -0.318554 0
0.00334133 -0.245599 0
0.0388469 -0.418899 0
0.00304625 -0.351521 0
0.0346308 -0.508988 0
0.00267472 -0.448853 0
0.029524 -0.586592 0
0.00221476 -0.535194 0
0.0236649 -0.649792 0
0.00168177 -0.608404 0
0.0172111 -0.697025 0
0.00109762 -0.666671 0
0.0103294 -0.72712 0
0.000483511 -0.708553 0
0.00319308 -0.739327 0
-0.000141123 -0.73301 0
-0.00402058 -0.733331 0
-0.000758727 -0.739427 0
-0.0111336 -0.709268 0
-0.00135361 -0.727635 0
-0.0179712 -0.667717 0
-0.00191213 -0.697909 0
-0.0243664 -0.609694 0
-0.00242289 -0.650972 0
-0.0301633 -0.536622 0
-0.00287717 -0.587971 0
-0.0352226 -0.450302 0
-0.00327013 -0.510454 0
-0.0394274 -0.352866 0
-0.00360034 -0.420335 0
-0.0426907 -0.246711 0
-0.00386459 -0.319838 0
-0.0453219 -0.134404 0
-0.00440123 -0.211438 0
-0.0466812 -0.0187169 0
-0.00467072 -0.0977602 0
0.0392236 -0.0926033 0
-0.000708785 -0.0174961 0
0.0383336 -0.200647 0
-0.000580333 -0.127421 0
0.0367255 -0.303761 0
-0.000242977 -0.234183 0
0.0338731 -0.399423 0
-0.000251031 -0.335192 0
0.0301873 -0.485295 0
-0.00026366 -0.427979 0
0.0257365 -0.55926 0
-0.000288179 -0.510273 0
0.0206329 -0.61949 0
-0.000318881 -0.580046 0
0.0150095 -0.664497 0
-0.00034933 -0.635571 0
0.00901032 -0.693163 0
-0.000374458 -0.675474 0
0.00278653 -0.704773 0
-0.000390682 -0.698763 0
-0.00350697 -0.699032 0
-0.000396009 -0.704855 0
-0.0097148 -0.676069 0
-0.000390015 -0.693588 0
-0.0156847 -0.636442 0
-0.000373821 -0.665231 0
-0.021271 -0.581118 0
-0.000350112 -0.620472 0
-0.026339 -0.511455 0
-0.000323273 -0.560407 0
-0.0307688 -0.429168 0
-0.000299768 -0.486512 0
-0.034458 -0.336282 0
-0.000285489 -0.400607 0
-0.0373193 -0.235083 0
-0.000277861 -0.304809 0
-0.039626 -0.128043 0
-0.000604946 -0.201473 0
-0.0407956 -0.017809 0
-0.000761094 -0.0931277 0
0.0337631 -0.0890766 0
-0.0046381 -0.0168498 0
0.0330487 -0.19297 0
-0.0043681 -0.122558 0
0.0317192 -0.292101 0
-0.00380902 -0.225217 0
0.0292601 -0.384064 0
-0.00353278 -0.322323 0
0.0260716 -0.466615 0
-0.00319731 -0.411517 0
0.0222234 -0.537717 0
-0.00279293 -0.490627 0
0.0178143 -0.595612 0
-0.00232715 -0.557695 0
0.0129575 -0.638868 0
-0.00180831 -0.611064 0
0.00777577 -0.666411 0
-0.00124716 -0.649411 0
0.00239907 -0.677555 0
-0.000655932 -0.671784 0
-0.00303902 -0.672018 0
-4.82753e-05 -0.677622 0
-0.00840434 -0.649925 0
0.000560901 -0.666774 0
-0.0135654 -0.611815 0
0.0011557 -0.639497 0
-0.0183968 -0.558617 0
0.0017195 -0.596456 0
-0.0227823 -0.491638 0
0.00223512 -0.538704 0
-0.0266188 -0.412524 0
0.00268471 -0.46766 0
-0.0298158 -0.323224 0
0.003052 -0.385072 0
-0.0322907 -0.225934 0
0.00333808 -0.292974 0
-0.0343094 -0.123038 0
0.00321768 -0.193633 0
-0.0353252 -0.0170889 0
0.00316257 -0.0894844 0
0.0286598 -0.0864857 0
-0.00862236 -0.0163777 0
0.0281143 -0.187369 0
-0.00825844 -0.118976 0
0.0270614 -0.283529 0
-0.00738055 -0.218659 0
0.0249682 -0.372766 0
-0.00685634 -0.312852 0
0.0222341 -0.452879 0
-0.00618055 -0.399403 0
0.0189433 -0.521879 0
-0.00534583 -0.476173 0
0.0151784 -0.578058 0
-0.00437794 -0.541258 0
0.0110343 -0.620027 0
-0.00330284 -0.593044 0
0.00661424 -0.646745 0
-0.00214712 -0.630249 0
0.00202819 -0.657547 0
-0.000938754 -0.651949 0
-0.00261038 -0.65216 0
0.000292854 -0.657603 0
-0.00718723 -0.630707 0
0.00151729 -0.647064 0
-0.0115903 -0.593711 0
0.0027037 -0.620583 0
-0.0157125 -0.542076 0
0.00382147 -0.578805 0
-0.019455 -0.477067 0
0.00484083 -0.522753 0
-0.0227299 -0.400282 0
0.00573197 -0.453802 0
-0.0254608 -0.313609 0
0.0064693 -0.373649 0
-0.0275694 -0.219197 0
0.00702924 -0.284264 0
-0.0293213 -0.119345 0
0.00712484 -0.187865 0
-0.0302049 -0.0165487 0
0.00715717 -0.086799 0
0.0238457 -0.0833606 0
-0.0112745 -0.016075 0
0.0234131 -0.181197 0
-0.0112141 -0.115196 0
0.0227176 -0.27454 0
-0.0101532 -0.211855 0
0.0209303 -0.361116 0
-0.00939344 -0.30327 0
0.0186118 -0.43886 0
-0.00848043 -0.387212 0
0.0158424 -0.505827 0
-0.0073204 -0.46168 0
0.012684 -0.560362 0
-0.00597381 -0.52481 0
0.00921183 -0.60112 0
-0.00447897 -0.57504 0
0.00551044 -0.62709 0
-0.00287352 -0.611129 0
0.00167102 -0.637627 0
-0.00119701 -0.632183 0
-0.00221177 -0.632465 0
0.00050938 -0.637677 0
-0.00604245 -0.611723 0
0.00220355 -0.627467 0
-0.00972715 -0.575906 0
0.00384336 -0.601799 0
-0.0131761 -0.525889 0
0.00538773 -0.561298 0
-0.016306 -0.462898 0
0.00679789 -0.506956 0
-0.0190436 -0.388472 0
0.00804239 -0.440105 0
-0.0213246 -0.304443 0
0.0090774 -0.362381 0
-0.0230972 -0.212887 0
0.00986775 -0.275697 0
-0.0245906 -0.115904 0
0.010283 -0.182195 0
-0.0253651 -0.0161827 0
0.0102615 -0.0840239 0
0.0206982 -0.0844027 0
-0.0159356 -0.0159356 0
0.0199722 -0.182539 0
-0.0156081 -0.115908 0
0.0194831 -0.276769 0
-0.0148998 -0.21288 0
0.0179662 -0.364233 0
-0.0138254 -0.305202 0
0.0159298 -0.442701 0
-0.0124111 -0.390058 0
0.0135398 -0.510282 0
-0.0106915 -0.465283 0
0.0108224 -0.565317 0
-0.00870849 -0.529065 0
0.0078389 -0.606449 0
-0.0065107 -0.579839 0
0.00466119 -0.632663 0
-0.00415193 -0.616351 0
0.00136716 -0.643305 0
-0.00169006 -0.637699 0
-0.00196222 -0.638108 0
0.000814418 -0.64335 0
-0.00524506 -0.617193 0
0.00329985 -0.633158 0
-0.00840072 -0.581068 0
0.00570495 -0.607368 0
-0.0113518 -0.530617 0
0.00797032 -0.566609 0
-0.0140258 -0.467076 0
0.0100399 -0.511877 0
-0.016353 -0.392011 0
0.0118624 -0.444518 0
-0.0182885 -0.307261 0
0.0133927 -0.36619 0
-0.0197934 -0.214894 0
0.0145927 -0.278813 0
-0.0209419 -0.117059 0
0.0154326 -0.184522 0
-0.0217566 -0.0159862 0
0.0158913 -0.0855116 0
