# vtk DataFile Version 3.0
tp3485 cell-vector
ASCII
DATASET UNSTRUCTURED_GRID
POINTS 441 double
0 0 0
0.05 0 0
0.1 0 0
0.15 0 0
0.2 0 0
0.25 0 0
0.3 0 0
0.35 0 0
0.4 0 0
0.45 0 0
0.5 0 0
0.55 0 0
0.6 0 0
0.65 0 0
0.7 0 0
0.75 0 0
0.8 0 0
0.85 0 0
0.9 0 0
0.95 0 0
1 0 0
0 0.05 0
0.05 0.05 0
0.1 0.05 0
0.15 0.05 0
0.2 0.05 0
0.25 0.05 0
0.3 0.05 0
0.35 0.05 0
0.4 0.05 0
0.45 0.05 0
0.5 0.05 0
0.55 0.05 0
0.6 0.05 0
0.65 0.05 0
0.7 0.05 0
0.75 0.05 0
0.8 0.05 0
0.85 0.05 0
0.9 0.05 0
0.95 0.05 0
1 0.05 0
0 0.1 0
0.05 0.1 0
0.1 0.1 0
0.15 0.1 0
0.2 0.1 0
0.25 0.1 0
0.3 0.1 0
0.35 0.1 0
0.4 0.1 0
0.45 0.1 0
0.5 0.1 0
0.55 0.1 0
0.6 0.1 0
0.65 0.1 0
0.7 0.1 0
0.75 0.1 0
0.8 0.1 0
0.85 0.1 0
0.9 0.1 0
0.95 0.1 0
1 0.1 0
0 0.15 0
0.05 0.15 0
0.1 0.15 0
0.15 0.15 0
0.2 0.15 0
0.25 0.15 0
0.3 0.15 0
0.35 0.15 0
0.4 0.15 0
0.45 0.15 0
0.5 0.15 0
0.55 0.15 0
0.6 0.15 0
0.65 0.15 0
0.7 0.15 0
0.75 0.15 0
0.8 0.15 0
0.85 0.15 0
0.9 0.15 0
0.95 0.15 0
1 0.15 0
0 0.2 0
0.05 0.2 0
0.1 0.2 0
0.15 0.2 0
0.2 0.2 0
0.25 0.2 0
0.3 0.2 0
0.35 0.2 0
0.4 0.2 0
0.45 0.2 0
0.5 0.2 0
0.55 0.2 0
0.6 0.2 0
0.65 0.2 0
0.7 0.2 0
0.75 0.2 0
0.8 0.2 0
0.85 0.2 0
0.9 0.2 0
0.95 0.2 0
1 0.2 0
0 0.25 0
0.05 0.25 0
0.1 0.25 0
0.15 0.25 0
0.2 0.25 0
0.25 0.25 0
0.3 0.25 0
0.35 0.25 0
0.4 0.25 0
0.45 0.25 0
0.5 0.25 0
0.55 0.25 0
0.6 0.25 0
0.65 0.25 0
0.7 0.25 0
0.75 0.25 0
0.8 0.25 0
0.85 0.25 0
0.9 0.25 0
0.95 0.25 0
1 0.25 0
0 0.3 0
0.05 0.3 0
0.1 0.3 0
0.15 0.3 0
0.2 0.3 0
0.25 0.3 0
0.3 0.3 0
0.35 0.3 0
0.4 0.3 0
0.45 0.3 0
0.5 0.3 0
0.55 0.3 0
0.6 0.3 0
0.65 0.3 0
0.7 0.3 0
0.75 0.3 0
0.8 0.3 0
0.85 0.3 0
0.9 0.3 0
0.95 0.3 0
1 0.3 0
0 0.35 0
0.05 0.35 0
0.1 0.35 0
0.15 0.35 0
0.2 0.35 0
0.25 0.35 0
0.3 0.35 0
0.35 0.35 0
0.4 0.35 0
0.45 0.35 0
0.5 0.35 0
0.55 0.35 0
0.6 0.35 0
0.65 0.35 0
0.7 0.35 0
0.75 0.35 0
0.8 0.35 0
0.85 0.35 0
0.9 0.35 0
0.95 0.35 0
1 0.35 0
0 0.4 0
0.05 0.4 0
0.1 0.4 0
0.15 0.4 0
0.2 0.4 0
0.25 0.4 0
0.3 0.4 0
0.35 0.4 0
0.4 0.4 0
0.45 0.4 0
0.5 0.4 0
0.55 0.4 0
0.6 0.4 0
0.65 0.4 0
0.7 0.4 0
0.75 0.4 0
0.8 0.4 0
0.85 0.4 0
0.9 0.4 0
0.95 0.4 0
1 0.4 0
0 0.45 0
0.05 0.45 0
0.1 0.45 0
0.15 0.45 0
0.2 0.45 0
0.25 0.45 0
0.3 0.45 0
0.35 0.45 0
0.4 0.45 0
0.45 0.45 0
0.5 0.45 0
0.55 0.45 0
0.6 0.45 0
0.65 0.45 0
0.7 0.45 0
0.75 0.45 0
0.8 0.45 0
0.85 0.45 0
0.9 0.45 0
0.95 0.45 0
1 0.45 0
0 0.5 0
0.05 0.5 0
0.1 0.5 0
0.15 0.5 0
0.2 0.5 0
0.25 0.5 0
0.3 0.5 0
0.35 0.5 0
0.4 0.5 0
0.45 0.5 0
0.5 0.5 0
0.55 0.5 0
0.6 0.5 0
0.65 0.5 0
0.7 0.5 0
0.75 0.5 0
0.8 0.5 0
0.85 0.5 0
0.9 0.5 0
0.95 0.5 0
1 0.5 0
0 0.55 0
0.05 0.55 0
0.1 0.55 0
0.15 0.55 0
0.2 0.55 0
0.25 0.55 0
0.3 0.55 0
0.35 0.55 0
0.4 0.55 0
0.45 0.55 0
0.5 0.55 0
0.55 0.55 0
0.6 0.55 0
0.65 0.55 0
0.7 0.55 0
0.75 0.55 0
0.8 0.55 0
0.85 0.55 0
0.9 0.55 0
0.95 0.55 0
1 0.55 0
0 0.6 0
0.05 0.6 0
0.1 0.6 0
0.15 0.6 0
0.2 0.6 0
0.25 0.6 0
0.3 0.6 0
0.35 0.6 0
0.4 0.6 0
0.45 0.6 0
0.5 0.6 0
0.55 0.6 0
0.6 0.6 0
0.65 0.6 0
0.7 0.6 0
0.75 0.6 0
0.8 0.6 0
0.85 0.6 0
0.9 0.6 0
0.95 0.6 0
1 0.6 0
0 0.65 0
0.05 0.65 0
0.1 0.65 0
0.15 0.65 0
0.2 0.65 0
0.25 0.65 0
0.3 0.65 0
0.35 0.65 0
0.4 0.65 0
0.45 0.65 0
0.5 0.65 0
0.55 0.65 0
0.6 0.65 0
0.65 0.65 0
0.7 0.65 0
0.75 0.65 0
0.8 0.65 0
0.85 0.65 0
0.9 0.65 0
0.95 0.65 0
1 0.65 0
0 0.7 0
0.05 0.7 0
0.1 0.7 0
0.15 0.7 0
0.2 0.7 0
0.25 0.7 0
0.3 0.7 0
0.35 0.7 0
0.4 0.7 0
0.45 0.7 0
0.5 0.7 0
0.55 0.7 0
0.6 0.7 0
0.65 0.7 0
0.7 0.7 0
0.75 0.7 0
0.8 0.7 0
0.85 0.7 0
0.9 0.7 0
0.95 0.7 0
1 0.7 0
0 0.75 0
0.05 0.75 0
0.1 0.75 0
0.15 0.75 0
0.2 0.75 0
0.25 0.75 0
0.3 0.75 0
0.35 0.75 0
0.4 0.75 0
0.45 0.75 0
0.5 0.75 0
0.55 0.75 0
0.6 0.75 0
0.65 0.75 0
0.7 0.75 0
0.75 0.75 0
0.8 0.75 0
0.85 0.75 0
0.9 0.75 0
0.95 0.75 0
1 0.75 0
0 0.8 0
0.05 0.8 0
0.1 0.8 0
0.15 0.8 0
0.2 0.8 0
0.25 0.8 0
0.3 0.8 0
0.35 0.8 0
0.4 0.8 0
0.45 0.8 0
0.5 0.8 0
0.55 0.8 0
0.6 0.8 0
0.65 0.8 0
0.7 0.8 0
0.75 0.8 0
0.8 0.8 0
0.85 0.8 0
0.9 0.8 0
0.95 0.8 0
1 0.8 0
0 0.85 0
0.05 0.85 0
0.1 0.85 0
0.15 0.85 0
0.2 0.85 0
0.25 0.85 0
0.3 0.85 0
0.35 0.85 0
0.4 0.85 0
0.45 0.85 0
0.5 0.85 0
0.55 0.85 0
0.6 0.85 0
0.65 0.85 0
0.7 0.85 0
0.75 0.85 0
0.8 0.85 0
0.85 0.85 0
0.9 0.85 0
0.95 0.85 0
1 0.85 0
0 0.9 0
0.05 0.9 0
0.1 0.9 0
0.15 0.9 0
0.2 0.9 0
0.25 0.9 0
0.3 0.9 0
0.35 0.9 0
0.4 0.9 0
0.45 0.9 0
0.5 0.9 0
0.55 0.9 0
0.6 0.9 0
0.65 0.9 0
0.7 0.9 0
0.75 0.9 0
0.8 0.9 0
0.85 0.9 0
0.9 0.9 0
0.95 0.9 0
1 0.9 0
0 0.95 0
0.05 0.95 0
0.1 0.95 0
0.15 0.95 0
0.2 0.95 0
0.25 0.95 0
0.3 0.95 0
0.35 0.95 0
0.4 0.95 0
0.45 0.95 0
0.5 0.95 0
0.55 0.95 0
0.6 0.95 0
0.65 0.95 0
0.7 0.95 0
0.75 0.95 0
0.8 0.95 0
0.85 0.95 0
0.9 0.95 0
0.95 0.95 0
1 0.95 0
0 1 0
0.05 1 0
0.1 1 0
0.15 1 0
0.2 1 0
0.25 1 0
0.3 1 0
0.35 1 0
0.4 1 0
0.45 1 0
0.5 1 0
0.55 1 0
0.6 1 0
0.65 1 0
0.7 1 0
0.75 1 0
0.8 1 0
0.85 1 0
0.9 1 0
0.95 1 0
1 1 0
CELLS 800 3200
3 0 1 22
3 0 22 21
3 1 2 23
3 1 23 22
3 2 3 24
3 2 24 23
3 3 4 25
3 3 25 24
3 4 5 26
3 4 26 25
3 5 6 27
3 5 27 26
3 6 7 28
3 6 28 27
3 7 8 29
3 7 29 28
3 8 9 30
3 8 30 29
3 9 10 31
3 9 31 30
3 10 11 32
3 10 32 31
3 11 12 33
3 11 33 32
3 12 13 34
3 12 34 33
3 13 14 35
3 13 35 34
3 14 15 36
3 14 36 35
3 15 16 37
3 15 37 36
3 16 17 38
3 16 38 37
3 17 18 39
3 17 39 38
3 18 19 40
3 18 40 39
3 19 20 41
3 19 41 40
3 21 22 43
3 21 43 42
3 22 23 44
3 22 44 43
3 23 24 45
3 23 45 44
3 24 25 46
3 24 46 45
3 25 26 47
3 25 47 46
3 26 27 48
3 26 48 47
3 27 28 49
3 27 49 48
3 28 29 50
3 28 50 49
3 29 30 51
3 29 51 50
3 30 31 52
3 30 52 51
3 31 32 53
3 31 53 52
3 32 33 54
3 32 54 53
3 33 34 55
3 33 55 54
3 34 35 56
3 34 56 55
3 35 36 57
3 35 57 56
3 36 37 58
3 36 58 57
3 37 38 59
3 37 59 58
3 38 39 60
3 38 60 59
3 39 40 61
3 39 61 60
3 40 41 62
3 40 62 61
3 42 43 64
3 42 64 63
3 43 44 65
3 43 65 64
3 44 45 66
3 44 66 65
3 45 46 67
3 45 67 66
3 46 47 68
3 46 68 67
3 47 48 69
3 47 69 68
3 48 49 70
3 48 70 69
3 49 50 71
3 49 71 70
3 50 51 72
3 50 72 71
3 51 52 73
3 51 73 72
3 52 53 74
3 52 74 73
3 53 54 75
3 53 75 74
3 54 55 76
3 54 76 75
3 55 56 77
3 55 77 76
3 56 57 78
3 56 78 77
3 57 58 79
3 57 79 78
3 58 59 80
3 58 80 79
3 59 60 81
3 59 81 80
3 60 61 82
3 60 82 81
3 61 62 83
3 61 83 82
3 63 64 85
3 63 85 84
3 64 65 86
3 64 86 85
3 65 66 87
3 65 87 86
3 66 67 88
3 66 88 87
3 67 68 89
3 67 89 88
3 68 69 90
3 68 90 89
3 69 70 91
3 69 91 90
3 70 71 92
3 70 92 91
3 71 72 93
3 71 93 92
3 72 73 94
3 72 94 93
3 73 74 95
3 73 95 94
3 74 75 96
3 74 96 95
3 75 76 97
3 75 97 96
3 76 77 98
3 76 98 97
3 77 78 99
3 77 99 98
3 78 79 100
3 78 100 99
3 79 80 101
3 79 101 100
3 80 81 102
3 80 102 101
3 81 82 103
3 81 103 102
3 82 83 104
3 82 104 103
3 84 85 106
3 84 106 105
3 85 86 107
3 85 107 106
3 86 87 108
3 86 108 107
3 87 88 109
3 87 109 108
3 88 89 110
3 88 110 109
3 89 90 111
3 89 111 110
3 90 91 112
3 90 112 111
3 91 92 113
3 91 113 112
3 92 93 114
3 92 114 113
3 93 94 115
3 93 115 114
3 94 95 116
3 94 116 115
3 95 96 117
3 95 117 116
3 96 97 118
3 96 118 117
3 97 98 119
3 97 119 118
3 98 99 120
3 98 120 119
3 99 100 121
3 99 121 120
3 100 101 122
3 100 122 121
3 101 102 123
3 101 123 122
3 102 103 124
3 102 124 123
3 103 104 125
3 103 125 124
3 105 106 127
3 105 127 126
3 106 107 128
3 106 128 127
3 107 108 129
3 107 129 128
3 108 109 130
3 108 130 129
3 109 110 131
3 109 131 130
3 110 111 132
3 110 132 131
3 111 112 133
3 111 133 132
3 112 113 134
3 112 134 133
3 113 114 135
3 113 135 134
3 114 115 136
3 114 136 135
3 115 116 137
3 115 137 136
3 116 117 138
3 116 138 137
3 117 118 139
3 117 139 138
3 118 119 140
3 118 140 139
3 119 120 141
3 119 141 140
3 120 121 142
3 120 142 141
3 121 122 143
3 121 143 142
3 122 123 144
3 122 144 143
3 123 124 145
3 123 145 144
3 124 125 146
3 124 146 145
3 126 127 148
3 126 148 147
3 127 128 149
3 127 149 148
3 128 129 150
3 128 150 149
3 129 130 151
3 129 151 150
3 130 131 152
3 130 152 151
3 131 132 153
3 131 153 152
3 132 133 154
3 132 154 153
3 133 134 155
3 133 155 154
3 134 135 156
3 134 156 155
3 135 136 157
3 135 157 156
3 136 137 158
3 136 158 157
3 137 138 159
3 137 159 158
3 138 139 160
3 138 160 159
3 139 140 161
3 139 161 160
3 140 141 162
3 140 162 161
3 141 142 163
3 141 163 162
3 142 143 164
3 142 164 163
3 143 144 165
3 143 165 164
3 144 145 166
3 144 166 165
3 145 146 167
3 145 167 166
3 147 148 169
3 147 169 168
3 148 149 170
3 148 170 169
3 149 150 171
3 149 171 170
3 150 151 172
3 150 172 171
3 151 152 173
3 151 173 172
3 152 153 174
3 152 174 173
3 153 154 175
3 153 175 174
3 154 155 176
3 154 176 175
3 155 156 177
3 155 177 176
3 156 157 178
3 156 178 177
3 157 158 179
3 157 179 178
3 158 159 180
3 158 180 179
3 159 160 181
3 159 181 180
3 160 161 182
3 160 182 181
3 161 162 183
3 161 183 182
3 162 163 184
3 162 184 183
3 163 164 185
3 163 185 184
3 164 165 186
3 164 186 185
3 165 166 187
3 165 187 186
3 166 167 188
3 166 188 187
3 168 169 190
3 168 190 189
3 169 170 191
3 169 191 190
3 170 171 192
3 170 192 191
3 171 172 193
3 171 193 192
3 172 173 194
3 172 194 193
3 173 174 195
3 173 195 194
3 174 175 196
3 174 196 195
3 175 176 197
3 175 197 196
3 176 177 198
3 176 198 197
3 177 178 199
3 177 199 198
3 178 179 200
3 178 200 199
3 179 180 201
3 179 201 200
3 180 181 202
3 180 202 201
3 181 182 203
3 181 203 202
3 182 183 204
3 182 204 203
3 183 184 205
3 183 205 204
3 184 185 206
3 184 206 205
3 185 186 207
3 185 207 206
3 186 187 208
3 186 208 207
3 187 188 209
3 187 209 208
3 189 190 211
3 189 211 210
3 190 191 212
3 190 212 211
3 191 192 213
3 191 213 212
3 192 193 214
3 192 214 213
3 193 194 215
3 193 215 214
3 194 195 216
3 194 216 215
3 195 196 217
3 195 217 216
3 196 197 218
3 196 218 217
3 197 198 219
3 197 219 218
3 198 199 220
3 198 220 219
3 199 200 221
3 199 221 220
3 200 201 222
3 200 222 221
3 201 202 223
3 201 223 222
3 202 203 224
3 202 224 223
3 203 204 225
3 203 225 224
3 204 205 226
3 204 226 225
3 205 206 227
3 205 227 226
3 206 207 228
3 206 228 227
3 207 208 229
3 207 229 228
3 208 209 230
3 208 230 229
3 210 211 232
3 210 232 231
3 211 212 233
3 211 233 232
3 212 213 234
3 212 234 233
3 213 214 235
3 213 235 234
3 214 215 236
3 214 236 235
3 215 216 237
3 215 237 236
3 216 217 238
3 216 238 237
3 217 218 239
3 217 239 238
3 218 219 240
3 218 240 239
3 219 220 241
3 219 241 240
3 220 221 242
3 220 242 241
3 221 222 243
3 221 243 242
3 222 223 244
3 222 244 243
3 223 224 245
3 223 245 244
3 224 225 246
3 224 246 245
3 225 226 247
3 225 247 246
3 226 227 248
3 226 248 247
3 227 228 249
3 227 249 248
3 228 229 250
3 228 250 249
3 229 230 251
3 229 251 250
3 231 232 253
3 231 253 252
3 232 233 254
3 232 254 253
3 233 234 255
3 233 255 254
3 234 235 256
3 234 256 255
3 235 236 257
3 235 257 256
3 236 237 258
3 236 258 257
3 237 238 259
3 237 259 258
3 238 239 260
3 238 260 259
3 239 240 261
3 239 261 260
3 240 241 262
3 240 262 261
3 241 242 263
3 241 263 262
3 242 243 264
3 242 264 263
3 243 244 265
3 243 265 264
3 244 245 266
3 244 266 265
3 245 246 267
3 245 267 266
3 246 247 268
3 246 268 267
3 247 248 269
3 247 269 268
3 248 249 270
3 248 270 269
3 249 250 271
3 249 271 270
3 250 251 272
3 250 272 271
3 252 253 274
3 252 274 273
3 253 254 275
3 253 275 274
3 254 255 276
3 254 276 275
3 255 256 277
3 255 277 276
3 256 257 278
3 256 278 277
3 257 258 279
3 257 279 278
3 258 259 280
3 258 280 279
3 259 260 281
3 259 281 280
3 260 261 282
3 260 282 281
3 261 262 283
3 261 283 282
3 262 263 284
3 262 284 283
3 263 264 285
3 263 285 284
3 264 265 286
3 264 286 285
3 265 266 287
3 265 287 286
3 266 267 288
3 266 288 287
3 267 268 289
3 267 289 288
3 268 269 290
3 268 290 289
3 269 270 291
3 269 291 290
3 270 271 292
3 270 292 291
3 271 272 293
3 271 293 292
3 273 274 295
3 273 295 294
3 274 275 296
3 274 296 295
3 275 276 297
3 275 297 296
3 276 277 298
3 276 298 297
3 277 278 299
3 277 299 298
3 278 279 300
3 278 300 299
3 279 280 301
3 279 301 300
3 280 281 302
3 280 302 301
3 281 282 303
3 281 303 302
3 282 283 304
3 282 304 303
3 283 284 305
3 283 305 304
3 284 285 306
3 284 306 305
3 285 286 307
3 285 307 306
3 286 287 308
3 286 308 307
3 287 288 309
3 287 309 308
3 288 289 310
3 288 310 309
3 289 290 311
3 289 311 310
3 290 291 312
3 290 312 311
3 291 292 313
3 291 313 312
3 292 293 314
3 292 314 313
3 294 295 316
3 294 316 315
3 295 296 317
3 295 317 316
3 296 297 318
3 296 318 317
3 297 298 319
3 297 319 318
3 298 299 320
3 298 320 319
3 299 300 321
3 299 321 320
3 300 301 322
3 300 322 321
3 301 302 323
3 301 323 322
3 302 303 324
3 302 324 323
3 303 304 325
3 303 325 324
3 304 305 326
3 304 326 325
3 305 306 327
3 305 327 326
3 306 307 328
3 306 328 327
3 307 308 329
3 307 329 328
3 308 309 330
3 308 330 329
3 309 310 331
3 309 331 330
3 310 311 332
3 310 332 331
3 311 312 333
3 311 333 332
3 312 313 334
3 312 334 333
3 313 314 335
3 313 335 334
3 315 316 337
3 315 337 336
3 316 317 338
3 316 338 337
3 317 318 339
3 317 339 338
3 318 319 340
3 318 340 339
3 319 320 341
3 319 341 340
3 320 321 342
3 320 342 341
3 321 322 343
3 321 343 342
3 322 323 344
3 322 344 343
3 323 324 345
3 323 345 344
3 324 325 346
3 324 346 345
3 325 326 347
3 325 347 346
3 326 327 348
3 326 348 347
3 327 328 349
3 327 349 348
3 328 329 350
3 328 350 349
3 329 330 351
3 329 351 350
3 330 331 352
3 330 352 351
3 331 332 353
3 331 353 352
3 332 333 354
3 332 354 353
3 333 334 355
3 333 355 354
3 334 335 356
3 334 356 355
3 336 337 358
3 336 358 357
3 337 338 359
3 337 359 358
3 338 339 360
3 338 360 359
3 339 340 361
3 339 361 360
3 340 341 362
3 340 362 361
3 341 342 363
3 341 363 362
3 342 343 364
3 342 364 363
3 343 344 365
3 343 365 364
3 344 345 366
3 344 366 365
3 345 346 367
3 345 367 366
3 346 347 368
3 346 368 367
3 347 348 369
3 347 369 368
3 348 349 370
3 348 370 369
3 349 350 371
3 349 371 370
3 350 351 372
3 350 372 371
3 351 352 373
3 351 373 372
3 352 353 374
3 352 374 373
3 353 354 375
3 353 375 374
3 354 355 376
3 354 376 375
3 355 356 377
3 355 377 376
3 357 358 379
3 357 379 378
3 358 359 380
3 358 380 379
3 359 360 381
3 359 381 380
3 360 361 382
3 360 382 381
3 361 362 383
3 361 383 382
3 362 363 384
3 362 384 383
3 363 364 385
3 363 385 384
3 364 365 386
3 364 386 385
3 365 366 387
3 365 387 386
3 366 367 388
3 366 388 387
3 367 368 389
3 367 389 388
3 368 369 390
3 368 390 389
3 369 370 391
3 369 391 390
3 370 371 392
3 370 392 391
3 371 372 393
3 371 393 392
3 372 373 394
3 372 394 393
3 373 374 395
3 373 395 394
3 374 375 396
3 374 396 395
3 375 376 397
3 375 397 396
3 376 377 398
3 376 398 397
3 378 379 400
3 378 400 399
3 379 380 401
3 379 401 400
3 380 381 402
3 380 402 401
3 381 382 403
3 381 403 402
3 382 383 404
3 382 404 403
3 383 384 405
3 383 405 404
3 384 385 406
3 384 406 405
3 385 386 407
3 385 407 406
3 386 387 408
3 386 408 407
3 387 388 409
3 387 409 408
3 388 389 410
3 388 410 409
3 389 390 411
3 389 411 410
3 390 391 412
3 390 412 411
3 391 392 413
3 391 413 412
3 392 393 414
3 392 414 413
3 393 394 415
3 393 415 414
3 394 395 416
3 394 416 415
3 395 396 417
3 395 417 416
3 396 397 418
3 396 418 417
3 397 398 419
3 397 419 418
3 399 400 421
3 399 421 420
3 400 401 422
3 400 422 421
3 401 402 423
3 401 423 422
3 402 403 424
3 402 424 423
3 403 404 425
3 403 425 424
3 404 405 426
3 404 426 425
3 405 406 427
3 405 427 426
3 406 407 428
3 406 428 427
3 407 408 429
3 407 429 428
3 408 409 430
3 408 430 429
3 409 410 431
3 409 431 430
3 410 411 432
3 410 432 431
3 411 412 433
3 411 433 432
3 412 413 434
3 412 434 433
3 413 414 435
3 413 435 434
3 414 415 436
3 414 436 435
3 415 416 437
3 415 437 436
3 416 417 438
3 416 438 437
3 417 418 439
3 417 439 438
3 418 419 440
3 418 440 439
CELL_TYPES 800
5
5
5
5
5
5
5
5
5
5
5
5
5
5
5
5
5
5
5
5
5
5
5
5
5
5
5
5
5
5
5
5
5
5
5
5
5
5
5
5
5
5
5
5
5
5
5
5
5
5
5
5
5
5
5
5
5
5
5
5
5
5
5
5
5
5
5
5
5
5
5
5
5
5
5
5
5
5
5
5
5
5
5
5
5
5
5
5
5
5
5
5
5
5
5
5
5
5
5
5
5
5
5
5
5
5
5
5
5
5
5
5
5
5
5
5
5
5
5
5
5
5
5
5
5
5
5
5
5
5
5
5
5
5
5
5
5
5
5
5
5
5
5
5
5
5
5
5
5
5
5
5
5
5
5
5
5
5
5
5
5
5
5
5
5
5
5
5
5
5
5
5
5
5
5
5
5
5
5
5
5
5
5
5
5
5
5
5
5
5
5
5
5
5
5
5
5
5
5
5
5
5
5
5
5
5
5
5
5
5
5
5
5
5
5
5
5
5
5
5
5
5
5
5
5
5
5
5
5
5
5
5
5
5
5
5
5
5
5
5
5
5
5
5
5
5
5
5
5
5
5
5
5
5
5
5
5
5
5
5
5
5
5
5
5
5
5
5
5
5
5
5
5
5
5
5
5
5
5
5
5
5
5
5
5
5
5
5
5
5
5
5
5
5
5
5
5
5
5
5
5
5
5
5
5
5
5
5
5
5
5
5
5
5
5
5
5
5
5
5
5
5
5
5
5
5
5
5
5
5
5
5
5
5
5
5
5
5
5
5
5
5
5
5
5
5
5
5
5
5
5
5
5
5
5
5
5
5
5
5
5
5
5
5
5
5
5
5
5
5
5
5
5
5
5
5
5
5
5
5
5
5
5
5
5
5
5
5
5
5
5
5
5
5
5
5
5
5
5
5
5
5
5
5
5
5
5
5
5
5
5
5
5
5
5
5
5
5
5
5
5
5
5
5
5
5
5
5
5
5
5
5
5
5
5
5
5
5
5
5
5
5
5
5
5
5
5
5
5
5
5
5
5
5
5
5
5
5
5
5
5
5
5
5
5
5
5
5
5
5
5
5
5
5
5
5
5
5
5
5
5
5
5
5
5
5
5
5
5
5
5
5
5
5
5
5
5
5
5
5
5
5
5
5
5
5
5
5
5
5
5
5
5
5
5
5
5
5
5
5
5
5
5
5
5
5
5
5
5
5
5
5
5
5
5
5
5
5
5
5
5
5
5
5
5
5
5
5
5
5
5
5
5
5
5
5
5
5
5
5
5
5
5
5
5
5
5
5
5
5
5
5
5
5
5
5
5
5
5
5
5
5
5
5
5
5
5
5
5
5
5
5
5
5
5
5
5
5
5
5
5
5
5
5
5
5
5
5
5
5
5
5
5
5
5
5
5
5
5
5
5
5
5
5
5
5
5
5
5
5
5
5
5
5
5
5
5
5
5
5
5
5
5
5
5
5
5
5
5
5
5
5
5
5
5
5
5
5
5
5
5
5
5
5
5
5
5
5
5
5
5
5
5
5
5
5
5
5
5
5
5
5
5
5
5
5
5
5
5
5
5
5
5
5
5
5
5
5
5
5
5
5
5
5
5
5
5
5
5
5
5
5
5
5
5
5
5
5
5
5
5
5
5
5
5
5
5
5
5
5
5
5
5
5
5
5
5
5
5
5
5
5
5
5
5
5
5
5
5
5
5
5
5
5
5
5
5
5
5
5
5
5
5
5
5
5
5
5
5
5
5
5
5
5
5
5
5
5
5
5
5
5
5
5
5
5
5
5
5
5
5
5
5
5
5
5
5
5
5
5
CELL_DATA 800
VECTORS Et double
-0.0382072 -0.0426446 0
-0.197983 0.039462 0
-0.0279672 -0.0319024 0
-0.147486 0.0276058 0
-0.0113562 -0.0169924 0
-0.0705855 0.0134728 0
0.0079122 0.000821841 0
0.0247038 -0.00684689 0
0.0255823 0.017751 0
0.115432 -0.0268034 0
0.0377435 0.0300803 0
0.181405 -0.0418343 0
0.0416839 0.0351495 0
0.207992 -0.0485691 0
0.0364898 0.0319249 0
0.189163 -0.0453964 0
0.0232482 0.0212301 0
0.12883 -0.0328344 0
0.0048133 0.00556129 0
0.0400092 -0.0134197 0
-0.0148122 -0.0114689 0
-0.0580128 0.00883374 0
-0.0313484 -0.0259349 0
-0.143873 0.0292922 0
-0.041171 -0.0344694 0
-0.198787 0.0436944 0
-0.0421022 -0.0350105 0
-0.210643 0.0490651 0
-0.0338886 -0.0272585 0
-0.176652 0.0443542 0
-0.0182605 -0.0127365 0
-0.103957 0.0306645 0
0.00143994 0.00553371 0
-0.00811233 0.0110249 0
0.0209756 0.0236897 0
0.090266 -0.0102656 0
0.0361783 0.0341564 0
0.166443 -0.028608 0
0.0438733 0.0438733 0
0.21704 -0.0437212 0
-0.273887 -0.0392132 0
-0.423033 0.0367456 0
-0.206326 -0.0280689 0
-0.318309 0.0271732 0
-0.0991088 -0.0130031 0
-0.154952 0.0152266 0
0.0330343 0.00445647 0
0.0478717 -0.00257455 0
0.159048 0.0204499 0
0.241701 -0.0204822 0
0.250933 0.0314533 0
0.383611 -0.0345759 0
0.288304 0.0350584 0
0.442152 -0.041728 0
0.262678 0.0305229 0
0.404104 -0.0402991 0
0.179364 0.0189256 0
0.277376 -0.0304761 0
0.0563251 0.00292293 0
0.0893143 -0.0142453 0
-0.0797275 -0.0138421 0
-0.119244 0.00502713 0
-0.199144 -0.0275483 0
-0.302853 0.0233125 0
-0.275797 -0.0350434 0
-0.421358 0.0367813 0
-0.292776 -0.0345428 0
-0.448651 0.0426241 0
-0.246089 -0.0260276 0
-0.378375 0.0396553 0
-0.145541 -0.0112549 0
-0.225333 0.0285668 0
-0.0126437 0.00661046 0
-0.0223236 0.0117776 0
0.124023 0.0236394 0
0.186894 -0.00709628 0
0.231591 0.0344208 0
0.352321 -0.0241209 0
0.299881 0.0411417 0
0.457429 -0.037335 0
-0.492173 -0.0377531 0
-0.625782 0.0317305 0
-0.372203 -0.0299889 0
-0.472745 0.0206227 0
-0.18169 -0.0178724 0
-0.232897 0.00852719 0
0.0543247 -0.00183192 0
0.0660178 -0.00769587 0
0.280075 0.0144353 0
0.352066 -0.0222995 0
0.445616 0.0273157 0
0.562226 -0.0322665 0
0.514275 0.0339704 0
0.650051 -0.0354522 0
0.47056 0.0329575 0
0.595823 -0.0311483 0
0.32356 0.0245393 0
0.410873 -0.0202421 0
0.104993 0.0106171 0
0.135151 -0.00503361 0
-0.137678 -0.00569355 0
-0.171449 0.0112535 0
-0.351575 -0.020753 0
-0.442126 0.0251616 0
-0.489924 -0.0312008 0
-0.617721 0.0337403 0
-0.522253 -0.0346962 0
-0.659613 0.0351792 0
-0.44105 -0.030434 0
-0.558154 0.0291962 0
-0.263428 -0.0193257 0
-0.334809 0.0170959 0
-0.0274652 -0.00379529 0
-0.0375336 0.00148168 0
0.215976 0.0128535 0
0.269634 -0.0142981 0
0.409591 0.0245679 0
0.513204 -0.0268146 0
0.530605 0.0352459 0
0.668175 -0.035709 0
-0.683727 -0.0336057 0
-0.792731 0.0245919 0
-0.518264 -0.0296785 0
-0.6006 0.0128638 0
-0.256168 -0.0207146 0
-0.298743 0.001508 0
0.070087 -0.00702176 0
0.0779623 -0.0114506 0
0.382583 0.00834685 0
0.43897 -0.0216264 0
0.612531 0.0219819 0
0.704966 -0.0268815 0
0.709156 0.0308678 0
0.817364 -0.0261498 0
0.6508 0.0330436 0
0.751105 -0.0196432 0
0.449676 0.0280239 0
0.520144 -0.0088084 0
0.149244 0.016898 0
0.174452 0.00398147 0
-0.185228 0.00208561 0
-0.210845 0.0159362 0
-0.480869 -0.0131973 0
-0.55181 0.0244484 0
-0.673075 -0.0256437 0
-0.773979 0.0276549 0
-0.719593 -0.0325776 0
-0.828592 0.0248379 0
-0.609752 -0.0325364 0
-0.703237 0.0165802 0
-0.366823 -0.0255869 0
-0.424585 0.00463918 0
-0.0430046 -0.013315 0
-0.0526468 -0.00843427 0
0.291898 0.00158469 0
0.332306 -0.0198491 0
0.558421 0.0142429 0
0.638356 -0.0271574 0
0.72638 0.0268353 0
0.832913 -0.0302566 0
-0.835512 -0.0277379 0
-0.912762 0.0156617 0
-0.634583 -0.0284738 0
-0.693317 0.00349148 0
-0.316894 -0.0237393 0
-0.348046 -0.00691798 0
0.0794461 -0.0133758 0
0.0832612 -0.0161921 0
0.459627 0.000313825 0
0.497131 -0.0212752 0
0.740213 0.0143053 0
0.802927 -0.0211594 0
0.859476 0.0255061 0
0.93356 -0.015984 0
0.790891 0.0314302 0
0.860139 -0.00697913 0
0.548942 0.0307327 0
0.598286 0.00379915 0
0.18601 0.0234988 0
0.204769 0.0139129 0
-0.219016 0.0112212 0
-0.234838 0.0210704 0
-0.577905 -0.00352573 0
-0.624784 0.0236234 0
-0.812298 -0.0176456 0
-0.879986 0.0209253 0
-0.87079 -0.0281891 0
-0.944575 0.0134732 0
-0.740152 -0.032988 0
-0.804082 0.00280469 0
-0.44824 -0.0311155 0
-0.488613 -0.00883135 0
-0.0579897 -0.0230796 0
-0.0663438 -0.0189561 0
0.346286 -0.0106664 0
0.371344 -0.0253886 0
0.668466 0.00242597 0
0.720032 -0.0267219 0
0.872204 0.0166848 0
0.941476 -0.023473 0
-0.937155 -0.0204844 0
-0.977243 0.00543617 0
-0.713157 -0.0263402 0
-0.743985 -0.00703263 0
-0.359567 -0.0265016 0
-0.376779 -0.0162622 0
0.0822932 -0.0202968 0
0.0822928 -0.0215138 0
0.5067 -0.00910773 0
0.523351 -0.0212094 0
0.820824 0.00461298 0
0.850156 -0.0155288 0
0.955841 0.0178494 0
0.991317 -0.00583446 0
0.88198 0.0276702 0
0.915888 0.0056402 0
0.615017 0.0318597 0
0.64011 0.0162666 0
0.212872 0.0293988 0
0.223909 0.0235922 0
-0.236981 0.0206876 0
-0.242148 0.0258765 0
-0.636559 0.00746168 0
-0.65656 0.0224737 0
-0.898706 -0.00757929 0
-0.929002 0.0139777 0
-0.966084 -0.0213484 0
-0.999998 0.00209938 0
-0.823682 -0.0310294 0
-0.853885 -0.0106966 0
-0.502099 -0.0346734 0
-0.522234 -0.0217179 0
-0.0709333 -0.0316087 0
-0.0770081 -0.0286202 0
0.37639 -0.0225356 0
0.385148 -0.0299028 0
0.733317 -0.00977131 0
0.753999 -0.0252351 0
0.959519 0.00561325 0
0.988161 -0.0157615 0
-0.981083 -0.0122626 0
-0.980848 -0.00545103 0
-0.74786 -0.0230029 0
-0.747773 -0.0180515 0
-0.38047 -0.028253 0
-0.381818 -0.0255834 0
0.0792773 -0.0267734 0
0.0761041 -0.0265808 0
0.521417 -0.0189194 0
0.516571 -0.0209479 0
0.849598 -0.00636895 0
0.843879 -0.0100319 0
0.99224 0.00815489 0
0.986852 0.00369857 0
0.918171 0.0214585 0
0.914419 0.0171541 0
0.643418 0.0305704 0
0.642387 0.0272786 0
0.227736 0.0333907 0
0.230011 0.0317198 0
-0.238387 0.029153 0
-0.232901 0.029349 0
-0.653439 0.018597 0
-0.64555 0.0205143 0
-0.926986 0.00381797 0
-0.918094 0.00697268 0
-0.99937 -0.0121767 0
-0.991212 -0.00848326 0
-0.854713 -0.0261043 0
-0.84902 -0.0226217 0
-0.524374 -0.0351049 0
-0.522531 -0.0324619 0
-0.0801532 -0.0373612 0
-0.0829233 -0.0359131 0
0.381386 -0.0325331 0
0.37395 -0.0322272 0
0.750078 -0.0211557 0
0.73942 -0.0222494 0
0.984274 -0.00554134 0
0.971694 -0.00742784 0
-0.963293 -0.00417065 0
-0.922853 -0.0162532 0
-0.734883 -0.0193032 0
-0.70305 -0.0293575 0
-0.376962 -0.0293151 0
-0.361438 -0.0348589 0
0.0716175 -0.0330168 0
0.0659057 -0.0314841 0
0.50351 -0.0291203 0
0.477945 -0.0211506 0
0.825004 -0.0184152 0
0.785049 -0.00569045 0
0.9663 -0.00317619 0
0.920764 0.0114764 0
0.896795 0.0132756 0
0.855842 0.0265671 0
0.63174 0.027305 0
0.604652 0.0362045 0
0.228932 0.0357624 0
0.222056 0.0381692 0
-0.223873 0.0366757 0
-0.208557 0.031895 0
-0.628078 0.0296858 0
-0.593433 0.0186022 0
-0.895709 0.0161337 0
-0.848871 0.00103825 0
-0.968575 -0.00121816 0
-0.919441 -0.017111 0
-0.830936 -0.0187711 0
-0.790045 -0.0320131 0
-0.512924 -0.0328818 0
-0.489215 -0.04051 0
-0.0839941 -0.040764 0
-0.0830013 -0.0408198 0
0.362177 -0.0409756 0
0.339604 -0.0330284 0
0.719167 -0.0313768 0
0.679466 -0.0189889 0
0.946763 -0.0160055 0
0.895625 0.000526777 0
-0.884578 0.00204408 0
-0.80815 -0.0261814 0
-0.673815 -0.0162073 0
-0.611366 -0.0412406 0
-0.34797 -0.0297873 0
-0.315446 -0.0440314 0
0.0605682 -0.0385277 0
0.0531412 -0.035941 0
0.454845 -0.0388344 0
0.410671 -0.0216312 0
0.7492 -0.0304 0
0.678136 -0.00254192 0
0.880048 -0.0149744 0
0.797811 0.0173275 0
0.819282 0.00409325 0
0.744087 0.0336649 0
0.580437 0.0226261 0
0.529049 0.0428601 0
0.215735 0.0365381 0
0.199794 0.0428378 0
-0.195304 0.0427248 0
-0.171847 0.0335212 0
-0.563187 0.0397406 0
-0.504969 0.0168514 0
-0.807936 0.0281179 0
-0.727208 -0.00363298 0
-0.876495 0.0102598 0
-0.790485 -0.023562 0
-0.754274 -0.0100723 0
-0.681456 -0.0386792 0
-0.468328 -0.028605 0
-0.42446 -0.0457595 0
-0.0815689 -0.041854 0
-0.0766515 -0.0433439 0
0.321112 -0.047604 0
0.285224 -0.0324108 0
0.644819 -0.0418414 0
0.578332 -0.0158763 0
0.851886 -0.0251388 0
0.769192 0.00560599 0
-0.751415 0.00364519 0
-0.647874 -0.0346709 0
-0.5676 -0.0219861 0
-0.48381 -0.0550904 0
-0.29414 -0.0427289 0
-0.251117 -0.0603038 0
0.0474499 -0.0554461 0
0.0393375 -0.0524667 0
0.37919 -0.0557838 0
0.323463 -0.0346187 0
0.627772 -0.0437669 0
0.536596 -0.00896848 0
0.739641 -0.0220721 0
0.633035 0.0187406 0
0.690934 0.0045633 0
0.592381 0.0423836 0
0.492684 0.0303521 0
0.423977 0.0567766 0
0.188359 0.0496978 0
0.164833 0.0587817 0
-0.155622 0.0584007 0
-0.128461 0.0479694 0
-0.464375 0.0545647 0
-0.392061 0.0267005 0
-0.670851 0.0390053 0
-0.568772 -0.000395364 0
-0.730426 0.0150727 0
-0.620485 -0.0274322 0
-0.630596 -0.0120685 0
-0.536441 -0.04855 0
-0.393737 -0.0364986 0
-0.335551 -0.0591826 0
-0.0726499 -0.0523376 0
-0.0622427 -0.0569951 0
0.261639 -0.0581299 0
0.220265 -0.0419047 0
0.532092 -0.0527762 0
0.44764 -0.0190377 0
0.709915 -0.0324659 0
0.604973 0.00679435 0
-0.58118 0.0304002 0
-0.458624 -0.0300669 0
-0.431637 0.0124774 0
-0.344097 -0.0263467 0
-0.224315 -0.00595297 0
-0.179407 -0.0256935 0
0.0350798 -0.0215191 0
0.0275085 -0.0176251 0
0.28918 -0.0332368 0
0.228655 -0.0042814 0
0.479871 -0.037882 0
0.38056 0.00900227 0
0.566347 -0.0344191 0
0.450181 0.0200165 0
0.530382 -0.023573 0
0.422932 0.0264048 0
0.3803 -0.00763464 0
0.305259 0.0268177 0
0.149123 0.0100197 0
0.123134 0.0212446 0
-0.112646 0.0256459 0
-0.083621 0.0109978 0
-0.348023 0.0359319 0
-0.27001 -0.00159156 0
-0.505958 0.0387033 0
-0.395664 -0.0136959 0
-0.552426 0.0333802 0
-0.433613 -0.0226219 0
-0.47781 0.0210736 0
-0.376145 -0.0264126 0
-0.298966 0.00430855 0
-0.236468 -0.0243019 0
-0.0555222 -0.0133099 0
-0.0455596 -0.0169113 0
0.195811 -0.0267678 0
0.152505 -0.00588151 0
0.397338 -0.0316951 0
0.311913 0.00752824 0
0.539504 -0.0322541 0
0.425336 0.0219536 0
-0.405158 0.00932762 0
-0.328609 -0.0219111 0
-0.301722 -0.014448 0
-0.248179 -0.0322058 0
-0.157063 -0.0338004 0
-0.129484 -0.042656 0
0.0252305 -0.0454437 0
0.0204257 -0.0427837 0
0.202428 -0.0473317 0
0.166241 -0.0334882 0
0.336263 -0.0394862 0
0.276485 -0.0172205 0
0.397592 -0.0235639 0
0.327566 0.00207826 0
0.373613 -0.00292554 0
0.308905 0.0202908 0
0.270042 0.01808 0
0.225048 0.0335846 0
0.109769 0.0350546 0
0.0945869 0.0392299 0
-0.0721453 0.0444931 0
-0.0539137 0.0361848 0
-0.236115 0.0445281 0
-0.188148 0.0253065 0
-0.346643 0.0353179 0
-0.279101 0.00914603 0
-0.380041 0.0189982 0
-0.307355 -0.00862477 0
-0.329572 -0.000783394 0
-0.267288 -0.0240251 0
-0.206902 -0.0196347 0
-0.168266 -0.0336299 0
-0.0392978 -0.033388 0
-0.0323862 -0.0352847 0
0.134229 -0.0373355 0
0.109921 -0.0285819 0
0.273269 -0.03081 0
0.223221 -0.0132945 0
0.374845 -0.0227847 0
0.302795 0.00702806 0
-0.289556 0.00534953 0
-0.234909 -0.0160786 0
-0.217059 -0.0110576 0
-0.176638 -0.0251423 0
-0.112809 -0.0248778 0
-0.0918167 -0.0318976 0
0.0192901 -0.0335055 0
0.0163828 -0.0317735 0
0.147747 -0.0355624 0
0.121508 -0.0251884 0
0.244817 -0.0307815 0
0.201106 -0.0140191 0
0.289737 -0.0201462 0
0.238355 -0.000828034 0
0.27323 -0.00581943 0
0.225659 0.011616 0
0.199346 0.00928698 0
0.166214 0.0207956 0
0.0844847 0.0221355 0
0.0732689 0.024949 0
-0.0461966 0.0302055 0
-0.0327971 0.0234419 0
-0.164271 0.0320188 0
-0.12892 0.0168853 0
-0.244231 0.0274389 0
-0.194375 0.0069791 0
-0.269032 0.0176838 0
-0.21527 -0.00387982 0
-0.233778 0.00505624 0
-0.187543 -0.0131341 0
-0.146758 -0.00754676 0
-0.117805 -0.0186247 0
-0.0274245 -0.0173838 0
-0.0218172 -0.0190465 0
0.0974195 -0.0219048 0
0.0791872 -0.0143494 0
0.196199 -0.0192463 0
0.159404 -0.00519496 0
0.267357 -0.0159856 0
0.214489 0.00726262 0
-0.206171 0.00361313 0
-0.166094 -0.0119026 0
-0.153651 -0.00966119 0
-0.124807 -0.0189575 0
-0.0793335 -0.0203996 0
-0.0640183 -0.0251914 0
0.015893 -0.0274369 0
0.013643 -0.0257414 0
0.108342 -0.0296067 0
0.0890351 -0.0216356 0
0.178265 -0.0265215 0
0.146285 -0.0140721 0
0.210894 -0.0187844 0
0.173418 -0.00472302 0
0.199588 -0.00790709 0
0.164984 0.00450144 0
0.147204 0.00399765 0
0.123202 0.0118154 0
0.0654222 0.0146557 0
0.0574384 0.0159197 0
-0.027821 0.0221008 0
-0.0178627 0.0162626 0
-0.112254 0.0250732 0
-0.0863373 0.0131316 0
-0.169682 0.0232643 0
-0.133263 0.00756148 0
-0.187934 0.0173593 0
-0.14875 0.00108002 0
-0.163487 0.00887064 0
-0.129863 -0.00464673 0
-0.102194 -0.000196372 0
-0.0812178 -0.00819155 0
-0.01793 -0.00779301 0
-0.0139115 -0.00867802 0
0.0706719 -0.01243 0
0.0569869 -0.00598084 0
0.14057 -0.0122744 0
0.1134 -0.000910752 0
0.189678 -0.0111763 0
0.151604 0.0062063 0
-0.144751 0.00117755 0
-0.11632 -0.00890691 0
-0.107681 -0.00976559 0
-0.0871002 -0.0156969 0
-0.0545991 -0.0186313 0
-0.0438016 -0.0214422 0
0.0135242 -0.0245646 0
0.011521 -0.0227745 0
0.0795611 -0.0264844 0
0.065291 -0.0204438 0
0.129613 -0.0240609 0
0.10627 -0.0151004 0
0.153209 -0.0177649 0
0.12597 -0.00792829 0
0.14561 -0.00878115 0
0.120502 -0.000366297 0
0.108805 0.00122816 0
0.0913892 0.00618324 0
0.0510426 0.0104575 0
0.0452013 0.0106331 0
-0.0149929 0.0173181 0
-0.00789761 0.0124165 0
-0.0749546 0.0207478 0
-0.0563762 0.0115756 0
-0.115956 0.0204054 0
-0.0898448 0.00871483 0
-0.129363 0.0167121 0
-0.101303 0.00483424 0
-0.112647 0.0107322 0
-0.0886374 0.0010809 0
-0.0698949 0.00391961 0
-0.0550433 -0.00152432 0
-0.0108599 -0.00222303 0
-0.00828251 -0.00232653 0
0.0512511 -0.00650945 0
0.041074 -0.00119861 0
0.100338 -0.00765563 0
0.0803384 0.00139622 0
0.134297 -0.0077929 0
0.10689 0.00519369 0
-0.100276 -0.000422948 0
-0.0800196 -0.00677122 0
-0.074195 -0.00977067 0
-0.0596145 -0.0132202 0
-0.0366351 -0.0173972 0
-0.0292523 -0.0186583 0
0.0115686 -0.0225552 0
0.00956307 -0.0206112 0
0.0583227 -0.0243456 0
0.0473571 -0.0195217 0
0.0938466 -0.0224763 0
0.0762816 -0.0157786 0
0.110769 -0.0172997 0
0.0904033 -0.0102197 0
0.105737 -0.00974186 0
0.0869834 -0.00392731 0
0.080125 -0.00112196 0
0.0670451 0.00199445 0
0.0397004 0.00710389 0
0.0351229 0.0066334 0
-0.00664829 0.0136213 0
-0.00174395 0.00943222 0
-0.0488589 0.0175012 0
-0.0355548 0.0102688 0
-0.0778853 0.018359 0
-0.0590881 0.00943919 0
-0.0876546 0.0163983 0
-0.0674617 0.00755153 0
-0.0763657 0.0123313 0
-0.0591732 0.00535581 0
-0.0468485 0.00719668 0
-0.0363964 0.00355062 0
-0.00590562 0.00211152 0
-0.00447097 0.00260858 0
0.0372291 -0.00198957 0
0.0293108 0.00265838 0
0.0712903 -0.00404609 0
0.0562021 0.00344437 0
0.0948216 -0.00544098 0
0.0743999 0.0049078 0
-0.0677386 -0.00160471 0
-0.0532831 -0.00527524 0
-0.0497254 -0.00993847 0
-0.039498 -0.0115258 0
-0.0237343 -0.0167503 0
-0.0188818 -0.0168345 0
0.00964425 -0.0213826 0
0.00748564 -0.0192517 0
0.0420491 -0.0230798 0
0.0332176 -0.0190242 0
0.0667294 -0.0215821 0
0.0530041 -0.0163777 0
0.0785976 -0.0171607 0
0.0628256 -0.0119175 0
0.0753323 -0.0105635 0
0.0608108 -0.00648055 0
0.0578614 -0.00287348 0
0.0476195 -0.000965287 0
0.0301385 0.00469354 0
0.0262777 0.00383603 0
-0.00173419 0.0110114 0
0.0015024 0.00737142 0
-0.0308427 0.0152411 0
-0.021333 0.0094039 0
-0.0509655 0.0169652 0
-0.0373681 0.0100145 0
-0.0579179 0.0162328 0
-0.0433038 0.00953743 0
-0.0504449 0.0135096 0
-0.0381031 0.00844439 0
-0.0304687 0.00954624 0
-0.0231931 0.00720793 0
-0.00264003 0.00519568 0
-0.00212585 0.00617449 0
0.0267183 0.00121961 0
0.0202349 0.00547693 0
0.0498937 -0.00148576 0
0.0380657 0.00500475 0
0.0659312 -0.00383677 0
0.0501418 0.00483139 0
-0.0436111 -0.00244815 0
-0.0331171 -0.00427266 0
-0.0317141 -0.0101721 0
-0.0245297 -0.0104145 0
-0.0145437 -0.0164555 0
-0.0114796 -0.0156968 0
0.00752666 -0.0207494 0
0.00515609 -0.0184323 0
0.028972 -0.0223872 0
0.021452 -0.0187862 0
0.0453347 -0.0211308 0
0.0340576 -0.0168692 0
0.0532571 -0.0171987 0
0.040436 -0.013132 0
0.0512027 -0.0112212 0
0.0393934 -0.00824945 0
0.0397743 -0.00412576 0
0.0313183 -0.00298425 0
0.0215668 0.00303004 0
0.0180815 0.00194982 0
0.000590598 0.00924318 0
0.00261723 0.00600262 0
-0.0186071 0.0137326 0
-0.0117219 0.00885875 0
-0.0319318 0.0160567 0
-0.021894 0.0104539 0
-0.0366255 0.0161597 0
-0.0258233 0.0109375 0
-0.0318544 0.0143421 0
-0.02284 0.0105941 0
-0.0188718 0.0111629 0
-0.0138083 0.00974454 0
-0.00072476 0.00730037 0
-0.000919048 0.00865146 0
0.0184412 0.00338158 0
0.0127991 0.00745176 0
0.0335722 0.00023053 0
0.0238177 0.00611294 0
0.0440777 -0.00277958 0
0.0312713 0.00483321 0
-0.0251535 -0.00315612 0
-0.0172863 -0.00366619 0
-0.0181351 -0.0104261 0
-0.0127777 -0.00990278 0
-0.00793944 -0.0164452 0
-0.0060789 -0.0150844 0
0.00513021 -0.0205137 0
0.00259483 -0.0180717 0
0.0178468 -0.0220602 0
0.0111247 -0.0187606 0
0.027555 -0.0208748 0
0.017787 -0.0172328 0
0.0322613 -0.0171603 0
0.0212576 -0.0138602 0
0.0310539 -0.011494 0
0.0209001 -0.00923519 0
0.0242883 -0.00472413 0
0.0168914 -0.00405607 0
0.0135009 0.00217832 0
0.0101741 0.000995645 0
0.00106694 0.00828441 0
0.00224424 0.00536148 0
-0.0103193 0.0128562 0
-0.00517841 0.0086771 0
-0.0182312 0.0154525 0
-0.0105242 0.0107972 0
-0.0210334 0.0159736 0
-0.0127117 0.0117737 0
-0.0182301 0.0146388 0
-0.0113756 0.0117962 0
-0.0105622 0.0119064 0
-0.00693707 0.0111127 0
0.00016639 0.00835868 0
-0.000496587 0.0099505 0
0.0114838 0.00457341 0
0.0064043 0.0084595 0
0.02046 0.00120069 0
0.0119752 0.00668799 0
0.0267241 -0.00213314 0
0.0157756 0.00477856 0
-0.0102924 -0.00321851 0
-0.0033944 -0.0033944 0
-0.0071802 -0.0103853 0
-0.00282582 -0.00937206 0
-0.00300592 -0.0162355 0
-0.00169155 -0.0146186 0
0.00250989 -0.0202798 0
-0.000206027 -0.0176812 0
0.00785548 -0.0219305 0
0.00134453 -0.018612 0
0.0119149 -0.0209574 0
0.00266474 -0.0174178 0
0.0138416 -0.0175152 0
0.00351218 -0.0143993 0
0.0132509 -0.0121155 0
0.00374553 -0.0100684 0
0.0102999 -0.00553708 0
0.00335113 -0.00505157 0
0.00565005 0.00130621 0
0.00244244 1.75176e-05 0
0.000321029 0.00751637 0
0.00123271 0.00459278 0
-0.00453223 0.0123516 0
-1.29869e-05 0.00828259 0
-0.00787092 0.0153312 0
-0.00103563 0.0108788 0
-0.00899711 0.0162867 0
-0.00163763 0.0123463 0
-0.0077032 0.0153539 0
-0.0017236 0.0127817 0
-0.00431413 0.0129107 0
-0.00131785 0.0123523 0
0.00039021 0.0094758 0
-0.000555178 0.0112356 0
0.00533547 0.00560697 0
0.000353058 0.00956962 0
0.00923207 0.00196926 0
0.00116926 0.00744294 0
0.0120613 -0.00181061 0
0.00168366 0.00507279 0
