# vtk DataFile Version 3.0
tp3485 cell-vector
ASCII
DATASET UNSTRUCTURED_GRID
POINTS 441 double
0 0 0
0.05 0 0
0.1 0 0
0.15 0 0
0.2 0 0
0.25 0 0
0.3 0 0
0.35 0 0
0.4 0 0
0.45 0 0
0.5 0 0
0.55 0 0
0.6 0 0
0.65 0 0
0.7 0 0
0.75 0 0
0.8 0 0
0.85 0 0
0.9 0 0
0.95 0 0
1 0 0
0 0.05 0
0.05 0.05 0
0.1 0.05 0
0.15 0.05 0
0.2 0.05 0
0.25 0.05 0
0.3 0.05 0
0.35 0.05 0
0.4 0.05 0
0.45 0.05 0
0.5 0.05 0
0.55 0.05 0
0.6 0.05 0
0.65 0.05 0
0.7 0.05 0
0.75 0.05 0
0.8 0.05 0
0.85 0.05 0
0.9 0.05 0
0.95 0.05 0
1 0.05 0
0 0.1 0
0.05 0.1 0
0.1 0.1 0
0.15 0.1 0
0.2 0.1 0
0.25 0.1 0
0.3 0.1 0
0.35 0.1 0
0.4 0.1 0
0.45 0.1 0
0.5 0.1 0
0.55 0.1 0
0.6 0.1 0
0.65 0.1 0
0.7 0.1 0
0.75 0.1 0
0.8 0.1 0
0.85 0.1 0
0.9 0.1 0
0.95 0.1 0
1 0.1 0
0 0.15 0
0.05 0.15 0
0.1 0.15 0
0.15 0.15 0
0.2 0.15 0
0.25 0.15 0
0.3 0.15 0
0.35 0.15 0
0.4 0.15 0
0.45 0.15 0
0.5 0.15 0
0.55 0.15 0
0.6 0.15 0
0.65 0.15 0
0.7 0.15 0
0.75 0.15 0
0.8 0.15 0
0.85 0.15 0
0.9 0.15 0
0.95 0.15 0
1 0.15 0
0 0.2 0
0.05 0.2 0
0.1 0.2 0
0.15 0.2 0
0.2 0.2 0
0.25 0.2 0
0.3 0.2 0
0.35 0.2 0
0.4 0.2 0
0.45 0.2 0
0.5 0.2 0
0.55 0.2 0
0.6 0.2 0
0.65 0.2 0
0.7 0.2 0
0.75 0.2 0
0.8 0.2 0
0.85 0.2 0
0.9 0.2 0
0.95 0.2 0
1 0.2 0
0 0.25 0
0.05 0.25 0
0.1 0.25 0
0.15 0.25 0
0.2 0.25 0
0.25 0.25 0
0.3 0.25 0
0.35 0.25 0
0.4 0.25 0
0.45 0.25 0
0.5 0.25 0
0.55 0.25 0
0.6 0.25 0
0.65 0.25 0
0.7 0.25 0
0.75 0.25 0
0.8 0.25 0
0.85 0.25 0
0.9 0.25 0
0.95 0.25 0
1 0.25 0
0 0.3 0
0.05 0.3 0
0.1 0.3 0
0.15 0.3 0
0.2 0.3 0
0.25 0.3 0
0.3 0.3 0
0.35 0.3 0
0.4 0.3 0
0.45 0.3 0
0.5 0.3 0
0.55 0.3 0
0.6 0.3 0
0.65 0.3 0
0.7 0.3 0
0.75 0.3 0
0.8 0.3 0
0.85 0.3 0
0.9 0.3 0
0.95 0.3 0
1 0.3 0
0 0.35 0
0.05 0.35 0
0.1 0.35 0
0.15 0.35 0
0.2 0.35 0
0.25 0.35 0
0.3 0.35 0
0.35 0.35 0
0.4 0.35 0
0.45 0.35 0
0.5 0.35 0
0.55 0.35 0
0.6 0.35 0
0.65 0.35 0
0.7 0.35 0
0.75 0.35 0
0.8 0.35 0
0.85 0.35 0
0.9 0.35 0
0.95 0.35 0
1 0.35 0
0 0.4 0
0.05 0.4 0
0.1 0.4 0
0.15 0.4 0
0.2 0.4 0
0.25 0.4 0
0.3 0.4 0
0.35 0.4 0
0.4 0.4 0
0.45 0.4 0
0.5 0.4 0
0.55 0.4 0
0.6 0.4 0
0.65 0.4 0
0.7 0.4 0
0.75 0.4 0
0.8 0.4 0
0.85 0.4 0
0.9 0.4 0
0.95 0.4 0
1 0.4 0
0 0.45 0
0.05 0.45 0
0.1 0.45 0
0.15 0.45 0
0.2 0.45 0
0.25 0.45 0
0.3 0.45 0
0.35 0.45 0
0.4 0.45 0
0.45 0.45 0
0.5 0.45 0
0.55 0.45 0
0.6 0.45 0
0.65 0.45 0
0.7 0.45 0
0.75 0.45 0
0.8 0.45 0
0.85 0.45 0
0.9 0.45 0
0.95 0.45 0
1 0.45 0
0 0.5 0
0.05 0.5 0
0.1 0.5 0
0.15 0.5 0
0.2 0.5 0
0.25 0.5 0
0.3 0.5 0
0.35 0.5 0
0.4 0.5 0
0.45 0.5 0
0.5 0.5 0
0.55 0.5 0
0.6 0.5 0
0.65 0.5 0
0.7 0.5 0
0.75 0.5 0
0.8 0.5 0
0.85 0.5 0
0.9 0.5 0
0.95 0.5 0
1 0.5 0
0 0.55 0
0.05 0.55 0
0.1 0.55 0
0.15 0.55 0
0.2 0.55 0
0.25 0.55 0
0.3 0.55 0
0.35 0.55 0
0.4 0.55 0
0.45 0.55 0
0.5 0.55 0
0.55 0.55 0
0.6 0.55 0
0.65 0.55 0
0.7 0.55 0
0.75 0.55 0
0.8 0.55 0
0.85 0.55 0
0.9 0.55 0
0.95 0.55 0
1 0.55 0
0 0.6 0
0.05 0.6 0
0.1 0.6 0
0.15 0.6 0
0.2 0.6 0
0.25 0.6 0
0.3 0.6 0
0.35 0.6 0
0.4 0.6 0
0.45 0.6 0
0.5 0.6 0
0.55 0.6 0
0.6 0.6 0
0.65 0.6 0
0.7 0.6 0
0.75 0.6 0
0.8 0.6 0
0.85 0.6 0
0.9 0.6 0
0.95 0.6 0
1 0.6 0
0 0.65 0
0.05 0.65 0
0.1 0.65 0
0.15 0.65 0
0.2 0.65 0
0.25 0.65 0
0.3 0.65 0
0.35 0.65 0
0.4 0.65 0
0.45 0.65 0
0.5 0.65 0
0.55 0.65 0
0.6 0.65 0
0.65 0.65 0
0.7 0.65 0
0.75 0.65 0
0.8 0.65 0
0.85 0.65 0
0.9 0.65 0
0.95 0.65 0
1 0.65 0
0 0.7 0
0.05 0.7 0
0.1 0.7 0
0.15 0.7 0
0.2 0.7 0
0.25 0.7 0
0.3 0.7 0
0.35 0.7 0
0.4 0.7 0
0.45 0.7 0
0.5 0.7 0
0.55 0.7 0
0.6 0.7 0
0.65 0.7 0
0.7 0.7 0
0.75 0.7 0
0.8 0.7 0
0.85 0.7 0
0.9 0.7 0
0.95 0.7 0
1 0.7 0
0 0.75 0
0.05 0.75 0
0.1 0.75 0
0.15 0.75 0
0.2 0.75 0
0.25 0.75 0
0.3 0.75 0
0.35 0.75 0
0.4 0.75 0
0.45 0.75 0
0.5 0.75 0
0.55 0.75 0
0.6 0.75 0
0.65 0.75 0
0.7 0.75 0
0.75 0.75 0
0.8 0.75 0
0.85 0.75 0
0.9 0.75 0
0.95 0.75 0
1 0.75 0
0 0.8 0
0.05 0.8 0
0.1 0.8 0
0.15 0.8 0
0.2 0.8 0
0.25 0.8 0
0.3 0.8 0
0.35 0.8 0
0.4 0.8 0
0.45 0.8 0
0.5 0.8 0
0.55 0.8 0
0.6 0.8 0
0.65 0.8 0
0.7 0.8 0
0.75 0.8 0
0.8 0.8 0
0.85 0.8 0
0.9 0.8 0
0.95 0.8 0
1 0.8 0
0 0.85 0
0.05 0.85 0
0.1 0.85 0
0.15 0.85 0
0.2 0.85 0
0.25 0.85 0
0.3 0.85 0
0.35 0.85 0
0.4 0.85 0
0.45 0.85 0
0.5 0.85 0
0.55 0.85 0
0.6 0.85 0
0.65 0.85 0
0.7 0.85 0
0.75 0.85 0
0.8 0.85 0
0.85 0.85 0
0.9 0.85 0
0.95 0.85 0
1 0.85 0
0 0.9 0
0.05 0.9 0
0.1 0.9 0
0.15 0.9 0
0.2 0.9 0
0.25 0.9 0
0.3 0.9 0
0.35 0.9 0
0.4 0.9 0
0.45 0.9 0
0.5 0.9 0
0.55 0.9 0
0.6 0.9 0
0.65 0.9 0
0.7 0.9 0
0.75 0.9 0
0.8 0.9 0
0.85 0.9 0
0.9 0.9 0
0.95 0.9 0
1 0.9 0
0 0.95 0
0.05 0.95 0
0.1 0.95 0
0.15 0.95 0
0.2 0.95 0
0.25 0.95 0
0.3 0.95 0
0.35 0.95 0
0.4 0.95 0
0.45 0.95 0
0.5 0.95 0
0.55 0.95 0
0.6 0.95 0
0.65 0.95 0
0.7 0.95 0
0.75 0.95 0
0.8 0.95 0
0.85 0.95 0
0.9 0.95 0
0.95 0.95 0
1 0.95 0
0 1 0
0.05 1 0
0.1 1 0
0.15 1 0
0.2 1 0
0.25 1 0
0.3 1 0
0.35 1 0
0.4 1 0
0.45 1 0
0.5 1 0
0.55 1 0
0.6 1 0
0.65 1 0
0.7 1 0
0.75 1 0
0.8 1 0
0.85 1 0
0.9 1 0
0.95 1 0
1 1 0
CELLS 800 3200
3 0 1 22
3 0 22 21
3 1 2 23
3 1 23 22
3 2 3 24
3 2 24 23
3 3 4 25
3 3 25 24
3 4 5 26
3 4 26 25
3 5 6 27
3 5 27 26
3 6 7 28
3 6 28 27
3 7 8 29
3 7 29 28
3 8 9 30
3 8 30 29
3 9 10 31
3 9 31 30
3 10 11 32
3 10 32 31
3 11 12 33
3 11 33 32
3 12 13 34
3 12 34 33
3 13 14 35
3 13 35 34
3 14 15 36
3 14 36 35
3 15 16 37
3 15 37 36
3 16 17 38
3 16 38 37
3 17 18 39
3 17 39 38
3 18 19 40
3 18 40 39
3 19 20 41
3 19 41 40
3 21 22 43
3 21 43 42
3 22 23 44
3 22 44 43
3 23 24 45
3 23 45 44
3 24 25 46
3 24 46 45
3 25 26 47
3 25 47 46
3 26 27 48
3 26 48 47
3 27 28 49
3 27 49 48
3 28 29 50
3 28 50 49
3 29 30 51
3 29 51 50
3 30 31 52
3 30 52 51
3 31 32 53
3 31 53 52
3 32 33 54
3 32 54 53
3 33 34 55
3 33 55 54
3 34 35 56
3 34 56 55
3 35 36 57
3 35 57 56
3 36 37 58
3 36 58 57
3 37 38 59
3 37 59 58
3 38 39 60
3 38 60 59
3 39 40 61
3 39 61 60
3 40 41 62
3 40 62 61
3 42 43 64
3 42 64 63
3 43 44 65
3 43 65 64
3 44 45 66
3 44 66 65
3 45 46 67
3 45 67 66
3 46 47 68
3 46 68 67
3 47 48 69
3 47 69 68
3 48 49 70
3 48 70 69
3 49 50 71
3 49 71 70
3 50 51 72
3 50 72 71
3 51 52 73
3 51 73 72
3 52 53 74
3 52 74 73
3 53 54 75
3 53 75 74
3 54 55 76
3 54 76 75
3 55 56 77
3 55 77 76
3 56 57 78
3 56 78 77
3 57 58 79
3 57 79 78
3 58 59 80
3 58 80 79
3 59 60 81
3 59 81 80
3 60 61 82
3 60 82 81
3 61 62 83
3 61 83 82
3 63 64 85
3 63 85 84
3 64 65 86
3 64 86 85
3 65 66 87
3 65 87 86
3 66 67 88
3 66 88 87
3 67 68 89
3 67 89 88
3 68 69 90
3 68 90 89
3 69 70 91
3 69 91 90
3 70 71 92
3 70 92 91
3 71 72 93
3 71 93 92
3 72 73 94
3 72 94 93
3 73 74 95
3 73 95 94
3 74 75 96
3 74 96 95
3 75 76 97
3 75 97 96
3 76 77 98
3 76 98 97
3 77 78 99
3 77 99 98
3 78 79 100
3 78 100 99
3 79 80 101
3 79 101 100
3 80 81 102
3 80 102 101
3 81 82 103
3 81 103 102
3 82 83 104
3 82 104 103
3 84 85 106
3 84 106 105
3 85 86 107
3 85 107 106
3 86 87 108
3 86 108 107
3 87 88 109
3 87 109 108
3 88 89 110
3 88 110 109
3 89 90 111
3 89 111 110
3 90 91 112
3 90 112 111
3 91 92 113
3 91 113 112
3 92 93 114
3 92 114 113
3 93 94 115
3 93 115 114
3 94 95 116
3 94 116 115
3 95 96 117
3 95 117 116
3 96 97 118
3 96 118 117
3 97 98 119
3 97 119 118
3 98 99 120
3 98 120 119
3 99 100 121
3 99 121 120
3 100 101 122
3 100 122 121
3 101 102 123
3 101 123 122
3 102 103 124
3 102 124 123
3 103 104 125
3 103 125 124
3 105 106 127
3 105 127 126
3 106 107 128
3 106 128 127
3 107 108 129
3 107 129 128
3 108 109 130
3 108 130 129
3 109 110 131
3 109 131 130
3 110 111 132
3 110 132 131
3 111 112 133
3 111 133 132
3 112 113 134
3 112 134 133
3 113 114 135
3 113 135 134
3 114 115 136
3 114 136 135
3 115 116 137
3 115 137 136
3 116 117 138
3 116 138 137
3 117 118 139
3 117 139 138
3 118 119 140
3 118 140 139
3 119 120 141
3 119 141 140
3 120 121 142
3 120 142 141
3 121 122 143
3 121 143 142
3 122 123 144
3 122 144 143
3 123 124 145
3 123 145 144
3 124 125 146
3 124 146 145
3 126 127 148
3 126 148 147
3 127 128 149
3 127 149 148
3 128 129 150
3 128 150 149
3 129 130 151
3 129 151 150
3 130 131 152
3 130 152 151
3 131 132 153
3 131 153 152
3 132 133 154
3 132 154 153
3 133 134 155
3 133 155 154
3 134 135 156
3 134 156 155
3 135 136 157
3 135 157 156
3 136 137 158
3 136 158 157
3 137 138 159
3 137 159 158
3 138 139 160
3 138 160 159
3 139 140 161
3 139 161 160
3 140 141 162
3 140 162 161
3 141 142 163
3 141 163 162
3 142 143 164
3 142 164 163
3 143 144 165
3 143 165 164
3 144 145 166
3 144 166 165
3 145 146 167
3 145 167 166
3 147 148 169
3 147 169 168
3 148 149 170
3 148 170 169
3 149 150 171
3 149 171 170
3 150 151 172
3 150 172 171
3 151 152 173
3 151 173 172
3 152 153 174
3 152 174 173
3 153 154 175
3 153 175 174
3 154 155 176
3 154 176 175
3 155 156 177
3 155 177 176
3 156 157 178
3 156 178 177
3 157 158 179
3 157 179 178
3 158 159 180
3 158 180 179
3 159 160 181
3 159 181 180
3 160 161 182
3 160 182 181
3 161 162 183
3 161 183 182
3 162 163 184
3 162 184 183
3 163 164 185
3 163 185 184
3 164 165 186
3 164 186 185
3 165 166 187
3 165 187 186
3 166 167 188
3 166 188 187
3 168 169 190
3 168 190 189
3 169 170 191
3 169 191 190
3 170 171 192
3 170 192 191
3 171 172 193
3 171 193 192
3 172 173 194
3 172 194 193
3 173 174 195
3 173 195 194
3 174 175 196
3 174 196 195
3 175 176 197
3 175 197 196
3 176 177 198
3 176 198 197
3 177 178 199
3 177 199 198
3 178 179 200
3 178 200 199
3 179 180 201
3 179 201 200
3 180 181 202
3 180 202 201
3 181 182 203
3 181 203 202
3 182 183 204
3 182 204 203
3 183 184 205
3 183 205 204
3 184 185 206
3 184 206 205
3 185 186 207
3 185 207 206
3 186 187 208
3 186 208 207
3 187 188 209
3 187 209 208
3 189 190 211
3 189 211 210
3 190 191 212
3 190 212 211
3 191 192 213
3 191 213 212
3 192 193 214
3 192 214 213
3 193 194 215
3 193 215 214
3 194 195 216
3 194 216 215
3 195 196 217
3 195 217 216
3 196 197 218
3 196 218 217
3 197 198 219
3 197 219 218
3 198 199 220
3 198 220 219
3 199 200 221
3 199 221 220
3 200 201 222
3 200 222 221
3 201 202 223
3 201 223 222
3 202 203 224
3 202 224 223
3 203 204 225
3 203 225 224
3 204 205 226
3 204 226 225
3 205 206 227
3 205 227 226
3 206 207 228
3 206 228 227
3 207 208 229
3 207 229 228
3 208 209 230
3 208 230 229
3 210 211 232
3 210 232 231
3 211 212 233
3 211 233 232
3 212 213 234
3 212 234 233
3 213 214 235
3 213 235 234
3 214 215 236
3 214 236 235
3 215 216 237
3 215 237 236
3 216 217 238
3 216 238 237
3 217 218 239
3 217 239 238
3 218 219 240
3 218 240 239
3 219 220 241
3 219 241 240
3 220 221 242
3 220 242 241
3 221 222 243
3 221 243 242
3 222 223 244
3 222 244 243
3 223 224 245
3 223 245 244
3 224 225 246
3 224 246 245
3 225 226 247
3 225 247 246
3 226 227 248
3 226 248 247
3 227 228 249
3 227 249 248
3 228 229 250
3 228 250 249
3 229 230 251
3 229 251 250
3 231 232 253
3 231 253 252
3 232 233 254
3 232 254 253
3 233 234 255
3 233 255 254
3 234 235 256
3 234 256 255
3 235 236 257
3 235 257 256
3 236 237 258
3 236 258 257
3 237 238 259
3 237 259 258
3 238 239 260
3 238 260 259
3 239 240 261
3 239 261 260
3 240 241 262
3 240 262 261
3 241 242 263
3 241 263 262
3 242 243 264
3 242 264 263
3 243 244 265
3 243 265 264
3 244 245 266
3 244 266 265
3 245 246 267
3 245 267 266
3 246 247 268
3 246 268 267
3 247 248 269
3 247 269 268
3 248 249 270
3 248 270 269
3 249 250 271
3 249 271 270
3 250 251 272
3 250 272 271
3 252 253 274
3 252 274 273
3 253 254 275
3 253 275 274
3 254 255 276
3 254 276 275
3 255 256 277
3 255 277 276
3 256 257 278
3 256 278 277
3 257 258 279
3 257 279 278
3 258 259 280
3 258 280 279
3 259 260 281
3 259 281 280
3 260 261 282
3 260 282 281
3 261 262 283
3 261 283 282
3 262 263 284
3 262 284 283
3 263 264 285
3 263 285 284
3 264 265 286
3 264 286 285
3 265 266 287
3 265 287 286
3 266 267 288
3 266 288 287
3 267 268 289
3 267 289 288
3 268 269 290
3 268 290 289
3 269 270 291
3 269 291 290
3 270 271 292
3 270 292 291
3 271 272 293
3 271 293 292
3 273 274 295
3 273 295 294
3 274 275 296
3 274 296 295
3 275 276 297
3 275 297 296
3 276 277 298
3 276 298 297
3 277 278 299
3 277 299 298
3 278 279 300
3 278 300 299
3 279 280 301
3 279 301 300
3 280 281 302
3 280 302 301
3 281 282 303
3 281 303 302
3 282 283 304
3 282 304 303
3 283 284 305
3 283 305 304
3 284 285 306
3 284 306 305
3 285 286 307
3 285 307 306
3 286 287 308
3 286 308 307
3 287 288 309
3 287 309 308
3 288 289 310
3 288 310 309
3 289 290 311
3 289 311 310
3 290 291 312
3 290 312 311
3 291 292 313
3 291 313 312
3 292 293 314
3 292 314 313
3 294 295 316
3 294 316 315
3 295 296 317
3 295 317 316
3 296 297 318
3 296 318 317
3 297 298 319
3 297 319 318
3 298 299 320
3 298 320 319
3 299 300 321
3 299 321 320
3 300 301 322
3 300 322 321
3 301 302 323
3 301 323 322
3 302 303 324
3 302 324 323
3 303 304 325
3 303 325 324
3 304 305 326
3 304 326 325
3 305 306 327
3 305 327 326
3 306 307 328
3 306 328 327
3 307 308 329
3 307 329 328
3 308 309 330
3 308 330 329
3 309 310 331
3 309 331 330
3 310 311 332
3 310 332 331
3 311 312 333
3 311 333 332
3 312 313 334
3 312 334 333
3 313 314 335
3 313 335 334
3 315 316 337
3 315 337 336
3 316 317 338
3 316 338 337
3 317 318 339
3 317 339 338
3 318 319 340
3 318 340 339
3 319 320 341
3 319 341 340
3 320 321 342
3 320 342 341
3 321 322 343
3 321 343 342
3 322 323 344
3 322 344 343
3 323 324 345
3 323 345 344
3 324 325 346
3 324 346 345
3 325 326 347
3 325 347 346
3 326 327 348
3 326 348 347
3 327 328 349
3 327 349 348
3 328 329 350
3 328 350 349
3 329 330 351
3 329 351 350
3 330 331 352
3 330 352 351
3 331 332 353
3 331 353 352
3 332 333 354
3 332 354 353
3 333 334 355
3 333 355 354
3 334 335 356
3 334 356 355
3 336 337 358
3 336 358 357
3 337 338 359
3 337 359 358
3 338 339 360
3 338 360 359
3 339 340 361
3 339 361 360
3 340 341 362
3 340 362 361
3 341 342 363
3 341 363 362
3 342 343 364
3 342 364 363
3 343 344 365
3 343 365 364
3 344 345 366
3 344 366 365
3 345 346 367
3 345 367 366
3 346 347 368
3 346 368 367
3 347 348 369
3 347 369 368
3 348 349 370
3 348 370 369
3 349 350 371
3 349 371 370
3 350 351 372
3 350 372 371
3 351 352 373
3 351 373 372
3 352 353 374
3 352 374 373
3 353 354 375
3 353 375 374
3 354 355 376
3 354 376 375
3 355 356 377
3 355 377 376
3 357 358 379
3 357 379 378
3 358 359 380
3 358 380 379
3 359 360 381
3 359 381 380
3 360 361 382
3 360 382 381
3 361 362 383
3 361 383 382
3 362 363 384
3 362 384 383
3 363 364 385
3 363 385 384
3 364 365 386
3 364 386 385
3 365 366 387
3 365 387 386
3 366 367 388
3 366 388 387
3 367 368 389
3 367 389 388
3 368 369 390
3 368 390 389
3 369 370 391
3 369 391 390
3 370 371 392
3 370 392 391
3 371 372 393
3 371 393 392
3 372 373 394
3 372 394 393
3 373 374 395
3 373 395 394
3 374 375 396
3 374 396 395
3 375 376 397
3 375 397 396
3 376 377 398
3 376 398 397
3 378 379 400
3 378 400 399
3 379 380 401
3 379 401 400
3 380 381 402
3 380 402 401
3 381 382 403
3 381 403 402
3 382 383 404
3 382 404 403
3 383 384 405
3 383 405 404
3 384 385 406
3 384 406 405
3 385 386 407
3 385 407 406
3 386 387 408
3 386 408 407
3 387 388 409
3 387 409 408
3 388 389 410
3 388 410 409
3 389 390 411
3 389 411 410
3 390 391 412
3 390 412 411
3 391 392 413
3 391 413 412
3 392 393 414
3 392 414 413
3 393 394 415
3 393 415 414
3 394 395 416
3 394 416 415
3 395 396 417
3 395 417 416
3 396 397 418
3 396 418 417
3 397 398 419
3 397 419 418
3 399 400 421
3 399 421 420
3 400 401 422
3 400 422 421
3 401 402 423
3 401 423 422
3 402 403 424
3 402 424 423
3 403 404 425
3 403 425 424
3 404 405 426
3 404 426 425
3 405 406 427
3 405 427 426
3 406 407 428
3 406 428 427
3 407 408 429
3 407 429 428
3 408 409 430
3 408 430 429
3 409 410 431
3 409 431 430
3 410 411 432
3 410 432 431
3 411 412 433
3 411 433 432
3 412 413 434
3 412 434 433
3 413 414 435
3 413 435 434
3 414 415 436
3 414 436 435
3 415 416 437
3 415 437 436
3 416 417 438
3 416 438 437
3 417 418 439
3 417 439 438
3 418 419 440
3 418 440 439
CELL_TYPES 800
5
5
5
5
5
5
5
5
5
5
5
5
5
5
5
5
5
5
5
5
5
5
5
5
5
5
5
5
5
5
5
5
5
5
5
5
5
5
5
5
5
5
5
5
5
5
5
5
5
5
5
5
5
5
5
5
5
5
5
5
5
5
5
5
5
5
5
5
5
5
5
5
5
5
5
5
5
5
5
5
5
5
5
5
5
5
5
5
5
5
5
5
5
5
5
5
5
5
5
5
5
5
5
5
5
5
5
5
5
5
5
5
5
5
5
5
5
5
5
5
5
5
5
5
5
5
5
5
5
5
5
5
5
5
5
5
5
5
5
5
5
5
5
5
5
5
5
5
5
5
5
5
5
5
5
5
5
5
5
5
5
5
5
5
5
5
5
5
5
5
5
5
5
5
5
5
5
5
5
5
5
5
5
5
5
5
5
5
5
5
5
5
5
5
5
5
5
5
5
5
5
5
5
5
5
5
5
5
5
5
5
5
5
5
5
5
5
5
5
5
5
5
5
5
5
5
5
5
5
5
5
5
5
5
5
5
5
5
5
5
5
5
5
5
5
5
5
5
5
5
5
5
5
5
5
5
5
5
5
5
5
5
5
5
5
5
5
5
5
5
5
5
5
5
5
5
5
5
5
5
5
5
5
5
5
5
5
5
5
5
5
5
5
5
5
5
5
5
5
5
5
5
5
5
5
5
5
5
5
5
5
5
5
5
5
5
5
5
5
5
5
5
5
5
5
5
5
5
5
5
5
5
5
5
5
5
5
5
5
5
5
5
5
5
5
5
5
5
5
5
5
5
5
5
5
5
5
5
5
5
5
5
5
5
5
5
5
5
5
5
5
5
5
5
5
5
5
5
5
5
5
5
5
5
5
5
5
5
5
5
5
5
5
5
5
5
5
5
5
5
5
5
5
5
5
5
5
5
5
5
5
5
5
5
5
5
5
5
5
5
5
5
5
5
5
5
5
5
5
5
5
5
5
5
5
5
5
5
5
5
5
5
5
5
5
5
5
5
5
5
5
5
5
5
5
5
5
5
5
5
5
5
5
5
5
5
5
5
5
5
5
5
5
5
5
5
5
5
5
5
5
5
5
5
5
5
5
5
5
5
5
5
5
5
5
5
5
5
5
5
5
5
5
5
5
5
5
5
5
5
5
5
5
5
5
5
5
5
5
5
5
5
5
5
5
5
5
5
5
5
5
5
5
5
5
5
5
5
5
5
5
5
5
5
5
5
5
5
5
5
5
5
5
5
5
5
5
5
5
5
5
5
5
5
5
5
5
5
5
5
5
5
5
5
5
5
5
5
5
5
5
5
5
5
5
5
5
5
5
5
5
5
5
5
5
5
5
5
5
5
5
5
5
5
5
5
5
5
5
5
5
5
5
5
5
5
5
5
5
5
5
5
5
5
5
5
5
5
5
5
5
5
5
5
5
5
5
5
5
5
5
5
5
5
5
5
5
5
5
5
5
5
5
5
5
5
5
5
5
5
5
5
5
5
5
5
5
5
5
5
5
5
5
5
5
5
5
5
5
5
5
5
5
5
5
5
5
5
5
5
5
5
5
5
5
5
5
5
5
5
5
5
5
5
5
5
5
5
5
5
5
5
5
5
5
5
5
5
5
5
5
5
5
5
5
5
5
5
5
5
5
5
5
5
5
5
5
5
5
5
5
5
5
5
5
5
5
5
5
5
5
5
5
5
5
5
5
5
5
5
5
5
5
5
5
5
5
5
5
5
5
5
5
5
5
5
5
5
5
5
5
5
5
5
5
5
5
5
5
5
5
5
5
5
5
5
5
5
5
5
CELL_DATA 800
VECTORS Et double
-0.0269689 0.0722105 0
-0.0325979 0.0254354 0
-0.0263333 0.170152 0
-0.0318812 0.124273 0
-0.0250437 0.265438 0
-0.0293916 0.220614 0
-0.0230552 0.354979 0
-0.0266123 0.312981 0
-0.0203725 0.43589 0
-0.0233004 0.39824 0
-0.0170671 0.505494 0
-0.0194778 0.47355 0
-0.0132642 0.561522 0
-0.0152649 0.53641 0
-0.00913052 0.602355 0
-0.0107671 0.584824 0
-0.00484842 0.627145 0
-0.00609196 0.617513 0
-0.000587455 0.635799 0
-0.00134687 0.633982 0
0.00351977 0.628832 0
0.0033592 0.63445 0
0.00738976 0.607135 0
0.00791495 0.619656 0
0.0109854 0.571737 0
0.012209 0.590622 0
0.0142999 0.523633 0
0.0161355 0.548425 0
0.0173325 0.463722 0
0.0195999 0.49406 0
0.0200654 0.392873 0
0.0225217 0.428436 0
0.0224482 0.312088 0
0.0248446 0.352473 0
0.0243999 0.22274 0
0.026584 0.267297 0
0.0257812 0.127546 0
0.0284746 0.174487 0
0.0264121 0.0264121 0
0.026984 0.0770087 0
-0.0774805 0.0459545 0
-0.0815498 0.0152883 0
-0.0760356 0.110442 0
-0.0804196 0.0805834 0
-0.071706 0.17342 0
-0.0753155 0.144174 0
-0.0658774 0.232819 0
-0.0688951 0.205339 0
-0.0583188 0.286612 0
-0.0607942 0.26193 0
-0.0491418 0.332839 0
-0.051166 0.311956 0
-0.0386693 0.369847 0
-0.0403171 0.353577 0
-0.027294 0.396489 0
-0.0285978 0.385353 0
-0.0154495 0.412242 0
-0.016375 0.406408 0
-0.00355259 0.417188 0
-0.00400718 0.416499 0
0.00804319 0.411881 0
0.0081753 0.41595 0
0.019075 0.397124 0
0.0198833 0.405477 0
0.0293721 0.373744 0
0.0308751 0.38595 0
0.0388331 0.342433 0
0.0409549 0.358193 0
0.0473868 0.303703 0
0.0499643 0.322851 0
0.0549467 0.257957 0
0.0577682 0.280398 0
0.0613876 0.205666 0
0.0642509 0.231249 0
0.066585 0.147595 0
0.0693858 0.175955 0
0.0710247 0.0848438 0
0.0736059 0.115448 0
0.0709688 0.0192285 0
0.0735379 0.0510172 0
-0.102294 0.0077579 0
-0.100041 2.44278e-05 0
-0.101121 0.0210652 0
-0.0992745 0.0134562 0
-0.0953926 0.0349066 0
-0.0933514 0.0270221 0
-0.0877049 0.0484834 0
-0.0857314 0.0408729 0
-0.0776495 0.0610572 0
-0.0758003 0.0541291 0
-0.0654164 0.0717654 0
-0.0638393 0.0660182 0
-0.051436 0.0798676 0
-0.0502677 0.0757136 0
-0.0362539 0.0849272 0
-0.035571 0.0825814 0
-0.0204643 0.086911 0
-0.0202574 0.0863384 0
-0.0046361 0.0861707 0
-0.00481641 0.0871103 0
0.0107501 0.0833131 0
0.0103163 0.0853699 0
0.0253398 0.0790005 0
0.0247816 0.0817752 0
0.0389091 0.073748 0
0.0383042 0.0769593 0
0.0513352 0.0677837 0
0.0506853 0.0713435 0
0.0625454 0.0610175 0
0.0617813 0.0650326 0
0.0724564 0.0531283 0
0.071475 0.0578274 0
0.0809386 0.0437297 0
0.0796475 0.0493513 0
0.0878778 0.0325297 0
0.0862081 0.0392345 0
0.093538 0.0197819 0
0.0917525 0.0272756 0
0.0944375 0.00577033 0
0.0926504 0.0138328 0
-0.0897199 -0.0343286 0
-0.0832054 -0.0152487 0
-0.0896896 -0.0776193 0
-0.0833048 -0.0594256 0
-0.0846932 -0.118379 0
-0.0787641 -0.10133 0
-0.0780929 -0.155584 0
-0.0725832 -0.140185 0
-0.069175 -0.18865 0
-0.064246 -0.175084 0
-0.0581775 -0.217231 0
-0.0540349 -0.205553 0
-0.045538 -0.241051 0
-0.0423629 -0.231306 0
-0.0318137 -0.259761 0
-0.0297124 -0.252079 0
-0.0176081 -0.272865 0
-0.0165857 -0.267504 0
-0.00348941 -0.279734 0
-0.00345627 -0.27706 0
0.0100806 -0.279729 0
0.00927467 -0.28013 0
0.0227891 -0.272368 0
0.0213051 -0.276142 0
0.0344763 -0.257503 0
0.0324391 -0.264747 0
0.0451016 -0.235432 0
0.0425723 -0.24598 0
0.0546827 -0.206909 0
0.0516612 -0.220338 0
0.0632253 -0.173054 0
0.0596827 -0.188755 0
0.0706656 -0.135172 0
0.0665953 -0.152473 0
0.076895 -0.0945844 0
0.0723445 -0.112851 0
0.0824289 -0.0526455 0
0.077356 -0.0711933 0
0.0835841 -0.00957132 0
0.079005 -0.0288106 0
-0.0452373 -0.0659683 0
-0.0375368 -0.0254748 0
-0.0466672 -0.152171 0
-0.0385806 -0.113529 0
-0.0443701 -0.234323 0
-0.037025 -0.197607 0
-0.0412155 -0.310051 0
-0.0344114 -0.276516 0
-0.036535 -0.377707 0
-0.0304762 -0.348032 0
-0.0304881 -0.436001 0
-0.0254173 -0.410675 0
-0.0234039 -0.483874 0
-0.019524 -0.463298 0
-0.0157168 -0.520383 0
-0.0131444 -0.50495 0
-0.00789783 -0.544651 0
-0.00663998 -0.534779 0
-0.000374565 -0.555883 0
-0.000335987 -0.551996 0
0.00653976 -0.553461 0
0.00552203 -0.555916 0
0.0126882 -0.537088 0
0.0107953 -0.54608 0
0.0180725 -0.506928 0
0.0154557 -0.522394 0
0.0228147 -0.463691 0
0.019566 -0.485259 0
0.0270917 -0.408628 0
0.0232418 -0.435632 0
0.0310583 -0.343437 0
0.0266046 -0.374981 0
0.0347848 -0.270094 0
0.0297374 -0.305167 0
0.0382585 -0.190689 0
0.0326708 -0.228261 0
0.0418909 -0.107676 0
0.0354993 -0.146389 0
0.0430456 -0.0217123 0
0.0373746 -0.0619987 0
0.0155171 -0.0770649 0
0.0206077 -0.0272882 0
0.0129421 -0.178766 0
0.0189203 -0.131354 0
0.0116065 -0.275954 0
0.0169573 -0.230835 0
0.0101249 -0.365683 0
0.0151487 -0.324444 0
0.00894402 -0.445864 0
0.0134364 -0.409399 0
0.00804094 -0.514812 0
0.0117709 -0.483801 0
0.00728025 -0.571144 0
0.010065 -0.546147 0
0.00644346 -0.613706 0
0.00818789 -0.595216 0
0.00528661 -0.641522 0
0.00600096 -0.629997 0
0.00361111 -0.65381 0
0.00340162 -0.649658 0
0.00132793 -0.650054 0
0.000362694 -0.653574 0
-0.00150474 -0.630112 0
-0.0030444 -0.641412 0
-0.00468227 -0.594323 0
-0.00664927 -0.613247 0
-0.00789309 -0.54357 0
-0.0102058 -0.569657 0
-0.0107858 -0.479265 0
-0.0134333 -0.511757 0
-0.0130452 -0.403262 0
-0.0160643 -0.441169 0
-0.0144555 -0.317701 0
-0.0178892 -0.3599 0
-0.0149161 -0.224878 0
-0.0187907 -0.270193 0
-0.0143102 -0.127571 0
-0.0190566 -0.174392 0
-0.0134735 -0.026603 0
-0.0175445 -0.0752848 0
0.0712452 -0.0640166 0
0.0708283 -0.0201252 0
0.0682878 -0.148784 0
0.069074 -0.107139 0
0.0636728 -0.229832 0
0.0642593 -0.190266 0
0.0579878 -0.304573 0
0.0587096 -0.268512 0
0.0513529 -0.37122 0
0.0520542 -0.339435 0
0.0439025 -0.428342 0
0.0444154 -0.40142 0
0.0357208 -0.474788 0
0.0359265 -0.453203 0
0.0268303 -0.509628 0
0.0266855 -0.493787 0
0.017233 -0.532115 0
0.0167807 -0.522379 0
0.00696889 -0.541678 0
0.0063283 -0.538357 0
-0.00383028 -0.537977 0
-0.00449634 -0.541285 0
-0.0149095 -0.520972 0
-0.0154399 -0.530967 0
-0.0258936 -0.491006 0
-0.0261738 -0.507526 0
-0.0363252 -0.448843 0
-0.0363184 -0.471478 0
-0.0457279 -0.395659 0
-0.0454828 -0.423755 0
-0.0536752 -0.332964 0
-0.0533074 -0.365675 0
-0.0598483 -0.262481 0
-0.0595013 -0.298852 0
-0.0640712 -0.186049 0
-0.0639022 -0.225072 0
-0.0666046 -0.105872 0
-0.067092 -0.146202 0
-0.0662945 -0.0226003 0
-0.0663593 -0.0644452 0
0.102421 -0.0315529 0
0.0951218 -0.00639271 0
0.100034 -0.0729185 0
0.0940539 -0.0493858 0
0.0936146 -0.112353 0
0.0880409 -0.0901773 0
0.0856171 -0.148485 0
0.0806852 -0.128441 0
0.0758075 -0.1804 0
0.0715018 -0.162907 0
0.0644537 -0.207449 0
0.0607226 -0.192773 0
0.0518238 -0.229157 0
0.0486493 -0.217499 0
0.038132 -0.245174 0
0.0355438 -0.236701 0
0.0235665 -0.255229 0
0.0216497 -0.250101 0
0.00833642 -0.259115 0
0.00722094 -0.257483 0
-0.00728552 -0.256707 0
-0.00745287 -0.258689 0
-0.0229376 -0.24801 0
-0.0220326 -0.253647 0
-0.0381727 -0.233213 0
-0.0361327 -0.242421 0
-0.0524909 -0.212719 0
-0.0493433 -0.225263 0
-0.0653941 -0.187139 0
-0.0612649 -0.202633 0
-0.0764421 -0.157245 0
-0.0715449 -0.175185 0
-0.085297 -0.1239 0
-0.079912 -0.143711 0
-0.0917828 -0.0879517 0
-0.0861976 -0.109069 0
-0.0964801 -0.0502743 0
-0.0910492 -0.0720862 0
-0.0966852 -0.0110165 0
-0.091092 -0.0336066 0
0.0974046 0.00899303 0
0.0836273 0.0093302 0
0.0964993 0.0231134 0
0.0844845 0.0221557 0
0.0903835 0.0370415 0
0.0793983 0.0356653 0
0.0827369 0.0503368 0
0.0726728 0.048833 0
0.0731402 0.0627995 0
0.0641968 0.0611785 0
0.0618997 0.0740883 0
0.0542004 0.0724706 0
0.0493749 0.0838033 0
0.0430211 0.0823443 0
0.0358633 0.0915587 0
0.0309594 0.0903993 0
0.0216227 0.0970468 0
0.0182911 0.0962741 0
0.00690638 0.10007 0
0.00528151 0.099706 0
-0.00800168 0.100539 0
-0.00779567 0.100555 0
-0.0227665 0.098452 0
-0.0206466 0.0987976 0
-0.0370031 0.0938603 0
-0.0329583 0.0944933 0
-0.0503014 0.0868439 0
-0.0444137 0.0877549 0
-0.0622682 0.0775071 0
-0.0547214 0.0787242 0
-0.0725696 0.0659843 0
-0.0636524 0.0675707 0
-0.0809681 0.0524405 0
-0.0710842 0.0544998 0
-0.0873446 0.037168 0
-0.0769286 0.0397532 0
-0.0923908 0.0208864 0
-0.0816082 0.0237056 0
-0.0927794 0.00429305 0
-0.0819414 0.00714123 0
0.0561443 0.049851 0
0.0443135 0.0217644 0
0.0578654 0.118169 0
0.0478062 0.0893331 0
0.0541685 0.184062 0
0.0451443 0.156112 0
0.0493518 0.245363 0
0.0408983 0.219608 0
0.0432882 0.300882 0
0.0358048 0.277707 0
0.0361984 0.349279 0
0.0298368 0.329268 0
0.0283872 0.389286 0
0.0232343 0.373013 0
0.020096 0.419804 0
0.01622 0.40776 0
0.0115168 0.439987 0
0.00899349 0.432527 0
0.00281222 0.449275 0
0.00172227 0.446606 0
-0.00585742 0.447412 0
-0.00544311 0.449589 0
-0.0143153 0.434438 0
-0.0123557 0.441383 0
-0.0223638 0.410667 0
-0.0188683 0.422189 0
-0.0297993 0.376669 0
-0.0248401 0.392485 0
-0.0364407 0.333261 0
-0.0301553 0.352995 0
-0.0421674 0.281475 0
-0.0347642 0.304682 0
-0.0469612 0.222523 0
-0.038742 0.248718 0
-0.0508346 0.157623 0
-0.0423319 0.186435 0
-0.0543201 0.0889028 0
-0.0454006 0.11917 0
-0.0543255 0.0182229 0
-0.0453732 0.049179 0
-0.00329658 0.130343 0
0.0467607 0.0272198 0
0.00137505 0.281692 0
0.0483715 0.182891 0
0.00104546 0.426273 0
0.0458157 0.332287 0
0.000174359 0.560377 0
0.0414902 0.473641 0
-0.000587338 0.680802 0
0.0363059 0.603377 0
-0.00134384 0.784699 0
0.0303055 0.718396 0
-0.00195994 0.869437 0
0.0235995 0.815962 0
-0.00234473 0.932823 0
0.0164161 0.893588 0
-0.00245495 0.9732 0
0.00899304 0.949247 0
-0.00229831 0.989516 0
0.0015382 0.981472 0
-0.0019113 0.981345 0
-0.0057678 0.989412 0
-0.00133885 0.948888 0
-0.0127653 0.972853 0
-0.000624378 0.892955 0
-0.0193134 0.932207 0
0.000187993 0.814927 0
-0.0252931 0.868492 0
0.00103867 0.716721 0
-0.0306183 0.783285 0
0.00181502 0.600741 0
-0.0352725 0.678688 0
0.00229755 0.469874 0
-0.039311 0.557269 0
0.00212327 0.327478 0
-0.0428955 0.422056 0
0.0013013 0.178353 0
-0.0447995 0.27652 0
0.00229621 0.025984 0
-0.0440704 0.125567 0
-0.00903283 0.125577 0
0.0305036 0.0287333 0
-0.00609741 0.275086 0
0.0307291 0.182322 0
-0.0059473 0.418383 0
0.0295183 0.32975 0
-0.00627488 0.551677 0
0.0267224 0.469607 0
-0.00629397 0.6715 0
0.0232525 0.598188 0
-0.0060832 0.774843 0
0.0192354 0.712148 0
-0.0056754 0.859126 0
0.0147692 0.808623 0
-0.0050107 0.922223 0
0.010026 0.885197 0
-0.00404215 0.962535 0
0.00519307 0.939932 0
-0.0027699 0.979047 0
0.000430606 0.971438 0
-0.00123193 0.971353 0
-0.00413328 0.978917 0
0.000509165 0.939665 0
-0.00840027 0.962193 0
0.00237461 0.88479 0
-0.0123001 0.9217 0
0.00427224 0.808108 0
-0.0157901 0.858469 0
0.00609034 0.711529 0
-0.0188574 0.774085 0
0.00766539 0.597464 0
-0.0215385 0.67065 0
0.00878458 0.468788 0
-0.0239067 0.550744 0
0.00915358 0.328969 0
-0.0259433 0.417388 0
0.00990102 0.181685 0
-0.0265177 0.274163 0
0.0118952 0.0287333 0
-0.0267936 0.124826 0
-0.0256662 0.118818 0
0.0131362 0.0262897 0
-0.0241094 0.260931 0
0.0123305 0.17204 0
-0.0226076 0.397174 0
0.0124929 0.312221 0
-0.0213897 0.523899 0
0.0112597 0.445247 0
-0.0196476 0.637778 0
0.00958335 0.567547 0
-0.0173878 0.735897 0
0.0076248 0.675911 0
-0.0146667 0.815795 0
0.0054882 0.767564 0
-0.01149 0.875483 0
0.00330283 0.840209 0
-0.0078678 0.913482 0
0.00119362 0.89204 0
-0.00385222 0.92887 0
-0.000741348 0.921777 0
0.00046435 0.921299 0
-0.00243643 0.928706 0
0.00495789 0.891006 0
-0.00385933 0.912692 0
0.00948066 0.838791 0
-0.00500936 0.874182 0
0.0138676 0.765993 0
-0.00591431 0.814179 0
0.0179384 0.674447 0
-0.00662574 0.734209 0
0.0214832 0.566461 0
-0.00721752 0.636282 0
0.0242775 0.44477 0
-0.00777636 0.522855 0
0.0262166 0.312477 0
-0.00828164 0.396792 0
0.0283389 0.173009 0
-0.00755706 0.261297 0
0.0294166 0.0275396 0
-0.00920372 0.119861 0
-0.0357286 0.0950237 0
-0.00382832 0.0202742 0
-0.0354063 0.209219 0
-0.00553867 0.137499 0
-0.0328981 0.31873 0
-0.00411945 0.250177 0
-0.0306388 0.420462 0
-0.00398092 0.357124 0
-0.0277658 0.511778 0
-0.00395393 0.455312 0
-0.0242379 0.590335 0
-0.00390528 0.5422 0
-0.0200934 0.65416 0
-0.00375308 0.615565 0
-0.0153649 0.701674 0
-0.00342037 0.673571 0
-0.0101052 0.731725 0
-0.00284679 0.714793 0
-0.00440455 0.743616 0
-0.00199913 0.738242 0
0.00160903 0.73712 0
-0.000876913 0.743392 0
0.00777506 0.712478 0
0.000486445 0.730187 0
0.0139075 0.670379 0
0.00202609 0.699033 0
0.0198024 0.611934 0
0.00365105 0.650776 0
0.025247 0.53864 0
0.00525236 0.586672 0
0.0300239 0.452345 0
0.0067138 0.508348 0
0.0339233 0.355214 0
0.00792799 0.417763 0
0.0368668 0.249624 0
0.00885525 0.317176 0
0.0399551 0.138328 0
0.0108342 0.209037 0
0.0395373 0.0225795 0
0.00863045 0.0961443 0
-0.0387666 0.0564557 0
-0.0200259 0.0115254 0
-0.0397139 0.125685 0
-0.0220912 0.0824534 0
-0.03663 0.192102 0
-0.0196475 0.150788 0
-0.0339857 0.253705 0
-0.0183274 0.215637 0
-0.0306795 0.308886 0
-0.01674 0.27505 0
-0.0266707 0.356216 0
-0.0148069 0.327483 0
-0.0219873 0.394495 0
-0.0124977 0.37159 0
-0.0166766 0.422784 0
-0.00979354 0.406265 0
-0.0108127 0.440425 0
-0.00669641 0.430672 0
-0.00450283 0.447057 0
-0.00323696 0.444261 0
0.00211239 0.442614 0
0.000521836 0.446782 0
0.00886177 0.427315 0
0.00448448 0.438273 0
0.0155501 0.401644 0
0.00852655 0.419053 0
0.0219667 0.366326 0
0.0125015 0.389698 0
0.0278953 0.322296 0
0.0162508 0.351011 0
0.0331269 0.270671 0
0.0196156 0.303998 0
0.037476 0.212712 0
0.0224489 0.249829 0
0.0408422 0.149782 0
0.0246696 0.189811 0
0.0445149 0.0834221 0
0.02768 0.125343 0
0.0432321 0.0145233 0
0.025532 0.0579851 0
-0.0363341 0.0107161 0
-0.0328743 0.00123677 0
-0.0381035 0.0258605 0
-0.0349236 0.0167504 0
-0.0348974 0.0404517 0
-0.0318055 0.0317385 0
-0.0323899 0.0538803 0
-0.0295927 0.0459628 0
-0.0292273 0.0657217 0
-0.0267952 0.0588403 0
-0.0253855 0.0756169 0
-0.0233836 0.069973 0
-0.0208977 0.083293 0
-0.0193775 0.0790369 0
-0.0158156 0.0885764 0
-0.01481 0.0857983 0
-0.0102157 0.0913965 0
-0.00973646 0.0901245 0
-0.00420271 0.0917815 0
-0.00424082 0.0919844 0
0.00208943 0.089846 0
0.00156274 0.091441 0
0.00850082 0.0857732 0
0.00753047 0.0886371 0
0.014851 0.0797933 0
0.0134935 0.0837758 0
0.0209467 0.0721604 0
0.0192656 0.0770979 0
0.0265924 0.0631326 0
0.0246532 0.0688607 0
0.0316005 0.0529549 0
0.029467 0.0593182 0
0.0358034 0.041846 0
0.0335318 0.0487071 0
0.0391061 0.0299888 0
0.0367406 0.0372351 0
0.0428968 0.0174782 0
0.0404084 0.0250769 0
0.0412277 0.00445719 0
0.038663 0.012314 0
-0.028394 -0.0363508 0
-0.0406567 -0.00918556 0
-0.0306492 -0.077244 0
-0.0423604 -0.0510373 0
-0.0277654 -0.116373 0
-0.038994 -0.0913375 0
-0.0258321 -0.152846 0
-0.036249 -0.129596 0
-0.0233619 -0.185887 0
-0.0327377 -0.164922 0
-0.0203351 -0.214749 0
-0.0284418 -0.196556 0
-0.0167813 -0.238744 0
-0.0234195 -0.223764 0
-0.012743 -0.257256 0
-0.0177429 -0.24588 0
-0.00828137 -0.269754 0
-0.0115057 -0.262311 0
-0.00348017 -0.275811 0
-0.00482727 -0.272559 0
0.00155449 -0.275133 0
0.00214639 -0.27624 0
0.00669605 -0.267578 0
0.00924404 -0.273113 0
0.0118018 -0.253187 0
0.016274 -0.263099 0
0.0167195 -0.232193 0
0.0230318 -0.246309 0
0.021295 -0.205043 0
0.0293101 -0.223053 0
0.0253811 -0.172386 0
0.0349087 -0.193855 0
0.0288433 -0.13507 0
0.039644 -0.159439 0
0.0316117 -0.0941232 0
0.0433967 -0.12072 0
0.0350266 -0.0509623 0
0.0472165 -0.0787798 0
0.0332456 -0.00625223 0
0.0461014 -0.0350798 0
-0.0160695 -0.0784767 0
-0.0425116 -0.0183165 0
-0.0184453 -0.169696 0
-0.04345 -0.111812 0
-0.016264 -0.257232 0
-0.0404067 -0.201784 0
-0.0152129 -0.338624 0
-0.037489 -0.287345 0
-0.0138689 -0.412047 0
-0.0338219 -0.366064 0
-0.0121781 -0.475772 0
-0.0293325 -0.436175 0
-0.0101561 -0.528249 0
-0.0240889 -0.496009 0
-0.00782417 -0.568154 0
-0.0181874 -0.54409 0
-0.005215 -0.594417 0
-0.0117402 -0.579176 0
-0.00237524 -0.60626 0
-0.00487988 -0.600299 0
0.00063367 -0.603226 0
0.00223915 -0.60679 0
0.00373655 -0.585218 0
0.00944281 -0.598321 0
0.00684715 -0.552519 0
0.0165416 -0.574929 0
0.00987239 -0.505808 0
0.0233378 -0.537044 0
0.0127178 -0.446158 0
0.029634 -0.485489 0
0.0152923 -0.375026 0
0.0352419 -0.421483 0
0.0175118 -0.294212 0
0.0399914 -0.346614 0
0.0193432 -0.205743 0
0.0438487 -0.2628 0
0.0218987 -0.112594 0
0.0471573 -0.172164 0
0.0202295 -0.0161522 0
0.0466875 -0.0777516 0
-0.00122564 -0.107659 0
-0.0360621 -0.0249268 0
-0.00319883 -0.235809 0
-0.0371693 -0.155075 0
-0.00211544 -0.35818 0
-0.0342746 -0.2815 0
-0.00206409 -0.47209 0
-0.0318838 -0.401062 0
-0.00208994 -0.574771 0
-0.0287798 -0.511151 0
-0.00204806 -0.663761 0
-0.0249482 -0.609089 0
-0.00192006 -0.736895 0
-0.0204751 -0.692506 0
-0.0017016 -0.79234 0
-0.0154556 -0.759349 0
-0.00138798 -0.828641 0
-0.00999247 -0.807916 0
-0.000978938 -0.844761 0
-0.00420281 -0.836897 0
-0.000480473 -0.840131 0
0.00178111 -0.845424 0
9.48206e-05 -0.814682 0
0.00781341 -0.833106 0
0.000728545 -0.768874 0
0.0137381 -0.800069 0
0.00139835 -0.703702 0
0.0193945 -0.746969 0
0.00208053 -0.620698 0
0.0246249 -0.675005 0
0.00275114 -0.521886 0
0.0292867 -0.585898 0
0.00338745 -0.409772 0
0.0332244 -0.481851 0
0.00407997 -0.287274 0
0.0364038 -0.365522 0
0.00526771 -0.157816 0
0.0390066 -0.239961 0
0.00380199 -0.0238963 0
0.0389544 -0.108665 0
0.0162421 -0.128073 0
-0.0281511 -0.0281511 0
0.0138852 -0.278802 0
-0.0276194 -0.18307 0
0.0143032 -0.424087 0
-0.0263894 -0.3318 0
0.0130476 -0.559128 0
-0.0245303 -0.473822 0
0.0114501 -0.680714 0
-0.0220982 -0.604425 0
0.00961805 -0.785985 0
-0.0191386 -0.720496 0
0.00757914 -0.8724 0
-0.0157115 -0.819289 0
0.00537222 -0.937805 0
-0.0118875 -0.898395 0
0.00304793 -0.980496 0
-0.00774801 -0.955815 0
0.000662038 -0.999275 0
-0.00338482 -0.990018 0
-0.00172738 -0.993499 0
0.00110098 -0.999999 0
-0.00406154 -0.96312 0
0.00560053 -0.985327 0
-0.00628213 -0.908713 0
0.00999962 -0.946176 0
-0.00833218 -0.831484 0
0.0141819 -0.88335 0
-0.010156 -0.733263 0
0.018033 -0.798282 0
-0.0116954 -0.616476 0
0.0214444 -0.693022 0
-0.0129269 -0.48406 0
0.0243186 -0.570196 0
-0.013738 -0.339482 0
0.0265711 -0.432918 0
-0.0138171 -0.186836 0
0.0281418 -0.284785 0
-0.0151804 -0.0284147 0
0.0289923 -0.129994 0
