# vtk DataFile Version 3.0
tp3485 cell-vector
ASCII
DATASET UNSTRUCTURED_GRID
POINTS 441 double
0 0 0
0.05 0 0
0.1 0 0
0.15 0 0
0.2 0 0
0.25 0 0
0.3 0 0
0.35 0 0
0.4 0 0
0.45 0 0
0.5 0 0
0.55 0 0
0.6 0 0
0.65 0 0
0.7 0 0
0.75 0 0
0.8 0 0
0.85 0 0
0.9 0 0
0.95 0 0
1 0 0
0 0.05 0
0.05 0.05 0
0.1 0.05 0
0.15 0.05 0
0.2 0.05 0
0.25 0.05 0
0.3 0.05 0
0.35 0.05 0
0.4 0.05 0
0.45 0.05 0
0.5 0.05 0
0.55 0.05 0
0.6 0.05 0
0.65 0.05 0
0.7 0.05 0
0.75 0.05 0
0.8 0.05 0
0.85 0.05 0
0.9 0.05 0
0.95 0.05 0
1 0.05 0
0 0.1 0
0.05 0.1 0
0.1 0.1 0
0.15 0.1 0
0.2 0.1 0
0.25 0.1 0
0.3 0.1 0
0.35 0.1 0
0.4 0.1 0
0.45 0.1 0
0.5 0.1 0
0.55 0.1 0
0.6 0.1 0
0.65 0.1 0
0.7 0.1 0
0.75 0.1 0
0.8 0.1 0
0.85 0.1 0
0.9 0.1 0
0.95 0.1 0
1 0.1 0
0 0.15 0
0.05 0.15 0
0.1 0.15 0
0.15 0.15 0
0.2 0.15 0
0.25 0.15 0
0.3 0.15 0
0.35 0.15 0
0.4 0.15 0
0.45 0.15 0
0.5 0.15 0
0.55 0.15 0
0.6 0.15 0
0.65 0.15 0
0.7 0.15 0
0.75 0.15 0
0.8 0.15 0
0.85 0.15 0
0.9 0.15 0
0.95 0.15 0
1 0.15 0
0 0.2 0
0.05 0.2 0
0.1 0.2 0
0.15 0.2 0
0.2 0.2 0
0.25 0.2 0
0.3 0.2 0
0.35 0.2 0
0.4 0.2 0
0.45 0.2 0
0.5 0.2 0
0.55 0.2 0
0.6 0.2 0
0.65 0.2 0
0.7 0.2 0
0.75 0.2 0
0.8 0.2 0
0.85 0.2 0
0.9 0.2 0
0.95 0.2 0
1 0.2 0
0 0.25 0
0.05 0.25 0
0.1 0.25 0
0.15 0.25 0
0.2 0.25 0
0.25 0.25 0
0.3 0.25 0
0.35 0.25 0
0.4 0.25 0
0.45 0.25 0
0.5 0.25 0
0.55 0.25 0
0.6 0.25 0
0.65 0.25 0
0.7 0.25 0
0.75 0.25 0
0.8 0.25 0
0.85 0.25 0
0.9 0.25 0
0.95 0.25 0
1 0.25 0
0 0.3 0
0.05 0.3 0
0.1 0.3 0
0.15 0.3 0
0.2 0.3 0
0.25 0.3 0
0.3 0.3 0
0.35 0.3 0
0.4 0.3 0
0.45 0.3 0
0.5 0.3 0
0.55 0.3 0
0.6 0.3 0
0.65 0.3 0
0.7 0.3 0
0.75 0.3 0
0.8 0.3 0
0.85 0.3 0
0.9 0.3 0
0.95 0.3 0
1 0.3 0
0 0.35 0
0.05 0.35 0
0.1 0.35 0
0.15 0.35 0
0.2 0.35 0
0.25 0.35 0
0.3 0.35 0
0.35 0.35 0
0.4 0.35 0
0.45 0.35 0
0.5 0.35 0
0.55 0.35 0
0.6 0.35 0
0.65 0.35 0
0.7 0.35 0
0.75 0.35 0
0.8 0.35 0
0.85 0.35 0
0.9 0.35 0
0.95 0.35 0
1 0.35 0
0 0.4 0
0.05 0.4 0
0.1 0.4 0
0.15 0.4 0
0.2 0.4 0
0.25 0.4 0
0.3 0.4 0
0.35 0.4 0
0.4 0.4 0
0.45 0.4 0
0.5 0.4 0
0.55 0.4 0
0.6 0.4 0
0.65 0.4 0
0.7 0.4 0
0.75 0.4 0
0.8 0.4 0
0.85 0.4 0
0.9 0.4 0
0.95 0.4 0
1 0.4 0
0 0.45 0
0.05 0.45 0
0.1 0.45 0
0.15 0.45 0
0.2 0.45 0
0.25 0.45 0
0.3 0.45 0
0.35 0.45 0
0.4 0.45 0
0.45 0.45 0
0.5 0.45 0
0.55 0.45 0
0.6 0.45 0
0.65 0.45 0
0.7 0.45 0
0.75 0.45 0
0.8 0.45 0
0.85 0.45 0
0.9 0.45 0
0.95 0.45 0
1 0.45 0
0 0.5 0
0.05 0.5 0
0.1 0.5 0
0.15 0.5 0
0.2 0.5 0
0.25 0.5 0
0.3 0.5 0
0.35 0.5 0
0.4 0.5 0
0.45 0.5 0
0.5 0.5 0
0.55 0.5 0
0.6 0.5 0
0.65 0.5 0
0.7 0.5 0
0.75 0.5 0
0.8 0.5 0
0.85 0.5 0
0.9 0.5 0
0.95 0.5 0
1 0.5 0
0 0.55 0
0.05 0.55 0
0.1 0.55 0
0.15 0.55 0
0.2 0.55 0
0.25 0.55 0
0.3 0.55 0
0.35 0.55 0
0.4 0.55 0
0.45 0.55 0
0.5 0.55 0
0.55 0.55 0
0.6 0.55 0
0.65 0.55 0
0.7 0.55 0
0.75 0.55 0
0.8 0.55 0
0.85 0.55 0
0.9 0.55 0
0.95 0.55 0
1 0.55 0
0 0.6 0
0.05 0.6 0
0.1 0.6 0
0.15 0.6 0
0.2 0.6 0
0.25 0.6 0
0.3 0.6 0
0.35 0.6 0
0.4 0.6 0
0.45 0.6 0
0.5 0.6 0
0.55 0.6 0
0.6 0.6 0
0.65 0.6 0
0.7 0.6 0
0.75 0.6 0
0.8 0.6 0
0.85 0.6 0
0.9 0.6 0
0.95 0.6 0
1 0.6 0
0 0.65 0
0.05 0.65 0
0.1 0.65 0
0.15 0.65 0
0.2 0.65 0
0.25 0.65 0
0.3 0.65 0
0.35 0.65 0
0.4 0.65 0
0.45 0.65 0
0.5 0.65 0
0.55 0.65 0
0.6 0.65 0
0.65 0.65 0
0.7 0.65 0
0.75 0.65 0
0.8 0.65 0
0.85 0.65 0
0.9 0.65 0
0.95 0.65 0
1 0.65 0
0 0.7 0
0.05 0.7 0
0.1 0.7 0
0.15 0.7 0
0.2 0.7 0
0.25 0.7 0
0.3 0.7 0
0.35 0.7 0
0.4 0.7 0
0.45 0.7 0
0.5 0.7 0
0.55 0.7 0
0.6 0.7 0
0.65 0.7 0
0.7 0.7 0
0.75 0.7 0
0.8 0.7 0
0.85 0.7 0
0.9 0.7 0
0.95 0.7 0
1 0.7 0
0 0.75 0
0.05 0.75 0
0.1 0.75 0
0.15 0.75 0
0.2 0.75 0
0.25 0.75 0
0.3 0.75 0
0.35 0.75 0
0.4 0.75 0
0.45 0.75 0
0.5 0.75 0
0.55 0.75 0
0.6 0.75 0
0.65 0.75 0
0.7 0.75 0
0.75 0.75 0
0.8 0.75 0
0.85 0.75 0
0.9 0.75 0
0.95 0.75 0
1 0.75 0
0 0.8 0
0.05 0.8 0
0.1 0.8 0
0.15 0.8 0
0.2 0.8 0
0.25 0.8 0
0.3 0.8 0
0.35 0.8 0
0.4 0.8 0
0.45 0.8 0
0.5 0.8 0
0.55 0.8 0
0.6 0.8 0
0.65 0.8 0
0.7 0.8 0
0.75 0.8 0
0.8 0.8 0
0.85 0.8 0
0.9 0.8 0
0.95 0.8 0
1 0.8 0
0 0.85 0
0.05 0.85 0
0.1 0.85 0
0.15 0.85 0
0.2 0.85 0
0.25 0.85 0
0.3 0.85 0
0.35 0.85 0
0.4 0.85 0
0.45 0.85 0
0.5 0.85 0
0.55 0.85 0
0.6 0.85 0
0.65 0.85 0
0.7 0.85 0
0.75 0.85 0
0.8 0.85 0
0.85 0.85 0
0.9 0.85 0
0.95 0.85 0
1 0.85 0
0 0.9 0
0.05 0.9 0
0.1 0.9 0
0.15 0.9 0
0.2 0.9 0
0.25 0.9 0
0.3 0.9 0
0.35 0.9 0
0.4 0.9 0
0.45 0.9 0
0.5 0.9 0
0.55 0.9 0
0.6 0.9 0
0.65 0.9 0
0.7 0.9 0
0.75 0.9 0
0.8 0.9 0
0.85 0.9 0
0.9 0.9 0
0.95 0.9 0
1 0.9 0
0 0.95 0
0.05 0.95 0
0.1 0.95 0
0.15 0.95 0
0.2 0.95 0
0.25 0.95 0
0.3 0.95 0
0.35 0.95 0
0.4 0.95 0
0.45 0.95 0
0.5 0.95 0
0.55 0.95 0
0.6 0.95 0
0.65 0.95 0
0.7 0.95 0
0.75 0.95 0
0.8 0.95 0
0.85 0.95 0
0.9 0.95 0
0.95 0.95 0
1 0.95 0
0 1 0
0.05 1 0
0.1 1 0
0.15 1 0
0.2 1 0
0.25 1 0
0.3 1 0
0.35 1 0
0.4 1 0
0.45 1 0
0.5 1 0
0.55 1 0
0.6 1 0
0.65 1 0
0.7 1 0
0.75 1 0
0.8 1 0
0.85 1 0
0.9 1 0
0.95 1 0
1 1 0
CELLS 800 3200
3 0 1 22
3 0 22 21
3 1 2 23
3 1 23 22
3 2 3 24
3 2 24 23
3 3 4 25
3 3 25 24
3 4 5 26
3 4 26 25
3 5 6 27
3 5 27 26
3 6 7 28
3 6 28 27
3 7 8 29
3 7 29 28
3 8 9 30
3 8 30 29
3 9 10 31
3 9 31 30
3 10 11 32
3 10 32 31
3 11 12 33
3 11 33 32
3 12 13 34
3 12 34 33
3 13 14 35
3 13 35 34
3 14 15 36
3 14 36 35
3 15 16 37
3 15 37 36
3 16 17 38
3 16 38 37
3 17 18 39
3 17 39 38
3 18 19 40
3 18 40 39
3 19 20 41
3 19 41 40
3 21 22 43
3 21 43 42
3 22 23 44
3 22 44 43
3 23 24 45
3 23 45 44
3 24 25 46
3 24 46 45
3 25 26 47
3 25 47 46
3 26 27 48
3 26 48 47
3 27 28 49
3 27 49 48
3 28 29 50
3 28 50 49
3 29 30 51
3 29 51 50
3 30 31 52
3 30 52 51
3 31 32 53
3 31 53 52
3 32 33 54
3 32 54 53
3 33 34 55
3 33 55 54
3 34 35 56
3 34 56 55
3 35 36 57
3 35 57 56
3 36 37 58
3 36 58 57
3 37 38 59
3 37 59 58
3 38 39 60
3 38 60 59
3 39 40 61
3 39 61 60
3 40 41 62
3 40 62 61
3 42 43 64
3 42 64 63
3 43 44 65
3 43 65 64
3 44 45 66
3 44 66 65
3 45 46 67
3 45 67 66
3 46 47 68
3 46 68 67
3 47 48 69
3 47 69 68
3 48 49 70
3 48 70 69
3 49 50 71
3 49 71 70
3 50 51 72
3 50 72 71
3 51 52 73
3 51 73 72
3 52 53 74
3 52 74 73
3 53 54 75
3 53 75 74
3 54 55 76
3 54 76 75
3 55 56 77
3 55 77 76
3 56 57 78
3 56 78 77
3 57 58 79
3 57 79 78
3 58 59 80
3 58 80 79
3 59 60 81
3 59 81 80
3 60 61 82
3 60 82 81
3 61 62 83
3 61 83 82
3 63 64 85
3 63 85 84
3 64 65 86
3 64 86 85
3 65 66 87
3 65 87 86
3 66 67 88
3 66 88 87
3 67 68 89
3 67 89 88
3 68 69 90
3 68 90 89
3 69 70 91
3 69 91 90
3 70 71 92
3 70 92 91
3 71 72 93
3 71 93 92
3 72 73 94
3 72 94 93
3 73 74 95
3 73 95 94
3 74 75 96
3 74 96 95
3 75 76 97
3 75 97 96
3 76 77 98
3 76 98 97
3 77 78 99
3 77 99 98
3 78 79 100
3 78 100 99
3 79 80 101
3 79 101 100
3 80 81 102
3 80 102 101
3 81 82 103
3 81 103 102
3 82 83 104
3 82 104 103
3 84 85 106
3 84 106 105
3 85 86 107
3 85 107 106
3 86 87 108
3 86 108 107
3 87 88 109
3 87 109 108
3 88 89 110
3 88 110 109
3 89 90 111
3 89 111 110
3 90 91 112
3 90 112 111
3 91 92 113
3 91 113 112
3 92 93 114
3 92 114 113
3 93 94 115
3 93 115 114
3 94 95 116
3 94 116 115
3 95 96 117
3 95 117 116
3 96 97 118
3 96 118 117
3 97 98 119
3 97 119 118
3 98 99 120
3 98 120 119
3 99 100 121
3 99 121 120
3 100 101 122
3 100 122 121
3 101 102 123
3 101 123 122
3 102 103 124
3 102 124 123
3 103 104 125
3 103 125 124
3 105 106 127
3 105 127 126
3 106 107 128
3 106 128 127
3 107 108 129
3 107 129 128
3 108 109 130
3 108 130 129
3 109 110 131
3 109 131 130
3 110 111 132
3 110 132 131
3 111 112 133
3 111 133 132
3 112 113 134
3 112 134 133
3 113 114 135
3 113 135 134
3 114 115 136
3 114 136 135
3 115 116 137
3 115 137 136
3 116 117 138
3 116 138 137
3 117 118 139
3 117 139 138
3 118 119 140
3 118 140 139
3 119 120 141
3 119 141 140
3 120 121 142
3 120 142 141
3 121 122 143
3 121 143 142
3 122 123 144
3 122 144 143
3 123 124 145
3 123 145 144
3 124 125 146
3 124 146 145
3 126 127 148
3 126 148 147
3 127 128 149
3 127 149 148
3 128 129 150
3 128 150 149
3 129 130 151
3 129 151 150
3 130 131 152
3 130 152 151
3 131 132 153
3 131 153 152
3 132 133 154
3 132 154 153
3 133 134 155
3 133 155 154
3 134 135 156
3 134 156 155
3 135 136 157
3 135 157 156
3 136 137 158
3 136 158 157
3 137 138 159
3 137 159 158
3 138 139 160
3 138 160 159
3 139 140 161
3 139 161 160
3 140 141 162
3 140 162 161
3 141 142 163
3 141 163 162
3 142 143 164
3 142 164 163
3 143 144 165
3 143 165 164
3 144 145 166
3 144 166 165
3 145 146 167
3 145 167 166
3 147 148 169
3 147 169 168
3 148 149 170
3 148 170 169
3 149 150 171
3 149 171 170
3 150 151 172
3 150 172 171
3 151 152 173
3 151 173 172
3 152 153 174
3 152 174 173
3 153 154 175
3 153 175 174
3 154 155 176
3 154 176 175
3 155 156 177
3 155 177 176
3 156 157 178
3 156 178 177
3 157 158 179
3 157 179 178
3 158 159 180
3 158 180 179
3 159 160 181
3 159 181 180
3 160 161 182
3 160 182 181
3 161 162 183
3 161 183 182
3 162 163 184
3 162 184 183
3 163 164 185
3 163 185 184
3 164 165 186
3 164 186 185
3 165 166 187
3 165 187 186
3 166 167 188
3 166 188 187
3 168 169 190
3 168 190 189
3 169 170 191
3 169 191 190
3 170 171 192
3 170 192 191
3 171 172 193
3 171 193 192
3 172 173 194
3 172 194 193
3 173 174 195
3 173 195 194
3 174 175 196
3 174 196 195
3 175 176 197
3 175 197 196
3 176 177 198
3 176 198 197
3 177 178 199
3 177 199 198
3 178 179 200
3 178 200 199
3 179 180 201
3 179 201 200
3 180 181 202
3 180 202 201
3 181 182 203
3 181 203 202
3 182 183 204
3 182 204 203
3 183 184 205
3 183 205 204
3 184 185 206
3 184 206 205
3 185 186 207
3 185 207 206
3 186 187 208
3 186 208 207
3 187 188 209
3 187 209 208
3 189 190 211
3 189 211 210
3 190 191 212
3 190 212 211
3 191 192 213
3 191 213 212
3 192 193 214
3 192 214 213
3 193 194 215
3 193 215 214
3 194 195 216
3 194 216 215
3 195 196 217
3 195 217 216
3 196 197 218
3 196 218 217
3 197 198 219
3 197 219 218
3 198 199 220
3 198 220 219
3 199 200 221
3 199 221 220
3 200 201 222
3 200 222 221
3 201 202 223
3 201 223 222
3 202 203 224
3 202 224 223
3 203 204 225
3 203 225 224
3 204 205 226
3 204 226 225
3 205 206 227
3 205 227 226
3 206 207 228
3 206 228 227
3 207 208 229
3 207 229 228
3 208 209 230
3 208 230 229
3 210 211 232
3 210 232 231
3 211 212 233
3 211 233 232
3 212 213 234
3 212 234 233
3 213 214 235
3 213 235 234
3 214 215 236
3 214 236 235
3 215 216 237
3 215 237 236
3 216 217 238
3 216 238 237
3 217 218 239
3 217 239 238
3 218 219 240
3 218 240 239
3 219 220 241
3 219 241 240
3 220 221 242
3 220 242 241
3 221 222 243
3 221 243 242
3 222 223 244
3 222 244 243
3 223 224 245
3 223 245 244
3 224 225 246
3 224 246 245
3 225 226 247
3 225 247 246
3 226 227 248
3 226 248 247
3 227 228 249
3 227 249 248
3 228 229 250
3 228 250 249
3 229 230 251
3 229 251 250
3 231 232 253
3 231 253 252
3 232 233 254
3 232 254 253
3 233 234 255
3 233 255 254
3 234 235 256
3 234 256 255
3 235 236 257
3 235 257 256
3 236 237 258
3 236 258 257
3 237 238 259
3 237 259 258
3 238 239 260
3 238 260 259
3 239 240 261
3 239 261 260
3 240 241 262
3 240 262 261
3 241 242 263
3 241 263 262
3 242 243 264
3 242 264 263
3 243 244 265
3 243 265 264
3 244 245 266
3 244 266 265
3 245 246 267
3 245 267 266
3 246 247 268
3 246 268 267
3 247 248 269
3 247 269 268
3 248 249 270
3 248 270 269
3 249 250 271
3 249 271 270
3 250 251 272
3 250 272 271
3 252 253 274
3 252 274 273
3 253 254 275
3 253 275 274
3 254 255 276
3 254 276 275
3 255 256 277
3 255 277 276
3 256 257 278
3 256 278 277
3 257 258 279
3 257 279 278
3 258 259 280
3 258 280 279
3 259 260 281
3 259 281 280
3 260 261 282
3 260 282 281
3 261 262 283
3 261 283 282
3 262 263 284
3 262 284 283
3 263 264 285
3 263 285 284
3 264 265 286
3 264 286 285
3 265 266 287
3 265 287 286
3 266 267 288
3 266 288 287
3 267 268 289
3 267 289 288
3 268 269 290
3 268 290 289
3 269 270 291
3 269 291 290
3 270 271 292
3 270 292 291
3 271 272 293
3 271 293 292
3 273 274 295
3 273 295 294
3 274 275 296
3 274 296 295
3 275 276 297
3 275 297 296
3 276 277 298
3 276 298 297
3 277 278 299
3 277 299 298
3 278 279 300
3 278 300 299
3 279 280 301
3 279 301 300
3 280 281 302
3 280 302 301
3 281 282 303
3 281 303 302
3 282 283 304
3 282 304 303
3 283 284 305
3 283 305 304
3 284 285 306
3 284 306 305
3 285 286 307
3 285 307 306
3 286 287 308
3 286 308 307
3 287 288 309
3 287 309 308
3 288 289 310
3 288 310 309
3 289 290 311
3 289 311 310
3 290 291 312
3 290 312 311
3 291 292 313
3 291 313 312
3 292 293 314
3 292 314 313
3 294 295 316
3 294 316 315
3 295 296 317
3 295 317 316
3 296 297 318
3 296 318 317
3 297 298 319
3 297 319 318
3 298 299 320
3 298 320 319
3 299 300 321
3 299 321 320
3 300 301 322
3 300 322 321
3 301 302 323
3 301 323 322
3 302 303 324
3 302 324 323
3 303 304 325
3 303 325 324
3 304 305 326
3 304 326 325
3 305 306 327
3 305 327 326
3 306 307 328
3 306 328 327
3 307 308 329
3 307 329 328
3 308 309 330
3 308 330 329
3 309 310 331
3 309 331 330
3 310 311 332
3 310 332 331
3 311 312 333
3 311 333 332
3 312 313 334
3 312 334 333
3 313 314 335
3 313 335 334
3 315 316 337
3 315 337 336
3 316 317 338
3 316 338 337
3 317 318 339
3 317 339 338
3 318 319 340
3 318 340 339
3 319 320 341
3 319 341 340
3 320 321 342
3 320 342 341
3 321 322 343
3 321 343 342
3 322 323 344
3 322 344 343
3 323 324 345
3 323 345 344
3 324 325 346
3 324 346 345
3 325 326 347
3 325 347 346
3 326 327 348
3 326 348 347
3 327 328 349
3 327 349 348
3 328 329 350
3 328 350 349
3 329 330 351
3 329 351 350
3 330 331 352
3 330 352 351
3 331 332 353
3 331 353 352
3 332 333 354
3 332 354 353
3 333 334 355
3 333 355 354
3 334 335 356
3 334 356 355
3 336 337 358
3 336 358 357
3 337 338 359
3 337 359 358
3 338 339 360
3 338 360 359
3 339 340 361
3 339 361 360
3 340 341 362
3 340 362 361
3 341 342 363
3 341 363 362
3 342 343 364
3 342 364 363
3 343 344 365
3 343 365 364
3 344 345 366
3 344 366 365
3 345 346 367
3 345 367 366
3 346 347 368
3 346 368 367
3 347 348 369
3 347 369 368
3 348 349 370
3 348 370 369
3 349 350 371
3 349 371 370
3 350 351 372
3 350 372 371
3 351 352 373
3 351 373 372
3 352 353 374
3 352 374 373
3 353 354 375
3 353 375 374
3 354 355 376
3 354 376 375
3 355 356 377
3 355 377 376
3 357 358 379
3 357 379 378
3 358 359 380
3 358 380 379
3 359 360 381
3 359 381 380
3 360 361 382
3 360 382 381
3 361 362 383
3 361 383 382
3 362 363 384
3 362 384 383
3 363 364 385
3 363 385 384
3 364 365 386
3 364 386 385
3 365 366 387
3 365 387 386
3 366 367 388
3 366 388 387
3 367 368 389
3 367 389 388
3 368 369 390
3 368 390 389
3 369 370 391
3 369 391 390
3 370 371 392
3 370 392 391
3 371 372 393
3 371 393 392
3 372 373 394
3 372 394 393
3 373 374 395
3 373 395 394
3 374 375 396
3 374 396 395
3 375 376 397
3 375 397 396
3 376 377 398
3 376 398 397
3 378 379 400
3 378 400 399
3 379 380 401
3 379 401 400
3 380 381 402
3 380 402 401
3 381 382 403
3 381 403 402
3 382 383 404
3 382 404 403
3 383 384 405
3 383 405 404
3 384 385 406
3 384 406 405
3 385 386 407
3 385 407 406
3 386 387 408
3 386 408 407
3 387 388 409
3 387 409 408
3 388 389 410
3 388 410 409
3 389 390 411
3 389 411 410
3 390 391 412
3 390 412 411
3 391 392 413
3 391 413 412
3 392 393 414
3 392 414 413
3 393 394 415
3 393 415 414
3 394 395 416
3 394 416 415
3 395 396 417
3 395 417 416
3 396 397 418
3 396 418 417
3 397 398 419
3 397 419 418
3 399 400 421
3 399 421 420
3 400 401 422
3 400 422 421
3 401 402 423
3 401 423 422
3 402 403 424
3 402 424 423
3 403 404 425
3 403 425 424
3 404 405 426
3 404 426 425
3 405 406 427
3 405 427 426
3 406 407 428
3 406 428 427
3 407 408 429
3 407 429 428
3 408 409 430
3 408 430 429
3 409 410 431
3 409 431 430
3 410 411 432
3 410 432 431
3 411 412 433
3 411 433 432
3 412 413 434
3 412 434 433
3 413 414 435
3 413 435 434
3 414 415 436
3 414 436 435
3 415 416 437
3 415 437 436
3 416 417 438
3 416 438 437
3 417 418 439
3 417 439 438
3 418 419 440
3 418 440 439
CELL_TYPES 800
5
5
5
5
5
5
5
5
5
5
5
5
5
5
5
5
5
5
5
5
5
5
5
5
5
5
5
5
5
5
5
5
5
5
5
5
5
5
5
5
5
5
5
5
5
5
5
5
5
5
5
5
5
5
5
5
5
5
5
5
5
5
5
5
5
5
5
5
5
5
5
5
5
5
5
5
5
5
5
5
5
5
5
5
5
5
5
5
5
5
5
5
5
5
5
5
5
5
5
5
5
5
5
5
5
5
5
5
5
5
5
5
5
5
5
5
5
5
5
5
5
5
5
5
5
5
5
5
5
5
5
5
5
5
5
5
5
5
5
5
5
5
5
5
5
5
5
5
5
5
5
5
5
5
5
5
5
5
5
5
5
5
5
5
5
5
5
5
5
5
5
5
5
5
5
5
5
5
5
5
5
5
5
5
5
5
5
5
5
5
5
5
5
5
5
5
5
5
5
5
5
5
5
5
5
5
5
5
5
5
5
5
5
5
5
5
5
5
5
5
5
5
5
5
5
5
5
5
5
5
5
5
5
5
5
5
5
5
5
5
5
5
5
5
5
5
5
5
5
5
5
5
5
5
5
5
5
5
5
5
5
5
5
5
5
5
5
5
5
5
5
5
5
5
5
5
5
5
5
5
5
5
5
5
5
5
5
5
5
5
5
5
5
5
5
5
5
5
5
5
5
5
5
5
5
5
5
5
5
5
5
5
5
5
5
5
5
5
5
5
5
5
5
5
5
5
5
5
5
5
5
5
5
5
5
5
5
5
5
5
5
5
5
5
5
5
5
5
5
5
5
5
5
5
5
5
5
5
5
5
5
5
5
5
5
5
5
5
5
5
5
5
5
5
5
5
5
5
5
5
5
5
5
5
5
5
5
5
5
5
5
5
5
5
5
5
5
5
5
5
5
5
5
5
5
5
5
5
5
5
5
5
5
5
5
5
5
5
5
5
5
5
5
5
5
5
5
5
5
5
5
5
5
5
5
5
5
5
5
5
5
5
5
5
5
5
5
5
5
5
5
5
5
5
5
5
5
5
5
5
5
5
5
5
5
5
5
5
5
5
5
5
5
5
5
5
5
5
5
5
5
5
5
5
5
5
5
5
5
5
5
5
5
5
5
5
5
5
5
5
5
5
5
5
5
5
5
5
5
5
5
5
5
5
5
5
5
5
5
5
5
5
5
5
5
5
5
5
5
5
5
5
5
5
5
5
5
5
5
5
5
5
5
5
5
5
5
5
5
5
5
5
5
5
5
5
5
5
5
5
5
5
5
5
5
5
5
5
5
5
5
5
5
5
5
5
5
5
5
5
5
5
5
5
5
5
5
5
5
5
5
5
5
5
5
5
5
5
5
5
5
5
5
5
5
5
5
5
5
5
5
5
5
5
5
5
5
5
5
5
5
5
5
5
5
5
5
5
5
5
5
5
5
5
5
5
5
5
5
5
5
5
5
5
5
5
5
5
5
5
5
5
5
5
5
5
5
5
5
5
5
5
5
5
5
5
5
5
5
5
5
5
5
5
5
5
5
5
5
5
5
5
5
5
5
5
5
5
5
5
5
5
5
5
5
5
5
5
5
5
5
5
5
5
5
5
5
5
5
5
5
5
5
5
5
5
5
5
5
5
5
5
5
5
5
5
5
5
5
5
5
5
5
5
5
5
5
5
5
5
5
5
5
5
5
5
5
5
5
5
5
5
5
5
5
5
5
5
5
5
5
5
5
5
5
5
5
5
5
5
5
5
5
5
5
5
5
5
5
5
5
5
5
5
5
5
5
5
5
5
5
5
5
5
5
5
5
5
5
5
CELL_DATA 800
VECTORS Et double
-0.0388685 -0.0421022 0
-0.197186 0.0386732 0
-0.0377626 -0.0392325 0
-0.1873 0.0346543 0
-0.0357236 -0.0371822 0
-0.179501 0.034701 0
-0.0328083 -0.0341369 0
-0.165434 0.0321111 0
-0.0290868 -0.0301111 0
-0.147241 0.0288141 0
-0.0246481 -0.0252187 0
-0.125436 0.0249485 0
-0.0196002 -0.0195924 0
-0.100546 0.0205911 0
-0.0140663 -0.0133915 0
-0.073185 0.0158343 0
-0.00818177 -0.00679484 0
-0.0440282 0.0107723 0
-0.00209083 5.81734e-06 0
-0.0137931 0.0055021 0
0.00405676 0.00681202 0
0.0167761 0.000123032 0
0.0101095 0.0134255 0
0.0469271 -0.00526368 0
0.015918 0.0196548 0
0.0759182 -0.0105557 0
0.0213384 0.0253227 0
0.103036 -0.01565 0
0.0262362 0.0302729 0
0.127617 -0.0204436 0
0.0304894 0.0343795 0
0.149061 -0.0248328 0
0.0339917 0.0375665 0
0.166861 -0.0287107 0
0.0366538 0.0397926 0
0.180581 -0.0319528 0
0.0384161 0.0380695 0
0.186931 -0.0344453 0
0.0392338 0.0392338 0
0.195462 -0.0390534 0
-0.272929 -0.039058 0
-0.421365 0.0361536 0
-0.261208 -0.0362841 0
-0.402376 0.0334384 0
-0.249752 -0.0340903 0
-0.385314 0.0335642 0
-0.230309 -0.030906 0
-0.355312 0.0313906 0
-0.205144 -0.0268172 0
-0.316526 0.0286016 0
-0.17494 -0.0219401 0
-0.269972 0.025252 0
-0.140428 -0.0164134 0
-0.216782 0.0214057 0
-0.102457 -0.0103942 0
-0.158262 0.0171365 0
-0.0619606 -0.00405573 0
-0.0958525 0.0125263 0
-0.0199349 0.00241751 0
-0.0310886 0.00766192 0
0.0225865 0.00883633 0
0.0344358 0.00263393 0
0.0645567 0.015013 0
0.0991078 -0.00246398 0
0.104942 0.0207674 0
0.161336 -0.00753559 0
0.142748 0.0259335 0
0.219587 -0.0124829 0
0.177045 0.0303643 0
0.272431 -0.0172069 0
0.206991 0.0339385 0
0.318572 -0.0216087 0
0.231868 0.0365673 0
0.3569 -0.0255899 0
0.25106 0.0381877 0
0.38646 -0.0290496 0
0.261158 0.0370752 0
0.401922 -0.0319053 0
0.271597 0.0374284 0
0.418412 -0.0357632 0
-0.490718 -0.0349137 0
-0.622065 0.0316168 0
-0.470064 -0.0324038 0
-0.594993 0.0292744 0
-0.449675 -0.0307845 0
-0.570043 0.0294551 0
-0.414766 -0.0282075 0
-0.525734 0.0272277 0
-0.369612 -0.0247989 0
-0.468517 0.0245334 0
-0.315382 -0.0206585 0
-0.399802 0.0213725 0
-0.253393 -0.0159047 0
-0.321258 0.0178036 0
-0.185166 -0.010675 0
-0.234815 0.0138956 0
-0.112379 -0.00512269 0
-0.142598 0.00972246 0
-0.0368211 0.000588534 0
-0.0468757 0.00536098 0
0.0396483 0.00628932 0
0.0499972 0.000890554 0
0.115147 0.0118105 0
0.145635 -0.00360767 0
0.187816 0.0169888 0
0.237684 -0.00805128 0
0.255864 0.0216717 0
0.323876 -0.0123573 0
0.317618 0.025721 0
0.402088 -0.0164431 0
0.37156 0.0290138 0
0.470395 -0.0202288 0
0.416385 0.0314502 0
0.527137 -0.0236426 0
0.450976 0.0329824 0
0.570929 -0.0266162 0
0.46989 0.0319081 0
0.594439 -0.0290689 0
0.488141 0.0335328 0
0.619471 -0.0325915 0
-0.681157 -0.0289343 0
-0.788196 0.0253155 0
-0.652687 -0.0269995 0
-0.754571 0.0233596 0
-0.624922 -0.025745 0
-0.723082 0.0234191 0
-0.576451 -0.0237032 0
-0.666981 0.0215634 0
-0.513826 -0.0209513 0
-0.594527 0.0193316 0
-0.438585 -0.0175737 0
-0.507486 0.0167505 0
-0.352557 -0.0136686 0
-0.407968 0.0138637 0
-0.257852 -0.00935075 0
-0.298417 0.010725 0
-0.156798 -0.00474874 0
-0.181524 0.00739118 0
-0.0518799 -6.90226e-07 0
-0.0601659 0.00392088 0
0.0543217 0.00475003 0
0.062672 0.000373845 0
0.159192 0.00935976 0
0.183965 -0.00318927 0
0.260148 0.0136894 0
0.300726 -0.00670701 0
0.354701 0.0176088 0
0.410078 -0.0101174 0
0.440522 0.0209994 0
0.509324 -0.0133586 0
0.515495 0.0237565 0
0.596015 -0.0163709 0
0.577795 0.0257911 0
0.668036 -0.0190995 0
0.625896 0.0270775 0
0.723657 -0.0214952 0
0.652367 0.0262944 0
0.753961 -0.0234784 0
0.678916 0.0277729 0
0.786125 -0.0262753 0
-0.833728 -0.0214057 0
-0.910549 0.0175999 0
-0.799048 -0.0201681 0
-0.872214 0.0160754 0
-0.765417 -0.019402 0
-0.835942 0.0159961 0
-0.706131 -0.0180204 0
-0.771182 0.0145623 0
-0.629533 -0.0160838 0
-0.687535 0.0129071 0
-0.537482 -0.0136564 0
-0.587021 0.0110456 0
-0.432212 -0.0108119 0
-0.472074 0.00900317 0
-0.316305 -0.00763586 0
-0.345512 0.00681479 0
-0.192609 -0.00422527 0
-0.210447 0.0045171 0
-0.0641648 -0.000685863 0
-0.0702003 0.00214666 0
0.0658663 0.00287166 0
0.0717765 -0.000260632 0
0.194283 0.0063359 0
0.211988 -0.00266925 0
0.317922 0.00959901 0
0.34698 -0.00504333 0
0.433736 0.0125603 0
0.473425 -0.00734605 0
0.538867 0.0151286 0
0.588204 -0.00953967 0
0.63072 0.0172242 0
0.688482 -0.0115867 0
0.707049 0.0187845 0
0.771808 -0.0134515 0
0.766017 0.0197849 0
0.836187 -0.0150955 0
0.798629 0.0193339 0
0.871625 -0.0164682 0
0.831985 0.0204729 0
0.909013 -0.0183889 0
-0.939976 -0.0127621 0
-0.982365 0.00889975 0
-0.900991 -0.0123105 0
-0.94137 0.00781099 0
-0.863369 -0.0120871 0
-0.902332 0.0075787 0
-0.796581 -0.0114424 0
-0.832518 0.00663584 0
-0.710283 -0.0104287 0
-0.742345 0.00565047 0
-0.606556 -0.0090867 0
-0.633964 0.00461285 0
-0.487909 -0.00745812 0
-0.509991 0.00352937 0
-0.357253 -0.00559321 0
-0.373463 0.00241682 0
-0.217797 -0.0035522 0
-0.227737 0.00129103 0
-0.0729693 -0.00140344 0
-0.0763975 0.000164402 0
0.0736648 0.000779813 0
0.0768289 -0.00095408 0
0.218495 0.00292323 0
0.22817 -0.00205739 0
0.357954 0.00495527 0
0.373897 -0.00313861 0
0.488603 0.00681057 0
0.510421 -0.00418905 0
0.607218 0.0084317 0
0.634371 -0.00519687 0
0.710865 0.00976746 0
0.742683 -0.00614732 0
0.797012 0.010767 0
0.832696 -0.00702659 0
0.863589 0.0113946 0
0.902245 -0.00782731 0
0.900555 0.0112065 0
0.940809 -0.00854464 0
0.938744 0.0120372 0
0.981412 -0.00957667 0
-0.994041 -0.00378372 0
-1 -0.000300496 0
-0.952838 -0.00396954 0
-0.957994 -0.00127172 0
-0.913318 -0.00429349 0
-0.918529 -0.00146888 0
-0.842746 -0.00437771 0
-0.847514 -0.00186024 0
-0.751564 -0.00430926 0
-0.755855 -0.00207698 0
-0.641945 -0.00409777 0
-0.645657 -0.00219876 0
-0.516532 -0.00374394 0
-0.519561 -0.00223326 0
-0.378398 -0.00325761 0
-0.380661 -0.00217598 0
-0.230938 -0.00265988 0
-0.232376 -0.00203057 0
-0.0777783 -0.00198022 0
-0.0783569 -0.00181063 0
0.0773103 -0.00125295 0
0.0776022 -0.00153688 0
0.230509 -0.000513764 0
0.231661 -0.00123382 0
0.378045 0.00020389 0
0.380027 -0.000926435 0
0.51628 0.000872954 0
0.519047 -0.00063681 0
0.641803 0.00147645 0
0.645295 -0.000380299 0
0.751507 0.00200098 0
0.755647 -0.000162129 0
0.842696 0.00240672 0
0.847358 1.55044e-05 0
0.913171 0.00248403 0
0.918034 0.000125117 0
0.952396 0.0024034 0
0.957514 -3.78296e-05 0
0.993364 0.00293366 0
0.999361 -0.000287721 0
-0.993265 0.00513045 0
-0.96272 -0.00948976 0
-0.951507 0.00443971 0
-0.921017 -0.0105662 0
-0.912457 0.00380901 0
-0.883396 -0.0105917 0
-0.841995 0.00276697 0
-0.815552 -0.0101872 0
-0.751027 0.00174285 0
-0.72744 -0.00985793 0
-0.641633 0.000678353 0
-0.621563 -0.0092013 0
-0.516438 -0.000379691 0
-0.50035 -0.00831901 0
-0.37851 -0.00139764 0
-0.366785 -0.00721265 0
-0.231245 -0.00235461 0
-0.224165 -0.00590281 0
-0.0782669 -0.00323972 0
-0.0760079 -0.00442672 0
0.0766558 -0.00404701 0
0.0740349 -0.00283391 0
0.229709 -0.00477269 0
0.222269 -0.00117962 0
0.377123 -0.00541237 0
0.365046 0.00047953 0
0.515268 -0.00595589 0
0.498857 0.00208975 0
0.640739 -0.00638109 0
0.620415 0.00360675 0
0.750427 -0.00666272 0
0.726711 0.00500334 0
0.841605 -0.00692006 0
0.814958 0.00626159 0
0.911885 -0.00750209 0
0.882599 0.00722835 0
0.95112 -0.00668628 0
0.921618 0.00752483 0
0.99287 -0.0063332 0
0.962015 0.00886239 0
-0.937938 0.0125509 0
-0.873775 -0.0181604 0
-0.896936 0.0114572 0
-0.832434 -0.0204833 0
-0.860604 0.0110336 0
-0.798416 -0.0202664 0
-0.794592 0.00902615 0
-0.738477 -0.0186116 0
-0.708829 0.00672433 0
-0.658919 -0.0178222 0
-0.605755 0.00425829 0
-0.563203 -0.0166663 0
-0.487733 0.00171786 0
-0.453551 -0.0151008 0
-0.357665 -0.000830479 0
-0.332687 -0.0131359 0
-0.218761 -0.00333185 0
-0.203602 -0.0108168 0
-0.074449 -0.00573827 0
-0.0694856 -0.00820928 0
0.0717167 -0.0080056 0
0.0663567 -0.00539169 0
0.216136 -0.0100934 0
0.20058 -0.0024487 0
0.355256 -0.011965 0
0.329881 0.000531923 0
0.485654 -0.0135847 0
0.451085 0.00346251 0
0.604129 -0.014911 0
0.561226 0.00626093 0
0.707746 -0.0158773 0
0.657605 0.00886084 0
0.793781 -0.0166298 0
0.73747 0.0112333 0
0.859726 -0.0175165 0
0.798259 0.0131531 0
0.897603 -0.0173468 0
0.833639 0.0142145 0
0.937436 -0.0152533 0
0.873365 0.0155825 0
-0.832303 0.0202756 0
-0.736998 -0.0258589 0
-0.792112 0.0200288 0
-0.696035 -0.0282524 0
-0.760176 0.0175445 0
-0.670644 -0.0266017 0
-0.703238 0.0141145 0
-0.621141 -0.026098 0
-0.627553 0.0105701 0
-0.554173 -0.0254697 0
-0.536481 0.00694502 0
-0.473689 -0.0239746 0
-0.432132 0.00324688 0
-0.381554 -0.0217093 0
-0.317094 -0.000473802 0
-0.280013 -0.0188127 0
-0.194215 -0.00415145 0
-0.171565 -0.0153979 0
-0.0665327 -0.00771348 0
-0.058883 -0.0115757 0
0.0628075 -0.011088 0
0.0552603 -0.00745867 0
0.190621 -0.0142077 0
0.168054 -0.00316425 0
0.313761 -0.0170142 0
0.27672 0.00118601 0
0.429206 -0.0194659 0
0.378582 0.00546694 0
0.534129 -0.021547 0
0.471131 0.00954575 0
0.625961 -0.023216 0
0.552136 0.0132778 0
0.702061 -0.0240607 0
0.619606 0.0165608 0
0.759957 -0.0250361 0
0.669942 0.0196801 0
0.793357 -0.0269985 0
0.6971 0.0215888 0
0.832036 -0.0233464 0
0.738193 0.0214889 0
-0.685349 0.0307861 0
-0.580754 -0.0240095 0
-0.645858 0.0291124 0
-0.549863 -0.0184628 0
-0.622969 0.0274362 0
-0.531315 -0.018221 0
-0.577133 0.0260029 0
-0.491722 -0.0169473 0
-0.51493 0.0236548 0
-0.439076 -0.0143308 0
-0.440181 0.0210033 0
-0.37521 -0.0116262 0
-0.354605 0.0179837 0
-0.302249 -0.00835493 0
-0.260285 0.0145947 0
-0.221906 -0.00472988 0
-0.159543 0.0108828 0
-0.136119 -0.000916691 0
-0.0548584 0.00691698 0
-0.0469835 0.00295313 0
0.0511912 0.00277601 0
0.0433093 0.00676174 0
0.155995 -0.00145743 0
0.132537 0.0103962 0
0.256971 -0.0057019 0
0.218497 0.0137477 0
0.351632 -0.00988971 0
0.299058 0.016711 0
0.437646 -0.0139876 0
0.372202 0.0191766 0
0.512944 -0.018051 0
0.436088 0.0210142 0
0.575676 -0.0216032 0
0.489685 0.0220221 0
0.622368 -0.0243752 0
0.529554 0.022549 0
0.647041 -0.0258901 0
0.550079 0.0227691 0
0.68669 -0.0258427 0
0.588037 0.0231465 0
-0.536194 0.0210503 0
-0.456299 -0.0191469 0
-0.506468 0.0166028 0
-0.432953 -0.0182382 0
-0.490093 0.0143211 0
-0.417839 -0.0212083 0
-0.453655 0.0120334 0
-0.386626 -0.0211086 0
-0.405105 0.00962079 0
-0.345109 -0.0201543 0
-0.346172 0.00688975 0
-0.294939 -0.0185339 0
-0.278858 0.00401395 0
-0.237541 -0.0165391 0
-0.204737 0.00106929 0
-0.174346 -0.0141132 0
-0.125593 -0.00188051 0
-0.106882 -0.0113112 0
-0.0433583 -0.00477489 0
-0.0367964 -0.0082113 0
0.0399474 -0.00755463 0
0.0341909 -0.00490213 0
0.122273 -0.0101633 0
0.104332 -0.00147733 0
0.201587 -0.0125485 0
0.171895 0.00196672 0
0.275919 -0.0146584 0
0.235206 0.00533355 0
0.343407 -0.0164276 0
0.292691 0.00853359 0
0.402348 -0.0177908 0
0.342903 0.0115017 0
0.451831 -0.0188513 0
0.384985 0.0141874 0
0.488522 -0.017819 0
0.417684 0.0163879 0
0.506863 -0.0158078 0
0.432667 0.0198204 0
0.543642 -0.020573 0
0.460176 0.0233201 0
-0.420712 0.016154 0
-0.357428 -0.0153442 0
-0.398257 0.013881 0
-0.338085 -0.0153096 0
-0.384874 0.0119928 0
-0.327045 -0.0164116 0
-0.356193 0.0105586 0
-0.302095 -0.0163923 0
-0.317953 0.00892735 0
-0.269594 -0.0152244 0
-0.271725 0.00701345 0
-0.230418 -0.0136223 0
-0.218841 0.00490253 0
-0.18556 -0.0117492 0
-0.16062 0.00267617 0
-0.136152 -0.00961241 0
-0.0984652 0.000392943 0
-0.0834074 -0.00723505 0
-0.0338943 -0.00189563 0
-0.0286185 -0.00467198 0
0.0315083 -0.00414032 0
0.0268684 -0.00199115 0
0.0961326 -0.00629312 0
0.0816872 0.000734262 0
0.158383 -0.00830623 0
0.134486 0.00342991 0
0.216715 -0.0101272 0
0.18396 0.00602433 0
0.269678 -0.011694 0
0.228892 0.00845676 0
0.315936 -0.0129244 0
0.268168 0.0106848 0
0.354727 -0.0140775 0
0.300864 0.012698 0
0.38488 -0.0146858 0
0.326685 0.0141581 0
0.398118 -0.0130835 0
0.338668 0.0154708 0
0.424718 -0.0164571 0
0.358319 0.0182558 0
-0.32885 0.0140899 0
-0.276761 -0.012383 0
-0.310214 0.0115518 0
-0.26242 -0.011269 0
-0.300561 0.0104008 0
-0.253571 -0.0128677 0
-0.277647 0.00928883 0
-0.23399 -0.0124819 0
-0.24778 0.00796086 0
-0.20881 -0.0114954 0
-0.211773 0.00641391 0
-0.178479 -0.0102156 0
-0.170542 0.00469532 0
-0.143733 -0.0087088 0
-0.12513 0.00285955 0
-0.10545 -0.00700267 0
-0.07665 0.000955982 0
-0.0645784 -0.00512696 0
-0.0262915 -0.000969928 0
-0.0221237 -0.00312365 0
0.0247091 -0.00287443 0
0.0208695 -0.00104352 0
0.0750963 -0.00471451 0
0.0633425 0.00105851 0
0.123627 -0.006447 0
0.104249 0.0031269 0
0.169102 -0.00802796 0
0.14258 0.00510865 0
0.210402 -0.00941353 0
0.177395 0.00695647 0
0.246501 -0.0105538 0
0.20784 0.00863008 0
0.276553 -0.0114166 0
0.233193 0.0101046 0
0.300329 -0.0122935 0
0.253025 0.0113481 0
0.310913 -0.0114332 0
0.262558 0.012018 0
0.329843 -0.0132465 0
0.277231 0.0138273 0
-0.253628 0.0112177 0
-0.211463 -0.0100987 0
-0.239858 0.00947964 0
-0.200631 -0.00942107 0
-0.232129 0.00861956 0
-0.193805 -0.0103954 0
-0.214196 0.00759371 0
-0.178782 -0.0100055 0
-0.191149 0.00642309 0
-0.159519 -0.00932285 0
-0.163386 0.00510847 0
-0.136343 -0.00837018 0
-0.131577 0.00366969 0
-0.109797 -0.00719851 0
-0.096529 0.00214136 0
-0.0805479 -0.00584918 0
-0.0591109 0.000561467 0
-0.049319 -0.0043561 0
-0.0202432 -0.00103207 0
-0.0168805 -0.00275569 0
0.0191177 -0.00260201 0
0.0159685 -0.00108831 0
0.0580028 -0.00411177 0
0.0484193 0.000603015 0
0.0954535 -0.00552533 0
0.0796724 0.00227464 0
0.130547 -0.00680764 0
0.108959 0.00388432 0
0.162421 -0.00792737 0
0.135558 0.00539285 0
0.190294 -0.00885918 0
0.158817 0.00676308 0
0.213507 -0.00959104 0
0.17818 0.00795932 0
0.231684 -0.0101787 0
0.193303 0.00894126 0
0.240087 -0.00966668 0
0.200538 0.00961132 0
0.25418 -0.0107602 0
0.211741 0.0108938 0
-0.192512 0.0092455 0
-0.157684 -0.00836527 0
-0.182146 0.00790167 0
-0.149659 -0.00779849 0
-0.176238 0.00721515 0
-0.144564 -0.00851182 0
-0.162566 0.00634767 0
-0.133338 -0.00816585 0
-0.145051 0.00535508 0
-0.118954 -0.00762201 0
-0.123979 0.00425095 0
-0.101664 -0.00686045 0
-0.09984 0.00305018 0
-0.0818674 -0.00591058 0
-0.0732419 0.00177791 0
-0.0600564 -0.0048081 0
-0.044843 0.000463571 0
-0.0367693 -0.00358456 0
-0.0153437 -0.000861894 0
-0.0125803 -0.00227194 0
0.0145292 -0.00216732 0
0.0119146 -0.000903979 0
0.0440401 -0.00342194 0
0.0361122 0.00048422 0
0.0724622 -0.0045959 0
0.0594166 0.00185715 0
0.0990955 -0.00566101 0
0.0812541 0.00318006 0
0.123286 -0.00659226 0
0.101088 0.00441977 0
0.144437 -0.00736975 0
0.118427 0.00554472 0
0.162048 -0.00798487 0
0.132855 0.00652436 0
0.175816 -0.00846937 0
0.144113 0.00732397 0
0.182126 -0.00799835 0
0.149509 0.00787716 0
0.192856 -0.00886135 0
0.157845 0.00898343 0
-0.141881 0.00782697 0
-0.11244 -0.00708798 0
-0.134245 0.00671046 0
-0.106821 -0.00655141 0
-0.129915 0.00614058 0
-0.103184 -0.00713567 0
-0.119817 0.00540455 0
-0.0951637 -0.00683399 0
-0.106891 0.00455609 0
-0.084887 -0.00637885 0
-0.0913561 0.00361156 0
-0.0725455 -0.00574682 0
-0.0735672 0.00258648 0
-0.0584195 -0.00495788 0
-0.0539675 0.00150215 0
-0.0428583 -0.00403922 0
-0.0330409 0.000382958 0
-0.0262444 -0.00301743 0
-0.0113034 -0.00074506 0
-0.00898695 -0.00191995 0
0.0107094 -0.00185539 0
0.00848889 -0.000775338 0
0.0324553 -0.00292179 0
0.0257528 0.00038701 0
0.0533988 -0.00391891 0
0.0423796 0.00153743 0
0.0730241 -0.00482314 0
0.0579598 0.00264675 0
0.0908487 -0.00561354 0
0.0721097 0.00368683 0
0.106431 -0.00627161 0
0.0844784 0.00463081 0
0.119398 -0.00678841 0
0.0947659 0.00545464 0
0.129527 -0.00718574 0
0.102788 0.00613073 0
0.134153 -0.0067616 0
0.106657 0.00660801 0
0.142095 -0.00744594 0
0.112598 0.00756728 0
-0.0989243 0.00681849 0
-0.0732833 -0.00619723 0
-0.0936382 0.00585263 0
-0.0697971 -0.00567821 0
-0.0906572 0.00537058 0
-0.0674117 -0.0061805 0
-0.0836006 0.0047368 0
-0.0621693 -0.00590415 0
-0.0745721 0.00399667 0
-0.055452 -0.00550199 0
-0.0637322 0.00316889 0
-0.0473927 -0.00495466 0
-0.0513243 0.002269 0
-0.0381714 -0.00427508 0
-0.037655 0.0013169 0
-0.0280137 -0.0034849 0
-0.0230606 0.000334373 0
-0.0171687 -0.00260588 0
-0.00790036 -0.000655651 0
-0.00590294 -0.00166131 0
0.00745222 -0.00162984 0
0.00550616 -0.00067572 0
0.022619 -0.00256509 0
0.0167777 0.000325599 0
0.0372264 -0.00343912 0
0.0276339 0.00131716 0
0.0509146 -0.00423106 0
0.0378075 0.00227385 0
0.0633464 -0.0049222 0
0.0470475 0.00317154 0
0.0742131 -0.00549548 0
0.0551243 0.00398741 0
0.0832515 -0.0059383 0
0.0618417 0.00470154 0
0.0903078 -0.00628871 0
0.0670558 0.00529477 0
0.0935197 -0.00588472 0
0.0696515 0.00570386 0
0.0991247 -0.00643636 0
0.0735257 0.00657238 0
-0.0613172 0.00582807 0
-0.0384319 -0.00564419 0
-0.0581271 0.00507418 0
-0.0364585 -0.00546686 0
-0.0563231 0.00462328 0
-0.0353282 -0.00580077 0
-0.0519349 0.00403808 0
-0.0325768 -0.00556563 0
-0.0463234 0.0033509 0
-0.029061 -0.00521381 0
-0.0395942 0.0025837 0
-0.0248469 -0.00473642 0
-0.0318947 0.00175561 0
-0.0200245 -0.00414026 0
-0.0234127 0.000886618 0
-0.0147115 -0.00343989 0
-0.0143561 -2.66449e-06 0
-0.00903788 -0.002653 0
-0.0049475 -0.000891196 0
-0.00314289 -0.0017998 0
0.00458154 -0.0017579 0
0.00282835 -0.000902139 0
0.0139963 -0.00258214 0
0.00872882 1.70843e-05 0
0.0230648 -0.00334416 0
0.0144132 0.000934575 0
0.0315636 -0.00402553 0
0.0197413 0.00182725 0
0.0392828 -0.00460945 0
0.0245818 0.00267287 0
0.0460304 -0.00508103 0
0.0288137 0.00345068 0
0.0516426 -0.00543068 0
0.0323325 0.00414214 0
0.056003 -0.00565951 0
0.0350659 0.00472818 0
0.0580174 -0.00531848 0
0.0364121 0.00518502 0
0.0615942 -0.00577757 0
0.0384887 0.00594483 0
-0.0273643 0.00575036 0
-0.00539686 -0.00539686 0
-0.0256665 0.00487637 0
-0.00528374 -0.00495677 0
-0.0250748 0.004577 0
-0.00504282 -0.00543235 0
-0.0231141 0.00410798 0
-0.00467738 -0.00508022 0
-0.0206219 0.00351903 0
-0.00419663 -0.00465974 0
-0.0176391 0.0028414 0
-0.00361262 -0.00414344 0
-0.0142251 0.0020942 0
-0.0029398 -0.00352741 0
-0.0104628 0.00129675 0
-0.00219481 -0.00282452 0
-0.00644399 0.000468556 0
-0.00139601 -0.00205122 0
-0.00226717 -0.000370561 0
-0.000563089 -0.00122673 0
0.00196487 -0.00120059 0
0.000283443 -0.000371935 0
0.0061479 -0.0020017 0
0.00112275 0.000491485 0
0.0101788 -0.00275455 0
0.0019342 0.00134171 0
0.0139582 -0.00344071 0
0.00269781 0.00215743 0
0.0173926 -0.00404288 0
0.00339483 0.00291855 0
0.0203957 -0.00454384 0
0.00400813 0.00360678 0
0.0228933 -0.00492842 0
0.00452263 0.00420764 0
0.0248381 -0.00519828 0
0.00492578 0.00470932 0
0.0256472 -0.00482321 0
0.00520748 0.00508811 0
0.0274498 -0.00543334 0
0.00536182 0.00585949 0
