# vtk DataFile Version 3.0
tp3485 scalar+vector
ASCII
DATASET UNSTRUCTURED_GRID
POINTS 231 double
0 0 0
0.1 0 0
0.2 0 0
0.3 0 0
0.4 0 0
0.5 0 0
0.6 0 0
0.7 0 0
0.8 0 0
0.9 0 0
1 0 0
0 0.025 0
0.1 0.025 0
0.2 0.025 0
0.3 0.025 0
0.4 0.025 0
0.5 0.025 0
0.6 0.025 0
0.7 0.025 0
0.8 0.025 0
0.9 0.025 0
1 0.025 0
0 0.05 0
0.1 0.05 0
0.2 0.05 0
0.3 0.05 0
0.4 0.05 0
0.5 0.05 0
0.6 0.05 0
0.7 0.05 0
0.8 0.05 0
0.9 0.05 0
1 0.05 0
0 0.075 0
0.1 0.075 0
0.2 0.075 0
0.3 0.075 0
0.4 0.075 0
0.5 0.075 0
0.6 0.075 0
0.7 0.075 0
0.8 0.075 0
0.9 0.075 0
1 0.075 0
0 0.1 0
0.1 0.1 0
0.2 0.1 0
0.3 0.1 0
0.4 0.1 0
0.5 0.1 0
0.6 0.1 0
0.7 0.1 0
0.8 0.1 0
0.9 0.1 0
1 0.1 0
0 0.125 0
0.1 0.125 0
0.2 0.125 0
0.3 0.125 0
0.4 0.125 0
0.5 0.125 0
0.6 0.125 0
0.7 0.125 0
0.8 0.125 0
0.9 0.125 0
1 0.125 0
0 0.15 0
0.1 0.15 0
0.2 0.15 0
0.3 0.15 0
0.4 0.15 0
0.5 0.15 0
0.6 0.15 0
0.7 0.15 0
0.8 0.15 0
0.9 0.15 0
1 0.15 0
0 0.175 0
0.1 0.175 0
0.2 0.175 0
0.3 0.175 0
0.4 0.175 0
0.5 0.175 0
0.6 0.175 0
0.7 0.175 0
0.8 0.175 0
0.9 0.175 0
1 0.175 0
0 0.2 0
0.1 0.2 0
0.2 0.2 0
0.3 0.2 0
0.4 0.2 0
0.5 0.2 0
0.6 0.2 0
0.7 0.2 0
0.8 0.2 0
0.9 0.2 0
1 0.2 0
0 0.225 0
0.1 0.225 0
0.2 0.225 0
0.3 0.225 0
0.4 0.225 0
0.5 0.225 0
0.6 0.225 0
0.7 0.225 0
0.8 0.225 0
0.9 0.225 0
1 0.225 0
0 0.25 0
0.1 0.25 0
0.2 0.25 0
0.3 0.25 0
0.4 0.25 0
0.5 0.25 0
0.6 0.25 0
0.7 0.25 0
0.8 0.25 0
0.9 0.25 0
1 0.25 0
0 0.275 0
0.1 0.275 0
0.2 0.275 0
0.3 0.275 0
0.4 0.275 0
0.5 0.275 0
0.6 0.275 0
0.7 0.275 0
0.8 0.275 0
0.9 0.275 0
1 0.275 0
0 0.3 0
0.1 0.3 0
0.2 0.3 0
0.3 0.3 0
0.4 0.3 0
0.5 0.3 0
0.6 0.3 0
0.7 0.3 0
0.8 0.3 0
0.9 0.3 0
1 0.3 0
0 0.325 0
0.1 0.325 0
0.2 0.325 0
0.3 0.325 0
0.4 0.325 0
0.5 0.325 0
0.6 0.325 0
0.7 0.325 0
0.8 0.325 0
0.9 0.325 0
1 0.325 0
0 0.35 0
0.1 0.35 0
0.2 0.35 0
0.3 0.35 0
0.4 0.35 0
0.5 0.35 0
0.6 0.35 0
0.7 0.35 0
0.8 0.35 0
0.9 0.35 0
1 0.35 0
0 0.375 0
0.1 0.375 0
0.2 0.375 0
0.3 0.375 0
0.4 0.375 0
0.5 0.375 0
0.6 0.375 0
0.7 0.375 0
0.8 0.375 0
0.9 0.375 0
1 0.375 0
0 0.4 0
0.1 0.4 0
0.2 0.4 0
0.3 0.4 0
0.4 0.4 0
0.5 0.4 0
0.6 0.4 0
0.7 0.4 0
0.8 0.4 0
0.9 0.4 0
1 0.4 0
0 0.425 0
0.1 0.425 0
0.2 0.425 0
0.3 0.425 0
0.4 0.425 0
0.5 0.425 0
0.6 0.425 0
0.7 0.425 0
0.8 0.425 0
0.9 0.425 0
1 0.425 0
0 0.45 0
0.1 0.45 0
0.2 0.45 0
0.3 0.45 0
0.4 0.45 0
0.5 0.45 0
0.6 0.45 0
0.7 0.45 0
0.8 0.45 0
0.9 0.45 0
1 0.45 0
0 0.475 0
0.1 0.475 0
0.2 0.475 0
0.3 0.475 0
0.4 0.475 0
0.5 0.475 0
0.6 0.475 0
0.7 0.475 0
0.8 0.475 0
0.9 0.475 0
1 0.475 0
0 0.5 0
0.1 0.5 0
0.2 0.5 0
0.3 0.5 0
0.4 0.5 0
0.5 0.5 0
0.6 0.5 0
0.7 0.5 0
0.8 0.5 0
0.9 0.5 0
1 0.5 0
CELLS 400 1600
3 0 1 12
3 0 12 11
3 1 2 13
3 1 13 12
3 2 3 14
3 2 14 13
3 3 4 15
3 3 15 14
3 4 5 16
3 4 16 15
3 5 6 17
3 5 17 16
3 6 7 18
3 6 18 17
3 7 8 19
3 7 19 18
3 8 9 20
3 8 20 19
3 9 10 21
3 9 21 20
3 11 12 23
3 11 23 22
3 12 13 24
3 12 24 23
3 13 14 25
3 13 25 24
3 14 15 26
3 14 26 25
3 15 16 27
3 15 27 26
3 16 17 28
3 16 28 27
3 17 18 29
3 17 29 28
3 18 19 30
3 18 30 29
3 19 20 31
3 19 31 30
3 20 21 32
3 20 32 31
3 22 23 34
3 22 34 33
3 23 24 35
3 23 35 34
3 24 25 36
3 24 36 35
3 25 26 37
3 25 37 36
3 26 27 38
3 26 38 37
3 27 28 39
3 27 39 38
3 28 29 40
3 28 40 39
3 29 30 41
3 29 41 40
3 30 31 42
3 30 42 41
3 31 32 43
3 31 43 42
3 33 34 45
3 33 45 44
3 34 35 46
3 34 46 45
3 35 36 47
3 35 47 46
3 36 37 48
3 36 48 47
3 37 38 49
3 37 49 48
3 38 39 50
3 38 50 49
3 39 40 51
3 39 51 50
3 40 41 52
3 40 52 51
3 41 42 53
3 41 53 52
3 42 43 54
3 42 54 53
3 44 45 56
3 44 56 55
3 45 46 57
3 45 57 56
3 46 47 58
3 46 58 57
3 47 48 59
3 47 59 58
3 48 49 60
3 48 60 59
3 49 50 61
3 49 61 60
3 50 51 62
3 50 62 61
3 51 52 63
3 51 63 62
3 52 53 64
3 52 64 63
3 53 54 65
3 53 65 64
3 55 56 67
3 55 67 66
3 56 57 68
3 56 68 67
3 57 58 69
3 57 69 68
3 58 59 70
3 58 70 69
3 59 60 71
3 59 71 70
3 60 61 72
3 60 72 71
3 61 62 73
3 61 73 72
3 62 63 74
3 62 74 73
3 63 64 75
3 63 75 74
3 64 65 76
3 64 76 75
3 66 67 78
3 66 78 77
3 67 68 79
3 67 79 78
3 68 69 80
3 68 80 79
3 69 70 81
3 69 81 80
3 70 71 82
3 70 82 81
3 71 72 83
3 71 83 82
3 72 73 84
3 72 84 83
3 73 74 85
3 73 85 84
3 74 75 86
3 74 86 85
3 75 76 87
3 75 87 86
3 77 78 89
3 77 89 88
3 78 79 90
3 78 90 89
3 79 80 91
3 79 91 90
3 80 81 92
3 80 92 91
3 81 82 93
3 81 93 92
3 82 83 94
3 82 94 93
3 83 84 95
3 83 95 94
3 84 85 96
3 84 96 95
3 85 86 97
3 85 97 96
3 86 87 98
3 86 98 97
3 88 89 100
3 88 100 99
3 89 90 101
3 89 101 100
3 90 91 102
3 90 102 101
3 91 92 103
3 91 103 102
3 92 93 104
3 92 104 103
3 93 94 105
3 93 105 104
3 94 95 106
3 94 106 105
3 95 96 107
3 95 107 106
3 96 97 108
3 96 108 107
3 97 98 109
3 97 109 108
3 99 100 111
3 99 111 110
3 100 101 112
3 100 112 111
3 101 102 113
3 101 113 112
3 102 103 114
3 102 114 113
3 103 104 115
3 103 115 114
3 104 105 116
3 104 116 115
3 105 106 117
3 105 117 116
3 106 107 118
3 106 118 117
3 107 108 119
3 107 119 118
3 108 109 120
3 108 120 119
3 110 111 122
3 110 122 121
3 111 112 123
3 111 123 122
3 112 113 124
3 112 124 123
3 113 114 125
3 113 125 124
3 114 115 126
3 114 126 125
3 115 116 127
3 115 127 126
3 116 117 128
3 116 128 127
3 117 118 129
3 117 129 128
3 118 119 130
3 118 130 129
3 119 120 131
3 119 131 130
3 121 122 133
3 121 133 132
3 122 123 134
3 122 134 133
3 123 124 135
3 123 135 134
3 124 125 136
3 124 136 135
3 125 126 137
3 125 137 136
3 126 127 138
3 126 138 137
3 127 128 139
3 127 139 138
3 128 129 140
3 128 140 139
3 129 130 141
3 129 141 140
3 130 131 142
3 130 142 141
3 132 133 144
3 132 144 143
3 133 134 145
3 133 145 144
3 134 135 146
3 134 146 145
3 135 136 147
3 135 147 146
3 136 137 148
3 136 148 147
3 137 138 149
3 137 149 148
3 138 139 150
3 138 150 149
3 139 140 151
3 139 151 150
3 140 141 152
3 140 152 151
3 141 142 153
3 141 153 152
3 143 144 155
3 143 155 154
3 144 145 156
3 144 156 155
3 145 146 157
3 145 157 156
3 146 147 158
3 146 158 157
3 147 148 159
3 147 159 158
3 148 149 160
3 148 160 159
3 149 150 161
3 149 161 160
3 150 151 162
3 150 162 161
3 151 152 163
3 151 163 162
3 152 153 164
3 152 164 163
3 154 155 166
3 154 166 165
3 155 156 167
3 155 167 166
3 156 157 168
3 156 168 167
3 157 158 169
3 157 169 168
3 158 159 170
3 158 170 169
3 159 160 171
3 159 171 170
3 160 161 172
3 160 172 171
3 161 162 173
3 161 173 172
3 162 163 174
3 162 174 173
3 163 164 175
3 163 175 174
3 165 166 177
3 165 177 176
3 166 167 178
3 166 178 177
3 167 168 179
3 167 179 178
3 168 169 180
3 168 180 179
3 169 170 181
3 169 181 180
3 170 171 182
3 170 182 181
3 171 172 183
3 171 183 182
3 172 173 184
3 172 184 183
3 173 174 185
3 173 185 184
3 174 175 186
3 174 186 185
3 176 177 188
3 176 188 187
3 177 178 189
3 177 189 188
3 178 179 190
3 178 190 189
3 179 180 191
3 179 191 190
3 180 181 192
3 180 192 191
3 181 182 193
3 181 193 192
3 182 183 194
3 182 194 193
3 183 184 195
3 183 195 194
3 184 185 196
3 184 196 195
3 185 186 197
3 185 197 196
3 187 188 199
3 187 199 198
3 188 189 200
3 188 200 199
3 189 190 201
3 189 201 200
3 190 191 202
3 190 202 201
3 191 192 203
3 191 203 202
3 192 193 204
3 192 204 203
3 193 194 205
3 193 205 204
3 194 195 206
3 194 206 205
3 195 196 207
3 195 207 206
3 196 197 208
3 196 208 207
3 198 199 210
3 198 210 209
3 199 200 211
3 199 211 210
3 200 201 212
3 200 212 211
3 201 202 213
3 201 213 212
3 202 203 214
3 202 214 213
3 203 204 215
3 203 215 214
3 204 205 216
3 204 216 215
3 205 206 217
3 205 217 216
3 206 207 218
3 206 218 217
3 207 208 219
3 207 219 218
3 209 210 221
3 209 221 220
3 210 211 222
3 210 222 221
3 211 212 223
3 211 223 222
3 212 213 224
3 212 224 223
3 213 214 225
3 213 225 224
3 214 215 226
3 214 226 225
3 215 216 227
3 215 227 226
3 216 217 228
3 216 228 227
3 217 218 229
3 217 229 228
3 218 219 230
3 218 230 229
CELL_TYPES 400
5
5
5
5
5
5
5
5
5
5
5
5
5
5
5
5
5
5
5
5
5
5
5
5
5
5
5
5
5
5
5
5
5
5
5
5
5
5
5
5
5
5
5
5
5
5
5
5
5
5
5
5
5
5
5
5
5
5
5
5
5
5
5
5
5
5
5
5
5
5
5
5
5
5
5
5
5
5
5
5
5
5
5
5
5
5
5
5
5
5
5
5
5
5
5
5
5
5
5
5
5
5
5
5
5
5
5
5
5
5
5
5
5
5
5
5
5
5
5
5
5
5
5
5
5
5
5
5
5
5
5
5
5
5
5
5
5
5
5
5
5
5
5
5
5
5
5
5
5
5
5
5
5
5
5
5
5
5
5
5
5
5
5
5
5
5
5
5
5
5
5
5
5
5
5
5
5
5
5
5
5
5
5
5
5
5
5
5
5
5
5
5
5
5
5
5
5
5
5
5
5
5
5
5
5
5
5
5
5
5
5
5
5
5
5
5
5
5
5
5
5
5
5
5
5
5
5
5
5
5
5
5
5
5
5
5
5
5
5
5
5
5
5
5
5
5
5
5
5
5
5
5
5
5
5
5
5
5
5
5
5
5
5
5
5
5
5
5
5
5
5
5
5
5
5
5
5
5
5
5
5
5
5
5
5
5
5
5
5
5
5
5
5
5
5
5
5
5
5
5
5
5
5
5
5
5
5
5
5
5
5
5
5
5
5
5
5
5
5
5
5
5
5
5
5
5
5
5
5
5
5
5
5
5
5
5
5
5
5
5
5
5
5
5
5
5
5
5
5
5
5
5
5
5
5
5
5
5
5
5
5
5
5
5
5
5
5
5
5
5
5
5
5
5
5
5
5
5
5
5
5
5
5
5
5
5
5
5
5
5
5
5
5
5
5
5
5
5
5
5
POINT_DATA 231
SCALARS psi double 1
LOOKUP_TABLE default
1
0.949578
0.807869
0.586842
0.308387
-0.000226826
-0.308806
-0.587144
-0.807995
-0.949641
-0.996881
0.996043
0.947425
0.80625
0.586021
0.308377
0.000572453
-0.307276
-0.585033
-0.80554
-0.947187
-0.995535
0.993814
0.945686
0.804651
0.584788
0.30761
0.000342254
-0.306947
-0.58418
-0.80426
-0.945634
-0.994055
0.992335
0.944282
0.803333
0.583769
0.30699
0.00017679
-0.306644
-0.583441
-0.803157
-0.944266
-0.992619
0.991446
0.943368
0.802463
0.583093
0.306588
8.04296e-05
-0.306427
-0.582934
-0.802403
-0.943313
-0.991607
0.991016
0.942891
0.802009
0.582727
0.306368
2.12349e-05
-0.306321
-0.582675
-0.802006
-0.942805
-0.991059
0.990882
0.942705
0.801838
0.58258
0.306275
-1.02526e-05
-0.30629
-0.582586
-0.801858
-0.942612
-0.990858
0.99089
0.942673
0.801819
0.582558
0.306262
-1.47824e-05
-0.306287
-0.582576
-0.801836
-0.942589
-0.990836
0.990921
0.94268
0.801837
0.58257
0.306271
-1.0409e-05
-0.306289
-0.582583
-0.801846
-0.942618
-0.990866
0.990931
0.942682
0.801853
0.582582
0.30628
-5.05426e-06
-0.306289
-0.582589
-0.801856
-0.94265
-0.990899
0.990923
0.942672
0.801859
0.582589
0.306286
-5.4031e-12
-0.306286
-0.582589
-0.801859
-0.942672
-0.990923
0.990899
0.94265
0.801856
0.582589
0.306289
5.05425e-06
-0.30628
-0.582582
-0.801853
-0.942682
-0.990931
0.990866
0.942618
0.801846
0.582583
0.306289
1.0409e-05
-0.306271
-0.58257
-0.801837
-0.94268
-0.990921
0.990836
0.942589
0.801836
0.582576
0.306287
1.47824e-05
-0.306262
-0.582558
-0.801819
-0.942673
-0.99089
0.990858
0.942612
0.801858
0.582586
0.30629
1.02526e-05
-0.306275
-0.58258
-0.801838
-0.942705
-0.990882
0.991059
0.942805
0.802006
0.582675
0.306321
-2.12349e-05
-0.306368
-0.582727
-0.802009
-0.942891
-0.991016
0.991607
0.943313
0.802403
0.582934
0.306427
-8.04297e-05
-0.306588
-0.583093
-0.802463
-0.943368
-0.991446
0.992619
0.944266
0.803157
0.583441
0.306644
-0.00017679
-0.30699
-0.583769
-0.803333
-0.944282
-0.992335
0.994055
0.945634
0.80426
0.58418
0.306947
-0.000342254
-0.30761
-0.584788
-0.804651
-0.945686
-0.993814
0.995535
0.947187
0.80554
0.585033
0.307276
-0.000572453
-0.308377
-0.586021
-0.80625
-0.947425
-0.996043
0.996881
0.949641
0.807995
0.587144
0.308806
0.000226826
-0.308387
-0.586842
-0.807869
-0.949578
-1
VECTORS Et double
0.0356546 -0.159637 0
0.0701993 -0.303088 0
0.0590659 -0.587362 0
0.0411902 -0.808872 0
0.0196824 -0.950985 0
-0.00365373 -0.99993 0
-0.0266295 -0.951013 0
-0.0469593 -0.809043 0
-0.062501 -0.587846 0
-0.0714212 -0.320654 0
-0.0175522 -0.156158 0
0.0273029 -0.155524 0
0.0501567 -0.303938 0
0.0439476 -0.586954 0
0.0318436 -0.808256 0
0.016738 -0.950281 0
8.38822e-05 -0.999198 0
-0.0165621 -0.950322 0
-0.031552 -0.808466 0
-0.0433769 -0.58745 0
-0.0528613 -0.317483 0
-0.0170088 -0.156423 0
0.0202341 -0.154319 0
0.0317433 -0.304721 0
0.0289013 -0.586537 0
0.0213358 -0.807605 0
0.011644 -0.949526 0
0.000890205 -0.998406 0
-0.00993336 -0.949569 0
-0.0197402 -0.807827 0
-0.027588 -0.586996 0
-0.0357799 -0.314829 0
-0.0153182 -0.155938 0
0.0147863 -0.153654 0
0.0179892 -0.305296 0
0.0172113 -0.586137 0
0.0129043 -0.80696 0
0.00722159 -0.948762 0
0.000893363 -0.997601 0
-0.00549879 -0.948797 0
-0.0113304 -0.807169 0
-0.01607 -0.586514 0
-0.0223042 -0.312621 0
-0.0126156 -0.154913 0
0.010272 -0.153691 0
0.00934066 -0.305673 0
0.00965458 -0.585778 0
0.00738901 -0.806359 0
0.00426462 -0.948046 0
0.000759615 -0.99685 0
-0.00279476 -0.948067 0
-0.00604747 -0.806531 0
-0.00880368 -0.586034 0
-0.0128095 -0.310353 0
-0.00918916 -0.154467 0
0.00654496 -0.154389 0
0.00500985 -0.306079 0
0.00559446 -0.585477 0
0.00437489 -0.805849 0
0.00259975 -0.947428 0
0.00058884 -0.996184 0
-0.00145154 -0.947434 0
-0.00334104 -0.805979 0
-0.00497924 -0.585611 0
-0.00667972 -0.308041 0
-0.00585983 -0.154751 0
0.00362229 -0.155328 0
0.00314318 -0.306917 0
0.00314972 -0.585285 0
0.00250807 -0.805514 0
0.0015074 -0.946993 0
0.000380591 -0.995733 0
-0.000762614 -0.946988 0
-0.00183325 -0.805593 0
-0.00274895 -0.585297 0
-0.00346994 -0.307265 0
-0.00335465 -0.155494 0
0.00153808 -0.156121 0
0.00161989 -0.307173 0
0.00145055 -0.58518 0
0.00117344 -0.805331 0
0.000707418 -0.946767 0
0.000182399 -0.995485 0
-0.000346575 -0.946747 0
-0.000846549 -0.805362 0
-0.00124212 -0.585132 0
-0.00147659 -0.307188 0
-0.00158494 -0.156118 0
0.000520424 -0.156594 0
0.000687247 -0.307187 0
0.00054796 -0.585127 0
0.000438712 -0.805253 0
0.000256549 -0.94666 0
4.72742e-05 -0.995355 0
-0.000150398 -0.94664 0
-0.000364997 -0.805249 0
-0.000451832 -0.585025 0
-0.000378966 -0.307169 0
-0.000239901 -0.156567 0
0.000212731 -0.156795 0
0.000297722 -0.307188 0
0.000156243 -0.585094 0
0.000107888 -0.805212 0
5.54495e-05 -0.946628 0
-1.66903e-05 -0.99533 0
-5.79569e-05 -0.946599 0
-7.53661e-05 -0.805186 0
-0.000132401 -0.585074 0
-1.34976e-05 -0.307144 0
-5.34013e-06 -0.156781 0
0.000113308 -0.156837 0
0.000144814 -0.307175 0
-4.83474e-06 -0.585061 0
-1.89658e-05 -0.805218 0
-2.52716e-05 -0.946592 0
-3.50892e-05 -0.995307 0
-2.52719e-05 -0.946608 0
-3.33095e-05 -0.805211 0
2.6561e-05 -0.585081 0
0.000221497 -0.307189 0
0.000113383 -0.156841 0
-4.47108e-05 -0.156769 0
-2.8793e-05 -0.307167 0
-0.000151669 -0.585047 0
-0.000120993 -0.805227 0
-6.48031e-05 -0.946628 0
-1.66903e-05 -0.995307 0
4.58607e-05 -0.946644 0
0.00011832 -0.805223 0
0.000182697 -0.585095 0
0.000288734 -0.30716 0
0.00037072 -0.156807 0
-0.000516282 -0.156563 0
-0.000489702 -0.307166 0
-0.000494003 -0.585067 0
-0.000340252 -0.805261 0
-0.000150402 -0.946653 0
4.72715e-05 -0.99532 0
0.000245613 -0.946693 0
0.000407438 -0.805246 0
0.000634979 -0.585105 0
0.000754907 -0.307144 0
0.000599452 -0.156515 0
-0.00157642 -0.156134 0
-0.00151035 -0.307193 0
-0.00128113 -0.585129 0
-0.000842633 -0.805365 0
-0.000342464 -0.946714 0
0.000182401 -0.995499 0
0.000707428 -0.946783 0
0.00116824 -0.80537 0
0.00153682 -0.585096 0
0.00167179 -0.307182 0
0.00174574 -0.156133 0
-0.00330777 -0.155465 0
-0.00339458 -0.307287 0
-0.00276606 -0.585313 0
-0.00183454 -0.805577 0
-0.000761262 -0.947018 0
0.0003806 -0.995755 0
0.00149993 -0.947031 0
0.0024678 -0.805562 0
0.00318206 -0.585289 0
0.00306985 -0.306872 0
0.00379589 -0.155221 0
-0.00587842 -0.154758 0
-0.00667312 -0.308045 0
-0.00496734 -0.585615 0
-0.00335431 -0.805973 0
-0.00146623 -0.947443 0
0.000588852 -0.996204 0
0.00262004 -0.947445 0
0.00430118 -0.805835 0
0.00553086 -0.585435 0
0.00498308 -0.306026 0
0.00677085 -0.154327 0
-0.00914648 -0.154456 0
-0.0128069 -0.310344 0
-0.00877616 -0.586056 0
-0.00605039 -0.806532 0
-0.00277402 -0.948144 0
0.000759602 -0.996833 0
0.00426476 -0.948062 0
0.00741905 -0.806353 0
0.009551 -0.585789 0
0.00935646 -0.305852 0
0.0105335 -0.153633 0
-0.0124903 -0.15492 0
-0.0222935 -0.312625 0
-0.0160743 -0.58651 0
-0.0113179 -0.807157 0
-0.00550555 -0.948776 0
0.000893336 -0.997566 0
0.00722894 -0.948817 0
0.0128838 -0.806925 0
0.0174613 -0.586108 0
0.0177815 -0.305257 0
0.014517 -0.153595 0
-0.0152758 -0.155934 0
-0.0357713 -0.314837 0
-0.0275853 -0.587007 0
-0.019734 -0.807844 0
-0.00992192 -0.949637 0
0.000890172 -0.998378 0
0.0116425 -0.949387 0
0.0213082 -0.80779 0
0.0287849 -0.586702 0
0.0318261 -0.304796 0
0.0192416 -0.154384 0
-0.0169543 -0.156423 0
-0.0528524 -0.317463 0
-0.0433704 -0.58742 0
-0.031577 -0.80856 0
-0.0165423 -0.950324 0
8.39184e-05 -0.999121 0
0.0167113 -0.950501 0
0.0318942 -0.808286 0
0.0440531 -0.587304 0
0.0505889 -0.303767 0
0.0276276 -0.155659 0
-0.0175524 -0.156158 0
-0.0714139 -0.320625 0
-0.0624717 -0.587877 0
-0.0470016 -0.809002 0
-0.0265887 -0.950977 0
-0.00365396 -0.999993 0
0.0196771 -0.950816 0
0.0413574 -0.808572 0
0.058951 -0.587283 0
0.0697465 -0.302943 0
0.0344611 -0.158729 0
