# vtk DataFile Version 3.0
tp3485 scalar+vector
ASCII
DATASET UNSTRUCTURED_GRID
POINTS 231 double
0 0 0
0.1 0 0
0.2 0 0
0.3 0 0
0.4 0 0
0.5 0 0
0.6 0 0
0.7 0 0
0.8 0 0
0.9 0 0
1 0 0
0 0.025 0
0.1 0.025 0
0.2 0.025 0
0.3 0.025 0
0.4 0.025 0
0.5 0.025 0
0.6 0.025 0
0.7 0.025 0
0.8 0.025 0
0.9 0.025 0
1 0.025 0
0 0.05 0
0.1 0.05 0
0.2 0.05 0
0.3 0.05 0
0.4 0.05 0
0.5 0.05 0
0.6 0.05 0
0.7 0.05 0
0.8 0.05 0
0.9 0.05 0
1 0.05 0
0 0.075 0
0.1 0.075 0
0.2 0.075 0
0.3 0.075 0
0.4 0.075 0
0.5 0.075 0
0.6 0.075 0
0.7 0.075 0
0.8 0.075 0
0.9 0.075 0
1 0.075 0
0 0.1 0
0.1 0.1 0
0.2 0.1 0
0.3 0.1 0
0.4 0.1 0
0.5 0.1 0
0.6 0.1 0
0.7 0.1 0
0.8 0.1 0
0.9 0.1 0
1 0.1 0
0 0.125 0
0.1 0.125 0
0.2 0.125 0
0.3 0.125 0
0.4 0.125 0
0.5 0.125 0
0.6 0.125 0
0.7 0.125 0
0.8 0.125 0
0.9 0.125 0
1 0.125 0
0 0.15 0
0.1 0.15 0
0.2 0.15 0
0.3 0.15 0
0.4 0.15 0
0.5 0.15 0
0.6 0.15 0
0.7 0.15 0
0.8 0.15 0
0.9 0.15 0
1 0.15 0
0 0.175 0
0.1 0.175 0
0.2 0.175 0
0.3 0.175 0
0.4 0.175 0
0.5 0.175 0
0.6 0.175 0
0.7 0.175 0
0.8 0.175 0
0.9 0.175 0
1 0.175 0
0 0.2 0
0.1 0.2 0
0.2 0.2 0
0.3 0.2 0
0.4 0.2 0
0.5 0.2 0
0.6 0.2 0
0.7 0.2 0
0.8 0.2 0
0.9 0.2 0
1 0.2 0
0 0.225 0
0.1 0.225 0
0.2 0.225 0
0.3 0.225 0
0.4 0.225 0
0.5 0.225 0
0.6 0.225 0
0.7 0.225 0
0.8 0.225 0
0.9 0.225 0
1 0.225 0
0 0.25 0
0.1 0.25 0
0.2 0.25 0
0.3 0.25 0
0.4 0.25 0
0.5 0.25 0
0.6 0.25 0
0.7 0.25 0
0.8 0.25 0
0.9 0.25 0
1 0.25 0
0 0.275 0
0.1 0.275 0
0.2 0.275 0
0.3 0.275 0
0.4 0.275 0
0.5 0.275 0
0.6 0.275 0
0.7 0.275 0
0.8 0.275 0
0.9 0.275 0
1 0.275 0
0 0.3 0
0.1 0.3 0
0.2 0.3 0
0.3 0.3 0
0.4 0.3 0
0.5 0.3 0
0.6 0.3 0
0.7 0.3 0
0.8 0.3 0
0.9 0.3 0
1 0.3 0
0 0.325 0
0.1 0.325 0
0.2 0.325 0
0.3 0.325 0
0.4 0.325 0
0.5 0.325 0
0.6 0.325 0
0.7 0.325 0
0.8 0.325 0
0.9 0.325 0
1 0.325 0
0 0.35 0
0.1 0.35 0
0.2 0.35 0
0.3 0.35 0
0.4 0.35 0
0.5 0.35 0
0.6 0.35 0
0.7 0.35 0
0.8 0.35 0
0.9 0.35 0
1 0.35 0
0 0.375 0
0.1 0.375 0
0.2 0.375 0
0.3 0.375 0
0.4 0.375 0
0.5 0.375 0
0.6 0.375 0
0.7 0.375 0
0.8 0.375 0
0.9 0.375 0
1 0.375 0
0 0.4 0
0.1 0.4 0
0.2 0.4 0
0.3 0.4 0
0.4 0.4 0
0.5 0.4 0
0.6 0.4 0
0.7 0.4 0
0.8 0.4 0
0.9 0.4 0
1 0.4 0
0 0.425 0
0.1 0.425 0
0.2 0.425 0
0.3 0.425 0
0.4 0.425 0
0.5 0.425 0
0.6 0.425 0
0.7 0.425 0
0.8 0.425 0
0.9 0.425 0
1 0.425 0
0 0.45 0
0.1 0.45 0
0.2 0.45 0
0.3 0.45 0
0.4 0.45 0
0.5 0.45 0
0.6 0.45 0
0.7 0.45 0
0.8 0.45 0
0.9 0.45 0
1 0.45 0
0 0.475 0
0.1 0.475 0
0.2 0.475 0
0.3 0.475 0
0.4 0.475 0
0.5 0.475 0
0.6 0.475 0
0.7 0.475 0
0.8 0.475 0
0.9 0.475 0
1 0.475 0
0 0.5 0
0.1 0.5 0
0.2 0.5 0
0.3 0.5 0
0.4 0.5 0
0.5 0.5 0
0.6 0.5 0
0.7 0.5 0
0.8 0.5 0
0.9 0.5 0
1 0.5 0
CELLS 400 1600
3 0 1 12
3 0 12 11
3 1 2 13
3 1 13 12
3 2 3 14
3 2 14 13
3 3 4 15
3 3 15 14
3 4 5 16
3 4 16 15
3 5 6 17
3 5 17 16
3 6 7 18
3 6 18 17
3 7 8 19
3 7 19 18
3 8 9 20
3 8 20 19
3 9 10 21
3 9 21 20
3 11 12 23
3 11 23 22
3 12 13 24
3 12 24 23
3 13 14 25
3 13 25 24
3 14 15 26
3 14 26 25
3 15 16 27
3 15 27 26
3 16 17 28
3 16 28 27
3 17 18 29
3 17 29 28
3 18 19 30
3 18 30 29
3 19 20 31
3 19 31 30
3 20 21 32
3 20 32 31
3 22 23 34
3 22 34 33
3 23 24 35
3 23 35 34
3 24 25 36
3 24 36 35
3 25 26 37
3 25 37 36
3 26 27 38
3 26 38 37
3 27 28 39
3 27 39 38
3 28 29 40
3 28 40 39
3 29 30 41
3 29 41 40
3 30 31 42
3 30 42 41
3 31 32 43
3 31 43 42
3 33 34 45
3 33 45 44
3 34 35 46
3 34 46 45
3 35 36 47
3 35 47 46
3 36 37 48
3 36 48 47
3 37 38 49
3 37 49 48
3 38 39 50
3 38 50 49
3 39 40 51
3 39 51 50
3 40 41 52
3 40 52 51
3 41 42 53
3 41 53 52
3 42 43 54
3 42 54 53
3 44 45 56
3 44 56 55
3 45 46 57
3 45 57 56
3 46 47 58
3 46 58 57
3 47 48 59
3 47 59 58
3 48 49 60
3 48 60 59
3 49 50 61
3 49 61 60
3 50 51 62
3 50 62 61
3 51 52 63
3 51 63 62
3 52 53 64
3 52 64 63
3 53 54 65
3 53 65 64
3 55 56 67
3 55 67 66
3 56 57 68
3 56 68 67
3 57 58 69
3 57 69 68
3 58 59 70
3 58 70 69
3 59 60 71
3 59 71 70
3 60 61 72
3 60 72 71
3 61 62 73
3 61 73 72
3 62 63 74
3 62 74 73
3 63 64 75
3 63 75 74
3 64 65 76
3 64 76 75
3 66 67 78
3 66 78 77
3 67 68 79
3 67 79 78
3 68 69 80
3 68 80 79
3 69 70 81
3 69 81 80
3 70 71 82
3 70 82 81
3 71 72 83
3 71 83 82
3 72 73 84
3 72 84 83
3 73 74 85
3 73 85 84
3 74 75 86
3 74 86 85
3 75 76 87
3 75 87 86
3 77 78 89
3 77 89 88
3 78 79 90
3 78 90 89
3 79 80 91
3 79 91 90
3 80 81 92
3 80 92 91
3 81 82 93
3 81 93 92
3 82 83 94
3 82 94 93
3 83 84 95
3 83 95 94
3 84 85 96
3 84 96 95
3 85 86 97
3 85 97 96
3 86 87 98
3 86 98 97
3 88 89 100
3 88 100 99
3 89 90 101
3 89 101 100
3 90 91 102
3 90 102 101
3 91 92 103
3 91 103 102
3 92 93 104
3 92 104 103
3 93 94 105
3 93 105 104
3 94 95 106
3 94 106 105
3 95 96 107
3 95 107 106
3 96 97 108
3 96 108 107
3 97 98 109
3 97 109 108
3 99 100 111
3 99 111 110
3 100 101 112
3 100 112 111
3 101 102 113
3 101 113 112
3 102 103 114
3 102 114 113
3 103 104 115
3 103 115 114
3 104 105 116
3 104 116 115
3 105 106 117
3 105 117 116
3 106 107 118
3 106 118 117
3 107 108 119
3 107 119 118
3 108 109 120
3 108 120 119
3 110 111 122
3 110 122 121
3 111 112 123
3 111 123 122
3 112 113 124
3 112 124 123
3 113 114 125
3 113 125 124
3 114 115 126
3 114 126 125
3 115 116 127
3 115 127 126
3 116 117 128
3 116 128 127
3 117 118 129
3 117 129 128
3 118 119 130
3 118 130 129
3 119 120 131
3 119 131 130
3 121 122 133
3 121 133 132
3 122 123 134
3 122 134 133
3 123 124 135
3 123 135 134
3 124 125 136
3 124 136 135
3 125 126 137
3 125 137 136
3 126 127 138
3 126 138 137
3 127 128 139
3 127 139 138
3 128 129 140
3 128 140 139
3 129 130 141
3 129 141 140
3 130 131 142
3 130 142 141
3 132 133 144
3 132 144 143
3 133 134 145
3 133 145 144
3 134 135 146
3 134 146 145
3 135 136 147
3 135 147 146
3 136 137 148
3 136 148 147
3 137 138 149
3 137 149 148
3 138 139 150
3 138 150 149
3 139 140 151
3 139 151 150
3 140 141 152
3 140 152 151
3 141 142 153
3 141 153 152
3 143 144 155
3 143 155 154
3 144 145 156
3 144 156 155
3 145 146 157
3 145 157 156
3 146 147 158
3 146 158 157
3 147 148 159
3 147 159 158
3 148 149 160
3 148 160 159
3 149 150 161
3 149 161 160
3 150 151 162
3 150 162 161
3 151 152 163
3 151 163 162
3 152 153 164
3 152 164 163
3 154 155 166
3 154 166 165
3 155 156 167
3 155 167 166
3 156 157 168
3 156 168 167
3 157 158 169
3 157 169 168
3 158 159 170
3 158 170 169
3 159 160 171
3 159 171 170
3 160 161 172
3 160 172 171
3 161 162 173
3 161 173 172
3 162 163 174
3 162 174 173
3 163 164 175
3 163 175 174
3 165 166 177
3 165 177 176
3 166 167 178
3 166 178 177
3 167 168 179
3 167 179 178
3 168 169 180
3 168 180 179
3 169 170 181
3 169 181 180
3 170 171 182
3 170 182 181
3 171 172 183
3 171 183 182
3 172 173 184
3 172 184 183
3 173 174 185
3 173 185 184
3 174 175 186
3 174 186 185
3 176 177 188
3 176 188 187
3 177 178 189
3 177 189 188
3 178 179 190
3 178 190 189
3 179 180 191
3 179 191 190
3 180 181 192
3 180 192 191
3 181 182 193
3 181 193 192
3 182 183 194
3 182 194 193
3 183 184 195
3 183 195 194
3 184 185 196
3 184 196 195
3 185 186 197
3 185 197 196
3 187 188 199
3 187 199 198
3 188 189 200
3 188 200 199
3 189 190 201
3 189 201 200
3 190 191 202
3 190 202 201
3 191 192 203
3 191 203 202
3 192 193 204
3 192 204 203
3 193 194 205
3 193 205 204
3 194 195 206
3 194 206 205
3 195 196 207
3 195 207 206
3 196 197 208
3 196 208 207
3 198 199 210
3 198 210 209
3 199 200 211
3 199 211 210
3 200 201 212
3 200 212 211
3 201 202 213
3 201 213 212
3 202 203 214
3 202 214 213
3 203 204 215
3 203 215 214
3 204 205 216
3 204 216 215
3 205 206 217
3 205 217 216
3 206 207 218
3 206 218 217
3 207 208 219
3 207 219 218
3 209 210 221
3 209 221 220
3 210 211 222
3 210 222 221
3 211 212 223
3 211 223 222
3 212 213 224
3 212 224 223
3 213 214 225
3 213 225 224
3 214 215 226
3 214 226 225
3 215 216 227
3 215 227 226
3 216 217 228
3 216 228 227
3 217 218 229
3 217 229 228
3 218 219 230
3 218 230 229
CELL_TYPES 400
5
5
5
5
5
5
5
5
5
5
5
5
5
5
5
5
5
5
5
5
5
5
5
5
5
5
5
5
5
5
5
5
5
5
5
5
5
5
5
5
5
5
5
5
5
5
5
5
5
5
5
5
5
5
5
5
5
5
5
5
5
5
5
5
5
5
5
5
5
5
5
5
5
5
5
5
5
5
5
5
5
5
5
5
5
5
5
5
5
5
5
5
5
5
5
5
5
5
5
5
5
5
5
5
5
5
5
5
5
5
5
5
5
5
5
5
5
5
5
5
5
5
5
5
5
5
5
5
5
5
5
5
5
5
5
5
5
5
5
5
5
5
5
5
5
5
5
5
5
5
5
5
5
5
5
5
5
5
5
5
5
5
5
5
5
5
5
5
5
5
5
5
5
5
5
5
5
5
5
5
5
5
5
5
5
5
5
5
5
5
5
5
5
5
5
5
5
5
5
5
5
5
5
5
5
5
5
5
5
5
5
5
5
5
5
5
5
5
5
5
5
5
5
5
5
5
5
5
5
5
5
5
5
5
5
5
5
5
5
5
5
5
5
5
5
5
5
5
5
5
5
5
5
5
5
5
5
5
5
5
5
5
5
5
5
5
5
5
5
5
5
5
5
5
5
5
5
5
5
5
5
5
5
5
5
5
5
5
5
5
5
5
5
5
5
5
5
5
5
5
5
5
5
5
5
5
5
5
5
5
5
5
5
5
5
5
5
5
5
5
5
5
5
5
5
5
5
5
5
5
5
5
5
5
5
5
5
5
5
5
5
5
5
5
5
5
5
5
5
5
5
5
5
5
5
5
5
5
5
5
5
5
5
5
5
5
5
5
5
5
5
5
5
5
5
5
5
5
5
5
5
5
5
5
5
5
5
5
5
5
5
5
5
5
5
5
5
5
5
5
POINT_DATA 231
SCALARS psi double 1
LOOKUP_TABLE default
-1
-0.945927
-0.803876
-0.583477
-0.306073
0.00106704
0.307899
0.584509
0.804065
0.944524
0.990047
-0.988589
-0.936513
-0.796303
-0.578327
-0.303799
0.000245822
0.304066
0.578039
0.795596
0.935349
0.982775
-0.95232
-0.902679
-0.767664
-0.557454
-0.292728
0.000435197
0.293356
0.557476
0.767168
0.902116
0.950933
-0.891107
-0.844521
-0.718235
-0.521508
-0.27379
0.000517664
0.274576
0.521666
0.717792
0.8441
0.891257
-0.807752
-0.765347
-0.650859
-0.472549
-0.248053
0.000522244
0.248848
0.472716
0.65037
0.764735
0.808155
-0.705052
-0.667917
-0.567931
-0.412301
-0.216395
0.000498495
0.217145
0.412427
0.567366
0.667
0.705047
-0.585646
-0.55465
-0.471564
-0.342296
-0.179613
0.000465353
0.180299
0.342365
0.470921
0.553501
0.584979
-0.452348
-0.428269
-0.364073
-0.264223
-0.138595
0.000419321
0.139193
0.264211
0.363354
0.427007
0.451351
-0.307998
-0.291663
-0.247905
-0.179847
-0.0942614
0.000378604
0.0947805
0.179765
0.247126
0.290374
0.306996
-0.156164
-0.147957
-0.1257
-0.091082
-0.0476121
0.000352629
0.0480813
0.0909542
0.124885
0.146672
0.155159
-0.000500112
-0.000640589
-0.000414053
-7.15888e-05
0.000226143
0.000343827
0.000226143
-7.15888e-05
-0.000414053
-0.000640589
-0.000500112
0.155159
0.146672
0.124885
0.0909542
0.0480813
0.000352629
-0.0476121
-0.091082
-0.1257
-0.147957
-0.156164
0.306996
0.290374
0.247126
0.179765
0.0947805
0.000378604
-0.0942614
-0.179847
-0.247905
-0.291663
-0.307998
0.451351
0.427007
0.363354
0.264211
0.139193
0.000419321
-0.138595
-0.264223
-0.364073
-0.428269
-0.452348
0.584979
0.553501
0.470921
0.342365
0.180299
0.000465353
-0.179613
-0.342296
-0.471564
-0.55465
-0.585646
0.705047
0.667
0.567366
0.412427
0.217145
0.000498495
-0.216395
-0.412301
-0.567931
-0.667917
-0.705052
0.808155
0.764735
0.65037
0.472716
0.248848
0.000522244
-0.248053
-0.472549
-0.650859
-0.765347
-0.807752
0.891257
0.8441
0.717792
0.521666
0.274576
0.000517664
-0.27379
-0.521508
-0.718235
-0.844521
-0.891107
0.950933
0.902116
0.767168
0.557476
0.293356
0.000435197
-0.292728
-0.557454
-0.767664
-0.902679
-0.95232
0.982775
0.935349
0.795596
0.578039
0.304066
0.000245822
-0.303799
-0.578327
-0.796303
-0.936513
-0.988589
0.990047
0.944524
0.804065
0.584509
0.307899
0.00106704
-0.306073
-0.583477
-0.803876
-0.945927
-1
VECTORS Et double
-0.22857 0.0779336 0
-0.234488 0.153492 0
-0.198497 0.29055 0
-0.143227 0.399453 0
-0.0740771 0.469168 0
0.0022466 0.492852 0
0.0783149 0.468403 0
0.146707 0.398391 0
0.200839 0.289506 0
0.232839 0.158675 0
0.206994 0.0705537 0
-0.318519 0.109961 0
-0.327517 0.147847 0
-0.278869 0.282575 0
-0.202392 0.388546 0
-0.106171 0.456359 0
0.000379489 0.479393 0
0.106868 0.455607 0
0.202915 0.387501 0
0.279227 0.281649 0
0.328212 0.157297 0
0.325221 0.100207 0
-0.420797 0.129913 0
-0.415288 0.141033 0
-0.354607 0.27092 0
-0.257586 0.372565 0
-0.135383 0.437585 0
2.11982e-05 0.459661 0
0.135412 0.436843 0
0.257582 0.371526 0
0.354677 0.27008 0
0.41989 0.15254 0
0.431462 0.127683 0
-0.521295 0.138084 0
-0.500403 0.132142 0
-0.427786 0.25448 0
-0.310769 0.349986 0
-0.163337 0.411048 0
3.88009e-05 0.431767 0
0.163406 0.410313 0
0.310836 0.348943 0
0.427994 0.253684 0
0.508183 0.144072 0
0.535868 0.138962 0
-0.618739 0.134588 0
-0.586701 0.120294 0
-0.501741 0.232206 0
-0.364495 0.319358 0
-0.19156 0.375053 0
9.09508e-05 0.393929 0
0.191732 0.374322 0
0.364665 0.318302 0
0.502098 0.231408 0
0.595451 0.130516 0
0.636665 0.136492 0
-0.71385 0.120007 0
-0.676408 0.105447 0
-0.578106 0.203389 0
-0.419964 0.279716 0
-0.220701 0.32846 0
0.000133367 0.344944 0
0.220954 0.327734 0
0.420218 0.278648 0
0.578523 0.202562 0
0.682295 0.110868 0
0.734646 0.121537 0
-0.805184 0.0995835 0
-0.766019 0.0896577 0
-0.652292 0.169018 0
-0.47384 0.232417 0
-0.249 0.272862 0
0.000171436 0.286498 0
0.249328 0.272142 0
0.47416 0.231335 0
0.652703 0.168131 0
0.767947 0.0907215 0
0.821276 0.100185 0
-0.889163 0.0772097 0
-0.842535 0.0700531 0
-0.716309 0.130562 0
-0.520324 0.179494 0
-0.273431 0.210664 0
0.000186661 0.221107 0
0.273788 0.209947 0
0.52066 0.178403 0
0.716684 0.129622 0
0.843133 0.0700664 0
0.893889 0.0774139 0
-0.951774 0.0526479 0
-0.897806 0.0477179 0
-0.763232 0.0889786 0
-0.554409 0.122274 0
-0.291364 0.143415 0
0.000157843 0.150405 0
0.291666 0.142704 0
0.554692 0.121181 0
0.76349 0.0879986 0
0.898168 0.0476487 0
0.952265 0.0529841 0
-0.987791 0.0266174 0
-0.931598 0.0242008 0
-0.791939 0.0452738 0
-0.575266 0.0621432 0
-0.302372 0.0727485 0
8.80891e-05 0.0761127 0
0.302535 0.0720408 0
0.575396 0.0610527 0
0.792147 0.0442866 0
0.931765 0.0240676 0
0.988055 0.0270281 0
-1 -0.000221918 0
-0.943016 7.65556e-05 0
-0.801643 0.000496216 0
-0.582355 0.000543734 0
-0.30613 0.000352254 0
-3.98181e-09 -4.66945e-11 0
0.306137 -0.000352263 0
0.582355 -0.000543733 0
0.801683 -0.000496238 0
0.94298 -7.6562e-05 0
0.999933 0.0002219 0
-0.988079 -0.0270275 0
-0.931765 -0.0240695 0
-0.792081 -0.0442846 0
-0.57543 -0.0610558 0
-0.302542 -0.072043 0
-8.80953e-05 -0.076111 0
0.30238 -0.0727496 0
0.57527 -0.0621441 0
0.791987 -0.0452738 0
0.931676 -0.0241985 0
0.988041 -0.0266217 0
-0.952373 -0.0529853 0
-0.898184 -0.0476483 0
-0.763519 -0.0880052 0
-0.55469 -0.121183 0
-0.291668 -0.142706 0
-0.000157855 -0.1504 0
0.291376 -0.14342 0
0.554402 -0.122273 0
0.763242 -0.0889752 0
0.897726 -0.0477113 0
0.951519 -0.0526274 0
-0.89392 -0.0774192 0
-0.843159 -0.0700675 0
-0.716691 -0.129622 0
-0.52066 -0.178404 0
-0.273779 -0.20994 0
-0.000186668 -0.22111 0
0.273436 -0.210668 0
0.520334 -0.179503 0
0.716187 -0.130544 0
0.842659 -0.070055 0
0.889015 -0.0772036 0
-0.821205 -0.100173 0
-0.767936 -0.090728 0
-0.65272 -0.168135 0
-0.474154 -0.231331 0
-0.249334 -0.27215 0
-0.000171429 -0.286504 0
0.249008 -0.272873 0
0.473857 -0.23243 0
0.652307 -0.169019 0
0.765946 -0.0896444 0
0.805242 -0.099551 0
-0.734664 -0.121541 0
-0.682303 -0.110869 0
-0.578515 -0.202563 0
-0.42022 -0.278646 0
-0.220961 -0.327738 0
-0.000133376 -0.344951 0
0.220711 -0.328465 0
0.419942 -0.27971 0
0.578081 -0.203373 0
0.676325 -0.105428 0
0.713407 -0.119937 0
-0.636646 -0.136487 0
-0.595439 -0.130513 0
-0.502081 -0.231418 0
-0.364671 -0.318302 0
-0.191736 -0.374353 0
-9.09475e-05 -0.393923 0
0.191566 -0.375059 0
0.364515 -0.319355 0
0.501708 -0.23221 0
0.586776 -0.120368 0
0.618977 -0.134578 0
-0.535809 -0.138966 0
-0.508177 -0.144074 0
-0.427987 -0.253683 0
-0.310827 -0.348937 0
-0.163404 -0.410305 0
-3.88063e-05 -0.431752 0
0.16335 -0.411072 0
0.310761 -0.34997 0
0.427864 -0.254468 0
0.500331 -0.132124 0
0.521507 -0.138101 0
-0.43144 -0.127681 0
-0.419889 -0.152544 0
-0.354677 -0.270085 0
-0.25758 -0.371534 0
-0.135414 -0.436875 0
-2.11924e-05 -0.459648 0
0.135366 -0.43752 0
0.257644 -0.372649 0
0.354679 -0.270994 0
0.415479 -0.141067 0
0.419957 -0.129899 0
-0.325191 -0.100207 0
-0.32821 -0.157286 0
-0.279221 -0.281634 0
-0.202939 -0.387547 0
-0.106857 -0.455609 0
-0.000379469 -0.479356 0
0.106179 -0.456465 0
0.202402 -0.388563 0
0.279104 -0.282742 0
0.327492 -0.147766 0
0.318151 -0.109978 0
-0.206994 -0.0705537 0
-0.232834 -0.158661 0
-0.200819 -0.289523 0
-0.146728 -0.39837 0
-0.078289 -0.468386 0
-0.00224674 -0.492883 0
0.0740605 -0.469086 0
0.143286 -0.399302 0
0.198402 -0.290512 0
0.234334 -0.153416 0
0.227194 -0.0774811 0
