# vtk DataFile Version 3.0
tp3485 scalar+vector
ASCII
DATASET UNSTRUCTURED_GRID
POINTS 231 double
0 0 0
0.1 0 0
0.2 0 0
0.3 0 0
0.4 0 0
0.5 0 0
0.6 0 0
0.7 0 0
0.8 0 0
0.9 0 0
1 0 0
0 0.025 0
0.1 0.025 0
0.2 0.025 0
0.3 0.025 0
0.4 0.025 0
0.5 0.025 0
0.6 0.025 0
0.7 0.025 0
0.8 0.025 0
0.9 0.025 0
1 0.025 0
0 0.05 0
0.1 0.05 0
0.2 0.05 0
0.3 0.05 0
0.4 0.05 0
0.5 0.05 0
0.6 0.05 0
0.7 0.05 0
0.8 0.05 0
0.9 0.05 0
1 0.05 0
0 0.075 0
0.1 0.075 0
0.2 0.075 0
0.3 0.075 0
0.4 0.075 0
0.5 0.075 0
0.6 0.075 0
0.7 0.075 0
0.8 0.075 0
0.9 0.075 0
1 0.075 0
0 0.1 0
0.1 0.1 0
0.2 0.1 0
0.3 0.1 0
0.4 0.1 0
0.5 0.1 0
0.6 0.1 0
0.7 0.1 0
0.8 0.1 0
0.9 0.1 0
1 0.1 0
0 0.125 0
0.1 0.125 0
0.2 0.125 0
0.3 0.125 0
0.4 0.125 0
0.5 0.125 0
0.6 0.125 0
0.7 0.125 0
0.8 0.125 0
0.9 0.125 0
1 0.125 0
0 0.15 0
0.1 0.15 0
0.2 0.15 0
0.3 0.15 0
0.4 0.15 0
0.5 0.15 0
0.6 0.15 0
0.7 0.15 0
0.8 0.15 0
0.9 0.15 0
1 0.15 0
0 0.175 0
0.1 0.175 0
0.2 0.175 0
0.3 0.175 0
0.4 0.175 0
0.5 0.175 0
0.6 0.175 0
0.7 0.175 0
0.8 0.175 0
0.9 0.175 0
1 0.175 0
0 0.2 0
0.1 0.2 0
0.2 0.2 0
0.3 0.2 0
0.4 0.2 0
0.5 0.2 0
0.6 0.2 0
0.7 0.2 0
0.8 0.2 0
0.9 0.2 0
1 0.2 0
0 0.225 0
0.1 0.225 0
0.2 0.225 0
0.3 0.225 0
0.4 0.225 0
0.5 0.225 0
0.6 0.225 0
0.7 0.225 0
0.8 0.225 0
0.9 0.225 0
1 0.225 0
0 0.25 0
0.1 0.25 0
0.2 0.25 0
0.3 0.25 0
0.4 0.25 0
0.5 0.25 0
0.6 0.25 0
0.7 0.25 0
0.8 0.25 0
0.9 0.25 0
1 0.25 0
0 0.275 0
0.1 0.275 0
0.2 0.275 0
0.3 0.275 0
0.4 0.275 0
0.5 0.275 0
0.6 0.275 0
0.7 0.275 0
0.8 0.275 0
0.9 0.275 0
1 0.275 0
0 0.3 0
0.1 0.3 0
0.2 0.3 0
0.3 0.3 0
0.4 0.3 0
0.5 0.3 0
0.6 0.3 0
0.7 0.3 0
0.8 0.3 0
0.9 0.3 0
1 0.3 0
0 0.325 0
0.1 0.325 0
0.2 0.325 0
0.3 0.325 0
0.4 0.325 0
0.5 0.325 0
0.6 0.325 0
0.7 0.325 0
0.8 0.325 0
0.9 0.325 0
1 0.325 0
0 0.35 0
0.1 0.35 0
0.2 0.35 0
0.3 0.35 0
0.4 0.35 0
0.5 0.35 0
0.6 0.35 0
0.7 0.35 0
0.8 0.35 0
0.9 0.35 0
1 0.35 0
0 0.375 0
0.1 0.375 0
0.2 0.375 0
0.3 0.375 0
0.4 0.375 0
0.5 0.375 0
0.6 0.375 0
0.7 0.375 0
0.8 0.375 0
0.9 0.375 0
1 0.375 0
0 0.4 0
0.1 0.4 0
0.2 0.4 0
0.3 0.4 0
0.4 0.4 0
0.5 0.4 0
0.6 0.4 0
0.7 0.4 0
0.8 0.4 0
0.9 0.4 0
1 0.4 0
0 0.425 0
0.1 0.425 0
0.2 0.425 0
0.3 0.425 0
0.4 0.425 0
0.5 0.425 0
0.6 0.425 0
0.7 0.425 0
0.8 0.425 0
0.9 0.425 0
1 0.425 0
0 0.45 0
0.1 0.45 0
0.2 0.45 0
0.3 0.45 0
0.4 0.45 0
0.5 0.45 0
0.6 0.45 0
0.7 0.45 0
0.8 0.45 0
0.9 0.45 0
1 0.45 0
0 0.475 0
0.1 0.475 0
0.2 0.475 0
0.3 0.475 0
0.4 0.475 0
0.5 0.475 0
0.6 0.475 0
0.7 0.475 0
0.8 0.475 0
0.9 0.475 0
1 0.475 0
0 0.5 0
0.1 0.5 0
0.2 0.5 0
0.3 0.5 0
0.4 0.5 0
0.5 0.5 0
0.6 0.5 0
0.7 0.5 0
0.8 0.5 0
0.9 0.5 0
1 0.5 0
CELLS 400 1600
3 0 1 12
3 0 12 11
3 1 2 13
3 1 13 12
3 2 3 14
3 2 14 13
3 3 4 15
3 3 15 14
3 4 5 16
3 4 16 15
3 5 6 17
3 5 17 16
3 6 7 18
3 6 18 17
3 7 8 19
3 7 19 18
3 8 9 20
3 8 20 19
3 9 10 21
3 9 21 20
3 11 12 23
3 11 23 22
3 12 13 24
3 12 24 23
3 13 14 25
3 13 25 24
3 14 15 26
3 14 26 25
3 15 16 27
3 15 27 26
3 16 17 28
3 16 28 27
3 17 18 29
3 17 29 28
3 18 19 30
3 18 30 29
3 19 20 31
3 19 31 30
3 20 21 32
3 20 32 31
3 22 23 34
3 22 34 33
3 23 24 35
3 23 35 34
3 24 25 36
3 24 36 35
3 25 26 37
3 25 37 36
3 26 27 38
3 26 38 37
3 27 28 39
3 27 39 38
3 28 29 40
3 28 40 39
3 29 30 41
3 29 41 40
3 30 31 42
3 30 42 41
3 31 32 43
3 31 43 42
3 33 34 45
3 33 45 44
3 34 35 46
3 34 46 45
3 35 36 47
3 35 47 46
3 36 37 48
3 36 48 47
3 37 38 49
3 37 49 48
3 38 39 50
3 38 50 49
3 39 40 51
3 39 51 50
3 40 41 52
3 40 52 51
3 41 42 53
3 41 53 52
3 42 43 54
3 42 54 53
3 44 45 56
3 44 56 55
3 45 46 57
3 45 57 56
3 46 47 58
3 46 58 57
3 47 48 59
3 47 59 58
3 48 49 60
3 48 60 59
3 49 50 61
3 49 61 60
3 50 51 62
3 50 62 61
3 51 52 63
3 51 63 62
3 52 53 64
3 52 64 63
3 53 54 65
3 53 65 64
3 55 56 67
3 55 67 66
3 56 57 68
3 56 68 67
3 57 58 69
3 57 69 68
3 58 59 70
3 58 70 69
3 59 60 71
3 59 71 70
3 60 61 72
3 60 72 71
3 61 62 73
3 61 73 72
3 62 63 74
3 62 74 73
3 63 64 75
3 63 75 74
3 64 65 76
3 64 76 75
3 66 67 78
3 66 78 77
3 67 68 79
3 67 79 78
3 68 69 80
3 68 80 79
3 69 70 81
3 69 81 80
3 70 71 82
3 70 82 81
3 71 72 83
3 71 83 82
3 72 73 84
3 72 84 83
3 73 74 85
3 73 85 84
3 74 75 86
3 74 86 85
3 75 76 87
3 75 87 86
3 77 78 89
3 77 89 88
3 78 79 90
3 78 90 89
3 79 80 91
3 79 91 90
3 80 81 92
3 80 92 91
3 81 82 93
3 81 93 92
3 82 83 94
3 82 94 93
3 83 84 95
3 83 95 94
3 84 85 96
3 84 96 95
3 85 86 97
3 85 97 96
3 86 87 98
3 86 98 97
3 88 89 100
3 88 100 99
3 89 90 101
3 89 101 100
3 90 91 102
3 90 102 101
3 91 92 103
3 91 103 102
3 92 93 104
3 92 104 103
3 93 94 105
3 93 105 104
3 94 95 106
3 94 106 105
3 95 96 107
3 95 107 106
3 96 97 108
3 96 108 107
3 97 98 109
3 97 109 108
3 99 100 111
3 99 111 110
3 100 101 112
3 100 112 111
3 101 102 113
3 101 113 112
3 102 103 114
3 102 114 113
3 103 104 115
3 103 115 114
3 104 105 116
3 104 116 115
3 105 106 117
3 105 117 116
3 106 107 118
3 106 118 117
3 107 108 119
3 107 119 118
3 108 109 120
3 108 120 119
3 110 111 122
3 110 122 121
3 111 112 123
3 111 123 122
3 112 113 124
3 112 124 123
3 113 114 125
3 113 125 124
3 114 115 126
3 114 126 125
3 115 116 127
3 115 127 126
3 116 117 128
3 116 128 127
3 117 118 129
3 117 129 128
3 118 119 130
3 118 130 129
3 119 120 131
3 119 131 130
3 121 122 133
3 121 133 132
3 122 123 134
3 122 134 133
3 123 124 135
3 123 135 134
3 124 125 136
3 124 136 135
3 125 126 137
3 125 137 136
3 126 127 138
3 126 138 137
3 127 128 139
3 127 139 138
3 128 129 140
3 128 140 139
3 129 130 141
3 129 141 140
3 130 131 142
3 130 142 141
3 132 133 144
3 132 144 143
3 133 134 145
3 133 145 144
3 134 135 146
3 134 146 145
3 135 136 147
3 135 147 146
3 136 137 148
3 136 148 147
3 137 138 149
3 137 149 148
3 138 139 150
3 138 150 149
3 139 140 151
3 139 151 150
3 140 141 152
3 140 152 151
3 141 142 153
3 141 153 152
3 143 144 155
3 143 155 154
3 144 145 156
3 144 156 155
3 145 146 157
3 145 157 156
3 146 147 158
3 146 158 157
3 147 148 159
3 147 159 158
3 148 149 160
3 148 160 159
3 149 150 161
3 149 161 160
3 150 151 162
3 150 162 161
3 151 152 163
3 151 163 162
3 152 153 164
3 152 164 163
3 154 155 166
3 154 166 165
3 155 156 167
3 155 167 166
3 156 157 168
3 156 168 167
3 157 158 169
3 157 169 168
3 158 159 170
3 158 170 169
3 159 160 171
3 159 171 170
3 160 161 172
3 160 172 171
3 161 162 173
3 161 173 172
3 162 163 174
3 162 174 173
3 163 164 175
3 163 175 174
3 165 166 177
3 165 177 176
3 166 167 178
3 166 178 177
3 167 168 179
3 167 179 178
3 168 169 180
3 168 180 179
3 169 170 181
3 169 181 180
3 170 171 182
3 170 182 181
3 171 172 183
3 171 183 182
3 172 173 184
3 172 184 183
3 173 174 185
3 173 185 184
3 174 175 186
3 174 186 185
3 176 177 188
3 176 188 187
3 177 178 189
3 177 189 188
3 178 179 190
3 178 190 189
3 179 180 191
3 179 191 190
3 180 181 192
3 180 192 191
3 181 182 193
3 181 193 192
3 182 183 194
3 182 194 193
3 183 184 195
3 183 195 194
3 184 185 196
3 184 196 195
3 185 186 197
3 185 197 196
3 187 188 199
3 187 199 198
3 188 189 200
3 188 200 199
3 189 190 201
3 189 201 200
3 190 191 202
3 190 202 201
3 191 192 203
3 191 203 202
3 192 193 204
3 192 204 203
3 193 194 205
3 193 205 204
3 194 195 206
3 194 206 205
3 195 196 207
3 195 207 206
3 196 197 208
3 196 208 207
3 198 199 210
3 198 210 209
3 199 200 211
3 199 211 210
3 200 201 212
3 200 212 211
3 201 202 213
3 201 213 212
3 202 203 214
3 202 214 213
3 203 204 215
3 203 215 214
3 204 205 216
3 204 216 215
3 205 206 217
3 205 217 216
3 206 207 218
3 206 218 217
3 207 208 219
3 207 219 218
3 209 210 221
3 209 221 220
3 210 211 222
3 210 222 221
3 211 212 223
3 211 223 222
3 212 213 224
3 212 224 223
3 213 214 225
3 213 225 224
3 214 215 226
3 214 226 225
3 215 216 227
3 215 227 226
3 216 217 228
3 216 228 227
3 217 218 229
3 217 229 228
3 218 219 230
3 218 230 229
CELL_TYPES 400
5
5
5
5
5
5
5
5
5
5
5
5
5
5
5
5
5
5
5
5
5
5
5
5
5
5
5
5
5
5
5
5
5
5
5
5
5
5
5
5
5
5
5
5
5
5
5
5
5
5
5
5
5
5
5
5
5
5
5
5
5
5
5
5
5
5
5
5
5
5
5
5
5
5
5
5
5
5
5
5
5
5
5
5
5
5
5
5
5
5
5
5
5
5
5
5
5
5
5
5
5
5
5
5
5
5
5
5
5
5
5
5
5
5
5
5
5
5
5
5
5
5
5
5
5
5
5
5
5
5
5
5
5
5
5
5
5
5
5
5
5
5
5
5
5
5
5
5
5
5
5
5
5
5
5
5
5
5
5
5
5
5
5
5
5
5
5
5
5
5
5
5
5
5
5
5
5
5
5
5
5
5
5
5
5
5
5
5
5
5
5
5
5
5
5
5
5
5
5
5
5
5
5
5
5
5
5
5
5
5
5
5
5
5
5
5
5
5
5
5
5
5
5
5
5
5
5
5
5
5
5
5
5
5
5
5
5
5
5
5
5
5
5
5
5
5
5
5
5
5
5
5
5
5
5
5
5
5
5
5
5
5
5
5
5
5
5
5
5
5
5
5
5
5
5
5
5
5
5
5
5
5
5
5
5
5
5
5
5
5
5
5
5
5
5
5
5
5
5
5
5
5
5
5
5
5
5
5
5
5
5
5
5
5
5
5
5
5
5
5
5
5
5
5
5
5
5
5
5
5
5
5
5
5
5
5
5
5
5
5
5
5
5
5
5
5
5
5
5
5
5
5
5
5
5
5
5
5
5
5
5
5
5
5
5
5
5
5
5
5
5
5
5
5
5
5
5
5
5
5
5
5
5
5
5
5
5
5
5
5
5
5
5
5
5
5
5
5
5
5
POINT_DATA 231
SCALARS psi double 1
LOOKUP_TABLE default
-1
-0.804459
-0.306521
0.309122
0.806862
0.996435
0.805439
0.306789
-0.30913
-0.806788
-0.990324
-0.984926
-0.797502
-0.304914
0.304562
0.798052
0.986749
0.798576
0.305368
-0.304654
-0.798477
-0.984932
-0.976378
-0.791755
-0.302393
0.302728
0.792601
0.979776
0.792744
0.302901
-0.302843
-0.793169
-0.979024
-0.970735
-0.787155
-0.300355
0.301164
0.788011
0.973927
0.787872
0.300864
-0.301257
-0.788515
-0.973367
-0.967361
-0.78417
-0.299047
0.300089
0.784902
0.969986
0.784608
0.299522
-0.300128
-0.785235
-0.96935
-0.965748
-0.782619
-0.298399
0.299501
0.783221
0.967863
0.782857
0.298816
-0.299472
-0.7834
-0.967093
-0.965271
-0.782023
-0.298205
0.299235
0.782525
0.967002
0.782164
0.298564
-0.299141
-0.78259
-0.966145
-0.965351
-0.781946
-0.298259
0.299119
0.782341
0.966814
0.782046
0.298573
-0.298976
-0.782339
-0.965882
-0.965534
-0.782025
-0.298379
0.299035
0.782294
0.966813
0.782093
0.298662
-0.298855
-0.782273
-0.965826
-0.965666
-0.782114
-0.298506
0.29895
0.782261
0.966834
0.78216
0.298762
-0.298742
-0.782235
-0.965796
-0.965749
-0.782185
-0.298626
0.298859
0.782218
0.966843
0.782218
0.298859
-0.298626
-0.782185
-0.965749
-0.965796
-0.782235
-0.298742
0.298762
0.78216
0.966834
0.782261
0.29895
-0.298506
-0.782114
-0.965666
-0.965826
-0.782273
-0.298855
0.298662
0.782093
0.966813
0.782294
0.299035
-0.298379
-0.782025
-0.965534
-0.965882
-0.782339
-0.298976
0.298573
0.782046
0.966814
0.782341
0.299119
-0.298259
-0.781946
-0.965351
-0.966145
-0.78259
-0.299141
0.298564
0.782164
0.967002
0.782525
0.299235
-0.298205
-0.782023
-0.965271
-0.967093
-0.7834
-0.299472
0.298816
0.782857
0.967863
0.783221
0.299501
-0.298399
-0.782619
-0.965748
-0.96935
-0.785235
-0.300128
0.299522
0.784608
0.969986
0.784902
0.300089
-0.299047
-0.78417
-0.967361
-0.973367
-0.788515
-0.301257
0.300864
0.787872
0.973927
0.788011
0.301164
-0.300355
-0.787155
-0.970735
-0.979024
-0.793169
-0.302843
0.302901
0.792744
0.979776
0.792601
0.302728
-0.302393
-0.791755
-0.976378
-0.984932
-0.798477
-0.304654
0.305368
0.798576
0.986749
0.798052
0.304562
-0.304914
-0.797502
-0.984926
-0.990324
-0.806788
-0.30913
0.306789
0.805439
0.996435
0.806862
0.309122
-0.306521
-0.804459
-1
VECTORS Et double
-0.0755155 0.342985 0
-0.127942 0.606123 0
-0.0461049 0.997641 0
0.0541561 0.997889 0
0.133288 0.616709 0
0.161353 -0.000271694 0
0.127791 -0.617194 0
0.0454717 -0.998541 0
-0.0539505 -0.998544 0
-0.131994 -0.637571 0
-0.0387147 -0.335779 0
-0.0577439 0.333558 0
-0.0911832 0.606246 0
-0.0354385 0.994793 0
0.0361969 0.994998 0
0.0939857 0.614966 0
0.115749 -0.000206949 0
0.093289 -0.615352 0
0.0352409 -0.995631 0
-0.0361868 -0.995695 0
-0.0974116 -0.630413 0
-0.037253 -0.335614 0
-0.04262 0.330163 0
-0.0573351 0.606141 0
-0.0233993 0.991737 0
0.0226408 0.991861 0
0.0602372 0.613046 0
0.0747453 -0.000175105 0
0.0606785 -0.613386 0
0.0234489 -0.992479 0
-0.0227683 -0.992576 0
-0.0658178 -0.624123 0
-0.0334756 -0.333734 0
-0.030966 0.327982 0
-0.0321571 0.605639 0
-0.0137863 0.988662 0
0.0130944 0.988675 0
0.0352916 0.611068 0
0.043953 -0.00017268 0
0.0358142 -0.611409 0
0.0139787 -0.989279 0
-0.0133294 -0.98937 0
-0.041106 -0.618646 0
-0.0275085 -0.330829 0
-0.0213644 0.327375 0
-0.0164464 0.604866 0
-0.00754242 0.985765 0
0.00719852 0.985653 0
0.0195618 0.609174 0
0.0244389 -0.000190134 0
0.0199523 -0.609545 0
0.00780884 -0.986233 0
-0.00750662 -0.986305 0
-0.0239149 -0.613185 0
-0.0203896 -0.329191 0
-0.0134761 0.328278 0
-0.00865842 0.604333 0
-0.00416811 0.98326 0
0.00424232 0.983035 0
0.011401 0.607525 0
0.0142127 -0.000205054 0
0.0115752 -0.607923 0
0.00446234 -0.983576 0
-0.00457384 -0.983599 0
-0.0129928 -0.607858 0
-0.0135155 -0.329236 0
-0.00726642 0.329875 0
-0.0052703 0.604943 0
-0.00209496 0.981534 0
0.00262837 0.98123 0
0.00665695 0.606367 0
0.00819811 -0.000219747 0
0.00657027 -0.606778 0
0.00237339 -0.981705 0
-0.00293438 -0.981673 0
-0.00722063 -0.605654 0
-0.00817851 -0.330349 0
-0.00277096 0.331341 0
-0.00246137 0.604929 0
-0.000618158 0.980572 0
0.00156353 0.98024 0
0.00338888 0.605744 0
0.003967 -0.00019824 0
0.00304418 -0.606115 0
0.000858025 -0.980605 0
-0.00182043 -0.980603 0
-0.00377679 -0.605015 0
-0.00450061 -0.331463 0
-0.000495967 0.332249 0
-0.000686278 0.604734 0
0.000204422 0.980098 0
0.00102036 0.979795 0
0.00162728 0.60547 0
0.00166485 -0.000151766 0
0.0010838 -0.605756 0
-1.02844e-06 -0.980047 0
-0.00122605 -0.980047 0
-0.00184992 -0.604736 0
-0.00205055 -0.332241 0
0.000292632 0.332648 0
0.000138034 0.604657 0
0.000596451 0.979904 0
0.000762343 0.979639 0
0.000780453 0.605414 0
0.000561245 -9.10512e-05 0
0.000118733 -0.605562 0
-0.000439896 -0.979725 0
-0.000938778 -0.979952 0
-0.000972862 -0.604626 0
-0.00108531 -0.332631 0
0.00064476 0.332746 0
0.000542522 0.604625 0
0.000783255 0.979835 0
0.000619634 0.97967 0
0.00033662 0.605448 0
-1.20795e-05 -4.26684e-10 0
-0.000336627 -0.605465 0
-0.000615529 -0.979672 0
-0.000776771 -0.979882 0
-0.000507005 -0.604614 0
-0.000644672 -0.332731 0
0.00110674 0.33263 0
0.000979941 0.604636 0
0.000942705 0.979872 0
0.000426869 0.979778 0
-0.000128486 0.605565 0
-0.000585352 7.71669e-05 0
-0.00076681 -0.605443 0
-0.000765331 -0.979641 0
-0.000590994 -0.979954 0
-0.000142217 -0.604683 0
-0.000206846 -0.332715 0
0.00220095 0.332255 0
0.00190118 0.604734 0
0.00123485 0.980081 0
8.1051e-06 0.980048 0
-0.00108381 0.605751 0
-0.00171304 0.000159 0
-0.00161176 -0.605511 0
-0.00101141 -0.979793 0
-0.000186358 -0.98009 0
0.000717551 -0.604667 0
0.000538862 -0.332136 0
0.00449611 0.331481 0
0.00379249 0.605027 0
0.00182854 0.9806 0
-0.000856906 0.980606 0
-0.00303824 0.606098 0
-0.00397912 0.000194623 0
-0.00338893 -0.605751 0
-0.00156207 -0.980255 0
0.000635996 -0.980384 0
0.00248561 -0.604995 0
0.00288339 -0.331293 0
0.00815257 0.330316 0
0.00718582 0.605671 0
0.00293798 0.981692 0
-0.00237374 0.981693 0
-0.00656847 0.606778 0
-0.00817415 0.000237262 0
-0.00664649 -0.606393 0
-0.00261695 -0.98129 0
0.00210168 -0.981542 0
0.00523611 -0.604891 0
0.00736079 -0.329818 0
0.0135257 0.329243 0
0.0129899 0.607867 0
0.00457134 0.983595 0
-0.00446611 0.983569 0
-0.0115962 0.607924 0
-0.0142253 0.000223536 0
-0.01143 -0.607527 0
-0.00422123 -0.983053 0
0.0041549 -0.983249 0
0.00864534 -0.604258 0
0.0135916 -0.328063 0
0.0203663 0.329185 0
0.0239134 0.613172 0
0.00750081 0.9863 0
-0.00780976 0.986249 0
-0.0199237 0.609569 0
-0.0244345 0.000182872 0
-0.0195625 -0.609217 0
-0.00720725 -0.98568 0
0.00752099 -0.985785 0
0.0164551 -0.605003 0
0.02151 -0.327394 0
0.0274399 0.330833 0
0.041101 0.618647 0
0.0133301 0.989351 0
-0.013975 0.989272 0
-0.0358229 0.611373 0
-0.0439652 0.000177852 0
-0.0353036 -0.611106 0
-0.0130885 -0.988692 0
0.0138375 -0.988579 0
0.0320617 -0.605643 0
0.030834 -0.32811 0
0.0334522 0.333732 0
0.0658142 0.624131 0
0.0227678 0.992584 0
-0.0234473 0.992481 0
-0.0606648 0.613407 0
-0.0747305 0.000178633 0
-0.0602296 -0.612993 0
-0.0226376 -0.992164 0
0.0233815 -0.992101 0
0.0573897 -0.606351 0
0.0420493 -0.32999 0
0.0372228 0.335613 0
0.097408 0.630408 0
0.0361851 0.995679 0
-0.0352497 0.995675 0
-0.0932597 0.615331 0
-0.115781 0.000261261 0
-0.0939623 -0.615083 0
-0.0362093 -0.994885 0
0.0354792 -0.995482 0
0.091331 -0.605788 0
0.0578482 -0.333198 0
0.0387148 0.335779 0
0.13199 0.637553 0
0.053943 0.998524 0
-0.0454838 0.998545 0
-0.127725 0.617092 0
-0.161362 0.000271706 0
-0.133258 -0.616521 0
-0.0541961 -0.997709 0
0.0460733 -0.997434 0
0.127766 -0.606239 0
0.0746486 -0.341561 0
