# vtk DataFile Version 3.0
tp3485 scalar+vector
ASCII
DATASET UNSTRUCTURED_GRID
POINTS 231 double
0 0 0
0.1 0 0
0.2 0 0
0.3 0 0
0.4 0 0
0.5 0 0
0.6 0 0
0.7 0 0
0.8 0 0
0.9 0 0
1 0 0
0 0.025 0
0.1 0.025 0
0.2 0.025 0
0.3 0.025 0
0.4 0.025 0
0.5 0.025 0
0.6 0.025 0
0.7 0.025 0
0.8 0.025 0
0.9 0.025 0
1 0.025 0
0 0.05 0
0.1 0.05 0
0.2 0.05 0
0.3 0.05 0
0.4 0.05 0
0.5 0.05 0
0.6 0.05 0
0.7 0.05 0
0.8 0.05 0
0.9 0.05 0
1 0.05 0
0 0.075 0
0.1 0.075 0
0.2 0.075 0
0.3 0.075 0
0.4 0.075 0
0.5 0.075 0
0.6 0.075 0
0.7 0.075 0
0.8 0.075 0
0.9 0.075 0
1 0.075 0
0 0.1 0
0.1 0.1 0
0.2 0.1 0
0.3 0.1 0
0.4 0.1 0
0.5 0.1 0
0.6 0.1 0
0.7 0.1 0
0.8 0.1 0
0.9 0.1 0
1 0.1 0
0 0.125 0
0.1 0.125 0
0.2 0.125 0
0.3 0.125 0
0.4 0.125 0
0.5 0.125 0
0.6 0.125 0
0.7 0.125 0
0.8 0.125 0
0.9 0.125 0
1 0.125 0
0 0.15 0
0.1 0.15 0
0.2 0.15 0
0.3 0.15 0
0.4 0.15 0
0.5 0.15 0
0.6 0.15 0
0.7 0.15 0
0.8 0.15 0
0.9 0.15 0
1 0.15 0
0 0.175 0
0.1 0.175 0
0.2 0.175 0
0.3 0.175 0
0.4 0.175 0
0.5 0.175 0
0.6 0.175 0
0.7 0.175 0
0.8 0.175 0
0.9 0.175 0
1 0.175 0
0 0.2 0
0.1 0.2 0
0.2 0.2 0
0.3 0.2 0
0.4 0.2 0
0.5 0.2 0
0.6 0.2 0
0.7 0.2 0
0.8 0.2 0
0.9 0.2 0
1 0.2 0
0 0.225 0
0.1 0.225 0
0.2 0.225 0
0.3 0.225 0
0.4 0.225 0
0.5 0.225 0
0.6 0.225 0
0.7 0.225 0
0.8 0.225 0
0.9 0.225 0
1 0.225 0
0 0.25 0
0.1 0.25 0
0.2 0.25 0
0.3 0.25 0
0.4 0.25 0
0.5 0.25 0
0.6 0.25 0
0.7 0.25 0
0.8 0.25 0
0.9 0.25 0
1 0.25 0
0 0.275 0
0.1 0.275 0
0.2 0.275 0
0.3 0.275 0
0.4 0.275 0
0.5 0.275 0
0.6 0.275 0
0.7 0.275 0
0.8 0.275 0
0.9 0.275 0
1 0.275 0
0 0.3 0
0.1 0.3 0
0.2 0.3 0
0.3 0.3 0
0.4 0.3 0
0.5 0.3 0
0.6 0.3 0
0.7 0.3 0
0.8 0.3 0
0.9 0.3 0
1 0.3 0
0 0.325 0
0.1 0.325 0
0.2 0.325 0
0.3 0.325 0
0.4 0.325 0
0.5 0.325 0
0.6 0.325 0
0.7 0.325 0
0.8 0.325 0
0.9 0.325 0
1 0.325 0
0 0.35 0
0.1 0.35 0
0.2 0.35 0
0.3 0.35 0
0.4 0.35 0
0.5 0.35 0
0.6 0.35 0
0.7 0.35 0
0.8 0.35 0
0.9 0.35 0
1 0.35 0
0 0.375 0
0.1 0.375 0
0.2 0.375 0
0.3 0.375 0
0.4 0.375 0
0.5 0.375 0
0.6 0.375 0
0.7 0.375 0
0.8 0.375 0
0.9 0.375 0
1 0.375 0
0 0.4 0
0.1 0.4 0
0.2 0.4 0
0.3 0.4 0
0.4 0.4 0
0.5 0.4 0
0.6 0.4 0
0.7 0.4 0
0.8 0.4 0
0.9 0.4 0
1 0.4 0
0 0.425 0
0.1 0.425 0
0.2 0.425 0
0.3 0.425 0
0.4 0.425 0
0.5 0.425 0
0.6 0.425 0
0.7 0.425 0
0.8 0.425 0
0.9 0.425 0
1 0.425 0
0 0.45 0
0.1 0.45 0
0.2 0.45 0
0.3 0.45 0
0.4 0.45 0
0.5 0.45 0
0.6 0.45 0
0.7 0.45 0
0.8 0.45 0
0.9 0.45 0
1 0.45 0
0 0.475 0
0.1 0.475 0
0.2 0.475 0
0.3 0.475 0
0.4 0.475 0
0.5 0.475 0
0.6 0.475 0
0.7 0.475 0
0.8 0.475 0
0.9 0.475 0
1 0.475 0
0 0.5 0
0.1 0.5 0
0.2 0.5 0
0.3 0.5 0
0.4 0.5 0
0.5 0.5 0
0.6 0.5 0
0.7 0.5 0
0.8 0.5 0
0.9 0.5 0
1 0.5 0
CELLS 400 1600
3 0 1 12
3 0 12 11
3 1 2 13
3 1 13 12
3 2 3 14
3 2 14 13
3 3 4 15
3 3 15 14
3 4 5 16
3 4 16 15
3 5 6 17
3 5 17 16
3 6 7 18
3 6 18 17
3 7 8 19
3 7 19 18
3 8 9 20
3 8 20 19
3 9 10 21
3 9 21 20
3 11 12 23
3 11 23 22
3 12 13 24
3 12 24 23
3 13 14 25
3 13 25 24
3 14 15 26
3 14 26 25
3 15 16 27
3 15 27 26
3 16 17 28
3 16 28 27
3 17 18 29
3 17 29 28
3 18 19 30
3 18 30 29
3 19 20 31
3 19 31 30
3 20 21 32
3 20 32 31
3 22 23 34
3 22 34 33
3 23 24 35
3 23 35 34
3 24 25 36
3 24 36 35
3 25 26 37
3 25 37 36
3 26 27 38
3 26 38 37
3 27 28 39
3 27 39 38
3 28 29 40
3 28 40 39
3 29 30 41
3 29 41 40
3 30 31 42
3 30 42 41
3 31 32 43
3 31 43 42
3 33 34 45
3 33 45 44
3 34 35 46
3 34 46 45
3 35 36 47
3 35 47 46
3 36 37 48
3 36 48 47
3 37 38 49
3 37 49 48
3 38 39 50
3 38 50 49
3 39 40 51
3 39 51 50
3 40 41 52
3 40 52 51
3 41 42 53
3 41 53 52
3 42 43 54
3 42 54 53
3 44 45 56
3 44 56 55
3 45 46 57
3 45 57 56
3 46 47 58
3 46 58 57
3 47 48 59
3 47 59 58
3 48 49 60
3 48 60 59
3 49 50 61
3 49 61 60
3 50 51 62
3 50 62 61
3 51 52 63
3 51 63 62
3 52 53 64
3 52 64 63
3 53 54 65
3 53 65 64
3 55 56 67
3 55 67 66
3 56 57 68
3 56 68 67
3 57 58 69
3 57 69 68
3 58 59 70
3 58 70 69
3 59 60 71
3 59 71 70
3 60 61 72
3 60 72 71
3 61 62 73
3 61 73 72
3 62 63 74
3 62 74 73
3 63 64 75
3 63 75 74
3 64 65 76
3 64 76 75
3 66 67 78
3 66 78 77
3 67 68 79
3 67 79 78
3 68 69 80
3 68 80 79
3 69 70 81
3 69 81 80
3 70 71 82
3 70 82 81
3 71 72 83
3 71 83 82
3 72 73 84
3 72 84 83
3 73 74 85
3 73 85 84
3 74 75 86
3 74 86 85
3 75 76 87
3 75 87 86
3 77 78 89
3 77 89 88
3 78 79 90
3 78 90 89
3 79 80 91
3 79 91 90
3 80 81 92
3 80 92 91
3 81 82 93
3 81 93 92
3 82 83 94
3 82 94 93
3 83 84 95
3 83 95 94
3 84 85 96
3 84 96 95
3 85 86 97
3 85 97 96
3 86 87 98
3 86 98 97
3 88 89 100
3 88 100 99
3 89 90 101
3 89 101 100
3 90 91 102
3 90 102 101
3 91 92 103
3 91 103 102
3 92 93 104
3 92 104 103
3 93 94 105
3 93 105 104
3 94 95 106
3 94 106 105
3 95 96 107
3 95 107 106
3 96 97 108
3 96 108 107
3 97 98 109
3 97 109 108
3 99 100 111
3 99 111 110
3 100 101 112
3 100 112 111
3 101 102 113
3 101 113 112
3 102 103 114
3 102 114 113
3 103 104 115
3 103 115 114
3 104 105 116
3 104 116 115
3 105 106 117
3 105 117 116
3 106 107 118
3 106 118 117
3 107 108 119
3 107 119 118
3 108 109 120
3 108 120 119
3 110 111 122
3 110 122 121
3 111 112 123
3 111 123 122
3 112 113 124
3 112 124 123
3 113 114 125
3 113 125 124
3 114 115 126
3 114 126 125
3 115 116 127
3 115 127 126
3 116 117 128
3 116 128 127
3 117 118 129
3 117 129 128
3 118 119 130
3 118 130 129
3 119 120 131
3 119 131 130
3 121 122 133
3 121 133 132
3 122 123 134
3 122 134 133
3 123 124 135
3 123 135 134
3 124 125 136
3 124 136 135
3 125 126 137
3 125 137 136
3 126 127 138
3 126 138 137
3 127 128 139
3 127 139 138
3 128 129 140
3 128 140 139
3 129 130 141
3 129 141 140
3 130 131 142
3 130 142 141
3 132 133 144
3 132 144 143
3 133 134 145
3 133 145 144
3 134 135 146
3 134 146 145
3 135 136 147
3 135 147 146
3 136 137 148
3 136 148 147
3 137 138 149
3 137 149 148
3 138 139 150
3 138 150 149
3 139 140 151
3 139 151 150
3 140 141 152
3 140 152 151
3 141 142 153
3 141 153 152
3 143 144 155
3 143 155 154
3 144 145 156
3 144 156 155
3 145 146 157
3 145 157 156
3 146 147 158
3 146 158 157
3 147 148 159
3 147 159 158
3 148 149 160
3 148 160 159
3 149 150 161
3 149 161 160
3 150 151 162
3 150 162 161
3 151 152 163
3 151 163 162
3 152 153 164
3 152 164 163
3 154 155 166
3 154 166 165
3 155 156 167
3 155 167 166
3 156 157 168
3 156 168 167
3 157 158 169
3 157 169 168
3 158 159 170
3 158 170 169
3 159 160 171
3 159 171 170
3 160 161 172
3 160 172 171
3 161 162 173
3 161 173 172
3 162 163 174
3 162 174 173
3 163 164 175
3 163 175 174
3 165 166 177
3 165 177 176
3 166 167 178
3 166 178 177
3 167 168 179
3 167 179 178
3 168 169 180
3 168 180 179
3 169 170 181
3 169 181 180
3 170 171 182
3 170 182 181
3 171 172 183
3 171 183 182
3 172 173 184
3 172 184 183
3 173 174 185
3 173 185 184
3 174 175 186
3 174 186 185
3 176 177 188
3 176 188 187
3 177 178 189
3 177 189 188
3 178 179 190
3 178 190 189
3 179 180 191
3 179 191 190
3 180 181 192
3 180 192 191
3 181 182 193
3 181 193 192
3 182 183 194
3 182 194 193
3 183 184 195
3 183 195 194
3 184 185 196
3 184 196 195
3 185 186 197
3 185 197 196
3 187 188 199
3 187 199 198
3 188 189 200
3 188 200 199
3 189 190 201
3 189 201 200
3 190 191 202
3 190 202 201
3 191 192 203
3 191 203 202
3 192 193 204
3 192 204 203
3 193 194 205
3 193 205 204
3 194 195 206
3 194 206 205
3 195 196 207
3 195 207 206
3 196 197 208
3 196 208 207
3 198 199 210
3 198 210 209
3 199 200 211
3 199 211 210
3 200 201 212
3 200 212 211
3 201 202 213
3 201 213 212
3 202 203 214
3 202 214 213
3 203 204 215
3 203 215 214
3 204 205 216
3 204 216 215
3 205 206 217
3 205 217 216
3 206 207 218
3 206 218 217
3 207 208 219
3 207 219 218
3 209 210 221
3 209 221 220
3 210 211 222
3 210 222 221
3 211 212 223
3 211 223 222
3 212 213 224
3 212 224 223
3 213 214 225
3 213 225 224
3 214 215 226
3 214 226 225
3 215 216 227
3 215 227 226
3 216 217 228
3 216 228 227
3 217 218 229
3 217 229 228
3 218 219 230
3 218 230 229
CELL_TYPES 400
5
5
5
5
5
5
5
5
5
5
5
5
5
5
5
5
5
5
5
5
5
5
5
5
5
5
5
5
5
5
5
5
5
5
5
5
5
5
5
5
5
5
5
5
5
5
5
5
5
5
5
5
5
5
5
5
5
5
5
5
5
5
5
5
5
5
5
5
5
5
5
5
5
5
5
5
5
5
5
5
5
5
5
5
5
5
5
5
5
5
5
5
5
5
5
5
5
5
5
5
5
5
5
5
5
5
5
5
5
5
5
5
5
5
5
5
5
5
5
5
5
5
5
5
5
5
5
5
5
5
5
5
5
5
5
5
5
5
5
5
5
5
5
5
5
5
5
5
5
5
5
5
5
5
5
5
5
5
5
5
5
5
5
5
5
5
5
5
5
5
5
5
5
5
5
5
5
5
5
5
5
5
5
5
5
5
5
5
5
5
5
5
5
5
5
5
5
5
5
5
5
5
5
5
5
5
5
5
5
5
5
5
5
5
5
5
5
5
5
5
5
5
5
5
5
5
5
5
5
5
5
5
5
5
5
5
5
5
5
5
5
5
5
5
5
5
5
5
5
5
5
5
5
5
5
5
5
5
5
5
5
5
5
5
5
5
5
5
5
5
5
5
5
5
5
5
5
5
5
5
5
5
5
5
5
5
5
5
5
5
5
5
5
5
5
5
5
5
5
5
5
5
5
5
5
5
5
5
5
5
5
5
5
5
5
5
5
5
5
5
5
5
5
5
5
5
5
5
5
5
5
5
5
5
5
5
5
5
5
5
5
5
5
5
5
5
5
5
5
5
5
5
5
5
5
5
5
5
5
5
5
5
5
5
5
5
5
5
5
5
5
5
5
5
5
5
5
5
5
5
5
5
5
5
5
5
5
5
5
5
5
5
5
5
5
5
5
5
5
5
POINT_DATA 231
SCALARS psi double 1
LOOKUP_TABLE default
0.951698
0.894483
0.760597
0.550003
0.284804
-0.0046535
-0.289898
-0.5472
-0.755299
-0.891404
-0.93431
0.912164
0.858156
0.730546
0.528582
0.274124
-0.0036884
-0.277516
-0.524583
-0.72444
-0.856523
-0.903164
0.772751
0.728288
0.620755
0.448916
0.232421
-0.00353332
-0.235724
-0.445211
-0.614872
-0.727902
-0.775668
0.550429
0.519471
0.443518
0.320395
0.165213
-0.0030999
-0.167969
-0.316729
-0.437733
-0.519145
-0.556575
0.272661
0.259037
0.222138
0.159878
0.0812679
-0.00254981
-0.0833093
-0.156218
-0.216542
-0.258155
-0.278657
-0.0316793
-0.0258949
-0.0201362
-0.0158086
-0.0106393
-0.00200251
0.00926169
0.0193211
0.0253166
0.0273352
0.0271622
-0.333435
-0.308262
-0.260189
-0.189909
-0.101737
-0.00151324
0.100869
0.193054
0.264695
0.309885
0.33049
-0.603625
-0.560893
-0.475003
-0.345713
-0.18324
-0.00106799
0.182758
0.348304
0.478613
0.562309
0.601528
-0.816816
-0.760279
-0.644642
-0.468765
-0.247557
-0.000673503
0.24733
0.470617
0.647166
0.761273
0.815394
-0.953266
-0.888112
-0.75358
-0.547801
-0.288769
-0.000324112
0.288686
0.548766
0.754879
0.88862
0.952538
-1
-0.932293
-0.791524
-0.575342
-0.302941
1.16955e-10
0.302941
0.575342
0.791524
0.932293
1
-0.952538
-0.88862
-0.754879
-0.548766
-0.288686
0.000324113
0.288769
0.547801
0.75358
0.888112
0.953266
-0.815394
-0.761273
-0.647166
-0.470617
-0.24733
0.000673503
0.247557
0.468765
0.644642
0.760279
0.816816
-0.601528
-0.562309
-0.478613
-0.348304
-0.182758
0.00106799
0.18324
0.345713
0.475003
0.560893
0.603625
-0.33049
-0.309885
-0.264695
-0.193054
-0.100869
0.00151324
0.101737
0.189909
0.260189
0.308262
0.333435
-0.0271622
-0.0273352
-0.0253166
-0.0193211
-0.00926169
0.00200251
0.0106393
0.0158086
0.0201362
0.0258949
0.0316793
0.278657
0.258155
0.216542
0.156218
0.0833093
0.00254981
-0.0812679
-0.159878
-0.222138
-0.259037
-0.272661
0.556575
0.519145
0.437733
0.316729
0.167969
0.0030999
-0.165213
-0.320395
-0.443518
-0.519471
-0.550429
0.775668
0.727902
0.614872
0.445211
0.235724
0.00353332
-0.232421
-0.448916
-0.620755
-0.728288
-0.772751
0.903164
0.856523
0.72444
0.524583
0.277516
0.0036884
-0.274124
-0.528582
-0.730546
-0.858156
-0.912164
0.93431
0.891404
0.755299
0.5472
0.289898
0.0046535
-0.284804
-0.550003
-0.760597
-0.894483
-0.951698
VECTORS Et double
0.453689 -0.034019 0
0.435769 -0.0735553 0
0.369522 -0.135625 0
0.267058 -0.188089 0
0.138221 -0.219133 0
-0.00288307 -0.226725 0
-0.142408 -0.213901 0
-0.268186 -0.183631 0
-0.369515 -0.136533 0
-0.432437 -0.0771027 0
-0.426477 -0.0287432 0
0.6197 -0.0976705 0
0.613597 -0.0616532 0
0.521247 -0.120383 0
0.377588 -0.167248 0
0.196875 -0.194719 0
-0.00195357 -0.20119 0
-0.199369 -0.189685 0
-0.377456 -0.162949 0
-0.52038 -0.121415 0
-0.613634 -0.0755892 0
-0.642402 -0.0853434 0
0.781108 -0.119145 0
0.752274 -0.0485785 0
0.640063 -0.0992126 0
0.463926 -0.138249 0
0.242401 -0.160742 0
-0.00178437 -0.165643 0
-0.24464 -0.155972 0
-0.46371 -0.134164 0
-0.63914 -0.100327 0
-0.757466 -0.0663052 0
-0.803227 -0.12034 0
0.901438 -0.103814 0
0.851192 -0.0330213 0
0.724635 -0.0712421 0
0.525358 -0.099879 0
0.274732 -0.115779 0
-0.00175937 -0.118599 0
-0.276933 -0.111356 0
-0.525124 -0.0960778 0
-0.723655 -0.0723772 0
-0.859302 -0.0500454 0
-0.923605 -0.109563 0
0.971314 -0.0575146 0
0.909786 -0.0142108 0
0.774388 -0.0364084 0
0.561528 -0.0520372 0
0.293769 -0.0597133 0
-0.00171667 -0.0599394 0
-0.295831 -0.0557316 0
-0.561046 -0.0486034 0
-0.773118 -0.0374955 0
-0.917031 -0.0270739 0
-0.991979 -0.0640048 0
0.983157 0.00945992 0
0.920413 0.0071407 0
0.782718 0.00396708 0
0.567645 0.00347284 0
0.297005 0.00534298 0
-0.0016426 0.00811371 0
-0.298812 0.0087815 0
-0.566706 0.00644765 0
-0.780908 0.00299294 0
-0.923388 0.000336429 0
-0.999977 0.00414291 0
0.925185 0.0799942 0
0.866114 0.0287596 0
0.735357 0.0452438 0
0.533353 0.0602939 0
0.279019 0.0719382 0
-0.00153474 0.0777478 0
-0.280491 0.0747602 0
-0.531853 0.0627415 0
-0.732886 0.0444439 0
-0.866118 0.0252228 0
-0.932637 0.0761931 0
0.78609 0.142356 0
0.733664 0.0496454 0
0.623038 0.0823226 0
0.451923 0.111422 0
0.236292 0.131865 0
-0.0014025 0.140352 0
-0.237393 0.134022 0
-0.449853 0.113295 0
-0.619936 0.0817272 0
-0.733019 0.0469727 0
-0.787984 0.139439 0
0.568601 0.191168 0
0.531471 0.0662056 0
0.451749 0.111618 0
0.327705 0.151928 0
0.171087 0.17934 0
-0.00127236 0.189856 0
-0.171853 0.180797 0
-0.325152 0.153191 0
-0.44811 0.111219 0
-0.530401 0.0643945 0
-0.57112 0.189102 0
0.297839 0.222281 0
0.279244 0.0766554 0
0.238045 0.13034 0
0.172695 0.17798 0
0.0896982 0.209879 0
-0.0011759 0.221559 0
-0.0902283 0.210608 0
-0.169829 0.178612 0
-0.234084 0.130151 0
-0.277854 0.07574 0
-0.300228 0.221204 0
-0.00116915 0.232644 0
0.000749049 0.0799539 0
0.00205245 0.136718 0
0.00149185 0.187159 0
-0.00022112 0.220623 0
-0.00114075 0.232463 0
-0.000221125 0.220627 0
0.00149598 0.187157 0
0.00204352 0.136722 0
0.000726912 0.0799583 0
-0.00116909 0.232633 0
-0.300223 0.221205 0
-0.277849 0.0757464 0
-0.234059 0.130146 0
-0.169826 0.178621 0
-0.0902284 0.210615 0
-0.00117588 0.221554 0
0.0897031 0.209882 0
0.172693 0.177983 0
0.238052 0.130339 0
0.27927 0.0766471 0
0.297866 0.222327 0
-0.571092 0.189111 0
-0.530374 0.064394 0
-0.448114 0.111228 0
-0.325159 0.153194 0
-0.171855 0.1808 0
-0.00127233 0.18985 0
0.171097 0.179346 0
0.327712 0.151927 0
0.451726 0.111613 0
0.531401 0.0661963 0
0.568422 0.191106 0
-0.788014 0.139446 0
-0.733029 0.0469734 0
-0.619928 0.0817267 0
-0.449855 0.113296 0
-0.237386 0.134017 0
-0.00140252 0.140354 0
0.236295 0.131867 0
0.451934 0.111428 0
0.622899 0.0823118 0
0.733752 0.0496465 0
0.78588 0.142333 0
-0.932576 0.0761859 0
-0.866139 0.0252248 0
-0.732898 0.0444452 0
-0.531846 0.0627402 0
-0.280497 0.0747627 0
-0.00153476 0.0777495 0
0.279031 0.0719411 0
0.533389 0.0602974 0
0.73536 0.0452441 0
0.866064 0.0287554 0
0.925173 0.0799841 0
-0.999991 0.00414301 0
-0.923402 0.000336425 0
-0.780904 0.00299299 0
-0.566702 0.00644761 0
-0.298814 0.00878159 0
-0.00164265 0.00811389 0
0.297009 0.00534309 0
0.567652 0.00347269 0
0.782715 0.00396677 0
0.920313 0.00713976 0
0.982427 0.0094534 0
-0.991973 -0.0640038 0
-0.917015 -0.0270731 0
-0.773107 -0.0374973 0
-0.561054 -0.0486032 0
-0.295849 -0.0557364 0
-0.00171664 -0.0599384 0
0.293778 -0.0597141 0
0.561542 -0.0520365 0
0.774396 -0.0364091 0
0.909893 -0.0142239 0
0.971537 -0.0575193 0
-0.923583 -0.109564 0
-0.859298 -0.050046 0
-0.72364 -0.0723771 0
-0.525117 -0.0960761 0
-0.276925 -0.111354 0
-0.00175933 -0.118594 0
0.274749 -0.115786 0
0.525358 -0.0998733 0
0.72461 -0.0712395 0
0.8512 -0.0330144 0
0.901983 -0.103856 0
-0.803216 -0.120339 0
-0.757471 -0.066307 0
-0.639144 -0.100329 0
-0.463711 -0.134167 0
-0.244652 -0.155984 0
-0.00178429 -0.165639 0
0.24237 -0.160718 0
0.464053 -0.138278 0
0.640277 -0.0992373 0
0.752573 -0.0485877 0
0.780223 -0.119088 0
-0.642384 -0.0853432 0
-0.613637 -0.0755837 0
-0.520373 -0.121408 0
-0.377484 -0.162971 0
-0.199362 -0.189686 0
-0.0019535 -0.201174 0
0.19691 -0.194765 0
0.37757 -0.16726 0
0.521635 -0.120451 0
0.613222 -0.0616232 0
0.618714 -0.0976084 0
-0.426477 -0.0287431 0
-0.432432 -0.0770949 0
-0.369497 -0.136542 0
-0.268196 -0.18362 0
-0.142387 -0.213895 0
-0.00288325 -0.22674 0
0.138191 -0.219095 0
0.267048 -0.188014 0
0.369413 -0.135609 0
0.435811 -0.0735116 0
0.451754 -0.0338042 0
