# vtk DataFile Version 3.0
tp3485 scalar+vector
ASCII
DATASET UNSTRUCTURED_GRID
POINTS 231 double
0 0 0
0.1 0 0
0.2 0 0
0.3 0 0
0.4 0 0
0.5 0 0
0.6 0 0
0.7 0 0
0.8 0 0
0.9 0 0
1 0 0
0 0.025 0
0.1 0.025 0
0.2 0.025 0
0.3 0.025 0
0.4 0.025 0
0.5 0.025 0
0.6 0.025 0
0.7 0.025 0
0.8 0.025 0
0.9 0.025 0
1 0.025 0
0 0.05 0
0.1 0.05 0
0.2 0.05 0
0.3 0.05 0
0.4 0.05 0
0.5 0.05 0
0.6 0.05 0
0.7 0.05 0
0.8 0.05 0
0.9 0.05 0
1 0.05 0
0 0.075 0
0.1 0.075 0
0.2 0.075 0
0.3 0.075 0
0.4 0.075 0
0.5 0.075 0
0.6 0.075 0
0.7 0.075 0
0.8 0.075 0
0.9 0.075 0
1 0.075 0
0 0.1 0
0.1 0.1 0
0.2 0.1 0
0.3 0.1 0
0.4 0.1 0
0.5 0.1 0
0.6 0.1 0
0.7 0.1 0
0.8 0.1 0
0.9 0.1 0
1 0.1 0
0 0.125 0
0.1 0.125 0
0.2 0.125 0
0.3 0.125 0
0.4 0.125 0
0.5 0.125 0
0.6 0.125 0
0.7 0.125 0
0.8 0.125 0
0.9 0.125 0
1 0.125 0
0 0.15 0
0.1 0.15 0
0.2 0.15 0
0.3 0.15 0
0.4 0.15 0
0.5 0.15 0
0.6 0.15 0
0.7 0.15 0
0.8 0.15 0
0.9 0.15 0
1 0.15 0
0 0.175 0
0.1 0.175 0
0.2 0.175 0
0.3 0.175 0
0.4 0.175 0
0.5 0.175 0
0.6 0.175 0
0.7 0.175 0
0.8 0.175 0
0.9 0.175 0
1 0.175 0
0 0.2 0
0.1 0.2 0
0.2 0.2 0
0.3 0.2 0
0.4 0.2 0
0.5 0.2 0
0.6 0.2 0
0.7 0.2 0
0.8 0.2 0
0.9 0.2 0
1 0.2 0
0 0.225 0
0.1 0.225 0
0.2 0.225 0
0.3 0.225 0
0.4 0.225 0
0.5 0.225 0
0.6 0.225 0
0.7 0.225 0
0.8 0.225 0
0.9 0.225 0
1 0.225 0
0 0.25 0
0.1 0.25 0
0.2 0.25 0
0.3 0.25 0
0.4 0.25 0
0.5 0.25 0
0.6 0.25 0
0.7 0.25 0
0.8 0.25 0
0.9 0.25 0
1 0.25 0
0 0.275 0
0.1 0.275 0
0.2 0.275 0
0.3 0.275 0
0.4 0.275 0
0.5 0.275 0
0.6 0.275 0
0.7 0.275 0
0.8 0.275 0
0.9 0.275 0
1 0.275 0
0 0.3 0
0.1 0.3 0
0.2 0.3 0
0.3 0.3 0
0.4 0.3 0
0.5 0.3 0
0.6 0.3 0
0.7 0.3 0
0.8 0.3 0
0.9 0.3 0
1 0.3 0
0 0.325 0
0.1 0.325 0
0.2 0.325 0
0.3 0.325 0
0.4 0.325 0
0.5 0.325 0
0.6 0.325 0
0.7 0.325 0
0.8 0.325 0
0.9 0.325 0
1 0.325 0
0 0.35 0
0.1 0.35 0
0.2 0.35 0
0.3 0.35 0
0.4 0.35 0
0.5 0.35 0
0.6 0.35 0
0.7 0.35 0
0.8 0.35 0
0.9 0.35 0
1 0.35 0
0 0.375 0
0.1 0.375 0
0.2 0.375 0
0.3 0.375 0
0.4 0.375 0
0.5 0.375 0
0.6 0.375 0
0.7 0.375 0
0.8 0.375 0
0.9 0.375 0
1 0.375 0
0 0.4 0
0.1 0.4 0
0.2 0.4 0
0.3 0.4 0
0.4 0.4 0
0.5 0.4 0
0.6 0.4 0
0.7 0.4 0
0.8 0.4 0
0.9 0.4 0
1 0.4 0
0 0.425 0
0.1 0.425 0
0.2 0.425 0
0.3 0.425 0
0.4 0.425 0
0.5 0.425 0
0.6 0.425 0
0.7 0.425 0
0.8 0.425 0
0.9 0.425 0
1 0.425 0
0 0.45 0
0.1 0.45 0
0.2 0.45 0
0.3 0.45 0
0.4 0.45 0
0.5 0.45 0
0.6 0.45 0
0.7 0.45 0
0.8 0.45 0
0.9 0.45 0
1 0.45 0
0 0.475 0
0.1 0.475 0
0.2 0.475 0
0.3 0.475 0
0.4 0.475 0
0.5 0.475 0
0.6 0.475 0
0.7 0.475 0
0.8 0.475 0
0.9 0.475 0
1 0.475 0
0 0.5 0
0.1 0.5 0
0.2 0.5 0
0.3 0.5 0
0.4 0.5 0
0.5 0.5 0
0.6 0.5 0
0.7 0.5 0
0.8 0.5 0
0.9 0.5 0
1 0.5 0
CELLS 400 1600
3 0 1 12
3 0 12 11
3 1 2 13
3 1 13 12
3 2 3 14
3 2 14 13
3 3 4 15
3 3 15 14
3 4 5 16
3 4 16 15
3 5 6 17
3 5 17 16
3 6 7 18
3 6 18 17
3 7 8 19
3 7 19 18
3 8 9 20
3 8 20 19
3 9 10 21
3 9 21 20
3 11 12 23
3 11 23 22
3 12 13 24
3 12 24 23
3 13 14 25
3 13 25 24
3 14 15 26
3 14 26 25
3 15 16 27
3 15 27 26
3 16 17 28
3 16 28 27
3 17 18 29
3 17 29 28
3 18 19 30
3 18 30 29
3 19 20 31
3 19 31 30
3 20 21 32
3 20 32 31
3 22 23 34
3 22 34 33
3 23 24 35
3 23 35 34
3 24 25 36
3 24 36 35
3 25 26 37
3 25 37 36
3 26 27 38
3 26 38 37
3 27 28 39
3 27 39 38
3 28 29 40
3 28 40 39
3 29 30 41
3 29 41 40
3 30 31 42
3 30 42 41
3 31 32 43
3 31 43 42
3 33 34 45
3 33 45 44
3 34 35 46
3 34 46 45
3 35 36 47
3 35 47 46
3 36 37 48
3 36 48 47
3 37 38 49
3 37 49 48
3 38 39 50
3 38 50 49
3 39 40 51
3 39 51 50
3 40 41 52
3 40 52 51
3 41 42 53
3 41 53 52
3 42 43 54
3 42 54 53
3 44 45 56
3 44 56 55
3 45 46 57
3 45 57 56
3 46 47 58
3 46 58 57
3 47 48 59
3 47 59 58
3 48 49 60
3 48 60 59
3 49 50 61
3 49 61 60
3 50 51 62
3 50 62 61
3 51 52 63
3 51 63 62
3 52 53 64
3 52 64 63
3 53 54 65
3 53 65 64
3 55 56 67
3 55 67 66
3 56 57 68
3 56 68 67
3 57 58 69
3 57 69 68
3 58 59 70
3 58 70 69
3 59 60 71
3 59 71 70
3 60 61 72
3 60 72 71
3 61 62 73
3 61 73 72
3 62 63 74
3 62 74 73
3 63 64 75
3 63 75 74
3 64 65 76
3 64 76 75
3 66 67 78
3 66 78 77
3 67 68 79
3 67 79 78
3 68 69 80
3 68 80 79
3 69 70 81
3 69 81 80
3 70 71 82
3 70 82 81
3 71 72 83
3 71 83 82
3 72 73 84
3 72 84 83
3 73 74 85
3 73 85 84
3 74 75 86
3 74 86 85
3 75 76 87
3 75 87 86
3 77 78 89
3 77 89 88
3 78 79 90
3 78 90 89
3 79 80 91
3 79 91 90
3 80 81 92
3 80 92 91
3 81 82 93
3 81 93 92
3 82 83 94
3 82 94 93
3 83 84 95
3 83 95 94
3 84 85 96
3 84 96 95
3 85 86 97
3 85 97 96
3 86 87 98
3 86 98 97
3 88 89 100
3 88 100 99
3 89 90 101
3 89 101 100
3 90 91 102
3 90 102 101
3 91 92 103
3 91 103 102
3 92 93 104
3 92 104 103
3 93 94 105
3 93 105 104
3 94 95 106
3 94 106 105
3 95 96 107
3 95 107 106
3 96 97 108
3 96 108 107
3 97 98 109
3 97 109 108
3 99 100 111
3 99 111 110
3 100 101 112
3 100 112 111
3 101 102 113
3 101 113 112
3 102 103 114
3 102 114 113
3 103 104 115
3 103 115 114
3 104 105 116
3 104 116 115
3 105 106 117
3 105 117 116
3 106 107 118
3 106 118 117
3 107 108 119
3 107 119 118
3 108 109 120
3 108 120 119
3 110 111 122
3 110 122 121
3 111 112 123
3 111 123 122
3 112 113 124
3 112 124 123
3 113 114 125
3 113 125 124
3 114 115 126
3 114 126 125
3 115 116 127
3 115 127 126
3 116 117 128
3 116 128 127
3 117 118 129
3 117 129 128
3 118 119 130
3 118 130 129
3 119 120 131
3 119 131 130
3 121 122 133
3 121 133 132
3 122 123 134
3 122 134 133
3 123 124 135
3 123 135 134
3 124 125 136
3 124 136 135
3 125 126 137
3 125 137 136
3 126 127 138
3 126 138 137
3 127 128 139
3 127 139 138
3 128 129 140
3 128 140 139
3 129 130 141
3 129 141 140
3 130 131 142
3 130 142 141
3 132 133 144
3 132 144 143
3 133 134 145
3 133 145 144
3 134 135 146
3 134 146 145
3 135 136 147
3 135 147 146
3 136 137 148
3 136 148 147
3 137 138 149
3 137 149 148
3 138 139 150
3 138 150 149
3 139 140 151
3 139 151 150
3 140 141 152
3 140 152 151
3 141 142 153
3 141 153 152
3 143 144 155
3 143 155 154
3 144 145 156
3 144 156 155
3 145 146 157
3 145 157 156
3 146 147 158
3 146 158 157
3 147 148 159
3 147 159 158
3 148 149 160
3 148 160 159
3 149 150 161
3 149 161 160
3 150 151 162
3 150 162 161
3 151 152 163
3 151 163 162
3 152 153 164
3 152 164 163
3 154 155 166
3 154 166 165
3 155 156 167
3 155 167 166
3 156 157 168
3 156 168 167
3 157 158 169
3 157 169 168
3 158 159 170
3 158 170 169
3 159 160 171
3 159 171 170
3 160 161 172
3 160 172 171
3 161 162 173
3 161 173 172
3 162 163 174
3 162 174 173
3 163 164 175
3 163 175 174
3 165 166 177
3 165 177 176
3 166 167 178
3 166 178 177
3 167 168 179
3 167 179 178
3 168 169 180
3 168 180 179
3 169 170 181
3 169 181 180
3 170 171 182
3 170 182 181
3 171 172 183
3 171 183 182
3 172 173 184
3 172 184 183
3 173 174 185
3 173 185 184
3 174 175 186
3 174 186 185
3 176 177 188
3 176 188 187
3 177 178 189
3 177 189 188
3 178 179 190
3 178 190 189
3 179 180 191
3 179 191 190
3 180 181 192
3 180 192 191
3 181 182 193
3 181 193 192
3 182 183 194
3 182 194 193
3 183 184 195
3 183 195 194
3 184 185 196
3 184 196 195
3 185 186 197
3 185 197 196
3 187 188 199
3 187 199 198
3 188 189 200
3 188 200 199
3 189 190 201
3 189 201 200
3 190 191 202
3 190 202 201
3 191 192 203
3 191 203 202
3 192 193 204
3 192 204 203
3 193 194 205
3 193 205 204
3 194 195 206
3 194 206 205
3 195 196 207
3 195 207 206
3 196 197 208
3 196 208 207
3 198 199 210
3 198 210 209
3 199 200 211
3 199 211 210
3 200 201 212
3 200 212 211
3 201 202 213
3 201 213 212
3 202 203 214
3 202 214 213
3 203 204 215
3 203 215 214
3 204 205 216
3 204 216 215
3 205 206 217
3 205 217 216
3 206 207 218
3 206 218 217
3 207 208 219
3 207 219 218
3 209 210 221
3 209 221 220
3 210 211 222
3 210 222 221
3 211 212 223
3 211 223 222
3 212 213 224
3 212 224 223
3 213 214 225
3 213 225 224
3 214 215 226
3 214 226 225
3 215 216 227
3 215 227 226
3 216 217 228
3 216 228 227
3 217 218 229
3 217 229 228
3 218 219 230
3 218 230 229
CELL_TYPES 400
5
5
5
5
5
5
5
5
5
5
5
5
5
5
5
5
5
5
5
5
5
5
5
5
5
5
5
5
5
5
5
5
5
5
5
5
5
5
5
5
5
5
5
5
5
5
5
5
5
5
5
5
5
5
5
5
5
5
5
5
5
5
5
5
5
5
5
5
5
5
5
5
5
5
5
5
5
5
5
5
5
5
5
5
5
5
5
5
5
5
5
5
5
5
5
5
5
5
5
5
5
5
5
5
5
5
5
5
5
5
5
5
5
5
5
5
5
5
5
5
5
5
5
5
5
5
5
5
5
5
5
5
5
5
5
5
5
5
5
5
5
5
5
5
5
5
5
5
5
5
5
5
5
5
5
5
5
5
5
5
5
5
5
5
5
5
5
5
5
5
5
5
5
5
5
5
5
5
5
5
5
5
5
5
5
5
5
5
5
5
5
5
5
5
5
5
5
5
5
5
5
5
5
5
5
5
5
5
5
5
5
5
5
5
5
5
5
5
5
5
5
5
5
5
5
5
5
5
5
5
5
5
5
5
5
5
5
5
5
5
5
5
5
5
5
5
5
5
5
5
5
5
5
5
5
5
5
5
5
5
5
5
5
5
5
5
5
5
5
5
5
5
5
5
5
5
5
5
5
5
5
5
5
5
5
5
5
5
5
5
5
5
5
5
5
5
5
5
5
5
5
5
5
5
5
5
5
5
5
5
5
5
5
5
5
5
5
5
5
5
5
5
5
5
5
5
5
5
5
5
5
5
5
5
5
5
5
5
5
5
5
5
5
5
5
5
5
5
5
5
5
5
5
5
5
5
5
5
5
5
5
5
5
5
5
5
5
5
5
5
5
5
5
5
5
5
5
5
5
5
5
5
5
5
5
5
5
5
5
5
5
5
5
5
5
5
5
5
5
5
POINT_DATA 231
SCALARS psi double 1
LOOKUP_TABLE default
-1
-0.312076
0.790962
0.785223
-0.320563
-0.999747
-0.314339
0.788146
0.784683
-0.317923
-0.968098
-0.949874
-0.30418
0.761286
0.75988
-0.306128
-0.964832
-0.306539
0.758714
0.75931
-0.303895
-0.94668
-0.919004
-0.294975
0.741276
0.740289
-0.296138
-0.936667
-0.296642
0.739129
0.739698
-0.29412
-0.922738
-0.897112
-0.286483
0.725788
0.725156
-0.286509
-0.911673
-0.286791
0.724226
0.724485
-0.284895
-0.900192
-0.882154
-0.279432
0.716411
0.716161
-0.278264
-0.892677
-0.278238
0.715526
0.715348
-0.277284
-0.883196
-0.872581
-0.2738
0.712341
0.712548
-0.271537
-0.879532
-0.271298
0.712162
0.711556
-0.271442
-0.871934
-0.866667
-0.269324
0.71177
0.712473
-0.266111
-0.870781
-0.265819
0.712243
0.711287
-0.267092
-0.865137
-0.862899
-0.265845
0.712933
0.714072
-0.261843
-0.864986
-0.261587
0.713938
0.712686
-0.263991
-0.861143
-0.860175
-0.263219
0.71434
0.715813
-0.258623
-0.860991
-0.258456
0.715731
0.714246
-0.26189
-0.858702
-0.858249
-0.261437
0.715348
0.717015
-0.256581
-0.858544
-0.2565
0.716976
0.715324
-0.260744
-0.857429
-0.857293
-0.260592
0.715705
0.717426
-0.255856
-0.857713
-0.255856
0.717426
0.715705
-0.260592
-0.857293
-0.857429
-0.260744
0.715324
0.716976
-0.2565
-0.858544
-0.256581
0.717015
0.715348
-0.261437
-0.858249
-0.858702
-0.26189
0.714246
0.715731
-0.258456
-0.860991
-0.258623
0.715813
0.71434
-0.263219
-0.860175
-0.861143
-0.263991
0.712686
0.713938
-0.261587
-0.864986
-0.261843
0.714072
0.712933
-0.265845
-0.862899
-0.865137
-0.267092
0.711287
0.712243
-0.265819
-0.870781
-0.266111
0.712473
0.71177
-0.269324
-0.866667
-0.871934
-0.271442
0.711556
0.712162
-0.271298
-0.879532
-0.271537
0.712548
0.712341
-0.2738
-0.872581
-0.883196
-0.277284
0.715348
0.715526
-0.278238
-0.892677
-0.278264
0.716161
0.716411
-0.279432
-0.882154
-0.900192
-0.284895
0.724485
0.724226
-0.286791
-0.911673
-0.286509
0.725156
0.725788
-0.286483
-0.897112
-0.922738
-0.29412
0.739698
0.739129
-0.296642
-0.936667
-0.296138
0.740289
0.741276
-0.294975
-0.919004
-0.94668
-0.303895
0.75931
0.758714
-0.306539
-0.964832
-0.306128
0.75988
0.761286
-0.30418
-0.949874
-0.968098
-0.317923
0.784683
0.788146
-0.314339
-0.999747
-0.320563
0.785223
0.790962
-0.312076
-1
VECTORS Et double
-0.163645 0.747219 0
-0.110704 0.972937 0
0.288145 0.607559 0
0.277415 -0.610825 0
-0.124665 -0.9853 0
-0.364166 0.000940757 0
-0.110359 0.985387 0
0.285956 0.60814 0
0.277413 -0.608296 0
-0.124473 -0.992223 0
-0.0960275 -0.733283 0
-0.129327 0.723031 0
-0.0836669 0.963052 0
0.199788 0.601132 0
0.194823 -0.603536 0
-0.0914754 -0.974203 0
-0.265215 0.000638912 0
-0.0867384 0.974124 0
0.197336 0.601437 0
0.19493 -0.601273 0
-0.0930511 -0.977162 0
-0.092724 -0.727163 0
-0.0998783 0.709457 0
-0.0571737 0.952268 0
0.122614 0.594066 0
0.119525 -0.595572 0
-0.0641116 -0.961992 0
-0.176304 0.000395127 0
-0.0625829 0.96179 0
0.119987 0.593992 0
0.119788 -0.593678 0
-0.0655384 -0.962134 0
-0.0839831 -0.716089 0
-0.0772911 0.698319 0
-0.0376172 0.941006 0
0.0662396 0.58677 0
0.0637887 -0.587364 0
-0.0445474 -0.949337 0
-0.110831 0.000223766 0
-0.044134 0.949066 0
0.0635326 0.58621 0
0.0642351 -0.58596 0
-0.0448061 -0.947609 0
-0.0709679 -0.703272 0
-0.0588824 0.690564 0
-0.0259239 0.930022 0
0.0316098 0.579711 0
0.0294538 -0.579383 0
-0.0325836 -0.937016 0
-0.070509 0.000118378 0
-0.0326139 0.936726 0
0.0289083 0.578569 0
0.03007 -0.578616 0
-0.0310118 -0.933739 0
-0.0561115 -0.693434 0
-0.0436504 0.686401 0
-0.0203852 0.920367 0
0.0145095 0.573412 0
0.0125574 -0.572181 0
-0.0263106 -0.925919 0
-0.049981 6.18058e-05 0
-0.0264562 0.925651 0
0.0119469 0.571636 0
0.0132906 -0.572164 0
-0.0226142 -0.921367 0
-0.0416546 -0.687616 0
-0.0308016 0.685033 0
-0.0171757 0.913916 0
0.00525193 0.568804 0
0.00356657 -0.566826 0
-0.0215953 -0.917681 0
-0.0368007 6.83353e-05 0
-0.0217031 0.917478 0
0.00300515 0.566431 0
0.00435508 -0.567608 0
-0.0171902 -0.913531 0
-0.0294152 -0.685304 0
-0.0199516 0.684947 0
-0.0134062 0.909885 0
-0.000464102 0.565995 0
-0.00179257 -0.563435 0
-0.0165125 -0.91256 0
-0.0252301 7.9529e-05 0
-0.0165014 0.912422 0
-0.00223081 0.563132 0
-0.00103095 -0.565013 0
-0.012255 -0.909238 0
-0.0194121 -0.684605 0
-0.0122525 0.684906 0
-0.00946199 0.90758 0
-0.00235988 0.564417 0
-0.00326788 -0.561453 0
-0.011283 -0.909648 0
-0.015847 7.05365e-05 0
-0.0111291 0.90957 0
-0.00355798 0.561245 0
-0.00266338 -0.563714 0
-0.00760849 -0.907038 0
-0.0109545 -0.684419 0
-0.00661646 0.684671 0
-0.00542409 0.906432 0
-0.00178445 0.563605 0
-0.00220518 -0.560426 0
-0.00579584 -0.908227 0
-0.00767682 4.59571e-05 0
-0.00556602 0.908179 0
-0.00244191 0.560306 0
-0.00189139 -0.563296 0
-0.00313709 -0.906118 0
-0.00438138 -0.684375 0
-0.00128754 0.684456 0
-0.00121777 0.905984 0
1.60399e-05 0.563242 0
9.61752e-05 -0.560095 0
-0.000123617 -0.907775 0
6.80494e-06 2.84433e-10 0
0.00012362 0.907794 0
-8.99184e-05 0.560093 0
-2.59671e-05 -0.563273 0
0.00122523 -0.905952 0
0.00128748 -0.684414 0
0.00439354 0.684385 0
0.00313858 0.906119 0
0.00188514 0.56324 0
0.00242215 -0.560335 0
0.00556818 -0.908197 0
0.00769025 -3.81282e-05 0
0.00579315 0.908253 0
0.00220064 0.560432 0
0.0017762 -0.563648 0
0.00542366 -0.906503 0
0.0066665 -0.684828 0
0.0110401 0.68446 0
0.00761938 0.907036 0
0.00265015 0.563723 0
0.00356876 -0.561251 0
0.0111292 -0.909575 0
0.0158738 -7.46279e-05 0
0.0112802 0.909691 0
0.00328148 0.561449 0
0.00233241 -0.564421 0
0.00946773 -0.907487 0
0.0122734 -0.684702 0
0.0194102 0.684634 0
0.0122586 0.909258 0
0.00101867 0.565012 0
0.00223251 -0.563134 0
0.0164996 -0.912392 0
0.0252373 -7.74735e-05 0
0.0165128 0.912573 0
0.00179487 0.563456 0
0.00043675 -0.565873 0
0.0134132 -0.910003 0
0.0200114 -0.68481 0
0.0293988 0.68525 0
0.0171829 0.913547 0
-0.00436052 0.567616 0
-0.00300568 -0.566421 0
0.0217031 -0.917496 0
0.0367877 -7.83491e-05 0
0.0215938 0.917719 0
-0.00354928 0.56686 0
-0.00526214 -0.56881 0
0.0171672 -0.913853 0
0.0308556 -0.685003 0
0.041661 0.687627 0
0.0226138 0.921381 0
-0.0132868 0.572159 0
-0.0119525 -0.571632 0
0.026461 -0.925657 0
0.0499891 -7.24694e-05 0
0.0263173 0.92593 0
-0.0125256 0.572178 0
-0.0144894 -0.573423 0
0.0203803 -0.920265 0
0.0436901 -0.685909 0
0.0560979 0.693429 0
0.031011 0.933723 0
-0.030061 0.578601 0
-0.0289099 -0.578572 0
0.0326094 -0.936786 0
0.0705055 -0.000114134 0
0.0325847 0.937052 0
-0.0294675 0.579385 0
-0.0315776 -0.579723 0
0.0259285 -0.930145 0
0.0589764 -0.690679 0
0.0709276 0.703274 0
0.0448049 0.947607 0
-0.0642352 0.585944 0
-0.0635266 -0.586203 0
0.0441348 -0.949031 0
0.110836 -0.000226836 0
0.0445523 0.949394 0
-0.06378 0.587351 0
-0.0663142 -0.586711 0
0.0375966 -0.941046 0
0.0772524 -0.698726 0
0.083969 0.716086 0
0.0655379 0.962143 0
-0.119788 0.59368 0
-0.119985 -0.594 0
0.0625825 -0.961844 0
0.176292 -0.00039726 0
0.0641035 0.961875 0
-0.119544 0.595723 0
-0.122619 -0.594309 0
0.0572031 -0.952623 0
0.0994739 -0.708918 0
0.092705 0.727159 0
0.0930508 0.977168 0
-0.194926 0.601274 0
-0.197358 -0.601493 0
0.0867307 -0.974112 0
0.26522 -0.000672595 0
0.0914848 0.974412 0
-0.194831 0.60353 0
-0.199954 -0.601577 0
0.0836526 -0.962276 0
0.129227 -0.721902 0
0.0960276 0.733283 0
0.124471 0.992211 0
-0.277395 0.608261 0
-0.285974 -0.608119 0
0.110337 -0.985298 0
0.364188 -0.000940813 0
0.124638 0.985072 0
-0.277438 0.610634 0
-0.288046 -0.607409 0
0.110693 -0.973295 0
0.162676 -0.7444 0
