# vtk DataFile Version 3.0
tp3485 scalar+vector
ASCII
DATASET UNSTRUCTURED_GRID
POINTS 231 double
0 0 0
0.1 0 0
0.2 0 0
0.3 0 0
0.4 0 0
0.5 0 0
0.6 0 0
0.7 0 0
0.8 0 0
0.9 0 0
1 0 0
0 0.025 0
0.1 0.025 0
0.2 0.025 0
0.3 0.025 0
0.4 0.025 0
0.5 0.025 0
0.6 0.025 0
0.7 0.025 0
0.8 0.025 0
0.9 0.025 0
1 0.025 0
0 0.05 0
0.1 0.05 0
0.2 0.05 0
0.3 0.05 0
0.4 0.05 0
0.5 0.05 0
0.6 0.05 0
0.7 0.05 0
0.8 0.05 0
0.9 0.05 0
1 0.05 0
0 0.075 0
0.1 0.075 0
0.2 0.075 0
0.3 0.075 0
0.4 0.075 0
0.5 0.075 0
0.6 0.075 0
0.7 0.075 0
0.8 0.075 0
0.9 0.075 0
1 0.075 0
0 0.1 0
0.1 0.1 0
0.2 0.1 0
0.3 0.1 0
0.4 0.1 0
0.5 0.1 0
0.6 0.1 0
0.7 0.1 0
0.8 0.1 0
0.9 0.1 0
1 0.1 0
0 0.125 0
0.1 0.125 0
0.2 0.125 0
0.3 0.125 0
0.4 0.125 0
0.5 0.125 0
0.6 0.125 0
0.7 0.125 0
0.8 0.125 0
0.9 0.125 0
1 0.125 0
0 0.15 0
0.1 0.15 0
0.2 0.15 0
0.3 0.15 0
0.4 0.15 0
0.5 0.15 0
0.6 0.15 0
0.7 0.15 0
0.8 0.15 0
0.9 0.15 0
1 0.15 0
0 0.175 0
0.1 0.175 0
0.2 0.175 0
0.3 0.175 0
0.4 0.175 0
0.5 0.175 0
0.6 0.175 0
0.7 0.175 0
0.8 0.175 0
0.9 0.175 0
1 0.175 0
0 0.2 0
0.1 0.2 0
0.2 0.2 0
0.3 0.2 0
0.4 0.2 0
0.5 0.2 0
0.6 0.2 0
0.7 0.2 0
0.8 0.2 0
0.9 0.2 0
1 0.2 0
0 0.225 0
0.1 0.225 0
0.2 0.225 0
0.3 0.225 0
0.4 0.225 0
0.5 0.225 0
0.6 0.225 0
0.7 0.225 0
0.8 0.225 0
0.9 0.225 0
1 0.225 0
0 0.25 0
0.1 0.25 0
0.2 0.25 0
0.3 0.25 0
0.4 0.25 0
0.5 0.25 0
0.6 0.25 0
0.7 0.25 0
0.8 0.25 0
0.9 0.25 0
1 0.25 0
0 0.275 0
0.1 0.275 0
0.2 0.275 0
0.3 0.275 0
0.4 0.275 0
0.5 0.275 0
0.6 0.275 0
0.7 0.275 0
0.8 0.275 0
0.9 0.275 0
1 0.275 0
0 0.3 0
0.1 0.3 0
0.2 0.3 0
0.3 0.3 0
0.4 0.3 0
0.5 0.3 0
0.6 0.3 0
0.7 0.3 0
0.8 0.3 0
0.9 0.3 0
1 0.3 0
0 0.325 0
0.1 0.325 0
0.2 0.325 0
0.3 0.325 0
0.4 0.325 0
0.5 0.325 0
0.6 0.325 0
0.7 0.325 0
0.8 0.325 0
0.9 0.325 0
1 0.325 0
0 0.35 0
0.1 0.35 0
0.2 0.35 0
0.3 0.35 0
0.4 0.35 0
0.5 0.35 0
0.6 0.35 0
0.7 0.35 0
0.8 0.35 0
0.9 0.35 0
1 0.35 0
0 0.375 0
0.1 0.375 0
0.2 0.375 0
0.3 0.375 0
0.4 0.375 0
0.5 0.375 0
0.6 0.375 0
0.7 0.375 0
0.8 0.375 0
0.9 0.375 0
1 0.375 0
0 0.4 0
0.1 0.4 0
0.2 0.4 0
0.3 0.4 0
0.4 0.4 0
0.5 0.4 0
0.6 0.4 0
0.7 0.4 0
0.8 0.4 0
0.9 0.4 0
1 0.4 0
0 0.425 0
0.1 0.425 0
0.2 0.425 0
0.3 0.425 0
0.4 0.425 0
0.5 0.425 0
0.6 0.425 0
0.7 0.425 0
0.8 0.425 0
0.9 0.425 0
1 0.425 0
0 0.45 0
0.1 0.45 0
0.2 0.45 0
0.3 0.45 0
0.4 0.45 0
0.5 0.45 0
0.6 0.45 0
0.7 0.45 0
0.8 0.45 0
0.9 0.45 0
1 0.45 0
0 0.475 0
0.1 0.475 0
0.2 0.475 0
0.3 0.475 0
0.4 0.475 0
0.5 0.475 0
0.6 0.475 0
0.7 0.475 0
0.8 0.475 0
0.9 0.475 0
1 0.475 0
0 0.5 0
0.1 0.5 0
0.2 0.5 0
0.3 0.5 0
0.4 0.5 0
0.5 0.5 0
0.6 0.5 0
0.7 0.5 0
0.8 0.5 0
0.9 0.5 0
1 0.5 0
CELLS 400 1600
3 0 1 12
3 0 12 11
3 1 2 13
3 1 13 12
3 2 3 14
3 2 14 13
3 3 4 15
3 3 15 14
3 4 5 16
3 4 16 15
3 5 6 17
3 5 17 16
3 6 7 18
3 6 18 17
3 7 8 19
3 7 19 18
3 8 9 20
3 8 20 19
3 9 10 21
3 9 21 20
3 11 12 23
3 11 23 22
3 12 13 24
3 12 24 23
3 13 14 25
3 13 25 24
3 14 15 26
3 14 26 25
3 15 16 27
3 15 27 26
3 16 17 28
3 16 28 27
3 17 18 29
3 17 29 28
3 18 19 30
3 18 30 29
3 19 20 31
3 19 31 30
3 20 21 32
3 20 32 31
3 22 23 34
3 22 34 33
3 23 24 35
3 23 35 34
3 24 25 36
3 24 36 35
3 25 26 37
3 25 37 36
3 26 27 38
3 26 38 37
3 27 28 39
3 27 39 38
3 28 29 40
3 28 40 39
3 29 30 41
3 29 41 40
3 30 31 42
3 30 42 41
3 31 32 43
3 31 43 42
3 33 34 45
3 33 45 44
3 34 35 46
3 34 46 45
3 35 36 47
3 35 47 46
3 36 37 48
3 36 48 47
3 37 38 49
3 37 49 48
3 38 39 50
3 38 50 49
3 39 40 51
3 39 51 50
3 40 41 52
3 40 52 51
3 41 42 53
3 41 53 52
3 42 43 54
3 42 54 53
3 44 45 56
3 44 56 55
3 45 46 57
3 45 57 56
3 46 47 58
3 46 58 57
3 47 48 59
3 47 59 58
3 48 49 60
3 48 60 59
3 49 50 61
3 49 61 60
3 50 51 62
3 50 62 61
3 51 52 63
3 51 63 62
3 52 53 64
3 52 64 63
3 53 54 65
3 53 65 64
3 55 56 67
3 55 67 66
3 56 57 68
3 56 68 67
3 57 58 69
3 57 69 68
3 58 59 70
3 58 70 69
3 59 60 71
3 59 71 70
3 60 61 72
3 60 72 71
3 61 62 73
3 61 73 72
3 62 63 74
3 62 74 73
3 63 64 75
3 63 75 74
3 64 65 76
3 64 76 75
3 66 67 78
3 66 78 77
3 67 68 79
3 67 79 78
3 68 69 80
3 68 80 79
3 69 70 81
3 69 81 80
3 70 71 82
3 70 82 81
3 71 72 83
3 71 83 82
3 72 73 84
3 72 84 83
3 73 74 85
3 73 85 84
3 74 75 86
3 74 86 85
3 75 76 87
3 75 87 86
3 77 78 89
3 77 89 88
3 78 79 90
3 78 90 89
3 79 80 91
3 79 91 90
3 80 81 92
3 80 92 91
3 81 82 93
3 81 93 92
3 82 83 94
3 82 94 93
3 83 84 95
3 83 95 94
3 84 85 96
3 84 96 95
3 85 86 97
3 85 97 96
3 86 87 98
3 86 98 97
3 88 89 100
3 88 100 99
3 89 90 101
3 89 101 100
3 90 91 102
3 90 102 101
3 91 92 103
3 91 103 102
3 92 93 104
3 92 104 103
3 93 94 105
3 93 105 104
3 94 95 106
3 94 106 105
3 95 96 107
3 95 107 106
3 96 97 108
3 96 108 107
3 97 98 109
3 97 109 108
3 99 100 111
3 99 111 110
3 100 101 112
3 100 112 111
3 101 102 113
3 101 113 112
3 102 103 114
3 102 114 113
3 103 104 115
3 103 115 114
3 104 105 116
3 104 116 115
3 105 106 117
3 105 117 116
3 106 107 118
3 106 118 117
3 107 108 119
3 107 119 118
3 108 109 120
3 108 120 119
3 110 111 122
3 110 122 121
3 111 112 123
3 111 123 122
3 112 113 124
3 112 124 123
3 113 114 125
3 113 125 124
3 114 115 126
3 114 126 125
3 115 116 127
3 115 127 126
3 116 117 128
3 116 128 127
3 117 118 129
3 117 129 128
3 118 119 130
3 118 130 129
3 119 120 131
3 119 131 130
3 121 122 133
3 121 133 132
3 122 123 134
3 122 134 133
3 123 124 135
3 123 135 134
3 124 125 136
3 124 136 135
3 125 126 137
3 125 137 136
3 126 127 138
3 126 138 137
3 127 128 139
3 127 139 138
3 128 129 140
3 128 140 139
3 129 130 141
3 129 141 140
3 130 131 142
3 130 142 141
3 132 133 144
3 132 144 143
3 133 134 145
3 133 145 144
3 134 135 146
3 134 146 145
3 135 136 147
3 135 147 146
3 136 137 148
3 136 148 147
3 137 138 149
3 137 149 148
3 138 139 150
3 138 150 149
3 139 140 151
3 139 151 150
3 140 141 152
3 140 152 151
3 141 142 153
3 141 153 152
3 143 144 155
3 143 155 154
3 144 145 156
3 144 156 155
3 145 146 157
3 145 157 156
3 146 147 158
3 146 158 157
3 147 148 159
3 147 159 158
3 148 149 160
3 148 160 159
3 149 150 161
3 149 161 160
3 150 151 162
3 150 162 161
3 151 152 163
3 151 163 162
3 152 153 164
3 152 164 163
3 154 155 166
3 154 166 165
3 155 156 167
3 155 167 166
3 156 157 168
3 156 168 167
3 157 158 169
3 157 169 168
3 158 159 170
3 158 170 169
3 159 160 171
3 159 171 170
3 160 161 172
3 160 172 171
3 161 162 173
3 161 173 172
3 162 163 174
3 162 174 173
3 163 164 175
3 163 175 174
3 165 166 177
3 165 177 176
3 166 167 178
3 166 178 177
3 167 168 179
3 167 179 178
3 168 169 180
3 168 180 179
3 169 170 181
3 169 181 180
3 170 171 182
3 170 182 181
3 171 172 183
3 171 183 182
3 172 173 184
3 172 184 183
3 173 174 185
3 173 185 184
3 174 175 186
3 174 186 185
3 176 177 188
3 176 188 187
3 177 178 189
3 177 189 188
3 178 179 190
3 178 190 189
3 179 180 191
3 179 191 190
3 180 181 192
3 180 192 191
3 181 182 193
3 181 193 192
3 182 183 194
3 182 194 193
3 183 184 195
3 183 195 194
3 184 185 196
3 184 196 195
3 185 186 197
3 185 197 196
3 187 188 199
3 187 199 198
3 188 189 200
3 188 200 199
3 189 190 201
3 189 201 200
3 190 191 202
3 190 202 201
3 191 192 203
3 191 203 202
3 192 193 204
3 192 204 203
3 193 194 205
3 193 205 204
3 194 195 206
3 194 206 205
3 195 196 207
3 195 207 206
3 196 197 208
3 196 208 207
3 198 199 210
3 198 210 209
3 199 200 211
3 199 211 210
3 200 201 212
3 200 212 211
3 201 202 213
3 201 213 212
3 202 203 214
3 202 214 213
3 203 204 215
3 203 215 214
3 204 205 216
3 204 216 215
3 205 206 217
3 205 217 216
3 206 207 218
3 206 218 217
3 207 208 219
3 207 219 218
3 209 210 221
3 209 221 220
3 210 211 222
3 210 222 221
3 211 212 223
3 211 223 222
3 212 213 224
3 212 224 223
3 213 214 225
3 213 225 224
3 214 215 226
3 214 226 225
3 215 216 227
3 215 227 226
3 216 217 228
3 216 228 227
3 217 218 229
3 217 229 228
3 218 219 230
3 218 230 229
CELL_TYPES 400
5
5
5
5
5
5
5
5
5
5
5
5
5
5
5
5
5
5
5
5
5
5
5
5
5
5
5
5
5
5
5
5
5
5
5
5
5
5
5
5
5
5
5
5
5
5
5
5
5
5
5
5
5
5
5
5
5
5
5
5
5
5
5
5
5
5
5
5
5
5
5
5
5
5
5
5
5
5
5
5
5
5
5
5
5
5
5
5
5
5
5
5
5
5
5
5
5
5
5
5
5
5
5
5
5
5
5
5
5
5
5
5
5
5
5
5
5
5
5
5
5
5
5
5
5
5
5
5
5
5
5
5
5
5
5
5
5
5
5
5
5
5
5
5
5
5
5
5
5
5
5
5
5
5
5
5
5
5
5
5
5
5
5
5
5
5
5
5
5
5
5
5
5
5
5
5
5
5
5
5
5
5
5
5
5
5
5
5
5
5
5
5
5
5
5
5
5
5
5
5
5
5
5
5
5
5
5
5
5
5
5
5
5
5
5
5
5
5
5
5
5
5
5
5
5
5
5
5
5
5
5
5
5
5
5
5
5
5
5
5
5
5
5
5
5
5
5
5
5
5
5
5
5
5
5
5
5
5
5
5
5
5
5
5
5
5
5
5
5
5
5
5
5
5
5
5
5
5
5
5
5
5
5
5
5
5
5
5
5
5
5
5
5
5
5
5
5
5
5
5
5
5
5
5
5
5
5
5
5
5
5
5
5
5
5
5
5
5
5
5
5
5
5
5
5
5
5
5
5
5
5
5
5
5
5
5
5
5
5
5
5
5
5
5
5
5
5
5
5
5
5
5
5
5
5
5
5
5
5
5
5
5
5
5
5
5
5
5
5
5
5
5
5
5
5
5
5
5
5
5
5
5
5
5
5
5
5
5
5
5
5
5
5
5
5
5
5
5
5
5
POINT_DATA 231
SCALARS psi double 1
LOOKUP_TABLE default
-1
-0.578235
0.312167
0.946435
0.802597
-0.00186852
-0.804611
-0.944287
-0.305203
0.58629
0.979699
-0.960596
-0.563107
0.300672
0.917899
0.780559
0.000747521
-0.7795
-0.917371
-0.298613
0.567647
0.960191
-0.90902
-0.534606
0.285402
0.871318
0.74087
0.000578149
-0.740068
-0.870879
-0.283482
0.538832
0.916152
-0.839948
-0.494059
0.263163
0.804109
0.683767
0.000501394
-0.683155
-0.803966
-0.261915
0.496871
0.847183
-0.754965
-0.443955
0.235579
0.721002
0.613238
0.000494846
-0.612765
-0.721306
-0.235348
0.444935
0.760041
-0.655679
-0.385527
0.203549
0.624501
0.531377
0.000528011
-0.531013
-0.62534
-0.204503
0.384751
0.658105
-0.543373
-0.319524
0.167603
0.515997
0.439346
0.000589318
-0.43906
-0.517403
-0.169763
0.31727
0.543404
-0.419566
-0.246916
0.12829
0.396996
0.338399
0.000671498
-0.338153
-0.398936
-0.131543
0.243499
0.417903
-0.286044
-0.168805
0.0862513
0.269328
0.230054
0.000748344
-0.229825
-0.2717
-0.0903661
0.16455
0.283355
-0.145697
-0.0867042
0.0423459
0.135526
0.116432
0.000796313
-0.116216
-0.138175
-0.0470029
0.0819399
0.1424
-0.00174754
-0.00246775
-0.00242094
-0.00137237
0.000105507
0.000812327
0.000105507
-0.00137237
-0.00242094
-0.00246775
-0.00174754
0.1424
0.0819399
-0.0470029
-0.138175
-0.116216
0.000796313
0.116432
0.135526
0.0423459
-0.0867042
-0.145697
0.283355
0.16455
-0.0903661
-0.2717
-0.229825
0.000748344
0.230054
0.269328
0.0862513
-0.168805
-0.286044
0.417903
0.243499
-0.131543
-0.398936
-0.338153
0.000671498
0.338399
0.396996
0.12829
-0.246916
-0.419566
0.543404
0.31727
-0.169763
-0.517403
-0.43906
0.000589318
0.439346
0.515997
0.167603
-0.319524
-0.543373
0.658105
0.384751
-0.204503
-0.62534
-0.531013
0.000528011
0.531377
0.624501
0.203549
-0.385527
-0.655679
0.760041
0.444935
-0.235348
-0.721306
-0.612765
0.000494846
0.613238
0.721002
0.235579
-0.443955
-0.754965
0.847183
0.496871
-0.261915
-0.803966
-0.683155
0.000501394
0.683767
0.804109
0.263163
-0.494059
-0.839948
0.916152
0.538832
-0.283482
-0.870879
-0.740068
0.000578149
0.74087
0.871318
0.285402
-0.534606
-0.90902
0.960191
0.567647
-0.298613
-0.917371
-0.7795
0.000747521
0.780559
0.917899
0.300672
-0.563107
-0.960596
0.979699
0.58629
-0.305203
-0.944287
-0.804611
-0.00186852
0.802597
0.946435
0.312167
-0.578235
-1
VECTORS Et double
-0.272874 0.511824 0
-0.229608 0.800158 0
0.131566 0.949138 0
0.384175 0.306818 0
0.321205 -0.588536 0
-0.00618355 -0.999917 0
-0.328304 -0.587778 0
-0.37981 0.308999 0
-0.118004 0.951883 0
0.241017 0.829321 0
0.215475 0.49861 0
-0.312988 0.509468 0
-0.232304 0.774927 0
0.129172 0.917962 0
0.386446 0.296949 0
0.326633 -0.56891 0
-0.00181616 -0.96692 0
-0.328413 -0.568588 0
-0.384097 0.298548 0
-0.122568 0.920366 0
0.244376 0.798123 0
0.297038 0.506903 0
-0.363679 0.499181 0
-0.234747 0.739641 0
0.130242 0.874627 0
0.391584 0.283137 0
0.331815 -0.541744 0
-0.000651825 -0.921091 0
-0.332084 -0.541845 0
-0.389394 0.284137 0
-0.124879 0.876612 0
0.248734 0.75697 0
0.364963 0.504126 0
-0.416757 0.474679 0
-0.245166 0.691234 0
0.135926 0.816082 0
0.408997 0.264395 0
0.346728 -0.505148 0
-0.000373685 -0.859221 0
-0.346557 -0.505659 0
-0.406581 0.264782 0
-0.130462 0.817565 0
0.259093 0.703359 0
0.427768 0.48081 0
-0.470467 0.435498 0
-0.266122 0.62717 0
0.146855 0.73952 0
0.442407 0.239823 0
0.375144 -0.457388 0
-0.000270236 -0.778378 0
-0.374781 -0.458311 0
-0.439803 0.239568 0
-0.141264 0.740446 0
0.277903 0.634517 0
0.486563 0.440815 0
-0.525562 0.381379 0
-0.29627 0.546197 0
0.162268 0.643296 0
0.489842 0.208892 0
0.415481 -0.397454 0
-0.000221208 -0.676831 0
-0.415034 -0.398795 0
-0.487194 0.207971 0
-0.156766 0.643619 0
0.304913 0.549668 0
0.544275 0.385136 0
-0.580527 0.316622 0
-0.328688 0.451782 0
0.178536 0.531454 0
0.540333 0.17288 0
0.458432 -0.327896 0
-0.000206072 -0.558899 0
-0.458002 -0.32961 0
-0.537816 0.171354 0
-0.173457 0.531223 0
0.335301 0.453708 0
0.59645 0.31891 0
-0.632226 0.244942 0
-0.356813 0.347399 0
0.192574 0.408742 0
0.58446 0.133326 0
0.496048 -0.251675 0
-0.000201184 -0.429592 0
-0.495706 -0.253713 0
-0.58229 0.131267 0
-0.188313 0.40808 0
0.362019 0.348906 0
0.640825 0.246358 0
-0.6722 0.166902 0
-0.378155 0.235663 0
0.202827 0.277586 0
0.617422 0.0910076 0
0.524247 -0.170293 0
-0.000172853 -0.291466 0
-0.524027 -0.172608 0
-0.61583 0.0885191 0
-0.199741 0.276605 0
0.381751 0.236891 0
0.676682 0.168024 0
-0.696311 0.084381 0
-0.391804 0.118884 0
0.208834 0.140606 0
0.637696 0.0467446 0
0.54176 -0.0853899 0
-9.70098e-05 -0.147288 0
-0.54164 -0.0878878 0
-0.636823 0.0439708 0
-0.20724 0.139456 0
0.393633 0.119941 0
0.698589 0.0853574 0
-0.705252 -0.000467274 0
-0.397051 -0.000501906 0
0.210316 0.000610861 0
0.644299 0.00143446 0
0.547654 0.00128236 0
-7.40202e-09 7.51748e-11 0
-0.547665 -0.00128238 0
-0.644299 -0.00143446 0
-0.210327 -0.00061088 0
0.397035 0.000501858 0
0.705205 0.000467232 0
-0.698606 -0.0853584 0
-0.393633 -0.119942 0
0.207223 -0.139444 0
0.636862 -0.0439733 0
0.541653 0.0878909 0
9.69933e-05 0.147285 0
-0.541772 0.0853907 0
-0.637699 -0.046744 0
-0.208847 -0.140615 0
0.391837 -0.118892 0
0.696487 -0.0843997 0
-0.676759 -0.168033 0
-0.381759 -0.23689 0
0.199749 -0.276612 0
0.615827 -0.0885177 0
0.524031 0.172611 0
0.00017282 0.291456 0
-0.524267 0.170298 0
-0.617414 -0.091008 0
-0.20283 -0.277586 0
0.378122 -0.235638 0
0.67202 -0.166851 0
-0.640848 -0.246369 0
-0.362031 -0.348914 0
0.188315 -0.408079 0
0.58229 -0.131267 0
0.495688 0.253704 0
0.00020118 0.429597 0
-0.496055 0.25168 0
-0.584471 -0.133323 0
-0.192541 -0.408658 0
0.356866 -0.347442 0
0.632123 -0.244896 0
-0.596397 -0.318883 0
-0.335295 -0.453717 0
0.173461 -0.531232 0
0.537809 -0.171353 0
0.458012 0.329622 0
0.000206087 0.558911 0
-0.458447 0.327909 0
-0.540351 -0.172891 0
-0.178541 -0.531459 0
0.328656 -0.451749 0
0.580569 -0.3166 0
-0.544288 -0.385143 0
-0.304917 -0.549676 0
0.156764 -0.643614 0
0.487196 -0.207969 0
0.415047 0.398799 0
0.000221207 0.676844 0
-0.415501 0.397462 0
-0.489815 -0.208904 0
-0.162261 -0.643298 0
0.296234 -0.546135 0
0.525236 -0.381111 0
-0.486548 -0.440811 0
-0.277897 -0.634505 0
0.141259 -0.740435 0
0.43981 -0.239576 0
0.37479 0.458353 0
0.000270233 0.778366 0
-0.375157 0.457391 0
-0.442432 -0.239839 0
-0.146845 -0.739535 0
0.266155 -0.627271 0
0.470646 -0.43556 0
-0.427723 -0.480812 0
-0.259091 -0.703358 0
0.130459 -0.817546 0
0.40657 -0.264782 0
0.346552 0.505651 0
0.000373667 0.859191 0
-0.346755 0.505176 0
-0.408988 -0.264419 0
-0.135948 -0.816006 0
0.245133 -0.691256 0
0.416933 -0.474935 0
-0.364946 -0.504124 0
-0.248734 -0.756978 0
0.12488 -0.876616 0
0.389393 -0.284131 0
0.332092 0.541888 0
0.000651812 0.921065 0
-0.331773 0.541657 0
-0.391677 -0.28325 0
-0.130273 -0.874967 0
0.234852 -0.73991 0
0.363005 -0.49883 0
-0.297014 -0.5069 0
-0.244376 -0.798124 0
0.122566 -0.920359 0
0.384134 -0.298535 0
0.32839 0.568594 0
0.001816 0.966845 0
-0.326673 0.569048 0
-0.386448 -0.296861 0
-0.129274 -0.91862 0
0.23223 -0.774314 0
0.312587 -0.508737 0
-0.215476 -0.49861 0
-0.241013 -0.829307 0
0.117996 -0.951846 0
0.379836 -0.30902 0
0.328237 0.587773 0
0.00618394 0.999981 0
-0.321134 0.588448 0
-0.384208 -0.306834 0
-0.131521 -0.948923 0
0.22958 -0.800411 0
0.271452 -0.509838 0
