# vtk DataFile Version 3.0
tp3485 scalar+vector
ASCII
DATASET UNSTRUCTURED_GRID
POINTS 231 double
0 0 0
0.1 0 0
0.2 0 0
0.3 0 0
0.4 0 0
0.5 0 0
0.6 0 0
0.7 0 0
0.8 0 0
0.9 0 0
1 0 0
0 0.025 0
0.1 0.025 0
0.2 0.025 0
0.3 0.025 0
0.4 0.025 0
0.5 0.025 0
0.6 0.025 0
0.7 0.025 0
0.8 0.025 0
0.9 0.025 0
1 0.025 0
0 0.05 0
0.1 0.05 0
0.2 0.05 0
0.3 0.05 0
0.4 0.05 0
0.5 0.05 0
0.6 0.05 0
0.7 0.05 0
0.8 0.05 0
0.9 0.05 0
1 0.05 0
0 0.075 0
0.1 0.075 0
0.2 0.075 0
0.3 0.075 0
0.4 0.075 0
0.5 0.075 0
0.6 0.075 0
0.7 0.075 0
0.8 0.075 0
0.9 0.075 0
1 0.075 0
0 0.1 0
0.1 0.1 0
0.2 0.1 0
0.3 0.1 0
0.4 0.1 0
0.5 0.1 0
0.6 0.1 0
0.7 0.1 0
0.8 0.1 0
0.9 0.1 0
1 0.1 0
0 0.125 0
0.1 0.125 0
0.2 0.125 0
0.3 0.125 0
0.4 0.125 0
0.5 0.125 0
0.6 0.125 0
0.7 0.125 0
0.8 0.125 0
0.9 0.125 0
1 0.125 0
0 0.15 0
0.1 0.15 0
0.2 0.15 0
0.3 0.15 0
0.4 0.15 0
0.5 0.15 0
0.6 0.15 0
0.7 0.15 0
0.8 0.15 0
0.9 0.15 0
1 0.15 0
0 0.175 0
0.1 0.175 0
0.2 0.175 0
0.3 0.175 0
0.4 0.175 0
0.5 0.175 0
0.6 0.175 0
0.7 0.175 0
0.8 0.175 0
0.9 0.175 0
1 0.175 0
0 0.2 0
0.1 0.2 0
0.2 0.2 0
0.3 0.2 0
0.4 0.2 0
0.5 0.2 0
0.6 0.2 0
0.7 0.2 0
0.8 0.2 0
0.9 0.2 0
1 0.2 0
0 0.225 0
0.1 0.225 0
0.2 0.225 0
0.3 0.225 0
0.4 0.225 0
0.5 0.225 0
0.6 0.225 0
0.7 0.225 0
0.8 0.225 0
0.9 0.225 0
1 0.225 0
0 0.25 0
0.1 0.25 0
0.2 0.25 0
0.3 0.25 0
0.4 0.25 0
0.5 0.25 0
0.6 0.25 0
0.7 0.25 0
0.8 0.25 0
0.9 0.25 0
1 0.25 0
0 0.275 0
0.1 0.275 0
0.2 0.275 0
0.3 0.275 0
0.4 0.275 0
0.5 0.275 0
0.6 0.275 0
0.7 0.275 0
0.8 0.275 0
0.9 0.275 0
1 0.275 0
0 0.3 0
0.1 0.3 0
0.2 0.3 0
0.3 0.3 0
0.4 0.3 0
0.5 0.3 0
0.6 0.3 0
0.7 0.3 0
0.8 0.3 0
0.9 0.3 0
1 0.3 0
0 0.325 0
0.1 0.325 0
0.2 0.325 0
0.3 0.325 0
0.4 0.325 0
0.5 0.325 0
0.6 0.325 0
0.7 0.325 0
0.8 0.325 0
0.9 0.325 0
1 0.325 0
0 0.35 0
0.1 0.35 0
0.2 0.35 0
0.3 0.35 0
0.4 0.35 0
0.5 0.35 0
0.6 0.35 0
0.7 0.35 0
0.8 0.35 0
0.9 0.35 0
1 0.35 0
0 0.375 0
0.1 0.375 0
0.2 0.375 0
0.3 0.375 0
0.4 0.375 0
0.5 0.375 0
0.6 0.375 0
0.7 0.375 0
0.8 0.375 0
0.9 0.375 0
1 0.375 0
0 0.4 0
0.1 0.4 0
0.2 0.4 0
0.3 0.4 0
0.4 0.4 0
0.5 0.4 0
0.6 0.4 0
0.7 0.4 0
0.8 0.4 0
0.9 0.4 0
1 0.4 0
0 0.425 0
0.1 0.425 0
0.2 0.425 0
0.3 0.425 0
0.4 0.425 0
0.5 0.425 0
0.6 0.425 0
0.7 0.425 0
0.8 0.425 0
0.9 0.425 0
1 0.425 0
0 0.45 0
0.1 0.45 0
0.2 0.45 0
0.3 0.45 0
0.4 0.45 0
0.5 0.45 0
0.6 0.45 0
0.7 0.45 0
0.8 0.45 0
0.9 0.45 0
1 0.45 0
0 0.475 0
0.1 0.475 0
0.2 0.475 0
0.3 0.475 0
0.4 0.475 0
0.5 0.475 0
0.6 0.475 0
0.7 0.475 0
0.8 0.475 0
0.9 0.475 0
1 0.475 0
0 0.5 0
0.1 0.5 0
0.2 0.5 0
0.3 0.5 0
0.4 0.5 0
0.5 0.5 0
0.6 0.5 0
0.7 0.5 0
0.8 0.5 0
0.9 0.5 0
1 0.5 0
CELLS 400 1600
3 0 1 12
3 0 12 11
3 1 2 13
3 1 13 12
3 2 3 14
3 2 14 13
3 3 4 15
3 3 15 14
3 4 5 16
3 4 16 15
3 5 6 17
3 5 17 16
3 6 7 18
3 6 18 17
3 7 8 19
3 7 19 18
3 8 9 20
3 8 20 19
3 9 10 21
3 9 21 20
3 11 12 23
3 11 23 22
3 12 13 24
3 12 24 23
3 13 14 25
3 13 25 24
3 14 15 26
3 14 26 25
3 15 16 27
3 15 27 26
3 16 17 28
3 16 28 27
3 17 18 29
3 17 29 28
3 18 19 30
3 18 30 29
3 19 20 31
3 19 31 30
3 20 21 32
3 20 32 31
3 22 23 34
3 22 34 33
3 23 24 35
3 23 35 34
3 24 25 36
3 24 36 35
3 25 26 37
3 25 37 36
3 26 27 38
3 26 38 37
3 27 28 39
3 27 39 38
3 28 29 40
3 28 40 39
3 29 30 41
3 29 41 40
3 30 31 42
3 30 42 41
3 31 32 43
3 31 43 42
3 33 34 45
3 33 45 44
3 34 35 46
3 34 46 45
3 35 36 47
3 35 47 46
3 36 37 48
3 36 48 47
3 37 38 49
3 37 49 48
3 38 39 50
3 38 50 49
3 39 40 51
3 39 51 50
3 40 41 52
3 40 52 51
3 41 42 53
3 41 53 52
3 42 43 54
3 42 54 53
3 44 45 56
3 44 56 55
3 45 46 57
3 45 57 56
3 46 47 58
3 46 58 57
3 47 48 59
3 47 59 58
3 48 49 60
3 48 60 59
3 49 50 61
3 49 61 60
3 50 51 62
3 50 62 61
3 51 52 63
3 51 63 62
3 52 53 64
3 52 64 63
3 53 54 65
3 53 65 64
3 55 56 67
3 55 67 66
3 56 57 68
3 56 68 67
3 57 58 69
3 57 69 68
3 58 59 70
3 58 70 69
3 59 60 71
3 59 71 70
3 60 61 72
3 60 72 71
3 61 62 73
3 61 73 72
3 62 63 74
3 62 74 73
3 63 64 75
3 63 75 74
3 64 65 76
3 64 76 75
3 66 67 78
3 66 78 77
3 67 68 79
3 67 79 78
3 68 69 80
3 68 80 79
3 69 70 81
3 69 81 80
3 70 71 82
3 70 82 81
3 71 72 83
3 71 83 82
3 72 73 84
3 72 84 83
3 73 74 85
3 73 85 84
3 74 75 86
3 74 86 85
3 75 76 87
3 75 87 86
3 77 78 89
3 77 89 88
3 78 79 90
3 78 90 89
3 79 80 91
3 79 91 90
3 80 81 92
3 80 92 91
3 81 82 93
3 81 93 92
3 82 83 94
3 82 94 93
3 83 84 95
3 83 95 94
3 84 85 96
3 84 96 95
3 85 86 97
3 85 97 96
3 86 87 98
3 86 98 97
3 88 89 100
3 88 100 99
3 89 90 101
3 89 101 100
3 90 91 102
3 90 102 101
3 91 92 103
3 91 103 102
3 92 93 104
3 92 104 103
3 93 94 105
3 93 105 104
3 94 95 106
3 94 106 105
3 95 96 107
3 95 107 106
3 96 97 108
3 96 108 107
3 97 98 109
3 97 109 108
3 99 100 111
3 99 111 110
3 100 101 112
3 100 112 111
3 101 102 113
3 101 113 112
3 102 103 114
3 102 114 113
3 103 104 115
3 103 115 114
3 104 105 116
3 104 116 115
3 105 106 117
3 105 117 116
3 106 107 118
3 106 118 117
3 107 108 119
3 107 119 118
3 108 109 120
3 108 120 119
3 110 111 122
3 110 122 121
3 111 112 123
3 111 123 122
3 112 113 124
3 112 124 123
3 113 114 125
3 113 125 124
3 114 115 126
3 114 126 125
3 115 116 127
3 115 127 126
3 116 117 128
3 116 128 127
3 117 118 129
3 117 129 128
3 118 119 130
3 118 130 129
3 119 120 131
3 119 131 130
3 121 122 133
3 121 133 132
3 122 123 134
3 122 134 133
3 123 124 135
3 123 135 134
3 124 125 136
3 124 136 135
3 125 126 137
3 125 137 136
3 126 127 138
3 126 138 137
3 127 128 139
3 127 139 138
3 128 129 140
3 128 140 139
3 129 130 141
3 129 141 140
3 130 131 142
3 130 142 141
3 132 133 144
3 132 144 143
3 133 134 145
3 133 145 144
3 134 135 146
3 134 146 145
3 135 136 147
3 135 147 146
3 136 137 148
3 136 148 147
3 137 138 149
3 137 149 148
3 138 139 150
3 138 150 149
3 139 140 151
3 139 151 150
3 140 141 152
3 140 152 151
3 141 142 153
3 141 153 152
3 143 144 155
3 143 155 154
3 144 145 156
3 144 156 155
3 145 146 157
3 145 157 156
3 146 147 158
3 146 158 157
3 147 148 159
3 147 159 158
3 148 149 160
3 148 160 159
3 149 150 161
3 149 161 160
3 150 151 162
3 150 162 161
3 151 152 163
3 151 163 162
3 152 153 164
3 152 164 163
3 154 155 166
3 154 166 165
3 155 156 167
3 155 167 166
3 156 157 168
3 156 168 167
3 157 158 169
3 157 169 168
3 158 159 170
3 158 170 169
3 159 160 171
3 159 171 170
3 160 161 172
3 160 172 171
3 161 162 173
3 161 173 172
3 162 163 174
3 162 174 173
3 163 164 175
3 163 175 174
3 165 166 177
3 165 177 176
3 166 167 178
3 166 178 177
3 167 168 179
3 167 179 178
3 168 169 180
3 168 180 179
3 169 170 181
3 169 181 180
3 170 171 182
3 170 182 181
3 171 172 183
3 171 183 182
3 172 173 184
3 172 184 183
3 173 174 185
3 173 185 184
3 174 175 186
3 174 186 185
3 176 177 188
3 176 188 187
3 177 178 189
3 177 189 188
3 178 179 190
3 178 190 189
3 179 180 191
3 179 191 190
3 180 181 192
3 180 192 191
3 181 182 193
3 181 193 192
3 182 183 194
3 182 194 193
3 183 184 195
3 183 195 194
3 184 185 196
3 184 196 195
3 185 186 197
3 185 197 196
3 187 188 199
3 187 199 198
3 188 189 200
3 188 200 199
3 189 190 201
3 189 201 200
3 190 191 202
3 190 202 201
3 191 192 203
3 191 203 202
3 192 193 204
3 192 204 203
3 193 194 205
3 193 205 204
3 194 195 206
3 194 206 205
3 195 196 207
3 195 207 206
3 196 197 208
3 196 208 207
3 198 199 210
3 198 210 209
3 199 200 211
3 199 211 210
3 200 201 212
3 200 212 211
3 201 202 213
3 201 213 212
3 202 203 214
3 202 214 213
3 203 204 215
3 203 215 214
3 204 205 216
3 204 216 215
3 205 206 217
3 205 217 216
3 206 207 218
3 206 218 217
3 207 208 219
3 207 219 218
3 209 210 221
3 209 221 220
3 210 211 222
3 210 222 221
3 211 212 223
3 211 223 222
3 212 213 224
3 212 224 223
3 213 214 225
3 213 225 224
3 214 215 226
3 214 226 225
3 215 216 227
3 215 227 226
3 216 217 228
3 216 228 227
3 217 218 229
3 217 229 228
3 218 219 230
3 218 230 229
CELL_TYPES 400
5
5
5
5
5
5
5
5
5
5
5
5
5
5
5
5
5
5
5
5
5
5
5
5
5
5
5
5
5
5
5
5
5
5
5
5
5
5
5
5
5
5
5
5
5
5
5
5
5
5
5
5
5
5
5
5
5
5
5
5
5
5
5
5
5
5
5
5
5
5
5
5
5
5
5
5
5
5
5
5
5
5
5
5
5
5
5
5
5
5
5
5
5
5
5
5
5
5
5
5
5
5
5
5
5
5
5
5
5
5
5
5
5
5
5
5
5
5
5
5
5
5
5
5
5
5
5
5
5
5
5
5
5
5
5
5
5
5
5
5
5
5
5
5
5
5
5
5
5
5
5
5
5
5
5
5
5
5
5
5
5
5
5
5
5
5
5
5
5
5
5
5
5
5
5
5
5
5
5
5
5
5
5
5
5
5
5
5
5
5
5
5
5
5
5
5
5
5
5
5
5
5
5
5
5
5
5
5
5
5
5
5
5
5
5
5
5
5
5
5
5
5
5
5
5
5
5
5
5
5
5
5
5
5
5
5
5
5
5
5
5
5
5
5
5
5
5
5
5
5
5
5
5
5
5
5
5
5
5
5
5
5
5
5
5
5
5
5
5
5
5
5
5
5
5
5
5
5
5
5
5
5
5
5
5
5
5
5
5
5
5
5
5
5
5
5
5
5
5
5
5
5
5
5
5
5
5
5
5
5
5
5
5
5
5
5
5
5
5
5
5
5
5
5
5
5
5
5
5
5
5
5
5
5
5
5
5
5
5
5
5
5
5
5
5
5
5
5
5
5
5
5
5
5
5
5
5
5
5
5
5
5
5
5
5
5
5
5
5
5
5
5
5
5
5
5
5
5
5
5
5
5
5
5
5
5
5
5
5
5
5
5
5
5
5
5
5
5
5
5
POINT_DATA 231
SCALARS psi double 1
LOOKUP_TABLE default
-0.927576
-0.924408
-0.93316
-0.928158
-0.912142
-0.905773
-0.91821
-0.933897
-0.932836
-0.915337
-0.902214
-0.893046
-0.88929
-0.898517
-0.893714
-0.878245
-0.87204
-0.884008
-0.899178
-0.898139
-0.882496
-0.873907
-0.757913
-0.756522
-0.766566
-0.762075
-0.747105
-0.741012
-0.752541
-0.767199
-0.766012
-0.751415
-0.750613
-0.539496
-0.540789
-0.551413
-0.547417
-0.532952
-0.526894
-0.53794
-0.552079
-0.550694
-0.536416
-0.536343
-0.265114
-0.270404
-0.281452
-0.27809
-0.264084
-0.257972
-0.268535
-0.282216
-0.280654
-0.266176
-0.263043
0.0364263
0.0262364
0.0147009
0.017342
0.0309506
0.0372017
0.0271092
0.0138063
0.0154814
0.0303803
0.0386801
0.335982
0.320717
0.308502
0.310377
0.323648
0.330113
0.320484
0.307482
0.309195
0.324455
0.338523
0.604574
0.584483
0.57152
0.572625
0.585617
0.592356
0.583187
0.570413
0.572073
0.587456
0.606648
0.816786
0.792815
0.779131
0.779509
0.792278
0.799339
0.790629
0.778014
0.779511
0.794831
0.818169
0.952907
0.926507
0.912207
0.91194
0.924552
0.931979
0.923719
0.911187
0.9124
0.927521
0.95359
1
0.972877
0.958095
0.957292
0.969823
0.977651
0.969823
0.957292
0.958095
0.972877
1
0.95359
0.927521
0.9124
0.911187
0.923719
0.931979
0.924552
0.91194
0.912207
0.926507
0.952907
0.818169
0.794831
0.779511
0.778014
0.790629
0.799339
0.792278
0.779509
0.779131
0.792815
0.816786
0.606648
0.587456
0.572073
0.570413
0.583187
0.592356
0.585617
0.572625
0.57152
0.584483
0.604574
0.338523
0.324455
0.309195
0.307482
0.320484
0.330113
0.323648
0.310377
0.308502
0.320717
0.335982
0.0386801
0.0303803
0.0154814
0.0138063
0.0271092
0.0372017
0.0309506
0.017342
0.0147009
0.0262364
0.0364263
-0.263043
-0.266176
-0.280654
-0.282216
-0.268535
-0.257972
-0.264084
-0.27809
-0.281452
-0.270404
-0.265114
-0.536343
-0.536416
-0.550694
-0.552079
-0.53794
-0.526894
-0.532952
-0.547417
-0.551413
-0.540789
-0.539496
-0.750613
-0.751415
-0.766012
-0.767199
-0.752541
-0.741012
-0.747105
-0.762075
-0.766566
-0.756522
-0.757913
-0.873907
-0.882496
-0.898139
-0.899178
-0.884008
-0.87204
-0.878245
-0.893714
-0.898517
-0.88929
-0.893046
-0.902214
-0.915337
-0.932836
-0.933897
-0.91821
-0.905773
-0.912142
-0.928158
-0.93316
-0.924408
-0.927576
VECTORS Et double
-0.441977 -0.00920114 0
-0.439573 -0.003525 0
-0.440943 -0.002399 0
-0.439125 0.00947096 0
-0.434302 0.0102543 0
-0.432597 -0.00265918 0
-0.43649 -0.0127627 0
-0.441228 -0.00658415 0
-0.44118 0.00806005 0
-0.432947 0.0106266 0
-0.417384 0.0183481 0
-0.611473 0.0597474 0
-0.634235 -0.00812148 0
-0.634648 -0.00263428 0
-0.632672 0.00925851 0
-0.628972 0.0101345 0
-0.627881 -0.00256194 0
-0.630971 -0.012546 0
-0.634664 -0.00644429 0
-0.634885 0.00795173 0
-0.631351 0.00246245 0
-0.634263 -0.0421652 0
-0.776547 0.0876347 0
-0.787289 -0.0106717 0
-0.787826 -0.00294019 0
-0.785709 0.00898479 0
-0.783018 0.0100012 0
-0.782522 -0.00243075 0
-0.784921 -0.0122826 0
-0.78762 -0.00627726 0
-0.788001 0.00787229 0
-0.790247 -0.000692797 0
-0.796919 -0.0834618 0
-0.900203 0.080365 0
-0.89669 -0.0120156 0
-0.8972 -0.00332803 0
-0.89496 0.00864397 0
-0.893001 0.0098616 0
-0.892971 -0.00225855 0
-0.894893 -0.0119737 0
-0.896855 -0.00608834 0
-0.897307 0.00783241 0
-0.903435 -9.75557e-05 0
-0.919616 -0.0811427 0
-0.972862 0.0435681 0
-0.961641 -0.0129387 0
-0.961693 -0.00380599 0
-0.959333 0.00823535 0
-0.957821 0.00972836 0
-0.958138 -0.00203709 0
-0.959804 -0.0116248 0
-0.961282 -0.00588907 0
-0.961721 0.0078337 0
-0.968101 0.00412196 0
-0.990249 -0.0456564 0
-0.9867 -0.0128967 0
-0.974531 -0.013373 0
-0.973379 -0.00437346 0
-0.970917 0.00776879 0
-0.969633 0.00961477 0
-0.970177 -0.00176416 0
-0.971784 -0.0112491 0
-0.972993 -0.00570112 0
-0.973276 0.00785674 0
-0.976411 0.0105836 0
-0.999921 0.0113502 0
-0.929972 -0.0729334 0
-0.918481 -0.0131992 0
-0.915088 -0.0049878 0
-0.912589 0.0072883 0
-0.911471 0.00954708 0
-0.912228 -0.00145203 0
-0.913814 -0.0108849 0
-0.914804 -0.00556052 0
-0.914819 0.00788194 0
-0.916695 0.0136744 0
-0.933366 0.0722541 0
-0.791462 -0.125948 0
-0.779017 -0.0148773 0
-0.775442 -0.00560411 0
-0.773009 0.00683321 0
-0.772112 0.0095364 0
-0.773062 -0.0011118 0
-0.774615 -0.0105576 0
-0.775327 -0.00549218 0
-0.775032 0.00786058 0
-0.776462 0.0154507 0
-0.788751 0.125451 0
-0.573619 -0.167458 0
-0.564853 -0.0165536 0
-0.561809 -0.0061958 0
-0.559574 0.00642227 0
-0.558906 0.00957831 0
-0.560018 -0.000753733 0
-0.561543 -0.0102715 0
-0.561968 -0.0055119 0
-0.561267 0.00774164 0
-0.561963 0.0169498 0
-0.571306 0.167044 0
-0.301745 -0.194042 0
-0.297254 -0.01769 0
-0.295002 -0.0067296 0
-0.293063 0.0060729 0
-0.292656 0.0096758 0
-0.293914 -0.000385675 0
-0.295382 -0.0100285 0
-0.295529 -0.00560647 0
-0.294417 0.00751469 0
-0.294102 0.0178915 0
-0.299243 0.193803 0
-0.00128577 -0.203123 0
-0.00161969 -0.0181556 0
-0.000319679 -0.00717791 0
0.00123927 0.0057999 0
0.00137344 0.00982743 0
-6.43251e-06 -2.37786e-10 0
-0.00137347 -0.00983082 0
-0.00123235 -0.00580305 0
0.000308675 0.00717512 0
0.00159638 0.0181629 0
0.00128566 0.203113 0
0.299238 -0.193803 0
0.294097 -0.0178984 0
0.294385 -0.0075217 0
0.295524 0.00560767 0
0.295382 0.0100224 0
0.293895 0.000378618 0
0.292672 -0.00968395 0
0.293059 -0.00606933 0
0.29501 0.00671904 0
0.297282 0.017676 0
0.301773 0.194081 0
0.571277 -0.167051 0
0.561934 -0.0169492 0
0.561272 -0.00774904 0
0.56198 0.00550833 0
0.561547 0.0102669 0
0.559977 0.00075686 0
0.558939 -0.00958603 0
0.559585 -0.00642378 0
0.561782 0.00619038 0
0.564779 0.0165492 0
0.573438 0.167402 0
0.788782 -0.125458 0
0.776472 -0.0154506 0
0.775022 -0.00786019 0
0.775329 0.00549182 0
0.774592 0.0105583 0
0.773068 0.00111065 0
0.772124 -0.00953578 0
0.773028 -0.00682695 0
0.77527 0.00560977 0
0.779111 0.0148735 0
0.79125 0.125928 0
0.933306 -0.0722472 0
0.916717 -0.0136763 0
0.914833 -0.00788269 0
0.914791 0.00556115 0
0.913835 0.0108824 0
0.912253 0.00145521 0
0.911511 -0.00954779 0
0.912651 -0.00728894 0
0.915092 0.00498769 0
0.918428 0.0131959 0
0.92996 0.0729231 0
0.999936 -0.0113504 0
0.976425 -0.0105838 0
0.97327 -0.00785673 0
0.972987 0.00570109 0
0.971791 0.0112491 0
0.970196 0.00176457 0
0.969645 -0.00961478 0
0.970929 -0.00776908 0
0.973376 0.00437323 0
0.974426 0.0133714 0
0.985967 0.0128877 0
0.990244 0.0456554 0
0.968084 -0.00412218 0
0.961708 -0.00783069 0
0.961294 0.00588773 0
0.959863 0.0116288 0
0.958122 0.00203807 0
0.957854 -0.00972466 0
0.959357 -0.00823233 0
0.961701 0.00380619 0
0.961754 0.0129282 0
0.973085 -0.0435701 0
0.919595 0.0811438 0
0.903432 9.83676e-05 0
0.897289 -0.00783041 0
0.896843 0.00608691 0
0.894867 0.0119787 0
0.892943 0.00225699 0
0.893057 -0.00986152 0
0.894959 -0.00863322 0
0.897171 0.00332305 0
0.896699 0.0120251 0
0.900748 -0.0803922 0
0.796908 0.0834609 0
0.790251 0.000694094 0
0.788005 -0.00787034 0
0.787622 0.00628186 0
0.784959 0.0122912 0
0.782495 0.00242928 0
0.782918 -0.00998719 0
0.785924 -0.0089683 0
0.788089 0.00295732 0
0.787602 0.0106852 0
0.775668 -0.0876041 0
0.634245 0.0421652 0
0.631354 -0.00246881 0
0.634876 -0.00795938 0
0.634712 0.00646568 0
0.630949 0.0125549 0
0.627851 0.00253646 0
0.629084 -0.0101469 0
0.632643 -0.00930171 0
0.63512 0.00265696 0
0.633849 0.00809375 0
0.6105 -0.0597503 0
0.417384 -0.0183481 0
0.432941 -0.010634 0
0.441157 -0.00804314 0
0.441245 0.00656743 0
0.436423 0.0127945 0
0.432624 0.00265936 0
0.434206 -0.0102846 0
0.439111 -0.0094109 0
0.440812 0.00238175 0
0.439612 0.00360253 0
0.440089 0.00925803 0
