# vtk DataFile Version 3.0
tp3485 scalar+vector
ASCII
DATASET UNSTRUCTURED_GRID
POINTS 231 double
0 0 0
0.1 0 0
0.2 0 0
0.3 0 0
0.4 0 0
0.5 0 0
0.6 0 0
0.7 0 0
0.8 0 0
0.9 0 0
1 0 0
0 0.025 0
0.1 0.025 0
0.2 0.025 0
0.3 0.025 0
0.4 0.025 0
0.5 0.025 0
0.6 0.025 0
0.7 0.025 0
0.8 0.025 0
0.9 0.025 0
1 0.025 0
0 0.05 0
0.1 0.05 0
0.2 0.05 0
0.3 0.05 0
0.4 0.05 0
0.5 0.05 0
0.6 0.05 0
0.7 0.05 0
0.8 0.05 0
0.9 0.05 0
1 0.05 0
0 0.075 0
0.1 0.075 0
0.2 0.075 0
0.3 0.075 0
0.4 0.075 0
0.5 0.075 0
0.6 0.075 0
0.7 0.075 0
0.8 0.075 0
0.9 0.075 0
1 0.075 0
0 0.1 0
0.1 0.1 0
0.2 0.1 0
0.3 0.1 0
0.4 0.1 0
0.5 0.1 0
0.6 0.1 0
0.7 0.1 0
0.8 0.1 0
0.9 0.1 0
1 0.1 0
0 0.125 0
0.1 0.125 0
0.2 0.125 0
0.3 0.125 0
0.4 0.125 0
0.5 0.125 0
0.6 0.125 0
0.7 0.125 0
0.8 0.125 0
0.9 0.125 0
1 0.125 0
0 0.15 0
0.1 0.15 0
0.2 0.15 0
0.3 0.15 0
0.4 0.15 0
0.5 0.15 0
0.6 0.15 0
0.7 0.15 0
0.8 0.15 0
0.9 0.15 0
1 0.15 0
0 0.175 0
0.1 0.175 0
0.2 0.175 0
0.3 0.175 0
0.4 0.175 0
0.5 0.175 0
0.6 0.175 0
0.7 0.175 0
0.8 0.175 0
0.9 0.175 0
1 0.175 0
0 0.2 0
0.1 0.2 0
0.2 0.2 0
0.3 0.2 0
0.4 0.2 0
0.5 0.2 0
0.6 0.2 0
0.7 0.2 0
0.8 0.2 0
0.9 0.2 0
1 0.2 0
0 0.225 0
0.1 0.225 0
0.2 0.225 0
0.3 0.225 0
0.4 0.225 0
0.5 0.225 0
0.6 0.225 0
0.7 0.225 0
0.8 0.225 0
0.9 0.225 0
1 0.225 0
0 0.25 0
0.1 0.25 0
0.2 0.25 0
0.3 0.25 0
0.4 0.25 0
0.5 0.25 0
0.6 0.25 0
0.7 0.25 0
0.8 0.25 0
0.9 0.25 0
1 0.25 0
0 0.275 0
0.1 0.275 0
0.2 0.275 0
0.3 0.275 0
0.4 0.275 0
0.5 0.275 0
0.6 0.275 0
0.7 0.275 0
0.8 0.275 0
0.9 0.275 0
1 0.275 0
0 0.3 0
0.1 0.3 0
0.2 0.3 0
0.3 0.3 0
0.4 0.3 0
0.5 0.3 0
0.6 0.3 0
0.7 0.3 0
0.8 0.3 0
0.9 0.3 0
1 0.3 0
0 0.325 0
0.1 0.325 0
0.2 0.325 0
0.3 0.325 0
0.4 0.325 0
0.5 0.325 0
0.6 0.325 0
0.7 0.325 0
0.8 0.325 0
0.9 0.325 0
1 0.325 0
0 0.35 0
0.1 0.35 0
0.2 0.35 0
0.3 0.35 0
0.4 0.35 0
0.5 0.35 0
0.6 0.35 0
0.7 0.35 0
0.8 0.35 0
0.9 0.35 0
1 0.35 0
0 0.375 0
0.1 0.375 0
0.2 0.375 0
0.3 0.375 0
0.4 0.375 0
0.5 0.375 0
0.6 0.375 0
0.7 0.375 0
0.8 0.375 0
0.9 0.375 0
1 0.375 0
0 0.4 0
0.1 0.4 0
0.2 0.4 0
0.3 0.4 0
0.4 0.4 0
0.5 0.4 0
0.6 0.4 0
0.7 0.4 0
0.8 0.4 0
0.9 0.4 0
1 0.4 0
0 0.425 0
0.1 0.425 0
0.2 0.425 0
0.3 0.425 0
0.4 0.425 0
0.5 0.425 0
0.6 0.425 0
0.7 0.425 0
0.8 0.425 0
0.9 0.425 0
1 0.425 0
0 0.45 0
0.1 0.45 0
0.2 0.45 0
0.3 0.45 0
0.4 0.45 0
0.5 0.45 0
0.6 0.45 0
0.7 0.45 0
0.8 0.45 0
0.9 0.45 0
1 0.45 0
0 0.475 0
0.1 0.475 0
0.2 0.475 0
0.3 0.475 0
0.4 0.475 0
0.5 0.475 0
0.6 0.475 0
0.7 0.475 0
0.8 0.475 0
0.9 0.475 0
1 0.475 0
0 0.5 0
0.1 0.5 0
0.2 0.5 0
0.3 0.5 0
0.4 0.5 0
0.5 0.5 0
0.6 0.5 0
0.7 0.5 0
0.8 0.5 0
0.9 0.5 0
1 0.5 0
CELLS 400 1600
3 0 1 12
3 0 12 11
3 1 2 13
3 1 13 12
3 2 3 14
3 2 14 13
3 3 4 15
3 3 15 14
3 4 5 16
3 4 16 15
3 5 6 17
3 5 17 16
3 6 7 18
3 6 18 17
3 7 8 19
3 7 19 18
3 8 9 20
3 8 20 19
3 9 10 21
3 9 21 20
3 11 12 23
3 11 23 22
3 12 13 24
3 12 24 23
3 13 14 25
3 13 25 24
3 14 15 26
3 14 26 25
3 15 16 27
3 15 27 26
3 16 17 28
3 16 28 27
3 17 18 29
3 17 29 28
3 18 19 30
3 18 30 29
3 19 20 31
3 19 31 30
3 20 21 32
3 20 32 31
3 22 23 34
3 22 34 33
3 23 24 35
3 23 35 34
3 24 25 36
3 24 36 35
3 25 26 37
3 25 37 36
3 26 27 38
3 26 38 37
3 27 28 39
3 27 39 38
3 28 29 40
3 28 40 39
3 29 30 41
3 29 41 40
3 30 31 42
3 30 42 41
3 31 32 43
3 31 43 42
3 33 34 45
3 33 45 44
3 34 35 46
3 34 46 45
3 35 36 47
3 35 47 46
3 36 37 48
3 36 48 47
3 37 38 49
3 37 49 48
3 38 39 50
3 38 50 49
3 39 40 51
3 39 51 50
3 40 41 52
3 40 52 51
3 41 42 53
3 41 53 52
3 42 43 54
3 42 54 53
3 44 45 56
3 44 56 55
3 45 46 57
3 45 57 56
3 46 47 58
3 46 58 57
3 47 48 59
3 47 59 58
3 48 49 60
3 48 60 59
3 49 50 61
3 49 61 60
3 50 51 62
3 50 62 61
3 51 52 63
3 51 63 62
3 52 53 64
3 52 64 63
3 53 54 65
3 53 65 64
3 55 56 67
3 55 67 66
3 56 57 68
3 56 68 67
3 57 58 69
3 57 69 68
3 58 59 70
3 58 70 69
3 59 60 71
3 59 71 70
3 60 61 72
3 60 72 71
3 61 62 73
3 61 73 72
3 62 63 74
3 62 74 73
3 63 64 75
3 63 75 74
3 64 65 76
3 64 76 75
3 66 67 78
3 66 78 77
3 67 68 79
3 67 79 78
3 68 69 80
3 68 80 79
3 69 70 81
3 69 81 80
3 70 71 82
3 70 82 81
3 71 72 83
3 71 83 82
3 72 73 84
3 72 84 83
3 73 74 85
3 73 85 84
3 74 75 86
3 74 86 85
3 75 76 87
3 75 87 86
3 77 78 89
3 77 89 88
3 78 79 90
3 78 90 89
3 79 80 91
3 79 91 90
3 80 81 92
3 80 92 91
3 81 82 93
3 81 93 92
3 82 83 94
3 82 94 93
3 83 84 95
3 83 95 94
3 84 85 96
3 84 96 95
3 85 86 97
3 85 97 96
3 86 87 98
3 86 98 97
3 88 89 100
3 88 100 99
3 89 90 101
3 89 101 100
3 90 91 102
3 90 102 101
3 91 92 103
3 91 103 102
3 92 93 104
3 92 104 103
3 93 94 105
3 93 105 104
3 94 95 106
3 94 106 105
3 95 96 107
3 95 107 106
3 96 97 108
3 96 108 107
3 97 98 109
3 97 109 108
3 99 100 111
3 99 111 110
3 100 101 112
3 100 112 111
3 101 102 113
3 101 113 112
3 102 103 114
3 102 114 113
3 103 104 115
3 103 115 114
3 104 105 116
3 104 116 115
3 105 106 117
3 105 117 116
3 106 107 118
3 106 118 117
3 107 108 119
3 107 119 118
3 108 109 120
3 108 120 119
3 110 111 122
3 110 122 121
3 111 112 123
3 111 123 122
3 112 113 124
3 112 124 123
3 113 114 125
3 113 125 124
3 114 115 126
3 114 126 125
3 115 116 127
3 115 127 126
3 116 117 128
3 116 128 127
3 117 118 129
3 117 129 128
3 118 119 130
3 118 130 129
3 119 120 131
3 119 131 130
3 121 122 133
3 121 133 132
3 122 123 134
3 122 134 133
3 123 124 135
3 123 135 134
3 124 125 136
3 124 136 135
3 125 126 137
3 125 137 136
3 126 127 138
3 126 138 137
3 127 128 139
3 127 139 138
3 128 129 140
3 128 140 139
3 129 130 141
3 129 141 140
3 130 131 142
3 130 142 141
3 132 133 144
3 132 144 143
3 133 134 145
3 133 145 144
3 134 135 146
3 134 146 145
3 135 136 147
3 135 147 146
3 136 137 148
3 136 148 147
3 137 138 149
3 137 149 148
3 138 139 150
3 138 150 149
3 139 140 151
3 139 151 150
3 140 141 152
3 140 152 151
3 141 142 153
3 141 153 152
3 143 144 155
3 143 155 154
3 144 145 156
3 144 156 155
3 145 146 157
3 145 157 156
3 146 147 158
3 146 158 157
3 147 148 159
3 147 159 158
3 148 149 160
3 148 160 159
3 149 150 161
3 149 161 160
3 150 151 162
3 150 162 161
3 151 152 163
3 151 163 162
3 152 153 164
3 152 164 163
3 154 155 166
3 154 166 165
3 155 156 167
3 155 167 166
3 156 157 168
3 156 168 167
3 157 158 169
3 157 169 168
3 158 159 170
3 158 170 169
3 159 160 171
3 159 171 170
3 160 161 172
3 160 172 171
3 161 162 173
3 161 173 172
3 162 163 174
3 162 174 173
3 163 164 175
3 163 175 174
3 165 166 177
3 165 177 176
3 166 167 178
3 166 178 177
3 167 168 179
3 167 179 178
3 168 169 180
3 168 180 179
3 169 170 181
3 169 181 180
3 170 171 182
3 170 182 181
3 171 172 183
3 171 183 182
3 172 173 184
3 172 184 183
3 173 174 185
3 173 185 184
3 174 175 186
3 174 186 185
3 176 177 188
3 176 188 187
3 177 178 189
3 177 189 188
3 178 179 190
3 178 190 189
3 179 180 191
3 179 191 190
3 180 181 192
3 180 192 191
3 181 182 193
3 181 193 192
3 182 183 194
3 182 194 193
3 183 184 195
3 183 195 194
3 184 185 196
3 184 196 195
3 185 186 197
3 185 197 196
3 187 188 199
3 187 199 198
3 188 189 200
3 188 200 199
3 189 190 201
3 189 201 200
3 190 191 202
3 190 202 201
3 191 192 203
3 191 203 202
3 192 193 204
3 192 204 203
3 193 194 205
3 193 205 204
3 194 195 206
3 194 206 205
3 195 196 207
3 195 207 206
3 196 197 208
3 196 208 207
3 198 199 210
3 198 210 209
3 199 200 211
3 199 211 210
3 200 201 212
3 200 212 211
3 201 202 213
3 201 213 212
3 202 203 214
3 202 214 213
3 203 204 215
3 203 215 214
3 204 205 216
3 204 216 215
3 205 206 217
3 205 217 216
3 206 207 218
3 206 218 217
3 207 208 219
3 207 219 218
3 209 210 221
3 209 221 220
3 210 211 222
3 210 222 221
3 211 212 223
3 211 223 222
3 212 213 224
3 212 224 223
3 213 214 225
3 213 225 224
3 214 215 226
3 214 226 225
3 215 216 227
3 215 227 226
3 216 217 228
3 216 228 227
3 217 218 229
3 217 229 228
3 218 219 230
3 218 230 229
CELL_TYPES 400
5
5
5
5
5
5
5
5
5
5
5
5
5
5
5
5
5
5
5
5
5
5
5
5
5
5
5
5
5
5
5
5
5
5
5
5
5
5
5
5
5
5
5
5
5
5
5
5
5
5
5
5
5
5
5
5
5
5
5
5
5
5
5
5
5
5
5
5
5
5
5
5
5
5
5
5
5
5
5
5
5
5
5
5
5
5
5
5
5
5
5
5
5
5
5
5
5
5
5
5
5
5
5
5
5
5
5
5
5
5
5
5
5
5
5
5
5
5
5
5
5
5
5
5
5
5
5
5
5
5
5
5
5
5
5
5
5
5
5
5
5
5
5
5
5
5
5
5
5
5
5
5
5
5
5
5
5
5
5
5
5
5
5
5
5
5
5
5
5
5
5
5
5
5
5
5
5
5
5
5
5
5
5
5
5
5
5
5
5
5
5
5
5
5
5
5
5
5
5
5
5
5
5
5
5
5
5
5
5
5
5
5
5
5
5
5
5
5
5
5
5
5
5
5
5
5
5
5
5
5
5
5
5
5
5
5
5
5
5
5
5
5
5
5
5
5
5
5
5
5
5
5
5
5
5
5
5
5
5
5
5
5
5
5
5
5
5
5
5
5
5
5
5
5
5
5
5
5
5
5
5
5
5
5
5
5
5
5
5
5
5
5
5
5
5
5
5
5
5
5
5
5
5
5
5
5
5
5
5
5
5
5
5
5
5
5
5
5
5
5
5
5
5
5
5
5
5
5
5
5
5
5
5
5
5
5
5
5
5
5
5
5
5
5
5
5
5
5
5
5
5
5
5
5
5
5
5
5
5
5
5
5
5
5
5
5
5
5
5
5
5
5
5
5
5
5
5
5
5
5
5
5
5
5
5
5
5
5
5
5
5
5
5
5
5
5
5
5
5
5
POINT_DATA 231
SCALARS psi double 1
LOOKUP_TABLE default
1
0.582503
-0.3078
-0.943941
-0.802503
-0.000226685
0.801287
0.941587
0.305582
-0.581217
-0.973116
0.968666
0.572199
-0.299107
-0.923433
-0.787207
-0.00275215
0.783042
0.922671
0.301487
-0.567662
-0.961097
0.950485
0.563104
-0.294646
-0.908964
-0.774634
-0.00241968
0.770899
0.908084
0.296458
-0.559104
-0.948165
0.938321
0.555751
-0.290911
-0.896864
-0.764046
-0.00203624
0.760822
0.895889
0.292216
-0.551834
-0.936246
0.930802
0.550795
-0.288348
-0.888606
-0.756756
-0.00167355
0.754037
0.887598
0.289295
-0.546864
-0.927998
0.926832
0.547927
-0.286885
-0.883937
-0.752566
-0.00134614
0.750326
0.882973
0.287616
-0.544199
-0.923517
0.925132
0.546442
-0.286199
-0.881752
-0.750543
-0.00106249
0.748747
0.880912
0.286813
-0.543177
-0.921834
0.924534
0.545717
-0.285967
-0.880928
-0.749713
-0.000805309
0.748344
0.88027
0.286483
-0.543111
-0.921666
0.92414
0.545235
-0.285914
-0.880552
-0.749272
-0.000550044
0.748338
0.880107
0.2863
-0.543421
-0.922032
0.923659
0.544778
-0.285944
-0.880319
-0.748943
-0.000279883
0.748468
0.880096
0.286152
-0.543849
-0.922551
0.923113
0.544312
-0.286029
-0.88017
-0.748675
-3.79021e-11
0.748675
0.88017
0.286029
-0.544312
-0.923113
0.922551
0.543849
-0.286152
-0.880096
-0.748468
0.000279883
0.748943
0.880319
0.285944
-0.544778
-0.923659
0.922032
0.543421
-0.2863
-0.880107
-0.748338
0.000550044
0.749272
0.880552
0.285914
-0.545235
-0.92414
0.921666
0.543111
-0.286483
-0.88027
-0.748344
0.000805309
0.749713
0.880928
0.285967
-0.545717
-0.924534
0.921834
0.543177
-0.286813
-0.880912
-0.748747
0.00106249
0.750543
0.881752
0.286199
-0.546442
-0.925132
0.923517
0.544199
-0.287616
-0.882973
-0.750326
0.00134614
0.752566
0.883937
0.286885
-0.547927
-0.926832
0.927998
0.546864
-0.289295
-0.887598
-0.754037
0.00167355
0.756756
0.888606
0.288348
-0.550795
-0.930802
0.936246
0.551834
-0.292216
-0.895889
-0.760822
0.00203624
0.764046
0.896864
0.290911
-0.555751
-0.938321
0.948165
0.559104
-0.296458
-0.908084
-0.770899
0.00241968
0.774634
0.908964
0.294646
-0.563104
-0.950485
0.961097
0.567662
-0.301487
-0.922671
-0.783042
0.00275215
0.787207
0.923433
0.299107
-0.572199
-0.968666
0.973116
0.581217
-0.305582
-0.941587
-0.801287
0.000226685
0.802503
0.943941
0.3078
-0.582503
-1
VECTORS Et double
0.111031 -0.510794 0
0.138529 -0.797972 0
-0.0795487 -0.952224 0
-0.231116 -0.309884 0
-0.192315 0.587107 0
0.00495526 0.999924 0
0.19786 0.588479 0
0.227516 -0.30762 0
0.0697894 -0.949269 0
-0.144916 -0.827452 0
-0.0587771 -0.499267 0
0.0854591 -0.495502 0
0.0991052 -0.79466 0
-0.0545317 -0.94617 0
-0.164584 -0.307996 0
-0.139365 0.583228 0
0.000590041 0.993478 0
0.13975 0.584778 0
0.163536 -0.305543 0
0.0525397 -0.943166 0
-0.105571 -0.816542 0
-0.0554245 -0.497065 0
0.0636218 -0.488581 0
0.0624954 -0.790832 0
-0.0344907 -0.939561 0
-0.105739 -0.305877 0
-0.0903458 0.579064 0
-0.000704185 0.986457 0
0.0891868 0.58069 0
0.10534 -0.303351 0
0.0346034 -0.936542 0
-0.0701158 -0.806383 0
-0.0488005 -0.492072 0
0.0469027 -0.483513 0
0.0354893 -0.7865 0
-0.0201151 -0.93278 0
-0.0621784 -0.303647 0
-0.0535582 0.574861 0
-0.00108688 0.979276 0
0.0519079 0.576447 0
0.0618627 -0.301183 0
0.0207123 -0.929795 0
-0.0427416 -0.797105 0
-0.0392154 -0.485919 0
0.0333383 -0.480857 0
0.0189886 -0.782032 0
-0.0111894 -0.926246 0
-0.0349703 -0.301452 0
-0.0305045 0.570886 0
-0.00125333 0.972404 0
0.0286065 0.572333 0
0.034578 -0.299175 0
0.0119298 -0.923387 0
-0.0239971 -0.788128 0
-0.0283499 -0.481879 0
0.0223749 -0.480585 0
0.0111536 -0.778205 0
-0.0066051 -0.920431 0
-0.0210637 -0.29946 0
-0.0186952 0.567426 0
-0.0013379 0.966327 0
0.0166306 0.568656 0
0.0205378 -0.297476 0
0.00739762 -0.917782 0
-0.012335 -0.779828 0
-0.0180363 -0.480573 0
0.0137874 -0.48172 0
0.00788073 -0.776392 0
-0.00388023 -0.91619 0
-0.0129254 -0.297954 0
-0.0117418 0.56501 0
-0.00136482 0.961993 0
0.00958542 0.565961 0
0.0122349 -0.296359 0
0.0047126 -0.913869 0
-0.00603748 -0.775587 0
-0.00995982 -0.481229 0
0.00752441 -0.483083 0
0.00514823 -0.774914 0
-0.0018808 -0.913584 0
-0.00706494 -0.296988 0
-0.00671996 0.563655 0
-0.00135609 0.95945 0
0.00452044 0.564324 0
0.00622825 -0.295796 0
0.00276755 -0.911736 0
-0.00211114 -0.773814 0
-0.00428565 -0.482341 0
0.0043068 -0.483923 0
0.00341002 -0.773869 0
-0.000671452 -0.912069 0
-0.00365057 -0.296398 0
-0.00379314 0.562996 0
-0.00134097 0.958106 0
0.00156394 0.56342 0
0.00271895 -0.29561 0
0.00162076 -0.910759 0
0.000195943 -0.773046 0
-0.000452749 -0.483261 0
0.00308542 -0.484197 0
0.00255271 -0.773295 0
5.32046e-05 -0.911218 0
-0.00173438 -0.296024 0
-0.00217194 0.562765 0
-0.00134526 0.957532 0
-0.000102703 0.562959 0
0.000708107 -0.295611 0
0.000974393 -0.910629 0
0.00139386 -0.772846 0
0.00141241 -0.483835 0
0.00236941 -0.484133 0
0.00203317 -0.772971 0
0.000530765 -0.910733 0
-0.000509568 -0.295786 0
-0.001138 0.562759 0
-0.0013491 0.957359 0
-0.00113802 0.562768 0
-0.000501044 -0.295789 0
0.000526386 -0.91078 0
0.00205051 -0.772947 0
0.00236928 -0.484106 0
0.00139802 -0.48384 0
0.00139039 -0.77285 0
0.000977016 -0.910548 0
0.000735257 -0.295628 0
-9.6125e-05 0.562979 0
-0.00134524 0.957511 0
-0.00216277 0.562771 0
-0.00174059 -0.296021 0
4.94979e-05 -0.911275 0
0.00255088 -0.773348 0
0.00314407 -0.484304 0
-0.000553945 -0.483288 0
0.00017083 -0.773044 0
0.00162673 -0.910782 0
0.00270426 -0.295606 0
0.00156396 0.56343 0
-0.00134095 0.958073 0
-0.00378277 0.563012 0
-0.00363197 -0.296399 0
-0.000683655 -0.912068 0
0.00342509 -0.773788 0
0.00433463 -0.483773 0
-0.00428267 -0.482362 0
-0.00211883 -0.77383 0
0.00277303 -0.911734 0
0.00622593 -0.295795 0
0.00451635 0.564304 0
-0.00135612 0.959463 0
-0.00672006 0.563665 0
-0.00706199 -0.296981 0
-0.00189257 -0.913398 0
0.00516069 -0.77501 0
0.00759909 -0.482993 0
-0.00994205 -0.481189 0
-0.00602048 -0.775603 0
0.00471509 -0.913885 0
0.0122355 -0.296358 0
0.00958432 0.565982 0
-0.00136483 0.962015 0
-0.0117351 0.565032 0
-0.0129021 -0.297973 0
-0.0038848 -0.916199 0
0.00786354 -0.776335 0
0.0138513 -0.481683 0
-0.0180434 -0.480582 0
-0.0123337 -0.77984 0
0.0073959 -0.917776 0
0.0205455 -0.297474 0
0.0166449 0.568662 0
-0.00133793 0.966346 0
-0.018715 0.567437 0
-0.0210199 -0.299477 0
-0.00659613 -0.920434 0
0.0111464 -0.778116 0
0.0224432 -0.480248 0
-0.0283341 -0.481874 0
-0.0239961 -0.788114 0
0.0119258 -0.923373 0
0.0345801 -0.299185 0
0.0285882 0.572384 0
-0.00125331 0.972388 0
-0.0305056 0.57089 0
-0.034989 -0.301471 0
-0.0111749 -0.926265 0
0.0189942 -0.782156 0
0.0334411 -0.480924 0
-0.0391689 -0.485921 0
-0.0427391 -0.797104 0
0.0207125 -0.929774 0
0.0618546 -0.301183 0
0.051913 0.576438 0
-0.00108686 0.979241 0
-0.0535682 0.574894 0
-0.0621663 -0.303672 0
-0.0201491 -0.932693 0
0.0354427 -0.786525 0
0.0468296 -0.483771 0
-0.0487845 -0.49207 0
-0.0701143 -0.806391 0
0.0346032 -0.936547 0
0.105337 -0.303345 0
0.0891802 0.580735 0
-0.000704143 0.986429 0
-0.0903343 0.578972 0
-0.105749 -0.305997 0
-0.0344855 -0.939925 0
0.0625356 -0.79112 0
0.0632008 -0.48824 0
-0.0554035 -0.497063 0
-0.10557 -0.816543 0
0.0525383 -0.943159 0
0.16356 -0.305532 0
0.139729 0.584784 0
0.000589914 0.993401 0
-0.139365 0.583368 0
-0.164603 -0.307909 0
-0.0545811 -0.946847 0
0.0991369 -0.794031 0
0.0854519 -0.49479 0
-0.0587772 -0.499267 0
-0.144913 -0.827438 0
0.0697833 -0.949233 0
0.227541 -0.30764 0
0.197805 0.588473 0
0.00495558 0.999988 0
-0.192272 0.587017 0
-0.231177 -0.309896 0
-0.0795161 -0.952009 0
0.138468 -0.798227 0
0.110211 -0.508817 0
