# vtk DataFile Version 3.0
tp3485 scalar+vector
ASCII
DATASET UNSTRUCTURED_GRID
POINTS 231 double
0 0 0
0.1 0 0
0.2 0 0
0.3 0 0
0.4 0 0
0.5 0 0
0.6 0 0
0.7 0 0
0.8 0 0
0.9 0 0
1 0 0
0 0.025 0
0.1 0.025 0
0.2 0.025 0
0.3 0.025 0
0.4 0.025 0
0.5 0.025 0
0.6 0.025 0
0.7 0.025 0
0.8 0.025 0
0.9 0.025 0
1 0.025 0
0 0.05 0
0.1 0.05 0
0.2 0.05 0
0.3 0.05 0
0.4 0.05 0
0.5 0.05 0
0.6 0.05 0
0.7 0.05 0
0.8 0.05 0
0.9 0.05 0
1 0.05 0
0 0.075 0
0.1 0.075 0
0.2 0.075 0
0.3 0.075 0
0.4 0.075 0
0.5 0.075 0
0.6 0.075 0
0.7 0.075 0
0.8 0.075 0
0.9 0.075 0
1 0.075 0
0 0.1 0
0.1 0.1 0
0.2 0.1 0
0.3 0.1 0
0.4 0.1 0
0.5 0.1 0
0.6 0.1 0
0.7 0.1 0
0.8 0.1 0
0.9 0.1 0
1 0.1 0
0 0.125 0
0.1 0.125 0
0.2 0.125 0
0.3 0.125 0
0.4 0.125 0
0.5 0.125 0
0.6 0.125 0
0.7 0.125 0
0.8 0.125 0
0.9 0.125 0
1 0.125 0
0 0.15 0
0.1 0.15 0
0.2 0.15 0
0.3 0.15 0
0.4 0.15 0
0.5 0.15 0
0.6 0.15 0
0.7 0.15 0
0.8 0.15 0
0.9 0.15 0
1 0.15 0
0 0.175 0
0.1 0.175 0
0.2 0.175 0
0.3 0.175 0
0.4 0.175 0
0.5 0.175 0
0.6 0.175 0
0.7 0.175 0
0.8 0.175 0
0.9 0.175 0
1 0.175 0
0 0.2 0
0.1 0.2 0
0.2 0.2 0
0.3 0.2 0
0.4 0.2 0
0.5 0.2 0
0.6 0.2 0
0.7 0.2 0
0.8 0.2 0
0.9 0.2 0
1 0.2 0
0 0.225 0
0.1 0.225 0
0.2 0.225 0
0.3 0.225 0
0.4 0.225 0
0.5 0.225 0
0.6 0.225 0
0.7 0.225 0
0.8 0.225 0
0.9 0.225 0
1 0.225 0
0 0.25 0
0.1 0.25 0
0.2 0.25 0
0.3 0.25 0
0.4 0.25 0
0.5 0.25 0
0.6 0.25 0
0.7 0.25 0
0.8 0.25 0
0.9 0.25 0
1 0.25 0
0 0.275 0
0.1 0.275 0
0.2 0.275 0
0.3 0.275 0
0.4 0.275 0
0.5 0.275 0
0.6 0.275 0
0.7 0.275 0
0.8 0.275 0
0.9 0.275 0
1 0.275 0
0 0.3 0
0.1 0.3 0
0.2 0.3 0
0.3 0.3 0
0.4 0.3 0
0.5 0.3 0
0.6 0.3 0
0.7 0.3 0
0.8 0.3 0
0.9 0.3 0
1 0.3 0
0 0.325 0
0.1 0.325 0
0.2 0.325 0
0.3 0.325 0
0.4 0.325 0
0.5 0.325 0
0.6 0.325 0
0.7 0.325 0
0.8 0.325 0
0.9 0.325 0
1 0.325 0
0 0.35 0
0.1 0.35 0
0.2 0.35 0
0.3 0.35 0
0.4 0.35 0
0.5 0.35 0
0.6 0.35 0
0.7 0.35 0
0.8 0.35 0
0.9 0.35 0
1 0.35 0
0 0.375 0
0.1 0.375 0
0.2 0.375 0
0.3 0.375 0
0.4 0.375 0
0.5 0.375 0
0.6 0.375 0
0.7 0.375 0
0.8 0.375 0
0.9 0.375 0
1 0.375 0
0 0.4 0
0.1 0.4 0
0.2 0.4 0
0.3 0.4 0
0.4 0.4 0
0.5 0.4 0
0.6 0.4 0
0.7 0.4 0
0.8 0.4 0
0.9 0.4 0
1 0.4 0
0 0.425 0
0.1 0.425 0
0.2 0.425 0
0.3 0.425 0
0.4 0.425 0
0.5 0.425 0
0.6 0.425 0
0.7 0.425 0
0.8 0.425 0
0.9 0.425 0
1 0.425 0
0 0.45 0
0.1 0.45 0
0.2 0.45 0
0.3 0.45 0
0.4 0.45 0
0.5 0.45 0
0.6 0.45 0
0.7 0.45 0
0.8 0.45 0
0.9 0.45 0
1 0.45 0
0 0.475 0
0.1 0.475 0
0.2 0.475 0
0.3 0.475 0
0.4 0.475 0
0.5 0.475 0
0.6 0.475 0
0.7 0.475 0
0.8 0.475 0
0.9 0.475 0
1 0.475 0
0 0.5 0
0.1 0.5 0
0.2 0.5 0
0.3 0.5 0
0.4 0.5 0
0.5 0.5 0
0.6 0.5 0
0.7 0.5 0
0.8 0.5 0
0.9 0.5 0
1 0.5 0
CELLS 400 1600
3 0 1 12
3 0 12 11
3 1 2 13
3 1 13 12
3 2 3 14
3 2 14 13
3 3 4 15
3 3 15 14
3 4 5 16
3 4 16 15
3 5 6 17
3 5 17 16
3 6 7 18
3 6 18 17
3 7 8 19
3 7 19 18
3 8 9 20
3 8 20 19
3 9 10 21
3 9 21 20
3 11 12 23
3 11 23 22
3 12 13 24
3 12 24 23
3 13 14 25
3 13 25 24
3 14 15 26
3 14 26 25
3 15 16 27
3 15 27 26
3 16 17 28
3 16 28 27
3 17 18 29
3 17 29 28
3 18 19 30
3 18 30 29
3 19 20 31
3 19 31 30
3 20 21 32
3 20 32 31
3 22 23 34
3 22 34 33
3 23 24 35
3 23 35 34
3 24 25 36
3 24 36 35
3 25 26 37
3 25 37 36
3 26 27 38
3 26 38 37
3 27 28 39
3 27 39 38
3 28 29 40
3 28 40 39
3 29 30 41
3 29 41 40
3 30 31 42
3 30 42 41
3 31 32 43
3 31 43 42
3 33 34 45
3 33 45 44
3 34 35 46
3 34 46 45
3 35 36 47
3 35 47 46
3 36 37 48
3 36 48 47
3 37 38 49
3 37 49 48
3 38 39 50
3 38 50 49
3 39 40 51
3 39 51 50
3 40 41 52
3 40 52 51
3 41 42 53
3 41 53 52
3 42 43 54
3 42 54 53
3 44 45 56
3 44 56 55
3 45 46 57
3 45 57 56
3 46 47 58
3 46 58 57
3 47 48 59
3 47 59 58
3 48 49 60
3 48 60 59
3 49 50 61
3 49 61 60
3 50 51 62
3 50 62 61
3 51 52 63
3 51 63 62
3 52 53 64
3 52 64 63
3 53 54 65
3 53 65 64
3 55 56 67
3 55 67 66
3 56 57 68
3 56 68 67
3 57 58 69
3 57 69 68
3 58 59 70
3 58 70 69
3 59 60 71
3 59 71 70
3 60 61 72
3 60 72 71
3 61 62 73
3 61 73 72
3 62 63 74
3 62 74 73
3 63 64 75
3 63 75 74
3 64 65 76
3 64 76 75
3 66 67 78
3 66 78 77
3 67 68 79
3 67 79 78
3 68 69 80
3 68 80 79
3 69 70 81
3 69 81 80
3 70 71 82
3 70 82 81
3 71 72 83
3 71 83 82
3 72 73 84
3 72 84 83
3 73 74 85
3 73 85 84
3 74 75 86
3 74 86 85
3 75 76 87
3 75 87 86
3 77 78 89
3 77 89 88
3 78 79 90
3 78 90 89
3 79 80 91
3 79 91 90
3 80 81 92
3 80 92 91
3 81 82 93
3 81 93 92
3 82 83 94
3 82 94 93
3 83 84 95
3 83 95 94
3 84 85 96
3 84 96 95
3 85 86 97
3 85 97 96
3 86 87 98
3 86 98 97
3 88 89 100
3 88 100 99
3 89 90 101
3 89 101 100
3 90 91 102
3 90 102 101
3 91 92 103
3 91 103 102
3 92 93 104
3 92 104 103
3 93 94 105
3 93 105 104
3 94 95 106
3 94 106 105
3 95 96 107
3 95 107 106
3 96 97 108
3 96 108 107
3 97 98 109
3 97 109 108
3 99 100 111
3 99 111 110
3 100 101 112
3 100 112 111
3 101 102 113
3 101 113 112
3 102 103 114
3 102 114 113
3 103 104 115
3 103 115 114
3 104 105 116
3 104 116 115
3 105 106 117
3 105 117 116
3 106 107 118
3 106 118 117
3 107 108 119
3 107 119 118
3 108 109 120
3 108 120 119
3 110 111 122
3 110 122 121
3 111 112 123
3 111 123 122
3 112 113 124
3 112 124 123
3 113 114 125
3 113 125 124
3 114 115 126
3 114 126 125
3 115 116 127
3 115 127 126
3 116 117 128
3 116 128 127
3 117 118 129
3 117 129 128
3 118 119 130
3 118 130 129
3 119 120 131
3 119 131 130
3 121 122 133
3 121 133 132
3 122 123 134
3 122 134 133
3 123 124 135
3 123 135 134
3 124 125 136
3 124 136 135
3 125 126 137
3 125 137 136
3 126 127 138
3 126 138 137
3 127 128 139
3 127 139 138
3 128 129 140
3 128 140 139
3 129 130 141
3 129 141 140
3 130 131 142
3 130 142 141
3 132 133 144
3 132 144 143
3 133 134 145
3 133 145 144
3 134 135 146
3 134 146 145
3 135 136 147
3 135 147 146
3 136 137 148
3 136 148 147
3 137 138 149
3 137 149 148
3 138 139 150
3 138 150 149
3 139 140 151
3 139 151 150
3 140 141 152
3 140 152 151
3 141 142 153
3 141 153 152
3 143 144 155
3 143 155 154
3 144 145 156
3 144 156 155
3 145 146 157
3 145 157 156
3 146 147 158
3 146 158 157
3 147 148 159
3 147 159 158
3 148 149 160
3 148 160 159
3 149 150 161
3 149 161 160
3 150 151 162
3 150 162 161
3 151 152 163
3 151 163 162
3 152 153 164
3 152 164 163
3 154 155 166
3 154 166 165
3 155 156 167
3 155 167 166
3 156 157 168
3 156 168 167
3 157 158 169
3 157 169 168
3 158 159 170
3 158 170 169
3 159 160 171
3 159 171 170
3 160 161 172
3 160 172 171
3 161 162 173
3 161 173 172
3 162 163 174
3 162 174 173
3 163 164 175
3 163 175 174
3 165 166 177
3 165 177 176
3 166 167 178
3 166 178 177
3 167 168 179
3 167 179 178
3 168 169 180
3 168 180 179
3 169 170 181
3 169 181 180
3 170 171 182
3 170 182 181
3 171 172 183
3 171 183 182
3 172 173 184
3 172 184 183
3 173 174 185
3 173 185 184
3 174 175 186
3 174 186 185
3 176 177 188
3 176 188 187
3 177 178 189
3 177 189 188
3 178 179 190
3 178 190 189
3 179 180 191
3 179 191 190
3 180 181 192
3 180 192 191
3 181 182 193
3 181 193 192
3 182 183 194
3 182 194 193
3 183 184 195
3 183 195 194
3 184 185 196
3 184 196 195
3 185 186 197
3 185 197 196
3 187 188 199
3 187 199 198
3 188 189 200
3 188 200 199
3 189 190 201
3 189 201 200
3 190 191 202
3 190 202 201
3 191 192 203
3 191 203 202
3 192 193 204
3 192 204 203
3 193 194 205
3 193 205 204
3 194 195 206
3 194 206 205
3 195 196 207
3 195 207 206
3 196 197 208
3 196 208 207
3 198 199 210
3 198 210 209
3 199 200 211
3 199 211 210
3 200 201 212
3 200 212 211
3 201 202 213
3 201 213 212
3 202 203 214
3 202 214 213
3 203 204 215
3 203 215 214
3 204 205 216
3 204 216 215
3 205 206 217
3 205 217 216
3 206 207 218
3 206 218 217
3 207 208 219
3 207 219 218
3 209 210 221
3 209 221 220
3 210 211 222
3 210 222 221
3 211 212 223
3 211 223 222
3 212 213 224
3 212 224 223
3 213 214 225
3 213 225 224
3 214 215 226
3 214 226 225
3 215 216 227
3 215 227 226
3 216 217 228
3 216 228 227
3 217 218 229
3 217 229 228
3 218 219 230
3 218 230 229
CELL_TYPES 400
5
5
5
5
5
5
5
5
5
5
5
5
5
5
5
5
5
5
5
5
5
5
5
5
5
5
5
5
5
5
5
5
5
5
5
5
5
5
5
5
5
5
5
5
5
5
5
5
5
5
5
5
5
5
5
5
5
5
5
5
5
5
5
5
5
5
5
5
5
5
5
5
5
5
5
5
5
5
5
5
5
5
5
5
5
5
5
5
5
5
5
5
5
5
5
5
5
5
5
5
5
5
5
5
5
5
5
5
5
5
5
5
5
5
5
5
5
5
5
5
5
5
5
5
5
5
5
5
5
5
5
5
5
5
5
5
5
5
5
5
5
5
5
5
5
5
5
5
5
5
5
5
5
5
5
5
5
5
5
5
5
5
5
5
5
5
5
5
5
5
5
5
5
5
5
5
5
5
5
5
5
5
5
5
5
5
5
5
5
5
5
5
5
5
5
5
5
5
5
5
5
5
5
5
5
5
5
5
5
5
5
5
5
5
5
5
5
5
5
5
5
5
5
5
5
5
5
5
5
5
5
5
5
5
5
5
5
5
5
5
5
5
5
5
5
5
5
5
5
5
5
5
5
5
5
5
5
5
5
5
5
5
5
5
5
5
5
5
5
5
5
5
5
5
5
5
5
5
5
5
5
5
5
5
5
5
5
5
5
5
5
5
5
5
5
5
5
5
5
5
5
5
5
5
5
5
5
5
5
5
5
5
5
5
5
5
5
5
5
5
5
5
5
5
5
5
5
5
5
5
5
5
5
5
5
5
5
5
5
5
5
5
5
5
5
5
5
5
5
5
5
5
5
5
5
5
5
5
5
5
5
5
5
5
5
5
5
5
5
5
5
5
5
5
5
5
5
5
5
5
5
5
5
5
5
5
5
5
5
5
5
5
5
5
5
5
5
5
5
5
POINT_DATA 231
SCALARS psi double 1
LOOKUP_TABLE default
1
0.801324
0.304935
-0.308093
-0.804294
-0.99408
-0.804698
-0.307997
0.306793
0.804274
0.986809
0.977227
0.787953
0.301007
-0.301103
-0.789171
-0.976596
-0.791523
-0.304161
0.299873
0.789814
0.974898
0.93474
0.754941
0.288261
-0.288797
-0.756502
-0.936026
-0.758526
-0.29133
0.287625
0.757363
0.938419
0.870208
0.702759
0.268275
-0.268831
-0.704143
-0.871246
-0.706037
-0.271157
0.267727
0.704958
0.875143
0.785989
0.634537
0.242262
-0.242528
-0.635469
-0.7864
-0.637381
-0.244888
0.241522
0.636112
0.790503
0.684434
0.55241
0.211027
-0.21084
-0.552848
-0.68436
-0.554845
-0.213346
0.209978
0.553334
0.687946
0.567655
0.458041
0.175184
-0.174463
-0.458047
-0.567289
-0.460158
-0.177169
0.173798
0.458475
0.570108
0.437953
0.353355
0.135434
-0.134128
-0.35296
-0.437522
-0.355207
-0.137073
0.133715
0.353471
0.439794
0.29775
0.24044
0.0925368
-0.0906672
-0.239685
-0.297627
-0.242052
-0.0938218
0.0905513
0.240379
0.299385
0.150354
0.121746
0.0474054
-0.0450408
-0.120681
-0.150628
-0.123124
-0.0483293
0.0452536
0.121596
0.151874
-0.000744786
8.81408e-05
0.0011041
0.00166707
0.0012343
-2.60827e-11
-0.0012343
-0.00166707
-0.0011041
-8.81408e-05
0.000744786
-0.151874
-0.121596
-0.0452536
0.0483293
0.123124
0.150628
0.120681
0.0450408
-0.0474054
-0.121746
-0.150354
-0.299385
-0.240379
-0.0905513
0.0938218
0.242052
0.297627
0.239685
0.0906672
-0.0925368
-0.24044
-0.29775
-0.439794
-0.353471
-0.133715
0.137073
0.355207
0.437522
0.35296
0.134128
-0.135434
-0.353355
-0.437953
-0.570108
-0.458475
-0.173798
0.177169
0.460158
0.567289
0.458047
0.174463
-0.175184
-0.458041
-0.567655
-0.687946
-0.553334
-0.209978
0.213346
0.554845
0.68436
0.552848
0.21084
-0.211027
-0.55241
-0.684434
-0.790503
-0.636112
-0.241522
0.244888
0.637381
0.7864
0.635469
0.242528
-0.242262
-0.634537
-0.785989
-0.875143
-0.704958
-0.267727
0.271157
0.706037
0.871246
0.704143
0.268831
-0.268275
-0.702759
-0.870208
-0.938419
-0.757363
-0.287625
0.29133
0.758526
0.936026
0.756502
0.288797
-0.288261
-0.754941
-0.93474
-0.974898
-0.789814
-0.299873
0.304161
0.791523
0.976596
0.789171
0.301103
-0.301007
-0.787953
-0.977227
-0.986809
-0.804274
-0.306793
0.307997
0.804698
0.99408
0.804294
0.308093
-0.304935
-0.801324
-1
VECTORS Et double
0.288938 -0.317626 0
0.292893 -0.564887 0
0.108445 -0.922805 0
-0.117769 -0.923358 0
-0.299034 -0.571748 0
-0.366219 -0.00140284 0
-0.293715 0.570131 0
-0.109098 0.924744 0
0.117247 0.926459 0
0.296666 0.592435 0
0.242573 0.306919 0
0.366592 -0.337274 0
0.344815 -0.548309 0
0.131352 -0.895522 0
-0.134178 -0.89613 0
-0.348776 -0.554985 0
-0.430339 -0.00150796 0
-0.347748 0.553196 0
-0.132443 0.897427 0
0.133611 0.899224 0
0.351206 0.573783 0
0.360148 0.330824 0
0.457656 -0.345294 0
0.39386 -0.525046 0
0.15093 -0.856463 0
-0.152801 -0.857108 0
-0.398621 -0.530919 0
-0.492419 -0.00159683 0
-0.398378 0.528983 0
-0.152304 0.858305 0
0.152142 0.860145 0
0.404079 0.547311 0
0.462959 0.347614 0
0.548797 -0.338239 0
0.447004 -0.492533 0
0.171272 -0.802312 0
-0.173522 -0.802979 0
-0.452556 -0.497504 0
-0.559001 -0.00167289 0
-0.452225 0.49544 0
-0.172875 0.804066 0
0.172738 0.805896 0
0.459068 0.511179 0
0.561755 0.343189 0
0.63822 -0.3159 0
0.508144 -0.448554 0
0.194445 -0.72995 0
-0.197152 -0.730637 0
-0.513999 -0.452827 0
-0.634847 -0.0017424 0
-0.513525 0.450643 0
-0.196259 0.731596 0
0.196196 0.733383 0
0.519227 0.462618 0
0.65601 0.321143 0
0.726802 -0.278459 0
0.577647 -0.392214 0
0.220634 -0.63738 0
-0.223704 -0.638102 0
-0.583147 -0.395673 0
-0.720217 -0.00181755 0
-0.582576 0.39336 0
-0.222654 0.638921 0
0.222508 0.640615 0
0.584711 0.400413 0
0.747854 0.282772 0
0.812908 -0.231387 0
0.648959 -0.326664 0
0.246924 -0.528051 0
-0.250248 -0.528827 0
-0.652323 -0.328164 0
-0.805674 -0.00188207 0
-0.6517 0.325734 0
-0.249107 0.529505 0
0.248759 0.531078 0
0.652273 0.331007 0
0.829702 0.234497 0
0.892668 -0.179102 0
0.710004 -0.252025 0
0.26983 -0.406636 0
-0.273229 -0.407494 0
-0.712346 -0.253217 0
-0.879823 -0.00195144 0
-0.711726 0.250668 0
-0.272115 0.408034 0
0.271454 0.409518 0
0.711941 0.255512 0
0.89875 0.181649 0
0.952815 -0.121843 0
0.754632 -0.170829 0
0.286879 -0.275925 0
-0.290111 -0.276895 0
-0.756637 -0.172545 0
-0.934608 -0.00201411 0
-0.756135 0.169888 0
-0.289222 0.27733 0
0.288084 0.27871 0
0.755904 0.174173 0
0.954471 0.124436 0
0.987887 -0.0611511 0
0.782188 -0.0856304 0
0.297519 -0.138887 0
-0.30035 -0.139972 0
-0.783797 -0.0879664 0
-0.968313 -0.0020577 0
-0.783506 0.0852284 0
-0.299849 0.140332 0
0.298184 0.141649 0
0.78281 0.0888826 0
0.988723 0.0637893 0
0.999999 0.00133137 0
0.791689 0.00161232 0
0.301332 0.00137081 0
-0.303639 0.00017088 0
-0.792845 -0.00138292 0
-0.979673 -0.00207531 0
-0.792861 -0.00138294 0
-0.303639 0.00017089 0
0.301347 0.00137089 0
0.791658 0.00161226 0
0.999932 0.00133129 0
0.988747 0.0637894 0
0.78281 0.0888841 0
0.298159 0.141638 0
-0.299867 0.140339 0
-0.783525 0.0852288 0
-0.968295 -0.00205975 0
-0.783815 -0.0879706 0
-0.300352 -0.139972 0
0.297537 -0.138894 0
0.782253 -0.0856339 0
0.988137 -0.0611637 0
0.95458 0.124442 0
0.755918 0.174173 0
0.288095 0.27872 0
-0.28922 0.27733 0
-0.756141 0.169886 0
-0.93459 -0.00201188 0
-0.756666 -0.172557 0
-0.290107 -0.276895 0
0.286883 -0.275923 0
0.754564 -0.17081 0
0.952559 -0.121803 0
0.898781 0.181658 0
0.711964 0.255517 0
0.271457 0.409517 0
-0.272115 0.408035 0
-0.7117 0.250661 0
-0.879841 -0.00195305 0
-0.712357 -0.25322 0
-0.273234 -0.4075 0
0.269784 -0.406558 0
0.710108 -0.252052 0
0.89252 -0.179074 0
0.829629 0.234475 0
0.652263 0.331017 0
0.248766 0.531089 0
-0.249104 0.529498 0
-0.651713 0.325734 0
-0.805679 -0.00187217 0
-0.652344 -0.328179 0
-0.250257 -0.52886 0
0.24693 -0.528056 0
0.648897 -0.326636 0
0.812967 -0.231354 0
0.747872 0.282778 0
0.584717 0.400419 0
0.222505 0.640612 0
-0.222655 0.638916 0
-0.582595 0.393361 0
-0.720239 -0.00180494 0
-0.583174 -0.395674 0
-0.223692 -0.638114 0
0.220625 -0.637372 0
0.577576 -0.392165 0
0.72635 -0.278273 0
0.65599 0.321138 0
0.519217 0.462608 0
0.19619 0.73338 0
-0.196262 0.731608 0
-0.513537 0.45066 0
-0.634833 -0.00174807 0
-0.514016 -0.452861 0
-0.197163 -0.730658 0
0.194431 -0.729965 0
0.508209 -0.448658 0
0.638464 -0.315927 0
0.561695 0.343192 0
0.459062 0.51118 0
0.172735 0.80588 0
-0.17287 0.804059 0
-0.452219 0.495411 0
-0.558993 -0.00166834 0
-0.452591 -0.497535 0
-0.173518 -0.802994 0
0.171302 -0.802244 0
0.446942 -0.492535 0
0.549025 -0.338385 0
0.462937 0.347611 0
0.404078 0.547318 0
0.152142 0.860151 0
-0.152303 0.858307 0
-0.398385 0.529 0
-0.492394 -0.00159352 0
-0.39857 -0.530875 0
-0.152836 -0.85737 0
0.150963 -0.856776 0
0.394039 -0.525227 0
0.456772 -0.3451 0
0.360117 0.330823 0
0.351205 0.573777 0
0.133608 0.899209 0
-0.132457 0.897467 0
-0.347718 0.553177 0
-0.430345 -0.00145579 0
-0.34881 -0.55509 0
-0.134181 -0.896027 0
0.13146 -0.896141 0
0.344746 -0.547897 0
0.366147 -0.336899 0
0.242573 0.306919 0
0.296661 0.592418 0
0.117238 0.926441 0
-0.109109 0.924748 0
-0.293638 0.570034 0
-0.36624 -0.00140294 0
-0.298967 -0.571571 0
-0.117793 -0.923193 0
0.1084 -0.922614 0
0.292791 -0.564992 0
0.287319 -0.316299 0
