# vtk DataFile Version 3.0
tp3485 scalar+vector
ASCII
DATASET UNSTRUCTURED_GRID
POINTS 231 double
0 0 0
0.1 0 0
0.2 0 0
0.3 0 0
0.4 0 0
0.5 0 0
0.6 0 0
0.7 0 0
0.8 0 0
0.9 0 0
1 0 0
0 0.025 0
0.1 0.025 0
0.2 0.025 0
0.3 0.025 0
0.4 0.025 0
0.5 0.025 0
0.6 0.025 0
0.7 0.025 0
0.8 0.025 0
0.9 0.025 0
1 0.025 0
0 0.05 0
0.1 0.05 0
0.2 0.05 0
0.3 0.05 0
0.4 0.05 0
0.5 0.05 0
0.6 0.05 0
0.7 0.05 0
0.8 0.05 0
0.9 0.05 0
1 0.05 0
0 0.075 0
0.1 0.075 0
0.2 0.075 0
0.3 0.075 0
0.4 0.075 0
0.5 0.075 0
0.6 0.075 0
0.7 0.075 0
0.8 0.075 0
0.9 0.075 0
1 0.075 0
0 0.1 0
0.1 0.1 0
0.2 0.1 0
0.3 0.1 0
0.4 0.1 0
0.5 0.1 0
0.6 0.1 0
0.7 0.1 0
0.8 0.1 0
0.9 0.1 0
1 0.1 0
0 0.125 0
0.1 0.125 0
0.2 0.125 0
0.3 0.125 0
0.4 0.125 0
0.5 0.125 0
0.6 0.125 0
0.7 0.125 0
0.8 0.125 0
0.9 0.125 0
1 0.125 0
0 0.15 0
0.1 0.15 0
0.2 0.15 0
0.3 0.15 0
0.4 0.15 0
0.5 0.15 0
0.6 0.15 0
0.7 0.15 0
0.8 0.15 0
0.9 0.15 0
1 0.15 0
0 0.175 0
0.1 0.175 0
0.2 0.175 0
0.3 0.175 0
0.4 0.175 0
0.5 0.175 0
0.6 0.175 0
0.7 0.175 0
0.8 0.175 0
0.9 0.175 0
1 0.175 0
0 0.2 0
0.1 0.2 0
0.2 0.2 0
0.3 0.2 0
0.4 0.2 0
0.5 0.2 0
0.6 0.2 0
0.7 0.2 0
0.8 0.2 0
0.9 0.2 0
1 0.2 0
0 0.225 0
0.1 0.225 0
0.2 0.225 0
0.3 0.225 0
0.4 0.225 0
0.5 0.225 0
0.6 0.225 0
0.7 0.225 0
0.8 0.225 0
0.9 0.225 0
1 0.225 0
0 0.25 0
0.1 0.25 0
0.2 0.25 0
0.3 0.25 0
0.4 0.25 0
0.5 0.25 0
0.6 0.25 0
0.7 0.25 0
0.8 0.25 0
0.9 0.25 0
1 0.25 0
0 0.275 0
0.1 0.275 0
0.2 0.275 0
0.3 0.275 0
0.4 0.275 0
0.5 0.275 0
0.6 0.275 0
0.7 0.275 0
0.8 0.275 0
0.9 0.275 0
1 0.275 0
0 0.3 0
0.1 0.3 0
0.2 0.3 0
0.3 0.3 0
0.4 0.3 0
0.5 0.3 0
0.6 0.3 0
0.7 0.3 0
0.8 0.3 0
0.9 0.3 0
1 0.3 0
0 0.325 0
0.1 0.325 0
0.2 0.325 0
0.3 0.325 0
0.4 0.325 0
0.5 0.325 0
0.6 0.325 0
0.7 0.325 0
0.8 0.325 0
0.9 0.325 0
1 0.325 0
0 0.35 0
0.1 0.35 0
0.2 0.35 0
0.3 0.35 0
0.4 0.35 0
0.5 0.35 0
0.6 0.35 0
0.7 0.35 0
0.8 0.35 0
0.9 0.35 0
1 0.35 0
0 0.375 0
0.1 0.375 0
0.2 0.375 0
0.3 0.375 0
0.4 0.375 0
0.5 0.375 0
0.6 0.375 0
0.7 0.375 0
0.8 0.375 0
0.9 0.375 0
1 0.375 0
0 0.4 0
0.1 0.4 0
0.2 0.4 0
0.3 0.4 0
0.4 0.4 0
0.5 0.4 0
0.6 0.4 0
0.7 0.4 0
0.8 0.4 0
0.9 0.4 0
1 0.4 0
0 0.425 0
0.1 0.425 0
0.2 0.425 0
0.3 0.425 0
0.4 0.425 0
0.5 0.425 0
0.6 0.425 0
0.7 0.425 0
0.8 0.425 0
0.9 0.425 0
1 0.425 0
0 0.45 0
0.1 0.45 0
0.2 0.45 0
0.3 0.45 0
0.4 0.45 0
0.5 0.45 0
0.6 0.45 0
0.7 0.45 0
0.8 0.45 0
0.9 0.45 0
1 0.45 0
0 0.475 0
0.1 0.475 0
0.2 0.475 0
0.3 0.475 0
0.4 0.475 0
0.5 0.475 0
0.6 0.475 0
0.7 0.475 0
0.8 0.475 0
0.9 0.475 0
1 0.475 0
0 0.5 0
0.1 0.5 0
0.2 0.5 0
0.3 0.5 0
0.4 0.5 0
0.5 0.5 0
0.6 0.5 0
0.7 0.5 0
0.8 0.5 0
0.9 0.5 0
1 0.5 0
CELLS 400 1600
3 0 1 12
3 0 12 11
3 1 2 13
3 1 13 12
3 2 3 14
3 2 14 13
3 3 4 15
3 3 15 14
3 4 5 16
3 4 16 15
3 5 6 17
3 5 17 16
3 6 7 18
3 6 18 17
3 7 8 19
3 7 19 18
3 8 9 20
3 8 20 19
3 9 10 21
3 9 21 20
3 11 12 23
3 11 23 22
3 12 13 24
3 12 24 23
3 13 14 25
3 13 25 24
3 14 15 26
3 14 26 25
3 15 16 27
3 15 27 26
3 16 17 28
3 16 28 27
3 17 18 29
3 17 29 28
3 18 19 30
3 18 30 29
3 19 20 31
3 19 31 30
3 20 21 32
3 20 32 31
3 22 23 34
3 22 34 33
3 23 24 35
3 23 35 34
3 24 25 36
3 24 36 35
3 25 26 37
3 25 37 36
3 26 27 38
3 26 38 37
3 27 28 39
3 27 39 38
3 28 29 40
3 28 40 39
3 29 30 41
3 29 41 40
3 30 31 42
3 30 42 41
3 31 32 43
3 31 43 42
3 33 34 45
3 33 45 44
3 34 35 46
3 34 46 45
3 35 36 47
3 35 47 46
3 36 37 48
3 36 48 47
3 37 38 49
3 37 49 48
3 38 39 50
3 38 50 49
3 39 40 51
3 39 51 50
3 40 41 52
3 40 52 51
3 41 42 53
3 41 53 52
3 42 43 54
3 42 54 53
3 44 45 56
3 44 56 55
3 45 46 57
3 45 57 56
3 46 47 58
3 46 58 57
3 47 48 59
3 47 59 58
3 48 49 60
3 48 60 59
3 49 50 61
3 49 61 60
3 50 51 62
3 50 62 61
3 51 52 63
3 51 63 62
3 52 53 64
3 52 64 63
3 53 54 65
3 53 65 64
3 55 56 67
3 55 67 66
3 56 57 68
3 56 68 67
3 57 58 69
3 57 69 68
3 58 59 70
3 58 70 69
3 59 60 71
3 59 71 70
3 60 61 72
3 60 72 71
3 61 62 73
3 61 73 72
3 62 63 74
3 62 74 73
3 63 64 75
3 63 75 74
3 64 65 76
3 64 76 75
3 66 67 78
3 66 78 77
3 67 68 79
3 67 79 78
3 68 69 80
3 68 80 79
3 69 70 81
3 69 81 80
3 70 71 82
3 70 82 81
3 71 72 83
3 71 83 82
3 72 73 84
3 72 84 83
3 73 74 85
3 73 85 84
3 74 75 86
3 74 86 85
3 75 76 87
3 75 87 86
3 77 78 89
3 77 89 88
3 78 79 90
3 78 90 89
3 79 80 91
3 79 91 90
3 80 81 92
3 80 92 91
3 81 82 93
3 81 93 92
3 82 83 94
3 82 94 93
3 83 84 95
3 83 95 94
3 84 85 96
3 84 96 95
3 85 86 97
3 85 97 96
3 86 87 98
3 86 98 97
3 88 89 100
3 88 100 99
3 89 90 101
3 89 101 100
3 90 91 102
3 90 102 101
3 91 92 103
3 91 103 102
3 92 93 104
3 92 104 103
3 93 94 105
3 93 105 104
3 94 95 106
3 94 106 105
3 95 96 107
3 95 107 106
3 96 97 108
3 96 108 107
3 97 98 109
3 97 109 108
3 99 100 111
3 99 111 110
3 100 101 112
3 100 112 111
3 101 102 113
3 101 113 112
3 102 103 114
3 102 114 113
3 103 104 115
3 103 115 114
3 104 105 116
3 104 116 115
3 105 106 117
3 105 117 116
3 106 107 118
3 106 118 117
3 107 108 119
3 107 119 118
3 108 109 120
3 108 120 119
3 110 111 122
3 110 122 121
3 111 112 123
3 111 123 122
3 112 113 124
3 112 124 123
3 113 114 125
3 113 125 124
3 114 115 126
3 114 126 125
3 115 116 127
3 115 127 126
3 116 117 128
3 116 128 127
3 117 118 129
3 117 129 128
3 118 119 130
3 118 130 129
3 119 120 131
3 119 131 130
3 121 122 133
3 121 133 132
3 122 123 134
3 122 134 133
3 123 124 135
3 123 135 134
3 124 125 136
3 124 136 135
3 125 126 137
3 125 137 136
3 126 127 138
3 126 138 137
3 127 128 139
3 127 139 138
3 128 129 140
3 128 140 139
3 129 130 141
3 129 141 140
3 130 131 142
3 130 142 141
3 132 133 144
3 132 144 143
3 133 134 145
3 133 145 144
3 134 135 146
3 134 146 145
3 135 136 147
3 135 147 146
3 136 137 148
3 136 148 147
3 137 138 149
3 137 149 148
3 138 139 150
3 138 150 149
3 139 140 151
3 139 151 150
3 140 141 152
3 140 152 151
3 141 142 153
3 141 153 152
3 143 144 155
3 143 155 154
3 144 145 156
3 144 156 155
3 145 146 157
3 145 157 156
3 146 147 158
3 146 158 157
3 147 148 159
3 147 159 158
3 148 149 160
3 148 160 159
3 149 150 161
3 149 161 160
3 150 151 162
3 150 162 161
3 151 152 163
3 151 163 162
3 152 153 164
3 152 164 163
3 154 155 166
3 154 166 165
3 155 156 167
3 155 167 166
3 156 157 168
3 156 168 167
3 157 158 169
3 157 169 168
3 158 159 170
3 158 170 169
3 159 160 171
3 159 171 170
3 160 161 172
3 160 172 171
3 161 162 173
3 161 173 172
3 162 163 174
3 162 174 173
3 163 164 175
3 163 175 174
3 165 166 177
3 165 177 176
3 166 167 178
3 166 178 177
3 167 168 179
3 167 179 178
3 168 169 180
3 168 180 179
3 169 170 181
3 169 181 180
3 170 171 182
3 170 182 181
3 171 172 183
3 171 183 182
3 172 173 184
3 172 184 183
3 173 174 185
3 173 185 184
3 174 175 186
3 174 186 185
3 176 177 188
3 176 188 187
3 177 178 189
3 177 189 188
3 178 179 190
3 178 190 189
3 179 180 191
3 179 191 190
3 180 181 192
3 180 192 191
3 181 182 193
3 181 193 192
3 182 183 194
3 182 194 193
3 183 184 195
3 183 195 194
3 184 185 196
3 184 196 195
3 185 186 197
3 185 197 196
3 187 188 199
3 187 199 198
3 188 189 200
3 188 200 199
3 189 190 201
3 189 201 200
3 190 191 202
3 190 202 201
3 191 192 203
3 191 203 202
3 192 193 204
3 192 204 203
3 193 194 205
3 193 205 204
3 194 195 206
3 194 206 205
3 195 196 207
3 195 207 206
3 196 197 208
3 196 208 207
3 198 199 210
3 198 210 209
3 199 200 211
3 199 211 210
3 200 201 212
3 200 212 211
3 201 202 213
3 201 213 212
3 202 203 214
3 202 214 213
3 203 204 215
3 203 215 214
3 204 205 216
3 204 216 215
3 205 206 217
3 205 217 216
3 206 207 218
3 206 218 217
3 207 208 219
3 207 219 218
3 209 210 221
3 209 221 220
3 210 211 222
3 210 222 221
3 211 212 223
3 211 223 222
3 212 213 224
3 212 224 223
3 213 214 225
3 213 225 224
3 214 215 226
3 214 226 225
3 215 216 227
3 215 227 226
3 216 217 228
3 216 228 227
3 217 218 229
3 217 229 228
3 218 219 230
3 218 230 229
CELL_TYPES 400
5
5
5
5
5
5
5
5
5
5
5
5
5
5
5
5
5
5
5
5
5
5
5
5
5
5
5
5
5
5
5
5
5
5
5
5
5
5
5
5
5
5
5
5
5
5
5
5
5
5
5
5
5
5
5
5
5
5
5
5
5
5
5
5
5
5
5
5
5
5
5
5
5
5
5
5
5
5
5
5
5
5
5
5
5
5
5
5
5
5
5
5
5
5
5
5
5
5
5
5
5
5
5
5
5
5
5
5
5
5
5
5
5
5
5
5
5
5
5
5
5
5
5
5
5
5
5
5
5
5
5
5
5
5
5
5
5
5
5
5
5
5
5
5
5
5
5
5
5
5
5
5
5
5
5
5
5
5
5
5
5
5
5
5
5
5
5
5
5
5
5
5
5
5
5
5
5
5
5
5
5
5
5
5
5
5
5
5
5
5
5
5
5
5
5
5
5
5
5
5
5
5
5
5
5
5
5
5
5
5
5
5
5
5
5
5
5
5
5
5
5
5
5
5
5
5
5
5
5
5
5
5
5
5
5
5
5
5
5
5
5
5
5
5
5
5
5
5
5
5
5
5
5
5
5
5
5
5
5
5
5
5
5
5
5
5
5
5
5
5
5
5
5
5
5
5
5
5
5
5
5
5
5
5
5
5
5
5
5
5
5
5
5
5
5
5
5
5
5
5
5
5
5
5
5
5
5
5
5
5
5
5
5
5
5
5
5
5
5
5
5
5
5
5
5
5
5
5
5
5
5
5
5
5
5
5
5
5
5
5
5
5
5
5
5
5
5
5
5
5
5
5
5
5
5
5
5
5
5
5
5
5
5
5
5
5
5
5
5
5
5
5
5
5
5
5
5
5
5
5
5
5
5
5
5
5
5
5
5
5
5
5
5
5
5
5
5
5
5
5
POINT_DATA 231
SCALARS psi double 1
LOOKUP_TABLE default
0
0
0
0
0
0
0
0
0
0
0
0
-0.132523
-0.214894
-0.214541
-0.132486
4.50836e-05
0.13246
0.21408
0.213374
0.131847
0
0
-0.217315
-0.351589
-0.351035
-0.216761
0.000130867
0.216823
0.350404
0.349367
0.214925
0
0
-0.295405
-0.477421
-0.476735
-0.294343
0.000288567
0.294627
0.476085
0.474882
0.291852
0
0
-0.370526
-0.598719
-0.598007
-0.369226
0.000405572
0.369683
0.597385
0.596165
0.366659
0
0
-0.440607
-0.712153
-0.711506
-0.439351
0.0004615
0.439897
0.710937
0.709788
0.437036
0
0
-0.502376
-0.812287
-0.811784
-0.501374
0.000419657
0.501868
0.811271
0.810271
0.499465
0
0
-0.55226
-0.893269
-0.892942
-0.55162
0.000326031
0.551994
0.892511
0.891699
0.550122
0
0
-0.588492
-0.952145
-0.951993
-0.588214
0.000227822
0.588473
0.951688
0.951067
0.587072
0
0
-0.610448
-0.987932
-0.987966
-0.610555
0.00011687
0.610687
0.987807
0.987384
0.609739
0
0
-0.617591
-0.999773
-1
-0.618108
1.67835e-12
0.618108
1
0.999773
0.617591
0
0
-0.609739
-0.987384
-0.987807
-0.610687
-0.00011687
0.610555
0.987966
0.987932
0.610448
0
0
-0.587072
-0.951067
-0.951688
-0.588473
-0.000227822
0.588214
0.951993
0.952145
0.588492
0
0
-0.550122
-0.891699
-0.892511
-0.551994
-0.000326031
0.55162
0.892942
0.893269
0.55226
0
0
-0.499465
-0.810271
-0.811271
-0.501868
-0.000419657
0.501374
0.811784
0.812287
0.502376
0
0
-0.437036
-0.709788
-0.710937
-0.439897
-0.0004615
0.439351
0.711506
0.712153
0.440607
0
0
-0.366659
-0.596165
-0.597385
-0.369683
-0.000405572
0.369226
0.598007
0.598719
0.370526
0
0
-0.291852
-0.474882
-0.476085
-0.294627
-0.000288567
0.294343
0.476735
0.477421
0.295405
0
0
-0.214925
-0.349367
-0.350404
-0.216823
-0.000130867
0.216761
0.351035
0.351589
0.217315
0
0
-0.131847
-0.213374
-0.21408
-0.13246
-4.50836e-05
0.132486
0.214541
0.214894
0.132523
0
0
0
0
0
0
0
0
0
0
0
0
VECTORS Et double
0.220175 0.0312611 0
0.179447 0.616482 0
0.0711924 0.997463 0
-0.0717486 0.996239 0
-0.186932 0.615149 0
-0.230807 -0.000418003 0
-0.186462 -0.615383 0
-0.0706034 -0.994444 0
0.0720059 -0.991977 0
0.201442 -0.611377 0
0.218074 -0.030907 0
0.286369 0.0393047 0
0.233678 0.513736 0
0.0908127 0.831762 0
-0.091531 0.830944 0
-0.238543 0.513068 0
-0.294542 -0.000504029 0
-0.23796 -0.513575 0
-0.0901576 -0.829919 0
0.0918994 -0.828365 0
0.247374 -0.511703 0
0.282732 -0.0427505 0
0.364424 0.0464648 0
0.294654 0.466768 0
0.113829 0.757223 0
-0.114707 0.756691 0
-0.299058 0.467243 0
-0.369281 -0.000542457 0
-0.298358 -0.467909 0
-0.113121 -0.756195 0
0.11519 -0.755236 0
0.306843 -0.46889 0
0.360527 -0.0498202 0
0.452312 0.0500694 0
0.363501 0.436225 0
0.139901 0.709299 0
-0.140908 0.70905 0
-0.367542 0.43792 0
-0.45388 -0.000458497 0
-0.366739 -0.438537 0
-0.139158 -0.708914 0
0.141492 -0.708433 0
0.374273 -0.441984 0
0.448153 -0.0533089 0
0.546793 0.0490101 0
0.438735 0.403927 0
0.168405 0.658102 0
-0.169479 0.658155 0
-0.442309 0.406632 0
-0.546268 -0.000283149 0
-0.441434 -0.407051 0
-0.167643 -0.658291 0
0.17014 -0.65824 0
0.446464 -0.411078 0
0.542479 -0.0521292 0
0.642977 0.0428884 0
0.5171 0.361703 0
0.197968 0.589724 0
-0.199012 0.59009 0
-0.519708 0.364767 0
-0.641931 -4.54188e-05 0
-0.518813 -0.364893 0
-0.197205 -0.590442 0
0.199705 -0.590798 0
0.519689 -0.366931 0
0.638712 -0.0457485 0
0.729375 0.03521 0
0.589202 0.307257 0
0.22478 0.498926 0
-0.225671 0.499567 0
-0.589706 0.309025 0
-0.728506 0.000201316 0
-0.588871 -0.308837 0
-0.22404 -0.500106 0
0.22635 -0.500813 0
0.588425 -0.310414 0
0.725579 -0.0370545 0
0.799249 0.0278202 0
0.646431 0.239285 0
0.246586 0.388198 0
-0.247204 0.38903 0
-0.64642 0.240868 0
-0.798693 0.000388192 0
-0.645716 -0.240451 0
-0.245877 -0.389723 0
0.247853 -0.390683 0
0.645328 -0.242541 0
0.796122 -0.0285328 0
0.850877 0.0192196 0
0.688365 0.163259 0
0.262826 0.265381 0
-0.263089 0.266332 0
-0.688425 0.165134 0
-0.850722 0.000507066 0
-0.687917 -0.164589 0
-0.262149 -0.267133 0
0.263707 -0.268211 0
0.687609 -0.166883 0
0.848679 -0.0196935 0
0.882411 0.00965058 0
0.714081 0.0820006 0
0.272914 0.134057 0
-0.272754 0.13508 0
-0.714214 0.0840711 0
-0.882753 0.000576404 0
-0.713935 -0.0834644 0
-0.272269 -0.136008 0
0.273391 -0.137073 0
0.713703 -0.0857414 0
0.881306 -0.0101424 0
0.892688 -0.000247471 0
0.722629 -0.00188612 0
0.276465 -0.00152489 0
-0.275857 -0.000464307 0
-0.722806 0.000320126 0
-0.893546 0.000598683 0
-0.722818 0.000320133 0
-0.275852 -0.000452754 0
0.276484 -0.00154334 0
0.722593 -0.00190962 0
0.892628 -0.000247455 0
0.881324 -0.0101426 0
0.713694 -0.0857366 0
0.273355 -0.137051 0
-0.272282 -0.135978 0
-0.713958 -0.0834598 0
-0.882733 0.000576394 0
-0.714225 0.0840823 0
-0.272761 0.135072 0
0.272948 0.13405 0
0.714157 0.0820102 0
0.882623 0.00965289 0
0.848736 -0.0196948 0
0.687608 -0.16685 0
0.263701 -0.268195 0
-0.262157 -0.267153 0
-0.687927 -0.16459 0
-0.850692 0.000507059 0
-0.688447 0.165151 0
-0.263085 0.266355 0
0.262836 0.265332 0
0.688298 0.163223 0
0.850636 0.0192142 0
0.796151 -0.0285338 0
0.645342 -0.242537 0
0.247853 -0.390661 0
-0.245879 -0.389726 0
-0.645694 -0.240446 0
-0.798704 0.000388201 0
-0.646432 0.240872 0
-0.247225 0.389042 0
0.24652 0.388076 0
0.646525 0.239302 0
0.799073 0.027814 0
0.725528 -0.0370519 0
0.58843 -0.310438 0
0.226351 -0.500814 0
-0.224034 -0.500098 0
-0.588891 -0.308845 0
-0.728522 0.000201312 0
-0.589729 0.309044 0
-0.225684 0.499624 0
0.224782 0.498915 0
0.589169 0.307255 0
0.729379 0.0352102 0
0.638721 -0.0457492 0
0.519697 -0.366938 0
0.1997 -0.590799 0
-0.197203 -0.59043 0
-0.518818 -0.364886 0
-0.641944 -4.54145e-05 0
-0.519718 0.364758 0
-0.199001 0.590139 0
0.197985 0.589748 0
0.517048 0.36167 0
0.642501 0.0428566 0
0.542478 -0.052129 0
0.446457 -0.411071 0
0.170128 -0.658243 0
-0.16764 -0.658298 0
-0.441471 -0.407091 0
-0.546259 -0.000283146 0
-0.442315 0.406646 0
-0.169471 0.658154 0
0.168408 0.658151 0
0.43876 0.403971 0
0.546907 0.0490203 0
0.448152 -0.0533089 0
0.374272 -0.441985 0
0.141487 -0.708417 0
-0.139155 -0.708912 0
-0.366732 -0.438519 0
-0.453864 -0.000458478 0
-0.367563 0.437943 0
-0.140894 0.709062 0
0.139882 0.709166 0
0.363526 0.436276 0
0.452608 0.0501022 0
0.360527 -0.0498201 0
0.306845 -0.468895 0
0.115189 -0.755241 0
-0.113125 -0.756201 0
-0.29838 -0.467941 0
-0.369271 -0.000542443 0
-0.299014 0.467184 0
-0.114726 0.75692 0
0.113883 0.757536 0
0.294769 0.466936 0
0.364114 0.0464253 0
0.28273 -0.0427502 0
0.247377 -0.511708 0
0.0919013 -0.828357 0
-0.0901709 -0.829964 0
-0.23796 -0.513575 0
-0.294519 -0.000503988 0
-0.238598 0.513187 0
-0.09154 0.830865 0
0.0908847 0.83234 0
0.233483 0.513286 0
0.285867 0.0392358 0
0.218074 -0.030907 0
0.20144 -0.611371 0
0.0720037 -0.991947 0
-0.0706029 -0.994438 0
-0.186448 -0.615336 0
-0.230822 -0.000418029 0
-0.186891 0.615016 0
-0.071733 0.996023 0
0.0711768 0.997245 0
0.179518 0.616729 0
0.219379 0.0311481 0
