# vtk DataFile Version 3.0
tp3485 scalar+vector
ASCII
DATASET UNSTRUCTURED_GRID
POINTS 231 double
0 0 0
0.1 0 0
0.2 0 0
0.3 0 0
0.4 0 0
0.5 0 0
0.6 0 0
0.7 0 0
0.8 0 0
0.9 0 0
1 0 0
0 0.025 0
0.1 0.025 0
0.2 0.025 0
0.3 0.025 0
0.4 0.025 0
0.5 0.025 0
0.6 0.025 0
0.7 0.025 0
0.8 0.025 0
0.9 0.025 0
1 0.025 0
0 0.05 0
0.1 0.05 0
0.2 0.05 0
0.3 0.05 0
0.4 0.05 0
0.5 0.05 0
0.6 0.05 0
0.7 0.05 0
0.8 0.05 0
0.9 0.05 0
1 0.05 0
0 0.075 0
0.1 0.075 0
0.2 0.075 0
0.3 0.075 0
0.4 0.075 0
0.5 0.075 0
0.6 0.075 0
0.7 0.075 0
0.8 0.075 0
0.9 0.075 0
1 0.075 0
0 0.1 0
0.1 0.1 0
0.2 0.1 0
0.3 0.1 0
0.4 0.1 0
0.5 0.1 0
0.6 0.1 0
0.7 0.1 0
0.8 0.1 0
0.9 0.1 0
1 0.1 0
0 0.125 0
0.1 0.125 0
0.2 0.125 0
0.3 0.125 0
0.4 0.125 0
0.5 0.125 0
0.6 0.125 0
0.7 0.125 0
0.8 0.125 0
0.9 0.125 0
1 0.125 0
0 0.15 0
0.1 0.15 0
0.2 0.15 0
0.3 0.15 0
0.4 0.15 0
0.5 0.15 0
0.6 0.15 0
0.7 0.15 0
0.8 0.15 0
0.9 0.15 0
1 0.15 0
0 0.175 0
0.1 0.175 0
0.2 0.175 0
0.3 0.175 0
0.4 0.175 0
0.5 0.175 0
0.6 0.175 0
0.7 0.175 0
0.8 0.175 0
0.9 0.175 0
1 0.175 0
0 0.2 0
0.1 0.2 0
0.2 0.2 0
0.3 0.2 0
0.4 0.2 0
0.5 0.2 0
0.6 0.2 0
0.7 0.2 0
0.8 0.2 0
0.9 0.2 0
1 0.2 0
0 0.225 0
0.1 0.225 0
0.2 0.225 0
0.3 0.225 0
0.4 0.225 0
0.5 0.225 0
0.6 0.225 0
0.7 0.225 0
0.8 0.225 0
0.9 0.225 0
1 0.225 0
0 0.25 0
0.1 0.25 0
0.2 0.25 0
0.3 0.25 0
0.4 0.25 0
0.5 0.25 0
0.6 0.25 0
0.7 0.25 0
0.8 0.25 0
0.9 0.25 0
1 0.25 0
0 0.275 0
0.1 0.275 0
0.2 0.275 0
0.3 0.275 0
0.4 0.275 0
0.5 0.275 0
0.6 0.275 0
0.7 0.275 0
0.8 0.275 0
0.9 0.275 0
1 0.275 0
0 0.3 0
0.1 0.3 0
0.2 0.3 0
0.3 0.3 0
0.4 0.3 0
0.5 0.3 0
0.6 0.3 0
0.7 0.3 0
0.8 0.3 0
0.9 0.3 0
1 0.3 0
0 0.325 0
0.1 0.325 0
0.2 0.325 0
0.3 0.325 0
0.4 0.325 0
0.5 0.325 0
0.6 0.325 0
0.7 0.325 0
0.8 0.325 0
0.9 0.325 0
1 0.325 0
0 0.35 0
0.1 0.35 0
0.2 0.35 0
0.3 0.35 0
0.4 0.35 0
0.5 0.35 0
0.6 0.35 0
0.7 0.35 0
0.8 0.35 0
0.9 0.35 0
1 0.35 0
0 0.375 0
0.1 0.375 0
0.2 0.375 0
0.3 0.375 0
0.4 0.375 0
0.5 0.375 0
0.6 0.375 0
0.7 0.375 0
0.8 0.375 0
0.9 0.375 0
1 0.375 0
0 0.4 0
0.1 0.4 0
0.2 0.4 0
0.3 0.4 0
0.4 0.4 0
0.5 0.4 0
0.6 0.4 0
0.7 0.4 0
0.8 0.4 0
0.9 0.4 0
1 0.4 0
0 0.425 0
0.1 0.425 0
0.2 0.425 0
0.3 0.425 0
0.4 0.425 0
0.5 0.425 0
0.6 0.425 0
0.7 0.425 0
0.8 0.425 0
0.9 0.425 0
1 0.425 0
0 0.45 0
0.1 0.45 0
0.2 0.45 0
0.3 0.45 0
0.4 0.45 0
0.5 0.45 0
0.6 0.45 0
0.7 0.45 0
0.8 0.45 0
0.9 0.45 0
1 0.45 0
0 0.475 0
0.1 0.475 0
0.2 0.475 0
0.3 0.475 0
0.4 0.475 0
0.5 0.475 0
0.6 0.475 0
0.7 0.475 0
0.8 0.475 0
0.9 0.475 0
1 0.475 0
0 0.5 0
0.1 0.5 0
0.2 0.5 0
0.3 0.5 0
0.4 0.5 0
0.5 0.5 0
0.6 0.5 0
0.7 0.5 0
0.8 0.5 0
0.9 0.5 0
1 0.5 0
CELLS 400 1600
3 0 1 12
3 0 12 11
3 1 2 13
3 1 13 12
3 2 3 14
3 2 14 13
3 3 4 15
3 3 15 14
3 4 5 16
3 4 16 15
3 5 6 17
3 5 17 16
3 6 7 18
3 6 18 17
3 7 8 19
3 7 19 18
3 8 9 20
3 8 20 19
3 9 10 21
3 9 21 20
3 11 12 23
3 11 23 22
3 12 13 24
3 12 24 23
3 13 14 25
3 13 25 24
3 14 15 26
3 14 26 25
3 15 16 27
3 15 27 26
3 16 17 28
3 16 28 27
3 17 18 29
3 17 29 28
3 18 19 30
3 18 30 29
3 19 20 31
3 19 31 30
3 20 21 32
3 20 32 31
3 22 23 34
3 22 34 33
3 23 24 35
3 23 35 34
3 24 25 36
3 24 36 35
3 25 26 37
3 25 37 36
3 26 27 38
3 26 38 37
3 27 28 39
3 27 39 38
3 28 29 40
3 28 40 39
3 29 30 41
3 29 41 40
3 30 31 42
3 30 42 41
3 31 32 43
3 31 43 42
3 33 34 45
3 33 45 44
3 34 35 46
3 34 46 45
3 35 36 47
3 35 47 46
3 36 37 48
3 36 48 47
3 37 38 49
3 37 49 48
3 38 39 50
3 38 50 49
3 39 40 51
3 39 51 50
3 40 41 52
3 40 52 51
3 41 42 53
3 41 53 52
3 42 43 54
3 42 54 53
3 44 45 56
3 44 56 55
3 45 46 57
3 45 57 56
3 46 47 58
3 46 58 57
3 47 48 59
3 47 59 58
3 48 49 60
3 48 60 59
3 49 50 61
3 49 61 60
3 50 51 62
3 50 62 61
3 51 52 63
3 51 63 62
3 52 53 64
3 52 64 63
3 53 54 65
3 53 65 64
3 55 56 67
3 55 67 66
3 56 57 68
3 56 68 67
3 57 58 69
3 57 69 68
3 58 59 70
3 58 70 69
3 59 60 71
3 59 71 70
3 60 61 72
3 60 72 71
3 61 62 73
3 61 73 72
3 62 63 74
3 62 74 73
3 63 64 75
3 63 75 74
3 64 65 76
3 64 76 75
3 66 67 78
3 66 78 77
3 67 68 79
3 67 79 78
3 68 69 80
3 68 80 79
3 69 70 81
3 69 81 80
3 70 71 82
3 70 82 81
3 71 72 83
3 71 83 82
3 72 73 84
3 72 84 83
3 73 74 85
3 73 85 84
3 74 75 86
3 74 86 85
3 75 76 87
3 75 87 86
3 77 78 89
3 77 89 88
3 78 79 90
3 78 90 89
3 79 80 91
3 79 91 90
3 80 81 92
3 80 92 91
3 81 82 93
3 81 93 92
3 82 83 94
3 82 94 93
3 83 84 95
3 83 95 94
3 84 85 96
3 84 96 95
3 85 86 97
3 85 97 96
3 86 87 98
3 86 98 97
3 88 89 100
3 88 100 99
3 89 90 101
3 89 101 100
3 90 91 102
3 90 102 101
3 91 92 103
3 91 103 102
3 92 93 104
3 92 104 103
3 93 94 105
3 93 105 104
3 94 95 106
3 94 106 105
3 95 96 107
3 95 107 106
3 96 97 108
3 96 108 107
3 97 98 109
3 97 109 108
3 99 100 111
3 99 111 110
3 100 101 112
3 100 112 111
3 101 102 113
3 101 113 112
3 102 103 114
3 102 114 113
3 103 104 115
3 103 115 114
3 104 105 116
3 104 116 115
3 105 106 117
3 105 117 116
3 106 107 118
3 106 118 117
3 107 108 119
3 107 119 118
3 108 109 120
3 108 120 119
3 110 111 122
3 110 122 121
3 111 112 123
3 111 123 122
3 112 113 124
3 112 124 123
3 113 114 125
3 113 125 124
3 114 115 126
3 114 126 125
3 115 116 127
3 115 127 126
3 116 117 128
3 116 128 127
3 117 118 129
3 117 129 128
3 118 119 130
3 118 130 129
3 119 120 131
3 119 131 130
3 121 122 133
3 121 133 132
3 122 123 134
3 122 134 133
3 123 124 135
3 123 135 134
3 124 125 136
3 124 136 135
3 125 126 137
3 125 137 136
3 126 127 138
3 126 138 137
3 127 128 139
3 127 139 138
3 128 129 140
3 128 140 139
3 129 130 141
3 129 141 140
3 130 131 142
3 130 142 141
3 132 133 144
3 132 144 143
3 133 134 145
3 133 145 144
3 134 135 146
3 134 146 145
3 135 136 147
3 135 147 146
3 136 137 148
3 136 148 147
3 137 138 149
3 137 149 148
3 138 139 150
3 138 150 149
3 139 140 151
3 139 151 150
3 140 141 152
3 140 152 151
3 141 142 153
3 141 153 152
3 143 144 155
3 143 155 154
3 144 145 156
3 144 156 155
3 145 146 157
3 145 157 156
3 146 147 158
3 146 158 157
3 147 148 159
3 147 159 158
3 148 149 160
3 148 160 159
3 149 150 161
3 149 161 160
3 150 151 162
3 150 162 161
3 151 152 163
3 151 163 162
3 152 153 164
3 152 164 163
3 154 155 166
3 154 166 165
3 155 156 167
3 155 167 166
3 156 157 168
3 156 168 167
3 157 158 169
3 157 169 168
3 158 159 170
3 158 170 169
3 159 160 171
3 159 171 170
3 160 161 172
3 160 172 171
3 161 162 173
3 161 173 172
3 162 163 174
3 162 174 173
3 163 164 175
3 163 175 174
3 165 166 177
3 165 177 176
3 166 167 178
3 166 178 177
3 167 168 179
3 167 179 178
3 168 169 180
3 168 180 179
3 169 170 181
3 169 181 180
3 170 171 182
3 170 182 181
3 171 172 183
3 171 183 182
3 172 173 184
3 172 184 183
3 173 174 185
3 173 185 184
3 174 175 186
3 174 186 185
3 176 177 188
3 176 188 187
3 177 178 189
3 177 189 188
3 178 179 190
3 178 190 189
3 179 180 191
3 179 191 190
3 180 181 192
3 180 192 191
3 181 182 193
3 181 193 192
3 182 183 194
3 182 194 193
3 183 184 195
3 183 195 194
3 184 185 196
3 184 196 195
3 185 186 197
3 185 197 196
3 187 188 199
3 187 199 198
3 188 189 200
3 188 200 199
3 189 190 201
3 189 201 200
3 190 191 202
3 190 202 201
3 191 192 203
3 191 203 202
3 192 193 204
3 192 204 203
3 193 194 205
3 193 205 204
3 194 195 206
3 194 206 205
3 195 196 207
3 195 207 206
3 196 197 208
3 196 208 207
3 198 199 210
3 198 210 209
3 199 200 211
3 199 211 210
3 200 201 212
3 200 212 211
3 201 202 213
3 201 213 212
3 202 203 214
3 202 214 213
3 203 204 215
3 203 215 214
3 204 205 216
3 204 216 215
3 205 206 217
3 205 217 216
3 206 207 218
3 206 218 217
3 207 208 219
3 207 219 218
3 209 210 221
3 209 221 220
3 210 211 222
3 210 222 221
3 211 212 223
3 211 223 222
3 212 213 224
3 212 224 223
3 213 214 225
3 213 225 224
3 214 215 226
3 214 226 225
3 215 216 227
3 215 227 226
3 216 217 228
3 216 228 227
3 217 218 229
3 217 229 228
3 218 219 230
3 218 230 229
CELL_TYPES 400
5
5
5
5
5
5
5
5
5
5
5
5
5
5
5
5
5
5
5
5
5
5
5
5
5
5
5
5
5
5
5
5
5
5
5
5
5
5
5
5
5
5
5
5
5
5
5
5
5
5
5
5
5
5
5
5
5
5
5
5
5
5
5
5
5
5
5
5
5
5
5
5
5
5
5
5
5
5
5
5
5
5
5
5
5
5
5
5
5
5
5
5
5
5
5
5
5
5
5
5
5
5
5
5
5
5
5
5
5
5
5
5
5
5
5
5
5
5
5
5
5
5
5
5
5
5
5
5
5
5
5
5
5
5
5
5
5
5
5
5
5
5
5
5
5
5
5
5
5
5
5
5
5
5
5
5
5
5
5
5
5
5
5
5
5
5
5
5
5
5
5
5
5
5
5
5
5
5
5
5
5
5
5
5
5
5
5
5
5
5
5
5
5
5
5
5
5
5
5
5
5
5
5
5
5
5
5
5
5
5
5
5
5
5
5
5
5
5
5
5
5
5
5
5
5
5
5
5
5
5
5
5
5
5
5
5
5
5
5
5
5
5
5
5
5
5
5
5
5
5
5
5
5
5
5
5
5
5
5
5
5
5
5
5
5
5
5
5
5
5
5
5
5
5
5
5
5
5
5
5
5
5
5
5
5
5
5
5
5
5
5
5
5
5
5
5
5
5
5
5
5
5
5
5
5
5
5
5
5
5
5
5
5
5
5
5
5
5
5
5
5
5
5
5
5
5
5
5
5
5
5
5
5
5
5
5
5
5
5
5
5
5
5
5
5
5
5
5
5
5
5
5
5
5
5
5
5
5
5
5
5
5
5
5
5
5
5
5
5
5
5
5
5
5
5
5
5
5
5
5
5
5
5
5
5
5
5
5
5
5
5
5
5
5
5
5
5
5
5
5
POINT_DATA 231
SCALARS psi double 1
LOOKUP_TABLE default
0
0
0
0
0
0
0
0
0
0
0
0
-0.202744
-0.388313
-0.535566
-0.630145
-0.66153
-0.627556
-0.533598
-0.388235
-0.205249
0
0
-0.288594
-0.552394
-0.762094
-0.896857
-0.941416
-0.892825
-0.759195
-0.552728
-0.291742
0
0
-0.306261
-0.586274
-0.809344
-0.952824
-1
-0.947965
-0.806182
-0.587637
-0.310259
0
0
-0.266054
-0.509724
-0.704442
-0.829895
-0.87073
-0.824729
-0.701512
-0.512414
-0.271003
0
0
-0.178519
-0.342785
-0.474799
-0.560204
-0.587352
-0.555171
-0.472371
-0.346616
-0.184213
0
0
-0.0592106
-0.115197
-0.161254
-0.19172
-0.200288
-0.18723
-0.159483
-0.119699
-0.0653071
0
0
0.071265
0.133889
0.18236
0.212313
0.224008
0.215927
0.183478
0.129448
0.0655141
0
0
0.188091
0.357335
0.491124
0.575587
0.605361
0.578113
0.491745
0.353811
0.183641
0
0
0.268221
0.511166
0.704337
0.826678
0.868703
0.827975
0.704602
0.509218
0.265793
0
0
0.295945
0.565332
0.780439
0.916649
0.962614
0.916649
0.780439
0.565332
0.295945
0
0
0.265793
0.509218
0.704602
0.827975
0.868703
0.826678
0.704337
0.511166
0.268221
0
0
0.183641
0.353811
0.491745
0.578113
0.605361
0.575587
0.491124
0.357335
0.188091
0
0
0.0655141
0.129448
0.183478
0.215927
0.224008
0.212313
0.18236
0.133889
0.071265
0
0
-0.0653071
-0.119699
-0.159483
-0.18723
-0.200288
-0.19172
-0.161254
-0.115197
-0.0592106
0
0
-0.184213
-0.346616
-0.472371
-0.555171
-0.587352
-0.560204
-0.474799
-0.342785
-0.178519
0
0
-0.271003
-0.512414
-0.701512
-0.824729
-0.87073
-0.829895
-0.704442
-0.509724
-0.266054
0
0
-0.310259
-0.587637
-0.806182
-0.947965
-1
-0.952824
-0.809344
-0.586274
-0.306261
0
0
-0.291742
-0.552728
-0.759195
-0.892825
-0.941416
-0.896857
-0.762094
-0.552394
-0.288594
0
0
-0.205249
-0.388235
-0.533598
-0.627556
-0.66153
-0.630145
-0.535566
-0.388313
-0.202744
0
0
0
0
0
0
0
0
0
0
0
0
VECTORS Et double
0.114923 0.0112698 0
0.109198 0.306605 0
0.0976708 0.586517 0
0.0710889 0.809414 0
0.0369953 0.952539 0
-0.000878439 0.999936 0
-0.0375989 0.94844 0
-0.0700556 0.806498 0
-0.0962988 0.587361 0
-0.123464 0.31019 0
-0.116396 0.0114492 0
0.131295 0.00910062 0
0.126767 0.154288 0
0.10958 0.295395 0
0.0798103 0.408193 0
0.041517 0.480726 0
-0.00105246 0.504477 0
-0.0422104 0.478079 0
-0.0784876 0.406629 0
-0.107943 0.296855 0
-0.129704 0.15711 0
-0.132928 0.010237 0
0.139951 0.00379978 0
0.135413 0.0395254 0
0.115523 0.0750372 0
0.0842157 0.10451 0
0.0437834 0.123654 0
-0.00121628 0.129485 0
-0.0445445 0.122006 0
-0.0825725 0.103921 0
-0.113626 0.0769716 0
-0.133104 0.0402042 0
-0.142155 0.00436601 0
0.135819 -0.0044518 0
0.132 -0.0559568 0
0.111763 -0.108855 0
0.0815845 -0.149019 0
0.0423796 -0.174473 0
-0.0013455 -0.183599 0
-0.0431698 -0.175315 0
-0.0796207 -0.148889 0
-0.109639 -0.106747 0
-0.126676 -0.0579861 0
-0.138488 -0.0045209 0
0.115534 -0.0140174 0
0.113463 -0.138603 0
0.0954298 -0.268281 0
0.0698197 -0.368995 0
0.0362173 -0.433233 0
-0.00141732 -0.455328 0
-0.0369902 -0.433328 0
-0.0675844 -0.368335 0
-0.0931546 -0.266381 0
-0.107475 -0.142636 0
-0.118553 -0.014755 0
0.078359 -0.0225047 0
0.0781582 -0.206002 0
0.0653238 -0.397853 0
0.0480313 -0.548031 0
0.0248456 -0.643955 0
-0.0014039 -0.676535 0
-0.0255477 -0.643296 0
-0.0456388 -0.547011 0
-0.0630093 -0.396565 0
-0.0750044 -0.209251 0
-0.0815844 -0.0238737 0
0.0267456 -0.0270763 0
0.0268993 -0.247303 0
0.0231731 -0.4737 0
0.0174486 -0.653234 0
0.00892151 -0.767946 0
-0.00127899 -0.806592 0
-0.00950118 -0.766573 0
-0.0151043 -0.652045 0
-0.0210015 -0.47343 0
-0.0271745 -0.248625 0
-0.0299305 -0.0283395 0
-0.0300093 -0.0269036 0
-0.0281522 -0.245097 0
-0.0233614 -0.468385 0
-0.0163792 -0.646706 0
-0.00864546 -0.760642 0
-0.00104948 -0.798649 0
0.00821473 -0.758677 0
0.0184273 -0.645556 0
0.0251973 -0.469434 0
0.0271525 -0.246938 0
0.0271975 -0.027432 0
-0.0804091 -0.0215021 0
-0.0764281 -0.194459 0
-0.0649212 -0.37245 0
-0.0466525 -0.51526 0
-0.0242972 -0.60642 0
-0.000742212 -0.636319 0
0.0240199 -0.604067 0
0.0481741 -0.514291 0
0.0662553 -0.37476 0
0.0756507 -0.197646 0
0.0782949 -0.0219054 0
-0.114798 -0.0117357 0
-0.109502 -0.106369 0
-0.0936191 -0.205011 0
-0.0676254 -0.28507 0
-0.035036 -0.336003 0
-0.000380525 -0.351909 0
0.0349031 -0.33343 0
0.0684309 -0.284281 0
0.0943318 -0.208246 0
0.109078 -0.110496 0
0.113663 -0.012254 0
-0.126639 0.00028007 0
-0.121117 0.00223278 0
-0.104065 0.00177092 0
-0.0753661 -0.000358454 0
-0.0388149 -0.00132321 0
1.66201e-10 -4.46423e-06 0
0.0388178 0.00132324 0
0.0753679 0.000362433 0
0.104072 -0.00177559 0
0.12111 -0.00223768 0
0.12663 -0.000280051 0
-0.113666 0.0122543 0
-0.109076 0.110495 0
-0.0943207 0.208225 0
-0.0684351 0.284285 0
-0.0348998 0.333434 0
0.000385146 0.351893 0
0.0350419 0.336017 0
0.0676237 0.285069 0
0.0936288 0.205019 0
0.109514 0.106379 0
0.114825 0.0117385 0
-0.0783002 0.0219069 0
-0.0756507 0.197641 0
-0.0662549 0.374767 0
-0.0481727 0.514297 0
-0.0240177 0.604071 0
0.000740504 0.636286 0
0.024302 0.606451 0
0.046653 0.515264 0
0.0649226 0.372441 0
0.0764208 0.194436 0
0.0803864 0.0214961 0
-0.0271985 0.027433 0
-0.0271531 0.246943 0
-0.0251973 0.469431 0
-0.0184273 0.645557 0
-0.00821471 0.758653 0
0.0010498 0.798659 0
0.0086454 0.760654 0
0.0163781 0.646721 0
0.0233556 0.468289 0
0.0281564 0.245129 0
0.0300027 0.0268977 0
0.0299284 0.0283375 0
0.0271747 0.248628 0
0.0210017 0.473439 0
0.0151044 0.652037 0
0.00950026 0.76659 0
0.00128036 0.806609 0
-0.00892201 0.767977 0
-0.0174498 0.653271 0
-0.0231734 0.473705 0
-0.0268979 0.247285 0
-0.0267458 0.0270765 0
0.0815856 0.0238741 0
0.0750055 0.209254 0
0.0630083 0.396561 0
0.0456386 0.54701 0
0.0255471 0.643306 0
0.00140808 0.676551 0
-0.0248445 0.643971 0
-0.0480358 0.548025 0
-0.0653272 0.397846 0
-0.0781505 0.205979 0
-0.0783009 0.022488 0
0.118553 0.0147549 0
0.107473 0.142633 0
0.0931498 0.266375 0
0.0675878 0.36834 0
0.0369857 0.433346 0
0.00141488 0.455319 0
-0.0362275 0.433248 0
-0.0698269 0.369011 0
-0.0954319 0.268273 0
-0.113468 0.13862 0
-0.115558 0.0140204 0
0.138488 0.0045209 0
0.126675 0.0579853 0
0.109636 0.106745 0
0.0796214 0.148884 0
0.0431618 0.175314 0
0.00134742 0.183598 0
-0.042383 0.174488 0
-0.0815962 0.149014 0
-0.111749 0.108883 0
-0.13201 0.0559455 0
-0.135908 0.00445471 0
0.142155 -0.004366 0
0.133105 -0.0402051 0
0.113625 -0.0769724 0
0.0825698 -0.103923 0
0.0445406 -0.122021 0
0.00121751 -0.129486 0
-0.0437886 -0.123639 0
-0.0842536 -0.104549 0
-0.115575 -0.0750837 0
-0.135467 -0.0395358 0
-0.139832 -0.00379655 0
0.132927 -0.0102369 0
0.129706 -0.157112 0
0.107944 -0.296853 0
0.0784834 -0.406648 0
0.0422055 -0.478083 0
0.0010659 -0.504428 0
-0.041521 -0.480844 0
-0.0797849 -0.408148 0
-0.109663 -0.295596 0
-0.12666 -0.154141 0
-0.131065 -0.00908466 0
0.116396 -0.0114492 0
0.123463 -0.310187 0
0.0962959 -0.587343 0
0.0700552 -0.806493 0
0.037596 -0.948367 0
0.000878495 -1 0
-0.0369873 -0.952333 0
-0.0710735 -0.809238 0
-0.0976495 -0.586389 0
-0.109242 -0.306727 0
-0.114507 -0.0112291 0
