# vtk DataFile Version 3.0
tp3485 scalar+vector
ASCII
DATASET UNSTRUCTURED_GRID
POINTS 231 double
0 0 0
0.1 0 0
0.2 0 0
0.3 0 0
0.4 0 0
0.5 0 0
0.6 0 0
0.7 0 0
0.8 0 0
0.9 0 0
1 0 0
0 0.025 0
0.1 0.025 0
0.2 0.025 0
0.3 0.025 0
0.4 0.025 0
0.5 0.025 0
0.6 0.025 0
0.7 0.025 0
0.8 0.025 0
0.9 0.025 0
1 0.025 0
0 0.05 0
0.1 0.05 0
0.2 0.05 0
0.3 0.05 0
0.4 0.05 0
0.5 0.05 0
0.6 0.05 0
0.7 0.05 0
0.8 0.05 0
0.9 0.05 0
1 0.05 0
0 0.075 0
0.1 0.075 0
0.2 0.075 0
0.3 0.075 0
0.4 0.075 0
0.5 0.075 0
0.6 0.075 0
0.7 0.075 0
0.8 0.075 0
0.9 0.075 0
1 0.075 0
0 0.1 0
0.1 0.1 0
0.2 0.1 0
0.3 0.1 0
0.4 0.1 0
0.5 0.1 0
0.6 0.1 0
0.7 0.1 0
0.8 0.1 0
0.9 0.1 0
1 0.1 0
0 0.125 0
0.1 0.125 0
0.2 0.125 0
0.3 0.125 0
0.4 0.125 0
0.5 0.125 0
0.6 0.125 0
0.7 0.125 0
0.8 0.125 0
0.9 0.125 0
1 0.125 0
0 0.15 0
0.1 0.15 0
0.2 0.15 0
0.3 0.15 0
0.4 0.15 0
0.5 0.15 0
0.6 0.15 0
0.7 0.15 0
0.8 0.15 0
0.9 0.15 0
1 0.15 0
0 0.175 0
0.1 0.175 0
0.2 0.175 0
0.3 0.175 0
0.4 0.175 0
0.5 0.175 0
0.6 0.175 0
0.7 0.175 0
0.8 0.175 0
0.9 0.175 0
1 0.175 0
0 0.2 0
0.1 0.2 0
0.2 0.2 0
0.3 0.2 0
0.4 0.2 0
0.5 0.2 0
0.6 0.2 0
0.7 0.2 0
0.8 0.2 0
0.9 0.2 0
1 0.2 0
0 0.225 0
0.1 0.225 0
0.2 0.225 0
0.3 0.225 0
0.4 0.225 0
0.5 0.225 0
0.6 0.225 0
0.7 0.225 0
0.8 0.225 0
0.9 0.225 0
1 0.225 0
0 0.25 0
0.1 0.25 0
0.2 0.25 0
0.3 0.25 0
0.4 0.25 0
0.5 0.25 0
0.6 0.25 0
0.7 0.25 0
0.8 0.25 0
0.9 0.25 0
1 0.25 0
0 0.275 0
0.1 0.275 0
0.2 0.275 0
0.3 0.275 0
0.4 0.275 0
0.5 0.275 0
0.6 0.275 0
0.7 0.275 0
0.8 0.275 0
0.9 0.275 0
1 0.275 0
0 0.3 0
0.1 0.3 0
0.2 0.3 0
0.3 0.3 0
0.4 0.3 0
0.5 0.3 0
0.6 0.3 0
0.7 0.3 0
0.8 0.3 0
0.9 0.3 0
1 0.3 0
0 0.325 0
0.1 0.325 0
0.2 0.325 0
0.3 0.325 0
0.4 0.325 0
0.5 0.325 0
0.6 0.325 0
0.7 0.325 0
0.8 0.325 0
0.9 0.325 0
1 0.325 0
0 0.35 0
0.1 0.35 0
0.2 0.35 0
0.3 0.35 0
0.4 0.35 0
0.5 0.35 0
0.6 0.35 0
0.7 0.35 0
0.8 0.35 0
0.9 0.35 0
1 0.35 0
0 0.375 0
0.1 0.375 0
0.2 0.375 0
0.3 0.375 0
0.4 0.375 0
0.5 0.375 0
0.6 0.375 0
0.7 0.375 0
0.8 0.375 0
0.9 0.375 0
1 0.375 0
0 0.4 0
0.1 0.4 0
0.2 0.4 0
0.3 0.4 0
0.4 0.4 0
0.5 0.4 0
0.6 0.4 0
0.7 0.4 0
0.8 0.4 0
0.9 0.4 0
1 0.4 0
0 0.425 0
0.1 0.425 0
0.2 0.425 0
0.3 0.425 0
0.4 0.425 0
0.5 0.425 0
0.6 0.425 0
0.7 0.425 0
0.8 0.425 0
0.9 0.425 0
1 0.425 0
0 0.45 0
0.1 0.45 0
0.2 0.45 0
0.3 0.45 0
0.4 0.45 0
0.5 0.45 0
0.6 0.45 0
0.7 0.45 0
0.8 0.45 0
0.9 0.45 0
1 0.45 0
0 0.475 0
0.1 0.475 0
0.2 0.475 0
0.3 0.475 0
0.4 0.475 0
0.5 0.475 0
0.6 0.475 0
0.7 0.475 0
0.8 0.475 0
0.9 0.475 0
1 0.475 0
0 0.5 0
0.1 0.5 0
0.2 0.5 0
0.3 0.5 0
0.4 0.5 0
0.5 0.5 0
0.6 0.5 0
0.7 0.5 0
0.8 0.5 0
0.9 0.5 0
1 0.5 0
CELLS 400 1600
3 0 1 12
3 0 12 11
3 1 2 13
3 1 13 12
3 2 3 14
3 2 14 13
3 3 4 15
3 3 15 14
3 4 5 16
3 4 16 15
3 5 6 17
3 5 17 16
3 6 7 18
3 6 18 17
3 7 8 19
3 7 19 18
3 8 9 20
3 8 20 19
3 9 10 21
3 9 21 20
3 11 12 23
3 11 23 22
3 12 13 24
3 12 24 23
3 13 14 25
3 13 25 24
3 14 15 26
3 14 26 25
3 15 16 27
3 15 27 26
3 16 17 28
3 16 28 27
3 17 18 29
3 17 29 28
3 18 19 30
3 18 30 29
3 19 20 31
3 19 31 30
3 20 21 32
3 20 32 31
3 22 23 34
3 22 34 33
3 23 24 35
3 23 35 34
3 24 25 36
3 24 36 35
3 25 26 37
3 25 37 36
3 26 27 38
3 26 38 37
3 27 28 39
3 27 39 38
3 28 29 40
3 28 40 39
3 29 30 41
3 29 41 40
3 30 31 42
3 30 42 41
3 31 32 43
3 31 43 42
3 33 34 45
3 33 45 44
3 34 35 46
3 34 46 45
3 35 36 47
3 35 47 46
3 36 37 48
3 36 48 47
3 37 38 49
3 37 49 48
3 38 39 50
3 38 50 49
3 39 40 51
3 39 51 50
3 40 41 52
3 40 52 51
3 41 42 53
3 41 53 52
3 42 43 54
3 42 54 53
3 44 45 56
3 44 56 55
3 45 46 57
3 45 57 56
3 46 47 58
3 46 58 57
3 47 48 59
3 47 59 58
3 48 49 60
3 48 60 59
3 49 50 61
3 49 61 60
3 50 51 62
3 50 62 61
3 51 52 63
3 51 63 62
3 52 53 64
3 52 64 63
3 53 54 65
3 53 65 64
3 55 56 67
3 55 67 66
3 56 57 68
3 56 68 67
3 57 58 69
3 57 69 68
3 58 59 70
3 58 70 69
3 59 60 71
3 59 71 70
3 60 61 72
3 60 72 71
3 61 62 73
3 61 73 72
3 62 63 74
3 62 74 73
3 63 64 75
3 63 75 74
3 64 65 76
3 64 76 75
3 66 67 78
3 66 78 77
3 67 68 79
3 67 79 78
3 68 69 80
3 68 80 79
3 69 70 81
3 69 81 80
3 70 71 82
3 70 82 81
3 71 72 83
3 71 83 82
3 72 73 84
3 72 84 83
3 73 74 85
3 73 85 84
3 74 75 86
3 74 86 85
3 75 76 87
3 75 87 86
3 77 78 89
3 77 89 88
3 78 79 90
3 78 90 89
3 79 80 91
3 79 91 90
3 80 81 92
3 80 92 91
3 81 82 93
3 81 93 92
3 82 83 94
3 82 94 93
3 83 84 95
3 83 95 94
3 84 85 96
3 84 96 95
3 85 86 97
3 85 97 96
3 86 87 98
3 86 98 97
3 88 89 100
3 88 100 99
3 89 90 101
3 89 101 100
3 90 91 102
3 90 102 101
3 91 92 103
3 91 103 102
3 92 93 104
3 92 104 103
3 93 94 105
3 93 105 104
3 94 95 106
3 94 106 105
3 95 96 107
3 95 107 106
3 96 97 108
3 96 108 107
3 97 98 109
3 97 109 108
3 99 100 111
3 99 111 110
3 100 101 112
3 100 112 111
3 101 102 113
3 101 113 112
3 102 103 114
3 102 114 113
3 103 104 115
3 103 115 114
3 104 105 116
3 104 116 115
3 105 106 117
3 105 117 116
3 106 107 118
3 106 118 117
3 107 108 119
3 107 119 118
3 108 109 120
3 108 120 119
3 110 111 122
3 110 122 121
3 111 112 123
3 111 123 122
3 112 113 124
3 112 124 123
3 113 114 125
3 113 125 124
3 114 115 126
3 114 126 125
3 115 116 127
3 115 127 126
3 116 117 128
3 116 128 127
3 117 118 129
3 117 129 128
3 118 119 130
3 118 130 129
3 119 120 131
3 119 131 130
3 121 122 133
3 121 133 132
3 122 123 134
3 122 134 133
3 123 124 135
3 123 135 134
3 124 125 136
3 124 136 135
3 125 126 137
3 125 137 136
3 126 127 138
3 126 138 137
3 127 128 139
3 127 139 138
3 128 129 140
3 128 140 139
3 129 130 141
3 129 141 140
3 130 131 142
3 130 142 141
3 132 133 144
3 132 144 143
3 133 134 145
3 133 145 144
3 134 135 146
3 134 146 145
3 135 136 147
3 135 147 146
3 136 137 148
3 136 148 147
3 137 138 149
3 137 149 148
3 138 139 150
3 138 150 149
3 139 140 151
3 139 151 150
3 140 141 152
3 140 152 151
3 141 142 153
3 141 153 152
3 143 144 155
3 143 155 154
3 144 145 156
3 144 156 155
3 145 146 157
3 145 157 156
3 146 147 158
3 146 158 157
3 147 148 159
3 147 159 158
3 148 149 160
3 148 160 159
3 149 150 161
3 149 161 160
3 150 151 162
3 150 162 161
3 151 152 163
3 151 163 162
3 152 153 164
3 152 164 163
3 154 155 166
3 154 166 165
3 155 156 167
3 155 167 166
3 156 157 168
3 156 168 167
3 157 158 169
3 157 169 168
3 158 159 170
3 158 170 169
3 159 160 171
3 159 171 170
3 160 161 172
3 160 172 171
3 161 162 173
3 161 173 172
3 162 163 174
3 162 174 173
3 163 164 175
3 163 175 174
3 165 166 177
3 165 177 176
3 166 167 178
3 166 178 177
3 167 168 179
3 167 179 178
3 168 169 180
3 168 180 179
3 169 170 181
3 169 181 180
3 170 171 182
3 170 182 181
3 171 172 183
3 171 183 182
3 172 173 184
3 172 184 183
3 173 174 185
3 173 185 184
3 174 175 186
3 174 186 185
3 176 177 188
3 176 188 187
3 177 178 189
3 177 189 188
3 178 179 190
3 178 190 189
3 179 180 191
3 179 191 190
3 180 181 192
3 180 192 191
3 181 182 193
3 181 193 192
3 182 183 194
3 182 194 193
3 183 184 195
3 183 195 194
3 184 185 196
3 184 196 195
3 185 186 197
3 185 197 196
3 187 188 199
3 187 199 198
3 188 189 200
3 188 200 199
3 189 190 201
3 189 201 200
3 190 191 202
3 190 202 201
3 191 192 203
3 191 203 202
3 192 193 204
3 192 204 203
3 193 194 205
3 193 205 204
3 194 195 206
3 194 206 205
3 195 196 207
3 195 207 206
3 196 197 208
3 196 208 207
3 198 199 210
3 198 210 209
3 199 200 211
3 199 211 210
3 200 201 212
3 200 212 211
3 201 202 213
3 201 213 212
3 202 203 214
3 202 214 213
3 203 204 215
3 203 215 214
3 204 205 216
3 204 216 215
3 205 206 217
3 205 217 216
3 206 207 218
3 206 218 217
3 207 208 219
3 207 219 218
3 209 210 221
3 209 221 220
3 210 211 222
3 210 222 221
3 211 212 223
3 211 223 222
3 212 213 224
3 212 224 223
3 213 214 225
3 213 225 224
3 214 215 226
3 214 226 225
3 215 216 227
3 215 227 226
3 216 217 228
3 216 228 227
3 217 218 229
3 217 229 228
3 218 219 230
3 218 230 229
CELL_TYPES 400
5
5
5
5
5
5
5
5
5
5
5
5
5
5
5
5
5
5
5
5
5
5
5
5
5
5
5
5
5
5
5
5
5
5
5
5
5
5
5
5
5
5
5
5
5
5
5
5
5
5
5
5
5
5
5
5
5
5
5
5
5
5
5
5
5
5
5
5
5
5
5
5
5
5
5
5
5
5
5
5
5
5
5
5
5
5
5
5
5
5
5
5
5
5
5
5
5
5
5
5
5
5
5
5
5
5
5
5
5
5
5
5
5
5
5
5
5
5
5
5
5
5
5
5
5
5
5
5
5
5
5
5
5
5
5
5
5
5
5
5
5
5
5
5
5
5
5
5
5
5
5
5
5
5
5
5
5
5
5
5
5
5
5
5
5
5
5
5
5
5
5
5
5
5
5
5
5
5
5
5
5
5
5
5
5
5
5
5
5
5
5
5
5
5
5
5
5
5
5
5
5
5
5
5
5
5
5
5
5
5
5
5
5
5
5
5
5
5
5
5
5
5
5
5
5
5
5
5
5
5
5
5
5
5
5
5
5
5
5
5
5
5
5
5
5
5
5
5
5
5
5
5
5
5
5
5
5
5
5
5
5
5
5
5
5
5
5
5
5
5
5
5
5
5
5
5
5
5
5
5
5
5
5
5
5
5
5
5
5
5
5
5
5
5
5
5
5
5
5
5
5
5
5
5
5
5
5
5
5
5
5
5
5
5
5
5
5
5
5
5
5
5
5
5
5
5
5
5
5
5
5
5
5
5
5
5
5
5
5
5
5
5
5
5
5
5
5
5
5
5
5
5
5
5
5
5
5
5
5
5
5
5
5
5
5
5
5
5
5
5
5
5
5
5
5
5
5
5
5
5
5
5
5
5
5
5
5
5
5
5
5
5
5
5
5
5
5
5
5
5
POINT_DATA 231
SCALARS psi double 1
LOOKUP_TABLE default
0
0
0
0
0
0
0
0
0
0
0
0
-0.275972
-0.447504
-0.44695
-0.276219
0.000108209
0.276751
0.447444
0.445832
0.275055
0
0
-0.431289
-0.698187
-0.697397
-0.431062
0.000142138
0.43192
0.698417
0.696118
0.428045
0
0
-0.538496
-0.871004
-0.870234
-0.538026
8.14216e-05
0.539069
0.87189
0.869432
0.534176
0
0
-0.601757
-0.973071
-0.972581
-0.601573
-0.000198969
0.602466
0.974866
0.972675
0.597805
0
0
-0.616646
-0.997184
-0.997129
-0.617142
-0.000653469
0.61761
1
0.998329
0.614049
0
0
-0.579174
-0.936812
-0.937277
-0.580637
-0.00127818
0.580391
0.94062
0.939647
0.578577
0
0
-0.488688
-0.7908
-0.791733
-0.49116
-0.00192653
0.490124
0.795447
0.795216
0.490145
0
0
-0.352496
-0.5707
-0.571936
-0.35567
-0.00243582
0.354011
0.575944
0.576366
0.355551
0
0
-0.183623
-0.297532
-0.298883
-0.187119
-0.00277151
0.185042
0.303074
0.304007
0.18772
0
0
0.00222862
0.00337786
0.00212661
-0.0011111
-0.00288863
-0.0011111
0.00212661
0.00337786
0.00222862
0
0
0.18772
0.304007
0.303074
0.185042
-0.00277151
-0.187119
-0.298883
-0.297532
-0.183623
0
0
0.355551
0.576366
0.575944
0.354011
-0.00243582
-0.35567
-0.571936
-0.5707
-0.352496
0
0
0.490145
0.795216
0.795447
0.490124
-0.00192653
-0.49116
-0.791733
-0.7908
-0.488688
0
0
0.578577
0.939647
0.94062
0.580391
-0.00127818
-0.580637
-0.937277
-0.936812
-0.579174
0
0
0.614049
0.998329
1
0.61761
-0.000653469
-0.617142
-0.997129
-0.997184
-0.616646
0
0
0.597805
0.972675
0.974866
0.602466
-0.000198969
-0.601573
-0.972581
-0.973071
-0.601757
0
0
0.534176
0.869432
0.87189
0.539069
8.14217e-05
-0.538026
-0.870234
-0.871004
-0.538496
0
0
0.428045
0.696118
0.698417
0.43192
0.000142138
-0.431062
-0.697397
-0.698187
-0.431289
0
0
0.275055
0.445832
0.447444
0.276751
0.000108209
-0.276219
-0.44695
-0.447504
-0.275972
0
0
0
0
0
0
0
0
0
0
0
0
VECTORS Et double
0.226787 0.028603 0
0.183954 0.615719 0
0.0731467 0.996726 0
-0.0733533 0.996015 0
-0.191653 0.615679 0
-0.237155 -0.000145344 0
-0.191929 -0.61677 0
-0.0726735 -0.997356 0
0.074207 -0.994619 0
0.207205 -0.612607 0
0.225372 -0.0283894 0
0.28108 0.0318045 0
0.229762 0.437876 0
0.0889419 0.709024 0
-0.089158 0.708829 0
-0.233064 0.438372 0
-0.288455 8.5409e-05 0
-0.233491 -0.439016 0
-0.0884745 -0.71027 0
0.0902719 -0.708864 0
0.239692 -0.437271 0
0.278619 -0.0347268 0
0.335396 0.0312706 0
0.272769 0.314799 0
0.104665 0.50974 0
-0.104844 0.509943 0
-0.274246 0.315668 0
-0.339513 0.000364656 0
-0.274894 -0.315872 0
-0.104254 -0.511533 0
0.106241 -0.511055 0
0.277531 -0.315741 0
0.333083 -0.0336706 0
0.382304 0.0248568 0
0.309986 0.205465 0
0.11836 0.332247 0
-0.118429 0.332785 0
-0.310038 0.20641 0
-0.383962 0.000697274 0
-0.310993 -0.206111 0
-0.11807 -0.334461 0
0.120109 -0.334706 0
0.310873 -0.206631 0
0.38018 -0.0266321 0
0.413548 0.012601 0
0.335615 0.0898492 0
0.127704 0.143983 0
-0.127573 0.144793 0
-0.33433 0.0904324 0
-0.41425 0.00102744 0
-0.335689 -0.0896198 0
-0.127607 -0.14647 0
0.129511 -0.14731 0
0.33347 -0.090161 0
0.411774 -0.0136467 0
0.420626 -0.00416825 0
0.342246 -0.0402824 0
0.129945 -0.0680452 0
-0.129519 -0.0670512 0
-0.339891 -0.0403456 0
-0.421428 0.00130531 0
-0.341744 0.0416231 0
-0.13011 0.0654886 0
0.131649 0.0641436 0
0.339855 0.0396681 0
0.41945 0.00403198 0
0.393143 -0.0211746 0
0.318898 -0.182029 0
0.121594 -0.295691 0
-0.120817 -0.29467 0
-0.31762 -0.180983 0
-0.394223 0.00144398 0
-0.320008 0.182559 0
-0.122077 0.293323 0
0.123037 0.291634 0
0.319106 0.178902 0
0.392884 0.0215921 0
0.330112 -0.0365902 0
0.267044 -0.316506 0
0.102264 -0.511691 0
-0.101147 -0.510854 0
-0.266602 -0.314736 0
-0.331445 0.00135021 0
-0.269489 0.31629 0
-0.103082 0.509786 0
0.103355 0.508047 0
0.268623 0.312512 0
0.330825 0.0364766 0
0.237633 -0.0491628 0
0.192242 -0.421981 0
0.073782 -0.682641 0
-0.072422 -0.682182 0
-0.191733 -0.420926 0
-0.239117 0.00103201 0
-0.195033 0.422143 0
-0.074925 0.681445 0
0.0745284 0.679904 0
0.194226 0.418899 0
0.23926 0.0487676 0
0.12378 -0.0570189 0
0.100098 -0.489472 0
0.0385902 -0.792341 0
-0.0371497 -0.79236 0
-0.0995123 -0.489441 0
-0.125256 0.000558565 0
-0.103083 0.490099 0
-0.0400357 0.791943 0
0.0390909 0.790956 0
0.102344 0.487807 0
0.126054 0.0568031 0
-0.00125065 -0.059665 0
-0.00116769 -0.512191 0
-0.000202768 -0.829713 0
0.00151031 -0.830299 0
0.00183415 -0.513327 0
3.8509e-11 1.64984e-08 0
-0.00183419 0.513337 0
-0.0015103 0.830299 0
0.000202788 0.829755 0
0.00116763 0.512171 0
0.00125057 0.059661 0
-0.126057 -0.0568043 0
-0.102343 -0.487807 0
-0.0390853 -0.79089 0
0.0400376 -0.791992 0
0.103087 -0.490111 0
0.125253 -0.000558521 0
0.0995135 0.489453 0
0.0371508 0.792365 0
-0.0385955 0.792389 0
-0.100109 0.489512 0
-0.12381 0.0570325 0
-0.239276 -0.0487709 0
-0.194226 -0.418909 0
-0.074526 -0.679932 0
0.0749275 -0.681441 0
0.195036 -0.422146 0
0.239109 -0.00103192 0
0.191738 0.420941 0
0.0724208 0.682172 0
-0.0737851 0.682654 0
-0.192224 0.421944 0
-0.237566 0.0491489 0
-0.330837 -0.0364779 0
-0.268629 -0.312523 0
-0.103355 -0.508055 0
0.103083 -0.509786 0
0.26948 -0.316278 0
0.331449 -0.00135022 0
0.266606 0.314741 0
0.101157 0.510863 0
-0.102235 0.511611 0
-0.267084 0.316555 0
-0.330039 0.0365821 0
-0.392856 -0.0215906 0
-0.319108 -0.178893 0
-0.123038 -0.291644 0
0.122074 -0.29332 0
0.320019 -0.182563 0
0.394232 -0.00144403 0
0.317633 0.180987 0
0.120824 0.294671 0
-0.121595 0.295703 0
-0.318881 0.182006 0
-0.393145 0.0211748 0
-0.419457 -0.00403203 0
-0.339861 -0.0396676 0
-0.131646 -0.0641394 0
0.130109 -0.0654939 0
0.341747 -0.0416309 0
0.421436 -0.00130533 0
0.339897 0.0403565 0
0.129511 0.0670198 0
-0.129958 0.0680248 0
-0.342212 0.0402736 0
-0.420314 0.00416516 0
-0.411773 0.0136467 0
-0.333465 0.0901598 0
-0.129501 0.147317 0
0.127604 0.14647 0
0.335718 0.0896364 0
0.414244 -0.00102742 0
0.334333 -0.0904354 0
0.127566 -0.144783 0
-0.127707 -0.144018 0
-0.335631 -0.0898573 0
-0.413635 -0.0126036 0
-0.380179 0.0266321 0
-0.310872 0.206632 0
-0.120104 0.334698 0
0.118067 0.334462 0
0.310988 0.206101 0
0.383948 -0.00069725 0
0.310056 -0.206419 0
0.118415 -0.332795 0
-0.118343 -0.332148 0
-0.310009 -0.205505 0
-0.382554 -0.0248731 0
-0.333083 0.0336705 0
-0.277533 0.315745 0
-0.10624 0.511059 0
0.104258 0.511538 0
0.274914 0.315895 0
0.339504 -0.000364645 0
0.274205 -0.315628 0
0.104859 -0.510102 0
-0.104717 -0.509962 0
-0.272877 -0.314909 0
-0.335111 -0.031244 0
-0.278617 0.0347266 0
-0.239696 0.437275 0
-0.0902742 0.708857 0
0.0884888 0.710307 0
0.233491 0.439017 0
0.288432 -8.54045e-05 0
0.233118 -0.438475 0
0.0891695 -0.708759 0
-0.0890137 -0.709513 0
-0.229569 -0.437485 0
-0.280588 -0.0317487 0
-0.225372 0.0283894 0
-0.207204 0.612601 0
-0.0742048 0.994589 0
0.0726731 0.997349 0
0.191914 0.616723 0
0.23717 0.000145353 0
0.191612 -0.615545 0
0.0733374 -0.995799 0
-0.0731307 -0.996509 0
-0.184027 -0.615965 0
-0.225967 -0.0284996 0
