# vtk DataFile Version 3.0
tp3485 scalar+vector
ASCII
DATASET UNSTRUCTURED_GRID
POINTS 231 double
0 0 0
0.1 0 0
0.2 0 0
0.3 0 0
0.4 0 0
0.5 0 0
0.6 0 0
0.7 0 0
0.8 0 0
0.9 0 0
1 0 0
0 0.025 0
0.1 0.025 0
0.2 0.025 0
0.3 0.025 0
0.4 0.025 0
0.5 0.025 0
0.6 0.025 0
0.7 0.025 0
0.8 0.025 0
0.9 0.025 0
1 0.025 0
0 0.05 0
0.1 0.05 0
0.2 0.05 0
0.3 0.05 0
0.4 0.05 0
0.5 0.05 0
0.6 0.05 0
0.7 0.05 0
0.8 0.05 0
0.9 0.05 0
1 0.05 0
0 0.075 0
0.1 0.075 0
0.2 0.075 0
0.3 0.075 0
0.4 0.075 0
0.5 0.075 0
0.6 0.075 0
0.7 0.075 0
0.8 0.075 0
0.9 0.075 0
1 0.075 0
0 0.1 0
0.1 0.1 0
0.2 0.1 0
0.3 0.1 0
0.4 0.1 0
0.5 0.1 0
0.6 0.1 0
0.7 0.1 0
0.8 0.1 0
0.9 0.1 0
1 0.1 0
0 0.125 0
0.1 0.125 0
0.2 0.125 0
0.3 0.125 0
0.4 0.125 0
0.5 0.125 0
0.6 0.125 0
0.7 0.125 0
0.8 0.125 0
0.9 0.125 0
1 0.125 0
0 0.15 0
0.1 0.15 0
0.2 0.15 0
0.3 0.15 0
0.4 0.15 0
0.5 0.15 0
0.6 0.15 0
0.7 0.15 0
0.8 0.15 0
0.9 0.15 0
1 0.15 0
0 0.175 0
0.1 0.175 0
0.2 0.175 0
0.3 0.175 0
0.4 0.175 0
0.5 0.175 0
0.6 0.175 0
0.7 0.175 0
0.8 0.175 0
0.9 0.175 0
1 0.175 0
0 0.2 0
0.1 0.2 0
0.2 0.2 0
0.3 0.2 0
0.4 0.2 0
0.5 0.2 0
0.6 0.2 0
0.7 0.2 0
0.8 0.2 0
0.9 0.2 0
1 0.2 0
0 0.225 0
0.1 0.225 0
0.2 0.225 0
0.3 0.225 0
0.4 0.225 0
0.5 0.225 0
0.6 0.225 0
0.7 0.225 0
0.8 0.225 0
0.9 0.225 0
1 0.225 0
0 0.25 0
0.1 0.25 0
0.2 0.25 0
0.3 0.25 0
0.4 0.25 0
0.5 0.25 0
0.6 0.25 0
0.7 0.25 0
0.8 0.25 0
0.9 0.25 0
1 0.25 0
0 0.275 0
0.1 0.275 0
0.2 0.275 0
0.3 0.275 0
0.4 0.275 0
0.5 0.275 0
0.6 0.275 0
0.7 0.275 0
0.8 0.275 0
0.9 0.275 0
1 0.275 0
0 0.3 0
0.1 0.3 0
0.2 0.3 0
0.3 0.3 0
0.4 0.3 0
0.5 0.3 0
0.6 0.3 0
0.7 0.3 0
0.8 0.3 0
0.9 0.3 0
1 0.3 0
0 0.325 0
0.1 0.325 0
0.2 0.325 0
0.3 0.325 0
0.4 0.325 0
0.5 0.325 0
0.6 0.325 0
0.7 0.325 0
0.8 0.325 0
0.9 0.325 0
1 0.325 0
0 0.35 0
0.1 0.35 0
0.2 0.35 0
0.3 0.35 0
0.4 0.35 0
0.5 0.35 0
0.6 0.35 0
0.7 0.35 0
0.8 0.35 0
0.9 0.35 0
1 0.35 0
0 0.375 0
0.1 0.375 0
0.2 0.375 0
0.3 0.375 0
0.4 0.375 0
0.5 0.375 0
0.6 0.375 0
0.7 0.375 0
0.8 0.375 0
0.9 0.375 0
1 0.375 0
0 0.4 0
0.1 0.4 0
0.2 0.4 0
0.3 0.4 0
0.4 0.4 0
0.5 0.4 0
0.6 0.4 0
0.7 0.4 0
0.8 0.4 0
0.9 0.4 0
1 0.4 0
0 0.425 0
0.1 0.425 0
0.2 0.425 0
0.3 0.425 0
0.4 0.425 0
0.5 0.425 0
0.6 0.425 0
0.7 0.425 0
0.8 0.425 0
0.9 0.425 0
1 0.425 0
0 0.45 0
0.1 0.45 0
0.2 0.45 0
0.3 0.45 0
0.4 0.45 0
0.5 0.45 0
0.6 0.45 0
0.7 0.45 0
0.8 0.45 0
0.9 0.45 0
1 0.45 0
0 0.475 0
0.1 0.475 0
0.2 0.475 0
0.3 0.475 0
0.4 0.475 0
0.5 0.475 0
0.6 0.475 0
0.7 0.475 0
0.8 0.475 0
0.9 0.475 0
1 0.475 0
0 0.5 0
0.1 0.5 0
0.2 0.5 0
0.3 0.5 0
0.4 0.5 0
0.5 0.5 0
0.6 0.5 0
0.7 0.5 0
0.8 0.5 0
0.9 0.5 0
1 0.5 0
CELLS 400 1600
3 0 1 12
3 0 12 11
3 1 2 13
3 1 13 12
3 2 3 14
3 2 14 13
3 3 4 15
3 3 15 14
3 4 5 16
3 4 16 15
3 5 6 17
3 5 17 16
3 6 7 18
3 6 18 17
3 7 8 19
3 7 19 18
3 8 9 20
3 8 20 19
3 9 10 21
3 9 21 20
3 11 12 23
3 11 23 22
3 12 13 24
3 12 24 23
3 13 14 25
3 13 25 24
3 14 15 26
3 14 26 25
3 15 16 27
3 15 27 26
3 16 17 28
3 16 28 27
3 17 18 29
3 17 29 28
3 18 19 30
3 18 30 29
3 19 20 31
3 19 31 30
3 20 21 32
3 20 32 31
3 22 23 34
3 22 34 33
3 23 24 35
3 23 35 34
3 24 25 36
3 24 36 35
3 25 26 37
3 25 37 36
3 26 27 38
3 26 38 37
3 27 28 39
3 27 39 38
3 28 29 40
3 28 40 39
3 29 30 41
3 29 41 40
3 30 31 42
3 30 42 41
3 31 32 43
3 31 43 42
3 33 34 45
3 33 45 44
3 34 35 46
3 34 46 45
3 35 36 47
3 35 47 46
3 36 37 48
3 36 48 47
3 37 38 49
3 37 49 48
3 38 39 50
3 38 50 49
3 39 40 51
3 39 51 50
3 40 41 52
3 40 52 51
3 41 42 53
3 41 53 52
3 42 43 54
3 42 54 53
3 44 45 56
3 44 56 55
3 45 46 57
3 45 57 56
3 46 47 58
3 46 58 57
3 47 48 59
3 47 59 58
3 48 49 60
3 48 60 59
3 49 50 61
3 49 61 60
3 50 51 62
3 50 62 61
3 51 52 63
3 51 63 62
3 52 53 64
3 52 64 63
3 53 54 65
3 53 65 64
3 55 56 67
3 55 67 66
3 56 57 68
3 56 68 67
3 57 58 69
3 57 69 68
3 58 59 70
3 58 70 69
3 59 60 71
3 59 71 70
3 60 61 72
3 60 72 71
3 61 62 73
3 61 73 72
3 62 63 74
3 62 74 73
3 63 64 75
3 63 75 74
3 64 65 76
3 64 76 75
3 66 67 78
3 66 78 77
3 67 68 79
3 67 79 78
3 68 69 80
3 68 80 79
3 69 70 81
3 69 81 80
3 70 71 82
3 70 82 81
3 71 72 83
3 71 83 82
3 72 73 84
3 72 84 83
3 73 74 85
3 73 85 84
3 74 75 86
3 74 86 85
3 75 76 87
3 75 87 86
3 77 78 89
3 77 89 88
3 78 79 90
3 78 90 89
3 79 80 91
3 79 91 90
3 80 81 92
3 80 92 91
3 81 82 93
3 81 93 92
3 82 83 94
3 82 94 93
3 83 84 95
3 83 95 94
3 84 85 96
3 84 96 95
3 85 86 97
3 85 97 96
3 86 87 98
3 86 98 97
3 88 89 100
3 88 100 99
3 89 90 101
3 89 101 100
3 90 91 102
3 90 102 101
3 91 92 103
3 91 103 102
3 92 93 104
3 92 104 103
3 93 94 105
3 93 105 104
3 94 95 106
3 94 106 105
3 95 96 107
3 95 107 106
3 96 97 108
3 96 108 107
3 97 98 109
3 97 109 108
3 99 100 111
3 99 111 110
3 100 101 112
3 100 112 111
3 101 102 113
3 101 113 112
3 102 103 114
3 102 114 113
3 103 104 115
3 103 115 114
3 104 105 116
3 104 116 115
3 105 106 117
3 105 117 116
3 106 107 118
3 106 118 117
3 107 108 119
3 107 119 118
3 108 109 120
3 108 120 119
3 110 111 122
3 110 122 121
3 111 112 123
3 111 123 122
3 112 113 124
3 112 124 123
3 113 114 125
3 113 125 124
3 114 115 126
3 114 126 125
3 115 116 127
3 115 127 126
3 116 117 128
3 116 128 127
3 117 118 129
3 117 129 128
3 118 119 130
3 118 130 129
3 119 120 131
3 119 131 130
3 121 122 133
3 121 133 132
3 122 123 134
3 122 134 133
3 123 124 135
3 123 135 134
3 124 125 136
3 124 136 135
3 125 126 137
3 125 137 136
3 126 127 138
3 126 138 137
3 127 128 139
3 127 139 138
3 128 129 140
3 128 140 139
3 129 130 141
3 129 141 140
3 130 131 142
3 130 142 141
3 132 133 144
3 132 144 143
3 133 134 145
3 133 145 144
3 134 135 146
3 134 146 145
3 135 136 147
3 135 147 146
3 136 137 148
3 136 148 147
3 137 138 149
3 137 149 148
3 138 139 150
3 138 150 149
3 139 140 151
3 139 151 150
3 140 141 152
3 140 152 151
3 141 142 153
3 141 153 152
3 143 144 155
3 143 155 154
3 144 145 156
3 144 156 155
3 145 146 157
3 145 157 156
3 146 147 158
3 146 158 157
3 147 148 159
3 147 159 158
3 148 149 160
3 148 160 159
3 149 150 161
3 149 161 160
3 150 151 162
3 150 162 161
3 151 152 163
3 151 163 162
3 152 153 164
3 152 164 163
3 154 155 166
3 154 166 165
3 155 156 167
3 155 167 166
3 156 157 168
3 156 168 167
3 157 158 169
3 157 169 168
3 158 159 170
3 158 170 169
3 159 160 171
3 159 171 170
3 160 161 172
3 160 172 171
3 161 162 173
3 161 173 172
3 162 163 174
3 162 174 173
3 163 164 175
3 163 175 174
3 165 166 177
3 165 177 176
3 166 167 178
3 166 178 177
3 167 168 179
3 167 179 178
3 168 169 180
3 168 180 179
3 169 170 181
3 169 181 180
3 170 171 182
3 170 182 181
3 171 172 183
3 171 183 182
3 172 173 184
3 172 184 183
3 173 174 185
3 173 185 184
3 174 175 186
3 174 186 185
3 176 177 188
3 176 188 187
3 177 178 189
3 177 189 188
3 178 179 190
3 178 190 189
3 179 180 191
3 179 191 190
3 180 181 192
3 180 192 191
3 181 182 193
3 181 193 192
3 182 183 194
3 182 194 193
3 183 184 195
3 183 195 194
3 184 185 196
3 184 196 195
3 185 186 197
3 185 197 196
3 187 188 199
3 187 199 198
3 188 189 200
3 188 200 199
3 189 190 201
3 189 201 200
3 190 191 202
3 190 202 201
3 191 192 203
3 191 203 202
3 192 193 204
3 192 204 203
3 193 194 205
3 193 205 204
3 194 195 206
3 194 206 205
3 195 196 207
3 195 207 206
3 196 197 208
3 196 208 207
3 198 199 210
3 198 210 209
3 199 200 211
3 199 211 210
3 200 201 212
3 200 212 211
3 201 202 213
3 201 213 212
3 202 203 214
3 202 214 213
3 203 204 215
3 203 215 214
3 204 205 216
3 204 216 215
3 205 206 217
3 205 217 216
3 206 207 218
3 206 218 217
3 207 208 219
3 207 219 218
3 209 210 221
3 209 221 220
3 210 211 222
3 210 222 221
3 211 212 223
3 211 223 222
3 212 213 224
3 212 224 223
3 213 214 225
3 213 225 224
3 214 215 226
3 214 226 225
3 215 216 227
3 215 227 226
3 216 217 228
3 216 228 227
3 217 218 229
3 217 229 228
3 218 219 230
3 218 230 229
CELL_TYPES 400
5
5
5
5
5
5
5
5
5
5
5
5
5
5
5
5
5
5
5
5
5
5
5
5
5
5
5
5
5
5
5
5
5
5
5
5
5
5
5
5
5
5
5
5
5
5
5
5
5
5
5
5
5
5
5
5
5
5
5
5
5
5
5
5
5
5
5
5
5
5
5
5
5
5
5
5
5
5
5
5
5
5
5
5
5
5
5
5
5
5
5
5
5
5
5
5
5
5
5
5
5
5
5
5
5
5
5
5
5
5
5
5
5
5
5
5
5
5
5
5
5
5
5
5
5
5
5
5
5
5
5
5
5
5
5
5
5
5
5
5
5
5
5
5
5
5
5
5
5
5
5
5
5
5
5
5
5
5
5
5
5
5
5
5
5
5
5
5
5
5
5
5
5
5
5
5
5
5
5
5
5
5
5
5
5
5
5
5
5
5
5
5
5
5
5
5
5
5
5
5
5
5
5
5
5
5
5
5
5
5
5
5
5
5
5
5
5
5
5
5
5
5
5
5
5
5
5
5
5
5
5
5
5
5
5
5
5
5
5
5
5
5
5
5
5
5
5
5
5
5
5
5
5
5
5
5
5
5
5
5
5
5
5
5
5
5
5
5
5
5
5
5
5
5
5
5
5
5
5
5
5
5
5
5
5
5
5
5
5
5
5
5
5
5
5
5
5
5
5
5
5
5
5
5
5
5
5
5
5
5
5
5
5
5
5
5
5
5
5
5
5
5
5
5
5
5
5
5
5
5
5
5
5
5
5
5
5
5
5
5
5
5
5
5
5
5
5
5
5
5
5
5
5
5
5
5
5
5
5
5
5
5
5
5
5
5
5
5
5
5
5
5
5
5
5
5
5
5
5
5
5
5
5
5
5
5
5
5
5
5
5
5
5
5
5
5
5
5
5
5
POINT_DATA 231
SCALARS psi double 1
LOOKUP_TABLE default
0
0
0
0
0
0
0
0
0
0
0
0
0.436882
0.271374
-0.268914
-0.435355
0.00269622
0.439741
0.270888
-0.270124
-0.437271
0
0
0.693728
0.430282
-0.426562
-0.690788
0.00373173
0.697097
0.42953
-0.428814
-0.691905
0
0
0.870197
0.539097
-0.535018
-0.866599
0.003906
0.873534
0.538316
-0.538438
-0.867472
0
0
0.973153
0.602525
-0.598527
-0.969991
0.00315669
0.976347
0.60195
-0.603119
-0.971257
0
0
0.996923
0.61716
-0.613584
-0.995223
0.00164453
1
0.616995
-0.619139
-0.997401
0
0
0.935824
0.579531
-0.576591
-0.936429
-0.000437749
0.938903
0.58
-0.582771
-0.939741
0
0
0.789267
0.489155
-0.487156
-0.792658
-0.00267231
0.792567
0.490482
-0.493542
-0.796815
0
0
0.568655
0.352828
-0.352117
-0.574643
-0.00457279
0.57228
0.355193
-0.358269
-0.57921
0
0
0.29482
0.183441
-0.184072
-0.302771
-0.00586141
0.298843
0.186938
-0.189596
-0.307382
0
0
-0.00663291
-0.00320332
0.00139226
-0.002243
-0.00631715
-0.002243
0.00139226
-0.00320332
-0.00663291
0
0
-0.307382
-0.189596
0.186938
0.298843
-0.00586141
-0.302771
-0.184072
0.183441
0.29482
0
0
-0.57921
-0.358269
0.355193
0.57228
-0.00457279
-0.574643
-0.352117
0.352828
0.568655
0
0
-0.796815
-0.493542
0.490482
0.792567
-0.00267231
-0.792658
-0.487156
0.489155
0.789267
0
0
-0.939741
-0.582771
0.58
0.938903
-0.000437749
-0.936429
-0.576591
0.579531
0.935824
0
0
-0.997401
-0.619139
0.616995
1
0.00164453
-0.995223
-0.613584
0.61716
0.996923
0
0
-0.971257
-0.603119
0.60195
0.976347
0.00315669
-0.969991
-0.598527
0.602525
0.973153
0
0
-0.867472
-0.538438
0.538316
0.873534
0.003906
-0.866599
-0.535018
0.539097
0.870197
0
0
-0.691905
-0.428814
0.42953
0.697097
0.00373173
-0.690788
-0.426562
0.430282
0.693728
0
0
-0.437271
-0.270124
0.270888
0.439741
0.00269622
-0.435355
-0.268914
0.271374
0.436882
0
0
0
0
0
0
0
0
0
0
0
0
VECTORS Et double
-0.403615 -0.0513702 0
-0.12545 -0.986712 0
0.34071 -0.611991 0
0.34097 0.606486 0
-0.130798 0.982454 0
-0.422116 -0.00527064 0
-0.129572 -0.99157 0
0.342469 -0.611207 0
0.341227 0.610123 0
-0.141314 0.985638 0
-0.402973 0.0512359 0
-0.501257 -0.0572548 0
-0.161539 -0.686477 0
0.415203 -0.424695 0
0.415521 0.421376 0
-0.159273 0.683088 0
-0.514375 -0.00240455 0
-0.158 -0.687917 0
0.417339 -0.424278 0
0.415821 0.424669 0
-0.154768 0.682956 0
-0.4992 0.0628228 0
-0.599135 -0.0563984 0
-0.19253 -0.488152 0
0.489454 -0.300479 0
0.489875 0.298889 0
-0.187583 0.485015 0
-0.606368 -0.00027984 0
-0.186427 -0.486695 0
0.491994 -0.300396 0
0.490268 0.302033 0
-0.178552 0.481673 0
-0.597845 0.061036 0
-0.683824 -0.0449107 0
-0.218599 -0.320162 0
0.55416 -0.19539 0
0.554757 0.195166 0
-0.212143 0.317416 0
-0.686609 0.00156919 0
-0.211351 -0.316458 0
0.557116 -0.195677 0
0.555324 0.198108 0
-0.201468 0.311452 0
-0.683358 0.0483972 0
-0.740363 -0.0228585 0
-0.236381 -0.142843 0
0.598259 -0.0847188 0
0.59913 0.0856885 0
-0.228715 0.140509 0
-0.741455 0.0032278 0
-0.228596 -0.137227 0
0.601626 -0.0854668 0
0.599994 0.0882378 0
-0.219856 0.134098 0
-0.740979 0.0249812 0
-0.753394 0.00735417 0
-0.240317 0.0620099 0
0.608722 0.0425307 0
0.609978 -0.0404477 0
-0.232325 -0.0634782 0
-0.754793 0.00459691 0
-0.233207 0.0686871 0
0.61247 0.0412147 0
0.61126 -0.038553 0
-0.230861 -0.0649935 0
-0.755499 -0.00693048 0
-0.704216 0.038027 0
-0.220381 0.291531 0
0.569194 0.181892 0
0.570901 -0.178811 0
-0.216764 -0.287536 0
-0.706386 0.0053746 0
-0.2189 0.293928 0
0.573218 0.179935 0
0.572696 -0.177833 0
-0.219551 -0.286087 0
-0.708303 -0.0386479 0
-0.590968 0.0658039 0
-0.183154 0.509355 0
0.477927 0.315177 0
0.480071 -0.311347 0
-0.18146 -0.502606 0
-0.594019 0.0052264 0
-0.184895 0.509 0
0.482088 0.312619 0
0.482452 -0.311478 0
-0.184984 -0.501699 0
-0.597059 -0.0654925 0
-0.424667 0.0884154 0
-0.131717 0.679431 0
0.343773 0.420574 0
0.346243 -0.416508 0
-0.129875 -0.673687 0
-0.428562 0.0041032 0
-0.134439 0.678792 0
0.347958 0.417619 0
0.349176 -0.417728 0
-0.133911 -0.673462 0
-0.432604 -0.087619 0
-0.219937 0.102525 0
-0.0683599 0.788101 0
0.178492 0.488044 0
0.181072 -0.484337 0
-0.0665593 -0.784495 0
-0.224489 0.00225186 0
-0.0718904 0.787305 0
0.182551 0.484952 0
0.184527 -0.48655 0
-0.0707894 -0.784852 0
-0.229172 -0.102088 0
0.00484666 0.107258 0
0.00125373 0.824469 0
-0.00311905 0.510797 0
-0.000701491 -0.508004 0
0.0028028 -0.823749 0
1.69594e-10 4.00321e-08 0
-0.00280286 0.823766 0
0.000701496 0.508004 0
0.0031192 -0.510823 0
-0.00125362 -0.824437 0
-0.00484633 -0.107251 0
0.229177 0.10209 0
0.0707871 0.784852 0
-0.184513 0.486509 0
-0.182561 -0.484982 0
0.071894 -0.787324 0
0.224484 -0.00225174 0
0.0665585 0.784512 0
-0.181072 0.48434 0
-0.1785 -0.488074 0
0.0683704 -0.788167 0
0.21999 -0.102549 0
0.432633 0.0876249 0
0.133912 0.67348 0
-0.34919 0.417746 0
-0.347957 -0.417616 0
0.134443 -0.678797 0
0.428547 -0.00410294 0
0.129876 0.673711 0
-0.346242 0.416501 0
-0.343769 -0.420583 0
0.131706 -0.679373 0
0.424547 -0.0883904 0
0.597081 0.0654949 0
0.184988 0.501718 0
-0.48245 0.311484 0
-0.482088 -0.312619 0
0.184888 -0.50898 0
0.594028 -0.00522645 0
0.181464 0.502614 0
-0.480076 0.311353 0
-0.477838 -0.315129 0
0.183186 -0.509435 0
0.590838 -0.0657894 0
0.708253 0.0386452 0
0.21955 0.28607 0
-0.572708 0.17784 0
-0.573211 -0.179933 0
0.218912 -0.293933 0
0.706402 -0.00537472 0
0.216772 0.287542 0
-0.570936 0.178811 0
-0.569199 -0.181901 0
0.220373 -0.291491 0
0.704221 -0.0380272 0
0.75551 0.00693058 0
0.230865 0.0649925 0
-0.611258 0.0385501 0
-0.612466 -0.0412184 0
0.23321 -0.0687011 0
0.754808 -0.00459701 0
0.232331 0.0634976 0
-0.609992 0.0404261 0
-0.608711 -0.0425167 0
0.240297 -0.0619953 0
0.752836 -0.00734872 0
0.740977 -0.0249811 0
0.219853 -0.134097 0
-0.599994 -0.0882427 0
-0.601637 0.0854671 0
0.228623 0.137256 0
0.741443 -0.00322774 0
0.228709 -0.140514 0
-0.599149 -0.0856816 0
-0.598271 0.0847426 0
0.236367 0.142856 0
0.740518 0.0228632 0
0.683358 -0.0483972 0
0.201466 -0.311454 0
-0.555314 -0.198103 0
-0.557112 0.195679 0
0.211353 0.316441 0
0.686584 -0.00156916 0
0.212154 -0.317429 0
-0.55477 -0.195173 0
-0.554115 0.195325 0
0.218623 0.320232 0
0.684272 0.0449401 0
0.597844 -0.0610359 0
0.178553 -0.481679 0
-0.490272 -0.302035 0
-0.491994 0.300398 0
0.186445 0.486732 0
0.606351 0.000279857 0
0.187548 -0.484953 0
-0.490028 -0.298983 0
-0.48963 0.300612 0
0.19261 0.488321 0
0.598626 0.0563505 0
0.499197 -0.0628224 0
0.154773 -0.682963 0
-0.415814 -0.424665 0
-0.417357 0.4243 0
0.158003 0.68792 0
0.514335 0.00240431 0
0.159313 -0.68325 0
-0.415473 -0.421333 0
-0.415489 0.424987 0
0.161398 0.685856 0
0.500378 0.0571545 0
0.402973 -0.0512359 0
0.141313 -0.98563 0
-0.341217 -0.610105 0
-0.342467 0.611203 0
0.129562 0.991494 0
0.422143 0.00527097 0
0.13077 -0.98224 0
-0.340896 -0.606355 0
-0.340636 0.611857 0
0.125501 0.987106 0
0.402156 0.0511845 0
