# vtk DataFile Version 3.0
tp3485 scalar+vector
ASCII
DATASET UNSTRUCTURED_GRID
POINTS 231 double
0 0 0
0.1 0 0
0.2 0 0
0.3 0 0
0.4 0 0
0.5 0 0
0.6 0 0
0.7 0 0
0.8 0 0
0.9 0 0
1 0 0
0 0.025 0
0.1 0.025 0
0.2 0.025 0
0.3 0.025 0
0.4 0.025 0
0.5 0.025 0
0.6 0.025 0
0.7 0.025 0
0.8 0.025 0
0.9 0.025 0
1 0.025 0
0 0.05 0
0.1 0.05 0
0.2 0.05 0
0.3 0.05 0
0.4 0.05 0
0.5 0.05 0
0.6 0.05 0
0.7 0.05 0
0.8 0.05 0
0.9 0.05 0
1 0.05 0
0 0.075 0
0.1 0.075 0
0.2 0.075 0
0.3 0.075 0
0.4 0.075 0
0.5 0.075 0
0.6 0.075 0
0.7 0.075 0
0.8 0.075 0
0.9 0.075 0
1 0.075 0
0 0.1 0
0.1 0.1 0
0.2 0.1 0
0.3 0.1 0
0.4 0.1 0
0.5 0.1 0
0.6 0.1 0
0.7 0.1 0
0.8 0.1 0
0.9 0.1 0
1 0.1 0
0 0.125 0
0.1 0.125 0
0.2 0.125 0
0.3 0.125 0
0.4 0.125 0
0.5 0.125 0
0.6 0.125 0
0.7 0.125 0
0.8 0.125 0
0.9 0.125 0
1 0.125 0
0 0.15 0
0.1 0.15 0
0.2 0.15 0
0.3 0.15 0
0.4 0.15 0
0.5 0.15 0
0.6 0.15 0
0.7 0.15 0
0.8 0.15 0
0.9 0.15 0
1 0.15 0
0 0.175 0
0.1 0.175 0
0.2 0.175 0
0.3 0.175 0
0.4 0.175 0
0.5 0.175 0
0.6 0.175 0
0.7 0.175 0
0.8 0.175 0
0.9 0.175 0
1 0.175 0
0 0.2 0
0.1 0.2 0
0.2 0.2 0
0.3 0.2 0
0.4 0.2 0
0.5 0.2 0
0.6 0.2 0
0.7 0.2 0
0.8 0.2 0
0.9 0.2 0
1 0.2 0
0 0.225 0
0.1 0.225 0
0.2 0.225 0
0.3 0.225 0
0.4 0.225 0
0.5 0.225 0
0.6 0.225 0
0.7 0.225 0
0.8 0.225 0
0.9 0.225 0
1 0.225 0
0 0.25 0
0.1 0.25 0
0.2 0.25 0
0.3 0.25 0
0.4 0.25 0
0.5 0.25 0
0.6 0.25 0
0.7 0.25 0
0.8 0.25 0
0.9 0.25 0
1 0.25 0
0 0.275 0
0.1 0.275 0
0.2 0.275 0
0.3 0.275 0
0.4 0.275 0
0.5 0.275 0
0.6 0.275 0
0.7 0.275 0
0.8 0.275 0
0.9 0.275 0
1 0.275 0
0 0.3 0
0.1 0.3 0
0.2 0.3 0
0.3 0.3 0
0.4 0.3 0
0.5 0.3 0
0.6 0.3 0
0.7 0.3 0
0.8 0.3 0
0.9 0.3 0
1 0.3 0
0 0.325 0
0.1 0.325 0
0.2 0.325 0
0.3 0.325 0
0.4 0.325 0
0.5 0.325 0
0.6 0.325 0
0.7 0.325 0
0.8 0.325 0
0.9 0.325 0
1 0.325 0
0 0.35 0
0.1 0.35 0
0.2 0.35 0
0.3 0.35 0
0.4 0.35 0
0.5 0.35 0
0.6 0.35 0
0.7 0.35 0
0.8 0.35 0
0.9 0.35 0
1 0.35 0
0 0.375 0
0.1 0.375 0
0.2 0.375 0
0.3 0.375 0
0.4 0.375 0
0.5 0.375 0
0.6 0.375 0
0.7 0.375 0
0.8 0.375 0
0.9 0.375 0
1 0.375 0
0 0.4 0
0.1 0.4 0
0.2 0.4 0
0.3 0.4 0
0.4 0.4 0
0.5 0.4 0
0.6 0.4 0
0.7 0.4 0
0.8 0.4 0
0.9 0.4 0
1 0.4 0
0 0.425 0
0.1 0.425 0
0.2 0.425 0
0.3 0.425 0
0.4 0.425 0
0.5 0.425 0
0.6 0.425 0
0.7 0.425 0
0.8 0.425 0
0.9 0.425 0
1 0.425 0
0 0.45 0
0.1 0.45 0
0.2 0.45 0
0.3 0.45 0
0.4 0.45 0
0.5 0.45 0
0.6 0.45 0
0.7 0.45 0
0.8 0.45 0
0.9 0.45 0
1 0.45 0
0 0.475 0
0.1 0.475 0
0.2 0.475 0
0.3 0.475 0
0.4 0.475 0
0.5 0.475 0
0.6 0.475 0
0.7 0.475 0
0.8 0.475 0
0.9 0.475 0
1 0.475 0
0 0.5 0
0.1 0.5 0
0.2 0.5 0
0.3 0.5 0
0.4 0.5 0
0.5 0.5 0
0.6 0.5 0
0.7 0.5 0
0.8 0.5 0
0.9 0.5 0
1 0.5 0
CELLS 400 1600
3 0 1 12
3 0 12 11
3 1 2 13
3 1 13 12
3 2 3 14
3 2 14 13
3 3 4 15
3 3 15 14
3 4 5 16
3 4 16 15
3 5 6 17
3 5 17 16
3 6 7 18
3 6 18 17
3 7 8 19
3 7 19 18
3 8 9 20
3 8 20 19
3 9 10 21
3 9 21 20
3 11 12 23
3 11 23 22
3 12 13 24
3 12 24 23
3 13 14 25
3 13 25 24
3 14 15 26
3 14 26 25
3 15 16 27
3 15 27 26
3 16 17 28
3 16 28 27
3 17 18 29
3 17 29 28
3 18 19 30
3 18 30 29
3 19 20 31
3 19 31 30
3 20 21 32
3 20 32 31
3 22 23 34
3 22 34 33
3 23 24 35
3 23 35 34
3 24 25 36
3 24 36 35
3 25 26 37
3 25 37 36
3 26 27 38
3 26 38 37
3 27 28 39
3 27 39 38
3 28 29 40
3 28 40 39
3 29 30 41
3 29 41 40
3 30 31 42
3 30 42 41
3 31 32 43
3 31 43 42
3 33 34 45
3 33 45 44
3 34 35 46
3 34 46 45
3 35 36 47
3 35 47 46
3 36 37 48
3 36 48 47
3 37 38 49
3 37 49 48
3 38 39 50
3 38 50 49
3 39 40 51
3 39 51 50
3 40 41 52
3 40 52 51
3 41 42 53
3 41 53 52
3 42 43 54
3 42 54 53
3 44 45 56
3 44 56 55
3 45 46 57
3 45 57 56
3 46 47 58
3 46 58 57
3 47 48 59
3 47 59 58
3 48 49 60
3 48 60 59
3 49 50 61
3 49 61 60
3 50 51 62
3 50 62 61
3 51 52 63
3 51 63 62
3 52 53 64
3 52 64 63
3 53 54 65
3 53 65 64
3 55 56 67
3 55 67 66
3 56 57 68
3 56 68 67
3 57 58 69
3 57 69 68
3 58 59 70
3 58 70 69
3 59 60 71
3 59 71 70
3 60 61 72
3 60 72 71
3 61 62 73
3 61 73 72
3 62 63 74
3 62 74 73
3 63 64 75
3 63 75 74
3 64 65 76
3 64 76 75
3 66 67 78
3 66 78 77
3 67 68 79
3 67 79 78
3 68 69 80
3 68 80 79
3 69 70 81
3 69 81 80
3 70 71 82
3 70 82 81
3 71 72 83
3 71 83 82
3 72 73 84
3 72 84 83
3 73 74 85
3 73 85 84
3 74 75 86
3 74 86 85
3 75 76 87
3 75 87 86
3 77 78 89
3 77 89 88
3 78 79 90
3 78 90 89
3 79 80 91
3 79 91 90
3 80 81 92
3 80 92 91
3 81 82 93
3 81 93 92
3 82 83 94
3 82 94 93
3 83 84 95
3 83 95 94
3 84 85 96
3 84 96 95
3 85 86 97
3 85 97 96
3 86 87 98
3 86 98 97
3 88 89 100
3 88 100 99
3 89 90 101
3 89 101 100
3 90 91 102
3 90 102 101
3 91 92 103
3 91 103 102
3 92 93 104
3 92 104 103
3 93 94 105
3 93 105 104
3 94 95 106
3 94 106 105
3 95 96 107
3 95 107 106
3 96 97 108
3 96 108 107
3 97 98 109
3 97 109 108
3 99 100 111
3 99 111 110
3 100 101 112
3 100 112 111
3 101 102 113
3 101 113 112
3 102 103 114
3 102 114 113
3 103 104 115
3 103 115 114
3 104 105 116
3 104 116 115
3 105 106 117
3 105 117 116
3 106 107 118
3 106 118 117
3 107 108 119
3 107 119 118
3 108 109 120
3 108 120 119
3 110 111 122
3 110 122 121
3 111 112 123
3 111 123 122
3 112 113 124
3 112 124 123
3 113 114 125
3 113 125 124
3 114 115 126
3 114 126 125
3 115 116 127
3 115 127 126
3 116 117 128
3 116 128 127
3 117 118 129
3 117 129 128
3 118 119 130
3 118 130 129
3 119 120 131
3 119 131 130
3 121 122 133
3 121 133 132
3 122 123 134
3 122 134 133
3 123 124 135
3 123 135 134
3 124 125 136
3 124 136 135
3 125 126 137
3 125 137 136
3 126 127 138
3 126 138 137
3 127 128 139
3 127 139 138
3 128 129 140
3 128 140 139
3 129 130 141
3 129 141 140
3 130 131 142
3 130 142 141
3 132 133 144
3 132 144 143
3 133 134 145
3 133 145 144
3 134 135 146
3 134 146 145
3 135 136 147
3 135 147 146
3 136 137 148
3 136 148 147
3 137 138 149
3 137 149 148
3 138 139 150
3 138 150 149
3 139 140 151
3 139 151 150
3 140 141 152
3 140 152 151
3 141 142 153
3 141 153 152
3 143 144 155
3 143 155 154
3 144 145 156
3 144 156 155
3 145 146 157
3 145 157 156
3 146 147 158
3 146 158 157
3 147 148 159
3 147 159 158
3 148 149 160
3 148 160 159
3 149 150 161
3 149 161 160
3 150 151 162
3 150 162 161
3 151 152 163
3 151 163 162
3 152 153 164
3 152 164 163
3 154 155 166
3 154 166 165
3 155 156 167
3 155 167 166
3 156 157 168
3 156 168 167
3 157 158 169
3 157 169 168
3 158 159 170
3 158 170 169
3 159 160 171
3 159 171 170
3 160 161 172
3 160 172 171
3 161 162 173
3 161 173 172
3 162 163 174
3 162 174 173
3 163 164 175
3 163 175 174
3 165 166 177
3 165 177 176
3 166 167 178
3 166 178 177
3 167 168 179
3 167 179 178
3 168 169 180
3 168 180 179
3 169 170 181
3 169 181 180
3 170 171 182
3 170 182 181
3 171 172 183
3 171 183 182
3 172 173 184
3 172 184 183
3 173 174 185
3 173 185 184
3 174 175 186
3 174 186 185
3 176 177 188
3 176 188 187
3 177 178 189
3 177 189 188
3 178 179 190
3 178 190 189
3 179 180 191
3 179 191 190
3 180 181 192
3 180 192 191
3 181 182 193
3 181 193 192
3 182 183 194
3 182 194 193
3 183 184 195
3 183 195 194
3 184 185 196
3 184 196 195
3 185 186 197
3 185 197 196
3 187 188 199
3 187 199 198
3 188 189 200
3 188 200 199
3 189 190 201
3 189 201 200
3 190 191 202
3 190 202 201
3 191 192 203
3 191 203 202
3 192 193 204
3 192 204 203
3 193 194 205
3 193 205 204
3 194 195 206
3 194 206 205
3 195 196 207
3 195 207 206
3 196 197 208
3 196 208 207
3 198 199 210
3 198 210 209
3 199 200 211
3 199 211 210
3 200 201 212
3 200 212 211
3 201 202 213
3 201 213 212
3 202 203 214
3 202 214 213
3 203 204 215
3 203 215 214
3 204 205 216
3 204 216 215
3 205 206 217
3 205 217 216
3 206 207 218
3 206 218 217
3 207 208 219
3 207 219 218
3 209 210 221
3 209 221 220
3 210 211 222
3 210 222 221
3 211 212 223
3 211 223 222
3 212 213 224
3 212 224 223
3 213 214 225
3 213 225 224
3 214 215 226
3 214 226 225
3 215 216 227
3 215 227 226
3 216 217 228
3 216 228 227
3 217 218 229
3 217 229 228
3 218 219 230
3 218 230 229
CELL_TYPES 400
5
5
5
5
5
5
5
5
5
5
5
5
5
5
5
5
5
5
5
5
5
5
5
5
5
5
5
5
5
5
5
5
5
5
5
5
5
5
5
5
5
5
5
5
5
5
5
5
5
5
5
5
5
5
5
5
5
5
5
5
5
5
5
5
5
5
5
5
5
5
5
5
5
5
5
5
5
5
5
5
5
5
5
5
5
5
5
5
5
5
5
5
5
5
5
5
5
5
5
5
5
5
5
5
5
5
5
5
5
5
5
5
5
5
5
5
5
5
5
5
5
5
5
5
5
5
5
5
5
5
5
5
5
5
5
5
5
5
5
5
5
5
5
5
5
5
5
5
5
5
5
5
5
5
5
5
5
5
5
5
5
5
5
5
5
5
5
5
5
5
5
5
5
5
5
5
5
5
5
5
5
5
5
5
5
5
5
5
5
5
5
5
5
5
5
5
5
5
5
5
5
5
5
5
5
5
5
5
5
5
5
5
5
5
5
5
5
5
5
5
5
5
5
5
5
5
5
5
5
5
5
5
5
5
5
5
5
5
5
5
5
5
5
5
5
5
5
5
5
5
5
5
5
5
5
5
5
5
5
5
5
5
5
5
5
5
5
5
5
5
5
5
5
5
5
5
5
5
5
5
5
5
5
5
5
5
5
5
5
5
5
5
5
5
5
5
5
5
5
5
5
5
5
5
5
5
5
5
5
5
5
5
5
5
5
5
5
5
5
5
5
5
5
5
5
5
5
5
5
5
5
5
5
5
5
5
5
5
5
5
5
5
5
5
5
5
5
5
5
5
5
5
5
5
5
5
5
5
5
5
5
5
5
5
5
5
5
5
5
5
5
5
5
5
5
5
5
5
5
5
5
5
5
5
5
5
5
5
5
5
5
5
5
5
5
5
5
5
5
5
POINT_DATA 231
SCALARS psi double 1
LOOKUP_TABLE default
0
0
0
0
0
0
0
0
0
0
0
0
0.0666438
0.12704
0.174609
0.20519
0.215719
0.205119
0.174377
0.126338
0.0664284
0
0
0.108814
0.206952
0.284467
0.334294
0.35144
0.334162
0.284085
0.205887
0.107758
0
0
0.147767
0.28076
0.385989
0.453606
0.476859
0.453403
0.385463
0.279481
0.146132
0
0
0.185327
0.35209
0.484172
0.569012
0.598181
0.568759
0.483557
0.350761
0.183547
0
0
0.220376
0.418813
0.57607
0.677048
0.71177
0.676775
0.575428
0.417557
0.218748
0
0
0.251248
0.477659
0.657166
0.772413
0.812055
0.772161
0.656583
0.476593
0.249944
0
0
0.276147
0.525167
0.722666
0.849461
0.893097
0.849258
0.7222
0.524349
0.275207
0
0
0.294216
0.559671
0.770262
0.905468
0.952018
0.905324
0.769934
0.559112
0.293599
0
0
0.305172
0.580644
0.799236
0.939589
0.987932
0.939514
0.799067
0.580361
0.304866
0
0
0.308753
0.587596
0.808914
0.951028
1
0.951028
0.808914
0.587596
0.308753
0
0
0.304866
0.580361
0.799067
0.939514
0.987932
0.939589
0.799236
0.580644
0.305172
0
0
0.293599
0.559112
0.769934
0.905324
0.952018
0.905468
0.770262
0.559671
0.294216
0
0
0.275207
0.524349
0.7222
0.849258
0.893097
0.849461
0.722666
0.525167
0.276147
0
0
0.249944
0.476593
0.656583
0.772161
0.812055
0.772413
0.657166
0.477659
0.251248
0
0
0.218748
0.417557
0.575428
0.676775
0.71177
0.677048
0.57607
0.418813
0.220376
0
0
0.183547
0.350761
0.483557
0.568759
0.598181
0.569012
0.484172
0.35209
0.185327
0
0
0.146132
0.279481
0.385463
0.453403
0.476859
0.453606
0.385989
0.28076
0.147767
0
0
0.107758
0.205887
0.284085
0.334162
0.35144
0.334294
0.284467
0.206952
0.108814
0
0
0.0664284
0.126338
0.174377
0.205119
0.215719
0.20519
0.174609
0.12704
0.0666438
0
0
0
0
0
0
0
0
0
0
0
0
VECTORS Et double
-0.107441 -0.0152231 0
-0.102934 -0.309471 0
-0.0911266 -0.588646 0
-0.06607 -0.809404 0
-0.0347416 -0.951169 0
7.0142e-05 -0.999937 0
0.0349368 -0.950759 0
0.0665125 -0.808256 0
0.091404 -0.586041 0
0.115669 -0.3073 0
0.106553 -0.0150635 0
-0.139667 -0.0191324 0
-0.133734 -0.258994 0
-0.116214 -0.493258 0
-0.084286 -0.678417 0
-0.0443143 -0.797281 0
9.04002e-05 -0.838145 0
0.0445573 -0.796913 0
0.0848051 -0.677512 0
0.116587 -0.491518 0
0.142435 -0.258585 0
0.138054 -0.0208236 0
-0.177657 -0.0226125 0
-0.168593 -0.235494 0
-0.145627 -0.449717 0
-0.10565 -0.618708 0
-0.0555399 -0.727165 0
0.000112136 -0.764439 0
0.0558316 -0.726842 0
0.106235 -0.618003 0
0.146094 -0.448592 0
0.176528 -0.237479 0
0.175938 -0.0242575 0
-0.220425 -0.0243638 0
-0.207993 -0.219583 0
-0.178921 -0.420527 0
-0.129841 -0.578726 0
-0.06825 -0.680246 0
0.00013219 -0.715151 0
0.0685843 -0.680006 0
0.130469 -0.578258 0
0.179461 -0.419951 0
0.215073 -0.223591 0
0.218594 -0.0259486 0
-0.266399 -0.0238463 0
-0.251052 -0.20265 0
-0.215285 -0.389034 0
-0.156269 -0.535568 0
-0.0821346 -0.6296 0
0.000149011 -0.661956 0
0.0825007 -0.629473 0
0.156911 -0.535379 0
0.215865 -0.388995 0
0.256233 -0.207279 0
0.264501 -0.0253668 0
-0.313197 -0.0208656 0
-0.295921 -0.181013 0
-0.252953 -0.347769 0
-0.183651 -0.478951 0
-0.0965238 -0.56314 0
0.000154532 -0.592142 0
0.096898 -0.563153 0
0.184269 -0.479068 0
0.253516 -0.348255 0
0.297847 -0.184185 0
0.311322 -0.022253 0
-0.355229 -0.0171295 0
-0.337324 -0.153826 0
-0.287047 -0.293882 0
-0.208446 -0.404925 0
-0.109556 -0.476212 0
0.00014834 -0.500806 0
0.109903 -0.476361 0
0.20899 -0.405341 0
0.287537 -0.294829 0
0.337035 -0.155423 0
0.353566 -0.018016 0
-0.389222 -0.0135342 0
-0.37012 -0.11988 0
-0.314701 -0.228597 0
-0.228567 -0.315156 0
-0.120138 -0.370758 0
0.000122063 -0.389997 0
0.120428 -0.371014 0
0.228995 -0.315797 0
0.315086 -0.22987 0
0.369558 -0.121348 0
0.387854 -0.013864 0
-0.414343 -0.00935125 0
-0.3941 -0.0818065 0
-0.335219 -0.156255 0
-0.243508 -0.215635 0
-0.127996 -0.253803 0
9.02723e-05 -0.267062 0
0.128211 -0.254149 0
0.24381 -0.21642 0
0.335476 -0.157707 0
0.393715 -0.0834141 0
0.413384 -0.00955921 0
-0.429695 -0.00470114 0
-0.408807 -0.0411424 0
-0.347867 -0.0789699 0
-0.252724 -0.109289 0
-0.132858 -0.128806 0
5.58634e-05 -0.135653 0
0.132973 -0.129221 0
0.252861 -0.110206 0
0.348029 -0.0805179 0
0.408614 -0.0427809 0
0.429216 -0.00491398 0
-0.434718 0.00010649 0
-0.413702 0.000822329 0
-0.352174 0.000781371 0
-0.255891 0.000463865 0
-0.134537 0.0002081 0
3.80955e-10 -1.02358e-05 0
0.134544 -0.000208104 0
0.255896 -0.000454764 0
0.352194 -0.000791924 0
0.413682 -0.000833776 0
0.434689 -0.000106483 0
-0.429225 0.00491408 0
-0.408609 0.0427785 0
-0.347992 0.0805046 0
-0.252876 0.110183 0
-0.132966 0.129214 0
-4.42405e-05 0.13563 0
0.132874 0.128823 0
0.252721 0.109282 0
0.347898 0.0789657 0
0.408849 0.0411472 0
0.429798 0.00470226 0
-0.413412 0.00955985 0
-0.393714 0.0833982 0
-0.335477 0.157699 0
-0.243805 0.216436 0
-0.128204 0.254151 0
-9.61098e-05 0.267014 0
0.128015 0.25383 0
0.24351 0.215653 0
0.335224 0.156226 0
0.394062 0.0817885 0
0.414226 0.00934861 0
-0.387868 0.0138645 0
-0.369566 0.121346 0
-0.315085 0.229858 0
-0.228994 0.3158 0
-0.120426 0.371007 0
-0.000119325 0.389993 0
0.120138 0.370763 0
0.228559 0.315166 0
0.314629 0.228525 0
0.370173 0.119889 0
0.389137 0.0135312 0
-0.353541 0.0180148 0
-0.337038 0.155435 0
-0.287541 0.294829 0
-0.20899 0.405334 0
-0.109895 0.476373 0
-0.00016039 0.500834 0
0.109562 0.476241 0
0.208459 0.404971 0
0.28705 0.293876 0
0.337304 0.153825 0
0.355231 0.0171297 0
-0.311326 0.0222534 0
-0.297852 0.184188 0
-0.253513 0.348255 0
-0.184268 0.479059 0
-0.0968966 0.563142 0
-0.000165668 0.592146 0
0.0965212 0.563127 0
0.183664 0.47899 0
0.252962 0.347784 0
0.295891 0.180997 0
0.312965 0.0208502 0
-0.2645 0.0253668 0
-0.256229 0.207276 0
-0.215857 0.388996 0
-0.156917 0.535385 0
-0.0824955 0.629534 0
-0.000145341 0.661947 0
0.0821509 0.629621 0
0.156281 0.535568 0
0.21529 0.389063 0
0.251068 0.202672 0
0.266454 0.0238513 0
-0.218594 0.0259485 0
-0.215072 0.223591 0
-0.179455 0.419942 0
-0.13047 0.578257 0
-0.068575 0.679978 0
-0.000134263 0.71512 0
0.0682549 0.680282 0
0.129853 0.578736 0
0.178901 0.42045 0
0.208007 0.219609 0
0.22057 0.0243797 0
-0.175938 0.0242575 0
-0.176529 0.237481 0
-0.146094 0.448595 0
-0.106233 0.618008 0
-0.0558295 0.726892 0
-0.000113171 0.764422 0
0.0555417 0.727073 0
0.105692 0.618895 0
0.145689 0.449903 0
0.168658 0.235579 0
0.177506 0.0225932 0
-0.138053 0.0208234 0
-0.142437 0.258588 0
-0.116588 0.491513 0
-0.0848037 0.677549 0
-0.0445537 0.796912 0
-0.000100124 0.838073 0
0.0443203 0.797464 0
0.0842654 0.678353 0
0.1163 0.4936 0
0.133623 0.258767 0
0.139423 0.0190988 0
-0.106553 0.0150635 0
-0.115668 0.307297 0
-0.0914012 0.586023 0
-0.0665121 0.80825 0
-0.0349341 0.950686 0
-7.01466e-05 1 0
0.034734 0.950963 0
0.0660557 0.809228 0
0.0911068 0.588518 0
0.102975 0.309595 0
0.107052 0.0151681 0
