# vtk DataFile Version 3.0
tp3485 scalar+vector
ASCII
DATASET UNSTRUCTURED_GRID
POINTS 231 double
0 0 0
0.1 0 0
0.2 0 0
0.3 0 0
0.4 0 0
0.5 0 0
0.6 0 0
0.7 0 0
0.8 0 0
0.9 0 0
1 0 0
0 0.025 0
0.1 0.025 0
0.2 0.025 0
0.3 0.025 0
0.4 0.025 0
0.5 0.025 0
0.6 0.025 0
0.7 0.025 0
0.8 0.025 0
0.9 0.025 0
1 0.025 0
0 0.05 0
0.1 0.05 0
0.2 0.05 0
0.3 0.05 0
0.4 0.05 0
0.5 0.05 0
0.6 0.05 0
0.7 0.05 0
0.8 0.05 0
0.9 0.05 0
1 0.05 0
0 0.075 0
0.1 0.075 0
0.2 0.075 0
0.3 0.075 0
0.4 0.075 0
0.5 0.075 0
0.6 0.075 0
0.7 0.075 0
0.8 0.075 0
0.9 0.075 0
1 0.075 0
0 0.1 0
0.1 0.1 0
0.2 0.1 0
0.3 0.1 0
0.4 0.1 0
0.5 0.1 0
0.6 0.1 0
0.7 0.1 0
0.8 0.1 0
0.9 0.1 0
1 0.1 0
0 0.125 0
0.1 0.125 0
0.2 0.125 0
0.3 0.125 0
0.4 0.125 0
0.5 0.125 0
0.6 0.125 0
0.7 0.125 0
0.8 0.125 0
0.9 0.125 0
1 0.125 0
0 0.15 0
0.1 0.15 0
0.2 0.15 0
0.3 0.15 0
0.4 0.15 0
0.5 0.15 0
0.6 0.15 0
0.7 0.15 0
0.8 0.15 0
0.9 0.15 0
1 0.15 0
0 0.175 0
0.1 0.175 0
0.2 0.175 0
0.3 0.175 0
0.4 0.175 0
0.5 0.175 0
0.6 0.175 0
0.7 0.175 0
0.8 0.175 0
0.9 0.175 0
1 0.175 0
0 0.2 0
0.1 0.2 0
0.2 0.2 0
0.3 0.2 0
0.4 0.2 0
0.5 0.2 0
0.6 0.2 0
0.7 0.2 0
0.8 0.2 0
0.9 0.2 0
1 0.2 0
0 0.225 0
0.1 0.225 0
0.2 0.225 0
0.3 0.225 0
0.4 0.225 0
0.5 0.225 0
0.6 0.225 0
0.7 0.225 0
0.8 0.225 0
0.9 0.225 0
1 0.225 0
0 0.25 0
0.1 0.25 0
0.2 0.25 0
0.3 0.25 0
0.4 0.25 0
0.5 0.25 0
0.6 0.25 0
0.7 0.25 0
0.8 0.25 0
0.9 0.25 0
1 0.25 0
0 0.275 0
0.1 0.275 0
0.2 0.275 0
0.3 0.275 0
0.4 0.275 0
0.5 0.275 0
0.6 0.275 0
0.7 0.275 0
0.8 0.275 0
0.9 0.275 0
1 0.275 0
0 0.3 0
0.1 0.3 0
0.2 0.3 0
0.3 0.3 0
0.4 0.3 0
0.5 0.3 0
0.6 0.3 0
0.7 0.3 0
0.8 0.3 0
0.9 0.3 0
1 0.3 0
0 0.325 0
0.1 0.325 0
0.2 0.325 0
0.3 0.325 0
0.4 0.325 0
0.5 0.325 0
0.6 0.325 0
0.7 0.325 0
0.8 0.325 0
0.9 0.325 0
1 0.325 0
0 0.35 0
0.1 0.35 0
0.2 0.35 0
0.3 0.35 0
0.4 0.35 0
0.5 0.35 0
0.6 0.35 0
0.7 0.35 0
0.8 0.35 0
0.9 0.35 0
1 0.35 0
0 0.375 0
0.1 0.375 0
0.2 0.375 0
0.3 0.375 0
0.4 0.375 0
0.5 0.375 0
0.6 0.375 0
0.7 0.375 0
0.8 0.375 0
0.9 0.375 0
1 0.375 0
0 0.4 0
0.1 0.4 0
0.2 0.4 0
0.3 0.4 0
0.4 0.4 0
0.5 0.4 0
0.6 0.4 0
0.7 0.4 0
0.8 0.4 0
0.9 0.4 0
1 0.4 0
0 0.425 0
0.1 0.425 0
0.2 0.425 0
0.3 0.425 0
0.4 0.425 0
0.5 0.425 0
0.6 0.425 0
0.7 0.425 0
0.8 0.425 0
0.9 0.425 0
1 0.425 0
0 0.45 0
0.1 0.45 0
0.2 0.45 0
0.3 0.45 0
0.4 0.45 0
0.5 0.45 0
0.6 0.45 0
0.7 0.45 0
0.8 0.45 0
0.9 0.45 0
1 0.45 0
0 0.475 0
0.1 0.475 0
0.2 0.475 0
0.3 0.475 0
0.4 0.475 0
0.5 0.475 0
0.6 0.475 0
0.7 0.475 0
0.8 0.475 0
0.9 0.475 0
1 0.475 0
0 0.5 0
0.1 0.5 0
0.2 0.5 0
0.3 0.5 0
0.4 0.5 0
0.5 0.5 0
0.6 0.5 0
0.7 0.5 0
0.8 0.5 0
0.9 0.5 0
1 0.5 0
CELLS 400 1600
3 0 1 12
3 0 12 11
3 1 2 13
3 1 13 12
3 2 3 14
3 2 14 13
3 3 4 15
3 3 15 14
3 4 5 16
3 4 16 15
3 5 6 17
3 5 17 16
3 6 7 18
3 6 18 17
3 7 8 19
3 7 19 18
3 8 9 20
3 8 20 19
3 9 10 21
3 9 21 20
3 11 12 23
3 11 23 22
3 12 13 24
3 12 24 23
3 13 14 25
3 13 25 24
3 14 15 26
3 14 26 25
3 15 16 27
3 15 27 26
3 16 17 28
3 16 28 27
3 17 18 29
3 17 29 28
3 18 19 30
3 18 30 29
3 19 20 31
3 19 31 30
3 20 21 32
3 20 32 31
3 22 23 34
3 22 34 33
3 23 24 35
3 23 35 34
3 24 25 36
3 24 36 35
3 25 26 37
3 25 37 36
3 26 27 38
3 26 38 37
3 27 28 39
3 27 39 38
3 28 29 40
3 28 40 39
3 29 30 41
3 29 41 40
3 30 31 42
3 30 42 41
3 31 32 43
3 31 43 42
3 33 34 45
3 33 45 44
3 34 35 46
3 34 46 45
3 35 36 47
3 35 47 46
3 36 37 48
3 36 48 47
3 37 38 49
3 37 49 48
3 38 39 50
3 38 50 49
3 39 40 51
3 39 51 50
3 40 41 52
3 40 52 51
3 41 42 53
3 41 53 52
3 42 43 54
3 42 54 53
3 44 45 56
3 44 56 55
3 45 46 57
3 45 57 56
3 46 47 58
3 46 58 57
3 47 48 59
3 47 59 58
3 48 49 60
3 48 60 59
3 49 50 61
3 49 61 60
3 50 51 62
3 50 62 61
3 51 52 63
3 51 63 62
3 52 53 64
3 52 64 63
3 53 54 65
3 53 65 64
3 55 56 67
3 55 67 66
3 56 57 68
3 56 68 67
3 57 58 69
3 57 69 68
3 58 59 70
3 58 70 69
3 59 60 71
3 59 71 70
3 60 61 72
3 60 72 71
3 61 62 73
3 61 73 72
3 62 63 74
3 62 74 73
3 63 64 75
3 63 75 74
3 64 65 76
3 64 76 75
3 66 67 78
3 66 78 77
3 67 68 79
3 67 79 78
3 68 69 80
3 68 80 79
3 69 70 81
3 69 81 80
3 70 71 82
3 70 82 81
3 71 72 83
3 71 83 82
3 72 73 84
3 72 84 83
3 73 74 85
3 73 85 84
3 74 75 86
3 74 86 85
3 75 76 87
3 75 87 86
3 77 78 89
3 77 89 88
3 78 79 90
3 78 90 89
3 79 80 91
3 79 91 90
3 80 81 92
3 80 92 91
3 81 82 93
3 81 93 92
3 82 83 94
3 82 94 93
3 83 84 95
3 83 95 94
3 84 85 96
3 84 96 95
3 85 86 97
3 85 97 96
3 86 87 98
3 86 98 97
3 88 89 100
3 88 100 99
3 89 90 101
3 89 101 100
3 90 91 102
3 90 102 101
3 91 92 103
3 91 103 102
3 92 93 104
3 92 104 103
3 93 94 105
3 93 105 104
3 94 95 106
3 94 106 105
3 95 96 107
3 95 107 106
3 96 97 108
3 96 108 107
3 97 98 109
3 97 109 108
3 99 100 111
3 99 111 110
3 100 101 112
3 100 112 111
3 101 102 113
3 101 113 112
3 102 103 114
3 102 114 113
3 103 104 115
3 103 115 114
3 104 105 116
3 104 116 115
3 105 106 117
3 105 117 116
3 106 107 118
3 106 118 117
3 107 108 119
3 107 119 118
3 108 109 120
3 108 120 119
3 110 111 122
3 110 122 121
3 111 112 123
3 111 123 122
3 112 113 124
3 112 124 123
3 113 114 125
3 113 125 124
3 114 115 126
3 114 126 125
3 115 116 127
3 115 127 126
3 116 117 128
3 116 128 127
3 117 118 129
3 117 129 128
3 118 119 130
3 118 130 129
3 119 120 131
3 119 131 130
3 121 122 133
3 121 133 132
3 122 123 134
3 122 134 133
3 123 124 135
3 123 135 134
3 124 125 136
3 124 136 135
3 125 126 137
3 125 137 136
3 126 127 138
3 126 138 137
3 127 128 139
3 127 139 138
3 128 129 140
3 128 140 139
3 129 130 141
3 129 141 140
3 130 131 142
3 130 142 141
3 132 133 144
3 132 144 143
3 133 134 145
3 133 145 144
3 134 135 146
3 134 146 145
3 135 136 147
3 135 147 146
3 136 137 148
3 136 148 147
3 137 138 149
3 137 149 148
3 138 139 150
3 138 150 149
3 139 140 151
3 139 151 150
3 140 141 152
3 140 152 151
3 141 142 153
3 141 153 152
3 143 144 155
3 143 155 154
3 144 145 156
3 144 156 155
3 145 146 157
3 145 157 156
3 146 147 158
3 146 158 157
3 147 148 159
3 147 159 158
3 148 149 160
3 148 160 159
3 149 150 161
3 149 161 160
3 150 151 162
3 150 162 161
3 151 152 163
3 151 163 162
3 152 153 164
3 152 164 163
3 154 155 166
3 154 166 165
3 155 156 167
3 155 167 166
3 156 157 168
3 156 168 167
3 157 158 169
3 157 169 168
3 158 159 170
3 158 170 169
3 159 160 171
3 159 171 170
3 160 161 172
3 160 172 171
3 161 162 173
3 161 173 172
3 162 163 174
3 162 174 173
3 163 164 175
3 163 175 174
3 165 166 177
3 165 177 176
3 166 167 178
3 166 178 177
3 167 168 179
3 167 179 178
3 168 169 180
3 168 180 179
3 169 170 181
3 169 181 180
3 170 171 182
3 170 182 181
3 171 172 183
3 171 183 182
3 172 173 184
3 172 184 183
3 173 174 185
3 173 185 184
3 174 175 186
3 174 186 185
3 176 177 188
3 176 188 187
3 177 178 189
3 177 189 188
3 178 179 190
3 178 190 189
3 179 180 191
3 179 191 190
3 180 181 192
3 180 192 191
3 181 182 193
3 181 193 192
3 182 183 194
3 182 194 193
3 183 184 195
3 183 195 194
3 184 185 196
3 184 196 195
3 185 186 197
3 185 197 196
3 187 188 199
3 187 199 198
3 188 189 200
3 188 200 199
3 189 190 201
3 189 201 200
3 190 191 202
3 190 202 201
3 191 192 203
3 191 203 202
3 192 193 204
3 192 204 203
3 193 194 205
3 193 205 204
3 194 195 206
3 194 206 205
3 195 196 207
3 195 207 206
3 196 197 208
3 196 208 207
3 198 199 210
3 198 210 209
3 199 200 211
3 199 211 210
3 200 201 212
3 200 212 211
3 201 202 213
3 201 213 212
3 202 203 214
3 202 214 213
3 203 204 215
3 203 215 214
3 204 205 216
3 204 216 215
3 205 206 217
3 205 217 216
3 206 207 218
3 206 218 217
3 207 208 219
3 207 219 218
3 209 210 221
3 209 221 220
3 210 211 222
3 210 222 221
3 211 212 223
3 211 223 222
3 212 213 224
3 212 224 223
3 213 214 225
3 213 225 224
3 214 215 226
3 214 226 225
3 215 216 227
3 215 227 226
3 216 217 228
3 216 228 227
3 217 218 229
3 217 229 228
3 218 219 230
3 218 230 229
CELL_TYPES 400
5
5
5
5
5
5
5
5
5
5
5
5
5
5
5
5
5
5
5
5
5
5
5
5
5
5
5
5
5
5
5
5
5
5
5
5
5
5
5
5
5
5
5
5
5
5
5
5
5
5
5
5
5
5
5
5
5
5
5
5
5
5
5
5
5
5
5
5
5
5
5
5
5
5
5
5
5
5
5
5
5
5
5
5
5
5
5
5
5
5
5
5
5
5
5
5
5
5
5
5
5
5
5
5
5
5
5
5
5
5
5
5
5
5
5
5
5
5
5
5
5
5
5
5
5
5
5
5
5
5
5
5
5
5
5
5
5
5
5
5
5
5
5
5
5
5
5
5
5
5
5
5
5
5
5
5
5
5
5
5
5
5
5
5
5
5
5
5
5
5
5
5
5
5
5
5
5
5
5
5
5
5
5
5
5
5
5
5
5
5
5
5
5
5
5
5
5
5
5
5
5
5
5
5
5
5
5
5
5
5
5
5
5
5
5
5
5
5
5
5
5
5
5
5
5
5
5
5
5
5
5
5
5
5
5
5
5
5
5
5
5
5
5
5
5
5
5
5
5
5
5
5
5
5
5
5
5
5
5
5
5
5
5
5
5
5
5
5
5
5
5
5
5
5
5
5
5
5
5
5
5
5
5
5
5
5
5
5
5
5
5
5
5
5
5
5
5
5
5
5
5
5
5
5
5
5
5
5
5
5
5
5
5
5
5
5
5
5
5
5
5
5
5
5
5
5
5
5
5
5
5
5
5
5
5
5
5
5
5
5
5
5
5
5
5
5
5
5
5
5
5
5
5
5
5
5
5
5
5
5
5
5
5
5
5
5
5
5
5
5
5
5
5
5
5
5
5
5
5
5
5
5
5
5
5
5
5
5
5
5
5
5
5
5
5
5
5
5
5
5
POINT_DATA 231
SCALARS psi double 1
LOOKUP_TABLE default
0
0
0
0
0
0
0
0
0
0
0
0
0.208863
0.12916
-0.129647
-0.209671
-0.00120279
0.207199
0.127949
-0.127995
-0.206972
0
0
0.348595
0.21514
-0.215939
-0.349211
-0.00187266
0.345346
0.213214
-0.21354
-0.343861
0
0
0.476334
0.293555
-0.294829
-0.476576
-0.00219849
0.471828
0.291116
-0.29215
-0.469663
0
0
0.598243
0.36854
-0.370113
-0.598218
-0.00237209
0.592951
0.365738
-0.367506
-0.590844
0
0
0.711798
0.438633
-0.440206
-0.711636
-0.00240491
0.706241
0.435601
-0.437932
-0.704722
0
0
0.81205
0.500757
-0.501965
-0.811798
-0.00230876
0.806687
0.497656
-0.50024
-0.805999
0
0
0.893379
0.551372
-0.551976
-0.89306
-0.0020099
0.888698
0.548392
-0.550974
-0.888722
0
0
0.952633
0.588373
-0.588297
-0.952153
-0.00147339
0.948983
0.585718
-0.58812
-0.94946
0
0
0.988484
0.610948
-0.610158
-0.98784
-0.000778971
0.986173
0.60881
-0.610827
-0.986879
0
0
1
0.618501
-0.61704
-0.999257
-5.1918e-12
0.999257
0.61704
-0.618501
-1
0
0
0.986879
0.610827
-0.60881
-0.986173
0.000778971
0.98784
0.610158
-0.610948
-0.988484
0
0
0.94946
0.58812
-0.585718
-0.948983
0.00147339
0.952153
0.588297
-0.588373
-0.952633
0
0
0.888722
0.550974
-0.548392
-0.888698
0.0020099
0.89306
0.551976
-0.551372
-0.893379
0
0
0.805999
0.50024
-0.497656
-0.806687
0.00230876
0.811798
0.501965
-0.500757
-0.81205
0
0
0.704722
0.437932
-0.435601
-0.706241
0.00240491
0.711636
0.440206
-0.438633
-0.711798
0
0
0.590844
0.367506
-0.365738
-0.592951
0.00237209
0.598218
0.370113
-0.36854
-0.598243
0
0
0.469663
0.29215
-0.291116
-0.471828
0.00219849
0.476576
0.294829
-0.293555
-0.476334
0
0
0.343861
0.21354
-0.213214
-0.345346
0.00187266
0.349211
0.215939
-0.21514
-0.348595
0
0
0.206972
0.127995
-0.127949
-0.207199
0.00120279
0.209671
0.129647
-0.12916
-0.208863
0
0
0
0
0
0
0
0
0
0
0
0
VECTORS Et double
-0.244028 -0.0349728 0
-0.0758804 -0.613951 0
0.207682 -0.378885 0
0.207568 0.380487 0
-0.0788048 0.615368 0
-0.255544 0.00345758 0
-0.0790826 -0.608348 0
0.205742 -0.375671 0
0.205116 0.376448 0
-0.0851526 0.607133 0
-0.241046 0.0345126 0
-0.318192 -0.0440731 0
-0.100985 -0.503922 0
0.265648 -0.310495 0
0.265435 0.311751 0
-0.100825 0.504146 0
-0.326864 0.00241842 0
-0.101117 -0.499161 0
0.26328 -0.308104 0
0.262427 0.309377 0
-0.101058 0.49766 0
-0.313367 0.0478594 0
-0.405803 -0.0521827 0
-0.127383 -0.456939 0
0.333689 -0.281326 0
0.33336 0.282355 0
-0.12669 0.456522 0
-0.410616 0.00163491 0
-0.126982 -0.452978 0
0.330902 -0.279418 0
0.329809 0.281157 0
-0.126088 0.451944 0
-0.400556 0.0558722 0
-0.504571 -0.0562876 0
-0.156848 -0.431269 0
0.410726 -0.265637 0
0.410283 0.266254 0
-0.155999 0.43058 0
-0.50551 0.00101106 0
-0.156277 -0.428279 0
0.407591 -0.264112 0
0.406277 0.266016 0
-0.155311 0.428029 0
-0.498911 0.0598597 0
-0.610821 -0.0551389 0
-0.189028 -0.404839 0
0.494807 -0.249619 0
0.494275 0.249632 0
-0.188022 0.40394 0
-0.609192 0.000418096 0
-0.188275 -0.402925 0
0.491461 -0.248514 0
0.489989 0.25027 0
-0.187418 0.403392 0
-0.604892 0.0586016 0
-0.719038 -0.0482867 0
-0.222404 -0.366186 0
0.581793 -0.226076 0
0.581228 0.225359 0
-0.221195 0.365001 0
-0.716595 -0.000223782 0
-0.221418 -0.365433 0
0.57845 -0.225496 0
0.576906 0.226826 0
-0.221038 0.366632 0
-0.71312 0.0515001 0
-0.816324 -0.0396516 0
-0.252135 -0.310586 0
0.660408 -0.192367 0
0.659895 0.190928 0
-0.251236 0.30961 0
-0.813878 -0.000935296 0
-0.251427 -0.311616 0
0.657364 -0.192432 0
0.655869 0.193127 0
-0.251522 0.313199 0
-0.810977 0.0417691 0
-0.895018 -0.0313306 0
-0.27627 -0.241212 0
0.723965 -0.150045 0
0.723593 0.148071 0
-0.275608 0.240451 0
-0.892785 -0.00166783 0
-0.275759 -0.243992 0
0.721496 -0.150814 0
0.720211 0.150788 0
-0.276032 0.245314 0
-0.890567 0.0322221 0
-0.953132 -0.0216391 0
-0.294382 -0.164495 0
0.770868 -0.102848 0
0.770715 0.10061 0
-0.293694 0.163695 0
-0.951299 -0.00228388 0
-0.293798 -0.168491 0
0.769224 -0.104299 0
0.768176 0.103537 0
-0.294236 0.169295 0
-0.949969 0.0223079 0
-0.988573 -0.0108294 0
-0.305525 -0.0823134 0
0.799445 -0.0521694 0
0.79954 0.0499359 0
-0.304841 0.081643 0
-0.987347 -0.0026888 0
-0.304888 -0.0872641 0
0.79873 -0.0542559 0
0.79812 0.0528007 0
-0.305463 0.0874312 0
-0.986961 0.0115509 0
-1 0.000368214 0
-0.309266 0.00260906 0
0.808613 0.000298875 0
0.809025 -0.00225906 0
-0.308614 -0.00294546 0
-0.9995 -0.00283037 0
-0.308617 -0.00294552 0
0.809027 -0.00225412 0
0.808651 0.000306756 0
-0.309245 0.00263539 0
-0.999933 0.000368189 0
-0.986982 0.0115511 0
-0.305454 0.0874259 0
0.798057 0.0527914 0
0.798773 -0.0542433 0
-0.304902 -0.0872589 0
-0.987325 -0.00268875 0
-0.304839 0.0816551 0
0.799541 0.0499326 0
0.799483 -0.0521658 0
-0.305569 -0.0823233 0
-0.98881 -0.010832 0
-0.950033 0.0223094 0
-0.294236 0.169258 0
0.768205 0.10353 0
0.769224 -0.104308 0
-0.293806 -0.168492 0
-0.951267 -0.00228385 0
-0.293697 0.163714 0
0.770714 0.10062 0
0.770861 -0.102826 0
-0.294356 -0.164456 0
-0.952863 -0.021633 0
-0.8906 0.0322233 0
-0.276038 0.245309 0
0.720208 0.150779 0
0.721497 -0.150816 0
-0.275748 -0.243988 0
-0.892797 -0.00166787 0
-0.275614 0.240455 0
0.723602 0.148076 0
0.723829 -0.149996 0
-0.276316 -0.241229 0
-0.89482 -0.0313237 0
-0.81092 0.0417662 0
-0.251521 0.313225 0
0.655882 0.193127 0
0.657356 -0.192429 0
-0.25144 -0.311624 0
-0.813896 -0.000935283 0
-0.251245 0.30963 0
0.659936 0.190951 0
0.660414 -0.192362 0
-0.252125 -0.310586 0
-0.816329 -0.0396519 0
-0.71313 0.0515009 0
-0.221041 0.366639 0
0.576904 0.226827 0
0.578446 -0.225491 0
-0.221421 -0.365425 0
-0.716609 -0.000223804 0
-0.221201 0.364991 0
0.58124 0.225379 0
0.581783 -0.226086 0
-0.222385 -0.366153 0
-0.718506 -0.0482509 0
-0.604891 0.0586015 0
-0.187416 0.403385 0
0.489988 0.250271 0
0.491469 -0.248517 0
-0.188296 -0.402965 0
-0.609182 0.000418095 0
-0.188018 0.403954 0
0.49429 0.249631 0
0.494817 -0.24964 0
-0.189021 -0.404883 0
-0.610948 -0.0551503 0
-0.49891 0.0598596 0
-0.155309 0.42803 0
0.406269 0.26601 0
0.407588 -0.264112 0
-0.156277 -0.428261 0
-0.505492 0.00101101 0
-0.156007 0.430602 0
0.410292 0.266259 0
0.410692 -0.265584 0
-0.156864 -0.431324 0
-0.504902 -0.0563245 0
-0.400556 0.0558721 0
-0.126088 0.451949 0
0.329812 0.281159 0
0.330902 -0.27942 0
-0.126994 -0.45301 0
-0.410604 0.00163488 0
-0.126667 0.456463 0
0.333463 0.282441 0
0.33381 -0.281443 0
-0.127435 -0.457102 0
-0.405458 -0.0521383 0
-0.313365 0.0478591 0
-0.10106 0.497665 0
0.262422 0.309374 0
0.263292 -0.308121 0
-0.101119 -0.499161 0
-0.326838 0.0024182 0
-0.10085 0.504263 0
0.265406 0.311721 0
0.265833 -0.31071 0
-0.100897 -0.503477 0
-0.317635 -0.0439958 0
-0.241046 0.0345126 0
-0.0851518 0.607128 0
0.20511 0.376436 0
0.205741 -0.375669 0
-0.0790765 -0.608301 0
-0.25556 0.0034578 0
-0.0787877 0.615234 0
0.207523 0.380404 0
0.207637 -0.378803 0
-0.0759107 -0.614196 0
-0.243146 -0.0348464 0
