# vtk DataFile Version 3.0
tp3485 scalar+vector
ASCII
DATASET UNSTRUCTURED_GRID
POINTS 231 double
0 0 0
0.1 0 0
0.2 0 0
0.3 0 0
0.4 0 0
0.5 0 0
0.6 0 0
0.7 0 0
0.8 0 0
0.9 0 0
1 0 0
0 0.025 0
0.1 0.025 0
0.2 0.025 0
0.3 0.025 0
0.4 0.025 0
0.5 0.025 0
0.6 0.025 0
0.7 0.025 0
0.8 0.025 0
0.9 0.025 0
1 0.025 0
0 0.05 0
0.1 0.05 0
0.2 0.05 0
0.3 0.05 0
0.4 0.05 0
0.5 0.05 0
0.6 0.05 0
0.7 0.05 0
0.8 0.05 0
0.9 0.05 0
1 0.05 0
0 0.075 0
0.1 0.075 0
0.2 0.075 0
0.3 0.075 0
0.4 0.075 0
0.5 0.075 0
0.6 0.075 0
0.7 0.075 0
0.8 0.075 0
0.9 0.075 0
1 0.075 0
0 0.1 0
0.1 0.1 0
0.2 0.1 0
0.3 0.1 0
0.4 0.1 0
0.5 0.1 0
0.6 0.1 0
0.7 0.1 0
0.8 0.1 0
0.9 0.1 0
1 0.1 0
0 0.125 0
0.1 0.125 0
0.2 0.125 0
0.3 0.125 0
0.4 0.125 0
0.5 0.125 0
0.6 0.125 0
0.7 0.125 0
0.8 0.125 0
0.9 0.125 0
1 0.125 0
0 0.15 0
0.1 0.15 0
0.2 0.15 0
0.3 0.15 0
0.4 0.15 0
0.5 0.15 0
0.6 0.15 0
0.7 0.15 0
0.8 0.15 0
0.9 0.15 0
1 0.15 0
0 0.175 0
0.1 0.175 0
0.2 0.175 0
0.3 0.175 0
0.4 0.175 0
0.5 0.175 0
0.6 0.175 0
0.7 0.175 0
0.8 0.175 0
0.9 0.175 0
1 0.175 0
0 0.2 0
0.1 0.2 0
0.2 0.2 0
0.3 0.2 0
0.4 0.2 0
0.5 0.2 0
0.6 0.2 0
0.7 0.2 0
0.8 0.2 0
0.9 0.2 0
1 0.2 0
0 0.225 0
0.1 0.225 0
0.2 0.225 0
0.3 0.225 0
0.4 0.225 0
0.5 0.225 0
0.6 0.225 0
0.7 0.225 0
0.8 0.225 0
0.9 0.225 0
1 0.225 0
0 0.25 0
0.1 0.25 0
0.2 0.25 0
0.3 0.25 0
0.4 0.25 0
0.5 0.25 0
0.6 0.25 0
0.7 0.25 0
0.8 0.25 0
0.9 0.25 0
1 0.25 0
0 0.275 0
0.1 0.275 0
0.2 0.275 0
0.3 0.275 0
0.4 0.275 0
0.5 0.275 0
0.6 0.275 0
0.7 0.275 0
0.8 0.275 0
0.9 0.275 0
1 0.275 0
0 0.3 0
0.1 0.3 0
0.2 0.3 0
0.3 0.3 0
0.4 0.3 0
0.5 0.3 0
0.6 0.3 0
0.7 0.3 0
0.8 0.3 0
0.9 0.3 0
1 0.3 0
0 0.325 0
0.1 0.325 0
0.2 0.325 0
0.3 0.325 0
0.4 0.325 0
0.5 0.325 0
0.6 0.325 0
0.7 0.325 0
0.8 0.325 0
0.9 0.325 0
1 0.325 0
0 0.35 0
0.1 0.35 0
0.2 0.35 0
0.3 0.35 0
0.4 0.35 0
0.5 0.35 0
0.6 0.35 0
0.7 0.35 0
0.8 0.35 0
0.9 0.35 0
1 0.35 0
0 0.375 0
0.1 0.375 0
0.2 0.375 0
0.3 0.375 0
0.4 0.375 0
0.5 0.375 0
0.6 0.375 0
0.7 0.375 0
0.8 0.375 0
0.9 0.375 0
1 0.375 0
0 0.4 0
0.1 0.4 0
0.2 0.4 0
0.3 0.4 0
0.4 0.4 0
0.5 0.4 0
0.6 0.4 0
0.7 0.4 0
0.8 0.4 0
0.9 0.4 0
1 0.4 0
0 0.425 0
0.1 0.425 0
0.2 0.425 0
0.3 0.425 0
0.4 0.425 0
0.5 0.425 0
0.6 0.425 0
0.7 0.425 0
0.8 0.425 0
0.9 0.425 0
1 0.425 0
0 0.45 0
0.1 0.45 0
0.2 0.45 0
0.3 0.45 0
0.4 0.45 0
0.5 0.45 0
0.6 0.45 0
0.7 0.45 0
0.8 0.45 0
0.9 0.45 0
1 0.45 0
0 0.475 0
0.1 0.475 0
0.2 0.475 0
0.3 0.475 0
0.4 0.475 0
0.5 0.475 0
0.6 0.475 0
0.7 0.475 0
0.8 0.475 0
0.9 0.475 0
1 0.475 0
0 0.5 0
0.1 0.5 0
0.2 0.5 0
0.3 0.5 0
0.4 0.5 0
0.5 0.5 0
0.6 0.5 0
0.7 0.5 0
0.8 0.5 0
0.9 0.5 0
1 0.5 0
CELLS 400 1600
3 0 1 12
3 0 12 11
3 1 2 13
3 1 13 12
3 2 3 14
3 2 14 13
3 3 4 15
3 3 15 14
3 4 5 16
3 4 16 15
3 5 6 17
3 5 17 16
3 6 7 18
3 6 18 17
3 7 8 19
3 7 19 18
3 8 9 20
3 8 20 19
3 9 10 21
3 9 21 20
3 11 12 23
3 11 23 22
3 12 13 24
3 12 24 23
3 13 14 25
3 13 25 24
3 14 15 26
3 14 26 25
3 15 16 27
3 15 27 26
3 16 17 28
3 16 28 27
3 17 18 29
3 17 29 28
3 18 19 30
3 18 30 29
3 19 20 31
3 19 31 30
3 20 21 32
3 20 32 31
3 22 23 34
3 22 34 33
3 23 24 35
3 23 35 34
3 24 25 36
3 24 36 35
3 25 26 37
3 25 37 36
3 26 27 38
3 26 38 37
3 27 28 39
3 27 39 38
3 28 29 40
3 28 40 39
3 29 30 41
3 29 41 40
3 30 31 42
3 30 42 41
3 31 32 43
3 31 43 42
3 33 34 45
3 33 45 44
3 34 35 46
3 34 46 45
3 35 36 47
3 35 47 46
3 36 37 48
3 36 48 47
3 37 38 49
3 37 49 48
3 38 39 50
3 38 50 49
3 39 40 51
3 39 51 50
3 40 41 52
3 40 52 51
3 41 42 53
3 41 53 52
3 42 43 54
3 42 54 53
3 44 45 56
3 44 56 55
3 45 46 57
3 45 57 56
3 46 47 58
3 46 58 57
3 47 48 59
3 47 59 58
3 48 49 60
3 48 60 59
3 49 50 61
3 49 61 60
3 50 51 62
3 50 62 61
3 51 52 63
3 51 63 62
3 52 53 64
3 52 64 63
3 53 54 65
3 53 65 64
3 55 56 67
3 55 67 66
3 56 57 68
3 56 68 67
3 57 58 69
3 57 69 68
3 58 59 70
3 58 70 69
3 59 60 71
3 59 71 70
3 60 61 72
3 60 72 71
3 61 62 73
3 61 73 72
3 62 63 74
3 62 74 73
3 63 64 75
3 63 75 74
3 64 65 76
3 64 76 75
3 66 67 78
3 66 78 77
3 67 68 79
3 67 79 78
3 68 69 80
3 68 80 79
3 69 70 81
3 69 81 80
3 70 71 82
3 70 82 81
3 71 72 83
3 71 83 82
3 72 73 84
3 72 84 83
3 73 74 85
3 73 85 84
3 74 75 86
3 74 86 85
3 75 76 87
3 75 87 86
3 77 78 89
3 77 89 88
3 78 79 90
3 78 90 89
3 79 80 91
3 79 91 90
3 80 81 92
3 80 92 91
3 81 82 93
3 81 93 92
3 82 83 94
3 82 94 93
3 83 84 95
3 83 95 94
3 84 85 96
3 84 96 95
3 85 86 97
3 85 97 96
3 86 87 98
3 86 98 97
3 88 89 100
3 88 100 99
3 89 90 101
3 89 101 100
3 90 91 102
3 90 102 101
3 91 92 103
3 91 103 102
3 92 93 104
3 92 104 103
3 93 94 105
3 93 105 104
3 94 95 106
3 94 106 105
3 95 96 107
3 95 107 106
3 96 97 108
3 96 108 107
3 97 98 109
3 97 109 108
3 99 100 111
3 99 111 110
3 100 101 112
3 100 112 111
3 101 102 113
3 101 113 112
3 102 103 114
3 102 114 113
3 103 104 115
3 103 115 114
3 104 105 116
3 104 116 115
3 105 106 117
3 105 117 116
3 106 107 118
3 106 118 117
3 107 108 119
3 107 119 118
3 108 109 120
3 108 120 119
3 110 111 122
3 110 122 121
3 111 112 123
3 111 123 122
3 112 113 124
3 112 124 123
3 113 114 125
3 113 125 124
3 114 115 126
3 114 126 125
3 115 116 127
3 115 127 126
3 116 117 128
3 116 128 127
3 117 118 129
3 117 129 128
3 118 119 130
3 118 130 129
3 119 120 131
3 119 131 130
3 121 122 133
3 121 133 132
3 122 123 134
3 122 134 133
3 123 124 135
3 123 135 134
3 124 125 136
3 124 136 135
3 125 126 137
3 125 137 136
3 126 127 138
3 126 138 137
3 127 128 139
3 127 139 138
3 128 129 140
3 128 140 139
3 129 130 141
3 129 141 140
3 130 131 142
3 130 142 141
3 132 133 144
3 132 144 143
3 133 134 145
3 133 145 144
3 134 135 146
3 134 146 145
3 135 136 147
3 135 147 146
3 136 137 148
3 136 148 147
3 137 138 149
3 137 149 148
3 138 139 150
3 138 150 149
3 139 140 151
3 139 151 150
3 140 141 152
3 140 152 151
3 141 142 153
3 141 153 152
3 143 144 155
3 143 155 154
3 144 145 156
3 144 156 155
3 145 146 157
3 145 157 156
3 146 147 158
3 146 158 157
3 147 148 159
3 147 159 158
3 148 149 160
3 148 160 159
3 149 150 161
3 149 161 160
3 150 151 162
3 150 162 161
3 151 152 163
3 151 163 162
3 152 153 164
3 152 164 163
3 154 155 166
3 154 166 165
3 155 156 167
3 155 167 166
3 156 157 168
3 156 168 167
3 157 158 169
3 157 169 168
3 158 159 170
3 158 170 169
3 159 160 171
3 159 171 170
3 160 161 172
3 160 172 171
3 161 162 173
3 161 173 172
3 162 163 174
3 162 174 173
3 163 164 175
3 163 175 174
3 165 166 177
3 165 177 176
3 166 167 178
3 166 178 177
3 167 168 179
3 167 179 178
3 168 169 180
3 168 180 179
3 169 170 181
3 169 181 180
3 170 171 182
3 170 182 181
3 171 172 183
3 171 183 182
3 172 173 184
3 172 184 183
3 173 174 185
3 173 185 184
3 174 175 186
3 174 186 185
3 176 177 188
3 176 188 187
3 177 178 189
3 177 189 188
3 178 179 190
3 178 190 189
3 179 180 191
3 179 191 190
3 180 181 192
3 180 192 191
3 181 182 193
3 181 193 192
3 182 183 194
3 182 194 193
3 183 184 195
3 183 195 194
3 184 185 196
3 184 196 195
3 185 186 197
3 185 197 196
3 187 188 199
3 187 199 198
3 188 189 200
3 188 200 199
3 189 190 201
3 189 201 200
3 190 191 202
3 190 202 201
3 191 192 203
3 191 203 202
3 192 193 204
3 192 204 203
3 193 194 205
3 193 205 204
3 194 195 206
3 194 206 205
3 195 196 207
3 195 207 206
3 196 197 208
3 196 208 207
3 198 199 210
3 198 210 209
3 199 200 211
3 199 211 210
3 200 201 212
3 200 212 211
3 201 202 213
3 201 213 212
3 202 203 214
3 202 214 213
3 203 204 215
3 203 215 214
3 204 205 216
3 204 216 215
3 205 206 217
3 205 217 216
3 206 207 218
3 206 218 217
3 207 208 219
3 207 219 218
3 209 210 221
3 209 221 220
3 210 211 222
3 210 222 221
3 211 212 223
3 211 223 222
3 212 213 224
3 212 224 223
3 213 214 225
3 213 225 224
3 214 215 226
3 214 226 225
3 215 216 227
3 215 227 226
3 216 217 228
3 216 228 227
3 217 218 229
3 217 229 228
3 218 219 230
3 218 230 229
CELL_TYPES 400
5
5
5
5
5
5
5
5
5
5
5
5
5
5
5
5
5
5
5
5
5
5
5
5
5
5
5
5
5
5
5
5
5
5
5
5
5
5
5
5
5
5
5
5
5
5
5
5
5
5
5
5
5
5
5
5
5
5
5
5
5
5
5
5
5
5
5
5
5
5
5
5
5
5
5
5
5
5
5
5
5
5
5
5
5
5
5
5
5
5
5
5
5
5
5
5
5
5
5
5
5
5
5
5
5
5
5
5
5
5
5
5
5
5
5
5
5
5
5
5
5
5
5
5
5
5
5
5
5
5
5
5
5
5
5
5
5
5
5
5
5
5
5
5
5
5
5
5
5
5
5
5
5
5
5
5
5
5
5
5
5
5
5
5
5
5
5
5
5
5
5
5
5
5
5
5
5
5
5
5
5
5
5
5
5
5
5
5
5
5
5
5
5
5
5
5
5
5
5
5
5
5
5
5
5
5
5
5
5
5
5
5
5
5
5
5
5
5
5
5
5
5
5
5
5
5
5
5
5
5
5
5
5
5
5
5
5
5
5
5
5
5
5
5
5
5
5
5
5
5
5
5
5
5
5
5
5
5
5
5
5
5
5
5
5
5
5
5
5
5
5
5
5
5
5
5
5
5
5
5
5
5
5
5
5
5
5
5
5
5
5
5
5
5
5
5
5
5
5
5
5
5
5
5
5
5
5
5
5
5
5
5
5
5
5
5
5
5
5
5
5
5
5
5
5
5
5
5
5
5
5
5
5
5
5
5
5
5
5
5
5
5
5
5
5
5
5
5
5
5
5
5
5
5
5
5
5
5
5
5
5
5
5
5
5
5
5
5
5
5
5
5
5
5
5
5
5
5
5
5
5
5
5
5
5
5
5
5
5
5
5
5
5
5
5
5
5
5
5
5
POINT_DATA 231
SCALARS psi double 1
LOOKUP_TABLE default
0
0
0
0
0
0
0
0
0
0
0
0
0.139072
0.264754
0.363605
0.427352
0.449673
0.427902
0.363699
0.263128
0.137924
0
0
0.216572
0.411561
0.565237
0.664363
0.699102
0.665292
0.565492
0.409199
0.213738
0
0
0.270269
0.513147
0.704832
0.828497
0.871906
0.829821
0.705385
0.510581
0.266452
0
0
0.302163
0.573495
0.787834
0.926154
0.974844
0.927946
0.788874
0.571186
0.298151
0
0
0.309871
0.588023
0.80787
0.949821
1
0.952125
0.809529
0.58626
0.306186
0
0
0.291316
0.552726
0.759381
0.892954
0.940484
0.895795
0.761761
0.551709
0.288329
0
0
0.246133
0.466865
0.641285
0.754247
0.794883
0.757578
0.644366
0.466613
0.243926
0
0
0.178025
0.337348
0.463043
0.544784
0.574819
0.548492
0.466678
0.33771
0.176425
0
0
0.0935408
0.17661
0.241763
0.284668
0.301419
0.288616
0.245758
0.177377
0.0923413
0
0
0.000530013
-0.000454804
-0.00206033
-0.00201494
-1.63724e-12
0.00201494
0.00206033
0.000454804
-0.000530013
0
0
-0.0923413
-0.177377
-0.245758
-0.288616
-0.301419
-0.284668
-0.241763
-0.17661
-0.0935408
0
0
-0.176425
-0.33771
-0.466678
-0.548492
-0.574819
-0.544784
-0.463043
-0.337348
-0.178025
0
0
-0.243926
-0.466613
-0.644366
-0.757578
-0.794883
-0.754247
-0.641285
-0.466865
-0.246133
0
0
-0.288329
-0.551709
-0.761761
-0.895795
-0.940484
-0.892954
-0.759381
-0.552726
-0.291316
0
0
-0.306186
-0.58626
-0.809529
-0.952125
-1
-0.949821
-0.80787
-0.588023
-0.309871
0
0
-0.298151
-0.571186
-0.788874
-0.927946
-0.974844
-0.926154
-0.787834
-0.573495
-0.302163
0
0
-0.266452
-0.510581
-0.705385
-0.829821
-0.871906
-0.828497
-0.704832
-0.513147
-0.270269
0
0
-0.213738
-0.409199
-0.565492
-0.665292
-0.699102
-0.664363
-0.565237
-0.411561
-0.216572
0
0
-0.137924
-0.263128
-0.363699
-0.427902
-0.449673
-0.427352
-0.363605
-0.264754
-0.139072
0
0
0
0
0
0
0
0
0
0
0
0
VECTORS Et double
-0.110926 -0.0139697 0
-0.105613 -0.30961 0
-0.0933117 -0.588412 0
-0.0676661 -0.808464 0
-0.0358425 -0.950266 0
-0.000271023 -0.999937 0
0.0357438 -0.951559 0
0.0685254 -0.808819 0
0.0941083 -0.585582 0
0.118612 -0.306418 0
0.1096 -0.0137736 0
-0.137449 -0.0155346 0
-0.13152 -0.221637 0
-0.113427 -0.421555 0
-0.0822799 -0.579317 0
-0.0435991 -0.681013 0
-0.00035698 -0.716734 0
0.0434424 -0.682176 0
0.0833062 -0.57992 0
0.114451 -0.420051 0
0.137855 -0.220377 0
0.135421 -0.0168361 0
-0.163992 -0.0152818 0
-0.156078 -0.15997 0
-0.13343 -0.304503 0
-0.0968233 -0.418536 0
-0.0513319 -0.492116 0
-0.000464961 -0.51811 0
0.0510893 -0.493305 0
0.09801 -0.419458 0
0.1347 -0.303972 0
0.159627 -0.15999 0
0.161811 -0.0163101 0
-0.186939 -0.012164 0
-0.177402 -0.104505 0
-0.150819 -0.198815 0
-0.109481 -0.273304 0
-0.0580866 -0.321482 0
-0.000597728 -0.33873 0
0.0577219 -0.32276 0
0.110806 -0.274562 0
0.152335 -0.199068 0
0.17865 -0.104897 0
0.184599 -0.0128807 0
-0.20227 -0.00619674 0
-0.192123 -0.0457902 0
-0.162629 -0.0864606 0
-0.118097 -0.118847 0
-0.0627266 -0.139978 0
-0.000753532 -0.147908 0
0.0622018 -0.141337 0
0.119527 -0.120401 0
0.164374 -0.0873646 0
0.191305 -0.0457236 0
0.199834 -0.00656435 0
-0.205837 0.00197546 0
-0.19603 0.0199163 0
-0.165343 0.0394866 0
-0.120114 0.0543626 0
-0.0639055 0.0636015 0
-0.000930662 0.0661507 0
0.063182 0.0622137 0
0.121605 0.0526106 0
0.167272 0.0380651 0
0.194395 0.0201312 0
0.203427 0.00203058 0
-0.19256 0.0102661 0
-0.183015 0.0910145 0
-0.154528 0.174076 0
-0.112304 0.23954 0
-0.0599097 0.281288 0
-0.00110499 0.295107 0
0.0589689 0.279974 0
0.113796 0.237752 0
0.156572 0.172359 0
0.182241 0.0901655 0
0.190359 0.0105666 0
-0.16195 0.0177851 0
-0.153484 0.158485 0
-0.12972 0.301542 0
-0.0943194 0.415009 0
-0.050547 0.487642 0
-0.00126232 0.512188 0
0.0494025 0.486521 0
0.0957692 0.413411 0
0.131819 0.299876 0
0.153292 0.157097 0
0.160034 0.0178052 0
-0.116971 0.0239237 0
-0.110677 0.21149 0
-0.0932825 0.402446 0
-0.0678705 0.554006 0
-0.03671 0.651173 0
-0.00138386 0.684301 0
0.0354 0.650357 0
0.0692732 0.552817 0
0.0953961 0.401143 0
0.110661 0.210371 0
0.115361 0.0237835 0
-0.0615493 0.0277656 0
-0.0579222 0.245452 0
-0.0483594 0.467224 0
-0.0352375 0.643312 0
-0.0195977 0.756343 0
-0.00146148 0.795101 0
0.0181761 0.755898 0
0.0365974 0.642645 0
0.0504776 0.466559 0
0.0580237 0.244835 0
0.0601677 0.0276872 0
-0.000649858 0.0290687 0
7.12603e-05 0.256958 0
0.00105558 0.489342 0
0.000673823 0.673946 0
-0.000730648 0.792492 0
-0.00149015 0.833348 0
-0.000730658 0.792509 0
0.000673829 0.673946 0
0.00105563 0.489366 0
7.12611e-05 0.256948 0
-0.000649815 0.0290668 0
0.060169 0.0276878 0
0.0580231 0.244835 0
0.050472 0.46652 0
0.0365996 0.642684 0
0.0181748 0.755916 0
-0.00146337 0.795087 0
-0.0196002 0.75636 0
-0.0352368 0.643316 0
-0.048364 0.467252 0
-0.0579284 0.245472 0
-0.061564 0.0277723 0
0.115369 0.0237851 0
0.110661 0.210376 0
0.0953963 0.401159 0
0.0692716 0.552814 0
0.0353975 0.650361 0
-0.0013819 0.68429 0
-0.0367159 0.651198 0
-0.067871 0.553998 0
-0.093284 0.402453 0
-0.110667 0.211472 0
-0.116938 0.023917 0
0.16004 0.0178059 0
0.153295 0.157103 0
0.131819 0.299881 0
0.095769 0.413411 0
0.0494019 0.486502 0
-0.00126366 0.5122 0
-0.050547 0.487649 0
-0.0943154 0.415016 0
-0.12969 0.301495 0
-0.153507 0.158509 0
-0.161914 0.0177812 0
0.190346 0.0105659 0
0.182242 0.0901612 0
0.156574 0.172365 0
0.113796 0.237749 0
0.0589637 0.279979 0
-0.00109743 0.295103 0
-0.0599129 0.281295 0
-0.112311 0.239541 0
-0.15453 0.174083 0
-0.183004 0.0910029 0
-0.192561 0.0102661 0
0.20343 0.00203061 0
0.194398 0.020131 0
0.16727 0.0380628 0
0.121604 0.0526148 0
0.0631808 0.0622255 0
-0.000922181 0.0661577 0
-0.0639034 0.0636179 0
-0.120123 0.0543378 0
-0.16535 0.0394749 0
-0.19601 0.019912 0
-0.205684 0.001974 0
0.199834 -0.00656434 0
0.191302 -0.045723 0
0.164367 -0.0873685 0
0.119532 -0.120401 0
0.0621965 -0.141362 0
-0.000756767 -0.147907 0
-0.0627406 -0.139983 0
-0.118107 -0.11884 0
-0.162632 -0.0864807 0
-0.192134 -0.0457944 0
-0.202312 -0.00619803 0
0.184598 -0.0128807 0
0.178649 -0.104898 0
0.15233 -0.199063 0
0.110807 -0.274563 0
0.057713 -0.322745 0
-0.000595643 -0.338712 0
-0.0580909 -0.321496 0
-0.109493 -0.273312 0
-0.150802 -0.198757 0
-0.177414 -0.104525 0
-0.187061 -0.012172 0
0.161811 -0.0163101 0
0.159628 -0.159992 0
0.1347 -0.303974 0
0.0980077 -0.419462 0
0.0510865 -0.493341 0
-0.000463826 -0.518099 0
-0.0513349 -0.492053 0
-0.0968634 -0.418666 0
-0.133488 -0.304635 0
-0.156139 -0.160027 0
-0.163852 -0.0152688 0
0.135421 -0.016836 0
0.137857 -0.220379 0
0.114452 -0.420047 0
0.0833038 -0.57995 0
0.0434384 -0.682177 0
-0.000345931 -0.71667 0
-0.0436044 -0.681173 0
-0.0822578 -0.57926 0
-0.113512 -0.421846 0
-0.13141 -0.221439 0
-0.137208 -0.0155074 0
0.1096 -0.0137736 0
0.118611 -0.306415 0
0.0941055 -0.585564 0
0.0685249 -0.808814 0
0.035741 -0.951486 0
-0.00027104 -1 0
-0.0358347 -0.95006 0
-0.0676515 -0.808288 0
-0.0932913 -0.588284 0
-0.105655 -0.309733 0
-0.110525 -0.0139192 0
