# vtk DataFile Version 3.0
tp3485 scalar+vector
ASCII
DATASET UNSTRUCTURED_GRID
POINTS 231 double
0 0 0
0.1 0 0
0.2 0 0
0.3 0 0
0.4 0 0
0.5 0 0
0.6 0 0
0.7 0 0
0.8 0 0
0.9 0 0
1 0 0
0 0.025 0
0.1 0.025 0
0.2 0.025 0
0.3 0.025 0
0.4 0.025 0
0.5 0.025 0
0.6 0.025 0
0.7 0.025 0
0.8 0.025 0
0.9 0.025 0
1 0.025 0
0 0.05 0
0.1 0.05 0
0.2 0.05 0
0.3 0.05 0
0.4 0.05 0
0.5 0.05 0
0.6 0.05 0
0.7 0.05 0
0.8 0.05 0
0.9 0.05 0
1 0.05 0
0 0.075 0
0.1 0.075 0
0.2 0.075 0
0.3 0.075 0
0.4 0.075 0
0.5 0.075 0
0.6 0.075 0
0.7 0.075 0
0.8 0.075 0
0.9 0.075 0
1 0.075 0
0 0.1 0
0.1 0.1 0
0.2 0.1 0
0.3 0.1 0
0.4 0.1 0
0.5 0.1 0
0.6 0.1 0
0.7 0.1 0
0.8 0.1 0
0.9 0.1 0
1 0.1 0
0 0.125 0
0.1 0.125 0
0.2 0.125 0
0.3 0.125 0
0.4 0.125 0
0.5 0.125 0
0.6 0.125 0
0.7 0.125 0
0.8 0.125 0
0.9 0.125 0
1 0.125 0
0 0.15 0
0.1 0.15 0
0.2 0.15 0
0.3 0.15 0
0.4 0.15 0
0.5 0.15 0
0.6 0.15 0
0.7 0.15 0
0.8 0.15 0
0.9 0.15 0
1 0.15 0
0 0.175 0
0.1 0.175 0
0.2 0.175 0
0.3 0.175 0
0.4 0.175 0
0.5 0.175 0
0.6 0.175 0
0.7 0.175 0
0.8 0.175 0
0.9 0.175 0
1 0.175 0
0 0.2 0
0.1 0.2 0
0.2 0.2 0
0.3 0.2 0
0.4 0.2 0
0.5 0.2 0
0.6 0.2 0
0.7 0.2 0
0.8 0.2 0
0.9 0.2 0
1 0.2 0
0 0.225 0
0.1 0.225 0
0.2 0.225 0
0.3 0.225 0
0.4 0.225 0
0.5 0.225 0
0.6 0.225 0
0.7 0.225 0
0.8 0.225 0
0.9 0.225 0
1 0.225 0
0 0.25 0
0.1 0.25 0
0.2 0.25 0
0.3 0.25 0
0.4 0.25 0
0.5 0.25 0
0.6 0.25 0
0.7 0.25 0
0.8 0.25 0
0.9 0.25 0
1 0.25 0
0 0.275 0
0.1 0.275 0
0.2 0.275 0
0.3 0.275 0
0.4 0.275 0
0.5 0.275 0
0.6 0.275 0
0.7 0.275 0
0.8 0.275 0
0.9 0.275 0
1 0.275 0
0 0.3 0
0.1 0.3 0
0.2 0.3 0
0.3 0.3 0
0.4 0.3 0
0.5 0.3 0
0.6 0.3 0
0.7 0.3 0
0.8 0.3 0
0.9 0.3 0
1 0.3 0
0 0.325 0
0.1 0.325 0
0.2 0.325 0
0.3 0.325 0
0.4 0.325 0
0.5 0.325 0
0.6 0.325 0
0.7 0.325 0
0.8 0.325 0
0.9 0.325 0
1 0.325 0
0 0.35 0
0.1 0.35 0
0.2 0.35 0
0.3 0.35 0
0.4 0.35 0
0.5 0.35 0
0.6 0.35 0
0.7 0.35 0
0.8 0.35 0
0.9 0.35 0
1 0.35 0
0 0.375 0
0.1 0.375 0
0.2 0.375 0
0.3 0.375 0
0.4 0.375 0
0.5 0.375 0
0.6 0.375 0
0.7 0.375 0
0.8 0.375 0
0.9 0.375 0
1 0.375 0
0 0.4 0
0.1 0.4 0
0.2 0.4 0
0.3 0.4 0
0.4 0.4 0
0.5 0.4 0
0.6 0.4 0
0.7 0.4 0
0.8 0.4 0
0.9 0.4 0
1 0.4 0
0 0.425 0
0.1 0.425 0
0.2 0.425 0
0.3 0.425 0
0.4 0.425 0
0.5 0.425 0
0.6 0.425 0
0.7 0.425 0
0.8 0.425 0
0.9 0.425 0
1 0.425 0
0 0.45 0
0.1 0.45 0
0.2 0.45 0
0.3 0.45 0
0.4 0.45 0
0.5 0.45 0
0.6 0.45 0
0.7 0.45 0
0.8 0.45 0
0.9 0.45 0
1 0.45 0
0 0.475 0
0.1 0.475 0
0.2 0.475 0
0.3 0.475 0
0.4 0.475 0
0.5 0.475 0
0.6 0.475 0
0.7 0.475 0
0.8 0.475 0
0.9 0.475 0
1 0.475 0
0 0.5 0
0.1 0.5 0
0.2 0.5 0
0.3 0.5 0
0.4 0.5 0
0.5 0.5 0
0.6 0.5 0
0.7 0.5 0
0.8 0.5 0
0.9 0.5 0
1 0.5 0
CELLS 400 1600
3 0 1 12
3 0 12 11
3 1 2 13
3 1 13 12
3 2 3 14
3 2 14 13
3 3 4 15
3 3 15 14
3 4 5 16
3 4 16 15
3 5 6 17
3 5 17 16
3 6 7 18
3 6 18 17
3 7 8 19
3 7 19 18
3 8 9 20
3 8 20 19
3 9 10 21
3 9 21 20
3 11 12 23
3 11 23 22
3 12 13 24
3 12 24 23
3 13 14 25
3 13 25 24
3 14 15 26
3 14 26 25
3 15 16 27
3 15 27 26
3 16 17 28
3 16 28 27
3 17 18 29
3 17 29 28
3 18 19 30
3 18 30 29
3 19 20 31
3 19 31 30
3 20 21 32
3 20 32 31
3 22 23 34
3 22 34 33
3 23 24 35
3 23 35 34
3 24 25 36
3 24 36 35
3 25 26 37
3 25 37 36
3 26 27 38
3 26 38 37
3 27 28 39
3 27 39 38
3 28 29 40
3 28 40 39
3 29 30 41
3 29 41 40
3 30 31 42
3 30 42 41
3 31 32 43
3 31 43 42
3 33 34 45
3 33 45 44
3 34 35 46
3 34 46 45
3 35 36 47
3 35 47 46
3 36 37 48
3 36 48 47
3 37 38 49
3 37 49 48
3 38 39 50
3 38 50 49
3 39 40 51
3 39 51 50
3 40 41 52
3 40 52 51
3 41 42 53
3 41 53 52
3 42 43 54
3 42 54 53
3 44 45 56
3 44 56 55
3 45 46 57
3 45 57 56
3 46 47 58
3 46 58 57
3 47 48 59
3 47 59 58
3 48 49 60
3 48 60 59
3 49 50 61
3 49 61 60
3 50 51 62
3 50 62 61
3 51 52 63
3 51 63 62
3 52 53 64
3 52 64 63
3 53 54 65
3 53 65 64
3 55 56 67
3 55 67 66
3 56 57 68
3 56 68 67
3 57 58 69
3 57 69 68
3 58 59 70
3 58 70 69
3 59 60 71
3 59 71 70
3 60 61 72
3 60 72 71
3 61 62 73
3 61 73 72
3 62 63 74
3 62 74 73
3 63 64 75
3 63 75 74
3 64 65 76
3 64 76 75
3 66 67 78
3 66 78 77
3 67 68 79
3 67 79 78
3 68 69 80
3 68 80 79
3 69 70 81
3 69 81 80
3 70 71 82
3 70 82 81
3 71 72 83
3 71 83 82
3 72 73 84
3 72 84 83
3 73 74 85
3 73 85 84
3 74 75 86
3 74 86 85
3 75 76 87
3 75 87 86
3 77 78 89
3 77 89 88
3 78 79 90
3 78 90 89
3 79 80 91
3 79 91 90
3 80 81 92
3 80 92 91
3 81 82 93
3 81 93 92
3 82 83 94
3 82 94 93
3 83 84 95
3 83 95 94
3 84 85 96
3 84 96 95
3 85 86 97
3 85 97 96
3 86 87 98
3 86 98 97
3 88 89 100
3 88 100 99
3 89 90 101
3 89 101 100
3 90 91 102
3 90 102 101
3 91 92 103
3 91 103 102
3 92 93 104
3 92 104 103
3 93 94 105
3 93 105 104
3 94 95 106
3 94 106 105
3 95 96 107
3 95 107 106
3 96 97 108
3 96 108 107
3 97 98 109
3 97 109 108
3 99 100 111
3 99 111 110
3 100 101 112
3 100 112 111
3 101 102 113
3 101 113 112
3 102 103 114
3 102 114 113
3 103 104 115
3 103 115 114
3 104 105 116
3 104 116 115
3 105 106 117
3 105 117 116
3 106 107 118
3 106 118 117
3 107 108 119
3 107 119 118
3 108 109 120
3 108 120 119
3 110 111 122
3 110 122 121
3 111 112 123
3 111 123 122
3 112 113 124
3 112 124 123
3 113 114 125
3 113 125 124
3 114 115 126
3 114 126 125
3 115 116 127
3 115 127 126
3 116 117 128
3 116 128 127
3 117 118 129
3 117 129 128
3 118 119 130
3 118 130 129
3 119 120 131
3 119 131 130
3 121 122 133
3 121 133 132
3 122 123 134
3 122 134 133
3 123 124 135
3 123 135 134
3 124 125 136
3 124 136 135
3 125 126 137
3 125 137 136
3 126 127 138
3 126 138 137
3 127 128 139
3 127 139 138
3 128 129 140
3 128 140 139
3 129 130 141
3 129 141 140
3 130 131 142
3 130 142 141
3 132 133 144
3 132 144 143
3 133 134 145
3 133 145 144
3 134 135 146
3 134 146 145
3 135 136 147
3 135 147 146
3 136 137 148
3 136 148 147
3 137 138 149
3 137 149 148
3 138 139 150
3 138 150 149
3 139 140 151
3 139 151 150
3 140 141 152
3 140 152 151
3 141 142 153
3 141 153 152
3 143 144 155
3 143 155 154
3 144 145 156
3 144 156 155
3 145 146 157
3 145 157 156
3 146 147 158
3 146 158 157
3 147 148 159
3 147 159 158
3 148 149 160
3 148 160 159
3 149 150 161
3 149 161 160
3 150 151 162
3 150 162 161
3 151 152 163
3 151 163 162
3 152 153 164
3 152 164 163
3 154 155 166
3 154 166 165
3 155 156 167
3 155 167 166
3 156 157 168
3 156 168 167
3 157 158 169
3 157 169 168
3 158 159 170
3 158 170 169
3 159 160 171
3 159 171 170
3 160 161 172
3 160 172 171
3 161 162 173
3 161 173 172
3 162 163 174
3 162 174 173
3 163 164 175
3 163 175 174
3 165 166 177
3 165 177 176
3 166 167 178
3 166 178 177
3 167 168 179
3 167 179 178
3 168 169 180
3 168 180 179
3 169 170 181
3 169 181 180
3 170 171 182
3 170 182 181
3 171 172 183
3 171 183 182
3 172 173 184
3 172 184 183
3 173 174 185
3 173 185 184
3 174 175 186
3 174 186 185
3 176 177 188
3 176 188 187
3 177 178 189
3 177 189 188
3 178 179 190
3 178 190 189
3 179 180 191
3 179 191 190
3 180 181 192
3 180 192 191
3 181 182 193
3 181 193 192
3 182 183 194
3 182 194 193
3 183 184 195
3 183 195 194
3 184 185 196
3 184 196 195
3 185 186 197
3 185 197 196
3 187 188 199
3 187 199 198
3 188 189 200
3 188 200 199
3 189 190 201
3 189 201 200
3 190 191 202
3 190 202 201
3 191 192 203
3 191 203 202
3 192 193 204
3 192 204 203
3 193 194 205
3 193 205 204
3 194 195 206
3 194 206 205
3 195 196 207
3 195 207 206
3 196 197 208
3 196 208 207
3 198 199 210
3 198 210 209
3 199 200 211
3 199 211 210
3 200 201 212
3 200 212 211
3 201 202 213
3 201 213 212
3 202 203 214
3 202 214 213
3 203 204 215
3 203 215 214
3 204 205 216
3 204 216 215
3 205 206 217
3 205 217 216
3 206 207 218
3 206 218 217
3 207 208 219
3 207 219 218
3 209 210 221
3 209 221 220
3 210 211 222
3 210 222 221
3 211 212 223
3 211 223 222
3 212 213 224
3 212 224 223
3 213 214 225
3 213 225 224
3 214 215 226
3 214 226 225
3 215 216 227
3 215 227 226
3 216 217 228
3 216 228 227
3 217 218 229
3 217 229 228
3 218 219 230
3 218 230 229
CELL_TYPES 400
5
5
5
5
5
5
5
5
5
5
5
5
5
5
5
5
5
5
5
5
5
5
5
5
5
5
5
5
5
5
5
5
5
5
5
5
5
5
5
5
5
5
5
5
5
5
5
5
5
5
5
5
5
5
5
5
5
5
5
5
5
5
5
5
5
5
5
5
5
5
5
5
5
5
5
5
5
5
5
5
5
5
5
5
5
5
5
5
5
5
5
5
5
5
5
5
5
5
5
5
5
5
5
5
5
5
5
5
5
5
5
5
5
5
5
5
5
5
5
5
5
5
5
5
5
5
5
5
5
5
5
5
5
5
5
5
5
5
5
5
5
5
5
5
5
5
5
5
5
5
5
5
5
5
5
5
5
5
5
5
5
5
5
5
5
5
5
5
5
5
5
5
5
5
5
5
5
5
5
5
5
5
5
5
5
5
5
5
5
5
5
5
5
5
5
5
5
5
5
5
5
5
5
5
5
5
5
5
5
5
5
5
5
5
5
5
5
5
5
5
5
5
5
5
5
5
5
5
5
5
5
5
5
5
5
5
5
5
5
5
5
5
5
5
5
5
5
5
5
5
5
5
5
5
5
5
5
5
5
5
5
5
5
5
5
5
5
5
5
5
5
5
5
5
5
5
5
5
5
5
5
5
5
5
5
5
5
5
5
5
5
5
5
5
5
5
5
5
5
5
5
5
5
5
5
5
5
5
5
5
5
5
5
5
5
5
5
5
5
5
5
5
5
5
5
5
5
5
5
5
5
5
5
5
5
5
5
5
5
5
5
5
5
5
5
5
5
5
5
5
5
5
5
5
5
5
5
5
5
5
5
5
5
5
5
5
5
5
5
5
5
5
5
5
5
5
5
5
5
5
5
5
5
5
5
5
5
5
5
5
5
5
5
5
5
5
5
5
5
5
POINT_DATA 231
SCALARS psi double 1
LOOKUP_TABLE default
0
0
0
0
0
0
0
0
0
0
0
0
-0.203534
0.00106558
0.205095
0.000854905
-0.203243
-0.000254601
0.202715
0.000405411
-0.201812
0
0
-0.344527
0.00152365
0.346225
0.00135605
-0.343386
-0.000494831
0.342421
0.000492514
-0.340076
0
0
-0.47333
0.0018477
0.474706
0.00152473
-0.471302
-0.000589338
0.469886
0.000177531
-0.466894
0
0
-0.595798
0.00189011
0.596637
0.00155366
-0.59305
-0.000701607
0.591192
-0.000286208
-0.588381
0
0
-0.709763
0.00160915
0.709938
0.00147831
-0.70654
-0.000840285
0.704307
-0.000754541
-0.702403
0
0
-0.810466
0.00104728
0.80989
0.00132193
-0.807028
-0.000987555
0.80456
-0.00113661
-0.803955
0
0
-0.892401
0.000347465
0.891131
0.00104187
-0.889093
-0.00104654
0.886602
-0.00142507
-0.887253
0
0
-0.952239
-0.000333238
0.950311
0.00062433
-0.949274
-0.000936881
0.947023
-0.00160376
-0.948678
0
0
-0.988436
-0.000926129
0.986049
0.000154336
-0.986054
-0.000680498
0.98432
-0.00159077
-0.986621
0
0
-1
-0.00136068
0.997462
-0.000301247
-0.998425
-0.000301247
0.997462
-0.00136068
-1
0
0
-0.986621
-0.00159077
0.98432
-0.000680498
-0.986054
0.000154336
0.986049
-0.000926129
-0.988436
0
0
-0.948678
-0.00160376
0.947023
-0.000936881
-0.949274
0.00062433
0.950311
-0.000333238
-0.952239
0
0
-0.887253
-0.00142507
0.886602
-0.00104654
-0.889093
0.00104187
0.891131
0.000347465
-0.892401
0
0
-0.803955
-0.00113661
0.80456
-0.000987555
-0.807028
0.00132193
0.80989
0.00104728
-0.810466
0
0
-0.702403
-0.000754541
0.704307
-0.000840285
-0.70654
0.00147831
0.709938
0.00160915
-0.709763
0
0
-0.588381
-0.000286208
0.591192
-0.000701607
-0.59305
0.00155366
0.596637
0.00189011
-0.595798
0
0
-0.466894
0.000177531
0.469886
-0.000589338
-0.471302
0.00152473
0.474706
0.0018477
-0.47333
0
0
-0.340076
0.000492515
0.342421
-0.000494831
-0.343386
0.00135605
0.346225
0.00152365
-0.344527
0
0
-0.201812
0.000405411
0.202715
-0.000254601
-0.203243
0.000854905
0.205095
0.00106558
-0.203534
0
0
0
0
0
0
0
0
0
0
0
0
VECTORS Et double
0.241152 0.034855 0
-0.000508673 0.564048 0
-0.254107 -0.00250512 0
8.42946e-05 -0.567138 0
0.253677 -0.00241535 0
0.00060938 0.562316 0
-0.252342 0.000922966 0
-0.000273784 -0.560776 0
0.251268 -0.000809027 0
0.00011863 0.557937 0
-0.238305 0.0344007 0
0.315211 0.0440435 0
0.0024764 0.45917 0
-0.325688 -0.00136901 0
9.38083e-05 -0.459362 0
0.325087 -0.00162519 0
0.000733692 0.456251 0
-0.323454 0.000825081 0
-0.000286074 -0.454825 0
0.322129 -0.000105328 0
0.0061281 0.451088 0
-0.310511 0.047818 0
0.402889 0.0522577 0
0.00289512 0.416493 0
-0.409838 -0.000644995 0
9.15538e-05 -0.414553 0
0.409035 -0.000954954 0
0.000856736 0.41267 0
-0.407102 0.000679611 0
-0.000275932 -0.411242 0
0.405551 0.000551559 0
0.00687212 0.407177 0
-0.397727 0.0559232 0
0.501908 0.0564607 0
0.00280898 0.396421 0
-0.505233 1.64454e-05 0
6.93529e-05 -0.393034 0
0.504209 -0.000426925 0
0.000964701 0.392213 0
-0.502008 0.000591961 0
-0.000235817 -0.390798 0
0.500301 0.00102249 0
0.00640419 0.387153 0
-0.49626 0.0599949 0
0.608559 0.055385 0
0.00268902 0.376151 0
-0.609431 0.00069168 0
1.96457e-05 -0.371696 0
0.608193 3.48943e-05 0
0.00103976 0.371913 0
-0.605805 0.000513769 0
-0.000161913 -0.370635 0
0.604064 0.00129933 0
0.00459275 0.368616 0
-0.602547 0.0588036 0
0.717288 0.0485669 0
0.00234542 0.34291 0
-0.717296 0.00134037 0
-6.16949e-05 -0.337882 0
0.715886 0.000486647 0
0.00106382 0.339151 0
-0.713443 0.000376414 0
-5.80436e-05 -0.338198 0
0.711812 0.00138519 0
0.00106664 0.339628 0
-0.711187 0.0517443 0
0.815156 0.0399122 0
0.000455175 0.290666 0
-0.814874 0.00183575 0
-0.000166531 -0.287214 0
0.813373 0.000933513 0
0.00100368 0.289457 0
-0.811076 0.000119604 0
6.57821e-05 -0.289062 0
0.809736 0.00126888 0
-0.000497419 0.29226 0
-0.809549 0.0420111 0
0.894376 0.0315462 0
-0.000164494 0.225394 0
-0.893809 0.00203967 0
-0.000277004 -0.22298 0
0.892353 0.00133041 0
0.000856447 0.225963 0
-0.890407 -0.000275233 0
0.000191493 -0.226303 0
0.889522 0.000941342 0
-0.00060483 0.229328 0
-0.889643 0.0324442 0
0.952881 0.0217918 0
9.2143e-05 0.153726 0
-0.95208 0.00191563 0
-0.000367839 -0.15176 0
0.950791 0.00157693 0
0.00062372 0.155066 0
-0.949385 -0.000730979 0
0.000309277 -0.15626 0
0.948987 0.000409351 0
-0.000650626 0.158557 0
-0.949478 0.0224991 0
0.988544 0.0108942 0
0.000328322 0.0768132 0
-0.987614 0.00152559 0
-0.000420975 -0.0756636 0
0.986615 0.00162338 0
0.000323479 0.0788835 0
-0.985862 -0.00115406 0
0.000381875 -0.0809674 0
0.986093 -0.000256495 0
-0.000629921 0.0820978 0
-0.986795 0.0116788 0
1 -0.000404226 0
0.000513046 -0.00271604 0
-0.999056 0.000939767 0
-0.000427551 0.00277621 0
0.998431 0.00147158 0
-2.6857e-10 7.26866e-06 0
-0.998452 -0.00147161 0
0.000431178 -0.00276822 0
0.999106 -0.000939797 0
-0.00050395 0.00274238 0
-0.999933 0.0004042 0
0.986816 -0.0116791 0
0.000621852 -0.0820925 0
-0.986008 0.000256486 0
-0.00038297 0.0809467 0
0.985884 0.00115409 0
-0.000331721 -0.0788674 0
-0.986641 -0.00162342 0
0.000416677 0.0756582 0
0.987671 -0.00152567 0
-0.000346674 -0.0768227 0
-0.988781 -0.0108968 0
0.949542 -0.0225006 0
0.000651275 -0.158521 0
-0.949015 -0.000409336 0
-0.000304448 0.156274 0
0.949392 0.000730984 0
-0.000619557 -0.155034 0
-0.950834 -0.00157699 0
0.000369908 0.151776 0
0.952076 -0.00191561 0
-9.57683e-05 -0.153688 0
-0.952612 -0.0217857 0
0.889676 -0.0324454 0
0.000605462 -0.229322 0
-0.88952 -0.000941317 0
-0.000190848 0.226305 0
0.890378 0.00027522 0
-0.000858399 -0.225959 0
-0.892366 -0.00133043 0
0.00026598 0.222987 0
0.893632 -0.00203928 0
0.000154776 -0.225408 0
-0.894179 -0.0315392 0
0.809493 -0.0420081 0
0.000492748 -0.292285 0
-0.809751 -0.00126889 0
-6.78289e-05 0.289057 0
0.811095 -0.000119608 0
-0.000995187 -0.289476 0
-0.813407 -0.000933541 0
0.000167124 0.28725 0
0.814882 -0.00183578 0
-0.000461962 -0.290667 0
-0.815161 -0.0399124 0
0.711197 -0.051745 0
-0.0010664 -0.339635 0
-0.711808 -0.00138518 0
5.79124e-05 0.338191 0
0.713448 -0.000376404 0
-0.00105598 -0.339152 0
-0.715896 -0.000486685 0
7.10351e-05 0.337916 0
0.717293 -0.00134033 0
-0.00235023 -0.34288 0
-0.716757 -0.048531 0
0.602546 -0.0588035 0
-0.00459194 -0.36861 0
-0.604057 -0.00129931 0
0.000158631 0.370639 0
0.605846 -0.00051382 0
-0.00104233 -0.371908 0
-0.608214 -3.48958e-05 0
-1.20755e-05 0.371694 0
0.609443 -0.000691614 0
-0.00265999 -0.376192 0
-0.608685 -0.0553965 0
0.49626 -0.0599948 0
-0.00640496 -0.387154 0
-0.50029 -0.00102247 0
0.000234518 0.390797 0
0.501992 -0.000591937 0
-0.000963207 -0.392196 0
-0.504239 0.00042694 0
-5.89954e-05 0.393041 0
0.505188 -1.66321e-05 0
-0.00281779 -0.396474 0
-0.502237 -0.0564977 0
0.397726 -0.0559231 0
-0.00687282 -0.407181 0
-0.405553 -0.000551562 0
0.000278192 0.411245 0
0.407126 -0.000679657 0
-0.00085599 -0.412661 0
-0.408983 0.000954832 0
-8.19809e-05 0.41468 0
0.409994 0.000645317 0
-0.00290098 -0.416641 0
-0.402546 -0.0522132 0
0.310509 -0.0478176 0
-0.00612654 -0.451092 0
-0.322125 0.000105328 0
0.000291334 0.454849 0
0.323451 -0.000825079 0
-0.000727115 -0.456211 0
-0.325158 0.00162557 0
-0.000104968 0.459317 0
0.325917 0.00136994 0
-0.00246903 -0.458763 0
-0.314659 -0.0439663 0
0.238305 -0.0344007 0
-0.000118629 -0.557932 0
-0.25126 0.000809002 0
0.000273782 0.560772 0
0.252323 -0.000922895 0
-0.000609418 -0.562351 0
-0.253622 0.00241483 0
-8.42755e-05 0.567015 0
0.254051 0.00250458 0
0.000508876 -0.564273 0
-0.24028 -0.034729 0
