# vtk DataFile Version 3.0
tp3485 scalar+vector
ASCII
DATASET UNSTRUCTURED_GRID
POINTS 231 double
0 0 0
0.1 0 0
0.2 0 0
0.3 0 0
0.4 0 0
0.5 0 0
0.6 0 0
0.7 0 0
0.8 0 0
0.9 0 0
1 0 0
0 0.025 0
0.1 0.025 0
0.2 0.025 0
0.3 0.025 0
0.4 0.025 0
0.5 0.025 0
0.6 0.025 0
0.7 0.025 0
0.8 0.025 0
0.9 0.025 0
1 0.025 0
0 0.05 0
0.1 0.05 0
0.2 0.05 0
0.3 0.05 0
0.4 0.05 0
0.5 0.05 0
0.6 0.05 0
0.7 0.05 0
0.8 0.05 0
0.9 0.05 0
1 0.05 0
0 0.075 0
0.1 0.075 0
0.2 0.075 0
0.3 0.075 0
0.4 0.075 0
0.5 0.075 0
0.6 0.075 0
0.7 0.075 0
0.8 0.075 0
0.9 0.075 0
1 0.075 0
0 0.1 0
0.1 0.1 0
0.2 0.1 0
0.3 0.1 0
0.4 0.1 0
0.5 0.1 0
0.6 0.1 0
0.7 0.1 0
0.8 0.1 0
0.9 0.1 0
1 0.1 0
0 0.125 0
0.1 0.125 0
0.2 0.125 0
0.3 0.125 0
0.4 0.125 0
0.5 0.125 0
0.6 0.125 0
0.7 0.125 0
0.8 0.125 0
0.9 0.125 0
1 0.125 0
0 0.15 0
0.1 0.15 0
0.2 0.15 0
0.3 0.15 0
0.4 0.15 0
0.5 0.15 0
0.6 0.15 0
0.7 0.15 0
0.8 0.15 0
0.9 0.15 0
1 0.15 0
0 0.175 0
0.1 0.175 0
0.2 0.175 0
0.3 0.175 0
0.4 0.175 0
0.5 0.175 0
0.6 0.175 0
0.7 0.175 0
0.8 0.175 0
0.9 0.175 0
1 0.175 0
0 0.2 0
0.1 0.2 0
0.2 0.2 0
0.3 0.2 0
0.4 0.2 0
0.5 0.2 0
0.6 0.2 0
0.7 0.2 0
0.8 0.2 0
0.9 0.2 0
1 0.2 0
0 0.225 0
0.1 0.225 0
0.2 0.225 0
0.3 0.225 0
0.4 0.225 0
0.5 0.225 0
0.6 0.225 0
0.7 0.225 0
0.8 0.225 0
0.9 0.225 0
1 0.225 0
0 0.25 0
0.1 0.25 0
0.2 0.25 0
0.3 0.25 0
0.4 0.25 0
0.5 0.25 0
0.6 0.25 0
0.7 0.25 0
0.8 0.25 0
0.9 0.25 0
1 0.25 0
0 0.275 0
0.1 0.275 0
0.2 0.275 0
0.3 0.275 0
0.4 0.275 0
0.5 0.275 0
0.6 0.275 0
0.7 0.275 0
0.8 0.275 0
0.9 0.275 0
1 0.275 0
0 0.3 0
0.1 0.3 0
0.2 0.3 0
0.3 0.3 0
0.4 0.3 0
0.5 0.3 0
0.6 0.3 0
0.7 0.3 0
0.8 0.3 0
0.9 0.3 0
1 0.3 0
0 0.325 0
0.1 0.325 0
0.2 0.325 0
0.3 0.325 0
0.4 0.325 0
0.5 0.325 0
0.6 0.325 0
0.7 0.325 0
0.8 0.325 0
0.9 0.325 0
1 0.325 0
0 0.35 0
0.1 0.35 0
0.2 0.35 0
0.3 0.35 0
0.4 0.35 0
0.5 0.35 0
0.6 0.35 0
0.7 0.35 0
0.8 0.35 0
0.9 0.35 0
1 0.35 0
0 0.375 0
0.1 0.375 0
0.2 0.375 0
0.3 0.375 0
0.4 0.375 0
0.5 0.375 0
0.6 0.375 0
0.7 0.375 0
0.8 0.375 0
0.9 0.375 0
1 0.375 0
0 0.4 0
0.1 0.4 0
0.2 0.4 0
0.3 0.4 0
0.4 0.4 0
0.5 0.4 0
0.6 0.4 0
0.7 0.4 0
0.8 0.4 0
0.9 0.4 0
1 0.4 0
0 0.425 0
0.1 0.425 0
0.2 0.425 0
0.3 0.425 0
0.4 0.425 0
0.5 0.425 0
0.6 0.425 0
0.7 0.425 0
0.8 0.425 0
0.9 0.425 0
1 0.425 0
0 0.45 0
0.1 0.45 0
0.2 0.45 0
0.3 0.45 0
0.4 0.45 0
0.5 0.45 0
0.6 0.45 0
0.7 0.45 0
0.8 0.45 0
0.9 0.45 0
1 0.45 0
0 0.475 0
0.1 0.475 0
0.2 0.475 0
0.3 0.475 0
0.4 0.475 0
0.5 0.475 0
0.6 0.475 0
0.7 0.475 0
0.8 0.475 0
0.9 0.475 0
1 0.475 0
0 0.5 0
0.1 0.5 0
0.2 0.5 0
0.3 0.5 0
0.4 0.5 0
0.5 0.5 0
0.6 0.5 0
0.7 0.5 0
0.8 0.5 0
0.9 0.5 0
1 0.5 0
CELLS 400 1600
3 0 1 12
3 0 12 11
3 1 2 13
3 1 13 12
3 2 3 14
3 2 14 13
3 3 4 15
3 3 15 14
3 4 5 16
3 4 16 15
3 5 6 17
3 5 17 16
3 6 7 18
3 6 18 17
3 7 8 19
3 7 19 18
3 8 9 20
3 8 20 19
3 9 10 21
3 9 21 20
3 11 12 23
3 11 23 22
3 12 13 24
3 12 24 23
3 13 14 25
3 13 25 24
3 14 15 26
3 14 26 25
3 15 16 27
3 15 27 26
3 16 17 28
3 16 28 27
3 17 18 29
3 17 29 28
3 18 19 30
3 18 30 29
3 19 20 31
3 19 31 30
3 20 21 32
3 20 32 31
3 22 23 34
3 22 34 33
3 23 24 35
3 23 35 34
3 24 25 36
3 24 36 35
3 25 26 37
3 25 37 36
3 26 27 38
3 26 38 37
3 27 28 39
3 27 39 38
3 28 29 40
3 28 40 39
3 29 30 41
3 29 41 40
3 30 31 42
3 30 42 41
3 31 32 43
3 31 43 42
3 33 34 45
3 33 45 44
3 34 35 46
3 34 46 45
3 35 36 47
3 35 47 46
3 36 37 48
3 36 48 47
3 37 38 49
3 37 49 48
3 38 39 50
3 38 50 49
3 39 40 51
3 39 51 50
3 40 41 52
3 40 52 51
3 41 42 53
3 41 53 52
3 42 43 54
3 42 54 53
3 44 45 56
3 44 56 55
3 45 46 57
3 45 57 56
3 46 47 58
3 46 58 57
3 47 48 59
3 47 59 58
3 48 49 60
3 48 60 59
3 49 50 61
3 49 61 60
3 50 51 62
3 50 62 61
3 51 52 63
3 51 63 62
3 52 53 64
3 52 64 63
3 53 54 65
3 53 65 64
3 55 56 67
3 55 67 66
3 56 57 68
3 56 68 67
3 57 58 69
3 57 69 68
3 58 59 70
3 58 70 69
3 59 60 71
3 59 71 70
3 60 61 72
3 60 72 71
3 61 62 73
3 61 73 72
3 62 63 74
3 62 74 73
3 63 64 75
3 63 75 74
3 64 65 76
3 64 76 75
3 66 67 78
3 66 78 77
3 67 68 79
3 67 79 78
3 68 69 80
3 68 80 79
3 69 70 81
3 69 81 80
3 70 71 82
3 70 82 81
3 71 72 83
3 71 83 82
3 72 73 84
3 72 84 83
3 73 74 85
3 73 85 84
3 74 75 86
3 74 86 85
3 75 76 87
3 75 87 86
3 77 78 89
3 77 89 88
3 78 79 90
3 78 90 89
3 79 80 91
3 79 91 90
3 80 81 92
3 80 92 91
3 81 82 93
3 81 93 92
3 82 83 94
3 82 94 93
3 83 84 95
3 83 95 94
3 84 85 96
3 84 96 95
3 85 86 97
3 85 97 96
3 86 87 98
3 86 98 97
3 88 89 100
3 88 100 99
3 89 90 101
3 89 101 100
3 90 91 102
3 90 102 101
3 91 92 103
3 91 103 102
3 92 93 104
3 92 104 103
3 93 94 105
3 93 105 104
3 94 95 106
3 94 106 105
3 95 96 107
3 95 107 106
3 96 97 108
3 96 108 107
3 97 98 109
3 97 109 108
3 99 100 111
3 99 111 110
3 100 101 112
3 100 112 111
3 101 102 113
3 101 113 112
3 102 103 114
3 102 114 113
3 103 104 115
3 103 115 114
3 104 105 116
3 104 116 115
3 105 106 117
3 105 117 116
3 106 107 118
3 106 118 117
3 107 108 119
3 107 119 118
3 108 109 120
3 108 120 119
3 110 111 122
3 110 122 121
3 111 112 123
3 111 123 122
3 112 113 124
3 112 124 123
3 113 114 125
3 113 125 124
3 114 115 126
3 114 126 125
3 115 116 127
3 115 127 126
3 116 117 128
3 116 128 127
3 117 118 129
3 117 129 128
3 118 119 130
3 118 130 129
3 119 120 131
3 119 131 130
3 121 122 133
3 121 133 132
3 122 123 134
3 122 134 133
3 123 124 135
3 123 135 134
3 124 125 136
3 124 136 135
3 125 126 137
3 125 137 136
3 126 127 138
3 126 138 137
3 127 128 139
3 127 139 138
3 128 129 140
3 128 140 139
3 129 130 141
3 129 141 140
3 130 131 142
3 130 142 141
3 132 133 144
3 132 144 143
3 133 134 145
3 133 145 144
3 134 135 146
3 134 146 145
3 135 136 147
3 135 147 146
3 136 137 148
3 136 148 147
3 137 138 149
3 137 149 148
3 138 139 150
3 138 150 149
3 139 140 151
3 139 151 150
3 140 141 152
3 140 152 151
3 141 142 153
3 141 153 152
3 143 144 155
3 143 155 154
3 144 145 156
3 144 156 155
3 145 146 157
3 145 157 156
3 146 147 158
3 146 158 157
3 147 148 159
3 147 159 158
3 148 149 160
3 148 160 159
3 149 150 161
3 149 161 160
3 150 151 162
3 150 162 161
3 151 152 163
3 151 163 162
3 152 153 164
3 152 164 163
3 154 155 166
3 154 166 165
3 155 156 167
3 155 167 166
3 156 157 168
3 156 168 167
3 157 158 169
3 157 169 168
3 158 159 170
3 158 170 169
3 159 160 171
3 159 171 170
3 160 161 172
3 160 172 171
3 161 162 173
3 161 173 172
3 162 163 174
3 162 174 173
3 163 164 175
3 163 175 174
3 165 166 177
3 165 177 176
3 166 167 178
3 166 178 177
3 167 168 179
3 167 179 178
3 168 169 180
3 168 180 179
3 169 170 181
3 169 181 180
3 170 171 182
3 170 182 181
3 171 172 183
3 171 183 182
3 172 173 184
3 172 184 183
3 173 174 185
3 173 185 184
3 174 175 186
3 174 186 185
3 176 177 188
3 176 188 187
3 177 178 189
3 177 189 188
3 178 179 190
3 178 190 189
3 179 180 191
3 179 191 190
3 180 181 192
3 180 192 191
3 181 182 193
3 181 193 192
3 182 183 194
3 182 194 193
3 183 184 195
3 183 195 194
3 184 185 196
3 184 196 195
3 185 186 197
3 185 197 196
3 187 188 199
3 187 199 198
3 188 189 200
3 188 200 199
3 189 190 201
3 189 201 200
3 190 191 202
3 190 202 201
3 191 192 203
3 191 203 202
3 192 193 204
3 192 204 203
3 193 194 205
3 193 205 204
3 194 195 206
3 194 206 205
3 195 196 207
3 195 207 206
3 196 197 208
3 196 208 207
3 198 199 210
3 198 210 209
3 199 200 211
3 199 211 210
3 200 201 212
3 200 212 211
3 201 202 213
3 201 213 212
3 202 203 214
3 202 214 213
3 203 204 215
3 203 215 214
3 204 205 216
3 204 216 215
3 205 206 217
3 205 217 216
3 206 207 218
3 206 218 217
3 207 208 219
3 207 219 218
3 209 210 221
3 209 221 220
3 210 211 222
3 210 222 221
3 211 212 223
3 211 223 222
3 212 213 224
3 212 224 223
3 213 214 225
3 213 225 224
3 214 215 226
3 214 226 225
3 215 216 227
3 215 227 226
3 216 217 228
3 216 228 227
3 217 218 229
3 217 229 228
3 218 219 230
3 218 230 229
CELL_TYPES 400
5
5
5
5
5
5
5
5
5
5
5
5
5
5
5
5
5
5
5
5
5
5
5
5
5
5
5
5
5
5
5
5
5
5
5
5
5
5
5
5
5
5
5
5
5
5
5
5
5
5
5
5
5
5
5
5
5
5
5
5
5
5
5
5
5
5
5
5
5
5
5
5
5
5
5
5
5
5
5
5
5
5
5
5
5
5
5
5
5
5
5
5
5
5
5
5
5
5
5
5
5
5
5
5
5
5
5
5
5
5
5
5
5
5
5
5
5
5
5
5
5
5
5
5
5
5
5
5
5
5
5
5
5
5
5
5
5
5
5
5
5
5
5
5
5
5
5
5
5
5
5
5
5
5
5
5
5
5
5
5
5
5
5
5
5
5
5
5
5
5
5
5
5
5
5
5
5
5
5
5
5
5
5
5
5
5
5
5
5
5
5
5
5
5
5
5
5
5
5
5
5
5
5
5
5
5
5
5
5
5
5
5
5
5
5
5
5
5
5
5
5
5
5
5
5
5
5
5
5
5
5
5
5
5
5
5
5
5
5
5
5
5
5
5
5
5
5
5
5
5
5
5
5
5
5
5
5
5
5
5
5
5
5
5
5
5
5
5
5
5
5
5
5
5
5
5
5
5
5
5
5
5
5
5
5
5
5
5
5
5
5
5
5
5
5
5
5
5
5
5
5
5
5
5
5
5
5
5
5
5
5
5
5
5
5
5
5
5
5
5
5
5
5
5
5
5
5
5
5
5
5
5
5
5
5
5
5
5
5
5
5
5
5
5
5
5
5
5
5
5
5
5
5
5
5
5
5
5
5
5
5
5
5
5
5
5
5
5
5
5
5
5
5
5
5
5
5
5
5
5
5
5
5
5
5
5
5
5
5
5
5
5
5
5
5
5
5
5
5
5
POINT_DATA 231
SCALARS psi double 1
LOOKUP_TABLE default
0
0
0
0
0
0
0
0
0
0
0
0
0.35889
0.423151
0.137492
-0.261132
-0.444358
-0.260771
0.138226
0.422133
0.358677
0
0
0.564465
0.664481
0.215949
-0.410115
-0.698024
-0.409721
0.217172
0.663542
0.562021
0
0
0.705879
0.830202
0.269902
-0.512543
-0.872599
-0.51233
0.271551
0.830231
0.702573
0
0
0.788798
0.927451
0.301804
-0.572607
-0.975431
-0.573039
0.303474
0.928931
0.786278
0
0
0.808014
0.950135
0.309614
-0.586524
-1
-0.587975
0.310934
0.953228
0.807512
0
0
0.758576
0.892408
0.291406
-0.55064
-0.940059
-0.553455
0.291969
0.897025
0.760883
0
0
0.639777
0.753308
0.246707
-0.464486
-0.794546
-0.468703
0.246385
0.759246
0.644944
0
0
0.461031
0.543571
0.178845
-0.334843
-0.574721
-0.340162
0.177834
0.550567
0.468461
0
0
0.239317
0.283089
0.0942713
-0.173986
-0.30142
-0.180028
0.0927973
0.290764
0.248227
0
0
-0.00471226
-0.00395419
0.000818469
0.00314775
-2.08377e-11
-0.00314775
-0.000818469
0.00395419
0.00471226
0
0
-0.248227
-0.290764
-0.0927973
0.180028
0.30142
0.173986
-0.0942713
-0.283089
-0.239317
0
0
-0.468461
-0.550567
-0.177834
0.340162
0.574721
0.334843
-0.178845
-0.543571
-0.461031
0
0
-0.644944
-0.759246
-0.246385
0.468703
0.794546
0.464486
-0.246707
-0.753308
-0.639777
0
0
-0.760883
-0.897025
-0.291969
0.553455
0.940059
0.55064
-0.291406
-0.892408
-0.758576
0
0
-0.807512
-0.953228
-0.310934
0.587975
1
0.586524
-0.309614
-0.950135
-0.808014
0
0
-0.786278
-0.928931
-0.303474
0.573039
0.975431
0.572607
-0.301804
-0.927451
-0.788798
0
0
-0.702573
-0.830231
-0.271551
0.51233
0.872599
0.512543
-0.269902
-0.830202
-0.705879
0
0
-0.562021
-0.663542
-0.217172
0.409721
0.698024
0.410115
-0.215949
-0.664481
-0.564465
0
0
-0.358677
-0.422133
-0.138226
0.260771
0.444358
0.261132
-0.137492
-0.423151
-0.35889
0
0
0
0
0
0
0
0
0
0
0
0
VECTORS Et double
-0.311475 -0.0394168 0
-0.183736 -0.808453 0
0.100472 -0.951589 0
0.309856 -0.309466 0
0.263606 0.587409 0
-7.0081e-05 0.999937 0
-0.263956 0.587027 0
-0.309641 -0.310948 0
-0.0996084 -0.950975 0
0.207302 -0.806643 0
0.310505 -0.0392576 0
-0.386319 -0.0438586 0
-0.231209 -0.569312 0
0.122284 -0.669556 0
0.377048 -0.217951 0
0.320849 0.41339 0
-2.38773e-05 0.70417 0
-0.321265 0.413661 0
-0.376992 -0.21898 0
-0.121266 -0.670625 0
0.236883 -0.568474 0
0.384171 -0.0480629 0
-0.461232 -0.0431393 0
-0.274789 -0.407199 0
0.143971 -0.478049 0
0.443901 -0.155874 0
0.377865 0.29519 0
7.30387e-05 0.503421 0
-0.378329 0.296078 0
-0.444135 -0.156535 0
-0.142897 -0.480393 0
0.274119 -0.406442 0
0.459583 -0.0466354 0
-0.525945 -0.0342955 0
-0.312249 -0.266105 0
0.162795 -0.311238 0
0.502034 -0.101871 0
0.427543 0.192124 0
0.000242155 0.328511 0
-0.428017 0.193704 0
-0.502732 -0.102036 0
-0.161844 -0.31447 0
0.3076 -0.26466 0
0.524858 -0.0369223 0
-0.569043 -0.0173834 0
-0.337987 -0.117087 0
0.175515 -0.134878 0
0.541513 -0.0447558 0
0.461444 0.0831064 0
0.000497094 0.143452 0
-0.461874 0.0853703 0
-0.542865 -0.044343 0
-0.174934 -0.138673 0
0.331263 -0.114857 0
0.56873 -0.0189788 0
-0.578788 0.00575789 0
-0.344423 0.0524029 0
0.178316 0.0654321 0
0.550622 0.0202079 0
0.469594 -0.040699 0
0.000843442 -0.0668796 0
-0.469913 -0.0378606 0
-0.552809 0.0212123 0
-0.17839 0.0613916 0
0.33993 0.0525761 0
0.579571 0.00545459 0
-0.540858 0.0292299 0
-0.319717 0.239181 0
0.166431 0.282301 0
0.514627 0.0907062 0
0.439406 -0.174651 0
0.0012459 -0.294758 0
-0.439549 -0.17154 0
-0.517735 0.0921439 0
-0.167395 0.278378 0
0.320131 0.234701 0
0.543122 0.0297243 0
-0.453877 0.0504952 0
-0.26723 0.416398 0
0.139406 0.488803 0
0.432012 0.158066 0
0.369538 -0.302063 0
0.00165179 -0.511898 0
-0.369473 -0.29917 0
-0.435994 0.159573 0
-0.141355 0.485419 0
0.269556 0.410619 0
0.457639 0.0502784 0
-0.326278 0.0678242 0
-0.192281 0.555131 0
0.0998856 0.652265 0
0.31076 0.211637 0
0.266701 -0.402787 0
0.00199454 -0.683998 0
-0.266448 -0.400582 0
-0.315462 0.212849 0
-0.102709 0.649773 0
0.194991 0.550699 0
0.331413 0.0672372 0
-0.169224 0.0786454 0
-0.0999538 0.643857 0
0.0513515 0.757182 0
0.16142 0.246282 0
0.139829 -0.467324 0
0.00222443 -0.794768 0
-0.139438 -0.466124 0
-0.16659 0.246944 0
-0.0547914 0.75594 0
0.102907 0.641468 0
0.175319 0.0783259 0
0.00321627 0.0822826 0
0.00151677 0.673653 0
-0.00182694 0.792957 0
-0.00267055 0.258495 0
0.000218818 -0.489176 0
0.0023075 -0.833001 0
0.000218813 -0.489186 0
-0.00267055 0.258495 0
-0.00182702 0.792997 0
0.00151667 0.673627 0
0.00321605 0.0822771 0
0.175323 0.0783275 0
0.102905 0.641468 0
-0.0547889 0.755877 0
-0.166599 0.246959 0
-0.13944 -0.466136 0
0.00222646 -0.794754 0
0.139834 -0.467335 0
0.161421 0.246284 0
0.0513513 0.757229 0
-0.0999659 0.64391 0
-0.169265 0.0786642 0
0.331435 0.0672417 0
0.194991 0.550713 0
-0.102717 0.6498 0
-0.315464 0.212848 0
-0.266448 -0.400585 0
0.0019924 -0.683988 0
0.266716 -0.402802 0
0.310758 0.211633 0
0.0998817 0.652278 0
-0.192263 0.555084 0
-0.326186 0.0678051 0
0.457656 0.0502803 0
0.269563 0.410634 0
-0.141355 0.485428 0
-0.435994 0.159573 0
-0.369462 -0.299158 0
0.00165324 -0.51191 0
0.369543 -0.302067 0
0.432024 0.158069 0
0.139387 0.488728 0
-0.267271 0.416462 0
-0.453777 0.050484 0
0.543084 0.0297222 0
0.320132 0.234688 0
-0.1674 0.278388 0
-0.517727 0.0921428 0
-0.439554 -0.171543 0
0.00123774 -0.294753 0
0.439424 -0.174654 0
0.514658 0.0907063 0
0.166432 0.282313 0
-0.319701 0.23915 0
-0.540861 0.0292301 0
0.579579 0.00545467 0
0.339935 0.0525753 0
-0.178392 0.0613875 0
-0.552805 0.021214 0
-0.469915 -0.0378684 0
0.000834284 -0.066887 0
0.469598 -0.04071 0
0.550625 0.0201976 0
0.178302 0.0654117 0
-0.344391 0.0523913 0
-0.578359 0.00575362 0
0.568729 -0.0189788 0
0.331258 -0.114856 0
-0.174941 -0.13868 0
-0.542871 -0.0443432 0
-0.461899 0.0853866 0
0.000500593 0.143451 0
0.461467 0.0831092 0
0.541521 -0.0447526 0
0.175518 -0.134913 0
-0.337994 -0.117097 0
-0.569162 -0.017387 0
0.524857 -0.0369223 0
0.307599 -0.264661 0
-0.161843 -0.314462 0
-0.502726 -0.102037 0
-0.427998 0.193694 0
0.000239916 0.328494 0
0.427569 0.192132 0
0.502032 -0.101874 0
0.162787 -0.311141 0
-0.312275 -0.26616 0
-0.526289 -0.0343179 0
0.459583 -0.0466354 0
0.274121 -0.406447 0
-0.142899 -0.480397 0
-0.444139 -0.156536 0
-0.378348 0.2961 0
7.18273e-05 0.503412 0
0.377823 0.295153 0
0.444025 -0.155923 0
0.144013 -0.478258 0
-0.274899 -0.407341 0
-0.46084 -0.0431026 0
0.384168 -0.0480626 0
0.236888 -0.56848 0
-0.121261 -0.670618 0
-0.377017 -0.218991 0
-0.32126 0.413662 0
-3.5633e-05 0.704107 0
0.320917 0.413488 0
0.377022 -0.217929 0
0.122361 -0.670018 0
-0.231013 -0.568801 0
-0.385642 -0.0437818 0
0.310505 -0.0392576 0
0.2073 -0.806636 0
-0.0996054 -0.950947 0
-0.309639 -0.310946 0
-0.263936 0.586981 0
-7.00857e-05 1 0
0.263548 0.587282 0
0.309789 -0.309399 0
0.10045 -0.951382 0
-0.183809 -0.808776 0
-0.310349 -0.0392743 0
