# vtk DataFile Version 3.0
tp3485 scalar+vector
ASCII
DATASET UNSTRUCTURED_GRID
POINTS 231 double
0 0 0
0.1 0 0
0.2 0 0
0.3 0 0
0.4 0 0
0.5 0 0
0.6 0 0
0.7 0 0
0.8 0 0
0.9 0 0
1 0 0
0 0.025 0
0.1 0.025 0
0.2 0.025 0
0.3 0.025 0
0.4 0.025 0
0.5 0.025 0
0.6 0.025 0
0.7 0.025 0
0.8 0.025 0
0.9 0.025 0
1 0.025 0
0 0.05 0
0.1 0.05 0
0.2 0.05 0
0.3 0.05 0
0.4 0.05 0
0.5 0.05 0
0.6 0.05 0
0.7 0.05 0
0.8 0.05 0
0.9 0.05 0
1 0.05 0
0 0.075 0
0.1 0.075 0
0.2 0.075 0
0.3 0.075 0
0.4 0.075 0
0.5 0.075 0
0.6 0.075 0
0.7 0.075 0
0.8 0.075 0
0.9 0.075 0
1 0.075 0
0 0.1 0
0.1 0.1 0
0.2 0.1 0
0.3 0.1 0
0.4 0.1 0
0.5 0.1 0
0.6 0.1 0
0.7 0.1 0
0.8 0.1 0
0.9 0.1 0
1 0.1 0
0 0.125 0
0.1 0.125 0
0.2 0.125 0
0.3 0.125 0
0.4 0.125 0
0.5 0.125 0
0.6 0.125 0
0.7 0.125 0
0.8 0.125 0
0.9 0.125 0
1 0.125 0
0 0.15 0
0.1 0.15 0
0.2 0.15 0
0.3 0.15 0
0.4 0.15 0
0.5 0.15 0
0.6 0.15 0
0.7 0.15 0
0.8 0.15 0
0.9 0.15 0
1 0.15 0
0 0.175 0
0.1 0.175 0
0.2 0.175 0
0.3 0.175 0
0.4 0.175 0
0.5 0.175 0
0.6 0.175 0
0.7 0.175 0
0.8 0.175 0
0.9 0.175 0
1 0.175 0
0 0.2 0
0.1 0.2 0
0.2 0.2 0
0.3 0.2 0
0.4 0.2 0
0.5 0.2 0
0.6 0.2 0
0.7 0.2 0
0.8 0.2 0
0.9 0.2 0
1 0.2 0
0 0.225 0
0.1 0.225 0
0.2 0.225 0
0.3 0.225 0
0.4 0.225 0
0.5 0.225 0
0.6 0.225 0
0.7 0.225 0
0.8 0.225 0
0.9 0.225 0
1 0.225 0
0 0.25 0
0.1 0.25 0
0.2 0.25 0
0.3 0.25 0
0.4 0.25 0
0.5 0.25 0
0.6 0.25 0
0.7 0.25 0
0.8 0.25 0
0.9 0.25 0
1 0.25 0
0 0.275 0
0.1 0.275 0
0.2 0.275 0
0.3 0.275 0
0.4 0.275 0
0.5 0.275 0
0.6 0.275 0
0.7 0.275 0
0.8 0.275 0
0.9 0.275 0
1 0.275 0
0 0.3 0
0.1 0.3 0
0.2 0.3 0
0.3 0.3 0
0.4 0.3 0
0.5 0.3 0
0.6 0.3 0
0.7 0.3 0
0.8 0.3 0
0.9 0.3 0
1 0.3 0
0 0.325 0
0.1 0.325 0
0.2 0.325 0
0.3 0.325 0
0.4 0.325 0
0.5 0.325 0
0.6 0.325 0
0.7 0.325 0
0.8 0.325 0
0.9 0.325 0
1 0.325 0
0 0.35 0
0.1 0.35 0
0.2 0.35 0
0.3 0.35 0
0.4 0.35 0
0.5 0.35 0
0.6 0.35 0
0.7 0.35 0
0.8 0.35 0
0.9 0.35 0
1 0.35 0
0 0.375 0
0.1 0.375 0
0.2 0.375 0
0.3 0.375 0
0.4 0.375 0
0.5 0.375 0
0.6 0.375 0
0.7 0.375 0
0.8 0.375 0
0.9 0.375 0
1 0.375 0
0 0.4 0
0.1 0.4 0
0.2 0.4 0
0.3 0.4 0
0.4 0.4 0
0.5 0.4 0
0.6 0.4 0
0.7 0.4 0
0.8 0.4 0
0.9 0.4 0
1 0.4 0
0 0.425 0
0.1 0.425 0
0.2 0.425 0
0.3 0.425 0
0.4 0.425 0
0.5 0.425 0
0.6 0.425 0
0.7 0.425 0
0.8 0.425 0
0.9 0.425 0
1 0.425 0
0 0.45 0
0.1 0.45 0
0.2 0.45 0
0.3 0.45 0
0.4 0.45 0
0.5 0.45 0
0.6 0.45 0
0.7 0.45 0
0.8 0.45 0
0.9 0.45 0
1 0.45 0
0 0.475 0
0.1 0.475 0
0.2 0.475 0
0.3 0.475 0
0.4 0.475 0
0.5 0.475 0
0.6 0.475 0
0.7 0.475 0
0.8 0.475 0
0.9 0.475 0
1 0.475 0
0 0.5 0
0.1 0.5 0
0.2 0.5 0
0.3 0.5 0
0.4 0.5 0
0.5 0.5 0
0.6 0.5 0
0.7 0.5 0
0.8 0.5 0
0.9 0.5 0
1 0.5 0
CELLS 400 1600
3 0 1 12
3 0 12 11
3 1 2 13
3 1 13 12
3 2 3 14
3 2 14 13
3 3 4 15
3 3 15 14
3 4 5 16
3 4 16 15
3 5 6 17
3 5 17 16
3 6 7 18
3 6 18 17
3 7 8 19
3 7 19 18
3 8 9 20
3 8 20 19
3 9 10 21
3 9 21 20
3 11 12 23
3 11 23 22
3 12 13 24
3 12 24 23
3 13 14 25
3 13 25 24
3 14 15 26
3 14 26 25
3 15 16 27
3 15 27 26
3 16 17 28
3 16 28 27
3 17 18 29
3 17 29 28
3 18 19 30
3 18 30 29
3 19 20 31
3 19 31 30
3 20 21 32
3 20 32 31
3 22 23 34
3 22 34 33
3 23 24 35
3 23 35 34
3 24 25 36
3 24 36 35
3 25 26 37
3 25 37 36
3 26 27 38
3 26 38 37
3 27 28 39
3 27 39 38
3 28 29 40
3 28 40 39
3 29 30 41
3 29 41 40
3 30 31 42
3 30 42 41
3 31 32 43
3 31 43 42
3 33 34 45
3 33 45 44
3 34 35 46
3 34 46 45
3 35 36 47
3 35 47 46
3 36 37 48
3 36 48 47
3 37 38 49
3 37 49 48
3 38 39 50
3 38 50 49
3 39 40 51
3 39 51 50
3 40 41 52
3 40 52 51
3 41 42 53
3 41 53 52
3 42 43 54
3 42 54 53
3 44 45 56
3 44 56 55
3 45 46 57
3 45 57 56
3 46 47 58
3 46 58 57
3 47 48 59
3 47 59 58
3 48 49 60
3 48 60 59
3 49 50 61
3 49 61 60
3 50 51 62
3 50 62 61
3 51 52 63
3 51 63 62
3 52 53 64
3 52 64 63
3 53 54 65
3 53 65 64
3 55 56 67
3 55 67 66
3 56 57 68
3 56 68 67
3 57 58 69
3 57 69 68
3 58 59 70
3 58 70 69
3 59 60 71
3 59 71 70
3 60 61 72
3 60 72 71
3 61 62 73
3 61 73 72
3 62 63 74
3 62 74 73
3 63 64 75
3 63 75 74
3 64 65 76
3 64 76 75
3 66 67 78
3 66 78 77
3 67 68 79
3 67 79 78
3 68 69 80
3 68 80 79
3 69 70 81
3 69 81 80
3 70 71 82
3 70 82 81
3 71 72 83
3 71 83 82
3 72 73 84
3 72 84 83
3 73 74 85
3 73 85 84
3 74 75 86
3 74 86 85
3 75 76 87
3 75 87 86
3 77 78 89
3 77 89 88
3 78 79 90
3 78 90 89
3 79 80 91
3 79 91 90
3 80 81 92
3 80 92 91
3 81 82 93
3 81 93 92
3 82 83 94
3 82 94 93
3 83 84 95
3 83 95 94
3 84 85 96
3 84 96 95
3 85 86 97
3 85 97 96
3 86 87 98
3 86 98 97
3 88 89 100
3 88 100 99
3 89 90 101
3 89 101 100
3 90 91 102
3 90 102 101
3 91 92 103
3 91 103 102
3 92 93 104
3 92 104 103
3 93 94 105
3 93 105 104
3 94 95 106
3 94 106 105
3 95 96 107
3 95 107 106
3 96 97 108
3 96 108 107
3 97 98 109
3 97 109 108
3 99 100 111
3 99 111 110
3 100 101 112
3 100 112 111
3 101 102 113
3 101 113 112
3 102 103 114
3 102 114 113
3 103 104 115
3 103 115 114
3 104 105 116
3 104 116 115
3 105 106 117
3 105 117 116
3 106 107 118
3 106 118 117
3 107 108 119
3 107 119 118
3 108 109 120
3 108 120 119
3 110 111 122
3 110 122 121
3 111 112 123
3 111 123 122
3 112 113 124
3 112 124 123
3 113 114 125
3 113 125 124
3 114 115 126
3 114 126 125
3 115 116 127
3 115 127 126
3 116 117 128
3 116 128 127
3 117 118 129
3 117 129 128
3 118 119 130
3 118 130 129
3 119 120 131
3 119 131 130
3 121 122 133
3 121 133 132
3 122 123 134
3 122 134 133
3 123 124 135
3 123 135 134
3 124 125 136
3 124 136 135
3 125 126 137
3 125 137 136
3 126 127 138
3 126 138 137
3 127 128 139
3 127 139 138
3 128 129 140
3 128 140 139
3 129 130 141
3 129 141 140
3 130 131 142
3 130 142 141
3 132 133 144
3 132 144 143
3 133 134 145
3 133 145 144
3 134 135 146
3 134 146 145
3 135 136 147
3 135 147 146
3 136 137 148
3 136 148 147
3 137 138 149
3 137 149 148
3 138 139 150
3 138 150 149
3 139 140 151
3 139 151 150
3 140 141 152
3 140 152 151
3 141 142 153
3 141 153 152
3 143 144 155
3 143 155 154
3 144 145 156
3 144 156 155
3 145 146 157
3 145 157 156
3 146 147 158
3 146 158 157
3 147 148 159
3 147 159 158
3 148 149 160
3 148 160 159
3 149 150 161
3 149 161 160
3 150 151 162
3 150 162 161
3 151 152 163
3 151 163 162
3 152 153 164
3 152 164 163
3 154 155 166
3 154 166 165
3 155 156 167
3 155 167 166
3 156 157 168
3 156 168 167
3 157 158 169
3 157 169 168
3 158 159 170
3 158 170 169
3 159 160 171
3 159 171 170
3 160 161 172
3 160 172 171
3 161 162 173
3 161 173 172
3 162 163 174
3 162 174 173
3 163 164 175
3 163 175 174
3 165 166 177
3 165 177 176
3 166 167 178
3 166 178 177
3 167 168 179
3 167 179 178
3 168 169 180
3 168 180 179
3 169 170 181
3 169 181 180
3 170 171 182
3 170 182 181
3 171 172 183
3 171 183 182
3 172 173 184
3 172 184 183
3 173 174 185
3 173 185 184
3 174 175 186
3 174 186 185
3 176 177 188
3 176 188 187
3 177 178 189
3 177 189 188
3 178 179 190
3 178 190 189
3 179 180 191
3 179 191 190
3 180 181 192
3 180 192 191
3 181 182 193
3 181 193 192
3 182 183 194
3 182 194 193
3 183 184 195
3 183 195 194
3 184 185 196
3 184 196 195
3 185 186 197
3 185 197 196
3 187 188 199
3 187 199 198
3 188 189 200
3 188 200 199
3 189 190 201
3 189 201 200
3 190 191 202
3 190 202 201
3 191 192 203
3 191 203 202
3 192 193 204
3 192 204 203
3 193 194 205
3 193 205 204
3 194 195 206
3 194 206 205
3 195 196 207
3 195 207 206
3 196 197 208
3 196 208 207
3 198 199 210
3 198 210 209
3 199 200 211
3 199 211 210
3 200 201 212
3 200 212 211
3 201 202 213
3 201 213 212
3 202 203 214
3 202 214 213
3 203 204 215
3 203 215 214
3 204 205 216
3 204 216 215
3 205 206 217
3 205 217 216
3 206 207 218
3 206 218 217
3 207 208 219
3 207 219 218
3 209 210 221
3 209 221 220
3 210 211 222
3 210 222 221
3 211 212 223
3 211 223 222
3 212 213 224
3 212 224 223
3 213 214 225
3 213 225 224
3 214 215 226
3 214 226 225
3 215 216 227
3 215 227 226
3 216 217 228
3 216 228 227
3 217 218 229
3 217 229 228
3 218 219 230
3 218 230 229
CELL_TYPES 400
5
5
5
5
5
5
5
5
5
5
5
5
5
5
5
5
5
5
5
5
5
5
5
5
5
5
5
5
5
5
5
5
5
5
5
5
5
5
5
5
5
5
5
5
5
5
5
5
5
5
5
5
5
5
5
5
5
5
5
5
5
5
5
5
5
5
5
5
5
5
5
5
5
5
5
5
5
5
5
5
5
5
5
5
5
5
5
5
5
5
5
5
5
5
5
5
5
5
5
5
5
5
5
5
5
5
5
5
5
5
5
5
5
5
5
5
5
5
5
5
5
5
5
5
5
5
5
5
5
5
5
5
5
5
5
5
5
5
5
5
5
5
5
5
5
5
5
5
5
5
5
5
5
5
5
5
5
5
5
5
5
5
5
5
5
5
5
5
5
5
5
5
5
5
5
5
5
5
5
5
5
5
5
5
5
5
5
5
5
5
5
5
5
5
5
5
5
5
5
5
5
5
5
5
5
5
5
5
5
5
5
5
5
5
5
5
5
5
5
5
5
5
5
5
5
5
5
5
5
5
5
5
5
5
5
5
5
5
5
5
5
5
5
5
5
5
5
5
5
5
5
5
5
5
5
5
5
5
5
5
5
5
5
5
5
5
5
5
5
5
5
5
5
5
5
5
5
5
5
5
5
5
5
5
5
5
5
5
5
5
5
5
5
5
5
5
5
5
5
5
5
5
5
5
5
5
5
5
5
5
5
5
5
5
5
5
5
5
5
5
5
5
5
5
5
5
5
5
5
5
5
5
5
5
5
5
5
5
5
5
5
5
5
5
5
5
5
5
5
5
5
5
5
5
5
5
5
5
5
5
5
5
5
5
5
5
5
5
5
5
5
5
5
5
5
5
5
5
5
5
5
5
5
5
5
5
5
5
5
5
5
5
5
5
5
5
5
5
5
5
POINT_DATA 231
SCALARS psi double 1
LOOKUP_TABLE default
0
0
0
0
0
0
0
0
0
0
0
0
-0.171868
-0.202548
-0.0658479
0.124582
0.211975
0.124538
-0.0652994
-0.200363
-0.170418
0
0
-0.283874
-0.333798
-0.108474
0.205442
0.349496
0.205293
-0.107767
-0.330645
-0.280038
0
0
-0.386614
-0.454031
-0.147444
0.279736
0.475703
0.279316
-0.146905
-0.450558
-0.381171
0
0
-0.485076
-0.569457
-0.184898
0.351115
0.597006
0.350489
-0.184541
-0.566032
-0.479118
0
0
-0.576866
-0.67732
-0.219957
0.417822
0.710458
0.417102
-0.21973
-0.674161
-0.571253
0
0
-0.657822
-0.772634
-0.251022
0.476728
0.810783
0.476088
-0.2508
-0.769877
-0.653101
0
0
-0.723316
-0.849895
-0.276249
0.524483
0.892201
0.524005
-0.276011
-0.847674
-0.719732
0
0
-0.770926
-0.906121
-0.294619
0.559301
0.951589
0.558973
-0.294437
-0.904571
-0.768499
0
0
-0.799726
-0.940254
-0.305803
0.580507
0.987822
0.580341
-0.305705
-0.939459
-0.798501
0
0
-0.808996
-0.951457
-0.309527
0.587579
1
0.587579
-0.309527
-0.951457
-0.808996
0
0
-0.798501
-0.939459
-0.305705
0.580341
0.987822
0.580507
-0.305803
-0.940254
-0.799726
0
0
-0.768499
-0.904571
-0.294437
0.558973
0.951589
0.559301
-0.294619
-0.906121
-0.770926
0
0
-0.719732
-0.847674
-0.276011
0.524005
0.892201
0.524483
-0.276249
-0.849895
-0.723316
0
0
-0.653101
-0.769877
-0.2508
0.476088
0.810783
0.476728
-0.251022
-0.772634
-0.657822
0
0
-0.571253
-0.674161
-0.21973
0.417102
0.710458
0.417822
-0.219957
-0.67732
-0.576866
0
0
-0.479118
-0.566032
-0.184541
0.350489
0.597006
0.351115
-0.184898
-0.569457
-0.485076
0
0
-0.381171
-0.450558
-0.146905
0.279316
0.475703
0.279736
-0.147444
-0.454031
-0.386614
0
0
-0.280038
-0.330645
-0.107767
0.205293
0.349496
0.205442
-0.108474
-0.333798
-0.283874
0
0
-0.170418
-0.200363
-0.0652994
0.124538
0.211975
0.124582
-0.0658479
-0.202548
-0.171868
0
0
0
0
0
0
0
0
0
0
0
0
VECTORS Et double
0.24579 0.0350245 0
0.145598 0.657384 0
-0.0798057 0.773005 0
-0.245316 0.251307 0
-0.208346 -0.475935 0
9.78649e-05 -0.809674 0
0.208087 -0.475615 0
0.243919 0.249615 0
0.0785043 0.766383 0
-0.162991 0.650238 0
-0.242833 0.0345629 0
0.319986 0.0440705 0
0.190625 0.544105 0
-0.101977 0.639524 0
-0.313299 0.207811 0
-0.266098 -0.394188 0
0.00014378 -0.670436 0
0.265822 -0.393715 0
0.311643 0.207028 0
0.10028 0.635561 0
-0.198678 0.539453 0
-0.315189 0.0478579 0
0.407529 0.0521224 0
0.240434 0.493794 0
-0.127977 0.580787 0
-0.393036 0.188635 0
-0.333851 -0.35839 0
0.000196803 -0.609402 0
0.333571 -0.357775 0
0.391143 0.188517 0
0.12588 0.578609 0
-0.246878 0.492507 0
-0.402321 0.0558142 0
0.506132 0.0561788 0
0.296516 0.463266 0
-0.15739 0.545586 0
-0.483291 0.177212 0
-0.410565 -0.336924 0
0.000250315 -0.572926 0
0.410295 -0.336357 0
0.48122 0.177443 0
0.15495 0.544718 0
-0.301921 0.4652 0
-0.500529 0.0597569 0
0.612143 0.0549968 0
0.357782 0.431334 0
-0.189467 0.508632 0
-0.581822 0.165296 0
-0.49435 -0.314261 0
0.000296331 -0.534534 0
0.494103 -0.31389 0
0.579666 0.16567 0
0.186808 0.50886 0
-0.361231 0.435102 0
-0.6063 0.058468 0
0.720068 0.0481305 0
0.42152 0.387799 0
-0.22262 0.457534 0
-0.683819 0.148824 0
-0.581129 -0.282807 0
0.000319728 -0.481258 0
0.580915 -0.282729 0
0.68171 0.149222 0
0.219935 0.458756 0
-0.421875 0.391375 0
-0.714265 0.0513503 0
0.817022 0.0395073 0
0.479713 0.329128 0
-0.252541 0.387711 0
-0.776083 0.126258 0
-0.659679 -0.239781 0
0.000312158 -0.40829 0
0.659504 -0.240002 0
0.774186 0.126653 0
0.250074 0.38983 0
-0.478353 0.332537 0
-0.81181 0.0416268 0
0.895416 0.0312059 0
0.526115 0.255925 0
-0.276693 0.301646 0
-0.850812 0.098352 0
-0.723384 -0.186759 0
0.000264262 -0.318241 0
0.723247 -0.18718 0
0.84926 0.0988035 0
0.27468 0.304503 0
-0.52482 0.260205 0
-0.891102 0.0320917 0
0.9533 0.0215435 0
0.560277 0.174459 0
-0.294482 0.206071 0
-0.906143 0.0673035 0
-0.770621 -0.127873 0
0.000193193 -0.218114 0
0.770532 -0.128412 0
0.905049 0.0678364 0
0.293057 0.209422 0
-0.559382 0.179393 0
-0.95025 0.0221937 0
0.9886 0.0107834 0
0.581204 0.0873193 0
-0.305277 0.103785 0
-0.940058 0.0340481 0
-0.799693 -0.0648278 0
0.000108533 -0.110859 0
0.799638 -0.0654383 0
0.93946 0.0346553 0
0.304569 0.107422 0
-0.580753 0.0925423 0
-0.987052 0.0114756 0
1 -0.000351735 0
0.588113 -0.00265641 0
-0.308673 -0.00185576 0
-0.951337 -0.000311787 0
-0.809472 0.000310345 0
3.32253e-10 -8.99032e-06 0
0.809492 -0.000310352 0
0.951335 0.000308728 0
0.308684 0.0018708 0
-0.588081 0.00268273 0
-0.999933 0.000351712 0
0.987073 -0.0114759 0
0.580744 -0.092537 0
-0.304554 -0.107404 0
-0.93951 -0.0346476 0
-0.79965 0.0654345 0
-9.83243e-05 0.110839 0
0.79972 0.0648368 0
0.940064 -0.0340461 0
0.305279 -0.103778 0
-0.581271 -0.0873297 0
-0.988838 -0.0107859 0
0.950313 -0.0221952 0
0.559381 -0.179357 0
-0.293077 -0.209409 0
-0.905054 -0.0678416 0
-0.770533 0.128413 0
-0.000198314 0.218073 0
0.770662 0.127887 0
0.906139 -0.0673096 0
0.294472 -0.206031 0
-0.560224 -0.174419 0
-0.953031 -0.0215374 0
0.891135 -0.0320929 0
0.524832 -0.2602 0
-0.274678 -0.304486 0
-0.849262 -0.0988044 0
-0.723224 0.187177 0
-0.000261861 0.318237 0
0.723395 0.186762 0
0.850834 -0.0983551 0
0.276652 -0.301549 0
-0.526195 -0.255943 0
-0.895219 -0.031199 0
0.811753 -0.0416239 0
0.478356 -0.332563 0
-0.25008 -0.38983 0
-0.774174 -0.126651 0
-0.659513 0.240008 0
-0.000322729 0.408314 0
0.659707 0.239795 0
0.77613 -0.126273 0
0.252543 -0.387702 0
-0.479688 -0.329126 0
-0.817027 -0.0395075 0
0.714275 -0.051351 0
0.421881 -0.391383 0
-0.219936 -0.458757 0
-0.681705 -0.149219 0
-0.580918 0.282723 0
-0.000329494 0.481261 0
0.581135 0.282799 0
0.683824 -0.148837 0
0.222605 -0.457554 0
-0.421479 -0.387763 0
-0.719535 -0.0480948 0
0.606298 -0.0584678 0
0.361226 -0.435095 0
-0.186814 -0.508863 0
-0.579672 -0.165671 0
-0.494131 0.313921 0
-0.000293112 0.534527 0
0.494374 0.314272 0
0.581831 -0.165295 0
0.18947 -0.508672 0
-0.357794 -0.431382 0
-0.612271 -0.0550083 0
0.500528 -0.0597569 0
0.30192 -0.465201 0
-0.154948 -0.544705 0
-0.481215 -0.177442 0
-0.410277 0.336343 0
-0.000252126 0.572901 0
0.41059 0.336941 0
0.48329 -0.177215 0
0.157381 -0.54548 0
-0.296539 -0.463322 0
-0.506463 -0.0562156 0
0.402321 -0.0558141 0
0.246879 -0.492512 0
-0.125882 -0.578613 0
-0.391146 -0.188518 0
-0.333588 0.3578 0
-0.000197704 0.609388 0
0.333813 0.358344 0
0.393146 -0.188692 0
0.128016 -0.581029 0
-0.240529 -0.493972 0
-0.407182 -0.0520781 0
0.315187 -0.0478576 0
0.198681 -0.539458 0
-0.100276 -0.635554 0
-0.311663 -0.207039 0
-0.265818 0.393714 0
-0.000152167 0.670378 0
0.266154 0.39428 0
0.313276 -0.207791 0
0.102042 -0.639968 0
-0.190465 -0.543628 0
-0.319426 -0.0439933 0
0.242833 -0.0345629 0
0.162989 -0.650232 0
-0.078502 -0.76636 0
-0.243918 -0.249613 0
-0.208071 0.475579 0
-9.78713e-05 0.809725 0
0.208301 0.475832 0
0.245262 -0.251253 0
0.0797883 -0.772836 0
-0.145656 -0.657647 0
-0.244901 -0.0348979 0
