# vtk DataFile Version 3.0
tp3485 cell-vector
ASCII
DATASET UNSTRUCTURED_GRID
POINTS 66 double
0 0 0
0.1 0 0
0.2 0 0
0.3 0 0
0.4 0 0
0.5 0 0
0.6 0 0
0.7 0 0
0.8 0 0
0.9 0 0
1 0 0
0 0.09 0
0.1 0.09 0
0.2 0.09 0
0.3 0.09 0
0.4 0.09 0
0.5 0.09 0
0.6 0.09 0
0.7 0.09 0
0.8 0.09 0
0.9 0.09 0
1 0.09 0
0 0.18 0
0.1 0.18 0
0.2 0.18 0
0.3 0.18 0
0.4 0.18 0
0.5 0.18 0
0.6 0.18 0
0.7 0.18 0
0.8 0.18 0
0.9 0.18 0
1 0.18 0
0 0.27 0
0.1 0.27 0
0.2 0.27 0
0.3 0.27 0
0.4 0.27 0
0.5 0.27 0
0.6 0.27 0
0.7 0.27 0
0.8 0.27 0
0.9 0.27 0
1 0.27 0
0 0.36 0
0.1 0.36 0
0.2 0.36 0
0.3 0.36 0
0.4 0.36 0
0.5 0.36 0
0.6 0.36 0
0.7 0.36 0
0.8 0.36 0
0.9 0.36 0
1 0.36 0
0 0.45 0
0.1 0.45 0
0.2 0.45 0
0.3 0.45 0
0.4 0.45 0
0.5 0.45 0
0.6 0.45 0
0.7 0.45 0
0.8 0.45 0
0.9 0.45 0
1 0.45 0
CELLS 100 400
3 0 1 12
3 0 12 11
3 1 2 13
3 1 13 12
3 2 3 14
3 2 14 13
3 3 4 15
3 3 15 14
3 4 5 16
3 4 16 15
3 5 6 17
3 5 17 16
3 6 7 18
3 6 18 17
3 7 8 19
3 7 19 18
3 8 9 20
3 8 20 19
3 9 10 21
3 9 21 20
3 11 12 23
3 11 23 22
3 12 13 24
3 12 24 23
3 13 14 25
3 13 25 24
3 14 15 26
3 14 26 25
3 15 16 27
3 15 27 26
3 16 17 28
3 16 28 27
3 17 18 29
3 17 29 28
3 18 19 30
3 18 30 29
3 19 20 31
3 19 31 30
3 20 21 32
3 20 32 31
3 22 23 34
3 22 34 33
3 23 24 35
3 23 35 34
3 24 25 36
3 24 36 35
3 25 26 37
3 25 37 36
3 26 27 38
3 26 38 37
3 27 28 39
3 27 39 38
3 28 29 40
3 28 40 39
3 29 30 41
3 29 41 40
3 30 31 42
3 30 42 41
3 31 32 43
3 31 43 42
3 33 34 45
3 33 45 44
3 34 35 46
3 34 46 45
3 35 36 47
3 35 47 46
3 36 37 48
3 36 48 47
3 37 38 49
3 37 49 48
3 38 39 50
3 38 50 49
3 39 40 51
3 39 51 50
3 40 41 52
3 40 52 51
3 41 42 53
3 41 53 52
3 42 43 54
3 42 54 53
3 44 45 56
3 44 56 55
3 45 46 57
3 45 57 56
3 46 47 58
3 46 58 57
3 47 48 59
3 47 59 58
3 48 49 60
3 48 60 59
3 49 50 61
3 49 61 60
3 50 51 62
3 50 62 61
3 51 52 63
3 51 63 62
3 52 53 64
3 52 64 63
3 53 54 65
3 53 65 64
CELL_TYPES 100
5
5
5
5
5
5
5
5
5
5
5
5
5
5
5
5
5
5
5
5
5
5
5
5
5
5
5
5
5
5
5
5
5
5
5
5
5
5
5
5
5
5
5
5
5
5
5
5
5
5
5
5
5
5
5
5
5
5
5
5
5
5
5
5
5
5
5
5
5
5
5
5
5
5
5
5
5
5
5
5
5
5
5
5
5
5
5
5
5
5
5
5
5
5
5
5
5
5
5
5
CELL_DATA 100
VECTORS Et double
3.5899e-13 -0.36565 0
-0.329085 -3.76643e-13 0
3.72585e-13 0.487174 0
0.767542 -0.36565 0
3.90438e-13 -0.264773 0
-0.676753 0.487174 0
4.07581e-13 0.355887 0
0.558594 -0.264773 0
4.0563e-13 0.267601 0
-0.0794577 0.355887 0
3.94452e-13 -0.493482 0
-0.684975 0.267601 0
3.82809e-13 0.394551 0
0.79923 -0.493482 0
3.7335e-13 0.331641 0
-0.0566186 0.394551 0
3.66087e-13 -0.337946 0
-0.602628 0.331641 0
3.71514e-13 4.12793e-13 0
0.304151 -0.337946 0
-0.329085 -0.0666768 0
-0.389094 -1.99732e-13 0
0.767542 0.000181743 0
0.827714 -0.0666768 0
-0.676753 -0.220111 0
-0.875017 0.000181743 0
0.558594 -0.610833 0
0.206945 -0.220111 0
-0.0794577 -0.171539 0
0.315907 -0.610833 0
-0.684975 0.193427 0
-0.356506 -0.171539 0
0.79923 -0.393759 0
0.270763 0.193427 0
-0.0566186 -0.536019 0
-0.184652 -0.393759 0
-0.602628 0.241498 0
0.097137 -0.536019 0
0.304151 2.85116e-13 0
0.0868026 0.241498 0
-0.389094 0.528774 0
0.0868026 5.42466e-14 0
0.827714 -0.282979 0
0.097137 0.528774 0
-0.875017 0.484093 0
-0.184652 -0.282979 0
0.206945 0.555002 0
0.270763 0.484093 0
0.315907 -0.192123 0
-0.356506 0.555002 0
-0.356506 0.555002 0
0.315907 -0.192123 0
0.270763 0.484093 0
0.206945 0.555002 0
-0.184652 -0.282979 0
-0.875017 0.484093 0
0.097137 0.528774 0
0.827714 -0.282979 0
0.0868026 4.13835e-14 0
-0.389094 0.528774 0
0.0868026 0.241498 0
0.304151 2.86646e-13 0
0.097137 -0.536019 0
-0.602628 0.241498 0
-0.184652 -0.393759 0
-0.0566186 -0.536019 0
0.270763 0.193427 0
0.79923 -0.393759 0
-0.356506 -0.171539 0
-0.684975 0.193427 0
0.315907 -0.610833 0
-0.0794577 -0.171539 0
0.206945 -0.220111 0
0.558594 -0.610833 0
-0.875017 0.000181743 0
-0.676753 -0.220111 0
0.827714 -0.0666768 0
0.767542 0.000181743 0
-0.389094 -2.28053e-13 0
-0.329085 -0.0666768 0
0.304151 -0.337946 0
3.73346e-13 4.14829e-13 0
-0.602628 0.331641 0
3.72563e-13 -0.337946 0
-0.0566186 0.394551 0
3.78795e-13 0.331641 0
0.79923 -0.493482 0
3.83341e-13 0.394551 0
-0.684975 0.267601 0
3.75557e-13 -0.493482 0
-0.0794577 0.355887 0
3.79826e-13 0.267601 0
0.558594 -0.264773 0
3.83053e-13 0.355887 0
-0.676753 0.487174 0
3.96038e-13 -0.264773 0
0.767542 -0.36565 0
3.94674e-13 0.487174 0
-0.329085 -3.97446e-13 0
3.77996e-13 -0.36565 0
