# vtk DataFile Version 3.0
tp3485 cell-vector
ASCII
DATASET UNSTRUCTURED_GRID
POINTS 66 double
0 0 0
0.1 0 0
0.2 0 0
0.3 0 0
0.4 0 0
0.5 0 0
0.6 0 0
0.7 0 0
0.8 0 0
0.9 0 0
1 0 0
0 0.09 0
0.1 0.09 0
0.2 0.09 0
0.3 0.09 0
0.4 0.09 0
0.5 0.09 0
0.6 0.09 0
0.7 0.09 0
0.8 0.09 0
0.9 0.09 0
1 0.09 0
0 0.18 0
0.1 0.18 0
0.2 0.18 0
0.3 0.18 0
0.4 0.18 0
0.5 0.18 0
0.6 0.18 0
0.7 0.18 0
0.8 0.18 0
0.9 0.18 0
1 0.18 0
0 0.27 0
0.1 0.27 0
0.2 0.27 0
0.3 0.27 0
0.4 0.27 0
0.5 0.27 0
0.6 0.27 0
0.7 0.27 0
0.8 0.27 0
0.9 0.27 0
1 0.27 0
0 0.36 0
0.1 0.36 0
0.2 0.36 0
0.3 0.36 0
0.4 0.36 0
0.5 0.36 0
0.6 0.36 0
0.7 0.36 0
0.8 0.36 0
0.9 0.36 0
1 0.36 0
0 0.45 0
0.1 0.45 0
0.2 0.45 0
0.3 0.45 0
0.4 0.45 0
0.5 0.45 0
0.6 0.45 0
0.7 0.45 0
0.8 0.45 0
0.9 0.45 0
1 0.45 0
CELLS 100 400
3 0 1 12
3 0 12 11
3 1 2 13
3 1 13 12
3 2 3 14
3 2 14 13
3 3 4 15
3 3 15 14
3 4 5 16
3 4 16 15
3 5 6 17
3 5 17 16
3 6 7 18
3 6 18 17
3 7 8 19
3 7 19 18
3 8 9 20
3 8 20 19
3 9 10 21
3 9 21 20
3 11 12 23
3 11 23 22
3 12 13 24
3 12 24 23
3 13 14 25
3 13 25 24
3 14 15 26
3 14 26 25
3 15 16 27
3 15 27 26
3 16 17 28
3 16 28 27
3 17 18 29
3 17 29 28
3 18 19 30
3 18 30 29
3 19 20 31
3 19 31 30
3 20 21 32
3 20 32 31
3 22 23 34
3 22 34 33
3 23 24 35
3 23 35 34
3 24 25 36
3 24 36 35
3 25 26 37
3 25 37 36
3 26 27 38
3 26 38 37
3 27 28 39
3 27 39 38
3 28 29 40
3 28 40 39
3 29 30 41
3 29 41 40
3 30 31 42
3 30 42 41
3 31 32 43
3 31 43 42
3 33 34 45
3 33 45 44
3 34 35 46
3 34 46 45
3 35 36 47
3 35 47 46
3 36 37 48
3 36 48 47
3 37 38 49
3 37 49 48
3 38 39 50
3 38 50 49
3 39 40 51
3 39 51 50
3 40 41 52
3 40 52 51
3 41 42 53
3 41 53 52
3 42 43 54
3 42 54 53
3 44 45 56
3 44 56 55
3 45 46 57
3 45 57 56
3 46 47 58
3 46 58 57
3 47 48 59
3 47 59 58
3 48 49 60
3 48 60 59
3 49 50 61
3 49 61 60
3 50 51 62
3 50 62 61
3 51 52 63
3 51 63 62
3 52 53 64
3 52 64 63
3 53 54 65
3 53 65 64
CELL_TYPES 100
5
5
5
5
5
5
5
5
5
5
5
5
5
5
5
5
5
5
5
5
5
5
5
5
5
5
5
5
5
5
5
5
5
5
5
5
5
5
5
5
5
5
5
5
5
5
5
5
5
5
5
5
5
5
5
5
5
5
5
5
5
5
5
5
5
5
5
5
5
5
5
5
5
5
5
5
5
5
5
5
5
5
5
5
5
5
5
5
5
5
5
5
5
5
5
5
5
5
5
5
CELL_DATA 100
VECTORS Et double
0.127408 -0.298176 0
0.245292 -0.143797 0
0.06076 -0.627741 0
0.118774 -0.532216 0
-0.0326982 -0.704383 0
-0.0734631 -0.695336 0
-0.111121 -0.532344 0
-0.265238 -0.576311 0
-0.140322 -0.262774 0
-0.405338 -0.266551 0
-0.109291 -0.148108 0
-0.491272 0.0240097 0
-0.0436465 0.0696638 0
-0.116003 0.0374452 0
-0.0169411 0.0846494 0
-0.108709 0.142975 0
-0.0068556 0.0458763 0
-0.0831115 0.11323 0
-0.00366646 -0.00407385 0
-0.0671633 0.057949 0
0.464968 -0.182977 0
0.538919 -0.0824287 0
0.2466 -0.396865 0
0.287121 -0.3378 0
-0.0942966 -0.444671 0
-0.110314 -0.448263 0
-0.424043 -0.329606 0
-0.509219 -0.370557 0
-0.63025 -0.154194 0
-0.788319 -0.165517 0
-0.684021 -0.0831094 0
-0.921253 0.0252835 0
-0.20276 0.0524243 0
-0.2472 0.0348561 0
-0.142108 0.057862 0
-0.200739 0.097708 0
-0.0962543 0.0308652 0
-0.144807 0.0750617 0
-0.0734188 -0.00249513 0
-0.113824 0.0378076 0
0.63308 -0.0100028 0
0.628211 0.00880064 0
0.346983 -0.0322739 0
0.34978 -0.0278005 0
-0.112561 -0.0244592 0
-0.0984408 -0.0443701 0
-0.570514 0.00721973 0
-0.551773 -0.0254731 0
-0.87753 0.0345807 0
-0.866008 0.0132391 0
-0.996523 0.0329236 0
-0.999229 0.0392611 0
-0.280757 0.0233794 0
-0.284845 0.0349812 0
-0.21286 0.0129147 0
-0.216857 0.0214445 0
-0.149089 0.00576707 0
-0.151748 0.0111228 0
-0.115422 0.000321469 0
-0.117453 0.00425928 0
0.56323 0.153711 0
0.472983 0.095292 0
0.317464 0.325979 0
0.275298 0.279216 0
-0.0871445 0.395619 0
-0.0502372 0.362267 0
-0.499594 0.35004 0
-0.382808 0.328044 0
-0.789637 0.232132 0
-0.611928 0.202874 0
-0.926514 0.155232 0
-0.696352 0.0618532 0
-0.24975 -0.00577091 0
-0.215551 0.0375252 0
-0.201794 -0.0329438 0
-0.150781 -0.056265 0
-0.14481 -0.01984 0
-0.100955 -0.054121 0
-0.113267 0.00329102 0
-0.0763129 -0.0298866 0
0.27613 0.246909 0
0.129086 0.143429 0
0.16193 0.54171 0
0.0862286 0.466152 0
-0.0355569 0.654552 0
0.00916879 0.615758 0
-0.244608 0.566587 0
-0.0720746 0.55338 0
-0.403504 0.362081 0
-0.125217 0.329043 0
-0.501825 0.237808 0
-0.127591 0.0832755 0
-0.122636 -0.0244745 0
-0.0683297 0.0423712 0
-0.113008 -0.0623315 0
-0.0274084 -0.106192 0
-0.0847226 -0.0362011 0
-0.0114493 -0.095849 0
-0.0674269 0.00528185 0
-0.00573253 -0.0516161 0
