# vtk DataFile Version 3.0
tp3485 cell-vector
ASCII
DATASET UNSTRUCTURED_GRID
POINTS 66 double
0 0 0
0.1 0 0
0.2 0 0
0.3 0 0
0.4 0 0
0.5 0 0
0.6 0 0
0.7 0 0
0.8 0 0
0.9 0 0
1 0 0
0 0.09 0
0.1 0.09 0
0.2 0.09 0
0.3 0.09 0
0.4 0.09 0
0.5 0.09 0
0.6 0.09 0
0.7 0.09 0
0.8 0.09 0
0.9 0.09 0
1 0.09 0
0 0.18 0
0.1 0.18 0
0.2 0.18 0
0.3 0.18 0
0.4 0.18 0
0.5 0.18 0
0.6 0.18 0
0.7 0.18 0
0.8 0.18 0
0.9 0.18 0
1 0.18 0
0 0.27 0
0.1 0.27 0
0.2 0.27 0
0.3 0.27 0
0.4 0.27 0
0.5 0.27 0
0.6 0.27 0
0.7 0.27 0
0.8 0.27 0
0.9 0.27 0
1 0.27 0
0 0.36 0
0.1 0.36 0
0.2 0.36 0
0.3 0.36 0
0.4 0.36 0
0.5 0.36 0
0.6 0.36 0
0.7 0.36 0
0.8 0.36 0
0.9 0.36 0
1 0.36 0
0 0.45 0
0.1 0.45 0
0.2 0.45 0
0.3 0.45 0
0.4 0.45 0
0.5 0.45 0
0.6 0.45 0
0.7 0.45 0
0.8 0.45 0
0.9 0.45 0
1 0.45 0
CELLS 100 400
3 0 1 12
3 0 12 11
3 1 2 13
3 1 13 12
3 2 3 14
3 2 14 13
3 3 4 15
3 3 15 14
3 4 5 16
3 4 16 15
3 5 6 17
3 5 17 16
3 6 7 18
3 6 18 17
3 7 8 19
3 7 19 18
3 8 9 20
3 8 20 19
3 9 10 21
3 9 21 20
3 11 12 23
3 11 23 22
3 12 13 24
3 12 24 23
3 13 14 25
3 13 25 24
3 14 15 26
3 14 26 25
3 15 16 27
3 15 27 26
3 16 17 28
3 16 28 27
3 17 18 29
3 17 29 28
3 18 19 30
3 18 30 29
3 19 20 31
3 19 31 30
3 20 21 32
3 20 32 31
3 22 23 34
3 22 34 33
3 23 24 35
3 23 35 34
3 24 25 36
3 24 36 35
3 25 26 37
3 25 37 36
3 26 27 38
3 26 38 37
3 27 28 39
3 27 39 38
3 28 29 40
3 28 40 39
3 29 30 41
3 29 41 40
3 30 31 42
3 30 42 41
3 31 32 43
3 31 43 42
3 33 34 45
3 33 45 44
3 34 35 46
3 34 46 45
3 35 36 47
3 35 47 46
3 36 37 48
3 36 48 47
3 37 38 49
3 37 49 48
3 38 39 50
3 38 50 49
3 39 40 51
3 39 51 50
3 40 41 52
3 40 52 51
3 41 42 53
3 41 53 52
3 42 43 54
3 42 54 53
3 44 45 56
3 44 56 55
3 45 46 57
3 45 57 56
3 46 47 58
3 46 58 57
3 47 48 59
3 47 59 58
3 48 49 60
3 48 60 59
3 49 50 61
3 49 61 60
3 50 51 62
3 50 62 61
3 51 52 63
3 51 63 62
3 52 53 64
3 52 64 63
3 53 54 65
3 53 65 64
CELL_TYPES 100
5
5
5
5
5
5
5
5
5
5
5
5
5
5
5
5
5
5
5
5
5
5
5
5
5
5
5
5
5
5
5
5
5
5
5
5
5
5
5
5
5
5
5
5
5
5
5
5
5
5
5
5
5
5
5
5
5
5
5
5
5
5
5
5
5
5
5
5
5
5
5
5
5
5
5
5
5
5
5
5
5
5
5
5
5
5
5
5
5
5
5
5
5
5
5
5
5
5
5
5
CELL_DATA 100
VECTORS Et double
0.0587306 -0.375427 0
-0.065343 -0.0861554 0
-0.0395251 -0.309332 0
0.0208854 -0.430527 0
-0.0797167 0.174685 0
0.0769831 -0.176708 0
-0.0533495 0.574401 0
0.0586502 0.326969 0
-0.0358223 0.85456 0
0.0423673 0.680779 0
-0.0125999 0.990742 0
0.0201674 0.917349 0
0.0125667 0.962039 0
-0.00474319 0.999989 0
0.0355773 0.774057 0
-0.0285723 0.916471 0
0.0526688 0.45841 0
-0.0474441 0.681347 0
0.0610471 0.0678301 0
-0.0580599 0.333945 0
0.0708044 -0.370379 0
-0.0515891 -0.0846335 0
-0.0268693 -0.308805 0
0.0299343 -0.425162 0
-0.0823644 0.174092 0
0.0750532 -0.177531 0
-0.0518706 0.574621 0
0.0618101 0.325828 0
-0.0357707 0.854405 0
0.0426659 0.680623 0
-0.0131188 0.990603 0
0.0198607 0.917042 0
0.012062 0.96221 0
-0.00502166 0.999856 0
0.0353978 0.774553 0
-0.0286295 0.916729 0
0.0530406 0.458971 0
-0.0472021 0.681951 0
0.0623034 0.0677929 0
-0.0574985 0.3346 0
0.0802895 -0.365084 0
-0.0477655 -0.0804515 0
-0.0190412 -0.300566 0
0.0321624 -0.414261 0
-0.0835557 0.18419 0
0.0745381 -0.167909 0
-0.0479341 0.577815 0
0.0618776 0.334654 0
-0.0350656 0.855027 0
0.0424797 0.682885 0
-0.013277 0.990568 0
0.0197328 0.917237 0
0.0117828 0.962246 0
-0.00506588 0.999681 0
0.0352713 0.774801 0
-0.028621 0.916776 0
0.0531965 0.459241 0
-0.0471709 0.682274 0
0.062786 0.0677484 0
-0.0574612 0.334961 0
0.0768891 -0.360122 0
-0.0567795 -0.076774 0
-0.0204904 -0.291908 0
0.0252732 -0.403357 0
-0.0838091 0.196238 0
0.0758435 -0.157322 0
-0.0465557 0.581594 0
0.0583371 0.345384 0
-0.0346218 0.855783 0
0.0417826 0.68561 0
-0.0131481 0.990556 0
0.0198474 0.91752 0
0.0117935 0.962281 0
-0.00482006 0.999511 0
0.0352379 0.775046 0
-0.0285128 0.916813 0
0.0531514 0.45951 0
-0.0473351 0.682589 0
0.0627422 0.0677033 0
-0.0579464 0.335317 0
0.0632951 -0.355715 0
-0.0686234 -0.0762483 0
-0.0294512 -0.290739 0
0.0128728 -0.398054 0
-0.0824052 0.199722 0
0.0797656 -0.156125 0
-0.0489826 0.582887 0
0.0552746 0.348166 0
-0.0347997 0.855854 0
0.0413644 0.68631 0
-0.0128422 0.990448 0
0.0202915 0.917357 0
0.0120572 0.962446 0
-0.00432254 0.999375 0
0.0352861 0.775533 0
-0.0283247 0.917048 0
0.0529067 0.460066 0
-0.0476952 0.683174 0
0.0621804 0.0676622 0
-0.0591959 0.33596 0
