# vtk DataFile Version 3.0
tp3485 cell-vector
ASCII
DATASET UNSTRUCTURED_GRID
POINTS 66 double
0 0 0
0.1 0 0
0.2 0 0
0.3 0 0
0.4 0 0
0.5 0 0
0.6 0 0
0.7 0 0
0.8 0 0
0.9 0 0
1 0 0
0 0.09 0
0.1 0.09 0
0.2 0.09 0
0.3 0.09 0
0.4 0.09 0
0.5 0.09 0
0.6 0.09 0
0.7 0.09 0
0.8 0.09 0
0.9 0.09 0
1 0.09 0
0 0.18 0
0.1 0.18 0
0.2 0.18 0
0.3 0.18 0
0.4 0.18 0
0.5 0.18 0
0.6 0.18 0
0.7 0.18 0
0.8 0.18 0
0.9 0.18 0
1 0.18 0
0 0.27 0
0.1 0.27 0
0.2 0.27 0
0.3 0.27 0
0.4 0.27 0
0.5 0.27 0
0.6 0.27 0
0.7 0.27 0
0.8 0.27 0
0.9 0.27 0
1 0.27 0
0 0.36 0
0.1 0.36 0
0.2 0.36 0
0.3 0.36 0
0.4 0.36 0
0.5 0.36 0
0.6 0.36 0
0.7 0.36 0
0.8 0.36 0
0.9 0.36 0
1 0.36 0
0 0.45 0
0.1 0.45 0
0.2 0.45 0
0.3 0.45 0
0.4 0.45 0
0.5 0.45 0
0.6 0.45 0
0.7 0.45 0
0.8 0.45 0
0.9 0.45 0
1 0.45 0
CELLS 100 400
3 0 1 12
3 0 12 11
3 1 2 13
3 1 13 12
3 2 3 14
3 2 14 13
3 3 4 15
3 3 15 14
3 4 5 16
3 4 16 15
3 5 6 17
3 5 17 16
3 6 7 18
3 6 18 17
3 7 8 19
3 7 19 18
3 8 9 20
3 8 20 19
3 9 10 21
3 9 21 20
3 11 12 23
3 11 23 22
3 12 13 24
3 12 24 23
3 13 14 25
3 13 25 24
3 14 15 26
3 14 26 25
3 15 16 27
3 15 27 26
3 16 17 28
3 16 28 27
3 17 18 29
3 17 29 28
3 18 19 30
3 18 30 29
3 19 20 31
3 19 31 30
3 20 21 32
3 20 32 31
3 22 23 34
3 22 34 33
3 23 24 35
3 23 35 34
3 24 25 36
3 24 36 35
3 25 26 37
3 25 37 36
3 26 27 38
3 26 38 37
3 27 28 39
3 27 39 38
3 28 29 40
3 28 40 39
3 29 30 41
3 29 41 40
3 30 31 42
3 30 42 41
3 31 32 43
3 31 43 42
3 33 34 45
3 33 45 44
3 34 35 46
3 34 46 45
3 35 36 47
3 35 47 46
3 36 37 48
3 36 48 47
3 37 38 49
3 37 49 48
3 38 39 50
3 38 50 49
3 39 40 51
3 39 51 50
3 40 41 52
3 40 52 51
3 41 42 53
3 41 53 52
3 42 43 54
3 42 54 53
3 44 45 56
3 44 56 55
3 45 46 57
3 45 57 56
3 46 47 58
3 46 58 57
3 47 48 59
3 47 59 58
3 48 49 60
3 48 60 59
3 49 50 61
3 49 61 60
3 50 51 62
3 50 62 61
3 51 52 63
3 51 63 62
3 52 53 64
3 52 64 63
3 53 54 65
3 53 65 64
CELL_TYPES 100
5
5
5
5
5
5
5
5
5
5
5
5
5
5
5
5
5
5
5
5
5
5
5
5
5
5
5
5
5
5
5
5
5
5
5
5
5
5
5
5
5
5
5
5
5
5
5
5
5
5
5
5
5
5
5
5
5
5
5
5
5
5
5
5
5
5
5
5
5
5
5
5
5
5
5
5
5
5
5
5
5
5
5
5
5
5
5
5
5
5
5
5
5
5
5
5
5
5
5
5
CELL_DATA 100
VECTORS Et double
-1.6723e-06 3.68989e-06 0
-3.37626e-06 1.86253e-06 0
-5.48315e-07 7.94415e-06 0
-7.4478e-07 6.55061e-06 0
9.05317e-07 1.66821e-05 0
9.63649e-06 8.27005e-06 0
8.66834e-07 0.0212059 0
0.0190748 1.46422e-05 0
6.37397e-07 0.0309143 0
0.00874102 0.0212042 0
4.94897e-07 -0.136078 0
-0.15029 0.030913 0
3.79472e-07 0.224726 0
0.324726 -0.136079 0
2.92021e-07 -0.231227 0
-0.410357 0.224726 0
2.35337e-07 0.141313 0
0.335288 -0.231228 0
2.09993e-07 2.33326e-07 0
-0.127181 0.141313 0
-5.95079e-06 1.52581e-06 0
-6.58977e-06 6.18873e-07 0
-1.98091e-06 -1.91223e-06 0
-6.69091e-06 2.73704e-06 0
9.57358e-06 -2.9455e-05 0
-1.55941e-05 -1.69274e-06 0
0.019076 0.0152941 0
0.0328667 -2.88813e-05 0
0.00874211 -0.216677 0
-0.20003 0.0152934 0
-0.150289 0.480972 0
0.477596 -0.216677 0
0.324727 -0.62309 0
-0.668929 0.480972 0
-0.410356 0.536149 0
0.63296 -0.623091 0
0.335288 -0.270833 0
-0.390995 0.536149 0
-0.12718 1.55658e-07 0
0.116569 -0.270833 0
-6.74401e-06 2.54828e-06 0
-2.58858e-06 -8.10681e-07 0
-6.18747e-06 6.94822e-06 0
3.93605e-07 1.25463e-06 0
-1.42973e-05 1.43103e-05 0
-3.44259e-06 4.85735e-06 0
0.0328672 -0.165923 0
-0.116472 1.17936e-05 0
-0.200029 0.490576 0
0.390822 -0.165924 0
0.477597 -0.743237 0
-0.632835 0.490576 0
-0.668928 0.743327 0
0.668979 -0.743237 0
0.63296 -0.490782 0
-0.477737 0.743327 0
-0.390995 0.166061 0
0.200164 -0.490782 0
0.11657 1.2114e-08 0
-0.0328851 0.166061 0
-8.1117e-07 1.1658e-07 0
2.71381e-06 -1.31792e-06 0
1.99526e-06 9.07607e-06 0
1.31875e-05 -1.73699e-06 0
-4.01152e-07 5.71146e-05 0
4.61889e-05 7.77574e-06 0
-0.116471 0.270597 0
0.127019 5.39404e-05 0
0.390822 -0.535996 0
-0.335111 0.270596 0
-0.632835 0.623085 0
0.410337 -0.535996 0
0.668979 -0.481099 0
-0.324788 0.623086 0
-0.477737 0.216818 0
0.150387 -0.481099 0
0.200163 -0.0153293 0
-0.0087699 0.216819 0
-0.0328852 -1.44383e-07 0
-0.0190896 -0.015329 0
4.63472e-06 -9.17745e-06 0
-9.63403e-07 -1.07045e-06 0
1.30093e-05 -2.251e-05 0
3.15362e-07 -9.64347e-06 0
4.34986e-05 -5.7772e-05 0
2.64784e-06 -1.86805e-05 0
0.127019 -0.141173 0
3.40513e-06 -5.06324e-05 0
-0.335112 0.231182 0
1.42904e-06 -0.141169 0
0.410336 -0.224743 0
7.61021e-07 0.231184 0
-0.324788 0.136136 0
4.83705e-07 -0.224742 0
0.150387 -0.0309591 0
3.48809e-07 0.136136 0
-0.00877034 -0.0212127 0
2.79416e-07 -0.0309584 0
-0.01909 -2.53385e-07 0
2.47521e-07 -0.0212122 0
