# vtk DataFile Version 3.0
tp3485 cell-vector
ASCII
DATASET UNSTRUCTURED_GRID
POINTS 66 double
0 0 0
0.1 0 0
0.2 0 0
0.3 0 0
0.4 0 0
0.5 0 0
0.6 0 0
0.7 0 0
0.8 0 0
0.9 0 0
1 0 0
0 0.09 0
0.1 0.09 0
0.2 0.09 0
0.3 0.09 0
0.4 0.09 0
0.5 0.09 0
0.6 0.09 0
0.7 0.09 0
0.8 0.09 0
0.9 0.09 0
1 0.09 0
0 0.18 0
0.1 0.18 0
0.2 0.18 0
0.3 0.18 0
0.4 0.18 0
0.5 0.18 0
0.6 0.18 0
0.7 0.18 0
0.8 0.18 0
0.9 0.18 0
1 0.18 0
0 0.27 0
0.1 0.27 0
0.2 0.27 0
0.3 0.27 0
0.4 0.27 0
0.5 0.27 0
0.6 0.27 0
0.7 0.27 0
0.8 0.27 0
0.9 0.27 0
1 0.27 0
0 0.36 0
0.1 0.36 0
0.2 0.36 0
0.3 0.36 0
0.4 0.36 0
0.5 0.36 0
0.6 0.36 0
0.7 0.36 0
0.8 0.36 0
0.9 0.36 0
1 0.36 0
0 0.45 0
0.1 0.45 0
0.2 0.45 0
0.3 0.45 0
0.4 0.45 0
0.5 0.45 0
0.6 0.45 0
0.7 0.45 0
0.8 0.45 0
0.9 0.45 0
1 0.45 0
CELLS 100 400
3 0 1 12
3 0 12 11
3 1 2 13
3 1 13 12
3 2 3 14
3 2 14 13
3 3 4 15
3 3 15 14
3 4 5 16
3 4 16 15
3 5 6 17
3 5 17 16
3 6 7 18
3 6 18 17
3 7 8 19
3 7 19 18
3 8 9 20
3 8 20 19
3 9 10 21
3 9 21 20
3 11 12 23
3 11 23 22
3 12 13 24
3 12 24 23
3 13 14 25
3 13 25 24
3 14 15 26
3 14 26 25
3 15 16 27
3 15 27 26
3 16 17 28
3 16 28 27
3 17 18 29
3 17 29 28
3 18 19 30
3 18 30 29
3 19 20 31
3 19 31 30
3 20 21 32
3 20 32 31
3 22 23 34
3 22 34 33
3 23 24 35
3 23 35 34
3 24 25 36
3 24 36 35
3 25 26 37
3 25 37 36
3 26 27 38
3 26 38 37
3 27 28 39
3 27 39 38
3 28 29 40
3 28 40 39
3 29 30 41
3 29 41 40
3 30 31 42
3 30 42 41
3 31 32 43
3 31 43 42
3 33 34 45
3 33 45 44
3 34 35 46
3 34 46 45
3 35 36 47
3 35 47 46
3 36 37 48
3 36 48 47
3 37 38 49
3 37 49 48
3 38 39 50
3 38 50 49
3 39 40 51
3 39 51 50
3 40 41 52
3 40 52 51
3 41 42 53
3 41 53 52
3 42 43 54
3 42 54 53
3 44 45 56
3 44 56 55
3 45 46 57
3 45 57 56
3 46 47 58
3 46 58 57
3 47 48 59
3 47 59 58
3 48 49 60
3 48 60 59
3 49 50 61
3 49 61 60
3 50 51 62
3 50 62 61
3 51 52 63
3 51 63 62
3 52 53 64
3 52 64 63
3 53 54 65
3 53 65 64
CELL_TYPES 100
5
5
5
5
5
5
5
5
5
5
5
5
5
5
5
5
5
5
5
5
5
5
5
5
5
5
5
5
5
5
5
5
5
5
5
5
5
5
5
5
5
5
5
5
5
5
5
5
5
5
5
5
5
5
5
5
5
5
5
5
5
5
5
5
5
5
5
5
5
5
5
5
5
5
5
5
5
5
5
5
5
5
5
5
5
5
5
5
5
5
5
5
5
5
5
5
5
5
5
5
CELL_DATA 100
VECTORS Et double
-0.0427244 0.158714 0
-0.0397368 0.0539617 0
0.00766077 0.215778 0
0.00236811 0.218178 0
0.0368226 0.251551 0
0.170284 0.17572 0
0.0543093 0.255109 0
0.239167 0.160346 0
0.0698876 0.246861 0
0.307691 0.127527 0
0.0831643 0.232127 0
0.370321 0.0873384 0
0.0940107 0.213399 0
0.423527 0.0457241 0
0.102394 0.190552 0
0.464719 0.00534167 0
0.108213 0.161576 0
0.49188 -0.0338512 0
0.11119 0.123544 0
0.503147 -0.0735407 0
-0.119984 0.0960146 0
-0.122432 0.031766 0
-0.00510562 0.14248 0
-0.00834554 0.140492 0
0.223491 0.159242 0
0.297064 0.12193 0
0.321401 0.15743 0
0.431259 0.104057 0
0.415806 0.149858 0
0.560134 0.0793659 0
0.500534 0.13999 0
0.67648 0.0521366 0
0.571913 0.129512 0
0.775003 0.0259551 0
0.627423 0.117956 0
0.851659 0.00231158 0
0.665014 0.103437 0
0.903427 -0.0194763 0
0.682486 0.0843857 0
0.928148 -0.0412442 0
-0.159226 -0.00142401 0
-0.162646 -0.00337004 0
-0.0182788 0.0130162 0
-0.0186286 0.00966791 0
0.316091 0.00651272 0
0.306168 0.0182974 0
0.462173 -0.00140743 0
0.456124 0.00714206 0
0.60097 -0.00725345 0
0.597052 -0.00132748 0
0.725295 -0.00923397 0
0.723303 -0.0066292 0
0.830192 -0.00664019 0
0.830054 -0.00751493 0
0.912067 -0.000603053 0
0.913402 -0.0040145 0
0.968176 0.00651962 0
0.970541 0.00209341 0
0.996298 0.0127799 0
0.999967 0.00815562 0
-0.139973 -0.0971143 0
-0.138286 -0.0385833 0
-0.0251569 -0.124347 0
-0.0212517 -0.12645 0
0.285194 -0.1496 0
0.200968 -0.0974346 0
0.425229 -0.161332 0
0.307854 -0.0950744 0
0.556037 -0.164728 0
0.406363 -0.0845465 0
0.672577 -0.158727 0
0.494175 -0.0669116 0
0.770883 -0.143292 0
0.568432 -0.0421732 0
0.847932 -0.120263 0
0.626591 -0.0115109 0
0.901529 -0.0928619 0
0.666913 0.0221959 0
0.930338 -0.0640374 0
0.689061 0.0551694 0
-0.0628147 -0.153443 0
-0.053389 -0.0593211 0
-0.0196675 -0.216007 0
-0.013469 -0.213683 0
0.149491 -0.248156 0
0.0277909 -0.179375 0
0.228304 -0.260626 0
0.045597 -0.16193 0
0.300208 -0.262122 0
0.0623517 -0.137698 0
0.363801 -0.251203 0
0.0776284 -0.105286 0
0.417432 -0.228028 0
0.0907848 -0.0645325 0
0.459754 -0.194919 0
0.101148 -0.0170688 0
0.489873 -0.156047 0
0.108206 0.033525 0
0.5077 -0.11667 0
0.111763 0.0824079 0
