# vtk DataFile Version 3.0
tp3485 cell-vector
ASCII
DATASET UNSTRUCTURED_GRID
POINTS 66 double
0 0 0
0.1 0 0
0.2 0 0
0.3 0 0
0.4 0 0
0.5 0 0
0.6 0 0
0.7 0 0
0.8 0 0
0.9 0 0
1 0 0
0 0.09 0
0.1 0.09 0
0.2 0.09 0
0.3 0.09 0
0.4 0.09 0
0.5 0.09 0
0.6 0.09 0
0.7 0.09 0
0.8 0.09 0
0.9 0.09 0
1 0.09 0
0 0.18 0
0.1 0.18 0
0.2 0.18 0
0.3 0.18 0
0.4 0.18 0
0.5 0.18 0
0.6 0.18 0
0.7 0.18 0
0.8 0.18 0
0.9 0.18 0
1 0.18 0
0 0.27 0
0.1 0.27 0
0.2 0.27 0
0.3 0.27 0
0.4 0.27 0
0.5 0.27 0
0.6 0.27 0
0.7 0.27 0
0.8 0.27 0
0.9 0.27 0
1 0.27 0
0 0.36 0
0.1 0.36 0
0.2 0.36 0
0.3 0.36 0
0.4 0.36 0
0.5 0.36 0
0.6 0.36 0
0.7 0.36 0
0.8 0.36 0
0.9 0.36 0
1 0.36 0
0 0.45 0
0.1 0.45 0
0.2 0.45 0
0.3 0.45 0
0.4 0.45 0
0.5 0.45 0
0.6 0.45 0
0.7 0.45 0
0.8 0.45 0
0.9 0.45 0
1 0.45 0
CELLS 100 400
3 0 1 12
3 0 12 11
3 1 2 13
3 1 13 12
3 2 3 14
3 2 14 13
3 3 4 15
3 3 15 14
3 4 5 16
3 4 16 15
3 5 6 17
3 5 17 16
3 6 7 18
3 6 18 17
3 7 8 19
3 7 19 18
3 8 9 20
3 8 20 19
3 9 10 21
3 9 21 20
3 11 12 23
3 11 23 22
3 12 13 24
3 12 24 23
3 13 14 25
3 13 25 24
3 14 15 26
3 14 26 25
3 15 16 27
3 15 27 26
3 16 17 28
3 16 28 27
3 17 18 29
3 17 29 28
3 18 19 30
3 18 30 29
3 19 20 31
3 19 31 30
3 20 21 32
3 20 32 31
3 22 23 34
3 22 34 33
3 23 24 35
3 23 35 34
3 24 25 36
3 24 36 35
3 25 26 37
3 25 37 36
3 26 27 38
3 26 38 37
3 27 28 39
3 27 39 38
3 28 29 40
3 28 40 39
3 29 30 41
3 29 41 40
3 30 31 42
3 30 42 41
3 31 32 43
3 31 43 42
3 33 34 45
3 33 45 44
3 34 35 46
3 34 46 45
3 35 36 47
3 35 47 46
3 36 37 48
3 36 48 47
3 37 38 49
3 37 49 48
3 38 39 50
3 38 50 49
3 39 40 51
3 39 51 50
3 40 41 52
3 40 52 51
3 41 42 53
3 41 53 52
3 42 43 54
3 42 54 53
3 44 45 56
3 44 56 55
3 45 46 57
3 45 57 56
3 46 47 58
3 46 58 57
3 47 48 59
3 47 59 58
3 48 49 60
3 48 60 59
3 49 50 61
3 49 61 60
3 50 51 62
3 50 62 61
3 51 52 63
3 51 63 62
3 52 53 64
3 52 64 63
3 53 54 65
3 53 65 64
CELL_TYPES 100
5
5
5
5
5
5
5
5
5
5
5
5
5
5
5
5
5
5
5
5
5
5
5
5
5
5
5
5
5
5
5
5
5
5
5
5
5
5
5
5
5
5
5
5
5
5
5
5
5
5
5
5
5
5
5
5
5
5
5
5
5
5
5
5
5
5
5
5
5
5
5
5
5
5
5
5
5
5
5
5
5
5
5
5
5
5
5
5
5
5
5
5
5
5
5
5
5
5
5
5
CELL_DATA 100
VECTORS Et double
0.0706783 -0.0658047 0
0.214165 -0.0733514 0
0.0436035 -0.341285 0
0.019057 -0.20495 0
-0.0186624 -0.625094 0
-0.22778 -0.401605 0
-0.0974991 -0.671391 0
-0.383114 -0.533365 0
-0.136309 -0.446899 0
-0.416783 -0.424887 0
-0.0625729 -0.0698546 0
-0.0920096 -0.201058 0
-0.0239385 0.0268206 0
-0.0882811 0.0356924 0
-0.00933643 0.0331166 0
-0.0620539 0.0673684 0
-0.00389809 0.0174814 0
-0.0413403 0.0491216 0
-0.00218292 -0.00242546 0
-0.0310752 0.0245321 0
0.316867 0.081738 0
0.452535 -0.0141212 0
0.111505 -0.0787734 0
0.102953 0.00690625 0
-0.208487 -0.381052 0
-0.370085 -0.156407 0
-0.499725 -0.541446 0
-0.706323 -0.380543 0
-0.641359 -0.401501 0
-0.804532 -0.407213 0
-0.225965 -0.0982549 0
-0.221686 -0.223803 0
-0.139731 -0.00659393 0
-0.171844 -0.0179292 0
-0.0821693 0.0106861 0
-0.111734 0.0248427 0
-0.0496365 0.00705189 0
-0.0714171 0.0233763 0
-0.0353652 -0.00204727 0
-0.0524834 0.0127822 0
0.436331 0.306267 0
0.547989 0.0750386 0
0.155701 0.336222 0
0.158376 0.348091 0
-0.284864 0.0156843 0
-0.381944 0.247198 0
-0.688902 -0.317789 0
-0.774014 -0.118634 0
-0.905971 -0.31403 0
-0.882047 -0.362441 0
-0.306074 -0.145896 0
-0.256539 -0.252669 0
-0.205487 -0.0626502 0
-0.185308 -0.107526 0
-0.125451 -0.026638 0
-0.11681 -0.046165 0
-0.0773401 -0.0102508 0
-0.0733443 -0.0193354 0
-0.0556648 -0.0013914 0
-0.0533746 -0.00664328 0
0.377713 0.51948 0
0.452018 0.16138 0
0.150035 0.746285 0
0.152026 0.68907 0
-0.226973 0.417555 0
-0.269659 0.659272 0
-0.596894 -0.0833534 0
-0.568016 0.158026 0
-0.829557 -0.219891 0
-0.62434 -0.304903 0
-0.277036 -0.193719 0
-0.184946 -0.27875 0
-0.196316 -0.119593 0
-0.123712 -0.198402 0
-0.12247 -0.0644909 0
-0.0752107 -0.118311 0
-0.0763036 -0.027771 0
-0.0462701 -0.0626268 0
-0.0551974 -0.000709542 0
-0.0333114 -0.0262864 0
0.150346 0.639711 0
0.189886 0.210984 0
0.0833249 0.996522 0
0.0764046 0.898416 0
-0.0683668 0.673407 0
-0.0848716 0.923123 0
-0.26612 0.0730321 0
-0.172611 0.344541 0
-0.445283 -0.156268 0
-0.132419 -0.257716 0
-0.151494 -0.224105 0
-0.0347121 -0.293884 0
-0.115792 -0.155619 0
-0.00993353 -0.256552 0
-0.0741842 -0.0882791 0
-0.00249016 -0.164036 0
-0.0467871 -0.0387419 0
-0.00040095 -0.0898609 0
-0.0340367 -0.000256245 0
0.000115973 -0.0385887 0
