# vtk DataFile Version 3.0
tp3485 cell-vector
ASCII
DATASET UNSTRUCTURED_GRID
POINTS 66 double
0 0 0
0.1 0 0
0.2 0 0
0.3 0 0
0.4 0 0
0.5 0 0
0.6 0 0
0.7 0 0
0.8 0 0
0.9 0 0
1 0 0
0 0.09 0
0.1 0.09 0
0.2 0.09 0
0.3 0.09 0
0.4 0.09 0
0.5 0.09 0
0.6 0.09 0
0.7 0.09 0
0.8 0.09 0
0.9 0.09 0
1 0.09 0
0 0.18 0
0.1 0.18 0
0.2 0.18 0
0.3 0.18 0
0.4 0.18 0
0.5 0.18 0
0.6 0.18 0
0.7 0.18 0
0.8 0.18 0
0.9 0.18 0
1 0.18 0
0 0.27 0
0.1 0.27 0
0.2 0.27 0
0.3 0.27 0
0.4 0.27 0
0.5 0.27 0
0.6 0.27 0
0.7 0.27 0
0.8 0.27 0
0.9 0.27 0
1 0.27 0
0 0.36 0
0.1 0.36 0
0.2 0.36 0
0.3 0.36 0
0.4 0.36 0
0.5 0.36 0
0.6 0.36 0
0.7 0.36 0
0.8 0.36 0
0.9 0.36 0
1 0.36 0
0 0.45 0
0.1 0.45 0
0.2 0.45 0
0.3 0.45 0
0.4 0.45 0
0.5 0.45 0
0.6 0.45 0
0.7 0.45 0
0.8 0.45 0
0.9 0.45 0
1 0.45 0
CELLS 100 400
3 0 1 12
3 0 12 11
3 1 2 13
3 1 13 12
3 2 3 14
3 2 14 13
3 3 4 15
3 3 15 14
3 4 5 16
3 4 16 15
3 5 6 17
3 5 17 16
3 6 7 18
3 6 18 17
3 7 8 19
3 7 19 18
3 8 9 20
3 8 20 19
3 9 10 21
3 9 21 20
3 11 12 23
3 11 23 22
3 12 13 24
3 12 24 23
3 13 14 25
3 13 25 24
3 14 15 26
3 14 26 25
3 15 16 27
3 15 27 26
3 16 17 28
3 16 28 27
3 17 18 29
3 17 29 28
3 18 19 30
3 18 30 29
3 19 20 31
3 19 31 30
3 20 21 32
3 20 32 31
3 22 23 34
3 22 34 33
3 23 24 35
3 23 35 34
3 24 25 36
3 24 36 35
3 25 26 37
3 25 37 36
3 26 27 38
3 26 38 37
3 27 28 39
3 27 39 38
3 28 29 40
3 28 40 39
3 29 30 41
3 29 41 40
3 30 31 42
3 30 42 41
3 31 32 43
3 31 43 42
3 33 34 45
3 33 45 44
3 34 35 46
3 34 46 45
3 35 36 47
3 35 47 46
3 36 37 48
3 36 48 47
3 37 38 49
3 37 49 48
3 38 39 50
3 38 50 49
3 39 40 51
3 39 51 50
3 40 41 52
3 40 52 51
3 41 42 53
3 41 53 52
3 42 43 54
3 42 54 53
3 44 45 56
3 44 56 55
3 45 46 57
3 45 57 56
3 46 47 58
3 46 58 57
3 47 48 59
3 47 59 58
3 48 49 60
3 48 60 59
3 49 50 61
3 49 61 60
3 50 51 62
3 50 62 61
3 51 52 63
3 51 63 62
3 52 53 64
3 52 64 63
3 53 54 65
3 53 65 64
CELL_TYPES 100
5
5
5
5
5
5
5
5
5
5
5
5
5
5
5
5
5
5
5
5
5
5
5
5
5
5
5
5
5
5
5
5
5
5
5
5
5
5
5
5
5
5
5
5
5
5
5
5
5
5
5
5
5
5
5
5
5
5
5
5
5
5
5
5
5
5
5
5
5
5
5
5
5
5
5
5
5
5
5
5
5
5
5
5
5
5
5
5
5
5
5
5
5
5
5
5
5
5
5
5
CELL_DATA 100
VECTORS Et double
-0.000164955 -0.00194937 0
-0.00238773 0.000168548 0
-0.000187843 -0.00443556 0
-0.00311015 -0.00158168 0
-0.000131207 -0.400984 0
-0.35765 -0.0040568 0
-7.10176e-05 -0.7234 0
-0.290614 -0.400746 0
-3.76908e-05 -0.931397 0
-0.187433 -0.723272 0
-1.88823e-05 -0.996741 0
-0.0589301 -0.93133 0
-8.09258e-06 -0.911105 0
0.0770166 -0.996708 0
-1.90512e-06 -0.688883 0
0.199981 -0.911092 0
1.44504e-06 -0.366495 0
0.290152 -0.688882 0
2.81792e-06 3.13102e-06 0
0.329861 -0.3665 0
-0.00265316 -0.00112988 0
-0.0039558 9.55548e-05 0
-0.0034031 -0.0024959 0
-0.00505754 -0.000901113 0
-0.357893 -0.232562 0
-0.565339 -0.00226051 0
-0.290746 -0.432018 0
-0.470489 -0.23241 0
-0.187503 -0.567091 0
-0.309194 -0.431935 0
-0.0589654 -0.616478 0
-0.103477 -0.567048 0
0.0770016 -0.572405 0
0.116641 -0.616459 0
0.199978 -0.441132 0
0.318119 -0.5724 0
0.290155 -0.241409 0
0.469914 -0.441135 0
0.329868 4.18174e-06 0
0.547154 -0.241416 0
-0.0040642 9.71605e-05 0
-0.00398143 -9.84429e-06 0
-0.00517037 0.000277403 0
-0.00502458 0.000107244 0
-0.56544 0.0140852 0
-0.553024 0.000286107 0
-0.470545 0.0146856 0
-0.470017 0.0140961 0
-0.309223 0.0087072 0
-0.314609 0.0146915 0
-0.10349 -3.58026e-05 0
-0.111357 0.00870807 0
0.116639 -0.00875829 0
0.108797 -3.94667e-05 0
0.318123 -0.0146736 0
0.312815 -0.00876575 0
0.469922 -0.0139627 0
0.470582 -0.014684 0
0.547163 6.0974e-06 0
0.559757 -0.0139749 0
-0.00389915 0.00124644 0
-0.0025114 -0.000106966 0
-0.00492198 0.00282721 0
-0.00311733 0.00104305 0
-0.55295 0.246035 0
-0.333707 0.00261439 0
-0.469977 0.445387 0
-0.290355 0.245905 0
-0.314587 0.574923 0
-0.197891 0.445316 0
-0.111341 0.616585 0
-0.073778 0.574882 0
0.10881 0.56479 0
0.0622394 0.616559 0
0.312827 0.427991 0
0.189743 0.56477 0
0.470595 0.228193 0
0.290808 0.427973 0
0.559771 8.14711e-06 0
0.354435 0.228176 0
-0.00227754 0.00189914 0
-0.000143579 -0.000159533 0
-0.00284612 0.00419178 0
-0.000161199 0.00156716 0
-0.333491 0.373931 0
-0.000150408 0.00384515 0
-0.290238 0.695948 0
-8.21573e-05 0.373713 0
-0.197825 0.915494 0
-4.54938e-05 0.695828 0
-0.0737393 0.997278 0
-2.62732e-05 0.915426 0
0.0622651 0.928001 0
-1.65283e-05 0.997236 0
0.189763 0.717087 0
-1.18203e-05 0.927972 0
0.290825 0.393894 0
-9.70541e-06 0.717065 0
0.354452 9.54712e-06 0
-8.88885e-06 0.393874 0
