# vtk DataFile Version 3.0
tp3485 cell-vector
ASCII
DATASET UNSTRUCTURED_GRID
POINTS 66 double
0 0 0
0.1 0 0
0.2 0 0
0.3 0 0
0.4 0 0
0.5 0 0
0.6 0 0
0.7 0 0
0.8 0 0
0.9 0 0
1 0 0
0 0.09 0
0.1 0.09 0
0.2 0.09 0
0.3 0.09 0
0.4 0.09 0
0.5 0.09 0
0.6 0.09 0
0.7 0.09 0
0.8 0.09 0
0.9 0.09 0
1 0.09 0
0 0.18 0
0.1 0.18 0
0.2 0.18 0
0.3 0.18 0
0.4 0.18 0
0.5 0.18 0
0.6 0.18 0
0.7 0.18 0
0.8 0.18 0
0.9 0.18 0
1 0.18 0
0 0.27 0
0.1 0.27 0
0.2 0.27 0
0.3 0.27 0
0.4 0.27 0
0.5 0.27 0
0.6 0.27 0
0.7 0.27 0
0.8 0.27 0
0.9 0.27 0
1 0.27 0
0 0.36 0
0.1 0.36 0
0.2 0.36 0
0.3 0.36 0
0.4 0.36 0
0.5 0.36 0
0.6 0.36 0
0.7 0.36 0
0.8 0.36 0
0.9 0.36 0
1 0.36 0
0 0.45 0
0.1 0.45 0
0.2 0.45 0
0.3 0.45 0
0.4 0.45 0
0.5 0.45 0
0.6 0.45 0
0.7 0.45 0
0.8 0.45 0
0.9 0.45 0
1 0.45 0
CELLS 100 400
3 0 1 12
3 0 12 11
3 1 2 13
3 1 13 12
3 2 3 14
3 2 14 13
3 3 4 15
3 3 15 14
3 4 5 16
3 4 16 15
3 5 6 17
3 5 17 16
3 6 7 18
3 6 18 17
3 7 8 19
3 7 19 18
3 8 9 20
3 8 20 19
3 9 10 21
3 9 21 20
3 11 12 23
3 11 23 22
3 12 13 24
3 12 24 23
3 13 14 25
3 13 25 24
3 14 15 26
3 14 26 25
3 15 16 27
3 15 27 26
3 16 17 28
3 16 28 27
3 17 18 29
3 17 29 28
3 18 19 30
3 18 30 29
3 19 20 31
3 19 31 30
3 20 21 32
3 20 32 31
3 22 23 34
3 22 34 33
3 23 24 35
3 23 35 34
3 24 25 36
3 24 36 35
3 25 26 37
3 25 37 36
3 26 27 38
3 26 38 37
3 27 28 39
3 27 39 38
3 28 29 40
3 28 40 39
3 29 30 41
3 29 41 40
3 30 31 42
3 30 42 41
3 31 32 43
3 31 43 42
3 33 34 45
3 33 45 44
3 34 35 46
3 34 46 45
3 35 36 47
3 35 47 46
3 36 37 48
3 36 48 47
3 37 38 49
3 37 49 48
3 38 39 50
3 38 50 49
3 39 40 51
3 39 51 50
3 40 41 52
3 40 52 51
3 41 42 53
3 41 53 52
3 42 43 54
3 42 54 53
3 44 45 56
3 44 56 55
3 45 46 57
3 45 57 56
3 46 47 58
3 46 58 57
3 47 48 59
3 47 59 58
3 48 49 60
3 48 60 59
3 49 50 61
3 49 61 60
3 50 51 62
3 50 62 61
3 51 52 63
3 51 63 62
3 52 53 64
3 52 64 63
3 53 54 65
3 53 65 64
CELL_TYPES 100
5
5
5
5
5
5
5
5
5
5
5
5
5
5
5
5
5
5
5
5
5
5
5
5
5
5
5
5
5
5
5
5
5
5
5
5
5
5
5
5
5
5
5
5
5
5
5
5
5
5
5
5
5
5
5
5
5
5
5
5
5
5
5
5
5
5
5
5
5
5
5
5
5
5
5
5
5
5
5
5
5
5
5
5
5
5
5
5
5
5
5
5
5
5
5
5
5
5
5
5
CELL_DATA 100
VECTORS Et double
0.0130632 0.601325 0
0.593182 -0.0143686 0
0.00778362 0.917981 0
0.33248 0.576333 0
-0.000449615 0.857721 0
-0.042364 0.906563 0
-0.00889395 0.459647 0
-0.387853 0.864526 0
-0.0144099 -0.0948401 0
-0.561051 0.483029 0
-0.00867498 -0.0284647 0
0.0065498 -0.0669245 0
-0.0040836 -0.00460649 0
-0.00542791 -0.013238 0
-0.00196572 0.00149669 0
-0.00731206 0.00259189 0
-0.00102624 0.00136283 0
-0.00654088 0.00501538 0
-0.000691308 -0.00076812 0
-0.00576254 0.00330078 0
0.614989 0.348892 0
0.951514 -0.00758169 0
0.347508 0.55981 0
0.562439 0.333124 0
-0.0397027 0.546407 0
-0.0422415 0.551502 0
-0.399231 0.309646 0
-0.622986 0.549072 0
-0.58304 -0.0623723 0
-0.94634 0.323173 0
-0.0102005 -0.0192134 0
0.000465806 -0.0446055 0
-0.0133048 -0.0036066 0
-0.0139322 -0.00929016 0
-0.0110855 0.000527282 0
-0.0143713 0.00110205 0
-0.00846772 0.000649719 0
-0.0118758 0.00284453 0
-0.00697139 -0.000545481 0
-0.0101211 0.00193241 0
0.959376 -0.0171287 0
0.940592 0.00244792 0
0.568999 -0.00430829 0
0.580898 -0.0172152 0
-0.039481 0.0152575 0
-0.0184722 -0.00639777 0
-0.625737 0.0207794 0
-0.616712 0.0124126 0
-0.95434 -0.00682426 0
-0.977462 0.0190747 0
-0.00685516 -0.0038441 0
-0.00548333 -0.00589609 0
-0.0174065 -0.00208856 0
-0.0170023 -0.00286262 0
-0.016065 -0.00115897 0
-0.0159056 -0.00155916 0
-0.0127605 -0.000567382 0
-0.0126595 -0.000849197 0
-0.0106784 -0.000142869 0
-0.0106071 -0.000367455 0
0.930897 -0.361223 0
0.57686 0.0119135 0
0.576267 -0.558595 0
0.37341 -0.345088 0
-0.0164681 -0.530722 0
0.00473934 -0.553642 0
-0.609503 -0.292691 0
-0.377535 -0.538265 0
-0.968394 0.0504655 0
-0.628104 -0.309152 0
-0.000707253 0.0119551 0
-0.00950794 0.0342831 0
-0.0148555 -0.000572077 0
-0.0135789 0.00374848 0
-0.0149536 -0.00290747 0
-0.0113164 -0.00432196 0
-0.0122259 -0.00182035 0
-0.00855896 -0.00464574 0
-0.0103524 0.000285543 0
-0.00699473 -0.00271697 0
0.552697 -0.54768 0
0.0154484 0.0171649 0
0.359135 -0.888632 0
0.010531 -0.521045 0
0.00541245 -0.882212 0
0.00180163 -0.878579 0
-0.362844 -0.515198 0
-0.00726703 -0.891909 0
-0.605406 0.0878027 0
-0.0133407 -0.54032 0
0.00541228 0.0219813 0
-0.0109022 0.0607846 0
-0.00673746 0.000305796 0
-0.00500102 0.00786213 0
-0.00816242 -0.0040596 0
-0.00230545 -0.00618484 0
-0.00703432 -0.00263278 0
-0.00110076 -0.00710358 0
-0.00607765 0.000576307 0
-0.000620572 -0.00422129 0
