# vtk DataFile Version 3.0
tp3485 cell-vector
ASCII
DATASET UNSTRUCTURED_GRID
POINTS 66 double
0 0 0
0.1 0 0
0.2 0 0
0.3 0 0
0.4 0 0
0.5 0 0
0.6 0 0
0.7 0 0
0.8 0 0
0.9 0 0
1 0 0
0 0.09 0
0.1 0.09 0
0.2 0.09 0
0.3 0.09 0
0.4 0.09 0
0.5 0.09 0
0.6 0.09 0
0.7 0.09 0
0.8 0.09 0
0.9 0.09 0
1 0.09 0
0 0.18 0
0.1 0.18 0
0.2 0.18 0
0.3 0.18 0
0.4 0.18 0
0.5 0.18 0
0.6 0.18 0
0.7 0.18 0
0.8 0.18 0
0.9 0.18 0
1 0.18 0
0 0.27 0
0.1 0.27 0
0.2 0.27 0
0.3 0.27 0
0.4 0.27 0
0.5 0.27 0
0.6 0.27 0
0.7 0.27 0
0.8 0.27 0
0.9 0.27 0
1 0.27 0
0 0.36 0
0.1 0.36 0
0.2 0.36 0
0.3 0.36 0
0.4 0.36 0
0.5 0.36 0
0.6 0.36 0
0.7 0.36 0
0.8 0.36 0
0.9 0.36 0
1 0.36 0
0 0.45 0
0.1 0.45 0
0.2 0.45 0
0.3 0.45 0
0.4 0.45 0
0.5 0.45 0
0.6 0.45 0
0.7 0.45 0
0.8 0.45 0
0.9 0.45 0
1 0.45 0
CELLS 100 400
3 0 1 12
3 0 12 11
3 1 2 13
3 1 13 12
3 2 3 14
3 2 14 13
3 3 4 15
3 3 15 14
3 4 5 16
3 4 16 15
3 5 6 17
3 5 17 16
3 6 7 18
3 6 18 17
3 7 8 19
3 7 19 18
3 8 9 20
3 8 20 19
3 9 10 21
3 9 21 20
3 11 12 23
3 11 23 22
3 12 13 24
3 12 24 23
3 13 14 25
3 13 25 24
3 14 15 26
3 14 26 25
3 15 16 27
3 15 27 26
3 16 17 28
3 16 28 27
3 17 18 29
3 17 29 28
3 18 19 30
3 18 30 29
3 19 20 31
3 19 31 30
3 20 21 32
3 20 32 31
3 22 23 34
3 22 34 33
3 23 24 35
3 23 35 34
3 24 25 36
3 24 36 35
3 25 26 37
3 25 37 36
3 26 27 38
3 26 38 37
3 27 28 39
3 27 39 38
3 28 29 40
3 28 40 39
3 29 30 41
3 29 41 40
3 30 31 42
3 30 42 41
3 31 32 43
3 31 43 42
3 33 34 45
3 33 45 44
3 34 35 46
3 34 46 45
3 35 36 47
3 35 47 46
3 36 37 48
3 36 48 47
3 37 38 49
3 37 49 48
3 38 39 50
3 38 50 49
3 39 40 51
3 39 51 50
3 40 41 52
3 40 52 51
3 41 42 53
3 41 53 52
3 42 43 54
3 42 54 53
3 44 45 56
3 44 56 55
3 45 46 57
3 45 57 56
3 46 47 58
3 46 58 57
3 47 48 59
3 47 59 58
3 48 49 60
3 48 60 59
3 49 50 61
3 49 61 60
3 50 51 62
3 50 62 61
3 51 52 63
3 51 63 62
3 52 53 64
3 52 64 63
3 53 54 65
3 53 65 64
CELL_TYPES 100
5
5
5
5
5
5
5
5
5
5
5
5
5
5
5
5
5
5
5
5
5
5
5
5
5
5
5
5
5
5
5
5
5
5
5
5
5
5
5
5
5
5
5
5
5
5
5
5
5
5
5
5
5
5
5
5
5
5
5
5
5
5
5
5
5
5
5
5
5
5
5
5
5
5
5
5
5
5
5
5
5
5
5
5
5
5
5
5
5
5
5
5
5
5
5
5
5
5
5
5
CELL_DATA 100
VECTORS Et double
0.098001 -0.204541 0
0.207765 -0.108806 0
0.0466745 -0.499616 0
0.0553541 -0.385416 0
-0.0317506 -0.656813 0
-0.161193 -0.549872 0
-0.103978 -0.613523 0
-0.351887 -0.537566 0
-0.13072 -0.476814 0
-0.483198 -0.364204 0
-0.065846 -0.078501 0
-0.0733386 -0.237453 0
-0.0281805 0.0311115 0
-0.0958483 0.0348237 0
-0.0123374 0.0400254 0
-0.0761816 0.0798392 0
-0.00584717 0.0212637 0
-0.0552129 0.0616756 0
-0.00365581 -0.00406201 0
-0.0437786 0.0321087 0
0.369668 -0.0757786 0
0.45743 -0.0511026 0
0.15643 -0.255939 0
0.168565 -0.187983 0
-0.175291 -0.400252 0
-0.261996 -0.307117 0
-0.492205 -0.425779 0
-0.653783 -0.35219 0
-0.694588 -0.348982 0
-0.909637 -0.282483 0
-0.205245 -0.0749489 0
-0.199429 -0.190875 0
-0.15239 0.00621371 0
-0.191358 0.00217396 0
-0.100917 0.0182142 0
-0.139263 0.0398137 0
-0.0667422 0.0102474 0
-0.0966162 0.0334274 0
-0.0504732 -0.00309031 0
-0.0748829 0.0180285 0
0.502362 0.119301 0
0.54532 0.0351966 0
0.218149 0.129912 0
0.224717 0.128534 0
-0.234699 0.0168153 0
-0.262631 0.0916306 0
-0.680088 -0.110012 0
-0.708422 -0.0382067 0
-0.991815 -0.12768 0
-0.98707 -0.133846 0
-0.263908 -0.0695859 0
-0.245483 -0.106206 0
-0.21984 -0.035809 0
-0.211957 -0.0532487 0
-0.152249 -0.0181797 0
-0.148282 -0.0274583 0
-0.102988 -0.00808621 0
-0.100642 -0.0136583 0
-0.0787225 -0.0013535 0
-0.0770811 -0.00534119 0
0.440473 0.304625 0
0.429524 0.117745 0
0.201031 0.510395 0
0.193193 0.443384 0
-0.194371 0.436468 0
-0.171604 0.495683 0
-0.600137 0.214378 0
-0.501389 0.287178 0
-0.909631 0.100998 0
-0.690044 0.0268031 0
-0.223476 -0.063625 0
-0.195884 -0.0171477 0
-0.204679 -0.078651 0
-0.150028 -0.109588 0
-0.146362 -0.0552218 0
-0.0995861 -0.0960642 0
-0.100507 -0.026721 0
-0.0655366 -0.0615661 0
-0.0773788 0.000479697 0
-0.0493263 -0.0290557 0
0.199039 0.410032 0
0.147851 0.164279 0
0.102104 0.74106 0
0.0787132 0.63584 0
-0.0786845 0.698877 0
-0.030927 0.750447 0
-0.289315 0.423393 0
-0.116637 0.499011 0
-0.483414 0.250547 0
-0.133592 0.137072 0
-0.101374 -0.0601507 0
-0.0728116 0.0428638 0
-0.112926 -0.106119 0
-0.0289069 -0.146118 0
-0.0852835 -0.078728 0
-0.0113574 -0.139974 0
-0.0600269 -0.0385089 0
-0.00447317 -0.0919734 0
-0.0467459 0.00171295 0
-0.00201402 -0.0440383 0
