# vtk DataFile Version 3.0
tp3485 cell-vector
ASCII
DATASET UNSTRUCTURED_GRID
POINTS 66 double
0 0 0
0.1 0 0
0.2 0 0
0.3 0 0
0.4 0 0
0.5 0 0
0.6 0 0
0.7 0 0
0.8 0 0
0.9 0 0
1 0 0
0 0.09 0
0.1 0.09 0
0.2 0.09 0
0.3 0.09 0
0.4 0.09 0
0.5 0.09 0
0.6 0.09 0
0.7 0.09 0
0.8 0.09 0
0.9 0.09 0
1 0.09 0
0 0.18 0
0.1 0.18 0
0.2 0.18 0
0.3 0.18 0
0.4 0.18 0
0.5 0.18 0
0.6 0.18 0
0.7 0.18 0
0.8 0.18 0
0.9 0.18 0
1 0.18 0
0 0.27 0
0.1 0.27 0
0.2 0.27 0
0.3 0.27 0
0.4 0.27 0
0.5 0.27 0
0.6 0.27 0
0.7 0.27 0
0.8 0.27 0
0.9 0.27 0
1 0.27 0
0 0.36 0
0.1 0.36 0
0.2 0.36 0
0.3 0.36 0
0.4 0.36 0
0.5 0.36 0
0.6 0.36 0
0.7 0.36 0
0.8 0.36 0
0.9 0.36 0
1 0.36 0
0 0.45 0
0.1 0.45 0
0.2 0.45 0
0.3 0.45 0
0.4 0.45 0
0.5 0.45 0
0.6 0.45 0
0.7 0.45 0
0.8 0.45 0
0.9 0.45 0
1 0.45 0
CELLS 100 400
3 0 1 12
3 0 12 11
3 1 2 13
3 1 13 12
3 2 3 14
3 2 14 13
3 3 4 15
3 3 15 14
3 4 5 16
3 4 16 15
3 5 6 17
3 5 17 16
3 6 7 18
3 6 18 17
3 7 8 19
3 7 19 18
3 8 9 20
3 8 20 19
3 9 10 21
3 9 21 20
3 11 12 23
3 11 23 22
3 12 13 24
3 12 24 23
3 13 14 25
3 13 25 24
3 14 15 26
3 14 26 25
3 15 16 27
3 15 27 26
3 16 17 28
3 16 28 27
3 17 18 29
3 17 29 28
3 18 19 30
3 18 30 29
3 19 20 31
3 19 31 30
3 20 21 32
3 20 32 31
3 22 23 34
3 22 34 33
3 23 24 35
3 23 35 34
3 24 25 36
3 24 36 35
3 25 26 37
3 25 37 36
3 26 27 38
3 26 38 37
3 27 28 39
3 27 39 38
3 28 29 40
3 28 40 39
3 29 30 41
3 29 41 40
3 30 31 42
3 30 42 41
3 31 32 43
3 31 43 42
3 33 34 45
3 33 45 44
3 34 35 46
3 34 46 45
3 35 36 47
3 35 47 46
3 36 37 48
3 36 48 47
3 37 38 49
3 37 49 48
3 38 39 50
3 38 50 49
3 39 40 51
3 39 51 50
3 40 41 52
3 40 52 51
3 41 42 53
3 41 53 52
3 42 43 54
3 42 54 53
3 44 45 56
3 44 56 55
3 45 46 57
3 45 57 56
3 46 47 58
3 46 58 57
3 47 48 59
3 47 59 58
3 48 49 60
3 48 60 59
3 49 50 61
3 49 61 60
3 50 51 62
3 50 62 61
3 51 52 63
3 51 63 62
3 52 53 64
3 52 64 63
3 53 54 65
3 53 65 64
CELL_TYPES 100
5
5
5
5
5
5
5
5
5
5
5
5
5
5
5
5
5
5
5
5
5
5
5
5
5
5
5
5
5
5
5
5
5
5
5
5
5
5
5
5
5
5
5
5
5
5
5
5
5
5
5
5
5
5
5
5
5
5
5
5
5
5
5
5
5
5
5
5
5
5
5
5
5
5
5
5
5
5
5
5
5
5
5
5
5
5
5
5
5
5
5
5
5
5
5
5
5
5
5
5
CELL_DATA 100
VECTORS Et double
0.150915 -0.259952 0
0.367702 -0.166572 0
0.0901557 -0.620022 0
0.224995 -0.548653 0
-0.00267724 -0.777621 0
0.00227216 -0.753145 0
-0.0958271 -0.678099 0
-0.226945 -0.706767 0
-0.156524 -0.366407 0
-0.391539 -0.42541 0
-0.163009 0.0187709 0
-0.44915 -0.0184539 0
-0.112929 0.282815 0
-0.405464 0.341135 0
-0.0245389 0.223133 0
-0.323264 0.468038 0
0.00267154 0.0991925 0
-0.122099 0.245597 0
0.000872768 0.000969742 0
-0.0816419 0.0949233 0
0.622122 -0.146808 0
0.759726 -0.0917921 0
0.398499 -0.375227 0
0.48657 -0.332122 0
0.0333201 -0.482332 0
0.0423026 -0.468879 0
-0.351501 -0.427469 0
-0.426034 -0.449526 0
-0.629971 -0.234533 0
-0.769669 -0.277488 0
-0.71857 0.00939383 0
-0.89268 -0.019145 0
-0.611492 0.179341 0
-0.793 0.214026 0
-0.394428 0.14624 0
-0.580987 0.30061 0
-0.115551 0.0643928 0
-0.197455 0.161717 0
-0.0797431 0.000808943 0
-0.13215 0.0608835 0
0.860138 0.0222841 0
0.864442 0.0186392 0
0.562879 0.00989484 0
0.566241 0.0121291 0
0.0662743 -0.00837827 0
0.071006 -0.00729141 0
-0.465046 -0.0173228 0
-0.457445 -0.0239451 0
-0.858982 -0.0100856 0
-0.849914 -0.0241314 0
-0.999976 0.00685745 0
-0.993488 -0.00660254 0
-0.878582 0.0195317 0
-0.878241 0.0163868 0
-0.613188 0.0176833 0
-0.618544 0.0283782 0
-0.192498 0.00641956 0
-0.198882 0.0175213 0
-0.13072 0.000551902 0
-0.132834 0.0041056 0
0.771238 0.181491 0
0.637222 0.122738 0
0.514864 0.387303 0
0.426872 0.352011 0
0.0767251 0.46309 0
0.0696033 0.455264 0
-0.399076 0.396382 0
-0.316079 0.408264 0
-0.759404 0.222314 0
-0.605813 0.239384 0
-0.899776 0.012946 0
-0.714009 0.0159615 0
-0.810088 -0.135616 0
-0.627555 -0.175302 0
-0.596638 -0.112806 0
-0.420734 -0.244589 0
-0.196068 -0.0529675 0
-0.124302 -0.131073 0
-0.131991 0.000282959 0
-0.0825965 -0.054031 0
0.384784 0.271332 0
0.162336 0.180374 0
0.266142 0.613859 0
0.11625 0.558247 0
0.0528871 0.752031 0
0.0317606 0.74214 0
-0.185717 0.654646 0
-0.0621101 0.681096 0
-0.373542 0.372453 0
-0.134203 0.410752 0
-0.457274 0.0244043 0
-0.161203 0.038222 0
-0.431138 -0.226513 0
-0.134538 -0.288754 0
-0.350284 -0.195863 0
-0.0626115 -0.41391 0
-0.123388 -0.0908077 0
4.11086e-05 -0.227838 0
-0.082248 0.000101764 0
-6.50896e-05 -0.0910385 0
