# vtk DataFile Version 3.0
tp3485 cell-vector
ASCII
DATASET UNSTRUCTURED_GRID
POINTS 66 double
0 0 0
0.1 0 0
0.2 0 0
0.3 0 0
0.4 0 0
0.5 0 0
0.6 0 0
0.7 0 0
0.8 0 0
0.9 0 0
1 0 0
0 0.09 0
0.1 0.09 0
0.2 0.09 0
0.3 0.09 0
0.4 0.09 0
0.5 0.09 0
0.6 0.09 0
0.7 0.09 0
0.8 0.09 0
0.9 0.09 0
1 0.09 0
0 0.18 0
0.1 0.18 0
0.2 0.18 0
0.3 0.18 0
0.4 0.18 0
0.5 0.18 0
0.6 0.18 0
0.7 0.18 0
0.8 0.18 0
0.9 0.18 0
1 0.18 0
0 0.27 0
0.1 0.27 0
0.2 0.27 0
0.3 0.27 0
0.4 0.27 0
0.5 0.27 0
0.6 0.27 0
0.7 0.27 0
0.8 0.27 0
0.9 0.27 0
1 0.27 0
0 0.36 0
0.1 0.36 0
0.2 0.36 0
0.3 0.36 0
0.4 0.36 0
0.5 0.36 0
0.6 0.36 0
0.7 0.36 0
0.8 0.36 0
0.9 0.36 0
1 0.36 0
0 0.45 0
0.1 0.45 0
0.2 0.45 0
0.3 0.45 0
0.4 0.45 0
0.5 0.45 0
0.6 0.45 0
0.7 0.45 0
0.8 0.45 0
0.9 0.45 0
1 0.45 0
CELLS 100 400
3 0 1 12
3 0 12 11
3 1 2 13
3 1 13 12
3 2 3 14
3 2 14 13
3 3 4 15
3 3 15 14
3 4 5 16
3 4 16 15
3 5 6 17
3 5 17 16
3 6 7 18
3 6 18 17
3 7 8 19
3 7 19 18
3 8 9 20
3 8 20 19
3 9 10 21
3 9 21 20
3 11 12 23
3 11 23 22
3 12 13 24
3 12 24 23
3 13 14 25
3 13 25 24
3 14 15 26
3 14 26 25
3 15 16 27
3 15 27 26
3 16 17 28
3 16 28 27
3 17 18 29
3 17 29 28
3 18 19 30
3 18 30 29
3 19 20 31
3 19 31 30
3 20 21 32
3 20 32 31
3 22 23 34
3 22 34 33
3 23 24 35
3 23 35 34
3 24 25 36
3 24 36 35
3 25 26 37
3 25 37 36
3 26 27 38
3 26 38 37
3 27 28 39
3 27 39 38
3 28 29 40
3 28 40 39
3 29 30 41
3 29 41 40
3 30 31 42
3 30 42 41
3 31 32 43
3 31 43 42
3 33 34 45
3 33 45 44
3 34 35 46
3 34 46 45
3 35 36 47
3 35 47 46
3 36 37 48
3 36 48 47
3 37 38 49
3 37 49 48
3 38 39 50
3 38 50 49
3 39 40 51
3 39 51 50
3 40 41 52
3 40 52 51
3 41 42 53
3 41 53 52
3 42 43 54
3 42 54 53
3 44 45 56
3 44 56 55
3 45 46 57
3 45 57 56
3 46 47 58
3 46 58 57
3 47 48 59
3 47 59 58
3 48 49 60
3 48 60 59
3 49 50 61
3 49 61 60
3 50 51 62
3 50 62 61
3 51 52 63
3 51 63 62
3 52 53 64
3 52 64 63
3 53 54 65
3 53 65 64
CELL_TYPES 100
5
5
5
5
5
5
5
5
5
5
5
5
5
5
5
5
5
5
5
5
5
5
5
5
5
5
5
5
5
5
5
5
5
5
5
5
5
5
5
5
5
5
5
5
5
5
5
5
5
5
5
5
5
5
5
5
5
5
5
5
5
5
5
5
5
5
5
5
5
5
5
5
5
5
5
5
5
5
5
5
5
5
5
5
5
5
5
5
5
5
5
5
5
5
5
5
5
5
5
5
CELL_DATA 100
VECTORS Et double
0.113453 0.070217 0
0.50404 -0.118855 0
0.108673 0.0162587 0
0.489892 -0.171207 0
0.100179 -0.0238122 0
0.46665 -0.21209 0
0.0892293 -0.0448066 0
0.433978 -0.23192 0
0.0771075 -0.0471577 0
0.393304 -0.228381 0
0.0645793 -0.0317609 0
0.348953 -0.204405 0
0.0516453 0.00959029 0
0.31034 -0.16199 0
0.0377082 0.107985 0
0.295921 -0.0924068 0
0.0203846 0.0285786 0
0.0553333 0.0392417 0
0.0133926 0.0148807 0
0.0628764 -0.00964578 0
0.689419 0.0412176 0
0.925148 -0.0667913 0
0.668597 0.000557368 0
0.901741 -0.110599 0
0.631921 -0.0258493 0
0.858558 -0.142137 0
0.58141 -0.034439 0
0.796832 -0.154331 0
0.521053 -0.0277371 0
0.720093 -0.146418 0
0.45682 -0.0102793 0
0.636139 -0.123246 0
0.398251 0.0192197 0
0.560523 -0.0902197 0
0.362589 0.0783485 0
0.523042 -0.0452274 0
0.0940172 0.0225432 0
0.113691 0.0328535 0
0.0864635 0.0106331 0
0.116775 -0.00300332 0
0.999963 -0.00863112 0
0.99034 0.00919842 0
0.973191 -0.0265329 0
0.967773 -0.0153944 0
0.922478 -0.0304437 0
0.922444 -0.030054 0
0.851365 -0.018859 0
0.856423 -0.0291509 0
0.765768 0.00243301 0
0.773669 -0.0137801 0
0.674874 0.0230092 0
0.682254 0.00824835 0
0.594034 0.0328867 0
0.597963 0.0260311 0
0.551439 0.0274884 0
0.55085 0.0308814 0
0.131888 0.0129725 0
0.127981 0.02134 0
0.127883 0.00293279 0
0.125749 0.00851173 0
0.928829 -0.0607897 0
0.676836 0.0800279 0
0.906454 -0.0549965 0
0.663467 0.077393 0
0.860571 -0.0360832 0
0.633753 0.0809622 0
0.795379 -0.00424682 0
0.589375 0.0955651 0
0.716965 0.0316124 0
0.532679 0.118678 0
0.634462 0.0552246 0
0.468603 0.139705 0
0.563063 0.0453111 0
0.407146 0.142281 0
0.530755 -0.0249741 0
0.367449 0.106872 0
0.120024 0.00329012 0
0.0927452 0.00935112 0
0.121235 -0.00528973 0
0.0859067 0.0203232 0
0.505327 -0.0946766 0
0.106878 0.118753 0
0.49461 -0.0735455 0
0.105473 0.133053 0
0.469726 -0.0404103 0
0.102485 0.14891 0
0.434244 0.00389521 0
0.0970949 0.172327 0
0.392401 0.0486799 0
0.0883625 0.200371 0
0.349932 0.0740811 0
0.0758159 0.220869 0
0.315934 0.0517697 0
0.0598176 0.214092 0
0.307147 -0.059112 0
0.0415353 0.153708 0
0.0629527 -0.00258054 0
0.0218367 0.00130523 0
0.0685914 -0.0108878 0
0.0118446 0.0281159 0
