# vtk DataFile Version 3.0
tp3485 cell-vector
ASCII
DATASET UNSTRUCTURED_GRID
POINTS 66 double
0 0 0
0.1 0 0
0.2 0 0
0.3 0 0
0.4 0 0
0.5 0 0
0.6 0 0
0.7 0 0
0.8 0 0
0.9 0 0
1 0 0
0 0.09 0
0.1 0.09 0
0.2 0.09 0
0.3 0.09 0
0.4 0.09 0
0.5 0.09 0
0.6 0.09 0
0.7 0.09 0
0.8 0.09 0
0.9 0.09 0
1 0.09 0
0 0.18 0
0.1 0.18 0
0.2 0.18 0
0.3 0.18 0
0.4 0.18 0
0.5 0.18 0
0.6 0.18 0
0.7 0.18 0
0.8 0.18 0
0.9 0.18 0
1 0.18 0
0 0.27 0
0.1 0.27 0
0.2 0.27 0
0.3 0.27 0
0.4 0.27 0
0.5 0.27 0
0.6 0.27 0
0.7 0.27 0
0.8 0.27 0
0.9 0.27 0
1 0.27 0
0 0.36 0
0.1 0.36 0
0.2 0.36 0
0.3 0.36 0
0.4 0.36 0
0.5 0.36 0
0.6 0.36 0
0.7 0.36 0
0.8 0.36 0
0.9 0.36 0
1 0.36 0
0 0.45 0
0.1 0.45 0
0.2 0.45 0
0.3 0.45 0
0.4 0.45 0
0.5 0.45 0
0.6 0.45 0
0.7 0.45 0
0.8 0.45 0
0.9 0.45 0
1 0.45 0
CELLS 100 400
3 0 1 12
3 0 12 11
3 1 2 13
3 1 13 12
3 2 3 14
3 2 14 13
3 3 4 15
3 3 15 14
3 4 5 16
3 4 16 15
3 5 6 17
3 5 17 16
3 6 7 18
3 6 18 17
3 7 8 19
3 7 19 18
3 8 9 20
3 8 20 19
3 9 10 21
3 9 21 20
3 11 12 23
3 11 23 22
3 12 13 24
3 12 24 23
3 13 14 25
3 13 25 24
3 14 15 26
3 14 26 25
3 15 16 27
3 15 27 26
3 16 17 28
3 16 28 27
3 17 18 29
3 17 29 28
3 18 19 30
3 18 30 29
3 19 20 31
3 19 31 30
3 20 21 32
3 20 32 31
3 22 23 34
3 22 34 33
3 23 24 35
3 23 35 34
3 24 25 36
3 24 36 35
3 25 26 37
3 25 37 36
3 26 27 38
3 26 38 37
3 27 28 39
3 27 39 38
3 28 29 40
3 28 40 39
3 29 30 41
3 29 41 40
3 30 31 42
3 30 42 41
3 31 32 43
3 31 43 42
3 33 34 45
3 33 45 44
3 34 35 46
3 34 46 45
3 35 36 47
3 35 47 46
3 36 37 48
3 36 48 47
3 37 38 49
3 37 49 48
3 38 39 50
3 38 50 49
3 39 40 51
3 39 51 50
3 40 41 52
3 40 52 51
3 41 42 53
3 41 53 52
3 42 43 54
3 42 54 53
3 44 45 56
3 44 56 55
3 45 46 57
3 45 57 56
3 46 47 58
3 46 58 57
3 47 48 59
3 47 59 58
3 48 49 60
3 48 60 59
3 49 50 61
3 49 61 60
3 50 51 62
3 50 62 61
3 51 52 63
3 51 63 62
3 52 53 64
3 52 64 63
3 53 54 65
3 53 65 64
CELL_TYPES 100
5
5
5
5
5
5
5
5
5
5
5
5
5
5
5
5
5
5
5
5
5
5
5
5
5
5
5
5
5
5
5
5
5
5
5
5
5
5
5
5
5
5
5
5
5
5
5
5
5
5
5
5
5
5
5
5
5
5
5
5
5
5
5
5
5
5
5
5
5
5
5
5
5
5
5
5
5
5
5
5
5
5
5
5
5
5
5
5
5
5
5
5
5
5
5
5
5
5
5
5
CELL_DATA 100
VECTORS Et double
0.251112 -0.266482 0
0.696372 -0.241101 0
0.0357958 -0.829522 0
0.0310198 -0.664968 0
-0.0244617 -0.268301 0
0.433785 -0.83697 0
-0.0107 -0.0765993 0
0.102035 -0.227435 0
-0.00554259 -0.0215297 0
0.0155562 -0.0579208 0
-0.0034456 -0.00561979 0
-0.00539731 -0.0113254 0
-0.00248724 -0.0012474 0
-0.00956737 0.00103223 0
-0.00199961 -0.000486932 0
-0.00977945 0.00372587 0
-0.00174812 -0.000955386 0
-0.00930913 0.00361912 0
-0.0016489 -0.00183211 0
-0.00895483 0.00272023 0
0.897297 0.138531 0
0.707983 0.165515 0
0.149394 0.197733 0
0.102856 0.208938 0
0.40301 0.0411182 0
0.292173 0.174039 0
0.0875872 0.0055694 0
0.0565224 0.0403537 0
0.00742687 -0.000728155 0
-0.00285807 0.00819636 0
-0.0107934 -0.000805561 0
-0.0165218 0.00256213 0
-0.0136044 -0.000317412 0
-0.0184944 0.00229912 0
-0.0130624 -0.000273337 0
-0.0177532 0.00242254 0
-0.0121703 -0.000639174 0
-0.0167312 0.00214929 0
-0.0116259 -0.0012346 0
-0.0161112 0.00158501 0
0.297831 0.348836 0
-0.267777 0.34354 0
0.0250922 0.975111 0
0.0215639 0.792114 0
0.32369 0.278466 0
-0.242748 0.97009 0
0.0657655 0.0688987 0
-0.0708155 0.241689 0
-0.000976484 0.0159741 0
-0.0310811 0.0565189 0
-0.0169179 0.00334635 0
-0.0224084 0.0118386 0
-0.019485 0.000596326 0
-0.0199917 0.00197642 0
-0.0188195 5.93681e-05 0
-0.0186213 0.000137223 0
-0.0177503 -7.05921e-05 0
-0.0175991 -0.000110094 0
-0.0170917 -0.00016008 0
-0.0170385 -0.000151071 0
-0.722381 0.0773171 0
-0.882575 0.0468672 0
-0.146135 0.404928 0
-0.10179 0.280643 0
-0.193338 0.130845 0
-0.432695 0.42551 0
-0.0527539 0.0369079 0
-0.105983 0.108769 0
-0.0238293 0.0106452 0
-0.0320911 0.0266882 0
-0.0189956 0.00302778 0
-0.0166448 0.00487753 0
-0.0180087 0.000863809 0
-0.013447 -0.000871847 0
-0.0172072 0.000420874 0
-0.0124327 -0.00214734 0
-0.0164262 0.000577306 0
-0.0118238 -0.00212741 0
-0.0159632 0.000966499 0
-0.0115062 -0.00173443 0
-0.753136 -0.296507 0
-0.282791 -0.314212 0
-0.126859 -0.748657 0
-0.116556 -0.616702 0
-0.431991 -0.182682 0
0.0263947 -0.733225 0
-0.101932 -0.0350745 0
0.00627143 -0.163814 0
-0.0275817 -0.00417048 0
5.17416e-05 -0.0334713 0
-0.0125213 0.000613917 0
-0.00166208 -0.00747778 0
-0.00984587 0.000745236 0
-0.00197164 -0.00370415 0
-0.00927045 0.000676785 0
-0.00189503 -0.0034694 0
-0.00896203 0.00102727 0
-0.00175993 -0.00322182 0
-0.00879928 0.00172294 0
-0.00166818 -0.00262403 0
