# vtk DataFile Version 3.0
tp3485 cell-vector
ASCII
DATASET UNSTRUCTURED_GRID
POINTS 66 double
0 0 0
0.1 0 0
0.2 0 0
0.3 0 0
0.4 0 0
0.5 0 0
0.6 0 0
0.7 0 0
0.8 0 0
0.9 0 0
1 0 0
0 0.09 0
0.1 0.09 0
0.2 0.09 0
0.3 0.09 0
0.4 0.09 0
0.5 0.09 0
0.6 0.09 0
0.7 0.09 0
0.8 0.09 0
0.9 0.09 0
1 0.09 0
0 0.18 0
0.1 0.18 0
0.2 0.18 0
0.3 0.18 0
0.4 0.18 0
0.5 0.18 0
0.6 0.18 0
0.7 0.18 0
0.8 0.18 0
0.9 0.18 0
1 0.18 0
0 0.27 0
0.1 0.27 0
0.2 0.27 0
0.3 0.27 0
0.4 0.27 0
0.5 0.27 0
0.6 0.27 0
0.7 0.27 0
0.8 0.27 0
0.9 0.27 0
1 0.27 0
0 0.36 0
0.1 0.36 0
0.2 0.36 0
0.3 0.36 0
0.4 0.36 0
0.5 0.36 0
0.6 0.36 0
0.7 0.36 0
0.8 0.36 0
0.9 0.36 0
1 0.36 0
0 0.45 0
0.1 0.45 0
0.2 0.45 0
0.3 0.45 0
0.4 0.45 0
0.5 0.45 0
0.6 0.45 0
0.7 0.45 0
0.8 0.45 0
0.9 0.45 0
1 0.45 0
CELLS 100 400
3 0 1 12
3 0 12 11
3 1 2 13
3 1 13 12
3 2 3 14
3 2 14 13
3 3 4 15
3 3 15 14
3 4 5 16
3 4 16 15
3 5 6 17
3 5 17 16
3 6 7 18
3 6 18 17
3 7 8 19
3 7 19 18
3 8 9 20
3 8 20 19
3 9 10 21
3 9 21 20
3 11 12 23
3 11 23 22
3 12 13 24
3 12 24 23
3 13 14 25
3 13 25 24
3 14 15 26
3 14 26 25
3 15 16 27
3 15 27 26
3 16 17 28
3 16 28 27
3 17 18 29
3 17 29 28
3 18 19 30
3 18 30 29
3 19 20 31
3 19 31 30
3 20 21 32
3 20 32 31
3 22 23 34
3 22 34 33
3 23 24 35
3 23 35 34
3 24 25 36
3 24 36 35
3 25 26 37
3 25 37 36
3 26 27 38
3 26 38 37
3 27 28 39
3 27 39 38
3 28 29 40
3 28 40 39
3 29 30 41
3 29 41 40
3 30 31 42
3 30 42 41
3 31 32 43
3 31 43 42
3 33 34 45
3 33 45 44
3 34 35 46
3 34 46 45
3 35 36 47
3 35 47 46
3 36 37 48
3 36 48 47
3 37 38 49
3 37 49 48
3 38 39 50
3 38 50 49
3 39 40 51
3 39 51 50
3 40 41 52
3 40 52 51
3 41 42 53
3 41 53 52
3 42 43 54
3 42 54 53
3 44 45 56
3 44 56 55
3 45 46 57
3 45 57 56
3 46 47 58
3 46 58 57
3 47 48 59
3 47 59 58
3 48 49 60
3 48 60 59
3 49 50 61
3 49 61 60
3 50 51 62
3 50 62 61
3 51 52 63
3 51 63 62
3 52 53 64
3 52 64 63
3 53 54 65
3 53 65 64
CELL_TYPES 100
5
5
5
5
5
5
5
5
5
5
5
5
5
5
5
5
5
5
5
5
5
5
5
5
5
5
5
5
5
5
5
5
5
5
5
5
5
5
5
5
5
5
5
5
5
5
5
5
5
5
5
5
5
5
5
5
5
5
5
5
5
5
5
5
5
5
5
5
5
5
5
5
5
5
5
5
5
5
5
5
5
5
5
5
5
5
5
5
5
5
5
5
5
5
5
5
5
5
5
5
CELL_DATA 100
VECTORS Et double
0.00113376 -0.00342632 0
0.0014882 -0.0012802 0
0.000527172 -0.00745235 0
3.12616e-05 -0.00550083 0
-0.000322113 -0.00995053 0
-0.00240932 -0.00801371 0
-0.000422046 -0.464081 0
-0.410813 -0.00907657 0
-0.000270662 -0.811265 0
-0.314026 -0.46328 0
-0.00016993 -0.993569 0
-0.165063 -0.810753 0
-0.000100268 -0.979208 0
0.0123248 -0.993253 0
-5.22682e-05 -0.77362 0
0.1847 -0.979028 0
-2.2074e-05 -0.421063 0
0.317151 -0.773532 0
-8.50381e-06 -9.44868e-06 0
0.378891 -0.421028 0
0.00343803 -0.00204269 0
0.0036974 -0.000722304 0
0.0011533 -0.00458381 0
0.000914038 -0.00340749 0
-0.00263302 -0.00609069 0
-0.0037832 -0.00502631 0
-0.411572 -0.269041 0
-0.64925 -0.00557445 0
-0.314518 -0.485614 0
-0.510276 -0.268517 0
-0.165375 -0.608425 0
-0.276449 -0.485273 0
0.0121406 -0.611877 0
0.00870823 -0.608216 0
0.184606 -0.494456 0
0.290122 -0.611765 0
0.317116 -0.277736 0
0.512113 -0.494414 0
0.378886 4.40438e-06 0
0.628867 -0.277738 0
0.00450841 5.29148e-05 0
0.00452364 0.000107409 0
0.00144122 -8.34459e-05 0
0.00149494 -8.09127e-05 0
-0.00379451 -4.70554e-05 0
-0.00364324 -0.000214468 0
-0.64958 0.0162558 0
-0.634951 -4.84925e-05 0
-0.510505 0.0154263 0
-0.51137 0.0163303 0
-0.276597 0.00610959 0
-0.285074 0.0154882 0
0.00862787 -0.0058058 0
-0.00213619 0.00614317 0
0.290096 -0.0152043 0
0.281659 -0.00580753 0
0.512127 -0.0161702 0
0.511336 -0.0152397 0
0.628902 2.97573e-05 0
0.643596 -0.0162296 0
0.00388943 0.00204791 0
0.00358501 0.000894447 0
0.00121144 0.00431565 0
0.00146645 0.00320373 0
-0.00347481 0.00587849 0
-0.00215063 0.0045781 0
-0.63476 0.284628 0
-0.383011 0.00540461 0
-0.511273 0.499895 0
-0.31694 0.284259 0
-0.285017 0.61429 0
-0.181704 0.499676 0
-0.00208569 0.607154 0
-0.00826081 0.614145 0
0.28172 0.481023 0
0.168411 0.607037 0
0.511411 0.262487 0
0.314936 0.480909 0
0.643681 5.69509e-05 0
0.407709 0.262369 0
0.00175189 0.00319475 0
0.00119968 0.00133298 0
0.000466775 0.00695006 0
0.000773824 0.00519691 0
-0.00190336 0.00942814 0
2.34667e-05 0.00752833 0
-0.382405 0.432308 0
-0.000415739 0.00869902 0
-0.316579 0.782636 0
-0.000253058 0.431664 0
-0.181478 0.983395 0
-0.000157454 0.782242 0
-0.00810265 0.991806 0
-0.000106202 0.983138 0
0.168542 0.804083 0
-8.22569e-05 0.991616 0
0.315061 0.453613 0
-7.32402e-05 0.80392 0
0.407834 7.5567e-05 0
-7.08182e-05 0.453458 0
