# vtk DataFile Version 3.0
tp3485 cell-vector
ASCII
DATASET UNSTRUCTURED_GRID
POINTS 66 double
0 0 0
0.1 0 0
0.2 0 0
0.3 0 0
0.4 0 0
0.5 0 0
0.6 0 0
0.7 0 0
0.8 0 0
0.9 0 0
1 0 0
0 0.09 0
0.1 0.09 0
0.2 0.09 0
0.3 0.09 0
0.4 0.09 0
0.5 0.09 0
0.6 0.09 0
0.7 0.09 0
0.8 0.09 0
0.9 0.09 0
1 0.09 0
0 0.18 0
0.1 0.18 0
0.2 0.18 0
0.3 0.18 0
0.4 0.18 0
0.5 0.18 0
0.6 0.18 0
0.7 0.18 0
0.8 0.18 0
0.9 0.18 0
1 0.18 0
0 0.27 0
0.1 0.27 0
0.2 0.27 0
0.3 0.27 0
0.4 0.27 0
0.5 0.27 0
0.6 0.27 0
0.7 0.27 0
0.8 0.27 0
0.9 0.27 0
1 0.27 0
0 0.36 0
0.1 0.36 0
0.2 0.36 0
0.3 0.36 0
0.4 0.36 0
0.5 0.36 0
0.6 0.36 0
0.7 0.36 0
0.8 0.36 0
0.9 0.36 0
1 0.36 0
0 0.45 0
0.1 0.45 0
0.2 0.45 0
0.3 0.45 0
0.4 0.45 0
0.5 0.45 0
0.6 0.45 0
0.7 0.45 0
0.8 0.45 0
0.9 0.45 0
1 0.45 0
CELLS 100 400
3 0 1 12
3 0 12 11
3 1 2 13
3 1 13 12
3 2 3 14
3 2 14 13
3 3 4 15
3 3 15 14
3 4 5 16
3 4 16 15
3 5 6 17
3 5 17 16
3 6 7 18
3 6 18 17
3 7 8 19
3 7 19 18
3 8 9 20
3 8 20 19
3 9 10 21
3 9 21 20
3 11 12 23
3 11 23 22
3 12 13 24
3 12 24 23
3 13 14 25
3 13 25 24
3 14 15 26
3 14 26 25
3 15 16 27
3 15 27 26
3 16 17 28
3 16 28 27
3 17 18 29
3 17 29 28
3 18 19 30
3 18 30 29
3 19 20 31
3 19 31 30
3 20 21 32
3 20 32 31
3 22 23 34
3 22 34 33
3 23 24 35
3 23 35 34
3 24 25 36
3 24 36 35
3 25 26 37
3 25 37 36
3 26 27 38
3 26 38 37
3 27 28 39
3 27 39 38
3 28 29 40
3 28 40 39
3 29 30 41
3 29 41 40
3 30 31 42
3 30 42 41
3 31 32 43
3 31 43 42
3 33 34 45
3 33 45 44
3 34 35 46
3 34 46 45
3 35 36 47
3 35 47 46
3 36 37 48
3 36 48 47
3 37 38 49
3 37 49 48
3 38 39 50
3 38 50 49
3 39 40 51
3 39 51 50
3 40 41 52
3 40 52 51
3 41 42 53
3 41 53 52
3 42 43 54
3 42 54 53
3 44 45 56
3 44 56 55
3 45 46 57
3 45 57 56
3 46 47 58
3 46 58 57
3 47 48 59
3 47 59 58
3 48 49 60
3 48 60 59
3 49 50 61
3 49 61 60
3 50 51 62
3 50 62 61
3 51 52 63
3 51 63 62
3 52 53 64
3 52 64 63
3 53 54 65
3 53 65 64
CELL_TYPES 100
5
5
5
5
5
5
5
5
5
5
5
5
5
5
5
5
5
5
5
5
5
5
5
5
5
5
5
5
5
5
5
5
5
5
5
5
5
5
5
5
5
5
5
5
5
5
5
5
5
5
5
5
5
5
5
5
5
5
5
5
5
5
5
5
5
5
5
5
5
5
5
5
5
5
5
5
5
5
5
5
5
5
5
5
5
5
5
5
5
5
5
5
5
5
5
5
5
5
5
5
CELL_DATA 100
VECTORS Et double
0.135383 -0.904658 0
-0.166032 -0.209664 0
-0.128039 -0.594902 0
0.0560999 -0.998425 0
-0.187136 0.593088 0
0.157057 -0.224957 0
0.0395265 0.76255 0
-0.0349629 0.845126 0
0.0537044 0.340181 0
-0.0818612 0.634556 0
0.0200922 0.132187 0
-0.0366477 0.249033 0
0.00749272 0.0515662 0
-0.0163508 0.0981234 0
0.00280384 0.0199937 0
-0.00743486 0.0388632 0
0.00109887 0.00707465 0
-0.00362138 0.0152093 0
0.000573414 0.000637126 0
-0.00220271 0.00510626 0
0.16035 -0.876869 0
-0.118464 -0.207047 0
-0.115441 -0.580587 0
0.0751885 -0.978095 0
-0.229685 0.597099 0
0.133802 -0.227728 0
-0.0332675 0.775487 0
-0.0800384 0.83629 0
0.0484946 0.337169 0
-0.0930283 0.642337 0
0.0119836 0.127855 0
-0.0433058 0.244125 0
0.00173759 0.0486738 0
-0.0202229 0.0933653 0
-0.000693842 0.0184226 0
-0.00964445 0.0358973 0
-0.001025 0.00640182 0
-0.00493417 0.0136358 0
-0.000958211 0.000635351 0
-0.00313592 0.00443816 0
0.19737 -0.841625 0
-0.0849313 -0.192038 0
-0.0891906 -0.535892 0
0.0976989 -0.92997 0
-0.235291 0.626596 0
0.141815 -0.194301 0
-0.0631182 0.792457 0
-0.080931 0.842994 0
0.0429139 0.333285 0
-0.0957397 0.643868 0
0.00681321 0.121918 0
-0.0440109 0.235596 0
-0.00176101 0.0445342 0
-0.0204 0.0861675 0
-0.0028187 0.0161101 0
-0.00968489 0.0314294 0
-0.0023216 0.00540312 0
-0.00494157 0.0112429 0
-0.00188766 0.000639172 0
-0.00313662 0.00342044 0
0.202598 -0.812263 0
-0.100839 -0.173836 0
-0.0728446 -0.493028 0
0.0939873 -0.876028 0
-0.212757 0.658529 0
0.164551 -0.15152 0
-0.0443239 0.810779 0
-0.0434593 0.85875 0
0.0479991 0.330041 0
-0.0899411 0.647639 0
0.00826308 0.116191 0
-0.0388423 0.227889 0
-0.00136085 0.0404583 0
-0.0169074 0.0792261 0
-0.00271181 0.0138163 0
-0.00756098 0.0270372 0
-0.00229362 0.00440927 0
-0.00364422 0.00887177 0
-0.00187885 0.00064315 0
-0.0022057 0.0024085 0
0.160765 -0.795099 0
-0.149891 -0.166546 0
-0.0863943 -0.482027 0
0.0591485 -0.846213 0
-0.18559 0.667057 0
0.187389 -0.137067 0
0.00391187 0.827656 0
0.0159126 0.866231 0
0.0592825 0.327842 0
-0.0887413 0.659465 0
0.0148974 0.112065 0
-0.0318117 0.223946 0
0.00250189 0.0376233 0
-0.0114422 0.0747151 0
-0.000502812 0.0122623 0
-0.00414031 0.0241382 0
-0.000979568 0.00374124 0
-0.00154047 0.00731675 0
-0.000944848 0.000641925 0
-0.000679972 0.00174507 0
