# vtk DataFile Version 3.0
tp3485 cell-vector
ASCII
DATASET UNSTRUCTURED_GRID
POINTS 66 double
0 0 0
0.1 0 0
0.2 0 0
0.3 0 0
0.4 0 0
0.5 0 0
0.6 0 0
0.7 0 0
0.8 0 0
0.9 0 0
1 0 0
0 0.09 0
0.1 0.09 0
0.2 0.09 0
0.3 0.09 0
0.4 0.09 0
0.5 0.09 0
0.6 0.09 0
0.7 0.09 0
0.8 0.09 0
0.9 0.09 0
1 0.09 0
0 0.18 0
0.1 0.18 0
0.2 0.18 0
0.3 0.18 0
0.4 0.18 0
0.5 0.18 0
0.6 0.18 0
0.7 0.18 0
0.8 0.18 0
0.9 0.18 0
1 0.18 0
0 0.27 0
0.1 0.27 0
0.2 0.27 0
0.3 0.27 0
0.4 0.27 0
0.5 0.27 0
0.6 0.27 0
0.7 0.27 0
0.8 0.27 0
0.9 0.27 0
1 0.27 0
0 0.36 0
0.1 0.36 0
0.2 0.36 0
0.3 0.36 0
0.4 0.36 0
0.5 0.36 0
0.6 0.36 0
0.7 0.36 0
0.8 0.36 0
0.9 0.36 0
1 0.36 0
0 0.45 0
0.1 0.45 0
0.2 0.45 0
0.3 0.45 0
0.4 0.45 0
0.5 0.45 0
0.6 0.45 0
0.7 0.45 0
0.8 0.45 0
0.9 0.45 0
1 0.45 0
CELLS 100 400
3 0 1 12
3 0 12 11
3 1 2 13
3 1 13 12
3 2 3 14
3 2 14 13
3 3 4 15
3 3 15 14
3 4 5 16
3 4 16 15
3 5 6 17
3 5 17 16
3 6 7 18
3 6 18 17
3 7 8 19
3 7 19 18
3 8 9 20
3 8 20 19
3 9 10 21
3 9 21 20
3 11 12 23
3 11 23 22
3 12 13 24
3 12 24 23
3 13 14 25
3 13 25 24
3 14 15 26
3 14 26 25
3 15 16 27
3 15 27 26
3 16 17 28
3 16 28 27
3 17 18 29
3 17 29 28
3 18 19 30
3 18 30 29
3 19 20 31
3 19 31 30
3 20 21 32
3 20 32 31
3 22 23 34
3 22 34 33
3 23 24 35
3 23 35 34
3 24 25 36
3 24 36 35
3 25 26 37
3 25 37 36
3 26 27 38
3 26 38 37
3 27 28 39
3 27 39 38
3 28 29 40
3 28 40 39
3 29 30 41
3 29 41 40
3 30 31 42
3 30 42 41
3 31 32 43
3 31 43 42
3 33 34 45
3 33 45 44
3 34 35 46
3 34 46 45
3 35 36 47
3 35 47 46
3 36 37 48
3 36 48 47
3 37 38 49
3 37 49 48
3 38 39 50
3 38 50 49
3 39 40 51
3 39 51 50
3 40 41 52
3 40 52 51
3 41 42 53
3 41 53 52
3 42 43 54
3 42 54 53
3 44 45 56
3 44 56 55
3 45 46 57
3 45 57 56
3 46 47 58
3 46 58 57
3 47 48 59
3 47 59 58
3 48 49 60
3 48 60 59
3 49 50 61
3 49 61 60
3 50 51 62
3 50 62 61
3 51 52 63
3 51 63 62
3 52 53 64
3 52 64 63
3 53 54 65
3 53 65 64
CELL_TYPES 100
5
5
5
5
5
5
5
5
5
5
5
5
5
5
5
5
5
5
5
5
5
5
5
5
5
5
5
5
5
5
5
5
5
5
5
5
5
5
5
5
5
5
5
5
5
5
5
5
5
5
5
5
5
5
5
5
5
5
5
5
5
5
5
5
5
5
5
5
5
5
5
5
5
5
5
5
5
5
5
5
5
5
5
5
5
5
5
5
5
5
5
5
5
5
5
5
5
5
5
5
CELL_DATA 100
VECTORS Et double
-0.110256 0.626147 0
0.110307 0.129285 0
-0.0249121 0.977037 0
0.0442822 0.810563 0
0.0101029 0.969507 0
0.00720538 0.994334 0
0.010524 0.887778 0
-0.0230021 0.947502 0
0.010913 0.776286 0
-0.0476349 0.864775 0
0.0108937 0.641454 0
-0.0679894 0.752683 0
0.0103784 0.490711 0
-0.0840681 0.618267 0
0.00954903 0.331217 0
-0.0956265 0.468934 0
0.00875143 0.168937 0
-0.102249 0.311301 0
0.0083244 0.00924933 0
-0.102714 0.150544 0
-0.0837974 0.365585 0
0.0377349 0.0720809 0
-0.0315065 0.613909 0
0.0268287 0.489382 0
0.0230307 0.610114 0
0.0147115 0.631384 0
-0.00608507 0.558545 0
-0.0283358 0.597099 0
-0.0297169 0.488043 0
-0.0663574 0.543941 0
-0.0498703 0.402565 0
-0.0989006 0.472572 0
-0.0667752 0.307631 0
-0.125319 0.38736 0
-0.0798897 0.208329 0
-0.145065 0.293743 0
-0.0881366 0.107738 0
-0.157688 0.196241 0
-0.0895818 0.00592217 0
-0.162526 0.0971282 0
-0.0421187 -0.0255696 0
-0.0556649 -0.0135818 0
-0.0139738 0.00967752 0
-0.00053034 -0.0110546 0
0.0193552 0.0175346 0
0.0151035 0.0200983 0
-0.0217717 0.0159981 0
-0.0236685 0.0183921 0
-0.0584225 0.0108585 0
-0.0601528 0.0147647 0
-0.0905641 0.0039665 0
-0.0923352 0.00847654 0
-0.117681 -0.00156291 0
-0.118927 0.00166709 0
-0.138897 -0.00337484 0
-0.139286 -0.00267351 0
-0.153088 -0.00162632 0
-0.153346 -0.00277371 0
-0.158866 -0.000167981 0
-0.161585 0.000398114 0
0.0111121 -0.400709 0
-0.123463 -0.0952832 0
0.0105886 -0.600333 0
-0.0300313 -0.50315 0
0.00707363 -0.582549 0
0.0111118 -0.602009 0
-0.0295142 -0.533686 0
-0.00951762 -0.568664 0
-0.0644295 -0.474006 0
-0.0313123 -0.521846 0
-0.0960525 -0.403087 0
-0.0511197 -0.463397 0
-0.123218 -0.319719 0
-0.0675803 -0.392511 0
-0.144956 -0.223718 0
-0.0802632 -0.308057 0
-0.160525 -0.117408 0
-0.0895111 -0.210418 0
-0.169677 -0.00670387 0
-0.0968621 -0.102721 0
0.066369 -0.613147 0
-0.127129 -0.141254 0
0.0301649 -0.98626 0
-0.0596687 -0.795087 0
-0.00615626 -0.959725 0
0.0102342 -0.999948 0
-0.0250476 -0.879229 0
0.00966854 -0.938343 0
-0.0453488 -0.780149 0
0.00895066 -0.859485 0
-0.0645503 -0.66198 0
0.00857036 -0.761568 0
-0.0815106 -0.524321 0
0.00872602 -0.643463 0
-0.0955078 -0.367969 0
0.00932821 -0.504772 0
-0.106227 -0.195659 0
0.0100739 -0.346822 0
-0.114493 -0.011182 0
0.0106 -0.173134 0
