# vtk DataFile Version 3.0
tp3485 cell-vector
ASCII
DATASET UNSTRUCTURED_GRID
POINTS 66 double
0 0 0
0.1 0 0
0.2 0 0
0.3 0 0
0.4 0 0
0.5 0 0
0.6 0 0
0.7 0 0
0.8 0 0
0.9 0 0
1 0 0
0 0.09 0
0.1 0.09 0
0.2 0.09 0
0.3 0.09 0
0.4 0.09 0
0.5 0.09 0
0.6 0.09 0
0.7 0.09 0
0.8 0.09 0
0.9 0.09 0
1 0.09 0
0 0.18 0
0.1 0.18 0
0.2 0.18 0
0.3 0.18 0
0.4 0.18 0
0.5 0.18 0
0.6 0.18 0
0.7 0.18 0
0.8 0.18 0
0.9 0.18 0
1 0.18 0
0 0.27 0
0.1 0.27 0
0.2 0.27 0
0.3 0.27 0
0.4 0.27 0
0.5 0.27 0
0.6 0.27 0
0.7 0.27 0
0.8 0.27 0
0.9 0.27 0
1 0.27 0
0 0.36 0
0.1 0.36 0
0.2 0.36 0
0.3 0.36 0
0.4 0.36 0
0.5 0.36 0
0.6 0.36 0
0.7 0.36 0
0.8 0.36 0
0.9 0.36 0
1 0.36 0
0 0.45 0
0.1 0.45 0
0.2 0.45 0
0.3 0.45 0
0.4 0.45 0
0.5 0.45 0
0.6 0.45 0
0.7 0.45 0
0.8 0.45 0
0.9 0.45 0
1 0.45 0
CELLS 100 400
3 0 1 12
3 0 12 11
3 1 2 13
3 1 13 12
3 2 3 14
3 2 14 13
3 3 4 15
3 3 15 14
3 4 5 16
3 4 16 15
3 5 6 17
3 5 17 16
3 6 7 18
3 6 18 17
3 7 8 19
3 7 19 18
3 8 9 20
3 8 20 19
3 9 10 21
3 9 21 20
3 11 12 23
3 11 23 22
3 12 13 24
3 12 24 23
3 13 14 25
3 13 25 24
3 14 15 26
3 14 26 25
3 15 16 27
3 15 27 26
3 16 17 28
3 16 28 27
3 17 18 29
3 17 29 28
3 18 19 30
3 18 30 29
3 19 20 31
3 19 31 30
3 20 21 32
3 20 32 31
3 22 23 34
3 22 34 33
3 23 24 35
3 23 35 34
3 24 25 36
3 24 36 35
3 25 26 37
3 25 37 36
3 26 27 38
3 26 38 37
3 27 28 39
3 27 39 38
3 28 29 40
3 28 40 39
3 29 30 41
3 29 41 40
3 30 31 42
3 30 42 41
3 31 32 43
3 31 43 42
3 33 34 45
3 33 45 44
3 34 35 46
3 34 46 45
3 35 36 47
3 35 47 46
3 36 37 48
3 36 48 47
3 37 38 49
3 37 49 48
3 38 39 50
3 38 50 49
3 39 40 51
3 39 51 50
3 40 41 52
3 40 52 51
3 41 42 53
3 41 53 52
3 42 43 54
3 42 54 53
3 44 45 56
3 44 56 55
3 45 46 57
3 45 57 56
3 46 47 58
3 46 58 57
3 47 48 59
3 47 59 58
3 48 49 60
3 48 60 59
3 49 50 61
3 49 61 60
3 50 51 62
3 50 62 61
3 51 52 63
3 51 63 62
3 52 53 64
3 52 64 63
3 53 54 65
3 53 65 64
CELL_TYPES 100
5
5
5
5
5
5
5
5
5
5
5
5
5
5
5
5
5
5
5
5
5
5
5
5
5
5
5
5
5
5
5
5
5
5
5
5
5
5
5
5
5
5
5
5
5
5
5
5
5
5
5
5
5
5
5
5
5
5
5
5
5
5
5
5
5
5
5
5
5
5
5
5
5
5
5
5
5
5
5
5
5
5
5
5
5
5
5
5
5
5
5
5
5
5
5
5
5
5
5
5
CELL_DATA 100
VECTORS Et double
-0.0152393 0.681651 0
0.550913 0.0178305 0
-0.0035178 0.968984 0
0.220645 0.707295 0
0.0109192 0.70986 0
-0.203443 0.966533 0
0.0188914 0.0793142 0
-0.4865 0.679789 0
0.0103721 0.0136884 0
0.00657817 0.0438761 0
0.00465987 -0.00590622 0
0.0137314 -0.0043221 0
0.00210486 -0.00844845 0
0.0118432 -0.014007 0
0.000968388 -0.00615093 0
0.0085082 -0.0121198 0
0.000479956 -0.00293053 0
0.00597075 -0.00786252 0
0.000309621 0.000344023 0
0.00469557 -0.00382452 0
0.524109 0.391945 0
0.848435 0.00981614 0
0.209645 0.595302 0
0.368854 0.409394 0
-0.190958 0.462167 0
-0.30271 0.596331 0
-0.457633 0.0504799 0
-0.791981 0.445384 0
0.0266892 0.00918572 0
0.0239159 0.0282547 0
0.0227721 -0.00332576 0
0.0283943 -0.0023628 0
0.0159258 -0.00505387 0
0.0220036 -0.00853936 0
0.0103784 -0.00371144 0
0.0150761 -0.00742644 0
0.00687686 -0.0017667 0
0.0102897 -0.00482216 0
0.00523573 0.000239458 0
0.00796663 -0.00234665 0
0.837738 -0.0292772 0
0.813907 -0.00243361 0
0.362401 -0.00666378 0
0.379571 -0.027311 0
-0.300486 0.0209558 0
-0.281195 -0.00274139 0
-0.781898 0.00356261 0
-0.800944 0.023813 0
0.032399 0.00219916 0
0.0319023 0.00285847 0
0.0322427 0.00113069 0
0.032119 0.00137833 0
0.0237591 0.00060611 0
0.0237335 0.000718074 0
0.01589 0.000323739 0
0.0158797 0.000394938 0
0.010688 0.000155248 0
0.0106773 0.000211589 0
0.00820062 5.12062e-05 0
0.00819653 9.25192e-05 0
0.82436 -0.425802 0
0.475272 -0.0143724 0
0.380705 -0.604465 0
0.240177 -0.441075 0
-0.289829 -0.438644 0
-0.156782 -0.59972 0
-0.813213 -0.0428895 0
-0.497963 -0.417627 0
0.0257552 -0.00462335 0
0.0276514 -0.0222172 0
0.0294172 0.00573603 0
0.0235357 0.00538122 0
0.0225488 0.00636642 0
0.0163569 0.0101827 0
0.0153585 0.00441564 0
0.0105872 0.00834644 0
0.0104359 0.00210148 0
0.00696561 0.00531571 0
0.00805011 -0.000148261 0
0.00527788 0.00256043 0
0.503842 -0.640805 0
-0.0190827 -0.021203 0
0.24905 -0.968491 0
-0.00894748 -0.668118 0
-0.17271 -0.746661 0
0.00657071 -0.964957 0
-0.527595 -0.0716105 0
0.0173359 -0.715603 0
0.00949027 -0.0086458 0
0.0131894 -0.0377044 0
0.0154353 0.00875125 0
0.00589694 0.00819987 0
0.012744 0.0100266 0
0.00263503 0.0162765 0
0.00896268 0.00699718 0
0.00118385 0.0133964 0
0.00619685 0.00332746 0
0.000551671 0.0085387 0
0.00482214 -0.000283067 0
0.000304837 0.00411438 0
