# vtk DataFile Version 3.0
tp3485 cell-vector
ASCII
DATASET UNSTRUCTURED_GRID
POINTS 66 double
0 0 0
0.1 0 0
0.2 0 0
0.3 0 0
0.4 0 0
0.5 0 0
0.6 0 0
0.7 0 0
0.8 0 0
0.9 0 0
1 0 0
0 0.09 0
0.1 0.09 0
0.2 0.09 0
0.3 0.09 0
0.4 0.09 0
0.5 0.09 0
0.6 0.09 0
0.7 0.09 0
0.8 0.09 0
0.9 0.09 0
1 0.09 0
0 0.18 0
0.1 0.18 0
0.2 0.18 0
0.3 0.18 0
0.4 0.18 0
0.5 0.18 0
0.6 0.18 0
0.7 0.18 0
0.8 0.18 0
0.9 0.18 0
1 0.18 0
0 0.27 0
0.1 0.27 0
0.2 0.27 0
0.3 0.27 0
0.4 0.27 0
0.5 0.27 0
0.6 0.27 0
0.7 0.27 0
0.8 0.27 0
0.9 0.27 0
1 0.27 0
0 0.36 0
0.1 0.36 0
0.2 0.36 0
0.3 0.36 0
0.4 0.36 0
0.5 0.36 0
0.6 0.36 0
0.7 0.36 0
0.8 0.36 0
0.9 0.36 0
1 0.36 0
0 0.45 0
0.1 0.45 0
0.2 0.45 0
0.3 0.45 0
0.4 0.45 0
0.5 0.45 0
0.6 0.45 0
0.7 0.45 0
0.8 0.45 0
0.9 0.45 0
1 0.45 0
CELLS 100 400
3 0 1 12
3 0 12 11
3 1 2 13
3 1 13 12
3 2 3 14
3 2 14 13
3 3 4 15
3 3 15 14
3 4 5 16
3 4 16 15
3 5 6 17
3 5 17 16
3 6 7 18
3 6 18 17
3 7 8 19
3 7 19 18
3 8 9 20
3 8 20 19
3 9 10 21
3 9 21 20
3 11 12 23
3 11 23 22
3 12 13 24
3 12 24 23
3 13 14 25
3 13 25 24
3 14 15 26
3 14 26 25
3 15 16 27
3 15 27 26
3 16 17 28
3 16 28 27
3 17 18 29
3 17 29 28
3 18 19 30
3 18 30 29
3 19 20 31
3 19 31 30
3 20 21 32
3 20 32 31
3 22 23 34
3 22 34 33
3 23 24 35
3 23 35 34
3 24 25 36
3 24 36 35
3 25 26 37
3 25 37 36
3 26 27 38
3 26 38 37
3 27 28 39
3 27 39 38
3 28 29 40
3 28 40 39
3 29 30 41
3 29 41 40
3 30 31 42
3 30 42 41
3 31 32 43
3 31 43 42
3 33 34 45
3 33 45 44
3 34 35 46
3 34 46 45
3 35 36 47
3 35 47 46
3 36 37 48
3 36 48 47
3 37 38 49
3 37 49 48
3 38 39 50
3 38 50 49
3 39 40 51
3 39 51 50
3 40 41 52
3 40 52 51
3 41 42 53
3 41 53 52
3 42 43 54
3 42 54 53
3 44 45 56
3 44 56 55
3 45 46 57
3 45 57 56
3 46 47 58
3 46 58 57
3 47 48 59
3 47 59 58
3 48 49 60
3 48 60 59
3 49 50 61
3 49 61 60
3 50 51 62
3 50 62 61
3 51 52 63
3 51 63 62
3 52 53 64
3 52 64 63
3 53 54 65
3 53 65 64
CELL_TYPES 100
5
5
5
5
5
5
5
5
5
5
5
5
5
5
5
5
5
5
5
5
5
5
5
5
5
5
5
5
5
5
5
5
5
5
5
5
5
5
5
5
5
5
5
5
5
5
5
5
5
5
5
5
5
5
5
5
5
5
5
5
5
5
5
5
5
5
5
5
5
5
5
5
5
5
5
5
5
5
5
5
5
5
5
5
5
5
5
5
5
5
5
5
5
5
5
5
5
5
5
5
CELL_DATA 100
VECTORS Et double
-0.111289 0.684855 0
0.132889 0.144946 0
0.000478345 0.926197 0
0.0263992 0.853218 0
0.109727 0.38041 0
-0.107073 0.834441 0
0.124294 -0.493615 0
-0.161808 0.110435 0
0.0320941 -0.965316 0
-0.0955636 -0.709767 0
-0.0888494 -0.647097 0
0.0334613 -0.941348 0
-0.0483342 -0.221304 0
0.0525567 -0.467743 0
-0.0151839 -0.0668145 0
0.0148238 -0.142314 0
-0.00492843 -0.0190271 0
0.00350279 -0.0419074 0
-0.00214463 -0.00238292 0
0.000454519 -0.0106024 0
-0.110227 0.688312 0
0.132627 0.146645 0
-0.0142114 0.941341 0
0.0182484 0.859178 0
0.0857597 0.401545 0
-0.123501 0.849424 0
0.0988204 -0.479548 0
-0.182899 0.126758 0
0.0103948 -0.966898 0
-0.115925 -0.703969 0
-0.107371 -0.657949 0
0.0175538 -0.950093 0
-0.0674956 -0.223804 0
0.0445287 -0.481066 0
-0.0227753 -0.067867 0
0.0104016 -0.146133 0
-0.00853618 -0.0194671 0
0.00119084 -0.0434958 0
-0.00429959 -0.00233371 0
-0.000986767 -0.0112375 0
-0.113211 0.698348 0
0.134623 0.148235 0
-0.0229117 0.963288 0
0.0189333 0.870799 0
0.0731974 0.426712 0
-0.125489 0.868517 0
0.0860487 -0.464872 0
-0.187663 0.14341 0
-0.000685069 -0.969519 0
-0.121555 -0.701008 0
-0.118407 -0.667279 0
0.0142108 -0.961942 0
-0.0745783 -0.229686 0
0.0439476 -0.493196 0
-0.0266779 -0.070803 0
0.0101644 -0.152701 0
-0.0106328 -0.0206694 0
0.00109584 -0.0467369 0
-0.00565194 -0.00229436 0
-0.00102998 -0.0125684 0
-0.113887 0.708107 0
0.138409 0.149945 0
-0.0220534 0.985158 0
0.0288535 0.882496 0
0.0765344 0.452164 0
-0.111711 0.887864 0
0.0913568 -0.449664 0
-0.174338 0.160505 0
0.0044079 -0.971737 0
-0.11101 -0.697601 0
-0.116218 -0.676639 0
0.0239924 -0.973628 0
-0.0743224 -0.235682 0
0.0507809 -0.50552 0
-0.0265381 -0.0737768 0
0.0140223 -0.159362 0
-0.0105673 -0.0218827 0
0.00317657 -0.0500026 0
-0.00562052 -0.0022564 0
0.000315098 -0.0139052 0
-0.113227 0.710707 0
0.136575 0.15175 0
-0.013269 0.999912 0
0.0433533 0.888527 0
0.0937429 0.47389 0
-0.0872315 0.903289 0
0.112937 -0.434182 0
-0.148203 0.177827 0
0.024557 -0.972036 0
-0.0893244 -0.690616 0
-0.101184 -0.687633 0
0.0412614 -0.981826 0
-0.0664151 -0.238519 0
0.0701865 -0.519573 0
-0.0221871 -0.0749272 0
0.021549 -0.163286 0
-0.00828899 -0.0223575 0
0.00674082 -0.0516178 0
-0.00419171 -0.00221025 0
0.00246264 -0.0145505 0
