# vtk DataFile Version 3.0
tp3485 cell-vector
ASCII
DATASET UNSTRUCTURED_GRID
POINTS 66 double
0 0 0
0.1 0 0
0.2 0 0
0.3 0 0
0.4 0 0
0.5 0 0
0.6 0 0
0.7 0 0
0.8 0 0
0.9 0 0
1 0 0
0 0.09 0
0.1 0.09 0
0.2 0.09 0
0.3 0.09 0
0.4 0.09 0
0.5 0.09 0
0.6 0.09 0
0.7 0.09 0
0.8 0.09 0
0.9 0.09 0
1 0.09 0
0 0.18 0
0.1 0.18 0
0.2 0.18 0
0.3 0.18 0
0.4 0.18 0
0.5 0.18 0
0.6 0.18 0
0.7 0.18 0
0.8 0.18 0
0.9 0.18 0
1 0.18 0
0 0.27 0
0.1 0.27 0
0.2 0.27 0
0.3 0.27 0
0.4 0.27 0
0.5 0.27 0
0.6 0.27 0
0.7 0.27 0
0.8 0.27 0
0.9 0.27 0
1 0.27 0
0 0.36 0
0.1 0.36 0
0.2 0.36 0
0.3 0.36 0
0.4 0.36 0
0.5 0.36 0
0.6 0.36 0
0.7 0.36 0
0.8 0.36 0
0.9 0.36 0
1 0.36 0
0 0.45 0
0.1 0.45 0
0.2 0.45 0
0.3 0.45 0
0.4 0.45 0
0.5 0.45 0
0.6 0.45 0
0.7 0.45 0
0.8 0.45 0
0.9 0.45 0
1 0.45 0
CELLS 100 400
3 0 1 12
3 0 12 11
3 1 2 13
3 1 13 12
3 2 3 14
3 2 14 13
3 3 4 15
3 3 15 14
3 4 5 16
3 4 16 15
3 5 6 17
3 5 17 16
3 6 7 18
3 6 18 17
3 7 8 19
3 7 19 18
3 8 9 20
3 8 20 19
3 9 10 21
3 9 21 20
3 11 12 23
3 11 23 22
3 12 13 24
3 12 24 23
3 13 14 25
3 13 25 24
3 14 15 26
3 14 26 25
3 15 16 27
3 15 27 26
3 16 17 28
3 16 28 27
3 17 18 29
3 17 29 28
3 18 19 30
3 18 30 29
3 19 20 31
3 19 31 30
3 20 21 32
3 20 32 31
3 22 23 34
3 22 34 33
3 23 24 35
3 23 35 34
3 24 25 36
3 24 36 35
3 25 26 37
3 25 37 36
3 26 27 38
3 26 38 37
3 27 28 39
3 27 39 38
3 28 29 40
3 28 40 39
3 29 30 41
3 29 41 40
3 30 31 42
3 30 42 41
3 31 32 43
3 31 43 42
3 33 34 45
3 33 45 44
3 34 35 46
3 34 46 45
3 35 36 47
3 35 47 46
3 36 37 48
3 36 48 47
3 37 38 49
3 37 49 48
3 38 39 50
3 38 50 49
3 39 40 51
3 39 51 50
3 40 41 52
3 40 52 51
3 41 42 53
3 41 53 52
3 42 43 54
3 42 54 53
3 44 45 56
3 44 56 55
3 45 46 57
3 45 57 56
3 46 47 58
3 46 58 57
3 47 48 59
3 47 59 58
3 48 49 60
3 48 60 59
3 49 50 61
3 49 61 60
3 50 51 62
3 50 62 61
3 51 52 63
3 51 63 62
3 52 53 64
3 52 64 63
3 53 54 65
3 53 65 64
CELL_TYPES 100
5
5
5
5
5
5
5
5
5
5
5
5
5
5
5
5
5
5
5
5
5
5
5
5
5
5
5
5
5
5
5
5
5
5
5
5
5
5
5
5
5
5
5
5
5
5
5
5
5
5
5
5
5
5
5
5
5
5
5
5
5
5
5
5
5
5
5
5
5
5
5
5
5
5
5
5
5
5
5
5
5
5
5
5
5
5
5
5
5
5
5
5
5
5
5
5
5
5
5
5
CELL_DATA 100
VECTORS Et double
0.101875 -0.633384 0
-0.131724 -0.130318 0
0.011133 -0.919607 0
-0.0431207 -0.796767 0
-0.0872797 -0.517567 0
0.0783817 -0.865295 0
-0.120071 0.281969 0
0.152018 -0.287177 0
-0.0622287 0.900086 0
0.131736 0.515404 0
0.0445022 0.896376 0
0.0412232 0.959348 0
0.0525121 0.542391 0
-0.045022 0.778019 0
0.0327046 0.299162 0
-0.0250331 0.441849 0
0.0223054 0.140412 0
-0.0156698 0.235107 0
0.0181344 0.0201493 0
-0.0118317 0.0946114 0
0.089455 -0.63735 0
-0.140609 -0.133143 0
0.0145817 -0.935607 0
-0.0434224 -0.80501 0
-0.0692616 -0.542291 0
0.0895558 -0.882827 0
-0.0906936 0.258155 0
0.174172 -0.308666 0
-0.0245208 0.8856 0
0.162136 0.499515 0
0.0909752 0.889389 0
0.0771842 0.954654 0
0.0679585 0.542321 0
-0.0338696 0.778039 0
0.0449447 0.300461 0
-0.0161908 0.444822 0
0.0312401 0.141148 0
-0.00939265 0.237802 0
0.0250057 0.0199134 0
-0.00699828 0.0960647 0
0.0858948 -0.647488 0
-0.144171 -0.136666 0
0.0173248 -0.960224 0
-0.045802 -0.820413 0
-0.059631 -0.575581 0
0.0898129 -0.908092 0
-0.0755508 0.227067 0
0.177733 -0.336047 0
-0.004823 0.864735 0
0.168189 0.48018 0
0.116568 0.874255 0
0.0835385 0.947662 0
0.0737815 0.542176 0
-0.0303255 0.773275 0
0.0513917 0.303123 0
-0.0144812 0.449523 0
0.0363789 0.14278 0
-0.00855575 0.242685 0
0.0291654 0.0195039 0
-0.00650281 0.0988313 0
0.0884638 -0.657248 0
-0.141231 -0.140107 0
0.0181842 -0.984581 0
-0.0497451 -0.835735 0
-0.0616055 -0.608906 0
0.0787116 -0.933466 0
-0.0804563 0.195616 0
0.161383 -0.363782 0
-0.0113472 0.843334 0
0.148077 0.460315 0
0.110686 0.858679 0
0.0584626 0.940148 0
0.0707065 0.541997 0
-0.0354852 0.768243 0
0.0501194 0.305849 0
-0.0204996 0.454302 0
0.0358038 0.144452 0
-0.0134842 0.247672 0
0.0288338 0.0190707 0
-0.010563 0.10165 0
0.0970367 -0.660206 0
-0.128326 -0.142584 0
0.0178565 -0.999841 0
-0.0530147 -0.843746 0
-0.0736514 -0.633633 0
0.0604017 -0.951171 0
-0.10339 0.170892 0
0.13148 -0.386067 0
-0.0420346 0.827357 0
0.110075 0.443103 0
0.0751063 0.850425 0
0.0123922 0.934063 0
0.0598998 0.54194 0
-0.0497951 0.767373 0
0.0415772 0.307343 0
-0.0325216 0.457584 0
0.0296894 0.145305 0
-0.0224085 0.250671 0
0.024092 0.0187706 0
-0.017524 0.103252 0
