# vtk DataFile Version 3.0
tp3485 cell-vector
ASCII
DATASET UNSTRUCTURED_GRID
POINTS 66 double
0 0 0
0.1 0 0
0.2 0 0
0.3 0 0
0.4 0 0
0.5 0 0
0.6 0 0
0.7 0 0
0.8 0 0
0.9 0 0
1 0 0
0 0.09 0
0.1 0.09 0
0.2 0.09 0
0.3 0.09 0
0.4 0.09 0
0.5 0.09 0
0.6 0.09 0
0.7 0.09 0
0.8 0.09 0
0.9 0.09 0
1 0.09 0
0 0.18 0
0.1 0.18 0
0.2 0.18 0
0.3 0.18 0
0.4 0.18 0
0.5 0.18 0
0.6 0.18 0
0.7 0.18 0
0.8 0.18 0
0.9 0.18 0
1 0.18 0
0 0.27 0
0.1 0.27 0
0.2 0.27 0
0.3 0.27 0
0.4 0.27 0
0.5 0.27 0
0.6 0.27 0
0.7 0.27 0
0.8 0.27 0
0.9 0.27 0
1 0.27 0
0 0.36 0
0.1 0.36 0
0.2 0.36 0
0.3 0.36 0
0.4 0.36 0
0.5 0.36 0
0.6 0.36 0
0.7 0.36 0
0.8 0.36 0
0.9 0.36 0
1 0.36 0
0 0.45 0
0.1 0.45 0
0.2 0.45 0
0.3 0.45 0
0.4 0.45 0
0.5 0.45 0
0.6 0.45 0
0.7 0.45 0
0.8 0.45 0
0.9 0.45 0
1 0.45 0
CELLS 100 400
3 0 1 12
3 0 12 11
3 1 2 13
3 1 13 12
3 2 3 14
3 2 14 13
3 3 4 15
3 3 15 14
3 4 5 16
3 4 16 15
3 5 6 17
3 5 17 16
3 6 7 18
3 6 18 17
3 7 8 19
3 7 19 18
3 8 9 20
3 8 20 19
3 9 10 21
3 9 21 20
3 11 12 23
3 11 23 22
3 12 13 24
3 12 24 23
3 13 14 25
3 13 25 24
3 14 15 26
3 14 26 25
3 15 16 27
3 15 27 26
3 16 17 28
3 16 28 27
3 17 18 29
3 17 29 28
3 18 19 30
3 18 30 29
3 19 20 31
3 19 31 30
3 20 21 32
3 20 32 31
3 22 23 34
3 22 34 33
3 23 24 35
3 23 35 34
3 24 25 36
3 24 36 35
3 25 26 37
3 25 37 36
3 26 27 38
3 26 38 37
3 27 28 39
3 27 39 38
3 28 29 40
3 28 40 39
3 29 30 41
3 29 41 40
3 30 31 42
3 30 42 41
3 31 32 43
3 31 43 42
3 33 34 45
3 33 45 44
3 34 35 46
3 34 46 45
3 35 36 47
3 35 47 46
3 36 37 48
3 36 48 47
3 37 38 49
3 37 49 48
3 38 39 50
3 38 50 49
3 39 40 51
3 39 51 50
3 40 41 52
3 40 52 51
3 41 42 53
3 41 53 52
3 42 43 54
3 42 54 53
3 44 45 56
3 44 56 55
3 45 46 57
3 45 57 56
3 46 47 58
3 46 58 57
3 47 48 59
3 47 59 58
3 48 49 60
3 48 60 59
3 49 50 61
3 49 61 60
3 50 51 62
3 50 62 61
3 51 52 63
3 51 63 62
3 52 53 64
3 52 64 63
3 53 54 65
3 53 65 64
CELL_TYPES 100
5
5
5
5
5
5
5
5
5
5
5
5
5
5
5
5
5
5
5
5
5
5
5
5
5
5
5
5
5
5
5
5
5
5
5
5
5
5
5
5
5
5
5
5
5
5
5
5
5
5
5
5
5
5
5
5
5
5
5
5
5
5
5
5
5
5
5
5
5
5
5
5
5
5
5
5
5
5
5
5
5
5
5
5
5
5
5
5
5
5
5
5
5
5
5
5
5
5
5
5
CELL_DATA 100
VECTORS Et double
-0.113065 0.695729 0
0.13392 0.147837 0
0.00315445 0.927003 0
0.0234898 0.864635 0
0.114288 0.351796 0
-0.112443 0.827102 0
0.124414 -0.533652 0
-0.163001 0.0743727 0
0.0251908 -0.970581 0
-0.0878815 -0.744422 0
-0.0971614 -0.592059 0
0.04617 -0.928922 0
-0.044097 -0.171093 0
0.0511901 -0.405033 0
-0.0114931 -0.0423558 0
0.0117064 -0.1015 0
-0.00305585 -0.00988759 0
0.00190236 -0.0241889 0
-0.00108216 -0.0012024 0
-0.000270873 -0.00489921 0
-0.113507 0.69909 0
0.132389 0.149395 0
-0.0131028 0.94209 0
0.0141658 0.870291 0
0.0896952 0.372422 0
-0.129493 0.841819 0
0.0999589 -0.521133 0
-0.183656 0.0899775 0
0.00609286 -0.974373 0
-0.106486 -0.740138 0
-0.112404 -0.604074 0
0.0330845 -0.939264 0
-0.0630879 -0.172934 0
0.0441639 -0.418769 0
-0.0179765 -0.0431263 0
0.00808396 -0.104747 0
-0.00590384 -0.0102487 0
0.000103438 -0.0254711 0
-0.00275412 -0.00116618 0
-0.00136992 -0.00542112 0
-0.117408 0.709108 0
0.13417 0.15071 0
-0.0226402 0.963639 0
0.0146049 0.881373 0
0.076829 0.396277 0
-0.131742 0.860016 0
0.0877446 -0.509029 0
-0.188574 0.104994 0
-0.00365225 -0.980051 0
-0.111937 -0.739541 0
-0.121765 -0.615022 0
0.0303953 -0.9531 0
-0.0696758 -0.178395 0
0.0439864 -0.431187 0
-0.0212053 -0.0456054 0
0.00797355 -0.110478 0
-0.00754374 -0.0112389 0
5.38052e-05 -0.0281244 0
-0.00379558 -0.00114442 0
-0.00139251 -0.00648595 0
-0.117811 0.718871 0
0.138907 0.152181 0
-0.0215379 0.985153 0
0.0253647 0.892563 0
0.0803423 0.420474 0
-0.117718 0.878498 0
0.0930359 -0.496357 0
-0.175944 0.120471 0
0.00106914 -0.985356 0
-0.102909 -0.738514 0
-0.120325 -0.626078 0
0.0383907 -0.966834 0
-0.0697859 -0.183985 0
0.0504131 -0.44387 0
-0.0211497 -0.0481118 0
0.0112089 -0.11629 0
-0.00750635 -0.0122345 0
0.00169287 -0.0307896 0
-0.00377832 -0.00112387 0
-0.000354078 -0.00755229 0
-0.115869 0.721404 0
0.138527 0.153919 0
-0.0115794 0.999933 0
0.0414406 0.898352 0
0.0981549 0.441828 0
-0.0925546 0.893719 0
0.114119 -0.482314 0
-0.150794 0.137125 0
0.0193599 -0.987899 0
-0.0838874 -0.733063 0
-0.108213 -0.638417 0
0.0522438 -0.976759 0
-0.062812 -0.186217 0
0.0699855 -0.458649 0
-0.0175629 -0.0489523 0
0.0176156 -0.119527 0
-0.00572793 -0.0126168 0
0.00448862 -0.0320499 0
-0.00268626 -0.00109148 0
0.00130653 -0.00807109 0
