# vtk DataFile Version 3.0
tp3485 cell-vector
ASCII
DATASET UNSTRUCTURED_GRID
POINTS 66 double
0 0 0
0.1 0 0
0.2 0 0
0.3 0 0
0.4 0 0
0.5 0 0
0.6 0 0
0.7 0 0
0.8 0 0
0.9 0 0
1 0 0
0 0.09 0
0.1 0.09 0
0.2 0.09 0
0.3 0.09 0
0.4 0.09 0
0.5 0.09 0
0.6 0.09 0
0.7 0.09 0
0.8 0.09 0
0.9 0.09 0
1 0.09 0
0 0.18 0
0.1 0.18 0
0.2 0.18 0
0.3 0.18 0
0.4 0.18 0
0.5 0.18 0
0.6 0.18 0
0.7 0.18 0
0.8 0.18 0
0.9 0.18 0
1 0.18 0
0 0.27 0
0.1 0.27 0
0.2 0.27 0
0.3 0.27 0
0.4 0.27 0
0.5 0.27 0
0.6 0.27 0
0.7 0.27 0
0.8 0.27 0
0.9 0.27 0
1 0.27 0
0 0.36 0
0.1 0.36 0
0.2 0.36 0
0.3 0.36 0
0.4 0.36 0
0.5 0.36 0
0.6 0.36 0
0.7 0.36 0
0.8 0.36 0
0.9 0.36 0
1 0.36 0
0 0.45 0
0.1 0.45 0
0.2 0.45 0
0.3 0.45 0
0.4 0.45 0
0.5 0.45 0
0.6 0.45 0
0.7 0.45 0
0.8 0.45 0
0.9 0.45 0
1 0.45 0
CELLS 100 400
3 0 1 12
3 0 12 11
3 1 2 13
3 1 13 12
3 2 3 14
3 2 14 13
3 3 4 15
3 3 15 14
3 4 5 16
3 4 16 15
3 5 6 17
3 5 17 16
3 6 7 18
3 6 18 17
3 7 8 19
3 7 19 18
3 8 9 20
3 8 20 19
3 9 10 21
3 9 21 20
3 11 12 23
3 11 23 22
3 12 13 24
3 12 24 23
3 13 14 25
3 13 25 24
3 14 15 26
3 14 26 25
3 15 16 27
3 15 27 26
3 16 17 28
3 16 28 27
3 17 18 29
3 17 29 28
3 18 19 30
3 18 30 29
3 19 20 31
3 19 31 30
3 20 21 32
3 20 32 31
3 22 23 34
3 22 34 33
3 23 24 35
3 23 35 34
3 24 25 36
3 24 36 35
3 25 26 37
3 25 37 36
3 26 27 38
3 26 38 37
3 27 28 39
3 27 39 38
3 28 29 40
3 28 40 39
3 29 30 41
3 29 41 40
3 30 31 42
3 30 42 41
3 31 32 43
3 31 43 42
3 33 34 45
3 33 45 44
3 34 35 46
3 34 46 45
3 35 36 47
3 35 47 46
3 36 37 48
3 36 48 47
3 37 38 49
3 37 49 48
3 38 39 50
3 38 50 49
3 39 40 51
3 39 51 50
3 40 41 52
3 40 52 51
3 41 42 53
3 41 53 52
3 42 43 54
3 42 54 53
3 44 45 56
3 44 56 55
3 45 46 57
3 45 57 56
3 46 47 58
3 46 58 57
3 47 48 59
3 47 59 58
3 48 49 60
3 48 60 59
3 49 50 61
3 49 61 60
3 50 51 62
3 50 62 61
3 51 52 63
3 51 63 62
3 52 53 64
3 52 64 63
3 53 54 65
3 53 65 64
CELL_TYPES 100
5
5
5
5
5
5
5
5
5
5
5
5
5
5
5
5
5
5
5
5
5
5
5
5
5
5
5
5
5
5
5
5
5
5
5
5
5
5
5
5
5
5
5
5
5
5
5
5
5
5
5
5
5
5
5
5
5
5
5
5
5
5
5
5
5
5
5
5
5
5
5
5
5
5
5
5
5
5
5
5
5
5
5
5
5
5
5
5
5
5
5
5
5
5
5
5
5
5
5
5
CELL_DATA 100
VECTORS Et double
-0.116905 -0.0512747 0
-0.500774 0.122675 0
-0.110049 0.0304875 0
-0.475353 0.196362 0
-0.0975933 0.104602 0
-0.430436 0.259377 0
-0.0807911 0.166814 0
-0.365986 0.303484 0
-0.0611421 0.219923 0
-0.282773 0.327413 0
-0.0399217 0.272847 0
-0.182014 0.337114 0
-0.0179263 0.338338 0
-0.0649076 0.343913 0
0.00444315 0.431416 0
0.0681528 0.361911 0
0.00796828 0.172123 0
-0.19505 0.416516 0
0.00558362 0.00620402 0
-0.118955 0.157027 0
-0.691689 -0.0321365 0
-0.924188 0.0683715 0
-0.657103 0.0241827 0
-0.881074 0.123076 0
-0.593283 0.0719147 0
-0.799398 0.167495 0
-0.502372 0.107907 0
-0.680893 0.195706 0
-0.38787 0.135361 0
-0.528175 0.207157 0
-0.253338 0.162888 0
-0.34426 0.207611 0
-0.101335 0.202127 0
-0.131443 0.207348 0
0.0673545 0.266743 0
0.111021 0.218442 0
-0.181011 0.10429 0
-0.310681 0.258989 0
-0.109969 0.00374257 0
-0.187008 0.0958698 0
-0.999997 0.00232073 0
-0.992548 -0.0109089 0
-0.953395 0.0163457 0
-0.949265 0.00767117 0
-0.863149 0.0210225 0
-0.863143 0.0201173 0
-0.732818 0.014371 0
-0.736844 0.0216798 0
-0.567141 -2.07679e-05 0
-0.57357 0.0122923 0
-0.370672 -0.0144616 0
-0.376703 -0.00284027 0
-0.146099 -0.0205193 0
-0.148546 -0.0155209 0
0.108065 -0.0120823 0
0.112498 -0.0182222 0
-0.306487 -0.00828275 0
-0.308524 -0.00884685 0
-0.185191 -0.000765647 0
-0.183652 -0.00559881 0
-0.926332 0.039502 0
-0.681695 -0.0848264 0
-0.885866 0.0103693 0
-0.654312 -0.105072 0
-0.803464 -0.0283579 0
-0.596788 -0.126038 0
-0.683071 -0.0778713 0
-0.511409 -0.151885 0
-0.529232 -0.134472 0
-0.400354 -0.182633 0
-0.345889 -0.191793 0
-0.265884 -0.213919 0
-0.134605 -0.24548 0
-0.109567 -0.239989 0
0.108216 -0.298337 0
0.0702118 -0.258631 0
-0.316881 -0.123364 0
-0.18674 -0.284405 0
-0.190828 -0.00561647 0
-0.109036 -0.109345 0
-0.500798 0.0645086 0
-0.112729 -0.125255 0
-0.480772 0.0080592 0
-0.109068 -0.172847 0
-0.43652 -0.0576281 0
-0.101459 -0.215586 0
-0.371094 -0.133677 0
-0.0896734 -0.258865 0
-0.287364 -0.216526 0
-0.0734452 -0.303147 0
-0.187381 -0.300923 0
-0.0529209 -0.344789 0
-0.0711008 -0.385962 0
-0.0289451 -0.379818 0
0.0659529 -0.483669 0
-0.0030285 -0.410148 0
-0.205566 -0.196372 0
0.0123401 -0.463467 0
-0.123599 -0.00894803 0
0.00896382 -0.175148 0
