# vtk DataFile Version 3.0
tp3485 cell-vector
ASCII
DATASET UNSTRUCTURED_GRID
POINTS 66 double
0 0 0
0.1 0 0
0.2 0 0
0.3 0 0
0.4 0 0
0.5 0 0
0.6 0 0
0.7 0 0
0.8 0 0
0.9 0 0
1 0 0
0 0.09 0
0.1 0.09 0
0.2 0.09 0
0.3 0.09 0
0.4 0.09 0
0.5 0.09 0
0.6 0.09 0
0.7 0.09 0
0.8 0.09 0
0.9 0.09 0
1 0.09 0
0 0.18 0
0.1 0.18 0
0.2 0.18 0
0.3 0.18 0
0.4 0.18 0
0.5 0.18 0
0.6 0.18 0
0.7 0.18 0
0.8 0.18 0
0.9 0.18 0
1 0.18 0
0 0.27 0
0.1 0.27 0
0.2 0.27 0
0.3 0.27 0
0.4 0.27 0
0.5 0.27 0
0.6 0.27 0
0.7 0.27 0
0.8 0.27 0
0.9 0.27 0
1 0.27 0
0 0.36 0
0.1 0.36 0
0.2 0.36 0
0.3 0.36 0
0.4 0.36 0
0.5 0.36 0
0.6 0.36 0
0.7 0.36 0
0.8 0.36 0
0.9 0.36 0
1 0.36 0
0 0.45 0
0.1 0.45 0
0.2 0.45 0
0.3 0.45 0
0.4 0.45 0
0.5 0.45 0
0.6 0.45 0
0.7 0.45 0
0.8 0.45 0
0.9 0.45 0
1 0.45 0
CELLS 100 400
3 0 1 12
3 0 12 11
3 1 2 13
3 1 13 12
3 2 3 14
3 2 14 13
3 3 4 15
3 3 15 14
3 4 5 16
3 4 16 15
3 5 6 17
3 5 17 16
3 6 7 18
3 6 18 17
3 7 8 19
3 7 19 18
3 8 9 20
3 8 20 19
3 9 10 21
3 9 21 20
3 11 12 23
3 11 23 22
3 12 13 24
3 12 24 23
3 13 14 25
3 13 25 24
3 14 15 26
3 14 26 25
3 15 16 27
3 15 27 26
3 16 17 28
3 16 28 27
3 17 18 29
3 17 29 28
3 18 19 30
3 18 30 29
3 19 20 31
3 19 31 30
3 20 21 32
3 20 32 31
3 22 23 34
3 22 34 33
3 23 24 35
3 23 35 34
3 24 25 36
3 24 36 35
3 25 26 37
3 25 37 36
3 26 27 38
3 26 38 37
3 27 28 39
3 27 39 38
3 28 29 40
3 28 40 39
3 29 30 41
3 29 41 40
3 30 31 42
3 30 42 41
3 31 32 43
3 31 43 42
3 33 34 45
3 33 45 44
3 34 35 46
3 34 46 45
3 35 36 47
3 35 47 46
3 36 37 48
3 36 48 47
3 37 38 49
3 37 49 48
3 38 39 50
3 38 50 49
3 39 40 51
3 39 51 50
3 40 41 52
3 40 52 51
3 41 42 53
3 41 53 52
3 42 43 54
3 42 54 53
3 44 45 56
3 44 56 55
3 45 46 57
3 45 57 56
3 46 47 58
3 46 58 57
3 47 48 59
3 47 59 58
3 48 49 60
3 48 60 59
3 49 50 61
3 49 61 60
3 50 51 62
3 50 62 61
3 51 52 63
3 51 63 62
3 52 53 64
3 52 64 63
3 53 54 65
3 53 65 64
CELL_TYPES 100
5
5
5
5
5
5
5
5
5
5
5
5
5
5
5
5
5
5
5
5
5
5
5
5
5
5
5
5
5
5
5
5
5
5
5
5
5
5
5
5
5
5
5
5
5
5
5
5
5
5
5
5
5
5
5
5
5
5
5
5
5
5
5
5
5
5
5
5
5
5
5
5
5
5
5
5
5
5
5
5
5
5
5
5
5
5
5
5
5
5
5
5
5
5
5
5
5
5
5
5
CELL_DATA 100
VECTORS Et double
0.00222397 -0.660712 0
-0.584872 -0.00295624 0
-0.0013995 -0.621969 0
0.0337455 -0.662879 0
-0.00234298 0.00154143 0
0.550251 -0.617734 0
-0.000758043 0.00347538 0
-0.00409181 0.00524102 0
-0.000314442 0.00275922 0
-0.0028511 0.004773 0
-0.000129829 0.00180038 0
-0.00177555 0.00329665 0
-5.36925e-05 0.00106012 0
-0.00104322 0.00202229 0
-2.25424e-05 0.000566477 0
-0.000601307 0.00115214 0
-1.01471e-05 0.000240543 0
-0.000361469 0.000605575 0
-6.05644e-06 -6.72938e-06 0
-0.000257922 0.000259105 0
-0.581038 -0.386439 0
-0.92593 -0.000961473 0
0.0323553 -0.40783 0
0.01239 -0.387314 0
0.546039 0.000664977 0
0.907748 -0.404913 0
-0.00565051 0.00211998 0
-0.00802896 0.00339668 0
-0.00349331 0.00169569 0
-0.00520606 0.00304807 0
-0.00203976 0.00110235 0
-0.00311431 0.00207235 0
-0.00115231 0.000646374 0
-0.00178439 0.0012565 0
-0.000646975 0.000344272 0
-0.00101132 0.000710323 0
-0.000381652 0.000145686 0
-0.000600689 0.00037167 0
-0.000269023 -5.04763e-06 0
-0.000425376 0.000158845 0
-0.925431 0.0198893 0
-0.91004 0.0011909 0
0.0116434 -0.0188737 0
-0.0242019 0.0204247 0
0.905674 -0.00110146 0
0.921021 -0.0186269 0
-0.00887724 -0.000325757 0
-0.00910021 -0.000381844 0
-0.00554088 -0.000142643 0
-0.00568179 -8.96221e-05 0
-0.00324964 -7.64894e-05 0
-0.00330541 -5.47643e-05 0
-0.0018404 -4.25187e-05 0
-0.001858 -4.05633e-05 0
-0.00103523 -2.25882e-05 0
-0.00103929 -2.65822e-05 0
-0.000611605 -1.02929e-05 0
-0.000611603 -1.49147e-05 0
-0.00043151 -2.03138e-06 0
-0.000430672 -6.08685e-06 0
-0.912345 0.409423 0
-0.549252 0.0023082 0
-0.0232694 0.387281 0
-0.0418679 0.409952 0
0.92233 -0.00244066 0
0.57809 0.383732 0
-0.0088753 -0.00294334 0
-0.00660363 -0.00443308 0
-0.0055812 -0.00210046 0
-0.0039023 -0.00355753 0
-0.00326565 -0.00130885 0
-0.0021932 -0.00234209 0
-0.00184385 -0.000752351 0
-0.0012051 -0.00140185 0
-0.00103495 -0.000397108 0
-0.000663635 -0.000787301 0
-0.000610664 -0.000168734 0
-0.000386174 -0.000409943 0
-0.000430597 1.17532e-06 0
-0.000270019 -0.000173677 0
-0.552785 0.623777 0
0.00238614 0.00265126 0
-0.0387892 0.661299 0
-0.00138447 0.623857 0
0.582851 -0.0032935 0
-0.00344841 0.654888 0
-0.00528161 -0.00471647 0
-0.00108291 -0.0074023 0
-0.00339021 -0.00339031 0
-0.000410456 -0.00594869 0
-0.00199596 -0.0021038 0
-0.000156459 -0.00386054 0
-0.0011298 -0.00120379 0
-5.9662e-05 -0.00228338 0
-0.000635186 -0.000633222 0
-2.26951e-05 -0.00127217 0
-0.000375282 -0.000268183 0
-8.73938e-06 -0.000659317 0
-0.000264856 3.34317e-06 0
-3.89673e-06 -0.000278939 0
