# vtk DataFile Version 3.0
tp3485 cell-vector
ASCII
DATASET UNSTRUCTURED_GRID
POINTS 66 double
0 0 0
0.1 0 0
0.2 0 0
0.3 0 0
0.4 0 0
0.5 0 0
0.6 0 0
0.7 0 0
0.8 0 0
0.9 0 0
1 0 0
0 0.09 0
0.1 0.09 0
0.2 0.09 0
0.3 0.09 0
0.4 0.09 0
0.5 0.09 0
0.6 0.09 0
0.7 0.09 0
0.8 0.09 0
0.9 0.09 0
1 0.09 0
0 0.18 0
0.1 0.18 0
0.2 0.18 0
0.3 0.18 0
0.4 0.18 0
0.5 0.18 0
0.6 0.18 0
0.7 0.18 0
0.8 0.18 0
0.9 0.18 0
1 0.18 0
0 0.27 0
0.1 0.27 0
0.2 0.27 0
0.3 0.27 0
0.4 0.27 0
0.5 0.27 0
0.6 0.27 0
0.7 0.27 0
0.8 0.27 0
0.9 0.27 0
1 0.27 0
0 0.36 0
0.1 0.36 0
0.2 0.36 0
0.3 0.36 0
0.4 0.36 0
0.5 0.36 0
0.6 0.36 0
0.7 0.36 0
0.8 0.36 0
0.9 0.36 0
1 0.36 0
0 0.45 0
0.1 0.45 0
0.2 0.45 0
0.3 0.45 0
0.4 0.45 0
0.5 0.45 0
0.6 0.45 0
0.7 0.45 0
0.8 0.45 0
0.9 0.45 0
1 0.45 0
CELLS 100 400
3 0 1 12
3 0 12 11
3 1 2 13
3 1 13 12
3 2 3 14
3 2 14 13
3 3 4 15
3 3 15 14
3 4 5 16
3 4 16 15
3 5 6 17
3 5 17 16
3 6 7 18
3 6 18 17
3 7 8 19
3 7 19 18
3 8 9 20
3 8 20 19
3 9 10 21
3 9 21 20
3 11 12 23
3 11 23 22
3 12 13 24
3 12 24 23
3 13 14 25
3 13 25 24
3 14 15 26
3 14 26 25
3 15 16 27
3 15 27 26
3 16 17 28
3 16 28 27
3 17 18 29
3 17 29 28
3 18 19 30
3 18 30 29
3 19 20 31
3 19 31 30
3 20 21 32
3 20 32 31
3 22 23 34
3 22 34 33
3 23 24 35
3 23 35 34
3 24 25 36
3 24 36 35
3 25 26 37
3 25 37 36
3 26 27 38
3 26 38 37
3 27 28 39
3 27 39 38
3 28 29 40
3 28 40 39
3 29 30 41
3 29 41 40
3 30 31 42
3 30 42 41
3 31 32 43
3 31 43 42
3 33 34 45
3 33 45 44
3 34 35 46
3 34 46 45
3 35 36 47
3 35 47 46
3 36 37 48
3 36 48 47
3 37 38 49
3 37 49 48
3 38 39 50
3 38 50 49
3 39 40 51
3 39 51 50
3 40 41 52
3 40 52 51
3 41 42 53
3 41 53 52
3 42 43 54
3 42 54 53
3 44 45 56
3 44 56 55
3 45 46 57
3 45 57 56
3 46 47 58
3 46 58 57
3 47 48 59
3 47 59 58
3 48 49 60
3 48 60 59
3 49 50 61
3 49 61 60
3 50 51 62
3 50 62 61
3 51 52 63
3 51 63 62
3 52 53 64
3 52 64 63
3 53 54 65
3 53 65 64
CELL_TYPES 100
5
5
5
5
5
5
5
5
5
5
5
5
5
5
5
5
5
5
5
5
5
5
5
5
5
5
5
5
5
5
5
5
5
5
5
5
5
5
5
5
5
5
5
5
5
5
5
5
5
5
5
5
5
5
5
5
5
5
5
5
5
5
5
5
5
5
5
5
5
5
5
5
5
5
5
5
5
5
5
5
5
5
5
5
5
5
5
5
5
5
5
5
5
5
5
5
5
5
5
5
CELL_DATA 100
VECTORS Et double
-0.098583 0.599518 0
0.101164 0.13402 0
0.0264746 0.680188 0
-0.00541703 0.727047 0
0.118905 0.0408018 0
-0.108022 0.537916 0
0.0817833 -0.610629 0
-0.0891359 -0.210582 0
0.0283456 -0.892433 0
-0.0454349 -0.74023 0
0.00652101 -0.988095 0
-0.0168726 -0.939392 0
-0.0158585 -0.931947 0
0.00813876 -0.985786 0
-0.0356854 -0.736181 0
0.0297667 -0.881441 0
-0.050143 -0.431405 0
0.0461255 -0.645308 0
-0.0571628 -0.0635142 0
0.0551352 -0.313747 0
-0.117254 0.593614 0
0.0821234 0.131708 0
0.00451466 0.677719 0
-0.021828 0.719149 0
0.112284 0.0374445 0
-0.115235 0.535432 0
0.0999737 -0.63118 0
-0.0866016 -0.213752 0
0.0173117 -0.899316 0
-0.0462618 -0.759862 0
0.00337111 -0.990579 0
-0.0174515 -0.945359 0
-0.0163949 -0.933108 0
0.00818931 -0.987869 0
-0.0355389 -0.73699 0
0.0299906 -0.88244 0
-0.0501253 -0.432019 0
0.0462303 -0.646058 0
-0.0577849 -0.0635231 0
0.0550088 -0.314335 0
-0.130496 0.589334 0
0.0776897 0.126741 0
-0.00858716 0.670039 0
-0.0253875 0.707078 0
0.10637 0.0266306 0
-0.117263 0.523269 0
0.102085 -0.644844 0
-0.0863197 -0.225729 0
0.0149596 -0.906888 0
-0.0460104 -0.772088 0
0.00203811 -0.993916 0
-0.0170935 -0.951571 0
-0.0167046 -0.934586 0
0.00843376 -0.990477 0
-0.0354765 -0.737775 0
0.030127 -0.883556 0
-0.050094 -0.432464 0
0.0463028 -0.64667 0
-0.0579583 -0.0635566 0
0.0550556 -0.314688 0
-0.126222 0.585513 0
0.090717 0.122321 0
-0.0060161 0.662639 0
-0.0131293 0.695307 0
0.107325 0.0154602 0
-0.112379 0.510917 0
0.102018 -0.659912 0
-0.0887206 -0.2385 0
0.0135782 -0.914879 0
-0.0440062 -0.785665 0
0.00146398 -0.997358 0
-0.0157459 -0.958167 0
-0.0169445 -0.936083 0
0.00879777 -0.993167 0
-0.0355762 -0.738558 0
0.030104 -0.884676 0
-0.0501373 -0.432906 0
0.0462937 -0.647273 0
-0.0579827 -0.0635944 0
0.0552415 -0.315035 0
-0.107305 0.58046 0
0.109059 0.121177 0
0.0101026 0.660842 0
0.00890507 0.688058 0
0.11434 0.0118329 0
-0.105379 0.507973 0
0.0994336 -0.683595 0
-0.108172 -0.243279 0
0.014059 -0.922513 0
-0.031563 -0.808116 0
0.00201873 -0.999998 0
-0.0122416 -0.96475 0
-0.0169689 -0.937258 0
0.00941404 -0.995339 0
-0.0357775 -0.739356 0
0.0299666 -0.885655 0
-0.0502291 -0.433513 0
0.0462666 -0.647994 0
-0.0578475 -0.0636128 0
0.055847 -0.315605 0
