# vtk DataFile Version 3.0
tp3485 cell-vector
ASCII
DATASET UNSTRUCTURED_GRID
POINTS 66 double
0 0 0
0.1 0 0
0.2 0 0
0.3 0 0
0.4 0 0
0.5 0 0
0.6 0 0
0.7 0 0
0.8 0 0
0.9 0 0
1 0 0
0 0.09 0
0.1 0.09 0
0.2 0.09 0
0.3 0.09 0
0.4 0.09 0
0.5 0.09 0
0.6 0.09 0
0.7 0.09 0
0.8 0.09 0
0.9 0.09 0
1 0.09 0
0 0.18 0
0.1 0.18 0
0.2 0.18 0
0.3 0.18 0
0.4 0.18 0
0.5 0.18 0
0.6 0.18 0
0.7 0.18 0
0.8 0.18 0
0.9 0.18 0
1 0.18 0
0 0.27 0
0.1 0.27 0
0.2 0.27 0
0.3 0.27 0
0.4 0.27 0
0.5 0.27 0
0.6 0.27 0
0.7 0.27 0
0.8 0.27 0
0.9 0.27 0
1 0.27 0
0 0.36 0
0.1 0.36 0
0.2 0.36 0
0.3 0.36 0
0.4 0.36 0
0.5 0.36 0
0.6 0.36 0
0.7 0.36 0
0.8 0.36 0
0.9 0.36 0
1 0.36 0
0 0.45 0
0.1 0.45 0
0.2 0.45 0
0.3 0.45 0
0.4 0.45 0
0.5 0.45 0
0.6 0.45 0
0.7 0.45 0
0.8 0.45 0
0.9 0.45 0
1 0.45 0
CELLS 100 400
3 0 1 12
3 0 12 11
3 1 2 13
3 1 13 12
3 2 3 14
3 2 14 13
3 3 4 15
3 3 15 14
3 4 5 16
3 4 16 15
3 5 6 17
3 5 17 16
3 6 7 18
3 6 18 17
3 7 8 19
3 7 19 18
3 8 9 20
3 8 20 19
3 9 10 21
3 9 21 20
3 11 12 23
3 11 23 22
3 12 13 24
3 12 24 23
3 13 14 25
3 13 25 24
3 14 15 26
3 14 26 25
3 15 16 27
3 15 27 26
3 16 17 28
3 16 28 27
3 17 18 29
3 17 29 28
3 18 19 30
3 18 30 29
3 19 20 31
3 19 31 30
3 20 21 32
3 20 32 31
3 22 23 34
3 22 34 33
3 23 24 35
3 23 35 34
3 24 25 36
3 24 36 35
3 25 26 37
3 25 37 36
3 26 27 38
3 26 38 37
3 27 28 39
3 27 39 38
3 28 29 40
3 28 40 39
3 29 30 41
3 29 41 40
3 30 31 42
3 30 42 41
3 31 32 43
3 31 43 42
3 33 34 45
3 33 45 44
3 34 35 46
3 34 46 45
3 35 36 47
3 35 47 46
3 36 37 48
3 36 48 47
3 37 38 49
3 37 49 48
3 38 39 50
3 38 50 49
3 39 40 51
3 39 51 50
3 40 41 52
3 40 52 51
3 41 42 53
3 41 53 52
3 42 43 54
3 42 54 53
3 44 45 56
3 44 56 55
3 45 46 57
3 45 57 56
3 46 47 58
3 46 58 57
3 47 48 59
3 47 59 58
3 48 49 60
3 48 60 59
3 49 50 61
3 49 61 60
3 50 51 62
3 50 62 61
3 51 52 63
3 51 63 62
3 52 53 64
3 52 64 63
3 53 54 65
3 53 65 64
CELL_TYPES 100
5
5
5
5
5
5
5
5
5
5
5
5
5
5
5
5
5
5
5
5
5
5
5
5
5
5
5
5
5
5
5
5
5
5
5
5
5
5
5
5
5
5
5
5
5
5
5
5
5
5
5
5
5
5
5
5
5
5
5
5
5
5
5
5
5
5
5
5
5
5
5
5
5
5
5
5
5
5
5
5
5
5
5
5
5
5
5
5
5
5
5
5
5
5
5
5
5
5
5
5
CELL_DATA 100
VECTORS Et double
0.0684086 -0.54169 0
-0.166059 -0.102581 0
-0.045229 -0.478091 0
0.0183425 -0.60834 0
-0.104172 0.258275 0
0.203983 -0.313852 0
-0.0260522 0.819643 0
0.215566 0.448127 0
0.102809 0.560233 0
0.0771155 0.775802 0
0.0488467 0.153444 0
-0.0146938 0.36216 0
0.0141031 0.0293952 0
0.00898186 0.0749629 0
0.00407907 0.00157333 0
0.00980575 0.0067339 0
0.0012143 -0.00177421 0
0.00717229 -0.00500197 0
0.000484796 0.000538662 0
0.00549563 -0.00380685 0
0.00615357 -0.59645 0
-0.230579 -0.122324 0
-0.0348339 -0.576519 0
0.0134115 -0.682534 0
-0.0155284 0.179351 0
0.274116 -0.399594 0
0.105167 0.804243 0
0.328181 0.408579 0
0.236169 0.580508 0
0.181394 0.799055 0
0.107219 0.169307 0
0.0209028 0.396701 0
0.04414 0.0393542 0
0.0283247 0.0947368 0
0.0199604 0.00701297 0
0.0199936 0.0178824 0
0.0101618 0.000550287 0
0.0128369 0.000789026 0
0.00657361 0.000514341 0
0.00932251 -0.00137704 0
-0.0203021 -0.683963 0
-0.264093 -0.150884 0
-0.0333874 -0.726781 0
-0.00283347 -0.802663 0
0.0207461 0.0607342 0
0.284878 -0.532266 0
0.165401 0.777387 0
0.356606 0.349219 0
0.307414 0.603563 0
0.203816 0.831944 0
0.136311 0.197395 0
0.0257877 0.442925 0
0.061534 0.0568981 0
0.0297914 0.127573 0
0.0295781 0.0163471 0
0.0204279 0.0367503 0
0.0156599 0.00448313 0
0.0129661 0.0104965 0
0.0103438 0.000486182 0
0.00936875 0.00266721 0
-0.00478303 -0.767417 0
-0.24891 -0.179463 0
-0.0383258 -0.876352 0
-0.0201793 -0.923995 0
-0.0067663 -0.0613946 0
0.235782 -0.669639 0
0.131178 0.746081 0
0.293425 0.283475 0
0.288486 0.625541 0
0.138473 0.860848 0
0.133203 0.225911 0
-0.00140939 0.489463 0
0.0608323 0.0746753 0
0.0129659 0.160908 0
0.0294126 0.025769 0
0.010978 0.0558392 0
0.0156191 0.00844359 0
0.0075173 0.0202826 0
0.0103318 0.00045862 0
0.00561458 0.00673506 0
0.054761 -0.811926 0
-0.17794 -0.197711 0
-0.0403688 -0.972548 0
-0.0267897 -0.999641 0
-0.0827788 -0.148648 0
0.148827 -0.765413 0
0.0171366 0.719305 0
0.16559 0.229401 0
0.187245 0.643578 0
0.0132001 0.87494 0
0.0987771 0.243195 0
-0.0586992 0.525711 0
0.0420175 0.0852501 0
-0.0170027 0.181983 0
0.019409 0.0314238 0
-0.00493077 0.0675087 0
0.0100134 0.0108348 0
-0.00144964 0.0262509 0
0.0065253 0.000435455 0
-0.000493479 0.00921786 0
