# vtk DataFile Version 3.0
tp3485 cell-vector
ASCII
DATASET UNSTRUCTURED_GRID
POINTS 66 double
0 0 0
0.1 0 0
0.2 0 0
0.3 0 0
0.4 0 0
0.5 0 0
0.6 0 0
0.7 0 0
0.8 0 0
0.9 0 0
1 0 0
0 0.09 0
0.1 0.09 0
0.2 0.09 0
0.3 0.09 0
0.4 0.09 0
0.5 0.09 0
0.6 0.09 0
0.7 0.09 0
0.8 0.09 0
0.9 0.09 0
1 0.09 0
0 0.18 0
0.1 0.18 0
0.2 0.18 0
0.3 0.18 0
0.4 0.18 0
0.5 0.18 0
0.6 0.18 0
0.7 0.18 0
0.8 0.18 0
0.9 0.18 0
1 0.18 0
0 0.27 0
0.1 0.27 0
0.2 0.27 0
0.3 0.27 0
0.4 0.27 0
0.5 0.27 0
0.6 0.27 0
0.7 0.27 0
0.8 0.27 0
0.9 0.27 0
1 0.27 0
0 0.36 0
0.1 0.36 0
0.2 0.36 0
0.3 0.36 0
0.4 0.36 0
0.5 0.36 0
0.6 0.36 0
0.7 0.36 0
0.8 0.36 0
0.9 0.36 0
1 0.36 0
0 0.45 0
0.1 0.45 0
0.2 0.45 0
0.3 0.45 0
0.4 0.45 0
0.5 0.45 0
0.6 0.45 0
0.7 0.45 0
0.8 0.45 0
0.9 0.45 0
1 0.45 0
CELLS 100 400
3 0 1 12
3 0 12 11
3 1 2 13
3 1 13 12
3 2 3 14
3 2 14 13
3 3 4 15
3 3 15 14
3 4 5 16
3 4 16 15
3 5 6 17
3 5 17 16
3 6 7 18
3 6 18 17
3 7 8 19
3 7 19 18
3 8 9 20
3 8 20 19
3 9 10 21
3 9 21 20
3 11 12 23
3 11 23 22
3 12 13 24
3 12 24 23
3 13 14 25
3 13 25 24
3 14 15 26
3 14 26 25
3 15 16 27
3 15 27 26
3 16 17 28
3 16 28 27
3 17 18 29
3 17 29 28
3 18 19 30
3 18 30 29
3 19 20 31
3 19 31 30
3 20 21 32
3 20 32 31
3 22 23 34
3 22 34 33
3 23 24 35
3 23 35 34
3 24 25 36
3 24 36 35
3 25 26 37
3 25 37 36
3 26 27 38
3 26 38 37
3 27 28 39
3 27 39 38
3 28 29 40
3 28 40 39
3 29 30 41
3 29 41 40
3 30 31 42
3 30 42 41
3 31 32 43
3 31 43 42
3 33 34 45
3 33 45 44
3 34 35 46
3 34 46 45
3 35 36 47
3 35 47 46
3 36 37 48
3 36 48 47
3 37 38 49
3 37 49 48
3 38 39 50
3 38 50 49
3 39 40 51
3 39 51 50
3 40 41 52
3 40 52 51
3 41 42 53
3 41 53 52
3 42 43 54
3 42 54 53
3 44 45 56
3 44 56 55
3 45 46 57
3 45 57 56
3 46 47 58
3 46 58 57
3 47 48 59
3 47 59 58
3 48 49 60
3 48 60 59
3 49 50 61
3 49 61 60
3 50 51 62
3 50 62 61
3 51 52 63
3 51 63 62
3 52 53 64
3 52 64 63
3 53 54 65
3 53 65 64
CELL_TYPES 100
5
5
5
5
5
5
5
5
5
5
5
5
5
5
5
5
5
5
5
5
5
5
5
5
5
5
5
5
5
5
5
5
5
5
5
5
5
5
5
5
5
5
5
5
5
5
5
5
5
5
5
5
5
5
5
5
5
5
5
5
5
5
5
5
5
5
5
5
5
5
5
5
5
5
5
5
5
5
5
5
5
5
5
5
5
5
5
5
5
5
5
5
5
5
5
5
5
5
5
5
CELL_DATA 100
VECTORS Et double
0.0906782 -0.507543 0
-0.0732181 -0.112341 0
0.0241201 -0.791627 0
-0.0184782 -0.662896 0
-0.0546895 -0.561684 0
0.058602 -0.783378 0
-0.0950308 0.026171 0
0.106805 -0.402299 0
-0.0717606 0.583892 0
0.09111 0.227476 0
-0.0326178 0.89612 0
0.0600993 0.710242 0
-0.000366379 0.984118 0
0.0228522 0.945137 0
0.0323229 0.848364 0
-0.0140754 0.960178 0
0.0580508 0.521625 0
-0.0442531 0.756123 0
0.0710393 0.0789325 0
-0.0615571 0.381159 0
0.116958 -0.505707 0
-0.0517603 -0.109639 0
0.0535992 -0.790913 0
0.00301825 -0.656949 0
-0.028663 -0.562558 0
0.0774192 -0.77937 0
-0.0780844 0.0273329 0
0.120193 -0.400217 0
-0.0677508 0.592862 0
0.0974167 0.231346 0
-0.0149859 0.900941 0
0.0711207 0.721057 0
0.0105805 0.987189 0
0.0302442 0.951117 0
0.0398328 0.850635 0
-0.00885009 0.964164 0
0.064235 0.5231 0
-0.0400258 0.759123 0
0.0776438 0.0787029 0
-0.0574871 0.383218 0
0.132436 -0.506149 0
-0.0480514 -0.105292 0
0.0698497 -0.789971 0
0.00659969 -0.649443 0
-0.0143535 -0.560321 0
0.0806821 -0.771403 0
-0.0685564 0.033493 0
0.12298 -0.392 0
-0.0641979 0.60539 0
0.0992945 0.242073 0
-0.00547366 0.908709 0
0.0722231 0.736218 0
0.016838 0.991978 0
0.031011 0.960557 0
0.0441719 0.85362 0
-0.00828254 0.970221 0
0.0677534 0.524561 0
-0.0395811 0.763104 0
0.0811128 0.0783333 0
-0.0571004 0.385502 0
0.128393 -0.506773 0
-0.0636729 -0.101304 0
0.0663545 -0.78918 0
-0.00952992 -0.642135 0
-0.0172697 -0.558211 0
0.066651 -0.763524 0
-0.0708709 0.0396179 0
0.113842 -0.383775 0
-0.0657173 0.618103 0
0.0961171 0.252927 0
-0.00617755 0.916566 0
0.0629517 0.751631 0
0.0162669 0.996808 0
0.0248766 0.970112 0
0.0437091 0.856623 0
-0.0125519 0.976331 0
0.0673728 0.526025 0
-0.0430574 0.767109 0
0.0807863 0.077942 0
-0.0605348 0.387791 0
0.106847 -0.505287 0
-0.0895212 -0.099468 0
0.0449308 -0.788752 0
-0.0388413 -0.636607 0
-0.0359833 -0.559379 0
0.0405124 -0.759645 0
-0.0841319 0.0405904 0
0.096723 -0.381652 0
-0.0718786 0.62756 0
0.0923763 0.257053 0
-0.0170087 0.921574 0
0.045113 0.763047 0
0.0089655 0.99996 0
0.0138541 0.976344 0
0.0385362 0.858934 0
-0.020085 0.980433 0
0.0631808 0.527513 0
-0.0492497 0.770165 0
0.0767477 0.0776523 0
-0.0671775 0.389863 0
