# vtk DataFile Version 3.0
tp3485 cell-vector
ASCII
DATASET UNSTRUCTURED_GRID
POINTS 66 double
0 0 0
0.1 0 0
0.2 0 0
0.3 0 0
0.4 0 0
0.5 0 0
0.6 0 0
0.7 0 0
0.8 0 0
0.9 0 0
1 0 0
0 0.09 0
0.1 0.09 0
0.2 0.09 0
0.3 0.09 0
0.4 0.09 0
0.5 0.09 0
0.6 0.09 0
0.7 0.09 0
0.8 0.09 0
0.9 0.09 0
1 0.09 0
0 0.18 0
0.1 0.18 0
0.2 0.18 0
0.3 0.18 0
0.4 0.18 0
0.5 0.18 0
0.6 0.18 0
0.7 0.18 0
0.8 0.18 0
0.9 0.18 0
1 0.18 0
0 0.27 0
0.1 0.27 0
0.2 0.27 0
0.3 0.27 0
0.4 0.27 0
0.5 0.27 0
0.6 0.27 0
0.7 0.27 0
0.8 0.27 0
0.9 0.27 0
1 0.27 0
0 0.36 0
0.1 0.36 0
0.2 0.36 0
0.3 0.36 0
0.4 0.36 0
0.5 0.36 0
0.6 0.36 0
0.7 0.36 0
0.8 0.36 0
0.9 0.36 0
1 0.36 0
0 0.45 0
0.1 0.45 0
0.2 0.45 0
0.3 0.45 0
0.4 0.45 0
0.5 0.45 0
0.6 0.45 0
0.7 0.45 0
0.8 0.45 0
0.9 0.45 0
1 0.45 0
CELLS 100 400
3 0 1 12
3 0 12 11
3 1 2 13
3 1 13 12
3 2 3 14
3 2 14 13
3 3 4 15
3 3 15 14
3 4 5 16
3 4 16 15
3 5 6 17
3 5 17 16
3 6 7 18
3 6 18 17
3 7 8 19
3 7 19 18
3 8 9 20
3 8 20 19
3 9 10 21
3 9 21 20
3 11 12 23
3 11 23 22
3 12 13 24
3 12 24 23
3 13 14 25
3 13 25 24
3 14 15 26
3 14 26 25
3 15 16 27
3 15 27 26
3 16 17 28
3 16 28 27
3 17 18 29
3 17 29 28
3 18 19 30
3 18 30 29
3 19 20 31
3 19 31 30
3 20 21 32
3 20 32 31
3 22 23 34
3 22 34 33
3 23 24 35
3 23 35 34
3 24 25 36
3 24 36 35
3 25 26 37
3 25 37 36
3 26 27 38
3 26 38 37
3 27 28 39
3 27 39 38
3 28 29 40
3 28 40 39
3 29 30 41
3 29 41 40
3 30 31 42
3 30 42 41
3 31 32 43
3 31 43 42
3 33 34 45
3 33 45 44
3 34 35 46
3 34 46 45
3 35 36 47
3 35 47 46
3 36 37 48
3 36 48 47
3 37 38 49
3 37 49 48
3 38 39 50
3 38 50 49
3 39 40 51
3 39 51 50
3 40 41 52
3 40 52 51
3 41 42 53
3 41 53 52
3 42 43 54
3 42 54 53
3 44 45 56
3 44 56 55
3 45 46 57
3 45 57 56
3 46 47 58
3 46 58 57
3 47 48 59
3 47 59 58
3 48 49 60
3 48 60 59
3 49 50 61
3 49 61 60
3 50 51 62
3 50 62 61
3 51 52 63
3 51 63 62
3 52 53 64
3 52 64 63
3 53 54 65
3 53 65 64
CELL_TYPES 100
5
5
5
5
5
5
5
5
5
5
5
5
5
5
5
5
5
5
5
5
5
5
5
5
5
5
5
5
5
5
5
5
5
5
5
5
5
5
5
5
5
5
5
5
5
5
5
5
5
5
5
5
5
5
5
5
5
5
5
5
5
5
5
5
5
5
5
5
5
5
5
5
5
5
5
5
5
5
5
5
5
5
5
5
5
5
5
5
5
5
5
5
5
5
5
5
5
5
5
5
CELL_DATA 100
VECTORS Et double
-0.121188 -0.0196296 0
-0.490849 0.128226 0
-0.111176 0.0759584 0
-0.474349 0.235489 0
-0.095042 0.12556 0
-0.445537 0.304442 0
-0.0767664 0.126711 0
-0.402047 0.317 0
-0.0597604 0.097788 0
-0.343475 0.279317 0
-0.0453463 0.0646611 0
-0.273281 0.215863 0
-0.0323614 0.0409058 0
-0.200651 0.153492 0
-0.0180778 0.00869856 0
-0.142337 0.101771 0
-0.00648777 0.0112138 0
-0.0461555 0.0384327 0
-0.00346699 -0.00385221 0
-0.0349497 0.0228494 0
-0.691971 0.00381923 0
-0.909953 0.075389 0
-0.660225 0.0801509 0
-0.879882 0.168607 0
-0.604208 0.110342 0
-0.822492 0.223874 0
-0.529203 0.093536 0
-0.737329 0.225515 0
-0.441873 0.050027 0
-0.626497 0.181062 0
-0.348919 0.00876686 0
-0.497124 0.11656 0
-0.257721 -0.0112587 0
-0.363974 0.061485 0
-0.179574 -0.0180676 0
-0.252726 0.0302261 0
-0.060675 -0.00161998 0
-0.0815584 0.00674875 0
-0.0420906 -0.00350745 0
-0.0598028 0.00876517 0
-0.998979 0.045182 0
-0.976325 -0.00175905 0
-0.958291 0.0890384 0
-0.946515 0.063544 0
-0.882055 0.087214 0
-0.885701 0.0946795 0
-0.777255 0.0410248 0
-0.79431 0.0775872 0
-0.652687 -0.0262132 0
-0.674958 0.0215369 0
-0.518221 -0.0806721 0
-0.535129 -0.0450045 0
-0.38619 -0.0948807 0
-0.38988 -0.0884279 0
-0.276042 -0.0614931 0
-0.265153 -0.0867627 0
-0.0937857 -0.0230354 0
-0.0838774 -0.0456934 0
-0.0659396 -0.00291854 0
-0.0608228 -0.014661 0
-0.927063 0.0890619 0
-0.66661 -0.0736766 0
-0.891721 0.0995544 0
-0.649322 -0.038988 0
-0.821981 0.0653788 0
-0.61063 -0.0333764 0
-0.72534 -0.0103362 0
-0.550341 -0.0698903 0
-0.610607 -0.10144 0
-0.469205 -0.137948 0
-0.487384 -0.169351 0
-0.371564 -0.206859 0
-0.36755 -0.178226 0
-0.267401 -0.238984 0
-0.269945 -0.105303 0
-0.17415 -0.204817 0
-0.0931608 -0.0448421 0
-0.0518513 -0.099203 0
-0.0657176 -0.00230014 0
-0.0373687 -0.0385196 0
-0.505737 0.11789 0
-0.10169 -0.112989 0
-0.486542 0.107191 0
-0.102131 -0.10066 0
-0.446616 0.0530382 0
-0.101873 -0.111794 0
-0.392449 -0.0408296 0
-0.0977607 -0.160608 0
-0.330563 -0.146722 0
-0.0867699 -0.236271 0
-0.266925 -0.223212 0
-0.0677488 -0.306919 0
-0.207778 -0.229355 0
-0.0422487 -0.332479 0
-0.162848 -0.133111 0
-0.0140256 -0.278793 0
-0.0586374 -0.0585993 0
0.00314099 -0.133713 0
-0.0412394 -0.00188024 0
0.00181098 -0.0536064 0
