# vtk DataFile Version 3.0
tp3485 cell-vector
ASCII
DATASET UNSTRUCTURED_GRID
POINTS 66 double
0 0 0
0.1 0 0
0.2 0 0
0.3 0 0
0.4 0 0
0.5 0 0
0.6 0 0
0.7 0 0
0.8 0 0
0.9 0 0
1 0 0
0 0.09 0
0.1 0.09 0
0.2 0.09 0
0.3 0.09 0
0.4 0.09 0
0.5 0.09 0
0.6 0.09 0
0.7 0.09 0
0.8 0.09 0
0.9 0.09 0
1 0.09 0
0 0.18 0
0.1 0.18 0
0.2 0.18 0
0.3 0.18 0
0.4 0.18 0
0.5 0.18 0
0.6 0.18 0
0.7 0.18 0
0.8 0.18 0
0.9 0.18 0
1 0.18 0
0 0.27 0
0.1 0.27 0
0.2 0.27 0
0.3 0.27 0
0.4 0.27 0
0.5 0.27 0
0.6 0.27 0
0.7 0.27 0
0.8 0.27 0
0.9 0.27 0
1 0.27 0
0 0.36 0
0.1 0.36 0
0.2 0.36 0
0.3 0.36 0
0.4 0.36 0
0.5 0.36 0
0.6 0.36 0
0.7 0.36 0
0.8 0.36 0
0.9 0.36 0
1 0.36 0
0 0.45 0
0.1 0.45 0
0.2 0.45 0
0.3 0.45 0
0.4 0.45 0
0.5 0.45 0
0.6 0.45 0
0.7 0.45 0
0.8 0.45 0
0.9 0.45 0
1 0.45 0
CELLS 100 400
3 0 1 12
3 0 12 11
3 1 2 13
3 1 13 12
3 2 3 14
3 2 14 13
3 3 4 15
3 3 15 14
3 4 5 16
3 4 16 15
3 5 6 17
3 5 17 16
3 6 7 18
3 6 18 17
3 7 8 19
3 7 19 18
3 8 9 20
3 8 20 19
3 9 10 21
3 9 21 20
3 11 12 23
3 11 23 22
3 12 13 24
3 12 24 23
3 13 14 25
3 13 25 24
3 14 15 26
3 14 26 25
3 15 16 27
3 15 27 26
3 16 17 28
3 16 28 27
3 17 18 29
3 17 29 28
3 18 19 30
3 18 30 29
3 19 20 31
3 19 31 30
3 20 21 32
3 20 32 31
3 22 23 34
3 22 34 33
3 23 24 35
3 23 35 34
3 24 25 36
3 24 36 35
3 25 26 37
3 25 37 36
3 26 27 38
3 26 38 37
3 27 28 39
3 27 39 38
3 28 29 40
3 28 40 39
3 29 30 41
3 29 41 40
3 30 31 42
3 30 42 41
3 31 32 43
3 31 43 42
3 33 34 45
3 33 45 44
3 34 35 46
3 34 46 45
3 35 36 47
3 35 47 46
3 36 37 48
3 36 48 47
3 37 38 49
3 37 49 48
3 38 39 50
3 38 50 49
3 39 40 51
3 39 51 50
3 40 41 52
3 40 52 51
3 41 42 53
3 41 53 52
3 42 43 54
3 42 54 53
3 44 45 56
3 44 56 55
3 45 46 57
3 45 57 56
3 46 47 58
3 46 58 57
3 47 48 59
3 47 59 58
3 48 49 60
3 48 60 59
3 49 50 61
3 49 61 60
3 50 51 62
3 50 62 61
3 51 52 63
3 51 63 62
3 52 53 64
3 52 64 63
3 53 54 65
3 53 65 64
CELL_TYPES 100
5
5
5
5
5
5
5
5
5
5
5
5
5
5
5
5
5
5
5
5
5
5
5
5
5
5
5
5
5
5
5
5
5
5
5
5
5
5
5
5
5
5
5
5
5
5
5
5
5
5
5
5
5
5
5
5
5
5
5
5
5
5
5
5
5
5
5
5
5
5
5
5
5
5
5
5
5
5
5
5
5
5
5
5
5
5
5
5
5
5
5
5
5
5
5
5
5
5
5
5
CELL_DATA 100
VECTORS Et double
-0.135356 0.0827957 0
-0.458871 0.14593 0
-0.115127 0.247762 0
-0.450239 0.362691 0
-0.08534 0.28222 0
-0.433479 0.47495 0
-0.0567754 0.19242 0
-0.399869 0.443797 0
-0.0378589 0.0436356 0
-0.343361 0.298261 0
-0.0306294 -0.0770364 0
-0.265516 0.117809 0
-0.0300134 -0.111576 0
-0.178467 -0.0114895 0
-0.0267656 -0.0727086 0
-0.105417 -0.0466423 0
-0.0108394 -0.016926 0
-0.0292953 -0.0257161 0
-0.00504939 -0.00561043 0
-0.0230297 0.00193754 0
-0.690899 0.104204 0
-0.867419 0.0942292 0
-0.649095 0.249567 0
-0.844908 0.295883 0
-0.578333 0.264573 0
-0.798655 0.394357 0
-0.490952 0.156641 0
-0.72188 0.352515 0
-0.398953 -0.00727037 0
-0.611188 0.200312 0
-0.310156 -0.136881 0
-0.471994 0.0185944 0
-0.228465 -0.16834 0
-0.322235 -0.10379 0
-0.159082 -0.104013 0
-0.194297 -0.118615 0
-0.055731 -0.0295355 0
-0.0566016 -0.0583295 0
-0.0342444 -0.005641 0
-0.0411704 -0.0105009 0
-0.989756 0.142772 0
-0.932437 0.018692 0
-0.938903 0.254777 0
-0.910053 0.191277 0
-0.847318 0.237141 0
-0.860197 0.265067 0
-0.729016 0.0991537 0
-0.776972 0.204322 0
-0.598277 -0.0893651 0
-0.657482 0.0404024 0
-0.466311 -0.233111 0
-0.507473 -0.14357 0
-0.342209 -0.259304 0
-0.345146 -0.254457 0
-0.239514 -0.15441 0
-0.203133 -0.236049 0
-0.0837169 -0.0508351 0
-0.0567839 -0.111551 0
-0.0525884 -0.00577207 0
-0.0412629 -0.031238 0
-0.919401 0.183842 0
-0.63099 -0.0517189 0
-0.873978 0.261634 0
-0.621218 0.0891706 0
-0.78908 0.211031 0
-0.594109 0.136907 0
-0.679184 0.0428429 0
-0.543136 0.056571 0
-0.558567 -0.170442 0
-0.463384 -0.119487 0
-0.438165 -0.328634 0
-0.357216 -0.306068 0
-0.326581 -0.350167 0
-0.237487 -0.405858 0
-0.236653 -0.205547 0
-0.128018 -0.354727 0
-0.0848649 -0.0725322 0
-0.0293664 -0.166029 0
-0.0529855 -0.00591508 0
-0.0230812 -0.0523457 0
-0.508723 0.210603 0
-0.0811534 -0.0901705 0
-0.47973 0.266928 0
-0.0890582 0.0275162 0
-0.425562 0.19633 0
-0.101488 0.0584488 0
-0.359637 0.00981441 0
-0.108773 -0.0339653 0
-0.2938 -0.218834 0
-0.101938 -0.217549 0
-0.235152 -0.386521 0
-0.0774838 -0.406127 0
-0.186408 -0.406251 0
-0.039438 -0.499829 0
-0.15096 -0.238929 0
0.00236745 -0.429523 0
-0.0582112 -0.0859786 0
0.0172664 -0.202144 0
-0.0350194 -0.00597616 0
0.00659993 -0.0655293 0
