# vtk DataFile Version 3.0
tp3485 cell-vector
ASCII
DATASET UNSTRUCTURED_GRID
POINTS 66 double
0 0 0
0.1 0 0
0.2 0 0
0.3 0 0
0.4 0 0
0.5 0 0
0.6 0 0
0.7 0 0
0.8 0 0
0.9 0 0
1 0 0
0 0.09 0
0.1 0.09 0
0.2 0.09 0
0.3 0.09 0
0.4 0.09 0
0.5 0.09 0
0.6 0.09 0
0.7 0.09 0
0.8 0.09 0
0.9 0.09 0
1 0.09 0
0 0.18 0
0.1 0.18 0
0.2 0.18 0
0.3 0.18 0
0.4 0.18 0
0.5 0.18 0
0.6 0.18 0
0.7 0.18 0
0.8 0.18 0
0.9 0.18 0
1 0.18 0
0 0.27 0
0.1 0.27 0
0.2 0.27 0
0.3 0.27 0
0.4 0.27 0
0.5 0.27 0
0.6 0.27 0
0.7 0.27 0
0.8 0.27 0
0.9 0.27 0
1 0.27 0
0 0.36 0
0.1 0.36 0
0.2 0.36 0
0.3 0.36 0
0.4 0.36 0
0.5 0.36 0
0.6 0.36 0
0.7 0.36 0
0.8 0.36 0
0.9 0.36 0
1 0.36 0
0 0.45 0
0.1 0.45 0
0.2 0.45 0
0.3 0.45 0
0.4 0.45 0
0.5 0.45 0
0.6 0.45 0
0.7 0.45 0
0.8 0.45 0
0.9 0.45 0
1 0.45 0
CELLS 100 400
3 0 1 12
3 0 12 11
3 1 2 13
3 1 13 12
3 2 3 14
3 2 14 13
3 3 4 15
3 3 15 14
3 4 5 16
3 4 16 15
3 5 6 17
3 5 17 16
3 6 7 18
3 6 18 17
3 7 8 19
3 7 19 18
3 8 9 20
3 8 20 19
3 9 10 21
3 9 21 20
3 11 12 23
3 11 23 22
3 12 13 24
3 12 24 23
3 13 14 25
3 13 25 24
3 14 15 26
3 14 26 25
3 15 16 27
3 15 27 26
3 16 17 28
3 16 28 27
3 17 18 29
3 17 29 28
3 18 19 30
3 18 30 29
3 19 20 31
3 19 31 30
3 20 21 32
3 20 32 31
3 22 23 34
3 22 34 33
3 23 24 35
3 23 35 34
3 24 25 36
3 24 36 35
3 25 26 37
3 25 37 36
3 26 27 38
3 26 38 37
3 27 28 39
3 27 39 38
3 28 29 40
3 28 40 39
3 29 30 41
3 29 41 40
3 30 31 42
3 30 42 41
3 31 32 43
3 31 43 42
3 33 34 45
3 33 45 44
3 34 35 46
3 34 46 45
3 35 36 47
3 35 47 46
3 36 37 48
3 36 48 47
3 37 38 49
3 37 49 48
3 38 39 50
3 38 50 49
3 39 40 51
3 39 51 50
3 40 41 52
3 40 52 51
3 41 42 53
3 41 53 52
3 42 43 54
3 42 54 53
3 44 45 56
3 44 56 55
3 45 46 57
3 45 57 56
3 46 47 58
3 46 58 57
3 47 48 59
3 47 59 58
3 48 49 60
3 48 60 59
3 49 50 61
3 49 61 60
3 50 51 62
3 50 62 61
3 51 52 63
3 51 63 62
3 52 53 64
3 52 64 63
3 53 54 65
3 53 65 64
CELL_TYPES 100
5
5
5
5
5
5
5
5
5
5
5
5
5
5
5
5
5
5
5
5
5
5
5
5
5
5
5
5
5
5
5
5
5
5
5
5
5
5
5
5
5
5
5
5
5
5
5
5
5
5
5
5
5
5
5
5
5
5
5
5
5
5
5
5
5
5
5
5
5
5
5
5
5
5
5
5
5
5
5
5
5
5
5
5
5
5
5
5
5
5
5
5
5
5
5
5
5
5
5
5
CELL_DATA 100
VECTORS Et double
-0.116685 -0.0498542 0
-0.499108 0.122705 0
-0.109757 0.0230167 0
-0.482135 0.197306 0
-0.0979422 0.0721382 0
-0.453145 0.251476 0
-0.0833958 0.0930911 0
-0.411252 0.272838 0
-0.0681428 0.092207 0
-0.357301 0.261767 0
-0.0532199 0.0793185 0
-0.295029 0.228392 0
-0.0383762 0.0559271 0
-0.232709 0.183832 0
-0.0224729 0.00171716 0
-0.185492 0.128223 0
-0.0093962 0.0108272 0
-0.0567751 0.0398586 0
-0.0055188 -0.006132 0
-0.0477745 0.0279771 0
-0.690795 -0.0244732 0
-0.920024 0.0699731 0
-0.663801 0.0309584 0
-0.89081 0.132329 0
-0.61571 0.0623308 0
-0.835934 0.1741 0
-0.549714 0.0668552 0
-0.756266 0.18542 0
-0.470738 0.05278 0
-0.654928 0.168117 0
-0.384815 0.0329866 0
-0.539064 0.133944 0
-0.299915 0.0143757 0
-0.422316 0.0966811 0
-0.228837 -0.013437 0
-0.328743 0.0613666 0
-0.0758869 0.000877314 0
-0.103112 0.0140664 0
-0.0581336 -0.00480035 0
-0.0833053 0.0136545 0
-0.999804 0.0197874 0
-0.986189 -0.00700625 0
-0.964767 0.045753 0
-0.957432 0.0302049 0
-0.898357 0.047944 0
-0.899545 0.0500558 0
-0.805374 0.0256779 0
-0.814266 0.0442312 0
-0.692713 -0.00982614 0
-0.7052 0.0163154 0
-0.569392 -0.0408318 0
-0.579821 -0.0194686 0
-0.44822 -0.051835 0
-0.45205 -0.0451158 0
-0.350266 -0.0373075 0
-0.346221 -0.0477368 0
-0.114582 -0.0157703 0
-0.10907 -0.0283655 0
-0.0897221 -0.00241641 0
-0.0864238 -0.0102608 0
-0.927945 0.0665016 0
-0.67438 -0.0787646 0
-0.897951 0.0620928 0
-0.657145 -0.0694204 0
-0.837501 0.0347658 0
-0.619378 -0.0728738 0
-0.751964 -0.0144172 0
-0.562308 -0.0965064 0
-0.648299 -0.0714428 0
-0.487856 -0.13541 0
-0.535329 -0.113817 0
-0.400556 -0.173085 0
-0.425513 -0.117497 0
-0.30942 -0.187383 0
-0.339467 -0.0609701 0
-0.230322 -0.15758 0
-0.110716 -0.032708 0
-0.0720959 -0.071457 0
-0.087907 0.000115291 0
-0.055616 -0.0346265 0
-0.504743 0.0971101 0
-0.106198 -0.117998 0
-0.489513 0.0732835 0
-0.104989 -0.129265 0
-0.45613 0.027635 0
-0.102048 -0.148148 0
-0.409123 -0.0381427 0
-0.0958746 -0.183148 0
-0.353407 -0.108479 0
-0.0849417 -0.229044 0
-0.29444 -0.158011 0
-0.0686432 -0.268099 0
-0.239296 -0.157456 0
-0.0478051 -0.275655 0
-0.199612 -0.0754875 0
-0.0245066 -0.226137 0
-0.0654803 -0.0434831 0
-0.00599513 -0.0988307 0
-0.0530518 0.00182736 0
-0.00231684 -0.0501432 0
