# vtk DataFile Version 3.0
tp3485 cell-vector
ASCII
DATASET UNSTRUCTURED_GRID
POINTS 66 double
0 0 0
0.1 0 0
0.2 0 0
0.3 0 0
0.4 0 0
0.5 0 0
0.6 0 0
0.7 0 0
0.8 0 0
0.9 0 0
1 0 0
0 0.09 0
0.1 0.09 0
0.2 0.09 0
0.3 0.09 0
0.4 0.09 0
0.5 0.09 0
0.6 0.09 0
0.7 0.09 0
0.8 0.09 0
0.9 0.09 0
1 0.09 0
0 0.18 0
0.1 0.18 0
0.2 0.18 0
0.3 0.18 0
0.4 0.18 0
0.5 0.18 0
0.6 0.18 0
0.7 0.18 0
0.8 0.18 0
0.9 0.18 0
1 0.18 0
0 0.27 0
0.1 0.27 0
0.2 0.27 0
0.3 0.27 0
0.4 0.27 0
0.5 0.27 0
0.6 0.27 0
0.7 0.27 0
0.8 0.27 0
0.9 0.27 0
1 0.27 0
0 0.36 0
0.1 0.36 0
0.2 0.36 0
0.3 0.36 0
0.4 0.36 0
0.5 0.36 0
0.6 0.36 0
0.7 0.36 0
0.8 0.36 0
0.9 0.36 0
1 0.36 0
0 0.45 0
0.1 0.45 0
0.2 0.45 0
0.3 0.45 0
0.4 0.45 0
0.5 0.45 0
0.6 0.45 0
0.7 0.45 0
0.8 0.45 0
0.9 0.45 0
1 0.45 0
CELLS 100 400
3 0 1 12
3 0 12 11
3 1 2 13
3 1 13 12
3 2 3 14
3 2 14 13
3 3 4 15
3 3 15 14
3 4 5 16
3 4 16 15
3 5 6 17
3 5 17 16
3 6 7 18
3 6 18 17
3 7 8 19
3 7 19 18
3 8 9 20
3 8 20 19
3 9 10 21
3 9 21 20
3 11 12 23
3 11 23 22
3 12 13 24
3 12 24 23
3 13 14 25
3 13 25 24
3 14 15 26
3 14 26 25
3 15 16 27
3 15 27 26
3 16 17 28
3 16 28 27
3 17 18 29
3 17 29 28
3 18 19 30
3 18 30 29
3 19 20 31
3 19 31 30
3 20 21 32
3 20 32 31
3 22 23 34
3 22 34 33
3 23 24 35
3 23 35 34
3 24 25 36
3 24 36 35
3 25 26 37
3 25 37 36
3 26 27 38
3 26 38 37
3 27 28 39
3 27 39 38
3 28 29 40
3 28 40 39
3 29 30 41
3 29 41 40
3 30 31 42
3 30 42 41
3 31 32 43
3 31 43 42
3 33 34 45
3 33 45 44
3 34 35 46
3 34 46 45
3 35 36 47
3 35 47 46
3 36 37 48
3 36 48 47
3 37 38 49
3 37 49 48
3 38 39 50
3 38 50 49
3 39 40 51
3 39 51 50
3 40 41 52
3 40 52 51
3 41 42 53
3 41 53 52
3 42 43 54
3 42 54 53
3 44 45 56
3 44 56 55
3 45 46 57
3 45 57 56
3 46 47 58
3 46 58 57
3 47 48 59
3 47 59 58
3 48 49 60
3 48 60 59
3 49 50 61
3 49 61 60
3 50 51 62
3 50 62 61
3 51 52 63
3 51 63 62
3 52 53 64
3 52 64 63
3 53 54 65
3 53 65 64
CELL_TYPES 100
5
5
5
5
5
5
5
5
5
5
5
5
5
5
5
5
5
5
5
5
5
5
5
5
5
5
5
5
5
5
5
5
5
5
5
5
5
5
5
5
5
5
5
5
5
5
5
5
5
5
5
5
5
5
5
5
5
5
5
5
5
5
5
5
5
5
5
5
5
5
5
5
5
5
5
5
5
5
5
5
5
5
5
5
5
5
5
5
5
5
5
5
5
5
5
5
5
5
5
5
CELL_DATA 100
VECTORS Et double
0.000539099 0.00112904 0
0.00312141 -0.0005706 0
0.000467265 0.00219453 0
0.00336545 1.17712e-05 0
0.000291142 0.399174 0
0.358995 0.00130625 0
0.000168137 0.722272 0
0.291799 0.398637 0
9.69744e-05 0.930945 0
0.18839 0.721962 0
5.52745e-05 0.996811 0
0.0596135 0.930767 0
3.06288e-05 0.911464 0
-0.0766245 0.99671 0
1.61921e-05 0.689288 0
-0.199858 0.911409 0
8.27376e-06 0.36675 0
-0.290232 0.689259 0
5.01192e-06 5.5688e-06 0
-0.330042 0.366735 0
0.00400131 0.000663536 0
0.00552193 -0.00030949 0
0.00414937 0.00114628 0
0.00577783 -2.69402e-05 0
0.359527 0.231445 0
0.567679 0.000589818 0
0.292107 0.431308 0
0.472515 0.231104 0
0.188568 0.566797 0
0.310818 0.431109 0
0.0597152 0.616514 0
0.104638 0.566683 0
-0.0765683 0.572631 0
-0.115965 0.61645 0
-0.199829 0.441395 0
-0.317891 0.572597 0
-0.290218 0.241582 0
-0.470029 0.44138 0
-0.330035 2.02929e-06 0
-0.547449 0.241576 0
0.00585424 -4.92503e-06 0
0.00577903 6.91966e-05 0
0.00608199 -0.000173954 0
0.0059305 -7.88056e-06 0
0.567896 -0.0140237 0
0.555452 -0.000193672 0
0.472644 -0.0146502 0
0.472105 -0.0140441 0
0.310894 -0.00868594 0
0.316281 -0.0146653 0
0.104681 5.2506e-05 0
0.112555 -0.00869493 0
-0.115944 0.00877665 0
-0.108091 4.96176e-05 0
-0.317882 0.0146949 0
-0.312564 0.00877926 0
-0.470028 0.0139814 0
-0.470685 0.0147019 0
-0.547453 -4.4354e-06 0
-0.560059 0.0139914 0
0.00543945 -0.000604362 0
0.00386272 0.000419725 0
0.00564649 -0.00127136 0
0.00386803 7.48418e-05 0
0.555279 -0.244761 0
0.335306 -0.000758308 0
0.47201 -0.444561 0
0.29171 -0.24446 0
0.316228 -0.574546 0
0.198968 -0.44439 0
0.112524 -0.616561 0
0.0745511 -0.574448 0
-0.108113 -0.56497 0
-0.0617788 -0.616502 0
-0.312581 -0.428218 0
-0.189571 -0.564931 0
-0.470701 -0.22834 0
-0.290863 -0.428189 0
-0.560075 -1.13628e-05 0
-0.354624 -0.228315 0
0.00298336 -0.00092628 0
0.000549367 0.000610407 0
0.00311191 -0.00173007 0
0.000488253 0.000173565 0
0.334819 -0.371874 0
0.000335979 -0.000887725 0
0.291432 -0.694591 0
0.000193092 -0.371372 0
0.198809 -0.91486 0
0.000111007 -0.694303 0
0.0744576 -0.997224 0
6.46587e-05 -0.914693 0
-0.0618365 -0.928296 0
3.90716e-05 -0.997125 0
-0.18961 -0.717476 0
2.54059e-05 -0.928234 0
-0.290893 -0.394159 0
1.85168e-05 -0.717432 0
-0.354651 -1.61024e-05 0
1.55409e-05 -0.394123 0
