# vtk DataFile Version 3.0
tp3485 cell-vector
ASCII
DATASET UNSTRUCTURED_GRID
POINTS 66 double
0 0 0
0.1 0 0
0.2 0 0
0.3 0 0
0.4 0 0
0.5 0 0
0.6 0 0
0.7 0 0
0.8 0 0
0.9 0 0
1 0 0
0 0.09 0
0.1 0.09 0
0.2 0.09 0
0.3 0.09 0
0.4 0.09 0
0.5 0.09 0
0.6 0.09 0
0.7 0.09 0
0.8 0.09 0
0.9 0.09 0
1 0.09 0
0 0.18 0
0.1 0.18 0
0.2 0.18 0
0.3 0.18 0
0.4 0.18 0
0.5 0.18 0
0.6 0.18 0
0.7 0.18 0
0.8 0.18 0
0.9 0.18 0
1 0.18 0
0 0.27 0
0.1 0.27 0
0.2 0.27 0
0.3 0.27 0
0.4 0.27 0
0.5 0.27 0
0.6 0.27 0
0.7 0.27 0
0.8 0.27 0
0.9 0.27 0
1 0.27 0
0 0.36 0
0.1 0.36 0
0.2 0.36 0
0.3 0.36 0
0.4 0.36 0
0.5 0.36 0
0.6 0.36 0
0.7 0.36 0
0.8 0.36 0
0.9 0.36 0
1 0.36 0
0 0.45 0
0.1 0.45 0
0.2 0.45 0
0.3 0.45 0
0.4 0.45 0
0.5 0.45 0
0.6 0.45 0
0.7 0.45 0
0.8 0.45 0
0.9 0.45 0
1 0.45 0
CELLS 100 400
3 0 1 12
3 0 12 11
3 1 2 13
3 1 13 12
3 2 3 14
3 2 14 13
3 3 4 15
3 3 15 14
3 4 5 16
3 4 16 15
3 5 6 17
3 5 17 16
3 6 7 18
3 6 18 17
3 7 8 19
3 7 19 18
3 8 9 20
3 8 20 19
3 9 10 21
3 9 21 20
3 11 12 23
3 11 23 22
3 12 13 24
3 12 24 23
3 13 14 25
3 13 25 24
3 14 15 26
3 14 26 25
3 15 16 27
3 15 27 26
3 16 17 28
3 16 28 27
3 17 18 29
3 17 29 28
3 18 19 30
3 18 30 29
3 19 20 31
3 19 31 30
3 20 21 32
3 20 32 31
3 22 23 34
3 22 34 33
3 23 24 35
3 23 35 34
3 24 25 36
3 24 36 35
3 25 26 37
3 25 37 36
3 26 27 38
3 26 38 37
3 27 28 39
3 27 39 38
3 28 29 40
3 28 40 39
3 29 30 41
3 29 41 40
3 30 31 42
3 30 42 41
3 31 32 43
3 31 43 42
3 33 34 45
3 33 45 44
3 34 35 46
3 34 46 45
3 35 36 47
3 35 47 46
3 36 37 48
3 36 48 47
3 37 38 49
3 37 49 48
3 38 39 50
3 38 50 49
3 39 40 51
3 39 51 50
3 40 41 52
3 40 52 51
3 41 42 53
3 41 53 52
3 42 43 54
3 42 54 53
3 44 45 56
3 44 56 55
3 45 46 57
3 45 57 56
3 46 47 58
3 46 58 57
3 47 48 59
3 47 59 58
3 48 49 60
3 48 60 59
3 49 50 61
3 49 61 60
3 50 51 62
3 50 62 61
3 51 52 63
3 51 63 62
3 52 53 64
3 52 64 63
3 53 54 65
3 53 65 64
CELL_TYPES 100
5
5
5
5
5
5
5
5
5
5
5
5
5
5
5
5
5
5
5
5
5
5
5
5
5
5
5
5
5
5
5
5
5
5
5
5
5
5
5
5
5
5
5
5
5
5
5
5
5
5
5
5
5
5
5
5
5
5
5
5
5
5
5
5
5
5
5
5
5
5
5
5
5
5
5
5
5
5
5
5
5
5
5
5
5
5
5
5
5
5
5
5
5
5
5
5
5
5
5
5
CELL_DATA 100
VECTORS Et double
-0.0221697 0.335028 0
0.179312 0.0432635 0
0.0409761 0.212857 0
-0.00781585 0.33613 0
0.0596137 -0.353615 0
-0.213991 0.0919782 0
-0.0131402 -0.746978 0
-0.274164 -0.445702 0
-0.107168 -0.528097 0
-0.189048 -0.644286 0
-0.0531815 -0.145948 0
-0.0227346 -0.323945 0
-0.0181622 -0.0241591 0
-0.0321431 -0.0578312 0
-0.00626023 0.00323207 0
-0.0239712 0.00598811 0
-0.00226259 0.00433372 0
-0.0161099 0.0136967 0
-0.00110024 -0.00122249 0
-0.0120748 0.00829836 0
0.0992544 0.4231 0
0.3014 0.0764025 0
0.0527712 0.367783 0
0.0206897 0.458003 0
-0.0679905 -0.221818 0
-0.31288 0.230574 0
-0.236783 -0.700427 0
-0.459622 -0.372917 0
-0.357781 -0.535912 0
-0.383337 -0.661509 0
-0.147225 -0.169887 0
-0.0889874 -0.362182 0
-0.0747382 -0.0426846 0
-0.0707014 -0.091056 0
-0.0386623 -0.00766759 0
-0.0453159 -0.015507 0
-0.0213548 -0.000466358 0
-0.0283712 0.00184984 0
-0.0144067 -0.00114026 0
-0.0205116 0.00317762 0
0.15591 0.559854 0
0.356738 0.12573 0
0.0652063 0.609593 0
0.050097 0.655082 0
-0.119345 -0.0133362 0
-0.325255 0.453994 0
-0.340286 -0.619277 0
-0.502661 -0.252723 0
-0.489808 -0.538076 0
-0.424082 -0.681225 0
-0.195138 -0.210647 0
-0.102302 -0.415892 0
-0.107525 -0.0742516 0
-0.0751569 -0.146294 0
-0.0581973 -0.0260069 0
-0.046773 -0.0515291 0
-0.0330377 -0.00849572 0
-0.0288482 -0.0178725 0
-0.022616 -0.00101301 0
-0.0207001 -0.00531322 0
0.126292 0.689896 0
0.316305 0.174225 0
0.0679947 0.84933 0
0.0619224 0.853078 0
-0.0795152 0.199533 0
-0.252756 0.683806 0
-0.285293 -0.531254 0
-0.391813 -0.122867 0
-0.452378 -0.537401 0
-0.299071 -0.693883 0
-0.18496 -0.251866 0
-0.0584145 -0.469105 0
-0.104834 -0.106277 0
-0.0439327 -0.202342 0
-0.0574658 -0.0445603 0
-0.0277716 -0.0880461 0
-0.0328272 -0.0166016 0
-0.0173379 -0.0378033 0
-0.0225384 -0.000884081 0
-0.0125484 -0.0138732 0
0.0115481 0.761483 0
0.182976 0.203307 0
0.0502371 0.998737 0
0.0445672 0.975396 0
0.0288983 0.341593 0
-0.128361 0.836236 0
-0.0965158 -0.467568 0
-0.173185 -0.0281223 0
-0.261582 -0.538137 0
-0.0589825 -0.694933 0
-0.12091 -0.277686 0
0.0308171 -0.506673 0
-0.0675358 -0.126083 0
0.0121037 -0.238076 0
-0.0366172 -0.0559981 0
0.00465543 -0.110854 0
-0.0207403 -0.0215883 0
0.00180821 -0.0501638 0
-0.0141687 -0.000795229 0
0.000822754 -0.0191618 0
