# vtk DataFile Version 3.0
tp3485 cell-vector
ASCII
DATASET UNSTRUCTURED_GRID
POINTS 66 double
0 0 0
0.1 0 0
0.2 0 0
0.3 0 0
0.4 0 0
0.5 0 0
0.6 0 0
0.7 0 0
0.8 0 0
0.9 0 0
1 0 0
0 0.09 0
0.1 0.09 0
0.2 0.09 0
0.3 0.09 0
0.4 0.09 0
0.5 0.09 0
0.6 0.09 0
0.7 0.09 0
0.8 0.09 0
0.9 0.09 0
1 0.09 0
0 0.18 0
0.1 0.18 0
0.2 0.18 0
0.3 0.18 0
0.4 0.18 0
0.5 0.18 0
0.6 0.18 0
0.7 0.18 0
0.8 0.18 0
0.9 0.18 0
1 0.18 0
0 0.27 0
0.1 0.27 0
0.2 0.27 0
0.3 0.27 0
0.4 0.27 0
0.5 0.27 0
0.6 0.27 0
0.7 0.27 0
0.8 0.27 0
0.9 0.27 0
1 0.27 0
0 0.36 0
0.1 0.36 0
0.2 0.36 0
0.3 0.36 0
0.4 0.36 0
0.5 0.36 0
0.6 0.36 0
0.7 0.36 0
0.8 0.36 0
0.9 0.36 0
1 0.36 0
0 0.45 0
0.1 0.45 0
0.2 0.45 0
0.3 0.45 0
0.4 0.45 0
0.5 0.45 0
0.6 0.45 0
0.7 0.45 0
0.8 0.45 0
0.9 0.45 0
1 0.45 0
CELLS 100 400
3 0 1 12
3 0 12 11
3 1 2 13
3 1 13 12
3 2 3 14
3 2 14 13
3 3 4 15
3 3 15 14
3 4 5 16
3 4 16 15
3 5 6 17
3 5 17 16
3 6 7 18
3 6 18 17
3 7 8 19
3 7 19 18
3 8 9 20
3 8 20 19
3 9 10 21
3 9 21 20
3 11 12 23
3 11 23 22
3 12 13 24
3 12 24 23
3 13 14 25
3 13 25 24
3 14 15 26
3 14 26 25
3 15 16 27
3 15 27 26
3 16 17 28
3 16 28 27
3 17 18 29
3 17 29 28
3 18 19 30
3 18 30 29
3 19 20 31
3 19 31 30
3 20 21 32
3 20 32 31
3 22 23 34
3 22 34 33
3 23 24 35
3 23 35 34
3 24 25 36
3 24 36 35
3 25 26 37
3 25 37 36
3 26 27 38
3 26 38 37
3 27 28 39
3 27 39 38
3 28 29 40
3 28 40 39
3 29 30 41
3 29 41 40
3 30 31 42
3 30 42 41
3 31 32 43
3 31 43 42
3 33 34 45
3 33 45 44
3 34 35 46
3 34 46 45
3 35 36 47
3 35 47 46
3 36 37 48
3 36 48 47
3 37 38 49
3 37 49 48
3 38 39 50
3 38 50 49
3 39 40 51
3 39 51 50
3 40 41 52
3 40 52 51
3 41 42 53
3 41 53 52
3 42 43 54
3 42 54 53
3 44 45 56
3 44 56 55
3 45 46 57
3 45 57 56
3 46 47 58
3 46 58 57
3 47 48 59
3 47 59 58
3 48 49 60
3 48 60 59
3 49 50 61
3 49 61 60
3 50 51 62
3 50 62 61
3 51 52 63
3 51 63 62
3 52 53 64
3 52 64 63
3 53 54 65
3 53 65 64
CELL_TYPES 100
5
5
5
5
5
5
5
5
5
5
5
5
5
5
5
5
5
5
5
5
5
5
5
5
5
5
5
5
5
5
5
5
5
5
5
5
5
5
5
5
5
5
5
5
5
5
5
5
5
5
5
5
5
5
5
5
5
5
5
5
5
5
5
5
5
5
5
5
5
5
5
5
5
5
5
5
5
5
5
5
5
5
5
5
5
5
5
5
5
5
5
5
5
5
5
5
5
5
5
5
CELL_DATA 100
VECTORS Et double
0.0536084 0.0951785 0
0.286874 -0.0522204 0
0.0581423 0.0143603 0
0.202987 -0.0231811 0
0.0535858 -0.22238 0
0.0623524 -0.111411 0
0.0279875 -0.545892 0
-0.102385 -0.325928 0
-0.0194932 -0.830222 0
-0.265375 -0.577834 0
-0.0746054 -0.997213 0
-0.423848 -0.750312 0
-0.0591507 -0.476733 0
0.137707 -0.837752 0
-0.0351472 -0.224835 0
0.017463 -0.366676 0
-0.0237392 -0.0997439 0
-0.021548 -0.157169 0
-0.0194728 -0.0216365 0
-0.031769 -0.0514887 0
0.361186 0.133047 0
0.529127 -0.0116037 0
0.294313 0.119562 0
0.393422 0.0774093 0
0.161791 -0.0613135 0
0.156275 0.0355078 0
-0.0315521 -0.344483 0
-0.135339 -0.152551 0
-0.26909 -0.598038 0
-0.440123 -0.396075 0
-0.527225 -0.724065 0
-0.745304 -0.565717 0
0.0248592 -0.375558 0
0.156988 -0.61932 0
-0.0497111 -0.192438 0
-0.0097492 -0.296941 0
-0.0666088 -0.0900599 0
-0.0584419 -0.141361 0
-0.0677562 -0.0181074 0
-0.0689549 -0.0517443 0
0.518739 0.189945 0
0.582839 0.0477875 0
0.417904 0.28468 0
0.44031 0.237394 0
0.219943 0.1938 0
0.186796 0.271382 0
-0.0619951 -0.0229749 0
-0.127492 0.126903 0
-0.403516 -0.223694 0
-0.45692 -0.101564 0
-0.7787 -0.277752 0
-0.784369 -0.264342 0
0.0976273 -0.211969 0
0.121162 -0.261969 0
-0.0493975 -0.141043 0
-0.0292706 -0.185905 0
-0.0883392 -0.0750266 0
-0.0694362 -0.117631 0
-0.0946581 -0.0116977 0
-0.0764119 -0.0531246 0
0.467269 0.242863 0
0.42716 0.103402 0
0.380259 0.446176 0
0.32423 0.394749 0
0.20334 0.446214 0
0.139829 0.506187 0
-0.0544049 0.297241 0
-0.0846173 0.406853 0
-0.373572 0.151184 0
-0.311722 0.194809 0
-0.733301 0.170903 0
-0.527696 0.0399587 0
0.129619 -0.0479046 0
0.0431383 0.0973179 0
-0.0340275 -0.0900822 0
-0.0336575 -0.075432 0
-0.0801921 -0.0602926 0
-0.0499917 -0.0948412 0
-0.0892933 -0.00485711 0
-0.0507716 -0.0550062 0
0.225883 0.271508 0
0.120675 0.134083 0
0.19394 0.542927 0
0.0879491 0.489469 0
0.115626 0.600726 0
0.0310396 0.650921 0
-0.0145229 0.49508 0
-0.0256697 0.581505 0
-0.192896 0.384183 0
-0.0619304 0.380751 0
-0.409636 0.4537 0
-0.0716445 0.231305 0
0.10793 0.0539045 0
-0.0504144 0.324137 0
-0.00946644 -0.0591222 0
-0.0211479 -0.00787209 0
-0.0449362 -0.0515492 0
-0.00713089 -0.0818183 0
-0.0531901 -0.000197085 0
-0.00123945 -0.0567399 0
