# vtk DataFile Version 3.0
tp3485 cell-vector
ASCII
DATASET UNSTRUCTURED_GRID
POINTS 66 double
0 0 0
0.1 0 0
0.2 0 0
0.3 0 0
0.4 0 0
0.5 0 0
0.6 0 0
0.7 0 0
0.8 0 0
0.9 0 0
1 0 0
0 0.09 0
0.1 0.09 0
0.2 0.09 0
0.3 0.09 0
0.4 0.09 0
0.5 0.09 0
0.6 0.09 0
0.7 0.09 0
0.8 0.09 0
0.9 0.09 0
1 0.09 0
0 0.18 0
0.1 0.18 0
0.2 0.18 0
0.3 0.18 0
0.4 0.18 0
0.5 0.18 0
0.6 0.18 0
0.7 0.18 0
0.8 0.18 0
0.9 0.18 0
1 0.18 0
0 0.27 0
0.1 0.27 0
0.2 0.27 0
0.3 0.27 0
0.4 0.27 0
0.5 0.27 0
0.6 0.27 0
0.7 0.27 0
0.8 0.27 0
0.9 0.27 0
1 0.27 0
0 0.36 0
0.1 0.36 0
0.2 0.36 0
0.3 0.36 0
0.4 0.36 0
0.5 0.36 0
0.6 0.36 0
0.7 0.36 0
0.8 0.36 0
0.9 0.36 0
1 0.36 0
0 0.45 0
0.1 0.45 0
0.2 0.45 0
0.3 0.45 0
0.4 0.45 0
0.5 0.45 0
0.6 0.45 0
0.7 0.45 0
0.8 0.45 0
0.9 0.45 0
1 0.45 0
CELLS 100 400
3 0 1 12
3 0 12 11
3 1 2 13
3 1 13 12
3 2 3 14
3 2 14 13
3 3 4 15
3 3 15 14
3 4 5 16
3 4 16 15
3 5 6 17
3 5 17 16
3 6 7 18
3 6 18 17
3 7 8 19
3 7 19 18
3 8 9 20
3 8 20 19
3 9 10 21
3 9 21 20
3 11 12 23
3 11 23 22
3 12 13 24
3 12 24 23
3 13 14 25
3 13 25 24
3 14 15 26
3 14 26 25
3 15 16 27
3 15 27 26
3 16 17 28
3 16 28 27
3 17 18 29
3 17 29 28
3 18 19 30
3 18 30 29
3 19 20 31
3 19 31 30
3 20 21 32
3 20 32 31
3 22 23 34
3 22 34 33
3 23 24 35
3 23 35 34
3 24 25 36
3 24 36 35
3 25 26 37
3 25 37 36
3 26 27 38
3 26 38 37
3 27 28 39
3 27 39 38
3 28 29 40
3 28 40 39
3 29 30 41
3 29 41 40
3 30 31 42
3 30 42 41
3 31 32 43
3 31 43 42
3 33 34 45
3 33 45 44
3 34 35 46
3 34 46 45
3 35 36 47
3 35 47 46
3 36 37 48
3 36 48 47
3 37 38 49
3 37 49 48
3 38 39 50
3 38 50 49
3 39 40 51
3 39 51 50
3 40 41 52
3 40 52 51
3 41 42 53
3 41 53 52
3 42 43 54
3 42 54 53
3 44 45 56
3 44 56 55
3 45 46 57
3 45 57 56
3 46 47 58
3 46 58 57
3 47 48 59
3 47 59 58
3 48 49 60
3 48 60 59
3 49 50 61
3 49 61 60
3 50 51 62
3 50 62 61
3 51 52 63
3 51 63 62
3 52 53 64
3 52 64 63
3 53 54 65
3 53 65 64
CELL_TYPES 100
5
5
5
5
5
5
5
5
5
5
5
5
5
5
5
5
5
5
5
5
5
5
5
5
5
5
5
5
5
5
5
5
5
5
5
5
5
5
5
5
5
5
5
5
5
5
5
5
5
5
5
5
5
5
5
5
5
5
5
5
5
5
5
5
5
5
5
5
5
5
5
5
5
5
5
5
5
5
5
5
5
5
5
5
5
5
5
5
5
5
5
5
5
5
5
5
5
5
5
5
CELL_DATA 100
VECTORS Et double
0.00180105 -0.00628552 0
0.00170238 -0.00208736 0
0.000985696 -0.0111689 0
0.00189784 -0.00968695 0
-8.53951e-05 -0.0102981 0
0.00204685 -0.0125131 0
-0.00087001 -0.00489056 0
0.00166058 -0.00943611 0
-0.00102315 0.00105047 0
0.00033826 -0.00276146 0
-0.000586161 0.00286998 0
-0.00206417 0.00302411 0
-9.35419e-05 -0.650124 0
-0.588876 0.00374803 0
0.000217436 -0.885324 0
-0.211069 -0.65017 0
0.000425062 -0.601782 0
0.257003 -0.885981 0
0.000521715 0.000579683 0
0.544608 -0.602818 0
0.00513727 -0.00612926 0
0.00426105 -0.00171324 0
0.00393796 -0.0106077 0
0.00416429 -0.00892555 0
0.00203862 -0.00934524 0
0.00370845 -0.0114665 0
2.56463e-05 -0.00350603 0
0.0024449 -0.00816535 0
-0.00172454 0.00301061 0
2.21232e-05 -0.00125813 0
-0.00331079 0.00579736 0
-0.00365561 0.00488618 0
-0.589096 -0.372545 0
-0.930268 0.00643179 0
-0.210672 -0.546071 0
-0.366184 -0.372758 0
0.257831 -0.397052 0
0.393504 -0.546829 0
0.54566 0.000605806 0
0.905631 -0.398157 0
0.00690597 -0.00594978 0
0.00474653 -0.00116242 0
0.00551462 -0.00974076 0
0.0046216 -0.00774529 0
0.00318463 -0.0078075 0
0.00408417 -0.00977764 0
0.000521751 -0.00127191 0
0.00270475 -0.00607288 0
-0.00206945 0.00606842 0
0.000160943 0.0012039 0
-0.00466124 0.0100025 0
-0.00358873 0.0078167 0
-0.930221 0.0322792 0
-0.910178 0.0102606 0
-0.365631 0.00713621 0
-0.387164 0.0317939 0
0.394432 -0.0188314 0
0.372886 0.00621254 0
0.906759 0.000653496 0
0.926569 -0.0200501 0
0.0064101 -0.00579918 0
0.00297588 -0.0006487 0
0.00510344 -0.00890216 0
0.00308322 -0.00658861 0
0.00290015 -0.00630319 0
0.00300582 -0.00810368 0
0.000400114 0.000909781 0
0.00230247 -0.00399415 0
-0.00199134 0.00901769 0
0.000638074 0.00363778 0
-0.00432396 0.0139644 0
-0.00199763 0.0106669 0
-0.909807 0.415032 0
-0.548223 0.0138652 0
-0.386418 0.560878 0
-0.253634 0.414277 0
0.373938 0.382114 0
0.215144 0.559788 0
0.927791 0.000704338 0
0.586989 0.38078 0
0.00384772 -0.00570674 0
-0.000333443 -0.000370493 0
0.00285869 -0.00840224 0
0.000134376 -0.00587744 0
0.00127788 -0.00542107 0
0.00086762 -0.0070853 0
-0.000327306 0.00218633 0
0.00136667 -0.0027465 0
-0.00158601 0.0107418 0
0.00123528 0.00509097 0
-0.00254106 0.0162148 0
0.00042623 0.0123589 0
-0.547593 0.623166 0
-0.00034924 0.0159121 0
-0.252731 0.901483 0
-0.000462357 0.622246 0
0.216297 0.657997 0
-0.000580552 0.90029 0
0.588287 0.000738872 0
-0.00065804 0.656593 0
