# vtk DataFile Version 3.0
tp3485 cell-vector
ASCII
DATASET UNSTRUCTURED_GRID
POINTS 66 double
0 0 0
0.1 0 0
0.2 0 0
0.3 0 0
0.4 0 0
0.5 0 0
0.6 0 0
0.7 0 0
0.8 0 0
0.9 0 0
1 0 0
0 0.09 0
0.1 0.09 0
0.2 0.09 0
0.3 0.09 0
0.4 0.09 0
0.5 0.09 0
0.6 0.09 0
0.7 0.09 0
0.8 0.09 0
0.9 0.09 0
1 0.09 0
0 0.18 0
0.1 0.18 0
0.2 0.18 0
0.3 0.18 0
0.4 0.18 0
0.5 0.18 0
0.6 0.18 0
0.7 0.18 0
0.8 0.18 0
0.9 0.18 0
1 0.18 0
0 0.27 0
0.1 0.27 0
0.2 0.27 0
0.3 0.27 0
0.4 0.27 0
0.5 0.27 0
0.6 0.27 0
0.7 0.27 0
0.8 0.27 0
0.9 0.27 0
1 0.27 0
0 0.36 0
0.1 0.36 0
0.2 0.36 0
0.3 0.36 0
0.4 0.36 0
0.5 0.36 0
0.6 0.36 0
0.7 0.36 0
0.8 0.36 0
0.9 0.36 0
1 0.36 0
0 0.45 0
0.1 0.45 0
0.2 0.45 0
0.3 0.45 0
0.4 0.45 0
0.5 0.45 0
0.6 0.45 0
0.7 0.45 0
0.8 0.45 0
0.9 0.45 0
1 0.45 0
CELLS 100 400
3 0 1 12
3 0 12 11
3 1 2 13
3 1 13 12
3 2 3 14
3 2 14 13
3 3 4 15
3 3 15 14
3 4 5 16
3 4 16 15
3 5 6 17
3 5 17 16
3 6 7 18
3 6 18 17
3 7 8 19
3 7 19 18
3 8 9 20
3 8 20 19
3 9 10 21
3 9 21 20
3 11 12 23
3 11 23 22
3 12 13 24
3 12 24 23
3 13 14 25
3 13 25 24
3 14 15 26
3 14 26 25
3 15 16 27
3 15 27 26
3 16 17 28
3 16 28 27
3 17 18 29
3 17 29 28
3 18 19 30
3 18 30 29
3 19 20 31
3 19 31 30
3 20 21 32
3 20 32 31
3 22 23 34
3 22 34 33
3 23 24 35
3 23 35 34
3 24 25 36
3 24 36 35
3 25 26 37
3 25 37 36
3 26 27 38
3 26 38 37
3 27 28 39
3 27 39 38
3 28 29 40
3 28 40 39
3 29 30 41
3 29 41 40
3 30 31 42
3 30 42 41
3 31 32 43
3 31 43 42
3 33 34 45
3 33 45 44
3 34 35 46
3 34 46 45
3 35 36 47
3 35 47 46
3 36 37 48
3 36 48 47
3 37 38 49
3 37 49 48
3 38 39 50
3 38 50 49
3 39 40 51
3 39 51 50
3 40 41 52
3 40 52 51
3 41 42 53
3 41 53 52
3 42 43 54
3 42 54 53
3 44 45 56
3 44 56 55
3 45 46 57
3 45 57 56
3 46 47 58
3 46 58 57
3 47 48 59
3 47 59 58
3 48 49 60
3 48 60 59
3 49 50 61
3 49 61 60
3 50 51 62
3 50 62 61
3 51 52 63
3 51 63 62
3 52 53 64
3 52 64 63
3 53 54 65
3 53 65 64
CELL_TYPES 100
5
5
5
5
5
5
5
5
5
5
5
5
5
5
5
5
5
5
5
5
5
5
5
5
5
5
5
5
5
5
5
5
5
5
5
5
5
5
5
5
5
5
5
5
5
5
5
5
5
5
5
5
5
5
5
5
5
5
5
5
5
5
5
5
5
5
5
5
5
5
5
5
5
5
5
5
5
5
5
5
5
5
5
5
5
5
5
5
5
5
5
5
5
5
5
5
5
5
5
5
CELL_DATA 100
VECTORS Et double
0.140264 -0.436888 0
0.176268 -0.160521 0
0.0886854 -0.795349 0
0.205711 -0.709788 0
0.0187821 -0.742812 0
0.249805 -0.936262 0
-0.036037 -0.320886 0
0.277276 -0.736367 0
-0.0511947 0.242454 0
0.261347 -0.221272 0
-0.0233527 0.652029 0
0.194816 0.341504 0
0.0280885 0.700613 0
0.0961402 0.667093 0
0.0711575 0.382447 0
0.00413042 0.602695 0
0.0307335 0.107514 0
-0.0195817 0.250475 0
0.0116923 0.0129914 0
-0.000638749 0.0565246 0
0.442185 -0.44704 0
0.399475 -0.132322 0
0.382079 -0.796325 0
0.422291 -0.672036 0
0.290683 -0.735493 0
0.450638 -0.892707 0
0.202644 -0.304799 0
0.454078 -0.689159 0
0.14504 0.267982 0
0.407329 -0.171149 0
0.125145 0.685577 0
0.305444 0.39382 0
0.129445 0.735784 0
0.170417 0.718602 0
0.135048 0.404657 0
0.0468699 0.645524 0
0.0585663 0.113514 0
-0.00557559 0.272304 0
0.0261372 0.0129104 0
0.00815847 0.0626937 0
0.605441 -0.467711 0
0.435067 -0.0909377 0
0.541511 -0.799763 0
0.45792 -0.614357 0
0.439119 -0.722571 0
0.484317 -0.822616 0
0.333521 -0.275782 0
0.484337 -0.610116 0
0.253288 0.312201 0
0.432877 -0.0858341 0
0.208057 0.740826 0
0.324989 0.482096 0
0.187797 0.790917 0
0.182647 0.803291 0
0.174979 0.436674 0
0.0505653 0.713472 0
0.0737606 0.125209 0
-0.00619614 0.303536 0
0.0351315 0.0130734 0
0.00802143 0.0734627 0
0.566879 -0.489757 0
0.270374 -0.0523925 0
0.505983 -0.804115 0
0.299013 -0.558069 0
0.407257 -0.7104 0
0.33746 -0.753157 0
0.306191 -0.247459 0
0.355783 -0.531325 0
0.231464 0.355802 0
0.327555 -0.000544127 0
0.192727 0.79565 0
0.245466 0.570545 0
0.179779 0.846039 0
0.127864 0.888401 0
0.174648 0.469254 0
0.0137241 0.78218 0
0.0750005 0.137143 0
-0.0212818 0.335574 0
0.0354285 0.0132586 0
-0.00097824 0.0844129 0
0.34251 -0.50283 0
-0.0283512 -0.0315013 0
0.28964 -0.806997 0
0.00666269 -0.523186 0
0.207312 -0.704731 0
0.0657137 -0.710776 0
0.130703 -0.232987 0
0.116859 -0.484525 0
0.0871489 0.379781 0
0.130971 0.0496134 0
0.0840593 0.82797 0
0.0967865 0.623276 0
0.107614 0.880853 0
0.0268545 0.940821 0
0.133819 0.493026 0
-0.0486703 0.826702 0
0.061215 0.143648 0
-0.0507096 0.359851 0
0.0266406 0.013244 0
-0.0156184 0.0907961 0
