# vtk DataFile Version 3.0
tp3485 cell-vector
ASCII
DATASET UNSTRUCTURED_GRID
POINTS 66 double
0 0 0
0.1 0 0
0.2 0 0
0.3 0 0
0.4 0 0
0.5 0 0
0.6 0 0
0.7 0 0
0.8 0 0
0.9 0 0
1 0 0
0 0.09 0
0.1 0.09 0
0.2 0.09 0
0.3 0.09 0
0.4 0.09 0
0.5 0.09 0
0.6 0.09 0
0.7 0.09 0
0.8 0.09 0
0.9 0.09 0
1 0.09 0
0 0.18 0
0.1 0.18 0
0.2 0.18 0
0.3 0.18 0
0.4 0.18 0
0.5 0.18 0
0.6 0.18 0
0.7 0.18 0
0.8 0.18 0
0.9 0.18 0
1 0.18 0
0 0.27 0
0.1 0.27 0
0.2 0.27 0
0.3 0.27 0
0.4 0.27 0
0.5 0.27 0
0.6 0.27 0
0.7 0.27 0
0.8 0.27 0
0.9 0.27 0
1 0.27 0
0 0.36 0
0.1 0.36 0
0.2 0.36 0
0.3 0.36 0
0.4 0.36 0
0.5 0.36 0
0.6 0.36 0
0.7 0.36 0
0.8 0.36 0
0.9 0.36 0
1 0.36 0
0 0.45 0
0.1 0.45 0
0.2 0.45 0
0.3 0.45 0
0.4 0.45 0
0.5 0.45 0
0.6 0.45 0
0.7 0.45 0
0.8 0.45 0
0.9 0.45 0
1 0.45 0
CELLS 100 400
3 0 1 12
3 0 12 11
3 1 2 13
3 1 13 12
3 2 3 14
3 2 14 13
3 3 4 15
3 3 15 14
3 4 5 16
3 4 16 15
3 5 6 17
3 5 17 16
3 6 7 18
3 6 18 17
3 7 8 19
3 7 19 18
3 8 9 20
3 8 20 19
3 9 10 21
3 9 21 20
3 11 12 23
3 11 23 22
3 12 13 24
3 12 24 23
3 13 14 25
3 13 25 24
3 14 15 26
3 14 26 25
3 15 16 27
3 15 27 26
3 16 17 28
3 16 28 27
3 17 18 29
3 17 29 28
3 18 19 30
3 18 30 29
3 19 20 31
3 19 31 30
3 20 21 32
3 20 32 31
3 22 23 34
3 22 34 33
3 23 24 35
3 23 35 34
3 24 25 36
3 24 36 35
3 25 26 37
3 25 37 36
3 26 27 38
3 26 38 37
3 27 28 39
3 27 39 38
3 28 29 40
3 28 40 39
3 29 30 41
3 29 41 40
3 30 31 42
3 30 42 41
3 31 32 43
3 31 43 42
3 33 34 45
3 33 45 44
3 34 35 46
3 34 46 45
3 35 36 47
3 35 47 46
3 36 37 48
3 36 48 47
3 37 38 49
3 37 49 48
3 38 39 50
3 38 50 49
3 39 40 51
3 39 51 50
3 40 41 52
3 40 52 51
3 41 42 53
3 41 53 52
3 42 43 54
3 42 54 53
3 44 45 56
3 44 56 55
3 45 46 57
3 45 57 56
3 46 47 58
3 46 58 57
3 47 48 59
3 47 59 58
3 48 49 60
3 48 60 59
3 49 50 61
3 49 61 60
3 50 51 62
3 50 62 61
3 51 52 63
3 51 63 62
3 52 53 64
3 52 64 63
3 53 54 65
3 53 65 64
CELL_TYPES 100
5
5
5
5
5
5
5
5
5
5
5
5
5
5
5
5
5
5
5
5
5
5
5
5
5
5
5
5
5
5
5
5
5
5
5
5
5
5
5
5
5
5
5
5
5
5
5
5
5
5
5
5
5
5
5
5
5
5
5
5
5
5
5
5
5
5
5
5
5
5
5
5
5
5
5
5
5
5
5
5
5
5
5
5
5
5
5
5
5
5
5
5
5
5
5
5
5
5
5
5
CELL_DATA 100
VECTORS Et double
0.105328 0.119626 0
0.515154 -0.109352 0
0.105755 0.117277 0
0.512467 -0.107262 0
0.105945 0.112191 0
0.511411 -0.110419 0
0.105757 0.107219 0
0.511207 -0.11565 0
0.105258 0.104836 0
0.51152 -0.119951 0
0.104674 0.106189 0
0.512045 -0.121129 0
0.104271 0.110603 0
0.512437 -0.118586 0
0.104228 0.115839 0
0.512351 -0.113538 0
0.104536 0.11889 0
0.511391 -0.108494 0
0.104972 0.116636 0
0.50872 -0.106299 0
0.685349 0.0782919 0
0.935246 -0.0598091 0
0.68365 0.0747771 0
0.933513 -0.0619818 0
0.683124 0.0693038 0
0.932718 -0.0664953 0
0.682687 0.0641843 0
0.932588 -0.0721855 0
0.682094 0.0617348 0
0.932926 -0.0766647 0
0.681452 0.0630843 0
0.93347 -0.0779229 0
0.680958 0.0676265 0
0.933901 -0.0753901 0
0.680676 0.073328 0
0.933919 -0.0702294 0
0.680295 0.0777925 0
0.933264 -0.0647768 0
0.678692 0.0798198 0
0.931588 -0.0613544 0
0.999956 0.00935355 0
0.996811 0.0124697 0
0.999477 0.00533713 0
0.997205 0.00894779 0
0.99931 -0.000339124 0
0.997212 0.00381022 0
0.998988 -0.00555398 0
0.997372 -0.00213601 0
0.998437 -0.00806175 0
0.997822 -0.00673508 0
0.997822 -0.00673508 0
0.998437 -0.00806175 0
0.997372 -0.00213601 0
0.998988 -0.00555398 0
0.997212 0.00381022 0
0.99931 -0.000339124 0
0.997205 0.00894779 0
0.999477 0.00533713 0
0.996811 0.0124697 0
0.999956 0.00935355 0
0.931588 -0.0613544 0
0.678692 0.0798198 0
0.933264 -0.0647768 0
0.680295 0.0777925 0
0.933919 -0.0702294 0
0.680676 0.073328 0
0.933901 -0.0753901 0
0.680958 0.0676265 0
0.93347 -0.0779229 0
0.681452 0.0630843 0
0.932926 -0.0766647 0
0.682094 0.0617348 0
0.932588 -0.0721855 0
0.682687 0.0641843 0
0.932718 -0.0664953 0
0.683124 0.0693038 0
0.933513 -0.0619818 0
0.68365 0.0747771 0
0.935246 -0.0598091 0
0.685349 0.0782919 0
0.50872 -0.106299 0
0.104972 0.116636 0
0.511391 -0.108494 0
0.104536 0.11889 0
0.512351 -0.113538 0
0.104228 0.115839 0
0.512437 -0.118586 0
0.104271 0.110603 0
0.512045 -0.121129 0
0.104674 0.106189 0
0.51152 -0.119951 0
0.105258 0.104836 0
0.511207 -0.11565 0
0.105757 0.107219 0
0.511411 -0.110419 0
0.105945 0.112191 0
0.512467 -0.107262 0
0.105755 0.117277 0
0.515154 -0.109352 0
0.105328 0.119626 0
