# vtk DataFile Version 3.0
tp3485 cell-vector
ASCII
DATASET UNSTRUCTURED_GRID
POINTS 66 double
0 0 0
0.1 0 0
0.2 0 0
0.3 0 0
0.4 0 0
0.5 0 0
0.6 0 0
0.7 0 0
0.8 0 0
0.9 0 0
1 0 0
0 0.09 0
0.1 0.09 0
0.2 0.09 0
0.3 0.09 0
0.4 0.09 0
0.5 0.09 0
0.6 0.09 0
0.7 0.09 0
0.8 0.09 0
0.9 0.09 0
1 0.09 0
0 0.18 0
0.1 0.18 0
0.2 0.18 0
0.3 0.18 0
0.4 0.18 0
0.5 0.18 0
0.6 0.18 0
0.7 0.18 0
0.8 0.18 0
0.9 0.18 0
1 0.18 0
0 0.27 0
0.1 0.27 0
0.2 0.27 0
0.3 0.27 0
0.4 0.27 0
0.5 0.27 0
0.6 0.27 0
0.7 0.27 0
0.8 0.27 0
0.9 0.27 0
1 0.27 0
0 0.36 0
0.1 0.36 0
0.2 0.36 0
0.3 0.36 0
0.4 0.36 0
0.5 0.36 0
0.6 0.36 0
0.7 0.36 0
0.8 0.36 0
0.9 0.36 0
1 0.36 0
0 0.45 0
0.1 0.45 0
0.2 0.45 0
0.3 0.45 0
0.4 0.45 0
0.5 0.45 0
0.6 0.45 0
0.7 0.45 0
0.8 0.45 0
0.9 0.45 0
1 0.45 0
CELLS 100 400
3 0 1 12
3 0 12 11
3 1 2 13
3 1 13 12
3 2 3 14
3 2 14 13
3 3 4 15
3 3 15 14
3 4 5 16
3 4 16 15
3 5 6 17
3 5 17 16
3 6 7 18
3 6 18 17
3 7 8 19
3 7 19 18
3 8 9 20
3 8 20 19
3 9 10 21
3 9 21 20
3 11 12 23
3 11 23 22
3 12 13 24
3 12 24 23
3 13 14 25
3 13 25 24
3 14 15 26
3 14 26 25
3 15 16 27
3 15 27 26
3 16 17 28
3 16 28 27
3 17 18 29
3 17 29 28
3 18 19 30
3 18 30 29
3 19 20 31
3 19 31 30
3 20 21 32
3 20 32 31
3 22 23 34
3 22 34 33
3 23 24 35
3 23 35 34
3 24 25 36
3 24 36 35
3 25 26 37
3 25 37 36
3 26 27 38
3 26 38 37
3 27 28 39
3 27 39 38
3 28 29 40
3 28 40 39
3 29 30 41
3 29 41 40
3 30 31 42
3 30 42 41
3 31 32 43
3 31 43 42
3 33 34 45
3 33 45 44
3 34 35 46
3 34 46 45
3 35 36 47
3 35 47 46
3 36 37 48
3 36 48 47
3 37 38 49
3 37 49 48
3 38 39 50
3 38 50 49
3 39 40 51
3 39 51 50
3 40 41 52
3 40 52 51
3 41 42 53
3 41 53 52
3 42 43 54
3 42 54 53
3 44 45 56
3 44 56 55
3 45 46 57
3 45 57 56
3 46 47 58
3 46 58 57
3 47 48 59
3 47 59 58
3 48 49 60
3 48 60 59
3 49 50 61
3 49 61 60
3 50 51 62
3 50 62 61
3 51 52 63
3 51 63 62
3 52 53 64
3 52 64 63
3 53 54 65
3 53 65 64
CELL_TYPES 100
5
5
5
5
5
5
5
5
5
5
5
5
5
5
5
5
5
5
5
5
5
5
5
5
5
5
5
5
5
5
5
5
5
5
5
5
5
5
5
5
5
5
5
5
5
5
5
5
5
5
5
5
5
5
5
5
5
5
5
5
5
5
5
5
5
5
5
5
5
5
5
5
5
5
5
5
5
5
5
5
5
5
5
5
5
5
5
5
5
5
5
5
5
5
5
5
5
5
5
5
CELL_DATA 100
VECTORS Et double
-9.52058e-05 -9.3298e-05 0
-0.000451864 9.86021e-05 0
-9.23741e-05 -0.000989081 0
-0.0012324 9.37327e-05 0
-0.000192999 -0.00749331 0
-0.00643928 -0.000826944 0
-0.000985241 -0.047578 0
-0.0384628 -0.0071549 0
-0.00579259 -0.289588 0
-0.231755 -0.0457193 0
-0.00253617 -0.0445916 0
0.202128 -0.278983 0
-0.000406124 -0.00647597 0
0.0297535 -0.0411058 0
-6.45465e-05 -0.000888632 0
0.00430176 -0.00591826 0
-9.80094e-06 -0.000102732 0
0.000593664 -0.000800526 0
-1.48572e-06 -1.6508e-06 0
7.46216e-05 -8.98536e-05 0
-0.000589043 0.000624464 0
-0.000159367 4.66133e-05 0
-0.00127955 0.00367513 0
0.00140623 0.000699046 0
-0.00610451 0.0212573 0
0.0103285 0.00353806 0
-0.0362469 0.126247 0
0.0623377 0.02006 0
-0.219237 0.756338 0
0.371332 0.119241 0
0.203237 0.11601 0
-0.331766 0.728762 0
0.0299318 0.017307 0
-0.0495377 0.108541 0
0.00433151 0.00258931 0
-0.00741161 0.0161089 0
0.000599893 0.000386939 0
-0.00113846 0.00239577 0
7.81548e-05 5.91403e-06 0
-0.000220818 0.000353825 0
-0.000226403 -0.000756895 0
-0.000924033 -4.81105e-06 0
0.00129078 -0.00446832 0
-0.0022211 -0.000701376 0
0.00992554 -0.0263615 0
-0.0107345 -0.00416133 0
0.0602518 -0.156576 0
-0.0622597 -0.0246703 0
0.359748 -0.93305 0
-0.368906 -0.147109 0
-0.325461 -0.143183 0
0.334521 -0.899077 0
-0.0485247 -0.0214364 0
0.0500872 -0.134616 0
-0.0072478 -0.00318938 0
0.00742342 -0.0200673 0
-0.0011111 -0.000460577 0
0.00106652 -0.00297149 0
-0.000216319 -4.80595e-06 0
0.000148864 -0.000426159 0
-0.000856735 0.000518661 0
-0.000172806 -8.56478e-05 0
-0.00214271 0.00347715 0
0.000853679 0.000355641 0
-0.0105132 0.0213812 0
0.00649698 0.00314437 0
-0.0611263 0.127152 0
0.038532 0.0198757 0
-0.362675 0.753471 0
0.225769 0.118854 0
0.323243 0.115737 0
-0.209655 0.72608 0
0.0482819 0.0174282 0
-0.0318138 0.109336 0
0.00713524 0.00260638 0
-0.00486479 0.0164058 0
0.00102152 0.000377758 0
-0.000768193 0.0024421 0
0.000143418 4.73725e-06 0
-0.000153365 0.000349636 0
-1.23874e-05 -0.000394174 0
-9.46028e-05 -0.000105114 0
0.000971744 -0.00179749 0
-5.78634e-05 -0.000551061 0
0.006579 -0.00880958 0
6.27415e-05 -0.00176591 0
0.0387631 -0.0491798 0
0.000530867 -0.00809282 0
0.227246 -0.287094 0
0.00285502 -0.0452042 0
-0.197726 -0.0438892 0
0.00552487 -0.276693 0
-0.0299075 -0.00675636 0
0.000881791 -0.0420786 0
-0.00455955 -0.00106945 0
0.000140375 -0.0064682 0
-0.000718473 -0.000174458 0
2.19737e-05 -0.0010244 0
-0.000144254 -2.80197e-07 0
3.24113e-06 -0.000168046 0
