# vtk DataFile Version 3.0
tp3485 cell-vector
ASCII
DATASET UNSTRUCTURED_GRID
POINTS 66 double
0 0 0
0.1 0 0
0.2 0 0
0.3 0 0
0.4 0 0
0.5 0 0
0.6 0 0
0.7 0 0
0.8 0 0
0.9 0 0
1 0 0
0 0.09 0
0.1 0.09 0
0.2 0.09 0
0.3 0.09 0
0.4 0.09 0
0.5 0.09 0
0.6 0.09 0
0.7 0.09 0
0.8 0.09 0
0.9 0.09 0
1 0.09 0
0 0.18 0
0.1 0.18 0
0.2 0.18 0
0.3 0.18 0
0.4 0.18 0
0.5 0.18 0
0.6 0.18 0
0.7 0.18 0
0.8 0.18 0
0.9 0.18 0
1 0.18 0
0 0.27 0
0.1 0.27 0
0.2 0.27 0
0.3 0.27 0
0.4 0.27 0
0.5 0.27 0
0.6 0.27 0
0.7 0.27 0
0.8 0.27 0
0.9 0.27 0
1 0.27 0
0 0.36 0
0.1 0.36 0
0.2 0.36 0
0.3 0.36 0
0.4 0.36 0
0.5 0.36 0
0.6 0.36 0
0.7 0.36 0
0.8 0.36 0
0.9 0.36 0
1 0.36 0
0 0.45 0
0.1 0.45 0
0.2 0.45 0
0.3 0.45 0
0.4 0.45 0
0.5 0.45 0
0.6 0.45 0
0.7 0.45 0
0.8 0.45 0
0.9 0.45 0
1 0.45 0
CELLS 100 400
3 0 1 12
3 0 12 11
3 1 2 13
3 1 13 12
3 2 3 14
3 2 14 13
3 3 4 15
3 3 15 14
3 4 5 16
3 4 16 15
3 5 6 17
3 5 17 16
3 6 7 18
3 6 18 17
3 7 8 19
3 7 19 18
3 8 9 20
3 8 20 19
3 9 10 21
3 9 21 20
3 11 12 23
3 11 23 22
3 12 13 24
3 12 24 23
3 13 14 25
3 13 25 24
3 14 15 26
3 14 26 25
3 15 16 27
3 15 27 26
3 16 17 28
3 16 28 27
3 17 18 29
3 17 29 28
3 18 19 30
3 18 30 29
3 19 20 31
3 19 31 30
3 20 21 32
3 20 32 31
3 22 23 34
3 22 34 33
3 23 24 35
3 23 35 34
3 24 25 36
3 24 36 35
3 25 26 37
3 25 37 36
3 26 27 38
3 26 38 37
3 27 28 39
3 27 39 38
3 28 29 40
3 28 40 39
3 29 30 41
3 29 41 40
3 30 31 42
3 30 42 41
3 31 32 43
3 31 43 42
3 33 34 45
3 33 45 44
3 34 35 46
3 34 46 45
3 35 36 47
3 35 47 46
3 36 37 48
3 36 48 47
3 37 38 49
3 37 49 48
3 38 39 50
3 38 50 49
3 39 40 51
3 39 51 50
3 40 41 52
3 40 52 51
3 41 42 53
3 41 53 52
3 42 43 54
3 42 54 53
3 44 45 56
3 44 56 55
3 45 46 57
3 45 57 56
3 46 47 58
3 46 58 57
3 47 48 59
3 47 59 58
3 48 49 60
3 48 60 59
3 49 50 61
3 49 61 60
3 50 51 62
3 50 62 61
3 51 52 63
3 51 63 62
3 52 53 64
3 52 64 63
3 53 54 65
3 53 65 64
CELL_TYPES 100
5
5
5
5
5
5
5
5
5
5
5
5
5
5
5
5
5
5
5
5
5
5
5
5
5
5
5
5
5
5
5
5
5
5
5
5
5
5
5
5
5
5
5
5
5
5
5
5
5
5
5
5
5
5
5
5
5
5
5
5
5
5
5
5
5
5
5
5
5
5
5
5
5
5
5
5
5
5
5
5
5
5
5
5
5
5
5
5
5
5
5
5
5
5
5
5
5
5
5
5
CELL_DATA 100
VECTORS Et double
0.000728006 -0.0020428 0
0.00109765 -0.00082231 0
0.000337552 -0.00440708 0
0.000216613 -0.00337467 0
-0.0002104 -0.00563013 0
-0.00121535 -0.00476471 0
-0.000668535 -0.00604475 0
-0.00291862 -0.00484191 0
-0.000538648 -0.519643 0
-0.465176 -0.00463964 0
-0.00033745 -0.874784 0
-0.321589 -0.518629 0
-0.000208454 -0.990285 0
-0.10517 -0.874151 0
-0.000126443 -0.841815 0
0.13288 -0.989897 0
-7.82707e-05 -0.475141 0
0.329554 -0.84158 0
-5.75682e-05 -6.39647e-05 0
0.427263 -0.474992 0
0.00235066 -0.00121226 0
0.00260902 -0.000464707 0
0.000937819 -0.00270669 0
0.000911674 -0.00209073 0
-0.00135939 -0.00344614 0
-0.00188658 -0.00299402 0
-0.0038664 -0.00354297 0
-0.00506092 -0.00300894 0
-0.466145 -0.300561 0
-0.734949 -0.00267394 0
-0.322199 -0.525781 0
-0.52593 -0.29991 0
-0.105546 -0.612805 0
-0.184509 -0.525374 0
0.132656 -0.536168 0
0.201251 -0.612562 0
0.329422 -0.31402 0
0.529146 -0.536032 0
0.427176 -3.46486e-05 0
0.709644 -0.313945 0
0.00313155 3.75378e-05 0
0.0031466 6.83522e-05 0
0.00125332 -4.77157e-05 0
0.00129538 -5.08599e-05 0
-0.00188752 -2.55494e-05 0
-0.00177891 -0.000137505 0
-0.00539923 0.000181511 0
-0.00519058 -7.35892e-05 0
-0.735355 0.018814 0
-0.718647 0.000215824 0
-0.526192 0.0146424 0
-0.530024 0.0188712 0
-0.184665 8.2994e-05 0
-0.197805 0.014676 0
0.201172 -0.0144735 0
0.188087 8.55196e-05 0
0.529117 -0.0186354 0
0.525434 -0.0145006 0
0.709641 1.89561e-05 0
0.726524 -0.0186838 0
0.00273968 0.00121884 0
0.00245576 0.000575262 0
0.00111511 0.00253835 0
0.00115519 0.00196181 0
-0.00166552 0.0033049 0
-0.00102539 0.00270603 0
-0.00482921 0.00372891 0
-0.00338414 0.0028322 0
-0.718364 0.318992 0
-0.433306 0.00295739 0
-0.529851 0.539639 0
-0.330398 0.318458 0
-0.197684 0.613261 0
-0.130856 0.539297 0
0.188189 0.523122 0
0.107475 0.61302 0
0.525535 0.296132 0
0.321581 0.52293 0
0.726626 7.64297e-05 0
0.460484 0.29596 0
0.00127601 0.00189246 0
0.000772401 0.000858223 0
0.000510758 0.00408104 0
0.000499102 0.00318259 0
-0.000869489 0.00529647 0
1.81725e-05 0.00445808 0
-0.00250007 0.00573748 0
-0.000465571 0.00461109 0
-0.432469 0.483243 0
-0.00056926 0.00448811 0
-0.329872 0.84775 0
-0.000359055 0.482342 0
-0.130508 0.991447 0
-0.000234253 0.847172 0
0.107728 0.870836 0
-0.000164144 0.991053 0
0.321787 0.512588 0
-0.000127727 0.870539 0
0.460672 0.000115778 0
-0.000111758 0.512337 0
