# vtk DataFile Version 3.0
tp3485 cell-vector
ASCII
DATASET UNSTRUCTURED_GRID
POINTS 66 double
0 0 0
0.1 0 0
0.2 0 0
0.3 0 0
0.4 0 0
0.5 0 0
0.6 0 0
0.7 0 0
0.8 0 0
0.9 0 0
1 0 0
0 0.09 0
0.1 0.09 0
0.2 0.09 0
0.3 0.09 0
0.4 0.09 0
0.5 0.09 0
0.6 0.09 0
0.7 0.09 0
0.8 0.09 0
0.9 0.09 0
1 0.09 0
0 0.18 0
0.1 0.18 0
0.2 0.18 0
0.3 0.18 0
0.4 0.18 0
0.5 0.18 0
0.6 0.18 0
0.7 0.18 0
0.8 0.18 0
0.9 0.18 0
1 0.18 0
0 0.27 0
0.1 0.27 0
0.2 0.27 0
0.3 0.27 0
0.4 0.27 0
0.5 0.27 0
0.6 0.27 0
0.7 0.27 0
0.8 0.27 0
0.9 0.27 0
1 0.27 0
0 0.36 0
0.1 0.36 0
0.2 0.36 0
0.3 0.36 0
0.4 0.36 0
0.5 0.36 0
0.6 0.36 0
0.7 0.36 0
0.8 0.36 0
0.9 0.36 0
1 0.36 0
0 0.45 0
0.1 0.45 0
0.2 0.45 0
0.3 0.45 0
0.4 0.45 0
0.5 0.45 0
0.6 0.45 0
0.7 0.45 0
0.8 0.45 0
0.9 0.45 0
1 0.45 0
CELLS 100 400
3 0 1 12
3 0 12 11
3 1 2 13
3 1 13 12
3 2 3 14
3 2 14 13
3 3 4 15
3 3 15 14
3 4 5 16
3 4 16 15
3 5 6 17
3 5 17 16
3 6 7 18
3 6 18 17
3 7 8 19
3 7 19 18
3 8 9 20
3 8 20 19
3 9 10 21
3 9 21 20
3 11 12 23
3 11 23 22
3 12 13 24
3 12 24 23
3 13 14 25
3 13 25 24
3 14 15 26
3 14 26 25
3 15 16 27
3 15 27 26
3 16 17 28
3 16 28 27
3 17 18 29
3 17 29 28
3 18 19 30
3 18 30 29
3 19 20 31
3 19 31 30
3 20 21 32
3 20 32 31
3 22 23 34
3 22 34 33
3 23 24 35
3 23 35 34
3 24 25 36
3 24 36 35
3 25 26 37
3 25 37 36
3 26 27 38
3 26 38 37
3 27 28 39
3 27 39 38
3 28 29 40
3 28 40 39
3 29 30 41
3 29 41 40
3 30 31 42
3 30 42 41
3 31 32 43
3 31 43 42
3 33 34 45
3 33 45 44
3 34 35 46
3 34 46 45
3 35 36 47
3 35 47 46
3 36 37 48
3 36 48 47
3 37 38 49
3 37 49 48
3 38 39 50
3 38 50 49
3 39 40 51
3 39 51 50
3 40 41 52
3 40 52 51
3 41 42 53
3 41 53 52
3 42 43 54
3 42 54 53
3 44 45 56
3 44 56 55
3 45 46 57
3 45 57 56
3 46 47 58
3 46 58 57
3 47 48 59
3 47 59 58
3 48 49 60
3 48 60 59
3 49 50 61
3 49 61 60
3 50 51 62
3 50 62 61
3 51 52 63
3 51 63 62
3 52 53 64
3 52 64 63
3 53 54 65
3 53 65 64
CELL_TYPES 100
5
5
5
5
5
5
5
5
5
5
5
5
5
5
5
5
5
5
5
5
5
5
5
5
5
5
5
5
5
5
5
5
5
5
5
5
5
5
5
5
5
5
5
5
5
5
5
5
5
5
5
5
5
5
5
5
5
5
5
5
5
5
5
5
5
5
5
5
5
5
5
5
5
5
5
5
5
5
5
5
5
5
5
5
5
5
5
5
5
5
5
5
5
5
5
5
5
5
5
5
CELL_DATA 100
VECTORS Et double
7.47576e-06 -0.0775245 0
-0.0697415 -8.66277e-06 0
1.23273e-06 0.220669 0
0.26839 -0.0775361 0
-2.59807e-06 -0.22308 0
-0.399384 0.220671 0
7.90139e-06 0.000222866 0
0.200979 -0.223073 0
3.49958e-06 4.70539e-05 0
-0.000131752 0.000207654 0
-9.85133e-08 1.32796e-05 0
-2.68151e-05 4.30103e-05 0
-3.76086e-07 5.85622e-06 0
-8.37062e-06 1.38551e-05 0
-2.45845e-07 3.01703e-06 0
-4.01049e-06 6.60045e-06 0
-1.42488e-07 1.2796e-06 0
-2.42848e-06 3.47573e-06 0
-9.95667e-08 -1.1063e-07 0
-1.80273e-06 1.55453e-06 0
-0.0697297 0.301292 0
0.201443 -3.37726e-06 0
0.268392 -0.631249 0
-0.570892 0.301287 0
-0.399398 0.526807 0
0.642831 -0.631242 0
0.200951 -0.000372392 0
-0.273575 0.526835 0
-0.000135046 -5.73938e-05 0
7.40185e-05 -0.000322475 0
-2.8949e-05 -5.38977e-06 0
-2.37466e-06 -4.23725e-05 0
-9.49816e-06 1.4447e-06 0
-8.61766e-06 -1.59201e-06 0
-4.57644e-06 1.46078e-06 0
-6.27824e-06 2.64035e-06 0
-2.72412e-06 6.86165e-07 0
-4.12228e-06 1.92999e-06 0
-1.99172e-06 -9.33787e-08 0
-3.0715e-06 9.21059e-07 0
0.201446 -0.527488 0
-0.273298 2.66317e-06 0
-0.570891 0.82102 0
0.642764 -0.527487 0
0.642824 -0.527569 0
-0.570903 0.821018 0
-0.27359 0.000107452 0
0.201323 -0.527571 0
5.20761e-05 1.05261e-05 0
-2.81388e-05 0.000102726 0
-7.50765e-06 -2.27669e-08 0
-1.86324e-05 1.18874e-05 0
-1.00466e-05 -7.07407e-07 0
-1.18237e-05 8.5101e-07 0
-6.77081e-06 -4.76417e-07 0
-7.1213e-06 -3.08331e-07 0
-4.337e-06 -2.39983e-07 0
-4.40592e-06 -2.86611e-07 0
-3.19919e-06 -4.99271e-08 0
-3.20315e-06 -1.31797e-07 0
-0.273305 0.526768 0
0.200768 7.87395e-06 0
0.642766 -0.631147 0
-0.399362 0.526774 0
-0.570894 0.30133 0
0.268358 -0.631156 0
0.201336 8.64802e-05 0
-0.0697447 0.301311 0
-1.97588e-05 9.09771e-06 0
-5.99788e-05 6.66327e-05 0
-1.73369e-05 -4.38332e-06 0
-2.02619e-05 2.26336e-06 0
-1.16467e-05 -4.43694e-06 0
-9.22331e-06 -6.16627e-06 0
-7.12346e-06 -2.75389e-06 0
-4.8983e-06 -4.9397e-06 0
-4.43602e-06 -1.25419e-06 0
-2.88277e-06 -2.89825e-06 0
-3.23448e-06 1.52165e-09 0
-2.05086e-06 -1.2921e-06 0
0.200754 -0.223019 0
9.88197e-06 1.098e-05 0
-0.39936 0.220727 0
1.70483e-06 -0.223008 0
0.268374 -0.077505 0
-7.89376e-06 0.220716 0
-0.0697292 -7.10936e-05 0
-8.12128e-06 -0.077524 0
-5.05057e-05 -2.55104e-05 0
-7.02663e-07 -7.78329e-05 0
-1.71913e-05 -1.34364e-05 0
-1.09873e-06 -2.89647e-05 0
-8.18779e-06 -7.91049e-06 0
-5.86872e-07 -1.52199e-05 0
-4.54034e-06 -4.391e-06 0
-2.54927e-07 -8.67768e-06 0
-2.75896e-06 -1.93111e-06 0
-1.02081e-07 -4.69607e-06 0
-2.00074e-06 3.56978e-08 0
-4.40488e-08 -2.05376e-06 0
