# vtk DataFile Version 3.0
tp3485 cell-vector
ASCII
DATASET UNSTRUCTURED_GRID
POINTS 66 double
0 0 0
0.1 0 0
0.2 0 0
0.3 0 0
0.4 0 0
0.5 0 0
0.6 0 0
0.7 0 0
0.8 0 0
0.9 0 0
1 0 0
0 0.09 0
0.1 0.09 0
0.2 0.09 0
0.3 0.09 0
0.4 0.09 0
0.5 0.09 0
0.6 0.09 0
0.7 0.09 0
0.8 0.09 0
0.9 0.09 0
1 0.09 0
0 0.18 0
0.1 0.18 0
0.2 0.18 0
0.3 0.18 0
0.4 0.18 0
0.5 0.18 0
0.6 0.18 0
0.7 0.18 0
0.8 0.18 0
0.9 0.18 0
1 0.18 0
0 0.27 0
0.1 0.27 0
0.2 0.27 0
0.3 0.27 0
0.4 0.27 0
0.5 0.27 0
0.6 0.27 0
0.7 0.27 0
0.8 0.27 0
0.9 0.27 0
1 0.27 0
0 0.36 0
0.1 0.36 0
0.2 0.36 0
0.3 0.36 0
0.4 0.36 0
0.5 0.36 0
0.6 0.36 0
0.7 0.36 0
0.8 0.36 0
0.9 0.36 0
1 0.36 0
0 0.45 0
0.1 0.45 0
0.2 0.45 0
0.3 0.45 0
0.4 0.45 0
0.5 0.45 0
0.6 0.45 0
0.7 0.45 0
0.8 0.45 0
0.9 0.45 0
1 0.45 0
CELLS 100 400
3 0 1 12
3 0 12 11
3 1 2 13
3 1 13 12
3 2 3 14
3 2 14 13
3 3 4 15
3 3 15 14
3 4 5 16
3 4 16 15
3 5 6 17
3 5 17 16
3 6 7 18
3 6 18 17
3 7 8 19
3 7 19 18
3 8 9 20
3 8 20 19
3 9 10 21
3 9 21 20
3 11 12 23
3 11 23 22
3 12 13 24
3 12 24 23
3 13 14 25
3 13 25 24
3 14 15 26
3 14 26 25
3 15 16 27
3 15 27 26
3 16 17 28
3 16 28 27
3 17 18 29
3 17 29 28
3 18 19 30
3 18 30 29
3 19 20 31
3 19 31 30
3 20 21 32
3 20 32 31
3 22 23 34
3 22 34 33
3 23 24 35
3 23 35 34
3 24 25 36
3 24 36 35
3 25 26 37
3 25 37 36
3 26 27 38
3 26 38 37
3 27 28 39
3 27 39 38
3 28 29 40
3 28 40 39
3 29 30 41
3 29 41 40
3 30 31 42
3 30 42 41
3 31 32 43
3 31 43 42
3 33 34 45
3 33 45 44
3 34 35 46
3 34 46 45
3 35 36 47
3 35 47 46
3 36 37 48
3 36 48 47
3 37 38 49
3 37 49 48
3 38 39 50
3 38 50 49
3 39 40 51
3 39 51 50
3 40 41 52
3 40 52 51
3 41 42 53
3 41 53 52
3 42 43 54
3 42 54 53
3 44 45 56
3 44 56 55
3 45 46 57
3 45 57 56
3 46 47 58
3 46 58 57
3 47 48 59
3 47 59 58
3 48 49 60
3 48 60 59
3 49 50 61
3 49 61 60
3 50 51 62
3 50 62 61
3 51 52 63
3 51 63 62
3 52 53 64
3 52 64 63
3 53 54 65
3 53 65 64
CELL_TYPES 100
5
5
5
5
5
5
5
5
5
5
5
5
5
5
5
5
5
5
5
5
5
5
5
5
5
5
5
5
5
5
5
5
5
5
5
5
5
5
5
5
5
5
5
5
5
5
5
5
5
5
5
5
5
5
5
5
5
5
5
5
5
5
5
5
5
5
5
5
5
5
5
5
5
5
5
5
5
5
5
5
5
5
5
5
5
5
5
5
5
5
5
5
5
5
5
5
5
5
5
5
CELL_DATA 100
VECTORS Et double
4.98491e-05 0.00221081 0
0.00217769 -4.90361e-05 0
6.90042e-05 0.00525955 0
0.00304387 0.00209312 0
5.10608e-05 0.401819 0
0.357195 0.00511574 0
2.6647e-05 0.724073 0
0.290196 0.401727 0
1.39667e-05 0.931851 0
0.187087 0.724025 0
7.36562e-06 0.996993 0
0.0586742 0.931826 0
3.9367e-06 0.911212 0
-0.0771789 0.99698 0
2.17907e-06 0.68891 0
-0.200058 0.911204 0
1.325e-06 0.366497 0
-0.290164 0.688906 0
1.00136e-06 1.11262e-06 0
-0.329841 0.366495 0
0.0022552 0.00130483 0
0.00351055 -2.64582e-05 0
0.00314557 0.00303134 0
0.00483823 0.00123452 0
0.35729 0.233127 0
0.564523 0.00294421 0
0.290246 0.432494 0
0.469763 0.23307 0
0.187113 0.567433 0
0.308605 0.432464 0
0.0586879 0.61669 0
0.103044 0.567417 0
-0.0771715 0.572515 0
-0.116916 0.616682 0
-0.200054 0.441178 0
-0.31825 0.572511 0
-0.290162 0.241424 0
-0.469936 0.441175 0
-0.329839 7.9136e-07 0
-0.547117 0.241422 0
0.00353855 -6.06321e-05 0
0.00347716 6.11963e-06 0
0.00487336 -0.000202304 0
0.00474067 -5.71743e-05 0
0.56456 -0.0139706 0
0.552166 -0.000200649 0
0.469783 -0.0145481 0
0.469265 -0.0139725 0
0.308615 -0.0085642 0
0.314002 -0.0145494 0
0.103049 0.000168847 0
0.11091 -0.00856503 0
-0.116913 0.00886869 0
-0.109082 0.000168306 0
-0.318249 0.0147523 0
-0.312953 0.00886831 0
-0.469935 0.0140049 0
-0.470607 0.014752 0
-0.547117 2.06749e-07 0
-0.55972 0.0140047 0
0.00344537 -0.0013469 0
0.00214189 3.61062e-05 0
0.00469709 -0.00320601 0
0.00287908 -0.001272 0
0.552133 -0.246378 0
0.333131 -0.00311816 0
0.469248 -0.445602 0
0.289862 -0.246324 0
0.313993 -0.574993 0
0.197498 -0.445574 0
0.110905 -0.616541 0
0.0734895 -0.574978 0
-0.109085 -0.564684 0
-0.062425 -0.616533 0
-0.312954 -0.427879 0
-0.189836 -0.56468 0
-0.470608 -0.228121 0
-0.290829 -0.427877 0
-0.559721 -4.17946e-07 0
-0.354414 -0.22812 0
0.00206281 -0.00208325 0
4.70987e-05 5.23319e-05 0
0.00277465 -0.00484703 0
5.9119e-05 -0.0019658 0
0.333042 -0.374564 0
6.21589e-05 -0.00470762 0
0.289815 -0.696393 0
3.28102e-05 -0.374476 0
0.197473 -0.915708 0
1.72514e-05 -0.696346 0
0.0734766 -0.997297 0
9.04613e-06 -0.915684 0
-0.0624317 -0.927901 0
4.73892e-06 -0.997284 0
-0.189839 -0.716954 0
2.50005e-06 -0.927895 0
-0.290831 -0.393801 0
1.37504e-06 -0.716951 0
-0.354416 -8.44114e-07 0
8.83954e-07 -0.393799 0
