# vtk DataFile Version 3.0
tp3485 cell-vector
ASCII
DATASET UNSTRUCTURED_GRID
POINTS 66 double
0 0 0
0.1 0 0
0.2 0 0
0.3 0 0
0.4 0 0
0.5 0 0
0.6 0 0
0.7 0 0
0.8 0 0
0.9 0 0
1 0 0
0 0.09 0
0.1 0.09 0
0.2 0.09 0
0.3 0.09 0
0.4 0.09 0
0.5 0.09 0
0.6 0.09 0
0.7 0.09 0
0.8 0.09 0
0.9 0.09 0
1 0.09 0
0 0.18 0
0.1 0.18 0
0.2 0.18 0
0.3 0.18 0
0.4 0.18 0
0.5 0.18 0
0.6 0.18 0
0.7 0.18 0
0.8 0.18 0
0.9 0.18 0
1 0.18 0
0 0.27 0
0.1 0.27 0
0.2 0.27 0
0.3 0.27 0
0.4 0.27 0
0.5 0.27 0
0.6 0.27 0
0.7 0.27 0
0.8 0.27 0
0.9 0.27 0
1 0.27 0
0 0.36 0
0.1 0.36 0
0.2 0.36 0
0.3 0.36 0
0.4 0.36 0
0.5 0.36 0
0.6 0.36 0
0.7 0.36 0
0.8 0.36 0
0.9 0.36 0
1 0.36 0
0 0.45 0
0.1 0.45 0
0.2 0.45 0
0.3 0.45 0
0.4 0.45 0
0.5 0.45 0
0.6 0.45 0
0.7 0.45 0
0.8 0.45 0
0.9 0.45 0
1 0.45 0
CELLS 100 400
3 0 1 12
3 0 12 11
3 1 2 13
3 1 13 12
3 2 3 14
3 2 14 13
3 3 4 15
3 3 15 14
3 4 5 16
3 4 16 15
3 5 6 17
3 5 17 16
3 6 7 18
3 6 18 17
3 7 8 19
3 7 19 18
3 8 9 20
3 8 20 19
3 9 10 21
3 9 21 20
3 11 12 23
3 11 23 22
3 12 13 24
3 12 24 23
3 13 14 25
3 13 25 24
3 14 15 26
3 14 26 25
3 15 16 27
3 15 27 26
3 16 17 28
3 16 28 27
3 17 18 29
3 17 29 28
3 18 19 30
3 18 30 29
3 19 20 31
3 19 31 30
3 20 21 32
3 20 32 31
3 22 23 34
3 22 34 33
3 23 24 35
3 23 35 34
3 24 25 36
3 24 36 35
3 25 26 37
3 25 37 36
3 26 27 38
3 26 38 37
3 27 28 39
3 27 39 38
3 28 29 40
3 28 40 39
3 29 30 41
3 29 41 40
3 30 31 42
3 30 42 41
3 31 32 43
3 31 43 42
3 33 34 45
3 33 45 44
3 34 35 46
3 34 46 45
3 35 36 47
3 35 47 46
3 36 37 48
3 36 48 47
3 37 38 49
3 37 49 48
3 38 39 50
3 38 50 49
3 39 40 51
3 39 51 50
3 40 41 52
3 40 52 51
3 41 42 53
3 41 53 52
3 42 43 54
3 42 54 53
3 44 45 56
3 44 56 55
3 45 46 57
3 45 57 56
3 46 47 58
3 46 58 57
3 47 48 59
3 47 59 58
3 48 49 60
3 48 60 59
3 49 50 61
3 49 61 60
3 50 51 62
3 50 62 61
3 51 52 63
3 51 63 62
3 52 53 64
3 52 64 63
3 53 54 65
3 53 65 64
CELL_TYPES 100
5
5
5
5
5
5
5
5
5
5
5
5
5
5
5
5
5
5
5
5
5
5
5
5
5
5
5
5
5
5
5
5
5
5
5
5
5
5
5
5
5
5
5
5
5
5
5
5
5
5
5
5
5
5
5
5
5
5
5
5
5
5
5
5
5
5
5
5
5
5
5
5
5
5
5
5
5
5
5
5
5
5
5
5
5
5
5
5
5
5
5
5
5
5
5
5
5
5
5
5
CELL_DATA 100
VECTORS Et double
-0.00526023 0.017268 0
-0.0134883 0.0102828 0
0.0114748 -0.0496185 0
-0.0303306 0.0163472 0
0.0265883 0.114109 0
0.248689 -0.0827479 0
0.0455034 0.191821 0
0.260671 0.0439357 0
0.0625315 0.225817 0
0.307257 0.0823204 0
0.077666 0.237387 0
0.363811 0.0810405 0
0.0908475 0.233442 0
0.417315 0.061367 0
0.101737 0.214163 0
0.460569 0.0305006 0
0.109659 0.178334 0
0.489543 -0.0103961 0
0.113747 0.126385 0
0.501698 -0.0608984 0
-0.0303622 0.0164685 0
-0.0435024 0.0113014 0
-0.017101 -0.0171576 0
-0.0457581 0.0237762 0
0.285304 0.0709303 0
0.410982 -0.03675 0
0.328172 0.113478 0
0.456138 0.0281448 0
0.402504 0.133885 0
0.551579 0.0471213 0
0.483837 0.143885 0
0.6601 0.0465496 0
0.559295 0.145914 0
0.761294 0.0376599 0
0.621293 0.137956 0
0.843532 0.0227438 0
0.664718 0.117898 0
0.90017 0.000390771 0
0.685512 0.0868496 0
0.927524 -0.0302135 0
-0.0604668 0.0107959 0
-0.0681281 0.0058802 0
-0.0437771 0.0176814 0
-0.0487208 0.0212805 0
0.42527 -0.00403411 0
0.409496 0.0171738 0
0.481406 -0.0145689 0
0.474405 -0.00472336 0
0.586117 -0.0151204 0
0.583858 -0.0131911 0
0.702992 -0.00754356 0
0.703787 -0.0113627 0
0.812328 0.00385534 0
0.814518 -0.00239386 0
0.902599 0.0134789 0
0.904537 0.00856331 0
0.966486 0.0171377 0
0.96735 0.0159332 0
0.999124 0.0145656 0
0.999866 0.0163721 0
-0.0730246 0.000360268 0
-0.0610571 -0.00624874 0
-0.0549053 0.0331629 0
-0.0328261 0.00230803 0
0.397785 -0.0851581 0
0.255909 0.0485512 0
0.449005 -0.144335 0
0.312957 -0.045273 0
0.544758 -0.164628 0
0.39403 -0.0766328 0
0.652549 -0.159285 0
0.479605 -0.071031 0
0.754112 -0.138744 0
0.557566 -0.043809 0
0.838629 -0.112159 0
0.62062 -0.00694647 0
0.899395 -0.0861564 0
0.664831 0.0298637 0
0.932448 -0.0629733 0
0.689036 0.0604579 0
-0.0460819 -0.0075439 0
-0.0145067 -0.0161186 0
-0.0399534 0.0305901 0
-0.000420099 -0.018401 0
0.224499 -0.138758 0
0.0153349 0.0531608 0
0.247825 -0.22536 0
0.0361052 -0.0751942 0
0.296501 -0.257228 0
0.056178 -0.117979 0
0.35321 -0.253229 0
0.0743341 -0.109277 0
0.407802 -0.22722 0
0.0894291 -0.0705475 0
0.454161 -0.19056 0
0.100698 -0.0176229 0
0.488486 -0.151801 0
0.107914 0.0372572 0
0.508899 -0.116099 0
0.111346 0.0858106 0
