# vtk DataFile Version 3.0
tp3485 cell-vector
ASCII
DATASET UNSTRUCTURED_GRID
POINTS 66 double
0 0 0
0.1 0 0
0.2 0 0
0.3 0 0
0.4 0 0
0.5 0 0
0.6 0 0
0.7 0 0
0.8 0 0
0.9 0 0
1 0 0
0 0.09 0
0.1 0.09 0
0.2 0.09 0
0.3 0.09 0
0.4 0.09 0
0.5 0.09 0
0.6 0.09 0
0.7 0.09 0
0.8 0.09 0
0.9 0.09 0
1 0.09 0
0 0.18 0
0.1 0.18 0
0.2 0.18 0
0.3 0.18 0
0.4 0.18 0
0.5 0.18 0
0.6 0.18 0
0.7 0.18 0
0.8 0.18 0
0.9 0.18 0
1 0.18 0
0 0.27 0
0.1 0.27 0
0.2 0.27 0
0.3 0.27 0
0.4 0.27 0
0.5 0.27 0
0.6 0.27 0
0.7 0.27 0
0.8 0.27 0
0.9 0.27 0
1 0.27 0
0 0.36 0
0.1 0.36 0
0.2 0.36 0
0.3 0.36 0
0.4 0.36 0
0.5 0.36 0
0.6 0.36 0
0.7 0.36 0
0.8 0.36 0
0.9 0.36 0
1 0.36 0
0 0.45 0
0.1 0.45 0
0.2 0.45 0
0.3 0.45 0
0.4 0.45 0
0.5 0.45 0
0.6 0.45 0
0.7 0.45 0
0.8 0.45 0
0.9 0.45 0
1 0.45 0
CELLS 100 400
3 0 1 12
3 0 12 11
3 1 2 13
3 1 13 12
3 2 3 14
3 2 14 13
3 3 4 15
3 3 15 14
3 4 5 16
3 4 16 15
3 5 6 17
3 5 17 16
3 6 7 18
3 6 18 17
3 7 8 19
3 7 19 18
3 8 9 20
3 8 20 19
3 9 10 21
3 9 21 20
3 11 12 23
3 11 23 22
3 12 13 24
3 12 24 23
3 13 14 25
3 13 25 24
3 14 15 26
3 14 26 25
3 15 16 27
3 15 27 26
3 16 17 28
3 16 28 27
3 17 18 29
3 17 29 28
3 18 19 30
3 18 30 29
3 19 20 31
3 19 31 30
3 20 21 32
3 20 32 31
3 22 23 34
3 22 34 33
3 23 24 35
3 23 35 34
3 24 25 36
3 24 36 35
3 25 26 37
3 25 37 36
3 26 27 38
3 26 38 37
3 27 28 39
3 27 39 38
3 28 29 40
3 28 40 39
3 29 30 41
3 29 41 40
3 30 31 42
3 30 42 41
3 31 32 43
3 31 43 42
3 33 34 45
3 33 45 44
3 34 35 46
3 34 46 45
3 35 36 47
3 35 47 46
3 36 37 48
3 36 48 47
3 37 38 49
3 37 49 48
3 38 39 50
3 38 50 49
3 39 40 51
3 39 51 50
3 40 41 52
3 40 52 51
3 41 42 53
3 41 53 52
3 42 43 54
3 42 54 53
3 44 45 56
3 44 56 55
3 45 46 57
3 45 57 56
3 46 47 58
3 46 58 57
3 47 48 59
3 47 59 58
3 48 49 60
3 48 60 59
3 49 50 61
3 49 61 60
3 50 51 62
3 50 62 61
3 51 52 63
3 51 63 62
3 52 53 64
3 52 64 63
3 53 54 65
3 53 65 64
CELL_TYPES 100
5
5
5
5
5
5
5
5
5
5
5
5
5
5
5
5
5
5
5
5
5
5
5
5
5
5
5
5
5
5
5
5
5
5
5
5
5
5
5
5
5
5
5
5
5
5
5
5
5
5
5
5
5
5
5
5
5
5
5
5
5
5
5
5
5
5
5
5
5
5
5
5
5
5
5
5
5
5
5
5
5
5
5
5
5
5
5
5
5
5
5
5
5
5
5
5
5
5
5
5
CELL_DATA 100
VECTORS Et double
3.79383e-14 -0.31928 0
-0.287352 -4.05165e-14 0
3.54572e-14 -0.599209 0
-0.251936 -0.31928 0
3.49027e-14 -0.817707 0
-0.196648 -0.599209 0
4.06413e-14 -0.955179 0
-0.123725 -0.817707 0
4.31917e-14 -0.99881 0
-0.0392684 -0.955179 0
5.11758e-14 -0.944632 0
0.0487605 -0.99881 0
5.86055e-14 -0.798267 0
0.131728 -0.944632 0
6.02134e-14 -0.574749 0
0.201167 -0.798267 0
6.30965e-14 -0.297852 0
0.249207 -0.574749 0
6.44821e-14 7.16467e-14 0
0.268067 -0.297852 0
-0.287352 -0.185359 0
-0.454175 -2.69741e-14 0
-0.251936 -0.357009 0
-0.406421 -0.185359 0
-0.196648 -0.494959 0
-0.320803 -0.357009 0
-0.123725 -0.584818 0
-0.204599 -0.494959 0
-0.0392684 -0.617511 0
-0.0686915 -0.584818 0
0.0487605 -0.589713 0
0.0737785 -0.617511 0
0.131728 -0.504022 0
0.20885 -0.589713 0
0.201167 -0.368546 0
0.323095 -0.504022 0
0.249207 -0.195749 0
0.404725 -0.368546 0
0.268067 5.02194e-14 0
0.444241 -0.195749 0
-0.454175 0.0110386 0
-0.444241 -4.32472e-15 0
-0.406421 0.0129226 0
-0.404725 0.0110386 0
-0.320803 0.0103762 0
-0.323095 0.0129226 0
-0.204599 0.00565221 0
-0.20885 0.0103762 0
-0.0686915 4.67888e-14 0
-0.0737785 0.00565221 0
0.0737785 -0.00565221 0
0.0686915 4.57593e-14 0
0.20885 -0.0103762 0
0.204599 -0.00565221 0
0.323095 -0.0129226 0
0.320803 -0.0103762 0
0.404725 -0.0110386 0
0.406421 -0.0129226 0
0.444241 1.3085e-14 0
0.454175 -0.0110386 0
-0.444241 0.195749 0
-0.268067 2.22612e-14 0
-0.404725 0.368546 0
-0.249207 0.195749 0
-0.323095 0.504022 0
-0.201167 0.368546 0
-0.20885 0.589713 0
-0.131728 0.504022 0
-0.0737785 0.617511 0
-0.0487605 0.589713 0
0.0686915 0.584818 0
0.0392684 0.617511 0
0.204599 0.494959 0
0.123725 0.584818 0
0.320803 0.357009 0
0.196648 0.494959 0
0.406421 0.185359 0
0.251936 0.357009 0
0.454175 -3.29344e-14 0
0.287352 0.185359 0
-0.268067 0.297852 0
2.83068e-14 3.1452e-14 0
-0.249207 0.574749 0
3.45146e-14 0.297852 0
-0.201167 0.798267 0
4.24155e-14 0.574749 0
-0.131728 0.944632 0
4.89303e-14 0.798267 0
-0.0487605 0.99881 0
5.37263e-14 0.944632 0
0.0392684 0.955179 0
5.35045e-14 0.99881 0
0.123725 0.817707 0
5.66649e-14 0.955179 0
0.196648 0.599209 0
5.71085e-14 0.817707 0
0.251936 0.31928 0
5.81342e-14 0.599209 0
0.287352 -6.17104e-14 0
5.90352e-14 0.31928 0
