# vtk DataFile Version 3.0
tp3485 cell-vector
ASCII
DATASET UNSTRUCTURED_GRID
POINTS 66 double
0 0 0
0.1 0 0
0.2 0 0
0.3 0 0
0.4 0 0
0.5 0 0
0.6 0 0
0.7 0 0
0.8 0 0
0.9 0 0
1 0 0
0 0.09 0
0.1 0.09 0
0.2 0.09 0
0.3 0.09 0
0.4 0.09 0
0.5 0.09 0
0.6 0.09 0
0.7 0.09 0
0.8 0.09 0
0.9 0.09 0
1 0.09 0
0 0.18 0
0.1 0.18 0
0.2 0.18 0
0.3 0.18 0
0.4 0.18 0
0.5 0.18 0
0.6 0.18 0
0.7 0.18 0
0.8 0.18 0
0.9 0.18 0
1 0.18 0
0 0.27 0
0.1 0.27 0
0.2 0.27 0
0.3 0.27 0
0.4 0.27 0
0.5 0.27 0
0.6 0.27 0
0.7 0.27 0
0.8 0.27 0
0.9 0.27 0
1 0.27 0
0 0.36 0
0.1 0.36 0
0.2 0.36 0
0.3 0.36 0
0.4 0.36 0
0.5 0.36 0
0.6 0.36 0
0.7 0.36 0
0.8 0.36 0
0.9 0.36 0
1 0.36 0
0 0.45 0
0.1 0.45 0
0.2 0.45 0
0.3 0.45 0
0.4 0.45 0
0.5 0.45 0
0.6 0.45 0
0.7 0.45 0
0.8 0.45 0
0.9 0.45 0
1 0.45 0
CELLS 100 400
3 0 1 12
3 0 12 11
3 1 2 13
3 1 13 12
3 2 3 14
3 2 14 13
3 3 4 15
3 3 15 14
3 4 5 16
3 4 16 15
3 5 6 17
3 5 17 16
3 6 7 18
3 6 18 17
3 7 8 19
3 7 19 18
3 8 9 20
3 8 20 19
3 9 10 21
3 9 21 20
3 11 12 23
3 11 23 22
3 12 13 24
3 12 24 23
3 13 14 25
3 13 25 24
3 14 15 26
3 14 26 25
3 15 16 27
3 15 27 26
3 16 17 28
3 16 28 27
3 17 18 29
3 17 29 28
3 18 19 30
3 18 30 29
3 19 20 31
3 19 31 30
3 20 21 32
3 20 32 31
3 22 23 34
3 22 34 33
3 23 24 35
3 23 35 34
3 24 25 36
3 24 36 35
3 25 26 37
3 25 37 36
3 26 27 38
3 26 38 37
3 27 28 39
3 27 39 38
3 28 29 40
3 28 40 39
3 29 30 41
3 29 41 40
3 30 31 42
3 30 42 41
3 31 32 43
3 31 43 42
3 33 34 45
3 33 45 44
3 34 35 46
3 34 46 45
3 35 36 47
3 35 47 46
3 36 37 48
3 36 48 47
3 37 38 49
3 37 49 48
3 38 39 50
3 38 50 49
3 39 40 51
3 39 51 50
3 40 41 52
3 40 52 51
3 41 42 53
3 41 53 52
3 42 43 54
3 42 54 53
3 44 45 56
3 44 56 55
3 45 46 57
3 45 57 56
3 46 47 58
3 46 58 57
3 47 48 59
3 47 59 58
3 48 49 60
3 48 60 59
3 49 50 61
3 49 61 60
3 50 51 62
3 50 62 61
3 51 52 63
3 51 63 62
3 52 53 64
3 52 64 63
3 53 54 65
3 53 65 64
CELL_TYPES 100
5
5
5
5
5
5
5
5
5
5
5
5
5
5
5
5
5
5
5
5
5
5
5
5
5
5
5
5
5
5
5
5
5
5
5
5
5
5
5
5
5
5
5
5
5
5
5
5
5
5
5
5
5
5
5
5
5
5
5
5
5
5
5
5
5
5
5
5
5
5
5
5
5
5
5
5
5
5
5
5
5
5
5
5
5
5
5
5
5
5
5
5
5
5
5
5
5
5
5
5
CELL_DATA 100
VECTORS Et double
-4.27135e-06 8.80521e-06 0
-9.14713e-06 4.7384e-06 0
-4.16639e-07 2.14476e-05 0
2.67721e-06 1.55491e-05 0
1.08918e-06 0.0302305 0
0.0271917 2.08698e-05 0
1.34985e-06 -0.00336009 0
-0.0302253 0.0302279 0
1.48571e-06 -0.0841439 0
-0.0726984 -0.00336311 0
1.5293e-06 0.187155 0
0.244176 -0.0841472 0
1.53127e-06 -0.243975 0
-0.38801 0.187151 0
1.52088e-06 0.217693 0
0.415509 -0.243979 0
1.51257e-06 -0.119678 0
-0.303627 0.21769 0
1.51141e-06 1.67935e-06 0
0.107719 -0.119681 0
-1.50947e-05 -8.24449e-07 0
-1.81993e-05 3.77556e-07 0
3.74512e-08 -2.30396e-05 0
-2.22712e-05 9.29131e-07 0
0.0271932 -0.0245116 0
0.00515332 -2.21531e-05 0
-0.0302231 -0.118208 0
-0.114547 -0.0245131 0
-0.072696 0.369212 0
0.365986 -0.11821 0
0.244179 -0.582408 0
-0.612275 0.36921 0
-0.388007 0.626082 0
0.699637 -0.58241 0
0.415512 -0.471155 0
-0.571998 0.62608 0
-0.303624 0.210857 0
0.310191 -0.471157 0
0.107721 1.14513e-06 0
-0.0820458 0.210855 0
-1.59637e-05 6.74251e-06 0
-5.3778e-07 -3.7679e-06 0
-1.95848e-05 1.66451e-05 0
7.41953e-07 4.04636e-07 0
0.0051546 -0.0968 0
-0.0819726 1.15571e-05 0
-0.114546 0.37491 0
0.309997 -0.096802 0
0.365988 -0.667107 0
-0.571827 0.37491 0
-0.612274 0.790546 0
0.699613 -0.667107 0
0.699638 -0.667279 0
-0.612403 0.790545 0
-0.571997 0.375144 0
0.366183 -0.667279 0
0.310192 -0.096917 0
-0.114663 0.375144 0
-0.0820448 1.66584e-07 0
0.00518061 -0.096917 0
5.96647e-06 4.89825e-06 0
1.86578e-05 -2.87208e-06 0
6.74783e-06 3.67202e-05 0
4.41424e-05 -9.66063e-08 0
-0.0819699 0.21063 0
0.10757 3.2559e-05 0
0.309997 -0.47097 0
-0.303444 0.21063 0
-0.571827 0.626017 0
0.415458 -0.470969 0
0.699612 -0.582505 0
-0.388061 0.626019 0
-0.612404 0.369392 0
0.2443 -0.582503 0
0.366182 -0.118358 0
-0.0727965 0.369394 0
-0.114664 -0.0244929 0
-0.0301894 -0.118356 0
0.00517965 -8.85462e-07 0
0.0272187 -0.0244908 0
2.07779e-05 -2.10057e-05 0
4.69319e-07 5.21465e-07 0
4.17364e-05 -5.12727e-05 0
3.41437e-06 -1.66955e-05 0
0.107568 -0.119548 0
4.65872e-06 -4.18872e-05 0
-0.303447 0.217628 0
2.48892e-06 -0.119542 0
0.415456 -0.243979 0
1.84558e-06 0.217633 0
-0.388064 0.187212 0
1.64362e-06 -0.243975 0
0.244297 -0.0842209 0
1.57911e-06 0.187215 0
-0.072799 -0.00332468 0
1.55934e-06 -0.0842175 0
-0.0301919 0.0302302 0
1.55252e-06 -0.00332134 0
0.0272162 -1.60776e-06 0
1.54749e-06 0.0302336 0
