# vtk DataFile Version 3.0
tp3485 cell-vector
ASCII
DATASET UNSTRUCTURED_GRID
POINTS 66 double
0 0 0
0.1 0 0
0.2 0 0
0.3 0 0
0.4 0 0
0.5 0 0
0.6 0 0
0.7 0 0
0.8 0 0
0.9 0 0
1 0 0
0 0.09 0
0.1 0.09 0
0.2 0.09 0
0.3 0.09 0
0.4 0.09 0
0.5 0.09 0
0.6 0.09 0
0.7 0.09 0
0.8 0.09 0
0.9 0.09 0
1 0.09 0
0 0.18 0
0.1 0.18 0
0.2 0.18 0
0.3 0.18 0
0.4 0.18 0
0.5 0.18 0
0.6 0.18 0
0.7 0.18 0
0.8 0.18 0
0.9 0.18 0
1 0.18 0
0 0.27 0
0.1 0.27 0
0.2 0.27 0
0.3 0.27 0
0.4 0.27 0
0.5 0.27 0
0.6 0.27 0
0.7 0.27 0
0.8 0.27 0
0.9 0.27 0
1 0.27 0
0 0.36 0
0.1 0.36 0
0.2 0.36 0
0.3 0.36 0
0.4 0.36 0
0.5 0.36 0
0.6 0.36 0
0.7 0.36 0
0.8 0.36 0
0.9 0.36 0
1 0.36 0
0 0.45 0
0.1 0.45 0
0.2 0.45 0
0.3 0.45 0
0.4 0.45 0
0.5 0.45 0
0.6 0.45 0
0.7 0.45 0
0.8 0.45 0
0.9 0.45 0
1 0.45 0
CELLS 100 400
3 0 1 12
3 0 12 11
3 1 2 13
3 1 13 12
3 2 3 14
3 2 14 13
3 3 4 15
3 3 15 14
3 4 5 16
3 4 16 15
3 5 6 17
3 5 17 16
3 6 7 18
3 6 18 17
3 7 8 19
3 7 19 18
3 8 9 20
3 8 20 19
3 9 10 21
3 9 21 20
3 11 12 23
3 11 23 22
3 12 13 24
3 12 24 23
3 13 14 25
3 13 25 24
3 14 15 26
3 14 26 25
3 15 16 27
3 15 27 26
3 16 17 28
3 16 28 27
3 17 18 29
3 17 29 28
3 18 19 30
3 18 30 29
3 19 20 31
3 19 31 30
3 20 21 32
3 20 32 31
3 22 23 34
3 22 34 33
3 23 24 35
3 23 35 34
3 24 25 36
3 24 36 35
3 25 26 37
3 25 37 36
3 26 27 38
3 26 38 37
3 27 28 39
3 27 39 38
3 28 29 40
3 28 40 39
3 29 30 41
3 29 41 40
3 30 31 42
3 30 42 41
3 31 32 43
3 31 43 42
3 33 34 45
3 33 45 44
3 34 35 46
3 34 46 45
3 35 36 47
3 35 47 46
3 36 37 48
3 36 48 47
3 37 38 49
3 37 49 48
3 38 39 50
3 38 50 49
3 39 40 51
3 39 51 50
3 40 41 52
3 40 52 51
3 41 42 53
3 41 53 52
3 42 43 54
3 42 54 53
3 44 45 56
3 44 56 55
3 45 46 57
3 45 57 56
3 46 47 58
3 46 58 57
3 47 48 59
3 47 59 58
3 48 49 60
3 48 60 59
3 49 50 61
3 49 61 60
3 50 51 62
3 50 62 61
3 51 52 63
3 51 63 62
3 52 53 64
3 52 64 63
3 53 54 65
3 53 65 64
CELL_TYPES 100
5
5
5
5
5
5
5
5
5
5
5
5
5
5
5
5
5
5
5
5
5
5
5
5
5
5
5
5
5
5
5
5
5
5
5
5
5
5
5
5
5
5
5
5
5
5
5
5
5
5
5
5
5
5
5
5
5
5
5
5
5
5
5
5
5
5
5
5
5
5
5
5
5
5
5
5
5
5
5
5
5
5
5
5
5
5
5
5
5
5
5
5
5
5
5
5
5
5
5
5
CELL_DATA 100
VECTORS Et double
0.136105 -0.891149 0
-0.158528 -0.206275 0
-0.114201 -0.639099 0
0.0554948 -0.998459 0
-0.187176 0.529666 0
0.166839 -0.291933 0
0.016933 0.823979 0
-0.00564281 0.802758 0
0.0530517 0.45352 0
-0.0737015 0.729234 0
0.025469 0.219642 0
-0.0408397 0.358095 0
0.0122063 0.105125 0
-0.0217487 0.173879 0
0.00592618 0.0488366 0
-0.0114638 0.0831529 0
0.00308479 0.0199421 0
-0.00630992 0.0380301 0
0.00205733 0.00228592 0
-0.00417498 0.0140056 0
0.164052 -0.870286 0
-0.117277 -0.202775 0
-0.0933218 -0.629416 0
0.07593 -0.98067 0
-0.215378 0.534367 0
0.151548 -0.292861 0
-0.0461295 0.83993 0
-0.0455211 0.799083 0
0.0490727 0.454037 0
-0.083216 0.740653 0
0.0179328 0.216706 0
-0.04755 0.35592 0
0.00632437 0.102542 0
-0.0259838 0.170025 0
0.00207431 0.0472244 0
-0.0140195 0.0802764 0
0.000587289 0.0191917 0
-0.0079023 0.0363289 0
0.000147833 0.00229418 0
-0.00535248 0.0132249 0
0.194221 -0.845094 0
-0.0957427 -0.189789 0
-0.070772 -0.594706 0
0.0904923 -0.941777 0
-0.219923 0.563959 0
0.156537 -0.26271 0
-0.0741459 0.865148 0
-0.047476 0.812799 0
0.0456845 0.455219 0
-0.0870489 0.751714 0
0.0133708 0.212655 0
-0.0489137 0.351528 0
0.00281975 0.0988347 0
-0.0264753 0.164065 0
-0.000240402 0.0448768 0
-0.0141956 0.0759214 0
-0.000925053 0.0181103 0
-0.0079659 0.0337635 0
-0.000994269 0.00231733 0
-0.00538077 0.0120645 0
0.192263 -0.823798 0
-0.115075 -0.176047 0
-0.063801 -0.56187 0
0.0808637 -0.900706 0
-0.206448 0.594398 0
0.171929 -0.227832 0
-0.0601845 0.890758 0
-0.0139287 0.831707 0
0.0504264 0.456661 0
-0.0839133 0.763703 0
0.0149482 0.208677 0
-0.0445588 0.347494 0
0.0033332 0.0951391 0
-0.0230755 0.1582 0
-7.6771e-05 0.0425276 0
-0.0119263 0.0715832 0
-0.00087238 0.0170264 0
-0.00647128 0.0311973 0
-0.000972872 0.00234176 0
-0.00424482 0.010902 0
0.154233 -0.809977 0
-0.154627 -0.171808 0
-0.0809407 -0.555679 0
0.0483226 -0.879469 0
-0.188715 0.600581 0
0.188591 -0.21966 0
-0.0180433 0.909088 0
0.041152 0.83777 0
0.0598556 0.45746 0
-0.0825477 0.77719 0
0.0214962 0.20574 0
-0.0378023 0.345673 0
0.00748085 0.0925225 0
-0.0174122 0.15435 0
0.00244127 0.0408923 0
-0.00812988 0.0686676 0
0.000705402 0.0162654 0
-0.00398432 0.0294689 0
0.000197973 0.00235347 0
-0.00233185 0.0101088 0
