# vtk DataFile Version 3.0
tp3485 cell-vector
ASCII
DATASET UNSTRUCTURED_GRID
POINTS 66 double
0 0 0
0.1 0 0
0.2 0 0
0.3 0 0
0.4 0 0
0.5 0 0
0.6 0 0
0.7 0 0
0.8 0 0
0.9 0 0
1 0 0
0 0.09 0
0.1 0.09 0
0.2 0.09 0
0.3 0.09 0
0.4 0.09 0
0.5 0.09 0
0.6 0.09 0
0.7 0.09 0
0.8 0.09 0
0.9 0.09 0
1 0.09 0
0 0.18 0
0.1 0.18 0
0.2 0.18 0
0.3 0.18 0
0.4 0.18 0
0.5 0.18 0
0.6 0.18 0
0.7 0.18 0
0.8 0.18 0
0.9 0.18 0
1 0.18 0
0 0.27 0
0.1 0.27 0
0.2 0.27 0
0.3 0.27 0
0.4 0.27 0
0.5 0.27 0
0.6 0.27 0
0.7 0.27 0
0.8 0.27 0
0.9 0.27 0
1 0.27 0
0 0.36 0
0.1 0.36 0
0.2 0.36 0
0.3 0.36 0
0.4 0.36 0
0.5 0.36 0
0.6 0.36 0
0.7 0.36 0
0.8 0.36 0
0.9 0.36 0
1 0.36 0
0 0.45 0
0.1 0.45 0
0.2 0.45 0
0.3 0.45 0
0.4 0.45 0
0.5 0.45 0
0.6 0.45 0
0.7 0.45 0
0.8 0.45 0
0.9 0.45 0
1 0.45 0
CELLS 100 400
3 0 1 12
3 0 12 11
3 1 2 13
3 1 13 12
3 2 3 14
3 2 14 13
3 3 4 15
3 3 15 14
3 4 5 16
3 4 16 15
3 5 6 17
3 5 17 16
3 6 7 18
3 6 18 17
3 7 8 19
3 7 19 18
3 8 9 20
3 8 20 19
3 9 10 21
3 9 21 20
3 11 12 23
3 11 23 22
3 12 13 24
3 12 24 23
3 13 14 25
3 13 25 24
3 14 15 26
3 14 26 25
3 15 16 27
3 15 27 26
3 16 17 28
3 16 28 27
3 17 18 29
3 17 29 28
3 18 19 30
3 18 30 29
3 19 20 31
3 19 31 30
3 20 21 32
3 20 32 31
3 22 23 34
3 22 34 33
3 23 24 35
3 23 35 34
3 24 25 36
3 24 36 35
3 25 26 37
3 25 37 36
3 26 27 38
3 26 38 37
3 27 28 39
3 27 39 38
3 28 29 40
3 28 40 39
3 29 30 41
3 29 41 40
3 30 31 42
3 30 42 41
3 31 32 43
3 31 43 42
3 33 34 45
3 33 45 44
3 34 35 46
3 34 46 45
3 35 36 47
3 35 47 46
3 36 37 48
3 36 48 47
3 37 38 49
3 37 49 48
3 38 39 50
3 38 50 49
3 39 40 51
3 39 51 50
3 40 41 52
3 40 52 51
3 41 42 53
3 41 53 52
3 42 43 54
3 42 54 53
3 44 45 56
3 44 56 55
3 45 46 57
3 45 57 56
3 46 47 58
3 46 58 57
3 47 48 59
3 47 59 58
3 48 49 60
3 48 60 59
3 49 50 61
3 49 61 60
3 50 51 62
3 50 62 61
3 51 52 63
3 51 63 62
3 52 53 64
3 52 64 63
3 53 54 65
3 53 65 64
CELL_TYPES 100
5
5
5
5
5
5
5
5
5
5
5
5
5
5
5
5
5
5
5
5
5
5
5
5
5
5
5
5
5
5
5
5
5
5
5
5
5
5
5
5
5
5
5
5
5
5
5
5
5
5
5
5
5
5
5
5
5
5
5
5
5
5
5
5
5
5
5
5
5
5
5
5
5
5
5
5
5
5
5
5
5
5
5
5
5
5
5
5
5
5
5
5
5
5
5
5
5
5
5
5
CELL_DATA 100
VECTORS Et double
0.029588 -0.0410411 0
0.0790813 -0.0315791 0
0.0190759 -0.134433 0
0.0284021 -0.0987582 0
0.0121979 0.251652 0
0.415466 -0.169249 0
0.0106859 0.565764 0
0.338283 0.22587 0
0.00842557 0.769068 0
0.228759 0.543753 0
0.00527747 0.839366 0
0.0948639 0.752698 0
0.00157818 0.772144 0
-0.0465362 0.83043 0
-0.00203693 0.582843 0
-0.174741 0.771432 0
-0.00484776 0.305982 0
-0.269064 0.589637 0
-0.00626082 -0.00695647 0
-0.311009 0.318032 0
0.125301 -0.00265036 0
0.162692 -0.01221 0
0.0645854 -0.0584691 0
0.0692124 -0.0353373 0
0.437949 0.152754 0
0.670433 -0.0840158 0
0.358742 0.330314 0
0.556363 0.131316 0
0.245544 0.446394 0
0.382965 0.311013 0
0.105976 0.487529 0
0.166578 0.431708 0
-0.0424869 0.451037 0
-0.0646447 0.479637 0
-0.177905 0.344695 0
-0.277025 0.450982 0
-0.278124 0.184933 0
-0.437681 0.351925 0
-0.323383 -0.00708441 0
-0.519873 0.197311 0
0.169565 0.0576967 0
0.188178 0.0162209 0
0.0844481 0.0679141 0
0.0840584 0.0673177 0
0.686167 0.0215236 0
0.663691 0.0588455 0
0.572601 -0.0226924 0
0.558906 0.00735737 0
0.397118 -0.058765 0
0.390287 -0.0374519 0
0.176052 -0.0800639 0
0.175904 -0.0706207 0
-0.0616212 -0.0820641 0
-0.0555913 -0.0861865 0
-0.280849 -0.0649996 0
-0.270727 -0.0809972 0
-0.447203 -0.0354418 0
-0.437609 -0.0570234 0
-0.532622 -0.00732409 0
-0.531945 -0.0225098 0
0.145746 0.117095 0
0.146044 0.0429195 0
0.0718431 0.196751 0
0.0680104 0.170253 0
0.670846 -0.0924749 0
0.405775 0.205111 0
0.569784 -0.357133 0
0.345773 -0.0991932 0
0.401098 -0.551829 0
0.244077 -0.367248 0
0.183294 -0.645679 0
0.113222 -0.560791 0
-0.0538758 -0.623516 0
-0.0289955 -0.649995 0
-0.275395 -0.490015 0
-0.162328 -0.621305 0
-0.447717 -0.270177 0
-0.268122 -0.48128 0
-0.545167 -0.00758193 0
-0.334423 -0.256684 0
0.0630509 0.152482 0
0.0519732 0.057748 0
0.0322136 0.280174 0
0.0289941 0.233993 0
0.40578 -0.145177 0
0.00234392 0.300321 0
0.352198 -0.545974 0
-0.0018923 -0.14712 0
0.252117 -0.844954 0
-0.00344858 -0.553123 0
0.11889 -0.992907 0
-0.00277916 -0.852079 0
-0.0283571 -0.965506 0
-0.000562984 -0.996086 0
-0.167688 -0.767449 0
0.00234198 -0.962582 0
-0.278707 -0.431042 0
0.00503488 -0.758245 0
-0.348029 -0.00775623 0
0.00674731 -0.417205 0
