# vtk DataFile Version 3.0
tp3485 cell-vector
ASCII
DATASET UNSTRUCTURED_GRID
POINTS 66 double
0 0 0
0.1 0 0
0.2 0 0
0.3 0 0
0.4 0 0
0.5 0 0
0.6 0 0
0.7 0 0
0.8 0 0
0.9 0 0
1 0 0
0 0.09 0
0.1 0.09 0
0.2 0.09 0
0.3 0.09 0
0.4 0.09 0
0.5 0.09 0
0.6 0.09 0
0.7 0.09 0
0.8 0.09 0
0.9 0.09 0
1 0.09 0
0 0.18 0
0.1 0.18 0
0.2 0.18 0
0.3 0.18 0
0.4 0.18 0
0.5 0.18 0
0.6 0.18 0
0.7 0.18 0
0.8 0.18 0
0.9 0.18 0
1 0.18 0
0 0.27 0
0.1 0.27 0
0.2 0.27 0
0.3 0.27 0
0.4 0.27 0
0.5 0.27 0
0.6 0.27 0
0.7 0.27 0
0.8 0.27 0
0.9 0.27 0
1 0.27 0
0 0.36 0
0.1 0.36 0
0.2 0.36 0
0.3 0.36 0
0.4 0.36 0
0.5 0.36 0
0.6 0.36 0
0.7 0.36 0
0.8 0.36 0
0.9 0.36 0
1 0.36 0
0 0.45 0
0.1 0.45 0
0.2 0.45 0
0.3 0.45 0
0.4 0.45 0
0.5 0.45 0
0.6 0.45 0
0.7 0.45 0
0.8 0.45 0
0.9 0.45 0
1 0.45 0
CELLS 100 400
3 0 1 12
3 0 12 11
3 1 2 13
3 1 13 12
3 2 3 14
3 2 14 13
3 3 4 15
3 3 15 14
3 4 5 16
3 4 16 15
3 5 6 17
3 5 17 16
3 6 7 18
3 6 18 17
3 7 8 19
3 7 19 18
3 8 9 20
3 8 20 19
3 9 10 21
3 9 21 20
3 11 12 23
3 11 23 22
3 12 13 24
3 12 24 23
3 13 14 25
3 13 25 24
3 14 15 26
3 14 26 25
3 15 16 27
3 15 27 26
3 16 17 28
3 16 28 27
3 17 18 29
3 17 29 28
3 18 19 30
3 18 30 29
3 19 20 31
3 19 31 30
3 20 21 32
3 20 32 31
3 22 23 34
3 22 34 33
3 23 24 35
3 23 35 34
3 24 25 36
3 24 36 35
3 25 26 37
3 25 37 36
3 26 27 38
3 26 38 37
3 27 28 39
3 27 39 38
3 28 29 40
3 28 40 39
3 29 30 41
3 29 41 40
3 30 31 42
3 30 42 41
3 31 32 43
3 31 43 42
3 33 34 45
3 33 45 44
3 34 35 46
3 34 46 45
3 35 36 47
3 35 47 46
3 36 37 48
3 36 48 47
3 37 38 49
3 37 49 48
3 38 39 50
3 38 50 49
3 39 40 51
3 39 51 50
3 40 41 52
3 40 52 51
3 41 42 53
3 41 53 52
3 42 43 54
3 42 54 53
3 44 45 56
3 44 56 55
3 45 46 57
3 45 57 56
3 46 47 58
3 46 58 57
3 47 48 59
3 47 59 58
3 48 49 60
3 48 60 59
3 49 50 61
3 49 61 60
3 50 51 62
3 50 62 61
3 51 52 63
3 51 63 62
3 52 53 64
3 52 64 63
3 53 54 65
3 53 65 64
CELL_TYPES 100
5
5
5
5
5
5
5
5
5
5
5
5
5
5
5
5
5
5
5
5
5
5
5
5
5
5
5
5
5
5
5
5
5
5
5
5
5
5
5
5
5
5
5
5
5
5
5
5
5
5
5
5
5
5
5
5
5
5
5
5
5
5
5
5
5
5
5
5
5
5
5
5
5
5
5
5
5
5
5
5
5
5
5
5
5
5
5
5
5
5
5
5
5
5
5
5
5
5
5
5
CELL_DATA 100
VECTORS Et double
-0.10924 0.672168 0
0.131636 0.141575 0
-0.00279667 0.926049 0
0.0299731 0.840039 0
0.104109 0.416576 0
-0.100303 0.844267 0
0.123949 -0.442043 0
-0.159838 0.155948 0
0.04049 -0.955108 0
-0.104551 -0.664362 0
-0.0780467 -0.713523 0
0.0172963 -0.953137 0
-0.0519736 -0.291859 0
0.0525719 -0.546286 0
-0.0199441 -0.107766 0
0.0184401 -0.203343 0
-0.00805414 -0.0368405 0
0.00605797 -0.0735379 0
-0.00432798 -0.00480886 0
0.00206857 -0.0223082 0
-0.106464 0.67565 0
0.132794 0.143414 0
-0.0155826 0.941102 0
0.0232244 0.846244 0
0.081082 0.43817 0
-0.115846 0.859427 0
0.0975257 -0.426125 0
-0.181214 0.173058 0
0.0157874 -0.953709 0
-0.126834 -0.656632 0
-0.100868 -0.722129 0
-0.00208511 -0.959521 0
-0.0710383 -0.294807 0
0.0434279 -0.558307 0
-0.0288402 -0.109162 0
0.0130003 -0.207699 0
-0.0127151 -0.0373979 0
0.00301748 -0.0755324 0
-0.00722259 -0.00474027 0
9.98628e-05 -0.0231118 0
-0.108386 0.685566 0
0.135001 0.145286 0
-0.0232703 0.963264 0
0.024177 0.858314 0
0.068965 0.464672 0
-0.117504 0.879359 0
0.084195 -0.408354 0
-0.185728 0.191561 0
0.00313214 -0.952161 0
-0.132581 -0.650625 0
-0.114097 -0.728435 0
-0.00614425 -0.968305 0
-0.078466 -0.300697 0
0.0422796 -0.569042 0
-0.0335241 -0.112552 0
0.0125443 -0.214949 0
-0.0154398 -0.0388531 0
0.00283382 -0.0794709 0
-0.00904482 -0.00466554 0
1.21749e-05 -0.0248012 0
-0.109361 0.695187 0
0.137674 0.147239 0
-0.0227073 0.985305 0
0.0330592 0.870423 0
0.0720405 0.491392 0
-0.104131 0.899503 0
0.0894325 -0.390101 0
-0.171697 0.210476 0
0.0085725 -0.950185 0
-0.12024 -0.644163 0
-0.111059 -0.734669 0
0.00598371 -0.976856 0
-0.0776863 -0.306675 0
0.0493515 -0.579875 0
-0.0332314 -0.115991 0
0.0171071 -0.2223 0
-0.01532 -0.040327 0
0.00551355 -0.0834523 0
-0.00898581 -0.00459094 0
0.00181683 -0.0265049 0
-0.110143 0.697796 0
0.13419 0.1491 0
-0.0153371 0.999882 0
0.0456501 0.876632 0
0.0883725 0.513416 0
-0.0806577 0.915028 0
0.11136 -0.37292 0
-0.144653 0.228509 0
0.0307624 -0.947486 0
-0.0954763 -0.635248 0
-0.092435 -0.743145 0
0.0277505 -0.98254 0
-0.0687362 -0.309895 0
0.0682893 -0.592246 0
-0.0279102 -0.117515 0
0.0259318 -0.226859 0
-0.012334 -0.040938 0
0.0101434 -0.0855391 0
-0.00703996 -0.00452084 0
0.00471551 -0.0273428 0
