# vtk DataFile Version 3.0
tp3485 cell-vector
ASCII
DATASET UNSTRUCTURED_GRID
POINTS 66 double
0 0 0
0.1 0 0
0.2 0 0
0.3 0 0
0.4 0 0
0.5 0 0
0.6 0 0
0.7 0 0
0.8 0 0
0.9 0 0
1 0 0
0 0.09 0
0.1 0.09 0
0.2 0.09 0
0.3 0.09 0
0.4 0.09 0
0.5 0.09 0
0.6 0.09 0
0.7 0.09 0
0.8 0.09 0
0.9 0.09 0
1 0.09 0
0 0.18 0
0.1 0.18 0
0.2 0.18 0
0.3 0.18 0
0.4 0.18 0
0.5 0.18 0
0.6 0.18 0
0.7 0.18 0
0.8 0.18 0
0.9 0.18 0
1 0.18 0
0 0.27 0
0.1 0.27 0
0.2 0.27 0
0.3 0.27 0
0.4 0.27 0
0.5 0.27 0
0.6 0.27 0
0.7 0.27 0
0.8 0.27 0
0.9 0.27 0
1 0.27 0
0 0.36 0
0.1 0.36 0
0.2 0.36 0
0.3 0.36 0
0.4 0.36 0
0.5 0.36 0
0.6 0.36 0
0.7 0.36 0
0.8 0.36 0
0.9 0.36 0
1 0.36 0
0 0.45 0
0.1 0.45 0
0.2 0.45 0
0.3 0.45 0
0.4 0.45 0
0.5 0.45 0
0.6 0.45 0
0.7 0.45 0
0.8 0.45 0
0.9 0.45 0
1 0.45 0
CELLS 100 400
3 0 1 12
3 0 12 11
3 1 2 13
3 1 13 12
3 2 3 14
3 2 14 13
3 3 4 15
3 3 15 14
3 4 5 16
3 4 16 15
3 5 6 17
3 5 17 16
3 6 7 18
3 6 18 17
3 7 8 19
3 7 19 18
3 8 9 20
3 8 20 19
3 9 10 21
3 9 21 20
3 11 12 23
3 11 23 22
3 12 13 24
3 12 24 23
3 13 14 25
3 13 25 24
3 14 15 26
3 14 26 25
3 15 16 27
3 15 27 26
3 16 17 28
3 16 28 27
3 17 18 29
3 17 29 28
3 18 19 30
3 18 30 29
3 19 20 31
3 19 31 30
3 20 21 32
3 20 32 31
3 22 23 34
3 22 34 33
3 23 24 35
3 23 35 34
3 24 25 36
3 24 36 35
3 25 26 37
3 25 37 36
3 26 27 38
3 26 38 37
3 27 28 39
3 27 39 38
3 28 29 40
3 28 40 39
3 29 30 41
3 29 41 40
3 30 31 42
3 30 42 41
3 31 32 43
3 31 43 42
3 33 34 45
3 33 45 44
3 34 35 46
3 34 46 45
3 35 36 47
3 35 47 46
3 36 37 48
3 36 48 47
3 37 38 49
3 37 49 48
3 38 39 50
3 38 50 49
3 39 40 51
3 39 51 50
3 40 41 52
3 40 52 51
3 41 42 53
3 41 53 52
3 42 43 54
3 42 54 53
3 44 45 56
3 44 56 55
3 45 46 57
3 45 57 56
3 46 47 58
3 46 58 57
3 47 48 59
3 47 59 58
3 48 49 60
3 48 60 59
3 49 50 61
3 49 61 60
3 50 51 62
3 50 62 61
3 51 52 63
3 51 63 62
3 52 53 64
3 52 64 63
3 53 54 65
3 53 65 64
CELL_TYPES 100
5
5
5
5
5
5
5
5
5
5
5
5
5
5
5
5
5
5
5
5
5
5
5
5
5
5
5
5
5
5
5
5
5
5
5
5
5
5
5
5
5
5
5
5
5
5
5
5
5
5
5
5
5
5
5
5
5
5
5
5
5
5
5
5
5
5
5
5
5
5
5
5
5
5
5
5
5
5
5
5
5
5
5
5
5
5
5
5
5
5
5
5
5
5
5
5
5
5
5
5
CELL_DATA 100
VECTORS Et double
-0.118468 0.857465 0
0.161141 0.207578 0
0.17812 0.201853 0
-0.133116 0.867339 0
0.111512 -0.817604 0
-0.161884 -0.192992 0
-0.00166421 -0.93443 0
0.00522876 -0.942722 0
-0.00987049 -0.880546 0
0.012533 -0.924493 0
-0.0171608 -0.776188 0
0.0198852 -0.852998 0
-0.0231756 -0.630009 0
0.0253283 -0.733387 0
-0.0277632 -0.451277 0
0.029311 -0.5749 0
-0.0308036 -0.249746 0
0.0320431 -0.387116 0
-0.0322058 -0.0357842 0
0.0334828 -0.180038 0
-0.147848 0.852087 0
0.124441 0.2069 0
0.151457 0.222204 0
-0.146673 0.867863 0
0.132556 -0.788411 0
-0.126978 -0.171024 0
0.00520194 -0.933016 0
-0.00376787 -0.921464 0
-0.00489261 -0.880803 0
0.0155899 -0.923303 0
-0.0124684 -0.775815 0
0.0237485 -0.852476 0
-0.0193791 -0.62946 0
0.0282816 -0.732402 0
-0.0249751 -0.450888 0
0.0313558 -0.573978 0
-0.0288042 -0.249608 0
0.0334617 -0.386508 0
-0.0307037 -0.0358361 0
0.0345735 -0.179758 0
-0.176264 0.839705 0
0.115245 0.194295 0
0.1377 0.199578 0
-0.15007 0.841123 0
0.166027 -0.831694 0
-0.117793 -0.192998 0
-0.00488633 -0.944773 0
-0.000823482 -0.955911 0
-0.00345565 -0.882842 0
0.0179255 -0.929996 0
-0.00970123 -0.775154 0
0.0250678 -0.852024 0
-0.0170648 -0.628369 0
0.0289638 -0.730446 0
-0.0232906 -0.450081 0
0.0317041 -0.572196 0
-0.0275992 -0.249251 0
0.0336496 -0.385316 0
-0.029766 -0.0359327 0
0.0346986 -0.179159 0
-0.164322 0.828666 0
0.144133 0.184802 0
0.142202 0.17368 0
-0.138111 0.814544 0
0.167719 -0.88771 0
-0.14855 -0.220453 0
-0.0107411 -0.959103 0
0.0108027 -0.999942 0
-0.00482517 -0.885073 0
0.0174734 -0.937529 0
-0.0101546 -0.774382 0
0.0228209 -0.851266 0
-0.0172868 -0.627192 0
0.0269001 -0.728227 0
-0.0234239 -0.449229 0
0.0301356 -0.570278 0
-0.0276883 -0.248877 0
0.0324974 -0.384062 0
-0.0298347 -0.036037 0
0.0337882 -0.178538 0
-0.126961 0.825037 0
0.170267 0.189185 0
0.158019 0.189289 0
-0.113403 0.815448 0
0.136971 -0.880712 0
-0.179152 -0.208344 0
-0.00571089 -0.961886 0
0.00738744 -0.994566 0
-0.00835894 -0.885692 0
0.0124174 -0.938172 0
-0.0139174 -0.773832 0
0.0177626 -0.850357 0
-0.0201219 -0.626493 0
0.0228869 -0.726814 0
-0.0253988 -0.44876 0
0.0272464 -0.569115 0
-0.0290711 -0.248708 0
0.0304501 -0.38334 0
-0.0309039 -0.0361081 0
0.0322471 -0.178214 0
