# vtk DataFile Version 3.0
tp3485 cell-vector
ASCII
DATASET UNSTRUCTURED_GRID
POINTS 66 double
0 0 0
0.1 0 0
0.2 0 0
0.3 0 0
0.4 0 0
0.5 0 0
0.6 0 0
0.7 0 0
0.8 0 0
0.9 0 0
1 0 0
0 0.09 0
0.1 0.09 0
0.2 0.09 0
0.3 0.09 0
0.4 0.09 0
0.5 0.09 0
0.6 0.09 0
0.7 0.09 0
0.8 0.09 0
0.9 0.09 0
1 0.09 0
0 0.18 0
0.1 0.18 0
0.2 0.18 0
0.3 0.18 0
0.4 0.18 0
0.5 0.18 0
0.6 0.18 0
0.7 0.18 0
0.8 0.18 0
0.9 0.18 0
1 0.18 0
0 0.27 0
0.1 0.27 0
0.2 0.27 0
0.3 0.27 0
0.4 0.27 0
0.5 0.27 0
0.6 0.27 0
0.7 0.27 0
0.8 0.27 0
0.9 0.27 0
1 0.27 0
0 0.36 0
0.1 0.36 0
0.2 0.36 0
0.3 0.36 0
0.4 0.36 0
0.5 0.36 0
0.6 0.36 0
0.7 0.36 0
0.8 0.36 0
0.9 0.36 0
1 0.36 0
0 0.45 0
0.1 0.45 0
0.2 0.45 0
0.3 0.45 0
0.4 0.45 0
0.5 0.45 0
0.6 0.45 0
0.7 0.45 0
0.8 0.45 0
0.9 0.45 0
1 0.45 0
CELLS 100 400
3 0 1 12
3 0 12 11
3 1 2 13
3 1 13 12
3 2 3 14
3 2 14 13
3 3 4 15
3 3 15 14
3 4 5 16
3 4 16 15
3 5 6 17
3 5 17 16
3 6 7 18
3 6 18 17
3 7 8 19
3 7 19 18
3 8 9 20
3 8 20 19
3 9 10 21
3 9 21 20
3 11 12 23
3 11 23 22
3 12 13 24
3 12 24 23
3 13 14 25
3 13 25 24
3 14 15 26
3 14 26 25
3 15 16 27
3 15 27 26
3 16 17 28
3 16 28 27
3 17 18 29
3 17 29 28
3 18 19 30
3 18 30 29
3 19 20 31
3 19 31 30
3 20 21 32
3 20 32 31
3 22 23 34
3 22 34 33
3 23 24 35
3 23 35 34
3 24 25 36
3 24 36 35
3 25 26 37
3 25 37 36
3 26 27 38
3 26 38 37
3 27 28 39
3 27 39 38
3 28 29 40
3 28 40 39
3 29 30 41
3 29 41 40
3 30 31 42
3 30 42 41
3 31 32 43
3 31 43 42
3 33 34 45
3 33 45 44
3 34 35 46
3 34 46 45
3 35 36 47
3 35 47 46
3 36 37 48
3 36 48 47
3 37 38 49
3 37 49 48
3 38 39 50
3 38 50 49
3 39 40 51
3 39 51 50
3 40 41 52
3 40 52 51
3 41 42 53
3 41 53 52
3 42 43 54
3 42 54 53
3 44 45 56
3 44 56 55
3 45 46 57
3 45 57 56
3 46 47 58
3 46 58 57
3 47 48 59
3 47 59 58
3 48 49 60
3 48 60 59
3 49 50 61
3 49 61 60
3 50 51 62
3 50 62 61
3 51 52 63
3 51 63 62
3 52 53 64
3 52 64 63
3 53 54 65
3 53 65 64
CELL_TYPES 100
5
5
5
5
5
5
5
5
5
5
5
5
5
5
5
5
5
5
5
5
5
5
5
5
5
5
5
5
5
5
5
5
5
5
5
5
5
5
5
5
5
5
5
5
5
5
5
5
5
5
5
5
5
5
5
5
5
5
5
5
5
5
5
5
5
5
5
5
5
5
5
5
5
5
5
5
5
5
5
5
5
5
5
5
5
5
5
5
5
5
5
5
5
5
5
5
5
5
5
5
CELL_DATA 100
VECTORS Et double
0.00151001 -0.00685395 0
0.000165576 -0.00184117 0
1.00776e-05 -0.0121507 0
-0.002114 -0.00915556 0
-0.00042735 -0.40589 0
-0.35611 -0.0116616 0
-0.000309742 -0.726012 0
-0.289806 -0.405054 0
-0.000227538 -0.932417 0
-0.187006 -0.725403 0
-0.000166672 -0.996717 0
-0.0587819 -0.931969 0
-0.000120095 -0.910541 0
0.0768979 -0.996391 0
-8.52e-05 -0.688233 0
0.199607 -0.910307 0
-6.19403e-05 -0.366109 0
0.289575 -0.688067 0
-5.11954e-05 -5.68837e-05 0
0.329184 -0.365985 0
0.0029134 -0.0040801 0
0.00222484 -0.00105154 0
-0.00148588 -0.00759576 0
-0.00274305 -0.00570844 0
-0.356847 -0.235849 0
-0.562965 -0.00740839 0
-0.290345 -0.43381 0
-0.46937 -0.235331 0
-0.187404 -0.567832 0
-0.308674 -0.433419 0
-0.0590755 -0.61651 0
-0.10337 -0.56754 0
0.0766867 -0.572048 0
0.116351 -0.616296 0
0.19946 -0.44069 0
0.31744 -0.571899 0
0.289472 -0.241131 0
0.468916 -0.440591 0
0.329105 -3.36072e-05 0
0.545982 -0.241065 0
0.00341411 0.000204311 0
0.00354745 0.000163018 0
-0.00228568 -0.000161135 0
-0.00224222 -9.15947e-05 0
-0.56324 0.0136543 0
-0.550644 -0.000319231 0
-0.469591 0.0143678 0
-0.468974 0.0136676 0
-0.308849 0.00851728 0
-0.314172 0.0144022 0
-0.103503 -9.63467e-05 0
-0.111315 0.00855534 0
0.116259 -0.00871731 0
0.10846 -6.80364e-05 0
0.317384 -0.0145841 0
0.312098 -0.00870749 0
0.468888 -0.0138879 0
0.469544 -0.0145951 0
0.545969 9.02072e-06 0
0.55853 -0.0139149 0
0.00267251 0.00437357 0
0.00345063 0.00134993 0
-0.00217616 0.00734104 0
-0.000922111 0.00558886 0
-0.550372 0.248662 0
-0.332292 0.00694024 0
-0.468806 0.44667 0
-0.289814 0.248186 0
-0.314069 0.575367 0
-0.197714 0.446351 0
-0.111247 0.616544 0
-0.0738231 0.575149 0
0.108516 0.564532 0
0.0619789 0.616385 0
0.312156 0.427722 0
0.189258 0.564401 0
0.469609 0.228051 0
0.290125 0.4276 0
0.5586 5.47864e-05 0
0.353622 0.22793 0
0.000793526 0.00682126 0
0.00183016 0.00203351 0
-0.00132067 0.0120356 0
0.00063236 0.00912629 0
-0.331598 0.3786 0
-0.000449445 0.011573 0
-0.289336 0.698316 0
-0.000317769 0.377829 0
-0.197384 0.916397 0
-0.000222065 0.697778 0
-0.0735894 0.997289 0
-0.00015763 0.916019 0
0.0621572 0.927574 0
-0.000118002 0.997012 0
0.189409 0.71659 0
-9.63411e-05 0.927354 0
0.290265 0.393602 0
-8.61921e-05 0.716399 0
0.35376 8.61561e-05 0
-8.23464e-05 0.393422 0
