# vtk DataFile Version 3.0
tp3485 cell-vector
ASCII
DATASET UNSTRUCTURED_GRID
POINTS 66 double
0 0 0
0.1 0 0
0.2 0 0
0.3 0 0
0.4 0 0
0.5 0 0
0.6 0 0
0.7 0 0
0.8 0 0
0.9 0 0
1 0 0
0 0.09 0
0.1 0.09 0
0.2 0.09 0
0.3 0.09 0
0.4 0.09 0
0.5 0.09 0
0.6 0.09 0
0.7 0.09 0
0.8 0.09 0
0.9 0.09 0
1 0.09 0
0 0.18 0
0.1 0.18 0
0.2 0.18 0
0.3 0.18 0
0.4 0.18 0
0.5 0.18 0
0.6 0.18 0
0.7 0.18 0
0.8 0.18 0
0.9 0.18 0
1 0.18 0
0 0.27 0
0.1 0.27 0
0.2 0.27 0
0.3 0.27 0
0.4 0.27 0
0.5 0.27 0
0.6 0.27 0
0.7 0.27 0
0.8 0.27 0
0.9 0.27 0
1 0.27 0
0 0.36 0
0.1 0.36 0
0.2 0.36 0
0.3 0.36 0
0.4 0.36 0
0.5 0.36 0
0.6 0.36 0
0.7 0.36 0
0.8 0.36 0
0.9 0.36 0
1 0.36 0
0 0.45 0
0.1 0.45 0
0.2 0.45 0
0.3 0.45 0
0.4 0.45 0
0.5 0.45 0
0.6 0.45 0
0.7 0.45 0
0.8 0.45 0
0.9 0.45 0
1 0.45 0
CELLS 100 400
3 0 1 12
3 0 12 11
3 1 2 13
3 1 13 12
3 2 3 14
3 2 14 13
3 3 4 15
3 3 15 14
3 4 5 16
3 4 16 15
3 5 6 17
3 5 17 16
3 6 7 18
3 6 18 17
3 7 8 19
3 7 19 18
3 8 9 20
3 8 20 19
3 9 10 21
3 9 21 20
3 11 12 23
3 11 23 22
3 12 13 24
3 12 24 23
3 13 14 25
3 13 25 24
3 14 15 26
3 14 26 25
3 15 16 27
3 15 27 26
3 16 17 28
3 16 28 27
3 17 18 29
3 17 29 28
3 18 19 30
3 18 30 29
3 19 20 31
3 19 31 30
3 20 21 32
3 20 32 31
3 22 23 34
3 22 34 33
3 23 24 35
3 23 35 34
3 24 25 36
3 24 36 35
3 25 26 37
3 25 37 36
3 26 27 38
3 26 38 37
3 27 28 39
3 27 39 38
3 28 29 40
3 28 40 39
3 29 30 41
3 29 41 40
3 30 31 42
3 30 42 41
3 31 32 43
3 31 43 42
3 33 34 45
3 33 45 44
3 34 35 46
3 34 46 45
3 35 36 47
3 35 47 46
3 36 37 48
3 36 48 47
3 37 38 49
3 37 49 48
3 38 39 50
3 38 50 49
3 39 40 51
3 39 51 50
3 40 41 52
3 40 52 51
3 41 42 53
3 41 53 52
3 42 43 54
3 42 54 53
3 44 45 56
3 44 56 55
3 45 46 57
3 45 57 56
3 46 47 58
3 46 58 57
3 47 48 59
3 47 59 58
3 48 49 60
3 48 60 59
3 49 50 61
3 49 61 60
3 50 51 62
3 50 62 61
3 51 52 63
3 51 63 62
3 52 53 64
3 52 64 63
3 53 54 65
3 53 65 64
CELL_TYPES 100
5
5
5
5
5
5
5
5
5
5
5
5
5
5
5
5
5
5
5
5
5
5
5
5
5
5
5
5
5
5
5
5
5
5
5
5
5
5
5
5
5
5
5
5
5
5
5
5
5
5
5
5
5
5
5
5
5
5
5
5
5
5
5
5
5
5
5
5
5
5
5
5
5
5
5
5
5
5
5
5
5
5
5
5
5
5
5
5
5
5
5
5
5
5
5
5
5
5
5
5
CELL_DATA 100
VECTORS Et double
-0.0936453 -0.120561 0
-0.440289 0.0802744 0
-0.0928982 -0.213875 0
-0.506214 0.0628172 0
-0.0957332 -0.554292 0
-0.730855 -0.0328131 0
-0.0381019 -0.0991136 0
0.134731 -0.390704 0
-0.0101138 -0.00747568 0
-0.00347865 -0.0414319 0
-0.00245643 0.00321176 0
-0.012277 0.00757796 0
-0.000465668 0.00193308 0
-0.00594452 0.0067222 0
1.11129e-10 0.000568719 0
-0.00178791 0.00250289 0
8.45439e-05 0.000111871 0
-8.32815e-05 0.0004805 0
9.13341e-05 0.000101482 0
0.000441029 -8.38259e-05 0
-0.505177 0.0592365 0
-0.360969 -0.0464092 0
-0.565642 0.120444 0
-0.401952 0.00146031 0
-0.782245 0.230027 0
-0.545765 0.0475806 0
0.0910795 0.0486774 0
0.0244926 0.170332 0
-0.0143319 0.00737722 0
-0.018944 0.0278752 0
-0.0145162 -0.000414815 0
-0.010391 0.000209897 0
-0.00612585 -0.00118081 0
-0.00272821 -0.00305966 0
-0.00158566 -0.000776906 0
0.00042606 -0.00224772 0
0.000133584 -0.000311812 0
0.0013138 -0.00126222 0
0.000631979 0.000110408 0
0.00145882 -0.000581227 0
-0.227309 0.167651 0
0.200575 -0.102837 0
-0.258698 0.318979 0
0.259763 -0.0409837 0
-0.379613 0.743428 0
0.424272 0.0923368 0
0.105999 0.140297 0
-0.123109 0.532427 0
0.0054989 0.0145808 0
-0.00307995 0.0639363 0
-0.00290411 -0.00314792 0
0.0115154 -0.00761137 0
-0.000344608 -0.00289143 0
0.00876898 -0.00963623 0
0.00124128 -0.00129484 0
0.00532703 -0.00481961 0
0.0016362 -0.000400037 0
0.00328246 -0.00189626 0
0.00163571 7.98687e-05 0
0.00240089 -0.000620267 0
0.341474 0.0411417 0
0.460898 -0.0189176 0
0.403701 0.0758785 0
0.560692 -0.0288666 0
0.581057 0.231769 0
0.841475 0.0110146 0
-0.0242194 0.0400808 0
-0.099429 0.161101 0
0.0249363 0.00305265 0
0.0242231 0.013191 0
0.0193637 -0.000516313 0
0.0241038 -0.00375402 0
0.0109303 0.000102706 0
0.0131071 -0.0020406 0
0.00591043 0.000435674 0
0.00636462 -0.000133115 0
0.00343971 0.000306513 0
0.00321935 0.000463536 0
0.00244905 -1.66894e-05 0
0.00204012 0.000367852 0
0.421218 -0.157662 0
0.0742056 0.0824506 0
0.506893 -0.303361 0
0.0835315 -0.00184219 0
0.766405 -0.642358 0
0.102485 -0.11342 0
-0.123059 -0.122432 0
0.0745584 -0.464638 0
0.0157313 -0.0122852 0
0.0226303 -0.0574987 0
0.0208624 0.00459327 0
0.00708769 0.0079932 0
0.011795 0.00462614 0
0.00231803 0.0111989 0
0.00580444 0.00273996 0
0.000802531 0.00689941 0
0.00296041 0.0011743 0
0.000302727 0.00358284 0
0.001885 -0.00011922 0
0.000142087 0.00154026 0
