# vtk DataFile Version 3.0
tp3485 cell-vector
ASCII
DATASET UNSTRUCTURED_GRID
POINTS 66 double
0 0 0
0.1 0 0
0.2 0 0
0.3 0 0
0.4 0 0
0.5 0 0
0.6 0 0
0.7 0 0
0.8 0 0
0.9 0 0
1 0 0
0 0.09 0
0.1 0.09 0
0.2 0.09 0
0.3 0.09 0
0.4 0.09 0
0.5 0.09 0
0.6 0.09 0
0.7 0.09 0
0.8 0.09 0
0.9 0.09 0
1 0.09 0
0 0.18 0
0.1 0.18 0
0.2 0.18 0
0.3 0.18 0
0.4 0.18 0
0.5 0.18 0
0.6 0.18 0
0.7 0.18 0
0.8 0.18 0
0.9 0.18 0
1 0.18 0
0 0.27 0
0.1 0.27 0
0.2 0.27 0
0.3 0.27 0
0.4 0.27 0
0.5 0.27 0
0.6 0.27 0
0.7 0.27 0
0.8 0.27 0
0.9 0.27 0
1 0.27 0
0 0.36 0
0.1 0.36 0
0.2 0.36 0
0.3 0.36 0
0.4 0.36 0
0.5 0.36 0
0.6 0.36 0
0.7 0.36 0
0.8 0.36 0
0.9 0.36 0
1 0.36 0
0 0.45 0
0.1 0.45 0
0.2 0.45 0
0.3 0.45 0
0.4 0.45 0
0.5 0.45 0
0.6 0.45 0
0.7 0.45 0
0.8 0.45 0
0.9 0.45 0
1 0.45 0
CELLS 100 400
3 0 1 12
3 0 12 11
3 1 2 13
3 1 13 12
3 2 3 14
3 2 14 13
3 3 4 15
3 3 15 14
3 4 5 16
3 4 16 15
3 5 6 17
3 5 17 16
3 6 7 18
3 6 18 17
3 7 8 19
3 7 19 18
3 8 9 20
3 8 20 19
3 9 10 21
3 9 21 20
3 11 12 23
3 11 23 22
3 12 13 24
3 12 24 23
3 13 14 25
3 13 25 24
3 14 15 26
3 14 26 25
3 15 16 27
3 15 27 26
3 16 17 28
3 16 28 27
3 17 18 29
3 17 29 28
3 18 19 30
3 18 30 29
3 19 20 31
3 19 31 30
3 20 21 32
3 20 32 31
3 22 23 34
3 22 34 33
3 23 24 35
3 23 35 34
3 24 25 36
3 24 36 35
3 25 26 37
3 25 37 36
3 26 27 38
3 26 38 37
3 27 28 39
3 27 39 38
3 28 29 40
3 28 40 39
3 29 30 41
3 29 41 40
3 30 31 42
3 30 42 41
3 31 32 43
3 31 43 42
3 33 34 45
3 33 45 44
3 34 35 46
3 34 46 45
3 35 36 47
3 35 47 46
3 36 37 48
3 36 48 47
3 37 38 49
3 37 49 48
3 38 39 50
3 38 50 49
3 39 40 51
3 39 51 50
3 40 41 52
3 40 52 51
3 41 42 53
3 41 53 52
3 42 43 54
3 42 54 53
3 44 45 56
3 44 56 55
3 45 46 57
3 45 57 56
3 46 47 58
3 46 58 57
3 47 48 59
3 47 59 58
3 48 49 60
3 48 60 59
3 49 50 61
3 49 61 60
3 50 51 62
3 50 62 61
3 51 52 63
3 51 63 62
3 52 53 64
3 52 64 63
3 53 54 65
3 53 65 64
CELL_TYPES 100
5
5
5
5
5
5
5
5
5
5
5
5
5
5
5
5
5
5
5
5
5
5
5
5
5
5
5
5
5
5
5
5
5
5
5
5
5
5
5
5
5
5
5
5
5
5
5
5
5
5
5
5
5
5
5
5
5
5
5
5
5
5
5
5
5
5
5
5
5
5
5
5
5
5
5
5
5
5
5
5
5
5
5
5
5
5
5
5
5
5
5
5
5
5
5
5
5
5
5
5
CELL_DATA 100
VECTORS Et double
0.189116 -0.326236 0
0.430922 -0.19239 0
-0.0377505 -0.787727 0
-0.2005 -0.592601 0
-0.0506103 -0.208451 0
0.25625 -0.675711 0
-0.0184634 -0.0378305 0
0.0204858 -0.12692 0
-0.00721487 -0.000778201 0
-0.0170277 -0.00760358 0
-0.00312228 0.00486511 0
-0.0157592 0.0113376 0
-0.00153602 0.00406392 0
-0.0104331 0.0102886 0
-0.000875136 0.0023974 0
-0.00671343 0.00684131 0
-0.000590958 0.000864333 0
-0.00467172 0.00405583 0
-0.000489619 -0.000544021 0
-0.00379076 0.00205043 0
0.59502 0.148207 0
0.475696 0.135365 0
-0.13871 0.140153 0
-0.166425 0.170816 0
0.191236 0.0275431 0
0.146151 0.101602 0
-0.00389274 0.00415223 0
-0.0140988 0.0217065 0
-0.0270613 0.000887529 0
-0.0294434 0.00401981 0
-0.0203953 0.00105398 0
-0.0222699 0.00220442 0
-0.0128593 0.0010982 0
-0.0149879 0.00241397 0
-0.00815534 0.00075771 0
-0.0102323 0.0021868 0
-0.00565806 0.000236209 0
-0.00752712 0.0015961 0
-0.00459031 -0.000358916 0
-0.00631095 0.000920034 0
0.158248 0.440052 0
-0.14091 0.277548 0
-0.127378 0.991854 0
0.114236 0.718368 0
0.219579 0.2327 0
-0.193571 0.841564 0
0.00894774 0.0384328 0
-0.0456219 0.146958 0
-0.0227554 0.00156946 0
-0.017444 0.0110032 0
-0.0206548 -0.00283398 0
-0.0123092 -0.00718589 0
-0.0148418 -0.0020644 0
-0.0102312 -0.00561292 0
-0.010459 -0.00111777 0
-0.00839609 -0.00292464 0
-0.0078211 -0.000500231 0
-0.00693835 -0.00135693 0
-0.00660291 -5.04379e-05 0
-0.00615134 -0.000541588 0
-0.503259 0.122873 0
-0.570421 0.036218 0
0.0801045 0.47703 0
0.259024 0.274602 0
-0.075114 0.117098 0
-0.287697 0.422279 0
-0.00704525 0.0194321 0
-0.0303309 0.0688564 0
-0.00441312 -0.000287117 0
0.00135132 0.00240927 0
-0.00764452 -0.00329113 0
-0.000623652 -0.00704759 0
-0.00841147 -0.00290157 0
-0.0034521 -0.00636096 0
-0.00760026 -0.00191561 0
-0.00423735 -0.00448869 0
-0.0065322 -0.000853568 0
-0.00407409 -0.00284365 0
-0.00588204 0.000238188 0
-0.00382197 -0.00148681 0
-0.476498 -0.384939 0
-0.232141 -0.257935 0
0.189096 -0.82012 0
-0.0406582 -0.570692 0
-0.290637 -0.167767 0
0.0730238 -0.687952 0
-0.0284448 -0.0245921 0
0.0203126 -0.110218 0
0.00404432 -0.00260297 0
0.0048435 -0.0103289 0
0.00163535 -0.0015205 0
0.000553649 -0.000531488 0
-0.00181269 -0.00210445 0
-0.000452173 -0.00242521 0
-0.0030964 -0.00181781 0
-0.000560011 -0.00341521 0
-0.00325548 -0.000865609 0
-0.000477159 -0.00294657 0
-0.00315895 0.000410905 0
-0.000403992 -0.00179037 0
