# vtk DataFile Version 3.0
tp3485 scalar+vector
ASCII
DATASET UNSTRUCTURED_GRID
POINTS 231 double
0 0 0
0.1 0 0
0.2 0 0
0.3 0 0
0.4 0 0
0.5 0 0
0.6 0 0
0.7 0 0
0.8 0 0
0.9 0 0
1 0 0
0 0.025 0
0.1 0.025 0
0.2 0.025 0
0.3 0.025 0
0.4 0.025 0
0.5 0.025 0
0.6 0.025 0
0.7 0.025 0
0.8 0.025 0
0.9 0.025 0
1 0.025 0
0 0.05 0
0.1 0.05 0
0.2 0.05 0
0.3 0.05 0
0.4 0.05 0
0.5 0.05 0
0.6 0.05 0
0.7 0.05 0
0.8 0.05 0
0.9 0.05 0
1 0.05 0
0 0.075 0
0.1 0.075 0
0.2 0.075 0
0.3 0.075 0
0.4 0.075 0
0.5 0.075 0
0.6 0.075 0
0.7 0.075 0
0.8 0.075 0
0.9 0.075 0
1 0.075 0
0 0.1 0
0.1 0.1 0
0.2 0.1 0
0.3 0.1 0
0.4 0.1 0
0.5 0.1 0
0.6 0.1 0
0.7 0.1 0
0.8 0.1 0
0.9 0.1 0
1 0.1 0
0 0.125 0
0.1 0.125 0
0.2 0.125 0
0.3 0.125 0
0.4 0.125 0
0.5 0.125 0
0.6 0.125 0
0.7 0.125 0
0.8 0.125 0
0.9 0.125 0
1 0.125 0
0 0.15 0
0.1 0.15 0
0.2 0.15 0
0.3 0.15 0
0.4 0.15 0
0.5 0.15 0
0.6 0.15 0
0.7 0.15 0
0.8 0.15 0
0.9 0.15 0
1 0.15 0
0 0.175 0
0.1 0.175 0
0.2 0.175 0
0.3 0.175 0
0.4 0.175 0
0.5 0.175 0
0.6 0.175 0
0.7 0.175 0
0.8 0.175 0
0.9 0.175 0
1 0.175 0
0 0.2 0
0.1 0.2 0
0.2 0.2 0
0.3 0.2 0
0.4 0.2 0
0.5 0.2 0
0.6 0.2 0
0.7 0.2 0
0.8 0.2 0
0.9 0.2 0
1 0.2 0
0 0.225 0
0.1 0.225 0
0.2 0.225 0
0.3 0.225 0
0.4 0.225 0
0.5 0.225 0
0.6 0.225 0
0.7 0.225 0
0.8 0.225 0
0.9 0.225 0
1 0.225 0
0 0.25 0
0.1 0.25 0
0.2 0.25 0
0.3 0.25 0
0.4 0.25 0
0.5 0.25 0
0.6 0.25 0
0.7 0.25 0
0.8 0.25 0
0.9 0.25 0
1 0.25 0
0 0.275 0
0.1 0.275 0
0.2 0.275 0
0.3 0.275 0
0.4 0.275 0
0.5 0.275 0
0.6 0.275 0
0.7 0.275 0
0.8 0.275 0
0.9 0.275 0
1 0.275 0
0 0.3 0
0.1 0.3 0
0.2 0.3 0
0.3 0.3 0
0.4 0.3 0
0.5 0.3 0
0.6 0.3 0
0.7 0.3 0
0.8 0.3 0
0.9 0.3 0
1 0.3 0
0 0.325 0
0.1 0.325 0
0.2 0.325 0
0.3 0.325 0
0.4 0.325 0
0.5 0.325 0
0.6 0.325 0
0.7 0.325 0
0.8 0.325 0
0.9 0.325 0
1 0.325 0
0 0.35 0
0.1 0.35 0
0.2 0.35 0
0.3 0.35 0
0.4 0.35 0
0.5 0.35 0
0.6 0.35 0
0.7 0.35 0
0.8 0.35 0
0.9 0.35 0
1 0.35 0
0 0.375 0
0.1 0.375 0
0.2 0.375 0
0.3 0.375 0
0.4 0.375 0
0.5 0.375 0
0.6 0.375 0
0.7 0.375 0
0.8 0.375 0
0.9 0.375 0
1 0.375 0
0 0.4 0
0.1 0.4 0
0.2 0.4 0
0.3 0.4 0
0.4 0.4 0
0.5 0.4 0
0.6 0.4 0
0.7 0.4 0
0.8 0.4 0
0.9 0.4 0
1 0.4 0
0 0.425 0
0.1 0.425 0
0.2 0.425 0
0.3 0.425 0
0.4 0.425 0
0.5 0.425 0
0.6 0.425 0
0.7 0.425 0
0.8 0.425 0
0.9 0.425 0
1 0.425 0
0 0.45 0
0.1 0.45 0
0.2 0.45 0
0.3 0.45 0
0.4 0.45 0
0.5 0.45 0
0.6 0.45 0
0.7 0.45 0
0.8 0.45 0
0.9 0.45 0
1 0.45 0
0 0.475 0
0.1 0.475 0
0.2 0.475 0
0.3 0.475 0
0.4 0.475 0
0.5 0.475 0
0.6 0.475 0
0.7 0.475 0
0.8 0.475 0
0.9 0.475 0
1 0.475 0
0 0.5 0
0.1 0.5 0
0.2 0.5 0
0.3 0.5 0
0.4 0.5 0
0.5 0.5 0
0.6 0.5 0
0.7 0.5 0
0.8 0.5 0
0.9 0.5 0
1 0.5 0
CELLS 400 1600
3 0 1 12
3 0 12 11
3 1 2 13
3 1 13 12
3 2 3 14
3 2 14 13
3 3 4 15
3 3 15 14
3 4 5 16
3 4 16 15
3 5 6 17
3 5 17 16
3 6 7 18
3 6 18 17
3 7 8 19
3 7 19 18
3 8 9 20
3 8 20 19
3 9 10 21
3 9 21 20
3 11 12 23
3 11 23 22
3 12 13 24
3 12 24 23
3 13 14 25
3 13 25 24
3 14 15 26
3 14 26 25
3 15 16 27
3 15 27 26
3 16 17 28
3 16 28 27
3 17 18 29
3 17 29 28
3 18 19 30
3 18 30 29
3 19 20 31
3 19 31 30
3 20 21 32
3 20 32 31
3 22 23 34
3 22 34 33
3 23 24 35
3 23 35 34
3 24 25 36
3 24 36 35
3 25 26 37
3 25 37 36
3 26 27 38
3 26 38 37
3 27 28 39
3 27 39 38
3 28 29 40
3 28 40 39
3 29 30 41
3 29 41 40
3 30 31 42
3 30 42 41
3 31 32 43
3 31 43 42
3 33 34 45
3 33 45 44
3 34 35 46
3 34 46 45
3 35 36 47
3 35 47 46
3 36 37 48
3 36 48 47
3 37 38 49
3 37 49 48
3 38 39 50
3 38 50 49
3 39 40 51
3 39 51 50
3 40 41 52
3 40 52 51
3 41 42 53
3 41 53 52
3 42 43 54
3 42 54 53
3 44 45 56
3 44 56 55
3 45 46 57
3 45 57 56
3 46 47 58
3 46 58 57
3 47 48 59
3 47 59 58
3 48 49 60
3 48 60 59
3 49 50 61
3 49 61 60
3 50 51 62
3 50 62 61
3 51 52 63
3 51 63 62
3 52 53 64
3 52 64 63
3 53 54 65
3 53 65 64
3 55 56 67
3 55 67 66
3 56 57 68
3 56 68 67
3 57 58 69
3 57 69 68
3 58 59 70
3 58 70 69
3 59 60 71
3 59 71 70
3 60 61 72
3 60 72 71
3 61 62 73
3 61 73 72
3 62 63 74
3 62 74 73
3 63 64 75
3 63 75 74
3 64 65 76
3 64 76 75
3 66 67 78
3 66 78 77
3 67 68 79
3 67 79 78
3 68 69 80
3 68 80 79
3 69 70 81
3 69 81 80
3 70 71 82
3 70 82 81
3 71 72 83
3 71 83 82
3 72 73 84
3 72 84 83
3 73 74 85
3 73 85 84
3 74 75 86
3 74 86 85
3 75 76 87
3 75 87 86
3 77 78 89
3 77 89 88
3 78 79 90
3 78 90 89
3 79 80 91
3 79 91 90
3 80 81 92
3 80 92 91
3 81 82 93
3 81 93 92
3 82 83 94
3 82 94 93
3 83 84 95
3 83 95 94
3 84 85 96
3 84 96 95
3 85 86 97
3 85 97 96
3 86 87 98
3 86 98 97
3 88 89 100
3 88 100 99
3 89 90 101
3 89 101 100
3 90 91 102
3 90 102 101
3 91 92 103
3 91 103 102
3 92 93 104
3 92 104 103
3 93 94 105
3 93 105 104
3 94 95 106
3 94 106 105
3 95 96 107
3 95 107 106
3 96 97 108
3 96 108 107
3 97 98 109
3 97 109 108
3 99 100 111
3 99 111 110
3 100 101 112
3 100 112 111
3 101 102 113
3 101 113 112
3 102 103 114
3 102 114 113
3 103 104 115
3 103 115 114
3 104 105 116
3 104 116 115
3 105 106 117
3 105 117 116
3 106 107 118
3 106 118 117
3 107 108 119
3 107 119 118
3 108 109 120
3 108 120 119
3 110 111 122
3 110 122 121
3 111 112 123
3 111 123 122
3 112 113 124
3 112 124 123
3 113 114 125
3 113 125 124
3 114 115 126
3 114 126 125
3 115 116 127
3 115 127 126
3 116 117 128
3 116 128 127
3 117 118 129
3 117 129 128
3 118 119 130
3 118 130 129
3 119 120 131
3 119 131 130
3 121 122 133
3 121 133 132
3 122 123 134
3 122 134 133
3 123 124 135
3 123 135 134
3 124 125 136
3 124 136 135
3 125 126 137
3 125 137 136
3 126 127 138
3 126 138 137
3 127 128 139
3 127 139 138
3 128 129 140
3 128 140 139
3 129 130 141
3 129 141 140
3 130 131 142
3 130 142 141
3 132 133 144
3 132 144 143
3 133 134 145
3 133 145 144
3 134 135 146
3 134 146 145
3 135 136 147
3 135 147 146
3 136 137 148
3 136 148 147
3 137 138 149
3 137 149 148
3 138 139 150
3 138 150 149
3 139 140 151
3 139 151 150
3 140 141 152
3 140 152 151
3 141 142 153
3 141 153 152
3 143 144 155
3 143 155 154
3 144 145 156
3 144 156 155
3 145 146 157
3 145 157 156
3 146 147 158
3 146 158 157
3 147 148 159
3 147 159 158
3 148 149 160
3 148 160 159
3 149 150 161
3 149 161 160
3 150 151 162
3 150 162 161
3 151 152 163
3 151 163 162
3 152 153 164
3 152 164 163
3 154 155 166
3 154 166 165
3 155 156 167
3 155 167 166
3 156 157 168
3 156 168 167
3 157 158 169
3 157 169 168
3 158 159 170
3 158 170 169
3 159 160 171
3 159 171 170
3 160 161 172
3 160 172 171
3 161 162 173
3 161 173 172
3 162 163 174
3 162 174 173
3 163 164 175
3 163 175 174
3 165 166 177
3 165 177 176
3 166 167 178
3 166 178 177
3 167 168 179
3 167 179 178
3 168 169 180
3 168 180 179
3 169 170 181
3 169 181 180
3 170 171 182
3 170 182 181
3 171 172 183
3 171 183 182
3 172 173 184
3 172 184 183
3 173 174 185
3 173 185 184
3 174 175 186
3 174 186 185
3 176 177 188
3 176 188 187
3 177 178 189
3 177 189 188
3 178 179 190
3 178 190 189
3 179 180 191
3 179 191 190
3 180 181 192
3 180 192 191
3 181 182 193
3 181 193 192
3 182 183 194
3 182 194 193
3 183 184 195
3 183 195 194
3 184 185 196
3 184 196 195
3 185 186 197
3 185 197 196
3 187 188 199
3 187 199 198
3 188 189 200
3 188 200 199
3 189 190 201
3 189 201 200
3 190 191 202
3 190 202 201
3 191 192 203
3 191 203 202
3 192 193 204
3 192 204 203
3 193 194 205
3 193 205 204
3 194 195 206
3 194 206 205
3 195 196 207
3 195 207 206
3 196 197 208
3 196 208 207
3 198 199 210
3 198 210 209
3 199 200 211
3 199 211 210
3 200 201 212
3 200 212 211
3 201 202 213
3 201 213 212
3 202 203 214
3 202 214 213
3 203 204 215
3 203 215 214
3 204 205 216
3 204 216 215
3 205 206 217
3 205 217 216
3 206 207 218
3 206 218 217
3 207 208 219
3 207 219 218
3 209 210 221
3 209 221 220
3 210 211 222
3 210 222 221
3 211 212 223
3 211 223 222
3 212 213 224
3 212 224 223
3 213 214 225
3 213 225 224
3 214 215 226
3 214 226 225
3 215 216 227
3 215 227 226
3 216 217 228
3 216 228 227
3 217 218 229
3 217 229 228
3 218 219 230
3 218 230 229
CELL_TYPES 400
5
5
5
5
5
5
5
5
5
5
5
5
5
5
5
5
5
5
5
5
5
5
5
5
5
5
5
5
5
5
5
5
5
5
5
5
5
5
5
5
5
5
5
5
5
5
5
5
5
5
5
5
5
5
5
5
5
5
5
5
5
5
5
5
5
5
5
5
5
5
5
5
5
5
5
5
5
5
5
5
5
5
5
5
5
5
5
5
5
5
5
5
5
5
5
5
5
5
5
5
5
5
5
5
5
5
5
5
5
5
5
5
5
5
5
5
5
5
5
5
5
5
5
5
5
5
5
5
5
5
5
5
5
5
5
5
5
5
5
5
5
5
5
5
5
5
5
5
5
5
5
5
5
5
5
5
5
5
5
5
5
5
5
5
5
5
5
5
5
5
5
5
5
5
5
5
5
5
5
5
5
5
5
5
5
5
5
5
5
5
5
5
5
5
5
5
5
5
5
5
5
5
5
5
5
5
5
5
5
5
5
5
5
5
5
5
5
5
5
5
5
5
5
5
5
5
5
5
5
5
5
5
5
5
5
5
5
5
5
5
5
5
5
5
5
5
5
5
5
5
5
5
5
5
5
5
5
5
5
5
5
5
5
5
5
5
5
5
5
5
5
5
5
5
5
5
5
5
5
5
5
5
5
5
5
5
5
5
5
5
5
5
5
5
5
5
5
5
5
5
5
5
5
5
5
5
5
5
5
5
5
5
5
5
5
5
5
5
5
5
5
5
5
5
5
5
5
5
5
5
5
5
5
5
5
5
5
5
5
5
5
5
5
5
5
5
5
5
5
5
5
5
5
5
5
5
5
5
5
5
5
5
5
5
5
5
5
5
5
5
5
5
5
5
5
5
5
5
5
5
5
5
5
5
5
5
5
5
5
5
5
5
5
5
5
5
5
5
5
5
POINT_DATA 231
SCALARS psi double 1
LOOKUP_TABLE default
1
0.575105
-0.295987
-0.912007
-0.779242
-0.0189044
0.737729
0.871798
0.28478
-0.525481
-0.875714
0.993094
0.577293
-0.29271
-0.910693
-0.780905
-0.0219572
0.736037
0.872991
0.287815
-0.523544
-0.881881
0.987115
0.57787
-0.290203
-0.909145
-0.781502
-0.0236412
0.735353
0.874344
0.290055
-0.523111
-0.887285
0.981487
0.577144
-0.288415
-0.907381
-0.781078
-0.0240063
0.735649
0.875867
0.291569
-0.523922
-0.892462
0.975846
0.575334
-0.287278
-0.905416
-0.779705
-0.0231348
0.736871
0.877566
0.292439
-0.525785
-0.897747
0.969986
0.572616
-0.286713
-0.903275
-0.777474
-0.0211395
0.738944
0.879442
0.292755
-0.52854
-0.903328
0.963809
0.569142
-0.286634
-0.900982
-0.774498
-0.0181611
0.74177
0.881489
0.292613
-0.532043
-0.90929
0.957299
0.565057
-0.286956
-0.89857
-0.77091
-0.0143647
0.745228
0.883692
0.29211
-0.53615
-0.915642
0.950497
0.560508
-0.287587
-0.896074
-0.766854
-0.00993622
0.749183
0.886028
0.291343
-0.540717
-0.922335
0.943485
0.555644
-0.288436
-0.893532
-0.762488
-0.00507713
0.753486
0.888471
0.29041
-0.545592
-0.929282
0.936373
0.55062
-0.289409
-0.890984
-0.757976
-4.44113e-14
0.757976
0.890984
0.289409
-0.55062
-0.936373
0.929282
0.545592
-0.29041
-0.888471
-0.753486
0.00507713
0.762488
0.893532
0.288436
-0.555644
-0.943485
0.922335
0.540717
-0.291343
-0.886028
-0.749183
0.00993622
0.766854
0.896074
0.287587
-0.560508
-0.950497
0.915642
0.53615
-0.29211
-0.883692
-0.745228
0.0143647
0.77091
0.89857
0.286956
-0.565057
-0.957299
0.90929
0.532043
-0.292613
-0.881489
-0.74177
0.0181611
0.774498
0.900982
0.286634
-0.569142
-0.963809
0.903328
0.52854
-0.292755
-0.879442
-0.738944
0.0211395
0.777474
0.903275
0.286713
-0.572616
-0.969986
0.897747
0.525785
-0.292439
-0.877566
-0.736871
0.0231348
0.779705
0.905416
0.287278
-0.575334
-0.975846
0.892462
0.523922
-0.291569
-0.875867
-0.735649
0.0240063
0.781078
0.907381
0.288415
-0.577144
-0.981487
0.887285
0.523111
-0.290055
-0.874344
-0.735353
0.0236412
0.781502
0.909145
0.290203
-0.57787
-0.987115
0.881881
0.523544
-0.287815
-0.872991
-0.736037
0.0219572
0.780905
0.910693
0.29271
-0.577293
-0.993094
0.875714
0.525481
-0.28478
-0.871798
-0.737729
0.0189044
0.779242
0.912007
0.295987
-0.575105
-1
VECTORS Et double
0.0124346 -0.553884 0
-0.013444 -0.95136 0
-0.0138237 -0.924613 0
-0.00169652 -0.155252 0
0.0112071 0.725624 0
0.0137 0.999225 0
0.00384836 0.451374 0
-0.00952728 -0.455972 0
-0.0140684 -0.970092 0
0.00402984 -0.66711 0
0.0325047 -0.461494 0
0.0216236 -0.545013 0
-0.000992778 -0.848712 0
-0.0134428 -0.980794 0
-0.007382 -0.321682 0
0.00429489 0.585949 0
0.0103841 0.999946 0
0.00566831 0.589776 0
-0.00495532 -0.295745 0
-0.0106981 -0.920894 0
-0.00208224 -0.771682 0
0.0169275 -0.468613 0
0.0216694 -0.537101 0
0.00394439 -0.842435 0
-0.0096021 -0.980133 0
-0.0083933 -0.323771 0
-0.000734066 0.583703 0
0.00386451 0.999748 0
0.000824284 0.591678 0
-0.00578009 -0.293829 0
-0.00707123 -0.921404 0
0.00324367 -0.77624 0
0.0178303 -0.4773 0
0.0229773 -0.531112 0
0.00840057 -0.837091 0
-0.00622543 -0.978433 0
-0.00932832 -0.324711 0
-0.00547304 0.582186 0
-0.00233584 0.99953 0
-0.00383959 0.592831 0
-0.00668415 -0.293029 0
-0.00388854 -0.922834 0
0.00800906 -0.780328 0
0.0198046 -0.4837 0
0.0249804 -0.526366 0
0.0124121 -0.832317 0
-0.00328327 -0.975878 0
-0.0101724 -0.324592 0
-0.00981122 0.58136 0
-0.00806463 0.999307 0
-0.00820459 0.593297 0
-0.00763422 -0.293257 0
-0.00115644 -0.925075 0
0.0122515 -0.784162 0
0.0223615 -0.488624 0
0.0272519 -0.522419 0
0.0159585 -0.827873 0
-0.000757404 -0.97261 0
-0.010901 -0.323529 0
-0.013645 0.581166 0
-0.01318 0.999094 0
-0.0121568 0.593151 0
-0.00858936 -0.294405 0
0.0011217 -0.92803 0
0.0159546 -0.787892 0
0.0251217 -0.492609 0
0.0294675 -0.51898 0
0.0189894 -0.823609 0
0.00136011 -0.968755 0
-0.0114867 -0.321652 0
-0.0168812 0.581533 0
-0.0175543 0.998902 0
-0.0155908 0.592483 0
-0.00950554 -0.296345 0
0.00294373 -0.931601 0
0.0190752 -0.791616 0
0.027789 -0.496011 0
0.031382 -0.515859 0
0.0214432 -0.819436 0
0.00306908 -0.964435 0
-0.0119039 -0.319106 0
-0.0194398 0.582373 0
-0.0210774 0.998742 0
-0.0184128 0.591394 0
-0.0103394 -0.298938 0
0.00430849 -0.935688 0
0.0215612 -0.79539 0
0.0301347 -0.499062 0
0.0328145 -0.512937 0
0.0232591 -0.815311 0
0.00436371 -0.959769 0
-0.0121323 -0.316046 0
-0.0212577 0.583588 0
-0.0236601 0.998621 0
-0.0205445 0.589992 0
-0.0110512 -0.302029 0
0.00521632 -0.94018 0
0.0233641 -0.79924 0
0.0319874 -0.501916 0
0.0336406 -0.510133 0
0.024386 -0.81122 0
0.00523514 -0.954883 0
-0.0121595 -0.312638 0
-0.0222902 0.585073 0
-0.0252366 0.998546 0
-0.0219249 0.588393 0
-0.0116073 -0.305456 0
0.00566969 -0.94496 0
0.0244465 -0.803169 0
0.0332282 -0.504671 0
0.0337868 -0.507393 0
0.0247878 -0.807168 0
0.00567352 -0.949903 0
-0.0119823 -0.30905 0
-0.0225133 0.586713 0
-0.0257667 0.998521 0
-0.0225133 0.586713 0
-0.0119823 -0.30905 0
0.00567352 -0.949903 0
0.0247878 -0.807168 0
0.0337868 -0.507393 0
0.0332282 -0.504671 0
0.0244465 -0.803169 0
0.00566969 -0.94496 0
-0.0116073 -0.305456 0
-0.0219249 0.588393 0
-0.0252366 0.998546 0
-0.0222902 0.585073 0
-0.0121595 -0.312638 0
0.00523514 -0.954883 0
0.024386 -0.81122 0
0.0336406 -0.510133 0
0.0319874 -0.501916 0
0.0233641 -0.79924 0
0.00521632 -0.94018 0
-0.0110512 -0.302029 0
-0.0205445 0.589992 0
-0.0236601 0.998621 0
-0.0212577 0.583588 0
-0.0121323 -0.316046 0
0.00436371 -0.959769 0
0.0232591 -0.815311 0
0.0328145 -0.512937 0
0.0301347 -0.499062 0
0.0215612 -0.79539 0
0.00430849 -0.935688 0
-0.0103394 -0.298938 0
-0.0184128 0.591394 0
-0.0210774 0.998742 0
-0.0194398 0.582373 0
-0.0119039 -0.319106 0
0.00306908 -0.964435 0
0.0214432 -0.819436 0
0.031382 -0.515859 0
0.027789 -0.496011 0
0.0190752 -0.791616 0
0.00294373 -0.931601 0
-0.00950554 -0.296345 0
-0.0155908 0.592483 0
-0.0175543 0.998902 0
-0.0168812 0.581533 0
-0.0114867 -0.321652 0
0.00136011 -0.968755 0
0.0189894 -0.823609 0
0.0294675 -0.51898 0
0.0251217 -0.492609 0
0.0159546 -0.787892 0
0.0011217 -0.92803 0
-0.00858936 -0.294405 0
-0.0121568 0.593151 0
-0.01318 0.999094 0
-0.013645 0.581166 0
-0.010901 -0.323529 0
-0.000757404 -0.97261 0
0.0159585 -0.827873 0
0.0272519 -0.522419 0
0.0223615 -0.488624 0
0.0122515 -0.784162 0
-0.00115644 -0.925075 0
-0.00763422 -0.293257 0
-0.00820459 0.593297 0
-0.00806463 0.999307 0
-0.00981122 0.58136 0
-0.0101724 -0.324592 0
-0.00328327 -0.975878 0
0.0124121 -0.832317 0
0.0249804 -0.526366 0
0.0198046 -0.4837 0
0.00800906 -0.780328 0
-0.00388854 -0.922834 0
-0.00668415 -0.293029 0
-0.00383959 0.592831 0
-0.00233584 0.99953 0
-0.00547304 0.582186 0
-0.00932832 -0.324711 0
-0.00622543 -0.978433 0
0.00840057 -0.837091 0
0.0229773 -0.531112 0
0.0178303 -0.4773 0
0.00324367 -0.77624 0
-0.00707123 -0.921404 0
-0.00578009 -0.293829 0
0.000824284 0.591678 0
0.00386451 0.999748 0
-0.000734066 0.583703 0
-0.0083933 -0.323771 0
-0.0096021 -0.980133 0
0.00394439 -0.842435 0
0.0216694 -0.537101 0
0.0169275 -0.468613 0
-0.00208224 -0.771682 0
-0.0106981 -0.920894 0
-0.00495532 -0.295745 0
0.00566831 0.589776 0
0.0103841 0.999946 0
0.00429489 0.585949 0
-0.007382 -0.321682 0
-0.0134428 -0.980794 0
-0.000992778 -0.848712 0
0.0216236 -0.545013 0
0.0325047 -0.461494 0
0.00402984 -0.66711 0
-0.0140684 -0.970092 0
-0.00952728 -0.455972 0
0.00384836 0.451374 0
0.0137 0.999225 0
0.0112071 0.725624 0
-0.00169652 -0.155252 0
-0.0138237 -0.924613 0
-0.013444 -0.95136 0
0.0124346 -0.553884 0
