# vtk DataFile Version 3.0
tp3485 scalar+vector
ASCII
DATASET UNSTRUCTURED_GRID
POINTS 231 double
0 0 0
0.1 0 0
0.2 0 0
0.3 0 0
0.4 0 0
0.5 0 0
0.6 0 0
0.7 0 0
0.8 0 0
0.9 0 0
1 0 0
0 0.025 0
0.1 0.025 0
0.2 0.025 0
0.3 0.025 0
0.4 0.025 0
0.5 0.025 0
0.6 0.025 0
0.7 0.025 0
0.8 0.025 0
0.9 0.025 0
1 0.025 0
0 0.05 0
0.1 0.05 0
0.2 0.05 0
0.3 0.05 0
0.4 0.05 0
0.5 0.05 0
0.6 0.05 0
0.7 0.05 0
0.8 0.05 0
0.9 0.05 0
1 0.05 0
0 0.075 0
0.1 0.075 0
0.2 0.075 0
0.3 0.075 0
0.4 0.075 0
0.5 0.075 0
0.6 0.075 0
0.7 0.075 0
0.8 0.075 0
0.9 0.075 0
1 0.075 0
0 0.1 0
0.1 0.1 0
0.2 0.1 0
0.3 0.1 0
0.4 0.1 0
0.5 0.1 0
0.6 0.1 0
0.7 0.1 0
0.8 0.1 0
0.9 0.1 0
1 0.1 0
0 0.125 0
0.1 0.125 0
0.2 0.125 0
0.3 0.125 0
0.4 0.125 0
0.5 0.125 0
0.6 0.125 0
0.7 0.125 0
0.8 0.125 0
0.9 0.125 0
1 0.125 0
0 0.15 0
0.1 0.15 0
0.2 0.15 0
0.3 0.15 0
0.4 0.15 0
0.5 0.15 0
0.6 0.15 0
0.7 0.15 0
0.8 0.15 0
0.9 0.15 0
1 0.15 0
0 0.175 0
0.1 0.175 0
0.2 0.175 0
0.3 0.175 0
0.4 0.175 0
0.5 0.175 0
0.6 0.175 0
0.7 0.175 0
0.8 0.175 0
0.9 0.175 0
1 0.175 0
0 0.2 0
0.1 0.2 0
0.2 0.2 0
0.3 0.2 0
0.4 0.2 0
0.5 0.2 0
0.6 0.2 0
0.7 0.2 0
0.8 0.2 0
0.9 0.2 0
1 0.2 0
0 0.225 0
0.1 0.225 0
0.2 0.225 0
0.3 0.225 0
0.4 0.225 0
0.5 0.225 0
0.6 0.225 0
0.7 0.225 0
0.8 0.225 0
0.9 0.225 0
1 0.225 0
0 0.25 0
0.1 0.25 0
0.2 0.25 0
0.3 0.25 0
0.4 0.25 0
0.5 0.25 0
0.6 0.25 0
0.7 0.25 0
0.8 0.25 0
0.9 0.25 0
1 0.25 0
0 0.275 0
0.1 0.275 0
0.2 0.275 0
0.3 0.275 0
0.4 0.275 0
0.5 0.275 0
0.6 0.275 0
0.7 0.275 0
0.8 0.275 0
0.9 0.275 0
1 0.275 0
0 0.3 0
0.1 0.3 0
0.2 0.3 0
0.3 0.3 0
0.4 0.3 0
0.5 0.3 0
0.6 0.3 0
0.7 0.3 0
0.8 0.3 0
0.9 0.3 0
1 0.3 0
0 0.325 0
0.1 0.325 0
0.2 0.325 0
0.3 0.325 0
0.4 0.325 0
0.5 0.325 0
0.6 0.325 0
0.7 0.325 0
0.8 0.325 0
0.9 0.325 0
1 0.325 0
0 0.35 0
0.1 0.35 0
0.2 0.35 0
0.3 0.35 0
0.4 0.35 0
0.5 0.35 0
0.6 0.35 0
0.7 0.35 0
0.8 0.35 0
0.9 0.35 0
1 0.35 0
0 0.375 0
0.1 0.375 0
0.2 0.375 0
0.3 0.375 0
0.4 0.375 0
0.5 0.375 0
0.6 0.375 0
0.7 0.375 0
0.8 0.375 0
0.9 0.375 0
1 0.375 0
0 0.4 0
0.1 0.4 0
0.2 0.4 0
0.3 0.4 0
0.4 0.4 0
0.5 0.4 0
0.6 0.4 0
0.7 0.4 0
0.8 0.4 0
0.9 0.4 0
1 0.4 0
0 0.425 0
0.1 0.425 0
0.2 0.425 0
0.3 0.425 0
0.4 0.425 0
0.5 0.425 0
0.6 0.425 0
0.7 0.425 0
0.8 0.425 0
0.9 0.425 0
1 0.425 0
0 0.45 0
0.1 0.45 0
0.2 0.45 0
0.3 0.45 0
0.4 0.45 0
0.5 0.45 0
0.6 0.45 0
0.7 0.45 0
0.8 0.45 0
0.9 0.45 0
1 0.45 0
0 0.475 0
0.1 0.475 0
0.2 0.475 0
0.3 0.475 0
0.4 0.475 0
0.5 0.475 0
0.6 0.475 0
0.7 0.475 0
0.8 0.475 0
0.9 0.475 0
1 0.475 0
0 0.5 0
0.1 0.5 0
0.2 0.5 0
0.3 0.5 0
0.4 0.5 0
0.5 0.5 0
0.6 0.5 0
0.7 0.5 0
0.8 0.5 0
0.9 0.5 0
1 0.5 0
CELLS 400 1600
3 0 1 12
3 0 12 11
3 1 2 13
3 1 13 12
3 2 3 14
3 2 14 13
3 3 4 15
3 3 15 14
3 4 5 16
3 4 16 15
3 5 6 17
3 5 17 16
3 6 7 18
3 6 18 17
3 7 8 19
3 7 19 18
3 8 9 20
3 8 20 19
3 9 10 21
3 9 21 20
3 11 12 23
3 11 23 22
3 12 13 24
3 12 24 23
3 13 14 25
3 13 25 24
3 14 15 26
3 14 26 25
3 15 16 27
3 15 27 26
3 16 17 28
3 16 28 27
3 17 18 29
3 17 29 28
3 18 19 30
3 18 30 29
3 19 20 31
3 19 31 30
3 20 21 32
3 20 32 31
3 22 23 34
3 22 34 33
3 23 24 35
3 23 35 34
3 24 25 36
3 24 36 35
3 25 26 37
3 25 37 36
3 26 27 38
3 26 38 37
3 27 28 39
3 27 39 38
3 28 29 40
3 28 40 39
3 29 30 41
3 29 41 40
3 30 31 42
3 30 42 41
3 31 32 43
3 31 43 42
3 33 34 45
3 33 45 44
3 34 35 46
3 34 46 45
3 35 36 47
3 35 47 46
3 36 37 48
3 36 48 47
3 37 38 49
3 37 49 48
3 38 39 50
3 38 50 49
3 39 40 51
3 39 51 50
3 40 41 52
3 40 52 51
3 41 42 53
3 41 53 52
3 42 43 54
3 42 54 53
3 44 45 56
3 44 56 55
3 45 46 57
3 45 57 56
3 46 47 58
3 46 58 57
3 47 48 59
3 47 59 58
3 48 49 60
3 48 60 59
3 49 50 61
3 49 61 60
3 50 51 62
3 50 62 61
3 51 52 63
3 51 63 62
3 52 53 64
3 52 64 63
3 53 54 65
3 53 65 64
3 55 56 67
3 55 67 66
3 56 57 68
3 56 68 67
3 57 58 69
3 57 69 68
3 58 59 70
3 58 70 69
3 59 60 71
3 59 71 70
3 60 61 72
3 60 72 71
3 61 62 73
3 61 73 72
3 62 63 74
3 62 74 73
3 63 64 75
3 63 75 74
3 64 65 76
3 64 76 75
3 66 67 78
3 66 78 77
3 67 68 79
3 67 79 78
3 68 69 80
3 68 80 79
3 69 70 81
3 69 81 80
3 70 71 82
3 70 82 81
3 71 72 83
3 71 83 82
3 72 73 84
3 72 84 83
3 73 74 85
3 73 85 84
3 74 75 86
3 74 86 85
3 75 76 87
3 75 87 86
3 77 78 89
3 77 89 88
3 78 79 90
3 78 90 89
3 79 80 91
3 79 91 90
3 80 81 92
3 80 92 91
3 81 82 93
3 81 93 92
3 82 83 94
3 82 94 93
3 83 84 95
3 83 95 94
3 84 85 96
3 84 96 95
3 85 86 97
3 85 97 96
3 86 87 98
3 86 98 97
3 88 89 100
3 88 100 99
3 89 90 101
3 89 101 100
3 90 91 102
3 90 102 101
3 91 92 103
3 91 103 102
3 92 93 104
3 92 104 103
3 93 94 105
3 93 105 104
3 94 95 106
3 94 106 105
3 95 96 107
3 95 107 106
3 96 97 108
3 96 108 107
3 97 98 109
3 97 109 108
3 99 100 111
3 99 111 110
3 100 101 112
3 100 112 111
3 101 102 113
3 101 113 112
3 102 103 114
3 102 114 113
3 103 104 115
3 103 115 114
3 104 105 116
3 104 116 115
3 105 106 117
3 105 117 116
3 106 107 118
3 106 118 117
3 107 108 119
3 107 119 118
3 108 109 120
3 108 120 119
3 110 111 122
3 110 122 121
3 111 112 123
3 111 123 122
3 112 113 124
3 112 124 123
3 113 114 125
3 113 125 124
3 114 115 126
3 114 126 125
3 115 116 127
3 115 127 126
3 116 117 128
3 116 128 127
3 117 118 129
3 117 129 128
3 118 119 130
3 118 130 129
3 119 120 131
3 119 131 130
3 121 122 133
3 121 133 132
3 122 123 134
3 122 134 133
3 123 124 135
3 123 135 134
3 124 125 136
3 124 136 135
3 125 126 137
3 125 137 136
3 126 127 138
3 126 138 137
3 127 128 139
3 127 139 138
3 128 129 140
3 128 140 139
3 129 130 141
3 129 141 140
3 130 131 142
3 130 142 141
3 132 133 144
3 132 144 143
3 133 134 145
3 133 145 144
3 134 135 146
3 134 146 145
3 135 136 147
3 135 147 146
3 136 137 148
3 136 148 147
3 137 138 149
3 137 149 148
3 138 139 150
3 138 150 149
3 139 140 151
3 139 151 150
3 140 141 152
3 140 152 151
3 141 142 153
3 141 153 152
3 143 144 155
3 143 155 154
3 144 145 156
3 144 156 155
3 145 146 157
3 145 157 156
3 146 147 158
3 146 158 157
3 147 148 159
3 147 159 158
3 148 149 160
3 148 160 159
3 149 150 161
3 149 161 160
3 150 151 162
3 150 162 161
3 151 152 163
3 151 163 162
3 152 153 164
3 152 164 163
3 154 155 166
3 154 166 165
3 155 156 167
3 155 167 166
3 156 157 168
3 156 168 167
3 157 158 169
3 157 169 168
3 158 159 170
3 158 170 169
3 159 160 171
3 159 171 170
3 160 161 172
3 160 172 171
3 161 162 173
3 161 173 172
3 162 163 174
3 162 174 173
3 163 164 175
3 163 175 174
3 165 166 177
3 165 177 176
3 166 167 178
3 166 178 177
3 167 168 179
3 167 179 178
3 168 169 180
3 168 180 179
3 169 170 181
3 169 181 180
3 170 171 182
3 170 182 181
3 171 172 183
3 171 183 182
3 172 173 184
3 172 184 183
3 173 174 185
3 173 185 184
3 174 175 186
3 174 186 185
3 176 177 188
3 176 188 187
3 177 178 189
3 177 189 188
3 178 179 190
3 178 190 189
3 179 180 191
3 179 191 190
3 180 181 192
3 180 192 191
3 181 182 193
3 181 193 192
3 182 183 194
3 182 194 193
3 183 184 195
3 183 195 194
3 184 185 196
3 184 196 195
3 185 186 197
3 185 197 196
3 187 188 199
3 187 199 198
3 188 189 200
3 188 200 199
3 189 190 201
3 189 201 200
3 190 191 202
3 190 202 201
3 191 192 203
3 191 203 202
3 192 193 204
3 192 204 203
3 193 194 205
3 193 205 204
3 194 195 206
3 194 206 205
3 195 196 207
3 195 207 206
3 196 197 208
3 196 208 207
3 198 199 210
3 198 210 209
3 199 200 211
3 199 211 210
3 200 201 212
3 200 212 211
3 201 202 213
3 201 213 212
3 202 203 214
3 202 214 213
3 203 204 215
3 203 215 214
3 204 205 216
3 204 216 215
3 205 206 217
3 205 217 216
3 206 207 218
3 206 218 217
3 207 208 219
3 207 219 218
3 209 210 221
3 209 221 220
3 210 211 222
3 210 222 221
3 211 212 223
3 211 223 222
3 212 213 224
3 212 224 223
3 213 214 225
3 213 225 224
3 214 215 226
3 214 226 225
3 215 216 227
3 215 227 226
3 216 217 228
3 216 228 227
3 217 218 229
3 217 229 228
3 218 219 230
3 218 230 229
CELL_TYPES 400
5
5
5
5
5
5
5
5
5
5
5
5
5
5
5
5
5
5
5
5
5
5
5
5
5
5
5
5
5
5
5
5
5
5
5
5
5
5
5
5
5
5
5
5
5
5
5
5
5
5
5
5
5
5
5
5
5
5
5
5
5
5
5
5
5
5
5
5
5
5
5
5
5
5
5
5
5
5
5
5
5
5
5
5
5
5
5
5
5
5
5
5
5
5
5
5
5
5
5
5
5
5
5
5
5
5
5
5
5
5
5
5
5
5
5
5
5
5
5
5
5
5
5
5
5
5
5
5
5
5
5
5
5
5
5
5
5
5
5
5
5
5
5
5
5
5
5
5
5
5
5
5
5
5
5
5
5
5
5
5
5
5
5
5
5
5
5
5
5
5
5
5
5
5
5
5
5
5
5
5
5
5
5
5
5
5
5
5
5
5
5
5
5
5
5
5
5
5
5
5
5
5
5
5
5
5
5
5
5
5
5
5
5
5
5
5
5
5
5
5
5
5
5
5
5
5
5
5
5
5
5
5
5
5
5
5
5
5
5
5
5
5
5
5
5
5
5
5
5
5
5
5
5
5
5
5
5
5
5
5
5
5
5
5
5
5
5
5
5
5
5
5
5
5
5
5
5
5
5
5
5
5
5
5
5
5
5
5
5
5
5
5
5
5
5
5
5
5
5
5
5
5
5
5
5
5
5
5
5
5
5
5
5
5
5
5
5
5
5
5
5
5
5
5
5
5
5
5
5
5
5
5
5
5
5
5
5
5
5
5
5
5
5
5
5
5
5
5
5
5
5
5
5
5
5
5
5
5
5
5
5
5
5
5
5
5
5
5
5
5
5
5
5
5
5
5
5
5
5
5
5
5
5
5
5
5
5
5
5
5
5
5
5
5
5
5
5
5
5
5
POINT_DATA 231
SCALARS psi double 1
LOOKUP_TABLE default
1
0.797895
0.295326
-0.319771
-0.812792
-0.995418
-0.79783
-0.29544
0.319871
0.812743
0.990881
0.996928
0.798497
0.296499
-0.318596
-0.812075
-0.995433
-0.798573
-0.296624
0.318707
0.812169
0.993966
0.994926
0.798996
0.297661
-0.317415
-0.811352
-0.995446
-0.799318
-0.297815
0.317551
0.811686
0.99598
0.993712
0.799504
0.298826
-0.316228
-0.810624
-0.995459
-0.800066
-0.299012
0.316389
0.811186
0.997206
0.993087
0.800081
0.300005
-0.315031
-0.80989
-0.99547
-0.800818
-0.300217
0.315211
0.810613
0.997841
0.992906
0.800753
0.301208
-0.313824
-0.809151
-0.995479
-0.801573
-0.301433
0.314007
0.809942
0.99803
0.99306
0.801527
0.30244
-0.312606
-0.808406
-0.995487
-0.802331
-0.302659
0.312773
0.809169
0.997883
0.993463
0.802392
0.3037
-0.311376
-0.807656
-0.995493
-0.803092
-0.303894
0.311511
0.808304
0.997486
0.994041
0.803333
0.304985
-0.310137
-0.806901
-0.995497
-0.803855
-0.305138
0.310223
0.807362
0.996912
0.994732
0.804326
0.306289
-0.308891
-0.806142
-0.9955
-0.804618
-0.306388
0.308918
0.806368
0.996223
0.995478
0.805347
0.307603
-0.30764
-0.805381
-0.995501
-0.805381
-0.30764
0.307603
0.805347
0.995478
0.996223
0.806368
0.308918
-0.306388
-0.804618
-0.9955
-0.806142
-0.308891
0.306289
0.804326
0.994732
0.996912
0.807362
0.310223
-0.305138
-0.803855
-0.995497
-0.806901
-0.310137
0.304985
0.803333
0.994041
0.997486
0.808304
0.311511
-0.303894
-0.803092
-0.995493
-0.807656
-0.311376
0.3037
0.802392
0.993463
0.997883
0.809169
0.312773
-0.302659
-0.802331
-0.995487
-0.808406
-0.312606
0.30244
0.801527
0.99306
0.99803
0.809942
0.314007
-0.301433
-0.801573
-0.995479
-0.809151
-0.313824
0.301208
0.800753
0.992906
0.997841
0.810613
0.315211
-0.300217
-0.800818
-0.99547
-0.80989
-0.315031
0.300005
0.800081
0.993087
0.997206
0.811186
0.316389
-0.299012
-0.800066
-0.995459
-0.810624
-0.316228
0.298826
0.799504
0.993712
0.99598
0.811686
0.317551
-0.297815
-0.799318
-0.995446
-0.811352
-0.317415
0.297661
0.798996
0.994926
0.993966
0.812169
0.318707
-0.296624
-0.798573
-0.995433
-0.812075
-0.318596
0.296499
0.798497
0.996928
0.990881
0.812743
0.319871
-0.29544
-0.79783
-0.995418
-0.812792
-0.319771
0.295326
0.797895
1
VECTORS Et double
0.00855254 -0.346667 0
-0.00548623 -0.696254 0
-0.00812785 -0.999809 0
-0.00707977 -0.924128 0
-0.00327707 -0.495649 0
0.001783 0.122222 0
0.00616108 0.693516 0
0.00815757 0.999967 0
0.00670019 0.924155 0
-0.00447061 0.492072 0
-0.0213611 0.308359 0
0.0105597 -0.342044 0
-0.000336855 -0.607094 0
-0.00744741 -0.967009 0
-0.00762434 -0.95961 0
-0.00466407 -0.585887 0
9.88254e-05 0.0116866 0
0.00482423 0.604904 0
0.00767299 0.967149 0
0.00728151 0.959855 0
0.0014589 0.58499 0
-0.0104447 0.312581 0
0.00625001 -0.338163 0
-0.00135827 -0.604019 0
-0.00731663 -0.966445 0
-0.00764682 -0.959995 0
-0.00469639 -0.586921 0
9.00522e-05 0.0104158 0
0.00484503 0.603886 0
0.00771021 0.966795 0
0.00729958 0.96046 0
0.0021879 0.587488 0
-0.00636297 0.317575 0
0.00291291 -0.335482 0
-0.00246469 -0.601751 0
-0.00737665 -0.965856 0
-0.00769293 -0.960375 0
-0.00473156 -0.58796 0
8.0966e-05 0.0091376 0
0.0048683 0.60286 0
0.00776921 0.966436 0
0.00744326 0.961047 0
0.00308233 0.589408 0
-0.00314183 0.321006 0
0.000307482 -0.333603 0
-0.00355108 -0.60006 0
-0.00755733 -0.965309 0
-0.00776169 -0.960761 0
-0.00476973 -0.589006 0
7.13707e-05 0.00785172 0
0.00489319 0.601826 0
0.00784508 0.966063 0
0.0076645 0.961576 0
0.00401206 0.590894 0
-0.000581154 0.323396 0
-0.00172354 -0.332261 0
-0.00454916 -0.598782 0
-0.0078011 -0.96483 0
-0.0078462 -0.96116 0
-0.00480986 -0.590058 0
6.1111e-05 0.00655815 0
0.00491795 0.600781 0
0.00792953 0.965671 0
0.00792031 0.962031 0
0.00489148 0.592053 0
0.00145054 0.325086 0
-0.00328243 -0.33128 0
-0.00541411 -0.597801 0
-0.00806194 -0.964429 0
-0.00793678 -0.961578 0
-0.00484998 -0.591119 0
5.01056e-05 0.00525718 0
0.0049403 0.599726 0
0.00801298 0.965257 0
0.00817429 0.96241 0
0.00566375 0.592969 0
0.00303911 0.326305 0
-0.00443514 -0.330537 0
-0.00611638 -0.597028 0
-0.00830403 -0.9641 0
-0.00802319 -0.962015 0
-0.00488766 -0.592188 0
3.83619e-05 0.00394952 0
0.00495786 0.598661 0
0.00808607 0.96482 0
0.00839713 0.962721 0
0.00629084 0.593707 0
0.00423994 0.327207 0
-0.00522351 -0.329944 0
-0.00663676 -0.596397 0
-0.00850063 -0.96383 0
-0.00809607 -0.962471 0
-0.00492042 -0.593263 0
2.59746e-05 0.00263633 0
0.00496846 0.597588 0
0.00814078 0.964363 0
0.00856655 0.962978 0
0.00674744 0.594321 0
0.00508792 0.327901 0
-0.00567312 -0.329436 0
-0.00696349 -0.595854 0
-0.00863306 -0.963603 0
-0.00814794 -0.96294 0
-0.00494607 -0.594344 0
1.31129e-05 0.00131919 0
0.00497048 0.596509 0
0.00817113 0.963894 0
0.00866712 0.963197 0
0.00701723 0.594856 0
0.0056038 0.328466 0
-0.00579809 -0.32896 0
-0.00709061 -0.595354 0
-0.00869003 -0.963399 0
-0.00817372 -0.963417 0
-0.00496303 -0.595426 0
2.45993e-13 -8.33785e-14 0
0.00496303 0.595426 0
0.00817372 0.963417 0
0.00869003 0.963399 0
0.00709061 0.595354 0
0.00579809 0.32896 0
-0.0056038 -0.328466 0
-0.00701723 -0.594856 0
-0.00866712 -0.963197 0
-0.00817113 -0.963894 0
-0.00497048 -0.596509 0
-1.31129e-05 -0.00131919 0
0.00494607 0.594344 0
0.00814794 0.96294 0
0.00863306 0.963603 0
0.00696349 0.595854 0
0.00567312 0.329436 0
-0.00508792 -0.327901 0
-0.00674744 -0.594321 0
-0.00856655 -0.962978 0
-0.00814078 -0.964363 0
-0.00496846 -0.597588 0
-2.59746e-05 -0.00263633 0
0.00492042 0.593263 0
0.00809607 0.962471 0
0.00850063 0.96383 0
0.00663676 0.596397 0
0.00522351 0.329944 0
-0.00423994 -0.327207 0
-0.00629084 -0.593707 0
-0.00839713 -0.962721 0
-0.00808607 -0.96482 0
-0.00495786 -0.598661 0
-3.83619e-05 -0.00394952 0
0.00488766 0.592188 0
0.00802319 0.962015 0
0.00830403 0.9641 0
0.00611638 0.597028 0
0.00443514 0.330537 0
-0.00303911 -0.326305 0
-0.00566375 -0.592969 0
-0.00817429 -0.96241 0
-0.00801298 -0.965257 0
-0.0049403 -0.599726 0
-5.01056e-05 -0.00525718 0
0.00484998 0.591119 0
0.00793678 0.961578 0
0.00806194 0.964429 0
0.00541411 0.597801 0
0.00328243 0.33128 0
-0.00145054 -0.325086 0
-0.00489148 -0.592053 0
-0.00792031 -0.962031 0
-0.00792953 -0.965671 0
-0.00491795 -0.600781 0
-6.1111e-05 -0.00655815 0
0.00480986 0.590058 0
0.0078462 0.96116 0
0.0078011 0.96483 0
0.00454916 0.598782 0
0.00172354 0.332261 0
0.000581154 -0.323396 0
-0.00401206 -0.590894 0
-0.0076645 -0.961576 0
-0.00784508 -0.966063 0
-0.00489319 -0.601826 0
-7.13707e-05 -0.00785172 0
0.00476973 0.589006 0
0.00776169 0.960761 0
0.00755733 0.965309 0
0.00355108 0.60006 0
-0.000307482 0.333603 0
0.00314183 -0.321006 0
-0.00308233 -0.589408 0
-0.00744326 -0.961047 0
-0.00776921 -0.966436 0
-0.0048683 -0.60286 0
-8.0966e-05 -0.0091376 0
0.00473156 0.58796 0
0.00769293 0.960375 0
0.00737665 0.965856 0
0.00246469 0.601751 0
-0.00291291 0.335482 0
0.00636297 -0.317575 0
-0.0021879 -0.587488 0
-0.00729958 -0.96046 0
-0.00771021 -0.966795 0
-0.00484503 -0.603886 0
-9.00522e-05 -0.0104158 0
0.00469639 0.586921 0
0.00764682 0.959995 0
0.00731663 0.966445 0
0.00135827 0.604019 0
-0.00625001 0.338163 0
0.0104447 -0.312581 0
-0.0014589 -0.58499 0
-0.00728151 -0.959855 0
-0.00767299 -0.967149 0
-0.00482423 -0.604904 0
-9.88254e-05 -0.0116866 0
0.00466407 0.585887 0
0.00762434 0.95961 0
0.00744741 0.967009 0
0.000336855 0.607094 0
-0.0105597 0.342044 0
0.0213611 -0.308359 0
0.00447061 -0.492072 0
-0.00670019 -0.924155 0
-0.00815757 -0.999967 0
-0.00616108 -0.693516 0
-0.001783 -0.122222 0
0.00327707 0.495649 0
0.00707977 0.924128 0
0.00812785 0.999809 0
0.00548623 0.696254 0
-0.00855254 0.346667 0
