# vtk DataFile Version 3.0
tp3485 scalar+vector
ASCII
DATASET UNSTRUCTURED_GRID
POINTS 231 double
0 0 0
0.1 0 0
0.2 0 0
0.3 0 0
0.4 0 0
0.5 0 0
0.6 0 0
0.7 0 0
0.8 0 0
0.9 0 0
1 0 0
0 0.025 0
0.1 0.025 0
0.2 0.025 0
0.3 0.025 0
0.4 0.025 0
0.5 0.025 0
0.6 0.025 0
0.7 0.025 0
0.8 0.025 0
0.9 0.025 0
1 0.025 0
0 0.05 0
0.1 0.05 0
0.2 0.05 0
0.3 0.05 0
0.4 0.05 0
0.5 0.05 0
0.6 0.05 0
0.7 0.05 0
0.8 0.05 0
0.9 0.05 0
1 0.05 0
0 0.075 0
0.1 0.075 0
0.2 0.075 0
0.3 0.075 0
0.4 0.075 0
0.5 0.075 0
0.6 0.075 0
0.7 0.075 0
0.8 0.075 0
0.9 0.075 0
1 0.075 0
0 0.1 0
0.1 0.1 0
0.2 0.1 0
0.3 0.1 0
0.4 0.1 0
0.5 0.1 0
0.6 0.1 0
0.7 0.1 0
0.8 0.1 0
0.9 0.1 0
1 0.1 0
0 0.125 0
0.1 0.125 0
0.2 0.125 0
0.3 0.125 0
0.4 0.125 0
0.5 0.125 0
0.6 0.125 0
0.7 0.125 0
0.8 0.125 0
0.9 0.125 0
1 0.125 0
0 0.15 0
0.1 0.15 0
0.2 0.15 0
0.3 0.15 0
0.4 0.15 0
0.5 0.15 0
0.6 0.15 0
0.7 0.15 0
0.8 0.15 0
0.9 0.15 0
1 0.15 0
0 0.175 0
0.1 0.175 0
0.2 0.175 0
0.3 0.175 0
0.4 0.175 0
0.5 0.175 0
0.6 0.175 0
0.7 0.175 0
0.8 0.175 0
0.9 0.175 0
1 0.175 0
0 0.2 0
0.1 0.2 0
0.2 0.2 0
0.3 0.2 0
0.4 0.2 0
0.5 0.2 0
0.6 0.2 0
0.7 0.2 0
0.8 0.2 0
0.9 0.2 0
1 0.2 0
0 0.225 0
0.1 0.225 0
0.2 0.225 0
0.3 0.225 0
0.4 0.225 0
0.5 0.225 0
0.6 0.225 0
0.7 0.225 0
0.8 0.225 0
0.9 0.225 0
1 0.225 0
0 0.25 0
0.1 0.25 0
0.2 0.25 0
0.3 0.25 0
0.4 0.25 0
0.5 0.25 0
0.6 0.25 0
0.7 0.25 0
0.8 0.25 0
0.9 0.25 0
1 0.25 0
0 0.275 0
0.1 0.275 0
0.2 0.275 0
0.3 0.275 0
0.4 0.275 0
0.5 0.275 0
0.6 0.275 0
0.7 0.275 0
0.8 0.275 0
0.9 0.275 0
1 0.275 0
0 0.3 0
0.1 0.3 0
0.2 0.3 0
0.3 0.3 0
0.4 0.3 0
0.5 0.3 0
0.6 0.3 0
0.7 0.3 0
0.8 0.3 0
0.9 0.3 0
1 0.3 0
0 0.325 0
0.1 0.325 0
0.2 0.325 0
0.3 0.325 0
0.4 0.325 0
0.5 0.325 0
0.6 0.325 0
0.7 0.325 0
0.8 0.325 0
0.9 0.325 0
1 0.325 0
0 0.35 0
0.1 0.35 0
0.2 0.35 0
0.3 0.35 0
0.4 0.35 0
0.5 0.35 0
0.6 0.35 0
0.7 0.35 0
0.8 0.35 0
0.9 0.35 0
1 0.35 0
0 0.375 0
0.1 0.375 0
0.2 0.375 0
0.3 0.375 0
0.4 0.375 0
0.5 0.375 0
0.6 0.375 0
0.7 0.375 0
0.8 0.375 0
0.9 0.375 0
1 0.375 0
0 0.4 0
0.1 0.4 0
0.2 0.4 0
0.3 0.4 0
0.4 0.4 0
0.5 0.4 0
0.6 0.4 0
0.7 0.4 0
0.8 0.4 0
0.9 0.4 0
1 0.4 0
0 0.425 0
0.1 0.425 0
0.2 0.425 0
0.3 0.425 0
0.4 0.425 0
0.5 0.425 0
0.6 0.425 0
0.7 0.425 0
0.8 0.425 0
0.9 0.425 0
1 0.425 0
0 0.45 0
0.1 0.45 0
0.2 0.45 0
0.3 0.45 0
0.4 0.45 0
0.5 0.45 0
0.6 0.45 0
0.7 0.45 0
0.8 0.45 0
0.9 0.45 0
1 0.45 0
0 0.475 0
0.1 0.475 0
0.2 0.475 0
0.3 0.475 0
0.4 0.475 0
0.5 0.475 0
0.6 0.475 0
0.7 0.475 0
0.8 0.475 0
0.9 0.475 0
1 0.475 0
0 0.5 0
0.1 0.5 0
0.2 0.5 0
0.3 0.5 0
0.4 0.5 0
0.5 0.5 0
0.6 0.5 0
0.7 0.5 0
0.8 0.5 0
0.9 0.5 0
1 0.5 0
CELLS 400 1600
3 0 1 12
3 0 12 11
3 1 2 13
3 1 13 12
3 2 3 14
3 2 14 13
3 3 4 15
3 3 15 14
3 4 5 16
3 4 16 15
3 5 6 17
3 5 17 16
3 6 7 18
3 6 18 17
3 7 8 19
3 7 19 18
3 8 9 20
3 8 20 19
3 9 10 21
3 9 21 20
3 11 12 23
3 11 23 22
3 12 13 24
3 12 24 23
3 13 14 25
3 13 25 24
3 14 15 26
3 14 26 25
3 15 16 27
3 15 27 26
3 16 17 28
3 16 28 27
3 17 18 29
3 17 29 28
3 18 19 30
3 18 30 29
3 19 20 31
3 19 31 30
3 20 21 32
3 20 32 31
3 22 23 34
3 22 34 33
3 23 24 35
3 23 35 34
3 24 25 36
3 24 36 35
3 25 26 37
3 25 37 36
3 26 27 38
3 26 38 37
3 27 28 39
3 27 39 38
3 28 29 40
3 28 40 39
3 29 30 41
3 29 41 40
3 30 31 42
3 30 42 41
3 31 32 43
3 31 43 42
3 33 34 45
3 33 45 44
3 34 35 46
3 34 46 45
3 35 36 47
3 35 47 46
3 36 37 48
3 36 48 47
3 37 38 49
3 37 49 48
3 38 39 50
3 38 50 49
3 39 40 51
3 39 51 50
3 40 41 52
3 40 52 51
3 41 42 53
3 41 53 52
3 42 43 54
3 42 54 53
3 44 45 56
3 44 56 55
3 45 46 57
3 45 57 56
3 46 47 58
3 46 58 57
3 47 48 59
3 47 59 58
3 48 49 60
3 48 60 59
3 49 50 61
3 49 61 60
3 50 51 62
3 50 62 61
3 51 52 63
3 51 63 62
3 52 53 64
3 52 64 63
3 53 54 65
3 53 65 64
3 55 56 67
3 55 67 66
3 56 57 68
3 56 68 67
3 57 58 69
3 57 69 68
3 58 59 70
3 58 70 69
3 59 60 71
3 59 71 70
3 60 61 72
3 60 72 71
3 61 62 73
3 61 73 72
3 62 63 74
3 62 74 73
3 63 64 75
3 63 75 74
3 64 65 76
3 64 76 75
3 66 67 78
3 66 78 77
3 67 68 79
3 67 79 78
3 68 69 80
3 68 80 79
3 69 70 81
3 69 81 80
3 70 71 82
3 70 82 81
3 71 72 83
3 71 83 82
3 72 73 84
3 72 84 83
3 73 74 85
3 73 85 84
3 74 75 86
3 74 86 85
3 75 76 87
3 75 87 86
3 77 78 89
3 77 89 88
3 78 79 90
3 78 90 89
3 79 80 91
3 79 91 90
3 80 81 92
3 80 92 91
3 81 82 93
3 81 93 92
3 82 83 94
3 82 94 93
3 83 84 95
3 83 95 94
3 84 85 96
3 84 96 95
3 85 86 97
3 85 97 96
3 86 87 98
3 86 98 97
3 88 89 100
3 88 100 99
3 89 90 101
3 89 101 100
3 90 91 102
3 90 102 101
3 91 92 103
3 91 103 102
3 92 93 104
3 92 104 103
3 93 94 105
3 93 105 104
3 94 95 106
3 94 106 105
3 95 96 107
3 95 107 106
3 96 97 108
3 96 108 107
3 97 98 109
3 97 109 108
3 99 100 111
3 99 111 110
3 100 101 112
3 100 112 111
3 101 102 113
3 101 113 112
3 102 103 114
3 102 114 113
3 103 104 115
3 103 115 114
3 104 105 116
3 104 116 115
3 105 106 117
3 105 117 116
3 106 107 118
3 106 118 117
3 107 108 119
3 107 119 118
3 108 109 120
3 108 120 119
3 110 111 122
3 110 122 121
3 111 112 123
3 111 123 122
3 112 113 124
3 112 124 123
3 113 114 125
3 113 125 124
3 114 115 126
3 114 126 125
3 115 116 127
3 115 127 126
3 116 117 128
3 116 128 127
3 117 118 129
3 117 129 128
3 118 119 130
3 118 130 129
3 119 120 131
3 119 131 130
3 121 122 133
3 121 133 132
3 122 123 134
3 122 134 133
3 123 124 135
3 123 135 134
3 124 125 136
3 124 136 135
3 125 126 137
3 125 137 136
3 126 127 138
3 126 138 137
3 127 128 139
3 127 139 138
3 128 129 140
3 128 140 139
3 129 130 141
3 129 141 140
3 130 131 142
3 130 142 141
3 132 133 144
3 132 144 143
3 133 134 145
3 133 145 144
3 134 135 146
3 134 146 145
3 135 136 147
3 135 147 146
3 136 137 148
3 136 148 147
3 137 138 149
3 137 149 148
3 138 139 150
3 138 150 149
3 139 140 151
3 139 151 150
3 140 141 152
3 140 152 151
3 141 142 153
3 141 153 152
3 143 144 155
3 143 155 154
3 144 145 156
3 144 156 155
3 145 146 157
3 145 157 156
3 146 147 158
3 146 158 157
3 147 148 159
3 147 159 158
3 148 149 160
3 148 160 159
3 149 150 161
3 149 161 160
3 150 151 162
3 150 162 161
3 151 152 163
3 151 163 162
3 152 153 164
3 152 164 163
3 154 155 166
3 154 166 165
3 155 156 167
3 155 167 166
3 156 157 168
3 156 168 167
3 157 158 169
3 157 169 168
3 158 159 170
3 158 170 169
3 159 160 171
3 159 171 170
3 160 161 172
3 160 172 171
3 161 162 173
3 161 173 172
3 162 163 174
3 162 174 173
3 163 164 175
3 163 175 174
3 165 166 177
3 165 177 176
3 166 167 178
3 166 178 177
3 167 168 179
3 167 179 178
3 168 169 180
3 168 180 179
3 169 170 181
3 169 181 180
3 170 171 182
3 170 182 181
3 171 172 183
3 171 183 182
3 172 173 184
3 172 184 183
3 173 174 185
3 173 185 184
3 174 175 186
3 174 186 185
3 176 177 188
3 176 188 187
3 177 178 189
3 177 189 188
3 178 179 190
3 178 190 189
3 179 180 191
3 179 191 190
3 180 181 192
3 180 192 191
3 181 182 193
3 181 193 192
3 182 183 194
3 182 194 193
3 183 184 195
3 183 195 194
3 184 185 196
3 184 196 195
3 185 186 197
3 185 197 196
3 187 188 199
3 187 199 198
3 188 189 200
3 188 200 199
3 189 190 201
3 189 201 200
3 190 191 202
3 190 202 201
3 191 192 203
3 191 203 202
3 192 193 204
3 192 204 203
3 193 194 205
3 193 205 204
3 194 195 206
3 194 206 205
3 195 196 207
3 195 207 206
3 196 197 208
3 196 208 207
3 198 199 210
3 198 210 209
3 199 200 211
3 199 211 210
3 200 201 212
3 200 212 211
3 201 202 213
3 201 213 212
3 202 203 214
3 202 214 213
3 203 204 215
3 203 215 214
3 204 205 216
3 204 216 215
3 205 206 217
3 205 217 216
3 206 207 218
3 206 218 217
3 207 208 219
3 207 219 218
3 209 210 221
3 209 221 220
3 210 211 222
3 210 222 221
3 211 212 223
3 211 223 222
3 212 213 224
3 212 224 223
3 213 214 225
3 213 225 224
3 214 215 226
3 214 226 225
3 215 216 227
3 215 227 226
3 216 217 228
3 216 228 227
3 217 218 229
3 217 229 228
3 218 219 230
3 218 230 229
CELL_TYPES 400
5
5
5
5
5
5
5
5
5
5
5
5
5
5
5
5
5
5
5
5
5
5
5
5
5
5
5
5
5
5
5
5
5
5
5
5
5
5
5
5
5
5
5
5
5
5
5
5
5
5
5
5
5
5
5
5
5
5
5
5
5
5
5
5
5
5
5
5
5
5
5
5
5
5
5
5
5
5
5
5
5
5
5
5
5
5
5
5
5
5
5
5
5
5
5
5
5
5
5
5
5
5
5
5
5
5
5
5
5
5
5
5
5
5
5
5
5
5
5
5
5
5
5
5
5
5
5
5
5
5
5
5
5
5
5
5
5
5
5
5
5
5
5
5
5
5
5
5
5
5
5
5
5
5
5
5
5
5
5
5
5
5
5
5
5
5
5
5
5
5
5
5
5
5
5
5
5
5
5
5
5
5
5
5
5
5
5
5
5
5
5
5
5
5
5
5
5
5
5
5
5
5
5
5
5
5
5
5
5
5
5
5
5
5
5
5
5
5
5
5
5
5
5
5
5
5
5
5
5
5
5
5
5
5
5
5
5
5
5
5
5
5
5
5
5
5
5
5
5
5
5
5
5
5
5
5
5
5
5
5
5
5
5
5
5
5
5
5
5
5
5
5
5
5
5
5
5
5
5
5
5
5
5
5
5
5
5
5
5
5
5
5
5
5
5
5
5
5
5
5
5
5
5
5
5
5
5
5
5
5
5
5
5
5
5
5
5
5
5
5
5
5
5
5
5
5
5
5
5
5
5
5
5
5
5
5
5
5
5
5
5
5
5
5
5
5
5
5
5
5
5
5
5
5
5
5
5
5
5
5
5
5
5
5
5
5
5
5
5
5
5
5
5
5
5
5
5
5
5
5
5
5
5
5
5
5
5
5
5
5
5
5
5
5
5
5
5
5
5
5
POINT_DATA 231
SCALARS psi double 1
LOOKUP_TABLE default
1
0.939136
0.793187
0.570491
0.292809
-0.0120805
-0.314069
-0.583914
-0.795829
-0.929037
-0.964631
0.983468
0.927609
0.783866
0.564082
0.289904
-0.0112101
-0.309515
-0.576133
-0.785615
-0.917598
-0.95688
0.943888
0.893023
0.755174
0.543698
0.279727
-0.0102176
-0.297471
-0.554247
-0.75612
-0.883765
-0.924433
0.881937
0.836388
0.707823
0.509815
0.262496
-0.00916375
-0.278267
-0.51882
-0.708065
-0.82822
-0.868375
0.798944
0.759194
0.642987
0.463249
0.238603
-0.0081082
-0.252406
-0.470743
-0.642626
-0.75224
-0.790279
0.69682
0.663402
0.562271
0.405129
0.208609
-0.00710729
-0.220553
-0.411219
-0.561405
-0.65764
-0.692195
0.577988
0.551404
0.467672
0.336873
0.173231
-0.00621221
-0.183515
-0.341724
-0.466393
-0.546716
-0.576625
0.445316
0.425979
0.361525
0.260152
0.133319
-0.00546725
-0.142224
-0.263983
-0.359927
-0.422181
-0.446473
0.302028
0.290225
0.246449
0.176845
0.0898407
-0.00490842
-0.0977137
-0.179918
-0.244622
-0.28709
-0.304981
0.151629
0.147491
0.125281
0.0890002
0.0438562
-0.00456227
-0.0510902
-0.0916057
-0.123316
-0.144765
-0.155659
-0.00219461
0.00129427
0.0010055
-0.0012238
-0.00350883
-0.00444505
-0.00350883
-0.0012238
0.0010055
0.00129427
-0.00219461
-0.155659
-0.144765
-0.123316
-0.0916057
-0.0510902
-0.00456227
0.0438562
0.0890002
0.125281
0.147491
0.151629
-0.304981
-0.28709
-0.244622
-0.179918
-0.0977137
-0.00490842
0.0898407
0.176845
0.246449
0.290225
0.302028
-0.446473
-0.422181
-0.359927
-0.263983
-0.142224
-0.00546725
0.133319
0.260152
0.361525
0.425979
0.445316
-0.576625
-0.546716
-0.466393
-0.341724
-0.183515
-0.00621221
0.173231
0.336873
0.467672
0.551404
0.577988
-0.692195
-0.65764
-0.561405
-0.411219
-0.220553
-0.00710729
0.208609
0.405129
0.562271
0.663402
0.69682
-0.790279
-0.75224
-0.642626
-0.470743
-0.252406
-0.0081082
0.238603
0.463249
0.642987
0.759194
0.798944
-0.868375
-0.82822
-0.708065
-0.51882
-0.278267
-0.00916375
0.262496
0.509815
0.707823
0.836388
0.881937
-0.924433
-0.883765
-0.75612
-0.554247
-0.297471
-0.0102176
0.279727
0.543698
0.755174
0.893023
0.943888
-0.95688
-0.917598
-0.785615
-0.576133
-0.309515
-0.0112101
0.289904
0.564082
0.783866
0.927609
0.983468
-0.964631
-0.929037
-0.795829
-0.583914
-0.314069
-0.0120805
0.292809
0.570491
0.793187
0.939136
1
VECTORS Et double
0.0928331 -0.0965469 0
0.0714082 -0.193307 0
0.055256 -0.324476 0
0.034681 -0.427111 0
0.0108959 -0.487289 0
-0.0138842 -0.499144 0
-0.0372516 -0.462345 0
-0.0568549 -0.38117 0
-0.070289 -0.26309 0
-0.0675585 -0.114743 0
-0.0512867 -0.0588811 0
0.200055 -0.0896526 0
0.151585 -0.164854 0
0.119037 -0.299006 0
0.0806021 -0.406565 0
0.0348289 -0.473735 0
-0.0141881 -0.493799 0
-0.0617068 -0.465573 0
-0.102988 -0.392594 0
-0.133482 -0.281915 0
-0.146908 -0.142381 0
-0.113896 -0.062949 0
0.34887 -0.0812133 0
0.297081 -0.15491 0
0.243238 -0.286853 0
0.170343 -0.390962 0
0.0817744 -0.455939 0
-0.0144696 -0.4755 0
-0.109091 -0.448564 0
-0.192696 -0.378599 0
-0.256447 -0.272591 0
-0.291496 -0.140274 0
-0.269843 -0.0665122 0
0.48997 -0.0721535 0
0.435016 -0.142075 0
0.36127 -0.267644 0
0.256018 -0.365811 0
0.126913 -0.426982 0
-0.0141694 -0.44549 0
-0.153584 -0.420437 0
-0.277534 -0.35519 0
-0.373201 -0.256493 0
-0.429233 -0.134081 0
-0.418421 -0.0667113 0
0.619605 -0.0622658 0
0.562103 -0.126441 0
0.470277 -0.241966 0
0.335491 -0.331766 0
0.16911 -0.387585 0
-0.0133151 -0.404506 0
-0.194113 -0.381875 0
-0.355434 -0.32291 0
-0.480843 -0.233936 0
-0.556593 -0.124075 0
-0.556194 -0.0640944 0
0.734399 -0.0515141 0
0.675282 -0.10824 0
0.567616 -0.210522 0
0.406784 -0.289694 0
0.207302 -0.338732 0
-0.0119511 -0.353558 0
-0.2297 -0.333815 0
-0.424492 -0.282527 0
-0.576699 -0.20542 0
-0.670359 -0.11059 0
-0.679919 -0.0590852 0
0.831398 -0.0399814 0
0.771805 -0.0878162 0
0.650918 -0.174132 0
0.468125 -0.240659 0
0.240524 -0.281636 0
-0.0101375 -0.293901 0
-0.259494 -0.277431 0
-0.483023 -0.235009 0
-0.658389 -0.171611 0
-0.767676 -0.0940156 0
-0.786658 -0.0520398 0
0.908123 -0.0278347 0
0.849318 -0.0656038 0
0.718155 -0.133719 0
0.51799 -0.185891 0
0.267931 -0.217712 0
-0.00794743 -0.227005 0
-0.282786 -0.214103 0
-0.529599 -0.181507 0
-0.723887 -0.133317 0
-0.846121 -0.0748028 0
-0.873855 -0.0432829 0
0.962619 -0.0152992 0
0.905921 -0.0421031 0
0.767684 -0.0902946 0
0.555137 -0.126755 0
0.288822 -0.148543 0
-0.00546511 -0.154516 0
-0.299028 -0.145382 0
-0.563087 -0.123323 0
-0.771572 -0.0914643 0
-0.903746 -0.0534521 0
-0.939423 -0.0331264 0
0.993496 -0.00263937 0
0.940225 -0.017863 0
0.798297 -0.0449377 0
0.578637 -0.0647205 0
0.302653 -0.0758394 0
-0.00278318 -0.0782216 0
-0.307849 -0.0729559 0
-0.582676 -0.0618775 0
-0.800261 -0.0470733 0
-0.939125 -0.030506 0
-0.98179 -0.0218802 0
0.999951 0.00985504 0
0.951385 0.00653761 0
0.809244 0.00123069 0
0.587898 -0.0013217 0
0.309058 -0.0013947 0
1.09247e-13 5.85424e-15 0
-0.309058 0.0013947 0
-0.587898 0.0013217 0
-0.809244 -0.00123069 0
-0.951385 -0.00653761 0
-0.999951 -0.00985504 0
0.98179 0.0218802 0
0.939125 0.030506 0
0.800261 0.0470733 0
0.582676 0.0618775 0
0.307849 0.0729559 0
0.00278318 0.0782216 0
-0.302653 0.0758394 0
-0.578637 0.0647205 0
-0.798297 0.0449377 0
-0.940225 0.017863 0
-0.993496 0.00263937 0
0.939423 0.0331264 0
0.903746 0.0534521 0
0.771572 0.0914643 0
0.563087 0.123323 0
0.299028 0.145382 0
0.00546511 0.154516 0
-0.288822 0.148543 0
-0.555137 0.126755 0
-0.767684 0.0902946 0
-0.905921 0.0421031 0
-0.962619 0.0152992 0
0.873855 0.0432829 0
0.846121 0.0748028 0
0.723887 0.133317 0
0.529599 0.181507 0
0.282786 0.214103 0
0.00794743 0.227005 0
-0.267931 0.217712 0
-0.51799 0.185891 0
-0.718155 0.133719 0
-0.849318 0.0656038 0
-0.908123 0.0278347 0
0.786658 0.0520398 0
0.767676 0.0940156 0
0.658389 0.171611 0
0.483023 0.235009 0
0.259494 0.277431 0
0.0101375 0.293901 0
-0.240524 0.281636 0
-0.468125 0.240659 0
-0.650918 0.174132 0
-0.771805 0.0878162 0
-0.831398 0.0399814 0
0.679919 0.0590852 0
0.670359 0.11059 0
0.576699 0.20542 0
0.424492 0.282527 0
0.2297 0.333815 0
0.0119511 0.353558 0
-0.207302 0.338732 0
-0.406784 0.289694 0
-0.567616 0.210522 0
-0.675282 0.10824 0
-0.734399 0.0515141 0
0.556194 0.0640944 0
0.556593 0.124075 0
0.480843 0.233936 0
0.355434 0.32291 0
0.194113 0.381875 0
0.0133151 0.404506 0
-0.16911 0.387585 0
-0.335491 0.331766 0
-0.470277 0.241966 0
-0.562103 0.126441 0
-0.619605 0.0622658 0
0.418421 0.0667113 0
0.429233 0.134081 0
0.373201 0.256493 0
0.277534 0.35519 0
0.153584 0.420437 0
0.0141694 0.44549 0
-0.126913 0.426982 0
-0.256018 0.365811 0
-0.36127 0.267644 0
-0.435016 0.142075 0
-0.48997 0.0721535 0
0.269843 0.0665122 0
0.291496 0.140274 0
0.256447 0.272591 0
0.192696 0.378599 0
0.109091 0.448564 0
0.0144696 0.4755 0
-0.0817744 0.455939 0
-0.170343 0.390962 0
-0.243238 0.286853 0
-0.297081 0.15491 0
-0.34887 0.0812133 0
0.113896 0.062949 0
0.146908 0.142381 0
0.133482 0.281915 0
0.102988 0.392594 0
0.0617068 0.465573 0
0.0141881 0.493799 0
-0.0348289 0.473735 0
-0.0806021 0.406565 0
-0.119037 0.299006 0
-0.151585 0.164854 0
-0.200055 0.0896526 0
0.0512867 0.0588811 0
0.0675585 0.114743 0
0.070289 0.26309 0
0.0568549 0.38117 0
0.0372516 0.462345 0
0.0138842 0.499144 0
-0.0108959 0.487289 0
-0.034681 0.427111 0
-0.055256 0.324476 0
-0.0714082 0.193307 0
-0.0928331 0.0965469 0
