# vtk DataFile Version 3.0
tp3485 scalar+vector
ASCII
DATASET UNSTRUCTURED_GRID
POINTS 231 double
0 0 0
0.1 0 0
0.2 0 0
0.3 0 0
0.4 0 0
0.5 0 0
0.6 0 0
0.7 0 0
0.8 0 0
0.9 0 0
1 0 0
0 0.025 0
0.1 0.025 0
0.2 0.025 0
0.3 0.025 0
0.4 0.025 0
0.5 0.025 0
0.6 0.025 0
0.7 0.025 0
0.8 0.025 0
0.9 0.025 0
1 0.025 0
0 0.05 0
0.1 0.05 0
0.2 0.05 0
0.3 0.05 0
0.4 0.05 0
0.5 0.05 0
0.6 0.05 0
0.7 0.05 0
0.8 0.05 0
0.9 0.05 0
1 0.05 0
0 0.075 0
0.1 0.075 0
0.2 0.075 0
0.3 0.075 0
0.4 0.075 0
0.5 0.075 0
0.6 0.075 0
0.7 0.075 0
0.8 0.075 0
0.9 0.075 0
1 0.075 0
0 0.1 0
0.1 0.1 0
0.2 0.1 0
0.3 0.1 0
0.4 0.1 0
0.5 0.1 0
0.6 0.1 0
0.7 0.1 0
0.8 0.1 0
0.9 0.1 0
1 0.1 0
0 0.125 0
0.1 0.125 0
0.2 0.125 0
0.3 0.125 0
0.4 0.125 0
0.5 0.125 0
0.6 0.125 0
0.7 0.125 0
0.8 0.125 0
0.9 0.125 0
1 0.125 0
0 0.15 0
0.1 0.15 0
0.2 0.15 0
0.3 0.15 0
0.4 0.15 0
0.5 0.15 0
0.6 0.15 0
0.7 0.15 0
0.8 0.15 0
0.9 0.15 0
1 0.15 0
0 0.175 0
0.1 0.175 0
0.2 0.175 0
0.3 0.175 0
0.4 0.175 0
0.5 0.175 0
0.6 0.175 0
0.7 0.175 0
0.8 0.175 0
0.9 0.175 0
1 0.175 0
0 0.2 0
0.1 0.2 0
0.2 0.2 0
0.3 0.2 0
0.4 0.2 0
0.5 0.2 0
0.6 0.2 0
0.7 0.2 0
0.8 0.2 0
0.9 0.2 0
1 0.2 0
0 0.225 0
0.1 0.225 0
0.2 0.225 0
0.3 0.225 0
0.4 0.225 0
0.5 0.225 0
0.6 0.225 0
0.7 0.225 0
0.8 0.225 0
0.9 0.225 0
1 0.225 0
0 0.25 0
0.1 0.25 0
0.2 0.25 0
0.3 0.25 0
0.4 0.25 0
0.5 0.25 0
0.6 0.25 0
0.7 0.25 0
0.8 0.25 0
0.9 0.25 0
1 0.25 0
0 0.275 0
0.1 0.275 0
0.2 0.275 0
0.3 0.275 0
0.4 0.275 0
0.5 0.275 0
0.6 0.275 0
0.7 0.275 0
0.8 0.275 0
0.9 0.275 0
1 0.275 0
0 0.3 0
0.1 0.3 0
0.2 0.3 0
0.3 0.3 0
0.4 0.3 0
0.5 0.3 0
0.6 0.3 0
0.7 0.3 0
0.8 0.3 0
0.9 0.3 0
1 0.3 0
0 0.325 0
0.1 0.325 0
0.2 0.325 0
0.3 0.325 0
0.4 0.325 0
0.5 0.325 0
0.6 0.325 0
0.7 0.325 0
0.8 0.325 0
0.9 0.325 0
1 0.325 0
0 0.35 0
0.1 0.35 0
0.2 0.35 0
0.3 0.35 0
0.4 0.35 0
0.5 0.35 0
0.6 0.35 0
0.7 0.35 0
0.8 0.35 0
0.9 0.35 0
1 0.35 0
0 0.375 0
0.1 0.375 0
0.2 0.375 0
0.3 0.375 0
0.4 0.375 0
0.5 0.375 0
0.6 0.375 0
0.7 0.375 0
0.8 0.375 0
0.9 0.375 0
1 0.375 0
0 0.4 0
0.1 0.4 0
0.2 0.4 0
0.3 0.4 0
0.4 0.4 0
0.5 0.4 0
0.6 0.4 0
0.7 0.4 0
0.8 0.4 0
0.9 0.4 0
1 0.4 0
0 0.425 0
0.1 0.425 0
0.2 0.425 0
0.3 0.425 0
0.4 0.425 0
0.5 0.425 0
0.6 0.425 0
0.7 0.425 0
0.8 0.425 0
0.9 0.425 0
1 0.425 0
0 0.45 0
0.1 0.45 0
0.2 0.45 0
0.3 0.45 0
0.4 0.45 0
0.5 0.45 0
0.6 0.45 0
0.7 0.45 0
0.8 0.45 0
0.9 0.45 0
1 0.45 0
0 0.475 0
0.1 0.475 0
0.2 0.475 0
0.3 0.475 0
0.4 0.475 0
0.5 0.475 0
0.6 0.475 0
0.7 0.475 0
0.8 0.475 0
0.9 0.475 0
1 0.475 0
0 0.5 0
0.1 0.5 0
0.2 0.5 0
0.3 0.5 0
0.4 0.5 0
0.5 0.5 0
0.6 0.5 0
0.7 0.5 0
0.8 0.5 0
0.9 0.5 0
1 0.5 0
CELLS 400 1600
3 0 1 12
3 0 12 11
3 1 2 13
3 1 13 12
3 2 3 14
3 2 14 13
3 3 4 15
3 3 15 14
3 4 5 16
3 4 16 15
3 5 6 17
3 5 17 16
3 6 7 18
3 6 18 17
3 7 8 19
3 7 19 18
3 8 9 20
3 8 20 19
3 9 10 21
3 9 21 20
3 11 12 23
3 11 23 22
3 12 13 24
3 12 24 23
3 13 14 25
3 13 25 24
3 14 15 26
3 14 26 25
3 15 16 27
3 15 27 26
3 16 17 28
3 16 28 27
3 17 18 29
3 17 29 28
3 18 19 30
3 18 30 29
3 19 20 31
3 19 31 30
3 20 21 32
3 20 32 31
3 22 23 34
3 22 34 33
3 23 24 35
3 23 35 34
3 24 25 36
3 24 36 35
3 25 26 37
3 25 37 36
3 26 27 38
3 26 38 37
3 27 28 39
3 27 39 38
3 28 29 40
3 28 40 39
3 29 30 41
3 29 41 40
3 30 31 42
3 30 42 41
3 31 32 43
3 31 43 42
3 33 34 45
3 33 45 44
3 34 35 46
3 34 46 45
3 35 36 47
3 35 47 46
3 36 37 48
3 36 48 47
3 37 38 49
3 37 49 48
3 38 39 50
3 38 50 49
3 39 40 51
3 39 51 50
3 40 41 52
3 40 52 51
3 41 42 53
3 41 53 52
3 42 43 54
3 42 54 53
3 44 45 56
3 44 56 55
3 45 46 57
3 45 57 56
3 46 47 58
3 46 58 57
3 47 48 59
3 47 59 58
3 48 49 60
3 48 60 59
3 49 50 61
3 49 61 60
3 50 51 62
3 50 62 61
3 51 52 63
3 51 63 62
3 52 53 64
3 52 64 63
3 53 54 65
3 53 65 64
3 55 56 67
3 55 67 66
3 56 57 68
3 56 68 67
3 57 58 69
3 57 69 68
3 58 59 70
3 58 70 69
3 59 60 71
3 59 71 70
3 60 61 72
3 60 72 71
3 61 62 73
3 61 73 72
3 62 63 74
3 62 74 73
3 63 64 75
3 63 75 74
3 64 65 76
3 64 76 75
3 66 67 78
3 66 78 77
3 67 68 79
3 67 79 78
3 68 69 80
3 68 80 79
3 69 70 81
3 69 81 80
3 70 71 82
3 70 82 81
3 71 72 83
3 71 83 82
3 72 73 84
3 72 84 83
3 73 74 85
3 73 85 84
3 74 75 86
3 74 86 85
3 75 76 87
3 75 87 86
3 77 78 89
3 77 89 88
3 78 79 90
3 78 90 89
3 79 80 91
3 79 91 90
3 80 81 92
3 80 92 91
3 81 82 93
3 81 93 92
3 82 83 94
3 82 94 93
3 83 84 95
3 83 95 94
3 84 85 96
3 84 96 95
3 85 86 97
3 85 97 96
3 86 87 98
3 86 98 97
3 88 89 100
3 88 100 99
3 89 90 101
3 89 101 100
3 90 91 102
3 90 102 101
3 91 92 103
3 91 103 102
3 92 93 104
3 92 104 103
3 93 94 105
3 93 105 104
3 94 95 106
3 94 106 105
3 95 96 107
3 95 107 106
3 96 97 108
3 96 108 107
3 97 98 109
3 97 109 108
3 99 100 111
3 99 111 110
3 100 101 112
3 100 112 111
3 101 102 113
3 101 113 112
3 102 103 114
3 102 114 113
3 103 104 115
3 103 115 114
3 104 105 116
3 104 116 115
3 105 106 117
3 105 117 116
3 106 107 118
3 106 118 117
3 107 108 119
3 107 119 118
3 108 109 120
3 108 120 119
3 110 111 122
3 110 122 121
3 111 112 123
3 111 123 122
3 112 113 124
3 112 124 123
3 113 114 125
3 113 125 124
3 114 115 126
3 114 126 125
3 115 116 127
3 115 127 126
3 116 117 128
3 116 128 127
3 117 118 129
3 117 129 128
3 118 119 130
3 118 130 129
3 119 120 131
3 119 131 130
3 121 122 133
3 121 133 132
3 122 123 134
3 122 134 133
3 123 124 135
3 123 135 134
3 124 125 136
3 124 136 135
3 125 126 137
3 125 137 136
3 126 127 138
3 126 138 137
3 127 128 139
3 127 139 138
3 128 129 140
3 128 140 139
3 129 130 141
3 129 141 140
3 130 131 142
3 130 142 141
3 132 133 144
3 132 144 143
3 133 134 145
3 133 145 144
3 134 135 146
3 134 146 145
3 135 136 147
3 135 147 146
3 136 137 148
3 136 148 147
3 137 138 149
3 137 149 148
3 138 139 150
3 138 150 149
3 139 140 151
3 139 151 150
3 140 141 152
3 140 152 151
3 141 142 153
3 141 153 152
3 143 144 155
3 143 155 154
3 144 145 156
3 144 156 155
3 145 146 157
3 145 157 156
3 146 147 158
3 146 158 157
3 147 148 159
3 147 159 158
3 148 149 160
3 148 160 159
3 149 150 161
3 149 161 160
3 150 151 162
3 150 162 161
3 151 152 163
3 151 163 162
3 152 153 164
3 152 164 163
3 154 155 166
3 154 166 165
3 155 156 167
3 155 167 166
3 156 157 168
3 156 168 167
3 157 158 169
3 157 169 168
3 158 159 170
3 158 170 169
3 159 160 171
3 159 171 170
3 160 161 172
3 160 172 171
3 161 162 173
3 161 173 172
3 162 163 174
3 162 174 173
3 163 164 175
3 163 175 174
3 165 166 177
3 165 177 176
3 166 167 178
3 166 178 177
3 167 168 179
3 167 179 178
3 168 169 180
3 168 180 179
3 169 170 181
3 169 181 180
3 170 171 182
3 170 182 181
3 171 172 183
3 171 183 182
3 172 173 184
3 172 184 183
3 173 174 185
3 173 185 184
3 174 175 186
3 174 186 185
3 176 177 188
3 176 188 187
3 177 178 189
3 177 189 188
3 178 179 190
3 178 190 189
3 179 180 191
3 179 191 190
3 180 181 192
3 180 192 191
3 181 182 193
3 181 193 192
3 182 183 194
3 182 194 193
3 183 184 195
3 183 195 194
3 184 185 196
3 184 196 195
3 185 186 197
3 185 197 196
3 187 188 199
3 187 199 198
3 188 189 200
3 188 200 199
3 189 190 201
3 189 201 200
3 190 191 202
3 190 202 201
3 191 192 203
3 191 203 202
3 192 193 204
3 192 204 203
3 193 194 205
3 193 205 204
3 194 195 206
3 194 206 205
3 195 196 207
3 195 207 206
3 196 197 208
3 196 208 207
3 198 199 210
3 198 210 209
3 199 200 211
3 199 211 210
3 200 201 212
3 200 212 211
3 201 202 213
3 201 213 212
3 202 203 214
3 202 214 213
3 203 204 215
3 203 215 214
3 204 205 216
3 204 216 215
3 205 206 217
3 205 217 216
3 206 207 218
3 206 218 217
3 207 208 219
3 207 219 218
3 209 210 221
3 209 221 220
3 210 211 222
3 210 222 221
3 211 212 223
3 211 223 222
3 212 213 224
3 212 224 223
3 213 214 225
3 213 225 224
3 214 215 226
3 214 226 225
3 215 216 227
3 215 227 226
3 216 217 228
3 216 228 227
3 217 218 229
3 217 229 228
3 218 219 230
3 218 230 229
CELL_TYPES 400
5
5
5
5
5
5
5
5
5
5
5
5
5
5
5
5
5
5
5
5
5
5
5
5
5
5
5
5
5
5
5
5
5
5
5
5
5
5
5
5
5
5
5
5
5
5
5
5
5
5
5
5
5
5
5
5
5
5
5
5
5
5
5
5
5
5
5
5
5
5
5
5
5
5
5
5
5
5
5
5
5
5
5
5
5
5
5
5
5
5
5
5
5
5
5
5
5
5
5
5
5
5
5
5
5
5
5
5
5
5
5
5
5
5
5
5
5
5
5
5
5
5
5
5
5
5
5
5
5
5
5
5
5
5
5
5
5
5
5
5
5
5
5
5
5
5
5
5
5
5
5
5
5
5
5
5
5
5
5
5
5
5
5
5
5
5
5
5
5
5
5
5
5
5
5
5
5
5
5
5
5
5
5
5
5
5
5
5
5
5
5
5
5
5
5
5
5
5
5
5
5
5
5
5
5
5
5
5
5
5
5
5
5
5
5
5
5
5
5
5
5
5
5
5
5
5
5
5
5
5
5
5
5
5
5
5
5
5
5
5
5
5
5
5
5
5
5
5
5
5
5
5
5
5
5
5
5
5
5
5
5
5
5
5
5
5
5
5
5
5
5
5
5
5
5
5
5
5
5
5
5
5
5
5
5
5
5
5
5
5
5
5
5
5
5
5
5
5
5
5
5
5
5
5
5
5
5
5
5
5
5
5
5
5
5
5
5
5
5
5
5
5
5
5
5
5
5
5
5
5
5
5
5
5
5
5
5
5
5
5
5
5
5
5
5
5
5
5
5
5
5
5
5
5
5
5
5
5
5
5
5
5
5
5
5
5
5
5
5
5
5
5
5
5
5
5
5
5
5
5
5
5
5
5
5
5
5
5
5
5
5
5
5
5
5
5
5
5
5
5
POINT_DATA 231
SCALARS psi double 1
LOOKUP_TABLE default
-1
-0.285061
0.78684
0.76705
-0.292972
-0.927942
-0.283194
0.728981
0.713629
-0.281412
-0.849906
-0.989912
-0.291808
0.782112
0.771198
-0.285938
-0.927829
-0.289873
0.725141
0.718001
-0.275606
-0.858884
-0.982034
-0.296219
0.777638
0.773699
-0.280493
-0.927439
-0.294643
0.722834
0.721857
-0.272068
-0.866136
-0.975298
-0.29881
0.773385
0.774616
-0.276615
-0.926837
-0.297599
0.722038
0.725321
-0.270361
-0.872633
-0.968979
-0.299921
0.769307
0.77404
-0.274249
-0.926098
-0.298883
0.722694
0.72852
-0.27016
-0.879007
-0.962608
-0.299794
0.765364
0.772095
-0.273306
-0.925299
-0.298684
0.724695
0.731568
-0.271201
-0.885636
-0.955907
-0.298617
0.761529
0.768938
-0.273658
-0.924519
-0.297226
0.727896
0.734563
-0.273245
-0.892703
-0.948749
-0.296561
0.757788
0.764763
-0.275143
-0.923827
-0.294768
0.732108
0.737578
-0.276061
-0.900252
-0.941122
-0.293794
0.754142
0.75979
-0.277562
-0.923285
-0.291589
0.737109
0.740666
-0.279421
-0.908218
-0.933101
-0.290497
0.750598
0.754267
-0.280684
-0.922941
-0.287984
0.74265
0.743857
-0.283096
-0.916467
-0.924824
-0.286861
0.747168
0.748461
-0.284251
-0.922823
-0.284251
0.748461
0.747168
-0.286861
-0.924824
-0.916467
-0.283096
0.743857
0.74265
-0.287984
-0.922941
-0.280684
0.754267
0.750598
-0.290497
-0.933101
-0.908218
-0.279421
0.740666
0.737109
-0.291589
-0.923285
-0.277562
0.75979
0.754142
-0.293794
-0.941122
-0.900252
-0.276061
0.737578
0.732108
-0.294768
-0.923827
-0.275143
0.764763
0.757788
-0.296561
-0.948749
-0.892703
-0.273245
0.734563
0.727896
-0.297226
-0.924519
-0.273658
0.768938
0.761529
-0.298617
-0.955907
-0.885636
-0.271201
0.731568
0.724695
-0.298684
-0.925299
-0.273306
0.772095
0.765364
-0.299794
-0.962608
-0.879007
-0.27016
0.72852
0.722694
-0.298883
-0.926098
-0.274249
0.77404
0.769307
-0.299921
-0.968979
-0.872633
-0.270361
0.725321
0.722038
-0.297599
-0.926837
-0.276615
0.774616
0.773385
-0.29881
-0.975298
-0.866136
-0.272068
0.721857
0.722834
-0.294643
-0.927439
-0.280493
0.773699
0.777638
-0.296219
-0.982034
-0.858884
-0.275606
0.718001
0.725141
-0.289873
-0.927829
-0.285938
0.771198
0.782112
-0.291808
-0.989912
-0.849906
-0.281412
0.713629
0.728981
-0.283194
-0.927942
-0.292972
0.76705
0.78684
-0.285061
-1
VECTORS Et double
-0.00700454 0.74067 0
0.0254715 0.999676 0
0.0074189 0.36384 0
-0.021429 -0.746744 0
-0.0198201 -0.81661 0
0.0090211 0.226347 0
0.0240373 0.933692 0
0.00462232 0.345839 0
-0.0203385 -0.700286 0
-0.00368219 -0.750191 0
0.0376505 -0.59597 0
-0.018947 0.72755 0
0.0116737 0.931765 0
0.0158305 0.558058 0
-0.00979578 -0.560872 0
-0.0206151 -0.89196 0
-0.00228478 -0.00175462 0
0.0175368 0.868048 0
0.0105648 0.528874 0
-0.0112904 -0.526048 0
-0.0110491 -0.828686 0
0.0145705 -0.606303 0
-0.016806 0.715702 0
0.00725365 0.924217 0
0.0146407 0.561729 0
-0.0043602 -0.555338 0
-0.0152006 -0.892766 0
-0.00312685 -0.00715522 0
0.011082 0.866296 0
0.00525007 0.533129 0
-0.00981204 -0.522878 0
-0.00548608 -0.83375 0
0.0142724 -0.619011 0
-0.0166939 0.706587 0
0.00331695 0.917712 0
0.0138574 0.563556 0
0.000843267 -0.550764 0
-0.00988447 -0.892646 0
-0.0036871 -0.0107801 0
0.0050483 0.865245 0
2.60291e-05 0.536247 0
-0.00889696 -0.52145 0
-0.000632666 -0.838435 0
0.0156046 -0.628515 0
-0.0179154 0.699213 0
-0.000284828 0.911738 0
0.0133471 0.563801 0
0.00571455 -0.547104 0
-0.00478066 -0.891694 0
-0.00394202 -0.0127327 0
-0.000398913 0.864909 0
-0.00494702 0.538374 0
-0.00846297 -0.521579 0
0.00357173 -0.843064 0
0.0178942 -0.635977 0
-0.0199163 0.692919 0
-0.00359489 0.90596 0
0.0129896 0.562678 0
0.0101321 -0.544295 0
-1.26417e-05 -0.890023 0
-0.00388542 -0.0131586 0
-0.00511103 0.865281 0
-0.00950411 0.539672 0
-0.00841825 -0.523078 0
0.00712034 -0.847847 0
0.020599 -0.642179 0
-0.0222455 0.687276 0
-0.00658769 0.900174 0
0.0126863 0.560376 0
0.0139665 -0.542258 0
0.00428985 -0.887763 0
-0.00353008 -0.0122428 0
-0.00896284 0.866328 0
-0.0134869 0.540315 0
-0.00866916 -0.525747 0
0.00997537 -0.852905 0
0.0232867 -0.647643 0
-0.0245335 0.682012 0
-0.00919584 0.89428 0
0.0123637 0.557091 0
0.0170928 -0.540905 0
0.00799593 -0.885055 0
-0.00290775 -0.0102062 0
-0.011858 0.867995 0
-0.0167536 0.54048 0
-0.00912533 -0.529365 0
0.0120933 -0.858281 0
0.0256223 -0.652706 0
-0.0264821 0.676964 0
-0.0113307 0.888254 0
0.0119753 0.553028 0
0.0194009 -0.540133 0
0.0109798 -0.882052 0
-0.00206768 -0.0073003 0
-0.013733 0.8702 0
-0.0191871 0.540344 0
-0.00970326 -0.533696 0
0.0134418 -0.863962 0
0.027362 -0.657579 0
-0.027862 0.672041 0
-0.0128989 0.882129 0
0.0115006 0.54841 0
0.020804 -0.539826 0
0.0131276 -0.878911 0
-0.00107368 -0.00380071 0
-0.0145595 0.87284 0
-0.0207013 0.540081 0
-0.0103295 -0.538487 0
0.0140102 -0.869888 0
0.0283497 -0.662385 0
-0.0285133 0.667192 0
-0.0138147 0.875976 0
0.0109435 0.543479 0
0.021245 -0.539857 0
0.0143442 -0.87579 0
-2.27843e-14 -8.80186e-15 0
-0.0143442 0.87579 0
-0.021245 0.539857 0
-0.0109435 -0.543479 0
0.0138147 -0.875976 0
0.0285133 -0.667192 0
-0.0283497 0.662385 0
-0.0140102 0.869888 0
0.0103295 0.538487 0
0.0207013 -0.540081 0
0.0145595 -0.87284 0
0.00107368 0.00380071 0
-0.0131276 0.878911 0
-0.020804 0.539826 0
-0.0115006 -0.54841 0
0.0128989 -0.882129 0
0.027862 -0.672041 0
-0.027362 0.657579 0
-0.0134418 0.863962 0
0.00970326 0.533696 0
0.0191871 -0.540344 0
0.013733 -0.8702 0
0.00206768 0.0073003 0
-0.0109798 0.882052 0
-0.0194009 0.540133 0
-0.0119753 -0.553028 0
0.0113307 -0.888254 0
0.0264821 -0.676964 0
-0.0256223 0.652706 0
-0.0120933 0.858281 0
0.00912533 0.529365 0
0.0167536 -0.54048 0
0.011858 -0.867995 0
0.00290775 0.0102062 0
-0.00799593 0.885055 0
-0.0170928 0.540905 0
-0.0123637 -0.557091 0
0.00919584 -0.89428 0
0.0245335 -0.682012 0
-0.0232867 0.647643 0
-0.00997537 0.852905 0
0.00866916 0.525747 0
0.0134869 -0.540315 0
0.00896284 -0.866328 0
0.00353008 0.0122428 0
-0.00428985 0.887763 0
-0.0139665 0.542258 0
-0.0126863 -0.560376 0
0.00658769 -0.900174 0
0.0222455 -0.687276 0
-0.020599 0.642179 0
-0.00712034 0.847847 0
0.00841825 0.523078 0
0.00950411 -0.539672 0
0.00511103 -0.865281 0
0.00388542 0.0131586 0
1.26417e-05 0.890023 0
-0.0101321 0.544295 0
-0.0129896 -0.562678 0
0.00359489 -0.90596 0
0.0199163 -0.692919 0
-0.0178942 0.635977 0
-0.00357173 0.843064 0
0.00846297 0.521579 0
0.00494702 -0.538374 0
0.000398913 -0.864909 0
0.00394202 0.0127327 0
0.00478066 0.891694 0
-0.00571455 0.547104 0
-0.0133471 -0.563801 0
0.000284828 -0.911738 0
0.0179154 -0.699213 0
-0.0156046 0.628515 0
0.000632666 0.838435 0
0.00889696 0.52145 0
-2.60291e-05 -0.536247 0
-0.0050483 -0.865245 0
0.0036871 0.0107801 0
0.00988447 0.892646 0
-0.000843267 0.550764 0
-0.0138574 -0.563556 0
-0.00331695 -0.917712 0
0.0166939 -0.706587 0
-0.0142724 0.619011 0
0.00548608 0.83375 0
0.00981204 0.522878 0
-0.00525007 -0.533129 0
-0.011082 -0.866296 0
0.00312685 0.00715522 0
0.0152006 0.892766 0
0.0043602 0.555338 0
-0.0146407 -0.561729 0
-0.00725365 -0.924217 0
0.016806 -0.715702 0
-0.0145705 0.606303 0
0.0110491 0.828686 0
0.0112904 0.526048 0
-0.0105648 -0.528874 0
-0.0175368 -0.868048 0
0.00228478 0.00175462 0
0.0206151 0.89196 0
0.00979578 0.560872 0
-0.0158305 -0.558058 0
-0.0116737 -0.931765 0
0.018947 -0.72755 0
-0.0376505 0.59597 0
0.00368219 0.750191 0
0.0203385 0.700286 0
-0.00462232 -0.345839 0
-0.0240373 -0.933692 0
-0.0090211 -0.226347 0
0.0198201 0.81661 0
0.021429 0.746744 0
-0.0074189 -0.36384 0
-0.0254715 -0.999676 0
0.00700454 -0.74067 0
