# vtk DataFile Version 3.0
tp3485 scalar+vector
ASCII
DATASET UNSTRUCTURED_GRID
POINTS 231 double
0 0 0
0.1 0 0
0.2 0 0
0.3 0 0
0.4 0 0
0.5 0 0
0.6 0 0
0.7 0 0
0.8 0 0
0.9 0 0
1 0 0
0 0.025 0
0.1 0.025 0
0.2 0.025 0
0.3 0.025 0
0.4 0.025 0
0.5 0.025 0
0.6 0.025 0
0.7 0.025 0
0.8 0.025 0
0.9 0.025 0
1 0.025 0
0 0.05 0
0.1 0.05 0
0.2 0.05 0
0.3 0.05 0
0.4 0.05 0
0.5 0.05 0
0.6 0.05 0
0.7 0.05 0
0.8 0.05 0
0.9 0.05 0
1 0.05 0
0 0.075 0
0.1 0.075 0
0.2 0.075 0
0.3 0.075 0
0.4 0.075 0
0.5 0.075 0
0.6 0.075 0
0.7 0.075 0
0.8 0.075 0
0.9 0.075 0
1 0.075 0
0 0.1 0
0.1 0.1 0
0.2 0.1 0
0.3 0.1 0
0.4 0.1 0
0.5 0.1 0
0.6 0.1 0
0.7 0.1 0
0.8 0.1 0
0.9 0.1 0
1 0.1 0
0 0.125 0
0.1 0.125 0
0.2 0.125 0
0.3 0.125 0
0.4 0.125 0
0.5 0.125 0
0.6 0.125 0
0.7 0.125 0
0.8 0.125 0
0.9 0.125 0
1 0.125 0
0 0.15 0
0.1 0.15 0
0.2 0.15 0
0.3 0.15 0
0.4 0.15 0
0.5 0.15 0
0.6 0.15 0
0.7 0.15 0
0.8 0.15 0
0.9 0.15 0
1 0.15 0
0 0.175 0
0.1 0.175 0
0.2 0.175 0
0.3 0.175 0
0.4 0.175 0
0.5 0.175 0
0.6 0.175 0
0.7 0.175 0
0.8 0.175 0
0.9 0.175 0
1 0.175 0
0 0.2 0
0.1 0.2 0
0.2 0.2 0
0.3 0.2 0
0.4 0.2 0
0.5 0.2 0
0.6 0.2 0
0.7 0.2 0
0.8 0.2 0
0.9 0.2 0
1 0.2 0
0 0.225 0
0.1 0.225 0
0.2 0.225 0
0.3 0.225 0
0.4 0.225 0
0.5 0.225 0
0.6 0.225 0
0.7 0.225 0
0.8 0.225 0
0.9 0.225 0
1 0.225 0
0 0.25 0
0.1 0.25 0
0.2 0.25 0
0.3 0.25 0
0.4 0.25 0
0.5 0.25 0
0.6 0.25 0
0.7 0.25 0
0.8 0.25 0
0.9 0.25 0
1 0.25 0
0 0.275 0
0.1 0.275 0
0.2 0.275 0
0.3 0.275 0
0.4 0.275 0
0.5 0.275 0
0.6 0.275 0
0.7 0.275 0
0.8 0.275 0
0.9 0.275 0
1 0.275 0
0 0.3 0
0.1 0.3 0
0.2 0.3 0
0.3 0.3 0
0.4 0.3 0
0.5 0.3 0
0.6 0.3 0
0.7 0.3 0
0.8 0.3 0
0.9 0.3 0
1 0.3 0
0 0.325 0
0.1 0.325 0
0.2 0.325 0
0.3 0.325 0
0.4 0.325 0
0.5 0.325 0
0.6 0.325 0
0.7 0.325 0
0.8 0.325 0
0.9 0.325 0
1 0.325 0
0 0.35 0
0.1 0.35 0
0.2 0.35 0
0.3 0.35 0
0.4 0.35 0
0.5 0.35 0
0.6 0.35 0
0.7 0.35 0
0.8 0.35 0
0.9 0.35 0
1 0.35 0
0 0.375 0
0.1 0.375 0
0.2 0.375 0
0.3 0.375 0
0.4 0.375 0
0.5 0.375 0
0.6 0.375 0
0.7 0.375 0
0.8 0.375 0
0.9 0.375 0
1 0.375 0
0 0.4 0
0.1 0.4 0
0.2 0.4 0
0.3 0.4 0
0.4 0.4 0
0.5 0.4 0
0.6 0.4 0
0.7 0.4 0
0.8 0.4 0
0.9 0.4 0
1 0.4 0
0 0.425 0
0.1 0.425 0
0.2 0.425 0
0.3 0.425 0
0.4 0.425 0
0.5 0.425 0
0.6 0.425 0
0.7 0.425 0
0.8 0.425 0
0.9 0.425 0
1 0.425 0
0 0.45 0
0.1 0.45 0
0.2 0.45 0
0.3 0.45 0
0.4 0.45 0
0.5 0.45 0
0.6 0.45 0
0.7 0.45 0
0.8 0.45 0
0.9 0.45 0
1 0.45 0
0 0.475 0
0.1 0.475 0
0.2 0.475 0
0.3 0.475 0
0.4 0.475 0
0.5 0.475 0
0.6 0.475 0
0.7 0.475 0
0.8 0.475 0
0.9 0.475 0
1 0.475 0
0 0.5 0
0.1 0.5 0
0.2 0.5 0
0.3 0.5 0
0.4 0.5 0
0.5 0.5 0
0.6 0.5 0
0.7 0.5 0
0.8 0.5 0
0.9 0.5 0
1 0.5 0
CELLS 400 1600
3 0 1 12
3 0 12 11
3 1 2 13
3 1 13 12
3 2 3 14
3 2 14 13
3 3 4 15
3 3 15 14
3 4 5 16
3 4 16 15
3 5 6 17
3 5 17 16
3 6 7 18
3 6 18 17
3 7 8 19
3 7 19 18
3 8 9 20
3 8 20 19
3 9 10 21
3 9 21 20
3 11 12 23
3 11 23 22
3 12 13 24
3 12 24 23
3 13 14 25
3 13 25 24
3 14 15 26
3 14 26 25
3 15 16 27
3 15 27 26
3 16 17 28
3 16 28 27
3 17 18 29
3 17 29 28
3 18 19 30
3 18 30 29
3 19 20 31
3 19 31 30
3 20 21 32
3 20 32 31
3 22 23 34
3 22 34 33
3 23 24 35
3 23 35 34
3 24 25 36
3 24 36 35
3 25 26 37
3 25 37 36
3 26 27 38
3 26 38 37
3 27 28 39
3 27 39 38
3 28 29 40
3 28 40 39
3 29 30 41
3 29 41 40
3 30 31 42
3 30 42 41
3 31 32 43
3 31 43 42
3 33 34 45
3 33 45 44
3 34 35 46
3 34 46 45
3 35 36 47
3 35 47 46
3 36 37 48
3 36 48 47
3 37 38 49
3 37 49 48
3 38 39 50
3 38 50 49
3 39 40 51
3 39 51 50
3 40 41 52
3 40 52 51
3 41 42 53
3 41 53 52
3 42 43 54
3 42 54 53
3 44 45 56
3 44 56 55
3 45 46 57
3 45 57 56
3 46 47 58
3 46 58 57
3 47 48 59
3 47 59 58
3 48 49 60
3 48 60 59
3 49 50 61
3 49 61 60
3 50 51 62
3 50 62 61
3 51 52 63
3 51 63 62
3 52 53 64
3 52 64 63
3 53 54 65
3 53 65 64
3 55 56 67
3 55 67 66
3 56 57 68
3 56 68 67
3 57 58 69
3 57 69 68
3 58 59 70
3 58 70 69
3 59 60 71
3 59 71 70
3 60 61 72
3 60 72 71
3 61 62 73
3 61 73 72
3 62 63 74
3 62 74 73
3 63 64 75
3 63 75 74
3 64 65 76
3 64 76 75
3 66 67 78
3 66 78 77
3 67 68 79
3 67 79 78
3 68 69 80
3 68 80 79
3 69 70 81
3 69 81 80
3 70 71 82
3 70 82 81
3 71 72 83
3 71 83 82
3 72 73 84
3 72 84 83
3 73 74 85
3 73 85 84
3 74 75 86
3 74 86 85
3 75 76 87
3 75 87 86
3 77 78 89
3 77 89 88
3 78 79 90
3 78 90 89
3 79 80 91
3 79 91 90
3 80 81 92
3 80 92 91
3 81 82 93
3 81 93 92
3 82 83 94
3 82 94 93
3 83 84 95
3 83 95 94
3 84 85 96
3 84 96 95
3 85 86 97
3 85 97 96
3 86 87 98
3 86 98 97
3 88 89 100
3 88 100 99
3 89 90 101
3 89 101 100
3 90 91 102
3 90 102 101
3 91 92 103
3 91 103 102
3 92 93 104
3 92 104 103
3 93 94 105
3 93 105 104
3 94 95 106
3 94 106 105
3 95 96 107
3 95 107 106
3 96 97 108
3 96 108 107
3 97 98 109
3 97 109 108
3 99 100 111
3 99 111 110
3 100 101 112
3 100 112 111
3 101 102 113
3 101 113 112
3 102 103 114
3 102 114 113
3 103 104 115
3 103 115 114
3 104 105 116
3 104 116 115
3 105 106 117
3 105 117 116
3 106 107 118
3 106 118 117
3 107 108 119
3 107 119 118
3 108 109 120
3 108 120 119
3 110 111 122
3 110 122 121
3 111 112 123
3 111 123 122
3 112 113 124
3 112 124 123
3 113 114 125
3 113 125 124
3 114 115 126
3 114 126 125
3 115 116 127
3 115 127 126
3 116 117 128
3 116 128 127
3 117 118 129
3 117 129 128
3 118 119 130
3 118 130 129
3 119 120 131
3 119 131 130
3 121 122 133
3 121 133 132
3 122 123 134
3 122 134 133
3 123 124 135
3 123 135 134
3 124 125 136
3 124 136 135
3 125 126 137
3 125 137 136
3 126 127 138
3 126 138 137
3 127 128 139
3 127 139 138
3 128 129 140
3 128 140 139
3 129 130 141
3 129 141 140
3 130 131 142
3 130 142 141
3 132 133 144
3 132 144 143
3 133 134 145
3 133 145 144
3 134 135 146
3 134 146 145
3 135 136 147
3 135 147 146
3 136 137 148
3 136 148 147
3 137 138 149
3 137 149 148
3 138 139 150
3 138 150 149
3 139 140 151
3 139 151 150
3 140 141 152
3 140 152 151
3 141 142 153
3 141 153 152
3 143 144 155
3 143 155 154
3 144 145 156
3 144 156 155
3 145 146 157
3 145 157 156
3 146 147 158
3 146 158 157
3 147 148 159
3 147 159 158
3 148 149 160
3 148 160 159
3 149 150 161
3 149 161 160
3 150 151 162
3 150 162 161
3 151 152 163
3 151 163 162
3 152 153 164
3 152 164 163
3 154 155 166
3 154 166 165
3 155 156 167
3 155 167 166
3 156 157 168
3 156 168 167
3 157 158 169
3 157 169 168
3 158 159 170
3 158 170 169
3 159 160 171
3 159 171 170
3 160 161 172
3 160 172 171
3 161 162 173
3 161 173 172
3 162 163 174
3 162 174 173
3 163 164 175
3 163 175 174
3 165 166 177
3 165 177 176
3 166 167 178
3 166 178 177
3 167 168 179
3 167 179 178
3 168 169 180
3 168 180 179
3 169 170 181
3 169 181 180
3 170 171 182
3 170 182 181
3 171 172 183
3 171 183 182
3 172 173 184
3 172 184 183
3 173 174 185
3 173 185 184
3 174 175 186
3 174 186 185
3 176 177 188
3 176 188 187
3 177 178 189
3 177 189 188
3 178 179 190
3 178 190 189
3 179 180 191
3 179 191 190
3 180 181 192
3 180 192 191
3 181 182 193
3 181 193 192
3 182 183 194
3 182 194 193
3 183 184 195
3 183 195 194
3 184 185 196
3 184 196 195
3 185 186 197
3 185 197 196
3 187 188 199
3 187 199 198
3 188 189 200
3 188 200 199
3 189 190 201
3 189 201 200
3 190 191 202
3 190 202 201
3 191 192 203
3 191 203 202
3 192 193 204
3 192 204 203
3 193 194 205
3 193 205 204
3 194 195 206
3 194 206 205
3 195 196 207
3 195 207 206
3 196 197 208
3 196 208 207
3 198 199 210
3 198 210 209
3 199 200 211
3 199 211 210
3 200 201 212
3 200 212 211
3 201 202 213
3 201 213 212
3 202 203 214
3 202 214 213
3 203 204 215
3 203 215 214
3 204 205 216
3 204 216 215
3 205 206 217
3 205 217 216
3 206 207 218
3 206 218 217
3 207 208 219
3 207 219 218
3 209 210 221
3 209 221 220
3 210 211 222
3 210 222 221
3 211 212 223
3 211 223 222
3 212 213 224
3 212 224 223
3 213 214 225
3 213 225 224
3 214 215 226
3 214 226 225
3 215 216 227
3 215 227 226
3 216 217 228
3 216 228 227
3 217 218 229
3 217 229 228
3 218 219 230
3 218 230 229
CELL_TYPES 400
5
5
5
5
5
5
5
5
5
5
5
5
5
5
5
5
5
5
5
5
5
5
5
5
5
5
5
5
5
5
5
5
5
5
5
5
5
5
5
5
5
5
5
5
5
5
5
5
5
5
5
5
5
5
5
5
5
5
5
5
5
5
5
5
5
5
5
5
5
5
5
5
5
5
5
5
5
5
5
5
5
5
5
5
5
5
5
5
5
5
5
5
5
5
5
5
5
5
5
5
5
5
5
5
5
5
5
5
5
5
5
5
5
5
5
5
5
5
5
5
5
5
5
5
5
5
5
5
5
5
5
5
5
5
5
5
5
5
5
5
5
5
5
5
5
5
5
5
5
5
5
5
5
5
5
5
5
5
5
5
5
5
5
5
5
5
5
5
5
5
5
5
5
5
5
5
5
5
5
5
5
5
5
5
5
5
5
5
5
5
5
5
5
5
5
5
5
5
5
5
5
5
5
5
5
5
5
5
5
5
5
5
5
5
5
5
5
5
5
5
5
5
5
5
5
5
5
5
5
5
5
5
5
5
5
5
5
5
5
5
5
5
5
5
5
5
5
5
5
5
5
5
5
5
5
5
5
5
5
5
5
5
5
5
5
5
5
5
5
5
5
5
5
5
5
5
5
5
5
5
5
5
5
5
5
5
5
5
5
5
5
5
5
5
5
5
5
5
5
5
5
5
5
5
5
5
5
5
5
5
5
5
5
5
5
5
5
5
5
5
5
5
5
5
5
5
5
5
5
5
5
5
5
5
5
5
5
5
5
5
5
5
5
5
5
5
5
5
5
5
5
5
5
5
5
5
5
5
5
5
5
5
5
5
5
5
5
5
5
5
5
5
5
5
5
5
5
5
5
5
5
5
5
5
5
5
5
5
5
5
5
5
5
5
5
5
5
5
5
5
POINT_DATA 231
SCALARS psi double 1
LOOKUP_TABLE default
0.988995
0.785618
0.29686
-0.307047
-0.801138
-0.995349
-0.809268
-0.307889
0.318301
0.824188
1
0.970233
0.776897
0.295586
-0.300674
-0.789599
-0.983083
-0.800983
-0.306748
0.311932
0.813108
0.994447
0.928901
0.748327
0.28706
-0.286485
-0.758258
-0.946618
-0.773343
-0.298452
0.297881
0.782715
0.963028
0.865493
0.700805
0.271416
-0.264933
-0.70795
-0.886849
-0.726958
-0.283102
0.276562
0.733569
0.907058
0.781191
0.635591
0.248977
-0.236644
-0.639975
-0.805245
-0.662907
-0.260986
0.248556
0.666794
0.828303
0.677792
0.554319
0.220238
-0.202397
-0.556061
-0.703813
-0.582711
-0.232565
0.214609
0.584007
0.72899
0.557634
0.458983
0.185855
-0.163106
-0.458323
-0.58505
-0.488294
-0.198468
0.175605
0.487254
0.61178
0.423518
0.351906
0.146628
-0.119801
-0.349207
-0.45188
-0.381942
-0.159476
0.132549
0.378944
0.479719
0.278633
0.235694
0.103485
-0.0735965
-0.231432
-0.307582
-0.26624
-0.116502
0.0865407
0.261772
0.336177
0.12647
0.113183
0.0574564
-0.0256651
-0.107924
-0.155708
-0.144015
-0.0705699
0.0387399
0.13865
0.184769
-0.0292713
-0.0126289
0.0096582
0.0227908
0.0182628
-3.46337e-14
-0.0182628
-0.0227908
-0.0096582
0.0126289
0.0292713
-0.184769
-0.13865
-0.0387399
0.0705699
0.144015
0.155708
0.107924
0.0256651
-0.0574564
-0.113183
-0.12647
-0.336177
-0.261772
-0.0865407
0.116502
0.26624
0.307582
0.231432
0.0735965
-0.103485
-0.235694
-0.278633
-0.479719
-0.378944
-0.132549
0.159476
0.381942
0.45188
0.349207
0.119801
-0.146628
-0.351906
-0.423518
-0.61178
-0.487254
-0.175605
0.198468
0.488294
0.58505
0.458323
0.163106
-0.185855
-0.458983
-0.557634
-0.72899
-0.584007
-0.214609
0.232565
0.582711
0.703813
0.556061
0.202397
-0.220238
-0.554319
-0.677792
-0.828303
-0.666794
-0.248556
0.260986
0.662907
0.805245
0.639975
0.236644
-0.248977
-0.635591
-0.781191
-0.907058
-0.733569
-0.276562
0.283102
0.726958
0.886849
0.70795
0.264933
-0.271416
-0.700805
-0.865493
-0.963028
-0.782715
-0.297881
0.298452
0.773343
0.946618
0.758258
0.286485
-0.28706
-0.748327
-0.928901
-0.994447
-0.813108
-0.311932
0.306748
0.800983
0.983083
0.789599
0.300674
-0.295586
-0.776897
-0.970233
-1
-0.824188
-0.318301
0.307889
0.809268
0.995349
0.801138
0.307047
-0.29686
-0.785618
-0.988995
VECTORS Et double
0.0940957 -0.339566 0
0.0427218 -0.669606 0
-0.0087322 -0.963755 0
-0.0554324 -0.90555 0
-0.0806746 -0.503175 0
-0.074906 0.0992728 0
-0.0404243 0.674313 0
0.00932474 0.996466 0
0.0543636 0.931987 0
0.0632575 0.492478 0
0.0380237 0.300972 0
0.202376 -0.32369 0
0.116261 -0.574609 0
0.0161287 -0.917989 0
-0.0812492 -0.926151 0
-0.146766 -0.584119 0
-0.155944 -0.0124694 0
-0.105466 0.574525 0
-0.014961 0.94826 0
0.0799912 0.956019 0
0.13779 0.585249 0
0.10968 0.30728 0
0.347544 -0.300059 0
0.238707 -0.543929 0
0.0631783 -0.880852 0
-0.129262 -0.893014 0
-0.270773 -0.567234 0
-0.308363 -0.0181927 0
-0.228098 0.54846 0
-0.0611847 0.91197 0
0.127354 0.923859 0
0.261462 0.572047 0
0.268842 0.309264 0
0.486006 -0.271037 0
0.355298 -0.500827 0
0.108875 -0.821244 0
-0.173486 -0.837576 0
-0.387711 -0.536644 0
-0.453202 -0.0239776 0
-0.345526 0.50863 0
-0.106492 0.853516 0
0.171276 0.869619 0
0.378803 0.544193 0
0.41969 0.300889 0
0.613938 -0.236626 0
0.463368 -0.446005 0
0.152156 -0.740821 0
-0.212901 -0.7612 0
-0.494736 -0.493018 0
-0.586887 -0.0295761 0
-0.454817 0.456093 0
-0.149709 0.774336 0
0.210651 0.794498 0
0.486683 0.50258 0
0.558859 0.283322 0
0.727883 -0.197208 0
0.560358 -0.380565 0
0.19199 -0.641678 0
-0.246599 -0.665767 0
-0.589252 -0.437359 0
-0.706122 -0.034755 0
-0.553233 0.392213 0
-0.18971 0.67638 0
0.244499 0.700262 0
0.582316 0.448382 0
0.683183 0.257627 0
0.824795 -0.15345 0
0.643914 -0.305947 0
0.227397 -0.52632 0
-0.273816 -0.553626 0
-0.668975 -0.370976 0
-0.807966 -0.0393041 0
-0.638301 0.318622 0
-0.225444 0.562064 0
0.272001 0.589182 0
0.663294 0.383044 0
0.78981 0.224849 0
0.902083 -0.10623 0
0.711963 -0.22387 0
0.257484 -0.397623 0
-0.293952 -0.427537 0
-0.731989 -0.295452 0
-0.889907 -0.0430416 0
-0.707873 0.237184 0
-0.255959 0.434209 0
0.292515 0.463965 0
0.727628 0.308254 0
0.876295 0.18607 0
0.957656 -0.0565865 0
0.762774 -0.136277 0
0.281463 -0.258776 0
-0.306586 -0.290601 0
-0.776795 -0.212606 0
-0.949924 -0.0458205 0
-0.760178 0.149946 0
-0.280424 0.295969 0
0.305592 0.327681 0
0.773781 0.225909 0
0.940682 0.142422 0
0.989971 -0.00566683 0
0.795015 -0.0452736 0
0.298678 -0.113206 0
-0.311489 -0.146187 0
-0.802343 -0.124451 0
-0.986537 -0.0475321 0
-0.793871 0.0590863 0
-0.298155 0.150755 0
0.31098 0.183678 0
0.800693 0.138073 0
0.981549 0.0950914 0
0.998059 0.0453101 0
0.807794 0.0469296 0
0.308627 0.0354997 0
-0.308625 0.00214922 0
-0.808063 -0.0331386 0
-0.998842 -0.0481101 0
-0.808063 -0.0331386 0
-0.308625 0.00214922 0
0.308627 0.0354997 0
0.807794 0.0469296 0
0.998059 0.0453101 0
0.981549 0.0950914 0
0.800693 0.138073 0
0.31098 0.183678 0
-0.298155 0.150755 0
-0.793871 0.0590863 0
-0.986537 -0.0475321 0
-0.802343 -0.124451 0
-0.311489 -0.146187 0
0.298678 -0.113206 0
0.795015 -0.0452736 0
0.989971 -0.00566683 0
0.940682 0.142422 0
0.773781 0.225909 0
0.305592 0.327681 0
-0.280424 0.295969 0
-0.760178 0.149946 0
-0.949924 -0.0458205 0
-0.776795 -0.212606 0
-0.306586 -0.290601 0
0.281463 -0.258776 0
0.762774 -0.136277 0
0.957656 -0.0565865 0
0.876295 0.18607 0
0.727628 0.308254 0
0.292515 0.463965 0
-0.255959 0.434209 0
-0.707873 0.237184 0
-0.889907 -0.0430416 0
-0.731989 -0.295452 0
-0.293952 -0.427537 0
0.257484 -0.397623 0
0.711963 -0.22387 0
0.902083 -0.10623 0
0.78981 0.224849 0
0.663294 0.383044 0
0.272001 0.589182 0
-0.225444 0.562064 0
-0.638301 0.318622 0
-0.807966 -0.0393041 0
-0.668975 -0.370976 0
-0.273816 -0.553626 0
0.227397 -0.52632 0
0.643914 -0.305947 0
0.824795 -0.15345 0
0.683183 0.257627 0
0.582316 0.448382 0
0.244499 0.700262 0
-0.18971 0.67638 0
-0.553233 0.392213 0
-0.706122 -0.034755 0
-0.589252 -0.437359 0
-0.246599 -0.665767 0
0.19199 -0.641678 0
0.560358 -0.380565 0
0.727883 -0.197208 0
0.558859 0.283322 0
0.486683 0.50258 0
0.210651 0.794498 0
-0.149709 0.774336 0
-0.454817 0.456093 0
-0.586887 -0.0295761 0
-0.494736 -0.493018 0
-0.212901 -0.7612 0
0.152156 -0.740821 0
0.463368 -0.446005 0
0.613938 -0.236626 0
0.41969 0.300889 0
0.378803 0.544193 0
0.171276 0.869619 0
-0.106492 0.853516 0
-0.345526 0.50863 0
-0.453202 -0.0239776 0
-0.387711 -0.536644 0
-0.173486 -0.837576 0
0.108875 -0.821244 0
0.355298 -0.500827 0
0.486006 -0.271037 0
0.268842 0.309264 0
0.261462 0.572047 0
0.127354 0.923859 0
-0.0611847 0.91197 0
-0.228098 0.54846 0
-0.308363 -0.0181927 0
-0.270773 -0.567234 0
-0.129262 -0.893014 0
0.0631783 -0.880852 0
0.238707 -0.543929 0
0.347544 -0.300059 0
0.10968 0.30728 0
0.13779 0.585249 0
0.0799912 0.956019 0
-0.014961 0.94826 0
-0.105466 0.574525 0
-0.155944 -0.0124694 0
-0.146766 -0.584119 0
-0.0812492 -0.926151 0
0.0161287 -0.917989 0
0.116261 -0.574609 0
0.202376 -0.32369 0
0.0380237 0.300972 0
0.0632575 0.492478 0
0.0543636 0.931987 0
0.00932474 0.996466 0
-0.0404243 0.674313 0
-0.074906 0.0992728 0
-0.0806746 -0.503175 0
-0.0554324 -0.90555 0
-0.0087322 -0.963755 0
0.0427218 -0.669606 0
0.0940957 -0.339566 0
