# vtk DataFile Version 3.0
tp3485 scalar+vector
ASCII
DATASET UNSTRUCTURED_GRID
POINTS 231 double
0 0 0
0.1 0 0
0.2 0 0
0.3 0 0
0.4 0 0
0.5 0 0
0.6 0 0
0.7 0 0
0.8 0 0
0.9 0 0
1 0 0
0 0.025 0
0.1 0.025 0
0.2 0.025 0
0.3 0.025 0
0.4 0.025 0
0.5 0.025 0
0.6 0.025 0
0.7 0.025 0
0.8 0.025 0
0.9 0.025 0
1 0.025 0
0 0.05 0
0.1 0.05 0
0.2 0.05 0
0.3 0.05 0
0.4 0.05 0
0.5 0.05 0
0.6 0.05 0
0.7 0.05 0
0.8 0.05 0
0.9 0.05 0
1 0.05 0
0 0.075 0
0.1 0.075 0
0.2 0.075 0
0.3 0.075 0
0.4 0.075 0
0.5 0.075 0
0.6 0.075 0
0.7 0.075 0
0.8 0.075 0
0.9 0.075 0
1 0.075 0
0 0.1 0
0.1 0.1 0
0.2 0.1 0
0.3 0.1 0
0.4 0.1 0
0.5 0.1 0
0.6 0.1 0
0.7 0.1 0
0.8 0.1 0
0.9 0.1 0
1 0.1 0
0 0.125 0
0.1 0.125 0
0.2 0.125 0
0.3 0.125 0
0.4 0.125 0
0.5 0.125 0
0.6 0.125 0
0.7 0.125 0
0.8 0.125 0
0.9 0.125 0
1 0.125 0
0 0.15 0
0.1 0.15 0
0.2 0.15 0
0.3 0.15 0
0.4 0.15 0
0.5 0.15 0
0.6 0.15 0
0.7 0.15 0
0.8 0.15 0
0.9 0.15 0
1 0.15 0
0 0.175 0
0.1 0.175 0
0.2 0.175 0
0.3 0.175 0
0.4 0.175 0
0.5 0.175 0
0.6 0.175 0
0.7 0.175 0
0.8 0.175 0
0.9 0.175 0
1 0.175 0
0 0.2 0
0.1 0.2 0
0.2 0.2 0
0.3 0.2 0
0.4 0.2 0
0.5 0.2 0
0.6 0.2 0
0.7 0.2 0
0.8 0.2 0
0.9 0.2 0
1 0.2 0
0 0.225 0
0.1 0.225 0
0.2 0.225 0
0.3 0.225 0
0.4 0.225 0
0.5 0.225 0
0.6 0.225 0
0.7 0.225 0
0.8 0.225 0
0.9 0.225 0
1 0.225 0
0 0.25 0
0.1 0.25 0
0.2 0.25 0
0.3 0.25 0
0.4 0.25 0
0.5 0.25 0
0.6 0.25 0
0.7 0.25 0
0.8 0.25 0
0.9 0.25 0
1 0.25 0
0 0.275 0
0.1 0.275 0
0.2 0.275 0
0.3 0.275 0
0.4 0.275 0
0.5 0.275 0
0.6 0.275 0
0.7 0.275 0
0.8 0.275 0
0.9 0.275 0
1 0.275 0
0 0.3 0
0.1 0.3 0
0.2 0.3 0
0.3 0.3 0
0.4 0.3 0
0.5 0.3 0
0.6 0.3 0
0.7 0.3 0
0.8 0.3 0
0.9 0.3 0
1 0.3 0
0 0.325 0
0.1 0.325 0
0.2 0.325 0
0.3 0.325 0
0.4 0.325 0
0.5 0.325 0
0.6 0.325 0
0.7 0.325 0
0.8 0.325 0
0.9 0.325 0
1 0.325 0
0 0.35 0
0.1 0.35 0
0.2 0.35 0
0.3 0.35 0
0.4 0.35 0
0.5 0.35 0
0.6 0.35 0
0.7 0.35 0
0.8 0.35 0
0.9 0.35 0
1 0.35 0
0 0.375 0
0.1 0.375 0
0.2 0.375 0
0.3 0.375 0
0.4 0.375 0
0.5 0.375 0
0.6 0.375 0
0.7 0.375 0
0.8 0.375 0
0.9 0.375 0
1 0.375 0
0 0.4 0
0.1 0.4 0
0.2 0.4 0
0.3 0.4 0
0.4 0.4 0
0.5 0.4 0
0.6 0.4 0
0.7 0.4 0
0.8 0.4 0
0.9 0.4 0
1 0.4 0
0 0.425 0
0.1 0.425 0
0.2 0.425 0
0.3 0.425 0
0.4 0.425 0
0.5 0.425 0
0.6 0.425 0
0.7 0.425 0
0.8 0.425 0
0.9 0.425 0
1 0.425 0
0 0.45 0
0.1 0.45 0
0.2 0.45 0
0.3 0.45 0
0.4 0.45 0
0.5 0.45 0
0.6 0.45 0
0.7 0.45 0
0.8 0.45 0
0.9 0.45 0
1 0.45 0
0 0.475 0
0.1 0.475 0
0.2 0.475 0
0.3 0.475 0
0.4 0.475 0
0.5 0.475 0
0.6 0.475 0
0.7 0.475 0
0.8 0.475 0
0.9 0.475 0
1 0.475 0
0 0.5 0
0.1 0.5 0
0.2 0.5 0
0.3 0.5 0
0.4 0.5 0
0.5 0.5 0
0.6 0.5 0
0.7 0.5 0
0.8 0.5 0
0.9 0.5 0
1 0.5 0
CELLS 400 1600
3 0 1 12
3 0 12 11
3 1 2 13
3 1 13 12
3 2 3 14
3 2 14 13
3 3 4 15
3 3 15 14
3 4 5 16
3 4 16 15
3 5 6 17
3 5 17 16
3 6 7 18
3 6 18 17
3 7 8 19
3 7 19 18
3 8 9 20
3 8 20 19
3 9 10 21
3 9 21 20
3 11 12 23
3 11 23 22
3 12 13 24
3 12 24 23
3 13 14 25
3 13 25 24
3 14 15 26
3 14 26 25
3 15 16 27
3 15 27 26
3 16 17 28
3 16 28 27
3 17 18 29
3 17 29 28
3 18 19 30
3 18 30 29
3 19 20 31
3 19 31 30
3 20 21 32
3 20 32 31
3 22 23 34
3 22 34 33
3 23 24 35
3 23 35 34
3 24 25 36
3 24 36 35
3 25 26 37
3 25 37 36
3 26 27 38
3 26 38 37
3 27 28 39
3 27 39 38
3 28 29 40
3 28 40 39
3 29 30 41
3 29 41 40
3 30 31 42
3 30 42 41
3 31 32 43
3 31 43 42
3 33 34 45
3 33 45 44
3 34 35 46
3 34 46 45
3 35 36 47
3 35 47 46
3 36 37 48
3 36 48 47
3 37 38 49
3 37 49 48
3 38 39 50
3 38 50 49
3 39 40 51
3 39 51 50
3 40 41 52
3 40 52 51
3 41 42 53
3 41 53 52
3 42 43 54
3 42 54 53
3 44 45 56
3 44 56 55
3 45 46 57
3 45 57 56
3 46 47 58
3 46 58 57
3 47 48 59
3 47 59 58
3 48 49 60
3 48 60 59
3 49 50 61
3 49 61 60
3 50 51 62
3 50 62 61
3 51 52 63
3 51 63 62
3 52 53 64
3 52 64 63
3 53 54 65
3 53 65 64
3 55 56 67
3 55 67 66
3 56 57 68
3 56 68 67
3 57 58 69
3 57 69 68
3 58 59 70
3 58 70 69
3 59 60 71
3 59 71 70
3 60 61 72
3 60 72 71
3 61 62 73
3 61 73 72
3 62 63 74
3 62 74 73
3 63 64 75
3 63 75 74
3 64 65 76
3 64 76 75
3 66 67 78
3 66 78 77
3 67 68 79
3 67 79 78
3 68 69 80
3 68 80 79
3 69 70 81
3 69 81 80
3 70 71 82
3 70 82 81
3 71 72 83
3 71 83 82
3 72 73 84
3 72 84 83
3 73 74 85
3 73 85 84
3 74 75 86
3 74 86 85
3 75 76 87
3 75 87 86
3 77 78 89
3 77 89 88
3 78 79 90
3 78 90 89
3 79 80 91
3 79 91 90
3 80 81 92
3 80 92 91
3 81 82 93
3 81 93 92
3 82 83 94
3 82 94 93
3 83 84 95
3 83 95 94
3 84 85 96
3 84 96 95
3 85 86 97
3 85 97 96
3 86 87 98
3 86 98 97
3 88 89 100
3 88 100 99
3 89 90 101
3 89 101 100
3 90 91 102
3 90 102 101
3 91 92 103
3 91 103 102
3 92 93 104
3 92 104 103
3 93 94 105
3 93 105 104
3 94 95 106
3 94 106 105
3 95 96 107
3 95 107 106
3 96 97 108
3 96 108 107
3 97 98 109
3 97 109 108
3 99 100 111
3 99 111 110
3 100 101 112
3 100 112 111
3 101 102 113
3 101 113 112
3 102 103 114
3 102 114 113
3 103 104 115
3 103 115 114
3 104 105 116
3 104 116 115
3 105 106 117
3 105 117 116
3 106 107 118
3 106 118 117
3 107 108 119
3 107 119 118
3 108 109 120
3 108 120 119
3 110 111 122
3 110 122 121
3 111 112 123
3 111 123 122
3 112 113 124
3 112 124 123
3 113 114 125
3 113 125 124
3 114 115 126
3 114 126 125
3 115 116 127
3 115 127 126
3 116 117 128
3 116 128 127
3 117 118 129
3 117 129 128
3 118 119 130
3 118 130 129
3 119 120 131
3 119 131 130
3 121 122 133
3 121 133 132
3 122 123 134
3 122 134 133
3 123 124 135
3 123 135 134
3 124 125 136
3 124 136 135
3 125 126 137
3 125 137 136
3 126 127 138
3 126 138 137
3 127 128 139
3 127 139 138
3 128 129 140
3 128 140 139
3 129 130 141
3 129 141 140
3 130 131 142
3 130 142 141
3 132 133 144
3 132 144 143
3 133 134 145
3 133 145 144
3 134 135 146
3 134 146 145
3 135 136 147
3 135 147 146
3 136 137 148
3 136 148 147
3 137 138 149
3 137 149 148
3 138 139 150
3 138 150 149
3 139 140 151
3 139 151 150
3 140 141 152
3 140 152 151
3 141 142 153
3 141 153 152
3 143 144 155
3 143 155 154
3 144 145 156
3 144 156 155
3 145 146 157
3 145 157 156
3 146 147 158
3 146 158 157
3 147 148 159
3 147 159 158
3 148 149 160
3 148 160 159
3 149 150 161
3 149 161 160
3 150 151 162
3 150 162 161
3 151 152 163
3 151 163 162
3 152 153 164
3 152 164 163
3 154 155 166
3 154 166 165
3 155 156 167
3 155 167 166
3 156 157 168
3 156 168 167
3 157 158 169
3 157 169 168
3 158 159 170
3 158 170 169
3 159 160 171
3 159 171 170
3 160 161 172
3 160 172 171
3 161 162 173
3 161 173 172
3 162 163 174
3 162 174 173
3 163 164 175
3 163 175 174
3 165 166 177
3 165 177 176
3 166 167 178
3 166 178 177
3 167 168 179
3 167 179 178
3 168 169 180
3 168 180 179
3 169 170 181
3 169 181 180
3 170 171 182
3 170 182 181
3 171 172 183
3 171 183 182
3 172 173 184
3 172 184 183
3 173 174 185
3 173 185 184
3 174 175 186
3 174 186 185
3 176 177 188
3 176 188 187
3 177 178 189
3 177 189 188
3 178 179 190
3 178 190 189
3 179 180 191
3 179 191 190
3 180 181 192
3 180 192 191
3 181 182 193
3 181 193 192
3 182 183 194
3 182 194 193
3 183 184 195
3 183 195 194
3 184 185 196
3 184 196 195
3 185 186 197
3 185 197 196
3 187 188 199
3 187 199 198
3 188 189 200
3 188 200 199
3 189 190 201
3 189 201 200
3 190 191 202
3 190 202 201
3 191 192 203
3 191 203 202
3 192 193 204
3 192 204 203
3 193 194 205
3 193 205 204
3 194 195 206
3 194 206 205
3 195 196 207
3 195 207 206
3 196 197 208
3 196 208 207
3 198 199 210
3 198 210 209
3 199 200 211
3 199 211 210
3 200 201 212
3 200 212 211
3 201 202 213
3 201 213 212
3 202 203 214
3 202 214 213
3 203 204 215
3 203 215 214
3 204 205 216
3 204 216 215
3 205 206 217
3 205 217 216
3 206 207 218
3 206 218 217
3 207 208 219
3 207 219 218
3 209 210 221
3 209 221 220
3 210 211 222
3 210 222 221
3 211 212 223
3 211 223 222
3 212 213 224
3 212 224 223
3 213 214 225
3 213 225 224
3 214 215 226
3 214 226 225
3 215 216 227
3 215 227 226
3 216 217 228
3 216 228 227
3 217 218 229
3 217 229 228
3 218 219 230
3 218 230 229
CELL_TYPES 400
5
5
5
5
5
5
5
5
5
5
5
5
5
5
5
5
5
5
5
5
5
5
5
5
5
5
5
5
5
5
5
5
5
5
5
5
5
5
5
5
5
5
5
5
5
5
5
5
5
5
5
5
5
5
5
5
5
5
5
5
5
5
5
5
5
5
5
5
5
5
5
5
5
5
5
5
5
5
5
5
5
5
5
5
5
5
5
5
5
5
5
5
5
5
5
5
5
5
5
5
5
5
5
5
5
5
5
5
5
5
5
5
5
5
5
5
5
5
5
5
5
5
5
5
5
5
5
5
5
5
5
5
5
5
5
5
5
5
5
5
5
5
5
5
5
5
5
5
5
5
5
5
5
5
5
5
5
5
5
5
5
5
5
5
5
5
5
5
5
5
5
5
5
5
5
5
5
5
5
5
5
5
5
5
5
5
5
5
5
5
5
5
5
5
5
5
5
5
5
5
5
5
5
5
5
5
5
5
5
5
5
5
5
5
5
5
5
5
5
5
5
5
5
5
5
5
5
5
5
5
5
5
5
5
5
5
5
5
5
5
5
5
5
5
5
5
5
5
5
5
5
5
5
5
5
5
5
5
5
5
5
5
5
5
5
5
5
5
5
5
5
5
5
5
5
5
5
5
5
5
5
5
5
5
5
5
5
5
5
5
5
5
5
5
5
5
5
5
5
5
5
5
5
5
5
5
5
5
5
5
5
5
5
5
5
5
5
5
5
5
5
5
5
5
5
5
5
5
5
5
5
5
5
5
5
5
5
5
5
5
5
5
5
5
5
5
5
5
5
5
5
5
5
5
5
5
5
5
5
5
5
5
5
5
5
5
5
5
5
5
5
5
5
5
5
5
5
5
5
5
5
5
5
5
5
5
5
5
5
5
5
5
5
5
5
5
5
5
5
5
POINT_DATA 231
SCALARS psi double 1
LOOKUP_TABLE default
0
0
0
0
0
0
0
0
0
0
0
0
0.0490502
0.0927293
0.12717
0.149108
0.156431
0.148441
0.125939
0.0911663
0.0476326
0
0
0.0966928
0.182985
0.251068
0.29447
0.309011
0.293304
0.248921
0.180278
0.0942891
0
0
0.141789
0.268562
0.368651
0.43251
0.453984
0.431018
0.365907
0.265124
0.138788
0
0
0.183256
0.347372
0.477035
0.559836
0.587779
0.558185
0.474007
0.343596
0.180005
0
0
0.220098
0.417493
0.573565
0.673318
0.707102
0.671668
0.570543
0.413742
0.216903
0
0
0.251429
0.477222
0.655879
0.770169
0.809013
0.768663
0.653123
0.473814
0.24855
0
0
0.276499
0.525108
0.721967
0.848015
0.891004
0.846773
0.719698
0.522309
0.274149
0
0
0.294708
0.559996
0.770219
0.904947
0.951055
0.904065
0.768608
0.558013
0.293049
0
0
0.305626
0.581049
0.799467
0.939574
0.987688
0.939116
0.798632
0.580022
0.304769
0
0
0.309001
0.587772
0.80901
0.951055
1
0.951055
0.80901
0.587772
0.309001
0
0
0.304769
0.580022
0.798632
0.939116
0.987688
0.939574
0.799467
0.581049
0.305626
0
0
0.293049
0.558013
0.768608
0.904065
0.951055
0.904947
0.770219
0.559996
0.294708
0
0
0.274149
0.522309
0.719698
0.846773
0.891004
0.848015
0.721967
0.525108
0.276499
0
0
0.24855
0.473814
0.653123
0.768663
0.809013
0.770169
0.655879
0.477222
0.251429
0
0
0.216903
0.413742
0.570543
0.671668
0.707102
0.673318
0.573565
0.417493
0.220098
0
0
0.180005
0.343596
0.474007
0.558185
0.587779
0.559836
0.477035
0.347372
0.183256
0
0
0.138788
0.265124
0.365907
0.431018
0.453984
0.43251
0.368651
0.268562
0.141789
0
0
0.0942891
0.180278
0.248921
0.293304
0.309011
0.29447
0.251068
0.182985
0.0966928
0
0
0.0476326
0.0911663
0.125939
0.148441
0.156431
0.149108
0.12717
0.0927293
0.0490502
0
0
0
0
0
0
0
0
0
0
0
0
VECTORS Et double
-0.0398733 -0.159493 0
-0.0236714 -0.413672 0
-0.018665 -0.677703 0
-0.0118886 -0.874577 0
-0.0039687 -0.98556 0
0.00432987 -0.999991 0
0.0121946 -0.916573 0
0.0188448 -0.743637 0
0.0235926 -0.498508 0
0.0258139 -0.206511 0
-0 -0 0
-0.105566 -0.103277 0
-0.0736362 -0.307433 0
-0.0607847 -0.584122 0
-0.042314 -0.802316 0
-0.0197977 -0.941553 0
0.0046173 -0.988488 0
0.028551 -0.93866 0
0.0496396 -0.797077 0
0.0657378 -0.577871 0
0.074956 -0.303209 0
0.0516279 -0.103256 0
-0.181644 -0.0977566 0
-0.14681 -0.293789 0
-0.122619 -0.560247 0
-0.0870539 -0.770916 0
-0.0431646 -0.90577 0
0.00487037 -0.951842 0
0.0523731 -0.904734 0
0.0946598 -0.769168 0
0.127457 -0.558626 0
0.147103 -0.294188 0
0.128012 -0.10114 0
-0.252995 -0.0898905 0
-0.216215 -0.273067 0
-0.181463 -0.522702 0
-0.129735 -0.720601 0
-0.0655774 -0.847712 0
0.00488754 -0.891753 0
0.0747981 -0.848496 0
0.137268 -0.722249 0
0.186013 -0.525508 0
0.215757 -0.277774 0
0.201528 -0.0964622 0
-0.317906 -0.0798642 0
-0.280163 -0.245758 0
-0.235853 -0.472417 0
-0.169294 -0.652622 0
-0.0864748 -0.768817 0
0.00467733 -0.809703 0
0.0952827 -0.771321 0
0.176425 -0.657463 0
0.239977 -0.479327 0
0.279215 -0.254389 0
0.270318 -0.0893495 0
-0.374818 -0.0679188 0
-0.337095 -0.212521 0
-0.284438 -0.410633 0
-0.204745 -0.568667 0
-0.105331 -0.671037 0
0.00425608 -0.707712 0
0.113333 -0.675102 0
0.211177 -0.576392 0
0.288028 -0.421215 0
0.335901 -0.224618 0
0.332648 -0.0799847 0
-0.422363 -0.0543445 0
-0.38563 -0.174166 0
-0.326017 -0.338874 0
-0.235205 -0.470812 0
-0.121668 -0.556787 0
0.00364729 -0.588293 0
0.128518 -0.562203 0
0.240678 -0.481025 0
0.328986 -0.352599 0
0.384401 -0.189205 0
0.386946 -0.0686039 0
-0.459404 -0.0394726 0
-0.424591 -0.131631 0
-0.359563 -0.258907 0
-0.259913 -0.361473 0
-0.135071 -0.428884 0
0.00288061 -0.454384 0
0.140476 -0.435399 0
0.264212 -0.373703 0
0.361844 -0.275167 0
0.423507 -0.149026 0
0.431842 -0.0554911 0
-0.485057 -0.0236677 0
-0.453038 -0.0859593 0
-0.384248 -0.172704 0
-0.278249 -0.243349 0
-0.145195 -0.290484 0
0.00199088 -0.309286 0
0.148927 -0.297808 0
0.281209 -0.257063 0
0.385795 -0.190822 0
0.452236 -0.105075 0
0.466201 -0.0409718 0
-0.49872 -0.00731778 0
-0.470288 -0.0382721 0
-0.399466 -0.0823881 0
-0.289752 -0.119351 0
-0.151774 -0.144996 0
0.00101685 -0.156571 0
0.15368 -0.152817 0
0.29126 -0.133974 0
0.400247 -0.10164 0
0.469863 -0.0584354 0
0.489147 -0.025405 0
-0.500085 0.00917515 0
-0.475937 0.0102576 0
-0.404842 0.00981689 0
-0.294128 0.00746406 0
-0.154631 0.00399407 0
-4.98049e-14 -4.88553e-14 0
0.154631 -0.00399407 0
0.294128 -0.00746406 0
0.404842 -0.00981689 0
0.475937 -0.0102576 0
0.500085 -0.00917515 0
-0.489147 0.025405 0
-0.469863 0.0584354 0
-0.400247 0.10164 0
-0.29126 0.133974 0
-0.15368 0.152817 0
-0.00101685 0.156571 0
0.151774 0.144996 0
0.289752 0.119351 0
0.399466 0.0823881 0
0.470288 0.0382721 0
0.49872 0.00731778 0
-0.466201 0.0409718 0
-0.452236 0.105075 0
-0.385795 0.190822 0
-0.281209 0.257063 0
-0.148927 0.297808 0
-0.00199088 0.309286 0
0.145195 0.290484 0
0.278249 0.243349 0
0.384248 0.172704 0
0.453038 0.0859593 0
0.485057 0.0236677 0
-0.431842 0.0554911 0
-0.423507 0.149026 0
-0.361844 0.275167 0
-0.264212 0.373703 0
-0.140476 0.435399 0
-0.00288061 0.454384 0
0.135071 0.428884 0
0.259913 0.361473 0
0.359563 0.258907 0
0.424591 0.131631 0
0.459404 0.0394726 0
-0.386946 0.0686039 0
-0.384401 0.189205 0
-0.328986 0.352599 0
-0.240678 0.481025 0
-0.128518 0.562203 0
-0.00364729 0.588293 0
0.121668 0.556787 0
0.235205 0.470812 0
0.326017 0.338874 0
0.38563 0.174166 0
0.422363 0.0543445 0
-0.332648 0.0799847 0
-0.335901 0.224618 0
-0.288028 0.421215 0
-0.211177 0.576392 0
-0.113333 0.675102 0
-0.00425608 0.707712 0
0.105331 0.671037 0
0.204745 0.568667 0
0.284438 0.410633 0
0.337095 0.212521 0
0.374818 0.0679188 0
-0.270318 0.0893495 0
-0.279215 0.254389 0
-0.239977 0.479327 0
-0.176425 0.657463 0
-0.0952827 0.771321 0
-0.00467733 0.809703 0
0.0864748 0.768817 0
0.169294 0.652622 0
0.235853 0.472417 0
0.280163 0.245758 0
0.317906 0.0798642 0
-0.201528 0.0964622 0
-0.215757 0.277774 0
-0.186013 0.525508 0
-0.137268 0.722249 0
-0.0747981 0.848496 0
-0.00488754 0.891753 0
0.0655774 0.847712 0
0.129735 0.720601 0
0.181463 0.522702 0
0.216215 0.273067 0
0.252995 0.0898905 0
-0.128012 0.10114 0
-0.147103 0.294188 0
-0.127457 0.558626 0
-0.0946598 0.769168 0
-0.0523731 0.904734 0
-0.00487037 0.951842 0
0.0431646 0.90577 0
0.0870539 0.770916 0
0.122619 0.560247 0
0.14681 0.293789 0
0.181644 0.0977566 0
-0.0516279 0.103256 0
-0.074956 0.303209 0
-0.0657378 0.577871 0
-0.0496396 0.797077 0
-0.028551 0.93866 0
-0.0046173 0.988488 0
0.0197977 0.941553 0
0.042314 0.802316 0
0.0607847 0.584122 0
0.0736362 0.307433 0
0.105566 0.103277 0
-0 -0 0
-0.0258139 0.206511 0
-0.0235926 0.498508 0
-0.0188448 0.743637 0
-0.0121946 0.916573 0
-0.00432987 0.999991 0
0.0039687 0.98556 0
0.0118886 0.874577 0
0.018665 0.677703 0
0.0236714 0.413672 0
0.0398733 0.159493 0
