# vtk DataFile Version 3.0
tp3485 scalar+vector
ASCII
DATASET UNSTRUCTURED_GRID
POINTS 231 double
0 0 0
0.1 0 0
0.2 0 0
0.3 0 0
0.4 0 0
0.5 0 0
0.6 0 0
0.7 0 0
0.8 0 0
0.9 0 0
1 0 0
0 0.025 0
0.1 0.025 0
0.2 0.025 0
0.3 0.025 0
0.4 0.025 0
0.5 0.025 0
0.6 0.025 0
0.7 0.025 0
0.8 0.025 0
0.9 0.025 0
1 0.025 0
0 0.05 0
0.1 0.05 0
0.2 0.05 0
0.3 0.05 0
0.4 0.05 0
0.5 0.05 0
0.6 0.05 0
0.7 0.05 0
0.8 0.05 0
0.9 0.05 0
1 0.05 0
0 0.075 0
0.1 0.075 0
0.2 0.075 0
0.3 0.075 0
0.4 0.075 0
0.5 0.075 0
0.6 0.075 0
0.7 0.075 0
0.8 0.075 0
0.9 0.075 0
1 0.075 0
0 0.1 0
0.1 0.1 0
0.2 0.1 0
0.3 0.1 0
0.4 0.1 0
0.5 0.1 0
0.6 0.1 0
0.7 0.1 0
0.8 0.1 0
0.9 0.1 0
1 0.1 0
0 0.125 0
0.1 0.125 0
0.2 0.125 0
0.3 0.125 0
0.4 0.125 0
0.5 0.125 0
0.6 0.125 0
0.7 0.125 0
0.8 0.125 0
0.9 0.125 0
1 0.125 0
0 0.15 0
0.1 0.15 0
0.2 0.15 0
0.3 0.15 0
0.4 0.15 0
0.5 0.15 0
0.6 0.15 0
0.7 0.15 0
0.8 0.15 0
0.9 0.15 0
1 0.15 0
0 0.175 0
0.1 0.175 0
0.2 0.175 0
0.3 0.175 0
0.4 0.175 0
0.5 0.175 0
0.6 0.175 0
0.7 0.175 0
0.8 0.175 0
0.9 0.175 0
1 0.175 0
0 0.2 0
0.1 0.2 0
0.2 0.2 0
0.3 0.2 0
0.4 0.2 0
0.5 0.2 0
0.6 0.2 0
0.7 0.2 0
0.8 0.2 0
0.9 0.2 0
1 0.2 0
0 0.225 0
0.1 0.225 0
0.2 0.225 0
0.3 0.225 0
0.4 0.225 0
0.5 0.225 0
0.6 0.225 0
0.7 0.225 0
0.8 0.225 0
0.9 0.225 0
1 0.225 0
0 0.25 0
0.1 0.25 0
0.2 0.25 0
0.3 0.25 0
0.4 0.25 0
0.5 0.25 0
0.6 0.25 0
0.7 0.25 0
0.8 0.25 0
0.9 0.25 0
1 0.25 0
0 0.275 0
0.1 0.275 0
0.2 0.275 0
0.3 0.275 0
0.4 0.275 0
0.5 0.275 0
0.6 0.275 0
0.7 0.275 0
0.8 0.275 0
0.9 0.275 0
1 0.275 0
0 0.3 0
0.1 0.3 0
0.2 0.3 0
0.3 0.3 0
0.4 0.3 0
0.5 0.3 0
0.6 0.3 0
0.7 0.3 0
0.8 0.3 0
0.9 0.3 0
1 0.3 0
0 0.325 0
0.1 0.325 0
0.2 0.325 0
0.3 0.325 0
0.4 0.325 0
0.5 0.325 0
0.6 0.325 0
0.7 0.325 0
0.8 0.325 0
0.9 0.325 0
1 0.325 0
0 0.35 0
0.1 0.35 0
0.2 0.35 0
0.3 0.35 0
0.4 0.35 0
0.5 0.35 0
0.6 0.35 0
0.7 0.35 0
0.8 0.35 0
0.9 0.35 0
1 0.35 0
0 0.375 0
0.1 0.375 0
0.2 0.375 0
0.3 0.375 0
0.4 0.375 0
0.5 0.375 0
0.6 0.375 0
0.7 0.375 0
0.8 0.375 0
0.9 0.375 0
1 0.375 0
0 0.4 0
0.1 0.4 0
0.2 0.4 0
0.3 0.4 0
0.4 0.4 0
0.5 0.4 0
0.6 0.4 0
0.7 0.4 0
0.8 0.4 0
0.9 0.4 0
1 0.4 0
0 0.425 0
0.1 0.425 0
0.2 0.425 0
0.3 0.425 0
0.4 0.425 0
0.5 0.425 0
0.6 0.425 0
0.7 0.425 0
0.8 0.425 0
0.9 0.425 0
1 0.425 0
0 0.45 0
0.1 0.45 0
0.2 0.45 0
0.3 0.45 0
0.4 0.45 0
0.5 0.45 0
0.6 0.45 0
0.7 0.45 0
0.8 0.45 0
0.9 0.45 0
1 0.45 0
0 0.475 0
0.1 0.475 0
0.2 0.475 0
0.3 0.475 0
0.4 0.475 0
0.5 0.475 0
0.6 0.475 0
0.7 0.475 0
0.8 0.475 0
0.9 0.475 0
1 0.475 0
0 0.5 0
0.1 0.5 0
0.2 0.5 0
0.3 0.5 0
0.4 0.5 0
0.5 0.5 0
0.6 0.5 0
0.7 0.5 0
0.8 0.5 0
0.9 0.5 0
1 0.5 0
CELLS 400 1600
3 0 1 12
3 0 12 11
3 1 2 13
3 1 13 12
3 2 3 14
3 2 14 13
3 3 4 15
3 3 15 14
3 4 5 16
3 4 16 15
3 5 6 17
3 5 17 16
3 6 7 18
3 6 18 17
3 7 8 19
3 7 19 18
3 8 9 20
3 8 20 19
3 9 10 21
3 9 21 20
3 11 12 23
3 11 23 22
3 12 13 24
3 12 24 23
3 13 14 25
3 13 25 24
3 14 15 26
3 14 26 25
3 15 16 27
3 15 27 26
3 16 17 28
3 16 28 27
3 17 18 29
3 17 29 28
3 18 19 30
3 18 30 29
3 19 20 31
3 19 31 30
3 20 21 32
3 20 32 31
3 22 23 34
3 22 34 33
3 23 24 35
3 23 35 34
3 24 25 36
3 24 36 35
3 25 26 37
3 25 37 36
3 26 27 38
3 26 38 37
3 27 28 39
3 27 39 38
3 28 29 40
3 28 40 39
3 29 30 41
3 29 41 40
3 30 31 42
3 30 42 41
3 31 32 43
3 31 43 42
3 33 34 45
3 33 45 44
3 34 35 46
3 34 46 45
3 35 36 47
3 35 47 46
3 36 37 48
3 36 48 47
3 37 38 49
3 37 49 48
3 38 39 50
3 38 50 49
3 39 40 51
3 39 51 50
3 40 41 52
3 40 52 51
3 41 42 53
3 41 53 52
3 42 43 54
3 42 54 53
3 44 45 56
3 44 56 55
3 45 46 57
3 45 57 56
3 46 47 58
3 46 58 57
3 47 48 59
3 47 59 58
3 48 49 60
3 48 60 59
3 49 50 61
3 49 61 60
3 50 51 62
3 50 62 61
3 51 52 63
3 51 63 62
3 52 53 64
3 52 64 63
3 53 54 65
3 53 65 64
3 55 56 67
3 55 67 66
3 56 57 68
3 56 68 67
3 57 58 69
3 57 69 68
3 58 59 70
3 58 70 69
3 59 60 71
3 59 71 70
3 60 61 72
3 60 72 71
3 61 62 73
3 61 73 72
3 62 63 74
3 62 74 73
3 63 64 75
3 63 75 74
3 64 65 76
3 64 76 75
3 66 67 78
3 66 78 77
3 67 68 79
3 67 79 78
3 68 69 80
3 68 80 79
3 69 70 81
3 69 81 80
3 70 71 82
3 70 82 81
3 71 72 83
3 71 83 82
3 72 73 84
3 72 84 83
3 73 74 85
3 73 85 84
3 74 75 86
3 74 86 85
3 75 76 87
3 75 87 86
3 77 78 89
3 77 89 88
3 78 79 90
3 78 90 89
3 79 80 91
3 79 91 90
3 80 81 92
3 80 92 91
3 81 82 93
3 81 93 92
3 82 83 94
3 82 94 93
3 83 84 95
3 83 95 94
3 84 85 96
3 84 96 95
3 85 86 97
3 85 97 96
3 86 87 98
3 86 98 97
3 88 89 100
3 88 100 99
3 89 90 101
3 89 101 100
3 90 91 102
3 90 102 101
3 91 92 103
3 91 103 102
3 92 93 104
3 92 104 103
3 93 94 105
3 93 105 104
3 94 95 106
3 94 106 105
3 95 96 107
3 95 107 106
3 96 97 108
3 96 108 107
3 97 98 109
3 97 109 108
3 99 100 111
3 99 111 110
3 100 101 112
3 100 112 111
3 101 102 113
3 101 113 112
3 102 103 114
3 102 114 113
3 103 104 115
3 103 115 114
3 104 105 116
3 104 116 115
3 105 106 117
3 105 117 116
3 106 107 118
3 106 118 117
3 107 108 119
3 107 119 118
3 108 109 120
3 108 120 119
3 110 111 122
3 110 122 121
3 111 112 123
3 111 123 122
3 112 113 124
3 112 124 123
3 113 114 125
3 113 125 124
3 114 115 126
3 114 126 125
3 115 116 127
3 115 127 126
3 116 117 128
3 116 128 127
3 117 118 129
3 117 129 128
3 118 119 130
3 118 130 129
3 119 120 131
3 119 131 130
3 121 122 133
3 121 133 132
3 122 123 134
3 122 134 133
3 123 124 135
3 123 135 134
3 124 125 136
3 124 136 135
3 125 126 137
3 125 137 136
3 126 127 138
3 126 138 137
3 127 128 139
3 127 139 138
3 128 129 140
3 128 140 139
3 129 130 141
3 129 141 140
3 130 131 142
3 130 142 141
3 132 133 144
3 132 144 143
3 133 134 145
3 133 145 144
3 134 135 146
3 134 146 145
3 135 136 147
3 135 147 146
3 136 137 148
3 136 148 147
3 137 138 149
3 137 149 148
3 138 139 150
3 138 150 149
3 139 140 151
3 139 151 150
3 140 141 152
3 140 152 151
3 141 142 153
3 141 153 152
3 143 144 155
3 143 155 154
3 144 145 156
3 144 156 155
3 145 146 157
3 145 157 156
3 146 147 158
3 146 158 157
3 147 148 159
3 147 159 158
3 148 149 160
3 148 160 159
3 149 150 161
3 149 161 160
3 150 151 162
3 150 162 161
3 151 152 163
3 151 163 162
3 152 153 164
3 152 164 163
3 154 155 166
3 154 166 165
3 155 156 167
3 155 167 166
3 156 157 168
3 156 168 167
3 157 158 169
3 157 169 168
3 158 159 170
3 158 170 169
3 159 160 171
3 159 171 170
3 160 161 172
3 160 172 171
3 161 162 173
3 161 173 172
3 162 163 174
3 162 174 173
3 163 164 175
3 163 175 174
3 165 166 177
3 165 177 176
3 166 167 178
3 166 178 177
3 167 168 179
3 167 179 178
3 168 169 180
3 168 180 179
3 169 170 181
3 169 181 180
3 170 171 182
3 170 182 181
3 171 172 183
3 171 183 182
3 172 173 184
3 172 184 183
3 173 174 185
3 173 185 184
3 174 175 186
3 174 186 185
3 176 177 188
3 176 188 187
3 177 178 189
3 177 189 188
3 178 179 190
3 178 190 189
3 179 180 191
3 179 191 190
3 180 181 192
3 180 192 191
3 181 182 193
3 181 193 192
3 182 183 194
3 182 194 193
3 183 184 195
3 183 195 194
3 184 185 196
3 184 196 195
3 185 186 197
3 185 197 196
3 187 188 199
3 187 199 198
3 188 189 200
3 188 200 199
3 189 190 201
3 189 201 200
3 190 191 202
3 190 202 201
3 191 192 203
3 191 203 202
3 192 193 204
3 192 204 203
3 193 194 205
3 193 205 204
3 194 195 206
3 194 206 205
3 195 196 207
3 195 207 206
3 196 197 208
3 196 208 207
3 198 199 210
3 198 210 209
3 199 200 211
3 199 211 210
3 200 201 212
3 200 212 211
3 201 202 213
3 201 213 212
3 202 203 214
3 202 214 213
3 203 204 215
3 203 215 214
3 204 205 216
3 204 216 215
3 205 206 217
3 205 217 216
3 206 207 218
3 206 218 217
3 207 208 219
3 207 219 218
3 209 210 221
3 209 221 220
3 210 211 222
3 210 222 221
3 211 212 223
3 211 223 222
3 212 213 224
3 212 224 223
3 213 214 225
3 213 225 224
3 214 215 226
3 214 226 225
3 215 216 227
3 215 227 226
3 216 217 228
3 216 228 227
3 217 218 229
3 217 229 228
3 218 219 230
3 218 230 229
CELL_TYPES 400
5
5
5
5
5
5
5
5
5
5
5
5
5
5
5
5
5
5
5
5
5
5
5
5
5
5
5
5
5
5
5
5
5
5
5
5
5
5
5
5
5
5
5
5
5
5
5
5
5
5
5
5
5
5
5
5
5
5
5
5
5
5
5
5
5
5
5
5
5
5
5
5
5
5
5
5
5
5
5
5
5
5
5
5
5
5
5
5
5
5
5
5
5
5
5
5
5
5
5
5
5
5
5
5
5
5
5
5
5
5
5
5
5
5
5
5
5
5
5
5
5
5
5
5
5
5
5
5
5
5
5
5
5
5
5
5
5
5
5
5
5
5
5
5
5
5
5
5
5
5
5
5
5
5
5
5
5
5
5
5
5
5
5
5
5
5
5
5
5
5
5
5
5
5
5
5
5
5
5
5
5
5
5
5
5
5
5
5
5
5
5
5
5
5
5
5
5
5
5
5
5
5
5
5
5
5
5
5
5
5
5
5
5
5
5
5
5
5
5
5
5
5
5
5
5
5
5
5
5
5
5
5
5
5
5
5
5
5
5
5
5
5
5
5
5
5
5
5
5
5
5
5
5
5
5
5
5
5
5
5
5
5
5
5
5
5
5
5
5
5
5
5
5
5
5
5
5
5
5
5
5
5
5
5
5
5
5
5
5
5
5
5
5
5
5
5
5
5
5
5
5
5
5
5
5
5
5
5
5
5
5
5
5
5
5
5
5
5
5
5
5
5
5
5
5
5
5
5
5
5
5
5
5
5
5
5
5
5
5
5
5
5
5
5
5
5
5
5
5
5
5
5
5
5
5
5
5
5
5
5
5
5
5
5
5
5
5
5
5
5
5
5
5
5
5
5
5
5
5
5
5
5
5
5
5
5
5
5
5
5
5
5
5
5
5
5
5
5
5
5
POINT_DATA 231
SCALARS psi double 1
LOOKUP_TABLE default
0
0
0
0
0
0
0
0
0
0
0
0
-0.0994166
-0.252839
-0.400579
-0.451868
-0.411924
-0.356287
-0.318608
-0.263722
-0.153157
0
0
-0.166729
-0.443509
-0.715978
-0.809707
-0.733411
-0.631389
-0.567921
-0.475618
-0.280182
0
0
-0.182758
-0.529945
-0.883393
-1
-0.892004
-0.760205
-0.691645
-0.591016
-0.354863
0
0
-0.14073
-0.493533
-0.871798
-0.985117
-0.85099
-0.710264
-0.66096
-0.585313
-0.361431
0
0
-0.0478237
-0.34299
-0.688159
-0.771047
-0.617492
-0.489344
-0.481268
-0.459472
-0.29791
0
0
0.0764158
-0.112246
-0.375465
-0.405719
-0.240952
-0.144166
-0.191438
-0.240037
-0.176573
0
0
0.204428
0.147157
-0.00306101
0.0316766
0.197643
0.249584
0.144388
0.0264039
-0.0213993
0
0
0.306786
0.377442
0.348546
0.44798
0.603455
0.603772
0.450691
0.283143
0.136961
0
0
0.358779
0.527266
0.605093
0.756201
0.888512
0.837277
0.657165
0.475552
0.267631
0
0
0.345986
0.562906
0.714386
0.89411
0.990946
0.89411
0.714386
0.562906
0.345986
0
0
0.267631
0.475552
0.657165
0.837277
0.888512
0.756201
0.605093
0.527266
0.358779
0
0
0.136961
0.283143
0.450691
0.603772
0.603455
0.44798
0.348546
0.377442
0.306786
0
0
-0.0213993
0.0264039
0.144388
0.249584
0.197643
0.0316766
-0.00306101
0.147157
0.204428
0
0
-0.176573
-0.240037
-0.191438
-0.144166
-0.240952
-0.405719
-0.375465
-0.112246
0.0764158
0
0
-0.29791
-0.459472
-0.481268
-0.489344
-0.617492
-0.771047
-0.688159
-0.34299
-0.0478237
0
0
-0.361431
-0.585313
-0.66096
-0.710264
-0.85099
-0.985117
-0.871798
-0.493533
-0.14073
0
0
-0.354863
-0.591016
-0.691645
-0.760205
-0.892004
-1
-0.883393
-0.529945
-0.182758
0
0
-0.280182
-0.475618
-0.567921
-0.631389
-0.733411
-0.809707
-0.715978
-0.443509
-0.166729
0
0
-0.153157
-0.263722
-0.318608
-0.356287
-0.411924
-0.451868
-0.400579
-0.252839
-0.0994166
0
0
0
0
0
0
0
0
0
0
0
0
VECTORS Et double
0.0283357 0.113343 0
0.0291523 0.343295 0
0.0280727 0.688803 0
0.00974548 0.952367 0
-0.00758983 0.999971 0
-0.0105718 0.896965 0
-0.00715948 0.783753 0
-0.010429 0.684761 0
-0.021009 0.517293 0
-0.0291018 0.232814 0
-0 -0 0
0.0694616 0.0511609 0
0.0743387 0.199183 0
0.0831113 0.494731 0
0.046723 0.776255 0
-0.00509295 0.889825 0
-0.0278544 0.833699 0
-0.0237612 0.731177 0
-0.0263579 0.647574 0
-0.0500057 0.530847 0
-0.0767299 0.313175 0
-0.0582036 0.116407 0
0.0980878 0.012183 0
0.126703 0.0961917 0
0.152521 0.299818 0
0.0946972 0.511741 0
-0.00207515 0.596739 0
-0.0501994 0.549828 0
-0.0432448 0.476191 0
-0.042739 0.431929 0
-0.0823248 0.371887 0
-0.134592 0.233833 0
-0.135578 0.096546 0
0.0961935 -0.0319435 0
0.150055 -0.0335979 0
0.195364 0.0397056 0
0.125969 0.145623 0
-0.00220203 0.181357 0
-0.0661828 0.142704 0
-0.0524477 0.108557 0
-0.045365 0.1175 0
-0.0940328 0.132889 0
-0.165207 0.105608 0
-0.188096 0.0567616 0
0.0625683 -0.0706138 0
0.139184 -0.159767 0
0.204691 -0.227855 0
0.134862 -0.243578 0
-0.00746414 -0.267158 0
-0.074661 -0.298255 0
-0.0493974 -0.289742 0
-0.0323267 -0.2267 0
-0.0818244 -0.135781 0
-0.161957 -0.0454548 0
-0.204782 0.00499224 0
0.00365426 -0.0944286 0
0.0964671 -0.252731 0
0.180198 -0.443937 0
0.120149 -0.573284 0
-0.0183155 -0.653256 0
-0.0754657 -0.67619 0
-0.0347632 -0.629143 0
-0.00574303 -0.524208 0
-0.0480569 -0.376827 0
-0.125352 -0.188325 0
-0.18189 -0.0482798 0
-0.0678842 -0.0972964 0
0.031313 -0.290305 0
0.128178 -0.561276 0
0.0852568 -0.774622 0
-0.0334521 -0.895623 0
-0.0692221 -0.908016 0
-0.011589 -0.832342 0
0.0286588 -0.707963 0
-0.000353607 -0.538405 0
-0.0629928 -0.293554 0
-0.123709 -0.0922223 0
-0.135982 -0.0777975 0
-0.0419345 -0.262608 0
0.0600951 -0.554457 0
0.0375034 -0.807073 0
-0.0500333 -0.944599 0
-0.0570894 -0.942617 0
0.0154675 -0.851554 0
0.0628165 -0.735255 0
0.0500074 -0.585449 0
0.0119998 -0.339557 0
-0.0416835 -0.11794 0
-0.18476 -0.0395168 0
-0.107148 -0.174252 0
-0.00988777 -0.425296 0
-0.0134878 -0.666876 0
-0.0643068 -0.792626 0
-0.0405028 -0.772042 0
0.0412042 -0.679363 0
0.0881725 -0.597459 0
0.090576 -0.507438 0
0.0837693 -0.317246 0
0.0479827 -0.120362 0
-0.202087 0.00972274 0
-0.149943 -0.0433385 0
-0.0679072 -0.202256 0
-0.0578303 -0.387404 0
-0.0725005 -0.475504 0
-0.0209766 -0.433244 0
0.0610038 -0.350747 0
0.0976679 -0.322357 0
0.110544 -0.320878 0
0.13712 -0.231991 0
0.127731 -0.099316 0
-0.182337 0.0595544 0
-0.1608 0.102474 0
-0.103263 0.0659122 0
-0.0874389 -0.0315243 0
-0.071774 -0.0642292 0
5.53103e-15 -7.18573e-16 0
0.071774 0.0642292 0
0.0874389 0.0315243 0
0.103263 -0.0659122 0
0.1608 -0.102474 0
0.182337 -0.0595544 0
-0.127731 0.099316 0
-0.13712 0.231991 0
-0.110544 0.320878 0
-0.0976679 0.322357 0
-0.0610038 0.350747 0
0.0209766 0.433244 0
0.0725005 0.475504 0
0.0578303 0.387404 0
0.0679072 0.202256 0
0.149943 0.0433385 0
0.202087 -0.00972274 0
-0.0479827 0.120362 0
-0.0837693 0.317246 0
-0.090576 0.507438 0
-0.0881725 0.597459 0
-0.0412042 0.679363 0
0.0405028 0.772042 0
0.0643068 0.792626 0
0.0134878 0.666876 0
0.00988777 0.425296 0
0.107148 0.174252 0
0.18476 0.0395168 0
0.0416835 0.11794 0
-0.0119998 0.339557 0
-0.0500074 0.585449 0
-0.0628165 0.735255 0
-0.0154675 0.851554 0
0.0570894 0.942617 0
0.0500333 0.944599 0
-0.0375034 0.807073 0
-0.0600951 0.554457 0
0.0419345 0.262608 0
0.135982 0.0777975 0
0.123709 0.0922223 0
0.0629928 0.293554 0
0.000353607 0.538405 0
-0.0286588 0.707963 0
0.011589 0.832342 0
0.0692221 0.908016 0
0.0334521 0.895623 0
-0.0852568 0.774622 0
-0.128178 0.561276 0
-0.031313 0.290305 0
0.0678842 0.0972964 0
0.18189 0.0482798 0
0.125352 0.188325 0
0.0480569 0.376827 0
0.00574303 0.524208 0
0.0347632 0.629143 0
0.0754657 0.67619 0
0.0183155 0.653256 0
-0.120149 0.573284 0
-0.180198 0.443937 0
-0.0964671 0.252731 0
-0.00365426 0.0944286 0
0.204782 -0.00499224 0
0.161957 0.0454548 0
0.0818244 0.135781 0
0.0323267 0.2267 0
0.0493974 0.289742 0
0.074661 0.298255 0
0.00746414 0.267158 0
-0.134862 0.243578 0
-0.204691 0.227855 0
-0.139184 0.159767 0
-0.0625683 0.0706138 0
0.188096 -0.0567616 0
0.165207 -0.105608 0
0.0940328 -0.132889 0
0.045365 -0.1175 0
0.0524477 -0.108557 0
0.0661828 -0.142704 0
0.00220203 -0.181357 0
-0.125969 -0.145623 0
-0.195364 -0.0397056 0
-0.150055 0.0335979 0
-0.0961935 0.0319435 0
0.135578 -0.096546 0
0.134592 -0.233833 0
0.0823248 -0.371887 0
0.042739 -0.431929 0
0.0432448 -0.476191 0
0.0501994 -0.549828 0
0.00207515 -0.596739 0
-0.0946972 -0.511741 0
-0.152521 -0.299818 0
-0.126703 -0.0961917 0
-0.0980878 -0.012183 0
0.0582036 -0.116407 0
0.0767299 -0.313175 0
0.0500057 -0.530847 0
0.0263579 -0.647574 0
0.0237612 -0.731177 0
0.0278544 -0.833699 0
0.00509295 -0.889825 0
-0.046723 -0.776255 0
-0.0831113 -0.494731 0
-0.0743387 -0.199183 0
-0.0694616 -0.0511609 0
-0 -0 0
0.0291018 -0.232814 0
0.021009 -0.517293 0
0.010429 -0.684761 0
0.00715948 -0.783753 0
0.0105718 -0.896965 0
0.00758983 -0.999971 0
-0.00974548 -0.952367 0
-0.0280727 -0.688803 0
-0.0291523 -0.343295 0
-0.0283357 -0.113343 0
