# vtk DataFile Version 3.0
tp3485 scalar+vector
ASCII
DATASET UNSTRUCTURED_GRID
POINTS 231 double
0 0 0
0.1 0 0
0.2 0 0
0.3 0 0
0.4 0 0
0.5 0 0
0.6 0 0
0.7 0 0
0.8 0 0
0.9 0 0
1 0 0
0 0.025 0
0.1 0.025 0
0.2 0.025 0
0.3 0.025 0
0.4 0.025 0
0.5 0.025 0
0.6 0.025 0
0.7 0.025 0
0.8 0.025 0
0.9 0.025 0
1 0.025 0
0 0.05 0
0.1 0.05 0
0.2 0.05 0
0.3 0.05 0
0.4 0.05 0
0.5 0.05 0
0.6 0.05 0
0.7 0.05 0
0.8 0.05 0
0.9 0.05 0
1 0.05 0
0 0.075 0
0.1 0.075 0
0.2 0.075 0
0.3 0.075 0
0.4 0.075 0
0.5 0.075 0
0.6 0.075 0
0.7 0.075 0
0.8 0.075 0
0.9 0.075 0
1 0.075 0
0 0.1 0
0.1 0.1 0
0.2 0.1 0
0.3 0.1 0
0.4 0.1 0
0.5 0.1 0
0.6 0.1 0
0.7 0.1 0
0.8 0.1 0
0.9 0.1 0
1 0.1 0
0 0.125 0
0.1 0.125 0
0.2 0.125 0
0.3 0.125 0
0.4 0.125 0
0.5 0.125 0
0.6 0.125 0
0.7 0.125 0
0.8 0.125 0
0.9 0.125 0
1 0.125 0
0 0.15 0
0.1 0.15 0
0.2 0.15 0
0.3 0.15 0
0.4 0.15 0
0.5 0.15 0
0.6 0.15 0
0.7 0.15 0
0.8 0.15 0
0.9 0.15 0
1 0.15 0
0 0.175 0
0.1 0.175 0
0.2 0.175 0
0.3 0.175 0
0.4 0.175 0
0.5 0.175 0
0.6 0.175 0
0.7 0.175 0
0.8 0.175 0
0.9 0.175 0
1 0.175 0
0 0.2 0
0.1 0.2 0
0.2 0.2 0
0.3 0.2 0
0.4 0.2 0
0.5 0.2 0
0.6 0.2 0
0.7 0.2 0
0.8 0.2 0
0.9 0.2 0
1 0.2 0
0 0.225 0
0.1 0.225 0
0.2 0.225 0
0.3 0.225 0
0.4 0.225 0
0.5 0.225 0
0.6 0.225 0
0.7 0.225 0
0.8 0.225 0
0.9 0.225 0
1 0.225 0
0 0.25 0
0.1 0.25 0
0.2 0.25 0
0.3 0.25 0
0.4 0.25 0
0.5 0.25 0
0.6 0.25 0
0.7 0.25 0
0.8 0.25 0
0.9 0.25 0
1 0.25 0
0 0.275 0
0.1 0.275 0
0.2 0.275 0
0.3 0.275 0
0.4 0.275 0
0.5 0.275 0
0.6 0.275 0
0.7 0.275 0
0.8 0.275 0
0.9 0.275 0
1 0.275 0
0 0.3 0
0.1 0.3 0
0.2 0.3 0
0.3 0.3 0
0.4 0.3 0
0.5 0.3 0
0.6 0.3 0
0.7 0.3 0
0.8 0.3 0
0.9 0.3 0
1 0.3 0
0 0.325 0
0.1 0.325 0
0.2 0.325 0
0.3 0.325 0
0.4 0.325 0
0.5 0.325 0
0.6 0.325 0
0.7 0.325 0
0.8 0.325 0
0.9 0.325 0
1 0.325 0
0 0.35 0
0.1 0.35 0
0.2 0.35 0
0.3 0.35 0
0.4 0.35 0
0.5 0.35 0
0.6 0.35 0
0.7 0.35 0
0.8 0.35 0
0.9 0.35 0
1 0.35 0
0 0.375 0
0.1 0.375 0
0.2 0.375 0
0.3 0.375 0
0.4 0.375 0
0.5 0.375 0
0.6 0.375 0
0.7 0.375 0
0.8 0.375 0
0.9 0.375 0
1 0.375 0
0 0.4 0
0.1 0.4 0
0.2 0.4 0
0.3 0.4 0
0.4 0.4 0
0.5 0.4 0
0.6 0.4 0
0.7 0.4 0
0.8 0.4 0
0.9 0.4 0
1 0.4 0
0 0.425 0
0.1 0.425 0
0.2 0.425 0
0.3 0.425 0
0.4 0.425 0
0.5 0.425 0
0.6 0.425 0
0.7 0.425 0
0.8 0.425 0
0.9 0.425 0
1 0.425 0
0 0.45 0
0.1 0.45 0
0.2 0.45 0
0.3 0.45 0
0.4 0.45 0
0.5 0.45 0
0.6 0.45 0
0.7 0.45 0
0.8 0.45 0
0.9 0.45 0
1 0.45 0
0 0.475 0
0.1 0.475 0
0.2 0.475 0
0.3 0.475 0
0.4 0.475 0
0.5 0.475 0
0.6 0.475 0
0.7 0.475 0
0.8 0.475 0
0.9 0.475 0
1 0.475 0
0 0.5 0
0.1 0.5 0
0.2 0.5 0
0.3 0.5 0
0.4 0.5 0
0.5 0.5 0
0.6 0.5 0
0.7 0.5 0
0.8 0.5 0
0.9 0.5 0
1 0.5 0
CELLS 400 1600
3 0 1 12
3 0 12 11
3 1 2 13
3 1 13 12
3 2 3 14
3 2 14 13
3 3 4 15
3 3 15 14
3 4 5 16
3 4 16 15
3 5 6 17
3 5 17 16
3 6 7 18
3 6 18 17
3 7 8 19
3 7 19 18
3 8 9 20
3 8 20 19
3 9 10 21
3 9 21 20
3 11 12 23
3 11 23 22
3 12 13 24
3 12 24 23
3 13 14 25
3 13 25 24
3 14 15 26
3 14 26 25
3 15 16 27
3 15 27 26
3 16 17 28
3 16 28 27
3 17 18 29
3 17 29 28
3 18 19 30
3 18 30 29
3 19 20 31
3 19 31 30
3 20 21 32
3 20 32 31
3 22 23 34
3 22 34 33
3 23 24 35
3 23 35 34
3 24 25 36
3 24 36 35
3 25 26 37
3 25 37 36
3 26 27 38
3 26 38 37
3 27 28 39
3 27 39 38
3 28 29 40
3 28 40 39
3 29 30 41
3 29 41 40
3 30 31 42
3 30 42 41
3 31 32 43
3 31 43 42
3 33 34 45
3 33 45 44
3 34 35 46
3 34 46 45
3 35 36 47
3 35 47 46
3 36 37 48
3 36 48 47
3 37 38 49
3 37 49 48
3 38 39 50
3 38 50 49
3 39 40 51
3 39 51 50
3 40 41 52
3 40 52 51
3 41 42 53
3 41 53 52
3 42 43 54
3 42 54 53
3 44 45 56
3 44 56 55
3 45 46 57
3 45 57 56
3 46 47 58
3 46 58 57
3 47 48 59
3 47 59 58
3 48 49 60
3 48 60 59
3 49 50 61
3 49 61 60
3 50 51 62
3 50 62 61
3 51 52 63
3 51 63 62
3 52 53 64
3 52 64 63
3 53 54 65
3 53 65 64
3 55 56 67
3 55 67 66
3 56 57 68
3 56 68 67
3 57 58 69
3 57 69 68
3 58 59 70
3 58 70 69
3 59 60 71
3 59 71 70
3 60 61 72
3 60 72 71
3 61 62 73
3 61 73 72
3 62 63 74
3 62 74 73
3 63 64 75
3 63 75 74
3 64 65 76
3 64 76 75
3 66 67 78
3 66 78 77
3 67 68 79
3 67 79 78
3 68 69 80
3 68 80 79
3 69 70 81
3 69 81 80
3 70 71 82
3 70 82 81
3 71 72 83
3 71 83 82
3 72 73 84
3 72 84 83
3 73 74 85
3 73 85 84
3 74 75 86
3 74 86 85
3 75 76 87
3 75 87 86
3 77 78 89
3 77 89 88
3 78 79 90
3 78 90 89
3 79 80 91
3 79 91 90
3 80 81 92
3 80 92 91
3 81 82 93
3 81 93 92
3 82 83 94
3 82 94 93
3 83 84 95
3 83 95 94
3 84 85 96
3 84 96 95
3 85 86 97
3 85 97 96
3 86 87 98
3 86 98 97
3 88 89 100
3 88 100 99
3 89 90 101
3 89 101 100
3 90 91 102
3 90 102 101
3 91 92 103
3 91 103 102
3 92 93 104
3 92 104 103
3 93 94 105
3 93 105 104
3 94 95 106
3 94 106 105
3 95 96 107
3 95 107 106
3 96 97 108
3 96 108 107
3 97 98 109
3 97 109 108
3 99 100 111
3 99 111 110
3 100 101 112
3 100 112 111
3 101 102 113
3 101 113 112
3 102 103 114
3 102 114 113
3 103 104 115
3 103 115 114
3 104 105 116
3 104 116 115
3 105 106 117
3 105 117 116
3 106 107 118
3 106 118 117
3 107 108 119
3 107 119 118
3 108 109 120
3 108 120 119
3 110 111 122
3 110 122 121
3 111 112 123
3 111 123 122
3 112 113 124
3 112 124 123
3 113 114 125
3 113 125 124
3 114 115 126
3 114 126 125
3 115 116 127
3 115 127 126
3 116 117 128
3 116 128 127
3 117 118 129
3 117 129 128
3 118 119 130
3 118 130 129
3 119 120 131
3 119 131 130
3 121 122 133
3 121 133 132
3 122 123 134
3 122 134 133
3 123 124 135
3 123 135 134
3 124 125 136
3 124 136 135
3 125 126 137
3 125 137 136
3 126 127 138
3 126 138 137
3 127 128 139
3 127 139 138
3 128 129 140
3 128 140 139
3 129 130 141
3 129 141 140
3 130 131 142
3 130 142 141
3 132 133 144
3 132 144 143
3 133 134 145
3 133 145 144
3 134 135 146
3 134 146 145
3 135 136 147
3 135 147 146
3 136 137 148
3 136 148 147
3 137 138 149
3 137 149 148
3 138 139 150
3 138 150 149
3 139 140 151
3 139 151 150
3 140 141 152
3 140 152 151
3 141 142 153
3 141 153 152
3 143 144 155
3 143 155 154
3 144 145 156
3 144 156 155
3 145 146 157
3 145 157 156
3 146 147 158
3 146 158 157
3 147 148 159
3 147 159 158
3 148 149 160
3 148 160 159
3 149 150 161
3 149 161 160
3 150 151 162
3 150 162 161
3 151 152 163
3 151 163 162
3 152 153 164
3 152 164 163
3 154 155 166
3 154 166 165
3 155 156 167
3 155 167 166
3 156 157 168
3 156 168 167
3 157 158 169
3 157 169 168
3 158 159 170
3 158 170 169
3 159 160 171
3 159 171 170
3 160 161 172
3 160 172 171
3 161 162 173
3 161 173 172
3 162 163 174
3 162 174 173
3 163 164 175
3 163 175 174
3 165 166 177
3 165 177 176
3 166 167 178
3 166 178 177
3 167 168 179
3 167 179 178
3 168 169 180
3 168 180 179
3 169 170 181
3 169 181 180
3 170 171 182
3 170 182 181
3 171 172 183
3 171 183 182
3 172 173 184
3 172 184 183
3 173 174 185
3 173 185 184
3 174 175 186
3 174 186 185
3 176 177 188
3 176 188 187
3 177 178 189
3 177 189 188
3 178 179 190
3 178 190 189
3 179 180 191
3 179 191 190
3 180 181 192
3 180 192 191
3 181 182 193
3 181 193 192
3 182 183 194
3 182 194 193
3 183 184 195
3 183 195 194
3 184 185 196
3 184 196 195
3 185 186 197
3 185 197 196
3 187 188 199
3 187 199 198
3 188 189 200
3 188 200 199
3 189 190 201
3 189 201 200
3 190 191 202
3 190 202 201
3 191 192 203
3 191 203 202
3 192 193 204
3 192 204 203
3 193 194 205
3 193 205 204
3 194 195 206
3 194 206 205
3 195 196 207
3 195 207 206
3 196 197 208
3 196 208 207
3 198 199 210
3 198 210 209
3 199 200 211
3 199 211 210
3 200 201 212
3 200 212 211
3 201 202 213
3 201 213 212
3 202 203 214
3 202 214 213
3 203 204 215
3 203 215 214
3 204 205 216
3 204 216 215
3 205 206 217
3 205 217 216
3 206 207 218
3 206 218 217
3 207 208 219
3 207 219 218
3 209 210 221
3 209 221 220
3 210 211 222
3 210 222 221
3 211 212 223
3 211 223 222
3 212 213 224
3 212 224 223
3 213 214 225
3 213 225 224
3 214 215 226
3 214 226 225
3 215 216 227
3 215 227 226
3 216 217 228
3 216 228 227
3 217 218 229
3 217 229 228
3 218 219 230
3 218 230 229
CELL_TYPES 400
5
5
5
5
5
5
5
5
5
5
5
5
5
5
5
5
5
5
5
5
5
5
5
5
5
5
5
5
5
5
5
5
5
5
5
5
5
5
5
5
5
5
5
5
5
5
5
5
5
5
5
5
5
5
5
5
5
5
5
5
5
5
5
5
5
5
5
5
5
5
5
5
5
5
5
5
5
5
5
5
5
5
5
5
5
5
5
5
5
5
5
5
5
5
5
5
5
5
5
5
5
5
5
5
5
5
5
5
5
5
5
5
5
5
5
5
5
5
5
5
5
5
5
5
5
5
5
5
5
5
5
5
5
5
5
5
5
5
5
5
5
5
5
5
5
5
5
5
5
5
5
5
5
5
5
5
5
5
5
5
5
5
5
5
5
5
5
5
5
5
5
5
5
5
5
5
5
5
5
5
5
5
5
5
5
5
5
5
5
5
5
5
5
5
5
5
5
5
5
5
5
5
5
5
5
5
5
5
5
5
5
5
5
5
5
5
5
5
5
5
5
5
5
5
5
5
5
5
5
5
5
5
5
5
5
5
5
5
5
5
5
5
5
5
5
5
5
5
5
5
5
5
5
5
5
5
5
5
5
5
5
5
5
5
5
5
5
5
5
5
5
5
5
5
5
5
5
5
5
5
5
5
5
5
5
5
5
5
5
5
5
5
5
5
5
5
5
5
5
5
5
5
5
5
5
5
5
5
5
5
5
5
5
5
5
5
5
5
5
5
5
5
5
5
5
5
5
5
5
5
5
5
5
5
5
5
5
5
5
5
5
5
5
5
5
5
5
5
5
5
5
5
5
5
5
5
5
5
5
5
5
5
5
5
5
5
5
5
5
5
5
5
5
5
5
5
5
5
5
5
5
5
5
5
5
5
5
5
5
5
5
5
5
5
5
5
5
5
5
5
POINT_DATA 231
SCALARS psi double 1
LOOKUP_TABLE default
0
0
0
0
0
0
0
0
0
0
0
0
-0.300082
-0.150414
0.177558
0.177184
-0.142491
-0.321793
-0.130896
0.168851
0.219921
0
0
-0.571205
-0.292147
0.339507
0.350147
-0.256032
-0.604678
-0.250888
0.316009
0.418118
0
0
-0.789675
-0.407943
0.477284
0.50653
-0.326908
-0.814774
-0.340442
0.4293
0.572064
0
0
-0.936621
-0.483743
0.582885
0.632427
-0.349358
-0.928271
-0.384218
0.499923
0.664026
0
0
-1
-0.510398
0.649086
0.713306
-0.326552
-0.934462
-0.373419
0.522803
0.682668
0
0
-0.975849
-0.484662
0.670132
0.735768
-0.269828
-0.836722
-0.307019
0.49675
0.624048
0
0
-0.868635
-0.40934
0.642786
0.689907
-0.196299
-0.65135
-0.191698
0.424494
0.491965
0
0
-0.6907
-0.292642
0.567491
0.57182
-0.125319
-0.404564
-0.040559
0.312576
0.297618
0
0
-0.4609
-0.146935
0.44931
0.3857
-0.0745005
-0.128222
0.129069
0.171041
0.0586146
0
0
-0.202617
0.0128714
0.298299
0.144933
-0.0560992
0.144933
0.298299
0.0128714
-0.202617
0
0
0.0586146
0.171041
0.129069
-0.128222
-0.0745005
0.3857
0.44931
-0.146935
-0.4609
0
0
0.297618
0.312576
-0.040559
-0.404564
-0.125319
0.57182
0.567491
-0.292642
-0.6907
0
0
0.491965
0.424494
-0.191698
-0.65135
-0.196299
0.689907
0.642786
-0.40934
-0.868635
0
0
0.624048
0.49675
-0.307019
-0.836722
-0.269828
0.735768
0.670132
-0.484662
-0.975849
0
0
0.682668
0.522803
-0.373419
-0.934462
-0.326552
0.713306
0.649086
-0.510398
-1
0
0
0.664026
0.499923
-0.384218
-0.928271
-0.349358
0.632427
0.582885
-0.483743
-0.936621
0
0
0.572064
0.4293
-0.340442
-0.814774
-0.326908
0.50653
0.477284
-0.407943
-0.789675
0
0
0.418118
0.316009
-0.250888
-0.604678
-0.256032
0.350147
0.339507
-0.292147
-0.571205
0
0
0.219921
0.168851
-0.130896
-0.321793
-0.142491
0.177184
0.177558
-0.150414
-0.300082
0
0
0
0
0
0
0
0
0
0
0
0
VECTORS Et double
0.145023 0.580091 0
-0.0482208 0.967299 0
-0.105668 0.158862 0
0.000120512 -0.685998 0
0.102995 -0.273055 0
0.0577685 0.781976 0
-0.0615042 0.998107 0
-0.0965741 0.119777 0
-0.0164538 -0.718631 0
0.0708551 -0.566841 0
-0 -0 0
0.377397 0.349407 0
0.00350691 0.827463 0
-0.255643 0.46551 0
-0.107261 -0.452066 0
0.200766 -0.4925 0
0.216927 0.398069 0
-0.0607286 0.948409 0
-0.249401 0.43586 0
-0.129477 -0.45062 0
0.121757 -0.647648 0
0.14171 -0.28342 0
0.622489 0.281552 0
0.0809721 0.705575 0
-0.460132 0.417813 0
-0.264483 -0.395709 0
0.326195 -0.483126 0
0.437719 0.261593 0
-0.0491842 0.766192 0
-0.451383 0.379332 0
-0.286829 -0.357529 0
0.185742 -0.548645 0
0.340278 -0.255424 0
0.810608 0.189375 0
0.150495 0.519769 0
-0.624975 0.319647 0
-0.404365 -0.320159 0
0.415543 -0.438099 0
0.616614 0.0926381 0
-0.0271182 0.490906 0
-0.600243 0.261699 0
-0.411755 -0.23857 0
0.228835 -0.389914 0
0.503332 -0.198397 0
0.925715 0.0816794 0
0.204194 0.28823 0
-0.73784 0.184066 0
-0.512562 -0.224681 0
0.463157 -0.349221 0
0.735024 -0.077594 0
-0.000556989 0.161755 0
-0.680929 0.100889 0
-0.487481 -0.104306 0
0.248042 -0.188047 0
0.612189 -0.118516 0
0.958774 -0.0311238 0
0.236198 0.0339726 0
-0.790295 0.0284637 0
-0.576658 -0.109737 0
0.468349 -0.212389 0
0.780367 -0.21759 0
0.0230272 -0.175465 0
-0.686633 -0.078713 0
-0.503191 0.0349037 0
0.242533 0.0367789 0
0.65383 -0.0240239 0
0.908669 -0.138171 0
0.243254 -0.217831 0
-0.778671 -0.128178 0
-0.587579 0.0210874 0
0.435257 -0.0307859 0
0.747451 -0.301784 0
0.0358656 -0.47572 0
-0.619268 -0.250613 0
-0.455219 0.169018 0
0.213544 0.262554 0
0.622063 0.0755457 0
0.782256 -0.229312 0
0.224961 -0.442681 0
-0.704645 -0.268033 0
-0.540887 0.159833 0
0.372071 0.18317 0
0.639111 -0.315704 0
0.0312013 -0.701708 0
-0.488839 -0.390728 0
-0.347337 0.288275 0
0.164203 0.467243 0
0.518066 0.170221 0
0.593561 -0.296153 0
0.183638 -0.619354 0
-0.57541 -0.376675 0
-0.437759 0.294074 0
0.289757 0.407815 0
0.465991 -0.258942 0
0.0045491 -0.829216 0
-0.311859 -0.481206 0
-0.190108 0.383253 0
0.0992805 0.630593 0
0.35028 0.250463 0
0.36227 -0.332859 0
0.123893 -0.731987 0
-0.40336 -0.444496 0
-0.285462 0.408174 0
0.200451 0.614442 0
0.245497 -0.145289 0
-0.0453089 -0.849951 0
-0.109076 -0.512846 0
0.000525616 0.445267 0
0.0248763 0.735873 0
0.133657 0.308013 0
0.111676 -0.33666 0
0.0519894 -0.771438 0
-0.205203 -0.467172 0
-0.0971513 0.485745 0
0.115775 0.771476 0
3.24163e-14 4.74228e-15 0
-0.115775 -0.771476 0
0.0971513 -0.485745 0
0.205203 0.467172 0
-0.0519894 0.771438 0
-0.111676 0.33666 0
-0.133657 -0.308013 0
-0.0248763 -0.735873 0
-0.000525616 -0.445267 0
0.109076 0.512846 0
0.0453089 0.849951 0
-0.245497 0.145289 0
-0.200451 -0.614442 0
0.285462 -0.408174 0
0.40336 0.444496 0
-0.123893 0.731987 0
-0.36227 0.332859 0
-0.35028 -0.250463 0
-0.0992805 -0.630593 0
0.190108 -0.383253 0
0.311859 0.481206 0
-0.0045491 0.829216 0
-0.465991 0.258942 0
-0.289757 -0.407815 0
0.437759 -0.294074 0
0.57541 0.376675 0
-0.183638 0.619354 0
-0.593561 0.296153 0
-0.518066 -0.170221 0
-0.164203 -0.467243 0
0.347337 -0.288275 0
0.488839 0.390728 0
-0.0312013 0.701708 0
-0.639111 0.315704 0
-0.372071 -0.18317 0
0.540887 -0.159833 0
0.704645 0.268033 0
-0.224961 0.442681 0
-0.782256 0.229312 0
-0.622063 -0.0755457 0
-0.213544 -0.262554 0
0.455219 -0.169018 0
0.619268 0.250613 0
-0.0358656 0.47572 0
-0.747451 0.301784 0
-0.435257 0.0307859 0
0.587579 -0.0210874 0
0.778671 0.128178 0
-0.243254 0.217831 0
-0.908669 0.138171 0
-0.65383 0.0240239 0
-0.242533 -0.0367789 0
0.503191 -0.0349037 0
0.686633 0.078713 0
-0.0230272 0.175465 0
-0.780367 0.21759 0
-0.468349 0.212389 0
0.576658 0.109737 0
0.790295 -0.0284637 0
-0.236198 -0.0339726 0
-0.958774 0.0311238 0
-0.612189 0.118516 0
-0.248042 0.188047 0
0.487481 0.104306 0
0.680929 -0.100889 0
0.000556989 -0.161755 0
-0.735024 0.077594 0
-0.463157 0.349221 0
0.512562 0.224681 0
0.73784 -0.184066 0
-0.204194 -0.28823 0
-0.925715 -0.0816794 0
-0.503332 0.198397 0
-0.228835 0.389914 0
0.411755 0.23857 0
0.600243 -0.261699 0
0.0271182 -0.490906 0
-0.616614 -0.0926381 0
-0.415543 0.438099 0
0.404365 0.320159 0
0.624975 -0.319647 0
-0.150495 -0.519769 0
-0.810608 -0.189375 0
-0.340278 0.255424 0
-0.185742 0.548645 0
0.286829 0.357529 0
0.451383 -0.379332 0
0.0491842 -0.766192 0
-0.437719 -0.261593 0
-0.326195 0.483126 0
0.264483 0.395709 0
0.460132 -0.417813 0
-0.0809721 -0.705575 0
-0.622489 -0.281552 0
-0.14171 0.28342 0
-0.121757 0.647648 0
0.129477 0.45062 0
0.249401 -0.43586 0
0.0607286 -0.948409 0
-0.216927 -0.398069 0
-0.200766 0.4925 0
0.107261 0.452066 0
0.255643 -0.46551 0
-0.00350691 -0.827463 0
-0.377397 -0.349407 0
-0 -0 0
-0.0708551 0.566841 0
0.0164538 0.718631 0
0.0965741 -0.119777 0
0.0615042 -0.998107 0
-0.0577685 -0.781976 0
-0.102995 0.273055 0
-0.000120512 0.685998 0
0.105668 -0.158862 0
0.0482208 -0.967299 0
-0.145023 -0.580091 0
