# vtk DataFile Version 3.0
tp3485 scalar+vector
ASCII
DATASET UNSTRUCTURED_GRID
POINTS 231 double
0 0 0
0.1 0 0
0.2 0 0
0.3 0 0
0.4 0 0
0.5 0 0
0.6 0 0
0.7 0 0
0.8 0 0
0.9 0 0
1 0 0
0 0.025 0
0.1 0.025 0
0.2 0.025 0
0.3 0.025 0
0.4 0.025 0
0.5 0.025 0
0.6 0.025 0
0.7 0.025 0
0.8 0.025 0
0.9 0.025 0
1 0.025 0
0 0.05 0
0.1 0.05 0
0.2 0.05 0
0.3 0.05 0
0.4 0.05 0
0.5 0.05 0
0.6 0.05 0
0.7 0.05 0
0.8 0.05 0
0.9 0.05 0
1 0.05 0
0 0.075 0
0.1 0.075 0
0.2 0.075 0
0.3 0.075 0
0.4 0.075 0
0.5 0.075 0
0.6 0.075 0
0.7 0.075 0
0.8 0.075 0
0.9 0.075 0
1 0.075 0
0 0.1 0
0.1 0.1 0
0.2 0.1 0
0.3 0.1 0
0.4 0.1 0
0.5 0.1 0
0.6 0.1 0
0.7 0.1 0
0.8 0.1 0
0.9 0.1 0
1 0.1 0
0 0.125 0
0.1 0.125 0
0.2 0.125 0
0.3 0.125 0
0.4 0.125 0
0.5 0.125 0
0.6 0.125 0
0.7 0.125 0
0.8 0.125 0
0.9 0.125 0
1 0.125 0
0 0.15 0
0.1 0.15 0
0.2 0.15 0
0.3 0.15 0
0.4 0.15 0
0.5 0.15 0
0.6 0.15 0
0.7 0.15 0
0.8 0.15 0
0.9 0.15 0
1 0.15 0
0 0.175 0
0.1 0.175 0
0.2 0.175 0
0.3 0.175 0
0.4 0.175 0
0.5 0.175 0
0.6 0.175 0
0.7 0.175 0
0.8 0.175 0
0.9 0.175 0
1 0.175 0
0 0.2 0
0.1 0.2 0
0.2 0.2 0
0.3 0.2 0
0.4 0.2 0
0.5 0.2 0
0.6 0.2 0
0.7 0.2 0
0.8 0.2 0
0.9 0.2 0
1 0.2 0
0 0.225 0
0.1 0.225 0
0.2 0.225 0
0.3 0.225 0
0.4 0.225 0
0.5 0.225 0
0.6 0.225 0
0.7 0.225 0
0.8 0.225 0
0.9 0.225 0
1 0.225 0
0 0.25 0
0.1 0.25 0
0.2 0.25 0
0.3 0.25 0
0.4 0.25 0
0.5 0.25 0
0.6 0.25 0
0.7 0.25 0
0.8 0.25 0
0.9 0.25 0
1 0.25 0
0 0.275 0
0.1 0.275 0
0.2 0.275 0
0.3 0.275 0
0.4 0.275 0
0.5 0.275 0
0.6 0.275 0
0.7 0.275 0
0.8 0.275 0
0.9 0.275 0
1 0.275 0
0 0.3 0
0.1 0.3 0
0.2 0.3 0
0.3 0.3 0
0.4 0.3 0
0.5 0.3 0
0.6 0.3 0
0.7 0.3 0
0.8 0.3 0
0.9 0.3 0
1 0.3 0
0 0.325 0
0.1 0.325 0
0.2 0.325 0
0.3 0.325 0
0.4 0.325 0
0.5 0.325 0
0.6 0.325 0
0.7 0.325 0
0.8 0.325 0
0.9 0.325 0
1 0.325 0
0 0.35 0
0.1 0.35 0
0.2 0.35 0
0.3 0.35 0
0.4 0.35 0
0.5 0.35 0
0.6 0.35 0
0.7 0.35 0
0.8 0.35 0
0.9 0.35 0
1 0.35 0
0 0.375 0
0.1 0.375 0
0.2 0.375 0
0.3 0.375 0
0.4 0.375 0
0.5 0.375 0
0.6 0.375 0
0.7 0.375 0
0.8 0.375 0
0.9 0.375 0
1 0.375 0
0 0.4 0
0.1 0.4 0
0.2 0.4 0
0.3 0.4 0
0.4 0.4 0
0.5 0.4 0
0.6 0.4 0
0.7 0.4 0
0.8 0.4 0
0.9 0.4 0
1 0.4 0
0 0.425 0
0.1 0.425 0
0.2 0.425 0
0.3 0.425 0
0.4 0.425 0
0.5 0.425 0
0.6 0.425 0
0.7 0.425 0
0.8 0.425 0
0.9 0.425 0
1 0.425 0
0 0.45 0
0.1 0.45 0
0.2 0.45 0
0.3 0.45 0
0.4 0.45 0
0.5 0.45 0
0.6 0.45 0
0.7 0.45 0
0.8 0.45 0
0.9 0.45 0
1 0.45 0
0 0.475 0
0.1 0.475 0
0.2 0.475 0
0.3 0.475 0
0.4 0.475 0
0.5 0.475 0
0.6 0.475 0
0.7 0.475 0
0.8 0.475 0
0.9 0.475 0
1 0.475 0
0 0.5 0
0.1 0.5 0
0.2 0.5 0
0.3 0.5 0
0.4 0.5 0
0.5 0.5 0
0.6 0.5 0
0.7 0.5 0
0.8 0.5 0
0.9 0.5 0
1 0.5 0
CELLS 400 1600
3 0 1 12
3 0 12 11
3 1 2 13
3 1 13 12
3 2 3 14
3 2 14 13
3 3 4 15
3 3 15 14
3 4 5 16
3 4 16 15
3 5 6 17
3 5 17 16
3 6 7 18
3 6 18 17
3 7 8 19
3 7 19 18
3 8 9 20
3 8 20 19
3 9 10 21
3 9 21 20
3 11 12 23
3 11 23 22
3 12 13 24
3 12 24 23
3 13 14 25
3 13 25 24
3 14 15 26
3 14 26 25
3 15 16 27
3 15 27 26
3 16 17 28
3 16 28 27
3 17 18 29
3 17 29 28
3 18 19 30
3 18 30 29
3 19 20 31
3 19 31 30
3 20 21 32
3 20 32 31
3 22 23 34
3 22 34 33
3 23 24 35
3 23 35 34
3 24 25 36
3 24 36 35
3 25 26 37
3 25 37 36
3 26 27 38
3 26 38 37
3 27 28 39
3 27 39 38
3 28 29 40
3 28 40 39
3 29 30 41
3 29 41 40
3 30 31 42
3 30 42 41
3 31 32 43
3 31 43 42
3 33 34 45
3 33 45 44
3 34 35 46
3 34 46 45
3 35 36 47
3 35 47 46
3 36 37 48
3 36 48 47
3 37 38 49
3 37 49 48
3 38 39 50
3 38 50 49
3 39 40 51
3 39 51 50
3 40 41 52
3 40 52 51
3 41 42 53
3 41 53 52
3 42 43 54
3 42 54 53
3 44 45 56
3 44 56 55
3 45 46 57
3 45 57 56
3 46 47 58
3 46 58 57
3 47 48 59
3 47 59 58
3 48 49 60
3 48 60 59
3 49 50 61
3 49 61 60
3 50 51 62
3 50 62 61
3 51 52 63
3 51 63 62
3 52 53 64
3 52 64 63
3 53 54 65
3 53 65 64
3 55 56 67
3 55 67 66
3 56 57 68
3 56 68 67
3 57 58 69
3 57 69 68
3 58 59 70
3 58 70 69
3 59 60 71
3 59 71 70
3 60 61 72
3 60 72 71
3 61 62 73
3 61 73 72
3 62 63 74
3 62 74 73
3 63 64 75
3 63 75 74
3 64 65 76
3 64 76 75
3 66 67 78
3 66 78 77
3 67 68 79
3 67 79 78
3 68 69 80
3 68 80 79
3 69 70 81
3 69 81 80
3 70 71 82
3 70 82 81
3 71 72 83
3 71 83 82
3 72 73 84
3 72 84 83
3 73 74 85
3 73 85 84
3 74 75 86
3 74 86 85
3 75 76 87
3 75 87 86
3 77 78 89
3 77 89 88
3 78 79 90
3 78 90 89
3 79 80 91
3 79 91 90
3 80 81 92
3 80 92 91
3 81 82 93
3 81 93 92
3 82 83 94
3 82 94 93
3 83 84 95
3 83 95 94
3 84 85 96
3 84 96 95
3 85 86 97
3 85 97 96
3 86 87 98
3 86 98 97
3 88 89 100
3 88 100 99
3 89 90 101
3 89 101 100
3 90 91 102
3 90 102 101
3 91 92 103
3 91 103 102
3 92 93 104
3 92 104 103
3 93 94 105
3 93 105 104
3 94 95 106
3 94 106 105
3 95 96 107
3 95 107 106
3 96 97 108
3 96 108 107
3 97 98 109
3 97 109 108
3 99 100 111
3 99 111 110
3 100 101 112
3 100 112 111
3 101 102 113
3 101 113 112
3 102 103 114
3 102 114 113
3 103 104 115
3 103 115 114
3 104 105 116
3 104 116 115
3 105 106 117
3 105 117 116
3 106 107 118
3 106 118 117
3 107 108 119
3 107 119 118
3 108 109 120
3 108 120 119
3 110 111 122
3 110 122 121
3 111 112 123
3 111 123 122
3 112 113 124
3 112 124 123
3 113 114 125
3 113 125 124
3 114 115 126
3 114 126 125
3 115 116 127
3 115 127 126
3 116 117 128
3 116 128 127
3 117 118 129
3 117 129 128
3 118 119 130
3 118 130 129
3 119 120 131
3 119 131 130
3 121 122 133
3 121 133 132
3 122 123 134
3 122 134 133
3 123 124 135
3 123 135 134
3 124 125 136
3 124 136 135
3 125 126 137
3 125 137 136
3 126 127 138
3 126 138 137
3 127 128 139
3 127 139 138
3 128 129 140
3 128 140 139
3 129 130 141
3 129 141 140
3 130 131 142
3 130 142 141
3 132 133 144
3 132 144 143
3 133 134 145
3 133 145 144
3 134 135 146
3 134 146 145
3 135 136 147
3 135 147 146
3 136 137 148
3 136 148 147
3 137 138 149
3 137 149 148
3 138 139 150
3 138 150 149
3 139 140 151
3 139 151 150
3 140 141 152
3 140 152 151
3 141 142 153
3 141 153 152
3 143 144 155
3 143 155 154
3 144 145 156
3 144 156 155
3 145 146 157
3 145 157 156
3 146 147 158
3 146 158 157
3 147 148 159
3 147 159 158
3 148 149 160
3 148 160 159
3 149 150 161
3 149 161 160
3 150 151 162
3 150 162 161
3 151 152 163
3 151 163 162
3 152 153 164
3 152 164 163
3 154 155 166
3 154 166 165
3 155 156 167
3 155 167 166
3 156 157 168
3 156 168 167
3 157 158 169
3 157 169 168
3 158 159 170
3 158 170 169
3 159 160 171
3 159 171 170
3 160 161 172
3 160 172 171
3 161 162 173
3 161 173 172
3 162 163 174
3 162 174 173
3 163 164 175
3 163 175 174
3 165 166 177
3 165 177 176
3 166 167 178
3 166 178 177
3 167 168 179
3 167 179 178
3 168 169 180
3 168 180 179
3 169 170 181
3 169 181 180
3 170 171 182
3 170 182 181
3 171 172 183
3 171 183 182
3 172 173 184
3 172 184 183
3 173 174 185
3 173 185 184
3 174 175 186
3 174 186 185
3 176 177 188
3 176 188 187
3 177 178 189
3 177 189 188
3 178 179 190
3 178 190 189
3 179 180 191
3 179 191 190
3 180 181 192
3 180 192 191
3 181 182 193
3 181 193 192
3 182 183 194
3 182 194 193
3 183 184 195
3 183 195 194
3 184 185 196
3 184 196 195
3 185 186 197
3 185 197 196
3 187 188 199
3 187 199 198
3 188 189 200
3 188 200 199
3 189 190 201
3 189 201 200
3 190 191 202
3 190 202 201
3 191 192 203
3 191 203 202
3 192 193 204
3 192 204 203
3 193 194 205
3 193 205 204
3 194 195 206
3 194 206 205
3 195 196 207
3 195 207 206
3 196 197 208
3 196 208 207
3 198 199 210
3 198 210 209
3 199 200 211
3 199 211 210
3 200 201 212
3 200 212 211
3 201 202 213
3 201 213 212
3 202 203 214
3 202 214 213
3 203 204 215
3 203 215 214
3 204 205 216
3 204 216 215
3 205 206 217
3 205 217 216
3 206 207 218
3 206 218 217
3 207 208 219
3 207 219 218
3 209 210 221
3 209 221 220
3 210 211 222
3 210 222 221
3 211 212 223
3 211 223 222
3 212 213 224
3 212 224 223
3 213 214 225
3 213 225 224
3 214 215 226
3 214 226 225
3 215 216 227
3 215 227 226
3 216 217 228
3 216 228 227
3 217 218 229
3 217 229 228
3 218 219 230
3 218 230 229
CELL_TYPES 400
5
5
5
5
5
5
5
5
5
5
5
5
5
5
5
5
5
5
5
5
5
5
5
5
5
5
5
5
5
5
5
5
5
5
5
5
5
5
5
5
5
5
5
5
5
5
5
5
5
5
5
5
5
5
5
5
5
5
5
5
5
5
5
5
5
5
5
5
5
5
5
5
5
5
5
5
5
5
5
5
5
5
5
5
5
5
5
5
5
5
5
5
5
5
5
5
5
5
5
5
5
5
5
5
5
5
5
5
5
5
5
5
5
5
5
5
5
5
5
5
5
5
5
5
5
5
5
5
5
5
5
5
5
5
5
5
5
5
5
5
5
5
5
5
5
5
5
5
5
5
5
5
5
5
5
5
5
5
5
5
5
5
5
5
5
5
5
5
5
5
5
5
5
5
5
5
5
5
5
5
5
5
5
5
5
5
5
5
5
5
5
5
5
5
5
5
5
5
5
5
5
5
5
5
5
5
5
5
5
5
5
5
5
5
5
5
5
5
5
5
5
5
5
5
5
5
5
5
5
5
5
5
5
5
5
5
5
5
5
5
5
5
5
5
5
5
5
5
5
5
5
5
5
5
5
5
5
5
5
5
5
5
5
5
5
5
5
5
5
5
5
5
5
5
5
5
5
5
5
5
5
5
5
5
5
5
5
5
5
5
5
5
5
5
5
5
5
5
5
5
5
5
5
5
5
5
5
5
5
5
5
5
5
5
5
5
5
5
5
5
5
5
5
5
5
5
5
5
5
5
5
5
5
5
5
5
5
5
5
5
5
5
5
5
5
5
5
5
5
5
5
5
5
5
5
5
5
5
5
5
5
5
5
5
5
5
5
5
5
5
5
5
5
5
5
5
5
5
5
5
5
5
5
5
5
5
5
5
5
5
5
5
5
5
5
5
5
5
5
5
POINT_DATA 231
SCALARS psi double 1
LOOKUP_TABLE default
0
0
0
0
0
0
0
0
0
0
0
0
-0.145319
-0.0742646
0.106805
0.138079
-0.0318359
-0.170933
-0.082969
0.119363
0.165941
0
0
-0.287494
-0.150278
0.208658
0.275237
-0.0581516
-0.336259
-0.16725
0.232092
0.327789
0
0
-0.424043
-0.226618
0.303233
0.408752
-0.0774173
-0.491142
-0.250544
0.334838
0.4804
0
0
-0.552314
-0.301676
0.38839
0.535777
-0.0885707
-0.631148
-0.330472
0.424755
0.619187
0
0
-0.669554
-0.373655
0.462222
0.653361
-0.091117
-0.752421
-0.404653
0.499604
0.740232
0
0
-0.772984
-0.440593
0.5231
0.7585
-0.0851855
-0.85182
-0.470797
0.55781
0.84038
0
0
-0.85989
-0.50041
0.569724
0.848208
-0.0715352
-0.927031
-0.52678
0.598486
0.917288
0
0
-0.927724
-0.550977
0.601159
0.919622
-0.0515087
-0.97661
-0.570736
0.621408
0.969443
0
0
-0.974216
-0.590197
0.61687
0.970126
-0.0269366
-1
-0.601116
0.626969
0.996151
0
0
-0.997485
-0.616104
0.616747
0.997488
-4.59422e-14
-0.997488
-0.616747
0.616104
0.997485
0
0
-0.996151
-0.626969
0.601116
1
0.0269366
-0.970126
-0.61687
0.590197
0.974216
0
0
-0.969443
-0.621408
0.570736
0.97661
0.0515087
-0.919622
-0.601159
0.550977
0.927724
0
0
-0.917288
-0.598486
0.52678
0.927031
0.0715352
-0.848208
-0.569724
0.50041
0.85989
0
0
-0.84038
-0.55781
0.470797
0.85182
0.0851855
-0.7585
-0.5231
0.440593
0.772984
0
0
-0.740232
-0.499604
0.404653
0.752421
0.091117
-0.653361
-0.462222
0.373655
0.669554
0
0
-0.619187
-0.424755
0.330472
0.631148
0.0885707
-0.535777
-0.38839
0.301676
0.552314
0
0
-0.4804
-0.334838
0.250544
0.491142
0.0774173
-0.408752
-0.303233
0.226618
0.424043
0
0
-0.327789
-0.232092
0.16725
0.336259
0.0581516
-0.275237
-0.208658
0.150278
0.287494
0
0
-0.165941
-0.119363
0.082969
0.170933
0.0318359
-0.138079
-0.106805
0.0742646
0.145319
0
0
0
0
0
0
0
0
0
0
0
0
VECTORS Et double
0.0724272 0.289709 0
-0.0236091 0.484981 0
-0.0601634 0.0554542 0
-0.0103913 -0.467418 0
0.0564571 -0.324721 0
0.0462175 0.311806 0
-0.0292276 0.564635 0
-0.0672281 0.0619016 0
-0.0154765 -0.537829 0
0.0551368 -0.441094 0
-0 -0 0
0.192094 0.18896 0
0.0018794 0.432612 0
-0.143404 0.228614 0
-0.0816158 -0.319115 0
0.101453 -0.419296 0
0.148878 0.0953939 0
-0.0110882 0.524075 0
-0.1628 0.260965 0
-0.0986029 -0.360884 0
0.0941169 -0.514973 0
0.110274 -0.220547 0
0.331945 0.181482 0
0.0412759 0.421172 0
-0.264685 0.234119 0
-0.188996 -0.299278 0
0.164225 -0.414624 0
0.300142 0.0723594 0
0.0193872 0.498419 0
-0.30071 0.264305 0
-0.222282 -0.331789 0
0.149189 -0.492849 0
0.272963 -0.215106 0
0.465306 0.170481 0
0.0814207 0.401841 0
-0.379089 0.235369 0
-0.295229 -0.272558 0
0.219141 -0.401711 0
0.444532 0.0447427 0
0.0537749 0.457844 0
-0.427992 0.260104 0
-0.341514 -0.292938 0
0.198225 -0.455566 0
0.428155 -0.202831 0
0.589501 0.15582 0
0.121526 0.374133 0
-0.48423 0.231599 0
-0.398038 -0.239567 0
0.264631 -0.38 0
0.578364 0.014385 0
0.0913335 0.403964 0
-0.54104 0.24812 0
-0.452768 -0.246308 0
0.239927 -0.405087 0
0.571091 -0.184457 0
0.701778 0.137466 0
0.160689 0.337768 0
-0.577792 0.222084 0
-0.494994 -0.201074 0
0.299535 -0.34902 0
0.698183 -0.0165836 0
0.131017 0.338934 0
-0.636844 0.22841 0
-0.55282 -0.194095 0
0.273315 -0.34372 0
0.697644 -0.160877 0
0.799386 0.115504 0
0.197908 0.29272 0
-0.657589 0.206216 0
-0.583551 -0.158009 0
0.323158 -0.308491 0
0.800865 -0.0459141 0
0.171495 0.26533 0
-0.713093 0.201339 0
-0.638851 -0.138575 0
0.297757 -0.273999 0
0.804415 -0.133103 0
0.879677 0.0901564 0
0.232098 0.239264 0
-0.721643 0.183571 0
-0.66111 -0.111451 0
0.335298 -0.258433 0
0.883707 -0.0714254 0
0.211197 0.185992 0
-0.768234 0.167574 0
-0.708522 -0.0819811 0
0.31297 -0.198564 0
0.888799 -0.102215 0
0.940203 0.0617907 0
0.262129 0.17801 0
-0.768252 0.15397 0
-0.725104 -0.0626181 0
0.336239 -0.199255 0
0.944513 -0.0911878 0
0.24838 0.103861 0
-0.801489 0.128048 0
-0.760028 -0.0263932 0
0.319003 -0.120047 0
0.949011 -0.0693181 0
0.97883 0.0309253 0
0.286869 0.109932 0
-0.796073 0.117534 0
-0.773105 -0.0128376 0
0.326724 -0.13183 0
0.98166 -0.10369 0
0.281217 0.0218065 0
-0.812834 0.0839148 0
-0.792133 0.0263514 0
0.316216 -0.0409643 0
0.984089 -0.0354964 0
0.993849 -0.0017726 0
0.305227 0.0363728 0
-0.804179 0.0747219 0
-0.802945 0.0364847 0
0.307895 -0.0575233 0
0.994154 -0.107967 0
0.307895 -0.0575233 0
-0.802945 0.0364847 0
-0.804179 0.0747219 0
0.305227 0.0363728 0
0.993849 -0.0017726 0
0.984089 -0.0354964 0
0.316216 -0.0409643 0
-0.792133 0.0263514 0
-0.812834 0.0839148 0
0.281217 0.0218065 0
0.98166 -0.10369 0
0.326724 -0.13183 0
-0.773105 -0.0128376 0
-0.796073 0.117534 0
0.286869 0.109932 0
0.97883 0.0309253 0
0.949011 -0.0693181 0
0.319003 -0.120047 0
-0.760028 -0.0263932 0
-0.801489 0.128048 0
0.24838 0.103861 0
0.944513 -0.0911878 0
0.336239 -0.199255 0
-0.725104 -0.0626181 0
-0.768252 0.15397 0
0.262129 0.17801 0
0.940203 0.0617907 0
0.888799 -0.102215 0
0.31297 -0.198564 0
-0.708522 -0.0819811 0
-0.768234 0.167574 0
0.211197 0.185992 0
0.883707 -0.0714254 0
0.335298 -0.258433 0
-0.66111 -0.111451 0
-0.721643 0.183571 0
0.232098 0.239264 0
0.879677 0.0901564 0
0.804415 -0.133103 0
0.297757 -0.273999 0
-0.638851 -0.138575 0
-0.713093 0.201339 0
0.171495 0.26533 0
0.800865 -0.0459141 0
0.323158 -0.308491 0
-0.583551 -0.158009 0
-0.657589 0.206216 0
0.197908 0.29272 0
0.799386 0.115504 0
0.697644 -0.160877 0
0.273315 -0.34372 0
-0.55282 -0.194095 0
-0.636844 0.22841 0
0.131017 0.338934 0
0.698183 -0.0165836 0
0.299535 -0.34902 0
-0.494994 -0.201074 0
-0.577792 0.222084 0
0.160689 0.337768 0
0.701778 0.137466 0
0.571091 -0.184457 0
0.239927 -0.405087 0
-0.452768 -0.246308 0
-0.54104 0.24812 0
0.0913335 0.403964 0
0.578364 0.014385 0
0.264631 -0.38 0
-0.398038 -0.239567 0
-0.48423 0.231599 0
0.121526 0.374133 0
0.589501 0.15582 0
0.428155 -0.202831 0
0.198225 -0.455566 0
-0.341514 -0.292938 0
-0.427992 0.260104 0
0.0537749 0.457844 0
0.444532 0.0447427 0
0.219141 -0.401711 0
-0.295229 -0.272558 0
-0.379089 0.235369 0
0.0814207 0.401841 0
0.465306 0.170481 0
0.272963 -0.215106 0
0.149189 -0.492849 0
-0.222282 -0.331789 0
-0.30071 0.264305 0
0.0193872 0.498419 0
0.300142 0.0723594 0
0.164225 -0.414624 0
-0.188996 -0.299278 0
-0.264685 0.234119 0
0.0412759 0.421172 0
0.331945 0.181482 0
0.110274 -0.220547 0
0.0941169 -0.514973 0
-0.0986029 -0.360884 0
-0.1628 0.260965 0
-0.0110882 0.524075 0
0.148878 0.0953939 0
0.101453 -0.419296 0
-0.0816158 -0.319115 0
-0.143404 0.228614 0
0.0018794 0.432612 0
0.192094 0.18896 0
-0 -0 0
0.0551368 -0.441094 0
-0.0154765 -0.537829 0
-0.0672281 0.0619016 0
-0.0292276 0.564635 0
0.0462175 0.311806 0
0.0564571 -0.324721 0
-0.0103913 -0.467418 0
-0.0601634 0.0554542 0
-0.0236091 0.484981 0
0.0724272 0.289709 0
