# vtk DataFile Version 3.0
tp3485 scalar+vector
ASCII
DATASET UNSTRUCTURED_GRID
POINTS 231 double
0 0 0
0.1 0 0
0.2 0 0
0.3 0 0
0.4 0 0
0.5 0 0
0.6 0 0
0.7 0 0
0.8 0 0
0.9 0 0
1 0 0
0 0.025 0
0.1 0.025 0
0.2 0.025 0
0.3 0.025 0
0.4 0.025 0
0.5 0.025 0
0.6 0.025 0
0.7 0.025 0
0.8 0.025 0
0.9 0.025 0
1 0.025 0
0 0.05 0
0.1 0.05 0
0.2 0.05 0
0.3 0.05 0
0.4 0.05 0
0.5 0.05 0
0.6 0.05 0
0.7 0.05 0
0.8 0.05 0
0.9 0.05 0
1 0.05 0
0 0.075 0
0.1 0.075 0
0.2 0.075 0
0.3 0.075 0
0.4 0.075 0
0.5 0.075 0
0.6 0.075 0
0.7 0.075 0
0.8 0.075 0
0.9 0.075 0
1 0.075 0
0 0.1 0
0.1 0.1 0
0.2 0.1 0
0.3 0.1 0
0.4 0.1 0
0.5 0.1 0
0.6 0.1 0
0.7 0.1 0
0.8 0.1 0
0.9 0.1 0
1 0.1 0
0 0.125 0
0.1 0.125 0
0.2 0.125 0
0.3 0.125 0
0.4 0.125 0
0.5 0.125 0
0.6 0.125 0
0.7 0.125 0
0.8 0.125 0
0.9 0.125 0
1 0.125 0
0 0.15 0
0.1 0.15 0
0.2 0.15 0
0.3 0.15 0
0.4 0.15 0
0.5 0.15 0
0.6 0.15 0
0.7 0.15 0
0.8 0.15 0
0.9 0.15 0
1 0.15 0
0 0.175 0
0.1 0.175 0
0.2 0.175 0
0.3 0.175 0
0.4 0.175 0
0.5 0.175 0
0.6 0.175 0
0.7 0.175 0
0.8 0.175 0
0.9 0.175 0
1 0.175 0
0 0.2 0
0.1 0.2 0
0.2 0.2 0
0.3 0.2 0
0.4 0.2 0
0.5 0.2 0
0.6 0.2 0
0.7 0.2 0
0.8 0.2 0
0.9 0.2 0
1 0.2 0
0 0.225 0
0.1 0.225 0
0.2 0.225 0
0.3 0.225 0
0.4 0.225 0
0.5 0.225 0
0.6 0.225 0
0.7 0.225 0
0.8 0.225 0
0.9 0.225 0
1 0.225 0
0 0.25 0
0.1 0.25 0
0.2 0.25 0
0.3 0.25 0
0.4 0.25 0
0.5 0.25 0
0.6 0.25 0
0.7 0.25 0
0.8 0.25 0
0.9 0.25 0
1 0.25 0
0 0.275 0
0.1 0.275 0
0.2 0.275 0
0.3 0.275 0
0.4 0.275 0
0.5 0.275 0
0.6 0.275 0
0.7 0.275 0
0.8 0.275 0
0.9 0.275 0
1 0.275 0
0 0.3 0
0.1 0.3 0
0.2 0.3 0
0.3 0.3 0
0.4 0.3 0
0.5 0.3 0
0.6 0.3 0
0.7 0.3 0
0.8 0.3 0
0.9 0.3 0
1 0.3 0
0 0.325 0
0.1 0.325 0
0.2 0.325 0
0.3 0.325 0
0.4 0.325 0
0.5 0.325 0
0.6 0.325 0
0.7 0.325 0
0.8 0.325 0
0.9 0.325 0
1 0.325 0
0 0.35 0
0.1 0.35 0
0.2 0.35 0
0.3 0.35 0
0.4 0.35 0
0.5 0.35 0
0.6 0.35 0
0.7 0.35 0
0.8 0.35 0
0.9 0.35 0
1 0.35 0
0 0.375 0
0.1 0.375 0
0.2 0.375 0
0.3 0.375 0
0.4 0.375 0
0.5 0.375 0
0.6 0.375 0
0.7 0.375 0
0.8 0.375 0
0.9 0.375 0
1 0.375 0
0 0.4 0
0.1 0.4 0
0.2 0.4 0
0.3 0.4 0
0.4 0.4 0
0.5 0.4 0
0.6 0.4 0
0.7 0.4 0
0.8 0.4 0
0.9 0.4 0
1 0.4 0
0 0.425 0
0.1 0.425 0
0.2 0.425 0
0.3 0.425 0
0.4 0.425 0
0.5 0.425 0
0.6 0.425 0
0.7 0.425 0
0.8 0.425 0
0.9 0.425 0
1 0.425 0
0 0.45 0
0.1 0.45 0
0.2 0.45 0
0.3 0.45 0
0.4 0.45 0
0.5 0.45 0
0.6 0.45 0
0.7 0.45 0
0.8 0.45 0
0.9 0.45 0
1 0.45 0
0 0.475 0
0.1 0.475 0
0.2 0.475 0
0.3 0.475 0
0.4 0.475 0
0.5 0.475 0
0.6 0.475 0
0.7 0.475 0
0.8 0.475 0
0.9 0.475 0
1 0.475 0
0 0.5 0
0.1 0.5 0
0.2 0.5 0
0.3 0.5 0
0.4 0.5 0
0.5 0.5 0
0.6 0.5 0
0.7 0.5 0
0.8 0.5 0
0.9 0.5 0
1 0.5 0
CELLS 400 1600
3 0 1 12
3 0 12 11
3 1 2 13
3 1 13 12
3 2 3 14
3 2 14 13
3 3 4 15
3 3 15 14
3 4 5 16
3 4 16 15
3 5 6 17
3 5 17 16
3 6 7 18
3 6 18 17
3 7 8 19
3 7 19 18
3 8 9 20
3 8 20 19
3 9 10 21
3 9 21 20
3 11 12 23
3 11 23 22
3 12 13 24
3 12 24 23
3 13 14 25
3 13 25 24
3 14 15 26
3 14 26 25
3 15 16 27
3 15 27 26
3 16 17 28
3 16 28 27
3 17 18 29
3 17 29 28
3 18 19 30
3 18 30 29
3 19 20 31
3 19 31 30
3 20 21 32
3 20 32 31
3 22 23 34
3 22 34 33
3 23 24 35
3 23 35 34
3 24 25 36
3 24 36 35
3 25 26 37
3 25 37 36
3 26 27 38
3 26 38 37
3 27 28 39
3 27 39 38
3 28 29 40
3 28 40 39
3 29 30 41
3 29 41 40
3 30 31 42
3 30 42 41
3 31 32 43
3 31 43 42
3 33 34 45
3 33 45 44
3 34 35 46
3 34 46 45
3 35 36 47
3 35 47 46
3 36 37 48
3 36 48 47
3 37 38 49
3 37 49 48
3 38 39 50
3 38 50 49
3 39 40 51
3 39 51 50
3 40 41 52
3 40 52 51
3 41 42 53
3 41 53 52
3 42 43 54
3 42 54 53
3 44 45 56
3 44 56 55
3 45 46 57
3 45 57 56
3 46 47 58
3 46 58 57
3 47 48 59
3 47 59 58
3 48 49 60
3 48 60 59
3 49 50 61
3 49 61 60
3 50 51 62
3 50 62 61
3 51 52 63
3 51 63 62
3 52 53 64
3 52 64 63
3 53 54 65
3 53 65 64
3 55 56 67
3 55 67 66
3 56 57 68
3 56 68 67
3 57 58 69
3 57 69 68
3 58 59 70
3 58 70 69
3 59 60 71
3 59 71 70
3 60 61 72
3 60 72 71
3 61 62 73
3 61 73 72
3 62 63 74
3 62 74 73
3 63 64 75
3 63 75 74
3 64 65 76
3 64 76 75
3 66 67 78
3 66 78 77
3 67 68 79
3 67 79 78
3 68 69 80
3 68 80 79
3 69 70 81
3 69 81 80
3 70 71 82
3 70 82 81
3 71 72 83
3 71 83 82
3 72 73 84
3 72 84 83
3 73 74 85
3 73 85 84
3 74 75 86
3 74 86 85
3 75 76 87
3 75 87 86
3 77 78 89
3 77 89 88
3 78 79 90
3 78 90 89
3 79 80 91
3 79 91 90
3 80 81 92
3 80 92 91
3 81 82 93
3 81 93 92
3 82 83 94
3 82 94 93
3 83 84 95
3 83 95 94
3 84 85 96
3 84 96 95
3 85 86 97
3 85 97 96
3 86 87 98
3 86 98 97
3 88 89 100
3 88 100 99
3 89 90 101
3 89 101 100
3 90 91 102
3 90 102 101
3 91 92 103
3 91 103 102
3 92 93 104
3 92 104 103
3 93 94 105
3 93 105 104
3 94 95 106
3 94 106 105
3 95 96 107
3 95 107 106
3 96 97 108
3 96 108 107
3 97 98 109
3 97 109 108
3 99 100 111
3 99 111 110
3 100 101 112
3 100 112 111
3 101 102 113
3 101 113 112
3 102 103 114
3 102 114 113
3 103 104 115
3 103 115 114
3 104 105 116
3 104 116 115
3 105 106 117
3 105 117 116
3 106 107 118
3 106 118 117
3 107 108 119
3 107 119 118
3 108 109 120
3 108 120 119
3 110 111 122
3 110 122 121
3 111 112 123
3 111 123 122
3 112 113 124
3 112 124 123
3 113 114 125
3 113 125 124
3 114 115 126
3 114 126 125
3 115 116 127
3 115 127 126
3 116 117 128
3 116 128 127
3 117 118 129
3 117 129 128
3 118 119 130
3 118 130 129
3 119 120 131
3 119 131 130
3 121 122 133
3 121 133 132
3 122 123 134
3 122 134 133
3 123 124 135
3 123 135 134
3 124 125 136
3 124 136 135
3 125 126 137
3 125 137 136
3 126 127 138
3 126 138 137
3 127 128 139
3 127 139 138
3 128 129 140
3 128 140 139
3 129 130 141
3 129 141 140
3 130 131 142
3 130 142 141
3 132 133 144
3 132 144 143
3 133 134 145
3 133 145 144
3 134 135 146
3 134 146 145
3 135 136 147
3 135 147 146
3 136 137 148
3 136 148 147
3 137 138 149
3 137 149 148
3 138 139 150
3 138 150 149
3 139 140 151
3 139 151 150
3 140 141 152
3 140 152 151
3 141 142 153
3 141 153 152
3 143 144 155
3 143 155 154
3 144 145 156
3 144 156 155
3 145 146 157
3 145 157 156
3 146 147 158
3 146 158 157
3 147 148 159
3 147 159 158
3 148 149 160
3 148 160 159
3 149 150 161
3 149 161 160
3 150 151 162
3 150 162 161
3 151 152 163
3 151 163 162
3 152 153 164
3 152 164 163
3 154 155 166
3 154 166 165
3 155 156 167
3 155 167 166
3 156 157 168
3 156 168 167
3 157 158 169
3 157 169 168
3 158 159 170
3 158 170 169
3 159 160 171
3 159 171 170
3 160 161 172
3 160 172 171
3 161 162 173
3 161 173 172
3 162 163 174
3 162 174 173
3 163 164 175
3 163 175 174
3 165 166 177
3 165 177 176
3 166 167 178
3 166 178 177
3 167 168 179
3 167 179 178
3 168 169 180
3 168 180 179
3 169 170 181
3 169 181 180
3 170 171 182
3 170 182 181
3 171 172 183
3 171 183 182
3 172 173 184
3 172 184 183
3 173 174 185
3 173 185 184
3 174 175 186
3 174 186 185
3 176 177 188
3 176 188 187
3 177 178 189
3 177 189 188
3 178 179 190
3 178 190 189
3 179 180 191
3 179 191 190
3 180 181 192
3 180 192 191
3 181 182 193
3 181 193 192
3 182 183 194
3 182 194 193
3 183 184 195
3 183 195 194
3 184 185 196
3 184 196 195
3 185 186 197
3 185 197 196
3 187 188 199
3 187 199 198
3 188 189 200
3 188 200 199
3 189 190 201
3 189 201 200
3 190 191 202
3 190 202 201
3 191 192 203
3 191 203 202
3 192 193 204
3 192 204 203
3 193 194 205
3 193 205 204
3 194 195 206
3 194 206 205
3 195 196 207
3 195 207 206
3 196 197 208
3 196 208 207
3 198 199 210
3 198 210 209
3 199 200 211
3 199 211 210
3 200 201 212
3 200 212 211
3 201 202 213
3 201 213 212
3 202 203 214
3 202 214 213
3 203 204 215
3 203 215 214
3 204 205 216
3 204 216 215
3 205 206 217
3 205 217 216
3 206 207 218
3 206 218 217
3 207 208 219
3 207 219 218
3 209 210 221
3 209 221 220
3 210 211 222
3 210 222 221
3 211 212 223
3 211 223 222
3 212 213 224
3 212 224 223
3 213 214 225
3 213 225 224
3 214 215 226
3 214 226 225
3 215 216 227
3 215 227 226
3 216 217 228
3 216 228 227
3 217 218 229
3 217 229 228
3 218 219 230
3 218 230 229
CELL_TYPES 400
5
5
5
5
5
5
5
5
5
5
5
5
5
5
5
5
5
5
5
5
5
5
5
5
5
5
5
5
5
5
5
5
5
5
5
5
5
5
5
5
5
5
5
5
5
5
5
5
5
5
5
5
5
5
5
5
5
5
5
5
5
5
5
5
5
5
5
5
5
5
5
5
5
5
5
5
5
5
5
5
5
5
5
5
5
5
5
5
5
5
5
5
5
5
5
5
5
5
5
5
5
5
5
5
5
5
5
5
5
5
5
5
5
5
5
5
5
5
5
5
5
5
5
5
5
5
5
5
5
5
5
5
5
5
5
5
5
5
5
5
5
5
5
5
5
5
5
5
5
5
5
5
5
5
5
5
5
5
5
5
5
5
5
5
5
5
5
5
5
5
5
5
5
5
5
5
5
5
5
5
5
5
5
5
5
5
5
5
5
5
5
5
5
5
5
5
5
5
5
5
5
5
5
5
5
5
5
5
5
5
5
5
5
5
5
5
5
5
5
5
5
5
5
5
5
5
5
5
5
5
5
5
5
5
5
5
5
5
5
5
5
5
5
5
5
5
5
5
5
5
5
5
5
5
5
5
5
5
5
5
5
5
5
5
5
5
5
5
5
5
5
5
5
5
5
5
5
5
5
5
5
5
5
5
5
5
5
5
5
5
5
5
5
5
5
5
5
5
5
5
5
5
5
5
5
5
5
5
5
5
5
5
5
5
5
5
5
5
5
5
5
5
5
5
5
5
5
5
5
5
5
5
5
5
5
5
5
5
5
5
5
5
5
5
5
5
5
5
5
5
5
5
5
5
5
5
5
5
5
5
5
5
5
5
5
5
5
5
5
5
5
5
5
5
5
5
5
5
5
5
5
5
5
5
5
5
5
5
5
5
5
5
5
5
5
5
5
5
5
5
POINT_DATA 231
SCALARS psi double 1
LOOKUP_TABLE default
0
0
0
0
0
0
0
0
0
0
0
0
0.126709
0.143195
0.0387359
-0.0992799
-0.156162
-0.0842394
0.0579651
0.15411
0.126191
0
0
0.2497
0.283713
0.0783875
-0.194652
-0.308586
-0.168007
0.112653
0.303701
0.249952
0
0
0.366291
0.41825
0.118022
-0.283758
-0.453499
-0.249228
0.162659
0.4449
0.367878
0
0
0.473863
0.543593
0.156645
-0.364439
-0.587312
-0.325843
0.206763
0.5741
0.476799
0
0
0.569935
0.656683
0.193216
-0.434788
-0.706707
-0.395855
0.243966
0.688067
0.573847
0
0
0.652232
0.754689
0.226673
-0.4932
-0.808722
-0.45738
0.273511
0.784019
0.656522
0
0
0.718754
0.835077
0.255962
-0.538411
-0.890822
-0.508702
0.294904
0.859695
0.722747
0
0
0.767836
0.895684
0.280071
-0.569519
-0.950969
-0.548316
0.307912
0.913402
0.770902
0
0
0.798199
0.93478
0.298063
-0.586008
-0.987665
-0.574979
0.31256
0.944043
0.79986
0
0
0.808999
0.951131
0.309116
-0.587745
-1
-0.587745
0.309116
0.951131
0.808999
0
0
0.79986
0.944043
0.31256
-0.574979
-0.987665
-0.586008
0.298063
0.93478
0.798199
0
0
0.770902
0.913402
0.307912
-0.548316
-0.950969
-0.569519
0.280071
0.895684
0.767836
0
0
0.722747
0.859695
0.294904
-0.508702
-0.890822
-0.538411
0.255962
0.835077
0.718754
0
0
0.656522
0.784019
0.273511
-0.45738
-0.808722
-0.4932
0.226673
0.754689
0.652232
0
0
0.573847
0.688067
0.243966
-0.395855
-0.706707
-0.434788
0.193216
0.656683
0.569935
0
0
0.476799
0.5741
0.206763
-0.325843
-0.587312
-0.364439
0.156645
0.543593
0.473863
0
0
0.367878
0.4449
0.162659
-0.249228
-0.453499
-0.283758
0.118022
0.41825
0.366291
0
0
0.249952
0.303701
0.112653
-0.168007
-0.308586
-0.194652
0.0783875
0.283713
0.2497
0
0
0.126191
0.15411
0.0579651
-0.0842394
-0.156162
-0.0992799
0.0387359
0.143195
0.126709
0
0
0
0
0
0
0
0
0
0
0
0
VECTORS Et double
-0.0785991 -0.314396 0
-0.00681777 -0.656064 0
0.0431982 -0.537813 0
0.0570753 0.0360745 0
0.0235233 0.58677 0
-0.0297432 0.655984 0
-0.0588075 0.182808 0
-0.0397598 -0.446691 0
0.0115456 -0.718587 0
0.0521852 -0.417481 0
-0 -0 0
-0.20806 -0.203448 0
-0.06625 -0.529265 0
0.0788358 -0.606902 0
0.15673 -0.16922 0
0.104157 0.416016 0
-0.0352876 0.661848 0
-0.146583 0.36184 0
-0.138071 -0.240398 0
-0.0171003 -0.652675 0
0.115414 -0.540924 0
0.10437 -0.208741 0
-0.357999 -0.192861 0
-0.15427 -0.507583 0
0.129514 -0.589493 0
0.3025 -0.173675 0
0.223665 0.392218 0
-0.0414945 0.637902 0
-0.274238 0.357627 0
-0.282834 -0.220681 0
-0.060733 -0.623782 0
0.207433 -0.523516 0
0.258916 -0.204721 0
-0.498916 -0.177943 0
-0.239013 -0.474473 0
0.175646 -0.558261 0
0.440511 -0.173996 0
0.338888 0.35875 0
-0.0447856 0.598125 0
-0.394002 0.344465 0
-0.421038 -0.195357 0
-0.104251 -0.578731 0
0.293687 -0.492026 0
0.407632 -0.19507 0
-0.627617 -0.158919 0
-0.318474 -0.430397 0
0.216271 -0.513627 0
0.567441 -0.169867 0
0.446959 0.316634 0
-0.045139 0.543484 0
-0.502917 0.322449 0
-0.549158 -0.165389 0
-0.146413 -0.518984 0
0.371995 -0.447566 0
0.546486 -0.180173 0
-0.74111 -0.136133 0
-0.390732 -0.376111 0
0.25055 -0.456318 0
0.680228 -0.16106 0
0.545142 0.267121 0
-0.0426643 0.475321 0
-0.598335 0.291898 0
-0.663933 -0.131868 0
-0.186012 -0.446391 0
0.440413 -0.391553 0
0.671796 -0.160534 0
-0.836686 -0.110039 0
-0.453994 -0.31266 0
0.277794 -0.387384 0
0.77614 -0.147459 0
0.630901 0.211642 0
-0.0375997 0.395317 0
-0.677987 0.25335 0
-0.762449 -0.0959635 0
-0.221901 -0.363112 0
0.497285 -0.325666 0
0.780309 -0.136759 0
-0.912003 -0.0811889 0
-0.506637 -0.241355 0
0.29749 -0.308189 0
0.852844 -0.129088 0
0.701965 0.151765 0
-0.0303021 0.305457 0
-0.740038 0.207569 0
-0.842215 -0.0588761 0
-0.253024 -0.271543 0
0.541283 -0.251793 0
0.869272 -0.109546 0
-0.965154 -0.0502252 0
-0.547262 -0.16375 0
0.309314 -0.220402 0
0.908467 -0.106131 0
0.756391 0.0891451 0
-0.0212314 0.207976 0
-0.783129 0.155534 0
-0.901217 -0.0217849 0
-0.278436 -0.174235 0
0.571435 -0.171979 0
0.936487 -0.0796569 0
-0.994732 -0.0178649 0
-0.574726 -0.0816137 0
0.313142 -0.125974 0
0.941646 -0.0789446 0
0.792615 0.0254703 0
-0.0109307 0.105303 0
-0.8064 0.0984225 0
-0.937972 0.0141975 0
-0.297328 -0.0738137 0
0.587144 -0.0883614 0
0.980352 -0.0479022 0
-0.999886 0.0151162 0
-0.58819 0.00311382 0
0.309054 -0.0271032 0
0.951562 -0.0480638 0
0.809506 -0.0375879 0
-6.57551e-14 9.58421e-14 0
-0.809506 0.0375879 0
-0.951562 0.0480638 0
-0.309054 0.0271032 0
0.58819 -0.00311382 0
0.999886 -0.0151162 0
-0.980352 0.0479022 0
-0.587144 0.0883614 0
0.297328 0.0738137 0
0.937972 -0.0141975 0
0.8064 -0.0984225 0
0.0109307 -0.105303 0
-0.792615 -0.0254703 0
-0.941646 0.0789446 0
-0.313142 0.125974 0
0.574726 0.0816137 0
0.994732 0.0178649 0
-0.936487 0.0796569 0
-0.571435 0.171979 0
0.278436 0.174235 0
0.901217 0.0217849 0
0.783129 -0.155534 0
0.0212314 -0.207976 0
-0.756391 -0.0891451 0
-0.908467 0.106131 0
-0.309314 0.220402 0
0.547262 0.16375 0
0.965154 0.0502252 0
-0.869272 0.109546 0
-0.541283 0.251793 0
0.253024 0.271543 0
0.842215 0.0588761 0
0.740038 -0.207569 0
0.0303021 -0.305457 0
-0.701965 -0.151765 0
-0.852844 0.129088 0
-0.29749 0.308189 0
0.506637 0.241355 0
0.912003 0.0811889 0
-0.780309 0.136759 0
-0.497285 0.325666 0
0.221901 0.363112 0
0.762449 0.0959635 0
0.677987 -0.25335 0
0.0375997 -0.395317 0
-0.630901 -0.211642 0
-0.77614 0.147459 0
-0.277794 0.387384 0
0.453994 0.31266 0
0.836686 0.110039 0
-0.671796 0.160534 0
-0.440413 0.391553 0
0.186012 0.446391 0
0.663933 0.131868 0
0.598335 -0.291898 0
0.0426643 -0.475321 0
-0.545142 -0.267121 0
-0.680228 0.16106 0
-0.25055 0.456318 0
0.390732 0.376111 0
0.74111 0.136133 0
-0.546486 0.180173 0
-0.371995 0.447566 0
0.146413 0.518984 0
0.549158 0.165389 0
0.502917 -0.322449 0
0.045139 -0.543484 0
-0.446959 -0.316634 0
-0.567441 0.169867 0
-0.216271 0.513627 0
0.318474 0.430397 0
0.627617 0.158919 0
-0.407632 0.19507 0
-0.293687 0.492026 0
0.104251 0.578731 0
0.421038 0.195357 0
0.394002 -0.344465 0
0.0447856 -0.598125 0
-0.338888 -0.35875 0
-0.440511 0.173996 0
-0.175646 0.558261 0
0.239013 0.474473 0
0.498916 0.177943 0
-0.258916 0.204721 0
-0.207433 0.523516 0
0.060733 0.623782 0
0.282834 0.220681 0
0.274238 -0.357627 0
0.0414945 -0.637902 0
-0.223665 -0.392218 0
-0.3025 0.173675 0
-0.129514 0.589493 0
0.15427 0.507583 0
0.357999 0.192861 0
-0.10437 0.208741 0
-0.115414 0.540924 0
0.0171003 0.652675 0
0.138071 0.240398 0
0.146583 -0.36184 0
0.0352876 -0.661848 0
-0.104157 -0.416016 0
-0.15673 0.16922 0
-0.0788358 0.606902 0
0.06625 0.529265 0
0.20806 0.203448 0
-0 -0 0
-0.0521852 0.417481 0
-0.0115456 0.718587 0
0.0397598 0.446691 0
0.0588075 -0.182808 0
0.0297432 -0.655984 0
-0.0235233 -0.58677 0
-0.0570753 -0.0360745 0
-0.0431982 0.537813 0
0.00681777 0.656064 0
0.0785991 0.314396 0
