# vtk DataFile Version 3.0
tp3485 scalar+vector
ASCII
DATASET UNSTRUCTURED_GRID
POINTS 231 double
0 0 0
0.1 0 0
0.2 0 0
0.3 0 0
0.4 0 0
0.5 0 0
0.6 0 0
0.7 0 0
0.8 0 0
0.9 0 0
1 0 0
0 0.025 0
0.1 0.025 0
0.2 0.025 0
0.3 0.025 0
0.4 0.025 0
0.5 0.025 0
0.6 0.025 0
0.7 0.025 0
0.8 0.025 0
0.9 0.025 0
1 0.025 0
0 0.05 0
0.1 0.05 0
0.2 0.05 0
0.3 0.05 0
0.4 0.05 0
0.5 0.05 0
0.6 0.05 0
0.7 0.05 0
0.8 0.05 0
0.9 0.05 0
1 0.05 0
0 0.075 0
0.1 0.075 0
0.2 0.075 0
0.3 0.075 0
0.4 0.075 0
0.5 0.075 0
0.6 0.075 0
0.7 0.075 0
0.8 0.075 0
0.9 0.075 0
1 0.075 0
0 0.1 0
0.1 0.1 0
0.2 0.1 0
0.3 0.1 0
0.4 0.1 0
0.5 0.1 0
0.6 0.1 0
0.7 0.1 0
0.8 0.1 0
0.9 0.1 0
1 0.1 0
0 0.125 0
0.1 0.125 0
0.2 0.125 0
0.3 0.125 0
0.4 0.125 0
0.5 0.125 0
0.6 0.125 0
0.7 0.125 0
0.8 0.125 0
0.9 0.125 0
1 0.125 0
0 0.15 0
0.1 0.15 0
0.2 0.15 0
0.3 0.15 0
0.4 0.15 0
0.5 0.15 0
0.6 0.15 0
0.7 0.15 0
0.8 0.15 0
0.9 0.15 0
1 0.15 0
0 0.175 0
0.1 0.175 0
0.2 0.175 0
0.3 0.175 0
0.4 0.175 0
0.5 0.175 0
0.6 0.175 0
0.7 0.175 0
0.8 0.175 0
0.9 0.175 0
1 0.175 0
0 0.2 0
0.1 0.2 0
0.2 0.2 0
0.3 0.2 0
0.4 0.2 0
0.5 0.2 0
0.6 0.2 0
0.7 0.2 0
0.8 0.2 0
0.9 0.2 0
1 0.2 0
0 0.225 0
0.1 0.225 0
0.2 0.225 0
0.3 0.225 0
0.4 0.225 0
0.5 0.225 0
0.6 0.225 0
0.7 0.225 0
0.8 0.225 0
0.9 0.225 0
1 0.225 0
0 0.25 0
0.1 0.25 0
0.2 0.25 0
0.3 0.25 0
0.4 0.25 0
0.5 0.25 0
0.6 0.25 0
0.7 0.25 0
0.8 0.25 0
0.9 0.25 0
1 0.25 0
0 0.275 0
0.1 0.275 0
0.2 0.275 0
0.3 0.275 0
0.4 0.275 0
0.5 0.275 0
0.6 0.275 0
0.7 0.275 0
0.8 0.275 0
0.9 0.275 0
1 0.275 0
0 0.3 0
0.1 0.3 0
0.2 0.3 0
0.3 0.3 0
0.4 0.3 0
0.5 0.3 0
0.6 0.3 0
0.7 0.3 0
0.8 0.3 0
0.9 0.3 0
1 0.3 0
0 0.325 0
0.1 0.325 0
0.2 0.325 0
0.3 0.325 0
0.4 0.325 0
0.5 0.325 0
0.6 0.325 0
0.7 0.325 0
0.8 0.325 0
0.9 0.325 0
1 0.325 0
0 0.35 0
0.1 0.35 0
0.2 0.35 0
0.3 0.35 0
0.4 0.35 0
0.5 0.35 0
0.6 0.35 0
0.7 0.35 0
0.8 0.35 0
0.9 0.35 0
1 0.35 0
0 0.375 0
0.1 0.375 0
0.2 0.375 0
0.3 0.375 0
0.4 0.375 0
0.5 0.375 0
0.6 0.375 0
0.7 0.375 0
0.8 0.375 0
0.9 0.375 0
1 0.375 0
0 0.4 0
0.1 0.4 0
0.2 0.4 0
0.3 0.4 0
0.4 0.4 0
0.5 0.4 0
0.6 0.4 0
0.7 0.4 0
0.8 0.4 0
0.9 0.4 0
1 0.4 0
0 0.425 0
0.1 0.425 0
0.2 0.425 0
0.3 0.425 0
0.4 0.425 0
0.5 0.425 0
0.6 0.425 0
0.7 0.425 0
0.8 0.425 0
0.9 0.425 0
1 0.425 0
0 0.45 0
0.1 0.45 0
0.2 0.45 0
0.3 0.45 0
0.4 0.45 0
0.5 0.45 0
0.6 0.45 0
0.7 0.45 0
0.8 0.45 0
0.9 0.45 0
1 0.45 0
0 0.475 0
0.1 0.475 0
0.2 0.475 0
0.3 0.475 0
0.4 0.475 0
0.5 0.475 0
0.6 0.475 0
0.7 0.475 0
0.8 0.475 0
0.9 0.475 0
1 0.475 0
0 0.5 0
0.1 0.5 0
0.2 0.5 0
0.3 0.5 0
0.4 0.5 0
0.5 0.5 0
0.6 0.5 0
0.7 0.5 0
0.8 0.5 0
0.9 0.5 0
1 0.5 0
CELLS 400 1600
3 0 1 12
3 0 12 11
3 1 2 13
3 1 13 12
3 2 3 14
3 2 14 13
3 3 4 15
3 3 15 14
3 4 5 16
3 4 16 15
3 5 6 17
3 5 17 16
3 6 7 18
3 6 18 17
3 7 8 19
3 7 19 18
3 8 9 20
3 8 20 19
3 9 10 21
3 9 21 20
3 11 12 23
3 11 23 22
3 12 13 24
3 12 24 23
3 13 14 25
3 13 25 24
3 14 15 26
3 14 26 25
3 15 16 27
3 15 27 26
3 16 17 28
3 16 28 27
3 17 18 29
3 17 29 28
3 18 19 30
3 18 30 29
3 19 20 31
3 19 31 30
3 20 21 32
3 20 32 31
3 22 23 34
3 22 34 33
3 23 24 35
3 23 35 34
3 24 25 36
3 24 36 35
3 25 26 37
3 25 37 36
3 26 27 38
3 26 38 37
3 27 28 39
3 27 39 38
3 28 29 40
3 28 40 39
3 29 30 41
3 29 41 40
3 30 31 42
3 30 42 41
3 31 32 43
3 31 43 42
3 33 34 45
3 33 45 44
3 34 35 46
3 34 46 45
3 35 36 47
3 35 47 46
3 36 37 48
3 36 48 47
3 37 38 49
3 37 49 48
3 38 39 50
3 38 50 49
3 39 40 51
3 39 51 50
3 40 41 52
3 40 52 51
3 41 42 53
3 41 53 52
3 42 43 54
3 42 54 53
3 44 45 56
3 44 56 55
3 45 46 57
3 45 57 56
3 46 47 58
3 46 58 57
3 47 48 59
3 47 59 58
3 48 49 60
3 48 60 59
3 49 50 61
3 49 61 60
3 50 51 62
3 50 62 61
3 51 52 63
3 51 63 62
3 52 53 64
3 52 64 63
3 53 54 65
3 53 65 64
3 55 56 67
3 55 67 66
3 56 57 68
3 56 68 67
3 57 58 69
3 57 69 68
3 58 59 70
3 58 70 69
3 59 60 71
3 59 71 70
3 60 61 72
3 60 72 71
3 61 62 73
3 61 73 72
3 62 63 74
3 62 74 73
3 63 64 75
3 63 75 74
3 64 65 76
3 64 76 75
3 66 67 78
3 66 78 77
3 67 68 79
3 67 79 78
3 68 69 80
3 68 80 79
3 69 70 81
3 69 81 80
3 70 71 82
3 70 82 81
3 71 72 83
3 71 83 82
3 72 73 84
3 72 84 83
3 73 74 85
3 73 85 84
3 74 75 86
3 74 86 85
3 75 76 87
3 75 87 86
3 77 78 89
3 77 89 88
3 78 79 90
3 78 90 89
3 79 80 91
3 79 91 90
3 80 81 92
3 80 92 91
3 81 82 93
3 81 93 92
3 82 83 94
3 82 94 93
3 83 84 95
3 83 95 94
3 84 85 96
3 84 96 95
3 85 86 97
3 85 97 96
3 86 87 98
3 86 98 97
3 88 89 100
3 88 100 99
3 89 90 101
3 89 101 100
3 90 91 102
3 90 102 101
3 91 92 103
3 91 103 102
3 92 93 104
3 92 104 103
3 93 94 105
3 93 105 104
3 94 95 106
3 94 106 105
3 95 96 107
3 95 107 106
3 96 97 108
3 96 108 107
3 97 98 109
3 97 109 108
3 99 100 111
3 99 111 110
3 100 101 112
3 100 112 111
3 101 102 113
3 101 113 112
3 102 103 114
3 102 114 113
3 103 104 115
3 103 115 114
3 104 105 116
3 104 116 115
3 105 106 117
3 105 117 116
3 106 107 118
3 106 118 117
3 107 108 119
3 107 119 118
3 108 109 120
3 108 120 119
3 110 111 122
3 110 122 121
3 111 112 123
3 111 123 122
3 112 113 124
3 112 124 123
3 113 114 125
3 113 125 124
3 114 115 126
3 114 126 125
3 115 116 127
3 115 127 126
3 116 117 128
3 116 128 127
3 117 118 129
3 117 129 128
3 118 119 130
3 118 130 129
3 119 120 131
3 119 131 130
3 121 122 133
3 121 133 132
3 122 123 134
3 122 134 133
3 123 124 135
3 123 135 134
3 124 125 136
3 124 136 135
3 125 126 137
3 125 137 136
3 126 127 138
3 126 138 137
3 127 128 139
3 127 139 138
3 128 129 140
3 128 140 139
3 129 130 141
3 129 141 140
3 130 131 142
3 130 142 141
3 132 133 144
3 132 144 143
3 133 134 145
3 133 145 144
3 134 135 146
3 134 146 145
3 135 136 147
3 135 147 146
3 136 137 148
3 136 148 147
3 137 138 149
3 137 149 148
3 138 139 150
3 138 150 149
3 139 140 151
3 139 151 150
3 140 141 152
3 140 152 151
3 141 142 153
3 141 153 152
3 143 144 155
3 143 155 154
3 144 145 156
3 144 156 155
3 145 146 157
3 145 157 156
3 146 147 158
3 146 158 157
3 147 148 159
3 147 159 158
3 148 149 160
3 148 160 159
3 149 150 161
3 149 161 160
3 150 151 162
3 150 162 161
3 151 152 163
3 151 163 162
3 152 153 164
3 152 164 163
3 154 155 166
3 154 166 165
3 155 156 167
3 155 167 166
3 156 157 168
3 156 168 167
3 157 158 169
3 157 169 168
3 158 159 170
3 158 170 169
3 159 160 171
3 159 171 170
3 160 161 172
3 160 172 171
3 161 162 173
3 161 173 172
3 162 163 174
3 162 174 173
3 163 164 175
3 163 175 174
3 165 166 177
3 165 177 176
3 166 167 178
3 166 178 177
3 167 168 179
3 167 179 178
3 168 169 180
3 168 180 179
3 169 170 181
3 169 181 180
3 170 171 182
3 170 182 181
3 171 172 183
3 171 183 182
3 172 173 184
3 172 184 183
3 173 174 185
3 173 185 184
3 174 175 186
3 174 186 185
3 176 177 188
3 176 188 187
3 177 178 189
3 177 189 188
3 178 179 190
3 178 190 189
3 179 180 191
3 179 191 190
3 180 181 192
3 180 192 191
3 181 182 193
3 181 193 192
3 182 183 194
3 182 194 193
3 183 184 195
3 183 195 194
3 184 185 196
3 184 196 195
3 185 186 197
3 185 197 196
3 187 188 199
3 187 199 198
3 188 189 200
3 188 200 199
3 189 190 201
3 189 201 200
3 190 191 202
3 190 202 201
3 191 192 203
3 191 203 202
3 192 193 204
3 192 204 203
3 193 194 205
3 193 205 204
3 194 195 206
3 194 206 205
3 195 196 207
3 195 207 206
3 196 197 208
3 196 208 207
3 198 199 210
3 198 210 209
3 199 200 211
3 199 211 210
3 200 201 212
3 200 212 211
3 201 202 213
3 201 213 212
3 202 203 214
3 202 214 213
3 203 204 215
3 203 215 214
3 204 205 216
3 204 216 215
3 205 206 217
3 205 217 216
3 206 207 218
3 206 218 217
3 207 208 219
3 207 219 218
3 209 210 221
3 209 221 220
3 210 211 222
3 210 222 221
3 211 212 223
3 211 223 222
3 212 213 224
3 212 224 223
3 213 214 225
3 213 225 224
3 214 215 226
3 214 226 225
3 215 216 227
3 215 227 226
3 216 217 228
3 216 228 227
3 217 218 229
3 217 229 228
3 218 219 230
3 218 230 229
CELL_TYPES 400
5
5
5
5
5
5
5
5
5
5
5
5
5
5
5
5
5
5
5
5
5
5
5
5
5
5
5
5
5
5
5
5
5
5
5
5
5
5
5
5
5
5
5
5
5
5
5
5
5
5
5
5
5
5
5
5
5
5
5
5
5
5
5
5
5
5
5
5
5
5
5
5
5
5
5
5
5
5
5
5
5
5
5
5
5
5
5
5
5
5
5
5
5
5
5
5
5
5
5
5
5
5
5
5
5
5
5
5
5
5
5
5
5
5
5
5
5
5
5
5
5
5
5
5
5
5
5
5
5
5
5
5
5
5
5
5
5
5
5
5
5
5
5
5
5
5
5
5
5
5
5
5
5
5
5
5
5
5
5
5
5
5
5
5
5
5
5
5
5
5
5
5
5
5
5
5
5
5
5
5
5
5
5
5
5
5
5
5
5
5
5
5
5
5
5
5
5
5
5
5
5
5
5
5
5
5
5
5
5
5
5
5
5
5
5
5
5
5
5
5
5
5
5
5
5
5
5
5
5
5
5
5
5
5
5
5
5
5
5
5
5
5
5
5
5
5
5
5
5
5
5
5
5
5
5
5
5
5
5
5
5
5
5
5
5
5
5
5
5
5
5
5
5
5
5
5
5
5
5
5
5
5
5
5
5
5
5
5
5
5
5
5
5
5
5
5
5
5
5
5
5
5
5
5
5
5
5
5
5
5
5
5
5
5
5
5
5
5
5
5
5
5
5
5
5
5
5
5
5
5
5
5
5
5
5
5
5
5
5
5
5
5
5
5
5
5
5
5
5
5
5
5
5
5
5
5
5
5
5
5
5
5
5
5
5
5
5
5
5
5
5
5
5
5
5
5
5
5
5
5
5
5
5
5
5
5
5
5
5
5
5
5
5
5
5
5
5
5
5
5
POINT_DATA 231
SCALARS psi double 1
LOOKUP_TABLE default
0
0
0
0
0
0
0
0
0
0
0
0
-0.196478
-0.30906
-0.297892
-0.16974
0.0221078
0.202339
0.304639
0.294122
0.176757
0
0
-0.371266
-0.587275
-0.5683
-0.326048
0.038493
0.382014
0.578207
0.560298
0.338585
0
0
-0.508116
-0.807939
-0.784761
-0.453025
0.0483799
0.521919
0.79377
0.771857
0.468838
0
0
-0.594436
-0.949984
-0.925954
-0.537385
0.0519424
0.609106
0.930215
0.907476
0.553994
0
0
-0.622506
-1
-0.97782
-0.569825
0.0501949
0.635992
0.974303
0.953311
0.584997
0
0
-0.590221
-0.953528
-0.934969
-0.546035
0.044777
0.601012
0.921939
0.904383
0.558171
0
0
-0.501282
-0.815485
-0.801258
-0.467227
0.0376631
0.508671
0.778536
0.765081
0.475594
0
0
-0.36483
-0.599675
-0.589462
-0.340119
0.0308394
0.368996
0.558436
0.548742
0.344912
0
0
-0.194536
-0.327438
-0.320064
-0.176374
0.0259909
0.196456
0.283457
0.276342
0.178597
0
0
-0.00726159
-0.0255623
-0.019286
0.00846529
0.0242431
0.00846529
-0.019286
-0.0255623
-0.00726159
0
0
0.178597
0.276342
0.283457
0.196456
0.0259909
-0.176374
-0.320064
-0.327438
-0.194536
0
0
0.344912
0.548742
0.558436
0.368996
0.0308394
-0.340119
-0.589462
-0.599675
-0.36483
0
0
0.475594
0.765081
0.778536
0.508671
0.0376631
-0.467227
-0.801258
-0.815485
-0.501282
0
0
0.558171
0.904383
0.921939
0.601012
0.044777
-0.546035
-0.934969
-0.953528
-0.590221
0
0
0.584997
0.953311
0.974303
0.635992
0.0501949
-0.569825
-0.97782
-1
-0.622506
0
0
0.553994
0.907476
0.930215
0.609106
0.0519424
-0.537385
-0.925954
-0.949984
-0.594436
0
0
0.468838
0.771857
0.79377
0.521919
0.0483799
-0.453025
-0.784761
-0.807939
-0.508116
0
0
0.338585
0.560298
0.578207
0.382014
0.038493
-0.326048
-0.5683
-0.587275
-0.371266
0
0
0.176757
0.294122
0.304639
0.202339
0.0221078
-0.16974
-0.297892
-0.30906
-0.196478
0
0
0
0
0
0
0
0
0
0
0
0
VECTORS Et double
0.0804345 0.321738 0
0.0307259 0.76638 0
-0.00304801 0.999995 0
-0.0349752 0.83571 0
-0.0523594 0.346471 0
-0.0491888 -0.26916 0
-0.0279199 -0.77435 0
0.00287036 -0.986228 0
0.0320313 -0.83514 0
0.0482408 -0.385926 0
-0 -0 0
0.208572 0.190813 0
0.113826 0.557167 0
0.0250887 0.895965 0
-0.0710812 0.874422 0
-0.13708 0.509599 0
-0.148425 -0.0474452 0
-0.103881 -0.578431 0
-0.0226057 -0.886954 0
0.0651567 -0.866286 0
0.126476 -0.530172 0
0.0964816 -0.192963 0
0.341328 0.149397 0
0.228005 0.460659 0
0.0659749 0.758179 0
-0.118087 0.752678 0
-0.251516 0.451461 0
-0.284044 -0.0197275 0
-0.208991 -0.475488 0
-0.059627 -0.747529 0
0.108183 -0.741958 0
0.232911 -0.46415 0
0.233055 -0.176665 0
0.439585 0.0942341 0
0.319685 0.321165 0
0.1017 0.547732 0
-0.152477 0.55694 0
-0.340859 0.346922 0
-0.391859 0.00703682 0
-0.294129 -0.327786 0
-0.0918829 -0.534674 0
0.139361 -0.543154 0
0.316509 -0.350636 0
0.348319 -0.142195 0
0.494363 0.0306434 0
0.380122 0.152178 0
0.128365 0.285097 0
-0.171445 0.306 0
-0.396766 0.205531 0
-0.461261 0.02939 0
-0.350485 -0.150541 0
-0.115664 -0.269693 0
0.155929 -0.289491 0
0.368848 -0.200835 0
0.430349 -0.0929626 0
0.500874 -0.0352456 0
0.403615 -0.0299684 0
0.142958 -0.004199 0
-0.173757 0.0241566 0
-0.414214 0.0407115 0
-0.485417 0.0446227 0
-0.372033 0.0383714 0
-0.128026 0.0210665 0
0.156597 -0.00604523 0
0.384583 -0.0295785 0
0.470512 -0.0338455 0
0.458978 -0.0970923 0
0.388062 -0.207688 0
0.143661 -0.292039 0
-0.159822 -0.261132 0
-0.391966 -0.131511 0
-0.461936 0.0510991 0
-0.35616 0.220226 0
-0.127126 0.308845 0
0.141648 0.279144 0
0.361985 0.146141 0
0.464331 0.0292857 0
0.373191 -0.148963 0
0.335152 -0.363853 0
0.130053 -0.55045 0
-0.131605 -0.521915 0
-0.332655 -0.294056 0
-0.393111 0.0484394 0
-0.303955 0.377312 0
-0.112451 0.565321 0
0.11289 0.537854 0
0.303118 0.308848 0
0.411936 0.0901478 0
0.252233 -0.185907 0
0.250205 -0.483468 0
0.103177 -0.754323 0
-0.0923877 -0.73249 0
-0.24249 -0.430481 0
-0.285692 0.0375411 0
-0.220139 0.494661 0
-0.0849116 0.765399 0
0.0734498 0.74447 0
0.213638 0.442313 0
0.318067 0.142664 0
0.108168 -0.204445 0
0.141647 -0.555129 0
0.0654496 -0.883881 0
-0.0464092 -0.871944 0
-0.130624 -0.526639 0
-0.150221 0.0204354 0
-0.112626 0.561482 0
-0.0467973 0.889662 0
0.0274439 0.878504 0
0.102243 0.533149 0
0.19162 0.181563 0
-0.0447793 -0.202899 0
0.0201847 -0.572136 0
0.0204467 -0.92661 0
0.00157905 -0.926243 0
-0.00822628 -0.572143 0
-8.43959e-14 1.69924e-14 0
0.00822628 0.572143 0
-0.00157905 0.926243 0
-0.0204467 0.92661 0
-0.0201847 0.572136 0
0.0447793 0.202899 0
-0.19162 -0.181563 0
-0.102243 -0.533149 0
-0.0274439 -0.878504 0
0.0467973 -0.889662 0
0.112626 -0.561482 0
0.150221 -0.0204354 0
0.130624 0.526639 0
0.0464092 0.871944 0
-0.0654496 0.883881 0
-0.141647 0.555129 0
-0.108168 0.204445 0
-0.318067 -0.142664 0
-0.213638 -0.442313 0
-0.0734498 -0.74447 0
0.0849116 -0.765399 0
0.220139 -0.494661 0
0.285692 -0.0375411 0
0.24249 0.430481 0
0.0923877 0.73249 0
-0.103177 0.754323 0
-0.250205 0.483468 0
-0.252233 0.185907 0
-0.411936 -0.0901478 0
-0.303118 -0.308848 0
-0.11289 -0.537854 0
0.112451 -0.565321 0
0.303955 -0.377312 0
0.393111 -0.0484394 0
0.332655 0.294056 0
0.131605 0.521915 0
-0.130053 0.55045 0
-0.335152 0.363853 0
-0.373191 0.148963 0
-0.464331 -0.0292857 0
-0.361985 -0.146141 0
-0.141648 -0.279144 0
0.127126 -0.308845 0
0.35616 -0.220226 0
0.461936 -0.0510991 0
0.391966 0.131511 0
0.159822 0.261132 0
-0.143661 0.292039 0
-0.388062 0.207688 0
-0.458978 0.0970923 0
-0.470512 0.0338455 0
-0.384583 0.0295785 0
-0.156597 0.00604523 0
0.128026 -0.0210665 0
0.372033 -0.0383714 0
0.485417 -0.0446227 0
0.414214 -0.0407115 0
0.173757 -0.0241566 0
-0.142958 0.004199 0
-0.403615 0.0299684 0
-0.500874 0.0352456 0
-0.430349 0.0929626 0
-0.368848 0.200835 0
-0.155929 0.289491 0
0.115664 0.269693 0
0.350485 0.150541 0
0.461261 -0.02939 0
0.396766 -0.205531 0
0.171445 -0.306 0
-0.128365 -0.285097 0
-0.380122 -0.152178 0
-0.494363 -0.0306434 0
-0.348319 0.142195 0
-0.316509 0.350636 0
-0.139361 0.543154 0
0.0918829 0.534674 0
0.294129 0.327786 0
0.391859 -0.00703682 0
0.340859 -0.346922 0
0.152477 -0.55694 0
-0.1017 -0.547732 0
-0.319685 -0.321165 0
-0.439585 -0.0942341 0
-0.233055 0.176665 0
-0.232911 0.46415 0
-0.108183 0.741958 0
0.059627 0.747529 0
0.208991 0.475488 0
0.284044 0.0197275 0
0.251516 -0.451461 0
0.118087 -0.752678 0
-0.0659749 -0.758179 0
-0.228005 -0.460659 0
-0.341328 -0.149397 0
-0.0964816 0.192963 0
-0.126476 0.530172 0
-0.0651567 0.866286 0
0.0226057 0.886954 0
0.103881 0.578431 0
0.148425 0.0474452 0
0.13708 -0.509599 0
0.0710812 -0.874422 0
-0.0250887 -0.895965 0
-0.113826 -0.557167 0
-0.208572 -0.190813 0
-0 -0 0
-0.0482408 0.385926 0
-0.0320313 0.83514 0
-0.00287036 0.986228 0
0.0279199 0.77435 0
0.0491888 0.26916 0
0.0523594 -0.346471 0
0.0349752 -0.83571 0
0.00304801 -0.999995 0
-0.0307259 -0.76638 0
-0.0804345 -0.321738 0
