# vtk DataFile Version 3.0
tp3485 scalar+vector
ASCII
DATASET UNSTRUCTURED_GRID
POINTS 231 double
0 0 0
0.1 0 0
0.2 0 0
0.3 0 0
0.4 0 0
0.5 0 0
0.6 0 0
0.7 0 0
0.8 0 0
0.9 0 0
1 0 0
0 0.025 0
0.1 0.025 0
0.2 0.025 0
0.3 0.025 0
0.4 0.025 0
0.5 0.025 0
0.6 0.025 0
0.7 0.025 0
0.8 0.025 0
0.9 0.025 0
1 0.025 0
0 0.05 0
0.1 0.05 0
0.2 0.05 0
0.3 0.05 0
0.4 0.05 0
0.5 0.05 0
0.6 0.05 0
0.7 0.05 0
0.8 0.05 0
0.9 0.05 0
1 0.05 0
0 0.075 0
0.1 0.075 0
0.2 0.075 0
0.3 0.075 0
0.4 0.075 0
0.5 0.075 0
0.6 0.075 0
0.7 0.075 0
0.8 0.075 0
0.9 0.075 0
1 0.075 0
0 0.1 0
0.1 0.1 0
0.2 0.1 0
0.3 0.1 0
0.4 0.1 0
0.5 0.1 0
0.6 0.1 0
0.7 0.1 0
0.8 0.1 0
0.9 0.1 0
1 0.1 0
0 0.125 0
0.1 0.125 0
0.2 0.125 0
0.3 0.125 0
0.4 0.125 0
0.5 0.125 0
0.6 0.125 0
0.7 0.125 0
0.8 0.125 0
0.9 0.125 0
1 0.125 0
0 0.15 0
0.1 0.15 0
0.2 0.15 0
0.3 0.15 0
0.4 0.15 0
0.5 0.15 0
0.6 0.15 0
0.7 0.15 0
0.8 0.15 0
0.9 0.15 0
1 0.15 0
0 0.175 0
0.1 0.175 0
0.2 0.175 0
0.3 0.175 0
0.4 0.175 0
0.5 0.175 0
0.6 0.175 0
0.7 0.175 0
0.8 0.175 0
0.9 0.175 0
1 0.175 0
0 0.2 0
0.1 0.2 0
0.2 0.2 0
0.3 0.2 0
0.4 0.2 0
0.5 0.2 0
0.6 0.2 0
0.7 0.2 0
0.8 0.2 0
0.9 0.2 0
1 0.2 0
0 0.225 0
0.1 0.225 0
0.2 0.225 0
0.3 0.225 0
0.4 0.225 0
0.5 0.225 0
0.6 0.225 0
0.7 0.225 0
0.8 0.225 0
0.9 0.225 0
1 0.225 0
0 0.25 0
0.1 0.25 0
0.2 0.25 0
0.3 0.25 0
0.4 0.25 0
0.5 0.25 0
0.6 0.25 0
0.7 0.25 0
0.8 0.25 0
0.9 0.25 0
1 0.25 0
0 0.275 0
0.1 0.275 0
0.2 0.275 0
0.3 0.275 0
0.4 0.275 0
0.5 0.275 0
0.6 0.275 0
0.7 0.275 0
0.8 0.275 0
0.9 0.275 0
1 0.275 0
0 0.3 0
0.1 0.3 0
0.2 0.3 0
0.3 0.3 0
0.4 0.3 0
0.5 0.3 0
0.6 0.3 0
0.7 0.3 0
0.8 0.3 0
0.9 0.3 0
1 0.3 0
0 0.325 0
0.1 0.325 0
0.2 0.325 0
0.3 0.325 0
0.4 0.325 0
0.5 0.325 0
0.6 0.325 0
0.7 0.325 0
0.8 0.325 0
0.9 0.325 0
1 0.325 0
0 0.35 0
0.1 0.35 0
0.2 0.35 0
0.3 0.35 0
0.4 0.35 0
0.5 0.35 0
0.6 0.35 0
0.7 0.35 0
0.8 0.35 0
0.9 0.35 0
1 0.35 0
0 0.375 0
0.1 0.375 0
0.2 0.375 0
0.3 0.375 0
0.4 0.375 0
0.5 0.375 0
0.6 0.375 0
0.7 0.375 0
0.8 0.375 0
0.9 0.375 0
1 0.375 0
0 0.4 0
0.1 0.4 0
0.2 0.4 0
0.3 0.4 0
0.4 0.4 0
0.5 0.4 0
0.6 0.4 0
0.7 0.4 0
0.8 0.4 0
0.9 0.4 0
1 0.4 0
0 0.425 0
0.1 0.425 0
0.2 0.425 0
0.3 0.425 0
0.4 0.425 0
0.5 0.425 0
0.6 0.425 0
0.7 0.425 0
0.8 0.425 0
0.9 0.425 0
1 0.425 0
0 0.45 0
0.1 0.45 0
0.2 0.45 0
0.3 0.45 0
0.4 0.45 0
0.5 0.45 0
0.6 0.45 0
0.7 0.45 0
0.8 0.45 0
0.9 0.45 0
1 0.45 0
0 0.475 0
0.1 0.475 0
0.2 0.475 0
0.3 0.475 0
0.4 0.475 0
0.5 0.475 0
0.6 0.475 0
0.7 0.475 0
0.8 0.475 0
0.9 0.475 0
1 0.475 0
0 0.5 0
0.1 0.5 0
0.2 0.5 0
0.3 0.5 0
0.4 0.5 0
0.5 0.5 0
0.6 0.5 0
0.7 0.5 0
0.8 0.5 0
0.9 0.5 0
1 0.5 0
CELLS 400 1600
3 0 1 12
3 0 12 11
3 1 2 13
3 1 13 12
3 2 3 14
3 2 14 13
3 3 4 15
3 3 15 14
3 4 5 16
3 4 16 15
3 5 6 17
3 5 17 16
3 6 7 18
3 6 18 17
3 7 8 19
3 7 19 18
3 8 9 20
3 8 20 19
3 9 10 21
3 9 21 20
3 11 12 23
3 11 23 22
3 12 13 24
3 12 24 23
3 13 14 25
3 13 25 24
3 14 15 26
3 14 26 25
3 15 16 27
3 15 27 26
3 16 17 28
3 16 28 27
3 17 18 29
3 17 29 28
3 18 19 30
3 18 30 29
3 19 20 31
3 19 31 30
3 20 21 32
3 20 32 31
3 22 23 34
3 22 34 33
3 23 24 35
3 23 35 34
3 24 25 36
3 24 36 35
3 25 26 37
3 25 37 36
3 26 27 38
3 26 38 37
3 27 28 39
3 27 39 38
3 28 29 40
3 28 40 39
3 29 30 41
3 29 41 40
3 30 31 42
3 30 42 41
3 31 32 43
3 31 43 42
3 33 34 45
3 33 45 44
3 34 35 46
3 34 46 45
3 35 36 47
3 35 47 46
3 36 37 48
3 36 48 47
3 37 38 49
3 37 49 48
3 38 39 50
3 38 50 49
3 39 40 51
3 39 51 50
3 40 41 52
3 40 52 51
3 41 42 53
3 41 53 52
3 42 43 54
3 42 54 53
3 44 45 56
3 44 56 55
3 45 46 57
3 45 57 56
3 46 47 58
3 46 58 57
3 47 48 59
3 47 59 58
3 48 49 60
3 48 60 59
3 49 50 61
3 49 61 60
3 50 51 62
3 50 62 61
3 51 52 63
3 51 63 62
3 52 53 64
3 52 64 63
3 53 54 65
3 53 65 64
3 55 56 67
3 55 67 66
3 56 57 68
3 56 68 67
3 57 58 69
3 57 69 68
3 58 59 70
3 58 70 69
3 59 60 71
3 59 71 70
3 60 61 72
3 60 72 71
3 61 62 73
3 61 73 72
3 62 63 74
3 62 74 73
3 63 64 75
3 63 75 74
3 64 65 76
3 64 76 75
3 66 67 78
3 66 78 77
3 67 68 79
3 67 79 78
3 68 69 80
3 68 80 79
3 69 70 81
3 69 81 80
3 70 71 82
3 70 82 81
3 71 72 83
3 71 83 82
3 72 73 84
3 72 84 83
3 73 74 85
3 73 85 84
3 74 75 86
3 74 86 85
3 75 76 87
3 75 87 86
3 77 78 89
3 77 89 88
3 78 79 90
3 78 90 89
3 79 80 91
3 79 91 90
3 80 81 92
3 80 92 91
3 81 82 93
3 81 93 92
3 82 83 94
3 82 94 93
3 83 84 95
3 83 95 94
3 84 85 96
3 84 96 95
3 85 86 97
3 85 97 96
3 86 87 98
3 86 98 97
3 88 89 100
3 88 100 99
3 89 90 101
3 89 101 100
3 90 91 102
3 90 102 101
3 91 92 103
3 91 103 102
3 92 93 104
3 92 104 103
3 93 94 105
3 93 105 104
3 94 95 106
3 94 106 105
3 95 96 107
3 95 107 106
3 96 97 108
3 96 108 107
3 97 98 109
3 97 109 108
3 99 100 111
3 99 111 110
3 100 101 112
3 100 112 111
3 101 102 113
3 101 113 112
3 102 103 114
3 102 114 113
3 103 104 115
3 103 115 114
3 104 105 116
3 104 116 115
3 105 106 117
3 105 117 116
3 106 107 118
3 106 118 117
3 107 108 119
3 107 119 118
3 108 109 120
3 108 120 119
3 110 111 122
3 110 122 121
3 111 112 123
3 111 123 122
3 112 113 124
3 112 124 123
3 113 114 125
3 113 125 124
3 114 115 126
3 114 126 125
3 115 116 127
3 115 127 126
3 116 117 128
3 116 128 127
3 117 118 129
3 117 129 128
3 118 119 130
3 118 130 129
3 119 120 131
3 119 131 130
3 121 122 133
3 121 133 132
3 122 123 134
3 122 134 133
3 123 124 135
3 123 135 134
3 124 125 136
3 124 136 135
3 125 126 137
3 125 137 136
3 126 127 138
3 126 138 137
3 127 128 139
3 127 139 138
3 128 129 140
3 128 140 139
3 129 130 141
3 129 141 140
3 130 131 142
3 130 142 141
3 132 133 144
3 132 144 143
3 133 134 145
3 133 145 144
3 134 135 146
3 134 146 145
3 135 136 147
3 135 147 146
3 136 137 148
3 136 148 147
3 137 138 149
3 137 149 148
3 138 139 150
3 138 150 149
3 139 140 151
3 139 151 150
3 140 141 152
3 140 152 151
3 141 142 153
3 141 153 152
3 143 144 155
3 143 155 154
3 144 145 156
3 144 156 155
3 145 146 157
3 145 157 156
3 146 147 158
3 146 158 157
3 147 148 159
3 147 159 158
3 148 149 160
3 148 160 159
3 149 150 161
3 149 161 160
3 150 151 162
3 150 162 161
3 151 152 163
3 151 163 162
3 152 153 164
3 152 164 163
3 154 155 166
3 154 166 165
3 155 156 167
3 155 167 166
3 156 157 168
3 156 168 167
3 157 158 169
3 157 169 168
3 158 159 170
3 158 170 169
3 159 160 171
3 159 171 170
3 160 161 172
3 160 172 171
3 161 162 173
3 161 173 172
3 162 163 174
3 162 174 173
3 163 164 175
3 163 175 174
3 165 166 177
3 165 177 176
3 166 167 178
3 166 178 177
3 167 168 179
3 167 179 178
3 168 169 180
3 168 180 179
3 169 170 181
3 169 181 180
3 170 171 182
3 170 182 181
3 171 172 183
3 171 183 182
3 172 173 184
3 172 184 183
3 173 174 185
3 173 185 184
3 174 175 186
3 174 186 185
3 176 177 188
3 176 188 187
3 177 178 189
3 177 189 188
3 178 179 190
3 178 190 189
3 179 180 191
3 179 191 190
3 180 181 192
3 180 192 191
3 181 182 193
3 181 193 192
3 182 183 194
3 182 194 193
3 183 184 195
3 183 195 194
3 184 185 196
3 184 196 195
3 185 186 197
3 185 197 196
3 187 188 199
3 187 199 198
3 188 189 200
3 188 200 199
3 189 190 201
3 189 201 200
3 190 191 202
3 190 202 201
3 191 192 203
3 191 203 202
3 192 193 204
3 192 204 203
3 193 194 205
3 193 205 204
3 194 195 206
3 194 206 205
3 195 196 207
3 195 207 206
3 196 197 208
3 196 208 207
3 198 199 210
3 198 210 209
3 199 200 211
3 199 211 210
3 200 201 212
3 200 212 211
3 201 202 213
3 201 213 212
3 202 203 214
3 202 214 213
3 203 204 215
3 203 215 214
3 204 205 216
3 204 216 215
3 205 206 217
3 205 217 216
3 206 207 218
3 206 218 217
3 207 208 219
3 207 219 218
3 209 210 221
3 209 221 220
3 210 211 222
3 210 222 221
3 211 212 223
3 211 223 222
3 212 213 224
3 212 224 223
3 213 214 225
3 213 225 224
3 214 215 226
3 214 226 225
3 215 216 227
3 215 227 226
3 216 217 228
3 216 228 227
3 217 218 229
3 217 229 228
3 218 219 230
3 218 230 229
CELL_TYPES 400
5
5
5
5
5
5
5
5
5
5
5
5
5
5
5
5
5
5
5
5
5
5
5
5
5
5
5
5
5
5
5
5
5
5
5
5
5
5
5
5
5
5
5
5
5
5
5
5
5
5
5
5
5
5
5
5
5
5
5
5
5
5
5
5
5
5
5
5
5
5
5
5
5
5
5
5
5
5
5
5
5
5
5
5
5
5
5
5
5
5
5
5
5
5
5
5
5
5
5
5
5
5
5
5
5
5
5
5
5
5
5
5
5
5
5
5
5
5
5
5
5
5
5
5
5
5
5
5
5
5
5
5
5
5
5
5
5
5
5
5
5
5
5
5
5
5
5
5
5
5
5
5
5
5
5
5
5
5
5
5
5
5
5
5
5
5
5
5
5
5
5
5
5
5
5
5
5
5
5
5
5
5
5
5
5
5
5
5
5
5
5
5
5
5
5
5
5
5
5
5
5
5
5
5
5
5
5
5
5
5
5
5
5
5
5
5
5
5
5
5
5
5
5
5
5
5
5
5
5
5
5
5
5
5
5
5
5
5
5
5
5
5
5
5
5
5
5
5
5
5
5
5
5
5
5
5
5
5
5
5
5
5
5
5
5
5
5
5
5
5
5
5
5
5
5
5
5
5
5
5
5
5
5
5
5
5
5
5
5
5
5
5
5
5
5
5
5
5
5
5
5
5
5
5
5
5
5
5
5
5
5
5
5
5
5
5
5
5
5
5
5
5
5
5
5
5
5
5
5
5
5
5
5
5
5
5
5
5
5
5
5
5
5
5
5
5
5
5
5
5
5
5
5
5
5
5
5
5
5
5
5
5
5
5
5
5
5
5
5
5
5
5
5
5
5
5
5
5
5
5
5
5
5
5
5
5
5
5
5
5
5
5
5
5
5
5
5
5
5
5
POINT_DATA 231
SCALARS psi double 1
LOOKUP_TABLE default
0
0
0
0
0
0
0
0
0
0
0
0
0.266198
0.287881
0.0583376
-0.21827
-0.307472
-0.143662
0.131651
0.299709
0.235609
0
0
0.504574
0.551585
0.117761
-0.410805
-0.58575
-0.27858
0.244249
0.56728
0.450229
0
0
0.693803
0.765863
0.171312
-0.560076
-0.807299
-0.389952
0.327636
0.775511
0.620827
0
0
0.816957
0.909863
0.211992
-0.653246
-0.950133
-0.464789
0.375183
0.903492
0.729006
0
0
0.863173
0.969183
0.233588
-0.683312
-1
-0.493351
0.384313
0.938666
0.762856
0
0
0.828751
0.93737
0.231473
-0.649638
-0.95181
-0.470294
0.356552
0.877995
0.718111
0
0
0.717591
0.8167
0.203307
-0.557828
-0.810156
-0.395417
0.297124
0.728121
0.598536
0
0
0.540887
0.618118
0.149522
-0.418976
-0.588871
-0.273897
0.214174
0.504557
0.415489
0
0
0.316112
0.360337
0.0735299
-0.248382
-0.309669
-0.115978
0.11771
0.229982
0.186734
0
0
0.0653686
0.068135
-0.0184186
-0.0638906
2.42094e-14
0.0638906
0.0184186
-0.068135
-0.0653686
0
0
-0.186734
-0.229982
-0.11771
0.115978
0.309669
0.248382
-0.0735299
-0.360337
-0.316112
0
0
-0.415489
-0.504557
-0.214174
0.273897
0.588871
0.418976
-0.149522
-0.618118
-0.540887
0
0
-0.598536
-0.728121
-0.297124
0.395417
0.810156
0.557828
-0.203307
-0.8167
-0.717591
0
0
-0.718111
-0.877995
-0.356552
0.470294
0.95181
0.649638
-0.231473
-0.93737
-0.828751
0
0
-0.762856
-0.938666
-0.384313
0.493351
1
0.683312
-0.233588
-0.969183
-0.863173
0
0
-0.729006
-0.903492
-0.375183
0.464789
0.950133
0.653246
-0.211992
-0.909863
-0.816957
0
0
-0.620827
-0.775511
-0.327636
0.389952
0.807299
0.560076
-0.171312
-0.765863
-0.693803
0
0
-0.450229
-0.56728
-0.244249
0.27858
0.58575
0.410805
-0.117761
-0.551585
-0.504574
0
0
-0.235609
-0.299709
-0.131651
0.143662
0.307472
0.21827
-0.0583376
-0.287881
-0.266198
0
0
0
0
0
0
0
0
0
0
0
0
VECTORS Et double
-0.119524 -0.478096 0
-0.00649054 -0.982155 0
0.0687107 -0.759236 0
0.0827987 0.121644 0
0.0267013 0.890839 0
-0.0490344 0.908313 0
-0.0824111 0.186393 0
-0.0503059 -0.674119 0
0.0191875 -0.999816 0
0.0705263 -0.564211 0
-0 -0 0
-0.310403 -0.285418 0
-0.0932093 -0.762021 0
0.12715 -0.855378 0
0.230619 -0.198083 0
0.135684 0.623547 0
-0.0683065 0.912788 0
-0.209696 0.450222 0
-0.181064 -0.366632 0
-0.0135996 -0.886533 0
0.157099 -0.718507 0
0.141053 -0.282105 0
-0.509755 -0.226572 0
-0.215736 -0.640273 0
0.201527 -0.747077 0
0.431899 -0.203777 0
0.288987 0.506319 0
-0.0886925 0.780405 0
-0.380366 0.41157 0
-0.361435 -0.278551 0
-0.0636589 -0.73924 0
0.272319 -0.621425 0
0.340066 -0.256974 0
-0.659905 -0.147459 0
-0.318674 -0.460239 0
0.253813 -0.566623 0
0.59133 -0.185331 0
0.416478 0.343737 0
-0.0973812 0.570461 0
-0.511417 0.327127 0
-0.506187 -0.166716 0
-0.109995 -0.517247 0
0.358766 -0.458454 0
0.506442 -0.204264 0
-0.747469 -0.0553358 0
-0.392061 -0.238307 0
0.280398 -0.330101 0
0.694111 -0.142775 0
0.50473 0.153055 0
-0.0952396 0.303607 0
-0.590537 0.203849 0
-0.599945 -0.0441176 0
-0.146632 -0.244083 0
0.407774 -0.246677 0
0.622272 -0.129528 0
-0.764833 0.0412146 0
-0.428641 0.0049241 0
0.280203 -0.0593368 0
0.730974 -0.0789972 0
0.543982 -0.0460984 0
-0.084495 0.00620379 0
-0.610768 0.0530652 0
-0.632415 0.075729 0
-0.168453 0.0518502 0
0.41457 -0.00801322 0
0.674919 -0.0405298 0
-0.710951 0.133097 0
-0.424612 0.246553 0
0.254726 0.220044 0
0.699061 0.000338382 0
0.529195 -0.233786 0
-0.0683591 -0.292296 0
-0.571121 -0.110533 0
-0.599456 0.180317 0
-0.171802 0.340302 0
0.378711 0.23307 0
0.658264 0.0535746 0
-0.591509 0.211576 0
-0.380065 0.463558 0
0.207821 0.481002 0
0.602182 0.0872375 0
0.460668 -0.391797 0
-0.0505315 -0.562278 0
-0.476565 -0.270299 0
-0.503529 0.259491 0
-0.154936 0.592297 0
0.304068 0.452069 0
0.573284 0.143173 0
-0.418438 0.269134 0
-0.299045 0.635036 0
0.145242 0.697707 0
0.450425 0.172143 0
0.344118 -0.505465 0
-0.0346512 -0.776924 0
-0.337429 -0.409312 0
-0.353474 0.30645 0
-0.118295 0.783054 0
0.198375 0.626911 0
0.427905 0.219171 0
-0.208815 0.300226 0
-0.189229 0.744293 0
0.0740087 0.848134 0
0.259151 0.24496 0
0.190229 -0.565055 0
-0.0237678 -0.914893 0
-0.168266 -0.512155 0
-0.163652 0.318318 0
-0.0645364 0.894386 0
0.0723889 0.740132 0
0.236163 0.273898 0
0.0167618 0.301854 0
-0.0612343 0.780554 0
0.00165807 0.916371 0
0.0474702 0.296231 0
0.0136772 -0.566608 0
-0.0199041 -0.962461 0
0.0136772 -0.566608 0
0.0474702 0.296231 0
0.00165807 0.916371 0
-0.0612343 0.780554 0
0.0167618 0.301854 0
0.236163 0.273898 0
0.0723889 0.740132 0
-0.0645364 0.894386 0
-0.163652 0.318318 0
-0.168266 -0.512155 0
-0.0237678 -0.914893 0
0.190229 -0.565055 0
0.259151 0.24496 0
0.0740087 0.848134 0
-0.189229 0.744293 0
-0.208815 0.300226 0
0.427905 0.219171 0
0.198375 0.626911 0
-0.118295 0.783054 0
-0.353474 0.30645 0
-0.337429 -0.409312 0
-0.0346512 -0.776924 0
0.344118 -0.505465 0
0.450425 0.172143 0
0.145242 0.697707 0
-0.299045 0.635036 0
-0.418438 0.269134 0
0.573284 0.143173 0
0.304068 0.452069 0
-0.154936 0.592297 0
-0.503529 0.259491 0
-0.476565 -0.270299 0
-0.0505315 -0.562278 0
0.460668 -0.391797 0
0.602182 0.0872375 0
0.207821 0.481002 0
-0.380065 0.463558 0
-0.591509 0.211576 0
0.658264 0.0535746 0
0.378711 0.23307 0
-0.171802 0.340302 0
-0.599456 0.180317 0
-0.571121 -0.110533 0
-0.0683591 -0.292296 0
0.529195 -0.233786 0
0.699061 0.000338382 0
0.254726 0.220044 0
-0.424612 0.246553 0
-0.710951 0.133097 0
0.674919 -0.0405298 0
0.41457 -0.00801322 0
-0.168453 0.0518502 0
-0.632415 0.075729 0
-0.610768 0.0530652 0
-0.084495 0.00620379 0
0.543982 -0.0460984 0
0.730974 -0.0789972 0
0.280203 -0.0593368 0
-0.428641 0.0049241 0
-0.764833 0.0412146 0
0.622272 -0.129528 0
0.407774 -0.246677 0
-0.146632 -0.244083 0
-0.599945 -0.0441176 0
-0.590537 0.203849 0
-0.0952396 0.303607 0
0.50473 0.153055 0
0.694111 -0.142775 0
0.280398 -0.330101 0
-0.392061 -0.238307 0
-0.747469 -0.0553358 0
0.506442 -0.204264 0
0.358766 -0.458454 0
-0.109995 -0.517247 0
-0.506187 -0.166716 0
-0.511417 0.327127 0
-0.0973812 0.570461 0
0.416478 0.343737 0
0.59133 -0.185331 0
0.253813 -0.566623 0
-0.318674 -0.460239 0
-0.659905 -0.147459 0
0.340066 -0.256974 0
0.272319 -0.621425 0
-0.0636589 -0.73924 0
-0.361435 -0.278551 0
-0.380366 0.41157 0
-0.0886925 0.780405 0
0.288987 0.506319 0
0.431899 -0.203777 0
0.201527 -0.747077 0
-0.215736 -0.640273 0
-0.509755 -0.226572 0
0.141053 -0.282105 0
0.157099 -0.718507 0
-0.0135996 -0.886533 0
-0.181064 -0.366632 0
-0.209696 0.450222 0
-0.0683065 0.912788 0
0.135684 0.623547 0
0.230619 -0.198083 0
0.12715 -0.855378 0
-0.0932093 -0.762021 0
-0.310403 -0.285418 0
-0 -0 0
0.0705263 -0.564211 0
0.0191875 -0.999816 0
-0.0503059 -0.674119 0
-0.0824111 0.186393 0
-0.0490344 0.908313 0
0.0267013 0.890839 0
0.0827987 0.121644 0
0.0687107 -0.759236 0
-0.00649054 -0.982155 0
-0.119524 -0.478096 0
