# vtk DataFile Version 3.0
tp3485 scalar+vector
ASCII
DATASET UNSTRUCTURED_GRID
POINTS 231 double
0 0 0
0.1 0 0
0.2 0 0
0.3 0 0
0.4 0 0
0.5 0 0
0.6 0 0
0.7 0 0
0.8 0 0
0.9 0 0
1 0 0
0 0.025 0
0.1 0.025 0
0.2 0.025 0
0.3 0.025 0
0.4 0.025 0
0.5 0.025 0
0.6 0.025 0
0.7 0.025 0
0.8 0.025 0
0.9 0.025 0
1 0.025 0
0 0.05 0
0.1 0.05 0
0.2 0.05 0
0.3 0.05 0
0.4 0.05 0
0.5 0.05 0
0.6 0.05 0
0.7 0.05 0
0.8 0.05 0
0.9 0.05 0
1 0.05 0
0 0.075 0
0.1 0.075 0
0.2 0.075 0
0.3 0.075 0
0.4 0.075 0
0.5 0.075 0
0.6 0.075 0
0.7 0.075 0
0.8 0.075 0
0.9 0.075 0
1 0.075 0
0 0.1 0
0.1 0.1 0
0.2 0.1 0
0.3 0.1 0
0.4 0.1 0
0.5 0.1 0
0.6 0.1 0
0.7 0.1 0
0.8 0.1 0
0.9 0.1 0
1 0.1 0
0 0.125 0
0.1 0.125 0
0.2 0.125 0
0.3 0.125 0
0.4 0.125 0
0.5 0.125 0
0.6 0.125 0
0.7 0.125 0
0.8 0.125 0
0.9 0.125 0
1 0.125 0
0 0.15 0
0.1 0.15 0
0.2 0.15 0
0.3 0.15 0
0.4 0.15 0
0.5 0.15 0
0.6 0.15 0
0.7 0.15 0
0.8 0.15 0
0.9 0.15 0
1 0.15 0
0 0.175 0
0.1 0.175 0
0.2 0.175 0
0.3 0.175 0
0.4 0.175 0
0.5 0.175 0
0.6 0.175 0
0.7 0.175 0
0.8 0.175 0
0.9 0.175 0
1 0.175 0
0 0.2 0
0.1 0.2 0
0.2 0.2 0
0.3 0.2 0
0.4 0.2 0
0.5 0.2 0
0.6 0.2 0
0.7 0.2 0
0.8 0.2 0
0.9 0.2 0
1 0.2 0
0 0.225 0
0.1 0.225 0
0.2 0.225 0
0.3 0.225 0
0.4 0.225 0
0.5 0.225 0
0.6 0.225 0
0.7 0.225 0
0.8 0.225 0
0.9 0.225 0
1 0.225 0
0 0.25 0
0.1 0.25 0
0.2 0.25 0
0.3 0.25 0
0.4 0.25 0
0.5 0.25 0
0.6 0.25 0
0.7 0.25 0
0.8 0.25 0
0.9 0.25 0
1 0.25 0
0 0.275 0
0.1 0.275 0
0.2 0.275 0
0.3 0.275 0
0.4 0.275 0
0.5 0.275 0
0.6 0.275 0
0.7 0.275 0
0.8 0.275 0
0.9 0.275 0
1 0.275 0
0 0.3 0
0.1 0.3 0
0.2 0.3 0
0.3 0.3 0
0.4 0.3 0
0.5 0.3 0
0.6 0.3 0
0.7 0.3 0
0.8 0.3 0
0.9 0.3 0
1 0.3 0
0 0.325 0
0.1 0.325 0
0.2 0.325 0
0.3 0.325 0
0.4 0.325 0
0.5 0.325 0
0.6 0.325 0
0.7 0.325 0
0.8 0.325 0
0.9 0.325 0
1 0.325 0
0 0.35 0
0.1 0.35 0
0.2 0.35 0
0.3 0.35 0
0.4 0.35 0
0.5 0.35 0
0.6 0.35 0
0.7 0.35 0
0.8 0.35 0
0.9 0.35 0
1 0.35 0
0 0.375 0
0.1 0.375 0
0.2 0.375 0
0.3 0.375 0
0.4 0.375 0
0.5 0.375 0
0.6 0.375 0
0.7 0.375 0
0.8 0.375 0
0.9 0.375 0
1 0.375 0
0 0.4 0
0.1 0.4 0
0.2 0.4 0
0.3 0.4 0
0.4 0.4 0
0.5 0.4 0
0.6 0.4 0
0.7 0.4 0
0.8 0.4 0
0.9 0.4 0
1 0.4 0
0 0.425 0
0.1 0.425 0
0.2 0.425 0
0.3 0.425 0
0.4 0.425 0
0.5 0.425 0
0.6 0.425 0
0.7 0.425 0
0.8 0.425 0
0.9 0.425 0
1 0.425 0
0 0.45 0
0.1 0.45 0
0.2 0.45 0
0.3 0.45 0
0.4 0.45 0
0.5 0.45 0
0.6 0.45 0
0.7 0.45 0
0.8 0.45 0
0.9 0.45 0
1 0.45 0
0 0.475 0
0.1 0.475 0
0.2 0.475 0
0.3 0.475 0
0.4 0.475 0
0.5 0.475 0
0.6 0.475 0
0.7 0.475 0
0.8 0.475 0
0.9 0.475 0
1 0.475 0
0 0.5 0
0.1 0.5 0
0.2 0.5 0
0.3 0.5 0
0.4 0.5 0
0.5 0.5 0
0.6 0.5 0
0.7 0.5 0
0.8 0.5 0
0.9 0.5 0
1 0.5 0
CELLS 400 1600
3 0 1 12
3 0 12 11
3 1 2 13
3 1 13 12
3 2 3 14
3 2 14 13
3 3 4 15
3 3 15 14
3 4 5 16
3 4 16 15
3 5 6 17
3 5 17 16
3 6 7 18
3 6 18 17
3 7 8 19
3 7 19 18
3 8 9 20
3 8 20 19
3 9 10 21
3 9 21 20
3 11 12 23
3 11 23 22
3 12 13 24
3 12 24 23
3 13 14 25
3 13 25 24
3 14 15 26
3 14 26 25
3 15 16 27
3 15 27 26
3 16 17 28
3 16 28 27
3 17 18 29
3 17 29 28
3 18 19 30
3 18 30 29
3 19 20 31
3 19 31 30
3 20 21 32
3 20 32 31
3 22 23 34
3 22 34 33
3 23 24 35
3 23 35 34
3 24 25 36
3 24 36 35
3 25 26 37
3 25 37 36
3 26 27 38
3 26 38 37
3 27 28 39
3 27 39 38
3 28 29 40
3 28 40 39
3 29 30 41
3 29 41 40
3 30 31 42
3 30 42 41
3 31 32 43
3 31 43 42
3 33 34 45
3 33 45 44
3 34 35 46
3 34 46 45
3 35 36 47
3 35 47 46
3 36 37 48
3 36 48 47
3 37 38 49
3 37 49 48
3 38 39 50
3 38 50 49
3 39 40 51
3 39 51 50
3 40 41 52
3 40 52 51
3 41 42 53
3 41 53 52
3 42 43 54
3 42 54 53
3 44 45 56
3 44 56 55
3 45 46 57
3 45 57 56
3 46 47 58
3 46 58 57
3 47 48 59
3 47 59 58
3 48 49 60
3 48 60 59
3 49 50 61
3 49 61 60
3 50 51 62
3 50 62 61
3 51 52 63
3 51 63 62
3 52 53 64
3 52 64 63
3 53 54 65
3 53 65 64
3 55 56 67
3 55 67 66
3 56 57 68
3 56 68 67
3 57 58 69
3 57 69 68
3 58 59 70
3 58 70 69
3 59 60 71
3 59 71 70
3 60 61 72
3 60 72 71
3 61 62 73
3 61 73 72
3 62 63 74
3 62 74 73
3 63 64 75
3 63 75 74
3 64 65 76
3 64 76 75
3 66 67 78
3 66 78 77
3 67 68 79
3 67 79 78
3 68 69 80
3 68 80 79
3 69 70 81
3 69 81 80
3 70 71 82
3 70 82 81
3 71 72 83
3 71 83 82
3 72 73 84
3 72 84 83
3 73 74 85
3 73 85 84
3 74 75 86
3 74 86 85
3 75 76 87
3 75 87 86
3 77 78 89
3 77 89 88
3 78 79 90
3 78 90 89
3 79 80 91
3 79 91 90
3 80 81 92
3 80 92 91
3 81 82 93
3 81 93 92
3 82 83 94
3 82 94 93
3 83 84 95
3 83 95 94
3 84 85 96
3 84 96 95
3 85 86 97
3 85 97 96
3 86 87 98
3 86 98 97
3 88 89 100
3 88 100 99
3 89 90 101
3 89 101 100
3 90 91 102
3 90 102 101
3 91 92 103
3 91 103 102
3 92 93 104
3 92 104 103
3 93 94 105
3 93 105 104
3 94 95 106
3 94 106 105
3 95 96 107
3 95 107 106
3 96 97 108
3 96 108 107
3 97 98 109
3 97 109 108
3 99 100 111
3 99 111 110
3 100 101 112
3 100 112 111
3 101 102 113
3 101 113 112
3 102 103 114
3 102 114 113
3 103 104 115
3 103 115 114
3 104 105 116
3 104 116 115
3 105 106 117
3 105 117 116
3 106 107 118
3 106 118 117
3 107 108 119
3 107 119 118
3 108 109 120
3 108 120 119
3 110 111 122
3 110 122 121
3 111 112 123
3 111 123 122
3 112 113 124
3 112 124 123
3 113 114 125
3 113 125 124
3 114 115 126
3 114 126 125
3 115 116 127
3 115 127 126
3 116 117 128
3 116 128 127
3 117 118 129
3 117 129 128
3 118 119 130
3 118 130 129
3 119 120 131
3 119 131 130
3 121 122 133
3 121 133 132
3 122 123 134
3 122 134 133
3 123 124 135
3 123 135 134
3 124 125 136
3 124 136 135
3 125 126 137
3 125 137 136
3 126 127 138
3 126 138 137
3 127 128 139
3 127 139 138
3 128 129 140
3 128 140 139
3 129 130 141
3 129 141 140
3 130 131 142
3 130 142 141
3 132 133 144
3 132 144 143
3 133 134 145
3 133 145 144
3 134 135 146
3 134 146 145
3 135 136 147
3 135 147 146
3 136 137 148
3 136 148 147
3 137 138 149
3 137 149 148
3 138 139 150
3 138 150 149
3 139 140 151
3 139 151 150
3 140 141 152
3 140 152 151
3 141 142 153
3 141 153 152
3 143 144 155
3 143 155 154
3 144 145 156
3 144 156 155
3 145 146 157
3 145 157 156
3 146 147 158
3 146 158 157
3 147 148 159
3 147 159 158
3 148 149 160
3 148 160 159
3 149 150 161
3 149 161 160
3 150 151 162
3 150 162 161
3 151 152 163
3 151 163 162
3 152 153 164
3 152 164 163
3 154 155 166
3 154 166 165
3 155 156 167
3 155 167 166
3 156 157 168
3 156 168 167
3 157 158 169
3 157 169 168
3 158 159 170
3 158 170 169
3 159 160 171
3 159 171 170
3 160 161 172
3 160 172 171
3 161 162 173
3 161 173 172
3 162 163 174
3 162 174 173
3 163 164 175
3 163 175 174
3 165 166 177
3 165 177 176
3 166 167 178
3 166 178 177
3 167 168 179
3 167 179 178
3 168 169 180
3 168 180 179
3 169 170 181
3 169 181 180
3 170 171 182
3 170 182 181
3 171 172 183
3 171 183 182
3 172 173 184
3 172 184 183
3 173 174 185
3 173 185 184
3 174 175 186
3 174 186 185
3 176 177 188
3 176 188 187
3 177 178 189
3 177 189 188
3 178 179 190
3 178 190 189
3 179 180 191
3 179 191 190
3 180 181 192
3 180 192 191
3 181 182 193
3 181 193 192
3 182 183 194
3 182 194 193
3 183 184 195
3 183 195 194
3 184 185 196
3 184 196 195
3 185 186 197
3 185 197 196
3 187 188 199
3 187 199 198
3 188 189 200
3 188 200 199
3 189 190 201
3 189 201 200
3 190 191 202
3 190 202 201
3 191 192 203
3 191 203 202
3 192 193 204
3 192 204 203
3 193 194 205
3 193 205 204
3 194 195 206
3 194 206 205
3 195 196 207
3 195 207 206
3 196 197 208
3 196 208 207
3 198 199 210
3 198 210 209
3 199 200 211
3 199 211 210
3 200 201 212
3 200 212 211
3 201 202 213
3 201 213 212
3 202 203 214
3 202 214 213
3 203 204 215
3 203 215 214
3 204 205 216
3 204 216 215
3 205 206 217
3 205 217 216
3 206 207 218
3 206 218 217
3 207 208 219
3 207 219 218
3 209 210 221
3 209 221 220
3 210 211 222
3 210 222 221
3 211 212 223
3 211 223 222
3 212 213 224
3 212 224 223
3 213 214 225
3 213 225 224
3 214 215 226
3 214 226 225
3 215 216 227
3 215 227 226
3 216 217 228
3 216 228 227
3 217 218 229
3 217 229 228
3 218 219 230
3 218 230 229
CELL_TYPES 400
5
5
5
5
5
5
5
5
5
5
5
5
5
5
5
5
5
5
5
5
5
5
5
5
5
5
5
5
5
5
5
5
5
5
5
5
5
5
5
5
5
5
5
5
5
5
5
5
5
5
5
5
5
5
5
5
5
5
5
5
5
5
5
5
5
5
5
5
5
5
5
5
5
5
5
5
5
5
5
5
5
5
5
5
5
5
5
5
5
5
5
5
5
5
5
5
5
5
5
5
5
5
5
5
5
5
5
5
5
5
5
5
5
5
5
5
5
5
5
5
5
5
5
5
5
5
5
5
5
5
5
5
5
5
5
5
5
5
5
5
5
5
5
5
5
5
5
5
5
5
5
5
5
5
5
5
5
5
5
5
5
5
5
5
5
5
5
5
5
5
5
5
5
5
5
5
5
5
5
5
5
5
5
5
5
5
5
5
5
5
5
5
5
5
5
5
5
5
5
5
5
5
5
5
5
5
5
5
5
5
5
5
5
5
5
5
5
5
5
5
5
5
5
5
5
5
5
5
5
5
5
5
5
5
5
5
5
5
5
5
5
5
5
5
5
5
5
5
5
5
5
5
5
5
5
5
5
5
5
5
5
5
5
5
5
5
5
5
5
5
5
5
5
5
5
5
5
5
5
5
5
5
5
5
5
5
5
5
5
5
5
5
5
5
5
5
5
5
5
5
5
5
5
5
5
5
5
5
5
5
5
5
5
5
5
5
5
5
5
5
5
5
5
5
5
5
5
5
5
5
5
5
5
5
5
5
5
5
5
5
5
5
5
5
5
5
5
5
5
5
5
5
5
5
5
5
5
5
5
5
5
5
5
5
5
5
5
5
5
5
5
5
5
5
5
5
5
5
5
5
5
5
5
5
5
5
5
5
5
5
5
5
5
5
5
5
5
5
5
5
POINT_DATA 231
SCALARS psi double 1
LOOKUP_TABLE default
0
0
0
0
0
0
0
0
0
0
0
0
-0.0976706
0.0349431
0.100922
-0.0736798
-0.142537
0.072112
0.174496
-0.055659
-0.20498
0
0
-0.196983
0.0650348
0.205031
-0.137079
-0.283991
0.133626
0.345347
-0.100217
-0.400627
0
0
-0.298402
0.08899
0.312731
-0.185057
-0.42034
0.18039
0.506356
-0.130587
-0.577695
0
0
-0.401714
0.105529
0.423339
-0.21376
-0.547594
0.209254
0.651506
-0.145126
-0.728717
0
0
-0.505915
0.113489
0.534875
-0.221055
-0.662014
0.218334
0.775307
-0.143777
-0.848368
0
0
-0.609121
0.111989
0.644054
-0.206761
-0.760277
0.207202
0.873152
-0.128001
-0.933629
0
0
-0.708538
0.10062
0.74648
-0.172682
-0.839599
0.177001
0.941661
-0.100528
-0.983747
0
0
-0.800501
0.0796477
0.836999
-0.122406
-0.897804
0.13043
0.978968
-0.0649738
-1
0
0
-0.880601
0.0501685
0.910197
-0.0609358
-0.933341
0.0716122
0.984886
-0.025391
-0.985337
0
0
-0.943915
0.014192
0.960937
0.0058191
-0.945288
0.0058191
0.960937
0.014192
-0.943915
0
0
-0.985337
-0.025391
0.984886
0.0716122
-0.933341
-0.0609358
0.910197
0.0501685
-0.880601
0
0
-1
-0.0649738
0.978968
0.13043
-0.897804
-0.122406
0.836999
0.0796477
-0.800501
0
0
-0.983747
-0.100528
0.941661
0.177001
-0.839599
-0.172682
0.74648
0.10062
-0.708538
0
0
-0.933629
-0.128001
0.873152
0.207202
-0.760277
-0.206761
0.644054
0.111989
-0.609121
0
0
-0.848368
-0.143777
0.775307
0.218334
-0.662014
-0.221055
0.534875
0.113489
-0.505915
0
0
-0.728717
-0.145126
0.651506
0.209254
-0.547594
-0.21376
0.423339
0.105529
-0.401714
0
0
-0.577695
-0.130587
0.506356
0.18039
-0.42034
-0.185057
0.312731
0.08899
-0.298402
0
0
-0.400627
-0.100217
0.345347
0.133626
-0.283991
-0.137079
0.205031
0.0650348
-0.196983
0
0
-0.20498
-0.055659
0.174496
0.072112
-0.142537
-0.0736798
0.100922
0.0349431
-0.0976706
0
0
0
0
0
0
0
0
0
0
0
0
VECTORS Et double
0.0487158 0.194863 0
-0.0440964 0.213341 0
-0.0219391 -0.227187 0
0.0580581 -0.170467 0
0.0228961 0.385582 0
-0.0713745 0.283254 0
-0.0340444 -0.42392 0
0.0765305 -0.390153 0
0.049652 0.420699 0
-0.0681595 0.545276 0
-0 -0 0
0.130455 0.132093 0
-0.055182 0.24199 0
-0.089311 -0.0907825 0
0.0929977 -0.253781 0
0.10538 0.20928 0
-0.117911 0.385819 0
-0.140619 -0.196562 0
0.116565 -0.47766 0
0.176128 0.147362 0
-0.0851154 0.569878 0
-0.136319 0.272638 0
0.230225 0.134893 0
-0.0697938 0.251055 0
-0.192924 -0.0774644 0
0.138998 -0.269827 0
0.230755 0.169579 0
-0.178442 0.38056 0
-0.299148 -0.157021 0
0.166632 -0.462109 0
0.360651 0.103793 0
-0.104545 0.52537 0
-0.334591 0.260224 0
0.332024 0.137412 0
-0.081174 0.261307 0
-0.299614 -0.0599709 0
0.173773 -0.287207 0
0.35614 0.114996 0
-0.222925 0.363321 0
-0.451103 -0.106446 0
0.200652 -0.428644 0
0.531572 0.05309 0
-0.114632 0.456579 0
-0.517403 0.235513 0
0.435379 0.138594 0
-0.0884595 0.270713 0
-0.408811 -0.0380541 0
0.19465 -0.301614 0
0.478927 0.0504148 0
-0.247908 0.334495 0
-0.5912 -0.0481718 0
0.216449 -0.377818 0
0.68199 0.000585822 0
-0.11497 0.369682 0
-0.676716 0.200869 0
0.538994 0.137272 0
-0.0908394 0.276864 0
-0.518875 -0.0119032 0
0.199858 -0.308366 0
0.595937 -0.0181364 0
-0.251453 0.295136 0
-0.714487 0.0137525 0
0.21333 -0.311334 0
0.80629 -0.0484071 0
-0.106005 0.271651 0
-0.806505 0.159144 0
0.640688 0.132232 0
-0.0876551 0.277065 0
-0.627064 0.017636 0
0.188749 -0.303116 0
0.703525 -0.0841952 0
-0.233355 0.246781 0
-0.81664 0.0747628 0
0.192132 -0.23213 0
0.900435 -0.089265 0
-0.0889748 0.169572 0
-0.902993 0.113404 0
0.737384 0.122317 0
-0.0785187 0.268497 0
-0.729626 0.0489329 0
0.161927 -0.282505 0
0.797771 -0.141607 0
-0.195202 0.191228 0
-0.894229 0.130055 0
0.155128 -0.144302 0
0.962138 -0.118583 0
-0.0657432 0.0700067 0
-0.964674 0.0666595 0
0.825177 0.106538 0
-0.0634321 0.24846 0
-0.822015 0.0795833 0
0.121266 -0.244689 0
0.874716 -0.185195 0
-0.140274 0.130363 0
-0.944918 0.174946 0
0.105811 -0.0528455 0
0.990914 -0.134498 0
-0.038583 -0.0215289 0
-0.992148 0.021618 0
0.899499 0.0842115 0
-0.0428851 0.214675 0
-0.899209 0.106586 0
0.0698244 -0.189635 0
0.930648 -0.211282 0
-0.0732878 0.0660329 0
-0.967594 0.205302 0
0.048583 0.0367742 0
0.987992 -0.13678 0
-0.00992073 -0.100921 0
-0.987801 -0.0195024 0
0.955378 0.0550952 0
-0.0179109 0.165631 0
-0.956112 0.126678 0
0.0116366 -0.119171 0
0.962395 -0.217987 0
-1.71202e-14 -7.69197e-15 0
-0.962395 0.217987 0
-0.0116366 0.119171 0
0.956112 -0.126678 0
0.0179109 -0.165631 0
-0.955378 -0.0550952 0
0.987801 0.0195024 0
0.00992073 0.100921 0
-0.987992 0.13678 0
-0.048583 -0.0367742 0
0.967594 -0.205302 0
0.0732878 -0.0660329 0
-0.930648 0.211282 0
-0.0698244 0.189635 0
0.899209 -0.106586 0
0.0428851 -0.214675 0
-0.899499 -0.0842115 0
0.992148 -0.021618 0
0.038583 0.0215289 0
-0.990914 0.134498 0
-0.105811 0.0528455 0
0.944918 -0.174946 0
0.140274 -0.130363 0
-0.874716 0.185195 0
-0.121266 0.244689 0
0.822015 -0.0795833 0
0.0634321 -0.24846 0
-0.825177 -0.106538 0
0.964674 -0.0666595 0
0.0657432 -0.0700067 0
-0.962138 0.118583 0
-0.155128 0.144302 0
0.894229 -0.130055 0
0.195202 -0.191228 0
-0.797771 0.141607 0
-0.161927 0.282505 0
0.729626 -0.0489329 0
0.0785187 -0.268497 0
-0.737384 -0.122317 0
0.902993 -0.113404 0
0.0889748 -0.169572 0
-0.900435 0.089265 0
-0.192132 0.23213 0
0.81664 -0.0747628 0
0.233355 -0.246781 0
-0.703525 0.0841952 0
-0.188749 0.303116 0
0.627064 -0.017636 0
0.0876551 -0.277065 0
-0.640688 -0.132232 0
0.806505 -0.159144 0
0.106005 -0.271651 0
-0.80629 0.0484071 0
-0.21333 0.311334 0
0.714487 -0.0137525 0
0.251453 -0.295136 0
-0.595937 0.0181364 0
-0.199858 0.308366 0
0.518875 0.0119032 0
0.0908394 -0.276864 0
-0.538994 -0.137272 0
0.676716 -0.200869 0
0.11497 -0.369682 0
-0.68199 -0.000585822 0
-0.216449 0.377818 0
0.5912 0.0481718 0
0.247908 -0.334495 0
-0.478927 -0.0504148 0
-0.19465 0.301614 0
0.408811 0.0380541 0
0.0884595 -0.270713 0
-0.435379 -0.138594 0
0.517403 -0.235513 0
0.114632 -0.456579 0
-0.531572 -0.05309 0
-0.200652 0.428644 0
0.451103 0.106446 0
0.222925 -0.363321 0
-0.35614 -0.114996 0
-0.173773 0.287207 0
0.299614 0.0599709 0
0.081174 -0.261307 0
-0.332024 -0.137412 0
0.334591 -0.260224 0
0.104545 -0.52537 0
-0.360651 -0.103793 0
-0.166632 0.462109 0
0.299148 0.157021 0
0.178442 -0.38056 0
-0.230755 -0.169579 0
-0.138998 0.269827 0
0.192924 0.0774644 0
0.0697938 -0.251055 0
-0.230225 -0.134893 0
0.136319 -0.272638 0
0.0851154 -0.569878 0
-0.176128 -0.147362 0
-0.116565 0.47766 0
0.140619 0.196562 0
0.117911 -0.385819 0
-0.10538 -0.20928 0
-0.0929977 0.253781 0
0.089311 0.0907825 0
0.055182 -0.24199 0
-0.130455 -0.132093 0
-0 -0 0
0.0681595 -0.545276 0
-0.049652 -0.420699 0
-0.0765305 0.390153 0
0.0340444 0.42392 0
0.0713745 -0.283254 0
-0.0228961 -0.385582 0
-0.0580581 0.170467 0
0.0219391 0.227187 0
0.0440964 -0.213341 0
-0.0487158 -0.194863 0
