# vtk DataFile Version 3.0
tp3485 cell-vector
ASCII
DATASET UNSTRUCTURED_GRID
POINTS 231 double
0 0 0
0.1 0 0
0.2 0 0
0.3 0 0
0.4 0 0
0.5 0 0
0.6 0 0
0.7 0 0
0.8 0 0
0.9 0 0
1 0 0
0 0.025 0
0.1 0.025 0
0.2 0.025 0
0.3 0.025 0
0.4 0.025 0
0.5 0.025 0
0.6 0.025 0
0.7 0.025 0
0.8 0.025 0
0.9 0.025 0
1 0.025 0
0 0.05 0
0.1 0.05 0
0.2 0.05 0
0.3 0.05 0
0.4 0.05 0
0.5 0.05 0
0.6 0.05 0
0.7 0.05 0
0.8 0.05 0
0.9 0.05 0
1 0.05 0
0 0.075 0
0.1 0.075 0
0.2 0.075 0
0.3 0.075 0
0.4 0.075 0
0.5 0.075 0
0.6 0.075 0
0.7 0.075 0
0.8 0.075 0
0.9 0.075 0
1 0.075 0
0 0.1 0
0.1 0.1 0
0.2 0.1 0
0.3 0.1 0
0.4 0.1 0
0.5 0.1 0
0.6 0.1 0
0.7 0.1 0
0.8 0.1 0
0.9 0.1 0
1 0.1 0
0 0.125 0
0.1 0.125 0
0.2 0.125 0
0.3 0.125 0
0.4 0.125 0
0.5 0.125 0
0.6 0.125 0
0.7 0.125 0
0.8 0.125 0
0.9 0.125 0
1 0.125 0
0 0.15 0
0.1 0.15 0
0.2 0.15 0
0.3 0.15 0
0.4 0.15 0
0.5 0.15 0
0.6 0.15 0
0.7 0.15 0
0.8 0.15 0
0.9 0.15 0
1 0.15 0
0 0.175 0
0.1 0.175 0
0.2 0.175 0
0.3 0.175 0
0.4 0.175 0
0.5 0.175 0
0.6 0.175 0
0.7 0.175 0
0.8 0.175 0
0.9 0.175 0
1 0.175 0
0 0.2 0
0.1 0.2 0
0.2 0.2 0
0.3 0.2 0
0.4 0.2 0
0.5 0.2 0
0.6 0.2 0
0.7 0.2 0
0.8 0.2 0
0.9 0.2 0
1 0.2 0
0 0.225 0
0.1 0.225 0
0.2 0.225 0
0.3 0.225 0
0.4 0.225 0
0.5 0.225 0
0.6 0.225 0
0.7 0.225 0
0.8 0.225 0
0.9 0.225 0
1 0.225 0
0 0.25 0
0.1 0.25 0
0.2 0.25 0
0.3 0.25 0
0.4 0.25 0
0.5 0.25 0
0.6 0.25 0
0.7 0.25 0
0.8 0.25 0
0.9 0.25 0
1 0.25 0
0 0.275 0
0.1 0.275 0
0.2 0.275 0
0.3 0.275 0
0.4 0.275 0
0.5 0.275 0
0.6 0.275 0
0.7 0.275 0
0.8 0.275 0
0.9 0.275 0
1 0.275 0
0 0.3 0
0.1 0.3 0
0.2 0.3 0
0.3 0.3 0
0.4 0.3 0
0.5 0.3 0
0.6 0.3 0
0.7 0.3 0
0.8 0.3 0
0.9 0.3 0
1 0.3 0
0 0.325 0
0.1 0.325 0
0.2 0.325 0
0.3 0.325 0
0.4 0.325 0
0.5 0.325 0
0.6 0.325 0
0.7 0.325 0
0.8 0.325 0
0.9 0.325 0
1 0.325 0
0 0.35 0
0.1 0.35 0
0.2 0.35 0
0.3 0.35 0
0.4 0.35 0
0.5 0.35 0
0.6 0.35 0
0.7 0.35 0
0.8 0.35 0
0.9 0.35 0
1 0.35 0
0 0.375 0
0.1 0.375 0
0.2 0.375 0
0.3 0.375 0
0.4 0.375 0
0.5 0.375 0
0.6 0.375 0
0.7 0.375 0
0.8 0.375 0
0.9 0.375 0
1 0.375 0
0 0.4 0
0.1 0.4 0
0.2 0.4 0
0.3 0.4 0
0.4 0.4 0
0.5 0.4 0
0.6 0.4 0
0.7 0.4 0
0.8 0.4 0
0.9 0.4 0
1 0.4 0
0 0.425 0
0.1 0.425 0
0.2 0.425 0
0.3 0.425 0
0.4 0.425 0
0.5 0.425 0
0.6 0.425 0
0.7 0.425 0
0.8 0.425 0
0.9 0.425 0
1 0.425 0
0 0.45 0
0.1 0.45 0
0.2 0.45 0
0.3 0.45 0
0.4 0.45 0
0.5 0.45 0
0.6 0.45 0
0.7 0.45 0
0.8 0.45 0
0.9 0.45 0
1 0.45 0
0 0.475 0
0.1 0.475 0
0.2 0.475 0
0.3 0.475 0
0.4 0.475 0
0.5 0.475 0
0.6 0.475 0
0.7 0.475 0
0.8 0.475 0
0.9 0.475 0
1 0.475 0
0 0.5 0
0.1 0.5 0
0.2 0.5 0
0.3 0.5 0
0.4 0.5 0
0.5 0.5 0
0.6 0.5 0
0.7 0.5 0
0.8 0.5 0
0.9 0.5 0
1 0.5 0
CELLS 400 1600
3 0 1 12
3 0 12 11
3 1 2 13
3 1 13 12
3 2 3 14
3 2 14 13
3 3 4 15
3 3 15 14
3 4 5 16
3 4 16 15
3 5 6 17
3 5 17 16
3 6 7 18
3 6 18 17
3 7 8 19
3 7 19 18
3 8 9 20
3 8 20 19
3 9 10 21
3 9 21 20
3 11 12 23
3 11 23 22
3 12 13 24
3 12 24 23
3 13 14 25
3 13 25 24
3 14 15 26
3 14 26 25
3 15 16 27
3 15 27 26
3 16 17 28
3 16 28 27
3 17 18 29
3 17 29 28
3 18 19 30
3 18 30 29
3 19 20 31
3 19 31 30
3 20 21 32
3 20 32 31
3 22 23 34
3 22 34 33
3 23 24 35
3 23 35 34
3 24 25 36
3 24 36 35
3 25 26 37
3 25 37 36
3 26 27 38
3 26 38 37
3 27 28 39
3 27 39 38
3 28 29 40
3 28 40 39
3 29 30 41
3 29 41 40
3 30 31 42
3 30 42 41
3 31 32 43
3 31 43 42
3 33 34 45
3 33 45 44
3 34 35 46
3 34 46 45
3 35 36 47
3 35 47 46
3 36 37 48
3 36 48 47
3 37 38 49
3 37 49 48
3 38 39 50
3 38 50 49
3 39 40 51
3 39 51 50
3 40 41 52
3 40 52 51
3 41 42 53
3 41 53 52
3 42 43 54
3 42 54 53
3 44 45 56
3 44 56 55
3 45 46 57
3 45 57 56
3 46 47 58
3 46 58 57
3 47 48 59
3 47 59 58
3 48 49 60
3 48 60 59
3 49 50 61
3 49 61 60
3 50 51 62
3 50 62 61
3 51 52 63
3 51 63 62
3 52 53 64
3 52 64 63
3 53 54 65
3 53 65 64
3 55 56 67
3 55 67 66
3 56 57 68
3 56 68 67
3 57 58 69
3 57 69 68
3 58 59 70
3 58 70 69
3 59 60 71
3 59 71 70
3 60 61 72
3 60 72 71
3 61 62 73
3 61 73 72
3 62 63 74
3 62 74 73
3 63 64 75
3 63 75 74
3 64 65 76
3 64 76 75
3 66 67 78
3 66 78 77
3 67 68 79
3 67 79 78
3 68 69 80
3 68 80 79
3 69 70 81
3 69 81 80
3 70 71 82
3 70 82 81
3 71 72 83
3 71 83 82
3 72 73 84
3 72 84 83
3 73 74 85
3 73 85 84
3 74 75 86
3 74 86 85
3 75 76 87
3 75 87 86
3 77 78 89
3 77 89 88
3 78 79 90
3 78 90 89
3 79 80 91
3 79 91 90
3 80 81 92
3 80 92 91
3 81 82 93
3 81 93 92
3 82 83 94
3 82 94 93
3 83 84 95
3 83 95 94
3 84 85 96
3 84 96 95
3 85 86 97
3 85 97 96
3 86 87 98
3 86 98 97
3 88 89 100
3 88 100 99
3 89 90 101
3 89 101 100
3 90 91 102
3 90 102 101
3 91 92 103
3 91 103 102
3 92 93 104
3 92 104 103
3 93 94 105
3 93 105 104
3 94 95 106
3 94 106 105
3 95 96 107
3 95 107 106
3 96 97 108
3 96 108 107
3 97 98 109
3 97 109 108
3 99 100 111
3 99 111 110
3 100 101 112
3 100 112 111
3 101 102 113
3 101 113 112
3 102 103 114
3 102 114 113
3 103 104 115
3 103 115 114
3 104 105 116
3 104 116 115
3 105 106 117
3 105 117 116
3 106 107 118
3 106 118 117
3 107 108 119
3 107 119 118
3 108 109 120
3 108 120 119
3 110 111 122
3 110 122 121
3 111 112 123
3 111 123 122
3 112 113 124
3 112 124 123
3 113 114 125
3 113 125 124
3 114 115 126
3 114 126 125
3 115 116 127
3 115 127 126
3 116 117 128
3 116 128 127
3 117 118 129
3 117 129 128
3 118 119 130
3 118 130 129
3 119 120 131
3 119 131 130
3 121 122 133
3 121 133 132
3 122 123 134
3 122 134 133
3 123 124 135
3 123 135 134
3 124 125 136
3 124 136 135
3 125 126 137
3 125 137 136
3 126 127 138
3 126 138 137
3 127 128 139
3 127 139 138
3 128 129 140
3 128 140 139
3 129 130 141
3 129 141 140
3 130 131 142
3 130 142 141
3 132 133 144
3 132 144 143
3 133 134 145
3 133 145 144
3 134 135 146
3 134 146 145
3 135 136 147
3 135 147 146
3 136 137 148
3 136 148 147
3 137 138 149
3 137 149 148
3 138 139 150
3 138 150 149
3 139 140 151
3 139 151 150
3 140 141 152
3 140 152 151
3 141 142 153
3 141 153 152
3 143 144 155
3 143 155 154
3 144 145 156
3 144 156 155
3 145 146 157
3 145 157 156
3 146 147 158
3 146 158 157
3 147 148 159
3 147 159 158
3 148 149 160
3 148 160 159
3 149 150 161
3 149 161 160
3 150 151 162
3 150 162 161
3 151 152 163
3 151 163 162
3 152 153 164
3 152 164 163
3 154 155 166
3 154 166 165
3 155 156 167
3 155 167 166
3 156 157 168
3 156 168 167
3 157 158 169
3 157 169 168
3 158 159 170
3 158 170 169
3 159 160 171
3 159 171 170
3 160 161 172
3 160 172 171
3 161 162 173
3 161 173 172
3 162 163 174
3 162 174 173
3 163 164 175
3 163 175 174
3 165 166 177
3 165 177 176
3 166 167 178
3 166 178 177
3 167 168 179
3 167 179 178
3 168 169 180
3 168 180 179
3 169 170 181
3 169 181 180
3 170 171 182
3 170 182 181
3 171 172 183
3 171 183 182
3 172 173 184
3 172 184 183
3 173 174 185
3 173 185 184
3 174 175 186
3 174 186 185
3 176 177 188
3 176 188 187
3 177 178 189
3 177 189 188
3 178 179 190
3 178 190 189
3 179 180 191
3 179 191 190
3 180 181 192
3 180 192 191
3 181 182 193
3 181 193 192
3 182 183 194
3 182 194 193
3 183 184 195
3 183 195 194
3 184 185 196
3 184 196 195
3 185 186 197
3 185 197 196
3 187 188 199
3 187 199 198
3 188 189 200
3 188 200 199
3 189 190 201
3 189 201 200
3 190 191 202
3 190 202 201
3 191 192 203
3 191 203 202
3 192 193 204
3 192 204 203
3 193 194 205
3 193 205 204
3 194 195 206
3 194 206 205
3 195 196 207
3 195 207 206
3 196 197 208
3 196 208 207
3 198 199 210
3 198 210 209
3 199 200 211
3 199 211 210
3 200 201 212
3 200 212 211
3 201 202 213
3 201 213 212
3 202 203 214
3 202 214 213
3 203 204 215
3 203 215 214
3 204 205 216
3 204 216 215
3 205 206 217
3 205 217 216
3 206 207 218
3 206 218 217
3 207 208 219
3 207 219 218
3 209 210 221
3 209 221 220
3 210 211 222
3 210 222 221
3 211 212 223
3 211 223 222
3 212 213 224
3 212 224 223
3 213 214 225
3 213 225 224
3 214 215 226
3 214 226 225
3 215 216 227
3 215 227 226
3 216 217 228
3 216 228 227
3 217 218 229
3 217 229 228
3 218 219 230
3 218 230 229
CELL_TYPES 400
5
5
5
5
5
5
5
5
5
5
5
5
5
5
5
5
5
5
5
5
5
5
5
5
5
5
5
5
5
5
5
5
5
5
5
5
5
5
5
5
5
5
5
5
5
5
5
5
5
5
5
5
5
5
5
5
5
5
5
5
5
5
5
5
5
5
5
5
5
5
5
5
5
5
5
5
5
5
5
5
5
5
5
5
5
5
5
5
5
5
5
5
5
5
5
5
5
5
5
5
5
5
5
5
5
5
5
5
5
5
5
5
5
5
5
5
5
5
5
5
5
5
5
5
5
5
5
5
5
5
5
5
5
5
5
5
5
5
5
5
5
5
5
5
5
5
5
5
5
5
5
5
5
5
5
5
5
5
5
5
5
5
5
5
5
5
5
5
5
5
5
5
5
5
5
5
5
5
5
5
5
5
5
5
5
5
5
5
5
5
5
5
5
5
5
5
5
5
5
5
5
5
5
5
5
5
5
5
5
5
5
5
5
5
5
5
5
5
5
5
5
5
5
5
5
5
5
5
5
5
5
5
5
5
5
5
5
5
5
5
5
5
5
5
5
5
5
5
5
5
5
5
5
5
5
5
5
5
5
5
5
5
5
5
5
5
5
5
5
5
5
5
5
5
5
5
5
5
5
5
5
5
5
5
5
5
5
5
5
5
5
5
5
5
5
5
5
5
5
5
5
5
5
5
5
5
5
5
5
5
5
5
5
5
5
5
5
5
5
5
5
5
5
5
5
5
5
5
5
5
5
5
5
5
5
5
5
5
5
5
5
5
5
5
5
5
5
5
5
5
5
5
5
5
5
5
5
5
5
5
5
5
5
5
5
5
5
5
5
5
5
5
5
5
5
5
5
5
5
5
5
5
5
5
5
5
5
5
5
5
5
5
5
5
5
5
5
5
5
5
CELL_DATA 400
VECTORS Ht double
-0.316078 0.0908626 0
-0.306501 0.0790194 0
-0.818298 0.0632872 0
-0.794048 0.0346924 0
-0.999933 0.0115417 0
-0.971752 -0.0178783 0
-0.793884 -0.0442075 0
-0.772696 -0.0630541 0
-0.283101 -0.0824327 0
-0.277034 -0.0834882 0
0.332747 -0.0890594 0
0.321335 -0.0715293 0
0.818568 -0.0622584 0
0.79398 -0.0323959 0
0.993456 -0.0123725 0
0.965017 0.0185362 0
0.79465 0.0416893 0
0.773042 0.0620741 0
0.300098 0.0750244 0
0.292141 0.0819488 0
-0.291402 0.256415 0
-0.265373 0.228495 0
-0.759191 0.181516 0
-0.691365 0.107974 0
-0.930821 0.0369862 0
-0.848925 -0.0487733 0
-0.741547 -0.120559 0
-0.677257 -0.185581 0
-0.267611 -0.230225 0
-0.245609 -0.249536 0
0.305557 -0.251609 0
0.276737 -0.216621 0
0.759127 -0.178557 0
0.690348 -0.1014 0
0.924314 -0.0392636 0
0.841696 0.0507785 0
0.741792 0.113808 0
0.676486 0.182589 0
0.281926 0.218541 0
0.25709 0.245022 0
-0.239048 0.396817 0
-0.198947 0.354601 0
-0.626566 0.282515 0
-0.521794 0.17095 0
-0.770994 0.0594378 0
-0.643367 -0.0742753 0
-0.616396 -0.184617 0
-0.515148 -0.289599 0
-0.225167 -0.355191 0
-0.189149 -0.391197 0
0.249188 -0.389511 0
0.206014 -0.34083 0
0.625543 -0.277718 0
0.519454 -0.16099 0
0.76424 -0.0629085 0
0.635562 0.0774283 0
0.615517 0.174542 0
0.512911 0.284718 0
0.235346 0.34165 0
0.196221 0.38418 0
-0.164028 0.498419 0
-0.11365 0.445344 0
-0.433443 0.356332 0
-0.301947 0.217413 0
-0.53603 0.0765002 0
-0.375128 -0.0920529 0
-0.430433 -0.230335 0
-0.302016 -0.365115 0
-0.159561 -0.445181 0
-0.112862 -0.494697 0
0.169521 -0.489158 0
0.116413 -0.431901 0
0.431142 -0.34984 0
0.298253 -0.205108 0
0.52897 -0.0808342 0
0.366867 0.0960664 0
0.428145 0.217976 0
0.298314 0.358512 0
0.165017 0.431959 0
0.115558 0.485701 0
-0.0735849 0.551385 0
-0.0177594 0.492153 0
-0.198704 0.395656 0
-0.0533076 0.242801 0
-0.248847 0.0862597 0
-0.0703873 -0.100545 0
-0.20166 -0.253501 0
-0.0585624 -0.40495 0
-0.0769442 -0.491496 0
-0.0240012 -0.549999 0
0.07463 -0.540693 0
0.016922 -0.480799 0
0.19516 -0.387647 0
0.0485663 -0.229165 0
0.241623 -0.0911113 0
0.062001 0.105104 0
0.198037 0.239864 0
0.0537386 0.396824 0
0.0779136 0.480327 0
0.0230625 0.539532 0
0.0235211 0.55064 0
0.0794118 0.490712 0
0.0547392 0.396536 0
0.199857 0.244628 0
0.0625332 0.0874924 0
0.241098 -0.0991042 0
0.0476566 -0.252138 0
0.191459 -0.405419 0
0.014749 -0.48973 0
0.0688122 -0.551775 0
-0.0260396 -0.538974 0
-0.0826364 -0.482598 0
-0.0591617 -0.38722 0
-0.205071 -0.230516 0
-0.0695738 -0.0925559 0
-0.24911 0.103921 0
-0.0522154 0.238062 0
-0.1968 0.395995 0
-0.0173522 0.481755 0
-0.0721435 0.540288 0
0.117876 0.496362 0
0.16843 0.44139 0
0.302177 0.358782 0
0.432864 0.22272 0
0.367706 0.0798074 0
0.528895 -0.088043 0
0.293157 -0.226667 0
0.423564 -0.366687 0
0.106557 -0.440189 0
0.156429 -0.499934 0
-0.122613 -0.484082 0
-0.172574 -0.436985 0
-0.306868 -0.348389 0
-0.437827 -0.208734 0
-0.374069 -0.0848566 0
-0.535941 0.0929007 0
-0.298012 0.212737 0
-0.428676 0.356204 0
-0.111368 0.435877 0
-0.160666 0.487787 0
0.200338 0.393951 0
0.240664 0.349199 0
0.519511 0.285992 0
0.623022 0.179229 0
0.636859 0.0637075 0
0.764866 -0.0685976 0
0.510764 -0.179848 0
0.614931 -0.292731 0
0.189363 -0.347849 0
0.230068 -0.399619 0
-0.205757 -0.381322 0
-0.244284 -0.348294 0
-0.523741 -0.274771 0
-0.627002 -0.165685 0
-0.641982 -0.0686161 0
-0.770364 0.0733715 0
-0.515165 0.16636 0
-0.619068 0.281443 0
-0.19484 0.347001 0
-0.233759 0.38708 0
0.262927 0.2535 0
0.28913 0.223301 0
0.685604 0.185209 0
0.751846 0.118421 0
0.843682 0.0405613 0
0.925929 -0.0427948 0
0.679043 -0.116487 0
0.746649 -0.190942 0
0.254803 -0.221858 0
0.282195 -0.260704 0
-0.267589 -0.2407 0
-0.291067 -0.225099 0
-0.68867 -0.173423 0
-0.754244 -0.105358 0
-0.847037 -0.0453016 0
-0.929405 0.0474557 0
-0.682279 0.103465 0
-0.749204 0.179115 0
-0.259504 0.223685 0
-0.28418 0.247955 0
0.299615 0.0888071 0
0.309177 0.0761146 0
0.78434 0.0662396 0
0.806867 0.0462538 0
0.967945 0.012487 0
0.996318 -0.013247 0
0.781319 -0.0429444 0
0.805586 -0.0713907 0
0.296098 -0.0746288 0
0.307289 -0.0968281 0
-0.302421 -0.0759454 0
-0.308759 -0.0793833 0
-0.785702 -0.0541618 0
-0.807326 -0.0334981 0
-0.969135 -0.0171088 0
-0.997485 0.0178428 0
-0.782844 0.0302033 0
-0.806204 0.0592992 0
-0.298935 0.077906 0
-0.306905 0.083983 0
0.306905 -0.083983 0
0.298935 -0.077906 0
0.806204 -0.0592992 0
0.782844 -0.0302033 0
0.997485 -0.0178428 0
0.969135 0.0171088 0
0.807326 0.0334981 0
0.785702 0.0541618 0
0.308759 0.0793833 0
0.302421 0.0759454 0
-0.307289 0.0968281 0
-0.296098 0.0746288 0
-0.805586 0.0713907 0
-0.781319 0.0429444 0
-0.996318 0.013247 0
-0.967945 -0.012487 0
-0.806867 -0.0462538 0
-0.78434 -0.0662396 0
-0.309177 -0.0761146 0
-0.299615 -0.0888071 0
0.28418 -0.247955 0
0.259504 -0.223685 0
0.749204 -0.179115 0
0.682279 -0.103465 0
0.929405 -0.0474557 0
0.847037 0.0453016 0
0.754244 0.105358 0
0.68867 0.173423 0
0.291067 0.225099 0
0.267589 0.2407 0
-0.282195 0.260704 0
-0.254803 0.221858 0
-0.746649 0.190942 0
-0.679043 0.116487 0
-0.925929 0.0427948 0
-0.843682 -0.0405613 0
-0.751846 -0.118421 0
-0.685604 -0.185209 0
-0.28913 -0.223301 0
-0.262927 -0.2535 0
0.233759 -0.38708 0
0.19484 -0.347001 0
0.619068 -0.281443 0
0.515165 -0.16636 0
0.770364 -0.0733715 0
0.641982 0.0686161 0
0.627002 0.165685 0
0.523741 0.274771 0
0.244284 0.348294 0
0.205757 0.381322 0
-0.230068 0.399619 0
-0.189363 0.347849 0
-0.614931 0.292731 0
-0.510764 0.179848 0
-0.764866 0.0685976 0
-0.636859 -0.0637075 0
-0.623022 -0.179229 0
-0.519511 -0.285992 0
-0.240664 -0.349199 0
-0.200338 -0.393951 0
0.160666 -0.487787 0
0.111368 -0.435877 0
0.428676 -0.356204 0
0.298012 -0.212737 0
0.535941 -0.0929007 0
0.374069 0.0848566 0
0.437827 0.208734 0
0.306868 0.348389 0
0.172574 0.436985 0
0.122613 0.484082 0
-0.156429 0.499934 0
-0.106557 0.440189 0
-0.423564 0.366687 0
-0.293157 0.226667 0
-0.528895 0.088043 0
-0.367706 -0.0798074 0
-0.432864 -0.22272 0
-0.302177 -0.358782 0
-0.16843 -0.44139 0
-0.117876 -0.496362 0
0.0721435 -0.540288 0
0.0173522 -0.481755 0
0.1968 -0.395995 0
0.0522154 -0.238062 0
0.24911 -0.103921 0
0.0695738 0.0925559 0
0.205071 0.230516 0
0.0591617 0.38722 0
0.0826364 0.482598 0
0.0260396 0.538974 0
-0.0688122 0.551775 0
-0.014749 0.48973 0
-0.191459 0.405419 0
-0.0476566 0.252138 0
-0.241098 0.0991042 0
-0.0625332 -0.0874924 0
-0.199857 -0.244628 0
-0.0547392 -0.396536 0
-0.0794118 -0.490712 0
-0.0235211 -0.55064 0
-0.0230625 -0.539532 0
-0.0779136 -0.480327 0
-0.0537386 -0.396824 0
-0.198037 -0.239864 0
-0.062001 -0.105104 0
-0.241623 0.0911113 0
-0.0485663 0.229165 0
-0.19516 0.387647 0
-0.016922 0.480799 0
-0.07463 0.540693 0
0.0240012 0.549999 0
0.0769442 0.491496 0
0.0585624 0.40495 0
0.20166 0.253501 0
0.0703873 0.100545 0
0.248847 -0.0862597 0
0.0533076 -0.242801 0
0.198704 -0.395656 0
0.0177594 -0.492153 0
0.0735849 -0.551385 0
-0.115558 -0.485701 0
-0.165017 -0.431959 0
-0.298314 -0.358512 0
-0.428145 -0.217976 0
-0.366867 -0.0960664 0
-0.52897 0.0808342 0
-0.298253 0.205108 0
-0.431142 0.34984 0
-0.116413 0.431901 0
-0.169521 0.489158 0
0.112862 0.494697 0
0.159561 0.445181 0
0.302016 0.365115 0
0.430433 0.230335 0
0.375128 0.0920529 0
0.53603 -0.0765002 0
0.301947 -0.217413 0
0.433443 -0.356332 0
0.11365 -0.445344 0
0.164028 -0.498419 0
-0.196221 -0.38418 0
-0.235346 -0.34165 0
-0.512911 -0.284718 0
-0.615517 -0.174542 0
-0.635562 -0.0774283 0
-0.76424 0.0629085 0
-0.519454 0.16099 0
-0.625543 0.277718 0
-0.206014 0.34083 0
-0.249188 0.389511 0
0.189149 0.391197 0
0.225167 0.355191 0
0.515148 0.289599 0
0.616396 0.184617 0
0.643367 0.0742753 0
0.770994 -0.0594378 0
0.521794 -0.17095 0
0.626566 -0.282515 0
0.198947 -0.354601 0
0.239048 -0.396817 0
-0.25709 -0.245022 0
-0.281926 -0.218541 0
-0.676486 -0.182589 0
-0.741792 -0.113808 0
-0.841696 -0.0507785 0
-0.924314 0.0392636 0
-0.690348 0.1014 0
-0.759127 0.178557 0
-0.276737 0.216621 0
-0.305557 0.251609 0
0.245609 0.249536 0
0.267611 0.230225 0
0.677257 0.185581 0
0.741547 0.120559 0
0.848925 0.0487733 0
0.930821 -0.0369862 0
0.691365 -0.107974 0
0.759191 -0.181516 0
0.265373 -0.228495 0
0.291402 -0.256415 0
-0.292141 -0.0819488 0
-0.300098 -0.0750244 0
-0.773042 -0.0620741 0
-0.79465 -0.0416893 0
-0.965017 -0.0185362 0
-0.993456 0.0123725 0
-0.79398 0.0323959 0
-0.818568 0.0622584 0
-0.321335 0.0715293 0
-0.332747 0.0890594 0
0.277034 0.0834882 0
0.283101 0.0824327 0
0.772696 0.0630541 0
0.793884 0.0442075 0
0.971752 0.0178783 0
0.999933 -0.0115417 0
0.794048 -0.0346924 0
0.818298 -0.0632872 0
0.306501 -0.0790194 0
0.316078 -0.0908626 0
