# vtk DataFile Version 3.0
tp3485 cell-vector
ASCII
DATASET UNSTRUCTURED_GRID
POINTS 231 double
0 0 0
0.1 0 0
0.2 0 0
0.3 0 0
0.4 0 0
0.5 0 0
0.6 0 0
0.7 0 0
0.8 0 0
0.9 0 0
1 0 0
0 0.025 0
0.1 0.025 0
0.2 0.025 0
0.3 0.025 0
0.4 0.025 0
0.5 0.025 0
0.6 0.025 0
0.7 0.025 0
0.8 0.025 0
0.9 0.025 0
1 0.025 0
0 0.05 0
0.1 0.05 0
0.2 0.05 0
0.3 0.05 0
0.4 0.05 0
0.5 0.05 0
0.6 0.05 0
0.7 0.05 0
0.8 0.05 0
0.9 0.05 0
1 0.05 0
0 0.075 0
0.1 0.075 0
0.2 0.075 0
0.3 0.075 0
0.4 0.075 0
0.5 0.075 0
0.6 0.075 0
0.7 0.075 0
0.8 0.075 0
0.9 0.075 0
1 0.075 0
0 0.1 0
0.1 0.1 0
0.2 0.1 0
0.3 0.1 0
0.4 0.1 0
0.5 0.1 0
0.6 0.1 0
0.7 0.1 0
0.8 0.1 0
0.9 0.1 0
1 0.1 0
0 0.125 0
0.1 0.125 0
0.2 0.125 0
0.3 0.125 0
0.4 0.125 0
0.5 0.125 0
0.6 0.125 0
0.7 0.125 0
0.8 0.125 0
0.9 0.125 0
1 0.125 0
0 0.15 0
0.1 0.15 0
0.2 0.15 0
0.3 0.15 0
0.4 0.15 0
0.5 0.15 0
0.6 0.15 0
0.7 0.15 0
0.8 0.15 0
0.9 0.15 0
1 0.15 0
0 0.175 0
0.1 0.175 0
0.2 0.175 0
0.3 0.175 0
0.4 0.175 0
0.5 0.175 0
0.6 0.175 0
0.7 0.175 0
0.8 0.175 0
0.9 0.175 0
1 0.175 0
0 0.2 0
0.1 0.2 0
0.2 0.2 0
0.3 0.2 0
0.4 0.2 0
0.5 0.2 0
0.6 0.2 0
0.7 0.2 0
0.8 0.2 0
0.9 0.2 0
1 0.2 0
0 0.225 0
0.1 0.225 0
0.2 0.225 0
0.3 0.225 0
0.4 0.225 0
0.5 0.225 0
0.6 0.225 0
0.7 0.225 0
0.8 0.225 0
0.9 0.225 0
1 0.225 0
0 0.25 0
0.1 0.25 0
0.2 0.25 0
0.3 0.25 0
0.4 0.25 0
0.5 0.25 0
0.6 0.25 0
0.7 0.25 0
0.8 0.25 0
0.9 0.25 0
1 0.25 0
0 0.275 0
0.1 0.275 0
0.2 0.275 0
0.3 0.275 0
0.4 0.275 0
0.5 0.275 0
0.6 0.275 0
0.7 0.275 0
0.8 0.275 0
0.9 0.275 0
1 0.275 0
0 0.3 0
0.1 0.3 0
0.2 0.3 0
0.3 0.3 0
0.4 0.3 0
0.5 0.3 0
0.6 0.3 0
0.7 0.3 0
0.8 0.3 0
0.9 0.3 0
1 0.3 0
0 0.325 0
0.1 0.325 0
0.2 0.325 0
0.3 0.325 0
0.4 0.325 0
0.5 0.325 0
0.6 0.325 0
0.7 0.325 0
0.8 0.325 0
0.9 0.325 0
1 0.325 0
0 0.35 0
0.1 0.35 0
0.2 0.35 0
0.3 0.35 0
0.4 0.35 0
0.5 0.35 0
0.6 0.35 0
0.7 0.35 0
0.8 0.35 0
0.9 0.35 0
1 0.35 0
0 0.375 0
0.1 0.375 0
0.2 0.375 0
0.3 0.375 0
0.4 0.375 0
0.5 0.375 0
0.6 0.375 0
0.7 0.375 0
0.8 0.375 0
0.9 0.375 0
1 0.375 0
0 0.4 0
0.1 0.4 0
0.2 0.4 0
0.3 0.4 0
0.4 0.4 0
0.5 0.4 0
0.6 0.4 0
0.7 0.4 0
0.8 0.4 0
0.9 0.4 0
1 0.4 0
0 0.425 0
0.1 0.425 0
0.2 0.425 0
0.3 0.425 0
0.4 0.425 0
0.5 0.425 0
0.6 0.425 0
0.7 0.425 0
0.8 0.425 0
0.9 0.425 0
1 0.425 0
0 0.45 0
0.1 0.45 0
0.2 0.45 0
0.3 0.45 0
0.4 0.45 0
0.5 0.45 0
0.6 0.45 0
0.7 0.45 0
0.8 0.45 0
0.9 0.45 0
1 0.45 0
0 0.475 0
0.1 0.475 0
0.2 0.475 0
0.3 0.475 0
0.4 0.475 0
0.5 0.475 0
0.6 0.475 0
0.7 0.475 0
0.8 0.475 0
0.9 0.475 0
1 0.475 0
0 0.5 0
0.1 0.5 0
0.2 0.5 0
0.3 0.5 0
0.4 0.5 0
0.5 0.5 0
0.6 0.5 0
0.7 0.5 0
0.8 0.5 0
0.9 0.5 0
1 0.5 0
CELLS 400 1600
3 0 1 12
3 0 12 11
3 1 2 13
3 1 13 12
3 2 3 14
3 2 14 13
3 3 4 15
3 3 15 14
3 4 5 16
3 4 16 15
3 5 6 17
3 5 17 16
3 6 7 18
3 6 18 17
3 7 8 19
3 7 19 18
3 8 9 20
3 8 20 19
3 9 10 21
3 9 21 20
3 11 12 23
3 11 23 22
3 12 13 24
3 12 24 23
3 13 14 25
3 13 25 24
3 14 15 26
3 14 26 25
3 15 16 27
3 15 27 26
3 16 17 28
3 16 28 27
3 17 18 29
3 17 29 28
3 18 19 30
3 18 30 29
3 19 20 31
3 19 31 30
3 20 21 32
3 20 32 31
3 22 23 34
3 22 34 33
3 23 24 35
3 23 35 34
3 24 25 36
3 24 36 35
3 25 26 37
3 25 37 36
3 26 27 38
3 26 38 37
3 27 28 39
3 27 39 38
3 28 29 40
3 28 40 39
3 29 30 41
3 29 41 40
3 30 31 42
3 30 42 41
3 31 32 43
3 31 43 42
3 33 34 45
3 33 45 44
3 34 35 46
3 34 46 45
3 35 36 47
3 35 47 46
3 36 37 48
3 36 48 47
3 37 38 49
3 37 49 48
3 38 39 50
3 38 50 49
3 39 40 51
3 39 51 50
3 40 41 52
3 40 52 51
3 41 42 53
3 41 53 52
3 42 43 54
3 42 54 53
3 44 45 56
3 44 56 55
3 45 46 57
3 45 57 56
3 46 47 58
3 46 58 57
3 47 48 59
3 47 59 58
3 48 49 60
3 48 60 59
3 49 50 61
3 49 61 60
3 50 51 62
3 50 62 61
3 51 52 63
3 51 63 62
3 52 53 64
3 52 64 63
3 53 54 65
3 53 65 64
3 55 56 67
3 55 67 66
3 56 57 68
3 56 68 67
3 57 58 69
3 57 69 68
3 58 59 70
3 58 70 69
3 59 60 71
3 59 71 70
3 60 61 72
3 60 72 71
3 61 62 73
3 61 73 72
3 62 63 74
3 62 74 73
3 63 64 75
3 63 75 74
3 64 65 76
3 64 76 75
3 66 67 78
3 66 78 77
3 67 68 79
3 67 79 78
3 68 69 80
3 68 80 79
3 69 70 81
3 69 81 80
3 70 71 82
3 70 82 81
3 71 72 83
3 71 83 82
3 72 73 84
3 72 84 83
3 73 74 85
3 73 85 84
3 74 75 86
3 74 86 85
3 75 76 87
3 75 87 86
3 77 78 89
3 77 89 88
3 78 79 90
3 78 90 89
3 79 80 91
3 79 91 90
3 80 81 92
3 80 92 91
3 81 82 93
3 81 93 92
3 82 83 94
3 82 94 93
3 83 84 95
3 83 95 94
3 84 85 96
3 84 96 95
3 85 86 97
3 85 97 96
3 86 87 98
3 86 98 97
3 88 89 100
3 88 100 99
3 89 90 101
3 89 101 100
3 90 91 102
3 90 102 101
3 91 92 103
3 91 103 102
3 92 93 104
3 92 104 103
3 93 94 105
3 93 105 104
3 94 95 106
3 94 106 105
3 95 96 107
3 95 107 106
3 96 97 108
3 96 108 107
3 97 98 109
3 97 109 108
3 99 100 111
3 99 111 110
3 100 101 112
3 100 112 111
3 101 102 113
3 101 113 112
3 102 103 114
3 102 114 113
3 103 104 115
3 103 115 114
3 104 105 116
3 104 116 115
3 105 106 117
3 105 117 116
3 106 107 118
3 106 118 117
3 107 108 119
3 107 119 118
3 108 109 120
3 108 120 119
3 110 111 122
3 110 122 121
3 111 112 123
3 111 123 122
3 112 113 124
3 112 124 123
3 113 114 125
3 113 125 124
3 114 115 126
3 114 126 125
3 115 116 127
3 115 127 126
3 116 117 128
3 116 128 127
3 117 118 129
3 117 129 128
3 118 119 130
3 118 130 129
3 119 120 131
3 119 131 130
3 121 122 133
3 121 133 132
3 122 123 134
3 122 134 133
3 123 124 135
3 123 135 134
3 124 125 136
3 124 136 135
3 125 126 137
3 125 137 136
3 126 127 138
3 126 138 137
3 127 128 139
3 127 139 138
3 128 129 140
3 128 140 139
3 129 130 141
3 129 141 140
3 130 131 142
3 130 142 141
3 132 133 144
3 132 144 143
3 133 134 145
3 133 145 144
3 134 135 146
3 134 146 145
3 135 136 147
3 135 147 146
3 136 137 148
3 136 148 147
3 137 138 149
3 137 149 148
3 138 139 150
3 138 150 149
3 139 140 151
3 139 151 150
3 140 141 152
3 140 152 151
3 141 142 153
3 141 153 152
3 143 144 155
3 143 155 154
3 144 145 156
3 144 156 155
3 145 146 157
3 145 157 156
3 146 147 158
3 146 158 157
3 147 148 159
3 147 159 158
3 148 149 160
3 148 160 159
3 149 150 161
3 149 161 160
3 150 151 162
3 150 162 161
3 151 152 163
3 151 163 162
3 152 153 164
3 152 164 163
3 154 155 166
3 154 166 165
3 155 156 167
3 155 167 166
3 156 157 168
3 156 168 167
3 157 158 169
3 157 169 168
3 158 159 170
3 158 170 169
3 159 160 171
3 159 171 170
3 160 161 172
3 160 172 171
3 161 162 173
3 161 173 172
3 162 163 174
3 162 174 173
3 163 164 175
3 163 175 174
3 165 166 177
3 165 177 176
3 166 167 178
3 166 178 177
3 167 168 179
3 167 179 178
3 168 169 180
3 168 180 179
3 169 170 181
3 169 181 180
3 170 171 182
3 170 182 181
3 171 172 183
3 171 183 182
3 172 173 184
3 172 184 183
3 173 174 185
3 173 185 184
3 174 175 186
3 174 186 185
3 176 177 188
3 176 188 187
3 177 178 189
3 177 189 188
3 178 179 190
3 178 190 189
3 179 180 191
3 179 191 190
3 180 181 192
3 180 192 191
3 181 182 193
3 181 193 192
3 182 183 194
3 182 194 193
3 183 184 195
3 183 195 194
3 184 185 196
3 184 196 195
3 185 186 197
3 185 197 196
3 187 188 199
3 187 199 198
3 188 189 200
3 188 200 199
3 189 190 201
3 189 201 200
3 190 191 202
3 190 202 201
3 191 192 203
3 191 203 202
3 192 193 204
3 192 204 203
3 193 194 205
3 193 205 204
3 194 195 206
3 194 206 205
3 195 196 207
3 195 207 206
3 196 197 208
3 196 208 207
3 198 199 210
3 198 210 209
3 199 200 211
3 199 211 210
3 200 201 212
3 200 212 211
3 201 202 213
3 201 213 212
3 202 203 214
3 202 214 213
3 203 204 215
3 203 215 214
3 204 205 216
3 204 216 215
3 205 206 217
3 205 217 216
3 206 207 218
3 206 218 217
3 207 208 219
3 207 219 218
3 209 210 221
3 209 221 220
3 210 211 222
3 210 222 221
3 211 212 223
3 211 223 222
3 212 213 224
3 212 224 223
3 213 214 225
3 213 225 224
3 214 215 226
3 214 226 225
3 215 216 227
3 215 227 226
3 216 217 228
3 216 228 227
3 217 218 229
3 217 229 228
3 218 219 230
3 218 230 229
CELL_TYPES 400
5
5
5
5
5
5
5
5
5
5
5
5
5
5
5
5
5
5
5
5
5
5
5
5
5
5
5
5
5
5
5
5
5
5
5
5
5
5
5
5
5
5
5
5
5
5
5
5
5
5
5
5
5
5
5
5
5
5
5
5
5
5
5
5
5
5
5
5
5
5
5
5
5
5
5
5
5
5
5
5
5
5
5
5
5
5
5
5
5
5
5
5
5
5
5
5
5
5
5
5
5
5
5
5
5
5
5
5
5
5
5
5
5
5
5
5
5
5
5
5
5
5
5
5
5
5
5
5
5
5
5
5
5
5
5
5
5
5
5
5
5
5
5
5
5
5
5
5
5
5
5
5
5
5
5
5
5
5
5
5
5
5
5
5
5
5
5
5
5
5
5
5
5
5
5
5
5
5
5
5
5
5
5
5
5
5
5
5
5
5
5
5
5
5
5
5
5
5
5
5
5
5
5
5
5
5
5
5
5
5
5
5
5
5
5
5
5
5
5
5
5
5
5
5
5
5
5
5
5
5
5
5
5
5
5
5
5
5
5
5
5
5
5
5
5
5
5
5
5
5
5
5
5
5
5
5
5
5
5
5
5
5
5
5
5
5
5
5
5
5
5
5
5
5
5
5
5
5
5
5
5
5
5
5
5
5
5
5
5
5
5
5
5
5
5
5
5
5
5
5
5
5
5
5
5
5
5
5
5
5
5
5
5
5
5
5
5
5
5
5
5
5
5
5
5
5
5
5
5
5
5
5
5
5
5
5
5
5
5
5
5
5
5
5
5
5
5
5
5
5
5
5
5
5
5
5
5
5
5
5
5
5
5
5
5
5
5
5
5
5
5
5
5
5
5
5
5
5
5
5
5
5
5
5
5
5
5
5
5
5
5
5
5
5
5
5
5
5
5
5
CELL_DATA 400
VECTORS Et double
0.0349744 -0.846104 0
-0.0252485 -0.232657 0
-0.0601098 -0.191423 0
0.00306109 -0.835273 0
-0.0313822 0.885358 0
0.0335521 0.274554 0
0.0652796 0.175351 0
0.00775018 0.838737 0
0.0315882 -0.942783 0
-0.0334207 -0.321081 0
-0.070737 -0.195598 0
-0.0172309 -0.880853 0
-0.0355103 0.986054 0
0.0254399 0.343781 0
0.0733328 0.238126 0
0.0191573 0.938127 0
0.0404773 -0.99918 0
-0.0170073 -0.331269 0
-0.0728899 -0.29156 0
-0.0183512 -0.981182 0
0.0677918 -0.826971 0
0.0103295 -0.228809 0
-0.0935531 -0.196276 0
-0.0325996 -0.821147 0
-0.0544826 0.863002 0
0.00847249 0.262017 0
0.114516 0.182729 0
0.0586795 0.825294 0
0.0573364 -0.915484 0
-0.00571631 -0.303871 0
-0.133073 -0.201501 0
-0.0807201 -0.864598 0
-0.0742612 0.955271 0
-0.014798 0.324314 0
0.137839 0.240265 0
0.0847775 0.917456 0
0.0922486 -0.966703 0
0.0361748 -0.31297 0
-0.133886 -0.28223 0
-0.0785213 -0.95679 0
0.101562 -0.790757 0
0.0479072 -0.220009 0
-0.125544 -0.199229 0
-0.0687572 -0.789853 0
-0.0787251 0.820719 0
-0.019795 0.242997 0
0.160348 0.189967 0
0.107539 0.795257 0
0.0841208 -0.864004 0
0.024912 -0.275954 0
-0.190159 -0.205561 0
-0.139876 -0.828758 0
-0.112467 0.897553 0
-0.055901 0.29247 0
0.196711 0.236964 0
0.145721 0.872985 0
0.142211 -0.906841 0
0.0887173 -0.283893 0
-0.18741 -0.264682 0
-0.132591 -0.905573 0
0.135309 -0.737436 0
0.0864213 -0.206142 0
-0.15616 -0.199401 0
-0.105346 -0.74114 0
-0.104749 0.75917 0
-0.0517084 0.218076 0
0.201406 0.195751 0
0.152874 0.748434 0
0.112247 -0.789913 0
0.0586032 -0.23879 0
-0.239553 -0.206767 0
-0.192268 -0.773701 0
-0.149266 0.815043 0
-0.0969499 0.250111 0
0.247458 0.227752 0
0.199458 0.805908 0
0.188548 -0.822455 0
0.138619 -0.245703 0
-0.231813 -0.239954 0
-0.179137 -0.829541 0
0.167936 -0.667202 0
0.124738 -0.187247 0
-0.185349 -0.195789 0
-0.14205 -0.675111 0
-0.132829 0.679383 0
-0.0872628 0.187924 0
0.236471 0.198511 0
0.19337 0.68475 0
0.141696 -0.695481 0
0.0950995 -0.194289 0
-0.279253 -0.204011 0
-0.235926 -0.700178 0
-0.183763 0.710779 0
-0.136955 0.199653 0
0.288007 0.212369 0
0.243891 0.718128 0
0.229421 -0.717119 0
0.183893 -0.200463 0
-0.266186 -0.209266 0
-0.217377 -0.731536 0
0.198338 -0.580551 0
0.161751 -0.163523 0
-0.212813 -0.18737 0
-0.178204 -0.592277 0
-0.162763 0.582779 0
-0.125898 0.153296 0
0.264539 0.196588 0
0.227909 0.60437 0
0.172058 -0.583581 0
0.133698 -0.144679 0
-0.307839 -0.196193 0
-0.269452 -0.609348 0
-0.215043 0.58854 0
-0.174876 0.143893 0
0.316846 0.190827 0
0.277501 0.612184 0
0.263121 -0.59489 0
0.222739 -0.15049 0
-0.290301 -0.173926 0
-0.247078 -0.615093 0
0.225511 -0.478378 0
0.196452 -0.135313 0
-0.237929 -0.173217 0
-0.212773 -0.493602 0
-0.19381 0.471197 0
-0.166472 0.115037 0
0.284872 0.188408 0
0.255624 0.50783 0
0.202509 -0.457562 0
0.173246 -0.0923555 0
-0.324548 -0.182337 0
-0.292099 -0.502815 0
-0.242206 0.452652 0
-0.209645 0.0858074 0
0.333127 0.163443 0
0.29945 0.491144 0
0.28824 -0.46009 0
0.253717 -0.098194 0
-0.304477 -0.135248 0
-0.268415 -0.484259 0
0.248598 -0.362065 0
0.227945 -0.103091 0
-0.259751 -0.152617 0
-0.244384 -0.380522 0
-0.224697 0.346905 0
-0.207298 0.0740982 0
0.297028 0.172668 0
0.275923 0.396167 0
0.231836 -0.321116 0
0.212188 -0.0397225 0
-0.32931 -0.161715 0
-0.303775 -0.382638 0
-0.264377 0.30776 0
-0.240192 0.0283392 0
0.336735 0.130838 0
0.309631 0.358484 0
0.303823 -0.31711 0
0.275878 -0.0459277 0
-0.309417 -0.0944931 0
-0.281818 -0.343397 0
0.266907 -0.233551 0
0.255429 -0.0674418 0
-0.277069 -0.125173 0
-0.27144 -0.254959 0
-0.253702 0.212595 0
-0.246266 0.0315411 0
0.300872 0.1485 0
0.288498 0.271028 0
0.258507 -0.17813 0
0.248657 0.01097 0
-0.322713 -0.133954 0
-0.305007 -0.251328 0
-0.280746 0.158584 0
-0.265481 -0.0258101 0
0.32829 0.0938955 0
0.308661 0.217946 0
0.309466 -0.170235 0
0.288847 0.0041586 0
-0.306031 -0.0528337 0
-0.287832 -0.196973 0
0.279875 -0.0953703 0
0.27814 -0.0290434 0
-0.288533 -0.090891 0
-0.29228 -0.119321 0
-0.278787 0.0713555 0
-0.281003 -0.0114712 0
0.296569 0.115611 0
0.293316 0.134738 0
0.280783 -0.0325337 0
0.280599 0.0577661 0
-0.305932 -0.099117 0
-0.296855 -0.11183 0
-0.29059 0.00968619 0
-0.284552 -0.0743635 0
0.309093 0.0537028 0
0.297794 0.0733868 0
0.305364 -0.0235175 0
0.292827 0.0502367 0
-0.295293 -0.0113351 0
-0.287011 -0.0493561 0
0.287011 0.0493561 0
0.295293 0.0113351 0
-0.292827 -0.0502367 0
-0.305364 0.0235175 0
-0.297794 -0.0733868 0
-0.309093 -0.0537028 0
0.284552 0.0743635 0
0.29059 -0.00968619 0
0.296855 0.11183 0
0.305932 0.099117 0
-0.280599 -0.0577661 0
-0.280783 0.0325337 0
-0.293316 -0.134738 0
-0.296569 -0.115611 0
0.281003 0.0114712 0
0.278787 -0.0713555 0
0.29228 0.119321 0
0.288533 0.090891 0
-0.27814 0.0290434 0
-0.279875 0.0953703 0
0.287832 0.196973 0
0.306031 0.0528337 0
-0.288847 -0.0041586 0
-0.309466 0.170235 0
-0.308661 -0.217946 0
-0.32829 -0.0938955 0
0.265481 0.0258101 0
0.280746 -0.158584 0
0.305007 0.251328 0
0.322713 0.133954 0
-0.248657 -0.01097 0
-0.258507 0.17813 0
-0.288498 -0.271028 0
-0.300872 -0.1485 0
0.246266 -0.0315411 0
0.253702 -0.212595 0
0.27144 0.254959 0
0.277069 0.125173 0
-0.255429 0.0674418 0
-0.266907 0.233551 0
0.281818 0.343397 0
0.309417 0.0944931 0
-0.275878 0.0459277 0
-0.303823 0.31711 0
-0.309631 -0.358484 0
-0.336735 -0.130838 0
0.240192 -0.0283392 0
0.264377 -0.30776 0
0.303775 0.382638 0
0.32931 0.161715 0
-0.212188 0.0397225 0
-0.231836 0.321116 0
-0.275923 -0.396167 0
-0.297028 -0.172668 0
0.207298 -0.0740982 0
0.224697 -0.346905 0
0.244384 0.380522 0
0.259751 0.152617 0
-0.227945 0.103091 0
-0.248598 0.362065 0
0.268415 0.484259 0
0.304477 0.135248 0
-0.253717 0.098194 0
-0.28824 0.46009 0
-0.29945 -0.491144 0
-0.333127 -0.163443 0
0.209645 -0.0858074 0
0.242206 -0.452652 0
0.292099 0.502815 0
0.324548 0.182337 0
-0.173246 0.0923555 0
-0.202509 0.457562 0
-0.255624 -0.50783 0
-0.284872 -0.188408 0
0.166472 -0.115037 0
0.19381 -0.471197 0
0.212773 0.493602 0
0.237929 0.173217 0
-0.196452 0.135313 0
-0.225511 0.478378 0
0.247078 0.615093 0
0.290301 0.173926 0
-0.222739 0.15049 0
-0.263121 0.59489 0
-0.277501 -0.612184 0
-0.316846 -0.190827 0
0.174876 -0.143893 0
0.215043 -0.58854 0
0.269452 0.609348 0
0.307839 0.196193 0
-0.133698 0.144679 0
-0.172058 0.583581 0
-0.227909 -0.60437 0
-0.264539 -0.196588 0
0.125898 -0.153296 0
0.162763 -0.582779 0
0.178204 0.592277 0
0.212813 0.18737 0
-0.161751 0.163523 0
-0.198338 0.580551 0
0.217377 0.731536 0
0.266186 0.209266 0
-0.183893 0.200463 0
-0.229421 0.717119 0
-0.243891 -0.718128 0
-0.288007 -0.212369 0
0.136955 -0.199653 0
0.183763 -0.710779 0
0.235926 0.700178 0
0.279253 0.204011 0
-0.0950995 0.194289 0
-0.141696 0.695481 0
-0.19337 -0.68475 0
-0.236471 -0.198511 0
0.0872628 -0.187924 0
0.132829 -0.679383 0
0.14205 0.675111 0
0.185349 0.195789 0
-0.124738 0.187247 0
-0.167936 0.667202 0
0.179137 0.829541 0
0.231813 0.239954 0
-0.138619 0.245703 0
-0.188548 0.822455 0
-0.199458 -0.805908 0
-0.247458 -0.227752 0
0.0969499 -0.250111 0
0.149266 -0.815043 0
0.192268 0.773701 0
0.239553 0.206767 0
-0.0586032 0.23879 0
-0.112247 0.789913 0
-0.152874 -0.748434 0
-0.201406 -0.195751 0
0.0517084 -0.218076 0
0.104749 -0.75917 0
0.105346 0.74114 0
0.15616 0.199401 0
-0.0864213 0.206142 0
-0.135309 0.737436 0
0.132591 0.905573 0
0.18741 0.264682 0
-0.0887173 0.283893 0
-0.142211 0.906841 0
-0.145721 -0.872985 0
-0.196711 -0.236964 0
0.055901 -0.29247 0
0.112467 -0.897553 0
0.139876 0.828758 0
0.190159 0.205561 0
-0.024912 0.275954 0
-0.0841208 0.864004 0
-0.107539 -0.795257 0
-0.160348 -0.189967 0
0.019795 -0.242997 0
0.0787251 -0.820719 0
0.0687572 0.789853 0
0.125544 0.199229 0
-0.0479072 0.220009 0
-0.101562 0.790757 0
0.0785213 0.95679 0
0.133886 0.28223 0
-0.0361748 0.31297 0
-0.0922486 0.966703 0
-0.0847775 -0.917456 0
-0.137839 -0.240265 0
0.014798 -0.324314 0
0.0742612 -0.955271 0
0.0807201 0.864598 0
0.133073 0.201501 0
0.00571631 0.303871 0
-0.0573364 0.915484 0
-0.0586795 -0.825294 0
-0.114516 -0.182729 0
-0.00847249 -0.262017 0
0.0544826 -0.863002 0
0.0325996 0.821147 0
0.0935531 0.196276 0
-0.0103295 0.228809 0
-0.0677918 0.826971 0
0.0183512 0.981182 0
0.0728899 0.29156 0
0.0170073 0.331269 0
-0.0404773 0.99918 0
-0.0191573 -0.938127 0
-0.0733328 -0.238126 0
-0.0254399 -0.343781 0
0.0355103 -0.986054 0
0.0172309 0.880853 0
0.070737 0.195598 0
0.0334207 0.321081 0
-0.0315882 0.942783 0
-0.00775018 -0.838737 0
-0.0652796 -0.175351 0
-0.0335521 -0.274554 0
0.0313822 -0.885358 0
-0.00306109 0.835273 0
0.0601098 0.191423 0
0.0252485 0.232657 0
-0.0349744 0.846104 0
