# vtk DataFile Version 3.0
tp3485 cell-vector
ASCII
DATASET UNSTRUCTURED_GRID
POINTS 231 double
0 0 0
0.1 0 0
0.2 0 0
0.3 0 0
0.4 0 0
0.5 0 0
0.6 0 0
0.7 0 0
0.8 0 0
0.9 0 0
1 0 0
0 0.025 0
0.1 0.025 0
0.2 0.025 0
0.3 0.025 0
0.4 0.025 0
0.5 0.025 0
0.6 0.025 0
0.7 0.025 0
0.8 0.025 0
0.9 0.025 0
1 0.025 0
0 0.05 0
0.1 0.05 0
0.2 0.05 0
0.3 0.05 0
0.4 0.05 0
0.5 0.05 0
0.6 0.05 0
0.7 0.05 0
0.8 0.05 0
0.9 0.05 0
1 0.05 0
0 0.075 0
0.1 0.075 0
0.2 0.075 0
0.3 0.075 0
0.4 0.075 0
0.5 0.075 0
0.6 0.075 0
0.7 0.075 0
0.8 0.075 0
0.9 0.075 0
1 0.075 0
0 0.1 0
0.1 0.1 0
0.2 0.1 0
0.3 0.1 0
0.4 0.1 0
0.5 0.1 0
0.6 0.1 0
0.7 0.1 0
0.8 0.1 0
0.9 0.1 0
1 0.1 0
0 0.125 0
0.1 0.125 0
0.2 0.125 0
0.3 0.125 0
0.4 0.125 0
0.5 0.125 0
0.6 0.125 0
0.7 0.125 0
0.8 0.125 0
0.9 0.125 0
1 0.125 0
0 0.15 0
0.1 0.15 0
0.2 0.15 0
0.3 0.15 0
0.4 0.15 0
0.5 0.15 0
0.6 0.15 0
0.7 0.15 0
0.8 0.15 0
0.9 0.15 0
1 0.15 0
0 0.175 0
0.1 0.175 0
0.2 0.175 0
0.3 0.175 0
0.4 0.175 0
0.5 0.175 0
0.6 0.175 0
0.7 0.175 0
0.8 0.175 0
0.9 0.175 0
1 0.175 0
0 0.2 0
0.1 0.2 0
0.2 0.2 0
0.3 0.2 0
0.4 0.2 0
0.5 0.2 0
0.6 0.2 0
0.7 0.2 0
0.8 0.2 0
0.9 0.2 0
1 0.2 0
0 0.225 0
0.1 0.225 0
0.2 0.225 0
0.3 0.225 0
0.4 0.225 0
0.5 0.225 0
0.6 0.225 0
0.7 0.225 0
0.8 0.225 0
0.9 0.225 0
1 0.225 0
0 0.25 0
0.1 0.25 0
0.2 0.25 0
0.3 0.25 0
0.4 0.25 0
0.5 0.25 0
0.6 0.25 0
0.7 0.25 0
0.8 0.25 0
0.9 0.25 0
1 0.25 0
0 0.275 0
0.1 0.275 0
0.2 0.275 0
0.3 0.275 0
0.4 0.275 0
0.5 0.275 0
0.6 0.275 0
0.7 0.275 0
0.8 0.275 0
0.9 0.275 0
1 0.275 0
0 0.3 0
0.1 0.3 0
0.2 0.3 0
0.3 0.3 0
0.4 0.3 0
0.5 0.3 0
0.6 0.3 0
0.7 0.3 0
0.8 0.3 0
0.9 0.3 0
1 0.3 0
0 0.325 0
0.1 0.325 0
0.2 0.325 0
0.3 0.325 0
0.4 0.325 0
0.5 0.325 0
0.6 0.325 0
0.7 0.325 0
0.8 0.325 0
0.9 0.325 0
1 0.325 0
0 0.35 0
0.1 0.35 0
0.2 0.35 0
0.3 0.35 0
0.4 0.35 0
0.5 0.35 0
0.6 0.35 0
0.7 0.35 0
0.8 0.35 0
0.9 0.35 0
1 0.35 0
0 0.375 0
0.1 0.375 0
0.2 0.375 0
0.3 0.375 0
0.4 0.375 0
0.5 0.375 0
0.6 0.375 0
0.7 0.375 0
0.8 0.375 0
0.9 0.375 0
1 0.375 0
0 0.4 0
0.1 0.4 0
0.2 0.4 0
0.3 0.4 0
0.4 0.4 0
0.5 0.4 0
0.6 0.4 0
0.7 0.4 0
0.8 0.4 0
0.9 0.4 0
1 0.4 0
0 0.425 0
0.1 0.425 0
0.2 0.425 0
0.3 0.425 0
0.4 0.425 0
0.5 0.425 0
0.6 0.425 0
0.7 0.425 0
0.8 0.425 0
0.9 0.425 0
1 0.425 0
0 0.45 0
0.1 0.45 0
0.2 0.45 0
0.3 0.45 0
0.4 0.45 0
0.5 0.45 0
0.6 0.45 0
0.7 0.45 0
0.8 0.45 0
0.9 0.45 0
1 0.45 0
0 0.475 0
0.1 0.475 0
0.2 0.475 0
0.3 0.475 0
0.4 0.475 0
0.5 0.475 0
0.6 0.475 0
0.7 0.475 0
0.8 0.475 0
0.9 0.475 0
1 0.475 0
0 0.5 0
0.1 0.5 0
0.2 0.5 0
0.3 0.5 0
0.4 0.5 0
0.5 0.5 0
0.6 0.5 0
0.7 0.5 0
0.8 0.5 0
0.9 0.5 0
1 0.5 0
CELLS 400 1600
3 0 1 12
3 0 12 11
3 1 2 13
3 1 13 12
3 2 3 14
3 2 14 13
3 3 4 15
3 3 15 14
3 4 5 16
3 4 16 15
3 5 6 17
3 5 17 16
3 6 7 18
3 6 18 17
3 7 8 19
3 7 19 18
3 8 9 20
3 8 20 19
3 9 10 21
3 9 21 20
3 11 12 23
3 11 23 22
3 12 13 24
3 12 24 23
3 13 14 25
3 13 25 24
3 14 15 26
3 14 26 25
3 15 16 27
3 15 27 26
3 16 17 28
3 16 28 27
3 17 18 29
3 17 29 28
3 18 19 30
3 18 30 29
3 19 20 31
3 19 31 30
3 20 21 32
3 20 32 31
3 22 23 34
3 22 34 33
3 23 24 35
3 23 35 34
3 24 25 36
3 24 36 35
3 25 26 37
3 25 37 36
3 26 27 38
3 26 38 37
3 27 28 39
3 27 39 38
3 28 29 40
3 28 40 39
3 29 30 41
3 29 41 40
3 30 31 42
3 30 42 41
3 31 32 43
3 31 43 42
3 33 34 45
3 33 45 44
3 34 35 46
3 34 46 45
3 35 36 47
3 35 47 46
3 36 37 48
3 36 48 47
3 37 38 49
3 37 49 48
3 38 39 50
3 38 50 49
3 39 40 51
3 39 51 50
3 40 41 52
3 40 52 51
3 41 42 53
3 41 53 52
3 42 43 54
3 42 54 53
3 44 45 56
3 44 56 55
3 45 46 57
3 45 57 56
3 46 47 58
3 46 58 57
3 47 48 59
3 47 59 58
3 48 49 60
3 48 60 59
3 49 50 61
3 49 61 60
3 50 51 62
3 50 62 61
3 51 52 63
3 51 63 62
3 52 53 64
3 52 64 63
3 53 54 65
3 53 65 64
3 55 56 67
3 55 67 66
3 56 57 68
3 56 68 67
3 57 58 69
3 57 69 68
3 58 59 70
3 58 70 69
3 59 60 71
3 59 71 70
3 60 61 72
3 60 72 71
3 61 62 73
3 61 73 72
3 62 63 74
3 62 74 73
3 63 64 75
3 63 75 74
3 64 65 76
3 64 76 75
3 66 67 78
3 66 78 77
3 67 68 79
3 67 79 78
3 68 69 80
3 68 80 79
3 69 70 81
3 69 81 80
3 70 71 82
3 70 82 81
3 71 72 83
3 71 83 82
3 72 73 84
3 72 84 83
3 73 74 85
3 73 85 84
3 74 75 86
3 74 86 85
3 75 76 87
3 75 87 86
3 77 78 89
3 77 89 88
3 78 79 90
3 78 90 89
3 79 80 91
3 79 91 90
3 80 81 92
3 80 92 91
3 81 82 93
3 81 93 92
3 82 83 94
3 82 94 93
3 83 84 95
3 83 95 94
3 84 85 96
3 84 96 95
3 85 86 97
3 85 97 96
3 86 87 98
3 86 98 97
3 88 89 100
3 88 100 99
3 89 90 101
3 89 101 100
3 90 91 102
3 90 102 101
3 91 92 103
3 91 103 102
3 92 93 104
3 92 104 103
3 93 94 105
3 93 105 104
3 94 95 106
3 94 106 105
3 95 96 107
3 95 107 106
3 96 97 108
3 96 108 107
3 97 98 109
3 97 109 108
3 99 100 111
3 99 111 110
3 100 101 112
3 100 112 111
3 101 102 113
3 101 113 112
3 102 103 114
3 102 114 113
3 103 104 115
3 103 115 114
3 104 105 116
3 104 116 115
3 105 106 117
3 105 117 116
3 106 107 118
3 106 118 117
3 107 108 119
3 107 119 118
3 108 109 120
3 108 120 119
3 110 111 122
3 110 122 121
3 111 112 123
3 111 123 122
3 112 113 124
3 112 124 123
3 113 114 125
3 113 125 124
3 114 115 126
3 114 126 125
3 115 116 127
3 115 127 126
3 116 117 128
3 116 128 127
3 117 118 129
3 117 129 128
3 118 119 130
3 118 130 129
3 119 120 131
3 119 131 130
3 121 122 133
3 121 133 132
3 122 123 134
3 122 134 133
3 123 124 135
3 123 135 134
3 124 125 136
3 124 136 135
3 125 126 137
3 125 137 136
3 126 127 138
3 126 138 137
3 127 128 139
3 127 139 138
3 128 129 140
3 128 140 139
3 129 130 141
3 129 141 140
3 130 131 142
3 130 142 141
3 132 133 144
3 132 144 143
3 133 134 145
3 133 145 144
3 134 135 146
3 134 146 145
3 135 136 147
3 135 147 146
3 136 137 148
3 136 148 147
3 137 138 149
3 137 149 148
3 138 139 150
3 138 150 149
3 139 140 151
3 139 151 150
3 140 141 152
3 140 152 151
3 141 142 153
3 141 153 152
3 143 144 155
3 143 155 154
3 144 145 156
3 144 156 155
3 145 146 157
3 145 157 156
3 146 147 158
3 146 158 157
3 147 148 159
3 147 159 158
3 148 149 160
3 148 160 159
3 149 150 161
3 149 161 160
3 150 151 162
3 150 162 161
3 151 152 163
3 151 163 162
3 152 153 164
3 152 164 163
3 154 155 166
3 154 166 165
3 155 156 167
3 155 167 166
3 156 157 168
3 156 168 167
3 157 158 169
3 157 169 168
3 158 159 170
3 158 170 169
3 159 160 171
3 159 171 170
3 160 161 172
3 160 172 171
3 161 162 173
3 161 173 172
3 162 163 174
3 162 174 173
3 163 164 175
3 163 175 174
3 165 166 177
3 165 177 176
3 166 167 178
3 166 178 177
3 167 168 179
3 167 179 178
3 168 169 180
3 168 180 179
3 169 170 181
3 169 181 180
3 170 171 182
3 170 182 181
3 171 172 183
3 171 183 182
3 172 173 184
3 172 184 183
3 173 174 185
3 173 185 184
3 174 175 186
3 174 186 185
3 176 177 188
3 176 188 187
3 177 178 189
3 177 189 188
3 178 179 190
3 178 190 189
3 179 180 191
3 179 191 190
3 180 181 192
3 180 192 191
3 181 182 193
3 181 193 192
3 182 183 194
3 182 194 193
3 183 184 195
3 183 195 194
3 184 185 196
3 184 196 195
3 185 186 197
3 185 197 196
3 187 188 199
3 187 199 198
3 188 189 200
3 188 200 199
3 189 190 201
3 189 201 200
3 190 191 202
3 190 202 201
3 191 192 203
3 191 203 202
3 192 193 204
3 192 204 203
3 193 194 205
3 193 205 204
3 194 195 206
3 194 206 205
3 195 196 207
3 195 207 206
3 196 197 208
3 196 208 207
3 198 199 210
3 198 210 209
3 199 200 211
3 199 211 210
3 200 201 212
3 200 212 211
3 201 202 213
3 201 213 212
3 202 203 214
3 202 214 213
3 203 204 215
3 203 215 214
3 204 205 216
3 204 216 215
3 205 206 217
3 205 217 216
3 206 207 218
3 206 218 217
3 207 208 219
3 207 219 218
3 209 210 221
3 209 221 220
3 210 211 222
3 210 222 221
3 211 212 223
3 211 223 222
3 212 213 224
3 212 224 223
3 213 214 225
3 213 225 224
3 214 215 226
3 214 226 225
3 215 216 227
3 215 227 226
3 216 217 228
3 216 228 227
3 217 218 229
3 217 229 228
3 218 219 230
3 218 230 229
CELL_TYPES 400
5
5
5
5
5
5
5
5
5
5
5
5
5
5
5
5
5
5
5
5
5
5
5
5
5
5
5
5
5
5
5
5
5
5
5
5
5
5
5
5
5
5
5
5
5
5
5
5
5
5
5
5
5
5
5
5
5
5
5
5
5
5
5
5
5
5
5
5
5
5
5
5
5
5
5
5
5
5
5
5
5
5
5
5
5
5
5
5
5
5
5
5
5
5
5
5
5
5
5
5
5
5
5
5
5
5
5
5
5
5
5
5
5
5
5
5
5
5
5
5
5
5
5
5
5
5
5
5
5
5
5
5
5
5
5
5
5
5
5
5
5
5
5
5
5
5
5
5
5
5
5
5
5
5
5
5
5
5
5
5
5
5
5
5
5
5
5
5
5
5
5
5
5
5
5
5
5
5
5
5
5
5
5
5
5
5
5
5
5
5
5
5
5
5
5
5
5
5
5
5
5
5
5
5
5
5
5
5
5
5
5
5
5
5
5
5
5
5
5
5
5
5
5
5
5
5
5
5
5
5
5
5
5
5
5
5
5
5
5
5
5
5
5
5
5
5
5
5
5
5
5
5
5
5
5
5
5
5
5
5
5
5
5
5
5
5
5
5
5
5
5
5
5
5
5
5
5
5
5
5
5
5
5
5
5
5
5
5
5
5
5
5
5
5
5
5
5
5
5
5
5
5
5
5
5
5
5
5
5
5
5
5
5
5
5
5
5
5
5
5
5
5
5
5
5
5
5
5
5
5
5
5
5
5
5
5
5
5
5
5
5
5
5
5
5
5
5
5
5
5
5
5
5
5
5
5
5
5
5
5
5
5
5
5
5
5
5
5
5
5
5
5
5
5
5
5
5
5
5
5
5
5
5
5
5
5
5
5
5
5
5
5
5
5
5
5
5
5
5
5
CELL_DATA 400
VECTORS Et double
0.0685558 -0.428682 0
0.191385 -0.322887 0
-0.00415695 -0.823918 0
0.0106597 -0.801359 0
-0.0741987 -0.508233 0
-0.180743 -0.593071 0
-0.0810563 0.231464 0
-0.223724 0.133235 0
-0.0200141 0.748597 0
-0.0836436 0.739374 0
0.0555181 0.632889 0
0.124142 0.704561 0
0.083336 0.0236878 0
0.229718 0.0911601 0
0.043792 -0.581504 0
0.146068 -0.562549 0
-0.0297036 -0.733737 0
-0.05991 -0.744199 0
-0.0800663 -0.320265 0
-0.220282 -0.347295 0
0.335664 -0.382256 0
0.447581 -0.287847 0
0.0321386 -0.743195 0
0.0474449 -0.726722 0
-0.302246 -0.460752 0
-0.396873 -0.542347 0
-0.384647 0.206752 0
-0.513501 0.117099 0
-0.148404 0.672968 0
-0.207562 0.670005 0
0.205828 0.568783 0
0.265924 0.639686 0
0.386117 0.0232337 0
0.518044 0.0837994 0
0.249862 -0.517876 0
0.343846 -0.507118 0
-0.0896503 -0.657012 0
-0.114838 -0.671453 0
-0.360288 -0.292393 0
-0.485981 -0.316267 0
0.572058 -0.299807 0
0.662328 -0.225414 0
0.0681649 -0.592386 0
0.0823445 -0.583164 0
-0.499216 -0.367812 0
-0.572577 -0.440231 0
-0.651204 0.165409 0
-0.753385 0.0913137 0
-0.264181 0.533127 0
-0.312973 0.538108 0
0.334166 0.446069 0
0.379823 0.511569 0
0.650651 0.0174906 0
0.755301 0.0643619 0
0.433059 -0.402025 0
0.509726 -0.403427 0
-0.13793 -0.512469 0
-0.155636 -0.529886 0
-0.603223 -0.234708 0
-0.701928 -0.251701 0
0.75512 -0.189748 0
0.814826 -0.141408 0
0.1002 -0.386142 0
0.111569 -0.384497 0
-0.646198 -0.238115 0
-0.691143 -0.296146 0
-0.85457 0.111866 0
-0.919836 0.0589113 0
-0.355411 0.342941 0
-0.388871 0.356758 0
0.428527 0.276594 0
0.455332 0.332571 0
0.851015 0.00649673 0
0.91823 0.0343461 0
0.575022 -0.245869 0
0.62692 -0.262041 0
-0.170002 -0.31446 0
-0.178673 -0.333445 0
-0.784485 -0.153122 0
-0.846682 -0.159516 0
0.867006 -0.063032 0
0.889952 -0.0437509 0
0.124601 -0.144464 0
0.13158 -0.149797 0
-0.729356 -0.08408 0
-0.74163 -0.123656 0
-0.974763 0.0515402 0
-0.996508 0.0234009 0
-0.41241 0.121136 0
-0.427013 0.143755 0
0.480387 0.0769181 0
0.485834 0.120126 0
0.967586 -0.00901938 0
0.99085 -0.00350258 0
0.661239 -0.0652509 0
0.683232 -0.0971112 0
-0.183234 -0.0827255 0
-0.182371 -0.101547 0
-0.886176 -0.0559178 0
-0.906195 -0.0485135 0
0.896429 0.0679283 0
0.87982 0.0582617 0
0.138196 0.109243 0
0.139507 0.0983938 0
-0.741248 0.0793408 0
-0.719888 0.0608002 0
-0.999953 -0.00973169 0
-0.975863 -0.0116242 0
-0.428765 -0.110552 0
-0.422798 -0.080144 0
0.485473 -0.13328 0
0.469184 -0.104957 0
0.988947 -0.0276612 0
0.966027 -0.0454271 0
0.682516 0.121677 0
0.672306 0.0750427 0
-0.177116 0.159615 0
-0.167285 0.142834 0
-0.898608 0.0471049 0
-0.875124 0.0704752 0
0.83986 0.190479 0
0.784668 0.154837 0
0.138685 0.350458 0
0.133538 0.336215 0
-0.681497 0.236111 0
-0.628894 0.239479 0
-0.927631 -0.0662748 0
-0.859914 -0.0428672 0
-0.402029 -0.329509 0
-0.375789 -0.293268 0
0.444115 -0.333128 0
0.40785 -0.320532 0
0.913007 -0.0474715 0
0.846168 -0.0870124 0
0.635939 0.296273 0
0.594332 0.23755 0
-0.15323 0.388385 0
-0.135937 0.375428 0
-0.821166 0.145633 0
-0.757231 0.185649 0
0.702013 0.292954 0
0.612994 0.236621 0
0.124976 0.555935 0
0.113231 0.540782 0
-0.556754 0.370683 0
-0.478371 0.395043 0
-0.764862 -0.113126 0
-0.660031 -0.0676573 0
-0.334033 -0.514459 0
-0.289827 -0.475155 0
0.361145 -0.502609 0
0.308602 -0.505286 0
0.747203 -0.0661193 0
0.642989 -0.123626 0
0.525244 0.441263 0
0.456115 0.374647 0
-0.11497 0.580769 0
-0.0924355 0.573059 0
-0.662232 0.229877 0
-0.564869 0.285404 0
0.495537 0.3658 0
0.380876 0.295618 0
0.0974349 0.705968 0
0.0796926 0.692402 0
-0.379957 0.469539 0
-0.283754 0.512258 0
-0.527589 -0.14649 0
-0.395816 -0.0841906 0
-0.230777 -0.647539 0
-0.172712 -0.608545 0
0.245355 -0.624539 0
0.181786 -0.640846 0
0.507777 -0.0811507 0
0.376374 -0.150898 0
0.360542 0.542432 0
0.270498 0.473205 0
-0.0670726 0.717573 0
-0.0419348 0.715931 0
-0.43821 0.29154 0
-0.317616 0.359493 0
0.239937 0.402478 0
0.110531 0.325981 0
0.0579782 0.786316 0
0.0355906 0.77651 0
-0.168981 0.522547 0
-0.0645944 0.579512 0
-0.239065 -0.164065 0
-0.0931853 -0.0916616 0
-0.101892 -0.716033 0
-0.0354935 -0.68104 0
0.108582 -0.686284 0
0.0402623 -0.713595 0
0.218187 -0.090276 0
0.0724308 -0.165201 0
0.157404 0.589996 0
0.0551767 0.523995 0
-0.0150232 0.785105 0
0.00999109 0.789582 0
-0.171764 0.32462 0
-0.0402171 0.400066 0
-0.0402171 0.400066 0
-0.171764 0.32462 0
0.00999109 0.789582 0
-0.0150232 0.785105 0
0.0551767 0.523995 0
0.157404 0.589996 0
0.0724308 -0.165201 0
0.218187 -0.090276 0
0.0402623 -0.713595 0
0.108582 -0.686284 0
-0.0354935 -0.68104 0
-0.101892 -0.716033 0
-0.0931853 -0.0916616 0
-0.239065 -0.164065 0
-0.0645944 0.579512 0
-0.168981 0.522547 0
0.0355906 0.77651 0
0.0579782 0.786316 0
0.110531 0.325981 0
0.239937 0.402478 0
-0.317616 0.359493 0
-0.43821 0.29154 0
-0.0419348 0.715931 0
-0.0670726 0.717573 0
0.270498 0.473205 0
0.360542 0.542432 0
0.376374 -0.150898 0
0.507777 -0.0811507 0
0.181786 -0.640846 0
0.245355 -0.624539 0
-0.172712 -0.608545 0
-0.230777 -0.647539 0
-0.395816 -0.0841906 0
-0.527589 -0.14649 0
-0.283754 0.512258 0
-0.379957 0.469539 0
0.0796926 0.692402 0
0.0974349 0.705968 0
0.380876 0.295618 0
0.495537 0.3658 0
-0.564869 0.285404 0
-0.662232 0.229877 0
-0.0924355 0.573059 0
-0.11497 0.580769 0
0.456115 0.374647 0
0.525244 0.441263 0
0.642989 -0.123626 0
0.747203 -0.0661193 0
0.308602 -0.505286 0
0.361145 -0.502609 0
-0.289827 -0.475155 0
-0.334033 -0.514459 0
-0.660031 -0.0676573 0
-0.764862 -0.113126 0
-0.478371 0.395043 0
-0.556754 0.370683 0
0.113231 0.540782 0
0.124976 0.555935 0
0.612994 0.236621 0
0.702013 0.292954 0
-0.757231 0.185649 0
-0.821166 0.145633 0
-0.135937 0.375428 0
-0.15323 0.388385 0
0.594332 0.23755 0
0.635939 0.296273 0
0.846168 -0.0870124 0
0.913007 -0.0474715 0
0.40785 -0.320532 0
0.444115 -0.333128 0
-0.375789 -0.293268 0
-0.402029 -0.329509 0
-0.859914 -0.0428672 0
-0.927631 -0.0662748 0
-0.628894 0.239479 0
-0.681497 0.236111 0
0.133538 0.336215 0
0.138685 0.350458 0
0.784668 0.154837 0
0.83986 0.190479 0
-0.875124 0.0704752 0
-0.898608 0.0471049 0
-0.167285 0.142834 0
-0.177116 0.159615 0
0.672306 0.0750427 0
0.682516 0.121677 0
0.966027 -0.0454271 0
0.988947 -0.0276612 0
0.469184 -0.104957 0
0.485473 -0.13328 0
-0.422798 -0.080144 0
-0.428765 -0.110552 0
-0.975863 -0.0116242 0
-0.999953 -0.00973169 0
-0.719888 0.0608002 0
-0.741248 0.0793408 0
0.139507 0.0983938 0
0.138196 0.109243 0
0.87982 0.0582617 0
0.896429 0.0679283 0
-0.906195 -0.0485135 0
-0.886176 -0.0559178 0
-0.182371 -0.101547 0
-0.183234 -0.0827255 0
0.683232 -0.0971112 0
0.661239 -0.0652509 0
0.99085 -0.00350258 0
0.967586 -0.00901938 0
0.485834 0.120126 0
0.480387 0.0769181 0
-0.427013 0.143755 0
-0.41241 0.121136 0
-0.996508 0.0234009 0
-0.974763 0.0515402 0
-0.74163 -0.123656 0
-0.729356 -0.08408 0
0.13158 -0.149797 0
0.124601 -0.144464 0
0.889952 -0.0437509 0
0.867006 -0.063032 0
-0.846682 -0.159516 0
-0.784485 -0.153122 0
-0.178673 -0.333445 0
-0.170002 -0.31446 0
0.62692 -0.262041 0
0.575022 -0.245869 0
0.91823 0.0343461 0
0.851015 0.00649673 0
0.455332 0.332571 0
0.428527 0.276594 0
-0.388871 0.356758 0
-0.355411 0.342941 0
-0.919836 0.0589113 0
-0.85457 0.111866 0
-0.691143 -0.296146 0
-0.646198 -0.238115 0
0.111569 -0.384497 0
0.1002 -0.386142 0
0.814826 -0.141408 0
0.75512 -0.189748 0
-0.701928 -0.251701 0
-0.603223 -0.234708 0
-0.155636 -0.529886 0
-0.13793 -0.512469 0
0.509726 -0.403427 0
0.433059 -0.402025 0
0.755301 0.0643619 0
0.650651 0.0174906 0
0.379823 0.511569 0
0.334166 0.446069 0
-0.312973 0.538108 0
-0.264181 0.533127 0
-0.753385 0.0913137 0
-0.651204 0.165409 0
-0.572577 -0.440231 0
-0.499216 -0.367812 0
0.0823445 -0.583164 0
0.0681649 -0.592386 0
0.662328 -0.225414 0
0.572058 -0.299807 0
-0.485981 -0.316267 0
-0.360288 -0.292393 0
-0.114838 -0.671453 0
-0.0896503 -0.657012 0
0.343846 -0.507118 0
0.249862 -0.517876 0
0.518044 0.0837994 0
0.386117 0.0232337 0
0.265924 0.639686 0
0.205828 0.568783 0
-0.207562 0.670005 0
-0.148404 0.672968 0
-0.513501 0.117099 0
-0.384647 0.206752 0
-0.396873 -0.542347 0
-0.302246 -0.460752 0
0.0474449 -0.726722 0
0.0321386 -0.743195 0
0.447581 -0.287847 0
0.335664 -0.382256 0
-0.220282 -0.347295 0
-0.0800663 -0.320265 0
-0.05991 -0.744199 0
-0.0297036 -0.733737 0
0.146068 -0.562549 0
0.043792 -0.581504 0
0.229718 0.0911601 0
0.083336 0.0236878 0
0.124142 0.704561 0
0.0555181 0.632889 0
-0.0836436 0.739374 0
-0.0200141 0.748597 0
-0.223724 0.133235 0
-0.0810563 0.231464 0
-0.180743 -0.593071 0
-0.0741987 -0.508233 0
0.0106597 -0.801359 0
-0.00415695 -0.823918 0
0.191385 -0.322887 0
0.0685558 -0.428682 0
