# vtk DataFile Version 3.0
tp3485 cell-vector
ASCII
DATASET UNSTRUCTURED_GRID
POINTS 231 double
0 0 0
0.1 0 0
0.2 0 0
0.3 0 0
0.4 0 0
0.5 0 0
0.6 0 0
0.7 0 0
0.8 0 0
0.9 0 0
1 0 0
0 0.025 0
0.1 0.025 0
0.2 0.025 0
0.3 0.025 0
0.4 0.025 0
0.5 0.025 0
0.6 0.025 0
0.7 0.025 0
0.8 0.025 0
0.9 0.025 0
1 0.025 0
0 0.05 0
0.1 0.05 0
0.2 0.05 0
0.3 0.05 0
0.4 0.05 0
0.5 0.05 0
0.6 0.05 0
0.7 0.05 0
0.8 0.05 0
0.9 0.05 0
1 0.05 0
0 0.075 0
0.1 0.075 0
0.2 0.075 0
0.3 0.075 0
0.4 0.075 0
0.5 0.075 0
0.6 0.075 0
0.7 0.075 0
0.8 0.075 0
0.9 0.075 0
1 0.075 0
0 0.1 0
0.1 0.1 0
0.2 0.1 0
0.3 0.1 0
0.4 0.1 0
0.5 0.1 0
0.6 0.1 0
0.7 0.1 0
0.8 0.1 0
0.9 0.1 0
1 0.1 0
0 0.125 0
0.1 0.125 0
0.2 0.125 0
0.3 0.125 0
0.4 0.125 0
0.5 0.125 0
0.6 0.125 0
0.7 0.125 0
0.8 0.125 0
0.9 0.125 0
1 0.125 0
0 0.15 0
0.1 0.15 0
0.2 0.15 0
0.3 0.15 0
0.4 0.15 0
0.5 0.15 0
0.6 0.15 0
0.7 0.15 0
0.8 0.15 0
0.9 0.15 0
1 0.15 0
0 0.175 0
0.1 0.175 0
0.2 0.175 0
0.3 0.175 0
0.4 0.175 0
0.5 0.175 0
0.6 0.175 0
0.7 0.175 0
0.8 0.175 0
0.9 0.175 0
1 0.175 0
0 0.2 0
0.1 0.2 0
0.2 0.2 0
0.3 0.2 0
0.4 0.2 0
0.5 0.2 0
0.6 0.2 0
0.7 0.2 0
0.8 0.2 0
0.9 0.2 0
1 0.2 0
0 0.225 0
0.1 0.225 0
0.2 0.225 0
0.3 0.225 0
0.4 0.225 0
0.5 0.225 0
0.6 0.225 0
0.7 0.225 0
0.8 0.225 0
0.9 0.225 0
1 0.225 0
0 0.25 0
0.1 0.25 0
0.2 0.25 0
0.3 0.25 0
0.4 0.25 0
0.5 0.25 0
0.6 0.25 0
0.7 0.25 0
0.8 0.25 0
0.9 0.25 0
1 0.25 0
0 0.275 0
0.1 0.275 0
0.2 0.275 0
0.3 0.275 0
0.4 0.275 0
0.5 0.275 0
0.6 0.275 0
0.7 0.275 0
0.8 0.275 0
0.9 0.275 0
1 0.275 0
0 0.3 0
0.1 0.3 0
0.2 0.3 0
0.3 0.3 0
0.4 0.3 0
0.5 0.3 0
0.6 0.3 0
0.7 0.3 0
0.8 0.3 0
0.9 0.3 0
1 0.3 0
0 0.325 0
0.1 0.325 0
0.2 0.325 0
0.3 0.325 0
0.4 0.325 0
0.5 0.325 0
0.6 0.325 0
0.7 0.325 0
0.8 0.325 0
0.9 0.325 0
1 0.325 0
0 0.35 0
0.1 0.35 0
0.2 0.35 0
0.3 0.35 0
0.4 0.35 0
0.5 0.35 0
0.6 0.35 0
0.7 0.35 0
0.8 0.35 0
0.9 0.35 0
1 0.35 0
0 0.375 0
0.1 0.375 0
0.2 0.375 0
0.3 0.375 0
0.4 0.375 0
0.5 0.375 0
0.6 0.375 0
0.7 0.375 0
0.8 0.375 0
0.9 0.375 0
1 0.375 0
0 0.4 0
0.1 0.4 0
0.2 0.4 0
0.3 0.4 0
0.4 0.4 0
0.5 0.4 0
0.6 0.4 0
0.7 0.4 0
0.8 0.4 0
0.9 0.4 0
1 0.4 0
0 0.425 0
0.1 0.425 0
0.2 0.425 0
0.3 0.425 0
0.4 0.425 0
0.5 0.425 0
0.6 0.425 0
0.7 0.425 0
0.8 0.425 0
0.9 0.425 0
1 0.425 0
0 0.45 0
0.1 0.45 0
0.2 0.45 0
0.3 0.45 0
0.4 0.45 0
0.5 0.45 0
0.6 0.45 0
0.7 0.45 0
0.8 0.45 0
0.9 0.45 0
1 0.45 0
0 0.475 0
0.1 0.475 0
0.2 0.475 0
0.3 0.475 0
0.4 0.475 0
0.5 0.475 0
0.6 0.475 0
0.7 0.475 0
0.8 0.475 0
0.9 0.475 0
1 0.475 0
0 0.5 0
0.1 0.5 0
0.2 0.5 0
0.3 0.5 0
0.4 0.5 0
0.5 0.5 0
0.6 0.5 0
0.7 0.5 0
0.8 0.5 0
0.9 0.5 0
1 0.5 0
CELLS 400 1600
3 0 1 12
3 0 12 11
3 1 2 13
3 1 13 12
3 2 3 14
3 2 14 13
3 3 4 15
3 3 15 14
3 4 5 16
3 4 16 15
3 5 6 17
3 5 17 16
3 6 7 18
3 6 18 17
3 7 8 19
3 7 19 18
3 8 9 20
3 8 20 19
3 9 10 21
3 9 21 20
3 11 12 23
3 11 23 22
3 12 13 24
3 12 24 23
3 13 14 25
3 13 25 24
3 14 15 26
3 14 26 25
3 15 16 27
3 15 27 26
3 16 17 28
3 16 28 27
3 17 18 29
3 17 29 28
3 18 19 30
3 18 30 29
3 19 20 31
3 19 31 30
3 20 21 32
3 20 32 31
3 22 23 34
3 22 34 33
3 23 24 35
3 23 35 34
3 24 25 36
3 24 36 35
3 25 26 37
3 25 37 36
3 26 27 38
3 26 38 37
3 27 28 39
3 27 39 38
3 28 29 40
3 28 40 39
3 29 30 41
3 29 41 40
3 30 31 42
3 30 42 41
3 31 32 43
3 31 43 42
3 33 34 45
3 33 45 44
3 34 35 46
3 34 46 45
3 35 36 47
3 35 47 46
3 36 37 48
3 36 48 47
3 37 38 49
3 37 49 48
3 38 39 50
3 38 50 49
3 39 40 51
3 39 51 50
3 40 41 52
3 40 52 51
3 41 42 53
3 41 53 52
3 42 43 54
3 42 54 53
3 44 45 56
3 44 56 55
3 45 46 57
3 45 57 56
3 46 47 58
3 46 58 57
3 47 48 59
3 47 59 58
3 48 49 60
3 48 60 59
3 49 50 61
3 49 61 60
3 50 51 62
3 50 62 61
3 51 52 63
3 51 63 62
3 52 53 64
3 52 64 63
3 53 54 65
3 53 65 64
3 55 56 67
3 55 67 66
3 56 57 68
3 56 68 67
3 57 58 69
3 57 69 68
3 58 59 70
3 58 70 69
3 59 60 71
3 59 71 70
3 60 61 72
3 60 72 71
3 61 62 73
3 61 73 72
3 62 63 74
3 62 74 73
3 63 64 75
3 63 75 74
3 64 65 76
3 64 76 75
3 66 67 78
3 66 78 77
3 67 68 79
3 67 79 78
3 68 69 80
3 68 80 79
3 69 70 81
3 69 81 80
3 70 71 82
3 70 82 81
3 71 72 83
3 71 83 82
3 72 73 84
3 72 84 83
3 73 74 85
3 73 85 84
3 74 75 86
3 74 86 85
3 75 76 87
3 75 87 86
3 77 78 89
3 77 89 88
3 78 79 90
3 78 90 89
3 79 80 91
3 79 91 90
3 80 81 92
3 80 92 91
3 81 82 93
3 81 93 92
3 82 83 94
3 82 94 93
3 83 84 95
3 83 95 94
3 84 85 96
3 84 96 95
3 85 86 97
3 85 97 96
3 86 87 98
3 86 98 97
3 88 89 100
3 88 100 99
3 89 90 101
3 89 101 100
3 90 91 102
3 90 102 101
3 91 92 103
3 91 103 102
3 92 93 104
3 92 104 103
3 93 94 105
3 93 105 104
3 94 95 106
3 94 106 105
3 95 96 107
3 95 107 106
3 96 97 108
3 96 108 107
3 97 98 109
3 97 109 108
3 99 100 111
3 99 111 110
3 100 101 112
3 100 112 111
3 101 102 113
3 101 113 112
3 102 103 114
3 102 114 113
3 103 104 115
3 103 115 114
3 104 105 116
3 104 116 115
3 105 106 117
3 105 117 116
3 106 107 118
3 106 118 117
3 107 108 119
3 107 119 118
3 108 109 120
3 108 120 119
3 110 111 122
3 110 122 121
3 111 112 123
3 111 123 122
3 112 113 124
3 112 124 123
3 113 114 125
3 113 125 124
3 114 115 126
3 114 126 125
3 115 116 127
3 115 127 126
3 116 117 128
3 116 128 127
3 117 118 129
3 117 129 128
3 118 119 130
3 118 130 129
3 119 120 131
3 119 131 130
3 121 122 133
3 121 133 132
3 122 123 134
3 122 134 133
3 123 124 135
3 123 135 134
3 124 125 136
3 124 136 135
3 125 126 137
3 125 137 136
3 126 127 138
3 126 138 137
3 127 128 139
3 127 139 138
3 128 129 140
3 128 140 139
3 129 130 141
3 129 141 140
3 130 131 142
3 130 142 141
3 132 133 144
3 132 144 143
3 133 134 145
3 133 145 144
3 134 135 146
3 134 146 145
3 135 136 147
3 135 147 146
3 136 137 148
3 136 148 147
3 137 138 149
3 137 149 148
3 138 139 150
3 138 150 149
3 139 140 151
3 139 151 150
3 140 141 152
3 140 152 151
3 141 142 153
3 141 153 152
3 143 144 155
3 143 155 154
3 144 145 156
3 144 156 155
3 145 146 157
3 145 157 156
3 146 147 158
3 146 158 157
3 147 148 159
3 147 159 158
3 148 149 160
3 148 160 159
3 149 150 161
3 149 161 160
3 150 151 162
3 150 162 161
3 151 152 163
3 151 163 162
3 152 153 164
3 152 164 163
3 154 155 166
3 154 166 165
3 155 156 167
3 155 167 166
3 156 157 168
3 156 168 167
3 157 158 169
3 157 169 168
3 158 159 170
3 158 170 169
3 159 160 171
3 159 171 170
3 160 161 172
3 160 172 171
3 161 162 173
3 161 173 172
3 162 163 174
3 162 174 173
3 163 164 175
3 163 175 174
3 165 166 177
3 165 177 176
3 166 167 178
3 166 178 177
3 167 168 179
3 167 179 178
3 168 169 180
3 168 180 179
3 169 170 181
3 169 181 180
3 170 171 182
3 170 182 181
3 171 172 183
3 171 183 182
3 172 173 184
3 172 184 183
3 173 174 185
3 173 185 184
3 174 175 186
3 174 186 185
3 176 177 188
3 176 188 187
3 177 178 189
3 177 189 188
3 178 179 190
3 178 190 189
3 179 180 191
3 179 191 190
3 180 181 192
3 180 192 191
3 181 182 193
3 181 193 192
3 182 183 194
3 182 194 193
3 183 184 195
3 183 195 194
3 184 185 196
3 184 196 195
3 185 186 197
3 185 197 196
3 187 188 199
3 187 199 198
3 188 189 200
3 188 200 199
3 189 190 201
3 189 201 200
3 190 191 202
3 190 202 201
3 191 192 203
3 191 203 202
3 192 193 204
3 192 204 203
3 193 194 205
3 193 205 204
3 194 195 206
3 194 206 205
3 195 196 207
3 195 207 206
3 196 197 208
3 196 208 207
3 198 199 210
3 198 210 209
3 199 200 211
3 199 211 210
3 200 201 212
3 200 212 211
3 201 202 213
3 201 213 212
3 202 203 214
3 202 214 213
3 203 204 215
3 203 215 214
3 204 205 216
3 204 216 215
3 205 206 217
3 205 217 216
3 206 207 218
3 206 218 217
3 207 208 219
3 207 219 218
3 209 210 221
3 209 221 220
3 210 211 222
3 210 222 221
3 211 212 223
3 211 223 222
3 212 213 224
3 212 224 223
3 213 214 225
3 213 225 224
3 214 215 226
3 214 226 225
3 215 216 227
3 215 227 226
3 216 217 228
3 216 228 227
3 217 218 229
3 217 229 228
3 218 219 230
3 218 230 229
CELL_TYPES 400
5
5
5
5
5
5
5
5
5
5
5
5
5
5
5
5
5
5
5
5
5
5
5
5
5
5
5
5
5
5
5
5
5
5
5
5
5
5
5
5
5
5
5
5
5
5
5
5
5
5
5
5
5
5
5
5
5
5
5
5
5
5
5
5
5
5
5
5
5
5
5
5
5
5
5
5
5
5
5
5
5
5
5
5
5
5
5
5
5
5
5
5
5
5
5
5
5
5
5
5
5
5
5
5
5
5
5
5
5
5
5
5
5
5
5
5
5
5
5
5
5
5
5
5
5
5
5
5
5
5
5
5
5
5
5
5
5
5
5
5
5
5
5
5
5
5
5
5
5
5
5
5
5
5
5
5
5
5
5
5
5
5
5
5
5
5
5
5
5
5
5
5
5
5
5
5
5
5
5
5
5
5
5
5
5
5
5
5
5
5
5
5
5
5
5
5
5
5
5
5
5
5
5
5
5
5
5
5
5
5
5
5
5
5
5
5
5
5
5
5
5
5
5
5
5
5
5
5
5
5
5
5
5
5
5
5
5
5
5
5
5
5
5
5
5
5
5
5
5
5
5
5
5
5
5
5
5
5
5
5
5
5
5
5
5
5
5
5
5
5
5
5
5
5
5
5
5
5
5
5
5
5
5
5
5
5
5
5
5
5
5
5
5
5
5
5
5
5
5
5
5
5
5
5
5
5
5
5
5
5
5
5
5
5
5
5
5
5
5
5
5
5
5
5
5
5
5
5
5
5
5
5
5
5
5
5
5
5
5
5
5
5
5
5
5
5
5
5
5
5
5
5
5
5
5
5
5
5
5
5
5
5
5
5
5
5
5
5
5
5
5
5
5
5
5
5
5
5
5
5
5
5
5
5
5
5
5
5
5
5
5
5
5
5
5
5
5
5
5
5
CELL_DATA 400
VECTORS Et double
0.0826405 0.092572 0
0.36113 -0.345411 0
0.0433896 -0.236016 0
0.208219 -0.479882 0
-0.0158904 -0.456001 0
-0.0276636 -0.441022 0
-0.0681429 -0.475611 0
-0.253861 -0.198874 0
-0.0911418 -0.312732 0
-0.376325 0.130197 0
-0.0782762 -0.0526478 0
-0.351201 0.388891 0
-0.037921 0.20546 0
-0.198077 0.477429 0
0.0138717 0.401087 0
0.0248396 0.384923 0
0.0615688 0.481025 0
0.241785 0.176018 0
0.089766 0.359064 0
0.369711 -0.0834517 0
0.515426 0.0800286 0
0.732243 -0.257731 0
0.305177 -0.180308 0
0.436924 -0.376549 0
-0.0319653 -0.354253 0
-0.0375175 -0.353475 0
-0.357534 -0.37022 0
-0.500431 -0.162681 0
-0.534016 -0.244164 0
-0.756485 0.0995431 0
-0.499561 -0.0433958 0
-0.713879 0.305428 0
-0.28375 0.153661 0
-0.411488 0.375943 0
0.0283077 0.305129 0
0.0333588 0.302979 0
0.333482 0.375591 0
0.471828 0.141446 0
0.522634 0.293491 0
0.74262 -0.0572873 0
0.835194 0.0509286 0
0.943525 -0.114159 0
0.504841 -0.0884196 0
0.574181 -0.19103 0
-0.036841 -0.178154 0
-0.0356651 -0.191332 0
-0.566992 -0.183838 0
-0.636935 -0.0905143 0
-0.860175 -0.119433 0
-0.971928 0.0504701 0
-0.812509 -0.0212544 0
-0.920828 0.158129 0
-0.469813 0.0683584 0
-0.536273 0.19253 0
0.0322861 0.139844 0
0.0309776 0.151545 0
0.528403 0.188924 0
0.595293 0.0730845 0
0.84251 0.163889 0
0.954041 -0.0168452 0
0.972821 0.0103238 0
0.949164 0.0539881 0
0.59829 0.0191853 0
0.589278 0.0355431 0
-0.0308815 0.0342715 0
-0.0242918 0.0108178 0
-0.652864 0.0431029 0
-0.635879 0.00287353 0
-0.99942 0.0340526 0
-0.976687 -0.00608358 0
-0.947727 0.00917054 0
-0.925686 -0.0210551 0
-0.553451 -0.0308187 0
-0.542868 -0.0326031 0
0.0262565 -0.057973 0
0.019903 -0.0360179 0
0.604221 -0.0390107 0
0.585884 -0.0146681 0
0.979023 -0.00157038 0
0.95757 0.0277022 0
0.898527 -0.0338797 0
0.747881 0.210071 0
0.564115 0.119098 0
0.477797 0.253321 0
-0.0173425 0.237528 0
-0.00791901 0.209662 0
-0.598666 0.261288 0
-0.499743 0.097845 0
-0.922351 0.182053 0
-0.770689 -0.0581454 0
-0.874571 0.0408725 0
-0.726263 -0.193751 0
-0.514106 -0.121442 0
-0.427497 -0.250126 0
0.0134233 -0.244397 0
0.00454351 -0.21797 0
0.545296 -0.259025 0
0.446648 -0.102708 0
0.90212 -0.166834 0
0.752425 0.0655886 0
0.628439 -0.0725974 0
0.383333 0.320064 0
0.408483 0.190076 0
0.26285 0.414549 0
-0.00122737 0.388502 0
0.00803029 0.36254 0
-0.418251 0.42327 0
-0.260013 0.174082 0
-0.646614 0.29103 0
-0.399602 -0.0952995 0
-0.608031 0.0659882 0
-0.365218 -0.32348 0
-0.35824 -0.183266 0
-0.213443 -0.412381 0
-0.00138431 -0.378028 0
-0.00990186 -0.35337 0
0.365664 -0.423475 0
0.209063 -0.171365 0
0.628573 -0.295881 0
0.383518 0.0878679 0
0.221213 -0.0975712 0
-0.0652576 0.35995 0
0.164079 0.217579 0
-0.00968894 0.483927 0
0.0122467 0.455734 0
0.0188129 0.436701 0
-0.152396 0.493815 0
0.030044 0.215022 0
-0.232889 0.33562 0
0.0552755 -0.110825 0
-0.205635 0.0776448 0
0.0790941 -0.383479 0
-0.118353 -0.202658 0
0.0536555 -0.483802 0
-0.0132144 -0.429081 0
-0.0189857 -0.411147 0
0.105698 -0.49671 0
-0.0740986 -0.204782 0
0.218215 -0.360618 0
-0.0684714 0.08936 0
-0.234595 -0.103256 0
-0.500236 0.320956 0
-0.11677 0.196761 0
-0.280985 0.446264 0
0.0191455 0.426089 0
0.0216641 0.416414 0
0.140409 0.457604 0
0.307222 0.211543 0
0.228462 0.304389 0
0.494831 -0.102935 0
0.244974 0.0716831 0
0.509631 -0.362331 0
0.153798 -0.175505 0
0.315533 -0.448686 0
-0.0184443 -0.385919 0
-0.0202612 -0.37708 0
-0.176951 -0.462888 0
-0.340491 -0.194538 0
-0.239261 -0.34701 0
-0.504825 0.0697091 0
-0.639712 -0.0881569 0
-0.826734 0.211491 0
-0.373325 0.133302 0
-0.491988 0.309755 0
0.0178753 0.307418 0
0.0164742 0.306411 0
0.39685 0.322581 0
0.51219 0.164082 0
0.637168 0.202583 0
0.823778 -0.0748932 0
0.645119 0.0478413 0
0.831842 -0.266213 0
0.398332 -0.107994 0
0.513976 -0.314623 0
-0.0157865 -0.257597 0
-0.0139057 -0.257112 0
-0.42012 -0.329471 0
-0.531892 -0.14172 0
-0.64399 -0.258134 0
-0.830402 0.0333426 0
-0.905731 -0.0552875 0
-0.973348 0.0553427 0
-0.549643 0.0419435 0
-0.596357 0.104177 0
0.0095272 0.126642 0
0.00567861 0.130861 0
0.562555 0.118235 0
0.602263 0.082671 0
0.904891 0.0512206 0
0.971364 -0.0340281 0
0.906662 0.010087 0
0.974392 -0.117309 0
0.560372 -0.0151276 0
0.603695 -0.11083 0
-0.00658276 -0.0718734 0
-0.00256396 -0.0762701 0
-0.570743 -0.125615 0
-0.606865 -0.0569062 0
-0.90778 -0.113476 0
-0.974398 -0.011627 0
-0.974398 -0.011627 0
-0.90778 -0.113476 0
-0.606865 -0.0569062 0
-0.570743 -0.125615 0
-0.00256396 -0.0762701 0
-0.00658276 -0.0718734 0
0.603695 -0.11083 0
0.560372 -0.0151276 0
0.974392 -0.117309 0
0.906662 0.010087 0
0.971364 -0.0340281 0
0.904891 0.0512206 0
0.602263 0.082671 0
0.562555 0.118235 0
0.00567861 0.130861 0
0.0095272 0.126642 0
-0.596357 0.104177 0
-0.549643 0.0419435 0
-0.973348 0.0553427 0
-0.905731 -0.0552875 0
-0.830402 0.0333426 0
-0.64399 -0.258134 0
-0.531892 -0.14172 0
-0.42012 -0.329471 0
-0.0139057 -0.257112 0
-0.0157865 -0.257597 0
0.513976 -0.314623 0
0.398332 -0.107994 0
0.831842 -0.266213 0
0.645119 0.0478413 0
0.823778 -0.0748932 0
0.637168 0.202583 0
0.51219 0.164082 0
0.39685 0.322581 0
0.0164742 0.306411 0
0.0178753 0.307418 0
-0.491988 0.309755 0
-0.373325 0.133302 0
-0.826734 0.211491 0
-0.639712 -0.0881569 0
-0.504825 0.0697091 0
-0.239261 -0.34701 0
-0.340491 -0.194538 0
-0.176951 -0.462888 0
-0.0202612 -0.37708 0
-0.0184443 -0.385919 0
0.315533 -0.448686 0
0.153798 -0.175505 0
0.509631 -0.362331 0
0.244974 0.0716831 0
0.494831 -0.102935 0
0.228462 0.304389 0
0.307222 0.211543 0
0.140409 0.457604 0
0.0216641 0.416414 0
0.0191455 0.426089 0
-0.280985 0.446264 0
-0.11677 0.196761 0
-0.500236 0.320956 0
-0.234595 -0.103256 0
-0.0684714 0.08936 0
0.218215 -0.360618 0
-0.0740986 -0.204782 0
0.105698 -0.49671 0
-0.0189857 -0.411147 0
-0.0132144 -0.429081 0
0.0536555 -0.483802 0
-0.118353 -0.202658 0
0.0790941 -0.383479 0
-0.205635 0.0776448 0
0.0552755 -0.110825 0
-0.232889 0.33562 0
0.030044 0.215022 0
-0.152396 0.493815 0
0.0188129 0.436701 0
0.0122467 0.455734 0
-0.00968894 0.483927 0
0.164079 0.217579 0
-0.0652576 0.35995 0
0.221213 -0.0975712 0
0.383518 0.0878679 0
0.628573 -0.295881 0
0.209063 -0.171365 0
0.365664 -0.423475 0
-0.00990186 -0.35337 0
-0.00138431 -0.378028 0
-0.213443 -0.412381 0
-0.35824 -0.183266 0
-0.365218 -0.32348 0
-0.608031 0.0659882 0
-0.399602 -0.0952995 0
-0.646614 0.29103 0
-0.260013 0.174082 0
-0.418251 0.42327 0
0.00803029 0.36254 0
-0.00122737 0.388502 0
0.26285 0.414549 0
0.408483 0.190076 0
0.383333 0.320064 0
0.628439 -0.0725974 0
0.752425 0.0655886 0
0.90212 -0.166834 0
0.446648 -0.102708 0
0.545296 -0.259025 0
0.00454351 -0.21797 0
0.0134233 -0.244397 0
-0.427497 -0.250126 0
-0.514106 -0.121442 0
-0.726263 -0.193751 0
-0.874571 0.0408725 0
-0.770689 -0.0581454 0
-0.922351 0.182053 0
-0.499743 0.097845 0
-0.598666 0.261288 0
-0.00791901 0.209662 0
-0.0173425 0.237528 0
0.477797 0.253321 0
0.564115 0.119098 0
0.747881 0.210071 0
0.898527 -0.0338797 0
0.95757 0.0277022 0
0.979023 -0.00157038 0
0.585884 -0.0146681 0
0.604221 -0.0390107 0
0.019903 -0.0360179 0
0.0262565 -0.057973 0
-0.542868 -0.0326031 0
-0.553451 -0.0308187 0
-0.925686 -0.0210551 0
-0.947727 0.00917054 0
-0.976687 -0.00608358 0
-0.99942 0.0340526 0
-0.635879 0.00287353 0
-0.652864 0.0431029 0
-0.0242918 0.0108178 0
-0.0308815 0.0342715 0
0.589278 0.0355431 0
0.59829 0.0191853 0
0.949164 0.0539881 0
0.972821 0.0103238 0
0.954041 -0.0168452 0
0.84251 0.163889 0
0.595293 0.0730845 0
0.528403 0.188924 0
0.0309776 0.151545 0
0.0322861 0.139844 0
-0.536273 0.19253 0
-0.469813 0.0683584 0
-0.920828 0.158129 0
-0.812509 -0.0212544 0
-0.971928 0.0504701 0
-0.860175 -0.119433 0
-0.636935 -0.0905143 0
-0.566992 -0.183838 0
-0.0356651 -0.191332 0
-0.036841 -0.178154 0
0.574181 -0.19103 0
0.504841 -0.0884196 0
0.943525 -0.114159 0
0.835194 0.0509286 0
0.74262 -0.0572873 0
0.522634 0.293491 0
0.471828 0.141446 0
0.333482 0.375591 0
0.0333588 0.302979 0
0.0283077 0.305129 0
-0.411488 0.375943 0
-0.28375 0.153661 0
-0.713879 0.305428 0
-0.499561 -0.0433958 0
-0.756485 0.0995431 0
-0.534016 -0.244164 0
-0.500431 -0.162681 0
-0.357534 -0.37022 0
-0.0375175 -0.353475 0
-0.0319653 -0.354253 0
0.436924 -0.376549 0
0.305177 -0.180308 0
0.732243 -0.257731 0
0.515426 0.0800286 0
0.369711 -0.0834517 0
0.089766 0.359064 0
0.241785 0.176018 0
0.0615688 0.481025 0
0.0248396 0.384923 0
0.0138717 0.401087 0
-0.198077 0.477429 0
-0.037921 0.20546 0
-0.351201 0.388891 0
-0.0782762 -0.0526478 0
-0.376325 0.130197 0
-0.0911418 -0.312732 0
-0.253861 -0.198874 0
-0.0681429 -0.475611 0
-0.0276636 -0.441022 0
-0.0158904 -0.456001 0
0.208219 -0.479882 0
0.0433896 -0.236016 0
0.36113 -0.345411 0
0.0826405 0.092572 0
