# vtk DataFile Version 3.0
tp3485 cell-vector
ASCII
DATASET UNSTRUCTURED_GRID
POINTS 231 double
0 0 0
0.1 0 0
0.2 0 0
0.3 0 0
0.4 0 0
0.5 0 0
0.6 0 0
0.7 0 0
0.8 0 0
0.9 0 0
1 0 0
0 0.025 0
0.1 0.025 0
0.2 0.025 0
0.3 0.025 0
0.4 0.025 0
0.5 0.025 0
0.6 0.025 0
0.7 0.025 0
0.8 0.025 0
0.9 0.025 0
1 0.025 0
0 0.05 0
0.1 0.05 0
0.2 0.05 0
0.3 0.05 0
0.4 0.05 0
0.5 0.05 0
0.6 0.05 0
0.7 0.05 0
0.8 0.05 0
0.9 0.05 0
1 0.05 0
0 0.075 0
0.1 0.075 0
0.2 0.075 0
0.3 0.075 0
0.4 0.075 0
0.5 0.075 0
0.6 0.075 0
0.7 0.075 0
0.8 0.075 0
0.9 0.075 0
1 0.075 0
0 0.1 0
0.1 0.1 0
0.2 0.1 0
0.3 0.1 0
0.4 0.1 0
0.5 0.1 0
0.6 0.1 0
0.7 0.1 0
0.8 0.1 0
0.9 0.1 0
1 0.1 0
0 0.125 0
0.1 0.125 0
0.2 0.125 0
0.3 0.125 0
0.4 0.125 0
0.5 0.125 0
0.6 0.125 0
0.7 0.125 0
0.8 0.125 0
0.9 0.125 0
1 0.125 0
0 0.15 0
0.1 0.15 0
0.2 0.15 0
0.3 0.15 0
0.4 0.15 0
0.5 0.15 0
0.6 0.15 0
0.7 0.15 0
0.8 0.15 0
0.9 0.15 0
1 0.15 0
0 0.175 0
0.1 0.175 0
0.2 0.175 0
0.3 0.175 0
0.4 0.175 0
0.5 0.175 0
0.6 0.175 0
0.7 0.175 0
0.8 0.175 0
0.9 0.175 0
1 0.175 0
0 0.2 0
0.1 0.2 0
0.2 0.2 0
0.3 0.2 0
0.4 0.2 0
0.5 0.2 0
0.6 0.2 0
0.7 0.2 0
0.8 0.2 0
0.9 0.2 0
1 0.2 0
0 0.225 0
0.1 0.225 0
0.2 0.225 0
0.3 0.225 0
0.4 0.225 0
0.5 0.225 0
0.6 0.225 0
0.7 0.225 0
0.8 0.225 0
0.9 0.225 0
1 0.225 0
0 0.25 0
0.1 0.25 0
0.2 0.25 0
0.3 0.25 0
0.4 0.25 0
0.5 0.25 0
0.6 0.25 0
0.7 0.25 0
0.8 0.25 0
0.9 0.25 0
1 0.25 0
0 0.275 0
0.1 0.275 0
0.2 0.275 0
0.3 0.275 0
0.4 0.275 0
0.5 0.275 0
0.6 0.275 0
0.7 0.275 0
0.8 0.275 0
0.9 0.275 0
1 0.275 0
0 0.3 0
0.1 0.3 0
0.2 0.3 0
0.3 0.3 0
0.4 0.3 0
0.5 0.3 0
0.6 0.3 0
0.7 0.3 0
0.8 0.3 0
0.9 0.3 0
1 0.3 0
0 0.325 0
0.1 0.325 0
0.2 0.325 0
0.3 0.325 0
0.4 0.325 0
0.5 0.325 0
0.6 0.325 0
0.7 0.325 0
0.8 0.325 0
0.9 0.325 0
1 0.325 0
0 0.35 0
0.1 0.35 0
0.2 0.35 0
0.3 0.35 0
0.4 0.35 0
0.5 0.35 0
0.6 0.35 0
0.7 0.35 0
0.8 0.35 0
0.9 0.35 0
1 0.35 0
0 0.375 0
0.1 0.375 0
0.2 0.375 0
0.3 0.375 0
0.4 0.375 0
0.5 0.375 0
0.6 0.375 0
0.7 0.375 0
0.8 0.375 0
0.9 0.375 0
1 0.375 0
0 0.4 0
0.1 0.4 0
0.2 0.4 0
0.3 0.4 0
0.4 0.4 0
0.5 0.4 0
0.6 0.4 0
0.7 0.4 0
0.8 0.4 0
0.9 0.4 0
1 0.4 0
0 0.425 0
0.1 0.425 0
0.2 0.425 0
0.3 0.425 0
0.4 0.425 0
0.5 0.425 0
0.6 0.425 0
0.7 0.425 0
0.8 0.425 0
0.9 0.425 0
1 0.425 0
0 0.45 0
0.1 0.45 0
0.2 0.45 0
0.3 0.45 0
0.4 0.45 0
0.5 0.45 0
0.6 0.45 0
0.7 0.45 0
0.8 0.45 0
0.9 0.45 0
1 0.45 0
0 0.475 0
0.1 0.475 0
0.2 0.475 0
0.3 0.475 0
0.4 0.475 0
0.5 0.475 0
0.6 0.475 0
0.7 0.475 0
0.8 0.475 0
0.9 0.475 0
1 0.475 0
0 0.5 0
0.1 0.5 0
0.2 0.5 0
0.3 0.5 0
0.4 0.5 0
0.5 0.5 0
0.6 0.5 0
0.7 0.5 0
0.8 0.5 0
0.9 0.5 0
1 0.5 0
CELLS 400 1600
3 0 1 12
3 0 12 11
3 1 2 13
3 1 13 12
3 2 3 14
3 2 14 13
3 3 4 15
3 3 15 14
3 4 5 16
3 4 16 15
3 5 6 17
3 5 17 16
3 6 7 18
3 6 18 17
3 7 8 19
3 7 19 18
3 8 9 20
3 8 20 19
3 9 10 21
3 9 21 20
3 11 12 23
3 11 23 22
3 12 13 24
3 12 24 23
3 13 14 25
3 13 25 24
3 14 15 26
3 14 26 25
3 15 16 27
3 15 27 26
3 16 17 28
3 16 28 27
3 17 18 29
3 17 29 28
3 18 19 30
3 18 30 29
3 19 20 31
3 19 31 30
3 20 21 32
3 20 32 31
3 22 23 34
3 22 34 33
3 23 24 35
3 23 35 34
3 24 25 36
3 24 36 35
3 25 26 37
3 25 37 36
3 26 27 38
3 26 38 37
3 27 28 39
3 27 39 38
3 28 29 40
3 28 40 39
3 29 30 41
3 29 41 40
3 30 31 42
3 30 42 41
3 31 32 43
3 31 43 42
3 33 34 45
3 33 45 44
3 34 35 46
3 34 46 45
3 35 36 47
3 35 47 46
3 36 37 48
3 36 48 47
3 37 38 49
3 37 49 48
3 38 39 50
3 38 50 49
3 39 40 51
3 39 51 50
3 40 41 52
3 40 52 51
3 41 42 53
3 41 53 52
3 42 43 54
3 42 54 53
3 44 45 56
3 44 56 55
3 45 46 57
3 45 57 56
3 46 47 58
3 46 58 57
3 47 48 59
3 47 59 58
3 48 49 60
3 48 60 59
3 49 50 61
3 49 61 60
3 50 51 62
3 50 62 61
3 51 52 63
3 51 63 62
3 52 53 64
3 52 64 63
3 53 54 65
3 53 65 64
3 55 56 67
3 55 67 66
3 56 57 68
3 56 68 67
3 57 58 69
3 57 69 68
3 58 59 70
3 58 70 69
3 59 60 71
3 59 71 70
3 60 61 72
3 60 72 71
3 61 62 73
3 61 73 72
3 62 63 74
3 62 74 73
3 63 64 75
3 63 75 74
3 64 65 76
3 64 76 75
3 66 67 78
3 66 78 77
3 67 68 79
3 67 79 78
3 68 69 80
3 68 80 79
3 69 70 81
3 69 81 80
3 70 71 82
3 70 82 81
3 71 72 83
3 71 83 82
3 72 73 84
3 72 84 83
3 73 74 85
3 73 85 84
3 74 75 86
3 74 86 85
3 75 76 87
3 75 87 86
3 77 78 89
3 77 89 88
3 78 79 90
3 78 90 89
3 79 80 91
3 79 91 90
3 80 81 92
3 80 92 91
3 81 82 93
3 81 93 92
3 82 83 94
3 82 94 93
3 83 84 95
3 83 95 94
3 84 85 96
3 84 96 95
3 85 86 97
3 85 97 96
3 86 87 98
3 86 98 97
3 88 89 100
3 88 100 99
3 89 90 101
3 89 101 100
3 90 91 102
3 90 102 101
3 91 92 103
3 91 103 102
3 92 93 104
3 92 104 103
3 93 94 105
3 93 105 104
3 94 95 106
3 94 106 105
3 95 96 107
3 95 107 106
3 96 97 108
3 96 108 107
3 97 98 109
3 97 109 108
3 99 100 111
3 99 111 110
3 100 101 112
3 100 112 111
3 101 102 113
3 101 113 112
3 102 103 114
3 102 114 113
3 103 104 115
3 103 115 114
3 104 105 116
3 104 116 115
3 105 106 117
3 105 117 116
3 106 107 118
3 106 118 117
3 107 108 119
3 107 119 118
3 108 109 120
3 108 120 119
3 110 111 122
3 110 122 121
3 111 112 123
3 111 123 122
3 112 113 124
3 112 124 123
3 113 114 125
3 113 125 124
3 114 115 126
3 114 126 125
3 115 116 127
3 115 127 126
3 116 117 128
3 116 128 127
3 117 118 129
3 117 129 128
3 118 119 130
3 118 130 129
3 119 120 131
3 119 131 130
3 121 122 133
3 121 133 132
3 122 123 134
3 122 134 133
3 123 124 135
3 123 135 134
3 124 125 136
3 124 136 135
3 125 126 137
3 125 137 136
3 126 127 138
3 126 138 137
3 127 128 139
3 127 139 138
3 128 129 140
3 128 140 139
3 129 130 141
3 129 141 140
3 130 131 142
3 130 142 141
3 132 133 144
3 132 144 143
3 133 134 145
3 133 145 144
3 134 135 146
3 134 146 145
3 135 136 147
3 135 147 146
3 136 137 148
3 136 148 147
3 137 138 149
3 137 149 148
3 138 139 150
3 138 150 149
3 139 140 151
3 139 151 150
3 140 141 152
3 140 152 151
3 141 142 153
3 141 153 152
3 143 144 155
3 143 155 154
3 144 145 156
3 144 156 155
3 145 146 157
3 145 157 156
3 146 147 158
3 146 158 157
3 147 148 159
3 147 159 158
3 148 149 160
3 148 160 159
3 149 150 161
3 149 161 160
3 150 151 162
3 150 162 161
3 151 152 163
3 151 163 162
3 152 153 164
3 152 164 163
3 154 155 166
3 154 166 165
3 155 156 167
3 155 167 166
3 156 157 168
3 156 168 167
3 157 158 169
3 157 169 168
3 158 159 170
3 158 170 169
3 159 160 171
3 159 171 170
3 160 161 172
3 160 172 171
3 161 162 173
3 161 173 172
3 162 163 174
3 162 174 173
3 163 164 175
3 163 175 174
3 165 166 177
3 165 177 176
3 166 167 178
3 166 178 177
3 167 168 179
3 167 179 178
3 168 169 180
3 168 180 179
3 169 170 181
3 169 181 180
3 170 171 182
3 170 182 181
3 171 172 183
3 171 183 182
3 172 173 184
3 172 184 183
3 173 174 185
3 173 185 184
3 174 175 186
3 174 186 185
3 176 177 188
3 176 188 187
3 177 178 189
3 177 189 188
3 178 179 190
3 178 190 189
3 179 180 191
3 179 191 190
3 180 181 192
3 180 192 191
3 181 182 193
3 181 193 192
3 182 183 194
3 182 194 193
3 183 184 195
3 183 195 194
3 184 185 196
3 184 196 195
3 185 186 197
3 185 197 196
3 187 188 199
3 187 199 198
3 188 189 200
3 188 200 199
3 189 190 201
3 189 201 200
3 190 191 202
3 190 202 201
3 191 192 203
3 191 203 202
3 192 193 204
3 192 204 203
3 193 194 205
3 193 205 204
3 194 195 206
3 194 206 205
3 195 196 207
3 195 207 206
3 196 197 208
3 196 208 207
3 198 199 210
3 198 210 209
3 199 200 211
3 199 211 210
3 200 201 212
3 200 212 211
3 201 202 213
3 201 213 212
3 202 203 214
3 202 214 213
3 203 204 215
3 203 215 214
3 204 205 216
3 204 216 215
3 205 206 217
3 205 217 216
3 206 207 218
3 206 218 217
3 207 208 219
3 207 219 218
3 209 210 221
3 209 221 220
3 210 211 222
3 210 222 221
3 211 212 223
3 211 223 222
3 212 213 224
3 212 224 223
3 213 214 225
3 213 225 224
3 214 215 226
3 214 226 225
3 215 216 227
3 215 227 226
3 216 217 228
3 216 228 227
3 217 218 229
3 217 229 228
3 218 219 230
3 218 230 229
CELL_TYPES 400
5
5
5
5
5
5
5
5
5
5
5
5
5
5
5
5
5
5
5
5
5
5
5
5
5
5
5
5
5
5
5
5
5
5
5
5
5
5
5
5
5
5
5
5
5
5
5
5
5
5
5
5
5
5
5
5
5
5
5
5
5
5
5
5
5
5
5
5
5
5
5
5
5
5
5
5
5
5
5
5
5
5
5
5
5
5
5
5
5
5
5
5
5
5
5
5
5
5
5
5
5
5
5
5
5
5
5
5
5
5
5
5
5
5
5
5
5
5
5
5
5
5
5
5
5
5
5
5
5
5
5
5
5
5
5
5
5
5
5
5
5
5
5
5
5
5
5
5
5
5
5
5
5
5
5
5
5
5
5
5
5
5
5
5
5
5
5
5
5
5
5
5
5
5
5
5
5
5
5
5
5
5
5
5
5
5
5
5
5
5
5
5
5
5
5
5
5
5
5
5
5
5
5
5
5
5
5
5
5
5
5
5
5
5
5
5
5
5
5
5
5
5
5
5
5
5
5
5
5
5
5
5
5
5
5
5
5
5
5
5
5
5
5
5
5
5
5
5
5
5
5
5
5
5
5
5
5
5
5
5
5
5
5
5
5
5
5
5
5
5
5
5
5
5
5
5
5
5
5
5
5
5
5
5
5
5
5
5
5
5
5
5
5
5
5
5
5
5
5
5
5
5
5
5
5
5
5
5
5
5
5
5
5
5
5
5
5
5
5
5
5
5
5
5
5
5
5
5
5
5
5
5
5
5
5
5
5
5
5
5
5
5
5
5
5
5
5
5
5
5
5
5
5
5
5
5
5
5
5
5
5
5
5
5
5
5
5
5
5
5
5
5
5
5
5
5
5
5
5
5
5
5
5
5
5
5
5
5
5
5
5
5
5
5
5
5
5
5
5
5
CELL_DATA 400
VECTORS Et double
0.0467196 -0.388526 0
0.0959079 -0.199201 0
0.0257645 -0.835418 0
0.0551043 -0.712562 0
-0.005112 -0.971171 0
-0.00702228 -0.961227 0
-0.0343324 -0.738769 0
-0.0663362 -0.849403 0
-0.0507459 -0.219572 0
-0.100032 -0.413425 0
-0.0478729 0.392209 0
-0.095357 0.187033 0
-0.0265311 0.860661 0
-0.0543518 0.72476 0
0.00527385 0.999986 0
0.00715078 0.990179 0
0.0353039 0.750691 0
0.0657463 0.874514 0
0.0518405 0.207362 0
0.0994448 0.416891 0
0.191488 -0.37758 0
0.239603 -0.19346 0
0.114693 -0.813617 0
0.143468 -0.694109 0
-0.00625702 -0.946878 0
-0.00797348 -0.937259 0
-0.125226 -0.721286 0
-0.156342 -0.829125 0
-0.196721 -0.215591 0
-0.24476 -0.404611 0
-0.193192 0.381159 0
-0.239545 0.181002 0
-0.115683 0.838797 0
-0.142921 0.706182 0
0.00638511 0.975649 0
0.00807025 0.96615 0
0.126369 0.73313 0
0.155907 0.854206 0
0.198366 0.203099 0
0.244655 0.408028 0
0.331668 -0.356917 0
0.377584 -0.182891 0
0.201036 -0.771261 0
0.228546 -0.658081 0
-0.00695679 -0.89907 0
-0.00847063 -0.889756 0
-0.2128 -0.68632 0
-0.242306 -0.78838 0
-0.337765 -0.206844 0
-0.383394 -0.386231 0
-0.333851 0.360333 0
-0.377912 0.169972 0
-0.202226 0.796341 0
-0.228166 0.669945 0
0.0070511 0.927748 0
0.00853584 0.91854 0
0.214092 0.697996 0
0.241988 0.813387 0
0.339876 0.193898 0
0.383652 0.38953 0
0.463836 -0.327072 0
0.506472 -0.167748 0
0.282671 -0.70941 0
0.308243 -0.605375 0
-0.00719914 -0.828917 0
-0.00850987 -0.819886 0
-0.294905 -0.634703 0
-0.322119 -0.728148 0
-0.470407 -0.193505 0
-0.512522 -0.3587 0
-0.466382 0.330282 0
-0.507044 0.154257 0
-0.284022 0.734359 0
-0.30798 0.616969 0
0.00726044 0.857466 0
0.0085446 0.848525 0
0.296304 0.646143 0
0.321867 0.753046 0
0.47286 0.179992 0
0.512999 0.361828 0
0.584754 -0.288801 0
0.623098 -0.148398 0
0.357587 -0.629598 0
0.380588 -0.537297 0
-0.00699092 -0.73814 0
-0.00810664 -0.729364 0
-0.36953 -0.56768 0
-0.393831 -0.649888 0
-0.591386 -0.175864 0
-0.62897 -0.322659 0
-0.587517 0.291783 0
-0.623758 0.134279 0
-0.359045 0.654399 0
-0.380382 0.548585 0
0.00702088 0.766535 0
0.00811298 0.757837 0
0.370985 0.578842 0
0.393587 0.674656 0
0.59403 0.161729 0
0.629505 0.325584 0
0.691445 -0.243065 0
0.724582 -0.125311 0
0.423925 -0.533803 0
0.443781 -0.455526 0
-0.00635788 -0.628965 0
-0.00729515 -0.620415 0
-0.434856 -0.486874 0
-0.455696 -0.555507 0
-0.697728 -0.154321 0
-0.729878 -0.278961 0
-0.694264 0.245814 0
-0.72517 0.110567 0
-0.425429 0.558452 0
-0.443569 0.466501 0
0.00635918 0.6572 0
0.00727625 0.648714 0
0.436309 0.497749 0
0.455402 0.580135 0
0.700402 0.139565 0
0.730311 0.281674 0
0.781271 -0.191004 0
0.808406 -0.0990494 0
0.48003 -0.42439 0
0.496238 -0.362077 0
-0.00534373 -0.504076 0
-0.00612696 -0.495715 0
-0.489297 -0.394255 0
-0.506214 -0.447308 0
-0.786825 -0.129375 0
-0.81277 -0.228654 0
-0.783987 0.193538 0
-0.808772 0.0837349 0
-0.481515 0.448897 0
-0.495959 0.372758 0
0.00532006 0.532159 0
0.00608699 0.523849 0
0.490689 0.40486 0
0.505816 0.471802 0
0.789369 0.114052 0
0.812955 0.231166 0
0.851999 -0.133911 0
0.872478 -0.0702539 0
0.524487 -0.304062 0
0.536632 -0.25925 0
-0.00400838 -0.36654 0
-0.00466889 -0.358328 0
-0.53154 -0.292083 0
-0.544173 -0.327939 0
-0.856491 -0.101615 0
-0.875616 -0.172949 0
-0.854465 0.136266 0
-0.872496 0.0544691 0
-0.525895 0.328448 0
-0.536232 0.269684 0
0.00396438 0.394496 0
0.0046129 0.386321 0
0.532819 0.302463 0
0.543625 0.352319 0
0.858763 0.085825 0
0.875432 0.175292 0
0.901854 -0.0732001 0
0.915181 -0.0396298 0
0.556165 -0.175785 0
0.563924 -0.149577 0
-0.00242549 -0.21974 0
-0.0030001 -0.211633 0
-0.560576 -0.182859 0
-0.568668 -0.200325 0
-0.905023 -0.0717048 0
-0.916881 -0.1132 0
-0.90395 0.0754277 0
-0.914759 0.0235102 0
-0.557443 0.200085 0
-0.563363 0.15983 0
0.00236661 0.247606 0
0.00293387 0.239521 0
0.5617 0.193081 0
0.567942 0.224622 0
0.906908 0.0555823 0
0.916242 0.115421 0
0.92957 -0.0103728 0
0.935423 -0.00792804 0
0.574239 -0.0427202 0
0.577396 -0.0357571 0
-0.000679388 -0.0672872 0
-0.00120879 -0.0592366 0
-0.575725 -0.0692642 0
-0.579134 -0.0675996 0
-0.931239 -0.0403666 0
-0.935561 -0.0508633 0
-0.93121 0.0125328 0
-0.934507 -0.00836562 0
-0.575349 0.0669747 0
-0.576649 0.0459109 0
0.00061164 0.0951098 0
0.00113857 0.0870666 0
0.576665 0.0794075 0
0.578214 0.0918532 0
0.932658 0.024072 0
0.934422 0.0530214 0
0.934422 0.0530214 0
0.932658 0.024072 0
0.578214 0.0918532 0
0.576665 0.0794075 0
0.00113857 0.0870666 0
0.00061164 0.0951098 0
-0.576649 0.0459109 0
-0.575349 0.0669747 0
-0.934507 -0.00836562 0
-0.93121 0.0125328 0
-0.935561 -0.0508633 0
-0.931239 -0.0403666 0
-0.579134 -0.0675996 0
-0.575725 -0.0692642 0
-0.00120879 -0.0592366 0
-0.000679388 -0.0672872 0
0.577396 -0.0357571 0
0.574239 -0.0427202 0
0.935423 -0.00792804 0
0.92957 -0.0103728 0
0.916242 0.115421 0
0.906908 0.0555823 0
0.567942 0.224622 0
0.5617 0.193081 0
0.00293387 0.239521 0
0.00236661 0.247606 0
-0.563363 0.15983 0
-0.557443 0.200085 0
-0.914759 0.0235102 0
-0.90395 0.0754277 0
-0.916881 -0.1132 0
-0.905023 -0.0717048 0
-0.568668 -0.200325 0
-0.560576 -0.182859 0
-0.0030001 -0.211633 0
-0.00242549 -0.21974 0
0.563924 -0.149577 0
0.556165 -0.175785 0
0.915181 -0.0396298 0
0.901854 -0.0732001 0
0.875432 0.175292 0
0.858763 0.085825 0
0.543625 0.352319 0
0.532819 0.302463 0
0.0046129 0.386321 0
0.00396438 0.394496 0
-0.536232 0.269684 0
-0.525895 0.328448 0
-0.872496 0.0544691 0
-0.854465 0.136266 0
-0.875616 -0.172949 0
-0.856491 -0.101615 0
-0.544173 -0.327939 0
-0.53154 -0.292083 0
-0.00466889 -0.358328 0
-0.00400838 -0.36654 0
0.536632 -0.25925 0
0.524487 -0.304062 0
0.872478 -0.0702539 0
0.851999 -0.133911 0
0.812955 0.231166 0
0.789369 0.114052 0
0.505816 0.471802 0
0.490689 0.40486 0
0.00608699 0.523849 0
0.00532006 0.532159 0
-0.495959 0.372758 0
-0.481515 0.448897 0
-0.808772 0.0837349 0
-0.783987 0.193538 0
-0.81277 -0.228654 0
-0.786825 -0.129375 0
-0.506214 -0.447308 0
-0.489297 -0.394255 0
-0.00612696 -0.495715 0
-0.00534373 -0.504076 0
0.496238 -0.362077 0
0.48003 -0.42439 0
0.808406 -0.0990494 0
0.781271 -0.191004 0
0.730311 0.281674 0
0.700402 0.139565 0
0.455402 0.580135 0
0.436309 0.497749 0
0.00727625 0.648714 0
0.00635918 0.6572 0
-0.443569 0.466501 0
-0.425429 0.558452 0
-0.72517 0.110567 0
-0.694264 0.245814 0
-0.729878 -0.278961 0
-0.697728 -0.154321 0
-0.455696 -0.555507 0
-0.434856 -0.486874 0
-0.00729515 -0.620415 0
-0.00635788 -0.628965 0
0.443781 -0.455526 0
0.423925 -0.533803 0
0.724582 -0.125311 0
0.691445 -0.243065 0
0.629505 0.325584 0
0.59403 0.161729 0
0.393587 0.674656 0
0.370985 0.578842 0
0.00811298 0.757837 0
0.00702088 0.766535 0
-0.380382 0.548585 0
-0.359045 0.654399 0
-0.623758 0.134279 0
-0.587517 0.291783 0
-0.62897 -0.322659 0
-0.591386 -0.175864 0
-0.393831 -0.649888 0
-0.36953 -0.56768 0
-0.00810664 -0.729364 0
-0.00699092 -0.73814 0
0.380588 -0.537297 0
0.357587 -0.629598 0
0.623098 -0.148398 0
0.584754 -0.288801 0
0.512999 0.361828 0
0.47286 0.179992 0
0.321867 0.753046 0
0.296304 0.646143 0
0.0085446 0.848525 0
0.00726044 0.857466 0
-0.30798 0.616969 0
-0.284022 0.734359 0
-0.507044 0.154257 0
-0.466382 0.330282 0
-0.512522 -0.3587 0
-0.470407 -0.193505 0
-0.322119 -0.728148 0
-0.294905 -0.634703 0
-0.00850987 -0.819886 0
-0.00719914 -0.828917 0
0.308243 -0.605375 0
0.282671 -0.70941 0
0.506472 -0.167748 0
0.463836 -0.327072 0
0.383652 0.38953 0
0.339876 0.193898 0
0.241988 0.813387 0
0.214092 0.697996 0
0.00853584 0.91854 0
0.0070511 0.927748 0
-0.228166 0.669945 0
-0.202226 0.796341 0
-0.377912 0.169972 0
-0.333851 0.360333 0
-0.383394 -0.386231 0
-0.337765 -0.206844 0
-0.242306 -0.78838 0
-0.2128 -0.68632 0
-0.00847063 -0.889756 0
-0.00695679 -0.89907 0
0.228546 -0.658081 0
0.201036 -0.771261 0
0.377584 -0.182891 0
0.331668 -0.356917 0
0.244655 0.408028 0
0.198366 0.203099 0
0.155907 0.854206 0
0.126369 0.73313 0
0.00807025 0.96615 0
0.00638511 0.975649 0
-0.142921 0.706182 0
-0.115683 0.838797 0
-0.239545 0.181002 0
-0.193192 0.381159 0
-0.24476 -0.404611 0
-0.196721 -0.215591 0
-0.156342 -0.829125 0
-0.125226 -0.721286 0
-0.00797348 -0.937259 0
-0.00625702 -0.946878 0
0.143468 -0.694109 0
0.114693 -0.813617 0
0.239603 -0.19346 0
0.191488 -0.37758 0
0.0994448 0.416891 0
0.0518405 0.207362 0
0.0657463 0.874514 0
0.0353039 0.750691 0
0.00715078 0.990179 0
0.00527385 0.999986 0
-0.0543518 0.72476 0
-0.0265311 0.860661 0
-0.095357 0.187033 0
-0.0478729 0.392209 0
-0.100032 -0.413425 0
-0.0507459 -0.219572 0
-0.0663362 -0.849403 0
-0.0343324 -0.738769 0
-0.00702228 -0.961227 0
-0.005112 -0.971171 0
0.0551043 -0.712562 0
0.0257645 -0.835418 0
0.0959079 -0.199201 0
0.0467196 -0.388526 0
