# vtk DataFile Version 3.0
tp3485 cell-vector
ASCII
DATASET UNSTRUCTURED_GRID
POINTS 231 double
0 0 0
0.1 0 0
0.2 0 0
0.3 0 0
0.4 0 0
0.5 0 0
0.6 0 0
0.7 0 0
0.8 0 0
0.9 0 0
1 0 0
0 0.025 0
0.1 0.025 0
0.2 0.025 0
0.3 0.025 0
0.4 0.025 0
0.5 0.025 0
0.6 0.025 0
0.7 0.025 0
0.8 0.025 0
0.9 0.025 0
1 0.025 0
0 0.05 0
0.1 0.05 0
0.2 0.05 0
0.3 0.05 0
0.4 0.05 0
0.5 0.05 0
0.6 0.05 0
0.7 0.05 0
0.8 0.05 0
0.9 0.05 0
1 0.05 0
0 0.075 0
0.1 0.075 0
0.2 0.075 0
0.3 0.075 0
0.4 0.075 0
0.5 0.075 0
0.6 0.075 0
0.7 0.075 0
0.8 0.075 0
0.9 0.075 0
1 0.075 0
0 0.1 0
0.1 0.1 0
0.2 0.1 0
0.3 0.1 0
0.4 0.1 0
0.5 0.1 0
0.6 0.1 0
0.7 0.1 0
0.8 0.1 0
0.9 0.1 0
1 0.1 0
0 0.125 0
0.1 0.125 0
0.2 0.125 0
0.3 0.125 0
0.4 0.125 0
0.5 0.125 0
0.6 0.125 0
0.7 0.125 0
0.8 0.125 0
0.9 0.125 0
1 0.125 0
0 0.15 0
0.1 0.15 0
0.2 0.15 0
0.3 0.15 0
0.4 0.15 0
0.5 0.15 0
0.6 0.15 0
0.7 0.15 0
0.8 0.15 0
0.9 0.15 0
1 0.15 0
0 0.175 0
0.1 0.175 0
0.2 0.175 0
0.3 0.175 0
0.4 0.175 0
0.5 0.175 0
0.6 0.175 0
0.7 0.175 0
0.8 0.175 0
0.9 0.175 0
1 0.175 0
0 0.2 0
0.1 0.2 0
0.2 0.2 0
0.3 0.2 0
0.4 0.2 0
0.5 0.2 0
0.6 0.2 0
0.7 0.2 0
0.8 0.2 0
0.9 0.2 0
1 0.2 0
0 0.225 0
0.1 0.225 0
0.2 0.225 0
0.3 0.225 0
0.4 0.225 0
0.5 0.225 0
0.6 0.225 0
0.7 0.225 0
0.8 0.225 0
0.9 0.225 0
1 0.225 0
0 0.25 0
0.1 0.25 0
0.2 0.25 0
0.3 0.25 0
0.4 0.25 0
0.5 0.25 0
0.6 0.25 0
0.7 0.25 0
0.8 0.25 0
0.9 0.25 0
1 0.25 0
0 0.275 0
0.1 0.275 0
0.2 0.275 0
0.3 0.275 0
0.4 0.275 0
0.5 0.275 0
0.6 0.275 0
0.7 0.275 0
0.8 0.275 0
0.9 0.275 0
1 0.275 0
0 0.3 0
0.1 0.3 0
0.2 0.3 0
0.3 0.3 0
0.4 0.3 0
0.5 0.3 0
0.6 0.3 0
0.7 0.3 0
0.8 0.3 0
0.9 0.3 0
1 0.3 0
0 0.325 0
0.1 0.325 0
0.2 0.325 0
0.3 0.325 0
0.4 0.325 0
0.5 0.325 0
0.6 0.325 0
0.7 0.325 0
0.8 0.325 0
0.9 0.325 0
1 0.325 0
0 0.35 0
0.1 0.35 0
0.2 0.35 0
0.3 0.35 0
0.4 0.35 0
0.5 0.35 0
0.6 0.35 0
0.7 0.35 0
0.8 0.35 0
0.9 0.35 0
1 0.35 0
0 0.375 0
0.1 0.375 0
0.2 0.375 0
0.3 0.375 0
0.4 0.375 0
0.5 0.375 0
0.6 0.375 0
0.7 0.375 0
0.8 0.375 0
0.9 0.375 0
1 0.375 0
0 0.4 0
0.1 0.4 0
0.2 0.4 0
0.3 0.4 0
0.4 0.4 0
0.5 0.4 0
0.6 0.4 0
0.7 0.4 0
0.8 0.4 0
0.9 0.4 0
1 0.4 0
0 0.425 0
0.1 0.425 0
0.2 0.425 0
0.3 0.425 0
0.4 0.425 0
0.5 0.425 0
0.6 0.425 0
0.7 0.425 0
0.8 0.425 0
0.9 0.425 0
1 0.425 0
0 0.45 0
0.1 0.45 0
0.2 0.45 0
0.3 0.45 0
0.4 0.45 0
0.5 0.45 0
0.6 0.45 0
0.7 0.45 0
0.8 0.45 0
0.9 0.45 0
1 0.45 0
0 0.475 0
0.1 0.475 0
0.2 0.475 0
0.3 0.475 0
0.4 0.475 0
0.5 0.475 0
0.6 0.475 0
0.7 0.475 0
0.8 0.475 0
0.9 0.475 0
1 0.475 0
0 0.5 0
0.1 0.5 0
0.2 0.5 0
0.3 0.5 0
0.4 0.5 0
0.5 0.5 0
0.6 0.5 0
0.7 0.5 0
0.8 0.5 0
0.9 0.5 0
1 0.5 0
CELLS 400 1600
3 0 1 12
3 0 12 11
3 1 2 13
3 1 13 12
3 2 3 14
3 2 14 13
3 3 4 15
3 3 15 14
3 4 5 16
3 4 16 15
3 5 6 17
3 5 17 16
3 6 7 18
3 6 18 17
3 7 8 19
3 7 19 18
3 8 9 20
3 8 20 19
3 9 10 21
3 9 21 20
3 11 12 23
3 11 23 22
3 12 13 24
3 12 24 23
3 13 14 25
3 13 25 24
3 14 15 26
3 14 26 25
3 15 16 27
3 15 27 26
3 16 17 28
3 16 28 27
3 17 18 29
3 17 29 28
3 18 19 30
3 18 30 29
3 19 20 31
3 19 31 30
3 20 21 32
3 20 32 31
3 22 23 34
3 22 34 33
3 23 24 35
3 23 35 34
3 24 25 36
3 24 36 35
3 25 26 37
3 25 37 36
3 26 27 38
3 26 38 37
3 27 28 39
3 27 39 38
3 28 29 40
3 28 40 39
3 29 30 41
3 29 41 40
3 30 31 42
3 30 42 41
3 31 32 43
3 31 43 42
3 33 34 45
3 33 45 44
3 34 35 46
3 34 46 45
3 35 36 47
3 35 47 46
3 36 37 48
3 36 48 47
3 37 38 49
3 37 49 48
3 38 39 50
3 38 50 49
3 39 40 51
3 39 51 50
3 40 41 52
3 40 52 51
3 41 42 53
3 41 53 52
3 42 43 54
3 42 54 53
3 44 45 56
3 44 56 55
3 45 46 57
3 45 57 56
3 46 47 58
3 46 58 57
3 47 48 59
3 47 59 58
3 48 49 60
3 48 60 59
3 49 50 61
3 49 61 60
3 50 51 62
3 50 62 61
3 51 52 63
3 51 63 62
3 52 53 64
3 52 64 63
3 53 54 65
3 53 65 64
3 55 56 67
3 55 67 66
3 56 57 68
3 56 68 67
3 57 58 69
3 57 69 68
3 58 59 70
3 58 70 69
3 59 60 71
3 59 71 70
3 60 61 72
3 60 72 71
3 61 62 73
3 61 73 72
3 62 63 74
3 62 74 73
3 63 64 75
3 63 75 74
3 64 65 76
3 64 76 75
3 66 67 78
3 66 78 77
3 67 68 79
3 67 79 78
3 68 69 80
3 68 80 79
3 69 70 81
3 69 81 80
3 70 71 82
3 70 82 81
3 71 72 83
3 71 83 82
3 72 73 84
3 72 84 83
3 73 74 85
3 73 85 84
3 74 75 86
3 74 86 85
3 75 76 87
3 75 87 86
3 77 78 89
3 77 89 88
3 78 79 90
3 78 90 89
3 79 80 91
3 79 91 90
3 80 81 92
3 80 92 91
3 81 82 93
3 81 93 92
3 82 83 94
3 82 94 93
3 83 84 95
3 83 95 94
3 84 85 96
3 84 96 95
3 85 86 97
3 85 97 96
3 86 87 98
3 86 98 97
3 88 89 100
3 88 100 99
3 89 90 101
3 89 101 100
3 90 91 102
3 90 102 101
3 91 92 103
3 91 103 102
3 92 93 104
3 92 104 103
3 93 94 105
3 93 105 104
3 94 95 106
3 94 106 105
3 95 96 107
3 95 107 106
3 96 97 108
3 96 108 107
3 97 98 109
3 97 109 108
3 99 100 111
3 99 111 110
3 100 101 112
3 100 112 111
3 101 102 113
3 101 113 112
3 102 103 114
3 102 114 113
3 103 104 115
3 103 115 114
3 104 105 116
3 104 116 115
3 105 106 117
3 105 117 116
3 106 107 118
3 106 118 117
3 107 108 119
3 107 119 118
3 108 109 120
3 108 120 119
3 110 111 122
3 110 122 121
3 111 112 123
3 111 123 122
3 112 113 124
3 112 124 123
3 113 114 125
3 113 125 124
3 114 115 126
3 114 126 125
3 115 116 127
3 115 127 126
3 116 117 128
3 116 128 127
3 117 118 129
3 117 129 128
3 118 119 130
3 118 130 129
3 119 120 131
3 119 131 130
3 121 122 133
3 121 133 132
3 122 123 134
3 122 134 133
3 123 124 135
3 123 135 134
3 124 125 136
3 124 136 135
3 125 126 137
3 125 137 136
3 126 127 138
3 126 138 137
3 127 128 139
3 127 139 138
3 128 129 140
3 128 140 139
3 129 130 141
3 129 141 140
3 130 131 142
3 130 142 141
3 132 133 144
3 132 144 143
3 133 134 145
3 133 145 144
3 134 135 146
3 134 146 145
3 135 136 147
3 135 147 146
3 136 137 148
3 136 148 147
3 137 138 149
3 137 149 148
3 138 139 150
3 138 150 149
3 139 140 151
3 139 151 150
3 140 141 152
3 140 152 151
3 141 142 153
3 141 153 152
3 143 144 155
3 143 155 154
3 144 145 156
3 144 156 155
3 145 146 157
3 145 157 156
3 146 147 158
3 146 158 157
3 147 148 159
3 147 159 158
3 148 149 160
3 148 160 159
3 149 150 161
3 149 161 160
3 150 151 162
3 150 162 161
3 151 152 163
3 151 163 162
3 152 153 164
3 152 164 163
3 154 155 166
3 154 166 165
3 155 156 167
3 155 167 166
3 156 157 168
3 156 168 167
3 157 158 169
3 157 169 168
3 158 159 170
3 158 170 169
3 159 160 171
3 159 171 170
3 160 161 172
3 160 172 171
3 161 162 173
3 161 173 172
3 162 163 174
3 162 174 173
3 163 164 175
3 163 175 174
3 165 166 177
3 165 177 176
3 166 167 178
3 166 178 177
3 167 168 179
3 167 179 178
3 168 169 180
3 168 180 179
3 169 170 181
3 169 181 180
3 170 171 182
3 170 182 181
3 171 172 183
3 171 183 182
3 172 173 184
3 172 184 183
3 173 174 185
3 173 185 184
3 174 175 186
3 174 186 185
3 176 177 188
3 176 188 187
3 177 178 189
3 177 189 188
3 178 179 190
3 178 190 189
3 179 180 191
3 179 191 190
3 180 181 192
3 180 192 191
3 181 182 193
3 181 193 192
3 182 183 194
3 182 194 193
3 183 184 195
3 183 195 194
3 184 185 196
3 184 196 195
3 185 186 197
3 185 197 196
3 187 188 199
3 187 199 198
3 188 189 200
3 188 200 199
3 189 190 201
3 189 201 200
3 190 191 202
3 190 202 201
3 191 192 203
3 191 203 202
3 192 193 204
3 192 204 203
3 193 194 205
3 193 205 204
3 194 195 206
3 194 206 205
3 195 196 207
3 195 207 206
3 196 197 208
3 196 208 207
3 198 199 210
3 198 210 209
3 199 200 211
3 199 211 210
3 200 201 212
3 200 212 211
3 201 202 213
3 201 213 212
3 202 203 214
3 202 214 213
3 203 204 215
3 203 215 214
3 204 205 216
3 204 216 215
3 205 206 217
3 205 217 216
3 206 207 218
3 206 218 217
3 207 208 219
3 207 219 218
3 209 210 221
3 209 221 220
3 210 211 222
3 210 222 221
3 211 212 223
3 211 223 222
3 212 213 224
3 212 224 223
3 213 214 225
3 213 225 224
3 214 215 226
3 214 226 225
3 215 216 227
3 215 227 226
3 216 217 228
3 216 228 227
3 217 218 229
3 217 229 228
3 218 219 230
3 218 230 229
CELL_TYPES 400
5
5
5
5
5
5
5
5
5
5
5
5
5
5
5
5
5
5
5
5
5
5
5
5
5
5
5
5
5
5
5
5
5
5
5
5
5
5
5
5
5
5
5
5
5
5
5
5
5
5
5
5
5
5
5
5
5
5
5
5
5
5
5
5
5
5
5
5
5
5
5
5
5
5
5
5
5
5
5
5
5
5
5
5
5
5
5
5
5
5
5
5
5
5
5
5
5
5
5
5
5
5
5
5
5
5
5
5
5
5
5
5
5
5
5
5
5
5
5
5
5
5
5
5
5
5
5
5
5
5
5
5
5
5
5
5
5
5
5
5
5
5
5
5
5
5
5
5
5
5
5
5
5
5
5
5
5
5
5
5
5
5
5
5
5
5
5
5
5
5
5
5
5
5
5
5
5
5
5
5
5
5
5
5
5
5
5
5
5
5
5
5
5
5
5
5
5
5
5
5
5
5
5
5
5
5
5
5
5
5
5
5
5
5
5
5
5
5
5
5
5
5
5
5
5
5
5
5
5
5
5
5
5
5
5
5
5
5
5
5
5
5
5
5
5
5
5
5
5
5
5
5
5
5
5
5
5
5
5
5
5
5
5
5
5
5
5
5
5
5
5
5
5
5
5
5
5
5
5
5
5
5
5
5
5
5
5
5
5
5
5
5
5
5
5
5
5
5
5
5
5
5
5
5
5
5
5
5
5
5
5
5
5
5
5
5
5
5
5
5
5
5
5
5
5
5
5
5
5
5
5
5
5
5
5
5
5
5
5
5
5
5
5
5
5
5
5
5
5
5
5
5
5
5
5
5
5
5
5
5
5
5
5
5
5
5
5
5
5
5
5
5
5
5
5
5
5
5
5
5
5
5
5
5
5
5
5
5
5
5
5
5
5
5
5
5
5
5
5
5
CELL_DATA 400
VECTORS Ht double
0.201497 -0.0967375 0
0.176645 -0.0503743 0
0.527137 -0.110469 0
0.460833 0.0153276 0
0.712422 -0.120677 0
0.618578 0.064148 0
0.829225 -0.135527 0
0.7166 0.0914757 0
0.941685 -0.137874 0
0.81736 0.107412 0
0.993684 -0.112214 0
0.868712 0.124875 0
0.892645 -0.0669278 0
0.782833 0.137474 0
0.643648 -0.0242748 0
0.562733 0.129177 0
0.352161 0.00522745 0
0.305613 0.0971466 0
0.106102 0.0265255 0
0.0914866 0.0562873 0
0.147897 -0.239818 0
0.0866577 -0.13151 0
0.393301 -0.28015 0
0.226276 0.0260099 0
0.528559 -0.308645 0
0.287384 0.160577 0
0.611746 -0.349527 0
0.320697 0.234143 0
0.699325 -0.360703 0
0.376281 0.274327 0
0.746417 -0.300295 0
0.418047 0.323092 0
0.675042 -0.186349 0
0.382171 0.364869 0
0.486205 -0.0754486 0
0.266917 0.350832 0
0.264553 0.0031205 0
0.135736 0.268013 0
0.0807308 0.0695799 0
0.0394661 0.157881 0
0.0455333 -0.29485 0
-0.0295985 -0.164558 0
0.120733 -0.340554 0
-0.0839116 0.027338 0
0.144748 -0.373168 0
-0.150929 0.199701 0
0.154261 -0.429022 0
-0.202238 0.287959 0
0.187201 -0.450248 0
-0.210274 0.331691 0
0.218921 -0.377587 0
-0.188555 0.394266 0
0.203698 -0.233473 0
-0.162113 0.454935 0
0.138332 -0.0942569 0
-0.136039 0.443111 0
0.0652628 0.000279539 0
-0.0959128 0.337884 0
0.0185512 0.0840842 0
-0.0329382 0.196468 0
-0.06844 -0.243911 0
-0.130373 -0.140048 0
-0.188871 -0.268622 0
-0.355176 0.0200846 0
-0.291463 -0.287972 0
-0.528879 0.170171 0
-0.364735 -0.343498 0
-0.648699 0.233908 0
-0.397305 -0.373559 0
-0.716337 0.256319 0
-0.389731 -0.314809 0
-0.721956 0.310254 0
-0.34466 -0.188246 0
-0.645315 0.374278 0
-0.267364 -0.070631 0
-0.491445 0.372042 0
-0.167354 -0.00131281 0
-0.297063 0.279224 0
-0.0553377 0.0620152 0
-0.096004 0.154312 0
-0.153657 -0.108154 0
-0.180732 -0.0690404 0
-0.422155 -0.0923024 0
-0.489758 0.00765286 0
-0.613845 -0.0854968 0
-0.703313 0.0852 0
-0.743114 -0.125802 0
-0.84465 0.0937051 0
-0.82892 -0.159929 0
-0.946669 0.0769831 0
-0.849762 -0.135261 0
-0.981012 0.103239 0
-0.763758 -0.0666814 0
-0.885604 0.154069 0
-0.574605 -0.012237 0
-0.661364 0.164722 0
-0.339778 -0.000540189 0
-0.38524 0.113528 0
-0.110135 0.0104806 0
-0.122665 0.0458642 0
-0.181237 0.0607961 0
-0.165049 0.0214519 0
-0.496211 0.120433 0
-0.442547 -0.00529717 0
-0.700826 0.155558 0
-0.609631 -0.0229929 0
-0.833136 0.140382 0
-0.712649 -0.0789375 0
-0.940981 0.110213 0
-0.811754 -0.136735 0
-0.98791 0.0938523 0
-0.868915 -0.146585 0
-0.895924 0.0848527 0
-0.793018 -0.121892 0
-0.663539 0.0580214 0
-0.577997 -0.100969 0
-0.380233 0.00229279 0
-0.320757 -0.0965879 0
-0.121729 -0.050618 0
-0.0996074 -0.0872385 0
-0.143947 0.200589 0
-0.0920943 0.0987009 0
-0.388646 0.28783 0
-0.236644 -0.014541 0
-0.521316 0.340647 0
-0.285681 -0.115452 0
-0.598418 0.352565 0
-0.301767 -0.218996 0
-0.689487 0.335732 0
-0.362311 -0.301375 0
-0.753168 0.286762 0
-0.429827 -0.341893 0
-0.691947 0.20728 0
-0.403622 -0.349082 0
-0.497314 0.110828 0
-0.270505 -0.325809 0
-0.267691 0.00557375 0
-0.123512 -0.27111 0
-0.0827321 -0.0962029 0
-0.0331834 -0.192046 0
-0.0581614 0.261462 0
0.00900172 0.136265 0
-0.144557 0.345733 0
0.0468337 -0.0176776 0
-0.145757 0.39604 0
0.143509 -0.160796 0
-0.128017 0.428758 0
0.231109 -0.274803 0
-0.17015 0.43298 0
0.229919 -0.351898 0
-0.236018 0.371552 0
0.168155 -0.405795 0
-0.229794 0.251678 0
0.134238 -0.441978 0
-0.137087 0.122232 0
0.145275 -0.426664 0
-0.0414613 0.00712704 0
0.13326 -0.343169 0
-0.00609286 -0.106022 0
0.0523382 -0.225024 0
0.0428986 0.224337 0
0.10017 0.12329 0
0.141811 0.272065 0
0.300441 -0.0147388 0
0.281544 0.297597 0
0.514037 -0.14623 0
0.397694 0.33899 0
0.681386 -0.227298 0
0.418096 0.367263 0
0.737791 -0.266933 0
0.366199 0.31732 0
0.6972 -0.311662 0
0.315022 0.198554 0
0.616422 -0.366474 0
0.280597 0.0837497 0
0.510588 -0.367693 0
0.212747 0.00527783 0
0.350317 -0.28472 0
0.0792964 -0.0731133 0
0.12371 -0.169582 0
0.121949 0.107035 0
0.148775 0.0677601 0
0.363379 0.0951111 0
0.431245 -0.00786178 0
0.597931 0.0805538 0
0.685814 -0.0813131 0
0.776231 0.116969 0
0.87521 -0.0966668 0
0.849204 0.165643 0
0.965691 -0.0772558 0
0.824545 0.145764 0
0.956609 -0.0937308 0
0.736217 0.0659875 0
0.860731 -0.152641 0
0.59565 0.00667649 0
0.684426 -0.173526 0
0.395284 -0.000226701 0
0.440557 -0.117488 0
0.139492 -0.00731284 0
0.151517 -0.0434777 0
0.151517 -0.0434777 0
0.139492 -0.00731284 0
0.440557 -0.117488 0
0.395284 -0.000226701 0
0.684426 -0.173526 0
0.59565 0.00667649 0
0.860731 -0.152641 0
0.736217 0.0659875 0
0.956609 -0.0937308 0
0.824545 0.145764 0
0.965691 -0.0772558 0
0.849204 0.165643 0
0.87521 -0.0966668 0
0.776231 0.116969 0
0.685814 -0.0813131 0
0.597931 0.0805538 0
0.431245 -0.00786178 0
0.363379 0.0951111 0
0.148775 0.0677601 0
0.121949 0.107035 0
0.12371 -0.169582 0
0.0792964 -0.0731133 0
0.350317 -0.28472 0
0.212747 0.00527783 0
0.510588 -0.367693 0
0.280597 0.0837497 0
0.616422 -0.366474 0
0.315022 0.198554 0
0.6972 -0.311662 0
0.366199 0.31732 0
0.737791 -0.266933 0
0.418096 0.367263 0
0.681386 -0.227298 0
0.397694 0.33899 0
0.514037 -0.14623 0
0.281544 0.297597 0
0.300441 -0.0147388 0
0.141811 0.272065 0
0.10017 0.12329 0
0.0428986 0.224337 0
0.0523382 -0.225024 0
-0.00609286 -0.106022 0
0.13326 -0.343169 0
-0.0414613 0.00712704 0
0.145275 -0.426664 0
-0.137087 0.122232 0
0.134238 -0.441978 0
-0.229794 0.251678 0
0.168155 -0.405795 0
-0.236018 0.371552 0
0.229919 -0.351898 0
-0.17015 0.43298 0
0.231109 -0.274803 0
-0.128017 0.428758 0
0.143509 -0.160796 0
-0.145757 0.39604 0
0.0468337 -0.0176776 0
-0.144557 0.345733 0
0.00900172 0.136265 0
-0.0581614 0.261462 0
-0.0331834 -0.192046 0
-0.0827321 -0.0962029 0
-0.123512 -0.27111 0
-0.267691 0.00557375 0
-0.270505 -0.325809 0
-0.497314 0.110828 0
-0.403622 -0.349082 0
-0.691947 0.20728 0
-0.429827 -0.341893 0
-0.753168 0.286762 0
-0.362311 -0.301375 0
-0.689487 0.335732 0
-0.301767 -0.218996 0
-0.598418 0.352565 0
-0.285681 -0.115452 0
-0.521316 0.340647 0
-0.236644 -0.014541 0
-0.388646 0.28783 0
-0.0920943 0.0987009 0
-0.143947 0.200589 0
-0.0996074 -0.0872385 0
-0.121729 -0.050618 0
-0.320757 -0.0965879 0
-0.380233 0.00229279 0
-0.577997 -0.100969 0
-0.663539 0.0580214 0
-0.793018 -0.121892 0
-0.895924 0.0848527 0
-0.868915 -0.146585 0
-0.98791 0.0938523 0
-0.811754 -0.136735 0
-0.940981 0.110213 0
-0.712649 -0.0789375 0
-0.833136 0.140382 0
-0.609631 -0.0229929 0
-0.700826 0.155558 0
-0.442547 -0.00529717 0
-0.496211 0.120433 0
-0.165049 0.0214519 0
-0.181237 0.0607961 0
-0.122665 0.0458642 0
-0.110135 0.0104806 0
-0.38524 0.113528 0
-0.339778 -0.000540189 0
-0.661364 0.164722 0
-0.574605 -0.012237 0
-0.885604 0.154069 0
-0.763758 -0.0666814 0
-0.981012 0.103239 0
-0.849762 -0.135261 0
-0.946669 0.0769831 0
-0.82892 -0.159929 0
-0.84465 0.0937051 0
-0.743114 -0.125802 0
-0.703313 0.0852 0
-0.613845 -0.0854968 0
-0.489758 0.00765286 0
-0.422155 -0.0923024 0
-0.180732 -0.0690404 0
-0.153657 -0.108154 0
-0.096004 0.154312 0
-0.0553377 0.0620152 0
-0.297063 0.279224 0
-0.167354 -0.00131281 0
-0.491445 0.372042 0
-0.267364 -0.070631 0
-0.645315 0.374278 0
-0.34466 -0.188246 0
-0.721956 0.310254 0
-0.389731 -0.314809 0
-0.716337 0.256319 0
-0.397305 -0.373559 0
-0.648699 0.233908 0
-0.364735 -0.343498 0
-0.528879 0.170171 0
-0.291463 -0.287972 0
-0.355176 0.0200846 0
-0.188871 -0.268622 0
-0.130373 -0.140048 0
-0.06844 -0.243911 0
-0.0329382 0.196468 0
0.0185512 0.0840842 0
-0.0959128 0.337884 0
0.0652628 0.000279539 0
-0.136039 0.443111 0
0.138332 -0.0942569 0
-0.162113 0.454935 0
0.203698 -0.233473 0
-0.188555 0.394266 0
0.218921 -0.377587 0
-0.210274 0.331691 0
0.187201 -0.450248 0
-0.202238 0.287959 0
0.154261 -0.429022 0
-0.150929 0.199701 0
0.144748 -0.373168 0
-0.0839116 0.027338 0
0.120733 -0.340554 0
-0.0295985 -0.164558 0
0.0455333 -0.29485 0
0.0394661 0.157881 0
0.0807308 0.0695799 0
0.135736 0.268013 0
0.264553 0.0031205 0
0.266917 0.350832 0
0.486205 -0.0754486 0
0.382171 0.364869 0
0.675042 -0.186349 0
0.418047 0.323092 0
0.746417 -0.300295 0
0.376281 0.274327 0
0.699325 -0.360703 0
0.320697 0.234143 0
0.611746 -0.349527 0
0.287384 0.160577 0
0.528559 -0.308645 0
0.226276 0.0260099 0
0.393301 -0.28015 0
0.0866577 -0.13151 0
0.147897 -0.239818 0
0.0914866 0.0562873 0
0.106102 0.0265255 0
0.305613 0.0971466 0
0.352161 0.00522745 0
0.562733 0.129177 0
0.643648 -0.0242748 0
0.782833 0.137474 0
0.892645 -0.0669278 0
0.868712 0.124875 0
0.993684 -0.112214 0
0.81736 0.107412 0
0.941685 -0.137874 0
0.7166 0.0914757 0
0.829225 -0.135527 0
0.618578 0.064148 0
0.712422 -0.120677 0
0.460833 0.0153276 0
0.527137 -0.110469 0
0.176645 -0.0503743 0
0.201497 -0.0967375 0
