# vtk DataFile Version 3.0
tp3485 cell-vector
ASCII
DATASET UNSTRUCTURED_GRID
POINTS 231 double
0 0 0
0.1 0 0
0.2 0 0
0.3 0 0
0.4 0 0
0.5 0 0
0.6 0 0
0.7 0 0
0.8 0 0
0.9 0 0
1 0 0
0 0.025 0
0.1 0.025 0
0.2 0.025 0
0.3 0.025 0
0.4 0.025 0
0.5 0.025 0
0.6 0.025 0
0.7 0.025 0
0.8 0.025 0
0.9 0.025 0
1 0.025 0
0 0.05 0
0.1 0.05 0
0.2 0.05 0
0.3 0.05 0
0.4 0.05 0
0.5 0.05 0
0.6 0.05 0
0.7 0.05 0
0.8 0.05 0
0.9 0.05 0
1 0.05 0
0 0.075 0
0.1 0.075 0
0.2 0.075 0
0.3 0.075 0
0.4 0.075 0
0.5 0.075 0
0.6 0.075 0
0.7 0.075 0
0.8 0.075 0
0.9 0.075 0
1 0.075 0
0 0.1 0
0.1 0.1 0
0.2 0.1 0
0.3 0.1 0
0.4 0.1 0
0.5 0.1 0
0.6 0.1 0
0.7 0.1 0
0.8 0.1 0
0.9 0.1 0
1 0.1 0
0 0.125 0
0.1 0.125 0
0.2 0.125 0
0.3 0.125 0
0.4 0.125 0
0.5 0.125 0
0.6 0.125 0
0.7 0.125 0
0.8 0.125 0
0.9 0.125 0
1 0.125 0
0 0.15 0
0.1 0.15 0
0.2 0.15 0
0.3 0.15 0
0.4 0.15 0
0.5 0.15 0
0.6 0.15 0
0.7 0.15 0
0.8 0.15 0
0.9 0.15 0
1 0.15 0
0 0.175 0
0.1 0.175 0
0.2 0.175 0
0.3 0.175 0
0.4 0.175 0
0.5 0.175 0
0.6 0.175 0
0.7 0.175 0
0.8 0.175 0
0.9 0.175 0
1 0.175 0
0 0.2 0
0.1 0.2 0
0.2 0.2 0
0.3 0.2 0
0.4 0.2 0
0.5 0.2 0
0.6 0.2 0
0.7 0.2 0
0.8 0.2 0
0.9 0.2 0
1 0.2 0
0 0.225 0
0.1 0.225 0
0.2 0.225 0
0.3 0.225 0
0.4 0.225 0
0.5 0.225 0
0.6 0.225 0
0.7 0.225 0
0.8 0.225 0
0.9 0.225 0
1 0.225 0
0 0.25 0
0.1 0.25 0
0.2 0.25 0
0.3 0.25 0
0.4 0.25 0
0.5 0.25 0
0.6 0.25 0
0.7 0.25 0
0.8 0.25 0
0.9 0.25 0
1 0.25 0
0 0.275 0
0.1 0.275 0
0.2 0.275 0
0.3 0.275 0
0.4 0.275 0
0.5 0.275 0
0.6 0.275 0
0.7 0.275 0
0.8 0.275 0
0.9 0.275 0
1 0.275 0
0 0.3 0
0.1 0.3 0
0.2 0.3 0
0.3 0.3 0
0.4 0.3 0
0.5 0.3 0
0.6 0.3 0
0.7 0.3 0
0.8 0.3 0
0.9 0.3 0
1 0.3 0
0 0.325 0
0.1 0.325 0
0.2 0.325 0
0.3 0.325 0
0.4 0.325 0
0.5 0.325 0
0.6 0.325 0
0.7 0.325 0
0.8 0.325 0
0.9 0.325 0
1 0.325 0
0 0.35 0
0.1 0.35 0
0.2 0.35 0
0.3 0.35 0
0.4 0.35 0
0.5 0.35 0
0.6 0.35 0
0.7 0.35 0
0.8 0.35 0
0.9 0.35 0
1 0.35 0
0 0.375 0
0.1 0.375 0
0.2 0.375 0
0.3 0.375 0
0.4 0.375 0
0.5 0.375 0
0.6 0.375 0
0.7 0.375 0
0.8 0.375 0
0.9 0.375 0
1 0.375 0
0 0.4 0
0.1 0.4 0
0.2 0.4 0
0.3 0.4 0
0.4 0.4 0
0.5 0.4 0
0.6 0.4 0
0.7 0.4 0
0.8 0.4 0
0.9 0.4 0
1 0.4 0
0 0.425 0
0.1 0.425 0
0.2 0.425 0
0.3 0.425 0
0.4 0.425 0
0.5 0.425 0
0.6 0.425 0
0.7 0.425 0
0.8 0.425 0
0.9 0.425 0
1 0.425 0
0 0.45 0
0.1 0.45 0
0.2 0.45 0
0.3 0.45 0
0.4 0.45 0
0.5 0.45 0
0.6 0.45 0
0.7 0.45 0
0.8 0.45 0
0.9 0.45 0
1 0.45 0
0 0.475 0
0.1 0.475 0
0.2 0.475 0
0.3 0.475 0
0.4 0.475 0
0.5 0.475 0
0.6 0.475 0
0.7 0.475 0
0.8 0.475 0
0.9 0.475 0
1 0.475 0
0 0.5 0
0.1 0.5 0
0.2 0.5 0
0.3 0.5 0
0.4 0.5 0
0.5 0.5 0
0.6 0.5 0
0.7 0.5 0
0.8 0.5 0
0.9 0.5 0
1 0.5 0
CELLS 400 1600
3 0 1 12
3 0 12 11
3 1 2 13
3 1 13 12
3 2 3 14
3 2 14 13
3 3 4 15
3 3 15 14
3 4 5 16
3 4 16 15
3 5 6 17
3 5 17 16
3 6 7 18
3 6 18 17
3 7 8 19
3 7 19 18
3 8 9 20
3 8 20 19
3 9 10 21
3 9 21 20
3 11 12 23
3 11 23 22
3 12 13 24
3 12 24 23
3 13 14 25
3 13 25 24
3 14 15 26
3 14 26 25
3 15 16 27
3 15 27 26
3 16 17 28
3 16 28 27
3 17 18 29
3 17 29 28
3 18 19 30
3 18 30 29
3 19 20 31
3 19 31 30
3 20 21 32
3 20 32 31
3 22 23 34
3 22 34 33
3 23 24 35
3 23 35 34
3 24 25 36
3 24 36 35
3 25 26 37
3 25 37 36
3 26 27 38
3 26 38 37
3 27 28 39
3 27 39 38
3 28 29 40
3 28 40 39
3 29 30 41
3 29 41 40
3 30 31 42
3 30 42 41
3 31 32 43
3 31 43 42
3 33 34 45
3 33 45 44
3 34 35 46
3 34 46 45
3 35 36 47
3 35 47 46
3 36 37 48
3 36 48 47
3 37 38 49
3 37 49 48
3 38 39 50
3 38 50 49
3 39 40 51
3 39 51 50
3 40 41 52
3 40 52 51
3 41 42 53
3 41 53 52
3 42 43 54
3 42 54 53
3 44 45 56
3 44 56 55
3 45 46 57
3 45 57 56
3 46 47 58
3 46 58 57
3 47 48 59
3 47 59 58
3 48 49 60
3 48 60 59
3 49 50 61
3 49 61 60
3 50 51 62
3 50 62 61
3 51 52 63
3 51 63 62
3 52 53 64
3 52 64 63
3 53 54 65
3 53 65 64
3 55 56 67
3 55 67 66
3 56 57 68
3 56 68 67
3 57 58 69
3 57 69 68
3 58 59 70
3 58 70 69
3 59 60 71
3 59 71 70
3 60 61 72
3 60 72 71
3 61 62 73
3 61 73 72
3 62 63 74
3 62 74 73
3 63 64 75
3 63 75 74
3 64 65 76
3 64 76 75
3 66 67 78
3 66 78 77
3 67 68 79
3 67 79 78
3 68 69 80
3 68 80 79
3 69 70 81
3 69 81 80
3 70 71 82
3 70 82 81
3 71 72 83
3 71 83 82
3 72 73 84
3 72 84 83
3 73 74 85
3 73 85 84
3 74 75 86
3 74 86 85
3 75 76 87
3 75 87 86
3 77 78 89
3 77 89 88
3 78 79 90
3 78 90 89
3 79 80 91
3 79 91 90
3 80 81 92
3 80 92 91
3 81 82 93
3 81 93 92
3 82 83 94
3 82 94 93
3 83 84 95
3 83 95 94
3 84 85 96
3 84 96 95
3 85 86 97
3 85 97 96
3 86 87 98
3 86 98 97
3 88 89 100
3 88 100 99
3 89 90 101
3 89 101 100
3 90 91 102
3 90 102 101
3 91 92 103
3 91 103 102
3 92 93 104
3 92 104 103
3 93 94 105
3 93 105 104
3 94 95 106
3 94 106 105
3 95 96 107
3 95 107 106
3 96 97 108
3 96 108 107
3 97 98 109
3 97 109 108
3 99 100 111
3 99 111 110
3 100 101 112
3 100 112 111
3 101 102 113
3 101 113 112
3 102 103 114
3 102 114 113
3 103 104 115
3 103 115 114
3 104 105 116
3 104 116 115
3 105 106 117
3 105 117 116
3 106 107 118
3 106 118 117
3 107 108 119
3 107 119 118
3 108 109 120
3 108 120 119
3 110 111 122
3 110 122 121
3 111 112 123
3 111 123 122
3 112 113 124
3 112 124 123
3 113 114 125
3 113 125 124
3 114 115 126
3 114 126 125
3 115 116 127
3 115 127 126
3 116 117 128
3 116 128 127
3 117 118 129
3 117 129 128
3 118 119 130
3 118 130 129
3 119 120 131
3 119 131 130
3 121 122 133
3 121 133 132
3 122 123 134
3 122 134 133
3 123 124 135
3 123 135 134
3 124 125 136
3 124 136 135
3 125 126 137
3 125 137 136
3 126 127 138
3 126 138 137
3 127 128 139
3 127 139 138
3 128 129 140
3 128 140 139
3 129 130 141
3 129 141 140
3 130 131 142
3 130 142 141
3 132 133 144
3 132 144 143
3 133 134 145
3 133 145 144
3 134 135 146
3 134 146 145
3 135 136 147
3 135 147 146
3 136 137 148
3 136 148 147
3 137 138 149
3 137 149 148
3 138 139 150
3 138 150 149
3 139 140 151
3 139 151 150
3 140 141 152
3 140 152 151
3 141 142 153
3 141 153 152
3 143 144 155
3 143 155 154
3 144 145 156
3 144 156 155
3 145 146 157
3 145 157 156
3 146 147 158
3 146 158 157
3 147 148 159
3 147 159 158
3 148 149 160
3 148 160 159
3 149 150 161
3 149 161 160
3 150 151 162
3 150 162 161
3 151 152 163
3 151 163 162
3 152 153 164
3 152 164 163
3 154 155 166
3 154 166 165
3 155 156 167
3 155 167 166
3 156 157 168
3 156 168 167
3 157 158 169
3 157 169 168
3 158 159 170
3 158 170 169
3 159 160 171
3 159 171 170
3 160 161 172
3 160 172 171
3 161 162 173
3 161 173 172
3 162 163 174
3 162 174 173
3 163 164 175
3 163 175 174
3 165 166 177
3 165 177 176
3 166 167 178
3 166 178 177
3 167 168 179
3 167 179 178
3 168 169 180
3 168 180 179
3 169 170 181
3 169 181 180
3 170 171 182
3 170 182 181
3 171 172 183
3 171 183 182
3 172 173 184
3 172 184 183
3 173 174 185
3 173 185 184
3 174 175 186
3 174 186 185
3 176 177 188
3 176 188 187
3 177 178 189
3 177 189 188
3 178 179 190
3 178 190 189
3 179 180 191
3 179 191 190
3 180 181 192
3 180 192 191
3 181 182 193
3 181 193 192
3 182 183 194
3 182 194 193
3 183 184 195
3 183 195 194
3 184 185 196
3 184 196 195
3 185 186 197
3 185 197 196
3 187 188 199
3 187 199 198
3 188 189 200
3 188 200 199
3 189 190 201
3 189 201 200
3 190 191 202
3 190 202 201
3 191 192 203
3 191 203 202
3 192 193 204
3 192 204 203
3 193 194 205
3 193 205 204
3 194 195 206
3 194 206 205
3 195 196 207
3 195 207 206
3 196 197 208
3 196 208 207
3 198 199 210
3 198 210 209
3 199 200 211
3 199 211 210
3 200 201 212
3 200 212 211
3 201 202 213
3 201 213 212
3 202 203 214
3 202 214 213
3 203 204 215
3 203 215 214
3 204 205 216
3 204 216 215
3 205 206 217
3 205 217 216
3 206 207 218
3 206 218 217
3 207 208 219
3 207 219 218
3 209 210 221
3 209 221 220
3 210 211 222
3 210 222 221
3 211 212 223
3 211 223 222
3 212 213 224
3 212 224 223
3 213 214 225
3 213 225 224
3 214 215 226
3 214 226 225
3 215 216 227
3 215 227 226
3 216 217 228
3 216 228 227
3 217 218 229
3 217 229 228
3 218 219 230
3 218 230 229
CELL_TYPES 400
5
5
5
5
5
5
5
5
5
5
5
5
5
5
5
5
5
5
5
5
5
5
5
5
5
5
5
5
5
5
5
5
5
5
5
5
5
5
5
5
5
5
5
5
5
5
5
5
5
5
5
5
5
5
5
5
5
5
5
5
5
5
5
5
5
5
5
5
5
5
5
5
5
5
5
5
5
5
5
5
5
5
5
5
5
5
5
5
5
5
5
5
5
5
5
5
5
5
5
5
5
5
5
5
5
5
5
5
5
5
5
5
5
5
5
5
5
5
5
5
5
5
5
5
5
5
5
5
5
5
5
5
5
5
5
5
5
5
5
5
5
5
5
5
5
5
5
5
5
5
5
5
5
5
5
5
5
5
5
5
5
5
5
5
5
5
5
5
5
5
5
5
5
5
5
5
5
5
5
5
5
5
5
5
5
5
5
5
5
5
5
5
5
5
5
5
5
5
5
5
5
5
5
5
5
5
5
5
5
5
5
5
5
5
5
5
5
5
5
5
5
5
5
5
5
5
5
5
5
5
5
5
5
5
5
5
5
5
5
5
5
5
5
5
5
5
5
5
5
5
5
5
5
5
5
5
5
5
5
5
5
5
5
5
5
5
5
5
5
5
5
5
5
5
5
5
5
5
5
5
5
5
5
5
5
5
5
5
5
5
5
5
5
5
5
5
5
5
5
5
5
5
5
5
5
5
5
5
5
5
5
5
5
5
5
5
5
5
5
5
5
5
5
5
5
5
5
5
5
5
5
5
5
5
5
5
5
5
5
5
5
5
5
5
5
5
5
5
5
5
5
5
5
5
5
5
5
5
5
5
5
5
5
5
5
5
5
5
5
5
5
5
5
5
5
5
5
5
5
5
5
5
5
5
5
5
5
5
5
5
5
5
5
5
5
5
5
5
5
5
CELL_DATA 400
VECTORS Et double
-0.0637373 0.0869813 0
-0.240897 0.270335 0
-0.0338661 0.421346 0
-0.140364 0.526901 0
0.00968294 0.58321 0
0.0132887 0.582164 0
0.0491738 0.509046 0
0.161512 0.400434 0
0.0688595 0.242874 0
0.24768 0.0576908 0
0.0618765 -0.101098 0
0.239227 -0.297779 0
0.0320183 -0.398332 0
0.139725 -0.524846 0
-0.00916889 -0.552522 0
-0.0128772 -0.550385 0
-0.0469643 -0.509751 0
-0.160583 -0.37949 0
-0.0677323 -0.270929 0
-0.246596 -0.0741476 0
-0.367169 0.0758172 0
-0.526802 0.239796 0
-0.218008 0.378731 0
-0.314906 0.475642 0
0.0155696 0.525645 0
0.017699 0.527971 0
0.242525 0.458811 0
0.342919 0.364205 0
0.374539 0.219037 0
0.535504 0.0533803 0
0.362416 -0.0898245 0
0.522809 -0.268798 0
0.213375 -0.356425 0
0.311508 -0.473983 0
-0.0150083 -0.495747 0
-0.0172435 -0.497046 0
-0.237518 -0.459626 0
-0.339225 -0.343711 0
-0.370661 -0.248514 0
-0.532237 -0.0694833 0
-0.634692 0.0572078 0
-0.761317 0.185973 0
-0.382059 0.300222 0
-0.459706 0.378119 0
0.0185717 0.417715 0
0.0191367 0.423172 0
0.411195 0.363292 0
0.489863 0.292674 0
0.643238 0.172243 0
0.770595 0.0427424 0
0.627821 -0.070773 0
0.755546 -0.214977 0
0.374818 -0.279185 0
0.453715 -0.376959 0
-0.0179968 -0.389386 0
-0.0186678 -0.393895 0
-0.403596 -0.36428 0
-0.483592 -0.273177 0
-0.637325 -0.201593 0
-0.765633 -0.0581432 0
-0.840349 0.0332494 0
-0.921631 0.114112 0
-0.509826 0.193618 0
-0.560427 0.244044 0
0.0186573 0.26997 0
0.0177879 0.277944 0
0.538958 0.231755 0
0.588302 0.192662 0
0.848771 0.106945 0
0.930082 0.0266428 0
0.831968 -0.0459855 0
0.914489 -0.141715 0
0.500245 -0.174358 0
0.552072 -0.243358 0
-0.018099 -0.243925 0
-0.017333 -0.251041 0
-0.529053 -0.232879 0
-0.579696 -0.174669 0
-0.841373 -0.134774 0
-0.923774 -0.040954 0
-0.964138 0.0064793 0
-0.992106 0.031217 0
-0.5886 0.0694051 0
-0.606977 0.0866288 0
0.0161864 0.0968252 0
0.0141999 0.106406 0
0.613679 0.0770248 0
0.629015 0.0738049 0
0.971168 0.0294839 0
0.99852 0.00655614 0
0.954701 -0.0179923 0
0.98389 -0.0562392 0
0.576996 -0.0523633 0
0.596524 -0.0863206 0
-0.0156701 -0.0737014 0
-0.0137824 -0.0825172 0
-0.601796 -0.0781966 0
-0.618348 -0.0577701 0
-0.962683 -0.0546245 0
-0.991107 -0.0193957 0
-0.993981 -0.0203716 0
-0.965828 -0.0546337 0
-0.610405 -0.0602817 0
-0.59452 -0.0786966 0
0.0118413 -0.0848512 0
0.00918896 -0.0747626 0
0.628466 -0.0857687 0
0.608465 -0.0523786 0
0.99862 -0.0525137 0
0.969394 -0.0155652 0
0.983816 0.0104497 0
0.956756 0.0331171 0
0.597123 0.0747324 0
0.582261 0.0787518 0
-0.0113877 0.104505 0
-0.00882814 0.0950914 0
-0.614956 0.084648 0
-0.596032 0.0660572 0
-0.989325 0.0309755 0
-0.961044 0.00454185 0
-0.926922 -0.0446435 0
-0.845302 -0.135068 0
-0.57281 -0.18285 0
-0.523982 -0.235779 0
0.00651896 -0.257391 0
0.00371667 -0.247954 0
0.582316 -0.240666 0
0.529115 -0.173607 0
0.928619 -0.130885 0
0.845741 -0.0374761 0
0.916272 0.0366332 0
0.835552 0.117734 0
0.558206 0.194408 0
0.510223 0.235709 0
-0.00614367 0.273117 0
-0.00342813 0.264275 0
-0.567534 0.239681 0
-0.515224 0.184594 0
-0.918712 0.113612 0
-0.836584 0.0285563 0
-0.769446 -0.0640016 0
-0.642239 -0.202237 0
-0.479191 -0.286476 0
-0.401989 -0.369315 0
0.00119853 -0.404052 0
-0.00124855 -0.39635 0
0.48017 -0.372443 0
0.399142 -0.278038 0
0.768191 -0.19773 0
0.639835 -0.0568611 0
0.758506 0.0581631 0
0.631972 0.189548 0
0.463624 0.294915 0
0.38705 0.369231 0
-0.000912888 0.415488 0
0.00145286 0.408315 0
-0.464475 0.371652 0
-0.384113 0.286062 0
-0.757831 0.185166 0
-0.629997 0.0502643 0
-0.53687 -0.0766532 0
-0.376431 -0.249585 0
-0.33844 -0.361259 0
-0.240251 -0.466333 0
-0.00319778 -0.510654 0
-0.00486778 -0.505563 0
0.332395 -0.468106 0
0.231605 -0.355432 0
0.533193 -0.246198 0
0.371975 -0.0715706 0
0.525815 0.0731815 0
0.365812 0.241827 0
0.322271 0.366424 0
0.224465 0.46633 0
0.00338651 0.517535 0
0.0049792 0.512927 0
-0.316145 0.467538 0
-0.215771 0.36029 0
-0.522527 0.238611 0
-0.361594 0.0674448 0
-0.251871 -0.081509 0
-0.0738415 -0.272485 0
-0.164118 -0.400169 0
-0.0544494 -0.517461 0
-0.00593373 -0.566958 0
-0.0065477 -0.565045 0
0.153735 -0.518172 0
0.0431369 -0.398163 0
0.246745 -0.271177 0
0.068486 -0.0798495 0
0.240872 0.0805319 0
0.0630381 0.269815 0
0.147707 0.401977 0
0.0381582 0.517607 0
0.00602184 0.56912 0
0.00656066 0.567666 0
-0.137287 0.517828 0
-0.0268391 0.399719 0
-0.235929 0.268702 0
-0.0577126 0.0782715 0
0.0577126 -0.0782715 0
0.235929 -0.268702 0
0.0268391 -0.399719 0
0.137287 -0.517828 0
-0.00656066 -0.567666 0
-0.00602184 -0.56912 0
-0.0381582 -0.517607 0
-0.147707 -0.401977 0
-0.0630381 -0.269815 0
-0.240872 -0.0805319 0
-0.068486 0.0798495 0
-0.246745 0.271177 0
-0.0431369 0.398163 0
-0.153735 0.518172 0
0.0065477 0.565045 0
0.00593373 0.566958 0
0.0544494 0.517461 0
0.164118 0.400169 0
0.0738415 0.272485 0
0.251871 0.081509 0
0.361594 -0.0674448 0
0.522527 -0.238611 0
0.215771 -0.36029 0
0.316145 -0.467538 0
-0.0049792 -0.512927 0
-0.00338651 -0.517535 0
-0.224465 -0.46633 0
-0.322271 -0.366424 0
-0.365812 -0.241827 0
-0.525815 -0.0731815 0
-0.371975 0.0715706 0
-0.533193 0.246198 0
-0.231605 0.355432 0
-0.332395 0.468106 0
0.00486778 0.505563 0
0.00319778 0.510654 0
0.240251 0.466333 0
0.33844 0.361259 0
0.376431 0.249585 0
0.53687 0.0766532 0
0.629997 -0.0502643 0
0.757831 -0.185166 0
0.384113 -0.286062 0
0.464475 -0.371652 0
-0.00145286 -0.408315 0
0.000912888 -0.415488 0
-0.38705 -0.369231 0
-0.463624 -0.294915 0
-0.631972 -0.189548 0
-0.758506 -0.0581631 0
-0.639835 0.0568611 0
-0.768191 0.19773 0
-0.399142 0.278038 0
-0.48017 0.372443 0
0.00124855 0.39635 0
-0.00119853 0.404052 0
0.401989 0.369315 0
0.479191 0.286476 0
0.642239 0.202237 0
0.769446 0.0640016 0
0.836584 -0.0285563 0
0.918712 -0.113612 0
0.515224 -0.184594 0
0.567534 -0.239681 0
0.00342813 -0.264275 0
0.00614367 -0.273117 0
-0.510223 -0.235709 0
-0.558206 -0.194408 0
-0.835552 -0.117734 0
-0.916272 -0.0366332 0
-0.845741 0.0374761 0
-0.928619 0.130885 0
-0.529115 0.173607 0
-0.582316 0.240666 0
-0.00371667 0.247954 0
-0.00651896 0.257391 0
0.523982 0.235779 0
0.57281 0.18285 0
0.845302 0.135068 0
0.926922 0.0446435 0
0.961044 -0.00454185 0
0.989325 -0.0309755 0
0.596032 -0.0660572 0
0.614956 -0.084648 0
0.00882814 -0.0950914 0
0.0113877 -0.104505 0
-0.582261 -0.0787518 0
-0.597123 -0.0747324 0
-0.956756 -0.0331171 0
-0.983816 -0.0104497 0
-0.969394 0.0155652 0
-0.99862 0.0525137 0
-0.608465 0.0523786 0
-0.628466 0.0857687 0
-0.00918896 0.0747626 0
-0.0118413 0.0848512 0
0.59452 0.0786966 0
0.610405 0.0602817 0
0.965828 0.0546337 0
0.993981 0.0203716 0
0.991107 0.0193957 0
0.962683 0.0546245 0
0.618348 0.0577701 0
0.601796 0.0781966 0
0.0137824 0.0825172 0
0.0156701 0.0737014 0
-0.596524 0.0863206 0
-0.576996 0.0523633 0
-0.98389 0.0562392 0
-0.954701 0.0179923 0
-0.99852 -0.00655614 0
-0.971168 -0.0294839 0
-0.629015 -0.0738049 0
-0.613679 -0.0770248 0
-0.0141999 -0.106406 0
-0.0161864 -0.0968252 0
0.606977 -0.0866288 0
0.5886 -0.0694051 0
0.992106 -0.031217 0
0.964138 -0.0064793 0
0.923774 0.040954 0
0.841373 0.134774 0
0.579696 0.174669 0
0.529053 0.232879 0
0.017333 0.251041 0
0.018099 0.243925 0
-0.552072 0.243358 0
-0.500245 0.174358 0
-0.914489 0.141715 0
-0.831968 0.0459855 0
-0.930082 -0.0266428 0
-0.848771 -0.106945 0
-0.588302 -0.192662 0
-0.538958 -0.231755 0
-0.0177879 -0.277944 0
-0.0186573 -0.26997 0
0.560427 -0.244044 0
0.509826 -0.193618 0
0.921631 -0.114112 0
0.840349 -0.0332494 0
0.765633 0.0581432 0
0.637325 0.201593 0
0.483592 0.273177 0
0.403596 0.36428 0
0.0186678 0.393895 0
0.0179968 0.389386 0
-0.453715 0.376959 0
-0.374818 0.279185 0
-0.755546 0.214977 0
-0.627821 0.070773 0
-0.770595 -0.0427424 0
-0.643238 -0.172243 0
-0.489863 -0.292674 0
-0.411195 -0.363292 0
-0.0191367 -0.423172 0
-0.0185717 -0.417715 0
0.459706 -0.378119 0
0.382059 -0.300222 0
0.761317 -0.185973 0
0.634692 -0.0572078 0
0.532237 0.0694833 0
0.370661 0.248514 0
0.339225 0.343711 0
0.237518 0.459626 0
0.0172435 0.497046 0
0.0150083 0.495747 0
-0.311508 0.473983 0
-0.213375 0.356425 0
-0.522809 0.268798 0
-0.362416 0.0898245 0
-0.535504 -0.0533803 0
-0.374539 -0.219037 0
-0.342919 -0.364205 0
-0.242525 -0.458811 0
-0.017699 -0.527971 0
-0.0155696 -0.525645 0
0.314906 -0.475642 0
0.218008 -0.378731 0
0.526802 -0.239796 0
0.367169 -0.0758172 0
0.246596 0.0741476 0
0.0677323 0.270929 0
0.160583 0.37949 0
0.0469643 0.509751 0
0.0128772 0.550385 0
0.00916889 0.552522 0
-0.139725 0.524846 0
-0.0320183 0.398332 0
-0.239227 0.297779 0
-0.0618765 0.101098 0
-0.24768 -0.0576908 0
-0.0688595 -0.242874 0
-0.161512 -0.400434 0
-0.0491738 -0.509046 0
-0.0132887 -0.582164 0
-0.00968294 -0.58321 0
0.140364 -0.526901 0
0.0338661 -0.421346 0
0.240897 -0.270335 0
0.0637373 -0.0869813 0
