# vtk DataFile Version 3.0
tp3485 cell-vector
ASCII
DATASET UNSTRUCTURED_GRID
POINTS 231 double
0 0 0
0.1 0 0
0.2 0 0
0.3 0 0
0.4 0 0
0.5 0 0
0.6 0 0
0.7 0 0
0.8 0 0
0.9 0 0
1 0 0
0 0.025 0
0.1 0.025 0
0.2 0.025 0
0.3 0.025 0
0.4 0.025 0
0.5 0.025 0
0.6 0.025 0
0.7 0.025 0
0.8 0.025 0
0.9 0.025 0
1 0.025 0
0 0.05 0
0.1 0.05 0
0.2 0.05 0
0.3 0.05 0
0.4 0.05 0
0.5 0.05 0
0.6 0.05 0
0.7 0.05 0
0.8 0.05 0
0.9 0.05 0
1 0.05 0
0 0.075 0
0.1 0.075 0
0.2 0.075 0
0.3 0.075 0
0.4 0.075 0
0.5 0.075 0
0.6 0.075 0
0.7 0.075 0
0.8 0.075 0
0.9 0.075 0
1 0.075 0
0 0.1 0
0.1 0.1 0
0.2 0.1 0
0.3 0.1 0
0.4 0.1 0
0.5 0.1 0
0.6 0.1 0
0.7 0.1 0
0.8 0.1 0
0.9 0.1 0
1 0.1 0
0 0.125 0
0.1 0.125 0
0.2 0.125 0
0.3 0.125 0
0.4 0.125 0
0.5 0.125 0
0.6 0.125 0
0.7 0.125 0
0.8 0.125 0
0.9 0.125 0
1 0.125 0
0 0.15 0
0.1 0.15 0
0.2 0.15 0
0.3 0.15 0
0.4 0.15 0
0.5 0.15 0
0.6 0.15 0
0.7 0.15 0
0.8 0.15 0
0.9 0.15 0
1 0.15 0
0 0.175 0
0.1 0.175 0
0.2 0.175 0
0.3 0.175 0
0.4 0.175 0
0.5 0.175 0
0.6 0.175 0
0.7 0.175 0
0.8 0.175 0
0.9 0.175 0
1 0.175 0
0 0.2 0
0.1 0.2 0
0.2 0.2 0
0.3 0.2 0
0.4 0.2 0
0.5 0.2 0
0.6 0.2 0
0.7 0.2 0
0.8 0.2 0
0.9 0.2 0
1 0.2 0
0 0.225 0
0.1 0.225 0
0.2 0.225 0
0.3 0.225 0
0.4 0.225 0
0.5 0.225 0
0.6 0.225 0
0.7 0.225 0
0.8 0.225 0
0.9 0.225 0
1 0.225 0
0 0.25 0
0.1 0.25 0
0.2 0.25 0
0.3 0.25 0
0.4 0.25 0
0.5 0.25 0
0.6 0.25 0
0.7 0.25 0
0.8 0.25 0
0.9 0.25 0
1 0.25 0
0 0.275 0
0.1 0.275 0
0.2 0.275 0
0.3 0.275 0
0.4 0.275 0
0.5 0.275 0
0.6 0.275 0
0.7 0.275 0
0.8 0.275 0
0.9 0.275 0
1 0.275 0
0 0.3 0
0.1 0.3 0
0.2 0.3 0
0.3 0.3 0
0.4 0.3 0
0.5 0.3 0
0.6 0.3 0
0.7 0.3 0
0.8 0.3 0
0.9 0.3 0
1 0.3 0
0 0.325 0
0.1 0.325 0
0.2 0.325 0
0.3 0.325 0
0.4 0.325 0
0.5 0.325 0
0.6 0.325 0
0.7 0.325 0
0.8 0.325 0
0.9 0.325 0
1 0.325 0
0 0.35 0
0.1 0.35 0
0.2 0.35 0
0.3 0.35 0
0.4 0.35 0
0.5 0.35 0
0.6 0.35 0
0.7 0.35 0
0.8 0.35 0
0.9 0.35 0
1 0.35 0
0 0.375 0
0.1 0.375 0
0.2 0.375 0
0.3 0.375 0
0.4 0.375 0
0.5 0.375 0
0.6 0.375 0
0.7 0.375 0
0.8 0.375 0
0.9 0.375 0
1 0.375 0
0 0.4 0
0.1 0.4 0
0.2 0.4 0
0.3 0.4 0
0.4 0.4 0
0.5 0.4 0
0.6 0.4 0
0.7 0.4 0
0.8 0.4 0
0.9 0.4 0
1 0.4 0
0 0.425 0
0.1 0.425 0
0.2 0.425 0
0.3 0.425 0
0.4 0.425 0
0.5 0.425 0
0.6 0.425 0
0.7 0.425 0
0.8 0.425 0
0.9 0.425 0
1 0.425 0
0 0.45 0
0.1 0.45 0
0.2 0.45 0
0.3 0.45 0
0.4 0.45 0
0.5 0.45 0
0.6 0.45 0
0.7 0.45 0
0.8 0.45 0
0.9 0.45 0
1 0.45 0
0 0.475 0
0.1 0.475 0
0.2 0.475 0
0.3 0.475 0
0.4 0.475 0
0.5 0.475 0
0.6 0.475 0
0.7 0.475 0
0.8 0.475 0
0.9 0.475 0
1 0.475 0
0 0.5 0
0.1 0.5 0
0.2 0.5 0
0.3 0.5 0
0.4 0.5 0
0.5 0.5 0
0.6 0.5 0
0.7 0.5 0
0.8 0.5 0
0.9 0.5 0
1 0.5 0
CELLS 400 1600
3 0 1 12
3 0 12 11
3 1 2 13
3 1 13 12
3 2 3 14
3 2 14 13
3 3 4 15
3 3 15 14
3 4 5 16
3 4 16 15
3 5 6 17
3 5 17 16
3 6 7 18
3 6 18 17
3 7 8 19
3 7 19 18
3 8 9 20
3 8 20 19
3 9 10 21
3 9 21 20
3 11 12 23
3 11 23 22
3 12 13 24
3 12 24 23
3 13 14 25
3 13 25 24
3 14 15 26
3 14 26 25
3 15 16 27
3 15 27 26
3 16 17 28
3 16 28 27
3 17 18 29
3 17 29 28
3 18 19 30
3 18 30 29
3 19 20 31
3 19 31 30
3 20 21 32
3 20 32 31
3 22 23 34
3 22 34 33
3 23 24 35
3 23 35 34
3 24 25 36
3 24 36 35
3 25 26 37
3 25 37 36
3 26 27 38
3 26 38 37
3 27 28 39
3 27 39 38
3 28 29 40
3 28 40 39
3 29 30 41
3 29 41 40
3 30 31 42
3 30 42 41
3 31 32 43
3 31 43 42
3 33 34 45
3 33 45 44
3 34 35 46
3 34 46 45
3 35 36 47
3 35 47 46
3 36 37 48
3 36 48 47
3 37 38 49
3 37 49 48
3 38 39 50
3 38 50 49
3 39 40 51
3 39 51 50
3 40 41 52
3 40 52 51
3 41 42 53
3 41 53 52
3 42 43 54
3 42 54 53
3 44 45 56
3 44 56 55
3 45 46 57
3 45 57 56
3 46 47 58
3 46 58 57
3 47 48 59
3 47 59 58
3 48 49 60
3 48 60 59
3 49 50 61
3 49 61 60
3 50 51 62
3 50 62 61
3 51 52 63
3 51 63 62
3 52 53 64
3 52 64 63
3 53 54 65
3 53 65 64
3 55 56 67
3 55 67 66
3 56 57 68
3 56 68 67
3 57 58 69
3 57 69 68
3 58 59 70
3 58 70 69
3 59 60 71
3 59 71 70
3 60 61 72
3 60 72 71
3 61 62 73
3 61 73 72
3 62 63 74
3 62 74 73
3 63 64 75
3 63 75 74
3 64 65 76
3 64 76 75
3 66 67 78
3 66 78 77
3 67 68 79
3 67 79 78
3 68 69 80
3 68 80 79
3 69 70 81
3 69 81 80
3 70 71 82
3 70 82 81
3 71 72 83
3 71 83 82
3 72 73 84
3 72 84 83
3 73 74 85
3 73 85 84
3 74 75 86
3 74 86 85
3 75 76 87
3 75 87 86
3 77 78 89
3 77 89 88
3 78 79 90
3 78 90 89
3 79 80 91
3 79 91 90
3 80 81 92
3 80 92 91
3 81 82 93
3 81 93 92
3 82 83 94
3 82 94 93
3 83 84 95
3 83 95 94
3 84 85 96
3 84 96 95
3 85 86 97
3 85 97 96
3 86 87 98
3 86 98 97
3 88 89 100
3 88 100 99
3 89 90 101
3 89 101 100
3 90 91 102
3 90 102 101
3 91 92 103
3 91 103 102
3 92 93 104
3 92 104 103
3 93 94 105
3 93 105 104
3 94 95 106
3 94 106 105
3 95 96 107
3 95 107 106
3 96 97 108
3 96 108 107
3 97 98 109
3 97 109 108
3 99 100 111
3 99 111 110
3 100 101 112
3 100 112 111
3 101 102 113
3 101 113 112
3 102 103 114
3 102 114 113
3 103 104 115
3 103 115 114
3 104 105 116
3 104 116 115
3 105 106 117
3 105 117 116
3 106 107 118
3 106 118 117
3 107 108 119
3 107 119 118
3 108 109 120
3 108 120 119
3 110 111 122
3 110 122 121
3 111 112 123
3 111 123 122
3 112 113 124
3 112 124 123
3 113 114 125
3 113 125 124
3 114 115 126
3 114 126 125
3 115 116 127
3 115 127 126
3 116 117 128
3 116 128 127
3 117 118 129
3 117 129 128
3 118 119 130
3 118 130 129
3 119 120 131
3 119 131 130
3 121 122 133
3 121 133 132
3 122 123 134
3 122 134 133
3 123 124 135
3 123 135 134
3 124 125 136
3 124 136 135
3 125 126 137
3 125 137 136
3 126 127 138
3 126 138 137
3 127 128 139
3 127 139 138
3 128 129 140
3 128 140 139
3 129 130 141
3 129 141 140
3 130 131 142
3 130 142 141
3 132 133 144
3 132 144 143
3 133 134 145
3 133 145 144
3 134 135 146
3 134 146 145
3 135 136 147
3 135 147 146
3 136 137 148
3 136 148 147
3 137 138 149
3 137 149 148
3 138 139 150
3 138 150 149
3 139 140 151
3 139 151 150
3 140 141 152
3 140 152 151
3 141 142 153
3 141 153 152
3 143 144 155
3 143 155 154
3 144 145 156
3 144 156 155
3 145 146 157
3 145 157 156
3 146 147 158
3 146 158 157
3 147 148 159
3 147 159 158
3 148 149 160
3 148 160 159
3 149 150 161
3 149 161 160
3 150 151 162
3 150 162 161
3 151 152 163
3 151 163 162
3 152 153 164
3 152 164 163
3 154 155 166
3 154 166 165
3 155 156 167
3 155 167 166
3 156 157 168
3 156 168 167
3 157 158 169
3 157 169 168
3 158 159 170
3 158 170 169
3 159 160 171
3 159 171 170
3 160 161 172
3 160 172 171
3 161 162 173
3 161 173 172
3 162 163 174
3 162 174 173
3 163 164 175
3 163 175 174
3 165 166 177
3 165 177 176
3 166 167 178
3 166 178 177
3 167 168 179
3 167 179 178
3 168 169 180
3 168 180 179
3 169 170 181
3 169 181 180
3 170 171 182
3 170 182 181
3 171 172 183
3 171 183 182
3 172 173 184
3 172 184 183
3 173 174 185
3 173 185 184
3 174 175 186
3 174 186 185
3 176 177 188
3 176 188 187
3 177 178 189
3 177 189 188
3 178 179 190
3 178 190 189
3 179 180 191
3 179 191 190
3 180 181 192
3 180 192 191
3 181 182 193
3 181 193 192
3 182 183 194
3 182 194 193
3 183 184 195
3 183 195 194
3 184 185 196
3 184 196 195
3 185 186 197
3 185 197 196
3 187 188 199
3 187 199 198
3 188 189 200
3 188 200 199
3 189 190 201
3 189 201 200
3 190 191 202
3 190 202 201
3 191 192 203
3 191 203 202
3 192 193 204
3 192 204 203
3 193 194 205
3 193 205 204
3 194 195 206
3 194 206 205
3 195 196 207
3 195 207 206
3 196 197 208
3 196 208 207
3 198 199 210
3 198 210 209
3 199 200 211
3 199 211 210
3 200 201 212
3 200 212 211
3 201 202 213
3 201 213 212
3 202 203 214
3 202 214 213
3 203 204 215
3 203 215 214
3 204 205 216
3 204 216 215
3 205 206 217
3 205 217 216
3 206 207 218
3 206 218 217
3 207 208 219
3 207 219 218
3 209 210 221
3 209 221 220
3 210 211 222
3 210 222 221
3 211 212 223
3 211 223 222
3 212 213 224
3 212 224 223
3 213 214 225
3 213 225 224
3 214 215 226
3 214 226 225
3 215 216 227
3 215 227 226
3 216 217 228
3 216 228 227
3 217 218 229
3 217 229 228
3 218 219 230
3 218 230 229
CELL_TYPES 400
5
5
5
5
5
5
5
5
5
5
5
5
5
5
5
5
5
5
5
5
5
5
5
5
5
5
5
5
5
5
5
5
5
5
5
5
5
5
5
5
5
5
5
5
5
5
5
5
5
5
5
5
5
5
5
5
5
5
5
5
5
5
5
5
5
5
5
5
5
5
5
5
5
5
5
5
5
5
5
5
5
5
5
5
5
5
5
5
5
5
5
5
5
5
5
5
5
5
5
5
5
5
5
5
5
5
5
5
5
5
5
5
5
5
5
5
5
5
5
5
5
5
5
5
5
5
5
5
5
5
5
5
5
5
5
5
5
5
5
5
5
5
5
5
5
5
5
5
5
5
5
5
5
5
5
5
5
5
5
5
5
5
5
5
5
5
5
5
5
5
5
5
5
5
5
5
5
5
5
5
5
5
5
5
5
5
5
5
5
5
5
5
5
5
5
5
5
5
5
5
5
5
5
5
5
5
5
5
5
5
5
5
5
5
5
5
5
5
5
5
5
5
5
5
5
5
5
5
5
5
5
5
5
5
5
5
5
5
5
5
5
5
5
5
5
5
5
5
5
5
5
5
5
5
5
5
5
5
5
5
5
5
5
5
5
5
5
5
5
5
5
5
5
5
5
5
5
5
5
5
5
5
5
5
5
5
5
5
5
5
5
5
5
5
5
5
5
5
5
5
5
5
5
5
5
5
5
5
5
5
5
5
5
5
5
5
5
5
5
5
5
5
5
5
5
5
5
5
5
5
5
5
5
5
5
5
5
5
5
5
5
5
5
5
5
5
5
5
5
5
5
5
5
5
5
5
5
5
5
5
5
5
5
5
5
5
5
5
5
5
5
5
5
5
5
5
5
5
5
5
5
5
5
5
5
5
5
5
5
5
5
5
5
5
5
5
5
5
5
5
CELL_DATA 400
VECTORS Ht double
0.473695 -0.151365 0
0.442821 -0.118424 0
0.999314 -0.0370291 0
0.937667 0.0199601 0
0.653171 0.108307 0
0.619005 0.123565 0
-0.256068 0.158629 0
-0.233299 0.119003 0
-0.936223 0.0766554 0
-0.875165 0.0114094 0
-0.828484 -0.063426 0
-0.779349 -0.10359 0
-0.0564129 -0.150333 0
-0.0596083 -0.129592 0
0.749085 -0.120118 0
0.695531 -0.0510412 0
0.966088 0.00317877 0
0.904375 0.0658667 0
0.431126 0.107782 0
0.405034 0.130562 0
0.392496 -0.40446 0
0.311032 -0.327253 0
0.845438 -0.118264 0
0.674992 0.036108 0
0.565571 0.268442 0
0.457444 0.354432 0
-0.201971 0.418811 0
-0.154989 0.363829 0
-0.786532 0.219331 0
-0.622551 0.057834 0
-0.707595 -0.147364 0
-0.56182 -0.289954 0
-0.0622094 -0.389464 0
-0.0547509 -0.386936 0
0.62147 -0.328225 0
0.483209 -0.171615 0
0.817029 -0.0109894 0
0.642714 0.172873 0
0.372226 0.302096 0
0.294963 0.380766 0
0.229988 -0.571755 0
0.114818 -0.462508 0
0.511365 -0.177693 0
0.268366 0.0420685 0
0.353551 0.3686 0
0.193482 0.507701 0
-0.109719 0.588301 0
-0.050412 0.532597 0
-0.468357 0.315766 0
-0.237869 0.0948943 0
-0.428199 -0.196137 0
-0.216774 -0.411611 0
-0.0488201 -0.540682 0
-0.030594 -0.559774 0
0.358441 -0.465193 0
0.167177 -0.256702 0
0.485352 -0.0249846 0
0.237261 0.238237 0
0.228211 0.43289 0
0.117396 0.545984 0
0.0208201 -0.617299 0
-0.103803 -0.496418 0
0.0684175 -0.200787 0
-0.19512 0.037327 0
0.0607065 0.389248 0
-0.117439 0.551444 0
-0.00170501 0.630308 0
0.05611 0.588526 0
-0.0518858 0.342564 0
0.19449 0.112297 0
-0.0503021 -0.20113 0
0.18101 -0.444079 0
-0.0167255 -0.570685 0
0.00922437 -0.609721 0
0.0200532 -0.499618 0
-0.181399 -0.285336 0
0.0447682 -0.0350628 0
-0.222036 0.248962 0
0.0310532 0.470002 0
-0.0883337 0.589458 0
-0.190394 -0.531237 0
-0.298058 -0.422868 0
-0.388552 -0.180528 0
-0.615897 0.0236334 0
-0.250808 0.328296 0
-0.40842 0.477329 0
0.0977859 0.535809 0
0.141611 0.518942 0
0.371915 0.291422 0
0.580504 0.103668 0
0.34366 -0.163659 0
0.544226 -0.382503 0
0.0279021 -0.473177 0
0.0557996 -0.525305 0
-0.317993 -0.422756 0
-0.485361 -0.248715 0
-0.406897 -0.0383564 0
-0.633421 0.204485 0
-0.175388 0.404072 0
-0.276545 0.501449 0
-0.358639 -0.332023 0
-0.426463 -0.258694 0
-0.761406 -0.119365 0
-0.903319 0.00457099 0
-0.513435 0.201111 0
-0.615496 0.302304 0
0.168141 0.325505 0
0.189536 0.338225 0
0.711264 0.171406 0
0.837058 0.0684693 0
0.666759 -0.0941754 0
0.792156 -0.242291 0
0.074269 -0.270083 0
0.0968636 -0.32456 0
-0.581333 -0.250594 0
-0.678653 -0.152618 0
-0.769504 -0.0335674 0
-0.905893 0.116381 0
-0.345099 0.248661 0
-0.405331 0.301339 0
-0.448169 -0.0625496 0
-0.461776 -0.0400359 0
-0.969849 -0.0291055 0
-0.995295 -0.015269 0
-0.668875 0.0367492 0
-0.691746 0.0648455 0
0.196794 0.0452833 0
0.192997 0.0849115 0
0.89354 0.00740065 0
0.909938 0.0126235 0
0.846696 -0.00946524 0
0.86855 -0.0553498 0
0.109457 -0.00654799 0
0.119848 -0.0511373 0
-0.713293 -0.0204272 0
-0.720634 -0.0165865 0
-0.962783 -0.0213092 0
-0.979249 0.00539641 0
-0.440118 0.0372988 0
-0.44583 0.0332743 0
-0.440216 0.219038 0
-0.396884 0.185462 0
-0.968859 0.0713277 0
-0.871893 -0.0313161 0
-0.681098 -0.128676 0
-0.618014 -0.183415 0
0.181454 -0.243808 0
0.155578 -0.186487 0
0.880913 -0.165039 0
0.785358 -0.052385 0
0.841913 0.0713964 0
0.754312 0.137187 0
0.121785 0.259158 0
0.115358 0.235208 0
-0.687017 0.217291 0
-0.604505 0.130029 0
-0.943981 -0.00401094 0
-0.837223 -0.103427 0
-0.438927 -0.18389 0
-0.38859 -0.243642 0
-0.337053 0.451885 0
-0.246354 0.368946 0
-0.758621 0.15987 0
-0.559883 -0.040019 0
-0.544773 -0.259975 0
-0.407767 -0.38889 0
0.129816 -0.478903 0
0.0896576 -0.417234 0
0.678254 -0.307364 0
0.492577 -0.111844 0
0.651106 0.131381 0
0.472143 0.294061 0
0.104184 0.468523 0
0.0801458 0.471693 0
-0.510786 0.410041 0
-0.358134 0.254371 0
-0.717133 0.0146053 0
-0.510878 -0.186411 0
-0.341213 -0.366341 0
-0.245664 -0.468397 0
-0.161512 0.585643 0
-0.0432747 0.470913 0
-0.384712 0.21619 0
-0.127138 -0.0395944 0
-0.28714 -0.330443 0
-0.104856 -0.507632 0
0.0569686 -0.60904 0
0.012819 -0.557149 0
0.331657 -0.386586 0
0.0970982 -0.15111 0
0.313969 0.159133 0
0.0820059 0.382813 0
0.0566732 0.575636 0
0.0187183 0.606264 0
-0.225514 0.514816 0
-0.0372788 0.327375 0
-0.33198 0.0303625 0
-0.0715946 -0.226384 0
-0.167934 -0.469741 0
-0.0479623 -0.591469 0
0.0479623 0.591469 0
0.167934 0.469741 0
0.0715946 0.226384 0
0.33198 -0.0303625 0
0.0372788 -0.327375 0
0.225514 -0.514816 0
-0.0187183 -0.606264 0
-0.0566732 -0.575636 0
-0.0820059 -0.382813 0
-0.313969 -0.159133 0
-0.0970982 0.15111 0
-0.331657 0.386586 0
-0.012819 0.557149 0
-0.0569686 0.60904 0
0.104856 0.507632 0
0.28714 0.330443 0
0.127138 0.0395944 0
0.384712 -0.21619 0
0.0432747 -0.470913 0
0.161512 -0.585643 0
0.245664 0.468397 0
0.341213 0.366341 0
0.510878 0.186411 0
0.717133 -0.0146053 0
0.358134 -0.254371 0
0.510786 -0.410041 0
-0.0801458 -0.471693 0
-0.104184 -0.468523 0
-0.472143 -0.294061 0
-0.651106 -0.131381 0
-0.492577 0.111844 0
-0.678254 0.307364 0
-0.0896576 0.417234 0
-0.129816 0.478903 0
0.407767 0.38889 0
0.544773 0.259975 0
0.559883 0.040019 0
0.758621 -0.15987 0
0.246354 -0.368946 0
0.337053 -0.451885 0
0.38859 0.243642 0
0.438927 0.18389 0
0.837223 0.103427 0
0.943981 0.00401094 0
0.604505 -0.130029 0
0.687017 -0.217291 0
-0.115358 -0.235208 0
-0.121785 -0.259158 0
-0.754312 -0.137187 0
-0.841913 -0.0713964 0
-0.785358 0.052385 0
-0.880913 0.165039 0
-0.155578 0.186487 0
-0.181454 0.243808 0
0.618014 0.183415 0
0.681098 0.128676 0
0.871893 0.0313161 0
0.968859 -0.0713277 0
0.396884 -0.185462 0
0.440216 -0.219038 0
0.44583 -0.0332743 0
0.440118 -0.0372988 0
0.979249 -0.00539641 0
0.962783 0.0213092 0
0.720634 0.0165865 0
0.713293 0.0204272 0
-0.119848 0.0511373 0
-0.109457 0.00654799 0
-0.86855 0.0553498 0
-0.846696 0.00946524 0
-0.909938 -0.0126235 0
-0.89354 -0.00740065 0
-0.192997 -0.0849115 0
-0.196794 -0.0452833 0
0.691746 -0.0648455 0
0.668875 -0.0367492 0
0.995295 0.015269 0
0.969849 0.0291055 0
0.461776 0.0400359 0
0.448169 0.0625496 0
0.405331 -0.301339 0
0.345099 -0.248661 0
0.905893 -0.116381 0
0.769504 0.0335674 0
0.678653 0.152618 0
0.581333 0.250594 0
-0.0968636 0.32456 0
-0.074269 0.270083 0
-0.792156 0.242291 0
-0.666759 0.0941754 0
-0.837058 -0.0684693 0
-0.711264 -0.171406 0
-0.189536 -0.338225 0
-0.168141 -0.325505 0
0.615496 -0.302304 0
0.513435 -0.201111 0
0.903319 -0.00457099 0
0.761406 0.119365 0
0.426463 0.258694 0
0.358639 0.332023 0
0.276545 -0.501449 0
0.175388 -0.404072 0
0.633421 -0.204485 0
0.406897 0.0383564 0
0.485361 0.248715 0
0.317993 0.422756 0
-0.0557996 0.525305 0
-0.0279021 0.473177 0
-0.544226 0.382503 0
-0.34366 0.163659 0
-0.580504 -0.103668 0
-0.371915 -0.291422 0
-0.141611 -0.518942 0
-0.0977859 -0.535809 0
0.40842 -0.477329 0
0.250808 -0.328296 0
0.615897 -0.0236334 0
0.388552 0.180528 0
0.298058 0.422868 0
0.190394 0.531237 0
0.0883337 -0.589458 0
-0.0310532 -0.470002 0
0.222036 -0.248962 0
-0.0447682 0.0350628 0
0.181399 0.285336 0
-0.0200532 0.499618 0
-0.00922437 0.609721 0
0.0167255 0.570685 0
-0.18101 0.444079 0
0.0503021 0.20113 0
-0.19449 -0.112297 0
0.0518858 -0.342564 0
-0.05611 -0.588526 0
0.00170501 -0.630308 0
0.117439 -0.551444 0
-0.0607065 -0.389248 0
0.19512 -0.037327 0
-0.0684175 0.200787 0
0.103803 0.496418 0
-0.0208201 0.617299 0
-0.117396 -0.545984 0
-0.228211 -0.43289 0
-0.237261 -0.238237 0
-0.485352 0.0249846 0
-0.167177 0.256702 0
-0.358441 0.465193 0
0.030594 0.559774 0
0.0488201 0.540682 0
0.216774 0.411611 0
0.428199 0.196137 0
0.237869 -0.0948943 0
0.468357 -0.315766 0
0.050412 -0.532597 0
0.109719 -0.588301 0
-0.193482 -0.507701 0
-0.353551 -0.3686 0
-0.268366 -0.0420685 0
-0.511365 0.177693 0
-0.114818 0.462508 0
-0.229988 0.571755 0
-0.294963 -0.380766 0
-0.372226 -0.302096 0
-0.642714 -0.172873 0
-0.817029 0.0109894 0
-0.483209 0.171615 0
-0.62147 0.328225 0
0.0547509 0.386936 0
0.0622094 0.389464 0
0.56182 0.289954 0
0.707595 0.147364 0
0.622551 -0.057834 0
0.786532 -0.219331 0
0.154989 -0.363829 0
0.201971 -0.418811 0
-0.457444 -0.354432 0
-0.565571 -0.268442 0
-0.674992 -0.036108 0
-0.845438 0.118264 0
-0.311032 0.327253 0
-0.392496 0.40446 0
-0.405034 -0.130562 0
-0.431126 -0.107782 0
-0.904375 -0.0658667 0
-0.966088 -0.00317877 0
-0.695531 0.0510412 0
-0.749085 0.120118 0
0.0596083 0.129592 0
0.0564129 0.150333 0
0.779349 0.10359 0
0.828484 0.063426 0
0.875165 -0.0114094 0
0.936223 -0.0766554 0
0.233299 -0.119003 0
0.256068 -0.158629 0
-0.619005 -0.123565 0
-0.653171 -0.108307 0
-0.937667 -0.0199601 0
-0.999314 0.0370291 0
-0.442821 0.118424 0
-0.473695 0.151365 0
