# vtk DataFile Version 3.0
tp3485 cell-vector
ASCII
DATASET UNSTRUCTURED_GRID
POINTS 231 double
0 0 0
0.1 0 0
0.2 0 0
0.3 0 0
0.4 0 0
0.5 0 0
0.6 0 0
0.7 0 0
0.8 0 0
0.9 0 0
1 0 0
0 0.025 0
0.1 0.025 0
0.2 0.025 0
0.3 0.025 0
0.4 0.025 0
0.5 0.025 0
0.6 0.025 0
0.7 0.025 0
0.8 0.025 0
0.9 0.025 0
1 0.025 0
0 0.05 0
0.1 0.05 0
0.2 0.05 0
0.3 0.05 0
0.4 0.05 0
0.5 0.05 0
0.6 0.05 0
0.7 0.05 0
0.8 0.05 0
0.9 0.05 0
1 0.05 0
0 0.075 0
0.1 0.075 0
0.2 0.075 0
0.3 0.075 0
0.4 0.075 0
0.5 0.075 0
0.6 0.075 0
0.7 0.075 0
0.8 0.075 0
0.9 0.075 0
1 0.075 0
0 0.1 0
0.1 0.1 0
0.2 0.1 0
0.3 0.1 0
0.4 0.1 0
0.5 0.1 0
0.6 0.1 0
0.7 0.1 0
0.8 0.1 0
0.9 0.1 0
1 0.1 0
0 0.125 0
0.1 0.125 0
0.2 0.125 0
0.3 0.125 0
0.4 0.125 0
0.5 0.125 0
0.6 0.125 0
0.7 0.125 0
0.8 0.125 0
0.9 0.125 0
1 0.125 0
0 0.15 0
0.1 0.15 0
0.2 0.15 0
0.3 0.15 0
0.4 0.15 0
0.5 0.15 0
0.6 0.15 0
0.7 0.15 0
0.8 0.15 0
0.9 0.15 0
1 0.15 0
0 0.175 0
0.1 0.175 0
0.2 0.175 0
0.3 0.175 0
0.4 0.175 0
0.5 0.175 0
0.6 0.175 0
0.7 0.175 0
0.8 0.175 0
0.9 0.175 0
1 0.175 0
0 0.2 0
0.1 0.2 0
0.2 0.2 0
0.3 0.2 0
0.4 0.2 0
0.5 0.2 0
0.6 0.2 0
0.7 0.2 0
0.8 0.2 0
0.9 0.2 0
1 0.2 0
0 0.225 0
0.1 0.225 0
0.2 0.225 0
0.3 0.225 0
0.4 0.225 0
0.5 0.225 0
0.6 0.225 0
0.7 0.225 0
0.8 0.225 0
0.9 0.225 0
1 0.225 0
0 0.25 0
0.1 0.25 0
0.2 0.25 0
0.3 0.25 0
0.4 0.25 0
0.5 0.25 0
0.6 0.25 0
0.7 0.25 0
0.8 0.25 0
0.9 0.25 0
1 0.25 0
0 0.275 0
0.1 0.275 0
0.2 0.275 0
0.3 0.275 0
0.4 0.275 0
0.5 0.275 0
0.6 0.275 0
0.7 0.275 0
0.8 0.275 0
0.9 0.275 0
1 0.275 0
0 0.3 0
0.1 0.3 0
0.2 0.3 0
0.3 0.3 0
0.4 0.3 0
0.5 0.3 0
0.6 0.3 0
0.7 0.3 0
0.8 0.3 0
0.9 0.3 0
1 0.3 0
0 0.325 0
0.1 0.325 0
0.2 0.325 0
0.3 0.325 0
0.4 0.325 0
0.5 0.325 0
0.6 0.325 0
0.7 0.325 0
0.8 0.325 0
0.9 0.325 0
1 0.325 0
0 0.35 0
0.1 0.35 0
0.2 0.35 0
0.3 0.35 0
0.4 0.35 0
0.5 0.35 0
0.6 0.35 0
0.7 0.35 0
0.8 0.35 0
0.9 0.35 0
1 0.35 0
0 0.375 0
0.1 0.375 0
0.2 0.375 0
0.3 0.375 0
0.4 0.375 0
0.5 0.375 0
0.6 0.375 0
0.7 0.375 0
0.8 0.375 0
0.9 0.375 0
1 0.375 0
0 0.4 0
0.1 0.4 0
0.2 0.4 0
0.3 0.4 0
0.4 0.4 0
0.5 0.4 0
0.6 0.4 0
0.7 0.4 0
0.8 0.4 0
0.9 0.4 0
1 0.4 0
0 0.425 0
0.1 0.425 0
0.2 0.425 0
0.3 0.425 0
0.4 0.425 0
0.5 0.425 0
0.6 0.425 0
0.7 0.425 0
0.8 0.425 0
0.9 0.425 0
1 0.425 0
0 0.45 0
0.1 0.45 0
0.2 0.45 0
0.3 0.45 0
0.4 0.45 0
0.5 0.45 0
0.6 0.45 0
0.7 0.45 0
0.8 0.45 0
0.9 0.45 0
1 0.45 0
0 0.475 0
0.1 0.475 0
0.2 0.475 0
0.3 0.475 0
0.4 0.475 0
0.5 0.475 0
0.6 0.475 0
0.7 0.475 0
0.8 0.475 0
0.9 0.475 0
1 0.475 0
0 0.5 0
0.1 0.5 0
0.2 0.5 0
0.3 0.5 0
0.4 0.5 0
0.5 0.5 0
0.6 0.5 0
0.7 0.5 0
0.8 0.5 0
0.9 0.5 0
1 0.5 0
CELLS 400 1600
3 0 1 12
3 0 12 11
3 1 2 13
3 1 13 12
3 2 3 14
3 2 14 13
3 3 4 15
3 3 15 14
3 4 5 16
3 4 16 15
3 5 6 17
3 5 17 16
3 6 7 18
3 6 18 17
3 7 8 19
3 7 19 18
3 8 9 20
3 8 20 19
3 9 10 21
3 9 21 20
3 11 12 23
3 11 23 22
3 12 13 24
3 12 24 23
3 13 14 25
3 13 25 24
3 14 15 26
3 14 26 25
3 15 16 27
3 15 27 26
3 16 17 28
3 16 28 27
3 17 18 29
3 17 29 28
3 18 19 30
3 18 30 29
3 19 20 31
3 19 31 30
3 20 21 32
3 20 32 31
3 22 23 34
3 22 34 33
3 23 24 35
3 23 35 34
3 24 25 36
3 24 36 35
3 25 26 37
3 25 37 36
3 26 27 38
3 26 38 37
3 27 28 39
3 27 39 38
3 28 29 40
3 28 40 39
3 29 30 41
3 29 41 40
3 30 31 42
3 30 42 41
3 31 32 43
3 31 43 42
3 33 34 45
3 33 45 44
3 34 35 46
3 34 46 45
3 35 36 47
3 35 47 46
3 36 37 48
3 36 48 47
3 37 38 49
3 37 49 48
3 38 39 50
3 38 50 49
3 39 40 51
3 39 51 50
3 40 41 52
3 40 52 51
3 41 42 53
3 41 53 52
3 42 43 54
3 42 54 53
3 44 45 56
3 44 56 55
3 45 46 57
3 45 57 56
3 46 47 58
3 46 58 57
3 47 48 59
3 47 59 58
3 48 49 60
3 48 60 59
3 49 50 61
3 49 61 60
3 50 51 62
3 50 62 61
3 51 52 63
3 51 63 62
3 52 53 64
3 52 64 63
3 53 54 65
3 53 65 64
3 55 56 67
3 55 67 66
3 56 57 68
3 56 68 67
3 57 58 69
3 57 69 68
3 58 59 70
3 58 70 69
3 59 60 71
3 59 71 70
3 60 61 72
3 60 72 71
3 61 62 73
3 61 73 72
3 62 63 74
3 62 74 73
3 63 64 75
3 63 75 74
3 64 65 76
3 64 76 75
3 66 67 78
3 66 78 77
3 67 68 79
3 67 79 78
3 68 69 80
3 68 80 79
3 69 70 81
3 69 81 80
3 70 71 82
3 70 82 81
3 71 72 83
3 71 83 82
3 72 73 84
3 72 84 83
3 73 74 85
3 73 85 84
3 74 75 86
3 74 86 85
3 75 76 87
3 75 87 86
3 77 78 89
3 77 89 88
3 78 79 90
3 78 90 89
3 79 80 91
3 79 91 90
3 80 81 92
3 80 92 91
3 81 82 93
3 81 93 92
3 82 83 94
3 82 94 93
3 83 84 95
3 83 95 94
3 84 85 96
3 84 96 95
3 85 86 97
3 85 97 96
3 86 87 98
3 86 98 97
3 88 89 100
3 88 100 99
3 89 90 101
3 89 101 100
3 90 91 102
3 90 102 101
3 91 92 103
3 91 103 102
3 92 93 104
3 92 104 103
3 93 94 105
3 93 105 104
3 94 95 106
3 94 106 105
3 95 96 107
3 95 107 106
3 96 97 108
3 96 108 107
3 97 98 109
3 97 109 108
3 99 100 111
3 99 111 110
3 100 101 112
3 100 112 111
3 101 102 113
3 101 113 112
3 102 103 114
3 102 114 113
3 103 104 115
3 103 115 114
3 104 105 116
3 104 116 115
3 105 106 117
3 105 117 116
3 106 107 118
3 106 118 117
3 107 108 119
3 107 119 118
3 108 109 120
3 108 120 119
3 110 111 122
3 110 122 121
3 111 112 123
3 111 123 122
3 112 113 124
3 112 124 123
3 113 114 125
3 113 125 124
3 114 115 126
3 114 126 125
3 115 116 127
3 115 127 126
3 116 117 128
3 116 128 127
3 117 118 129
3 117 129 128
3 118 119 130
3 118 130 129
3 119 120 131
3 119 131 130
3 121 122 133
3 121 133 132
3 122 123 134
3 122 134 133
3 123 124 135
3 123 135 134
3 124 125 136
3 124 136 135
3 125 126 137
3 125 137 136
3 126 127 138
3 126 138 137
3 127 128 139
3 127 139 138
3 128 129 140
3 128 140 139
3 129 130 141
3 129 141 140
3 130 131 142
3 130 142 141
3 132 133 144
3 132 144 143
3 133 134 145
3 133 145 144
3 134 135 146
3 134 146 145
3 135 136 147
3 135 147 146
3 136 137 148
3 136 148 147
3 137 138 149
3 137 149 148
3 138 139 150
3 138 150 149
3 139 140 151
3 139 151 150
3 140 141 152
3 140 152 151
3 141 142 153
3 141 153 152
3 143 144 155
3 143 155 154
3 144 145 156
3 144 156 155
3 145 146 157
3 145 157 156
3 146 147 158
3 146 158 157
3 147 148 159
3 147 159 158
3 148 149 160
3 148 160 159
3 149 150 161
3 149 161 160
3 150 151 162
3 150 162 161
3 151 152 163
3 151 163 162
3 152 153 164
3 152 164 163
3 154 155 166
3 154 166 165
3 155 156 167
3 155 167 166
3 156 157 168
3 156 168 167
3 157 158 169
3 157 169 168
3 158 159 170
3 158 170 169
3 159 160 171
3 159 171 170
3 160 161 172
3 160 172 171
3 161 162 173
3 161 173 172
3 162 163 174
3 162 174 173
3 163 164 175
3 163 175 174
3 165 166 177
3 165 177 176
3 166 167 178
3 166 178 177
3 167 168 179
3 167 179 178
3 168 169 180
3 168 180 179
3 169 170 181
3 169 181 180
3 170 171 182
3 170 182 181
3 171 172 183
3 171 183 182
3 172 173 184
3 172 184 183
3 173 174 185
3 173 185 184
3 174 175 186
3 174 186 185
3 176 177 188
3 176 188 187
3 177 178 189
3 177 189 188
3 178 179 190
3 178 190 189
3 179 180 191
3 179 191 190
3 180 181 192
3 180 192 191
3 181 182 193
3 181 193 192
3 182 183 194
3 182 194 193
3 183 184 195
3 183 195 194
3 184 185 196
3 184 196 195
3 185 186 197
3 185 197 196
3 187 188 199
3 187 199 198
3 188 189 200
3 188 200 199
3 189 190 201
3 189 201 200
3 190 191 202
3 190 202 201
3 191 192 203
3 191 203 202
3 192 193 204
3 192 204 203
3 193 194 205
3 193 205 204
3 194 195 206
3 194 206 205
3 195 196 207
3 195 207 206
3 196 197 208
3 196 208 207
3 198 199 210
3 198 210 209
3 199 200 211
3 199 211 210
3 200 201 212
3 200 212 211
3 201 202 213
3 201 213 212
3 202 203 214
3 202 214 213
3 203 204 215
3 203 215 214
3 204 205 216
3 204 216 215
3 205 206 217
3 205 217 216
3 206 207 218
3 206 218 217
3 207 208 219
3 207 219 218
3 209 210 221
3 209 221 220
3 210 211 222
3 210 222 221
3 211 212 223
3 211 223 222
3 212 213 224
3 212 224 223
3 213 214 225
3 213 225 224
3 214 215 226
3 214 226 225
3 215 216 227
3 215 227 226
3 216 217 228
3 216 228 227
3 217 218 229
3 217 229 228
3 218 219 230
3 218 230 229
CELL_TYPES 400
5
5
5
5
5
5
5
5
5
5
5
5
5
5
5
5
5
5
5
5
5
5
5
5
5
5
5
5
5
5
5
5
5
5
5
5
5
5
5
5
5
5
5
5
5
5
5
5
5
5
5
5
5
5
5
5
5
5
5
5
5
5
5
5
5
5
5
5
5
5
5
5
5
5
5
5
5
5
5
5
5
5
5
5
5
5
5
5
5
5
5
5
5
5
5
5
5
5
5
5
5
5
5
5
5
5
5
5
5
5
5
5
5
5
5
5
5
5
5
5
5
5
5
5
5
5
5
5
5
5
5
5
5
5
5
5
5
5
5
5
5
5
5
5
5
5
5
5
5
5
5
5
5
5
5
5
5
5
5
5
5
5
5
5
5
5
5
5
5
5
5
5
5
5
5
5
5
5
5
5
5
5
5
5
5
5
5
5
5
5
5
5
5
5
5
5
5
5
5
5
5
5
5
5
5
5
5
5
5
5
5
5
5
5
5
5
5
5
5
5
5
5
5
5
5
5
5
5
5
5
5
5
5
5
5
5
5
5
5
5
5
5
5
5
5
5
5
5
5
5
5
5
5
5
5
5
5
5
5
5
5
5
5
5
5
5
5
5
5
5
5
5
5
5
5
5
5
5
5
5
5
5
5
5
5
5
5
5
5
5
5
5
5
5
5
5
5
5
5
5
5
5
5
5
5
5
5
5
5
5
5
5
5
5
5
5
5
5
5
5
5
5
5
5
5
5
5
5
5
5
5
5
5
5
5
5
5
5
5
5
5
5
5
5
5
5
5
5
5
5
5
5
5
5
5
5
5
5
5
5
5
5
5
5
5
5
5
5
5
5
5
5
5
5
5
5
5
5
5
5
5
5
5
5
5
5
5
5
5
5
5
5
5
5
5
5
5
5
5
5
CELL_DATA 400
VECTORS Ht double
0.00606219 -0.0343777 0
-0.00308423 -0.00151555 0
0.199951 -0.0939166 0
0.171252 -0.0140944 0
0.646827 -0.111464 0
0.598728 -0.0178024 0
0.997494 -0.070746 0
0.936885 0.0237969 0
0.963903 -0.0273778 0
0.901212 0.0791437 0
0.699409 -0.0289107 0
0.641654 0.0935014 0
0.559343 -0.0528048 0
0.508034 0.0639271 0
0.615422 -0.0426635 0
0.571742 0.0387851 0
0.588508 0.0140333 0
0.558301 0.0493919 0
0.251308 0.0628269 0
0.240491 0.0702669 0
-0.00517343 -0.0871233 0
-0.0289321 0.000548867 0
0.152813 -0.252302 0
0.0779609 -0.0444296 0
0.548711 -0.305919 0
0.420494 -0.0652602 0
0.864437 -0.198189 0
0.697719 0.0547813 0
0.832658 -0.0788819 0
0.656056 0.22345 0
0.590942 -0.0813131 0
0.427733 0.270324 0
0.465985 -0.147909 0
0.322913 0.180974 0
0.526667 -0.123869 0
0.405071 0.102792 0
0.517953 0.0300358 0
0.430851 0.136136 0
0.225912 0.179428 0
0.193375 0.206727 0
-0.0304542 -0.111767 0
-0.062871 0.0153955 0
0.0496304 -0.362919 0
-0.0537515 -0.0665305 0
0.334602 -0.446308 0
0.154371 -0.11152 0
0.568243 -0.282708 0
0.330802 0.0674535 0
0.531836 -0.101521 0
0.279226 0.327486 0
0.33684 -0.108871 0
0.104457 0.398793 0
0.249084 -0.217698 0
0.0464406 0.256676 0
0.324563 -0.189882 0
0.151228 0.133171 0
0.355673 0.0382987 0
0.229213 0.187927 0
0.163111 0.268549 0
0.115346 0.305974 0
-0.0611892 -0.0987749 0
-0.0941646 0.0464105 0
-0.0824296 -0.40619 0
-0.190102 -0.0764921 0
0.0510908 -0.508771 0
-0.141856 -0.153659 0
0.169226 -0.305435 0
-0.0888537 0.0562749 0
0.124788 -0.0836979 0
-0.149819 0.374217 0
-0.00460474 -0.101792 0
-0.254385 0.45701 0
-0.0401881 -0.250576 0
-0.256426 0.272997 0
0.0524848 -0.232042 0
-0.134959 0.116685 0
0.132449 0.0367396 0
-0.00781756 0.190599 0
0.0741916 0.315934 0
0.0205536 0.350564 0
-0.0866204 -0.0480347 0
-0.111762 0.0916068 0
-0.20837 -0.376116 0
-0.294922 -0.0728108 0
-0.24044 -0.484624 0
-0.404169 -0.187777 0
-0.251935 -0.260972 0
-0.476615 0.0217518 0
-0.303095 -0.0244116 0
-0.541268 0.357786 0
-0.354793 -0.0589252 0
-0.566104 0.43679 0
-0.332913 -0.2419 0
-0.513166 0.22517 0
-0.230753 -0.245095 0
-0.39139 0.0521018 0
-0.109241 0.0254727 0
-0.235122 0.141488 0
-0.024957 0.314833 0
-0.0741465 0.333667 0
-0.0965341 0.0308721 0
-0.107092 0.143681 0
-0.293566 -0.281293 0
-0.338134 -0.0566695 0
-0.47715 -0.381772 0
-0.576198 -0.209393 0
-0.611173 -0.158545 0
-0.756011 -0.0294832 0
-0.662688 0.0660495 0
-0.814184 0.2844 0
-0.632366 0.0116385 0
-0.757588 0.344957 0
-0.558015 -0.194797 0
-0.660142 0.122784 0
-0.463643 -0.227918 0
-0.562192 -0.0490384 0
-0.323858 0.00685544 0
-0.410448 0.0502991 0
-0.116925 0.267065 0
-0.152471 0.260307 0
-0.083905 0.12064 0
-0.076355 0.19143 0
-0.311964 -0.142873 0
-0.302949 -0.0316625 0
-0.608342 -0.222719 0
-0.621389 -0.214202 0
-0.8386 -0.0199745 0
-0.874592 -0.0860186 0
-0.880153 0.168098 0
-0.913718 0.170761 0
-0.771449 0.0941182 0
-0.78176 0.201584 0
-0.658486 -0.119423 0
-0.657252 -0.0122974 0
-0.59538 -0.183567 0
-0.609924 -0.164677 0
-0.472028 -0.0149738 0
-0.502916 -0.0628261 0
-0.186139 0.182413 0
-0.201818 0.14617 0
-0.0468586 0.200039 0
-0.0217853 0.222233 0
-0.252419 0.0100441 0
-0.190181 -0.00302266 0
-0.606391 -0.039654 0
-0.530831 -0.199016 0
-0.892902 0.125095 0
-0.814515 -0.134155 0
-0.912577 0.257114 0
-0.822587 0.0403914 0
-0.736534 0.168448 0
-0.628371 0.0355673 0
-0.604632 -0.0308098 0
-0.497512 -0.15073 0
-0.59699 -0.11864 0
-0.52382 -0.267032 0
-0.528416 -0.0349719 0
-0.499064 -0.171649 0
-0.221798 0.0765086 0
-0.215578 0.0142389 0
0.0105135 0.248699 0
0.0484443 0.225051 0
-0.121749 0.14661 0
-0.0186738 0.0234826 0
-0.472631 0.132326 0
-0.325074 -0.162699 0
-0.769509 0.245662 0
-0.595616 -0.160994 0
-0.756849 0.309063 0
-0.564375 -0.0813228 0
-0.530733 0.214797 0
-0.326715 -0.121465 0
-0.401365 0.0542332 0
-0.209381 -0.262136 0
-0.467743 -0.0421127 0
-0.322248 -0.328904 0
-0.486602 -0.0482916 0
-0.405173 -0.249651 0
-0.219805 -0.0323373 0
-0.194162 -0.110012 0
0.0786992 0.251835 0
0.121675 0.193266 0
0.0562103 0.240665 0
0.178305 0.0427483 0
-0.236946 0.262399 0
-0.0495381 -0.106865 0
-0.500859 0.316117 0
-0.270403 -0.157453 0
-0.449912 0.306206 0
-0.19798 -0.172324 0
-0.195524 0.218209 0
0.0603645 -0.24162 0
-0.0878629 0.120517 0
0.148764 -0.321796 0
-0.235436 0.0361412 0
-0.0488312 -0.330078 0
-0.359947 -0.0513679 0
-0.245404 -0.276045 0
-0.183293 -0.126701 0
-0.144583 -0.203852 0
0.144583 0.203852 0
0.183293 0.126701 0
0.245404 0.276045 0
0.359947 0.0513679 0
0.0488312 0.330078 0
0.235436 -0.0361412 0
-0.148764 0.321796 0
0.0878629 -0.120517 0
-0.0603645 0.24162 0
0.195524 -0.218209 0
0.19798 0.172324 0
0.449912 -0.306206 0
0.270403 0.157453 0
0.500859 -0.316117 0
0.0495381 0.106865 0
0.236946 -0.262399 0
-0.178305 -0.0427483 0
-0.0562103 -0.240665 0
-0.121675 -0.193266 0
-0.0786992 -0.251835 0
0.194162 0.110012 0
0.219805 0.0323373 0
0.405173 0.249651 0
0.486602 0.0482916 0
0.322248 0.328904 0
0.467743 0.0421127 0
0.209381 0.262136 0
0.401365 -0.0542332 0
0.326715 0.121465 0
0.530733 -0.214797 0
0.564375 0.0813228 0
0.756849 -0.309063 0
0.595616 0.160994 0
0.769509 -0.245662 0
0.325074 0.162699 0
0.472631 -0.132326 0
0.0186738 -0.0234826 0
0.121749 -0.14661 0
-0.0484443 -0.225051 0
-0.0105135 -0.248699 0
0.215578 -0.0142389 0
0.221798 -0.0765086 0
0.499064 0.171649 0
0.528416 0.0349719 0
0.52382 0.267032 0
0.59699 0.11864 0
0.497512 0.15073 0
0.604632 0.0308098 0
0.628371 -0.0355673 0
0.736534 -0.168448 0
0.822587 -0.0403914 0
0.912577 -0.257114 0
0.814515 0.134155 0
0.892902 -0.125095 0
0.530831 0.199016 0
0.606391 0.039654 0
0.190181 0.00302266 0
0.252419 -0.0100441 0
0.0217853 -0.222233 0
0.0468586 -0.200039 0
0.201818 -0.14617 0
0.186139 -0.182413 0
0.502916 0.0628261 0
0.472028 0.0149738 0
0.609924 0.164677 0
0.59538 0.183567 0
0.657252 0.0122974 0
0.658486 0.119423 0
0.78176 -0.201584 0
0.771449 -0.0941182 0
0.913718 -0.170761 0
0.880153 -0.168098 0
0.874592 0.0860186 0
0.8386 0.0199745 0
0.621389 0.214202 0
0.608342 0.222719 0
0.302949 0.0316625 0
0.311964 0.142873 0
0.076355 -0.19143 0
0.083905 -0.12064 0
0.152471 -0.260307 0
0.116925 -0.267065 0
0.410448 -0.0502991 0
0.323858 -0.00685544 0
0.562192 0.0490384 0
0.463643 0.227918 0
0.660142 -0.122784 0
0.558015 0.194797 0
0.757588 -0.344957 0
0.632366 -0.0116385 0
0.814184 -0.2844 0
0.662688 -0.0660495 0
0.756011 0.0294832 0
0.611173 0.158545 0
0.576198 0.209393 0
0.47715 0.381772 0
0.338134 0.0566695 0
0.293566 0.281293 0
0.107092 -0.143681 0
0.0965341 -0.0308721 0
0.0741465 -0.333667 0
0.024957 -0.314833 0
0.235122 -0.141488 0
0.109241 -0.0254727 0
0.39139 -0.0521018 0
0.230753 0.245095 0
0.513166 -0.22517 0
0.332913 0.2419 0
0.566104 -0.43679 0
0.354793 0.0589252 0
0.541268 -0.357786 0
0.303095 0.0244116 0
0.476615 -0.0217518 0
0.251935 0.260972 0
0.404169 0.187777 0
0.24044 0.484624 0
0.294922 0.0728108 0
0.20837 0.376116 0
0.111762 -0.0916068 0
0.0866204 0.0480347 0
-0.0205536 -0.350564 0
-0.0741916 -0.315934 0
0.00781756 -0.190599 0
-0.132449 -0.0367396 0
0.134959 -0.116685 0
-0.0524848 0.232042 0
0.256426 -0.272997 0
0.0401881 0.250576 0
0.254385 -0.45701 0
0.00460474 0.101792 0
0.149819 -0.374217 0
-0.124788 0.0836979 0
0.0888537 -0.0562749 0
-0.169226 0.305435 0
0.141856 0.153659 0
-0.0510908 0.508771 0
0.190102 0.0764921 0
0.0824296 0.40619 0
0.0941646 -0.0464105 0
0.0611892 0.0987749 0
-0.115346 -0.305974 0
-0.163111 -0.268549 0
-0.229213 -0.187927 0
-0.355673 -0.0382987 0
-0.151228 -0.133171 0
-0.324563 0.189882 0
-0.0464406 -0.256676 0
-0.249084 0.217698 0
-0.104457 -0.398793 0
-0.33684 0.108871 0
-0.279226 -0.327486 0
-0.531836 0.101521 0
-0.330802 -0.0674535 0
-0.568243 0.282708 0
-0.154371 0.11152 0
-0.334602 0.446308 0
0.0537515 0.0665305 0
-0.0496304 0.362919 0
0.062871 -0.0153955 0
0.0304542 0.111767 0
-0.193375 -0.206727 0
-0.225912 -0.179428 0
-0.430851 -0.136136 0
-0.517953 -0.0300358 0
-0.405071 -0.102792 0
-0.526667 0.123869 0
-0.322913 -0.180974 0
-0.465985 0.147909 0
-0.427733 -0.270324 0
-0.590942 0.0813131 0
-0.656056 -0.22345 0
-0.832658 0.0788819 0
-0.697719 -0.0547813 0
-0.864437 0.198189 0
-0.420494 0.0652602 0
-0.548711 0.305919 0
-0.0779609 0.0444296 0
-0.152813 0.252302 0
0.0289321 -0.000548867 0
0.00517343 0.0871233 0
-0.240491 -0.0702669 0
-0.251308 -0.0628269 0
-0.558301 -0.0493919 0
-0.588508 -0.0140333 0
-0.571742 -0.0387851 0
-0.615422 0.0426635 0
-0.508034 -0.0639271 0
-0.559343 0.0528048 0
-0.641654 -0.0935014 0
-0.699409 0.0289107 0
-0.901212 -0.0791437 0
-0.963903 0.0273778 0
-0.936885 -0.0237969 0
-0.997494 0.070746 0
-0.598728 0.0178024 0
-0.646827 0.111464 0
-0.171252 0.0140944 0
-0.199951 0.0939166 0
0.00308423 0.00151555 0
-0.00606219 0.0343777 0
