# vtk DataFile Version 3.0
tp3485 cell-vector
ASCII
DATASET UNSTRUCTURED_GRID
POINTS 231 double
0 0 0
0.1 0 0
0.2 0 0
0.3 0 0
0.4 0 0
0.5 0 0
0.6 0 0
0.7 0 0
0.8 0 0
0.9 0 0
1 0 0
0 0.025 0
0.1 0.025 0
0.2 0.025 0
0.3 0.025 0
0.4 0.025 0
0.5 0.025 0
0.6 0.025 0
0.7 0.025 0
0.8 0.025 0
0.9 0.025 0
1 0.025 0
0 0.05 0
0.1 0.05 0
0.2 0.05 0
0.3 0.05 0
0.4 0.05 0
0.5 0.05 0
0.6 0.05 0
0.7 0.05 0
0.8 0.05 0
0.9 0.05 0
1 0.05 0
0 0.075 0
0.1 0.075 0
0.2 0.075 0
0.3 0.075 0
0.4 0.075 0
0.5 0.075 0
0.6 0.075 0
0.7 0.075 0
0.8 0.075 0
0.9 0.075 0
1 0.075 0
0 0.1 0
0.1 0.1 0
0.2 0.1 0
0.3 0.1 0
0.4 0.1 0
0.5 0.1 0
0.6 0.1 0
0.7 0.1 0
0.8 0.1 0
0.9 0.1 0
1 0.1 0
0 0.125 0
0.1 0.125 0
0.2 0.125 0
0.3 0.125 0
0.4 0.125 0
0.5 0.125 0
0.6 0.125 0
0.7 0.125 0
0.8 0.125 0
0.9 0.125 0
1 0.125 0
0 0.15 0
0.1 0.15 0
0.2 0.15 0
0.3 0.15 0
0.4 0.15 0
0.5 0.15 0
0.6 0.15 0
0.7 0.15 0
0.8 0.15 0
0.9 0.15 0
1 0.15 0
0 0.175 0
0.1 0.175 0
0.2 0.175 0
0.3 0.175 0
0.4 0.175 0
0.5 0.175 0
0.6 0.175 0
0.7 0.175 0
0.8 0.175 0
0.9 0.175 0
1 0.175 0
0 0.2 0
0.1 0.2 0
0.2 0.2 0
0.3 0.2 0
0.4 0.2 0
0.5 0.2 0
0.6 0.2 0
0.7 0.2 0
0.8 0.2 0
0.9 0.2 0
1 0.2 0
0 0.225 0
0.1 0.225 0
0.2 0.225 0
0.3 0.225 0
0.4 0.225 0
0.5 0.225 0
0.6 0.225 0
0.7 0.225 0
0.8 0.225 0
0.9 0.225 0
1 0.225 0
0 0.25 0
0.1 0.25 0
0.2 0.25 0
0.3 0.25 0
0.4 0.25 0
0.5 0.25 0
0.6 0.25 0
0.7 0.25 0
0.8 0.25 0
0.9 0.25 0
1 0.25 0
0 0.275 0
0.1 0.275 0
0.2 0.275 0
0.3 0.275 0
0.4 0.275 0
0.5 0.275 0
0.6 0.275 0
0.7 0.275 0
0.8 0.275 0
0.9 0.275 0
1 0.275 0
0 0.3 0
0.1 0.3 0
0.2 0.3 0
0.3 0.3 0
0.4 0.3 0
0.5 0.3 0
0.6 0.3 0
0.7 0.3 0
0.8 0.3 0
0.9 0.3 0
1 0.3 0
0 0.325 0
0.1 0.325 0
0.2 0.325 0
0.3 0.325 0
0.4 0.325 0
0.5 0.325 0
0.6 0.325 0
0.7 0.325 0
0.8 0.325 0
0.9 0.325 0
1 0.325 0
0 0.35 0
0.1 0.35 0
0.2 0.35 0
0.3 0.35 0
0.4 0.35 0
0.5 0.35 0
0.6 0.35 0
0.7 0.35 0
0.8 0.35 0
0.9 0.35 0
1 0.35 0
0 0.375 0
0.1 0.375 0
0.2 0.375 0
0.3 0.375 0
0.4 0.375 0
0.5 0.375 0
0.6 0.375 0
0.7 0.375 0
0.8 0.375 0
0.9 0.375 0
1 0.375 0
0 0.4 0
0.1 0.4 0
0.2 0.4 0
0.3 0.4 0
0.4 0.4 0
0.5 0.4 0
0.6 0.4 0
0.7 0.4 0
0.8 0.4 0
0.9 0.4 0
1 0.4 0
0 0.425 0
0.1 0.425 0
0.2 0.425 0
0.3 0.425 0
0.4 0.425 0
0.5 0.425 0
0.6 0.425 0
0.7 0.425 0
0.8 0.425 0
0.9 0.425 0
1 0.425 0
0 0.45 0
0.1 0.45 0
0.2 0.45 0
0.3 0.45 0
0.4 0.45 0
0.5 0.45 0
0.6 0.45 0
0.7 0.45 0
0.8 0.45 0
0.9 0.45 0
1 0.45 0
0 0.475 0
0.1 0.475 0
0.2 0.475 0
0.3 0.475 0
0.4 0.475 0
0.5 0.475 0
0.6 0.475 0
0.7 0.475 0
0.8 0.475 0
0.9 0.475 0
1 0.475 0
0 0.5 0
0.1 0.5 0
0.2 0.5 0
0.3 0.5 0
0.4 0.5 0
0.5 0.5 0
0.6 0.5 0
0.7 0.5 0
0.8 0.5 0
0.9 0.5 0
1 0.5 0
CELLS 400 1600
3 0 1 12
3 0 12 11
3 1 2 13
3 1 13 12
3 2 3 14
3 2 14 13
3 3 4 15
3 3 15 14
3 4 5 16
3 4 16 15
3 5 6 17
3 5 17 16
3 6 7 18
3 6 18 17
3 7 8 19
3 7 19 18
3 8 9 20
3 8 20 19
3 9 10 21
3 9 21 20
3 11 12 23
3 11 23 22
3 12 13 24
3 12 24 23
3 13 14 25
3 13 25 24
3 14 15 26
3 14 26 25
3 15 16 27
3 15 27 26
3 16 17 28
3 16 28 27
3 17 18 29
3 17 29 28
3 18 19 30
3 18 30 29
3 19 20 31
3 19 31 30
3 20 21 32
3 20 32 31
3 22 23 34
3 22 34 33
3 23 24 35
3 23 35 34
3 24 25 36
3 24 36 35
3 25 26 37
3 25 37 36
3 26 27 38
3 26 38 37
3 27 28 39
3 27 39 38
3 28 29 40
3 28 40 39
3 29 30 41
3 29 41 40
3 30 31 42
3 30 42 41
3 31 32 43
3 31 43 42
3 33 34 45
3 33 45 44
3 34 35 46
3 34 46 45
3 35 36 47
3 35 47 46
3 36 37 48
3 36 48 47
3 37 38 49
3 37 49 48
3 38 39 50
3 38 50 49
3 39 40 51
3 39 51 50
3 40 41 52
3 40 52 51
3 41 42 53
3 41 53 52
3 42 43 54
3 42 54 53
3 44 45 56
3 44 56 55
3 45 46 57
3 45 57 56
3 46 47 58
3 46 58 57
3 47 48 59
3 47 59 58
3 48 49 60
3 48 60 59
3 49 50 61
3 49 61 60
3 50 51 62
3 50 62 61
3 51 52 63
3 51 63 62
3 52 53 64
3 52 64 63
3 53 54 65
3 53 65 64
3 55 56 67
3 55 67 66
3 56 57 68
3 56 68 67
3 57 58 69
3 57 69 68
3 58 59 70
3 58 70 69
3 59 60 71
3 59 71 70
3 60 61 72
3 60 72 71
3 61 62 73
3 61 73 72
3 62 63 74
3 62 74 73
3 63 64 75
3 63 75 74
3 64 65 76
3 64 76 75
3 66 67 78
3 66 78 77
3 67 68 79
3 67 79 78
3 68 69 80
3 68 80 79
3 69 70 81
3 69 81 80
3 70 71 82
3 70 82 81
3 71 72 83
3 71 83 82
3 72 73 84
3 72 84 83
3 73 74 85
3 73 85 84
3 74 75 86
3 74 86 85
3 75 76 87
3 75 87 86
3 77 78 89
3 77 89 88
3 78 79 90
3 78 90 89
3 79 80 91
3 79 91 90
3 80 81 92
3 80 92 91
3 81 82 93
3 81 93 92
3 82 83 94
3 82 94 93
3 83 84 95
3 83 95 94
3 84 85 96
3 84 96 95
3 85 86 97
3 85 97 96
3 86 87 98
3 86 98 97
3 88 89 100
3 88 100 99
3 89 90 101
3 89 101 100
3 90 91 102
3 90 102 101
3 91 92 103
3 91 103 102
3 92 93 104
3 92 104 103
3 93 94 105
3 93 105 104
3 94 95 106
3 94 106 105
3 95 96 107
3 95 107 106
3 96 97 108
3 96 108 107
3 97 98 109
3 97 109 108
3 99 100 111
3 99 111 110
3 100 101 112
3 100 112 111
3 101 102 113
3 101 113 112
3 102 103 114
3 102 114 113
3 103 104 115
3 103 115 114
3 104 105 116
3 104 116 115
3 105 106 117
3 105 117 116
3 106 107 118
3 106 118 117
3 107 108 119
3 107 119 118
3 108 109 120
3 108 120 119
3 110 111 122
3 110 122 121
3 111 112 123
3 111 123 122
3 112 113 124
3 112 124 123
3 113 114 125
3 113 125 124
3 114 115 126
3 114 126 125
3 115 116 127
3 115 127 126
3 116 117 128
3 116 128 127
3 117 118 129
3 117 129 128
3 118 119 130
3 118 130 129
3 119 120 131
3 119 131 130
3 121 122 133
3 121 133 132
3 122 123 134
3 122 134 133
3 123 124 135
3 123 135 134
3 124 125 136
3 124 136 135
3 125 126 137
3 125 137 136
3 126 127 138
3 126 138 137
3 127 128 139
3 127 139 138
3 128 129 140
3 128 140 139
3 129 130 141
3 129 141 140
3 130 131 142
3 130 142 141
3 132 133 144
3 132 144 143
3 133 134 145
3 133 145 144
3 134 135 146
3 134 146 145
3 135 136 147
3 135 147 146
3 136 137 148
3 136 148 147
3 137 138 149
3 137 149 148
3 138 139 150
3 138 150 149
3 139 140 151
3 139 151 150
3 140 141 152
3 140 152 151
3 141 142 153
3 141 153 152
3 143 144 155
3 143 155 154
3 144 145 156
3 144 156 155
3 145 146 157
3 145 157 156
3 146 147 158
3 146 158 157
3 147 148 159
3 147 159 158
3 148 149 160
3 148 160 159
3 149 150 161
3 149 161 160
3 150 151 162
3 150 162 161
3 151 152 163
3 151 163 162
3 152 153 164
3 152 164 163
3 154 155 166
3 154 166 165
3 155 156 167
3 155 167 166
3 156 157 168
3 156 168 167
3 157 158 169
3 157 169 168
3 158 159 170
3 158 170 169
3 159 160 171
3 159 171 170
3 160 161 172
3 160 172 171
3 161 162 173
3 161 173 172
3 162 163 174
3 162 174 173
3 163 164 175
3 163 175 174
3 165 166 177
3 165 177 176
3 166 167 178
3 166 178 177
3 167 168 179
3 167 179 178
3 168 169 180
3 168 180 179
3 169 170 181
3 169 181 180
3 170 171 182
3 170 182 181
3 171 172 183
3 171 183 182
3 172 173 184
3 172 184 183
3 173 174 185
3 173 185 184
3 174 175 186
3 174 186 185
3 176 177 188
3 176 188 187
3 177 178 189
3 177 189 188
3 178 179 190
3 178 190 189
3 179 180 191
3 179 191 190
3 180 181 192
3 180 192 191
3 181 182 193
3 181 193 192
3 182 183 194
3 182 194 193
3 183 184 195
3 183 195 194
3 184 185 196
3 184 196 195
3 185 186 197
3 185 197 196
3 187 188 199
3 187 199 198
3 188 189 200
3 188 200 199
3 189 190 201
3 189 201 200
3 190 191 202
3 190 202 201
3 191 192 203
3 191 203 202
3 192 193 204
3 192 204 203
3 193 194 205
3 193 205 204
3 194 195 206
3 194 206 205
3 195 196 207
3 195 207 206
3 196 197 208
3 196 208 207
3 198 199 210
3 198 210 209
3 199 200 211
3 199 211 210
3 200 201 212
3 200 212 211
3 201 202 213
3 201 213 212
3 202 203 214
3 202 214 213
3 203 204 215
3 203 215 214
3 204 205 216
3 204 216 215
3 205 206 217
3 205 217 216
3 206 207 218
3 206 218 217
3 207 208 219
3 207 219 218
3 209 210 221
3 209 221 220
3 210 211 222
3 210 222 221
3 211 212 223
3 211 223 222
3 212 213 224
3 212 224 223
3 213 214 225
3 213 225 224
3 214 215 226
3 214 226 225
3 215 216 227
3 215 227 226
3 216 217 228
3 216 228 227
3 217 218 229
3 217 229 228
3 218 219 230
3 218 230 229
CELL_TYPES 400
5
5
5
5
5
5
5
5
5
5
5
5
5
5
5
5
5
5
5
5
5
5
5
5
5
5
5
5
5
5
5
5
5
5
5
5
5
5
5
5
5
5
5
5
5
5
5
5
5
5
5
5
5
5
5
5
5
5
5
5
5
5
5
5
5
5
5
5
5
5
5
5
5
5
5
5
5
5
5
5
5
5
5
5
5
5
5
5
5
5
5
5
5
5
5
5
5
5
5
5
5
5
5
5
5
5
5
5
5
5
5
5
5
5
5
5
5
5
5
5
5
5
5
5
5
5
5
5
5
5
5
5
5
5
5
5
5
5
5
5
5
5
5
5
5
5
5
5
5
5
5
5
5
5
5
5
5
5
5
5
5
5
5
5
5
5
5
5
5
5
5
5
5
5
5
5
5
5
5
5
5
5
5
5
5
5
5
5
5
5
5
5
5
5
5
5
5
5
5
5
5
5
5
5
5
5
5
5
5
5
5
5
5
5
5
5
5
5
5
5
5
5
5
5
5
5
5
5
5
5
5
5
5
5
5
5
5
5
5
5
5
5
5
5
5
5
5
5
5
5
5
5
5
5
5
5
5
5
5
5
5
5
5
5
5
5
5
5
5
5
5
5
5
5
5
5
5
5
5
5
5
5
5
5
5
5
5
5
5
5
5
5
5
5
5
5
5
5
5
5
5
5
5
5
5
5
5
5
5
5
5
5
5
5
5
5
5
5
5
5
5
5
5
5
5
5
5
5
5
5
5
5
5
5
5
5
5
5
5
5
5
5
5
5
5
5
5
5
5
5
5
5
5
5
5
5
5
5
5
5
5
5
5
5
5
5
5
5
5
5
5
5
5
5
5
5
5
5
5
5
5
5
5
5
5
5
5
5
5
5
5
5
5
5
5
5
5
5
5
5
CELL_DATA 400
VECTORS Ht double
-0.311021 0.0420137 0
-0.313686 0.0777553 0
-0.487958 -0.0571265 0
-0.493002 0.0022205 0
0.0235861 -0.0762253 0
0.0216331 -0.0707595 0
0.505458 0.011556 0
0.509186 -0.0442426 0
0.280971 0.0847839 0
0.285468 0.0445658 0
-0.346424 0.0414749 0
-0.346962 0.0720648 0
-0.509419 -0.0596116 0
-0.513874 -0.000726336 0
0.0244493 -0.0796825 0
0.0223824 -0.0738554 0
0.528284 0.00848529 0
0.531243 -0.0462762 0
0.316828 0.079207 0
0.319126 0.0443787 0
-0.299515 0.12288 0
-0.307952 0.231055 0
-0.474132 -0.161435 0
-0.48767 0.00983719 0
0.0185029 -0.219881 0
0.0166939 -0.218269 0
0.488295 0.0298297 0
0.500393 -0.139923 0
0.276062 0.242329 0
0.285978 0.13528 0
-0.331238 0.121786 0
-0.336043 0.224453 0
-0.494145 -0.168274 0
-0.505911 0.00141721 0
0.0191224 -0.229555 0
0.0171678 -0.227574 0
0.509289 0.0214343 0
0.519387 -0.146161 0
0.308128 0.23602 0
0.314314 0.134749 0
-0.281709 0.201672 0
-0.295426 0.378471 0
-0.449532 -0.261049 0
-0.471101 0.0179305 0
0.0129232 -0.358984 0
0.0112583 -0.360359 0
0.459715 0.0457779 0
0.479811 -0.233443 0
0.26528 0.393494 0
0.280329 0.221544 0
-0.306943 0.200313 0
-0.315934 0.371849 0
-0.466059 -0.27152 0
-0.484907 0.00513622 0
0.0132579 -0.373882 0
0.0114399 -0.374927 0
0.47678 0.0331176 0
0.493915 -0.243269 0
0.290723 0.38728 0
0.300941 0.220849 0
-0.257739 0.276498 0
-0.276169 0.516762 0
-0.414492 -0.35366 0
-0.443418 0.0262122 0
0.00712022 -0.490263 0
0.00561044 -0.493741 0
0.420338 0.0588911 0
0.44784 -0.322607 0
0.248612 0.534476 0
0.268327 0.301233 0
-0.274401 0.27511 0
-0.287448 0.510686 0
-0.4259 -0.366692 0
-0.451452 0.010458 0
0.00717361 -0.508886 0
0.0055257 -0.51211 0
0.431848 0.0433362 0
0.45576 -0.335052 0
0.265345 0.528851 0
0.279585 0.300499 0
-0.227926 0.345526 0
-0.250429 0.642786 0
-0.369565 -0.437113 0
-0.404988 0.0344056 0
0.00138547 -0.610573 0
4.82405e-05 -0.615283 0
0.371007 0.0688081 0
0.405122 -0.405259 0
0.226109 0.661749 0
0.249867 0.372419 0
-0.23476 0.344278 0
-0.251678 0.637573 0
-0.374756 -0.451403 0
-0.40649 0.0172895 0
0.00120089 -0.631075 0
-0.000241656 -0.635633 0
0.37593 0.0519153 0
0.406192 -0.419104 0
0.232895 0.656971 0
0.251 0.371722 0
-0.192765 0.407023 0
-0.218636 0.753584 0
-0.315533 -0.50946 0
-0.356441 0.0422402 0
-0.00398916 -0.716964 0
-0.00513364 -0.72208 0
0.312778 0.0753358 0
0.352543 -0.479329 0
0.197914 0.772163 0
0.224969 0.433421 0
-0.189403 0.406017 0
-0.209935 0.749375 0
-0.314026 -0.523603 0
-0.35128 0.0254094 0
-0.00433818 -0.737337 0
-0.00554364 -0.742417 0
0.310747 0.0587192 0
0.346766 -0.493221 0
0.194415 0.768325 0
0.216097 0.432799 0
-0.152911 0.459389 0
-0.181392 0.84647 0
-0.253415 -0.569009 0
-0.298672 0.0494523 0
-0.0087281 -0.806746 0
-0.00965917 -0.81153 0
0.246914 0.0784578 0
0.291231 -0.542876 0
0.164295 0.863017 0
0.193815 0.482847 0
-0.139871 0.458668 0
-0.163681 0.843288 0
-0.245372 -0.581633 0
-0.28735 0.0344702 0
-0.00915061 -0.825015 0
-0.0100944 -0.829876 0
0.238231 0.06366 0
0.279251 -0.555467 0
0.151072 0.860117 0
0.175921 0.482315 0
-0.109168 0.501197 0
-0.139465 0.91911 0
-0.184456 -0.614363 0
-0.232843 0.0557865 0
-0.0125868 -0.877563 0
-0.0132848 -0.881397 0
0.17487 0.0783315 0
0.222542 -0.594146 0
0.125674 0.932135 0
0.156778 0.519626 0
-0.0877945 0.50076 0
-0.114453 0.916911 0
-0.170658 -0.62426 0
-0.216438 0.0440109 0
-0.012989 -0.891968 0
-0.013655 -0.895981 0
0.160459 0.0667024 0
0.205578 -0.604212 0
0.104114 0.930126 0
0.131614 0.519192 0
-0.0624753 0.531238 0
-0.0937738 0.969596 0
-0.110121 -0.644458 0
-0.160366 0.0610015 0
-0.0153643 -0.927455 0
-0.0158114 -0.929881 0
0.0982761 0.0752733 0
0.148052 -0.631621 0
0.0826538 0.977913 0
0.114454 0.543031 0
-0.0348145 0.531056 0
-0.0637928 0.968308 0
-0.0918873 -0.650694 0
-0.140433 0.0534796 0
-0.0156634 -0.93662 0
-0.0160446 -0.939298 0
0.0795837 0.0678648 0
0.127769 -0.63818 0
0.054846 0.976741 0
0.0843846 0.542705 0
-0.0138812 0.548558 0
-0.04537 0.996509 0
-0.0320693 -0.658598 0
-0.0828819 0.0648762 0
-0.0169131 -0.95493 0
-0.0170941 -0.955668 0
0.0189151 0.069734 0
0.0695208 -0.654069 0
0.0360359 0.99935 0
0.067672 0.55269 0
0.0174914 0.548587 0
-0.0131775 0.996069 0
-0.0111341 -0.660598 0
-0.0613138 0.0622649 0
-0.01705 -0.957983 0
-0.0171466 -0.959013 0
-0.00223258 0.0672169 0
0.0478769 -0.656475 0
0.00458506 0.998983 0
0.0354735 0.552494 0
0.0354735 0.552494 0
0.00458506 0.998983 0
0.0478769 -0.656475 0
-0.00223258 0.0672169 0
-0.0171466 -0.959013 0
-0.01705 -0.957983 0
-0.0613138 0.0622649 0
-0.0111341 -0.660598 0
-0.0131775 0.996069 0
0.0174914 0.548587 0
0.067672 0.55269 0
0.0360359 0.99935 0
0.0695208 -0.654069 0
0.0189151 0.069734 0
-0.0170941 -0.955668 0
-0.0169131 -0.95493 0
-0.0828819 0.0648762 0
-0.0320693 -0.658598 0
-0.04537 0.996509 0
-0.0138812 0.548558 0
0.0843846 0.542705 0
0.054846 0.976741 0
0.127769 -0.63818 0
0.0795837 0.0678648 0
-0.0160446 -0.939298 0
-0.0156634 -0.93662 0
-0.140433 0.0534796 0
-0.0918873 -0.650694 0
-0.0637928 0.968308 0
-0.0348145 0.531056 0
0.114454 0.543031 0
0.0826538 0.977913 0
0.148052 -0.631621 0
0.0982761 0.0752733 0
-0.0158114 -0.929881 0
-0.0153643 -0.927455 0
-0.160366 0.0610015 0
-0.110121 -0.644458 0
-0.0937738 0.969596 0
-0.0624753 0.531238 0
0.131614 0.519192 0
0.104114 0.930126 0
0.205578 -0.604212 0
0.160459 0.0667024 0
-0.013655 -0.895981 0
-0.012989 -0.891968 0
-0.216438 0.0440109 0
-0.170658 -0.62426 0
-0.114453 0.916911 0
-0.0877945 0.50076 0
0.156778 0.519626 0
0.125674 0.932135 0
0.222542 -0.594146 0
0.17487 0.0783315 0
-0.0132848 -0.881397 0
-0.0125868 -0.877563 0
-0.232843 0.0557865 0
-0.184456 -0.614363 0
-0.139465 0.91911 0
-0.109168 0.501197 0
0.175921 0.482315 0
0.151072 0.860117 0
0.279251 -0.555467 0
0.238231 0.06366 0
-0.0100944 -0.829876 0
-0.00915061 -0.825015 0
-0.28735 0.0344702 0
-0.245372 -0.581633 0
-0.163681 0.843288 0
-0.139871 0.458668 0
0.193815 0.482847 0
0.164295 0.863017 0
0.291231 -0.542876 0
0.246914 0.0784578 0
-0.00965917 -0.81153 0
-0.0087281 -0.806746 0
-0.298672 0.0494523 0
-0.253415 -0.569009 0
-0.181392 0.84647 0
-0.152911 0.459389 0
0.216097 0.432799 0
0.194415 0.768325 0
0.346766 -0.493221 0
0.310747 0.0587192 0
-0.00554364 -0.742417 0
-0.00433818 -0.737337 0
-0.35128 0.0254094 0
-0.314026 -0.523603 0
-0.209935 0.749375 0
-0.189403 0.406017 0
0.224969 0.433421 0
0.197914 0.772163 0
0.352543 -0.479329 0
0.312778 0.0753358 0
-0.00513364 -0.72208 0
-0.00398916 -0.716964 0
-0.356441 0.0422402 0
-0.315533 -0.50946 0
-0.218636 0.753584 0
-0.192765 0.407023 0
0.251 0.371722 0
0.232895 0.656971 0
0.406192 -0.419104 0
0.37593 0.0519153 0
-0.000241656 -0.635633 0
0.00120089 -0.631075 0
-0.40649 0.0172895 0
-0.374756 -0.451403 0
-0.251678 0.637573 0
-0.23476 0.344278 0
0.249867 0.372419 0
0.226109 0.661749 0
0.405122 -0.405259 0
0.371007 0.0688081 0
4.82405e-05 -0.615283 0
0.00138547 -0.610573 0
-0.404988 0.0344056 0
-0.369565 -0.437113 0
-0.250429 0.642786 0
-0.227926 0.345526 0
0.279585 0.300499 0
0.265345 0.528851 0
0.45576 -0.335052 0
0.431848 0.0433362 0
0.0055257 -0.51211 0
0.00717361 -0.508886 0
-0.451452 0.010458 0
-0.4259 -0.366692 0
-0.287448 0.510686 0
-0.274401 0.27511 0
0.268327 0.301233 0
0.248612 0.534476 0
0.44784 -0.322607 0
0.420338 0.0588911 0
0.00561044 -0.493741 0
0.00712022 -0.490263 0
-0.443418 0.0262122 0
-0.414492 -0.35366 0
-0.276169 0.516762 0
-0.257739 0.276498 0
0.300941 0.220849 0
0.290723 0.38728 0
0.493915 -0.243269 0
0.47678 0.0331176 0
0.0114399 -0.374927 0
0.0132579 -0.373882 0
-0.484907 0.00513622 0
-0.466059 -0.27152 0
-0.315934 0.371849 0
-0.306943 0.200313 0
0.280329 0.221544 0
0.26528 0.393494 0
0.479811 -0.233443 0
0.459715 0.0457779 0
0.0112583 -0.360359 0
0.0129232 -0.358984 0
-0.471101 0.0179305 0
-0.449532 -0.261049 0
-0.295426 0.378471 0
-0.281709 0.201672 0
0.314314 0.134749 0
0.308128 0.23602 0
0.519387 -0.146161 0
0.509289 0.0214343 0
0.0171678 -0.227574 0
0.0191224 -0.229555 0
-0.505911 0.00141721 0
-0.494145 -0.168274 0
-0.336043 0.224453 0
-0.331238 0.121786 0
0.285978 0.13528 0
0.276062 0.242329 0
0.500393 -0.139923 0
0.488295 0.0298297 0
0.0166939 -0.218269 0
0.0185029 -0.219881 0
-0.48767 0.00983719 0
-0.474132 -0.161435 0
-0.307952 0.231055 0
-0.299515 0.12288 0
0.319126 0.0443787 0
0.316828 0.079207 0
0.531243 -0.0462762 0
0.528284 0.00848529 0
0.0223824 -0.0738554 0
0.0244493 -0.0796825 0
-0.513874 -0.000726336 0
-0.509419 -0.0596116 0
-0.346962 0.0720648 0
-0.346424 0.0414749 0
0.285468 0.0445658 0
0.280971 0.0847839 0
0.509186 -0.0442426 0
0.505458 0.011556 0
0.0216331 -0.0707595 0
0.0235861 -0.0762253 0
-0.493002 0.0022205 0
-0.487958 -0.0571265 0
-0.313686 0.0777553 0
-0.311021 0.0420137 0
