# vtk DataFile Version 3.0
tp3485 cell-vector
ASCII
DATASET UNSTRUCTURED_GRID
POINTS 231 double
0 0 0
0.1 0 0
0.2 0 0
0.3 0 0
0.4 0 0
0.5 0 0
0.6 0 0
0.7 0 0
0.8 0 0
0.9 0 0
1 0 0
0 0.025 0
0.1 0.025 0
0.2 0.025 0
0.3 0.025 0
0.4 0.025 0
0.5 0.025 0
0.6 0.025 0
0.7 0.025 0
0.8 0.025 0
0.9 0.025 0
1 0.025 0
0 0.05 0
0.1 0.05 0
0.2 0.05 0
0.3 0.05 0
0.4 0.05 0
0.5 0.05 0
0.6 0.05 0
0.7 0.05 0
0.8 0.05 0
0.9 0.05 0
1 0.05 0
0 0.075 0
0.1 0.075 0
0.2 0.075 0
0.3 0.075 0
0.4 0.075 0
0.5 0.075 0
0.6 0.075 0
0.7 0.075 0
0.8 0.075 0
0.9 0.075 0
1 0.075 0
0 0.1 0
0.1 0.1 0
0.2 0.1 0
0.3 0.1 0
0.4 0.1 0
0.5 0.1 0
0.6 0.1 0
0.7 0.1 0
0.8 0.1 0
0.9 0.1 0
1 0.1 0
0 0.125 0
0.1 0.125 0
0.2 0.125 0
0.3 0.125 0
0.4 0.125 0
0.5 0.125 0
0.6 0.125 0
0.7 0.125 0
0.8 0.125 0
0.9 0.125 0
1 0.125 0
0 0.15 0
0.1 0.15 0
0.2 0.15 0
0.3 0.15 0
0.4 0.15 0
0.5 0.15 0
0.6 0.15 0
0.7 0.15 0
0.8 0.15 0
0.9 0.15 0
1 0.15 0
0 0.175 0
0.1 0.175 0
0.2 0.175 0
0.3 0.175 0
0.4 0.175 0
0.5 0.175 0
0.6 0.175 0
0.7 0.175 0
0.8 0.175 0
0.9 0.175 0
1 0.175 0
0 0.2 0
0.1 0.2 0
0.2 0.2 0
0.3 0.2 0
0.4 0.2 0
0.5 0.2 0
0.6 0.2 0
0.7 0.2 0
0.8 0.2 0
0.9 0.2 0
1 0.2 0
0 0.225 0
0.1 0.225 0
0.2 0.225 0
0.3 0.225 0
0.4 0.225 0
0.5 0.225 0
0.6 0.225 0
0.7 0.225 0
0.8 0.225 0
0.9 0.225 0
1 0.225 0
0 0.25 0
0.1 0.25 0
0.2 0.25 0
0.3 0.25 0
0.4 0.25 0
0.5 0.25 0
0.6 0.25 0
0.7 0.25 0
0.8 0.25 0
0.9 0.25 0
1 0.25 0
0 0.275 0
0.1 0.275 0
0.2 0.275 0
0.3 0.275 0
0.4 0.275 0
0.5 0.275 0
0.6 0.275 0
0.7 0.275 0
0.8 0.275 0
0.9 0.275 0
1 0.275 0
0 0.3 0
0.1 0.3 0
0.2 0.3 0
0.3 0.3 0
0.4 0.3 0
0.5 0.3 0
0.6 0.3 0
0.7 0.3 0
0.8 0.3 0
0.9 0.3 0
1 0.3 0
0 0.325 0
0.1 0.325 0
0.2 0.325 0
0.3 0.325 0
0.4 0.325 0
0.5 0.325 0
0.6 0.325 0
0.7 0.325 0
0.8 0.325 0
0.9 0.325 0
1 0.325 0
0 0.35 0
0.1 0.35 0
0.2 0.35 0
0.3 0.35 0
0.4 0.35 0
0.5 0.35 0
0.6 0.35 0
0.7 0.35 0
0.8 0.35 0
0.9 0.35 0
1 0.35 0
0 0.375 0
0.1 0.375 0
0.2 0.375 0
0.3 0.375 0
0.4 0.375 0
0.5 0.375 0
0.6 0.375 0
0.7 0.375 0
0.8 0.375 0
0.9 0.375 0
1 0.375 0
0 0.4 0
0.1 0.4 0
0.2 0.4 0
0.3 0.4 0
0.4 0.4 0
0.5 0.4 0
0.6 0.4 0
0.7 0.4 0
0.8 0.4 0
0.9 0.4 0
1 0.4 0
0 0.425 0
0.1 0.425 0
0.2 0.425 0
0.3 0.425 0
0.4 0.425 0
0.5 0.425 0
0.6 0.425 0
0.7 0.425 0
0.8 0.425 0
0.9 0.425 0
1 0.425 0
0 0.45 0
0.1 0.45 0
0.2 0.45 0
0.3 0.45 0
0.4 0.45 0
0.5 0.45 0
0.6 0.45 0
0.7 0.45 0
0.8 0.45 0
0.9 0.45 0
1 0.45 0
0 0.475 0
0.1 0.475 0
0.2 0.475 0
0.3 0.475 0
0.4 0.475 0
0.5 0.475 0
0.6 0.475 0
0.7 0.475 0
0.8 0.475 0
0.9 0.475 0
1 0.475 0
0 0.5 0
0.1 0.5 0
0.2 0.5 0
0.3 0.5 0
0.4 0.5 0
0.5 0.5 0
0.6 0.5 0
0.7 0.5 0
0.8 0.5 0
0.9 0.5 0
1 0.5 0
CELLS 400 1600
3 0 1 12
3 0 12 11
3 1 2 13
3 1 13 12
3 2 3 14
3 2 14 13
3 3 4 15
3 3 15 14
3 4 5 16
3 4 16 15
3 5 6 17
3 5 17 16
3 6 7 18
3 6 18 17
3 7 8 19
3 7 19 18
3 8 9 20
3 8 20 19
3 9 10 21
3 9 21 20
3 11 12 23
3 11 23 22
3 12 13 24
3 12 24 23
3 13 14 25
3 13 25 24
3 14 15 26
3 14 26 25
3 15 16 27
3 15 27 26
3 16 17 28
3 16 28 27
3 17 18 29
3 17 29 28
3 18 19 30
3 18 30 29
3 19 20 31
3 19 31 30
3 20 21 32
3 20 32 31
3 22 23 34
3 22 34 33
3 23 24 35
3 23 35 34
3 24 25 36
3 24 36 35
3 25 26 37
3 25 37 36
3 26 27 38
3 26 38 37
3 27 28 39
3 27 39 38
3 28 29 40
3 28 40 39
3 29 30 41
3 29 41 40
3 30 31 42
3 30 42 41
3 31 32 43
3 31 43 42
3 33 34 45
3 33 45 44
3 34 35 46
3 34 46 45
3 35 36 47
3 35 47 46
3 36 37 48
3 36 48 47
3 37 38 49
3 37 49 48
3 38 39 50
3 38 50 49
3 39 40 51
3 39 51 50
3 40 41 52
3 40 52 51
3 41 42 53
3 41 53 52
3 42 43 54
3 42 54 53
3 44 45 56
3 44 56 55
3 45 46 57
3 45 57 56
3 46 47 58
3 46 58 57
3 47 48 59
3 47 59 58
3 48 49 60
3 48 60 59
3 49 50 61
3 49 61 60
3 50 51 62
3 50 62 61
3 51 52 63
3 51 63 62
3 52 53 64
3 52 64 63
3 53 54 65
3 53 65 64
3 55 56 67
3 55 67 66
3 56 57 68
3 56 68 67
3 57 58 69
3 57 69 68
3 58 59 70
3 58 70 69
3 59 60 71
3 59 71 70
3 60 61 72
3 60 72 71
3 61 62 73
3 61 73 72
3 62 63 74
3 62 74 73
3 63 64 75
3 63 75 74
3 64 65 76
3 64 76 75
3 66 67 78
3 66 78 77
3 67 68 79
3 67 79 78
3 68 69 80
3 68 80 79
3 69 70 81
3 69 81 80
3 70 71 82
3 70 82 81
3 71 72 83
3 71 83 82
3 72 73 84
3 72 84 83
3 73 74 85
3 73 85 84
3 74 75 86
3 74 86 85
3 75 76 87
3 75 87 86
3 77 78 89
3 77 89 88
3 78 79 90
3 78 90 89
3 79 80 91
3 79 91 90
3 80 81 92
3 80 92 91
3 81 82 93
3 81 93 92
3 82 83 94
3 82 94 93
3 83 84 95
3 83 95 94
3 84 85 96
3 84 96 95
3 85 86 97
3 85 97 96
3 86 87 98
3 86 98 97
3 88 89 100
3 88 100 99
3 89 90 101
3 89 101 100
3 90 91 102
3 90 102 101
3 91 92 103
3 91 103 102
3 92 93 104
3 92 104 103
3 93 94 105
3 93 105 104
3 94 95 106
3 94 106 105
3 95 96 107
3 95 107 106
3 96 97 108
3 96 108 107
3 97 98 109
3 97 109 108
3 99 100 111
3 99 111 110
3 100 101 112
3 100 112 111
3 101 102 113
3 101 113 112
3 102 103 114
3 102 114 113
3 103 104 115
3 103 115 114
3 104 105 116
3 104 116 115
3 105 106 117
3 105 117 116
3 106 107 118
3 106 118 117
3 107 108 119
3 107 119 118
3 108 109 120
3 108 120 119
3 110 111 122
3 110 122 121
3 111 112 123
3 111 123 122
3 112 113 124
3 112 124 123
3 113 114 125
3 113 125 124
3 114 115 126
3 114 126 125
3 115 116 127
3 115 127 126
3 116 117 128
3 116 128 127
3 117 118 129
3 117 129 128
3 118 119 130
3 118 130 129
3 119 120 131
3 119 131 130
3 121 122 133
3 121 133 132
3 122 123 134
3 122 134 133
3 123 124 135
3 123 135 134
3 124 125 136
3 124 136 135
3 125 126 137
3 125 137 136
3 126 127 138
3 126 138 137
3 127 128 139
3 127 139 138
3 128 129 140
3 128 140 139
3 129 130 141
3 129 141 140
3 130 131 142
3 130 142 141
3 132 133 144
3 132 144 143
3 133 134 145
3 133 145 144
3 134 135 146
3 134 146 145
3 135 136 147
3 135 147 146
3 136 137 148
3 136 148 147
3 137 138 149
3 137 149 148
3 138 139 150
3 138 150 149
3 139 140 151
3 139 151 150
3 140 141 152
3 140 152 151
3 141 142 153
3 141 153 152
3 143 144 155
3 143 155 154
3 144 145 156
3 144 156 155
3 145 146 157
3 145 157 156
3 146 147 158
3 146 158 157
3 147 148 159
3 147 159 158
3 148 149 160
3 148 160 159
3 149 150 161
3 149 161 160
3 150 151 162
3 150 162 161
3 151 152 163
3 151 163 162
3 152 153 164
3 152 164 163
3 154 155 166
3 154 166 165
3 155 156 167
3 155 167 166
3 156 157 168
3 156 168 167
3 157 158 169
3 157 169 168
3 158 159 170
3 158 170 169
3 159 160 171
3 159 171 170
3 160 161 172
3 160 172 171
3 161 162 173
3 161 173 172
3 162 163 174
3 162 174 173
3 163 164 175
3 163 175 174
3 165 166 177
3 165 177 176
3 166 167 178
3 166 178 177
3 167 168 179
3 167 179 178
3 168 169 180
3 168 180 179
3 169 170 181
3 169 181 180
3 170 171 182
3 170 182 181
3 171 172 183
3 171 183 182
3 172 173 184
3 172 184 183
3 173 174 185
3 173 185 184
3 174 175 186
3 174 186 185
3 176 177 188
3 176 188 187
3 177 178 189
3 177 189 188
3 178 179 190
3 178 190 189
3 179 180 191
3 179 191 190
3 180 181 192
3 180 192 191
3 181 182 193
3 181 193 192
3 182 183 194
3 182 194 193
3 183 184 195
3 183 195 194
3 184 185 196
3 184 196 195
3 185 186 197
3 185 197 196
3 187 188 199
3 187 199 198
3 188 189 200
3 188 200 199
3 189 190 201
3 189 201 200
3 190 191 202
3 190 202 201
3 191 192 203
3 191 203 202
3 192 193 204
3 192 204 203
3 193 194 205
3 193 205 204
3 194 195 206
3 194 206 205
3 195 196 207
3 195 207 206
3 196 197 208
3 196 208 207
3 198 199 210
3 198 210 209
3 199 200 211
3 199 211 210
3 200 201 212
3 200 212 211
3 201 202 213
3 201 213 212
3 202 203 214
3 202 214 213
3 203 204 215
3 203 215 214
3 204 205 216
3 204 216 215
3 205 206 217
3 205 217 216
3 206 207 218
3 206 218 217
3 207 208 219
3 207 219 218
3 209 210 221
3 209 221 220
3 210 211 222
3 210 222 221
3 211 212 223
3 211 223 222
3 212 213 224
3 212 224 223
3 213 214 225
3 213 225 224
3 214 215 226
3 214 226 225
3 215 216 227
3 215 227 226
3 216 217 228
3 216 228 227
3 217 218 229
3 217 229 228
3 218 219 230
3 218 230 229
CELL_TYPES 400
5
5
5
5
5
5
5
5
5
5
5
5
5
5
5
5
5
5
5
5
5
5
5
5
5
5
5
5
5
5
5
5
5
5
5
5
5
5
5
5
5
5
5
5
5
5
5
5
5
5
5
5
5
5
5
5
5
5
5
5
5
5
5
5
5
5
5
5
5
5
5
5
5
5
5
5
5
5
5
5
5
5
5
5
5
5
5
5
5
5
5
5
5
5
5
5
5
5
5
5
5
5
5
5
5
5
5
5
5
5
5
5
5
5
5
5
5
5
5
5
5
5
5
5
5
5
5
5
5
5
5
5
5
5
5
5
5
5
5
5
5
5
5
5
5
5
5
5
5
5
5
5
5
5
5
5
5
5
5
5
5
5
5
5
5
5
5
5
5
5
5
5
5
5
5
5
5
5
5
5
5
5
5
5
5
5
5
5
5
5
5
5
5
5
5
5
5
5
5
5
5
5
5
5
5
5
5
5
5
5
5
5
5
5
5
5
5
5
5
5
5
5
5
5
5
5
5
5
5
5
5
5
5
5
5
5
5
5
5
5
5
5
5
5
5
5
5
5
5
5
5
5
5
5
5
5
5
5
5
5
5
5
5
5
5
5
5
5
5
5
5
5
5
5
5
5
5
5
5
5
5
5
5
5
5
5
5
5
5
5
5
5
5
5
5
5
5
5
5
5
5
5
5
5
5
5
5
5
5
5
5
5
5
5
5
5
5
5
5
5
5
5
5
5
5
5
5
5
5
5
5
5
5
5
5
5
5
5
5
5
5
5
5
5
5
5
5
5
5
5
5
5
5
5
5
5
5
5
5
5
5
5
5
5
5
5
5
5
5
5
5
5
5
5
5
5
5
5
5
5
5
5
5
5
5
5
5
5
5
5
5
5
5
5
5
5
5
5
5
5
CELL_DATA 400
VECTORS Ht double
0.18917 0.0178942 0
0.198752 -0.0472924 0
-0.00452285 0.047858 0
0.000503928 0.030529 0
-0.247592 -0.0667193 0
-0.258551 0.0129093 0
0.228166 -0.00905481 0
0.229857 -0.0522202 0
0.151854 0.0936082 0
0.163205 0.0281328 0
-0.41074 -0.0449972 0
-0.417772 0.0470404 0
0.0411858 -0.089409 0
0.0333609 -0.0679844 0
0.478763 0.0924223 0
0.488387 -0.0199854 0
-0.253222 0.0563507 0
-0.251291 0.0905741 0
-0.407655 -0.101914 0
-0.412637 -0.0177425 0
0.184092 0.044779 0
0.210471 -0.143003 0
0.00387201 0.137029 0
0.0146666 0.0982611 0
-0.241623 -0.180762 0
-0.271978 0.0498762 0
0.209837 -0.0340319 0
0.218338 -0.173144 0
0.155967 0.258895 0
0.18354 0.0832404 0
-0.385368 -0.11311 0
-0.407106 0.162332 0
0.0245123 -0.251796 0
0.00982689 -0.215125 0
0.452894 0.244933 0
0.478647 -0.0784504 0
-0.226483 0.162649 0
-0.229641 0.292827 0
-0.384292 -0.301146 0
-0.401289 -0.0442522 0
0.181635 0.0672954 0
0.223821 -0.24103 0
0.0179517 0.229798 0
0.0343429 0.165617 0
-0.236315 -0.288216 0
-0.285393 0.0923343 0
0.181722 -0.0671738 0
0.196194 -0.292779 0
0.164138 0.416885 0
0.207081 0.129478 0
-0.344228 -0.168377 0
-0.37985 0.279095 0
-0.000827107 -0.407748 0
-0.0218011 -0.349941 0
0.407187 0.382093 0
0.448639 -0.141707 0
-0.187378 0.263885 0
-0.195971 0.481381 0
-0.342445 -0.487079 0
-0.372096 -0.06381 0
0.180213 0.0839349 0
0.236861 -0.342038 0
0.0361653 0.326725 0
0.0577664 0.232359 0
-0.230493 -0.385616 0
-0.297162 0.142007 0
0.14489 -0.11069 0
0.164338 -0.409621 0
0.173988 0.56251 0
0.23089 0.162997 0
-0.289092 -0.206242 0
-0.337515 0.395972 0
-0.0317093 -0.551589 0
-0.0580122 -0.465934 0
0.344105 0.497551 0
0.400671 -0.209429 0
-0.13939 0.355753 0
-0.1536 0.647949 0
-0.285508 -0.65148 0
-0.328014 -0.075117 0
0.17784 0.0935919 0
0.247267 -0.445714 0
0.0563901 0.427494 0
0.0826475 0.297838 0
-0.222576 -0.469725 0
-0.305197 0.199711 0
0.101007 -0.165519 0
0.124406 -0.521783 0
0.182462 0.691013 0
0.251463 0.180826 0
-0.222647 -0.223797 0
-0.282583 0.510847 0
-0.0642094 -0.67818 0
-0.0946285 -0.557864 0
0.267395 0.586719 0
0.338306 -0.280411 0
-0.0864887 0.434673 0
-0.106242 0.78582 0
-0.217625 -0.78789 0
-0.272704 -0.0776489 0
0.172325 0.0956738 0
0.252541 -0.550612 0
0.076159 0.53073 0
0.106398 0.360952 0
-0.210678 -0.537713 0
-0.307091 0.265145 0
0.0523486 -0.231095 0
0.0787698 -0.626952 0
0.186228 0.798197 0
0.265161 0.181167 0
-0.148359 -0.220074 0
-0.218368 0.620822 0
-0.0940873 -0.783236 0
-0.127317 -0.622144 0
0.181765 0.647001 0
0.266 -0.352551 0
-0.0327106 0.497954 0
-0.0576411 0.890293 0
-0.143338 -0.891901 0
-0.210208 -0.0716578 0
0.161499 0.090159 0
0.250255 -0.654122 0
0.0929115 0.633893 0
0.126369 0.42015 0
-0.19277 -0.587359 0
-0.300319 0.336775 0
0.0017537 -0.30526 0
0.0304555 -0.722403 0
0.182119 0.880678 0
0.268649 0.163643 0
-0.0702549 -0.196125 0
-0.148787 0.722317 0
-0.117317 -0.863589 0
-0.152116 -0.65709 0
0.0924376 0.677839 0
0.188635 -0.422966 0
0.0181947 0.543889 0
-0.0112676 0.958926 0
-0.0672239 -0.961259 0
-0.144618 -0.0580968 0
0.143449 0.077604 0
0.238291 -0.752548 0
0.104241 0.733286 0
0.140085 0.473479 0
-0.166899 -0.617232 0
-0.282515 0.411839 0
-0.0475171 -0.384355 0
-0.01705 -0.805068 0
0.167552 0.936113 0
0.259298 0.129423 0
0.00735766 -0.15488 0
-0.0780581 0.81129 0
-0.130581 -0.917333 0
-0.165899 -0.663018 0
0.00464317 0.680582 0
0.111018 -0.488215 0
0.0630374 0.571771 0
0.029911 0.99156 0
0.00643675 -0.995804 0
-0.0797758 -0.0384905 0
0.116739 0.0591052 0
0.215072 -0.841305 0
0.108112 0.824192 0
0.145446 0.518686 0
-0.131452 -0.62685 0
-0.251786 0.486473 0
-0.0920176 -0.463473 0
-0.0600981 -0.871676 0
0.140877 0.963358 0
0.235514 0.0812297 0
0.0802158 -0.100813 0
-0.0103598 0.883549 0
-0.13167 -0.943874 0
-0.166718 -0.642154 0
-0.0768829 0.658218 0
0.0374153 -0.544601 0
0.0993673 0.581832 0
0.0635885 0.990138 0
0.0739414 -0.997263 0
-0.0190129 -0.0147739 0
0.0805949 0.0362231 0
0.179755 -0.915222 0
0.10304 0.901151 0
0.140899 0.553363 0
-0.085449 -0.616754 0
-0.207052 0.555944 0
-0.128439 -0.536853 0
-0.0952565 -0.918946 0
0.101613 0.962556 0
0.196926 0.0231938 0
0.144452 -0.0394517 0
0.0505373 0.93511 0
-0.119717 -0.943847 0
-0.153981 -0.598383 0
-0.14832 0.614989 0
-0.0288159 -0.58851 0
0.125571 0.575129 0
0.0882149 0.958352 0
0.132377 -0.968922 0
0.0350426 0.0108785 0
0.0350426 0.0108785 0
0.132377 -0.968922 0
0.0882149 0.958352 0
0.125571 0.575129 0
-0.0288159 -0.58851 0
-0.14832 0.614989 0
-0.153981 -0.598383 0
-0.119717 -0.943847 0
0.0505373 0.93511 0
0.144452 -0.0394517 0
0.196926 0.0231938 0
0.101613 0.962556 0
-0.0952565 -0.918946 0
-0.128439 -0.536853 0
-0.207052 0.555944 0
-0.085449 -0.616754 0
0.140899 0.553363 0
0.10304 0.901151 0
0.179755 -0.915222 0
0.0805949 0.0362231 0
-0.0190129 -0.0147739 0
0.0739414 -0.997263 0
0.0635885 0.990138 0
0.0993673 0.581832 0
0.0374153 -0.544601 0
-0.0768829 0.658218 0
-0.166718 -0.642154 0
-0.13167 -0.943874 0
-0.0103598 0.883549 0
0.0802158 -0.100813 0
0.235514 0.0812297 0
0.140877 0.963358 0
-0.0600981 -0.871676 0
-0.0920176 -0.463473 0
-0.251786 0.486473 0
-0.131452 -0.62685 0
0.145446 0.518686 0
0.108112 0.824192 0
0.215072 -0.841305 0
0.116739 0.0591052 0
-0.0797758 -0.0384905 0
0.00643675 -0.995804 0
0.029911 0.99156 0
0.0630374 0.571771 0
0.111018 -0.488215 0
0.00464317 0.680582 0
-0.165899 -0.663018 0
-0.130581 -0.917333 0
-0.0780581 0.81129 0
0.00735766 -0.15488 0
0.259298 0.129423 0
0.167552 0.936113 0
-0.01705 -0.805068 0
-0.0475171 -0.384355 0
-0.282515 0.411839 0
-0.166899 -0.617232 0
0.140085 0.473479 0
0.104241 0.733286 0
0.238291 -0.752548 0
0.143449 0.077604 0
-0.144618 -0.0580968 0
-0.0672239 -0.961259 0
-0.0112676 0.958926 0
0.0181947 0.543889 0
0.188635 -0.422966 0
0.0924376 0.677839 0
-0.152116 -0.65709 0
-0.117317 -0.863589 0
-0.148787 0.722317 0
-0.0702549 -0.196125 0
0.268649 0.163643 0
0.182119 0.880678 0
0.0304555 -0.722403 0
0.0017537 -0.30526 0
-0.300319 0.336775 0
-0.19277 -0.587359 0
0.126369 0.42015 0
0.0929115 0.633893 0
0.250255 -0.654122 0
0.161499 0.090159 0
-0.210208 -0.0716578 0
-0.143338 -0.891901 0
-0.0576411 0.890293 0
-0.0327106 0.497954 0
0.266 -0.352551 0
0.181765 0.647001 0
-0.127317 -0.622144 0
-0.0940873 -0.783236 0
-0.218368 0.620822 0
-0.148359 -0.220074 0
0.265161 0.181167 0
0.186228 0.798197 0
0.0787698 -0.626952 0
0.0523486 -0.231095 0
-0.307091 0.265145 0
-0.210678 -0.537713 0
0.106398 0.360952 0
0.076159 0.53073 0
0.252541 -0.550612 0
0.172325 0.0956738 0
-0.272704 -0.0776489 0
-0.217625 -0.78789 0
-0.106242 0.78582 0
-0.0864887 0.434673 0
0.338306 -0.280411 0
0.267395 0.586719 0
-0.0946285 -0.557864 0
-0.0642094 -0.67818 0
-0.282583 0.510847 0
-0.222647 -0.223797 0
0.251463 0.180826 0
0.182462 0.691013 0
0.124406 -0.521783 0
0.101007 -0.165519 0
-0.305197 0.199711 0
-0.222576 -0.469725 0
0.0826475 0.297838 0
0.0563901 0.427494 0
0.247267 -0.445714 0
0.17784 0.0935919 0
-0.328014 -0.075117 0
-0.285508 -0.65148 0
-0.1536 0.647949 0
-0.13939 0.355753 0
0.400671 -0.209429 0
0.344105 0.497551 0
-0.0580122 -0.465934 0
-0.0317093 -0.551589 0
-0.337515 0.395972 0
-0.289092 -0.206242 0
0.23089 0.162997 0
0.173988 0.56251 0
0.164338 -0.409621 0
0.14489 -0.11069 0
-0.297162 0.142007 0
-0.230493 -0.385616 0
0.0577664 0.232359 0
0.0361653 0.326725 0
0.236861 -0.342038 0
0.180213 0.0839349 0
-0.372096 -0.06381 0
-0.342445 -0.487079 0
-0.195971 0.481381 0
-0.187378 0.263885 0
0.448639 -0.141707 0
0.407187 0.382093 0
-0.0218011 -0.349941 0
-0.000827107 -0.407748 0
-0.37985 0.279095 0
-0.344228 -0.168377 0
0.207081 0.129478 0
0.164138 0.416885 0
0.196194 -0.292779 0
0.181722 -0.0671738 0
-0.285393 0.0923343 0
-0.236315 -0.288216 0
0.0343429 0.165617 0
0.0179517 0.229798 0
0.223821 -0.24103 0
0.181635 0.0672954 0
-0.401289 -0.0442522 0
-0.384292 -0.301146 0
-0.229641 0.292827 0
-0.226483 0.162649 0
0.478647 -0.0784504 0
0.452894 0.244933 0
0.00982689 -0.215125 0
0.0245123 -0.251796 0
-0.407106 0.162332 0
-0.385368 -0.11311 0
0.18354 0.0832404 0
0.155967 0.258895 0
0.218338 -0.173144 0
0.209837 -0.0340319 0
-0.271978 0.0498762 0
-0.241623 -0.180762 0
0.0146666 0.0982611 0
0.00387201 0.137029 0
0.210471 -0.143003 0
0.184092 0.044779 0
-0.412637 -0.0177425 0
-0.407655 -0.101914 0
-0.251291 0.0905741 0
-0.253222 0.0563507 0
0.488387 -0.0199854 0
0.478763 0.0924223 0
0.0333609 -0.0679844 0
0.0411858 -0.089409 0
-0.417772 0.0470404 0
-0.41074 -0.0449972 0
0.163205 0.0281328 0
0.151854 0.0936082 0
0.229857 -0.0522202 0
0.228166 -0.00905481 0
-0.258551 0.0129093 0
-0.247592 -0.0667193 0
0.000503928 0.030529 0
-0.00452285 0.047858 0
0.198752 -0.0472924 0
0.18917 0.0178942 0
