# vtk DataFile Version 3.0
tp3485 cell-vector
ASCII
DATASET UNSTRUCTURED_GRID
POINTS 231 double
0 0 0
0.1 0 0
0.2 0 0
0.3 0 0
0.4 0 0
0.5 0 0
0.6 0 0
0.7 0 0
0.8 0 0
0.9 0 0
1 0 0
0 0.025 0
0.1 0.025 0
0.2 0.025 0
0.3 0.025 0
0.4 0.025 0
0.5 0.025 0
0.6 0.025 0
0.7 0.025 0
0.8 0.025 0
0.9 0.025 0
1 0.025 0
0 0.05 0
0.1 0.05 0
0.2 0.05 0
0.3 0.05 0
0.4 0.05 0
0.5 0.05 0
0.6 0.05 0
0.7 0.05 0
0.8 0.05 0
0.9 0.05 0
1 0.05 0
0 0.075 0
0.1 0.075 0
0.2 0.075 0
0.3 0.075 0
0.4 0.075 0
0.5 0.075 0
0.6 0.075 0
0.7 0.075 0
0.8 0.075 0
0.9 0.075 0
1 0.075 0
0 0.1 0
0.1 0.1 0
0.2 0.1 0
0.3 0.1 0
0.4 0.1 0
0.5 0.1 0
0.6 0.1 0
0.7 0.1 0
0.8 0.1 0
0.9 0.1 0
1 0.1 0
0 0.125 0
0.1 0.125 0
0.2 0.125 0
0.3 0.125 0
0.4 0.125 0
0.5 0.125 0
0.6 0.125 0
0.7 0.125 0
0.8 0.125 0
0.9 0.125 0
1 0.125 0
0 0.15 0
0.1 0.15 0
0.2 0.15 0
0.3 0.15 0
0.4 0.15 0
0.5 0.15 0
0.6 0.15 0
0.7 0.15 0
0.8 0.15 0
0.9 0.15 0
1 0.15 0
0 0.175 0
0.1 0.175 0
0.2 0.175 0
0.3 0.175 0
0.4 0.175 0
0.5 0.175 0
0.6 0.175 0
0.7 0.175 0
0.8 0.175 0
0.9 0.175 0
1 0.175 0
0 0.2 0
0.1 0.2 0
0.2 0.2 0
0.3 0.2 0
0.4 0.2 0
0.5 0.2 0
0.6 0.2 0
0.7 0.2 0
0.8 0.2 0
0.9 0.2 0
1 0.2 0
0 0.225 0
0.1 0.225 0
0.2 0.225 0
0.3 0.225 0
0.4 0.225 0
0.5 0.225 0
0.6 0.225 0
0.7 0.225 0
0.8 0.225 0
0.9 0.225 0
1 0.225 0
0 0.25 0
0.1 0.25 0
0.2 0.25 0
0.3 0.25 0
0.4 0.25 0
0.5 0.25 0
0.6 0.25 0
0.7 0.25 0
0.8 0.25 0
0.9 0.25 0
1 0.25 0
0 0.275 0
0.1 0.275 0
0.2 0.275 0
0.3 0.275 0
0.4 0.275 0
0.5 0.275 0
0.6 0.275 0
0.7 0.275 0
0.8 0.275 0
0.9 0.275 0
1 0.275 0
0 0.3 0
0.1 0.3 0
0.2 0.3 0
0.3 0.3 0
0.4 0.3 0
0.5 0.3 0
0.6 0.3 0
0.7 0.3 0
0.8 0.3 0
0.9 0.3 0
1 0.3 0
0 0.325 0
0.1 0.325 0
0.2 0.325 0
0.3 0.325 0
0.4 0.325 0
0.5 0.325 0
0.6 0.325 0
0.7 0.325 0
0.8 0.325 0
0.9 0.325 0
1 0.325 0
0 0.35 0
0.1 0.35 0
0.2 0.35 0
0.3 0.35 0
0.4 0.35 0
0.5 0.35 0
0.6 0.35 0
0.7 0.35 0
0.8 0.35 0
0.9 0.35 0
1 0.35 0
0 0.375 0
0.1 0.375 0
0.2 0.375 0
0.3 0.375 0
0.4 0.375 0
0.5 0.375 0
0.6 0.375 0
0.7 0.375 0
0.8 0.375 0
0.9 0.375 0
1 0.375 0
0 0.4 0
0.1 0.4 0
0.2 0.4 0
0.3 0.4 0
0.4 0.4 0
0.5 0.4 0
0.6 0.4 0
0.7 0.4 0
0.8 0.4 0
0.9 0.4 0
1 0.4 0
0 0.425 0
0.1 0.425 0
0.2 0.425 0
0.3 0.425 0
0.4 0.425 0
0.5 0.425 0
0.6 0.425 0
0.7 0.425 0
0.8 0.425 0
0.9 0.425 0
1 0.425 0
0 0.45 0
0.1 0.45 0
0.2 0.45 0
0.3 0.45 0
0.4 0.45 0
0.5 0.45 0
0.6 0.45 0
0.7 0.45 0
0.8 0.45 0
0.9 0.45 0
1 0.45 0
0 0.475 0
0.1 0.475 0
0.2 0.475 0
0.3 0.475 0
0.4 0.475 0
0.5 0.475 0
0.6 0.475 0
0.7 0.475 0
0.8 0.475 0
0.9 0.475 0
1 0.475 0
0 0.5 0
0.1 0.5 0
0.2 0.5 0
0.3 0.5 0
0.4 0.5 0
0.5 0.5 0
0.6 0.5 0
0.7 0.5 0
0.8 0.5 0
0.9 0.5 0
1 0.5 0
CELLS 400 1600
3 0 1 12
3 0 12 11
3 1 2 13
3 1 13 12
3 2 3 14
3 2 14 13
3 3 4 15
3 3 15 14
3 4 5 16
3 4 16 15
3 5 6 17
3 5 17 16
3 6 7 18
3 6 18 17
3 7 8 19
3 7 19 18
3 8 9 20
3 8 20 19
3 9 10 21
3 9 21 20
3 11 12 23
3 11 23 22
3 12 13 24
3 12 24 23
3 13 14 25
3 13 25 24
3 14 15 26
3 14 26 25
3 15 16 27
3 15 27 26
3 16 17 28
3 16 28 27
3 17 18 29
3 17 29 28
3 18 19 30
3 18 30 29
3 19 20 31
3 19 31 30
3 20 21 32
3 20 32 31
3 22 23 34
3 22 34 33
3 23 24 35
3 23 35 34
3 24 25 36
3 24 36 35
3 25 26 37
3 25 37 36
3 26 27 38
3 26 38 37
3 27 28 39
3 27 39 38
3 28 29 40
3 28 40 39
3 29 30 41
3 29 41 40
3 30 31 42
3 30 42 41
3 31 32 43
3 31 43 42
3 33 34 45
3 33 45 44
3 34 35 46
3 34 46 45
3 35 36 47
3 35 47 46
3 36 37 48
3 36 48 47
3 37 38 49
3 37 49 48
3 38 39 50
3 38 50 49
3 39 40 51
3 39 51 50
3 40 41 52
3 40 52 51
3 41 42 53
3 41 53 52
3 42 43 54
3 42 54 53
3 44 45 56
3 44 56 55
3 45 46 57
3 45 57 56
3 46 47 58
3 46 58 57
3 47 48 59
3 47 59 58
3 48 49 60
3 48 60 59
3 49 50 61
3 49 61 60
3 50 51 62
3 50 62 61
3 51 52 63
3 51 63 62
3 52 53 64
3 52 64 63
3 53 54 65
3 53 65 64
3 55 56 67
3 55 67 66
3 56 57 68
3 56 68 67
3 57 58 69
3 57 69 68
3 58 59 70
3 58 70 69
3 59 60 71
3 59 71 70
3 60 61 72
3 60 72 71
3 61 62 73
3 61 73 72
3 62 63 74
3 62 74 73
3 63 64 75
3 63 75 74
3 64 65 76
3 64 76 75
3 66 67 78
3 66 78 77
3 67 68 79
3 67 79 78
3 68 69 80
3 68 80 79
3 69 70 81
3 69 81 80
3 70 71 82
3 70 82 81
3 71 72 83
3 71 83 82
3 72 73 84
3 72 84 83
3 73 74 85
3 73 85 84
3 74 75 86
3 74 86 85
3 75 76 87
3 75 87 86
3 77 78 89
3 77 89 88
3 78 79 90
3 78 90 89
3 79 80 91
3 79 91 90
3 80 81 92
3 80 92 91
3 81 82 93
3 81 93 92
3 82 83 94
3 82 94 93
3 83 84 95
3 83 95 94
3 84 85 96
3 84 96 95
3 85 86 97
3 85 97 96
3 86 87 98
3 86 98 97
3 88 89 100
3 88 100 99
3 89 90 101
3 89 101 100
3 90 91 102
3 90 102 101
3 91 92 103
3 91 103 102
3 92 93 104
3 92 104 103
3 93 94 105
3 93 105 104
3 94 95 106
3 94 106 105
3 95 96 107
3 95 107 106
3 96 97 108
3 96 108 107
3 97 98 109
3 97 109 108
3 99 100 111
3 99 111 110
3 100 101 112
3 100 112 111
3 101 102 113
3 101 113 112
3 102 103 114
3 102 114 113
3 103 104 115
3 103 115 114
3 104 105 116
3 104 116 115
3 105 106 117
3 105 117 116
3 106 107 118
3 106 118 117
3 107 108 119
3 107 119 118
3 108 109 120
3 108 120 119
3 110 111 122
3 110 122 121
3 111 112 123
3 111 123 122
3 112 113 124
3 112 124 123
3 113 114 125
3 113 125 124
3 114 115 126
3 114 126 125
3 115 116 127
3 115 127 126
3 116 117 128
3 116 128 127
3 117 118 129
3 117 129 128
3 118 119 130
3 118 130 129
3 119 120 131
3 119 131 130
3 121 122 133
3 121 133 132
3 122 123 134
3 122 134 133
3 123 124 135
3 123 135 134
3 124 125 136
3 124 136 135
3 125 126 137
3 125 137 136
3 126 127 138
3 126 138 137
3 127 128 139
3 127 139 138
3 128 129 140
3 128 140 139
3 129 130 141
3 129 141 140
3 130 131 142
3 130 142 141
3 132 133 144
3 132 144 143
3 133 134 145
3 133 145 144
3 134 135 146
3 134 146 145
3 135 136 147
3 135 147 146
3 136 137 148
3 136 148 147
3 137 138 149
3 137 149 148
3 138 139 150
3 138 150 149
3 139 140 151
3 139 151 150
3 140 141 152
3 140 152 151
3 141 142 153
3 141 153 152
3 143 144 155
3 143 155 154
3 144 145 156
3 144 156 155
3 145 146 157
3 145 157 156
3 146 147 158
3 146 158 157
3 147 148 159
3 147 159 158
3 148 149 160
3 148 160 159
3 149 150 161
3 149 161 160
3 150 151 162
3 150 162 161
3 151 152 163
3 151 163 162
3 152 153 164
3 152 164 163
3 154 155 166
3 154 166 165
3 155 156 167
3 155 167 166
3 156 157 168
3 156 168 167
3 157 158 169
3 157 169 168
3 158 159 170
3 158 170 169
3 159 160 171
3 159 171 170
3 160 161 172
3 160 172 171
3 161 162 173
3 161 173 172
3 162 163 174
3 162 174 173
3 163 164 175
3 163 175 174
3 165 166 177
3 165 177 176
3 166 167 178
3 166 178 177
3 167 168 179
3 167 179 178
3 168 169 180
3 168 180 179
3 169 170 181
3 169 181 180
3 170 171 182
3 170 182 181
3 171 172 183
3 171 183 182
3 172 173 184
3 172 184 183
3 173 174 185
3 173 185 184
3 174 175 186
3 174 186 185
3 176 177 188
3 176 188 187
3 177 178 189
3 177 189 188
3 178 179 190
3 178 190 189
3 179 180 191
3 179 191 190
3 180 181 192
3 180 192 191
3 181 182 193
3 181 193 192
3 182 183 194
3 182 194 193
3 183 184 195
3 183 195 194
3 184 185 196
3 184 196 195
3 185 186 197
3 185 197 196
3 187 188 199
3 187 199 198
3 188 189 200
3 188 200 199
3 189 190 201
3 189 201 200
3 190 191 202
3 190 202 201
3 191 192 203
3 191 203 202
3 192 193 204
3 192 204 203
3 193 194 205
3 193 205 204
3 194 195 206
3 194 206 205
3 195 196 207
3 195 207 206
3 196 197 208
3 196 208 207
3 198 199 210
3 198 210 209
3 199 200 211
3 199 211 210
3 200 201 212
3 200 212 211
3 201 202 213
3 201 213 212
3 202 203 214
3 202 214 213
3 203 204 215
3 203 215 214
3 204 205 216
3 204 216 215
3 205 206 217
3 205 217 216
3 206 207 218
3 206 218 217
3 207 208 219
3 207 219 218
3 209 210 221
3 209 221 220
3 210 211 222
3 210 222 221
3 211 212 223
3 211 223 222
3 212 213 224
3 212 224 223
3 213 214 225
3 213 225 224
3 214 215 226
3 214 226 225
3 215 216 227
3 215 227 226
3 216 217 228
3 216 228 227
3 217 218 229
3 217 229 228
3 218 219 230
3 218 230 229
CELL_TYPES 400
5
5
5
5
5
5
5
5
5
5
5
5
5
5
5
5
5
5
5
5
5
5
5
5
5
5
5
5
5
5
5
5
5
5
5
5
5
5
5
5
5
5
5
5
5
5
5
5
5
5
5
5
5
5
5
5
5
5
5
5
5
5
5
5
5
5
5
5
5
5
5
5
5
5
5
5
5
5
5
5
5
5
5
5
5
5
5
5
5
5
5
5
5
5
5
5
5
5
5
5
5
5
5
5
5
5
5
5
5
5
5
5
5
5
5
5
5
5
5
5
5
5
5
5
5
5
5
5
5
5
5
5
5
5
5
5
5
5
5
5
5
5
5
5
5
5
5
5
5
5
5
5
5
5
5
5
5
5
5
5
5
5
5
5
5
5
5
5
5
5
5
5
5
5
5
5
5
5
5
5
5
5
5
5
5
5
5
5
5
5
5
5
5
5
5
5
5
5
5
5
5
5
5
5
5
5
5
5
5
5
5
5
5
5
5
5
5
5
5
5
5
5
5
5
5
5
5
5
5
5
5
5
5
5
5
5
5
5
5
5
5
5
5
5
5
5
5
5
5
5
5
5
5
5
5
5
5
5
5
5
5
5
5
5
5
5
5
5
5
5
5
5
5
5
5
5
5
5
5
5
5
5
5
5
5
5
5
5
5
5
5
5
5
5
5
5
5
5
5
5
5
5
5
5
5
5
5
5
5
5
5
5
5
5
5
5
5
5
5
5
5
5
5
5
5
5
5
5
5
5
5
5
5
5
5
5
5
5
5
5
5
5
5
5
5
5
5
5
5
5
5
5
5
5
5
5
5
5
5
5
5
5
5
5
5
5
5
5
5
5
5
5
5
5
5
5
5
5
5
5
5
5
5
5
5
5
5
5
5
5
5
5
5
5
5
5
5
5
5
5
CELL_DATA 400
VECTORS Ht double
0.0178177 -0.0276729 0
0.0100543 -0.00445443 0
0.130257 0.0333975 0
0.132105 -0.00043694 0
-0.10573 0.012 0
-0.103238 0.0255993 0
-0.0885966 -0.0840567 0
-0.102738 -0.0162833 0
0.346511 0.0757356 0
0.354434 -0.0247203 0
-0.222624 0.0512182 0
-0.213549 0.0665483 0
-0.304905 -0.143147 0
-0.318816 -0.030648 0
0.538011 0.0711801 0
0.545358 -0.0675816 0
-0.136731 0.106019 0
-0.125995 0.0975053 0
-0.522912 -0.130728 0
-0.526134 -0.00947352 0
0.00548658 -0.0768676 0
-0.0162617 -0.00833964 0
0.119745 0.0840263 0
0.123752 -0.0103195 0
-0.0899969 0.0432669 0
-0.0842536 0.0862416 0
-0.099741 -0.228332 0
-0.134811 -0.0452391 0
0.320884 0.187731 0
0.34177 -0.0998949 0
-0.183911 0.153424 0
-0.166296 0.222747 0
-0.295336 -0.379085 0
-0.326127 -0.0786809 0
0.489793 0.167986 0
0.513064 -0.24397 0
-0.102409 0.293232 0
-0.0870085 0.316588 0
-0.478096 -0.381786 0
-0.494684 -0.00272995 0
-0.0218791 -0.123164 0
-0.0573886 0.00119555 0
0.0987399 0.123007 0
0.105917 -0.0291813 0
-0.0611838 0.0883048 0
-0.0489208 0.139243 0
-0.121993 -0.36353 0
-0.175472 -0.0624353 0
0.274889 0.273064 0
0.306917 -0.183062 0
-0.117689 0.258649 0
-0.0928284 0.362575 0
-0.271891 -0.590208 0
-0.319533 -0.105397 0
0.407293 0.24043 0
0.444151 -0.41244 0
-0.0540602 0.46229 0
-0.0369795 0.509501 0
-0.397483 -0.604827 0
-0.429609 0.0159861 0
-0.060286 -0.164514 0
-0.109038 0.0306142 0
0.0702062 0.143584 0
0.081876 -0.0612803 0
-0.0188545 0.151108 0
0.00396479 0.179641 0
-0.148867 -0.482148 0
-0.217226 -0.0610974 0
0.210382 0.321047 0
0.251303 -0.274853 0
-0.0329843 0.363715 0
-0.00272558 0.47537 0
-0.235632 -0.762258 0
-0.299818 -0.103125 0
0.295717 0.282269 0
0.343462 -0.564148 0
-0.000690301 0.602189 0
0.0150322 0.662046 0
-0.290746 -0.784916 0
-0.339926 0.0467592 0
-0.104365 -0.199787 0
-0.165699 0.083965 0
0.0381545 0.139301 0
0.055161 -0.109366 0
0.0365689 0.232633 0
0.0734466 0.203799 0
-0.172502 -0.576889 0
-0.252017 -0.0350571 0
0.130922 0.325494 0
0.178247 -0.373101 0
0.0587964 0.464902 0
0.0925944 0.552462 0
-0.18875 -0.883806 0
-0.268391 -0.0681531 0
0.163127 0.291604 0
0.219494 -0.69139 0
0.0484764 0.705103 0
0.0607766 0.763481 0
-0.169556 -0.912287 0
-0.236143 0.0870927 0
-0.148115 -0.22867 0
-0.221334 0.162418 0
0.00638854 0.104882 0
0.0284569 -0.174324 0
0.102401 0.33055 0
0.155129 0.209643 0
-0.185449 -0.641376 0
-0.272972 0.0203541 0
0.0416437 0.285335 0
0.0928289 -0.472953 0
0.145678 0.558064 0
0.18162 0.588025 0
-0.13385 -0.947569 0
-0.226752 -0.00118599 0
0.0204582 0.270645 0
0.0841141 -0.788175 0
0.0860821 0.766896 0
0.0945391 0.807714 0
-0.0458692 -0.982789 0
-0.128741 0.132517 0
-0.185629 -0.251246 0
-0.269976 0.264159 0
-0.0225056 0.0374278 0
0.00300177 -0.254977 0
0.172761 0.439547 0
0.24075 0.196612 0
-0.182305 -0.670954 0
-0.275743 0.107149 0
-0.0510798 0.204507 0
0.0015629 -0.567632 0
0.216873 0.63871 0
0.254291 0.579668 0
-0.073415 -0.95148 0
-0.176321 0.0928325 0
-0.119157 0.224806 0
-0.0486189 -0.850545 0
0.108052 0.787173 0
0.113978 0.794143 0
0.0695986 -0.997575 0
-0.0269449 0.177673 0
-0.211658 -0.267433 0
-0.306144 0.384567 0
-0.0475568 -0.0623811 0
-0.0212863 -0.348059 0
0.238599 0.552096 0
0.318915 0.165445 0
-0.160769 -0.663422 0
-0.259103 0.223565 0
-0.140119 0.091232 0
-0.0880786 -0.649652 0
0.264155 0.702194 0
0.30311 0.528692 0
-0.00967169 -0.899187 0
-0.118676 0.205458 0
-0.241866 0.161437 0
-0.164436 -0.876715 0
0.113985 0.768931 0
0.119917 0.727901 0
0.168445 -0.9622 0
0.0620372 0.217532 0
-0.221947 -0.276583 0
-0.325075 0.51659 0
-0.0690739 -0.189436 0
-0.0450352 -0.448342 0
0.288863 0.659482 0
0.376935 0.117965 0
-0.121846 -0.61959 0
-0.224723 0.363361 0
-0.218165 -0.0431214 0
-0.168251 -0.712161 0
0.28266 0.744081 0
0.3237 0.440042 0
0.0551431 -0.799786 0
-0.0560677 0.325897 0
-0.335181 0.0885043 0
-0.251244 -0.867095 0
0.106502 0.717897 0
0.115279 0.619325 0
0.245078 -0.885421 0
0.133281 0.248391 0
-0.213378 -0.277414 0
-0.322871 0.651203 0
-0.0877506 -0.334045 0
-0.0683395 -0.548927 0
0.312578 0.752877 0
0.403308 0.0569998 0
-0.0692255 -0.543516 0
-0.176284 0.515831 0
-0.278348 -0.185387 0
-0.231414 -0.750072 0
0.271089 0.760741 0
0.314879 0.321961 0
0.118312 -0.666698 0
0.00811242 0.442373 0
-0.390195 0.0135405 0
-0.301302 -0.824262 0
0.0898554 0.641692 0
0.103612 0.482645 0
0.296691 -0.777928 0
0.184029 0.268386 0
-0.184029 -0.268386 0
-0.296691 0.777928 0
-0.103612 -0.482645 0
-0.0898554 -0.641692 0
0.301302 0.824262 0
0.390195 -0.0135405 0
-0.00811242 -0.442373 0
-0.118312 0.666698 0
-0.314879 -0.321961 0
-0.271089 -0.760741 0
0.231414 0.750072 0
0.278348 0.185387 0
0.176284 -0.515831 0
0.0692255 0.543516 0
-0.403308 -0.0569998 0
-0.312578 -0.752877 0
0.0683395 0.548927 0
0.0877506 0.334045 0
0.322871 -0.651203 0
0.213378 0.277414 0
-0.133281 -0.248391 0
-0.245078 0.885421 0
-0.115279 -0.619325 0
-0.106502 -0.717897 0
0.251244 0.867095 0
0.335181 -0.0885043 0
0.0560677 -0.325897 0
-0.0551431 0.799786 0
-0.3237 -0.440042 0
-0.28266 -0.744081 0
0.168251 0.712161 0
0.218165 0.0431214 0
0.224723 -0.363361 0
0.121846 0.61959 0
-0.376935 -0.117965 0
-0.288863 -0.659482 0
0.0450352 0.448342 0
0.0690739 0.189436 0
0.325075 -0.51659 0
0.221947 0.276583 0
-0.0620372 -0.217532 0
-0.168445 0.9622 0
-0.119917 -0.727901 0
-0.113985 -0.768931 0
0.164436 0.876715 0
0.241866 -0.161437 0
0.118676 -0.205458 0
0.00967169 0.899187 0
-0.30311 -0.528692 0
-0.264155 -0.702194 0
0.0880786 0.649652 0
0.140119 -0.091232 0
0.259103 -0.223565 0
0.160769 0.663422 0
-0.318915 -0.165445 0
-0.238599 -0.552096 0
0.0212863 0.348059 0
0.0475568 0.0623811 0
0.306144 -0.384567 0
0.211658 0.267433 0
0.0269449 -0.177673 0
-0.0695986 0.997575 0
-0.113978 -0.794143 0
-0.108052 -0.787173 0
0.0486189 0.850545 0
0.119157 -0.224806 0
0.176321 -0.0928325 0
0.073415 0.95148 0
-0.254291 -0.579668 0
-0.216873 -0.63871 0
-0.0015629 0.567632 0
0.0510798 -0.204507 0
0.275743 -0.107149 0
0.182305 0.670954 0
-0.24075 -0.196612 0
-0.172761 -0.439547 0
-0.00300177 0.254977 0
0.0225056 -0.0374278 0
0.269976 -0.264159 0
0.185629 0.251246 0
0.128741 -0.132517 0
0.0458692 0.982789 0
-0.0945391 -0.807714 0
-0.0860821 -0.766896 0
-0.0841141 0.788175 0
-0.0204582 -0.270645 0
0.226752 0.00118599 0
0.13385 0.947569 0
-0.18162 -0.588025 0
-0.145678 -0.558064 0
-0.0928289 0.472953 0
-0.0416437 -0.285335 0
0.272972 -0.0203541 0
0.185449 0.641376 0
-0.155129 -0.209643 0
-0.102401 -0.33055 0
-0.0284569 0.174324 0
-0.00638854 -0.104882 0
0.221334 -0.162418 0
0.148115 0.22867 0
0.236143 -0.0870927 0
0.169556 0.912287 0
-0.0607766 -0.763481 0
-0.0484764 -0.705103 0
-0.219494 0.69139 0
-0.163127 -0.291604 0
0.268391 0.0681531 0
0.18875 0.883806 0
-0.0925944 -0.552462 0
-0.0587964 -0.464902 0
-0.178247 0.373101 0
-0.130922 -0.325494 0
0.252017 0.0350571 0
0.172502 0.576889 0
-0.0734466 -0.203799 0
-0.0365689 -0.232633 0
-0.055161 0.109366 0
-0.0381545 -0.139301 0
0.165699 -0.083965 0
0.104365 0.199787 0
0.339926 -0.0467592 0
0.290746 0.784916 0
-0.0150322 -0.662046 0
0.000690301 -0.602189 0
-0.343462 0.564148 0
-0.295717 -0.282269 0
0.299818 0.103125 0
0.235632 0.762258 0
0.00272558 -0.47537 0
0.0329843 -0.363715 0
-0.251303 0.274853 0
-0.210382 -0.321047 0
0.217226 0.0610974 0
0.148867 0.482148 0
-0.00396479 -0.179641 0
0.0188545 -0.151108 0
-0.081876 0.0612803 0
-0.0702062 -0.143584 0
0.109038 -0.0306142 0
0.060286 0.164514 0
0.429609 -0.0159861 0
0.397483 0.604827 0
0.0369795 -0.509501 0
0.0540602 -0.46229 0
-0.444151 0.41244 0
-0.407293 -0.24043 0
0.319533 0.105397 0
0.271891 0.590208 0
0.0928284 -0.362575 0
0.117689 -0.258649 0
-0.306917 0.183062 0
-0.274889 -0.273064 0
0.175472 0.0624353 0
0.121993 0.36353 0
0.0489208 -0.139243 0
0.0611838 -0.0883048 0
-0.105917 0.0291813 0
-0.0987399 -0.123007 0
0.0573886 -0.00119555 0
0.0218791 0.123164 0
0.494684 0.00272995 0
0.478096 0.381786 0
0.0870085 -0.316588 0
0.102409 -0.293232 0
-0.513064 0.24397 0
-0.489793 -0.167986 0
0.326127 0.0786809 0
0.295336 0.379085 0
0.166296 -0.222747 0
0.183911 -0.153424 0
-0.34177 0.0998949 0
-0.320884 -0.187731 0
0.134811 0.0452391 0
0.099741 0.228332 0
0.0842536 -0.0862416 0
0.0899969 -0.0432669 0
-0.123752 0.0103195 0
-0.119745 -0.0840263 0
0.0162617 0.00833964 0
-0.00548658 0.0768676 0
0.526134 0.00947352 0
0.522912 0.130728 0
0.125995 -0.0975053 0
0.136731 -0.106019 0
-0.545358 0.0675816 0
-0.538011 -0.0711801 0
0.318816 0.030648 0
0.304905 0.143147 0
0.213549 -0.0665483 0
0.222624 -0.0512182 0
-0.354434 0.0247203 0
-0.346511 -0.0757356 0
0.102738 0.0162833 0
0.0885966 0.0840567 0
0.103238 -0.0255993 0
0.10573 -0.012 0
-0.132105 0.00043694 0
-0.130257 -0.0333975 0
-0.0100543 0.00445443 0
-0.0178177 0.0276729 0
