# vtk DataFile Version 3.0
tp3485 cell-vector
ASCII
DATASET UNSTRUCTURED_GRID
POINTS 231 double
0 0 0
0.1 0 0
0.2 0 0
0.3 0 0
0.4 0 0
0.5 0 0
0.6 0 0
0.7 0 0
0.8 0 0
0.9 0 0
1 0 0
0 0.025 0
0.1 0.025 0
0.2 0.025 0
0.3 0.025 0
0.4 0.025 0
0.5 0.025 0
0.6 0.025 0
0.7 0.025 0
0.8 0.025 0
0.9 0.025 0
1 0.025 0
0 0.05 0
0.1 0.05 0
0.2 0.05 0
0.3 0.05 0
0.4 0.05 0
0.5 0.05 0
0.6 0.05 0
0.7 0.05 0
0.8 0.05 0
0.9 0.05 0
1 0.05 0
0 0.075 0
0.1 0.075 0
0.2 0.075 0
0.3 0.075 0
0.4 0.075 0
0.5 0.075 0
0.6 0.075 0
0.7 0.075 0
0.8 0.075 0
0.9 0.075 0
1 0.075 0
0 0.1 0
0.1 0.1 0
0.2 0.1 0
0.3 0.1 0
0.4 0.1 0
0.5 0.1 0
0.6 0.1 0
0.7 0.1 0
0.8 0.1 0
0.9 0.1 0
1 0.1 0
0 0.125 0
0.1 0.125 0
0.2 0.125 0
0.3 0.125 0
0.4 0.125 0
0.5 0.125 0
0.6 0.125 0
0.7 0.125 0
0.8 0.125 0
0.9 0.125 0
1 0.125 0
0 0.15 0
0.1 0.15 0
0.2 0.15 0
0.3 0.15 0
0.4 0.15 0
0.5 0.15 0
0.6 0.15 0
0.7 0.15 0
0.8 0.15 0
0.9 0.15 0
1 0.15 0
0 0.175 0
0.1 0.175 0
0.2 0.175 0
0.3 0.175 0
0.4 0.175 0
0.5 0.175 0
0.6 0.175 0
0.7 0.175 0
0.8 0.175 0
0.9 0.175 0
1 0.175 0
0 0.2 0
0.1 0.2 0
0.2 0.2 0
0.3 0.2 0
0.4 0.2 0
0.5 0.2 0
0.6 0.2 0
0.7 0.2 0
0.8 0.2 0
0.9 0.2 0
1 0.2 0
0 0.225 0
0.1 0.225 0
0.2 0.225 0
0.3 0.225 0
0.4 0.225 0
0.5 0.225 0
0.6 0.225 0
0.7 0.225 0
0.8 0.225 0
0.9 0.225 0
1 0.225 0
0 0.25 0
0.1 0.25 0
0.2 0.25 0
0.3 0.25 0
0.4 0.25 0
0.5 0.25 0
0.6 0.25 0
0.7 0.25 0
0.8 0.25 0
0.9 0.25 0
1 0.25 0
0 0.275 0
0.1 0.275 0
0.2 0.275 0
0.3 0.275 0
0.4 0.275 0
0.5 0.275 0
0.6 0.275 0
0.7 0.275 0
0.8 0.275 0
0.9 0.275 0
1 0.275 0
0 0.3 0
0.1 0.3 0
0.2 0.3 0
0.3 0.3 0
0.4 0.3 0
0.5 0.3 0
0.6 0.3 0
0.7 0.3 0
0.8 0.3 0
0.9 0.3 0
1 0.3 0
0 0.325 0
0.1 0.325 0
0.2 0.325 0
0.3 0.325 0
0.4 0.325 0
0.5 0.325 0
0.6 0.325 0
0.7 0.325 0
0.8 0.325 0
0.9 0.325 0
1 0.325 0
0 0.35 0
0.1 0.35 0
0.2 0.35 0
0.3 0.35 0
0.4 0.35 0
0.5 0.35 0
0.6 0.35 0
0.7 0.35 0
0.8 0.35 0
0.9 0.35 0
1 0.35 0
0 0.375 0
0.1 0.375 0
0.2 0.375 0
0.3 0.375 0
0.4 0.375 0
0.5 0.375 0
0.6 0.375 0
0.7 0.375 0
0.8 0.375 0
0.9 0.375 0
1 0.375 0
0 0.4 0
0.1 0.4 0
0.2 0.4 0
0.3 0.4 0
0.4 0.4 0
0.5 0.4 0
0.6 0.4 0
0.7 0.4 0
0.8 0.4 0
0.9 0.4 0
1 0.4 0
0 0.425 0
0.1 0.425 0
0.2 0.425 0
0.3 0.425 0
0.4 0.425 0
0.5 0.425 0
0.6 0.425 0
0.7 0.425 0
0.8 0.425 0
0.9 0.425 0
1 0.425 0
0 0.45 0
0.1 0.45 0
0.2 0.45 0
0.3 0.45 0
0.4 0.45 0
0.5 0.45 0
0.6 0.45 0
0.7 0.45 0
0.8 0.45 0
0.9 0.45 0
1 0.45 0
0 0.475 0
0.1 0.475 0
0.2 0.475 0
0.3 0.475 0
0.4 0.475 0
0.5 0.475 0
0.6 0.475 0
0.7 0.475 0
0.8 0.475 0
0.9 0.475 0
1 0.475 0
0 0.5 0
0.1 0.5 0
0.2 0.5 0
0.3 0.5 0
0.4 0.5 0
0.5 0.5 0
0.6 0.5 0
0.7 0.5 0
0.8 0.5 0
0.9 0.5 0
1 0.5 0
CELLS 400 1600
3 0 1 12
3 0 12 11
3 1 2 13
3 1 13 12
3 2 3 14
3 2 14 13
3 3 4 15
3 3 15 14
3 4 5 16
3 4 16 15
3 5 6 17
3 5 17 16
3 6 7 18
3 6 18 17
3 7 8 19
3 7 19 18
3 8 9 20
3 8 20 19
3 9 10 21
3 9 21 20
3 11 12 23
3 11 23 22
3 12 13 24
3 12 24 23
3 13 14 25
3 13 25 24
3 14 15 26
3 14 26 25
3 15 16 27
3 15 27 26
3 16 17 28
3 16 28 27
3 17 18 29
3 17 29 28
3 18 19 30
3 18 30 29
3 19 20 31
3 19 31 30
3 20 21 32
3 20 32 31
3 22 23 34
3 22 34 33
3 23 24 35
3 23 35 34
3 24 25 36
3 24 36 35
3 25 26 37
3 25 37 36
3 26 27 38
3 26 38 37
3 27 28 39
3 27 39 38
3 28 29 40
3 28 40 39
3 29 30 41
3 29 41 40
3 30 31 42
3 30 42 41
3 31 32 43
3 31 43 42
3 33 34 45
3 33 45 44
3 34 35 46
3 34 46 45
3 35 36 47
3 35 47 46
3 36 37 48
3 36 48 47
3 37 38 49
3 37 49 48
3 38 39 50
3 38 50 49
3 39 40 51
3 39 51 50
3 40 41 52
3 40 52 51
3 41 42 53
3 41 53 52
3 42 43 54
3 42 54 53
3 44 45 56
3 44 56 55
3 45 46 57
3 45 57 56
3 46 47 58
3 46 58 57
3 47 48 59
3 47 59 58
3 48 49 60
3 48 60 59
3 49 50 61
3 49 61 60
3 50 51 62
3 50 62 61
3 51 52 63
3 51 63 62
3 52 53 64
3 52 64 63
3 53 54 65
3 53 65 64
3 55 56 67
3 55 67 66
3 56 57 68
3 56 68 67
3 57 58 69
3 57 69 68
3 58 59 70
3 58 70 69
3 59 60 71
3 59 71 70
3 60 61 72
3 60 72 71
3 61 62 73
3 61 73 72
3 62 63 74
3 62 74 73
3 63 64 75
3 63 75 74
3 64 65 76
3 64 76 75
3 66 67 78
3 66 78 77
3 67 68 79
3 67 79 78
3 68 69 80
3 68 80 79
3 69 70 81
3 69 81 80
3 70 71 82
3 70 82 81
3 71 72 83
3 71 83 82
3 72 73 84
3 72 84 83
3 73 74 85
3 73 85 84
3 74 75 86
3 74 86 85
3 75 76 87
3 75 87 86
3 77 78 89
3 77 89 88
3 78 79 90
3 78 90 89
3 79 80 91
3 79 91 90
3 80 81 92
3 80 92 91
3 81 82 93
3 81 93 92
3 82 83 94
3 82 94 93
3 83 84 95
3 83 95 94
3 84 85 96
3 84 96 95
3 85 86 97
3 85 97 96
3 86 87 98
3 86 98 97
3 88 89 100
3 88 100 99
3 89 90 101
3 89 101 100
3 90 91 102
3 90 102 101
3 91 92 103
3 91 103 102
3 92 93 104
3 92 104 103
3 93 94 105
3 93 105 104
3 94 95 106
3 94 106 105
3 95 96 107
3 95 107 106
3 96 97 108
3 96 108 107
3 97 98 109
3 97 109 108
3 99 100 111
3 99 111 110
3 100 101 112
3 100 112 111
3 101 102 113
3 101 113 112
3 102 103 114
3 102 114 113
3 103 104 115
3 103 115 114
3 104 105 116
3 104 116 115
3 105 106 117
3 105 117 116
3 106 107 118
3 106 118 117
3 107 108 119
3 107 119 118
3 108 109 120
3 108 120 119
3 110 111 122
3 110 122 121
3 111 112 123
3 111 123 122
3 112 113 124
3 112 124 123
3 113 114 125
3 113 125 124
3 114 115 126
3 114 126 125
3 115 116 127
3 115 127 126
3 116 117 128
3 116 128 127
3 117 118 129
3 117 129 128
3 118 119 130
3 118 130 129
3 119 120 131
3 119 131 130
3 121 122 133
3 121 133 132
3 122 123 134
3 122 134 133
3 123 124 135
3 123 135 134
3 124 125 136
3 124 136 135
3 125 126 137
3 125 137 136
3 126 127 138
3 126 138 137
3 127 128 139
3 127 139 138
3 128 129 140
3 128 140 139
3 129 130 141
3 129 141 140
3 130 131 142
3 130 142 141
3 132 133 144
3 132 144 143
3 133 134 145
3 133 145 144
3 134 135 146
3 134 146 145
3 135 136 147
3 135 147 146
3 136 137 148
3 136 148 147
3 137 138 149
3 137 149 148
3 138 139 150
3 138 150 149
3 139 140 151
3 139 151 150
3 140 141 152
3 140 152 151
3 141 142 153
3 141 153 152
3 143 144 155
3 143 155 154
3 144 145 156
3 144 156 155
3 145 146 157
3 145 157 156
3 146 147 158
3 146 158 157
3 147 148 159
3 147 159 158
3 148 149 160
3 148 160 159
3 149 150 161
3 149 161 160
3 150 151 162
3 150 162 161
3 151 152 163
3 151 163 162
3 152 153 164
3 152 164 163
3 154 155 166
3 154 166 165
3 155 156 167
3 155 167 166
3 156 157 168
3 156 168 167
3 157 158 169
3 157 169 168
3 158 159 170
3 158 170 169
3 159 160 171
3 159 171 170
3 160 161 172
3 160 172 171
3 161 162 173
3 161 173 172
3 162 163 174
3 162 174 173
3 163 164 175
3 163 175 174
3 165 166 177
3 165 177 176
3 166 167 178
3 166 178 177
3 167 168 179
3 167 179 178
3 168 169 180
3 168 180 179
3 169 170 181
3 169 181 180
3 170 171 182
3 170 182 181
3 171 172 183
3 171 183 182
3 172 173 184
3 172 184 183
3 173 174 185
3 173 185 184
3 174 175 186
3 174 186 185
3 176 177 188
3 176 188 187
3 177 178 189
3 177 189 188
3 178 179 190
3 178 190 189
3 179 180 191
3 179 191 190
3 180 181 192
3 180 192 191
3 181 182 193
3 181 193 192
3 182 183 194
3 182 194 193
3 183 184 195
3 183 195 194
3 184 185 196
3 184 196 195
3 185 186 197
3 185 197 196
3 187 188 199
3 187 199 198
3 188 189 200
3 188 200 199
3 189 190 201
3 189 201 200
3 190 191 202
3 190 202 201
3 191 192 203
3 191 203 202
3 192 193 204
3 192 204 203
3 193 194 205
3 193 205 204
3 194 195 206
3 194 206 205
3 195 196 207
3 195 207 206
3 196 197 208
3 196 208 207
3 198 199 210
3 198 210 209
3 199 200 211
3 199 211 210
3 200 201 212
3 200 212 211
3 201 202 213
3 201 213 212
3 202 203 214
3 202 214 213
3 203 204 215
3 203 215 214
3 204 205 216
3 204 216 215
3 205 206 217
3 205 217 216
3 206 207 218
3 206 218 217
3 207 208 219
3 207 219 218
3 209 210 221
3 209 221 220
3 210 211 222
3 210 222 221
3 211 212 223
3 211 223 222
3 212 213 224
3 212 224 223
3 213 214 225
3 213 225 224
3 214 215 226
3 214 226 225
3 215 216 227
3 215 227 226
3 216 217 228
3 216 228 227
3 217 218 229
3 217 229 228
3 218 219 230
3 218 230 229
CELL_TYPES 400
5
5
5
5
5
5
5
5
5
5
5
5
5
5
5
5
5
5
5
5
5
5
5
5
5
5
5
5
5
5
5
5
5
5
5
5
5
5
5
5
5
5
5
5
5
5
5
5
5
5
5
5
5
5
5
5
5
5
5
5
5
5
5
5
5
5
5
5
5
5
5
5
5
5
5
5
5
5
5
5
5
5
5
5
5
5
5
5
5
5
5
5
5
5
5
5
5
5
5
5
5
5
5
5
5
5
5
5
5
5
5
5
5
5
5
5
5
5
5
5
5
5
5
5
5
5
5
5
5
5
5
5
5
5
5
5
5
5
5
5
5
5
5
5
5
5
5
5
5
5
5
5
5
5
5
5
5
5
5
5
5
5
5
5
5
5
5
5
5
5
5
5
5
5
5
5
5
5
5
5
5
5
5
5
5
5
5
5
5
5
5
5
5
5
5
5
5
5
5
5
5
5
5
5
5
5
5
5
5
5
5
5
5
5
5
5
5
5
5
5
5
5
5
5
5
5
5
5
5
5
5
5
5
5
5
5
5
5
5
5
5
5
5
5
5
5
5
5
5
5
5
5
5
5
5
5
5
5
5
5
5
5
5
5
5
5
5
5
5
5
5
5
5
5
5
5
5
5
5
5
5
5
5
5
5
5
5
5
5
5
5
5
5
5
5
5
5
5
5
5
5
5
5
5
5
5
5
5
5
5
5
5
5
5
5
5
5
5
5
5
5
5
5
5
5
5
5
5
5
5
5
5
5
5
5
5
5
5
5
5
5
5
5
5
5
5
5
5
5
5
5
5
5
5
5
5
5
5
5
5
5
5
5
5
5
5
5
5
5
5
5
5
5
5
5
5
5
5
5
5
5
5
5
5
5
5
5
5
5
5
5
5
5
5
5
5
5
5
5
5
CELL_DATA 400
VECTORS Et double
-0.0261885 -0.105461 0
-0.1309 0.104315 0
-0.0262018 -0.104937 0
-0.130645 0.103661 0
-0.0262047 -0.103989 0
-0.130572 0.104267 0
-0.0261925 -0.103126 0
-0.130557 0.105197 0
-0.0261686 -0.102719 0
-0.13057 0.105927 0
-0.0261413 -0.10293 0
-0.130591 0.10613 0
-0.0261206 -0.103666 0
-0.130606 0.105715 0
-0.0261135 -0.104596 0
-0.130596 0.104849 0
-0.0261208 -0.105196 0
-0.130527 0.103902 0
-0.0261338 -0.104535 0
-0.130272 0.103386 0
-0.182629 -0.102946 0
-0.284671 0.101313 0
-0.182401 -0.102381 0
-0.284259 0.101026 0
-0.182338 -0.101424 0
-0.284131 0.101677 0
-0.182304 -0.100557 0
-0.284096 0.102619 0
-0.182271 -0.100149 0
-0.284101 0.103353 0
-0.182239 -0.10036 0
-0.284117 0.103558 0
-0.182209 -0.1011 0
-0.284125 0.103142 0
-0.18218 -0.102042 0
-0.284095 0.102273 0
-0.182122 -0.102688 0
-0.28397 0.101316 0
-0.181895 -0.102393 0
-0.283559 0.100758 0
-0.334479 -0.0979602 0
-0.431355 0.0958148 0
-0.334097 -0.0973308 0
-0.430856 0.0958417 0
-0.33398 -0.0963546 0
-0.430687 0.0965654 0
-0.333926 -0.0954826 0
-0.430638 0.097528 0
-0.333886 -0.0950725 0
-0.430636 0.0982695 0
-0.333848 -0.095285 0
-0.430648 0.0984757 0
-0.333811 -0.0960309 0
-0.430649 0.0980597 0
-0.333762 -0.0969941 0
-0.430604 0.0971844 0
-0.333649 -0.097714 0
-0.430439 0.0962094 0
-0.33327 -0.0977316 0
-0.429942 0.0955864 0
-0.478015 -0.0906106 0
-0.567352 0.0879573 0
-0.47755 -0.0899066 0
-0.566822 0.0882511 0
-0.477394 -0.0889064 0
-0.566631 0.0890599 0
-0.477325 -0.0880262 0
-0.566572 0.09005 0
-0.477279 -0.087614 0
-0.566566 0.0908011 0
-0.477237 -0.0878284 0
-0.566576 0.09101 0
-0.477194 -0.0885833 0
-0.566573 0.0905926 0
-0.477131 -0.0895742 0
-0.566518 0.0897096 0
-0.476979 -0.0903797 0
-0.566332 0.0887105 0
-0.476517 -0.0906641 0
-0.565804 0.0880123 0
-0.609715 -0.0810679 0
-0.689323 0.077935 0
-0.609224 -0.0802881 0
-0.688809 0.0784534 0
-0.609047 -0.079261 0
-0.688614 0.0793494 0
-0.60897 -0.0783715 0
-0.688552 0.0803705 0
-0.60892 -0.0779569 0
-0.688544 0.0811324 0
-0.608876 -0.0781737 0
-0.688553 0.0813444 0
-0.608829 -0.078939 0
-0.688549 0.0809254 0
-0.608756 -0.0799608 0
-0.688492 0.0800335 0
-0.608584 -0.080854 0
-0.688302 0.0790074 0
-0.608097 -0.0813635 0
-0.68779 0.0782328 0
-0.726347 -0.0695595 0
-0.794274 0.0659956 0
-0.725876 -0.0687089 0
-0.793813 0.0666989 0
-0.725697 -0.067655 0
-0.793632 0.0676768 0
-0.725617 -0.0667559 0
-0.793573 0.068729 0
-0.725566 -0.0663388 0
-0.793567 0.0695021 0
-0.725521 -0.0665581 0
-0.793577 0.0697174 0
-0.725473 -0.0673341 0
-0.793574 0.0692967 0
-0.725399 -0.0683869 0
-0.793521 0.0683956 0
-0.725225 -0.0693624 0
-0.793344 0.0673425 0
-0.724758 -0.0700578 0
-0.792886 0.0664965 0
-0.825049 -0.0563629 0
-0.879632 0.0524338 0
-0.824636 -0.0554513 0
-0.879254 0.0532838 0
-0.824472 -0.054373 0
-0.8791 0.0543328 0
-0.824396 -0.0534649 0
-0.879051 0.0554134 0
-0.824346 -0.0530454 0
-0.879049 0.0561971 0
-0.824303 -0.0532669 0
-0.879062 0.0564156 0
-0.824256 -0.0540529 0
-0.879063 0.0559932 0
-0.824186 -0.055134 0
-0.879019 0.0550836 0
-0.824027 -0.0561812 0
-0.878871 0.0540058 0
-0.823617 -0.0570246 0
-0.878495 0.0530979 0
-0.903401 -0.0417991 0
-0.943303 0.0375841 0
-0.903074 -0.0408394 0
-0.943029 0.0385434 0
-0.902939 -0.039741 0
-0.942915 0.0396489 0
-0.902874 -0.0388253 0
-0.942881 0.0407529 0
-0.902828 -0.0384037 0
-0.942885 0.0415455 0
-0.902787 -0.0386271 0
-0.942901 0.0417667 0
-0.902745 -0.0394213 0
-0.942908 0.0413431 0
-0.902685 -0.0405258 0
-0.94288 0.0404263 0
-0.902556 -0.0416298 0
-0.942772 0.0393283 0
-0.902231 -0.0425842 0
-0.942499 0.0383713 0
-0.959482 -0.0262237 0
-0.983728 0.0218126 0
-0.959262 -0.025231 0
-0.983573 0.0228443 0
-0.959168 -0.0241184 0
-0.983507 0.0239886 0
-0.959118 -0.0231972 0
-0.983491 0.0251094 0
-0.959079 -0.022774 0
-0.983503 0.0259085 0
-0.959042 -0.0229985 0
-0.983524 0.0261317 0
-0.959006 -0.0237987 0
-0.983539 0.0257073 0
-0.958962 -0.0249197 0
-0.983529 0.0247854 0
-0.958874 -0.0260632 0
-0.983469 0.023673 0
-0.958656 -0.0270918 0
-0.983315 0.0226821 0
-0.991922 -0.0100185 0
-0.999921 0.00550783 0
-0.991822 -0.0090093 0
-0.999892 0.00657518 0
-0.991777 -0.00788931 0
-0.999878 0.00773926 0
-0.991746 -0.00696513 0
-0.999883 0.00886869 0
-0.991714 -0.00654089 0
-0.999903 0.00967139 0
-0.991682 -0.00676587 0
-0.99993 0.00989592 0
-0.991653 -0.00756891 0
-0.999953 0.00947127 0
-0.991628 -0.00869842 0
-0.999963 0.00854687 0
-0.991589 -0.00986221 0
-0.999956 0.00742696 0
-0.991491 -0.0109285 0
-0.999929 0.00641838 0
-0.999929 0.00641838 0
-0.991491 -0.0109285 0
-0.999956 0.00742696 0
-0.991589 -0.00986221 0
-0.999963 0.00854687 0
-0.991628 -0.00869842 0
-0.999953 0.00947127 0
-0.991653 -0.00756891 0
-0.99993 0.00989592 0
-0.991682 -0.00676587 0
-0.999903 0.00967139 0
-0.991714 -0.00654089 0
-0.999883 0.00886869 0
-0.991746 -0.00696513 0
-0.999878 0.00773926 0
-0.991777 -0.00788931 0
-0.999892 0.00657518 0
-0.991822 -0.0090093 0
-0.999921 0.00550783 0
-0.991922 -0.0100185 0
-0.983315 0.0226821 0
-0.958656 -0.0270918 0
-0.983469 0.023673 0
-0.958874 -0.0260632 0
-0.983529 0.0247854 0
-0.958962 -0.0249197 0
-0.983539 0.0257073 0
-0.959006 -0.0237987 0
-0.983524 0.0261317 0
-0.959042 -0.0229985 0
-0.983503 0.0259085 0
-0.959079 -0.022774 0
-0.983491 0.0251094 0
-0.959118 -0.0231972 0
-0.983507 0.0239886 0
-0.959168 -0.0241184 0
-0.983573 0.0228443 0
-0.959262 -0.025231 0
-0.983728 0.0218126 0
-0.959482 -0.0262237 0
-0.942499 0.0383713 0
-0.902231 -0.0425842 0
-0.942772 0.0393283 0
-0.902556 -0.0416298 0
-0.94288 0.0404263 0
-0.902685 -0.0405258 0
-0.942908 0.0413431 0
-0.902745 -0.0394213 0
-0.942901 0.0417667 0
-0.902787 -0.0386271 0
-0.942885 0.0415455 0
-0.902828 -0.0384037 0
-0.942881 0.0407529 0
-0.902874 -0.0388253 0
-0.942915 0.0396489 0
-0.902939 -0.039741 0
-0.943029 0.0385434 0
-0.903074 -0.0408394 0
-0.943303 0.0375841 0
-0.903401 -0.0417991 0
-0.878495 0.0530979 0
-0.823617 -0.0570246 0
-0.878871 0.0540058 0
-0.824027 -0.0561812 0
-0.879019 0.0550836 0
-0.824186 -0.055134 0
-0.879063 0.0559932 0
-0.824256 -0.0540529 0
-0.879062 0.0564156 0
-0.824303 -0.0532669 0
-0.879049 0.0561971 0
-0.824346 -0.0530454 0
-0.879051 0.0554134 0
-0.824396 -0.0534649 0
-0.8791 0.0543328 0
-0.824472 -0.054373 0
-0.879254 0.0532838 0
-0.824636 -0.0554513 0
-0.879632 0.0524338 0
-0.825049 -0.0563629 0
-0.792886 0.0664965 0
-0.724758 -0.0700578 0
-0.793344 0.0673425 0
-0.725225 -0.0693624 0
-0.793521 0.0683956 0
-0.725399 -0.0683869 0
-0.793574 0.0692967 0
-0.725473 -0.0673341 0
-0.793577 0.0697174 0
-0.725521 -0.0665581 0
-0.793567 0.0695021 0
-0.725566 -0.0663388 0
-0.793573 0.068729 0
-0.725617 -0.0667559 0
-0.793632 0.0676768 0
-0.725697 -0.067655 0
-0.793813 0.0666989 0
-0.725876 -0.0687089 0
-0.794274 0.0659956 0
-0.726347 -0.0695595 0
-0.68779 0.0782328 0
-0.608097 -0.0813635 0
-0.688302 0.0790074 0
-0.608584 -0.080854 0
-0.688492 0.0800335 0
-0.608756 -0.0799608 0
-0.688549 0.0809254 0
-0.608829 -0.078939 0
-0.688553 0.0813444 0
-0.608876 -0.0781737 0
-0.688544 0.0811324 0
-0.60892 -0.0779569 0
-0.688552 0.0803705 0
-0.60897 -0.0783715 0
-0.688614 0.0793494 0
-0.609047 -0.079261 0
-0.688809 0.0784534 0
-0.609224 -0.0802881 0
-0.689323 0.077935 0
-0.609715 -0.0810679 0
-0.565804 0.0880123 0
-0.476517 -0.0906641 0
-0.566332 0.0887105 0
-0.476979 -0.0903797 0
-0.566518 0.0897096 0
-0.477131 -0.0895742 0
-0.566573 0.0905926 0
-0.477194 -0.0885833 0
-0.566576 0.09101 0
-0.477237 -0.0878284 0
-0.566566 0.0908011 0
-0.477279 -0.087614 0
-0.566572 0.09005 0
-0.477325 -0.0880262 0
-0.566631 0.0890599 0
-0.477394 -0.0889064 0
-0.566822 0.0882511 0
-0.47755 -0.0899066 0
-0.567352 0.0879573 0
-0.478015 -0.0906106 0
-0.429942 0.0955864 0
-0.33327 -0.0977316 0
-0.430439 0.0962094 0
-0.333649 -0.097714 0
-0.430604 0.0971844 0
-0.333762 -0.0969941 0
-0.430649 0.0980597 0
-0.333811 -0.0960309 0
-0.430648 0.0984757 0
-0.333848 -0.095285 0
-0.430636 0.0982695 0
-0.333886 -0.0950725 0
-0.430638 0.097528 0
-0.333926 -0.0954826 0
-0.430687 0.0965654 0
-0.33398 -0.0963546 0
-0.430856 0.0958417 0
-0.334097 -0.0973308 0
-0.431355 0.0958148 0
-0.334479 -0.0979602 0
-0.283559 0.100758 0
-0.181895 -0.102393 0
-0.28397 0.101316 0
-0.182122 -0.102688 0
-0.284095 0.102273 0
-0.18218 -0.102042 0
-0.284125 0.103142 0
-0.182209 -0.1011 0
-0.284117 0.103558 0
-0.182239 -0.10036 0
-0.284101 0.103353 0
-0.182271 -0.100149 0
-0.284096 0.102619 0
-0.182304 -0.100557 0
-0.284131 0.101677 0
-0.182338 -0.101424 0
-0.284259 0.101026 0
-0.182401 -0.102381 0
-0.284671 0.101313 0
-0.182629 -0.102946 0
-0.130272 0.103386 0
-0.0261338 -0.104535 0
-0.130527 0.103902 0
-0.0261208 -0.105196 0
-0.130596 0.104849 0
-0.0261135 -0.104596 0
-0.130606 0.105715 0
-0.0261206 -0.103666 0
-0.130591 0.10613 0
-0.0261413 -0.10293 0
-0.13057 0.105927 0
-0.0261686 -0.102719 0
-0.130557 0.105197 0
-0.0261925 -0.103126 0
-0.130572 0.104267 0
-0.0262047 -0.103989 0
-0.130645 0.103661 0
-0.0262018 -0.104937 0
-0.1309 0.104315 0
-0.0261885 -0.105461 0
