# vtk DataFile Version 3.0
tp3485 cell-vector
ASCII
DATASET UNSTRUCTURED_GRID
POINTS 231 double
0 0 0
0.1 0 0
0.2 0 0
0.3 0 0
0.4 0 0
0.5 0 0
0.6 0 0
0.7 0 0
0.8 0 0
0.9 0 0
1 0 0
0 0.025 0
0.1 0.025 0
0.2 0.025 0
0.3 0.025 0
0.4 0.025 0
0.5 0.025 0
0.6 0.025 0
0.7 0.025 0
0.8 0.025 0
0.9 0.025 0
1 0.025 0
0 0.05 0
0.1 0.05 0
0.2 0.05 0
0.3 0.05 0
0.4 0.05 0
0.5 0.05 0
0.6 0.05 0
0.7 0.05 0
0.8 0.05 0
0.9 0.05 0
1 0.05 0
0 0.075 0
0.1 0.075 0
0.2 0.075 0
0.3 0.075 0
0.4 0.075 0
0.5 0.075 0
0.6 0.075 0
0.7 0.075 0
0.8 0.075 0
0.9 0.075 0
1 0.075 0
0 0.1 0
0.1 0.1 0
0.2 0.1 0
0.3 0.1 0
0.4 0.1 0
0.5 0.1 0
0.6 0.1 0
0.7 0.1 0
0.8 0.1 0
0.9 0.1 0
1 0.1 0
0 0.125 0
0.1 0.125 0
0.2 0.125 0
0.3 0.125 0
0.4 0.125 0
0.5 0.125 0
0.6 0.125 0
0.7 0.125 0
0.8 0.125 0
0.9 0.125 0
1 0.125 0
0 0.15 0
0.1 0.15 0
0.2 0.15 0
0.3 0.15 0
0.4 0.15 0
0.5 0.15 0
0.6 0.15 0
0.7 0.15 0
0.8 0.15 0
0.9 0.15 0
1 0.15 0
0 0.175 0
0.1 0.175 0
0.2 0.175 0
0.3 0.175 0
0.4 0.175 0
0.5 0.175 0
0.6 0.175 0
0.7 0.175 0
0.8 0.175 0
0.9 0.175 0
1 0.175 0
0 0.2 0
0.1 0.2 0
0.2 0.2 0
0.3 0.2 0
0.4 0.2 0
0.5 0.2 0
0.6 0.2 0
0.7 0.2 0
0.8 0.2 0
0.9 0.2 0
1 0.2 0
0 0.225 0
0.1 0.225 0
0.2 0.225 0
0.3 0.225 0
0.4 0.225 0
0.5 0.225 0
0.6 0.225 0
0.7 0.225 0
0.8 0.225 0
0.9 0.225 0
1 0.225 0
0 0.25 0
0.1 0.25 0
0.2 0.25 0
0.3 0.25 0
0.4 0.25 0
0.5 0.25 0
0.6 0.25 0
0.7 0.25 0
0.8 0.25 0
0.9 0.25 0
1 0.25 0
0 0.275 0
0.1 0.275 0
0.2 0.275 0
0.3 0.275 0
0.4 0.275 0
0.5 0.275 0
0.6 0.275 0
0.7 0.275 0
0.8 0.275 0
0.9 0.275 0
1 0.275 0
0 0.3 0
0.1 0.3 0
0.2 0.3 0
0.3 0.3 0
0.4 0.3 0
0.5 0.3 0
0.6 0.3 0
0.7 0.3 0
0.8 0.3 0
0.9 0.3 0
1 0.3 0
0 0.325 0
0.1 0.325 0
0.2 0.325 0
0.3 0.325 0
0.4 0.325 0
0.5 0.325 0
0.6 0.325 0
0.7 0.325 0
0.8 0.325 0
0.9 0.325 0
1 0.325 0
0 0.35 0
0.1 0.35 0
0.2 0.35 0
0.3 0.35 0
0.4 0.35 0
0.5 0.35 0
0.6 0.35 0
0.7 0.35 0
0.8 0.35 0
0.9 0.35 0
1 0.35 0
0 0.375 0
0.1 0.375 0
0.2 0.375 0
0.3 0.375 0
0.4 0.375 0
0.5 0.375 0
0.6 0.375 0
0.7 0.375 0
0.8 0.375 0
0.9 0.375 0
1 0.375 0
0 0.4 0
0.1 0.4 0
0.2 0.4 0
0.3 0.4 0
0.4 0.4 0
0.5 0.4 0
0.6 0.4 0
0.7 0.4 0
0.8 0.4 0
0.9 0.4 0
1 0.4 0
0 0.425 0
0.1 0.425 0
0.2 0.425 0
0.3 0.425 0
0.4 0.425 0
0.5 0.425 0
0.6 0.425 0
0.7 0.425 0
0.8 0.425 0
0.9 0.425 0
1 0.425 0
0 0.45 0
0.1 0.45 0
0.2 0.45 0
0.3 0.45 0
0.4 0.45 0
0.5 0.45 0
0.6 0.45 0
0.7 0.45 0
0.8 0.45 0
0.9 0.45 0
1 0.45 0
0 0.475 0
0.1 0.475 0
0.2 0.475 0
0.3 0.475 0
0.4 0.475 0
0.5 0.475 0
0.6 0.475 0
0.7 0.475 0
0.8 0.475 0
0.9 0.475 0
1 0.475 0
0 0.5 0
0.1 0.5 0
0.2 0.5 0
0.3 0.5 0
0.4 0.5 0
0.5 0.5 0
0.6 0.5 0
0.7 0.5 0
0.8 0.5 0
0.9 0.5 0
1 0.5 0
CELLS 400 1600
3 0 1 12
3 0 12 11
3 1 2 13
3 1 13 12
3 2 3 14
3 2 14 13
3 3 4 15
3 3 15 14
3 4 5 16
3 4 16 15
3 5 6 17
3 5 17 16
3 6 7 18
3 6 18 17
3 7 8 19
3 7 19 18
3 8 9 20
3 8 20 19
3 9 10 21
3 9 21 20
3 11 12 23
3 11 23 22
3 12 13 24
3 12 24 23
3 13 14 25
3 13 25 24
3 14 15 26
3 14 26 25
3 15 16 27
3 15 27 26
3 16 17 28
3 16 28 27
3 17 18 29
3 17 29 28
3 18 19 30
3 18 30 29
3 19 20 31
3 19 31 30
3 20 21 32
3 20 32 31
3 22 23 34
3 22 34 33
3 23 24 35
3 23 35 34
3 24 25 36
3 24 36 35
3 25 26 37
3 25 37 36
3 26 27 38
3 26 38 37
3 27 28 39
3 27 39 38
3 28 29 40
3 28 40 39
3 29 30 41
3 29 41 40
3 30 31 42
3 30 42 41
3 31 32 43
3 31 43 42
3 33 34 45
3 33 45 44
3 34 35 46
3 34 46 45
3 35 36 47
3 35 47 46
3 36 37 48
3 36 48 47
3 37 38 49
3 37 49 48
3 38 39 50
3 38 50 49
3 39 40 51
3 39 51 50
3 40 41 52
3 40 52 51
3 41 42 53
3 41 53 52
3 42 43 54
3 42 54 53
3 44 45 56
3 44 56 55
3 45 46 57
3 45 57 56
3 46 47 58
3 46 58 57
3 47 48 59
3 47 59 58
3 48 49 60
3 48 60 59
3 49 50 61
3 49 61 60
3 50 51 62
3 50 62 61
3 51 52 63
3 51 63 62
3 52 53 64
3 52 64 63
3 53 54 65
3 53 65 64
3 55 56 67
3 55 67 66
3 56 57 68
3 56 68 67
3 57 58 69
3 57 69 68
3 58 59 70
3 58 70 69
3 59 60 71
3 59 71 70
3 60 61 72
3 60 72 71
3 61 62 73
3 61 73 72
3 62 63 74
3 62 74 73
3 63 64 75
3 63 75 74
3 64 65 76
3 64 76 75
3 66 67 78
3 66 78 77
3 67 68 79
3 67 79 78
3 68 69 80
3 68 80 79
3 69 70 81
3 69 81 80
3 70 71 82
3 70 82 81
3 71 72 83
3 71 83 82
3 72 73 84
3 72 84 83
3 73 74 85
3 73 85 84
3 74 75 86
3 74 86 85
3 75 76 87
3 75 87 86
3 77 78 89
3 77 89 88
3 78 79 90
3 78 90 89
3 79 80 91
3 79 91 90
3 80 81 92
3 80 92 91
3 81 82 93
3 81 93 92
3 82 83 94
3 82 94 93
3 83 84 95
3 83 95 94
3 84 85 96
3 84 96 95
3 85 86 97
3 85 97 96
3 86 87 98
3 86 98 97
3 88 89 100
3 88 100 99
3 89 90 101
3 89 101 100
3 90 91 102
3 90 102 101
3 91 92 103
3 91 103 102
3 92 93 104
3 92 104 103
3 93 94 105
3 93 105 104
3 94 95 106
3 94 106 105
3 95 96 107
3 95 107 106
3 96 97 108
3 96 108 107
3 97 98 109
3 97 109 108
3 99 100 111
3 99 111 110
3 100 101 112
3 100 112 111
3 101 102 113
3 101 113 112
3 102 103 114
3 102 114 113
3 103 104 115
3 103 115 114
3 104 105 116
3 104 116 115
3 105 106 117
3 105 117 116
3 106 107 118
3 106 118 117
3 107 108 119
3 107 119 118
3 108 109 120
3 108 120 119
3 110 111 122
3 110 122 121
3 111 112 123
3 111 123 122
3 112 113 124
3 112 124 123
3 113 114 125
3 113 125 124
3 114 115 126
3 114 126 125
3 115 116 127
3 115 127 126
3 116 117 128
3 116 128 127
3 117 118 129
3 117 129 128
3 118 119 130
3 118 130 129
3 119 120 131
3 119 131 130
3 121 122 133
3 121 133 132
3 122 123 134
3 122 134 133
3 123 124 135
3 123 135 134
3 124 125 136
3 124 136 135
3 125 126 137
3 125 137 136
3 126 127 138
3 126 138 137
3 127 128 139
3 127 139 138
3 128 129 140
3 128 140 139
3 129 130 141
3 129 141 140
3 130 131 142
3 130 142 141
3 132 133 144
3 132 144 143
3 133 134 145
3 133 145 144
3 134 135 146
3 134 146 145
3 135 136 147
3 135 147 146
3 136 137 148
3 136 148 147
3 137 138 149
3 137 149 148
3 138 139 150
3 138 150 149
3 139 140 151
3 139 151 150
3 140 141 152
3 140 152 151
3 141 142 153
3 141 153 152
3 143 144 155
3 143 155 154
3 144 145 156
3 144 156 155
3 145 146 157
3 145 157 156
3 146 147 158
3 146 158 157
3 147 148 159
3 147 159 158
3 148 149 160
3 148 160 159
3 149 150 161
3 149 161 160
3 150 151 162
3 150 162 161
3 151 152 163
3 151 163 162
3 152 153 164
3 152 164 163
3 154 155 166
3 154 166 165
3 155 156 167
3 155 167 166
3 156 157 168
3 156 168 167
3 157 158 169
3 157 169 168
3 158 159 170
3 158 170 169
3 159 160 171
3 159 171 170
3 160 161 172
3 160 172 171
3 161 162 173
3 161 173 172
3 162 163 174
3 162 174 173
3 163 164 175
3 163 175 174
3 165 166 177
3 165 177 176
3 166 167 178
3 166 178 177
3 167 168 179
3 167 179 178
3 168 169 180
3 168 180 179
3 169 170 181
3 169 181 180
3 170 171 182
3 170 182 181
3 171 172 183
3 171 183 182
3 172 173 184
3 172 184 183
3 173 174 185
3 173 185 184
3 174 175 186
3 174 186 185
3 176 177 188
3 176 188 187
3 177 178 189
3 177 189 188
3 178 179 190
3 178 190 189
3 179 180 191
3 179 191 190
3 180 181 192
3 180 192 191
3 181 182 193
3 181 193 192
3 182 183 194
3 182 194 193
3 183 184 195
3 183 195 194
3 184 185 196
3 184 196 195
3 185 186 197
3 185 197 196
3 187 188 199
3 187 199 198
3 188 189 200
3 188 200 199
3 189 190 201
3 189 201 200
3 190 191 202
3 190 202 201
3 191 192 203
3 191 203 202
3 192 193 204
3 192 204 203
3 193 194 205
3 193 205 204
3 194 195 206
3 194 206 205
3 195 196 207
3 195 207 206
3 196 197 208
3 196 208 207
3 198 199 210
3 198 210 209
3 199 200 211
3 199 211 210
3 200 201 212
3 200 212 211
3 201 202 213
3 201 213 212
3 202 203 214
3 202 214 213
3 203 204 215
3 203 215 214
3 204 205 216
3 204 216 215
3 205 206 217
3 205 217 216
3 206 207 218
3 206 218 217
3 207 208 219
3 207 219 218
3 209 210 221
3 209 221 220
3 210 211 222
3 210 222 221
3 211 212 223
3 211 223 222
3 212 213 224
3 212 224 223
3 213 214 225
3 213 225 224
3 214 215 226
3 214 226 225
3 215 216 227
3 215 227 226
3 216 217 228
3 216 228 227
3 217 218 229
3 217 229 228
3 218 219 230
3 218 230 229
CELL_TYPES 400
5
5
5
5
5
5
5
5
5
5
5
5
5
5
5
5
5
5
5
5
5
5
5
5
5
5
5
5
5
5
5
5
5
5
5
5
5
5
5
5
5
5
5
5
5
5
5
5
5
5
5
5
5
5
5
5
5
5
5
5
5
5
5
5
5
5
5
5
5
5
5
5
5
5
5
5
5
5
5
5
5
5
5
5
5
5
5
5
5
5
5
5
5
5
5
5
5
5
5
5
5
5
5
5
5
5
5
5
5
5
5
5
5
5
5
5
5
5
5
5
5
5
5
5
5
5
5
5
5
5
5
5
5
5
5
5
5
5
5
5
5
5
5
5
5
5
5
5
5
5
5
5
5
5
5
5
5
5
5
5
5
5
5
5
5
5
5
5
5
5
5
5
5
5
5
5
5
5
5
5
5
5
5
5
5
5
5
5
5
5
5
5
5
5
5
5
5
5
5
5
5
5
5
5
5
5
5
5
5
5
5
5
5
5
5
5
5
5
5
5
5
5
5
5
5
5
5
5
5
5
5
5
5
5
5
5
5
5
5
5
5
5
5
5
5
5
5
5
5
5
5
5
5
5
5
5
5
5
5
5
5
5
5
5
5
5
5
5
5
5
5
5
5
5
5
5
5
5
5
5
5
5
5
5
5
5
5
5
5
5
5
5
5
5
5
5
5
5
5
5
5
5
5
5
5
5
5
5
5
5
5
5
5
5
5
5
5
5
5
5
5
5
5
5
5
5
5
5
5
5
5
5
5
5
5
5
5
5
5
5
5
5
5
5
5
5
5
5
5
5
5
5
5
5
5
5
5
5
5
5
5
5
5
5
5
5
5
5
5
5
5
5
5
5
5
5
5
5
5
5
5
5
5
5
5
5
5
5
5
5
5
5
5
5
5
5
5
5
5
5
CELL_DATA 400
VECTORS Et double
0.0891166 -0.413283 0
0.288412 -0.427 0
-0.00434853 -0.47201 0
0.119473 -0.877219 0
-0.0412677 0.268634 0
0.0171486 -0.292359 0
0.0192922 0.624972 0
0.0725336 0.46144 0
0.0714255 0.0435676 0
0.140909 0.299569 0
0.025691 -0.665006 0
0.0488097 -0.448426 0
-0.06544 -0.614997 0
-0.162059 -0.629026 0
-0.0935009 0.00799711 0
-0.280317 0.01401 0
-0.0393037 0.377223 0
-0.2031 0.628597 0
0.0173432 0.0693729 0
-0.0740606 0.5194 0
0.473666 -0.3868 0
0.634604 -0.358269 0
0.139022 -0.439597 0
0.235505 -0.777807 0
-0.0646937 0.238396 0
-0.0248231 -0.248261 0
0.0812166 0.56933 0
0.119365 0.441355 0
0.268482 0.051294 0
0.327885 0.291301 0
0.125622 -0.578271 0
0.152309 -0.397412 0
-0.253874 -0.528271 0
-0.328793 -0.568169 0
-0.454327 0.0253338 0
-0.608611 0.00696155 0
-0.297302 0.351988 0
-0.429676 0.5527 0
-0.0509556 0.077382 0
-0.117109 0.450789 0
0.780498 -0.340247 0
0.872373 -0.241218 0
0.241116 -0.374951 0
0.287222 -0.589739 0
-0.105751 0.187367 0
-0.0988669 -0.161109 0
0.119007 0.46314 0
0.131075 0.400147 0
0.434865 0.0562213 0
0.475495 0.266396 0
0.221788 -0.424212 0
0.252105 -0.305176 0
-0.39785 -0.367379 0
-0.436335 -0.447044 0
-0.744405 0.0595285 0
-0.840521 0.00266203 0
-0.497772 0.302976 0
-0.57254 0.412113 0
-0.0861604 0.0923846 0
-0.10515 0.318756 0
0.959196 -0.272125 0
0.965348 -0.0953268 0
0.272143 -0.279951 0
0.256384 -0.33981 0
-0.176184 0.122112 0
-0.20826 -0.0475051 0
0.119452 0.314929 0
0.100362 0.334008 0
0.551073 0.052851 0
0.567056 0.220596 0
0.307471 -0.225184 0
0.339528 -0.185058 0
-0.474053 -0.156204 0
-0.468826 -0.27858 0
-0.919739 0.0993194 0
-0.943328 0.00395475 0
-0.601602 0.22758 0
-0.604803 0.225793 0
-0.0640883 0.106217 0
-0.0255172 0.142926 0
0.983438 -0.181246 0
0.904519 0.0557303 0
0.219781 -0.158434 0
0.144865 -0.0625337 0
-0.276425 0.0507625 0
-0.343113 0.0711905 0
0.0784266 0.137131 0
0.0303796 0.239489 0
0.604125 0.0360141 0
0.593364 0.150297 0
0.37446 -0.00914294 0
0.404444 -0.0539224 0
-0.472046 0.0744803 0
-0.424671 -0.0809063 0
-0.956547 0.130774 0
-0.907072 0.0130217 0
-0.589656 0.123812 0
-0.522448 0.0179842 0
0.0228508 0.108696 0
0.115013 -0.0512543 0
0.855547 -0.068552 0
0.709123 0.188492 0
0.0923098 -0.0169384 0
-0.0253888 0.205495 0
-0.393949 -0.0181616 0
-0.481168 0.173254 0
0.0023573 -0.0546912 0
-0.0654227 0.115963 0
0.589327 0.00259556 0
0.553807 0.0546305 0
0.413782 0.194914 0
0.436554 0.0706124 0
-0.395996 0.292181 0
-0.316416 0.12476 0
-0.854953 0.140892 0
-0.745407 0.03066 0
-0.466534 -0.00734713 0
-0.344816 -0.185394 0
0.162664 0.0905963 0
0.290578 -0.23676 0
0.605246 0.0612966 0
0.421844 0.283943 0
-0.0830055 0.134824 0
-0.217035 0.431337 0
-0.505093 -0.0769917 0
-0.591965 0.240958 0
-0.0927484 -0.243002 0
-0.165866 -0.0322289 0
0.510782 -0.0470632 0
0.456154 -0.0627486 0
0.417073 0.361486 0
0.42721 0.173011 0
-0.263472 0.467946 0
-0.167815 0.316567 0
-0.638076 0.121078 0
-0.491987 0.0557937 0
-0.25928 -0.159886 0
-0.110146 -0.360428 0
0.325649 0.0465837 0
0.461363 -0.389301 0
0.28296 0.199073 0
0.0994641 0.330732 0
-0.265926 0.284054 0
-0.385633 0.590502 0
-0.580029 -0.119988 0
-0.643547 0.263987 0
-0.184563 -0.409795 0
-0.246523 -0.194624 0
0.38055 -0.108457 0
0.315087 -0.192739 0
0.378336 0.472277 0
0.371394 0.242195 0
-0.101602 0.580739 0
-0.0087305 0.474517 0
-0.34684 0.0696525 0
-0.193211 0.0853538 0
-0.011354 -0.321688 0
0.132842 -0.488334 0
0.470799 -0.0226413 0
0.582463 -0.490916 0
-0.0508275 0.331246 0
-0.198999 0.326749 0
-0.412333 0.41569 0
-0.48972 0.66998 0
-0.58983 -0.14408 0
-0.610224 0.241204 0
-0.249321 -0.538332 0
-0.285164 -0.354915 0
0.216628 -0.17314 0
0.149742 -0.321092 0
0.295707 0.518452 0
0.269421 0.273031 0
0.0585803 0.620177 0
0.131005 0.582655 0
-0.0316236 -0.00721418 0
0.101069 0.114587 0
0.226785 -0.474913 0
0.335459 -0.557582 0
0.55533 -0.109556 0
0.614479 -0.532232 0
-0.337867 0.441467 0
-0.424091 0.27882 0
-0.484366 0.513996 0
-0.500424 0.669064 0
-0.514035 -0.149139 0
-0.479643 0.180441 0
-0.267274 -0.614947 0
-0.266972 -0.492812 0
0.0401159 -0.229898 0
-0.0192632 -0.430051 0
0.172803 0.501115 0
0.127934 0.266697 0
0.188375 0.587219 0
0.227505 0.630702 0
0.257456 -0.0964049 0
0.346943 0.137759 0
0.408439 -0.598006 0
0.459349 -0.564735 0
0.545185 -0.200655 0
0.533462 -0.51308 0
-0.533462 0.51308 0
-0.545185 0.200655 0
-0.459349 0.564735 0
-0.408439 0.598006 0
-0.346943 -0.137759 0
-0.257456 0.0964049 0
-0.227505 -0.630702 0
-0.188375 -0.587219 0
-0.127934 -0.266697 0
-0.172803 -0.501115 0
0.0192632 0.430051 0
-0.0401159 0.229898 0
0.266972 0.492812 0
0.267274 0.614947 0
0.479643 -0.180441 0
0.514035 0.149139 0
0.500424 -0.669064 0
0.484366 -0.513996 0
0.424091 -0.27882 0
0.337867 -0.441467 0
-0.614479 0.532232 0
-0.55533 0.109556 0
-0.335459 0.557582 0
-0.226785 0.474913 0
-0.101069 -0.114587 0
0.0316236 0.00721418 0
-0.131005 -0.582655 0
-0.0585803 -0.620177 0
-0.269421 -0.273031 0
-0.295707 -0.518452 0
-0.149742 0.321092 0
-0.216628 0.17314 0
0.285164 0.354915 0
0.249321 0.538332 0
0.610224 -0.241204 0
0.58983 0.14408 0
0.48972 -0.66998 0
0.412333 -0.41569 0
0.198999 -0.326749 0
0.0508275 -0.331246 0
-0.582463 0.490916 0
-0.470799 0.0226413 0
-0.132842 0.488334 0
0.011354 0.321688 0
0.193211 -0.0853538 0
0.34684 -0.0696525 0
0.0087305 -0.474517 0
0.101602 -0.580739 0
-0.371394 -0.242195 0
-0.378336 -0.472277 0
-0.315087 0.192739 0
-0.38055 0.108457 0
0.246523 0.194624 0
0.184563 0.409795 0
0.643547 -0.263987 0
0.580029 0.119988 0
0.385633 -0.590502 0
0.265926 -0.284054 0
-0.0994641 -0.330732 0
-0.28296 -0.199073 0
-0.461363 0.389301 0
-0.325649 -0.0465837 0
0.110146 0.360428 0
0.25928 0.159886 0
0.491987 -0.0557937 0
0.638076 -0.121078 0
0.167815 -0.316567 0
0.263472 -0.467946 0
-0.42721 -0.173011 0
-0.417073 -0.361486 0
-0.456154 0.0627486 0
-0.510782 0.0470632 0
0.165866 0.0322289 0
0.0927484 0.243002 0
0.591965 -0.240958 0
0.505093 0.0769917 0
0.217035 -0.431337 0
0.0830055 -0.134824 0
-0.421844 -0.283943 0
-0.605246 -0.0612966 0
-0.290578 0.23676 0
-0.162664 -0.0905963 0
0.344816 0.185394 0
0.466534 0.00734713 0
0.745407 -0.03066 0
0.854953 -0.140892 0
0.316416 -0.12476 0
0.395996 -0.292181 0
-0.436554 -0.0706124 0
-0.413782 -0.194914 0
-0.553807 -0.0546305 0
-0.589327 -0.00259556 0
0.0654227 -0.115963 0
-0.0023573 0.0546912 0
0.481168 -0.173254 0
0.393949 0.0181616 0
0.0253888 -0.205495 0
-0.0923098 0.0169384 0
-0.709123 -0.188492 0
-0.855547 0.068552 0
-0.115013 0.0512543 0
-0.0228508 -0.108696 0
0.522448 -0.0179842 0
0.589656 -0.123812 0
0.907072 -0.0130217 0
0.956547 -0.130774 0
0.424671 0.0809063 0
0.472046 -0.0744803 0
-0.404444 0.0539224 0
-0.37446 0.00914294 0
-0.593364 -0.150297 0
-0.604125 -0.0360141 0
-0.0303796 -0.239489 0
-0.0784266 -0.137131 0
0.343113 -0.0711905 0
0.276425 -0.0507625 0
-0.144865 0.0625337 0
-0.219781 0.158434 0
-0.904519 -0.0557303 0
-0.983438 0.181246 0
0.0255172 -0.142926 0
0.0640883 -0.106217 0
0.604803 -0.225793 0
0.601602 -0.22758 0
0.943328 -0.00395475 0
0.919739 -0.0993194 0
0.468826 0.27858 0
0.474053 0.156204 0
-0.339528 0.185058 0
-0.307471 0.225184 0
-0.567056 -0.220596 0
-0.551073 -0.052851 0
-0.100362 -0.334008 0
-0.119452 -0.314929 0
0.20826 0.0475051 0
0.176184 -0.122112 0
-0.256384 0.33981 0
-0.272143 0.279951 0
-0.965348 0.0953268 0
-0.959196 0.272125 0
0.10515 -0.318756 0
0.0861604 -0.0923846 0
0.57254 -0.412113 0
0.497772 -0.302976 0
0.840521 -0.00266203 0
0.744405 -0.0595285 0
0.436335 0.447044 0
0.39785 0.367379 0
-0.252105 0.305176 0
-0.221788 0.424212 0
-0.475495 -0.266396 0
-0.434865 -0.0562213 0
-0.131075 -0.400147 0
-0.119007 -0.46314 0
0.0988669 0.161109 0
0.105751 -0.187367 0
-0.287222 0.589739 0
-0.241116 0.374951 0
-0.872373 0.241218 0
-0.780498 0.340247 0
0.117109 -0.450789 0
0.0509556 -0.077382 0
0.429676 -0.5527 0
0.297302 -0.351988 0
0.608611 -0.00696155 0
0.454327 -0.0253338 0
0.328793 0.568169 0
0.253874 0.528271 0
-0.152309 0.397412 0
-0.125622 0.578271 0
-0.327885 -0.291301 0
-0.268482 -0.051294 0
-0.119365 -0.441355 0
-0.0812166 -0.56933 0
0.0248231 0.248261 0
0.0646937 -0.238396 0
-0.235505 0.777807 0
-0.139022 0.439597 0
-0.634604 0.358269 0
-0.473666 0.3868 0
0.0740606 -0.5194 0
-0.0173432 -0.0693729 0
0.2031 -0.628597 0
0.0393037 -0.377223 0
0.280317 -0.01401 0
0.0935009 -0.00799711 0
0.162059 0.629026 0
0.06544 0.614997 0
-0.0488097 0.448426 0
-0.025691 0.665006 0
-0.140909 -0.299569 0
-0.0714255 -0.0435676 0
-0.0725336 -0.46144 0
-0.0192922 -0.624972 0
-0.0171486 0.292359 0
0.0412677 -0.268634 0
-0.119473 0.877219 0
0.00434853 0.47201 0
-0.288412 0.427 0
-0.0891166 0.413283 0
