# vtk DataFile Version 3.0
tp3485 cell-vector
ASCII
DATASET UNSTRUCTURED_GRID
POINTS 231 double
0 0 0
0.1 0 0
0.2 0 0
0.3 0 0
0.4 0 0
0.5 0 0
0.6 0 0
0.7 0 0
0.8 0 0
0.9 0 0
1 0 0
0 0.025 0
0.1 0.025 0
0.2 0.025 0
0.3 0.025 0
0.4 0.025 0
0.5 0.025 0
0.6 0.025 0
0.7 0.025 0
0.8 0.025 0
0.9 0.025 0
1 0.025 0
0 0.05 0
0.1 0.05 0
0.2 0.05 0
0.3 0.05 0
0.4 0.05 0
0.5 0.05 0
0.6 0.05 0
0.7 0.05 0
0.8 0.05 0
0.9 0.05 0
1 0.05 0
0 0.075 0
0.1 0.075 0
0.2 0.075 0
0.3 0.075 0
0.4 0.075 0
0.5 0.075 0
0.6 0.075 0
0.7 0.075 0
0.8 0.075 0
0.9 0.075 0
1 0.075 0
0 0.1 0
0.1 0.1 0
0.2 0.1 0
0.3 0.1 0
0.4 0.1 0
0.5 0.1 0
0.6 0.1 0
0.7 0.1 0
0.8 0.1 0
0.9 0.1 0
1 0.1 0
0 0.125 0
0.1 0.125 0
0.2 0.125 0
0.3 0.125 0
0.4 0.125 0
0.5 0.125 0
0.6 0.125 0
0.7 0.125 0
0.8 0.125 0
0.9 0.125 0
1 0.125 0
0 0.15 0
0.1 0.15 0
0.2 0.15 0
0.3 0.15 0
0.4 0.15 0
0.5 0.15 0
0.6 0.15 0
0.7 0.15 0
0.8 0.15 0
0.9 0.15 0
1 0.15 0
0 0.175 0
0.1 0.175 0
0.2 0.175 0
0.3 0.175 0
0.4 0.175 0
0.5 0.175 0
0.6 0.175 0
0.7 0.175 0
0.8 0.175 0
0.9 0.175 0
1 0.175 0
0 0.2 0
0.1 0.2 0
0.2 0.2 0
0.3 0.2 0
0.4 0.2 0
0.5 0.2 0
0.6 0.2 0
0.7 0.2 0
0.8 0.2 0
0.9 0.2 0
1 0.2 0
0 0.225 0
0.1 0.225 0
0.2 0.225 0
0.3 0.225 0
0.4 0.225 0
0.5 0.225 0
0.6 0.225 0
0.7 0.225 0
0.8 0.225 0
0.9 0.225 0
1 0.225 0
0 0.25 0
0.1 0.25 0
0.2 0.25 0
0.3 0.25 0
0.4 0.25 0
0.5 0.25 0
0.6 0.25 0
0.7 0.25 0
0.8 0.25 0
0.9 0.25 0
1 0.25 0
0 0.275 0
0.1 0.275 0
0.2 0.275 0
0.3 0.275 0
0.4 0.275 0
0.5 0.275 0
0.6 0.275 0
0.7 0.275 0
0.8 0.275 0
0.9 0.275 0
1 0.275 0
0 0.3 0
0.1 0.3 0
0.2 0.3 0
0.3 0.3 0
0.4 0.3 0
0.5 0.3 0
0.6 0.3 0
0.7 0.3 0
0.8 0.3 0
0.9 0.3 0
1 0.3 0
0 0.325 0
0.1 0.325 0
0.2 0.325 0
0.3 0.325 0
0.4 0.325 0
0.5 0.325 0
0.6 0.325 0
0.7 0.325 0
0.8 0.325 0
0.9 0.325 0
1 0.325 0
0 0.35 0
0.1 0.35 0
0.2 0.35 0
0.3 0.35 0
0.4 0.35 0
0.5 0.35 0
0.6 0.35 0
0.7 0.35 0
0.8 0.35 0
0.9 0.35 0
1 0.35 0
0 0.375 0
0.1 0.375 0
0.2 0.375 0
0.3 0.375 0
0.4 0.375 0
0.5 0.375 0
0.6 0.375 0
0.7 0.375 0
0.8 0.375 0
0.9 0.375 0
1 0.375 0
0 0.4 0
0.1 0.4 0
0.2 0.4 0
0.3 0.4 0
0.4 0.4 0
0.5 0.4 0
0.6 0.4 0
0.7 0.4 0
0.8 0.4 0
0.9 0.4 0
1 0.4 0
0 0.425 0
0.1 0.425 0
0.2 0.425 0
0.3 0.425 0
0.4 0.425 0
0.5 0.425 0
0.6 0.425 0
0.7 0.425 0
0.8 0.425 0
0.9 0.425 0
1 0.425 0
0 0.45 0
0.1 0.45 0
0.2 0.45 0
0.3 0.45 0
0.4 0.45 0
0.5 0.45 0
0.6 0.45 0
0.7 0.45 0
0.8 0.45 0
0.9 0.45 0
1 0.45 0
0 0.475 0
0.1 0.475 0
0.2 0.475 0
0.3 0.475 0
0.4 0.475 0
0.5 0.475 0
0.6 0.475 0
0.7 0.475 0
0.8 0.475 0
0.9 0.475 0
1 0.475 0
0 0.5 0
0.1 0.5 0
0.2 0.5 0
0.3 0.5 0
0.4 0.5 0
0.5 0.5 0
0.6 0.5 0
0.7 0.5 0
0.8 0.5 0
0.9 0.5 0
1 0.5 0
CELLS 400 1600
3 0 1 12
3 0 12 11
3 1 2 13
3 1 13 12
3 2 3 14
3 2 14 13
3 3 4 15
3 3 15 14
3 4 5 16
3 4 16 15
3 5 6 17
3 5 17 16
3 6 7 18
3 6 18 17
3 7 8 19
3 7 19 18
3 8 9 20
3 8 20 19
3 9 10 21
3 9 21 20
3 11 12 23
3 11 23 22
3 12 13 24
3 12 24 23
3 13 14 25
3 13 25 24
3 14 15 26
3 14 26 25
3 15 16 27
3 15 27 26
3 16 17 28
3 16 28 27
3 17 18 29
3 17 29 28
3 18 19 30
3 18 30 29
3 19 20 31
3 19 31 30
3 20 21 32
3 20 32 31
3 22 23 34
3 22 34 33
3 23 24 35
3 23 35 34
3 24 25 36
3 24 36 35
3 25 26 37
3 25 37 36
3 26 27 38
3 26 38 37
3 27 28 39
3 27 39 38
3 28 29 40
3 28 40 39
3 29 30 41
3 29 41 40
3 30 31 42
3 30 42 41
3 31 32 43
3 31 43 42
3 33 34 45
3 33 45 44
3 34 35 46
3 34 46 45
3 35 36 47
3 35 47 46
3 36 37 48
3 36 48 47
3 37 38 49
3 37 49 48
3 38 39 50
3 38 50 49
3 39 40 51
3 39 51 50
3 40 41 52
3 40 52 51
3 41 42 53
3 41 53 52
3 42 43 54
3 42 54 53
3 44 45 56
3 44 56 55
3 45 46 57
3 45 57 56
3 46 47 58
3 46 58 57
3 47 48 59
3 47 59 58
3 48 49 60
3 48 60 59
3 49 50 61
3 49 61 60
3 50 51 62
3 50 62 61
3 51 52 63
3 51 63 62
3 52 53 64
3 52 64 63
3 53 54 65
3 53 65 64
3 55 56 67
3 55 67 66
3 56 57 68
3 56 68 67
3 57 58 69
3 57 69 68
3 58 59 70
3 58 70 69
3 59 60 71
3 59 71 70
3 60 61 72
3 60 72 71
3 61 62 73
3 61 73 72
3 62 63 74
3 62 74 73
3 63 64 75
3 63 75 74
3 64 65 76
3 64 76 75
3 66 67 78
3 66 78 77
3 67 68 79
3 67 79 78
3 68 69 80
3 68 80 79
3 69 70 81
3 69 81 80
3 70 71 82
3 70 82 81
3 71 72 83
3 71 83 82
3 72 73 84
3 72 84 83
3 73 74 85
3 73 85 84
3 74 75 86
3 74 86 85
3 75 76 87
3 75 87 86
3 77 78 89
3 77 89 88
3 78 79 90
3 78 90 89
3 79 80 91
3 79 91 90
3 80 81 92
3 80 92 91
3 81 82 93
3 81 93 92
3 82 83 94
3 82 94 93
3 83 84 95
3 83 95 94
3 84 85 96
3 84 96 95
3 85 86 97
3 85 97 96
3 86 87 98
3 86 98 97
3 88 89 100
3 88 100 99
3 89 90 101
3 89 101 100
3 90 91 102
3 90 102 101
3 91 92 103
3 91 103 102
3 92 93 104
3 92 104 103
3 93 94 105
3 93 105 104
3 94 95 106
3 94 106 105
3 95 96 107
3 95 107 106
3 96 97 108
3 96 108 107
3 97 98 109
3 97 109 108
3 99 100 111
3 99 111 110
3 100 101 112
3 100 112 111
3 101 102 113
3 101 113 112
3 102 103 114
3 102 114 113
3 103 104 115
3 103 115 114
3 104 105 116
3 104 116 115
3 105 106 117
3 105 117 116
3 106 107 118
3 106 118 117
3 107 108 119
3 107 119 118
3 108 109 120
3 108 120 119
3 110 111 122
3 110 122 121
3 111 112 123
3 111 123 122
3 112 113 124
3 112 124 123
3 113 114 125
3 113 125 124
3 114 115 126
3 114 126 125
3 115 116 127
3 115 127 126
3 116 117 128
3 116 128 127
3 117 118 129
3 117 129 128
3 118 119 130
3 118 130 129
3 119 120 131
3 119 131 130
3 121 122 133
3 121 133 132
3 122 123 134
3 122 134 133
3 123 124 135
3 123 135 134
3 124 125 136
3 124 136 135
3 125 126 137
3 125 137 136
3 126 127 138
3 126 138 137
3 127 128 139
3 127 139 138
3 128 129 140
3 128 140 139
3 129 130 141
3 129 141 140
3 130 131 142
3 130 142 141
3 132 133 144
3 132 144 143
3 133 134 145
3 133 145 144
3 134 135 146
3 134 146 145
3 135 136 147
3 135 147 146
3 136 137 148
3 136 148 147
3 137 138 149
3 137 149 148
3 138 139 150
3 138 150 149
3 139 140 151
3 139 151 150
3 140 141 152
3 140 152 151
3 141 142 153
3 141 153 152
3 143 144 155
3 143 155 154
3 144 145 156
3 144 156 155
3 145 146 157
3 145 157 156
3 146 147 158
3 146 158 157
3 147 148 159
3 147 159 158
3 148 149 160
3 148 160 159
3 149 150 161
3 149 161 160
3 150 151 162
3 150 162 161
3 151 152 163
3 151 163 162
3 152 153 164
3 152 164 163
3 154 155 166
3 154 166 165
3 155 156 167
3 155 167 166
3 156 157 168
3 156 168 167
3 157 158 169
3 157 169 168
3 158 159 170
3 158 170 169
3 159 160 171
3 159 171 170
3 160 161 172
3 160 172 171
3 161 162 173
3 161 173 172
3 162 163 174
3 162 174 173
3 163 164 175
3 163 175 174
3 165 166 177
3 165 177 176
3 166 167 178
3 166 178 177
3 167 168 179
3 167 179 178
3 168 169 180
3 168 180 179
3 169 170 181
3 169 181 180
3 170 171 182
3 170 182 181
3 171 172 183
3 171 183 182
3 172 173 184
3 172 184 183
3 173 174 185
3 173 185 184
3 174 175 186
3 174 186 185
3 176 177 188
3 176 188 187
3 177 178 189
3 177 189 188
3 178 179 190
3 178 190 189
3 179 180 191
3 179 191 190
3 180 181 192
3 180 192 191
3 181 182 193
3 181 193 192
3 182 183 194
3 182 194 193
3 183 184 195
3 183 195 194
3 184 185 196
3 184 196 195
3 185 186 197
3 185 197 196
3 187 188 199
3 187 199 198
3 188 189 200
3 188 200 199
3 189 190 201
3 189 201 200
3 190 191 202
3 190 202 201
3 191 192 203
3 191 203 202
3 192 193 204
3 192 204 203
3 193 194 205
3 193 205 204
3 194 195 206
3 194 206 205
3 195 196 207
3 195 207 206
3 196 197 208
3 196 208 207
3 198 199 210
3 198 210 209
3 199 200 211
3 199 211 210
3 200 201 212
3 200 212 211
3 201 202 213
3 201 213 212
3 202 203 214
3 202 214 213
3 203 204 215
3 203 215 214
3 204 205 216
3 204 216 215
3 205 206 217
3 205 217 216
3 206 207 218
3 206 218 217
3 207 208 219
3 207 219 218
3 209 210 221
3 209 221 220
3 210 211 222
3 210 222 221
3 211 212 223
3 211 223 222
3 212 213 224
3 212 224 223
3 213 214 225
3 213 225 224
3 214 215 226
3 214 226 225
3 215 216 227
3 215 227 226
3 216 217 228
3 216 228 227
3 217 218 229
3 217 229 228
3 218 219 230
3 218 230 229
CELL_TYPES 400
5
5
5
5
5
5
5
5
5
5
5
5
5
5
5
5
5
5
5
5
5
5
5
5
5
5
5
5
5
5
5
5
5
5
5
5
5
5
5
5
5
5
5
5
5
5
5
5
5
5
5
5
5
5
5
5
5
5
5
5
5
5
5
5
5
5
5
5
5
5
5
5
5
5
5
5
5
5
5
5
5
5
5
5
5
5
5
5
5
5
5
5
5
5
5
5
5
5
5
5
5
5
5
5
5
5
5
5
5
5
5
5
5
5
5
5
5
5
5
5
5
5
5
5
5
5
5
5
5
5
5
5
5
5
5
5
5
5
5
5
5
5
5
5
5
5
5
5
5
5
5
5
5
5
5
5
5
5
5
5
5
5
5
5
5
5
5
5
5
5
5
5
5
5
5
5
5
5
5
5
5
5
5
5
5
5
5
5
5
5
5
5
5
5
5
5
5
5
5
5
5
5
5
5
5
5
5
5
5
5
5
5
5
5
5
5
5
5
5
5
5
5
5
5
5
5
5
5
5
5
5
5
5
5
5
5
5
5
5
5
5
5
5
5
5
5
5
5
5
5
5
5
5
5
5
5
5
5
5
5
5
5
5
5
5
5
5
5
5
5
5
5
5
5
5
5
5
5
5
5
5
5
5
5
5
5
5
5
5
5
5
5
5
5
5
5
5
5
5
5
5
5
5
5
5
5
5
5
5
5
5
5
5
5
5
5
5
5
5
5
5
5
5
5
5
5
5
5
5
5
5
5
5
5
5
5
5
5
5
5
5
5
5
5
5
5
5
5
5
5
5
5
5
5
5
5
5
5
5
5
5
5
5
5
5
5
5
5
5
5
5
5
5
5
5
5
5
5
5
5
5
5
5
5
5
5
5
5
5
5
5
5
5
5
5
5
5
5
5
5
CELL_DATA 400
VECTORS Ht double
-0.160881 0.05073 0
-0.155419 0.0402201 0
-0.464194 0.0545595 0
-0.448661 0.0250983 0
-0.721062 0.0529269 0
-0.697585 0.00965778 0
-0.905765 0.0459357 0
-0.876708 -0.00675137 0
-0.999403 0.0345509 0
-0.967617 -0.0225262 0
-0.994078 0.0200957 0
-0.962669 -0.0358822 0
-0.892678 0.00389039 0
-0.864715 -0.0454457 0
-0.706294 -0.0127448 0
-0.684507 -0.0504864 0
-0.452269 -0.0281659 0
-0.438728 -0.0507612 0
-0.154912 -0.038728 0
-0.15035 -0.0461735 0
-0.14892 0.143518 0
-0.133956 0.116305 0
-0.431791 0.155348 0
-0.388448 0.0763386 0
-0.672049 0.151502 0
-0.605312 0.0311649 0
-0.845064 0.132295 0
-0.761619 -0.0172927 0
-0.93304 0.100424 0
-0.841075 -0.0641642 0
-0.928574 0.05962 0
-0.837082 -0.104109 0
-0.834394 0.0136091 0
-0.75233 -0.133003 0
-0.66085 -0.0338852 0
-0.596227 -0.148643 0
-0.424002 -0.0783102 0
-0.382996 -0.150277 0
-0.145948 -0.112803 0
-0.131841 -0.137637 0
-0.122655 0.222059 0
-0.0995989 0.180458 0
-0.35735 0.240948 0
-0.290482 0.120094 0
-0.557519 0.235331 0
-0.454121 0.0498227 0
-0.701917 0.20578 0
-0.572303 -0.0259453 0
-0.77546 0.156538 0
-0.632335 -0.0993991 0
-0.772043 0.0934265 0
-0.629407 -0.162075 0
-0.694152 0.0221871 0
-0.56597 -0.207471 0
-0.550451 -0.0515113 0
-0.44925 -0.232173 0
-0.35401 -0.120804 0
-0.28951 -0.235069 0
-0.122438 -0.176372 0
-0.100219 -0.215825 0
-0.0846319 0.278701 0
-0.0557005 0.226515 0
-0.248246 0.303019 0
-0.164421 0.152077 0
-0.388782 0.296227 0
-0.258893 0.0637964 0
-0.4904 0.259164 0
-0.327342 -0.031891 0
-0.542108 0.197326 0
-0.361849 -0.124848 0
-0.539789 0.118141 0
-0.359956 -0.204176 0
-0.485615 0.0287576 0
-0.323823 -0.261588 0
-0.385803 -0.0639044 0
-0.257883 -0.292876 0
-0.249056 -0.151488 0
-0.167352 -0.296798 0
-0.0867041 -0.223103 0
-0.0585866 -0.273052 0
-0.0385545 0.307952 0
-0.00654596 0.250079 0
-0.115215 0.335527 0
-0.0226409 0.169171 0
-0.182421 0.328245 0
-0.0387821 0.0717073 0
-0.231257 0.287182 0
-0.0507421 -0.0345878 0
-0.25584 0.218718 0
-0.0561021 -0.138094 0
-0.254533 0.131269 0
-0.0550977 -0.226367 0
-0.229156 0.0326389 0
-0.0495671 -0.290094 0
-0.182958 -0.0698601 0
-0.0408124 -0.324792 0
-0.119355 -0.167345 0
-0.0284421 -0.329376 0
-0.04226 -0.248315 0
-0.0110297 -0.30366 0
0.0110856 0.307017 0
0.0430694 0.248944 0
0.0286973 0.335341 0
0.120975 0.169726 0
0.041334 0.328266 0
0.184658 0.0727696 0
0.05013 0.287053 0
0.230421 -0.0338176 0
0.0553177 0.218538 0
0.254977 -0.137921 0
0.0558022 0.131447 0
0.255322 -0.226559 0
0.0501326 0.0334062 0
0.229949 -0.290236 0
0.0382595 -0.0688053 0
0.18072 -0.324779 0
0.0224215 -0.166797 0
0.113628 -0.329564 0
0.00652781 -0.24944 0
0.0377827 -0.304587 0
0.0594515 0.276058 0
0.0883118 0.223314 0
0.169412 0.302527 0
0.252397 0.153719 0
0.260589 0.2963 0
0.389587 0.0668685 0
0.326232 0.258748 0
0.488655 -0.0297035 0
0.360913 0.196724 0
0.540949 -0.124425 0
0.360829 0.118577 0
0.540901 -0.204811 0
0.324896 0.0309379 0
0.487333 -0.262041 0
0.256186 -0.0608531 0
0.384998 -0.292826 0
0.162388 -0.149868 0
0.244927 -0.297294 0
0.0548635 -0.226279 0
0.0830519 -0.275674 0
0.101837 0.21817 0
0.124783 0.175777 0
0.293196 0.240343 0
0.358815 0.122746 0
0.453928 0.235488 0
0.556009 0.0545723 0
0.570063 0.205001 0
0.698738 -0.0226923 0
0.631049 0.155342 0
0.773843 -0.0989989 0
0.630668 0.0938504 0
0.773659 -0.163322 0
0.568194 0.0254316 0
0.697331 -0.208304 0
0.449443 -0.0467911 0
0.551961 -0.232048 0
0.286807 -0.118184 0
0.352547 -0.235679 0
0.0979892 -0.181018 0
0.120318 -0.219684 0
0.134129 0.139076 0
0.14895 0.111048 0
0.387999 0.154913 0
0.429892 0.0798649 0
0.602505 0.151792 0
0.66773 0.0370772 0
0.757824 0.131045 0
0.840185 -0.0135074 0
0.839308 0.0983854 0
0.930891 -0.0641902 0
0.838876 0.0596272 0
0.93078 -0.106211 0
0.756142 0.0173895 0
0.839306 -0.134315 0
0.599035 -0.0280033 0
0.66517 -0.148387 0
0.383433 -0.0748229 0
0.425877 -0.150712 0
0.13165 -0.118026 0
0.145898 -0.142043 0
0.153206 0.046557 0
0.158489 0.0355095 0
0.444628 0.0546265 0
0.458767 0.029293 0
0.691879 0.0534087 0
0.713929 0.0160909 0
0.871223 0.0440984 0
0.899247 -0.00307436 0
0.965338 0.0313885 0
0.996757 -0.0234484 0
0.965037 0.0192162 0
0.996842 -0.0391109 0
0.87025 0.00757188 0
0.899262 -0.0473387 0
0.690213 -0.00633453 0
0.713427 -0.050026 0
0.442721 -0.0240089 0
0.457642 -0.0506848 0
0.152512 -0.043424 0
0.157246 -0.0503098 0
0.157246 -0.0503098 0
0.152512 -0.043424 0
0.457642 -0.0506848 0
0.442721 -0.0240089 0
0.713427 -0.050026 0
0.690213 -0.00633453 0
0.899262 -0.0473387 0
0.87025 0.00757188 0
0.996842 -0.0391109 0
0.965037 0.0192162 0
0.996757 -0.0234484 0
0.965338 0.0313885 0
0.899247 -0.00307436 0
0.871223 0.0440984 0
0.713929 0.0160909 0
0.691879 0.0534087 0
0.458767 0.029293 0
0.444628 0.0546265 0
0.158489 0.0355095 0
0.153206 0.046557 0
0.145898 -0.142043 0
0.13165 -0.118026 0
0.425877 -0.150712 0
0.383433 -0.0748229 0
0.66517 -0.148387 0
0.599035 -0.0280033 0
0.839306 -0.134315 0
0.756142 0.0173895 0
0.93078 -0.106211 0
0.838876 0.0596272 0
0.930891 -0.0641902 0
0.839308 0.0983854 0
0.840185 -0.0135074 0
0.757824 0.131045 0
0.66773 0.0370772 0
0.602505 0.151792 0
0.429892 0.0798649 0
0.387999 0.154913 0
0.14895 0.111048 0
0.134129 0.139076 0
0.120318 -0.219684 0
0.0979892 -0.181018 0
0.352547 -0.235679 0
0.286807 -0.118184 0
0.551961 -0.232048 0
0.449443 -0.0467911 0
0.697331 -0.208304 0
0.568194 0.0254316 0
0.773659 -0.163322 0
0.630668 0.0938504 0
0.773843 -0.0989989 0
0.631049 0.155342 0
0.698738 -0.0226923 0
0.570063 0.205001 0
0.556009 0.0545723 0
0.453928 0.235488 0
0.358815 0.122746 0
0.293196 0.240343 0
0.124783 0.175777 0
0.101837 0.21817 0
0.0830519 -0.275674 0
0.0548635 -0.226279 0
0.244927 -0.297294 0
0.162388 -0.149868 0
0.384998 -0.292826 0
0.256186 -0.0608531 0
0.487333 -0.262041 0
0.324896 0.0309379 0
0.540901 -0.204811 0
0.360829 0.118577 0
0.540949 -0.124425 0
0.360913 0.196724 0
0.488655 -0.0297035 0
0.326232 0.258748 0
0.389587 0.0668685 0
0.260589 0.2963 0
0.252397 0.153719 0
0.169412 0.302527 0
0.0883118 0.223314 0
0.0594515 0.276058 0
0.0377827 -0.304587 0
0.00652781 -0.24944 0
0.113628 -0.329564 0
0.0224215 -0.166797 0
0.18072 -0.324779 0
0.0382595 -0.0688053 0
0.229949 -0.290236 0
0.0501326 0.0334062 0
0.255322 -0.226559 0
0.0558022 0.131447 0
0.254977 -0.137921 0
0.0553177 0.218538 0
0.230421 -0.0338176 0
0.05013 0.287053 0
0.184658 0.0727696 0
0.041334 0.328266 0
0.120975 0.169726 0
0.0286973 0.335341 0
0.0430694 0.248944 0
0.0110856 0.307017 0
-0.0110297 -0.30366 0
-0.04226 -0.248315 0
-0.0284421 -0.329376 0
-0.119355 -0.167345 0
-0.0408124 -0.324792 0
-0.182958 -0.0698601 0
-0.0495671 -0.290094 0
-0.229156 0.0326389 0
-0.0550977 -0.226367 0
-0.254533 0.131269 0
-0.0561021 -0.138094 0
-0.25584 0.218718 0
-0.0507421 -0.0345878 0
-0.231257 0.287182 0
-0.0387821 0.0717073 0
-0.182421 0.328245 0
-0.0226409 0.169171 0
-0.115215 0.335527 0
-0.00654596 0.250079 0
-0.0385545 0.307952 0
-0.0585866 -0.273052 0
-0.0867041 -0.223103 0
-0.167352 -0.296798 0
-0.249056 -0.151488 0
-0.257883 -0.292876 0
-0.385803 -0.0639044 0
-0.323823 -0.261588 0
-0.485615 0.0287576 0
-0.359956 -0.204176 0
-0.539789 0.118141 0
-0.361849 -0.124848 0
-0.542108 0.197326 0
-0.327342 -0.031891 0
-0.4904 0.259164 0
-0.258893 0.0637964 0
-0.388782 0.296227 0
-0.164421 0.152077 0
-0.248246 0.303019 0
-0.0557005 0.226515 0
-0.0846319 0.278701 0
-0.100219 -0.215825 0
-0.122438 -0.176372 0
-0.28951 -0.235069 0
-0.35401 -0.120804 0
-0.44925 -0.232173 0
-0.550451 -0.0515113 0
-0.56597 -0.207471 0
-0.694152 0.0221871 0
-0.629407 -0.162075 0
-0.772043 0.0934265 0
-0.632335 -0.0993991 0
-0.77546 0.156538 0
-0.572303 -0.0259453 0
-0.701917 0.20578 0
-0.454121 0.0498227 0
-0.557519 0.235331 0
-0.290482 0.120094 0
-0.35735 0.240948 0
-0.0995989 0.180458 0
-0.122655 0.222059 0
-0.131841 -0.137637 0
-0.145948 -0.112803 0
-0.382996 -0.150277 0
-0.424002 -0.0783102 0
-0.596227 -0.148643 0
-0.66085 -0.0338852 0
-0.75233 -0.133003 0
-0.834394 0.0136091 0
-0.837082 -0.104109 0
-0.928574 0.05962 0
-0.841075 -0.0641642 0
-0.93304 0.100424 0
-0.761619 -0.0172927 0
-0.845064 0.132295 0
-0.605312 0.0311649 0
-0.672049 0.151502 0
-0.388448 0.0763386 0
-0.431791 0.155348 0
-0.133956 0.116305 0
-0.14892 0.143518 0
-0.15035 -0.0461735 0
-0.154912 -0.038728 0
-0.438728 -0.0507612 0
-0.452269 -0.0281659 0
-0.684507 -0.0504864 0
-0.706294 -0.0127448 0
-0.864715 -0.0454457 0
-0.892678 0.00389039 0
-0.962669 -0.0358822 0
-0.994078 0.0200957 0
-0.967617 -0.0225262 0
-0.999403 0.0345509 0
-0.876708 -0.00675137 0
-0.905765 0.0459357 0
-0.697585 0.00965778 0
-0.721062 0.0529269 0
-0.448661 0.0250983 0
-0.464194 0.0545595 0
-0.155419 0.0402201 0
-0.160881 0.05073 0
