# vtk DataFile Version 3.0
tp3485 cell-vector
ASCII
DATASET UNSTRUCTURED_GRID
POINTS 231 double
0 0 0
0.1 0 0
0.2 0 0
0.3 0 0
0.4 0 0
0.5 0 0
0.6 0 0
0.7 0 0
0.8 0 0
0.9 0 0
1 0 0
0 0.025 0
0.1 0.025 0
0.2 0.025 0
0.3 0.025 0
0.4 0.025 0
0.5 0.025 0
0.6 0.025 0
0.7 0.025 0
0.8 0.025 0
0.9 0.025 0
1 0.025 0
0 0.05 0
0.1 0.05 0
0.2 0.05 0
0.3 0.05 0
0.4 0.05 0
0.5 0.05 0
0.6 0.05 0
0.7 0.05 0
0.8 0.05 0
0.9 0.05 0
1 0.05 0
0 0.075 0
0.1 0.075 0
0.2 0.075 0
0.3 0.075 0
0.4 0.075 0
0.5 0.075 0
0.6 0.075 0
0.7 0.075 0
0.8 0.075 0
0.9 0.075 0
1 0.075 0
0 0.1 0
0.1 0.1 0
0.2 0.1 0
0.3 0.1 0
0.4 0.1 0
0.5 0.1 0
0.6 0.1 0
0.7 0.1 0
0.8 0.1 0
0.9 0.1 0
1 0.1 0
0 0.125 0
0.1 0.125 0
0.2 0.125 0
0.3 0.125 0
0.4 0.125 0
0.5 0.125 0
0.6 0.125 0
0.7 0.125 0
0.8 0.125 0
0.9 0.125 0
1 0.125 0
0 0.15 0
0.1 0.15 0
0.2 0.15 0
0.3 0.15 0
0.4 0.15 0
0.5 0.15 0
0.6 0.15 0
0.7 0.15 0
0.8 0.15 0
0.9 0.15 0
1 0.15 0
0 0.175 0
0.1 0.175 0
0.2 0.175 0
0.3 0.175 0
0.4 0.175 0
0.5 0.175 0
0.6 0.175 0
0.7 0.175 0
0.8 0.175 0
0.9 0.175 0
1 0.175 0
0 0.2 0
0.1 0.2 0
0.2 0.2 0
0.3 0.2 0
0.4 0.2 0
0.5 0.2 0
0.6 0.2 0
0.7 0.2 0
0.8 0.2 0
0.9 0.2 0
1 0.2 0
0 0.225 0
0.1 0.225 0
0.2 0.225 0
0.3 0.225 0
0.4 0.225 0
0.5 0.225 0
0.6 0.225 0
0.7 0.225 0
0.8 0.225 0
0.9 0.225 0
1 0.225 0
0 0.25 0
0.1 0.25 0
0.2 0.25 0
0.3 0.25 0
0.4 0.25 0
0.5 0.25 0
0.6 0.25 0
0.7 0.25 0
0.8 0.25 0
0.9 0.25 0
1 0.25 0
0 0.275 0
0.1 0.275 0
0.2 0.275 0
0.3 0.275 0
0.4 0.275 0
0.5 0.275 0
0.6 0.275 0
0.7 0.275 0
0.8 0.275 0
0.9 0.275 0
1 0.275 0
0 0.3 0
0.1 0.3 0
0.2 0.3 0
0.3 0.3 0
0.4 0.3 0
0.5 0.3 0
0.6 0.3 0
0.7 0.3 0
0.8 0.3 0
0.9 0.3 0
1 0.3 0
0 0.325 0
0.1 0.325 0
0.2 0.325 0
0.3 0.325 0
0.4 0.325 0
0.5 0.325 0
0.6 0.325 0
0.7 0.325 0
0.8 0.325 0
0.9 0.325 0
1 0.325 0
0 0.35 0
0.1 0.35 0
0.2 0.35 0
0.3 0.35 0
0.4 0.35 0
0.5 0.35 0
0.6 0.35 0
0.7 0.35 0
0.8 0.35 0
0.9 0.35 0
1 0.35 0
0 0.375 0
0.1 0.375 0
0.2 0.375 0
0.3 0.375 0
0.4 0.375 0
0.5 0.375 0
0.6 0.375 0
0.7 0.375 0
0.8 0.375 0
0.9 0.375 0
1 0.375 0
0 0.4 0
0.1 0.4 0
0.2 0.4 0
0.3 0.4 0
0.4 0.4 0
0.5 0.4 0
0.6 0.4 0
0.7 0.4 0
0.8 0.4 0
0.9 0.4 0
1 0.4 0
0 0.425 0
0.1 0.425 0
0.2 0.425 0
0.3 0.425 0
0.4 0.425 0
0.5 0.425 0
0.6 0.425 0
0.7 0.425 0
0.8 0.425 0
0.9 0.425 0
1 0.425 0
0 0.45 0
0.1 0.45 0
0.2 0.45 0
0.3 0.45 0
0.4 0.45 0
0.5 0.45 0
0.6 0.45 0
0.7 0.45 0
0.8 0.45 0
0.9 0.45 0
1 0.45 0
0 0.475 0
0.1 0.475 0
0.2 0.475 0
0.3 0.475 0
0.4 0.475 0
0.5 0.475 0
0.6 0.475 0
0.7 0.475 0
0.8 0.475 0
0.9 0.475 0
1 0.475 0
0 0.5 0
0.1 0.5 0
0.2 0.5 0
0.3 0.5 0
0.4 0.5 0
0.5 0.5 0
0.6 0.5 0
0.7 0.5 0
0.8 0.5 0
0.9 0.5 0
1 0.5 0
CELLS 400 1600
3 0 1 12
3 0 12 11
3 1 2 13
3 1 13 12
3 2 3 14
3 2 14 13
3 3 4 15
3 3 15 14
3 4 5 16
3 4 16 15
3 5 6 17
3 5 17 16
3 6 7 18
3 6 18 17
3 7 8 19
3 7 19 18
3 8 9 20
3 8 20 19
3 9 10 21
3 9 21 20
3 11 12 23
3 11 23 22
3 12 13 24
3 12 24 23
3 13 14 25
3 13 25 24
3 14 15 26
3 14 26 25
3 15 16 27
3 15 27 26
3 16 17 28
3 16 28 27
3 17 18 29
3 17 29 28
3 18 19 30
3 18 30 29
3 19 20 31
3 19 31 30
3 20 21 32
3 20 32 31
3 22 23 34
3 22 34 33
3 23 24 35
3 23 35 34
3 24 25 36
3 24 36 35
3 25 26 37
3 25 37 36
3 26 27 38
3 26 38 37
3 27 28 39
3 27 39 38
3 28 29 40
3 28 40 39
3 29 30 41
3 29 41 40
3 30 31 42
3 30 42 41
3 31 32 43
3 31 43 42
3 33 34 45
3 33 45 44
3 34 35 46
3 34 46 45
3 35 36 47
3 35 47 46
3 36 37 48
3 36 48 47
3 37 38 49
3 37 49 48
3 38 39 50
3 38 50 49
3 39 40 51
3 39 51 50
3 40 41 52
3 40 52 51
3 41 42 53
3 41 53 52
3 42 43 54
3 42 54 53
3 44 45 56
3 44 56 55
3 45 46 57
3 45 57 56
3 46 47 58
3 46 58 57
3 47 48 59
3 47 59 58
3 48 49 60
3 48 60 59
3 49 50 61
3 49 61 60
3 50 51 62
3 50 62 61
3 51 52 63
3 51 63 62
3 52 53 64
3 52 64 63
3 53 54 65
3 53 65 64
3 55 56 67
3 55 67 66
3 56 57 68
3 56 68 67
3 57 58 69
3 57 69 68
3 58 59 70
3 58 70 69
3 59 60 71
3 59 71 70
3 60 61 72
3 60 72 71
3 61 62 73
3 61 73 72
3 62 63 74
3 62 74 73
3 63 64 75
3 63 75 74
3 64 65 76
3 64 76 75
3 66 67 78
3 66 78 77
3 67 68 79
3 67 79 78
3 68 69 80
3 68 80 79
3 69 70 81
3 69 81 80
3 70 71 82
3 70 82 81
3 71 72 83
3 71 83 82
3 72 73 84
3 72 84 83
3 73 74 85
3 73 85 84
3 74 75 86
3 74 86 85
3 75 76 87
3 75 87 86
3 77 78 89
3 77 89 88
3 78 79 90
3 78 90 89
3 79 80 91
3 79 91 90
3 80 81 92
3 80 92 91
3 81 82 93
3 81 93 92
3 82 83 94
3 82 94 93
3 83 84 95
3 83 95 94
3 84 85 96
3 84 96 95
3 85 86 97
3 85 97 96
3 86 87 98
3 86 98 97
3 88 89 100
3 88 100 99
3 89 90 101
3 89 101 100
3 90 91 102
3 90 102 101
3 91 92 103
3 91 103 102
3 92 93 104
3 92 104 103
3 93 94 105
3 93 105 104
3 94 95 106
3 94 106 105
3 95 96 107
3 95 107 106
3 96 97 108
3 96 108 107
3 97 98 109
3 97 109 108
3 99 100 111
3 99 111 110
3 100 101 112
3 100 112 111
3 101 102 113
3 101 113 112
3 102 103 114
3 102 114 113
3 103 104 115
3 103 115 114
3 104 105 116
3 104 116 115
3 105 106 117
3 105 117 116
3 106 107 118
3 106 118 117
3 107 108 119
3 107 119 118
3 108 109 120
3 108 120 119
3 110 111 122
3 110 122 121
3 111 112 123
3 111 123 122
3 112 113 124
3 112 124 123
3 113 114 125
3 113 125 124
3 114 115 126
3 114 126 125
3 115 116 127
3 115 127 126
3 116 117 128
3 116 128 127
3 117 118 129
3 117 129 128
3 118 119 130
3 118 130 129
3 119 120 131
3 119 131 130
3 121 122 133
3 121 133 132
3 122 123 134
3 122 134 133
3 123 124 135
3 123 135 134
3 124 125 136
3 124 136 135
3 125 126 137
3 125 137 136
3 126 127 138
3 126 138 137
3 127 128 139
3 127 139 138
3 128 129 140
3 128 140 139
3 129 130 141
3 129 141 140
3 130 131 142
3 130 142 141
3 132 133 144
3 132 144 143
3 133 134 145
3 133 145 144
3 134 135 146
3 134 146 145
3 135 136 147
3 135 147 146
3 136 137 148
3 136 148 147
3 137 138 149
3 137 149 148
3 138 139 150
3 138 150 149
3 139 140 151
3 139 151 150
3 140 141 152
3 140 152 151
3 141 142 153
3 141 153 152
3 143 144 155
3 143 155 154
3 144 145 156
3 144 156 155
3 145 146 157
3 145 157 156
3 146 147 158
3 146 158 157
3 147 148 159
3 147 159 158
3 148 149 160
3 148 160 159
3 149 150 161
3 149 161 160
3 150 151 162
3 150 162 161
3 151 152 163
3 151 163 162
3 152 153 164
3 152 164 163
3 154 155 166
3 154 166 165
3 155 156 167
3 155 167 166
3 156 157 168
3 156 168 167
3 157 158 169
3 157 169 168
3 158 159 170
3 158 170 169
3 159 160 171
3 159 171 170
3 160 161 172
3 160 172 171
3 161 162 173
3 161 173 172
3 162 163 174
3 162 174 173
3 163 164 175
3 163 175 174
3 165 166 177
3 165 177 176
3 166 167 178
3 166 178 177
3 167 168 179
3 167 179 178
3 168 169 180
3 168 180 179
3 169 170 181
3 169 181 180
3 170 171 182
3 170 182 181
3 171 172 183
3 171 183 182
3 172 173 184
3 172 184 183
3 173 174 185
3 173 185 184
3 174 175 186
3 174 186 185
3 176 177 188
3 176 188 187
3 177 178 189
3 177 189 188
3 178 179 190
3 178 190 189
3 179 180 191
3 179 191 190
3 180 181 192
3 180 192 191
3 181 182 193
3 181 193 192
3 182 183 194
3 182 194 193
3 183 184 195
3 183 195 194
3 184 185 196
3 184 196 195
3 185 186 197
3 185 197 196
3 187 188 199
3 187 199 198
3 188 189 200
3 188 200 199
3 189 190 201
3 189 201 200
3 190 191 202
3 190 202 201
3 191 192 203
3 191 203 202
3 192 193 204
3 192 204 203
3 193 194 205
3 193 205 204
3 194 195 206
3 194 206 205
3 195 196 207
3 195 207 206
3 196 197 208
3 196 208 207
3 198 199 210
3 198 210 209
3 199 200 211
3 199 211 210
3 200 201 212
3 200 212 211
3 201 202 213
3 201 213 212
3 202 203 214
3 202 214 213
3 203 204 215
3 203 215 214
3 204 205 216
3 204 216 215
3 205 206 217
3 205 217 216
3 206 207 218
3 206 218 217
3 207 208 219
3 207 219 218
3 209 210 221
3 209 221 220
3 210 211 222
3 210 222 221
3 211 212 223
3 211 223 222
3 212 213 224
3 212 224 223
3 213 214 225
3 213 225 224
3 214 215 226
3 214 226 225
3 215 216 227
3 215 227 226
3 216 217 228
3 216 228 227
3 217 218 229
3 217 229 228
3 218 219 230
3 218 230 229
CELL_TYPES 400
5
5
5
5
5
5
5
5
5
5
5
5
5
5
5
5
5
5
5
5
5
5
5
5
5
5
5
5
5
5
5
5
5
5
5
5
5
5
5
5
5
5
5
5
5
5
5
5
5
5
5
5
5
5
5
5
5
5
5
5
5
5
5
5
5
5
5
5
5
5
5
5
5
5
5
5
5
5
5
5
5
5
5
5
5
5
5
5
5
5
5
5
5
5
5
5
5
5
5
5
5
5
5
5
5
5
5
5
5
5
5
5
5
5
5
5
5
5
5
5
5
5
5
5
5
5
5
5
5
5
5
5
5
5
5
5
5
5
5
5
5
5
5
5
5
5
5
5
5
5
5
5
5
5
5
5
5
5
5
5
5
5
5
5
5
5
5
5
5
5
5
5
5
5
5
5
5
5
5
5
5
5
5
5
5
5
5
5
5
5
5
5
5
5
5
5
5
5
5
5
5
5
5
5
5
5
5
5
5
5
5
5
5
5
5
5
5
5
5
5
5
5
5
5
5
5
5
5
5
5
5
5
5
5
5
5
5
5
5
5
5
5
5
5
5
5
5
5
5
5
5
5
5
5
5
5
5
5
5
5
5
5
5
5
5
5
5
5
5
5
5
5
5
5
5
5
5
5
5
5
5
5
5
5
5
5
5
5
5
5
5
5
5
5
5
5
5
5
5
5
5
5
5
5
5
5
5
5
5
5
5
5
5
5
5
5
5
5
5
5
5
5
5
5
5
5
5
5
5
5
5
5
5
5
5
5
5
5
5
5
5
5
5
5
5
5
5
5
5
5
5
5
5
5
5
5
5
5
5
5
5
5
5
5
5
5
5
5
5
5
5
5
5
5
5
5
5
5
5
5
5
5
5
5
5
5
5
5
5
5
5
5
5
5
5
5
5
5
5
5
CELL_DATA 400
VECTORS Et double
-0.0433124 0.798979 0
-0.00314277 0.232525 0
0.0316796 0.716656 0
0.0142733 0.942614 0
0.0620682 -0.372082 0
0.0081644 0.340872 0
0.00490193 -0.959449 0
-0.0157355 -0.738823 0
-0.0609913 -0.214655 0
-0.0229153 -0.794991 0
-0.0432099 0.849509 0
9.57809e-05 0.266378 0
0.035587 0.75826 0
0.0253108 0.982031 0
0.0673144 -0.378934 0
0.0208619 0.346023 0
0.00748355 -0.999972 0
-0.00624608 -0.781655 0
-0.0623066 -0.249226 0
-0.0216334 -0.845526 0
-0.103951 0.777546 0
-0.0655449 0.226606 0
0.0524972 0.702389 0
0.0356879 0.920581 0
0.131435 -0.357948 0
0.0792638 0.336931 0
0.0191384 -0.936031 0
-0.000649591 -0.718908 0
-0.128524 -0.215066 0
-0.0912982 -0.779698 0
-0.101851 0.824336 0
-0.0598051 0.254368 0
0.0698228 0.741596 0
0.0594269 0.957982 0
0.154261 -0.364863 0
0.108592 0.342691 0
0.0347677 -0.974096 0
0.0212878 -0.759076 0
-0.128553 -0.243298 0
-0.0880109 -0.826725 0
-0.163175 0.737697 0
-0.127264 0.215069 0
0.0718806 0.671824 0
0.0563354 0.876357 0
0.198374 -0.33425 0
0.14957 0.324979 0
0.0342013 -0.889976 0
0.0159859 -0.681584 0
-0.192321 -0.211613 0
-0.156787 -0.74646 0
-0.158755 0.777632 0
-0.119075 0.23465 0
0.100981 0.706378 0
0.0904809 0.909944 0
0.236688 -0.341528 0
0.192571 0.331691 0
0.0614894 -0.923736 0
0.0483387 -0.716785 0
-0.190344 -0.231369 0
-0.151135 -0.786803 0
-0.219273 0.680177 0
-0.18653 0.198117 0
0.0897216 0.625374 0
0.0760594 0.810729 0
0.261792 -0.301803 0
0.217846 0.305103 0
0.0501888 -0.822289 0
0.0341834 -0.627735 0
-0.250626 -0.203972 0
-0.217596 -0.69575 0
-0.212691 0.710876 0
-0.176404 0.208097 0
0.127822 0.653476 0
0.117288 0.839182 0
0.311996 -0.30974 0
0.27022 0.313027 0
0.086611 -0.850453 0
0.0738681 -0.656169 0
-0.246402 -0.213836 0
-0.209712 -0.726963 0
-0.270582 0.606119 0
-0.241632 0.176112 0
0.105917 0.563775 0
0.0946586 0.725016 0
0.320555 -0.261656 0
0.282749 0.277595 0
0.0670507 -0.734475 0
0.0537677 -0.55859 0
-0.30186 -0.191852 0
-0.272108 -0.628392 0
-0.26244 0.626125 0
-0.230454 0.175824 0
0.149348 0.584259 0
0.138929 0.747563 0
0.377882 -0.270506 0
0.339265 0.286877 0
0.109151 -0.756365 0
0.0969276 -0.579132 0
-0.295646 -0.191208 0
-0.262577 -0.648957 0
-0.315568 0.517035 0
-0.291 0.149564 0
0.120321 0.488108 0
0.111852 0.621054 0
0.373474 -0.215054 0
0.342831 0.242952 0
0.0845517 -0.628519 0
0.0743488 -0.475716 0
-0.344682 -0.175037 0
-0.318934 -0.545571 0
-0.306806 0.525931 0
-0.279889 0.139127 0
0.164865 0.500551 0
0.154797 0.637493 0
0.432443 -0.224991 0
0.397833 0.253607 0
0.12826 -0.644079 0
0.116727 -0.488017 0
-0.337167 -0.164092 0
-0.308689 -0.555011 0
-0.352904 0.41481 0
-0.33327 0.119112 0
0.132716 0.399799 0
0.127261 0.501161 0
0.419301 -0.163393 0
0.396552 0.20187 0
0.102254 -0.506852 0
0.0953183 -0.380994 0
-0.378032 -0.153434 0
-0.356948 -0.448846 0
-0.344642 0.413237 0
-0.323399 0.0994156 0
0.17402 0.404564 0
0.164628 0.51185 0
0.474255 -0.174478 0
0.444519 0.213776 0
0.143282 -0.51661 0
0.132682 -0.38551 0
-0.370213 -0.133183 0
-0.347116 -0.447752 0
-0.381519 0.301673 0
-0.367325 0.0855067 0
0.142799 0.300623 0
0.140414 0.368086 0
0.456759 -0.108171 0
0.442327 0.155233 0
0.119523 -0.37231 0
0.115867 -0.276599 0
-0.401158 -0.12711 0
-0.385323 -0.34015 0
-0.374883 0.291267 0
-0.359744 0.058135 0
0.17681 0.298824 0
0.168495 0.373891 0
0.502416 -0.120336 0
0.478415 0.168142 0
0.153797 -0.377302 0
0.144445 -0.274539 0
-0.394176 -0.0992459 0
-0.377042 -0.330117 0
-0.400639 0.180171 0
-0.392324 0.04958 0
0.150186 0.192689 0
0.150769 0.224947 0
0.484577 -0.050935 0
0.478582 0.104091 0
0.135554 -0.228078 0
0.13503 -0.164964 0
-0.413639 -0.0963301 0
-0.403538 -0.221786 0
-0.396582 0.1634 0
-0.387798 0.0166964 0
0.17357 0.186087 0
0.166786 0.22716 0
0.51656 -0.063982 0
0.499113 0.117651 0
0.159635 -0.22974 0
0.1519 -0.158168 0
-0.40859 -0.0631095 0
-0.397781 -0.205251 0
-0.409794 0.0531281 0
-0.407698 0.0122211 0
0.154446 0.0784183 0
0.157764 0.0751566 0
0.501562 0.00676626 0
0.503845 0.0496295 0
0.149421 -0.0776224 0
0.151743 -0.0487424 0
-0.415378 -0.0615839 0
-0.411384 -0.0964005 0
-0.408946 0.0330588 0
-0.406596 -0.0235927 0
0.164928 0.0692483 0
0.160149 0.0753863 0
0.516834 -0.00685305 0
0.506673 0.0634319 0
0.160864 -0.0776571 0
0.155145 -0.0395015 0
-0.413143 -0.0256505 0
-0.408809 -0.0764119 0
-0.408809 -0.0764119 0
-0.413143 -0.0256505 0
0.155145 -0.0395015 0
0.160864 -0.0776571 0
0.506673 0.0634319 0
0.516834 -0.00685305 0
0.160149 0.0753863 0
0.164928 0.0692483 0
-0.406596 -0.0235927 0
-0.408946 0.0330588 0
-0.411384 -0.0964005 0
-0.415378 -0.0615839 0
0.151743 -0.0487424 0
0.149421 -0.0776224 0
0.503845 0.0496295 0
0.501562 0.00676626 0
0.157764 0.0751566 0
0.154446 0.0784183 0
-0.407698 0.0122211 0
-0.409794 0.0531281 0
-0.397781 -0.205251 0
-0.40859 -0.0631095 0
0.1519 -0.158168 0
0.159635 -0.22974 0
0.499113 0.117651 0
0.51656 -0.063982 0
0.166786 0.22716 0
0.17357 0.186087 0
-0.387798 0.0166964 0
-0.396582 0.1634 0
-0.403538 -0.221786 0
-0.413639 -0.0963301 0
0.13503 -0.164964 0
0.135554 -0.228078 0
0.478582 0.104091 0
0.484577 -0.050935 0
0.150769 0.224947 0
0.150186 0.192689 0
-0.392324 0.04958 0
-0.400639 0.180171 0
-0.377042 -0.330117 0
-0.394176 -0.0992459 0
0.144445 -0.274539 0
0.153797 -0.377302 0
0.478415 0.168142 0
0.502416 -0.120336 0
0.168495 0.373891 0
0.17681 0.298824 0
-0.359744 0.058135 0
-0.374883 0.291267 0
-0.385323 -0.34015 0
-0.401158 -0.12711 0
0.115867 -0.276599 0
0.119523 -0.37231 0
0.442327 0.155233 0
0.456759 -0.108171 0
0.140414 0.368086 0
0.142799 0.300623 0
-0.367325 0.0855067 0
-0.381519 0.301673 0
-0.347116 -0.447752 0
-0.370213 -0.133183 0
0.132682 -0.38551 0
0.143282 -0.51661 0
0.444519 0.213776 0
0.474255 -0.174478 0
0.164628 0.51185 0
0.17402 0.404564 0
-0.323399 0.0994156 0
-0.344642 0.413237 0
-0.356948 -0.448846 0
-0.378032 -0.153434 0
0.0953183 -0.380994 0
0.102254 -0.506852 0
0.396552 0.20187 0
0.419301 -0.163393 0
0.127261 0.501161 0
0.132716 0.399799 0
-0.33327 0.119112 0
-0.352904 0.41481 0
-0.308689 -0.555011 0
-0.337167 -0.164092 0
0.116727 -0.488017 0
0.12826 -0.644079 0
0.397833 0.253607 0
0.432443 -0.224991 0
0.154797 0.637493 0
0.164865 0.500551 0
-0.279889 0.139127 0
-0.306806 0.525931 0
-0.318934 -0.545571 0
-0.344682 -0.175037 0
0.0743488 -0.475716 0
0.0845517 -0.628519 0
0.342831 0.242952 0
0.373474 -0.215054 0
0.111852 0.621054 0
0.120321 0.488108 0
-0.291 0.149564 0
-0.315568 0.517035 0
-0.262577 -0.648957 0
-0.295646 -0.191208 0
0.0969276 -0.579132 0
0.109151 -0.756365 0
0.339265 0.286877 0
0.377882 -0.270506 0
0.138929 0.747563 0
0.149348 0.584259 0
-0.230454 0.175824 0
-0.26244 0.626125 0
-0.272108 -0.628392 0
-0.30186 -0.191852 0
0.0537677 -0.55859 0
0.0670507 -0.734475 0
0.282749 0.277595 0
0.320555 -0.261656 0
0.0946586 0.725016 0
0.105917 0.563775 0
-0.241632 0.176112 0
-0.270582 0.606119 0
-0.209712 -0.726963 0
-0.246402 -0.213836 0
0.0738681 -0.656169 0
0.086611 -0.850453 0
0.27022 0.313027 0
0.311996 -0.30974 0
0.117288 0.839182 0
0.127822 0.653476 0
-0.176404 0.208097 0
-0.212691 0.710876 0
-0.217596 -0.69575 0
-0.250626 -0.203972 0
0.0341834 -0.627735 0
0.0501888 -0.822289 0
0.217846 0.305103 0
0.261792 -0.301803 0
0.0760594 0.810729 0
0.0897216 0.625374 0
-0.18653 0.198117 0
-0.219273 0.680177 0
-0.151135 -0.786803 0
-0.190344 -0.231369 0
0.0483387 -0.716785 0
0.0614894 -0.923736 0
0.192571 0.331691 0
0.236688 -0.341528 0
0.0904809 0.909944 0
0.100981 0.706378 0
-0.119075 0.23465 0
-0.158755 0.777632 0
-0.156787 -0.74646 0
-0.192321 -0.211613 0
0.0159859 -0.681584 0
0.0342013 -0.889976 0
0.14957 0.324979 0
0.198374 -0.33425 0
0.0563354 0.876357 0
0.0718806 0.671824 0
-0.127264 0.215069 0
-0.163175 0.737697 0
-0.0880109 -0.826725 0
-0.128553 -0.243298 0
0.0212878 -0.759076 0
0.0347677 -0.974096 0
0.108592 0.342691 0
0.154261 -0.364863 0
0.0594269 0.957982 0
0.0698228 0.741596 0
-0.0598051 0.254368 0
-0.101851 0.824336 0
-0.0912982 -0.779698 0
-0.128524 -0.215066 0
-0.000649591 -0.718908 0
0.0191384 -0.936031 0
0.0792638 0.336931 0
0.131435 -0.357948 0
0.0356879 0.920581 0
0.0524972 0.702389 0
-0.0655449 0.226606 0
-0.103951 0.777546 0
-0.0216334 -0.845526 0
-0.0623066 -0.249226 0
-0.00624608 -0.781655 0
0.00748355 -0.999972 0
0.0208619 0.346023 0
0.0673144 -0.378934 0
0.0253108 0.982031 0
0.035587 0.75826 0
9.57809e-05 0.266378 0
-0.0432099 0.849509 0
-0.0229153 -0.794991 0
-0.0609913 -0.214655 0
-0.0157355 -0.738823 0
0.00490193 -0.959449 0
0.0081644 0.340872 0
0.0620682 -0.372082 0
0.0142733 0.942614 0
0.0316796 0.716656 0
-0.00314277 0.232525 0
-0.0433124 0.798979 0
