# vtk DataFile Version 3.0
tp3485 cell-vector
ASCII
DATASET UNSTRUCTURED_GRID
POINTS 231 double
0 0 0
0.1 0 0
0.2 0 0
0.3 0 0
0.4 0 0
0.5 0 0
0.6 0 0
0.7 0 0
0.8 0 0
0.9 0 0
1 0 0
0 0.025 0
0.1 0.025 0
0.2 0.025 0
0.3 0.025 0
0.4 0.025 0
0.5 0.025 0
0.6 0.025 0
0.7 0.025 0
0.8 0.025 0
0.9 0.025 0
1 0.025 0
0 0.05 0
0.1 0.05 0
0.2 0.05 0
0.3 0.05 0
0.4 0.05 0
0.5 0.05 0
0.6 0.05 0
0.7 0.05 0
0.8 0.05 0
0.9 0.05 0
1 0.05 0
0 0.075 0
0.1 0.075 0
0.2 0.075 0
0.3 0.075 0
0.4 0.075 0
0.5 0.075 0
0.6 0.075 0
0.7 0.075 0
0.8 0.075 0
0.9 0.075 0
1 0.075 0
0 0.1 0
0.1 0.1 0
0.2 0.1 0
0.3 0.1 0
0.4 0.1 0
0.5 0.1 0
0.6 0.1 0
0.7 0.1 0
0.8 0.1 0
0.9 0.1 0
1 0.1 0
0 0.125 0
0.1 0.125 0
0.2 0.125 0
0.3 0.125 0
0.4 0.125 0
0.5 0.125 0
0.6 0.125 0
0.7 0.125 0
0.8 0.125 0
0.9 0.125 0
1 0.125 0
0 0.15 0
0.1 0.15 0
0.2 0.15 0
0.3 0.15 0
0.4 0.15 0
0.5 0.15 0
0.6 0.15 0
0.7 0.15 0
0.8 0.15 0
0.9 0.15 0
1 0.15 0
0 0.175 0
0.1 0.175 0
0.2 0.175 0
0.3 0.175 0
0.4 0.175 0
0.5 0.175 0
0.6 0.175 0
0.7 0.175 0
0.8 0.175 0
0.9 0.175 0
1 0.175 0
0 0.2 0
0.1 0.2 0
0.2 0.2 0
0.3 0.2 0
0.4 0.2 0
0.5 0.2 0
0.6 0.2 0
0.7 0.2 0
0.8 0.2 0
0.9 0.2 0
1 0.2 0
0 0.225 0
0.1 0.225 0
0.2 0.225 0
0.3 0.225 0
0.4 0.225 0
0.5 0.225 0
0.6 0.225 0
0.7 0.225 0
0.8 0.225 0
0.9 0.225 0
1 0.225 0
0 0.25 0
0.1 0.25 0
0.2 0.25 0
0.3 0.25 0
0.4 0.25 0
0.5 0.25 0
0.6 0.25 0
0.7 0.25 0
0.8 0.25 0
0.9 0.25 0
1 0.25 0
0 0.275 0
0.1 0.275 0
0.2 0.275 0
0.3 0.275 0
0.4 0.275 0
0.5 0.275 0
0.6 0.275 0
0.7 0.275 0
0.8 0.275 0
0.9 0.275 0
1 0.275 0
0 0.3 0
0.1 0.3 0
0.2 0.3 0
0.3 0.3 0
0.4 0.3 0
0.5 0.3 0
0.6 0.3 0
0.7 0.3 0
0.8 0.3 0
0.9 0.3 0
1 0.3 0
0 0.325 0
0.1 0.325 0
0.2 0.325 0
0.3 0.325 0
0.4 0.325 0
0.5 0.325 0
0.6 0.325 0
0.7 0.325 0
0.8 0.325 0
0.9 0.325 0
1 0.325 0
0 0.35 0
0.1 0.35 0
0.2 0.35 0
0.3 0.35 0
0.4 0.35 0
0.5 0.35 0
0.6 0.35 0
0.7 0.35 0
0.8 0.35 0
0.9 0.35 0
1 0.35 0
0 0.375 0
0.1 0.375 0
0.2 0.375 0
0.3 0.375 0
0.4 0.375 0
0.5 0.375 0
0.6 0.375 0
0.7 0.375 0
0.8 0.375 0
0.9 0.375 0
1 0.375 0
0 0.4 0
0.1 0.4 0
0.2 0.4 0
0.3 0.4 0
0.4 0.4 0
0.5 0.4 0
0.6 0.4 0
0.7 0.4 0
0.8 0.4 0
0.9 0.4 0
1 0.4 0
0 0.425 0
0.1 0.425 0
0.2 0.425 0
0.3 0.425 0
0.4 0.425 0
0.5 0.425 0
0.6 0.425 0
0.7 0.425 0
0.8 0.425 0
0.9 0.425 0
1 0.425 0
0 0.45 0
0.1 0.45 0
0.2 0.45 0
0.3 0.45 0
0.4 0.45 0
0.5 0.45 0
0.6 0.45 0
0.7 0.45 0
0.8 0.45 0
0.9 0.45 0
1 0.45 0
0 0.475 0
0.1 0.475 0
0.2 0.475 0
0.3 0.475 0
0.4 0.475 0
0.5 0.475 0
0.6 0.475 0
0.7 0.475 0
0.8 0.475 0
0.9 0.475 0
1 0.475 0
0 0.5 0
0.1 0.5 0
0.2 0.5 0
0.3 0.5 0
0.4 0.5 0
0.5 0.5 0
0.6 0.5 0
0.7 0.5 0
0.8 0.5 0
0.9 0.5 0
1 0.5 0
CELLS 400 1600
3 0 1 12
3 0 12 11
3 1 2 13
3 1 13 12
3 2 3 14
3 2 14 13
3 3 4 15
3 3 15 14
3 4 5 16
3 4 16 15
3 5 6 17
3 5 17 16
3 6 7 18
3 6 18 17
3 7 8 19
3 7 19 18
3 8 9 20
3 8 20 19
3 9 10 21
3 9 21 20
3 11 12 23
3 11 23 22
3 12 13 24
3 12 24 23
3 13 14 25
3 13 25 24
3 14 15 26
3 14 26 25
3 15 16 27
3 15 27 26
3 16 17 28
3 16 28 27
3 17 18 29
3 17 29 28
3 18 19 30
3 18 30 29
3 19 20 31
3 19 31 30
3 20 21 32
3 20 32 31
3 22 23 34
3 22 34 33
3 23 24 35
3 23 35 34
3 24 25 36
3 24 36 35
3 25 26 37
3 25 37 36
3 26 27 38
3 26 38 37
3 27 28 39
3 27 39 38
3 28 29 40
3 28 40 39
3 29 30 41
3 29 41 40
3 30 31 42
3 30 42 41
3 31 32 43
3 31 43 42
3 33 34 45
3 33 45 44
3 34 35 46
3 34 46 45
3 35 36 47
3 35 47 46
3 36 37 48
3 36 48 47
3 37 38 49
3 37 49 48
3 38 39 50
3 38 50 49
3 39 40 51
3 39 51 50
3 40 41 52
3 40 52 51
3 41 42 53
3 41 53 52
3 42 43 54
3 42 54 53
3 44 45 56
3 44 56 55
3 45 46 57
3 45 57 56
3 46 47 58
3 46 58 57
3 47 48 59
3 47 59 58
3 48 49 60
3 48 60 59
3 49 50 61
3 49 61 60
3 50 51 62
3 50 62 61
3 51 52 63
3 51 63 62
3 52 53 64
3 52 64 63
3 53 54 65
3 53 65 64
3 55 56 67
3 55 67 66
3 56 57 68
3 56 68 67
3 57 58 69
3 57 69 68
3 58 59 70
3 58 70 69
3 59 60 71
3 59 71 70
3 60 61 72
3 60 72 71
3 61 62 73
3 61 73 72
3 62 63 74
3 62 74 73
3 63 64 75
3 63 75 74
3 64 65 76
3 64 76 75
3 66 67 78
3 66 78 77
3 67 68 79
3 67 79 78
3 68 69 80
3 68 80 79
3 69 70 81
3 69 81 80
3 70 71 82
3 70 82 81
3 71 72 83
3 71 83 82
3 72 73 84
3 72 84 83
3 73 74 85
3 73 85 84
3 74 75 86
3 74 86 85
3 75 76 87
3 75 87 86
3 77 78 89
3 77 89 88
3 78 79 90
3 78 90 89
3 79 80 91
3 79 91 90
3 80 81 92
3 80 92 91
3 81 82 93
3 81 93 92
3 82 83 94
3 82 94 93
3 83 84 95
3 83 95 94
3 84 85 96
3 84 96 95
3 85 86 97
3 85 97 96
3 86 87 98
3 86 98 97
3 88 89 100
3 88 100 99
3 89 90 101
3 89 101 100
3 90 91 102
3 90 102 101
3 91 92 103
3 91 103 102
3 92 93 104
3 92 104 103
3 93 94 105
3 93 105 104
3 94 95 106
3 94 106 105
3 95 96 107
3 95 107 106
3 96 97 108
3 96 108 107
3 97 98 109
3 97 109 108
3 99 100 111
3 99 111 110
3 100 101 112
3 100 112 111
3 101 102 113
3 101 113 112
3 102 103 114
3 102 114 113
3 103 104 115
3 103 115 114
3 104 105 116
3 104 116 115
3 105 106 117
3 105 117 116
3 106 107 118
3 106 118 117
3 107 108 119
3 107 119 118
3 108 109 120
3 108 120 119
3 110 111 122
3 110 122 121
3 111 112 123
3 111 123 122
3 112 113 124
3 112 124 123
3 113 114 125
3 113 125 124
3 114 115 126
3 114 126 125
3 115 116 127
3 115 127 126
3 116 117 128
3 116 128 127
3 117 118 129
3 117 129 128
3 118 119 130
3 118 130 129
3 119 120 131
3 119 131 130
3 121 122 133
3 121 133 132
3 122 123 134
3 122 134 133
3 123 124 135
3 123 135 134
3 124 125 136
3 124 136 135
3 125 126 137
3 125 137 136
3 126 127 138
3 126 138 137
3 127 128 139
3 127 139 138
3 128 129 140
3 128 140 139
3 129 130 141
3 129 141 140
3 130 131 142
3 130 142 141
3 132 133 144
3 132 144 143
3 133 134 145
3 133 145 144
3 134 135 146
3 134 146 145
3 135 136 147
3 135 147 146
3 136 137 148
3 136 148 147
3 137 138 149
3 137 149 148
3 138 139 150
3 138 150 149
3 139 140 151
3 139 151 150
3 140 141 152
3 140 152 151
3 141 142 153
3 141 153 152
3 143 144 155
3 143 155 154
3 144 145 156
3 144 156 155
3 145 146 157
3 145 157 156
3 146 147 158
3 146 158 157
3 147 148 159
3 147 159 158
3 148 149 160
3 148 160 159
3 149 150 161
3 149 161 160
3 150 151 162
3 150 162 161
3 151 152 163
3 151 163 162
3 152 153 164
3 152 164 163
3 154 155 166
3 154 166 165
3 155 156 167
3 155 167 166
3 156 157 168
3 156 168 167
3 157 158 169
3 157 169 168
3 158 159 170
3 158 170 169
3 159 160 171
3 159 171 170
3 160 161 172
3 160 172 171
3 161 162 173
3 161 173 172
3 162 163 174
3 162 174 173
3 163 164 175
3 163 175 174
3 165 166 177
3 165 177 176
3 166 167 178
3 166 178 177
3 167 168 179
3 167 179 178
3 168 169 180
3 168 180 179
3 169 170 181
3 169 181 180
3 170 171 182
3 170 182 181
3 171 172 183
3 171 183 182
3 172 173 184
3 172 184 183
3 173 174 185
3 173 185 184
3 174 175 186
3 174 186 185
3 176 177 188
3 176 188 187
3 177 178 189
3 177 189 188
3 178 179 190
3 178 190 189
3 179 180 191
3 179 191 190
3 180 181 192
3 180 192 191
3 181 182 193
3 181 193 192
3 182 183 194
3 182 194 193
3 183 184 195
3 183 195 194
3 184 185 196
3 184 196 195
3 185 186 197
3 185 197 196
3 187 188 199
3 187 199 198
3 188 189 200
3 188 200 199
3 189 190 201
3 189 201 200
3 190 191 202
3 190 202 201
3 191 192 203
3 191 203 202
3 192 193 204
3 192 204 203
3 193 194 205
3 193 205 204
3 194 195 206
3 194 206 205
3 195 196 207
3 195 207 206
3 196 197 208
3 196 208 207
3 198 199 210
3 198 210 209
3 199 200 211
3 199 211 210
3 200 201 212
3 200 212 211
3 201 202 213
3 201 213 212
3 202 203 214
3 202 214 213
3 203 204 215
3 203 215 214
3 204 205 216
3 204 216 215
3 205 206 217
3 205 217 216
3 206 207 218
3 206 218 217
3 207 208 219
3 207 219 218
3 209 210 221
3 209 221 220
3 210 211 222
3 210 222 221
3 211 212 223
3 211 223 222
3 212 213 224
3 212 224 223
3 213 214 225
3 213 225 224
3 214 215 226
3 214 226 225
3 215 216 227
3 215 227 226
3 216 217 228
3 216 228 227
3 217 218 229
3 217 229 228
3 218 219 230
3 218 230 229
CELL_TYPES 400
5
5
5
5
5
5
5
5
5
5
5
5
5
5
5
5
5
5
5
5
5
5
5
5
5
5
5
5
5
5
5
5
5
5
5
5
5
5
5
5
5
5
5
5
5
5
5
5
5
5
5
5
5
5
5
5
5
5
5
5
5
5
5
5
5
5
5
5
5
5
5
5
5
5
5
5
5
5
5
5
5
5
5
5
5
5
5
5
5
5
5
5
5
5
5
5
5
5
5
5
5
5
5
5
5
5
5
5
5
5
5
5
5
5
5
5
5
5
5
5
5
5
5
5
5
5
5
5
5
5
5
5
5
5
5
5
5
5
5
5
5
5
5
5
5
5
5
5
5
5
5
5
5
5
5
5
5
5
5
5
5
5
5
5
5
5
5
5
5
5
5
5
5
5
5
5
5
5
5
5
5
5
5
5
5
5
5
5
5
5
5
5
5
5
5
5
5
5
5
5
5
5
5
5
5
5
5
5
5
5
5
5
5
5
5
5
5
5
5
5
5
5
5
5
5
5
5
5
5
5
5
5
5
5
5
5
5
5
5
5
5
5
5
5
5
5
5
5
5
5
5
5
5
5
5
5
5
5
5
5
5
5
5
5
5
5
5
5
5
5
5
5
5
5
5
5
5
5
5
5
5
5
5
5
5
5
5
5
5
5
5
5
5
5
5
5
5
5
5
5
5
5
5
5
5
5
5
5
5
5
5
5
5
5
5
5
5
5
5
5
5
5
5
5
5
5
5
5
5
5
5
5
5
5
5
5
5
5
5
5
5
5
5
5
5
5
5
5
5
5
5
5
5
5
5
5
5
5
5
5
5
5
5
5
5
5
5
5
5
5
5
5
5
5
5
5
5
5
5
5
5
5
5
5
5
5
5
5
5
5
5
5
5
5
5
5
5
5
5
5
CELL_DATA 400
VECTORS Et double
-0.0241939 0.511516 0
0.0276913 0.1036 0
-0.0131389 0.929825 0
0.0189102 0.678682 0
0.00301419 0.991818 0
0.00341709 0.992322 0
0.0180714 0.673752 0
-0.0130804 0.925203 0
0.0262576 0.0970145 0
-0.0244092 0.503089 0
0.0244222 -0.518202 0
-0.0263606 -0.112699 0
0.0132422 -0.937 0
-0.0183067 -0.686863 0
-0.00303574 -0.999502 0
-0.00344201 -0.999994 0
-0.018218 -0.681958 0
0.0124282 -0.932387 0
-0.0265307 -0.106123 0
0.0230345 -0.509796 0
-0.022413 0.51124 0
0.0293685 0.103649 0
-0.0118405 0.92973 0
0.0201989 0.678509 0
0.00393177 0.991991 0
0.00434137 0.992347 0
0.0186206 0.67416 0
-0.012522 0.925483 0
0.0264401 0.0975346 0
-0.0242224 0.503559 0
0.0242379 -0.517732 0
-0.0265483 -0.112181 0
0.0126906 -0.936722 0
-0.0188667 -0.686459 0
-0.00395657 -0.999479 0
-0.00436866 -0.999826 0
-0.0195195 -0.682133 0
0.0111372 -0.932486 0
-0.0283089 -0.106083 0
0.0213588 -0.510076 0
-0.0207654 0.511038 0
0.0309099 0.103725 0
-0.010586 0.929708 0
0.0214206 0.678459 0
0.00482234 0.992241 0
0.00522322 0.992482 0
0.0191543 0.674652 0
-0.011988 0.925865 0
0.026618 0.098146 0
-0.0240432 0.504126 0
0.02406 -0.517165 0
-0.0267267 -0.111571 0
0.0121562 -0.936341 0
-0.0194006 -0.685971 0
-0.00484878 -0.999346 0
-0.00525132 -0.99958 0
-0.0207755 -0.682186 0
0.00991455 -0.932514 0
-0.0299548 -0.106016 0
0.019818 -0.510283 0
-0.0192666 0.510893 0
0.0322981 0.103827 0
-0.00940901 0.929753 0
0.0225458 0.678512 0
0.00566304 0.992566 0
0.00604098 0.992718 0
0.019659 0.675224 0
-0.0114916 0.926345 0
0.0267869 0.0988441 0
-0.023876 0.504786 0
0.0238927 -0.516506 0
-0.0268916 -0.110875 0
0.0116523 -0.935863 0
-0.0198953 -0.685401 0
-0.00568958 -0.999112 0
-0.00606843 -0.99926 0
-0.0219529 -0.682137 0
0.0087894 -0.932473 0
-0.0314527 -0.105922 0
0.01843 -0.510433 0
-0.0179331 0.510794 0
0.0335154 0.103951 0
-0.00833821 0.929858 0
0.0235489 0.678651 0
0.00643268 0.992958 0
0.00677496 0.993046 0
0.020122 0.675871 0
-0.0110447 0.926913 0
0.0269425 0.099622 0
-0.0237246 0.50553 0
0.0237405 -0.515762 0
-0.0270389 -0.110098 0
0.0111918 -0.935295 0
-0.020339 -0.684757 0
-0.00645789 -0.998786 0
-0.00680043 -0.998872 0
-0.0230232 -0.682001 0
0.00778702 -0.932373 0
-0.0327859 -0.105805 0
0.0172124 -0.510538 0
-0.0167809 0.510729 0
0.0345455 0.104094 0
-0.00739807 0.930015 0
0.0244085 0.678862 0
0.00711221 0.99341 0
0.00740783 0.993455 0
0.0205317 0.676584 0
-0.0106579 0.927561 0
0.0270807 0.100471 0
-0.0235928 0.50635 0
0.0236069 -0.514942 0
-0.0271652 -0.109251 0
0.0107861 -0.934649 0
-0.0207211 -0.684047 0
-0.00713483 -0.998379 0
-0.00743015 -0.998423 0
-0.0239621 -0.681794 0
0.00692892 -0.932219 0
-0.0339383 -0.105668 0
0.0161817 -0.510608 0
-0.015825 0.510691 0
0.0353738 0.104254 0
-0.00660909 0.930216 0
0.0251065 0.67913 0
0.0076851 0.993913 0
0.0079249 0.993931 0
0.0208778 0.677353 0
-0.0103407 0.928276 0
0.0271983 0.101381 0
-0.0234838 0.507234 0
0.0234955 -0.514057 0
-0.0272675 -0.108342 0
0.0104452 -0.933934 0
-0.0210327 -0.68328 0
-0.00770406 -0.997905 0
-0.0079431 -0.997923 0
-0.0247492 -0.681529 0
0.00623294 -0.932022 0
-0.0348947 -0.105514 0
0.0153526 -0.51065 0
-0.0150783 0.510673 0
0.0359881 0.104426 0
-0.00598792 0.93045 0
0.0256287 0.679442 0
0.0081376 0.994457 0
0.00831435 0.994461 0
0.0211517 0.678167 0
-0.0101003 0.929045 0
0.0272921 0.10234 0
-0.0234002 0.508171 0
0.0234089 -0.513121 0
-0.0273434 -0.107384 0
0.0101776 -0.933166 0
-0.0212664 -0.682468 0
-0.00815203 -0.997377 0
-0.00832767 -0.997381 0
-0.0253681 -0.681219 0
0.00571323 -0.93179 0
-0.0356421 -0.105345 0
0.0147373 -0.510671 0
-0.0145512 0.510668 0
0.0363792 0.104608 0
-0.00554739 0.930709 0
0.0259645 0.679786 0
0.00845892 0.995031 0
0.00856738 0.995029 0
0.0213464 0.679014 0
-0.00994241 0.929854 0
0.0273597 0.103334 0
-0.023344 0.509145 0
0.0233494 -0.512146 0
-0.0273913 -0.10639 0
0.00998984 -0.932358 0
-0.0214169 -0.681622 0
-0.00846815 -0.99681 0
-0.00857528 -0.996809 0
-0.0258059 -0.680877 0
0.00538018 -0.931533 0
-0.0361701 -0.105167 0
0.0143452 -0.510678 0
-0.0142511 0.510671 0
0.0365412 0.104794 0
-0.00529651 0.930983 0
0.0261072 0.680148 0
0.00864139 0.995622 0
0.00867839 0.99562 0
0.0214571 0.679881 0
-0.00987069 0.930686 0
0.0273994 0.104351 0
-0.0233165 0.510143 0
0.0233183 -0.511148 0
-0.0274101 -0.105374 0
0.00988668 -0.931526 0
-0.0214809 -0.680755 0
-0.00864501 -0.996219 0
-0.00868056 -0.996219 0
-0.026054 -0.680516 0
0.00524037 -0.931261 0
-0.0364712 -0.104982 0
0.0141822 -0.510676 0
-0.0141822 0.510676 0
0.0364712 0.104982 0
-0.00524037 0.931261 0
0.026054 0.680516 0
0.00868056 0.996219 0
0.00864501 0.996219 0
0.0214809 0.680755 0
-0.00988668 0.931526 0
0.0274101 0.105374 0
-0.0233183 0.511148 0
0.0233165 -0.510143 0
-0.0273994 -0.104351 0
0.00987069 -0.930686 0
-0.0214571 -0.679881 0
-0.00867839 -0.99562 0
-0.00864139 -0.995622 0
-0.0261072 -0.680148 0
0.00529651 -0.930983 0
-0.0365412 -0.104794 0
0.0142511 -0.510671 0
-0.0143452 0.510678 0
0.0361701 0.105167 0
-0.00538018 0.931533 0
0.0258059 0.680877 0
0.00857528 0.996809 0
0.00846815 0.99681 0
0.0214169 0.681622 0
-0.00998984 0.932358 0
0.0273913 0.10639 0
-0.0233494 0.512146 0
0.023344 -0.509145 0
-0.0273597 -0.103334 0
0.00994241 -0.929854 0
-0.0213464 -0.679014 0
-0.00856738 -0.995029 0
-0.00845892 -0.995031 0
-0.0259645 -0.679786 0
0.00554739 -0.930709 0
-0.0363792 -0.104608 0
0.0145512 -0.510668 0
-0.0147373 0.510671 0
0.0356421 0.105345 0
-0.00571323 0.93179 0
0.0253681 0.681219 0
0.00832767 0.997381 0
0.00815203 0.997377 0
0.0212664 0.682468 0
-0.0101776 0.933166 0
0.0273434 0.107384 0
-0.0234089 0.513121 0
0.0234002 -0.508171 0
-0.0272921 -0.10234 0
0.0101003 -0.929045 0
-0.0211517 -0.678167 0
-0.00831435 -0.994461 0
-0.0081376 -0.994457 0
-0.0256287 -0.679442 0
0.00598792 -0.93045 0
-0.0359881 -0.104426 0
0.0150783 -0.510673 0
-0.0153526 0.51065 0
0.0348947 0.105514 0
-0.00623294 0.932022 0
0.0247492 0.681529 0
0.0079431 0.997923 0
0.00770406 0.997905 0
0.0210327 0.68328 0
-0.0104452 0.933934 0
0.0272675 0.108342 0
-0.0234955 0.514057 0
0.0234838 -0.507234 0
-0.0271983 -0.101381 0
0.0103407 -0.928276 0
-0.0208778 -0.677353 0
-0.0079249 -0.993931 0
-0.0076851 -0.993913 0
-0.0251065 -0.67913 0
0.00660909 -0.930216 0
-0.0353738 -0.104254 0
0.015825 -0.510691 0
-0.0161817 0.510608 0
0.0339383 0.105668 0
-0.00692892 0.932219 0
0.0239621 0.681794 0
0.00743015 0.998423 0
0.00713483 0.998379 0
0.0207211 0.684047 0
-0.0107861 0.934649 0
0.0271652 0.109251 0
-0.0236069 0.514942 0
0.0235928 -0.50635 0
-0.0270807 -0.100471 0
0.0106579 -0.927561 0
-0.0205317 -0.676584 0
-0.00740783 -0.993455 0
-0.00711221 -0.99341 0
-0.0244085 -0.678862 0
0.00739807 -0.930015 0
-0.0345455 -0.104094 0
0.0167809 -0.510729 0
-0.0172124 0.510538 0
0.0327859 0.105805 0
-0.00778702 0.932373 0
0.0230232 0.682001 0
0.00680043 0.998872 0
0.00645789 0.998786 0
0.020339 0.684757 0
-0.0111918 0.935295 0
0.0270389 0.110098 0
-0.0237405 0.515762 0
0.0237246 -0.50553 0
-0.0269425 -0.099622 0
0.0110447 -0.926913 0
-0.020122 -0.675871 0
-0.00677496 -0.993046 0
-0.00643268 -0.992958 0
-0.0235489 -0.678651 0
0.00833821 -0.929858 0
-0.0335154 -0.103951 0
0.0179331 -0.510794 0
-0.01843 0.510433 0
0.0314527 0.105922 0
-0.0087894 0.932473 0
0.0219529 0.682137 0
0.00606843 0.99926 0
0.00568958 0.999112 0
0.0198953 0.685401 0
-0.0116523 0.935863 0
0.0268916 0.110875 0
-0.0238927 0.516506 0
0.023876 -0.504786 0
-0.0267869 -0.0988441 0
0.0114916 -0.926345 0
-0.019659 -0.675224 0
-0.00604098 -0.992718 0
-0.00566304 -0.992566 0
-0.0225458 -0.678512 0
0.00940901 -0.929753 0
-0.0322981 -0.103827 0
0.0192666 -0.510893 0
-0.019818 0.510283 0
0.0299548 0.106016 0
-0.00991455 0.932514 0
0.0207755 0.682186 0
0.00525132 0.99958 0
0.00484878 0.999346 0
0.0194006 0.685971 0
-0.0121562 0.936341 0
0.0267267 0.111571 0
-0.02406 0.517165 0
0.0240432 -0.504126 0
-0.026618 -0.098146 0
0.011988 -0.925865 0
-0.0191543 -0.674652 0
-0.00522322 -0.992482 0
-0.00482234 -0.992241 0
-0.0214206 -0.678459 0
0.010586 -0.929708 0
-0.0309099 -0.103725 0
0.0207654 -0.511038 0
-0.0213588 0.510076 0
0.0283089 0.106083 0
-0.0111372 0.932486 0
0.0195195 0.682133 0
0.00436866 0.999826 0
0.00395657 0.999479 0
0.0188667 0.686459 0
-0.0126906 0.936722 0
0.0265483 0.112181 0
-0.0242379 0.517732 0
0.0242224 -0.503559 0
-0.0264401 -0.0975346 0
0.012522 -0.925483 0
-0.0186206 -0.67416 0
-0.00434137 -0.992347 0
-0.00393177 -0.991991 0
-0.0201989 -0.678509 0
0.0118405 -0.92973 0
-0.0293685 -0.103649 0
0.022413 -0.51124 0
-0.0230345 0.509796 0
0.0265307 0.106123 0
-0.0124282 0.932387 0
0.018218 0.681958 0
0.00344201 0.999994 0
0.00303574 0.999502 0
0.0183067 0.686863 0
-0.0132422 0.937 0
0.0263606 0.112699 0
-0.0244222 0.518202 0
0.0244092 -0.503089 0
-0.0262576 -0.0970145 0
0.0130804 -0.925203 0
-0.0180714 -0.673752 0
-0.00341709 -0.992322 0
-0.00301419 -0.991818 0
-0.0189102 -0.678682 0
0.0131389 -0.929825 0
-0.0276913 -0.1036 0
0.0241939 -0.511516 0
