# vtk DataFile Version 3.0
tp3485 cell-vector
ASCII
DATASET UNSTRUCTURED_GRID
POINTS 231 double
0 0 0
0.1 0 0
0.2 0 0
0.3 0 0
0.4 0 0
0.5 0 0
0.6 0 0
0.7 0 0
0.8 0 0
0.9 0 0
1 0 0
0 0.025 0
0.1 0.025 0
0.2 0.025 0
0.3 0.025 0
0.4 0.025 0
0.5 0.025 0
0.6 0.025 0
0.7 0.025 0
0.8 0.025 0
0.9 0.025 0
1 0.025 0
0 0.05 0
0.1 0.05 0
0.2 0.05 0
0.3 0.05 0
0.4 0.05 0
0.5 0.05 0
0.6 0.05 0
0.7 0.05 0
0.8 0.05 0
0.9 0.05 0
1 0.05 0
0 0.075 0
0.1 0.075 0
0.2 0.075 0
0.3 0.075 0
0.4 0.075 0
0.5 0.075 0
0.6 0.075 0
0.7 0.075 0
0.8 0.075 0
0.9 0.075 0
1 0.075 0
0 0.1 0
0.1 0.1 0
0.2 0.1 0
0.3 0.1 0
0.4 0.1 0
0.5 0.1 0
0.6 0.1 0
0.7 0.1 0
0.8 0.1 0
0.9 0.1 0
1 0.1 0
0 0.125 0
0.1 0.125 0
0.2 0.125 0
0.3 0.125 0
0.4 0.125 0
0.5 0.125 0
0.6 0.125 0
0.7 0.125 0
0.8 0.125 0
0.9 0.125 0
1 0.125 0
0 0.15 0
0.1 0.15 0
0.2 0.15 0
0.3 0.15 0
0.4 0.15 0
0.5 0.15 0
0.6 0.15 0
0.7 0.15 0
0.8 0.15 0
0.9 0.15 0
1 0.15 0
0 0.175 0
0.1 0.175 0
0.2 0.175 0
0.3 0.175 0
0.4 0.175 0
0.5 0.175 0
0.6 0.175 0
0.7 0.175 0
0.8 0.175 0
0.9 0.175 0
1 0.175 0
0 0.2 0
0.1 0.2 0
0.2 0.2 0
0.3 0.2 0
0.4 0.2 0
0.5 0.2 0
0.6 0.2 0
0.7 0.2 0
0.8 0.2 0
0.9 0.2 0
1 0.2 0
0 0.225 0
0.1 0.225 0
0.2 0.225 0
0.3 0.225 0
0.4 0.225 0
0.5 0.225 0
0.6 0.225 0
0.7 0.225 0
0.8 0.225 0
0.9 0.225 0
1 0.225 0
0 0.25 0
0.1 0.25 0
0.2 0.25 0
0.3 0.25 0
0.4 0.25 0
0.5 0.25 0
0.6 0.25 0
0.7 0.25 0
0.8 0.25 0
0.9 0.25 0
1 0.25 0
0 0.275 0
0.1 0.275 0
0.2 0.275 0
0.3 0.275 0
0.4 0.275 0
0.5 0.275 0
0.6 0.275 0
0.7 0.275 0
0.8 0.275 0
0.9 0.275 0
1 0.275 0
0 0.3 0
0.1 0.3 0
0.2 0.3 0
0.3 0.3 0
0.4 0.3 0
0.5 0.3 0
0.6 0.3 0
0.7 0.3 0
0.8 0.3 0
0.9 0.3 0
1 0.3 0
0 0.325 0
0.1 0.325 0
0.2 0.325 0
0.3 0.325 0
0.4 0.325 0
0.5 0.325 0
0.6 0.325 0
0.7 0.325 0
0.8 0.325 0
0.9 0.325 0
1 0.325 0
0 0.35 0
0.1 0.35 0
0.2 0.35 0
0.3 0.35 0
0.4 0.35 0
0.5 0.35 0
0.6 0.35 0
0.7 0.35 0
0.8 0.35 0
0.9 0.35 0
1 0.35 0
0 0.375 0
0.1 0.375 0
0.2 0.375 0
0.3 0.375 0
0.4 0.375 0
0.5 0.375 0
0.6 0.375 0
0.7 0.375 0
0.8 0.375 0
0.9 0.375 0
1 0.375 0
0 0.4 0
0.1 0.4 0
0.2 0.4 0
0.3 0.4 0
0.4 0.4 0
0.5 0.4 0
0.6 0.4 0
0.7 0.4 0
0.8 0.4 0
0.9 0.4 0
1 0.4 0
0 0.425 0
0.1 0.425 0
0.2 0.425 0
0.3 0.425 0
0.4 0.425 0
0.5 0.425 0
0.6 0.425 0
0.7 0.425 0
0.8 0.425 0
0.9 0.425 0
1 0.425 0
0 0.45 0
0.1 0.45 0
0.2 0.45 0
0.3 0.45 0
0.4 0.45 0
0.5 0.45 0
0.6 0.45 0
0.7 0.45 0
0.8 0.45 0
0.9 0.45 0
1 0.45 0
0 0.475 0
0.1 0.475 0
0.2 0.475 0
0.3 0.475 0
0.4 0.475 0
0.5 0.475 0
0.6 0.475 0
0.7 0.475 0
0.8 0.475 0
0.9 0.475 0
1 0.475 0
0 0.5 0
0.1 0.5 0
0.2 0.5 0
0.3 0.5 0
0.4 0.5 0
0.5 0.5 0
0.6 0.5 0
0.7 0.5 0
0.8 0.5 0
0.9 0.5 0
1 0.5 0
CELLS 400 1600
3 0 1 12
3 0 12 11
3 1 2 13
3 1 13 12
3 2 3 14
3 2 14 13
3 3 4 15
3 3 15 14
3 4 5 16
3 4 16 15
3 5 6 17
3 5 17 16
3 6 7 18
3 6 18 17
3 7 8 19
3 7 19 18
3 8 9 20
3 8 20 19
3 9 10 21
3 9 21 20
3 11 12 23
3 11 23 22
3 12 13 24
3 12 24 23
3 13 14 25
3 13 25 24
3 14 15 26
3 14 26 25
3 15 16 27
3 15 27 26
3 16 17 28
3 16 28 27
3 17 18 29
3 17 29 28
3 18 19 30
3 18 30 29
3 19 20 31
3 19 31 30
3 20 21 32
3 20 32 31
3 22 23 34
3 22 34 33
3 23 24 35
3 23 35 34
3 24 25 36
3 24 36 35
3 25 26 37
3 25 37 36
3 26 27 38
3 26 38 37
3 27 28 39
3 27 39 38
3 28 29 40
3 28 40 39
3 29 30 41
3 29 41 40
3 30 31 42
3 30 42 41
3 31 32 43
3 31 43 42
3 33 34 45
3 33 45 44
3 34 35 46
3 34 46 45
3 35 36 47
3 35 47 46
3 36 37 48
3 36 48 47
3 37 38 49
3 37 49 48
3 38 39 50
3 38 50 49
3 39 40 51
3 39 51 50
3 40 41 52
3 40 52 51
3 41 42 53
3 41 53 52
3 42 43 54
3 42 54 53
3 44 45 56
3 44 56 55
3 45 46 57
3 45 57 56
3 46 47 58
3 46 58 57
3 47 48 59
3 47 59 58
3 48 49 60
3 48 60 59
3 49 50 61
3 49 61 60
3 50 51 62
3 50 62 61
3 51 52 63
3 51 63 62
3 52 53 64
3 52 64 63
3 53 54 65
3 53 65 64
3 55 56 67
3 55 67 66
3 56 57 68
3 56 68 67
3 57 58 69
3 57 69 68
3 58 59 70
3 58 70 69
3 59 60 71
3 59 71 70
3 60 61 72
3 60 72 71
3 61 62 73
3 61 73 72
3 62 63 74
3 62 74 73
3 63 64 75
3 63 75 74
3 64 65 76
3 64 76 75
3 66 67 78
3 66 78 77
3 67 68 79
3 67 79 78
3 68 69 80
3 68 80 79
3 69 70 81
3 69 81 80
3 70 71 82
3 70 82 81
3 71 72 83
3 71 83 82
3 72 73 84
3 72 84 83
3 73 74 85
3 73 85 84
3 74 75 86
3 74 86 85
3 75 76 87
3 75 87 86
3 77 78 89
3 77 89 88
3 78 79 90
3 78 90 89
3 79 80 91
3 79 91 90
3 80 81 92
3 80 92 91
3 81 82 93
3 81 93 92
3 82 83 94
3 82 94 93
3 83 84 95
3 83 95 94
3 84 85 96
3 84 96 95
3 85 86 97
3 85 97 96
3 86 87 98
3 86 98 97
3 88 89 100
3 88 100 99
3 89 90 101
3 89 101 100
3 90 91 102
3 90 102 101
3 91 92 103
3 91 103 102
3 92 93 104
3 92 104 103
3 93 94 105
3 93 105 104
3 94 95 106
3 94 106 105
3 95 96 107
3 95 107 106
3 96 97 108
3 96 108 107
3 97 98 109
3 97 109 108
3 99 100 111
3 99 111 110
3 100 101 112
3 100 112 111
3 101 102 113
3 101 113 112
3 102 103 114
3 102 114 113
3 103 104 115
3 103 115 114
3 104 105 116
3 104 116 115
3 105 106 117
3 105 117 116
3 106 107 118
3 106 118 117
3 107 108 119
3 107 119 118
3 108 109 120
3 108 120 119
3 110 111 122
3 110 122 121
3 111 112 123
3 111 123 122
3 112 113 124
3 112 124 123
3 113 114 125
3 113 125 124
3 114 115 126
3 114 126 125
3 115 116 127
3 115 127 126
3 116 117 128
3 116 128 127
3 117 118 129
3 117 129 128
3 118 119 130
3 118 130 129
3 119 120 131
3 119 131 130
3 121 122 133
3 121 133 132
3 122 123 134
3 122 134 133
3 123 124 135
3 123 135 134
3 124 125 136
3 124 136 135
3 125 126 137
3 125 137 136
3 126 127 138
3 126 138 137
3 127 128 139
3 127 139 138
3 128 129 140
3 128 140 139
3 129 130 141
3 129 141 140
3 130 131 142
3 130 142 141
3 132 133 144
3 132 144 143
3 133 134 145
3 133 145 144
3 134 135 146
3 134 146 145
3 135 136 147
3 135 147 146
3 136 137 148
3 136 148 147
3 137 138 149
3 137 149 148
3 138 139 150
3 138 150 149
3 139 140 151
3 139 151 150
3 140 141 152
3 140 152 151
3 141 142 153
3 141 153 152
3 143 144 155
3 143 155 154
3 144 145 156
3 144 156 155
3 145 146 157
3 145 157 156
3 146 147 158
3 146 158 157
3 147 148 159
3 147 159 158
3 148 149 160
3 148 160 159
3 149 150 161
3 149 161 160
3 150 151 162
3 150 162 161
3 151 152 163
3 151 163 162
3 152 153 164
3 152 164 163
3 154 155 166
3 154 166 165
3 155 156 167
3 155 167 166
3 156 157 168
3 156 168 167
3 157 158 169
3 157 169 168
3 158 159 170
3 158 170 169
3 159 160 171
3 159 171 170
3 160 161 172
3 160 172 171
3 161 162 173
3 161 173 172
3 162 163 174
3 162 174 173
3 163 164 175
3 163 175 174
3 165 166 177
3 165 177 176
3 166 167 178
3 166 178 177
3 167 168 179
3 167 179 178
3 168 169 180
3 168 180 179
3 169 170 181
3 169 181 180
3 170 171 182
3 170 182 181
3 171 172 183
3 171 183 182
3 172 173 184
3 172 184 183
3 173 174 185
3 173 185 184
3 174 175 186
3 174 186 185
3 176 177 188
3 176 188 187
3 177 178 189
3 177 189 188
3 178 179 190
3 178 190 189
3 179 180 191
3 179 191 190
3 180 181 192
3 180 192 191
3 181 182 193
3 181 193 192
3 182 183 194
3 182 194 193
3 183 184 195
3 183 195 194
3 184 185 196
3 184 196 195
3 185 186 197
3 185 197 196
3 187 188 199
3 187 199 198
3 188 189 200
3 188 200 199
3 189 190 201
3 189 201 200
3 190 191 202
3 190 202 201
3 191 192 203
3 191 203 202
3 192 193 204
3 192 204 203
3 193 194 205
3 193 205 204
3 194 195 206
3 194 206 205
3 195 196 207
3 195 207 206
3 196 197 208
3 196 208 207
3 198 199 210
3 198 210 209
3 199 200 211
3 199 211 210
3 200 201 212
3 200 212 211
3 201 202 213
3 201 213 212
3 202 203 214
3 202 214 213
3 203 204 215
3 203 215 214
3 204 205 216
3 204 216 215
3 205 206 217
3 205 217 216
3 206 207 218
3 206 218 217
3 207 208 219
3 207 219 218
3 209 210 221
3 209 221 220
3 210 211 222
3 210 222 221
3 211 212 223
3 211 223 222
3 212 213 224
3 212 224 223
3 213 214 225
3 213 225 224
3 214 215 226
3 214 226 225
3 215 216 227
3 215 227 226
3 216 217 228
3 216 228 227
3 217 218 229
3 217 229 228
3 218 219 230
3 218 230 229
CELL_TYPES 400
5
5
5
5
5
5
5
5
5
5
5
5
5
5
5
5
5
5
5
5
5
5
5
5
5
5
5
5
5
5
5
5
5
5
5
5
5
5
5
5
5
5
5
5
5
5
5
5
5
5
5
5
5
5
5
5
5
5
5
5
5
5
5
5
5
5
5
5
5
5
5
5
5
5
5
5
5
5
5
5
5
5
5
5
5
5
5
5
5
5
5
5
5
5
5
5
5
5
5
5
5
5
5
5
5
5
5
5
5
5
5
5
5
5
5
5
5
5
5
5
5
5
5
5
5
5
5
5
5
5
5
5
5
5
5
5
5
5
5
5
5
5
5
5
5
5
5
5
5
5
5
5
5
5
5
5
5
5
5
5
5
5
5
5
5
5
5
5
5
5
5
5
5
5
5
5
5
5
5
5
5
5
5
5
5
5
5
5
5
5
5
5
5
5
5
5
5
5
5
5
5
5
5
5
5
5
5
5
5
5
5
5
5
5
5
5
5
5
5
5
5
5
5
5
5
5
5
5
5
5
5
5
5
5
5
5
5
5
5
5
5
5
5
5
5
5
5
5
5
5
5
5
5
5
5
5
5
5
5
5
5
5
5
5
5
5
5
5
5
5
5
5
5
5
5
5
5
5
5
5
5
5
5
5
5
5
5
5
5
5
5
5
5
5
5
5
5
5
5
5
5
5
5
5
5
5
5
5
5
5
5
5
5
5
5
5
5
5
5
5
5
5
5
5
5
5
5
5
5
5
5
5
5
5
5
5
5
5
5
5
5
5
5
5
5
5
5
5
5
5
5
5
5
5
5
5
5
5
5
5
5
5
5
5
5
5
5
5
5
5
5
5
5
5
5
5
5
5
5
5
5
5
5
5
5
5
5
5
5
5
5
5
5
5
5
5
5
5
5
5
CELL_DATA 400
VECTORS Et double
-0.0346313 -0.511096 0
-0.243458 0.0928428 0
-0.0771812 -0.415806 0
-0.290009 -0.122895 0
-0.0778294 0.118174 0
-0.267205 0.228638 0
-0.0200883 0.41179 0
-0.130451 0.60119 0
0.0334356 0.196801 0
0.0303972 0.41742 0
0.0343505 -0.0912361 0
0.105576 -0.0878387 0
0.00928264 -0.00845144 0
0.104871 -0.291155 0
0.0126675 0.357028 0
0.13593 -0.0654671 0
0.0546358 0.57545 0
0.247644 0.16416 0
0.0928751 0.371501 0
0.350976 0.0337517 0
-0.291762 -0.440839 0
-0.450077 0.0460264 0
-0.417981 -0.364953 0
-0.584909 -0.14996 0
-0.419125 0.108969 0
-0.571744 0.17237 0
-0.189968 0.363257 0
-0.279972 0.518917 0
0.0799774 0.159623 0
0.0790619 0.358254 0
0.17326 -0.104384 0
0.232517 -0.0927762 0
0.125797 -0.0348204 0
0.199316 -0.265966 0
0.14772 0.286172 0
0.238251 -0.0523438 0
0.327159 0.48272 0
0.475417 0.162228 0
0.510644 0.315518 0
0.717729 0.0547771 0
-0.468604 -0.313751 0
-0.540311 -0.0275012 0
-0.675197 -0.268028 0
-0.760437 -0.191692 0
-0.688247 0.0968258 0
-0.773818 0.0754158 0
-0.323295 0.275805 0
-0.37468 0.36688 0
0.122915 0.0915492 0
0.127393 0.244396 0
0.285743 -0.125386 0
0.324186 -0.103774 0
0.207413 -0.0763058 0
0.242166 -0.217081 0
0.233486 0.162918 0
0.267183 -0.0271103 0
0.523229 0.314722 0
0.593255 0.153755 0
0.831682 0.203734 0
0.946044 0.0850834 0
-0.518333 -0.1504 0
-0.486749 -0.108161 0
-0.796942 -0.139194 0
-0.782274 -0.230359 0
-0.837669 0.0818682 0
-0.839697 -0.0398906 0
-0.392923 0.160506 0
-0.395566 0.170866 0
0.163193 0.00516191 0
0.174611 0.0951471 0
0.35608 -0.143265 0
0.368909 -0.114806 0
0.232573 -0.117466 0
0.220735 -0.14782 0
0.240964 0.0121121 0
0.207009 0.00569769 0
0.597537 0.10006 0
0.573033 0.133899 0
0.994201 0.0575662 0
0.993665 0.112383 0
-0.423999 0.0230464 0
-0.295626 -0.173806 0
-0.759776 0.00283438 0
-0.648413 -0.24598 0
-0.843071 0.0637272 0
-0.76223 -0.14674 0
-0.38489 0.031385 0
-0.338995 -0.0365705 0
0.200077 -0.0839202 0
0.217599 -0.0645178 0
0.375839 -0.145493 0
0.362993 -0.118239 0
0.193265 -0.140695 0
0.137576 -0.0629049 0
0.161049 -0.136103 0
0.064519 0.0404119 0
0.531931 -0.125022 0
0.417453 0.0978871 0
0.968649 -0.0951706 0
0.855159 0.123128 0
-0.202751 0.179667 0
-0.0059386 -0.204946 0
-0.573542 0.137991 0
-0.389374 -0.221706 0
-0.707909 0.0419581 0
-0.561782 -0.21985 0
-0.301351 -0.096571 0
-0.217406 -0.22225 0
0.230497 -0.160123 0
0.250845 -0.208672 0
0.344908 -0.12158 0
0.310786 -0.106988 0
0.0968824 -0.13093 0
0.00998859 0.0315427 0
0.00723085 -0.252544 0
-0.131859 0.0713244 0
0.339634 -0.323492 0
0.159694 0.0429943 0
0.763557 -0.225917 0
0.562613 0.10619 0
0.0976089 0.296678 0
0.318815 -0.189452 0
-0.279087 0.248208 0
-0.0614675 -0.148685 0
-0.462281 0.0165386 0
-0.281513 -0.241167 0
-0.160068 -0.209397 0
-0.0565827 -0.358478 0
0.249195 -0.210883 0
0.267248 -0.315225 0
0.270958 -0.0663373 0
0.223295 -0.0766541 0
-0.0354215 -0.0799596 0
-0.133817 0.128094 0
-0.186982 -0.315027 0
-0.338007 0.0937061 0
0.0625512 -0.464398 0
-0.143665 -0.0297942 0
0.423394 -0.311119 0
0.178463 0.0561556 0
0.409 0.359392 0
0.604503 -0.125667 0
0.0606199 0.320304 0
0.265396 -0.0292323 0
-0.156352 -0.0117055 0
0.0219267 -0.204008 0
0.00942886 -0.29583 0
0.10994 -0.427911 0
0.24972 -0.228899 0
0.259667 -0.369822 0
0.167559 0.0180028 0
0.115707 -0.0271087 0
-0.173489 0.0107097 0
-0.261027 0.218294 0
-0.375374 -0.312894 0
-0.50386 0.104556 0
-0.237788 -0.528378 0
-0.424941 -0.114909 0
0.0189139 -0.336864 0
-0.217964 -0.0245721 0
0.658123 0.363481 0
0.782802 -0.0232093 0
0.374039 0.347849 0
0.522738 0.122476 0
0.150218 -0.0408822 0
0.290288 -0.114731 0
0.172196 -0.348458 0
0.248094 -0.426232 0
0.226081 -0.213232 0
0.222857 -0.368097 0
0.0513826 0.12136 0
0.00439545 0.0368882 0
-0.284961 0.129158 0
-0.341601 0.293206 0
-0.509481 -0.249082 0
-0.584802 0.102946 0
-0.493679 -0.510724 0
-0.620176 -0.202401 0
-0.367915 -0.301452 0
-0.5473 -0.125412 0
0.782912 0.315135 0
0.80663 0.098747 0
0.596367 0.331719 0
0.658116 0.282474 0
0.400592 -0.0681146 0
0.475652 0.00845542 0
0.295357 -0.364218 0
0.330576 -0.362143 0
0.17467 -0.16906 0
0.155373 -0.315856 0
-0.0608954 0.22725 0
-0.0959735 0.106224 0
-0.342611 0.254777 0
-0.355089 0.344244 0
-0.549857 -0.139293 0
-0.552182 0.0899379 0
-0.646158 -0.421456 0
-0.683279 -0.279272 0
-0.661155 -0.215374 0
-0.746749 -0.22915 0
0.746749 0.22915 0
0.661155 0.215374 0
0.683279 0.279272 0
0.646158 0.421456 0
0.552182 -0.0899379 0
0.549857 0.139293 0
0.355089 -0.344244 0
0.342611 -0.254777 0
0.0959735 -0.106224 0
0.0608954 -0.22725 0
-0.155373 0.315856 0
-0.17467 0.16906 0
-0.330576 0.362143 0
-0.295357 0.364218 0
-0.475652 -0.00845542 0
-0.400592 0.0681146 0
-0.658116 -0.282474 0
-0.596367 -0.331719 0
-0.80663 -0.098747 0
-0.782912 -0.315135 0
0.5473 0.125412 0
0.367915 0.301452 0
0.620176 0.202401 0
0.493679 0.510724 0
0.584802 -0.102946 0
0.509481 0.249082 0
0.341601 -0.293206 0
0.284961 -0.129158 0
-0.00439545 -0.0368882 0
-0.0513826 -0.12136 0
-0.222857 0.368097 0
-0.226081 0.213232 0
-0.248094 0.426232 0
-0.172196 0.348458 0
-0.290288 0.114731 0
-0.150218 0.0408822 0
-0.522738 -0.122476 0
-0.374039 -0.347849 0
-0.782802 0.0232093 0
-0.658123 -0.363481 0
0.217964 0.0245721 0
-0.0189139 0.336864 0
0.424941 0.114909 0
0.237788 0.528378 0
0.50386 -0.104556 0
0.375374 0.312894 0
0.261027 -0.218294 0
0.173489 -0.0107097 0
-0.115707 0.0271087 0
-0.167559 -0.0180028 0
-0.259667 0.369822 0
-0.24972 0.228899 0
-0.10994 0.427911 0
-0.00942886 0.29583 0
-0.0219267 0.204008 0
0.156352 0.0117055 0
-0.265396 0.0292323 0
-0.0606199 -0.320304 0
-0.604503 0.125667 0
-0.409 -0.359392 0
-0.178463 -0.0561556 0
-0.423394 0.311119 0
0.143665 0.0297942 0
-0.0625512 0.464398 0
0.338007 -0.0937061 0
0.186982 0.315027 0
0.133817 -0.128094 0
0.0354215 0.0799596 0
-0.223295 0.0766541 0
-0.270958 0.0663373 0
-0.267248 0.315225 0
-0.249195 0.210883 0
0.0565827 0.358478 0
0.160068 0.209397 0
0.281513 0.241167 0
0.462281 -0.0165386 0
0.0614675 0.148685 0
0.279087 -0.248208 0
-0.318815 0.189452 0
-0.0976089 -0.296678 0
-0.562613 -0.10619 0
-0.763557 0.225917 0
-0.159694 -0.0429943 0
-0.339634 0.323492 0
0.131859 -0.0713244 0
-0.00723085 0.252544 0
-0.00998859 -0.0315427 0
-0.0968824 0.13093 0
-0.310786 0.106988 0
-0.344908 0.12158 0
-0.250845 0.208672 0
-0.230497 0.160123 0
0.217406 0.22225 0
0.301351 0.096571 0
0.561782 0.21985 0
0.707909 -0.0419581 0
0.389374 0.221706 0
0.573542 -0.137991 0
0.0059386 0.204946 0
0.202751 -0.179667 0
-0.855159 -0.123128 0
-0.968649 0.0951706 0
-0.417453 -0.0978871 0
-0.531931 0.125022 0
-0.064519 -0.0404119 0
-0.161049 0.136103 0
-0.137576 0.0629049 0
-0.193265 0.140695 0
-0.362993 0.118239 0
-0.375839 0.145493 0
-0.217599 0.0645178 0
-0.200077 0.0839202 0
0.338995 0.0365705 0
0.38489 -0.031385 0
0.76223 0.14674 0
0.843071 -0.0637272 0
0.648413 0.24598 0
0.759776 -0.00283438 0
0.295626 0.173806 0
0.423999 -0.0230464 0
-0.993665 -0.112383 0
-0.994201 -0.0575662 0
-0.573033 -0.133899 0
-0.597537 -0.10006 0
-0.207009 -0.00569769 0
-0.240964 -0.0121121 0
-0.220735 0.14782 0
-0.232573 0.117466 0
-0.368909 0.114806 0
-0.35608 0.143265 0
-0.174611 -0.0951471 0
-0.163193 -0.00516191 0
0.395566 -0.170866 0
0.392923 -0.160506 0
0.839697 0.0398906 0
0.837669 -0.0818682 0
0.782274 0.230359 0
0.796942 0.139194 0
0.486749 0.108161 0
0.518333 0.1504 0
-0.946044 -0.0850834 0
-0.831682 -0.203734 0
-0.593255 -0.153755 0
-0.523229 -0.314722 0
-0.267183 0.0271103 0
-0.233486 -0.162918 0
-0.242166 0.217081 0
-0.207413 0.0763058 0
-0.324186 0.103774 0
-0.285743 0.125386 0
-0.127393 -0.244396 0
-0.122915 -0.0915492 0
0.37468 -0.36688 0
0.323295 -0.275805 0
0.773818 -0.0754158 0
0.688247 -0.0968258 0
0.760437 0.191692 0
0.675197 0.268028 0
0.540311 0.0275012 0
0.468604 0.313751 0
-0.717729 -0.0547771 0
-0.510644 -0.315518 0
-0.475417 -0.162228 0
-0.327159 -0.48272 0
-0.238251 0.0523438 0
-0.14772 -0.286172 0
-0.199316 0.265966 0
-0.125797 0.0348204 0
-0.232517 0.0927762 0
-0.17326 0.104384 0
-0.0790619 -0.358254 0
-0.0799774 -0.159623 0
0.279972 -0.518917 0
0.189968 -0.363257 0
0.571744 -0.17237 0
0.419125 -0.108969 0
0.584909 0.14996 0
0.417981 0.364953 0
0.450077 -0.0460264 0
0.291762 0.440839 0
-0.350976 -0.0337517 0
-0.0928751 -0.371501 0
-0.247644 -0.16416 0
-0.0546358 -0.57545 0
-0.13593 0.0654671 0
-0.0126675 -0.357028 0
-0.104871 0.291155 0
-0.00928264 0.00845144 0
-0.105576 0.0878387 0
-0.0343505 0.0912361 0
-0.0303972 -0.41742 0
-0.0334356 -0.196801 0
0.130451 -0.60119 0
0.0200883 -0.41179 0
0.267205 -0.228638 0
0.0778294 -0.118174 0
0.290009 0.122895 0
0.0771812 0.415806 0
0.243458 -0.0928428 0
0.0346313 0.511096 0
