# vtk DataFile Version 3.0
tp3485 cell-vector
ASCII
DATASET UNSTRUCTURED_GRID
POINTS 231 double
0 0 0
0.1 0 0
0.2 0 0
0.3 0 0
0.4 0 0
0.5 0 0
0.6 0 0
0.7 0 0
0.8 0 0
0.9 0 0
1 0 0
0 0.025 0
0.1 0.025 0
0.2 0.025 0
0.3 0.025 0
0.4 0.025 0
0.5 0.025 0
0.6 0.025 0
0.7 0.025 0
0.8 0.025 0
0.9 0.025 0
1 0.025 0
0 0.05 0
0.1 0.05 0
0.2 0.05 0
0.3 0.05 0
0.4 0.05 0
0.5 0.05 0
0.6 0.05 0
0.7 0.05 0
0.8 0.05 0
0.9 0.05 0
1 0.05 0
0 0.075 0
0.1 0.075 0
0.2 0.075 0
0.3 0.075 0
0.4 0.075 0
0.5 0.075 0
0.6 0.075 0
0.7 0.075 0
0.8 0.075 0
0.9 0.075 0
1 0.075 0
0 0.1 0
0.1 0.1 0
0.2 0.1 0
0.3 0.1 0
0.4 0.1 0
0.5 0.1 0
0.6 0.1 0
0.7 0.1 0
0.8 0.1 0
0.9 0.1 0
1 0.1 0
0 0.125 0
0.1 0.125 0
0.2 0.125 0
0.3 0.125 0
0.4 0.125 0
0.5 0.125 0
0.6 0.125 0
0.7 0.125 0
0.8 0.125 0
0.9 0.125 0
1 0.125 0
0 0.15 0
0.1 0.15 0
0.2 0.15 0
0.3 0.15 0
0.4 0.15 0
0.5 0.15 0
0.6 0.15 0
0.7 0.15 0
0.8 0.15 0
0.9 0.15 0
1 0.15 0
0 0.175 0
0.1 0.175 0
0.2 0.175 0
0.3 0.175 0
0.4 0.175 0
0.5 0.175 0
0.6 0.175 0
0.7 0.175 0
0.8 0.175 0
0.9 0.175 0
1 0.175 0
0 0.2 0
0.1 0.2 0
0.2 0.2 0
0.3 0.2 0
0.4 0.2 0
0.5 0.2 0
0.6 0.2 0
0.7 0.2 0
0.8 0.2 0
0.9 0.2 0
1 0.2 0
0 0.225 0
0.1 0.225 0
0.2 0.225 0
0.3 0.225 0
0.4 0.225 0
0.5 0.225 0
0.6 0.225 0
0.7 0.225 0
0.8 0.225 0
0.9 0.225 0
1 0.225 0
0 0.25 0
0.1 0.25 0
0.2 0.25 0
0.3 0.25 0
0.4 0.25 0
0.5 0.25 0
0.6 0.25 0
0.7 0.25 0
0.8 0.25 0
0.9 0.25 0
1 0.25 0
0 0.275 0
0.1 0.275 0
0.2 0.275 0
0.3 0.275 0
0.4 0.275 0
0.5 0.275 0
0.6 0.275 0
0.7 0.275 0
0.8 0.275 0
0.9 0.275 0
1 0.275 0
0 0.3 0
0.1 0.3 0
0.2 0.3 0
0.3 0.3 0
0.4 0.3 0
0.5 0.3 0
0.6 0.3 0
0.7 0.3 0
0.8 0.3 0
0.9 0.3 0
1 0.3 0
0 0.325 0
0.1 0.325 0
0.2 0.325 0
0.3 0.325 0
0.4 0.325 0
0.5 0.325 0
0.6 0.325 0
0.7 0.325 0
0.8 0.325 0
0.9 0.325 0
1 0.325 0
0 0.35 0
0.1 0.35 0
0.2 0.35 0
0.3 0.35 0
0.4 0.35 0
0.5 0.35 0
0.6 0.35 0
0.7 0.35 0
0.8 0.35 0
0.9 0.35 0
1 0.35 0
0 0.375 0
0.1 0.375 0
0.2 0.375 0
0.3 0.375 0
0.4 0.375 0
0.5 0.375 0
0.6 0.375 0
0.7 0.375 0
0.8 0.375 0
0.9 0.375 0
1 0.375 0
0 0.4 0
0.1 0.4 0
0.2 0.4 0
0.3 0.4 0
0.4 0.4 0
0.5 0.4 0
0.6 0.4 0
0.7 0.4 0
0.8 0.4 0
0.9 0.4 0
1 0.4 0
0 0.425 0
0.1 0.425 0
0.2 0.425 0
0.3 0.425 0
0.4 0.425 0
0.5 0.425 0
0.6 0.425 0
0.7 0.425 0
0.8 0.425 0
0.9 0.425 0
1 0.425 0
0 0.45 0
0.1 0.45 0
0.2 0.45 0
0.3 0.45 0
0.4 0.45 0
0.5 0.45 0
0.6 0.45 0
0.7 0.45 0
0.8 0.45 0
0.9 0.45 0
1 0.45 0
0 0.475 0
0.1 0.475 0
0.2 0.475 0
0.3 0.475 0
0.4 0.475 0
0.5 0.475 0
0.6 0.475 0
0.7 0.475 0
0.8 0.475 0
0.9 0.475 0
1 0.475 0
0 0.5 0
0.1 0.5 0
0.2 0.5 0
0.3 0.5 0
0.4 0.5 0
0.5 0.5 0
0.6 0.5 0
0.7 0.5 0
0.8 0.5 0
0.9 0.5 0
1 0.5 0
CELLS 400 1600
3 0 1 12
3 0 12 11
3 1 2 13
3 1 13 12
3 2 3 14
3 2 14 13
3 3 4 15
3 3 15 14
3 4 5 16
3 4 16 15
3 5 6 17
3 5 17 16
3 6 7 18
3 6 18 17
3 7 8 19
3 7 19 18
3 8 9 20
3 8 20 19
3 9 10 21
3 9 21 20
3 11 12 23
3 11 23 22
3 12 13 24
3 12 24 23
3 13 14 25
3 13 25 24
3 14 15 26
3 14 26 25
3 15 16 27
3 15 27 26
3 16 17 28
3 16 28 27
3 17 18 29
3 17 29 28
3 18 19 30
3 18 30 29
3 19 20 31
3 19 31 30
3 20 21 32
3 20 32 31
3 22 23 34
3 22 34 33
3 23 24 35
3 23 35 34
3 24 25 36
3 24 36 35
3 25 26 37
3 25 37 36
3 26 27 38
3 26 38 37
3 27 28 39
3 27 39 38
3 28 29 40
3 28 40 39
3 29 30 41
3 29 41 40
3 30 31 42
3 30 42 41
3 31 32 43
3 31 43 42
3 33 34 45
3 33 45 44
3 34 35 46
3 34 46 45
3 35 36 47
3 35 47 46
3 36 37 48
3 36 48 47
3 37 38 49
3 37 49 48
3 38 39 50
3 38 50 49
3 39 40 51
3 39 51 50
3 40 41 52
3 40 52 51
3 41 42 53
3 41 53 52
3 42 43 54
3 42 54 53
3 44 45 56
3 44 56 55
3 45 46 57
3 45 57 56
3 46 47 58
3 46 58 57
3 47 48 59
3 47 59 58
3 48 49 60
3 48 60 59
3 49 50 61
3 49 61 60
3 50 51 62
3 50 62 61
3 51 52 63
3 51 63 62
3 52 53 64
3 52 64 63
3 53 54 65
3 53 65 64
3 55 56 67
3 55 67 66
3 56 57 68
3 56 68 67
3 57 58 69
3 57 69 68
3 58 59 70
3 58 70 69
3 59 60 71
3 59 71 70
3 60 61 72
3 60 72 71
3 61 62 73
3 61 73 72
3 62 63 74
3 62 74 73
3 63 64 75
3 63 75 74
3 64 65 76
3 64 76 75
3 66 67 78
3 66 78 77
3 67 68 79
3 67 79 78
3 68 69 80
3 68 80 79
3 69 70 81
3 69 81 80
3 70 71 82
3 70 82 81
3 71 72 83
3 71 83 82
3 72 73 84
3 72 84 83
3 73 74 85
3 73 85 84
3 74 75 86
3 74 86 85
3 75 76 87
3 75 87 86
3 77 78 89
3 77 89 88
3 78 79 90
3 78 90 89
3 79 80 91
3 79 91 90
3 80 81 92
3 80 92 91
3 81 82 93
3 81 93 92
3 82 83 94
3 82 94 93
3 83 84 95
3 83 95 94
3 84 85 96
3 84 96 95
3 85 86 97
3 85 97 96
3 86 87 98
3 86 98 97
3 88 89 100
3 88 100 99
3 89 90 101
3 89 101 100
3 90 91 102
3 90 102 101
3 91 92 103
3 91 103 102
3 92 93 104
3 92 104 103
3 93 94 105
3 93 105 104
3 94 95 106
3 94 106 105
3 95 96 107
3 95 107 106
3 96 97 108
3 96 108 107
3 97 98 109
3 97 109 108
3 99 100 111
3 99 111 110
3 100 101 112
3 100 112 111
3 101 102 113
3 101 113 112
3 102 103 114
3 102 114 113
3 103 104 115
3 103 115 114
3 104 105 116
3 104 116 115
3 105 106 117
3 105 117 116
3 106 107 118
3 106 118 117
3 107 108 119
3 107 119 118
3 108 109 120
3 108 120 119
3 110 111 122
3 110 122 121
3 111 112 123
3 111 123 122
3 112 113 124
3 112 124 123
3 113 114 125
3 113 125 124
3 114 115 126
3 114 126 125
3 115 116 127
3 115 127 126
3 116 117 128
3 116 128 127
3 117 118 129
3 117 129 128
3 118 119 130
3 118 130 129
3 119 120 131
3 119 131 130
3 121 122 133
3 121 133 132
3 122 123 134
3 122 134 133
3 123 124 135
3 123 135 134
3 124 125 136
3 124 136 135
3 125 126 137
3 125 137 136
3 126 127 138
3 126 138 137
3 127 128 139
3 127 139 138
3 128 129 140
3 128 140 139
3 129 130 141
3 129 141 140
3 130 131 142
3 130 142 141
3 132 133 144
3 132 144 143
3 133 134 145
3 133 145 144
3 134 135 146
3 134 146 145
3 135 136 147
3 135 147 146
3 136 137 148
3 136 148 147
3 137 138 149
3 137 149 148
3 138 139 150
3 138 150 149
3 139 140 151
3 139 151 150
3 140 141 152
3 140 152 151
3 141 142 153
3 141 153 152
3 143 144 155
3 143 155 154
3 144 145 156
3 144 156 155
3 145 146 157
3 145 157 156
3 146 147 158
3 146 158 157
3 147 148 159
3 147 159 158
3 148 149 160
3 148 160 159
3 149 150 161
3 149 161 160
3 150 151 162
3 150 162 161
3 151 152 163
3 151 163 162
3 152 153 164
3 152 164 163
3 154 155 166
3 154 166 165
3 155 156 167
3 155 167 166
3 156 157 168
3 156 168 167
3 157 158 169
3 157 169 168
3 158 159 170
3 158 170 169
3 159 160 171
3 159 171 170
3 160 161 172
3 160 172 171
3 161 162 173
3 161 173 172
3 162 163 174
3 162 174 173
3 163 164 175
3 163 175 174
3 165 166 177
3 165 177 176
3 166 167 178
3 166 178 177
3 167 168 179
3 167 179 178
3 168 169 180
3 168 180 179
3 169 170 181
3 169 181 180
3 170 171 182
3 170 182 181
3 171 172 183
3 171 183 182
3 172 173 184
3 172 184 183
3 173 174 185
3 173 185 184
3 174 175 186
3 174 186 185
3 176 177 188
3 176 188 187
3 177 178 189
3 177 189 188
3 178 179 190
3 178 190 189
3 179 180 191
3 179 191 190
3 180 181 192
3 180 192 191
3 181 182 193
3 181 193 192
3 182 183 194
3 182 194 193
3 183 184 195
3 183 195 194
3 184 185 196
3 184 196 195
3 185 186 197
3 185 197 196
3 187 188 199
3 187 199 198
3 188 189 200
3 188 200 199
3 189 190 201
3 189 201 200
3 190 191 202
3 190 202 201
3 191 192 203
3 191 203 202
3 192 193 204
3 192 204 203
3 193 194 205
3 193 205 204
3 194 195 206
3 194 206 205
3 195 196 207
3 195 207 206
3 196 197 208
3 196 208 207
3 198 199 210
3 198 210 209
3 199 200 211
3 199 211 210
3 200 201 212
3 200 212 211
3 201 202 213
3 201 213 212
3 202 203 214
3 202 214 213
3 203 204 215
3 203 215 214
3 204 205 216
3 204 216 215
3 205 206 217
3 205 217 216
3 206 207 218
3 206 218 217
3 207 208 219
3 207 219 218
3 209 210 221
3 209 221 220
3 210 211 222
3 210 222 221
3 211 212 223
3 211 223 222
3 212 213 224
3 212 224 223
3 213 214 225
3 213 225 224
3 214 215 226
3 214 226 225
3 215 216 227
3 215 227 226
3 216 217 228
3 216 228 227
3 217 218 229
3 217 229 228
3 218 219 230
3 218 230 229
CELL_TYPES 400
5
5
5
5
5
5
5
5
5
5
5
5
5
5
5
5
5
5
5
5
5
5
5
5
5
5
5
5
5
5
5
5
5
5
5
5
5
5
5
5
5
5
5
5
5
5
5
5
5
5
5
5
5
5
5
5
5
5
5
5
5
5
5
5
5
5
5
5
5
5
5
5
5
5
5
5
5
5
5
5
5
5
5
5
5
5
5
5
5
5
5
5
5
5
5
5
5
5
5
5
5
5
5
5
5
5
5
5
5
5
5
5
5
5
5
5
5
5
5
5
5
5
5
5
5
5
5
5
5
5
5
5
5
5
5
5
5
5
5
5
5
5
5
5
5
5
5
5
5
5
5
5
5
5
5
5
5
5
5
5
5
5
5
5
5
5
5
5
5
5
5
5
5
5
5
5
5
5
5
5
5
5
5
5
5
5
5
5
5
5
5
5
5
5
5
5
5
5
5
5
5
5
5
5
5
5
5
5
5
5
5
5
5
5
5
5
5
5
5
5
5
5
5
5
5
5
5
5
5
5
5
5
5
5
5
5
5
5
5
5
5
5
5
5
5
5
5
5
5
5
5
5
5
5
5
5
5
5
5
5
5
5
5
5
5
5
5
5
5
5
5
5
5
5
5
5
5
5
5
5
5
5
5
5
5
5
5
5
5
5
5
5
5
5
5
5
5
5
5
5
5
5
5
5
5
5
5
5
5
5
5
5
5
5
5
5
5
5
5
5
5
5
5
5
5
5
5
5
5
5
5
5
5
5
5
5
5
5
5
5
5
5
5
5
5
5
5
5
5
5
5
5
5
5
5
5
5
5
5
5
5
5
5
5
5
5
5
5
5
5
5
5
5
5
5
5
5
5
5
5
5
5
5
5
5
5
5
5
5
5
5
5
5
5
5
5
5
5
5
5
CELL_DATA 400
VECTORS Ht double
-0.56378 0.12925 0
-0.535722 0.140945 0
-0.823993 -0.106071 0
-0.790042 -0.0641964 0
0.187329 -0.196636 0
0.162695 -0.14676 0
0.999823 -0.0188048 0
0.940649 -0.00648702 0
0.470118 0.166768 0
0.448368 0.151231 0
-0.607659 0.110525 0
-0.571591 0.102676 0
-0.75291 -0.0985858 0
-0.717932 -0.0742125 0
0.17914 -0.183758 0
0.155116 -0.134427 0
0.936475 -0.0364706 0
0.875537 -0.00557536 0
0.529916 0.132479 0
0.498808 0.13811 0
-0.467219 0.354372 0
-0.390616 0.39168 0
-0.707689 -0.245955 0
-0.601303 -0.165621 0
0.129907 -0.513286 0
0.086432 -0.454459 0
0.830935 -0.0790663 0
0.671085 -0.0595833 0
0.407472 0.416922 0
0.326953 0.440428 0
-0.49907 0.305773 0
-0.413708 0.334148 0
-0.64245 -0.227987 0
-0.533606 -0.19703 0
0.124066 -0.477359 0
0.0807644 -0.414916 0
0.771315 -0.121498 0
0.608231 -0.0538919 0
0.450581 0.369826 0
0.360337 0.397503 0
-0.278204 0.512322 0
-0.166999 0.558885 0
-0.445923 -0.325123 0
-0.285737 -0.228969 0
0.045497 -0.718 0
-0.00221684 -0.670079 0
0.478849 -0.12304 0
0.25663 -0.10937 0
0.240787 0.576808 0
0.120218 0.62995 0
-0.294461 0.438612 0
-0.177148 0.493239 0
-0.391323 -0.298475 0
-0.228658 -0.275679 0
0.0419793 -0.660912 0
-0.00591236 -0.606346 0
0.427446 -0.182374 0
0.202087 -0.0985728 0
0.263573 0.525804 0
0.136358 0.561321 0
-0.0340982 0.568843 0
0.0900823 0.609159 0
-0.0878315 -0.329659 0
0.0956787 -0.242373 0
-0.0393735 -0.765961 0
-0.076086 -0.748538 0
0.0251876 -0.135685 0
-0.206955 -0.142261 0
0.00854199 0.614184 0
-0.12305 0.680859 0
-0.0363316 0.476802 0
0.0900208 0.541423 0
-0.0492199 -0.296792 0
0.135686 -0.297769 0
-0.0407836 -0.691818 0
-0.077938 -0.665825 0
-0.0125686 -0.203757 0
-0.246553 -0.12672 0
0.0128798 0.563113 0
-0.120976 0.592775 0
0.215858 0.50935 0
0.327844 0.532674 0
0.29607 -0.2637 0
0.46572 -0.204332 0
-0.0996372 -0.647655 0
-0.114491 -0.672629 0
-0.426212 -0.109876 0
-0.614629 -0.146206 0
-0.233652 0.522531 0
-0.344452 0.585935 0
0.223554 0.407457 0
0.334319 0.465507 0
0.31371 -0.227638 0
0.483212 -0.262381 0
-0.0993304 -0.562869 0
-0.114814 -0.578313 0
-0.444982 -0.179362 0
-0.633408 -0.127103 0
-0.242994 0.472121 0
-0.35223 0.486489 0
0.420319 0.342927 0
0.496523 0.345634 0
0.626964 -0.147432 0
0.746024 -0.124039 0
-0.119573 -0.390717 0
-0.10957 -0.45721 0
-0.774072 -0.0486759 0
-0.876776 -0.114485 0
-0.427039 0.32225 0
-0.49055 0.370432 0
0.433741 0.24084 0
0.506867 0.2809 0
0.620244 -0.11152 0
0.737807 -0.179612 0
-0.118076 -0.303584 0
-0.108827 -0.360344 0
-0.769912 -0.113494 0
-0.870937 -0.09378 0
-0.444833 0.272855 0
-0.504517 0.269057 0
0.536426 0.101638 0
0.559945 0.0873965 0
0.833586 -0.0111795 0
0.873707 -0.019416 0
-0.0975223 -0.053235 0
-0.0682839 -0.146787 0
-0.943236 0.0351394 0
-0.939463 -0.0487372 0
-0.52437 0.0563925 0
-0.525897 0.0853437 0
0.552679 0.00940081 0
0.572886 0.0281409 0
0.801762 0.0212671 0
0.839689 -0.0681783 0
-0.0954324 0.0269515 0
-0.0670167 -0.0571745 0
-0.914718 -0.0201562 0
-0.908201 -0.028967 0
-0.546416 0.0101217 0
-0.54352 -0.00796224 0
0.539054 -0.165114 0
0.503664 -0.187353 0
0.867794 0.112665 0
0.816001 0.0867105 0
-0.0458906 0.28978 0
-0.00945797 0.193288 0
-0.901284 0.122107 0
-0.795498 0.0398907 0
-0.501398 -0.218304 0
-0.441277 -0.204987 0
0.5568 -0.238103 0
0.518965 -0.236408 0
0.813318 0.138756 0
0.759444 0.0484949 0
-0.0437858 0.353909 0
-0.00820591 0.266289 0
-0.85012 0.0800748 0
-0.741346 0.0559548 0
-0.524929 -0.25699 0
-0.460954 -0.280661 0
0.426702 -0.400433 0
0.338736 -0.419945 0
0.716425 0.197644 0
0.579362 0.171515 0
0.0135473 0.563471 0
0.043084 0.490393 0
-0.664451 0.190823 0
-0.484102 0.132209 0
-0.362374 -0.443325 0
-0.255296 -0.437778 0
0.445599 -0.446534 0
0.35651 -0.45344 0
0.644835 0.215268 0
0.506514 0.146997 0
0.0151892 0.603852 0
0.043867 0.539101 0
-0.595484 0.16468 0
-0.412681 0.141966 0
-0.385733 -0.468662 0
-0.275909 -0.487802 0
0.222525 -0.552118 0
0.100071 -0.56026 0
0.406343 0.229089 0
0.210375 0.217089 0
0.0574183 0.709748 0
0.0689482 0.680249 0
-0.291901 0.223155 0
-0.0798869 0.205059 0
-0.138448 -0.570842 0
-0.00933972 -0.565674 0
0.242468 -0.566443 0
0.120245 -0.574104 0
0.325575 0.237165 0
0.12961 0.208629 0
0.0582866 0.721189 0
0.0689595 0.699688 0
-0.212543 0.214291 0
0.000827889 0.206473 0
-0.160584 -0.577786 0
-0.0299694 -0.584595 0
-0.0299694 -0.584595 0
-0.160584 -0.577786 0
0.000827889 0.206473 0
-0.212543 0.214291 0
0.0689595 0.699688 0
0.0582866 0.721189 0
0.12961 0.208629 0
0.325575 0.237165 0
0.120245 -0.574104 0
0.242468 -0.566443 0
-0.00933972 -0.565674 0
-0.138448 -0.570842 0
-0.0798869 0.205059 0
-0.291901 0.223155 0
0.0689482 0.680249 0
0.0574183 0.709748 0
0.210375 0.217089 0
0.406343 0.229089 0
0.100071 -0.56026 0
0.222525 -0.552118 0
-0.275909 -0.487802 0
-0.385733 -0.468662 0
-0.412681 0.141966 0
-0.595484 0.16468 0
0.043867 0.539101 0
0.0151892 0.603852 0
0.506514 0.146997 0
0.644835 0.215268 0
0.35651 -0.45344 0
0.445599 -0.446534 0
-0.255296 -0.437778 0
-0.362374 -0.443325 0
-0.484102 0.132209 0
-0.664451 0.190823 0
0.043084 0.490393 0
0.0135473 0.563471 0
0.579362 0.171515 0
0.716425 0.197644 0
0.338736 -0.419945 0
0.426702 -0.400433 0
-0.460954 -0.280661 0
-0.524929 -0.25699 0
-0.741346 0.0559548 0
-0.85012 0.0800748 0
-0.00820591 0.266289 0
-0.0437858 0.353909 0
0.759444 0.0484949 0
0.813318 0.138756 0
0.518965 -0.236408 0
0.5568 -0.238103 0
-0.441277 -0.204987 0
-0.501398 -0.218304 0
-0.795498 0.0398907 0
-0.901284 0.122107 0
-0.00945797 0.193288 0
-0.0458906 0.28978 0
0.816001 0.0867105 0
0.867794 0.112665 0
0.503664 -0.187353 0
0.539054 -0.165114 0
-0.54352 -0.00796224 0
-0.546416 0.0101217 0
-0.908201 -0.028967 0
-0.914718 -0.0201562 0
-0.0670167 -0.0571745 0
-0.0954324 0.0269515 0
0.839689 -0.0681783 0
0.801762 0.0212671 0
0.572886 0.0281409 0
0.552679 0.00940081 0
-0.525897 0.0853437 0
-0.52437 0.0563925 0
-0.939463 -0.0487372 0
-0.943236 0.0351394 0
-0.0682839 -0.146787 0
-0.0975223 -0.053235 0
0.873707 -0.019416 0
0.833586 -0.0111795 0
0.559945 0.0873965 0
0.536426 0.101638 0
-0.504517 0.269057 0
-0.444833 0.272855 0
-0.870937 -0.09378 0
-0.769912 -0.113494 0
-0.108827 -0.360344 0
-0.118076 -0.303584 0
0.737807 -0.179612 0
0.620244 -0.11152 0
0.506867 0.2809 0
0.433741 0.24084 0
-0.49055 0.370432 0
-0.427039 0.32225 0
-0.876776 -0.114485 0
-0.774072 -0.0486759 0
-0.10957 -0.45721 0
-0.119573 -0.390717 0
0.746024 -0.124039 0
0.626964 -0.147432 0
0.496523 0.345634 0
0.420319 0.342927 0
-0.35223 0.486489 0
-0.242994 0.472121 0
-0.633408 -0.127103 0
-0.444982 -0.179362 0
-0.114814 -0.578313 0
-0.0993304 -0.562869 0
0.483212 -0.262381 0
0.31371 -0.227638 0
0.334319 0.465507 0
0.223554 0.407457 0
-0.344452 0.585935 0
-0.233652 0.522531 0
-0.614629 -0.146206 0
-0.426212 -0.109876 0
-0.114491 -0.672629 0
-0.0996372 -0.647655 0
0.46572 -0.204332 0
0.29607 -0.2637 0
0.327844 0.532674 0
0.215858 0.50935 0
-0.120976 0.592775 0
0.0128798 0.563113 0
-0.246553 -0.12672 0
-0.0125686 -0.203757 0
-0.077938 -0.665825 0
-0.0407836 -0.691818 0
0.135686 -0.297769 0
-0.0492199 -0.296792 0
0.0900208 0.541423 0
-0.0363316 0.476802 0
-0.12305 0.680859 0
0.00854199 0.614184 0
-0.206955 -0.142261 0
0.0251876 -0.135685 0
-0.076086 -0.748538 0
-0.0393735 -0.765961 0
0.0956787 -0.242373 0
-0.0878315 -0.329659 0
0.0900823 0.609159 0
-0.0340982 0.568843 0
0.136358 0.561321 0
0.263573 0.525804 0
0.202087 -0.0985728 0
0.427446 -0.182374 0
-0.00591236 -0.606346 0
0.0419793 -0.660912 0
-0.228658 -0.275679 0
-0.391323 -0.298475 0
-0.177148 0.493239 0
-0.294461 0.438612 0
0.120218 0.62995 0
0.240787 0.576808 0
0.25663 -0.10937 0
0.478849 -0.12304 0
-0.00221684 -0.670079 0
0.045497 -0.718 0
-0.285737 -0.228969 0
-0.445923 -0.325123 0
-0.166999 0.558885 0
-0.278204 0.512322 0
0.360337 0.397503 0
0.450581 0.369826 0
0.608231 -0.0538919 0
0.771315 -0.121498 0
0.0807644 -0.414916 0
0.124066 -0.477359 0
-0.533606 -0.19703 0
-0.64245 -0.227987 0
-0.413708 0.334148 0
-0.49907 0.305773 0
0.326953 0.440428 0
0.407472 0.416922 0
0.671085 -0.0595833 0
0.830935 -0.0790663 0
0.086432 -0.454459 0
0.129907 -0.513286 0
-0.601303 -0.165621 0
-0.707689 -0.245955 0
-0.390616 0.39168 0
-0.467219 0.354372 0
0.498808 0.13811 0
0.529916 0.132479 0
0.875537 -0.00557536 0
0.936475 -0.0364706 0
0.155116 -0.134427 0
0.17914 -0.183758 0
-0.717932 -0.0742125 0
-0.75291 -0.0985858 0
-0.571591 0.102676 0
-0.607659 0.110525 0
0.448368 0.151231 0
0.470118 0.166768 0
0.940649 -0.00648702 0
0.999823 -0.0188048 0
0.162695 -0.14676 0
0.187329 -0.196636 0
-0.790042 -0.0641964 0
-0.823993 -0.106071 0
-0.535722 0.140945 0
-0.56378 0.12925 0
