# vtk DataFile Version 3.0
tp3485 cell-vector
ASCII
DATASET UNSTRUCTURED_GRID
POINTS 231 double
0 0 0
0.1 0 0
0.2 0 0
0.3 0 0
0.4 0 0
0.5 0 0
0.6 0 0
0.7 0 0
0.8 0 0
0.9 0 0
1 0 0
0 0.025 0
0.1 0.025 0
0.2 0.025 0
0.3 0.025 0
0.4 0.025 0
0.5 0.025 0
0.6 0.025 0
0.7 0.025 0
0.8 0.025 0
0.9 0.025 0
1 0.025 0
0 0.05 0
0.1 0.05 0
0.2 0.05 0
0.3 0.05 0
0.4 0.05 0
0.5 0.05 0
0.6 0.05 0
0.7 0.05 0
0.8 0.05 0
0.9 0.05 0
1 0.05 0
0 0.075 0
0.1 0.075 0
0.2 0.075 0
0.3 0.075 0
0.4 0.075 0
0.5 0.075 0
0.6 0.075 0
0.7 0.075 0
0.8 0.075 0
0.9 0.075 0
1 0.075 0
0 0.1 0
0.1 0.1 0
0.2 0.1 0
0.3 0.1 0
0.4 0.1 0
0.5 0.1 0
0.6 0.1 0
0.7 0.1 0
0.8 0.1 0
0.9 0.1 0
1 0.1 0
0 0.125 0
0.1 0.125 0
0.2 0.125 0
0.3 0.125 0
0.4 0.125 0
0.5 0.125 0
0.6 0.125 0
0.7 0.125 0
0.8 0.125 0
0.9 0.125 0
1 0.125 0
0 0.15 0
0.1 0.15 0
0.2 0.15 0
0.3 0.15 0
0.4 0.15 0
0.5 0.15 0
0.6 0.15 0
0.7 0.15 0
0.8 0.15 0
0.9 0.15 0
1 0.15 0
0 0.175 0
0.1 0.175 0
0.2 0.175 0
0.3 0.175 0
0.4 0.175 0
0.5 0.175 0
0.6 0.175 0
0.7 0.175 0
0.8 0.175 0
0.9 0.175 0
1 0.175 0
0 0.2 0
0.1 0.2 0
0.2 0.2 0
0.3 0.2 0
0.4 0.2 0
0.5 0.2 0
0.6 0.2 0
0.7 0.2 0
0.8 0.2 0
0.9 0.2 0
1 0.2 0
0 0.225 0
0.1 0.225 0
0.2 0.225 0
0.3 0.225 0
0.4 0.225 0
0.5 0.225 0
0.6 0.225 0
0.7 0.225 0
0.8 0.225 0
0.9 0.225 0
1 0.225 0
0 0.25 0
0.1 0.25 0
0.2 0.25 0
0.3 0.25 0
0.4 0.25 0
0.5 0.25 0
0.6 0.25 0
0.7 0.25 0
0.8 0.25 0
0.9 0.25 0
1 0.25 0
0 0.275 0
0.1 0.275 0
0.2 0.275 0
0.3 0.275 0
0.4 0.275 0
0.5 0.275 0
0.6 0.275 0
0.7 0.275 0
0.8 0.275 0
0.9 0.275 0
1 0.275 0
0 0.3 0
0.1 0.3 0
0.2 0.3 0
0.3 0.3 0
0.4 0.3 0
0.5 0.3 0
0.6 0.3 0
0.7 0.3 0
0.8 0.3 0
0.9 0.3 0
1 0.3 0
0 0.325 0
0.1 0.325 0
0.2 0.325 0
0.3 0.325 0
0.4 0.325 0
0.5 0.325 0
0.6 0.325 0
0.7 0.325 0
0.8 0.325 0
0.9 0.325 0
1 0.325 0
0 0.35 0
0.1 0.35 0
0.2 0.35 0
0.3 0.35 0
0.4 0.35 0
0.5 0.35 0
0.6 0.35 0
0.7 0.35 0
0.8 0.35 0
0.9 0.35 0
1 0.35 0
0 0.375 0
0.1 0.375 0
0.2 0.375 0
0.3 0.375 0
0.4 0.375 0
0.5 0.375 0
0.6 0.375 0
0.7 0.375 0
0.8 0.375 0
0.9 0.375 0
1 0.375 0
0 0.4 0
0.1 0.4 0
0.2 0.4 0
0.3 0.4 0
0.4 0.4 0
0.5 0.4 0
0.6 0.4 0
0.7 0.4 0
0.8 0.4 0
0.9 0.4 0
1 0.4 0
0 0.425 0
0.1 0.425 0
0.2 0.425 0
0.3 0.425 0
0.4 0.425 0
0.5 0.425 0
0.6 0.425 0
0.7 0.425 0
0.8 0.425 0
0.9 0.425 0
1 0.425 0
0 0.45 0
0.1 0.45 0
0.2 0.45 0
0.3 0.45 0
0.4 0.45 0
0.5 0.45 0
0.6 0.45 0
0.7 0.45 0
0.8 0.45 0
0.9 0.45 0
1 0.45 0
0 0.475 0
0.1 0.475 0
0.2 0.475 0
0.3 0.475 0
0.4 0.475 0
0.5 0.475 0
0.6 0.475 0
0.7 0.475 0
0.8 0.475 0
0.9 0.475 0
1 0.475 0
0 0.5 0
0.1 0.5 0
0.2 0.5 0
0.3 0.5 0
0.4 0.5 0
0.5 0.5 0
0.6 0.5 0
0.7 0.5 0
0.8 0.5 0
0.9 0.5 0
1 0.5 0
CELLS 400 1600
3 0 1 12
3 0 12 11
3 1 2 13
3 1 13 12
3 2 3 14
3 2 14 13
3 3 4 15
3 3 15 14
3 4 5 16
3 4 16 15
3 5 6 17
3 5 17 16
3 6 7 18
3 6 18 17
3 7 8 19
3 7 19 18
3 8 9 20
3 8 20 19
3 9 10 21
3 9 21 20
3 11 12 23
3 11 23 22
3 12 13 24
3 12 24 23
3 13 14 25
3 13 25 24
3 14 15 26
3 14 26 25
3 15 16 27
3 15 27 26
3 16 17 28
3 16 28 27
3 17 18 29
3 17 29 28
3 18 19 30
3 18 30 29
3 19 20 31
3 19 31 30
3 20 21 32
3 20 32 31
3 22 23 34
3 22 34 33
3 23 24 35
3 23 35 34
3 24 25 36
3 24 36 35
3 25 26 37
3 25 37 36
3 26 27 38
3 26 38 37
3 27 28 39
3 27 39 38
3 28 29 40
3 28 40 39
3 29 30 41
3 29 41 40
3 30 31 42
3 30 42 41
3 31 32 43
3 31 43 42
3 33 34 45
3 33 45 44
3 34 35 46
3 34 46 45
3 35 36 47
3 35 47 46
3 36 37 48
3 36 48 47
3 37 38 49
3 37 49 48
3 38 39 50
3 38 50 49
3 39 40 51
3 39 51 50
3 40 41 52
3 40 52 51
3 41 42 53
3 41 53 52
3 42 43 54
3 42 54 53
3 44 45 56
3 44 56 55
3 45 46 57
3 45 57 56
3 46 47 58
3 46 58 57
3 47 48 59
3 47 59 58
3 48 49 60
3 48 60 59
3 49 50 61
3 49 61 60
3 50 51 62
3 50 62 61
3 51 52 63
3 51 63 62
3 52 53 64
3 52 64 63
3 53 54 65
3 53 65 64
3 55 56 67
3 55 67 66
3 56 57 68
3 56 68 67
3 57 58 69
3 57 69 68
3 58 59 70
3 58 70 69
3 59 60 71
3 59 71 70
3 60 61 72
3 60 72 71
3 61 62 73
3 61 73 72
3 62 63 74
3 62 74 73
3 63 64 75
3 63 75 74
3 64 65 76
3 64 76 75
3 66 67 78
3 66 78 77
3 67 68 79
3 67 79 78
3 68 69 80
3 68 80 79
3 69 70 81
3 69 81 80
3 70 71 82
3 70 82 81
3 71 72 83
3 71 83 82
3 72 73 84
3 72 84 83
3 73 74 85
3 73 85 84
3 74 75 86
3 74 86 85
3 75 76 87
3 75 87 86
3 77 78 89
3 77 89 88
3 78 79 90
3 78 90 89
3 79 80 91
3 79 91 90
3 80 81 92
3 80 92 91
3 81 82 93
3 81 93 92
3 82 83 94
3 82 94 93
3 83 84 95
3 83 95 94
3 84 85 96
3 84 96 95
3 85 86 97
3 85 97 96
3 86 87 98
3 86 98 97
3 88 89 100
3 88 100 99
3 89 90 101
3 89 101 100
3 90 91 102
3 90 102 101
3 91 92 103
3 91 103 102
3 92 93 104
3 92 104 103
3 93 94 105
3 93 105 104
3 94 95 106
3 94 106 105
3 95 96 107
3 95 107 106
3 96 97 108
3 96 108 107
3 97 98 109
3 97 109 108
3 99 100 111
3 99 111 110
3 100 101 112
3 100 112 111
3 101 102 113
3 101 113 112
3 102 103 114
3 102 114 113
3 103 104 115
3 103 115 114
3 104 105 116
3 104 116 115
3 105 106 117
3 105 117 116
3 106 107 118
3 106 118 117
3 107 108 119
3 107 119 118
3 108 109 120
3 108 120 119
3 110 111 122
3 110 122 121
3 111 112 123
3 111 123 122
3 112 113 124
3 112 124 123
3 113 114 125
3 113 125 124
3 114 115 126
3 114 126 125
3 115 116 127
3 115 127 126
3 116 117 128
3 116 128 127
3 117 118 129
3 117 129 128
3 118 119 130
3 118 130 129
3 119 120 131
3 119 131 130
3 121 122 133
3 121 133 132
3 122 123 134
3 122 134 133
3 123 124 135
3 123 135 134
3 124 125 136
3 124 136 135
3 125 126 137
3 125 137 136
3 126 127 138
3 126 138 137
3 127 128 139
3 127 139 138
3 128 129 140
3 128 140 139
3 129 130 141
3 129 141 140
3 130 131 142
3 130 142 141
3 132 133 144
3 132 144 143
3 133 134 145
3 133 145 144
3 134 135 146
3 134 146 145
3 135 136 147
3 135 147 146
3 136 137 148
3 136 148 147
3 137 138 149
3 137 149 148
3 138 139 150
3 138 150 149
3 139 140 151
3 139 151 150
3 140 141 152
3 140 152 151
3 141 142 153
3 141 153 152
3 143 144 155
3 143 155 154
3 144 145 156
3 144 156 155
3 145 146 157
3 145 157 156
3 146 147 158
3 146 158 157
3 147 148 159
3 147 159 158
3 148 149 160
3 148 160 159
3 149 150 161
3 149 161 160
3 150 151 162
3 150 162 161
3 151 152 163
3 151 163 162
3 152 153 164
3 152 164 163
3 154 155 166
3 154 166 165
3 155 156 167
3 155 167 166
3 156 157 168
3 156 168 167
3 157 158 169
3 157 169 168
3 158 159 170
3 158 170 169
3 159 160 171
3 159 171 170
3 160 161 172
3 160 172 171
3 161 162 173
3 161 173 172
3 162 163 174
3 162 174 173
3 163 164 175
3 163 175 174
3 165 166 177
3 165 177 176
3 166 167 178
3 166 178 177
3 167 168 179
3 167 179 178
3 168 169 180
3 168 180 179
3 169 170 181
3 169 181 180
3 170 171 182
3 170 182 181
3 171 172 183
3 171 183 182
3 172 173 184
3 172 184 183
3 173 174 185
3 173 185 184
3 174 175 186
3 174 186 185
3 176 177 188
3 176 188 187
3 177 178 189
3 177 189 188
3 178 179 190
3 178 190 189
3 179 180 191
3 179 191 190
3 180 181 192
3 180 192 191
3 181 182 193
3 181 193 192
3 182 183 194
3 182 194 193
3 183 184 195
3 183 195 194
3 184 185 196
3 184 196 195
3 185 186 197
3 185 197 196
3 187 188 199
3 187 199 198
3 188 189 200
3 188 200 199
3 189 190 201
3 189 201 200
3 190 191 202
3 190 202 201
3 191 192 203
3 191 203 202
3 192 193 204
3 192 204 203
3 193 194 205
3 193 205 204
3 194 195 206
3 194 206 205
3 195 196 207
3 195 207 206
3 196 197 208
3 196 208 207
3 198 199 210
3 198 210 209
3 199 200 211
3 199 211 210
3 200 201 212
3 200 212 211
3 201 202 213
3 201 213 212
3 202 203 214
3 202 214 213
3 203 204 215
3 203 215 214
3 204 205 216
3 204 216 215
3 205 206 217
3 205 217 216
3 206 207 218
3 206 218 217
3 207 208 219
3 207 219 218
3 209 210 221
3 209 221 220
3 210 211 222
3 210 222 221
3 211 212 223
3 211 223 222
3 212 213 224
3 212 224 223
3 213 214 225
3 213 225 224
3 214 215 226
3 214 226 225
3 215 216 227
3 215 227 226
3 216 217 228
3 216 228 227
3 217 218 229
3 217 229 228
3 218 219 230
3 218 230 229
CELL_TYPES 400
5
5
5
5
5
5
5
5
5
5
5
5
5
5
5
5
5
5
5
5
5
5
5
5
5
5
5
5
5
5
5
5
5
5
5
5
5
5
5
5
5
5
5
5
5
5
5
5
5
5
5
5
5
5
5
5
5
5
5
5
5
5
5
5
5
5
5
5
5
5
5
5
5
5
5
5
5
5
5
5
5
5
5
5
5
5
5
5
5
5
5
5
5
5
5
5
5
5
5
5
5
5
5
5
5
5
5
5
5
5
5
5
5
5
5
5
5
5
5
5
5
5
5
5
5
5
5
5
5
5
5
5
5
5
5
5
5
5
5
5
5
5
5
5
5
5
5
5
5
5
5
5
5
5
5
5
5
5
5
5
5
5
5
5
5
5
5
5
5
5
5
5
5
5
5
5
5
5
5
5
5
5
5
5
5
5
5
5
5
5
5
5
5
5
5
5
5
5
5
5
5
5
5
5
5
5
5
5
5
5
5
5
5
5
5
5
5
5
5
5
5
5
5
5
5
5
5
5
5
5
5
5
5
5
5
5
5
5
5
5
5
5
5
5
5
5
5
5
5
5
5
5
5
5
5
5
5
5
5
5
5
5
5
5
5
5
5
5
5
5
5
5
5
5
5
5
5
5
5
5
5
5
5
5
5
5
5
5
5
5
5
5
5
5
5
5
5
5
5
5
5
5
5
5
5
5
5
5
5
5
5
5
5
5
5
5
5
5
5
5
5
5
5
5
5
5
5
5
5
5
5
5
5
5
5
5
5
5
5
5
5
5
5
5
5
5
5
5
5
5
5
5
5
5
5
5
5
5
5
5
5
5
5
5
5
5
5
5
5
5
5
5
5
5
5
5
5
5
5
5
5
5
5
5
5
5
5
5
5
5
5
5
5
5
5
5
5
5
5
5
CELL_DATA 400
VECTORS Ht double
0.311535 -0.0734789 0
0.310055 -0.0778837 0
0.811147 -0.0393944 0
0.807437 -0.051424 0
0.998194 0.00954554 0
0.994166 -0.00736733 0
0.802979 0.0547833 0
0.800229 0.0392582 0
0.300603 0.0790781 0
0.3002 0.0708108 0
-0.316859 0.0731722 0
-0.31475 0.0752874 0
-0.813557 0.039347 0
-0.809731 0.0510022 0
-0.999956 -0.00942618 0
-0.995854 0.00725263 0
-0.805397 -0.0543457 0
-0.802527 -0.0392134 0
-0.305938 -0.0764845 0
-0.304903 -0.070519 0
0.304099 -0.215753 0
0.30036 -0.231422 0
0.793564 -0.116315 0
0.783494 -0.155861 0
0.977727 0.027091 0
0.965728 -0.0231695 0
0.787518 0.159993 0
0.778316 0.117749 0
0.29608 0.231734 0
0.293245 0.213468 0
-0.308701 0.214973 0
-0.304054 0.227565 0
-0.795818 0.116185 0
-0.785433 0.154726 0
-0.979383 -0.0267539 0
-0.96717 0.0228368 0
-0.789771 -0.158845 0
-0.78025 -0.117621 0
-0.30068 -0.22788 0
-0.296936 -0.212698 0
0.289451 -0.352697 0
0.283464 -0.378875 0
0.756626 -0.190574 0
0.740414 -0.256495 0
0.933246 0.0437144 0
0.913561 -0.0386248 0
0.75266 0.26107 0
0.73722 0.193125 0
0.28423 0.378629 0
0.279017 0.350766 0
-0.292977 0.351584 0
-0.285923 0.374296 0
-0.758486 0.190378 0
-0.74181 0.254836 0
-0.934629 -0.0432017 0
-0.914616 0.0381138 0
-0.754511 -0.259403 0
-0.738605 -0.192932 0
-0.287746 -0.374051 0
-0.281464 -0.349661 0
0.26788 -0.480934 0
0.259734 -0.516711 0
0.701221 -0.260317 0
0.679234 -0.350831 0
0.865834 0.0590254 0
0.838933 -0.0533219 0
0.699234 0.355536 0
0.677922 0.263549 0
0.265301 0.516148 0
0.257823 0.479334 0
-0.270117 0.479634 0
-0.260845 0.511866 0
-0.702508 0.26008 0
-0.679965 0.348856 0
-0.866808 -0.0583947 0
-0.839502 0.0526886 0
-0.700507 -0.353556 0
-0.678637 -0.263317 0
-0.267525 -0.511298 0
-0.258918 -0.478038 0
0.239865 -0.597308 0
0.229719 -0.641611 0
0.62869 -0.323804 0
0.601441 -0.436538 0
0.777134 0.07267 0
0.743665 -0.06687 0
0.628524 0.441081 0
0.601852 0.32731 0
0.239719 0.640909 0
0.230144 0.596016 0
-0.240725 0.595959 0
-0.229479 0.636883 0
-0.629293 0.323552 0
-0.601453 0.434453 0
-0.777607 -0.0719872 0
-0.743695 0.0661794 0
-0.629112 -0.438996 0
-0.601847 -0.327065 0
-0.240564 -0.636168 0
-0.229886 -0.594665 0
0.206059 -0.698959 0
0.194132 -0.750555 0
0.540796 -0.37945 0
0.50893 -0.511502 0
0.669311 0.0843389 0
0.630082 -0.0789085 0
0.542244 0.515617 0
0.510853 0.382861 0
0.208075 0.749844 0
0.196624 0.697948 0
-0.205564 0.697683 0
-0.192635 0.746263 0
-0.540674 0.379206 0
-0.508237 0.509501 0
-0.669242 -0.0836712 0
-0.629577 0.0782275 0
-0.542106 -0.51362 0
-0.510143 -0.382627 0
-0.207565 -0.745531 0
-0.195109 -0.696666 0
0.167268 -0.783387 0
0.153832 -0.840905 0
0.439681 -0.425862 0
0.403959 -0.573876 0
0.545001 0.0937745 0
0.500962 -0.0891148 0
0.442489 0.577333 0
0.40714 0.428861 0
0.171113 0.840277 0
0.158054 0.782634 0
-0.165534 0.782287 0
-0.151254 0.837307 0
-0.438861 0.425647 0
-0.402639 0.572129 0
-0.544402 -0.0931848 0
-0.499974 0.0885066 0
-0.441655 -0.575592 0
-0.405805 -0.428659 0
-0.169367 -0.83665 0
-0.155462 -0.781525 0
0.124428 -0.848519 0
0.109797 -0.91047 0
0.327815 -0.461873 0
0.289099 -0.622124 0
0.407246 0.100777 0
0.359469 -0.0972123 0
0.331692 0.624732 0
0.293245 0.464202 0
0.129712 0.909988 0
0.115357 0.848001 0
-0.121652 0.847676 0
-0.106385 0.907765 0
-0.326387 0.461704 0
-0.287282 0.620769 0
-0.406179 -0.100318 0
-0.358097 0.0967314 0
-0.330252 -0.623387 0
-0.291415 -0.464049 0
-0.126928 -0.907248 0
-0.111932 -0.847147 0
0.0785785 -0.892752 0
0.0631027 -0.957564 0
0.207936 -0.486572 0
0.167167 -0.655055 0
0.259423 0.105208 0
0.209075 -0.102977 0
0.21256 0.656675 0
0.171953 0.488043 0
0.0848686 0.957268 0
0.0695617 0.892453 0
-0.0750229 0.892227 0
-0.0591526 0.955893 0
-0.20604 0.486462 0
-0.165024 0.654197 0
-0.257993 -0.104921 0
-0.20745 0.102665 0
-0.210657 -0.655828 0
-0.169803 -0.48795 0
-0.0813088 -0.955558 0
-0.0656024 -0.891913 0
0.0308402 -0.915001 0
0.0148948 -0.98105 0
0.0829852 -0.499327 0
0.0411584 -0.671858 0
0.10516 0.106993 0
0.0534738 -0.106243 0
0.088014 0.672404 0
0.0462414 0.499825 0
0.0376686 0.980962 0
0.0217817 0.914908 0
-0.0268126 0.914827 0
-0.0107352 0.980497 0
-0.0807998 0.499284 0
-0.0388886 0.671561 0
-0.103504 -0.106904 0
-0.0517519 0.106126 0
-0.0858262 -0.672119 0
-0.0439691 -0.499799 0
-0.0336414 -0.980369 0
-0.0176172 -0.914719 0
-0.0176172 -0.914719 0
-0.0336414 -0.980369 0
-0.0439691 -0.499799 0
-0.0858262 -0.672119 0
-0.0517519 0.106126 0
-0.103504 -0.106904 0
-0.0388886 0.671561 0
-0.0807998 0.499284 0
-0.0107352 0.980497 0
-0.0268126 0.914827 0
0.0217817 0.914908 0
0.0376686 0.980962 0
0.0462414 0.499825 0
0.088014 0.672404 0
0.0534738 -0.106243 0
0.10516 0.106993 0
0.0411584 -0.671858 0
0.0829852 -0.499327 0
0.0148948 -0.98105 0
0.0308402 -0.915001 0
-0.0656024 -0.891913 0
-0.0813088 -0.955558 0
-0.169803 -0.48795 0
-0.210657 -0.655828 0
-0.20745 0.102665 0
-0.257993 -0.104921 0
-0.165024 0.654197 0
-0.20604 0.486462 0
-0.0591526 0.955893 0
-0.0750229 0.892227 0
0.0695617 0.892453 0
0.0848686 0.957268 0
0.171953 0.488043 0
0.21256 0.656675 0
0.209075 -0.102977 0
0.259423 0.105208 0
0.167167 -0.655055 0
0.207936 -0.486572 0
0.0631027 -0.957564 0
0.0785785 -0.892752 0
-0.111932 -0.847147 0
-0.126928 -0.907248 0
-0.291415 -0.464049 0
-0.330252 -0.623387 0
-0.358097 0.0967314 0
-0.406179 -0.100318 0
-0.287282 0.620769 0
-0.326387 0.461704 0
-0.106385 0.907765 0
-0.121652 0.847676 0
0.115357 0.848001 0
0.129712 0.909988 0
0.293245 0.464202 0
0.331692 0.624732 0
0.359469 -0.0972123 0
0.407246 0.100777 0
0.289099 -0.622124 0
0.327815 -0.461873 0
0.109797 -0.91047 0
0.124428 -0.848519 0
-0.155462 -0.781525 0
-0.169367 -0.83665 0
-0.405805 -0.428659 0
-0.441655 -0.575592 0
-0.499974 0.0885066 0
-0.544402 -0.0931848 0
-0.402639 0.572129 0
-0.438861 0.425647 0
-0.151254 0.837307 0
-0.165534 0.782287 0
0.158054 0.782634 0
0.171113 0.840277 0
0.40714 0.428861 0
0.442489 0.577333 0
0.500962 -0.0891148 0
0.545001 0.0937745 0
0.403959 -0.573876 0
0.439681 -0.425862 0
0.153832 -0.840905 0
0.167268 -0.783387 0
-0.195109 -0.696666 0
-0.207565 -0.745531 0
-0.510143 -0.382627 0
-0.542106 -0.51362 0
-0.629577 0.0782275 0
-0.669242 -0.0836712 0
-0.508237 0.509501 0
-0.540674 0.379206 0
-0.192635 0.746263 0
-0.205564 0.697683 0
0.196624 0.697948 0
0.208075 0.749844 0
0.510853 0.382861 0
0.542244 0.515617 0
0.630082 -0.0789085 0
0.669311 0.0843389 0
0.50893 -0.511502 0
0.540796 -0.37945 0
0.194132 -0.750555 0
0.206059 -0.698959 0
-0.229886 -0.594665 0
-0.240564 -0.636168 0
-0.601847 -0.327065 0
-0.629112 -0.438996 0
-0.743695 0.0661794 0
-0.777607 -0.0719872 0
-0.601453 0.434453 0
-0.629293 0.323552 0
-0.229479 0.636883 0
-0.240725 0.595959 0
0.230144 0.596016 0
0.239719 0.640909 0
0.601852 0.32731 0
0.628524 0.441081 0
0.743665 -0.06687 0
0.777134 0.07267 0
0.601441 -0.436538 0
0.62869 -0.323804 0
0.229719 -0.641611 0
0.239865 -0.597308 0
-0.258918 -0.478038 0
-0.267525 -0.511298 0
-0.678637 -0.263317 0
-0.700507 -0.353556 0
-0.839502 0.0526886 0
-0.866808 -0.0583947 0
-0.679965 0.348856 0
-0.702508 0.26008 0
-0.260845 0.511866 0
-0.270117 0.479634 0
0.257823 0.479334 0
0.265301 0.516148 0
0.677922 0.263549 0
0.699234 0.355536 0
0.838933 -0.0533219 0
0.865834 0.0590254 0
0.679234 -0.350831 0
0.701221 -0.260317 0
0.259734 -0.516711 0
0.26788 -0.480934 0
-0.281464 -0.349661 0
-0.287746 -0.374051 0
-0.738605 -0.192932 0
-0.754511 -0.259403 0
-0.914616 0.0381138 0
-0.934629 -0.0432017 0
-0.74181 0.254836 0
-0.758486 0.190378 0
-0.285923 0.374296 0
-0.292977 0.351584 0
0.279017 0.350766 0
0.28423 0.378629 0
0.73722 0.193125 0
0.75266 0.26107 0
0.913561 -0.0386248 0
0.933246 0.0437144 0
0.740414 -0.256495 0
0.756626 -0.190574 0
0.283464 -0.378875 0
0.289451 -0.352697 0
-0.296936 -0.212698 0
-0.30068 -0.22788 0
-0.78025 -0.117621 0
-0.789771 -0.158845 0
-0.96717 0.0228368 0
-0.979383 -0.0267539 0
-0.785433 0.154726 0
-0.795818 0.116185 0
-0.304054 0.227565 0
-0.308701 0.214973 0
0.293245 0.213468 0
0.29608 0.231734 0
0.778316 0.117749 0
0.787518 0.159993 0
0.965728 -0.0231695 0
0.977727 0.027091 0
0.783494 -0.155861 0
0.793564 -0.116315 0
0.30036 -0.231422 0
0.304099 -0.215753 0
-0.304903 -0.070519 0
-0.305938 -0.0764845 0
-0.802527 -0.0392134 0
-0.805397 -0.0543457 0
-0.995854 0.00725263 0
-0.999956 -0.00942618 0
-0.809731 0.0510022 0
-0.813557 0.039347 0
-0.31475 0.0752874 0
-0.316859 0.0731722 0
0.3002 0.0708108 0
0.300603 0.0790781 0
0.800229 0.0392582 0
0.802979 0.0547833 0
0.994166 -0.00736733 0
0.998194 0.00954554 0
0.807437 -0.051424 0
0.811147 -0.0393944 0
0.310055 -0.0778837 0
0.311535 -0.0734789 0
