# vtk DataFile Version 3.0
tp3485 cell-vector
ASCII
DATASET UNSTRUCTURED_GRID
POINTS 231 double
0 0 0
0.1 0 0
0.2 0 0
0.3 0 0
0.4 0 0
0.5 0 0
0.6 0 0
0.7 0 0
0.8 0 0
0.9 0 0
1 0 0
0 0.025 0
0.1 0.025 0
0.2 0.025 0
0.3 0.025 0
0.4 0.025 0
0.5 0.025 0
0.6 0.025 0
0.7 0.025 0
0.8 0.025 0
0.9 0.025 0
1 0.025 0
0 0.05 0
0.1 0.05 0
0.2 0.05 0
0.3 0.05 0
0.4 0.05 0
0.5 0.05 0
0.6 0.05 0
0.7 0.05 0
0.8 0.05 0
0.9 0.05 0
1 0.05 0
0 0.075 0
0.1 0.075 0
0.2 0.075 0
0.3 0.075 0
0.4 0.075 0
0.5 0.075 0
0.6 0.075 0
0.7 0.075 0
0.8 0.075 0
0.9 0.075 0
1 0.075 0
0 0.1 0
0.1 0.1 0
0.2 0.1 0
0.3 0.1 0
0.4 0.1 0
0.5 0.1 0
0.6 0.1 0
0.7 0.1 0
0.8 0.1 0
0.9 0.1 0
1 0.1 0
0 0.125 0
0.1 0.125 0
0.2 0.125 0
0.3 0.125 0
0.4 0.125 0
0.5 0.125 0
0.6 0.125 0
0.7 0.125 0
0.8 0.125 0
0.9 0.125 0
1 0.125 0
0 0.15 0
0.1 0.15 0
0.2 0.15 0
0.3 0.15 0
0.4 0.15 0
0.5 0.15 0
0.6 0.15 0
0.7 0.15 0
0.8 0.15 0
0.9 0.15 0
1 0.15 0
0 0.175 0
0.1 0.175 0
0.2 0.175 0
0.3 0.175 0
0.4 0.175 0
0.5 0.175 0
0.6 0.175 0
0.7 0.175 0
0.8 0.175 0
0.9 0.175 0
1 0.175 0
0 0.2 0
0.1 0.2 0
0.2 0.2 0
0.3 0.2 0
0.4 0.2 0
0.5 0.2 0
0.6 0.2 0
0.7 0.2 0
0.8 0.2 0
0.9 0.2 0
1 0.2 0
0 0.225 0
0.1 0.225 0
0.2 0.225 0
0.3 0.225 0
0.4 0.225 0
0.5 0.225 0
0.6 0.225 0
0.7 0.225 0
0.8 0.225 0
0.9 0.225 0
1 0.225 0
0 0.25 0
0.1 0.25 0
0.2 0.25 0
0.3 0.25 0
0.4 0.25 0
0.5 0.25 0
0.6 0.25 0
0.7 0.25 0
0.8 0.25 0
0.9 0.25 0
1 0.25 0
0 0.275 0
0.1 0.275 0
0.2 0.275 0
0.3 0.275 0
0.4 0.275 0
0.5 0.275 0
0.6 0.275 0
0.7 0.275 0
0.8 0.275 0
0.9 0.275 0
1 0.275 0
0 0.3 0
0.1 0.3 0
0.2 0.3 0
0.3 0.3 0
0.4 0.3 0
0.5 0.3 0
0.6 0.3 0
0.7 0.3 0
0.8 0.3 0
0.9 0.3 0
1 0.3 0
0 0.325 0
0.1 0.325 0
0.2 0.325 0
0.3 0.325 0
0.4 0.325 0
0.5 0.325 0
0.6 0.325 0
0.7 0.325 0
0.8 0.325 0
0.9 0.325 0
1 0.325 0
0 0.35 0
0.1 0.35 0
0.2 0.35 0
0.3 0.35 0
0.4 0.35 0
0.5 0.35 0
0.6 0.35 0
0.7 0.35 0
0.8 0.35 0
0.9 0.35 0
1 0.35 0
0 0.375 0
0.1 0.375 0
0.2 0.375 0
0.3 0.375 0
0.4 0.375 0
0.5 0.375 0
0.6 0.375 0
0.7 0.375 0
0.8 0.375 0
0.9 0.375 0
1 0.375 0
0 0.4 0
0.1 0.4 0
0.2 0.4 0
0.3 0.4 0
0.4 0.4 0
0.5 0.4 0
0.6 0.4 0
0.7 0.4 0
0.8 0.4 0
0.9 0.4 0
1 0.4 0
0 0.425 0
0.1 0.425 0
0.2 0.425 0
0.3 0.425 0
0.4 0.425 0
0.5 0.425 0
0.6 0.425 0
0.7 0.425 0
0.8 0.425 0
0.9 0.425 0
1 0.425 0
0 0.45 0
0.1 0.45 0
0.2 0.45 0
0.3 0.45 0
0.4 0.45 0
0.5 0.45 0
0.6 0.45 0
0.7 0.45 0
0.8 0.45 0
0.9 0.45 0
1 0.45 0
0 0.475 0
0.1 0.475 0
0.2 0.475 0
0.3 0.475 0
0.4 0.475 0
0.5 0.475 0
0.6 0.475 0
0.7 0.475 0
0.8 0.475 0
0.9 0.475 0
1 0.475 0
0 0.5 0
0.1 0.5 0
0.2 0.5 0
0.3 0.5 0
0.4 0.5 0
0.5 0.5 0
0.6 0.5 0
0.7 0.5 0
0.8 0.5 0
0.9 0.5 0
1 0.5 0
CELLS 400 1600
3 0 1 12
3 0 12 11
3 1 2 13
3 1 13 12
3 2 3 14
3 2 14 13
3 3 4 15
3 3 15 14
3 4 5 16
3 4 16 15
3 5 6 17
3 5 17 16
3 6 7 18
3 6 18 17
3 7 8 19
3 7 19 18
3 8 9 20
3 8 20 19
3 9 10 21
3 9 21 20
3 11 12 23
3 11 23 22
3 12 13 24
3 12 24 23
3 13 14 25
3 13 25 24
3 14 15 26
3 14 26 25
3 15 16 27
3 15 27 26
3 16 17 28
3 16 28 27
3 17 18 29
3 17 29 28
3 18 19 30
3 18 30 29
3 19 20 31
3 19 31 30
3 20 21 32
3 20 32 31
3 22 23 34
3 22 34 33
3 23 24 35
3 23 35 34
3 24 25 36
3 24 36 35
3 25 26 37
3 25 37 36
3 26 27 38
3 26 38 37
3 27 28 39
3 27 39 38
3 28 29 40
3 28 40 39
3 29 30 41
3 29 41 40
3 30 31 42
3 30 42 41
3 31 32 43
3 31 43 42
3 33 34 45
3 33 45 44
3 34 35 46
3 34 46 45
3 35 36 47
3 35 47 46
3 36 37 48
3 36 48 47
3 37 38 49
3 37 49 48
3 38 39 50
3 38 50 49
3 39 40 51
3 39 51 50
3 40 41 52
3 40 52 51
3 41 42 53
3 41 53 52
3 42 43 54
3 42 54 53
3 44 45 56
3 44 56 55
3 45 46 57
3 45 57 56
3 46 47 58
3 46 58 57
3 47 48 59
3 47 59 58
3 48 49 60
3 48 60 59
3 49 50 61
3 49 61 60
3 50 51 62
3 50 62 61
3 51 52 63
3 51 63 62
3 52 53 64
3 52 64 63
3 53 54 65
3 53 65 64
3 55 56 67
3 55 67 66
3 56 57 68
3 56 68 67
3 57 58 69
3 57 69 68
3 58 59 70
3 58 70 69
3 59 60 71
3 59 71 70
3 60 61 72
3 60 72 71
3 61 62 73
3 61 73 72
3 62 63 74
3 62 74 73
3 63 64 75
3 63 75 74
3 64 65 76
3 64 76 75
3 66 67 78
3 66 78 77
3 67 68 79
3 67 79 78
3 68 69 80
3 68 80 79
3 69 70 81
3 69 81 80
3 70 71 82
3 70 82 81
3 71 72 83
3 71 83 82
3 72 73 84
3 72 84 83
3 73 74 85
3 73 85 84
3 74 75 86
3 74 86 85
3 75 76 87
3 75 87 86
3 77 78 89
3 77 89 88
3 78 79 90
3 78 90 89
3 79 80 91
3 79 91 90
3 80 81 92
3 80 92 91
3 81 82 93
3 81 93 92
3 82 83 94
3 82 94 93
3 83 84 95
3 83 95 94
3 84 85 96
3 84 96 95
3 85 86 97
3 85 97 96
3 86 87 98
3 86 98 97
3 88 89 100
3 88 100 99
3 89 90 101
3 89 101 100
3 90 91 102
3 90 102 101
3 91 92 103
3 91 103 102
3 92 93 104
3 92 104 103
3 93 94 105
3 93 105 104
3 94 95 106
3 94 106 105
3 95 96 107
3 95 107 106
3 96 97 108
3 96 108 107
3 97 98 109
3 97 109 108
3 99 100 111
3 99 111 110
3 100 101 112
3 100 112 111
3 101 102 113
3 101 113 112
3 102 103 114
3 102 114 113
3 103 104 115
3 103 115 114
3 104 105 116
3 104 116 115
3 105 106 117
3 105 117 116
3 106 107 118
3 106 118 117
3 107 108 119
3 107 119 118
3 108 109 120
3 108 120 119
3 110 111 122
3 110 122 121
3 111 112 123
3 111 123 122
3 112 113 124
3 112 124 123
3 113 114 125
3 113 125 124
3 114 115 126
3 114 126 125
3 115 116 127
3 115 127 126
3 116 117 128
3 116 128 127
3 117 118 129
3 117 129 128
3 118 119 130
3 118 130 129
3 119 120 131
3 119 131 130
3 121 122 133
3 121 133 132
3 122 123 134
3 122 134 133
3 123 124 135
3 123 135 134
3 124 125 136
3 124 136 135
3 125 126 137
3 125 137 136
3 126 127 138
3 126 138 137
3 127 128 139
3 127 139 138
3 128 129 140
3 128 140 139
3 129 130 141
3 129 141 140
3 130 131 142
3 130 142 141
3 132 133 144
3 132 144 143
3 133 134 145
3 133 145 144
3 134 135 146
3 134 146 145
3 135 136 147
3 135 147 146
3 136 137 148
3 136 148 147
3 137 138 149
3 137 149 148
3 138 139 150
3 138 150 149
3 139 140 151
3 139 151 150
3 140 141 152
3 140 152 151
3 141 142 153
3 141 153 152
3 143 144 155
3 143 155 154
3 144 145 156
3 144 156 155
3 145 146 157
3 145 157 156
3 146 147 158
3 146 158 157
3 147 148 159
3 147 159 158
3 148 149 160
3 148 160 159
3 149 150 161
3 149 161 160
3 150 151 162
3 150 162 161
3 151 152 163
3 151 163 162
3 152 153 164
3 152 164 163
3 154 155 166
3 154 166 165
3 155 156 167
3 155 167 166
3 156 157 168
3 156 168 167
3 157 158 169
3 157 169 168
3 158 159 170
3 158 170 169
3 159 160 171
3 159 171 170
3 160 161 172
3 160 172 171
3 161 162 173
3 161 173 172
3 162 163 174
3 162 174 173
3 163 164 175
3 163 175 174
3 165 166 177
3 165 177 176
3 166 167 178
3 166 178 177
3 167 168 179
3 167 179 178
3 168 169 180
3 168 180 179
3 169 170 181
3 169 181 180
3 170 171 182
3 170 182 181
3 171 172 183
3 171 183 182
3 172 173 184
3 172 184 183
3 173 174 185
3 173 185 184
3 174 175 186
3 174 186 185
3 176 177 188
3 176 188 187
3 177 178 189
3 177 189 188
3 178 179 190
3 178 190 189
3 179 180 191
3 179 191 190
3 180 181 192
3 180 192 191
3 181 182 193
3 181 193 192
3 182 183 194
3 182 194 193
3 183 184 195
3 183 195 194
3 184 185 196
3 184 196 195
3 185 186 197
3 185 197 196
3 187 188 199
3 187 199 198
3 188 189 200
3 188 200 199
3 189 190 201
3 189 201 200
3 190 191 202
3 190 202 201
3 191 192 203
3 191 203 202
3 192 193 204
3 192 204 203
3 193 194 205
3 193 205 204
3 194 195 206
3 194 206 205
3 195 196 207
3 195 207 206
3 196 197 208
3 196 208 207
3 198 199 210
3 198 210 209
3 199 200 211
3 199 211 210
3 200 201 212
3 200 212 211
3 201 202 213
3 201 213 212
3 202 203 214
3 202 214 213
3 203 204 215
3 203 215 214
3 204 205 216
3 204 216 215
3 205 206 217
3 205 217 216
3 206 207 218
3 206 218 217
3 207 208 219
3 207 219 218
3 209 210 221
3 209 221 220
3 210 211 222
3 210 222 221
3 211 212 223
3 211 223 222
3 212 213 224
3 212 224 223
3 213 214 225
3 213 225 224
3 214 215 226
3 214 226 225
3 215 216 227
3 215 227 226
3 216 217 228
3 216 228 227
3 217 218 229
3 217 229 228
3 218 219 230
3 218 230 229
CELL_TYPES 400
5
5
5
5
5
5
5
5
5
5
5
5
5
5
5
5
5
5
5
5
5
5
5
5
5
5
5
5
5
5
5
5
5
5
5
5
5
5
5
5
5
5
5
5
5
5
5
5
5
5
5
5
5
5
5
5
5
5
5
5
5
5
5
5
5
5
5
5
5
5
5
5
5
5
5
5
5
5
5
5
5
5
5
5
5
5
5
5
5
5
5
5
5
5
5
5
5
5
5
5
5
5
5
5
5
5
5
5
5
5
5
5
5
5
5
5
5
5
5
5
5
5
5
5
5
5
5
5
5
5
5
5
5
5
5
5
5
5
5
5
5
5
5
5
5
5
5
5
5
5
5
5
5
5
5
5
5
5
5
5
5
5
5
5
5
5
5
5
5
5
5
5
5
5
5
5
5
5
5
5
5
5
5
5
5
5
5
5
5
5
5
5
5
5
5
5
5
5
5
5
5
5
5
5
5
5
5
5
5
5
5
5
5
5
5
5
5
5
5
5
5
5
5
5
5
5
5
5
5
5
5
5
5
5
5
5
5
5
5
5
5
5
5
5
5
5
5
5
5
5
5
5
5
5
5
5
5
5
5
5
5
5
5
5
5
5
5
5
5
5
5
5
5
5
5
5
5
5
5
5
5
5
5
5
5
5
5
5
5
5
5
5
5
5
5
5
5
5
5
5
5
5
5
5
5
5
5
5
5
5
5
5
5
5
5
5
5
5
5
5
5
5
5
5
5
5
5
5
5
5
5
5
5
5
5
5
5
5
5
5
5
5
5
5
5
5
5
5
5
5
5
5
5
5
5
5
5
5
5
5
5
5
5
5
5
5
5
5
5
5
5
5
5
5
5
5
5
5
5
5
5
5
5
5
5
5
5
5
5
5
5
5
5
5
5
5
5
5
5
5
CELL_DATA 400
VECTORS Et double
-0.0327765 0.0332477 0
-0.123664 0.132846 0
-0.028932 0.19646 0
-0.110768 0.286215 0
-0.0222008 0.338211 0
-0.0872411 0.410879 0
-0.0132931 0.443973 0
-0.055232 0.492785 0
-0.0031362 0.50417 0
-0.0177933 0.523699 0
0.00724389 0.514691 0
0.0214584 0.501761 0
0.0168379 0.476437 0
0.0586869 0.431054 0
0.024749 0.394302 0
0.0902086 0.320273 0
0.0302598 0.276085 0
0.112858 0.181019 0
0.0328731 0.131493 0
0.124255 0.0262521 0
-0.188986 0.0322685 0
-0.277556 0.129054 0
-0.169583 0.191588 0
-0.249417 0.27912 0
-0.133671 0.329898 0
-0.197153 0.400891 0
-0.084707 0.433027 0
-0.125678 0.480855 0
-0.0275154 0.49166 0
-0.0418889 0.510988 0
0.0322799 0.501841 0
0.046067 0.48951 0
0.088832 0.464505 0
0.129585 0.420459 0
0.13664 0.384462 0
0.200444 0.312373 0
0.171058 0.269331 0
0.251609 0.176592 0
0.188647 0.128774 0
0.277858 0.0257596 0
-0.340479 0.030532 0
-0.424557 0.122106 0
-0.306091 0.182158 0
-0.381943 0.265225 0
-0.241908 0.313662 0
-0.302265 0.38121 0
-0.154107 0.411564 0
-0.193106 0.457273 0
-0.0512956 0.467068 0
-0.0650401 0.485801 0
0.0564421 0.476525 0
0.0694539 0.465178 0
0.158566 0.440947 0
0.197216 0.399364 0
0.245108 0.364978 0
0.30569 0.296581 0
0.30761 0.255873 0
0.384146 0.167659 0
0.339839 0.122864 0
0.424679 0.0245976 0
-0.483541 0.0280993 0
-0.561059 0.112172 0
-0.435088 0.168411 0
-0.505079 0.244891 0
-0.344243 0.289908 0
-0.399982 0.352326 0
-0.219781 0.380117 0
-0.255849 0.422621 0
-0.0738874 0.431 0
-0.0866718 0.448758 0
0.0791394 0.439368 0
0.0910481 0.429365 0
0.224326 0.406339 0
0.25992 0.368285 0
0.347485 0.336324 0
0.403359 0.273279 0
0.436563 0.236024 0
0.507209 0.15443 0
0.482712 0.113908 0
0.561088 0.022776 0
-0.614662 0.0250444 0
-0.68371 0.099499 0
-0.553393 0.150694 0
-0.615789 0.218633 0
-0.438149 0.259228 0
-0.487893 0.314958 0
-0.280105 0.339463 0
-0.312356 0.377757 0
-0.0947286 0.384348 0
-0.106245 0.400773 0
0.0998189 0.391282 0
0.110325 0.382951 0
0.284499 0.361532 0
0.316158 0.327982 0
0.441256 0.299197 0
0.491052 0.243037 0
0.554743 0.210258 0
0.617772 0.137222 0
0.613734 0.102125 0
0.683717 0.0203252 0
-0.730624 0.0214535 0
-0.789498 0.0843986 0
-0.65809 0.129451 0
-0.711344 0.18711 0
-0.52131 0.222382 0
-0.563828 0.270032 0
-0.333587 0.290608 0
-0.361228 0.323788 0
-0.113298 0.328261 0
-0.123268 0.343029 0
0.117979 0.333452 0
0.126818 0.327076 0
0.33761 0.307625 0
0.364553 0.279446 0
0.524118 0.254506 0
0.566615 0.206594 0
0.659245 0.179197 0
0.713114 0.116452 0
0.729669 0.0878046 0
0.789538 0.0172944 0
-0.828578 0.0174234 0
-0.875824 0.0672435 0
-0.746597 0.105212 0
-0.789389 0.151106 0
-0.59167 0.180281 0
-0.625909 0.21866 0
-0.378903 0.234757 0
-0.401253 0.262046 0
-0.12913 0.264121 0
-0.137313 0.276947 0
0.133181 0.267302 0
0.140131 0.263117 0
0.38236 0.245943 0
0.403924 0.223868 0
0.594038 0.203344 0
0.628195 0.164841 0
0.747499 0.143597 0
0.79089 0.0926232 0
0.827653 0.0712987 0
0.87594 0.0137495 0
-0.90612 0.0130595 0
-0.940567 0.0484563 0
-0.816733 0.0785784 0
-0.848001 0.111515 0
-0.64749 0.133968 0
-0.672602 0.162113 0
-0.414926 0.173287 0
-0.431436 0.194055 0
-0.141824 0.193509 0
-0.148022 0.204156 0
0.145063 0.194458 0
0.149948 0.192646 0
0.417656 0.178002 0
0.43331 0.162615 0
0.649299 0.146968 0
0.674282 0.118804 0
0.817332 0.104329 0
0.849187 0.0663176 0
0.905268 0.0530134 0
0.94079 0.00977138 0
-0.961344 0.00847387 0
-0.982137 0.0284998 0
-0.866769 0.0502113 0
-0.885732 0.0693154 0
-0.687388 0.0845845 0
-0.702749 0.101785 0
-0.44076 0.107716 0
-0.451022 0.12149 0
-0.151056 0.118165 0
-0.15512 0.126448 0
0.153341 0.116716 0
0.156038 0.117399 0
0.442639 0.105474 0
0.451998 0.0971923 0
0.68855 0.086761 0
0.703748 0.0696117 0
0.867029 0.0623539 0
0.886572 0.0381784 0
0.960597 0.0333989 0
0.982486 0.00545331 0
-0.992895 0.00378222 0
-0.999515 0.00786571 0
-0.89547 0.0208116 0
-0.901653 0.0255495 0
-0.710375 0.0333495 0
-0.7156 0.0391653 0
-0.455758 0.0396574 0
-0.459519 0.0461385 0
-0.156586 0.0399436 0
-0.15842 0.0457376 0
0.157826 0.0359877 0
0.158264 0.0392274 0
0.456705 0.030142 0
0.459538 0.0292105 0
0.71083 0.0242035 0
0.715876 0.0184746 0
0.895368 0.0187034 0
0.902126 0.00889549 0
0.992274 0.012938 0
1 0.000898563 0
-1 -0.000898563 0
-0.992274 -0.012938 0
-0.902126 -0.00889549 0
-0.895368 -0.0187034 0
-0.715876 -0.0184746 0
-0.71083 -0.0242035 0
-0.459538 -0.0292105 0
-0.456705 -0.030142 0
-0.158264 -0.0392274 0
-0.157826 -0.0359877 0
0.15842 -0.0457376 0
0.156586 -0.0399436 0
0.459519 -0.0461385 0
0.455758 -0.0396574 0
0.7156 -0.0391653 0
0.710375 -0.0333495 0
0.901653 -0.0255495 0
0.89547 -0.0208116 0
0.999515 -0.00786571 0
0.992895 -0.00378222 0
-0.982486 -0.00545331 0
-0.960597 -0.0333989 0
-0.886572 -0.0381784 0
-0.867029 -0.0623539 0
-0.703748 -0.0696117 0
-0.68855 -0.086761 0
-0.451998 -0.0971923 0
-0.442639 -0.105474 0
-0.156038 -0.117399 0
-0.153341 -0.116716 0
0.15512 -0.126448 0
0.151056 -0.118165 0
0.451022 -0.12149 0
0.44076 -0.107716 0
0.702749 -0.101785 0
0.687388 -0.0845845 0
0.885732 -0.0693154 0
0.866769 -0.0502113 0
0.982137 -0.0284998 0
0.961344 -0.00847387 0
-0.94079 -0.00977138 0
-0.905268 -0.0530134 0
-0.849187 -0.0663176 0
-0.817332 -0.104329 0
-0.674282 -0.118804 0
-0.649299 -0.146968 0
-0.43331 -0.162615 0
-0.417656 -0.178002 0
-0.149948 -0.192646 0
-0.145063 -0.194458 0
0.148022 -0.204156 0
0.141824 -0.193509 0
0.431436 -0.194055 0
0.414926 -0.173287 0
0.672602 -0.162113 0
0.64749 -0.133968 0
0.848001 -0.111515 0
0.816733 -0.0785784 0
0.940567 -0.0484563 0
0.90612 -0.0130595 0
-0.87594 -0.0137495 0
-0.827653 -0.0712987 0
-0.79089 -0.0926232 0
-0.747499 -0.143597 0
-0.628195 -0.164841 0
-0.594038 -0.203344 0
-0.403924 -0.223868 0
-0.38236 -0.245943 0
-0.140131 -0.263117 0
-0.133181 -0.267302 0
0.137313 -0.276947 0
0.12913 -0.264121 0
0.401253 -0.262046 0
0.378903 -0.234757 0
0.625909 -0.21866 0
0.59167 -0.180281 0
0.789389 -0.151106 0
0.746597 -0.105212 0
0.875824 -0.0672435 0
0.828578 -0.0174234 0
-0.789538 -0.0172944 0
-0.729669 -0.0878046 0
-0.713114 -0.116452 0
-0.659245 -0.179197 0
-0.566615 -0.206594 0
-0.524118 -0.254506 0
-0.364553 -0.279446 0
-0.33761 -0.307625 0
-0.126818 -0.327076 0
-0.117979 -0.333452 0
0.123268 -0.343029 0
0.113298 -0.328261 0
0.361228 -0.323788 0
0.333587 -0.290608 0
0.563828 -0.270032 0
0.52131 -0.222382 0
0.711344 -0.18711 0
0.65809 -0.129451 0
0.789498 -0.0843986 0
0.730624 -0.0214535 0
-0.683717 -0.0203252 0
-0.613734 -0.102125 0
-0.617772 -0.137222 0
-0.554743 -0.210258 0
-0.491052 -0.243037 0
-0.441256 -0.299197 0
-0.316158 -0.327982 0
-0.284499 -0.361532 0
-0.110325 -0.382951 0
-0.0998189 -0.391282 0
0.106245 -0.400773 0
0.0947286 -0.384348 0
0.312356 -0.377757 0
0.280105 -0.339463 0
0.487893 -0.314958 0
0.438149 -0.259228 0
0.615789 -0.218633 0
0.553393 -0.150694 0
0.68371 -0.099499 0
0.614662 -0.0250444 0
-0.561088 -0.022776 0
-0.482712 -0.113908 0
-0.507209 -0.15443 0
-0.436563 -0.236024 0
-0.403359 -0.273279 0
-0.347485 -0.336324 0
-0.25992 -0.368285 0
-0.224326 -0.406339 0
-0.0910481 -0.429365 0
-0.0791394 -0.439368 0
0.0866718 -0.448758 0
0.0738874 -0.431 0
0.255849 -0.422621 0
0.219781 -0.380117 0
0.399982 -0.352326 0
0.344243 -0.289908 0
0.505079 -0.244891 0
0.435088 -0.168411 0
0.561059 -0.112172 0
0.483541 -0.0280993 0
-0.424679 -0.0245976 0
-0.339839 -0.122864 0
-0.384146 -0.167659 0
-0.30761 -0.255873 0
-0.30569 -0.296581 0
-0.245108 -0.364978 0
-0.197216 -0.399364 0
-0.158566 -0.440947 0
-0.0694539 -0.465178 0
-0.0564421 -0.476525 0
0.0650401 -0.485801 0
0.0512956 -0.467068 0
0.193106 -0.457273 0
0.154107 -0.411564 0
0.302265 -0.38121 0
0.241908 -0.313662 0
0.381943 -0.265225 0
0.306091 -0.182158 0
0.424557 -0.122106 0
0.340479 -0.030532 0
-0.277858 -0.0257596 0
-0.188647 -0.128774 0
-0.251609 -0.176592 0
-0.171058 -0.269331 0
-0.200444 -0.312373 0
-0.13664 -0.384462 0
-0.129585 -0.420459 0
-0.088832 -0.464505 0
-0.046067 -0.48951 0
-0.0322799 -0.501841 0
0.0418889 -0.510988 0
0.0275154 -0.49166 0
0.125678 -0.480855 0
0.084707 -0.433027 0
0.197153 -0.400891 0
0.133671 -0.329898 0
0.249417 -0.27912 0
0.169583 -0.191588 0
0.277556 -0.129054 0
0.188986 -0.0322685 0
-0.124255 -0.0262521 0
-0.0328731 -0.131493 0
-0.112858 -0.181019 0
-0.0302598 -0.276085 0
-0.0902086 -0.320273 0
-0.024749 -0.394302 0
-0.0586869 -0.431054 0
-0.0168379 -0.476437 0
-0.0214584 -0.501761 0
-0.00724389 -0.514691 0
0.0177933 -0.523699 0
0.0031362 -0.50417 0
0.055232 -0.492785 0
0.0132931 -0.443973 0
0.0872411 -0.410879 0
0.0222008 -0.338211 0
0.110768 -0.286215 0
0.028932 -0.19646 0
0.123664 -0.132846 0
0.0327765 -0.0332477 0
