# vtk DataFile Version 3.0
tp3485 cell-vector
ASCII
DATASET UNSTRUCTURED_GRID
POINTS 231 double
0 0 0
0.1 0 0
0.2 0 0
0.3 0 0
0.4 0 0
0.5 0 0
0.6 0 0
0.7 0 0
0.8 0 0
0.9 0 0
1 0 0
0 0.025 0
0.1 0.025 0
0.2 0.025 0
0.3 0.025 0
0.4 0.025 0
0.5 0.025 0
0.6 0.025 0
0.7 0.025 0
0.8 0.025 0
0.9 0.025 0
1 0.025 0
0 0.05 0
0.1 0.05 0
0.2 0.05 0
0.3 0.05 0
0.4 0.05 0
0.5 0.05 0
0.6 0.05 0
0.7 0.05 0
0.8 0.05 0
0.9 0.05 0
1 0.05 0
0 0.075 0
0.1 0.075 0
0.2 0.075 0
0.3 0.075 0
0.4 0.075 0
0.5 0.075 0
0.6 0.075 0
0.7 0.075 0
0.8 0.075 0
0.9 0.075 0
1 0.075 0
0 0.1 0
0.1 0.1 0
0.2 0.1 0
0.3 0.1 0
0.4 0.1 0
0.5 0.1 0
0.6 0.1 0
0.7 0.1 0
0.8 0.1 0
0.9 0.1 0
1 0.1 0
0 0.125 0
0.1 0.125 0
0.2 0.125 0
0.3 0.125 0
0.4 0.125 0
0.5 0.125 0
0.6 0.125 0
0.7 0.125 0
0.8 0.125 0
0.9 0.125 0
1 0.125 0
0 0.15 0
0.1 0.15 0
0.2 0.15 0
0.3 0.15 0
0.4 0.15 0
0.5 0.15 0
0.6 0.15 0
0.7 0.15 0
0.8 0.15 0
0.9 0.15 0
1 0.15 0
0 0.175 0
0.1 0.175 0
0.2 0.175 0
0.3 0.175 0
0.4 0.175 0
0.5 0.175 0
0.6 0.175 0
0.7 0.175 0
0.8 0.175 0
0.9 0.175 0
1 0.175 0
0 0.2 0
0.1 0.2 0
0.2 0.2 0
0.3 0.2 0
0.4 0.2 0
0.5 0.2 0
0.6 0.2 0
0.7 0.2 0
0.8 0.2 0
0.9 0.2 0
1 0.2 0
0 0.225 0
0.1 0.225 0
0.2 0.225 0
0.3 0.225 0
0.4 0.225 0
0.5 0.225 0
0.6 0.225 0
0.7 0.225 0
0.8 0.225 0
0.9 0.225 0
1 0.225 0
0 0.25 0
0.1 0.25 0
0.2 0.25 0
0.3 0.25 0
0.4 0.25 0
0.5 0.25 0
0.6 0.25 0
0.7 0.25 0
0.8 0.25 0
0.9 0.25 0
1 0.25 0
0 0.275 0
0.1 0.275 0
0.2 0.275 0
0.3 0.275 0
0.4 0.275 0
0.5 0.275 0
0.6 0.275 0
0.7 0.275 0
0.8 0.275 0
0.9 0.275 0
1 0.275 0
0 0.3 0
0.1 0.3 0
0.2 0.3 0
0.3 0.3 0
0.4 0.3 0
0.5 0.3 0
0.6 0.3 0
0.7 0.3 0
0.8 0.3 0
0.9 0.3 0
1 0.3 0
0 0.325 0
0.1 0.325 0
0.2 0.325 0
0.3 0.325 0
0.4 0.325 0
0.5 0.325 0
0.6 0.325 0
0.7 0.325 0
0.8 0.325 0
0.9 0.325 0
1 0.325 0
0 0.35 0
0.1 0.35 0
0.2 0.35 0
0.3 0.35 0
0.4 0.35 0
0.5 0.35 0
0.6 0.35 0
0.7 0.35 0
0.8 0.35 0
0.9 0.35 0
1 0.35 0
0 0.375 0
0.1 0.375 0
0.2 0.375 0
0.3 0.375 0
0.4 0.375 0
0.5 0.375 0
0.6 0.375 0
0.7 0.375 0
0.8 0.375 0
0.9 0.375 0
1 0.375 0
0 0.4 0
0.1 0.4 0
0.2 0.4 0
0.3 0.4 0
0.4 0.4 0
0.5 0.4 0
0.6 0.4 0
0.7 0.4 0
0.8 0.4 0
0.9 0.4 0
1 0.4 0
0 0.425 0
0.1 0.425 0
0.2 0.425 0
0.3 0.425 0
0.4 0.425 0
0.5 0.425 0
0.6 0.425 0
0.7 0.425 0
0.8 0.425 0
0.9 0.425 0
1 0.425 0
0 0.45 0
0.1 0.45 0
0.2 0.45 0
0.3 0.45 0
0.4 0.45 0
0.5 0.45 0
0.6 0.45 0
0.7 0.45 0
0.8 0.45 0
0.9 0.45 0
1 0.45 0
0 0.475 0
0.1 0.475 0
0.2 0.475 0
0.3 0.475 0
0.4 0.475 0
0.5 0.475 0
0.6 0.475 0
0.7 0.475 0
0.8 0.475 0
0.9 0.475 0
1 0.475 0
0 0.5 0
0.1 0.5 0
0.2 0.5 0
0.3 0.5 0
0.4 0.5 0
0.5 0.5 0
0.6 0.5 0
0.7 0.5 0
0.8 0.5 0
0.9 0.5 0
1 0.5 0
CELLS 400 1600
3 0 1 12
3 0 12 11
3 1 2 13
3 1 13 12
3 2 3 14
3 2 14 13
3 3 4 15
3 3 15 14
3 4 5 16
3 4 16 15
3 5 6 17
3 5 17 16
3 6 7 18
3 6 18 17
3 7 8 19
3 7 19 18
3 8 9 20
3 8 20 19
3 9 10 21
3 9 21 20
3 11 12 23
3 11 23 22
3 12 13 24
3 12 24 23
3 13 14 25
3 13 25 24
3 14 15 26
3 14 26 25
3 15 16 27
3 15 27 26
3 16 17 28
3 16 28 27
3 17 18 29
3 17 29 28
3 18 19 30
3 18 30 29
3 19 20 31
3 19 31 30
3 20 21 32
3 20 32 31
3 22 23 34
3 22 34 33
3 23 24 35
3 23 35 34
3 24 25 36
3 24 36 35
3 25 26 37
3 25 37 36
3 26 27 38
3 26 38 37
3 27 28 39
3 27 39 38
3 28 29 40
3 28 40 39
3 29 30 41
3 29 41 40
3 30 31 42
3 30 42 41
3 31 32 43
3 31 43 42
3 33 34 45
3 33 45 44
3 34 35 46
3 34 46 45
3 35 36 47
3 35 47 46
3 36 37 48
3 36 48 47
3 37 38 49
3 37 49 48
3 38 39 50
3 38 50 49
3 39 40 51
3 39 51 50
3 40 41 52
3 40 52 51
3 41 42 53
3 41 53 52
3 42 43 54
3 42 54 53
3 44 45 56
3 44 56 55
3 45 46 57
3 45 57 56
3 46 47 58
3 46 58 57
3 47 48 59
3 47 59 58
3 48 49 60
3 48 60 59
3 49 50 61
3 49 61 60
3 50 51 62
3 50 62 61
3 51 52 63
3 51 63 62
3 52 53 64
3 52 64 63
3 53 54 65
3 53 65 64
3 55 56 67
3 55 67 66
3 56 57 68
3 56 68 67
3 57 58 69
3 57 69 68
3 58 59 70
3 58 70 69
3 59 60 71
3 59 71 70
3 60 61 72
3 60 72 71
3 61 62 73
3 61 73 72
3 62 63 74
3 62 74 73
3 63 64 75
3 63 75 74
3 64 65 76
3 64 76 75
3 66 67 78
3 66 78 77
3 67 68 79
3 67 79 78
3 68 69 80
3 68 80 79
3 69 70 81
3 69 81 80
3 70 71 82
3 70 82 81
3 71 72 83
3 71 83 82
3 72 73 84
3 72 84 83
3 73 74 85
3 73 85 84
3 74 75 86
3 74 86 85
3 75 76 87
3 75 87 86
3 77 78 89
3 77 89 88
3 78 79 90
3 78 90 89
3 79 80 91
3 79 91 90
3 80 81 92
3 80 92 91
3 81 82 93
3 81 93 92
3 82 83 94
3 82 94 93
3 83 84 95
3 83 95 94
3 84 85 96
3 84 96 95
3 85 86 97
3 85 97 96
3 86 87 98
3 86 98 97
3 88 89 100
3 88 100 99
3 89 90 101
3 89 101 100
3 90 91 102
3 90 102 101
3 91 92 103
3 91 103 102
3 92 93 104
3 92 104 103
3 93 94 105
3 93 105 104
3 94 95 106
3 94 106 105
3 95 96 107
3 95 107 106
3 96 97 108
3 96 108 107
3 97 98 109
3 97 109 108
3 99 100 111
3 99 111 110
3 100 101 112
3 100 112 111
3 101 102 113
3 101 113 112
3 102 103 114
3 102 114 113
3 103 104 115
3 103 115 114
3 104 105 116
3 104 116 115
3 105 106 117
3 105 117 116
3 106 107 118
3 106 118 117
3 107 108 119
3 107 119 118
3 108 109 120
3 108 120 119
3 110 111 122
3 110 122 121
3 111 112 123
3 111 123 122
3 112 113 124
3 112 124 123
3 113 114 125
3 113 125 124
3 114 115 126
3 114 126 125
3 115 116 127
3 115 127 126
3 116 117 128
3 116 128 127
3 117 118 129
3 117 129 128
3 118 119 130
3 118 130 129
3 119 120 131
3 119 131 130
3 121 122 133
3 121 133 132
3 122 123 134
3 122 134 133
3 123 124 135
3 123 135 134
3 124 125 136
3 124 136 135
3 125 126 137
3 125 137 136
3 126 127 138
3 126 138 137
3 127 128 139
3 127 139 138
3 128 129 140
3 128 140 139
3 129 130 141
3 129 141 140
3 130 131 142
3 130 142 141
3 132 133 144
3 132 144 143
3 133 134 145
3 133 145 144
3 134 135 146
3 134 146 145
3 135 136 147
3 135 147 146
3 136 137 148
3 136 148 147
3 137 138 149
3 137 149 148
3 138 139 150
3 138 150 149
3 139 140 151
3 139 151 150
3 140 141 152
3 140 152 151
3 141 142 153
3 141 153 152
3 143 144 155
3 143 155 154
3 144 145 156
3 144 156 155
3 145 146 157
3 145 157 156
3 146 147 158
3 146 158 157
3 147 148 159
3 147 159 158
3 148 149 160
3 148 160 159
3 149 150 161
3 149 161 160
3 150 151 162
3 150 162 161
3 151 152 163
3 151 163 162
3 152 153 164
3 152 164 163
3 154 155 166
3 154 166 165
3 155 156 167
3 155 167 166
3 156 157 168
3 156 168 167
3 157 158 169
3 157 169 168
3 158 159 170
3 158 170 169
3 159 160 171
3 159 171 170
3 160 161 172
3 160 172 171
3 161 162 173
3 161 173 172
3 162 163 174
3 162 174 173
3 163 164 175
3 163 175 174
3 165 166 177
3 165 177 176
3 166 167 178
3 166 178 177
3 167 168 179
3 167 179 178
3 168 169 180
3 168 180 179
3 169 170 181
3 169 181 180
3 170 171 182
3 170 182 181
3 171 172 183
3 171 183 182
3 172 173 184
3 172 184 183
3 173 174 185
3 173 185 184
3 174 175 186
3 174 186 185
3 176 177 188
3 176 188 187
3 177 178 189
3 177 189 188
3 178 179 190
3 178 190 189
3 179 180 191
3 179 191 190
3 180 181 192
3 180 192 191
3 181 182 193
3 181 193 192
3 182 183 194
3 182 194 193
3 183 184 195
3 183 195 194
3 184 185 196
3 184 196 195
3 185 186 197
3 185 197 196
3 187 188 199
3 187 199 198
3 188 189 200
3 188 200 199
3 189 190 201
3 189 201 200
3 190 191 202
3 190 202 201
3 191 192 203
3 191 203 202
3 192 193 204
3 192 204 203
3 193 194 205
3 193 205 204
3 194 195 206
3 194 206 205
3 195 196 207
3 195 207 206
3 196 197 208
3 196 208 207
3 198 199 210
3 198 210 209
3 199 200 211
3 199 211 210
3 200 201 212
3 200 212 211
3 201 202 213
3 201 213 212
3 202 203 214
3 202 214 213
3 203 204 215
3 203 215 214
3 204 205 216
3 204 216 215
3 205 206 217
3 205 217 216
3 206 207 218
3 206 218 217
3 207 208 219
3 207 219 218
3 209 210 221
3 209 221 220
3 210 211 222
3 210 222 221
3 211 212 223
3 211 223 222
3 212 213 224
3 212 224 223
3 213 214 225
3 213 225 224
3 214 215 226
3 214 226 225
3 215 216 227
3 215 227 226
3 216 217 228
3 216 228 227
3 217 218 229
3 217 229 228
3 218 219 230
3 218 230 229
CELL_TYPES 400
5
5
5
5
5
5
5
5
5
5
5
5
5
5
5
5
5
5
5
5
5
5
5
5
5
5
5
5
5
5
5
5
5
5
5
5
5
5
5
5
5
5
5
5
5
5
5
5
5
5
5
5
5
5
5
5
5
5
5
5
5
5
5
5
5
5
5
5
5
5
5
5
5
5
5
5
5
5
5
5
5
5
5
5
5
5
5
5
5
5
5
5
5
5
5
5
5
5
5
5
5
5
5
5
5
5
5
5
5
5
5
5
5
5
5
5
5
5
5
5
5
5
5
5
5
5
5
5
5
5
5
5
5
5
5
5
5
5
5
5
5
5
5
5
5
5
5
5
5
5
5
5
5
5
5
5
5
5
5
5
5
5
5
5
5
5
5
5
5
5
5
5
5
5
5
5
5
5
5
5
5
5
5
5
5
5
5
5
5
5
5
5
5
5
5
5
5
5
5
5
5
5
5
5
5
5
5
5
5
5
5
5
5
5
5
5
5
5
5
5
5
5
5
5
5
5
5
5
5
5
5
5
5
5
5
5
5
5
5
5
5
5
5
5
5
5
5
5
5
5
5
5
5
5
5
5
5
5
5
5
5
5
5
5
5
5
5
5
5
5
5
5
5
5
5
5
5
5
5
5
5
5
5
5
5
5
5
5
5
5
5
5
5
5
5
5
5
5
5
5
5
5
5
5
5
5
5
5
5
5
5
5
5
5
5
5
5
5
5
5
5
5
5
5
5
5
5
5
5
5
5
5
5
5
5
5
5
5
5
5
5
5
5
5
5
5
5
5
5
5
5
5
5
5
5
5
5
5
5
5
5
5
5
5
5
5
5
5
5
5
5
5
5
5
5
5
5
5
5
5
5
5
5
5
5
5
5
5
5
5
5
5
5
5
5
5
5
5
5
5
CELL_DATA 400
VECTORS Et double
0.0128352 -0.259589 0
-0.0131277 -0.0521981 0
0.0113634 -0.545814 0
-0.012024 -0.35887 0
0.00877861 -0.778549 0
-0.00976959 -0.630255 0
0.00533418 -0.935045 0
-0.00656884 -0.83988 0
0.00136738 -0.999999 0
-0.00273084 -0.967259 0
-0.00273346 -0.967067 0
0.00137017 -0.999942 0
-0.00656693 -0.839487 0
0.00533274 -0.934743 0
-0.00975785 -0.629764 0
0.00876753 -0.778058 0
-0.011994 -0.35846 0
0.0113341 -0.545241 0
-0.0130569 -0.0522274 0
0.0127648 -0.259113 0
0.0127573 -0.259546 0
-0.0131944 -0.0521989 0
0.0113249 -0.545773 0
-0.0120614 -0.35883 0
0.0087564 -0.778517 0
-0.00979218 -0.630217 0
0.00532003 -0.935026 0
-0.0065839 -0.839853 0
0.00135665 -0.999996 0
-0.00274269 -0.967246 0
-0.0027442 -0.96708 0
0.0013583 -0.999945 0
-0.00658113 -0.839514 0
0.00531764 -0.934762 0
-0.00978012 -0.629801 0
0.00874487 -0.778089 0
-0.0120325 -0.3585 0
0.0112965 -0.545282 0
-0.0131348 -0.0522267 0
0.012698 -0.259155 0
0.012691 -0.259511 0
-0.0132512 -0.0522 0
0.0112882 -0.545735 0
-0.0120961 -0.358798 0
0.00873487 -0.778487 0
-0.00981355 -0.630183 0
0.00530626 -0.935009 0
-0.00659823 -0.839827 0
0.00134622 -0.999993 0
-0.00275399 -0.967234 0
-0.00275465 -0.967092 0
0.00134699 -0.999948 0
-0.00659493 -0.839539 0
0.00530328 -0.934779 0
-0.00980172 -0.629835 0
0.00872345 -0.778119 0
-0.0120693 -0.358533 0
0.0112618 -0.545319 0
-0.013201 -0.0522257 0
0.0126413 -0.25919 0
0.0126349 -0.259482 0
-0.0132989 -0.0522013 0
0.0112544 -0.545701 0
-0.0121272 -0.358771 0
0.00871461 -0.778459 0
-0.00983316 -0.630153 0
0.00529326 -0.934992 0
-0.00661149 -0.839804 0
0.00133637 -0.99999 0
-0.00276448 -0.967223 0
-0.00276451 -0.967104 0
0.00133649 -0.999951 0
-0.00660797 -0.839562 0
0.00528999 -0.934796 0
-0.00982202 -0.629865 0
0.0087038 -0.778148 0
-0.0121032 -0.35856 0
0.0112307 -0.545353 0
-0.0132572 -0.0522245 0
0.0125935 -0.25922 0
0.0125878 -0.259456 0
-0.0133384 -0.0522028 0
0.0112242 -0.54567 0
-0.0121542 -0.358749 0
0.00869615 -0.778432 0
-0.00985056 -0.630126 0
0.00528136 -0.934976 0
-0.00662336 -0.839783 0
0.00132734 -0.999987 0
-0.00277392 -0.967212 0
-0.00277355 -0.967114 0
0.00132705 -0.999954 0
-0.0066199 -0.839584 0
0.00527809 -0.934812 0
-0.00984052 -0.629892 0
0.00868637 -0.778174 0
-0.0121334 -0.358582 0
0.0112037 -0.545385 0
-0.0133042 -0.0522231 0
0.012554 -0.259246 0
0.0125491 -0.259433 0
-0.0133702 -0.0522044 0
0.0111982 -0.545641 0
-0.0121767 -0.35873 0
0.00867994 -0.778407 0
-0.00986538 -0.630101 0
0.00527086 -0.93496 0
-0.00663359 -0.839762 0
0.00131939 -0.999984 0
-0.00278208 -0.967202 0
-0.00278151 -0.967124 0
0.00131887 -0.999957 0
-0.00663043 -0.839604 0
0.00526784 -0.934828 0
-0.00985676 -0.629917 0
0.00867152 -0.7782 0
-0.0121595 -0.358601 0
0.0111811 -0.545414 0
-0.013343 -0.0522215 0
0.0125222 -0.259268 0
0.0125182 -0.259413 0
-0.0133947 -0.0522062 0
0.0111766 -0.545614 0
-0.0121946 -0.358713 0
0.00866634 -0.778383 0
-0.00987734 -0.630079 0
0.00526203 -0.934945 0
-0.00664194 -0.839744 0
0.00131273 -0.999981 0
-0.00278881 -0.967193 0
-0.00278818 -0.967133 0
0.00131214 -0.99996 0
-0.00663927 -0.839623 0
0.00525947 -0.934843 0
-0.00987039 -0.629939 0
0.00865953 -0.778224 0
-0.012181 -0.358617 0
0.0111632 -0.545441 0
-0.0133739 -0.0522197 0
0.0124976 -0.259289 0
0.0124946 -0.259394 0
-0.0134122 -0.0522081 0
0.0111598 -0.545588 0
-0.0122076 -0.358698 0
0.00865562 -0.77836 0
-0.00988623 -0.630058 0
0.0052551 -0.93493 0
-0.00664824 -0.839726 0
0.00130752 -0.999978 0
-0.00279393 -0.967184 0
-0.00279339 -0.967142 0
0.00130701 -0.999963 0
-0.00664622 -0.839641 0
0.00525315 -0.934858 0
-0.00988113 -0.62996 0
0.00865062 -0.778247 0
-0.0121978 -0.358632 0
0.0111502 -0.545466 0
-0.0133975 -0.0522179 0
0.0124801 -0.259307 0
0.0124781 -0.259376 0
-0.0134228 -0.05221 0
0.0111479 -0.545563 0
-0.0122157 -0.358685 0
0.00864801 -0.778337 0
-0.00989187 -0.630038 0
0.00525023 -0.934915 0
-0.00665236 -0.839708 0
0.00130393 -0.999975 0
-0.00279736 -0.967176 0
-0.002797 -0.967151 0
0.00130358 -0.999966 0
-0.0066511 -0.839658 0
0.00524902 -0.934873 0
-0.00988876 -0.62998 0
0.00864496 -0.77827 0
-0.0122098 -0.358646 0
0.0111421 -0.545491 0
-0.0134141 -0.052216 0
0.0124695 -0.259325 0
0.0124685 -0.259359 0
-0.0134266 -0.052212 0
0.0111409 -0.545539 0
-0.0122187 -0.358672 0
0.00864365 -0.778315 0
-0.00989419 -0.630019 0
0.00524756 -0.934901 0
-0.00665422 -0.839692 0
0.00130203 -0.999972 0
-0.00279902 -0.967167 0
-0.00279889 -0.967159 0
0.00130191 -0.999969 0
-0.0066538 -0.839675 0
0.00524715 -0.934887 0
-0.00989314 -0.63 0
0.00864262 -0.778292 0
-0.0122168 -0.358659 0
0.011139 -0.545515 0
-0.0134238 -0.052214 0
0.0124656 -0.259342 0
0.0124656 -0.259342 0
-0.0134238 -0.052214 0
0.011139 -0.545515 0
-0.0122168 -0.358659 0
0.00864262 -0.778292 0
-0.00989314 -0.63 0
0.00524715 -0.934887 0
-0.0066538 -0.839675 0
0.00130191 -0.999969 0
-0.00279889 -0.967159 0
-0.00279902 -0.967167 0
0.00130203 -0.999972 0
-0.00665422 -0.839692 0
0.00524756 -0.934901 0
-0.00989419 -0.630019 0
0.00864365 -0.778315 0
-0.0122187 -0.358672 0
0.0111409 -0.545539 0
-0.0134266 -0.052212 0
0.0124685 -0.259359 0
0.0124695 -0.259325 0
-0.0134141 -0.052216 0
0.0111421 -0.545491 0
-0.0122098 -0.358646 0
0.00864496 -0.77827 0
-0.00988876 -0.62998 0
0.00524902 -0.934873 0
-0.0066511 -0.839658 0
0.00130358 -0.999966 0
-0.002797 -0.967151 0
-0.00279736 -0.967176 0
0.00130393 -0.999975 0
-0.00665236 -0.839708 0
0.00525023 -0.934915 0
-0.00989187 -0.630038 0
0.00864801 -0.778337 0
-0.0122157 -0.358685 0
0.0111479 -0.545563 0
-0.0134228 -0.05221 0
0.0124781 -0.259376 0
0.0124801 -0.259307 0
-0.0133975 -0.0522179 0
0.0111502 -0.545466 0
-0.0121978 -0.358632 0
0.00865062 -0.778247 0
-0.00988113 -0.62996 0
0.00525315 -0.934858 0
-0.00664622 -0.839641 0
0.00130701 -0.999963 0
-0.00279339 -0.967142 0
-0.00279393 -0.967184 0
0.00130752 -0.999978 0
-0.00664824 -0.839726 0
0.0052551 -0.93493 0
-0.00988623 -0.630058 0
0.00865562 -0.77836 0
-0.0122076 -0.358698 0
0.0111598 -0.545588 0
-0.0134122 -0.0522081 0
0.0124946 -0.259394 0
0.0124976 -0.259289 0
-0.0133739 -0.0522197 0
0.0111632 -0.545441 0
-0.012181 -0.358617 0
0.00865953 -0.778224 0
-0.00987039 -0.629939 0
0.00525947 -0.934843 0
-0.00663927 -0.839623 0
0.00131214 -0.99996 0
-0.00278818 -0.967133 0
-0.00278881 -0.967193 0
0.00131273 -0.999981 0
-0.00664194 -0.839744 0
0.00526203 -0.934945 0
-0.00987734 -0.630079 0
0.00866634 -0.778383 0
-0.0121946 -0.358713 0
0.0111766 -0.545614 0
-0.0133947 -0.0522062 0
0.0125182 -0.259413 0
0.0125222 -0.259268 0
-0.013343 -0.0522215 0
0.0111811 -0.545414 0
-0.0121595 -0.358601 0
0.00867152 -0.7782 0
-0.00985676 -0.629917 0
0.00526784 -0.934828 0
-0.00663043 -0.839604 0
0.00131887 -0.999957 0
-0.00278151 -0.967124 0
-0.00278208 -0.967202 0
0.00131939 -0.999984 0
-0.00663359 -0.839762 0
0.00527086 -0.93496 0
-0.00986538 -0.630101 0
0.00867994 -0.778407 0
-0.0121767 -0.35873 0
0.0111982 -0.545641 0
-0.0133702 -0.0522044 0
0.0125491 -0.259433 0
0.012554 -0.259246 0
-0.0133042 -0.0522231 0
0.0112037 -0.545385 0
-0.0121334 -0.358582 0
0.00868637 -0.778174 0
-0.00984052 -0.629892 0
0.00527809 -0.934812 0
-0.0066199 -0.839584 0
0.00132705 -0.999954 0
-0.00277355 -0.967114 0
-0.00277392 -0.967212 0
0.00132734 -0.999987 0
-0.00662336 -0.839783 0
0.00528136 -0.934976 0
-0.00985056 -0.630126 0
0.00869615 -0.778432 0
-0.0121542 -0.358749 0
0.0112242 -0.54567 0
-0.0133384 -0.0522028 0
0.0125878 -0.259456 0
0.0125935 -0.25922 0
-0.0132572 -0.0522245 0
0.0112307 -0.545353 0
-0.0121032 -0.35856 0
0.0087038 -0.778148 0
-0.00982202 -0.629865 0
0.00528999 -0.934796 0
-0.00660797 -0.839562 0
0.00133649 -0.999951 0
-0.00276451 -0.967104 0
-0.00276448 -0.967223 0
0.00133637 -0.99999 0
-0.00661149 -0.839804 0
0.00529326 -0.934992 0
-0.00983316 -0.630153 0
0.00871461 -0.778459 0
-0.0121272 -0.358771 0
0.0112544 -0.545701 0
-0.0132989 -0.0522013 0
0.0126349 -0.259482 0
0.0126413 -0.25919 0
-0.013201 -0.0522257 0
0.0112618 -0.545319 0
-0.0120693 -0.358533 0
0.00872345 -0.778119 0
-0.00980172 -0.629835 0
0.00530328 -0.934779 0
-0.00659493 -0.839539 0
0.00134699 -0.999948 0
-0.00275465 -0.967092 0
-0.00275399 -0.967234 0
0.00134622 -0.999993 0
-0.00659823 -0.839827 0
0.00530626 -0.935009 0
-0.00981355 -0.630183 0
0.00873487 -0.778487 0
-0.0120961 -0.358798 0
0.0112882 -0.545735 0
-0.0132512 -0.0522 0
0.012691 -0.259511 0
0.012698 -0.259155 0
-0.0131348 -0.0522267 0
0.0112965 -0.545282 0
-0.0120325 -0.3585 0
0.00874487 -0.778089 0
-0.00978012 -0.629801 0
0.00531764 -0.934762 0
-0.00658113 -0.839514 0
0.0013583 -0.999945 0
-0.0027442 -0.96708 0
-0.00274269 -0.967246 0
0.00135665 -0.999996 0
-0.0065839 -0.839853 0
0.00532003 -0.935026 0
-0.00979218 -0.630217 0
0.0087564 -0.778517 0
-0.0120614 -0.35883 0
0.0113249 -0.545773 0
-0.0131944 -0.0521989 0
0.0127573 -0.259546 0
0.0127648 -0.259113 0
-0.0130569 -0.0522274 0
0.0113341 -0.545241 0
-0.011994 -0.35846 0
0.00876753 -0.778058 0
-0.00975785 -0.629764 0
0.00533274 -0.934743 0
-0.00656693 -0.839487 0
0.00137017 -0.999942 0
-0.00273346 -0.967067 0
-0.00273084 -0.967259 0
0.00136738 -0.999999 0
-0.00656884 -0.83988 0
0.00533418 -0.935045 0
-0.00976959 -0.630255 0
0.00877861 -0.778549 0
-0.012024 -0.35887 0
0.0113634 -0.545814 0
-0.0131277 -0.0521981 0
0.0128352 -0.259589 0
