# vtk DataFile Version 3.0
tp3485 cell-vector
ASCII
DATASET UNSTRUCTURED_GRID
POINTS 231 double
0 0 0
0.1 0 0
0.2 0 0
0.3 0 0
0.4 0 0
0.5 0 0
0.6 0 0
0.7 0 0
0.8 0 0
0.9 0 0
1 0 0
0 0.025 0
0.1 0.025 0
0.2 0.025 0
0.3 0.025 0
0.4 0.025 0
0.5 0.025 0
0.6 0.025 0
0.7 0.025 0
0.8 0.025 0
0.9 0.025 0
1 0.025 0
0 0.05 0
0.1 0.05 0
0.2 0.05 0
0.3 0.05 0
0.4 0.05 0
0.5 0.05 0
0.6 0.05 0
0.7 0.05 0
0.8 0.05 0
0.9 0.05 0
1 0.05 0
0 0.075 0
0.1 0.075 0
0.2 0.075 0
0.3 0.075 0
0.4 0.075 0
0.5 0.075 0
0.6 0.075 0
0.7 0.075 0
0.8 0.075 0
0.9 0.075 0
1 0.075 0
0 0.1 0
0.1 0.1 0
0.2 0.1 0
0.3 0.1 0
0.4 0.1 0
0.5 0.1 0
0.6 0.1 0
0.7 0.1 0
0.8 0.1 0
0.9 0.1 0
1 0.1 0
0 0.125 0
0.1 0.125 0
0.2 0.125 0
0.3 0.125 0
0.4 0.125 0
0.5 0.125 0
0.6 0.125 0
0.7 0.125 0
0.8 0.125 0
0.9 0.125 0
1 0.125 0
0 0.15 0
0.1 0.15 0
0.2 0.15 0
0.3 0.15 0
0.4 0.15 0
0.5 0.15 0
0.6 0.15 0
0.7 0.15 0
0.8 0.15 0
0.9 0.15 0
1 0.15 0
0 0.175 0
0.1 0.175 0
0.2 0.175 0
0.3 0.175 0
0.4 0.175 0
0.5 0.175 0
0.6 0.175 0
0.7 0.175 0
0.8 0.175 0
0.9 0.175 0
1 0.175 0
0 0.2 0
0.1 0.2 0
0.2 0.2 0
0.3 0.2 0
0.4 0.2 0
0.5 0.2 0
0.6 0.2 0
0.7 0.2 0
0.8 0.2 0
0.9 0.2 0
1 0.2 0
0 0.225 0
0.1 0.225 0
0.2 0.225 0
0.3 0.225 0
0.4 0.225 0
0.5 0.225 0
0.6 0.225 0
0.7 0.225 0
0.8 0.225 0
0.9 0.225 0
1 0.225 0
0 0.25 0
0.1 0.25 0
0.2 0.25 0
0.3 0.25 0
0.4 0.25 0
0.5 0.25 0
0.6 0.25 0
0.7 0.25 0
0.8 0.25 0
0.9 0.25 0
1 0.25 0
0 0.275 0
0.1 0.275 0
0.2 0.275 0
0.3 0.275 0
0.4 0.275 0
0.5 0.275 0
0.6 0.275 0
0.7 0.275 0
0.8 0.275 0
0.9 0.275 0
1 0.275 0
0 0.3 0
0.1 0.3 0
0.2 0.3 0
0.3 0.3 0
0.4 0.3 0
0.5 0.3 0
0.6 0.3 0
0.7 0.3 0
0.8 0.3 0
0.9 0.3 0
1 0.3 0
0 0.325 0
0.1 0.325 0
0.2 0.325 0
0.3 0.325 0
0.4 0.325 0
0.5 0.325 0
0.6 0.325 0
0.7 0.325 0
0.8 0.325 0
0.9 0.325 0
1 0.325 0
0 0.35 0
0.1 0.35 0
0.2 0.35 0
0.3 0.35 0
0.4 0.35 0
0.5 0.35 0
0.6 0.35 0
0.7 0.35 0
0.8 0.35 0
0.9 0.35 0
1 0.35 0
0 0.375 0
0.1 0.375 0
0.2 0.375 0
0.3 0.375 0
0.4 0.375 0
0.5 0.375 0
0.6 0.375 0
0.7 0.375 0
0.8 0.375 0
0.9 0.375 0
1 0.375 0
0 0.4 0
0.1 0.4 0
0.2 0.4 0
0.3 0.4 0
0.4 0.4 0
0.5 0.4 0
0.6 0.4 0
0.7 0.4 0
0.8 0.4 0
0.9 0.4 0
1 0.4 0
0 0.425 0
0.1 0.425 0
0.2 0.425 0
0.3 0.425 0
0.4 0.425 0
0.5 0.425 0
0.6 0.425 0
0.7 0.425 0
0.8 0.425 0
0.9 0.425 0
1 0.425 0
0 0.45 0
0.1 0.45 0
0.2 0.45 0
0.3 0.45 0
0.4 0.45 0
0.5 0.45 0
0.6 0.45 0
0.7 0.45 0
0.8 0.45 0
0.9 0.45 0
1 0.45 0
0 0.475 0
0.1 0.475 0
0.2 0.475 0
0.3 0.475 0
0.4 0.475 0
0.5 0.475 0
0.6 0.475 0
0.7 0.475 0
0.8 0.475 0
0.9 0.475 0
1 0.475 0
0 0.5 0
0.1 0.5 0
0.2 0.5 0
0.3 0.5 0
0.4 0.5 0
0.5 0.5 0
0.6 0.5 0
0.7 0.5 0
0.8 0.5 0
0.9 0.5 0
1 0.5 0
CELLS 400 1600
3 0 1 12
3 0 12 11
3 1 2 13
3 1 13 12
3 2 3 14
3 2 14 13
3 3 4 15
3 3 15 14
3 4 5 16
3 4 16 15
3 5 6 17
3 5 17 16
3 6 7 18
3 6 18 17
3 7 8 19
3 7 19 18
3 8 9 20
3 8 20 19
3 9 10 21
3 9 21 20
3 11 12 23
3 11 23 22
3 12 13 24
3 12 24 23
3 13 14 25
3 13 25 24
3 14 15 26
3 14 26 25
3 15 16 27
3 15 27 26
3 16 17 28
3 16 28 27
3 17 18 29
3 17 29 28
3 18 19 30
3 18 30 29
3 19 20 31
3 19 31 30
3 20 21 32
3 20 32 31
3 22 23 34
3 22 34 33
3 23 24 35
3 23 35 34
3 24 25 36
3 24 36 35
3 25 26 37
3 25 37 36
3 26 27 38
3 26 38 37
3 27 28 39
3 27 39 38
3 28 29 40
3 28 40 39
3 29 30 41
3 29 41 40
3 30 31 42
3 30 42 41
3 31 32 43
3 31 43 42
3 33 34 45
3 33 45 44
3 34 35 46
3 34 46 45
3 35 36 47
3 35 47 46
3 36 37 48
3 36 48 47
3 37 38 49
3 37 49 48
3 38 39 50
3 38 50 49
3 39 40 51
3 39 51 50
3 40 41 52
3 40 52 51
3 41 42 53
3 41 53 52
3 42 43 54
3 42 54 53
3 44 45 56
3 44 56 55
3 45 46 57
3 45 57 56
3 46 47 58
3 46 58 57
3 47 48 59
3 47 59 58
3 48 49 60
3 48 60 59
3 49 50 61
3 49 61 60
3 50 51 62
3 50 62 61
3 51 52 63
3 51 63 62
3 52 53 64
3 52 64 63
3 53 54 65
3 53 65 64
3 55 56 67
3 55 67 66
3 56 57 68
3 56 68 67
3 57 58 69
3 57 69 68
3 58 59 70
3 58 70 69
3 59 60 71
3 59 71 70
3 60 61 72
3 60 72 71
3 61 62 73
3 61 73 72
3 62 63 74
3 62 74 73
3 63 64 75
3 63 75 74
3 64 65 76
3 64 76 75
3 66 67 78
3 66 78 77
3 67 68 79
3 67 79 78
3 68 69 80
3 68 80 79
3 69 70 81
3 69 81 80
3 70 71 82
3 70 82 81
3 71 72 83
3 71 83 82
3 72 73 84
3 72 84 83
3 73 74 85
3 73 85 84
3 74 75 86
3 74 86 85
3 75 76 87
3 75 87 86
3 77 78 89
3 77 89 88
3 78 79 90
3 78 90 89
3 79 80 91
3 79 91 90
3 80 81 92
3 80 92 91
3 81 82 93
3 81 93 92
3 82 83 94
3 82 94 93
3 83 84 95
3 83 95 94
3 84 85 96
3 84 96 95
3 85 86 97
3 85 97 96
3 86 87 98
3 86 98 97
3 88 89 100
3 88 100 99
3 89 90 101
3 89 101 100
3 90 91 102
3 90 102 101
3 91 92 103
3 91 103 102
3 92 93 104
3 92 104 103
3 93 94 105
3 93 105 104
3 94 95 106
3 94 106 105
3 95 96 107
3 95 107 106
3 96 97 108
3 96 108 107
3 97 98 109
3 97 109 108
3 99 100 111
3 99 111 110
3 100 101 112
3 100 112 111
3 101 102 113
3 101 113 112
3 102 103 114
3 102 114 113
3 103 104 115
3 103 115 114
3 104 105 116
3 104 116 115
3 105 106 117
3 105 117 116
3 106 107 118
3 106 118 117
3 107 108 119
3 107 119 118
3 108 109 120
3 108 120 119
3 110 111 122
3 110 122 121
3 111 112 123
3 111 123 122
3 112 113 124
3 112 124 123
3 113 114 125
3 113 125 124
3 114 115 126
3 114 126 125
3 115 116 127
3 115 127 126
3 116 117 128
3 116 128 127
3 117 118 129
3 117 129 128
3 118 119 130
3 118 130 129
3 119 120 131
3 119 131 130
3 121 122 133
3 121 133 132
3 122 123 134
3 122 134 133
3 123 124 135
3 123 135 134
3 124 125 136
3 124 136 135
3 125 126 137
3 125 137 136
3 126 127 138
3 126 138 137
3 127 128 139
3 127 139 138
3 128 129 140
3 128 140 139
3 129 130 141
3 129 141 140
3 130 131 142
3 130 142 141
3 132 133 144
3 132 144 143
3 133 134 145
3 133 145 144
3 134 135 146
3 134 146 145
3 135 136 147
3 135 147 146
3 136 137 148
3 136 148 147
3 137 138 149
3 137 149 148
3 138 139 150
3 138 150 149
3 139 140 151
3 139 151 150
3 140 141 152
3 140 152 151
3 141 142 153
3 141 153 152
3 143 144 155
3 143 155 154
3 144 145 156
3 144 156 155
3 145 146 157
3 145 157 156
3 146 147 158
3 146 158 157
3 147 148 159
3 147 159 158
3 148 149 160
3 148 160 159
3 149 150 161
3 149 161 160
3 150 151 162
3 150 162 161
3 151 152 163
3 151 163 162
3 152 153 164
3 152 164 163
3 154 155 166
3 154 166 165
3 155 156 167
3 155 167 166
3 156 157 168
3 156 168 167
3 157 158 169
3 157 169 168
3 158 159 170
3 158 170 169
3 159 160 171
3 159 171 170
3 160 161 172
3 160 172 171
3 161 162 173
3 161 173 172
3 162 163 174
3 162 174 173
3 163 164 175
3 163 175 174
3 165 166 177
3 165 177 176
3 166 167 178
3 166 178 177
3 167 168 179
3 167 179 178
3 168 169 180
3 168 180 179
3 169 170 181
3 169 181 180
3 170 171 182
3 170 182 181
3 171 172 183
3 171 183 182
3 172 173 184
3 172 184 183
3 173 174 185
3 173 185 184
3 174 175 186
3 174 186 185
3 176 177 188
3 176 188 187
3 177 178 189
3 177 189 188
3 178 179 190
3 178 190 189
3 179 180 191
3 179 191 190
3 180 181 192
3 180 192 191
3 181 182 193
3 181 193 192
3 182 183 194
3 182 194 193
3 183 184 195
3 183 195 194
3 184 185 196
3 184 196 195
3 185 186 197
3 185 197 196
3 187 188 199
3 187 199 198
3 188 189 200
3 188 200 199
3 189 190 201
3 189 201 200
3 190 191 202
3 190 202 201
3 191 192 203
3 191 203 202
3 192 193 204
3 192 204 203
3 193 194 205
3 193 205 204
3 194 195 206
3 194 206 205
3 195 196 207
3 195 207 206
3 196 197 208
3 196 208 207
3 198 199 210
3 198 210 209
3 199 200 211
3 199 211 210
3 200 201 212
3 200 212 211
3 201 202 213
3 201 213 212
3 202 203 214
3 202 214 213
3 203 204 215
3 203 215 214
3 204 205 216
3 204 216 215
3 205 206 217
3 205 217 216
3 206 207 218
3 206 218 217
3 207 208 219
3 207 219 218
3 209 210 221
3 209 221 220
3 210 211 222
3 210 222 221
3 211 212 223
3 211 223 222
3 212 213 224
3 212 224 223
3 213 214 225
3 213 225 224
3 214 215 226
3 214 226 225
3 215 216 227
3 215 227 226
3 216 217 228
3 216 228 227
3 217 218 229
3 217 229 228
3 218 219 230
3 218 230 229
CELL_TYPES 400
5
5
5
5
5
5
5
5
5
5
5
5
5
5
5
5
5
5
5
5
5
5
5
5
5
5
5
5
5
5
5
5
5
5
5
5
5
5
5
5
5
5
5
5
5
5
5
5
5
5
5
5
5
5
5
5
5
5
5
5
5
5
5
5
5
5
5
5
5
5
5
5
5
5
5
5
5
5
5
5
5
5
5
5
5
5
5
5
5
5
5
5
5
5
5
5
5
5
5
5
5
5
5
5
5
5
5
5
5
5
5
5
5
5
5
5
5
5
5
5
5
5
5
5
5
5
5
5
5
5
5
5
5
5
5
5
5
5
5
5
5
5
5
5
5
5
5
5
5
5
5
5
5
5
5
5
5
5
5
5
5
5
5
5
5
5
5
5
5
5
5
5
5
5
5
5
5
5
5
5
5
5
5
5
5
5
5
5
5
5
5
5
5
5
5
5
5
5
5
5
5
5
5
5
5
5
5
5
5
5
5
5
5
5
5
5
5
5
5
5
5
5
5
5
5
5
5
5
5
5
5
5
5
5
5
5
5
5
5
5
5
5
5
5
5
5
5
5
5
5
5
5
5
5
5
5
5
5
5
5
5
5
5
5
5
5
5
5
5
5
5
5
5
5
5
5
5
5
5
5
5
5
5
5
5
5
5
5
5
5
5
5
5
5
5
5
5
5
5
5
5
5
5
5
5
5
5
5
5
5
5
5
5
5
5
5
5
5
5
5
5
5
5
5
5
5
5
5
5
5
5
5
5
5
5
5
5
5
5
5
5
5
5
5
5
5
5
5
5
5
5
5
5
5
5
5
5
5
5
5
5
5
5
5
5
5
5
5
5
5
5
5
5
5
5
5
5
5
5
5
5
5
5
5
5
5
5
5
5
5
5
5
5
5
5
5
5
5
5
5
CELL_DATA 400
VECTORS Ht double
0.470554 -0.113079 0
0.459317 -0.117638 0
0.999988 -0.00490399 0
0.977358 -0.0192793 0
0.680076 0.10614 0
0.667746 0.084882 0
-0.209525 0.127669 0
-0.200939 0.11626 0
-0.919936 0.0437087 0
-0.897252 0.0499334 0
-0.866301 -0.0747332 0
-0.848072 -0.0571175 0
-0.104326 -0.131258 0
-0.105696 -0.11576 0
0.738003 -0.0817928 0
0.717816 -0.0793242 0
0.981888 0.0321837 0
0.958934 0.0208214 0
0.44084 0.11021 0
0.431076 0.103078 0
0.431287 -0.318739 0
0.401012 -0.34029 0
0.92522 -0.0217565 0
0.860369 -0.0666133 0
0.635848 0.290493 0
0.593755 0.25148 0
-0.185886 0.357622 0
-0.169277 0.354512 0
-0.847984 0.129204 0
-0.785556 0.159583 0
-0.805438 -0.201299 0
-0.748289 -0.165545 0
-0.104538 -0.364844 0
-0.100167 -0.350013 0
0.676749 -0.233735 0
0.623836 -0.246938 0
0.908886 0.0825173 0
0.840958 0.0544496 0
0.411932 0.320962 0
0.381161 0.308948 0
0.351884 -0.494183 0
0.305092 -0.528514 0
0.761731 -0.0381945 0
0.66073 -0.108469 0
0.529261 0.445657 0
0.461171 0.392689 0
-0.145617 0.553114 0
-0.123026 0.558826 0
-0.693874 0.203444 0
-0.598001 0.255225 0
-0.664667 -0.306655 0
-0.573993 -0.256403 0
-0.0929651 -0.562056 0
-0.082847 -0.549613 0
0.549169 -0.36356 0
0.46908 -0.391261 0
0.744943 0.123792 0
0.63896 0.0810513 0
0.340675 0.501421 0
0.292328 0.483689 0
0.23971 -0.622381 0
0.180635 -0.664714 0
0.525107 -0.0521207 0
0.397561 -0.140531 0
0.370058 0.556976 0
0.282301 0.495267 0
-0.0933874 0.69493 0
-0.0674088 0.709417 0
-0.472996 0.258537 0
-0.353244 0.327055 0
-0.457446 -0.380895 0
-0.341945 -0.321385 0
-0.0699884 -0.703317 0
-0.0547198 -0.695025 0
0.368463 -0.457968 0
0.26939 -0.497594 0
0.506516 0.152157 0
0.373138 0.0984756 0
0.234409 0.633105 0
0.173553 0.610009 0
0.105367 -0.69085 0
0.0395322 -0.736215 0
0.238027 -0.0615755 0
0.0961864 -0.159458 0
0.173205 0.614155 0
0.074115 0.549742 0
-0.0348762 0.769069 0
-0.00835794 0.791686 0
-0.207209 0.288334 0
-0.0754531 0.367458 0
-0.203835 -0.417305 0
-0.0746772 -0.354851 0
-0.0372739 -0.774609 0
-0.01804 -0.772061 0
0.152972 -0.507136 0
0.0448889 -0.55489 0
0.217439 0.165017 0
0.0699644 0.105589 0
0.103886 0.702465 0
0.0367362 0.675434 0
-0.0383325 -0.692878 0
-0.10466 -0.736515 0
-0.0718803 -0.0649722 0
-0.21427 -0.163207 0
-0.0424879 0.612229 0
-0.143346 0.551309 0
0.0238522 0.76813 0
0.0481217 0.797646 0
0.0773325 0.289092 0
0.208083 0.371801 0
0.0714338 -0.412977 0
0.201692 -0.354327 0
0.00231746 -0.768849 0
0.0238249 -0.773269 0
-0.0757107 -0.505712 0
-0.182069 -0.556876 0
-0.0934973 0.161292 0
-0.240477 0.102344 0
-0.0377892 0.702202 0
-0.104476 0.673539 0
-0.177616 -0.628191 0
-0.238041 -0.665946 0
-0.374668 -0.0613058 0
-0.503688 -0.151228 0
-0.256138 0.552003 0
-0.348876 0.500279 0
0.0769949 0.692054 0
0.0965804 0.726722 0
0.35276 0.259898 0
0.469646 0.338945 0
0.34137 -0.36903 0
0.460005 -0.320689 0
0.04496 -0.686568 0
0.0666886 -0.698647 0
-0.294923 -0.453365 0
-0.389143 -0.502713 0
-0.39543 0.141523 0
-0.527488 0.0897252 0
-0.176453 0.631969 0
-0.236041 0.604564 0
-0.299088 -0.503008 0
-0.347725 -0.531663 0
-0.640962 -0.0503081 0
-0.743878 -0.12453 0
-0.4468 0.439936 0
-0.522168 0.402038 0
0.119599 0.548145 0
0.132661 0.585824 0
0.592231 0.202839 0
0.683804 0.27143 0
0.57936 -0.290435 0
0.674732 -0.258001 0
0.0862188 -0.535845 0
0.105954 -0.555628 0
-0.483196 -0.354829 0
-0.556212 -0.397124 0
-0.658496 0.107808 0
-0.762793 0.0696005 0
-0.298286 0.498387 0
-0.344903 0.475365 0
-0.391041 -0.329465 0
-0.423101 -0.346972 0
-0.844824 -0.0325292 0
-0.91134 -0.0855896 0
-0.595517 0.287466 0
-0.645823 0.266505 0
0.148034 0.350374 0
0.153497 0.3887 0
0.772552 0.122854 0
0.829894 0.175286 0
0.761789 -0.18546 0
0.824487 -0.173058 0
0.121499 -0.331488 0
0.137099 -0.358336 0
-0.622358 -0.219455 0
-0.667325 -0.249975 0
-0.85678 0.0635845 0
-0.923311 0.0444766 0
-0.391165 0.31437 0
-0.420267 0.298712 0
-0.444611 -0.124454 0
-0.456885 -0.130044 0
-0.966295 -0.00933206 0
-0.989595 -0.0381198 0
-0.687208 0.109851 0
-0.707108 0.107157 0
0.160307 0.118024 0
0.157931 0.154605 0
0.876435 0.0273158 0
0.894021 0.0595037 0
0.87038 -0.0648017 0
0.894161 -0.0746541 0
0.146545 -0.0935597 0
0.156179 -0.126188 0
-0.699282 -0.060297 0
-0.712212 -0.0753408 0
-0.970842 0.0132828 0
-0.993389 0.0172056 0
-0.445852 0.0978405 0
-0.454653 0.0920048 0
-0.454653 0.0920048 0
-0.445852 0.0978405 0
-0.993389 0.0172056 0
-0.970842 0.0132828 0
-0.712212 -0.0753408 0
-0.699282 -0.060297 0
0.156179 -0.126188 0
0.146545 -0.0935597 0
0.894161 -0.0746541 0
0.87038 -0.0648017 0
0.894021 0.0595037 0
0.876435 0.0273158 0
0.157931 0.154605 0
0.160307 0.118024 0
-0.707108 0.107157 0
-0.687208 0.109851 0
-0.989595 -0.0381198 0
-0.966295 -0.00933206 0
-0.456885 -0.130044 0
-0.444611 -0.124454 0
-0.420267 0.298712 0
-0.391165 0.31437 0
-0.923311 0.0444766 0
-0.85678 0.0635845 0
-0.667325 -0.249975 0
-0.622358 -0.219455 0
0.137099 -0.358336 0
0.121499 -0.331488 0
0.824487 -0.173058 0
0.761789 -0.18546 0
0.829894 0.175286 0
0.772552 0.122854 0
0.153497 0.3887 0
0.148034 0.350374 0
-0.645823 0.266505 0
-0.595517 0.287466 0
-0.91134 -0.0855896 0
-0.844824 -0.0325292 0
-0.423101 -0.346972 0
-0.391041 -0.329465 0
-0.344903 0.475365 0
-0.298286 0.498387 0
-0.762793 0.0696005 0
-0.658496 0.107808 0
-0.556212 -0.397124 0
-0.483196 -0.354829 0
0.105954 -0.555628 0
0.0862188 -0.535845 0
0.674732 -0.258001 0
0.57936 -0.290435 0
0.683804 0.27143 0
0.592231 0.202839 0
0.132661 0.585824 0
0.119599 0.548145 0
-0.522168 0.402038 0
-0.4468 0.439936 0
-0.743878 -0.12453 0
-0.640962 -0.0503081 0
-0.347725 -0.531663 0
-0.299088 -0.503008 0
-0.236041 0.604564 0
-0.176453 0.631969 0
-0.527488 0.0897252 0
-0.39543 0.141523 0
-0.389143 -0.502713 0
-0.294923 -0.453365 0
0.0666886 -0.698647 0
0.04496 -0.686568 0
0.460005 -0.320689 0
0.34137 -0.36903 0
0.469646 0.338945 0
0.35276 0.259898 0
0.0965804 0.726722 0
0.0769949 0.692054 0
-0.348876 0.500279 0
-0.256138 0.552003 0
-0.503688 -0.151228 0
-0.374668 -0.0613058 0
-0.238041 -0.665946 0
-0.177616 -0.628191 0
-0.104476 0.673539 0
-0.0377892 0.702202 0
-0.240477 0.102344 0
-0.0934973 0.161292 0
-0.182069 -0.556876 0
-0.0757107 -0.505712 0
0.0238249 -0.773269 0
0.00231746 -0.768849 0
0.201692 -0.354327 0
0.0714338 -0.412977 0
0.208083 0.371801 0
0.0773325 0.289092 0
0.0481217 0.797646 0
0.0238522 0.76813 0
-0.143346 0.551309 0
-0.0424879 0.612229 0
-0.21427 -0.163207 0
-0.0718803 -0.0649722 0
-0.10466 -0.736515 0
-0.0383325 -0.692878 0
0.0367362 0.675434 0
0.103886 0.702465 0
0.0699644 0.105589 0
0.217439 0.165017 0
0.0448889 -0.55489 0
0.152972 -0.507136 0
-0.01804 -0.772061 0
-0.0372739 -0.774609 0
-0.0746772 -0.354851 0
-0.203835 -0.417305 0
-0.0754531 0.367458 0
-0.207209 0.288334 0
-0.00835794 0.791686 0
-0.0348762 0.769069 0
0.074115 0.549742 0
0.173205 0.614155 0
0.0961864 -0.159458 0
0.238027 -0.0615755 0
0.0395322 -0.736215 0
0.105367 -0.69085 0
0.173553 0.610009 0
0.234409 0.633105 0
0.373138 0.0984756 0
0.506516 0.152157 0
0.26939 -0.497594 0
0.368463 -0.457968 0
-0.0547198 -0.695025 0
-0.0699884 -0.703317 0
-0.341945 -0.321385 0
-0.457446 -0.380895 0
-0.353244 0.327055 0
-0.472996 0.258537 0
-0.0674088 0.709417 0
-0.0933874 0.69493 0
0.282301 0.495267 0
0.370058 0.556976 0
0.397561 -0.140531 0
0.525107 -0.0521207 0
0.180635 -0.664714 0
0.23971 -0.622381 0
0.292328 0.483689 0
0.340675 0.501421 0
0.63896 0.0810513 0
0.744943 0.123792 0
0.46908 -0.391261 0
0.549169 -0.36356 0
-0.082847 -0.549613 0
-0.0929651 -0.562056 0
-0.573993 -0.256403 0
-0.664667 -0.306655 0
-0.598001 0.255225 0
-0.693874 0.203444 0
-0.123026 0.558826 0
-0.145617 0.553114 0
0.461171 0.392689 0
0.529261 0.445657 0
0.66073 -0.108469 0
0.761731 -0.0381945 0
0.305092 -0.528514 0
0.351884 -0.494183 0
0.381161 0.308948 0
0.411932 0.320962 0
0.840958 0.0544496 0
0.908886 0.0825173 0
0.623836 -0.246938 0
0.676749 -0.233735 0
-0.100167 -0.350013 0
-0.104538 -0.364844 0
-0.748289 -0.165545 0
-0.805438 -0.201299 0
-0.785556 0.159583 0
-0.847984 0.129204 0
-0.169277 0.354512 0
-0.185886 0.357622 0
0.593755 0.25148 0
0.635848 0.290493 0
0.860369 -0.0666133 0
0.92522 -0.0217565 0
0.401012 -0.34029 0
0.431287 -0.318739 0
0.431076 0.103078 0
0.44084 0.11021 0
0.958934 0.0208214 0
0.981888 0.0321837 0
0.717816 -0.0793242 0
0.738003 -0.0817928 0
-0.105696 -0.11576 0
-0.104326 -0.131258 0
-0.848072 -0.0571175 0
-0.866301 -0.0747332 0
-0.897252 0.0499334 0
-0.919936 0.0437087 0
-0.200939 0.11626 0
-0.209525 0.127669 0
0.667746 0.084882 0
0.680076 0.10614 0
0.977358 -0.0192793 0
0.999988 -0.00490399 0
0.459317 -0.117638 0
0.470554 -0.113079 0
