# vtk DataFile Version 3.0
tp3485 cell-vector
ASCII
DATASET UNSTRUCTURED_GRID
POINTS 231 double
0 0 0
0.1 0 0
0.2 0 0
0.3 0 0
0.4 0 0
0.5 0 0
0.6 0 0
0.7 0 0
0.8 0 0
0.9 0 0
1 0 0
0 0.025 0
0.1 0.025 0
0.2 0.025 0
0.3 0.025 0
0.4 0.025 0
0.5 0.025 0
0.6 0.025 0
0.7 0.025 0
0.8 0.025 0
0.9 0.025 0
1 0.025 0
0 0.05 0
0.1 0.05 0
0.2 0.05 0
0.3 0.05 0
0.4 0.05 0
0.5 0.05 0
0.6 0.05 0
0.7 0.05 0
0.8 0.05 0
0.9 0.05 0
1 0.05 0
0 0.075 0
0.1 0.075 0
0.2 0.075 0
0.3 0.075 0
0.4 0.075 0
0.5 0.075 0
0.6 0.075 0
0.7 0.075 0
0.8 0.075 0
0.9 0.075 0
1 0.075 0
0 0.1 0
0.1 0.1 0
0.2 0.1 0
0.3 0.1 0
0.4 0.1 0
0.5 0.1 0
0.6 0.1 0
0.7 0.1 0
0.8 0.1 0
0.9 0.1 0
1 0.1 0
0 0.125 0
0.1 0.125 0
0.2 0.125 0
0.3 0.125 0
0.4 0.125 0
0.5 0.125 0
0.6 0.125 0
0.7 0.125 0
0.8 0.125 0
0.9 0.125 0
1 0.125 0
0 0.15 0
0.1 0.15 0
0.2 0.15 0
0.3 0.15 0
0.4 0.15 0
0.5 0.15 0
0.6 0.15 0
0.7 0.15 0
0.8 0.15 0
0.9 0.15 0
1 0.15 0
0 0.175 0
0.1 0.175 0
0.2 0.175 0
0.3 0.175 0
0.4 0.175 0
0.5 0.175 0
0.6 0.175 0
0.7 0.175 0
0.8 0.175 0
0.9 0.175 0
1 0.175 0
0 0.2 0
0.1 0.2 0
0.2 0.2 0
0.3 0.2 0
0.4 0.2 0
0.5 0.2 0
0.6 0.2 0
0.7 0.2 0
0.8 0.2 0
0.9 0.2 0
1 0.2 0
0 0.225 0
0.1 0.225 0
0.2 0.225 0
0.3 0.225 0
0.4 0.225 0
0.5 0.225 0
0.6 0.225 0
0.7 0.225 0
0.8 0.225 0
0.9 0.225 0
1 0.225 0
0 0.25 0
0.1 0.25 0
0.2 0.25 0
0.3 0.25 0
0.4 0.25 0
0.5 0.25 0
0.6 0.25 0
0.7 0.25 0
0.8 0.25 0
0.9 0.25 0
1 0.25 0
0 0.275 0
0.1 0.275 0
0.2 0.275 0
0.3 0.275 0
0.4 0.275 0
0.5 0.275 0
0.6 0.275 0
0.7 0.275 0
0.8 0.275 0
0.9 0.275 0
1 0.275 0
0 0.3 0
0.1 0.3 0
0.2 0.3 0
0.3 0.3 0
0.4 0.3 0
0.5 0.3 0
0.6 0.3 0
0.7 0.3 0
0.8 0.3 0
0.9 0.3 0
1 0.3 0
0 0.325 0
0.1 0.325 0
0.2 0.325 0
0.3 0.325 0
0.4 0.325 0
0.5 0.325 0
0.6 0.325 0
0.7 0.325 0
0.8 0.325 0
0.9 0.325 0
1 0.325 0
0 0.35 0
0.1 0.35 0
0.2 0.35 0
0.3 0.35 0
0.4 0.35 0
0.5 0.35 0
0.6 0.35 0
0.7 0.35 0
0.8 0.35 0
0.9 0.35 0
1 0.35 0
0 0.375 0
0.1 0.375 0
0.2 0.375 0
0.3 0.375 0
0.4 0.375 0
0.5 0.375 0
0.6 0.375 0
0.7 0.375 0
0.8 0.375 0
0.9 0.375 0
1 0.375 0
0 0.4 0
0.1 0.4 0
0.2 0.4 0
0.3 0.4 0
0.4 0.4 0
0.5 0.4 0
0.6 0.4 0
0.7 0.4 0
0.8 0.4 0
0.9 0.4 0
1 0.4 0
0 0.425 0
0.1 0.425 0
0.2 0.425 0
0.3 0.425 0
0.4 0.425 0
0.5 0.425 0
0.6 0.425 0
0.7 0.425 0
0.8 0.425 0
0.9 0.425 0
1 0.425 0
0 0.45 0
0.1 0.45 0
0.2 0.45 0
0.3 0.45 0
0.4 0.45 0
0.5 0.45 0
0.6 0.45 0
0.7 0.45 0
0.8 0.45 0
0.9 0.45 0
1 0.45 0
0 0.475 0
0.1 0.475 0
0.2 0.475 0
0.3 0.475 0
0.4 0.475 0
0.5 0.475 0
0.6 0.475 0
0.7 0.475 0
0.8 0.475 0
0.9 0.475 0
1 0.475 0
0 0.5 0
0.1 0.5 0
0.2 0.5 0
0.3 0.5 0
0.4 0.5 0
0.5 0.5 0
0.6 0.5 0
0.7 0.5 0
0.8 0.5 0
0.9 0.5 0
1 0.5 0
CELLS 400 1600
3 0 1 12
3 0 12 11
3 1 2 13
3 1 13 12
3 2 3 14
3 2 14 13
3 3 4 15
3 3 15 14
3 4 5 16
3 4 16 15
3 5 6 17
3 5 17 16
3 6 7 18
3 6 18 17
3 7 8 19
3 7 19 18
3 8 9 20
3 8 20 19
3 9 10 21
3 9 21 20
3 11 12 23
3 11 23 22
3 12 13 24
3 12 24 23
3 13 14 25
3 13 25 24
3 14 15 26
3 14 26 25
3 15 16 27
3 15 27 26
3 16 17 28
3 16 28 27
3 17 18 29
3 17 29 28
3 18 19 30
3 18 30 29
3 19 20 31
3 19 31 30
3 20 21 32
3 20 32 31
3 22 23 34
3 22 34 33
3 23 24 35
3 23 35 34
3 24 25 36
3 24 36 35
3 25 26 37
3 25 37 36
3 26 27 38
3 26 38 37
3 27 28 39
3 27 39 38
3 28 29 40
3 28 40 39
3 29 30 41
3 29 41 40
3 30 31 42
3 30 42 41
3 31 32 43
3 31 43 42
3 33 34 45
3 33 45 44
3 34 35 46
3 34 46 45
3 35 36 47
3 35 47 46
3 36 37 48
3 36 48 47
3 37 38 49
3 37 49 48
3 38 39 50
3 38 50 49
3 39 40 51
3 39 51 50
3 40 41 52
3 40 52 51
3 41 42 53
3 41 53 52
3 42 43 54
3 42 54 53
3 44 45 56
3 44 56 55
3 45 46 57
3 45 57 56
3 46 47 58
3 46 58 57
3 47 48 59
3 47 59 58
3 48 49 60
3 48 60 59
3 49 50 61
3 49 61 60
3 50 51 62
3 50 62 61
3 51 52 63
3 51 63 62
3 52 53 64
3 52 64 63
3 53 54 65
3 53 65 64
3 55 56 67
3 55 67 66
3 56 57 68
3 56 68 67
3 57 58 69
3 57 69 68
3 58 59 70
3 58 70 69
3 59 60 71
3 59 71 70
3 60 61 72
3 60 72 71
3 61 62 73
3 61 73 72
3 62 63 74
3 62 74 73
3 63 64 75
3 63 75 74
3 64 65 76
3 64 76 75
3 66 67 78
3 66 78 77
3 67 68 79
3 67 79 78
3 68 69 80
3 68 80 79
3 69 70 81
3 69 81 80
3 70 71 82
3 70 82 81
3 71 72 83
3 71 83 82
3 72 73 84
3 72 84 83
3 73 74 85
3 73 85 84
3 74 75 86
3 74 86 85
3 75 76 87
3 75 87 86
3 77 78 89
3 77 89 88
3 78 79 90
3 78 90 89
3 79 80 91
3 79 91 90
3 80 81 92
3 80 92 91
3 81 82 93
3 81 93 92
3 82 83 94
3 82 94 93
3 83 84 95
3 83 95 94
3 84 85 96
3 84 96 95
3 85 86 97
3 85 97 96
3 86 87 98
3 86 98 97
3 88 89 100
3 88 100 99
3 89 90 101
3 89 101 100
3 90 91 102
3 90 102 101
3 91 92 103
3 91 103 102
3 92 93 104
3 92 104 103
3 93 94 105
3 93 105 104
3 94 95 106
3 94 106 105
3 95 96 107
3 95 107 106
3 96 97 108
3 96 108 107
3 97 98 109
3 97 109 108
3 99 100 111
3 99 111 110
3 100 101 112
3 100 112 111
3 101 102 113
3 101 113 112
3 102 103 114
3 102 114 113
3 103 104 115
3 103 115 114
3 104 105 116
3 104 116 115
3 105 106 117
3 105 117 116
3 106 107 118
3 106 118 117
3 107 108 119
3 107 119 118
3 108 109 120
3 108 120 119
3 110 111 122
3 110 122 121
3 111 112 123
3 111 123 122
3 112 113 124
3 112 124 123
3 113 114 125
3 113 125 124
3 114 115 126
3 114 126 125
3 115 116 127
3 115 127 126
3 116 117 128
3 116 128 127
3 117 118 129
3 117 129 128
3 118 119 130
3 118 130 129
3 119 120 131
3 119 131 130
3 121 122 133
3 121 133 132
3 122 123 134
3 122 134 133
3 123 124 135
3 123 135 134
3 124 125 136
3 124 136 135
3 125 126 137
3 125 137 136
3 126 127 138
3 126 138 137
3 127 128 139
3 127 139 138
3 128 129 140
3 128 140 139
3 129 130 141
3 129 141 140
3 130 131 142
3 130 142 141
3 132 133 144
3 132 144 143
3 133 134 145
3 133 145 144
3 134 135 146
3 134 146 145
3 135 136 147
3 135 147 146
3 136 137 148
3 136 148 147
3 137 138 149
3 137 149 148
3 138 139 150
3 138 150 149
3 139 140 151
3 139 151 150
3 140 141 152
3 140 152 151
3 141 142 153
3 141 153 152
3 143 144 155
3 143 155 154
3 144 145 156
3 144 156 155
3 145 146 157
3 145 157 156
3 146 147 158
3 146 158 157
3 147 148 159
3 147 159 158
3 148 149 160
3 148 160 159
3 149 150 161
3 149 161 160
3 150 151 162
3 150 162 161
3 151 152 163
3 151 163 162
3 152 153 164
3 152 164 163
3 154 155 166
3 154 166 165
3 155 156 167
3 155 167 166
3 156 157 168
3 156 168 167
3 157 158 169
3 157 169 168
3 158 159 170
3 158 170 169
3 159 160 171
3 159 171 170
3 160 161 172
3 160 172 171
3 161 162 173
3 161 173 172
3 162 163 174
3 162 174 173
3 163 164 175
3 163 175 174
3 165 166 177
3 165 177 176
3 166 167 178
3 166 178 177
3 167 168 179
3 167 179 178
3 168 169 180
3 168 180 179
3 169 170 181
3 169 181 180
3 170 171 182
3 170 182 181
3 171 172 183
3 171 183 182
3 172 173 184
3 172 184 183
3 173 174 185
3 173 185 184
3 174 175 186
3 174 186 185
3 176 177 188
3 176 188 187
3 177 178 189
3 177 189 188
3 178 179 190
3 178 190 189
3 179 180 191
3 179 191 190
3 180 181 192
3 180 192 191
3 181 182 193
3 181 193 192
3 182 183 194
3 182 194 193
3 183 184 195
3 183 195 194
3 184 185 196
3 184 196 195
3 185 186 197
3 185 197 196
3 187 188 199
3 187 199 198
3 188 189 200
3 188 200 199
3 189 190 201
3 189 201 200
3 190 191 202
3 190 202 201
3 191 192 203
3 191 203 202
3 192 193 204
3 192 204 203
3 193 194 205
3 193 205 204
3 194 195 206
3 194 206 205
3 195 196 207
3 195 207 206
3 196 197 208
3 196 208 207
3 198 199 210
3 198 210 209
3 199 200 211
3 199 211 210
3 200 201 212
3 200 212 211
3 201 202 213
3 201 213 212
3 202 203 214
3 202 214 213
3 203 204 215
3 203 215 214
3 204 205 216
3 204 216 215
3 205 206 217
3 205 217 216
3 206 207 218
3 206 218 217
3 207 208 219
3 207 219 218
3 209 210 221
3 209 221 220
3 210 211 222
3 210 222 221
3 211 212 223
3 211 223 222
3 212 213 224
3 212 224 223
3 213 214 225
3 213 225 224
3 214 215 226
3 214 226 225
3 215 216 227
3 215 227 226
3 216 217 228
3 216 228 227
3 217 218 229
3 217 229 228
3 218 219 230
3 218 230 229
CELL_TYPES 400
5
5
5
5
5
5
5
5
5
5
5
5
5
5
5
5
5
5
5
5
5
5
5
5
5
5
5
5
5
5
5
5
5
5
5
5
5
5
5
5
5
5
5
5
5
5
5
5
5
5
5
5
5
5
5
5
5
5
5
5
5
5
5
5
5
5
5
5
5
5
5
5
5
5
5
5
5
5
5
5
5
5
5
5
5
5
5
5
5
5
5
5
5
5
5
5
5
5
5
5
5
5
5
5
5
5
5
5
5
5
5
5
5
5
5
5
5
5
5
5
5
5
5
5
5
5
5
5
5
5
5
5
5
5
5
5
5
5
5
5
5
5
5
5
5
5
5
5
5
5
5
5
5
5
5
5
5
5
5
5
5
5
5
5
5
5
5
5
5
5
5
5
5
5
5
5
5
5
5
5
5
5
5
5
5
5
5
5
5
5
5
5
5
5
5
5
5
5
5
5
5
5
5
5
5
5
5
5
5
5
5
5
5
5
5
5
5
5
5
5
5
5
5
5
5
5
5
5
5
5
5
5
5
5
5
5
5
5
5
5
5
5
5
5
5
5
5
5
5
5
5
5
5
5
5
5
5
5
5
5
5
5
5
5
5
5
5
5
5
5
5
5
5
5
5
5
5
5
5
5
5
5
5
5
5
5
5
5
5
5
5
5
5
5
5
5
5
5
5
5
5
5
5
5
5
5
5
5
5
5
5
5
5
5
5
5
5
5
5
5
5
5
5
5
5
5
5
5
5
5
5
5
5
5
5
5
5
5
5
5
5
5
5
5
5
5
5
5
5
5
5
5
5
5
5
5
5
5
5
5
5
5
5
5
5
5
5
5
5
5
5
5
5
5
5
5
5
5
5
5
5
5
5
5
5
5
5
5
5
5
5
5
5
5
5
5
5
5
5
5
CELL_DATA 400
VECTORS Ht double
-0.159422 0.0414856 0
-0.158191 0.0398554 0
-0.461299 0.0385719 0
-0.45777 0.0339838 0
-0.717285 0.0319435 0
-0.711953 0.0254245 0
-0.902841 0.0222047 0
-0.896242 0.0144456 0
-0.999947 0.010299 0
-0.992731 0.00207174 0
-0.999153 -0.00261018 0
-0.992027 -0.0104976 0
-0.900573 -0.0152563 0
-0.894234 -0.0220349 0
-0.713912 -0.0263894 0
-0.708977 -0.0314087 0
-0.457587 -0.0348687 0
-0.454524 -0.0376919 0
-0.157207 -0.0393018 0
-0.156166 -0.0402263 0
-0.15628 0.122356 0
-0.152864 0.118473 0
-0.452783 0.113889 0
-0.442766 0.102134 0
-0.704387 0.0944226 0
-0.688911 0.0765537 0
-0.886841 0.0657596 0
-0.867457 0.0436523 0
-0.982415 0.0306784 0
-0.961031 0.00653256 0
-0.981805 -0.00739258 0
-0.960517 -0.0312053 0
-0.885107 -0.0447182 0
-0.865995 -0.0658753 0
-0.701838 -0.0776111 0
-0.686763 -0.0940783 0
-0.450069 -0.102733 0
-0.440471 -0.113026 0
-0.154822 -0.117049 0
-0.151478 -0.120763 0
-0.149371 0.200172 0
-0.143832 0.194032 0
-0.433172 0.186409 0
-0.416909 0.167744 0
-0.67417 0.154601 0
-0.648935 0.12582 0
-0.849016 0.107731 0
-0.817327 0.0718213 0
-0.940695 0.0503437 0
-0.905671 0.0108747 0
-0.940279 -0.0119509 0
-0.90535 -0.0511032 0
-0.847835 -0.073042 0
-0.816417 -0.108058 0
-0.672457 -0.1269 0
-0.647611 -0.154407 0
-0.431415 -0.168095 0
-0.415523 -0.185571 0
-0.148544 -0.192054 0
-0.143003 -0.198367 0
-0.138845 0.273018 0
-0.131304 0.264701 0
-0.402947 0.254339 0
-0.380835 0.229193 0
-0.627384 0.210995 0
-0.593013 0.172005 0
-0.790302 0.147082 0
-0.747091 0.0982551 0
-0.875819 0.0688081 0
-0.828016 0.0149883 0
-0.875594 -0.0161757 0
-0.827883 -0.0697041 0
-0.789669 -0.0995344 0
-0.746717 -0.147548 0
-0.626487 -0.173048 0
-0.592478 -0.210912 0
-0.402085 -0.229347 0
-0.380295 -0.253545 0
-0.138549 -0.262442 0
-0.130961 -0.271129 0
-0.124947 0.339101 0
-0.11558 0.328764 0
-0.362854 0.316006 0
-0.335433 0.28497 0
-0.565186 0.262212 0
-0.522527 0.213966 0
-0.71215 0.182842 0
-0.658482 0.122298 0
-0.789383 0.0856135 0
-0.729981 0.0187684 0
-0.789341 -0.0199669 0
-0.730024 -0.0865533 0
-0.712037 -0.123547 0
-0.658606 -0.183374 0
-0.565053 -0.214924 0
-0.522718 -0.262205 0
-0.362802 -0.284981 0
-0.335654 -0.315278 0
-0.125095 -0.326456 0
-0.115659 -0.337255 0
-0.10801 0.396798 0
-0.0970397 0.384661 0
-0.313877 0.369889 0
-0.281819 0.333702 0
-0.489113 0.306988 0
-0.439216 0.250666 0
-0.616487 0.214125 0
-0.553687 0.143355 0
-0.683519 0.100342 0
-0.613981 0.0221174 0
-0.683643 -0.0232354 0
-0.614179 -0.10124 0
-0.616846 -0.144493 0
-0.554251 -0.214659 0
-0.489665 -0.2515 0
-0.440046 -0.307026 0
-0.314534 -0.333626 0
-0.2827 -0.36925 0
-0.108524 -0.382502 0
-0.0974777 -0.395112 0
-0.0884463 0.444695 0
-0.0761374 0.431033 0
-0.257222 0.41466 0
-0.221314 0.374194 0
-0.401039 0.344217 0
-0.345135 0.281199 0
-0.505674 0.240158 0
-0.435287 0.160902 0
-0.560834 0.112626 0
-0.482872 0.0249479 0
-0.561101 -0.0259057 0
-0.4832 -0.113408 0
-0.506438 -0.161861 0
-0.436218 -0.240637 0
-0.402175 -0.281878 0
-0.346494 -0.344275 0
-0.258472 -0.374079 0
-0.222737 -0.414135 0
-0.0892481 -0.429183 0
-0.0768698 -0.44327 0
-0.0667323 0.481618 0
-0.0533849 0.46675 0
-0.194283 0.449216 0
-0.155407 0.405452 0
-0.303137 0.372981 0
-0.242601 0.304811 0
-0.38244 0.260295 0
-0.306201 0.174502 0
-0.42435 0.122158 0
-0.339885 0.0271849 0
-0.424732 -0.0279175 0
-0.340312 -0.122762 0
-0.383528 -0.175228 0
-0.307413 -0.260672 0
-0.304737 -0.305313 0
-0.244364 -0.373037 0
-0.195995 -0.40534 0
-0.157242 -0.448825 0
-0.0677472 -0.465338 0
-0.0543447 -0.480538 0
-0.0434003 0.506664 0
-0.0293409 0.490946 0
-0.126609 0.472709 0
-0.0857204 0.426714 0
-0.197818 0.392567 0
-0.134141 0.32092 0
-0.249822 0.274035 0
-0.169608 0.183817 0
-0.277429 0.128697 0
-0.18854 0.0287675 0
-0.277893 -0.0292268 0
-0.189032 -0.129078 0
-0.251141 -0.184269 0
-0.171004 -0.274275 0
-0.199747 -0.321227 0
-0.13617 -0.392606 0
-0.128643 -0.426633 0
-0.0878287 -0.472467 0
-0.0445531 -0.490062 0
-0.0304586 -0.505991 0
-0.019023 0.519224 0
-0.00459673 0.503037 0
-0.0558658 0.484559 0
-0.0139709 0.437459 0
-0.0876775 0.40249 0
-0.022427 0.329127 0
-0.111086 0.281035 0
-0.0288741 0.188613 0
-0.123688 0.132076 0
-0.0325648 0.029651 0
-0.1242 -0.0298074 0
-0.0330856 -0.132206 0
-0.112536 -0.188766 0
-0.03035 -0.281117 0
-0.0897901 -0.329231 0
-0.0245732 -0.402505 0
-0.0580749 -0.437431 0
-0.0162048 -0.484478 0
-0.0202386 -0.502736 0
-0.00580021 -0.518996 0
0.00580021 0.518996 0
0.0202386 0.502736 0
0.0162048 0.484478 0
0.0580749 0.437431 0
0.0245732 0.402505 0
0.0897901 0.329231 0
0.03035 0.281117 0
0.112536 0.188766 0
0.0330856 0.132206 0
0.1242 0.0298074 0
0.0325648 -0.029651 0
0.123688 -0.132076 0
0.0288741 -0.188613 0
0.111086 -0.281035 0
0.022427 -0.329127 0
0.0876775 -0.40249 0
0.0139709 -0.437459 0
0.0558658 -0.484559 0
0.00459673 -0.503037 0
0.019023 -0.519224 0
0.0304586 0.505991 0
0.0445531 0.490062 0
0.0878287 0.472467 0
0.128643 0.426633 0
0.13617 0.392606 0
0.199747 0.321227 0
0.171004 0.274275 0
0.251141 0.184269 0
0.189032 0.129078 0
0.277893 0.0292268 0
0.18854 -0.0287675 0
0.277429 -0.128697 0
0.169608 -0.183817 0
0.249822 -0.274035 0
0.134141 -0.32092 0
0.197818 -0.392567 0
0.0857204 -0.426714 0
0.126609 -0.472709 0
0.0293409 -0.490946 0
0.0434003 -0.506664 0
0.0543447 0.480538 0
0.0677472 0.465338 0
0.157242 0.448825 0
0.195995 0.40534 0
0.244364 0.373037 0
0.304737 0.305313 0
0.307413 0.260672 0
0.383528 0.175228 0
0.340312 0.122762 0
0.424732 0.0279175 0
0.339885 -0.0271849 0
0.42435 -0.122158 0
0.306201 -0.174502 0
0.38244 -0.260295 0
0.242601 -0.304811 0
0.303137 -0.372981 0
0.155407 -0.405452 0
0.194283 -0.449216 0
0.0533849 -0.46675 0
0.0667323 -0.481618 0
0.0768698 0.44327 0
0.0892481 0.429183 0
0.222737 0.414135 0
0.258472 0.374079 0
0.346494 0.344275 0
0.402175 0.281878 0
0.436218 0.240637 0
0.506438 0.161861 0
0.4832 0.113408 0
0.561101 0.0259057 0
0.482872 -0.0249479 0
0.560834 -0.112626 0
0.435287 -0.160902 0
0.505674 -0.240158 0
0.345135 -0.281199 0
0.401039 -0.344217 0
0.221314 -0.374194 0
0.257222 -0.41466 0
0.0761374 -0.431033 0
0.0884463 -0.444695 0
0.0974777 0.395112 0
0.108524 0.382502 0
0.2827 0.36925 0
0.314534 0.333626 0
0.440046 0.307026 0
0.489665 0.2515 0
0.554251 0.214659 0
0.616846 0.144493 0
0.614179 0.10124 0
0.683643 0.0232354 0
0.613981 -0.0221174 0
0.683519 -0.100342 0
0.553687 -0.143355 0
0.616487 -0.214125 0
0.439216 -0.250666 0
0.489113 -0.306988 0
0.281819 -0.333702 0
0.313877 -0.369889 0
0.0970397 -0.384661 0
0.10801 -0.396798 0
0.115659 0.337255 0
0.125095 0.326456 0
0.335654 0.315278 0
0.362802 0.284981 0
0.522718 0.262205 0
0.565053 0.214924 0
0.658606 0.183374 0
0.712037 0.123547 0
0.730024 0.0865533 0
0.789341 0.0199669 0
0.729981 -0.0187684 0
0.789383 -0.0856135 0
0.658482 -0.122298 0
0.71215 -0.182842 0
0.522527 -0.213966 0
0.565186 -0.262212 0
0.335433 -0.28497 0
0.362854 -0.316006 0
0.11558 -0.328764 0
0.124947 -0.339101 0
0.130961 0.271129 0
0.138549 0.262442 0
0.380295 0.253545 0
0.402085 0.229347 0
0.592478 0.210912 0
0.626487 0.173048 0
0.746717 0.147548 0
0.789669 0.0995344 0
0.827883 0.0697041 0
0.875594 0.0161757 0
0.828016 -0.0149883 0
0.875819 -0.0688081 0
0.747091 -0.0982551 0
0.790302 -0.147082 0
0.593013 -0.172005 0
0.627384 -0.210995 0
0.380835 -0.229193 0
0.402947 -0.254339 0
0.131304 -0.264701 0
0.138845 -0.273018 0
0.143003 0.198367 0
0.148544 0.192054 0
0.415523 0.185571 0
0.431415 0.168095 0
0.647611 0.154407 0
0.672457 0.1269 0
0.816417 0.108058 0
0.847835 0.073042 0
0.90535 0.0511032 0
0.940279 0.0119509 0
0.905671 -0.0108747 0
0.940695 -0.0503437 0
0.817327 -0.0718213 0
0.849016 -0.107731 0
0.648935 -0.12582 0
0.67417 -0.154601 0
0.416909 -0.167744 0
0.433172 -0.186409 0
0.143832 -0.194032 0
0.149371 -0.200172 0
0.151478 0.120763 0
0.154822 0.117049 0
0.440471 0.113026 0
0.450069 0.102733 0
0.686763 0.0940783 0
0.701838 0.0776111 0
0.865995 0.0658753 0
0.885107 0.0447182 0
0.960517 0.0312053 0
0.981805 0.00739258 0
0.961031 -0.00653256 0
0.982415 -0.0306784 0
0.867457 -0.0436523 0
0.886841 -0.0657596 0
0.688911 -0.0765537 0
0.704387 -0.0944226 0
0.442766 -0.102134 0
0.452783 -0.113889 0
0.152864 -0.118473 0
0.15628 -0.122356 0
0.156166 0.0402263 0
0.157207 0.0393018 0
0.454524 0.0376919 0
0.457587 0.0348687 0
0.708977 0.0314087 0
0.713912 0.0263894 0
0.894234 0.0220349 0
0.900573 0.0152563 0
0.992027 0.0104976 0
0.999153 0.00261018 0
0.992731 -0.00207174 0
0.999947 -0.010299 0
0.896242 -0.0144456 0
0.902841 -0.0222047 0
0.711953 -0.0254245 0
0.717285 -0.0319435 0
0.45777 -0.0339838 0
0.461299 -0.0385719 0
0.158191 -0.0398554 0
0.159422 -0.0414856 0
