# vtk DataFile Version 3.0
tp3485 cell-vector
ASCII
DATASET UNSTRUCTURED_GRID
POINTS 231 double
0 0 0
0.1 0 0
0.2 0 0
0.3 0 0
0.4 0 0
0.5 0 0
0.6 0 0
0.7 0 0
0.8 0 0
0.9 0 0
1 0 0
0 0.025 0
0.1 0.025 0
0.2 0.025 0
0.3 0.025 0
0.4 0.025 0
0.5 0.025 0
0.6 0.025 0
0.7 0.025 0
0.8 0.025 0
0.9 0.025 0
1 0.025 0
0 0.05 0
0.1 0.05 0
0.2 0.05 0
0.3 0.05 0
0.4 0.05 0
0.5 0.05 0
0.6 0.05 0
0.7 0.05 0
0.8 0.05 0
0.9 0.05 0
1 0.05 0
0 0.075 0
0.1 0.075 0
0.2 0.075 0
0.3 0.075 0
0.4 0.075 0
0.5 0.075 0
0.6 0.075 0
0.7 0.075 0
0.8 0.075 0
0.9 0.075 0
1 0.075 0
0 0.1 0
0.1 0.1 0
0.2 0.1 0
0.3 0.1 0
0.4 0.1 0
0.5 0.1 0
0.6 0.1 0
0.7 0.1 0
0.8 0.1 0
0.9 0.1 0
1 0.1 0
0 0.125 0
0.1 0.125 0
0.2 0.125 0
0.3 0.125 0
0.4 0.125 0
0.5 0.125 0
0.6 0.125 0
0.7 0.125 0
0.8 0.125 0
0.9 0.125 0
1 0.125 0
0 0.15 0
0.1 0.15 0
0.2 0.15 0
0.3 0.15 0
0.4 0.15 0
0.5 0.15 0
0.6 0.15 0
0.7 0.15 0
0.8 0.15 0
0.9 0.15 0
1 0.15 0
0 0.175 0
0.1 0.175 0
0.2 0.175 0
0.3 0.175 0
0.4 0.175 0
0.5 0.175 0
0.6 0.175 0
0.7 0.175 0
0.8 0.175 0
0.9 0.175 0
1 0.175 0
0 0.2 0
0.1 0.2 0
0.2 0.2 0
0.3 0.2 0
0.4 0.2 0
0.5 0.2 0
0.6 0.2 0
0.7 0.2 0
0.8 0.2 0
0.9 0.2 0
1 0.2 0
0 0.225 0
0.1 0.225 0
0.2 0.225 0
0.3 0.225 0
0.4 0.225 0
0.5 0.225 0
0.6 0.225 0
0.7 0.225 0
0.8 0.225 0
0.9 0.225 0
1 0.225 0
0 0.25 0
0.1 0.25 0
0.2 0.25 0
0.3 0.25 0
0.4 0.25 0
0.5 0.25 0
0.6 0.25 0
0.7 0.25 0
0.8 0.25 0
0.9 0.25 0
1 0.25 0
0 0.275 0
0.1 0.275 0
0.2 0.275 0
0.3 0.275 0
0.4 0.275 0
0.5 0.275 0
0.6 0.275 0
0.7 0.275 0
0.8 0.275 0
0.9 0.275 0
1 0.275 0
0 0.3 0
0.1 0.3 0
0.2 0.3 0
0.3 0.3 0
0.4 0.3 0
0.5 0.3 0
0.6 0.3 0
0.7 0.3 0
0.8 0.3 0
0.9 0.3 0
1 0.3 0
0 0.325 0
0.1 0.325 0
0.2 0.325 0
0.3 0.325 0
0.4 0.325 0
0.5 0.325 0
0.6 0.325 0
0.7 0.325 0
0.8 0.325 0
0.9 0.325 0
1 0.325 0
0 0.35 0
0.1 0.35 0
0.2 0.35 0
0.3 0.35 0
0.4 0.35 0
0.5 0.35 0
0.6 0.35 0
0.7 0.35 0
0.8 0.35 0
0.9 0.35 0
1 0.35 0
0 0.375 0
0.1 0.375 0
0.2 0.375 0
0.3 0.375 0
0.4 0.375 0
0.5 0.375 0
0.6 0.375 0
0.7 0.375 0
0.8 0.375 0
0.9 0.375 0
1 0.375 0
0 0.4 0
0.1 0.4 0
0.2 0.4 0
0.3 0.4 0
0.4 0.4 0
0.5 0.4 0
0.6 0.4 0
0.7 0.4 0
0.8 0.4 0
0.9 0.4 0
1 0.4 0
0 0.425 0
0.1 0.425 0
0.2 0.425 0
0.3 0.425 0
0.4 0.425 0
0.5 0.425 0
0.6 0.425 0
0.7 0.425 0
0.8 0.425 0
0.9 0.425 0
1 0.425 0
0 0.45 0
0.1 0.45 0
0.2 0.45 0
0.3 0.45 0
0.4 0.45 0
0.5 0.45 0
0.6 0.45 0
0.7 0.45 0
0.8 0.45 0
0.9 0.45 0
1 0.45 0
0 0.475 0
0.1 0.475 0
0.2 0.475 0
0.3 0.475 0
0.4 0.475 0
0.5 0.475 0
0.6 0.475 0
0.7 0.475 0
0.8 0.475 0
0.9 0.475 0
1 0.475 0
0 0.5 0
0.1 0.5 0
0.2 0.5 0
0.3 0.5 0
0.4 0.5 0
0.5 0.5 0
0.6 0.5 0
0.7 0.5 0
0.8 0.5 0
0.9 0.5 0
1 0.5 0
CELLS 400 1600
3 0 1 12
3 0 12 11
3 1 2 13
3 1 13 12
3 2 3 14
3 2 14 13
3 3 4 15
3 3 15 14
3 4 5 16
3 4 16 15
3 5 6 17
3 5 17 16
3 6 7 18
3 6 18 17
3 7 8 19
3 7 19 18
3 8 9 20
3 8 20 19
3 9 10 21
3 9 21 20
3 11 12 23
3 11 23 22
3 12 13 24
3 12 24 23
3 13 14 25
3 13 25 24
3 14 15 26
3 14 26 25
3 15 16 27
3 15 27 26
3 16 17 28
3 16 28 27
3 17 18 29
3 17 29 28
3 18 19 30
3 18 30 29
3 19 20 31
3 19 31 30
3 20 21 32
3 20 32 31
3 22 23 34
3 22 34 33
3 23 24 35
3 23 35 34
3 24 25 36
3 24 36 35
3 25 26 37
3 25 37 36
3 26 27 38
3 26 38 37
3 27 28 39
3 27 39 38
3 28 29 40
3 28 40 39
3 29 30 41
3 29 41 40
3 30 31 42
3 30 42 41
3 31 32 43
3 31 43 42
3 33 34 45
3 33 45 44
3 34 35 46
3 34 46 45
3 35 36 47
3 35 47 46
3 36 37 48
3 36 48 47
3 37 38 49
3 37 49 48
3 38 39 50
3 38 50 49
3 39 40 51
3 39 51 50
3 40 41 52
3 40 52 51
3 41 42 53
3 41 53 52
3 42 43 54
3 42 54 53
3 44 45 56
3 44 56 55
3 45 46 57
3 45 57 56
3 46 47 58
3 46 58 57
3 47 48 59
3 47 59 58
3 48 49 60
3 48 60 59
3 49 50 61
3 49 61 60
3 50 51 62
3 50 62 61
3 51 52 63
3 51 63 62
3 52 53 64
3 52 64 63
3 53 54 65
3 53 65 64
3 55 56 67
3 55 67 66
3 56 57 68
3 56 68 67
3 57 58 69
3 57 69 68
3 58 59 70
3 58 70 69
3 59 60 71
3 59 71 70
3 60 61 72
3 60 72 71
3 61 62 73
3 61 73 72
3 62 63 74
3 62 74 73
3 63 64 75
3 63 75 74
3 64 65 76
3 64 76 75
3 66 67 78
3 66 78 77
3 67 68 79
3 67 79 78
3 68 69 80
3 68 80 79
3 69 70 81
3 69 81 80
3 70 71 82
3 70 82 81
3 71 72 83
3 71 83 82
3 72 73 84
3 72 84 83
3 73 74 85
3 73 85 84
3 74 75 86
3 74 86 85
3 75 76 87
3 75 87 86
3 77 78 89
3 77 89 88
3 78 79 90
3 78 90 89
3 79 80 91
3 79 91 90
3 80 81 92
3 80 92 91
3 81 82 93
3 81 93 92
3 82 83 94
3 82 94 93
3 83 84 95
3 83 95 94
3 84 85 96
3 84 96 95
3 85 86 97
3 85 97 96
3 86 87 98
3 86 98 97
3 88 89 100
3 88 100 99
3 89 90 101
3 89 101 100
3 90 91 102
3 90 102 101
3 91 92 103
3 91 103 102
3 92 93 104
3 92 104 103
3 93 94 105
3 93 105 104
3 94 95 106
3 94 106 105
3 95 96 107
3 95 107 106
3 96 97 108
3 96 108 107
3 97 98 109
3 97 109 108
3 99 100 111
3 99 111 110
3 100 101 112
3 100 112 111
3 101 102 113
3 101 113 112
3 102 103 114
3 102 114 113
3 103 104 115
3 103 115 114
3 104 105 116
3 104 116 115
3 105 106 117
3 105 117 116
3 106 107 118
3 106 118 117
3 107 108 119
3 107 119 118
3 108 109 120
3 108 120 119
3 110 111 122
3 110 122 121
3 111 112 123
3 111 123 122
3 112 113 124
3 112 124 123
3 113 114 125
3 113 125 124
3 114 115 126
3 114 126 125
3 115 116 127
3 115 127 126
3 116 117 128
3 116 128 127
3 117 118 129
3 117 129 128
3 118 119 130
3 118 130 129
3 119 120 131
3 119 131 130
3 121 122 133
3 121 133 132
3 122 123 134
3 122 134 133
3 123 124 135
3 123 135 134
3 124 125 136
3 124 136 135
3 125 126 137
3 125 137 136
3 126 127 138
3 126 138 137
3 127 128 139
3 127 139 138
3 128 129 140
3 128 140 139
3 129 130 141
3 129 141 140
3 130 131 142
3 130 142 141
3 132 133 144
3 132 144 143
3 133 134 145
3 133 145 144
3 134 135 146
3 134 146 145
3 135 136 147
3 135 147 146
3 136 137 148
3 136 148 147
3 137 138 149
3 137 149 148
3 138 139 150
3 138 150 149
3 139 140 151
3 139 151 150
3 140 141 152
3 140 152 151
3 141 142 153
3 141 153 152
3 143 144 155
3 143 155 154
3 144 145 156
3 144 156 155
3 145 146 157
3 145 157 156
3 146 147 158
3 146 158 157
3 147 148 159
3 147 159 158
3 148 149 160
3 148 160 159
3 149 150 161
3 149 161 160
3 150 151 162
3 150 162 161
3 151 152 163
3 151 163 162
3 152 153 164
3 152 164 163
3 154 155 166
3 154 166 165
3 155 156 167
3 155 167 166
3 156 157 168
3 156 168 167
3 157 158 169
3 157 169 168
3 158 159 170
3 158 170 169
3 159 160 171
3 159 171 170
3 160 161 172
3 160 172 171
3 161 162 173
3 161 173 172
3 162 163 174
3 162 174 173
3 163 164 175
3 163 175 174
3 165 166 177
3 165 177 176
3 166 167 178
3 166 178 177
3 167 168 179
3 167 179 178
3 168 169 180
3 168 180 179
3 169 170 181
3 169 181 180
3 170 171 182
3 170 182 181
3 171 172 183
3 171 183 182
3 172 173 184
3 172 184 183
3 173 174 185
3 173 185 184
3 174 175 186
3 174 186 185
3 176 177 188
3 176 188 187
3 177 178 189
3 177 189 188
3 178 179 190
3 178 190 189
3 179 180 191
3 179 191 190
3 180 181 192
3 180 192 191
3 181 182 193
3 181 193 192
3 182 183 194
3 182 194 193
3 183 184 195
3 183 195 194
3 184 185 196
3 184 196 195
3 185 186 197
3 185 197 196
3 187 188 199
3 187 199 198
3 188 189 200
3 188 200 199
3 189 190 201
3 189 201 200
3 190 191 202
3 190 202 201
3 191 192 203
3 191 203 202
3 192 193 204
3 192 204 203
3 193 194 205
3 193 205 204
3 194 195 206
3 194 206 205
3 195 196 207
3 195 207 206
3 196 197 208
3 196 208 207
3 198 199 210
3 198 210 209
3 199 200 211
3 199 211 210
3 200 201 212
3 200 212 211
3 201 202 213
3 201 213 212
3 202 203 214
3 202 214 213
3 203 204 215
3 203 215 214
3 204 205 216
3 204 216 215
3 205 206 217
3 205 217 216
3 206 207 218
3 206 218 217
3 207 208 219
3 207 219 218
3 209 210 221
3 209 221 220
3 210 211 222
3 210 222 221
3 211 212 223
3 211 223 222
3 212 213 224
3 212 224 223
3 213 214 225
3 213 225 224
3 214 215 226
3 214 226 225
3 215 216 227
3 215 227 226
3 216 217 228
3 216 228 227
3 217 218 229
3 217 229 228
3 218 219 230
3 218 230 229
CELL_TYPES 400
5
5
5
5
5
5
5
5
5
5
5
5
5
5
5
5
5
5
5
5
5
5
5
5
5
5
5
5
5
5
5
5
5
5
5
5
5
5
5
5
5
5
5
5
5
5
5
5
5
5
5
5
5
5
5
5
5
5
5
5
5
5
5
5
5
5
5
5
5
5
5
5
5
5
5
5
5
5
5
5
5
5
5
5
5
5
5
5
5
5
5
5
5
5
5
5
5
5
5
5
5
5
5
5
5
5
5
5
5
5
5
5
5
5
5
5
5
5
5
5
5
5
5
5
5
5
5
5
5
5
5
5
5
5
5
5
5
5
5
5
5
5
5
5
5
5
5
5
5
5
5
5
5
5
5
5
5
5
5
5
5
5
5
5
5
5
5
5
5
5
5
5
5
5
5
5
5
5
5
5
5
5
5
5
5
5
5
5
5
5
5
5
5
5
5
5
5
5
5
5
5
5
5
5
5
5
5
5
5
5
5
5
5
5
5
5
5
5
5
5
5
5
5
5
5
5
5
5
5
5
5
5
5
5
5
5
5
5
5
5
5
5
5
5
5
5
5
5
5
5
5
5
5
5
5
5
5
5
5
5
5
5
5
5
5
5
5
5
5
5
5
5
5
5
5
5
5
5
5
5
5
5
5
5
5
5
5
5
5
5
5
5
5
5
5
5
5
5
5
5
5
5
5
5
5
5
5
5
5
5
5
5
5
5
5
5
5
5
5
5
5
5
5
5
5
5
5
5
5
5
5
5
5
5
5
5
5
5
5
5
5
5
5
5
5
5
5
5
5
5
5
5
5
5
5
5
5
5
5
5
5
5
5
5
5
5
5
5
5
5
5
5
5
5
5
5
5
5
5
5
5
5
5
5
5
5
5
5
5
5
5
5
5
5
5
5
5
5
5
5
CELL_DATA 400
VECTORS Ht double
-0.509405 -0.0299573 0
-0.523332 0.127351 0
-0.0359103 -0.124979 0
-0.0442443 -0.0884162 0
0.542645 0.133006 0
0.553179 -0.0196595 0
-0.41016 0.0118 0
-0.411773 0.105196 0
-0.1886 -0.132682 0
-0.195849 -0.0671899 0
0.526911 0.0722965 0
0.528554 -0.0461961 0
-0.145988 0.0765012 0
-0.142575 0.0959281 0
-0.389462 -0.0830066 0
-0.384844 -0.0156326 0
0.239667 -0.0398834 0
0.234785 -0.0742756 0
0.258211 0.0645527 0
0.250715 0.0352474 0
-0.467791 -0.0594742 0
-0.500515 0.375132 0
-0.0496012 -0.340039 0
-0.0579832 -0.283219 0
0.500785 0.338977 0
0.526395 -0.0915525 0
-0.363762 0.0498895 0
-0.379025 0.356599 0
-0.18389 -0.350542 0
-0.191003 -0.204228 0
0.472952 0.173238 0
0.478635 -0.173647 0
-0.12034 0.20845 0
-0.1247 0.311092 0
-0.345227 -0.205368 0
-0.326441 -0.0307922 0
0.204197 -0.112849 0
0.20017 -0.244177 0
0.225641 0.183642 0
0.204722 0.098869 0
-0.396678 -0.0795903 0
-0.44451 0.59943 0
-0.0567177 -0.533786 0
-0.0632773 -0.458726 0
0.421399 0.517676 0
0.46077 -0.163429 0
-0.294326 0.086961 0
-0.322682 0.583186 0
-0.158065 -0.535342 0
-0.162849 -0.322371 0
0.373422 0.256329 0
0.383771 -0.289128 0
-0.0920862 0.310628 0
-0.106702 0.495212 0
-0.249003 -0.300407 0
-0.218482 -0.0433058 0
0.149595 -0.166419 0
0.147824 -0.38044 0
0.154396 0.273421 0
0.122414 0.150101 0
-0.298845 -0.0911211 0
-0.357712 0.785269 0
-0.0539387 -0.691275 0
-0.0568594 -0.60373 0
0.31047 0.657852 0
0.361297 -0.228054 0
-0.208307 0.115926 0
-0.249 0.768567 0
-0.110928 -0.669268 0
-0.110532 -0.415638 0
0.239502 0.318678 0
0.255408 -0.379465 0
-0.0672002 0.365493 0
-0.0947604 0.632157 0
-0.11431 -0.358428 0
-0.075602 -0.0584486 0
0.0836867 -0.189205 0
0.085006 -0.463495 0
0.0548773 0.317744 0
0.0142452 0.186442 0
-0.179684 -0.0963436 0
-0.24563 0.919618 0
-0.0392683 -0.800064 0
-0.037316 -0.708824 0
0.176383 0.751869 0
0.235458 -0.277717 0
-0.113676 0.129171 0
-0.165968 0.89964 0
-0.0441482 -0.739992 0
-0.0357763 -0.480882 0
0.0862852 0.3611 0
0.108727 -0.432834 0
-0.0510917 0.36171 0
-0.0936665 0.71162 0
0.0401414 -0.37461 0
0.0832435 -0.0822638 0
0.0145632 -0.173887 0
0.0192242 -0.48107 0
-0.0594613 0.30644 0
-0.106588 0.20732 0
-0.0471562 -0.0984676 0
-0.116751 0.992815 0
-0.0128438 -0.851257 0
-0.00567405 -0.767357 0
0.0291973 0.796402 0
0.0927132 -0.305227 0
-0.0192808 0.119485 0
-0.0825317 0.967583 0
0.038071 -0.742057 0
0.0564416 -0.518082 0
-0.0690643 0.387637 0
-0.0393135 -0.440111 0
-0.0470807 0.295589 0
-0.105401 0.730186 0
0.193449 -0.34917 0
0.237835 -0.120503 0
-0.050291 -0.118029 0
-0.0424526 -0.429571 0
-0.173849 0.236331 0
-0.225755 0.213804 0
0.0886632 -0.100905 0
0.0180738 0.999837 0
0.0227621 -0.84034 0
0.0345831 -0.776214 0
-0.120031 0.792728 0
-0.0559408 -0.305043 0
0.0660532 0.0812594 0
-0.00749022 0.968547 0
0.128659 -0.677467 0
0.157747 -0.530252 0
-0.209498 0.404364 0
-0.172214 -0.396224 0
-0.0553114 0.171378 0
-0.128367 0.691434 0
0.325761 -0.286954 0
0.369693 -0.177369 0
-0.104573 -0.0242759 0
-0.0939099 -0.314131 0
-0.273936 0.111408 0
-0.32941 0.208218 0
0.216445 -0.106523 0
0.146666 0.941207 0
0.0628315 -0.767783 0
0.0780606 -0.73632 0
-0.259815 0.74652 0
-0.198422 -0.274307 0
0.134641 0.0117712 0
0.0518072 0.904028 0
0.217923 -0.555371 0
0.256915 -0.522893 0
-0.320297 0.417788 0
-0.276111 -0.301274 0
-0.0724331 0.000448883 0
-0.157493 0.605083 0
0.421091 -0.196578 0
0.464462 -0.254335 0
-0.14353 0.100044 0
-0.130422 -0.147451 0
-0.347363 -0.057785 0
-0.405673 0.193731 0
0.324792 -0.117058 0
0.25686 0.823343 0
0.101302 -0.639369 0
0.118395 -0.652761 0
-0.378764 0.667102 0
-0.322157 -0.213584 0
0.18111 -0.0877196 0
0.0907014 0.780921 0
0.29446 -0.390854 0
0.34113 -0.503017 0
-0.390963 0.4332 0
-0.341548 -0.161178 0
-0.092166 -0.200411 0
-0.185206 0.485317 0
0.469217 -0.0892329 0
0.513293 -0.34931 0
-0.164222 0.24383 0
-0.149057 0.0522844 0
-0.385042 -0.255464 0
-0.445846 0.173963 0
0.403578 -0.132798 0
0.337951 0.658233 0
0.131855 -0.466156 0
0.149339 -0.534474 0
-0.466222 0.566202 0
-0.414975 -0.12714 0
0.203361 -0.211331 0
0.108088 0.61121 0
0.346653 -0.202988 0
0.397783 -0.477836 0
-0.416493 0.453364 0
-0.364523 0.0124113 0
-0.106628 -0.411228 0
-0.203023 0.348602 0
0.466399 0.0227083 0
0.513152 -0.456374 0
-0.16574 0.393495 0
-0.149024 0.263965 0
-0.382034 -0.462434 0
-0.445246 0.152568 0
0.445246 -0.152568 0
0.382034 0.462434 0
0.149024 -0.263965 0
0.16574 -0.393495 0
-0.513152 0.456374 0
-0.466399 -0.0227083 0
0.203023 -0.348602 0
0.106628 0.411228 0
0.364523 -0.0124113 0
0.416493 -0.453364 0
-0.397783 0.477836 0
-0.346653 0.202988 0
-0.108088 -0.61121 0
-0.203361 0.211331 0
0.414975 0.12714 0
0.466222 -0.566202 0
-0.149339 0.534474 0
-0.131855 0.466156 0
-0.337951 -0.658233 0
-0.403578 0.132798 0
0.445846 -0.173963 0
0.385042 0.255464 0
0.149057 -0.0522844 0
0.164222 -0.24383 0
-0.513293 0.34931 0
-0.469217 0.0892329 0
0.185206 -0.485317 0
0.092166 0.200411 0
0.341548 0.161178 0
0.390963 -0.4332 0
-0.34113 0.503017 0
-0.29446 0.390854 0
-0.0907014 -0.780921 0
-0.18111 0.0877196 0
0.322157 0.213584 0
0.378764 -0.667102 0
-0.118395 0.652761 0
-0.101302 0.639369 0
-0.25686 -0.823343 0
-0.324792 0.117058 0
0.405673 -0.193731 0
0.347363 0.057785 0
0.130422 0.147451 0
0.14353 -0.100044 0
-0.464462 0.254335 0
-0.421091 0.196578 0
0.157493 -0.605083 0
0.0724331 -0.000448883 0
0.276111 0.301274 0
0.320297 -0.417788 0
-0.256915 0.522893 0
-0.217923 0.555371 0
-0.0518072 -0.904028 0
-0.134641 -0.0117712 0
0.198422 0.274307 0
0.259815 -0.74652 0
-0.0780606 0.73632 0
-0.0628315 0.767783 0
-0.146666 -0.941207 0
-0.216445 0.106523 0
0.32941 -0.208218 0
0.273936 -0.111408 0
0.0939099 0.314131 0
0.104573 0.0242759 0
-0.369693 0.177369 0
-0.325761 0.286954 0
0.128367 -0.691434 0
0.0553114 -0.171378 0
0.172214 0.396224 0
0.209498 -0.404364 0
-0.157747 0.530252 0
-0.128659 0.677467 0
0.00749022 -0.968547 0
-0.0660532 -0.0812594 0
0.0559408 0.305043 0
0.120031 -0.792728 0
-0.0345831 0.776214 0
-0.0227621 0.84034 0
-0.0180738 -0.999837 0
-0.0886632 0.100905 0
0.225755 -0.213804 0
0.173849 -0.236331 0
0.0424526 0.429571 0
0.050291 0.118029 0
-0.237835 0.120503 0
-0.193449 0.34917 0
0.105401 -0.730186 0
0.0470807 -0.295589 0
0.0393135 0.440111 0
0.0690643 -0.387637 0
-0.0564416 0.518082 0
-0.038071 0.742057 0
0.0825317 -0.967583 0
0.0192808 -0.119485 0
-0.0927132 0.305227 0
-0.0291973 -0.796402 0
0.00567405 0.767357 0
0.0128438 0.851257 0
0.116751 -0.992815 0
0.0471562 0.0984676 0
0.106588 -0.20732 0
0.0594613 -0.30644 0
-0.0192242 0.48107 0
-0.0145632 0.173887 0
-0.0832435 0.0822638 0
-0.0401414 0.37461 0
0.0936665 -0.71162 0
0.0510917 -0.36171 0
-0.108727 0.432834 0
-0.0862852 -0.3611 0
0.0357763 0.480882 0
0.0441482 0.739992 0
0.165968 -0.89964 0
0.113676 -0.129171 0
-0.235458 0.277717 0
-0.176383 -0.751869 0
0.037316 0.708824 0
0.0392683 0.800064 0
0.24563 -0.919618 0
0.179684 0.0963436 0
-0.0142452 -0.186442 0
-0.0548773 -0.317744 0
-0.085006 0.463495 0
-0.0836867 0.189205 0
0.075602 0.0584486 0
0.11431 0.358428 0
0.0947604 -0.632157 0
0.0672002 -0.365493 0
-0.255408 0.379465 0
-0.239502 -0.318678 0
0.110532 0.415638 0
0.110928 0.669268 0
0.249 -0.768567 0
0.208307 -0.115926 0
-0.361297 0.228054 0
-0.31047 -0.657852 0
0.0568594 0.60373 0
0.0539387 0.691275 0
0.357712 -0.785269 0
0.298845 0.0911211 0
-0.122414 -0.150101 0
-0.154396 -0.273421 0
-0.147824 0.38044 0
-0.149595 0.166419 0
0.218482 0.0433058 0
0.249003 0.300407 0
0.106702 -0.495212 0
0.0920862 -0.310628 0
-0.383771 0.289128 0
-0.373422 -0.256329 0
0.162849 0.322371 0
0.158065 0.535342 0
0.322682 -0.583186 0
0.294326 -0.086961 0
-0.46077 0.163429 0
-0.421399 -0.517676 0
0.0632773 0.458726 0
0.0567177 0.533786 0
0.44451 -0.59943 0
0.396678 0.0795903 0
-0.204722 -0.098869 0
-0.225641 -0.183642 0
-0.20017 0.244177 0
-0.204197 0.112849 0
0.326441 0.0307922 0
0.345227 0.205368 0
0.1247 -0.311092 0
0.12034 -0.20845 0
-0.478635 0.173647 0
-0.472952 -0.173238 0
0.191003 0.204228 0
0.18389 0.350542 0
0.379025 -0.356599 0
0.363762 -0.0498895 0
-0.526395 0.0915525 0
-0.500785 -0.338977 0
0.0579832 0.283219 0
0.0496012 0.340039 0
0.500515 -0.375132 0
0.467791 0.0594742 0
-0.250715 -0.0352474 0
-0.258211 -0.0645527 0
-0.234785 0.0742756 0
-0.239667 0.0398834 0
0.384844 0.0156326 0
0.389462 0.0830066 0
0.142575 -0.0959281 0
0.145988 -0.0765012 0
-0.528554 0.0461961 0
-0.526911 -0.0722965 0
0.195849 0.0671899 0
0.1886 0.132682 0
0.411773 -0.105196 0
0.41016 -0.0118 0
-0.553179 0.0196595 0
-0.542645 -0.133006 0
0.0442443 0.0884162 0
0.0359103 0.124979 0
0.523332 -0.127351 0
0.509405 0.0299573 0
