# vtk DataFile Version 3.0
tp3485 cell-vector
ASCII
DATASET UNSTRUCTURED_GRID
POINTS 231 double
0 0 0
0.1 0 0
0.2 0 0
0.3 0 0
0.4 0 0
0.5 0 0
0.6 0 0
0.7 0 0
0.8 0 0
0.9 0 0
1 0 0
0 0.025 0
0.1 0.025 0
0.2 0.025 0
0.3 0.025 0
0.4 0.025 0
0.5 0.025 0
0.6 0.025 0
0.7 0.025 0
0.8 0.025 0
0.9 0.025 0
1 0.025 0
0 0.05 0
0.1 0.05 0
0.2 0.05 0
0.3 0.05 0
0.4 0.05 0
0.5 0.05 0
0.6 0.05 0
0.7 0.05 0
0.8 0.05 0
0.9 0.05 0
1 0.05 0
0 0.075 0
0.1 0.075 0
0.2 0.075 0
0.3 0.075 0
0.4 0.075 0
0.5 0.075 0
0.6 0.075 0
0.7 0.075 0
0.8 0.075 0
0.9 0.075 0
1 0.075 0
0 0.1 0
0.1 0.1 0
0.2 0.1 0
0.3 0.1 0
0.4 0.1 0
0.5 0.1 0
0.6 0.1 0
0.7 0.1 0
0.8 0.1 0
0.9 0.1 0
1 0.1 0
0 0.125 0
0.1 0.125 0
0.2 0.125 0
0.3 0.125 0
0.4 0.125 0
0.5 0.125 0
0.6 0.125 0
0.7 0.125 0
0.8 0.125 0
0.9 0.125 0
1 0.125 0
0 0.15 0
0.1 0.15 0
0.2 0.15 0
0.3 0.15 0
0.4 0.15 0
0.5 0.15 0
0.6 0.15 0
0.7 0.15 0
0.8 0.15 0
0.9 0.15 0
1 0.15 0
0 0.175 0
0.1 0.175 0
0.2 0.175 0
0.3 0.175 0
0.4 0.175 0
0.5 0.175 0
0.6 0.175 0
0.7 0.175 0
0.8 0.175 0
0.9 0.175 0
1 0.175 0
0 0.2 0
0.1 0.2 0
0.2 0.2 0
0.3 0.2 0
0.4 0.2 0
0.5 0.2 0
0.6 0.2 0
0.7 0.2 0
0.8 0.2 0
0.9 0.2 0
1 0.2 0
0 0.225 0
0.1 0.225 0
0.2 0.225 0
0.3 0.225 0
0.4 0.225 0
0.5 0.225 0
0.6 0.225 0
0.7 0.225 0
0.8 0.225 0
0.9 0.225 0
1 0.225 0
0 0.25 0
0.1 0.25 0
0.2 0.25 0
0.3 0.25 0
0.4 0.25 0
0.5 0.25 0
0.6 0.25 0
0.7 0.25 0
0.8 0.25 0
0.9 0.25 0
1 0.25 0
0 0.275 0
0.1 0.275 0
0.2 0.275 0
0.3 0.275 0
0.4 0.275 0
0.5 0.275 0
0.6 0.275 0
0.7 0.275 0
0.8 0.275 0
0.9 0.275 0
1 0.275 0
0 0.3 0
0.1 0.3 0
0.2 0.3 0
0.3 0.3 0
0.4 0.3 0
0.5 0.3 0
0.6 0.3 0
0.7 0.3 0
0.8 0.3 0
0.9 0.3 0
1 0.3 0
0 0.325 0
0.1 0.325 0
0.2 0.325 0
0.3 0.325 0
0.4 0.325 0
0.5 0.325 0
0.6 0.325 0
0.7 0.325 0
0.8 0.325 0
0.9 0.325 0
1 0.325 0
0 0.35 0
0.1 0.35 0
0.2 0.35 0
0.3 0.35 0
0.4 0.35 0
0.5 0.35 0
0.6 0.35 0
0.7 0.35 0
0.8 0.35 0
0.9 0.35 0
1 0.35 0
0 0.375 0
0.1 0.375 0
0.2 0.375 0
0.3 0.375 0
0.4 0.375 0
0.5 0.375 0
0.6 0.375 0
0.7 0.375 0
0.8 0.375 0
0.9 0.375 0
1 0.375 0
0 0.4 0
0.1 0.4 0
0.2 0.4 0
0.3 0.4 0
0.4 0.4 0
0.5 0.4 0
0.6 0.4 0
0.7 0.4 0
0.8 0.4 0
0.9 0.4 0
1 0.4 0
0 0.425 0
0.1 0.425 0
0.2 0.425 0
0.3 0.425 0
0.4 0.425 0
0.5 0.425 0
0.6 0.425 0
0.7 0.425 0
0.8 0.425 0
0.9 0.425 0
1 0.425 0
0 0.45 0
0.1 0.45 0
0.2 0.45 0
0.3 0.45 0
0.4 0.45 0
0.5 0.45 0
0.6 0.45 0
0.7 0.45 0
0.8 0.45 0
0.9 0.45 0
1 0.45 0
0 0.475 0
0.1 0.475 0
0.2 0.475 0
0.3 0.475 0
0.4 0.475 0
0.5 0.475 0
0.6 0.475 0
0.7 0.475 0
0.8 0.475 0
0.9 0.475 0
1 0.475 0
0 0.5 0
0.1 0.5 0
0.2 0.5 0
0.3 0.5 0
0.4 0.5 0
0.5 0.5 0
0.6 0.5 0
0.7 0.5 0
0.8 0.5 0
0.9 0.5 0
1 0.5 0
CELLS 400 1600
3 0 1 12
3 0 12 11
3 1 2 13
3 1 13 12
3 2 3 14
3 2 14 13
3 3 4 15
3 3 15 14
3 4 5 16
3 4 16 15
3 5 6 17
3 5 17 16
3 6 7 18
3 6 18 17
3 7 8 19
3 7 19 18
3 8 9 20
3 8 20 19
3 9 10 21
3 9 21 20
3 11 12 23
3 11 23 22
3 12 13 24
3 12 24 23
3 13 14 25
3 13 25 24
3 14 15 26
3 14 26 25
3 15 16 27
3 15 27 26
3 16 17 28
3 16 28 27
3 17 18 29
3 17 29 28
3 18 19 30
3 18 30 29
3 19 20 31
3 19 31 30
3 20 21 32
3 20 32 31
3 22 23 34
3 22 34 33
3 23 24 35
3 23 35 34
3 24 25 36
3 24 36 35
3 25 26 37
3 25 37 36
3 26 27 38
3 26 38 37
3 27 28 39
3 27 39 38
3 28 29 40
3 28 40 39
3 29 30 41
3 29 41 40
3 30 31 42
3 30 42 41
3 31 32 43
3 31 43 42
3 33 34 45
3 33 45 44
3 34 35 46
3 34 46 45
3 35 36 47
3 35 47 46
3 36 37 48
3 36 48 47
3 37 38 49
3 37 49 48
3 38 39 50
3 38 50 49
3 39 40 51
3 39 51 50
3 40 41 52
3 40 52 51
3 41 42 53
3 41 53 52
3 42 43 54
3 42 54 53
3 44 45 56
3 44 56 55
3 45 46 57
3 45 57 56
3 46 47 58
3 46 58 57
3 47 48 59
3 47 59 58
3 48 49 60
3 48 60 59
3 49 50 61
3 49 61 60
3 50 51 62
3 50 62 61
3 51 52 63
3 51 63 62
3 52 53 64
3 52 64 63
3 53 54 65
3 53 65 64
3 55 56 67
3 55 67 66
3 56 57 68
3 56 68 67
3 57 58 69
3 57 69 68
3 58 59 70
3 58 70 69
3 59 60 71
3 59 71 70
3 60 61 72
3 60 72 71
3 61 62 73
3 61 73 72
3 62 63 74
3 62 74 73
3 63 64 75
3 63 75 74
3 64 65 76
3 64 76 75
3 66 67 78
3 66 78 77
3 67 68 79
3 67 79 78
3 68 69 80
3 68 80 79
3 69 70 81
3 69 81 80
3 70 71 82
3 70 82 81
3 71 72 83
3 71 83 82
3 72 73 84
3 72 84 83
3 73 74 85
3 73 85 84
3 74 75 86
3 74 86 85
3 75 76 87
3 75 87 86
3 77 78 89
3 77 89 88
3 78 79 90
3 78 90 89
3 79 80 91
3 79 91 90
3 80 81 92
3 80 92 91
3 81 82 93
3 81 93 92
3 82 83 94
3 82 94 93
3 83 84 95
3 83 95 94
3 84 85 96
3 84 96 95
3 85 86 97
3 85 97 96
3 86 87 98
3 86 98 97
3 88 89 100
3 88 100 99
3 89 90 101
3 89 101 100
3 90 91 102
3 90 102 101
3 91 92 103
3 91 103 102
3 92 93 104
3 92 104 103
3 93 94 105
3 93 105 104
3 94 95 106
3 94 106 105
3 95 96 107
3 95 107 106
3 96 97 108
3 96 108 107
3 97 98 109
3 97 109 108
3 99 100 111
3 99 111 110
3 100 101 112
3 100 112 111
3 101 102 113
3 101 113 112
3 102 103 114
3 102 114 113
3 103 104 115
3 103 115 114
3 104 105 116
3 104 116 115
3 105 106 117
3 105 117 116
3 106 107 118
3 106 118 117
3 107 108 119
3 107 119 118
3 108 109 120
3 108 120 119
3 110 111 122
3 110 122 121
3 111 112 123
3 111 123 122
3 112 113 124
3 112 124 123
3 113 114 125
3 113 125 124
3 114 115 126
3 114 126 125
3 115 116 127
3 115 127 126
3 116 117 128
3 116 128 127
3 117 118 129
3 117 129 128
3 118 119 130
3 118 130 129
3 119 120 131
3 119 131 130
3 121 122 133
3 121 133 132
3 122 123 134
3 122 134 133
3 123 124 135
3 123 135 134
3 124 125 136
3 124 136 135
3 125 126 137
3 125 137 136
3 126 127 138
3 126 138 137
3 127 128 139
3 127 139 138
3 128 129 140
3 128 140 139
3 129 130 141
3 129 141 140
3 130 131 142
3 130 142 141
3 132 133 144
3 132 144 143
3 133 134 145
3 133 145 144
3 134 135 146
3 134 146 145
3 135 136 147
3 135 147 146
3 136 137 148
3 136 148 147
3 137 138 149
3 137 149 148
3 138 139 150
3 138 150 149
3 139 140 151
3 139 151 150
3 140 141 152
3 140 152 151
3 141 142 153
3 141 153 152
3 143 144 155
3 143 155 154
3 144 145 156
3 144 156 155
3 145 146 157
3 145 157 156
3 146 147 158
3 146 158 157
3 147 148 159
3 147 159 158
3 148 149 160
3 148 160 159
3 149 150 161
3 149 161 160
3 150 151 162
3 150 162 161
3 151 152 163
3 151 163 162
3 152 153 164
3 152 164 163
3 154 155 166
3 154 166 165
3 155 156 167
3 155 167 166
3 156 157 168
3 156 168 167
3 157 158 169
3 157 169 168
3 158 159 170
3 158 170 169
3 159 160 171
3 159 171 170
3 160 161 172
3 160 172 171
3 161 162 173
3 161 173 172
3 162 163 174
3 162 174 173
3 163 164 175
3 163 175 174
3 165 166 177
3 165 177 176
3 166 167 178
3 166 178 177
3 167 168 179
3 167 179 178
3 168 169 180
3 168 180 179
3 169 170 181
3 169 181 180
3 170 171 182
3 170 182 181
3 171 172 183
3 171 183 182
3 172 173 184
3 172 184 183
3 173 174 185
3 173 185 184
3 174 175 186
3 174 186 185
3 176 177 188
3 176 188 187
3 177 178 189
3 177 189 188
3 178 179 190
3 178 190 189
3 179 180 191
3 179 191 190
3 180 181 192
3 180 192 191
3 181 182 193
3 181 193 192
3 182 183 194
3 182 194 193
3 183 184 195
3 183 195 194
3 184 185 196
3 184 196 195
3 185 186 197
3 185 197 196
3 187 188 199
3 187 199 198
3 188 189 200
3 188 200 199
3 189 190 201
3 189 201 200
3 190 191 202
3 190 202 201
3 191 192 203
3 191 203 202
3 192 193 204
3 192 204 203
3 193 194 205
3 193 205 204
3 194 195 206
3 194 206 205
3 195 196 207
3 195 207 206
3 196 197 208
3 196 208 207
3 198 199 210
3 198 210 209
3 199 200 211
3 199 211 210
3 200 201 212
3 200 212 211
3 201 202 213
3 201 213 212
3 202 203 214
3 202 214 213
3 203 204 215
3 203 215 214
3 204 205 216
3 204 216 215
3 205 206 217
3 205 217 216
3 206 207 218
3 206 218 217
3 207 208 219
3 207 219 218
3 209 210 221
3 209 221 220
3 210 211 222
3 210 222 221
3 211 212 223
3 211 223 222
3 212 213 224
3 212 224 223
3 213 214 225
3 213 225 224
3 214 215 226
3 214 226 225
3 215 216 227
3 215 227 226
3 216 217 228
3 216 228 227
3 217 218 229
3 217 229 228
3 218 219 230
3 218 230 229
CELL_TYPES 400
5
5
5
5
5
5
5
5
5
5
5
5
5
5
5
5
5
5
5
5
5
5
5
5
5
5
5
5
5
5
5
5
5
5
5
5
5
5
5
5
5
5
5
5
5
5
5
5
5
5
5
5
5
5
5
5
5
5
5
5
5
5
5
5
5
5
5
5
5
5
5
5
5
5
5
5
5
5
5
5
5
5
5
5
5
5
5
5
5
5
5
5
5
5
5
5
5
5
5
5
5
5
5
5
5
5
5
5
5
5
5
5
5
5
5
5
5
5
5
5
5
5
5
5
5
5
5
5
5
5
5
5
5
5
5
5
5
5
5
5
5
5
5
5
5
5
5
5
5
5
5
5
5
5
5
5
5
5
5
5
5
5
5
5
5
5
5
5
5
5
5
5
5
5
5
5
5
5
5
5
5
5
5
5
5
5
5
5
5
5
5
5
5
5
5
5
5
5
5
5
5
5
5
5
5
5
5
5
5
5
5
5
5
5
5
5
5
5
5
5
5
5
5
5
5
5
5
5
5
5
5
5
5
5
5
5
5
5
5
5
5
5
5
5
5
5
5
5
5
5
5
5
5
5
5
5
5
5
5
5
5
5
5
5
5
5
5
5
5
5
5
5
5
5
5
5
5
5
5
5
5
5
5
5
5
5
5
5
5
5
5
5
5
5
5
5
5
5
5
5
5
5
5
5
5
5
5
5
5
5
5
5
5
5
5
5
5
5
5
5
5
5
5
5
5
5
5
5
5
5
5
5
5
5
5
5
5
5
5
5
5
5
5
5
5
5
5
5
5
5
5
5
5
5
5
5
5
5
5
5
5
5
5
5
5
5
5
5
5
5
5
5
5
5
5
5
5
5
5
5
5
5
5
5
5
5
5
5
5
5
5
5
5
5
5
5
5
5
5
5
CELL_DATA 400
VECTORS Et double
0.0528147 0.197007 0
0.259109 -0.208455 0
0.0519548 0.185432 0
0.256848 -0.220287 0
0.0508037 0.191367 0
0.255721 -0.223737 0
0.0504039 0.210144 0
0.255504 -0.210245 0
0.051142 0.2239 0
0.256109 -0.191435 0
0.0523153 0.219027 0
0.256845 -0.185249 0
0.0527779 0.199772 0
0.256944 -0.198008 0
0.0520486 0.184464 0
0.256221 -0.217687 0
0.0507842 0.187127 0
0.255044 -0.225252 0
0.0500815 0.200326 0
0.253095 -0.213705 0
0.359751 0.177556 0
0.545115 -0.184891 0
0.356065 0.165977 0
0.540802 -0.199349 0
0.352642 0.171632 0
0.537492 -0.203144 0
0.351292 0.1899 0
0.536339 -0.190119 0
0.353008 0.203369 0
0.53793 -0.171771 0
0.356049 0.198705 0
0.540548 -0.165661 0
0.357406 0.179973 0
0.541559 -0.17805 0
0.355618 0.165077 0
0.539803 -0.19726 0
0.352004 0.167997 0
0.536377 -0.204668 0
0.348459 0.18376 0
0.532359 -0.193201 0
0.630897 0.140377 0
0.777319 -0.143537 0
0.625314 0.128971 0
0.771754 -0.159696 0
0.619814 0.134145 0
0.766495 -0.163935 0
0.617561 0.151434 0
0.764465 -0.15178 0
0.620209 0.164302 0
0.767007 -0.134364 0
0.625048 0.159993 0
0.771451 -0.128459 0
0.627286 0.142263 0
0.773371 -0.14015 0
0.624524 0.128181 0
0.770678 -0.15842 0
0.618774 0.131443 0
0.765259 -0.165477 0
0.613297 0.148874 0
0.759961 -0.154274 0
0.839995 0.0890383 0
0.933277 -0.0884611 0
0.833357 0.0780856 0
0.927144 -0.105307 0
0.826074 0.0826156 0
0.92023 -0.109915 0
0.823006 0.0984843 0
0.917411 -0.0989759 0
0.826524 0.110453 0
0.92085 -0.0829293 0
0.833051 0.106629 0
0.927021 -0.0773527 0
0.83614 0.0903442 0
0.929827 -0.0880391 0
0.832529 0.0774201 0
0.926327 -0.104926 0
0.824961 0.0809475 0
0.919229 -0.11147 0
0.818383 0.0990541 0
0.913334 -0.100809 0
0.966868 0.0285447 0
0.998008 -0.025057 0
0.959879 0.0183858 0
0.991842 -0.0415324 0
0.951159 0.0221476 0
0.98358 -0.0463064 0
0.947389 0.0361968 0
0.980079 -0.0368608 0
0.951697 0.0469879 0
0.984338 -0.0225787 0
0.959759 0.0437646 0
0.992091 -0.0174458 0
0.963651 0.0293187 0
0.995739 -0.0268488 0
0.959346 0.0178319 0
0.991576 -0.0419489 0
0.950325 0.0214242 0
0.983131 -0.0478524 0
0.943348 0.0391702 0
0.977173 -0.038068 0
0.999382 -0.0351642 0
0.965457 0.0404857 0
0.992574 -0.0441674 0
0.95961 0.02542 0
0.982767 -0.0412585 0
0.950294 0.0207638 0
0.978421 -0.0293777 0
0.946219 0.0285072 0
0.983418 -0.0200145 0
0.951198 0.0406817 0
0.992827 -0.0225427 0
0.960351 0.0452661 0
0.99745 -0.0348112 0
0.964769 0.0373909 0
0.992614 -0.044647 0
0.96009 0.0244305 0
0.982511 -0.0412639 0
0.950609 0.0192636 0
0.97567 -0.0249053 0
0.944947 0.0278198 0
0.934623 -0.095801 0
0.839068 0.101786 0
0.928335 -0.1033 0
0.833707 0.0890906 0
0.917764 -0.101295 0
0.823592 0.084868 0
0.912969 -0.0918745 0
0.819049 0.0907614 0
0.918534 -0.0841555 0
0.824625 0.100542 0
0.929063 -0.0859154 0
0.834954 0.104487 0
0.934325 -0.0957294 0
0.840045 0.0983436 0
0.929119 -0.103759 0
0.834989 0.0878198 0
0.918275 -0.100887 0
0.824745 0.0834575 0
0.911914 -0.0868707 0
0.819552 0.0904487 0
0.779171 -0.147353 0
0.631436 0.152894 0
0.773546 -0.153041 0
0.626553 0.143389 0
0.762486 -0.151967 0
0.61585 0.139903 0
0.757362 -0.145236 0
0.610937 0.14385 0
0.763354 -0.139339 0
0.616965 0.151012 0
0.774748 -0.140278 0
0.628215 0.154239 0
0.78053 -0.147425 0
0.633857 0.149988 0
0.775102 -0.153543 0
0.628546 0.142136 0
0.76381 -0.151468 0
0.617765 0.138625 0
0.758083 -0.140614 0
0.613038 0.143759 0
0.54844 -0.184679 0
0.363062 0.18887 0
0.543446 -0.188316 0
0.358506 0.183184 0
0.532123 -0.18818 0
0.347387 0.180684 0
0.526776 -0.184304 0
0.342193 0.182627 0
0.533039 -0.180361 0
0.348512 0.187008 0
0.545014 -0.18045 0
0.360402 0.189455 0
0.551177 -0.18478 0
0.366449 0.187209 0
0.545656 -0.18892 0
0.360991 0.1822 0
0.534154 -0.187872 0
0.349855 0.179573 0
0.529037 -0.180814 0
0.345449 0.182624 0
0.265159 -0.204013 0
0.0603352 0.206268 0
0.260625 -0.205445 0
0.0558621 0.204791 0
0.249219 -0.206243 0
0.0444722 0.203445 0
0.243746 -0.205321 0
0.03908 0.203358 0
0.25011 -0.20342 0
0.0455197 0.204854 0
0.262367 -0.202648 0
0.0577483 0.206477 0
0.268753 -0.204076 0
0.0640399 0.206298 0
0.263249 -0.206198 0
0.0585303 0.204237 0
0.251726 -0.206325 0
0.0471897 0.202516 0
0.247057 -0.203464 0
0.04286 0.203347 0
-0.04286 -0.203347 0
-0.247057 0.203464 0
-0.0471897 -0.202516 0
-0.251726 0.206325 0
-0.0585303 -0.204237 0
-0.263249 0.206198 0
-0.0640399 -0.206298 0
-0.268753 0.204076 0
-0.0577483 -0.206477 0
-0.262367 0.202648 0
-0.0455197 -0.204854 0
-0.25011 0.20342 0
-0.03908 -0.203358 0
-0.243746 0.205321 0
-0.0444722 -0.203445 0
-0.249219 0.206243 0
-0.0558621 -0.204791 0
-0.260625 0.205445 0
-0.0603352 -0.206268 0
-0.265159 0.204013 0
-0.345449 -0.182624 0
-0.529037 0.180814 0
-0.349855 -0.179573 0
-0.534154 0.187872 0
-0.360991 -0.1822 0
-0.545656 0.18892 0
-0.366449 -0.187209 0
-0.551177 0.18478 0
-0.360402 -0.189455 0
-0.545014 0.18045 0
-0.348512 -0.187008 0
-0.533039 0.180361 0
-0.342193 -0.182627 0
-0.526776 0.184304 0
-0.347387 -0.180684 0
-0.532123 0.18818 0
-0.358506 -0.183184 0
-0.543446 0.188316 0
-0.363062 -0.18887 0
-0.54844 0.184679 0
-0.613038 -0.143759 0
-0.758083 0.140614 0
-0.617765 -0.138625 0
-0.76381 0.151468 0
-0.628546 -0.142136 0
-0.775102 0.153543 0
-0.633857 -0.149988 0
-0.78053 0.147425 0
-0.628215 -0.154239 0
-0.774748 0.140278 0
-0.616965 -0.151012 0
-0.763354 0.139339 0
-0.610937 -0.14385 0
-0.757362 0.145236 0
-0.61585 -0.139903 0
-0.762486 0.151967 0
-0.626553 -0.143389 0
-0.773546 0.153041 0
-0.631436 -0.152894 0
-0.779171 0.147353 0
-0.819552 -0.0904487 0
-0.911914 0.0868707 0
-0.824745 -0.0834575 0
-0.918275 0.100887 0
-0.834989 -0.0878198 0
-0.929119 0.103759 0
-0.840045 -0.0983436 0
-0.934325 0.0957294 0
-0.834954 -0.104487 0
-0.929063 0.0859154 0
-0.824625 -0.100542 0
-0.918534 0.0841555 0
-0.819049 -0.0907614 0
-0.912969 0.0918745 0
-0.823592 -0.084868 0
-0.917764 0.101295 0
-0.833707 -0.0890906 0
-0.928335 0.1033 0
-0.839068 -0.101786 0
-0.934623 0.095801 0
-0.944947 -0.0278198 0
-0.97567 0.0249053 0
-0.950609 -0.0192636 0
-0.982511 0.0412639 0
-0.96009 -0.0244305 0
-0.992614 0.044647 0
-0.964769 -0.0373909 0
-0.99745 0.0348112 0
-0.960351 -0.0452661 0
-0.992827 0.0225427 0
-0.951198 -0.0406817 0
-0.983418 0.0200145 0
-0.946219 -0.0285072 0
-0.978421 0.0293777 0
-0.950294 -0.0207638 0
-0.982767 0.0412585 0
-0.95961 -0.02542 0
-0.992574 0.0441674 0
-0.965457 -0.0404857 0
-0.999382 0.0351642 0
-0.977173 0.038068 0
-0.943348 -0.0391702 0
-0.983131 0.0478524 0
-0.950325 -0.0214242 0
-0.991576 0.0419489 0
-0.959346 -0.0178319 0
-0.995739 0.0268488 0
-0.963651 -0.0293187 0
-0.992091 0.0174458 0
-0.959759 -0.0437646 0
-0.984338 0.0225787 0
-0.951697 -0.0469879 0
-0.980079 0.0368608 0
-0.947389 -0.0361968 0
-0.98358 0.0463064 0
-0.951159 -0.0221476 0
-0.991842 0.0415324 0
-0.959879 -0.0183858 0
-0.998008 0.025057 0
-0.966868 -0.0285447 0
-0.913334 0.100809 0
-0.818383 -0.0990541 0
-0.919229 0.11147 0
-0.824961 -0.0809475 0
-0.926327 0.104926 0
-0.832529 -0.0774201 0
-0.929827 0.0880391 0
-0.83614 -0.0903442 0
-0.927021 0.0773527 0
-0.833051 -0.106629 0
-0.92085 0.0829293 0
-0.826524 -0.110453 0
-0.917411 0.0989759 0
-0.823006 -0.0984843 0
-0.92023 0.109915 0
-0.826074 -0.0826156 0
-0.927144 0.105307 0
-0.833357 -0.0780856 0
-0.933277 0.0884611 0
-0.839995 -0.0890383 0
-0.759961 0.154274 0
-0.613297 -0.148874 0
-0.765259 0.165477 0
-0.618774 -0.131443 0
-0.770678 0.15842 0
-0.624524 -0.128181 0
-0.773371 0.14015 0
-0.627286 -0.142263 0
-0.771451 0.128459 0
-0.625048 -0.159993 0
-0.767007 0.134364 0
-0.620209 -0.164302 0
-0.764465 0.15178 0
-0.617561 -0.151434 0
-0.766495 0.163935 0
-0.619814 -0.134145 0
-0.771754 0.159696 0
-0.625314 -0.128971 0
-0.777319 0.143537 0
-0.630897 -0.140377 0
-0.532359 0.193201 0
-0.348459 -0.18376 0
-0.536377 0.204668 0
-0.352004 -0.167997 0
-0.539803 0.19726 0
-0.355618 -0.165077 0
-0.541559 0.17805 0
-0.357406 -0.179973 0
-0.540548 0.165661 0
-0.356049 -0.198705 0
-0.53793 0.171771 0
-0.353008 -0.203369 0
-0.536339 0.190119 0
-0.351292 -0.1899 0
-0.537492 0.203144 0
-0.352642 -0.171632 0
-0.540802 0.199349 0
-0.356065 -0.165977 0
-0.545115 0.184891 0
-0.359751 -0.177556 0
-0.253095 0.213705 0
-0.0500815 -0.200326 0
-0.255044 0.225252 0
-0.0507842 -0.187127 0
-0.256221 0.217687 0
-0.0520486 -0.184464 0
-0.256944 0.198008 0
-0.0527779 -0.199772 0
-0.256845 0.185249 0
-0.0523153 -0.219027 0
-0.256109 0.191435 0
-0.051142 -0.2239 0
-0.255504 0.210245 0
-0.0504039 -0.210144 0
-0.255721 0.223737 0
-0.0508037 -0.191367 0
-0.256848 0.220287 0
-0.0519548 -0.185432 0
-0.259109 0.208455 0
-0.0528147 -0.197007 0
