# vtk DataFile Version 3.0
tp3485 cell-vector
ASCII
DATASET UNSTRUCTURED_GRID
POINTS 231 double
0 0 0
0.1 0 0
0.2 0 0
0.3 0 0
0.4 0 0
0.5 0 0
0.6 0 0
0.7 0 0
0.8 0 0
0.9 0 0
1 0 0
0 0.025 0
0.1 0.025 0
0.2 0.025 0
0.3 0.025 0
0.4 0.025 0
0.5 0.025 0
0.6 0.025 0
0.7 0.025 0
0.8 0.025 0
0.9 0.025 0
1 0.025 0
0 0.05 0
0.1 0.05 0
0.2 0.05 0
0.3 0.05 0
0.4 0.05 0
0.5 0.05 0
0.6 0.05 0
0.7 0.05 0
0.8 0.05 0
0.9 0.05 0
1 0.05 0
0 0.075 0
0.1 0.075 0
0.2 0.075 0
0.3 0.075 0
0.4 0.075 0
0.5 0.075 0
0.6 0.075 0
0.7 0.075 0
0.8 0.075 0
0.9 0.075 0
1 0.075 0
0 0.1 0
0.1 0.1 0
0.2 0.1 0
0.3 0.1 0
0.4 0.1 0
0.5 0.1 0
0.6 0.1 0
0.7 0.1 0
0.8 0.1 0
0.9 0.1 0
1 0.1 0
0 0.125 0
0.1 0.125 0
0.2 0.125 0
0.3 0.125 0
0.4 0.125 0
0.5 0.125 0
0.6 0.125 0
0.7 0.125 0
0.8 0.125 0
0.9 0.125 0
1 0.125 0
0 0.15 0
0.1 0.15 0
0.2 0.15 0
0.3 0.15 0
0.4 0.15 0
0.5 0.15 0
0.6 0.15 0
0.7 0.15 0
0.8 0.15 0
0.9 0.15 0
1 0.15 0
0 0.175 0
0.1 0.175 0
0.2 0.175 0
0.3 0.175 0
0.4 0.175 0
0.5 0.175 0
0.6 0.175 0
0.7 0.175 0
0.8 0.175 0
0.9 0.175 0
1 0.175 0
0 0.2 0
0.1 0.2 0
0.2 0.2 0
0.3 0.2 0
0.4 0.2 0
0.5 0.2 0
0.6 0.2 0
0.7 0.2 0
0.8 0.2 0
0.9 0.2 0
1 0.2 0
0 0.225 0
0.1 0.225 0
0.2 0.225 0
0.3 0.225 0
0.4 0.225 0
0.5 0.225 0
0.6 0.225 0
0.7 0.225 0
0.8 0.225 0
0.9 0.225 0
1 0.225 0
0 0.25 0
0.1 0.25 0
0.2 0.25 0
0.3 0.25 0
0.4 0.25 0
0.5 0.25 0
0.6 0.25 0
0.7 0.25 0
0.8 0.25 0
0.9 0.25 0
1 0.25 0
0 0.275 0
0.1 0.275 0
0.2 0.275 0
0.3 0.275 0
0.4 0.275 0
0.5 0.275 0
0.6 0.275 0
0.7 0.275 0
0.8 0.275 0
0.9 0.275 0
1 0.275 0
0 0.3 0
0.1 0.3 0
0.2 0.3 0
0.3 0.3 0
0.4 0.3 0
0.5 0.3 0
0.6 0.3 0
0.7 0.3 0
0.8 0.3 0
0.9 0.3 0
1 0.3 0
0 0.325 0
0.1 0.325 0
0.2 0.325 0
0.3 0.325 0
0.4 0.325 0
0.5 0.325 0
0.6 0.325 0
0.7 0.325 0
0.8 0.325 0
0.9 0.325 0
1 0.325 0
0 0.35 0
0.1 0.35 0
0.2 0.35 0
0.3 0.35 0
0.4 0.35 0
0.5 0.35 0
0.6 0.35 0
0.7 0.35 0
0.8 0.35 0
0.9 0.35 0
1 0.35 0
0 0.375 0
0.1 0.375 0
0.2 0.375 0
0.3 0.375 0
0.4 0.375 0
0.5 0.375 0
0.6 0.375 0
0.7 0.375 0
0.8 0.375 0
0.9 0.375 0
1 0.375 0
0 0.4 0
0.1 0.4 0
0.2 0.4 0
0.3 0.4 0
0.4 0.4 0
0.5 0.4 0
0.6 0.4 0
0.7 0.4 0
0.8 0.4 0
0.9 0.4 0
1 0.4 0
0 0.425 0
0.1 0.425 0
0.2 0.425 0
0.3 0.425 0
0.4 0.425 0
0.5 0.425 0
0.6 0.425 0
0.7 0.425 0
0.8 0.425 0
0.9 0.425 0
1 0.425 0
0 0.45 0
0.1 0.45 0
0.2 0.45 0
0.3 0.45 0
0.4 0.45 0
0.5 0.45 0
0.6 0.45 0
0.7 0.45 0
0.8 0.45 0
0.9 0.45 0
1 0.45 0
0 0.475 0
0.1 0.475 0
0.2 0.475 0
0.3 0.475 0
0.4 0.475 0
0.5 0.475 0
0.6 0.475 0
0.7 0.475 0
0.8 0.475 0
0.9 0.475 0
1 0.475 0
0 0.5 0
0.1 0.5 0
0.2 0.5 0
0.3 0.5 0
0.4 0.5 0
0.5 0.5 0
0.6 0.5 0
0.7 0.5 0
0.8 0.5 0
0.9 0.5 0
1 0.5 0
CELLS 400 1600
3 0 1 12
3 0 12 11
3 1 2 13
3 1 13 12
3 2 3 14
3 2 14 13
3 3 4 15
3 3 15 14
3 4 5 16
3 4 16 15
3 5 6 17
3 5 17 16
3 6 7 18
3 6 18 17
3 7 8 19
3 7 19 18
3 8 9 20
3 8 20 19
3 9 10 21
3 9 21 20
3 11 12 23
3 11 23 22
3 12 13 24
3 12 24 23
3 13 14 25
3 13 25 24
3 14 15 26
3 14 26 25
3 15 16 27
3 15 27 26
3 16 17 28
3 16 28 27
3 17 18 29
3 17 29 28
3 18 19 30
3 18 30 29
3 19 20 31
3 19 31 30
3 20 21 32
3 20 32 31
3 22 23 34
3 22 34 33
3 23 24 35
3 23 35 34
3 24 25 36
3 24 36 35
3 25 26 37
3 25 37 36
3 26 27 38
3 26 38 37
3 27 28 39
3 27 39 38
3 28 29 40
3 28 40 39
3 29 30 41
3 29 41 40
3 30 31 42
3 30 42 41
3 31 32 43
3 31 43 42
3 33 34 45
3 33 45 44
3 34 35 46
3 34 46 45
3 35 36 47
3 35 47 46
3 36 37 48
3 36 48 47
3 37 38 49
3 37 49 48
3 38 39 50
3 38 50 49
3 39 40 51
3 39 51 50
3 40 41 52
3 40 52 51
3 41 42 53
3 41 53 52
3 42 43 54
3 42 54 53
3 44 45 56
3 44 56 55
3 45 46 57
3 45 57 56
3 46 47 58
3 46 58 57
3 47 48 59
3 47 59 58
3 48 49 60
3 48 60 59
3 49 50 61
3 49 61 60
3 50 51 62
3 50 62 61
3 51 52 63
3 51 63 62
3 52 53 64
3 52 64 63
3 53 54 65
3 53 65 64
3 55 56 67
3 55 67 66
3 56 57 68
3 56 68 67
3 57 58 69
3 57 69 68
3 58 59 70
3 58 70 69
3 59 60 71
3 59 71 70
3 60 61 72
3 60 72 71
3 61 62 73
3 61 73 72
3 62 63 74
3 62 74 73
3 63 64 75
3 63 75 74
3 64 65 76
3 64 76 75
3 66 67 78
3 66 78 77
3 67 68 79
3 67 79 78
3 68 69 80
3 68 80 79
3 69 70 81
3 69 81 80
3 70 71 82
3 70 82 81
3 71 72 83
3 71 83 82
3 72 73 84
3 72 84 83
3 73 74 85
3 73 85 84
3 74 75 86
3 74 86 85
3 75 76 87
3 75 87 86
3 77 78 89
3 77 89 88
3 78 79 90
3 78 90 89
3 79 80 91
3 79 91 90
3 80 81 92
3 80 92 91
3 81 82 93
3 81 93 92
3 82 83 94
3 82 94 93
3 83 84 95
3 83 95 94
3 84 85 96
3 84 96 95
3 85 86 97
3 85 97 96
3 86 87 98
3 86 98 97
3 88 89 100
3 88 100 99
3 89 90 101
3 89 101 100
3 90 91 102
3 90 102 101
3 91 92 103
3 91 103 102
3 92 93 104
3 92 104 103
3 93 94 105
3 93 105 104
3 94 95 106
3 94 106 105
3 95 96 107
3 95 107 106
3 96 97 108
3 96 108 107
3 97 98 109
3 97 109 108
3 99 100 111
3 99 111 110
3 100 101 112
3 100 112 111
3 101 102 113
3 101 113 112
3 102 103 114
3 102 114 113
3 103 104 115
3 103 115 114
3 104 105 116
3 104 116 115
3 105 106 117
3 105 117 116
3 106 107 118
3 106 118 117
3 107 108 119
3 107 119 118
3 108 109 120
3 108 120 119
3 110 111 122
3 110 122 121
3 111 112 123
3 111 123 122
3 112 113 124
3 112 124 123
3 113 114 125
3 113 125 124
3 114 115 126
3 114 126 125
3 115 116 127
3 115 127 126
3 116 117 128
3 116 128 127
3 117 118 129
3 117 129 128
3 118 119 130
3 118 130 129
3 119 120 131
3 119 131 130
3 121 122 133
3 121 133 132
3 122 123 134
3 122 134 133
3 123 124 135
3 123 135 134
3 124 125 136
3 124 136 135
3 125 126 137
3 125 137 136
3 126 127 138
3 126 138 137
3 127 128 139
3 127 139 138
3 128 129 140
3 128 140 139
3 129 130 141
3 129 141 140
3 130 131 142
3 130 142 141
3 132 133 144
3 132 144 143
3 133 134 145
3 133 145 144
3 134 135 146
3 134 146 145
3 135 136 147
3 135 147 146
3 136 137 148
3 136 148 147
3 137 138 149
3 137 149 148
3 138 139 150
3 138 150 149
3 139 140 151
3 139 151 150
3 140 141 152
3 140 152 151
3 141 142 153
3 141 153 152
3 143 144 155
3 143 155 154
3 144 145 156
3 144 156 155
3 145 146 157
3 145 157 156
3 146 147 158
3 146 158 157
3 147 148 159
3 147 159 158
3 148 149 160
3 148 160 159
3 149 150 161
3 149 161 160
3 150 151 162
3 150 162 161
3 151 152 163
3 151 163 162
3 152 153 164
3 152 164 163
3 154 155 166
3 154 166 165
3 155 156 167
3 155 167 166
3 156 157 168
3 156 168 167
3 157 158 169
3 157 169 168
3 158 159 170
3 158 170 169
3 159 160 171
3 159 171 170
3 160 161 172
3 160 172 171
3 161 162 173
3 161 173 172
3 162 163 174
3 162 174 173
3 163 164 175
3 163 175 174
3 165 166 177
3 165 177 176
3 166 167 178
3 166 178 177
3 167 168 179
3 167 179 178
3 168 169 180
3 168 180 179
3 169 170 181
3 169 181 180
3 170 171 182
3 170 182 181
3 171 172 183
3 171 183 182
3 172 173 184
3 172 184 183
3 173 174 185
3 173 185 184
3 174 175 186
3 174 186 185
3 176 177 188
3 176 188 187
3 177 178 189
3 177 189 188
3 178 179 190
3 178 190 189
3 179 180 191
3 179 191 190
3 180 181 192
3 180 192 191
3 181 182 193
3 181 193 192
3 182 183 194
3 182 194 193
3 183 184 195
3 183 195 194
3 184 185 196
3 184 196 195
3 185 186 197
3 185 197 196
3 187 188 199
3 187 199 198
3 188 189 200
3 188 200 199
3 189 190 201
3 189 201 200
3 190 191 202
3 190 202 201
3 191 192 203
3 191 203 202
3 192 193 204
3 192 204 203
3 193 194 205
3 193 205 204
3 194 195 206
3 194 206 205
3 195 196 207
3 195 207 206
3 196 197 208
3 196 208 207
3 198 199 210
3 198 210 209
3 199 200 211
3 199 211 210
3 200 201 212
3 200 212 211
3 201 202 213
3 201 213 212
3 202 203 214
3 202 214 213
3 203 204 215
3 203 215 214
3 204 205 216
3 204 216 215
3 205 206 217
3 205 217 216
3 206 207 218
3 206 218 217
3 207 208 219
3 207 219 218
3 209 210 221
3 209 221 220
3 210 211 222
3 210 222 221
3 211 212 223
3 211 223 222
3 212 213 224
3 212 224 223
3 213 214 225
3 213 225 224
3 214 215 226
3 214 226 225
3 215 216 227
3 215 227 226
3 216 217 228
3 216 228 227
3 217 218 229
3 217 229 228
3 218 219 230
3 218 230 229
CELL_TYPES 400
5
5
5
5
5
5
5
5
5
5
5
5
5
5
5
5
5
5
5
5
5
5
5
5
5
5
5
5
5
5
5
5
5
5
5
5
5
5
5
5
5
5
5
5
5
5
5
5
5
5
5
5
5
5
5
5
5
5
5
5
5
5
5
5
5
5
5
5
5
5
5
5
5
5
5
5
5
5
5
5
5
5
5
5
5
5
5
5
5
5
5
5
5
5
5
5
5
5
5
5
5
5
5
5
5
5
5
5
5
5
5
5
5
5
5
5
5
5
5
5
5
5
5
5
5
5
5
5
5
5
5
5
5
5
5
5
5
5
5
5
5
5
5
5
5
5
5
5
5
5
5
5
5
5
5
5
5
5
5
5
5
5
5
5
5
5
5
5
5
5
5
5
5
5
5
5
5
5
5
5
5
5
5
5
5
5
5
5
5
5
5
5
5
5
5
5
5
5
5
5
5
5
5
5
5
5
5
5
5
5
5
5
5
5
5
5
5
5
5
5
5
5
5
5
5
5
5
5
5
5
5
5
5
5
5
5
5
5
5
5
5
5
5
5
5
5
5
5
5
5
5
5
5
5
5
5
5
5
5
5
5
5
5
5
5
5
5
5
5
5
5
5
5
5
5
5
5
5
5
5
5
5
5
5
5
5
5
5
5
5
5
5
5
5
5
5
5
5
5
5
5
5
5
5
5
5
5
5
5
5
5
5
5
5
5
5
5
5
5
5
5
5
5
5
5
5
5
5
5
5
5
5
5
5
5
5
5
5
5
5
5
5
5
5
5
5
5
5
5
5
5
5
5
5
5
5
5
5
5
5
5
5
5
5
5
5
5
5
5
5
5
5
5
5
5
5
5
5
5
5
5
5
5
5
5
5
5
5
5
5
5
5
5
5
5
5
5
5
5
5
CELL_DATA 400
VECTORS Ht double
0.309848 -0.156983 0
0.267661 -0.077462 0
0.81123 -0.160687 0
0.705362 0.0316378 0
0.995825 -0.0912809 0
0.874608 0.114538 0
0.745173 0.0175245 0
0.659547 0.153944 0
0.171571 0.102288 0
0.154115 0.125876 0
-0.403073 0.146109 0
-0.347821 0.0413726 0
-0.793983 0.149426 0
-0.687602 -0.0483812 0
-0.939853 0.0961511 0
-0.821157 -0.112959 0
-0.748659 0.00594717 0
-0.658925 -0.14395 0
-0.27859 -0.0696474 0
-0.245764 -0.123465 0
0.219578 -0.38574 0
0.116278 -0.199272 0
0.593968 -0.414551 0
0.326746 0.0573717 0
0.74464 -0.25459 0
0.425589 0.288423 0
0.5677 0.0174329 0
0.330448 0.415253 0
0.138737 0.238758 0
0.0750369 0.359566 0
-0.288607 0.361479 0
-0.159356 0.137223 0
-0.578877 0.38511 0
-0.309154 -0.106239 0
-0.697616 0.263324 0
-0.386573 -0.285569 0
-0.564996 0.0391189 0
-0.320187 -0.384835 0
-0.216089 -0.185111 0
-0.123358 -0.347153 0
0.0492947 -0.465467 0
-0.0753472 -0.240665 0
0.15367 -0.514486 0
-0.172509 0.0583876 0
0.213747 -0.325367 0
-0.182794 0.348628 0
0.172564 0.0128476 0
-0.1275 0.520111 0
0.0387603 0.282609 0
-0.0487598 0.461456 0
-0.0736408 0.432736 0
0.0782701 0.180071 0
-0.139894 0.473945 0
0.188322 -0.123483 0
-0.186563 0.332373 0
0.196672 -0.343381 0
-0.161237 0.0587565 0
0.145671 -0.476813 0
-0.0656154 -0.232354 0
0.0519819 -0.439903 0
-0.135005 -0.36699 0
-0.233345 -0.188077 0
-0.340716 -0.422795 0
-0.602004 0.0356287 0
-0.396941 -0.27503 0
-0.721302 0.273564 0
-0.292507 0.0113106 0
-0.540889 0.429842 0
-0.0911492 0.220178 0
-0.16824 0.392968 0
0.157803 0.331525 0
0.274955 0.148506 0
0.351538 0.381701 0
0.612327 -0.0982182 0
0.396078 0.274962 0
0.70314 -0.26436 0
0.309207 0.055464 0
0.560412 -0.384934 0
0.116078 -0.190339 0
0.213725 -0.364906 0
-0.262791 -0.128923 0
-0.29742 -0.0640429 0
-0.701197 -0.173794 0
-0.799245 -0.000672061 0
-0.85741 -0.121165 0
-0.987378 0.093442 0
-0.650753 0.0179456 0
-0.750913 0.17921 0
-0.197714 0.0780946 0
-0.231606 0.179911 0
0.319585 0.0964853 0
0.360289 0.0504655 0
0.705599 0.144198 0
0.800387 -0.0440252 0
0.825103 0.111063 0
0.936619 -0.0794362 0
0.665682 0.0284808 0
0.763883 -0.145498 0
0.25934 -0.0720728 0
0.299633 -0.149666 0
-0.285819 0.157466 0
-0.243667 0.0817667 0
-0.792006 0.139103 0
-0.691044 -0.0350579 0
-0.994667 0.0782836 0
-0.881926 -0.121757 0
-0.763864 0.0321439 0
-0.674615 -0.137056 0
-0.232794 -0.0880001 0
-0.205907 -0.0968815 0
0.355785 -0.181953 0
0.308916 -0.0785583 0
0.787074 -0.146226 0
0.682009 0.0165667 0
0.934267 -0.0981191 0
0.8059 0.140131 0
0.769836 -0.0137991 0
0.675925 0.147976 0
0.308335 0.0799194 0
0.275758 0.124051 0
-0.196279 0.38324 0
-0.0933957 0.191753 0
-0.580701 0.398735 0
-0.320715 -0.0528816 0
-0.75828 0.246604 0
-0.446797 -0.289274 0
-0.585672 0.0471903 0
-0.337853 -0.400356 0
-0.174038 -0.215329 0
-0.0924472 -0.332013 0
0.260088 -0.396654 0
0.147655 -0.188466 0
0.566592 -0.376177 0
0.304721 0.0613679 0
0.680534 -0.273228 0
0.360144 0.310624 0
0.579324 -0.0568298 0
0.327852 0.380882 0
0.242694 0.209532 0
0.149762 0.351281 0
-0.0294466 0.463257 0
0.0952963 0.222464 0
-0.149793 0.508567 0
0.169107 -0.0459825 0
-0.239386 0.31763 0
0.151325 -0.345187 0
-0.181174 0.0532216 0
0.133166 -0.513171 0
-0.0363283 -0.257821 0
0.0708965 -0.435608 0
0.0754863 -0.465103 0
-0.0574209 -0.233954 0
0.130738 -0.455003 0
-0.185351 0.0767385 0
0.160872 -0.347073 0
-0.229753 0.36806 0
0.164844 -0.0853355 0
-0.148796 0.461806 0
0.0857062 0.268399 0
-0.0316374 0.444094 0
0.150059 0.368347 0
0.249886 0.161125 0
0.335312 0.429209 0
0.591296 -0.0158386 0
0.364138 0.261575 0
0.684562 -0.26859 0
0.296964 0.0422964 0
0.559115 -0.435783 0
0.131385 -0.202824 0
0.222338 -0.36772 0
-0.124579 -0.361081 0
-0.228016 -0.19288 0
-0.352313 -0.350045 0
-0.600373 0.0616319 0
-0.424834 -0.29056 0
-0.736659 0.292333 0
-0.316257 -0.0890969 0
-0.572128 0.35791 0
-0.104203 0.234439 0
-0.200245 0.365552 0
0.273089 0.136013 0
0.311133 0.0303811 0
0.689705 0.193175 0
0.785686 0.0269891 0
0.823116 0.0972697 0
0.950759 -0.0892255 0
0.665986 0.0132213 0
0.775887 -0.200834 0
0.263575 -0.0746027 0
0.299648 -0.153848 0
-0.265521 -0.124555 0
-0.30372 -0.076239 0
-0.697966 -0.0997002 0
-0.782982 0.026307 0
-0.850507 -0.124222 0
-0.964387 0.114195 0
-0.679874 -0.0668818 0
-0.779423 0.107781 0
-0.255565 0.120487 0
-0.292339 0.144289 0
0.292339 -0.144289 0
0.255565 -0.120487 0
0.779423 -0.107781 0
0.679874 0.0668818 0
0.964387 -0.114195 0
0.850507 0.124222 0
0.782982 -0.026307 0
0.697966 0.0997002 0
0.30372 0.076239 0
0.265521 0.124555 0
-0.299648 0.153848 0
-0.263575 0.0746027 0
-0.775887 0.200834 0
-0.665986 -0.0132213 0
-0.950759 0.0892255 0
-0.823116 -0.0972697 0
-0.785686 -0.0269891 0
-0.689705 -0.193175 0
-0.311133 -0.0303811 0
-0.273089 -0.136013 0
0.200245 -0.365552 0
0.104203 -0.234439 0
0.572128 -0.35791 0
0.316257 0.0890969 0
0.736659 -0.292333 0
0.424834 0.29056 0
0.600373 -0.0616319 0
0.352313 0.350045 0
0.228016 0.19288 0
0.124579 0.361081 0
-0.222338 0.36772 0
-0.131385 0.202824 0
-0.559115 0.435783 0
-0.296964 -0.0422964 0
-0.684562 0.26859 0
-0.364138 -0.261575 0
-0.591296 0.0158386 0
-0.335312 -0.429209 0
-0.249886 -0.161125 0
-0.150059 -0.368347 0
0.0316374 -0.444094 0
-0.0857062 -0.268399 0
0.148796 -0.461806 0
-0.164844 0.0853355 0
0.229753 -0.36806 0
-0.160872 0.347073 0
0.185351 -0.0767385 0
-0.130738 0.455003 0
0.0574209 0.233954 0
-0.0754863 0.465103 0
-0.0708965 0.435608 0
0.0363283 0.257821 0
-0.133166 0.513171 0
0.181174 -0.0532216 0
-0.151325 0.345187 0
0.239386 -0.31763 0
-0.169107 0.0459825 0
0.149793 -0.508567 0
-0.0952963 -0.222464 0
0.0294466 -0.463257 0
-0.149762 -0.351281 0
-0.242694 -0.209532 0
-0.327852 -0.380882 0
-0.579324 0.0568298 0
-0.360144 -0.310624 0
-0.680534 0.273228 0
-0.304721 -0.0613679 0
-0.566592 0.376177 0
-0.147655 0.188466 0
-0.260088 0.396654 0
0.0924472 0.332013 0
0.174038 0.215329 0
0.337853 0.400356 0
0.585672 -0.0471903 0
0.446797 0.289274 0
0.75828 -0.246604 0
0.320715 0.0528816 0
0.580701 -0.398735 0
0.0933957 -0.191753 0
0.196279 -0.38324 0
-0.275758 -0.124051 0
-0.308335 -0.0799194 0
-0.675925 -0.147976 0
-0.769836 0.0137991 0
-0.8059 -0.140131 0
-0.934267 0.0981191 0
-0.682009 -0.0165667 0
-0.787074 0.146226 0
-0.308916 0.0785583 0
-0.355785 0.181953 0
0.205907 0.0968815 0
0.232794 0.0880001 0
0.674615 0.137056 0
0.763864 -0.0321439 0
0.881926 0.121757 0
0.994667 -0.0782836 0
0.691044 0.0350579 0
0.792006 -0.139103 0
0.243667 -0.0817667 0
0.285819 -0.157466 0
-0.299633 0.149666 0
-0.25934 0.0720728 0
-0.763883 0.145498 0
-0.665682 -0.0284808 0
-0.936619 0.0794362 0
-0.825103 -0.111063 0
-0.800387 0.0440252 0
-0.705599 -0.144198 0
-0.360289 -0.0504655 0
-0.319585 -0.0964853 0
0.231606 -0.179911 0
0.197714 -0.0780946 0
0.750913 -0.17921 0
0.650753 -0.0179456 0
0.987378 -0.093442 0
0.85741 0.121165 0
0.799245 0.000672061 0
0.701197 0.173794 0
0.29742 0.0640429 0
0.262791 0.128923 0
-0.213725 0.364906 0
-0.116078 0.190339 0
-0.560412 0.384934 0
-0.309207 -0.055464 0
-0.70314 0.26436 0
-0.396078 -0.274962 0
-0.612327 0.0982182 0
-0.351538 -0.381701 0
-0.274955 -0.148506 0
-0.157803 -0.331525 0
0.16824 -0.392968 0
0.0911492 -0.220178 0
0.540889 -0.429842 0
0.292507 -0.0113106 0
0.721302 -0.273564 0
0.396941 0.27503 0
0.602004 -0.0356287 0
0.340716 0.422795 0
0.233345 0.188077 0
0.135005 0.36699 0
-0.0519819 0.439903 0
0.0656154 0.232354 0
-0.145671 0.476813 0
0.161237 -0.0587565 0
-0.196672 0.343381 0
0.186563 -0.332373 0
-0.188322 0.123483 0
0.139894 -0.473945 0
-0.0782701 -0.180071 0
0.0736408 -0.432736 0
0.0487598 -0.461456 0
-0.0387603 -0.282609 0
0.1275 -0.520111 0
-0.172564 -0.0128476 0
0.182794 -0.348628 0
-0.213747 0.325367 0
0.172509 -0.0583876 0
-0.15367 0.514486 0
0.0753472 0.240665 0
-0.0492947 0.465467 0
0.123358 0.347153 0
0.216089 0.185111 0
0.320187 0.384835 0
0.564996 -0.0391189 0
0.386573 0.285569 0
0.697616 -0.263324 0
0.309154 0.106239 0
0.578877 -0.38511 0
0.159356 -0.137223 0
0.288607 -0.361479 0
-0.0750369 -0.359566 0
-0.138737 -0.238758 0
-0.330448 -0.415253 0
-0.5677 -0.0174329 0
-0.425589 -0.288423 0
-0.74464 0.25459 0
-0.326746 -0.0573717 0
-0.593968 0.414551 0
-0.116278 0.199272 0
-0.219578 0.38574 0
0.245764 0.123465 0
0.27859 0.0696474 0
0.658925 0.14395 0
0.748659 -0.00594717 0
0.821157 0.112959 0
0.939853 -0.0961511 0
0.687602 0.0483812 0
0.793983 -0.149426 0
0.347821 -0.0413726 0
0.403073 -0.146109 0
-0.154115 -0.125876 0
-0.171571 -0.102288 0
-0.659547 -0.153944 0
-0.745173 -0.0175245 0
-0.874608 -0.114538 0
-0.995825 0.0912809 0
-0.705362 -0.0316378 0
-0.81123 0.160687 0
-0.267661 0.077462 0
-0.309848 0.156983 0
