# vtk DataFile Version 3.0
tp3485 cell-vector
ASCII
DATASET UNSTRUCTURED_GRID
POINTS 231 double
0 0 0
0.1 0 0
0.2 0 0
0.3 0 0
0.4 0 0
0.5 0 0
0.6 0 0
0.7 0 0
0.8 0 0
0.9 0 0
1 0 0
0 0.025 0
0.1 0.025 0
0.2 0.025 0
0.3 0.025 0
0.4 0.025 0
0.5 0.025 0
0.6 0.025 0
0.7 0.025 0
0.8 0.025 0
0.9 0.025 0
1 0.025 0
0 0.05 0
0.1 0.05 0
0.2 0.05 0
0.3 0.05 0
0.4 0.05 0
0.5 0.05 0
0.6 0.05 0
0.7 0.05 0
0.8 0.05 0
0.9 0.05 0
1 0.05 0
0 0.075 0
0.1 0.075 0
0.2 0.075 0
0.3 0.075 0
0.4 0.075 0
0.5 0.075 0
0.6 0.075 0
0.7 0.075 0
0.8 0.075 0
0.9 0.075 0
1 0.075 0
0 0.1 0
0.1 0.1 0
0.2 0.1 0
0.3 0.1 0
0.4 0.1 0
0.5 0.1 0
0.6 0.1 0
0.7 0.1 0
0.8 0.1 0
0.9 0.1 0
1 0.1 0
0 0.125 0
0.1 0.125 0
0.2 0.125 0
0.3 0.125 0
0.4 0.125 0
0.5 0.125 0
0.6 0.125 0
0.7 0.125 0
0.8 0.125 0
0.9 0.125 0
1 0.125 0
0 0.15 0
0.1 0.15 0
0.2 0.15 0
0.3 0.15 0
0.4 0.15 0
0.5 0.15 0
0.6 0.15 0
0.7 0.15 0
0.8 0.15 0
0.9 0.15 0
1 0.15 0
0 0.175 0
0.1 0.175 0
0.2 0.175 0
0.3 0.175 0
0.4 0.175 0
0.5 0.175 0
0.6 0.175 0
0.7 0.175 0
0.8 0.175 0
0.9 0.175 0
1 0.175 0
0 0.2 0
0.1 0.2 0
0.2 0.2 0
0.3 0.2 0
0.4 0.2 0
0.5 0.2 0
0.6 0.2 0
0.7 0.2 0
0.8 0.2 0
0.9 0.2 0
1 0.2 0
0 0.225 0
0.1 0.225 0
0.2 0.225 0
0.3 0.225 0
0.4 0.225 0
0.5 0.225 0
0.6 0.225 0
0.7 0.225 0
0.8 0.225 0
0.9 0.225 0
1 0.225 0
0 0.25 0
0.1 0.25 0
0.2 0.25 0
0.3 0.25 0
0.4 0.25 0
0.5 0.25 0
0.6 0.25 0
0.7 0.25 0
0.8 0.25 0
0.9 0.25 0
1 0.25 0
0 0.275 0
0.1 0.275 0
0.2 0.275 0
0.3 0.275 0
0.4 0.275 0
0.5 0.275 0
0.6 0.275 0
0.7 0.275 0
0.8 0.275 0
0.9 0.275 0
1 0.275 0
0 0.3 0
0.1 0.3 0
0.2 0.3 0
0.3 0.3 0
0.4 0.3 0
0.5 0.3 0
0.6 0.3 0
0.7 0.3 0
0.8 0.3 0
0.9 0.3 0
1 0.3 0
0 0.325 0
0.1 0.325 0
0.2 0.325 0
0.3 0.325 0
0.4 0.325 0
0.5 0.325 0
0.6 0.325 0
0.7 0.325 0
0.8 0.325 0
0.9 0.325 0
1 0.325 0
0 0.35 0
0.1 0.35 0
0.2 0.35 0
0.3 0.35 0
0.4 0.35 0
0.5 0.35 0
0.6 0.35 0
0.7 0.35 0
0.8 0.35 0
0.9 0.35 0
1 0.35 0
0 0.375 0
0.1 0.375 0
0.2 0.375 0
0.3 0.375 0
0.4 0.375 0
0.5 0.375 0
0.6 0.375 0
0.7 0.375 0
0.8 0.375 0
0.9 0.375 0
1 0.375 0
0 0.4 0
0.1 0.4 0
0.2 0.4 0
0.3 0.4 0
0.4 0.4 0
0.5 0.4 0
0.6 0.4 0
0.7 0.4 0
0.8 0.4 0
0.9 0.4 0
1 0.4 0
0 0.425 0
0.1 0.425 0
0.2 0.425 0
0.3 0.425 0
0.4 0.425 0
0.5 0.425 0
0.6 0.425 0
0.7 0.425 0
0.8 0.425 0
0.9 0.425 0
1 0.425 0
0 0.45 0
0.1 0.45 0
0.2 0.45 0
0.3 0.45 0
0.4 0.45 0
0.5 0.45 0
0.6 0.45 0
0.7 0.45 0
0.8 0.45 0
0.9 0.45 0
1 0.45 0
0 0.475 0
0.1 0.475 0
0.2 0.475 0
0.3 0.475 0
0.4 0.475 0
0.5 0.475 0
0.6 0.475 0
0.7 0.475 0
0.8 0.475 0
0.9 0.475 0
1 0.475 0
0 0.5 0
0.1 0.5 0
0.2 0.5 0
0.3 0.5 0
0.4 0.5 0
0.5 0.5 0
0.6 0.5 0
0.7 0.5 0
0.8 0.5 0
0.9 0.5 0
1 0.5 0
CELLS 400 1600
3 0 1 12
3 0 12 11
3 1 2 13
3 1 13 12
3 2 3 14
3 2 14 13
3 3 4 15
3 3 15 14
3 4 5 16
3 4 16 15
3 5 6 17
3 5 17 16
3 6 7 18
3 6 18 17
3 7 8 19
3 7 19 18
3 8 9 20
3 8 20 19
3 9 10 21
3 9 21 20
3 11 12 23
3 11 23 22
3 12 13 24
3 12 24 23
3 13 14 25
3 13 25 24
3 14 15 26
3 14 26 25
3 15 16 27
3 15 27 26
3 16 17 28
3 16 28 27
3 17 18 29
3 17 29 28
3 18 19 30
3 18 30 29
3 19 20 31
3 19 31 30
3 20 21 32
3 20 32 31
3 22 23 34
3 22 34 33
3 23 24 35
3 23 35 34
3 24 25 36
3 24 36 35
3 25 26 37
3 25 37 36
3 26 27 38
3 26 38 37
3 27 28 39
3 27 39 38
3 28 29 40
3 28 40 39
3 29 30 41
3 29 41 40
3 30 31 42
3 30 42 41
3 31 32 43
3 31 43 42
3 33 34 45
3 33 45 44
3 34 35 46
3 34 46 45
3 35 36 47
3 35 47 46
3 36 37 48
3 36 48 47
3 37 38 49
3 37 49 48
3 38 39 50
3 38 50 49
3 39 40 51
3 39 51 50
3 40 41 52
3 40 52 51
3 41 42 53
3 41 53 52
3 42 43 54
3 42 54 53
3 44 45 56
3 44 56 55
3 45 46 57
3 45 57 56
3 46 47 58
3 46 58 57
3 47 48 59
3 47 59 58
3 48 49 60
3 48 60 59
3 49 50 61
3 49 61 60
3 50 51 62
3 50 62 61
3 51 52 63
3 51 63 62
3 52 53 64
3 52 64 63
3 53 54 65
3 53 65 64
3 55 56 67
3 55 67 66
3 56 57 68
3 56 68 67
3 57 58 69
3 57 69 68
3 58 59 70
3 58 70 69
3 59 60 71
3 59 71 70
3 60 61 72
3 60 72 71
3 61 62 73
3 61 73 72
3 62 63 74
3 62 74 73
3 63 64 75
3 63 75 74
3 64 65 76
3 64 76 75
3 66 67 78
3 66 78 77
3 67 68 79
3 67 79 78
3 68 69 80
3 68 80 79
3 69 70 81
3 69 81 80
3 70 71 82
3 70 82 81
3 71 72 83
3 71 83 82
3 72 73 84
3 72 84 83
3 73 74 85
3 73 85 84
3 74 75 86
3 74 86 85
3 75 76 87
3 75 87 86
3 77 78 89
3 77 89 88
3 78 79 90
3 78 90 89
3 79 80 91
3 79 91 90
3 80 81 92
3 80 92 91
3 81 82 93
3 81 93 92
3 82 83 94
3 82 94 93
3 83 84 95
3 83 95 94
3 84 85 96
3 84 96 95
3 85 86 97
3 85 97 96
3 86 87 98
3 86 98 97
3 88 89 100
3 88 100 99
3 89 90 101
3 89 101 100
3 90 91 102
3 90 102 101
3 91 92 103
3 91 103 102
3 92 93 104
3 92 104 103
3 93 94 105
3 93 105 104
3 94 95 106
3 94 106 105
3 95 96 107
3 95 107 106
3 96 97 108
3 96 108 107
3 97 98 109
3 97 109 108
3 99 100 111
3 99 111 110
3 100 101 112
3 100 112 111
3 101 102 113
3 101 113 112
3 102 103 114
3 102 114 113
3 103 104 115
3 103 115 114
3 104 105 116
3 104 116 115
3 105 106 117
3 105 117 116
3 106 107 118
3 106 118 117
3 107 108 119
3 107 119 118
3 108 109 120
3 108 120 119
3 110 111 122
3 110 122 121
3 111 112 123
3 111 123 122
3 112 113 124
3 112 124 123
3 113 114 125
3 113 125 124
3 114 115 126
3 114 126 125
3 115 116 127
3 115 127 126
3 116 117 128
3 116 128 127
3 117 118 129
3 117 129 128
3 118 119 130
3 118 130 129
3 119 120 131
3 119 131 130
3 121 122 133
3 121 133 132
3 122 123 134
3 122 134 133
3 123 124 135
3 123 135 134
3 124 125 136
3 124 136 135
3 125 126 137
3 125 137 136
3 126 127 138
3 126 138 137
3 127 128 139
3 127 139 138
3 128 129 140
3 128 140 139
3 129 130 141
3 129 141 140
3 130 131 142
3 130 142 141
3 132 133 144
3 132 144 143
3 133 134 145
3 133 145 144
3 134 135 146
3 134 146 145
3 135 136 147
3 135 147 146
3 136 137 148
3 136 148 147
3 137 138 149
3 137 149 148
3 138 139 150
3 138 150 149
3 139 140 151
3 139 151 150
3 140 141 152
3 140 152 151
3 141 142 153
3 141 153 152
3 143 144 155
3 143 155 154
3 144 145 156
3 144 156 155
3 145 146 157
3 145 157 156
3 146 147 158
3 146 158 157
3 147 148 159
3 147 159 158
3 148 149 160
3 148 160 159
3 149 150 161
3 149 161 160
3 150 151 162
3 150 162 161
3 151 152 163
3 151 163 162
3 152 153 164
3 152 164 163
3 154 155 166
3 154 166 165
3 155 156 167
3 155 167 166
3 156 157 168
3 156 168 167
3 157 158 169
3 157 169 168
3 158 159 170
3 158 170 169
3 159 160 171
3 159 171 170
3 160 161 172
3 160 172 171
3 161 162 173
3 161 173 172
3 162 163 174
3 162 174 173
3 163 164 175
3 163 175 174
3 165 166 177
3 165 177 176
3 166 167 178
3 166 178 177
3 167 168 179
3 167 179 178
3 168 169 180
3 168 180 179
3 169 170 181
3 169 181 180
3 170 171 182
3 170 182 181
3 171 172 183
3 171 183 182
3 172 173 184
3 172 184 183
3 173 174 185
3 173 185 184
3 174 175 186
3 174 186 185
3 176 177 188
3 176 188 187
3 177 178 189
3 177 189 188
3 178 179 190
3 178 190 189
3 179 180 191
3 179 191 190
3 180 181 192
3 180 192 191
3 181 182 193
3 181 193 192
3 182 183 194
3 182 194 193
3 183 184 195
3 183 195 194
3 184 185 196
3 184 196 195
3 185 186 197
3 185 197 196
3 187 188 199
3 187 199 198
3 188 189 200
3 188 200 199
3 189 190 201
3 189 201 200
3 190 191 202
3 190 202 201
3 191 192 203
3 191 203 202
3 192 193 204
3 192 204 203
3 193 194 205
3 193 205 204
3 194 195 206
3 194 206 205
3 195 196 207
3 195 207 206
3 196 197 208
3 196 208 207
3 198 199 210
3 198 210 209
3 199 200 211
3 199 211 210
3 200 201 212
3 200 212 211
3 201 202 213
3 201 213 212
3 202 203 214
3 202 214 213
3 203 204 215
3 203 215 214
3 204 205 216
3 204 216 215
3 205 206 217
3 205 217 216
3 206 207 218
3 206 218 217
3 207 208 219
3 207 219 218
3 209 210 221
3 209 221 220
3 210 211 222
3 210 222 221
3 211 212 223
3 211 223 222
3 212 213 224
3 212 224 223
3 213 214 225
3 213 225 224
3 214 215 226
3 214 226 225
3 215 216 227
3 215 227 226
3 216 217 228
3 216 228 227
3 217 218 229
3 217 229 228
3 218 219 230
3 218 230 229
CELL_TYPES 400
5
5
5
5
5
5
5
5
5
5
5
5
5
5
5
5
5
5
5
5
5
5
5
5
5
5
5
5
5
5
5
5
5
5
5
5
5
5
5
5
5
5
5
5
5
5
5
5
5
5
5
5
5
5
5
5
5
5
5
5
5
5
5
5
5
5
5
5
5
5
5
5
5
5
5
5
5
5
5
5
5
5
5
5
5
5
5
5
5
5
5
5
5
5
5
5
5
5
5
5
5
5
5
5
5
5
5
5
5
5
5
5
5
5
5
5
5
5
5
5
5
5
5
5
5
5
5
5
5
5
5
5
5
5
5
5
5
5
5
5
5
5
5
5
5
5
5
5
5
5
5
5
5
5
5
5
5
5
5
5
5
5
5
5
5
5
5
5
5
5
5
5
5
5
5
5
5
5
5
5
5
5
5
5
5
5
5
5
5
5
5
5
5
5
5
5
5
5
5
5
5
5
5
5
5
5
5
5
5
5
5
5
5
5
5
5
5
5
5
5
5
5
5
5
5
5
5
5
5
5
5
5
5
5
5
5
5
5
5
5
5
5
5
5
5
5
5
5
5
5
5
5
5
5
5
5
5
5
5
5
5
5
5
5
5
5
5
5
5
5
5
5
5
5
5
5
5
5
5
5
5
5
5
5
5
5
5
5
5
5
5
5
5
5
5
5
5
5
5
5
5
5
5
5
5
5
5
5
5
5
5
5
5
5
5
5
5
5
5
5
5
5
5
5
5
5
5
5
5
5
5
5
5
5
5
5
5
5
5
5
5
5
5
5
5
5
5
5
5
5
5
5
5
5
5
5
5
5
5
5
5
5
5
5
5
5
5
5
5
5
5
5
5
5
5
5
5
5
5
5
5
5
5
5
5
5
5
5
5
5
5
5
5
5
5
5
5
5
5
5
CELL_DATA 400
VECTORS Et double
0.0788079 0.302641 0
0.385748 -0.304943 0
0.0775616 0.285382 0
0.380906 -0.315171 0
0.0753888 0.290044 0
0.376477 -0.31881 0
0.0749337 0.30276 0
0.373159 -0.300959 0
0.0760291 0.309782 0
0.374775 -0.289031 0
0.0772779 0.309823 0
0.379166 -0.291475 0
0.0776769 0.297527 0
0.379849 -0.299871 0
0.0763957 0.282096 0
0.37561 -0.311179 0
0.0743899 0.287462 0
0.371428 -0.313309 0
0.0739938 0.295975 0
0.367512 -0.29611 0
0.526389 0.237397 0
0.763933 -0.22758 0
0.519898 0.22126 0
0.757051 -0.247094 0
0.511325 0.226073 0
0.746892 -0.251437 0
0.506505 0.237204 0
0.739423 -0.234954 0
0.509766 0.242804 0
0.743107 -0.224694 0
0.516532 0.243445 0
0.752842 -0.227287 0
0.518483 0.233116 0
0.755107 -0.234152 0
0.512488 0.21878 0
0.746457 -0.244209 0
0.504437 0.224452 0
0.736887 -0.246935 0
0.499499 0.241937 0
0.731471 -0.230887 0
0.856992 0.120475 0
0.974061 -0.101574 0
0.849173 0.106945 0
0.968519 -0.126497 0
0.835526 0.112255 0
0.954312 -0.131171 0
0.826932 0.120487 0
0.943485 -0.11712 0
0.832005 0.123364 0
0.948844 -0.110167 0
0.843588 0.124992 0
0.963058 -0.113176 0
0.847025 0.118233 0
0.966794 -0.117124 0
0.837127 0.105904 0
0.954734 -0.124689 0
0.824286 0.111375 0
0.941357 -0.128457 0
0.818345 0.134369 0
0.937508 -0.11497 0
0.999735 -0.0230043 0
0.971543 0.0454445 0
0.993917 -0.0324606 0
0.969678 0.0198223 0
0.977181 -0.0262813 0
0.953437 0.0159707 0
0.965848 -0.0219471 0
0.940393 0.0269558 0
0.972236 -0.022841 0
0.94689 0.0293309 0
0.98747 -0.0199689 0
0.964276 0.025667 0
0.992179 -0.0219487 0
0.969209 0.0257252 0
0.979609 -0.0317171 0
0.955055 0.0216501 0
0.963833 -0.0276182 0
0.939742 0.0164524 0
0.959868 -0.00350198 0
0.939511 0.0259767 0
0.924763 -0.162061 0
0.758104 0.18145 0
0.923012 -0.166283 0
0.760775 0.159783 0
0.905357 -0.15889 0
0.744454 0.158267 0
0.892591 -0.15905 0
0.730504 0.166017 0
0.899687 -0.1644 0
0.737496 0.163036 0
0.917046 -0.160174 0
0.756429 0.158539 0
0.922662 -0.156675 0
0.762126 0.163293 0
0.908877 -0.163714 0
0.747315 0.163361 0
0.892175 -0.16242 0
0.731858 0.156453 0
0.891983 -0.141666 0
0.735883 0.160884 0
0.649552 -0.266628 0
0.381214 0.276983 0
0.652349 -0.264988 0
0.387759 0.262983 0
0.635732 -0.256136 0
0.372968 0.265207 0
0.622925 -0.260934 0
0.359437 0.269952 0
0.630058 -0.270991 0
0.366227 0.261388 0
0.647796 -0.265446 0
0.384912 0.255962 0
0.653817 -0.256327 0
0.390809 0.265636 0
0.640298 -0.260789 0
0.376727 0.270095 0
0.624478 -0.263556 0
0.362604 0.261347 0
0.628369 -0.249874 0
0.370085 0.260041 0
0.234924 -0.314118 0
-0.0764155 0.311528 0
0.241239 -0.306655 0
-0.0678439 0.307259 0
0.227156 -0.296258 0
-0.0799587 0.314092 0
0.215621 -0.305383 0
-0.0918698 0.316341 0
0.22211 -0.319936 0
-0.0859642 0.302517 0
0.238426 -0.313235 0
-0.069314 0.296158 0
0.244255 -0.298895 0
-0.0638537 0.310494 0
0.23234 -0.301159 0
-0.0759996 0.319163 0
0.218793 -0.308676 0
-0.0877228 0.308635 0
0.225679 -0.30427 0
-0.0786853 0.301569 0
-0.228349 -0.294358 0
-0.514952 0.277925 0
-0.220608 -0.281801 0
-0.506772 0.28342 0
-0.231208 -0.269968 0
-0.515513 0.294917 0
-0.240363 -0.282699 0
-0.524809 0.295317 0
-0.235141 -0.301093 0
-0.520384 0.277052 0
-0.221925 -0.293495 0
-0.507367 0.269848 0
-0.216918 -0.274815 0
-0.502977 0.288137 0
-0.226146 -0.275375 0
-0.512235 0.300426 0
-0.23651 -0.287516 0
-0.520871 0.288373 0
-0.228685 -0.292652 0
-0.512663 0.276194 0
-0.63938 -0.211796 0
-0.839203 0.183854 0
-0.632699 -0.195497 0
-0.833681 0.197143 0
-0.639356 -0.182536 0
-0.83869 0.212463 0
-0.645293 -0.197818 0
-0.844631 0.211694 0
-0.641839 -0.219012 0
-0.842122 0.190201 0
-0.633103 -0.210838 0
-0.833982 0.182329 0
-0.6295 -0.189078 0
-0.831207 0.203481 0
-0.635277 -0.188472 0
-0.836916 0.218448 0
-0.641964 -0.204244 0
-0.842046 0.2053 0
-0.635566 -0.217196 0
-0.836833 0.189271 0
-0.909135 -0.084536 0
-0.979284 0.0500937 0
-0.905651 -0.0662989 0
-0.97789 0.0676312 0
-0.908257 -0.0526845 0
-0.979015 0.0851683 0
-0.910443 -0.0692374 0
-0.981133 0.0838739 0
-0.909065 -0.0919039 0
-0.980761 0.0606482 0
-0.905752 -0.0835014 0
-0.978254 0.0523574 0
-0.904007 -0.0601836 0
-0.977474 0.0750143 0
-0.905895 -0.0589554 0
-0.97927 0.0914533 0
-0.908699 -0.0766549 0
-0.980626 0.0777671 0
-0.905698 -0.0940576 0
-0.979721 0.0596278 0
-0.979721 0.0596278 0
-0.905698 -0.0940576 0
-0.980626 0.0777671 0
-0.908699 -0.0766549 0
-0.97927 0.0914533 0
-0.905895 -0.0589554 0
-0.977474 0.0750143 0
-0.904007 -0.0601836 0
-0.978254 0.0523574 0
-0.905752 -0.0835014 0
-0.980761 0.0606482 0
-0.909065 -0.0919039 0
-0.981133 0.0838739 0
-0.910443 -0.0692374 0
-0.979015 0.0851683 0
-0.908257 -0.0526845 0
-0.97789 0.0676312 0
-0.905651 -0.0662989 0
-0.979284 0.0500937 0
-0.909135 -0.084536 0
-0.836833 0.189271 0
-0.635566 -0.217196 0
-0.842046 0.2053 0
-0.641964 -0.204244 0
-0.836916 0.218448 0
-0.635277 -0.188472 0
-0.831207 0.203481 0
-0.6295 -0.189078 0
-0.833982 0.182329 0
-0.633103 -0.210838 0
-0.842122 0.190201 0
-0.641839 -0.219012 0
-0.844631 0.211694 0
-0.645293 -0.197818 0
-0.83869 0.212463 0
-0.639356 -0.182536 0
-0.833681 0.197143 0
-0.632699 -0.195497 0
-0.839203 0.183854 0
-0.63938 -0.211796 0
-0.512663 0.276194 0
-0.228685 -0.292652 0
-0.520871 0.288373 0
-0.23651 -0.287516 0
-0.512235 0.300426 0
-0.226146 -0.275375 0
-0.502977 0.288137 0
-0.216918 -0.274815 0
-0.507367 0.269848 0
-0.221925 -0.293495 0
-0.520384 0.277052 0
-0.235141 -0.301093 0
-0.524809 0.295317 0
-0.240363 -0.282699 0
-0.515513 0.294917 0
-0.231208 -0.269968 0
-0.506772 0.28342 0
-0.220608 -0.281801 0
-0.514952 0.277925 0
-0.228349 -0.294358 0
-0.0786853 0.301569 0
0.225679 -0.30427 0
-0.0877228 0.308635 0
0.218793 -0.308676 0
-0.0759996 0.319163 0
0.23234 -0.301159 0
-0.0638537 0.310494 0
0.244255 -0.298895 0
-0.069314 0.296158 0
0.238426 -0.313235 0
-0.0859642 0.302517 0
0.22211 -0.319936 0
-0.0918698 0.316341 0
0.215621 -0.305383 0
-0.0799587 0.314092 0
0.227156 -0.296258 0
-0.0678439 0.307259 0
0.241239 -0.306655 0
-0.0764155 0.311528 0
0.234924 -0.314118 0
0.370085 0.260041 0
0.628369 -0.249874 0
0.362604 0.261347 0
0.624478 -0.263556 0
0.376727 0.270095 0
0.640298 -0.260789 0
0.390809 0.265636 0
0.653817 -0.256327 0
0.384912 0.255962 0
0.647796 -0.265446 0
0.366227 0.261388 0
0.630058 -0.270991 0
0.359437 0.269952 0
0.622925 -0.260934 0
0.372968 0.265207 0
0.635732 -0.256136 0
0.387759 0.262983 0
0.652349 -0.264988 0
0.381214 0.276983 0
0.649552 -0.266628 0
0.735883 0.160884 0
0.891983 -0.141666 0
0.731858 0.156453 0
0.892175 -0.16242 0
0.747315 0.163361 0
0.908877 -0.163714 0
0.762126 0.163293 0
0.922662 -0.156675 0
0.756429 0.158539 0
0.917046 -0.160174 0
0.737496 0.163036 0
0.899687 -0.1644 0
0.730504 0.166017 0
0.892591 -0.15905 0
0.744454 0.158267 0
0.905357 -0.15889 0
0.760775 0.159783 0
0.923012 -0.166283 0
0.758104 0.18145 0
0.924763 -0.162061 0
0.939511 0.0259767 0
0.959868 -0.00350198 0
0.939742 0.0164524 0
0.963833 -0.0276182 0
0.955055 0.0216501 0
0.979609 -0.0317171 0
0.969209 0.0257252 0
0.992179 -0.0219487 0
0.964276 0.025667 0
0.98747 -0.0199689 0
0.94689 0.0293309 0
0.972236 -0.022841 0
0.940393 0.0269558 0
0.965848 -0.0219471 0
0.953437 0.0159707 0
0.977181 -0.0262813 0
0.969678 0.0198223 0
0.993917 -0.0324606 0
0.971543 0.0454445 0
0.999735 -0.0230043 0
0.937508 -0.11497 0
0.818345 0.134369 0
0.941357 -0.128457 0
0.824286 0.111375 0
0.954734 -0.124689 0
0.837127 0.105904 0
0.966794 -0.117124 0
0.847025 0.118233 0
0.963058 -0.113176 0
0.843588 0.124992 0
0.948844 -0.110167 0
0.832005 0.123364 0
0.943485 -0.11712 0
0.826932 0.120487 0
0.954312 -0.131171 0
0.835526 0.112255 0
0.968519 -0.126497 0
0.849173 0.106945 0
0.974061 -0.101574 0
0.856992 0.120475 0
0.731471 -0.230887 0
0.499499 0.241937 0
0.736887 -0.246935 0
0.504437 0.224452 0
0.746457 -0.244209 0
0.512488 0.21878 0
0.755107 -0.234152 0
0.518483 0.233116 0
0.752842 -0.227287 0
0.516532 0.243445 0
0.743107 -0.224694 0
0.509766 0.242804 0
0.739423 -0.234954 0
0.506505 0.237204 0
0.746892 -0.251437 0
0.511325 0.226073 0
0.757051 -0.247094 0
0.519898 0.22126 0
0.763933 -0.22758 0
0.526389 0.237397 0
0.367512 -0.29611 0
0.0739938 0.295975 0
0.371428 -0.313309 0
0.0743899 0.287462 0
0.37561 -0.311179 0
0.0763957 0.282096 0
0.379849 -0.299871 0
0.0776769 0.297527 0
0.379166 -0.291475 0
0.0772779 0.309823 0
0.374775 -0.289031 0
0.0760291 0.309782 0
0.373159 -0.300959 0
0.0749337 0.30276 0
0.376477 -0.31881 0
0.0753888 0.290044 0
0.380906 -0.315171 0
0.0775616 0.285382 0
0.385748 -0.304943 0
0.0788079 0.302641 0
