# vtk DataFile Version 3.0
tp3485 cell-vector
ASCII
DATASET UNSTRUCTURED_GRID
POINTS 231 double
0 0 0
0.1 0 0
0.2 0 0
0.3 0 0
0.4 0 0
0.5 0 0
0.6 0 0
0.7 0 0
0.8 0 0
0.9 0 0
1 0 0
0 0.025 0
0.1 0.025 0
0.2 0.025 0
0.3 0.025 0
0.4 0.025 0
0.5 0.025 0
0.6 0.025 0
0.7 0.025 0
0.8 0.025 0
0.9 0.025 0
1 0.025 0
0 0.05 0
0.1 0.05 0
0.2 0.05 0
0.3 0.05 0
0.4 0.05 0
0.5 0.05 0
0.6 0.05 0
0.7 0.05 0
0.8 0.05 0
0.9 0.05 0
1 0.05 0
0 0.075 0
0.1 0.075 0
0.2 0.075 0
0.3 0.075 0
0.4 0.075 0
0.5 0.075 0
0.6 0.075 0
0.7 0.075 0
0.8 0.075 0
0.9 0.075 0
1 0.075 0
0 0.1 0
0.1 0.1 0
0.2 0.1 0
0.3 0.1 0
0.4 0.1 0
0.5 0.1 0
0.6 0.1 0
0.7 0.1 0
0.8 0.1 0
0.9 0.1 0
1 0.1 0
0 0.125 0
0.1 0.125 0
0.2 0.125 0
0.3 0.125 0
0.4 0.125 0
0.5 0.125 0
0.6 0.125 0
0.7 0.125 0
0.8 0.125 0
0.9 0.125 0
1 0.125 0
0 0.15 0
0.1 0.15 0
0.2 0.15 0
0.3 0.15 0
0.4 0.15 0
0.5 0.15 0
0.6 0.15 0
0.7 0.15 0
0.8 0.15 0
0.9 0.15 0
1 0.15 0
0 0.175 0
0.1 0.175 0
0.2 0.175 0
0.3 0.175 0
0.4 0.175 0
0.5 0.175 0
0.6 0.175 0
0.7 0.175 0
0.8 0.175 0
0.9 0.175 0
1 0.175 0
0 0.2 0
0.1 0.2 0
0.2 0.2 0
0.3 0.2 0
0.4 0.2 0
0.5 0.2 0
0.6 0.2 0
0.7 0.2 0
0.8 0.2 0
0.9 0.2 0
1 0.2 0
0 0.225 0
0.1 0.225 0
0.2 0.225 0
0.3 0.225 0
0.4 0.225 0
0.5 0.225 0
0.6 0.225 0
0.7 0.225 0
0.8 0.225 0
0.9 0.225 0
1 0.225 0
0 0.25 0
0.1 0.25 0
0.2 0.25 0
0.3 0.25 0
0.4 0.25 0
0.5 0.25 0
0.6 0.25 0
0.7 0.25 0
0.8 0.25 0
0.9 0.25 0
1 0.25 0
0 0.275 0
0.1 0.275 0
0.2 0.275 0
0.3 0.275 0
0.4 0.275 0
0.5 0.275 0
0.6 0.275 0
0.7 0.275 0
0.8 0.275 0
0.9 0.275 0
1 0.275 0
0 0.3 0
0.1 0.3 0
0.2 0.3 0
0.3 0.3 0
0.4 0.3 0
0.5 0.3 0
0.6 0.3 0
0.7 0.3 0
0.8 0.3 0
0.9 0.3 0
1 0.3 0
0 0.325 0
0.1 0.325 0
0.2 0.325 0
0.3 0.325 0
0.4 0.325 0
0.5 0.325 0
0.6 0.325 0
0.7 0.325 0
0.8 0.325 0
0.9 0.325 0
1 0.325 0
0 0.35 0
0.1 0.35 0
0.2 0.35 0
0.3 0.35 0
0.4 0.35 0
0.5 0.35 0
0.6 0.35 0
0.7 0.35 0
0.8 0.35 0
0.9 0.35 0
1 0.35 0
0 0.375 0
0.1 0.375 0
0.2 0.375 0
0.3 0.375 0
0.4 0.375 0
0.5 0.375 0
0.6 0.375 0
0.7 0.375 0
0.8 0.375 0
0.9 0.375 0
1 0.375 0
0 0.4 0
0.1 0.4 0
0.2 0.4 0
0.3 0.4 0
0.4 0.4 0
0.5 0.4 0
0.6 0.4 0
0.7 0.4 0
0.8 0.4 0
0.9 0.4 0
1 0.4 0
0 0.425 0
0.1 0.425 0
0.2 0.425 0
0.3 0.425 0
0.4 0.425 0
0.5 0.425 0
0.6 0.425 0
0.7 0.425 0
0.8 0.425 0
0.9 0.425 0
1 0.425 0
0 0.45 0
0.1 0.45 0
0.2 0.45 0
0.3 0.45 0
0.4 0.45 0
0.5 0.45 0
0.6 0.45 0
0.7 0.45 0
0.8 0.45 0
0.9 0.45 0
1 0.45 0
0 0.475 0
0.1 0.475 0
0.2 0.475 0
0.3 0.475 0
0.4 0.475 0
0.5 0.475 0
0.6 0.475 0
0.7 0.475 0
0.8 0.475 0
0.9 0.475 0
1 0.475 0
0 0.5 0
0.1 0.5 0
0.2 0.5 0
0.3 0.5 0
0.4 0.5 0
0.5 0.5 0
0.6 0.5 0
0.7 0.5 0
0.8 0.5 0
0.9 0.5 0
1 0.5 0
CELLS 400 1600
3 0 1 12
3 0 12 11
3 1 2 13
3 1 13 12
3 2 3 14
3 2 14 13
3 3 4 15
3 3 15 14
3 4 5 16
3 4 16 15
3 5 6 17
3 5 17 16
3 6 7 18
3 6 18 17
3 7 8 19
3 7 19 18
3 8 9 20
3 8 20 19
3 9 10 21
3 9 21 20
3 11 12 23
3 11 23 22
3 12 13 24
3 12 24 23
3 13 14 25
3 13 25 24
3 14 15 26
3 14 26 25
3 15 16 27
3 15 27 26
3 16 17 28
3 16 28 27
3 17 18 29
3 17 29 28
3 18 19 30
3 18 30 29
3 19 20 31
3 19 31 30
3 20 21 32
3 20 32 31
3 22 23 34
3 22 34 33
3 23 24 35
3 23 35 34
3 24 25 36
3 24 36 35
3 25 26 37
3 25 37 36
3 26 27 38
3 26 38 37
3 27 28 39
3 27 39 38
3 28 29 40
3 28 40 39
3 29 30 41
3 29 41 40
3 30 31 42
3 30 42 41
3 31 32 43
3 31 43 42
3 33 34 45
3 33 45 44
3 34 35 46
3 34 46 45
3 35 36 47
3 35 47 46
3 36 37 48
3 36 48 47
3 37 38 49
3 37 49 48
3 38 39 50
3 38 50 49
3 39 40 51
3 39 51 50
3 40 41 52
3 40 52 51
3 41 42 53
3 41 53 52
3 42 43 54
3 42 54 53
3 44 45 56
3 44 56 55
3 45 46 57
3 45 57 56
3 46 47 58
3 46 58 57
3 47 48 59
3 47 59 58
3 48 49 60
3 48 60 59
3 49 50 61
3 49 61 60
3 50 51 62
3 50 62 61
3 51 52 63
3 51 63 62
3 52 53 64
3 52 64 63
3 53 54 65
3 53 65 64
3 55 56 67
3 55 67 66
3 56 57 68
3 56 68 67
3 57 58 69
3 57 69 68
3 58 59 70
3 58 70 69
3 59 60 71
3 59 71 70
3 60 61 72
3 60 72 71
3 61 62 73
3 61 73 72
3 62 63 74
3 62 74 73
3 63 64 75
3 63 75 74
3 64 65 76
3 64 76 75
3 66 67 78
3 66 78 77
3 67 68 79
3 67 79 78
3 68 69 80
3 68 80 79
3 69 70 81
3 69 81 80
3 70 71 82
3 70 82 81
3 71 72 83
3 71 83 82
3 72 73 84
3 72 84 83
3 73 74 85
3 73 85 84
3 74 75 86
3 74 86 85
3 75 76 87
3 75 87 86
3 77 78 89
3 77 89 88
3 78 79 90
3 78 90 89
3 79 80 91
3 79 91 90
3 80 81 92
3 80 92 91
3 81 82 93
3 81 93 92
3 82 83 94
3 82 94 93
3 83 84 95
3 83 95 94
3 84 85 96
3 84 96 95
3 85 86 97
3 85 97 96
3 86 87 98
3 86 98 97
3 88 89 100
3 88 100 99
3 89 90 101
3 89 101 100
3 90 91 102
3 90 102 101
3 91 92 103
3 91 103 102
3 92 93 104
3 92 104 103
3 93 94 105
3 93 105 104
3 94 95 106
3 94 106 105
3 95 96 107
3 95 107 106
3 96 97 108
3 96 108 107
3 97 98 109
3 97 109 108
3 99 100 111
3 99 111 110
3 100 101 112
3 100 112 111
3 101 102 113
3 101 113 112
3 102 103 114
3 102 114 113
3 103 104 115
3 103 115 114
3 104 105 116
3 104 116 115
3 105 106 117
3 105 117 116
3 106 107 118
3 106 118 117
3 107 108 119
3 107 119 118
3 108 109 120
3 108 120 119
3 110 111 122
3 110 122 121
3 111 112 123
3 111 123 122
3 112 113 124
3 112 124 123
3 113 114 125
3 113 125 124
3 114 115 126
3 114 126 125
3 115 116 127
3 115 127 126
3 116 117 128
3 116 128 127
3 117 118 129
3 117 129 128
3 118 119 130
3 118 130 129
3 119 120 131
3 119 131 130
3 121 122 133
3 121 133 132
3 122 123 134
3 122 134 133
3 123 124 135
3 123 135 134
3 124 125 136
3 124 136 135
3 125 126 137
3 125 137 136
3 126 127 138
3 126 138 137
3 127 128 139
3 127 139 138
3 128 129 140
3 128 140 139
3 129 130 141
3 129 141 140
3 130 131 142
3 130 142 141
3 132 133 144
3 132 144 143
3 133 134 145
3 133 145 144
3 134 135 146
3 134 146 145
3 135 136 147
3 135 147 146
3 136 137 148
3 136 148 147
3 137 138 149
3 137 149 148
3 138 139 150
3 138 150 149
3 139 140 151
3 139 151 150
3 140 141 152
3 140 152 151
3 141 142 153
3 141 153 152
3 143 144 155
3 143 155 154
3 144 145 156
3 144 156 155
3 145 146 157
3 145 157 156
3 146 147 158
3 146 158 157
3 147 148 159
3 147 159 158
3 148 149 160
3 148 160 159
3 149 150 161
3 149 161 160
3 150 151 162
3 150 162 161
3 151 152 163
3 151 163 162
3 152 153 164
3 152 164 163
3 154 155 166
3 154 166 165
3 155 156 167
3 155 167 166
3 156 157 168
3 156 168 167
3 157 158 169
3 157 169 168
3 158 159 170
3 158 170 169
3 159 160 171
3 159 171 170
3 160 161 172
3 160 172 171
3 161 162 173
3 161 173 172
3 162 163 174
3 162 174 173
3 163 164 175
3 163 175 174
3 165 166 177
3 165 177 176
3 166 167 178
3 166 178 177
3 167 168 179
3 167 179 178
3 168 169 180
3 168 180 179
3 169 170 181
3 169 181 180
3 170 171 182
3 170 182 181
3 171 172 183
3 171 183 182
3 172 173 184
3 172 184 183
3 173 174 185
3 173 185 184
3 174 175 186
3 174 186 185
3 176 177 188
3 176 188 187
3 177 178 189
3 177 189 188
3 178 179 190
3 178 190 189
3 179 180 191
3 179 191 190
3 180 181 192
3 180 192 191
3 181 182 193
3 181 193 192
3 182 183 194
3 182 194 193
3 183 184 195
3 183 195 194
3 184 185 196
3 184 196 195
3 185 186 197
3 185 197 196
3 187 188 199
3 187 199 198
3 188 189 200
3 188 200 199
3 189 190 201
3 189 201 200
3 190 191 202
3 190 202 201
3 191 192 203
3 191 203 202
3 192 193 204
3 192 204 203
3 193 194 205
3 193 205 204
3 194 195 206
3 194 206 205
3 195 196 207
3 195 207 206
3 196 197 208
3 196 208 207
3 198 199 210
3 198 210 209
3 199 200 211
3 199 211 210
3 200 201 212
3 200 212 211
3 201 202 213
3 201 213 212
3 202 203 214
3 202 214 213
3 203 204 215
3 203 215 214
3 204 205 216
3 204 216 215
3 205 206 217
3 205 217 216
3 206 207 218
3 206 218 217
3 207 208 219
3 207 219 218
3 209 210 221
3 209 221 220
3 210 211 222
3 210 222 221
3 211 212 223
3 211 223 222
3 212 213 224
3 212 224 223
3 213 214 225
3 213 225 224
3 214 215 226
3 214 226 225
3 215 216 227
3 215 227 226
3 216 217 228
3 216 228 227
3 217 218 229
3 217 229 228
3 218 219 230
3 218 230 229
CELL_TYPES 400
5
5
5
5
5
5
5
5
5
5
5
5
5
5
5
5
5
5
5
5
5
5
5
5
5
5
5
5
5
5
5
5
5
5
5
5
5
5
5
5
5
5
5
5
5
5
5
5
5
5
5
5
5
5
5
5
5
5
5
5
5
5
5
5
5
5
5
5
5
5
5
5
5
5
5
5
5
5
5
5
5
5
5
5
5
5
5
5
5
5
5
5
5
5
5
5
5
5
5
5
5
5
5
5
5
5
5
5
5
5
5
5
5
5
5
5
5
5
5
5
5
5
5
5
5
5
5
5
5
5
5
5
5
5
5
5
5
5
5
5
5
5
5
5
5
5
5
5
5
5
5
5
5
5
5
5
5
5
5
5
5
5
5
5
5
5
5
5
5
5
5
5
5
5
5
5
5
5
5
5
5
5
5
5
5
5
5
5
5
5
5
5
5
5
5
5
5
5
5
5
5
5
5
5
5
5
5
5
5
5
5
5
5
5
5
5
5
5
5
5
5
5
5
5
5
5
5
5
5
5
5
5
5
5
5
5
5
5
5
5
5
5
5
5
5
5
5
5
5
5
5
5
5
5
5
5
5
5
5
5
5
5
5
5
5
5
5
5
5
5
5
5
5
5
5
5
5
5
5
5
5
5
5
5
5
5
5
5
5
5
5
5
5
5
5
5
5
5
5
5
5
5
5
5
5
5
5
5
5
5
5
5
5
5
5
5
5
5
5
5
5
5
5
5
5
5
5
5
5
5
5
5
5
5
5
5
5
5
5
5
5
5
5
5
5
5
5
5
5
5
5
5
5
5
5
5
5
5
5
5
5
5
5
5
5
5
5
5
5
5
5
5
5
5
5
5
5
5
5
5
5
5
5
5
5
5
5
5
5
5
5
5
5
5
5
5
5
5
5
5
CELL_DATA 400
VECTORS Ht double
-0.31032 0.0603727 0
-0.310476 0.07758 0
-0.666954 -0.00958612 0
-0.667648 0.0287859 0
-0.467182 -0.0713703 0
-0.468737 -0.040357 0
0.121112 -0.0741782 0
0.119831 -0.0757032 0
0.611305 -0.0157054 0
0.611293 -0.0483699 0
0.598044 0.0558611 0
0.599296 0.0190206 0
0.0911468 0.0815663 0
0.0926537 0.0708632 0
-0.492704 0.0403097 0
-0.492114 0.0643962 0
-0.673776 -0.0336296 0
-0.674431 0.0049583 0
-0.305947 -0.0764868 0
-0.30641 -0.0583275 0
-0.300994 0.176366 0
-0.302225 0.230447 0
-0.649725 -0.02614 0
-0.652113 0.0892688 0
-0.457343 -0.206481 0
-0.460008 -0.121626 0
0.11521 -0.216219 0
0.114071 -0.230873 0
0.59442 -0.0473461 0
0.595565 -0.148997 0
0.584069 0.160972 0
0.586501 0.0562484 0
0.0916462 0.237126 0
0.0934227 0.215518 0
-0.478017 0.118584 0
-0.478169 0.197445 0
-0.656747 -0.0963308 0
-0.658297 0.0169458 0
-0.299516 -0.227968 0
-0.300094 -0.176939 0
-0.284791 0.288281 0
-0.286908 0.377201 0
-0.616911 -0.0414631 0
-0.620852 0.147856 0
-0.436393 -0.336219 0
-0.440077 -0.199459 0
0.106452 -0.353222 0
0.105491 -0.380366 0
0.5629 -0.078474 0
0.565174 -0.246479 0
0.555695 0.261607 0
0.559245 0.0914434 0
0.0899065 0.386854 0
0.0918996 0.3546 0
-0.451395 0.194385 0
-0.45231 0.325939 0
-0.623118 -0.156366 0
-0.625607 0.0291073 0
-0.285176 -0.374286 0
-0.286012 -0.290941 0
-0.261964 0.393368 0
-0.264795 0.514419 0
-0.569226 -0.0552242 0
-0.574536 0.20307 0
-0.404758 -0.457417 0
-0.409332 -0.272009 0
0.0951378 -0.481813 0
0.0943949 -0.520534 0
0.517556 -0.108307 0
0.520906 -0.338414 0
0.513582 0.355289 0
0.518158 0.123753 0
0.085883 0.527029 0
0.0880268 0.484679 0
-0.413584 0.265776 0
-0.41528 0.446684 0
-0.573811 -0.212288 0
-0.577266 0.0410977 0
-0.263421 -0.511644 0
-0.264616 -0.397515 0
-0.232959 0.489043 0
-0.236341 0.638858 0
-0.507734 -0.067136 0
-0.514196 0.253525 0
-0.363115 -0.567122 0
-0.368421 -0.337552 0
0.0816376 -0.598815 0
0.0811518 -0.647949 0
0.459539 -0.136077 0
0.463891 -0.422515 0
0.458728 0.439729 0
0.464211 0.152412 0
0.0795818 0.65417 0
0.0818014 0.602558 0
-0.36562 0.330933 0
-0.368104 0.55667 0
-0.510151 -0.262744 0
-0.514573 0.0525698 0
-0.234903 -0.636524 0
-0.23652 -0.494033 0
-0.198399 0.572939 0
-0.202176 0.747543 0
-0.433838 -0.0769633 0
-0.441213 0.297952 0
-0.312378 -0.662666 0
-0.318235 -0.394534 0
0.0663759 -0.701325 0
0.0661833 -0.759487 0
0.390317 -0.161046 0
0.39557 -0.496675 0
0.392446 0.512883 0
0.398695 0.176769 0
0.0710643 0.76513 0
0.0732804 0.705352 0
-0.308798 0.388192 0
-0.312059 0.653152 0
-0.433817 -0.306518 0
-0.43918 0.0631827 0
-0.200414 -0.745757 0
-0.202487 -0.578124 0
-0.159058 0.642969 0
-0.16308 0.837851 0
-0.349251 -0.0845295 0
-0.357284 0.33523 0
-0.253688 -0.741729 0
-0.259906 -0.441603 0
0.0498171 -0.786789 0
0.0499471 -0.852405 0
0.311629 -0.182527 0
0.317661 -0.559011 0
0.316335 0.573005 0
0.323189 0.196293 0
0.0604511 0.857169 0
0.0625846 0.790555 0
-0.244627 0.43609 0
-0.248632 0.733717 0
-0.346799 -0.342558 0
-0.353045 0.0726089 0
-0.16088 -0.836599 0
-0.163414 -0.647737 0
-0.115844 0.697371 0
-0.119971 0.907582 0
-0.255956 -0.0897207 0
-0.264392 0.364406 0
-0.188392 -0.802399 0
-0.194774 -0.477647 0
0.0324486 -0.853061 0
0.0329205 -0.924408 0
0.225445 -0.199904 0
0.232116 -0.607917 0
0.232239 0.618684 0
0.239522 0.210589 0
0.0479243 0.928025 0
0.0499007 0.856105 0
-0.174787 0.473396 0
-0.179481 0.796343 0
-0.251339 -0.37001 0
-0.258373 0.0805432 0
-0.117335 -0.906786 0
-0.120311 -0.701193 0
-0.0697771 0.734758 0
-0.0738775 0.955019 0
-0.156173 -0.0924877 0
-0.164759 0.384724 0
-0.118014 -0.843218 0
-0.124372 -0.501824 0
0.0147643 -0.898461 0
0.0155846 -0.973707 0
0.133914 -0.212646 0
0.141065 -0.642103 0
0.142205 0.64888 0
0.149734 0.219407 0
0.0337276 0.975967 0
0.0354811 0.900434 0
-0.101084 0.499148 0
-0.106384 0.839449 0
-0.14987 -0.388238 0
-0.157563 0.0867107 0
-0.0708978 -0.954588 0
-0.0742727 -0.737224 0
-0.0219579 0.754148 0
-0.0259135 0.978978 0
-0.0522991 -0.0928464 0
-0.0607965 0.395639 0
-0.0442258 -0.863217 0
-0.0503818 -0.513581 0
-0.00275187 -0.921819 0
-0.00159131 -0.999066 0
0.0393111 -0.220327 0
0.0467712 -0.660631 0
0.0484342 0.662944 0
0.0560224 0.22264 0
0.0181639 0.999835 0
0.0196407 0.922501 0
-0.0253947 0.512668 0
-0.0311904 0.861938 0
-0.0449512 -0.396836 0
-0.0531425 0.0908751 0
-0.0227465 -0.978843 0
-0.0264544 -0.755 0
0.0264544 0.755 0
0.0227465 0.978843 0
0.0531425 -0.0908751 0
0.0449512 0.396836 0
0.0311904 -0.861938 0
0.0253947 -0.512668 0
-0.0196407 -0.922501 0
-0.0181639 -0.999835 0
-0.0560224 -0.22264 0
-0.0484342 -0.662944 0
-0.0467712 0.660631 0
-0.0393111 0.220327 0
0.00159131 0.999066 0
0.00275187 0.921819 0
0.0503818 0.513581 0
0.0442258 0.863217 0
0.0607965 -0.395639 0
0.0522991 0.0928464 0
0.0259135 -0.978978 0
0.0219579 -0.754148 0
0.0742727 0.737224 0
0.0708978 0.954588 0
0.157563 -0.0867107 0
0.14987 0.388238 0
0.106384 -0.839449 0
0.101084 -0.499148 0
-0.0354811 -0.900434 0
-0.0337276 -0.975967 0
-0.149734 -0.219407 0
-0.142205 -0.64888 0
-0.141065 0.642103 0
-0.133914 0.212646 0
-0.0155846 0.973707 0
-0.0147643 0.898461 0
0.124372 0.501824 0
0.118014 0.843218 0
0.164759 -0.384724 0
0.156173 0.0924877 0
0.0738775 -0.955019 0
0.0697771 -0.734758 0
0.120311 0.701193 0
0.117335 0.906786 0
0.258373 -0.0805432 0
0.251339 0.37001 0
0.179481 -0.796343 0
0.174787 -0.473396 0
-0.0499007 -0.856105 0
-0.0479243 -0.928025 0
-0.239522 -0.210589 0
-0.232239 -0.618684 0
-0.232116 0.607917 0
-0.225445 0.199904 0
-0.0329205 0.924408 0
-0.0324486 0.853061 0
0.194774 0.477647 0
0.188392 0.802399 0
0.264392 -0.364406 0
0.255956 0.0897207 0
0.119971 -0.907582 0
0.115844 -0.697371 0
0.163414 0.647737 0
0.16088 0.836599 0
0.353045 -0.0726089 0
0.346799 0.342558 0
0.248632 -0.733717 0
0.244627 -0.43609 0
-0.0625846 -0.790555 0
-0.0604511 -0.857169 0
-0.323189 -0.196293 0
-0.316335 -0.573005 0
-0.317661 0.559011 0
-0.311629 0.182527 0
-0.0499471 0.852405 0
-0.0498171 0.786789 0
0.259906 0.441603 0
0.253688 0.741729 0
0.357284 -0.33523 0
0.349251 0.0845295 0
0.16308 -0.837851 0
0.159058 -0.642969 0
0.202487 0.578124 0
0.200414 0.745757 0
0.43918 -0.0631827 0
0.433817 0.306518 0
0.312059 -0.653152 0
0.308798 -0.388192 0
-0.0732804 -0.705352 0
-0.0710643 -0.76513 0
-0.398695 -0.176769 0
-0.392446 -0.512883 0
-0.39557 0.496675 0
-0.390317 0.161046 0
-0.0661833 0.759487 0
-0.0663759 0.701325 0
0.318235 0.394534 0
0.312378 0.662666 0
0.441213 -0.297952 0
0.433838 0.0769633 0
0.202176 -0.747543 0
0.198399 -0.572939 0
0.23652 0.494033 0
0.234903 0.636524 0
0.514573 -0.0525698 0
0.510151 0.262744 0
0.368104 -0.55667 0
0.36562 -0.330933 0
-0.0818014 -0.602558 0
-0.0795818 -0.65417 0
-0.464211 -0.152412 0
-0.458728 -0.439729 0
-0.463891 0.422515 0
-0.459539 0.136077 0
-0.0811518 0.647949 0
-0.0816376 0.598815 0
0.368421 0.337552 0
0.363115 0.567122 0
0.514196 -0.253525 0
0.507734 0.067136 0
0.236341 -0.638858 0
0.232959 -0.489043 0
0.264616 0.397515 0
0.263421 0.511644 0
0.577266 -0.0410977 0
0.573811 0.212288 0
0.41528 -0.446684 0
0.413584 -0.265776 0
-0.0880268 -0.484679 0
-0.085883 -0.527029 0
-0.518158 -0.123753 0
-0.513582 -0.355289 0
-0.520906 0.338414 0
-0.517556 0.108307 0
-0.0943949 0.520534 0
-0.0951378 0.481813 0
0.409332 0.272009 0
0.404758 0.457417 0
0.574536 -0.20307 0
0.569226 0.0552242 0
0.264795 -0.514419 0
0.261964 -0.393368 0
0.286012 0.290941 0
0.285176 0.374286 0
0.625607 -0.0291073 0
0.623118 0.156366 0
0.45231 -0.325939 0
0.451395 -0.194385 0
-0.0918996 -0.3546 0
-0.0899065 -0.386854 0
-0.559245 -0.0914434 0
-0.555695 -0.261607 0
-0.565174 0.246479 0
-0.5629 0.078474 0
-0.105491 0.380366 0
-0.106452 0.353222 0
0.440077 0.199459 0
0.436393 0.336219 0
0.620852 -0.147856 0
0.616911 0.0414631 0
0.286908 -0.377201 0
0.284791 -0.288281 0
0.300094 0.176939 0
0.299516 0.227968 0
0.658297 -0.0169458 0
0.656747 0.0963308 0
0.478169 -0.197445 0
0.478017 -0.118584 0
-0.0934227 -0.215518 0
-0.0916462 -0.237126 0
-0.586501 -0.0562484 0
-0.584069 -0.160972 0
-0.595565 0.148997 0
-0.59442 0.0473461 0
-0.114071 0.230873 0
-0.11521 0.216219 0
0.460008 0.121626 0
0.457343 0.206481 0
0.652113 -0.0892688 0
0.649725 0.02614 0
0.302225 -0.230447 0
0.300994 -0.176366 0
0.30641 0.0583275 0
0.305947 0.0764868 0
0.674431 -0.0049583 0
0.673776 0.0336296 0
0.492114 -0.0643962 0
0.492704 -0.0403097 0
-0.0926537 -0.0708632 0
-0.0911468 -0.0815663 0
-0.599296 -0.0190206 0
-0.598044 -0.0558611 0
-0.611293 0.0483699 0
-0.611305 0.0157054 0
-0.119831 0.0757032 0
-0.121112 0.0741782 0
0.468737 0.040357 0
0.467182 0.0713703 0
0.667648 -0.0287859 0
0.666954 0.00958612 0
0.310476 -0.07758 0
0.31032 -0.0603727 0
