# vtk DataFile Version 3.0
tp3485 cell-vector
ASCII
DATASET UNSTRUCTURED_GRID
POINTS 231 double
0 0 0
0.1 0 0
0.2 0 0
0.3 0 0
0.4 0 0
0.5 0 0
0.6 0 0
0.7 0 0
0.8 0 0
0.9 0 0
1 0 0
0 0.025 0
0.1 0.025 0
0.2 0.025 0
0.3 0.025 0
0.4 0.025 0
0.5 0.025 0
0.6 0.025 0
0.7 0.025 0
0.8 0.025 0
0.9 0.025 0
1 0.025 0
0 0.05 0
0.1 0.05 0
0.2 0.05 0
0.3 0.05 0
0.4 0.05 0
0.5 0.05 0
0.6 0.05 0
0.7 0.05 0
0.8 0.05 0
0.9 0.05 0
1 0.05 0
0 0.075 0
0.1 0.075 0
0.2 0.075 0
0.3 0.075 0
0.4 0.075 0
0.5 0.075 0
0.6 0.075 0
0.7 0.075 0
0.8 0.075 0
0.9 0.075 0
1 0.075 0
0 0.1 0
0.1 0.1 0
0.2 0.1 0
0.3 0.1 0
0.4 0.1 0
0.5 0.1 0
0.6 0.1 0
0.7 0.1 0
0.8 0.1 0
0.9 0.1 0
1 0.1 0
0 0.125 0
0.1 0.125 0
0.2 0.125 0
0.3 0.125 0
0.4 0.125 0
0.5 0.125 0
0.6 0.125 0
0.7 0.125 0
0.8 0.125 0
0.9 0.125 0
1 0.125 0
0 0.15 0
0.1 0.15 0
0.2 0.15 0
0.3 0.15 0
0.4 0.15 0
0.5 0.15 0
0.6 0.15 0
0.7 0.15 0
0.8 0.15 0
0.9 0.15 0
1 0.15 0
0 0.175 0
0.1 0.175 0
0.2 0.175 0
0.3 0.175 0
0.4 0.175 0
0.5 0.175 0
0.6 0.175 0
0.7 0.175 0
0.8 0.175 0
0.9 0.175 0
1 0.175 0
0 0.2 0
0.1 0.2 0
0.2 0.2 0
0.3 0.2 0
0.4 0.2 0
0.5 0.2 0
0.6 0.2 0
0.7 0.2 0
0.8 0.2 0
0.9 0.2 0
1 0.2 0
0 0.225 0
0.1 0.225 0
0.2 0.225 0
0.3 0.225 0
0.4 0.225 0
0.5 0.225 0
0.6 0.225 0
0.7 0.225 0
0.8 0.225 0
0.9 0.225 0
1 0.225 0
0 0.25 0
0.1 0.25 0
0.2 0.25 0
0.3 0.25 0
0.4 0.25 0
0.5 0.25 0
0.6 0.25 0
0.7 0.25 0
0.8 0.25 0
0.9 0.25 0
1 0.25 0
0 0.275 0
0.1 0.275 0
0.2 0.275 0
0.3 0.275 0
0.4 0.275 0
0.5 0.275 0
0.6 0.275 0
0.7 0.275 0
0.8 0.275 0
0.9 0.275 0
1 0.275 0
0 0.3 0
0.1 0.3 0
0.2 0.3 0
0.3 0.3 0
0.4 0.3 0
0.5 0.3 0
0.6 0.3 0
0.7 0.3 0
0.8 0.3 0
0.9 0.3 0
1 0.3 0
0 0.325 0
0.1 0.325 0
0.2 0.325 0
0.3 0.325 0
0.4 0.325 0
0.5 0.325 0
0.6 0.325 0
0.7 0.325 0
0.8 0.325 0
0.9 0.325 0
1 0.325 0
0 0.35 0
0.1 0.35 0
0.2 0.35 0
0.3 0.35 0
0.4 0.35 0
0.5 0.35 0
0.6 0.35 0
0.7 0.35 0
0.8 0.35 0
0.9 0.35 0
1 0.35 0
0 0.375 0
0.1 0.375 0
0.2 0.375 0
0.3 0.375 0
0.4 0.375 0
0.5 0.375 0
0.6 0.375 0
0.7 0.375 0
0.8 0.375 0
0.9 0.375 0
1 0.375 0
0 0.4 0
0.1 0.4 0
0.2 0.4 0
0.3 0.4 0
0.4 0.4 0
0.5 0.4 0
0.6 0.4 0
0.7 0.4 0
0.8 0.4 0
0.9 0.4 0
1 0.4 0
0 0.425 0
0.1 0.425 0
0.2 0.425 0
0.3 0.425 0
0.4 0.425 0
0.5 0.425 0
0.6 0.425 0
0.7 0.425 0
0.8 0.425 0
0.9 0.425 0
1 0.425 0
0 0.45 0
0.1 0.45 0
0.2 0.45 0
0.3 0.45 0
0.4 0.45 0
0.5 0.45 0
0.6 0.45 0
0.7 0.45 0
0.8 0.45 0
0.9 0.45 0
1 0.45 0
0 0.475 0
0.1 0.475 0
0.2 0.475 0
0.3 0.475 0
0.4 0.475 0
0.5 0.475 0
0.6 0.475 0
0.7 0.475 0
0.8 0.475 0
0.9 0.475 0
1 0.475 0
0 0.5 0
0.1 0.5 0
0.2 0.5 0
0.3 0.5 0
0.4 0.5 0
0.5 0.5 0
0.6 0.5 0
0.7 0.5 0
0.8 0.5 0
0.9 0.5 0
1 0.5 0
CELLS 400 1600
3 0 1 12
3 0 12 11
3 1 2 13
3 1 13 12
3 2 3 14
3 2 14 13
3 3 4 15
3 3 15 14
3 4 5 16
3 4 16 15
3 5 6 17
3 5 17 16
3 6 7 18
3 6 18 17
3 7 8 19
3 7 19 18
3 8 9 20
3 8 20 19
3 9 10 21
3 9 21 20
3 11 12 23
3 11 23 22
3 12 13 24
3 12 24 23
3 13 14 25
3 13 25 24
3 14 15 26
3 14 26 25
3 15 16 27
3 15 27 26
3 16 17 28
3 16 28 27
3 17 18 29
3 17 29 28
3 18 19 30
3 18 30 29
3 19 20 31
3 19 31 30
3 20 21 32
3 20 32 31
3 22 23 34
3 22 34 33
3 23 24 35
3 23 35 34
3 24 25 36
3 24 36 35
3 25 26 37
3 25 37 36
3 26 27 38
3 26 38 37
3 27 28 39
3 27 39 38
3 28 29 40
3 28 40 39
3 29 30 41
3 29 41 40
3 30 31 42
3 30 42 41
3 31 32 43
3 31 43 42
3 33 34 45
3 33 45 44
3 34 35 46
3 34 46 45
3 35 36 47
3 35 47 46
3 36 37 48
3 36 48 47
3 37 38 49
3 37 49 48
3 38 39 50
3 38 50 49
3 39 40 51
3 39 51 50
3 40 41 52
3 40 52 51
3 41 42 53
3 41 53 52
3 42 43 54
3 42 54 53
3 44 45 56
3 44 56 55
3 45 46 57
3 45 57 56
3 46 47 58
3 46 58 57
3 47 48 59
3 47 59 58
3 48 49 60
3 48 60 59
3 49 50 61
3 49 61 60
3 50 51 62
3 50 62 61
3 51 52 63
3 51 63 62
3 52 53 64
3 52 64 63
3 53 54 65
3 53 65 64
3 55 56 67
3 55 67 66
3 56 57 68
3 56 68 67
3 57 58 69
3 57 69 68
3 58 59 70
3 58 70 69
3 59 60 71
3 59 71 70
3 60 61 72
3 60 72 71
3 61 62 73
3 61 73 72
3 62 63 74
3 62 74 73
3 63 64 75
3 63 75 74
3 64 65 76
3 64 76 75
3 66 67 78
3 66 78 77
3 67 68 79
3 67 79 78
3 68 69 80
3 68 80 79
3 69 70 81
3 69 81 80
3 70 71 82
3 70 82 81
3 71 72 83
3 71 83 82
3 72 73 84
3 72 84 83
3 73 74 85
3 73 85 84
3 74 75 86
3 74 86 85
3 75 76 87
3 75 87 86
3 77 78 89
3 77 89 88
3 78 79 90
3 78 90 89
3 79 80 91
3 79 91 90
3 80 81 92
3 80 92 91
3 81 82 93
3 81 93 92
3 82 83 94
3 82 94 93
3 83 84 95
3 83 95 94
3 84 85 96
3 84 96 95
3 85 86 97
3 85 97 96
3 86 87 98
3 86 98 97
3 88 89 100
3 88 100 99
3 89 90 101
3 89 101 100
3 90 91 102
3 90 102 101
3 91 92 103
3 91 103 102
3 92 93 104
3 92 104 103
3 93 94 105
3 93 105 104
3 94 95 106
3 94 106 105
3 95 96 107
3 95 107 106
3 96 97 108
3 96 108 107
3 97 98 109
3 97 109 108
3 99 100 111
3 99 111 110
3 100 101 112
3 100 112 111
3 101 102 113
3 101 113 112
3 102 103 114
3 102 114 113
3 103 104 115
3 103 115 114
3 104 105 116
3 104 116 115
3 105 106 117
3 105 117 116
3 106 107 118
3 106 118 117
3 107 108 119
3 107 119 118
3 108 109 120
3 108 120 119
3 110 111 122
3 110 122 121
3 111 112 123
3 111 123 122
3 112 113 124
3 112 124 123
3 113 114 125
3 113 125 124
3 114 115 126
3 114 126 125
3 115 116 127
3 115 127 126
3 116 117 128
3 116 128 127
3 117 118 129
3 117 129 128
3 118 119 130
3 118 130 129
3 119 120 131
3 119 131 130
3 121 122 133
3 121 133 132
3 122 123 134
3 122 134 133
3 123 124 135
3 123 135 134
3 124 125 136
3 124 136 135
3 125 126 137
3 125 137 136
3 126 127 138
3 126 138 137
3 127 128 139
3 127 139 138
3 128 129 140
3 128 140 139
3 129 130 141
3 129 141 140
3 130 131 142
3 130 142 141
3 132 133 144
3 132 144 143
3 133 134 145
3 133 145 144
3 134 135 146
3 134 146 145
3 135 136 147
3 135 147 146
3 136 137 148
3 136 148 147
3 137 138 149
3 137 149 148
3 138 139 150
3 138 150 149
3 139 140 151
3 139 151 150
3 140 141 152
3 140 152 151
3 141 142 153
3 141 153 152
3 143 144 155
3 143 155 154
3 144 145 156
3 144 156 155
3 145 146 157
3 145 157 156
3 146 147 158
3 146 158 157
3 147 148 159
3 147 159 158
3 148 149 160
3 148 160 159
3 149 150 161
3 149 161 160
3 150 151 162
3 150 162 161
3 151 152 163
3 151 163 162
3 152 153 164
3 152 164 163
3 154 155 166
3 154 166 165
3 155 156 167
3 155 167 166
3 156 157 168
3 156 168 167
3 157 158 169
3 157 169 168
3 158 159 170
3 158 170 169
3 159 160 171
3 159 171 170
3 160 161 172
3 160 172 171
3 161 162 173
3 161 173 172
3 162 163 174
3 162 174 173
3 163 164 175
3 163 175 174
3 165 166 177
3 165 177 176
3 166 167 178
3 166 178 177
3 167 168 179
3 167 179 178
3 168 169 180
3 168 180 179
3 169 170 181
3 169 181 180
3 170 171 182
3 170 182 181
3 171 172 183
3 171 183 182
3 172 173 184
3 172 184 183
3 173 174 185
3 173 185 184
3 174 175 186
3 174 186 185
3 176 177 188
3 176 188 187
3 177 178 189
3 177 189 188
3 178 179 190
3 178 190 189
3 179 180 191
3 179 191 190
3 180 181 192
3 180 192 191
3 181 182 193
3 181 193 192
3 182 183 194
3 182 194 193
3 183 184 195
3 183 195 194
3 184 185 196
3 184 196 195
3 185 186 197
3 185 197 196
3 187 188 199
3 187 199 198
3 188 189 200
3 188 200 199
3 189 190 201
3 189 201 200
3 190 191 202
3 190 202 201
3 191 192 203
3 191 203 202
3 192 193 204
3 192 204 203
3 193 194 205
3 193 205 204
3 194 195 206
3 194 206 205
3 195 196 207
3 195 207 206
3 196 197 208
3 196 208 207
3 198 199 210
3 198 210 209
3 199 200 211
3 199 211 210
3 200 201 212
3 200 212 211
3 201 202 213
3 201 213 212
3 202 203 214
3 202 214 213
3 203 204 215
3 203 215 214
3 204 205 216
3 204 216 215
3 205 206 217
3 205 217 216
3 206 207 218
3 206 218 217
3 207 208 219
3 207 219 218
3 209 210 221
3 209 221 220
3 210 211 222
3 210 222 221
3 211 212 223
3 211 223 222
3 212 213 224
3 212 224 223
3 213 214 225
3 213 225 224
3 214 215 226
3 214 226 225
3 215 216 227
3 215 227 226
3 216 217 228
3 216 228 227
3 217 218 229
3 217 229 228
3 218 219 230
3 218 230 229
CELL_TYPES 400
5
5
5
5
5
5
5
5
5
5
5
5
5
5
5
5
5
5
5
5
5
5
5
5
5
5
5
5
5
5
5
5
5
5
5
5
5
5
5
5
5
5
5
5
5
5
5
5
5
5
5
5
5
5
5
5
5
5
5
5
5
5
5
5
5
5
5
5
5
5
5
5
5
5
5
5
5
5
5
5
5
5
5
5
5
5
5
5
5
5
5
5
5
5
5
5
5
5
5
5
5
5
5
5
5
5
5
5
5
5
5
5
5
5
5
5
5
5
5
5
5
5
5
5
5
5
5
5
5
5
5
5
5
5
5
5
5
5
5
5
5
5
5
5
5
5
5
5
5
5
5
5
5
5
5
5
5
5
5
5
5
5
5
5
5
5
5
5
5
5
5
5
5
5
5
5
5
5
5
5
5
5
5
5
5
5
5
5
5
5
5
5
5
5
5
5
5
5
5
5
5
5
5
5
5
5
5
5
5
5
5
5
5
5
5
5
5
5
5
5
5
5
5
5
5
5
5
5
5
5
5
5
5
5
5
5
5
5
5
5
5
5
5
5
5
5
5
5
5
5
5
5
5
5
5
5
5
5
5
5
5
5
5
5
5
5
5
5
5
5
5
5
5
5
5
5
5
5
5
5
5
5
5
5
5
5
5
5
5
5
5
5
5
5
5
5
5
5
5
5
5
5
5
5
5
5
5
5
5
5
5
5
5
5
5
5
5
5
5
5
5
5
5
5
5
5
5
5
5
5
5
5
5
5
5
5
5
5
5
5
5
5
5
5
5
5
5
5
5
5
5
5
5
5
5
5
5
5
5
5
5
5
5
5
5
5
5
5
5
5
5
5
5
5
5
5
5
5
5
5
5
5
5
5
5
5
5
5
5
5
5
5
5
5
5
5
5
5
5
5
CELL_DATA 400
VECTORS Et double
-0.045084 0.646511 0
-0.0342063 0.211332 0
0.000776444 0.976353 0
0.005882 0.892942 0
0.0467953 0.503201 0
0.0444727 0.83646 0
0.0549082 -0.389421 0
0.0484038 0.0861243 0
0.0180338 -0.967207 0
0.0140979 -0.744191 0
-0.0337507 -0.747753 0
-0.0300727 -0.968405 0
-0.0576811 0.0955994 0
-0.0476312 -0.394038 0
-0.0336358 0.869041 0
-0.0241258 0.511391 0
0.0188927 0.930267 0
0.0213625 0.999772 0
0.0566428 0.226571 0
0.0526021 0.662 0
-0.131342 0.628428 0
-0.1214 0.205726 0
-0.0100871 0.951926 0
-0.00548558 0.870688 0
0.124377 0.492734 0
0.121882 0.817623 0
0.159697 -0.377257 0
0.15329 0.0867781 0
0.0657015 -0.942479 0
0.0619074 -0.724281 0
-0.0807426 -0.730964 0
-0.0771185 -0.94548 0
-0.15884 0.0904104 0
-0.149118 -0.386912 0
-0.103519 0.845846 0
-0.0944872 0.496873 0
0.0406197 0.90765 0
0.0426442 0.97556 0
0.156154 0.221513 0
0.151557 0.647924 0
-0.215306 0.594603 0
-0.206734 0.195208 0
-0.021477 0.903894 0
-0.0176459 0.827077 0
0.198353 0.470344 0
0.195664 0.778856 0
0.260457 -0.355481 0
0.254213 0.0857898 0
0.112007 -0.89456 0
0.108325 -0.686098 0
-0.125504 -0.696614 0
-0.122144 -0.899265 0
-0.256214 0.0825122 0
-0.247149 -0.370585 0
-0.17142 0.801632 0
-0.163172 0.469915 0
0.0605601 0.862605 0
0.0619373 0.927497 0
0.250893 0.21083 0
0.245663 0.618157 0
-0.295164 0.545881 0
-0.288306 0.179967 0
-0.0333445 0.833409 0
-0.0304838 0.763073 0
0.26674 0.436495 0
0.263863 0.720992 0
0.354566 -0.324712 0
0.348566 0.0830456 0
0.155674 -0.824635 0
0.152089 -0.630672 0
-0.167065 -0.645455 0
-0.164157 -0.830888 0
-0.34754 0.0722384 0
-0.339424 -0.345374 0
-0.235827 0.737608 0
-0.22862 0.431266 0
0.0779945 0.796347 0
0.0785863 0.856788 0
0.338269 0.194849 0
0.332398 0.573415 0
-0.369115 0.48348 0
-0.364213 0.160301 0
-0.0455518 0.742179 0
-0.0437817 0.680127 0
0.327737 0.391935 0
0.324722 0.645314 0
0.439595 -0.285783 0
0.433942 0.0784648 0
0.19551 -0.734423 0
0.192029 -0.55946 0
-0.204519 -0.57865 0
-0.202213 -0.742031 0
-0.430675 0.0599905 0
-0.423748 -0.311823 0
-0.295263 0.655489 0
-0.289294 0.38196 0
0.0923435 0.710626 0
0.0920868 0.765203 0
0.415965 0.174038 0
0.409521 0.514778 0
-0.435403 0.408961 0
-0.432582 0.136611 0
-0.0578631 0.632418 0
-0.057218 0.580153 0
0.379784 0.337686 0
0.376727 0.553536 0
0.513377 -0.23972 0
0.508198 0.0720106 0
0.230441 -0.626139 0
0.227097 -0.474311 0
-0.237033 -0.497749 0
-0.235437 -0.634885 0
-0.503639 0.0462193 0
-0.498079 -0.27069 0
-0.348314 0.557446 0
-0.343705 0.323287 0
0.103193 0.60768 0
0.102105 0.655024 0
0.482001 0.148991 0
0.475136 0.443663 0
-0.492351 0.324183 0
-0.491621 0.109401 0
-0.0699466 0.506804 0
-0.070374 0.465489 0
0.421613 0.275016 0
0.418654 0.447774 0
0.574068 -0.187713 0
0.569513 0.0636994 0
0.259547 -0.502442 0
0.256401 -0.377413 0
-0.263863 -0.404651 0
-0.263037 -0.512097 0
-0.564655 0.0314056 0
-0.560574 -0.222929 0
-0.393657 0.446037 0
-0.390452 0.256757 0
0.110309 0.490168 0
0.108486 0.52899 0
0.534792 0.120406 0
0.527733 0.361798 0
-0.538409 0.231258 0
-0.539667 0.0792689 0
-0.0813837 0.368407 0
-0.0827511 0.338846 0
0.452272 0.205412 0
0.449591 0.3305 0
0.620192 -0.13109 0
0.61643 0.0536088 0
0.282088 -0.366366 0
0.279222 -0.271232 0
-0.28437 -0.301568 0
-0.284328 -0.376699 0
-0.612196 0.0160392 0
-0.609635 -0.169671 0
-0.430088 0.324134 0
-0.428257 0.184066 0
0.113642 0.361095 0
0.111251 0.390226 0
0.573185 0.0890626 0
0.566224 0.271173 0
-0.572203 0.132496 0
-0.575247 0.0468993 0
-0.0916894 0.220618 0
-0.0937965 0.20325 0
0.471148 0.130544 0
0.468952 0.204494 0
0.650679 -0.0712796 0
0.647885 0.041884 0
0.297518 -0.221253 0
0.295033 -0.158449 0
-0.298038 -0.190975 0
-0.298748 -0.232035 0
-0.64502 0.000599662 0
-0.643959 -0.112192 0
-0.456563 0.194846 0
-0.456007 0.107047 0
0.113315 0.223732 0
0.110583 0.242167 0
0.596473 0.0557942 0
0.58995 0.174003 0
-0.592583 0.0303466 0
-0.597133 0.0130492 0
-0.100339 0.0670664 0
-0.102936 0.0619761 0
0.477969 0.0522273 0
0.47648 0.0727818 0
0.664879 -0.00977939 0
0.663226 0.0287402 0
0.305496 -0.0706711 0
0.303502 -0.041891 0
-0.304488 -0.0755483 0
-0.305886 -0.0816759 0
-0.662215 -0.0144623 0
-0.662573 -0.0518842 0
-0.472233 0.0614332 0
-0.472797 0.0276252 0
0.109609 0.0815297 0
0.106803 0.0884726 0
0.604398 0.0214665 0
0.59868 0.0726661 0
-0.59868 -0.0726661 0
-0.604398 -0.0214665 0
-0.106803 -0.0884726 0
-0.109609 -0.0815297 0
0.472797 -0.0276252 0
0.472233 -0.0614332 0
0.662573 0.0518842 0
0.662215 0.0144623 0
0.305886 0.0816759 0
0.304488 0.0755483 0
-0.303502 0.041891 0
-0.305496 0.0706711 0
-0.663226 -0.0287402 0
-0.664879 0.00977939 0
-0.47648 -0.0727818 0
-0.477969 -0.0522273 0
0.102936 -0.0619761 0
0.100339 -0.0670664 0
0.597133 -0.0130492 0
0.592583 -0.0303466 0
-0.58995 -0.174003 0
-0.596473 -0.0557942 0
-0.110583 -0.242167 0
-0.113315 -0.223732 0
0.456007 -0.107047 0
0.456563 -0.194846 0
0.643959 0.112192 0
0.64502 -0.000599662 0
0.298748 0.232035 0
0.298038 0.190975 0
-0.295033 0.158449 0
-0.297518 0.221253 0
-0.647885 -0.041884 0
-0.650679 0.0712796 0
-0.468952 -0.204494 0
-0.471148 -0.130544 0
0.0937965 -0.20325 0
0.0916894 -0.220618 0
0.575247 -0.0468993 0
0.572203 -0.132496 0
-0.566224 -0.271173 0
-0.573185 -0.0890626 0
-0.111251 -0.390226 0
-0.113642 -0.361095 0
0.428257 -0.184066 0
0.430088 -0.324134 0
0.609635 0.169671 0
0.612196 -0.0160392 0
0.284328 0.376699 0
0.28437 0.301568 0
-0.279222 0.271232 0
-0.282088 0.366366 0
-0.61643 -0.0536088 0
-0.620192 0.13109 0
-0.449591 -0.3305 0
-0.452272 -0.205412 0
0.0827511 -0.338846 0
0.0813837 -0.368407 0
0.539667 -0.0792689 0
0.538409 -0.231258 0
-0.527733 -0.361798 0
-0.534792 -0.120406 0
-0.108486 -0.52899 0
-0.110309 -0.490168 0
0.390452 -0.256757 0
0.393657 -0.446037 0
0.560574 0.222929 0
0.564655 -0.0314056 0
0.263037 0.512097 0
0.263863 0.404651 0
-0.256401 0.377413 0
-0.259547 0.502442 0
-0.569513 -0.0636994 0
-0.574068 0.187713 0
-0.418654 -0.447774 0
-0.421613 -0.275016 0
0.070374 -0.465489 0
0.0699466 -0.506804 0
0.491621 -0.109401 0
0.492351 -0.324183 0
-0.475136 -0.443663 0
-0.482001 -0.148991 0
-0.102105 -0.655024 0
-0.103193 -0.60768 0
0.343705 -0.323287 0
0.348314 -0.557446 0
0.498079 0.27069 0
0.503639 -0.0462193 0
0.235437 0.634885 0
0.237033 0.497749 0
-0.227097 0.474311 0
-0.230441 0.626139 0
-0.508198 -0.0720106 0
-0.513377 0.23972 0
-0.376727 -0.553536 0
-0.379784 -0.337686 0
0.057218 -0.580153 0
0.0578631 -0.632418 0
0.432582 -0.136611 0
0.435403 -0.408961 0
-0.409521 -0.514778 0
-0.415965 -0.174038 0
-0.0920868 -0.765203 0
-0.0923435 -0.710626 0
0.289294 -0.38196 0
0.295263 -0.655489 0
0.423748 0.311823 0
0.430675 -0.0599905 0
0.202213 0.742031 0
0.204519 0.57865 0
-0.192029 0.55946 0
-0.19551 0.734423 0
-0.433942 -0.0784648 0
-0.439595 0.285783 0
-0.324722 -0.645314 0
-0.327737 -0.391935 0
0.0437817 -0.680127 0
0.0455518 -0.742179 0
0.364213 -0.160301 0
0.369115 -0.48348 0
-0.332398 -0.573415 0
-0.338269 -0.194849 0
-0.0785863 -0.856788 0
-0.0779945 -0.796347 0
0.22862 -0.431266 0
0.235827 -0.737608 0
0.339424 0.345374 0
0.34754 -0.0722384 0
0.164157 0.830888 0
0.167065 0.645455 0
-0.152089 0.630672 0
-0.155674 0.824635 0
-0.348566 -0.0830456 0
-0.354566 0.324712 0
-0.263863 -0.720992 0
-0.26674 -0.436495 0
0.0304838 -0.763073 0
0.0333445 -0.833409 0
0.288306 -0.179967 0
0.295164 -0.545881 0
-0.245663 -0.618157 0
-0.250893 -0.21083 0
-0.0619373 -0.927497 0
-0.0605601 -0.862605 0
0.163172 -0.469915 0
0.17142 -0.801632 0
0.247149 0.370585 0
0.256214 -0.0825122 0
0.122144 0.899265 0
0.125504 0.696614 0
-0.108325 0.686098 0
-0.112007 0.89456 0
-0.254213 -0.0857898 0
-0.260457 0.355481 0
-0.195664 -0.778856 0
-0.198353 -0.470344 0
0.0176459 -0.827077 0
0.021477 -0.903894 0
0.206734 -0.195208 0
0.215306 -0.594603 0
-0.151557 -0.647924 0
-0.156154 -0.221513 0
-0.0426442 -0.97556 0
-0.0406197 -0.90765 0
0.0944872 -0.496873 0
0.103519 -0.845846 0
0.149118 0.386912 0
0.15884 -0.0904104 0
0.0771185 0.94548 0
0.0807426 0.730964 0
-0.0619074 0.724281 0
-0.0657015 0.942479 0
-0.15329 -0.0867781 0
-0.159697 0.377257 0
-0.121882 -0.817623 0
-0.124377 -0.492734 0
0.00548558 -0.870688 0
0.0100871 -0.951926 0
0.1214 -0.205726 0
0.131342 -0.628428 0
-0.0526021 -0.662 0
-0.0566428 -0.226571 0
-0.0213625 -0.999772 0
-0.0188927 -0.930267 0
0.0241258 -0.511391 0
0.0336358 -0.869041 0
0.0476312 0.394038 0
0.0576811 -0.0955994 0
0.0300727 0.968405 0
0.0337507 0.747753 0
-0.0140979 0.744191 0
-0.0180338 0.967207 0
-0.0484038 -0.0861243 0
-0.0549082 0.389421 0
-0.0444727 -0.83646 0
-0.0467953 -0.503201 0
-0.005882 -0.892942 0
-0.000776444 -0.976353 0
0.0342063 -0.211332 0
0.045084 -0.646511 0
