# vtk DataFile Version 3.0
tp3485 cell-vector
ASCII
DATASET UNSTRUCTURED_GRID
POINTS 231 double
0 0 0
0.1 0 0
0.2 0 0
0.3 0 0
0.4 0 0
0.5 0 0
0.6 0 0
0.7 0 0
0.8 0 0
0.9 0 0
1 0 0
0 0.025 0
0.1 0.025 0
0.2 0.025 0
0.3 0.025 0
0.4 0.025 0
0.5 0.025 0
0.6 0.025 0
0.7 0.025 0
0.8 0.025 0
0.9 0.025 0
1 0.025 0
0 0.05 0
0.1 0.05 0
0.2 0.05 0
0.3 0.05 0
0.4 0.05 0
0.5 0.05 0
0.6 0.05 0
0.7 0.05 0
0.8 0.05 0
0.9 0.05 0
1 0.05 0
0 0.075 0
0.1 0.075 0
0.2 0.075 0
0.3 0.075 0
0.4 0.075 0
0.5 0.075 0
0.6 0.075 0
0.7 0.075 0
0.8 0.075 0
0.9 0.075 0
1 0.075 0
0 0.1 0
0.1 0.1 0
0.2 0.1 0
0.3 0.1 0
0.4 0.1 0
0.5 0.1 0
0.6 0.1 0
0.7 0.1 0
0.8 0.1 0
0.9 0.1 0
1 0.1 0
0 0.125 0
0.1 0.125 0
0.2 0.125 0
0.3 0.125 0
0.4 0.125 0
0.5 0.125 0
0.6 0.125 0
0.7 0.125 0
0.8 0.125 0
0.9 0.125 0
1 0.125 0
0 0.15 0
0.1 0.15 0
0.2 0.15 0
0.3 0.15 0
0.4 0.15 0
0.5 0.15 0
0.6 0.15 0
0.7 0.15 0
0.8 0.15 0
0.9 0.15 0
1 0.15 0
0 0.175 0
0.1 0.175 0
0.2 0.175 0
0.3 0.175 0
0.4 0.175 0
0.5 0.175 0
0.6 0.175 0
0.7 0.175 0
0.8 0.175 0
0.9 0.175 0
1 0.175 0
0 0.2 0
0.1 0.2 0
0.2 0.2 0
0.3 0.2 0
0.4 0.2 0
0.5 0.2 0
0.6 0.2 0
0.7 0.2 0
0.8 0.2 0
0.9 0.2 0
1 0.2 0
0 0.225 0
0.1 0.225 0
0.2 0.225 0
0.3 0.225 0
0.4 0.225 0
0.5 0.225 0
0.6 0.225 0
0.7 0.225 0
0.8 0.225 0
0.9 0.225 0
1 0.225 0
0 0.25 0
0.1 0.25 0
0.2 0.25 0
0.3 0.25 0
0.4 0.25 0
0.5 0.25 0
0.6 0.25 0
0.7 0.25 0
0.8 0.25 0
0.9 0.25 0
1 0.25 0
0 0.275 0
0.1 0.275 0
0.2 0.275 0
0.3 0.275 0
0.4 0.275 0
0.5 0.275 0
0.6 0.275 0
0.7 0.275 0
0.8 0.275 0
0.9 0.275 0
1 0.275 0
0 0.3 0
0.1 0.3 0
0.2 0.3 0
0.3 0.3 0
0.4 0.3 0
0.5 0.3 0
0.6 0.3 0
0.7 0.3 0
0.8 0.3 0
0.9 0.3 0
1 0.3 0
0 0.325 0
0.1 0.325 0
0.2 0.325 0
0.3 0.325 0
0.4 0.325 0
0.5 0.325 0
0.6 0.325 0
0.7 0.325 0
0.8 0.325 0
0.9 0.325 0
1 0.325 0
0 0.35 0
0.1 0.35 0
0.2 0.35 0
0.3 0.35 0
0.4 0.35 0
0.5 0.35 0
0.6 0.35 0
0.7 0.35 0
0.8 0.35 0
0.9 0.35 0
1 0.35 0
0 0.375 0
0.1 0.375 0
0.2 0.375 0
0.3 0.375 0
0.4 0.375 0
0.5 0.375 0
0.6 0.375 0
0.7 0.375 0
0.8 0.375 0
0.9 0.375 0
1 0.375 0
0 0.4 0
0.1 0.4 0
0.2 0.4 0
0.3 0.4 0
0.4 0.4 0
0.5 0.4 0
0.6 0.4 0
0.7 0.4 0
0.8 0.4 0
0.9 0.4 0
1 0.4 0
0 0.425 0
0.1 0.425 0
0.2 0.425 0
0.3 0.425 0
0.4 0.425 0
0.5 0.425 0
0.6 0.425 0
0.7 0.425 0
0.8 0.425 0
0.9 0.425 0
1 0.425 0
0 0.45 0
0.1 0.45 0
0.2 0.45 0
0.3 0.45 0
0.4 0.45 0
0.5 0.45 0
0.6 0.45 0
0.7 0.45 0
0.8 0.45 0
0.9 0.45 0
1 0.45 0
0 0.475 0
0.1 0.475 0
0.2 0.475 0
0.3 0.475 0
0.4 0.475 0
0.5 0.475 0
0.6 0.475 0
0.7 0.475 0
0.8 0.475 0
0.9 0.475 0
1 0.475 0
0 0.5 0
0.1 0.5 0
0.2 0.5 0
0.3 0.5 0
0.4 0.5 0
0.5 0.5 0
0.6 0.5 0
0.7 0.5 0
0.8 0.5 0
0.9 0.5 0
1 0.5 0
CELLS 400 1600
3 0 1 12
3 0 12 11
3 1 2 13
3 1 13 12
3 2 3 14
3 2 14 13
3 3 4 15
3 3 15 14
3 4 5 16
3 4 16 15
3 5 6 17
3 5 17 16
3 6 7 18
3 6 18 17
3 7 8 19
3 7 19 18
3 8 9 20
3 8 20 19
3 9 10 21
3 9 21 20
3 11 12 23
3 11 23 22
3 12 13 24
3 12 24 23
3 13 14 25
3 13 25 24
3 14 15 26
3 14 26 25
3 15 16 27
3 15 27 26
3 16 17 28
3 16 28 27
3 17 18 29
3 17 29 28
3 18 19 30
3 18 30 29
3 19 20 31
3 19 31 30
3 20 21 32
3 20 32 31
3 22 23 34
3 22 34 33
3 23 24 35
3 23 35 34
3 24 25 36
3 24 36 35
3 25 26 37
3 25 37 36
3 26 27 38
3 26 38 37
3 27 28 39
3 27 39 38
3 28 29 40
3 28 40 39
3 29 30 41
3 29 41 40
3 30 31 42
3 30 42 41
3 31 32 43
3 31 43 42
3 33 34 45
3 33 45 44
3 34 35 46
3 34 46 45
3 35 36 47
3 35 47 46
3 36 37 48
3 36 48 47
3 37 38 49
3 37 49 48
3 38 39 50
3 38 50 49
3 39 40 51
3 39 51 50
3 40 41 52
3 40 52 51
3 41 42 53
3 41 53 52
3 42 43 54
3 42 54 53
3 44 45 56
3 44 56 55
3 45 46 57
3 45 57 56
3 46 47 58
3 46 58 57
3 47 48 59
3 47 59 58
3 48 49 60
3 48 60 59
3 49 50 61
3 49 61 60
3 50 51 62
3 50 62 61
3 51 52 63
3 51 63 62
3 52 53 64
3 52 64 63
3 53 54 65
3 53 65 64
3 55 56 67
3 55 67 66
3 56 57 68
3 56 68 67
3 57 58 69
3 57 69 68
3 58 59 70
3 58 70 69
3 59 60 71
3 59 71 70
3 60 61 72
3 60 72 71
3 61 62 73
3 61 73 72
3 62 63 74
3 62 74 73
3 63 64 75
3 63 75 74
3 64 65 76
3 64 76 75
3 66 67 78
3 66 78 77
3 67 68 79
3 67 79 78
3 68 69 80
3 68 80 79
3 69 70 81
3 69 81 80
3 70 71 82
3 70 82 81
3 71 72 83
3 71 83 82
3 72 73 84
3 72 84 83
3 73 74 85
3 73 85 84
3 74 75 86
3 74 86 85
3 75 76 87
3 75 87 86
3 77 78 89
3 77 89 88
3 78 79 90
3 78 90 89
3 79 80 91
3 79 91 90
3 80 81 92
3 80 92 91
3 81 82 93
3 81 93 92
3 82 83 94
3 82 94 93
3 83 84 95
3 83 95 94
3 84 85 96
3 84 96 95
3 85 86 97
3 85 97 96
3 86 87 98
3 86 98 97
3 88 89 100
3 88 100 99
3 89 90 101
3 89 101 100
3 90 91 102
3 90 102 101
3 91 92 103
3 91 103 102
3 92 93 104
3 92 104 103
3 93 94 105
3 93 105 104
3 94 95 106
3 94 106 105
3 95 96 107
3 95 107 106
3 96 97 108
3 96 108 107
3 97 98 109
3 97 109 108
3 99 100 111
3 99 111 110
3 100 101 112
3 100 112 111
3 101 102 113
3 101 113 112
3 102 103 114
3 102 114 113
3 103 104 115
3 103 115 114
3 104 105 116
3 104 116 115
3 105 106 117
3 105 117 116
3 106 107 118
3 106 118 117
3 107 108 119
3 107 119 118
3 108 109 120
3 108 120 119
3 110 111 122
3 110 122 121
3 111 112 123
3 111 123 122
3 112 113 124
3 112 124 123
3 113 114 125
3 113 125 124
3 114 115 126
3 114 126 125
3 115 116 127
3 115 127 126
3 116 117 128
3 116 128 127
3 117 118 129
3 117 129 128
3 118 119 130
3 118 130 129
3 119 120 131
3 119 131 130
3 121 122 133
3 121 133 132
3 122 123 134
3 122 134 133
3 123 124 135
3 123 135 134
3 124 125 136
3 124 136 135
3 125 126 137
3 125 137 136
3 126 127 138
3 126 138 137
3 127 128 139
3 127 139 138
3 128 129 140
3 128 140 139
3 129 130 141
3 129 141 140
3 130 131 142
3 130 142 141
3 132 133 144
3 132 144 143
3 133 134 145
3 133 145 144
3 134 135 146
3 134 146 145
3 135 136 147
3 135 147 146
3 136 137 148
3 136 148 147
3 137 138 149
3 137 149 148
3 138 139 150
3 138 150 149
3 139 140 151
3 139 151 150
3 140 141 152
3 140 152 151
3 141 142 153
3 141 153 152
3 143 144 155
3 143 155 154
3 144 145 156
3 144 156 155
3 145 146 157
3 145 157 156
3 146 147 158
3 146 158 157
3 147 148 159
3 147 159 158
3 148 149 160
3 148 160 159
3 149 150 161
3 149 161 160
3 150 151 162
3 150 162 161
3 151 152 163
3 151 163 162
3 152 153 164
3 152 164 163
3 154 155 166
3 154 166 165
3 155 156 167
3 155 167 166
3 156 157 168
3 156 168 167
3 157 158 169
3 157 169 168
3 158 159 170
3 158 170 169
3 159 160 171
3 159 171 170
3 160 161 172
3 160 172 171
3 161 162 173
3 161 173 172
3 162 163 174
3 162 174 173
3 163 164 175
3 163 175 174
3 165 166 177
3 165 177 176
3 166 167 178
3 166 178 177
3 167 168 179
3 167 179 178
3 168 169 180
3 168 180 179
3 169 170 181
3 169 181 180
3 170 171 182
3 170 182 181
3 171 172 183
3 171 183 182
3 172 173 184
3 172 184 183
3 173 174 185
3 173 185 184
3 174 175 186
3 174 186 185
3 176 177 188
3 176 188 187
3 177 178 189
3 177 189 188
3 178 179 190
3 178 190 189
3 179 180 191
3 179 191 190
3 180 181 192
3 180 192 191
3 181 182 193
3 181 193 192
3 182 183 194
3 182 194 193
3 183 184 195
3 183 195 194
3 184 185 196
3 184 196 195
3 185 186 197
3 185 197 196
3 187 188 199
3 187 199 198
3 188 189 200
3 188 200 199
3 189 190 201
3 189 201 200
3 190 191 202
3 190 202 201
3 191 192 203
3 191 203 202
3 192 193 204
3 192 204 203
3 193 194 205
3 193 205 204
3 194 195 206
3 194 206 205
3 195 196 207
3 195 207 206
3 196 197 208
3 196 208 207
3 198 199 210
3 198 210 209
3 199 200 211
3 199 211 210
3 200 201 212
3 200 212 211
3 201 202 213
3 201 213 212
3 202 203 214
3 202 214 213
3 203 204 215
3 203 215 214
3 204 205 216
3 204 216 215
3 205 206 217
3 205 217 216
3 206 207 218
3 206 218 217
3 207 208 219
3 207 219 218
3 209 210 221
3 209 221 220
3 210 211 222
3 210 222 221
3 211 212 223
3 211 223 222
3 212 213 224
3 212 224 223
3 213 214 225
3 213 225 224
3 214 215 226
3 214 226 225
3 215 216 227
3 215 227 226
3 216 217 228
3 216 228 227
3 217 218 229
3 217 229 228
3 218 219 230
3 218 230 229
CELL_TYPES 400
5
5
5
5
5
5
5
5
5
5
5
5
5
5
5
5
5
5
5
5
5
5
5
5
5
5
5
5
5
5
5
5
5
5
5
5
5
5
5
5
5
5
5
5
5
5
5
5
5
5
5
5
5
5
5
5
5
5
5
5
5
5
5
5
5
5
5
5
5
5
5
5
5
5
5
5
5
5
5
5
5
5
5
5
5
5
5
5
5
5
5
5
5
5
5
5
5
5
5
5
5
5
5
5
5
5
5
5
5
5
5
5
5
5
5
5
5
5
5
5
5
5
5
5
5
5
5
5
5
5
5
5
5
5
5
5
5
5
5
5
5
5
5
5
5
5
5
5
5
5
5
5
5
5
5
5
5
5
5
5
5
5
5
5
5
5
5
5
5
5
5
5
5
5
5
5
5
5
5
5
5
5
5
5
5
5
5
5
5
5
5
5
5
5
5
5
5
5
5
5
5
5
5
5
5
5
5
5
5
5
5
5
5
5
5
5
5
5
5
5
5
5
5
5
5
5
5
5
5
5
5
5
5
5
5
5
5
5
5
5
5
5
5
5
5
5
5
5
5
5
5
5
5
5
5
5
5
5
5
5
5
5
5
5
5
5
5
5
5
5
5
5
5
5
5
5
5
5
5
5
5
5
5
5
5
5
5
5
5
5
5
5
5
5
5
5
5
5
5
5
5
5
5
5
5
5
5
5
5
5
5
5
5
5
5
5
5
5
5
5
5
5
5
5
5
5
5
5
5
5
5
5
5
5
5
5
5
5
5
5
5
5
5
5
5
5
5
5
5
5
5
5
5
5
5
5
5
5
5
5
5
5
5
5
5
5
5
5
5
5
5
5
5
5
5
5
5
5
5
5
5
5
5
5
5
5
5
5
5
5
5
5
5
5
5
5
5
5
5
5
CELL_DATA 400
VECTORS Ht double
-0.287067 0.0149808 0
-0.293172 0.0717667 0
-0.255561 -0.0806564 0
-0.262953 -0.0228573 0
0.317638 -0.0098417 0
0.321684 -0.0626435 0
0.243694 0.0860942 0
0.251459 0.0283278 0
-0.356262 0.00937472 0
-0.359529 0.0638948 0
-0.263745 -0.0918116 0
-0.27128 -0.0325041 0
0.377693 -0.0133502 0
0.380453 -0.0685477 0
0.299488 0.0946152 0
0.306525 0.0329013 0
-0.372951 0.0203363 0
-0.375314 0.0734948 0
-0.337474 -0.0843684 0
-0.341518 -0.0292057 0
-0.275144 0.0466491 0
-0.292791 0.213846 0
-0.250709 -0.226583 0
-0.26875 -0.0681889 0
0.30186 -0.0330928 0
0.316945 -0.201019 0
0.240169 0.241762 0
0.258979 0.0845578 0
-0.337303 0.0322644 0
-0.35018 0.205342 0
-0.258959 -0.257366 0
-0.276725 -0.0970418 0
0.356731 -0.0435685 0
0.368485 -0.21985 0
0.292079 0.264614 0
0.308258 0.0977649 0
-0.351615 0.0622171 0
-0.362874 0.234879 0
-0.324523 -0.250879 0
-0.336697 -0.0863083 0
-0.258926 0.079325 0
-0.287257 0.351775 0
-0.241932 -0.367803 0
-0.270095 -0.111124 0
0.279723 -0.0589566 0
0.305261 -0.336636 0
0.23371 0.391238 0
0.263039 0.136416 0
-0.308428 0.0579502 0
-0.330551 0.34369 0
-0.249255 -0.415187 0
-0.276838 -0.155885 0
0.324104 -0.0756279 0
0.344579 -0.366671 0
0.276662 0.425911 0
0.301665 0.156741 0
-0.318877 0.103566 0
-0.339006 0.39025 0
-0.300728 -0.410235 0
-0.32128 -0.138739 0
-0.238154 0.112466 0
-0.276112 0.483128 0
-0.228831 -0.501455 0
-0.266305 -0.150886 0
0.251609 -0.0874588 0
0.28673 -0.466933 0
0.223749 0.530834 0
0.262695 0.182439 0
-0.2707 0.0864443 0
-0.301553 0.476104 0
-0.234387 -0.560787 0
-0.271077 -0.206885 0
0.281226 -0.108916 0
0.310033 -0.505328 0
0.253461 0.573694 0
0.286761 0.207699 0
-0.276432 0.143046 0
-0.305229 0.535108 0
-0.267432 -0.557413 0
-0.296333 -0.184901 0
-0.212654 0.145406 0
-0.258999 0.605319 0
-0.21098 -0.624666 0
-0.25671 -0.186697 0
0.217976 -0.118304 0
0.261561 -0.589218 0
0.209553 0.657091 0
0.256889 0.221398 0
-0.225557 0.117421 0
-0.264469 0.599687 0
-0.214126 -0.690132 0
-0.25895 -0.248339 0
0.230002 -0.142612 0
0.266631 -0.632293 0
0.222961 0.703779 0
0.263855 0.248973 0
-0.22636 0.179427 0
-0.26341 0.665351 0
-0.226251 -0.688059 0
-0.263196 -0.223533 0
-0.182377 0.177351 0
-0.2357 0.715663 0
-0.188003 -0.734598 0
-0.240718 -0.217807 0
0.17938 -0.150831 0
0.230109 -0.700701 0
0.190334 0.766869 0
0.244576 0.252355 0
-0.174733 0.150178 0
-0.220875 0.711515 0
-0.188319 -0.799783 0
-0.24007 -0.279079 0
0.172714 -0.1757 0
0.216527 -0.744296 0
0.185924 0.812752 0
0.233552 0.279453 0
-0.170964 0.211609 0
-0.215619 0.777416 0
-0.178988 -0.798605 0
-0.223405 -0.253762 0
-0.147415 0.207375 0
-0.206177 0.811442 0
-0.159634 -0.8285 0
-0.21789 -0.243522 0
0.136497 -0.184005 0
0.1929 -0.798538 0
0.165378 0.857438 0
0.224863 0.274692 0
-0.120154 0.183634 0
-0.172538 0.808692 0
-0.156938 -0.887019 0
-0.214226 -0.29854 0
0.111878 -0.207009 0
0.162092 -0.838413 0
0.14337 0.898063 0
0.196736 0.298633 0
-0.112618 0.238645 0
-0.163988 0.868395 0
-0.12755 -0.886344 0
-0.178608 -0.275119 0
-0.108045 0.234452 0
-0.170604 0.889997 0
-0.125786 -0.903796 0
-0.188001 -0.263235 0
0.0901443 -0.216448 0
0.150663 -0.879922 0
0.134178 0.92655 0
0.197151 0.288136 0
-0.0638276 0.216361 0
-0.121308 0.888431 0
-0.120146 -0.949915 0
-0.181446 -0.306765 0
0.0500828 -0.235267 0
0.105758 -0.912154 0
0.0965442 0.958065 0
0.154528 0.306614 0
-0.0536272 0.259764 0
-0.110584 0.936117 0
-0.0738493 -0.949458 0
-0.130483 -0.287527 0
-0.0647416 0.25748 0
-0.129403 0.948834 0
-0.0865969 -0.958183 0
-0.1511 -0.276451 0
0.0412972 -0.246508 0
0.104337 -0.942175 0
0.0965592 0.972505 0
0.161249 0.292757 0
-0.00772856 0.246662 0
-0.0690078 0.948163 0
-0.0783402 -0.987372 0
-0.142046 -0.304378 0
-0.0101743 -0.259166 0
0.0498503 -0.963539 0
0.0468572 0.992008 0
0.108221 0.304063 0
0.00389702 0.274386 0
-0.0573138 0.979192 0
-0.0197231 -0.98701 0
-0.0806573 -0.29127 0
-0.0182029 0.275337 0
-0.0832603 0.985735 0
-0.0424823 -0.989733 0
-0.107562 -0.282813 0
-0.0089114 -0.272359 0
0.0550697 -0.982876 0
0.0527734 0.994198 0
0.117465 0.28896 0
0.0463074 0.272675 0
-0.0173407 0.98565 0
-0.0321909 -0.999117 0
-0.0966713 -0.292508 0
-0.0666452 -0.277445 0
-0.00355855 -0.991155 0
-0.00418674 0.999991 0
0.0592089 0.292135 0
0.058123 0.28213 0
-0.0058363 0.997015 0
0.0331405 -0.998889 0
-0.0306458 -0.286931 0
0.0306458 0.286931 0
-0.0331405 0.998889 0
0.0058363 -0.997015 0
-0.058123 -0.28213 0
-0.0592089 -0.292135 0
0.00418674 -0.999991 0
0.00355855 0.991155 0
0.0666452 0.277445 0
0.0966713 0.292508 0
0.0321909 0.999117 0
0.0173407 -0.98565 0
-0.0463074 -0.272675 0
-0.117465 -0.28896 0
-0.0527734 -0.994198 0
-0.0550697 0.982876 0
0.0089114 0.272359 0
0.107562 0.282813 0
0.0424823 0.989733 0
0.0832603 -0.985735 0
0.0182029 -0.275337 0
0.0806573 0.29127 0
0.0197231 0.98701 0
0.0573138 -0.979192 0
-0.00389702 -0.274386 0
-0.108221 -0.304063 0
-0.0468572 -0.992008 0
-0.0498503 0.963539 0
0.0101743 0.259166 0
0.142046 0.304378 0
0.0783402 0.987372 0
0.0690078 -0.948163 0
0.00772856 -0.246662 0
-0.161249 -0.292757 0
-0.0965592 -0.972505 0
-0.104337 0.942175 0
-0.0412972 0.246508 0
0.1511 0.276451 0
0.0865969 0.958183 0
0.129403 -0.948834 0
0.0647416 -0.25748 0
0.130483 0.287527 0
0.0738493 0.949458 0
0.110584 -0.936117 0
0.0536272 -0.259764 0
-0.154528 -0.306614 0
-0.0965442 -0.958065 0
-0.105758 0.912154 0
-0.0500828 0.235267 0
0.181446 0.306765 0
0.120146 0.949915 0
0.121308 -0.888431 0
0.0638276 -0.216361 0
-0.197151 -0.288136 0
-0.134178 -0.92655 0
-0.150663 0.879922 0
-0.0901443 0.216448 0
0.188001 0.263235 0
0.125786 0.903796 0
0.170604 -0.889997 0
0.108045 -0.234452 0
0.178608 0.275119 0
0.12755 0.886344 0
0.163988 -0.868395 0
0.112618 -0.238645 0
-0.196736 -0.298633 0
-0.14337 -0.898063 0
-0.162092 0.838413 0
-0.111878 0.207009 0
0.214226 0.29854 0
0.156938 0.887019 0
0.172538 -0.808692 0
0.120154 -0.183634 0
-0.224863 -0.274692 0
-0.165378 -0.857438 0
-0.1929 0.798538 0
-0.136497 0.184005 0
0.21789 0.243522 0
0.159634 0.8285 0
0.206177 -0.811442 0
0.147415 -0.207375 0
0.223405 0.253762 0
0.178988 0.798605 0
0.215619 -0.777416 0
0.170964 -0.211609 0
-0.233552 -0.279453 0
-0.185924 -0.812752 0
-0.216527 0.744296 0
-0.172714 0.1757 0
0.24007 0.279079 0
0.188319 0.799783 0
0.220875 -0.711515 0
0.174733 -0.150178 0
-0.244576 -0.252355 0
-0.190334 -0.766869 0
-0.230109 0.700701 0
-0.17938 0.150831 0
0.240718 0.217807 0
0.188003 0.734598 0
0.2357 -0.715663 0
0.182377 -0.177351 0
0.263196 0.223533 0
0.226251 0.688059 0
0.26341 -0.665351 0
0.22636 -0.179427 0
-0.263855 -0.248973 0
-0.222961 -0.703779 0
-0.266631 0.632293 0
-0.230002 0.142612 0
0.25895 0.248339 0
0.214126 0.690132 0
0.264469 -0.599687 0
0.225557 -0.117421 0
-0.256889 -0.221398 0
-0.209553 -0.657091 0
-0.261561 0.589218 0
-0.217976 0.118304 0
0.25671 0.186697 0
0.21098 0.624666 0
0.258999 -0.605319 0
0.212654 -0.145406 0
0.296333 0.184901 0
0.267432 0.557413 0
0.305229 -0.535108 0
0.276432 -0.143046 0
-0.286761 -0.207699 0
-0.253461 -0.573694 0
-0.310033 0.505328 0
-0.281226 0.108916 0
0.271077 0.206885 0
0.234387 0.560787 0
0.301553 -0.476104 0
0.2707 -0.0864443 0
-0.262695 -0.182439 0
-0.223749 -0.530834 0
-0.28673 0.466933 0
-0.251609 0.0874588 0
0.266305 0.150886 0
0.228831 0.501455 0
0.276112 -0.483128 0
0.238154 -0.112466 0
0.32128 0.138739 0
0.300728 0.410235 0
0.339006 -0.39025 0
0.318877 -0.103566 0
-0.301665 -0.156741 0
-0.276662 -0.425911 0
-0.344579 0.366671 0
-0.324104 0.0756279 0
0.276838 0.155885 0
0.249255 0.415187 0
0.330551 -0.34369 0
0.308428 -0.0579502 0
-0.263039 -0.136416 0
-0.23371 -0.391238 0
-0.305261 0.336636 0
-0.279723 0.0589566 0
0.270095 0.111124 0
0.241932 0.367803 0
0.287257 -0.351775 0
0.258926 -0.079325 0
0.336697 0.0863083 0
0.324523 0.250879 0
0.362874 -0.234879 0
0.351615 -0.0622171 0
-0.308258 -0.0977649 0
-0.292079 -0.264614 0
-0.368485 0.21985 0
-0.356731 0.0435685 0
0.276725 0.0970418 0
0.258959 0.257366 0
0.35018 -0.205342 0
0.337303 -0.0322644 0
-0.258979 -0.0845578 0
-0.240169 -0.241762 0
-0.316945 0.201019 0
-0.30186 0.0330928 0
0.26875 0.0681889 0
0.250709 0.226583 0
0.292791 -0.213846 0
0.275144 -0.0466491 0
0.341518 0.0292057 0
0.337474 0.0843684 0
0.375314 -0.0734948 0
0.372951 -0.0203363 0
-0.306525 -0.0329013 0
-0.299488 -0.0946152 0
-0.380453 0.0685477 0
-0.377693 0.0133502 0
0.27128 0.0325041 0
0.263745 0.0918116 0
0.359529 -0.0638948 0
0.356262 -0.00937472 0
-0.251459 -0.0283278 0
-0.243694 -0.0860942 0
-0.321684 0.0626435 0
-0.317638 0.0098417 0
0.262953 0.0228573 0
0.255561 0.0806564 0
0.293172 -0.0717667 0
0.287067 -0.0149808 0
