# vtk DataFile Version 3.0
tp3485 cell-vector
ASCII
DATASET UNSTRUCTURED_GRID
POINTS 231 double
0 0 0
0.1 0 0
0.2 0 0
0.3 0 0
0.4 0 0
0.5 0 0
0.6 0 0
0.7 0 0
0.8 0 0
0.9 0 0
1 0 0
0 0.025 0
0.1 0.025 0
0.2 0.025 0
0.3 0.025 0
0.4 0.025 0
0.5 0.025 0
0.6 0.025 0
0.7 0.025 0
0.8 0.025 0
0.9 0.025 0
1 0.025 0
0 0.05 0
0.1 0.05 0
0.2 0.05 0
0.3 0.05 0
0.4 0.05 0
0.5 0.05 0
0.6 0.05 0
0.7 0.05 0
0.8 0.05 0
0.9 0.05 0
1 0.05 0
0 0.075 0
0.1 0.075 0
0.2 0.075 0
0.3 0.075 0
0.4 0.075 0
0.5 0.075 0
0.6 0.075 0
0.7 0.075 0
0.8 0.075 0
0.9 0.075 0
1 0.075 0
0 0.1 0
0.1 0.1 0
0.2 0.1 0
0.3 0.1 0
0.4 0.1 0
0.5 0.1 0
0.6 0.1 0
0.7 0.1 0
0.8 0.1 0
0.9 0.1 0
1 0.1 0
0 0.125 0
0.1 0.125 0
0.2 0.125 0
0.3 0.125 0
0.4 0.125 0
0.5 0.125 0
0.6 0.125 0
0.7 0.125 0
0.8 0.125 0
0.9 0.125 0
1 0.125 0
0 0.15 0
0.1 0.15 0
0.2 0.15 0
0.3 0.15 0
0.4 0.15 0
0.5 0.15 0
0.6 0.15 0
0.7 0.15 0
0.8 0.15 0
0.9 0.15 0
1 0.15 0
0 0.175 0
0.1 0.175 0
0.2 0.175 0
0.3 0.175 0
0.4 0.175 0
0.5 0.175 0
0.6 0.175 0
0.7 0.175 0
0.8 0.175 0
0.9 0.175 0
1 0.175 0
0 0.2 0
0.1 0.2 0
0.2 0.2 0
0.3 0.2 0
0.4 0.2 0
0.5 0.2 0
0.6 0.2 0
0.7 0.2 0
0.8 0.2 0
0.9 0.2 0
1 0.2 0
0 0.225 0
0.1 0.225 0
0.2 0.225 0
0.3 0.225 0
0.4 0.225 0
0.5 0.225 0
0.6 0.225 0
0.7 0.225 0
0.8 0.225 0
0.9 0.225 0
1 0.225 0
0 0.25 0
0.1 0.25 0
0.2 0.25 0
0.3 0.25 0
0.4 0.25 0
0.5 0.25 0
0.6 0.25 0
0.7 0.25 0
0.8 0.25 0
0.9 0.25 0
1 0.25 0
0 0.275 0
0.1 0.275 0
0.2 0.275 0
0.3 0.275 0
0.4 0.275 0
0.5 0.275 0
0.6 0.275 0
0.7 0.275 0
0.8 0.275 0
0.9 0.275 0
1 0.275 0
0 0.3 0
0.1 0.3 0
0.2 0.3 0
0.3 0.3 0
0.4 0.3 0
0.5 0.3 0
0.6 0.3 0
0.7 0.3 0
0.8 0.3 0
0.9 0.3 0
1 0.3 0
0 0.325 0
0.1 0.325 0
0.2 0.325 0
0.3 0.325 0
0.4 0.325 0
0.5 0.325 0
0.6 0.325 0
0.7 0.325 0
0.8 0.325 0
0.9 0.325 0
1 0.325 0
0 0.35 0
0.1 0.35 0
0.2 0.35 0
0.3 0.35 0
0.4 0.35 0
0.5 0.35 0
0.6 0.35 0
0.7 0.35 0
0.8 0.35 0
0.9 0.35 0
1 0.35 0
0 0.375 0
0.1 0.375 0
0.2 0.375 0
0.3 0.375 0
0.4 0.375 0
0.5 0.375 0
0.6 0.375 0
0.7 0.375 0
0.8 0.375 0
0.9 0.375 0
1 0.375 0
0 0.4 0
0.1 0.4 0
0.2 0.4 0
0.3 0.4 0
0.4 0.4 0
0.5 0.4 0
0.6 0.4 0
0.7 0.4 0
0.8 0.4 0
0.9 0.4 0
1 0.4 0
0 0.425 0
0.1 0.425 0
0.2 0.425 0
0.3 0.425 0
0.4 0.425 0
0.5 0.425 0
0.6 0.425 0
0.7 0.425 0
0.8 0.425 0
0.9 0.425 0
1 0.425 0
0 0.45 0
0.1 0.45 0
0.2 0.45 0
0.3 0.45 0
0.4 0.45 0
0.5 0.45 0
0.6 0.45 0
0.7 0.45 0
0.8 0.45 0
0.9 0.45 0
1 0.45 0
0 0.475 0
0.1 0.475 0
0.2 0.475 0
0.3 0.475 0
0.4 0.475 0
0.5 0.475 0
0.6 0.475 0
0.7 0.475 0
0.8 0.475 0
0.9 0.475 0
1 0.475 0
0 0.5 0
0.1 0.5 0
0.2 0.5 0
0.3 0.5 0
0.4 0.5 0
0.5 0.5 0
0.6 0.5 0
0.7 0.5 0
0.8 0.5 0
0.9 0.5 0
1 0.5 0
CELLS 400 1600
3 0 1 12
3 0 12 11
3 1 2 13
3 1 13 12
3 2 3 14
3 2 14 13
3 3 4 15
3 3 15 14
3 4 5 16
3 4 16 15
3 5 6 17
3 5 17 16
3 6 7 18
3 6 18 17
3 7 8 19
3 7 19 18
3 8 9 20
3 8 20 19
3 9 10 21
3 9 21 20
3 11 12 23
3 11 23 22
3 12 13 24
3 12 24 23
3 13 14 25
3 13 25 24
3 14 15 26
3 14 26 25
3 15 16 27
3 15 27 26
3 16 17 28
3 16 28 27
3 17 18 29
3 17 29 28
3 18 19 30
3 18 30 29
3 19 20 31
3 19 31 30
3 20 21 32
3 20 32 31
3 22 23 34
3 22 34 33
3 23 24 35
3 23 35 34
3 24 25 36
3 24 36 35
3 25 26 37
3 25 37 36
3 26 27 38
3 26 38 37
3 27 28 39
3 27 39 38
3 28 29 40
3 28 40 39
3 29 30 41
3 29 41 40
3 30 31 42
3 30 42 41
3 31 32 43
3 31 43 42
3 33 34 45
3 33 45 44
3 34 35 46
3 34 46 45
3 35 36 47
3 35 47 46
3 36 37 48
3 36 48 47
3 37 38 49
3 37 49 48
3 38 39 50
3 38 50 49
3 39 40 51
3 39 51 50
3 40 41 52
3 40 52 51
3 41 42 53
3 41 53 52
3 42 43 54
3 42 54 53
3 44 45 56
3 44 56 55
3 45 46 57
3 45 57 56
3 46 47 58
3 46 58 57
3 47 48 59
3 47 59 58
3 48 49 60
3 48 60 59
3 49 50 61
3 49 61 60
3 50 51 62
3 50 62 61
3 51 52 63
3 51 63 62
3 52 53 64
3 52 64 63
3 53 54 65
3 53 65 64
3 55 56 67
3 55 67 66
3 56 57 68
3 56 68 67
3 57 58 69
3 57 69 68
3 58 59 70
3 58 70 69
3 59 60 71
3 59 71 70
3 60 61 72
3 60 72 71
3 61 62 73
3 61 73 72
3 62 63 74
3 62 74 73
3 63 64 75
3 63 75 74
3 64 65 76
3 64 76 75
3 66 67 78
3 66 78 77
3 67 68 79
3 67 79 78
3 68 69 80
3 68 80 79
3 69 70 81
3 69 81 80
3 70 71 82
3 70 82 81
3 71 72 83
3 71 83 82
3 72 73 84
3 72 84 83
3 73 74 85
3 73 85 84
3 74 75 86
3 74 86 85
3 75 76 87
3 75 87 86
3 77 78 89
3 77 89 88
3 78 79 90
3 78 90 89
3 79 80 91
3 79 91 90
3 80 81 92
3 80 92 91
3 81 82 93
3 81 93 92
3 82 83 94
3 82 94 93
3 83 84 95
3 83 95 94
3 84 85 96
3 84 96 95
3 85 86 97
3 85 97 96
3 86 87 98
3 86 98 97
3 88 89 100
3 88 100 99
3 89 90 101
3 89 101 100
3 90 91 102
3 90 102 101
3 91 92 103
3 91 103 102
3 92 93 104
3 92 104 103
3 93 94 105
3 93 105 104
3 94 95 106
3 94 106 105
3 95 96 107
3 95 107 106
3 96 97 108
3 96 108 107
3 97 98 109
3 97 109 108
3 99 100 111
3 99 111 110
3 100 101 112
3 100 112 111
3 101 102 113
3 101 113 112
3 102 103 114
3 102 114 113
3 103 104 115
3 103 115 114
3 104 105 116
3 104 116 115
3 105 106 117
3 105 117 116
3 106 107 118
3 106 118 117
3 107 108 119
3 107 119 118
3 108 109 120
3 108 120 119
3 110 111 122
3 110 122 121
3 111 112 123
3 111 123 122
3 112 113 124
3 112 124 123
3 113 114 125
3 113 125 124
3 114 115 126
3 114 126 125
3 115 116 127
3 115 127 126
3 116 117 128
3 116 128 127
3 117 118 129
3 117 129 128
3 118 119 130
3 118 130 129
3 119 120 131
3 119 131 130
3 121 122 133
3 121 133 132
3 122 123 134
3 122 134 133
3 123 124 135
3 123 135 134
3 124 125 136
3 124 136 135
3 125 126 137
3 125 137 136
3 126 127 138
3 126 138 137
3 127 128 139
3 127 139 138
3 128 129 140
3 128 140 139
3 129 130 141
3 129 141 140
3 130 131 142
3 130 142 141
3 132 133 144
3 132 144 143
3 133 134 145
3 133 145 144
3 134 135 146
3 134 146 145
3 135 136 147
3 135 147 146
3 136 137 148
3 136 148 147
3 137 138 149
3 137 149 148
3 138 139 150
3 138 150 149
3 139 140 151
3 139 151 150
3 140 141 152
3 140 152 151
3 141 142 153
3 141 153 152
3 143 144 155
3 143 155 154
3 144 145 156
3 144 156 155
3 145 146 157
3 145 157 156
3 146 147 158
3 146 158 157
3 147 148 159
3 147 159 158
3 148 149 160
3 148 160 159
3 149 150 161
3 149 161 160
3 150 151 162
3 150 162 161
3 151 152 163
3 151 163 162
3 152 153 164
3 152 164 163
3 154 155 166
3 154 166 165
3 155 156 167
3 155 167 166
3 156 157 168
3 156 168 167
3 157 158 169
3 157 169 168
3 158 159 170
3 158 170 169
3 159 160 171
3 159 171 170
3 160 161 172
3 160 172 171
3 161 162 173
3 161 173 172
3 162 163 174
3 162 174 173
3 163 164 175
3 163 175 174
3 165 166 177
3 165 177 176
3 166 167 178
3 166 178 177
3 167 168 179
3 167 179 178
3 168 169 180
3 168 180 179
3 169 170 181
3 169 181 180
3 170 171 182
3 170 182 181
3 171 172 183
3 171 183 182
3 172 173 184
3 172 184 183
3 173 174 185
3 173 185 184
3 174 175 186
3 174 186 185
3 176 177 188
3 176 188 187
3 177 178 189
3 177 189 188
3 178 179 190
3 178 190 189
3 179 180 191
3 179 191 190
3 180 181 192
3 180 192 191
3 181 182 193
3 181 193 192
3 182 183 194
3 182 194 193
3 183 184 195
3 183 195 194
3 184 185 196
3 184 196 195
3 185 186 197
3 185 197 196
3 187 188 199
3 187 199 198
3 188 189 200
3 188 200 199
3 189 190 201
3 189 201 200
3 190 191 202
3 190 202 201
3 191 192 203
3 191 203 202
3 192 193 204
3 192 204 203
3 193 194 205
3 193 205 204
3 194 195 206
3 194 206 205
3 195 196 207
3 195 207 206
3 196 197 208
3 196 208 207
3 198 199 210
3 198 210 209
3 199 200 211
3 199 211 210
3 200 201 212
3 200 212 211
3 201 202 213
3 201 213 212
3 202 203 214
3 202 214 213
3 203 204 215
3 203 215 214
3 204 205 216
3 204 216 215
3 205 206 217
3 205 217 216
3 206 207 218
3 206 218 217
3 207 208 219
3 207 219 218
3 209 210 221
3 209 221 220
3 210 211 222
3 210 222 221
3 211 212 223
3 211 223 222
3 212 213 224
3 212 224 223
3 213 214 225
3 213 225 224
3 214 215 226
3 214 226 225
3 215 216 227
3 215 227 226
3 216 217 228
3 216 228 227
3 217 218 229
3 217 229 228
3 218 219 230
3 218 230 229
CELL_TYPES 400
5
5
5
5
5
5
5
5
5
5
5
5
5
5
5
5
5
5
5
5
5
5
5
5
5
5
5
5
5
5
5
5
5
5
5
5
5
5
5
5
5
5
5
5
5
5
5
5
5
5
5
5
5
5
5
5
5
5
5
5
5
5
5
5
5
5
5
5
5
5
5
5
5
5
5
5
5
5
5
5
5
5
5
5
5
5
5
5
5
5
5
5
5
5
5
5
5
5
5
5
5
5
5
5
5
5
5
5
5
5
5
5
5
5
5
5
5
5
5
5
5
5
5
5
5
5
5
5
5
5
5
5
5
5
5
5
5
5
5
5
5
5
5
5
5
5
5
5
5
5
5
5
5
5
5
5
5
5
5
5
5
5
5
5
5
5
5
5
5
5
5
5
5
5
5
5
5
5
5
5
5
5
5
5
5
5
5
5
5
5
5
5
5
5
5
5
5
5
5
5
5
5
5
5
5
5
5
5
5
5
5
5
5
5
5
5
5
5
5
5
5
5
5
5
5
5
5
5
5
5
5
5
5
5
5
5
5
5
5
5
5
5
5
5
5
5
5
5
5
5
5
5
5
5
5
5
5
5
5
5
5
5
5
5
5
5
5
5
5
5
5
5
5
5
5
5
5
5
5
5
5
5
5
5
5
5
5
5
5
5
5
5
5
5
5
5
5
5
5
5
5
5
5
5
5
5
5
5
5
5
5
5
5
5
5
5
5
5
5
5
5
5
5
5
5
5
5
5
5
5
5
5
5
5
5
5
5
5
5
5
5
5
5
5
5
5
5
5
5
5
5
5
5
5
5
5
5
5
5
5
5
5
5
5
5
5
5
5
5
5
5
5
5
5
5
5
5
5
5
5
5
5
5
5
5
5
5
5
5
5
5
5
5
5
5
5
5
5
5
5
CELL_DATA 400
VECTORS Et double
0.0368688 -0.87671 0
-0.0471692 -0.196541 0
-0.0259083 -0.736844 0
0.0079105 -0.999969 0
-0.0525858 0.410976 0
0.0509973 -0.423455 0
-0.00699566 0.982678 0
0.0232663 0.727483 0
0.0475823 0.200089 0
-0.0367597 0.869223 0
0.0362271 -0.8467 0
-0.0456901 -0.182182 0
-0.0245963 -0.715113 0
0.00925924 -0.970265 0
-0.0506039 0.400579 0
0.0522296 -0.414949 0
-0.00640353 0.951425 0
0.023638 0.704319 0
0.0462455 0.184982 0
-0.0364354 0.838863 0
0.0389273 -0.875302 0
-0.0445345 -0.196805 0
-0.0239236 -0.738105 0
0.00970012 -0.999434 0
-0.0540301 0.408821 0
0.0495602 -0.42544 0
-0.0103899 0.982707 0
0.0201349 0.725661 0
0.0461205 0.202083 0
-0.038083 0.870074 0
0.0385994 -0.845849 0
-0.0435273 -0.180063 0
-0.020584 -0.716793 0
0.0129727 -0.970057 0
-0.0488636 0.398757 0
0.053957 -0.416942 0
-0.0082276 0.951958 0
0.0220002 0.70313 0
0.0442778 0.184678 0
-0.0389703 0.840222 0
0.0416767 -0.873859 0
-0.0413433 -0.196869 0
-0.0219033 -0.738559 0
0.0115774 -0.99854 0
-0.0553862 0.407283 0
0.0481999 -0.42658 0
-0.0136692 0.982447 0
0.0170778 0.724126 0
0.044663 0.203153 0
-0.039434 0.870305 0
0.0408248 -0.845605 0
-0.0415182 -0.178812 0
-0.0167588 -0.71815 0
0.0165018 -0.97003 0
-0.0472111 0.397795 0
0.0555766 -0.418219 0
-0.0100759 0.952861 0
0.0202708 0.702797 0
0.0416358 0.18455 0
-0.0420588 0.841633 0
0.0448808 -0.872289 0
-0.0378344 -0.196701 0
-0.0198567 -0.738222 0
0.0134922 -0.997156 0
-0.0566219 0.406348 0
0.0469425 -0.426881 0
-0.0167728 0.981928 0
0.0141585 0.72288 0
0.0432228 0.203352 0
-0.0407952 0.869953 0
0.0428278 -0.845939 0
-0.0397341 -0.178392 0
-0.0132375 -0.719196 0
0.0197351 -0.970185 0
-0.0457206 0.397682 0
0.0570262 -0.41882 0
-0.0119591 0.954264 0
0.0184813 0.703296 0
0.0385395 0.18464 0
-0.0454774 0.843189 0
0.0482877 -0.870539 0
-0.0342585 -0.196283 0
-0.0178371 -0.737129 0
0.0153626 -0.995206 0
-0.0577154 0.405988 0
0.045805 -0.426367 0
-0.0196419 0.981186 0
0.0114403 0.721917 0
0.0418174 0.202757 0
-0.0421427 0.869069 0
0.0445446 -0.846804 0
-0.0382333 -0.178744 0
-0.0101216 -0.719953 0
0.0225771 -0.970521 0
-0.0444484 0.398385 0
0.0582628 -0.418804 0
-0.0138427 0.956235 0
0.0166981 0.704579 0
0.035225 0.184967 0
-0.048988 0.84494 0
0.0516425 -0.868588 0
-0.0308645 -0.19562 0
-0.0159263 -0.735335 0
0.0170896 -0.992671 0
-0.0586542 0.406162 0
0.0447975 -0.42509 0
-0.0222203 0.980263 0
0.00898532 0.721226 0
0.0404708 0.201463 0
-0.0434451 0.867715 0
0.0459269 -0.848142 0
-0.0370579 -0.179791 0
-0.00749314 -0.720448 0
0.0249522 -0.97103 0
-0.0434305 0.399841 0
0.0592619 -0.418246 0
-0.01566 0.958793 0
0.0150104 0.706571 0
0.0319351 0.185539 0
-0.0523502 0.846905 0
0.0547 -0.866436 0
-0.0278845 -0.19473 0
-0.0142205 -0.732921 0
0.0185705 -0.989581 0
-0.0594332 0.406813 0
0.0439267 -0.423128 0
-0.0244543 0.979205 0
0.006855 0.720783 0
0.0392131 0.199585 0
-0.0446637 0.865963 0
0.0469437 -0.849881 0
-0.0362326 -0.181442 0
-0.0054123 -0.720717 0
0.0268054 -0.971705 0
-0.0426828 0.40196 0
0.0600161 -0.417237 0
-0.017324 0.961904 0
0.013518 0.709175 0
0.0289069 0.186343 0
-0.0553352 0.849077 0
0.0572403 -0.864107 0
-0.0255193 -0.193649 0
-0.0128154 -0.729987 0
0.0197113 -0.98601 0
-0.0600505 0.407872 0
0.043199 -0.420591 0
-0.0262933 0.97806 0
0.00510893 0.720553 0
0.0380805 0.197248 0
-0.0457539 0.863895 0
0.0475821 -0.851941 0
-0.0357651 -0.183589 0
-0.00391625 -0.720806 0
0.028103 -0.97253 0
-0.0422047 0.404624 0
0.0605308 -0.415878 0
-0.0187406 0.965492 0
0.0123191 0.71227 0
0.0263582 0.187351 0
-0.0577396 0.851427 0
0.0590818 -0.861638 0
-0.0239252 -0.192427 0
-0.0117946 -0.726657 0
0.0204376 -0.982068 0
-0.0605047 0.409251 0
0.042624 -0.417616 0
-0.02769 0.976874 0
0.00380396 0.720493 0
0.0371142 0.19459 0
-0.0466664 0.861595 0
0.047847 -0.854235 0
-0.0356469 -0.186111 0
-0.00302018 -0.720768 0
0.0288306 -0.973486 0
-0.0419823 0.407688 0
0.0608198 -0.414283 0
-0.0198206 0.969446 0
0.0114991 0.715718 0
0.024474 0.188521 0
-0.0593997 0.853914 0
0.0600932 -0.859078 0
-0.0232034 -0.191123 0
-0.0112192 -0.723067 0
0.0207024 -0.97789 0
-0.0607912 0.410853 0
0.0422159 -0.414359 0
-0.0286014 0.97569 0
0.00299238 0.720548 0
0.036358 0.191752 0
-0.0473509 0.859157 0
0.0477588 -0.856672 0
-0.0358555 -0.188878 0
-0.00271942 -0.720661 0
0.0289911 -0.974549 0
-0.0419942 0.410991 0
0.0609009 -0.412569 0
-0.0204907 0.97363 0
0.0111211 0.719369 0
0.0233942 0.189799 0
-0.0602023 0.856483 0
0.0602023 -0.856483 0
-0.0233942 -0.189799 0
-0.0111211 -0.719369 0
0.0204907 -0.97363 0
-0.0609009 0.412569 0
0.0419942 -0.410991 0
-0.0289911 0.974549 0
0.00271942 0.720661 0
0.0358555 0.188878 0
-0.0477588 0.856672 0
0.0473509 -0.859157 0
-0.036358 -0.191752 0
-0.00299238 -0.720548 0
0.0286014 -0.97569 0
-0.0422159 0.414359 0
0.0607912 -0.410853 0
-0.0207024 0.97789 0
0.0112192 0.723067 0
0.0232034 0.191123 0
-0.0600932 0.859078 0
0.0593997 -0.853914 0
-0.024474 -0.188521 0
-0.0114991 -0.715718 0
0.0198206 -0.969446 0
-0.0608198 0.414283 0
0.0419823 -0.407688 0
-0.0288306 0.973486 0
0.00302018 0.720768 0
0.0356469 0.186111 0
-0.047847 0.854235 0
0.0466664 -0.861595 0
-0.0371142 -0.19459 0
-0.00380396 -0.720493 0
0.02769 -0.976874 0
-0.042624 0.417616 0
0.0605047 -0.409251 0
-0.0204376 0.982068 0
0.0117946 0.726657 0
0.0239252 0.192427 0
-0.0590818 0.861638 0
0.0577396 -0.851427 0
-0.0263582 -0.187351 0
-0.0123191 -0.71227 0
0.0187406 -0.965492 0
-0.0605308 0.415878 0
0.0422047 -0.404624 0
-0.028103 0.97253 0
0.00391625 0.720806 0
0.0357651 0.183589 0
-0.0475821 0.851941 0
0.0457539 -0.863895 0
-0.0380805 -0.197248 0
-0.00510893 -0.720553 0
0.0262933 -0.97806 0
-0.043199 0.420591 0
0.0600505 -0.407872 0
-0.0197113 0.98601 0
0.0128154 0.729987 0
0.0255193 0.193649 0
-0.0572403 0.864107 0
0.0553352 -0.849077 0
-0.0289069 -0.186343 0
-0.013518 -0.709175 0
0.017324 -0.961904 0
-0.0600161 0.417237 0
0.0426828 -0.40196 0
-0.0268054 0.971705 0
0.0054123 0.720717 0
0.0362326 0.181442 0
-0.0469437 0.849881 0
0.0446637 -0.865963 0
-0.0392131 -0.199585 0
-0.006855 -0.720783 0
0.0244543 -0.979205 0
-0.0439267 0.423128 0
0.0594332 -0.406813 0
-0.0185705 0.989581 0
0.0142205 0.732921 0
0.0278845 0.19473 0
-0.0547 0.866436 0
0.0523502 -0.846905 0
-0.0319351 -0.185539 0
-0.0150104 -0.706571 0
0.01566 -0.958793 0
-0.0592619 0.418246 0
0.0434305 -0.399841 0
-0.0249522 0.97103 0
0.00749314 0.720448 0
0.0370579 0.179791 0
-0.0459269 0.848142 0
0.0434451 -0.867715 0
-0.0404708 -0.201463 0
-0.00898532 -0.721226 0
0.0222203 -0.980263 0
-0.0447975 0.42509 0
0.0586542 -0.406162 0
-0.0170896 0.992671 0
0.0159263 0.735335 0
0.0308645 0.19562 0
-0.0516425 0.868588 0
0.048988 -0.84494 0
-0.035225 -0.184967 0
-0.0166981 -0.704579 0
0.0138427 -0.956235 0
-0.0582628 0.418804 0
0.0444484 -0.398385 0
-0.0225771 0.970521 0
0.0101216 0.719953 0
0.0382333 0.178744 0
-0.0445446 0.846804 0
0.0421427 -0.869069 0
-0.0418174 -0.202757 0
-0.0114403 -0.721917 0
0.0196419 -0.981186 0
-0.045805 0.426367 0
0.0577154 -0.405988 0
-0.0153626 0.995206 0
0.0178371 0.737129 0
0.0342585 0.196283 0
-0.0482877 0.870539 0
0.0454774 -0.843189 0
-0.0385395 -0.18464 0
-0.0184813 -0.703296 0
0.0119591 -0.954264 0
-0.0570262 0.41882 0
0.0457206 -0.397682 0
-0.0197351 0.970185 0
0.0132375 0.719196 0
0.0397341 0.178392 0
-0.0428278 0.845939 0
0.0407952 -0.869953 0
-0.0432228 -0.203352 0
-0.0141585 -0.72288 0
0.0167728 -0.981928 0
-0.0469425 0.426881 0
0.0566219 -0.406348 0
-0.0134922 0.997156 0
0.0198567 0.738222 0
0.0378344 0.196701 0
-0.0448808 0.872289 0
0.0420588 -0.841633 0
-0.0416358 -0.18455 0
-0.0202708 -0.702797 0
0.0100759 -0.952861 0
-0.0555766 0.418219 0
0.0472111 -0.397795 0
-0.0165018 0.97003 0
0.0167588 0.71815 0
0.0415182 0.178812 0
-0.0408248 0.845605 0
0.039434 -0.870305 0
-0.044663 -0.203153 0
-0.0170778 -0.724126 0
0.0136692 -0.982447 0
-0.0481999 0.42658 0
0.0553862 -0.407283 0
-0.0115774 0.99854 0
0.0219033 0.738559 0
0.0413433 0.196869 0
-0.0416767 0.873859 0
0.0389703 -0.840222 0
-0.0442778 -0.184678 0
-0.0220002 -0.70313 0
0.0082276 -0.951958 0
-0.053957 0.416942 0
0.0488636 -0.398757 0
-0.0129727 0.970057 0
0.020584 0.716793 0
0.0435273 0.180063 0
-0.0385994 0.845849 0
0.038083 -0.870074 0
-0.0461205 -0.202083 0
-0.0201349 -0.725661 0
0.0103899 -0.982707 0
-0.0495602 0.42544 0
0.0540301 -0.408821 0
-0.00970012 0.999434 0
0.0239236 0.738105 0
0.0445345 0.196805 0
-0.0389273 0.875302 0
0.0364354 -0.838863 0
-0.0462455 -0.184982 0
-0.023638 -0.704319 0
0.00640353 -0.951425 0
-0.0522296 0.414949 0
0.0506039 -0.400579 0
-0.00925924 0.970265 0
0.0245963 0.715113 0
0.0456901 0.182182 0
-0.0362271 0.8467 0
0.0367597 -0.869223 0
-0.0475823 -0.200089 0
-0.0232663 -0.727483 0
0.00699566 -0.982678 0
-0.0509973 0.423455 0
0.0525858 -0.410976 0
-0.0079105 0.999969 0
0.0259083 0.736844 0
0.0471692 0.196541 0
-0.0368688 0.87671 0
