# vtk DataFile Version 3.0
tp3485 cell-vector
ASCII
DATASET UNSTRUCTURED_GRID
POINTS 231 double
0 0 0
0.1 0 0
0.2 0 0
0.3 0 0
0.4 0 0
0.5 0 0
0.6 0 0
0.7 0 0
0.8 0 0
0.9 0 0
1 0 0
0 0.025 0
0.1 0.025 0
0.2 0.025 0
0.3 0.025 0
0.4 0.025 0
0.5 0.025 0
0.6 0.025 0
0.7 0.025 0
0.8 0.025 0
0.9 0.025 0
1 0.025 0
0 0.05 0
0.1 0.05 0
0.2 0.05 0
0.3 0.05 0
0.4 0.05 0
0.5 0.05 0
0.6 0.05 0
0.7 0.05 0
0.8 0.05 0
0.9 0.05 0
1 0.05 0
0 0.075 0
0.1 0.075 0
0.2 0.075 0
0.3 0.075 0
0.4 0.075 0
0.5 0.075 0
0.6 0.075 0
0.7 0.075 0
0.8 0.075 0
0.9 0.075 0
1 0.075 0
0 0.1 0
0.1 0.1 0
0.2 0.1 0
0.3 0.1 0
0.4 0.1 0
0.5 0.1 0
0.6 0.1 0
0.7 0.1 0
0.8 0.1 0
0.9 0.1 0
1 0.1 0
0 0.125 0
0.1 0.125 0
0.2 0.125 0
0.3 0.125 0
0.4 0.125 0
0.5 0.125 0
0.6 0.125 0
0.7 0.125 0
0.8 0.125 0
0.9 0.125 0
1 0.125 0
0 0.15 0
0.1 0.15 0
0.2 0.15 0
0.3 0.15 0
0.4 0.15 0
0.5 0.15 0
0.6 0.15 0
0.7 0.15 0
0.8 0.15 0
0.9 0.15 0
1 0.15 0
0 0.175 0
0.1 0.175 0
0.2 0.175 0
0.3 0.175 0
0.4 0.175 0
0.5 0.175 0
0.6 0.175 0
0.7 0.175 0
0.8 0.175 0
0.9 0.175 0
1 0.175 0
0 0.2 0
0.1 0.2 0
0.2 0.2 0
0.3 0.2 0
0.4 0.2 0
0.5 0.2 0
0.6 0.2 0
0.7 0.2 0
0.8 0.2 0
0.9 0.2 0
1 0.2 0
0 0.225 0
0.1 0.225 0
0.2 0.225 0
0.3 0.225 0
0.4 0.225 0
0.5 0.225 0
0.6 0.225 0
0.7 0.225 0
0.8 0.225 0
0.9 0.225 0
1 0.225 0
0 0.25 0
0.1 0.25 0
0.2 0.25 0
0.3 0.25 0
0.4 0.25 0
0.5 0.25 0
0.6 0.25 0
0.7 0.25 0
0.8 0.25 0
0.9 0.25 0
1 0.25 0
0 0.275 0
0.1 0.275 0
0.2 0.275 0
0.3 0.275 0
0.4 0.275 0
0.5 0.275 0
0.6 0.275 0
0.7 0.275 0
0.8 0.275 0
0.9 0.275 0
1 0.275 0
0 0.3 0
0.1 0.3 0
0.2 0.3 0
0.3 0.3 0
0.4 0.3 0
0.5 0.3 0
0.6 0.3 0
0.7 0.3 0
0.8 0.3 0
0.9 0.3 0
1 0.3 0
0 0.325 0
0.1 0.325 0
0.2 0.325 0
0.3 0.325 0
0.4 0.325 0
0.5 0.325 0
0.6 0.325 0
0.7 0.325 0
0.8 0.325 0
0.9 0.325 0
1 0.325 0
0 0.35 0
0.1 0.35 0
0.2 0.35 0
0.3 0.35 0
0.4 0.35 0
0.5 0.35 0
0.6 0.35 0
0.7 0.35 0
0.8 0.35 0
0.9 0.35 0
1 0.35 0
0 0.375 0
0.1 0.375 0
0.2 0.375 0
0.3 0.375 0
0.4 0.375 0
0.5 0.375 0
0.6 0.375 0
0.7 0.375 0
0.8 0.375 0
0.9 0.375 0
1 0.375 0
0 0.4 0
0.1 0.4 0
0.2 0.4 0
0.3 0.4 0
0.4 0.4 0
0.5 0.4 0
0.6 0.4 0
0.7 0.4 0
0.8 0.4 0
0.9 0.4 0
1 0.4 0
0 0.425 0
0.1 0.425 0
0.2 0.425 0
0.3 0.425 0
0.4 0.425 0
0.5 0.425 0
0.6 0.425 0
0.7 0.425 0
0.8 0.425 0
0.9 0.425 0
1 0.425 0
0 0.45 0
0.1 0.45 0
0.2 0.45 0
0.3 0.45 0
0.4 0.45 0
0.5 0.45 0
0.6 0.45 0
0.7 0.45 0
0.8 0.45 0
0.9 0.45 0
1 0.45 0
0 0.475 0
0.1 0.475 0
0.2 0.475 0
0.3 0.475 0
0.4 0.475 0
0.5 0.475 0
0.6 0.475 0
0.7 0.475 0
0.8 0.475 0
0.9 0.475 0
1 0.475 0
0 0.5 0
0.1 0.5 0
0.2 0.5 0
0.3 0.5 0
0.4 0.5 0
0.5 0.5 0
0.6 0.5 0
0.7 0.5 0
0.8 0.5 0
0.9 0.5 0
1 0.5 0
CELLS 400 1600
3 0 1 12
3 0 12 11
3 1 2 13
3 1 13 12
3 2 3 14
3 2 14 13
3 3 4 15
3 3 15 14
3 4 5 16
3 4 16 15
3 5 6 17
3 5 17 16
3 6 7 18
3 6 18 17
3 7 8 19
3 7 19 18
3 8 9 20
3 8 20 19
3 9 10 21
3 9 21 20
3 11 12 23
3 11 23 22
3 12 13 24
3 12 24 23
3 13 14 25
3 13 25 24
3 14 15 26
3 14 26 25
3 15 16 27
3 15 27 26
3 16 17 28
3 16 28 27
3 17 18 29
3 17 29 28
3 18 19 30
3 18 30 29
3 19 20 31
3 19 31 30
3 20 21 32
3 20 32 31
3 22 23 34
3 22 34 33
3 23 24 35
3 23 35 34
3 24 25 36
3 24 36 35
3 25 26 37
3 25 37 36
3 26 27 38
3 26 38 37
3 27 28 39
3 27 39 38
3 28 29 40
3 28 40 39
3 29 30 41
3 29 41 40
3 30 31 42
3 30 42 41
3 31 32 43
3 31 43 42
3 33 34 45
3 33 45 44
3 34 35 46
3 34 46 45
3 35 36 47
3 35 47 46
3 36 37 48
3 36 48 47
3 37 38 49
3 37 49 48
3 38 39 50
3 38 50 49
3 39 40 51
3 39 51 50
3 40 41 52
3 40 52 51
3 41 42 53
3 41 53 52
3 42 43 54
3 42 54 53
3 44 45 56
3 44 56 55
3 45 46 57
3 45 57 56
3 46 47 58
3 46 58 57
3 47 48 59
3 47 59 58
3 48 49 60
3 48 60 59
3 49 50 61
3 49 61 60
3 50 51 62
3 50 62 61
3 51 52 63
3 51 63 62
3 52 53 64
3 52 64 63
3 53 54 65
3 53 65 64
3 55 56 67
3 55 67 66
3 56 57 68
3 56 68 67
3 57 58 69
3 57 69 68
3 58 59 70
3 58 70 69
3 59 60 71
3 59 71 70
3 60 61 72
3 60 72 71
3 61 62 73
3 61 73 72
3 62 63 74
3 62 74 73
3 63 64 75
3 63 75 74
3 64 65 76
3 64 76 75
3 66 67 78
3 66 78 77
3 67 68 79
3 67 79 78
3 68 69 80
3 68 80 79
3 69 70 81
3 69 81 80
3 70 71 82
3 70 82 81
3 71 72 83
3 71 83 82
3 72 73 84
3 72 84 83
3 73 74 85
3 73 85 84
3 74 75 86
3 74 86 85
3 75 76 87
3 75 87 86
3 77 78 89
3 77 89 88
3 78 79 90
3 78 90 89
3 79 80 91
3 79 91 90
3 80 81 92
3 80 92 91
3 81 82 93
3 81 93 92
3 82 83 94
3 82 94 93
3 83 84 95
3 83 95 94
3 84 85 96
3 84 96 95
3 85 86 97
3 85 97 96
3 86 87 98
3 86 98 97
3 88 89 100
3 88 100 99
3 89 90 101
3 89 101 100
3 90 91 102
3 90 102 101
3 91 92 103
3 91 103 102
3 92 93 104
3 92 104 103
3 93 94 105
3 93 105 104
3 94 95 106
3 94 106 105
3 95 96 107
3 95 107 106
3 96 97 108
3 96 108 107
3 97 98 109
3 97 109 108
3 99 100 111
3 99 111 110
3 100 101 112
3 100 112 111
3 101 102 113
3 101 113 112
3 102 103 114
3 102 114 113
3 103 104 115
3 103 115 114
3 104 105 116
3 104 116 115
3 105 106 117
3 105 117 116
3 106 107 118
3 106 118 117
3 107 108 119
3 107 119 118
3 108 109 120
3 108 120 119
3 110 111 122
3 110 122 121
3 111 112 123
3 111 123 122
3 112 113 124
3 112 124 123
3 113 114 125
3 113 125 124
3 114 115 126
3 114 126 125
3 115 116 127
3 115 127 126
3 116 117 128
3 116 128 127
3 117 118 129
3 117 129 128
3 118 119 130
3 118 130 129
3 119 120 131
3 119 131 130
3 121 122 133
3 121 133 132
3 122 123 134
3 122 134 133
3 123 124 135
3 123 135 134
3 124 125 136
3 124 136 135
3 125 126 137
3 125 137 136
3 126 127 138
3 126 138 137
3 127 128 139
3 127 139 138
3 128 129 140
3 128 140 139
3 129 130 141
3 129 141 140
3 130 131 142
3 130 142 141
3 132 133 144
3 132 144 143
3 133 134 145
3 133 145 144
3 134 135 146
3 134 146 145
3 135 136 147
3 135 147 146
3 136 137 148
3 136 148 147
3 137 138 149
3 137 149 148
3 138 139 150
3 138 150 149
3 139 140 151
3 139 151 150
3 140 141 152
3 140 152 151
3 141 142 153
3 141 153 152
3 143 144 155
3 143 155 154
3 144 145 156
3 144 156 155
3 145 146 157
3 145 157 156
3 146 147 158
3 146 158 157
3 147 148 159
3 147 159 158
3 148 149 160
3 148 160 159
3 149 150 161
3 149 161 160
3 150 151 162
3 150 162 161
3 151 152 163
3 151 163 162
3 152 153 164
3 152 164 163
3 154 155 166
3 154 166 165
3 155 156 167
3 155 167 166
3 156 157 168
3 156 168 167
3 157 158 169
3 157 169 168
3 158 159 170
3 158 170 169
3 159 160 171
3 159 171 170
3 160 161 172
3 160 172 171
3 161 162 173
3 161 173 172
3 162 163 174
3 162 174 173
3 163 164 175
3 163 175 174
3 165 166 177
3 165 177 176
3 166 167 178
3 166 178 177
3 167 168 179
3 167 179 178
3 168 169 180
3 168 180 179
3 169 170 181
3 169 181 180
3 170 171 182
3 170 182 181
3 171 172 183
3 171 183 182
3 172 173 184
3 172 184 183
3 173 174 185
3 173 185 184
3 174 175 186
3 174 186 185
3 176 177 188
3 176 188 187
3 177 178 189
3 177 189 188
3 178 179 190
3 178 190 189
3 179 180 191
3 179 191 190
3 180 181 192
3 180 192 191
3 181 182 193
3 181 193 192
3 182 183 194
3 182 194 193
3 183 184 195
3 183 195 194
3 184 185 196
3 184 196 195
3 185 186 197
3 185 197 196
3 187 188 199
3 187 199 198
3 188 189 200
3 188 200 199
3 189 190 201
3 189 201 200
3 190 191 202
3 190 202 201
3 191 192 203
3 191 203 202
3 192 193 204
3 192 204 203
3 193 194 205
3 193 205 204
3 194 195 206
3 194 206 205
3 195 196 207
3 195 207 206
3 196 197 208
3 196 208 207
3 198 199 210
3 198 210 209
3 199 200 211
3 199 211 210
3 200 201 212
3 200 212 211
3 201 202 213
3 201 213 212
3 202 203 214
3 202 214 213
3 203 204 215
3 203 215 214
3 204 205 216
3 204 216 215
3 205 206 217
3 205 217 216
3 206 207 218
3 206 218 217
3 207 208 219
3 207 219 218
3 209 210 221
3 209 221 220
3 210 211 222
3 210 222 221
3 211 212 223
3 211 223 222
3 212 213 224
3 212 224 223
3 213 214 225
3 213 225 224
3 214 215 226
3 214 226 225
3 215 216 227
3 215 227 226
3 216 217 228
3 216 228 227
3 217 218 229
3 217 229 228
3 218 219 230
3 218 230 229
CELL_TYPES 400
5
5
5
5
5
5
5
5
5
5
5
5
5
5
5
5
5
5
5
5
5
5
5
5
5
5
5
5
5
5
5
5
5
5
5
5
5
5
5
5
5
5
5
5
5
5
5
5
5
5
5
5
5
5
5
5
5
5
5
5
5
5
5
5
5
5
5
5
5
5
5
5
5
5
5
5
5
5
5
5
5
5
5
5
5
5
5
5
5
5
5
5
5
5
5
5
5
5
5
5
5
5
5
5
5
5
5
5
5
5
5
5
5
5
5
5
5
5
5
5
5
5
5
5
5
5
5
5
5
5
5
5
5
5
5
5
5
5
5
5
5
5
5
5
5
5
5
5
5
5
5
5
5
5
5
5
5
5
5
5
5
5
5
5
5
5
5
5
5
5
5
5
5
5
5
5
5
5
5
5
5
5
5
5
5
5
5
5
5
5
5
5
5
5
5
5
5
5
5
5
5
5
5
5
5
5
5
5
5
5
5
5
5
5
5
5
5
5
5
5
5
5
5
5
5
5
5
5
5
5
5
5
5
5
5
5
5
5
5
5
5
5
5
5
5
5
5
5
5
5
5
5
5
5
5
5
5
5
5
5
5
5
5
5
5
5
5
5
5
5
5
5
5
5
5
5
5
5
5
5
5
5
5
5
5
5
5
5
5
5
5
5
5
5
5
5
5
5
5
5
5
5
5
5
5
5
5
5
5
5
5
5
5
5
5
5
5
5
5
5
5
5
5
5
5
5
5
5
5
5
5
5
5
5
5
5
5
5
5
5
5
5
5
5
5
5
5
5
5
5
5
5
5
5
5
5
5
5
5
5
5
5
5
5
5
5
5
5
5
5
5
5
5
5
5
5
5
5
5
5
5
5
5
5
5
5
5
5
5
5
5
5
5
5
5
5
5
5
5
5
CELL_DATA 400
VECTORS Ht double
-0.525416 0.103294 0
-0.51457 0.131354 0
-0.878432 -0.0543169 0
-0.858222 -0.0150399 0
-0.185133 -0.0948534 0
-0.172053 -0.119008 0
0.431355 0.0384111 0
0.442753 -0.0592687 0
0.0223919 0.154494 0
0.0462631 0.0638298 0
-0.862653 0.09088 0
-0.825758 0.0667675 0
-0.997662 -0.0683461 0
-0.965627 -0.0571278 0
-0.172404 -0.118898 0
-0.161154 -0.137968 0
0.575396 -0.00898548 0
0.571226 -0.0680524 0
0.372595 0.0931488 0
0.368593 0.0596858 0
-0.474522 0.289543 0
-0.44549 0.378627 0
-0.800454 -0.141593 0
-0.740522 -0.033893 0
-0.16295 -0.264268 0
-0.117901 -0.362649 0
0.415788 0.0950197 0
0.447466 -0.18824 0
0.0522061 0.421783 0
0.109027 0.197239 0
-0.76223 0.259652 0
-0.665559 0.221092 0
-0.899764 -0.176342 0
-0.80446 -0.156549 0
-0.153877 -0.326093 0
-0.111857 -0.417563 0
0.531982 -0.0318021 0
0.522889 -0.215417 0
0.347633 0.272205 0
0.334624 0.179248 0
-0.375472 0.442572 0
-0.331769 0.583868 0
-0.630337 -0.223089 0
-0.54013 -0.0494482 0
-0.0969249 -0.419785 0
-0.0301783 -0.570163 0
0.394139 0.129917 0
0.435246 -0.296831 0
0.111264 0.638048 0
0.186403 0.31767 0
-0.552495 0.39757 0
-0.414458 0.364414 0
-0.678842 -0.268429 0
-0.536945 -0.228155 0
-0.0928562 -0.5013 0
-0.0293984 -0.645122 0
0.449751 -0.0510187 0
0.433627 -0.334548 0
0.290667 0.428528 0
0.26934 0.285302 0
-0.239431 0.544573 0
-0.186736 0.726668 0
-0.390354 -0.295804 0
-0.283888 -0.0616279 0
-0.00297058 -0.550584 0
0.0706042 -0.721781 0
0.355609 0.136628 0
0.391182 -0.372032 0
0.1787 0.778515 0
0.25208 0.417397 0
-0.268847 0.486807 0
-0.115591 0.486049 0
-0.368773 -0.338048 0
-0.204811 -0.261789 0
-0.00374744 -0.626947 0
0.0670982 -0.793646 0
0.332088 -0.0635465 0
0.305774 -0.408616 0
0.206102 0.547388 0
0.177238 0.370398 0
-0.0818892 0.584796 0
-0.027073 0.793824 0
-0.111631 -0.354805 0
-0.00499094 -0.0701274 0
0.0967819 -0.644942 0
0.161034 -0.803506 0
0.28668 0.114848 0
0.301536 -0.405293 0
0.228162 0.828753 0
0.278955 0.488581 0
0.0413132 0.516304 0
0.181163 0.57444 0
-0.0167748 -0.379842 0
0.141619 -0.254459 0
0.0925229 -0.690153 0
0.155117 -0.847154 0
0.183568 -0.0674862 0
0.144202 -0.42784 0
0.100231 0.616756 0
0.0649984 0.427305 0
0.0794579 0.560744 0
0.129452 0.780728 0
0.170641 -0.393453 0
0.262104 -0.0743924 0
0.179025 -0.691171 0
0.220093 -0.808461 0
0.176214 0.0706303 0
0.159032 -0.393487 0
0.234659 0.786314 0
0.246259 0.523833 0
0.327456 0.483162 0
0.428523 0.618129 0
0.324884 -0.389943 0
0.452247 -0.210788 0
0.173276 -0.683929 0
0.213876 -0.802525 0
0.011104 -0.0623478 0
-0.0424029 -0.390792 0
-0.0188432 0.628295 0
-0.058585 0.449455 0
0.227057 0.478073 0
0.26627 0.691601 0
0.422449 -0.404466 0
0.486663 -0.0737324 0
0.224522 -0.679309 0
0.233869 -0.737463 0
0.0204198 0.0151747 0
-0.0329595 -0.339058 0
0.181394 0.660507 0
0.145532 0.517238 0
0.545259 0.392724 0
0.5904 0.607403 0
0.607872 -0.366405 0
0.685629 -0.141934 0
0.219232 -0.607867 0
0.229056 -0.669311 0
-0.174959 -0.0490223 0
-0.240739 -0.304237 0
-0.141401 0.578298 0
-0.182902 0.431785 0
0.345703 0.34928 0
0.369976 0.538607 0
0.61574 -0.381603 0
0.645721 -0.0675471 0
0.222388 -0.603297 0
0.198648 -0.598789 0
-0.17363 -0.0375368 0
-0.258477 -0.249358 0
0.0649608 0.470448 0
-0.0159733 0.465679 0
0.664526 0.257402 0
0.648052 0.536355 0
0.795746 -0.309709 0
0.815418 -0.0632243 0
0.218888 -0.468261 0
0.196081 -0.467649 0
-0.360324 -0.0295238 0
-0.43302 -0.181591 0
-0.256528 0.46844 0
-0.296161 0.371879 0
0.424274 0.191489 0
0.431704 0.340045 0
0.731949 -0.321578 0
0.72656 -0.0556108 0
0.172481 -0.463145 0
0.121693 -0.407179 0
-0.386975 -0.0737709 0
-0.489982 -0.135365 0
-0.102386 0.241769 0
-0.215369 0.37014 0
0.674146 0.0945111 0
0.602626 0.404894 0
0.869386 -0.22323 0
0.833681 0.00901493 0
0.171146 -0.27764 0
0.121203 -0.224734 0
-0.527191 -0.00656607 0
-0.598288 -0.0403533 0
-0.35285 0.306188 0
-0.386384 0.271121 0
0.456794 0.0237605 0
0.447773 0.11792 0
0.763751 -0.225725 0
0.727322 -0.0383354 0
0.0853569 -0.266556 0
0.0195707 -0.182217 0
-0.590694 -0.0830912 0
-0.692321 -0.010023 0
-0.294018 0.00263664 0
-0.417817 0.236638 0
0.58316 -0.0764599 0
0.473662 0.220233 0
0.828979 -0.113479 0
0.750576 0.0607676 0
0.0856041 -0.0537082 0
0.0201515 0.0294788 0
-0.655854 0.0169358 0
-0.714886 0.100953 0
-0.419575 0.104698 0
-0.4427 0.135573 0
0.4427 -0.135573 0
0.419575 -0.104698 0
0.714886 -0.100953 0
0.655854 -0.0169358 0
-0.0201515 -0.0294788 0
-0.0856041 0.0537082 0
-0.750576 -0.0607676 0
-0.828979 0.113479 0
-0.473662 -0.220233 0
-0.58316 0.0764599 0
0.417817 -0.236638 0
0.294018 -0.00263664 0
0.692321 0.010023 0
0.590694 0.0830912 0
-0.0195707 0.182217 0
-0.0853569 0.266556 0
-0.727322 0.0383354 0
-0.763751 0.225725 0
-0.447773 -0.11792 0
-0.456794 -0.0237605 0
0.386384 -0.271121 0
0.35285 -0.306188 0
0.598288 0.0403533 0
0.527191 0.00656607 0
-0.121203 0.224734 0
-0.171146 0.27764 0
-0.833681 -0.00901493 0
-0.869386 0.22323 0
-0.602626 -0.404894 0
-0.674146 -0.0945111 0
0.215369 -0.37014 0
0.102386 -0.241769 0
0.489982 0.135365 0
0.386975 0.0737709 0
-0.121693 0.407179 0
-0.172481 0.463145 0
-0.72656 0.0556108 0
-0.731949 0.321578 0
-0.431704 -0.340045 0
-0.424274 -0.191489 0
0.296161 -0.371879 0
0.256528 -0.46844 0
0.43302 0.181591 0
0.360324 0.0295238 0
-0.196081 0.467649 0
-0.218888 0.468261 0
-0.815418 0.0632243 0
-0.795746 0.309709 0
-0.648052 -0.536355 0
-0.664526 -0.257402 0
0.0159733 -0.465679 0
-0.0649608 -0.470448 0
0.258477 0.249358 0
0.17363 0.0375368 0
-0.198648 0.598789 0
-0.222388 0.603297 0
-0.645721 0.0675471 0
-0.61574 0.381603 0
-0.369976 -0.538607 0
-0.345703 -0.34928 0
0.182902 -0.431785 0
0.141401 -0.578298 0
0.240739 0.304237 0
0.174959 0.0490223 0
-0.229056 0.669311 0
-0.219232 0.607867 0
-0.685629 0.141934 0
-0.607872 0.366405 0
-0.5904 -0.607403 0
-0.545259 -0.392724 0
-0.145532 -0.517238 0
-0.181394 -0.660507 0
0.0329595 0.339058 0
-0.0204198 -0.0151747 0
-0.233869 0.737463 0
-0.224522 0.679309 0
-0.486663 0.0737324 0
-0.422449 0.404466 0
-0.26627 -0.691601 0
-0.227057 -0.478073 0
0.058585 -0.449455 0
0.0188432 -0.628295 0
0.0424029 0.390792 0
-0.011104 0.0623478 0
-0.213876 0.802525 0
-0.173276 0.683929 0
-0.452247 0.210788 0
-0.324884 0.389943 0
-0.428523 -0.618129 0
-0.327456 -0.483162 0
-0.246259 -0.523833 0
-0.234659 -0.786314 0
-0.159032 0.393487 0
-0.176214 -0.0706303 0
-0.220093 0.808461 0
-0.179025 0.691171 0
-0.262104 0.0743924 0
-0.170641 0.393453 0
-0.129452 -0.780728 0
-0.0794579 -0.560744 0
-0.0649984 -0.427305 0
-0.100231 -0.616756 0
-0.144202 0.42784 0
-0.183568 0.0674862 0
-0.155117 0.847154 0
-0.0925229 0.690153 0
-0.141619 0.254459 0
0.0167748 0.379842 0
-0.181163 -0.57444 0
-0.0413132 -0.516304 0
-0.278955 -0.488581 0
-0.228162 -0.828753 0
-0.301536 0.405293 0
-0.28668 -0.114848 0
-0.161034 0.803506 0
-0.0967819 0.644942 0
0.00499094 0.0701274 0
0.111631 0.354805 0
0.027073 -0.793824 0
0.0818892 -0.584796 0
-0.177238 -0.370398 0
-0.206102 -0.547388 0
-0.305774 0.408616 0
-0.332088 0.0635465 0
-0.0670982 0.793646 0
0.00374744 0.626947 0
0.204811 0.261789 0
0.368773 0.338048 0
0.115591 -0.486049 0
0.268847 -0.486807 0
-0.25208 -0.417397 0
-0.1787 -0.778515 0
-0.391182 0.372032 0
-0.355609 -0.136628 0
-0.0706042 0.721781 0
0.00297058 0.550584 0
0.283888 0.0616279 0
0.390354 0.295804 0
0.186736 -0.726668 0
0.239431 -0.544573 0
-0.26934 -0.285302 0
-0.290667 -0.428528 0
-0.433627 0.334548 0
-0.449751 0.0510187 0
0.0293984 0.645122 0
0.0928562 0.5013 0
0.536945 0.228155 0
0.678842 0.268429 0
0.414458 -0.364414 0
0.552495 -0.39757 0
-0.186403 -0.31767 0
-0.111264 -0.638048 0
-0.435246 0.296831 0
-0.394139 -0.129917 0
0.0301783 0.570163 0
0.0969249 0.419785 0
0.54013 0.0494482 0
0.630337 0.223089 0
0.331769 -0.583868 0
0.375472 -0.442572 0
-0.334624 -0.179248 0
-0.347633 -0.272205 0
-0.522889 0.215417 0
-0.531982 0.0318021 0
0.111857 0.417563 0
0.153877 0.326093 0
0.80446 0.156549 0
0.899764 0.176342 0
0.665559 -0.221092 0
0.76223 -0.259652 0
-0.109027 -0.197239 0
-0.0522061 -0.421783 0
-0.447466 0.18824 0
-0.415788 -0.0950197 0
0.117901 0.362649 0
0.16295 0.264268 0
0.740522 0.033893 0
0.800454 0.141593 0
0.44549 -0.378627 0
0.474522 -0.289543 0
-0.368593 -0.0596858 0
-0.372595 -0.0931488 0
-0.571226 0.0680524 0
-0.575396 0.00898548 0
0.161154 0.137968 0
0.172404 0.118898 0
0.965627 0.0571278 0
0.997662 0.0683461 0
0.825758 -0.0667675 0
0.862653 -0.09088 0
-0.0462631 -0.0638298 0
-0.0223919 -0.154494 0
-0.442753 0.0592687 0
-0.431355 -0.0384111 0
0.172053 0.119008 0
0.185133 0.0948534 0
0.858222 0.0150399 0
0.878432 0.0543169 0
0.51457 -0.131354 0
0.525416 -0.103294 0
