# vtk DataFile Version 3.0
tp3485 cell-vector
ASCII
DATASET UNSTRUCTURED_GRID
POINTS 66 double
0 0 0
0.1 0 0
0.2 0 0
0.3 0 0
0.4 0 0
0.5 0 0
0.6 0 0
0.7 0 0
0.8 0 0
0.9 0 0
1 0 0
0 0.09 0
0.1 0.09 0
0.2 0.09 0
0.3 0.09 0
0.4 0.09 0
0.5 0.09 0
0.6 0.09 0
0.7 0.09 0
0.8 0.09 0
0.9 0.09 0
1 0.09 0
0 0.18 0
0.1 0.18 0
0.2 0.18 0
0.3 0.18 0
0.4 0.18 0
0.5 0.18 0
0.6 0.18 0
0.7 0.18 0
0.8 0.18 0
0.9 0.18 0
1 0.18 0
0 0.27 0
0.1 0.27 0
0.2 0.27 0
0.3 0.27 0
0.4 0.27 0
0.5 0.27 0
0.6 0.27 0
0.7 0.27 0
0.8 0.27 0
0.9 0.27 0
1 0.27 0
0 0.36 0
0.1 0.36 0
0.2 0.36 0
0.3 0.36 0
0.4 0.36 0
0.5 0.36 0
0.6 0.36 0
0.7 0.36 0
0.8 0.36 0
0.9 0.36 0
1 0.36 0
0 0.45 0
0.1 0.45 0
0.2 0.45 0
0.3 0.45 0
0.4 0.45 0
0.5 0.45 0
0.6 0.45 0
0.7 0.45 0
0.8 0.45 0
0.9 0.45 0
1 0.45 0
CELLS 100 400
3 0 1 12
3 0 12 11
3 1 2 13
3 1 13 12
3 2 3 14
3 2 14 13
3 3 4 15
3 3 15 14
3 4 5 16
3 4 16 15
3 5 6 17
3 5 17 16
3 6 7 18
3 6 18 17
3 7 8 19
3 7 19 18
3 8 9 20
3 8 20 19
3 9 10 21
3 9 21 20
3 11 12 23
3 11 23 22
3 12 13 24
3 12 24 23
3 13 14 25
3 13 25 24
3 14 15 26
3 14 26 25
3 15 16 27
3 15 27 26
3 16 17 28
3 16 28 27
3 17 18 29
3 17 29 28
3 18 19 30
3 18 30 29
3 19 20 31
3 19 31 30
3 20 21 32
3 20 32 31
3 22 23 34
3 22 34 33
3 23 24 35
3 23 35 34
3 24 25 36
3 24 36 35
3 25 26 37
3 25 37 36
3 26 27 38
3 26 38 37
3 27 28 39
3 27 39 38
3 28 29 40
3 28 40 39
3 29 30 41
3 29 41 40
3 30 31 42
3 30 42 41
3 31 32 43
3 31 43 42
3 33 34 45
3 33 45 44
3 34 35 46
3 34 46 45
3 35 36 47
3 35 47 46
3 36 37 48
3 36 48 47
3 37 38 49
3 37 49 48
3 38 39 50
3 38 50 49
3 39 40 51
3 39 51 50
3 40 41 52
3 40 52 51
3 41 42 53
3 41 53 52
3 42 43 54
3 42 54 53
3 44 45 56
3 44 56 55
3 45 46 57
3 45 57 56
3 46 47 58
3 46 58 57
3 47 48 59
3 47 59 58
3 48 49 60
3 48 60 59
3 49 50 61
3 49 61 60
3 50 51 62
3 50 62 61
3 51 52 63
3 51 63 62
3 52 53 64
3 52 64 63
3 53 54 65
3 53 65 64
CELL_TYPES 100
5
5
5
5
5
5
5
5
5
5
5
5
5
5
5
5
5
5
5
5
5
5
5
5
5
5
5
5
5
5
5
5
5
5
5
5
5
5
5
5
5
5
5
5
5
5
5
5
5
5
5
5
5
5
5
5
5
5
5
5
5
5
5
5
5
5
5
5
5
5
5
5
5
5
5
5
5
5
5
5
5
5
5
5
5
5
5
5
5
5
5
5
5
5
5
5
5
5
5
5
CELL_DATA 100
VECTORS Et double
3.75958e-06 0.152866 0
0.137596 -4.94816e-06 0
1.14232e-06 -0.29076 0
-0.399255 0.15286 0
-3.47297e-07 0.400166 0
0.621835 -0.290762 0
-3.35617e-06 -0.470431 0
-0.783551 0.40017 0
-3.22933e-06 0.494587 0
0.868501 -0.470425 0
-3.98028e-06 -0.47036 0
-0.868472 0.494596 0
-1.53711e-06 0.400058 0
0.783365 -0.470353 0
3.98378e-08 -0.290576 0
-0.621574 0.400061 0
2.76541e-06 0.152687 0
0.398946 -0.290579 0
4.39429e-06 4.88254e-06 0
-0.137394 0.152679 0
0.137605 -0.153717 0
-0.000723956 -6.85676e-06 0
-0.399253 0.291588 0
0.00152333 -0.15372 0
0.621837 -0.401443 0
-0.00188248 0.291584 0
-0.783558 0.471529 0
0.00209898 -0.401436 0
0.868497 -0.495695 0
-0.00200945 0.471533 0
-0.868482 0.471372 0
0.00185703 -0.495685 0
0.783363 -0.400573 0
-0.00139385 0.471378 0
-0.621576 0.291053 0
0.000881793 -0.40057 0
0.398951 -0.152519 0
-0.000257452 0.291051 0
-0.137385 5.11857e-06 0
-9.75025e-05 -0.152527 0
-0.000708396 0.000634332 0
-0.000110931 -9.54348e-06 0
0.00151268 -0.000852348 0
0.000171599 0.000625593 0
-0.00186683 0.000984875 0
-0.000205746 -0.00084473 0
0.00207594 -0.00103538 0
0.000244049 0.00097663 0
-0.00199852 0.000960471 0
-0.000210748 -0.00101573 0
0.00183434 -0.000817698 0
0.00022009 0.000953897 0
-0.00138617 0.000574791 0
-0.000144852 -0.000798331 0
0.000873653 -0.000283411 0
0.000102583 0.00056664 0
-0.000252425 -2.81948e-05 0
-2.63209e-05 -0.000276384 0
-8.79117e-05 5.7836e-06 0
-4.0442e-05 -3.64479e-05 0
-9.84585e-05 6.66054e-05 0
-2.76801e-05 -3.86135e-06 0
0.000168038 -8.66936e-05 0
3.1638e-05 6.24446e-05 0
-0.000200205 8.95076e-05 0
-3.7758e-05 -8.60505e-05 0
0.000233886 -0.000106133 0
4.93184e-05 8.94005e-05 0
-0.00021022 9.23265e-05 0
-3.64404e-05 -9.93908e-05 0
0.000209985 -7.78824e-05 0
4.58593e-05 9.43149e-05 0
-0.000145335 6.16574e-05 0
-2.49361e-05 -7.09803e-05 0
0.000100588 -2.40167e-05 0
2.11935e-05 6.10714e-05 0
-2.48285e-05 -5.2138e-06 0
-6.10769e-06 -2.29104e-05 0
-3.29274e-05 3.62056e-06 0
-1.48117e-05 -1.01226e-05 0
-2.20973e-05 1.50608e-05 0
-2.145e-06 -2.38334e-06 0
3.1585e-05 -2.4555e-05 0
-6.25449e-07 1.20241e-05 0
-3.59147e-05 1.34318e-05 0
-4.18671e-07 -2.51151e-05 0
4.43166e-05 -2.90708e-05 0
1.44574e-06 1.46103e-05 0
-3.76666e-05 1.96581e-05 0
1.07388e-06 -2.55308e-05 0
4.0105e-05 -1.46491e-05 0
2.00415e-06 2.28357e-05 0
-2.57328e-05 1.97279e-05 0
8.35609e-07 -1.1098e-05 0
1.98777e-05 -9.90854e-08 0
4.44393e-07 2.05987e-05 0
-4.01048e-06 8.37057e-07 0
-7.65388e-07 -5.48426e-07 0
-1.01929e-05 2.36708e-06 0
-1.81758e-06 -2.55221e-06 0
