# vtk DataFile Version 3.0
tp3485 cell-vector
ASCII
DATASET UNSTRUCTURED_GRID
POINTS 66 double
0 0 0
0.1 0 0
0.2 0 0
0.3 0 0
0.4 0 0
0.5 0 0
0.6 0 0
0.7 0 0
0.8 0 0
0.9 0 0
1 0 0
0 0.09 0
0.1 0.09 0
0.2 0.09 0
0.3 0.09 0
0.4 0.09 0
0.5 0.09 0
0.6 0.09 0
0.7 0.09 0
0.8 0.09 0
0.9 0.09 0
1 0.09 0
0 0.18 0
0.1 0.18 0
0.2 0.18 0
0.3 0.18 0
0.4 0.18 0
0.5 0.18 0
0.6 0.18 0
0.7 0.18 0
0.8 0.18 0
0.9 0.18 0
1 0.18 0
0 0.27 0
0.1 0.27 0
0.2 0.27 0
0.3 0.27 0
0.4 0.27 0
0.5 0.27 0
0.6 0.27 0
0.7 0.27 0
0.8 0.27 0
0.9 0.27 0
1 0.27 0
0 0.36 0
0.1 0.36 0
0.2 0.36 0
0.3 0.36 0
0.4 0.36 0
0.5 0.36 0
0.6 0.36 0
0.7 0.36 0
0.8 0.36 0
0.9 0.36 0
1 0.36 0
0 0.45 0
0.1 0.45 0
0.2 0.45 0
0.3 0.45 0
0.4 0.45 0
0.5 0.45 0
0.6 0.45 0
0.7 0.45 0
0.8 0.45 0
0.9 0.45 0
1 0.45 0
CELLS 100 400
3 0 1 12
3 0 12 11
3 1 2 13
3 1 13 12
3 2 3 14
3 2 14 13
3 3 4 15
3 3 15 14
3 4 5 16
3 4 16 15
3 5 6 17
3 5 17 16
3 6 7 18
3 6 18 17
3 7 8 19
3 7 19 18
3 8 9 20
3 8 20 19
3 9 10 21
3 9 21 20
3 11 12 23
3 11 23 22
3 12 13 24
3 12 24 23
3 13 14 25
3 13 25 24
3 14 15 26
3 14 26 25
3 15 16 27
3 15 27 26
3 16 17 28
3 16 28 27
3 17 18 29
3 17 29 28
3 18 19 30
3 18 30 29
3 19 20 31
3 19 31 30
3 20 21 32
3 20 32 31
3 22 23 34
3 22 34 33
3 23 24 35
3 23 35 34
3 24 25 36
3 24 36 35
3 25 26 37
3 25 37 36
3 26 27 38
3 26 38 37
3 27 28 39
3 27 39 38
3 28 29 40
3 28 40 39
3 29 30 41
3 29 41 40
3 30 31 42
3 30 42 41
3 31 32 43
3 31 43 42
3 33 34 45
3 33 45 44
3 34 35 46
3 34 46 45
3 35 36 47
3 35 47 46
3 36 37 48
3 36 48 47
3 37 38 49
3 37 49 48
3 38 39 50
3 38 50 49
3 39 40 51
3 39 51 50
3 40 41 52
3 40 52 51
3 41 42 53
3 41 53 52
3 42 43 54
3 42 54 53
3 44 45 56
3 44 56 55
3 45 46 57
3 45 57 56
3 46 47 58
3 46 58 57
3 47 48 59
3 47 59 58
3 48 49 60
3 48 60 59
3 49 50 61
3 49 61 60
3 50 51 62
3 50 62 61
3 51 52 63
3 51 63 62
3 52 53 64
3 52 64 63
3 53 54 65
3 53 65 64
CELL_TYPES 100
5
5
5
5
5
5
5
5
5
5
5
5
5
5
5
5
5
5
5
5
5
5
5
5
5
5
5
5
5
5
5
5
5
5
5
5
5
5
5
5
5
5
5
5
5
5
5
5
5
5
5
5
5
5
5
5
5
5
5
5
5
5
5
5
5
5
5
5
5
5
5
5
5
5
5
5
5
5
5
5
5
5
5
5
5
5
5
5
5
5
5
5
5
5
5
5
5
5
5
5
CELL_DATA 100
VECTORS Et double
-0.0348273 0.0823039 0
-0.0656506 0.0389275 0
-0.0308608 0.196516 0
-0.0581813 0.156792 0
-0.0238779 0.291726 0
-0.045411 0.259963 0
-0.0145577 0.358441 0
-0.0283576 0.337928 0
-0.00381126 0.390081 0
-0.00856743 0.382874 0
0.00730951 0.383541 0
0.0120596 0.39035 0
0.0177161 0.339451 0
0.0315041 0.359617 0
0.0263895 0.262075 0
0.0478241 0.293673 0
0.0324789 0.158799 0
0.0592947 0.198922 0
0.0353812 0.0393124 0
0.0645593 0.0844581 0
-0.133713 0.0760661 0
-0.163226 0.0360808 0
-0.119685 0.183276 0
-0.145289 0.145971 0
-0.0943412 0.27257 0
-0.114703 0.242904 0
-0.0599228 0.335132 0
-0.0731042 0.316078 0
-0.0196752 0.364869 0
-0.0243525 0.358257 0
0.0224991 0.358892 0
0.0268113 0.365344 0
0.0624717 0.317814 0
0.0753793 0.336669 0
0.0962918 0.245687 0
0.116567 0.275063 0
0.120522 0.149494 0
0.146123 0.186587 0
0.132545 0.0372862 0
0.159754 0.079817 0
-0.224583 0.130385 0
-0.192934 0.0315633 0
-0.200621 0.270602 0
-0.180709 0.191342 0
-0.158567 0.382496 0
-0.144725 0.322167 0
-0.101198 0.456578 0
-0.0934193 0.419585 0
-0.0339231 0.485889 0
-0.0326932 0.475553 0
0.0367029 0.46764 0
0.0313377 0.484891 0
0.103767 0.403699 0
0.0924067 0.446766 0
0.160677 0.300624 0
0.14471 0.364989 0
0.201657 0.169995 0
0.184019 0.247857 0
0.221356 0.0329693 0
0.211448 0.10829 0
-0.248341 0.274215 0
-0.0826944 0.0300815 0
-0.230653 0.557525 0
-0.0764506 0.331887 0
-0.184272 0.786719 0
-0.0611687 0.606722 0
-0.118688 0.938894 0
-0.039156 0.822624 0
-0.0412093 0.999151 0
-0.0130365 0.957992 0
0.0404084 0.961606 0
0.0144782 0.999571 0
0.118176 0.829953 0
0.0406952 0.94331 0
0.184658 0.617074 0
0.0632046 0.794732 0
0.234241 0.343331 0
0.0802754 0.568376 0
0.267052 0.0304404 0
0.0910601 0.285928 0
-0.135934 0.268355 0
0.026473 0.0294144 0
-0.124567 0.542775 0
0.0243445 0.324477 0
-0.0994753 0.765257 0
0.0198505 0.590621 0
-0.0639089 0.913243 0
0.0134202 0.800164 0
-0.0218149 0.97196 0
0.00567892 0.9318 0
0.0225321 0.935538 0
-0.00261695 0.972354 0
0.0647915 0.807415 0
-0.0106555 0.917733 0
0.100982 0.599842 0
-0.0176492 0.773158 0
0.128029 0.332336 0
-0.0229106 0.552492 0
0.144094 0.0294264 0
-0.0259167 0.27655 0
