# vtk DataFile Version 3.0
tp3485 cell-vector
ASCII
DATASET UNSTRUCTURED_GRID
POINTS 66 double
0 0 0
0.1 0 0
0.2 0 0
0.3 0 0
0.4 0 0
0.5 0 0
0.6 0 0
0.7 0 0
0.8 0 0
0.9 0 0
1 0 0
0 0.09 0
0.1 0.09 0
0.2 0.09 0
0.3 0.09 0
0.4 0.09 0
0.5 0.09 0
0.6 0.09 0
0.7 0.09 0
0.8 0.09 0
0.9 0.09 0
1 0.09 0
0 0.18 0
0.1 0.18 0
0.2 0.18 0
0.3 0.18 0
0.4 0.18 0
0.5 0.18 0
0.6 0.18 0
0.7 0.18 0
0.8 0.18 0
0.9 0.18 0
1 0.18 0
0 0.27 0
0.1 0.27 0
0.2 0.27 0
0.3 0.27 0
0.4 0.27 0
0.5 0.27 0
0.6 0.27 0
0.7 0.27 0
0.8 0.27 0
0.9 0.27 0
1 0.27 0
0 0.36 0
0.1 0.36 0
0.2 0.36 0
0.3 0.36 0
0.4 0.36 0
0.5 0.36 0
0.6 0.36 0
0.7 0.36 0
0.8 0.36 0
0.9 0.36 0
1 0.36 0
0 0.45 0
0.1 0.45 0
0.2 0.45 0
0.3 0.45 0
0.4 0.45 0
0.5 0.45 0
0.6 0.45 0
0.7 0.45 0
0.8 0.45 0
0.9 0.45 0
1 0.45 0
CELLS 100 400
3 0 1 12
3 0 12 11
3 1 2 13
3 1 13 12
3 2 3 14
3 2 14 13
3 3 4 15
3 3 15 14
3 4 5 16
3 4 16 15
3 5 6 17
3 5 17 16
3 6 7 18
3 6 18 17
3 7 8 19
3 7 19 18
3 8 9 20
3 8 20 19
3 9 10 21
3 9 21 20
3 11 12 23
3 11 23 22
3 12 13 24
3 12 24 23
3 13 14 25
3 13 25 24
3 14 15 26
3 14 26 25
3 15 16 27
3 15 27 26
3 16 17 28
3 16 28 27
3 17 18 29
3 17 29 28
3 18 19 30
3 18 30 29
3 19 20 31
3 19 31 30
3 20 21 32
3 20 32 31
3 22 23 34
3 22 34 33
3 23 24 35
3 23 35 34
3 24 25 36
3 24 36 35
3 25 26 37
3 25 37 36
3 26 27 38
3 26 38 37
3 27 28 39
3 27 39 38
3 28 29 40
3 28 40 39
3 29 30 41
3 29 41 40
3 30 31 42
3 30 42 41
3 31 32 43
3 31 43 42
3 33 34 45
3 33 45 44
3 34 35 46
3 34 46 45
3 35 36 47
3 35 47 46
3 36 37 48
3 36 48 47
3 37 38 49
3 37 49 48
3 38 39 50
3 38 50 49
3 39 40 51
3 39 51 50
3 40 41 52
3 40 52 51
3 41 42 53
3 41 53 52
3 42 43 54
3 42 54 53
3 44 45 56
3 44 56 55
3 45 46 57
3 45 57 56
3 46 47 58
3 46 58 57
3 47 48 59
3 47 59 58
3 48 49 60
3 48 60 59
3 49 50 61
3 49 61 60
3 50 51 62
3 50 62 61
3 51 52 63
3 51 63 62
3 52 53 64
3 52 64 63
3 53 54 65
3 53 65 64
CELL_TYPES 100
5
5
5
5
5
5
5
5
5
5
5
5
5
5
5
5
5
5
5
5
5
5
5
5
5
5
5
5
5
5
5
5
5
5
5
5
5
5
5
5
5
5
5
5
5
5
5
5
5
5
5
5
5
5
5
5
5
5
5
5
5
5
5
5
5
5
5
5
5
5
5
5
5
5
5
5
5
5
5
5
5
5
5
5
5
5
5
5
5
5
5
5
5
5
5
5
5
5
5
5
CELL_DATA 100
VECTORS Et double
0.00206846 0.109543 0
0.106456 -0.00207248 0
0.00240194 0.0654669 0
-0.0280186 0.104591 0
0.00183391 -0.133888 0
-0.168543 0.0601281 0
-0.000468864 -0.326511 0
-0.171154 -0.136654 0
-0.00383324 -0.315089 0
-0.00335497 -0.322935 0
-0.00614662 -0.0427585 0
0.217137 -0.304255 0
-0.00531597 0.334482 0
0.310062 -0.0288866 0
-0.00104289 0.547912 0
0.178893 0.343607 0
0.00455259 0.41894 0
-0.102161 0.54582 0
0.00812596 0.00902885 0
-0.332658 0.405294 0
0.109908 0.220471 0
0.311699 -0.000989082 0
-0.022974 0.188502 0
-0.0427826 0.216085 0
-0.16341 -0.117856 0
-0.426627 0.181596 0
-0.17018 -0.450952 0
-0.462736 -0.123214 0
-0.0100611 -0.492308 0
-0.0556695 -0.448666 0
0.203903 -0.129383 0
0.504811 -0.479883 0
0.296919 0.42175 0
0.761597 -0.111686 0
0.174236 0.759283 0
0.46042 0.434328 0
-0.0940235 0.601012 0
-0.226516 0.757629 0
-0.315184 0.0108275 0
-0.811594 0.584221 0
0.311779 -0.287714 0
0.0508948 0.000627864 0
-0.0381348 -0.277152 0
-0.0250742 -0.287968 0
-0.417801 0.0557418 0
-0.102974 -0.283954 0
-0.456698 0.435799 0
-0.0972237 0.0453287 0
-0.0604195 0.512644 0
0.0101767 0.431489 0
0.487946 0.16065 0
0.145993 0.522585 0
0.74111 -0.394185 0
0.199336 0.182976 0
0.449847 -0.73287 0
0.111504 -0.372327 0
-0.218303 -0.56919 0
-0.0704627 -0.72704 0
-0.787696 0.0155537 0
-0.222251 -0.585935 0
0.0509327 -0.0440196 0
0.0133082 -0.000772356 0
-0.0218617 -0.0402218 0
-0.0123968 -0.0465065 0
-0.0961297 0.0141601 0
-0.0371535 -0.0453305 0
-0.0919223 0.0734123 0
-0.031558 0.00924296 0
0.00714647 0.0813258 0
0.00919113 0.0739228 0
0.132705 0.019871 0
0.0576715 0.0901975 0
0.182036 -0.0715669 0
0.0741316 0.0340272 0
0.101379 -0.123752 0
0.0387815 -0.0603738 0
-0.0651952 -0.0913423 0
-0.0295793 -0.123564 0
-0.203021 0.0101364 0
-0.0844395 -0.103889 0
0.0150529 -0.0213281 0
-0.00103093 -0.00114548 0
-0.00913977 -0.0190081 0
-0.00146015 -0.0241167 0
-0.0331148 0.0087826 0
-0.00162243 -0.0226127 0
-0.0300042 0.038199 0
-0.000592318 0.00633098 0
0.00509093 0.0405718 0
0.00164025 0.0398677 0
0.0481682 0.00749697 0
0.00382526 0.0475379 0
0.063922 -0.0397688 0
0.00423866 0.0171853 0
0.0344148 -0.0652346 0
0.00205699 -0.0328322 0
-0.0243087 -0.0463506 0
-0.00178022 -0.0659474 0
-0.0716756 0.00658665 0
-0.00499765 -0.0553604 0
