# vtk DataFile Version 3.0
tp3485 cell-vector
ASCII
DATASET UNSTRUCTURED_GRID
POINTS 66 double
0 0 0
0.1 0 0
0.2 0 0
0.3 0 0
0.4 0 0
0.5 0 0
0.6 0 0
0.7 0 0
0.8 0 0
0.9 0 0
1 0 0
0 0.09 0
0.1 0.09 0
0.2 0.09 0
0.3 0.09 0
0.4 0.09 0
0.5 0.09 0
0.6 0.09 0
0.7 0.09 0
0.8 0.09 0
0.9 0.09 0
1 0.09 0
0 0.18 0
0.1 0.18 0
0.2 0.18 0
0.3 0.18 0
0.4 0.18 0
0.5 0.18 0
0.6 0.18 0
0.7 0.18 0
0.8 0.18 0
0.9 0.18 0
1 0.18 0
0 0.27 0
0.1 0.27 0
0.2 0.27 0
0.3 0.27 0
0.4 0.27 0
0.5 0.27 0
0.6 0.27 0
0.7 0.27 0
0.8 0.27 0
0.9 0.27 0
1 0.27 0
0 0.36 0
0.1 0.36 0
0.2 0.36 0
0.3 0.36 0
0.4 0.36 0
0.5 0.36 0
0.6 0.36 0
0.7 0.36 0
0.8 0.36 0
0.9 0.36 0
1 0.36 0
0 0.45 0
0.1 0.45 0
0.2 0.45 0
0.3 0.45 0
0.4 0.45 0
0.5 0.45 0
0.6 0.45 0
0.7 0.45 0
0.8 0.45 0
0.9 0.45 0
1 0.45 0
CELLS 100 400
3 0 1 12
3 0 12 11
3 1 2 13
3 1 13 12
3 2 3 14
3 2 14 13
3 3 4 15
3 3 15 14
3 4 5 16
3 4 16 15
3 5 6 17
3 5 17 16
3 6 7 18
3 6 18 17
3 7 8 19
3 7 19 18
3 8 9 20
3 8 20 19
3 9 10 21
3 9 21 20
3 11 12 23
3 11 23 22
3 12 13 24
3 12 24 23
3 13 14 25
3 13 25 24
3 14 15 26
3 14 26 25
3 15 16 27
3 15 27 26
3 16 17 28
3 16 28 27
3 17 18 29
3 17 29 28
3 18 19 30
3 18 30 29
3 19 20 31
3 19 31 30
3 20 21 32
3 20 32 31
3 22 23 34
3 22 34 33
3 23 24 35
3 23 35 34
3 24 25 36
3 24 36 35
3 25 26 37
3 25 37 36
3 26 27 38
3 26 38 37
3 27 28 39
3 27 39 38
3 28 29 40
3 28 40 39
3 29 30 41
3 29 41 40
3 30 31 42
3 30 42 41
3 31 32 43
3 31 43 42
3 33 34 45
3 33 45 44
3 34 35 46
3 34 46 45
3 35 36 47
3 35 47 46
3 36 37 48
3 36 48 47
3 37 38 49
3 37 49 48
3 38 39 50
3 38 50 49
3 39 40 51
3 39 51 50
3 40 41 52
3 40 52 51
3 41 42 53
3 41 53 52
3 42 43 54
3 42 54 53
3 44 45 56
3 44 56 55
3 45 46 57
3 45 57 56
3 46 47 58
3 46 58 57
3 47 48 59
3 47 59 58
3 48 49 60
3 48 60 59
3 49 50 61
3 49 61 60
3 50 51 62
3 50 62 61
3 51 52 63
3 51 63 62
3 52 53 64
3 52 64 63
3 53 54 65
3 53 65 64
CELL_TYPES 100
5
5
5
5
5
5
5
5
5
5
5
5
5
5
5
5
5
5
5
5
5
5
5
5
5
5
5
5
5
5
5
5
5
5
5
5
5
5
5
5
5
5
5
5
5
5
5
5
5
5
5
5
5
5
5
5
5
5
5
5
5
5
5
5
5
5
5
5
5
5
5
5
5
5
5
5
5
5
5
5
5
5
5
5
5
5
5
5
5
5
5
5
5
5
5
5
5
5
5
5
CELL_DATA 100
VECTORS Et double
0.069766 -0.232726 0
0.0654961 -0.0752317 0
0.0623289 -0.52119 0
0.0602513 -0.379936 0
0.0490016 -0.758331 0
0.0505686 -0.648035 0
0.0310031 -0.921007 0
0.0366001 -0.852778 0
0.0100574 -0.99338 0
0.01945 -0.974048 0
-0.0117986 -0.968438 0
0.000708684 -1 0
-0.0324231 -0.848668 0
-0.0177816 -0.928145 0
-0.0497768 -0.645796 0
-0.0341051 -0.76558 0
-0.062109 -0.379584 0
-0.0463882 -0.528275 0
-0.068097 -0.0756633 0
-0.0526954 -0.239507 0
0.187807 -0.243563 0
0.116725 -0.0519566 0
0.171949 -0.52126 0
0.112744 -0.352646 0
0.141045 -0.746968 0
0.097859 -0.615861 0
0.0971903 -0.899128 0
0.0739756 -0.817959 0
0.0443596 -0.963082 0
0.0433394 -0.939657 0
-0.0123878 -0.932733 0
0.00888506 -0.969266 0
-0.0674922 -0.811203 0
-0.0260068 -0.904043 0
-0.115438 -0.610588 0
-0.0578389 -0.750523 0
-0.151211 -0.350967 0
-0.083382 -0.523935 0
-0.170428 -0.059747 0
-0.100601 -0.246895 0
0.186096 -0.156971 0
0.101617 -0.0189912 0
0.174608 -0.327598 0
0.0902564 -0.197822 0
0.146038 -0.466062 0
0.0706683 -0.358446 0
0.10374 -0.558671 0
0.0444703 -0.483604 0
0.0517912 -0.596482 0
0.0142005 -0.56111 0
-0.0047825 -0.575931 0
-0.0171876 -0.58355 0
-0.0604403 -0.499174 0
-0.046625 -0.548868 0
-0.10967 -0.373897 0
-0.0712296 -0.460589 0
-0.147607 -0.212402 0
-0.0885791 -0.32747 0
-0.171284 -0.0287211 0
-0.0966761 -0.162363 0
0.129765 -0.112608 0
0.0578203 -0.0101922 0
0.114508 -0.22531 0
0.0513607 -0.13441 0
0.0882508 -0.315631 0
0.0395224 -0.244503 0
0.0535496 -0.374873 0
0.0237965 -0.330281 0
0.0138448 -0.397336 0
0.00582605 -0.383505 0
-0.0269689 -0.380918 0
-0.012601 -0.399077 0
-0.0649005 -0.327325 0
-0.0296816 -0.375576 0
-0.0962519 -0.241904 0
-0.0437721 -0.315398 0
-0.117983 -0.133163 0
-0.0535847 -0.224522 0
-0.127766 -0.012521 0
-0.05846 -0.112003 0
0.0737376 -0.110294 0
-0.00626093 -0.00695658 0
0.066021 -0.217299 0
-0.00581489 -0.124249 0
0.0515684 -0.302923 0
-0.00484342 -0.229452 0
0.032035 -0.358787 0
-0.00340329 -0.312115 0
0.00943103 -0.379467 0
-0.0016254 -0.364108 0
-0.0139989 -0.363011 0
0.000317749 -0.380382 0
-0.0359618 -0.311102 0
0.00223617 -0.359416 0
-0.0543381 -0.228857 0
0.00394191 -0.303334 0
-0.0674164 -0.124297 0
0.00526288 -0.217669 0
-0.0741613 -0.00749123 0
0.00604307 -0.110813 0
