# vtk DataFile Version 3.0
tp3485 cell-vector
ASCII
DATASET UNSTRUCTURED_GRID
POINTS 66 double
0 0 0
0.1 0 0
0.2 0 0
0.3 0 0
0.4 0 0
0.5 0 0
0.6 0 0
0.7 0 0
0.8 0 0
0.9 0 0
1 0 0
0 0.09 0
0.1 0.09 0
0.2 0.09 0
0.3 0.09 0
0.4 0.09 0
0.5 0.09 0
0.6 0.09 0
0.7 0.09 0
0.8 0.09 0
0.9 0.09 0
1 0.09 0
0 0.18 0
0.1 0.18 0
0.2 0.18 0
0.3 0.18 0
0.4 0.18 0
0.5 0.18 0
0.6 0.18 0
0.7 0.18 0
0.8 0.18 0
0.9 0.18 0
1 0.18 0
0 0.27 0
0.1 0.27 0
0.2 0.27 0
0.3 0.27 0
0.4 0.27 0
0.5 0.27 0
0.6 0.27 0
0.7 0.27 0
0.8 0.27 0
0.9 0.27 0
1 0.27 0
0 0.36 0
0.1 0.36 0
0.2 0.36 0
0.3 0.36 0
0.4 0.36 0
0.5 0.36 0
0.6 0.36 0
0.7 0.36 0
0.8 0.36 0
0.9 0.36 0
1 0.36 0
0 0.45 0
0.1 0.45 0
0.2 0.45 0
0.3 0.45 0
0.4 0.45 0
0.5 0.45 0
0.6 0.45 0
0.7 0.45 0
0.8 0.45 0
0.9 0.45 0
1 0.45 0
CELLS 100 400
3 0 1 12
3 0 12 11
3 1 2 13
3 1 13 12
3 2 3 14
3 2 14 13
3 3 4 15
3 3 15 14
3 4 5 16
3 4 16 15
3 5 6 17
3 5 17 16
3 6 7 18
3 6 18 17
3 7 8 19
3 7 19 18
3 8 9 20
3 8 20 19
3 9 10 21
3 9 21 20
3 11 12 23
3 11 23 22
3 12 13 24
3 12 24 23
3 13 14 25
3 13 25 24
3 14 15 26
3 14 26 25
3 15 16 27
3 15 27 26
3 16 17 28
3 16 28 27
3 17 18 29
3 17 29 28
3 18 19 30
3 18 30 29
3 19 20 31
3 19 31 30
3 20 21 32
3 20 32 31
3 22 23 34
3 22 34 33
3 23 24 35
3 23 35 34
3 24 25 36
3 24 36 35
3 25 26 37
3 25 37 36
3 26 27 38
3 26 38 37
3 27 28 39
3 27 39 38
3 28 29 40
3 28 40 39
3 29 30 41
3 29 41 40
3 30 31 42
3 30 42 41
3 31 32 43
3 31 43 42
3 33 34 45
3 33 45 44
3 34 35 46
3 34 46 45
3 35 36 47
3 35 47 46
3 36 37 48
3 36 48 47
3 37 38 49
3 37 49 48
3 38 39 50
3 38 50 49
3 39 40 51
3 39 51 50
3 40 41 52
3 40 52 51
3 41 42 53
3 41 53 52
3 42 43 54
3 42 54 53
3 44 45 56
3 44 56 55
3 45 46 57
3 45 57 56
3 46 47 58
3 46 58 57
3 47 48 59
3 47 59 58
3 48 49 60
3 48 60 59
3 49 50 61
3 49 61 60
3 50 51 62
3 50 62 61
3 51 52 63
3 51 63 62
3 52 53 64
3 52 64 63
3 53 54 65
3 53 65 64
CELL_TYPES 100
5
5
5
5
5
5
5
5
5
5
5
5
5
5
5
5
5
5
5
5
5
5
5
5
5
5
5
5
5
5
5
5
5
5
5
5
5
5
5
5
5
5
5
5
5
5
5
5
5
5
5
5
5
5
5
5
5
5
5
5
5
5
5
5
5
5
5
5
5
5
5
5
5
5
5
5
5
5
5
5
5
5
5
5
5
5
5
5
5
5
5
5
5
5
5
5
5
5
5
5
CELL_DATA 100
VECTORS Et double
-0.0573385 0.247274 0
-0.00496631 0.0626868 0
-0.0511143 0.534358 0
-0.00549744 0.368931 0
-0.0400113 0.768807 0
-0.00598772 0.638849 0
-0.025053 0.927874 0
-0.00609596 0.846119 0
-0.00767769 0.996058 0
-0.00575174 0.970549 0
0.0104226 0.96671 0
-0.00496396 0.999988 0
0.0274743 0.84271 0
-0.00381277 0.931565 0
0.041795 0.636219 0
-0.00244253 0.771997 0
0.0519462 0.367544 0
-0.00105066 0.536963 0
0.0568497 0.0631664 0
-1.45537e-05 0.24967 0
-0.109882 0.25628 0
-0.0158441 0.0489535 0
-0.101018 0.538611 0
-0.0206012 0.355619 0
-0.0829599 0.767646 0
-0.0218117 0.624337 0
-0.0570779 0.921375 0
-0.0209043 0.831432 0
-0.0258072 0.984848 0
-0.0181158 0.957011 0
0.00783067 0.951903 0
-0.0137138 0.988875 0
0.0405417 0.825812 0
-0.00813043 0.92395 0
0.069083 0.619003 0
-0.00191975 0.768638 0
0.0905655 0.352081 0
0.00446199 0.538224 0
0.10252 0.0537721 0
0.0119866 0.255619 0
-0.0887086 0.147345 0
-0.0340331 0.0272935 0
-0.0859198 0.318674 0
-0.0283002 0.203441 0
-0.0730638 0.459525 0
-0.0208109 0.363928 0
-0.0530414 0.555438 0
-0.011515 0.489241 0
-0.0279892 0.596963 0
-0.00121644 0.566639 0
-0.000360564 0.580061 0
0.00909396 0.588531 0
0.0271407 0.506422 0
0.0184095 0.552809 0
0.0518291 0.383241 0
0.025808 0.462994 0
0.0714964 0.222092 0
0.0304721 0.32782 0
0.0860529 0.0348134 0
0.031179 0.15985 0
-0.0759828 0.109285 0
-0.0253687 0.0168651 0
-0.0656678 0.225882 0
-0.0219715 0.144251 0
-0.0495507 0.320192 0
-0.0161139 0.256275 0
-0.0287139 0.383106 0
-0.00863463 0.342994 0
-0.00515904 0.408496 0
-0.000331472 0.396055 0
0.0188084 0.393903 0
0.00796383 0.410307 0
0.040844 0.340785 0
0.0154388 0.384386 0
0.0587919 0.254375 0
0.0213774 0.320855 0
0.0708371 0.14327 0
0.0252499 0.225959 0
0.075119 0.0195701 0
0.0269136 0.109139 0
-0.0526078 0.110209 0
0.0115064 0.0127849 0
-0.046866 0.223155 0
0.0106384 0.135429 0
-0.0363078 0.314242 0
0.00877727 0.24492 0
-0.0221455 0.374558 0
0.0060666 0.330458 0
-0.0058245 0.3982 0
0.00276051 0.383638 0
0.0110366 0.382865 0
-0.000819491 0.399245 0
0.0267865 0.330067 0
-0.00432324 0.375765 0
0.0398998 0.244971 0
-0.00740706 0.315509 0
0.0491379 0.135887 0
-0.00976292 0.224379 0
0.053778 0.013412 0
-0.0111329 0.111317 0
