# vtk DataFile Version 3.0
tp3485 cell-vector
ASCII
DATASET UNSTRUCTURED_GRID
POINTS 121 double
0 0 0
0.125 0 0
0.114193 0.0508421 0
0.0836413 0.0928931 0
0.0386271 0.118882 0
-0.0130661 0.124315 0
-0.0625 0.108253 0
-0.101127 0.0734732 0
-0.122268 0.025989 0
-0.122268 -0.025989 0
-0.101127 -0.0734732 0
-0.0625 -0.108253 0
-0.0130661 -0.124315 0
0.0386271 -0.118882 0
0.0836413 -0.0928931 0
0.114193 -0.0508421 0
0.25 0 0
0.228386 0.101684 0
0.167283 0.185786 0
0.0772542 0.237764 0
-0.0261321 0.24863 0
-0.125 0.216506 0
-0.202254 0.146946 0
-0.244537 0.0519779 0
-0.244537 -0.0519779 0
-0.202254 -0.146946 0
-0.125 -0.216506 0
-0.0261321 -0.24863 0
0.0772542 -0.237764 0
0.167283 -0.185786 0
0.228386 -0.101684 0
0.375 0 0
0.34258 0.152526 0
0.250924 0.278679 0
0.115881 0.356646 0
-0.0391982 0.372946 0
-0.1875 0.32476 0
-0.303381 0.220419 0
-0.366805 0.0779669 0
-0.366805 -0.0779669 0
-0.303381 -0.220419 0
-0.1875 -0.32476 0
-0.0391982 -0.372946 0
0.115881 -0.356646 0
0.250924 -0.278679 0
0.34258 -0.152526 0
0.5 0 0
0.456773 0.203368 0
0.334565 0.371572 0
0.154508 0.475528 0
-0.0522642 0.497261 0
-0.25 0.433013 0
-0.404508 0.293893 0
-0.489074 0.103956 0
-0.489074 -0.103956 0
-0.404508 -0.293893 0
-0.25 -0.433013 0
-0.0522642 -0.497261 0
0.154508 -0.475528 0
0.334565 -0.371572 0
0.456773 -0.203368 0
0.625 0 0
0.570966 0.25421 0
0.418207 0.464466 0
0.193136 0.59441 0
-0.0653303 0.621576 0
-0.3125 0.541266 0
-0.505636 0.367366 0
-0.611342 0.129945 0
-0.611342 -0.129945 0
-0.505636 -0.367366 0
-0.3125 -0.541266 0
-0.0653303 -0.621576 0
0.193136 -0.59441 0
0.418207 -0.464466 0
0.570966 -0.25421 0
0.75 0 0
0.685159 0.305052 0
0.501848 0.557359 0
0.231763 0.713292 0
-0.0783963 0.745891 0
-0.375 0.649519 0
-0.606763 0.440839 0
-0.733611 0.155934 0
-0.733611 -0.155934 0
-0.606763 -0.440839 0
-0.375 -0.649519 0
-0.0783963 -0.745891 0
0.231763 -0.713292 0
0.501848 -0.557359 0
0.685159 -0.305052 0
0.875 0 0
0.799352 0.355895 0
0.585489 0.650252 0
0.27039 0.832174 0
-0.0914624 0.870207 0
-0.4375 0.757772 0
-0.70789 0.514312 0
-0.855879 0.181923 0
-0.855879 -0.181923 0
-0.70789 -0.514312 0
-0.4375 -0.757772 0
-0.0914624 -0.870207 0
0.27039 -0.832174 0
0.585489 -0.650252 0
0.799352 -0.355895 0
1 0 0
0.913545 0.406737 0
0.669131 0.743145 0
0.309017 0.951057 0
-0.104528 0.994522 0
-0.5 0.866025 0
-0.809017 0.587785 0
-0.978148 0.207912 0
-0.978148 -0.207912 0
-0.809017 -0.587785 0
-0.5 -0.866025 0
-0.104528 -0.994522 0
0.309017 -0.951057 0
0.669131 -0.743145 0
0.913545 -0.406737 0
CELLS 225 900
3 0 1 2
3 0 2 3
3 0 3 4
3 0 4 5
3 0 5 6
3 0 6 7
3 0 7 8
3 0 8 9
3 0 9 10
3 0 10 11
3 0 11 12
3 0 12 13
3 0 13 14
3 0 14 15
3 0 15 1
3 1 16 17
3 1 17 2
3 2 17 18
3 2 18 3
3 3 18 19
3 3 19 4
3 4 19 20
3 4 20 5
3 5 20 21
3 5 21 6
3 6 21 22
3 6 22 7
3 7 22 23
3 7 23 8
3 8 23 24
3 8 24 9
3 9 24 25
3 9 25 10
3 10 25 26
3 10 26 11
3 11 26 27
3 11 27 12
3 12 27 28
3 12 28 13
3 13 28 29
3 13 29 14
3 14 29 30
3 14 30 15
3 15 30 16
3 15 16 1
3 16 31 32
3 16 32 17
3 17 32 33
3 17 33 18
3 18 33 34
3 18 34 19
3 19 34 35
3 19 35 20
3 20 35 36
3 20 36 21
3 21 36 37
3 21 37 22
3 22 37 38
3 22 38 23
3 23 38 39
3 23 39 24
3 24 39 40
3 24 40 25
3 25 40 41
3 25 41 26
3 26 41 42
3 26 42 27
3 27 42 43
3 27 43 28
3 28 43 44
3 28 44 29
3 29 44 45
3 29 45 30
3 30 45 31
3 30 31 16
3 31 46 47
3 31 47 32
3 32 47 48
3 32 48 33
3 33 48 49
3 33 49 34
3 34 49 50
3 34 50 35
3 35 50 51
3 35 51 36
3 36 51 52
3 36 52 37
3 37 52 53
3 37 53 38
3 38 53 54
3 38 54 39
3 39 54 55
3 39 55 40
3 40 55 56
3 40 56 41
3 41 56 57
3 41 57 42
3 42 57 58
3 42 58 43
3 43 58 59
3 43 59 44
3 44 59 60
3 44 60 45
3 45 60 46
3 45 46 31
3 46 61 62
3 46 62 47
3 47 62 63
3 47 63 48
3 48 63 64
3 48 64 49
3 49 64 65
3 49 65 50
3 50 65 66
3 50 66 51
3 51 66 67
3 51 67 52
3 52 67 68
3 52 68 53
3 53 68 69
3 53 69 54
3 54 69 70
3 54 70 55
3 55 70 71
3 55 71 56
3 56 71 72
3 56 72 57
3 57 72 73
3 57 73 58
3 58 73 74
3 58 74 59
3 59 74 75
3 59 75 60
3 60 75 61
3 60 61 46
3 61 76 77
3 61 77 62
3 62 77 78
3 62 78 63
3 63 78 79
3 63 79 64
3 64 79 80
3 64 80 65
3 65 80 81
3 65 81 66
3 66 81 82
3 66 82 67
3 67 82 83
3 67 83 68
3 68 83 84
3 68 84 69
3 69 84 85
3 69 85 70
3 70 85 86
3 70 86 71
3 71 86 87
3 71 87 72
3 72 87 88
3 72 88 73
3 73 88 89
3 73 89 74
3 74 89 90
3 74 90 75
3 75 90 76
3 75 76 61
3 76 91 92
3 76 92 77
3 77 92 93
3 77 93 78
3 78 93 94
3 78 94 79
3 79 94 95
3 79 95 80
3 80 95 96
3 80 96 81
3 81 96 97
3 81 97 82
3 82 97 98
3 82 98 83
3 83 98 99
3 83 99 84
3 84 99 100
3 84 100 85
3 85 100 101
3 85 101 86
3 86 101 102
3 86 102 87
3 87 102 103
3 87 103 88
3 88 103 104
3 88 104 89
3 89 104 105
3 89 105 90
3 90 105 91
3 90 91 76
3 91 106 107
3 91 107 92
3 92 107 108
3 92 108 93
3 93 108 109
3 93 109 94
3 94 109 110
3 94 110 95
3 95 110 111
3 95 111 96
3 96 111 112
3 96 112 97
3 97 112 113
3 97 113 98
3 98 113 114
3 98 114 99
3 99 114 115
3 99 115 100
3 100 115 116
3 100 116 101
3 101 116 117
3 101 117 102
3 102 117 118
3 102 118 103
3 103 118 119
3 103 119 104
3 104 119 120
3 104 120 105
3 105 120 106
3 105 106 91
CELL_TYPES 225
5
5
5
5
5
5
5
5
5
5
5
5
5
5
5
5
5
5
5
5
5
5
5
5
5
5
5
5
5
5
5
5
5
5
5
5
5
5
5
5
5
5
5
5
5
5
5
5
5
5
5
5
5
5
5
5
5
5
5
5
5
5
5
5
5
5
5
5
5
5
5
5
5
5
5
5
5
5
5
5
5
5
5
5
5
5
5
5
5
5
5
5
5
5
5
5
5
5
5
5
5
5
5
5
5
5
5
5
5
5
5
5
5
5
5
5
5
5
5
5
5
5
5
5
5
5
5
5
5
5
5
5
5
5
5
5
5
5
5
5
5
5
5
5
5
5
5
5
5
5
5
5
5
5
5
5
5
5
5
5
5
5
5
5
5
5
5
5
5
5
5
5
5
5
5
5
5
5
5
5
5
5
5
5
5
5
5
5
5
5
5
5
5
5
5
5
5
5
5
5
5
5
5
5
5
5
5
5
5
5
5
5
5
5
5
5
5
5
5
5
5
5
5
5
5
CELL_DATA 225
VECTORS Ht double
-0.168077 -0.463987 0
-0.325865 -0.126094 0
-0.562099 0.103842 0
-0.619384 0.147529 0
-0.384251 0.191458 0
-0.0499016 0.386489 0
0.128014 0.602789 0
0.149003 0.5851 0
0.225986 0.297949 0
0.449213 -0.0149692 0
0.627545 -0.141092 0
0.532305 -0.154723 0
0.210234 -0.271362 0
-0.0664315 -0.509372 0
-0.14629 -0.633557 0
-0.445569 -0.632065 0
-0.68453 -0.50634 0
-0.733489 -0.431603 0
-0.687245 -0.433338 0
-0.833378 -0.172858 0
-0.522569 -0.0563515 0
-0.75471 0.168933 0
-0.470377 0.447345 0
-0.585454 0.530713 0
-0.510774 0.716922 0
-0.37409 0.777976 0
-0.367503 0.648684 0
-0.0946747 0.82746 0
0.0721649 0.492882 0
0.262315 0.717524 0
0.547914 0.480913 0
0.608407 0.536679 0
0.726084 0.502755 0
0.809391 0.312236 0
0.604785 0.280899 0
0.811302 0.0110533 0
0.474264 -0.203382 0
0.676299 -0.355301 0
0.49459 -0.627897 0
0.485562 -0.676565 0
0.477957 -0.714785 0
0.245326 -0.827687 0
0.175841 -0.561115 0
-0.0772375 -0.786497 0
-0.330602 -0.467192 0
-0.608085 -0.341857 0
-0.746429 -0.495713 0
-0.806231 -0.580931 0
-0.793259 -0.551479 0
-0.516616 -0.468431 0
-0.538555 -0.219602 0
-0.268862 0.133975 0
-0.417919 0.396894 0
-0.404053 0.714808 0
-0.529801 0.804913 0
-0.603598 0.76412 0
-0.511253 0.740676 0
-0.352292 0.427604 0
-0.0755303 0.482364 0
0.308286 0.268278 0
0.537624 0.432934 0
0.78437 0.471474 0
0.83063 0.555293 0
0.695395 0.59474 0
0.675232 0.441788 0
0.351962 0.207246 0
0.441903 -0.0811871 0
0.294155 -0.469787 0
0.460939 -0.656129 0
0.533843 -0.814463 0
0.564647 -0.825333 0
0.550037 -0.609401 0
0.343534 -0.605181 0
0.0416892 -0.297376 0
-0.241761 -0.420239 0
-0.564601 0.21834 0
-0.580832 -0.0388555 0
-0.574646 -0.49272 0
-0.556756 -0.464531 0
0.105707 -0.641689 0
-0.0680386 -0.41333 0
0.496869 0.0297722 0
0.169131 0.182226 0
0.0436476 0.657672 0
-0.154053 0.641979 0
-0.614967 0.438636 0
-0.515532 0.453383 0
-0.531055 -0.270983 0
-0.29689 -0.0414093 0
0.235718 -0.456853 0
0.34146 -0.132486 0
0.690819 0.145748 0
0.657456 0.272232 0
0.268002 0.684735 0
0.328663 0.525583 0
-0.399002 0.372106 0
-0.121891 0.150712 0
-0.360821 -0.419603 0
-0.060389 -0.478021 0
0.330785 -0.661864 0
0.379929 -0.627544 0
0.694282 -0.0802056 0
0.491241 -0.195673 0
0.179262 0.476907 0
-0.013497 0.165737 0
-0.247987 0.616717 0
-0.333238 0.513986 0
-0.182519 -0.19393 0
-0.125868 -0.177973 0
0.506665 -0.564815 0
0.547939 -0.382376 0
0.904881 -0.149331 0
0.829987 0.0434012 0
0.428792 0.311388 0
0.340283 0.3535 0
-0.361727 0.0415558 0
-0.299516 -0.0284421 0
-0.520365 -0.673104 0
-0.315687 -0.687222 0
0.00312958 -0.865148 0
0.1674 -0.770392 0
0.322722 -0.218893 0
0.324527 -0.15629 0
-0.131329 0.484625 0
-0.202699 0.376663 0
-0.802962 0.427638 0
-0.786134 0.213568 0
-0.766419 -0.140934 0
-0.6618 -0.26821 0
-0.00519869 -0.278907 0
0.0216381 -0.246828 0
0.553559 0.320053 0
0.404319 0.381297 0
0.29876 0.883086 0
0.0888509 0.835318 0
0.244419 0.484361 0
-0.149483 0.673805 0
0.181094 0.144614 0
0.242259 0.153545 0
0.339084 -0.230368 0
0.813357 -0.0201909 0
0.526239 -0.328413 0
0.957373 0.135266 0
0.424034 -0.212906 0
0.537574 0.0955575 0
0.0381155 -0.200801 0
0.0651186 -0.392541 0
-0.286055 -0.397402 0
0.00458506 -0.907896 0
-0.308135 -0.535517 0
0.164504 -0.893195 0
-0.189141 -0.343933 0
0.00953415 -0.398351 0
-0.235811 0.0638872 0
-0.545362 -0.00640493 0
-0.452101 0.320445 0
-0.965664 -0.0452183 0
-0.52188 0.278169 0
-0.795813 -0.171344 0
-0.248793 0.177566 0
-0.267114 0.10523 0
0.155108 0.283364 0
0.0213279 0.689311 0
0.333821 0.496933 0
-0.092196 0.982426 0
0.565083 -0.12474 0
-0.0513654 0.221138 0
0.343098 0.274741 0
0.319907 0.275083 0
-0.200903 0.186172 0
0.440081 0.40064 0
-0.372358 -0.320558 0
0.310317 0.307548 0
-0.00796207 -0.569857 0
0.215239 -0.0502157 0
0.311386 -0.209809 0
0.311387 -0.380633 0
0.0767333 0.300215 0
0.406536 -0.422207 0
-0.433878 0.317784 0
0.235607 -0.271601 0
-0.531661 -0.105565 0
-0.149905 -0.223407 0
-0.0660467 -0.308658 0
-0.421154 -0.348078 0
0.364563 0.0524337 0
-0.391138 -0.393901 0
0.231976 0.518157 0
-0.240649 -0.148584 0
-0.203412 0.45374 0
-0.244334 0.2416 0
-0.26582 -0.0751015 0
-0.379615 0.440634 0
0.189201 -0.388955 0
-0.360914 0.351985 0
0.278726 -0.613372 0
0.094982 -0.468686 0
0.181571 0.061507 0
0.0835049 0.0459253 0
-0.453826 0.377321 0
-0.334765 0.344627 0
-0.836 0.0381822 0
-0.618604 0.146322 0
-0.458772 -0.32359 0
-0.35582 -0.139652 0
0.203026 -0.0496076 0
0.163669 -0.00260927 0
0.341719 0.607321 0
0.335824 0.44377 0
-0.0855203 0.810808 0
0.0575582 0.605448 0
-0.323221 0.284389 0
-0.154114 0.225022 0
0.109816 -0.307234 0
0.100524 -0.256682 0
0.72911 -0.265932 0
0.53296 -0.295132 0
0.734334 0.195721 0
0.554208 0.0263326 0
0.105738 0.275103 0
0.0872746 0.135276 0
-0.366388 -0.282794 0
-0.318203 -0.216589 0
-0.160314 -0.807824 0
-0.228998 -0.593372 0
