# vtk DataFile Version 3.0
tp3485 cell-vector
ASCII
DATASET UNSTRUCTURED_GRID
POINTS 121 double
0 0 0
0.125 0 0
0.114193 0.0508421 0
0.0836413 0.0928931 0
0.0386271 0.118882 0
-0.0130661 0.124315 0
-0.0625 0.108253 0
-0.101127 0.0734732 0
-0.122268 0.025989 0
-0.122268 -0.025989 0
-0.101127 -0.0734732 0
-0.0625 -0.108253 0
-0.0130661 -0.124315 0
0.0386271 -0.118882 0
0.0836413 -0.0928931 0
0.114193 -0.0508421 0
0.25 0 0
0.228386 0.101684 0
0.167283 0.185786 0
0.0772542 0.237764 0
-0.0261321 0.24863 0
-0.125 0.216506 0
-0.202254 0.146946 0
-0.244537 0.0519779 0
-0.244537 -0.0519779 0
-0.202254 -0.146946 0
-0.125 -0.216506 0
-0.0261321 -0.24863 0
0.0772542 -0.237764 0
0.167283 -0.185786 0
0.228386 -0.101684 0
0.375 0 0
0.34258 0.152526 0
0.250924 0.278679 0
0.115881 0.356646 0
-0.0391982 0.372946 0
-0.1875 0.32476 0
-0.303381 0.220419 0
-0.366805 0.0779669 0
-0.366805 -0.0779669 0
-0.303381 -0.220419 0
-0.1875 -0.32476 0
-0.0391982 -0.372946 0
0.115881 -0.356646 0
0.250924 -0.278679 0
0.34258 -0.152526 0
0.5 0 0
0.456773 0.203368 0
0.334565 0.371572 0
0.154508 0.475528 0
-0.0522642 0.497261 0
-0.25 0.433013 0
-0.404508 0.293893 0
-0.489074 0.103956 0
-0.489074 -0.103956 0
-0.404508 -0.293893 0
-0.25 -0.433013 0
-0.0522642 -0.497261 0
0.154508 -0.475528 0
0.334565 -0.371572 0
0.456773 -0.203368 0
0.625 0 0
0.570966 0.25421 0
0.418207 0.464466 0
0.193136 0.59441 0
-0.0653303 0.621576 0
-0.3125 0.541266 0
-0.505636 0.367366 0
-0.611342 0.129945 0
-0.611342 -0.129945 0
-0.505636 -0.367366 0
-0.3125 -0.541266 0
-0.0653303 -0.621576 0
0.193136 -0.59441 0
0.418207 -0.464466 0
0.570966 -0.25421 0
0.75 0 0
0.685159 0.305052 0
0.501848 0.557359 0
0.231763 0.713292 0
-0.0783963 0.745891 0
-0.375 0.649519 0
-0.606763 0.440839 0
-0.733611 0.155934 0
-0.733611 -0.155934 0
-0.606763 -0.440839 0
-0.375 -0.649519 0
-0.0783963 -0.745891 0
0.231763 -0.713292 0
0.501848 -0.557359 0
0.685159 -0.305052 0
0.875 0 0
0.799352 0.355895 0
0.585489 0.650252 0
0.27039 0.832174 0
-0.0914624 0.870207 0
-0.4375 0.757772 0
-0.70789 0.514312 0
-0.855879 0.181923 0
-0.855879 -0.181923 0
-0.70789 -0.514312 0
-0.4375 -0.757772 0
-0.0914624 -0.870207 0
0.27039 -0.832174 0
0.585489 -0.650252 0
0.799352 -0.355895 0
1 0 0
0.913545 0.406737 0
0.669131 0.743145 0
0.309017 0.951057 0
-0.104528 0.994522 0
-0.5 0.866025 0
-0.809017 0.587785 0
-0.978148 0.207912 0
-0.978148 -0.207912 0
-0.809017 -0.587785 0
-0.5 -0.866025 0
-0.104528 -0.994522 0
0.309017 -0.951057 0
0.669131 -0.743145 0
0.913545 -0.406737 0
CELLS 225 900
3 0 1 2
3 0 2 3
3 0 3 4
3 0 4 5
3 0 5 6
3 0 6 7
3 0 7 8
3 0 8 9
3 0 9 10
3 0 10 11
3 0 11 12
3 0 12 13
3 0 13 14
3 0 14 15
3 0 15 1
3 1 16 17
3 1 17 2
3 2 17 18
3 2 18 3
3 3 18 19
3 3 19 4
3 4 19 20
3 4 20 5
3 5 20 21
3 5 21 6
3 6 21 22
3 6 22 7
3 7 22 23
3 7 23 8
3 8 23 24
3 8 24 9
3 9 24 25
3 9 25 10
3 10 25 26
3 10 26 11
3 11 26 27
3 11 27 12
3 12 27 28
3 12 28 13
3 13 28 29
3 13 29 14
3 14 29 30
3 14 30 15
3 15 30 16
3 15 16 1
3 16 31 32
3 16 32 17
3 17 32 33
3 17 33 18
3 18 33 34
3 18 34 19
3 19 34 35
3 19 35 20
3 20 35 36
3 20 36 21
3 21 36 37
3 21 37 22
3 22 37 38
3 22 38 23
3 23 38 39
3 23 39 24
3 24 39 40
3 24 40 25
3 25 40 41
3 25 41 26
3 26 41 42
3 26 42 27
3 27 42 43
3 27 43 28
3 28 43 44
3 28 44 29
3 29 44 45
3 29 45 30
3 30 45 31
3 30 31 16
3 31 46 47
3 31 47 32
3 32 47 48
3 32 48 33
3 33 48 49
3 33 49 34
3 34 49 50
3 34 50 35
3 35 50 51
3 35 51 36
3 36 51 52
3 36 52 37
3 37 52 53
3 37 53 38
3 38 53 54
3 38 54 39
3 39 54 55
3 39 55 40
3 40 55 56
3 40 56 41
3 41 56 57
3 41 57 42
3 42 57 58
3 42 58 43
3 43 58 59
3 43 59 44
3 44 59 60
3 44 60 45
3 45 60 46
3 45 46 31
3 46 61 62
3 46 62 47
3 47 62 63
3 47 63 48
3 48 63 64
3 48 64 49
3 49 64 65
3 49 65 50
3 50 65 66
3 50 66 51
3 51 66 67
3 51 67 52
3 52 67 68
3 52 68 53
3 53 68 69
3 53 69 54
3 54 69 70
3 54 70 55
3 55 70 71
3 55 71 56
3 56 71 72
3 56 72 57
3 57 72 73
3 57 73 58
3 58 73 74
3 58 74 59
3 59 74 75
3 59 75 60
3 60 75 61
3 60 61 46
3 61 76 77
3 61 77 62
3 62 77 78
3 62 78 63
3 63 78 79
3 63 79 64
3 64 79 80
3 64 80 65
3 65 80 81
3 65 81 66
3 66 81 82
3 66 82 67
3 67 82 83
3 67 83 68
3 68 83 84
3 68 84 69
3 69 84 85
3 69 85 70
3 70 85 86
3 70 86 71
3 71 86 87
3 71 87 72
3 72 87 88
3 72 88 73
3 73 88 89
3 73 89 74
3 74 89 90
3 74 90 75
3 75 90 76
3 75 76 61
3 76 91 92
3 76 92 77
3 77 92 93
3 77 93 78
3 78 93 94
3 78 94 79
3 79 94 95
3 79 95 80
3 80 95 96
3 80 96 81
3 81 96 97
3 81 97 82
3 82 97 98
3 82 98 83
3 83 98 99
3 83 99 84
3 84 99 100
3 84 100 85
3 85 100 101
3 85 101 86
3 86 101 102
3 86 102 87
3 87 102 103
3 87 103 88
3 88 103 104
3 88 104 89
3 89 104 105
3 89 105 90
3 90 105 91
3 90 91 76
3 91 106 107
3 91 107 92
3 92 107 108
3 92 108 93
3 93 108 109
3 93 109 94
3 94 109 110
3 94 110 95
3 95 110 111
3 95 111 96
3 96 111 112
3 96 112 97
3 97 112 113
3 97 113 98
3 98 113 114
3 98 114 99
3 99 114 115
3 99 115 100
3 100 115 116
3 100 116 101
3 101 116 117
3 101 117 102
3 102 117 118
3 102 118 103
3 103 118 119
3 103 119 104
3 104 119 120
3 104 120 105
3 105 120 106
3 105 106 91
CELL_TYPES 225
5
5
5
5
5
5
5
5
5
5
5
5
5
5
5
5
5
5
5
5
5
5
5
5
5
5
5
5
5
5
5
5
5
5
5
5
5
5
5
5
5
5
5
5
5
5
5
5
5
5
5
5
5
5
5
5
5
5
5
5
5
5
5
5
5
5
5
5
5
5
5
5
5
5
5
5
5
5
5
5
5
5
5
5
5
5
5
5
5
5
5
5
5
5
5
5
5
5
5
5
5
5
5
5
5
5
5
5
5
5
5
5
5
5
5
5
5
5
5
5
5
5
5
5
5
5
5
5
5
5
5
5
5
5
5
5
5
5
5
5
5
5
5
5
5
5
5
5
5
5
5
5
5
5
5
5
5
5
5
5
5
5
5
5
5
5
5
5
5
5
5
5
5
5
5
5
5
5
5
5
5
5
5
5
5
5
5
5
5
5
5
5
5
5
5
5
5
5
5
5
5
5
5
5
5
5
5
5
5
5
5
5
5
5
5
5
5
5
5
5
5
5
5
5
5
CELL_DATA 225
VECTORS Et double
-0.243901 0.957877 0
-0.239969 0.960504 0
-0.23929 0.965183 0
-0.242313 0.968819 0
-0.247038 0.969006 0
-0.250338 0.965619 0
-0.250029 0.960901 0
-0.246316 0.957973 0
-0.241656 0.958773 0
-0.239132 0.962771 0
-0.240415 0.967323 0
-0.244656 0.969415 0
-0.249048 0.967663 0
-0.250685 0.963227 0
-0.248484 0.959042 0
-0.232266 0.909439 0
-0.242542 0.940401 0
-0.216345 0.921047 0
-0.236788 0.943461 0
-0.214317 0.940645 0
-0.235213 0.949785 0
-0.227525 0.955266 0
-0.238858 0.955187 0
-0.247228 0.955233 0
-0.245312 0.956093 0
-0.260388 0.94057 0
-0.250303 0.951903 0
-0.258297 0.920978 0
-0.25053 0.94539 0
-0.242337 0.909423 0
-0.245841 0.940864 0
-0.223072 0.913551 0
-0.23934 0.94132 0
-0.213248 0.93063 0
-0.235329 0.946456 0
-0.219367 0.949359 0
-0.236461 0.952873 0
-0.23738 0.957344 0
-0.241989 0.956326 0
-0.255367 0.9493 0
-0.248253 0.954529 0
-0.261425 0.930551 0
-0.251109 0.948671 0
-0.251545 0.913504 0
-0.248666 0.942629 0
-0.211065 0.825817 0
-0.231986 0.874694 0
-0.175203 0.852418 0
-0.211492 0.886035 0
-0.170975 0.896869 0
-0.206206 0.908853 0
-0.20118 0.929754 0
-0.219627 0.928049 0
-0.245829 0.929312 0
-0.242872 0.930921 0
-0.275377 0.895836 0
-0.260561 0.915567 0
-0.27027 0.851477 0
-0.260987 0.892149 0
-0.233889 0.825591 0
-0.243868 0.876162 0
-0.190307 0.835306 0
-0.220534 0.878186 0
-0.168365 0.874194 0
-0.206424 0.896882 0
-0.182583 0.916522 0
-0.210876 0.919877 0
-0.223552 0.934279 0
-0.230944 0.931955 0
-0.264161 0.915714 0
-0.253348 0.925124 0
-0.277538 0.873114 0
-0.263263 0.903903 0
-0.254831 0.834667 0
-0.254127 0.882336 0
-0.18148 0.710416 0
-0.214556 0.774544 0
-0.118716 0.757111 0
-0.171151 0.799092 0
-0.111419 0.834999 0
-0.160351 0.847773 0
-0.164419 0.892539 0
-0.189301 0.888374 0
-0.242643 0.891654 0
-0.238845 0.894027 0
-0.294328 0.83293 0
-0.276197 0.860991 0
-0.285271 0.755227 0
-0.27664 0.811128 0
-0.221466 0.709964 0
-0.239881 0.777433 0
-0.145136 0.727093 0
-0.190245 0.782205 0
-0.10679 0.795279 0
-0.160577 0.822285 0
-0.131804 0.869402 0
-0.170511 0.87115 0
-0.203625 0.90041 0
-0.213472 0.896466 0
-0.274727 0.867785 0
-0.261032 0.881479 0
-0.298057 0.793116 0
-0.281718 0.836107 0
-0.258179 0.725814 0
-0.261842 0.790374 0
-0.145249 0.567978 0
-0.190376 0.644173 0
-0.049896 0.638644 0
-0.117216 0.686317 0
-0.0386074 0.756789 0
-0.0995816 0.768885 0
-0.118853 0.844233 0
-0.149142 0.837239 0
-0.237532 0.843111 0
-0.233101 0.846146 0
-0.316108 0.754164 0
-0.2959 0.789712 0
-0.302587 0.636253 0
-0.295982 0.705282 0
-0.205914 0.567404 0
-0.233293 0.648726 0
-0.0900622 0.593177 0
-0.149317 0.65747 0
-0.0316954 0.696517 0
-0.0996236 0.725727 0
-0.0694368 0.80904 0
-0.117097 0.808329 0
-0.178312 0.856285 0
-0.190175 0.850616 0
-0.286273 0.806988 0
-0.270498 0.824603 0
-0.321879 0.693772 0
-0.304914 0.747506 0
-0.261567 0.591554 0
-0.270648 0.670342 0
-0.104535 0.404377 0
-0.159712 0.489157 0
0.0275311 0.501403 0
-0.0516861 0.552556 0
0.043796 0.664471 0
-0.0265173 0.675258 0
-0.0665035 0.785672 0
-0.100861 0.776065 0
-0.230378 0.784802 0
-0.225521 0.788271 0
-0.339385 0.662438 0
-0.318005 0.703797 0
-0.321391 0.499552 0
-0.317113 0.578544 0
-0.188303 0.403933 0
-0.223435 0.495396 0
-0.0281902 0.438854 0
-0.0989613 0.509376 0
0.0529941 0.581209 0
-0.0260612 0.611232 0
0.00152721 0.736794 0
-0.0529754 0.733563 0
-0.148533 0.802653 0
-0.161894 0.795417 0
-0.297886 0.735205 0
-0.280741 0.755863 0
-0.347699 0.579083 0
-0.330871 0.641076 0
-0.265009 0.437598 0
-0.279111 0.527014 0
-0.061812 0.226391 0
-0.122985 0.316173 0
0.109301 0.350484 0
0.0229611 0.403593 0
0.131579 0.560681 0
0.0556527 0.570547 0
-0.00972143 0.717886 0
-0.0465438 0.706556 0
-0.221095 0.71807 0
-0.216001 0.721617 0
-0.362669 0.561111 0
-0.340582 0.605764 0
-0.340757 0.350876 0
-0.337848 0.43566 0
-0.16986 0.226485 0
-0.209607 0.323871 0
0.0369331 0.270252 0
-0.0407212 0.344372 0
0.142779 0.453215 0
0.0570505 0.483595 0
0.077636 0.654301 0
0.0190092 0.649413 0
-0.115389 0.740442 0
-0.129672 0.732096 0
-0.308563 0.654637 0
-0.290604 0.676931 0
-0.374056 0.453665 0
-0.357293 0.520421 0
-0.268529 0.270518 0
-0.285608 0.366137 0
-0.0197271 0.0414351 0
-0.0807862 0.132721 0
0.190817 0.191511 0
0.103851 0.245899 0
0.220171 0.448395 0
0.143289 0.458842 0
0.0489098 0.642099 0
0.0114317 0.630637 0
-0.209636 0.64444 0
-0.204467 0.647601 0
-0.384377 0.45387 0
-0.361538 0.498508 0
-0.35968 0.196495 0
-0.355842 0.282019 0
-0.151888 0.0426319 0
-0.191147 0.141392 0
0.101495 0.0940965 0
0.0235606 0.169687 0
0.232795 0.316833 0
0.146201 0.348179 0
0.155127 0.563449 0
0.0956187 0.558753 0
-0.0801144 0.670748 0
-0.0947147 0.662064 0
-0.31726 0.567726 0
-0.298848 0.589748 0
-0.399382 0.322558 0
-0.381698 0.389658 0
-0.272136 0.0974799 0
-0.28844 0.194202 0
