# vtk DataFile Version 3.0
tp3485 cell-vector
ASCII
DATASET UNSTRUCTURED_GRID
POINTS 121 double
0 0 0
0.125 0 0
0.114193 0.0508421 0
0.0836413 0.0928931 0
0.0386271 0.118882 0
-0.0130661 0.124315 0
-0.0625 0.108253 0
-0.101127 0.0734732 0
-0.122268 0.025989 0
-0.122268 -0.025989 0
-0.101127 -0.0734732 0
-0.0625 -0.108253 0
-0.0130661 -0.124315 0
0.0386271 -0.118882 0
0.0836413 -0.0928931 0
0.114193 -0.0508421 0
0.25 0 0
0.228386 0.101684 0
0.167283 0.185786 0
0.0772542 0.237764 0
-0.0261321 0.24863 0
-0.125 0.216506 0
-0.202254 0.146946 0
-0.244537 0.0519779 0
-0.244537 -0.0519779 0
-0.202254 -0.146946 0
-0.125 -0.216506 0
-0.0261321 -0.24863 0
0.0772542 -0.237764 0
0.167283 -0.185786 0
0.228386 -0.101684 0
0.375 0 0
0.34258 0.152526 0
0.250924 0.278679 0
0.115881 0.356646 0
-0.0391982 0.372946 0
-0.1875 0.32476 0
-0.303381 0.220419 0
-0.366805 0.0779669 0
-0.366805 -0.0779669 0
-0.303381 -0.220419 0
-0.1875 -0.32476 0
-0.0391982 -0.372946 0
0.115881 -0.356646 0
0.250924 -0.278679 0
0.34258 -0.152526 0
0.5 0 0
0.456773 0.203368 0
0.334565 0.371572 0
0.154508 0.475528 0
-0.0522642 0.497261 0
-0.25 0.433013 0
-0.404508 0.293893 0
-0.489074 0.103956 0
-0.489074 -0.103956 0
-0.404508 -0.293893 0
-0.25 -0.433013 0
-0.0522642 -0.497261 0
0.154508 -0.475528 0
0.334565 -0.371572 0
0.456773 -0.203368 0
0.625 0 0
0.570966 0.25421 0
0.418207 0.464466 0
0.193136 0.59441 0
-0.0653303 0.621576 0
-0.3125 0.541266 0
-0.505636 0.367366 0
-0.611342 0.129945 0
-0.611342 -0.129945 0
-0.505636 -0.367366 0
-0.3125 -0.541266 0
-0.0653303 -0.621576 0
0.193136 -0.59441 0
0.418207 -0.464466 0
0.570966 -0.25421 0
0.75 0 0
0.685159 0.305052 0
0.501848 0.557359 0
0.231763 0.713292 0
-0.0783963 0.745891 0
-0.375 0.649519 0
-0.606763 0.440839 0
-0.733611 0.155934 0
-0.733611 -0.155934 0
-0.606763 -0.440839 0
-0.375 -0.649519 0
-0.0783963 -0.745891 0
0.231763 -0.713292 0
0.501848 -0.557359 0
0.685159 -0.305052 0
0.875 0 0
0.799352 0.355895 0
0.585489 0.650252 0
0.27039 0.832174 0
-0.0914624 0.870207 0
-0.4375 0.757772 0
-0.70789 0.514312 0
-0.855879 0.181923 0
-0.855879 -0.181923 0
-0.70789 -0.514312 0
-0.4375 -0.757772 0
-0.0914624 -0.870207 0
0.27039 -0.832174 0
0.585489 -0.650252 0
0.799352 -0.355895 0
1 0 0
0.913545 0.406737 0
0.669131 0.743145 0
0.309017 0.951057 0
-0.104528 0.994522 0
-0.5 0.866025 0
-0.809017 0.587785 0
-0.978148 0.207912 0
-0.978148 -0.207912 0
-0.809017 -0.587785 0
-0.5 -0.866025 0
-0.104528 -0.994522 0
0.309017 -0.951057 0
0.669131 -0.743145 0
0.913545 -0.406737 0
CELLS 225 900
3 0 1 2
3 0 2 3
3 0 3 4
3 0 4 5
3 0 5 6
3 0 6 7
3 0 7 8
3 0 8 9
3 0 9 10
3 0 10 11
3 0 11 12
3 0 12 13
3 0 13 14
3 0 14 15
3 0 15 1
3 1 16 17
3 1 17 2
3 2 17 18
3 2 18 3
3 3 18 19
3 3 19 4
3 4 19 20
3 4 20 5
3 5 20 21
3 5 21 6
3 6 21 22
3 6 22 7
3 7 22 23
3 7 23 8
3 8 23 24
3 8 24 9
3 9 24 25
3 9 25 10
3 10 25 26
3 10 26 11
3 11 26 27
3 11 27 12
3 12 27 28
3 12 28 13
3 13 28 29
3 13 29 14
3 14 29 30
3 14 30 15
3 15 30 16
3 15 16 1
3 16 31 32
3 16 32 17
3 17 32 33
3 17 33 18
3 18 33 34
3 18 34 19
3 19 34 35
3 19 35 20
3 20 35 36
3 20 36 21
3 21 36 37
3 21 37 22
3 22 37 38
3 22 38 23
3 23 38 39
3 23 39 24
3 24 39 40
3 24 40 25
3 25 40 41
3 25 41 26
3 26 41 42
3 26 42 27
3 27 42 43
3 27 43 28
3 28 43 44
3 28 44 29
3 29 44 45
3 29 45 30
3 30 45 31
3 30 31 16
3 31 46 47
3 31 47 32
3 32 47 48
3 32 48 33
3 33 48 49
3 33 49 34
3 34 49 50
3 34 50 35
3 35 50 51
3 35 51 36
3 36 51 52
3 36 52 37
3 37 52 53
3 37 53 38
3 38 53 54
3 38 54 39
3 39 54 55
3 39 55 40
3 40 55 56
3 40 56 41
3 41 56 57
3 41 57 42
3 42 57 58
3 42 58 43
3 43 58 59
3 43 59 44
3 44 59 60
3 44 60 45
3 45 60 46
3 45 46 31
3 46 61 62
3 46 62 47
3 47 62 63
3 47 63 48
3 48 63 64
3 48 64 49
3 49 64 65
3 49 65 50
3 50 65 66
3 50 66 51
3 51 66 67
3 51 67 52
3 52 67 68
3 52 68 53
3 53 68 69
3 53 69 54
3 54 69 70
3 54 70 55
3 55 70 71
3 55 71 56
3 56 71 72
3 56 72 57
3 57 72 73
3 57 73 58
3 58 73 74
3 58 74 59
3 59 74 75
3 59 75 60
3 60 75 61
3 60 61 46
3 61 76 77
3 61 77 62
3 62 77 78
3 62 78 63
3 63 78 79
3 63 79 64
3 64 79 80
3 64 80 65
3 65 80 81
3 65 81 66
3 66 81 82
3 66 82 67
3 67 82 83
3 67 83 68
3 68 83 84
3 68 84 69
3 69 84 85
3 69 85 70
3 70 85 86
3 70 86 71
3 71 86 87
3 71 87 72
3 72 87 88
3 72 88 73
3 73 88 89
3 73 89 74
3 74 89 90
3 74 90 75
3 75 90 76
3 75 76 61
3 76 91 92
3 76 92 77
3 77 92 93
3 77 93 78
3 78 93 94
3 78 94 79
3 79 94 95
3 79 95 80
3 80 95 96
3 80 96 81
3 81 96 97
3 81 97 82
3 82 97 98
3 82 98 83
3 83 98 99
3 83 99 84
3 84 99 100
3 84 100 85
3 85 100 101
3 85 101 86
3 86 101 102
3 86 102 87
3 87 102 103
3 87 103 88
3 88 103 104
3 88 104 89
3 89 104 105
3 89 105 90
3 90 105 91
3 90 91 76
3 91 106 107
3 91 107 92
3 92 107 108
3 92 108 93
3 93 108 109
3 93 109 94
3 94 109 110
3 94 110 95
3 95 110 111
3 95 111 96
3 96 111 112
3 96 112 97
3 97 112 113
3 97 113 98
3 98 113 114
3 98 114 99
3 99 114 115
3 99 115 100
3 100 115 116
3 100 116 101
3 101 116 117
3 101 117 102
3 102 117 118
3 102 118 103
3 103 118 119
3 103 119 104
3 104 119 120
3 104 120 105
3 105 120 106
3 105 106 91
CELL_TYPES 225
5
5
5
5
5
5
5
5
5
5
5
5
5
5
5
5
5
5
5
5
5
5
5
5
5
5
5
5
5
5
5
5
5
5
5
5
5
5
5
5
5
5
5
5
5
5
5
5
5
5
5
5
5
5
5
5
5
5
5
5
5
5
5
5
5
5
5
5
5
5
5
5
5
5
5
5
5
5
5
5
5
5
5
5
5
5
5
5
5
5
5
5
5
5
5
5
5
5
5
5
5
5
5
5
5
5
5
5
5
5
5
5
5
5
5
5
5
5
5
5
5
5
5
5
5
5
5
5
5
5
5
5
5
5
5
5
5
5
5
5
5
5
5
5
5
5
5
5
5
5
5
5
5
5
5
5
5
5
5
5
5
5
5
5
5
5
5
5
5
5
5
5
5
5
5
5
5
5
5
5
5
5
5
5
5
5
5
5
5
5
5
5
5
5
5
5
5
5
5
5
5
5
5
5
5
5
5
5
5
5
5
5
5
5
5
5
5
5
5
5
5
5
5
5
5
CELL_DATA 225
VECTORS Et double
0.00522371 0.054889 0
0.037598 -0.0176563 0
0.0629614 -0.0411274 0
0.00760749 -0.0235199 0
-0.0624854 -0.0306369 0
-0.0501471 -0.0229206 0
-0.00350818 0.0413889 0
0.00413667 0.0750899 0
0.0165651 0.0183482 0
0.0577751 -0.0387955 0
0.0449234 -0.0319684 0
-0.0340898 -0.0237326 0
-0.0670981 -0.0339625 0
-0.0241726 0.00517168 0
0.00471039 0.0694324 0
0.0290361 0.1742 0
0.127099 0.0789828 0
0.167619 -0.0147954 0
0.081135 0.0169312 0
0.208385 -0.104359 0
0.015203 -0.117347 0
0.0207333 -0.121203 0
-0.00362546 -0.134057 0
-0.174816 -0.14825 0
-0.065727 -0.0093776 0
-0.16538 -0.0619542 0
-0.13195 0.0705792 0
-0.0709965 0.15256 0
-0.0552304 0.0617994 0
-0.0138151 0.232646 0
0.0940244 0.0718399 0
0.0945985 0.0785573 0
0.11791 0.0638889 0
0.215797 -0.0772702 0
0.0409847 -0.0522324 0
0.136344 -0.112246 0
0.0048518 -0.149562 0
-0.0966229 -0.137765 0
-0.0259046 -0.0787306 0
-0.19457 -0.128287 0
-0.109227 0.0455076 0
-0.115332 0.0426461 0
-0.114284 0.0701684 0
-0.0409803 0.22552 0
0.0247423 0.06161 0
0.0724754 0.325375 0
0.277279 0.217535 0
0.362794 0.0196047 0
0.211848 0.0293763 0
0.393211 -0.169311 0
0.0883499 -0.281778 0
0.0363813 -0.279476 0
0.00079188 -0.313974 0
-0.298137 -0.327569 0
-0.189147 -0.0541816 0
-0.31802 -0.0999218 0
-0.327031 0.131363 0
-0.198375 0.304386 0
-0.131365 0.168778 0
-0.049978 0.425186 0
0.199852 0.217402 0
0.223842 0.171245 0
0.271514 0.157673 0
0.432752 -0.0944102 0
0.141496 -0.136715 0
0.245545 -0.225453 0
0.0497517 -0.348898 0
-0.164419 -0.323991 0
-0.0804834 -0.198154 0
-0.343233 -0.255875 0
-0.288202 0.0643759 0
-0.260224 0.108231 0
-0.272305 0.156301 0
-0.134614 0.421979 0
0.0476507 0.190897 0
0.135372 0.464243 0
0.44654 0.377973 0
0.574909 0.0871265 0
0.372686 0.0562606 0
0.557112 -0.21753 0
0.178372 -0.459308 0
0.0492869 -0.468312 0
0.00860305 -0.529093 0
-0.388886 -0.520479 0
-0.322827 -0.121784 0
-0.469732 -0.114886 0
-0.550604 0.197728 0
-0.362908 0.454322 0
-0.235066 0.294625 0
-0.0901697 0.591238 0
0.308586 0.384129 0
0.380927 0.27684 0
0.453906 0.271997 0
0.645191 -0.0765455 0
0.266882 -0.218685 0
0.33436 -0.349357 0
0.104065 -0.575701 0
-0.212001 -0.541449 0
-0.13762 -0.350886 0
-0.466942 -0.373708 0
-0.486958 0.0751789 0
-0.430214 0.191472 0
-0.462509 0.257096 0
-0.256305 0.597025 0
0.0559458 0.340469 0
0.216373 0.546826 0
0.604909 0.508991 0
0.756807 0.185666 0
0.529472 0.108436 0
0.642212 -0.231623 0
0.245174 -0.595796 0
0.052393 -0.65599 0
0.0144927 -0.740789 0
-0.407371 -0.679474 0
-0.412416 -0.198142 0
-0.581752 -0.0860287 0
-0.743254 0.269371 0
-0.539195 0.562581 0
-0.358644 0.404318 0
-0.120515 0.671984 0
0.393388 0.510225 0
0.541907 0.373369 0
0.634295 0.382945 0
0.792127 -0.0130571 0
0.377804 -0.258092 0
0.365379 -0.460798 0
0.138345 -0.778362 0
-0.217612 -0.748248 0
-0.170828 -0.512754 0
-0.521698 -0.440361 0
-0.638562 0.0855711 0
-0.5943 0.282621 0
-0.648788 0.357843 0
-0.384756 0.692531 0
0.0346122 0.456234 0
0.309286 0.538377 0
0.724904 0.563782 0
0.868384 0.306366 0
0.647765 0.18929 0
0.606418 -0.198822 0
0.252063 -0.646245 0
0.0389761 -0.81015 0
0.0119966 -0.909552 0
-0.327867 -0.765233 0
-0.413503 -0.265416 0
-0.620891 -0.00133923 0
-0.850701 0.345894 0
-0.699513 0.598859 0
-0.487813 0.466336 0
-0.131024 0.624584 0
0.433633 0.541415 0
0.682122 0.438829 0
0.781697 0.465165 0
0.826645 0.098675 0
0.436608 -0.225396 0
0.311605 -0.537038 0
0.125797 -0.909676 0
-0.168871 -0.905225 0
-0.159953 -0.655626 0
-0.475394 -0.425762 0
-0.685696 0.10483 0
-0.721098 0.371321 0
-0.793693 0.444387 0
-0.498777 0.666558 0
-0.0231055 0.490812 0
0.400673 0.422108 0
0.78555 0.510472 0
0.883223 0.432623 0
0.697406 0.291268 0
0.435502 -0.113922 0
0.174258 -0.585588 0
0.00503265 -0.900689 0
-0.0046119 -0.999989 0
-0.146814 -0.754679 0
-0.303007 -0.303419 0
-0.565893 0.13594 0
-0.834857 0.425071 0
-0.816274 0.548582 0
-0.600948 0.458337 0
-0.119092 0.434117 0
0.420005 0.443705 0
0.777503 0.454703 0
0.868322 0.496001 0
0.726978 0.250195 0
0.414272 -0.110702 0
0.165219 -0.558047 0
0.0493064 -0.935542 0
-0.0669492 -0.981205 0
-0.0964575 -0.749605 0
-0.31641 -0.320195 0
-0.594262 0.141882 0
-0.782536 0.445986 0
-0.86371 0.503989 0
-0.580164 0.504484 0
-0.111266 0.414121 0
0.469449 0.205444 0
0.775867 0.341189 0
0.793353 0.541064 0
0.657515 0.394858 0
0.15047 0.0185793 0
0.00637255 -0.41666 0
-0.048483 -0.903304 0
-0.0381903 -0.986485 0
0.112819 -0.646448 0
-0.0874851 -0.292508 0
-0.412644 0.303832 0
-0.683412 0.501326 0
-0.865251 0.416532 0
-0.670714 0.371996 0
-0.0913251 0.121021 0
0.357652 0.213849 0
0.806525 0.409664 0
0.873416 0.460169 0
0.50343 0.420928 0
0.297062 0.0704895 0
-0.0568047 -0.509276 0
-0.0924553 -0.842515 0
0.0718983 -0.957596 0
0.0131993 -0.766853 0
-0.0591448 -0.1396 0
-0.364024 0.202811 0
-0.758042 0.493639 0
-0.835226 0.526316 0
-0.61625 0.225519 0
-0.209577 0.222018 0
