# vtk DataFile Version 3.0
tp3485 cell-vector
ASCII
DATASET UNSTRUCTURED_GRID
POINTS 121 double
0 0 0
0.125 0 0
0.114193 0.0508421 0
0.0836413 0.0928931 0
0.0386271 0.118882 0
-0.0130661 0.124315 0
-0.0625 0.108253 0
-0.101127 0.0734732 0
-0.122268 0.025989 0
-0.122268 -0.025989 0
-0.101127 -0.0734732 0
-0.0625 -0.108253 0
-0.0130661 -0.124315 0
0.0386271 -0.118882 0
0.0836413 -0.0928931 0
0.114193 -0.0508421 0
0.25 0 0
0.228386 0.101684 0
0.167283 0.185786 0
0.0772542 0.237764 0
-0.0261321 0.24863 0
-0.125 0.216506 0
-0.202254 0.146946 0
-0.244537 0.0519779 0
-0.244537 -0.0519779 0
-0.202254 -0.146946 0
-0.125 -0.216506 0
-0.0261321 -0.24863 0
0.0772542 -0.237764 0
0.167283 -0.185786 0
0.228386 -0.101684 0
0.375 0 0
0.34258 0.152526 0
0.250924 0.278679 0
0.115881 0.356646 0
-0.0391982 0.372946 0
-0.1875 0.32476 0
-0.303381 0.220419 0
-0.366805 0.0779669 0
-0.366805 -0.0779669 0
-0.303381 -0.220419 0
-0.1875 -0.32476 0
-0.0391982 -0.372946 0
0.115881 -0.356646 0
0.250924 -0.278679 0
0.34258 -0.152526 0
0.5 0 0
0.456773 0.203368 0
0.334565 0.371572 0
0.154508 0.475528 0
-0.0522642 0.497261 0
-0.25 0.433013 0
-0.404508 0.293893 0
-0.489074 0.103956 0
-0.489074 -0.103956 0
-0.404508 -0.293893 0
-0.25 -0.433013 0
-0.0522642 -0.497261 0
0.154508 -0.475528 0
0.334565 -0.371572 0
0.456773 -0.203368 0
0.625 0 0
0.570966 0.25421 0
0.418207 0.464466 0
0.193136 0.59441 0
-0.0653303 0.621576 0
-0.3125 0.541266 0
-0.505636 0.367366 0
-0.611342 0.129945 0
-0.611342 -0.129945 0
-0.505636 -0.367366 0
-0.3125 -0.541266 0
-0.0653303 -0.621576 0
0.193136 -0.59441 0
0.418207 -0.464466 0
0.570966 -0.25421 0
0.75 0 0
0.685159 0.305052 0
0.501848 0.557359 0
0.231763 0.713292 0
-0.0783963 0.745891 0
-0.375 0.649519 0
-0.606763 0.440839 0
-0.733611 0.155934 0
-0.733611 -0.155934 0
-0.606763 -0.440839 0
-0.375 -0.649519 0
-0.0783963 -0.745891 0
0.231763 -0.713292 0
0.501848 -0.557359 0
0.685159 -0.305052 0
0.875 0 0
0.799352 0.355895 0
0.585489 0.650252 0
0.27039 0.832174 0
-0.0914624 0.870207 0
-0.4375 0.757772 0
-0.70789 0.514312 0
-0.855879 0.181923 0
-0.855879 -0.181923 0
-0.70789 -0.514312 0
-0.4375 -0.757772 0
-0.0914624 -0.870207 0
0.27039 -0.832174 0
0.585489 -0.650252 0
0.799352 -0.355895 0
1 0 0
0.913545 0.406737 0
0.669131 0.743145 0
0.309017 0.951057 0
-0.104528 0.994522 0
-0.5 0.866025 0
-0.809017 0.587785 0
-0.978148 0.207912 0
-0.978148 -0.207912 0
-0.809017 -0.587785 0
-0.5 -0.866025 0
-0.104528 -0.994522 0
0.309017 -0.951057 0
0.669131 -0.743145 0
0.913545 -0.406737 0
CELLS 225 900
3 0 1 2
3 0 2 3
3 0 3 4
3 0 4 5
3 0 5 6
3 0 6 7
3 0 7 8
3 0 8 9
3 0 9 10
3 0 10 11
3 0 11 12
3 0 12 13
3 0 13 14
3 0 14 15
3 0 15 1
3 1 16 17
3 1 17 2
3 2 17 18
3 2 18 3
3 3 18 19
3 3 19 4
3 4 19 20
3 4 20 5
3 5 20 21
3 5 21 6
3 6 21 22
3 6 22 7
3 7 22 23
3 7 23 8
3 8 23 24
3 8 24 9
3 9 24 25
3 9 25 10
3 10 25 26
3 10 26 11
3 11 26 27
3 11 27 12
3 12 27 28
3 12 28 13
3 13 28 29
3 13 29 14
3 14 29 30
3 14 30 15
3 15 30 16
3 15 16 1
3 16 31 32
3 16 32 17
3 17 32 33
3 17 33 18
3 18 33 34
3 18 34 19
3 19 34 35
3 19 35 20
3 20 35 36
3 20 36 21
3 21 36 37
3 21 37 22
3 22 37 38
3 22 38 23
3 23 38 39
3 23 39 24
3 24 39 40
3 24 40 25
3 25 40 41
3 25 41 26
3 26 41 42
3 26 42 27
3 27 42 43
3 27 43 28
3 28 43 44
3 28 44 29
3 29 44 45
3 29 45 30
3 30 45 31
3 30 31 16
3 31 46 47
3 31 47 32
3 32 47 48
3 32 48 33
3 33 48 49
3 33 49 34
3 34 49 50
3 34 50 35
3 35 50 51
3 35 51 36
3 36 51 52
3 36 52 37
3 37 52 53
3 37 53 38
3 38 53 54
3 38 54 39
3 39 54 55
3 39 55 40
3 40 55 56
3 40 56 41
3 41 56 57
3 41 57 42
3 42 57 58
3 42 58 43
3 43 58 59
3 43 59 44
3 44 59 60
3 44 60 45
3 45 60 46
3 45 46 31
3 46 61 62
3 46 62 47
3 47 62 63
3 47 63 48
3 48 63 64
3 48 64 49
3 49 64 65
3 49 65 50
3 50 65 66
3 50 66 51
3 51 66 67
3 51 67 52
3 52 67 68
3 52 68 53
3 53 68 69
3 53 69 54
3 54 69 70
3 54 70 55
3 55 70 71
3 55 71 56
3 56 71 72
3 56 72 57
3 57 72 73
3 57 73 58
3 58 73 74
3 58 74 59
3 59 74 75
3 59 75 60
3 60 75 61
3 60 61 46
3 61 76 77
3 61 77 62
3 62 77 78
3 62 78 63
3 63 78 79
3 63 79 64
3 64 79 80
3 64 80 65
3 65 80 81
3 65 81 66
3 66 81 82
3 66 82 67
3 67 82 83
3 67 83 68
3 68 83 84
3 68 84 69
3 69 84 85
3 69 85 70
3 70 85 86
3 70 86 71
3 71 86 87
3 71 87 72
3 72 87 88
3 72 88 73
3 73 88 89
3 73 89 74
3 74 89 90
3 74 90 75
3 75 90 76
3 75 76 61
3 76 91 92
3 76 92 77
3 77 92 93
3 77 93 78
3 78 93 94
3 78 94 79
3 79 94 95
3 79 95 80
3 80 95 96
3 80 96 81
3 81 96 97
3 81 97 82
3 82 97 98
3 82 98 83
3 83 98 99
3 83 99 84
3 84 99 100
3 84 100 85
3 85 100 101
3 85 101 86
3 86 101 102
3 86 102 87
3 87 102 103
3 87 103 88
3 88 103 104
3 88 104 89
3 89 104 105
3 89 105 90
3 90 105 91
3 90 91 76
3 91 106 107
3 91 107 92
3 92 107 108
3 92 108 93
3 93 108 109
3 93 109 94
3 94 109 110
3 94 110 95
3 95 110 111
3 95 111 96
3 96 111 112
3 96 112 97
3 97 112 113
3 97 113 98
3 98 113 114
3 98 114 99
3 99 114 115
3 99 115 100
3 100 115 116
3 100 116 101
3 101 116 117
3 101 117 102
3 102 117 118
3 102 118 103
3 103 118 119
3 103 119 104
3 104 119 120
3 104 120 105
3 105 120 106
3 105 106 91
CELL_TYPES 225
5
5
5
5
5
5
5
5
5
5
5
5
5
5
5
5
5
5
5
5
5
5
5
5
5
5
5
5
5
5
5
5
5
5
5
5
5
5
5
5
5
5
5
5
5
5
5
5
5
5
5
5
5
5
5
5
5
5
5
5
5
5
5
5
5
5
5
5
5
5
5
5
5
5
5
5
5
5
5
5
5
5
5
5
5
5
5
5
5
5
5
5
5
5
5
5
5
5
5
5
5
5
5
5
5
5
5
5
5
5
5
5
5
5
5
5
5
5
5
5
5
5
5
5
5
5
5
5
5
5
5
5
5
5
5
5
5
5
5
5
5
5
5
5
5
5
5
5
5
5
5
5
5
5
5
5
5
5
5
5
5
5
5
5
5
5
5
5
5
5
5
5
5
5
5
5
5
5
5
5
5
5
5
5
5
5
5
5
5
5
5
5
5
5
5
5
5
5
5
5
5
5
5
5
5
5
5
5
5
5
5
5
5
5
5
5
5
5
5
5
5
5
5
5
5
CELL_DATA 225
VECTORS Et double
0.00185625 0.177993 0
0.0894001 -0.0148979 0
0.185253 -0.106418 0
0.0604536 -0.0699842 0
-0.151318 -0.0907786 0
-0.155074 -0.0873889 0
-0.0317981 0.0848717 0
-0.000465597 0.213643 0
0.0303813 0.0873465 0
0.154276 -0.0856558 0
0.153218 -0.090604 0
-0.057602 -0.0699738 0
-0.184787 -0.107225 0
-0.0908349 -0.0173623 0
-0.0029577 0.176434 0
0.0160682 0.474451 0
0.309104 0.221787 0
0.370289 0.083239 0
0.247172 0.119927 0
0.529976 -0.189331 0
0.0673954 -0.248269 0
0.160906 -0.304549 0
0.0241933 -0.387163 0
-0.327919 -0.398662 0
-0.118613 -0.0964713 0
-0.418921 -0.22331 0
-0.346625 0.156799 0
-0.257232 0.27906 0
-0.227446 0.154094 0
-0.101022 0.553638 0
0.18131 0.182501 0
0.183295 0.291623 0
0.323196 0.214534 0
0.509211 -0.0846551 0
0.142853 -0.0544861 0
0.402852 -0.251141 0
0.0375207 -0.378586 0
-0.113057 -0.362299 0
-0.0197264 -0.274021 0
-0.428954 -0.364307 0
-0.248705 0.0657685 0
-0.3442 0.0129262 0
-0.34739 0.172629 0
-0.181292 0.483317 0
-0.0242402 0.150957 0
0.075267 0.63542 0
0.550998 0.491585 0
0.67505 0.288283 0
0.533078 0.267498 0
0.730513 -0.148657 0
0.230363 -0.453373 0
0.212357 -0.594856 0
0.0861224 -0.773213 0
-0.329851 -0.725881 0
-0.248072 -0.282736 0
-0.587924 -0.252527 0
-0.701225 0.231386 0
-0.587185 0.440469 0
-0.498199 0.32791 0
-0.236516 0.706971 0
0.277451 0.426187 0
0.408982 0.481335 0
0.62656 0.46119 0
0.793557 0.0772811 0
0.368892 -0.0734685 0
0.512657 -0.382893 0
0.150226 -0.722971 0
-0.0878647 -0.728751 0
-0.0348785 -0.595408 0
-0.493997 -0.558314 0
-0.507814 0.0271859 0
-0.621339 0.113521 0
-0.712683 0.312022 0
-0.463706 0.6486 0
-0.120821 0.356205 0
0.19546 0.449231 0
0.660288 0.533625 0
0.812546 0.50495 0
0.711876 0.432371 0
0.534888 0.0435015 0
0.24798 -0.424688 0
0.122615 -0.782697 0
0.0917438 -0.995783 0
-0.0596011 -0.837697 0
-0.17942 -0.439272 0
-0.486776 -0.0553419 0
-0.792277 0.305013 0
-0.843572 0.451211 0
-0.730382 0.400317 0
-0.305117 0.441476 0
0.2438 0.427101 0
0.616528 0.497536 0
0.816501 0.577344 0
0.755267 0.367232 0
0.470131 0.0642539 0
0.291315 -0.393889 0
0.131989 -0.838639 0
0.0310262 -0.95616 0
0.0185068 -0.832688 0
-0.22977 -0.484977 0
-0.49178 -0.00241339 0
-0.739143 0.285161 0
-0.908245 0.418439 0
-0.695666 0.470465 0
-0.290711 0.375019 0
0.312817 -0.06985 0
0.587234 0.18986 0
0.695485 0.594525 0
0.639344 0.510896 0
-0.018002 0.324769 0
-0.0192958 -0.114271 0
-0.115356 -0.735821 0
-0.030304 -0.88635 0
0.373235 -0.648379 0
0.13369 -0.417251 0
-0.0959168 0.305833 0
-0.45804 0.41363 0
-0.862616 0.305045 0
-0.762121 0.29824 0
-0.272257 -0.177975 0
0.10861 0.0404249 0
0.694917 0.268009 0
0.782754 0.416931 0
0.374895 0.64742 0
0.294505 0.324404 0
-0.216901 -0.235983 0
-0.129194 -0.60349 0
0.167131 -0.89957 0
0.122777 -0.809137 0
0.290259 -0.146794 0
-0.0893139 0.0738463 0
-0.579562 0.467811 0
-0.75245 0.469419 0
-0.74813 0.000958609 0
-0.428195 0.0928468 0
0.284965 -0.624437 0
0.399741 -0.396218 0
0.363667 0.442785 0
0.293783 0.382684 0
-0.560705 0.547474 0
-0.492253 0.257971 0
-0.368485 -0.398381 0
-0.254965 -0.452479 0
0.674134 -0.267202 0
0.490881 -0.126364 0
0.398296 0.559005 0
0.143265 0.544294 0
-0.565296 0.0935523 0
-0.478306 0.0630817 0
-0.193774 -0.759322 0
0.0227171 -0.555289 0
0.52925 -0.119927 0
0.519341 0.00543356 0
-0.105663 0.717418 0
-0.136006 0.488297 0
-0.683261 0.0654318 0
-0.543005 -0.148076 0
0.201629 -0.536337 0
0.184523 -0.445766 0
0.754479 0.211847 0
0.469536 0.297318 0
-0.160765 0.518308 0
-0.264376 0.447046 0
-0.568471 -0.450216 0
-0.354875 -0.361933 0
0.00131562 -0.774113 0
0.241423 -0.803049 0
-0.0514971 0.0632331 0
-0.177103 0.0314888 0
-0.621129 0.539761 0
-0.866234 0.331191 0
-0.404925 0.144571 0
-0.430426 0.0797831 0
0.551774 0.0802545 0
0.562672 0.358973 0
0.669743 0.388196 0
0.574749 0.610603 0
-0.029013 -0.0762144 0
0.0612813 -0.16912 0
-0.156882 -0.807794 0
0.146297 -0.915776 0
0.0772599 -0.422961 0
0.146119 -0.412651 0
-0.345389 0.437723 0
-0.592216 0.307801 0
-0.671059 0.385917 0
-0.816172 0.192446 0
0.0805101 0.0129812 0
0.115822 0.137631 0
0.778011 0.268033 0
0.719937 0.584585 0
0.327665 0.278389 0
0.284307 0.332868 0
-0.206384 -0.517977 0
0.0295441 -0.666775 0
-0.427167 -0.270596 0
0.202431 -0.601979 0
-0.384822 -0.326103 0
-0.486255 -0.337271 0
-0.0505581 0.217657 0
-0.772568 -0.0602901 0
-0.0681047 0.614364 0
-0.346312 0.35879 0
0.00269178 0.221682 0
0.186425 0.729991 0
0.447927 -0.234639 0
0.420114 0.4763 0
0.474824 -0.170214 0
0.535213 -0.252473 0
-0.163218 -0.152613 0
0.438497 -0.638919 0
-0.498003 -0.366163 0
-0.137566 -0.47931 0
-0.193328 -0.10851 0
-0.725403 -0.203547 0
-0.0207596 0.505236 0
-0.622545 0.125679 0
-0.0900023 0.496317 0
-0.0489582 0.589745 0
0.213776 -0.0650441 0
0.334071 0.699209 0
0.566107 -0.248202 0
0.483878 0.12052 0
0.190636 -0.113172 0
0.538978 -0.526444 0
