# vtk DataFile Version 3.0
tp3485 cell-vector
ASCII
DATASET UNSTRUCTURED_GRID
POINTS 121 double
0 0 0
0.125 0 0
0.114193 0.0508421 0
0.0836413 0.0928931 0
0.0386271 0.118882 0
-0.0130661 0.124315 0
-0.0625 0.108253 0
-0.101127 0.0734732 0
-0.122268 0.025989 0
-0.122268 -0.025989 0
-0.101127 -0.0734732 0
-0.0625 -0.108253 0
-0.0130661 -0.124315 0
0.0386271 -0.118882 0
0.0836413 -0.0928931 0
0.114193 -0.0508421 0
0.25 0 0
0.228386 0.101684 0
0.167283 0.185786 0
0.0772542 0.237764 0
-0.0261321 0.24863 0
-0.125 0.216506 0
-0.202254 0.146946 0
-0.244537 0.0519779 0
-0.244537 -0.0519779 0
-0.202254 -0.146946 0
-0.125 -0.216506 0
-0.0261321 -0.24863 0
0.0772542 -0.237764 0
0.167283 -0.185786 0
0.228386 -0.101684 0
0.375 0 0
0.34258 0.152526 0
0.250924 0.278679 0
0.115881 0.356646 0
-0.0391982 0.372946 0
-0.1875 0.32476 0
-0.303381 0.220419 0
-0.366805 0.0779669 0
-0.366805 -0.0779669 0
-0.303381 -0.220419 0
-0.1875 -0.32476 0
-0.0391982 -0.372946 0
0.115881 -0.356646 0
0.250924 -0.278679 0
0.34258 -0.152526 0
0.5 0 0
0.456773 0.203368 0
0.334565 0.371572 0
0.154508 0.475528 0
-0.0522642 0.497261 0
-0.25 0.433013 0
-0.404508 0.293893 0
-0.489074 0.103956 0
-0.489074 -0.103956 0
-0.404508 -0.293893 0
-0.25 -0.433013 0
-0.0522642 -0.497261 0
0.154508 -0.475528 0
0.334565 -0.371572 0
0.456773 -0.203368 0
0.625 0 0
0.570966 0.25421 0
0.418207 0.464466 0
0.193136 0.59441 0
-0.0653303 0.621576 0
-0.3125 0.541266 0
-0.505636 0.367366 0
-0.611342 0.129945 0
-0.611342 -0.129945 0
-0.505636 -0.367366 0
-0.3125 -0.541266 0
-0.0653303 -0.621576 0
0.193136 -0.59441 0
0.418207 -0.464466 0
0.570966 -0.25421 0
0.75 0 0
0.685159 0.305052 0
0.501848 0.557359 0
0.231763 0.713292 0
-0.0783963 0.745891 0
-0.375 0.649519 0
-0.606763 0.440839 0
-0.733611 0.155934 0
-0.733611 -0.155934 0
-0.606763 -0.440839 0
-0.375 -0.649519 0
-0.0783963 -0.745891 0
0.231763 -0.713292 0
0.501848 -0.557359 0
0.685159 -0.305052 0
0.875 0 0
0.799352 0.355895 0
0.585489 0.650252 0
0.27039 0.832174 0
-0.0914624 0.870207 0
-0.4375 0.757772 0
-0.70789 0.514312 0
-0.855879 0.181923 0
-0.855879 -0.181923 0
-0.70789 -0.514312 0
-0.4375 -0.757772 0
-0.0914624 -0.870207 0
0.27039 -0.832174 0
0.585489 -0.650252 0
0.799352 -0.355895 0
1 0 0
0.913545 0.406737 0
0.669131 0.743145 0
0.309017 0.951057 0
-0.104528 0.994522 0
-0.5 0.866025 0
-0.809017 0.587785 0
-0.978148 0.207912 0
-0.978148 -0.207912 0
-0.809017 -0.587785 0
-0.5 -0.866025 0
-0.104528 -0.994522 0
0.309017 -0.951057 0
0.669131 -0.743145 0
0.913545 -0.406737 0
CELLS 225 900
3 0 1 2
3 0 2 3
3 0 3 4
3 0 4 5
3 0 5 6
3 0 6 7
3 0 7 8
3 0 8 9
3 0 9 10
3 0 10 11
3 0 11 12
3 0 12 13
3 0 13 14
3 0 14 15
3 0 15 1
3 1 16 17
3 1 17 2
3 2 17 18
3 2 18 3
3 3 18 19
3 3 19 4
3 4 19 20
3 4 20 5
3 5 20 21
3 5 21 6
3 6 21 22
3 6 22 7
3 7 22 23
3 7 23 8
3 8 23 24
3 8 24 9
3 9 24 25
3 9 25 10
3 10 25 26
3 10 26 11
3 11 26 27
3 11 27 12
3 12 27 28
3 12 28 13
3 13 28 29
3 13 29 14
3 14 29 30
3 14 30 15
3 15 30 16
3 15 16 1
3 16 31 32
3 16 32 17
3 17 32 33
3 17 33 18
3 18 33 34
3 18 34 19
3 19 34 35
3 19 35 20
3 20 35 36
3 20 36 21
3 21 36 37
3 21 37 22
3 22 37 38
3 22 38 23
3 23 38 39
3 23 39 24
3 24 39 40
3 24 40 25
3 25 40 41
3 25 41 26
3 26 41 42
3 26 42 27
3 27 42 43
3 27 43 28
3 28 43 44
3 28 44 29
3 29 44 45
3 29 45 30
3 30 45 31
3 30 31 16
3 31 46 47
3 31 47 32
3 32 47 48
3 32 48 33
3 33 48 49
3 33 49 34
3 34 49 50
3 34 50 35
3 35 50 51
3 35 51 36
3 36 51 52
3 36 52 37
3 37 52 53
3 37 53 38
3 38 53 54
3 38 54 39
3 39 54 55
3 39 55 40
3 40 55 56
3 40 56 41
3 41 56 57
3 41 57 42
3 42 57 58
3 42 58 43
3 43 58 59
3 43 59 44
3 44 59 60
3 44 60 45
3 45 60 46
3 45 46 31
3 46 61 62
3 46 62 47
3 47 62 63
3 47 63 48
3 48 63 64
3 48 64 49
3 49 64 65
3 49 65 50
3 50 65 66
3 50 66 51
3 51 66 67
3 51 67 52
3 52 67 68
3 52 68 53
3 53 68 69
3 53 69 54
3 54 69 70
3 54 70 55
3 55 70 71
3 55 71 56
3 56 71 72
3 56 72 57
3 57 72 73
3 57 73 58
3 58 73 74
3 58 74 59
3 59 74 75
3 59 75 60
3 60 75 61
3 60 61 46
3 61 76 77
3 61 77 62
3 62 77 78
3 62 78 63
3 63 78 79
3 63 79 64
3 64 79 80
3 64 80 65
3 65 80 81
3 65 81 66
3 66 81 82
3 66 82 67
3 67 82 83
3 67 83 68
3 68 83 84
3 68 84 69
3 69 84 85
3 69 85 70
3 70 85 86
3 70 86 71
3 71 86 87
3 71 87 72
3 72 87 88
3 72 88 73
3 73 88 89
3 73 89 74
3 74 89 90
3 74 90 75
3 75 90 76
3 75 76 61
3 76 91 92
3 76 92 77
3 77 92 93
3 77 93 78
3 78 93 94
3 78 94 79
3 79 94 95
3 79 95 80
3 80 95 96
3 80 96 81
3 81 96 97
3 81 97 82
3 82 97 98
3 82 98 83
3 83 98 99
3 83 99 84
3 84 99 100
3 84 100 85
3 85 100 101
3 85 101 86
3 86 101 102
3 86 102 87
3 87 102 103
3 87 103 88
3 88 103 104
3 88 104 89
3 89 104 105
3 89 105 90
3 90 105 91
3 90 91 76
3 91 106 107
3 91 107 92
3 92 107 108
3 92 108 93
3 93 108 109
3 93 109 94
3 94 109 110
3 94 110 95
3 95 110 111
3 95 111 96
3 96 111 112
3 96 112 97
3 97 112 113
3 97 113 98
3 98 113 114
3 98 114 99
3 99 114 115
3 99 115 100
3 100 115 116
3 100 116 101
3 101 116 117
3 101 117 102
3 102 117 118
3 102 118 103
3 103 118 119
3 103 119 104
3 104 119 120
3 104 120 105
3 105 120 106
3 105 106 91
CELL_TYPES 225
5
5
5
5
5
5
5
5
5
5
5
5
5
5
5
5
5
5
5
5
5
5
5
5
5
5
5
5
5
5
5
5
5
5
5
5
5
5
5
5
5
5
5
5
5
5
5
5
5
5
5
5
5
5
5
5
5
5
5
5
5
5
5
5
5
5
5
5
5
5
5
5
5
5
5
5
5
5
5
5
5
5
5
5
5
5
5
5
5
5
5
5
5
5
5
5
5
5
5
5
5
5
5
5
5
5
5
5
5
5
5
5
5
5
5
5
5
5
5
5
5
5
5
5
5
5
5
5
5
5
5
5
5
5
5
5
5
5
5
5
5
5
5
5
5
5
5
5
5
5
5
5
5
5
5
5
5
5
5
5
5
5
5
5
5
5
5
5
5
5
5
5
5
5
5
5
5
5
5
5
5
5
5
5
5
5
5
5
5
5
5
5
5
5
5
5
5
5
5
5
5
5
5
5
5
5
5
5
5
5
5
5
5
5
5
5
5
5
5
5
5
5
5
5
5
CELL_DATA 225
VECTORS Ht double
0.0091086 -0.0583712 0
-0.0222765 0.0110344 0
-0.0442804 0.0320758 0
0.0342903 0.00681047 0
0.0474966 0.00722746 0
-0.02634 -0.0354587 0
-0.024395 -0.0311212 0
-0.00671334 0.0513189 0
-0.00115831 0.029723 0
0.0453781 -0.0349282 0
0.0112271 -0.0162156 0
-0.0598436 -0.00820873 0
-0.00883183 0.00916329 0
0.0364088 0.0489661 0
0.00992949 -0.0120157 0
0.0713081 -0.237326 0
-0.103132 -0.0754942 0
-0.137681 0.00390276 0
-0.0603662 -0.022401 0
-0.197455 0.116772 0
0.0225299 0.136569 0
0.142667 0.0941941 0
0.0310555 0.031852 0
0.199664 0.0384818 0
0.0831923 -0.116849 0
-0.0603232 -0.193377 0
-0.0229337 -0.0291496 0
-0.109926 -0.132068 0
-0.140601 0.0238806 0
-0.093579 0.208793 0
0.0225663 0.0439426 0
0.0110356 0.138143 0
0.111254 0.0781966 0
0.227419 -0.0974885 0
0.00295748 -0.0705676 0
0.043553 -0.101356 0
-0.0228973 -0.121776 0
-0.241557 -0.088119 0
-0.0604026 0.0702252 0
-0.065824 0.072823 0
-0.0576685 0.0902242 0
0.114912 0.230164 0
0.11129 -0.0144296 0
0.0957878 -0.0535399 0
0.0831559 -0.024223 0
0.195884 -0.48051 0
-0.262376 -0.268302 0
-0.362244 -0.0723915 0
-0.206333 -0.0737096 0
-0.425134 0.220581 0
0.00931524 0.406134 0
0.288541 0.311662 0
0.116042 0.1243 0
0.419788 0.0842815 0
0.283991 -0.312286 0
-0.0344678 -0.474762 0
-0.0660656 -0.133916 0
-0.252047 -0.274757 0
-0.42087 0.029107 0
-0.304979 0.417198 0
0.0275417 0.168932 0
0.0581888 0.31741 0
0.312352 0.258686 0
0.529986 -0.118084 0
0.069454 -0.209469 0
0.0856868 -0.278145 0
-0.0478392 -0.371118 0
-0.482399 -0.269008 0
-0.22456 0.163493 0
-0.194782 0.214833 0
-0.186995 0.271748 0
0.178343 0.514027 0
0.330579 0.0214835 0
0.299634 -0.112335 0
0.265764 -0.0750832 0
0.315296 -0.618805 0
-0.423261 -0.488751 0
-0.615247 -0.235962 0
-0.416498 -0.182701 0
-0.573399 0.277131 0
-0.0159872 0.71189 0
0.369401 0.610936 0
0.206504 0.29717 0
0.571026 0.0925926 0
0.525565 -0.53878 0
0.105654 -0.749553 0
-0.0635252 -0.2941 0
-0.397195 -0.352144 0
-0.764939 0.0315134 0
-0.581808 0.52406 0
-0.0272821 0.303025 0
0.159758 0.480189 0
0.56624 0.491821 0
0.789078 -0.0235892 0
0.177124 -0.324566 0
0.0972443 -0.502624 0
-0.0748201 -0.702965 0
-0.606837 -0.482891 0
-0.405203 0.226164 0
-0.363757 0.407878 0
-0.375723 0.517239 0
0.151349 0.727118 0
0.554945 0.0829555 0
0.579436 -0.154337 0
0.53686 -0.129915 0
0.338001 -0.478229 0
-0.500503 -0.539115 0
-0.779513 -0.447673 0
-0.600357 -0.34582 0
-0.470753 0.220595 0
0.0195142 0.849779 0
0.297573 0.876742 0
0.213253 0.513598 0
0.496648 0.00948523 0
0.621396 -0.699337 0
0.358386 -0.851836 0
0.0608424 -0.421419 0
-0.466152 -0.243216 0
-0.982957 0.0814712 0
-0.804499 0.389745 0
-0.159231 0.304792 0
0.317958 0.503134 0
0.774599 0.631294 0
0.810009 0.213943 0
0.238795 -0.272045 0
0.0246402 -0.682687 0
-0.117903 -0.966406 0
-0.445767 -0.616823 0
-0.421611 0.199167 0
-0.491138 0.594202 0
-0.541831 0.732084 0
-0.0157881 0.672284 0
0.595853 0.0863067 0
0.830394 -0.159665 0
0.800141 -0.15435 0
0.226292 -0.0169069 0
-0.448863 -0.266399 0
-0.763591 -0.603 0
-0.639268 -0.489604 0
-0.069424 0.023237 0
0.182833 0.65969 0
0.0780604 0.972409 0
0.0850828 0.661142 0
0.131499 -0.156308 0
0.407874 -0.710791 0
0.632003 -0.690008 0
0.296056 -0.404552 0
-0.383523 0.0849074 0
-0.892083 0.224591 0
-0.855203 0.00843134 0
-0.309271 0.0836474 0
0.483772 0.299308 0
0.830002 0.522989 0
0.511566 0.531599 0
0.155059 0.00340413 0
-0.153775 -0.704814 0
-0.196047 -0.980594 0
0.0221881 -0.588194 0
-0.147164 0.086438 0
-0.475135 0.696338 0
-0.562087 0.797843 0
-0.302007 0.284502 0
0.337898 -0.0530536 0
0.917278 -0.141502 0
0.899978 -0.134749 0
0.0525179 0.575579 0
-0.312597 0.282744 0
-0.541893 -0.562816 0
-0.442125 -0.475387 0
0.448232 -0.2706 0
0.463304 0.171497 0
-0.16427 0.792868 0
-0.131343 0.57451 0
-0.40223 -0.289491 0
-0.108628 -0.557609 0
0.751338 -0.318966 0
0.488162 -0.171085 0
-0.116605 0.489652 0
-0.449476 0.445005 0
-0.675876 -0.428523 0
-0.330103 -0.295065 0
0.534549 -0.101676 0
0.669416 0.120681 0
0.0230588 0.762976 0
-0.11598 0.362783 0
-0.37277 -0.476889 0
-0.305245 -0.637648 0
0.582215 -0.404892 0
0.351282 -0.00882389 0
-0.250587 0.623945 0
-0.337455 0.625326 0
-0.589559 -0.2596 0
-0.123991 -0.345882 0
0.721879 -0.131568 0
0.684779 -0.0910465 0
-0.0236086 0.902262 0
-0.230187 0.792825 0
-0.154563 -0.237912 0
-0.0160001 -0.184001 0
0.695597 -0.527607 0
0.730619 -0.32294 0
-0.25109 0.315673 0
-0.293029 0.134562 0
-0.782738 -0.20283 0
-0.661465 -0.32765 0
0.534846 0.0806641 0
0.394542 0.246544 0
0.277735 0.656523 0
0.144728 0.630171 0
-0.295154 -0.600443 0
-0.0548386 -0.590831 0
0.307364 -0.505925 0
0.3317 -0.411719 0
-0.35044 0.691605 0
-0.500737 0.486522 0
-0.455906 0.00782732 0
-0.390916 -0.0213467 0
0.836189 -0.165075 0
0.769458 0.0838897 0
0.137143 0.293991 0
0.10589 0.223341 0
-0.683388 -0.578762 0
-0.453758 -0.67961 0
0.208014 -0.129993 0
0.123993 -0.0597587 0
