# vtk DataFile Version 3.0
tp3485 cell-vector
ASCII
DATASET UNSTRUCTURED_GRID
POINTS 121 double
0 0 0
0.125 0 0
0.114193 0.0508421 0
0.0836413 0.0928931 0
0.0386271 0.118882 0
-0.0130661 0.124315 0
-0.0625 0.108253 0
-0.101127 0.0734732 0
-0.122268 0.025989 0
-0.122268 -0.025989 0
-0.101127 -0.0734732 0
-0.0625 -0.108253 0
-0.0130661 -0.124315 0
0.0386271 -0.118882 0
0.0836413 -0.0928931 0
0.114193 -0.0508421 0
0.25 0 0
0.228386 0.101684 0
0.167283 0.185786 0
0.0772542 0.237764 0
-0.0261321 0.24863 0
-0.125 0.216506 0
-0.202254 0.146946 0
-0.244537 0.0519779 0
-0.244537 -0.0519779 0
-0.202254 -0.146946 0
-0.125 -0.216506 0
-0.0261321 -0.24863 0
0.0772542 -0.237764 0
0.167283 -0.185786 0
0.228386 -0.101684 0
0.375 0 0
0.34258 0.152526 0
0.250924 0.278679 0
0.115881 0.356646 0
-0.0391982 0.372946 0
-0.1875 0.32476 0
-0.303381 0.220419 0
-0.366805 0.0779669 0
-0.366805 -0.0779669 0
-0.303381 -0.220419 0
-0.1875 -0.32476 0
-0.0391982 -0.372946 0
0.115881 -0.356646 0
0.250924 -0.278679 0
0.34258 -0.152526 0
0.5 0 0
0.456773 0.203368 0
0.334565 0.371572 0
0.154508 0.475528 0
-0.0522642 0.497261 0
-0.25 0.433013 0
-0.404508 0.293893 0
-0.489074 0.103956 0
-0.489074 -0.103956 0
-0.404508 -0.293893 0
-0.25 -0.433013 0
-0.0522642 -0.497261 0
0.154508 -0.475528 0
0.334565 -0.371572 0
0.456773 -0.203368 0
0.625 0 0
0.570966 0.25421 0
0.418207 0.464466 0
0.193136 0.59441 0
-0.0653303 0.621576 0
-0.3125 0.541266 0
-0.505636 0.367366 0
-0.611342 0.129945 0
-0.611342 -0.129945 0
-0.505636 -0.367366 0
-0.3125 -0.541266 0
-0.0653303 -0.621576 0
0.193136 -0.59441 0
0.418207 -0.464466 0
0.570966 -0.25421 0
0.75 0 0
0.685159 0.305052 0
0.501848 0.557359 0
0.231763 0.713292 0
-0.0783963 0.745891 0
-0.375 0.649519 0
-0.606763 0.440839 0
-0.733611 0.155934 0
-0.733611 -0.155934 0
-0.606763 -0.440839 0
-0.375 -0.649519 0
-0.0783963 -0.745891 0
0.231763 -0.713292 0
0.501848 -0.557359 0
0.685159 -0.305052 0
0.875 0 0
0.799352 0.355895 0
0.585489 0.650252 0
0.27039 0.832174 0
-0.0914624 0.870207 0
-0.4375 0.757772 0
-0.70789 0.514312 0
-0.855879 0.181923 0
-0.855879 -0.181923 0
-0.70789 -0.514312 0
-0.4375 -0.757772 0
-0.0914624 -0.870207 0
0.27039 -0.832174 0
0.585489 -0.650252 0
0.799352 -0.355895 0
1 0 0
0.913545 0.406737 0
0.669131 0.743145 0
0.309017 0.951057 0
-0.104528 0.994522 0
-0.5 0.866025 0
-0.809017 0.587785 0
-0.978148 0.207912 0
-0.978148 -0.207912 0
-0.809017 -0.587785 0
-0.5 -0.866025 0
-0.104528 -0.994522 0
0.309017 -0.951057 0
0.669131 -0.743145 0
0.913545 -0.406737 0
CELLS 225 900
3 0 1 2
3 0 2 3
3 0 3 4
3 0 4 5
3 0 5 6
3 0 6 7
3 0 7 8
3 0 8 9
3 0 9 10
3 0 10 11
3 0 11 12
3 0 12 13
3 0 13 14
3 0 14 15
3 0 15 1
3 1 16 17
3 1 17 2
3 2 17 18
3 2 18 3
3 3 18 19
3 3 19 4
3 4 19 20
3 4 20 5
3 5 20 21
3 5 21 6
3 6 21 22
3 6 22 7
3 7 22 23
3 7 23 8
3 8 23 24
3 8 24 9
3 9 24 25
3 9 25 10
3 10 25 26
3 10 26 11
3 11 26 27
3 11 27 12
3 12 27 28
3 12 28 13
3 13 28 29
3 13 29 14
3 14 29 30
3 14 30 15
3 15 30 16
3 15 16 1
3 16 31 32
3 16 32 17
3 17 32 33
3 17 33 18
3 18 33 34
3 18 34 19
3 19 34 35
3 19 35 20
3 20 35 36
3 20 36 21
3 21 36 37
3 21 37 22
3 22 37 38
3 22 38 23
3 23 38 39
3 23 39 24
3 24 39 40
3 24 40 25
3 25 40 41
3 25 41 26
3 26 41 42
3 26 42 27
3 27 42 43
3 27 43 28
3 28 43 44
3 28 44 29
3 29 44 45
3 29 45 30
3 30 45 31
3 30 31 16
3 31 46 47
3 31 47 32
3 32 47 48
3 32 48 33
3 33 48 49
3 33 49 34
3 34 49 50
3 34 50 35
3 35 50 51
3 35 51 36
3 36 51 52
3 36 52 37
3 37 52 53
3 37 53 38
3 38 53 54
3 38 54 39
3 39 54 55
3 39 55 40
3 40 55 56
3 40 56 41
3 41 56 57
3 41 57 42
3 42 57 58
3 42 58 43
3 43 58 59
3 43 59 44
3 44 59 60
3 44 60 45
3 45 60 46
3 45 46 31
3 46 61 62
3 46 62 47
3 47 62 63
3 47 63 48
3 48 63 64
3 48 64 49
3 49 64 65
3 49 65 50
3 50 65 66
3 50 66 51
3 51 66 67
3 51 67 52
3 52 67 68
3 52 68 53
3 53 68 69
3 53 69 54
3 54 69 70
3 54 70 55
3 55 70 71
3 55 71 56
3 56 71 72
3 56 72 57
3 57 72 73
3 57 73 58
3 58 73 74
3 58 74 59
3 59 74 75
3 59 75 60
3 60 75 61
3 60 61 46
3 61 76 77
3 61 77 62
3 62 77 78
3 62 78 63
3 63 78 79
3 63 79 64
3 64 79 80
3 64 80 65
3 65 80 81
3 65 81 66
3 66 81 82
3 66 82 67
3 67 82 83
3 67 83 68
3 68 83 84
3 68 84 69
3 69 84 85
3 69 85 70
3 70 85 86
3 70 86 71
3 71 86 87
3 71 87 72
3 72 87 88
3 72 88 73
3 73 88 89
3 73 89 74
3 74 89 90
3 74 90 75
3 75 90 76
3 75 76 61
3 76 91 92
3 76 92 77
3 77 92 93
3 77 93 78
3 78 93 94
3 78 94 79
3 79 94 95
3 79 95 80
3 80 95 96
3 80 96 81
3 81 96 97
3 81 97 82
3 82 97 98
3 82 98 83
3 83 98 99
3 83 99 84
3 84 99 100
3 84 100 85
3 85 100 101
3 85 101 86
3 86 101 102
3 86 102 87
3 87 102 103
3 87 103 88
3 88 103 104
3 88 104 89
3 89 104 105
3 89 105 90
3 90 105 91
3 90 91 76
3 91 106 107
3 91 107 92
3 92 107 108
3 92 108 93
3 93 108 109
3 93 109 94
3 94 109 110
3 94 110 95
3 95 110 111
3 95 111 96
3 96 111 112
3 96 112 97
3 97 112 113
3 97 113 98
3 98 113 114
3 98 114 99
3 99 114 115
3 99 115 100
3 100 115 116
3 100 116 101
3 101 116 117
3 101 117 102
3 102 117 118
3 102 118 103
3 103 118 119
3 103 119 104
3 104 119 120
3 104 120 105
3 105 120 106
3 105 106 91
CELL_TYPES 225
5
5
5
5
5
5
5
5
5
5
5
5
5
5
5
5
5
5
5
5
5
5
5
5
5
5
5
5
5
5
5
5
5
5
5
5
5
5
5
5
5
5
5
5
5
5
5
5
5
5
5
5
5
5
5
5
5
5
5
5
5
5
5
5
5
5
5
5
5
5
5
5
5
5
5
5
5
5
5
5
5
5
5
5
5
5
5
5
5
5
5
5
5
5
5
5
5
5
5
5
5
5
5
5
5
5
5
5
5
5
5
5
5
5
5
5
5
5
5
5
5
5
5
5
5
5
5
5
5
5
5
5
5
5
5
5
5
5
5
5
5
5
5
5
5
5
5
5
5
5
5
5
5
5
5
5
5
5
5
5
5
5
5
5
5
5
5
5
5
5
5
5
5
5
5
5
5
5
5
5
5
5
5
5
5
5
5
5
5
5
5
5
5
5
5
5
5
5
5
5
5
5
5
5
5
5
5
5
5
5
5
5
5
5
5
5
5
5
5
5
5
5
5
5
5
CELL_DATA 225
VECTORS Ht double
0.290077 0.834241 0
0.317719 0.888952 0
0.295556 0.946103 0
0.238255 0.967875 0
0.183733 0.93986 0
0.168071 0.880596 0
0.201631 0.829302 0
0.262207 0.81992 0
0.309712 0.858659 0
0.312711 0.919883 0
0.269219 0.963079 0
0.208016 0.959662 0
0.169603 0.911893 0
0.179399 0.851382 0
0.230922 0.818173 0
0.323819 0.34026 0
0.229576 0.636951 0
0.417468 0.539677 0
0.270046 0.704769 0
0.331935 0.742709 0
0.246727 0.780223 0
0.123822 0.815 0
0.17505 0.813383 0
-0.0691568 0.708714 0
0.102446 0.782305 0
-0.119298 0.494183 0
0.0769607 0.707554 0
0.00657753 0.313372 0
0.115458 0.638597 0
0.225174 0.28593 0
0.192463 0.621064 0
0.391837 0.430016 0
0.257018 0.666558 0
0.39628 0.650283 0
0.266406 0.744974 0
0.235562 0.800972 0
0.214413 0.804421 0
0.0160364 0.782366 0
0.135445 0.80556 0
-0.117028 0.606777 0
0.0817592 0.747638 0
-0.0755767 0.3904 0
0.0888806 0.668984 0
0.112959 0.276419 0
0.152097 0.621647 0
0.320039 -0.266427 0
0.229879 0.0331475 0
0.488431 0.0715912 0
0.33946 0.2407 0
0.34991 0.422909 0
0.258541 0.461014 0
-0.00385874 0.555046 0
0.0406711 0.548299 0
-0.338773 0.380562 0
-0.169978 0.444795 0
-0.433207 0.0149189 0
-0.23401 0.218994 0
-0.22467 -0.299922 0
-0.109055 0.0203187 0
0.148841 -0.355619 0
0.122202 -0.0197608 0
0.440159 -0.115315 0
0.306728 0.125278 0
0.456508 0.261972 0
0.322415 0.359457 0
0.187069 0.526576 0
0.158883 0.527811 0
-0.18986 0.503398 0
-0.0756535 0.518934 0
-0.42485 0.207777 0
-0.225992 0.3387 0
-0.362399 -0.164665 0
-0.192647 0.106376 0
-0.0438342 -0.367467 0
0.0023142 -0.0242986 0
0.209969 -0.66658 0
0.268492 -0.529152 0
0.419886 -0.308725 0
0.411796 -0.201976 0
0.294409 0.0867245 0
0.264545 0.123442 0
-0.0834272 0.258085 0
-0.0758175 0.231761 0
-0.463595 0.0919606 0
-0.384061 0.0513019 0
-0.594522 -0.301718 0
-0.456209 -0.298519 0
-0.389569 -0.662439 0
-0.244518 -0.586211 0
0.0156384 -0.751498 0
0.110927 -0.621397 0
0.352959 -0.509962 0
0.374916 -0.380794 0
0.399175 -0.0976651 0
0.372755 -0.0236174 0
0.123703 0.212561 0
0.105876 0.213775 0
-0.291166 0.215426 0
-0.249118 0.174291 0
-0.570898 -0.090964 0
-0.457314 -0.115941 0
-0.530383 -0.50386 0
-0.380939 -0.464863 0
-0.196431 -0.750033 0
-0.070535 -0.64158 0
-0.0125483 -0.646163 0
0.312703 -0.742853 0
0.173298 -0.436805 0
0.408928 -0.406012 0
0.142071 -0.158607 0
0.222994 -0.109112 0
-0.0855662 0.00433759 0
-0.12206 -0.0486237 0
-0.358976 -0.0557984 0
-0.397898 -0.264574 0
-0.497234 -0.299221 0
-0.421987 -0.614061 0
-0.408848 -0.564847 0
-0.178387 -0.865815 0
-0.152307 -0.676902 0
0.171703 -0.85324 0
0.102625 -0.561235 0
0.396615 -0.584659 0
0.187251 -0.294387 0
0.347515 -0.237801 0
0.0455697 -0.0529418 0
0.0568953 -0.0421962 0
-0.228662 0.00332714 0
-0.28293 -0.127283 0
-0.453975 -0.162816 0
-0.447086 -0.436757 0
-0.481271 -0.441427 0
-0.326943 -0.765827 0
-0.292487 -0.648139 0
-0.00200559 -0.896734 0
-0.250284 -0.227774 0
0.294456 -0.491882 0
-0.159705 -0.2738 0
0.276258 -0.288786 0
-0.0648917 -0.237283 0
0.113151 -0.166411 0
-0.0285865 -0.142389 0
-0.0869307 -0.205739 0
-0.0748136 -0.0519127 0
-0.191585 -0.380744 0
-0.172983 -0.0257256 0
-0.131559 -0.575619 0
-0.258131 -0.0811567 0
0.0534267 -0.661407 0
-0.273914 -0.181525 0
0.240959 -0.58134 0
-0.209886 -0.260413 0
0.306942 -0.3884 0
-0.108417 -0.265618 0
0.20771 -0.210264 0
-0.036654 -0.193695 0
0.00893054 -0.164811 0
-0.0420844 -0.092238 0
-0.157857 -0.282119 0
-0.121115 -0.0283859 0
-0.182283 -0.484561 0
-0.221448 -0.0443917 0
-0.0481836 -0.638173 0
-0.276689 -0.129664 0
0.155703 -0.641304 0
-0.33291 0.31189 0
0.147106 0.0548079 0
-0.376425 0.0614334 0
0.0248329 0.0333275 0
-0.219417 -0.138493 0
-0.0410207 -0.0719124 0
0.0342168 -0.15559 0
-0.00687696 -0.19127 0
0.216636 0.0214559 0
0.10467 -0.245763 0
0.207128 0.275487 0
0.219805 -0.19933 0
0.0119835 0.438401 0
0.262339 -0.0826979 0
-0.239662 0.402391 0
0.204126 0.026953 0
-0.381286 0.191287 0
0.0836866 0.0570626 0
-0.319169 -0.0552166 0
-0.0192786 -0.0122937 0
-0.094417 -0.173998 0
-0.036634 -0.13522 0
0.144243 -0.0864545 0
0.0431051 -0.230372 0
0.23888 0.149482 0
0.167172 -0.234783 0
0.12687 0.377684 0
0.253468 -0.145534 0
-0.117667 0.447141 0
0.244886 -0.0216856 0
-0.133842 0.580434 0
-0.127422 0.509083 0
-0.283528 0.3385 0
-0.247725 0.295086 0
-0.203896 0.0653773 0
-0.169193 0.0624917 0
0.0523582 -0.0581996 0
0.0562071 -0.0347832 0
0.315661 0.0495452 0
0.279318 0.0676319 0
0.411775 0.317313 0
0.3525 0.301965 0
0.277098 0.567911 0
0.227324 0.513149 0
0.000750591 0.63551 0
-0.0133747 0.561435 0
-0.234397 0.475375 0
-0.210317 0.41487 0
-0.272739 0.193476 0
-0.233179 0.170443 0
-0.0889025 -0.0236454 0
-0.066831 -0.0101009 0
0.195461 -0.0323106 0
0.178647 -0.00728756 0
0.392176 0.173214 0
0.340814 0.177021 0
0.37107 0.456925 0
0.312356 0.42086 0
0.146109 0.63108 0
0.112107 0.562873 0
