# vtk DataFile Version 3.0
tp3485 cell-vector
ASCII
DATASET UNSTRUCTURED_GRID
POINTS 121 double
0 0 0
0.125 0 0
0.114193 0.0508421 0
0.0836413 0.0928931 0
0.0386271 0.118882 0
-0.0130661 0.124315 0
-0.0625 0.108253 0
-0.101127 0.0734732 0
-0.122268 0.025989 0
-0.122268 -0.025989 0
-0.101127 -0.0734732 0
-0.0625 -0.108253 0
-0.0130661 -0.124315 0
0.0386271 -0.118882 0
0.0836413 -0.0928931 0
0.114193 -0.0508421 0
0.25 0 0
0.228386 0.101684 0
0.167283 0.185786 0
0.0772542 0.237764 0
-0.0261321 0.24863 0
-0.125 0.216506 0
-0.202254 0.146946 0
-0.244537 0.0519779 0
-0.244537 -0.0519779 0
-0.202254 -0.146946 0
-0.125 -0.216506 0
-0.0261321 -0.24863 0
0.0772542 -0.237764 0
0.167283 -0.185786 0
0.228386 -0.101684 0
0.375 0 0
0.34258 0.152526 0
0.250924 0.278679 0
0.115881 0.356646 0
-0.0391982 0.372946 0
-0.1875 0.32476 0
-0.303381 0.220419 0
-0.366805 0.0779669 0
-0.366805 -0.0779669 0
-0.303381 -0.220419 0
-0.1875 -0.32476 0
-0.0391982 -0.372946 0
0.115881 -0.356646 0
0.250924 -0.278679 0
0.34258 -0.152526 0
0.5 0 0
0.456773 0.203368 0
0.334565 0.371572 0
0.154508 0.475528 0
-0.0522642 0.497261 0
-0.25 0.433013 0
-0.404508 0.293893 0
-0.489074 0.103956 0
-0.489074 -0.103956 0
-0.404508 -0.293893 0
-0.25 -0.433013 0
-0.0522642 -0.497261 0
0.154508 -0.475528 0
0.334565 -0.371572 0
0.456773 -0.203368 0
0.625 0 0
0.570966 0.25421 0
0.418207 0.464466 0
0.193136 0.59441 0
-0.0653303 0.621576 0
-0.3125 0.541266 0
-0.505636 0.367366 0
-0.611342 0.129945 0
-0.611342 -0.129945 0
-0.505636 -0.367366 0
-0.3125 -0.541266 0
-0.0653303 -0.621576 0
0.193136 -0.59441 0
0.418207 -0.464466 0
0.570966 -0.25421 0
0.75 0 0
0.685159 0.305052 0
0.501848 0.557359 0
0.231763 0.713292 0
-0.0783963 0.745891 0
-0.375 0.649519 0
-0.606763 0.440839 0
-0.733611 0.155934 0
-0.733611 -0.155934 0
-0.606763 -0.440839 0
-0.375 -0.649519 0
-0.0783963 -0.745891 0
0.231763 -0.713292 0
0.501848 -0.557359 0
0.685159 -0.305052 0
0.875 0 0
0.799352 0.355895 0
0.585489 0.650252 0
0.27039 0.832174 0
-0.0914624 0.870207 0
-0.4375 0.757772 0
-0.70789 0.514312 0
-0.855879 0.181923 0
-0.855879 -0.181923 0
-0.70789 -0.514312 0
-0.4375 -0.757772 0
-0.0914624 -0.870207 0
0.27039 -0.832174 0
0.585489 -0.650252 0
0.799352 -0.355895 0
1 0 0
0.913545 0.406737 0
0.669131 0.743145 0
0.309017 0.951057 0
-0.104528 0.994522 0
-0.5 0.866025 0
-0.809017 0.587785 0
-0.978148 0.207912 0
-0.978148 -0.207912 0
-0.809017 -0.587785 0
-0.5 -0.866025 0
-0.104528 -0.994522 0
0.309017 -0.951057 0
0.669131 -0.743145 0
0.913545 -0.406737 0
CELLS 225 900
3 0 1 2
3 0 2 3
3 0 3 4
3 0 4 5
3 0 5 6
3 0 6 7
3 0 7 8
3 0 8 9
3 0 9 10
3 0 10 11
3 0 11 12
3 0 12 13
3 0 13 14
3 0 14 15
3 0 15 1
3 1 16 17
3 1 17 2
3 2 17 18
3 2 18 3
3 3 18 19
3 3 19 4
3 4 19 20
3 4 20 5
3 5 20 21
3 5 21 6
3 6 21 22
3 6 22 7
3 7 22 23
3 7 23 8
3 8 23 24
3 8 24 9
3 9 24 25
3 9 25 10
3 10 25 26
3 10 26 11
3 11 26 27
3 11 27 12
3 12 27 28
3 12 28 13
3 13 28 29
3 13 29 14
3 14 29 30
3 14 30 15
3 15 30 16
3 15 16 1
3 16 31 32
3 16 32 17
3 17 32 33
3 17 33 18
3 18 33 34
3 18 34 19
3 19 34 35
3 19 35 20
3 20 35 36
3 20 36 21
3 21 36 37
3 21 37 22
3 22 37 38
3 22 38 23
3 23 38 39
3 23 39 24
3 24 39 40
3 24 40 25
3 25 40 41
3 25 41 26
3 26 41 42
3 26 42 27
3 27 42 43
3 27 43 28
3 28 43 44
3 28 44 29
3 29 44 45
3 29 45 30
3 30 45 31
3 30 31 16
3 31 46 47
3 31 47 32
3 32 47 48
3 32 48 33
3 33 48 49
3 33 49 34
3 34 49 50
3 34 50 35
3 35 50 51
3 35 51 36
3 36 51 52
3 36 52 37
3 37 52 53
3 37 53 38
3 38 53 54
3 38 54 39
3 39 54 55
3 39 55 40
3 40 55 56
3 40 56 41
3 41 56 57
3 41 57 42
3 42 57 58
3 42 58 43
3 43 58 59
3 43 59 44
3 44 59 60
3 44 60 45
3 45 60 46
3 45 46 31
3 46 61 62
3 46 62 47
3 47 62 63
3 47 63 48
3 48 63 64
3 48 64 49
3 49 64 65
3 49 65 50
3 50 65 66
3 50 66 51
3 51 66 67
3 51 67 52
3 52 67 68
3 52 68 53
3 53 68 69
3 53 69 54
3 54 69 70
3 54 70 55
3 55 70 71
3 55 71 56
3 56 71 72
3 56 72 57
3 57 72 73
3 57 73 58
3 58 73 74
3 58 74 59
3 59 74 75
3 59 75 60
3 60 75 61
3 60 61 46
3 61 76 77
3 61 77 62
3 62 77 78
3 62 78 63
3 63 78 79
3 63 79 64
3 64 79 80
3 64 80 65
3 65 80 81
3 65 81 66
3 66 81 82
3 66 82 67
3 67 82 83
3 67 83 68
3 68 83 84
3 68 84 69
3 69 84 85
3 69 85 70
3 70 85 86
3 70 86 71
3 71 86 87
3 71 87 72
3 72 87 88
3 72 88 73
3 73 88 89
3 73 89 74
3 74 89 90
3 74 90 75
3 75 90 76
3 75 76 61
3 76 91 92
3 76 92 77
3 77 92 93
3 77 93 78
3 78 93 94
3 78 94 79
3 79 94 95
3 79 95 80
3 80 95 96
3 80 96 81
3 81 96 97
3 81 97 82
3 82 97 98
3 82 98 83
3 83 98 99
3 83 99 84
3 84 99 100
3 84 100 85
3 85 100 101
3 85 101 86
3 86 101 102
3 86 102 87
3 87 102 103
3 87 103 88
3 88 103 104
3 88 104 89
3 89 104 105
3 89 105 90
3 90 105 91
3 90 91 76
3 91 106 107
3 91 107 92
3 92 107 108
3 92 108 93
3 93 108 109
3 93 109 94
3 94 109 110
3 94 110 95
3 95 110 111
3 95 111 96
3 96 111 112
3 96 112 97
3 97 112 113
3 97 113 98
3 98 113 114
3 98 114 99
3 99 114 115
3 99 115 100
3 100 115 116
3 100 116 101
3 101 116 117
3 101 117 102
3 102 117 118
3 102 118 103
3 103 118 119
3 103 119 104
3 104 119 120
3 104 120 105
3 105 120 106
3 105 106 91
CELL_TYPES 225
5
5
5
5
5
5
5
5
5
5
5
5
5
5
5
5
5
5
5
5
5
5
5
5
5
5
5
5
5
5
5
5
5
5
5
5
5
5
5
5
5
5
5
5
5
5
5
5
5
5
5
5
5
5
5
5
5
5
5
5
5
5
5
5
5
5
5
5
5
5
5
5
5
5
5
5
5
5
5
5
5
5
5
5
5
5
5
5
5
5
5
5
5
5
5
5
5
5
5
5
5
5
5
5
5
5
5
5
5
5
5
5
5
5
5
5
5
5
5
5
5
5
5
5
5
5
5
5
5
5
5
5
5
5
5
5
5
5
5
5
5
5
5
5
5
5
5
5
5
5
5
5
5
5
5
5
5
5
5
5
5
5
5
5
5
5
5
5
5
5
5
5
5
5
5
5
5
5
5
5
5
5
5
5
5
5
5
5
5
5
5
5
5
5
5
5
5
5
5
5
5
5
5
5
5
5
5
5
5
5
5
5
5
5
5
5
5
5
5
5
5
5
5
5
5
CELL_DATA 225
VECTORS Ht double
0.777761 -0.377642 0
0.667267 -0.364045 0
0.583228 -0.437059 0
0.581254 -0.548368 0
0.662653 -0.624316 0
0.773559 -0.614643 0
0.840582 -0.525752 0
0.819369 -0.416464 0
0.723959 -0.3591 0
0.617488 -0.39162 0
0.570411 -0.492504 0
0.613882 -0.594993 0
0.719134 -0.631266 0
0.816518 -0.57732 0
0.84159 -0.468853 0
0.443983 0.207631 0
0.546027 -0.146472 0
0.100097 0.24417 0
0.413048 -0.12441 0
-0.157161 0.0130621 0
0.307672 -0.20847 0
-0.157554 -0.332759 0
0.299631 -0.343027 0
0.0991785 -0.564451 0
0.394246 -0.439038 0
0.443147 -0.528694 0
0.528906 -0.43297 0
0.646733 -0.249149 0
0.614502 -0.328838 0
0.575217 0.0891973 0
0.594391 -0.19555 0
0.275923 0.262448 0
0.481882 -0.121308 0
-0.053094 0.155957 0
0.351426 -0.155241 0
-0.194111 -0.159807 0
0.289351 -0.274894 0
-0.0538116 -0.47589 0
0.336735 -0.401088 0
0.274963 -0.583129 0
0.462221 -0.450316 0
0.574649 -0.410558 0
0.582771 -0.390001 0
0.646934 -0.0723752 0
0.618612 -0.260057 0
0.0989624 0.58457 0
0.064796 0.426595 0
-0.320608 0.659042 0
-0.265912 0.449863 0
-0.6567 0.397072 0
-0.50449 0.219668 0
-0.686908 -0.0279844 0
-0.493062 -0.11166 0
-0.391242 -0.334852 0
-0.23919 -0.324869 0
0.034644 -0.320463 0
0.0891287 -0.278871 0
0.308925 0.0056592 0
0.274633 -0.00410295 0
0.250098 0.427708 0
0.194568 0.317609 0
-0.102908 0.666397 0
-0.0980851 0.473376 0
-0.516496 0.563777 0
-0.409666 0.360121 0
-0.716978 0.187754 0
-0.533989 0.0527897 0
-0.571688 -0.212841 0
-0.388786 -0.245246 0
-0.17677 -0.37292 0
-0.070142 -0.336763 0
0.206444 -0.186552 0
0.211083 -0.161202 0
0.324366 0.222936 0
0.268791 0.165262 0
-0.0126633 0.372972 0
-0.350887 0.563872 0
-0.182575 0.475334 0
-0.683583 0.524499 0
-0.372338 0.417559 0
-0.87694 0.250913 0
-0.456379 0.237878 0
-0.803007 -0.0758451 0
-0.379084 0.0551937 0
-0.510708 -0.239546 0
-0.191603 -0.00960475 0
-0.193468 -0.131862 0
-0.017999 0.0863623 0
-0.0612178 0.175947 0
0.0268474 0.27959 0
-0.201472 0.480193 0
-0.0867404 0.442211 0
-0.521419 0.579544 0
-0.283597 0.466614 0
-0.809338 0.408256 0
-0.433455 0.33665 0
-0.874701 0.0796763 0
-0.437147 0.138321 0
-0.674255 -0.18876 0
-0.29223 0.00286932 0
-0.340643 -0.21942 0
-0.0946018 0.0199284 0
-0.0946295 0.00798727 0
0.0249601 0.17821 0
-0.0990102 0.342976 0
0.0611192 -0.18928 0
-0.379503 0.130364 0
0.268779 -0.126405 0
-0.448006 0.0251762 0
0.361006 0.0699884 0
-0.415674 -0.0961163 0
0.276769 0.269939 0
-0.303901 -0.153249 0
0.0718108 0.341131 0
-0.186653 -0.108415 0
-0.118239 0.236455 0
-0.141516 0.00871689 0
-0.167618 0.0251783 0
-0.19836 0.120637 0
-0.0436492 -0.152889 0
-0.319569 0.153282 0
0.171632 -0.179913 0
-0.424934 0.0850507 0
0.335765 -0.03801 0
-0.444731 -0.0389063 0
0.340138 0.178916 0
-0.36586 -0.136562 0
0.181856 0.327318 0
-0.240512 -0.143293 0
-0.034339 0.308991 0
-0.151636 -0.0546463 0
-0.165383 0.136065 0
-0.158044 0.070718 0
-0.124558 -0.0770304 0
-0.255495 0.149841 0
0.045204 -0.423477 0
0.0472917 -0.353633 0
0.321541 -0.483446 0
0.266869 -0.398334 0
0.551012 -0.318214 0
0.447015 -0.265067 0
0.581767 -0.0371226 0
0.468518 -0.0420194 0
0.393454 0.17382 0
0.317151 0.123209 0
0.110688 0.175024 0
0.0930774 0.12128 0
-0.0794149 -0.034306 0
-0.0554233 -0.0465297 0
-0.0510557 -0.315649 0
-0.0300829 -0.269174 0
0.176999 -0.48283 0
0.15233 -0.39932 0
0.453837 -0.425218 0
0.371105 -0.350846 0
0.596263 -0.180937 0
0.481471 -0.155828 0
0.510029 0.0883621 0
0.410395 0.0566818 0
0.252199 0.204474 0
0.204909 0.146058 0
-0.00661075 0.090563 0
0.000992569 0.0531575 0
-0.095136 -0.177992 0
-0.0664153 -0.160545 0
-0.143457 -0.00545214 0
0.471611 -0.259679 0
-0.246188 -0.146924 0
0.670677 -0.124707 0
-0.209793 -0.317931 0
0.703573 0.113541 0
-0.0583577 -0.405311 0
0.548532 0.297408 0
0.107908 -0.351241 0
0.30815 0.30522 0
0.17898 -0.191501 0
0.141498 0.13181 0
0.107826 -0.0317981 0
0.158854 -0.108072 0
-0.0584672 0.0221869 0
0.348735 -0.255686 0
-0.209858 -0.0652703 0
0.585488 -0.21335 0
-0.246165 -0.236296 0
0.712445 -0.00907909 0
-0.143362 -0.377715 0
0.645594 0.221952 0
0.0305217 -0.395946 0
0.429172 0.326861 0
0.160421 -0.278924 0
0.206394 0.236227 0
0.160376 -0.104088 0
0.124682 0.0100241 0
0.030417 0.0128678 0
0.238107 -0.202059 0
-0.117935 0.370931 0
0.149092 0.229952 0
-0.429083 0.378891 0
0.0336059 0.356328 0
-0.643197 0.152989 0
-0.137585 0.355067 0
-0.61859 -0.157287 0
-0.251198 0.227003 0
-0.371544 -0.346615 0
-0.232049 0.0568815 0
-0.0655406 -0.28971 0
-0.0928115 -0.0427222 0
0.096927 -0.0242273 0
0.0743767 -0.00589611 0
0.00834723 0.274152 0
0.15888 0.14299 0
-0.272663 0.407979 0
0.10478 0.305413 0
-0.560149 0.288695 0
-0.0521238 0.373891 0
-0.663869 -0.00476437 0
-0.208002 0.30311 0
-0.515188 -0.278206 0
-0.259704 0.139907 0
-0.212495 -0.350684 0
-0.173016 -0.0077183 0
0.0439082 -0.174235 0
-0.00530359 -0.0420776 0
0.0843483 0.134376 0
0.132452 0.0595662 0
