# vtk DataFile Version 3.0
tp3485 cell-vector
ASCII
DATASET UNSTRUCTURED_GRID
POINTS 121 double
0 0 0
0.125 0 0
0.114193 0.0508421 0
0.0836413 0.0928931 0
0.0386271 0.118882 0
-0.0130661 0.124315 0
-0.0625 0.108253 0
-0.101127 0.0734732 0
-0.122268 0.025989 0
-0.122268 -0.025989 0
-0.101127 -0.0734732 0
-0.0625 -0.108253 0
-0.0130661 -0.124315 0
0.0386271 -0.118882 0
0.0836413 -0.0928931 0
0.114193 -0.0508421 0
0.25 0 0
0.228386 0.101684 0
0.167283 0.185786 0
0.0772542 0.237764 0
-0.0261321 0.24863 0
-0.125 0.216506 0
-0.202254 0.146946 0
-0.244537 0.0519779 0
-0.244537 -0.0519779 0
-0.202254 -0.146946 0
-0.125 -0.216506 0
-0.0261321 -0.24863 0
0.0772542 -0.237764 0
0.167283 -0.185786 0
0.228386 -0.101684 0
0.375 0 0
0.34258 0.152526 0
0.250924 0.278679 0
0.115881 0.356646 0
-0.0391982 0.372946 0
-0.1875 0.32476 0
-0.303381 0.220419 0
-0.366805 0.0779669 0
-0.366805 -0.0779669 0
-0.303381 -0.220419 0
-0.1875 -0.32476 0
-0.0391982 -0.372946 0
0.115881 -0.356646 0
0.250924 -0.278679 0
0.34258 -0.152526 0
0.5 0 0
0.456773 0.203368 0
0.334565 0.371572 0
0.154508 0.475528 0
-0.0522642 0.497261 0
-0.25 0.433013 0
-0.404508 0.293893 0
-0.489074 0.103956 0
-0.489074 -0.103956 0
-0.404508 -0.293893 0
-0.25 -0.433013 0
-0.0522642 -0.497261 0
0.154508 -0.475528 0
0.334565 -0.371572 0
0.456773 -0.203368 0
0.625 0 0
0.570966 0.25421 0
0.418207 0.464466 0
0.193136 0.59441 0
-0.0653303 0.621576 0
-0.3125 0.541266 0
-0.505636 0.367366 0
-0.611342 0.129945 0
-0.611342 -0.129945 0
-0.505636 -0.367366 0
-0.3125 -0.541266 0
-0.0653303 -0.621576 0
0.193136 -0.59441 0
0.418207 -0.464466 0
0.570966 -0.25421 0
0.75 0 0
0.685159 0.305052 0
0.501848 0.557359 0
0.231763 0.713292 0
-0.0783963 0.745891 0
-0.375 0.649519 0
-0.606763 0.440839 0
-0.733611 0.155934 0
-0.733611 -0.155934 0
-0.606763 -0.440839 0
-0.375 -0.649519 0
-0.0783963 -0.745891 0
0.231763 -0.713292 0
0.501848 -0.557359 0
0.685159 -0.305052 0
0.875 0 0
0.799352 0.355895 0
0.585489 0.650252 0
0.27039 0.832174 0
-0.0914624 0.870207 0
-0.4375 0.757772 0
-0.70789 0.514312 0
-0.855879 0.181923 0
-0.855879 -0.181923 0
-0.70789 -0.514312 0
-0.4375 -0.757772 0
-0.0914624 -0.870207 0
0.27039 -0.832174 0
0.585489 -0.650252 0
0.799352 -0.355895 0
1 0 0
0.913545 0.406737 0
0.669131 0.743145 0
0.309017 0.951057 0
-0.104528 0.994522 0
-0.5 0.866025 0
-0.809017 0.587785 0
-0.978148 0.207912 0
-0.978148 -0.207912 0
-0.809017 -0.587785 0
-0.5 -0.866025 0
-0.104528 -0.994522 0
0.309017 -0.951057 0
0.669131 -0.743145 0
0.913545 -0.406737 0
CELLS 225 900
3 0 1 2
3 0 2 3
3 0 3 4
3 0 4 5
3 0 5 6
3 0 6 7
3 0 7 8
3 0 8 9
3 0 9 10
3 0 10 11
3 0 11 12
3 0 12 13
3 0 13 14
3 0 14 15
3 0 15 1
3 1 16 17
3 1 17 2
3 2 17 18
3 2 18 3
3 3 18 19
3 3 19 4
3 4 19 20
3 4 20 5
3 5 20 21
3 5 21 6
3 6 21 22
3 6 22 7
3 7 22 23
3 7 23 8
3 8 23 24
3 8 24 9
3 9 24 25
3 9 25 10
3 10 25 26
3 10 26 11
3 11 26 27
3 11 27 12
3 12 27 28
3 12 28 13
3 13 28 29
3 13 29 14
3 14 29 30
3 14 30 15
3 15 30 16
3 15 16 1
3 16 31 32
3 16 32 17
3 17 32 33
3 17 33 18
3 18 33 34
3 18 34 19
3 19 34 35
3 19 35 20
3 20 35 36
3 20 36 21
3 21 36 37
3 21 37 22
3 22 37 38
3 22 38 23
3 23 38 39
3 23 39 24
3 24 39 40
3 24 40 25
3 25 40 41
3 25 41 26
3 26 41 42
3 26 42 27
3 27 42 43
3 27 43 28
3 28 43 44
3 28 44 29
3 29 44 45
3 29 45 30
3 30 45 31
3 30 31 16
3 31 46 47
3 31 47 32
3 32 47 48
3 32 48 33
3 33 48 49
3 33 49 34
3 34 49 50
3 34 50 35
3 35 50 51
3 35 51 36
3 36 51 52
3 36 52 37
3 37 52 53
3 37 53 38
3 38 53 54
3 38 54 39
3 39 54 55
3 39 55 40
3 40 55 56
3 40 56 41
3 41 56 57
3 41 57 42
3 42 57 58
3 42 58 43
3 43 58 59
3 43 59 44
3 44 59 60
3 44 60 45
3 45 60 46
3 45 46 31
3 46 61 62
3 46 62 47
3 47 62 63
3 47 63 48
3 48 63 64
3 48 64 49
3 49 64 65
3 49 65 50
3 50 65 66
3 50 66 51
3 51 66 67
3 51 67 52
3 52 67 68
3 52 68 53
3 53 68 69
3 53 69 54
3 54 69 70
3 54 70 55
3 55 70 71
3 55 71 56
3 56 71 72
3 56 72 57
3 57 72 73
3 57 73 58
3 58 73 74
3 58 74 59
3 59 74 75
3 59 75 60
3 60 75 61
3 60 61 46
3 61 76 77
3 61 77 62
3 62 77 78
3 62 78 63
3 63 78 79
3 63 79 64
3 64 79 80
3 64 80 65
3 65 80 81
3 65 81 66
3 66 81 82
3 66 82 67
3 67 82 83
3 67 83 68
3 68 83 84
3 68 84 69
3 69 84 85
3 69 85 70
3 70 85 86
3 70 86 71
3 71 86 87
3 71 87 72
3 72 87 88
3 72 88 73
3 73 88 89
3 73 89 74
3 74 89 90
3 74 90 75
3 75 90 76
3 75 76 61
3 76 91 92
3 76 92 77
3 77 92 93
3 77 93 78
3 78 93 94
3 78 94 79
3 79 94 95
3 79 95 80
3 80 95 96
3 80 96 81
3 81 96 97
3 81 97 82
3 82 97 98
3 82 98 83
3 83 98 99
3 83 99 84
3 84 99 100
3 84 100 85
3 85 100 101
3 85 101 86
3 86 101 102
3 86 102 87
3 87 102 103
3 87 103 88
3 88 103 104
3 88 104 89
3 89 104 105
3 89 105 90
3 90 105 91
3 90 91 76
3 91 106 107
3 91 107 92
3 92 107 108
3 92 108 93
3 93 108 109
3 93 109 94
3 94 109 110
3 94 110 95
3 95 110 111
3 95 111 96
3 96 111 112
3 96 112 97
3 97 112 113
3 97 113 98
3 98 113 114
3 98 114 99
3 99 114 115
3 99 115 100
3 100 115 116
3 100 116 101
3 101 116 117
3 101 117 102
3 102 117 118
3 102 118 103
3 103 118 119
3 103 119 104
3 104 119 120
3 104 120 105
3 105 120 106
3 105 106 91
CELL_TYPES 225
5
5
5
5
5
5
5
5
5
5
5
5
5
5
5
5
5
5
5
5
5
5
5
5
5
5
5
5
5
5
5
5
5
5
5
5
5
5
5
5
5
5
5
5
5
5
5
5
5
5
5
5
5
5
5
5
5
5
5
5
5
5
5
5
5
5
5
5
5
5
5
5
5
5
5
5
5
5
5
5
5
5
5
5
5
5
5
5
5
5
5
5
5
5
5
5
5
5
5
5
5
5
5
5
5
5
5
5
5
5
5
5
5
5
5
5
5
5
5
5
5
5
5
5
5
5
5
5
5
5
5
5
5
5
5
5
5
5
5
5
5
5
5
5
5
5
5
5
5
5
5
5
5
5
5
5
5
5
5
5
5
5
5
5
5
5
5
5
5
5
5
5
5
5
5
5
5
5
5
5
5
5
5
5
5
5
5
5
5
5
5
5
5
5
5
5
5
5
5
5
5
5
5
5
5
5
5
5
5
5
5
5
5
5
5
5
5
5
5
5
5
5
5
5
5
CELL_DATA 225
VECTORS Et double
0.670764 -0.543136 0
0.588822 -0.547597 0
0.537307 -0.611478 0
0.550309 -0.692505 0
0.619225 -0.737061 0
0.698449 -0.71566 0
0.735557 -0.642465 0
0.705992 -0.565911 0
0.629319 -0.536658 0
0.556275 -0.574063 0
0.535197 -0.653373 0
0.580032 -0.722107 0
0.661111 -0.73478 0
0.724782 -0.683006 0
0.72891 -0.601046 0
0.425242 0.0119037 0
0.529241 -0.329386 0
0.147927 -0.00985093 0
0.42617 -0.328941 0
-0.0214662 -0.230493 0
0.35687 -0.40524 0
0.0291566 -0.504015 0
0.367201 -0.507794 0
0.266296 -0.649416 0
0.450326 -0.568738 0
0.533028 -0.57048 0
0.551238 -0.547744 0
0.652845 -0.319441 0
0.60316 -0.458704 0
0.546461 -0.0624214 0
0.571732 -0.360539 0
0.284272 0.0304989 0
0.477753 -0.318209 0
0.039781 -0.102169 0
0.383411 -0.359726 0
-0.0252242 -0.372634 0
0.351137 -0.457615 0
0.132273 -0.601918 0
0.402287 -0.5471 0
0.408051 -0.638296 0
0.503014 -0.568966 0
0.619617 -0.457695 0
0.586662 -0.508742 0
0.626969 -0.179625 0
0.597879 -0.406281 0
0.13586 0.542209 0
0.180094 0.27881 0
-0.284769 0.525815 0
-0.103265 0.26066 0
-0.554042 0.202258 0
-0.279381 0.0379384 0
-0.49377 -0.214353 0
-0.231712 -0.241971 0
-0.143839 -0.44833 0
0.00819883 -0.393842 0
0.26419 -0.344841 0
0.281592 -0.317175 0
0.460307 0.0276312 0
0.407554 -0.0627038 0
0.314734 0.422607 0
0.302729 0.201178 0
-0.0761971 0.578716 0
0.0364854 0.29985 0
-0.453793 0.392654 0
-0.214994 0.168016 0
-0.568183 -0.0124533 0
-0.285295 -0.107083 0
-0.343671 -0.368532 0
-0.127897 -0.343404 0
0.0711743 -0.43995 0
0.153044 -0.384564 0
0.401834 -0.179448 0
0.371618 -0.203326 0
0.429498 0.24059 0
0.383186 0.0803777 0
-0.00901074 0.655667 0
-0.209341 0.663012 0
-0.361605 0.68769 0
-0.57448 0.59861 0
-0.621335 0.447089 0
-0.770946 0.284166 0
-0.616327 0.0930791 0
-0.66873 -0.0722412 0
-0.349895 -0.140078 0
-0.335472 -0.234763 0
0.00165263 -0.0980935 0
0.00829816 -0.0958516 0
0.205683 0.191251 0
0.135094 0.252569 0
0.127181 0.536484 0
-0.0389896 0.579936 0
-0.181905 0.709152 0
-0.398755 0.669617 0
-0.517041 0.594994 0
-0.706132 0.462268 0
-0.656455 0.269552 0
-0.757716 0.0950989 0
-0.507891 -0.0518156 0
-0.519373 -0.18892 0
-0.169659 -0.156448 0
-0.148824 -0.201842 0
0.134419 0.0248946 0
0.108726 0.064883 0
0.203123 0.37221 0
0.0828443 0.434754 0
0.0389598 0.267937 0
-0.43451 0.528155 0
-0.030824 0.360449 0
-0.672016 0.415557 0
-0.146268 0.370492 0
-0.747263 0.163714 0
-0.230979 0.29142 0
-0.610457 -0.0607221 0
-0.2289 0.175558 0
-0.352127 -0.109232 0
-0.141407 0.0995768 0
-0.143221 0.050285 0
-0.0263972 0.113755 0
-0.121979 0.31227 0
0.0400226 0.208711 0
-0.302459 0.503358 0
0.0138999 0.321609 0
-0.56523 0.497098 0
-0.0874788 0.377739 0
-0.736405 0.297633 0
-0.197027 0.339959 0
-0.702712 0.0369562 0
-0.242253 0.233268 0
-0.486447 -0.112432 0
-0.193229 0.128269 0
-0.230721 -0.0516757 0
-0.0823951 0.0944431 0
-0.104757 0.17902 0
0.0169045 0.154174 0
-0.191911 0.426995 0
0.131905 -0.292722 0
-0.323327 -0.00572909 0
0.362909 -0.201706 0
-0.286577 -0.10895 0
0.449842 0.0308642 0
-0.185278 -0.150708 0
0.335179 0.251088 0
-0.0864641 -0.103369 0
0.0947958 0.313236 0
-0.0555238 0.00173929 0
-0.112236 0.176181 0
-0.112932 0.0950639 0
-0.148916 -0.0693818 0
-0.220699 0.114848 0
0.00902846 -0.260954 0
-0.307511 0.0479994 0
0.25708 -0.271764 0
-0.315922 -0.0612454 0
0.431093 -0.0946601 0
-0.240366 -0.140595 0
0.415916 0.153163 0
-0.13084 -0.13754 0
0.221592 0.30771 0
-0.0598232 -0.0541034 0
-0.0232863 0.266711 0
-0.0743094 0.0545028 0
-0.156674 0.0572978 0
-0.164713 0.116409 0
-0.0903039 -0.181954 0
-0.27121 0.09065 0
0.0597112 -0.503281 0
0.100084 -0.448776 0
0.33712 -0.520397 0
0.341418 -0.442501 0
0.535463 -0.325696 0
0.498239 -0.258955 0
0.523488 -0.0480172 0
0.466772 -0.0195991 0
0.30912 0.128887 0
0.26784 0.117177 0
0.034215 0.0879527 0
0.0330841 0.0608626 0
-0.119313 -0.143732 0
-0.0821486 -0.151277 0
-0.0498672 -0.412853 0
-0.00160412 -0.37886 0
0.196597 -0.541322 0
0.221418 -0.471287 0
0.456984 -0.444126 0
0.439336 -0.367395 0
0.558987 -0.185584 0
0.507944 -0.135933 0
0.435105 0.0632175 0
0.381842 0.0699311 0
0.167317 0.137636 0
0.144477 0.113969 0
-0.0671719 -0.0115731 0
-0.0470781 -0.0329603 0
-0.113192 -0.285673 0
-0.0660636 -0.273629 0
-0.182611 -0.125479 0
0.495044 -0.347151 0
-0.193291 -0.278059 0
0.676213 -0.190147 0
-0.0870487 -0.388093 0
0.680762 0.0495428 0
0.0658124 -0.382766 0
0.505682 0.213308 0
0.164138 -0.265603 0
0.266829 0.192778 0
0.142862 -0.114137 0
0.122262 0.0015383 0
0.0160633 -0.0285966 0
0.167647 -0.23386 0
-0.13235 -0.0655888 0
0.37295 -0.357645 0
-0.204167 -0.200634 0
0.602315 -0.287903 0
-0.151864 -0.344367 0
0.703962 -0.0707858 0
-0.010052 -0.401675 0
0.610627 0.150033 0
0.127427 -0.334634 0
0.384074 0.228428 0
0.169597 -0.187609 0
0.174221 0.112522 0
0.0885535 -0.0578907 0
0.119937 -0.120984 0
-0.0620747 -0.0313196 0
0.257143 -0.317572 0
