# vtk DataFile Version 3.0
tp3485 cell-vector
ASCII
DATASET UNSTRUCTURED_GRID
POINTS 121 double
0 0 0
0.125 0 0
0.114193 0.0508421 0
0.0836413 0.0928931 0
0.0386271 0.118882 0
-0.0130661 0.124315 0
-0.0625 0.108253 0
-0.101127 0.0734732 0
-0.122268 0.025989 0
-0.122268 -0.025989 0
-0.101127 -0.0734732 0
-0.0625 -0.108253 0
-0.0130661 -0.124315 0
0.0386271 -0.118882 0
0.0836413 -0.0928931 0
0.114193 -0.0508421 0
0.25 0 0
0.228386 0.101684 0
0.167283 0.185786 0
0.0772542 0.237764 0
-0.0261321 0.24863 0
-0.125 0.216506 0
-0.202254 0.146946 0
-0.244537 0.0519779 0
-0.244537 -0.0519779 0
-0.202254 -0.146946 0
-0.125 -0.216506 0
-0.0261321 -0.24863 0
0.0772542 -0.237764 0
0.167283 -0.185786 0
0.228386 -0.101684 0
0.375 0 0
0.34258 0.152526 0
0.250924 0.278679 0
0.115881 0.356646 0
-0.0391982 0.372946 0
-0.1875 0.32476 0
-0.303381 0.220419 0
-0.366805 0.0779669 0
-0.366805 -0.0779669 0
-0.303381 -0.220419 0
-0.1875 -0.32476 0
-0.0391982 -0.372946 0
0.115881 -0.356646 0
0.250924 -0.278679 0
0.34258 -0.152526 0
0.5 0 0
0.456773 0.203368 0
0.334565 0.371572 0
0.154508 0.475528 0
-0.0522642 0.497261 0
-0.25 0.433013 0
-0.404508 0.293893 0
-0.489074 0.103956 0
-0.489074 -0.103956 0
-0.404508 -0.293893 0
-0.25 -0.433013 0
-0.0522642 -0.497261 0
0.154508 -0.475528 0
0.334565 -0.371572 0
0.456773 -0.203368 0
0.625 0 0
0.570966 0.25421 0
0.418207 0.464466 0
0.193136 0.59441 0
-0.0653303 0.621576 0
-0.3125 0.541266 0
-0.505636 0.367366 0
-0.611342 0.129945 0
-0.611342 -0.129945 0
-0.505636 -0.367366 0
-0.3125 -0.541266 0
-0.0653303 -0.621576 0
0.193136 -0.59441 0
0.418207 -0.464466 0
0.570966 -0.25421 0
0.75 0 0
0.685159 0.305052 0
0.501848 0.557359 0
0.231763 0.713292 0
-0.0783963 0.745891 0
-0.375 0.649519 0
-0.606763 0.440839 0
-0.733611 0.155934 0
-0.733611 -0.155934 0
-0.606763 -0.440839 0
-0.375 -0.649519 0
-0.0783963 -0.745891 0
0.231763 -0.713292 0
0.501848 -0.557359 0
0.685159 -0.305052 0
0.875 0 0
0.799352 0.355895 0
0.585489 0.650252 0
0.27039 0.832174 0
-0.0914624 0.870207 0
-0.4375 0.757772 0
-0.70789 0.514312 0
-0.855879 0.181923 0
-0.855879 -0.181923 0
-0.70789 -0.514312 0
-0.4375 -0.757772 0
-0.0914624 -0.870207 0
0.27039 -0.832174 0
0.585489 -0.650252 0
0.799352 -0.355895 0
1 0 0
0.913545 0.406737 0
0.669131 0.743145 0
0.309017 0.951057 0
-0.104528 0.994522 0
-0.5 0.866025 0
-0.809017 0.587785 0
-0.978148 0.207912 0
-0.978148 -0.207912 0
-0.809017 -0.587785 0
-0.5 -0.866025 0
-0.104528 -0.994522 0
0.309017 -0.951057 0
0.669131 -0.743145 0
0.913545 -0.406737 0
CELLS 225 900
3 0 1 2
3 0 2 3
3 0 3 4
3 0 4 5
3 0 5 6
3 0 6 7
3 0 7 8
3 0 8 9
3 0 9 10
3 0 10 11
3 0 11 12
3 0 12 13
3 0 13 14
3 0 14 15
3 0 15 1
3 1 16 17
3 1 17 2
3 2 17 18
3 2 18 3
3 3 18 19
3 3 19 4
3 4 19 20
3 4 20 5
3 5 20 21
3 5 21 6
3 6 21 22
3 6 22 7
3 7 22 23
3 7 23 8
3 8 23 24
3 8 24 9
3 9 24 25
3 9 25 10
3 10 25 26
3 10 26 11
3 11 26 27
3 11 27 12
3 12 27 28
3 12 28 13
3 13 28 29
3 13 29 14
3 14 29 30
3 14 30 15
3 15 30 16
3 15 16 1
3 16 31 32
3 16 32 17
3 17 32 33
3 17 33 18
3 18 33 34
3 18 34 19
3 19 34 35
3 19 35 20
3 20 35 36
3 20 36 21
3 21 36 37
3 21 37 22
3 22 37 38
3 22 38 23
3 23 38 39
3 23 39 24
3 24 39 40
3 24 40 25
3 25 40 41
3 25 41 26
3 26 41 42
3 26 42 27
3 27 42 43
3 27 43 28
3 28 43 44
3 28 44 29
3 29 44 45
3 29 45 30
3 30 45 31
3 30 31 16
3 31 46 47
3 31 47 32
3 32 47 48
3 32 48 33
3 33 48 49
3 33 49 34
3 34 49 50
3 34 50 35
3 35 50 51
3 35 51 36
3 36 51 52
3 36 52 37
3 37 52 53
3 37 53 38
3 38 53 54
3 38 54 39
3 39 54 55
3 39 55 40
3 40 55 56
3 40 56 41
3 41 56 57
3 41 57 42
3 42 57 58
3 42 58 43
3 43 58 59
3 43 59 44
3 44 59 60
3 44 60 45
3 45 60 46
3 45 46 31
3 46 61 62
3 46 62 47
3 47 62 63
3 47 63 48
3 48 63 64
3 48 64 49
3 49 64 65
3 49 65 50
3 50 65 66
3 50 66 51
3 51 66 67
3 51 67 52
3 52 67 68
3 52 68 53
3 53 68 69
3 53 69 54
3 54 69 70
3 54 70 55
3 55 70 71
3 55 71 56
3 56 71 72
3 56 72 57
3 57 72 73
3 57 73 58
3 58 73 74
3 58 74 59
3 59 74 75
3 59 75 60
3 60 75 61
3 60 61 46
3 61 76 77
3 61 77 62
3 62 77 78
3 62 78 63
3 63 78 79
3 63 79 64
3 64 79 80
3 64 80 65
3 65 80 81
3 65 81 66
3 66 81 82
3 66 82 67
3 67 82 83
3 67 83 68
3 68 83 84
3 68 84 69
3 69 84 85
3 69 85 70
3 70 85 86
3 70 86 71
3 71 86 87
3 71 87 72
3 72 87 88
3 72 88 73
3 73 88 89
3 73 89 74
3 74 89 90
3 74 90 75
3 75 90 76
3 75 76 61
3 76 91 92
3 76 92 77
3 77 92 93
3 77 93 78
3 78 93 94
3 78 94 79
3 79 94 95
3 79 95 80
3 80 95 96
3 80 96 81
3 81 96 97
3 81 97 82
3 82 97 98
3 82 98 83
3 83 98 99
3 83 99 84
3 84 99 100
3 84 100 85
3 85 100 101
3 85 101 86
3 86 101 102
3 86 102 87
3 87 102 103
3 87 103 88
3 88 103 104
3 88 104 89
3 89 104 105
3 89 105 90
3 90 105 91
3 90 91 76
3 91 106 107
3 91 107 92
3 92 107 108
3 92 108 93
3 93 108 109
3 93 109 94
3 94 109 110
3 94 110 95
3 95 110 111
3 95 111 96
3 96 111 112
3 96 112 97
3 97 112 113
3 97 113 98
3 98 113 114
3 98 114 99
3 99 114 115
3 99 115 100
3 100 115 116
3 100 116 101
3 101 116 117
3 101 117 102
3 102 117 118
3 102 118 103
3 103 118 119
3 103 119 104
3 104 119 120
3 104 120 105
3 105 120 106
3 105 106 91
CELL_TYPES 225
5
5
5
5
5
5
5
5
5
5
5
5
5
5
5
5
5
5
5
5
5
5
5
5
5
5
5
5
5
5
5
5
5
5
5
5
5
5
5
5
5
5
5
5
5
5
5
5
5
5
5
5
5
5
5
5
5
5
5
5
5
5
5
5
5
5
5
5
5
5
5
5
5
5
5
5
5
5
5
5
5
5
5
5
5
5
5
5
5
5
5
5
5
5
5
5
5
5
5
5
5
5
5
5
5
5
5
5
5
5
5
5
5
5
5
5
5
5
5
5
5
5
5
5
5
5
5
5
5
5
5
5
5
5
5
5
5
5
5
5
5
5
5
5
5
5
5
5
5
5
5
5
5
5
5
5
5
5
5
5
5
5
5
5
5
5
5
5
5
5
5
5
5
5
5
5
5
5
5
5
5
5
5
5
5
5
5
5
5
5
5
5
5
5
5
5
5
5
5
5
5
5
5
5
5
5
5
5
5
5
5
5
5
5
5
5
5
5
5
5
5
5
5
5
5
CELL_DATA 225
VECTORS Ht double
0.0738622 -0.347494 0
0.208815 -0.287409 0
0.307662 -0.177629 0
0.353312 -0.0371345 0
0.33787 0.109781 0
0.264008 0.237714 0
0.144496 0.324544 0
1.31826e-14 0.355258 0
-0.144496 0.324544 0
-0.264008 0.237714 0
-0.33787 0.109781 0
-0.353312 -0.0371345 0
-0.307662 -0.177629 0
-0.208815 -0.287409 0
-0.0738622 -0.347494 0
0.115754 -0.751959 0
0.226574 -0.651191 0
0.411596 -0.639867 0
0.471849 -0.502736 0
0.636269 -0.417137 0
0.635537 -0.267354 0
0.750926 -0.12228 0
0.689334 0.0142561 0
0.73574 0.193721 0
0.62394 0.293401 0
0.593339 0.476226 0
0.45066 0.521815 0
0.348344 0.676386 0
0.199458 0.660001 0
0.0431166 0.759594 0
-0.0862331 0.684068 0
-0.269566 0.71146 0
-0.357013 0.589853 0
-0.535637 0.540309 0
-0.566063 0.393647 0
-0.709093 0.275734 0
-0.677235 0.129376 0
-0.759939 -0.0365188 0
-0.671307 -0.157265 0
-0.679386 -0.342457 0
-0.549304 -0.416714 0
-0.48136 -0.589181 0
-0.332321 -0.604109 0
-0.200103 -0.73403 0
-0.057877 -0.687048 0
0.0920982 -0.900569 0
0.346489 -0.929182 0
0.45043 -0.785251 0
0.694466 -0.70792 0
0.730879 -0.534156 0
0.922363 -0.364253 0
0.884952 -0.190701 0
0.990776 0.0423977 0
0.886009 0.185729 0
0.887874 0.441717 0
0.733866 0.530044 0
0.631451 0.76466 0
0.454832 0.78271 0
0.265844 0.955385 0
0.0971532 0.900038 0
-0.14573 0.980917 0
-0.277324 0.861741 0
-0.532105 0.836838 0
-0.60385 0.674442 0
-0.826475 0.548063 0
-0.825965 0.370525 0
-0.97794 0.164523 0
-0.905262 0.0025414 0
-0.96031 -0.247465 0
-0.828032 -0.365882 0
-0.776634 -0.616664 0
-0.607627 -0.671041 0
-0.45867 -0.879236 0
-0.282158 -0.86017 0
-0.0613988 -0.98978 0
0.00219746 -0.754522 0
0.40523 -0.914215 0
0.308899 -0.688396 0
0.742041 -0.670354 0
0.562189 -0.503241 0
0.950546 -0.310584 0
0.718272 -0.23107 0
0.994693 0.102889 0
0.750159 0.0810544 0
0.866848 0.498572 0
0.652336 0.379164 0
0.589118 0.808047 0
0.441719 0.611713 0
0.209523 0.977804 0
0.154724 0.738491 0
-0.206299 0.978489 0
-0.159023 0.737577 0
-0.586451 0.809985 0
-0.445275 0.609129 0
-0.8652 0.501427 0
-0.654534 0.375358 0
-0.994348 0.106167 0
-0.750618 0.0766836 0
-0.951565 -0.307449 0
-0.716914 -0.23525 0
-0.744247 -0.667905 0
-0.559249 -0.506507 0
-0.408242 -0.912874 0
-0.304884 -0.690184 0
-0.0016481 -0.999999 0
-0.116753 -0.375962 0
0.377009 -0.617139 0
0.0462588 -0.390946 0
0.595428 -0.410441 0
0.201272 -0.338332 0
0.710892 -0.132774 0
0.321483 -0.227217 0
0.703436 0.167851 0
0.386107 -0.0768143 0
0.57435 0.439453 0
0.383969 0.0868704 0
0.345953 0.635069 0
0.31544 0.235534 0
0.0577382 0.720876 0
0.192368 0.343472 0
-0.24046 0.682038 0
0.0360343 0.392021 0
-0.497081 0.525268 0
-0.12653 0.372785 0
-0.667752 0.277675 0
-0.267217 0.289092 0
-0.722963 -0.0179302 0
-0.361699 0.155412 0
-0.653166 -0.310435 0
-0.39364 -0.0051404 0
-0.470432 -0.549264 0
-0.357517 -0.164804 0
-0.206355 -0.693119 0
-0.259577 -0.295971 0
0.0934021 -0.717128 0
-0.202106 0.0892271 0
0.252114 -0.152178 0
-0.220925 -0.000690796 0
0.292214 -0.0364778 0
-0.201544 -0.0904892 0
0.281788 0.0855302 0
-0.147314 -0.164641 0
0.222638 0.192749 0
-0.0676125 -0.210325 0
0.124992 0.26664 0
0.0237799 -0.219642 0
0.0057332 0.294427 0
0.111061 -0.190981 0
-0.114517 0.271304 0
0.179138 -0.129297 0
-0.214965 0.201271 0
0.216241 -0.0452571 0
-0.278245 0.0964354 0
0.215953 0.0466085 0
-0.293413 -0.0250742 0
0.178326 0.130415 0
-0.257848 -0.142248 0
0.109864 0.191672 0
-0.177698 -0.234826 0
0.0224059 0.219787 0
-0.0668227 -0.286801 0
-0.0689265 0.209898 0
0.0556068 -0.289185 0
-0.148341 0.163717 0
0.168421 -0.241566 0
-0.193696 0.459338 0
0.0484277 0.299419 0
-0.36378 0.340843 0
-0.0775436 0.29323 0
-0.470963 0.163413 0
-0.190107 0.236339 0
-0.496712 -0.0422727 0
-0.269799 0.138583 0
-0.436575 -0.240649 0
-0.30284 0.0168646 0
-0.30095 -0.397415 0
-0.283518 -0.10777 0
-0.113289 -0.485464 0
-0.215173 -0.21377 0
0.0939617 -0.489572 0
-0.109622 -0.282807 0
0.284965 -0.409029 0
0.0148832 -0.302944 0
0.426696 -0.257761 0
0.136815 -0.2707 0
0.494647 -0.0619233 0
0.23509 -0.191649 0
0.477069 0.144621 0
0.292716 -0.0794601 0
0.377001 0.326159 0
0.299729 0.046468 0
0.211747 0.451302 0
0.254916 0.164361 0
0.00987938 0.49841 0
0.166025 0.253835 0
-0.0685911 0.584099 0
-0.181528 0.555277 0
-0.300236 0.505702 0
-0.391686 0.433437 0
-0.479967 0.339865 0
-0.534118 0.236651 0
-0.576707 0.115262 0
-0.584195 -0.00105357 0
-0.573729 -0.12927 0
-0.533261 -0.238576 0
-0.471549 -0.351451 0
-0.39012 -0.434847 0
-0.287833 -0.512863 0
-0.179524 -0.555928 0
-0.0543487 -0.585596 0
0.0621128 -0.580885 0
0.188533 -0.557074 0
0.29301 -0.505401 0
0.398816 -0.432229 0
0.473243 -0.342529 0
0.54014 -0.232648 0
0.571648 -0.120431 0
0.588069 0.00716042 0
0.57121 0.122492 0
0.534315 0.245731 0
0.472005 0.344234 0
0.388174 0.441812 0
0.291185 0.506455 0
0.174913 0.561499 0
0.0600172 0.581105 0
