# vtk DataFile Version 3.0
tp3485 cell-vector
ASCII
DATASET UNSTRUCTURED_GRID
POINTS 121 double
0 0 0
0.125 0 0
0.114193 0.0508421 0
0.0836413 0.0928931 0
0.0386271 0.118882 0
-0.0130661 0.124315 0
-0.0625 0.108253 0
-0.101127 0.0734732 0
-0.122268 0.025989 0
-0.122268 -0.025989 0
-0.101127 -0.0734732 0
-0.0625 -0.108253 0
-0.0130661 -0.124315 0
0.0386271 -0.118882 0
0.0836413 -0.0928931 0
0.114193 -0.0508421 0
0.25 0 0
0.228386 0.101684 0
0.167283 0.185786 0
0.0772542 0.237764 0
-0.0261321 0.24863 0
-0.125 0.216506 0
-0.202254 0.146946 0
-0.244537 0.0519779 0
-0.244537 -0.0519779 0
-0.202254 -0.146946 0
-0.125 -0.216506 0
-0.0261321 -0.24863 0
0.0772542 -0.237764 0
0.167283 -0.185786 0
0.228386 -0.101684 0
0.375 0 0
0.34258 0.152526 0
0.250924 0.278679 0
0.115881 0.356646 0
-0.0391982 0.372946 0
-0.1875 0.32476 0
-0.303381 0.220419 0
-0.366805 0.0779669 0
-0.366805 -0.0779669 0
-0.303381 -0.220419 0
-0.1875 -0.32476 0
-0.0391982 -0.372946 0
0.115881 -0.356646 0
0.250924 -0.278679 0
0.34258 -0.152526 0
0.5 0 0
0.456773 0.203368 0
0.334565 0.371572 0
0.154508 0.475528 0
-0.0522642 0.497261 0
-0.25 0.433013 0
-0.404508 0.293893 0
-0.489074 0.103956 0
-0.489074 -0.103956 0
-0.404508 -0.293893 0
-0.25 -0.433013 0
-0.0522642 -0.497261 0
0.154508 -0.475528 0
0.334565 -0.371572 0
0.456773 -0.203368 0
0.625 0 0
0.570966 0.25421 0
0.418207 0.464466 0
0.193136 0.59441 0
-0.0653303 0.621576 0
-0.3125 0.541266 0
-0.505636 0.367366 0
-0.611342 0.129945 0
-0.611342 -0.129945 0
-0.505636 -0.367366 0
-0.3125 -0.541266 0
-0.0653303 -0.621576 0
0.193136 -0.59441 0
0.418207 -0.464466 0
0.570966 -0.25421 0
0.75 0 0
0.685159 0.305052 0
0.501848 0.557359 0
0.231763 0.713292 0
-0.0783963 0.745891 0
-0.375 0.649519 0
-0.606763 0.440839 0
-0.733611 0.155934 0
-0.733611 -0.155934 0
-0.606763 -0.440839 0
-0.375 -0.649519 0
-0.0783963 -0.745891 0
0.231763 -0.713292 0
0.501848 -0.557359 0
0.685159 -0.305052 0
0.875 0 0
0.799352 0.355895 0
0.585489 0.650252 0
0.27039 0.832174 0
-0.0914624 0.870207 0
-0.4375 0.757772 0
-0.70789 0.514312 0
-0.855879 0.181923 0
-0.855879 -0.181923 0
-0.70789 -0.514312 0
-0.4375 -0.757772 0
-0.0914624 -0.870207 0
0.27039 -0.832174 0
0.585489 -0.650252 0
0.799352 -0.355895 0
1 0 0
0.913545 0.406737 0
0.669131 0.743145 0
0.309017 0.951057 0
-0.104528 0.994522 0
-0.5 0.866025 0
-0.809017 0.587785 0
-0.978148 0.207912 0
-0.978148 -0.207912 0
-0.809017 -0.587785 0
-0.5 -0.866025 0
-0.104528 -0.994522 0
0.309017 -0.951057 0
0.669131 -0.743145 0
0.913545 -0.406737 0
CELLS 225 900
3 0 1 2
3 0 2 3
3 0 3 4
3 0 4 5
3 0 5 6
3 0 6 7
3 0 7 8
3 0 8 9
3 0 9 10
3 0 10 11
3 0 11 12
3 0 12 13
3 0 13 14
3 0 14 15
3 0 15 1
3 1 16 17
3 1 17 2
3 2 17 18
3 2 18 3
3 3 18 19
3 3 19 4
3 4 19 20
3 4 20 5
3 5 20 21
3 5 21 6
3 6 21 22
3 6 22 7
3 7 22 23
3 7 23 8
3 8 23 24
3 8 24 9
3 9 24 25
3 9 25 10
3 10 25 26
3 10 26 11
3 11 26 27
3 11 27 12
3 12 27 28
3 12 28 13
3 13 28 29
3 13 29 14
3 14 29 30
3 14 30 15
3 15 30 16
3 15 16 1
3 16 31 32
3 16 32 17
3 17 32 33
3 17 33 18
3 18 33 34
3 18 34 19
3 19 34 35
3 19 35 20
3 20 35 36
3 20 36 21
3 21 36 37
3 21 37 22
3 22 37 38
3 22 38 23
3 23 38 39
3 23 39 24
3 24 39 40
3 24 40 25
3 25 40 41
3 25 41 26
3 26 41 42
3 26 42 27
3 27 42 43
3 27 43 28
3 28 43 44
3 28 44 29
3 29 44 45
3 29 45 30
3 30 45 31
3 30 31 16
3 31 46 47
3 31 47 32
3 32 47 48
3 32 48 33
3 33 48 49
3 33 49 34
3 34 49 50
3 34 50 35
3 35 50 51
3 35 51 36
3 36 51 52
3 36 52 37
3 37 52 53
3 37 53 38
3 38 53 54
3 38 54 39
3 39 54 55
3 39 55 40
3 40 55 56
3 40 56 41
3 41 56 57
3 41 57 42
3 42 57 58
3 42 58 43
3 43 58 59
3 43 59 44
3 44 59 60
3 44 60 45
3 45 60 46
3 45 46 31
3 46 61 62
3 46 62 47
3 47 62 63
3 47 63 48
3 48 63 64
3 48 64 49
3 49 64 65
3 49 65 50
3 50 65 66
3 50 66 51
3 51 66 67
3 51 67 52
3 52 67 68
3 52 68 53
3 53 68 69
3 53 69 54
3 54 69 70
3 54 70 55
3 55 70 71
3 55 71 56
3 56 71 72
3 56 72 57
3 57 72 73
3 57 73 58
3 58 73 74
3 58 74 59
3 59 74 75
3 59 75 60
3 60 75 61
3 60 61 46
3 61 76 77
3 61 77 62
3 62 77 78
3 62 78 63
3 63 78 79
3 63 79 64
3 64 79 80
3 64 80 65
3 65 80 81
3 65 81 66
3 66 81 82
3 66 82 67
3 67 82 83
3 67 83 68
3 68 83 84
3 68 84 69
3 69 84 85
3 69 85 70
3 70 85 86
3 70 86 71
3 71 86 87
3 71 87 72
3 72 87 88
3 72 88 73
3 73 88 89
3 73 89 74
3 74 89 90
3 74 90 75
3 75 90 76
3 75 76 61
3 76 91 92
3 76 92 77
3 77 92 93
3 77 93 78
3 78 93 94
3 78 94 79
3 79 94 95
3 79 95 80
3 80 95 96
3 80 96 81
3 81 96 97
3 81 97 82
3 82 97 98
3 82 98 83
3 83 98 99
3 83 99 84
3 84 99 100
3 84 100 85
3 85 100 101
3 85 101 86
3 86 101 102
3 86 102 87
3 87 102 103
3 87 103 88
3 88 103 104
3 88 104 89
3 89 104 105
3 89 105 90
3 90 105 91
3 90 91 76
3 91 106 107
3 91 107 92
3 92 107 108
3 92 108 93
3 93 108 109
3 93 109 94
3 94 109 110
3 94 110 95
3 95 110 111
3 95 111 96
3 96 111 112
3 96 112 97
3 97 112 113
3 97 113 98
3 98 113 114
3 98 114 99
3 99 114 115
3 99 115 100
3 100 115 116
3 100 116 101
3 101 116 117
3 101 117 102
3 102 117 118
3 102 118 103
3 103 118 119
3 103 119 104
3 104 119 120
3 104 120 105
3 105 120 106
3 105 106 91
CELL_TYPES 225
5
5
5
5
5
5
5
5
5
5
5
5
5
5
5
5
5
5
5
5
5
5
5
5
5
5
5
5
5
5
5
5
5
5
5
5
5
5
5
5
5
5
5
5
5
5
5
5
5
5
5
5
5
5
5
5
5
5
5
5
5
5
5
5
5
5
5
5
5
5
5
5
5
5
5
5
5
5
5
5
5
5
5
5
5
5
5
5
5
5
5
5
5
5
5
5
5
5
5
5
5
5
5
5
5
5
5
5
5
5
5
5
5
5
5
5
5
5
5
5
5
5
5
5
5
5
5
5
5
5
5
5
5
5
5
5
5
5
5
5
5
5
5
5
5
5
5
5
5
5
5
5
5
5
5
5
5
5
5
5
5
5
5
5
5
5
5
5
5
5
5
5
5
5
5
5
5
5
5
5
5
5
5
5
5
5
5
5
5
5
5
5
5
5
5
5
5
5
5
5
5
5
5
5
5
5
5
5
5
5
5
5
5
5
5
5
5
5
5
5
5
5
5
5
5
CELL_DATA 225
VECTORS Ht double
0.102521 -0.482321 0
0.289835 -0.398924 0
0.427034 -0.246548 0
0.490395 -0.0515426 0
0.468963 0.152375 0
0.366442 0.329946 0
0.200561 0.450466 0
-1.89249e-14 0.493097 0
-0.200561 0.450466 0
-0.366442 0.329946 0
-0.468963 0.152375 0
-0.490395 -0.0515426 0
-0.427034 -0.246548 0
-0.289835 -0.398924 0
-0.102521 -0.482321 0
0.110457 -0.8468 0
0.32135 -0.857547 0
0.445332 -0.728663 0
0.642364 -0.652704 0
0.703205 -0.484534 0
0.852307 -0.335002 0
0.839487 -0.156625 0
0.914879 0.0406251 0
0.830615 0.198366 0
0.819259 0.409228 0
0.678122 0.519058 0
0.581983 0.707071 0
0.408375 0.75 0
0.244076 0.882655 0
0.0680167 0.85126 0
-0.136033 0.90562 0
-0.284102 0.80533 0
-0.492622 0.771995 0
-0.587098 0.620151 0
-0.764031 0.504886 0
-0.788578 0.327742 0
-0.903333 0.150477 0
-0.853707 -0.0213368 0
-0.88644 -0.229951 0
-0.771221 -0.366726 0
-0.716273 -0.570619 0
-0.555385 -0.648705 0
-0.422257 -0.812621 0
-0.243517 -0.818517 0
-0.0552283 -0.914113 0
-0.0259715 -0.598686 0
0.422493 -0.906366 0
0.219781 -0.55749 0
0.754619 -0.656163 0
0.427532 -0.419899 0
0.956264 -0.292504 0
0.561358 -0.209704 0
0.992563 0.121732 0
0.598121 0.0367505 0
0.857238 0.51492 0
0.531463 0.276851 0
0.57369 0.819073 0
0.37291 0.469081 0
0.190945 0.981601 0
0.149878 0.580203 0
-0.224816 0.974401 0
-0.0990698 0.591003 0
-0.601705 0.798719 0
-0.330887 0.499612 0
-0.874553 0.48493 0
-0.505491 0.321835 0
-0.996183 0.0872933 0
-0.592691 0.0884089 0
-0.945564 -0.325438 0
-0.577409 -0.160304 0
-0.731448 -0.681897 0
-0.462288 -0.381298 0
-0.390858 -0.920451 0
-0.267233 -0.536363 0
0.0173143 -0.99985 0
-0.188636 0.031792 0
0.322566 -0.376661 0
-0.185258 -0.0476816 0
0.44788 -0.212898 0
-0.149848 -0.118911 0
0.495752 -0.0123223 0
-0.0885276 -0.169579 0
0.457904 0.190384 0
-0.0119 -0.190925 0
0.34088 0.360171 0
0.0667852 -0.179259 0
0.164915 0.467681 0
0.133923 -0.136598 0
-0.0395655 0.494325 0
0.177904 -0.0703168 0
-0.237205 0.435495 0
0.191123 0.00812231 0
-0.393829 0.301365 0
0.171296 0.085157 0
-0.482357 0.115126 0
0.121851 0.147467 0
-0.487481 -0.0910197 0
0.0513356 0.184279 0
-0.408315 -0.281427 0
-0.0280557 0.189227 0
-0.258548 -0.423173 0
-0.102596 0.161457 0
-0.064075 -0.491749 0
-0.159396 0.105768 0
0.141477 -0.475296 0
-0.179056 0.514626 0
0.023398 0.299627 0
-0.372893 0.397306 0
-0.100494 0.28324 0
-0.502253 0.211288 0
-0.20701 0.217878 0
-0.54477 -0.011264 0
-0.277732 0.114843 0
-0.49309 -0.231868 0
-0.300432 -0.00804979 0
-0.356151 -0.41238 0
-0.271184 -0.12955 0
-0.15763 -0.521587 0
-0.195046 -0.228651 0
0.0681462 -0.540608 0
-0.0851827 -0.288215 0
0.28214 -0.466152 0
0.0394094 -0.297945 0
0.447349 -0.311095 0
0.157187 -0.256157 0
0.535207 -0.102246 0
0.247786 -0.170077 0
0.530523 0.124282 0
0.29554 -0.0545894 0
0.434107 0.32932 0
0.292193 0.0703372 0
0.26263 0.477416 0
0.238323 0.183102 0
0.0457417 0.542963 0
0.143245 0.264206 0
0.067222 0.431225 0
-0.308815 0.555883 0
-0.113985 0.421286 0
-0.508214 0.382218 0
-0.275483 0.338502 0
-0.619739 0.142464 0
-0.389347 0.197188 0
-0.624105 -0.121923 0
-0.43589 0.0217784 0
-0.520558 -0.365229 0
-0.407063 -0.157397 0
-0.327001 -0.545383 0
-0.307852 -0.309357 0
-0.0769034 -0.631235 0
-0.15541 -0.407826 0
0.186492 -0.607942 0
0.0239038 -0.435778 0
0.417641 -0.479529 0
0.199084 -0.388381 0
0.576576 -0.268202 0
0.339841 -0.273829 0
0.635816 -0.0105001 0
0.421837 -0.111929 0
0.585118 0.249017 0
0.430892 0.0693241 0
0.433247 0.465477 0
0.365443 0.23859 0
0.206464 0.601452 0
0.236806 0.366602 0
-0.0560183 0.633431 0
0.316928 -0.116856 0
-0.380428 0.186572 0
0.337058 0.0221526 0
-0.423424 0.0157083 0
0.298907 0.157331 0
-0.393206 -0.157872 0
0.209073 0.265306 0
-0.295 -0.304154 0
0.0830882 0.327406 0
-0.145785 -0.397846 0
-0.0572633 0.332896 0
0.0286376 -0.422746 0
-0.187714 0.280824 0
0.198108 -0.37455 0
-0.285706 0.180196 0
0.333324 -0.261591 0
-0.334298 0.0484098 0
0.410905 -0.1034 0
-0.325086 -0.0917467 0
0.417437 0.0726697 0
-0.259664 -0.216039 0
0.35179 0.236174 0
-0.149344 -0.302977 0
0.225316 0.358842 0
-0.0132009 -0.337527 0
0.0598821 0.419462 0
0.125225 -0.313715 0
-0.115906 0.407554 0
0.241998 -0.23566 0
-0.271652 0.325176 0
0.173282 -0.483965 0
-0.00236309 -0.367469 0
0.355147 -0.371644 0
0.147304 -0.336661 0
0.475605 -0.195062 0
0.271501 -0.247641 0
0.513825 0.0152476 0
0.348753 -0.115802 0
0.463201 0.222921 0
0.365703 0.0360608 0
0.332485 0.392049 0
0.319419 0.181688 0
0.144279 0.493389 0
0.217905 0.2959 0
-0.0688735 0.509417 0
0.0787125 0.358947 0
-0.270117 0.437362 0
-0.0740896 0.35993 0
-0.424656 0.289683 0
-0.214081 0.298678 0
-0.505767 0.0919159 0
-0.317056 0.185781 0
-0.499427 -0.121745 0
-0.365209 0.0407611 0
-0.406731 -0.314354 0
-0.350214 -0.111307 0
-0.243708 -0.45261 0
-0.274664 -0.244129 0
-0.0385453 -0.512604 0
-0.151622 -0.334738 0
