# vtk DataFile Version 3.0
tp3485 cell-vector
ASCII
DATASET UNSTRUCTURED_GRID
POINTS 121 double
0 0 0
0.125 0 0
0.114193 0.0508421 0
0.0836413 0.0928931 0
0.0386271 0.118882 0
-0.0130661 0.124315 0
-0.0625 0.108253 0
-0.101127 0.0734732 0
-0.122268 0.025989 0
-0.122268 -0.025989 0
-0.101127 -0.0734732 0
-0.0625 -0.108253 0
-0.0130661 -0.124315 0
0.0386271 -0.118882 0
0.0836413 -0.0928931 0
0.114193 -0.0508421 0
0.25 0 0
0.228386 0.101684 0
0.167283 0.185786 0
0.0772542 0.237764 0
-0.0261321 0.24863 0
-0.125 0.216506 0
-0.202254 0.146946 0
-0.244537 0.0519779 0
-0.244537 -0.0519779 0
-0.202254 -0.146946 0
-0.125 -0.216506 0
-0.0261321 -0.24863 0
0.0772542 -0.237764 0
0.167283 -0.185786 0
0.228386 -0.101684 0
0.375 0 0
0.34258 0.152526 0
0.250924 0.278679 0
0.115881 0.356646 0
-0.0391982 0.372946 0
-0.1875 0.32476 0
-0.303381 0.220419 0
-0.366805 0.0779669 0
-0.366805 -0.0779669 0
-0.303381 -0.220419 0
-0.1875 -0.32476 0
-0.0391982 -0.372946 0
0.115881 -0.356646 0
0.250924 -0.278679 0
0.34258 -0.152526 0
0.5 0 0
0.456773 0.203368 0
0.334565 0.371572 0
0.154508 0.475528 0
-0.0522642 0.497261 0
-0.25 0.433013 0
-0.404508 0.293893 0
-0.489074 0.103956 0
-0.489074 -0.103956 0
-0.404508 -0.293893 0
-0.25 -0.433013 0
-0.0522642 -0.497261 0
0.154508 -0.475528 0
0.334565 -0.371572 0
0.456773 -0.203368 0
0.625 0 0
0.570966 0.25421 0
0.418207 0.464466 0
0.193136 0.59441 0
-0.0653303 0.621576 0
-0.3125 0.541266 0
-0.505636 0.367366 0
-0.611342 0.129945 0
-0.611342 -0.129945 0
-0.505636 -0.367366 0
-0.3125 -0.541266 0
-0.0653303 -0.621576 0
0.193136 -0.59441 0
0.418207 -0.464466 0
0.570966 -0.25421 0
0.75 0 0
0.685159 0.305052 0
0.501848 0.557359 0
0.231763 0.713292 0
-0.0783963 0.745891 0
-0.375 0.649519 0
-0.606763 0.440839 0
-0.733611 0.155934 0
-0.733611 -0.155934 0
-0.606763 -0.440839 0
-0.375 -0.649519 0
-0.0783963 -0.745891 0
0.231763 -0.713292 0
0.501848 -0.557359 0
0.685159 -0.305052 0
0.875 0 0
0.799352 0.355895 0
0.585489 0.650252 0
0.27039 0.832174 0
-0.0914624 0.870207 0
-0.4375 0.757772 0
-0.70789 0.514312 0
-0.855879 0.181923 0
-0.855879 -0.181923 0
-0.70789 -0.514312 0
-0.4375 -0.757772 0
-0.0914624 -0.870207 0
0.27039 -0.832174 0
0.585489 -0.650252 0
0.799352 -0.355895 0
1 0 0
0.913545 0.406737 0
0.669131 0.743145 0
0.309017 0.951057 0
-0.104528 0.994522 0
-0.5 0.866025 0
-0.809017 0.587785 0
-0.978148 0.207912 0
-0.978148 -0.207912 0
-0.809017 -0.587785 0
-0.5 -0.866025 0
-0.104528 -0.994522 0
0.309017 -0.951057 0
0.669131 -0.743145 0
0.913545 -0.406737 0
CELLS 225 900
3 0 1 2
3 0 2 3
3 0 3 4
3 0 4 5
3 0 5 6
3 0 6 7
3 0 7 8
3 0 8 9
3 0 9 10
3 0 10 11
3 0 11 12
3 0 12 13
3 0 13 14
3 0 14 15
3 0 15 1
3 1 16 17
3 1 17 2
3 2 17 18
3 2 18 3
3 3 18 19
3 3 19 4
3 4 19 20
3 4 20 5
3 5 20 21
3 5 21 6
3 6 21 22
3 6 22 7
3 7 22 23
3 7 23 8
3 8 23 24
3 8 24 9
3 9 24 25
3 9 25 10
3 10 25 26
3 10 26 11
3 11 26 27
3 11 27 12
3 12 27 28
3 12 28 13
3 13 28 29
3 13 29 14
3 14 29 30
3 14 30 15
3 15 30 16
3 15 16 1
3 16 31 32
3 16 32 17
3 17 32 33
3 17 33 18
3 18 33 34
3 18 34 19
3 19 34 35
3 19 35 20
3 20 35 36
3 20 36 21
3 21 36 37
3 21 37 22
3 22 37 38
3 22 38 23
3 23 38 39
3 23 39 24
3 24 39 40
3 24 40 25
3 25 40 41
3 25 41 26
3 26 41 42
3 26 42 27
3 27 42 43
3 27 43 28
3 28 43 44
3 28 44 29
3 29 44 45
3 29 45 30
3 30 45 31
3 30 31 16
3 31 46 47
3 31 47 32
3 32 47 48
3 32 48 33
3 33 48 49
3 33 49 34
3 34 49 50
3 34 50 35
3 35 50 51
3 35 51 36
3 36 51 52
3 36 52 37
3 37 52 53
3 37 53 38
3 38 53 54
3 38 54 39
3 39 54 55
3 39 55 40
3 40 55 56
3 40 56 41
3 41 56 57
3 41 57 42
3 42 57 58
3 42 58 43
3 43 58 59
3 43 59 44
3 44 59 60
3 44 60 45
3 45 60 46
3 45 46 31
3 46 61 62
3 46 62 47
3 47 62 63
3 47 63 48
3 48 63 64
3 48 64 49
3 49 64 65
3 49 65 50
3 50 65 66
3 50 66 51
3 51 66 67
3 51 67 52
3 52 67 68
3 52 68 53
3 53 68 69
3 53 69 54
3 54 69 70
3 54 70 55
3 55 70 71
3 55 71 56
3 56 71 72
3 56 72 57
3 57 72 73
3 57 73 58
3 58 73 74
3 58 74 59
3 59 74 75
3 59 75 60
3 60 75 61
3 60 61 46
3 61 76 77
3 61 77 62
3 62 77 78
3 62 78 63
3 63 78 79
3 63 79 64
3 64 79 80
3 64 80 65
3 65 80 81
3 65 81 66
3 66 81 82
3 66 82 67
3 67 82 83
3 67 83 68
3 68 83 84
3 68 84 69
3 69 84 85
3 69 85 70
3 70 85 86
3 70 86 71
3 71 86 87
3 71 87 72
3 72 87 88
3 72 88 73
3 73 88 89
3 73 89 74
3 74 89 90
3 74 90 75
3 75 90 76
3 75 76 61
3 76 91 92
3 76 92 77
3 77 92 93
3 77 93 78
3 78 93 94
3 78 94 79
3 79 94 95
3 79 95 80
3 80 95 96
3 80 96 81
3 81 96 97
3 81 97 82
3 82 97 98
3 82 98 83
3 83 98 99
3 83 99 84
3 84 99 100
3 84 100 85
3 85 100 101
3 85 101 86
3 86 101 102
3 86 102 87
3 87 102 103
3 87 103 88
3 88 103 104
3 88 104 89
3 89 104 105
3 89 105 90
3 90 105 91
3 90 91 76
3 91 106 107
3 91 107 92
3 92 107 108
3 92 108 93
3 93 108 109
3 93 109 94
3 94 109 110
3 94 110 95
3 95 110 111
3 95 111 96
3 96 111 112
3 96 112 97
3 97 112 113
3 97 113 98
3 98 113 114
3 98 114 99
3 99 114 115
3 99 115 100
3 100 115 116
3 100 116 101
3 101 116 117
3 101 117 102
3 102 117 118
3 102 118 103
3 103 118 119
3 103 119 104
3 104 119 120
3 104 120 105
3 105 120 106
3 105 106 91
CELL_TYPES 225
5
5
5
5
5
5
5
5
5
5
5
5
5
5
5
5
5
5
5
5
5
5
5
5
5
5
5
5
5
5
5
5
5
5
5
5
5
5
5
5
5
5
5
5
5
5
5
5
5
5
5
5
5
5
5
5
5
5
5
5
5
5
5
5
5
5
5
5
5
5
5
5
5
5
5
5
5
5
5
5
5
5
5
5
5
5
5
5
5
5
5
5
5
5
5
5
5
5
5
5
5
5
5
5
5
5
5
5
5
5
5
5
5
5
5
5
5
5
5
5
5
5
5
5
5
5
5
5
5
5
5
5
5
5
5
5
5
5
5
5
5
5
5
5
5
5
5
5
5
5
5
5
5
5
5
5
5
5
5
5
5
5
5
5
5
5
5
5
5
5
5
5
5
5
5
5
5
5
5
5
5
5
5
5
5
5
5
5
5
5
5
5
5
5
5
5
5
5
5
5
5
5
5
5
5
5
5
5
5
5
5
5
5
5
5
5
5
5
5
5
5
5
5
5
5
CELL_DATA 225
VECTORS Et double
0.969305 0.24586 0
0.966679 0.249793 0
0.961999 0.250472 0
0.958363 0.247449 0
0.958177 0.242724 0
0.961564 0.239424 0
0.966282 0.239732 0
0.96921 0.243445 0
0.96841 0.248106 0
0.964411 0.250629 0
0.95986 0.249347 0
0.957768 0.245106 0
0.95952 0.240714 0
0.963956 0.239077 0
0.968141 0.241278 0
0.956776 0.242407 0
0.956354 0.243655 0
0.945169 0.258328 0
0.953294 0.249408 0
0.925571 0.260356 0
0.94697 0.250984 0
0.910951 0.247148 0
0.941568 0.247339 0
0.910983 0.227446 0
0.940663 0.240885 0
0.925647 0.214286 0
0.944852 0.235894 0
0.945238 0.216378 0
0.951365 0.235667 0
0.956793 0.232336 0
0.955891 0.240356 0
0.952665 0.251601 0
0.955436 0.246857 0
0.935586 0.261425 0
0.9503 0.250868 0
0.916858 0.255306 0
0.943882 0.249735 0
0.908873 0.237293 0
0.94043 0.244208 0
0.916917 0.219307 0
0.942227 0.237944 0
0.935665 0.21325 0
0.948085 0.235088 0
0.952711 0.223129 0
0.954126 0.237531 0
0.932937 0.234944 0
0.932036 0.236955 0
0.906336 0.270805 0
0.920696 0.257449 0
0.861887 0.275033 0
0.897878 0.262734 0
0.829002 0.244829 0
0.878682 0.249314 0
0.829444 0.200181 0
0.875811 0.226069 0
0.86292 0.170634 0
0.891164 0.208381 0
0.907277 0.175741 0
0.914582 0.207955 0
0.933163 0.212122 0
0.930568 0.225073 0
0.923448 0.255702 0
0.928544 0.248407 0
0.884561 0.277643 0
0.909849 0.262516 0
0.842235 0.263426 0
0.886854 0.258064 0
0.824478 0.222458 0
0.874776 0.237997 0
0.843042 0.18185 0
0.881608 0.215594 0
0.885641 0.168473 0
0.902828 0.20568 0
0.924086 0.19118 0
0.924394 0.214815 0
0.898054 0.223587 0
0.896552 0.226279 0
0.851361 0.28635 0
0.872005 0.269683 0
0.773475 0.293646 0
0.823325 0.280483 0
0.715937 0.240648 0
0.782725 0.251533 0
0.716822 0.162426 0
0.777072 0.201991 0
0.775544 0.110744 0
0.810107 0.16464 0
0.853245 0.1198 0
0.859969 0.164197 0
0.898506 0.183603 0
0.893662 0.200955 0
0.881378 0.259931 0
0.888891 0.25059 0
0.813193 0.298276 0
0.848812 0.280256 0
0.739074 0.273262 0
0.799948 0.270323 0
0.708066 0.201443 0
0.774634 0.227363 0
0.74069 0.130344 0
0.78962 0.179805 0
0.815357 0.107014 0
0.834991 0.159119 0
0.882656 0.146891 0
0.880722 0.178995 0
0.852783 0.208607 0
0.85061 0.211866 0
0.78212 0.303957 0
0.808467 0.285024 0
0.663978 0.315246 0
0.725902 0.302657 0
0.576537 0.235002 0
0.65755 0.253099 0
0.577659 0.116328 0
0.648644 0.169142 0
0.666603 0.0377532 0
0.705076 0.106345 0
0.78451 0.0512746 0
0.789503 0.106263 0
0.853357 0.147944 0
0.846057 0.16895 0
0.827585 0.263792 0
0.837314 0.252924 0
0.724248 0.322157 0
0.769059 0.302616 0
0.611729 0.284417 0
0.686459 0.285142 0
0.564485 0.175546 0
0.644174 0.212067 0
0.61378 0.0675876 0
0.670186 0.131746 0
0.726994 0.0319829 0
0.747281 0.0973315 0
0.829208 0.0922926 0
0.824442 0.131596 0
0.798004 0.190388 0
0.795162 0.194077 0
0.700981 0.32245 0
0.731765 0.3021 0
0.537918 0.338714 0
0.609068 0.327268 0
0.416721 0.228418 0
0.508263 0.252927 0
0.417591 0.0645488 0
0.496059 0.12827 0
0.539951 -0.0444551 0
0.58053 0.035789 0
0.702832 -0.0264615 0
0.705779 0.0366812 0
0.798448 0.106623 0
0.788924 0.130356 0
0.763528 0.26673 0
0.774944 0.254826 0
0.621178 0.347912 0
0.673091 0.327724 0
0.465598 0.296447 0
0.550765 0.300811 0
0.39974 0.146391 0
0.488913 0.191896 0
0.467186 -0.00295742 0
0.528465 0.0730522 0
0.623304 -0.052769 0
0.643249 0.0229238 0
0.764784 0.0299186 0
0.757307 0.0746822 0
0.734788 0.169413 0
0.73137 0.173382 0
0.610698 0.34052 0
0.643953 0.319323 0
0.400508 0.362797 0
0.477004 0.352014 0
0.243308 0.221501 0
0.340999 0.249821 0
0.243124 0.0101341 0
0.325939 0.0803688 0
0.400078 -0.131435 0
0.441789 -0.0442088 0
0.610307 -0.109524 0
0.611887 -0.0414742 0
0.734694 0.0613678 0
0.723672 0.0867629 0
0.690928 0.268154 0
0.703172 0.255643 0
0.507971 0.373997 0
0.563953 0.353412 0
0.306891 0.308856 0
0.398141 0.315372 0
0.220753 0.115837 0
0.31546 0.166695 0
0.306555 -0.0773311 0
0.370624 0.00576767 0
0.507521 -0.142822 0
0.527128 -0.0609192 0
0.690662 -0.0372977 0
0.681408 0.010764 0
0.66438 0.146253 0
0.66058 0.150346 0
0.514309 0.356791 0
0.547405 0.334977 0
0.257432 0.386144 0
0.334469 0.374415 0
0.0637346 0.214888 0
0.162679 0.242561 0
0.0613934 -0.0436499 0
0.145716 0.0266693 0
0.251958 -0.218385 0
0.294804 -0.130397 0
0.509324 -0.193689 0
0.511286 -0.124701 0
0.663183 0.0140963 0
0.651908 0.0399887 0
0.61172 0.267471 0
0.623615 0.25469 0
0.38899 0.398768 0
0.445129 0.377327 0
0.142383 0.321102 0
0.234561 0.326746 0
0.0350871 0.0858678 0
0.131253 0.136418 0
0.138105 -0.151271 0
0.203567 -0.0677086 0
0.383266 -0.23339 0
0.403651 -0.150556 0
0.608337 -0.106148 0
0.5991 -0.0573011 0
