# vtk DataFile Version 3.0
tp3485 cell-vector
ASCII
DATASET UNSTRUCTURED_GRID
POINTS 121 double
0 0 0
0.125 0 0
0.114193 0.0508421 0
0.0836413 0.0928931 0
0.0386271 0.118882 0
-0.0130661 0.124315 0
-0.0625 0.108253 0
-0.101127 0.0734732 0
-0.122268 0.025989 0
-0.122268 -0.025989 0
-0.101127 -0.0734732 0
-0.0625 -0.108253 0
-0.0130661 -0.124315 0
0.0386271 -0.118882 0
0.0836413 -0.0928931 0
0.114193 -0.0508421 0
0.25 0 0
0.228386 0.101684 0
0.167283 0.185786 0
0.0772542 0.237764 0
-0.0261321 0.24863 0
-0.125 0.216506 0
-0.202254 0.146946 0
-0.244537 0.0519779 0
-0.244537 -0.0519779 0
-0.202254 -0.146946 0
-0.125 -0.216506 0
-0.0261321 -0.24863 0
0.0772542 -0.237764 0
0.167283 -0.185786 0
0.228386 -0.101684 0
0.375 0 0
0.34258 0.152526 0
0.250924 0.278679 0
0.115881 0.356646 0
-0.0391982 0.372946 0
-0.1875 0.32476 0
-0.303381 0.220419 0
-0.366805 0.0779669 0
-0.366805 -0.0779669 0
-0.303381 -0.220419 0
-0.1875 -0.32476 0
-0.0391982 -0.372946 0
0.115881 -0.356646 0
0.250924 -0.278679 0
0.34258 -0.152526 0
0.5 0 0
0.456773 0.203368 0
0.334565 0.371572 0
0.154508 0.475528 0
-0.0522642 0.497261 0
-0.25 0.433013 0
-0.404508 0.293893 0
-0.489074 0.103956 0
-0.489074 -0.103956 0
-0.404508 -0.293893 0
-0.25 -0.433013 0
-0.0522642 -0.497261 0
0.154508 -0.475528 0
0.334565 -0.371572 0
0.456773 -0.203368 0
0.625 0 0
0.570966 0.25421 0
0.418207 0.464466 0
0.193136 0.59441 0
-0.0653303 0.621576 0
-0.3125 0.541266 0
-0.505636 0.367366 0
-0.611342 0.129945 0
-0.611342 -0.129945 0
-0.505636 -0.367366 0
-0.3125 -0.541266 0
-0.0653303 -0.621576 0
0.193136 -0.59441 0
0.418207 -0.464466 0
0.570966 -0.25421 0
0.75 0 0
0.685159 0.305052 0
0.501848 0.557359 0
0.231763 0.713292 0
-0.0783963 0.745891 0
-0.375 0.649519 0
-0.606763 0.440839 0
-0.733611 0.155934 0
-0.733611 -0.155934 0
-0.606763 -0.440839 0
-0.375 -0.649519 0
-0.0783963 -0.745891 0
0.231763 -0.713292 0
0.501848 -0.557359 0
0.685159 -0.305052 0
0.875 0 0
0.799352 0.355895 0
0.585489 0.650252 0
0.27039 0.832174 0
-0.0914624 0.870207 0
-0.4375 0.757772 0
-0.70789 0.514312 0
-0.855879 0.181923 0
-0.855879 -0.181923 0
-0.70789 -0.514312 0
-0.4375 -0.757772 0
-0.0914624 -0.870207 0
0.27039 -0.832174 0
0.585489 -0.650252 0
0.799352 -0.355895 0
1 0 0
0.913545 0.406737 0
0.669131 0.743145 0
0.309017 0.951057 0
-0.104528 0.994522 0
-0.5 0.866025 0
-0.809017 0.587785 0
-0.978148 0.207912 0
-0.978148 -0.207912 0
-0.809017 -0.587785 0
-0.5 -0.866025 0
-0.104528 -0.994522 0
0.309017 -0.951057 0
0.669131 -0.743145 0
0.913545 -0.406737 0
CELLS 225 900
3 0 1 2
3 0 2 3
3 0 3 4
3 0 4 5
3 0 5 6
3 0 6 7
3 0 7 8
3 0 8 9
3 0 9 10
3 0 10 11
3 0 11 12
3 0 12 13
3 0 13 14
3 0 14 15
3 0 15 1
3 1 16 17
3 1 17 2
3 2 17 18
3 2 18 3
3 3 18 19
3 3 19 4
3 4 19 20
3 4 20 5
3 5 20 21
3 5 21 6
3 6 21 22
3 6 22 7
3 7 22 23
3 7 23 8
3 8 23 24
3 8 24 9
3 9 24 25
3 9 25 10
3 10 25 26
3 10 26 11
3 11 26 27
3 11 27 12
3 12 27 28
3 12 28 13
3 13 28 29
3 13 29 14
3 14 29 30
3 14 30 15
3 15 30 16
3 15 16 1
3 16 31 32
3 16 32 17
3 17 32 33
3 17 33 18
3 18 33 34
3 18 34 19
3 19 34 35
3 19 35 20
3 20 35 36
3 20 36 21
3 21 36 37
3 21 37 22
3 22 37 38
3 22 38 23
3 23 38 39
3 23 39 24
3 24 39 40
3 24 40 25
3 25 40 41
3 25 41 26
3 26 41 42
3 26 42 27
3 27 42 43
3 27 43 28
3 28 43 44
3 28 44 29
3 29 44 45
3 29 45 30
3 30 45 31
3 30 31 16
3 31 46 47
3 31 47 32
3 32 47 48
3 32 48 33
3 33 48 49
3 33 49 34
3 34 49 50
3 34 50 35
3 35 50 51
3 35 51 36
3 36 51 52
3 36 52 37
3 37 52 53
3 37 53 38
3 38 53 54
3 38 54 39
3 39 54 55
3 39 55 40
3 40 55 56
3 40 56 41
3 41 56 57
3 41 57 42
3 42 57 58
3 42 58 43
3 43 58 59
3 43 59 44
3 44 59 60
3 44 60 45
3 45 60 46
3 45 46 31
3 46 61 62
3 46 62 47
3 47 62 63
3 47 63 48
3 48 63 64
3 48 64 49
3 49 64 65
3 49 65 50
3 50 65 66
3 50 66 51
3 51 66 67
3 51 67 52
3 52 67 68
3 52 68 53
3 53 68 69
3 53 69 54
3 54 69 70
3 54 70 55
3 55 70 71
3 55 71 56
3 56 71 72
3 56 72 57
3 57 72 73
3 57 73 58
3 58 73 74
3 58 74 59
3 59 74 75
3 59 75 60
3 60 75 61
3 60 61 46
3 61 76 77
3 61 77 62
3 62 77 78
3 62 78 63
3 63 78 79
3 63 79 64
3 64 79 80
3 64 80 65
3 65 80 81
3 65 81 66
3 66 81 82
3 66 82 67
3 67 82 83
3 67 83 68
3 68 83 84
3 68 84 69
3 69 84 85
3 69 85 70
3 70 85 86
3 70 86 71
3 71 86 87
3 71 87 72
3 72 87 88
3 72 88 73
3 73 88 89
3 73 89 74
3 74 89 90
3 74 90 75
3 75 90 76
3 75 76 61
3 76 91 92
3 76 92 77
3 77 92 93
3 77 93 78
3 78 93 94
3 78 94 79
3 79 94 95
3 79 95 80
3 80 95 96
3 80 96 81
3 81 96 97
3 81 97 82
3 82 97 98
3 82 98 83
3 83 98 99
3 83 99 84
3 84 99 100
3 84 100 85
3 85 100 101
3 85 101 86
3 86 101 102
3 86 102 87
3 87 102 103
3 87 103 88
3 88 103 104
3 88 104 89
3 89 104 105
3 89 105 90
3 90 105 91
3 90 91 76
3 91 106 107
3 91 107 92
3 92 107 108
3 92 108 93
3 93 108 109
3 93 109 94
3 94 109 110
3 94 110 95
3 95 110 111
3 95 111 96
3 96 111 112
3 96 112 97
3 97 112 113
3 97 113 98
3 98 113 114
3 98 114 99
3 99 114 115
3 99 115 100
3 100 115 116
3 100 116 101
3 101 116 117
3 101 117 102
3 102 117 118
3 102 118 103
3 103 118 119
3 103 119 104
3 104 119 120
3 104 120 105
3 105 120 106
3 105 106 91
CELL_TYPES 225
5
5
5
5
5
5
5
5
5
5
5
5
5
5
5
5
5
5
5
5
5
5
5
5
5
5
5
5
5
5
5
5
5
5
5
5
5
5
5
5
5
5
5
5
5
5
5
5
5
5
5
5
5
5
5
5
5
5
5
5
5
5
5
5
5
5
5
5
5
5
5
5
5
5
5
5
5
5
5
5
5
5
5
5
5
5
5
5
5
5
5
5
5
5
5
5
5
5
5
5
5
5
5
5
5
5
5
5
5
5
5
5
5
5
5
5
5
5
5
5
5
5
5
5
5
5
5
5
5
5
5
5
5
5
5
5
5
5
5
5
5
5
5
5
5
5
5
5
5
5
5
5
5
5
5
5
5
5
5
5
5
5
5
5
5
5
5
5
5
5
5
5
5
5
5
5
5
5
5
5
5
5
5
5
5
5
5
5
5
5
5
5
5
5
5
5
5
5
5
5
5
5
5
5
5
5
5
5
5
5
5
5
5
5
5
5
5
5
5
5
5
5
5
5
5
CELL_DATA 225
VECTORS Et double
0.227018 0.202739 0
0.357182 -0.093926 0
0.486562 -0.224776 0
0.408401 -0.212546 0
0.122374 -0.248732 0
-0.146227 -0.39876 0
-0.228446 -0.49161 0
-0.210188 -0.349882 0
-0.278997 -0.0434423 0
-0.436815 0.185342 0
-0.480518 0.22523 0
-0.280037 0.214401 0
0.0298419 0.316075 0
0.21115 0.46731 0
0.218699 0.452577 0
0.596429 0.366843 0
0.696878 0.293756 0
0.770674 0.0644662 0
0.559052 0.108378 0
0.780636 -0.190392 0
0.376485 -0.277641 0
0.590236 -0.423709 0
0.317863 -0.62248 0
0.288398 -0.649462 0
0.269192 -0.682007 0
-0.0037228 -0.792142 0
0.0250481 -0.506967 0
-0.248993 -0.750215 0
-0.380379 -0.349862 0
-0.482238 -0.519904 0
-0.66811 -0.314163 0
-0.697481 -0.211077 0
-0.651277 -0.23097 0
-0.801505 0.0685488 0
-0.45692 0.0698411 0
-0.707357 0.307098 0
-0.332484 0.475216 0
-0.444694 0.540184 0
-0.307511 0.692829 0
-0.136167 0.738532 0
-0.177442 0.608745 0
0.130523 0.797803 0
0.172351 0.412575 0
0.365262 0.653427 0
0.557255 0.322749 0
0.814271 0.376393 0
0.903834 0.390241 0
0.884999 0.281957 0
0.762019 0.198516 0
0.663352 -0.0305453 0
0.508782 -0.275322 0
0.444971 -0.522616 0
0.409517 -0.758782 0
0.361906 -0.869252 0
0.368634 -0.898622 0
0.229481 -0.846702 0
0.101911 -0.694573 0
-0.146711 -0.59754 0
-0.411808 -0.466339 0
-0.636885 -0.414372 0
-0.833983 -0.405259 0
-0.898971 -0.344404 0
-0.870011 -0.331334 0
-0.793361 -0.159817 0
-0.626413 0.0123018 0
-0.537355 0.271289 0
-0.436604 0.54232 0
-0.392523 0.735695 0
-0.400676 0.882652 0
-0.31917 0.90358 0
-0.27513 0.822578 0
-0.0726645 0.730378 0
0.139934 0.563045 0
0.398661 0.485956 0
0.659994 0.418576 0
0.837791 0.220923 0
0.878044 0.304824 0
0.703145 0.493202 0
0.683657 0.346685 0
0.194765 0.21528 0
0.286107 -0.0605095 0
0.0169563 -0.483347 0
0.182902 -0.658276 0
0.313487 -0.870482 0
0.345511 -0.877357 0
0.486535 -0.58276 0
0.288392 -0.580005 0
0.0553692 -0.0981299 0
-0.21491 -0.221813 0
-0.637524 -0.0614546 0
-0.766003 -0.214378 0
-0.855936 -0.397635 0
-0.840832 -0.37091 0
-0.449077 -0.437142 0
-0.472835 -0.198445 0
-0.0338473 0.123278 0
-0.183066 0.373063 0
-0.132852 0.758526 0
-0.25796 0.840617 0
-0.461039 0.797696 0
-0.373202 0.77371 0
-0.34526 0.315456 0
-0.0800993 0.371987 0
0.307488 0.00658788 0
0.524293 0.170808 0
0.653166 -0.0322986 0
0.650148 0.0690197 0
0.343042 0.599059 0
0.355793 0.459494 0
-0.367745 0.455327 0
-0.198874 0.226088 0
-0.481787 -0.299284 0
-0.262802 -0.403712 0
0.158335 -0.659525 0
0.199545 -0.640101 0
0.652534 -0.161828 0
0.468209 -0.208511 0
0.289781 0.480985 0
0.0767017 0.279958 0
-0.464427 0.369124 0
-0.526861 0.17559 0
-0.605173 -0.33871 0
-0.582972 -0.31644 0
0.0295807 -0.645357 0
-0.0574477 -0.430149 0
0.540674 -0.0965163 0
0.318829 0.0878179 0
0.214156 0.586148 0
0.0607647 0.611426 0
-0.49074 0.495955 0
-0.4066 0.484884 0
-0.577624 -0.212142 0
-0.347307 -0.0828004 0
0.106228 -0.540937 0
0.252873 -0.312563 0
0.296217 -0.257445 0
0.314041 -0.203959 0
-0.0145015 0.519576 0
-0.0904828 0.427744 0
-0.690071 0.579453 0
-0.705156 0.37679 0
-0.763239 -0.0040891 0
-0.688771 -0.142156 0
-0.0385167 -0.295353 0
-0.0128357 -0.276795 0
0.621345 0.187881 0
0.490207 0.261591 0
0.463649 0.79416 0
0.25981 0.781392 0
-0.141576 0.635817 0
-0.241306 0.557387 0
-0.239239 -0.175692 0
-0.191567 -0.165838 0
0.370385 -0.66525 0
0.43175 -0.50066 0
0.844445 -0.316352 0
0.805302 -0.123748 0
0.462371 0.242778 0
0.390932 0.301206 0
-0.367011 0.132624 0
-0.31683 0.0653826 0
-0.649851 -0.543688 0
-0.460678 -0.584587 0
-0.154406 -0.83442 0
0.0155845 -0.77375 0
-0.131059 -0.32462 0
-0.00208864 -0.362196 0
-0.213165 0.250992 0
-0.459777 0.207715 0
-0.550771 0.505433 0
-0.942936 0.247587 0
-0.619311 0.308594 0
-0.825551 -0.00787536 0
-0.180972 0.111274 0
-0.190061 0.0760774 0
0.361912 0.291281 0
0.272777 0.608329 0
0.487696 0.613136 0
0.186074 0.982536 0
0.236794 0.551202 0
-0.0377739 0.69273 0
0.118782 0.0300741 0
0.182411 0.0306204 0
0.380025 -0.443376 0
0.746416 -0.29873 0
0.648812 -0.443595 0
0.975844 -0.114974 0
0.450891 -0.174899 0
0.534163 0.0358024 0
-0.117351 -0.153734 0
-0.10485 -0.313734 0
-0.49147 -0.469873 0
-0.288232 -0.861549 0
-0.380814 -0.651889 0
-0.0464154 -0.922339 0
-0.460689 -0.173932 0
-0.185247 -0.292909 0
-0.200083 -0.101013 0
-0.564056 -0.114888 0
-0.0106257 0.226338 0
-0.720776 -0.113825 0
-0.0773768 0.48721 0
-0.527188 -0.0354406 0
-0.184484 0.409974 0
-0.227525 0.281517 0
-0.0348572 0.132295 0
-0.104978 0.635818 0
0.313488 0.00553791 0
-0.112979 0.700897 0
0.501883 0.114789 0
0.0231127 0.447963 0
0.345452 0.176849 0
0.380888 0.175211 0
0.0755539 -0.0455349 0
0.687724 0.104609 0
0.0174272 -0.3896 0
0.659188 0.10194 0
0.148978 -0.492503 0
0.367974 -0.0976392 0
0.149024 -0.273281 0
0.137691 -0.477158 0
-0.134743 -0.0341505 0
0.109279 -0.716532 0
-0.448947 -0.04298 0
0.0768929 -0.599565 0
