# vtk DataFile Version 3.0
tp3485 cell-vector
ASCII
DATASET UNSTRUCTURED_GRID
POINTS 121 double
0 0 0
0.125 0 0
0.114193 0.0508421 0
0.0836413 0.0928931 0
0.0386271 0.118882 0
-0.0130661 0.124315 0
-0.0625 0.108253 0
-0.101127 0.0734732 0
-0.122268 0.025989 0
-0.122268 -0.025989 0
-0.101127 -0.0734732 0
-0.0625 -0.108253 0
-0.0130661 -0.124315 0
0.0386271 -0.118882 0
0.0836413 -0.0928931 0
0.114193 -0.0508421 0
0.25 0 0
0.228386 0.101684 0
0.167283 0.185786 0
0.0772542 0.237764 0
-0.0261321 0.24863 0
-0.125 0.216506 0
-0.202254 0.146946 0
-0.244537 0.0519779 0
-0.244537 -0.0519779 0
-0.202254 -0.146946 0
-0.125 -0.216506 0
-0.0261321 -0.24863 0
0.0772542 -0.237764 0
0.167283 -0.185786 0
0.228386 -0.101684 0
0.375 0 0
0.34258 0.152526 0
0.250924 0.278679 0
0.115881 0.356646 0
-0.0391982 0.372946 0
-0.1875 0.32476 0
-0.303381 0.220419 0
-0.366805 0.0779669 0
-0.366805 -0.0779669 0
-0.303381 -0.220419 0
-0.1875 -0.32476 0
-0.0391982 -0.372946 0
0.115881 -0.356646 0
0.250924 -0.278679 0
0.34258 -0.152526 0
0.5 0 0
0.456773 0.203368 0
0.334565 0.371572 0
0.154508 0.475528 0
-0.0522642 0.497261 0
-0.25 0.433013 0
-0.404508 0.293893 0
-0.489074 0.103956 0
-0.489074 -0.103956 0
-0.404508 -0.293893 0
-0.25 -0.433013 0
-0.0522642 -0.497261 0
0.154508 -0.475528 0
0.334565 -0.371572 0
0.456773 -0.203368 0
0.625 0 0
0.570966 0.25421 0
0.418207 0.464466 0
0.193136 0.59441 0
-0.0653303 0.621576 0
-0.3125 0.541266 0
-0.505636 0.367366 0
-0.611342 0.129945 0
-0.611342 -0.129945 0
-0.505636 -0.367366 0
-0.3125 -0.541266 0
-0.0653303 -0.621576 0
0.193136 -0.59441 0
0.418207 -0.464466 0
0.570966 -0.25421 0
0.75 0 0
0.685159 0.305052 0
0.501848 0.557359 0
0.231763 0.713292 0
-0.0783963 0.745891 0
-0.375 0.649519 0
-0.606763 0.440839 0
-0.733611 0.155934 0
-0.733611 -0.155934 0
-0.606763 -0.440839 0
-0.375 -0.649519 0
-0.0783963 -0.745891 0
0.231763 -0.713292 0
0.501848 -0.557359 0
0.685159 -0.305052 0
0.875 0 0
0.799352 0.355895 0
0.585489 0.650252 0
0.27039 0.832174 0
-0.0914624 0.870207 0
-0.4375 0.757772 0
-0.70789 0.514312 0
-0.855879 0.181923 0
-0.855879 -0.181923 0
-0.70789 -0.514312 0
-0.4375 -0.757772 0
-0.0914624 -0.870207 0
0.27039 -0.832174 0
0.585489 -0.650252 0
0.799352 -0.355895 0
1 0 0
0.913545 0.406737 0
0.669131 0.743145 0
0.309017 0.951057 0
-0.104528 0.994522 0
-0.5 0.866025 0
-0.809017 0.587785 0
-0.978148 0.207912 0
-0.978148 -0.207912 0
-0.809017 -0.587785 0
-0.5 -0.866025 0
-0.104528 -0.994522 0
0.309017 -0.951057 0
0.669131 -0.743145 0
0.913545 -0.406737 0
CELLS 225 900
3 0 1 2
3 0 2 3
3 0 3 4
3 0 4 5
3 0 5 6
3 0 6 7
3 0 7 8
3 0 8 9
3 0 9 10
3 0 10 11
3 0 11 12
3 0 12 13
3 0 13 14
3 0 14 15
3 0 15 1
3 1 16 17
3 1 17 2
3 2 17 18
3 2 18 3
3 3 18 19
3 3 19 4
3 4 19 20
3 4 20 5
3 5 20 21
3 5 21 6
3 6 21 22
3 6 22 7
3 7 22 23
3 7 23 8
3 8 23 24
3 8 24 9
3 9 24 25
3 9 25 10
3 10 25 26
3 10 26 11
3 11 26 27
3 11 27 12
3 12 27 28
3 12 28 13
3 13 28 29
3 13 29 14
3 14 29 30
3 14 30 15
3 15 30 16
3 15 16 1
3 16 31 32
3 16 32 17
3 17 32 33
3 17 33 18
3 18 33 34
3 18 34 19
3 19 34 35
3 19 35 20
3 20 35 36
3 20 36 21
3 21 36 37
3 21 37 22
3 22 37 38
3 22 38 23
3 23 38 39
3 23 39 24
3 24 39 40
3 24 40 25
3 25 40 41
3 25 41 26
3 26 41 42
3 26 42 27
3 27 42 43
3 27 43 28
3 28 43 44
3 28 44 29
3 29 44 45
3 29 45 30
3 30 45 31
3 30 31 16
3 31 46 47
3 31 47 32
3 32 47 48
3 32 48 33
3 33 48 49
3 33 49 34
3 34 49 50
3 34 50 35
3 35 50 51
3 35 51 36
3 36 51 52
3 36 52 37
3 37 52 53
3 37 53 38
3 38 53 54
3 38 54 39
3 39 54 55
3 39 55 40
3 40 55 56
3 40 56 41
3 41 56 57
3 41 57 42
3 42 57 58
3 42 58 43
3 43 58 59
3 43 59 44
3 44 59 60
3 44 60 45
3 45 60 46
3 45 46 31
3 46 61 62
3 46 62 47
3 47 62 63
3 47 63 48
3 48 63 64
3 48 64 49
3 49 64 65
3 49 65 50
3 50 65 66
3 50 66 51
3 51 66 67
3 51 67 52
3 52 67 68
3 52 68 53
3 53 68 69
3 53 69 54
3 54 69 70
3 54 70 55
3 55 70 71
3 55 71 56
3 56 71 72
3 56 72 57
3 57 72 73
3 57 73 58
3 58 73 74
3 58 74 59
3 59 74 75
3 59 75 60
3 60 75 61
3 60 61 46
3 61 76 77
3 61 77 62
3 62 77 78
3 62 78 63
3 63 78 79
3 63 79 64
3 64 79 80
3 64 80 65
3 65 80 81
3 65 81 66
3 66 81 82
3 66 82 67
3 67 82 83
3 67 83 68
3 68 83 84
3 68 84 69
3 69 84 85
3 69 85 70
3 70 85 86
3 70 86 71
3 71 86 87
3 71 87 72
3 72 87 88
3 72 88 73
3 73 88 89
3 73 89 74
3 74 89 90
3 74 90 75
3 75 90 76
3 75 76 61
3 76 91 92
3 76 92 77
3 77 92 93
3 77 93 78
3 78 93 94
3 78 94 79
3 79 94 95
3 79 95 80
3 80 95 96
3 80 96 81
3 81 96 97
3 81 97 82
3 82 97 98
3 82 98 83
3 83 98 99
3 83 99 84
3 84 99 100
3 84 100 85
3 85 100 101
3 85 101 86
3 86 101 102
3 86 102 87
3 87 102 103
3 87 103 88
3 88 103 104
3 88 104 89
3 89 104 105
3 89 105 90
3 90 105 91
3 90 91 76
3 91 106 107
3 91 107 92
3 92 107 108
3 92 108 93
3 93 108 109
3 93 109 94
3 94 109 110
3 94 110 95
3 95 110 111
3 95 111 96
3 96 111 112
3 96 112 97
3 97 112 113
3 97 113 98
3 98 113 114
3 98 114 99
3 99 114 115
3 99 115 100
3 100 115 116
3 100 116 101
3 101 116 117
3 101 117 102
3 102 117 118
3 102 118 103
3 103 118 119
3 103 119 104
3 104 119 120
3 104 120 105
3 105 120 106
3 105 106 91
CELL_TYPES 225
5
5
5
5
5
5
5
5
5
5
5
5
5
5
5
5
5
5
5
5
5
5
5
5
5
5
5
5
5
5
5
5
5
5
5
5
5
5
5
5
5
5
5
5
5
5
5
5
5
5
5
5
5
5
5
5
5
5
5
5
5
5
5
5
5
5
5
5
5
5
5
5
5
5
5
5
5
5
5
5
5
5
5
5
5
5
5
5
5
5
5
5
5
5
5
5
5
5
5
5
5
5
5
5
5
5
5
5
5
5
5
5
5
5
5
5
5
5
5
5
5
5
5
5
5
5
5
5
5
5
5
5
5
5
5
5
5
5
5
5
5
5
5
5
5
5
5
5
5
5
5
5
5
5
5
5
5
5
5
5
5
5
5
5
5
5
5
5
5
5
5
5
5
5
5
5
5
5
5
5
5
5
5
5
5
5
5
5
5
5
5
5
5
5
5
5
5
5
5
5
5
5
5
5
5
5
5
5
5
5
5
5
5
5
5
5
5
5
5
5
5
5
5
5
5
CELL_DATA 225
VECTORS Et double
-0.7317 -0.598889 0
-0.727238 -0.680838 0
-0.663353 -0.732356 0
-0.582319 -0.719353 0
-0.53776 -0.650432 0
-0.559163 -0.571202 0
-0.632364 -0.534091 0
-0.708923 -0.563658 0
-0.738178 -0.640337 0
-0.700771 -0.713387 0
-0.621454 -0.734467 0
-0.552715 -0.689628 0
-0.540041 -0.608542 0
-0.591819 -0.544867 0
-0.673786 -0.540738 0
-0.632759 -0.196804 0
-0.560487 -0.425202 0
-0.611003 -0.47414 0
-0.560932 -0.528282 0
-0.390344 -0.643546 0
-0.484627 -0.597587 0
-0.116801 -0.59292 0
-0.382066 -0.587255 0
0.0286117 -0.355762 0
-0.321117 -0.504123 0
-0.0503306 -0.0890093 0
-0.342113 -0.403204 0
-0.301389 0.0308174 0
-0.431159 -0.351278 0
-0.558429 -0.0755757 0
-0.529332 -0.382708 0
-0.651356 -0.337784 0
-0.571665 -0.476695 0
-0.518678 -0.582294 0
-0.530145 -0.571044 0
-0.248192 -0.647305 0
-0.432248 -0.603321 0
-0.01889 -0.489795 0
-0.342756 -0.552167 0
0.0174906 -0.213996 0
-0.320889 -0.451432 0
-0.163125 -0.00241391 0
-0.381117 -0.367777 0
-0.441216 0.00493855 0
-0.483586 -0.356559 0
-0.418965 0.247968 0
-0.375804 0.0625046 0
-0.40257 -0.172694 0
-0.357653 -0.220876 0
-0.0789872 -0.441987 0
-0.134914 -0.397006 0
0.337656 -0.381711 0
0.145017 -0.349333 0
0.57165 -0.0317522 0
0.2969 -0.109404 0
0.468153 0.376308 0
0.220227 0.164011 0
0.0956527 0.57244 0
-0.0342641 0.289982 0
-0.299354 0.426856 0
-0.298166 0.185149 0
-0.455474 0.0358945 0
-0.396846 -0.081115 0
-0.269399 -0.34173 0
-0.265002 -0.332614 0
0.13574 -0.456129 0
0.0101183 -0.40292 0
0.491846 -0.2316 0
0.246458 -0.24551 0
0.56327 0.183277 0
0.287621 0.0354521 0
0.302748 0.513963 0
0.106369 0.254043 0
-0.117323 0.541629 0
-0.177357 0.265613 0
-0.104258 0.433565 0
-0.221523 0.429865 0
-0.136284 0.0809428 0
-0.157116 0.0646977 0
0.104336 -0.178807 0
0.157352 -0.131783 0
0.458373 -0.173799 0
0.513787 -0.0295593 0
0.691549 0.0926541 0
0.676321 0.303724 0
0.649561 0.444229 0
0.537399 0.647521 0
0.360194 0.648275 0
0.188952 0.774327 0
0.0149343 0.569767 0
-0.13844 0.60023 0
-0.157747 0.260657 0
-0.228129 0.240436 0
-0.0435799 -0.0745048 0
-0.0207636 -0.066964 0
0.281887 -0.213929 0
0.346434 -0.118553 0
0.603279 -0.0653537 0
0.630475 0.119809 0
0.707919 0.272904 0
0.643398 0.490387 0
0.526563 0.577005 0
0.376652 0.747956 0
0.179221 0.645715 0
0.00675291 0.722073 0
0.203727 0.238628 0
-0.1179 0.419151 0
0.111208 0.168839 0
-0.00529408 0.181626 0
0.101164 0.0533854 0
0.246569 0.106374 0
0.180242 -0.031332 0
0.471022 0.243191 0
0.296113 -0.0292527 0
0.519536 0.50154 0
0.3721 0.0582472 0
0.360007 0.710463 0
0.35792 0.173266 0
0.0980012 0.731706 0
0.262957 0.239691 0
-0.0931011 0.551212 0
0.150051 0.213566 0
-0.0868407 0.288421 0
0.093916 0.112179 0
0.11264 0.117233 0
0.131699 0.00262247 0
0.373336 0.150928 0
0.238398 -0.0426069 0
0.522736 0.36721 0
0.343406 0.00642146 0
0.461975 0.622956 0
0.377234 0.117263 0
0.231262 0.74893 0
0.317498 0.216571 0
-0.0167325 0.661769 0
0.317161 -0.158497 0
-0.02641 0.0547431 0
0.226138 0.0725245 0
0.076819 0.091496 0
-0.00645018 0.159465 0
0.11858 0.192803 0
-0.226691 0.0447928 0
0.0712379 0.291624 0
-0.288843 -0.195609 0
-0.033879 0.322567 0
-0.151778 -0.402657 0
-0.127211 0.265155 0
0.0938035 -0.43934 0
-0.146996 0.157379 0
0.28539 -0.281383 0
-0.0801427 0.0705601 0
0.296202 -0.0333124 0
0.0291105 0.0621485 0
0.119084 0.140714 0
0.108466 0.137711 0
-0.128758 0.125536 0
0.105412 0.247245 0
-0.283317 -0.0688027 0
0.021968 0.318267 0
-0.242315 -0.3137 0
-0.0866466 0.30378 0
-0.0328858 -0.447099 0
-0.148558 0.21337 0
0.206384 -0.380723 0
-0.122797 0.106865 0
0.102681 -0.375593 0
0.0995528 -0.327349 0
0.119799 -0.0981627 0
0.0932771 -0.0859963 0
-0.0749183 0.100195 0
-0.0902824 0.0708366 0
-0.352618 0.0882198 0
-0.329657 0.039367 0
-0.529536 -0.126165 0
-0.466444 -0.15958 0
-0.488599 -0.401091 0
-0.410125 -0.394355 0
-0.256896 -0.554631 0
-0.19797 -0.509596 0
0.0122458 -0.48518 0
0.0296315 -0.429045 0
0.140725 -0.238697 0
0.122065 -0.206006 0
0.0435213 0.0217104 0
0.0181652 0.0119285 0
-0.215041 0.123721 0
-0.213314 0.0805422 0
-0.463861 -0.000169853 0
-0.419194 -0.0455693 0
-0.538286 -0.267979 0
-0.463236 -0.282953 0
-0.389065 -0.502486 0
-0.316295 -0.474523 0
-0.114944 -0.548509 0
-0.0756082 -0.49351 0
-0.302071 -0.149422 0
0.216781 -0.323603 0
-0.149479 -0.160103 0
0.0597655 -0.14242 0
-0.0394372 -0.053852 0
-0.179943 -0.13787 0
-0.0447646 0.0990209 0
-0.343721 -0.312964 0
-0.161936 0.197354 0
-0.323189 -0.551836 0
-0.313415 0.176076 0
-0.131935 -0.696414 0
-0.398961 0.0492679 0
0.103481 -0.651026 0
-0.361966 -0.0991567 0
0.227276 -0.445707 0
-0.226911 -0.170979 0
0.157529 -0.216324 0
-0.083166 -0.118673 0
-0.0596054 -0.114669 0
-0.0258538 0.0231506 0
-0.280441 -0.208011 0
-0.0928996 0.16064 0
-0.358842 -0.434582 0
-0.239937 0.202814 0
-0.242928 -0.644451 0
-0.369665 0.121764 0
-0.00940305 -0.698739 0
-0.396238 -0.0288761 0
0.1872 -0.561523 0
