# vtk DataFile Version 3.0
tp3485 cell-vector
ASCII
DATASET UNSTRUCTURED_GRID
POINTS 121 double
0 0 0
0.125 0 0
0.114193 0.0508421 0
0.0836413 0.0928931 0
0.0386271 0.118882 0
-0.0130661 0.124315 0
-0.0625 0.108253 0
-0.101127 0.0734732 0
-0.122268 0.025989 0
-0.122268 -0.025989 0
-0.101127 -0.0734732 0
-0.0625 -0.108253 0
-0.0130661 -0.124315 0
0.0386271 -0.118882 0
0.0836413 -0.0928931 0
0.114193 -0.0508421 0
0.25 0 0
0.228386 0.101684 0
0.167283 0.185786 0
0.0772542 0.237764 0
-0.0261321 0.24863 0
-0.125 0.216506 0
-0.202254 0.146946 0
-0.244537 0.0519779 0
-0.244537 -0.0519779 0
-0.202254 -0.146946 0
-0.125 -0.216506 0
-0.0261321 -0.24863 0
0.0772542 -0.237764 0
0.167283 -0.185786 0
0.228386 -0.101684 0
0.375 0 0
0.34258 0.152526 0
0.250924 0.278679 0
0.115881 0.356646 0
-0.0391982 0.372946 0
-0.1875 0.32476 0
-0.303381 0.220419 0
-0.366805 0.0779669 0
-0.366805 -0.0779669 0
-0.303381 -0.220419 0
-0.1875 -0.32476 0
-0.0391982 -0.372946 0
0.115881 -0.356646 0
0.250924 -0.278679 0
0.34258 -0.152526 0
0.5 0 0
0.456773 0.203368 0
0.334565 0.371572 0
0.154508 0.475528 0
-0.0522642 0.497261 0
-0.25 0.433013 0
-0.404508 0.293893 0
-0.489074 0.103956 0
-0.489074 -0.103956 0
-0.404508 -0.293893 0
-0.25 -0.433013 0
-0.0522642 -0.497261 0
0.154508 -0.475528 0
0.334565 -0.371572 0
0.456773 -0.203368 0
0.625 0 0
0.570966 0.25421 0
0.418207 0.464466 0
0.193136 0.59441 0
-0.0653303 0.621576 0
-0.3125 0.541266 0
-0.505636 0.367366 0
-0.611342 0.129945 0
-0.611342 -0.129945 0
-0.505636 -0.367366 0
-0.3125 -0.541266 0
-0.0653303 -0.621576 0
0.193136 -0.59441 0
0.418207 -0.464466 0
0.570966 -0.25421 0
0.75 0 0
0.685159 0.305052 0
0.501848 0.557359 0
0.231763 0.713292 0
-0.0783963 0.745891 0
-0.375 0.649519 0
-0.606763 0.440839 0
-0.733611 0.155934 0
-0.733611 -0.155934 0
-0.606763 -0.440839 0
-0.375 -0.649519 0
-0.0783963 -0.745891 0
0.231763 -0.713292 0
0.501848 -0.557359 0
0.685159 -0.305052 0
0.875 0 0
0.799352 0.355895 0
0.585489 0.650252 0
0.27039 0.832174 0
-0.0914624 0.870207 0
-0.4375 0.757772 0
-0.70789 0.514312 0
-0.855879 0.181923 0
-0.855879 -0.181923 0
-0.70789 -0.514312 0
-0.4375 -0.757772 0
-0.0914624 -0.870207 0
0.27039 -0.832174 0
0.585489 -0.650252 0
0.799352 -0.355895 0
1 0 0
0.913545 0.406737 0
0.669131 0.743145 0
0.309017 0.951057 0
-0.104528 0.994522 0
-0.5 0.866025 0
-0.809017 0.587785 0
-0.978148 0.207912 0
-0.978148 -0.207912 0
-0.809017 -0.587785 0
-0.5 -0.866025 0
-0.104528 -0.994522 0
0.309017 -0.951057 0
0.669131 -0.743145 0
0.913545 -0.406737 0
CELLS 225 900
3 0 1 2
3 0 2 3
3 0 3 4
3 0 4 5
3 0 5 6
3 0 6 7
3 0 7 8
3 0 8 9
3 0 9 10
3 0 10 11
3 0 11 12
3 0 12 13
3 0 13 14
3 0 14 15
3 0 15 1
3 1 16 17
3 1 17 2
3 2 17 18
3 2 18 3
3 3 18 19
3 3 19 4
3 4 19 20
3 4 20 5
3 5 20 21
3 5 21 6
3 6 21 22
3 6 22 7
3 7 22 23
3 7 23 8
3 8 23 24
3 8 24 9
3 9 24 25
3 9 25 10
3 10 25 26
3 10 26 11
3 11 26 27
3 11 27 12
3 12 27 28
3 12 28 13
3 13 28 29
3 13 29 14
3 14 29 30
3 14 30 15
3 15 30 16
3 15 16 1
3 16 31 32
3 16 32 17
3 17 32 33
3 17 33 18
3 18 33 34
3 18 34 19
3 19 34 35
3 19 35 20
3 20 35 36
3 20 36 21
3 21 36 37
3 21 37 22
3 22 37 38
3 22 38 23
3 23 38 39
3 23 39 24
3 24 39 40
3 24 40 25
3 25 40 41
3 25 41 26
3 26 41 42
3 26 42 27
3 27 42 43
3 27 43 28
3 28 43 44
3 28 44 29
3 29 44 45
3 29 45 30
3 30 45 31
3 30 31 16
3 31 46 47
3 31 47 32
3 32 47 48
3 32 48 33
3 33 48 49
3 33 49 34
3 34 49 50
3 34 50 35
3 35 50 51
3 35 51 36
3 36 51 52
3 36 52 37
3 37 52 53
3 37 53 38
3 38 53 54
3 38 54 39
3 39 54 55
3 39 55 40
3 40 55 56
3 40 56 41
3 41 56 57
3 41 57 42
3 42 57 58
3 42 58 43
3 43 58 59
3 43 59 44
3 44 59 60
3 44 60 45
3 45 60 46
3 45 46 31
3 46 61 62
3 46 62 47
3 47 62 63
3 47 63 48
3 48 63 64
3 48 64 49
3 49 64 65
3 49 65 50
3 50 65 66
3 50 66 51
3 51 66 67
3 51 67 52
3 52 67 68
3 52 68 53
3 53 68 69
3 53 69 54
3 54 69 70
3 54 70 55
3 55 70 71
3 55 71 56
3 56 71 72
3 56 72 57
3 57 72 73
3 57 73 58
3 58 73 74
3 58 74 59
3 59 74 75
3 59 75 60
3 60 75 61
3 60 61 46
3 61 76 77
3 61 77 62
3 62 77 78
3 62 78 63
3 63 78 79
3 63 79 64
3 64 79 80
3 64 80 65
3 65 80 81
3 65 81 66
3 66 81 82
3 66 82 67
3 67 82 83
3 67 83 68
3 68 83 84
3 68 84 69
3 69 84 85
3 69 85 70
3 70 85 86
3 70 86 71
3 71 86 87
3 71 87 72
3 72 87 88
3 72 88 73
3 73 88 89
3 73 89 74
3 74 89 90
3 74 90 75
3 75 90 76
3 75 76 61
3 76 91 92
3 76 92 77
3 77 92 93
3 77 93 78
3 78 93 94
3 78 94 79
3 79 94 95
3 79 95 80
3 80 95 96
3 80 96 81
3 81 96 97
3 81 97 82
3 82 97 98
3 82 98 83
3 83 98 99
3 83 99 84
3 84 99 100
3 84 100 85
3 85 100 101
3 85 101 86
3 86 101 102
3 86 102 87
3 87 102 103
3 87 103 88
3 88 103 104
3 88 104 89
3 89 104 105
3 89 105 90
3 90 105 91
3 90 91 76
3 91 106 107
3 91 107 92
3 92 107 108
3 92 108 93
3 93 108 109
3 93 109 94
3 94 109 110
3 94 110 95
3 95 110 111
3 95 111 96
3 96 111 112
3 96 112 97
3 97 112 113
3 97 113 98
3 98 113 114
3 98 114 99
3 99 114 115
3 99 115 100
3 100 115 116
3 100 116 101
3 101 116 117
3 101 117 102
3 102 117 118
3 102 118 103
3 103 118 119
3 103 119 104
3 104 119 120
3 104 120 105
3 105 120 106
3 105 106 91
CELL_TYPES 225
5
5
5
5
5
5
5
5
5
5
5
5
5
5
5
5
5
5
5
5
5
5
5
5
5
5
5
5
5
5
5
5
5
5
5
5
5
5
5
5
5
5
5
5
5
5
5
5
5
5
5
5
5
5
5
5
5
5
5
5
5
5
5
5
5
5
5
5
5
5
5
5
5
5
5
5
5
5
5
5
5
5
5
5
5
5
5
5
5
5
5
5
5
5
5
5
5
5
5
5
5
5
5
5
5
5
5
5
5
5
5
5
5
5
5
5
5
5
5
5
5
5
5
5
5
5
5
5
5
5
5
5
5
5
5
5
5
5
5
5
5
5
5
5
5
5
5
5
5
5
5
5
5
5
5
5
5
5
5
5
5
5
5
5
5
5
5
5
5
5
5
5
5
5
5
5
5
5
5
5
5
5
5
5
5
5
5
5
5
5
5
5
5
5
5
5
5
5
5
5
5
5
5
5
5
5
5
5
5
5
5
5
5
5
5
5
5
5
5
5
5
5
5
5
5
CELL_DATA 225
VECTORS Et double
-0.0030193 0.00962023 0
0.000439043 0.00209707 0
0.0096214 -0.00628776 0
-0.0100824 0.000101293 0
-0.00185876 0.00106558 0
0.00895319 0.00720747 0
-0.00321197 -0.00955763 0
-0.00158782 -0.0014385 0
-0.00408802 0.0107422 0
0.0080973 -0.00600823 0
0.000877432 -0.00195463 0
-0.0114797 -0.000568413 0
0.00821637 0.00584434 0
0.0021301 0.000230475 0
-0.00300684 -0.0110935 0
-0.0330513 0.0519059 0
0.0091046 0.0111861 0
0.00712099 0.017352 0
0.0164402 0.013948 0
0.0612416 -0.0289182 0
-0.00712495 -0.03368 0
-0.0595788 -0.0153939 0
-0.00782517 0.0121157 0
-0.0143023 0.0121345 0
-0.00818504 0.0199457 0
0.0464275 0.049308 0
0.0298298 -0.0171839 0
-0.00377045 -0.0614198 0
-0.0139408 -0.00369823 0
-0.0159603 -0.00985248 0
-0.0214988 -0.00162086 0
-0.0325478 0.0593922 0
0.0255608 0.0230597 0
0.0572486 -0.0225657 0
-0.00079073 -0.0144013 0
0.00443827 -0.0182237 0
-0.00510197 -0.0209475 0
-0.0665432 -0.0126016 0
-0.0140324 0.0314356 0
0.039152 0.0474735 0
0.0134521 -0.00520228 0
0.0187033 -0.00141039 0
0.0183456 -0.0113254 0
-0.00857811 -0.0671804 0
-0.0342333 -0.00363146 0
-0.128734 0.139121 0
0.0246642 0.0569943 0
0.0305316 0.0630661 0
0.0652065 0.0603951 0
0.187287 -0.0674543 0
-0.00915274 -0.138161 0
-0.172093 -0.0794426 0
-0.0465831 0.0410693 0
-0.0505446 0.0485258 0
-0.0372892 0.0806781 0
0.122028 0.157276 0
0.128571 -0.051399 0
0.0223746 -0.18822 0
-0.0534542 -0.0316121 0
-0.0617699 -0.0330755 0
-0.0882525 -0.0105333 0
-0.111869 0.164656 0
0.0886139 0.106395 0
0.185922 -0.0368835 0
0.0135466 -0.0606066 0
0.0123687 -0.0689676 0
-0.0172538 -0.087188 0
-0.191167 -0.0555126 0
-0.0738044 0.117155 0
0.0925312 0.165424 0
0.0618265 -0.00584487 0
0.0694142 -0.00954881 0
0.077589 -0.0433519 0
-0.00627813 -0.198965 0
-0.134228 -0.0339894 0
-0.306251 0.250845 0
0.0363817 0.147673 0
0.0787367 0.149423 0
0.161815 0.159208 0
0.380182 -0.108789 0
0.00232901 -0.337109 0
-0.333204 -0.213746 0
-0.129203 0.0802346 0
-0.117779 0.121057 0
-0.101412 0.203093 0
0.220947 0.327957 0
0.32133 -0.101958 0
0.100319 -0.382947 0
-0.116234 -0.0980857 0
-0.151528 -0.0746057 0
-0.224491 -0.0336895 0
-0.243629 0.311478 0
0.196264 0.274096 0
0.395205 -0.0229279 0
0.0573669 -0.140855 0
0.0241295 -0.167166 0
-0.037331 -0.223914 0
-0.371518 -0.135453 0
-0.200032 0.271358 0
0.143931 0.368777 0
0.151688 0.0110326 0
0.166441 -0.0287088 0
0.201419 -0.104697 0
0.0140179 -0.395192 0
-0.31989 -0.106388 0
-0.543276 0.33449 0
0.025199 0.254357 0
0.155924 0.270892 0
0.306084 0.311444 0
0.579835 -0.130978 0
0.0192162 -0.597938 0
-0.486001 -0.413323 0
-0.234121 0.102566 0
-0.209451 0.232003 0
-0.201616 0.387345 0
0.303746 0.510982 0
0.574611 -0.166497 0
0.242911 -0.589938 0
-0.169894 -0.190967 0
-0.285372 -0.127506 0
-0.43069 -0.0720516 0
-0.39211 0.446782 0
0.335913 0.495037 0
0.636128 0.0487212 0
0.129121 -0.220591 0
0.033081 -0.310807 0
-0.0645653 -0.431875 0
-0.546083 -0.234856 0
-0.367006 0.472447 0
0.150238 0.62005 0
0.249695 0.0546349 0
0.305817 -0.0645826 0
0.390786 -0.194862 0
0.0546119 -0.59193 0
-0.562735 -0.203049 0
-0.781932 0.323491 0
-0.0266864 0.314693 0
0.261595 0.401778 0
0.479115 0.490382 0
0.688054 -0.108812 0
0.0134819 -0.833599 0
-0.549289 -0.643697 0
-0.307537 0.0718652 0
-0.301276 0.372948 0
-0.318326 0.607202 0
0.316107 0.620753 0
0.796966 -0.244774 0
0.442453 -0.721318 0
-0.163382 -0.270278 0
-0.447794 -0.171283 0
-0.675852 -0.115111 0
-0.492689 0.492459 0
0.47907 0.68232 0
0.822739 0.197898 0
0.206562 -0.238906 0
0.0245241 -0.478807 0
-0.099373 -0.678344 0
-0.620606 -0.316397 0
-0.500884 0.666471 0
0.0660283 0.843626 0
0.291044 0.122626 0
0.462951 -0.124636 0
0.614436 -0.304129 0
0.109134 -0.688003 0
-0.788634 -0.270418 0
-0.94628 0.170318 0
-0.121946 0.26029 0
0.386937 0.496985 0
0.641711 0.63845 0
0.608413 -0.0221414 0
-0.0515203 -0.927805 0
-0.454398 -0.847335 0
-0.285234 -0.0355434 0
-0.35309 0.521576 0
-0.408902 0.807595 0
0.209068 0.571793 0
0.866474 -0.335706 0
0.665446 -0.693999 0
-0.0543383 -0.282257 0
-0.605159 -0.174633 0
-0.894426 -0.139328 0
-0.479202 0.375529 0
0.587031 0.720327 0
0.865667 0.418419 0
0.251651 -0.138901 0
-0.0209186 -0.629505 0
-0.143884 -0.893705 0
-0.505231 -0.339703 0
-0.503669 0.780893 0
-0.130435 0.952597 0
0.209867 0.196411 0
0.592231 -0.214423 0
0.805501 -0.413012 0
0.166952 -0.585477 0
-0.898315 -0.237709 0
-0.968622 -0.115855 0
-0.232389 0.0587904 0
0.507411 0.499765 0
0.737315 0.675549 0
0.301767 0.134408 0
-0.199612 -0.783677 0
-0.189136 -0.957015 0
-0.127725 -0.202848 0
-0.318506 0.637012 0
-0.414642 0.909985 0
-0.0345782 0.328532 0
0.683638 -0.432012 0
0.851729 -0.475613 0
0.153451 -0.184158 0
-0.704259 -0.10607 0
-0.993578 -0.113147 0
-0.323138 0.0686361 0
0.622123 0.516679 0
0.715534 0.66307 0
0.222563 0.0890327 0
-0.11675 -0.702567 0
-0.199423 -0.979913 0
-0.165132 -0.286112 0
-0.299144 0.751337 0
-0.409505 0.885413 0
-0.0158993 0.239183 0
0.632103 -0.328141 0
0.870328 -0.492473 0
0.221081 -0.245463 0
-0.807005 -0.0523272 0
