# vtk DataFile Version 3.0
tp3485 cell-vector
ASCII
DATASET UNSTRUCTURED_GRID
POINTS 121 double
0 0 0
0.125 0 0
0.114193 0.0508421 0
0.0836413 0.0928931 0
0.0386271 0.118882 0
-0.0130661 0.124315 0
-0.0625 0.108253 0
-0.101127 0.0734732 0
-0.122268 0.025989 0
-0.122268 -0.025989 0
-0.101127 -0.0734732 0
-0.0625 -0.108253 0
-0.0130661 -0.124315 0
0.0386271 -0.118882 0
0.0836413 -0.0928931 0
0.114193 -0.0508421 0
0.25 0 0
0.228386 0.101684 0
0.167283 0.185786 0
0.0772542 0.237764 0
-0.0261321 0.24863 0
-0.125 0.216506 0
-0.202254 0.146946 0
-0.244537 0.0519779 0
-0.244537 -0.0519779 0
-0.202254 -0.146946 0
-0.125 -0.216506 0
-0.0261321 -0.24863 0
0.0772542 -0.237764 0
0.167283 -0.185786 0
0.228386 -0.101684 0
0.375 0 0
0.34258 0.152526 0
0.250924 0.278679 0
0.115881 0.356646 0
-0.0391982 0.372946 0
-0.1875 0.32476 0
-0.303381 0.220419 0
-0.366805 0.0779669 0
-0.366805 -0.0779669 0
-0.303381 -0.220419 0
-0.1875 -0.32476 0
-0.0391982 -0.372946 0
0.115881 -0.356646 0
0.250924 -0.278679 0
0.34258 -0.152526 0
0.5 0 0
0.456773 0.203368 0
0.334565 0.371572 0
0.154508 0.475528 0
-0.0522642 0.497261 0
-0.25 0.433013 0
-0.404508 0.293893 0
-0.489074 0.103956 0
-0.489074 -0.103956 0
-0.404508 -0.293893 0
-0.25 -0.433013 0
-0.0522642 -0.497261 0
0.154508 -0.475528 0
0.334565 -0.371572 0
0.456773 -0.203368 0
0.625 0 0
0.570966 0.25421 0
0.418207 0.464466 0
0.193136 0.59441 0
-0.0653303 0.621576 0
-0.3125 0.541266 0
-0.505636 0.367366 0
-0.611342 0.129945 0
-0.611342 -0.129945 0
-0.505636 -0.367366 0
-0.3125 -0.541266 0
-0.0653303 -0.621576 0
0.193136 -0.59441 0
0.418207 -0.464466 0
0.570966 -0.25421 0
0.75 0 0
0.685159 0.305052 0
0.501848 0.557359 0
0.231763 0.713292 0
-0.0783963 0.745891 0
-0.375 0.649519 0
-0.606763 0.440839 0
-0.733611 0.155934 0
-0.733611 -0.155934 0
-0.606763 -0.440839 0
-0.375 -0.649519 0
-0.0783963 -0.745891 0
0.231763 -0.713292 0
0.501848 -0.557359 0
0.685159 -0.305052 0
0.875 0 0
0.799352 0.355895 0
0.585489 0.650252 0
0.27039 0.832174 0
-0.0914624 0.870207 0
-0.4375 0.757772 0
-0.70789 0.514312 0
-0.855879 0.181923 0
-0.855879 -0.181923 0
-0.70789 -0.514312 0
-0.4375 -0.757772 0
-0.0914624 -0.870207 0
0.27039 -0.832174 0
0.585489 -0.650252 0
0.799352 -0.355895 0
1 0 0
0.913545 0.406737 0
0.669131 0.743145 0
0.309017 0.951057 0
-0.104528 0.994522 0
-0.5 0.866025 0
-0.809017 0.587785 0
-0.978148 0.207912 0
-0.978148 -0.207912 0
-0.809017 -0.587785 0
-0.5 -0.866025 0
-0.104528 -0.994522 0
0.309017 -0.951057 0
0.669131 -0.743145 0
0.913545 -0.406737 0
CELLS 225 900
3 0 1 2
3 0 2 3
3 0 3 4
3 0 4 5
3 0 5 6
3 0 6 7
3 0 7 8
3 0 8 9
3 0 9 10
3 0 10 11
3 0 11 12
3 0 12 13
3 0 13 14
3 0 14 15
3 0 15 1
3 1 16 17
3 1 17 2
3 2 17 18
3 2 18 3
3 3 18 19
3 3 19 4
3 4 19 20
3 4 20 5
3 5 20 21
3 5 21 6
3 6 21 22
3 6 22 7
3 7 22 23
3 7 23 8
3 8 23 24
3 8 24 9
3 9 24 25
3 9 25 10
3 10 25 26
3 10 26 11
3 11 26 27
3 11 27 12
3 12 27 28
3 12 28 13
3 13 28 29
3 13 29 14
3 14 29 30
3 14 30 15
3 15 30 16
3 15 16 1
3 16 31 32
3 16 32 17
3 17 32 33
3 17 33 18
3 18 33 34
3 18 34 19
3 19 34 35
3 19 35 20
3 20 35 36
3 20 36 21
3 21 36 37
3 21 37 22
3 22 37 38
3 22 38 23
3 23 38 39
3 23 39 24
3 24 39 40
3 24 40 25
3 25 40 41
3 25 41 26
3 26 41 42
3 26 42 27
3 27 42 43
3 27 43 28
3 28 43 44
3 28 44 29
3 29 44 45
3 29 45 30
3 30 45 31
3 30 31 16
3 31 46 47
3 31 47 32
3 32 47 48
3 32 48 33
3 33 48 49
3 33 49 34
3 34 49 50
3 34 50 35
3 35 50 51
3 35 51 36
3 36 51 52
3 36 52 37
3 37 52 53
3 37 53 38
3 38 53 54
3 38 54 39
3 39 54 55
3 39 55 40
3 40 55 56
3 40 56 41
3 41 56 57
3 41 57 42
3 42 57 58
3 42 58 43
3 43 58 59
3 43 59 44
3 44 59 60
3 44 60 45
3 45 60 46
3 45 46 31
3 46 61 62
3 46 62 47
3 47 62 63
3 47 63 48
3 48 63 64
3 48 64 49
3 49 64 65
3 49 65 50
3 50 65 66
3 50 66 51
3 51 66 67
3 51 67 52
3 52 67 68
3 52 68 53
3 53 68 69
3 53 69 54
3 54 69 70
3 54 70 55
3 55 70 71
3 55 71 56
3 56 71 72
3 56 72 57
3 57 72 73
3 57 73 58
3 58 73 74
3 58 74 59
3 59 74 75
3 59 75 60
3 60 75 61
3 60 61 46
3 61 76 77
3 61 77 62
3 62 77 78
3 62 78 63
3 63 78 79
3 63 79 64
3 64 79 80
3 64 80 65
3 65 80 81
3 65 81 66
3 66 81 82
3 66 82 67
3 67 82 83
3 67 83 68
3 68 83 84
3 68 84 69
3 69 84 85
3 69 85 70
3 70 85 86
3 70 86 71
3 71 86 87
3 71 87 72
3 72 87 88
3 72 88 73
3 73 88 89
3 73 89 74
3 74 89 90
3 74 90 75
3 75 90 76
3 75 76 61
3 76 91 92
3 76 92 77
3 77 92 93
3 77 93 78
3 78 93 94
3 78 94 79
3 79 94 95
3 79 95 80
3 80 95 96
3 80 96 81
3 81 96 97
3 81 97 82
3 82 97 98
3 82 98 83
3 83 98 99
3 83 99 84
3 84 99 100
3 84 100 85
3 85 100 101
3 85 101 86
3 86 101 102
3 86 102 87
3 87 102 103
3 87 103 88
3 88 103 104
3 88 104 89
3 89 104 105
3 89 105 90
3 90 105 91
3 90 91 76
3 91 106 107
3 91 107 92
3 92 107 108
3 92 108 93
3 93 108 109
3 93 109 94
3 94 109 110
3 94 110 95
3 95 110 111
3 95 111 96
3 96 111 112
3 96 112 97
3 97 112 113
3 97 113 98
3 98 113 114
3 98 114 99
3 99 114 115
3 99 115 100
3 100 115 116
3 100 116 101
3 101 116 117
3 101 117 102
3 102 117 118
3 102 118 103
3 103 118 119
3 103 119 104
3 104 119 120
3 104 120 105
3 105 120 106
3 105 106 91
CELL_TYPES 225
5
5
5
5
5
5
5
5
5
5
5
5
5
5
5
5
5
5
5
5
5
5
5
5
5
5
5
5
5
5
5
5
5
5
5
5
5
5
5
5
5
5
5
5
5
5
5
5
5
5
5
5
5
5
5
5
5
5
5
5
5
5
5
5
5
5
5
5
5
5
5
5
5
5
5
5
5
5
5
5
5
5
5
5
5
5
5
5
5
5
5
5
5
5
5
5
5
5
5
5
5
5
5
5
5
5
5
5
5
5
5
5
5
5
5
5
5
5
5
5
5
5
5
5
5
5
5
5
5
5
5
5
5
5
5
5
5
5
5
5
5
5
5
5
5
5
5
5
5
5
5
5
5
5
5
5
5
5
5
5
5
5
5
5
5
5
5
5
5
5
5
5
5
5
5
5
5
5
5
5
5
5
5
5
5
5
5
5
5
5
5
5
5
5
5
5
5
5
5
5
5
5
5
5
5
5
5
5
5
5
5
5
5
5
5
5
5
5
5
5
5
5
5
5
5
CELL_DATA 225
VECTORS Et double
0.0518768 -0.244061 0
0.14666 -0.201861 0
0.216085 -0.124757 0
0.248147 -0.0260813 0
0.237302 0.0771039 0
0.185425 0.166957 0
0.101486 0.227942 0
2.06873e-14 0.249514 0
-0.101486 0.227942 0
-0.185425 0.166957 0
-0.237302 0.0771039 0
-0.248147 -0.0260813 0
-0.216085 -0.124757 0
-0.14666 -0.201861 0
-0.0518768 -0.244061 0
0.0927559 -0.572853 0
0.157393 -0.467535 0
0.317737 -0.4856 0
0.333949 -0.363097 0
0.487779 -0.314382 0
0.452763 -0.195876 0
0.573479 -0.0888051 0
0.49329 0.00521338 0
0.560019 0.152127 0
0.448522 0.205402 0
0.449727 0.366755 0
0.326201 0.370074 0
0.261673 0.517968 0
0.147477 0.470757 0
0.0283738 0.57962 0
-0.0567476 0.490042 0
-0.209832 0.54105 0
-0.25116 0.424595 0
-0.411756 0.408927 0
-0.402144 0.285731 0
-0.542483 0.206097 0
-0.483594 0.0974612 0
-0.57941 -0.0323684 0
-0.481426 -0.10766 0
-0.516152 -0.265237 0
-0.396015 -0.294166 0
-0.363647 -0.452245 0
-0.24213 -0.429808 0
-0.148263 -0.561054 0
-0.046378 -0.491132 0
0.108547 -0.806276 0
0.252714 -0.74552 0
0.427104 -0.69242 0
0.534096 -0.578278 0
0.671812 -0.458838 0
0.723128 -0.311047 0
0.800357 -0.145919 0
0.787125 0.00996719 0
0.790513 0.192231 0
0.71502 0.329258 0
0.643982 0.497142 0
0.519282 0.591617 0
0.386101 0.716093 0
0.233756 0.75168 0
0.0614597 0.811225 0
-0.0921895 0.781771 0
-0.273809 0.766089 0
-0.402194 0.676686 0
-0.561733 0.588489 0
-0.642656 0.454597 0
-0.752529 0.309134 0
-0.771996 0.153903 0
-0.813205 -0.0236731 0
-0.767852 -0.173402 0
-0.733271 -0.352387 0
-0.630939 -0.470724 0
-0.526548 -0.62017 0
-0.38493 -0.686654 0
-0.22878 -0.78072 0
-0.0723643 -0.783855 0
0.0911327 -0.909446 0
0.329041 -0.907082 0
0.453159 -0.793753 0
0.669537 -0.694827 0
0.73683 -0.540813 0
0.894264 -0.362431 0
0.893096 -0.194362 0
0.964365 0.0326328 0
0.894938 0.185697 0
0.867718 0.422054 0
0.742037 0.533646 0
0.621035 0.738499 0
0.460831 0.789324 0
0.26697 0.92725 0
0.0999432 0.90852 0
-0.133258 0.955671 0
-0.278226 0.870625 0
-0.510443 0.818848 0
-0.608287 0.682191 0
-0.799369 0.540439 0
-0.83317 0.3758 0
-0.950076 0.168583 0
-0.91399 0.00442952 0
-0.936507 -0.232422 0
-0.836773 -0.367707 0
-0.761007 -0.59324 0
-0.614871 -0.676263 0
-0.453922 -0.851481 0
-0.286651 -0.867887 0
-0.0683495 -0.962493 0
0.0407932 -0.868664 0
0.376707 -0.926333 0
0.390584 -0.776972 0
0.720912 -0.693026 0
0.672839 -0.550934 0
0.940465 -0.33989 0
0.838754 -0.229635 0
0.997403 0.072017 0
0.859641 0.13137 0
0.881881 0.471471 0
0.731888 0.46966 0
0.613874 0.789404 0
0.477585 0.726741 0
0.239722 0.970841 0
0.140704 0.858163 0
-0.17588 0.984412 0
-0.220507 0.8412 0
-0.56107 0.827768 0
-0.54359 0.678786 0
-0.849247 0.527996 0
-0.772682 0.399004 0
-0.990581 0.136929 0
-0.868169 0.0502304 0
-0.960635 -0.277815 0
-0.813543 -0.307229 0
-0.764586 -0.644522 0
-0.618247 -0.611565 0
-0.436333 -0.899785 0
-0.316051 -0.810156 0
-0.0326345 -0.999467 0
-0.033082 -0.694095 0
0.387173 -0.801826 0
0.252092 -0.647543 0
0.679832 -0.575027 0
0.493677 -0.489025 0
0.854942 -0.2488 0
0.649901 -0.24595 0
0.882225 0.120446 0
0.693751 0.0396519 0
0.756963 0.468866 0
0.617645 0.318398 0
0.500815 0.736215 0
0.434743 0.54209 0
0.158072 0.876265 0
0.17667 0.67205 0
-0.212004 0.864802 0
-0.111951 0.685806 0
-0.545421 0.703806 0
-0.381215 0.58098 0
-0.784531 0.421116 0
-0.584563 0.375698 0
-0.887988 0.0656111 0
-0.686835 0.105453 0
-0.837904 -0.301239 0
-0.670347 -0.183024 0
-0.642939 -0.616001 0
-0.53795 -0.439856 0
-0.336803 -0.824252 0
-0.312536 -0.620632 0
0.0275683 -0.889982 0
-0.113278 -0.418791 0
0.354521 -0.55755 0
0.0668529 -0.428659 0
0.550647 -0.36515 0
0.235424 -0.364408 0
0.651562 -0.109613 0
0.363289 -0.237147 0
0.639815 0.164878 0
0.428337 -0.068882 0
0.517438 0.410859 0
0.419322 0.111294 0
0.305592 0.5858 0
0.337803 0.272226 0
0.0409057 0.65945 0
0.197874 0.386087 0
-0.230853 0.619075 0
0.0237312 0.433191 0
-0.462695 0.471657 0
-0.154515 0.405392 0
-0.614534 0.242685 0
-0.306044 0.307497 0
-0.660113 -0.0282496 0
-0.404656 0.156433 0
-0.591553 -0.2943 0
-0.433298 -0.0216796 0
-0.420708 -0.509462 0
-0.38702 -0.196044 0
-0.177119 -0.636535 0
-0.273822 -0.33651 0
0.0970955 -0.653544 0
-0.178031 -0.0939277 0
0.277222 -0.239658 0
-0.124435 -0.158219 0
0.350732 -0.106182 0
-0.049324 -0.195153 0
0.363598 0.0456533 0
0.034316 -0.198343 0
0.313595 0.189595 0
0.112022 -0.167237 0
0.209368 0.300754 0
0.170359 -0.107215 0
0.0689391 0.35991 0
0.199239 -0.0286548 0
-0.0834096 0.356834 0
0.193669 0.0548605 0
-0.221336 0.292059 0
0.154612 0.12889 0
-0.320991 0.176783 0
0.0888206 0.180633 0
-0.365144 0.0309406 0
0.00767162 0.201143 0
-0.346161 -0.120252 0
-0.0748038 0.186874 0
-0.267323 -0.250652 0
-0.144345 0.140292 0
-0.142262 -0.337712 0
-0.188928 0.0694527 0
0.00739689 -0.366378 0
-0.200843 -0.0133956 0
0.155777 -0.331695 0
