# vtk DataFile Version 3.0
tp3485 cell-vector
ASCII
DATASET UNSTRUCTURED_GRID
POINTS 121 double
0 0 0
0.125 0 0
0.114193 0.0508421 0
0.0836413 0.0928931 0
0.0386271 0.118882 0
-0.0130661 0.124315 0
-0.0625 0.108253 0
-0.101127 0.0734732 0
-0.122268 0.025989 0
-0.122268 -0.025989 0
-0.101127 -0.0734732 0
-0.0625 -0.108253 0
-0.0130661 -0.124315 0
0.0386271 -0.118882 0
0.0836413 -0.0928931 0
0.114193 -0.0508421 0
0.25 0 0
0.228386 0.101684 0
0.167283 0.185786 0
0.0772542 0.237764 0
-0.0261321 0.24863 0
-0.125 0.216506 0
-0.202254 0.146946 0
-0.244537 0.0519779 0
-0.244537 -0.0519779 0
-0.202254 -0.146946 0
-0.125 -0.216506 0
-0.0261321 -0.24863 0
0.0772542 -0.237764 0
0.167283 -0.185786 0
0.228386 -0.101684 0
0.375 0 0
0.34258 0.152526 0
0.250924 0.278679 0
0.115881 0.356646 0
-0.0391982 0.372946 0
-0.1875 0.32476 0
-0.303381 0.220419 0
-0.366805 0.0779669 0
-0.366805 -0.0779669 0
-0.303381 -0.220419 0
-0.1875 -0.32476 0
-0.0391982 -0.372946 0
0.115881 -0.356646 0
0.250924 -0.278679 0
0.34258 -0.152526 0
0.5 0 0
0.456773 0.203368 0
0.334565 0.371572 0
0.154508 0.475528 0
-0.0522642 0.497261 0
-0.25 0.433013 0
-0.404508 0.293893 0
-0.489074 0.103956 0
-0.489074 -0.103956 0
-0.404508 -0.293893 0
-0.25 -0.433013 0
-0.0522642 -0.497261 0
0.154508 -0.475528 0
0.334565 -0.371572 0
0.456773 -0.203368 0
0.625 0 0
0.570966 0.25421 0
0.418207 0.464466 0
0.193136 0.59441 0
-0.0653303 0.621576 0
-0.3125 0.541266 0
-0.505636 0.367366 0
-0.611342 0.129945 0
-0.611342 -0.129945 0
-0.505636 -0.367366 0
-0.3125 -0.541266 0
-0.0653303 -0.621576 0
0.193136 -0.59441 0
0.418207 -0.464466 0
0.570966 -0.25421 0
0.75 0 0
0.685159 0.305052 0
0.501848 0.557359 0
0.231763 0.713292 0
-0.0783963 0.745891 0
-0.375 0.649519 0
-0.606763 0.440839 0
-0.733611 0.155934 0
-0.733611 -0.155934 0
-0.606763 -0.440839 0
-0.375 -0.649519 0
-0.0783963 -0.745891 0
0.231763 -0.713292 0
0.501848 -0.557359 0
0.685159 -0.305052 0
0.875 0 0
0.799352 0.355895 0
0.585489 0.650252 0
0.27039 0.832174 0
-0.0914624 0.870207 0
-0.4375 0.757772 0
-0.70789 0.514312 0
-0.855879 0.181923 0
-0.855879 -0.181923 0
-0.70789 -0.514312 0
-0.4375 -0.757772 0
-0.0914624 -0.870207 0
0.27039 -0.832174 0
0.585489 -0.650252 0
0.799352 -0.355895 0
1 0 0
0.913545 0.406737 0
0.669131 0.743145 0
0.309017 0.951057 0
-0.104528 0.994522 0
-0.5 0.866025 0
-0.809017 0.587785 0
-0.978148 0.207912 0
-0.978148 -0.207912 0
-0.809017 -0.587785 0
-0.5 -0.866025 0
-0.104528 -0.994522 0
0.309017 -0.951057 0
0.669131 -0.743145 0
0.913545 -0.406737 0
CELLS 225 900
3 0 1 2
3 0 2 3
3 0 3 4
3 0 4 5
3 0 5 6
3 0 6 7
3 0 7 8
3 0 8 9
3 0 9 10
3 0 10 11
3 0 11 12
3 0 12 13
3 0 13 14
3 0 14 15
3 0 15 1
3 1 16 17
3 1 17 2
3 2 17 18
3 2 18 3
3 3 18 19
3 3 19 4
3 4 19 20
3 4 20 5
3 5 20 21
3 5 21 6
3 6 21 22
3 6 22 7
3 7 22 23
3 7 23 8
3 8 23 24
3 8 24 9
3 9 24 25
3 9 25 10
3 10 25 26
3 10 26 11
3 11 26 27
3 11 27 12
3 12 27 28
3 12 28 13
3 13 28 29
3 13 29 14
3 14 29 30
3 14 30 15
3 15 30 16
3 15 16 1
3 16 31 32
3 16 32 17
3 17 32 33
3 17 33 18
3 18 33 34
3 18 34 19
3 19 34 35
3 19 35 20
3 20 35 36
3 20 36 21
3 21 36 37
3 21 37 22
3 22 37 38
3 22 38 23
3 23 38 39
3 23 39 24
3 24 39 40
3 24 40 25
3 25 40 41
3 25 41 26
3 26 41 42
3 26 42 27
3 27 42 43
3 27 43 28
3 28 43 44
3 28 44 29
3 29 44 45
3 29 45 30
3 30 45 31
3 30 31 16
3 31 46 47
3 31 47 32
3 32 47 48
3 32 48 33
3 33 48 49
3 33 49 34
3 34 49 50
3 34 50 35
3 35 50 51
3 35 51 36
3 36 51 52
3 36 52 37
3 37 52 53
3 37 53 38
3 38 53 54
3 38 54 39
3 39 54 55
3 39 55 40
3 40 55 56
3 40 56 41
3 41 56 57
3 41 57 42
3 42 57 58
3 42 58 43
3 43 58 59
3 43 59 44
3 44 59 60
3 44 60 45
3 45 60 46
3 45 46 31
3 46 61 62
3 46 62 47
3 47 62 63
3 47 63 48
3 48 63 64
3 48 64 49
3 49 64 65
3 49 65 50
3 50 65 66
3 50 66 51
3 51 66 67
3 51 67 52
3 52 67 68
3 52 68 53
3 53 68 69
3 53 69 54
3 54 69 70
3 54 70 55
3 55 70 71
3 55 71 56
3 56 71 72
3 56 72 57
3 57 72 73
3 57 73 58
3 58 73 74
3 58 74 59
3 59 74 75
3 59 75 60
3 60 75 61
3 60 61 46
3 61 76 77
3 61 77 62
3 62 77 78
3 62 78 63
3 63 78 79
3 63 79 64
3 64 79 80
3 64 80 65
3 65 80 81
3 65 81 66
3 66 81 82
3 66 82 67
3 67 82 83
3 67 83 68
3 68 83 84
3 68 84 69
3 69 84 85
3 69 85 70
3 70 85 86
3 70 86 71
3 71 86 87
3 71 87 72
3 72 87 88
3 72 88 73
3 73 88 89
3 73 89 74
3 74 89 90
3 74 90 75
3 75 90 76
3 75 76 61
3 76 91 92
3 76 92 77
3 77 92 93
3 77 93 78
3 78 93 94
3 78 94 79
3 79 94 95
3 79 95 80
3 80 95 96
3 80 96 81
3 81 96 97
3 81 97 82
3 82 97 98
3 82 98 83
3 83 98 99
3 83 99 84
3 84 99 100
3 84 100 85
3 85 100 101
3 85 101 86
3 86 101 102
3 86 102 87
3 87 102 103
3 87 103 88
3 88 103 104
3 88 104 89
3 89 104 105
3 89 105 90
3 90 105 91
3 90 91 76
3 91 106 107
3 91 107 92
3 92 107 108
3 92 108 93
3 93 108 109
3 93 109 94
3 94 109 110
3 94 110 95
3 95 110 111
3 95 111 96
3 96 111 112
3 96 112 97
3 97 112 113
3 97 113 98
3 98 113 114
3 98 114 99
3 99 114 115
3 99 115 100
3 100 115 116
3 100 116 101
3 101 116 117
3 101 117 102
3 102 117 118
3 102 118 103
3 103 118 119
3 103 119 104
3 104 119 120
3 104 120 105
3 105 120 106
3 105 106 91
CELL_TYPES 225
5
5
5
5
5
5
5
5
5
5
5
5
5
5
5
5
5
5
5
5
5
5
5
5
5
5
5
5
5
5
5
5
5
5
5
5
5
5
5
5
5
5
5
5
5
5
5
5
5
5
5
5
5
5
5
5
5
5
5
5
5
5
5
5
5
5
5
5
5
5
5
5
5
5
5
5
5
5
5
5
5
5
5
5
5
5
5
5
5
5
5
5
5
5
5
5
5
5
5
5
5
5
5
5
5
5
5
5
5
5
5
5
5
5
5
5
5
5
5
5
5
5
5
5
5
5
5
5
5
5
5
5
5
5
5
5
5
5
5
5
5
5
5
5
5
5
5
5
5
5
5
5
5
5
5
5
5
5
5
5
5
5
5
5
5
5
5
5
5
5
5
5
5
5
5
5
5
5
5
5
5
5
5
5
5
5
5
5
5
5
5
5
5
5
5
5
5
5
5
5
5
5
5
5
5
5
5
5
5
5
5
5
5
5
5
5
5
5
5
5
5
5
5
5
5
CELL_DATA 225
VECTORS Et double
0.0841758 -0.396016 0
0.237973 -0.327541 0
0.350622 -0.202432 0
0.402645 -0.0423197 0
0.385048 0.12511 0
0.300872 0.270906 0
0.164673 0.369861 0
-1.99998e-14 0.404863 0
-0.164673 0.369861 0
-0.300872 0.270906 0
-0.385048 0.12511 0
-0.402645 -0.0423197 0
-0.350622 -0.202432 0
-0.237973 -0.327541 0
-0.0841758 -0.396016 0
0.11495 -0.790547 0
0.260641 -0.726717 0
0.426556 -0.675447 0
0.53369 -0.557877 0
0.664407 -0.443555 0
0.714459 -0.292574 0
0.787377 -0.134969 0
0.771691 0.0233166 0
0.774201 0.196955 0
0.695492 0.335176 0
0.627159 0.494823 0
0.499035 0.58908 0
0.371676 0.707132 0
0.21629 0.741127 0
0.0519263 0.797171 0
-0.103853 0.765027 0
-0.276802 0.749373 0
-0.406039 0.656646 0
-0.557668 0.572 0
-0.638017 0.434725 0
-0.742109 0.295724 0
-0.759676 0.137637 0
-0.798232 -0.0316852 0
-0.74998 -0.183251 0
-0.716334 -0.353616 0
-0.610606 -0.472452 0
-0.510575 -0.614404 0
-0.365653 -0.679963 0
-0.216533 -0.768955 0
-0.0574748 -0.769901 0
0.0476469 -0.790864 0
0.377513 -0.926004 0
0.365201 -0.703111 0
0.721515 -0.692399 0
0.619609 -0.493783 0
0.940761 -0.339071 0
0.76688 -0.199076 0
0.99734 0.0728851 0
0.781551 0.130054 0
0.881471 0.472239 0
0.661085 0.436696 0
0.613187 0.789938 0
0.426311 0.667829 0
0.238877 0.97105 0
0.117824 0.783488 0
-0.176736 0.984258 0
-0.211036 0.763676 0
-0.561791 0.82728 0
-0.503405 0.611816 0
-0.849706 0.527257 0
-0.708732 0.354169 0
-0.9907 0.136066 0
-0.791512 0.0352819 0
-0.960392 -0.278651 0
-0.737433 -0.289705 0
-0.764024 -0.645187 0
-0.555845 -0.5646 0
-0.43555 -0.900165 0
-0.278146 -0.74187 0
-0.0317646 -0.999495 0
-0.0879898 -0.418886 0
0.385672 -0.703986 0
0.0899935 -0.41846 0
0.638666 -0.486256 0
0.252416 -0.345678 0
0.781229 -0.184448 0
0.371194 -0.213126 0
0.78871 0.149253 0
0.425788 -0.0437223 0
0.659816 0.457146 0
0.40676 0.133241 0
0.416834 0.685995 0
0.3174 0.287166 0
0.101777 0.796229 0
0.173158 0.391438 0
-0.230878 0.768788 0
-0.00102423 0.428026 0
-0.523611 0.608416 0
-0.17503 0.390605 0
-0.725808 0.342844 0
-0.318771 0.285644 0
-0.802506 0.017991 0
-0.407393 0.131293 0
-0.740443 -0.309973 0
-0.425574 -0.0457595 0
-0.550351 -0.58434 0
-0.370169 -0.2149 0
-0.265098 -0.757669 0
-0.250759 -0.346882 0
0.0659923 -0.79999 0
-0.195459 0.111028 0
0.254708 -0.187641 0
-0.22372 0.021929 0
0.309008 -0.0678192 0
-0.213297 -0.0709618 0
0.309877 0.0637288 0
-0.165994 -0.151583 0
0.257166 0.184257 0
-0.0899888 -0.205994 0
0.159988 0.272926 0
0.00157622 -0.224786 0
0.0351476 0.314404 0
0.0928687 -0.204711 0
-0.0957706 0.301518 0
0.168103 -0.14924 0
-0.210129 0.236497 0
0.214271 -0.0679637 0
-0.288155 0.130583 0
0.22339 0.0250641 0
-0.316355 0.00209089 0
0.193882 0.113758 0
-0.289856 -0.126763 0
0.130851 0.182782 0
-0.213237 -0.233699 0
0.0451939 0.220202 0
-0.0997478 -0.300226 0
-0.0482775 0.219546 0
0.0309887 -0.314841 0
-0.133401 0.180929 0
0.156367 -0.275017 0
-0.170532 0.49396 0
0.00838046 0.330567 0
-0.3567 0.381894 0
-0.126798 0.305397 0
-0.481192 0.203794 0
-0.240052 0.227421 0
-0.522481 -0.00954324 0
-0.311799 0.110121 0
-0.473429 -0.22123 0
-0.329632 -0.0262191 0
-0.342516 -0.394665 0
-0.29047 -0.158026 0
-0.152379 -0.499858 0
-0.201083 -0.262509 0
0.0641051 -0.518622 0
-0.0769261 -0.321601 0
0.269505 -0.44771 0
0.0605315 -0.325086 0
0.428306 -0.299386 0
0.187523 -0.272361 0
0.513048 -0.0992953 0
0.282089 -0.172541 0
0.50908 0.117965 0
0.32788 -0.0428882 0
0.417087 0.314827 0
0.316978 0.0941806 0
0.252976 0.457254 0
0.251267 0.214965 0
0.0451232 0.520617 0
0.14211 0.29858 0
0.0131366 0.500658 0
-0.255642 0.546499 0
-0.191635 0.462717 0
-0.455822 0.395272 0
-0.363271 0.344768 0
-0.577186 0.1757 0
-0.472095 0.167205 0
-0.598749 -0.074253 0
-0.499288 -0.0392684 0
-0.516783 -0.311367 0
-0.440151 -0.238952 0
-0.34546 -0.494642 0
-0.304907 -0.397319 0
-0.114405 -0.592389 0
-0.116942 -0.486986 0
0.136433 -0.587707 0
0.0912431 -0.492449 0
0.363679 -0.481405 0
0.283652 -0.412762 0
0.528043 -0.291864 0
0.427014 -0.261706 0
0.601103 -0.0518565 0
0.496542 -0.0653976 0
0.570227 0.197117 0
0.480213 0.142218 0
0.440753 0.412008 0
0.380851 0.325243 0
0.235069 0.555658 0
0.215637 0.452031 0
-0.0112599 0.60323 0
0.244289 0.133397 0
-0.382493 0.333563 0
0.168911 0.221225 0
-0.485097 0.149151 0
0.0643276 0.270802 0
-0.503823 -0.0610506 0
-0.0513788 0.273554 0
-0.435434 -0.260696 0
-0.158201 0.229006 0
-0.291754 -0.415264 0
-0.237669 0.144862 0
-0.0976273 -0.49803 0
-0.276042 0.0356687 0
0.11338 -0.494681 0
-0.266685 -0.0796915 0
0.304783 -0.405798 0
-0.211215 -0.181272 0
0.443486 -0.246749 0
-0.119225 -0.25151 0
0.505506 -0.0450342 0
-0.00661906 -0.278259 0
0.48012 0.164467 0
0.107131 -0.256894 0
0.371717 0.345531 0
0.202357 -0.19111 0
0.19904 0.466849 0
0.262594 -0.0922817 0
-0.00805232 0.507445 0
0.277426 0.0225031 0
-0.213752 0.460298 0
