# vtk DataFile Version 3.0
tp3485 cell-vector
ASCII
DATASET UNSTRUCTURED_GRID
POINTS 121 double
0 0 0
0.125 0 0
0.114193 0.0508421 0
0.0836413 0.0928931 0
0.0386271 0.118882 0
-0.0130661 0.124315 0
-0.0625 0.108253 0
-0.101127 0.0734732 0
-0.122268 0.025989 0
-0.122268 -0.025989 0
-0.101127 -0.0734732 0
-0.0625 -0.108253 0
-0.0130661 -0.124315 0
0.0386271 -0.118882 0
0.0836413 -0.0928931 0
0.114193 -0.0508421 0
0.25 0 0
0.228386 0.101684 0
0.167283 0.185786 0
0.0772542 0.237764 0
-0.0261321 0.24863 0
-0.125 0.216506 0
-0.202254 0.146946 0
-0.244537 0.0519779 0
-0.244537 -0.0519779 0
-0.202254 -0.146946 0
-0.125 -0.216506 0
-0.0261321 -0.24863 0
0.0772542 -0.237764 0
0.167283 -0.185786 0
0.228386 -0.101684 0
0.375 0 0
0.34258 0.152526 0
0.250924 0.278679 0
0.115881 0.356646 0
-0.0391982 0.372946 0
-0.1875 0.32476 0
-0.303381 0.220419 0
-0.366805 0.0779669 0
-0.366805 -0.0779669 0
-0.303381 -0.220419 0
-0.1875 -0.32476 0
-0.0391982 -0.372946 0
0.115881 -0.356646 0
0.250924 -0.278679 0
0.34258 -0.152526 0
0.5 0 0
0.456773 0.203368 0
0.334565 0.371572 0
0.154508 0.475528 0
-0.0522642 0.497261 0
-0.25 0.433013 0
-0.404508 0.293893 0
-0.489074 0.103956 0
-0.489074 -0.103956 0
-0.404508 -0.293893 0
-0.25 -0.433013 0
-0.0522642 -0.497261 0
0.154508 -0.475528 0
0.334565 -0.371572 0
0.456773 -0.203368 0
0.625 0 0
0.570966 0.25421 0
0.418207 0.464466 0
0.193136 0.59441 0
-0.0653303 0.621576 0
-0.3125 0.541266 0
-0.505636 0.367366 0
-0.611342 0.129945 0
-0.611342 -0.129945 0
-0.505636 -0.367366 0
-0.3125 -0.541266 0
-0.0653303 -0.621576 0
0.193136 -0.59441 0
0.418207 -0.464466 0
0.570966 -0.25421 0
0.75 0 0
0.685159 0.305052 0
0.501848 0.557359 0
0.231763 0.713292 0
-0.0783963 0.745891 0
-0.375 0.649519 0
-0.606763 0.440839 0
-0.733611 0.155934 0
-0.733611 -0.155934 0
-0.606763 -0.440839 0
-0.375 -0.649519 0
-0.0783963 -0.745891 0
0.231763 -0.713292 0
0.501848 -0.557359 0
0.685159 -0.305052 0
0.875 0 0
0.799352 0.355895 0
0.585489 0.650252 0
0.27039 0.832174 0
-0.0914624 0.870207 0
-0.4375 0.757772 0
-0.70789 0.514312 0
-0.855879 0.181923 0
-0.855879 -0.181923 0
-0.70789 -0.514312 0
-0.4375 -0.757772 0
-0.0914624 -0.870207 0
0.27039 -0.832174 0
0.585489 -0.650252 0
0.799352 -0.355895 0
1 0 0
0.913545 0.406737 0
0.669131 0.743145 0
0.309017 0.951057 0
-0.104528 0.994522 0
-0.5 0.866025 0
-0.809017 0.587785 0
-0.978148 0.207912 0
-0.978148 -0.207912 0
-0.809017 -0.587785 0
-0.5 -0.866025 0
-0.104528 -0.994522 0
0.309017 -0.951057 0
0.669131 -0.743145 0
0.913545 -0.406737 0
CELLS 225 900
3 0 1 2
3 0 2 3
3 0 3 4
3 0 4 5
3 0 5 6
3 0 6 7
3 0 7 8
3 0 8 9
3 0 9 10
3 0 10 11
3 0 11 12
3 0 12 13
3 0 13 14
3 0 14 15
3 0 15 1
3 1 16 17
3 1 17 2
3 2 17 18
3 2 18 3
3 3 18 19
3 3 19 4
3 4 19 20
3 4 20 5
3 5 20 21
3 5 21 6
3 6 21 22
3 6 22 7
3 7 22 23
3 7 23 8
3 8 23 24
3 8 24 9
3 9 24 25
3 9 25 10
3 10 25 26
3 10 26 11
3 11 26 27
3 11 27 12
3 12 27 28
3 12 28 13
3 13 28 29
3 13 29 14
3 14 29 30
3 14 30 15
3 15 30 16
3 15 16 1
3 16 31 32
3 16 32 17
3 17 32 33
3 17 33 18
3 18 33 34
3 18 34 19
3 19 34 35
3 19 35 20
3 20 35 36
3 20 36 21
3 21 36 37
3 21 37 22
3 22 37 38
3 22 38 23
3 23 38 39
3 23 39 24
3 24 39 40
3 24 40 25
3 25 40 41
3 25 41 26
3 26 41 42
3 26 42 27
3 27 42 43
3 27 43 28
3 28 43 44
3 28 44 29
3 29 44 45
3 29 45 30
3 30 45 31
3 30 31 16
3 31 46 47
3 31 47 32
3 32 47 48
3 32 48 33
3 33 48 49
3 33 49 34
3 34 49 50
3 34 50 35
3 35 50 51
3 35 51 36
3 36 51 52
3 36 52 37
3 37 52 53
3 37 53 38
3 38 53 54
3 38 54 39
3 39 54 55
3 39 55 40
3 40 55 56
3 40 56 41
3 41 56 57
3 41 57 42
3 42 57 58
3 42 58 43
3 43 58 59
3 43 59 44
3 44 59 60
3 44 60 45
3 45 60 46
3 45 46 31
3 46 61 62
3 46 62 47
3 47 62 63
3 47 63 48
3 48 63 64
3 48 64 49
3 49 64 65
3 49 65 50
3 50 65 66
3 50 66 51
3 51 66 67
3 51 67 52
3 52 67 68
3 52 68 53
3 53 68 69
3 53 69 54
3 54 69 70
3 54 70 55
3 55 70 71
3 55 71 56
3 56 71 72
3 56 72 57
3 57 72 73
3 57 73 58
3 58 73 74
3 58 74 59
3 59 74 75
3 59 75 60
3 60 75 61
3 60 61 46
3 61 76 77
3 61 77 62
3 62 77 78
3 62 78 63
3 63 78 79
3 63 79 64
3 64 79 80
3 64 80 65
3 65 80 81
3 65 81 66
3 66 81 82
3 66 82 67
3 67 82 83
3 67 83 68
3 68 83 84
3 68 84 69
3 69 84 85
3 69 85 70
3 70 85 86
3 70 86 71
3 71 86 87
3 71 87 72
3 72 87 88
3 72 88 73
3 73 88 89
3 73 89 74
3 74 89 90
3 74 90 75
3 75 90 76
3 75 76 61
3 76 91 92
3 76 92 77
3 77 92 93
3 77 93 78
3 78 93 94
3 78 94 79
3 79 94 95
3 79 95 80
3 80 95 96
3 80 96 81
3 81 96 97
3 81 97 82
3 82 97 98
3 82 98 83
3 83 98 99
3 83 99 84
3 84 99 100
3 84 100 85
3 85 100 101
3 85 101 86
3 86 101 102
3 86 102 87
3 87 102 103
3 87 103 88
3 88 103 104
3 88 104 89
3 89 104 105
3 89 105 90
3 90 105 91
3 90 91 76
3 91 106 107
3 91 107 92
3 92 107 108
3 92 108 93
3 93 108 109
3 93 109 94
3 94 109 110
3 94 110 95
3 95 110 111
3 95 111 96
3 96 111 112
3 96 112 97
3 97 112 113
3 97 113 98
3 98 113 114
3 98 114 99
3 99 114 115
3 99 115 100
3 100 115 116
3 100 116 101
3 101 116 117
3 101 117 102
3 102 117 118
3 102 118 103
3 103 118 119
3 103 119 104
3 104 119 120
3 104 120 105
3 105 120 106
3 105 106 91
CELL_TYPES 225
5
5
5
5
5
5
5
5
5
5
5
5
5
5
5
5
5
5
5
5
5
5
5
5
5
5
5
5
5
5
5
5
5
5
5
5
5
5
5
5
5
5
5
5
5
5
5
5
5
5
5
5
5
5
5
5
5
5
5
5
5
5
5
5
5
5
5
5
5
5
5
5
5
5
5
5
5
5
5
5
5
5
5
5
5
5
5
5
5
5
5
5
5
5
5
5
5
5
5
5
5
5
5
5
5
5
5
5
5
5
5
5
5
5
5
5
5
5
5
5
5
5
5
5
5
5
5
5
5
5
5
5
5
5
5
5
5
5
5
5
5
5
5
5
5
5
5
5
5
5
5
5
5
5
5
5
5
5
5
5
5
5
5
5
5
5
5
5
5
5
5
5
5
5
5
5
5
5
5
5
5
5
5
5
5
5
5
5
5
5
5
5
5
5
5
5
5
5
5
5
5
5
5
5
5
5
5
5
5
5
5
5
5
5
5
5
5
5
5
5
5
5
5
5
5
CELL_DATA 225
VECTORS Ht double
0.0433297 -0.146055 0
0.0168234 -0.0919818 0
-0.104913 0.0178258 0
-0.143328 0.0327374 0
-0.00570509 0.0484919 0
0.104823 0.110552 0
0.0712469 0.0605604 0
0.0370189 -0.0997701 0
0.0433125 -0.140494 0
-0.0391427 -0.0291867 0
-0.148153 0.0355031 0
-0.0880703 0.0314214 0
0.067894 0.0819443 0
0.100015 0.107757 0
0.0448478 -0.0193052 0
0.219841 -0.38829 0
-0.0432854 -0.148067 0
0.0060082 -0.299311 0
-0.188332 -0.234553 0
-0.357027 -0.0710382 0
-0.128443 -0.0485281 0
-0.410172 0.0659564 0
-0.108609 0.237218 0
-0.0620582 0.246988 0
-0.0710704 0.234555 0
0.226349 0.384533 0
0.149873 0.0365473 0
0.256207 0.154859 0
0.297295 -0.0458233 0
0.240034 -0.273675 0
0.106248 -0.0869707 0
0.147966 -0.388198 0
-0.151132 -0.212667 0
-0.182868 -0.177238 0
-0.167596 -0.178826 0
-0.44619 0.00375687 0
-0.106587 0.11152 0
-0.262215 0.144452 0
-0.108963 0.280377 0
0.116992 0.344713 0
0.0221948 0.135499 0
0.262206 0.322241 0
0.259741 -0.0245509 0
0.244927 -0.0697498 0
0.238666 -0.0557288 0
0.446234 -0.565407 0
-0.0250408 -0.371111 0
-0.0578299 -0.524587 0
-0.362795 -0.532016 0
-0.61955 -0.264005 0
-0.330132 -0.124645 0
-0.634583 0.0891946 0
-0.307668 0.472235 0
-0.162342 0.527909 0
-0.164147 0.518024 0
0.26654 0.669154 0
0.333912 0.16387 0
0.48322 0.212211 0
0.642137 -0.0481818 0
0.53841 -0.404544 0
0.273012 -0.22358 0
0.240047 -0.594162 0
-0.255134 -0.502566 0
-0.376012 -0.404547 0
-0.366549 -0.401168 0
-0.712774 -0.103746 0
-0.308872 0.207242 0
-0.425391 0.312376 0
-0.279342 0.580198 0
0.0811401 0.668549 0
0.0571204 0.348226 0
0.394536 0.504967 0
0.562802 0.0303308 0
0.538354 -0.123362 0
0.530696 -0.116857 0
0.59752 -0.526732 0
0.0336688 -0.489013 0
-0.19063 -0.64545 0
-0.520083 -0.763493 0
-0.736636 -0.503934 0
-0.487652 -0.259614 0
-0.641335 0.103861 0
-0.42945 0.628211 0
-0.269798 0.782048 0
-0.267015 0.782847 0
0.157403 0.780833 0
0.406663 0.273664 0
0.654291 0.157635 0
0.921246 -0.0686589 0
0.804737 -0.385978 0
0.468658 -0.292511 0
0.230722 -0.607343 0
-0.329321 -0.68602 0
-0.542374 -0.624676 0
-0.544458 -0.622665 0
-0.754923 -0.254101 0
-0.440332 0.215348 0
-0.463662 0.487816 0
-0.401163 0.832152 0
-0.0681019 0.889912 0
0.0189931 0.552126 0
0.410614 0.503482 0
0.758772 0.0578095 0
0.812172 -0.157372 0
0.811473 -0.160182 0
0.591718 -0.217137 0
0.0987324 -0.360667 0
-0.376544 -0.573578 0
-0.624002 -0.781423 0
-0.625715 -0.712937 0
-0.489973 -0.430092 0
-0.348358 0.103809 0
-0.331696 0.620599 0
-0.333909 0.913086 0
-0.335046 0.918919 0
-0.107813 0.621012 0
0.26298 0.265838 0
0.685005 -0.0393082 0
0.988733 -0.14969 0
0.930279 -0.185416 0
0.617457 -0.209283 0
0.0842773 -0.353591 0
-0.371606 -0.597557 0
-0.623801 -0.745717 0
-0.628285 -0.749618 0
-0.483906 -0.403874 0
-0.361713 0.0948285 0
-0.308461 0.612886 0
-0.364731 0.931113 0
-0.304564 0.898353 0
-0.127484 0.639375 0
0.26408 0.249782 0
0.703302 -0.0230417 0
0.957711 -0.167369 0
0.96333 -0.169302 0
0.428249 0.273546 0
0.109893 0.0212012 0
-0.545797 -0.295073 0
-0.650422 -0.525558 0
-0.317253 -0.805089 0
-0.292893 -0.556085 0
0.169186 0.0687431 0
0.0190704 0.447431 0
-0.307771 0.855817 0
-0.318974 0.84717 0
-0.451023 0.234102 0
-0.073307 0.0845692 0
0.528439 -0.325137 0
0.780357 -0.300503 0
0.855854 0.127795 0
0.62803 0.0243892 0
-0.144126 0.112148 0
-0.397022 -0.2072 0
-0.587274 -0.694446 0
-0.574184 -0.699825 0
0.0227733 -0.507648 0
-0.0365855 -0.10577 0
0.0173574 0.62021 0
-0.129935 0.826061 0
-0.538601 0.677294 0
-0.335137 0.531695 0
-0.0250597 -0.180891 0
0.377952 -0.240231 0
0.895045 -0.161371 0
0.893158 -0.147345 0
0.191555 0.724 0
0.00526547 0.500862 0
-0.583949 0.108278 0
-0.589856 -0.0692647 0
0.0529439 -0.712461 0
0.0530673 -0.526439 0
0.680193 -0.0274416 0
0.505514 0.200807 0
-0.173951 0.592876 0
-0.191793 0.55327 0
-0.72278 -0.196108 0
-0.436392 -0.245871 0
0.198203 -0.559854 0
0.354913 -0.476198 0
0.590537 0.402081 0
0.429376 0.309177 0
-0.316331 0.602785 0
-0.426661 0.337384 0
-0.42647 -0.447084 0
-0.38325 -0.442733 0
0.531225 -0.527891 0
0.431127 -0.254991 0
0.385746 0.451576 0
0.234943 0.545463 0
-0.643481 0.31038 0
-0.482443 0.217262 0
-0.363862 -0.575344 0
-0.0788526 -0.538191 0
0.600421 -0.145792 0
0.575043 -0.110537 0
0.00784246 0.871004 0
-0.233573 0.812597 0
-0.383833 0.471658 0
-0.449305 0.385305 0
0.306758 -0.418831 0
0.409632 -0.265556 0
0.885825 -0.189718 0
0.885015 0.0291186 0
0.0313162 0.167848 0
0.0209176 0.112189 0
-0.758233 -0.42871 0
-0.586943 -0.608578 0
-0.216551 -0.568238 0
-0.109031 -0.581762 0
0.20934 0.475076 0
0.0251622 0.48753 0
-0.278611 0.862006 0
-0.467725 0.751886 0
-0.161019 -0.0568033 0
-0.107617 -0.0379791 0
0.75039 -0.442294 0
0.820516 -0.204018 0
0.600384 0.09658 0
0.558336 0.196458 0
-0.516097 -0.0562444 0
-0.434794 -0.221974 0
-0.607213 -0.672287 0
-0.41729 -0.781005 0
0.129702 -0.111045 0
0.0866994 -0.0742095 0
