# vtk DataFile Version 3.0
tp3485 cell-vector
ASCII
DATASET UNSTRUCTURED_GRID
POINTS 121 double
0 0 0
0.125 0 0
0.114193 0.0508421 0
0.0836413 0.0928931 0
0.0386271 0.118882 0
-0.0130661 0.124315 0
-0.0625 0.108253 0
-0.101127 0.0734732 0
-0.122268 0.025989 0
-0.122268 -0.025989 0
-0.101127 -0.0734732 0
-0.0625 -0.108253 0
-0.0130661 -0.124315 0
0.0386271 -0.118882 0
0.0836413 -0.0928931 0
0.114193 -0.0508421 0
0.25 0 0
0.228386 0.101684 0
0.167283 0.185786 0
0.0772542 0.237764 0
-0.0261321 0.24863 0
-0.125 0.216506 0
-0.202254 0.146946 0
-0.244537 0.0519779 0
-0.244537 -0.0519779 0
-0.202254 -0.146946 0
-0.125 -0.216506 0
-0.0261321 -0.24863 0
0.0772542 -0.237764 0
0.167283 -0.185786 0
0.228386 -0.101684 0
0.375 0 0
0.34258 0.152526 0
0.250924 0.278679 0
0.115881 0.356646 0
-0.0391982 0.372946 0
-0.1875 0.32476 0
-0.303381 0.220419 0
-0.366805 0.0779669 0
-0.366805 -0.0779669 0
-0.303381 -0.220419 0
-0.1875 -0.32476 0
-0.0391982 -0.372946 0
0.115881 -0.356646 0
0.250924 -0.278679 0
0.34258 -0.152526 0
0.5 0 0
0.456773 0.203368 0
0.334565 0.371572 0
0.154508 0.475528 0
-0.0522642 0.497261 0
-0.25 0.433013 0
-0.404508 0.293893 0
-0.489074 0.103956 0
-0.489074 -0.103956 0
-0.404508 -0.293893 0
-0.25 -0.433013 0
-0.0522642 -0.497261 0
0.154508 -0.475528 0
0.334565 -0.371572 0
0.456773 -0.203368 0
0.625 0 0
0.570966 0.25421 0
0.418207 0.464466 0
0.193136 0.59441 0
-0.0653303 0.621576 0
-0.3125 0.541266 0
-0.505636 0.367366 0
-0.611342 0.129945 0
-0.611342 -0.129945 0
-0.505636 -0.367366 0
-0.3125 -0.541266 0
-0.0653303 -0.621576 0
0.193136 -0.59441 0
0.418207 -0.464466 0
0.570966 -0.25421 0
0.75 0 0
0.685159 0.305052 0
0.501848 0.557359 0
0.231763 0.713292 0
-0.0783963 0.745891 0
-0.375 0.649519 0
-0.606763 0.440839 0
-0.733611 0.155934 0
-0.733611 -0.155934 0
-0.606763 -0.440839 0
-0.375 -0.649519 0
-0.0783963 -0.745891 0
0.231763 -0.713292 0
0.501848 -0.557359 0
0.685159 -0.305052 0
0.875 0 0
0.799352 0.355895 0
0.585489 0.650252 0
0.27039 0.832174 0
-0.0914624 0.870207 0
-0.4375 0.757772 0
-0.70789 0.514312 0
-0.855879 0.181923 0
-0.855879 -0.181923 0
-0.70789 -0.514312 0
-0.4375 -0.757772 0
-0.0914624 -0.870207 0
0.27039 -0.832174 0
0.585489 -0.650252 0
0.799352 -0.355895 0
1 0 0
0.913545 0.406737 0
0.669131 0.743145 0
0.309017 0.951057 0
-0.104528 0.994522 0
-0.5 0.866025 0
-0.809017 0.587785 0
-0.978148 0.207912 0
-0.978148 -0.207912 0
-0.809017 -0.587785 0
-0.5 -0.866025 0
-0.104528 -0.994522 0
0.309017 -0.951057 0
0.669131 -0.743145 0
0.913545 -0.406737 0
CELLS 225 900
3 0 1 2
3 0 2 3
3 0 3 4
3 0 4 5
3 0 5 6
3 0 6 7
3 0 7 8
3 0 8 9
3 0 9 10
3 0 10 11
3 0 11 12
3 0 12 13
3 0 13 14
3 0 14 15
3 0 15 1
3 1 16 17
3 1 17 2
3 2 17 18
3 2 18 3
3 3 18 19
3 3 19 4
3 4 19 20
3 4 20 5
3 5 20 21
3 5 21 6
3 6 21 22
3 6 22 7
3 7 22 23
3 7 23 8
3 8 23 24
3 8 24 9
3 9 24 25
3 9 25 10
3 10 25 26
3 10 26 11
3 11 26 27
3 11 27 12
3 12 27 28
3 12 28 13
3 13 28 29
3 13 29 14
3 14 29 30
3 14 30 15
3 15 30 16
3 15 16 1
3 16 31 32
3 16 32 17
3 17 32 33
3 17 33 18
3 18 33 34
3 18 34 19
3 19 34 35
3 19 35 20
3 20 35 36
3 20 36 21
3 21 36 37
3 21 37 22
3 22 37 38
3 22 38 23
3 23 38 39
3 23 39 24
3 24 39 40
3 24 40 25
3 25 40 41
3 25 41 26
3 26 41 42
3 26 42 27
3 27 42 43
3 27 43 28
3 28 43 44
3 28 44 29
3 29 44 45
3 29 45 30
3 30 45 31
3 30 31 16
3 31 46 47
3 31 47 32
3 32 47 48
3 32 48 33
3 33 48 49
3 33 49 34
3 34 49 50
3 34 50 35
3 35 50 51
3 35 51 36
3 36 51 52
3 36 52 37
3 37 52 53
3 37 53 38
3 38 53 54
3 38 54 39
3 39 54 55
3 39 55 40
3 40 55 56
3 40 56 41
3 41 56 57
3 41 57 42
3 42 57 58
3 42 58 43
3 43 58 59
3 43 59 44
3 44 59 60
3 44 60 45
3 45 60 46
3 45 46 31
3 46 61 62
3 46 62 47
3 47 62 63
3 47 63 48
3 48 63 64
3 48 64 49
3 49 64 65
3 49 65 50
3 50 65 66
3 50 66 51
3 51 66 67
3 51 67 52
3 52 67 68
3 52 68 53
3 53 68 69
3 53 69 54
3 54 69 70
3 54 70 55
3 55 70 71
3 55 71 56
3 56 71 72
3 56 72 57
3 57 72 73
3 57 73 58
3 58 73 74
3 58 74 59
3 59 74 75
3 59 75 60
3 60 75 61
3 60 61 46
3 61 76 77
3 61 77 62
3 62 77 78
3 62 78 63
3 63 78 79
3 63 79 64
3 64 79 80
3 64 80 65
3 65 80 81
3 65 81 66
3 66 81 82
3 66 82 67
3 67 82 83
3 67 83 68
3 68 83 84
3 68 84 69
3 69 84 85
3 69 85 70
3 70 85 86
3 70 86 71
3 71 86 87
3 71 87 72
3 72 87 88
3 72 88 73
3 73 88 89
3 73 89 74
3 74 89 90
3 74 90 75
3 75 90 76
3 75 76 61
3 76 91 92
3 76 92 77
3 77 92 93
3 77 93 78
3 78 93 94
3 78 94 79
3 79 94 95
3 79 95 80
3 80 95 96
3 80 96 81
3 81 96 97
3 81 97 82
3 82 97 98
3 82 98 83
3 83 98 99
3 83 99 84
3 84 99 100
3 84 100 85
3 85 100 101
3 85 101 86
3 86 101 102
3 86 102 87
3 87 102 103
3 87 103 88
3 88 103 104
3 88 104 89
3 89 104 105
3 89 105 90
3 90 105 91
3 90 91 76
3 91 106 107
3 91 107 92
3 92 107 108
3 92 108 93
3 93 108 109
3 93 109 94
3 94 109 110
3 94 110 95
3 95 110 111
3 95 111 96
3 96 111 112
3 96 112 97
3 97 112 113
3 97 113 98
3 98 113 114
3 98 114 99
3 99 114 115
3 99 115 100
3 100 115 116
3 100 116 101
3 101 116 117
3 101 117 102
3 102 117 118
3 102 118 103
3 103 118 119
3 103 119 104
3 104 119 120
3 104 120 105
3 105 120 106
3 105 106 91
CELL_TYPES 225
5
5
5
5
5
5
5
5
5
5
5
5
5
5
5
5
5
5
5
5
5
5
5
5
5
5
5
5
5
5
5
5
5
5
5
5
5
5
5
5
5
5
5
5
5
5
5
5
5
5
5
5
5
5
5
5
5
5
5
5
5
5
5
5
5
5
5
5
5
5
5
5
5
5
5
5
5
5
5
5
5
5
5
5
5
5
5
5
5
5
5
5
5
5
5
5
5
5
5
5
5
5
5
5
5
5
5
5
5
5
5
5
5
5
5
5
5
5
5
5
5
5
5
5
5
5
5
5
5
5
5
5
5
5
5
5
5
5
5
5
5
5
5
5
5
5
5
5
5
5
5
5
5
5
5
5
5
5
5
5
5
5
5
5
5
5
5
5
5
5
5
5
5
5
5
5
5
5
5
5
5
5
5
5
5
5
5
5
5
5
5
5
5
5
5
5
5
5
5
5
5
5
5
5
5
5
5
5
5
5
5
5
5
5
5
5
5
5
5
5
5
5
5
5
5
CELL_DATA 225
VECTORS Ht double
-0.211076 0.302726 0
-0.236445 0.375245 0
-0.127115 0.284355 0
0.126888 0.203075 0
0.340964 0.221534 0
0.362274 0.226253 0
0.256232 0.0721805 0
0.1997 -0.192898 0
0.231332 -0.365844 0
0.204977 -0.340681 0
0.00937101 -0.232046 0
-0.252568 -0.202958 0
-0.377021 -0.237301 0
-0.313589 -0.171836 0
-0.213922 0.0581939 0
-0.556851 0.441137 0
-0.326113 0.247026 0
-0.428148 0.58056 0
-0.0469877 0.470572 0
-0.139014 0.595365 0
0.0882015 0.626784 0
0.223905 0.581908 0
0.147805 0.534337 0
0.492455 0.538225 0
0.296624 0.248767 0
0.59171 0.370301 0
0.525421 -0.00179093 0
0.592303 0.0486868 0
0.629725 -0.103084 0
0.576882 -0.305581 0
0.473082 -0.172521 0
0.511461 -0.532328 0
0.174304 -0.352409 0
0.30195 -0.596639 0
-0.0398401 -0.572095 0
-0.0439161 -0.588964 0
-0.115828 -0.614833 0
-0.378538 -0.569113 0
-0.205432 -0.402306 0
-0.561308 -0.475092 0
-0.411577 -0.106185 0
-0.597273 -0.224241 0
-0.60689 0.0680147 0
-0.585619 0.135775 0
-0.582495 0.129722 0
-0.762315 0.410361 0
-0.518516 0.360561 0
-0.45585 0.595687 0
-0.132278 0.666212 0
-0.0665034 0.772061 0
0.0905546 0.886554 0
0.246152 0.847864 0
0.211742 0.785677 0
0.457679 0.703364 0
0.429454 0.41528 0
0.642065 0.358772 0
0.741178 0.0583893 0
0.806132 -0.0226545 0
0.895606 -0.1222 0
0.834872 -0.306115 0
0.708897 -0.251774 0
0.631065 -0.503722 0
0.313627 -0.50574 0
0.259576 -0.68793 0
-0.00273684 -0.805929 0
-0.104802 -0.831662 0
-0.150358 -0.881452 0
-0.360358 -0.806392 0
-0.301121 -0.618168 0
-0.549544 -0.547641 0
-0.586095 -0.21811 0
-0.7319 -0.161273 0
-0.855715 0.0517345 0
-0.846268 0.17928 0
-0.844239 0.178964 0
-0.799313 0.205836 0
-0.60919 0.287038 0
-0.304282 0.403804 0
-0.116133 0.605707 0
0.0960083 0.784323 0
0.14926 0.937952 0
0.194143 0.967071 0
0.19977 0.908956 0
0.229579 0.691818 0
0.346628 0.481461 0
0.492872 0.179382 0
0.70352 0.0206239 0
0.865427 -0.145941 0
0.974726 -0.171601 0
0.940989 -0.193658 0
0.82965 -0.215847 0
0.56829 -0.270044 0
0.352045 -0.421831 0
0.0682002 -0.590523 0
-0.0555419 -0.79621 0
-0.17613 -0.926455 0
-0.183556 -0.983009 0
-0.195521 -0.884067 0
-0.243872 -0.727659 0
-0.328458 -0.436443 0
-0.509764 -0.228183 0
-0.690156 0.0244919 0
-0.876588 0.111689 0
-0.96165 0.190406 0
-0.960952 0.190915 0
-0.680647 -0.115102 0
-0.571399 0.0481034 0
-0.0256202 0.0521515 0
0.0138307 0.311765 0
0.310196 0.632651 0
0.265297 0.781125 0
0.0907686 0.926444 0
0.121593 0.880491 0
-0.130722 0.528196 0
0.0723562 0.422812 0
0.180422 -0.112767 0
0.431286 -0.123226 0
0.761956 -0.295945 0
0.860143 -0.252581 0
0.888098 -0.00568731 0
0.808902 -0.0786569 0
0.359074 0.108239 0
0.268495 -0.126063 0
-0.218407 -0.3284 0
-0.202844 -0.556472 0
-0.248091 -0.859643 0
-0.218432 -0.905912 0
0.0667074 -0.803957 0
-0.0517509 -0.703336 0
0.0463301 -0.186997 0
-0.207493 -0.119542 0
-0.483665 0.284982 0
-0.676657 0.249992 0
-0.916399 0.175835 0
-0.913328 0.1715 0
-0.459449 -0.447393 0
-0.399887 -0.272038 0
0.272293 -0.356834 0
0.233687 -0.109412 0
0.502081 0.352764 0
0.410665 0.47264 0
-0.0255706 0.740984 0
0.00712023 0.700913 0
-0.508397 0.282817 0
-0.296364 0.239344 0
-0.207721 -0.407782 0
0.023512 -0.342998 0
0.51837 -0.423035 0
0.591619 -0.346449 0
0.699957 0.192199 0
0.641241 0.110512 0
0.0898905 0.513818 0
0.0704709 0.276309 0
-0.495315 0.0283275 0
-0.411193 -0.174318 0
-0.299281 -0.64559 0
-0.249641 -0.674192 0
0.338 -0.603043 0
0.207373 -0.537909 0
0.461966 0.101116 0
0.212341 0.0918917 0
-0.164572 0.527409 0
-0.328923 0.433748 0
-0.722251 0.144243 0
-0.712021 0.131957 0
-0.212795 -0.669771 0
-0.120462 -0.550802 0
0.461316 -0.691657 0
0.483948 -0.497668 0
0.585122 0.0118118 0
0.533827 0.113071 0
-0.113764 0.452918 0
-0.102574 0.40217 0
-0.768361 0.0490629 0
-0.617484 -0.036525 0
-0.553368 -0.57677 0
-0.367526 -0.57364 0
0.188015 -0.468173 0
0.248955 -0.418042 0
0.426347 0.327137 0
0.351536 0.281393 0
-0.130557 0.805561 0
-0.200642 0.630085 0
-0.640269 0.378049 0
-0.614372 0.211573 0
-0.30254 -0.328326 0
-0.263772 -0.348257 0
0.518209 -0.343229 0
0.43541 -0.254345 0
0.778814 0.306977 0
0.588453 0.3551 0
0.183237 0.643783 0
0.0457718 0.601056 0
-0.419405 0.102625 0
-0.401069 0.084829 0
-0.0164739 -0.686767 0
0.205261 -0.668848 0
0.442982 -0.830533 0
0.680839 -0.692544 0
0.494304 -0.302475 0
0.574936 -0.181076 0
-0.144657 0.1258 0
-0.168772 0.0490127 0
-0.800865 -0.0898858 0
-0.752286 -0.338042 0
-0.739899 -0.522493 0
-0.58636 -0.730136 0
-0.151084 -0.386218 0
-0.0672706 -0.426552 0
0.132318 0.345055 0
-0.000307013 0.366203 0
-0.211975 0.864582 0
-0.471684 0.78295 0
-0.561873 0.612405 0
-0.730491 0.455649 0
-0.235921 0.0218747 0
-0.243626 -0.0139281 0
0.530737 -0.0938994 0
0.53714 0.0883337 0
0.874089 0.334779 0
0.761272 0.590739 0
0.461488 0.553489 0
0.31538 0.678311 0
-0.0731675 0.0542863 0
-0.0540324 0.0399285 0
