# vtk DataFile Version 3.0
tp3485 cell-vector
ASCII
DATASET UNSTRUCTURED_GRID
POINTS 121 double
0 0 0
0.125 0 0
0.114193 0.0508421 0
0.0836413 0.0928931 0
0.0386271 0.118882 0
-0.0130661 0.124315 0
-0.0625 0.108253 0
-0.101127 0.0734732 0
-0.122268 0.025989 0
-0.122268 -0.025989 0
-0.101127 -0.0734732 0
-0.0625 -0.108253 0
-0.0130661 -0.124315 0
0.0386271 -0.118882 0
0.0836413 -0.0928931 0
0.114193 -0.0508421 0
0.25 0 0
0.228386 0.101684 0
0.167283 0.185786 0
0.0772542 0.237764 0
-0.0261321 0.24863 0
-0.125 0.216506 0
-0.202254 0.146946 0
-0.244537 0.0519779 0
-0.244537 -0.0519779 0
-0.202254 -0.146946 0
-0.125 -0.216506 0
-0.0261321 -0.24863 0
0.0772542 -0.237764 0
0.167283 -0.185786 0
0.228386 -0.101684 0
0.375 0 0
0.34258 0.152526 0
0.250924 0.278679 0
0.115881 0.356646 0
-0.0391982 0.372946 0
-0.1875 0.32476 0
-0.303381 0.220419 0
-0.366805 0.0779669 0
-0.366805 -0.0779669 0
-0.303381 -0.220419 0
-0.1875 -0.32476 0
-0.0391982 -0.372946 0
0.115881 -0.356646 0
0.250924 -0.278679 0
0.34258 -0.152526 0
0.5 0 0
0.456773 0.203368 0
0.334565 0.371572 0
0.154508 0.475528 0
-0.0522642 0.497261 0
-0.25 0.433013 0
-0.404508 0.293893 0
-0.489074 0.103956 0
-0.489074 -0.103956 0
-0.404508 -0.293893 0
-0.25 -0.433013 0
-0.0522642 -0.497261 0
0.154508 -0.475528 0
0.334565 -0.371572 0
0.456773 -0.203368 0
0.625 0 0
0.570966 0.25421 0
0.418207 0.464466 0
0.193136 0.59441 0
-0.0653303 0.621576 0
-0.3125 0.541266 0
-0.505636 0.367366 0
-0.611342 0.129945 0
-0.611342 -0.129945 0
-0.505636 -0.367366 0
-0.3125 -0.541266 0
-0.0653303 -0.621576 0
0.193136 -0.59441 0
0.418207 -0.464466 0
0.570966 -0.25421 0
0.75 0 0
0.685159 0.305052 0
0.501848 0.557359 0
0.231763 0.713292 0
-0.0783963 0.745891 0
-0.375 0.649519 0
-0.606763 0.440839 0
-0.733611 0.155934 0
-0.733611 -0.155934 0
-0.606763 -0.440839 0
-0.375 -0.649519 0
-0.0783963 -0.745891 0
0.231763 -0.713292 0
0.501848 -0.557359 0
0.685159 -0.305052 0
0.875 0 0
0.799352 0.355895 0
0.585489 0.650252 0
0.27039 0.832174 0
-0.0914624 0.870207 0
-0.4375 0.757772 0
-0.70789 0.514312 0
-0.855879 0.181923 0
-0.855879 -0.181923 0
-0.70789 -0.514312 0
-0.4375 -0.757772 0
-0.0914624 -0.870207 0
0.27039 -0.832174 0
0.585489 -0.650252 0
0.799352 -0.355895 0
1 0 0
0.913545 0.406737 0
0.669131 0.743145 0
0.309017 0.951057 0
-0.104528 0.994522 0
-0.5 0.866025 0
-0.809017 0.587785 0
-0.978148 0.207912 0
-0.978148 -0.207912 0
-0.809017 -0.587785 0
-0.5 -0.866025 0
-0.104528 -0.994522 0
0.309017 -0.951057 0
0.669131 -0.743145 0
0.913545 -0.406737 0
CELLS 225 900
3 0 1 2
3 0 2 3
3 0 3 4
3 0 4 5
3 0 5 6
3 0 6 7
3 0 7 8
3 0 8 9
3 0 9 10
3 0 10 11
3 0 11 12
3 0 12 13
3 0 13 14
3 0 14 15
3 0 15 1
3 1 16 17
3 1 17 2
3 2 17 18
3 2 18 3
3 3 18 19
3 3 19 4
3 4 19 20
3 4 20 5
3 5 20 21
3 5 21 6
3 6 21 22
3 6 22 7
3 7 22 23
3 7 23 8
3 8 23 24
3 8 24 9
3 9 24 25
3 9 25 10
3 10 25 26
3 10 26 11
3 11 26 27
3 11 27 12
3 12 27 28
3 12 28 13
3 13 28 29
3 13 29 14
3 14 29 30
3 14 30 15
3 15 30 16
3 15 16 1
3 16 31 32
3 16 32 17
3 17 32 33
3 17 33 18
3 18 33 34
3 18 34 19
3 19 34 35
3 19 35 20
3 20 35 36
3 20 36 21
3 21 36 37
3 21 37 22
3 22 37 38
3 22 38 23
3 23 38 39
3 23 39 24
3 24 39 40
3 24 40 25
3 25 40 41
3 25 41 26
3 26 41 42
3 26 42 27
3 27 42 43
3 27 43 28
3 28 43 44
3 28 44 29
3 29 44 45
3 29 45 30
3 30 45 31
3 30 31 16
3 31 46 47
3 31 47 32
3 32 47 48
3 32 48 33
3 33 48 49
3 33 49 34
3 34 49 50
3 34 50 35
3 35 50 51
3 35 51 36
3 36 51 52
3 36 52 37
3 37 52 53
3 37 53 38
3 38 53 54
3 38 54 39
3 39 54 55
3 39 55 40
3 40 55 56
3 40 56 41
3 41 56 57
3 41 57 42
3 42 57 58
3 42 58 43
3 43 58 59
3 43 59 44
3 44 59 60
3 44 60 45
3 45 60 46
3 45 46 31
3 46 61 62
3 46 62 47
3 47 62 63
3 47 63 48
3 48 63 64
3 48 64 49
3 49 64 65
3 49 65 50
3 50 65 66
3 50 66 51
3 51 66 67
3 51 67 52
3 52 67 68
3 52 68 53
3 53 68 69
3 53 69 54
3 54 69 70
3 54 70 55
3 55 70 71
3 55 71 56
3 56 71 72
3 56 72 57
3 57 72 73
3 57 73 58
3 58 73 74
3 58 74 59
3 59 74 75
3 59 75 60
3 60 75 61
3 60 61 46
3 61 76 77
3 61 77 62
3 62 77 78
3 62 78 63
3 63 78 79
3 63 79 64
3 64 79 80
3 64 80 65
3 65 80 81
3 65 81 66
3 66 81 82
3 66 82 67
3 67 82 83
3 67 83 68
3 68 83 84
3 68 84 69
3 69 84 85
3 69 85 70
3 70 85 86
3 70 86 71
3 71 86 87
3 71 87 72
3 72 87 88
3 72 88 73
3 73 88 89
3 73 89 74
3 74 89 90
3 74 90 75
3 75 90 76
3 75 76 61
3 76 91 92
3 76 92 77
3 77 92 93
3 77 93 78
3 78 93 94
3 78 94 79
3 79 94 95
3 79 95 80
3 80 95 96
3 80 96 81
3 81 96 97
3 81 97 82
3 82 97 98
3 82 98 83
3 83 98 99
3 83 99 84
3 84 99 100
3 84 100 85
3 85 100 101
3 85 101 86
3 86 101 102
3 86 102 87
3 87 102 103
3 87 103 88
3 88 103 104
3 88 104 89
3 89 104 105
3 89 105 90
3 90 105 91
3 90 91 76
3 91 106 107
3 91 107 92
3 92 107 108
3 92 108 93
3 93 108 109
3 93 109 94
3 94 109 110
3 94 110 95
3 95 110 111
3 95 111 96
3 96 111 112
3 96 112 97
3 97 112 113
3 97 113 98
3 98 113 114
3 98 114 99
3 99 114 115
3 99 115 100
3 100 115 116
3 100 116 101
3 101 116 117
3 101 117 102
3 102 117 118
3 102 118 103
3 103 118 119
3 103 119 104
3 104 119 120
3 104 120 105
3 105 120 106
3 105 106 91
CELL_TYPES 225
5
5
5
5
5
5
5
5
5
5
5
5
5
5
5
5
5
5
5
5
5
5
5
5
5
5
5
5
5
5
5
5
5
5
5
5
5
5
5
5
5
5
5
5
5
5
5
5
5
5
5
5
5
5
5
5
5
5
5
5
5
5
5
5
5
5
5
5
5
5
5
5
5
5
5
5
5
5
5
5
5
5
5
5
5
5
5
5
5
5
5
5
5
5
5
5
5
5
5
5
5
5
5
5
5
5
5
5
5
5
5
5
5
5
5
5
5
5
5
5
5
5
5
5
5
5
5
5
5
5
5
5
5
5
5
5
5
5
5
5
5
5
5
5
5
5
5
5
5
5
5
5
5
5
5
5
5
5
5
5
5
5
5
5
5
5
5
5
5
5
5
5
5
5
5
5
5
5
5
5
5
5
5
5
5
5
5
5
5
5
5
5
5
5
5
5
5
5
5
5
5
5
5
5
5
5
5
5
5
5
5
5
5
5
5
5
5
5
5
5
5
5
5
5
5
CELL_DATA 225
VECTORS Ht double
0.104909 0.318541 0
0.212546 0.0813643 0
0.382087 -0.0759423 0
0.426707 -0.0972625 0
0.262515 -0.119775 0
0.0283346 -0.255564 0
-0.0909178 -0.411962 0
-0.0957946 -0.403188 0
-0.142963 -0.201844 0
-0.300441 0.0163901 0
-0.430568 0.097804 0
-0.366419 0.0975089 0
-0.140257 0.174293 0
0.0513015 0.343795 0
0.0989596 0.435842 0
0.293207 0.551539 0
0.494075 0.38227 0
0.541183 0.285602 0
0.494435 0.298918 0
0.719851 0.0567955 0
0.395252 0.0116186 0
0.699269 -0.132017 0
0.368194 -0.338104 0
0.487293 -0.35373 0
0.378336 -0.514442 0
0.222278 -0.598536 0
0.24493 -0.470387 0
0.00860838 -0.736194 0
-0.0799775 -0.378687 0
-0.182282 -0.660044 0
-0.405107 -0.37377 0
-0.416436 -0.419952 0
-0.519722 -0.364638 0
-0.649068 -0.162974 0
-0.443608 -0.177535 0
-0.738252 0.0379283 0
-0.36892 0.171708 0
-0.610006 0.235927 0
-0.379594 0.457571 0
-0.352017 0.479646 0
-0.338683 0.512056 0
-0.107942 0.690244 0
-0.0987436 0.417586 0
0.0843122 0.725765 0
0.259134 0.365836 0
0.452643 0.613087 0
0.669777 0.567466 0
0.75225 0.449724 0
0.716593 0.440997 0
0.827615 0.212666 0
0.609577 0.0517512 0
0.726909 -0.14947 0
0.565307 -0.432543 0
0.574311 -0.544405 0
0.557137 -0.708735 0
0.400986 -0.793144 0
0.367207 -0.693889 0
0.133094 -0.813921 0
-0.0728588 -0.588242 0
-0.251984 -0.689897 0
-0.530252 -0.567407 0
-0.626459 -0.534891 0
-0.727813 -0.534561 0
-0.818817 -0.34604 0
-0.665681 -0.275974 0
-0.791017 -0.0452922 0
-0.573873 0.198822 0
-0.651677 0.354107 0
-0.56948 0.610062 0
-0.493828 0.696344 0
-0.496544 0.729293 0
-0.28356 0.82987 0
-0.169604 0.636322 0
0.0495356 0.761262 0
0.320509 0.566637 0
0.567408 0.478228 0
0.738241 0.55043 0
0.822356 0.548754 0
0.802466 0.526641 0
0.682407 0.376848 0
0.609473 0.163719 0
0.486699 -0.146151 0
0.510419 -0.416834 0
0.498006 -0.673045 0
0.564761 -0.794251 0
0.540919 -0.81566 0
0.471476 -0.76401 0
0.271886 -0.622497 0
0.024133 -0.565657 0
-0.296864 -0.469247 0
-0.545847 -0.517568 0
-0.752047 -0.520792 0
-0.822123 -0.56931 0
-0.786025 -0.511454 0
-0.714595 -0.391551 0
-0.566376 -0.145776 0
-0.53348 0.124235 0
-0.467212 0.43985 0
-0.532658 0.654548 0
-0.539968 0.801873 0
-0.558199 0.823612 0
-0.457122 0.739314 0
-0.2879 0.660943 0
-0.00406683 0.519754 0
0.273831 0.515053 0
0.610711 0.18201 0
0.703052 0.332807 0
0.751642 0.561722 0
0.742177 0.535022 0
0.339787 0.520239 0
0.393025 0.312919 0
0.0467287 -0.113467 0
0.211155 -0.313051 0
0.278142 -0.713903 0
0.398109 -0.769246 0
0.613048 -0.680195 0
0.531497 -0.6712 0
0.403086 -0.226892 0
0.177087 -0.312406 0
-0.299392 -0.0584259 0
-0.467891 -0.231403 0
-0.772555 -0.382125 0
-0.796726 -0.460147 0
-0.579584 -0.626103 0
-0.582465 -0.493683 0
-0.134812 -0.251117 0
-0.252221 -0.020625 0
-0.105596 0.469272 0
-0.274262 0.60069 0
-0.480941 0.784452 0
-0.508829 0.786333 0
-0.595578 0.461724 0
-0.420175 0.486251 0
-0.0746838 0.0728097 0
0.146466 0.217738 0
0.553846 -0.185095 0
0.588222 -0.0174798 0
0.565852 0.480782 0
0.553831 0.455365 0
-0.0780581 0.608055 0
0.0226408 0.432736 0
-0.447746 -0.0413188 0
-0.240049 -0.174905 0
-0.0208021 -0.643092 0
0.108164 -0.650878 0
0.59351 -0.437155 0
0.517168 -0.441437 0
0.499565 0.234381 0
0.316481 0.096961 0
-0.238835 0.409918 0
-0.339965 0.201856 0
-0.675212 -0.156932 0
-0.665214 -0.238339 0
-0.275627 -0.656191 0
-0.306043 -0.535898 0
0.355388 -0.345475 0
0.185537 -0.167924 0
0.319319 0.414988 0
0.124769 0.481714 0
-0.330038 0.648224 0
-0.35861 0.631322 0
-0.661603 0.0978663 0
-0.507567 0.161581 0
-0.159559 -0.428956 0
0.000635951 -0.234674 0
0.380641 -0.500333 0
0.431566 -0.381213 0
0.310791 0.317461 0
0.282741 0.295316 0
-0.419357 0.609202 0
-0.387149 0.449309 0
-0.816332 0.0731377 0
-0.687609 -0.0691463 0
-0.304496 -0.450923 0
-0.210053 -0.471754 0
0.473765 -0.159311 0
0.408697 -0.133824 0
0.53457 0.591123 0
0.362472 0.530619 0
-0.103617 0.768186 0
-0.218604 0.63184 0
-0.463224 0.0899531 0
-0.459394 0.0290506 0
0.0249235 -0.579183 0
0.0383722 -0.47487 0
0.722537 -0.410469 0
0.634377 -0.237714 0
0.659679 0.260494 0
0.526385 0.343918 0
-0.123803 0.415255 0
-0.1448 0.394611 0
-0.625215 -0.224255 0
-0.488461 -0.217688 0
-0.250863 -0.800339 0
-0.088539 -0.688454 0
0.104962 -0.645906 0
0.273453 -0.622564 0
0.0432909 0.10558 0
-0.0053761 0.0864136 0
-0.554778 0.506837 0
-0.699241 0.316081 0
-0.904638 0.214844 0
-0.959099 -0.0480086 0
-0.475048 -0.156612 0
-0.44365 -0.272613 0
0.269452 0.0784729 0
0.212085 0.1701 0
0.488192 0.700429 0
0.260966 0.83551 0
0.0936055 0.869301 0
-0.15124 0.892083 0
-0.164883 0.28225 0
-0.224195 0.255303 0
0.228168 -0.395919 0
0.351087 -0.294436 0
0.814537 -0.426169 0
0.929237 -0.173085 0
0.780896 0.0177095 0
0.776531 0.230302 0
0.0833166 0.126552 0
0.0735921 0.129499 0
-0.476385 -0.3921 0
-0.328971 -0.532799 0
-0.330686 -0.885269 0
-0.0651807 -0.971787 0
