# vtk DataFile Version 3.0
tp3485 cell-vector
ASCII
DATASET UNSTRUCTURED_GRID
POINTS 121 double
0 0 0
0.125 0 0
0.114193 0.0508421 0
0.0836413 0.0928931 0
0.0386271 0.118882 0
-0.0130661 0.124315 0
-0.0625 0.108253 0
-0.101127 0.0734732 0
-0.122268 0.025989 0
-0.122268 -0.025989 0
-0.101127 -0.0734732 0
-0.0625 -0.108253 0
-0.0130661 -0.124315 0
0.0386271 -0.118882 0
0.0836413 -0.0928931 0
0.114193 -0.0508421 0
0.25 0 0
0.228386 0.101684 0
0.167283 0.185786 0
0.0772542 0.237764 0
-0.0261321 0.24863 0
-0.125 0.216506 0
-0.202254 0.146946 0
-0.244537 0.0519779 0
-0.244537 -0.0519779 0
-0.202254 -0.146946 0
-0.125 -0.216506 0
-0.0261321 -0.24863 0
0.0772542 -0.237764 0
0.167283 -0.185786 0
0.228386 -0.101684 0
0.375 0 0
0.34258 0.152526 0
0.250924 0.278679 0
0.115881 0.356646 0
-0.0391982 0.372946 0
-0.1875 0.32476 0
-0.303381 0.220419 0
-0.366805 0.0779669 0
-0.366805 -0.0779669 0
-0.303381 -0.220419 0
-0.1875 -0.32476 0
-0.0391982 -0.372946 0
0.115881 -0.356646 0
0.250924 -0.278679 0
0.34258 -0.152526 0
0.5 0 0
0.456773 0.203368 0
0.334565 0.371572 0
0.154508 0.475528 0
-0.0522642 0.497261 0
-0.25 0.433013 0
-0.404508 0.293893 0
-0.489074 0.103956 0
-0.489074 -0.103956 0
-0.404508 -0.293893 0
-0.25 -0.433013 0
-0.0522642 -0.497261 0
0.154508 -0.475528 0
0.334565 -0.371572 0
0.456773 -0.203368 0
0.625 0 0
0.570966 0.25421 0
0.418207 0.464466 0
0.193136 0.59441 0
-0.0653303 0.621576 0
-0.3125 0.541266 0
-0.505636 0.367366 0
-0.611342 0.129945 0
-0.611342 -0.129945 0
-0.505636 -0.367366 0
-0.3125 -0.541266 0
-0.0653303 -0.621576 0
0.193136 -0.59441 0
0.418207 -0.464466 0
0.570966 -0.25421 0
0.75 0 0
0.685159 0.305052 0
0.501848 0.557359 0
0.231763 0.713292 0
-0.0783963 0.745891 0
-0.375 0.649519 0
-0.606763 0.440839 0
-0.733611 0.155934 0
-0.733611 -0.155934 0
-0.606763 -0.440839 0
-0.375 -0.649519 0
-0.0783963 -0.745891 0
0.231763 -0.713292 0
0.501848 -0.557359 0
0.685159 -0.305052 0
0.875 0 0
0.799352 0.355895 0
0.585489 0.650252 0
0.27039 0.832174 0
-0.0914624 0.870207 0
-0.4375 0.757772 0
-0.70789 0.514312 0
-0.855879 0.181923 0
-0.855879 -0.181923 0
-0.70789 -0.514312 0
-0.4375 -0.757772 0
-0.0914624 -0.870207 0
0.27039 -0.832174 0
0.585489 -0.650252 0
0.799352 -0.355895 0
1 0 0
0.913545 0.406737 0
0.669131 0.743145 0
0.309017 0.951057 0
-0.104528 0.994522 0
-0.5 0.866025 0
-0.809017 0.587785 0
-0.978148 0.207912 0
-0.978148 -0.207912 0
-0.809017 -0.587785 0
-0.5 -0.866025 0
-0.104528 -0.994522 0
0.309017 -0.951057 0
0.669131 -0.743145 0
0.913545 -0.406737 0
CELLS 225 900
3 0 1 2
3 0 2 3
3 0 3 4
3 0 4 5
3 0 5 6
3 0 6 7
3 0 7 8
3 0 8 9
3 0 9 10
3 0 10 11
3 0 11 12
3 0 12 13
3 0 13 14
3 0 14 15
3 0 15 1
3 1 16 17
3 1 17 2
3 2 17 18
3 2 18 3
3 3 18 19
3 3 19 4
3 4 19 20
3 4 20 5
3 5 20 21
3 5 21 6
3 6 21 22
3 6 22 7
3 7 22 23
3 7 23 8
3 8 23 24
3 8 24 9
3 9 24 25
3 9 25 10
3 10 25 26
3 10 26 11
3 11 26 27
3 11 27 12
3 12 27 28
3 12 28 13
3 13 28 29
3 13 29 14
3 14 29 30
3 14 30 15
3 15 30 16
3 15 16 1
3 16 31 32
3 16 32 17
3 17 32 33
3 17 33 18
3 18 33 34
3 18 34 19
3 19 34 35
3 19 35 20
3 20 35 36
3 20 36 21
3 21 36 37
3 21 37 22
3 22 37 38
3 22 38 23
3 23 38 39
3 23 39 24
3 24 39 40
3 24 40 25
3 25 40 41
3 25 41 26
3 26 41 42
3 26 42 27
3 27 42 43
3 27 43 28
3 28 43 44
3 28 44 29
3 29 44 45
3 29 45 30
3 30 45 31
3 30 31 16
3 31 46 47
3 31 47 32
3 32 47 48
3 32 48 33
3 33 48 49
3 33 49 34
3 34 49 50
3 34 50 35
3 35 50 51
3 35 51 36
3 36 51 52
3 36 52 37
3 37 52 53
3 37 53 38
3 38 53 54
3 38 54 39
3 39 54 55
3 39 55 40
3 40 55 56
3 40 56 41
3 41 56 57
3 41 57 42
3 42 57 58
3 42 58 43
3 43 58 59
3 43 59 44
3 44 59 60
3 44 60 45
3 45 60 46
3 45 46 31
3 46 61 62
3 46 62 47
3 47 62 63
3 47 63 48
3 48 63 64
3 48 64 49
3 49 64 65
3 49 65 50
3 50 65 66
3 50 66 51
3 51 66 67
3 51 67 52
3 52 67 68
3 52 68 53
3 53 68 69
3 53 69 54
3 54 69 70
3 54 70 55
3 55 70 71
3 55 71 56
3 56 71 72
3 56 72 57
3 57 72 73
3 57 73 58
3 58 73 74
3 58 74 59
3 59 74 75
3 59 75 60
3 60 75 61
3 60 61 46
3 61 76 77
3 61 77 62
3 62 77 78
3 62 78 63
3 63 78 79
3 63 79 64
3 64 79 80
3 64 80 65
3 65 80 81
3 65 81 66
3 66 81 82
3 66 82 67
3 67 82 83
3 67 83 68
3 68 83 84
3 68 84 69
3 69 84 85
3 69 85 70
3 70 85 86
3 70 86 71
3 71 86 87
3 71 87 72
3 72 87 88
3 72 88 73
3 73 88 89
3 73 89 74
3 74 89 90
3 74 90 75
3 75 90 76
3 75 76 61
3 76 91 92
3 76 92 77
3 77 92 93
3 77 93 78
3 78 93 94
3 78 94 79
3 79 94 95
3 79 95 80
3 80 95 96
3 80 96 81
3 81 96 97
3 81 97 82
3 82 97 98
3 82 98 83
3 83 98 99
3 83 99 84
3 84 99 100
3 84 100 85
3 85 100 101
3 85 101 86
3 86 101 102
3 86 102 87
3 87 102 103
3 87 103 88
3 88 103 104
3 88 104 89
3 89 104 105
3 89 105 90
3 90 105 91
3 90 91 76
3 91 106 107
3 91 107 92
3 92 107 108
3 92 108 93
3 93 108 109
3 93 109 94
3 94 109 110
3 94 110 95
3 95 110 111
3 95 111 96
3 96 111 112
3 96 112 97
3 97 112 113
3 97 113 98
3 98 113 114
3 98 114 99
3 99 114 115
3 99 115 100
3 100 115 116
3 100 116 101
3 101 116 117
3 101 117 102
3 102 117 118
3 102 118 103
3 103 118 119
3 103 119 104
3 104 119 120
3 104 120 105
3 105 120 106
3 105 106 91
CELL_TYPES 225
5
5
5
5
5
5
5
5
5
5
5
5
5
5
5
5
5
5
5
5
5
5
5
5
5
5
5
5
5
5
5
5
5
5
5
5
5
5
5
5
5
5
5
5
5
5
5
5
5
5
5
5
5
5
5
5
5
5
5
5
5
5
5
5
5
5
5
5
5
5
5
5
5
5
5
5
5
5
5
5
5
5
5
5
5
5
5
5
5
5
5
5
5
5
5
5
5
5
5
5
5
5
5
5
5
5
5
5
5
5
5
5
5
5
5
5
5
5
5
5
5
5
5
5
5
5
5
5
5
5
5
5
5
5
5
5
5
5
5
5
5
5
5
5
5
5
5
5
5
5
5
5
5
5
5
5
5
5
5
5
5
5
5
5
5
5
5
5
5
5
5
5
5
5
5
5
5
5
5
5
5
5
5
5
5
5
5
5
5
5
5
5
5
5
5
5
5
5
5
5
5
5
5
5
5
5
5
5
5
5
5
5
5
5
5
5
5
5
5
5
5
5
5
5
5
CELL_DATA 225
VECTORS Et double
-0.183891 0.495183 0
-0.15402 0.459609 0
0.0525653 0.28338 0
0.354631 0.181983 0
0.509921 0.186836 0
0.419657 0.120667 0
0.245018 -0.128013 0
0.178098 -0.415743 0
0.184951 -0.507757 0
0.0743686 -0.374257 0
-0.206457 -0.214763 0
-0.463397 -0.179779 0
-0.490127 -0.174896 0
-0.327541 -0.0159399 0
-0.193776 0.283489 0
-0.447161 0.675154 0
-0.119492 0.438739 0
-0.16206 0.7218 0
0.193174 0.64714 0
0.209929 0.674772 0
0.289919 0.691544 0
0.5342 0.576675 0
0.329683 0.426686 0
0.700181 0.388279 0
0.490728 0.0229189 0
0.71577 0.0729587 0
0.683959 -0.235378 0
0.655396 -0.301341 0
0.652975 -0.29549 0
0.540563 -0.592402 0
0.326565 -0.356609 0
0.320844 -0.715428 0
-0.0631611 -0.545755 0
-0.0202754 -0.705336 0
-0.26368 -0.705666 0
-0.387212 -0.633072 0
-0.301569 -0.594128 0
-0.639397 -0.497708 0
-0.393267 -0.222374 0
-0.722159 -0.245153 0
-0.599485 0.13573 0
-0.691472 0.115396 0
-0.708898 0.280679 0
-0.607145 0.465405 0
-0.517449 0.311963 0
-0.510807 0.478297 0
-0.232371 0.526192 0
-0.00188887 0.656718 0
0.21209 0.798372 0
0.337466 0.861411 0
0.371247 0.912098 0
0.432991 0.798792 0
0.408789 0.625346 0
0.508904 0.385076 0
0.588791 0.100833 0
0.716453 -0.108485 0
0.856137 -0.278462 0
0.880603 -0.378505 0
0.879209 -0.379452 0
0.7226 -0.443255 0
0.501627 -0.43524 0
0.254172 -0.549727 0
-0.0201145 -0.658539 0
-0.202947 -0.774126 0
-0.325235 -0.897603 0
-0.405345 -0.877933 0
-0.384968 -0.818811 0
-0.457172 -0.625154 0
-0.474376 -0.368283 0
-0.599841 -0.124457 0
-0.730392 0.125517 0
-0.82427 0.279394 0
-0.917539 0.354845 0
-0.850919 0.421956 0
-0.732893 0.393185 0
-0.381256 -0.0226048 0
-0.240385 0.223222 0
0.276803 0.287011 0
0.297986 0.544982 0
0.420495 0.800012 0
0.394396 0.85775 0
0.106692 0.809196 0
0.220893 0.67722 0
0.00313498 0.199566 0
0.274961 0.0811401 0
0.425164 -0.375057 0
0.647457 -0.368439 0
0.870149 -0.362971 0
0.868419 -0.356645 0
0.698172 -0.0351113 0
0.548789 -0.197943 0
0.0206874 -0.0666688 0
-0.0674514 -0.35 0
-0.43168 -0.565595 0
-0.406263 -0.739993 0
-0.283279 -0.897211 0
-0.308857 -0.841502 0
0.0105754 -0.551833 0
-0.197629 -0.399842 0
-0.163905 0.141975 0
-0.442664 0.196195 0
-0.694831 0.445746 0
-0.812879 0.413323 0
-0.876922 0.193547 0
-0.776773 0.260531 0
-0.162013 -0.579718 0
-0.103821 -0.309025 0
0.513478 -0.222365 0
0.442593 0.0270453 0
0.426391 0.515948 0
0.366196 0.557909 0
-0.268384 0.630074 0
-0.132037 0.534399 0
-0.572966 -0.0378891 0
-0.282734 -0.0639854 0
-0.0320425 -0.580352 0
0.174655 -0.491584 0
0.631955 -0.275808 0
0.622741 -0.252997 0
0.512888 0.418936 0
0.416866 0.228806 0
-0.228824 0.506268 0
-0.219607 0.213139 0
-0.587182 -0.167082 0
-0.493401 -0.321854 0
-0.097577 -0.692593 0
-0.122683 -0.641472 0
0.526434 -0.35169 0
0.290144 -0.268988 0
0.385625 0.392534 0
0.106519 0.349476 0
-0.355823 0.533911 0
-0.454042 0.449606 0
-0.691958 -0.0901739 0
-0.611388 -0.0104764 0
0.000168493 -0.881446 0
0.160426 -0.761578 0
0.519864 -0.624299 0
0.581123 -0.465569 0
0.32023 0.109405 0
0.290569 0.137505 0
-0.479852 0.339465 0
-0.45444 0.205939 0
-0.904399 -0.157359 0
-0.759921 -0.303532 0
-0.446674 -0.55521 0
-0.30671 -0.584811 0
0.244345 -0.14452 0
0.226271 -0.114083 0
0.263674 0.659769 0
0.109357 0.602935 0
-0.307665 0.865251 0
-0.430678 0.704835 0
-0.533242 0.252935 0
-0.535293 0.142568 0
0.0592757 -0.331351 0
0.0799425 -0.268643 0
0.797605 -0.145803 0
0.708092 0.0174853 0
0.768581 0.433566 0
0.603037 0.527154 0
0.0615847 0.45324 0
-0.0105024 0.434809 0
-0.363495 -0.273643 0
-0.261273 -0.275015 0
0.00668616 -0.719946 0
0.451167 -0.835947 0
0.209204 -0.699153 0
0.61173 -0.635574 0
0.0968299 -0.264115 0
0.170714 -0.219976 0
-0.397413 0.0421647 0
-0.553205 -0.205334 0
-0.769881 -0.0600016 0
-0.842264 -0.531826 0
-0.611312 -0.225296 0
-0.522664 -0.560145 0
-0.154173 0.00409476 0
-0.16573 0.0124763 0
0.0509051 0.526132 0
-0.275945 0.688268 0
-0.117945 0.782771 0
-0.591831 0.806062 0
-0.213342 0.502906 0
-0.46618 0.407841 0
0.126067 0.0625814 0
0.203103 0.145315 0
0.636546 -0.0328354 0
0.784228 0.361751 0
0.758242 0.17078 0
0.733948 0.620964 0
0.383705 0.170441 0
0.303376 0.333816 0
-0.00411928 -0.260525 0
0.159553 -0.387691 0
-0.113946 -0.142426 0
0.591482 -0.432691 0
-0.291963 -0.376282 0
0.441968 -0.359234 0
-0.181724 -0.43897 0
0.0185415 -0.348644 0
-0.0675 -0.166831 0
-0.350256 -0.504219 0
-0.196334 0.188072 0
-0.425253 -0.58758 0
-0.421216 0.284856 0
-0.340407 -0.352148 0
-0.398877 0.139038 0
-0.376596 0.0933785 0
-0.0697954 0.0752841 0
-0.54516 0.397778 0
0.243918 0.257438 0
-0.561625 0.40695 0
0.260726 0.448996 0
-0.247743 0.330785 0
0.102456 0.337318 0
0.195289 0.41462 0
0.10086 -0.0260323 0
0.424661 0.575969 0
0.319597 -0.278776 0
0.383112 0.512746 0
0.455636 -0.224393 0
0.333155 0.134417 0
0.258162 -0.0772913 0
0.45883 -0.282126 0
