# vtk DataFile Version 3.0
tp3485 cell-vector
ASCII
DATASET UNSTRUCTURED_GRID
POINTS 121 double
0 0 0
0.125 0 0
0.114193 0.0508421 0
0.0836413 0.0928931 0
0.0386271 0.118882 0
-0.0130661 0.124315 0
-0.0625 0.108253 0
-0.101127 0.0734732 0
-0.122268 0.025989 0
-0.122268 -0.025989 0
-0.101127 -0.0734732 0
-0.0625 -0.108253 0
-0.0130661 -0.124315 0
0.0386271 -0.118882 0
0.0836413 -0.0928931 0
0.114193 -0.0508421 0
0.25 0 0
0.228386 0.101684 0
0.167283 0.185786 0
0.0772542 0.237764 0
-0.0261321 0.24863 0
-0.125 0.216506 0
-0.202254 0.146946 0
-0.244537 0.0519779 0
-0.244537 -0.0519779 0
-0.202254 -0.146946 0
-0.125 -0.216506 0
-0.0261321 -0.24863 0
0.0772542 -0.237764 0
0.167283 -0.185786 0
0.228386 -0.101684 0
0.375 0 0
0.34258 0.152526 0
0.250924 0.278679 0
0.115881 0.356646 0
-0.0391982 0.372946 0
-0.1875 0.32476 0
-0.303381 0.220419 0
-0.366805 0.0779669 0
-0.366805 -0.0779669 0
-0.303381 -0.220419 0
-0.1875 -0.32476 0
-0.0391982 -0.372946 0
0.115881 -0.356646 0
0.250924 -0.278679 0
0.34258 -0.152526 0
0.5 0 0
0.456773 0.203368 0
0.334565 0.371572 0
0.154508 0.475528 0
-0.0522642 0.497261 0
-0.25 0.433013 0
-0.404508 0.293893 0
-0.489074 0.103956 0
-0.489074 -0.103956 0
-0.404508 -0.293893 0
-0.25 -0.433013 0
-0.0522642 -0.497261 0
0.154508 -0.475528 0
0.334565 -0.371572 0
0.456773 -0.203368 0
0.625 0 0
0.570966 0.25421 0
0.418207 0.464466 0
0.193136 0.59441 0
-0.0653303 0.621576 0
-0.3125 0.541266 0
-0.505636 0.367366 0
-0.611342 0.129945 0
-0.611342 -0.129945 0
-0.505636 -0.367366 0
-0.3125 -0.541266 0
-0.0653303 -0.621576 0
0.193136 -0.59441 0
0.418207 -0.464466 0
0.570966 -0.25421 0
0.75 0 0
0.685159 0.305052 0
0.501848 0.557359 0
0.231763 0.713292 0
-0.0783963 0.745891 0
-0.375 0.649519 0
-0.606763 0.440839 0
-0.733611 0.155934 0
-0.733611 -0.155934 0
-0.606763 -0.440839 0
-0.375 -0.649519 0
-0.0783963 -0.745891 0
0.231763 -0.713292 0
0.501848 -0.557359 0
0.685159 -0.305052 0
0.875 0 0
0.799352 0.355895 0
0.585489 0.650252 0
0.27039 0.832174 0
-0.0914624 0.870207 0
-0.4375 0.757772 0
-0.70789 0.514312 0
-0.855879 0.181923 0
-0.855879 -0.181923 0
-0.70789 -0.514312 0
-0.4375 -0.757772 0
-0.0914624 -0.870207 0
0.27039 -0.832174 0
0.585489 -0.650252 0
0.799352 -0.355895 0
1 0 0
0.913545 0.406737 0
0.669131 0.743145 0
0.309017 0.951057 0
-0.104528 0.994522 0
-0.5 0.866025 0
-0.809017 0.587785 0
-0.978148 0.207912 0
-0.978148 -0.207912 0
-0.809017 -0.587785 0
-0.5 -0.866025 0
-0.104528 -0.994522 0
0.309017 -0.951057 0
0.669131 -0.743145 0
0.913545 -0.406737 0
CELLS 225 900
3 0 1 2
3 0 2 3
3 0 3 4
3 0 4 5
3 0 5 6
3 0 6 7
3 0 7 8
3 0 8 9
3 0 9 10
3 0 10 11
3 0 11 12
3 0 12 13
3 0 13 14
3 0 14 15
3 0 15 1
3 1 16 17
3 1 17 2
3 2 17 18
3 2 18 3
3 3 18 19
3 3 19 4
3 4 19 20
3 4 20 5
3 5 20 21
3 5 21 6
3 6 21 22
3 6 22 7
3 7 22 23
3 7 23 8
3 8 23 24
3 8 24 9
3 9 24 25
3 9 25 10
3 10 25 26
3 10 26 11
3 11 26 27
3 11 27 12
3 12 27 28
3 12 28 13
3 13 28 29
3 13 29 14
3 14 29 30
3 14 30 15
3 15 30 16
3 15 16 1
3 16 31 32
3 16 32 17
3 17 32 33
3 17 33 18
3 18 33 34
3 18 34 19
3 19 34 35
3 19 35 20
3 20 35 36
3 20 36 21
3 21 36 37
3 21 37 22
3 22 37 38
3 22 38 23
3 23 38 39
3 23 39 24
3 24 39 40
3 24 40 25
3 25 40 41
3 25 41 26
3 26 41 42
3 26 42 27
3 27 42 43
3 27 43 28
3 28 43 44
3 28 44 29
3 29 44 45
3 29 45 30
3 30 45 31
3 30 31 16
3 31 46 47
3 31 47 32
3 32 47 48
3 32 48 33
3 33 48 49
3 33 49 34
3 34 49 50
3 34 50 35
3 35 50 51
3 35 51 36
3 36 51 52
3 36 52 37
3 37 52 53
3 37 53 38
3 38 53 54
3 38 54 39
3 39 54 55
3 39 55 40
3 40 55 56
3 40 56 41
3 41 56 57
3 41 57 42
3 42 57 58
3 42 58 43
3 43 58 59
3 43 59 44
3 44 59 60
3 44 60 45
3 45 60 46
3 45 46 31
3 46 61 62
3 46 62 47
3 47 62 63
3 47 63 48
3 48 63 64
3 48 64 49
3 49 64 65
3 49 65 50
3 50 65 66
3 50 66 51
3 51 66 67
3 51 67 52
3 52 67 68
3 52 68 53
3 53 68 69
3 53 69 54
3 54 69 70
3 54 70 55
3 55 70 71
3 55 71 56
3 56 71 72
3 56 72 57
3 57 72 73
3 57 73 58
3 58 73 74
3 58 74 59
3 59 74 75
3 59 75 60
3 60 75 61
3 60 61 46
3 61 76 77
3 61 77 62
3 62 77 78
3 62 78 63
3 63 78 79
3 63 79 64
3 64 79 80
3 64 80 65
3 65 80 81
3 65 81 66
3 66 81 82
3 66 82 67
3 67 82 83
3 67 83 68
3 68 83 84
3 68 84 69
3 69 84 85
3 69 85 70
3 70 85 86
3 70 86 71
3 71 86 87
3 71 87 72
3 72 87 88
3 72 88 73
3 73 88 89
3 73 89 74
3 74 89 90
3 74 90 75
3 75 90 76
3 75 76 61
3 76 91 92
3 76 92 77
3 77 92 93
3 77 93 78
3 78 93 94
3 78 94 79
3 79 94 95
3 79 95 80
3 80 95 96
3 80 96 81
3 81 96 97
3 81 97 82
3 82 97 98
3 82 98 83
3 83 98 99
3 83 99 84
3 84 99 100
3 84 100 85
3 85 100 101
3 85 101 86
3 86 101 102
3 86 102 87
3 87 102 103
3 87 103 88
3 88 103 104
3 88 104 89
3 89 104 105
3 89 105 90
3 90 105 91
3 90 91 76
3 91 106 107
3 91 107 92
3 92 107 108
3 92 108 93
3 93 108 109
3 93 109 94
3 94 109 110
3 94 110 95
3 95 110 111
3 95 111 96
3 96 111 112
3 96 112 97
3 97 112 113
3 97 113 98
3 98 113 114
3 98 114 99
3 99 114 115
3 99 115 100
3 100 115 116
3 100 116 101
3 101 116 117
3 101 117 102
3 102 117 118
3 102 118 103
3 103 118 119
3 103 119 104
3 104 119 120
3 104 120 105
3 105 120 106
3 105 106 91
CELL_TYPES 225
5
5
5
5
5
5
5
5
5
5
5
5
5
5
5
5
5
5
5
5
5
5
5
5
5
5
5
5
5
5
5
5
5
5
5
5
5
5
5
5
5
5
5
5
5
5
5
5
5
5
5
5
5
5
5
5
5
5
5
5
5
5
5
5
5
5
5
5
5
5
5
5
5
5
5
5
5
5
5
5
5
5
5
5
5
5
5
5
5
5
5
5
5
5
5
5
5
5
5
5
5
5
5
5
5
5
5
5
5
5
5
5
5
5
5
5
5
5
5
5
5
5
5
5
5
5
5
5
5
5
5
5
5
5
5
5
5
5
5
5
5
5
5
5
5
5
5
5
5
5
5
5
5
5
5
5
5
5
5
5
5
5
5
5
5
5
5
5
5
5
5
5
5
5
5
5
5
5
5
5
5
5
5
5
5
5
5
5
5
5
5
5
5
5
5
5
5
5
5
5
5
5
5
5
5
5
5
5
5
5
5
5
5
5
5
5
5
5
5
5
5
5
5
5
5
CELL_DATA 225
VECTORS Et double
0.146813 -0.0619665 0
0.198041 -0.179546 0
0.19556 -0.179348 0
0.0707639 -0.13985 0
-0.101501 -0.15778 0
-0.189487 -0.207154 0
-0.168238 -0.175396 0
-0.137364 -0.0265778 0
-0.171241 0.135125 0
-0.21074 0.191855 0
-0.147073 0.156685 0
0.0184954 0.139736 0
0.161401 0.185358 0
0.187897 0.207219 0
0.146672 0.111641 0
0.411967 -0.0802133 0
0.344714 -0.0158958 0
0.446438 -0.264782 0
0.192359 -0.173663 0
0.354655 -0.333186 0
0.0872276 -0.353146 0
0.11945 -0.368889 0
0.0410952 -0.41101 0
-0.138087 -0.426586 0
-0.0468428 -0.308638 0
-0.290686 -0.438625 0
-0.222208 -0.158347 0
-0.341247 -0.306413 0
-0.38349 -0.0732117 0
-0.381864 -0.0508368 0
-0.397979 -0.0271595 0
-0.438551 0.188619 0
-0.269573 0.084145 0
-0.421088 0.309682 0
-0.129255 0.270068 0
-0.249753 0.349096 0
-0.062114 0.403847 0
0.0165426 0.396558 0
-0.00857222 0.375262 0
0.230917 0.445833 0
0.126936 0.230049 0
0.323265 0.393108 0
0.314578 0.105614 0
0.35804 0.186634 0
0.413126 0.0520858 0
0.637933 -0.0819756 0
0.550718 -0.0397144 0
0.637635 -0.310721 0
0.353181 -0.301273 0
0.460899 -0.452023 0
0.19776 -0.558771 0
0.151952 -0.567691 0
0.0857095 -0.636361 0
-0.149544 -0.651381 0
-0.0964055 -0.504411 0
-0.35182 -0.610816 0
-0.37356 -0.307036 0
-0.481649 -0.391271 0
-0.599918 -0.169546 0
-0.594379 -0.0703559 0
-0.619361 -0.0507716 0
-0.656855 0.210199 0
-0.454146 0.160072 0
-0.57203 0.388229 0
-0.265649 0.442746 0
-0.314932 0.510756 0
-0.142928 0.627073 0
0.00823423 0.618331 0
-0.00928893 0.589998 0
0.263793 0.652709 0
0.22914 0.402876 0
0.421221 0.521701 0
0.505514 0.229384 0
0.539542 0.234308 0
0.639235 0.115736 0
0.81474 -0.0634362 0
0.718641 -0.0443428 0
0.755006 -0.305759 0
0.470999 -0.36939 0
0.497162 -0.525868 0
0.263074 -0.699612 0
0.161632 -0.728777 0
0.112767 -0.814973 0
-0.12917 -0.820585 0
-0.114473 -0.662344 0
-0.360997 -0.705995 0
-0.460522 -0.410546 0
-0.580436 -0.414551 0
-0.755169 -0.224324 0
-0.767074 -0.0820808 0
-0.798083 -0.0683605 0
-0.812801 0.190854 0
-0.599895 0.193315 0
-0.645311 0.415877 0
-0.355414 0.548638 0
-0.329601 0.633503 0
-0.188082 0.793741 0
-0.00693149 0.796372 0
-0.0164546 0.765035 0
0.249375 0.790886 0
0.279175 0.535002 0
0.470839 0.574922 0
0.629639 0.306354 0
0.683567 0.244637 0
0.813798 0.151808 0
0.932956 -0.0240881 0
0.83904 -0.0272143 0
0.788139 -0.245004 0
0.53431 -0.367029 0
0.454739 -0.547736 0
0.271356 -0.763199 0
0.14465 -0.84388 0
0.116896 -0.936833 0
-0.0751436 -0.92439 0
-0.0958911 -0.772685 0
-0.312618 -0.713856 0
-0.471066 -0.456858 0
-0.630304 -0.368518 0
-0.837284 -0.22666 0
-0.89131 -0.0836395 0
-0.924564 -0.0770884 0
-0.896263 0.127581 0
-0.696565 0.176385 0
-0.630935 0.386461 0
-0.386238 0.575154 0
-0.287188 0.709726 0
-0.188096 0.892549 0
-0.028049 0.921646 0
-0.0299241 0.89099 0
0.183634 0.850025 0
0.267586 0.615553 0
0.465503 0.543307 0
0.674241 0.324254 0
0.782191 0.212365 0
0.926199 0.152682 0
0.986995 0.0333397 0
0.904359 0.0110491 0
0.736096 -0.13065 0
0.535653 -0.292282 0
0.335387 -0.514845 0
0.217041 -0.74523 0
0.100635 -0.906477 0
0.0953598 -0.995443 0
0.00942403 -0.958189 0
-0.0406199 -0.827722 0
-0.207899 -0.634551 0
-0.402681 -0.438836 0
-0.627149 -0.254792 0
-0.841373 -0.171652 0
-0.960493 -0.0737723 0
-0.99187 -0.0749419 0
-0.903809 0.0235452 0
-0.736404 0.108604 0
-0.529908 0.299973 0
-0.351418 0.519184 0
-0.188862 0.734202 0
-0.138774 0.918036 0
-0.0530365 0.987884 0
-0.0483911 0.960572 0
0.069427 0.827956 0
0.193072 0.636861 0
0.403835 0.428409 0
0.63561 0.27691 0
0.829358 0.137967 0
0.970436 0.11489 0
0.975979 0.10308 0
0.91002 0.0664017 0
0.608099 0.0279124 0
0.473082 -0.153486 0
0.151792 -0.429143 0
0.102342 -0.650846 0
0.033011 -0.912613 0
0.0487719 -0.988859 0
0.116628 -0.923409 0
0.0457295 -0.822949 0
-0.0550779 -0.479317 0
-0.263646 -0.355783 0
-0.570701 -0.0847647 0
-0.770833 -0.0617985 0
-0.970925 -0.0526176 0
-0.996738 -0.0611395 0
-0.839495 -0.11199 0
-0.715433 -0.00309953 0
-0.354803 0.162877 0
-0.251461 0.388418 0
-0.0439196 0.704803 0
-0.0424362 0.871733 0
-0.078882 0.992444 0
-0.0694717 0.96962 0
-0.0834863 0.731421 0
0.0635028 0.595839 0
0.290118 0.243311 0
0.520363 0.165841 0
0.821663 0.0280056 0
0.946208 0.0401092 0
0.903932 0.176899 0
0.855151 0.131718 0
0.422797 0.214762 0
0.350827 0.0312466 0
-0.0733902 -0.297425 0
-0.062422 -0.494475 0
-0.0511371 -0.861471 0
-0.0186909 -0.920127 0
0.234476 -0.827482 0
0.152295 -0.75783 0
0.131095 -0.269579 0
-0.0725891 -0.214022 0
-0.464824 0.121224 0
-0.637331 0.092743 0
-0.922317 -0.0218477 0
-0.940137 -0.0363748 0
-0.714583 -0.264429 0
-0.634197 -0.144634 0
-0.128774 -0.0122089 0
-0.0945762 0.200968 0
0.130852 0.622956 0
0.091861 0.762295 0
-0.102019 0.936695 0
-0.0899944 0.917765 0
-0.259197 0.575556 0
-0.104553 0.494698 0
0.134193 0.0116112 0
0.345153 0.000663608 0
0.758898 -0.105262 0
0.859203 -0.0646346 0
