# vtk DataFile Version 3.0
tp3485 cell-vector
ASCII
DATASET UNSTRUCTURED_GRID
POINTS 121 double
0 0 0
0.125 0 0
0.114193 0.0508421 0
0.0836413 0.0928931 0
0.0386271 0.118882 0
-0.0130661 0.124315 0
-0.0625 0.108253 0
-0.101127 0.0734732 0
-0.122268 0.025989 0
-0.122268 -0.025989 0
-0.101127 -0.0734732 0
-0.0625 -0.108253 0
-0.0130661 -0.124315 0
0.0386271 -0.118882 0
0.0836413 -0.0928931 0
0.114193 -0.0508421 0
0.25 0 0
0.228386 0.101684 0
0.167283 0.185786 0
0.0772542 0.237764 0
-0.0261321 0.24863 0
-0.125 0.216506 0
-0.202254 0.146946 0
-0.244537 0.0519779 0
-0.244537 -0.0519779 0
-0.202254 -0.146946 0
-0.125 -0.216506 0
-0.0261321 -0.24863 0
0.0772542 -0.237764 0
0.167283 -0.185786 0
0.228386 -0.101684 0
0.375 0 0
0.34258 0.152526 0
0.250924 0.278679 0
0.115881 0.356646 0
-0.0391982 0.372946 0
-0.1875 0.32476 0
-0.303381 0.220419 0
-0.366805 0.0779669 0
-0.366805 -0.0779669 0
-0.303381 -0.220419 0
-0.1875 -0.32476 0
-0.0391982 -0.372946 0
0.115881 -0.356646 0
0.250924 -0.278679 0
0.34258 -0.152526 0
0.5 0 0
0.456773 0.203368 0
0.334565 0.371572 0
0.154508 0.475528 0
-0.0522642 0.497261 0
-0.25 0.433013 0
-0.404508 0.293893 0
-0.489074 0.103956 0
-0.489074 -0.103956 0
-0.404508 -0.293893 0
-0.25 -0.433013 0
-0.0522642 -0.497261 0
0.154508 -0.475528 0
0.334565 -0.371572 0
0.456773 -0.203368 0
0.625 0 0
0.570966 0.25421 0
0.418207 0.464466 0
0.193136 0.59441 0
-0.0653303 0.621576 0
-0.3125 0.541266 0
-0.505636 0.367366 0
-0.611342 0.129945 0
-0.611342 -0.129945 0
-0.505636 -0.367366 0
-0.3125 -0.541266 0
-0.0653303 -0.621576 0
0.193136 -0.59441 0
0.418207 -0.464466 0
0.570966 -0.25421 0
0.75 0 0
0.685159 0.305052 0
0.501848 0.557359 0
0.231763 0.713292 0
-0.0783963 0.745891 0
-0.375 0.649519 0
-0.606763 0.440839 0
-0.733611 0.155934 0
-0.733611 -0.155934 0
-0.606763 -0.440839 0
-0.375 -0.649519 0
-0.0783963 -0.745891 0
0.231763 -0.713292 0
0.501848 -0.557359 0
0.685159 -0.305052 0
0.875 0 0
0.799352 0.355895 0
0.585489 0.650252 0
0.27039 0.832174 0
-0.0914624 0.870207 0
-0.4375 0.757772 0
-0.70789 0.514312 0
-0.855879 0.181923 0
-0.855879 -0.181923 0
-0.70789 -0.514312 0
-0.4375 -0.757772 0
-0.0914624 -0.870207 0
0.27039 -0.832174 0
0.585489 -0.650252 0
0.799352 -0.355895 0
1 0 0
0.913545 0.406737 0
0.669131 0.743145 0
0.309017 0.951057 0
-0.104528 0.994522 0
-0.5 0.866025 0
-0.809017 0.587785 0
-0.978148 0.207912 0
-0.978148 -0.207912 0
-0.809017 -0.587785 0
-0.5 -0.866025 0
-0.104528 -0.994522 0
0.309017 -0.951057 0
0.669131 -0.743145 0
0.913545 -0.406737 0
CELLS 225 900
3 0 1 2
3 0 2 3
3 0 3 4
3 0 4 5
3 0 5 6
3 0 6 7
3 0 7 8
3 0 8 9
3 0 9 10
3 0 10 11
3 0 11 12
3 0 12 13
3 0 13 14
3 0 14 15
3 0 15 1
3 1 16 17
3 1 17 2
3 2 17 18
3 2 18 3
3 3 18 19
3 3 19 4
3 4 19 20
3 4 20 5
3 5 20 21
3 5 21 6
3 6 21 22
3 6 22 7
3 7 22 23
3 7 23 8
3 8 23 24
3 8 24 9
3 9 24 25
3 9 25 10
3 10 25 26
3 10 26 11
3 11 26 27
3 11 27 12
3 12 27 28
3 12 28 13
3 13 28 29
3 13 29 14
3 14 29 30
3 14 30 15
3 15 30 16
3 15 16 1
3 16 31 32
3 16 32 17
3 17 32 33
3 17 33 18
3 18 33 34
3 18 34 19
3 19 34 35
3 19 35 20
3 20 35 36
3 20 36 21
3 21 36 37
3 21 37 22
3 22 37 38
3 22 38 23
3 23 38 39
3 23 39 24
3 24 39 40
3 24 40 25
3 25 40 41
3 25 41 26
3 26 41 42
3 26 42 27
3 27 42 43
3 27 43 28
3 28 43 44
3 28 44 29
3 29 44 45
3 29 45 30
3 30 45 31
3 30 31 16
3 31 46 47
3 31 47 32
3 32 47 48
3 32 48 33
3 33 48 49
3 33 49 34
3 34 49 50
3 34 50 35
3 35 50 51
3 35 51 36
3 36 51 52
3 36 52 37
3 37 52 53
3 37 53 38
3 38 53 54
3 38 54 39
3 39 54 55
3 39 55 40
3 40 55 56
3 40 56 41
3 41 56 57
3 41 57 42
3 42 57 58
3 42 58 43
3 43 58 59
3 43 59 44
3 44 59 60
3 44 60 45
3 45 60 46
3 45 46 31
3 46 61 62
3 46 62 47
3 47 62 63
3 47 63 48
3 48 63 64
3 48 64 49
3 49 64 65
3 49 65 50
3 50 65 66
3 50 66 51
3 51 66 67
3 51 67 52
3 52 67 68
3 52 68 53
3 53 68 69
3 53 69 54
3 54 69 70
3 54 70 55
3 55 70 71
3 55 71 56
3 56 71 72
3 56 72 57
3 57 72 73
3 57 73 58
3 58 73 74
3 58 74 59
3 59 74 75
3 59 75 60
3 60 75 61
3 60 61 46
3 61 76 77
3 61 77 62
3 62 77 78
3 62 78 63
3 63 78 79
3 63 79 64
3 64 79 80
3 64 80 65
3 65 80 81
3 65 81 66
3 66 81 82
3 66 82 67
3 67 82 83
3 67 83 68
3 68 83 84
3 68 84 69
3 69 84 85
3 69 85 70
3 70 85 86
3 70 86 71
3 71 86 87
3 71 87 72
3 72 87 88
3 72 88 73
3 73 88 89
3 73 89 74
3 74 89 90
3 74 90 75
3 75 90 76
3 75 76 61
3 76 91 92
3 76 92 77
3 77 92 93
3 77 93 78
3 78 93 94
3 78 94 79
3 79 94 95
3 79 95 80
3 80 95 96
3 80 96 81
3 81 96 97
3 81 97 82
3 82 97 98
3 82 98 83
3 83 98 99
3 83 99 84
3 84 99 100
3 84 100 85
3 85 100 101
3 85 101 86
3 86 101 102
3 86 102 87
3 87 102 103
3 87 103 88
3 88 103 104
3 88 104 89
3 89 104 105
3 89 105 90
3 90 105 91
3 90 91 76
3 91 106 107
3 91 107 92
3 92 107 108
3 92 108 93
3 93 108 109
3 93 109 94
3 94 109 110
3 94 110 95
3 95 110 111
3 95 111 96
3 96 111 112
3 96 112 97
3 97 112 113
3 97 113 98
3 98 113 114
3 98 114 99
3 99 114 115
3 99 115 100
3 100 115 116
3 100 116 101
3 101 116 117
3 101 117 102
3 102 117 118
3 102 118 103
3 103 118 119
3 103 119 104
3 104 119 120
3 104 120 105
3 105 120 106
3 105 106 91
CELL_TYPES 225
5
5
5
5
5
5
5
5
5
5
5
5
5
5
5
5
5
5
5
5
5
5
5
5
5
5
5
5
5
5
5
5
5
5
5
5
5
5
5
5
5
5
5
5
5
5
5
5
5
5
5
5
5
5
5
5
5
5
5
5
5
5
5
5
5
5
5
5
5
5
5
5
5
5
5
5
5
5
5
5
5
5
5
5
5
5
5
5
5
5
5
5
5
5
5
5
5
5
5
5
5
5
5
5
5
5
5
5
5
5
5
5
5
5
5
5
5
5
5
5
5
5
5
5
5
5
5
5
5
5
5
5
5
5
5
5
5
5
5
5
5
5
5
5
5
5
5
5
5
5
5
5
5
5
5
5
5
5
5
5
5
5
5
5
5
5
5
5
5
5
5
5
5
5
5
5
5
5
5
5
5
5
5
5
5
5
5
5
5
5
5
5
5
5
5
5
5
5
5
5
5
5
5
5
5
5
5
5
5
5
5
5
5
5
5
5
5
5
5
5
5
5
5
5
5
CELL_DATA 225
VECTORS Ht double
-0.00176442 0.0217266 0
0.0180051 -0.02296 0
-0.0084606 0.000425009 0
-0.0212084 0.00503581 0
0.0274002 0.0100289 0
-0.00301868 -0.00791517 0
-0.0113431 -0.0186143 0
-0.00107089 0.0291582 0
0.00659495 -0.00531685 0
0.014198 -0.0165401 0
-0.028062 0.00799191 0
0.00709458 0.00462918 0
0.0201179 0.00839194 0
-0.0162724 -0.024219 0
-0.00221026 0.00817784 0
-0.0188577 0.119336 0
0.0718137 0.035155 0
0.125368 -0.101228 0
-0.0261044 -0.0495237 0
-0.0544005 -0.0243529 0
-0.018223 -0.0210315 0
-0.119323 0.0189422 0
-0.0112427 0.0791624 0
0.135015 0.0879513 0
0.0390331 -0.0401304 0
0.00635032 -0.0592635 0
0.0143709 -0.0238302 0
-0.0548879 -0.107629 0
-0.0787621 0.01377 0
-0.0419247 0.155585 0
0.0502282 0.0247217 0
0.0583253 -0.0122739 0
0.0271047 0.00630363 0
0.0854004 -0.0854609 0
-0.0374349 -0.070652 0
-0.160926 0.00820565 0
-0.00799039 0.0554093 0
0.0296967 0.0516778 0
0.00238071 0.0277261 0
0.107668 0.0548118 0
0.0556261 -0.0574354 0
-0.0575328 -0.150514 0
-0.0551665 0.0095231 0
-0.0399717 0.0442125 0
-0.0256334 0.010832 0
-0.0638327 0.31104 0
0.252103 0.159056 0
0.377216 -0.206413 0
-0.0551442 -0.19461 0
-0.154699 -0.125549 0
-0.0792661 -0.0935636 0
-0.315542 0.0354081 0
-0.0733675 0.288915 0
0.312876 0.294969 0
0.168045 -0.112583 0
0.0715998 -0.185925 0
0.0644898 -0.104299 0
-0.131183 -0.289156 0
-0.297446 0.019503 0
-0.183848 0.388713 0
0.159002 0.12503 0
0.198951 0.0106415 0
0.119123 0.0291032 0
0.234466 -0.214117 0
-0.110464 -0.276861 0
-0.4265 -0.0547305 0
-0.0697764 0.189856 0
0.0513584 0.192502 0
0.00913226 0.122286 0
0.276091 0.156825 0
0.229175 -0.190613 0
-0.0797441 -0.422539 0
-0.202126 -0.0076926 0
-0.167209 0.108331 0
-0.113479 0.0464738 0
-0.111095 0.508958 0
0.533339 0.367956 0
0.694723 -0.234428 0
-0.062525 -0.394783 0
-0.277445 -0.326409 0
-0.186882 -0.256476 0
-0.518378 0.0516194 0
-0.185136 0.62094 0
0.437635 0.588279 0
0.356139 -0.181459 0
0.224698 -0.364732 0
0.186173 -0.256991 0
-0.20928 -0.477055 0
-0.64776 0.0158066 0
-0.42425 0.598004 0
0.282631 0.282635 0
0.416316 0.100992 0
0.301944 0.0976464 0
0.389035 -0.346456 0
-0.215202 -0.611171 0
-0.699836 -0.218692 0
-0.181464 0.356137 0
0.0325994 0.427148 0
0.000438462 0.31734 0
0.449718 0.262934 0
0.514758 -0.393531 0
-0.00827272 -0.733163 0
-0.394782 -0.0625297 0
-0.396169 0.163 0
-0.301673 0.0984804 0
-0.10025 0.539625 0
0.805873 0.528585 0
0.883123 -0.0664116 0
-0.042393 -0.4738 0
-0.365686 -0.585108 0
-0.300403 -0.502493 0
-0.544193 0.0714103 0
-0.253686 0.929773 0
0.336061 0.819378 0
0.43751 -0.18673 0
0.443468 -0.528596 0
0.38507 -0.440979 0
-0.23608 -0.495491 0
-0.96266 0.0460459 0
-0.675426 0.572815 0
0.312789 0.358394 0
0.639764 0.258418 0
0.538389 0.229953 0
0.398287 -0.377641 0
-0.341271 -0.901315 0
-0.753498 -0.465359 0
-0.244196 0.40823 0
-0.0480722 0.688307 0
-0.0523272 0.583098 0
0.482235 0.262096 0
0.751743 -0.603089 0
0.209739 -0.860423 0
-0.46371 -0.106094 0
-0.669474 0.166979 0
-0.570729 0.130421 0
0.00547439 0.252894 0
0.899219 0.437499 0
0.767159 0.322255 0
-0.0263535 -0.249373 0
-0.385488 -0.779714 0
-0.353923 -0.722461 0
-0.238825 0.0833551 0
-0.138213 0.990403 0
-0.0694173 0.829194 0
0.229024 -0.102124 0
0.62243 -0.607566 0
0.577733 -0.559854 0
-0.153076 -0.201378 0
-0.984639 0.174603 0
-0.810062 0.190215 0
0.167898 0.186257 0
0.770171 0.404218 0
0.710982 0.376453 0
0.144219 -0.207814 0
-0.470328 -0.882492 0
-0.431228 -0.711635 0
-0.125257 0.217237 0
-0.146438 0.857386 0
-0.138322 0.792515 0
0.242208 0.0729422 0
0.69396 -0.720013 0
0.543548 -0.63003 0
-0.245311 -0.0519968 0
-0.860674 0.125676 0
-0.79647 0.113348 0
0.134396 -0.316004 0
0.679634 -0.0179932 0
0.360012 0.754374 0
-0.0833364 0.249479 0
-0.346821 -0.724013 0
-0.290531 -0.687041 0
0.342068 0.030168 0
0.227131 0.64081 0
-0.606203 0.575506 0
-0.263021 -0.00216429 0
0.581404 -0.553578 0
0.563636 -0.488619 0
0.0770134 0.334648 0
-0.539259 0.414036 0
-0.734666 -0.398692 0
-0.0792197 -0.250817 0
0.706148 0.381883 0
0.638878 0.385058 0
-0.294471 0.176656 0
-0.560412 -0.384922 0
0.152154 -0.821911 0
0.214061 -0.152849 0
-0.144981 0.789595 0
-0.168788 0.726598 0
-0.259007 -0.225469 0
0.192906 -0.65193 0
0.828702 -0.109277 0
0.211517 0.156351 0
-0.795751 0.106114 0
-0.743194 0.0640042 0
0.071236 -0.814067 0
0.20893 -0.656068 0
-0.0801444 0.829872 0
-0.312028 0.609697 0
-0.241881 -0.233749 0
-0.094317 -0.146343 0
0.796237 -0.183811 0
0.688521 -0.00403188 0
-0.814021 0.180223 0
-0.676279 -0.10835 0
0.147564 -0.302275 0
0.110035 -0.134923 0
0.420866 0.700466 0
0.216599 0.653576 0
-0.422948 -0.718488 0
-0.105935 -0.676661 0
0.33308 0.0469331 0
0.162322 0.0629555 0
-0.536128 0.616723 0
-0.554655 0.407964 0
0.552625 -0.624273 0
0.610807 -0.30985 0
0.0582915 0.331281 0
-0.00971399 0.173832 0
-0.752211 -0.31931 0
-0.559395 -0.401441 0
0.764489 0.332666 0
0.483434 0.485164 0
-0.297054 0.15781 0
-0.168326 0.0444784 0
