# vtk DataFile Version 3.0
tp3485 scalar+vector
ASCII
DATASET UNSTRUCTURED_GRID
POINTS 187 double
1 0 0
0.932472 0.361242 0
0.739009 0.673696 0
0.445738 0.895163 0
0.0922684 0.995734 0
-0.273663 0.961826 0
-0.602635 0.798017 0
-0.850217 0.526432 0
-0.982973 0.18375 0
-0.982973 -0.18375 0
-0.850217 -0.526432 0
-0.602635 -0.798017 0
-0.273663 -0.961826 0
0.0922684 -0.995734 0
0.445738 -0.895163 0
0.739009 -0.673696 0
0.932472 -0.361242 0
1.3 0 0
1.21221 0.469614 0
0.960712 0.875804 0
0.57946 1.16371 0
0.119949 1.29445 0
-0.355762 1.25037 0
-0.783425 1.03742 0
-1.10528 0.684362 0
-1.27787 0.238874 0
-1.27787 -0.238874 0
-1.10528 -0.684362 0
-0.783425 -1.03742 0
-0.355762 -1.25037 0
0.119949 -1.29445 0
0.57946 -1.16371 0
0.960712 -0.875804 0
1.21221 -0.469614 0
1.6 0 0
1.49196 0.577987 0
1.18241 1.07791 0
0.713181 1.43226 0
0.147629 1.59317 0
-0.437861 1.53892 0
-0.964215 1.27683 0
-1.36035 0.842291 0
-1.57276 0.293999 0
-1.57276 -0.293999 0
-1.36035 -0.842291 0
-0.964215 -1.27683 0
-0.437861 -1.53892 0
0.147629 -1.59317 0
0.713181 -1.43226 0
1.18241 -1.07791 0
1.49196 -0.577987 0
1.9 0 0
1.7717 0.686359 0
1.40412 1.28002 0
0.846903 1.70081 0
0.17531 1.89189 0
-0.51996 1.82747 0
-1.14501 1.51623 0
-1.61541 1.00022 0
-1.86765 0.349124 0
-1.86765 -0.349124 0
-1.61541 -1.00022 0
-1.14501 -1.51623 0
-0.51996 -1.82747 0
0.17531 -1.89189 0
0.846903 -1.70081 0
1.40412 -1.28002 0
1.7717 -0.686359 0
2.2 0 0
2.05144 0.794732 0
1.62582 1.48213 0
0.980624 1.96936 0
0.20299 2.19062 0
-0.602059 2.11602 0
-1.3258 1.75564 0
-1.87048 1.15815 0
-2.16254 0.404249 0
-2.16254 -0.404249 0
-1.87048 -1.15815 0
-1.3258 -1.75564 0
-0.602059 -2.11602 0
0.20299 -2.19062 0
0.980624 -1.96936 0
1.62582 -1.48213 0
2.05144 -0.794732 0
2.5 0 0
2.33118 0.903104 0
1.84752 1.68424 0
1.11435 2.23791 0
0.230671 2.48934 0
-0.684157 2.40456 0
-1.50659 1.99504 0
-2.12554 1.31608 0
-2.45743 0.459374 0
-2.45743 -0.459374 0
-2.12554 -1.31608 0
-1.50659 -1.99504 0
-0.684157 -2.40456 0
0.230671 -2.48934 0
1.11435 -2.23791 0
1.84752 -1.68424 0
2.33118 -0.903104 0
2.8 0 0
2.61092 1.01148 0
2.06922 1.88635 0
1.24807 2.50646 0
0.258351 2.78806 0
-0.766256 2.69311 0
-1.68738 2.23445 0
-2.38061 1.47401 0
-2.75232 0.514499 0
-2.75232 -0.514499 0
-2.38061 -1.47401 0
-1.68738 -2.23445 0
-0.766256 -2.69311 0
0.258351 -2.78806 0
1.24807 -2.50646 0
2.06922 -1.88635 0
2.61092 -1.01148 0
3.1 0 0
2.89066 1.11985 0
2.29093 2.08846 0
1.38179 2.77501 0
0.286032 3.08678 0
-0.848355 2.98166 0
-1.86817 2.47385 0
-2.63567 1.63194 0
-3.04722 0.569624 0
-3.04722 -0.569624 0
-2.63567 -1.63194 0
-1.86817 -2.47385 0
-0.848355 -2.98166 0
0.286032 -3.08678 0
1.38179 -2.77501 0
2.29093 -2.08846 0
2.89066 -1.11985 0
3.4 0 0
3.17041 1.22822 0
2.51263 2.29057 0
1.51551 3.04356 0
0.313712 3.3855 0
-0.930454 3.27021 0
-2.04896 2.71326 0
-2.89074 1.78987 0
-3.34211 0.624748 0
-3.34211 -0.624748 0
-2.89074 -1.78987 0
-2.04896 -2.71326 0
-0.930454 -3.27021 0
0.313712 -3.3855 0
1.51551 -3.04356 0
2.51263 -2.29057 0
3.17041 -1.22822 0
3.7 0 0
3.45015 1.33659 0
2.73433 2.49267 0
1.64923 3.3121 0
0.341393 3.68422 0
-1.01255 3.55875 0
-2.22975 2.95266 0
-3.1458 1.9478 0
-3.637 0.679873 0
-3.637 -0.679873 0
-3.1458 -1.9478 0
-2.22975 -2.95266 0
-1.01255 -3.55875 0
0.341393 -3.68422 0
1.64923 -3.3121 0
2.73433 -2.49267 0
3.45015 -1.33659 0
4 0 0
3.72989 1.44497 0
2.95604 2.69478 0
1.78295 3.58065 0
0.369073 3.98294 0
-1.09465 3.8473 0
-2.41054 3.19207 0
-3.40087 2.10573 0
-3.93189 0.734998 0
-3.93189 -0.734998 0
-3.40087 -2.10573 0
-2.41054 -3.19207 0
-1.09465 -3.8473 0
0.369073 -3.98294 0
1.78295 -3.58065 0
2.95604 -2.69478 0
3.72989 -1.44497 0
CELLS 340 1360
3 0 17 18
3 0 18 1
3 1 18 19
3 1 19 2
3 2 19 20
3 2 20 3
3 3 20 21
3 3 21 4
3 4 21 22
3 4 22 5
3 5 22 23
3 5 23 6
3 6 23 24
3 6 24 7
3 7 24 25
3 7 25 8
3 8 25 26
3 8 26 9
3 9 26 27
3 9 27 10
3 10 27 28
3 10 28 11
3 11 28 29
3 11 29 12
3 12 29 30
3 12 30 13
3 13 30 31
3 13 31 14
3 14 31 32
3 14 32 15
3 15 32 33
3 15 33 16
3 16 33 17
3 16 17 0
3 17 34 35
3 17 35 18
3 18 35 36
3 18 36 19
3 19 36 37
3 19 37 20
3 20 37 38
3 20 38 21
3 21 38 39
3 21 39 22
3 22 39 40
3 22 40 23
3 23 40 41
3 23 41 24
3 24 41 42
3 24 42 25
3 25 42 43
3 25 43 26
3 26 43 44
3 26 44 27
3 27 44 45
3 27 45 28
3 28 45 46
3 28 46 29
3 29 46 47
3 29 47 30
3 30 47 48
3 30 48 31
3 31 48 49
3 31 49 32
3 32 49 50
3 32 50 33
3 33 50 34
3 33 34 17
3 34 51 52
3 34 52 35
3 35 52 53
3 35 53 36
3 36 53 54
3 36 54 37
3 37 54 55
3 37 55 38
3 38 55 56
3 38 56 39
3 39 56 57
3 39 57 40
3 40 57 58
3 40 58 41
3 41 58 59
3 41 59 42
3 42 59 60
3 42 60 43
3 43 60 61
3 43 61 44
3 44 61 62
3 44 62 45
3 45 62 63
3 45 63 46
3 46 63 64
3 46 64 47
3 47 64 65
3 47 65 48
3 48 65 66
3 48 66 49
3 49 66 67
3 49 67 50
3 50 67 51
3 50 51 34
3 51 68 69
3 51 69 52
3 52 69 70
3 52 70 53
3 53 70 71
3 53 71 54
3 54 71 72
3 54 72 55
3 55 72 73
3 55 73 56
3 56 73 74
3 56 74 57
3 57 74 75
3 57 75 58
3 58 75 76
3 58 76 59
3 59 76 77
3 59 77 60
3 60 77 78
3 60 78 61
3 61 78 79
3 61 79 62
3 62 79 80
3 62 80 63
3 63 80 81
3 63 81 64
3 64 81 82
3 64 82 65
3 65 82 83
3 65 83 66
3 66 83 84
3 66 84 67
3 67 84 68
3 67 68 51
3 68 85 86
3 68 86 69
3 69 86 87
3 69 87 70
3 70 87 88
3 70 88 71
3 71 88 89
3 71 89 72
3 72 89 90
3 72 90 73
3 73 90 91
3 73 91 74
3 74 91 92
3 74 92 75
3 75 92 93
3 75 93 76
3 76 93 94
3 76 94 77
3 77 94 95
3 77 95 78
3 78 95 96
3 78 96 79
3 79 96 97
3 79 97 80
3 80 97 98
3 80 98 81
3 81 98 99
3 81 99 82
3 82 99 100
3 82 100 83
3 83 100 101
3 83 101 84
3 84 101 85
3 84 85 68
3 85 102 103
3 85 103 86
3 86 103 104
3 86 104 87
3 87 104 105
3 87 105 88
3 88 105 106
3 88 106 89
3 89 106 107
3 89 107 90
3 90 107 108
3 90 108 91
3 91 108 109
3 91 109 92
3 92 109 110
3 92 110 93
3 93 110 111
3 93 111 94
3 94 111 112
3 94 112 95
3 95 112 113
3 95 113 96
3 96 113 114
3 96 114 97
3 97 114 115
3 97 115 98
3 98 115 116
3 98 116 99
3 99 116 117
3 99 117 100
3 100 117 118
3 100 118 101
3 101 118 102
3 101 102 85
3 102 119 120
3 102 120 103
3 103 120 121
3 103 121 104
3 104 121 122
3 104 122 105
3 105 122 123
3 105 123 106
3 106 123 124
3 106 124 107
3 107 124 125
3 107 125 108
3 108 125 126
3 108 126 109
3 109 126 127
3 109 127 110
3 110 127 128
3 110 128 111
3 111 128 129
3 111 129 112
3 112 129 130
3 112 130 113
3 113 130 131
3 113 131 114
3 114 131 132
3 114 132 115
3 115 132 133
3 115 133 116
3 116 133 134
3 116 134 117
3 117 134 135
3 117 135 118
3 118 135 119
3 118 119 102
3 119 136 137
3 119 137 120
3 120 137 138
3 120 138 121
3 121 138 139
3 121 139 122
3 122 139 140
3 122 140 123
3 123 140 141
3 123 141 124
3 124 141 142
3 124 142 125
3 125 142 143
3 125 143 126
3 126 143 144
3 126 144 127
3 127 144 145
3 127 145 128
3 128 145 146
3 128 146 129
3 129 146 147
3 129 147 130
3 130 147 148
3 130 148 131
3 131 148 149
3 131 149 132
3 132 149 150
3 132 150 133
3 133 150 151
3 133 151 134
3 134 151 152
3 134 152 135
3 135 152 136
3 135 136 119
3 136 153 154
3 136 154 137
3 137 154 155
3 137 155 138
3 138 155 156
3 138 156 139
3 139 156 157
3 139 157 140
3 140 157 158
3 140 158 141
3 141 158 159
3 141 159 142
3 142 159 160
3 142 160 143
3 143 160 161
3 143 161 144
3 144 161 162
3 144 162 145
3 145 162 163
3 145 163 146
3 146 163 164
3 146 164 147
3 147 164 165
3 147 165 148
3 148 165 166
3 148 166 149
3 149 166 167
3 149 167 150
3 150 167 168
3 150 168 151
3 151 168 169
3 151 169 152
3 152 169 153
3 152 153 136
3 153 170 171
3 153 171 154
3 154 171 172
3 154 172 155
3 155 172 173
3 155 173 156
3 156 173 174
3 156 174 157
3 157 174 175
3 157 175 158
3 158 175 176
3 158 176 159
3 159 176 177
3 159 177 160
3 160 177 178
3 160 178 161
3 161 178 179
3 161 179 162
3 162 179 180
3 162 180 163
3 163 180 181
3 163 181 164
3 164 181 182
3 164 182 165
3 165 182 183
3 165 183 166
3 166 183 184
3 166 184 167
3 167 184 185
3 167 185 168
3 168 185 186
3 168 186 169
3 169 186 170
3 169 170 153
CELL_TYPES 340
5
5
5
5
5
5
5
5
5
5
5
5
5
5
5
5
5
5
5
5
5
5
5
5
5
5
5
5
5
5
5
5
5
5
5
5
5
5
5
5
5
5
5
5
5
5
5
5
5
5
5
5
5
5
5
5
5
5
5
5
5
5
5
5
5
5
5
5
5
5
5
5
5
5
5
5
5
5
5
5
5
5
5
5
5
5
5
5
5
5
5
5
5
5
5
5
5
5
5
5
5
5
5
5
5
5
5
5
5
5
5
5
5
5
5
5
5
5
5
5
5
5
5
5
5
5
5
5
5
5
5
5
5
5
5
5
5
5
5
5
5
5
5
5
5
5
5
5
5
5
5
5
5
5
5
5
5
5
5
5
5
5
5
5
5
5
5
5
5
5
5
5
5
5
5
5
5
5
5
5
5
5
5
5
5
5
5
5
5
5
5
5
5
5
5
5
5
5
5
5
5
5
5
5
5
5
5
5
5
5
5
5
5
5
5
5
5
5
5
5
5
5
5
5
5
5
5
5
5
5
5
5
5
5
5
5
5
5
5
5
5
5
5
5
5
5
5
5
5
5
5
5
5
5
5
5
5
5
5
5
5
5
5
5
5
5
5
5
5
5
5
5
5
5
5
5
5
5
5
5
5
5
5
5
5
5
5
5
5
5
5
5
5
5
5
5
5
5
5
5
5
5
5
5
5
5
5
5
5
5
5
5
5
5
5
5
5
5
5
5
5
5
5
5
5
5
5
5
5
5
5
5
5
5
5
5
5
5
5
5
POINT_DATA 187
SCALARS psi double 1
LOOKUP_TABLE default
0.00238515
-0.0317677
-0.00824746
0.0302457
0.0138289
-0.0276938
-0.0189394
0.0241988
0.023405
-0.0198797
-0.0270735
0.0148836
0.0298201
-0.00938074
-0.0315512
0.00355838
0.0322079
0.0046441
-0.0490373
-0.0136933
0.0465104
0.0222762
-0.0423996
-0.0301005
0.036845
0.0368997
-0.0300356
-0.0424424
0.0222035
0.0465398
-0.0136152
-0.0490523
0.00456323
0.0498943
0.0104137
-0.0955284
-0.0280422
0.0903535
0.0447158
-0.0821018
-0.0598666
0.0710543
0.0729787
-0.057587
-0.0836056
0.0421587
0.0913855
-0.0252947
-0.0960533
0.00756937
0.0974501
0.0199883
-0.168206
-0.0510286
0.15879
0.0803311
-0.143966
-0.106898
0.124239
0.129825
-0.100282
-0.14833
0.0729091
0.161785
-0.0430539
-0.16973
0.0117326
0.171895
0.0331147
-0.265409
-0.0820925
0.25026
0.128275
-0.226589
-0.170089
0.195201
0.20611
-0.157166
-0.235113
0.113779
0.25611
-0.0665174
-0.268384
0.0169906
0.27152
0.0494216
-0.383791
-0.120245
0.361602
0.186974
-0.327098
-0.247336
0.281456
0.299274
-0.226229
-0.341022
0.163297
0.371156
-0.0948055
-0.388651
0.023085
0.392911
0.0681618
-0.519551
-0.164038
0.48928
0.254328
-0.442347
-0.335957
0.38035
0.406146
-0.305401
-0.462504
0.220053
0.503111
-0.12721
-0.526586
0.0300355
0.532129
0.0882521
-0.664595
-0.210894
0.625677
0.326355
-0.565453
-0.430701
0.485973
0.520381
-0.389943
-0.59234
0.280635
0.644127
-0.161769
-0.67398
0.0373954
0.680881
0.107821
-0.80526
-0.256421
0.757941
0.396289
-0.684811
-0.522662
0.588361
0.631236
-0.471874
-0.718314
0.339319
0.780931
-0.195209
-0.816954
0.0444505
0.825157
0.123386
-0.915947
-0.292412
0.861986
0.45148
-0.778671
-0.595174
0.66884
0.718599
-0.536232
-0.817554
0.385363
0.888667
-0.221371
-0.929518
0.0498412
0.938716
0.134522
-0.975176
-0.314477
0.917143
0.483724
-0.827878
-0.636498
0.710421
0.767597
-0.568771
-0.872556
0.407753
0.947801
-0.232848
-0.99077
0.050015
1
VECTORS Et double
0.179694 0.0155647 0
0.0730181 -0.0914405 0
-0.103649 -0.143429 0
-0.123838 -0.0132068 0
-0.0404585 0.165295 0
0.0646394 0.118935 0
0.144452 -0.0701232 0
0.0618886 -0.133879 0
-0.134419 -0.0644068 0
-0.154766 0.0371999 0
0.026835 0.134239 0
0.135104 0.101662 0
0.0870759 -0.0907824 0
-0.0103182 -0.175965 0
-0.115555 -0.0225408 0
-0.129303 0.125409 0
0.0396004 0.107467 0
0.311827 0.0287415 0
0.137646 -0.176138 0
-0.175652 -0.252449 0
-0.233781 -0.0177143 0
-0.0793126 0.286266 0
0.128102 0.214561 0
0.259209 -0.11266 0
0.101994 -0.24697 0
-0.233442 -0.127069 0
-0.273456 0.0763731 0
0.0347637 0.246087 0
0.243116 0.172449 0
0.170436 -0.1594 0
-0.0235332 -0.307295 0
-0.216905 -0.0514704 0
-0.223525 0.219632 0
0.0725149 0.207057 0
0.473607 0.0413153 0
0.203589 -0.244123 0
-0.270859 -0.378035 0
-0.336326 -0.0398541 0
-0.10973 0.43257 0
0.173981 0.323154 0
0.380907 -0.178544 0
0.166581 -0.361354 0
-0.349025 -0.175746 0
-0.414891 0.101311 0
0.061387 0.35479 0
0.361773 0.269783 0
0.237923 -0.233009 0
-0.029128 -0.467331 0
-0.306663 -0.0704494 0
-0.341386 0.33242 0
0.098261 0.293104 0
0.623874 0.0501155 0
0.257241 -0.286577 0
-0.363918 -0.489502 0
-0.413159 -0.0700098 0
-0.127265 0.567327 0
0.198445 0.419221 0
0.482457 -0.248156 0
0.235336 -0.454039 0
-0.452958 -0.204081 0
-0.544138 0.111681 0
0.0961738 0.438917 0
0.464653 0.365988 0
0.280181 -0.295203 0
-0.0289264 -0.615622 0
-0.369872 -0.0784602 0
-0.451781 0.436281 0
0.113656 0.352121 0
0.739587 0.055549 0
0.295235 -0.309995 0
-0.437671 -0.572969 0
-0.464141 -0.0975796 0
-0.135927 0.670555 0
0.209175 0.491126 0
0.555455 -0.305518 0
0.292234 -0.519411 0
-0.531401 -0.218324 0
-0.642776 0.11398 0
0.127421 0.49611 0
0.540659 0.442666 0
0.303586 -0.34026 0
-0.0264078 -0.729686 0
-0.409486 -0.0803911 0
-0.537174 0.515905 0
0.121629 0.388244 0
0.823339 0.0612927 0
0.328047 -0.340356 0
-0.488025 -0.636674 0
-0.51326 -0.111566 0
-0.149152 0.745875 0
0.228755 0.546634 0
0.61564 -0.341414 0
0.327909 -0.575787 0
-0.590165 -0.239666 0
-0.715809 0.124018 0
0.143235 0.548331 0
0.600635 0.494491 0
0.333946 -0.376588 0
-0.0281705 -0.812616 0
-0.451172 -0.0883855 0
-0.59838 0.574223 0
0.13263 0.42819 0
0.883751 0.0693622 0
0.362158 -0.388994 0
-0.518122 -0.689434 0
-0.5729 -0.109688 0
-0.172842 0.801488 0
0.266311 0.593415 0
0.673958 -0.355999 0
0.342678 -0.634282 0
-0.636646 -0.277256 0
-0.771624 0.14773 0
0.141075 0.607783 0
0.653522 0.524655 0
0.382685 -0.410354 0
-0.0362949 -0.8731 0
-0.507304 -0.107216 0
-0.641528 0.617412 0
0.151121 0.484479 0
0.927024 0.0803855 0
0.400289 -0.458939 0
-0.531448 -0.736224 0
-0.647373 -0.0926276 0
-0.208468 0.843018 0
0.323942 0.635751 0
0.735359 -0.351561 0
0.338881 -0.699541 0
-0.675338 -0.333384 0
-0.815696 0.186277 0
0.121703 0.679023 0
0.70398 0.536828 0
0.452866 -0.444492 0
-0.0510297 -0.917282 0
-0.581757 -0.137853 0
-0.67117 0.649752 0
0.178246 0.560866 0
0.957564 0.0925145 0
0.437775 -0.535323 0
-0.534303 -0.776405 0
-0.724347 -0.068541 0
-0.24828 0.873651 0
0.388163 0.672422 0
0.794023 -0.336787 0
0.325234 -0.763451 0
-0.706824 -0.395732 0
-0.849933 0.229874 0
0.0941667 0.751532 0
0.749078 0.538317 0
0.529723 -0.476265 0
-0.068014 -0.949111 0
-0.660762 -0.172761 0
-0.691333 0.673447 0
0.208066 0.642621 0
0.978549 0.102684 0
0.464472 -0.589939 0
-0.534735 -0.805691 0
-0.778989 -0.051226 0
-0.278244 0.894903 0
0.433634 0.698107 0
0.836595 -0.324852 0
0.315463 -0.808176 0
-0.728949 -0.441578 0
-0.873589 0.260143 0
0.0735414 0.803953 0
0.779908 0.539525 0
0.585501 -0.49884 0
-0.0788778 -0.970946 0
-0.717607 -0.198139 0
-0.706116 0.688756 0
0.229419 0.701316 0
0.992108 0.107083 0
0.469742 -0.594014 0
-0.540594 -0.818402 0
-0.785795 -0.0543602 0
-0.283441 0.907282 0
0.434831 0.706783 0
0.848412 -0.328932 0
0.322718 -0.8153 0
-0.73869 -0.447264 0
-0.885065 0.258891 0
0.0750039 0.81373 0
0.787158 0.549975 0
0.59155 -0.504787 0
-0.0757575 -0.984157 0
-0.724659 -0.199878 0
-0.718402 0.695628 0
0.230881 0.707727 0
