# vtk DataFile Version 3.0
tp3485 scalar+vector
ASCII
DATASET UNSTRUCTURED_GRID
POINTS 187 double
1 0 0
0.932472 0.361242 0
0.739009 0.673696 0
0.445738 0.895163 0
0.0922684 0.995734 0
-0.273663 0.961826 0
-0.602635 0.798017 0
-0.850217 0.526432 0
-0.982973 0.18375 0
-0.982973 -0.18375 0
-0.850217 -0.526432 0
-0.602635 -0.798017 0
-0.273663 -0.961826 0
0.0922684 -0.995734 0
0.445738 -0.895163 0
0.739009 -0.673696 0
0.932472 -0.361242 0
1.3 0 0
1.21221 0.469614 0
0.960712 0.875804 0
0.57946 1.16371 0
0.119949 1.29445 0
-0.355762 1.25037 0
-0.783425 1.03742 0
-1.10528 0.684362 0
-1.27787 0.238874 0
-1.27787 -0.238874 0
-1.10528 -0.684362 0
-0.783425 -1.03742 0
-0.355762 -1.25037 0
0.119949 -1.29445 0
0.57946 -1.16371 0
0.960712 -0.875804 0
1.21221 -0.469614 0
1.6 0 0
1.49196 0.577987 0
1.18241 1.07791 0
0.713181 1.43226 0
0.147629 1.59317 0
-0.437861 1.53892 0
-0.964215 1.27683 0
-1.36035 0.842291 0
-1.57276 0.293999 0
-1.57276 -0.293999 0
-1.36035 -0.842291 0
-0.964215 -1.27683 0
-0.437861 -1.53892 0
0.147629 -1.59317 0
0.713181 -1.43226 0
1.18241 -1.07791 0
1.49196 -0.577987 0
1.9 0 0
1.7717 0.686359 0
1.40412 1.28002 0
0.846903 1.70081 0
0.17531 1.89189 0
-0.51996 1.82747 0
-1.14501 1.51623 0
-1.61541 1.00022 0
-1.86765 0.349124 0
-1.86765 -0.349124 0
-1.61541 -1.00022 0
-1.14501 -1.51623 0
-0.51996 -1.82747 0
0.17531 -1.89189 0
0.846903 -1.70081 0
1.40412 -1.28002 0
1.7717 -0.686359 0
2.2 0 0
2.05144 0.794732 0
1.62582 1.48213 0
0.980624 1.96936 0
0.20299 2.19062 0
-0.602059 2.11602 0
-1.3258 1.75564 0
-1.87048 1.15815 0
-2.16254 0.404249 0
-2.16254 -0.404249 0
-1.87048 -1.15815 0
-1.3258 -1.75564 0
-0.602059 -2.11602 0
0.20299 -2.19062 0
0.980624 -1.96936 0
1.62582 -1.48213 0
2.05144 -0.794732 0
2.5 0 0
2.33118 0.903104 0
1.84752 1.68424 0
1.11435 2.23791 0
0.230671 2.48934 0
-0.684157 2.40456 0
-1.50659 1.99504 0
-2.12554 1.31608 0
-2.45743 0.459374 0
-2.45743 -0.459374 0
-2.12554 -1.31608 0
-1.50659 -1.99504 0
-0.684157 -2.40456 0
0.230671 -2.48934 0
1.11435 -2.23791 0
1.84752 -1.68424 0
2.33118 -0.903104 0
2.8 0 0
2.61092 1.01148 0
2.06922 1.88635 0
1.24807 2.50646 0
0.258351 2.78806 0
-0.766256 2.69311 0
-1.68738 2.23445 0
-2.38061 1.47401 0
-2.75232 0.514499 0
-2.75232 -0.514499 0
-2.38061 -1.47401 0
-1.68738 -2.23445 0
-0.766256 -2.69311 0
0.258351 -2.78806 0
1.24807 -2.50646 0
2.06922 -1.88635 0
2.61092 -1.01148 0
3.1 0 0
2.89066 1.11985 0
2.29093 2.08846 0
1.38179 2.77501 0
0.286032 3.08678 0
-0.848355 2.98166 0
-1.86817 2.47385 0
-2.63567 1.63194 0
-3.04722 0.569624 0
-3.04722 -0.569624 0
-2.63567 -1.63194 0
-1.86817 -2.47385 0
-0.848355 -2.98166 0
0.286032 -3.08678 0
1.38179 -2.77501 0
2.29093 -2.08846 0
2.89066 -1.11985 0
3.4 0 0
3.17041 1.22822 0
2.51263 2.29057 0
1.51551 3.04356 0
0.313712 3.3855 0
-0.930454 3.27021 0
-2.04896 2.71326 0
-2.89074 1.78987 0
-3.34211 0.624748 0
-3.34211 -0.624748 0
-2.89074 -1.78987 0
-2.04896 -2.71326 0
-0.930454 -3.27021 0
0.313712 -3.3855 0
1.51551 -3.04356 0
2.51263 -2.29057 0
3.17041 -1.22822 0
3.7 0 0
3.45015 1.33659 0
2.73433 2.49267 0
1.64923 3.3121 0
0.341393 3.68422 0
-1.01255 3.55875 0
-2.22975 2.95266 0
-3.1458 1.9478 0
-3.637 0.679873 0
-3.637 -0.679873 0
-3.1458 -1.9478 0
-2.22975 -2.95266 0
-1.01255 -3.55875 0
0.341393 -3.68422 0
1.64923 -3.3121 0
2.73433 -2.49267 0
3.45015 -1.33659 0
4 0 0
3.72989 1.44497 0
2.95604 2.69478 0
1.78295 3.58065 0
0.369073 3.98294 0
-1.09465 3.8473 0
-2.41054 3.19207 0
-3.40087 2.10573 0
-3.93189 0.734998 0
-3.93189 -0.734998 0
-3.40087 -2.10573 0
-2.41054 -3.19207 0
-1.09465 -3.8473 0
0.369073 -3.98294 0
1.78295 -3.58065 0
2.95604 -2.69478 0
3.72989 -1.44497 0
CELLS 340 1360
3 0 17 18
3 0 18 1
3 1 18 19
3 1 19 2
3 2 19 20
3 2 20 3
3 3 20 21
3 3 21 4
3 4 21 22
3 4 22 5
3 5 22 23
3 5 23 6
3 6 23 24
3 6 24 7
3 7 24 25
3 7 25 8
3 8 25 26
3 8 26 9
3 9 26 27
3 9 27 10
3 10 27 28
3 10 28 11
3 11 28 29
3 11 29 12
3 12 29 30
3 12 30 13
3 13 30 31
3 13 31 14
3 14 31 32
3 14 32 15
3 15 32 33
3 15 33 16
3 16 33 17
3 16 17 0
3 17 34 35
3 17 35 18
3 18 35 36
3 18 36 19
3 19 36 37
3 19 37 20
3 20 37 38
3 20 38 21
3 21 38 39
3 21 39 22
3 22 39 40
3 22 40 23
3 23 40 41
3 23 41 24
3 24 41 42
3 24 42 25
3 25 42 43
3 25 43 26
3 26 43 44
3 26 44 27
3 27 44 45
3 27 45 28
3 28 45 46
3 28 46 29
3 29 46 47
3 29 47 30
3 30 47 48
3 30 48 31
3 31 48 49
3 31 49 32
3 32 49 50
3 32 50 33
3 33 50 34
3 33 34 17
3 34 51 52
3 34 52 35
3 35 52 53
3 35 53 36
3 36 53 54
3 36 54 37
3 37 54 55
3 37 55 38
3 38 55 56
3 38 56 39
3 39 56 57
3 39 57 40
3 40 57 58
3 40 58 41
3 41 58 59
3 41 59 42
3 42 59 60
3 42 60 43
3 43 60 61
3 43 61 44
3 44 61 62
3 44 62 45
3 45 62 63
3 45 63 46
3 46 63 64
3 46 64 47
3 47 64 65
3 47 65 48
3 48 65 66
3 48 66 49
3 49 66 67
3 49 67 50
3 50 67 51
3 50 51 34
3 51 68 69
3 51 69 52
3 52 69 70
3 52 70 53
3 53 70 71
3 53 71 54
3 54 71 72
3 54 72 55
3 55 72 73
3 55 73 56
3 56 73 74
3 56 74 57
3 57 74 75
3 57 75 58
3 58 75 76
3 58 76 59
3 59 76 77
3 59 77 60
3 60 77 78
3 60 78 61
3 61 78 79
3 61 79 62
3 62 79 80
3 62 80 63
3 63 80 81
3 63 81 64
3 64 81 82
3 64 82 65
3 65 82 83
3 65 83 66
3 66 83 84
3 66 84 67
3 67 84 68
3 67 68 51
3 68 85 86
3 68 86 69
3 69 86 87
3 69 87 70
3 70 87 88
3 70 88 71
3 71 88 89
3 71 89 72
3 72 89 90
3 72 90 73
3 73 90 91
3 73 91 74
3 74 91 92
3 74 92 75
3 75 92 93
3 75 93 76
3 76 93 94
3 76 94 77
3 77 94 95
3 77 95 78
3 78 95 96
3 78 96 79
3 79 96 97
3 79 97 80
3 80 97 98
3 80 98 81
3 81 98 99
3 81 99 82
3 82 99 100
3 82 100 83
3 83 100 101
3 83 101 84
3 84 101 85
3 84 85 68
3 85 102 103
3 85 103 86
3 86 103 104
3 86 104 87
3 87 104 105
3 87 105 88
3 88 105 106
3 88 106 89
3 89 106 107
3 89 107 90
3 90 107 108
3 90 108 91
3 91 108 109
3 91 109 92
3 92 109 110
3 92 110 93
3 93 110 111
3 93 111 94
3 94 111 112
3 94 112 95
3 95 112 113
3 95 113 96
3 96 113 114
3 96 114 97
3 97 114 115
3 97 115 98
3 98 115 116
3 98 116 99
3 99 116 117
3 99 117 100
3 100 117 118
3 100 118 101
3 101 118 102
3 101 102 85
3 102 119 120
3 102 120 103
3 103 120 121
3 103 121 104
3 104 121 122
3 104 122 105
3 105 122 123
3 105 123 106
3 106 123 124
3 106 124 107
3 107 124 125
3 107 125 108
3 108 125 126
3 108 126 109
3 109 126 127
3 109 127 110
3 110 127 128
3 110 128 111
3 111 128 129
3 111 129 112
3 112 129 130
3 112 130 113
3 113 130 131
3 113 131 114
3 114 131 132
3 114 132 115
3 115 132 133
3 115 133 116
3 116 133 134
3 116 134 117
3 117 134 135
3 117 135 118
3 118 135 119
3 118 119 102
3 119 136 137
3 119 137 120
3 120 137 138
3 120 138 121
3 121 138 139
3 121 139 122
3 122 139 140
3 122 140 123
3 123 140 141
3 123 141 124
3 124 141 142
3 124 142 125
3 125 142 143
3 125 143 126
3 126 143 144
3 126 144 127
3 127 144 145
3 127 145 128
3 128 145 146
3 128 146 129
3 129 146 147
3 129 147 130
3 130 147 148
3 130 148 131
3 131 148 149
3 131 149 132
3 132 149 150
3 132 150 133
3 133 150 151
3 133 151 134
3 134 151 152
3 134 152 135
3 135 152 136
3 135 136 119
3 136 153 154
3 136 154 137
3 137 154 155
3 137 155 138
3 138 155 156
3 138 156 139
3 139 156 157
3 139 157 140
3 140 157 158
3 140 158 141
3 141 158 159
3 141 159 142
3 142 159 160
3 142 160 143
3 143 160 161
3 143 161 144
3 144 161 162
3 144 162 145
3 145 162 163
3 145 163 146
3 146 163 164
3 146 164 147
3 147 164 165
3 147 165 148
3 148 165 166
3 148 166 149
3 149 166 167
3 149 167 150
3 150 167 168
3 150 168 151
3 151 168 169
3 151 169 152
3 152 169 153
3 152 153 136
3 153 170 171
3 153 171 154
3 154 171 172
3 154 172 155
3 155 172 173
3 155 173 156
3 156 173 174
3 156 174 157
3 157 174 175
3 157 175 158
3 158 175 176
3 158 176 159
3 159 176 177
3 159 177 160
3 160 177 178
3 160 178 161
3 161 178 179
3 161 179 162
3 162 179 180
3 162 180 163
3 163 180 181
3 163 181 164
3 164 181 182
3 164 182 165
3 165 182 183
3 165 183 166
3 166 183 184
3 166 184 167
3 167 184 185
3 167 185 168
3 168 185 186
3 168 186 169
3 169 186 170
3 169 170 153
CELL_TYPES 340
5
5
5
5
5
5
5
5
5
5
5
5
5
5
5
5
5
5
5
5
5
5
5
5
5
5
5
5
5
5
5
5
5
5
5
5
5
5
5
5
5
5
5
5
5
5
5
5
5
5
5
5
5
5
5
5
5
5
5
5
5
5
5
5
5
5
5
5
5
5
5
5
5
5
5
5
5
5
5
5
5
5
5
5
5
5
5
5
5
5
5
5
5
5
5
5
5
5
5
5
5
5
5
5
5
5
5
5
5
5
5
5
5
5
5
5
5
5
5
5
5
5
5
5
5
5
5
5
5
5
5
5
5
5
5
5
5
5
5
5
5
5
5
5
5
5
5
5
5
5
5
5
5
5
5
5
5
5
5
5
5
5
5
5
5
5
5
5
5
5
5
5
5
5
5
5
5
5
5
5
5
5
5
5
5
5
5
5
5
5
5
5
5
5
5
5
5
5
5
5
5
5
5
5
5
5
5
5
5
5
5
5
5
5
5
5
5
5
5
5
5
5
5
5
5
5
5
5
5
5
5
5
5
5
5
5
5
5
5
5
5
5
5
5
5
5
5
5
5
5
5
5
5
5
5
5
5
5
5
5
5
5
5
5
5
5
5
5
5
5
5
5
5
5
5
5
5
5
5
5
5
5
5
5
5
5
5
5
5
5
5
5
5
5
5
5
5
5
5
5
5
5
5
5
5
5
5
5
5
5
5
5
5
5
5
5
5
5
5
5
5
5
5
5
5
5
5
5
5
5
5
5
5
5
5
5
5
5
5
5
POINT_DATA 187
SCALARS psi double 1
LOOKUP_TABLE default
-0.270977
-0.14704
0.0536491
0.226334
0.280877
0.188807
-0.00181691
-0.191493
-0.281212
-0.224145
-0.0500771
0.15013
0.271971
0.251849
0.100266
-0.103654
-0.253469
-0.301141
-0.163046
0.0601569
0.251959
0.312243
0.209541
-0.00253663
-0.213291
-0.312711
-0.248901
-0.05517
0.167359
0.30253
0.279785
0.110998
-0.115729
-0.282047
-0.374541
-0.203546
0.0736973
0.312471
0.388141
0.261208
-0.00207099
-0.264269
-0.388523
-0.309975
-0.0696258
0.207067
0.375675
0.348187
0.138952
-0.142814
-0.350033
-0.465982
-0.25406
0.0904775
0.387787
0.482679
0.325621
-0.00140549
-0.327698
-0.482938
-0.386093
-0.0877143
0.25645
0.466752
0.433418
0.173847
-0.176468
-0.43467
-0.564456
-0.308362
0.108692
0.469011
0.584514
0.394911
-0.000828076
-0.396135
-0.584667
-0.468013
-0.107064
0.30977
0.564909
0.525177
0.211311
-0.212855
-0.525915
-0.662661
-0.362373
0.127067
0.55018
0.686109
0.463901
-0.000454996
-0.464574
-0.686193
-0.549632
-0.126173
0.363146
0.66291
0.616646
0.248504
-0.249353
-0.617051
-0.755749
-0.413347
0.144815
0.627386
0.782473
0.529123
-0.000419777
-0.529743
-0.78255
-0.62688
-0.143989
0.414061
0.755979
0.703289
0.283495
-0.284278
-0.703664
-0.838582
-0.458579
0.160794
0.696236
0.868255
0.58706
-0.000569559
-0.587902
-0.86836
-0.695549
-0.159675
0.459547
0.838894
0.780353
0.314481
-0.315544
-0.780861
-0.905575
-0.495125
0.173771
0.751962
0.937642
0.633889
-0.000741974
-0.634986
-0.937779
-0.751068
-0.172313
0.496386
0.905981
0.842669
0.339499
-0.340883
-0.843331
-0.948581
-0.518554
0.182149
0.787774
0.982194
0.663927
-0.000898378
-0.665255
-0.98236
-0.786691
-0.180383
0.520081
0.949073
0.882665
0.355522
-0.357197
-0.883466
-0.966076
-0.529251
0.183834
0.80096
1
0.677058
0.00070318
-0.676018
-0.99987
-0.801808
-0.185216
0.528055
0.965691
0.899253
0.363421
-0.36211
-0.898626
VECTORS Et double
-0.253427 -0.294739 0
-0.663475 -0.429945 0
-0.69613 -0.558251 0
-0.460691 -0.376353 0
-0.29563 0.116866 0
-0.382931 0.591716 0
-0.546485 0.723855 0
-0.458026 0.52654 0
-0.0208725 0.314361 0
0.496601 0.341565 0
0.729262 0.51764 0
0.591814 0.515808 0
0.350045 0.153034 0
0.310869 -0.38208 0
0.476856 -0.709524 0
0.548897 -0.650341 0
0.273323 -0.400149 0
-0.256352 -0.461777 0
-0.641538 -0.521589 0
-0.727337 -0.547429 0
-0.58743 -0.325154 0
-0.467287 0.132787 0
-0.499857 0.569555 0
-0.558217 0.73476 0
-0.408542 0.630455 0
0.0078632 0.483846 0
0.479152 0.48036 0
0.724052 0.555003 0
0.671086 0.473705 0
0.510799 0.11323 0
0.466727 -0.373398 0
0.541411 -0.693227 0
0.519836 -0.70483 0
0.225634 -0.546297 0
-0.264499 -0.523811 0
-0.6563 -0.563905 0
-0.76086 -0.562298 0
-0.643291 -0.322329 0
-0.531028 0.140427 0
-0.548599 0.581598 0
-0.579573 0.762629 0
-0.408719 0.6814 0
0.0149752 0.547755 0
0.489284 0.534709 0
0.746797 0.583296 0
0.716455 0.477852 0
0.573365 0.106938 0
0.525581 -0.382295 0
0.576799 -0.711566 0
0.528911 -0.744284 0
0.220702 -0.606116 0
-0.270892 -0.524914 0
-0.677042 -0.572028 0
-0.781129 -0.579448 0
-0.652213 -0.336808 0
-0.532168 0.142037 0
-0.554191 0.599918 0
-0.595135 0.784473 0
-0.425353 0.693423 0
0.0118453 0.549786 0
0.504279 0.538158 0
0.769303 0.596664 0
0.731578 0.495641 0
0.577083 0.114488 0
0.527483 -0.393239 0
0.587601 -0.733717 0
0.546849 -0.76224 0
0.232104 -0.612194 0
-0.273702 -0.498382 0
-0.691875 -0.561528 0
-0.787226 -0.590609 0
-0.636622 -0.353215 0
-0.504934 0.140106 0
-0.538201 0.613419 0
-0.601732 0.794696 0
-0.442626 0.683241 0
0.00523971 0.52342 0
0.515157 0.517454 0
0.782468 0.597872 0
0.727091 0.512309 0
0.553084 0.1253 0
0.50318 -0.400445 0
0.582974 -0.748448 0
0.561441 -0.763313 0
0.246284 -0.591879 0
-0.274324 -0.468925 0
-0.700299 -0.546917 0
-0.786336 -0.596322 0
-0.616275 -0.365731 0
-0.474714 0.137338 0
-0.518544 0.621283 0
-0.603036 0.797714 0
-0.455266 0.667653 0
-0.000857931 0.493834 0
0.521388 0.493458 0
0.788443 0.594101 0
0.716568 0.523836 0
0.525471 0.134329 0
0.475843 -0.404172 0
0.573779 -0.75625 0
0.570623 -0.757803 0
0.257537 -0.567424 0
-0.273495 -0.443439 0
-0.703334 -0.532835 0
-0.781478 -0.597927 0
-0.596994 -0.373714 0
-0.448551 0.134547 0
-0.500621 0.624313 0
-0.601169 0.795899 0
-0.462924 0.651831 0
-0.0055711 0.468025 0
0.523674 0.472222 0
0.789024 0.588301 0
0.704472 0.530309 0
0.501006 0.140685 0
0.452033 -0.40511 0
0.563824 -0.758471 0
0.575054 -0.749445 0
0.265044 -0.545191 0
-0.271703 -0.424556 0
-0.702064 -0.521262 0
-0.774506 -0.596457 0
-0.581314 -0.37738 0
-0.429146 0.132087 0
-0.48662 0.623427 0
-0.597397 0.790898 0
-0.466003 0.638179 0
-0.00867561 0.448717 0
0.522779 0.456118 0
0.785679 0.58199 0
0.693042 0.532326 0
0.482395 0.14428 0
0.43427 -0.40388 0
0.554862 -0.756378 0
0.575538 -0.740287 0
0.268855 -0.527818 0
-0.269363 -0.406237 0
-0.698986 -0.509617 0
-0.765866 -0.593877 0
-0.565215 -0.379895 0
-0.410263 0.129494 0
-0.4728 0.620946 0
-0.592729 0.784054 0
-0.467792 0.623758 0
-0.0115128 0.429801 0
0.520582 0.440398 0
0.780395 0.57504 0
0.680502 0.533027 0
0.463965 0.147247 0
0.417022 -0.401702 0
0.545548 -0.752363 0
0.574774 -0.729718 0
0.271742 -0.510351 0
-0.266794 -0.379424 0
-0.696636 -0.494173 0
-0.754728 -0.592896 0
-0.5417 -0.385556 0
-0.382404 0.125985 0
-0.453727 0.61933 0
-0.58853 0.775836 0
-0.472806 0.603024 0
-0.0159833 0.401786 0
0.519114 0.418103 0
0.774706 0.567246 0
0.662886 0.536701 0
0.436674 0.152514 0
0.392098 -0.399868 0
0.533931 -0.748641 0
0.57645 -0.715376 0
0.277453 -0.484601 0
-0.264216 -0.338359 0
-0.696732 -0.472458 0
-0.740657 -0.595067 0
-0.506479 -0.397075 0
-0.339564 0.121076 0
-0.425855 0.620224 0
-0.585562 0.766714 0
-0.483816 0.572588 0
-0.0232876 0.358705 0
0.519695 0.384746 0
0.769679 0.558334 0
0.637839 0.546026 0
0.394874 0.161923 0
0.354256 -0.399223 0
0.518653 -0.746744 0
0.582769 -0.695884 0
0.288366 -0.445489 0
