# vtk DataFile Version 3.0
tp3485 scalar+vector
ASCII
DATASET UNSTRUCTURED_GRID
POINTS 187 double
1 0 0
0.932472 0.361242 0
0.739009 0.673696 0
0.445738 0.895163 0
0.0922684 0.995734 0
-0.273663 0.961826 0
-0.602635 0.798017 0
-0.850217 0.526432 0
-0.982973 0.18375 0
-0.982973 -0.18375 0
-0.850217 -0.526432 0
-0.602635 -0.798017 0
-0.273663 -0.961826 0
0.0922684 -0.995734 0
0.445738 -0.895163 0
0.739009 -0.673696 0
0.932472 -0.361242 0
1.3 0 0
1.21221 0.469614 0
0.960712 0.875804 0
0.57946 1.16371 0
0.119949 1.29445 0
-0.355762 1.25037 0
-0.783425 1.03742 0
-1.10528 0.684362 0
-1.27787 0.238874 0
-1.27787 -0.238874 0
-1.10528 -0.684362 0
-0.783425 -1.03742 0
-0.355762 -1.25037 0
0.119949 -1.29445 0
0.57946 -1.16371 0
0.960712 -0.875804 0
1.21221 -0.469614 0
1.6 0 0
1.49196 0.577987 0
1.18241 1.07791 0
0.713181 1.43226 0
0.147629 1.59317 0
-0.437861 1.53892 0
-0.964215 1.27683 0
-1.36035 0.842291 0
-1.57276 0.293999 0
-1.57276 -0.293999 0
-1.36035 -0.842291 0
-0.964215 -1.27683 0
-0.437861 -1.53892 0
0.147629 -1.59317 0
0.713181 -1.43226 0
1.18241 -1.07791 0
1.49196 -0.577987 0
1.9 0 0
1.7717 0.686359 0
1.40412 1.28002 0
0.846903 1.70081 0
0.17531 1.89189 0
-0.51996 1.82747 0
-1.14501 1.51623 0
-1.61541 1.00022 0
-1.86765 0.349124 0
-1.86765 -0.349124 0
-1.61541 -1.00022 0
-1.14501 -1.51623 0
-0.51996 -1.82747 0
0.17531 -1.89189 0
0.846903 -1.70081 0
1.40412 -1.28002 0
1.7717 -0.686359 0
2.2 0 0
2.05144 0.794732 0
1.62582 1.48213 0
0.980624 1.96936 0
0.20299 2.19062 0
-0.602059 2.11602 0
-1.3258 1.75564 0
-1.87048 1.15815 0
-2.16254 0.404249 0
-2.16254 -0.404249 0
-1.87048 -1.15815 0
-1.3258 -1.75564 0
-0.602059 -2.11602 0
0.20299 -2.19062 0
0.980624 -1.96936 0
1.62582 -1.48213 0
2.05144 -0.794732 0
2.5 0 0
2.33118 0.903104 0
1.84752 1.68424 0
1.11435 2.23791 0
0.230671 2.48934 0
-0.684157 2.40456 0
-1.50659 1.99504 0
-2.12554 1.31608 0
-2.45743 0.459374 0
-2.45743 -0.459374 0
-2.12554 -1.31608 0
-1.50659 -1.99504 0
-0.684157 -2.40456 0
0.230671 -2.48934 0
1.11435 -2.23791 0
1.84752 -1.68424 0
2.33118 -0.903104 0
2.8 0 0
2.61092 1.01148 0
2.06922 1.88635 0
1.24807 2.50646 0
0.258351 2.78806 0
-0.766256 2.69311 0
-1.68738 2.23445 0
-2.38061 1.47401 0
-2.75232 0.514499 0
-2.75232 -0.514499 0
-2.38061 -1.47401 0
-1.68738 -2.23445 0
-0.766256 -2.69311 0
0.258351 -2.78806 0
1.24807 -2.50646 0
2.06922 -1.88635 0
2.61092 -1.01148 0
3.1 0 0
2.89066 1.11985 0
2.29093 2.08846 0
1.38179 2.77501 0
0.286032 3.08678 0
-0.848355 2.98166 0
-1.86817 2.47385 0
-2.63567 1.63194 0
-3.04722 0.569624 0
-3.04722 -0.569624 0
-2.63567 -1.63194 0
-1.86817 -2.47385 0
-0.848355 -2.98166 0
0.286032 -3.08678 0
1.38179 -2.77501 0
2.29093 -2.08846 0
2.89066 -1.11985 0
3.4 0 0
3.17041 1.22822 0
2.51263 2.29057 0
1.51551 3.04356 0
0.313712 3.3855 0
-0.930454 3.27021 0
-2.04896 2.71326 0
-2.89074 1.78987 0
-3.34211 0.624748 0
-3.34211 -0.624748 0
-2.89074 -1.78987 0
-2.04896 -2.71326 0
-0.930454 -3.27021 0
0.313712 -3.3855 0
1.51551 -3.04356 0
2.51263 -2.29057 0
3.17041 -1.22822 0
3.7 0 0
3.45015 1.33659 0
2.73433 2.49267 0
1.64923 3.3121 0
0.341393 3.68422 0
-1.01255 3.55875 0
-2.22975 2.95266 0
-3.1458 1.9478 0
-3.637 0.679873 0
-3.637 -0.679873 0
-3.1458 -1.9478 0
-2.22975 -2.95266 0
-1.01255 -3.55875 0
0.341393 -3.68422 0
1.64923 -3.3121 0
2.73433 -2.49267 0
3.45015 -1.33659 0
4 0 0
3.72989 1.44497 0
2.95604 2.69478 0
1.78295 3.58065 0
0.369073 3.98294 0
-1.09465 3.8473 0
-2.41054 3.19207 0
-3.40087 2.10573 0
-3.93189 0.734998 0
-3.93189 -0.734998 0
-3.40087 -2.10573 0
-2.41054 -3.19207 0
-1.09465 -3.8473 0
0.369073 -3.98294 0
1.78295 -3.58065 0
2.95604 -2.69478 0
3.72989 -1.44497 0
CELLS 340 1360
3 0 17 18
3 0 18 1
3 1 18 19
3 1 19 2
3 2 19 20
3 2 20 3
3 3 20 21
3 3 21 4
3 4 21 22
3 4 22 5
3 5 22 23
3 5 23 6
3 6 23 24
3 6 24 7
3 7 24 25
3 7 25 8
3 8 25 26
3 8 26 9
3 9 26 27
3 9 27 10
3 10 27 28
3 10 28 11
3 11 28 29
3 11 29 12
3 12 29 30
3 12 30 13
3 13 30 31
3 13 31 14
3 14 31 32
3 14 32 15
3 15 32 33
3 15 33 16
3 16 33 17
3 16 17 0
3 17 34 35
3 17 35 18
3 18 35 36
3 18 36 19
3 19 36 37
3 19 37 20
3 20 37 38
3 20 38 21
3 21 38 39
3 21 39 22
3 22 39 40
3 22 40 23
3 23 40 41
3 23 41 24
3 24 41 42
3 24 42 25
3 25 42 43
3 25 43 26
3 26 43 44
3 26 44 27
3 27 44 45
3 27 45 28
3 28 45 46
3 28 46 29
3 29 46 47
3 29 47 30
3 30 47 48
3 30 48 31
3 31 48 49
3 31 49 32
3 32 49 50
3 32 50 33
3 33 50 34
3 33 34 17
3 34 51 52
3 34 52 35
3 35 52 53
3 35 53 36
3 36 53 54
3 36 54 37
3 37 54 55
3 37 55 38
3 38 55 56
3 38 56 39
3 39 56 57
3 39 57 40
3 40 57 58
3 40 58 41
3 41 58 59
3 41 59 42
3 42 59 60
3 42 60 43
3 43 60 61
3 43 61 44
3 44 61 62
3 44 62 45
3 45 62 63
3 45 63 46
3 46 63 64
3 46 64 47
3 47 64 65
3 47 65 48
3 48 65 66
3 48 66 49
3 49 66 67
3 49 67 50
3 50 67 51
3 50 51 34
3 51 68 69
3 51 69 52
3 52 69 70
3 52 70 53
3 53 70 71
3 53 71 54
3 54 71 72
3 54 72 55
3 55 72 73
3 55 73 56
3 56 73 74
3 56 74 57
3 57 74 75
3 57 75 58
3 58 75 76
3 58 76 59
3 59 76 77
3 59 77 60
3 60 77 78
3 60 78 61
3 61 78 79
3 61 79 62
3 62 79 80
3 62 80 63
3 63 80 81
3 63 81 64
3 64 81 82
3 64 82 65
3 65 82 83
3 65 83 66
3 66 83 84
3 66 84 67
3 67 84 68
3 67 68 51
3 68 85 86
3 68 86 69
3 69 86 87
3 69 87 70
3 70 87 88
3 70 88 71
3 71 88 89
3 71 89 72
3 72 89 90
3 72 90 73
3 73 90 91
3 73 91 74
3 74 91 92
3 74 92 75
3 75 92 93
3 75 93 76
3 76 93 94
3 76 94 77
3 77 94 95
3 77 95 78
3 78 95 96
3 78 96 79
3 79 96 97
3 79 97 80
3 80 97 98
3 80 98 81
3 81 98 99
3 81 99 82
3 82 99 100
3 82 100 83
3 83 100 101
3 83 101 84
3 84 101 85
3 84 85 68
3 85 102 103
3 85 103 86
3 86 103 104
3 86 104 87
3 87 104 105
3 87 105 88
3 88 105 106
3 88 106 89
3 89 106 107
3 89 107 90
3 90 107 108
3 90 108 91
3 91 108 109
3 91 109 92
3 92 109 110
3 92 110 93
3 93 110 111
3 93 111 94
3 94 111 112
3 94 112 95
3 95 112 113
3 95 113 96
3 96 113 114
3 96 114 97
3 97 114 115
3 97 115 98
3 98 115 116
3 98 116 99
3 99 116 117
3 99 117 100
3 100 117 118
3 100 118 101
3 101 118 102
3 101 102 85
3 102 119 120
3 102 120 103
3 103 120 121
3 103 121 104
3 104 121 122
3 104 122 105
3 105 122 123
3 105 123 106
3 106 123 124
3 106 124 107
3 107 124 125
3 107 125 108
3 108 125 126
3 108 126 109
3 109 126 127
3 109 127 110
3 110 127 128
3 110 128 111
3 111 128 129
3 111 129 112
3 112 129 130
3 112 130 113
3 113 130 131
3 113 131 114
3 114 131 132
3 114 132 115
3 115 132 133
3 115 133 116
3 116 133 134
3 116 134 117
3 117 134 135
3 117 135 118
3 118 135 119
3 118 119 102
3 119 136 137
3 119 137 120
3 120 137 138
3 120 138 121
3 121 138 139
3 121 139 122
3 122 139 140
3 122 140 123
3 123 140 141
3 123 141 124
3 124 141 142
3 124 142 125
3 125 142 143
3 125 143 126
3 126 143 144
3 126 144 127
3 127 144 145
3 127 145 128
3 128 145 146
3 128 146 129
3 129 146 147
3 129 147 130
3 130 147 148
3 130 148 131
3 131 148 149
3 131 149 132
3 132 149 150
3 132 150 133
3 133 150 151
3 133 151 134
3 134 151 152
3 134 152 135
3 135 152 136
3 135 136 119
3 136 153 154
3 136 154 137
3 137 154 155
3 137 155 138
3 138 155 156
3 138 156 139
3 139 156 157
3 139 157 140
3 140 157 158
3 140 158 141
3 141 158 159
3 141 159 142
3 142 159 160
3 142 160 143
3 143 160 161
3 143 161 144
3 144 161 162
3 144 162 145
3 145 162 163
3 145 163 146
3 146 163 164
3 146 164 147
3 147 164 165
3 147 165 148
3 148 165 166
3 148 166 149
3 149 166 167
3 149 167 150
3 150 167 168
3 150 168 151
3 151 168 169
3 151 169 152
3 152 169 153
3 152 153 136
3 153 170 171
3 153 171 154
3 154 171 172
3 154 172 155
3 155 172 173
3 155 173 156
3 156 173 174
3 156 174 157
3 157 174 175
3 157 175 158
3 158 175 176
3 158 176 159
3 159 176 177
3 159 177 160
3 160 177 178
3 160 178 161
3 161 178 179
3 161 179 162
3 162 179 180
3 162 180 163
3 163 180 181
3 163 181 164
3 164 181 182
3 164 182 165
3 165 182 183
3 165 183 166
3 166 183 184
3 166 184 167
3 167 184 185
3 167 185 168
3 168 185 186
3 168 186 169
3 169 186 170
3 169 170 153
CELL_TYPES 340
5
5
5
5
5
5
5
5
5
5
5
5
5
5
5
5
5
5
5
5
5
5
5
5
5
5
5
5
5
5
5
5
5
5
5
5
5
5
5
5
5
5
5
5
5
5
5
5
5
5
5
5
5
5
5
5
5
5
5
5
5
5
5
5
5
5
5
5
5
5
5
5
5
5
5
5
5
5
5
5
5
5
5
5
5
5
5
5
5
5
5
5
5
5
5
5
5
5
5
5
5
5
5
5
5
5
5
5
5
5
5
5
5
5
5
5
5
5
5
5
5
5
5
5
5
5
5
5
5
5
5
5
5
5
5
5
5
5
5
5
5
5
5
5
5
5
5
5
5
5
5
5
5
5
5
5
5
5
5
5
5
5
5
5
5
5
5
5
5
5
5
5
5
5
5
5
5
5
5
5
5
5
5
5
5
5
5
5
5
5
5
5
5
5
5
5
5
5
5
5
5
5
5
5
5
5
5
5
5
5
5
5
5
5
5
5
5
5
5
5
5
5
5
5
5
5
5
5
5
5
5
5
5
5
5
5
5
5
5
5
5
5
5
5
5
5
5
5
5
5
5
5
5
5
5
5
5
5
5
5
5
5
5
5
5
5
5
5
5
5
5
5
5
5
5
5
5
5
5
5
5
5
5
5
5
5
5
5
5
5
5
5
5
5
5
5
5
5
5
5
5
5
5
5
5
5
5
5
5
5
5
5
5
5
5
5
5
5
5
5
5
5
5
5
5
5
5
5
5
5
5
5
5
5
5
5
5
5
5
5
POINT_DATA 187
SCALARS psi double 1
LOOKUP_TABLE default
-0.0786568
-0.239917
-0.275945
-0.167935
0.0277348
0.208927
0.281063
0.206489
0.0241317
-0.170822
-0.27661
-0.238012
-0.0751764
0.1269
0.262737
0.26143
0.123661
-0.0879484
-0.26702
-0.306712
-0.186306
0.0313488
0.23264
0.312497
0.229236
0.0263184
-0.190337
-0.30764
-0.26436
-0.0830893
0.141553
0.292307
0.290482
0.137031
-0.108263
-0.331274
-0.381366
-0.232392
0.0378866
0.288389
0.388357
0.28561
0.0337796
-0.235683
-0.382124
-0.329102
-0.104295
0.174952
0.362877
0.361387
0.17126
-0.133482
-0.411255
-0.474361
-0.289859
0.0459444
0.357766
0.48284
0.35588
0.0431572
-0.292093
-0.474876
-0.409782
-0.130789
0.216473
0.45074
0.449729
0.213967
-0.160784
-0.497495
-0.574522
-0.351659
0.0547638
0.432601
0.584628
0.43149
0.0531216
-0.352975
-0.574825
-0.496627
-0.159198
0.261329
0.545448
0.544852
0.259853
-0.188222
-0.583654
-0.674429
-0.413164
0.0637653
0.50741
0.686196
0.506799
0.062863
-0.413887
-0.674595
-0.583177
-0.187351
0.306269
0.640022
0.639695
0.305458
-0.21456
-0.665568
-0.769161
-0.471266
0.072622
0.578602
0.782562
0.578039
0.0717895
-0.471933
-0.769315
-0.665128
-0.213756
0.349192
0.729869
0.729567
0.348444
-0.238184
-0.738596
-0.853474
-0.522853
0.0806872
0.642111
0.868364
0.641346
0.0795577
-0.523759
-0.853682
-0.737999
-0.237093
0.387571
0.80993
0.80952
0.386555
-0.257344
-0.797698
-0.921668
-0.564544
0.0872623
0.693519
0.937771
0.692523
0.0857909
-0.565723
-0.921939
-0.79692
-0.255923
0.418662
0.874712
0.874179
0.417339
-0.269691
-0.835674
-0.96545
-0.591279
0.0915298
0.726561
0.982341
0.725356
0.0897482
-0.592707
-0.965779
-0.834732
-0.26797
0.438668
0.916329
0.915682
0.437066
-0.272989
-0.849849
-0.983102
-0.603193
0.0915711
0.738537
1
0.739481
0.0929656
-0.602076
-0.982844
-0.850586
-0.274336
0.445112
0.932219
0.932725
0.446365
VECTORS Et double
0.873633 -0.0842475 0
0.536764 -0.0724445 0
0.076074 -0.339556 0
-0.159336 -0.735442 0
-0.111908 -0.898982 0
-0.0519599 -0.647895 0
-0.248626 -0.180931 0
-0.644141 0.131698 0
-0.896234 0.138794 0
-0.744554 0.049398 0
-0.296696 0.171766 0
0.0828917 0.543414 0
0.15908 0.866144 0
0.0616321 0.821233 0
0.112423 0.41748 0
0.439756 -0.0130207 0
0.8112 -0.167409 0
0.889251 -0.129014 0
0.598416 -0.205105 0
0.190171 -0.466912 0
-0.0690208 -0.793543 0
-0.126531 -0.913586 0
-0.170203 -0.693737 0
-0.386145 -0.286599 0
-0.720754 0.0261775 0
-0.915044 0.123196 0
-0.77662 0.147451 0
-0.389852 0.313983 0
-0.0316729 0.638822 0
0.114899 0.894126 0
0.134741 0.842883 0
0.253124 0.495438 0
0.552607 0.104295 0
0.852636 -0.0978745 0
0.923544 -0.146462 0
0.636715 -0.249056 0
0.229327 -0.517247 0
-0.0460972 -0.83533 0
-0.135472 -0.948119 0
-0.209179 -0.730668 0
-0.436802 -0.326763 0
-0.765202 -0.00267453 0
-0.95052 0.123509 0
-0.812272 0.180208 0
-0.430048 0.363762 0
-0.0652359 0.685778 0
0.106814 0.931213 0
0.160233 0.877591 0
0.300688 0.534923 0
0.601619 0.141283 0
0.891888 -0.0819486 0
0.94968 -0.147553 0
0.651257 -0.245086 0
0.227198 -0.520812 0
-0.0551981 -0.854111 0
-0.138817 -0.974794 0
-0.205475 -0.749207 0
-0.437298 -0.32837 0
-0.780253 0.00605251 0
-0.97664 0.129021 0
-0.834211 0.177549 0
-0.43585 0.361907 0
-0.0578189 0.69687 0
0.114152 0.955738 0
0.159242 0.902117 0
0.297327 0.545126 0
0.608795 0.136096 0
0.913906 -0.0905441 0
0.961535 -0.140915 0
0.649406 -0.221313 0
0.207664 -0.501928 0
-0.0748178 -0.854836 0
-0.138313 -0.987064 0
-0.184217 -0.752094 0
-0.415097 -0.312272 0
-0.775906 0.0279047 0
-0.987878 0.134606 0
-0.841172 0.160169 0
-0.424097 0.337681 0
-0.0352497 0.68729 0
0.125365 0.964571 0
0.146848 0.912151 0
0.272551 0.538258 0
0.594236 0.114334 0
0.919141 -0.106541 0
0.964691 -0.13332 0
0.641971 -0.196825 0
0.187127 -0.479887 0
-0.0928983 -0.848512 0
-0.136582 -0.990455 0
-0.162399 -0.748336 0
-0.390597 -0.294101 0
-0.765434 0.0485498 0
-0.990332 0.138719 0
-0.84058 0.142215 0
-0.409111 0.311867 0
-0.013345 0.672582 0
0.13494 0.964977 0
0.133731 0.913936 0
0.246719 0.526964 0
0.575557 0.0924934 0
0.916544 -0.120864 0
0.962239 -0.126458 0
0.632748 -0.176486 0
0.169994 -0.4602 0
-0.106508 -0.839346 0
-0.134307 -0.988092 0
-0.144293 -0.741473 0
-0.369397 -0.278257 0
-0.753434 0.0644416 0
-0.987268 0.141033 0
-0.835756 0.127212 0
-0.395156 0.289992 0
0.00389472 0.657719 0
0.141584 0.960465 0
0.122545 0.910633 0
0.225115 0.515296 0
0.558053 0.0748583 0
0.909942 -0.13134 0
0.956221 -0.121065 0
0.623681 -0.16204 0
0.157864 -0.445062 0
-0.114873 -0.829523 0
-0.131918 -0.982041 0
-0.131433 -0.733477 0
-0.353632 -0.266452 0
-0.742125 0.0745556 0
-0.98078 0.141666 0
-0.828697 0.116454 0
-0.384051 0.274094 0
0.0152227 0.644939 0
0.145106 0.953159 0
0.114316 0.904261 0
0.209652 0.505146 0
0.543948 0.06287 0
0.901492 -0.137479 0
0.948256 -0.11542 0
0.613686 -0.14816 0
0.146369 -0.430073 0
-0.121982 -0.818527 0
-0.128993 -0.974015 0
-0.119026 -0.724189 0
-0.338241 -0.254932 0
-0.729984 0.0834261 0
-0.972393 0.141496 0
-0.820041 0.105963 0
-0.37284 0.258731 0
0.0254205 0.631669 0
0.147603 0.944125 0
0.106111 0.896071 0
0.194784 0.494474 0
0.529702 0.0517962 0
0.891566 -0.142437 0
0.939515 -0.106096 0
0.600247 -0.126547 0
0.129053 -0.408461 0
-0.132901 -0.804909 0
-0.123952 -0.965378 0
-0.0994451 -0.712307 0
-0.315513 -0.237876 0
-0.714225 0.0970969 0
-0.963278 0.140833 0
-0.80956 0.089193 0
-0.356628 0.235563 0
0.0410912 0.613736 0
0.151193 0.933962 0
0.092813 0.886685 0
0.171976 0.479529 0
0.509744 0.0349116 0
0.879863 -0.149947 0
0.93078 -0.0911117 0
0.581821 -0.0920476 0
0.101804 -0.375926 0
-0.150976 -0.787721 0
-0.115987 -0.957016 0
-0.067992 -0.697047 0
-0.280562 -0.211603 0
-0.693049 0.119499 0
-0.954185 0.140058 0
-0.797173 0.0621548 0
-0.332373 0.199369 0
0.0665028 0.588435 0
0.157392 0.923057 0
0.0713575 0.876552 0
0.135882 0.45798 0
0.480549 0.00789137 0
0.866189 -0.162538 0
