# vtk DataFile Version 3.0
tp3485 scalar+vector
ASCII
DATASET UNSTRUCTURED_GRID
POINTS 187 double
1 0 0
0.932472 0.361242 0
0.739009 0.673696 0
0.445738 0.895163 0
0.0922684 0.995734 0
-0.273663 0.961826 0
-0.602635 0.798017 0
-0.850217 0.526432 0
-0.982973 0.18375 0
-0.982973 -0.18375 0
-0.850217 -0.526432 0
-0.602635 -0.798017 0
-0.273663 -0.961826 0
0.0922684 -0.995734 0
0.445738 -0.895163 0
0.739009 -0.673696 0
0.932472 -0.361242 0
1.3 0 0
1.21221 0.469614 0
0.960712 0.875804 0
0.57946 1.16371 0
0.119949 1.29445 0
-0.355762 1.25037 0
-0.783425 1.03742 0
-1.10528 0.684362 0
-1.27787 0.238874 0
-1.27787 -0.238874 0
-1.10528 -0.684362 0
-0.783425 -1.03742 0
-0.355762 -1.25037 0
0.119949 -1.29445 0
0.57946 -1.16371 0
0.960712 -0.875804 0
1.21221 -0.469614 0
1.6 0 0
1.49196 0.577987 0
1.18241 1.07791 0
0.713181 1.43226 0
0.147629 1.59317 0
-0.437861 1.53892 0
-0.964215 1.27683 0
-1.36035 0.842291 0
-1.57276 0.293999 0
-1.57276 -0.293999 0
-1.36035 -0.842291 0
-0.964215 -1.27683 0
-0.437861 -1.53892 0
0.147629 -1.59317 0
0.713181 -1.43226 0
1.18241 -1.07791 0
1.49196 -0.577987 0
1.9 0 0
1.7717 0.686359 0
1.40412 1.28002 0
0.846903 1.70081 0
0.17531 1.89189 0
-0.51996 1.82747 0
-1.14501 1.51623 0
-1.61541 1.00022 0
-1.86765 0.349124 0
-1.86765 -0.349124 0
-1.61541 -1.00022 0
-1.14501 -1.51623 0
-0.51996 -1.82747 0
0.17531 -1.89189 0
0.846903 -1.70081 0
1.40412 -1.28002 0
1.7717 -0.686359 0
2.2 0 0
2.05144 0.794732 0
1.62582 1.48213 0
0.980624 1.96936 0
0.20299 2.19062 0
-0.602059 2.11602 0
-1.3258 1.75564 0
-1.87048 1.15815 0
-2.16254 0.404249 0
-2.16254 -0.404249 0
-1.87048 -1.15815 0
-1.3258 -1.75564 0
-0.602059 -2.11602 0
0.20299 -2.19062 0
0.980624 -1.96936 0
1.62582 -1.48213 0
2.05144 -0.794732 0
2.5 0 0
2.33118 0.903104 0
1.84752 1.68424 0
1.11435 2.23791 0
0.230671 2.48934 0
-0.684157 2.40456 0
-1.50659 1.99504 0
-2.12554 1.31608 0
-2.45743 0.459374 0
-2.45743 -0.459374 0
-2.12554 -1.31608 0
-1.50659 -1.99504 0
-0.684157 -2.40456 0
0.230671 -2.48934 0
1.11435 -2.23791 0
1.84752 -1.68424 0
2.33118 -0.903104 0
2.8 0 0
2.61092 1.01148 0
2.06922 1.88635 0
1.24807 2.50646 0
0.258351 2.78806 0
-0.766256 2.69311 0
-1.68738 2.23445 0
-2.38061 1.47401 0
-2.75232 0.514499 0
-2.75232 -0.514499 0
-2.38061 -1.47401 0
-1.68738 -2.23445 0
-0.766256 -2.69311 0
0.258351 -2.78806 0
1.24807 -2.50646 0
2.06922 -1.88635 0
2.61092 -1.01148 0
3.1 0 0
2.89066 1.11985 0
2.29093 2.08846 0
1.38179 2.77501 0
0.286032 3.08678 0
-0.848355 2.98166 0
-1.86817 2.47385 0
-2.63567 1.63194 0
-3.04722 0.569624 0
-3.04722 -0.569624 0
-2.63567 -1.63194 0
-1.86817 -2.47385 0
-0.848355 -2.98166 0
0.286032 -3.08678 0
1.38179 -2.77501 0
2.29093 -2.08846 0
2.89066 -1.11985 0
3.4 0 0
3.17041 1.22822 0
2.51263 2.29057 0
1.51551 3.04356 0
0.313712 3.3855 0
-0.930454 3.27021 0
-2.04896 2.71326 0
-2.89074 1.78987 0
-3.34211 0.624748 0
-3.34211 -0.624748 0
-2.89074 -1.78987 0
-2.04896 -2.71326 0
-0.930454 -3.27021 0
0.313712 -3.3855 0
1.51551 -3.04356 0
2.51263 -2.29057 0
3.17041 -1.22822 0
3.7 0 0
3.45015 1.33659 0
2.73433 2.49267 0
1.64923 3.3121 0
0.341393 3.68422 0
-1.01255 3.55875 0
-2.22975 2.95266 0
-3.1458 1.9478 0
-3.637 0.679873 0
-3.637 -0.679873 0
-3.1458 -1.9478 0
-2.22975 -2.95266 0
-1.01255 -3.55875 0
0.341393 -3.68422 0
1.64923 -3.3121 0
2.73433 -2.49267 0
3.45015 -1.33659 0
4 0 0
3.72989 1.44497 0
2.95604 2.69478 0
1.78295 3.58065 0
0.369073 3.98294 0
-1.09465 3.8473 0
-2.41054 3.19207 0
-3.40087 2.10573 0
-3.93189 0.734998 0
-3.93189 -0.734998 0
-3.40087 -2.10573 0
-2.41054 -3.19207 0
-1.09465 -3.8473 0
0.369073 -3.98294 0
1.78295 -3.58065 0
2.95604 -2.69478 0
3.72989 -1.44497 0
CELLS 340 1360
3 0 17 18
3 0 18 1
3 1 18 19
3 1 19 2
3 2 19 20
3 2 20 3
3 3 20 21
3 3 21 4
3 4 21 22
3 4 22 5
3 5 22 23
3 5 23 6
3 6 23 24
3 6 24 7
3 7 24 25
3 7 25 8
3 8 25 26
3 8 26 9
3 9 26 27
3 9 27 10
3 10 27 28
3 10 28 11
3 11 28 29
3 11 29 12
3 12 29 30
3 12 30 13
3 13 30 31
3 13 31 14
3 14 31 32
3 14 32 15
3 15 32 33
3 15 33 16
3 16 33 17
3 16 17 0
3 17 34 35
3 17 35 18
3 18 35 36
3 18 36 19
3 19 36 37
3 19 37 20
3 20 37 38
3 20 38 21
3 21 38 39
3 21 39 22
3 22 39 40
3 22 40 23
3 23 40 41
3 23 41 24
3 24 41 42
3 24 42 25
3 25 42 43
3 25 43 26
3 26 43 44
3 26 44 27
3 27 44 45
3 27 45 28
3 28 45 46
3 28 46 29
3 29 46 47
3 29 47 30
3 30 47 48
3 30 48 31
3 31 48 49
3 31 49 32
3 32 49 50
3 32 50 33
3 33 50 34
3 33 34 17
3 34 51 52
3 34 52 35
3 35 52 53
3 35 53 36
3 36 53 54
3 36 54 37
3 37 54 55
3 37 55 38
3 38 55 56
3 38 56 39
3 39 56 57
3 39 57 40
3 40 57 58
3 40 58 41
3 41 58 59
3 41 59 42
3 42 59 60
3 42 60 43
3 43 60 61
3 43 61 44
3 44 61 62
3 44 62 45
3 45 62 63
3 45 63 46
3 46 63 64
3 46 64 47
3 47 64 65
3 47 65 48
3 48 65 66
3 48 66 49
3 49 66 67
3 49 67 50
3 50 67 51
3 50 51 34
3 51 68 69
3 51 69 52
3 52 69 70
3 52 70 53
3 53 70 71
3 53 71 54
3 54 71 72
3 54 72 55
3 55 72 73
3 55 73 56
3 56 73 74
3 56 74 57
3 57 74 75
3 57 75 58
3 58 75 76
3 58 76 59
3 59 76 77
3 59 77 60
3 60 77 78
3 60 78 61
3 61 78 79
3 61 79 62
3 62 79 80
3 62 80 63
3 63 80 81
3 63 81 64
3 64 81 82
3 64 82 65
3 65 82 83
3 65 83 66
3 66 83 84
3 66 84 67
3 67 84 68
3 67 68 51
3 68 85 86
3 68 86 69
3 69 86 87
3 69 87 70
3 70 87 88
3 70 88 71
3 71 88 89
3 71 89 72
3 72 89 90
3 72 90 73
3 73 90 91
3 73 91 74
3 74 91 92
3 74 92 75
3 75 92 93
3 75 93 76
3 76 93 94
3 76 94 77
3 77 94 95
3 77 95 78
3 78 95 96
3 78 96 79
3 79 96 97
3 79 97 80
3 80 97 98
3 80 98 81
3 81 98 99
3 81 99 82
3 82 99 100
3 82 100 83
3 83 100 101
3 83 101 84
3 84 101 85
3 84 85 68
3 85 102 103
3 85 103 86
3 86 103 104
3 86 104 87
3 87 104 105
3 87 105 88
3 88 105 106
3 88 106 89
3 89 106 107
3 89 107 90
3 90 107 108
3 90 108 91
3 91 108 109
3 91 109 92
3 92 109 110
3 92 110 93
3 93 110 111
3 93 111 94
3 94 111 112
3 94 112 95
3 95 112 113
3 95 113 96
3 96 113 114
3 96 114 97
3 97 114 115
3 97 115 98
3 98 115 116
3 98 116 99
3 99 116 117
3 99 117 100
3 100 117 118
3 100 118 101
3 101 118 102
3 101 102 85
3 102 119 120
3 102 120 103
3 103 120 121
3 103 121 104
3 104 121 122
3 104 122 105
3 105 122 123
3 105 123 106
3 106 123 124
3 106 124 107
3 107 124 125
3 107 125 108
3 108 125 126
3 108 126 109
3 109 126 127
3 109 127 110
3 110 127 128
3 110 128 111
3 111 128 129
3 111 129 112
3 112 129 130
3 112 130 113
3 113 130 131
3 113 131 114
3 114 131 132
3 114 132 115
3 115 132 133
3 115 133 116
3 116 133 134
3 116 134 117
3 117 134 135
3 117 135 118
3 118 135 119
3 118 119 102
3 119 136 137
3 119 137 120
3 120 137 138
3 120 138 121
3 121 138 139
3 121 139 122
3 122 139 140
3 122 140 123
3 123 140 141
3 123 141 124
3 124 141 142
3 124 142 125
3 125 142 143
3 125 143 126
3 126 143 144
3 126 144 127
3 127 144 145
3 127 145 128
3 128 145 146
3 128 146 129
3 129 146 147
3 129 147 130
3 130 147 148
3 130 148 131
3 131 148 149
3 131 149 132
3 132 149 150
3 132 150 133
3 133 150 151
3 133 151 134
3 134 151 152
3 134 152 135
3 135 152 136
3 135 136 119
3 136 153 154
3 136 154 137
3 137 154 155
3 137 155 138
3 138 155 156
3 138 156 139
3 139 156 157
3 139 157 140
3 140 157 158
3 140 158 141
3 141 158 159
3 141 159 142
3 142 159 160
3 142 160 143
3 143 160 161
3 143 161 144
3 144 161 162
3 144 162 145
3 145 162 163
3 145 163 146
3 146 163 164
3 146 164 147
3 147 164 165
3 147 165 148
3 148 165 166
3 148 166 149
3 149 166 167
3 149 167 150
3 150 167 168
3 150 168 151
3 151 168 169
3 151 169 152
3 152 169 153
3 152 153 136
3 153 170 171
3 153 171 154
3 154 171 172
3 154 172 155
3 155 172 173
3 155 173 156
3 156 173 174
3 156 174 157
3 157 174 175
3 157 175 158
3 158 175 176
3 158 176 159
3 159 176 177
3 159 177 160
3 160 177 178
3 160 178 161
3 161 178 179
3 161 179 162
3 162 179 180
3 162 180 163
3 163 180 181
3 163 181 164
3 164 181 182
3 164 182 165
3 165 182 183
3 165 183 166
3 166 183 184
3 166 184 167
3 167 184 185
3 167 185 168
3 168 185 186
3 168 186 169
3 169 186 170
3 169 170 153
CELL_TYPES 340
5
5
5
5
5
5
5
5
5
5
5
5
5
5
5
5
5
5
5
5
5
5
5
5
5
5
5
5
5
5
5
5
5
5
5
5
5
5
5
5
5
5
5
5
5
5
5
5
5
5
5
5
5
5
5
5
5
5
5
5
5
5
5
5
5
5
5
5
5
5
5
5
5
5
5
5
5
5
5
5
5
5
5
5
5
5
5
5
5
5
5
5
5
5
5
5
5
5
5
5
5
5
5
5
5
5
5
5
5
5
5
5
5
5
5
5
5
5
5
5
5
5
5
5
5
5
5
5
5
5
5
5
5
5
5
5
5
5
5
5
5
5
5
5
5
5
5
5
5
5
5
5
5
5
5
5
5
5
5
5
5
5
5
5
5
5
5
5
5
5
5
5
5
5
5
5
5
5
5
5
5
5
5
5
5
5
5
5
5
5
5
5
5
5
5
5
5
5
5
5
5
5
5
5
5
5
5
5
5
5
5
5
5
5
5
5
5
5
5
5
5
5
5
5
5
5
5
5
5
5
5
5
5
5
5
5
5
5
5
5
5
5
5
5
5
5
5
5
5
5
5
5
5
5
5
5
5
5
5
5
5
5
5
5
5
5
5
5
5
5
5
5
5
5
5
5
5
5
5
5
5
5
5
5
5
5
5
5
5
5
5
5
5
5
5
5
5
5
5
5
5
5
5
5
5
5
5
5
5
5
5
5
5
5
5
5
5
5
5
5
5
5
5
5
5
5
5
5
5
5
5
5
5
5
5
5
5
5
5
5
POINT_DATA 187
SCALARS psi double 1
LOOKUP_TABLE default
-0.711562
-0.917755
-1
-0.947189
-0.766455
-0.482208
-0.132835
0.234478
0.570123
0.82877
0.975487
0.990459
0.871664
0.635146
0.312848
-0.0517019
-0.409269
-0.68216
-0.878517
-0.956226
-0.904791
-0.731159
-0.45878
-0.12444
0.226706
0.547234
0.793855
0.933262
0.946626
0.832144
0.605275
0.296661
-0.0520186
-0.393673
-0.607152
-0.782146
-0.851507
-0.805867
-0.65139
-0.40894
-0.11126
0.201446
0.486946
0.706681
0.830975
0.843041
0.74125
0.539348
0.264605
-0.0458744
-0.350158
-0.487689
-0.628626
-0.684664
-0.648234
-0.524256
-0.329475
-0.0901961
0.161264
0.390945
0.567826
0.668019
0.677993
0.5964
0.43426
0.21347
-0.0361495
-0.280887
-0.335004
-0.432143
-0.47092
-0.446095
-0.361024
-0.227194
-0.0626801
0.110299
0.268381
0.390218
0.459353
0.46645
0.41055
0.299203
0.147448
-0.0242218
-0.19262
-0.16457
-0.212517
-0.231763
-0.219708
-0.17798
-0.112215
-0.0312949
0.053852
0.131726
0.191809
0.225988
0.229646
0.202288
0.147611
0.072998
-0.0114739
-0.0943962
0.00747716
0.00937747
0.0100113
0.00929304
0.0073197
0.00435781
0.000807361
-0.00285212
-0.00612641
-0.00857329
-0.0098623
-0.00981936
-0.00845025
-0.00593989
-0.00262732
0.00104009
0.00456703
0.162782
0.209777
0.228441
0.216253
0.174858
0.109848
0.0300025
-0.0538952
-0.130514
-0.189506
-0.222905
-0.226199
-0.198943
-0.144819
-0.0711366
0.0121533
0.0938018
0.284007
0.366214
0.398962
0.377828
0.305667
0.192223
0.0528186
-0.0937193
-0.2276
-0.330742
-0.389215
-0.395123
-0.347667
-0.253257
-0.124643
0.0208046
0.163442
0.354142
0.456678
0.497537
0.471201
0.381227
0.239766
0.0659232
-0.116823
-0.283791
-0.412432
-0.485372
-0.492759
-0.433597
-0.315875
-0.155492
0.0258907
0.203777
0.367183
0.473716
0.516271
0.4891
0.395874
0.249183
0.0688387
-0.120803
-0.294129
-0.427732
-0.503567
-0.511393
-0.450152
-0.328116
-0.161765
0.0264322
0.21106
VECTORS Et double
0.682099 0.334215 0
0.203772 0.543331 0
-0.290596 0.375623 0
-0.542953 -0.0813679 0
-0.421575 -0.5891 0
0.0101815 -0.882548 0
0.526948 -0.808536 0
0.858982 -0.405697 0
0.832966 0.115694 0
0.462482 0.48348 0
-0.0590874 0.505685 0
-0.459489 0.170716 0
-0.529721 -0.346578 0
-0.233124 -0.776179 0
0.275483 -0.893841 0
0.730617 -0.63815 0
0.894707 -0.14257 0
0.458366 0.501954 0
0.00846816 0.696378 0
-0.454997 0.536964 0
-0.690102 0.106922 0
-0.574132 -0.369272 0
-0.167617 -0.643055 0
0.317246 -0.571516 0
0.62737 -0.191998 0
0.600874 0.297399 0
0.251589 0.641217 0
-0.238165 0.65999 0
-0.612745 0.343918 0
-0.676625 -0.142015 0
-0.396464 -0.544159 0
0.0815009 -0.652604 0
0.507781 -0.410743 0
0.659864 0.0551772 0
0.269129 0.64393 0
-0.157356 0.828071 0
-0.596584 0.676831 0
-0.81929 0.269157 0
-0.709224 -0.182154 0
-0.323838 -0.441525 0
0.135704 -0.37357 0
0.429528 -0.0137586 0
0.404263 0.450093 0
0.0730974 0.775862 0
-0.391106 0.793504 0
-0.746042 0.493809 0
-0.80644 0.0332152 0
-0.540773 -0.34786 0
-0.0877153 -0.450499 0
0.316246 -0.221127 0
0.46025 0.220528 0
0.131203 0.710074 0
-0.261105 0.879863 0
-0.66541 0.741043 0
-0.870671 0.366073 0
-0.769747 -0.0493152 0
-0.415317 -0.288299 0
0.0076121 -0.226133 0
0.278279 0.104734 0
0.255401 0.531595 0
-0.0490811 0.831636 0
-0.476232 0.848242 0
-0.803087 0.572743 0
-0.859033 0.148946 0
-0.614869 -0.201934 0
-0.198042 -0.296746 0
0.173871 -0.0859973 0
0.306737 0.320304 0
0.0389387 0.712159 0
-0.311018 0.864069 0
-0.671981 0.740568 0
-0.855534 0.406122 0
-0.765865 0.0353031 0
-0.449781 -0.178326 0
-0.0722707 -0.123255 0
0.169611 0.171771 0
0.149607 0.552752 0
-0.121841 0.820823 0
-0.503042 0.836057 0
-0.795017 0.590501 0
-0.845359 0.212331 0
-0.62779 -0.101055 0
-0.255878 -0.186075 0
0.0762452 0.00165024 0
0.195218 0.364131 0
-0.0210936 0.67655 0
-0.326311 0.809347 0
-0.641334 0.701862 0
-0.801725 0.410199 0
-0.723766 0.0866031 0
-0.448147 -0.100016 0
-0.118737 -0.0522465 0
0.0925168 0.204978 0
0.0753447 0.53739 0
-0.16129 0.771476 0
-0.493869 0.785049 0
-0.748793 0.571024 0
-0.792992 0.241115 0
-0.603399 -0.0324678 0
-0.278978 -0.10692 0
0.0109313 0.0566203 0
0.115 0.372789 0
-0.0600834 0.611459 0
-0.316697 0.723296 0
-0.581682 0.633067 0
-0.71672 0.387867 0
-0.651323 0.115687 0
-0.419629 -0.0413988 0
-0.142577 -0.00139533 0
0.0352173 0.214817 0
0.0209475 0.494378 0
-0.177937 0.691363 0
-0.457622 0.702947 0
-0.672118 0.523088 0
-0.709461 0.245664 0
-0.550158 0.0154885 0
-0.277364 -0.0472921 0
-0.0334711 0.0900927 0
0.054212 0.355931 0
-0.0855634 0.524829 0
-0.289854 0.613961 0
-0.500873 0.542199 0
-0.608474 0.347004 0
-0.556491 0.130264 0
-0.372056 0.00511158 0
-0.151443 0.0368755 0
-0.00980794 0.208976 0
-0.0210807 0.431578 0
-0.179378 0.588489 0
-0.402072 0.597804 0
-0.572921 0.454662 0
-0.602741 0.233776 0
-0.475971 0.0504494 0
-0.258781 0.000373918 0
-0.0645398 0.109687 0
0.00536183 0.321329 0
-0.10224 0.423254 0
-0.251363 0.48838 0
-0.40544 0.436041 0
-0.484047 0.293563 0
-0.446151 0.135315 0
-0.311533 0.0438978 0
-0.150462 0.067031 0
-0.0470137 0.192639 0
-0.0551868 0.355158 0
-0.170714 0.469755 0
-0.333296 0.476612 0
-0.458061 0.372149 0
-0.479891 0.210898 0
-0.387386 0.077024 0
-0.228836 0.0404098 0
-0.086998 0.120166 0
-0.0359102 0.274662 0
-0.112952 0.311964 0
-0.205216 0.352405 0
-0.300652 0.320134 0
-0.349424 0.231991 0
-0.326095 0.133991 0
-0.242832 0.0772853 0
-0.143098 0.091474 0
-0.0789524 0.169151 0
-0.0838781 0.269768 0
-0.155303 0.340808 0
-0.255952 0.345188 0
-0.333273 0.280621 0
-0.346919 0.18081 0
-0.289764 0.0978561 0
-0.191638 0.0750574 0
-0.103767 0.124319 0
-0.0720099 0.219919 0
-0.119404 0.201438 0
-0.157221 0.218363 0
-0.196577 0.205381 0
-0.216914 0.169286 0
-0.207623 0.128908 0
-0.173556 0.105326 0
-0.132494 0.11085 0
-0.105865 0.142594 0
-0.107579 0.183993 0
-0.136734 0.213433 0
-0.17812 0.21555 0
-0.210119 0.189236 0
-0.21604 0.148227 0
-0.192794 0.113932 0
-0.152506 0.104247 0
-0.116211 0.124232 0
-0.102854 0.163453 0
