# vtk DataFile Version 3.0
tp3485 scalar+vector
ASCII
DATASET UNSTRUCTURED_GRID
POINTS 187 double
1 0 0
0.932472 0.361242 0
0.739009 0.673696 0
0.445738 0.895163 0
0.0922684 0.995734 0
-0.273663 0.961826 0
-0.602635 0.798017 0
-0.850217 0.526432 0
-0.982973 0.18375 0
-0.982973 -0.18375 0
-0.850217 -0.526432 0
-0.602635 -0.798017 0
-0.273663 -0.961826 0
0.0922684 -0.995734 0
0.445738 -0.895163 0
0.739009 -0.673696 0
0.932472 -0.361242 0
1.3 0 0
1.21221 0.469614 0
0.960712 0.875804 0
0.57946 1.16371 0
0.119949 1.29445 0
-0.355762 1.25037 0
-0.783425 1.03742 0
-1.10528 0.684362 0
-1.27787 0.238874 0
-1.27787 -0.238874 0
-1.10528 -0.684362 0
-0.783425 -1.03742 0
-0.355762 -1.25037 0
0.119949 -1.29445 0
0.57946 -1.16371 0
0.960712 -0.875804 0
1.21221 -0.469614 0
1.6 0 0
1.49196 0.577987 0
1.18241 1.07791 0
0.713181 1.43226 0
0.147629 1.59317 0
-0.437861 1.53892 0
-0.964215 1.27683 0
-1.36035 0.842291 0
-1.57276 0.293999 0
-1.57276 -0.293999 0
-1.36035 -0.842291 0
-0.964215 -1.27683 0
-0.437861 -1.53892 0
0.147629 -1.59317 0
0.713181 -1.43226 0
1.18241 -1.07791 0
1.49196 -0.577987 0
1.9 0 0
1.7717 0.686359 0
1.40412 1.28002 0
0.846903 1.70081 0
0.17531 1.89189 0
-0.51996 1.82747 0
-1.14501 1.51623 0
-1.61541 1.00022 0
-1.86765 0.349124 0
-1.86765 -0.349124 0
-1.61541 -1.00022 0
-1.14501 -1.51623 0
-0.51996 -1.82747 0
0.17531 -1.89189 0
0.846903 -1.70081 0
1.40412 -1.28002 0
1.7717 -0.686359 0
2.2 0 0
2.05144 0.794732 0
1.62582 1.48213 0
0.980624 1.96936 0
0.20299 2.19062 0
-0.602059 2.11602 0
-1.3258 1.75564 0
-1.87048 1.15815 0
-2.16254 0.404249 0
-2.16254 -0.404249 0
-1.87048 -1.15815 0
-1.3258 -1.75564 0
-0.602059 -2.11602 0
0.20299 -2.19062 0
0.980624 -1.96936 0
1.62582 -1.48213 0
2.05144 -0.794732 0
2.5 0 0
2.33118 0.903104 0
1.84752 1.68424 0
1.11435 2.23791 0
0.230671 2.48934 0
-0.684157 2.40456 0
-1.50659 1.99504 0
-2.12554 1.31608 0
-2.45743 0.459374 0
-2.45743 -0.459374 0
-2.12554 -1.31608 0
-1.50659 -1.99504 0
-0.684157 -2.40456 0
0.230671 -2.48934 0
1.11435 -2.23791 0
1.84752 -1.68424 0
2.33118 -0.903104 0
2.8 0 0
2.61092 1.01148 0
2.06922 1.88635 0
1.24807 2.50646 0
0.258351 2.78806 0
-0.766256 2.69311 0
-1.68738 2.23445 0
-2.38061 1.47401 0
-2.75232 0.514499 0
-2.75232 -0.514499 0
-2.38061 -1.47401 0
-1.68738 -2.23445 0
-0.766256 -2.69311 0
0.258351 -2.78806 0
1.24807 -2.50646 0
2.06922 -1.88635 0
2.61092 -1.01148 0
3.1 0 0
2.89066 1.11985 0
2.29093 2.08846 0
1.38179 2.77501 0
0.286032 3.08678 0
-0.848355 2.98166 0
-1.86817 2.47385 0
-2.63567 1.63194 0
-3.04722 0.569624 0
-3.04722 -0.569624 0
-2.63567 -1.63194 0
-1.86817 -2.47385 0
-0.848355 -2.98166 0
0.286032 -3.08678 0
1.38179 -2.77501 0
2.29093 -2.08846 0
2.89066 -1.11985 0
3.4 0 0
3.17041 1.22822 0
2.51263 2.29057 0
1.51551 3.04356 0
0.313712 3.3855 0
-0.930454 3.27021 0
-2.04896 2.71326 0
-2.89074 1.78987 0
-3.34211 0.624748 0
-3.34211 -0.624748 0
-2.89074 -1.78987 0
-2.04896 -2.71326 0
-0.930454 -3.27021 0
0.313712 -3.3855 0
1.51551 -3.04356 0
2.51263 -2.29057 0
3.17041 -1.22822 0
3.7 0 0
3.45015 1.33659 0
2.73433 2.49267 0
1.64923 3.3121 0
0.341393 3.68422 0
-1.01255 3.55875 0
-2.22975 2.95266 0
-3.1458 1.9478 0
-3.637 0.679873 0
-3.637 -0.679873 0
-3.1458 -1.9478 0
-2.22975 -2.95266 0
-1.01255 -3.55875 0
0.341393 -3.68422 0
1.64923 -3.3121 0
2.73433 -2.49267 0
3.45015 -1.33659 0
4 0 0
3.72989 1.44497 0
2.95604 2.69478 0
1.78295 3.58065 0
0.369073 3.98294 0
-1.09465 3.8473 0
-2.41054 3.19207 0
-3.40087 2.10573 0
-3.93189 0.734998 0
-3.93189 -0.734998 0
-3.40087 -2.10573 0
-2.41054 -3.19207 0
-1.09465 -3.8473 0
0.369073 -3.98294 0
1.78295 -3.58065 0
2.95604 -2.69478 0
3.72989 -1.44497 0
CELLS 340 1360
3 0 17 18
3 0 18 1
3 1 18 19
3 1 19 2
3 2 19 20
3 2 20 3
3 3 20 21
3 3 21 4
3 4 21 22
3 4 22 5
3 5 22 23
3 5 23 6
3 6 23 24
3 6 24 7
3 7 24 25
3 7 25 8
3 8 25 26
3 8 26 9
3 9 26 27
3 9 27 10
3 10 27 28
3 10 28 11
3 11 28 29
3 11 29 12
3 12 29 30
3 12 30 13
3 13 30 31
3 13 31 14
3 14 31 32
3 14 32 15
3 15 32 33
3 15 33 16
3 16 33 17
3 16 17 0
3 17 34 35
3 17 35 18
3 18 35 36
3 18 36 19
3 19 36 37
3 19 37 20
3 20 37 38
3 20 38 21
3 21 38 39
3 21 39 22
3 22 39 40
3 22 40 23
3 23 40 41
3 23 41 24
3 24 41 42
3 24 42 25
3 25 42 43
3 25 43 26
3 26 43 44
3 26 44 27
3 27 44 45
3 27 45 28
3 28 45 46
3 28 46 29
3 29 46 47
3 29 47 30
3 30 47 48
3 30 48 31
3 31 48 49
3 31 49 32
3 32 49 50
3 32 50 33
3 33 50 34
3 33 34 17
3 34 51 52
3 34 52 35
3 35 52 53
3 35 53 36
3 36 53 54
3 36 54 37
3 37 54 55
3 37 55 38
3 38 55 56
3 38 56 39
3 39 56 57
3 39 57 40
3 40 57 58
3 40 58 41
3 41 58 59
3 41 59 42
3 42 59 60
3 42 60 43
3 43 60 61
3 43 61 44
3 44 61 62
3 44 62 45
3 45 62 63
3 45 63 46
3 46 63 64
3 46 64 47
3 47 64 65
3 47 65 48
3 48 65 66
3 48 66 49
3 49 66 67
3 49 67 50
3 50 67 51
3 50 51 34
3 51 68 69
3 51 69 52
3 52 69 70
3 52 70 53
3 53 70 71
3 53 71 54
3 54 71 72
3 54 72 55
3 55 72 73
3 55 73 56
3 56 73 74
3 56 74 57
3 57 74 75
3 57 75 58
3 58 75 76
3 58 76 59
3 59 76 77
3 59 77 60
3 60 77 78
3 60 78 61
3 61 78 79
3 61 79 62
3 62 79 80
3 62 80 63
3 63 80 81
3 63 81 64
3 64 81 82
3 64 82 65
3 65 82 83
3 65 83 66
3 66 83 84
3 66 84 67
3 67 84 68
3 67 68 51
3 68 85 86
3 68 86 69
3 69 86 87
3 69 87 70
3 70 87 88
3 70 88 71
3 71 88 89
3 71 89 72
3 72 89 90
3 72 90 73
3 73 90 91
3 73 91 74
3 74 91 92
3 74 92 75
3 75 92 93
3 75 93 76
3 76 93 94
3 76 94 77
3 77 94 95
3 77 95 78
3 78 95 96
3 78 96 79
3 79 96 97
3 79 97 80
3 80 97 98
3 80 98 81
3 81 98 99
3 81 99 82
3 82 99 100
3 82 100 83
3 83 100 101
3 83 101 84
3 84 101 85
3 84 85 68
3 85 102 103
3 85 103 86
3 86 103 104
3 86 104 87
3 87 104 105
3 87 105 88
3 88 105 106
3 88 106 89
3 89 106 107
3 89 107 90
3 90 107 108
3 90 108 91
3 91 108 109
3 91 109 92
3 92 109 110
3 92 110 93
3 93 110 111
3 93 111 94
3 94 111 112
3 94 112 95
3 95 112 113
3 95 113 96
3 96 113 114
3 96 114 97
3 97 114 115
3 97 115 98
3 98 115 116
3 98 116 99
3 99 116 117
3 99 117 100
3 100 117 118
3 100 118 101
3 101 118 102
3 101 102 85
3 102 119 120
3 102 120 103
3 103 120 121
3 103 121 104
3 104 121 122
3 104 122 105
3 105 122 123
3 105 123 106
3 106 123 124
3 106 124 107
3 107 124 125
3 107 125 108
3 108 125 126
3 108 126 109
3 109 126 127
3 109 127 110
3 110 127 128
3 110 128 111
3 111 128 129
3 111 129 112
3 112 129 130
3 112 130 113
3 113 130 131
3 113 131 114
3 114 131 132
3 114 132 115
3 115 132 133
3 115 133 116
3 116 133 134
3 116 134 117
3 117 134 135
3 117 135 118
3 118 135 119
3 118 119 102
3 119 136 137
3 119 137 120
3 120 137 138
3 120 138 121
3 121 138 139
3 121 139 122
3 122 139 140
3 122 140 123
3 123 140 141
3 123 141 124
3 124 141 142
3 124 142 125
3 125 142 143
3 125 143 126
3 126 143 144
3 126 144 127
3 127 144 145
3 127 145 128
3 128 145 146
3 128 146 129
3 129 146 147
3 129 147 130
3 130 147 148
3 130 148 131
3 131 148 149
3 131 149 132
3 132 149 150
3 132 150 133
3 133 150 151
3 133 151 134
3 134 151 152
3 134 152 135
3 135 152 136
3 135 136 119
3 136 153 154
3 136 154 137
3 137 154 155
3 137 155 138
3 138 155 156
3 138 156 139
3 139 156 157
3 139 157 140
3 140 157 158
3 140 158 141
3 141 158 159
3 141 159 142
3 142 159 160
3 142 160 143
3 143 160 161
3 143 161 144
3 144 161 162
3 144 162 145
3 145 162 163
3 145 163 146
3 146 163 164
3 146 164 147
3 147 164 165
3 147 165 148
3 148 165 166
3 148 166 149
3 149 166 167
3 149 167 150
3 150 167 168
3 150 168 151
3 151 168 169
3 151 169 152
3 152 169 153
3 152 153 136
3 153 170 171
3 153 171 154
3 154 171 172
3 154 172 155
3 155 172 173
3 155 173 156
3 156 173 174
3 156 174 157
3 157 174 175
3 157 175 158
3 158 175 176
3 158 176 159
3 159 176 177
3 159 177 160
3 160 177 178
3 160 178 161
3 161 178 179
3 161 179 162
3 162 179 180
3 162 180 163
3 163 180 181
3 163 181 164
3 164 181 182
3 164 182 165
3 165 182 183
3 165 183 166
3 166 183 184
3 166 184 167
3 167 184 185
3 167 185 168
3 168 185 186
3 168 186 169
3 169 186 170
3 169 170 153
CELL_TYPES 340
5
5
5
5
5
5
5
5
5
5
5
5
5
5
5
5
5
5
5
5
5
5
5
5
5
5
5
5
5
5
5
5
5
5
5
5
5
5
5
5
5
5
5
5
5
5
5
5
5
5
5
5
5
5
5
5
5
5
5
5
5
5
5
5
5
5
5
5
5
5
5
5
5
5
5
5
5
5
5
5
5
5
5
5
5
5
5
5
5
5
5
5
5
5
5
5
5
5
5
5
5
5
5
5
5
5
5
5
5
5
5
5
5
5
5
5
5
5
5
5
5
5
5
5
5
5
5
5
5
5
5
5
5
5
5
5
5
5
5
5
5
5
5
5
5
5
5
5
5
5
5
5
5
5
5
5
5
5
5
5
5
5
5
5
5
5
5
5
5
5
5
5
5
5
5
5
5
5
5
5
5
5
5
5
5
5
5
5
5
5
5
5
5
5
5
5
5
5
5
5
5
5
5
5
5
5
5
5
5
5
5
5
5
5
5
5
5
5
5
5
5
5
5
5
5
5
5
5
5
5
5
5
5
5
5
5
5
5
5
5
5
5
5
5
5
5
5
5
5
5
5
5
5
5
5
5
5
5
5
5
5
5
5
5
5
5
5
5
5
5
5
5
5
5
5
5
5
5
5
5
5
5
5
5
5
5
5
5
5
5
5
5
5
5
5
5
5
5
5
5
5
5
5
5
5
5
5
5
5
5
5
5
5
5
5
5
5
5
5
5
5
5
5
5
5
5
5
5
5
5
5
5
5
5
5
5
5
5
5
5
POINT_DATA 187
SCALARS psi double 1
LOOKUP_TABLE default
0.676156
0.589779
0.423749
0.200489
-0.0498477
-0.293452
-0.497425
-0.634217
-0.685355
-0.643931
-0.515542
-0.317525
-0.0766254
0.174623
0.402288
0.575622
0.671214
0.693036
0.603992
0.433375
0.204229
-0.0525001
-0.302138
-0.510971
-0.650795
-0.702725
-0.659748
-0.527668
-0.324324
-0.0771784
0.180391
0.413597
0.590945
0.688482
0.733745
0.63969
0.459241
0.216769
-0.0549793
-0.319302
-0.540501
-0.688702
-0.743891
-0.698613
-0.558983
-0.343859
-0.0822959
0.190382
0.437348
0.625248
0.728704
0.780987
0.68115
0.489319
0.231403
-0.0577653
-0.339132
-0.574697
-0.732646
-0.791647
-0.743732
-0.595372
-0.366603
-0.0883226
0.201886
0.464829
0.664994
0.775348
0.82825
0.722551
0.519268
0.245855
-0.0607623
-0.359173
-0.609076
-0.776719
-0.839463
-0.788832
-0.631665
-0.389188
-0.0941494
0.213605
0.492511
0.7049
0.822089
0.872171
0.760923
0.546908
0.259031
-0.0638303
-0.378071
-0.641251
-0.817826
-0.88395
-0.830691
-0.665243
-0.40995
-0.0992909
0.224778
0.518489
0.742175
0.865627
0.911032
0.794764
0.571159
0.270416
-0.0668488
-0.395085
-0.669962
-0.854358
-0.923368
-0.867671
-0.694791
-0.428076
-0.103546
0.234968
0.541748
0.775362
0.90426
0.943339
0.822837
0.591207
0.279731
-0.0695248
-0.40939
-0.693966
-0.884817
-0.956169
-0.898385
-0.719269
-0.443012
-0.106923
0.243605
0.561234
0.803065
0.936437
0.967657
0.843954
0.60627
0.286707
-0.0715783
-0.420196
-0.712064
-0.907764
-0.980866
-0.921496
-0.737672
-0.454223
-0.109427
0.250146
0.575937
0.823944
0.960672
0.98194
0.856346
0.615097
0.290776
-0.0728165
-0.426574
-0.722721
-0.92126
-0.995378
-0.935064
-0.748465
-0.460782
-0.110867
0.254021
0.584602
0.836229
0.974919
0.986647
0.860743
0.618591
0.292895
-0.0723585
-0.427839
-0.725538
-0.925249
-1
-0.939695
-0.75248
-0.463637
-0.112178
0.254431
0.586678
0.839691
0.979299
VECTORS Et double
0.165673 0.158324 0
0.42758 0.312775 0
0.517077 0.60336 0
0.38745 0.8784 0
0.106362 0.994327 0
-0.179465 0.890631 0
-0.320834 0.62144 0
-0.243954 0.327265 0
0.0110473 0.16166 0
0.311061 0.21107 0
0.499489 0.449702 0
0.477971 0.752996 0
0.257741 0.962636 0
-0.0462434 0.969195 0
-0.275309 0.76925 0
-0.309889 0.467165 0
-0.131932 0.220628 0
0.13938 0.23669 0
0.326648 0.348715 0
0.389573 0.557665 0
0.295304 0.754473 0
0.0930507 0.836407 0
-0.111615 0.7607 0
-0.211861 0.56687 0
-0.155363 0.356092 0
0.0283931 0.238388 0
0.243485 0.275199 0
0.377641 0.44731 0
0.360834 0.66488 0
0.201836 0.814344 0
-0.0163583 0.817683 0
-0.179855 0.673154 0
-0.203312 0.4562 0
-0.0744857 0.280065 0
0.120798 0.251439 0
0.269108 0.340326 0
0.318824 0.50593 0
0.244001 0.661807 0
0.0836913 0.726593 0
-0.0784251 0.666471 0
-0.157727 0.512822 0
-0.112819 0.345851 0
0.0328567 0.252711 0
0.203261 0.282021 0
0.309444 0.418481 0
0.295982 0.590862 0
0.169901 0.709184 0
-0.00298633 0.711685 0
-0.132436 0.597059 0
-0.150879 0.42514 0
-0.0486876 0.285665 0
0.108399 0.23704 0
0.238437 0.314581 0
0.282296 0.459489 0
0.217083 0.596127 0
0.0768396 0.653169 0
-0.0652315 0.600843 0
-0.134971 0.466461 0
-0.0959761 0.320167 0
0.031398 0.238326 0
0.180665 0.263656 0
0.273909 0.382936 0
0.26246 0.533904 0
0.152293 0.637756 0
0.000913304 0.640285 0
-0.112662 0.540169 0
-0.129148 0.389669 0
-0.0399391 0.267342 0
0.0999907 0.213528 0
0.221843 0.285739 0
0.263244 0.421194 0
0.202584 0.549189 0
0.071526 0.602911 0
-0.0615195 0.55432 0
-0.127105 0.428778 0
-0.0909975 0.291816 0
0.0279571 0.214927 0
0.167665 0.238244 0
0.255202 0.349597 0
0.244877 0.490861 0
0.142076 0.5883 0
0.000461586 0.591051 0
-0.106046 0.49768 0
-0.121853 0.356923 0
-0.038707 0.242254 0
0.0942183 0.190514 0
0.212499 0.260301 0
0.252898 0.391558 0
0.194323 0.515775 0
0.0673518 0.568111 0
-0.0617395 0.521248 0
-0.125567 0.399645 0
-0.090816 0.266782 0
0.0243775 0.192007 0
0.159882 0.214352 0
0.244967 0.322154 0
0.235222 0.459142 0
0.135729 0.553811 0
-0.00157402 0.556745 0
-0.105019 0.466414 0
-0.12061 0.329965 0
-0.0402061 0.218628 0
0.0900505 0.169609 0
0.207016 0.238498 0
0.247043 0.368206 0
0.18924 0.491029 0
0.0637776 0.542853 0
-0.0638536 0.496629 0
-0.127034 0.376486 0
-0.0927833 0.245132 0
0.0210197 0.171137 0
0.154972 0.193121 0
0.23915 0.299613 0
0.229621 0.43502 0
0.131352 0.528667 0
-0.0043584 0.53167 0
-0.106673 0.44246 0
-0.122186 0.307607 0
-0.0427975 0.197498 0
0.0868533 0.151395 0
0.203441 0.220101 0
0.243309 0.349419 0
0.185653 0.471846 0
0.0605663 0.523479 0
-0.0666587 0.477365 0
-0.129611 0.357576 0
-0.0954368 0.226639 0
0.0180352 0.1529 0
0.151567 0.174851 0
0.235462 0.281033 0
0.225926 0.416024 0
0.127936 0.509355 0
-0.0073564 0.512313 0
-0.109332 0.423353 0
-0.12476 0.288914 0
-0.0455879 0.179164 0
0.0843046 0.134107 0
0.201437 0.203287 0
0.241386 0.33332 0
0.183309 0.456332 0
0.0575162 0.508115 0
-0.0703303 0.461634 0
-0.133501 0.341157 0
-0.0990095 0.209567 0
0.0151245 0.135553 0
0.149337 0.157749 0
0.23356 0.26457 0
0.223846 0.400253 0
0.125253 0.493983 0
-0.0107515 0.496824 0
-0.113174 0.407299 0
-0.128555 0.272136 0
-0.0488599 0.16189 0
0.0822477 0.115676 0
0.201158 0.186317 0
0.241445 0.318627 0
0.182077 0.443543 0
0.0540491 0.495867 0
-0.0758151 0.448283 0
-0.139725 0.325629 0
-0.104325 0.191929 0
0.0119087 0.116968 0
0.148309 0.139881 0
0.233663 0.248704 0
0.223434 0.386634 0
0.122954 0.481671 0
-0.0153306 0.484212 0
-0.11923 0.392927 0
-0.134535 0.255469 0
-0.053211 0.143583 0
0.0806014 0.0957015 0
0.202495 0.168812 0
0.243286 0.304935 0
0.181751 0.433043 0
0.0499656 0.48625 0
-0.0832713 0.436785 0
-0.148412 0.310474 0
-0.111435 0.173242 0
0.00831275 0.0967213 0
0.14837 0.120862 0
0.23559 0.233061 0
0.224502 0.374746 0
0.120832 0.471962 0
-0.0212759 0.473971 0
-0.127645 0.379711 0
-0.142747 0.238391 0
-0.0587218 0.123787 0
