# vtk DataFile Version 3.0
tp3485 scalar+vector
ASCII
DATASET UNSTRUCTURED_GRID
POINTS 187 double
1 0 0
0.932472 0.361242 0
0.739009 0.673696 0
0.445738 0.895163 0
0.0922684 0.995734 0
-0.273663 0.961826 0
-0.602635 0.798017 0
-0.850217 0.526432 0
-0.982973 0.18375 0
-0.982973 -0.18375 0
-0.850217 -0.526432 0
-0.602635 -0.798017 0
-0.273663 -0.961826 0
0.0922684 -0.995734 0
0.445738 -0.895163 0
0.739009 -0.673696 0
0.932472 -0.361242 0
1.3 0 0
1.21221 0.469614 0
0.960712 0.875804 0
0.57946 1.16371 0
0.119949 1.29445 0
-0.355762 1.25037 0
-0.783425 1.03742 0
-1.10528 0.684362 0
-1.27787 0.238874 0
-1.27787 -0.238874 0
-1.10528 -0.684362 0
-0.783425 -1.03742 0
-0.355762 -1.25037 0
0.119949 -1.29445 0
0.57946 -1.16371 0
0.960712 -0.875804 0
1.21221 -0.469614 0
1.6 0 0
1.49196 0.577987 0
1.18241 1.07791 0
0.713181 1.43226 0
0.147629 1.59317 0
-0.437861 1.53892 0
-0.964215 1.27683 0
-1.36035 0.842291 0
-1.57276 0.293999 0
-1.57276 -0.293999 0
-1.36035 -0.842291 0
-0.964215 -1.27683 0
-0.437861 -1.53892 0
0.147629 -1.59317 0
0.713181 -1.43226 0
1.18241 -1.07791 0
1.49196 -0.577987 0
1.9 0 0
1.7717 0.686359 0
1.40412 1.28002 0
0.846903 1.70081 0
0.17531 1.89189 0
-0.51996 1.82747 0
-1.14501 1.51623 0
-1.61541 1.00022 0
-1.86765 0.349124 0
-1.86765 -0.349124 0
-1.61541 -1.00022 0
-1.14501 -1.51623 0
-0.51996 -1.82747 0
0.17531 -1.89189 0
0.846903 -1.70081 0
1.40412 -1.28002 0
1.7717 -0.686359 0
2.2 0 0
2.05144 0.794732 0
1.62582 1.48213 0
0.980624 1.96936 0
0.20299 2.19062 0
-0.602059 2.11602 0
-1.3258 1.75564 0
-1.87048 1.15815 0
-2.16254 0.404249 0
-2.16254 -0.404249 0
-1.87048 -1.15815 0
-1.3258 -1.75564 0
-0.602059 -2.11602 0
0.20299 -2.19062 0
0.980624 -1.96936 0
1.62582 -1.48213 0
2.05144 -0.794732 0
2.5 0 0
2.33118 0.903104 0
1.84752 1.68424 0
1.11435 2.23791 0
0.230671 2.48934 0
-0.684157 2.40456 0
-1.50659 1.99504 0
-2.12554 1.31608 0
-2.45743 0.459374 0
-2.45743 -0.459374 0
-2.12554 -1.31608 0
-1.50659 -1.99504 0
-0.684157 -2.40456 0
0.230671 -2.48934 0
1.11435 -2.23791 0
1.84752 -1.68424 0
2.33118 -0.903104 0
2.8 0 0
2.61092 1.01148 0
2.06922 1.88635 0
1.24807 2.50646 0
0.258351 2.78806 0
-0.766256 2.69311 0
-1.68738 2.23445 0
-2.38061 1.47401 0
-2.75232 0.514499 0
-2.75232 -0.514499 0
-2.38061 -1.47401 0
-1.68738 -2.23445 0
-0.766256 -2.69311 0
0.258351 -2.78806 0
1.24807 -2.50646 0
2.06922 -1.88635 0
2.61092 -1.01148 0
3.1 0 0
2.89066 1.11985 0
2.29093 2.08846 0
1.38179 2.77501 0
0.286032 3.08678 0
-0.848355 2.98166 0
-1.86817 2.47385 0
-2.63567 1.63194 0
-3.04722 0.569624 0
-3.04722 -0.569624 0
-2.63567 -1.63194 0
-1.86817 -2.47385 0
-0.848355 -2.98166 0
0.286032 -3.08678 0
1.38179 -2.77501 0
2.29093 -2.08846 0
2.89066 -1.11985 0
3.4 0 0
3.17041 1.22822 0
2.51263 2.29057 0
1.51551 3.04356 0
0.313712 3.3855 0
-0.930454 3.27021 0
-2.04896 2.71326 0
-2.89074 1.78987 0
-3.34211 0.624748 0
-3.34211 -0.624748 0
-2.89074 -1.78987 0
-2.04896 -2.71326 0
-0.930454 -3.27021 0
0.313712 -3.3855 0
1.51551 -3.04356 0
2.51263 -2.29057 0
3.17041 -1.22822 0
3.7 0 0
3.45015 1.33659 0
2.73433 2.49267 0
1.64923 3.3121 0
0.341393 3.68422 0
-1.01255 3.55875 0
-2.22975 2.95266 0
-3.1458 1.9478 0
-3.637 0.679873 0
-3.637 -0.679873 0
-3.1458 -1.9478 0
-2.22975 -2.95266 0
-1.01255 -3.55875 0
0.341393 -3.68422 0
1.64923 -3.3121 0
2.73433 -2.49267 0
3.45015 -1.33659 0
4 0 0
3.72989 1.44497 0
2.95604 2.69478 0
1.78295 3.58065 0
0.369073 3.98294 0
-1.09465 3.8473 0
-2.41054 3.19207 0
-3.40087 2.10573 0
-3.93189 0.734998 0
-3.93189 -0.734998 0
-3.40087 -2.10573 0
-2.41054 -3.19207 0
-1.09465 -3.8473 0
0.369073 -3.98294 0
1.78295 -3.58065 0
2.95604 -2.69478 0
3.72989 -1.44497 0
CELLS 340 1360
3 0 17 18
3 0 18 1
3 1 18 19
3 1 19 2
3 2 19 20
3 2 20 3
3 3 20 21
3 3 21 4
3 4 21 22
3 4 22 5
3 5 22 23
3 5 23 6
3 6 23 24
3 6 24 7
3 7 24 25
3 7 25 8
3 8 25 26
3 8 26 9
3 9 26 27
3 9 27 10
3 10 27 28
3 10 28 11
3 11 28 29
3 11 29 12
3 12 29 30
3 12 30 13
3 13 30 31
3 13 31 14
3 14 31 32
3 14 32 15
3 15 32 33
3 15 33 16
3 16 33 17
3 16 17 0
3 17 34 35
3 17 35 18
3 18 35 36
3 18 36 19
3 19 36 37
3 19 37 20
3 20 37 38
3 20 38 21
3 21 38 39
3 21 39 22
3 22 39 40
3 22 40 23
3 23 40 41
3 23 41 24
3 24 41 42
3 24 42 25
3 25 42 43
3 25 43 26
3 26 43 44
3 26 44 27
3 27 44 45
3 27 45 28
3 28 45 46
3 28 46 29
3 29 46 47
3 29 47 30
3 30 47 48
3 30 48 31
3 31 48 49
3 31 49 32
3 32 49 50
3 32 50 33
3 33 50 34
3 33 34 17
3 34 51 52
3 34 52 35
3 35 52 53
3 35 53 36
3 36 53 54
3 36 54 37
3 37 54 55
3 37 55 38
3 38 55 56
3 38 56 39
3 39 56 57
3 39 57 40
3 40 57 58
3 40 58 41
3 41 58 59
3 41 59 42
3 42 59 60
3 42 60 43
3 43 60 61
3 43 61 44
3 44 61 62
3 44 62 45
3 45 62 63
3 45 63 46
3 46 63 64
3 46 64 47
3 47 64 65
3 47 65 48
3 48 65 66
3 48 66 49
3 49 66 67
3 49 67 50
3 50 67 51
3 50 51 34
3 51 68 69
3 51 69 52
3 52 69 70
3 52 70 53
3 53 70 71
3 53 71 54
3 54 71 72
3 54 72 55
3 55 72 73
3 55 73 56
3 56 73 74
3 56 74 57
3 57 74 75
3 57 75 58
3 58 75 76
3 58 76 59
3 59 76 77
3 59 77 60
3 60 77 78
3 60 78 61
3 61 78 79
3 61 79 62
3 62 79 80
3 62 80 63
3 63 80 81
3 63 81 64
3 64 81 82
3 64 82 65
3 65 82 83
3 65 83 66
3 66 83 84
3 66 84 67
3 67 84 68
3 67 68 51
3 68 85 86
3 68 86 69
3 69 86 87
3 69 87 70
3 70 87 88
3 70 88 71
3 71 88 89
3 71 89 72
3 72 89 90
3 72 90 73
3 73 90 91
3 73 91 74
3 74 91 92
3 74 92 75
3 75 92 93
3 75 93 76
3 76 93 94
3 76 94 77
3 77 94 95
3 77 95 78
3 78 95 96
3 78 96 79
3 79 96 97
3 79 97 80
3 80 97 98
3 80 98 81
3 81 98 99
3 81 99 82
3 82 99 100
3 82 100 83
3 83 100 101
3 83 101 84
3 84 101 85
3 84 85 68
3 85 102 103
3 85 103 86
3 86 103 104
3 86 104 87
3 87 104 105
3 87 105 88
3 88 105 106
3 88 106 89
3 89 106 107
3 89 107 90
3 90 107 108
3 90 108 91
3 91 108 109
3 91 109 92
3 92 109 110
3 92 110 93
3 93 110 111
3 93 111 94
3 94 111 112
3 94 112 95
3 95 112 113
3 95 113 96
3 96 113 114
3 96 114 97
3 97 114 115
3 97 115 98
3 98 115 116
3 98 116 99
3 99 116 117
3 99 117 100
3 100 117 118
3 100 118 101
3 101 118 102
3 101 102 85
3 102 119 120
3 102 120 103
3 103 120 121
3 103 121 104
3 104 121 122
3 104 122 105
3 105 122 123
3 105 123 106
3 106 123 124
3 106 124 107
3 107 124 125
3 107 125 108
3 108 125 126
3 108 126 109
3 109 126 127
3 109 127 110
3 110 127 128
3 110 128 111
3 111 128 129
3 111 129 112
3 112 129 130
3 112 130 113
3 113 130 131
3 113 131 114
3 114 131 132
3 114 132 115
3 115 132 133
3 115 133 116
3 116 133 134
3 116 134 117
3 117 134 135
3 117 135 118
3 118 135 119
3 118 119 102
3 119 136 137
3 119 137 120
3 120 137 138
3 120 138 121
3 121 138 139
3 121 139 122
3 122 139 140
3 122 140 123
3 123 140 141
3 123 141 124
3 124 141 142
3 124 142 125
3 125 142 143
3 125 143 126
3 126 143 144
3 126 144 127
3 127 144 145
3 127 145 128
3 128 145 146
3 128 146 129
3 129 146 147
3 129 147 130
3 130 147 148
3 130 148 131
3 131 148 149
3 131 149 132
3 132 149 150
3 132 150 133
3 133 150 151
3 133 151 134
3 134 151 152
3 134 152 135
3 135 152 136
3 135 136 119
3 136 153 154
3 136 154 137
3 137 154 155
3 137 155 138
3 138 155 156
3 138 156 139
3 139 156 157
3 139 157 140
3 140 157 158
3 140 158 141
3 141 158 159
3 141 159 142
3 142 159 160
3 142 160 143
3 143 160 161
3 143 161 144
3 144 161 162
3 144 162 145
3 145 162 163
3 145 163 146
3 146 163 164
3 146 164 147
3 147 164 165
3 147 165 148
3 148 165 166
3 148 166 149
3 149 166 167
3 149 167 150
3 150 167 168
3 150 168 151
3 151 168 169
3 151 169 152
3 152 169 153
3 152 153 136
3 153 170 171
3 153 171 154
3 154 171 172
3 154 172 155
3 155 172 173
3 155 173 156
3 156 173 174
3 156 174 157
3 157 174 175
3 157 175 158
3 158 175 176
3 158 176 159
3 159 176 177
3 159 177 160
3 160 177 178
3 160 178 161
3 161 178 179
3 161 179 162
3 162 179 180
3 162 180 163
3 163 180 181
3 163 181 164
3 164 181 182
3 164 182 165
3 165 182 183
3 165 183 166
3 166 183 184
3 166 184 167
3 167 184 185
3 167 185 168
3 168 185 186
3 168 186 169
3 169 186 170
3 169 170 153
CELL_TYPES 340
5
5
5
5
5
5
5
5
5
5
5
5
5
5
5
5
5
5
5
5
5
5
5
5
5
5
5
5
5
5
5
5
5
5
5
5
5
5
5
5
5
5
5
5
5
5
5
5
5
5
5
5
5
5
5
5
5
5
5
5
5
5
5
5
5
5
5
5
5
5
5
5
5
5
5
5
5
5
5
5
5
5
5
5
5
5
5
5
5
5
5
5
5
5
5
5
5
5
5
5
5
5
5
5
5
5
5
5
5
5
5
5
5
5
5
5
5
5
5
5
5
5
5
5
5
5
5
5
5
5
5
5
5
5
5
5
5
5
5
5
5
5
5
5
5
5
5
5
5
5
5
5
5
5
5
5
5
5
5
5
5
5
5
5
5
5
5
5
5
5
5
5
5
5
5
5
5
5
5
5
5
5
5
5
5
5
5
5
5
5
5
5
5
5
5
5
5
5
5
5
5
5
5
5
5
5
5
5
5
5
5
5
5
5
5
5
5
5
5
5
5
5
5
5
5
5
5
5
5
5
5
5
5
5
5
5
5
5
5
5
5
5
5
5
5
5
5
5
5
5
5
5
5
5
5
5
5
5
5
5
5
5
5
5
5
5
5
5
5
5
5
5
5
5
5
5
5
5
5
5
5
5
5
5
5
5
5
5
5
5
5
5
5
5
5
5
5
5
5
5
5
5
5
5
5
5
5
5
5
5
5
5
5
5
5
5
5
5
5
5
5
5
5
5
5
5
5
5
5
5
5
5
5
5
5
5
5
5
5
5
POINT_DATA 187
SCALARS psi double 1
LOOKUP_TABLE default
-0.70416
-0.399433
-0.0407609
0.323416
0.643915
0.877448
0.992478
0.973468
0.822986
0.561355
0.22391
-0.143776
-0.492043
-0.773858
-0.951159
-1
-0.913786
-0.67142
-0.379531
-0.0363844
0.311676
0.617643
0.840194
0.949272
0.930146
0.785398
0.534578
0.21156
-0.14003
-0.472709
-0.741545
-0.910232
-0.955987
-0.87263
-0.598223
-0.338387
-0.0328494
0.277124
0.549671
0.747982
0.845273
0.828406
0.699658
0.476417
0.188833
-0.124253
-0.420559
-0.660065
-0.810426
-0.851335
-0.777266
-0.481555
-0.272774
-0.0271529
0.222135
0.441423
0.601094
0.679583
0.666292
0.563014
0.383698
0.152561
-0.0991799
-0.337526
-0.530287
-0.65143
-0.684594
-0.6253
-0.331696
-0.188219
-0.0193213
0.152185
0.303139
0.413151
0.467366
0.45846
0.387636
0.26446
0.105567
-0.0675828
-0.231606
-0.364349
-0.447885
-0.470931
-0.430376
-0.163576
-0.0930505
-0.00995796
0.0744794
0.148858
0.203132
0.229973
0.225754
0.191046
0.130536
0.0523964
-0.0328195
-0.113603
-0.179044
-0.220304
-0.23181
-0.21201
0.00666158
0.0035093
-0.000116922
-0.00372736
-0.00683439
-0.0090184
-0.00998443
-0.009602
-0.00792277
-0.00517353
-0.00172557
0.00195543
0.00537235
0.0080637
0.009666
0.00996285
0.00891417
0.160605
0.0909262
0.0089674
-0.0742025
-0.147351
-0.200599
-0.226755
-0.222286
-0.187797
-0.127944
-0.050812
0.0331826
0.112696
0.176988
0.217378
0.22841
0.208593
0.280801
0.159192
0.0160837
-0.129197
-0.257029
-0.350148
-0.395978
-0.388328
-0.328233
-0.223808
-0.0891561
0.0575364
0.196458
0.308847
0.379525
0.398946
0.364486
0.350222
0.198576
0.0201122
-0.161068
-0.320495
-0.436638
-0.49381
-0.484291
-0.409365
-0.279152
-0.111238
0.0716988
0.244953
0.385124
0.473283
0.497522
0.454568
0.36373
0.206459
0.0213049
-0.166727
-0.332241
-0.452884
-0.512363
-0.502644
-0.425041
-0.290033
-0.115855
0.0739704
0.253805
0.399363
0.490984
0.516295
0.471877
VECTORS Et double
-0.691777 0.336215 0
-0.901017 -0.142392 0
-0.73321 -0.63705 0
-0.27595 -0.889557 0
0.232081 -0.768108 0
0.525701 -0.336098 0
0.451646 0.180972 0
0.0485714 0.5132 0
-0.473127 0.48717 0
-0.84113 0.116468 0
-0.863348 -0.405406 0
-0.528181 -0.806042 0
-0.0105831 -0.876317 0
0.419269 -0.579546 0
0.537001 -0.070643 0
0.28116 0.384762 0
-0.214711 0.548947 0
-0.46522 0.49369 0
-0.659758 0.0435261 0
-0.500251 -0.420209 0
-0.0699568 -0.655453 0
0.406518 -0.539414 0
0.680461 -0.132661 0
0.60888 0.352487 0
0.22914 0.662793 0
-0.260545 0.636281 0
-0.604565 0.286791 0
-0.623349 -0.20325 0
-0.307091 -0.578049 0
0.179126 -0.641968 0
0.581507 -0.361642 0
0.690016 0.116605 0
0.448013 0.543133 0
-0.0181807 0.695306 0
-0.272972 0.633048 0
-0.457221 0.206314 0
-0.305892 -0.233175 0
0.102021 -0.456011 0
0.553597 -0.34588 0
0.813121 0.0397336 0
0.745127 0.499546 0
0.385103 0.793541 0
-0.0790204 0.768261 0
-0.404982 0.436902 0
-0.422634 -0.0275746 0
-0.122763 -0.382719 0
0.338103 -0.443153 0
0.719401 -0.17733 0
0.8221 0.275994 0
0.592593 0.680193 0
0.15068 0.824281 0
-0.132879 0.699789 0
-0.302767 0.307251 0
-0.163864 -0.0972911 0
0.211324 -0.302673 0
0.626957 -0.20169 0
0.866082 0.152948 0
0.803879 0.576126 0
0.472817 0.846951 0
0.0457055 0.824059 0
-0.254512 0.519399 0
-0.271126 0.0919975 0
0.00453382 -0.23505 0
0.428579 -0.291029 0
0.779666 -0.046721 0
0.874533 0.370351 0
0.663661 0.742482 0
0.257122 0.875427 0
-0.0392961 0.703558 0
-0.191296 0.353396 0
-0.0677229 -0.00777891 0
0.266921 -0.19144 0
0.637957 -0.101718 0
0.851711 0.214552 0
0.796608 0.592284 0
0.501409 0.834308 0
0.120205 0.814292 0
-0.148024 0.542684 0
-0.163267 0.161259 0
0.082433 -0.130887 0
0.460825 -0.181258 0
0.774395 0.036438 0
0.859465 0.408568 0
0.67163 0.740887 0
0.308936 0.85993 0
0.0215034 0.669492 0
-0.111371 0.364096 0
-0.00382307 0.0488878 0
0.28801 -0.111599 0
0.611797 -0.0335929 0
0.798526 0.242188 0
0.750727 0.571791 0
0.493354 0.78317 0
0.160746 0.765988 0
-0.0734784 0.529214 0
-0.0870587 0.19644 0
0.127094 -0.0586323 0
0.457195 -0.102859 0
0.730938 0.0868448 0
0.805435 0.411457 0
0.641796 0.701535 0
0.325443 0.805666 0
0.0609364 0.605738 0
-0.0509668 0.348974 0
0.0393168 0.0838344 0
0.284661 -0.0512829 0
0.557 0.0141516 0
0.714178 0.245982 0
0.674152 0.523198 0
0.457812 0.701095 0
0.178087 0.686817 0
-0.019014 0.487815 0
-0.0306066 0.207965 0
0.14936 -0.00665562 0
0.426946 -0.0440201 0
0.657257 0.115376 0
0.720075 0.388331 0
0.582608 0.632365 0
0.316615 0.720101 0
0.0866769 0.520234 0
-0.00250686 0.315824 0
0.0692956 0.10468 0
0.264605 -0.00298417 0
0.481474 0.0490303 0
0.606699 0.233573 0
0.574916 0.454315 0
0.402717 0.596036 0
0.179983 0.584755 0
0.0229794 0.426365 0
0.0136596 0.203541 0
0.156888 0.032593 0
0.377901 0.0027531 0
0.561335 0.129597 0
0.61144 0.346914 0
0.50206 0.541267 0
0.290295 0.61121 0
0.103508 0.419716 0
0.0383451 0.270505 0
0.0907111 0.116336 0
0.233273 0.0376845 0
0.391616 0.0756025 0
0.483086 0.210299 0
0.459939 0.371466 0
0.334258 0.474973 0
0.171644 0.466796 0
0.0569804 0.351201 0
0.0501182 0.188526 0
0.154641 0.0636858 0
0.315989 0.0418437 0
0.449941 0.134402 0
0.486578 0.293046 0
0.406773 0.434966 0
0.252187 0.486084 0
0.114307 0.309786 0
0.073844 0.217467 0
0.106138 0.121984 0
0.194327 0.0731717 0
0.292385 0.0965162 0
0.349123 0.17983 0
0.334926 0.279622 0
0.257206 0.343807 0
0.156528 0.338876 0
0.085448 0.267408 0
0.0810653 0.166707 0
0.145669 0.0893335 0
0.245538 0.0756794 0
0.328541 0.13287 0
0.351352 0.231052 0
0.302065 0.318982 0
0.206406 0.350749 0
0.120804 0.20102 0
0.103876 0.16318 0
0.116854 0.123803 0
0.152975 0.103455 0
0.193377 0.112749 0
0.216973 0.146835 0
0.211448 0.187926 0
0.179685 0.214564 0
0.138258 0.212852 0
0.1088 0.183681 0
0.10668 0.142277 0
0.133015 0.110256 0
0.174044 0.104326 0
0.208361 0.127588 0
0.218047 0.167895 0
0.198055 0.204208 0
0.158808 0.217579 0
