# vtk DataFile Version 3.0
tp3485 scalar+vector
ASCII
DATASET UNSTRUCTURED_GRID
POINTS 187 double
1 0 0
0.932472 0.361242 0
0.739009 0.673696 0
0.445738 0.895163 0
0.0922684 0.995734 0
-0.273663 0.961826 0
-0.602635 0.798017 0
-0.850217 0.526432 0
-0.982973 0.18375 0
-0.982973 -0.18375 0
-0.850217 -0.526432 0
-0.602635 -0.798017 0
-0.273663 -0.961826 0
0.0922684 -0.995734 0
0.445738 -0.895163 0
0.739009 -0.673696 0
0.932472 -0.361242 0
1.3 0 0
1.21221 0.469614 0
0.960712 0.875804 0
0.57946 1.16371 0
0.119949 1.29445 0
-0.355762 1.25037 0
-0.783425 1.03742 0
-1.10528 0.684362 0
-1.27787 0.238874 0
-1.27787 -0.238874 0
-1.10528 -0.684362 0
-0.783425 -1.03742 0
-0.355762 -1.25037 0
0.119949 -1.29445 0
0.57946 -1.16371 0
0.960712 -0.875804 0
1.21221 -0.469614 0
1.6 0 0
1.49196 0.577987 0
1.18241 1.07791 0
0.713181 1.43226 0
0.147629 1.59317 0
-0.437861 1.53892 0
-0.964215 1.27683 0
-1.36035 0.842291 0
-1.57276 0.293999 0
-1.57276 -0.293999 0
-1.36035 -0.842291 0
-0.964215 -1.27683 0
-0.437861 -1.53892 0
0.147629 -1.59317 0
0.713181 -1.43226 0
1.18241 -1.07791 0
1.49196 -0.577987 0
1.9 0 0
1.7717 0.686359 0
1.40412 1.28002 0
0.846903 1.70081 0
0.17531 1.89189 0
-0.51996 1.82747 0
-1.14501 1.51623 0
-1.61541 1.00022 0
-1.86765 0.349124 0
-1.86765 -0.349124 0
-1.61541 -1.00022 0
-1.14501 -1.51623 0
-0.51996 -1.82747 0
0.17531 -1.89189 0
0.846903 -1.70081 0
1.40412 -1.28002 0
1.7717 -0.686359 0
2.2 0 0
2.05144 0.794732 0
1.62582 1.48213 0
0.980624 1.96936 0
0.20299 2.19062 0
-0.602059 2.11602 0
-1.3258 1.75564 0
-1.87048 1.15815 0
-2.16254 0.404249 0
-2.16254 -0.404249 0
-1.87048 -1.15815 0
-1.3258 -1.75564 0
-0.602059 -2.11602 0
0.20299 -2.19062 0
0.980624 -1.96936 0
1.62582 -1.48213 0
2.05144 -0.794732 0
2.5 0 0
2.33118 0.903104 0
1.84752 1.68424 0
1.11435 2.23791 0
0.230671 2.48934 0
-0.684157 2.40456 0
-1.50659 1.99504 0
-2.12554 1.31608 0
-2.45743 0.459374 0
-2.45743 -0.459374 0
-2.12554 -1.31608 0
-1.50659 -1.99504 0
-0.684157 -2.40456 0
0.230671 -2.48934 0
1.11435 -2.23791 0
1.84752 -1.68424 0
2.33118 -0.903104 0
2.8 0 0
2.61092 1.01148 0
2.06922 1.88635 0
1.24807 2.50646 0
0.258351 2.78806 0
-0.766256 2.69311 0
-1.68738 2.23445 0
-2.38061 1.47401 0
-2.75232 0.514499 0
-2.75232 -0.514499 0
-2.38061 -1.47401 0
-1.68738 -2.23445 0
-0.766256 -2.69311 0
0.258351 -2.78806 0
1.24807 -2.50646 0
2.06922 -1.88635 0
2.61092 -1.01148 0
3.1 0 0
2.89066 1.11985 0
2.29093 2.08846 0
1.38179 2.77501 0
0.286032 3.08678 0
-0.848355 2.98166 0
-1.86817 2.47385 0
-2.63567 1.63194 0
-3.04722 0.569624 0
-3.04722 -0.569624 0
-2.63567 -1.63194 0
-1.86817 -2.47385 0
-0.848355 -2.98166 0
0.286032 -3.08678 0
1.38179 -2.77501 0
2.29093 -2.08846 0
2.89066 -1.11985 0
3.4 0 0
3.17041 1.22822 0
2.51263 2.29057 0
1.51551 3.04356 0
0.313712 3.3855 0
-0.930454 3.27021 0
-2.04896 2.71326 0
-2.89074 1.78987 0
-3.34211 0.624748 0
-3.34211 -0.624748 0
-2.89074 -1.78987 0
-2.04896 -2.71326 0
-0.930454 -3.27021 0
0.313712 -3.3855 0
1.51551 -3.04356 0
2.51263 -2.29057 0
3.17041 -1.22822 0
3.7 0 0
3.45015 1.33659 0
2.73433 2.49267 0
1.64923 3.3121 0
0.341393 3.68422 0
-1.01255 3.55875 0
-2.22975 2.95266 0
-3.1458 1.9478 0
-3.637 0.679873 0
-3.637 -0.679873 0
-3.1458 -1.9478 0
-2.22975 -2.95266 0
-1.01255 -3.55875 0
0.341393 -3.68422 0
1.64923 -3.3121 0
2.73433 -2.49267 0
3.45015 -1.33659 0
4 0 0
3.72989 1.44497 0
2.95604 2.69478 0
1.78295 3.58065 0
0.369073 3.98294 0
-1.09465 3.8473 0
-2.41054 3.19207 0
-3.40087 2.10573 0
-3.93189 0.734998 0
-3.93189 -0.734998 0
-3.40087 -2.10573 0
-2.41054 -3.19207 0
-1.09465 -3.8473 0
0.369073 -3.98294 0
1.78295 -3.58065 0
2.95604 -2.69478 0
3.72989 -1.44497 0
CELLS 340 1360
3 0 17 18
3 0 18 1
3 1 18 19
3 1 19 2
3 2 19 20
3 2 20 3
3 3 20 21
3 3 21 4
3 4 21 22
3 4 22 5
3 5 22 23
3 5 23 6
3 6 23 24
3 6 24 7
3 7 24 25
3 7 25 8
3 8 25 26
3 8 26 9
3 9 26 27
3 9 27 10
3 10 27 28
3 10 28 11
3 11 28 29
3 11 29 12
3 12 29 30
3 12 30 13
3 13 30 31
3 13 31 14
3 14 31 32
3 14 32 15
3 15 32 33
3 15 33 16
3 16 33 17
3 16 17 0
3 17 34 35
3 17 35 18
3 18 35 36
3 18 36 19
3 19 36 37
3 19 37 20
3 20 37 38
3 20 38 21
3 21 38 39
3 21 39 22
3 22 39 40
3 22 40 23
3 23 40 41
3 23 41 24
3 24 41 42
3 24 42 25
3 25 42 43
3 25 43 26
3 26 43 44
3 26 44 27
3 27 44 45
3 27 45 28
3 28 45 46
3 28 46 29
3 29 46 47
3 29 47 30
3 30 47 48
3 30 48 31
3 31 48 49
3 31 49 32
3 32 49 50
3 32 50 33
3 33 50 34
3 33 34 17
3 34 51 52
3 34 52 35
3 35 52 53
3 35 53 36
3 36 53 54
3 36 54 37
3 37 54 55
3 37 55 38
3 38 55 56
3 38 56 39
3 39 56 57
3 39 57 40
3 40 57 58
3 40 58 41
3 41 58 59
3 41 59 42
3 42 59 60
3 42 60 43
3 43 60 61
3 43 61 44
3 44 61 62
3 44 62 45
3 45 62 63
3 45 63 46
3 46 63 64
3 46 64 47
3 47 64 65
3 47 65 48
3 48 65 66
3 48 66 49
3 49 66 67
3 49 67 50
3 50 67 51
3 50 51 34
3 51 68 69
3 51 69 52
3 52 69 70
3 52 70 53
3 53 70 71
3 53 71 54
3 54 71 72
3 54 72 55
3 55 72 73
3 55 73 56
3 56 73 74
3 56 74 57
3 57 74 75
3 57 75 58
3 58 75 76
3 58 76 59
3 59 76 77
3 59 77 60
3 60 77 78
3 60 78 61
3 61 78 79
3 61 79 62
3 62 79 80
3 62 80 63
3 63 80 81
3 63 81 64
3 64 81 82
3 64 82 65
3 65 82 83
3 65 83 66
3 66 83 84
3 66 84 67
3 67 84 68
3 67 68 51
3 68 85 86
3 68 86 69
3 69 86 87
3 69 87 70
3 70 87 88
3 70 88 71
3 71 88 89
3 71 89 72
3 72 89 90
3 72 90 73
3 73 90 91
3 73 91 74
3 74 91 92
3 74 92 75
3 75 92 93
3 75 93 76
3 76 93 94
3 76 94 77
3 77 94 95
3 77 95 78
3 78 95 96
3 78 96 79
3 79 96 97
3 79 97 80
3 80 97 98
3 80 98 81
3 81 98 99
3 81 99 82
3 82 99 100
3 82 100 83
3 83 100 101
3 83 101 84
3 84 101 85
3 84 85 68
3 85 102 103
3 85 103 86
3 86 103 104
3 86 104 87
3 87 104 105
3 87 105 88
3 88 105 106
3 88 106 89
3 89 106 107
3 89 107 90
3 90 107 108
3 90 108 91
3 91 108 109
3 91 109 92
3 92 109 110
3 92 110 93
3 93 110 111
3 93 111 94
3 94 111 112
3 94 112 95
3 95 112 113
3 95 113 96
3 96 113 114
3 96 114 97
3 97 114 115
3 97 115 98
3 98 115 116
3 98 116 99
3 99 116 117
3 99 117 100
3 100 117 118
3 100 118 101
3 101 118 102
3 101 102 85
3 102 119 120
3 102 120 103
3 103 120 121
3 103 121 104
3 104 121 122
3 104 122 105
3 105 122 123
3 105 123 106
3 106 123 124
3 106 124 107
3 107 124 125
3 107 125 108
3 108 125 126
3 108 126 109
3 109 126 127
3 109 127 110
3 110 127 128
3 110 128 111
3 111 128 129
3 111 129 112
3 112 129 130
3 112 130 113
3 113 130 131
3 113 131 114
3 114 131 132
3 114 132 115
3 115 132 133
3 115 133 116
3 116 133 134
3 116 134 117
3 117 134 135
3 117 135 118
3 118 135 119
3 118 119 102
3 119 136 137
3 119 137 120
3 120 137 138
3 120 138 121
3 121 138 139
3 121 139 122
3 122 139 140
3 122 140 123
3 123 140 141
3 123 141 124
3 124 141 142
3 124 142 125
3 125 142 143
3 125 143 126
3 126 143 144
3 126 144 127
3 127 144 145
3 127 145 128
3 128 145 146
3 128 146 129
3 129 146 147
3 129 147 130
3 130 147 148
3 130 148 131
3 131 148 149
3 131 149 132
3 132 149 150
3 132 150 133
3 133 150 151
3 133 151 134
3 134 151 152
3 134 152 135
3 135 152 136
3 135 136 119
3 136 153 154
3 136 154 137
3 137 154 155
3 137 155 138
3 138 155 156
3 138 156 139
3 139 156 157
3 139 157 140
3 140 157 158
3 140 158 141
3 141 158 159
3 141 159 142
3 142 159 160
3 142 160 143
3 143 160 161
3 143 161 144
3 144 161 162
3 144 162 145
3 145 162 163
3 145 163 146
3 146 163 164
3 146 164 147
3 147 164 165
3 147 165 148
3 148 165 166
3 148 166 149
3 149 166 167
3 149 167 150
3 150 167 168
3 150 168 151
3 151 168 169
3 151 169 152
3 152 169 153
3 152 153 136
3 153 170 171
3 153 171 154
3 154 171 172
3 154 172 155
3 155 172 173
3 155 173 156
3 156 173 174
3 156 174 157
3 157 174 175
3 157 175 158
3 158 175 176
3 158 176 159
3 159 176 177
3 159 177 160
3 160 177 178
3 160 178 161
3 161 178 179
3 161 179 162
3 162 179 180
3 162 180 163
3 163 180 181
3 163 181 164
3 164 181 182
3 164 182 165
3 165 182 183
3 165 183 166
3 166 183 184
3 166 184 167
3 167 184 185
3 167 185 168
3 168 185 186
3 168 186 169
3 169 186 170
3 169 170 153
CELL_TYPES 340
5
5
5
5
5
5
5
5
5
5
5
5
5
5
5
5
5
5
5
5
5
5
5
5
5
5
5
5
5
5
5
5
5
5
5
5
5
5
5
5
5
5
5
5
5
5
5
5
5
5
5
5
5
5
5
5
5
5
5
5
5
5
5
5
5
5
5
5
5
5
5
5
5
5
5
5
5
5
5
5
5
5
5
5
5
5
5
5
5
5
5
5
5
5
5
5
5
5
5
5
5
5
5
5
5
5
5
5
5
5
5
5
5
5
5
5
5
5
5
5
5
5
5
5
5
5
5
5
5
5
5
5
5
5
5
5
5
5
5
5
5
5
5
5
5
5
5
5
5
5
5
5
5
5
5
5
5
5
5
5
5
5
5
5
5
5
5
5
5
5
5
5
5
5
5
5
5
5
5
5
5
5
5
5
5
5
5
5
5
5
5
5
5
5
5
5
5
5
5
5
5
5
5
5
5
5
5
5
5
5
5
5
5
5
5
5
5
5
5
5
5
5
5
5
5
5
5
5
5
5
5
5
5
5
5
5
5
5
5
5
5
5
5
5
5
5
5
5
5
5
5
5
5
5
5
5
5
5
5
5
5
5
5
5
5
5
5
5
5
5
5
5
5
5
5
5
5
5
5
5
5
5
5
5
5
5
5
5
5
5
5
5
5
5
5
5
5
5
5
5
5
5
5
5
5
5
5
5
5
5
5
5
5
5
5
5
5
5
5
5
5
5
5
5
5
5
5
5
5
5
5
5
5
5
5
5
5
5
5
5
POINT_DATA 187
SCALARS psi double 1
LOOKUP_TABLE default
-0.0512903
-0.0971928
-0.0353549
0.0656748
0.0939024
0.0180371
-0.0778228
-0.0874143
-0.000104985
0.0873207
0.0779493
-0.0178307
-0.093845
-0.0658299
0.0351591
0.0971735
0.0514688
-0.0651822
-0.124383
-0.0457026
0.0836405
0.120266
0.023574
-0.0992505
-0.112053
-0.000642553
0.111481
0.100025
-0.0223107
-0.119914
-0.0845902
0.0445042
0.124265
0.0662748
-0.0997826
-0.192692
-0.0719979
0.128508
0.186559
0.0378058
-0.152856
-0.174074
-0.00232628
0.172
0.15566
-0.0332325
-0.185286
-0.131946
0.0676596
0.192263
0.103738
-0.147304
-0.286996
-0.108546
0.19023
0.278132
0.0577179
-0.226678
-0.259796
-0.00492419
0.255406
0.232613
-0.0480372
-0.275437
-0.197508
0.0993627
0.286088
0.155678
-0.203846
-0.399353
-0.152168
0.263699
0.387249
0.0815247
-0.314572
-0.361958
-0.00810544
0.354733
0.324341
-0.0655899
-0.382813
-0.275679
0.137052
0.397857
0.217629
-0.265757
-0.52247
-0.200012
0.344163
0.506826
0.10766
-0.410849
-0.473923
-0.0116417
0.463544
0.424881
-0.0847731
-0.500454
-0.36137
0.178301
0.520321
0.285553
-0.33016
-0.650245
-0.249518
0.427806
0.630897
0.134624
-0.510882
-0.590064
-0.0151457
0.576562
0.529137
-0.104848
-0.622607
-0.450191
0.221272
0.64745
0.355915
-0.392818
-0.774406
-0.297547
0.50915
0.751442
0.160743
-0.608143
-0.702889
-0.0184658
0.686427
0.6304
-0.124441
-0.741335
-0.536443
0.263109
0.770998
0.424218
-0.448258
-0.884246
-0.340027
0.58112
0.858081
0.18384
-0.694192
-0.802696
-0.0213925
0.783625
0.719976
-0.141783
-0.846373
-0.612738
0.300131
0.880298
0.484634
-0.487748
-0.962519
-0.370315
0.632391
0.934077
0.200317
-0.755499
-0.873827
-0.0234972
0.85288
0.78382
-0.154123
-0.921217
-0.66712
0.326494
0.958182
0.527703
-0.504572
-1
-0.386905
0.655083
0.970896
0.210448
-0.783287
-0.90873
-0.0268252
0.884816
0.815618
-0.157712
-0.956214
-0.694731
0.336878
0.99505
0.550186
VECTORS Et double
0.342643 -0.101602 0
0.0419226 -0.200566 0
-0.222225 -0.308978 0
-0.25133 -0.208435 0
-0.185731 0.123845 0
-0.148963 0.366492 0
-0.0211635 0.290288 0
0.245912 0.0640099 0
0.395014 -0.0678646 0
0.211613 -0.142179 0
-0.115943 -0.266009 0
-0.262884 -0.295956 0
-0.216747 -0.0559876 0
-0.167257 0.279477 0
-0.10658 0.365856 0
0.105469 0.175949 0
0.356251 -0.0183402 0
0.454972 -0.173181 0
0.0860935 -0.335599 0
-0.273256 -0.429781 0
-0.378461 -0.255257 0
-0.320006 0.167636 0
-0.212279 0.479902 0
0.018414 0.422272 0
0.359503 0.145315 0
0.522925 -0.0878978 0
0.295224 -0.25425 0
-0.118371 -0.403614 0
-0.35788 -0.384633 0
-0.358066 -0.0569676 0
-0.273955 0.362682 0
-0.118295 0.496593 0
0.188535 0.291248 0
0.484905 0.0155316 0
0.578645 -0.216083 0
0.109391 -0.418568 0
-0.347469 -0.542861 0
-0.476849 -0.327538 0
-0.399854 0.209429 0
-0.268099 0.60863 0
0.0177202 0.534212 0
0.450853 0.180619 0
0.663418 -0.111389 0
0.375854 -0.316166 0
-0.151058 -0.506406 0
-0.453247 -0.489172 0
-0.448773 -0.0765955 0
-0.342988 0.458659 0
-0.152779 0.629759 0
0.23266 0.366419 0
0.612574 0.0170505 0
0.680368 -0.23524 0
0.116945 -0.45674 0
-0.416977 -0.626533 0
-0.538983 -0.396355 0
-0.434346 0.240874 0
-0.307342 0.716378 0
-0.00292681 0.611142 0
0.510505 0.184731 0
0.778767 -0.131702 0
0.436969 -0.339131 0
-0.191788 -0.568514 0
-0.527741 -0.578119 0
-0.493794 -0.101187 0
-0.377366 0.539636 0
-0.19073 0.734506 0
0.247339 0.40459 0
0.711099 0.00166579 0
0.750539 -0.239471 0
0.115717 -0.46625 0
-0.469642 -0.67898 0
-0.571372 -0.44906 0
-0.44071 0.260872 0
-0.330644 0.791721 0
-0.0283846 0.655778 0
0.542947 0.173656 0
0.858186 -0.146296 0
0.476253 -0.339358 0
-0.227581 -0.598771 0
-0.576936 -0.641096 0
-0.508341 -0.122906 0
-0.388534 0.59658 0
-0.222235 0.804096 0
0.245356 0.417734 0
0.775381 -0.0182487 0
0.796736 -0.242544 0
0.115021 -0.472711 0
-0.50435 -0.713428 0
-0.592968 -0.483627 0
-0.445088 0.27402 0
-0.345846 0.841337 0
-0.0449065 0.685357 0
0.564347 0.166501 0
0.910419 -0.156083 0
0.502189 -0.339802 0
-0.251072 -0.618745 0
-0.609498 -0.68241 0
-0.518199 -0.137148 0
-0.395912 0.634033 0
-0.242738 0.850021 0
0.244205 0.426599 0
0.817663 -0.0313744 0
0.826506 -0.249483 0
0.118164 -0.486037 0
-0.524122 -0.738422 0
-0.612656 -0.503042 0
-0.457429 0.283333 0
-0.357634 0.872714 0
-0.0494158 0.70908 0
0.582809 0.16952 0
0.944105 -0.162119 0
0.520525 -0.34864 0
-0.261943 -0.63842 0
-0.631704 -0.708088 0
-0.53361 -0.143781 0
-0.407476 0.657494 0
-0.252986 0.881083 0
0.250034 0.439574 0
0.84683 -0.0347635 0
0.845006 -0.262026 0
0.126146 -0.509687 0
-0.53199 -0.758703 0
-0.634497 -0.510337 0
-0.481085 0.290525 0
-0.368388 0.89118 0
-0.041974 0.731586 0
0.602135 0.184225 0
0.9651 -0.165319 0
0.534634 -0.368425 0
-0.261517 -0.662103 0
-0.647478 -0.722523 0
-0.558345 -0.143644 0
-0.426149 0.670933 0
-0.254465 0.902803 0
0.264663 0.459802 0
0.8682 -0.0282924 0
0.855826 -0.27479 0
0.135003 -0.534068 0
-0.533368 -0.773973 0
-0.653697 -0.511428 0
-0.505964 0.295652 0
-0.377264 0.901169 0
-0.0307345 0.750006 0
0.61884 0.201754 0
0.97744 -0.166553 0
0.544753 -0.389686 0
-0.256205 -0.683919 0
-0.657839 -0.730052 0
-0.583155 -0.140697 0
-0.445137 0.677941 0
-0.252186 0.917052 0
0.280723 0.47999 0
0.882966 -0.0184027 0
0.861409 -0.277742 0
0.138012 -0.542291 0
-0.534345 -0.781431 0
-0.659862 -0.513873 0
-0.514602 0.297782 0
-0.382224 0.906124 0
-0.0286307 0.756773 0
0.625411 0.207739 0
0.983983 -0.165881 0
0.549148 -0.395866 0
-0.254942 -0.692548 0
-0.661422 -0.735207 0
-0.591216 -0.140616 0
-0.452692 0.681639 0
-0.25364 0.923059 0
0.285646 0.486885 0
0.889967 -0.0145521 0
0.863335 -0.262327 0
0.129179 -0.519245 0
-0.540122 -0.777776 0
-0.643805 -0.523816 0
-0.491317 0.295912 0
-0.380833 0.908597 0
-0.0467388 0.744976 0
0.614798 0.189332 0
0.986514 -0.163678 0
0.545992 -0.372466 0
-0.265472 -0.677441 0
-0.656965 -0.741228 0
-0.567598 -0.148226 0
-0.437959 0.684352 0
-0.264844 0.919762 0
0.26834 0.468594 0
0.887518 -0.0253389 0
