# vtk DataFile Version 3.0
tp3485 scalar+vector
ASCII
DATASET UNSTRUCTURED_GRID
POINTS 187 double
1 0 0
0.932472 0.361242 0
0.739009 0.673696 0
0.445738 0.895163 0
0.0922684 0.995734 0
-0.273663 0.961826 0
-0.602635 0.798017 0
-0.850217 0.526432 0
-0.982973 0.18375 0
-0.982973 -0.18375 0
-0.850217 -0.526432 0
-0.602635 -0.798017 0
-0.273663 -0.961826 0
0.0922684 -0.995734 0
0.445738 -0.895163 0
0.739009 -0.673696 0
0.932472 -0.361242 0
1.3 0 0
1.21221 0.469614 0
0.960712 0.875804 0
0.57946 1.16371 0
0.119949 1.29445 0
-0.355762 1.25037 0
-0.783425 1.03742 0
-1.10528 0.684362 0
-1.27787 0.238874 0
-1.27787 -0.238874 0
-1.10528 -0.684362 0
-0.783425 -1.03742 0
-0.355762 -1.25037 0
0.119949 -1.29445 0
0.57946 -1.16371 0
0.960712 -0.875804 0
1.21221 -0.469614 0
1.6 0 0
1.49196 0.577987 0
1.18241 1.07791 0
0.713181 1.43226 0
0.147629 1.59317 0
-0.437861 1.53892 0
-0.964215 1.27683 0
-1.36035 0.842291 0
-1.57276 0.293999 0
-1.57276 -0.293999 0
-1.36035 -0.842291 0
-0.964215 -1.27683 0
-0.437861 -1.53892 0
0.147629 -1.59317 0
0.713181 -1.43226 0
1.18241 -1.07791 0
1.49196 -0.577987 0
1.9 0 0
1.7717 0.686359 0
1.40412 1.28002 0
0.846903 1.70081 0
0.17531 1.89189 0
-0.51996 1.82747 0
-1.14501 1.51623 0
-1.61541 1.00022 0
-1.86765 0.349124 0
-1.86765 -0.349124 0
-1.61541 -1.00022 0
-1.14501 -1.51623 0
-0.51996 -1.82747 0
0.17531 -1.89189 0
0.846903 -1.70081 0
1.40412 -1.28002 0
1.7717 -0.686359 0
2.2 0 0
2.05144 0.794732 0
1.62582 1.48213 0
0.980624 1.96936 0
0.20299 2.19062 0
-0.602059 2.11602 0
-1.3258 1.75564 0
-1.87048 1.15815 0
-2.16254 0.404249 0
-2.16254 -0.404249 0
-1.87048 -1.15815 0
-1.3258 -1.75564 0
-0.602059 -2.11602 0
0.20299 -2.19062 0
0.980624 -1.96936 0
1.62582 -1.48213 0
2.05144 -0.794732 0
2.5 0 0
2.33118 0.903104 0
1.84752 1.68424 0
1.11435 2.23791 0
0.230671 2.48934 0
-0.684157 2.40456 0
-1.50659 1.99504 0
-2.12554 1.31608 0
-2.45743 0.459374 0
-2.45743 -0.459374 0
-2.12554 -1.31608 0
-1.50659 -1.99504 0
-0.684157 -2.40456 0
0.230671 -2.48934 0
1.11435 -2.23791 0
1.84752 -1.68424 0
2.33118 -0.903104 0
2.8 0 0
2.61092 1.01148 0
2.06922 1.88635 0
1.24807 2.50646 0
0.258351 2.78806 0
-0.766256 2.69311 0
-1.68738 2.23445 0
-2.38061 1.47401 0
-2.75232 0.514499 0
-2.75232 -0.514499 0
-2.38061 -1.47401 0
-1.68738 -2.23445 0
-0.766256 -2.69311 0
0.258351 -2.78806 0
1.24807 -2.50646 0
2.06922 -1.88635 0
2.61092 -1.01148 0
3.1 0 0
2.89066 1.11985 0
2.29093 2.08846 0
1.38179 2.77501 0
0.286032 3.08678 0
-0.848355 2.98166 0
-1.86817 2.47385 0
-2.63567 1.63194 0
-3.04722 0.569624 0
-3.04722 -0.569624 0
-2.63567 -1.63194 0
-1.86817 -2.47385 0
-0.848355 -2.98166 0
0.286032 -3.08678 0
1.38179 -2.77501 0
2.29093 -2.08846 0
2.89066 -1.11985 0
3.4 0 0
3.17041 1.22822 0
2.51263 2.29057 0
1.51551 3.04356 0
0.313712 3.3855 0
-0.930454 3.27021 0
-2.04896 2.71326 0
-2.89074 1.78987 0
-3.34211 0.624748 0
-3.34211 -0.624748 0
-2.89074 -1.78987 0
-2.04896 -2.71326 0
-0.930454 -3.27021 0
0.313712 -3.3855 0
1.51551 -3.04356 0
2.51263 -2.29057 0
3.17041 -1.22822 0
3.7 0 0
3.45015 1.33659 0
2.73433 2.49267 0
1.64923 3.3121 0
0.341393 3.68422 0
-1.01255 3.55875 0
-2.22975 2.95266 0
-3.1458 1.9478 0
-3.637 0.679873 0
-3.637 -0.679873 0
-3.1458 -1.9478 0
-2.22975 -2.95266 0
-1.01255 -3.55875 0
0.341393 -3.68422 0
1.64923 -3.3121 0
2.73433 -2.49267 0
3.45015 -1.33659 0
4 0 0
3.72989 1.44497 0
2.95604 2.69478 0
1.78295 3.58065 0
0.369073 3.98294 0
-1.09465 3.8473 0
-2.41054 3.19207 0
-3.40087 2.10573 0
-3.93189 0.734998 0
-3.93189 -0.734998 0
-3.40087 -2.10573 0
-2.41054 -3.19207 0
-1.09465 -3.8473 0
0.369073 -3.98294 0
1.78295 -3.58065 0
2.95604 -2.69478 0
3.72989 -1.44497 0
CELLS 340 1360
3 0 17 18
3 0 18 1
3 1 18 19
3 1 19 2
3 2 19 20
3 2 20 3
3 3 20 21
3 3 21 4
3 4 21 22
3 4 22 5
3 5 22 23
3 5 23 6
3 6 23 24
3 6 24 7
3 7 24 25
3 7 25 8
3 8 25 26
3 8 26 9
3 9 26 27
3 9 27 10
3 10 27 28
3 10 28 11
3 11 28 29
3 11 29 12
3 12 29 30
3 12 30 13
3 13 30 31
3 13 31 14
3 14 31 32
3 14 32 15
3 15 32 33
3 15 33 16
3 16 33 17
3 16 17 0
3 17 34 35
3 17 35 18
3 18 35 36
3 18 36 19
3 19 36 37
3 19 37 20
3 20 37 38
3 20 38 21
3 21 38 39
3 21 39 22
3 22 39 40
3 22 40 23
3 23 40 41
3 23 41 24
3 24 41 42
3 24 42 25
3 25 42 43
3 25 43 26
3 26 43 44
3 26 44 27
3 27 44 45
3 27 45 28
3 28 45 46
3 28 46 29
3 29 46 47
3 29 47 30
3 30 47 48
3 30 48 31
3 31 48 49
3 31 49 32
3 32 49 50
3 32 50 33
3 33 50 34
3 33 34 17
3 34 51 52
3 34 52 35
3 35 52 53
3 35 53 36
3 36 53 54
3 36 54 37
3 37 54 55
3 37 55 38
3 38 55 56
3 38 56 39
3 39 56 57
3 39 57 40
3 40 57 58
3 40 58 41
3 41 58 59
3 41 59 42
3 42 59 60
3 42 60 43
3 43 60 61
3 43 61 44
3 44 61 62
3 44 62 45
3 45 62 63
3 45 63 46
3 46 63 64
3 46 64 47
3 47 64 65
3 47 65 48
3 48 65 66
3 48 66 49
3 49 66 67
3 49 67 50
3 50 67 51
3 50 51 34
3 51 68 69
3 51 69 52
3 52 69 70
3 52 70 53
3 53 70 71
3 53 71 54
3 54 71 72
3 54 72 55
3 55 72 73
3 55 73 56
3 56 73 74
3 56 74 57
3 57 74 75
3 57 75 58
3 58 75 76
3 58 76 59
3 59 76 77
3 59 77 60
3 60 77 78
3 60 78 61
3 61 78 79
3 61 79 62
3 62 79 80
3 62 80 63
3 63 80 81
3 63 81 64
3 64 81 82
3 64 82 65
3 65 82 83
3 65 83 66
3 66 83 84
3 66 84 67
3 67 84 68
3 67 68 51
3 68 85 86
3 68 86 69
3 69 86 87
3 69 87 70
3 70 87 88
3 70 88 71
3 71 88 89
3 71 89 72
3 72 89 90
3 72 90 73
3 73 90 91
3 73 91 74
3 74 91 92
3 74 92 75
3 75 92 93
3 75 93 76
3 76 93 94
3 76 94 77
3 77 94 95
3 77 95 78
3 78 95 96
3 78 96 79
3 79 96 97
3 79 97 80
3 80 97 98
3 80 98 81
3 81 98 99
3 81 99 82
3 82 99 100
3 82 100 83
3 83 100 101
3 83 101 84
3 84 101 85
3 84 85 68
3 85 102 103
3 85 103 86
3 86 103 104
3 86 104 87
3 87 104 105
3 87 105 88
3 88 105 106
3 88 106 89
3 89 106 107
3 89 107 90
3 90 107 108
3 90 108 91
3 91 108 109
3 91 109 92
3 92 109 110
3 92 110 93
3 93 110 111
3 93 111 94
3 94 111 112
3 94 112 95
3 95 112 113
3 95 113 96
3 96 113 114
3 96 114 97
3 97 114 115
3 97 115 98
3 98 115 116
3 98 116 99
3 99 116 117
3 99 117 100
3 100 117 118
3 100 118 101
3 101 118 102
3 101 102 85
3 102 119 120
3 102 120 103
3 103 120 121
3 103 121 104
3 104 121 122
3 104 122 105
3 105 122 123
3 105 123 106
3 106 123 124
3 106 124 107
3 107 124 125
3 107 125 108
3 108 125 126
3 108 126 109
3 109 126 127
3 109 127 110
3 110 127 128
3 110 128 111
3 111 128 129
3 111 129 112
3 112 129 130
3 112 130 113
3 113 130 131
3 113 131 114
3 114 131 132
3 114 132 115
3 115 132 133
3 115 133 116
3 116 133 134
3 116 134 117
3 117 134 135
3 117 135 118
3 118 135 119
3 118 119 102
3 119 136 137
3 119 137 120
3 120 137 138
3 120 138 121
3 121 138 139
3 121 139 122
3 122 139 140
3 122 140 123
3 123 140 141
3 123 141 124
3 124 141 142
3 124 142 125
3 125 142 143
3 125 143 126
3 126 143 144
3 126 144 127
3 127 144 145
3 127 145 128
3 128 145 146
3 128 146 129
3 129 146 147
3 129 147 130
3 130 147 148
3 130 148 131
3 131 148 149
3 131 149 132
3 132 149 150
3 132 150 133
3 133 150 151
3 133 151 134
3 134 151 152
3 134 152 135
3 135 152 136
3 135 136 119
3 136 153 154
3 136 154 137
3 137 154 155
3 137 155 138
3 138 155 156
3 138 156 139
3 139 156 157
3 139 157 140
3 140 157 158
3 140 158 141
3 141 158 159
3 141 159 142
3 142 159 160
3 142 160 143
3 143 160 161
3 143 161 144
3 144 161 162
3 144 162 145
3 145 162 163
3 145 163 146
3 146 163 164
3 146 164 147
3 147 164 165
3 147 165 148
3 148 165 166
3 148 166 149
3 149 166 167
3 149 167 150
3 150 167 168
3 150 168 151
3 151 168 169
3 151 169 152
3 152 169 153
3 152 153 136
3 153 170 171
3 153 171 154
3 154 171 172
3 154 172 155
3 155 172 173
3 155 173 156
3 156 173 174
3 156 174 157
3 157 174 175
3 157 175 158
3 158 175 176
3 158 176 159
3 159 176 177
3 159 177 160
3 160 177 178
3 160 178 161
3 161 178 179
3 161 179 162
3 162 179 180
3 162 180 163
3 163 180 181
3 163 181 164
3 164 181 182
3 164 182 165
3 165 182 183
3 165 183 166
3 166 183 184
3 166 184 167
3 167 184 185
3 167 185 168
3 168 185 186
3 168 186 169
3 169 186 170
3 169 170 153
CELL_TYPES 340
5
5
5
5
5
5
5
5
5
5
5
5
5
5
5
5
5
5
5
5
5
5
5
5
5
5
5
5
5
5
5
5
5
5
5
5
5
5
5
5
5
5
5
5
5
5
5
5
5
5
5
5
5
5
5
5
5
5
5
5
5
5
5
5
5
5
5
5
5
5
5
5
5
5
5
5
5
5
5
5
5
5
5
5
5
5
5
5
5
5
5
5
5
5
5
5
5
5
5
5
5
5
5
5
5
5
5
5
5
5
5
5
5
5
5
5
5
5
5
5
5
5
5
5
5
5
5
5
5
5
5
5
5
5
5
5
5
5
5
5
5
5
5
5
5
5
5
5
5
5
5
5
5
5
5
5
5
5
5
5
5
5
5
5
5
5
5
5
5
5
5
5
5
5
5
5
5
5
5
5
5
5
5
5
5
5
5
5
5
5
5
5
5
5
5
5
5
5
5
5
5
5
5
5
5
5
5
5
5
5
5
5
5
5
5
5
5
5
5
5
5
5
5
5
5
5
5
5
5
5
5
5
5
5
5
5
5
5
5
5
5
5
5
5
5
5
5
5
5
5
5
5
5
5
5
5
5
5
5
5
5
5
5
5
5
5
5
5
5
5
5
5
5
5
5
5
5
5
5
5
5
5
5
5
5
5
5
5
5
5
5
5
5
5
5
5
5
5
5
5
5
5
5
5
5
5
5
5
5
5
5
5
5
5
5
5
5
5
5
5
5
5
5
5
5
5
5
5
5
5
5
5
5
5
5
5
5
5
5
5
POINT_DATA 187
SCALARS psi double 1
LOOKUP_TABLE default
-0.082887
0.00888483
0.0908076
0.072068
-0.0265606
-0.0957462
-0.0587949
0.0433319
0.0974243
0.0435196
-0.0586276
-0.0957847
-0.0267622
0.0719268
0.0908833
0.00909353
-0.0827766
-0.106302
0.010861
0.115985
0.0925366
-0.0334904
-0.122392
-0.0756197
0.0549793
0.124632
0.0561276
-0.074596
-0.122628
-0.0347242
0.0916724
0.116448
0.0121383
-0.105627
-0.165276
0.0154914
0.179086
0.14416
-0.0505712
-0.189243
-0.118134
0.0839288
0.192955
0.0880861
-0.114428
-0.190096
-0.0550381
0.141031
0.180764
0.0201158
-0.162831
-0.246815
0.02161
0.26608
0.215594
-0.0738828
-0.281459
-0.177031
0.12364
0.287253
0.13244
-0.169186
-0.283265
-0.0833382
0.208971
0.269631
0.0313987
-0.24164
-0.344001
0.0288135
0.369688
0.300755
-0.101572
-0.391304
-0.247266
0.170872
0.399594
0.185357
-0.234353
-0.394277
-0.117136
0.289853
0.375533
0.0449263
-0.335483
-0.450517
0.0366564
0.483195
0.394101
-0.131863
-0.511654
-0.324264
0.22258
0.522689
0.243385
-0.305717
-0.515925
-0.154218
0.378443
0.491591
0.0597989
-0.438282
-0.560989
0.0449626
0.601072
0.490879
-0.163465
-0.636604
-0.404053
0.2764
0.650457
0.303467
-0.379923
-0.64216
-0.192548
0.470509
0.611995
0.0750707
-0.545071
-0.668298
0.0531189
0.715653
0.584869
-0.194256
-0.758043
-0.481522
0.328777
0.77462
0.361778
-0.452103
-0.764817
-0.229714
0.560033
0.72897
0.0898269
-0.648891
-0.763225
0.0603447
0.817021
0.668011
-0.221505
-0.865477
-0.550048
0.375123
0.884461
0.413354
-0.515966
-0.873325
-0.262583
0.639238
0.832449
0.102871
-0.740742
-0.83088
0.0654748
0.889249
0.72727
-0.240905
-0.942031
-0.598894
0.408131
0.962733
0.450123
-0.561459
-0.950651
-0.286024
0.695667
0.906195
0.112185
-0.806185
-0.864313
0.0656056
0.922799
0.757048
-0.247908
-0.978053
-0.624003
0.421769
1
0.469708
-0.581266
-0.987893
-0.299418
0.720969
0.942145
0.118931
-0.836121
VECTORS Et double
-0.208242 -0.175553 0
-0.377699 -0.132534 0
-0.235668 0.0382203 0
-0.018379 0.308276 0
0.085355 0.380867 0
0.169566 0.128657 0
0.293034 -0.177411 0
0.262091 -0.262424 0
-0.033695 -0.200051 0
-0.334067 -0.159785 0
-0.336118 -0.0698683 0
-0.117675 0.176819 0
0.0465612 0.387165 0
0.120109 0.285442 0
0.234342 -0.0415249 0
0.311716 -0.250913 0
0.138769 -0.235381 0
-0.272767 -0.298608 0
-0.501815 -0.170607 0
-0.361799 0.101011 0
-0.0773763 0.431605 0
0.132109 0.50296 0
0.295799 0.193811 0
0.424688 -0.204323 0
0.330805 -0.37559 0
-0.0555549 -0.340801 0
-0.433932 -0.246489 0
-0.46988 -0.0553612 0
-0.21815 0.277155 0
0.0393499 0.517609 0
0.213955 0.385095 0
0.373471 -0.0200049 0
0.418223 -0.325087 0
0.162874 -0.372375 0
-0.343684 -0.373202 0
-0.636586 -0.217218 0
-0.456666 0.121765 0
-0.0947251 0.543547 0
0.165727 0.639002 0
0.368169 0.246688 0
0.534627 -0.260247 0
0.422345 -0.474505 0
-0.0665265 -0.426285 0
-0.54981 -0.309654 0
-0.595347 -0.074621 0
-0.273166 0.345486 0
0.0513589 0.655454 0
0.266237 0.490116 0
0.467102 -0.0258253 0
0.530046 -0.412606 0
0.210899 -0.467894 0
-0.401971 -0.406532 0
-0.746706 -0.257388 0
-0.51465 0.116807 0
-0.0870119 0.624628 0
0.185539 0.751613 0
0.397297 0.281564 0
0.608834 -0.318443 0
0.504742 -0.544382 0
-0.0695741 -0.464822 0
-0.647902 -0.346541 0
-0.68872 -0.106342 0
-0.292929 0.382392 0
0.0706775 0.766114 0
0.286127 0.574368 0
0.516779 -0.0441779 0
0.619312 -0.487527 0
0.260156 -0.521332 0
-0.442097 -0.413848 0
-0.822251 -0.286083 0
-0.543482 0.101066 0
-0.0694137 0.674356 0
0.194855 0.829676 0
0.400399 0.30085 0
0.650907 -0.365377 0
0.565532 -0.586191 0
-0.0682885 -0.47366 0
-0.717078 -0.363531 0
-0.747657 -0.137077 0
-0.292348 0.397022 0
0.0892982 0.840882 0
0.286955 0.631314 0
0.535738 -0.064371 0
0.679328 -0.540849 0
0.299603 -0.544179 0
-0.468479 -0.418776 0
-0.872045 -0.304774 0
-0.562679 0.0909071 0
-0.0578945 0.707089 0
0.201233 0.881036 0
0.4027 0.313648 0
0.678585 -0.39625 0
0.605406 -0.613949 0
-0.0674579 -0.479726 0
-0.7626 -0.374655 0
-0.786617 -0.15706 0
-0.292151 0.406752 0
0.101657 0.890049 0
0.287804 0.668843 0
0.54835 -0.0775618 0
0.718713 -0.576058 0
0.325476 -0.559513 0
-0.485435 -0.430492 0
-0.904347 -0.316215 0
-0.581209 0.0910754 0
-0.0571875 0.731479 0
0.207773 0.913896 0
0.413463 0.324571 0
0.701321 -0.412394 0
0.628908 -0.635371 0
-0.0686997 -0.49335 0
-0.791046 -0.386382 0
-0.814745 -0.165064 0
-0.299837 0.418869 0
0.106761 0.922513 0
0.295436 0.693696 0
0.564788 -0.0818755 0
0.744871 -0.597857 0
0.339187 -0.577098 0
-0.495894 -0.452139 0
-0.924741 -0.322402 0
-0.603023 0.10241 0
-0.0680697 0.752183 0
0.215815 0.933926 0
0.43569 0.33584 0
0.723718 -0.416088 0
0.639885 -0.654533 0
-0.072448 -0.518102 0
-0.807209 -0.401399 0
-0.837253 -0.161937 0
-0.317725 0.436212 0
0.105047 0.944017 0
0.311987 0.710256 0
0.588968 -0.0775161 0
0.762488 -0.609832 0
0.342757 -0.60089 0
-0.501903 -0.474795 0
-0.936773 -0.325619 0
-0.622809 0.116652 0
-0.0823801 0.768131 0
0.223001 0.945381 0
0.459295 0.345529 0
0.742626 -0.413738 0
0.643925 -0.66955 0
-0.0766381 -0.543762 0
-0.815538 -0.415705 0
-0.853762 -0.154724 0
-0.337251 0.453067 0
0.100442 0.957537 0
0.329596 0.720705 0
0.612752 -0.070047 0
0.773885 -0.615554 0
0.341526 -0.623516 0
-0.504872 -0.483116 0
-0.94229 -0.328895 0
-0.629769 0.120298 0
-0.0874567 0.775069 0
0.224137 0.951494 0
0.466695 0.349275 0
0.750851 -0.413523 0
0.647749 -0.67448 0
-0.0778123 -0.552323 0
-0.819901 -0.422134 0
-0.860224 -0.154357 0
-0.343846 0.458991 0
0.098075 0.964405 0
0.334274 0.725725 0
0.621403 -0.0678461 0
0.780305 -0.617813 0
0.34266 -0.630772 0
-0.505721 -0.463182 0
-0.94248 -0.334263 0
-0.614125 0.101621 0
-0.0719309 0.768664 0
0.214973 0.954441 0
0.442337 0.343038 0
0.741374 -0.422558 0
0.656562 -0.664016 0
-0.0729106 -0.527727 0
-0.823224 -0.413783 0
-0.852722 -0.169955 0
-0.324508 0.4445 0
0.102765 0.965071 0
0.313904 0.725469 0
0.601527 -0.078276 0
0.782012 -0.618951 0
0.352127 -0.610086 0
