# vtk DataFile Version 3.0
tp3485 scalar+vector
ASCII
DATASET UNSTRUCTURED_GRID
POINTS 187 double
1 0 0
0.932472 0.361242 0
0.739009 0.673696 0
0.445738 0.895163 0
0.0922684 0.995734 0
-0.273663 0.961826 0
-0.602635 0.798017 0
-0.850217 0.526432 0
-0.982973 0.18375 0
-0.982973 -0.18375 0
-0.850217 -0.526432 0
-0.602635 -0.798017 0
-0.273663 -0.961826 0
0.0922684 -0.995734 0
0.445738 -0.895163 0
0.739009 -0.673696 0
0.932472 -0.361242 0
1.3 0 0
1.21221 0.469614 0
0.960712 0.875804 0
0.57946 1.16371 0
0.119949 1.29445 0
-0.355762 1.25037 0
-0.783425 1.03742 0
-1.10528 0.684362 0
-1.27787 0.238874 0
-1.27787 -0.238874 0
-1.10528 -0.684362 0
-0.783425 -1.03742 0
-0.355762 -1.25037 0
0.119949 -1.29445 0
0.57946 -1.16371 0
0.960712 -0.875804 0
1.21221 -0.469614 0
1.6 0 0
1.49196 0.577987 0
1.18241 1.07791 0
0.713181 1.43226 0
0.147629 1.59317 0
-0.437861 1.53892 0
-0.964215 1.27683 0
-1.36035 0.842291 0
-1.57276 0.293999 0
-1.57276 -0.293999 0
-1.36035 -0.842291 0
-0.964215 -1.27683 0
-0.437861 -1.53892 0
0.147629 -1.59317 0
0.713181 -1.43226 0
1.18241 -1.07791 0
1.49196 -0.577987 0
1.9 0 0
1.7717 0.686359 0
1.40412 1.28002 0
0.846903 1.70081 0
0.17531 1.89189 0
-0.51996 1.82747 0
-1.14501 1.51623 0
-1.61541 1.00022 0
-1.86765 0.349124 0
-1.86765 -0.349124 0
-1.61541 -1.00022 0
-1.14501 -1.51623 0
-0.51996 -1.82747 0
0.17531 -1.89189 0
0.846903 -1.70081 0
1.40412 -1.28002 0
1.7717 -0.686359 0
2.2 0 0
2.05144 0.794732 0
1.62582 1.48213 0
0.980624 1.96936 0
0.20299 2.19062 0
-0.602059 2.11602 0
-1.3258 1.75564 0
-1.87048 1.15815 0
-2.16254 0.404249 0
-2.16254 -0.404249 0
-1.87048 -1.15815 0
-1.3258 -1.75564 0
-0.602059 -2.11602 0
0.20299 -2.19062 0
0.980624 -1.96936 0
1.62582 -1.48213 0
2.05144 -0.794732 0
2.5 0 0
2.33118 0.903104 0
1.84752 1.68424 0
1.11435 2.23791 0
0.230671 2.48934 0
-0.684157 2.40456 0
-1.50659 1.99504 0
-2.12554 1.31608 0
-2.45743 0.459374 0
-2.45743 -0.459374 0
-2.12554 -1.31608 0
-1.50659 -1.99504 0
-0.684157 -2.40456 0
0.230671 -2.48934 0
1.11435 -2.23791 0
1.84752 -1.68424 0
2.33118 -0.903104 0
2.8 0 0
2.61092 1.01148 0
2.06922 1.88635 0
1.24807 2.50646 0
0.258351 2.78806 0
-0.766256 2.69311 0
-1.68738 2.23445 0
-2.38061 1.47401 0
-2.75232 0.514499 0
-2.75232 -0.514499 0
-2.38061 -1.47401 0
-1.68738 -2.23445 0
-0.766256 -2.69311 0
0.258351 -2.78806 0
1.24807 -2.50646 0
2.06922 -1.88635 0
2.61092 -1.01148 0
3.1 0 0
2.89066 1.11985 0
2.29093 2.08846 0
1.38179 2.77501 0
0.286032 3.08678 0
-0.848355 2.98166 0
-1.86817 2.47385 0
-2.63567 1.63194 0
-3.04722 0.569624 0
-3.04722 -0.569624 0
-2.63567 -1.63194 0
-1.86817 -2.47385 0
-0.848355 -2.98166 0
0.286032 -3.08678 0
1.38179 -2.77501 0
2.29093 -2.08846 0
2.89066 -1.11985 0
3.4 0 0
3.17041 1.22822 0
2.51263 2.29057 0
1.51551 3.04356 0
0.313712 3.3855 0
-0.930454 3.27021 0
-2.04896 2.71326 0
-2.89074 1.78987 0
-3.34211 0.624748 0
-3.34211 -0.624748 0
-2.89074 -1.78987 0
-2.04896 -2.71326 0
-0.930454 -3.27021 0
0.313712 -3.3855 0
1.51551 -3.04356 0
2.51263 -2.29057 0
3.17041 -1.22822 0
3.7 0 0
3.45015 1.33659 0
2.73433 2.49267 0
1.64923 3.3121 0
0.341393 3.68422 0
-1.01255 3.55875 0
-2.22975 2.95266 0
-3.1458 1.9478 0
-3.637 0.679873 0
-3.637 -0.679873 0
-3.1458 -1.9478 0
-2.22975 -2.95266 0
-1.01255 -3.55875 0
0.341393 -3.68422 0
1.64923 -3.3121 0
2.73433 -2.49267 0
3.45015 -1.33659 0
4 0 0
3.72989 1.44497 0
2.95604 2.69478 0
1.78295 3.58065 0
0.369073 3.98294 0
-1.09465 3.8473 0
-2.41054 3.19207 0
-3.40087 2.10573 0
-3.93189 0.734998 0
-3.93189 -0.734998 0
-3.40087 -2.10573 0
-2.41054 -3.19207 0
-1.09465 -3.8473 0
0.369073 -3.98294 0
1.78295 -3.58065 0
2.95604 -2.69478 0
3.72989 -1.44497 0
CELLS 340 1360
3 0 17 18
3 0 18 1
3 1 18 19
3 1 19 2
3 2 19 20
3 2 20 3
3 3 20 21
3 3 21 4
3 4 21 22
3 4 22 5
3 5 22 23
3 5 23 6
3 6 23 24
3 6 24 7
3 7 24 25
3 7 25 8
3 8 25 26
3 8 26 9
3 9 26 27
3 9 27 10
3 10 27 28
3 10 28 11
3 11 28 29
3 11 29 12
3 12 29 30
3 12 30 13
3 13 30 31
3 13 31 14
3 14 31 32
3 14 32 15
3 15 32 33
3 15 33 16
3 16 33 17
3 16 17 0
3 17 34 35
3 17 35 18
3 18 35 36
3 18 36 19
3 19 36 37
3 19 37 20
3 20 37 38
3 20 38 21
3 21 38 39
3 21 39 22
3 22 39 40
3 22 40 23
3 23 40 41
3 23 41 24
3 24 41 42
3 24 42 25
3 25 42 43
3 25 43 26
3 26 43 44
3 26 44 27
3 27 44 45
3 27 45 28
3 28 45 46
3 28 46 29
3 29 46 47
3 29 47 30
3 30 47 48
3 30 48 31
3 31 48 49
3 31 49 32
3 32 49 50
3 32 50 33
3 33 50 34
3 33 34 17
3 34 51 52
3 34 52 35
3 35 52 53
3 35 53 36
3 36 53 54
3 36 54 37
3 37 54 55
3 37 55 38
3 38 55 56
3 38 56 39
3 39 56 57
3 39 57 40
3 40 57 58
3 40 58 41
3 41 58 59
3 41 59 42
3 42 59 60
3 42 60 43
3 43 60 61
3 43 61 44
3 44 61 62
3 44 62 45
3 45 62 63
3 45 63 46
3 46 63 64
3 46 64 47
3 47 64 65
3 47 65 48
3 48 65 66
3 48 66 49
3 49 66 67
3 49 67 50
3 50 67 51
3 50 51 34
3 51 68 69
3 51 69 52
3 52 69 70
3 52 70 53
3 53 70 71
3 53 71 54
3 54 71 72
3 54 72 55
3 55 72 73
3 55 73 56
3 56 73 74
3 56 74 57
3 57 74 75
3 57 75 58
3 58 75 76
3 58 76 59
3 59 76 77
3 59 77 60
3 60 77 78
3 60 78 61
3 61 78 79
3 61 79 62
3 62 79 80
3 62 80 63
3 63 80 81
3 63 81 64
3 64 81 82
3 64 82 65
3 65 82 83
3 65 83 66
3 66 83 84
3 66 84 67
3 67 84 68
3 67 68 51
3 68 85 86
3 68 86 69
3 69 86 87
3 69 87 70
3 70 87 88
3 70 88 71
3 71 88 89
3 71 89 72
3 72 89 90
3 72 90 73
3 73 90 91
3 73 91 74
3 74 91 92
3 74 92 75
3 75 92 93
3 75 93 76
3 76 93 94
3 76 94 77
3 77 94 95
3 77 95 78
3 78 95 96
3 78 96 79
3 79 96 97
3 79 97 80
3 80 97 98
3 80 98 81
3 81 98 99
3 81 99 82
3 82 99 100
3 82 100 83
3 83 100 101
3 83 101 84
3 84 101 85
3 84 85 68
3 85 102 103
3 85 103 86
3 86 103 104
3 86 104 87
3 87 104 105
3 87 105 88
3 88 105 106
3 88 106 89
3 89 106 107
3 89 107 90
3 90 107 108
3 90 108 91
3 91 108 109
3 91 109 92
3 92 109 110
3 92 110 93
3 93 110 111
3 93 111 94
3 94 111 112
3 94 112 95
3 95 112 113
3 95 113 96
3 96 113 114
3 96 114 97
3 97 114 115
3 97 115 98
3 98 115 116
3 98 116 99
3 99 116 117
3 99 117 100
3 100 117 118
3 100 118 101
3 101 118 102
3 101 102 85
3 102 119 120
3 102 120 103
3 103 120 121
3 103 121 104
3 104 121 122
3 104 122 105
3 105 122 123
3 105 123 106
3 106 123 124
3 106 124 107
3 107 124 125
3 107 125 108
3 108 125 126
3 108 126 109
3 109 126 127
3 109 127 110
3 110 127 128
3 110 128 111
3 111 128 129
3 111 129 112
3 112 129 130
3 112 130 113
3 113 130 131
3 113 131 114
3 114 131 132
3 114 132 115
3 115 132 133
3 115 133 116
3 116 133 134
3 116 134 117
3 117 134 135
3 117 135 118
3 118 135 119
3 118 119 102
3 119 136 137
3 119 137 120
3 120 137 138
3 120 138 121
3 121 138 139
3 121 139 122
3 122 139 140
3 122 140 123
3 123 140 141
3 123 141 124
3 124 141 142
3 124 142 125
3 125 142 143
3 125 143 126
3 126 143 144
3 126 144 127
3 127 144 145
3 127 145 128
3 128 145 146
3 128 146 129
3 129 146 147
3 129 147 130
3 130 147 148
3 130 148 131
3 131 148 149
3 131 149 132
3 132 149 150
3 132 150 133
3 133 150 151
3 133 151 134
3 134 151 152
3 134 152 135
3 135 152 136
3 135 136 119
3 136 153 154
3 136 154 137
3 137 154 155
3 137 155 138
3 138 155 156
3 138 156 139
3 139 156 157
3 139 157 140
3 140 157 158
3 140 158 141
3 141 158 159
3 141 159 142
3 142 159 160
3 142 160 143
3 143 160 161
3 143 161 144
3 144 161 162
3 144 162 145
3 145 162 163
3 145 163 146
3 146 163 164
3 146 164 147
3 147 164 165
3 147 165 148
3 148 165 166
3 148 166 149
3 149 166 167
3 149 167 150
3 150 167 168
3 150 168 151
3 151 168 169
3 151 169 152
3 152 169 153
3 152 153 136
3 153 170 171
3 153 171 154
3 154 171 172
3 154 172 155
3 155 172 173
3 155 173 156
3 156 173 174
3 156 174 157
3 157 174 175
3 157 175 158
3 158 175 176
3 158 176 159
3 159 176 177
3 159 177 160
3 160 177 178
3 160 178 161
3 161 178 179
3 161 179 162
3 162 179 180
3 162 180 163
3 163 180 181
3 163 181 164
3 164 181 182
3 164 182 165
3 165 182 183
3 165 183 166
3 166 183 184
3 166 184 167
3 167 184 185
3 167 185 168
3 168 185 186
3 168 186 169
3 169 186 170
3 169 170 153
CELL_TYPES 340
5
5
5
5
5
5
5
5
5
5
5
5
5
5
5
5
5
5
5
5
5
5
5
5
5
5
5
5
5
5
5
5
5
5
5
5
5
5
5
5
5
5
5
5
5
5
5
5
5
5
5
5
5
5
5
5
5
5
5
5
5
5
5
5
5
5
5
5
5
5
5
5
5
5
5
5
5
5
5
5
5
5
5
5
5
5
5
5
5
5
5
5
5
5
5
5
5
5
5
5
5
5
5
5
5
5
5
5
5
5
5
5
5
5
5
5
5
5
5
5
5
5
5
5
5
5
5
5
5
5
5
5
5
5
5
5
5
5
5
5
5
5
5
5
5
5
5
5
5
5
5
5
5
5
5
5
5
5
5
5
5
5
5
5
5
5
5
5
5
5
5
5
5
5
5
5
5
5
5
5
5
5
5
5
5
5
5
5
5
5
5
5
5
5
5
5
5
5
5
5
5
5
5
5
5
5
5
5
5
5
5
5
5
5
5
5
5
5
5
5
5
5
5
5
5
5
5
5
5
5
5
5
5
5
5
5
5
5
5
5
5
5
5
5
5
5
5
5
5
5
5
5
5
5
5
5
5
5
5
5
5
5
5
5
5
5
5
5
5
5
5
5
5
5
5
5
5
5
5
5
5
5
5
5
5
5
5
5
5
5
5
5
5
5
5
5
5
5
5
5
5
5
5
5
5
5
5
5
5
5
5
5
5
5
5
5
5
5
5
5
5
5
5
5
5
5
5
5
5
5
5
5
5
5
5
5
5
5
5
5
POINT_DATA 187
SCALARS psi double 1
LOOKUP_TABLE default
-0.11299
-0.350208
-0.540129
-0.657103
-0.685331
-0.621001
-0.472802
-0.260748
-0.0134789
0.235611
0.45288
0.608985
0.682843
0.66448
0.556375
0.373128
0.139489
-0.117228
-0.360273
-0.554661
-0.674139
-0.702571
-0.636117
-0.483751
-0.266053
-0.0124221
0.242886
0.465391
0.625043
0.700279
0.680938
0.569633
0.381396
0.141649
-0.123505
-0.380868
-0.586792
-0.713467
-0.743784
-0.673649
-0.512534
-0.282198
-0.0137501
0.256555
0.492211
0.661391
0.741246
0.720992
0.603365
0.404249
0.150537
-0.130698
-0.404682
-0.624012
-0.759065
-0.791602
-0.717229
-0.54599
-0.301013
-0.0153814
0.272327
0.523257
0.703517
0.788764
0.767484
0.642551
0.430837
0.160937
-0.138106
-0.428704
-0.661404
-0.804777
-0.839461
-0.760771
-0.579334
-0.319656
-0.0168057
0.288314
0.554495
0.745789
0.83636
0.813975
0.681659
0.457281
0.171145
-0.145274
-0.451293
-0.696362
-0.847384
-0.883962
-0.801156
-0.610149
-0.336739
-0.0178495
0.30345
0.583767
0.785243
0.880668
0.857153
0.717876
0.481645
0.180365
-0.151922
-0.471565
-0.72752
-0.885219
-0.923364
-0.836804
-0.637229
-0.351593
-0.0184722
0.317144
0.609927
0.820337
0.919956
0.895329
0.749783
0.502975
0.188238
-0.157617
-0.488574
-0.753546
-0.916748
-0.956137
-0.866395
-0.659642
-0.3638
-0.018825
0.328692
0.631818
0.849613
0.952663
0.927051
0.776235
0.520585
0.194626
-0.161944
-0.501414
-0.773166
-0.940497
-0.980809
-0.888658
-0.676488
-0.372955
-0.0190518
0.337424
0.648329
0.871674
0.977294
0.950925
0.796128
0.53381
0.199398
-0.164517
-0.508986
-0.784714
-0.954462
-0.995304
-0.901725
-0.686363
-0.378304
-0.0191532
0.342585
0.658055
0.884651
0.99177
0.964945
0.807799
0.541555
0.202171
-0.164493
-0.510668
-0.787875
-0.958675
-1
-0.90627
-0.690143
-0.380808
-0.0200437
0.343428
0.660518
0.888401
0.996301
0.969645
0.812033
0.544751
0.203898
VECTORS Et double
0.986427 -0.0288245 0
0.832351 0.232444 0
0.542472 0.321724 0
0.268103 0.192413 0
0.152457 -0.0879912 0
0.255901 -0.373123 0
0.524439 -0.514148 0
0.817898 -0.437454 0
0.983099 -0.183074 0
0.933809 0.116211 0
0.695757 0.304179 0
0.393201 0.282714 0
0.184071 0.0630205 0
0.177528 -0.240225 0
0.376989 -0.468733 0
0.678336 -0.50323 0
0.924275 -0.325705 0
0.830091 -0.0373876 0
0.718339 0.149427 0
0.509895 0.212197 0
0.313567 0.118158 0
0.231832 -0.0836039 0
0.307355 -0.287773 0
0.500714 -0.387774 0
0.71098 -0.331412 0
0.828397 -0.148104 0
0.791676 0.0664648 0
0.619984 0.200295 0
0.40294 0.183528 0
0.253841 0.024916 0
0.25051 -0.192747 0
0.394687 -0.355847 0
0.611116 -0.379246 0
0.786822 -0.250733 0
0.721397 -0.0395653 0
0.632725 0.108383 0
0.467526 0.15798 0
0.312027 0.0833379 0
0.247398 -0.0765815 0
0.307374 -0.238304 0
0.460647 -0.317414 0
0.627214 -0.272614 0
0.720128 -0.127293 0
0.690889 0.0426965 0
0.554761 0.148622 0
0.382799 0.135193 0
0.264765 0.00942023 0
0.26227 -0.163049 0
0.376617 -0.292184 0
0.548118 -0.310582 0
0.687253 -0.208638 0
0.648664 -0.0381864 0
0.571311 0.0915344 0
0.426754 0.135288 0
0.29045 0.0702331 0
0.233546 -0.0696691 0
0.285745 -0.211395 0
0.419802 -0.280965 0
0.565738 -0.242065 0
0.647381 -0.115 0
0.622112 0.0339039 0
0.503123 0.126922 0
0.352523 0.1155 0
0.248922 0.00560066 0
0.246399 -0.145411 0
0.34627 -0.25871 0
0.496405 -0.275155 0
0.618436 -0.186164 0
0.598814 -0.0353581 0
0.526779 0.0861972 0
0.391652 0.127498 0
0.263969 0.0669861 0
0.210377 -0.0637534 0
0.25885 -0.196475 0
0.384087 -0.261903 0
0.520715 -0.225882 0
0.597418 -0.107217 0
0.574158 0.0321525 0
0.463077 0.119477 0
0.322155 0.109175 0
0.224954 0.00662481 0
0.222209 -0.134645 0
0.315354 -0.240894 0
0.455768 -0.256663 0
0.570158 -0.173719 0
0.564246 -0.0322836 0
0.494631 0.0857106 0
0.36369 0.126011 0
0.239776 0.0675763 0
0.187567 -0.0590842 0
0.234317 -0.187862 0
0.355621 -0.251536 0
0.488163 -0.216867 0
0.562757 -0.101955 0
0.540467 0.0332205 0
0.432927 0.118098 0
0.296271 0.108378 0
0.201833 0.0091264 0
0.198906 -0.127843 0
0.289019 -0.231036 0
0.425132 -0.246589 0
0.536201 -0.166383 0
0.539104 -0.0291205 0
0.470382 0.0875599 0
0.34099 0.127491 0
0.218466 0.0698273 0
0.166768 -0.0553292 0
0.21288 -0.18265 0
0.332732 -0.245676 0
0.463765 -0.21151 0
0.53758 -0.0979833 0
0.515649 0.0356427 0
0.409419 0.119617 0
0.274338 0.110111 0
0.180919 0.0120804 0
0.177924 -0.1233 0
0.266915 -0.225367 0
0.40144 -0.240839 0
0.511284 -0.161646 0
0.519776 -0.0260242 0
0.451237 0.0902784 0
0.322234 0.130051 0
0.200104 0.0725371 0
0.148597 -0.0522471 0
0.194599 -0.179162 0
0.314098 -0.241963 0
0.444717 -0.20787 0
0.518275 -0.0946748 0
0.496378 0.038533 0
0.390453 0.122223 0
0.255792 0.112708 0
0.162687 0.0149577 0
0.159735 -0.120005 0
0.248478 -0.221734 0
0.382591 -0.237121 0
0.492074 -0.158146 0
0.504403 -0.0228037 0
0.435391 0.0940413 0
0.305672 0.133897 0
0.182958 0.0759647 0
0.131304 -0.0495275 0
0.177671 -0.177063 0
0.297854 -0.240075 0
0.429127 -0.205674 0
0.502961 -0.0918154 0
0.480818 0.0420688 0
0.374262 0.126094 0
0.2389 0.116403 0
0.145402 0.0180446 0
0.142567 -0.117628 0
0.231876 -0.219804 0
0.366707 -0.235146 0
0.476686 -0.155646 0
0.492055 -0.0187735 0
0.421588 0.099845 0
0.289608 0.140042 0
0.164983 0.0808105 0
0.112788 -0.0469048 0
0.160258 -0.176448 0
0.282616 -0.240204 0
0.415993 -0.204894 0
0.490766 -0.0889425 0
0.467907 0.0471227 0
0.359357 0.132279 0
0.221758 0.122067 0
0.126948 0.0218343 0
0.124415 -0.116114 0
0.215482 -0.219761 0
0.352604 -0.235023 0
0.464214 -0.153906 0
0.482236 -0.0137424 0
0.409307 0.107839 0
0.273515 0.148559 0
0.145719 0.0871626 0
0.0926372 -0.0443042 0
0.141981 -0.17722 0
0.267991 -0.242198 0
0.404888 -0.205322 0
0.481218 -0.0858514 0
0.457137 0.0538648 0
0.345227 0.140885 0
0.203873 0.129813 0
0.106887 0.0263942 0
0.104886 -0.115372 0
0.198909 -0.22148 0
0.339886 -0.236559 0
0.454216 -0.152722 0
