# vtk DataFile Version 3.0
tp3485 scalar+vector
ASCII
DATASET UNSTRUCTURED_GRID
POINTS 187 double
1 0 0
0.932472 0.361242 0
0.739009 0.673696 0
0.445738 0.895163 0
0.0922684 0.995734 0
-0.273663 0.961826 0
-0.602635 0.798017 0
-0.850217 0.526432 0
-0.982973 0.18375 0
-0.982973 -0.18375 0
-0.850217 -0.526432 0
-0.602635 -0.798017 0
-0.273663 -0.961826 0
0.0922684 -0.995734 0
0.445738 -0.895163 0
0.739009 -0.673696 0
0.932472 -0.361242 0
1.3 0 0
1.21221 0.469614 0
0.960712 0.875804 0
0.57946 1.16371 0
0.119949 1.29445 0
-0.355762 1.25037 0
-0.783425 1.03742 0
-1.10528 0.684362 0
-1.27787 0.238874 0
-1.27787 -0.238874 0
-1.10528 -0.684362 0
-0.783425 -1.03742 0
-0.355762 -1.25037 0
0.119949 -1.29445 0
0.57946 -1.16371 0
0.960712 -0.875804 0
1.21221 -0.469614 0
1.6 0 0
1.49196 0.577987 0
1.18241 1.07791 0
0.713181 1.43226 0
0.147629 1.59317 0
-0.437861 1.53892 0
-0.964215 1.27683 0
-1.36035 0.842291 0
-1.57276 0.293999 0
-1.57276 -0.293999 0
-1.36035 -0.842291 0
-0.964215 -1.27683 0
-0.437861 -1.53892 0
0.147629 -1.59317 0
0.713181 -1.43226 0
1.18241 -1.07791 0
1.49196 -0.577987 0
1.9 0 0
1.7717 0.686359 0
1.40412 1.28002 0
0.846903 1.70081 0
0.17531 1.89189 0
-0.51996 1.82747 0
-1.14501 1.51623 0
-1.61541 1.00022 0
-1.86765 0.349124 0
-1.86765 -0.349124 0
-1.61541 -1.00022 0
-1.14501 -1.51623 0
-0.51996 -1.82747 0
0.17531 -1.89189 0
0.846903 -1.70081 0
1.40412 -1.28002 0
1.7717 -0.686359 0
2.2 0 0
2.05144 0.794732 0
1.62582 1.48213 0
0.980624 1.96936 0
0.20299 2.19062 0
-0.602059 2.11602 0
-1.3258 1.75564 0
-1.87048 1.15815 0
-2.16254 0.404249 0
-2.16254 -0.404249 0
-1.87048 -1.15815 0
-1.3258 -1.75564 0
-0.602059 -2.11602 0
0.20299 -2.19062 0
0.980624 -1.96936 0
1.62582 -1.48213 0
2.05144 -0.794732 0
2.5 0 0
2.33118 0.903104 0
1.84752 1.68424 0
1.11435 2.23791 0
0.230671 2.48934 0
-0.684157 2.40456 0
-1.50659 1.99504 0
-2.12554 1.31608 0
-2.45743 0.459374 0
-2.45743 -0.459374 0
-2.12554 -1.31608 0
-1.50659 -1.99504 0
-0.684157 -2.40456 0
0.230671 -2.48934 0
1.11435 -2.23791 0
1.84752 -1.68424 0
2.33118 -0.903104 0
2.8 0 0
2.61092 1.01148 0
2.06922 1.88635 0
1.24807 2.50646 0
0.258351 2.78806 0
-0.766256 2.69311 0
-1.68738 2.23445 0
-2.38061 1.47401 0
-2.75232 0.514499 0
-2.75232 -0.514499 0
-2.38061 -1.47401 0
-1.68738 -2.23445 0
-0.766256 -2.69311 0
0.258351 -2.78806 0
1.24807 -2.50646 0
2.06922 -1.88635 0
2.61092 -1.01148 0
3.1 0 0
2.89066 1.11985 0
2.29093 2.08846 0
1.38179 2.77501 0
0.286032 3.08678 0
-0.848355 2.98166 0
-1.86817 2.47385 0
-2.63567 1.63194 0
-3.04722 0.569624 0
-3.04722 -0.569624 0
-2.63567 -1.63194 0
-1.86817 -2.47385 0
-0.848355 -2.98166 0
0.286032 -3.08678 0
1.38179 -2.77501 0
2.29093 -2.08846 0
2.89066 -1.11985 0
3.4 0 0
3.17041 1.22822 0
2.51263 2.29057 0
1.51551 3.04356 0
0.313712 3.3855 0
-0.930454 3.27021 0
-2.04896 2.71326 0
-2.89074 1.78987 0
-3.34211 0.624748 0
-3.34211 -0.624748 0
-2.89074 -1.78987 0
-2.04896 -2.71326 0
-0.930454 -3.27021 0
0.313712 -3.3855 0
1.51551 -3.04356 0
2.51263 -2.29057 0
3.17041 -1.22822 0
3.7 0 0
3.45015 1.33659 0
2.73433 2.49267 0
1.64923 3.3121 0
0.341393 3.68422 0
-1.01255 3.55875 0
-2.22975 2.95266 0
-3.1458 1.9478 0
-3.637 0.679873 0
-3.637 -0.679873 0
-3.1458 -1.9478 0
-2.22975 -2.95266 0
-1.01255 -3.55875 0
0.341393 -3.68422 0
1.64923 -3.3121 0
2.73433 -2.49267 0
3.45015 -1.33659 0
4 0 0
3.72989 1.44497 0
2.95604 2.69478 0
1.78295 3.58065 0
0.369073 3.98294 0
-1.09465 3.8473 0
-2.41054 3.19207 0
-3.40087 2.10573 0
-3.93189 0.734998 0
-3.93189 -0.734998 0
-3.40087 -2.10573 0
-2.41054 -3.19207 0
-1.09465 -3.8473 0
0.369073 -3.98294 0
1.78295 -3.58065 0
2.95604 -2.69478 0
3.72989 -1.44497 0
CELLS 340 1360
3 0 17 18
3 0 18 1
3 1 18 19
3 1 19 2
3 2 19 20
3 2 20 3
3 3 20 21
3 3 21 4
3 4 21 22
3 4 22 5
3 5 22 23
3 5 23 6
3 6 23 24
3 6 24 7
3 7 24 25
3 7 25 8
3 8 25 26
3 8 26 9
3 9 26 27
3 9 27 10
3 10 27 28
3 10 28 11
3 11 28 29
3 11 29 12
3 12 29 30
3 12 30 13
3 13 30 31
3 13 31 14
3 14 31 32
3 14 32 15
3 15 32 33
3 15 33 16
3 16 33 17
3 16 17 0
3 17 34 35
3 17 35 18
3 18 35 36
3 18 36 19
3 19 36 37
3 19 37 20
3 20 37 38
3 20 38 21
3 21 38 39
3 21 39 22
3 22 39 40
3 22 40 23
3 23 40 41
3 23 41 24
3 24 41 42
3 24 42 25
3 25 42 43
3 25 43 26
3 26 43 44
3 26 44 27
3 27 44 45
3 27 45 28
3 28 45 46
3 28 46 29
3 29 46 47
3 29 47 30
3 30 47 48
3 30 48 31
3 31 48 49
3 31 49 32
3 32 49 50
3 32 50 33
3 33 50 34
3 33 34 17
3 34 51 52
3 34 52 35
3 35 52 53
3 35 53 36
3 36 53 54
3 36 54 37
3 37 54 55
3 37 55 38
3 38 55 56
3 38 56 39
3 39 56 57
3 39 57 40
3 40 57 58
3 40 58 41
3 41 58 59
3 41 59 42
3 42 59 60
3 42 60 43
3 43 60 61
3 43 61 44
3 44 61 62
3 44 62 45
3 45 62 63
3 45 63 46
3 46 63 64
3 46 64 47
3 47 64 65
3 47 65 48
3 48 65 66
3 48 66 49
3 49 66 67
3 49 67 50
3 50 67 51
3 50 51 34
3 51 68 69
3 51 69 52
3 52 69 70
3 52 70 53
3 53 70 71
3 53 71 54
3 54 71 72
3 54 72 55
3 55 72 73
3 55 73 56
3 56 73 74
3 56 74 57
3 57 74 75
3 57 75 58
3 58 75 76
3 58 76 59
3 59 76 77
3 59 77 60
3 60 77 78
3 60 78 61
3 61 78 79
3 61 79 62
3 62 79 80
3 62 80 63
3 63 80 81
3 63 81 64
3 64 81 82
3 64 82 65
3 65 82 83
3 65 83 66
3 66 83 84
3 66 84 67
3 67 84 68
3 67 68 51
3 68 85 86
3 68 86 69
3 69 86 87
3 69 87 70
3 70 87 88
3 70 88 71
3 71 88 89
3 71 89 72
3 72 89 90
3 72 90 73
3 73 90 91
3 73 91 74
3 74 91 92
3 74 92 75
3 75 92 93
3 75 93 76
3 76 93 94
3 76 94 77
3 77 94 95
3 77 95 78
3 78 95 96
3 78 96 79
3 79 96 97
3 79 97 80
3 80 97 98
3 80 98 81
3 81 98 99
3 81 99 82
3 82 99 100
3 82 100 83
3 83 100 101
3 83 101 84
3 84 101 85
3 84 85 68
3 85 102 103
3 85 103 86
3 86 103 104
3 86 104 87
3 87 104 105
3 87 105 88
3 88 105 106
3 88 106 89
3 89 106 107
3 89 107 90
3 90 107 108
3 90 108 91
3 91 108 109
3 91 109 92
3 92 109 110
3 92 110 93
3 93 110 111
3 93 111 94
3 94 111 112
3 94 112 95
3 95 112 113
3 95 113 96
3 96 113 114
3 96 114 97
3 97 114 115
3 97 115 98
3 98 115 116
3 98 116 99
3 99 116 117
3 99 117 100
3 100 117 118
3 100 118 101
3 101 118 102
3 101 102 85
3 102 119 120
3 102 120 103
3 103 120 121
3 103 121 104
3 104 121 122
3 104 122 105
3 105 122 123
3 105 123 106
3 106 123 124
3 106 124 107
3 107 124 125
3 107 125 108
3 108 125 126
3 108 126 109
3 109 126 127
3 109 127 110
3 110 127 128
3 110 128 111
3 111 128 129
3 111 129 112
3 112 129 130
3 112 130 113
3 113 130 131
3 113 131 114
3 114 131 132
3 114 132 115
3 115 132 133
3 115 133 116
3 116 133 134
3 116 134 117
3 117 134 135
3 117 135 118
3 118 135 119
3 118 119 102
3 119 136 137
3 119 137 120
3 120 137 138
3 120 138 121
3 121 138 139
3 121 139 122
3 122 139 140
3 122 140 123
3 123 140 141
3 123 141 124
3 124 141 142
3 124 142 125
3 125 142 143
3 125 143 126
3 126 143 144
3 126 144 127
3 127 144 145
3 127 145 128
3 128 145 146
3 128 146 129
3 129 146 147
3 129 147 130
3 130 147 148
3 130 148 131
3 131 148 149
3 131 149 132
3 132 149 150
3 132 150 133
3 133 150 151
3 133 151 134
3 134 151 152
3 134 152 135
3 135 152 136
3 135 136 119
3 136 153 154
3 136 154 137
3 137 154 155
3 137 155 138
3 138 155 156
3 138 156 139
3 139 156 157
3 139 157 140
3 140 157 158
3 140 158 141
3 141 158 159
3 141 159 142
3 142 159 160
3 142 160 143
3 143 160 161
3 143 161 144
3 144 161 162
3 144 162 145
3 145 162 163
3 145 163 146
3 146 163 164
3 146 164 147
3 147 164 165
3 147 165 148
3 148 165 166
3 148 166 149
3 149 166 167
3 149 167 150
3 150 167 168
3 150 168 151
3 151 168 169
3 151 169 152
3 152 169 153
3 152 153 136
3 153 170 171
3 153 171 154
3 154 171 172
3 154 172 155
3 155 172 173
3 155 173 156
3 156 173 174
3 156 174 157
3 157 174 175
3 157 175 158
3 158 175 176
3 158 176 159
3 159 176 177
3 159 177 160
3 160 177 178
3 160 178 161
3 161 178 179
3 161 179 162
3 162 179 180
3 162 180 163
3 163 180 181
3 163 181 164
3 164 181 182
3 164 182 165
3 165 182 183
3 165 183 166
3 166 183 184
3 166 184 167
3 167 184 185
3 167 185 168
3 168 185 186
3 168 186 169
3 169 186 170
3 169 170 153
CELL_TYPES 340
5
5
5
5
5
5
5
5
5
5
5
5
5
5
5
5
5
5
5
5
5
5
5
5
5
5
5
5
5
5
5
5
5
5
5
5
5
5
5
5
5
5
5
5
5
5
5
5
5
5
5
5
5
5
5
5
5
5
5
5
5
5
5
5
5
5
5
5
5
5
5
5
5
5
5
5
5
5
5
5
5
5
5
5
5
5
5
5
5
5
5
5
5
5
5
5
5
5
5
5
5
5
5
5
5
5
5
5
5
5
5
5
5
5
5
5
5
5
5
5
5
5
5
5
5
5
5
5
5
5
5
5
5
5
5
5
5
5
5
5
5
5
5
5
5
5
5
5
5
5
5
5
5
5
5
5
5
5
5
5
5
5
5
5
5
5
5
5
5
5
5
5
5
5
5
5
5
5
5
5
5
5
5
5
5
5
5
5
5
5
5
5
5
5
5
5
5
5
5
5
5
5
5
5
5
5
5
5
5
5
5
5
5
5
5
5
5
5
5
5
5
5
5
5
5
5
5
5
5
5
5
5
5
5
5
5
5
5
5
5
5
5
5
5
5
5
5
5
5
5
5
5
5
5
5
5
5
5
5
5
5
5
5
5
5
5
5
5
5
5
5
5
5
5
5
5
5
5
5
5
5
5
5
5
5
5
5
5
5
5
5
5
5
5
5
5
5
5
5
5
5
5
5
5
5
5
5
5
5
5
5
5
5
5
5
5
5
5
5
5
5
5
5
5
5
5
5
5
5
5
5
5
5
5
5
5
5
5
5
5
POINT_DATA 187
SCALARS psi double 1
LOOKUP_TABLE default
0
0
0
0
0
0
0
0
0
0
0
0
0
0
0
0
0
0.215744
0.207242
-0.0309926
-0.234871
-0.17839
0.075841
0.246
0.143462
-0.118107
-0.248752
-0.10365
0.156351
0.243033
0.0603073
-0.18927
-0.229037
-0.0149113
0.413626
0.397659
-0.0591223
-0.450365
-0.342368
0.145152
0.471767
0.275417
-0.226239
-0.477104
-0.199088
0.299622
0.466194
0.115979
-0.362801
-0.439408
-0.028921
0.603491
0.582436
-0.0842633
-0.657554
-0.501931
0.210095
0.689226
0.404334
-0.328771
-0.697426
-0.292968
0.436252
0.681876
0.171625
-0.528877
-0.643106
-0.0444374
0.759051
0.735322
-0.103528
-0.827615
-0.634271
0.262177
0.867996
0.511621
-0.411898
-0.878818
-0.371548
0.547592
0.859713
0.218823
-0.664638
-0.811332
-0.0586458
0.851851
0.827482
-0.11417
-0.929262
-0.714246
0.292529
0.975028
0.576686
-0.460926
-0.987591
-0.419489
0.613627
0.966522
0.248006
-0.745431
-0.91254
-0.0680771
0.861832
0.838602
-0.114238
-0.940442
-0.724145
0.294884
0.987027
0.585028
-0.465489
-1
-0.425988
0.620242
0.978919
0.252442
-0.753873
-0.924502
-0.0702991
0.793107
0.7724
-0.10453
-0.865586
-0.66712
0.270864
0.908589
0.539122
-0.427975
-0.920651
-0.392764
0.570511
0.901361
0.233032
-0.693619
-0.851377
-0.0653638
0.653143
0.636343
-0.0858583
-0.712883
-0.549661
0.222874
0.748347
0.444261
-0.352299
-0.758327
-0.323732
0.469728
0.742483
0.192179
-0.571161
-0.701355
-0.054081
0.436202
0.425259
-0.0570931
-0.476156
-0.367389
0.148637
0.499896
0.297008
-0.23512
-0.506612
-0.216513
0.313596
0.496076
0.128645
-0.381393
-0.468647
-0.0363954
0
0
0
0
0
0
0
0
0
0
0
0
0
0
0
0
0
VECTORS Et double
-0.503309 -0.193111 0
-0.52944 0.0233862 0
-0.205791 0.330727 0
0.12944 0.548053 0
0.305998 0.391498 0
0.401855 -0.0682319 0
0.393642 -0.422777 0
0.120434 -0.444981 0
-0.332313 -0.283877 0
-0.573608 -0.0952891 0
-0.391806 0.16973 0
-0.0206525 0.471773 0
0.234797 0.524049 0
0.359511 0.176513 0
0.421542 -0.282951 0
0.294774 -0.472104 0
-0.105072 -0.372408 0
-0.417502 -0.321606 0
-0.504925 0.182596 0
-0.386662 0.508121 0
0.0110996 0.503095 0
0.475277 0.306772 0
0.627025 0.0288006 0
0.367394 -0.321032 0
-0.0351833 -0.592259 0
-0.326302 -0.513928 0
-0.478744 -0.0709109 0
-0.480225 0.386505 0
-0.217645 0.541573 0
0.259946 0.418002 0
0.607172 0.177587 0
0.537042 -0.140875 0
0.162733 -0.484446 0
-0.2005 -0.607998 0
-0.293183 -0.386661 0
-0.419965 0.289091 0
-0.486032 0.588331 0
-0.0883764 0.401833 0
0.552667 0.19823 0
0.731606 0.105345 0
0.299363 -0.195647 0
-0.157833 -0.636961 0
-0.279116 -0.637415 0
-0.339229 -0.0427026 0
-0.491395 0.514352 0
-0.352203 0.529415 0
0.246392 0.277609 0
0.732365 0.156152 0
0.563449 -0.00549288 0
0.0341261 -0.431903 0
-0.252637 -0.723575 0
-0.123589 -0.386465 0
-0.266621 0.345808 0
-0.502027 0.570463 0
-0.171029 0.236607 0
0.536951 0.0582439 0
0.713392 0.161703 0
0.183379 -0.0406249 0
-0.252743 -0.574824 0
-0.187871 -0.652751 0
-0.146439 -0.00804663 0
-0.420057 0.555109 0
-0.425151 0.430777 0
0.192255 0.0939405 0
0.733968 0.108079 0
0.496534 0.127265 0
-0.0978231 -0.308646 0
-0.263128 -0.716637 0
0.0379136 -0.353116 0
-0.106403 0.367452 0
-0.472695 0.506602 0
-0.229903 0.0690338 0
0.477277 -0.072582 0
0.636532 0.197234 0
0.0640072 0.101043 0
-0.316859 -0.469979 0
-0.0912763 -0.610517 0
0.038273 0.0238818 0
-0.319724 0.544847 0
-0.453436 0.306523 0
0.127697 -0.0784693 0
0.673018 0.0548486 0
0.394568 0.234293 0
-0.207872 -0.172115 0
-0.251118 -0.648981 0
0.178504 -0.312074 0
0.0382459 0.374918 0
-0.431104 0.434346 0
-0.273925 -0.080604 0
0.409455 -0.185773 0
0.548328 0.221542 0
-0.0432788 0.222184 0
-0.363496 -0.362368 0
-0.00380134 -0.553328 0
0.199534 0.0514852 0
-0.220678 0.518531 0
-0.463205 0.187504 0
0.0669813 -0.227831 0
0.597682 0.0056708 0
0.292025 0.320435 0
-0.298311 -0.0464325 0
-0.232959 -0.568207 0
0.293394 -0.269888 0
0.159981 0.37276 0
-0.385697 0.363178 0
-0.30468 -0.20556 0
0.34263 -0.277544 0
0.460877 0.236795 0
-0.133327 0.319542 0
-0.394802 -0.262793 0
0.0702439 -0.491917 0
0.331528 0.0738845 0
-0.131516 0.48439 0
-0.460546 0.08236 0
0.0141595 -0.349217 0
0.520064 -0.0363342 0
0.198288 0.385813 0
-0.368223 0.0610605 0
-0.212377 -0.48653 0
0.388214 -0.229105 0
0.262687 0.365219 0
-0.340489 0.295964 0
-0.326436 -0.310492 0
0.279647 -0.352564 0
0.378065 0.246353 0
-0.20924 0.398689 0
-0.415759 -0.172719 0
0.13324 -0.431139 0
0.44049 0.0922472 0
-0.052459 0.447391 0
-0.451066 -0.00991722 0
-0.0315931 -0.448788 0
0.444924 -0.0720325 0
0.114053 0.436346 0
-0.423036 0.152942 0
-0.191239 -0.408397 0
0.48797 -0.191118 0
0.368506 0.362317 0
-0.299718 0.232351 0
-0.352216 -0.419386 0
0.220301 -0.431844 0
0.299951 0.259179 0
-0.287858 0.482769 0
-0.441817 -0.0850006 0
0.198067 -0.375782 0
0.554908 0.111874 0
0.0257193 0.415968 0
-0.447293 -0.102447 0
-0.077602 -0.55394 0
0.375415 -0.10842 0
0.0311519 0.492417 0
-0.483159 0.246575 0
-0.172328 -0.335511 0
0.641541 -0.156742 0
0.521776 0.382075 0
-0.269007 0.169276 0
-0.40632 -0.579789 0
0.161782 -0.556688 0
0.223434 0.291547 0
-0.402748 0.616714 0
-0.502109 0.016979 0
0.290256 -0.332012 0
0.730706 0.143202 0
0.123128 0.404173 0
-0.471328 -0.222469 0
-0.138866 -0.718355 0
0.314342 -0.159933 0
-0.0685187 0.592701 0
-0.587891 0.377067 0
-0.160178 -0.267733 0
0.861246 -0.126607 0
0.733574 0.429462 0
-0.250266 0.106579 0
-0.495153 -0.80357 0
0.103924 -0.737608 0
0.148489 0.347741 0
-0.56228 0.81198 0
-0.604348 0.136879 0
0.41608 -0.302093 0
0.982003 0.188866 0
0.244486 0.416176 0
-0.529265 -0.376453 0
-0.219029 -0.955644 0
0.263196 -0.230187 0
-0.18903 0.747192 0
-0.74734 0.553048 0
-0.156272 -0.205772 0
