# vtk DataFile Version 3.0
tp3485 scalar+vector
ASCII
DATASET UNSTRUCTURED_GRID
POINTS 187 double
1 0 0
0.932472 0.361242 0
0.739009 0.673696 0
0.445738 0.895163 0
0.0922684 0.995734 0
-0.273663 0.961826 0
-0.602635 0.798017 0
-0.850217 0.526432 0
-0.982973 0.18375 0
-0.982973 -0.18375 0
-0.850217 -0.526432 0
-0.602635 -0.798017 0
-0.273663 -0.961826 0
0.0922684 -0.995734 0
0.445738 -0.895163 0
0.739009 -0.673696 0
0.932472 -0.361242 0
1.3 0 0
1.21221 0.469614 0
0.960712 0.875804 0
0.57946 1.16371 0
0.119949 1.29445 0
-0.355762 1.25037 0
-0.783425 1.03742 0
-1.10528 0.684362 0
-1.27787 0.238874 0
-1.27787 -0.238874 0
-1.10528 -0.684362 0
-0.783425 -1.03742 0
-0.355762 -1.25037 0
0.119949 -1.29445 0
0.57946 -1.16371 0
0.960712 -0.875804 0
1.21221 -0.469614 0
1.6 0 0
1.49196 0.577987 0
1.18241 1.07791 0
0.713181 1.43226 0
0.147629 1.59317 0
-0.437861 1.53892 0
-0.964215 1.27683 0
-1.36035 0.842291 0
-1.57276 0.293999 0
-1.57276 -0.293999 0
-1.36035 -0.842291 0
-0.964215 -1.27683 0
-0.437861 -1.53892 0
0.147629 -1.59317 0
0.713181 -1.43226 0
1.18241 -1.07791 0
1.49196 -0.577987 0
1.9 0 0
1.7717 0.686359 0
1.40412 1.28002 0
0.846903 1.70081 0
0.17531 1.89189 0
-0.51996 1.82747 0
-1.14501 1.51623 0
-1.61541 1.00022 0
-1.86765 0.349124 0
-1.86765 -0.349124 0
-1.61541 -1.00022 0
-1.14501 -1.51623 0
-0.51996 -1.82747 0
0.17531 -1.89189 0
0.846903 -1.70081 0
1.40412 -1.28002 0
1.7717 -0.686359 0
2.2 0 0
2.05144 0.794732 0
1.62582 1.48213 0
0.980624 1.96936 0
0.20299 2.19062 0
-0.602059 2.11602 0
-1.3258 1.75564 0
-1.87048 1.15815 0
-2.16254 0.404249 0
-2.16254 -0.404249 0
-1.87048 -1.15815 0
-1.3258 -1.75564 0
-0.602059 -2.11602 0
0.20299 -2.19062 0
0.980624 -1.96936 0
1.62582 -1.48213 0
2.05144 -0.794732 0
2.5 0 0
2.33118 0.903104 0
1.84752 1.68424 0
1.11435 2.23791 0
0.230671 2.48934 0
-0.684157 2.40456 0
-1.50659 1.99504 0
-2.12554 1.31608 0
-2.45743 0.459374 0
-2.45743 -0.459374 0
-2.12554 -1.31608 0
-1.50659 -1.99504 0
-0.684157 -2.40456 0
0.230671 -2.48934 0
1.11435 -2.23791 0
1.84752 -1.68424 0
2.33118 -0.903104 0
2.8 0 0
2.61092 1.01148 0
2.06922 1.88635 0
1.24807 2.50646 0
0.258351 2.78806 0
-0.766256 2.69311 0
-1.68738 2.23445 0
-2.38061 1.47401 0
-2.75232 0.514499 0
-2.75232 -0.514499 0
-2.38061 -1.47401 0
-1.68738 -2.23445 0
-0.766256 -2.69311 0
0.258351 -2.78806 0
1.24807 -2.50646 0
2.06922 -1.88635 0
2.61092 -1.01148 0
3.1 0 0
2.89066 1.11985 0
2.29093 2.08846 0
1.38179 2.77501 0
0.286032 3.08678 0
-0.848355 2.98166 0
-1.86817 2.47385 0
-2.63567 1.63194 0
-3.04722 0.569624 0
-3.04722 -0.569624 0
-2.63567 -1.63194 0
-1.86817 -2.47385 0
-0.848355 -2.98166 0
0.286032 -3.08678 0
1.38179 -2.77501 0
2.29093 -2.08846 0
2.89066 -1.11985 0
3.4 0 0
3.17041 1.22822 0
2.51263 2.29057 0
1.51551 3.04356 0
0.313712 3.3855 0
-0.930454 3.27021 0
-2.04896 2.71326 0
-2.89074 1.78987 0
-3.34211 0.624748 0
-3.34211 -0.624748 0
-2.89074 -1.78987 0
-2.04896 -2.71326 0
-0.930454 -3.27021 0
0.313712 -3.3855 0
1.51551 -3.04356 0
2.51263 -2.29057 0
3.17041 -1.22822 0
3.7 0 0
3.45015 1.33659 0
2.73433 2.49267 0
1.64923 3.3121 0
0.341393 3.68422 0
-1.01255 3.55875 0
-2.22975 2.95266 0
-3.1458 1.9478 0
-3.637 0.679873 0
-3.637 -0.679873 0
-3.1458 -1.9478 0
-2.22975 -2.95266 0
-1.01255 -3.55875 0
0.341393 -3.68422 0
1.64923 -3.3121 0
2.73433 -2.49267 0
3.45015 -1.33659 0
4 0 0
3.72989 1.44497 0
2.95604 2.69478 0
1.78295 3.58065 0
0.369073 3.98294 0
-1.09465 3.8473 0
-2.41054 3.19207 0
-3.40087 2.10573 0
-3.93189 0.734998 0
-3.93189 -0.734998 0
-3.40087 -2.10573 0
-2.41054 -3.19207 0
-1.09465 -3.8473 0
0.369073 -3.98294 0
1.78295 -3.58065 0
2.95604 -2.69478 0
3.72989 -1.44497 0
CELLS 340 1360
3 0 17 18
3 0 18 1
3 1 18 19
3 1 19 2
3 2 19 20
3 2 20 3
3 3 20 21
3 3 21 4
3 4 21 22
3 4 22 5
3 5 22 23
3 5 23 6
3 6 23 24
3 6 24 7
3 7 24 25
3 7 25 8
3 8 25 26
3 8 26 9
3 9 26 27
3 9 27 10
3 10 27 28
3 10 28 11
3 11 28 29
3 11 29 12
3 12 29 30
3 12 30 13
3 13 30 31
3 13 31 14
3 14 31 32
3 14 32 15
3 15 32 33
3 15 33 16
3 16 33 17
3 16 17 0
3 17 34 35
3 17 35 18
3 18 35 36
3 18 36 19
3 19 36 37
3 19 37 20
3 20 37 38
3 20 38 21
3 21 38 39
3 21 39 22
3 22 39 40
3 22 40 23
3 23 40 41
3 23 41 24
3 24 41 42
3 24 42 25
3 25 42 43
3 25 43 26
3 26 43 44
3 26 44 27
3 27 44 45
3 27 45 28
3 28 45 46
3 28 46 29
3 29 46 47
3 29 47 30
3 30 47 48
3 30 48 31
3 31 48 49
3 31 49 32
3 32 49 50
3 32 50 33
3 33 50 34
3 33 34 17
3 34 51 52
3 34 52 35
3 35 52 53
3 35 53 36
3 36 53 54
3 36 54 37
3 37 54 55
3 37 55 38
3 38 55 56
3 38 56 39
3 39 56 57
3 39 57 40
3 40 57 58
3 40 58 41
3 41 58 59
3 41 59 42
3 42 59 60
3 42 60 43
3 43 60 61
3 43 61 44
3 44 61 62
3 44 62 45
3 45 62 63
3 45 63 46
3 46 63 64
3 46 64 47
3 47 64 65
3 47 65 48
3 48 65 66
3 48 66 49
3 49 66 67
3 49 67 50
3 50 67 51
3 50 51 34
3 51 68 69
3 51 69 52
3 52 69 70
3 52 70 53
3 53 70 71
3 53 71 54
3 54 71 72
3 54 72 55
3 55 72 73
3 55 73 56
3 56 73 74
3 56 74 57
3 57 74 75
3 57 75 58
3 58 75 76
3 58 76 59
3 59 76 77
3 59 77 60
3 60 77 78
3 60 78 61
3 61 78 79
3 61 79 62
3 62 79 80
3 62 80 63
3 63 80 81
3 63 81 64
3 64 81 82
3 64 82 65
3 65 82 83
3 65 83 66
3 66 83 84
3 66 84 67
3 67 84 68
3 67 68 51
3 68 85 86
3 68 86 69
3 69 86 87
3 69 87 70
3 70 87 88
3 70 88 71
3 71 88 89
3 71 89 72
3 72 89 90
3 72 90 73
3 73 90 91
3 73 91 74
3 74 91 92
3 74 92 75
3 75 92 93
3 75 93 76
3 76 93 94
3 76 94 77
3 77 94 95
3 77 95 78
3 78 95 96
3 78 96 79
3 79 96 97
3 79 97 80
3 80 97 98
3 80 98 81
3 81 98 99
3 81 99 82
3 82 99 100
3 82 100 83
3 83 100 101
3 83 101 84
3 84 101 85
3 84 85 68
3 85 102 103
3 85 103 86
3 86 103 104
3 86 104 87
3 87 104 105
3 87 105 88
3 88 105 106
3 88 106 89
3 89 106 107
3 89 107 90
3 90 107 108
3 90 108 91
3 91 108 109
3 91 109 92
3 92 109 110
3 92 110 93
3 93 110 111
3 93 111 94
3 94 111 112
3 94 112 95
3 95 112 113
3 95 113 96
3 96 113 114
3 96 114 97
3 97 114 115
3 97 115 98
3 98 115 116
3 98 116 99
3 99 116 117
3 99 117 100
3 100 117 118
3 100 118 101
3 101 118 102
3 101 102 85
3 102 119 120
3 102 120 103
3 103 120 121
3 103 121 104
3 104 121 122
3 104 122 105
3 105 122 123
3 105 123 106
3 106 123 124
3 106 124 107
3 107 124 125
3 107 125 108
3 108 125 126
3 108 126 109
3 109 126 127
3 109 127 110
3 110 127 128
3 110 128 111
3 111 128 129
3 111 129 112
3 112 129 130
3 112 130 113
3 113 130 131
3 113 131 114
3 114 131 132
3 114 132 115
3 115 132 133
3 115 133 116
3 116 133 134
3 116 134 117
3 117 134 135
3 117 135 118
3 118 135 119
3 118 119 102
3 119 136 137
3 119 137 120
3 120 137 138
3 120 138 121
3 121 138 139
3 121 139 122
3 122 139 140
3 122 140 123
3 123 140 141
3 123 141 124
3 124 141 142
3 124 142 125
3 125 142 143
3 125 143 126
3 126 143 144
3 126 144 127
3 127 144 145
3 127 145 128
3 128 145 146
3 128 146 129
3 129 146 147
3 129 147 130
3 130 147 148
3 130 148 131
3 131 148 149
3 131 149 132
3 132 149 150
3 132 150 133
3 133 150 151
3 133 151 134
3 134 151 152
3 134 152 135
3 135 152 136
3 135 136 119
3 136 153 154
3 136 154 137
3 137 154 155
3 137 155 138
3 138 155 156
3 138 156 139
3 139 156 157
3 139 157 140
3 140 157 158
3 140 158 141
3 141 158 159
3 141 159 142
3 142 159 160
3 142 160 143
3 143 160 161
3 143 161 144
3 144 161 162
3 144 162 145
3 145 162 163
3 145 163 146
3 146 163 164
3 146 164 147
3 147 164 165
3 147 165 148
3 148 165 166
3 148 166 149
3 149 166 167
3 149 167 150
3 150 167 168
3 150 168 151
3 151 168 169
3 151 169 152
3 152 169 153
3 152 153 136
3 153 170 171
3 153 171 154
3 154 171 172
3 154 172 155
3 155 172 173
3 155 173 156
3 156 173 174
3 156 174 157
3 157 174 175
3 157 175 158
3 158 175 176
3 158 176 159
3 159 176 177
3 159 177 160
3 160 177 178
3 160 178 161
3 161 178 179
3 161 179 162
3 162 179 180
3 162 180 163
3 163 180 181
3 163 181 164
3 164 181 182
3 164 182 165
3 165 182 183
3 165 183 166
3 166 183 184
3 166 184 167
3 167 184 185
3 167 185 168
3 168 185 186
3 168 186 169
3 169 186 170
3 169 170 153
CELL_TYPES 340
5
5
5
5
5
5
5
5
5
5
5
5
5
5
5
5
5
5
5
5
5
5
5
5
5
5
5
5
5
5
5
5
5
5
5
5
5
5
5
5
5
5
5
5
5
5
5
5
5
5
5
5
5
5
5
5
5
5
5
5
5
5
5
5
5
5
5
5
5
5
5
5
5
5
5
5
5
5
5
5
5
5
5
5
5
5
5
5
5
5
5
5
5
5
5
5
5
5
5
5
5
5
5
5
5
5
5
5
5
5
5
5
5
5
5
5
5
5
5
5
5
5
5
5
5
5
5
5
5
5
5
5
5
5
5
5
5
5
5
5
5
5
5
5
5
5
5
5
5
5
5
5
5
5
5
5
5
5
5
5
5
5
5
5
5
5
5
5
5
5
5
5
5
5
5
5
5
5
5
5
5
5
5
5
5
5
5
5
5
5
5
5
5
5
5
5
5
5
5
5
5
5
5
5
5
5
5
5
5
5
5
5
5
5
5
5
5
5
5
5
5
5
5
5
5
5
5
5
5
5
5
5
5
5
5
5
5
5
5
5
5
5
5
5
5
5
5
5
5
5
5
5
5
5
5
5
5
5
5
5
5
5
5
5
5
5
5
5
5
5
5
5
5
5
5
5
5
5
5
5
5
5
5
5
5
5
5
5
5
5
5
5
5
5
5
5
5
5
5
5
5
5
5
5
5
5
5
5
5
5
5
5
5
5
5
5
5
5
5
5
5
5
5
5
5
5
5
5
5
5
5
5
5
5
5
5
5
5
5
5
POINT_DATA 187
SCALARS psi double 1
LOOKUP_TABLE default
0
0
0
0
0
0
0
0
0
0
0
0
0
0
0
0
0
0.270664
0.354073
0.252661
0.0193652
-0.224039
-0.350499
-0.294005
-0.0840451
0.169784
0.33499
0.325336
0.145863
-0.109748
-0.308073
-0.345589
-0.202714
0.0459742
0.472191
0.617156
0.439978
0.0331384
-0.390998
-0.611041
-0.512131
-0.145898
0.296491
0.584118
0.566845
0.253689
-0.191888
-0.537303
-0.602255
-0.352841
0.0807496
0.628405
0.82217
0.586776
0.0450962
-0.520123
-0.813848
-0.682758
-0.195281
0.39413
0.777811
0.75549
0.338816
-0.254714
-0.715287
-0.802494
-0.470813
0.106624
0.728622
0.954538
0.682202
0.0537684
-0.602731
-0.944615
-0.793428
-0.228085
0.456314
0.902525
0.877634
0.394634
-0.294359
-0.829701
-0.931954
-0.547744
0.122379
0.762595
1
0.715423
0.0574077
-0.630573
-0.989406
-0.831787
-0.239989
0.477078
0.945119
0.919825
0.414399
-0.307337
-0.868648
-0.97654
-0.574696
0.127129
0.726445
0.953079
0.682222
0.0552582
-0.60055
-0.942882
-0.793046
-0.229254
0.454204
0.900576
0.876863
0.395444
-0.29239
-0.827602
-0.93082
-0.548167
0.12062
0.635401
0.833702
0.596825
0.0484164
-0.525265
-0.824768
-0.693756
-0.200616
0.397242
0.787746
0.767062
0.345984
-0.255691
-0.7239
-0.814246
-0.479571
0.105432
0.504362
0.66169
0.473627
0.0383398
-0.41696
-0.654615
-0.550572
-0.15914
0.31536
0.625247
0.608767
0.274521
-0.20302
-0.574588
-0.646232
-0.380554
0.0837662
0.333383
0.437427
0.313142
0.0254017
-0.275597
-0.43274
-0.363999
-0.105258
0.208426
0.413316
0.402462
0.18153
-0.134157
-0.379817
-0.427219
-0.25162
0.0553197
0
0
0
0
0
0
0
0
0
0
0
0
0
0
0
0
0
VECTORS Et double
-0.685438 -0.272254 0
-0.84198 -0.30907 0
-0.672278 -0.212541 0
-0.399049 0.143775 0
-0.273106 0.595071 0
-0.302358 0.836902 0
-0.260829 0.736221 0
0.034702 0.460623 0
0.490633 0.28501 0
0.808697 0.29098 0
0.788623 0.291651 0
0.529567 0.0631658 0
0.309814 -0.377021 0
0.279488 -0.757645 0
0.306764 -0.825068 0
0.146341 -0.601713 0
-0.25959 -0.348086 0
-0.476934 -0.41111 0
-0.591025 -0.203495 0
-0.630411 0.029104 0
-0.584699 0.252076 0
-0.454941 0.438427 0
-0.25917 0.568965 0
-0.0294015 0.628267 0
0.198871 0.604318 0
0.396417 0.494572 0
0.542442 0.312704 0
0.620876 0.0880369 0
0.61849 -0.1437 0
0.529612 -0.351165 0
0.363531 -0.511686 0
0.146257 -0.608397 0
-0.0869642 -0.627179 0
-0.302951 -0.559738 0
-0.266908 -0.451905 0
-0.336663 -0.102979 0
-0.516209 0.192097 0
-0.634589 0.292047 0
-0.51963 0.269488 0
-0.194326 0.305663 0
0.134541 0.468432 0
0.284852 0.622461 0
0.276395 0.573156 0
0.283751 0.285595 0
0.420457 -0.0646624 0
0.596714 -0.266847 0
0.610588 -0.284647 0
0.372747 -0.271098 0
0.0154748 -0.375607 0
-0.236229 -0.560177 0
-0.290964 -0.631018 0
-0.0562822 -0.422394 0
-0.0790119 -0.00547424 0
-0.348944 0.30034 0
-0.586574 0.284897 0
-0.500325 0.092593 0
-0.113573 0.0451088 0
0.251512 0.270171 0
0.316708 0.549816 0
0.139074 0.55776 0
0.0302324 0.223281 0
0.195435 -0.182013 0
0.494614 -0.331879 0
0.591829 -0.190469 0
0.328252 -0.0344739 0
-0.0948797 -0.130205 0
-0.32705 -0.425774 0
-0.241016 -0.601283 0
0.113632 -0.367473 0
0.130264 0.0719672 0
-0.190432 0.36375 0
-0.504453 0.258705 0
-0.447582 -0.0533095 0
-0.0413164 -0.163783 0
0.325358 0.0931437 0
0.318873 0.450958 0
0.0210062 0.503743 0
-0.17185 0.157394 0
0.00296456 -0.261254 0
0.376609 -0.359022 0
0.53254 -0.102656 0
0.268573 0.154453 0
-0.175027 0.0733601 0
-0.374815 -0.287424 0
-0.184344 -0.532551 0
0.246888 -0.312525 0
0.294969 0.132333 0
-0.0571243 0.404506 0
-0.423536 0.230478 0
-0.392051 -0.168936 0
0.0181398 -0.327145 0
0.375588 -0.052221 0
0.31172 0.358105 0
-0.0743289 0.445538 0
-0.329433 0.0997121 0
-0.152179 -0.317648 0
0.270493 -0.37079 0
0.469232 -0.0293356 0
0.212668 0.301889 0
-0.234614 0.235174 0
-0.402693 -0.167517 0
-0.133738 -0.46162 0
0.346238 -0.262245 0
0.418042 0.176989 0
0.0491047 0.427671 0
-0.350367 0.20321 0
-0.339546 -0.256137 0
0.0646167 -0.448434 0
0.406853 -0.165499 0
0.299233 0.277001 0
-0.147655 0.389741 0
-0.446113 0.0520116 0
-0.27092 -0.355052 0
0.180905 -0.371883 0
0.408897 0.028963 0
0.163856 0.411186 0
-0.27638 0.357311 0
-0.415761 -0.0693735 0
-0.0910014 -0.395457 0
0.419764 -0.217468 0
0.509179 0.209674 0
0.133089 0.438751 0
-0.285866 0.17777 0
-0.291668 -0.321528 0
0.100711 -0.537648 0
0.424796 -0.253112 0
0.283966 0.207444 0
-0.203846 0.338384 0
-0.531712 0.012919 0
-0.361097 -0.378827 0
0.10624 -0.366237 0
0.353601 0.0751999 0
0.121943 0.491514 0
-0.30502 0.448725 0
-0.418948 0.0101954 0
-0.0551301 -0.335756 0
0.489495 -0.178122 0
0.595349 0.240787 0
0.210212 0.451582 0
-0.229144 0.15559 0
-0.250001 -0.383254 0
0.134234 -0.622293 0
0.443815 -0.334331 0
0.271739 0.145634 0
-0.256462 0.293878 0
-0.613072 -0.0225998 0
-0.445365 -0.402878 0
0.0391413 -0.363318 0
0.305639 0.117942 0
0.084571 0.567861 0
-0.333051 0.534719 0
-0.424444 0.0825035 0
-0.0226584 -0.2837 0
0.59879 -0.144004 0
0.729755 0.290904 0
0.310917 0.493585 0
-0.178345 0.139641 0
-0.217601 -0.476984 0
0.180646 -0.756613 0
0.492405 -0.447225 0
0.274201 0.0839768 0
-0.33212 0.26091 0
-0.7431 -0.0645247 0
-0.568487 -0.454753 0
-0.034999 -0.38196 0
0.26945 0.173938 0
0.0470293 0.689441 0
-0.385232 0.665229 0
-0.45641 0.169966 0
0.013095 -0.241521 0
0.762158 -0.115108 0
0.930249 0.36693 0
0.445359 0.57397 0
-0.132911 0.130993 0
-0.195562 -0.614642 0
0.245118 -0.958787 0
0.580185 -0.604564 0
0.29532 0.0199769 0
-0.439695 0.241122 0
-0.939519 -0.116167 0
-0.745442 -0.543697 0
-0.121043 -0.428557 0
0.246596 0.248747 0
0.00778779 0.87274 0
-0.469892 0.857007 0
-0.522989 0.280052 0
0.0543057 -0.210039 0
