# vtk DataFile Version 3.0
tp3485 scalar+vector
ASCII
DATASET UNSTRUCTURED_GRID
POINTS 187 double
1 0 0
0.932472 0.361242 0
0.739009 0.673696 0
0.445738 0.895163 0
0.0922684 0.995734 0
-0.273663 0.961826 0
-0.602635 0.798017 0
-0.850217 0.526432 0
-0.982973 0.18375 0
-0.982973 -0.18375 0
-0.850217 -0.526432 0
-0.602635 -0.798017 0
-0.273663 -0.961826 0
0.0922684 -0.995734 0
0.445738 -0.895163 0
0.739009 -0.673696 0
0.932472 -0.361242 0
1.3 0 0
1.21221 0.469614 0
0.960712 0.875804 0
0.57946 1.16371 0
0.119949 1.29445 0
-0.355762 1.25037 0
-0.783425 1.03742 0
-1.10528 0.684362 0
-1.27787 0.238874 0
-1.27787 -0.238874 0
-1.10528 -0.684362 0
-0.783425 -1.03742 0
-0.355762 -1.25037 0
0.119949 -1.29445 0
0.57946 -1.16371 0
0.960712 -0.875804 0
1.21221 -0.469614 0
1.6 0 0
1.49196 0.577987 0
1.18241 1.07791 0
0.713181 1.43226 0
0.147629 1.59317 0
-0.437861 1.53892 0
-0.964215 1.27683 0
-1.36035 0.842291 0
-1.57276 0.293999 0
-1.57276 -0.293999 0
-1.36035 -0.842291 0
-0.964215 -1.27683 0
-0.437861 -1.53892 0
0.147629 -1.59317 0
0.713181 -1.43226 0
1.18241 -1.07791 0
1.49196 -0.577987 0
1.9 0 0
1.7717 0.686359 0
1.40412 1.28002 0
0.846903 1.70081 0
0.17531 1.89189 0
-0.51996 1.82747 0
-1.14501 1.51623 0
-1.61541 1.00022 0
-1.86765 0.349124 0
-1.86765 -0.349124 0
-1.61541 -1.00022 0
-1.14501 -1.51623 0
-0.51996 -1.82747 0
0.17531 -1.89189 0
0.846903 -1.70081 0
1.40412 -1.28002 0
1.7717 -0.686359 0
2.2 0 0
2.05144 0.794732 0
1.62582 1.48213 0
0.980624 1.96936 0
0.20299 2.19062 0
-0.602059 2.11602 0
-1.3258 1.75564 0
-1.87048 1.15815 0
-2.16254 0.404249 0
-2.16254 -0.404249 0
-1.87048 -1.15815 0
-1.3258 -1.75564 0
-0.602059 -2.11602 0
0.20299 -2.19062 0
0.980624 -1.96936 0
1.62582 -1.48213 0
2.05144 -0.794732 0
2.5 0 0
2.33118 0.903104 0
1.84752 1.68424 0
1.11435 2.23791 0
0.230671 2.48934 0
-0.684157 2.40456 0
-1.50659 1.99504 0
-2.12554 1.31608 0
-2.45743 0.459374 0
-2.45743 -0.459374 0
-2.12554 -1.31608 0
-1.50659 -1.99504 0
-0.684157 -2.40456 0
0.230671 -2.48934 0
1.11435 -2.23791 0
1.84752 -1.68424 0
2.33118 -0.903104 0
2.8 0 0
2.61092 1.01148 0
2.06922 1.88635 0
1.24807 2.50646 0
0.258351 2.78806 0
-0.766256 2.69311 0
-1.68738 2.23445 0
-2.38061 1.47401 0
-2.75232 0.514499 0
-2.75232 -0.514499 0
-2.38061 -1.47401 0
-1.68738 -2.23445 0
-0.766256 -2.69311 0
0.258351 -2.78806 0
1.24807 -2.50646 0
2.06922 -1.88635 0
2.61092 -1.01148 0
3.1 0 0
2.89066 1.11985 0
2.29093 2.08846 0
1.38179 2.77501 0
0.286032 3.08678 0
-0.848355 2.98166 0
-1.86817 2.47385 0
-2.63567 1.63194 0
-3.04722 0.569624 0
-3.04722 -0.569624 0
-2.63567 -1.63194 0
-1.86817 -2.47385 0
-0.848355 -2.98166 0
0.286032 -3.08678 0
1.38179 -2.77501 0
2.29093 -2.08846 0
2.89066 -1.11985 0
3.4 0 0
3.17041 1.22822 0
2.51263 2.29057 0
1.51551 3.04356 0
0.313712 3.3855 0
-0.930454 3.27021 0
-2.04896 2.71326 0
-2.89074 1.78987 0
-3.34211 0.624748 0
-3.34211 -0.624748 0
-2.89074 -1.78987 0
-2.04896 -2.71326 0
-0.930454 -3.27021 0
0.313712 -3.3855 0
1.51551 -3.04356 0
2.51263 -2.29057 0
3.17041 -1.22822 0
3.7 0 0
3.45015 1.33659 0
2.73433 2.49267 0
1.64923 3.3121 0
0.341393 3.68422 0
-1.01255 3.55875 0
-2.22975 2.95266 0
-3.1458 1.9478 0
-3.637 0.679873 0
-3.637 -0.679873 0
-3.1458 -1.9478 0
-2.22975 -2.95266 0
-1.01255 -3.55875 0
0.341393 -3.68422 0
1.64923 -3.3121 0
2.73433 -2.49267 0
3.45015 -1.33659 0
4 0 0
3.72989 1.44497 0
2.95604 2.69478 0
1.78295 3.58065 0
0.369073 3.98294 0
-1.09465 3.8473 0
-2.41054 3.19207 0
-3.40087 2.10573 0
-3.93189 0.734998 0
-3.93189 -0.734998 0
-3.40087 -2.10573 0
-2.41054 -3.19207 0
-1.09465 -3.8473 0
0.369073 -3.98294 0
1.78295 -3.58065 0
2.95604 -2.69478 0
3.72989 -1.44497 0
CELLS 340 1360
3 0 17 18
3 0 18 1
3 1 18 19
3 1 19 2
3 2 19 20
3 2 20 3
3 3 20 21
3 3 21 4
3 4 21 22
3 4 22 5
3 5 22 23
3 5 23 6
3 6 23 24
3 6 24 7
3 7 24 25
3 7 25 8
3 8 25 26
3 8 26 9
3 9 26 27
3 9 27 10
3 10 27 28
3 10 28 11
3 11 28 29
3 11 29 12
3 12 29 30
3 12 30 13
3 13 30 31
3 13 31 14
3 14 31 32
3 14 32 15
3 15 32 33
3 15 33 16
3 16 33 17
3 16 17 0
3 17 34 35
3 17 35 18
3 18 35 36
3 18 36 19
3 19 36 37
3 19 37 20
3 20 37 38
3 20 38 21
3 21 38 39
3 21 39 22
3 22 39 40
3 22 40 23
3 23 40 41
3 23 41 24
3 24 41 42
3 24 42 25
3 25 42 43
3 25 43 26
3 26 43 44
3 26 44 27
3 27 44 45
3 27 45 28
3 28 45 46
3 28 46 29
3 29 46 47
3 29 47 30
3 30 47 48
3 30 48 31
3 31 48 49
3 31 49 32
3 32 49 50
3 32 50 33
3 33 50 34
3 33 34 17
3 34 51 52
3 34 52 35
3 35 52 53
3 35 53 36
3 36 53 54
3 36 54 37
3 37 54 55
3 37 55 38
3 38 55 56
3 38 56 39
3 39 56 57
3 39 57 40
3 40 57 58
3 40 58 41
3 41 58 59
3 41 59 42
3 42 59 60
3 42 60 43
3 43 60 61
3 43 61 44
3 44 61 62
3 44 62 45
3 45 62 63
3 45 63 46
3 46 63 64
3 46 64 47
3 47 64 65
3 47 65 48
3 48 65 66
3 48 66 49
3 49 66 67
3 49 67 50
3 50 67 51
3 50 51 34
3 51 68 69
3 51 69 52
3 52 69 70
3 52 70 53
3 53 70 71
3 53 71 54
3 54 71 72
3 54 72 55
3 55 72 73
3 55 73 56
3 56 73 74
3 56 74 57
3 57 74 75
3 57 75 58
3 58 75 76
3 58 76 59
3 59 76 77
3 59 77 60
3 60 77 78
3 60 78 61
3 61 78 79
3 61 79 62
3 62 79 80
3 62 80 63
3 63 80 81
3 63 81 64
3 64 81 82
3 64 82 65
3 65 82 83
3 65 83 66
3 66 83 84
3 66 84 67
3 67 84 68
3 67 68 51
3 68 85 86
3 68 86 69
3 69 86 87
3 69 87 70
3 70 87 88
3 70 88 71
3 71 88 89
3 71 89 72
3 72 89 90
3 72 90 73
3 73 90 91
3 73 91 74
3 74 91 92
3 74 92 75
3 75 92 93
3 75 93 76
3 76 93 94
3 76 94 77
3 77 94 95
3 77 95 78
3 78 95 96
3 78 96 79
3 79 96 97
3 79 97 80
3 80 97 98
3 80 98 81
3 81 98 99
3 81 99 82
3 82 99 100
3 82 100 83
3 83 100 101
3 83 101 84
3 84 101 85
3 84 85 68
3 85 102 103
3 85 103 86
3 86 103 104
3 86 104 87
3 87 104 105
3 87 105 88
3 88 105 106
3 88 106 89
3 89 106 107
3 89 107 90
3 90 107 108
3 90 108 91
3 91 108 109
3 91 109 92
3 92 109 110
3 92 110 93
3 93 110 111
3 93 111 94
3 94 111 112
3 94 112 95
3 95 112 113
3 95 113 96
3 96 113 114
3 96 114 97
3 97 114 115
3 97 115 98
3 98 115 116
3 98 116 99
3 99 116 117
3 99 117 100
3 100 117 118
3 100 118 101
3 101 118 102
3 101 102 85
3 102 119 120
3 102 120 103
3 103 120 121
3 103 121 104
3 104 121 122
3 104 122 105
3 105 122 123
3 105 123 106
3 106 123 124
3 106 124 107
3 107 124 125
3 107 125 108
3 108 125 126
3 108 126 109
3 109 126 127
3 109 127 110
3 110 127 128
3 110 128 111
3 111 128 129
3 111 129 112
3 112 129 130
3 112 130 113
3 113 130 131
3 113 131 114
3 114 131 132
3 114 132 115
3 115 132 133
3 115 133 116
3 116 133 134
3 116 134 117
3 117 134 135
3 117 135 118
3 118 135 119
3 118 119 102
3 119 136 137
3 119 137 120
3 120 137 138
3 120 138 121
3 121 138 139
3 121 139 122
3 122 139 140
3 122 140 123
3 123 140 141
3 123 141 124
3 124 141 142
3 124 142 125
3 125 142 143
3 125 143 126
3 126 143 144
3 126 144 127
3 127 144 145
3 127 145 128
3 128 145 146
3 128 146 129
3 129 146 147
3 129 147 130
3 130 147 148
3 130 148 131
3 131 148 149
3 131 149 132
3 132 149 150
3 132 150 133
3 133 150 151
3 133 151 134
3 134 151 152
3 134 152 135
3 135 152 136
3 135 136 119
3 136 153 154
3 136 154 137
3 137 154 155
3 137 155 138
3 138 155 156
3 138 156 139
3 139 156 157
3 139 157 140
3 140 157 158
3 140 158 141
3 141 158 159
3 141 159 142
3 142 159 160
3 142 160 143
3 143 160 161
3 143 161 144
3 144 161 162
3 144 162 145
3 145 162 163
3 145 163 146
3 146 163 164
3 146 164 147
3 147 164 165
3 147 165 148
3 148 165 166
3 148 166 149
3 149 166 167
3 149 167 150
3 150 167 168
3 150 168 151
3 151 168 169
3 151 169 152
3 152 169 153
3 152 153 136
3 153 170 171
3 153 171 154
3 154 171 172
3 154 172 155
3 155 172 173
3 155 173 156
3 156 173 174
3 156 174 157
3 157 174 175
3 157 175 158
3 158 175 176
3 158 176 159
3 159 176 177
3 159 177 160
3 160 177 178
3 160 178 161
3 161 178 179
3 161 179 162
3 162 179 180
3 162 180 163
3 163 180 181
3 163 181 164
3 164 181 182
3 164 182 165
3 165 182 183
3 165 183 166
3 166 183 184
3 166 184 167
3 167 184 185
3 167 185 168
3 168 185 186
3 168 186 169
3 169 186 170
3 169 170 153
CELL_TYPES 340
5
5
5
5
5
5
5
5
5
5
5
5
5
5
5
5
5
5
5
5
5
5
5
5
5
5
5
5
5
5
5
5
5
5
5
5
5
5
5
5
5
5
5
5
5
5
5
5
5
5
5
5
5
5
5
5
5
5
5
5
5
5
5
5
5
5
5
5
5
5
5
5
5
5
5
5
5
5
5
5
5
5
5
5
5
5
5
5
5
5
5
5
5
5
5
5
5
5
5
5
5
5
5
5
5
5
5
5
5
5
5
5
5
5
5
5
5
5
5
5
5
5
5
5
5
5
5
5
5
5
5
5
5
5
5
5
5
5
5
5
5
5
5
5
5
5
5
5
5
5
5
5
5
5
5
5
5
5
5
5
5
5
5
5
5
5
5
5
5
5
5
5
5
5
5
5
5
5
5
5
5
5
5
5
5
5
5
5
5
5
5
5
5
5
5
5
5
5
5
5
5
5
5
5
5
5
5
5
5
5
5
5
5
5
5
5
5
5
5
5
5
5
5
5
5
5
5
5
5
5
5
5
5
5
5
5
5
5
5
5
5
5
5
5
5
5
5
5
5
5
5
5
5
5
5
5
5
5
5
5
5
5
5
5
5
5
5
5
5
5
5
5
5
5
5
5
5
5
5
5
5
5
5
5
5
5
5
5
5
5
5
5
5
5
5
5
5
5
5
5
5
5
5
5
5
5
5
5
5
5
5
5
5
5
5
5
5
5
5
5
5
5
5
5
5
5
5
5
5
5
5
5
5
5
5
5
5
5
5
5
POINT_DATA 187
SCALARS psi double 1
LOOKUP_TABLE default
0
0
0
0
0
0
0
0
0
0
0
0
0
0
0
0
0
0.400392
0.442028
0.423966
0.348644
0.226236
0.0732741
-0.0895843
-0.240344
-0.358644
-0.428507
-0.440497
-0.392996
-0.292419
-0.152349
0.00829635
0.167822
0.304681
0.657866
0.725998
0.696079
0.572152
0.370952
0.119653
-0.147806
-0.395303
-0.589412
-0.703917
-0.723355
-0.645099
-0.47972
-0.249551
0.0143205
0.276258
0.500886
0.824829
0.910353
0.872928
0.71761
0.465374
0.150287
-0.185097
-0.495483
-0.738951
-0.882619
-0.907085
-0.809045
-0.601738
-0.313163
0.0177064
0.346184
0.627908
0.905857
1
0.959087
0.788644
0.51169
0.16563
-0.2028
-0.54384
-0.811432
-0.969435
-0.996511
-0.889003
-0.661429
-0.344526
0.0189067
0.379786
0.689374
0.903777
0.997855
0.957168
0.787209
0.510934
0.165654
-0.201999
-0.54237
-0.809491
-0.967286
-0.994444
-0.887296
-0.660314
-0.344153
0.0184874
0.378631
0.687639
0.825217
0.911167
0.874059
0.718904
0.466657
0.151386
-0.184331
-0.495153
-0.739101
-0.88323
-0.908074
-0.810278
-0.603049
-0.314375
0.0167576
0.345627
0.627817
0.695623
0.768037
0.736724
0.605912
0.393269
0.127512
-0.155466
-0.417448
-0.62305
-0.744507
-0.765413
-0.682947
-0.508244
-0.264901
0.0142192
0.291419
0.529261
0.537006
0.592854
0.568633
0.467616
0.303444
0.098291
-0.120137
-0.32234
-0.481009
-0.574715
-0.590803
-0.527099
-0.392208
-0.204347
0.0111123
0.225071
0.408632
0.351887
0.388477
0.3726
0.306402
0.198823
0.0643913
-0.0787367
-0.211231
-0.315197
-0.376594
-0.38713
-0.345382
-0.256988
-0.133887
0.00729697
0.147495
0.267773
0
0
0
0
0
0
0
0
0
0
0
0
0
0
0
0
0
VECTORS Et double
-0.905831 -0.105224 0
-0.925832 -0.377935 0
-0.756888 -0.592945 0
-0.487187 -0.638024 0
-0.257505 -0.489639 0
-0.187735 -0.225247 0
-0.314294 0.0171455 0
-0.57112 0.111014 0
-0.824156 0.00735981 0
-0.941321 -0.23971 0
-0.861457 -0.501231 0
-0.626251 -0.640693 0
-0.358477 -0.585299 0
-0.197908 -0.363964 0
-0.228359 -0.0922217 0
-0.433934 0.0880842 0
-0.707327 0.082837 0
-0.556869 -0.149459 0
-0.563883 -0.24582 0
-0.504147 -0.321755 0
-0.408845 -0.33763 0
-0.327722 -0.285157 0
-0.303122 -0.191726 0
-0.347886 -0.106106 0
-0.438649 -0.0729904 0
-0.528033 -0.109664 0
-0.569382 -0.196984 0
-0.541113 -0.289371 0
-0.45798 -0.3386 0
-0.363379 -0.318976 0
-0.306689 -0.24074 0
-0.317501 -0.144732 0
-0.390173 -0.081065 0
-0.486769 -0.0829726 0
-0.254337 -0.154894 0
-0.252401 -0.126185 0
-0.270312 -0.103666 0
-0.29872 -0.0990897 0
-0.322796 -0.114846 0
-0.329974 -0.14271 0
-0.316506 -0.168138 0
-0.289423 -0.177856 0
-0.262861 -0.166791 0
-0.250686 -0.14072 0
-0.259252 -0.113251 0
-0.284088 -0.0987224 0
-0.31223 -0.104718 0
-0.328989 -0.128107 0
-0.325616 -0.156683 0
-0.303873 -0.175528 0
-0.275108 -0.174807 0
0.00317111 -0.138314 0
0.0115775 -0.0209311 0
-0.0612903 0.0714794 0
-0.177397 0.0906801 0
-0.276137 0.0266495 0
-0.305969 -0.0871901 0
-0.251322 -0.191417 0
-0.140721 -0.231625 0
-0.0318967 -0.186828 0
0.0183456 -0.0804085 0
-0.016219 0.032084 0
-0.11755 0.0919314 0
-0.232752 0.0678935 0
-0.301693 -0.027482 0
-0.288387 -0.144411 0
-0.19978 -0.221859 0
-0.0821217 -0.219399 0
0.188009 -0.116221 0
0.200581 0.0563092 0
0.0936402 0.192281 0
-0.0769931 0.220718 0
-0.222252 0.126779 0
-0.266313 -0.0405028 0
-0.186177 -0.193809 0
-0.023674 -0.253117 0
0.136372 -0.187468 0
0.210421 -0.0311314 0
0.15982 0.134289 0
0.0109813 0.222448 0
-0.158403 0.187325 0
-0.259918 0.0472563 0
-0.240574 -0.124646 0
-0.110469 -0.238652 0
0.0624849 -0.235252 0
0.321349 -0.0961127 0
0.336732 0.112733 0
0.207403 0.277437 0
0.000865892 0.312024 0
-0.175067 0.198443 0
-0.228564 -0.00402092 0
-0.131699 -0.189684 0
0.0649639 -0.261634 0
0.258772 -0.182314 0
0.348561 0.00687258 0
0.287461 0.207173 0
0.107368 0.314036 0
-0.0977162 0.271677 0
-0.220739 0.102211 0
-0.197485 -0.105906 0
-0.0400926 -0.24404 0
0.169282 -0.240088 0
0.413037 -0.0788663 0
0.430151 0.152095 0
0.287201 0.334307 0
0.0588036 0.372659 0
-0.135821 0.24713 0
-0.195082 0.0232455 0
-0.0880475 -0.182131 0
0.129414 -0.261797 0
0.34379 -0.174168 0
0.443181 0.0350151 0
0.375704 0.256561 0
0.176587 0.374831 0
-0.0502416 0.328085 0
-0.186377 0.140726 0
-0.160761 -0.0894469 0
0.0132372 -0.242289 0
0.244792 -0.23802 0
0.474039 -0.0642598 0
0.49208 0.178781 0
0.341675 0.370542 0
0.101338 0.41093 0
-0.103484 0.278863 0
-0.165876 0.0432761 0
-0.0532701 -0.172857 0
0.175556 -0.256722 0
0.401157 -0.164537 0
0.505775 0.0555738 0
0.434802 0.28872 0
0.225282 0.413203 0
-0.0134175 0.364041 0
-0.1567 0.166901 0
-0.129774 -0.0753156 0
0.0533033 -0.236175 0
0.296971 -0.231713 0
0.526611 -0.0519048 0
0.545419 0.201726 0
0.388445 0.401828 0
0.137634 0.443958 0
-0.0761012 0.30612 0
-0.141192 0.0602641 0
-0.0236626 -0.165277 0
0.215138 -0.252774 0
0.450562 -0.156557 0
0.55972 0.073153 0
0.485636 0.316448 0
0.266979 0.446337 0
0.017883 0.395017 0
-0.131626 0.189276 0
-0.103508 -0.0634913 0
0.0875602 -0.231346 0
0.341844 -0.226669 0
0.614141 -0.0415034 0
0.634848 0.238293 0
0.461662 0.459021 0
0.184961 0.505447 0
-0.0507984 0.353359 0
-0.122565 0.0821323 0
0.0071226 -0.166655 0
0.270571 -0.263142 0
0.530264 -0.156962 0
0.650647 0.09646 0
0.568885 0.364842 0
0.327646 0.50809 0
0.0528666 0.451439 0
-0.112032 0.224453 0
-0.0809738 -0.0543826 0
0.129831 -0.239527 0
0.410339 -0.234323 0
0.753705 -0.0329083 0
0.77797 0.295325 0
0.574752 0.554221 0
0.250168 0.608666 0
-0.0263833 0.430221 0
-0.110539 0.112037 0
0.0416291 -0.179801 0
0.350686 -0.292951 0
0.655322 -0.168363 0
0.79651 0.128939 0
0.70055 0.443762 0
0.417557 0.611793 0
0.0952132 0.54529 0
-0.0982007 0.278995 0
-0.061731 -0.0481035 0
0.185582 -0.265262 0
0.514649 -0.25913 0
