# vtk DataFile Version 3.0
tp3485 scalar+vector
ASCII
DATASET UNSTRUCTURED_GRID
POINTS 187 double
1 0 0
0.932472 0.361242 0
0.739009 0.673696 0
0.445738 0.895163 0
0.0922684 0.995734 0
-0.273663 0.961826 0
-0.602635 0.798017 0
-0.850217 0.526432 0
-0.982973 0.18375 0
-0.982973 -0.18375 0
-0.850217 -0.526432 0
-0.602635 -0.798017 0
-0.273663 -0.961826 0
0.0922684 -0.995734 0
0.445738 -0.895163 0
0.739009 -0.673696 0
0.932472 -0.361242 0
1.3 0 0
1.21221 0.469614 0
0.960712 0.875804 0
0.57946 1.16371 0
0.119949 1.29445 0
-0.355762 1.25037 0
-0.783425 1.03742 0
-1.10528 0.684362 0
-1.27787 0.238874 0
-1.27787 -0.238874 0
-1.10528 -0.684362 0
-0.783425 -1.03742 0
-0.355762 -1.25037 0
0.119949 -1.29445 0
0.57946 -1.16371 0
0.960712 -0.875804 0
1.21221 -0.469614 0
1.6 0 0
1.49196 0.577987 0
1.18241 1.07791 0
0.713181 1.43226 0
0.147629 1.59317 0
-0.437861 1.53892 0
-0.964215 1.27683 0
-1.36035 0.842291 0
-1.57276 0.293999 0
-1.57276 -0.293999 0
-1.36035 -0.842291 0
-0.964215 -1.27683 0
-0.437861 -1.53892 0
0.147629 -1.59317 0
0.713181 -1.43226 0
1.18241 -1.07791 0
1.49196 -0.577987 0
1.9 0 0
1.7717 0.686359 0
1.40412 1.28002 0
0.846903 1.70081 0
0.17531 1.89189 0
-0.51996 1.82747 0
-1.14501 1.51623 0
-1.61541 1.00022 0
-1.86765 0.349124 0
-1.86765 -0.349124 0
-1.61541 -1.00022 0
-1.14501 -1.51623 0
-0.51996 -1.82747 0
0.17531 -1.89189 0
0.846903 -1.70081 0
1.40412 -1.28002 0
1.7717 -0.686359 0
2.2 0 0
2.05144 0.794732 0
1.62582 1.48213 0
0.980624 1.96936 0
0.20299 2.19062 0
-0.602059 2.11602 0
-1.3258 1.75564 0
-1.87048 1.15815 0
-2.16254 0.404249 0
-2.16254 -0.404249 0
-1.87048 -1.15815 0
-1.3258 -1.75564 0
-0.602059 -2.11602 0
0.20299 -2.19062 0
0.980624 -1.96936 0
1.62582 -1.48213 0
2.05144 -0.794732 0
2.5 0 0
2.33118 0.903104 0
1.84752 1.68424 0
1.11435 2.23791 0
0.230671 2.48934 0
-0.684157 2.40456 0
-1.50659 1.99504 0
-2.12554 1.31608 0
-2.45743 0.459374 0
-2.45743 -0.459374 0
-2.12554 -1.31608 0
-1.50659 -1.99504 0
-0.684157 -2.40456 0
0.230671 -2.48934 0
1.11435 -2.23791 0
1.84752 -1.68424 0
2.33118 -0.903104 0
2.8 0 0
2.61092 1.01148 0
2.06922 1.88635 0
1.24807 2.50646 0
0.258351 2.78806 0
-0.766256 2.69311 0
-1.68738 2.23445 0
-2.38061 1.47401 0
-2.75232 0.514499 0
-2.75232 -0.514499 0
-2.38061 -1.47401 0
-1.68738 -2.23445 0
-0.766256 -2.69311 0
0.258351 -2.78806 0
1.24807 -2.50646 0
2.06922 -1.88635 0
2.61092 -1.01148 0
3.1 0 0
2.89066 1.11985 0
2.29093 2.08846 0
1.38179 2.77501 0
0.286032 3.08678 0
-0.848355 2.98166 0
-1.86817 2.47385 0
-2.63567 1.63194 0
-3.04722 0.569624 0
-3.04722 -0.569624 0
-2.63567 -1.63194 0
-1.86817 -2.47385 0
-0.848355 -2.98166 0
0.286032 -3.08678 0
1.38179 -2.77501 0
2.29093 -2.08846 0
2.89066 -1.11985 0
3.4 0 0
3.17041 1.22822 0
2.51263 2.29057 0
1.51551 3.04356 0
0.313712 3.3855 0
-0.930454 3.27021 0
-2.04896 2.71326 0
-2.89074 1.78987 0
-3.34211 0.624748 0
-3.34211 -0.624748 0
-2.89074 -1.78987 0
-2.04896 -2.71326 0
-0.930454 -3.27021 0
0.313712 -3.3855 0
1.51551 -3.04356 0
2.51263 -2.29057 0
3.17041 -1.22822 0
3.7 0 0
3.45015 1.33659 0
2.73433 2.49267 0
1.64923 3.3121 0
0.341393 3.68422 0
-1.01255 3.55875 0
-2.22975 2.95266 0
-3.1458 1.9478 0
-3.637 0.679873 0
-3.637 -0.679873 0
-3.1458 -1.9478 0
-2.22975 -2.95266 0
-1.01255 -3.55875 0
0.341393 -3.68422 0
1.64923 -3.3121 0
2.73433 -2.49267 0
3.45015 -1.33659 0
4 0 0
3.72989 1.44497 0
2.95604 2.69478 0
1.78295 3.58065 0
0.369073 3.98294 0
-1.09465 3.8473 0
-2.41054 3.19207 0
-3.40087 2.10573 0
-3.93189 0.734998 0
-3.93189 -0.734998 0
-3.40087 -2.10573 0
-2.41054 -3.19207 0
-1.09465 -3.8473 0
0.369073 -3.98294 0
1.78295 -3.58065 0
2.95604 -2.69478 0
3.72989 -1.44497 0
CELLS 340 1360
3 0 17 18
3 0 18 1
3 1 18 19
3 1 19 2
3 2 19 20
3 2 20 3
3 3 20 21
3 3 21 4
3 4 21 22
3 4 22 5
3 5 22 23
3 5 23 6
3 6 23 24
3 6 24 7
3 7 24 25
3 7 25 8
3 8 25 26
3 8 26 9
3 9 26 27
3 9 27 10
3 10 27 28
3 10 28 11
3 11 28 29
3 11 29 12
3 12 29 30
3 12 30 13
3 13 30 31
3 13 31 14
3 14 31 32
3 14 32 15
3 15 32 33
3 15 33 16
3 16 33 17
3 16 17 0
3 17 34 35
3 17 35 18
3 18 35 36
3 18 36 19
3 19 36 37
3 19 37 20
3 20 37 38
3 20 38 21
3 21 38 39
3 21 39 22
3 22 39 40
3 22 40 23
3 23 40 41
3 23 41 24
3 24 41 42
3 24 42 25
3 25 42 43
3 25 43 26
3 26 43 44
3 26 44 27
3 27 44 45
3 27 45 28
3 28 45 46
3 28 46 29
3 29 46 47
3 29 47 30
3 30 47 48
3 30 48 31
3 31 48 49
3 31 49 32
3 32 49 50
3 32 50 33
3 33 50 34
3 33 34 17
3 34 51 52
3 34 52 35
3 35 52 53
3 35 53 36
3 36 53 54
3 36 54 37
3 37 54 55
3 37 55 38
3 38 55 56
3 38 56 39
3 39 56 57
3 39 57 40
3 40 57 58
3 40 58 41
3 41 58 59
3 41 59 42
3 42 59 60
3 42 60 43
3 43 60 61
3 43 61 44
3 44 61 62
3 44 62 45
3 45 62 63
3 45 63 46
3 46 63 64
3 46 64 47
3 47 64 65
3 47 65 48
3 48 65 66
3 48 66 49
3 49 66 67
3 49 67 50
3 50 67 51
3 50 51 34
3 51 68 69
3 51 69 52
3 52 69 70
3 52 70 53
3 53 70 71
3 53 71 54
3 54 71 72
3 54 72 55
3 55 72 73
3 55 73 56
3 56 73 74
3 56 74 57
3 57 74 75
3 57 75 58
3 58 75 76
3 58 76 59
3 59 76 77
3 59 77 60
3 60 77 78
3 60 78 61
3 61 78 79
3 61 79 62
3 62 79 80
3 62 80 63
3 63 80 81
3 63 81 64
3 64 81 82
3 64 82 65
3 65 82 83
3 65 83 66
3 66 83 84
3 66 84 67
3 67 84 68
3 67 68 51
3 68 85 86
3 68 86 69
3 69 86 87
3 69 87 70
3 70 87 88
3 70 88 71
3 71 88 89
3 71 89 72
3 72 89 90
3 72 90 73
3 73 90 91
3 73 91 74
3 74 91 92
3 74 92 75
3 75 92 93
3 75 93 76
3 76 93 94
3 76 94 77
3 77 94 95
3 77 95 78
3 78 95 96
3 78 96 79
3 79 96 97
3 79 97 80
3 80 97 98
3 80 98 81
3 81 98 99
3 81 99 82
3 82 99 100
3 82 100 83
3 83 100 101
3 83 101 84
3 84 101 85
3 84 85 68
3 85 102 103
3 85 103 86
3 86 103 104
3 86 104 87
3 87 104 105
3 87 105 88
3 88 105 106
3 88 106 89
3 89 106 107
3 89 107 90
3 90 107 108
3 90 108 91
3 91 108 109
3 91 109 92
3 92 109 110
3 92 110 93
3 93 110 111
3 93 111 94
3 94 111 112
3 94 112 95
3 95 112 113
3 95 113 96
3 96 113 114
3 96 114 97
3 97 114 115
3 97 115 98
3 98 115 116
3 98 116 99
3 99 116 117
3 99 117 100
3 100 117 118
3 100 118 101
3 101 118 102
3 101 102 85
3 102 119 120
3 102 120 103
3 103 120 121
3 103 121 104
3 104 121 122
3 104 122 105
3 105 122 123
3 105 123 106
3 106 123 124
3 106 124 107
3 107 124 125
3 107 125 108
3 108 125 126
3 108 126 109
3 109 126 127
3 109 127 110
3 110 127 128
3 110 128 111
3 111 128 129
3 111 129 112
3 112 129 130
3 112 130 113
3 113 130 131
3 113 131 114
3 114 131 132
3 114 132 115
3 115 132 133
3 115 133 116
3 116 133 134
3 116 134 117
3 117 134 135
3 117 135 118
3 118 135 119
3 118 119 102
3 119 136 137
3 119 137 120
3 120 137 138
3 120 138 121
3 121 138 139
3 121 139 122
3 122 139 140
3 122 140 123
3 123 140 141
3 123 141 124
3 124 141 142
3 124 142 125
3 125 142 143
3 125 143 126
3 126 143 144
3 126 144 127
3 127 144 145
3 127 145 128
3 128 145 146
3 128 146 129
3 129 146 147
3 129 147 130
3 130 147 148
3 130 148 131
3 131 148 149
3 131 149 132
3 132 149 150
3 132 150 133
3 133 150 151
3 133 151 134
3 134 151 152
3 134 152 135
3 135 152 136
3 135 136 119
3 136 153 154
3 136 154 137
3 137 154 155
3 137 155 138
3 138 155 156
3 138 156 139
3 139 156 157
3 139 157 140
3 140 157 158
3 140 158 141
3 141 158 159
3 141 159 142
3 142 159 160
3 142 160 143
3 143 160 161
3 143 161 144
3 144 161 162
3 144 162 145
3 145 162 163
3 145 163 146
3 146 163 164
3 146 164 147
3 147 164 165
3 147 165 148
3 148 165 166
3 148 166 149
3 149 166 167
3 149 167 150
3 150 167 168
3 150 168 151
3 151 168 169
3 151 169 152
3 152 169 153
3 152 153 136
3 153 170 171
3 153 171 154
3 154 171 172
3 154 172 155
3 155 172 173
3 155 173 156
3 156 173 174
3 156 174 157
3 157 174 175
3 157 175 158
3 158 175 176
3 158 176 159
3 159 176 177
3 159 177 160
3 160 177 178
3 160 178 161
3 161 178 179
3 161 179 162
3 162 179 180
3 162 180 163
3 163 180 181
3 163 181 164
3 164 181 182
3 164 182 165
3 165 182 183
3 165 183 166
3 166 183 184
3 166 184 167
3 167 184 185
3 167 185 168
3 168 185 186
3 168 186 169
3 169 186 170
3 169 170 153
CELL_TYPES 340
5
5
5
5
5
5
5
5
5
5
5
5
5
5
5
5
5
5
5
5
5
5
5
5
5
5
5
5
5
5
5
5
5
5
5
5
5
5
5
5
5
5
5
5
5
5
5
5
5
5
5
5
5
5
5
5
5
5
5
5
5
5
5
5
5
5
5
5
5
5
5
5
5
5
5
5
5
5
5
5
5
5
5
5
5
5
5
5
5
5
5
5
5
5
5
5
5
5
5
5
5
5
5
5
5
5
5
5
5
5
5
5
5
5
5
5
5
5
5
5
5
5
5
5
5
5
5
5
5
5
5
5
5
5
5
5
5
5
5
5
5
5
5
5
5
5
5
5
5
5
5
5
5
5
5
5
5
5
5
5
5
5
5
5
5
5
5
5
5
5
5
5
5
5
5
5
5
5
5
5
5
5
5
5
5
5
5
5
5
5
5
5
5
5
5
5
5
5
5
5
5
5
5
5
5
5
5
5
5
5
5
5
5
5
5
5
5
5
5
5
5
5
5
5
5
5
5
5
5
5
5
5
5
5
5
5
5
5
5
5
5
5
5
5
5
5
5
5
5
5
5
5
5
5
5
5
5
5
5
5
5
5
5
5
5
5
5
5
5
5
5
5
5
5
5
5
5
5
5
5
5
5
5
5
5
5
5
5
5
5
5
5
5
5
5
5
5
5
5
5
5
5
5
5
5
5
5
5
5
5
5
5
5
5
5
5
5
5
5
5
5
5
5
5
5
5
5
5
5
5
5
5
5
5
5
5
5
5
5
5
POINT_DATA 187
SCALARS psi double 1
LOOKUP_TABLE default
0
0
0
0
0
0
0
0
0
0
0
0
0
0
0
0
0
0.123651
0.10162
-0.104898
-0.120978
0.0825733
0.136216
-0.0574365
-0.146815
0.0303438
0.152414
-0.00221777
-0.152823
-0.0259838
0.148029
0.0533005
-0.138193
-0.0788021
0.267825
0.222041
-0.22685
-0.263903
0.178151
0.296779
-0.123384
-0.319547
0.0644158
0.331434
-0.003254
-0.332035
-0.0580186
0.321328
0.117316
-0.299679
-0.172617
0.437072
0.36662
-0.369417
-0.434791
0.289182
0.488156
-0.1991
-0.524897
0.102237
0.543764
-0.00189229
-0.544113
-0.0985165
0.525933
0.195571
-0.489843
-0.285965
0.604824
0.512149
-0.510314
-0.60632
0.398426
0.679844
-0.272969
-0.730217
0.138217
0.755724
0.00124128
-0.755495
-0.140658
0.729538
0.275284
-0.678738
-0.400536
0.735348
0.626841
-0.619673
-0.741193
0.482896
0.830305
-0.329674
-0.891142
0.165225
0.921632
0.00484956
-0.920737
-0.174759
0.888488
0.338718
-0.825982
-0.491142
0.796273
0.681745
-0.670466
-0.805471
0.521827
0.901767
-0.355418
-0.967354
0.176905
1
0.00763153
-0.998592
-0.191908
0.963178
0.36965
-0.894964
-0.534804
0.774671
0.665085
-0.651938
-0.785391
0.507005
0.878952
-0.344806
-0.942581
0.170865
0.974112
0.00889454
-0.972471
-0.188351
0.937713
0.361394
-0.871023
-0.522129
0.662736
0.569959
-0.557557
-0.672849
0.433392
0.752826
-0.294468
-0.807166
0.145516
0.834019
0.00839088
-0.83247
-0.162012
0.802573
0.310116
-0.745345
-0.44766
0.446023
0.384304
-0.375105
-0.453525
0.291413
0.507301
-0.197797
-0.543802
0.0974458
0.561784
0.00622404
-0.560636
-0.109682
0.540395
0.209405
-0.501753
-0.301996
0
0
0
0
0
0
0
0
0
0
0
0
0
0
0
0
0
VECTORS Et double
-0.276745 -0.169633 0
-0.292035 0.113587 0
0.0324127 0.31188 0
0.277126 0.168629 0
0.222604 -0.204828 0
-0.0392352 -0.331723 0
-0.287136 -0.058295 0
-0.240008 0.242407 0
0.115464 0.262235 0
0.343064 0.0353732 0
0.148013 -0.242626 0
-0.188053 -0.289145 0
-0.285923 0.0172964 0
-0.106176 0.324287 0
0.183064 0.228567 0
0.3132 -0.116587 0
0.0803643 -0.291425 0
-0.279521 -0.319146 0
-0.364166 0.281521 0
-0.0898693 0.44833 0
0.41343 0.108446 0
0.432364 -0.224555 0
-0.1431 -0.368486 0
-0.470862 -0.198281 0
-0.210301 0.303213 0
0.15799 0.501906 0
0.353416 0.0144998 0
0.281223 -0.451296 0
-0.172933 -0.30772 0
-0.521106 0.0795734 0
-0.174485 0.322866 0
0.387163 0.336187 0
0.39067 -0.0373928 0
0.0100883 -0.489667 0
-0.239872 -0.425768 0
-0.382346 0.410895 0
-0.202754 0.521464 0
0.489723 0.0301447 0
0.583405 -0.210938 0
-0.227151 -0.349608 0
-0.589031 -0.312453 0
-0.148192 0.318362 0
0.178078 0.672637 0
0.309798 -0.00782107 0
0.375381 -0.597749 0
-0.129771 -0.280764 0
-0.683725 0.131886 0
-0.219691 0.272028 0
0.538192 0.395322 0
0.411875 0.0508759 0
-0.0639199 -0.618513 0
-0.140112 -0.458283 0
-0.31794 0.474661 0
-0.291551 0.493551 0
0.471667 -0.0710917 0
0.633863 -0.149112 0
-0.277448 -0.248627 0
-0.600056 -0.378114 0
-0.0405109 0.265588 0
0.164037 0.726684 0
0.188647 -0.0330002 0
0.403001 -0.64064 0
-0.0495913 -0.186077 0
-0.725546 0.166614 0
-0.224667 0.151225 0
0.599692 0.376714 0
0.34599 0.1444 0
-0.139477 -0.634493 0
-0.0248172 -0.441036 0
-0.217757 0.488377 0
-0.34881 0.412169 0
0.402443 -0.166541 0
0.615804 -0.0714349 0
-0.29888 -0.11929 0
-0.546688 -0.402524 0
0.0732721 0.183803 0
0.133184 0.702283 0
0.0457807 -0.055471 0
0.386276 -0.615212 0
0.036277 -0.0699611 0
-0.689021 0.184794 0
-0.204824 0.013129 0
0.597567 0.316231 0
0.241957 0.222537 0
-0.201764 -0.581854 0
0.0868687 -0.405511 0
-0.111766 0.4816 0
-0.388725 0.316574 0
0.319055 -0.252049 0
0.572249 0.00582818 0
-0.307508 0.0104716 0
-0.472582 -0.408526 0
0.180219 0.0976268 0
0.0985243 0.649095 0
-0.0937291 -0.0752991 0
0.353374 -0.565268 0
0.117028 0.0450803 0
-0.624832 0.19523 0
-0.176647 -0.120213 0
0.5709 0.244209 0
0.131514 0.287924 0
-0.253941 -0.506774 0
0.186812 -0.361645 0
-0.0113237 0.462648 0
-0.414485 0.22026 0
0.234047 -0.324002 0
0.516568 0.0763116 0
-0.307439 0.129331 0
-0.391863 -0.402646 0
0.273742 0.0161363 0
0.0643579 0.582579 0
-0.219188 -0.0918061 0
0.313322 -0.504297 0
0.187666 0.149622 0
-0.548973 0.199853 0
-0.145675 -0.239207 0
0.531215 0.171275 0
0.0264941 0.339801 0
-0.295278 -0.424214 0
0.278541 -0.314337 0
0.0839514 0.437788 0
-0.432349 0.125574 0
0.150126 -0.387299 0
0.455761 0.141835 0
-0.302896 0.239866 0
-0.309368 -0.390777 0
0.358257 -0.0610707 0
0.0310789 0.510583 0
-0.334585 -0.106294 0
0.270522 -0.438858 0
0.251457 0.24648 0
-0.468736 0.201246 0
-0.113851 -0.348172 0
0.485597 0.0995611 0
-0.0735007 0.383504 0
-0.329999 -0.339629 0
0.386362 -0.267046 0
0.191883 0.418204 0
-0.460291 0.0218129 0
0.0592774 -0.465256 0
0.396071 0.21787 0
-0.303618 0.367785 0
-0.222685 -0.384793 0
0.459484 -0.148307 0
-0.00571384 0.439497 0
-0.469759 -0.124707 0
0.227789 -0.373717 0
0.327254 0.359512 0
-0.387764 0.206399 0
-0.0801247 -0.476483 0
0.443586 0.0213721 0
-0.186888 0.439354 0
-0.374863 -0.251493 0
0.555823 -0.222134 0
0.348316 0.4207 0
-0.528526 -0.114686 0
-0.0572842 -0.600524 0
0.343491 0.333658 0
-0.325373 0.5627 0
-0.122559 -0.402846 0
0.625308 -0.274127 0
-0.0549506 0.374789 0
-0.681227 -0.157858 0
0.186405 -0.31253 0
0.449992 0.534242 0
-0.306483 0.227309 0
-0.0405236 -0.679287 0
0.417938 -0.0810957 0
-0.350368 0.543217 0
-0.459995 -0.151517 0
0.794331 -0.181274 0
0.558622 0.449444 0
-0.642969 -0.286594 0
-0.201572 -0.800654 0
0.300775 0.49376 0
-0.371594 0.832506 0
-0.00907012 -0.449045 0
0.863828 -0.442755 0
-0.117653 0.319353 0
-0.978203 -0.20765 0
0.147609 -0.25768 0
0.625594 0.777976 0
-0.226898 0.266556 0
0.00498562 -0.965638 0
0.412482 -0.209954 0
-0.569249 0.701618 0
-0.591003 -0.0399466 0
