# vtk DataFile Version 3.0
tp3485 scalar+vector
ASCII
DATASET UNSTRUCTURED_GRID
POINTS 187 double
1 0 0
0.932472 0.361242 0
0.739009 0.673696 0
0.445738 0.895163 0
0.0922684 0.995734 0
-0.273663 0.961826 0
-0.602635 0.798017 0
-0.850217 0.526432 0
-0.982973 0.18375 0
-0.982973 -0.18375 0
-0.850217 -0.526432 0
-0.602635 -0.798017 0
-0.273663 -0.961826 0
0.0922684 -0.995734 0
0.445738 -0.895163 0
0.739009 -0.673696 0
0.932472 -0.361242 0
1.3 0 0
1.21221 0.469614 0
0.960712 0.875804 0
0.57946 1.16371 0
0.119949 1.29445 0
-0.355762 1.25037 0
-0.783425 1.03742 0
-1.10528 0.684362 0
-1.27787 0.238874 0
-1.27787 -0.238874 0
-1.10528 -0.684362 0
-0.783425 -1.03742 0
-0.355762 -1.25037 0
0.119949 -1.29445 0
0.57946 -1.16371 0
0.960712 -0.875804 0
1.21221 -0.469614 0
1.6 0 0
1.49196 0.577987 0
1.18241 1.07791 0
0.713181 1.43226 0
0.147629 1.59317 0
-0.437861 1.53892 0
-0.964215 1.27683 0
-1.36035 0.842291 0
-1.57276 0.293999 0
-1.57276 -0.293999 0
-1.36035 -0.842291 0
-0.964215 -1.27683 0
-0.437861 -1.53892 0
0.147629 -1.59317 0
0.713181 -1.43226 0
1.18241 -1.07791 0
1.49196 -0.577987 0
1.9 0 0
1.7717 0.686359 0
1.40412 1.28002 0
0.846903 1.70081 0
0.17531 1.89189 0
-0.51996 1.82747 0
-1.14501 1.51623 0
-1.61541 1.00022 0
-1.86765 0.349124 0
-1.86765 -0.349124 0
-1.61541 -1.00022 0
-1.14501 -1.51623 0
-0.51996 -1.82747 0
0.17531 -1.89189 0
0.846903 -1.70081 0
1.40412 -1.28002 0
1.7717 -0.686359 0
2.2 0 0
2.05144 0.794732 0
1.62582 1.48213 0
0.980624 1.96936 0
0.20299 2.19062 0
-0.602059 2.11602 0
-1.3258 1.75564 0
-1.87048 1.15815 0
-2.16254 0.404249 0
-2.16254 -0.404249 0
-1.87048 -1.15815 0
-1.3258 -1.75564 0
-0.602059 -2.11602 0
0.20299 -2.19062 0
0.980624 -1.96936 0
1.62582 -1.48213 0
2.05144 -0.794732 0
2.5 0 0
2.33118 0.903104 0
1.84752 1.68424 0
1.11435 2.23791 0
0.230671 2.48934 0
-0.684157 2.40456 0
-1.50659 1.99504 0
-2.12554 1.31608 0
-2.45743 0.459374 0
-2.45743 -0.459374 0
-2.12554 -1.31608 0
-1.50659 -1.99504 0
-0.684157 -2.40456 0
0.230671 -2.48934 0
1.11435 -2.23791 0
1.84752 -1.68424 0
2.33118 -0.903104 0
2.8 0 0
2.61092 1.01148 0
2.06922 1.88635 0
1.24807 2.50646 0
0.258351 2.78806 0
-0.766256 2.69311 0
-1.68738 2.23445 0
-2.38061 1.47401 0
-2.75232 0.514499 0
-2.75232 -0.514499 0
-2.38061 -1.47401 0
-1.68738 -2.23445 0
-0.766256 -2.69311 0
0.258351 -2.78806 0
1.24807 -2.50646 0
2.06922 -1.88635 0
2.61092 -1.01148 0
3.1 0 0
2.89066 1.11985 0
2.29093 2.08846 0
1.38179 2.77501 0
0.286032 3.08678 0
-0.848355 2.98166 0
-1.86817 2.47385 0
-2.63567 1.63194 0
-3.04722 0.569624 0
-3.04722 -0.569624 0
-2.63567 -1.63194 0
-1.86817 -2.47385 0
-0.848355 -2.98166 0
0.286032 -3.08678 0
1.38179 -2.77501 0
2.29093 -2.08846 0
2.89066 -1.11985 0
3.4 0 0
3.17041 1.22822 0
2.51263 2.29057 0
1.51551 3.04356 0
0.313712 3.3855 0
-0.930454 3.27021 0
-2.04896 2.71326 0
-2.89074 1.78987 0
-3.34211 0.624748 0
-3.34211 -0.624748 0
-2.89074 -1.78987 0
-2.04896 -2.71326 0
-0.930454 -3.27021 0
0.313712 -3.3855 0
1.51551 -3.04356 0
2.51263 -2.29057 0
3.17041 -1.22822 0
3.7 0 0
3.45015 1.33659 0
2.73433 2.49267 0
1.64923 3.3121 0
0.341393 3.68422 0
-1.01255 3.55875 0
-2.22975 2.95266 0
-3.1458 1.9478 0
-3.637 0.679873 0
-3.637 -0.679873 0
-3.1458 -1.9478 0
-2.22975 -2.95266 0
-1.01255 -3.55875 0
0.341393 -3.68422 0
1.64923 -3.3121 0
2.73433 -2.49267 0
3.45015 -1.33659 0
4 0 0
3.72989 1.44497 0
2.95604 2.69478 0
1.78295 3.58065 0
0.369073 3.98294 0
-1.09465 3.8473 0
-2.41054 3.19207 0
-3.40087 2.10573 0
-3.93189 0.734998 0
-3.93189 -0.734998 0
-3.40087 -2.10573 0
-2.41054 -3.19207 0
-1.09465 -3.8473 0
0.369073 -3.98294 0
1.78295 -3.58065 0
2.95604 -2.69478 0
3.72989 -1.44497 0
CELLS 340 1360
3 0 17 18
3 0 18 1
3 1 18 19
3 1 19 2
3 2 19 20
3 2 20 3
3 3 20 21
3 3 21 4
3 4 21 22
3 4 22 5
3 5 22 23
3 5 23 6
3 6 23 24
3 6 24 7
3 7 24 25
3 7 25 8
3 8 25 26
3 8 26 9
3 9 26 27
3 9 27 10
3 10 27 28
3 10 28 11
3 11 28 29
3 11 29 12
3 12 29 30
3 12 30 13
3 13 30 31
3 13 31 14
3 14 31 32
3 14 32 15
3 15 32 33
3 15 33 16
3 16 33 17
3 16 17 0
3 17 34 35
3 17 35 18
3 18 35 36
3 18 36 19
3 19 36 37
3 19 37 20
3 20 37 38
3 20 38 21
3 21 38 39
3 21 39 22
3 22 39 40
3 22 40 23
3 23 40 41
3 23 41 24
3 24 41 42
3 24 42 25
3 25 42 43
3 25 43 26
3 26 43 44
3 26 44 27
3 27 44 45
3 27 45 28
3 28 45 46
3 28 46 29
3 29 46 47
3 29 47 30
3 30 47 48
3 30 48 31
3 31 48 49
3 31 49 32
3 32 49 50
3 32 50 33
3 33 50 34
3 33 34 17
3 34 51 52
3 34 52 35
3 35 52 53
3 35 53 36
3 36 53 54
3 36 54 37
3 37 54 55
3 37 55 38
3 38 55 56
3 38 56 39
3 39 56 57
3 39 57 40
3 40 57 58
3 40 58 41
3 41 58 59
3 41 59 42
3 42 59 60
3 42 60 43
3 43 60 61
3 43 61 44
3 44 61 62
3 44 62 45
3 45 62 63
3 45 63 46
3 46 63 64
3 46 64 47
3 47 64 65
3 47 65 48
3 48 65 66
3 48 66 49
3 49 66 67
3 49 67 50
3 50 67 51
3 50 51 34
3 51 68 69
3 51 69 52
3 52 69 70
3 52 70 53
3 53 70 71
3 53 71 54
3 54 71 72
3 54 72 55
3 55 72 73
3 55 73 56
3 56 73 74
3 56 74 57
3 57 74 75
3 57 75 58
3 58 75 76
3 58 76 59
3 59 76 77
3 59 77 60
3 60 77 78
3 60 78 61
3 61 78 79
3 61 79 62
3 62 79 80
3 62 80 63
3 63 80 81
3 63 81 64
3 64 81 82
3 64 82 65
3 65 82 83
3 65 83 66
3 66 83 84
3 66 84 67
3 67 84 68
3 67 68 51
3 68 85 86
3 68 86 69
3 69 86 87
3 69 87 70
3 70 87 88
3 70 88 71
3 71 88 89
3 71 89 72
3 72 89 90
3 72 90 73
3 73 90 91
3 73 91 74
3 74 91 92
3 74 92 75
3 75 92 93
3 75 93 76
3 76 93 94
3 76 94 77
3 77 94 95
3 77 95 78
3 78 95 96
3 78 96 79
3 79 96 97
3 79 97 80
3 80 97 98
3 80 98 81
3 81 98 99
3 81 99 82
3 82 99 100
3 82 100 83
3 83 100 101
3 83 101 84
3 84 101 85
3 84 85 68
3 85 102 103
3 85 103 86
3 86 103 104
3 86 104 87
3 87 104 105
3 87 105 88
3 88 105 106
3 88 106 89
3 89 106 107
3 89 107 90
3 90 107 108
3 90 108 91
3 91 108 109
3 91 109 92
3 92 109 110
3 92 110 93
3 93 110 111
3 93 111 94
3 94 111 112
3 94 112 95
3 95 112 113
3 95 113 96
3 96 113 114
3 96 114 97
3 97 114 115
3 97 115 98
3 98 115 116
3 98 116 99
3 99 116 117
3 99 117 100
3 100 117 118
3 100 118 101
3 101 118 102
3 101 102 85
3 102 119 120
3 102 120 103
3 103 120 121
3 103 121 104
3 104 121 122
3 104 122 105
3 105 122 123
3 105 123 106
3 106 123 124
3 106 124 107
3 107 124 125
3 107 125 108
3 108 125 126
3 108 126 109
3 109 126 127
3 109 127 110
3 110 127 128
3 110 128 111
3 111 128 129
3 111 129 112
3 112 129 130
3 112 130 113
3 113 130 131
3 113 131 114
3 114 131 132
3 114 132 115
3 115 132 133
3 115 133 116
3 116 133 134
3 116 134 117
3 117 134 135
3 117 135 118
3 118 135 119
3 118 119 102
3 119 136 137
3 119 137 120
3 120 137 138
3 120 138 121
3 121 138 139
3 121 139 122
3 122 139 140
3 122 140 123
3 123 140 141
3 123 141 124
3 124 141 142
3 124 142 125
3 125 142 143
3 125 143 126
3 126 143 144
3 126 144 127
3 127 144 145
3 127 145 128
3 128 145 146
3 128 146 129
3 129 146 147
3 129 147 130
3 130 147 148
3 130 148 131
3 131 148 149
3 131 149 132
3 132 149 150
3 132 150 133
3 133 150 151
3 133 151 134
3 134 151 152
3 134 152 135
3 135 152 136
3 135 136 119
3 136 153 154
3 136 154 137
3 137 154 155
3 137 155 138
3 138 155 156
3 138 156 139
3 139 156 157
3 139 157 140
3 140 157 158
3 140 158 141
3 141 158 159
3 141 159 142
3 142 159 160
3 142 160 143
3 143 160 161
3 143 161 144
3 144 161 162
3 144 162 145
3 145 162 163
3 145 163 146
3 146 163 164
3 146 164 147
3 147 164 165
3 147 165 148
3 148 165 166
3 148 166 149
3 149 166 167
3 149 167 150
3 150 167 168
3 150 168 151
3 151 168 169
3 151 169 152
3 152 169 153
3 152 153 136
3 153 170 171
3 153 171 154
3 154 171 172
3 154 172 155
3 155 172 173
3 155 173 156
3 156 173 174
3 156 174 157
3 157 174 175
3 157 175 158
3 158 175 176
3 158 176 159
3 159 176 177
3 159 177 160
3 160 177 178
3 160 178 161
3 161 178 179
3 161 179 162
3 162 179 180
3 162 180 163
3 163 180 181
3 163 181 164
3 164 181 182
3 164 182 165
3 165 182 183
3 165 183 166
3 166 183 184
3 166 184 167
3 167 184 185
3 167 185 168
3 168 185 186
3 168 186 169
3 169 186 170
3 169 170 153
CELL_TYPES 340
5
5
5
5
5
5
5
5
5
5
5
5
5
5
5
5
5
5
5
5
5
5
5
5
5
5
5
5
5
5
5
5
5
5
5
5
5
5
5
5
5
5
5
5
5
5
5
5
5
5
5
5
5
5
5
5
5
5
5
5
5
5
5
5
5
5
5
5
5
5
5
5
5
5
5
5
5
5
5
5
5
5
5
5
5
5
5
5
5
5
5
5
5
5
5
5
5
5
5
5
5
5
5
5
5
5
5
5
5
5
5
5
5
5
5
5
5
5
5
5
5
5
5
5
5
5
5
5
5
5
5
5
5
5
5
5
5
5
5
5
5
5
5
5
5
5
5
5
5
5
5
5
5
5
5
5
5
5
5
5
5
5
5
5
5
5
5
5
5
5
5
5
5
5
5
5
5
5
5
5
5
5
5
5
5
5
5
5
5
5
5
5
5
5
5
5
5
5
5
5
5
5
5
5
5
5
5
5
5
5
5
5
5
5
5
5
5
5
5
5
5
5
5
5
5
5
5
5
5
5
5
5
5
5
5
5
5
5
5
5
5
5
5
5
5
5
5
5
5
5
5
5
5
5
5
5
5
5
5
5
5
5
5
5
5
5
5
5
5
5
5
5
5
5
5
5
5
5
5
5
5
5
5
5
5
5
5
5
5
5
5
5
5
5
5
5
5
5
5
5
5
5
5
5
5
5
5
5
5
5
5
5
5
5
5
5
5
5
5
5
5
5
5
5
5
5
5
5
5
5
5
5
5
5
5
5
5
5
5
5
POINT_DATA 187
SCALARS psi double 1
LOOKUP_TABLE default
0
0
0
0
0
0
0
0
0
0
0
0
0
0
0
0
0
0.0902747
-0.114355
-0.111377
0.0938017
0.128687
-0.0700542
-0.141615
0.0439211
0.14972
-0.0162923
-0.152726
-0.0118914
0.150532
0.0396701
-0.143211
-0.0660978
0.131014
0.197468
-0.247512
-0.243143
0.202643
0.280538
-0.150874
-0.30838
0.0939661
0.32572
-0.0338588
-0.331968
-0.0274016
0.326912
0.0877289
-0.310723
-0.145069
0.283952
0.326522
-0.403529
-0.400988
0.329532
0.461799
-0.244313
-0.506884
0.150774
0.534707
-0.0521012
-0.544322
-0.0483462
0.5354
0.147147
-0.508246
-0.240937
0.463784
0.456664
-0.557962
-0.559629
0.45469
0.643536
-0.335934
-0.705528
0.205738
0.743494
-0.0685364
-0.756141
-0.0709995
0.743039
0.208118
-0.704634
-0.338148
0.642233
0.559385
-0.677988
-0.684499
0.551673
0.786303
-0.406571
-0.86133
0.247624
0.907026
-0.0802444
-0.921834
-0.0898678
0.90525
0.25692
-0.857839
-0.415222
0.781215
0.608703
-0.733886
-0.744132
0.596566
0.85422
-0.438931
-0.935219
0.266349
0.98437
-0.0846965
-1
-0.0998403
0.981576
0.280977
-0.929725
-0.452545
0.846214
0.594025
-0.713807
-0.725749
0.57988
0.832758
-0.426205
-0.911409
0.258017
0.959022
-0.0810423
-0.973977
-0.0986923
0.955765
0.275066
-0.905005
-0.442073
0.823427
0.509168
-0.610576
-0.621842
0.495824
0.713339
-0.364186
-0.780545
0.220147
0.82117
-0.068611
-0.833832
-0.0852616
0.818098
0.236231
-0.774505
-0.379155
0.704536
0.343392
-0.410853
-0.41921
0.333494
0.480751
-0.244777
-0.525922
0.147726
0.553183
-0.045643
-0.561605
-0.0579938
0.550903
0.159656
-0.521441
-0.255881
0.474222
0
0
0
0
0
0
0
0
0
0
0
0
0
0
0
0
0
VECTORS Et double
-0.206003 0.227345 0
0.170045 0.268964 0
0.31673 0.0283906 0
0.108144 -0.287326 0
-0.177177 -0.276593 0
-0.285539 0.080074 0
-0.109876 0.318513 0
0.224822 0.180675 0
0.322422 -0.115283 0
0.0187405 -0.283325 0
-0.293827 -0.179523 0
-0.243318 0.146276 0
0.0445769 0.339569 0
0.263393 0.117226 0
0.233333 -0.243246 0
-0.0593095 -0.29038 0
-0.327157 -0.0313553 0
-0.21235 0.424036 0
0.111895 0.425073 0
0.433517 -0.0897034 0
0.284256 -0.376052 0
-0.306824 -0.271527 0
-0.498108 0.0192272 0
-0.0431749 0.377471 0
0.348467 0.38344 0
0.320609 -0.160657 0
0.0666798 -0.524399 0
-0.298735 -0.183057 0
-0.441764 0.2912 0
0.00201481 0.357196 0
0.499183 0.144014 0
0.315449 -0.20727 0
-0.203781 -0.457363 0
-0.377334 -0.151627 0
-0.186193 0.561248 0
0.0346331 0.522229 0
0.486855 -0.197159 0
0.423148 -0.410735 0
-0.392421 -0.22476 0
-0.641964 -0.0463713 0
0.0312088 0.379698 0
0.423236 0.534174 0
0.269956 -0.181493 0
0.105648 -0.693126 0
-0.257386 -0.159971 0
-0.578656 0.396367 0
-0.0435562 0.321251 0
0.665753 0.149295 0
0.353221 -0.137993 0
-0.321438 -0.559044 0
-0.372043 -0.253611 0
-0.112214 0.600492 0
-0.0643162 0.522395 0
0.441584 -0.282567 0
0.494288 -0.361911 0
-0.407518 -0.118 0
-0.671359 -0.113015 0
0.113674 0.297545 0
0.419727 0.594588 0
0.149037 -0.166175 0
0.127113 -0.740834 0
-0.150832 -0.0966066 0
-0.612549 0.43517 0
-0.0880306 0.207056 0
0.7169 0.120838 0
0.319853 -0.0251268 0
-0.391674 -0.555275 0
-0.283684 -0.318574 0
-0.0243706 0.575468 0
-0.156465 0.465858 0
0.347721 -0.339126 0
0.511918 -0.274039 0
-0.37908 0.00332853 0
-0.628382 -0.167057 0
0.185394 0.182289 0
0.371584 0.590521 0
0.010375 -0.133227 0
0.133894 -0.708969 0
-0.0271203 -0.0216046 0
-0.579805 0.428205 0
-0.122828 0.0692687 0
0.691207 0.0778959 0
0.251184 0.0910396 0
-0.421177 -0.490819 0
-0.164049 -0.349035 0
0.0618173 0.527525 0
-0.238098 0.39167 0
0.242627 -0.379967 0
0.506902 -0.178251 0
-0.336177 0.120461 0
-0.56057 -0.211451 0
0.247228 0.0637051 0
0.310108 0.561361 0
-0.123845 -0.096366 0
0.134127 -0.648607 0
0.0929188 0.0519811 0
-0.523562 0.404105 0
-0.150679 -0.0663793 0
0.637656 0.0326173 0
0.174185 0.198687 0
-0.432531 -0.407889 0
-0.0421064 -0.363199 0
0.139505 0.469448 0
-0.306264 0.312815 0
0.139616 -0.407499 0
0.488264 -0.0856586 0
-0.287979 0.224895 0
-0.483086 -0.246137 0
0.297611 -0.0467468 0
0.245511 0.519146 0
-0.243791 -0.0602548 0
0.130378 -0.575673 0
0.200379 0.118401 0
-0.457591 0.371325 0
-0.17181 -0.189105 0
0.571365 -0.0101287 0
0.0985621 0.291843 0
-0.431562 -0.320651 0
0.0708884 -0.366022 0
0.21099 0.407407 0
-0.365993 0.233172 0
0.0400227 -0.427494 0
0.462943 0.0033569 0
-0.238141 0.320398 0
-0.402194 -0.275106 0
0.34097 -0.150492 0
0.180593 0.471098 0
-0.353696 -0.0253922 0
0.124747 -0.497756 0
0.298926 0.179713 0
-0.388069 0.334658 0
-0.188922 -0.302478 0
0.499897 -0.0505174 0
0.0252242 0.375441 0
-0.424145 -0.233159 0
0.176848 -0.362841 0
0.294714 0.345715 0
-0.439581 0.148213 0
-0.0704108 -0.457832 0
0.44311 0.103137 0
-0.187033 0.433065 0
-0.319031 -0.312687 0
0.39592 -0.26911 0
0.111178 0.426094 0
-0.483159 0.0128759 0
0.120899 -0.419782 0
0.414521 0.25181 0
-0.317608 0.299737 0
-0.211324 -0.434949 0
0.429277 -0.0964683 0
-0.0565536 0.475814 0
-0.423681 -0.139805 0
0.298763 -0.365831 0
0.426014 0.287317 0
-0.567098 0.0452203 0
-0.221867 -0.529364 0
0.446664 0.242753 0
-0.131989 0.612215 0
-0.230072 -0.383767 0
0.495977 -0.444883 0
0.0264867 0.395115 0
-0.688033 0.0643895 0
0.123928 -0.344623 0
0.596145 0.364901 0
-0.245498 0.273719 0
-0.255212 -0.640545 0
0.364615 -0.164126 0
-0.169244 0.641362 0
-0.45191 -0.0252667 0
0.481083 -0.394426 0
0.610716 0.23431 0
-0.755579 -0.0765392 0
-0.418378 -0.648124 0
0.478022 0.426168 0
-0.0736086 0.866039 0
-0.136553 -0.492869 0
0.647208 -0.68434 0
-0.0741409 0.381611 0
-0.977518 0.130436 0
0.134982 -0.274787 0
0.851802 0.523864 0
-0.173224 0.259065 0
-0.323644 -0.927973 0
0.308712 -0.256007 0
-0.315805 0.880337 0
-0.513636 0.111647 0
0.730642 -0.452852 0
