# vtk DataFile Version 3.0
tp3485 scalar+vector
ASCII
DATASET UNSTRUCTURED_GRID
POINTS 187 double
1 0 0
0.932472 0.361242 0
0.739009 0.673696 0
0.445738 0.895163 0
0.0922684 0.995734 0
-0.273663 0.961826 0
-0.602635 0.798017 0
-0.850217 0.526432 0
-0.982973 0.18375 0
-0.982973 -0.18375 0
-0.850217 -0.526432 0
-0.602635 -0.798017 0
-0.273663 -0.961826 0
0.0922684 -0.995734 0
0.445738 -0.895163 0
0.739009 -0.673696 0
0.932472 -0.361242 0
1.3 0 0
1.21221 0.469614 0
0.960712 0.875804 0
0.57946 1.16371 0
0.119949 1.29445 0
-0.355762 1.25037 0
-0.783425 1.03742 0
-1.10528 0.684362 0
-1.27787 0.238874 0
-1.27787 -0.238874 0
-1.10528 -0.684362 0
-0.783425 -1.03742 0
-0.355762 -1.25037 0
0.119949 -1.29445 0
0.57946 -1.16371 0
0.960712 -0.875804 0
1.21221 -0.469614 0
1.6 0 0
1.49196 0.577987 0
1.18241 1.07791 0
0.713181 1.43226 0
0.147629 1.59317 0
-0.437861 1.53892 0
-0.964215 1.27683 0
-1.36035 0.842291 0
-1.57276 0.293999 0
-1.57276 -0.293999 0
-1.36035 -0.842291 0
-0.964215 -1.27683 0
-0.437861 -1.53892 0
0.147629 -1.59317 0
0.713181 -1.43226 0
1.18241 -1.07791 0
1.49196 -0.577987 0
1.9 0 0
1.7717 0.686359 0
1.40412 1.28002 0
0.846903 1.70081 0
0.17531 1.89189 0
-0.51996 1.82747 0
-1.14501 1.51623 0
-1.61541 1.00022 0
-1.86765 0.349124 0
-1.86765 -0.349124 0
-1.61541 -1.00022 0
-1.14501 -1.51623 0
-0.51996 -1.82747 0
0.17531 -1.89189 0
0.846903 -1.70081 0
1.40412 -1.28002 0
1.7717 -0.686359 0
2.2 0 0
2.05144 0.794732 0
1.62582 1.48213 0
0.980624 1.96936 0
0.20299 2.19062 0
-0.602059 2.11602 0
-1.3258 1.75564 0
-1.87048 1.15815 0
-2.16254 0.404249 0
-2.16254 -0.404249 0
-1.87048 -1.15815 0
-1.3258 -1.75564 0
-0.602059 -2.11602 0
0.20299 -2.19062 0
0.980624 -1.96936 0
1.62582 -1.48213 0
2.05144 -0.794732 0
2.5 0 0
2.33118 0.903104 0
1.84752 1.68424 0
1.11435 2.23791 0
0.230671 2.48934 0
-0.684157 2.40456 0
-1.50659 1.99504 0
-2.12554 1.31608 0
-2.45743 0.459374 0
-2.45743 -0.459374 0
-2.12554 -1.31608 0
-1.50659 -1.99504 0
-0.684157 -2.40456 0
0.230671 -2.48934 0
1.11435 -2.23791 0
1.84752 -1.68424 0
2.33118 -0.903104 0
2.8 0 0
2.61092 1.01148 0
2.06922 1.88635 0
1.24807 2.50646 0
0.258351 2.78806 0
-0.766256 2.69311 0
-1.68738 2.23445 0
-2.38061 1.47401 0
-2.75232 0.514499 0
-2.75232 -0.514499 0
-2.38061 -1.47401 0
-1.68738 -2.23445 0
-0.766256 -2.69311 0
0.258351 -2.78806 0
1.24807 -2.50646 0
2.06922 -1.88635 0
2.61092 -1.01148 0
3.1 0 0
2.89066 1.11985 0
2.29093 2.08846 0
1.38179 2.77501 0
0.286032 3.08678 0
-0.848355 2.98166 0
-1.86817 2.47385 0
-2.63567 1.63194 0
-3.04722 0.569624 0
-3.04722 -0.569624 0
-2.63567 -1.63194 0
-1.86817 -2.47385 0
-0.848355 -2.98166 0
0.286032 -3.08678 0
1.38179 -2.77501 0
2.29093 -2.08846 0
2.89066 -1.11985 0
3.4 0 0
3.17041 1.22822 0
2.51263 2.29057 0
1.51551 3.04356 0
0.313712 3.3855 0
-0.930454 3.27021 0
-2.04896 2.71326 0
-2.89074 1.78987 0
-3.34211 0.624748 0
-3.34211 -0.624748 0
-2.89074 -1.78987 0
-2.04896 -2.71326 0
-0.930454 -3.27021 0
0.313712 -3.3855 0
1.51551 -3.04356 0
2.51263 -2.29057 0
3.17041 -1.22822 0
3.7 0 0
3.45015 1.33659 0
2.73433 2.49267 0
1.64923 3.3121 0
0.341393 3.68422 0
-1.01255 3.55875 0
-2.22975 2.95266 0
-3.1458 1.9478 0
-3.637 0.679873 0
-3.637 -0.679873 0
-3.1458 -1.9478 0
-2.22975 -2.95266 0
-1.01255 -3.55875 0
0.341393 -3.68422 0
1.64923 -3.3121 0
2.73433 -2.49267 0
3.45015 -1.33659 0
4 0 0
3.72989 1.44497 0
2.95604 2.69478 0
1.78295 3.58065 0
0.369073 3.98294 0
-1.09465 3.8473 0
-2.41054 3.19207 0
-3.40087 2.10573 0
-3.93189 0.734998 0
-3.93189 -0.734998 0
-3.40087 -2.10573 0
-2.41054 -3.19207 0
-1.09465 -3.8473 0
0.369073 -3.98294 0
1.78295 -3.58065 0
2.95604 -2.69478 0
3.72989 -1.44497 0
CELLS 340 1360
3 0 17 18
3 0 18 1
3 1 18 19
3 1 19 2
3 2 19 20
3 2 20 3
3 3 20 21
3 3 21 4
3 4 21 22
3 4 22 5
3 5 22 23
3 5 23 6
3 6 23 24
3 6 24 7
3 7 24 25
3 7 25 8
3 8 25 26
3 8 26 9
3 9 26 27
3 9 27 10
3 10 27 28
3 10 28 11
3 11 28 29
3 11 29 12
3 12 29 30
3 12 30 13
3 13 30 31
3 13 31 14
3 14 31 32
3 14 32 15
3 15 32 33
3 15 33 16
3 16 33 17
3 16 17 0
3 17 34 35
3 17 35 18
3 18 35 36
3 18 36 19
3 19 36 37
3 19 37 20
3 20 37 38
3 20 38 21
3 21 38 39
3 21 39 22
3 22 39 40
3 22 40 23
3 23 40 41
3 23 41 24
3 24 41 42
3 24 42 25
3 25 42 43
3 25 43 26
3 26 43 44
3 26 44 27
3 27 44 45
3 27 45 28
3 28 45 46
3 28 46 29
3 29 46 47
3 29 47 30
3 30 47 48
3 30 48 31
3 31 48 49
3 31 49 32
3 32 49 50
3 32 50 33
3 33 50 34
3 33 34 17
3 34 51 52
3 34 52 35
3 35 52 53
3 35 53 36
3 36 53 54
3 36 54 37
3 37 54 55
3 37 55 38
3 38 55 56
3 38 56 39
3 39 56 57
3 39 57 40
3 40 57 58
3 40 58 41
3 41 58 59
3 41 59 42
3 42 59 60
3 42 60 43
3 43 60 61
3 43 61 44
3 44 61 62
3 44 62 45
3 45 62 63
3 45 63 46
3 46 63 64
3 46 64 47
3 47 64 65
3 47 65 48
3 48 65 66
3 48 66 49
3 49 66 67
3 49 67 50
3 50 67 51
3 50 51 34
3 51 68 69
3 51 69 52
3 52 69 70
3 52 70 53
3 53 70 71
3 53 71 54
3 54 71 72
3 54 72 55
3 55 72 73
3 55 73 56
3 56 73 74
3 56 74 57
3 57 74 75
3 57 75 58
3 58 75 76
3 58 76 59
3 59 76 77
3 59 77 60
3 60 77 78
3 60 78 61
3 61 78 79
3 61 79 62
3 62 79 80
3 62 80 63
3 63 80 81
3 63 81 64
3 64 81 82
3 64 82 65
3 65 82 83
3 65 83 66
3 66 83 84
3 66 84 67
3 67 84 68
3 67 68 51
3 68 85 86
3 68 86 69
3 69 86 87
3 69 87 70
3 70 87 88
3 70 88 71
3 71 88 89
3 71 89 72
3 72 89 90
3 72 90 73
3 73 90 91
3 73 91 74
3 74 91 92
3 74 92 75
3 75 92 93
3 75 93 76
3 76 93 94
3 76 94 77
3 77 94 95
3 77 95 78
3 78 95 96
3 78 96 79
3 79 96 97
3 79 97 80
3 80 97 98
3 80 98 81
3 81 98 99
3 81 99 82
3 82 99 100
3 82 100 83
3 83 100 101
3 83 101 84
3 84 101 85
3 84 85 68
3 85 102 103
3 85 103 86
3 86 103 104
3 86 104 87
3 87 104 105
3 87 105 88
3 88 105 106
3 88 106 89
3 89 106 107
3 89 107 90
3 90 107 108
3 90 108 91
3 91 108 109
3 91 109 92
3 92 109 110
3 92 110 93
3 93 110 111
3 93 111 94
3 94 111 112
3 94 112 95
3 95 112 113
3 95 113 96
3 96 113 114
3 96 114 97
3 97 114 115
3 97 115 98
3 98 115 116
3 98 116 99
3 99 116 117
3 99 117 100
3 100 117 118
3 100 118 101
3 101 118 102
3 101 102 85
3 102 119 120
3 102 120 103
3 103 120 121
3 103 121 104
3 104 121 122
3 104 122 105
3 105 122 123
3 105 123 106
3 106 123 124
3 106 124 107
3 107 124 125
3 107 125 108
3 108 125 126
3 108 126 109
3 109 126 127
3 109 127 110
3 110 127 128
3 110 128 111
3 111 128 129
3 111 129 112
3 112 129 130
3 112 130 113
3 113 130 131
3 113 131 114
3 114 131 132
3 114 132 115
3 115 132 133
3 115 133 116
3 116 133 134
3 116 134 117
3 117 134 135
3 117 135 118
3 118 135 119
3 118 119 102
3 119 136 137
3 119 137 120
3 120 137 138
3 120 138 121
3 121 138 139
3 121 139 122
3 122 139 140
3 122 140 123
3 123 140 141
3 123 141 124
3 124 141 142
3 124 142 125
3 125 142 143
3 125 143 126
3 126 143 144
3 126 144 127
3 127 144 145
3 127 145 128
3 128 145 146
3 128 146 129
3 129 146 147
3 129 147 130
3 130 147 148
3 130 148 131
3 131 148 149
3 131 149 132
3 132 149 150
3 132 150 133
3 133 150 151
3 133 151 134
3 134 151 152
3 134 152 135
3 135 152 136
3 135 136 119
3 136 153 154
3 136 154 137
3 137 154 155
3 137 155 138
3 138 155 156
3 138 156 139
3 139 156 157
3 139 157 140
3 140 157 158
3 140 158 141
3 141 158 159
3 141 159 142
3 142 159 160
3 142 160 143
3 143 160 161
3 143 161 144
3 144 161 162
3 144 162 145
3 145 162 163
3 145 163 146
3 146 163 164
3 146 164 147
3 147 164 165
3 147 165 148
3 148 165 166
3 148 166 149
3 149 166 167
3 149 167 150
3 150 167 168
3 150 168 151
3 151 168 169
3 151 169 152
3 152 169 153
3 152 153 136
3 153 170 171
3 153 171 154
3 154 171 172
3 154 172 155
3 155 172 173
3 155 173 156
3 156 173 174
3 156 174 157
3 157 174 175
3 157 175 158
3 158 175 176
3 158 176 159
3 159 176 177
3 159 177 160
3 160 177 178
3 160 178 161
3 161 178 179
3 161 179 162
3 162 179 180
3 162 180 163
3 163 180 181
3 163 181 164
3 164 181 182
3 164 182 165
3 165 182 183
3 165 183 166
3 166 183 184
3 166 184 167
3 167 184 185
3 167 185 168
3 168 185 186
3 168 186 169
3 169 186 170
3 169 170 153
CELL_TYPES 340
5
5
5
5
5
5
5
5
5
5
5
5
5
5
5
5
5
5
5
5
5
5
5
5
5
5
5
5
5
5
5
5
5
5
5
5
5
5
5
5
5
5
5
5
5
5
5
5
5
5
5
5
5
5
5
5
5
5
5
5
5
5
5
5
5
5
5
5
5
5
5
5
5
5
5
5
5
5
5
5
5
5
5
5
5
5
5
5
5
5
5
5
5
5
5
5
5
5
5
5
5
5
5
5
5
5
5
5
5
5
5
5
5
5
5
5
5
5
5
5
5
5
5
5
5
5
5
5
5
5
5
5
5
5
5
5
5
5
5
5
5
5
5
5
5
5
5
5
5
5
5
5
5
5
5
5
5
5
5
5
5
5
5
5
5
5
5
5
5
5
5
5
5
5
5
5
5
5
5
5
5
5
5
5
5
5
5
5
5
5
5
5
5
5
5
5
5
5
5
5
5
5
5
5
5
5
5
5
5
5
5
5
5
5
5
5
5
5
5
5
5
5
5
5
5
5
5
5
5
5
5
5
5
5
5
5
5
5
5
5
5
5
5
5
5
5
5
5
5
5
5
5
5
5
5
5
5
5
5
5
5
5
5
5
5
5
5
5
5
5
5
5
5
5
5
5
5
5
5
5
5
5
5
5
5
5
5
5
5
5
5
5
5
5
5
5
5
5
5
5
5
5
5
5
5
5
5
5
5
5
5
5
5
5
5
5
5
5
5
5
5
5
5
5
5
5
5
5
5
5
5
5
5
5
5
5
5
5
5
5
POINT_DATA 187
SCALARS psi double 1
LOOKUP_TABLE default
0
0
0
0
0
0
0
0
0
0
0
0
0
0
0
0
0
0.2289
-0.0133754
-0.248669
-0.354162
-0.274788
-0.0519805
0.19796
0.344569
0.311319
0.115566
-0.140511
-0.323243
-0.337249
-0.175216
0.0782757
0.290909
0.351694
0.39852
-0.0239324
-0.433893
-0.617369
-0.478589
-0.0899949
0.345575
0.600762
0.542361
0.200857
-0.24549
-0.563696
-0.587663
-0.30488
0.137045
0.507434
0.612953
0.53161
-0.0309279
-0.577322
-0.822365
-0.638148
-0.120829
0.459561
0.800068
0.722953
0.26847
-0.326149
-0.750525
-0.78314
-0.40697
0.181631
0.675424
0.816658
0.618248
-0.034488
-0.669221
-0.954633
-0.741743
-0.141677
0.532342
0.928489
0.83998
0.313017
-0.377335
-0.870725
-0.909612
-0.473698
0.209478
0.783311
0.948269
0.648494
-0.0350463
-0.700294
-1
-0.777724
-0.14949
0.556775
0.972414
0.88047
0.328936
-0.394296
-0.911713
-0.953232
-0.497181
0.21839
0.819965
0.993533
0.618471
-0.0328548
-0.667031
-0.953028
-0.741562
-0.143014
0.530185
0.926637
0.839401
0.314012
-0.375285
-0.86869
-0.908655
-0.474318
0.207605
0.781161
0.946965
0.541064
-0.0286597
-0.583424
-0.833651
-0.648727
-0.125179
0.46371
0.81055
0.734298
0.274756
-0.328205
-0.759848
-0.794864
-0.414976
0.181523
0.68327
0.828362
0.429365
-0.0228341
-0.463114
-0.661657
-0.514827
-0.0992659
0.36811
0.643339
0.582756
0.217985
-0.26057
-0.603112
-0.630841
-0.329282
0.144157
0.542348
0.657443
0.283884
-0.0150386
-0.306112
-0.4374
-0.340373
-0.0656778
0.2433
0.42528
0.385271
0.144158
-0.172204
-0.398678
-0.417049
-0.217728
0.0952429
0.358499
0.434625
0
0
0
0
0
0
0
0
0
0
0
0
0
0
0
0
0
VECTORS Et double
-0.579854 0.322682 0
-0.120998 0.405769 0
0.262498 0.646813 0
0.379214 0.813246 0
0.330193 0.66845 0
0.365814 0.241092 0
0.581761 -0.188849 0
0.794702 -0.374276 0
0.737948 -0.34389 0
0.361218 -0.338741 0
-0.0983317 -0.517009 0
-0.354631 -0.758067 0
-0.359647 -0.785801 0
-0.324744 -0.475891 0
-0.457085 -0.00625926 0
-0.707235 0.317792 0
-0.810821 0.372938 0
-0.404423 0.486741 0
-0.208856 0.602183 0
0.0174209 0.631173 0
0.247047 0.574878 0
0.445887 0.446028 0
0.581105 0.261515 0
0.63223 0.0406761 0
0.596367 -0.191128 0
0.484147 -0.400992 0
0.311872 -0.55468 0
0.0980452 -0.627782 0
-0.133849 -0.613059 0
-0.352536 -0.518507 0
-0.523127 -0.359608 0
-0.617765 -0.154241 0
-0.624729 0.0757668 0
-0.548839 0.301038 0
-0.228659 0.534274 0
-0.242445 0.656347 0
-0.155658 0.534351 0
0.121515 0.331626 0
0.465434 0.231907 0
0.65126 0.241183 0
0.581076 0.195181 0
0.377831 -0.0377387 0
0.242952 -0.385989 0
0.236282 -0.62891 0
0.221852 -0.619041 0
0.0379701 -0.429129 0
-0.299543 -0.263141 0
-0.5895 -0.231047 0
-0.645006 -0.236913 0
-0.48247 -0.10301 0
-0.292889 0.210048 0
-0.0506126 0.498668 0
-0.235515 0.609468 0
-0.276644 0.379807 0
0.000583574 0.0840107 0
0.416265 0.0217886 0
0.618235 0.189805 0
0.457772 0.295142 0
0.144313 0.094412 0
0.00902334 -0.319339 0
0.139895 -0.602294 0
0.292576 -0.525479 0
0.17465 -0.217154 0
-0.213581 -0.0148083 0
-0.561817 -0.0916267 0
-0.577519 -0.271415 0
-0.297569 -0.236211 0
-0.0400541 0.105224 0
0.0943435 0.433324 0
-0.211655 0.527203 0
-0.350982 0.2298 0
-0.094834 -0.1177 0
0.346337 -0.146219 0
0.546183 0.134267 0
0.326614 0.351398 0
-0.0506553 0.191502 0
-0.176696 -0.242841 0
0.0525826 -0.536423 0
0.325856 -0.412729 0
0.269219 -0.0338478 0
-0.129752 0.182574 0
-0.498064 0.0259903 0
-0.481427 -0.277617 0
-0.129698 -0.323323 0
0.162627 0.0146413 0
0.208631 0.368218 0
-0.185932 0.445827 0
-0.400405 0.102501 0
-0.16881 -0.276725 0
0.280049 -0.277516 0
0.472463 0.0852785 0
0.2117 0.386208 0
-0.206139 0.263992 0
-0.321316 -0.17426 0
-0.0196106 -0.467942 0
0.342873 -0.310144 0
0.337388 0.114649 0
-0.0585529 0.336354 0
-0.432379 0.120283 0
-0.390259 -0.274204 0
0.00911053 -0.383876 0
0.32119 -0.0586424 0
0.294029 0.308814 0
-0.161456 0.371866 0
-0.430311 2.62943e-06 0
-0.223219 -0.39579 0
0.221684 -0.374765 0
0.403941 0.0447291 0
0.116531 0.404927 0
-0.323979 0.315104 0
-0.42807 -0.11645 0
-0.0760891 -0.403651 0
0.348545 -0.222494 0
0.383459 0.229016 0
-0.00126301 0.449979 0
-0.371086 0.191913 0
-0.309819 -0.265322 0
0.118191 -0.422915 0
0.438909 -0.114962 0
0.357112 0.25601 0
-0.139218 0.306248 0
-0.446818 -0.0820365 0
-0.26281 -0.484159 0
0.171232 -0.445948 0
0.342137 0.0116669 0
0.0383332 0.412954 0
-0.412639 0.350489 0
-0.505956 -0.068273 0
-0.119798 -0.345257 0
0.347145 -0.148484 0
0.413652 0.316563 0
0.044503 0.533006 0
-0.315675 0.245739 0
-0.240076 -0.253742 0
0.20344 -0.446824 0
0.525428 -0.157941 0
0.416636 0.209658 0
-0.120092 0.248464 0
-0.464822 -0.157308 0
-0.300498 -0.567696 0
0.126489 -0.513444 0
0.288081 -0.0181234 0
-0.0326674 0.423062 0
-0.496007 0.384937 0
-0.579975 -0.0249409 0
-0.160126 -0.29435 0
0.348277 -0.0820125 0
0.443821 0.398326 0
0.0863707 0.611918 0
-0.267314 0.296099 0
-0.178092 -0.245037 0
0.282411 -0.471532 0
0.607514 -0.19802 0
0.509755 0.169489 0
-0.10562 0.19756 0
-0.513587 -0.252791 0
-0.361697 -0.697444 0
0.0831203 -0.621542 0
0.243843 -0.0531403 0
-0.115715 0.46028 0
-0.621239 0.447577 0
-0.699564 0.0229676 0
-0.215777 -0.254096 0
0.370741 -0.0110863 0
0.505149 0.515811 0
0.139354 0.739038 0
-0.228339 0.371446 0
-0.118119 -0.25002 0
0.389692 -0.528332 0
0.737999 -0.255729 0
0.648952 0.135477 0
-0.0963187 0.15331 0
-0.602903 -0.377444 0
-0.454947 -0.890519 0
0.0397254 -0.785113 0
0.21021 -0.0962428 0
-0.217188 0.53304 0
-0.804102 0.548175 0
-0.881315 0.0785766 0
-0.293038 -0.225643 0
0.420838 0.0682253 0
0.608134 0.682907 0
0.208468 0.931926 0
-0.199609 0.481342 0
-0.0583237 -0.272331 0
0.536807 -0.62771 0
0.934617 -0.337956 0
