# vtk DataFile Version 3.0
tp3485 scalar+vector
ASCII
DATASET UNSTRUCTURED_GRID
POINTS 187 double
1 0 0
0.932472 0.361242 0
0.739009 0.673696 0
0.445738 0.895163 0
0.0922684 0.995734 0
-0.273663 0.961826 0
-0.602635 0.798017 0
-0.850217 0.526432 0
-0.982973 0.18375 0
-0.982973 -0.18375 0
-0.850217 -0.526432 0
-0.602635 -0.798017 0
-0.273663 -0.961826 0
0.0922684 -0.995734 0
0.445738 -0.895163 0
0.739009 -0.673696 0
0.932472 -0.361242 0
1.3 0 0
1.21221 0.469614 0
0.960712 0.875804 0
0.57946 1.16371 0
0.119949 1.29445 0
-0.355762 1.25037 0
-0.783425 1.03742 0
-1.10528 0.684362 0
-1.27787 0.238874 0
-1.27787 -0.238874 0
-1.10528 -0.684362 0
-0.783425 -1.03742 0
-0.355762 -1.25037 0
0.119949 -1.29445 0
0.57946 -1.16371 0
0.960712 -0.875804 0
1.21221 -0.469614 0
1.6 0 0
1.49196 0.577987 0
1.18241 1.07791 0
0.713181 1.43226 0
0.147629 1.59317 0
-0.437861 1.53892 0
-0.964215 1.27683 0
-1.36035 0.842291 0
-1.57276 0.293999 0
-1.57276 -0.293999 0
-1.36035 -0.842291 0
-0.964215 -1.27683 0
-0.437861 -1.53892 0
0.147629 -1.59317 0
0.713181 -1.43226 0
1.18241 -1.07791 0
1.49196 -0.577987 0
1.9 0 0
1.7717 0.686359 0
1.40412 1.28002 0
0.846903 1.70081 0
0.17531 1.89189 0
-0.51996 1.82747 0
-1.14501 1.51623 0
-1.61541 1.00022 0
-1.86765 0.349124 0
-1.86765 -0.349124 0
-1.61541 -1.00022 0
-1.14501 -1.51623 0
-0.51996 -1.82747 0
0.17531 -1.89189 0
0.846903 -1.70081 0
1.40412 -1.28002 0
1.7717 -0.686359 0
2.2 0 0
2.05144 0.794732 0
1.62582 1.48213 0
0.980624 1.96936 0
0.20299 2.19062 0
-0.602059 2.11602 0
-1.3258 1.75564 0
-1.87048 1.15815 0
-2.16254 0.404249 0
-2.16254 -0.404249 0
-1.87048 -1.15815 0
-1.3258 -1.75564 0
-0.602059 -2.11602 0
0.20299 -2.19062 0
0.980624 -1.96936 0
1.62582 -1.48213 0
2.05144 -0.794732 0
2.5 0 0
2.33118 0.903104 0
1.84752 1.68424 0
1.11435 2.23791 0
0.230671 2.48934 0
-0.684157 2.40456 0
-1.50659 1.99504 0
-2.12554 1.31608 0
-2.45743 0.459374 0
-2.45743 -0.459374 0
-2.12554 -1.31608 0
-1.50659 -1.99504 0
-0.684157 -2.40456 0
0.230671 -2.48934 0
1.11435 -2.23791 0
1.84752 -1.68424 0
2.33118 -0.903104 0
2.8 0 0
2.61092 1.01148 0
2.06922 1.88635 0
1.24807 2.50646 0
0.258351 2.78806 0
-0.766256 2.69311 0
-1.68738 2.23445 0
-2.38061 1.47401 0
-2.75232 0.514499 0
-2.75232 -0.514499 0
-2.38061 -1.47401 0
-1.68738 -2.23445 0
-0.766256 -2.69311 0
0.258351 -2.78806 0
1.24807 -2.50646 0
2.06922 -1.88635 0
2.61092 -1.01148 0
3.1 0 0
2.89066 1.11985 0
2.29093 2.08846 0
1.38179 2.77501 0
0.286032 3.08678 0
-0.848355 2.98166 0
-1.86817 2.47385 0
-2.63567 1.63194 0
-3.04722 0.569624 0
-3.04722 -0.569624 0
-2.63567 -1.63194 0
-1.86817 -2.47385 0
-0.848355 -2.98166 0
0.286032 -3.08678 0
1.38179 -2.77501 0
2.29093 -2.08846 0
2.89066 -1.11985 0
3.4 0 0
3.17041 1.22822 0
2.51263 2.29057 0
1.51551 3.04356 0
0.313712 3.3855 0
-0.930454 3.27021 0
-2.04896 2.71326 0
-2.89074 1.78987 0
-3.34211 0.624748 0
-3.34211 -0.624748 0
-2.89074 -1.78987 0
-2.04896 -2.71326 0
-0.930454 -3.27021 0
0.313712 -3.3855 0
1.51551 -3.04356 0
2.51263 -2.29057 0
3.17041 -1.22822 0
3.7 0 0
3.45015 1.33659 0
2.73433 2.49267 0
1.64923 3.3121 0
0.341393 3.68422 0
-1.01255 3.55875 0
-2.22975 2.95266 0
-3.1458 1.9478 0
-3.637 0.679873 0
-3.637 -0.679873 0
-3.1458 -1.9478 0
-2.22975 -2.95266 0
-1.01255 -3.55875 0
0.341393 -3.68422 0
1.64923 -3.3121 0
2.73433 -2.49267 0
3.45015 -1.33659 0
4 0 0
3.72989 1.44497 0
2.95604 2.69478 0
1.78295 3.58065 0
0.369073 3.98294 0
-1.09465 3.8473 0
-2.41054 3.19207 0
-3.40087 2.10573 0
-3.93189 0.734998 0
-3.93189 -0.734998 0
-3.40087 -2.10573 0
-2.41054 -3.19207 0
-1.09465 -3.8473 0
0.369073 -3.98294 0
1.78295 -3.58065 0
2.95604 -2.69478 0
3.72989 -1.44497 0
CELLS 340 1360
3 0 17 18
3 0 18 1
3 1 18 19
3 1 19 2
3 2 19 20
3 2 20 3
3 3 20 21
3 3 21 4
3 4 21 22
3 4 22 5
3 5 22 23
3 5 23 6
3 6 23 24
3 6 24 7
3 7 24 25
3 7 25 8
3 8 25 26
3 8 26 9
3 9 26 27
3 9 27 10
3 10 27 28
3 10 28 11
3 11 28 29
3 11 29 12
3 12 29 30
3 12 30 13
3 13 30 31
3 13 31 14
3 14 31 32
3 14 32 15
3 15 32 33
3 15 33 16
3 16 33 17
3 16 17 0
3 17 34 35
3 17 35 18
3 18 35 36
3 18 36 19
3 19 36 37
3 19 37 20
3 20 37 38
3 20 38 21
3 21 38 39
3 21 39 22
3 22 39 40
3 22 40 23
3 23 40 41
3 23 41 24
3 24 41 42
3 24 42 25
3 25 42 43
3 25 43 26
3 26 43 44
3 26 44 27
3 27 44 45
3 27 45 28
3 28 45 46
3 28 46 29
3 29 46 47
3 29 47 30
3 30 47 48
3 30 48 31
3 31 48 49
3 31 49 32
3 32 49 50
3 32 50 33
3 33 50 34
3 33 34 17
3 34 51 52
3 34 52 35
3 35 52 53
3 35 53 36
3 36 53 54
3 36 54 37
3 37 54 55
3 37 55 38
3 38 55 56
3 38 56 39
3 39 56 57
3 39 57 40
3 40 57 58
3 40 58 41
3 41 58 59
3 41 59 42
3 42 59 60
3 42 60 43
3 43 60 61
3 43 61 44
3 44 61 62
3 44 62 45
3 45 62 63
3 45 63 46
3 46 63 64
3 46 64 47
3 47 64 65
3 47 65 48
3 48 65 66
3 48 66 49
3 49 66 67
3 49 67 50
3 50 67 51
3 50 51 34
3 51 68 69
3 51 69 52
3 52 69 70
3 52 70 53
3 53 70 71
3 53 71 54
3 54 71 72
3 54 72 55
3 55 72 73
3 55 73 56
3 56 73 74
3 56 74 57
3 57 74 75
3 57 75 58
3 58 75 76
3 58 76 59
3 59 76 77
3 59 77 60
3 60 77 78
3 60 78 61
3 61 78 79
3 61 79 62
3 62 79 80
3 62 80 63
3 63 80 81
3 63 81 64
3 64 81 82
3 64 82 65
3 65 82 83
3 65 83 66
3 66 83 84
3 66 84 67
3 67 84 68
3 67 68 51
3 68 85 86
3 68 86 69
3 69 86 87
3 69 87 70
3 70 87 88
3 70 88 71
3 71 88 89
3 71 89 72
3 72 89 90
3 72 90 73
3 73 90 91
3 73 91 74
3 74 91 92
3 74 92 75
3 75 92 93
3 75 93 76
3 76 93 94
3 76 94 77
3 77 94 95
3 77 95 78
3 78 95 96
3 78 96 79
3 79 96 97
3 79 97 80
3 80 97 98
3 80 98 81
3 81 98 99
3 81 99 82
3 82 99 100
3 82 100 83
3 83 100 101
3 83 101 84
3 84 101 85
3 84 85 68
3 85 102 103
3 85 103 86
3 86 103 104
3 86 104 87
3 87 104 105
3 87 105 88
3 88 105 106
3 88 106 89
3 89 106 107
3 89 107 90
3 90 107 108
3 90 108 91
3 91 108 109
3 91 109 92
3 92 109 110
3 92 110 93
3 93 110 111
3 93 111 94
3 94 111 112
3 94 112 95
3 95 112 113
3 95 113 96
3 96 113 114
3 96 114 97
3 97 114 115
3 97 115 98
3 98 115 116
3 98 116 99
3 99 116 117
3 99 117 100
3 100 117 118
3 100 118 101
3 101 118 102
3 101 102 85
3 102 119 120
3 102 120 103
3 103 120 121
3 103 121 104
3 104 121 122
3 104 122 105
3 105 122 123
3 105 123 106
3 106 123 124
3 106 124 107
3 107 124 125
3 107 125 108
3 108 125 126
3 108 126 109
3 109 126 127
3 109 127 110
3 110 127 128
3 110 128 111
3 111 128 129
3 111 129 112
3 112 129 130
3 112 130 113
3 113 130 131
3 113 131 114
3 114 131 132
3 114 132 115
3 115 132 133
3 115 133 116
3 116 133 134
3 116 134 117
3 117 134 135
3 117 135 118
3 118 135 119
3 118 119 102
3 119 136 137
3 119 137 120
3 120 137 138
3 120 138 121
3 121 138 139
3 121 139 122
3 122 139 140
3 122 140 123
3 123 140 141
3 123 141 124
3 124 141 142
3 124 142 125
3 125 142 143
3 125 143 126
3 126 143 144
3 126 144 127
3 127 144 145
3 127 145 128
3 128 145 146
3 128 146 129
3 129 146 147
3 129 147 130
3 130 147 148
3 130 148 131
3 131 148 149
3 131 149 132
3 132 149 150
3 132 150 133
3 133 150 151
3 133 151 134
3 134 151 152
3 134 152 135
3 135 152 136
3 135 136 119
3 136 153 154
3 136 154 137
3 137 154 155
3 137 155 138
3 138 155 156
3 138 156 139
3 139 156 157
3 139 157 140
3 140 157 158
3 140 158 141
3 141 158 159
3 141 159 142
3 142 159 160
3 142 160 143
3 143 160 161
3 143 161 144
3 144 161 162
3 144 162 145
3 145 162 163
3 145 163 146
3 146 163 164
3 146 164 147
3 147 164 165
3 147 165 148
3 148 165 166
3 148 166 149
3 149 166 167
3 149 167 150
3 150 167 168
3 150 168 151
3 151 168 169
3 151 169 152
3 152 169 153
3 152 153 136
3 153 170 171
3 153 171 154
3 154 171 172
3 154 172 155
3 155 172 173
3 155 173 156
3 156 173 174
3 156 174 157
3 157 174 175
3 157 175 158
3 158 175 176
3 158 176 159
3 159 176 177
3 159 177 160
3 160 177 178
3 160 178 161
3 161 178 179
3 161 179 162
3 162 179 180
3 162 180 163
3 163 180 181
3 163 181 164
3 164 181 182
3 164 182 165
3 165 182 183
3 165 183 166
3 166 183 184
3 166 184 167
3 167 184 185
3 167 185 168
3 168 185 186
3 168 186 169
3 169 186 170
3 169 170 153
CELL_TYPES 340
5
5
5
5
5
5
5
5
5
5
5
5
5
5
5
5
5
5
5
5
5
5
5
5
5
5
5
5
5
5
5
5
5
5
5
5
5
5
5
5
5
5
5
5
5
5
5
5
5
5
5
5
5
5
5
5
5
5
5
5
5
5
5
5
5
5
5
5
5
5
5
5
5
5
5
5
5
5
5
5
5
5
5
5
5
5
5
5
5
5
5
5
5
5
5
5
5
5
5
5
5
5
5
5
5
5
5
5
5
5
5
5
5
5
5
5
5
5
5
5
5
5
5
5
5
5
5
5
5
5
5
5
5
5
5
5
5
5
5
5
5
5
5
5
5
5
5
5
5
5
5
5
5
5
5
5
5
5
5
5
5
5
5
5
5
5
5
5
5
5
5
5
5
5
5
5
5
5
5
5
5
5
5
5
5
5
5
5
5
5
5
5
5
5
5
5
5
5
5
5
5
5
5
5
5
5
5
5
5
5
5
5
5
5
5
5
5
5
5
5
5
5
5
5
5
5
5
5
5
5
5
5
5
5
5
5
5
5
5
5
5
5
5
5
5
5
5
5
5
5
5
5
5
5
5
5
5
5
5
5
5
5
5
5
5
5
5
5
5
5
5
5
5
5
5
5
5
5
5
5
5
5
5
5
5
5
5
5
5
5
5
5
5
5
5
5
5
5
5
5
5
5
5
5
5
5
5
5
5
5
5
5
5
5
5
5
5
5
5
5
5
5
5
5
5
5
5
5
5
5
5
5
5
5
5
5
5
5
5
5
POINT_DATA 187
SCALARS psi double 1
LOOKUP_TABLE default
0
0
0
0
0
0
0
0
0
0
0
0
0
0
0
0
0
-0.124363
0.138125
0.247498
0.0825137
-0.173939
-0.237576
-0.0378548
0.203829
0.219564
-0.00809316
-0.226779
-0.194075
0.0537655
0.242005
0.161977
-0.097607
-0.248991
-0.238802
0.264647
0.474729
0.158562
-0.333374
-0.455757
-0.0729232
0.390748
0.421266
-0.0151993
-0.434816
-0.372429
0.102804
0.464076
0.310909
-0.186908
-0.477533
-0.350927
0.385009
0.694154
0.233813
-0.485715
-0.666816
-0.108736
0.56988
0.616771
-0.020043
-0.634639
-0.545723
0.14814
0.677786
0.456091
-0.271192
-0.697852
-0.444468
0.482877
0.874941
0.297113
-0.610072
-0.840978
-0.13964
0.716492
0.778376
-0.0225879
-0.798512
-0.689267
0.184047
0.85334
0.576687
-0.339238
-0.879109
-0.501339
0.540784
0.983435
0.335926
-0.683965
-0.945665
-0.159073
0.803855
0.875691
-0.0231967
-0.896371
-0.775897
0.204677
0.958361
0.64968
-0.379187
-0.987716
-0.508808
0.546409
0.995919
0.34143
-0.691543
-0.957924
-0.162424
0.813127
0.887308
-0.0221127
-0.907021
-0.786475
0.205896
0.970027
0.65886
-0.382669
-1
-0.468985
0.502502
0.916954
0.314941
-0.636191
-0.882091
-0.150172
0.748216
0.817189
-0.019711
-0.834761
-0.724459
0.188923
0.892879
0.607058
-0.351701
-0.920591
-0.386503
0.413697
0.755305
0.259639
-0.523842
-0.726632
-0.123934
0.616148
0.673216
-0.0159924
-0.687473
-0.596873
0.155374
0.735385
0.500205
-0.289464
-0.758256
-0.258437
0.276149
0.504617
0.173705
-0.349763
-0.485511
-0.0830587
0.411466
0.449871
-0.0104164
-0.459157
-0.398911
0.103537
0.491212
0.334367
-0.193131
-0.506539
0
0
0
0
0
0
0
0
0
0
0
0
0
0
0
0
0
VECTORS Et double
0.292091 -0.334907 0
-0.183127 -0.416827 0
-0.459479 -0.354754 0
-0.413192 -0.011458 0
-0.239224 0.429127 0
-0.0394238 0.566517 0
0.250677 0.302272 0
0.521833 -0.0601016 0
0.47153 -0.274173 0
0.0541367 -0.383204 0
-0.364765 -0.416167 0
-0.467369 -0.216699 0
-0.329533 0.222644 0
-0.146232 0.553963 0
0.0935652 0.470874 0
0.407408 0.110691 0
0.551103 -0.187799 0
0.244928 -0.555325 0
-0.0538146 -0.595719 0
-0.408014 -0.267155 0
-0.614702 0.12302 0
-0.429061 0.376613 0
0.0591968 0.498105 0
0.459602 0.443863 0
0.53094 0.108998 0
0.365636 -0.37606 0
0.106112 -0.633104 0
-0.231465 -0.460529 0
-0.549041 -0.0609849 0
-0.575967 0.268764 0
-0.200679 0.452889 0
0.294042 0.501257 0
0.53642 0.311885 0
0.46587 -0.136518 0
0.175203 -0.664605 0
0.0598832 -0.666499 0
-0.3128 -0.161646 0
-0.701239 0.2171 0
-0.530577 0.284834 0
0.131698 0.377892 0
0.571774 0.503498 0
0.470415 0.234689 0
0.232125 -0.410707 0
0.135692 -0.757013 0
-0.0916492 -0.438455 0
-0.54526 0.0740319 0
-0.704759 0.271712 0
-0.220525 0.311538 0
0.42023 0.461952 0
0.573413 0.437678 0
0.336377 -0.0760007 0
0.0768115 -0.661702 0
0.160331 -0.62601 0
-0.167671 -0.031499 0
-0.669463 0.274432 0
-0.542198 0.148774 0
0.180996 0.197271 0
0.587846 0.477606 0
0.333998 0.31861 0
0.062378 -0.376569 0
0.140942 -0.753415 0
0.0599997 -0.344644 0
-0.450865 0.194656 0
-0.714005 0.230891 0
-0.20356 0.12189 0
0.474739 0.346162 0
0.515711 0.487701 0
0.154013 -0.00415267 0
-0.0186088 -0.602857 0
0.235492 -0.536678 0
-0.0238003 0.0877627 0
-0.583636 0.303251 0
-0.506108 0.0153093 0
0.209964 0.0188279 0
0.552808 0.412917 0
0.184079 0.365907 0
-0.0951644 -0.314122 0
0.132525 -0.686192 0
0.18985 -0.231487 0
-0.327856 0.28653 0
-0.661065 0.175773 0
-0.170812 -0.0576453 0
0.483522 0.212532 0
0.420894 0.490061 0
-0.0220848 0.0601111 0
-0.102478 -0.531669 0
0.293478 -0.440699 0
0.103434 0.190117 0
-0.489023 0.319313 0
-0.457703 -0.102226 0
0.228956 -0.138899 0
0.504433 0.342167 0
0.0463568 0.395285 0
-0.231026 -0.24918 0
0.120242 -0.604886 0
0.297609 -0.124318 0
-0.208937 0.35851 0
-0.592827 0.122107 0
-0.136195 -0.213588 0
0.475936 0.0877356 0
0.324135 0.475799 0
-0.176393 0.114432 0
-0.171358 -0.459129 0
0.335609 -0.349114 0
0.208735 0.272612 0
-0.397491 0.325738 0
-0.405923 -0.199315 0
0.239949 -0.269344 0
0.451907 0.274138 0
-0.0714037 0.410811 0
-0.34093 -0.188534 0
0.106837 -0.522006 0
0.381851 -0.0305147 0
-0.103374 0.411398 0
-0.521168 0.0739923 0
-0.103512 -0.340712 0
0.458672 -0.0201335 0
0.234727 0.452498 0
-0.303124 0.157617 0
-0.22821 -0.389366 0
0.366851 -0.264426 0
0.296444 0.339817 0
-0.312255 0.326217 0
-0.354767 -0.280223 0
0.245863 -0.377904 0
0.399471 0.211126 0
-0.172208 0.41779 0
-0.430674 -0.133307 0
0.0936452 -0.442242 0
0.448728 0.0511898 0
-0.0106096 0.450795 0
-0.451119 0.0311817 0
-0.0735094 -0.445349 0
0.436701 -0.113008 0
0.153707 0.425331 0
-0.408058 0.192378 0
-0.287725 -0.324583 0
0.402823 -0.182976 0
0.387742 0.411327 0
-0.2311 0.330639 0
-0.308023 -0.364768 0
0.254952 -0.491071 0
0.351969 0.150968 0
-0.275278 0.429988 0
-0.525708 -0.0798959 0
0.0818361 -0.368027 0
0.521226 0.133631 0
0.0818334 0.495783 0
-0.386799 -0.011417 0
-0.0443274 -0.555572 0
0.420224 -0.207088 0
0.0744836 0.403616 0
-0.518127 0.22944 0
-0.379091 -0.266068 0
0.472753 -0.0948401 0
0.524444 0.525432 0
-0.146519 0.357255 0
-0.270434 -0.491807 0
0.282536 -0.661225 0
0.31633 0.0869663 0
-0.419309 0.472471 0
-0.675899 -0.0196593 0
0.0726468 -0.300682 0
0.643477 0.243324 0
0.200288 0.582754 0
-0.332778 -0.0643892 0
-0.011311 -0.726289 0
0.427034 -0.33561 0
-0.0178714 0.402896 0
-0.686285 0.289482 0
-0.509713 -0.214841 0
0.584248 0.00183056 0
0.717012 0.691821 0
-0.0572781 0.411057 0
-0.243793 -0.671066 0
0.332707 -0.901542 0
0.294976 0.0178809 0
-0.613783 0.551953 0
-0.893924 0.0492314 0
0.0664965 -0.241348 0
0.826774 0.386632 0
0.351043 0.721228 0
-0.290974 -0.130148 0
0.0264931 -0.971377 0
0.46219 -0.506734 0
-0.126586 0.427606 0
-0.925887 0.377801 0
