# vtk DataFile Version 3.0
tp3485 scalar+vector
ASCII
DATASET UNSTRUCTURED_GRID
POINTS 187 double
1 0 0
0.932472 0.361242 0
0.739009 0.673696 0
0.445738 0.895163 0
0.0922684 0.995734 0
-0.273663 0.961826 0
-0.602635 0.798017 0
-0.850217 0.526432 0
-0.982973 0.18375 0
-0.982973 -0.18375 0
-0.850217 -0.526432 0
-0.602635 -0.798017 0
-0.273663 -0.961826 0
0.0922684 -0.995734 0
0.445738 -0.895163 0
0.739009 -0.673696 0
0.932472 -0.361242 0
1.3 0 0
1.21221 0.469614 0
0.960712 0.875804 0
0.57946 1.16371 0
0.119949 1.29445 0
-0.355762 1.25037 0
-0.783425 1.03742 0
-1.10528 0.684362 0
-1.27787 0.238874 0
-1.27787 -0.238874 0
-1.10528 -0.684362 0
-0.783425 -1.03742 0
-0.355762 -1.25037 0
0.119949 -1.29445 0
0.57946 -1.16371 0
0.960712 -0.875804 0
1.21221 -0.469614 0
1.6 0 0
1.49196 0.577987 0
1.18241 1.07791 0
0.713181 1.43226 0
0.147629 1.59317 0
-0.437861 1.53892 0
-0.964215 1.27683 0
-1.36035 0.842291 0
-1.57276 0.293999 0
-1.57276 -0.293999 0
-1.36035 -0.842291 0
-0.964215 -1.27683 0
-0.437861 -1.53892 0
0.147629 -1.59317 0
0.713181 -1.43226 0
1.18241 -1.07791 0
1.49196 -0.577987 0
1.9 0 0
1.7717 0.686359 0
1.40412 1.28002 0
0.846903 1.70081 0
0.17531 1.89189 0
-0.51996 1.82747 0
-1.14501 1.51623 0
-1.61541 1.00022 0
-1.86765 0.349124 0
-1.86765 -0.349124 0
-1.61541 -1.00022 0
-1.14501 -1.51623 0
-0.51996 -1.82747 0
0.17531 -1.89189 0
0.846903 -1.70081 0
1.40412 -1.28002 0
1.7717 -0.686359 0
2.2 0 0
2.05144 0.794732 0
1.62582 1.48213 0
0.980624 1.96936 0
0.20299 2.19062 0
-0.602059 2.11602 0
-1.3258 1.75564 0
-1.87048 1.15815 0
-2.16254 0.404249 0
-2.16254 -0.404249 0
-1.87048 -1.15815 0
-1.3258 -1.75564 0
-0.602059 -2.11602 0
0.20299 -2.19062 0
0.980624 -1.96936 0
1.62582 -1.48213 0
2.05144 -0.794732 0
2.5 0 0
2.33118 0.903104 0
1.84752 1.68424 0
1.11435 2.23791 0
0.230671 2.48934 0
-0.684157 2.40456 0
-1.50659 1.99504 0
-2.12554 1.31608 0
-2.45743 0.459374 0
-2.45743 -0.459374 0
-2.12554 -1.31608 0
-1.50659 -1.99504 0
-0.684157 -2.40456 0
0.230671 -2.48934 0
1.11435 -2.23791 0
1.84752 -1.68424 0
2.33118 -0.903104 0
2.8 0 0
2.61092 1.01148 0
2.06922 1.88635 0
1.24807 2.50646 0
0.258351 2.78806 0
-0.766256 2.69311 0
-1.68738 2.23445 0
-2.38061 1.47401 0
-2.75232 0.514499 0
-2.75232 -0.514499 0
-2.38061 -1.47401 0
-1.68738 -2.23445 0
-0.766256 -2.69311 0
0.258351 -2.78806 0
1.24807 -2.50646 0
2.06922 -1.88635 0
2.61092 -1.01148 0
3.1 0 0
2.89066 1.11985 0
2.29093 2.08846 0
1.38179 2.77501 0
0.286032 3.08678 0
-0.848355 2.98166 0
-1.86817 2.47385 0
-2.63567 1.63194 0
-3.04722 0.569624 0
-3.04722 -0.569624 0
-2.63567 -1.63194 0
-1.86817 -2.47385 0
-0.848355 -2.98166 0
0.286032 -3.08678 0
1.38179 -2.77501 0
2.29093 -2.08846 0
2.89066 -1.11985 0
3.4 0 0
3.17041 1.22822 0
2.51263 2.29057 0
1.51551 3.04356 0
0.313712 3.3855 0
-0.930454 3.27021 0
-2.04896 2.71326 0
-2.89074 1.78987 0
-3.34211 0.624748 0
-3.34211 -0.624748 0
-2.89074 -1.78987 0
-2.04896 -2.71326 0
-0.930454 -3.27021 0
0.313712 -3.3855 0
1.51551 -3.04356 0
2.51263 -2.29057 0
3.17041 -1.22822 0
3.7 0 0
3.45015 1.33659 0
2.73433 2.49267 0
1.64923 3.3121 0
0.341393 3.68422 0
-1.01255 3.55875 0
-2.22975 2.95266 0
-3.1458 1.9478 0
-3.637 0.679873 0
-3.637 -0.679873 0
-3.1458 -1.9478 0
-2.22975 -2.95266 0
-1.01255 -3.55875 0
0.341393 -3.68422 0
1.64923 -3.3121 0
2.73433 -2.49267 0
3.45015 -1.33659 0
4 0 0
3.72989 1.44497 0
2.95604 2.69478 0
1.78295 3.58065 0
0.369073 3.98294 0
-1.09465 3.8473 0
-2.41054 3.19207 0
-3.40087 2.10573 0
-3.93189 0.734998 0
-3.93189 -0.734998 0
-3.40087 -2.10573 0
-2.41054 -3.19207 0
-1.09465 -3.8473 0
0.369073 -3.98294 0
1.78295 -3.58065 0
2.95604 -2.69478 0
3.72989 -1.44497 0
CELLS 340 1360
3 0 17 18
3 0 18 1
3 1 18 19
3 1 19 2
3 2 19 20
3 2 20 3
3 3 20 21
3 3 21 4
3 4 21 22
3 4 22 5
3 5 22 23
3 5 23 6
3 6 23 24
3 6 24 7
3 7 24 25
3 7 25 8
3 8 25 26
3 8 26 9
3 9 26 27
3 9 27 10
3 10 27 28
3 10 28 11
3 11 28 29
3 11 29 12
3 12 29 30
3 12 30 13
3 13 30 31
3 13 31 14
3 14 31 32
3 14 32 15
3 15 32 33
3 15 33 16
3 16 33 17
3 16 17 0
3 17 34 35
3 17 35 18
3 18 35 36
3 18 36 19
3 19 36 37
3 19 37 20
3 20 37 38
3 20 38 21
3 21 38 39
3 21 39 22
3 22 39 40
3 22 40 23
3 23 40 41
3 23 41 24
3 24 41 42
3 24 42 25
3 25 42 43
3 25 43 26
3 26 43 44
3 26 44 27
3 27 44 45
3 27 45 28
3 28 45 46
3 28 46 29
3 29 46 47
3 29 47 30
3 30 47 48
3 30 48 31
3 31 48 49
3 31 49 32
3 32 49 50
3 32 50 33
3 33 50 34
3 33 34 17
3 34 51 52
3 34 52 35
3 35 52 53
3 35 53 36
3 36 53 54
3 36 54 37
3 37 54 55
3 37 55 38
3 38 55 56
3 38 56 39
3 39 56 57
3 39 57 40
3 40 57 58
3 40 58 41
3 41 58 59
3 41 59 42
3 42 59 60
3 42 60 43
3 43 60 61
3 43 61 44
3 44 61 62
3 44 62 45
3 45 62 63
3 45 63 46
3 46 63 64
3 46 64 47
3 47 64 65
3 47 65 48
3 48 65 66
3 48 66 49
3 49 66 67
3 49 67 50
3 50 67 51
3 50 51 34
3 51 68 69
3 51 69 52
3 52 69 70
3 52 70 53
3 53 70 71
3 53 71 54
3 54 71 72
3 54 72 55
3 55 72 73
3 55 73 56
3 56 73 74
3 56 74 57
3 57 74 75
3 57 75 58
3 58 75 76
3 58 76 59
3 59 76 77
3 59 77 60
3 60 77 78
3 60 78 61
3 61 78 79
3 61 79 62
3 62 79 80
3 62 80 63
3 63 80 81
3 63 81 64
3 64 81 82
3 64 82 65
3 65 82 83
3 65 83 66
3 66 83 84
3 66 84 67
3 67 84 68
3 67 68 51
3 68 85 86
3 68 86 69
3 69 86 87
3 69 87 70
3 70 87 88
3 70 88 71
3 71 88 89
3 71 89 72
3 72 89 90
3 72 90 73
3 73 90 91
3 73 91 74
3 74 91 92
3 74 92 75
3 75 92 93
3 75 93 76
3 76 93 94
3 76 94 77
3 77 94 95
3 77 95 78
3 78 95 96
3 78 96 79
3 79 96 97
3 79 97 80
3 80 97 98
3 80 98 81
3 81 98 99
3 81 99 82
3 82 99 100
3 82 100 83
3 83 100 101
3 83 101 84
3 84 101 85
3 84 85 68
3 85 102 103
3 85 103 86
3 86 103 104
3 86 104 87
3 87 104 105
3 87 105 88
3 88 105 106
3 88 106 89
3 89 106 107
3 89 107 90
3 90 107 108
3 90 108 91
3 91 108 109
3 91 109 92
3 92 109 110
3 92 110 93
3 93 110 111
3 93 111 94
3 94 111 112
3 94 112 95
3 95 112 113
3 95 113 96
3 96 113 114
3 96 114 97
3 97 114 115
3 97 115 98
3 98 115 116
3 98 116 99
3 99 116 117
3 99 117 100
3 100 117 118
3 100 118 101
3 101 118 102
3 101 102 85
3 102 119 120
3 102 120 103
3 103 120 121
3 103 121 104
3 104 121 122
3 104 122 105
3 105 122 123
3 105 123 106
3 106 123 124
3 106 124 107
3 107 124 125
3 107 125 108
3 108 125 126
3 108 126 109
3 109 126 127
3 109 127 110
3 110 127 128
3 110 128 111
3 111 128 129
3 111 129 112
3 112 129 130
3 112 130 113
3 113 130 131
3 113 131 114
3 114 131 132
3 114 132 115
3 115 132 133
3 115 133 116
3 116 133 134
3 116 134 117
3 117 134 135
3 117 135 118
3 118 135 119
3 118 119 102
3 119 136 137
3 119 137 120
3 120 137 138
3 120 138 121
3 121 138 139
3 121 139 122
3 122 139 140
3 122 140 123
3 123 140 141
3 123 141 124
3 124 141 142
3 124 142 125
3 125 142 143
3 125 143 126
3 126 143 144
3 126 144 127
3 127 144 145
3 127 145 128
3 128 145 146
3 128 146 129
3 129 146 147
3 129 147 130
3 130 147 148
3 130 148 131
3 131 148 149
3 131 149 132
3 132 149 150
3 132 150 133
3 133 150 151
3 133 151 134
3 134 151 152
3 134 152 135
3 135 152 136
3 135 136 119
3 136 153 154
3 136 154 137
3 137 154 155
3 137 155 138
3 138 155 156
3 138 156 139
3 139 156 157
3 139 157 140
3 140 157 158
3 140 158 141
3 141 158 159
3 141 159 142
3 142 159 160
3 142 160 143
3 143 160 161
3 143 161 144
3 144 161 162
3 144 162 145
3 145 162 163
3 145 163 146
3 146 163 164
3 146 164 147
3 147 164 165
3 147 165 148
3 148 165 166
3 148 166 149
3 149 166 167
3 149 167 150
3 150 167 168
3 150 168 151
3 151 168 169
3 151 169 152
3 152 169 153
3 152 153 136
3 153 170 171
3 153 171 154
3 154 171 172
3 154 172 155
3 155 172 173
3 155 173 156
3 156 173 174
3 156 174 157
3 157 174 175
3 157 175 158
3 158 175 176
3 158 176 159
3 159 176 177
3 159 177 160
3 160 177 178
3 160 178 161
3 161 178 179
3 161 179 162
3 162 179 180
3 162 180 163
3 163 180 181
3 163 181 164
3 164 181 182
3 164 182 165
3 165 182 183
3 165 183 166
3 166 183 184
3 166 184 167
3 167 184 185
3 167 185 168
3 168 185 186
3 168 186 169
3 169 186 170
3 169 170 153
CELL_TYPES 340
5
5
5
5
5
5
5
5
5
5
5
5
5
5
5
5
5
5
5
5
5
5
5
5
5
5
5
5
5
5
5
5
5
5
5
5
5
5
5
5
5
5
5
5
5
5
5
5
5
5
5
5
5
5
5
5
5
5
5
5
5
5
5
5
5
5
5
5
5
5
5
5
5
5
5
5
5
5
5
5
5
5
5
5
5
5
5
5
5
5
5
5
5
5
5
5
5
5
5
5
5
5
5
5
5
5
5
5
5
5
5
5
5
5
5
5
5
5
5
5
5
5
5
5
5
5
5
5
5
5
5
5
5
5
5
5
5
5
5
5
5
5
5
5
5
5
5
5
5
5
5
5
5
5
5
5
5
5
5
5
5
5
5
5
5
5
5
5
5
5
5
5
5
5
5
5
5
5
5
5
5
5
5
5
5
5
5
5
5
5
5
5
5
5
5
5
5
5
5
5
5
5
5
5
5
5
5
5
5
5
5
5
5
5
5
5
5
5
5
5
5
5
5
5
5
5
5
5
5
5
5
5
5
5
5
5
5
5
5
5
5
5
5
5
5
5
5
5
5
5
5
5
5
5
5
5
5
5
5
5
5
5
5
5
5
5
5
5
5
5
5
5
5
5
5
5
5
5
5
5
5
5
5
5
5
5
5
5
5
5
5
5
5
5
5
5
5
5
5
5
5
5
5
5
5
5
5
5
5
5
5
5
5
5
5
5
5
5
5
5
5
5
5
5
5
5
5
5
5
5
5
5
5
5
5
5
5
5
5
5
POINT_DATA 187
SCALARS psi double 1
LOOKUP_TABLE default
0
0
0
0
0
0
0
0
0
0
0
0
0
0
0
0
0
-0.189624
-0.0325456
0.128928
0.272989
0.380181
0.436028
0.432987
0.371468
0.259781
0.113009
-0.0490258
-0.204439
-0.332242
-0.415174
-0.442034
-0.409195
-0.321092
-0.310794
-0.0527582
0.212403
0.448877
0.624729
0.716207
0.710957
0.609689
0.426079
0.184925
-0.0812049
-0.336367
-0.546101
-0.682081
-0.725943
-0.671761
-0.526855
-0.389949
-0.0664062
0.266105
0.562677
0.783256
0.898053
0.891562
0.764661
0.534488
0.23213
-0.101579
-0.421569
-0.684624
-0.855216
-0.910307
-0.842456
-0.660827
-0.428857
-0.0734899
0.291802
0.617684
0.860145
0.986438
0.979508
0.840289
0.587585
0.255524
-0.111047
-0.46262
-0.751714
-0.939285
-1
-0.92566
-0.726304
-0.428291
-0.0737117
0.290822
0.616079
0.858131
0.984288
0.977511
0.838716
0.586647
0.255349
-0.110436
-0.461305
-0.749873
-0.937167
-0.99789
-0.923844
-0.725026
-0.391198
-0.0674319
0.265442
0.562466
0.783526
0.898766
0.892624
0.765927
0.535788
0.233287
-0.10072
-0.421124
-0.684653
-0.855716
-0.91121
-0.84364
-0.662131
-0.32966
-0.0567453
0.223833
0.474181
0.660489
0.757594
0.752381
0.645556
0.451544
0.196549
-0.084991
-0.355053
-0.577162
-0.721323
-0.768065
-0.711076
-0.558052
-0.254339
-0.0436655
0.172906
0.366125
0.509897
0.584805
0.580731
0.498227
0.348434
0.151583
-0.0657394
-0.274184
-0.445598
-0.556832
-0.592863
-0.548824
-0.430663
-0.166646
-0.028597
0.113314
0.239921
0.334125
0.383204
0.380529
0.326462
0.228304
0.0993123
-0.043092
-0.179676
-0.291995
-0.364877
-0.388481
-0.359619
-0.282188
0
0
0
0
0
0
0
0
0
0
0
0
0
0
0
0
0
VECTORS Et double
0.428556 -0.221364 0
0.156484 -0.20141 0
-0.0580216 -0.369957 0
-0.102994 -0.639027 0
0.0450422 -0.868169 0
0.308815 -0.937776 0
0.550639 -0.811515 0
0.644287 -0.55529 0
0.540876 -0.302847 0
0.294385 -0.185957 0
0.0334779 -0.265635 0
-0.105657 -0.500289 0
-0.0503929 -0.767435 0
0.170422 -0.927627 0
0.441528 -0.897248 0
0.621411 -0.692155 0
0.616176 -0.419403 0
0.263304 -0.314408 0
0.16717 -0.307412 0
0.0914115 -0.367006 0
0.0755742 -0.462085 0
0.127925 -0.543019 0
0.221136 -0.567561 0
0.306555 -0.522901 0
0.339594 -0.432351 0
0.303006 -0.343177 0
0.215891 -0.301925 0
0.123721 -0.330128 0
0.0746063 -0.413065 0
0.0941848 -0.507445 0
0.172237 -0.564002 0
0.26802 -0.553215 0
0.331538 -0.480715 0
0.329635 -0.384345 0
0.120906 -0.325741 0
0.149547 -0.327672 0
0.172014 -0.309804 0
0.176579 -0.281462 0
0.16086 -0.257443 0
0.13306 -0.250282 0
0.107692 -0.263718 0
0.0979978 -0.290738 0
0.109036 -0.317237 0
0.135046 -0.329384 0
0.162451 -0.320838 0
0.176945 -0.29606 0
0.170965 -0.267983 0
0.147629 -0.251264 0
0.119121 -0.254629 0
0.10032 -0.276322 0
0.10104 -0.305019 0
-0.000766049 -0.290739 0
0.116342 -0.299126 0
0.208536 -0.226429 0
0.227691 -0.110595 0
0.163811 -0.0120866 0
0.0502382 0.0176757 0
-0.0537439 -0.0368433 0
-0.093858 -0.147185 0
-0.0491661 -0.255754 0
0.0570039 -0.305878 0
0.169233 -0.271395 0
0.22894 -0.170302 0
0.204958 -0.0553701 0
0.109807 0.0134097 0
-0.00684891 0.000135329 0
-0.0841142 -0.0882645 0
-0.0816597 -0.205647 0
-0.0885547 -0.244195 0
0.0835705 -0.256738 0
0.219223 -0.150048 0
0.247595 0.0201857 0
0.153875 0.165103 0
-0.0130141 0.209061 0
-0.165961 0.129113 0
-0.22513 -0.0330085 0
-0.159635 -0.19268 0
-0.00366446 -0.266555 0
0.161369 -0.216072 0
0.24932 -0.0675829 0
0.21428 0.101404 0
0.0745391 0.202681 0
-0.09696 0.183382 0
-0.210699 0.0535825 0
-0.207306 -0.118966 0
-0.152085 -0.201887 0
0.0562711 -0.217234 0
0.220588 -0.0882073 0
0.255094 0.117844 0
0.141779 0.293365 0
-0.0602092 0.346737 0
-0.245438 0.250099 0
-0.317218 0.0538976 0
-0.238084 -0.139457 0
-0.0493416 -0.229035 0
0.150489 -0.168079 0
0.257101 0.0115935 0
0.214842 0.216196 0
0.0457732 0.33893 0
-0.161856 0.315731 0
-0.299666 0.158708 0
-0.295723 -0.0501769 0
-0.19581 -0.16564 0
0.0346094 -0.182713 0
0.216394 -0.0400979 0
0.254656 0.187764 0
0.129421 0.381931 0
-0.0939377 0.441054 0
-0.298832 0.33427 0
-0.378312 0.117319 0
-0.290888 -0.096555 0
-0.0821962 -0.195713 0
0.138831 -0.128396 0
0.256822 0.070257 0
0.210186 0.296553 0
0.0232676 0.432369 0
-0.206367 0.406813 0
-0.358849 0.233223 0
-0.35459 0.0022106 0
-0.224819 -0.134962 0
0.0176509 -0.15296 0
0.208963 -0.00290986 0
0.249257 0.236865 0
0.117499 0.441207 0
-0.117535 0.503452 0
-0.333161 0.391109 0
-0.41683 0.162823 0
-0.324861 -0.0622509 0
-0.105266 -0.166624 0
0.127332 -0.0958164 0
0.251522 0.113213 0
0.202477 0.351351 0
0.00579956 0.494297 0
-0.23585 0.467435 0
-0.396329 0.284784 0
-0.39188 0.0416884 0
-0.249684 -0.109021 0
0.0033516 -0.127783 0
0.202986 0.0288197 0
0.245017 0.279044 0
0.107501 0.492278 0
-0.137778 0.557215 0
-0.36279 0.439964 0
-0.450081 0.20172 0
-0.35409 -0.0331499 0
-0.12492 -0.142052 0
0.117807 -0.0681411 0
0.24739 0.150004 0
0.19619 0.398515 0
-0.00906821 0.547672 0
-0.261243 0.51962 0
-0.428704 0.329001 0
-0.424039 0.0753133 0
-0.291059 -0.0871828 0
-0.0119196 -0.107841 0
0.208288 0.0649478 0
0.254609 0.340988 0
0.102877 0.576197 0
-0.167713 0.647796 0
-0.415915 0.51841 0
-0.512178 0.255582 0
-0.406248 -0.00350197 0
-0.15342 -0.123602 0
0.114333 -0.0420292 0
0.257247 0.198637 0
0.200728 0.472775 0
-0.0257259 0.637287 0
-0.303905 0.606296 0
-0.488622 0.396002 0
-0.483425 0.116138 0
-0.357096 -0.069136 0
-0.0296355 -0.0933367 0
0.228661 0.109388 0
0.282974 0.43322 0
0.104948 0.709123 0
-0.212491 0.793083 0
-0.503647 0.641276 0
-0.616525 0.332929 0
-0.492233 0.0290155 0
-0.195627 -0.111842 0
0.118461 -0.0161152 0
0.28609 0.266232 0
0.219748 0.587808 0
-0.0459244 0.780772 0
-0.372251 0.744378 0
-0.588901 0.497648 0
-0.582785 0.169355 0
