# vtk DataFile Version 3.0
tp3485 scalar+vector
ASCII
DATASET UNSTRUCTURED_GRID
POINTS 187 double
1 0 0
0.932472 0.361242 0
0.739009 0.673696 0
0.445738 0.895163 0
0.0922684 0.995734 0
-0.273663 0.961826 0
-0.602635 0.798017 0
-0.850217 0.526432 0
-0.982973 0.18375 0
-0.982973 -0.18375 0
-0.850217 -0.526432 0
-0.602635 -0.798017 0
-0.273663 -0.961826 0
0.0922684 -0.995734 0
0.445738 -0.895163 0
0.739009 -0.673696 0
0.932472 -0.361242 0
1.3 0 0
1.21221 0.469614 0
0.960712 0.875804 0
0.57946 1.16371 0
0.119949 1.29445 0
-0.355762 1.25037 0
-0.783425 1.03742 0
-1.10528 0.684362 0
-1.27787 0.238874 0
-1.27787 -0.238874 0
-1.10528 -0.684362 0
-0.783425 -1.03742 0
-0.355762 -1.25037 0
0.119949 -1.29445 0
0.57946 -1.16371 0
0.960712 -0.875804 0
1.21221 -0.469614 0
1.6 0 0
1.49196 0.577987 0
1.18241 1.07791 0
0.713181 1.43226 0
0.147629 1.59317 0
-0.437861 1.53892 0
-0.964215 1.27683 0
-1.36035 0.842291 0
-1.57276 0.293999 0
-1.57276 -0.293999 0
-1.36035 -0.842291 0
-0.964215 -1.27683 0
-0.437861 -1.53892 0
0.147629 -1.59317 0
0.713181 -1.43226 0
1.18241 -1.07791 0
1.49196 -0.577987 0
1.9 0 0
1.7717 0.686359 0
1.40412 1.28002 0
0.846903 1.70081 0
0.17531 1.89189 0
-0.51996 1.82747 0
-1.14501 1.51623 0
-1.61541 1.00022 0
-1.86765 0.349124 0
-1.86765 -0.349124 0
-1.61541 -1.00022 0
-1.14501 -1.51623 0
-0.51996 -1.82747 0
0.17531 -1.89189 0
0.846903 -1.70081 0
1.40412 -1.28002 0
1.7717 -0.686359 0
2.2 0 0
2.05144 0.794732 0
1.62582 1.48213 0
0.980624 1.96936 0
0.20299 2.19062 0
-0.602059 2.11602 0
-1.3258 1.75564 0
-1.87048 1.15815 0
-2.16254 0.404249 0
-2.16254 -0.404249 0
-1.87048 -1.15815 0
-1.3258 -1.75564 0
-0.602059 -2.11602 0
0.20299 -2.19062 0
0.980624 -1.96936 0
1.62582 -1.48213 0
2.05144 -0.794732 0
2.5 0 0
2.33118 0.903104 0
1.84752 1.68424 0
1.11435 2.23791 0
0.230671 2.48934 0
-0.684157 2.40456 0
-1.50659 1.99504 0
-2.12554 1.31608 0
-2.45743 0.459374 0
-2.45743 -0.459374 0
-2.12554 -1.31608 0
-1.50659 -1.99504 0
-0.684157 -2.40456 0
0.230671 -2.48934 0
1.11435 -2.23791 0
1.84752 -1.68424 0
2.33118 -0.903104 0
2.8 0 0
2.61092 1.01148 0
2.06922 1.88635 0
1.24807 2.50646 0
0.258351 2.78806 0
-0.766256 2.69311 0
-1.68738 2.23445 0
-2.38061 1.47401 0
-2.75232 0.514499 0
-2.75232 -0.514499 0
-2.38061 -1.47401 0
-1.68738 -2.23445 0
-0.766256 -2.69311 0
0.258351 -2.78806 0
1.24807 -2.50646 0
2.06922 -1.88635 0
2.61092 -1.01148 0
3.1 0 0
2.89066 1.11985 0
2.29093 2.08846 0
1.38179 2.77501 0
0.286032 3.08678 0
-0.848355 2.98166 0
-1.86817 2.47385 0
-2.63567 1.63194 0
-3.04722 0.569624 0
-3.04722 -0.569624 0
-2.63567 -1.63194 0
-1.86817 -2.47385 0
-0.848355 -2.98166 0
0.286032 -3.08678 0
1.38179 -2.77501 0
2.29093 -2.08846 0
2.89066 -1.11985 0
3.4 0 0
3.17041 1.22822 0
2.51263 2.29057 0
1.51551 3.04356 0
0.313712 3.3855 0
-0.930454 3.27021 0
-2.04896 2.71326 0
-2.89074 1.78987 0
-3.34211 0.624748 0
-3.34211 -0.624748 0
-2.89074 -1.78987 0
-2.04896 -2.71326 0
-0.930454 -3.27021 0
0.313712 -3.3855 0
1.51551 -3.04356 0
2.51263 -2.29057 0
3.17041 -1.22822 0
3.7 0 0
3.45015 1.33659 0
2.73433 2.49267 0
1.64923 3.3121 0
0.341393 3.68422 0
-1.01255 3.55875 0
-2.22975 2.95266 0
-3.1458 1.9478 0
-3.637 0.679873 0
-3.637 -0.679873 0
-3.1458 -1.9478 0
-2.22975 -2.95266 0
-1.01255 -3.55875 0
0.341393 -3.68422 0
1.64923 -3.3121 0
2.73433 -2.49267 0
3.45015 -1.33659 0
4 0 0
3.72989 1.44497 0
2.95604 2.69478 0
1.78295 3.58065 0
0.369073 3.98294 0
-1.09465 3.8473 0
-2.41054 3.19207 0
-3.40087 2.10573 0
-3.93189 0.734998 0
-3.93189 -0.734998 0
-3.40087 -2.10573 0
-2.41054 -3.19207 0
-1.09465 -3.8473 0
0.369073 -3.98294 0
1.78295 -3.58065 0
2.95604 -2.69478 0
3.72989 -1.44497 0
CELLS 340 1360
3 0 17 18
3 0 18 1
3 1 18 19
3 1 19 2
3 2 19 20
3 2 20 3
3 3 20 21
3 3 21 4
3 4 21 22
3 4 22 5
3 5 22 23
3 5 23 6
3 6 23 24
3 6 24 7
3 7 24 25
3 7 25 8
3 8 25 26
3 8 26 9
3 9 26 27
3 9 27 10
3 10 27 28
3 10 28 11
3 11 28 29
3 11 29 12
3 12 29 30
3 12 30 13
3 13 30 31
3 13 31 14
3 14 31 32
3 14 32 15
3 15 32 33
3 15 33 16
3 16 33 17
3 16 17 0
3 17 34 35
3 17 35 18
3 18 35 36
3 18 36 19
3 19 36 37
3 19 37 20
3 20 37 38
3 20 38 21
3 21 38 39
3 21 39 22
3 22 39 40
3 22 40 23
3 23 40 41
3 23 41 24
3 24 41 42
3 24 42 25
3 25 42 43
3 25 43 26
3 26 43 44
3 26 44 27
3 27 44 45
3 27 45 28
3 28 45 46
3 28 46 29
3 29 46 47
3 29 47 30
3 30 47 48
3 30 48 31
3 31 48 49
3 31 49 32
3 32 49 50
3 32 50 33
3 33 50 34
3 33 34 17
3 34 51 52
3 34 52 35
3 35 52 53
3 35 53 36
3 36 53 54
3 36 54 37
3 37 54 55
3 37 55 38
3 38 55 56
3 38 56 39
3 39 56 57
3 39 57 40
3 40 57 58
3 40 58 41
3 41 58 59
3 41 59 42
3 42 59 60
3 42 60 43
3 43 60 61
3 43 61 44
3 44 61 62
3 44 62 45
3 45 62 63
3 45 63 46
3 46 63 64
3 46 64 47
3 47 64 65
3 47 65 48
3 48 65 66
3 48 66 49
3 49 66 67
3 49 67 50
3 50 67 51
3 50 51 34
3 51 68 69
3 51 69 52
3 52 69 70
3 52 70 53
3 53 70 71
3 53 71 54
3 54 71 72
3 54 72 55
3 55 72 73
3 55 73 56
3 56 73 74
3 56 74 57
3 57 74 75
3 57 75 58
3 58 75 76
3 58 76 59
3 59 76 77
3 59 77 60
3 60 77 78
3 60 78 61
3 61 78 79
3 61 79 62
3 62 79 80
3 62 80 63
3 63 80 81
3 63 81 64
3 64 81 82
3 64 82 65
3 65 82 83
3 65 83 66
3 66 83 84
3 66 84 67
3 67 84 68
3 67 68 51
3 68 85 86
3 68 86 69
3 69 86 87
3 69 87 70
3 70 87 88
3 70 88 71
3 71 88 89
3 71 89 72
3 72 89 90
3 72 90 73
3 73 90 91
3 73 91 74
3 74 91 92
3 74 92 75
3 75 92 93
3 75 93 76
3 76 93 94
3 76 94 77
3 77 94 95
3 77 95 78
3 78 95 96
3 78 96 79
3 79 96 97
3 79 97 80
3 80 97 98
3 80 98 81
3 81 98 99
3 81 99 82
3 82 99 100
3 82 100 83
3 83 100 101
3 83 101 84
3 84 101 85
3 84 85 68
3 85 102 103
3 85 103 86
3 86 103 104
3 86 104 87
3 87 104 105
3 87 105 88
3 88 105 106
3 88 106 89
3 89 106 107
3 89 107 90
3 90 107 108
3 90 108 91
3 91 108 109
3 91 109 92
3 92 109 110
3 92 110 93
3 93 110 111
3 93 111 94
3 94 111 112
3 94 112 95
3 95 112 113
3 95 113 96
3 96 113 114
3 96 114 97
3 97 114 115
3 97 115 98
3 98 115 116
3 98 116 99
3 99 116 117
3 99 117 100
3 100 117 118
3 100 118 101
3 101 118 102
3 101 102 85
3 102 119 120
3 102 120 103
3 103 120 121
3 103 121 104
3 104 121 122
3 104 122 105
3 105 122 123
3 105 123 106
3 106 123 124
3 106 124 107
3 107 124 125
3 107 125 108
3 108 125 126
3 108 126 109
3 109 126 127
3 109 127 110
3 110 127 128
3 110 128 111
3 111 128 129
3 111 129 112
3 112 129 130
3 112 130 113
3 113 130 131
3 113 131 114
3 114 131 132
3 114 132 115
3 115 132 133
3 115 133 116
3 116 133 134
3 116 134 117
3 117 134 135
3 117 135 118
3 118 135 119
3 118 119 102
3 119 136 137
3 119 137 120
3 120 137 138
3 120 138 121
3 121 138 139
3 121 139 122
3 122 139 140
3 122 140 123
3 123 140 141
3 123 141 124
3 124 141 142
3 124 142 125
3 125 142 143
3 125 143 126
3 126 143 144
3 126 144 127
3 127 144 145
3 127 145 128
3 128 145 146
3 128 146 129
3 129 146 147
3 129 147 130
3 130 147 148
3 130 148 131
3 131 148 149
3 131 149 132
3 132 149 150
3 132 150 133
3 133 150 151
3 133 151 134
3 134 151 152
3 134 152 135
3 135 152 136
3 135 136 119
3 136 153 154
3 136 154 137
3 137 154 155
3 137 155 138
3 138 155 156
3 138 156 139
3 139 156 157
3 139 157 140
3 140 157 158
3 140 158 141
3 141 158 159
3 141 159 142
3 142 159 160
3 142 160 143
3 143 160 161
3 143 161 144
3 144 161 162
3 144 162 145
3 145 162 163
3 145 163 146
3 146 163 164
3 146 164 147
3 147 164 165
3 147 165 148
3 148 165 166
3 148 166 149
3 149 166 167
3 149 167 150
3 150 167 168
3 150 168 151
3 151 168 169
3 151 169 152
3 152 169 153
3 152 153 136
3 153 170 171
3 153 171 154
3 154 171 172
3 154 172 155
3 155 172 173
3 155 173 156
3 156 173 174
3 156 174 157
3 157 174 175
3 157 175 158
3 158 175 176
3 158 176 159
3 159 176 177
3 159 177 160
3 160 177 178
3 160 178 161
3 161 178 179
3 161 179 162
3 162 179 180
3 162 180 163
3 163 180 181
3 163 181 164
3 164 181 182
3 164 182 165
3 165 182 183
3 165 183 166
3 166 183 184
3 166 184 167
3 167 184 185
3 167 185 168
3 168 185 186
3 168 186 169
3 169 186 170
3 169 170 153
CELL_TYPES 340
5
5
5
5
5
5
5
5
5
5
5
5
5
5
5
5
5
5
5
5
5
5
5
5
5
5
5
5
5
5
5
5
5
5
5
5
5
5
5
5
5
5
5
5
5
5
5
5
5
5
5
5
5
5
5
5
5
5
5
5
5
5
5
5
5
5
5
5
5
5
5
5
5
5
5
5
5
5
5
5
5
5
5
5
5
5
5
5
5
5
5
5
5
5
5
5
5
5
5
5
5
5
5
5
5
5
5
5
5
5
5
5
5
5
5
5
5
5
5
5
5
5
5
5
5
5
5
5
5
5
5
5
5
5
5
5
5
5
5
5
5
5
5
5
5
5
5
5
5
5
5
5
5
5
5
5
5
5
5
5
5
5
5
5
5
5
5
5
5
5
5
5
5
5
5
5
5
5
5
5
5
5
5
5
5
5
5
5
5
5
5
5
5
5
5
5
5
5
5
5
5
5
5
5
5
5
5
5
5
5
5
5
5
5
5
5
5
5
5
5
5
5
5
5
5
5
5
5
5
5
5
5
5
5
5
5
5
5
5
5
5
5
5
5
5
5
5
5
5
5
5
5
5
5
5
5
5
5
5
5
5
5
5
5
5
5
5
5
5
5
5
5
5
5
5
5
5
5
5
5
5
5
5
5
5
5
5
5
5
5
5
5
5
5
5
5
5
5
5
5
5
5
5
5
5
5
5
5
5
5
5
5
5
5
5
5
5
5
5
5
5
5
5
5
5
5
5
5
5
5
5
5
5
5
5
5
5
5
5
5
POINT_DATA 187
SCALARS psi double 1
LOOKUP_TABLE default
0
0
0
0
0
0
0
0
0
0
0
0
0
0
0
0
0
0.4697
0.4697
0.4697
0.4697
0.4697
0.4697
0.4697
0.4697
0.4697
0.4697
0.4697
0.4697
0.4697
0.4697
0.4697
0.4697
0.4697
0.755999
0.755999
0.755999
0.755999
0.755999
0.755999
0.755999
0.755999
0.755999
0.755999
0.755999
0.755999
0.755999
0.755999
0.755999
0.755999
0.755999
0.928308
0.928308
0.928308
0.928308
0.928308
0.928308
0.928308
0.928308
0.928308
0.928308
0.928308
0.928308
0.928308
0.928308
0.928308
0.928308
0.928308
1
1
1
1
1
1
1
1
1
1
1
1
1
1
1
1
1
0.980567
0.980567
0.980567
0.980567
0.980567
0.980567
0.980567
0.980567
0.980567
0.980567
0.980567
0.980567
0.980567
0.980567
0.980567
0.980567
0.980567
0.881516
0.881516
0.881516
0.881516
0.881516
0.881516
0.881516
0.881516
0.881516
0.881516
0.881516
0.881516
0.881516
0.881516
0.881516
0.881516
0.881516
0.732907
0.732907
0.732907
0.732907
0.732907
0.732907
0.732907
0.732907
0.732907
0.732907
0.732907
0.732907
0.732907
0.732907
0.732907
0.732907
0.732907
0.559829
0.559829
0.559829
0.559829
0.559829
0.559829
0.559829
0.559829
0.559829
0.559829
0.559829
0.559829
0.559829
0.559829
0.559829
0.559829
0.559829
0.365572
0.365572
0.365572
0.365572
0.365572
0.365572
0.365572
0.365572
0.365572
0.365572
0.365572
0.365572
0.365572
0.365572
0.365572
0.365572
0.365572
0
0
0
0
0
0
0
0
0
0
0
0
0
0
0
0
0
VECTORS Et double
-0.999999 -2.11527e-13 0
-0.932471 -0.361241 0
-0.739008 -0.673695 0
-0.445738 -0.895163 0
-0.0922683 -0.995733 0
0.273663 -0.961825 0
0.602635 -0.798017 0
0.850217 -0.526432 0
0.982972 -0.183749 0
0.982972 0.183749 0
0.850217 0.526432 0
0.602634 0.798017 0
0.273663 0.961825 0
-0.0922683 0.995733 0
-0.445738 0.895162 0
-0.739008 0.673695 0
-0.932472 0.361241 0
-0.587438 -2.70006e-13 0
-0.547769 -0.212208 0
-0.434121 -0.395754 0
-0.261843 -0.525852 0
-0.0542019 -0.584932 0
0.16076 -0.565012 0
0.35401 -0.468785 0
0.49945 -0.309246 0
0.577435 -0.107941 0
0.577435 0.107941 0
0.49945 0.309246 0
0.35401 0.468785 0
0.16076 0.565013 0
-0.0542019 0.584932 0
-0.261843 0.525852 0
-0.434122 0.395755 0
-0.547769 0.212207 0
-0.245563 -2.51723e-13 0
-0.228981 -0.0887071 0
-0.181474 -0.165436 0
-0.109457 -0.219819 0
-0.0226576 -0.244516 0
0.0672013 -0.236189 0
0.147984 -0.195963 0
0.208782 -0.129272 0
0.241382 -0.0451222 0
0.241382 0.0451219 0
0.208782 0.129272 0
0.147985 0.195964 0
0.0672009 0.236189 0
-0.0226577 0.244516 0
-0.109457 0.219819 0
-0.181473 0.165435 0
-0.228981 0.0887071 0
0.0301691 -2.24686e-13 0
0.0281319 0.0108987 0
0.0222956 0.0203252 0
0.0134472 0.0270063 0
0.00278373 0.0300404 0
-0.00825633 0.0290175 0
-0.0181812 0.0240754 0
-0.0256502 0.0158819 0
-0.0296554 0.00554364 0
-0.0296555 -0.00554362 0
-0.0256506 -0.0158816 0
-0.0181807 -0.0240752 0
-0.00825607 -0.0290173 0
0.00278349 -0.0300404 0
0.0134481 -0.0270065 0
0.0222952 -0.0203252 0
0.028132 -0.0108987 0
0.219575 -2.06203e-13 0
0.204747 0.0793198 0
0.162268 0.147927 0
0.0978733 0.196555 0
0.0202599 0.218638 0
-0.0600894 0.211192 0
-0.132324 0.175224 0
-0.186687 0.115591 0
-0.215836 0.0403467 0
-0.215836 -0.0403465 0
-0.186686 -0.11559 0
-0.132323 -0.175225 0
-0.0600894 -0.211193 0
0.0202598 -0.218638 0
0.0978728 -0.196555 0
0.162268 -0.147926 0
0.204747 -0.0793196 0
0.351619 -1.98269e-13 0
0.327875 0.127019 0
0.25985 0.236885 0
0.156729 0.314756 0
0.0324436 0.350119 0
-0.0962249 0.338196 0
-0.211898 0.280598 0
-0.298953 0.185104 0
-0.345632 0.0646099 0
-0.345632 -0.0646099 0
-0.298952 -0.185104 0
-0.211899 -0.2806 0
-0.0962252 -0.338196 0
0.0324434 -0.350119 0
0.15673 -0.314757 0
0.25985 -0.236884 0
0.327875 -0.127019 0
0.439235 -1.97348e-13 0
0.409575 0.15867 0
0.324599 0.295911 0
0.195784 0.393188 0
0.0405276 0.437361 0
-0.120202 0.422468 0
-0.264698 0.350518 0
-0.373445 0.231228 0
-0.431756 0.0807092 0
-0.431756 -0.0807096 0
-0.373443 -0.231226 0
-0.264699 -0.350518 0
-0.120202 -0.422468 0
0.0405276 -0.437361 0
0.195785 -0.393187 0
0.324598 -0.295911 0
0.409575 -0.15867 0
0.494597 -1.97702e-13 0
0.461198 0.17867 0
0.36551 0.333207 0
0.220461 0.442744 0
0.0456357 0.492487 0
-0.135352 0.475715 0
-0.29806 0.394695 0
-0.420516 0.260373 0
-0.486175 0.090882 0
-0.486175 -0.0908817 0
-0.420516 -0.260372 0
-0.298062 -0.394699 0
-0.135353 -0.475716 0
0.0456357 -0.492487 0
0.220461 -0.442745 0
0.365508 -0.333205 0
0.461195 -0.178667 0
0.540133 -1.94421e-13 0
0.50366 0.19512 0
0.399161 0.363884 0
0.240759 0.483507 0
0.049837 0.537829 0
-0.147814 0.519513 0
-0.325503 0.431037 0
-0.459229 0.284342 0
-0.530936 0.0992492 0
-0.530936 -0.0992497 0
-0.459231 -0.284342 0
-0.325504 -0.431036 0
-0.147815 -0.519515 0
0.0498369 -0.537829 0
0.240758 -0.483507 0
0.399164 -0.363886 0
0.503659 -0.195118 0
0.619286 -1.8647e-13 0
0.577466 0.223712 0
0.457666 0.417216 0
0.276037 0.554359 0
0.0571403 0.616644 0
-0.169475 0.595645 0
-0.373201 0.494198 0
-0.526527 0.326012 0
-0.608741 0.113793 0
-0.608742 -0.113794 0
-0.526531 -0.326013 0
-0.373201 -0.494198 0
-0.169475 -0.595644 0
0.0571404 -0.616644 0
0.276036 -0.554356 0
0.457665 -0.417218 0
0.577463 -0.22371 0
0.750072 -1.72837e-13 0
0.69943 0.270961 0
0.554303 0.505314 0
0.334336 0.671436 0
0.069208 0.746873 0
-0.205268 0.721441 0
-0.452024 0.598576 0
-0.637716 0.394857 0
-0.737301 0.137825 0
-0.7373 -0.137825 0
-0.637716 -0.394857 0
-0.452025 -0.598578 0
-0.205266 -0.721436 0
0.069208 -0.746873 0
0.334331 -0.671428 0
0.554305 -0.505316 0
0.699418 -0.270956 0
